<svg xmlns="http://www.w3.org/2000/svg" width="539.998" height="384.668" viewBox="0 0 539.998 384.668"><g transform="translate(-32 -248)"><g transform="translate(-279.742 -40.585)"><g transform="translate(311.742 288.585)"><g transform="translate(0.437)"><g transform="translate(0.1)"><path d="M850.932,302.66h.639v-13.5H312.529V571.2h538.4V542.87h.005Z" transform="translate(-312.529 -288.77)" fill="#fff"/><rect width="538.505" height="0.789" transform="translate(0 282.036)" fill="#a0bacb"/><rect width="539.042" height="0.789" fill="#7b88ac"/></g><g transform="translate(217.739 57.628)"><path d="M633.745,374.037v-.207H627.34v.207H561.12V545.985H697.11V374.037Zm57.735,5.521v37.811H633.745V379.558Zm-64.14,44.335V496.13H566.75V423.893Zm6.406,72.237V423.893H691.48V496.13ZM627.34,379.558v37.811H566.75V379.558Zm-60.59,123.1h60.59v37.811H566.75Zm67,37.811V502.654H691.48v37.811Z" transform="translate(-560.718 -373.435)" fill="#ebebeb"/><path d="M697.323,546.2H560.529V373.457h66.22v-.207h7.21v.207h63.364Zm-135.99-.789H696.519V374.246H633.155v-.207h-5.6v.207H561.334Zm130.359-4.733H633.155v-38.6h58.538Zm-57.734-.788h56.93V502.863h-56.93Zm-6.406.788H566.159v-38.6h61.394Zm-60.589-.788h59.785V502.863H566.963Zm124.729-43.547H633.155V423.313h58.538Zm-57.734-.789h56.93V424.1h-56.93Zm-6.406.789H566.159V423.313h61.394Zm-60.589-.789h59.785V424.1H566.963Zm124.729-77.972H633.155v-38.6h58.538Zm-57.734-.789h56.93V379.767h-56.93Zm-6.406.789H566.159v-38.6h61.394Zm-60.589-.789h59.785V379.767H566.963Z" transform="translate(-560.529 -373.25)" fill="#ebebeb"/></g><g transform="translate(0 57.628)"><path d="M385.6,374.037v-.207h-6.406v.207H312.974V545.985h135.99V374.037Zm57.735,5.521v37.811H385.6V379.558Zm-64.141,44.335V496.13H318.6V423.893ZM385.6,496.13V423.893h57.735V496.13Zm-6.406-116.572v37.811H318.6V379.558ZM318.6,502.654h60.589v37.811H318.6Zm67,37.811V502.654h57.735v37.811Z" transform="translate(-312.572 -373.435)" fill="#ebebeb"/><path d="M449.177,546.2H312.383V373.457H378.6v-.207h7.21v.207h63.364Zm-135.99-.789H448.373V374.246H385.008v-.207h-5.6v.207h-66.22Zm130.36-4.733H385.008v-38.6h58.538Zm-57.734-.788h56.929V502.863H385.813Zm-6.406.788H318.013v-38.6h61.394Zm-60.589-.788H378.6V502.863H318.817Zm124.73-43.547H385.008V423.313h58.538Zm-57.734-.789h56.929V424.1H385.813Zm-6.406.789H318.013V423.313h61.394Zm-60.589-.789H378.6V424.1H318.817Zm124.73-77.972H385.008v-38.6h58.538Zm-57.734-.789h56.929V379.767H385.813Zm-6.406.789H318.013v-38.6h61.394Zm-60.589-.789H378.6V379.767H318.817Z" transform="translate(-312.383 -373.25)" fill="#ebebeb"/></g><g transform="translate(431.265 57.629)"><path d="M920.935,540.465H886.618V502.654h34.317V496.13H886.618V423.893h34.317v-6.524H886.618V379.558h34.317v-5.521H886.618v-.207h-6.406v.207H813.993V545.985H920.935Zm-40.723,0H819.623V502.654h60.589Zm0-44.335H819.623V423.893h60.589Zm0-78.761H819.623V379.558h60.589Z" transform="translate(-813.591 -373.436)" fill="#ebebeb"/><path d="M920.1,601.112H954.82v-.789H920.9V563.3H954.82v-.789H920.1Z" transform="translate(-847.475 -433.689)" fill="#ebebeb"/><path d="M920.1,519.826H954.82v-.789H920.9V447.59H954.82V446.8H920.1Z" transform="translate(-847.475 -396.738)" fill="#ebebeb"/><path d="M920.1,420.265H954.82v-.789H920.9V382.454H954.82v-.789H920.1Z" transform="translate(-847.475 -375.938)" fill="#ebebeb"/><path d="M883.067,381.666H821.674v38.6h61.393Zm-.8,37.81H822.478V382.454h59.785Z" transform="translate(-816.044 -375.938)" fill="#ebebeb"/><path d="M920.747,545.406H814.207V374.246h66.219v-.207h5.6v.207h34.719v-.789H886.832v-.207h-7.21v.207H813.4V546.2H920.747Z" transform="translate(-813.402 -373.25)" fill="#ebebeb"/><path d="M821.674,601.112h61.393v-38.6H821.674Zm.8-37.81h59.785v37.022H822.478Z" transform="translate(-816.044 -433.689)" fill="#ebebeb"/><path d="M883.067,446.8H821.674v73.025h61.393Zm-.8,72.236H822.478V447.59h59.785Z" transform="translate(-816.044 -396.738)" fill="#ebebeb"/></g></g><g transform="translate(377.198 128.48)"><ellipse cx="13.398" cy="13.138" rx="13.398" ry="13.138" fill="#fff4ba"/><g transform="translate(0.735 0.721)"><path d="M782.125,503.235a12.419,12.419,0,1,1,12.662-12.417A12.556,12.556,0,0,1,782.125,503.235Zm0-24.353A11.939,11.939,0,1,0,794.3,490.818,12.07,12.07,0,0,0,782.125,478.882Z" transform="translate(-769.463 -478.401)" fill="#fff4ba"/></g><g transform="translate(13.153 4.005)"><path d="M795.139,492.6h-7.188a.243.243,0,0,1-.245-.24v-8.892a.245.245,0,0,1,.49,0v8.652h6.943a.24.24,0,1,1,0,.481Z" transform="translate(-787.706 -483.226)" fill="#fff4ba"/></g><g transform="translate(13.153 1.482)"><path d="M787.951,481.262a.243.243,0,0,1-.245-.24v-1.262a.245.245,0,0,1,.49,0v1.262A.243.243,0,0,1,787.951,481.262Z" transform="translate(-787.706 -479.519)" fill="#fff4ba"/><g transform="translate(0 21.329)"><path d="M787.951,512.6a.243.243,0,0,1-.245-.241V511.1a.245.245,0,0,1,.49,0v1.261A.243.243,0,0,1,787.951,512.6Z" transform="translate(-787.706 -510.855)" fill="#fff4ba"/></g></g><g transform="translate(1.634 12.778)"><g transform="translate(21.751)"><path d="M804.27,496.595h-1.286a.24.24,0,1,1,0-.481h1.286a.24.24,0,1,1,0,.481Z" transform="translate(-802.738 -496.114)" fill="#fff4ba"/></g><path d="M772.315,496.595h-1.286a.24.24,0,1,1,0-.481h1.286a.24.24,0,1,1,0,.481Z" transform="translate(-770.783 -496.114)" fill="#fff4ba"/></g><g transform="translate(3.125 3.244)"><g transform="translate(0 3.974)"><g transform="translate(18.934)"><path d="M801.037,489.048a.245.245,0,0,1-.214-.122.238.238,0,0,1,.093-.327l1.12-.621a.247.247,0,0,1,.333.091.238.238,0,0,1-.093.327l-1.12.621A.241.241,0,0,1,801.037,489.048Z" transform="translate(-800.791 -487.947)" fill="#fff4ba"/></g><g transform="translate(0 10.497)"><path d="M773.22,504.47a.245.245,0,0,1-.214-.122.238.238,0,0,1,.092-.328l1.12-.621a.247.247,0,0,1,.334.091.237.237,0,0,1-.093.327l-1.12.621A.245.245,0,0,1,773.22,504.47Z" transform="translate(-772.974 -503.368)" fill="#fff4ba"/></g></g><g transform="translate(3.849)"><g transform="translate(11.665)"><path d="M796.012,483.653a.25.25,0,0,1-.131-.037.238.238,0,0,1-.075-.332l.69-1.065a.25.25,0,0,1,.339-.074.238.238,0,0,1,.075.332l-.69,1.065A.246.246,0,0,1,796.012,483.653Z" transform="translate(-795.768 -482.107)" fill="#fff4ba"/></g><g transform="translate(0 18.003)"><path d="M778.875,510.1a.248.248,0,0,1-.131-.037.237.237,0,0,1-.076-.331l.69-1.065a.249.249,0,0,1,.338-.073.238.238,0,0,1,.075.331l-.69,1.065A.247.247,0,0,1,778.875,510.1Z" transform="translate(-778.63 -508.556)" fill="#fff4ba"/></g></g></g><g transform="translate(3.431 2.945)"><g transform="translate(4.053)"><g transform="translate(10.705 18.567)"><path d="M795.983,510.525a.246.246,0,0,1-.214-.122l-.633-1.1a.238.238,0,0,1,.093-.327.246.246,0,0,1,.333.091l.634,1.1a.238.238,0,0,1-.093.327A.249.249,0,0,1,795.983,510.525Z" transform="translate(-795.104 -508.946)" fill="#fff4ba"/></g><path d="M780.256,483.247a.246.246,0,0,1-.214-.122l-.633-1.1a.238.238,0,0,1,.093-.327.248.248,0,0,1,.334.091l.633,1.1a.237.237,0,0,1-.093.327A.248.248,0,0,1,780.256,483.247Z" transform="translate(-779.377 -481.668)" fill="#fff4ba"/></g><g transform="translate(0 3.775)"><g transform="translate(18.358 11.44)"><path d="M801.724,505.177a.249.249,0,0,1-.131-.037l-1.086-.677a.238.238,0,0,1-.076-.332.249.249,0,0,1,.339-.073l1.086.677a.237.237,0,0,1,.076.331A.247.247,0,0,1,801.724,505.177Z" transform="translate(-800.393 -504.02)" fill="#fff4ba"/></g><path d="M774.754,488.371a.251.251,0,0,1-.131-.037l-1.086-.677a.238.238,0,0,1-.076-.332.248.248,0,0,1,.338-.074l1.086.677a.237.237,0,0,1,.076.331A.246.246,0,0,1,774.754,488.371Z" transform="translate(-773.423 -487.214)" fill="#fff4ba"/></g></g></g><g transform="translate(0 248.476)"><path d="M850.784,654.126h-538.4v96.767h-.644v39.09H850.778V658.249h.005Z" transform="translate(-311.742 -653.791)" fill="#f9f9f9"/><rect width="537.572" height="0.565" transform="translate(1.603 135.414)" fill="#f9f9f9"/><rect width="538.51" height="0.565" transform="translate(0.536)" fill="#f9f9f9"/></g><g transform="translate(27.213 4.972)"><path d="M767.255,380.269V295.89h-1.719v84.379a10.432,10.432,0,1,0,1.719,0Z" transform="translate(-410.888 -295.89)" fill="#fff4ba"/><path d="M363.011,390.061V305.682h-1.718v84.379a10.432,10.432,0,1,0,1.718,0Z" transform="translate(-351.722 -299.017)" fill="#fff4ba"/><path d="M503.75,376.874V315.528H502.5v61.346a7.584,7.584,0,1,0,1.249,0Z" transform="translate(-373.165 -302.161)" fill="#fff4ba"/><path d="M889.986,376.874V315.528h-1.25v61.346a7.584,7.584,0,1,0,1.25,0Z" transform="translate(-430.749 -302.161)" fill="#fff4ba"/><path d="M626.643,366.782V305.436h-1.25v61.346a7.584,7.584,0,1,0,1.25,0Z" transform="translate(-391.487 -298.938)" fill="#fff4ba"/></g><g transform="translate(15.174 121.979)"><g transform="translate(0 23.664)"><rect width="44.133" height="1.855" transform="translate(0.403 0.395)" fill="#ebebeb"/><path d="M378.972,505.2H334.035v-2.644h44.937Zm-44.133-.789h43.328v-1.066H334.84Z" transform="translate(-334.035 -502.557)" fill="#ebebeb"/><g transform="translate(0 27.977)"><rect width="44.133" height="1.855" transform="translate(0.403 0.394)" fill="#ebebeb"/><path d="M378.972,546.3H334.035v-2.643h44.937Zm-44.133-.789h43.328v-1.066H334.84Z" transform="translate(-334.035 -543.659)" fill="#ebebeb"/></g><g transform="translate(0 55.953)"><rect width="44.133" height="1.855" transform="translate(0.403 0.394)" fill="#ebebeb"/><path d="M378.972,587.4H334.035V584.76h44.937Zm-44.133-.789h43.328v-1.066H334.84Z" transform="translate(-334.035 -584.76)" fill="#ebebeb"/></g><g transform="translate(0 0.619)"><g transform="translate(0 83.927)"><rect width="44.133" height="1.855" transform="translate(0.403 0.395)" fill="#ebebeb"/><path d="M378.972,629.412H334.035v-2.644h44.937Zm-44.133-.789h43.328v-1.066H334.84Z" transform="translate(-334.035 -626.768)" fill="#ebebeb"/></g><g transform="translate(0 110.703)"><rect width="44.133" height="1.855" transform="translate(0.403 0.394)" fill="#ebebeb"/><path d="M378.972,668.75H334.035v-2.644h44.937Zm-44.133-.789h43.328v-1.066H334.84Z" transform="translate(-334.035 -666.106)" fill="#ebebeb"/></g><rect width="2.364" height="134.579" transform="translate(0.403 0.394)" fill="#ebebeb"/><path d="M337.2,638.834h-3.169V503.466H337.2Zm-2.364-.789h1.56V504.255h-1.56Z" transform="translate(-334.035 -503.466)" fill="#ebebeb"/><g transform="translate(41.769)"><rect width="2.364" height="134.579" transform="translate(0.402 0.394)" fill="#ebebeb"/><path d="M398.569,638.834H395.4V503.466h3.169Zm-2.365-.789h1.56V504.255H396.2Z" transform="translate(-395.4 -503.466)" fill="#ebebeb"/></g></g></g><g transform="translate(7.911 30.259)"><rect width="4.623" height="21.381" transform="translate(0.402 0.394)" fill="#ebebeb"/><path d="M351.085,534.416h-5.428v-22.17h5.428Zm-4.623-.788h3.819V513.035h-3.819Z" transform="translate(-345.657 -512.246)" fill="#ebebeb"/><path d="M350.453,519.315a1.524,1.524,0,1,1-1.524-1.494A1.509,1.509,0,0,1,350.453,519.315Z" transform="translate(-346.216 -514.026)" fill="#ebebeb"/><g transform="translate(5.434)"><rect width="4.623" height="21.381" transform="translate(0.402 0.394)" fill="#ebebeb"/><path d="M359.069,534.416h-5.428v-22.17h5.428Zm-4.623-.788h3.819V513.035h-3.819Z" transform="translate(-353.641 -512.246)" fill="#ebebeb"/><path d="M358.437,519.315a1.524,1.524,0,1,1-1.524-1.494A1.509,1.509,0,0,1,358.437,519.315Z" transform="translate(-354.2 -514.026)" fill="#ebebeb"/></g><g transform="translate(10.869)"><rect width="4.623" height="21.381" transform="translate(0.402 0.394)" fill="#ebebeb"/><path d="M367.053,534.416h-5.428v-22.17h5.428Zm-4.623-.788h3.819V513.035H362.43Z" transform="translate(-361.625 -512.246)" fill="#ebebeb"/><path d="M366.421,519.315a1.524,1.524,0,1,1-1.524-1.494A1.509,1.509,0,0,1,366.421,519.315Z" transform="translate(-362.184 -514.026)" fill="#ebebeb"/></g><g transform="translate(16.303)"><rect width="4.623" height="21.381" transform="translate(0.402 0.394)" fill="#ebebeb"/><path d="M375.037,534.416h-5.428v-22.17h5.428Zm-4.623-.788h3.819V513.035h-3.819Z" transform="translate(-369.609 -512.246)" fill="#ebebeb"/><path d="M374.405,519.315a1.524,1.524,0,1,1-1.524-1.494A1.509,1.509,0,0,1,374.405,519.315Z" transform="translate(-370.167 -514.026)" fill="#ebebeb"/></g><g transform="translate(21.738)"><rect width="4.623" height="21.381" transform="translate(0.402 0.394)" fill="#ebebeb"/><path d="M383.021,534.416h-5.428v-22.17h5.428Zm-4.624-.788h3.819V513.035H378.4Z" transform="translate(-377.593 -512.246)" fill="#ebebeb"/><path d="M382.389,519.315a1.524,1.524,0,1,1-1.524-1.494A1.509,1.509,0,0,1,382.389,519.315Z" transform="translate(-378.152 -514.026)" fill="#ebebeb"/></g></g><path d="M349.594,605.557a10.139,10.139,0,0,1,.719-3.928h-5.541a10.139,10.139,0,0,1,.719,3.928c0,2.378-2.429,6.766-2.429,9.692s2.574,3.886,4.479,3.886,4.48-.961,4.48-3.886S349.594,607.935,349.594,605.557Z" transform="translate(-336.918 -510.53)" fill="#ebebeb"/><g transform="translate(23.522 60.825)"><g transform="translate(0.687)"><path d="M379.171,567.772c1.495-3.439-1.828-3.376-1.574-4.279.475-1.695,2.266.146,2.993-.706s-1.793-3.513-.474-4.435.857,2.2,2,1.975.461-3.515,1.806-3.147c1.011.276-.191,2.335-.079,3.3s2.2-.44,2.231.932-2.486.772-2.783,1.816,2.712,1.259,1.657,2.142-3.044-.174-3.567.744S378.537,569.233,379.171,567.772Z" transform="translate(-372.151 -557.152)" fill="#ebebeb"/><path d="M375.7,572.025c-1.4-3.475-3.72-1.139-4.188-1.956-.878-1.532,1.716-1.459,1.62-2.566s-3.793-1.26-3.517-2.826,2.184.97,2.836.026-2.194-2.817-.974-3.482c.917-.5,1.54,1.791,2.309,2.4s1.245-1.827,2.256-.877-1.214,2.263-.676,3.21,2.832-.975,2.714.38-2.288,1.975-2,2.99S376.3,573.5,375.7,572.025Z" transform="translate(-369.602 -558.429)" fill="#ebebeb"/></g><path d="M378.957,570.049h-7.671s-2.693,2.267-2.693,4.946,1.679,5.462,6.528,5.462,6.528-2.783,6.528-5.462S378.957,570.049,378.957,570.049Z" transform="translate(-368.593 -561.27)" fill="#ebebeb"/></g><g transform="translate(25.404 96.394)"><rect width="7.079" height="9.428" transform="translate(2.19 2.782)" fill="#ebebeb"/><ellipse cx="5.587" cy="2.782" rx="5.587" ry="2.782" fill="#ebebeb"/></g><g transform="translate(20.474 15.005)"><rect width="5.249" height="6.99" transform="translate(1.624 2.063)" fill="#ebebeb"/><path d="M372.4,491.9c0,1.139-1.855,2.062-4.143,2.062s-4.142-.923-4.142-2.062,1.855-2.063,4.142-2.063S372.4,490.76,372.4,491.9Z" transform="translate(-364.114 -489.836)" fill="#ebebeb"/></g><g transform="translate(2.924)"><path d="M351.8,485.62s-1.816-6.182,6.223-13.137c0,0-6.883,7.419-4.624,13.137Z" transform="translate(-342.576 -469.289)" fill="#ebebeb"/><path d="M350.929,485.525s-4.164-6.887,3.293-17.734c0,0-5.916,11.05-1.367,17.243Z" transform="translate(-341.984 -467.791)" fill="#ebebeb"/><path d="M346.5,485.62s1.816-6.182-6.223-13.137c0,0,6.883,7.419,4.624,13.137Z" transform="translate(-338.951 -469.289)" fill="#ebebeb"/><path d="M348.423,484.6s3.345-5.534-2.648-14.251c0,0,4.756,8.88,1.1,13.856Z" transform="translate(-340.708 -468.608)" fill="#ebebeb"/><path d="M351.393,489.76s-1.57-6.247,6.738-12.891c0,0-7.171,7.151-5.14,12.952Z" transform="translate(-342.464 -470.69)" fill="#ebebeb"/><path d="M345.07,488.646s1.57-6.247-6.739-12.89c0,0,7.171,7.151,5.14,12.952Z" transform="translate(-338.331 -470.335)" fill="#ebebeb"/><path d="M347.095,488.6H341.66l2.494,9.892h5.881l2.494-9.892Z" transform="translate(-339.394 -474.437)" fill="#ebebeb"/></g><g transform="translate(4.217 72.282)"><g transform="translate(0 0)"><g transform="translate(0.402 5.234)"><rect width="2.612" height="16.634" transform="translate(0 2.612) rotate(-90)" fill="#ebebeb"/></g><g transform="translate(0 2.218)"><rect width="2.612" height="16.634" transform="translate(0.402 3.006) rotate(-90)" fill="#ebebeb"/><path d="M357.67,580.643H340.231v-3.4H357.67Zm-16.634-.789h15.83v-1.823h-15.83Z" transform="translate(-340.231 -577.242)" fill="#ebebeb"/></g><g transform="translate(0.402)"><rect width="2.612" height="16.634" transform="translate(0 2.612) rotate(-90)" fill="#ebebeb"/></g></g><g transform="translate(10.199 0)"><rect width="0.12" height="2.612" fill="#ebebeb"/></g><g transform="translate(11.538 0)"><rect width="0.12" height="2.612" fill="#ebebeb"/></g><g transform="translate(12.878 0)"><rect width="0.12" height="2.612" fill="#ebebeb"/></g><g transform="translate(14.218 0)"><rect width="0.119" height="2.612" fill="#ebebeb"/></g><rect width="7.828" height="0.43" transform="translate(8.393 5.679)" fill="#ebebeb"/><rect width="7.828" height="0.43" transform="translate(8.393 6.324)" fill="#ebebeb"/><rect width="7.828" height="0.43" transform="translate(8.393 6.97)" fill="#ebebeb"/></g></g><g transform="translate(245.831 181.012)"><path d="M742.025,721.9H595.589a4.2,4.2,0,0,1-4.036-5.366h0a4.2,4.2,0,0,1,4.036-3.036H742.025a4.2,4.2,0,0,1,4.036,3.036h0A4.2,4.2,0,0,1,742.025,721.9Z" transform="translate(-588.379 -605.287)" fill="#ebebeb" opacity="0.32"/><g transform="translate(0 37.229)"><rect width="2.832" height="70.587" transform="translate(1.689 0.395)" fill="#ebebeb"/><rect width="2.832" height="70.587" transform="translate(155.538 0.395)" fill="#ebebeb"/><path d="M747.029,616.734H587.669l1.212-6.939H745.545Z" transform="translate(-587.192 -609.4)" fill="#ebebeb"/><path d="M747.3,616.943H586.968l1.35-7.728H745.648Zm-159.379-.789H746.31L744.995,610H589Z" transform="translate(-586.968 -609.215)" fill="#ebebeb"/><g transform="translate(0.075 6.939)"><path d="M746.757,619.99H587.668v72.448h2.63V624.745H744.4v67.693h2.63V619.99Z" transform="translate(-587.267 -619.595)" fill="#ebebeb"/><path d="M747.242,692.647h-3.435V624.954h-153.3v67.693h-3.434V619.41H747.242Zm-2.63-.789h1.826V620.2H587.883v71.659h1.825V624.165h154.9Z" transform="translate(-587.078 -619.41)" fill="#ebebeb"/></g></g><g transform="translate(40.859)"><path d="M699.378,557.438v25.947a3.054,3.054,0,0,1-3.158,2.919H650.154A3.055,3.055,0,0,1,647,583.385V557.438a3.058,3.058,0,0,1,3.158-2.918h46.067A3.058,3.058,0,0,1,699.378,557.438Z" transform="translate(-646.996 -554.52)" fill="#ebebeb"/><path d="M650.651,585.788a2.033,2.033,0,0,1-2.106-1.946V557.895a2.033,2.033,0,0,1,2.106-1.946h46.063a2.033,2.033,0,0,1,2.106,1.946v25.947a2.033,2.033,0,0,1-2.106,1.946Z" transform="translate(-647.491 -554.976)" fill="#ebebeb"/><g transform="translate(1.705 1.551)"><path d="M651.145,585.272a1.017,1.017,0,0,1-1.053-.973V558.352a1.016,1.016,0,0,1,1.053-.973h46.063a1.016,1.016,0,0,1,1.053.973V584.3a1.017,1.017,0,0,1-1.053.973Z" transform="translate(-649.69 -556.984)" fill="#ebebeb"/><path d="M697.019,585.481H650.956a1.415,1.415,0,0,1-1.455-1.367V558.166a1.415,1.415,0,0,1,1.455-1.367h46.063a1.415,1.415,0,0,1,1.455,1.367v25.947A1.415,1.415,0,0,1,697.019,585.481Zm-46.063-27.893a.618.618,0,0,0-.651.578v25.947a.619.619,0,0,0,.651.579h46.063a.619.619,0,0,0,.651-.579V558.166a.619.619,0,0,0-.651-.578Z" transform="translate(-649.501 -556.799)" fill="#ebebeb"/></g><path d="M688.754,594.632H676.4l1.394-14.032h9.565Z" transform="translate(-656.386 -562.848)" fill="#ebebeb"/><g transform="translate(19.966 16.612)"><path d="M688.55,602.311H676.969l1.819-22.806h7.945Z" transform="translate(-676.533 -579.111)" fill="#ebebeb"/><path d="M688.781,602.521H676.329l1.881-23.595H686.9l.029.363Zm-11.581-.789h10.711l-1.755-22.017h-7.2Z" transform="translate(-676.329 -578.926)" fill="#ebebeb"/></g><g transform="translate(12.102 38.445)"><path d="M692.742,615.067H665.367a3.638,3.638,0,0,1,3.773-3.486h19.829a3.638,3.638,0,0,1,3.773,3.486Z" transform="translate(-664.965 -611.187)" fill="#ebebeb"/><path d="M692.955,615.277H664.776v-.395a4.041,4.041,0,0,1,4.175-3.88H688.78a4.04,4.04,0,0,1,4.174,3.88Zm-27.347-.789h26.515a3.289,3.289,0,0,0-3.343-2.7H668.951A3.291,3.291,0,0,0,665.608,614.488Z" transform="translate(-664.776 -611.002)" fill="#ebebeb"/></g></g></g><g transform="translate(0.839 182.579)"><path d="M463.892,719.735H321.364a4.089,4.089,0,0,1-3.929-5.223h0a4.089,4.089,0,0,1,3.929-2.955H463.892a4.089,4.089,0,0,1,3.929,2.955h0A4.089,4.089,0,0,1,463.892,719.735Z" transform="translate(-314.347 -606.234)" fill="#ebebeb" opacity="0.32"/><g transform="translate(0 36.236)"><rect width="2.757" height="68.703" transform="translate(1.644 0.384)" fill="#ebebeb"/><rect width="2.757" height="68.703" transform="translate(151.386 0.384)" fill="#ebebeb"/><path d="M468.762,617.375H313.656l1.18-6.754H467.318Z" transform="translate(-313.192 -610.237)" fill="#ebebeb"/><path d="M469.026,617.579H312.974l1.314-7.522H467.419ZM313.9,616.811H468.063l-1.28-5.986H314.948Z" transform="translate(-312.974 -610.057)" fill="#ebebeb"/><g transform="translate(0.072 6.754)"><path d="M468.5,620.544H313.656v70.514h2.56V625.172H466.2v65.886h2.56V620.544Z" transform="translate(-313.264 -620.16)" fill="#ebebeb"/><path d="M468.97,691.262h-3.343V625.376h-149.2v65.886H313.08V619.98H468.97Zm-2.56-.768h1.777V620.748H313.863v69.746h1.778V624.608H466.41Z" transform="translate(-313.08 -619.98)" fill="#ebebeb"/></g></g><g transform="translate(106.309)"><path d="M520.143,559.662v25.254a2.974,2.974,0,0,1-3.074,2.841H472.232a2.974,2.974,0,0,1-3.074-2.841V559.662a2.977,2.977,0,0,1,3.074-2.841h44.837A2.977,2.977,0,0,1,520.143,559.662Z" transform="translate(-469.158 -556.821)" fill="#ebebeb"/><path d="M472.716,587.256a1.979,1.979,0,0,1-2.049-1.894V560.107a1.979,1.979,0,0,1,2.049-1.894H517.55a1.979,1.979,0,0,1,2.049,1.894v25.254a1.979,1.979,0,0,1-2.049,1.894Z" transform="translate(-469.64 -557.266)" fill="#ebebeb"/><g transform="translate(1.66 1.51)"><path d="M473.2,586.753a.99.99,0,0,1-1.025-.947V560.552a.989.989,0,0,1,1.025-.948h44.834a.989.989,0,0,1,1.024.948v25.254a.99.99,0,0,1-1.024.947Z" transform="translate(-471.781 -559.22)" fill="#ebebeb"/><path d="M517.847,586.956H473.013a1.377,1.377,0,0,1-1.416-1.331V560.371a1.377,1.377,0,0,1,1.416-1.331h44.834a1.377,1.377,0,0,1,1.416,1.331v25.254A1.377,1.377,0,0,1,517.847,586.956Zm-44.834-27.148a.6.6,0,0,0-.634.564v25.254a.6.6,0,0,0,.634.564h44.834a.6.6,0,0,0,.633-.564V560.371a.6.6,0,0,0-.633-.564Z" transform="translate(-471.597 -559.04)" fill="#ebebeb"/></g><path d="M509.8,595.863H497.778l1.357-13.658h9.31Z" transform="translate(-478.297 -564.927)" fill="#ebebeb"/><g transform="translate(19.434 16.169)"><path d="M509.6,603.337H498.331l1.77-22.2h7.733Z" transform="translate(-497.908 -580.756)" fill="#ebebeb"/><path d="M509.828,603.541H497.71l1.831-22.965H508Zm-11.272-.768h10.426l-1.709-21.429h-7.009Z" transform="translate(-497.71 -580.576)" fill="#ebebeb"/></g><g transform="translate(11.78 37.419)"><path d="M513.684,615.753H487.04a3.541,3.541,0,0,1,3.672-3.393h19.3a3.541,3.541,0,0,1,3.672,3.393Z" transform="translate(-486.649 -611.976)" fill="#ebebeb"/><path d="M513.892,615.957H486.465v-.384a3.933,3.933,0,0,1,4.063-3.777h19.3a3.933,3.933,0,0,1,4.064,3.777Zm-26.617-.768h25.808a3.2,3.2,0,0,0-3.254-2.625h-19.3A3.2,3.2,0,0,0,487.274,615.189Z" transform="translate(-486.465 -611.796)" fill="#ebebeb"/></g></g></g><g transform="translate(465.432 117.196)"><g transform="translate(48.409)"><g transform="translate(0 0.027)"><rect width="8.598" height="2.09" transform="translate(0.335 0.329)" fill="#ebebeb"/><path d="M943.345,463.55h-9.267V460.8h9.267Zm-8.6-.656h7.928V461.46h-7.928Z" transform="translate(-934.078 -460.803)" fill="#ebebeb"/></g><g transform="translate(0 54.391)"><rect width="8.598" height="2.091" transform="translate(0.335 0.328)" fill="#ebebeb"/><path d="M943.345,543.419h-9.267v-2.746h9.267Zm-8.6-.656h7.928v-1.434h-7.928Z" transform="translate(-934.078 -540.673)" fill="#ebebeb"/></g><g transform="translate(0 26.877)"><rect width="8.598" height="2.091" transform="translate(0.335 0.328)" fill="#ebebeb"/><path d="M943.345,503h-9.267v-2.747h9.267Zm-8.6-.657h7.928v-1.434h-7.928Z" transform="translate(-934.078 -500.251)" fill="#ebebeb"/></g><g transform="translate(0 85.922)"><rect width="8.598" height="2.09" transform="translate(0.335 0.328)" fill="#ebebeb"/><path d="M943.345,589.744h-9.267V587h9.267Zm-8.6-.656h7.928v-1.434h-7.928Z" transform="translate(-934.078 -586.997)" fill="#ebebeb"/></g><g transform="translate(0 117.454)"><rect width="8.598" height="2.09" transform="translate(0.335 0.328)" fill="#ebebeb"/><path d="M943.345,636.069h-9.267v-2.747h9.267Zm-8.6-.656h7.928v-1.434h-7.928Z" transform="translate(-934.078 -633.322)" fill="#ebebeb"/></g><g transform="translate(0 149.683)"><rect width="8.598" height="2.091" transform="translate(0.335 0.328)" fill="#ebebeb"/><path d="M943.345,683.417h-9.267v-2.746h9.267Zm-8.6-.657h7.928v-1.433h-7.928Z" transform="translate(-934.078 -680.671)" fill="#ebebeb"/></g><g transform="translate(0 179.861)"><rect width="8.598" height="2.09" transform="translate(0.335 0.328)" fill="#ebebeb"/><path d="M943.345,727.755h-9.267v-2.747h9.267Zm-8.6-.657h7.928v-1.433h-7.928Z" transform="translate(-934.078 -725.008)" fill="#ebebeb"/></g><g transform="translate(0)"><rect width="0.461" height="206.772" transform="translate(0.335 0.328)" fill="#ebebeb"/><rect width="1.13" height="207.429" fill="#ebebeb"/></g><g transform="translate(8.137)"><rect width="0.461" height="206.772" transform="translate(0.335 0.328)" fill="#ebebeb"/><rect width="1.13" height="207.429" fill="#ebebeb"/></g></g><g transform="translate(0 0)"><g transform="translate(0 0.027)"><rect width="49.742" height="2.09" transform="translate(0.335 0.329)" fill="#ebebeb"/><path d="M913.368,463.55H862.957V460.8h50.411Zm-49.742-.656H912.7V461.46H863.626Z" transform="translate(-862.957 -460.803)" fill="#ebebeb"/></g><g transform="translate(0 54.391)"><rect width="49.742" height="2.091" transform="translate(0.335 0.328)" fill="#ebebeb"/><path d="M913.368,543.419H862.957v-2.746h50.411Zm-49.742-.656H912.7v-1.434H863.626Z" transform="translate(-862.957 -540.673)" fill="#ebebeb"/></g><g transform="translate(0 26.877)"><rect width="49.742" height="2.091" transform="translate(0.335 0.328)" fill="#ebebeb"/><path d="M913.368,503H862.957v-2.747h50.411Zm-49.742-.657H912.7v-1.434H863.626Z" transform="translate(-862.957 -500.251)" fill="#ebebeb"/></g><g transform="translate(0 85.922)"><rect width="49.742" height="2.09" transform="translate(0.335 0.328)" fill="#ebebeb"/><path d="M913.368,589.744H862.957V587h50.411Zm-49.742-.656H912.7v-1.434H863.626Z" transform="translate(-862.957 -586.997)" fill="#ebebeb"/></g><g transform="translate(0 117.454)"><rect width="49.742" height="2.09" transform="translate(0.335 0.328)" fill="#ebebeb"/><path d="M913.368,636.069H862.957v-2.747h50.411Zm-49.742-.656H912.7v-1.434H863.626Z" transform="translate(-862.957 -633.322)" fill="#ebebeb"/></g><g transform="translate(0 149.683)"><rect width="49.742" height="2.091" transform="translate(0.335 0.328)" fill="#ebebeb"/><path d="M913.368,683.417H862.957v-2.746h50.411Zm-49.742-.657H912.7v-1.433H863.626Z" transform="translate(-862.957 -680.671)" fill="#ebebeb"/></g><g transform="translate(0 179.861)"><rect width="49.742" height="2.09" transform="translate(0.335 0.328)" fill="#ebebeb"/><path d="M913.368,727.755H862.957v-2.747h50.411Zm-49.742-.657H912.7v-1.433H863.626Z" transform="translate(-862.957 -725.008)" fill="#ebebeb"/></g><rect width="2.665" height="206.772" transform="translate(0.335 0.328)" fill="#ebebeb"/><path d="M866.291,668.193h-3.334V460.764h3.334Zm-2.665-.656h2V461.42h-2Z" transform="translate(-862.957 -460.764)" fill="#ebebeb"/><g transform="translate(47.077)"><rect width="2.665" height="206.772" transform="translate(0.335 0.328)" fill="#ebebeb"/><path d="M935.455,668.193H932.12V460.764h3.335Zm-2.665-.656h2V461.42h-2Z" transform="translate(-932.12 -460.764)" fill="#ebebeb"/></g></g><g transform="translate(8.916 61.824)"><rect width="5.211" height="24.099" transform="translate(0.335 0.328)" fill="#ebebeb"/><path d="M881.936,576.348h-5.88V551.593h5.88Zm-5.211-.657h4.541V552.249h-4.541Z" transform="translate(-876.056 -551.593)" fill="#ebebeb"/><path d="M881.287,559.39a1.717,1.717,0,1,1-1.717-1.685A1.7,1.7,0,0,1,881.287,559.39Z" transform="translate(-876.63 -553.545)" fill="#ebebeb"/><g transform="translate(6.125)"><rect width="5.211" height="24.099" transform="translate(0.335 0.328)" fill="#ebebeb"/><path d="M890.934,576.348h-5.88V551.593h5.88Zm-5.211-.657h4.541V552.249h-4.541Z" transform="translate(-885.054 -551.593)" fill="#ebebeb"/><ellipse cx="1.717" cy="1.684" rx="1.717" ry="1.684" transform="translate(1.223 4.161)" fill="#ebebeb"/></g><g transform="translate(12.251)"><rect width="5.211" height="24.099" transform="translate(0.334 0.328)" fill="#ebebeb"/><path d="M899.934,576.348h-5.88V551.593h5.88Zm-5.211-.657h4.541V552.249h-4.541Z" transform="translate(-894.054 -551.593)" fill="#ebebeb"/><ellipse cx="1.717" cy="1.684" rx="1.717" ry="1.684" transform="translate(1.222 4.161)" fill="#ebebeb"/></g><g transform="translate(18.375)"><rect width="5.211" height="24.099" transform="translate(0.335 0.328)" fill="#ebebeb"/><path d="M908.932,576.348h-5.88V551.593h5.88Zm-5.21-.657h4.541V552.249h-4.541Z" transform="translate(-903.052 -551.593)" fill="#ebebeb"/><ellipse cx="1.717" cy="1.684" rx="1.717" ry="1.684" transform="translate(1.223 4.161)" fill="#ebebeb"/></g><g transform="translate(24.5)"><rect width="5.211" height="24.099" transform="translate(0.335 0.328)" fill="#ebebeb"/><path d="M917.931,576.348h-5.88V551.593h5.88Zm-5.211-.657h4.541V552.249H912.72Z" transform="translate(-912.051 -551.593)" fill="#ebebeb"/><rect width="6.686" height="24.099" transform="translate(6.36 0.328)" fill="#ebebeb"/><ellipse cx="1.717" cy="1.684" rx="1.717" ry="1.684" transform="translate(1.223 4.161)" fill="#ebebeb"/></g></g><g transform="translate(8.916 2.62)"><rect width="5.211" height="24.099" transform="translate(0.335 0.328)" fill="#ebebeb"/><path d="M881.936,489.369h-5.88V464.613h5.88Zm-5.211-.657h4.541V465.27h-4.541Z" transform="translate(-876.056 -464.613)" fill="#ebebeb"/><path d="M881.287,472.41a1.717,1.717,0,1,1-1.717-1.684A1.7,1.7,0,0,1,881.287,472.41Z" transform="translate(-876.63 -466.565)" fill="#ebebeb"/><g transform="translate(6.125)"><rect width="5.211" height="24.099" transform="translate(0.335 0.328)" fill="#ebebeb"/><path d="M890.934,489.369h-5.88V464.613h5.88Zm-5.211-.657h4.541V465.27h-4.541Z" transform="translate(-885.054 -464.613)" fill="#ebebeb"/><path d="M890.286,472.41a1.718,1.718,0,1,1-1.717-1.684A1.7,1.7,0,0,1,890.286,472.41Z" transform="translate(-885.628 -466.565)" fill="#ebebeb"/></g><g transform="translate(12.251)"><rect width="5.211" height="24.099" transform="translate(0.334 0.328)" fill="#ebebeb"/><path d="M899.934,489.369h-5.88V464.613h5.88Zm-5.211-.657h4.541V465.27h-4.541Z" transform="translate(-894.054 -464.613)" fill="#ebebeb"/><path d="M899.285,472.41a1.718,1.718,0,1,1-1.717-1.684A1.7,1.7,0,0,1,899.285,472.41Z" transform="translate(-894.628 -466.565)" fill="#ebebeb"/></g><g transform="translate(18.375)"><rect width="5.211" height="24.099" transform="translate(0.335 0.328)" fill="#ebebeb"/><path d="M908.932,489.369h-5.88V464.613h5.88Zm-5.21-.657h4.541V465.27h-4.541Z" transform="translate(-903.052 -464.613)" fill="#ebebeb"/><path d="M908.284,472.41a1.718,1.718,0,1,1-1.717-1.684A1.7,1.7,0,0,1,908.284,472.41Z" transform="translate(-903.626 -466.565)" fill="#ebebeb"/></g><g transform="translate(24.5)"><rect width="5.211" height="24.099" transform="translate(0.335 0.328)" fill="#ebebeb"/><path d="M917.931,489.369h-5.88V464.613h5.88Zm-5.211-.657h4.541V465.27H912.72Z" transform="translate(-912.051 -464.613)" fill="#ebebeb"/><rect width="6.686" height="24.099" transform="translate(6.36 0.328)" fill="#ebebeb"/><path d="M917.282,472.41a1.718,1.718,0,1,1-1.717-1.684A1.7,1.7,0,0,1,917.282,472.41Z" transform="translate(-912.625 -466.565)" fill="#ebebeb"/></g></g><path d="M880.319,656.593a11.423,11.423,0,0,1,.811-4.428h-6.246a11.424,11.424,0,0,1,.811,4.428c0,2.679-2.737,7.626-2.737,10.923s2.9,4.38,5.049,4.38,5.048-1.082,5.048-4.38S880.319,659.272,880.319,656.593Z" transform="translate(-866.151 -521.885)" fill="#ebebeb"/><g transform="translate(26.393 96.158)"><g transform="translate(0.774)"><path d="M913.655,614.005c1.685-3.876-2.06-3.8-1.775-4.822.536-1.91,2.555.166,3.373-.8s-2.021-3.959-.534-5,.967,2.475,2.251,2.226.52-3.962,2.036-3.548c1.139.312-.214,2.633-.089,3.716s2.475-.5,2.515,1.052-2.8.869-3.136,2.046,3.057,1.42,1.867,2.415-3.431-.2-4.021.839S912.94,615.652,913.655,614.005Z" transform="translate(-905.742 -602.035)" fill="#ebebeb"/><path d="M909.745,618.8c-1.583-3.917-4.194-1.283-4.721-2.2-.989-1.727,1.935-1.644,1.827-2.892s-4.277-1.42-3.965-3.185,2.463,1.093,3.2.029-2.472-3.174-1.1-3.925c1.034-.564,1.736,2.019,2.6,2.7s1.4-2.059,2.542-.988-1.367,2.55-.761,3.618,3.191-1.1,3.059.428-2.58,2.226-2.256,3.37S910.418,620.462,909.745,618.8Z" transform="translate(-902.87 -603.474)" fill="#ebebeb"/></g><path d="M913.413,616.571h-8.645s-3.035,2.555-3.035,5.575,1.892,6.155,7.357,6.155,7.358-3.135,7.358-6.155S913.413,616.571,913.413,616.571Z" transform="translate(-901.733 -606.677)" fill="#ebebeb"/></g><g transform="translate(28.514 136.248)"><rect width="7.979" height="10.627" transform="translate(2.468 3.136)" fill="#ebebeb"/><path d="M917.443,664.07c0,1.732-2.819,3.136-6.3,3.136s-6.3-1.4-6.3-3.136,2.819-3.136,6.3-3.136S917.443,662.338,917.443,664.07Z" transform="translate(-904.849 -660.934)" fill="#ebebeb"/></g><g transform="translate(4.753 109.071)"><g transform="translate(0 0)"><g transform="translate(0.335 5.899)"><rect width="2.944" height="18.748" transform="translate(0 2.944) rotate(-90)" fill="#ebebeb"/></g><g transform="translate(0 2.615)"><rect width="2.944" height="18.748" transform="translate(0.335 3.272) rotate(-90)" fill="#ebebeb"/><path d="M889.357,628.449H869.94v-3.6h19.417Zm-18.748-.656h18.079v-2.287H870.609Z" transform="translate(-869.94 -624.849)" fill="#ebebeb"/></g><g transform="translate(0.335)"><rect width="2.944" height="18.748" transform="translate(0 2.944) rotate(-90)" fill="#ebebeb"/></g></g><g transform="translate(11.376)"><rect width="0.135" height="2.944" fill="#ebebeb"/></g><g transform="translate(12.886)"><rect width="0.135" height="2.944" fill="#ebebeb"/></g><g transform="translate(14.396)"><rect width="0.135" height="2.944" fill="#ebebeb"/></g><g transform="translate(15.906)"><rect width="0.135" height="2.944" fill="#ebebeb"/></g><rect width="8.823" height="0.485" transform="translate(9.341 6.4)" fill="#ebebeb"/><rect width="8.823" height="0.485" transform="translate(9.341 7.128)" fill="#ebebeb"/><rect width="8.823" height="0.485" transform="translate(9.341 7.856)" fill="#ebebeb"/></g></g></g><g transform="translate(758.012 375.246)"><g transform="translate(1.397 107.635)"><path d="M862.854,576.616l-15.36,1.466c-11.654,40.455,10.907,96.146-1.809,172.232,0,0,2.676,1.1,2.846,0C861.322,667.464,851.13,632.806,862.854,576.616Z" transform="translate(-839.149 -574.859)" fill="#f7c371"/><path d="M864.242,574.035c16.457,29.449,4.863,27.2,3.78,42.4-4.046,56.865,10.017,66.258,19.334,133.44,0,0-3.557-.176-3.662-1.145-5.848-53.6-37.449-104.877-39.718-154.636C843.607,585.979,864.242,574.035,864.242,574.035Z" transform="translate(-839.131 -574.035)" fill="#ffd8a3"/><path d="M891.893,831.284h10.658s.515-2.939-1.862-3.411C899.192,827.576,896.543,828.262,891.893,831.284Z" transform="translate(-854.433 -655.075)" fill="#7b87ab"/><path d="M836.859,831.66h9.369s.452-2.941-1.637-3.411C843.275,827.952,840.947,828.636,836.859,831.66Z" transform="translate(-836.859 -655.195)" fill="#7b87ab"/><path d="M871.958,660.271c-11.206,2.359-17.988,3.1-26.614,2.654,0,0-7.74-59.715,2.875-82.052,3.816-8.03,13.634-8.426,18.136-1.7C881.394,601.662,864.807,621.124,871.958,660.271Z" transform="translate(-838.699 -574.171)" fill="#c3e8e6"/></g><g transform="translate(8.995 2.716)"><path d="M849.992,481.1c-6.06-6.2,3.823-7.265,3.528-12.541s-1.493-3.646-2.139-10.462,1.236-9.292,1.475-13.244-2.23-10.51.169-15.453,3.729-3.211,5.814-7.14,3.846.467,7.093,2.322,7.269-7.566,12.951-3.781,4.943,11.123,6.568,15.291,7.323,5.985,8.024,13.384-3.357,5.624-1.642,10.765,6.807,4.856,7.508,12.256c0,0,.5,7.417-7.748,6.823s-5.775,3.887-14.666.8-6.089,4.9-12.323,1.756S855.4,486.638,849.992,481.1Z" transform="translate(-848.022 -419.894)" fill="#2d356b"/></g><g transform="translate(0 21.779)"><path d="M875.316,447.9l-8.625,5.419-1.548,18.652,6.93-2.507Z" transform="translate(-844.494 -447.899)" fill="#f7c371"/><path d="M839.074,567.065c5.543-3.631,18.411-11.658,32.681-1.72-4.268-12.534-8.144-24.857-8.282-35.166-.256-19.112,15.987-41.56,2.548-50.2-14.27-9.174-31.216,33.191-31.216,33.191C849.076,521.2,845.128,544.209,839.074,567.065Z" transform="translate(-834.806 -457.728)" fill="#ffb2b0"/><path d="M872.789,477.925l-2.506-.295-11.206,10.542,3.318,2.8S869.914,483.306,872.789,477.925Z" transform="translate(-842.557 -457.393)" fill="#fff"/><path d="M852.182,491.459c-.054-.037-.1-.076-.157-.114,2.957-5.9,9.42-14.936,15.661-14.355C862.006,482.059,852.182,491.459,852.182,491.459Z" transform="translate(-840.305 -457.181)" fill="#f7c371"/></g><g transform="translate(16.011 48.634)"><g transform="translate(0 59.452)"><path d="M861.932,589.058c-.382-.5.455-1.282,1.521-2.016s1.956-1.147,2.342-.643-.17,1.506-1.238,2.239S862.315,589.562,861.932,589.058Z" transform="translate(-859.449 -578.364)" fill="#f7c371"/><path d="M864.16,590.494c-.383-.5.453-1.282,1.521-2.015s1.956-1.148,2.341-.644-.171,1.506-1.238,2.241S864.543,591,864.16,590.494Z" transform="translate(-860.16 -578.822)" fill="#f7c371"/><path d="M858.455,585.51c.453-.464,1.816.5,3.233,1.729s2.351,2.264,1.9,2.729-1.964-.159-3.382-1.392S858,585.973,858.455,585.51Z" transform="translate(-858.328 -578.113)" fill="#ffd8a3"/><path d="M866.888,574.7c-2.216,1.672-9.586,6.394-7.993,8.913,1.427,2.254,6.353,2.932,10.086-7.32Z" transform="translate(-858.438 -574.698)" fill="#ffd8a3"/></g><path d="M872.208,564.115c5.352,3.681,22-19.771,22.073-21.154,0,0-2.917-3.982-4.157-2.93C886.917,542.752,869.817,562.47,872.208,564.115Z" transform="translate(-862.688 -504.119)" fill="#fc8c99"/><path d="M882.643,487.845c6.149-5.527,16.538,37.325,14.747,38.988,0,0-3.937,2.19-5.381.7C887.642,523.033,879.9,490.313,882.643,487.845Z" transform="translate(-865.909 -487.354)" fill="#fc8c99"/><path d="M870.013,574.242l-1.112-1.523,2.474-6.971s2.525,2.218,2.721,3.019S870.013,574.242,870.013,574.242Z" transform="translate(-861.705 -512.388)" fill="#eaeaea"/><path d="M870.359,576.032l1.7.93,7.03-3.037s-2.559-2.231-3.413-2.345S870.359,576.032,870.359,576.032Z" transform="translate(-862.17 -514.249)" fill="#eaeaea"/></g><g transform="translate(9.365)"><path d="M865.275,448.45c4.062-1.054,12.238-2.284,16.178-8.086,5.122-7.542,3.821-12.208,2.113-17.884-3.254-10.821-22.762-5.754-21.543-2.566C863.642,424.147,850.557,452.272,865.275,448.45Z" transform="translate(-851.642 -415.903)" fill="#2d356b"/><path d="M855.795,456.359c-1.481,0-4.13-7.651-4.919-13.519-.261-1.934,1.822-2.162,1.692-8.763-.077-3.875,1.713-9.239,8.2-13.086,6.126-3.633,6.581,8.391,7.105,11.17,1.495,7.913,3.516,12.883,1.487,16.712C865.4,456.348,857.394,455.977,855.795,456.359Z" transform="translate(-849.295 -417.311)" fill="#ffd8a3"/><path d="M858.236,458a.341.341,0,0,0-.308-.371.359.359,0,0,0-.3.393.342.342,0,0,0,.31.37A.358.358,0,0,0,858.236,458Z" transform="translate(-851.46 -429.227)" fill="#ffab00"/><path d="M858.556,443.006c-.035-1.041-.645-1.855-1.359-1.819s-1.268.909-1.233,1.949.645,1.855,1.359,1.819S858.591,444.047,858.556,443.006Z" transform="translate(-850.927 -423.977)" fill="#2d356b"/><path d="M859.481,443.164c-1-1.44-2.431-2.876-5.155-1.924A9.96,9.96,0,0,1,859.481,443.164Z" transform="translate(-850.404 -423.896)" fill="#2d356b"/><path d="M854.828,464.285c-.044-.241-.788.614-1.139.645-1,.085-.713,1.356.282,1.169C854.359,466.026,854.874,464.541,854.828,464.285Z" transform="translate(-850.002 -431.34)" fill="#f36973"/><path d="M855.393,458.228c.675-.268-3.883-1.581-3.057-.035C852.638,458.495,855.047,458.366,855.393,458.228Z" transform="translate(-849.737 -429.171)" fill="#f36973"/><path d="M854.248,433.911a6.07,6.07,0,0,1,7.314,3.817C859.592,435.028,858.063,434.019,854.248,433.911Z" transform="translate(-850.379 -421.598)" fill="#2d356b"/><path d="M849.605,450.985l2.291.7.083-5.852L848.564,450Z" transform="translate(-848.564 -425.461)" fill="#ffd8a3"/><path d="M851.385,456.668l-1.781-3.624,1.72-.061Z" transform="translate(-848.896 -427.744)" fill="#ffd8a3"/><path d="M853.138,463.307a43.284,43.284,0,0,1-1.131-5.081h4.138S855.324,462.609,853.138,463.307Z" transform="translate(-849.664 -429.419)" fill="#ffab00"/><path d="M855.056,460.633H852.7c-.137-.638-.263-1.306-.378-2H855.7Z" transform="translate(-849.763 -429.549)" fill="#fff"/><path d="M880.74,448.168c-.094-1.805-.7-3.136.664-3.2s2.56,1.341,2.653,3.148-.945,3.325-2.317,3.394S880.832,449.976,880.74,448.168Z" transform="translate(-858.77 -425.183)" fill="#f7c371"/><path d="M861.236,421.7c4.346,6.568,11.962,16.171,10.13,25.528,3.853-9.964,2.134-23.254-4.476-28.726C866.193,419.5,860.275,419.2,861.236,421.7Z" transform="translate(-852.577 -416.732)" fill="#2d356b"/></g></g><g transform="translate(658.341 451.557)"><g transform="translate(11.88)"><path d="M757.98,553.367s.864-5.818,1.256-7.1c.506-1.653.754-4.117-.638-5.566s-1.6-4.86-1.6-5.381-.521-8.348-6.261-7.189c0,0-2.377.58-1.218,4.754,0,0,1.218,2.493-.318,4.058a6.356,6.356,0,0,0,0,8.638c2.87,3.478,2.052,4.752,1.594,6.087-2.09,6.088,2.358,11.679,2.84,13.171s1.063,3.94.579,5.349l1.687.031Z" transform="translate(-747.511 -528.016)" fill="#cfd0d8"/></g><g transform="translate(17.33 5.891)"><path d="M757.56,573.209a.271.271,0,0,1-.052-.005.254.254,0,0,1-.2-.3c.645-3.141-.487-8.738-.5-8.794-.624-2.383-.805-5.426.229-13.187a29.8,29.8,0,0,0-.314-10.181,17.083,17.083,0,0,0-1.18-3.7.255.255,0,1,1,.455-.231,17.13,17.13,0,0,1,1.218,3.8,30.291,30.291,0,0,1,.327,10.38c-1.02,7.652-.833,10.733-.238,13,.051.247,1.168,5.769.5,9.013A.254.254,0,0,1,757.56,573.209Z" transform="translate(-755.518 -536.671)" fill="#cfd0d8"/></g><g transform="translate(0 22.359)"><path d="M746.508,580.833s0-1.372-2.816-2.672a4.7,4.7,0,0,1-2.816-3.393c-.722-2.744-2.744-2.022-4.043-1.227s-4.252,0-4.256-4.115a2.732,2.732,0,0,0-1.007-3.322c-1.885-1.155-2.607-5.281,1.436-5.24s7.852,2.039,11.769,7.839c5.443,8.062,3.324,12.129,3.324,12.129Z" transform="translate(-730.057 -560.865)" fill="#cfd0d8"/></g><g transform="translate(4.085 25.25)"><path d="M749.5,582.445a.242.242,0,0,1-.078-.013.26.26,0,0,1-.165-.321,6.175,6.175,0,0,0,.016-2.693.285.285,0,0,1-.02-.052c-2.183-8.241-12.95-13.717-13.058-13.772a.255.255,0,0,1,.228-.456c.111.055,11.06,5.627,13.317,14.073a6.038,6.038,0,0,1,0,3.056A.249.249,0,0,1,749.5,582.445Z" transform="translate(-736.058 -565.112)" fill="#cfd0d8"/></g><g transform="translate(20.269 10.138)"><path d="M761.947,574.977a5.024,5.024,0,0,0,2.377-5.044,3.53,3.53,0,0,1,3.13-4.232c.7-.116,5.217-1.971,4.522-8.754,0,0-.232-4.348.58-5.913s2.84-6.261,0-7.711-4.812,1.159-5.855,3.826c0,0-.812,3.073-1.508,3.827s-5.739,5.159-5.334,14.319l.988,9.681Z" transform="translate(-759.836 -542.91)" fill="#cfd0d8"/></g><g transform="translate(21.643 15.471)"><path d="M762.127,577.735a.254.254,0,0,1-.255-.246c-.293-7.8,3.088-17.966,5.027-20.9a52.433,52.433,0,0,0,3.229-5.694.255.255,0,1,1,.461.217,52.621,52.621,0,0,1-3.264,5.758c-1.907,2.889-5.233,12.907-4.944,20.6a.256.256,0,0,1-.246.265Z" transform="translate(-761.855 -550.745)" fill="#cfd0d8"/></g><path d="M749.923,604.717h10.932l2.646-14.98H747.277Z" transform="translate(-735.556 -547.726)" fill="#ebebeb"/></g><g transform="translate(542.526 451.557)"><g transform="translate(10.446)"><path d="M607.281,553.367s-.864-5.818-1.256-7.1c-.506-1.653-.754-4.117.638-5.566s1.6-4.86,1.6-5.381.521-8.348,6.261-7.189c0,0,2.377.58,1.218,4.754,0,0-1.218,2.493.318,4.058a6.357,6.357,0,0,1,0,8.638c-2.87,3.478-2.053,4.752-1.594,6.087,2.09,6.088-2.358,11.679-2.841,13.171s-1.062,3.94-.578,5.349l-1.688.031Z" transform="translate(-605.624 -528.016)" fill="#cfd0d8"/></g><g transform="translate(14.618 5.891)"><path d="M612.216,573.209a.277.277,0,0,0,.052-.005.255.255,0,0,0,.2-.3c-.645-3.141.487-8.738.5-8.794.624-2.383.805-5.426-.229-13.187a29.777,29.777,0,0,1,.315-10.181,17.038,17.038,0,0,1,1.18-3.7.255.255,0,1,0-.455-.231,17.081,17.081,0,0,0-1.218,3.8,30.292,30.292,0,0,0-.327,10.38c1.02,7.652.832,10.733.238,13-.052.247-1.168,5.769-.5,9.013A.256.256,0,0,0,612.216,573.209Z" transform="translate(-611.755 -536.671)" fill="#cfd0d8"/></g><g transform="translate(16.004 22.359)"><path d="M615.787,580.833s0-1.372,2.816-2.672a4.7,4.7,0,0,0,2.816-3.393c.722-2.744,2.744-2.022,4.043-1.227s4.252,0,4.256-4.115a2.732,2.732,0,0,1,1.007-3.322c1.885-1.155,2.607-5.281-1.436-5.24s-7.853,2.039-11.769,7.839c-5.443,8.062-3.324,12.129-3.324,12.129Z" transform="translate(-613.79 -560.865)" fill="#cfd0d8"/></g><g transform="translate(16.484 25.25)"><path d="M614.933,582.445a.242.242,0,0,0,.078-.013.26.26,0,0,0,.165-.321,6.166,6.166,0,0,1-.016-2.693.235.235,0,0,0,.02-.052c2.184-8.241,12.95-13.717,13.058-13.772a.255.255,0,0,0-.229-.456c-.11.055-11.06,5.627-13.316,14.073a6.029,6.029,0,0,0,0,3.056A.25.25,0,0,0,614.933,582.445Z" transform="translate(-614.496 -565.112)" fill="#cfd0d8"/></g><g transform="translate(0 10.138)"><path d="M602.35,574.977a5.022,5.022,0,0,1-2.377-5.044,3.53,3.53,0,0,0-3.13-4.232c-.7-.116-5.217-1.971-4.522-8.754,0,0,.231-4.348-.58-5.913s-2.84-6.261,0-7.711,4.812,1.159,5.855,3.826c0,0,.812,3.073,1.508,3.827s5.739,5.159,5.333,14.319l-.987,9.681Z" transform="translate(-590.278 -542.91)" fill="#cfd0d8"/></g><g transform="translate(4.048 15.471)"><path d="M604.713,577.735a.255.255,0,0,0,.255-.246c.293-7.8-3.088-17.966-5.027-20.9a52.263,52.263,0,0,1-3.229-5.694.255.255,0,0,0-.461.217,52.821,52.821,0,0,0,3.264,5.758c1.907,2.889,5.233,12.907,4.944,20.6a.255.255,0,0,0,.245.265Z" transform="translate(-596.225 -550.745)" fill="#cfd0d8"/></g><path d="M613.415,604.717H602.482l-2.646-14.98h16.225Z" transform="translate(-593.33 -547.726)" fill="#ebebeb"/></g><g transform="translate(408.817 296.318)"><rect width="283.976" height="62.666" rx="11.604" fill="#fff" stroke="#231f20" stroke-miterlimit="10" stroke-width="0.25"/><path d="M459.611,392.012l-12.366,24.76,31.616-24.76Z" transform="translate(-438.603 -329.346)" fill="#fff" stroke="#231f20" stroke-miterlimit="10" stroke-width="0.25"/></g><g transform="translate(479.755 375.246)"><rect width="246.851" height="69.666" rx="11.604" transform="translate(238.5 69.666) rotate(-180)" fill="#fff" stroke="#231f20" stroke-miterlimit="10" stroke-width="0.25"/><path d="M797.759,483.236l24.253-2.348-24.253,12.666V483.236Z" transform="translate(-559.258 -441.539)" fill="#fff" stroke="#231f20" stroke-miterlimit="10" stroke-width="0.25"/></g><g transform="translate(312.522 290.118)"><rect width="50.479" height="29.78" transform="translate(50.479 28.78) rotate(-180)" fill="#ebebeb"/></g><text transform="translate(321.761 312.508)" fill="#2d356b" font-size="25" font-family="TrebuchetMS-Bold, Trebuchet MS" font-weight="700"><tspan x="0" y="0">A</tspan></text><g transform="translate(801.26 289.194)"><rect width="50.479" height="29.78" transform="translate(50.479 29.78) rotate(-180)" fill="#ebebeb"/></g><text transform="translate(810.743 312.194)" fill="#2d356b" font-size="24" font-family="TrebuchetMS-Bold, Trebuchet MS" font-weight="700"><tspan x="0" y="0">B</tspan></text><g transform="translate(328.802 361.014)"><g transform="translate(43.495 149.483)"><path d="M444.729,616.043s-19.287,30.281-17.277,32.122c3.808,3.488,11.6,47.8,21.265,113.5.244,1.666,4.061-.225,4.061-.225C445.044,729.575,444.729,616.043,444.729,616.043Z" transform="translate(-409.2 -615.066)" fill="#2d356b"/><path d="M439.532,622.209s6.65,107.867,15.061,140.008a11.932,11.932,0,0,0,2.09-.774c-7.734-31.869-8.05-145.4-8.05-145.4Z" transform="translate(-413.104 -615.066)" fill="#2d356b"/><path d="M436.591,615.6s-36.568-2.574-35.875.587c4.3,19.617-3.077,59.831,3.133,144.188l3.375.111c-3.635-55.537,4.718-88.8,14.468-106.7,5.041-9.253,10.616-10.491,14.891-9.452C436.9,633.09,436.591,615.6,436.591,615.6Z" transform="translate(-400.706 -614.608)" fill="#40558d"/><rect width="1.619" height="10.258" transform="translate(22.998 5.699) rotate(-88.114)" fill="#cecfd7"/><rect width="2.715" height="2.167" transform="translate(34.322 6.818) rotate(-88.114)" fill="#cecfd7"/><path d="M414.209,829.779l-10.563-.348s1.048-3.558,3.132-3.31S414.209,829.779,414.209,829.779Z" transform="translate(-401.645 -682.148)" fill="#9898a4"/><path d="M468.506,831.568l-10.563-.348s1.048-3.559,3.131-3.31S468.506,831.568,468.506,831.568Z" transform="translate(-418.984 -682.719)" fill="#9898a4"/></g><g transform="translate(25.29 34.507)"><path d="M430.538,474.327l-1.453.515-.487,3.673,3.335,1.321Z" transform="translate(-391.408 -454.835)" fill="#eaeaea"/><path d="M418.235,450.7l-13.74-5.014-.475,22.116,19.665,5.631Z" transform="translate(-383.56 -445.69)" fill="#f7c371"/><path d="M446.914,547.152l-25.89,8.1-1.282,38.927,22.975.9Z" transform="translate(-388.58 -478.09)" fill="#eaeaea"/><path d="M384.86,588.835c16.524-.5,35.706-6.708,44.1-25.69,4.543-10.273,4.435-27.183,4.657-43.94.3-22.4-24.771-51.676-44.641-44.975-27.617,9.314-9.327,45.563-6.038,55.132C392.576,557.4,385.491,582.583,384.86,588.835Z" transform="translate(-373.961 -454.493)" fill="#40558d"/><path d="M415.16,590.214c-.26-7.353-3.732-29.924-17.574-54.966-2.685-4.858-5.769-19.388-8.689-31.521-1.09-4.53-8.819,4.229-9.925,15.365-.687,6.907,4.289,15.947,5.548,19.611,9.636,28.034,2.551,53.222,1.919,59.474C395.992,597.887,406.428,595.684,415.16,590.214Z" transform="translate(-375.54 -463.834)" fill="#7b87ab"/><path d="M438.678,540.742c-2.17-28.881-25.1-56.8-45.3-64.394-3.392-1.276-.436-3.844,9.171-3.19C411.15,473.779,445.978,490.075,438.678,540.742Z" transform="translate(-379.731 -454.428)" fill="#7b87ab"/><path d="M442.248,521.889c-3.861-24.227-13.246-36.774-34.756-48.682,8.382.605,41.873,11.142,36.763,58.649C444.125,533.065,442.915,526.078,442.248,521.889Z" transform="translate(-384.669 -454.477)" fill="#eaeaea"/><path d="M454.9,594.61c.112-1.019-.367-1.909-1.071-1.987s-1.367.685-1.479,1.705.366,1.909,1.07,1.987S454.788,595.63,454.9,594.61Z" transform="translate(-398.988 -492.609)" fill="#7b87ab"/><path d="M456.869,576.858c.112-1.019-.367-1.909-1.071-1.988s-1.366.685-1.478,1.705.365,1.91,1.069,1.987S456.755,577.878,456.869,576.858Z" transform="translate(-399.617 -486.94)" fill="#7b87ab"/><path d="M425.838,479.077l5.008,1.6-1.864-5.368-.955-.485Z" transform="translate(-390.527 -454.993)" fill="#02928f"/><path d="M452.18,537.542l-1.79-9.773s3.686-30.71-18.8-45.529l.251-.78C450.341,494.233,456.411,516.817,452.18,537.542Z" transform="translate(-392.364 -457.113)" fill="#02928f"/><path d="M421.1,472.095l-19.659-4.759-2.391,3.976,18.713,7.092Z" transform="translate(-381.974 -452.602)" fill="#fff"/></g><g transform="translate(0 56.013)"><path d="M337.29,528.861c-4.919-1.219,29-52.937,37.27-51.547,0,0,13.9,7.568,7.076,35.347C381.637,512.661,355.261,533.312,337.29,528.861Z" transform="translate(-336.805 -477.287)" fill="#40558d"/><path d="M342.854,541.421c17.79,8.7,40.709-13.451,40.709-13.451a11.609,11.609,0,0,0,.622-2.744C365.521,541.258,342.114,541.06,342.854,541.421Z" transform="translate(-338.731 -492.595)" fill="#7b87ab"/><path d="M407.845,629.975c.434-.742-.745-1.7-2.215-2.559s-2.673-1.312-3.109-.568.4,2.043,1.875,2.907S407.409,630.717,407.845,629.975Z" transform="translate(-357.754 -524.927)" fill="#f7c371"/><path d="M405.136,632.244c.434-.742-.742-1.7-2.214-2.559s-2.675-1.312-3.111-.568.4,2.045,1.875,2.906S404.7,632.986,405.136,632.244Z" transform="translate(-356.889 -525.651)" fill="#f7c371"/><path d="M411.336,624.454c-.641-.574-2.29.928-3.975,2.806s-2.771,3.421-2.127,4,2.525-.484,4.211-2.365S411.979,625.029,411.336,624.454Z" transform="translate(-358.597 -524.243)" fill="#ffd8a3"/><path d="M395.951,611.248c3.071,2,13.194,7.485,11.436,11.153-1.574,3.28-7.87,4.874-13.953-8.691Z" transform="translate(-354.889 -520.065)" fill="#ffd8a3"/><path d="M392.728,615.522l-5.834-4.009,8.012-7,2.83,6.342Z" transform="translate(-352.801 -517.915)" fill="#eaeaea"/><path d="M337.11,548.971s8.158,17.008,35.311,43.912c0,0,4.2-.574,7.707-7.093,0,0-10.839-31.257-25.035-44.788C355.094,541,338.877,541.768,337.11,548.971Z" transform="translate(-336.903 -497.633)" fill="#40558d"/><path d="M389.99,604.567a1.5,1.5,0,1,0,.39-2.288A1.66,1.66,0,0,0,389.99,604.567Z" transform="translate(-353.701 -517.151)" fill="#7b87ab"/></g><g transform="translate(33.745)"><path d="M394.9,431.736c-9.571-11.424-8.734-30.275-8.272-30.936,4.932-7.055,18.84-6.448,25.856-4.554,5.916,1.6,10.563,4.87,7.628,9.487-1.014,1.594-5.714-2-7.149-1.813-2.715.361-4.339,37.7-4.339,37.7Z" transform="translate(-386.382 -394.994)" fill="#2d356b"/><g transform="translate(9.608 8.614)"><g transform="translate(2.95)"><path d="M437.23,451.3l1.39-2.369-1.9-1.164Z" transform="translate(-415.015 -420.46)" fill="#ffd8a3"/><path d="M406.118,440.357c1.152,3.156,10.98,9.82,20.653,9.28.956-12.6.265-33.376-2.119-36.895-2.346-3.463-11.641-5.914-12.769-4.837,3.431,4-1.876,17.535-3.842,18.792C403.252,429.763,404.916,437.064,406.118,440.357Z" transform="translate(-404.832 -407.649)" fill="#ffd8a3"/><path d="M441.6,444.264a89.233,89.233,0,0,1-4.882-10.57c-1.492-3.951-.851,10.624-.851,10.624S440.193,445.266,441.6,444.264Z" transform="translate(-414.7 -415.749)" fill="#ffd8a3"/><path d="M436.723,467.735c.972-.426,1.448-1.357,1.063-2.081a1.918,1.918,0,0,0-2.462-.538c-.974.425-1.449,1.357-1.063,2.08A1.92,1.92,0,0,0,436.723,467.735Z" transform="translate(-414.187 -425.933)" fill="#ffd8a3"/><path d="M438,459.678c.03-.255-.258-.5-.645-.545s-.723.123-.754.377.258.5.643.545S437.965,459.932,438,459.678Z" transform="translate(-414.975 -424.087)" fill="#ffd8a3"/></g><path d="M406.6,435.129c-.564-2.286-2.35-3.887-3.989-3.574s-2.509,2.42-1.946,4.706,3.7,3.589,5.334,3.277S407.167,437.415,406.6,435.129Z" transform="translate(-400.497 -415.27)" fill="#ffd8a3"/></g><path d="M436.391,451.973l-.282,5.138s-1.435-.134-1.753-.773a18,18,0,0,1-1.08-5.155Z" transform="translate(-401.355 -412.938)" fill="#ffab00"/><path d="M436.506,452.255l-.253,4.564s-1.06-.084-1.29-.372a12.8,12.8,0,0,1-1.035-4.878Z" transform="translate(-401.561 -413.061)" fill="#fff"/><path d="M433.371,428.491a1.248,1.248,0,0,0-.326-.82c-.522-.536-4.86.843-4.8,1.751l.041.569c.045.653,1.335-.052,2.634-.243,1.242-.182,2.5.176,2.476-.44Z" transform="translate(-399.751 -405.391)" fill="#2d356b"/><path d="M432.607,435.623c.018-.761-.386-1.427-.9-1.489s-.95.5-.969,1.265.385,1.427.9,1.489S432.586,436.384,432.607,435.623Z" transform="translate(-400.545 -407.491)" fill="#2d356b"/><path d="M433.221,451.153c.022-.176-.062-.331-.187-.346s-.242.116-.263.293.062.331.186.346S433.2,451.329,433.221,451.153Z" transform="translate(-401.195 -412.817)" fill="#ffab00"/><g transform="translate(13.599 2.153)"><path d="M412.205,410.816c4.192.314-2.439,19.257-.317,20.628s.016,2.915-1.1,2.486c-2.558-.983-2.985-6.344-3.149-9.758C407.457,420.371,411.85,410.789,412.205,410.816Z" transform="translate(-406.767 -402.199)" fill="#2d356b"/><path d="M427.349,405.848c.685-3.021-1.8-6.16-5.549-7.011s-14.72-1.424-15.4,1.6,9.171,8.492,12.922,9.341S426.665,408.867,427.349,405.848Z" transform="translate(-406.361 -398.157)" fill="#2d356b"/></g></g></g></g><g transform="translate(474.578 418.198)"><rect width="51.497" height="26.885" rx="6.672" fill="#fff" stroke="#231f20" stroke-miterlimit="10" stroke-width="0.25"/><text transform="translate(11.489 16.563)" fill="#2d356b" font-size="10" font-family="TrebuchetMS-Bold, Trebuchet MS" font-weight="700"><tspan x="0" y="0">Akiko</tspan></text></g><g transform="translate(75.578 418.198)"><rect width="51.497" height="26.885" rx="6.672" fill="#fff" stroke="#231f20" stroke-miterlimit="10" stroke-width="0.25"/><text transform="translate(12.489 16.563)" fill="#2d356b" font-size="10" font-family="TrebuchetMS-Bold, Trebuchet MS" font-weight="700"><tspan x="0" y="0">Steve</tspan></text></g></g></svg>