<svg xmlns="http://www.w3.org/2000/svg" width="539.127" height="354.38" viewBox="0 0 539.127 354.38">
    <g transform="translate(-32.437 -5705)">
        <g transform="translate(-126.565 1234.402)">
            <g transform="translate(159.002 4489.103)">
                <g transform="translate(0.523)">
                    <g transform="translate(0.12)">
                        <path d="M698.094,4501.913h.638v-11.431H160.248v238.9h537.84v-24h.005Z"
                            transform="translate(-160.248 -4490.147)" fill="#fff" />
                        <rect width="537.841" height="0.668" transform="translate(0 238.904)" fill="#a0bacb" />
                        <rect width="538.484" height="0.668" fill="#7b88ac" />
                    </g>
                    <g transform="translate(0 48.815)">
                        <path
                            d="M248.089,4585.261v-.175H240.4v.175H160.951v145.653H324.116V4585.261Zm69.271,4.677v32.028H248.089v-32.028ZM240.4,4627.494v61.188h-72.7v-61.188Zm7.686,61.188v-61.188H317.36v61.188Zm-7.686-98.744v32.028h-72.7v-32.028Zm-72.7,104.271h72.7v32.028h-72.7Zm80.383,32.028v-32.028H317.36v32.028Z"
                            transform="translate(-160.469 -4584.751)" fill="#ebebeb" />
                        <path
                            d="M324.145,4730.935H160.016V4584.614h79.452v-.175h8.651v.175h76.026Zm-163.164-.668h162.2V4585.282H247.154v-.175h-6.721v.175H160.981Zm156.409-4.009H247.154v-32.7H317.39Zm-69.271-.669h68.306v-31.359H248.119Zm-7.686.669H166.771v-32.7h73.661Zm-72.7-.669h71.732v-31.359H167.736ZM317.39,4688.7H247.154v-61.858H317.39Zm-69.271-.668h68.306v-60.521H248.119Zm-7.686.668H166.771v-61.858h73.661Zm-72.7-.668h71.732v-60.521H167.736Zm149.654-66.048H247.154v-32.7H317.39Zm-69.271-.668h68.306v-31.36H248.119Zm-7.686.668H166.771v-32.7h73.661Zm-72.7-.668h71.732v-31.36H167.736Z"
                            transform="translate(-160.016 -4584.438)" fill="#ebebeb" />
                    </g>
                    <g transform="translate(215.889 47.954)">
                        <path
                            d="M659.192,4583.591v-.175h-7.05v.175H579.266v145.652H728.924V4583.591Zm63.537,4.677V4620.3H659.192v-32.027Zm-70.587,37.554v61.189h-66.68v-61.189Zm7.05,61.189v-61.189h63.537v61.189Zm-7.05-98.744V4620.3h-66.68v-32.027Zm-66.68,104.271h66.68v32.028h-66.68Zm73.73,32.028v-32.028h63.537v32.028Z"
                            transform="translate(-578.823 -4583.082)" fill="#ebebeb" />
                        <path
                            d="M728.952,4729.264H578.408v-146.32h72.876v-.175h7.935v.175h69.733Zm-149.658-.668H728.066V4583.611H658.334v-.175h-6.165v.175H579.293Zm143.462-4.008H658.334v-32.7h64.422Zm-63.537-.668H721.87v-31.36H659.219Zm-7.05.668H584.6v-32.7h67.565Zm-66.679-.668h65.794v-31.36H585.49Zm137.266-36.887H658.334v-61.857h64.422Zm-63.537-.668H721.87v-60.521H659.219Zm-7.05.668H584.6v-61.857h67.565Zm-66.679-.668h65.794v-60.521H585.49Zm137.266-66.048H658.334v-32.7h64.422Zm-63.537-.668H721.87v-31.36H659.219Zm-7.05.668H584.6v-32.7h67.565Zm-66.679-.668h65.794v-31.36H585.49Z"
                            transform="translate(-578.408 -4582.768)" fill="#ebebeb" />
                    </g>
                    <g transform="translate(409.171 48.816)">
                        <path
                            d="M1082.237,4726.237h-41.174v-32.028h41.174v-5.527h-41.174v-61.188h41.174v-5.528h-41.174v-32.028h41.174v-4.677h-41.174v-.175h-7.686v.175H953.924v145.653h128.313Zm-48.861,0h-72.7v-32.028h72.7Zm0-37.556h-72.7v-61.188h72.7Zm0-66.716h-72.7v-32.028h72.7Z"
                            transform="translate(-953.442 -4584.752)" fill="#ebebeb" />
                        <path d="M1121.863,4828.615h41.657v-.668h-40.692v-31.36h40.692v-.667h-41.657Z"
                            transform="translate(-1034.725 -4686.796)" fill="#ebebeb" />
                        <path d="M1121.863,4728.48h41.657v-.667h-40.692v-60.521h40.692v-.668h-41.657Z"
                            transform="translate(-1034.725 -4624.216)" fill="#ebebeb" />
                        <path d="M1121.863,4626.538h41.657v-.668h-40.692v-31.36h40.692v-.668h-41.657Z"
                            transform="translate(-1034.725 -4588.99)" fill="#ebebeb" />
                        <path d="M1039.743,4593.841H966.081v32.7h73.662Zm-.965,32.028H967.046v-31.36h71.731Z"
                            transform="translate(-959.326 -4588.99)" fill="#ebebeb" />
                        <path
                            d="M1081.785,4730.267H953.955V4585.282h79.451v-.175h6.721v.175h41.657v-.668h-40.692v-.175h-8.651v.175H952.99v146.321h128.795Z"
                            transform="translate(-952.99 -4584.438)" fill="#ebebeb" />
                        <path d="M966.081,4828.615h73.662v-32.7H966.081Zm.965-32.028h71.731v31.36H967.046Z"
                            transform="translate(-959.326 -4686.796)" fill="#ebebeb" />
                        <path d="M1039.743,4666.623H966.081v61.857h73.662Zm-.965,61.189H967.046v-60.521h71.731Z"
                            transform="translate(-959.326 -4624.216)" fill="#ebebeb" />
                    </g>
                </g>
                <g transform="translate(0 220.51)">
                    <path d="M697.485,4898.287H159.645v81.968H159v33.112H697.48V4901.779h.005Z"
                        transform="translate(-159.002 -4898.002)" fill="#f9f9f9" />
                    <rect width="536.72" height="0.479" transform="translate(1.924 114.705)" fill="#f9f9f9" />
                    <rect width="537.846" height="0.479" transform="translate(0.643)" fill="#f9f9f9" />
                </g>
                <g transform="translate(32.651 4.212)">
                    <path
                        d="M875.629,4569.472V4498h-2.061v71.475c-6.428.364-11.483,4.083-11.483,8.627,0,4.785,5.6,8.664,12.513,8.664s12.514-3.879,12.514-8.664C887.112,4573.556,882.057,4569.836,875.629,4569.472Z"
                        transform="translate(-531.948 -4497.998)" fill="#ffb2b0" />
                    <path
                        d="M235.824,4580.413v-71.475h-2.061v71.475c-6.428.364-11.483,4.083-11.483,8.627,0,4.785,5.6,8.664,12.514,8.664s12.513-3.879,12.513-8.664C247.307,4584.5,242.252,4580.777,235.824,4580.413Z"
                        transform="translate(-222.28 -4503.293)" fill="#ffb2b0" />
                    <path
                        d="M459.754,4571.9V4519.94h-1.5V4571.9c-4.673.265-8.348,2.969-8.348,6.271,0,3.479,4.073,6.3,9.1,6.3s9.1-2.82,9.1-6.3C468.1,4574.874,464.428,4572.169,459.754,4571.9Z"
                        transform="translate(-332.452 -4508.618)" fill="#ffb2b0" />
                    <path
                        d="M1071.058,4571.9V4519.94h-1.5V4571.9c-4.673.265-8.349,2.969-8.349,6.271,0,3.479,4.074,6.3,9.1,6.3s9.1-2.82,9.1-6.3C1079.406,4574.874,1075.731,4572.169,1071.058,4571.9Z"
                        transform="translate(-628.326 -4508.618)" fill="#ffb2b0" />
                </g>
                <g transform="translate(21.876 94.75)">
                    <g transform="translate(0 20.645)">
                        <rect width="45.299" height="1.618" transform="translate(0.413 0.344)" fill="#ebebeb" />
                        <path d="M247.521,4706.4H201.4V4704.1h46.124Zm-45.3-.688H246.7v-.93H202.223Z"
                            transform="translate(-201.397 -4704.098)" fill="#ebebeb" />
                        <g transform="translate(0 24.407)">
                            <rect width="45.299" height="1.618" transform="translate(0.413 0.344)" fill="#ebebeb" />
                            <path d="M247.521,4753.706H201.4V4751.4h46.124Zm-45.3-.689H246.7v-.929H202.223Z"
                                transform="translate(-201.397 -4751.398)" fill="#ebebeb" />
                        </g>
                        <g transform="translate(0 48.814)">
                            <rect width="45.299" height="1.618" transform="translate(0.413 0.344)" fill="#ebebeb" />
                            <path d="M247.521,4801.006H201.4V4798.7h46.124Zm-45.3-.687H246.7v-.93H202.223Z"
                                transform="translate(-201.397 -4798.7)" fill="#ebebeb" />
                        </g>
                        <g transform="translate(0 0.54)">
                            <g transform="translate(0 73.22)">
                                <rect width="45.299" height="1.618" transform="translate(0.413 0.344)" fill="#ebebeb" />
                                <path d="M247.521,4849.352H201.4v-2.307h46.124Zm-45.3-.688H246.7v-.93H202.223Z"
                                    transform="translate(-201.397 -4847.045)" fill="#ebebeb" />
                            </g>
                            <g transform="translate(0 96.58)">
                                <rect width="45.299" height="1.618" transform="translate(0.413 0.344)" fill="#ebebeb" />
                                <path d="M247.521,4894.623H201.4v-2.306h46.124Zm-45.3-.687H246.7V4893H202.223Z"
                                    transform="translate(-201.397 -4892.317)" fill="#ebebeb" />
                            </g>
                            <rect width="2.427" height="117.41" transform="translate(0.413 0.344)" fill="#ebebeb" />
                            <path d="M204.649,4823.242H201.4v-118.1h3.252Zm-2.427-.688h1.6V4705.833h-1.6Z"
                                transform="translate(-201.397 -4705.144)" fill="#ebebeb" />
                            <g transform="translate(42.872)">
                                <rect width="2.427" height="117.41" transform="translate(0.413 0.344)" fill="#ebebeb" />
                                <path d="M287.735,4823.242h-3.252v-118.1h3.252Zm-2.427-.688h1.6V4705.833h-1.6Z"
                                    transform="translate(-284.483 -4705.144)" fill="#ebebeb" />
                            </g>
                        </g>
                    </g>
                    <g transform="translate(8.12 26.398)">
                        <rect width="4.746" height="18.653" transform="translate(0.413 0.344)" fill="#ebebeb" />
                        <path d="M222.7,4734.59h-5.571v-19.342H222.7Zm-4.745-.688h3.92v-17.966h-3.92Z"
                            transform="translate(-217.133 -4715.248)" fill="#ebebeb" />
                        <path d="M222.628,4722.968a1.59,1.59,0,1,1-1.564-1.3A1.452,1.452,0,0,1,222.628,4722.968Z"
                            transform="translate(-218.279 -4718.354)" fill="#ebebeb" />
                        <g transform="translate(5.578)">
                            <rect width="4.746" height="18.653" transform="translate(0.413 0.344)" fill="#ebebeb" />
                            <path d="M233.514,4734.59h-5.571v-19.342h5.571Zm-4.746-.688h3.92v-17.966h-3.92Z"
                                transform="translate(-227.943 -4715.248)" fill="#ebebeb" />
                            <path d="M233.438,4722.968a1.59,1.59,0,1,1-1.564-1.3A1.452,1.452,0,0,1,233.438,4722.968Z"
                                transform="translate(-229.089 -4718.354)" fill="#ebebeb" />
                        </g>
                        <g transform="translate(11.156)">
                            <rect width="4.746" height="18.653" transform="translate(0.413 0.344)" fill="#ebebeb" />
                            <path d="M244.324,4734.59h-5.571v-19.342h5.571Zm-4.746-.688h3.92v-17.966h-3.92Z"
                                transform="translate(-238.753 -4715.248)" fill="#ebebeb" />
                            <path d="M244.248,4722.968a1.59,1.59,0,1,1-1.564-1.3A1.452,1.452,0,0,1,244.248,4722.968Z"
                                transform="translate(-239.899 -4718.354)" fill="#ebebeb" />
                        </g>
                        <g transform="translate(16.734)">
                            <rect width="4.746" height="18.653" transform="translate(0.413 0.344)" fill="#ebebeb" />
                            <path d="M255.134,4734.59h-5.571v-19.342h5.571Zm-4.746-.688h3.92v-17.966h-3.92Z"
                                transform="translate(-249.563 -4715.248)" fill="#ebebeb" />
                            <path d="M255.058,4722.968a1.59,1.59,0,1,1-1.563-1.3A1.451,1.451,0,0,1,255.058,4722.968Z"
                                transform="translate(-250.709 -4718.354)" fill="#ebebeb" />
                        </g>
                        <g transform="translate(22.312)">
                            <rect width="4.746" height="18.653" transform="translate(0.413 0.344)" fill="#ebebeb" />
                            <path d="M265.944,4734.59h-5.571v-19.342h5.571Zm-4.746-.688h3.92v-17.966H261.2Z"
                                transform="translate(-260.373 -4715.248)" fill="#ebebeb" />
                            <path d="M265.869,4722.968a1.59,1.59,0,1,1-1.564-1.3A1.452,1.452,0,0,1,265.869,4722.968Z"
                                transform="translate(-261.519 -4718.354)" fill="#ebebeb" />
                        </g>
                    </g>
                    <path
                        d="M220.324,4821.541a7.733,7.733,0,0,1,.738-3.427h-5.688a7.733,7.733,0,0,1,.738,3.427c0,2.074-2.493,5.9-2.493,8.456s2.642,3.39,4.6,3.39,4.6-.837,4.6-3.39S220.324,4823.615,220.324,4821.541Z"
                        transform="translate(-207.313 -4738.637)" fill="#ebebeb" />
                    <g transform="translate(24.144 53.065)">
                        <g transform="translate(0.705)">
                            <path
                                d="M261.989,4776.194c1.534-3-1.876-2.946-1.617-3.733.488-1.478,2.326.128,3.072-.616s-1.841-3.064-.486-3.869.88,1.916,2.05,1.723.473-3.066,1.853-2.746c1.038.242-.2,2.038-.081,2.876s2.253-.383,2.29.814-2.551.673-2.856,1.584,2.784,1.1,1.7,1.869-3.124-.152-3.662.649S261.338,4777.468,261.989,4776.194Z"
                                transform="translate(-254.783 -4766.928)" fill="#ebebeb" />
                            <path
                                d="M255.815,4781.017c-1.442-3.032-3.819-.993-4.3-1.706-.9-1.337,1.762-1.272,1.664-2.238s-3.894-1.1-3.61-2.465,2.243.846,2.911.022-2.252-2.457-1-3.039c.941-.437,1.581,1.563,2.369,2.093s1.278-1.594,2.315-.765-1.246,1.975-.693,2.8,2.906-.852,2.786.331-2.349,1.725-2.055,2.608S256.427,4782.3,255.815,4781.017Z"
                                transform="translate(-249.554 -4769.154)" fill="#ebebeb" />
                        </g>
                        <path
                            d="M258.825,4781.77h-7.874s-2.764,1.978-2.764,4.315,1.722,4.764,6.7,4.764,6.7-2.427,6.7-4.764S258.825,4781.77,258.825,4781.77Z"
                            transform="translate(-248.188 -4774.112)" fill="#ebebeb" />
                    </g>
                    <g transform="translate(26.075 84.096)">
                        <rect width="7.267" height="8.225" transform="translate(2.248 2.427)" fill="#ebebeb" />
                        <ellipse cx="5.735" cy="2.427" rx="5.735" ry="2.427" fill="#ebebeb" />
                    </g>
                    <g transform="translate(21.014 13.091)">
                        <rect width="5.388" height="6.099" transform="translate(1.667 1.8)" fill="#ebebeb" />
                        <path
                            d="M250.627,4691.258c0,.994-1.9,1.8-4.252,1.8s-4.252-.806-4.252-1.8,1.9-1.8,4.252-1.8S250.627,4690.264,250.627,4691.258Z"
                            transform="translate(-242.123 -4689.458)" fill="#ebebeb" />
                    </g>
                    <g transform="translate(3.001)">
                        <path d="M225.393,4680.948s-1.864-5.394,6.387-11.462c0,0-7.064,6.473-4.746,11.462Z"
                            transform="translate(-215.925 -4666.701)" fill="#ebebeb" />
                        <path d="M223.891,4679.56s-4.273-6.008,3.38-15.472c0,0-6.072,9.641-1.4,15.043Z"
                            transform="translate(-214.71 -4664.088)" fill="#ebebeb" />
                        <path d="M216.231,4680.948s1.864-5.394-6.387-11.462c0,0,7.065,6.473,4.746,11.462Z"
                            transform="translate(-208.486 -4666.701)" fill="#ebebeb" />
                        <path d="M220.011,4679.465s3.433-4.828-2.719-12.433c0,0,4.882,7.747,1.13,12.089Z"
                            transform="translate(-212.091 -4665.513)" fill="#ebebeb" />
                        <path d="M224.859,4685.782s-1.611-5.451,6.916-11.246c0,0-7.361,6.238-5.277,11.3Z"
                            transform="translate(-215.695 -4669.146)" fill="#ebebeb" />
                        <path d="M214.129,4684.5s1.611-5.45-6.916-11.246c0,0,7.361,6.239,5.277,11.3Z"
                            transform="translate(-207.213 -4668.524)" fill="#ebebeb" />
                        <path d="M217.3,4688.04h-5.578l2.56,8.63h6.036l2.56-8.63Z"
                            transform="translate(-209.395 -4675.681)" fill="#ebebeb" />
                    </g>
                    <g transform="translate(4.329 63.06)">
                        <g transform="translate(0 0)">
                            <g transform="translate(0.413 4.566)">
                                <rect width="2.279" height="17.073" transform="translate(0 2.279) rotate(-90)"
                                    fill="#ebebeb" />
                            </g>
                            <g transform="translate(0 1.934)">
                                <rect width="2.279" height="17.073" transform="translate(0.413 2.623) rotate(-90)"
                                    fill="#ebebeb" />
                                <path d="M227.685,4793.015h-17.9v-2.967h17.9Zm-17.073-.688h16.248v-1.59H210.612Z"
                                    transform="translate(-209.786 -4790.048)" fill="#ebebeb" />
                            </g>
                            <g transform="translate(0.413)">
                                <rect width="2.279" height="17.073" transform="translate(0 2.279) rotate(-90)"
                                    fill="#ebebeb" />
                            </g>
                        </g>
                        <g transform="translate(10.468)">
                            <rect width="0.123" height="2.279" fill="#ebebeb" />
                        </g>
                        <g transform="translate(11.843)">
                            <rect width="0.123" height="2.279" fill="#ebebeb" />
                        </g>
                        <g transform="translate(13.218)">
                            <rect width="0.123" height="2.279" fill="#ebebeb" />
                        </g>
                        <g transform="translate(14.593)">
                            <rect width="0.123" height="2.279" fill="#ebebeb" />
                        </g>
                        <rect width="8.035" height="0.375" transform="translate(8.615 4.954)" fill="#ebebeb" />
                        <rect width="8.035" height="0.375" transform="translate(8.615 5.517)" fill="#ebebeb" />
                        <rect width="8.035" height="0.375" transform="translate(8.615 6.081)" fill="#ebebeb" />
                    </g>
                </g>
                <g transform="translate(473.77 94.75)">
                    <g transform="translate(0 20.645)">
                        <rect width="45.299" height="1.618" transform="translate(0.413 0.344)" fill="#ebebeb" />
                        <path d="M1123.292,4706.4h-46.125V4704.1h46.125Zm-45.3-.688h44.473v-.93h-44.473Z"
                            transform="translate(-1077.168 -4704.098)" fill="#ebebeb" />
                        <g transform="translate(0 24.407)">
                            <rect width="45.299" height="1.618" transform="translate(0.413 0.344)" fill="#ebebeb" />
                            <path d="M1123.292,4753.706h-46.125V4751.4h46.125Zm-45.3-.689h44.473v-.929h-44.473Z"
                                transform="translate(-1077.168 -4751.398)" fill="#ebebeb" />
                        </g>
                        <g transform="translate(0 48.814)">
                            <rect width="45.299" height="1.618" transform="translate(0.413 0.344)" fill="#ebebeb" />
                            <path d="M1123.292,4801.006h-46.125V4798.7h46.125Zm-45.3-.687h44.473v-.93h-44.473Z"
                                transform="translate(-1077.168 -4798.7)" fill="#ebebeb" />
                        </g>
                        <g transform="translate(0 0.54)">
                            <g transform="translate(0 73.22)">
                                <rect width="45.299" height="1.618" transform="translate(0.413 0.344)" fill="#ebebeb" />
                                <path d="M1123.292,4849.352h-46.125v-2.307h46.125Zm-45.3-.688h44.473v-.93h-44.473Z"
                                    transform="translate(-1077.168 -4847.045)" fill="#ebebeb" />
                            </g>
                            <g transform="translate(0 96.58)">
                                <rect width="45.299" height="1.618" transform="translate(0.413 0.344)" fill="#ebebeb" />
                                <path d="M1123.292,4894.623h-46.125v-2.306h46.125Zm-45.3-.687h44.473V4893h-44.473Z"
                                    transform="translate(-1077.168 -4892.317)" fill="#ebebeb" />
                            </g>
                            <rect width="2.427" height="117.41" transform="translate(0.413 0.344)" fill="#ebebeb" />
                            <path d="M1080.42,4823.242h-3.252v-118.1h3.252Zm-2.427-.688h1.6V4705.833h-1.6Z"
                                transform="translate(-1077.168 -4705.144)" fill="#ebebeb" />
                            <g transform="translate(42.872)">
                                <rect width="2.427" height="117.41" transform="translate(0.413 0.344)" fill="#ebebeb" />
                                <path d="M1163.506,4823.242h-3.252v-118.1h3.252Zm-2.427-.688h1.6V4705.833h-1.6Z"
                                    transform="translate(-1160.254 -4705.144)" fill="#ebebeb" />
                            </g>
                        </g>
                    </g>
                    <g transform="translate(8.12 26.398)">
                        <rect width="4.746" height="18.653" transform="translate(0.413 0.344)" fill="#ebebeb" />
                        <path d="M1098.475,4734.59H1092.9v-19.342h5.571Zm-4.745-.688h3.92v-17.966h-3.92Z"
                            transform="translate(-1092.904 -4715.248)" fill="#ebebeb" />
                        <path d="M1098.4,4722.968a1.59,1.59,0,1,1-1.564-1.3A1.452,1.452,0,0,1,1098.4,4722.968Z"
                            transform="translate(-1094.05 -4718.354)" fill="#ebebeb" />
                        <g transform="translate(5.578)">
                            <rect width="4.746" height="18.653" transform="translate(0.413 0.344)" fill="#ebebeb" />
                            <path d="M1109.285,4734.59h-5.571v-19.342h5.571Zm-4.746-.688h3.92v-17.966h-3.92Z"
                                transform="translate(-1103.714 -4715.248)" fill="#ebebeb" />
                            <path d="M1109.209,4722.968a1.59,1.59,0,1,1-1.563-1.3A1.451,1.451,0,0,1,1109.209,4722.968Z"
                                transform="translate(-1104.86 -4718.354)" fill="#ebebeb" />
                        </g>
                        <g transform="translate(11.156)">
                            <rect width="4.746" height="18.653" transform="translate(0.413 0.344)" fill="#ebebeb" />
                            <path d="M1120.1,4734.59h-5.571v-19.342h5.571Zm-4.746-.688h3.92v-17.966h-3.92Z"
                                transform="translate(-1114.524 -4715.248)" fill="#ebebeb" />
                            <path d="M1120.02,4722.968a1.59,1.59,0,1,1-1.564-1.3A1.452,1.452,0,0,1,1120.02,4722.968Z"
                                transform="translate(-1115.67 -4718.354)" fill="#ebebeb" />
                        </g>
                        <g transform="translate(16.734)">
                            <rect width="4.746" height="18.653" transform="translate(0.413 0.344)" fill="#ebebeb" />
                            <path d="M1130.905,4734.59h-5.571v-19.342h5.571Zm-4.746-.688h3.92v-17.966h-3.92Z"
                                transform="translate(-1125.334 -4715.248)" fill="#ebebeb" />
                            <path d="M1130.83,4722.968a1.59,1.59,0,1,1-1.564-1.3A1.452,1.452,0,0,1,1130.83,4722.968Z"
                                transform="translate(-1126.48 -4718.354)" fill="#ebebeb" />
                        </g>
                        <g transform="translate(22.312)">
                            <rect width="4.746" height="18.653" transform="translate(0.413 0.344)" fill="#ebebeb" />
                            <path d="M1141.716,4734.59h-5.571v-19.342h5.571Zm-4.746-.688h3.921v-17.966h-3.921Z"
                                transform="translate(-1136.145 -4715.248)" fill="#ebebeb" />
                            <path d="M1141.64,4722.968a1.59,1.59,0,1,1-1.564-1.3A1.451,1.451,0,0,1,1141.64,4722.968Z"
                                transform="translate(-1137.291 -4718.354)" fill="#ebebeb" />
                        </g>
                    </g>
                    <path
                        d="M1096.1,4821.541a7.734,7.734,0,0,1,.738-3.427h-5.688a7.734,7.734,0,0,1,.738,3.427c0,2.074-2.492,5.9-2.492,8.456s2.642,3.39,4.6,3.39,4.6-.837,4.6-3.39S1096.1,4823.615,1096.1,4821.541Z"
                        transform="translate(-1083.084 -4738.637)" fill="#ebebeb" />
                    <g transform="translate(24.144 53.065)">
                        <g transform="translate(0.705)">
                            <path
                                d="M1137.761,4776.194c1.534-3-1.876-2.946-1.616-3.733.488-1.478,2.326.128,3.072-.616s-1.84-3.064-.486-3.869.88,1.916,2.05,1.723.474-3.066,1.854-2.746c1.038.242-.2,2.038-.082,2.876s2.254-.383,2.291.814-2.552.673-2.857,1.584,2.784,1.1,1.7,1.869-3.124-.152-3.661.649S1137.109,4777.468,1137.761,4776.194Z"
                                transform="translate(-1130.555 -4766.928)" fill="#ebebeb" />
                            <path
                                d="M1131.586,4781.017c-1.442-3.032-3.819-.993-4.3-1.706-.9-1.337,1.761-1.272,1.663-2.238s-3.894-1.1-3.61-2.465,2.242.846,2.911.022-2.251-2.457-1-3.039c.941-.437,1.58,1.563,2.37,2.093s1.278-1.594,2.315-.765-1.245,1.975-.693,2.8,2.906-.852,2.786.331-2.349,1.725-2.055,2.608S1132.2,4782.3,1131.586,4781.017Z"
                                transform="translate(-1125.325 -4769.154)" fill="#ebebeb" />
                        </g>
                        <path
                            d="M1134.6,4781.77h-7.874s-2.764,1.978-2.764,4.315,1.722,4.764,6.7,4.764,6.7-2.427,6.7-4.764S1134.6,4781.77,1134.6,4781.77Z"
                            transform="translate(-1123.959 -4774.112)" fill="#ebebeb" />
                    </g>
                    <g transform="translate(26.075 84.096)">
                        <rect width="7.267" height="8.225" transform="translate(2.248 2.427)" fill="#ebebeb" />
                        <ellipse cx="5.735" cy="2.427" rx="5.735" ry="2.427" fill="#ebebeb" />
                    </g>
                    <g transform="translate(21.014 13.091)">
                        <rect width="5.388" height="6.099" transform="translate(1.667 1.8)" fill="#ebebeb" />
                        <path
                            d="M1126.4,4691.258c0,.994-1.9,1.8-4.252,1.8s-4.252-.806-4.252-1.8,1.9-1.8,4.252-1.8S1126.4,4690.264,1126.4,4691.258Z"
                            transform="translate(-1117.894 -4689.458)" fill="#ebebeb" />
                    </g>
                    <g transform="translate(3.002)">
                        <path d="M1101.164,4680.948s-1.864-5.394,6.387-11.462c0,0-7.064,6.473-4.746,11.462Z"
                            transform="translate(-1091.696 -4666.701)" fill="#ebebeb" />
                        <path d="M1099.663,4679.56s-4.274-6.008,3.38-15.472c0,0-6.073,9.641-1.4,15.043Z"
                            transform="translate(-1090.482 -4664.088)" fill="#ebebeb" />
                        <path d="M1092,4680.948s1.864-5.394-6.387-11.462c0,0,7.064,6.473,4.746,11.462Z"
                            transform="translate(-1084.258 -4666.701)" fill="#ebebeb" />
                        <path d="M1095.782,4679.465s3.433-4.828-2.718-12.433c0,0,4.881,7.747,1.13,12.089Z"
                            transform="translate(-1087.863 -4665.513)" fill="#ebebeb" />
                        <path d="M1100.63,4685.782s-1.611-5.451,6.916-11.246c0,0-7.36,6.238-5.276,11.3Z"
                            transform="translate(-1091.467 -4669.146)" fill="#ebebeb" />
                        <path d="M1089.9,4684.5s1.611-5.45-6.917-11.246c0,0,7.361,6.239,5.276,11.3Z"
                            transform="translate(-1082.985 -4668.524)" fill="#ebebeb" />
                        <path d="M1093.07,4688.04h-5.578l2.56,8.63h6.036l2.56-8.63Z"
                            transform="translate(-1085.167 -4675.681)" fill="#ebebeb" />
                    </g>
                    <g transform="translate(4.329 63.06)">
                        <g transform="translate(0 0)">
                            <g transform="translate(0.413 4.566)">
                                <rect width="2.279" height="17.073" transform="translate(0 2.279) rotate(-90)"
                                    fill="#ebebeb" />
                            </g>
                            <g transform="translate(0 1.934)">
                                <rect width="2.279" height="17.073" transform="translate(0.413 2.623) rotate(-90)"
                                    fill="#ebebeb" />
                                <path d="M1103.456,4793.015h-17.9v-2.967h17.9Zm-17.073-.688h16.248v-1.59h-16.248Z"
                                    transform="translate(-1085.557 -4790.048)" fill="#ebebeb" />
                            </g>
                            <g transform="translate(0.413)">
                                <rect width="2.279" height="17.073" transform="translate(0 2.279) rotate(-90)"
                                    fill="#ebebeb" />
                            </g>
                        </g>
                        <g transform="translate(10.468)">
                            <rect width="0.123" height="2.279" fill="#ebebeb" />
                        </g>
                        <g transform="translate(11.843)">
                            <rect width="0.123" height="2.279" fill="#ebebeb" />
                        </g>
                        <g transform="translate(13.218)">
                            <rect width="0.123" height="2.279" fill="#ebebeb" />
                        </g>
                        <g transform="translate(14.594)">
                            <rect width="0.123" height="2.279" fill="#ebebeb" />
                        </g>
                        <rect width="8.035" height="0.375" transform="translate(8.615 4.954)" fill="#ebebeb" />
                        <rect width="8.035" height="0.375" transform="translate(8.615 5.517)" fill="#ebebeb" />
                        <rect width="8.035" height="0.375" transform="translate(8.615 6.081)" fill="#ebebeb" />
                    </g>
                </g>
                <g transform="translate(230.715 173.193)">
                    <path
                        d="M721.26,4949.066H613.509c-2.057,0-3.541-1.676-2.97-3.356h0a3.065,3.065,0,0,1,2.97-1.9H721.26a3.065,3.065,0,0,1,2.97,1.9h0C724.8,4947.39,723.317,4949.066,721.26,4949.066Z"
                        transform="translate(-608.203 -4876.133)" fill="#ebebeb" opacity="0.32" />
                    <g transform="translate(0 23.284)">
                        <rect width="2.084" height="44.147" transform="translate(1.243 0.247)" fill="#ebebeb" />
                        <rect width="2.084" height="44.147" transform="translate(114.449 0.247)" fill="#ebebeb" />
                        <path d="M724.069,4862.593H606.808l.892-4.34H722.977Z" transform="translate(-606.456 -4858.006)"
                            fill="#ebebeb" />
                        <path d="M724.1,4862.608H606.127l.994-4.833H722.888Zm-117.276-.493H723.375l-.968-3.847H607.62Z"
                            transform="translate(-606.127 -4857.775)" fill="#ebebeb" />
                        <g transform="translate(0.055 4.34)">
                            <path d="M723.869,4866.664H606.808v45.311h1.935v-42.337H722.134v42.337h1.935v-45.311Z"
                                transform="translate(-606.512 -4866.417)" fill="#ebebeb" />
                            <path
                                d="M724.087,4911.991H721.56v-42.338h-112.8v42.338h-2.527v-45.8H724.087Zm-1.935-.494H723.5v-44.818H606.826V4911.5h1.344v-42.336H722.152Z"
                                transform="translate(-606.234 -4866.186)" fill="#ebebeb" />
                        </g>
                    </g>
                    <g transform="translate(80.37)">
                        <path
                            d="M800.43,4814.475V4830.7a2.127,2.127,0,0,1-2.324,1.825h-33.9a2.127,2.127,0,0,1-2.324-1.825v-16.229a2.131,2.131,0,0,1,2.324-1.825h33.9A2.13,2.13,0,0,1,800.43,4814.475Z"
                            transform="translate(-761.885 -4812.649)" fill="#ebebeb" />
                        <path
                            d="M764.939,4832.492a1.416,1.416,0,0,1-1.55-1.217v-16.229a1.416,1.416,0,0,1,1.55-1.217h33.895a1.416,1.416,0,0,1,1.55,1.217v16.229a1.415,1.415,0,0,1-1.55,1.217Z"
                            transform="translate(-762.613 -4813.221)" fill="#ebebeb" />
                        <g transform="translate(1.255 0.971)">
                            <path
                                d="M765.665,4832.454a.708.708,0,0,1-.774-.609v-16.228a.707.707,0,0,1,.774-.608H799.56a.707.707,0,0,1,.775.608v16.228a.708.708,0,0,1-.775.609Z"
                                transform="translate(-764.595 -4814.762)" fill="#ebebeb" />
                            <path
                                d="M799.282,4832.469H765.388a.983.983,0,0,1-1.071-.855v-16.228a.982.982,0,0,1,1.071-.855h33.895a.982.982,0,0,1,1.071.855v16.228A.983.983,0,0,1,799.282,4832.469Zm-33.895-17.445a.433.433,0,0,0-.479.362v16.228a.433.433,0,0,0,.479.362h33.895a.433.433,0,0,0,.479-.362v-16.228a.433.433,0,0,0-.479-.362Z"
                                transform="translate(-764.317 -4814.531)" fill="#ebebeb" />
                        </g>
                        <path d="M799.517,4842.943h-9.09l1.026-8.777h7.038Z" transform="translate(-775.699 -4823.063)"
                            fill="#ebebeb" />
                        <g transform="translate(14.692 10.39)">
                            <path d="M799.5,4847.527h-8.522l1.338-14.264h5.846Z"
                                transform="translate(-790.659 -4833.017)" fill="#ebebeb" />
                            <path d="M799.521,4847.542h-9.161l1.384-14.756h6.394Zm-8.522-.493h7.882l-1.292-13.77h-5.3Z"
                                transform="translate(-790.359 -4832.786)" fill="#ebebeb" />
                        </g>
                        <g transform="translate(8.906 24.045)">
                            <path
                                d="M799.861,4861.908H779.718a2.533,2.533,0,0,1,2.776-2.181h14.591a2.533,2.533,0,0,1,2.776,2.181Z"
                                transform="translate(-779.422 -4859.48)" fill="#ebebeb" />
                            <path
                                d="M799.879,4861.923H779.144v-.247c0-1.338,1.378-2.427,3.072-2.427h14.591c1.694,0,3.072,1.088,3.072,2.427Zm-20.123-.494h19.511a2.356,2.356,0,0,0-2.46-1.687H782.216A2.355,2.355,0,0,0,779.756,4861.43Z"
                                transform="translate(-779.144 -4859.25)" fill="#ebebeb" />
                        </g>
                    </g>
                </g>
            </g>
            <g transform="translate(529.314 4653.33)">
                <g transform="translate(0)">
                    <g transform="translate(11.798)">
                        <path
                            d="M901.4,4820.559s-.976-5.458-1.418-6.659c-.571-1.551-.851-3.862.72-5.221s1.809-4.56,1.809-5.049.589-7.831,7.071-6.744c0,0,2.684.543,1.375,4.46,0,0-1.376,2.338.36,3.807s3.241,4.84,0,8.1-2.318,4.458-1.8,5.71c2.361,5.711-2.663,10.957-3.208,12.355s-1.2,3.7-.653,5.019l-1.907.029Z"
                            transform="translate(-899.532 -4796.776)" fill="#ebebeb" />
                    </g>
                    <g transform="translate(16.511 5.527)">
                        <path
                            d="M909.186,4841.763a.4.4,0,0,0,.058,0,.245.245,0,0,0,.224-.283c-.729-2.947.55-8.2.563-8.249.7-2.235.91-5.09-.259-12.372a23.313,23.313,0,0,1,.356-9.551,14.23,14.23,0,0,1,1.332-3.469.221.221,0,0,0-.126-.321.316.316,0,0,0-.387.1,14.276,14.276,0,0,0-1.376,3.563,23.716,23.716,0,0,0-.369,9.737c1.152,7.178.941,10.068.269,12.2-.058.231-1.319,5.411-.567,8.455A.28.28,0,0,0,909.186,4841.763Z"
                            transform="translate(-908.665 -4807.487)" fill="#fff" />
                    </g>
                    <g transform="translate(18.075 20.974)">
                        <path
                            d="M913.953,4856.158s0-1.287,3.18-2.506a4.883,4.883,0,0,0,3.18-3.183c.816-2.574,3.1-1.9,4.567-1.151s4.8,0,4.807-3.861a2.3,2.3,0,0,1,1.137-3.116c2.129-1.083,2.944-4.954-1.622-4.916s-8.869,1.912-13.292,7.354c-6.148,7.563-3.754,11.378-3.754,11.378Z"
                            transform="translate(-911.697 -4837.424)" fill="#ebebeb" />
                    </g>
                    <g transform="translate(18.618 23.687)">
                        <path
                            d="M913.243,4858.941a.345.345,0,0,0,.088-.012.238.238,0,0,0,.186-.3,4.834,4.834,0,0,1-.018-2.526.216.216,0,0,0,.022-.048c2.466-7.731,14.626-12.868,14.749-12.919a.223.223,0,0,0,.129-.321.318.318,0,0,0-.387-.107c-.125.052-12.492,5.278-15.04,13.2a4.737,4.737,0,0,0,0,2.867A.283.283,0,0,0,913.243,4858.941Z"
                            transform="translate(-912.75 -4842.681)" fill="#fff" />
                    </g>
                    <g transform="translate(0 9.51)">
                        <path
                            d="M890.3,4845.289s-3.339-1.577-2.685-4.731-2.75-3.861-3.536-3.97-5.893-1.849-5.107-8.212c0,0,.262-4.079-.655-5.547s-3.208-5.874,0-7.233,5.434,1.088,6.613,3.589c0,0,.916,2.883,1.7,3.59a15.661,15.661,0,0,1,6.024,13.433l-1.115,9.082Z"
                            transform="translate(-876.667 -4815.207)" fill="#ebebeb" />
                    </g>
                    <g transform="translate(4.572 14.513)">
                        <path
                            d="M895.115,4850.221a.27.27,0,0,0,.288-.23c.331-7.315-3.489-16.855-5.679-19.61a47.371,47.371,0,0,1-3.647-5.342.315.315,0,0,0-.383-.114.224.224,0,0,0-.138.319,47.846,47.846,0,0,0,3.687,5.4c2.154,2.711,5.91,12.109,5.584,19.329a.263.263,0,0,0,.277.248Z"
                            transform="translate(-885.529 -4824.901)" fill="#fff" />
                    </g>
                </g>
                <path d="M906.244,4887.207H893.9l-2.988-14.052h18.325Z" transform="translate(-883.56 -4833.744)"
                    fill="#ebebeb" />
            </g>
            <g transform="translate(333.243 4661.435)">
                <g transform="translate(0 0)">
                    <g transform="translate(10.036)">
                        <path
                            d="M517.723,4832.481s-.831-4.644-1.207-5.665c-.486-1.32-.724-3.285.612-4.442s1.539-3.878,1.539-4.294.5-6.662,6.015-5.736c0,0,2.284.463,1.17,3.793,0,0-1.17,1.989.306,3.238s2.757,4.117,0,6.894-1.972,3.792-1.532,4.857c2.009,4.858-2.265,9.319-2.729,10.51s-1.021,3.144-.555,4.268l-1.622.025Z"
                            transform="translate(-516.132 -4812.25)" fill="#ebebeb" />
                    </g>
                    <g transform="translate(14.045 4.701)">
                        <path
                            d="M524.344,4850.519a.284.284,0,0,0,.05,0,.207.207,0,0,0,.191-.24c-.62-2.506.468-6.973.479-7.018.6-1.9.774-4.331-.22-10.523a19.84,19.84,0,0,1,.3-8.125,12.124,12.124,0,0,1,1.133-2.951.188.188,0,0,0-.108-.273.27.27,0,0,0-.329.09,12.158,12.158,0,0,0-1.17,3.031,20.17,20.17,0,0,0-.314,8.283c.98,6.106.8,8.564.229,10.377-.049.2-1.122,4.6-.482,7.191A.238.238,0,0,0,524.344,4850.519Z"
                            transform="translate(-523.901 -4821.361)" fill="#fff" />
                    </g>
                    <g transform="translate(15.376 17.842)">
                        <path
                            d="M528.4,4862.763s0-1.094,2.705-2.131a4.153,4.153,0,0,0,2.7-2.708c.694-2.189,2.636-1.614,3.885-.98s4.085,0,4.089-3.284a1.958,1.958,0,0,1,.967-2.65c1.811-.922,2.5-4.215-1.38-4.182s-7.544,1.626-11.306,6.256c-5.229,6.434-3.193,9.679-3.193,9.679Z"
                            transform="translate(-526.48 -4846.828)" fill="#ebebeb" />
                    </g>
                    <g transform="translate(15.838 20.15)">
                        <path
                            d="M527.795,4865.132a.283.283,0,0,0,.075-.011.2.2,0,0,0,.158-.256,4.116,4.116,0,0,1-.015-2.149.221.221,0,0,0,.019-.041c2.1-6.576,12.441-10.947,12.545-10.99a.189.189,0,0,0,.109-.273.271.271,0,0,0-.329-.091c-.106.044-10.626,4.49-12.794,11.23a4.033,4.033,0,0,0,0,2.439A.242.242,0,0,0,527.795,4865.132Z"
                            transform="translate(-527.375 -4851.3)" fill="#fff" />
                    </g>
                    <g transform="translate(0 8.09)">
                        <path
                            d="M508.28,4853.518s-2.841-1.341-2.284-4.024-2.339-3.284-3.008-3.377-5.012-1.573-4.344-6.985c0,0,.223-3.47-.557-4.719s-2.729-5,0-6.153,4.623.925,5.625,3.053a10.7,10.7,0,0,0,1.448,3.054,13.323,13.323,0,0,1,5.124,11.427l-.948,7.726Z"
                            transform="translate(-496.682 -4827.928)" fill="#ebebeb" />
                    </g>
                    <g transform="translate(3.889 12.345)">
                        <path
                            d="M512.374,4857.713a.229.229,0,0,0,.245-.2c.282-6.223-2.968-14.337-4.83-16.683a40.262,40.262,0,0,1-3.1-4.543.269.269,0,0,0-.326-.1.191.191,0,0,0-.117.271,40.779,40.779,0,0,0,3.136,4.594c1.832,2.307,5.027,10.3,4.75,16.442a.223.223,0,0,0,.236.211Z"
                            transform="translate(-504.22 -4836.175)" fill="#fff" />
                    </g>
                </g>
                <path d="M521.841,4889.175h-10.5l-2.542-11.954h15.588Z" transform="translate(-502.545 -4843.697)"
                    fill="#ebebeb" />
            </g>
            <g transform="translate(389.252 4606.951)">
                <g transform="translate(0 0)">
                    <g transform="translate(12.86 7.275)">
                        <rect width="162.259" height="58.427" rx="11.604" fill="#fff" stroke="#231f20"
                            stroke-miterlimit="10" stroke-width="0.25" />
                        <path d="M919.685,4763.63l44.966-14.261L919.685,4753Z" transform="translate(-757.426 -4721.647)"
                            fill="#fff" stroke="#231f20" stroke-miterlimit="10" stroke-width="0.25" />
                    </g>
                </g>
            </g>
            <g transform="translate(585.887 4604.278)">
                <g transform="translate(0 88.443)">
                    <path
                        d="M1025,4872.925l-8.441,1.587c-7.423,26.515-5.6,58.125-22.187,112.259,0,0,1.584.691,1.813,0,13.8-41.859,21.348-74.679,24.026-79.188C1026.164,4897.563,1033.6,4889.043,1025,4872.925Z"
                        transform="translate(-990.211 -4868.835)" fill="#ffd8a3" />
                    <path
                        d="M1044.363,4869.743c10.388,19.375,2.61,17.872,2.272,27.893-.974,28.9,17.449,43.593,23.168,87.791,0,0-2.265-.115-2.329-.754-3.553-35.26-34.8-69-36.083-101.734-.083-2.11-.175-8.417,2.287-10.673C1037.442,4868.814,1044.364,4869.743,1044.363,4869.743Z"
                        transform="translate(-1008.113 -4867.24)" fill="#f7c371" />
                    <path
                        d="M1092.572,5092.385h6.789s.328-1.927-1.186-2.236C1097.221,5089.955,1095.534,5090.4,1092.572,5092.385Z"
                        transform="translate(-1037.739 -4973.953)" fill="#7b88ac" />
                    <path
                        d="M986.306,5092.708h5.968s.288-1.926-1.043-2.235C990.393,5090.277,988.91,5090.726,986.306,5092.708Z"
                        transform="translate(-986.306 -4974.109)" fill="#7b88ac" />
                    <path
                        d="M1048.561,4933.387s-28.5,4.581-35.028,2.75c0,0,6.234-64.759,10.687-68.73s12.467-1.833,12.467-1.833a25.2,25.2,0,0,1,4.156,26.881C1034.907,4906.506,1048.561,4933.387,1048.561,4933.387Z"
                        transform="translate(-999.484 -4864.999)" fill="#9ea9fc" />
                </g>
                <g transform="translate(7.672)">
                    <g transform="translate(0 41.464)">
                        <g transform="translate(0 17.484)">
                            <path
                                d="M1016.985,4820.563c-1.778-1.19-7.034-.817-6.641-2.641.35-1.635,3.332-3.741,7.5,1.224Z"
                                transform="translate(-1005.602 -4811.812)" fill="#f8c471" />
                            <path
                                d="M1014.014,4816.336c-.437,2.925-4,2.38-5.079,1.95-1.189-.474-1.465-2.787-.775-3.536S1014.179,4815.218,1014.014,4816.336Z"
                                transform="translate(-1004.375 -4811.071)" fill="#f8c471" />
                            <path
                                d="M1012.361,4811.646c-.96-1.456-1.357-3.58-.723-3.789.715-.237.712,1.653,1.891,2.75,1.274,1.19,2.013,2,1.581,2.521S1013.32,4813.1,1012.361,4811.646Z"
                                transform="translate(-1006.09 -4807.837)" fill="#f8c471" />
                            <path
                                d="M1005.368,4813.44c-1.384-.56-1.979-1.17-1.788-1.521s.96.018,2.344.575,3.281.925,3.091,1.275S1006.753,4814,1005.368,4813.44Z"
                                transform="translate(-1002.322 -4809.747)" fill="#f8c471" />
                            <path
                                d="M1003.739,4816.716c-1.5-.276-2.671-1.179-2.557-1.554s1.428.207,2.926.483,2.454.534,2.339.909S1005.236,4816.991,1003.739,4816.716Z"
                                transform="translate(-1001.174 -4811.324)" fill="#f8c471" />
                            <path
                                d="M1005.812,4820.219c-1.485-.336-2.237-.858-2.113-1.229s1.061.035,2.544.371,2.52.591,2.395.963S1007.3,4820.555,1005.812,4820.219Z"
                                transform="translate(-1002.389 -4813.164)" fill="#f8c471" />
                        </g>
                        <g transform="translate(10.922)">
                            <path
                                d="M1042.178,4774.148c4.786-2.929,17.291,28.252,17.294,29.445,0,0-2.46,1.922-3.49.961C1053.318,4802.068,1040.041,4775.456,1042.178,4774.148Z"
                                transform="translate(-1031.829 -4773.954)" fill="#ffb2b0" />
                            <path
                                d="M1025.259,4821.392c-1.163,4.251,23.177,6.253,24.079,5.988,0,0,1.9-2.757.949-3.318C1047.827,4822.615,1025.778,4819.492,1025.259,4821.392Z"
                                transform="translate(-1023.733 -4796.625)" fill="#ffb2b0" />
                            <path
                                d="M1022.642,4820.7l.7-1.151,5.1-.5a10.469,10.469,0,0,1-1.259,2.608C1026.718,4822.019,1022.642,4820.7,1022.642,4820.7Z"
                                transform="translate(-1022.486 -4795.781)" fill="#eaeaea" />
                            <path
                                d="M1022.514,4822.059l-.174,1.344,3.714,3.538a10.535,10.535,0,0,0,.652-2.844C1026.565,4823.524,1022.514,4822.059,1022.514,4822.059Z"
                                transform="translate(-1022.34 -4797.237)" fill="#eaeaea" />
                        </g>
                    </g>
                    <g transform="translate(9.394)">
                        <g transform="translate(3.799 1.936)">
                            <path
                                d="M1028.105,4731.053c-4.442-3.614,3.4-3.983,3.444-6.947s-.982-2.078-1.128-5.913,1.467-5.179,1.865-7.389-1.2-5.941.955-8.656,3.107-1.714,4.957-3.869,3,.35,5.462,1.464,6.125-4.074,10.4-1.823,3.3,6.347,4.359,8.72,5.448,3.522,5.606,7.685-2.942,3.075-1.865,6,5.1,2.877,5.26,7.04c0,0,0,4.168-6.463,3.647s-4.754,2.045-11.59.112-5.055,2.606-9.8.7S1032.073,4734.282,1028.105,4731.053Z"
                                transform="translate(-1026.743 -4697.35)" fill="#fff4ba" />
                        </g>
                        <g transform="translate(0 21.493)">
                            <path d="M1055.982,4735.25l-6.29,3.952-1.129,13.6,5.054-1.828Z"
                                transform="translate(-1033.505 -4735.25)" fill="#f7c371" />
                            <path
                                d="M1022.492,4829.315c4.042-2.648,13.427-8.5,23.833-1.254-3.113-9.141-5.939-18.127-6.039-25.646-.187-13.937,11.659-30.307,1.857-36.609-10.407-6.69-22.764,24.205-22.764,24.205C1029.787,4795.865,1026.907,4812.647,1022.492,4829.315Z"
                                transform="translate(-1019.38 -4749.58)" fill="#fc8c99" />
                            <path
                                d="M1052.728,4764.065l-1.828-.215-8.172,7.688,2.419,2.043S1050.631,4767.989,1052.728,4764.065Z"
                                transform="translate(-1030.681 -4749.092)" fill="#fff" />
                            <path
                                d="M1036.059,4773.78c-.04-.027-.075-.055-.115-.083,2.156-4.3,6.87-10.893,11.421-10.469C1043.222,4766.925,1036.059,4773.78,1036.059,4773.78Z"
                                transform="translate(-1027.397 -4748.782)" fill="#f7c371" />
                        </g>
                        <g transform="translate(6.303)">
                            <path
                                d="M1047.276,4721.659c3.4-.73,10.2-1.422,13.738-6.3,4.595-6.336,3.752-10.462,2.623-15.49-2.152-9.583-18.488-6.075-17.639-3.24C1047.125,4700.4,1034.951,4724.305,1047.276,4721.659Z"
                                transform="translate(-1036.493 -4693.597)" fill="#fff4ba" />
                            <path
                                d="M1037.452,4727.187c-1.221-.069-3.049-6.5-3.427-11.377-.125-1.608,1.6-1.7,1.8-7.147.117-3.2,1.842-7.54,7.372-10.41,5.22-2.71,5.036,7.227,5.339,9.542.865,6.595,2.3,10.787.448,13.85C1045.372,4727.625,1038.789,4726.945,1037.452,4727.187Z"
                                transform="translate(-1032.768 -4695.625)" fill="#ffd8a3" />
                            <path
                                d="M1041.574,4738.065a.281.281,0,0,0-.237-.32.3.3,0,0,0-.262.31.282.282,0,0,0,.238.32A.3.3,0,0,0,1041.574,4738.065Z"
                                transform="translate(-1036.183 -4714.965)" fill="#ffab00" />
                            <path
                                d="M1042.144,4721.636c.254-.822,0-1.622-.569-1.787s-1.235.368-1.489,1.189,0,1.622.569,1.787S1041.891,4722.458,1042.144,4721.636Z"
                                transform="translate(-1035.658 -4706.288)" fill="#2d356b" />
                            <path
                                d="M1042.945,4721.746c-.393-1.395-1.121-2.9-3.5-2.894A8.23,8.23,0,0,1,1042.945,4721.746Z"
                                transform="translate(-1035.392 -4705.82)" fill="#2d356b" />
                            <path
                                d="M1037.134,4744.825c-.025-.2-.678.469-.97.478-.826.024-.651,1.085.178.978C1036.666,4746.239,1037.16,4745.038,1037.134,4744.825Z"
                                transform="translate(-1033.546 -4718.374)" fill="#f36973" />
                            <path d="M1037.8,4738.014c.569-.19-3.128-1.485-2.519-.172A5.9,5.9,0,0,0,1037.8,4738.014Z"
                                transform="translate(-1033.346 -4714.73)" fill="#f36973" />
                            <path
                                d="M1038.88,4711.728a5.013,5.013,0,0,1,5.854,3.488C1043.235,4712.9,1042.021,4711.995,1038.88,4711.728Z"
                                transform="translate(-1035.121 -4702.335)" fill="#2d356b" />
                            <path d="M1032.408,4728.777l1.857.685.34-4.822-3.01,3.276Z"
                                transform="translate(-1031.595 -4708.622)" fill="#ffd8a3" />
                            <path d="M1033.957,4735.342l-1.3-3.071,1.421.029Z"
                                transform="translate(-1032.109 -4712.315)" fill="#ffd8a3" />
                            <path
                                d="M1035.651,4742.267a35.772,35.772,0,0,1-.7-4.242l3.413.192S1037.486,4741.792,1035.651,4742.267Z"
                                transform="translate(-1033.221 -4715.1)" fill="#ffab00" />
                            <path d="M1037.433,4740.262l-1.944-.109q-.125-.8-.219-1.666l2.79.158Z"
                                transform="translate(-1033.374 -4715.324)" fill="#fff" />
                            <path
                                d="M1066.754,4728.04c.007-1.492-.434-2.618.7-2.61s2.048,1.225,2.041,2.72-.934,2.7-2.069,2.691S1066.745,4729.535,1066.754,4728.04Z"
                                transform="translate(-1048.565 -4709.004)" fill="#f7c371" />
                            <path
                                d="M1047.139,4698.26c3.278,5.62,9.112,13.892,7.165,21.524,3.641-8.038,2.842-19.077-2.354-23.9C1051.328,4696.679,1046.463,4696.155,1047.139,4698.26Z"
                                transform="translate(-1039.087 -4694.706)" fill="#fff4ba" />
                        </g>
                    </g>
                    <g transform="translate(1.458 41.116)">
                        <g transform="translate(0 14.937)">
                            <path
                                d="M1019.706,4818.616c-1.653-1.863-7.682-2.989-6.7-4.928.875-1.738,4.853-3.233,8.088,3.584Z"
                                transform="translate(-1008.306 -4807.066)" fill="#ffd9a4" />
                            <path
                                d="M1017.666,4812.633c-1.352,3.166-5.2,1.5-6.294.7-1.2-.884-.831-3.57.167-4.21S1018.18,4811.423,1017.666,4812.633Z"
                                transform="translate(-1007.204 -4805.523)" fill="#ffd9a4" />
                            <path
                                d="M1017.378,4806.708c-.653-1.921-.475-4.431.3-4.479.874-.057.315,2.072,1.321,3.654,1.085,1.715,1.677,2.851,1.039,3.3S1018.029,4808.633,1017.378,4806.708Z"
                                transform="translate(-1010.281 -4802.228)" fill="#ffd9a4" />
                            <path
                                d="M1009.224,4806.636c-1.395-1.038-1.884-1.9-1.567-2.239s1.076.3,2.47,1.337,3.424,2.006,3.107,2.345S1010.621,4807.669,1009.224,4806.636Z"
                                transform="translate(-1005.725 -4803.233)" fill="#ffd9a4" />
                            <path
                                d="M1006.456,4809.83c-1.606-.751-2.661-2.113-2.423-2.5s1.548.652,3.154,1.4,2.607,1.325,2.367,1.712S1008.062,4810.58,1006.456,4809.83Z"
                                transform="translate(-1004 -4804.656)" fill="#ffd9a4" />
                            <path
                                d="M1007.745,4814.395c-1.573-.815-2.267-1.626-2.018-2.007s1.185.352,2.757,1.167,2.664,1.407,2.413,1.789S1009.319,4815.208,1007.745,4814.395Z"
                                transform="translate(-1004.812 -4807.095)" fill="#ffd9a4" />
                        </g>
                        <g transform="translate(10.901)">
                            <path
                                d="M1061.92,4773.347c6.251-1.892,11.164,36.9,10.816,38.25,0,0-3.335,1.441-4.213.056C1066.254,4808.068,1059.128,4774.19,1061.92,4773.347Z"
                                transform="translate(-1042.625 -4773.28)" fill="#ffb2b0" />
                            <path
                                d="M1029.093,4821.77c-2.56,4.446,24.265,13.86,25.358,13.828,0,0,2.951-2.548,2.045-3.458C1054.15,4829.786,1030.236,4819.783,1029.093,4821.77Z"
                                transform="translate(-1026.962 -4796.624)" fill="#ffb2b0" />
                            <path
                                d="M1026.178,4820.542l1.128-1.09,5.891.939s-1.555,2.3-2.185,2.567S1026.178,4820.542,1026.178,4820.542Z"
                                transform="translate(-1025.635 -4795.627)" fill="#eaeaea" />
                            <path
                                d="M1025.717,4821.365l-.591,1.463,3.142,5.076s1.562-2.326,1.571-3.011S1025.717,4821.365,1025.717,4821.365Z"
                                transform="translate(-1025.126 -4796.553)" fill="#eaeaea" />
                        </g>
                    </g>
                </g>
            </g>
            <g transform="translate(255.251 4591.807)">
                <g transform="translate(0 0)">
                    <g transform="translate(0 6.788)">
                        <path d="M439.536,4706.937l-37.8,20.568,51.784-20.568Z"
                            transform="translate(-401.736 -4663.447)" fill="#fff" stroke="#231f20"
                            stroke-miterlimit="10" stroke-width="0.25" />
                        <rect width="128.628" height="58.489" rx="11.604" transform="translate(21.711)" fill="#fff"
                            stroke="#231f20" stroke-miterlimit="10" stroke-width="0.25" />
                    </g>
                </g>
            </g>
            <g transform="translate(173.909 4494.29)">
                <g transform="translate(-2 8.35)">
                    <path
                        d="M348.5,4558.891c6.082,8.973,1.224,18.648-11.884,22.414-13.924,4-32-.154-40.924-9.277-7.022,5-17.728,8.851-30,10.215-22.629,2.516-42.019-4.372-43.309-15.386a11.1,11.1,0,0,1,1.333-6.5c-19.136,4.194-30.382-.383-35.147-12.825-3.517-9.181,6.537-25.311,34.154-28.381,3.522-.391,6.972-.645,10.316-.771-.073-.3-1.06-2.032.371-5.041,6.224-13.083,28.141-15.127,51.016-12.4,19.262,2.292,28.88,10.729,33.341,18.367,0,0,54.751-14.572,64.581,15.626C382.346,4534.93,393.3,4561.551,348.5,4558.891Z"
                        transform="translate(-187.892 -4499.887)" fill="#fff" stroke="#ebebeb" stroke-miterlimit="10"
                        stroke-width="1" />
                    <circle cx="8.35" cy="8.35" r="8.35" transform="translate(35.763 71.946)" fill="#fff"
                        stroke="#ebebeb" stroke-miterlimit="10" stroke-width="1" />
                    <circle cx="4.948" cy="4.948" r="4.948" transform="translate(42.285 89.275)" fill="#fff"
                        stroke="#ebebeb" stroke-miterlimit="10" stroke-width="1" />
                    <circle cx="4.232" cy="4.232" r="4.232" transform="translate(50.839 99.366)" fill="#fff"
                        stroke="#ebebeb" stroke-miterlimit="10" stroke-width="1" />
                </g>
            </g>
            <g transform="translate(210.329 4598.595)">
                <g transform="translate(0 109.686)">
                    <path
                        d="M294.506,4911.91c7.118,15.138,18.237,29.868,21.314,37.145s5.339,18.494,16.334,44.7c.272.649,1.746-.439,1.746-.439-9.656-26.225-10.407-41.575-11.448-43.7s-8.1-39.448-9.277-52.37C306.437,4898.746,294.506,4911.91,294.506,4911.91Z"
                        transform="translate(-275.914 -4896.169)" fill="#2d356b" />
                    <path
                        d="M296.942,4895.234s-16.085-.2-20.276.044c-5.445,12.062,3.645,25.145-6.236,62.769-2.854,10.866-6.594,18.964-9.71,40.176l2.388.121c2.567-19.249,7.6-29.77,11.793-39.453C289.431,4925.327,297.828,4919.322,296.942,4895.234Z"
                        transform="translate(-259.562 -4895.156)" fill="#40558e" />
                    <path d="M266.786,5094.623l-8.312-.422s.675-2.262,2.323-2.064S266.786,5094.623,266.786,5094.623Z"
                        transform="translate(-258.474 -4990.489)" fill="#9898a4" />
                    <path d="M374.731,5083.48l-6.969,2.911s-.744-2.558.7-3.017S374.731,5083.48,374.731,5083.48Z"
                        transform="translate(-311.277 -4986.167)" fill="#9898a4" />
                    <path d="M311.717,4897.394l-19.1-.13.023,1.938,19.1.13Z" transform="translate(-275.002 -4896.176)"
                        fill="#cecfd7" />
                    <rect width="3.671" height="1.376" transform="translate(20.202 4.148) rotate(-89.619)"
                        fill="#40558d" />
                    <rect width="3.671" height="1.376" transform="translate(24.479 4.365) rotate(-89.62)"
                        fill="#40558d" />
                    <rect width="3.671" height="1.376" transform="translate(29.069 4.445) rotate(-89.62)"
                        fill="#40558d" />
                    <rect width="3.671" height="1.376" transform="matrix(0.007, -1, 1, 0.007, 33.827, 4.228)"
                        fill="#40558d" />
                </g>
                <g transform="translate(3.204)">
                    <g transform="translate(0 24.46)">
                        <path d="M316.693,4756.377l-1.024.378-.309,2.6,2.374.9Z"
                            transform="translate(-289.212 -4742.76)" fill="#eaeaea" />
                        <path d="M302.277,4733.4l-9.774-3.413-.119,15.657,13.974,3.792Z"
                            transform="translate(-278.091 -4729.988)" fill="#f7c371" />
                        <path d="M327.625,4824l-18.244,5.988-.524,27.563,16.27.409Z"
                            transform="translate(-286.064 -4775.491)" fill="#eaeaea" />
                        <path
                            d="M273.316,4837.625c11.691-.518,25.206-5.1,30.962-18.617,3.114-7.316,2.872-19.284,2.863-31.146-.011-15.857-18.041-36.33-32.039-31.393-19.455,6.865-6.153,32.34-3.731,39.081C278.468,4815.3,273.7,4833.194,273.316,4837.625Z"
                            transform="translate(-264.684 -4742.442)" fill="#40558e" />
                        <path
                            d="M295.941,4845.009c-.256-5.2-2.937-21.143-12.98-38.73-1.948-3.412-4.275-13.666-6.46-22.224-.816-3.195-6.2,3.08-6.874,10.973-.418,4.9,3.193,11.245,4.12,13.826,7.1,19.747,2.33,37.643,1.944,42.075C282.45,4850.628,289.815,4848.966,295.941,4845.009Z"
                            transform="translate(-267.06 -4755.745)" fill="#2d356b" />
                        <path
                            d="M314.825,4803.076c-1.82-20.419-18.327-39.956-32.693-45.13-2.413-.869-.347-2.716,6.46-2.348C294.682,4755.953,319.493,4767.144,314.825,4803.076Z"
                            transform="translate(-272.659 -4742.36)" fill="#2d356b" />
                        <path
                            d="M320.64,4789.757c-2.972-17.109-9.738-25.9-25.079-34.113,5.939.346,29.747,7.474,26.6,41.147C322.079,4797.649,321.154,4792.715,320.64,4789.757Z"
                            transform="translate(-279.629 -4742.405)" fill="#ebebeb" />
                        <path
                            d="M340.835,4867.918c.069-.722-.279-1.347-.778-1.4s-.96.5-1.03,1.221.278,1.348.777,1.4S340.765,4868.641,340.835,4867.918Z"
                            transform="translate(-300.662 -4796.07)" fill="#2d356b" />
                        <path
                            d="M342.441,4851.318c.069-.722-.279-1.347-.778-1.4s-.961.5-1.03,1.221.277,1.348.777,1.4S342.37,4852.041,342.441,4851.318Z"
                            transform="translate(-301.439 -4788.035)" fill="#2d356b" />
                        <path d="M312.792,4759.9l3.561,1.083-1.372-3.781-.681-.334Z"
                            transform="translate(-287.968 -4743)" fill="#ffac00" />
                        <path
                            d="M333.3,4802.523l-1.363-6.9s2.307-21.771-13.756-32.039l.17-.554C331.571,4771.888,336.09,4787.813,333.3,4802.523Z"
                            transform="translate(-290.577 -4745.98)" fill="#ffac00" />
                        <path d="M303.3,4753.4l-13.961-3.174-1.653,2.838L301,4757.9Z"
                            transform="translate(-275.815 -4739.783)" fill="#fff" />
                    </g>
                    <g transform="translate(4.392 44.891)">
                        <path
                            d="M280.708,4814.392c-3.122,1.767-10.837-41.328-5.907-44.636,0,0,10.831-2.871,20.832,14.734C295.633,4784.49,292.115,4807.94,280.708,4814.392Z"
                            transform="translate(-273.196 -4769.582)" fill="#40558e" />
                        <g transform="translate(46.098 42.127)">
                            <path
                                d="M362.534,4859.179c3.177.133,9.158,5.192,10.288,2.658,1.013-2.269-.716-7.413-10.076-5.114Z"
                                transform="translate(-362.534 -4853.605)" fill="#ffd9a4" />
                            <path
                                d="M372.049,4856.521c-2.042,3.893,2.709,6.364,4.385,6.8,1.843.475,4.2-2.058,4.033-3.563S372.832,4855.035,372.049,4856.521Z"
                                transform="translate(-366.897 -4853.603)" fill="#ffd9a4" />
                            <path
                                d="M378.512,4855.352c2.428-.9,4.769-3.107,4.192-3.913-.65-.912-2.306,1.36-4.683,1.641-2.574.31-4.175.64-4.11,1.639S376.081,4856.26,378.512,4855.352Z"
                                transform="translate(-368.04 -4851.225)" fill="#ffd9a4" />
                            <path
                                d="M386.146,4861.662c2.153.542,3.4.332,3.481-.256s-1.168-.821-3.317-1.366-4.75-1.771-4.829-1.183S384,4861.114,386.146,4861.662Z"
                                transform="translate(-371.704 -4854.843)" fill="#ffd9a4" />
                            <path
                                d="M385.824,4866.588c2.04.985,4.24.929,4.432.379s-1.9-1.005-3.935-1.989-3.414-1.512-3.6-.96S383.785,4865.6,385.824,4866.588Z"
                                transform="translate(-372.293 -4857.309)" fill="#ffd9a4" />
                            <path
                                d="M380.655,4869.208c2.076.9,3.439.933,3.615.378s-1.3-.889-3.379-1.788-3.543-1.5-3.719-.945S378.577,4868.308,380.655,4869.208Z"
                                transform="translate(-369.612 -4858.686)" fill="#ffd9a4" />
                        </g>
                        <path
                            d="M288.772,4823.586c13.378-4.183,14.391-26.72,14.391-26.72a8.217,8.217,0,0,0-1.015-1.712C300.349,4812.476,288.215,4823.759,288.772,4823.586Z"
                            transform="translate(-280.726 -4781.958)" fill="#7b88ac" />
                        <path d="M365.813,4858.814l-4.95.775.716-7.5,4.54,1.885Z"
                            transform="translate(-315.627 -4809.518)" fill="#eaeaea" />
                        <path
                            d="M286.768,4844.4s12.468,4.778,39.518,5.4c0,0,1.881-2.338.513-7.4,0,0-20.778-10.8-34.66-10.854C292.139,4831.554,284.173,4839.836,286.768,4844.4Z"
                            transform="translate(-279.513 -4799.577)" fill="#40558e" />
                        <path d="M356.333,4856.467a1.058,1.058,0,1,0-.912-1.366A1.175,1.175,0,0,0,356.333,4856.467Z"
                            transform="translate(-312.975 -4810.643)" fill="#2d356b" />
                    </g>
                    <g transform="translate(5.326)">
                        <path
                            d="M281.311,4708.665c-6.886-7.991-6.48-21.342-6.16-21.813,3.422-5.043,13.271-4.75,18.255-3.479,4.2,1.072,7.524,3.343,5.493,6.64-.7,1.139-4.063-1.361-5.078-1.212-1.917.282-2.7,26.726-2.7,26.726Z"
                            transform="translate(-275.005 -4682.583)" fill="#0080af" />
                        <g transform="translate(6.991 6.052)">
                            <g transform="translate(2.15)">
                                <path d="M322.914,4734.006l.96-1.689-1.357-.806Z"
                                    transform="translate(-307.142 -4712.317)" fill="#ffd8a3" />
                                <path
                                    d="M293.7,4717.531c.846,2.223,7.868,6.843,14.71,6.365.552-8.928-.141-23.625-1.863-26.093-1.694-2.428-8.3-4.07-9.085-3.3,2.468,2.8-1.155,12.429-2.535,13.339C291.565,4710.061,292.814,4715.213,293.7,4717.531Z"
                                    transform="translate(-292.72 -4694.313)" fill="#ffd8a3" />
                                <path
                                    d="M325.713,4725.65a63.137,63.137,0,0,1-3.559-7.433c-1.095-2.782-.5,7.527-.5,7.527S324.726,4726.373,325.713,4725.65Z"
                                    transform="translate(-306.647 -4705.652)" fill="#ffd8a3" />
                                <path
                                    d="M322.2,4749.5c.684-.311,1.012-.975.731-1.482a1.356,1.356,0,0,0-1.747-.357c-.685.311-1.012.975-.732,1.482A1.358,1.358,0,0,0,322.2,4749.5Z"
                                    transform="translate(-306.095 -4720.058)" fill="#ffd8a3" />
                                <path
                                    d="M323.551,4742.488c.019-.181-.187-.351-.461-.38s-.511.095-.53.275.187.35.46.379S323.532,4742.668,323.551,4742.488Z"
                                    transform="translate(-307.162 -4717.444)" fill="#ffd8a3" />
                            </g>
                            <path
                                d="M292.877,4719.283c-.422-1.613-1.7-2.729-2.858-2.491s-1.752,1.737-1.331,3.35,2.651,2.5,3.808,2.267S293.3,4720.9,292.877,4719.283Z"
                                transform="translate(-288.553 -4705.178)" fill="#ffd8a3" />
                        </g>
                        <path d="M321.561,4735.273l-.149,3.64s-1.017-.08-1.248-.529a12.747,12.747,0,0,1-.815-3.638Z"
                            transform="translate(-296.466 -4707.831)" fill="#ffab00" />
                        <path d="M321.793,4735.557l-.134,3.233s-.751-.049-.916-.25a9.063,9.063,0,0,1-.781-3.442Z"
                            transform="translate(-296.761 -4708)" fill="#fff" />
                        <path
                            d="M318,4713.322a.883.883,0,0,0-.239-.579c-.375-.375-3.431.646-3.378,1.287l.035.4c.039.462.944-.05,1.862-.2.877-.142,1.77.1,1.748-.336Z"
                            transform="translate(-294.064 -4697.142)" fill="#2d356b" />
                        <path
                            d="M318.106,4719.887c.005-.539-.287-1.007-.653-1.045s-.668.366-.673.905.286,1.006.653,1.044S318.1,4720.425,318.106,4719.887Z"
                            transform="translate(-295.224 -4700.132)" fill="#2d356b" />
                        <path
                            d="M319.2,4734.638c.013-.125-.047-.233-.136-.243s-.17.084-.183.21.047.233.135.243S319.183,4734.763,319.2,4734.638Z"
                            transform="translate(-296.239 -4707.661)" fill="#ffab00" />
                        <g transform="translate(9.584 1.469)">
                            <path
                                d="M298.239,4697.3c2.97.18-1.537,13.654-.021,14.6s.041,2.063-.754,1.771c-1.82-.671-2.175-4.461-2.325-6.876C294.972,4704.113,297.988,4697.288,298.239,4697.3Z"
                                transform="translate(-294.331 -4691.177)" fill="#0080af" />
                            <path
                                d="M308.485,4690.748c.455-2.146-1.334-4.342-4-4.908s-10.432-.862-10.887,1.281,6.574,5.919,9.238,6.484S308.03,4692.891,308.485,4690.748Z"
                                transform="translate(-293.58 -4685.43)" fill="#0080af" />
                        </g>
                    </g>
                </g>
            </g>
            <g transform="translate(159.525 4489.743)">
                <rect width="51.798" height="30.558" transform="translate(51.798 30.558) rotate(-180)" fill="#ebebeb" />
            </g><text transform="translate(169.255 4513.324)" fill="#2d356b" font-size="27"
                font-family="TrebuchetMS-Bold, Trebuchet MS" font-weight="700">
                <tspan x="0" y="0">A</tspan>
            </text>
            <g transform="translate(646.331 4489.82)">
                <rect width="51.798" height="30.558" transform="translate(51.798 30.558) rotate(-180)" fill="#ebebeb" />
            </g><text transform="translate(656.061 4513.401)" fill="#2d356b" font-size="27"
                font-family="TrebuchetMS-Bold, Trebuchet MS" font-weight="700">
                <tspan x="0" y="0">B</tspan>
            </text>
            <g transform="translate(65.018 421.796)">
                <rect width="51.497" height="22.137" rx="6.672" transform="translate(138.737 4247.197)" fill="#fff"
                    stroke="#231f20" stroke-miterlimit="10" stroke-width="0.25" /><text
                    transform="translate(146.986 4261.766)" fill="#2d356b" font-size="10"
                    font-family="TrebuchetMS-Bold, Trebuchet MS" font-weight="700">
                    <tspan x="0" y="0">Takeshi</tspan>
                </text>
            </g>
            <g transform="translate(447.151 421.796)">
                <rect width="51.497" height="22.137" rx="6.672" transform="translate(138.737 4247.197)" fill="#fff"
                    stroke="#231f20" stroke-miterlimit="10" stroke-width="0.25" /><text
                    transform="translate(152.985 4261.766)" fill="#2d356b" font-size="10"
                    font-family="TrebuchetMS-Bold, Trebuchet MS" font-weight="700">
                    <tspan x="0" y="0">Kelly</tspan>
                </text>
            </g>
            <g transform="translate(447.151 421.796)">
                <rect width="51.497" height="22.137" rx="6.672" transform="translate(138.737 4247.197)" fill="#fff"
                    stroke="#231f20" stroke-miterlimit="10" stroke-width="0.25" /><text
                    transform="translate(152.985 4261.766)" fill="#2d356b" font-size="10"
                    font-family="TrebuchetMS-Bold, Trebuchet MS" font-weight="700">
                    <tspan x="0" y="0">Kelly</tspan>
                </text>
            </g>
        </g>
        <g transform="translate(295 5705)">
            <circle cx="18" cy="18" r="18" fill="#1287cd" /><text transform="translate(3 1)" fill="#fff" font-size="24"
                font-family="NotoSans-Bold, Noto Sans, Arial, sans-serif" font-weight="700">
                <tspan x="8.136" y="26">1</tspan>
            </text>
        </g>
    </g>
</svg>