<svg xmlns="http://www.w3.org/2000/svg" width="540" height="402.47" viewBox="0 0 540 402.47"><g transform="translate(-32 -2566)"><g transform="translate(32 2583.802)"><g transform="translate(0.436)"><g transform="translate(0.1)"><path d="M861.828,1666.242h.639v-13.5H323v282.035H861.822v-28.33h.005Z" transform="translate(-323.003 -1652.353)" fill="#fff"/><rect width="538.928" height="0.789" transform="translate(0 282.035)" fill="#a0bacb"/><rect width="539.464" height="0.789" fill="#7b88ac"/></g><g transform="translate(217.967 57.629)"><path d="M644.219,1737.619v-.206h-6.406v.206h-66.22v171.949h135.99V1737.619Zm57.734,5.522v37.81H644.219v-37.81Zm-64.14,44.335v72.237H577.223v-72.237Zm6.406,72.237v-72.237h57.734v72.237Zm-6.406-116.572v37.81H577.223v-37.81Zm-60.589,123.1h60.589v37.811H577.223Zm67,37.811v-37.811h57.734v37.811Z" transform="translate(-571.191 -1737.018)" fill="#ebebeb"/><path d="M707.8,1909.778H571V1737.04h66.22v-.207h7.211v.207H707.8Zm-135.99-.789H706.992v-171.16H643.628v-.207h-5.6v.207h-66.22Zm130.36-4.733H643.628v-38.6h58.538Zm-57.734-.789h56.929v-37.021H644.433Zm-6.406.789H576.632v-38.6h61.394Zm-60.589-.789h59.785v-37.021H577.437Zm124.729-43.546H643.628V1786.9h58.538Zm-57.734-.789h56.929v-71.447H644.433Zm-6.406.789H576.632V1786.9h61.394Zm-60.589-.789h59.785v-71.447H577.437Zm124.729-77.972H643.628v-38.6h58.538Zm-57.734-.789h56.929V1743.35H644.433Zm-6.406.789H576.632v-38.6h61.394Zm-60.589-.789h59.785V1743.35H577.437Z" transform="translate(-571.002 -1736.833)" fill="#ebebeb"/></g><g transform="translate(0 57.629)"><path d="M396.073,1737.619v-.206h-6.406v.206h-66.22v171.949h135.99V1737.619Zm57.734,5.522v37.81H396.073v-37.81Zm-64.14,44.335v72.237H329.077v-72.237Zm6.406,72.237v-72.237h57.734v72.237Zm-6.406-116.572v37.81H329.077v-37.81Zm-60.589,123.1h60.589v37.811H329.077Zm67,37.811v-37.811h57.734v37.811Z" transform="translate(-323.045 -1737.018)" fill="#ebebeb"/><path d="M459.65,1909.778H322.856V1737.04h66.22v-.207h7.21v.207H459.65Zm-135.99-.789H458.846v-171.16H395.482v-.207h-5.6v.207h-66.22Zm130.36-4.733H395.482v-38.6H454.02Zm-57.734-.789h56.93v-37.021h-56.93Zm-6.406.789H328.486v-38.6H389.88Zm-60.59-.789h59.785v-37.021H329.29Zm124.73-43.546H395.482V1786.9H454.02Zm-57.734-.789h56.93v-71.447h-56.93Zm-6.406.789H328.486V1786.9H389.88Zm-60.59-.789h59.785v-71.447H329.29Zm124.73-77.972H395.482v-38.6H454.02Zm-57.734-.789h56.93V1743.35h-56.93Zm-6.406.789H328.486v-38.6H389.88Zm-60.59-.789h59.785V1743.35H329.29Z" transform="translate(-322.856 -1736.833)" fill="#ebebeb"/></g><g transform="translate(431.688 57.629)"><path d="M931.409,1904.047H897.092v-37.811h34.317v-6.524H897.092v-72.237h34.317v-6.525H897.092v-37.81h34.317v-5.522H897.092v-.206h-6.406v.206h-66.22v171.949H931.409Zm-40.723,0H830.1v-37.811h60.589Zm0-44.335H830.1v-72.237h60.589Zm0-78.762H830.1v-37.81h60.589Z" transform="translate(-824.064 -1737.018)" fill="#ebebeb"/><path d="M930.574,1964.7h34.719v-.789H931.378v-37.022h33.915v-.789H930.574Z" transform="translate(-857.948 -1797.272)" fill="#ebebeb"/><path d="M930.574,1883.409h34.719v-.789H931.378v-71.447h33.915v-.789H930.574Z" transform="translate(-857.948 -1760.321)" fill="#ebebeb"/><path d="M930.574,1783.848h34.719v-.789H931.378v-37.022h33.915v-.789H930.574Z" transform="translate(-857.948 -1739.52)" fill="#ebebeb"/><path d="M893.541,1745.248H832.147v38.6h61.394Zm-.8,37.811H832.952v-37.022h59.785Z" transform="translate(-826.517 -1739.52)" fill="#ebebeb"/><path d="M931.22,1908.989H824.68v-171.16H890.9v-.207h5.6v.207H931.22v-.789H897.305v-.207h-7.211v.207H823.876v172.738H931.22Z" transform="translate(-823.876 -1736.833)" fill="#ebebeb"/><path d="M832.147,1964.695h61.394v-38.6H832.147Zm.8-37.81h59.785v37.021H832.952Z" transform="translate(-826.517 -1797.272)" fill="#ebebeb"/><path d="M893.541,1810.384H832.147v73.025h61.394Zm-.8,72.236H832.952v-71.447h59.785Z" transform="translate(-826.517 -1760.321)" fill="#ebebeb"/></g></g><g transform="translate(377.509 128.48)"><ellipse cx="13.398" cy="13.138" rx="13.398" ry="13.138" fill="#fff4ba"/><g transform="translate(0.735 0.721)"><path d="M792.6,1866.818a12.42,12.42,0,1,1,12.662-12.417A12.556,12.556,0,0,1,792.6,1866.818Zm0-24.354a11.939,11.939,0,1,0,12.172,11.936A12.07,12.07,0,0,0,792.6,1842.464Z" transform="translate(-779.936 -1841.983)" fill="#fff4ba"/></g><g transform="translate(13.152 4.005)"><path d="M805.613,1856.182h-7.189a.243.243,0,0,1-.245-.24v-8.892a.245.245,0,0,1,.49,0v8.652h6.944a.24.24,0,1,1,0,.48Z" transform="translate(-798.179 -1846.809)" fill="#fff4ba"/></g><g transform="translate(13.152 1.482)"><path d="M798.424,1844.844a.243.243,0,0,1-.245-.24v-1.261a.245.245,0,0,1,.49,0v1.261A.243.243,0,0,1,798.424,1844.844Z" transform="translate(-798.179 -1843.102)" fill="#fff4ba"/><g transform="translate(0 21.329)"><path d="M798.424,1876.179a.243.243,0,0,1-.245-.24v-1.262a.245.245,0,0,1,.49,0v1.262A.243.243,0,0,1,798.424,1876.179Z" transform="translate(-798.179 -1874.437)" fill="#fff4ba"/></g></g><g transform="translate(1.633 12.777)"><g transform="translate(21.751)"><path d="M814.743,1860.177h-1.287a.241.241,0,1,1,0-.481h1.287a.241.241,0,1,1,0,.481Z" transform="translate(-813.212 -1859.696)" fill="#fff4ba"/></g><path d="M782.788,1860.177H781.5a.241.241,0,1,1,0-.481h1.286a.241.241,0,1,1,0,.481Z" transform="translate(-781.256 -1859.696)" fill="#fff4ba"/></g><g transform="translate(3.125 3.244)"><g transform="translate(0 3.974)"><g transform="translate(18.934)"><path d="M811.511,1852.631a.246.246,0,0,1-.214-.122.237.237,0,0,1,.093-.327l1.12-.621a.248.248,0,0,1,.334.091.238.238,0,0,1-.093.328l-1.12.621A.248.248,0,0,1,811.511,1852.631Z" transform="translate(-811.265 -1851.529)" fill="#fff4ba"/></g><g transform="translate(0 10.497)"><path d="M783.693,1868.053a.246.246,0,0,1-.213-.122.237.237,0,0,1,.093-.327l1.12-.621a.248.248,0,0,1,.334.091.238.238,0,0,1-.093.328l-1.12.621A.247.247,0,0,1,783.693,1868.053Z" transform="translate(-783.448 -1866.951)" fill="#fff4ba"/></g></g><g transform="translate(3.85)"><g transform="translate(11.665)"><path d="M806.486,1847.236a.251.251,0,0,1-.131-.037.238.238,0,0,1-.076-.332l.69-1.065a.248.248,0,0,1,.338-.074.238.238,0,0,1,.076.332l-.69,1.065A.246.246,0,0,1,806.486,1847.236Z" transform="translate(-806.241 -1845.69)" fill="#fff4ba"/></g><g transform="translate(0 18.003)"><path d="M789.348,1873.684a.251.251,0,0,1-.131-.038.238.238,0,0,1-.075-.332l.69-1.064a.249.249,0,0,1,.339-.073.237.237,0,0,1,.075.332l-.69,1.064A.247.247,0,0,1,789.348,1873.684Z" transform="translate(-789.104 -1872.139)" fill="#fff4ba"/></g></g></g><g transform="translate(3.431 2.945)"><g transform="translate(4.053)"><g transform="translate(10.705 18.567)"><path d="M806.456,1874.108a.245.245,0,0,1-.213-.123l-.634-1.1a.238.238,0,0,1,.093-.327.247.247,0,0,1,.334.091l.633,1.1a.237.237,0,0,1-.093.327A.243.243,0,0,1,806.456,1874.108Z" transform="translate(-805.577 -1872.529)" fill="#fff4ba"/></g><path d="M790.729,1846.829a.247.247,0,0,1-.214-.122l-.633-1.1a.238.238,0,0,1,.093-.328.248.248,0,0,1,.333.091l.634,1.1a.239.239,0,0,1-.093.327A.247.247,0,0,1,790.729,1846.829Z" transform="translate(-789.85 -1845.251)" fill="#fff4ba"/></g><g transform="translate(0 3.775)"><g transform="translate(18.358 11.439)"><path d="M812.2,1868.76a.25.25,0,0,1-.131-.037l-1.086-.677a.238.238,0,0,1-.076-.332.249.249,0,0,1,.338-.073l1.086.677a.237.237,0,0,1,.075.332A.245.245,0,0,1,812.2,1868.76Z" transform="translate(-810.867 -1867.603)" fill="#fff4ba"/></g><path d="M785.227,1851.954a.25.25,0,0,1-.131-.037l-1.086-.677a.239.239,0,0,1-.076-.332.249.249,0,0,1,.339-.073l1.086.677a.237.237,0,0,1,.076.332A.246.246,0,0,1,785.227,1851.954Z" transform="translate(-783.896 -1850.797)" fill="#fff4ba"/></g></g></g><g transform="translate(0 248.475)"><path d="M861.679,2017.709H322.86v96.767h-.645v39.09H861.674V2021.832h.005Z" transform="translate(-322.215 -2017.374)" fill="#f9f9f9"/><rect width="537.994" height="0.565" transform="translate(1.603 135.414)" fill="#f9f9f9"/><rect width="538.932" height="0.565" transform="translate(0.536)" fill="#f9f9f9"/></g><g transform="translate(27.213 4.973)"><path d="M777.729,1743.852v-84.379H776.01v84.379a10.432,10.432,0,1,0,1.719,0Z" transform="translate(-421.035 -1659.473)" fill="#fff4ba"/><path d="M373.485,1753.643v-84.379h-1.719v84.379a10.432,10.432,0,1,0,1.719,0Z" transform="translate(-362.196 -1662.599)" fill="#fff4ba"/><path d="M514.223,1740.456V1679.11h-1.249v61.346a7.584,7.584,0,1,0,1.249,0Z" transform="translate(-383.524 -1665.744)" fill="#fff4ba"/><path d="M900.459,1740.456V1679.11H899.21v61.346a7.584,7.584,0,1,0,1.249,0Z" transform="translate(-440.8 -1665.744)" fill="#fff4ba"/><path d="M637.115,1730.364v-61.345h-1.249v61.345a7.585,7.585,0,1,0,1.249,0Z" transform="translate(-401.748 -1662.521)" fill="#fff4ba"/></g><g transform="translate(15.175 121.979)"><g transform="translate(0 23.665)"><rect width="44.133" height="1.855" transform="translate(0.402 0.395)" fill="#ebebeb"/><path d="M389.446,1868.784H344.509v-2.644h44.937Zm-44.132-.789h43.328v-1.066H345.314Z" transform="translate(-344.509 -1866.14)" fill="#ebebeb"/><g transform="translate(0 27.976)"><rect width="44.133" height="1.855" transform="translate(0.402 0.394)" fill="#ebebeb"/><path d="M389.446,1909.885H344.509v-2.644h44.937Zm-44.132-.789h43.328v-1.066H345.314Z" transform="translate(-344.509 -1907.241)" fill="#ebebeb"/></g><g transform="translate(0 55.952)"><rect width="44.133" height="1.855" transform="translate(0.402 0.394)" fill="#ebebeb"/><path d="M389.446,1950.986H344.509v-2.644h44.937Zm-44.132-.789h43.328v-1.066H345.314Z" transform="translate(-344.509 -1948.342)" fill="#ebebeb"/></g><g transform="translate(0 0.619)"><g transform="translate(0 83.927)"><rect width="44.133" height="1.855" transform="translate(0.402 0.394)" fill="#ebebeb"/><path d="M389.446,1992.995H344.509v-2.644h44.937Zm-44.132-.789h43.328v-1.066H345.314Z" transform="translate(-344.509 -1990.351)" fill="#ebebeb"/></g><g transform="translate(0 110.703)"><rect width="44.133" height="1.855" transform="translate(0.402 0.394)" fill="#ebebeb"/><path d="M389.446,2032.332H344.509v-2.643h44.937Zm-44.132-.788h43.328v-1.066H345.314Z" transform="translate(-344.509 -2029.689)" fill="#ebebeb"/></g><rect width="2.364" height="134.579" transform="translate(0.402 0.394)" fill="#ebebeb"/><path d="M347.677,2002.417h-3.168V1867.049h3.168Zm-2.364-.789h1.559V1867.837h-1.559Z" transform="translate(-344.509 -1867.049)" fill="#ebebeb"/><g transform="translate(41.768)"><rect width="2.364" height="134.579" transform="translate(0.402 0.394)" fill="#ebebeb"/><path d="M409.042,2002.417h-3.169V1867.049h3.169Zm-2.364-.789h1.56V1867.837h-1.56Z" transform="translate(-405.873 -1867.049)" fill="#ebebeb"/></g></g></g><g transform="translate(7.911 30.26)"><rect width="4.623" height="21.381" transform="translate(0.402 0.394)" fill="#ebebeb"/><path d="M361.559,1898h-5.428v-22.17h5.428Zm-4.623-.789h3.819v-20.593h-3.819Z" transform="translate(-356.131 -1875.829)" fill="#ebebeb"/><path d="M360.927,1882.9a1.524,1.524,0,1,1-1.523-1.494A1.509,1.509,0,0,1,360.927,1882.9Z" transform="translate(-356.69 -1877.609)" fill="#ebebeb"/><g transform="translate(5.434)"><rect width="4.623" height="21.381" transform="translate(0.402 0.394)" fill="#ebebeb"/><path d="M369.543,1898h-5.428v-22.17h5.428Zm-4.624-.789h3.819v-20.593h-3.819Z" transform="translate(-364.115 -1875.829)" fill="#ebebeb"/><path d="M368.911,1882.9a1.524,1.524,0,1,1-1.523-1.494A1.509,1.509,0,0,1,368.911,1882.9Z" transform="translate(-364.674 -1877.609)" fill="#ebebeb"/></g><g transform="translate(10.869)"><rect width="4.623" height="21.381" transform="translate(0.402 0.394)" fill="#ebebeb"/><path d="M377.527,1898H372.1v-22.17h5.428Zm-4.624-.789h3.819v-20.593H372.9Z" transform="translate(-372.099 -1875.829)" fill="#ebebeb"/><path d="M376.894,1882.9a1.524,1.524,0,1,1-1.523-1.494A1.509,1.509,0,0,1,376.894,1882.9Z" transform="translate(-372.657 -1877.609)" fill="#ebebeb"/></g><g transform="translate(16.303)"><rect width="4.623" height="21.381" transform="translate(0.402 0.394)" fill="#ebebeb"/><path d="M385.511,1898h-5.428v-22.17h5.428Zm-4.624-.789h3.819v-20.593h-3.819Z" transform="translate(-380.083 -1875.829)" fill="#ebebeb"/><path d="M384.878,1882.9a1.524,1.524,0,1,1-1.523-1.494A1.509,1.509,0,0,1,384.878,1882.9Z" transform="translate(-380.641 -1877.609)" fill="#ebebeb"/></g><g transform="translate(21.738)"><rect width="4.623" height="21.381" transform="translate(0.402 0.394)" fill="#ebebeb"/><path d="M393.495,1898h-5.428v-22.17h5.428Zm-4.624-.789h3.819v-20.593h-3.819Z" transform="translate(-388.067 -1875.829)" fill="#ebebeb"/><path d="M392.862,1882.9a1.524,1.524,0,1,1-1.523-1.494A1.509,1.509,0,0,1,392.862,1882.9Z" transform="translate(-388.625 -1877.609)" fill="#ebebeb"/></g></g><path d="M360.068,1969.14a10.139,10.139,0,0,1,.719-3.929h-5.542a10.14,10.14,0,0,1,.719,3.929c0,2.377-2.428,6.766-2.428,9.692s2.574,3.885,4.479,3.885,4.479-.96,4.479-3.885S360.068,1971.517,360.068,1969.14Z" transform="translate(-347.392 -1874.113)" fill="#ebebeb"/><g transform="translate(23.522 60.825)"><g transform="translate(0.686)"><path d="M389.645,1931.355c1.495-3.439-1.828-3.376-1.575-4.279.476-1.694,2.267.147,2.993-.706s-1.793-3.513-.473-4.435.857,2.2,2,1.975.461-3.515,1.806-3.147c1.011.277-.19,2.336-.079,3.3s2.2-.44,2.232.933-2.486.772-2.783,1.815,2.712,1.26,1.657,2.143-3.044-.174-3.568.744S389.01,1932.816,389.645,1931.355Z" transform="translate(-382.624 -1920.734)" fill="#ebebeb"/><path d="M386.176,1935.608c-1.4-3.476-3.721-1.139-4.189-1.956-.878-1.532,1.716-1.459,1.621-2.567s-3.794-1.26-3.518-2.825,2.185.969,2.836.026-2.193-2.817-.973-3.483c.917-.5,1.54,1.792,2.309,2.4s1.245-1.827,2.255-.876-1.213,2.263-.675,3.21,2.831-.975,2.714.38-2.288,1.976-2,2.99S386.772,1937.083,386.176,1935.608Z" transform="translate(-380.075 -1922.011)" fill="#ebebeb"/></g><path d="M389.43,1933.631h-7.67s-2.693,2.267-2.693,4.946,1.679,5.461,6.528,5.461,6.528-2.782,6.528-5.461S389.43,1933.631,389.43,1933.631Z" transform="translate(-379.067 -1924.852)" fill="#ebebeb"/></g><g transform="translate(25.404 96.394)"><rect width="7.079" height="9.428" transform="translate(2.19 2.782)" fill="#ebebeb"/><ellipse cx="5.587" cy="2.782" rx="5.587" ry="2.782" fill="#ebebeb"/></g><g transform="translate(20.474 15.006)"><rect width="5.249" height="6.99" transform="translate(1.624 2.063)" fill="#ebebeb"/><path d="M382.873,1855.482c0,1.139-1.855,2.063-4.143,2.063s-4.142-.924-4.142-2.062,1.854-2.063,4.142-2.063S382.873,1854.343,382.873,1855.482Z" transform="translate(-374.588 -1853.419)" fill="#ebebeb"/></g><g transform="translate(2.924)"><path d="M362.273,1849.2s-1.816-6.182,6.223-13.138c0,0-6.882,7.419-4.623,13.138Z" transform="translate(-353.05 -1832.871)" fill="#ebebeb"/><path d="M361.4,1849.108s-4.164-6.887,3.292-17.735c0,0-5.916,11.051-1.367,17.243Z" transform="translate(-352.458 -1831.373)" fill="#ebebeb"/><path d="M356.971,1849.2s1.816-6.182-6.223-13.138c0,0,6.882,7.419,4.623,13.138Z" transform="translate(-349.425 -1832.871)" fill="#ebebeb"/><path d="M358.9,1848.183s3.345-5.535-2.648-14.251c0,0,4.756,8.879,1.1,13.856Z" transform="translate(-351.182 -1832.19)" fill="#ebebeb"/><path d="M361.866,1853.342s-1.57-6.246,6.739-12.89c0,0-7.171,7.151-5.14,12.952Z" transform="translate(-352.938 -1834.272)" fill="#ebebeb"/><path d="M355.543,1852.229s1.57-6.247-6.738-12.891c0,0,7.171,7.151,5.14,12.952Z" transform="translate(-348.805 -1833.917)" fill="#ebebeb"/><path d="M357.568,1852.187h-5.434l2.494,9.892h5.881l2.494-9.892Z" transform="translate(-349.868 -1838.02)" fill="#ebebeb"/></g><g transform="translate(4.217 72.282)"><g transform="translate(0.402 5.234)"><rect width="2.612" height="16.634" transform="translate(0 2.612) rotate(-90)" fill="#ebebeb"/></g><g transform="translate(0 2.217)"><rect width="2.612" height="16.634" transform="translate(0.402 3.006) rotate(-90)" fill="#ebebeb"/><path d="M368.143,1944.224H350.7v-3.4h17.438Zm-16.634-.788h15.829v-1.823H351.509Z" transform="translate(-350.705 -1940.824)" fill="#ebebeb"/></g><g transform="translate(0.402)"><rect width="2.612" height="16.634" transform="translate(0 2.612) rotate(-90)" fill="#ebebeb"/></g><g transform="translate(10.198 0)"><rect width="0.12" height="2.612" fill="#ebebeb"/></g><g transform="translate(11.538 0)"><rect width="0.12" height="2.612" fill="#ebebeb"/></g><g transform="translate(12.878 0)"><rect width="0.12" height="2.612" fill="#ebebeb"/></g><g transform="translate(14.217 0)"><rect width="0.119" height="2.612" fill="#ebebeb"/></g><rect width="7.828" height="0.43" transform="translate(8.393 5.679)" fill="#ebebeb"/><rect width="7.828" height="0.43" transform="translate(8.393 6.324)" fill="#ebebeb"/><rect width="7.828" height="0.43" transform="translate(8.393 6.97)" fill="#ebebeb"/></g></g><g transform="translate(246.105 181.012)"><path d="M752.5,2085.484H606.062a4.2,4.2,0,0,1-4.037-5.366h0a4.2,4.2,0,0,1,4.037-3.036H752.5a4.2,4.2,0,0,1,4.037,3.036h0A4.2,4.2,0,0,1,752.5,2085.484Z" transform="translate(-598.852 -1968.87)" fill="#ebebeb" opacity="0.32"/><g transform="translate(0 37.229)"><rect width="2.832" height="70.587" transform="translate(1.689 0.395)" fill="#ebebeb"/><rect width="2.832" height="70.587" transform="translate(155.538 0.395)" fill="#ebebeb"/><path d="M757.5,1980.317H598.142l1.212-6.939H756.018Z" transform="translate(-597.665 -1972.983)" fill="#ebebeb"/><path d="M757.774,1980.526H597.442l1.349-7.728h157.33Zm-159.379-.788H756.784l-1.316-6.15h-156Z" transform="translate(-597.442 -1972.798)" fill="#ebebeb"/><g transform="translate(0.074 6.939)"><path d="M757.23,1983.572H598.142v72.448h2.63v-67.693h154.1v67.693h2.63v-72.448Z" transform="translate(-597.74 -1983.178)" fill="#ebebeb"/><path d="M757.716,2056.229H754.28v-67.693H600.986v67.693h-3.435v-73.236H757.716Zm-2.631-.788h1.826v-71.659H598.356v71.659h1.826v-67.693h154.9Z" transform="translate(-597.551 -1982.993)" fill="#ebebeb"/></g></g><g transform="translate(40.858)"><path d="M709.852,1921.021v25.947a3.055,3.055,0,0,1-3.158,2.919H660.627a3.055,3.055,0,0,1-3.158-2.919v-25.947a3.059,3.059,0,0,1,3.158-2.919h46.067A3.059,3.059,0,0,1,709.852,1921.021Z" transform="translate(-657.469 -1918.102)" fill="#ebebeb"/><path d="M661.124,1949.371a2.033,2.033,0,0,1-2.105-1.946v-25.947a2.033,2.033,0,0,1,2.105-1.946h46.064a2.032,2.032,0,0,1,2.105,1.946v25.947a2.032,2.032,0,0,1-2.105,1.946Z" transform="translate(-657.964 -1918.559)" fill="#ebebeb"/><g transform="translate(1.706 1.552)"><path d="M661.618,1948.854a1.016,1.016,0,0,1-1.052-.973v-25.947a1.016,1.016,0,0,1,1.052-.973h46.064a1.016,1.016,0,0,1,1.052.973v25.947a1.016,1.016,0,0,1-1.052.973Z" transform="translate(-660.164 -1920.567)" fill="#ebebeb"/><path d="M707.493,1949.064H661.43a1.415,1.415,0,0,1-1.455-1.367v-25.947a1.415,1.415,0,0,1,1.455-1.367h46.063a1.415,1.415,0,0,1,1.455,1.367V1947.7A1.415,1.415,0,0,1,707.493,1949.064Zm-46.063-27.893a.619.619,0,0,0-.651.578V1947.7a.619.619,0,0,0,.651.579h46.063a.619.619,0,0,0,.651-.579v-25.947a.618.618,0,0,0-.651-.578Z" transform="translate(-659.975 -1920.382)" fill="#ebebeb"/></g><path d="M699.227,1958.215H686.874l1.394-14.032h9.565Z" transform="translate(-666.859 -1926.43)" fill="#ebebeb"/><g transform="translate(19.967 16.613)"><path d="M699.024,1965.893H687.442l1.818-22.806h7.945Z" transform="translate(-687.007 -1942.694)" fill="#ebebeb"/><path d="M699.254,1966.1H686.8l1.881-23.594h8.689l.028.364Zm-11.581-.788h10.712l-1.755-22.017h-7.2Z" transform="translate(-686.803 -1942.509)" fill="#ebebeb"/></g><g transform="translate(12.102 38.445)"><path d="M703.215,1978.65H675.841a3.638,3.638,0,0,1,3.773-3.487h19.829a3.638,3.638,0,0,1,3.772,3.487Z" transform="translate(-675.438 -1974.769)" fill="#ebebeb"/><path d="M703.428,1978.859H675.249v-.394a4.041,4.041,0,0,1,4.176-3.881h19.829a4.04,4.04,0,0,1,4.174,3.881Zm-27.347-.788H702.6a3.29,3.29,0,0,0-3.343-2.7H679.425A3.289,3.289,0,0,0,676.081,1978.071Z" transform="translate(-675.249 -1974.584)" fill="#ebebeb"/></g></g></g><g transform="translate(0.838 182.579)"><path d="M474.365,2083.318H331.838a4.089,4.089,0,0,1-3.929-5.223h0a4.088,4.088,0,0,1,3.929-2.955H474.365a4.089,4.089,0,0,1,3.929,2.955h0A4.089,4.089,0,0,1,474.365,2083.318Z" transform="translate(-324.82 -1969.817)" fill="#ebebeb" opacity="0.32"/><g transform="translate(0 36.236)"><rect width="2.757" height="68.703" transform="translate(1.644 0.384)" fill="#ebebeb"/><rect width="2.757" height="68.703" transform="translate(151.387 0.384)" fill="#ebebeb"/><path d="M479.236,1980.958H324.129l1.18-6.754H477.791Z" transform="translate(-323.665 -1973.82)" fill="#ebebeb"/><path d="M479.5,1981.161H323.447l1.314-7.521h153.13Zm-155.124-.767H478.536l-1.28-5.986H325.421Z" transform="translate(-323.447 -1973.64)" fill="#ebebeb"/><g transform="translate(0.073 6.754)"><path d="M478.971,1984.127H324.129v70.514h2.56v-65.886H476.676v65.886h2.56v-70.514Z" transform="translate(-323.738 -1983.743)" fill="#ebebeb"/><path d="M479.443,2054.844H476.1v-65.885H326.9v65.885h-3.343v-71.281H479.443Zm-2.56-.767h1.777V1984.33H324.337v69.747h1.777v-65.886h150.77Z" transform="translate(-323.554 -1983.563)" fill="#ebebeb"/></g></g><g transform="translate(106.309)"><path d="M530.616,1923.244V1948.5a2.972,2.972,0,0,1-3.073,2.84H482.706a2.973,2.973,0,0,1-3.074-2.84v-25.255a2.977,2.977,0,0,1,3.074-2.84h44.837A2.977,2.977,0,0,1,530.616,1923.244Z" transform="translate(-479.632 -1920.404)" fill="#ebebeb"/><path d="M483.189,1950.838a1.979,1.979,0,0,1-2.049-1.894v-25.255a1.978,1.978,0,0,1,2.049-1.894h44.834a1.978,1.978,0,0,1,2.049,1.894v25.255a1.978,1.978,0,0,1-2.049,1.894Z" transform="translate(-480.114 -1920.848)" fill="#ebebeb"/><g transform="translate(1.66 1.51)"><path d="M483.67,1950.335a.989.989,0,0,1-1.024-.947v-25.255a.989.989,0,0,1,1.024-.947H528.5a.989.989,0,0,1,1.025.947v25.255a.989.989,0,0,1-1.025.947Z" transform="translate(-482.255 -1922.803)" fill="#ebebeb"/><path d="M528.321,1950.539H483.487a1.377,1.377,0,0,1-1.416-1.331v-25.254a1.377,1.377,0,0,1,1.416-1.331h44.834a1.377,1.377,0,0,1,1.416,1.331v25.254A1.377,1.377,0,0,1,528.321,1950.539Zm-44.834-27.148a.6.6,0,0,0-.633.564v25.254a.6.6,0,0,0,.633.563h44.834a.6.6,0,0,0,.634-.563v-25.254a.6.6,0,0,0-.634-.564Z" transform="translate(-482.071 -1922.623)" fill="#ebebeb"/></g><path d="M520.275,1959.446H508.252l1.357-13.658h9.31Z" transform="translate(-488.771 -1928.51)" fill="#ebebeb"/><g transform="translate(19.434 16.169)"><path d="M520.077,1966.92H508.8l1.77-22.2h7.733Z" transform="translate(-508.382 -1944.339)" fill="#ebebeb"/><path d="M520.3,1967.124H508.183l1.831-22.965h8.457Zm-11.272-.768h10.426l-1.708-21.429h-7.009Z" transform="translate(-508.183 -1944.159)" fill="#ebebeb"/></g><g transform="translate(11.78 37.419)"><path d="M524.157,1979.336H497.513a3.542,3.542,0,0,1,3.672-3.394h19.3a3.541,3.541,0,0,1,3.672,3.394Z" transform="translate(-497.122 -1975.559)" fill="#ebebeb"/><path d="M524.365,1979.54H496.938v-.384a3.933,3.933,0,0,1,4.064-3.777h19.3a3.933,3.933,0,0,1,4.064,3.777Zm-26.618-.768h25.809a3.2,3.2,0,0,0-3.255-2.626H501A3.2,3.2,0,0,0,497.747,1978.772Z" transform="translate(-496.938 -1975.379)" fill="#ebebeb"/></g></g></g><g transform="translate(454.241 117.196)"><g transform="translate(58.157)"><g transform="translate(0 0.032)"><rect width="10.329" height="2.511" transform="translate(0.402 0.394)" fill="#ebebeb"/><path d="M952.944,1827.694H941.81v-3.3h11.134Zm-10.329-.788h9.525v-1.723h-9.525Z" transform="translate(-941.81 -1824.394)" fill="#ebebeb"/></g><g transform="translate(0 65.342)"><rect width="10.329" height="2.511" transform="translate(0.402 0.395)" fill="#ebebeb"/><path d="M952.944,1923.644H941.81v-3.3h11.134Zm-10.329-.788h9.525v-1.723h-9.525Z" transform="translate(-941.81 -1920.344)" fill="#ebebeb"/></g><g transform="translate(0 32.289)"><rect width="10.329" height="2.511" transform="translate(0.402 0.394)" fill="#ebebeb"/><path d="M952.944,1875.084H941.81v-3.3h11.134Zm-10.329-.789h9.525v-1.723h-9.525Z" transform="translate(-941.81 -1871.784)" fill="#ebebeb"/></g><g transform="translate(0 103.221)"><rect width="10.329" height="2.511" transform="translate(0.402 0.395)" fill="#ebebeb"/><path d="M952.944,1979.3H941.81v-3.3h11.134Zm-10.329-.788h9.525v-1.723h-9.525Z" transform="translate(-941.81 -1975.995)" fill="#ebebeb"/></g><g transform="translate(0 141.102)"><rect width="10.329" height="2.511" transform="translate(0.402 0.394)" fill="#ebebeb"/><path d="M952.944,2034.948H941.81v-3.3h11.134Zm-10.329-.788h9.525v-1.723h-9.525Z" transform="translate(-941.81 -2031.648)" fill="#ebebeb"/></g><g transform="translate(0 179.82)"><rect width="10.329" height="2.511" transform="translate(0.402 0.394)" fill="#ebebeb"/><path d="M952.944,2091.829H941.81v-3.3h11.134Zm-10.329-.789h9.525v-1.722h-9.525Z" transform="translate(-941.81 -2088.53)" fill="#ebebeb"/></g><g transform="translate(0 216.075)"><rect width="10.329" height="2.511" transform="translate(0.402 0.394)" fill="#ebebeb"/><path d="M952.944,2145.094H941.81v-3.3h11.134Zm-10.329-.789h9.525v-1.722h-9.525Z" transform="translate(-941.81 -2141.794)" fill="#ebebeb"/></g><g transform="translate(0)"><rect width="0.553" height="248.403" transform="translate(0.402 0.394)" fill="#ebebeb"/><rect width="1.357" height="249.192" fill="#ebebeb"/></g><g transform="translate(9.775)"><rect width="0.553" height="248.403" transform="translate(0.402 0.394)" fill="#ebebeb"/><rect width="1.358" height="249.192" fill="#ebebeb"/></g></g><g transform="translate(0 0)"><g transform="translate(0 0.032)"><rect width="59.757" height="2.511" transform="translate(0.403 0.394)" fill="#ebebeb"/><path d="M916.931,1827.694H856.369v-3.3h60.562Zm-59.757-.788h58.953v-1.723H857.174Z" transform="translate(-856.369 -1824.394)" fill="#ebebeb"/></g><g transform="translate(0 65.342)"><rect width="59.757" height="2.511" transform="translate(0.403 0.395)" fill="#ebebeb"/><path d="M916.931,1923.644H856.369v-3.3h60.562Zm-59.757-.788h58.953v-1.723H857.174Z" transform="translate(-856.369 -1920.344)" fill="#ebebeb"/></g><g transform="translate(0 32.289)"><rect width="59.757" height="2.511" transform="translate(0.403 0.394)" fill="#ebebeb"/><path d="M916.931,1875.084H856.369v-3.3h60.562Zm-59.757-.789h58.953v-1.723H857.174Z" transform="translate(-856.369 -1871.784)" fill="#ebebeb"/></g><g transform="translate(0 103.221)"><rect width="59.757" height="2.511" transform="translate(0.403 0.395)" fill="#ebebeb"/><path d="M916.931,1979.3H856.369v-3.3h60.562Zm-59.757-.788h58.953v-1.723H857.174Z" transform="translate(-856.369 -1975.995)" fill="#ebebeb"/></g><g transform="translate(0 141.102)"><rect width="59.757" height="2.511" transform="translate(0.403 0.394)" fill="#ebebeb"/><path d="M916.931,2034.948H856.369v-3.3h60.562Zm-59.757-.788h58.953v-1.723H857.174Z" transform="translate(-856.369 -2031.648)" fill="#ebebeb"/></g><g transform="translate(0 179.82)"><rect width="59.757" height="2.511" transform="translate(0.403 0.394)" fill="#ebebeb"/><path d="M916.931,2091.829H856.369v-3.3h60.562Zm-59.757-.789h58.953v-1.722H857.174Z" transform="translate(-856.369 -2088.53)" fill="#ebebeb"/></g><g transform="translate(0 216.074)"><rect width="59.757" height="2.511" transform="translate(0.403 0.394)" fill="#ebebeb"/><path d="M916.931,2145.094H856.369v-3.3h60.562Zm-59.757-.789h58.953v-1.722H857.174Z" transform="translate(-856.369 -2141.794)" fill="#ebebeb"/></g><rect width="3.201" height="248.403" transform="translate(0.403 0.394)" fill="#ebebeb"/><path d="M860.375,2073.539h-4.006V1824.347h4.006Zm-3.2-.789h2.4V1825.135h-2.4Z" transform="translate(-856.369 -1824.347)" fill="#ebebeb"/><g transform="translate(56.556)"><rect width="3.201" height="248.403" transform="translate(0.402 0.394)" fill="#ebebeb"/><path d="M943.465,2073.539h-4.006V1824.347h4.006Zm-3.2-.789h2.4V1825.135h-2.4Z" transform="translate(-939.459 -1824.347)" fill="#ebebeb"/></g></g><g transform="translate(10.712 74.271)"><rect width="6.26" height="28.951" transform="translate(0.402 0.394)" fill="#ebebeb"/><path d="M879.17,1963.2h-7.064v-29.739h7.064Zm-6.26-.789h5.456v-28.161H872.91Z" transform="translate(-872.106 -1933.463)" fill="#ebebeb"/><path d="M878.39,1942.83a2.063,2.063,0,1,1-2.063-2.024A2.043,2.043,0,0,1,878.39,1942.83Z" transform="translate(-872.795 -1935.808)" fill="#ebebeb"/><g transform="translate(7.358)"><rect width="6.26" height="28.951" transform="translate(0.402 0.394)" fill="#ebebeb"/><path d="M889.981,1963.2h-7.065v-29.739h7.065Zm-6.26-.789h5.455v-28.161h-5.455Z" transform="translate(-882.916 -1933.463)" fill="#ebebeb"/><ellipse cx="2.063" cy="2.023" rx="2.063" ry="2.023" transform="translate(1.469 4.998)" fill="#ebebeb"/></g><g transform="translate(14.717)"><rect width="6.26" height="28.951" transform="translate(0.402 0.394)" fill="#ebebeb"/><path d="M900.792,1963.2h-7.065v-29.739h7.065Zm-6.26-.789h5.456v-28.161h-5.456Z" transform="translate(-893.727 -1933.463)" fill="#ebebeb"/><ellipse cx="2.063" cy="2.023" rx="2.063" ry="2.023" transform="translate(1.469 4.998)" fill="#ebebeb"/></g><g transform="translate(22.075)"><rect width="6.26" height="28.951" transform="translate(0.402 0.394)" fill="#ebebeb"/><path d="M911.6,1963.2h-7.064v-29.739H911.6Zm-6.26-.789H910.8v-28.161h-5.456Z" transform="translate(-904.538 -1933.463)" fill="#ebebeb"/><ellipse cx="2.063" cy="2.023" rx="2.063" ry="2.023" transform="translate(1.469 4.998)" fill="#ebebeb"/></g><g transform="translate(29.433)"><rect width="6.26" height="28.951" transform="translate(0.402 0.394)" fill="#ebebeb"/><path d="M922.412,1963.2h-7.064v-29.739h7.064Zm-6.26-.789h5.456v-28.161h-5.456Z" transform="translate(-915.348 -1933.463)" fill="#ebebeb"/><rect width="8.032" height="28.951" transform="translate(7.641 0.394)" fill="#ebebeb"/><ellipse cx="2.063" cy="2.023" rx="2.063" ry="2.023" transform="translate(1.469 4.998)" fill="#ebebeb"/></g></g><g transform="translate(10.712 3.148)"><rect width="6.26" height="28.951" transform="translate(0.402 0.394)" fill="#ebebeb"/><path d="M879.17,1858.71h-7.064v-29.74h7.064Zm-6.26-.789h5.456V1829.76H872.91Z" transform="translate(-872.106 -1828.971)" fill="#ebebeb"/><path d="M878.39,1838.338a2.063,2.063,0,1,1-2.063-2.023A2.043,2.043,0,0,1,878.39,1838.338Z" transform="translate(-872.795 -1831.316)" fill="#ebebeb"/><g transform="translate(7.358)"><rect width="6.26" height="28.951" transform="translate(0.402 0.394)" fill="#ebebeb"/><path d="M889.981,1858.71h-7.065v-29.74h7.065Zm-6.26-.789h5.455V1829.76h-5.455Z" transform="translate(-882.916 -1828.971)" fill="#ebebeb"/><path d="M889.2,1838.338a2.064,2.064,0,1,1-2.063-2.023A2.043,2.043,0,0,1,889.2,1838.338Z" transform="translate(-883.605 -1831.316)" fill="#ebebeb"/></g><g transform="translate(14.717)"><rect width="6.26" height="28.951" transform="translate(0.402 0.394)" fill="#ebebeb"/><path d="M900.792,1858.71h-7.065v-29.74h7.065Zm-6.26-.789h5.456V1829.76h-5.456Z" transform="translate(-893.727 -1828.971)" fill="#ebebeb"/><path d="M900.011,1838.338a2.064,2.064,0,1,1-2.063-2.023A2.043,2.043,0,0,1,900.011,1838.338Z" transform="translate(-894.416 -1831.316)" fill="#ebebeb"/></g><g transform="translate(22.075)"><rect width="6.26" height="28.951" transform="translate(0.402 0.394)" fill="#ebebeb"/><path d="M911.6,1858.71h-7.064v-29.74H911.6Zm-6.26-.789H910.8V1829.76h-5.456Z" transform="translate(-904.538 -1828.971)" fill="#ebebeb"/><path d="M910.822,1838.338a2.064,2.064,0,1,1-2.063-2.023A2.043,2.043,0,0,1,910.822,1838.338Z" transform="translate(-905.227 -1831.316)" fill="#ebebeb"/></g><g transform="translate(29.433)"><rect width="6.26" height="28.951" transform="translate(0.402 0.394)" fill="#ebebeb"/><path d="M922.412,1858.71h-7.064v-29.74h7.064Zm-6.26-.789h5.456V1829.76h-5.456Z" transform="translate(-915.348 -1828.971)" fill="#ebebeb"/><rect width="8.032" height="28.951" transform="translate(7.641 0.394)" fill="#ebebeb"/><path d="M921.632,1838.338a2.063,2.063,0,1,1-2.063-2.023A2.043,2.043,0,0,1,921.632,1838.338Z" transform="translate(-916.037 -1831.316)" fill="#ebebeb"/></g></g><path d="M877.227,2059.6a13.733,13.733,0,0,1,.974-5.32h-7.5a13.724,13.724,0,0,1,.975,5.32c0,3.219-3.288,9.162-3.288,13.123s3.486,5.262,6.065,5.262,6.065-1.3,6.065-5.262S877.227,2062.822,877.227,2059.6Z" transform="translate(-860.206 -1897.774)" fill="#ebebeb"/><g transform="translate(31.708 115.518)"><g transform="translate(0.93)"><path d="M917.275,2008.442c2.024-4.657-2.475-4.571-2.132-5.794.643-2.294,3.068.2,4.053-.957s-2.428-4.756-.642-6,1.161,2.974,2.7,2.674.624-4.76,2.445-4.261c1.369.374-.257,3.162-.107,4.464s2.972-.6,3.021,1.263-3.365,1.045-3.767,2.458,3.672,1.706,2.243,2.9-4.122-.235-4.831,1.008S916.416,2010.419,917.275,2008.442Z" transform="translate(-907.769 -1994.061)" fill="#ebebeb"/><path d="M912.579,2014.2c-1.9-4.706-5.038-1.542-5.672-2.647-1.188-2.075,2.324-1.975,2.194-3.475s-5.137-1.706-4.763-3.825,2.958,1.313,3.84.035-2.97-3.814-1.318-4.716c1.242-.678,2.085,2.425,3.126,3.247s1.685-2.474,3.053-1.186-1.642,3.064-.914,4.346,3.833-1.32,3.675.515-3.1,2.676-2.71,4.049S913.386,2016.2,912.579,2014.2Z" transform="translate(-904.319 -1995.79)" fill="#ebebeb"/></g><path d="M916.985,2011.524H906.6s-3.646,3.07-3.646,6.7,2.272,7.395,8.839,7.395,8.839-3.767,8.839-7.395S916.985,2011.524,916.985,2011.524Z" transform="translate(-902.953 -1999.637)" fill="#ebebeb"/></g><g transform="translate(34.256 163.681)"><rect width="9.586" height="12.766" transform="translate(2.965 3.767)" fill="#ebebeb"/><path d="M921.826,2068.586c0,2.081-3.387,3.768-7.566,3.768s-7.565-1.687-7.565-3.768,3.387-3.767,7.565-3.767S921.826,2066.506,921.826,2068.586Z" transform="translate(-906.696 -2064.819)" fill="#ebebeb"/></g><g transform="translate(5.71 131.032)"><g transform="translate(0 0)"><g transform="translate(0.402 7.086)"><rect width="3.536" height="22.523" transform="translate(0 3.536) rotate(-90)" fill="#ebebeb"/></g><g transform="translate(0 3.142)"><rect width="3.536" height="22.523" transform="translate(0.402 3.93) rotate(-90)" fill="#ebebeb"/><path d="M888.086,2025.794H864.758v-4.325h23.328ZM865.563,2025h21.719v-2.747H865.563Z" transform="translate(-864.758 -2021.469)" fill="#ebebeb"/></g><g transform="translate(0.402)"><rect width="3.536" height="22.523" transform="translate(0 3.536) rotate(-90)" fill="#ebebeb"/></g></g><g transform="translate(13.667)"><rect width="0.162" height="3.536" fill="#ebebeb"/></g><g transform="translate(15.481)"><rect width="0.162" height="3.536" fill="#ebebeb"/></g><g transform="translate(17.295)"><rect width="0.162" height="3.536" fill="#ebebeb"/></g><g transform="translate(19.109)"><rect width="0.162" height="3.536" fill="#ebebeb"/></g><rect width="10.6" height="0.583" transform="translate(11.223 7.689)" fill="#ebebeb"/><rect width="10.6" height="0.583" transform="translate(11.223 8.563)" fill="#ebebeb"/><rect width="10.6" height="0.583" transform="translate(11.223 9.437)" fill="#ebebeb"/></g></g></g><g transform="translate(63.976 2657.081)"><g transform="translate(43.495 149.483)"><path d="M477.117,1980.874S457.831,2011.155,459.84,2013c3.808,3.488,11.6,47.8,21.265,113.5.244,1.666,4.062-.225,4.062-.225C477.433,2094.406,477.117,1980.874,477.117,1980.874Z" transform="translate(-441.588 -1979.897)" fill="#9999a5"/><path d="M471.92,1987.04s6.651,107.867,15.061,140.008a11.96,11.96,0,0,0,2.09-.774c-7.734-31.869-8.05-145.4-8.05-145.4Z" transform="translate(-445.492 -1979.897)" fill="#9999a5"/><path d="M468.979,1980.427s-36.569-2.574-35.876.587c4.3,19.617-3.076,59.83,3.133,144.188l3.375.111c-3.635-55.537,4.718-88.8,14.469-106.7,5.041-9.253,10.616-10.491,14.89-9.452C469.285,1997.92,468.979,1980.427,468.979,1980.427Z" transform="translate(-433.094 -1979.439)" fill="#cfd0d8"/><rect width="1.619" height="10.258" transform="translate(22.998 5.699) rotate(-88.114)" fill="#9999a5"/><rect width="2.715" height="2.167" transform="translate(34.323 6.818) rotate(-88.114)" fill="#9999a5"/><path d="M446.6,2194.61l-10.563-.348s1.047-3.559,3.131-3.31S446.6,2194.61,446.6,2194.61Z" transform="translate(-434.033 -2046.979)" fill="#0080af"/><path d="M500.895,2196.4l-10.564-.348s1.048-3.559,3.132-3.31S500.895,2196.4,500.895,2196.4Z" transform="translate(-451.372 -2047.55)" fill="#0080af"/></g><g transform="translate(25.291 34.507)"><path d="M462.927,1839.158l-1.453.515-.487,3.673,3.335,1.321Z" transform="translate(-423.797 -1819.666)" fill="#eaeaea"/><path d="M450.623,1815.534l-13.74-5.014-.475,22.116,19.665,5.631Z" transform="translate(-415.948 -1810.521)" fill="#f7c371"/><path d="M479.3,1911.983l-25.89,8.1-1.282,38.927,22.975.9Z" transform="translate(-420.969 -1842.921)" fill="#eaeaea"/><path d="M417.248,1953.666c16.525-.5,35.706-6.708,44.1-25.69,4.543-10.273,4.435-27.183,4.656-43.94.3-22.4-24.771-51.676-44.641-44.975-27.617,9.314-9.326,45.562-6.038,55.132C424.965,1922.227,417.88,1947.414,417.248,1953.666Z" transform="translate(-406.35 -1819.323)" fill="#ffac00"/><path d="M447.548,1955.045c-.26-7.353-3.733-29.924-17.575-54.966-2.685-4.858-5.769-19.388-8.689-31.521-1.09-4.53-8.818,4.228-9.925,15.365-.687,6.908,4.29,15.948,5.548,19.611,9.636,28.034,2.552,53.222,1.919,59.474C428.38,1962.718,438.816,1960.514,447.548,1955.045Z" transform="translate(-407.929 -1828.665)" fill="#f8c471"/><path d="M471.066,1905.572c-2.169-28.88-25.1-56.8-45.3-64.394-3.392-1.275-.436-3.843,9.171-3.189C443.538,1838.609,478.366,1854.906,471.066,1905.572Z" transform="translate(-412.119 -1819.259)" fill="#ffac00"/><path d="M474.637,1886.72c-3.861-24.226-13.247-36.773-34.757-48.682,8.382.605,41.874,11.142,36.763,58.648C476.513,1897.9,475.3,1890.908,474.637,1886.72Z" transform="translate(-417.057 -1819.308)" fill="#eaeaea"/><path d="M487.29,1959.441c.112-1.019-.367-1.909-1.071-1.987s-1.367.685-1.479,1.705.365,1.909,1.071,1.987S487.176,1960.461,487.29,1959.441Z" transform="translate(-431.377 -1857.44)" fill="#ffd9a4"/><path d="M489.257,1941.688c.112-1.018-.367-1.908-1.071-1.987s-1.367.686-1.479,1.705.365,1.909,1.07,1.987S489.143,1942.708,489.257,1941.688Z" transform="translate(-432.005 -1851.771)" fill="#ffd9a4"/><path d="M458.226,1843.908l5.008,1.6-1.864-5.368-.955-.485Z" transform="translate(-422.916 -1819.824)" fill="#03b4e9"/><path d="M484.568,1902.373l-1.79-9.774s3.687-30.709-18.8-45.529l.252-.78C482.729,1859.063,488.8,1881.647,484.568,1902.373Z" transform="translate(-424.752 -1821.943)" fill="#03b4e9"/><path d="M453.492,1836.926l-19.659-4.759-2.391,3.976,18.713,7.092Z" transform="translate(-414.363 -1817.433)" fill="#fff"/></g><g transform="translate(0 56.013)"><path d="M369.678,1893.691c-4.919-1.218,29-52.937,37.27-51.546,0,0,13.9,7.568,7.077,35.346C414.026,1877.491,387.649,1898.143,369.678,1893.691Z" transform="translate(-369.193 -1842.117)" fill="#f8c471"/><path d="M375.242,1906.252c17.79,8.7,40.71-13.452,40.71-13.452a11.621,11.621,0,0,0,.621-2.743C397.91,1906.089,374.5,1905.891,375.242,1906.252Z" transform="translate(-371.119 -1857.426)" fill="#ffac00"/><path d="M440.233,1994.806c.434-.742-.744-1.7-2.216-2.559s-2.672-1.312-3.109-.568.4,2.043,1.875,2.907S439.8,1995.548,440.233,1994.806Z" transform="translate(-390.142 -1889.758)" fill="#f7c371"/><path d="M437.524,1997.075c.434-.742-.742-1.7-2.214-2.56s-2.674-1.312-3.111-.568.4,2.045,1.875,2.907S437.088,1997.817,437.524,1997.075Z" transform="translate(-389.277 -1890.482)" fill="#f7c371"/><path d="M443.725,1989.285c-.641-.574-2.291.928-3.975,2.806s-2.771,3.421-2.128,4,2.525-.484,4.211-2.364S444.367,1989.86,443.725,1989.285Z" transform="translate(-390.985 -1889.074)" fill="#ffd8a3"/><path d="M428.339,1976.079c3.071,2,13.195,7.485,11.437,11.153-1.574,3.28-7.87,4.874-13.954-8.691Z" transform="translate(-387.277 -1884.896)" fill="#ffd8a3"/><path d="M425.116,1980.353l-5.834-4.009,8.012-7,2.83,6.342Z" transform="translate(-385.189 -1882.746)" fill="#eaeaea"/><path d="M369.5,1913.8s8.158,17.008,35.311,43.913c0,0,4.2-.574,7.708-7.093,0,0-10.84-31.257-25.035-44.789C387.482,1905.832,371.266,1906.6,369.5,1913.8Z" transform="translate(-369.291 -1862.464)" fill="#f8c471"/><path d="M422.379,1969.4a1.5,1.5,0,1,0,.389-2.288A1.659,1.659,0,0,0,422.379,1969.4Z" transform="translate(-386.089 -1881.982)" fill="#ffac00"/></g><g transform="translate(33.745)"><path d="M427.291,1796.566c-9.571-11.424-8.735-30.275-8.273-30.935,4.933-7.055,18.84-6.448,25.856-4.554,5.916,1.6,10.563,4.87,7.628,9.487-1.014,1.594-5.713-2-7.149-1.813-2.714.361-4.339,37.7-4.339,37.7Z" transform="translate(-418.77 -1759.825)" fill="#40558e"/><g transform="translate(9.608 8.613)"><g transform="translate(2.95)"><path d="M469.618,1816.13l1.39-2.369-1.9-1.164Z" transform="translate(-447.403 -1785.291)" fill="#ffd8a3"/><path d="M438.507,1805.188c1.152,3.156,10.98,9.82,20.653,9.28.956-12.6.265-33.376-2.118-36.9-2.346-3.463-11.642-5.913-12.769-4.838,3.431,4-1.877,17.535-3.842,18.793C435.64,1794.594,437.3,1801.9,438.507,1805.188Z" transform="translate(-437.22 -1772.479)" fill="#ffd8a3"/><path d="M473.989,1809.1a89.232,89.232,0,0,1-4.882-10.57c-1.492-3.951-.851,10.624-.851,10.624S472.582,1810.1,473.989,1809.1Z" transform="translate(-447.088 -1780.58)" fill="#ffd8a3"/><path d="M469.111,1832.566c.973-.426,1.448-1.357,1.063-2.08a1.918,1.918,0,0,0-2.461-.539c-.974.425-1.45,1.358-1.063,2.081A1.918,1.918,0,0,0,469.111,1832.566Z" transform="translate(-446.575 -1790.764)" fill="#ffd8a3"/><path d="M470.384,1824.508c.031-.255-.258-.5-.644-.546s-.724.123-.754.378.257.5.643.545S470.354,1824.763,470.384,1824.508Z" transform="translate(-447.364 -1788.917)" fill="#ffd8a3"/></g><path d="M438.992,1799.96c-.564-2.286-2.35-3.887-3.989-3.574s-2.509,2.42-1.945,4.706,3.695,3.589,5.334,3.277S439.555,1802.246,438.992,1799.96Z" transform="translate(-432.886 -1780.101)" fill="#ffd8a3"/></g><path d="M468.78,1816.8l-.282,5.138s-1.435-.134-1.752-.772a18,18,0,0,1-1.081-5.155Z" transform="translate(-433.743 -1777.769)" fill="#ffab00"/><path d="M468.894,1817.086l-.253,4.564s-1.06-.085-1.291-.372a12.817,12.817,0,0,1-1.035-4.878Z" transform="translate(-433.949 -1777.892)" fill="#fff"/><path d="M465.759,1793.322a1.245,1.245,0,0,0-.326-.82c-.522-.536-4.86.844-4.8,1.751l.041.569c.046.653,1.335-.052,2.634-.243,1.242-.182,2.5.177,2.476-.44Z" transform="translate(-432.139 -1770.221)" fill="#2d356b"/><path d="M464.995,1800.454c.018-.761-.386-1.427-.9-1.489s-.95.5-.969,1.264.385,1.427.9,1.49S464.975,1801.214,464.995,1800.454Z" transform="translate(-432.933 -1772.322)" fill="#2d356b"/><path d="M465.61,1815.984c.021-.177-.062-.332-.187-.347s-.242.116-.263.293.062.332.186.346S465.589,1816.16,465.61,1815.984Z" transform="translate(-433.583 -1777.648)" fill="#ffab00"/></g><g transform="translate(47.638 6.674)"><path d="M459.217,1772.166c-.178-1.251-4.807-1.626-10.338-.839s-9.871,2.439-9.693,3.691,4.805,1.625,10.337.837S459.4,1773.416,459.217,1772.166Z" transform="translate(-439.181 -1770.041)" fill="#40558e"/><path d="M461.412,1773.416c-5.048,4.891-11.628,6.008-16.861,6.08,0,0,11.813-2.16,15.7-6.53Z" transform="translate(-440.896 -1770.696)" fill="#40558e"/><path d="M464.254,1772.1c-.956,5.106-5.014,6.8-8.676,7.38,0,0,7.2-3.19,7.618-7.689Z" transform="translate(-444.417 -1770.32)" fill="#40558e"/><path d="M466.97,1769.631c1.351,4.642-1.9,7.8-5.074,9.846,0,0,4.967-5.345,3.315-9.487Z" transform="translate(-446.435 -1769.631)" fill="#40558e"/><path d="M458.606,1773.9c-5.558,4.306-12.221,4.688-17.43,4.181,0,0,11.979-.841,16.328-4.754Z" transform="translate(-439.818 -1770.811)" fill="#40558e"/></g></g><g transform="translate(175.393 2614.68)"><rect width="163.785" height="52.412" rx="11.604" fill="#fff" stroke="#231f20" stroke-miterlimit="10" stroke-width="0.25"/><path d="M488.541,1762.834l-6.5,8.206,38.856-8.206Z" transform="translate(-480.642 -1710.422)" fill="#fff" stroke="#231f20" stroke-miterlimit="10" stroke-width="0.25"/></g><g transform="translate(207.596 2679.603)"><rect width="214.894" height="50.856" rx="11.604" transform="translate(214.894 58.42) rotate(-180)" fill="#fff" stroke="#231f20" stroke-miterlimit="10" stroke-width="0.25"/><path d="M798.352,1836.83h25.914l-25.914,12.965Z" transform="translate(-583.459 -1810.32)" fill="#fff" stroke="#231f20" stroke-miterlimit="10" stroke-width="0.25"/></g><g transform="translate(467.437 2662.053)"><g transform="translate(32.732 25.058)"><path d="M886.927,1809.719c7.364,1.675,19.777,3.612,15.969,28.347a15.992,15.992,0,0,0,3.431,12.774c2.657,3.225-16.76-8.6-16.793-22.479s-12.459-14.849-12.7-16.25S886.927,1809.719,886.927,1809.719Z" transform="translate(-876.831 -1805.789)" fill="#2d356b"/><path d="M887.622,1803.945l-6.916,8.8,3.05,2.4a2.45,2.45,0,0,0,3.443-.413l3.981-5.066a2.3,2.3,0,0,0-.386-3.226Z" transform="translate(-878.069 -1803.945)" fill="#ffe200"/></g><g transform="translate(1.398 114.887)"><path d="M856.791,1938.5l-15.359,1.466c-11.654,40.454,10.907,96.146-1.809,172.231,0,0,2.676,1.1,2.846,0C855.26,2029.345,845.068,1994.689,856.791,1938.5Z" transform="translate(-833.087 -1936.741)" fill="#f7c371"/><path d="M858.18,1935.917c16.457,29.449,4.863,27.2,3.78,42.4-4.046,56.865,10.017,66.259,19.334,133.44,0,0-3.557-.176-3.661-1.145-5.848-53.6-37.449-104.877-39.718-154.636C837.545,1947.861,858.18,1935.917,858.18,1935.917Z" transform="translate(-833.068 -1935.917)" fill="#ffd8a3"/><path d="M885.831,2193.166h10.657s.516-2.939-1.862-3.411C893.13,2189.458,890.481,2190.144,885.831,2193.166Z" transform="translate(-848.371 -2016.957)" fill="#ffac00"/><path d="M830.8,2193.542h9.369s.452-2.941-1.637-3.411C837.212,2189.834,834.885,2190.519,830.8,2193.542Z" transform="translate(-830.797 -2017.077)" fill="#ffac00"/><path d="M865.9,2022.152c-11.206,2.359-17.988,3.1-26.613,2.654,0,0-7.741-59.715,2.875-82.052,3.816-8.03,13.634-8.426,18.136-1.7C875.332,1963.544,858.744,1983.006,865.9,2022.152Z" transform="translate(-832.637 -1936.053)" fill="#2d356b"/></g><g transform="translate(0 29.031)"><path d="M869.254,1809.781l-8.625,5.418-1.548,18.652,6.93-2.507Z" transform="translate(-838.431 -1809.781)" fill="#f7c371"/><path d="M833.012,1928.947c5.543-3.631,18.411-11.658,32.681-1.72-4.268-12.534-8.144-24.856-8.282-35.166-.256-19.112,15.987-41.56,2.548-50.2-14.27-9.174-31.217,33.191-31.217,33.191C843.014,1883.078,839.065,1906.092,833.012,1928.947Z" transform="translate(-828.743 -1819.61)" fill="#ffb2b0"/><path d="M866.727,1839.807l-2.506-.294-11.206,10.542,3.318,2.8S863.852,1845.188,866.727,1839.807Z" transform="translate(-836.494 -1819.276)" fill="#fff"/><path d="M846.119,1853.342c-.054-.038-.1-.076-.157-.114,2.958-5.9,9.42-14.936,15.661-14.355C855.943,1843.941,846.119,1853.342,846.119,1853.342Z" transform="translate(-834.242 -1819.063)" fill="#f7c371"/></g><g transform="translate(7.802)"><path d="M859.132,1806.093c4.6-1.263,13.861-2.736,18.323-9.681,5.8-9.029,4.328-14.614,2.394-21.409-3.686-12.953-25.781-6.888-24.4-3.071C857.283,1777,842.463,1810.669,859.132,1806.093Z" transform="translate(-843.692 -1767.13)" fill="#2d356b"/><path d="M848.394,1812.949c-1.677,0-4.677-8.666-5.572-15.312-.295-2.192,2.064-2.449,1.917-9.925-.086-4.389,1.94-10.464,9.289-14.822,6.938-4.115,7.453,9.5,8.047,12.65,1.693,8.963,3.982,14.591,1.684,18.928C859.27,1812.938,850.206,1812.516,848.394,1812.949Z" transform="translate(-841.033 -1768.724)" fill="#ffd8a3"/><path d="M851.159,1814.807a.386.386,0,0,0-.348-.42.407.407,0,0,0-.336.446.387.387,0,0,0,.351.419A.4.4,0,0,0,851.159,1814.807Z" transform="translate(-843.485 -1782.221)" fill="#ffab00"/><path d="M851.521,1797.826c-.04-1.18-.73-2.1-1.539-2.06s-1.435,1.03-1.4,2.208.73,2.1,1.539,2.06S851.562,1799,851.521,1797.826Z" transform="translate(-842.881 -1776.274)" fill="#2d356b"/><path d="M852.57,1798.005c-1.135-1.631-2.753-3.258-5.839-2.178A11.273,11.273,0,0,1,852.57,1798.005Z" transform="translate(-842.289 -1776.183)" fill="#2d356b"/><path d="M847.3,1821.926c-.05-.273-.892.7-1.291.729-1.129.1-.807,1.536.319,1.325C846.769,1823.9,847.351,1822.216,847.3,1821.926Z" transform="translate(-841.834 -1784.613)" fill="#f36973"/><path d="M847.939,1815.067c.765-.3-4.4-1.791-3.463-.041C844.819,1815.369,847.547,1815.222,847.939,1815.067Z" transform="translate(-841.533 -1782.157)" fill="#f36973"/><path d="M846.642,1787.525a6.875,6.875,0,0,1,8.285,4.323C852.694,1788.79,850.964,1787.647,846.642,1787.525Z" transform="translate(-842.261 -1773.58)" fill="#2d356b"/><path d="M841.385,1806.863l2.595.794.094-6.628-3.868,4.718Z" transform="translate(-840.205 -1777.955)" fill="#ffd8a3"/><path d="M843.4,1813.3l-2.017-4.1,1.948-.069Z" transform="translate(-840.581 -1780.541)" fill="#ffd8a3"/><path d="M845.385,1820.82a48.964,48.964,0,0,1-1.28-5.754h4.687S847.862,1820.028,845.385,1820.82Z" transform="translate(-841.451 -1782.438)" fill="#ffab00"/><path d="M847.557,1817.791h-2.67q-.232-1.084-.429-2.263h3.831Z" transform="translate(-841.564 -1782.585)" fill="#fff"/><path d="M876.647,1803.672c-.106-2.044-.8-3.552.753-3.629s2.9,1.519,3,3.566-1.071,3.766-2.625,3.844S876.751,1805.72,876.647,1803.672Z" transform="translate(-851.764 -1777.64)" fill="#f7c371"/><path d="M854.557,1773.69c4.923,7.439,13.548,18.314,11.473,28.913,4.364-11.284,2.417-26.337-5.07-32.534C860.172,1771.2,853.469,1770.859,854.557,1773.69Z" transform="translate(-844.75 -1768.068)" fill="#2d356b"/></g></g><g transform="translate(470.924 2717.992)"><g transform="translate(0 4.578)"><path d="M844.6,1878.323c-.843-3.309-7.482-8.472-5.07-10.22,2.16-1.568,7.947-.888,7.6,9.453Z" transform="translate(-835.506 -1859.688)" fill="#ffd9a4"/><path d="M845.734,1870.787c-3.637,3.008-7.286-1.437-8.111-3.1-.906-1.831,1.231-4.872,2.851-5.025S847.123,1869.635,845.734,1870.787Z" transform="translate(-834.997 -1858.153)" fill="#ffd9a4"/><path d="M846,1864.291c.413-2.751,2.208-5.7,3.183-5.27,1.1.48-.918,2.723-.687,5.284.244,2.772.252,4.528-.811,4.68S845.585,1867.045,846,1864.291Z" transform="translate(-837.711 -1856.978)" fill="#ffd9a4"/><path d="M840.184,1859.777c-1.046-2.141-1.1-3.5-.5-3.713s1.121,1.044,2.169,3.182,2.911,4.6,2.312,4.812S841.237,1861.913,840.184,1859.777Z" transform="translate(-835.601 -1856.039)" fill="#ffd9a4"/><path d="M836.347,1861.578c-1.486-1.925-1.915-4.249-1.38-4.572s1.476,1.768,2.961,3.694,2.344,3.253,1.808,3.575S837.831,1863.5,836.347,1861.578Z" transform="translate(-834.147 -1856.338)" fill="#ffd9a4"/><path d="M835.311,1866.222c-1.406-1.982-1.742-3.406-1.2-3.714s1.223,1.173,2.627,3.154,2.361,3.39,1.817,3.7S836.717,1868.2,835.311,1866.222Z" transform="translate(-833.866 -1858.092)" fill="#ffd9a4"/></g><g transform="translate(8.198)"><path d="M873.176,1849.406c8.573-2.593,15.309,50.605,14.832,52.451,0,0-4.575,1.976-5.777.076C879.12,1897.018,869.349,1850.564,873.176,1849.406Z" transform="translate(-854.337 -1849.314)" fill="#ffb2b0"/><path d="M850.413,1881.751c-5.57,4.3,23.522,30.249,24.925,30.78,0,0,5.073-1.689,4.4-3.316C877.993,1905.006,852.9,1879.83,850.413,1881.751Z" transform="translate(-847.122 -1859.639)" fill="#ffb2b0"/><path d="M847.965,1879.779l2-.793,6.977,4.269s-3.171,2.1-4.111,2.113S847.965,1879.779,847.965,1879.779Z" transform="translate(-846.566 -1858.789)" fill="#eaeaea"/><path d="M847.424,1880l-1.515,1.547,1.332,8.078s3.2-2.133,3.565-3S847.424,1880,847.424,1880Z" transform="translate(-845.91 -1859.112)" fill="#eaeaea"/></g></g><g transform="translate(368.295 2780.559)"><g transform="translate(0)"><g transform="translate(23.099)"><path d="M775.879,1990.523s1.681-11.313,2.442-13.8c.984-3.215,1.465-8-1.24-10.82s-3.114-9.449-3.114-10.464-1.014-16.23-12.173-13.976c0,0-4.621,1.127-2.367,9.242,0,0,2.367,4.847-.62,7.89s-5.579,10.032,0,16.794,3.991,9.239,3.1,11.835c-4.065,11.837,4.584,22.708,5.523,25.608s2.065,7.66,1.124,10.4l3.281.061Z" transform="translate(-755.524 -1941.234)" fill="#ebebeb"/></g><g transform="translate(33.695 11.454)"><path d="M775.061,2029.1a.561.561,0,0,1-.1-.01.5.5,0,0,1-.386-.586c1.255-6.106-.947-16.988-.969-17.1-1.214-4.632-1.566-10.55.445-25.638a57.945,57.945,0,0,0-.612-19.8,33.212,33.212,0,0,0-2.293-7.191.5.5,0,0,1,.884-.449,33.339,33.339,0,0,1,2.369,7.387,58.9,58.9,0,0,1,.635,20.179c-1.983,14.878-1.619,20.867-.463,25.283.1.48,2.271,11.216.975,17.521A.5.5,0,0,1,775.061,2029.1Z" transform="translate(-771.092 -1958.061)" fill="#f9f9f9"/></g><g transform="translate(0 43.47)"><path d="M753.572,2043.923s0-2.667-5.475-5.194c0,0-4.07-1.263-5.474-6.6s-5.334-3.93-7.861-2.386-8.267,0-8.275-8c0,0,1.707-4.211-1.958-6.457s-5.068-10.269,2.793-10.188,15.267,3.963,22.881,15.241c10.582,15.674,6.463,23.583,6.463,23.583Z" transform="translate(-721.588 -2005.098)" fill="#ebebeb"/></g><g transform="translate(7.942 49.092)"><path d="M759.4,2047.057a.494.494,0,0,1-.152-.024.5.5,0,0,1-.32-.624,12.008,12.008,0,0,0,.031-5.236.483.483,0,0,1-.039-.1c-4.245-16.023-25.178-26.67-25.389-26.776a.5.5,0,0,1,.444-.887c.214.108,21.5,10.939,25.89,27.362a11.719,11.719,0,0,1,.005,5.942A.487.487,0,0,1,759.4,2047.057Z" transform="translate(-733.256 -2013.357)" fill="#f9f9f9"/></g><g transform="translate(39.41 19.709)"><path d="M783.59,2032.537s5.748-3.269,4.621-9.806,4.734-8,6.086-8.229,10.145-3.832,8.792-17.019c0,0-.451-8.454,1.127-11.5s5.524-12.173,0-14.991-9.355,2.254-11.384,7.439c0,0-1.578,5.974-2.93,7.44s-11.159,10.031-10.369,27.84l1.919,18.823Z" transform="translate(-779.488 -1970.19)" fill="#ebebeb"/></g><g transform="translate(42.08 30.077)"><path d="M783.941,2037.9a.5.5,0,0,1-.5-.478c-.57-15.16,6-34.93,9.775-40.642a101.7,101.7,0,0,0,6.278-11.071.5.5,0,1,1,.9.423,102.6,102.6,0,0,1-6.346,11.193c-3.708,5.619-10.174,25.1-9.612,40.06a.5.5,0,0,1-.477.514Z" transform="translate(-783.411 -1985.422)" fill="#f9f9f9"/></g></g><path d="M760.214,2090.358h21.255l5.144-29.125H755.068Z" transform="translate(-732.279 -1979.554)" fill="#ebebeb"/></g><g transform="translate(33 2879.155)"><g transform="translate(18.619)"><path d="M379.984,2106.736s1.355-9.119,1.968-11.125c.793-2.591,1.181-6.451-1-8.722s-2.51-7.616-2.51-8.434-.817-13.083-9.812-11.266c0,0-3.725.909-1.908,7.45,0,0,1.908,3.907-.5,6.36s-4.5,8.086,0,13.537,3.217,7.447,2.5,9.54c-3.276,9.542,3.7,18.3,4.452,20.64s1.665,6.175.906,8.383l2.645.05Z" transform="translate(-363.577 -2067.006)" fill="#ebebeb"/></g><g transform="translate(27.16 9.232)"><path d="M379.325,2137.832a.42.42,0,0,1-.081-.008.4.4,0,0,1-.311-.472c1.011-4.922-.763-13.694-.781-13.781-.978-3.733-1.262-8.5.359-20.666a46.7,46.7,0,0,0-.493-15.957,26.716,26.716,0,0,0-1.849-5.8.4.4,0,0,1,.713-.362,26.887,26.887,0,0,1,1.909,5.954,47.5,47.5,0,0,1,.512,16.267c-1.6,11.992-1.306,16.82-.373,20.379.08.386,1.83,9.041.786,14.124A.4.4,0,0,1,379.325,2137.832Z" transform="translate(-376.126 -2080.57)" fill="#f9f9f9"/></g><g transform="translate(0 35.04)"><path d="M362,2149.78s0-2.149-4.413-4.186a7.376,7.376,0,0,1-4.413-5.318c-1.131-4.3-4.3-3.168-6.336-1.924s-6.664,0-6.67-6.45c0,0,1.376-3.395-1.578-5.205s-4.085-8.277,2.251-8.211,12.306,3.194,18.443,12.285c8.53,12.634,5.209,19.009,5.209,19.009Z" transform="translate(-336.223 -2118.485)" fill="#ebebeb"/></g><g transform="translate(6.401 39.571)"><path d="M366.7,2152.306a.4.4,0,0,1-.38-.523,9.664,9.664,0,0,0,.024-4.22.45.45,0,0,1-.031-.081c-3.422-12.915-20.295-21.5-20.465-21.583a.4.4,0,0,1,.358-.715c.173.087,17.333,8.817,20.87,22.056a9.456,9.456,0,0,1,0,4.789A.392.392,0,0,1,366.7,2152.306Z" transform="translate(-345.628 -2125.142)" fill="#f9f9f9"/></g><g transform="translate(31.766 15.887)"><path d="M386.2,2140.6s4.634-2.635,3.725-7.9,3.816-6.451,4.906-6.633,8.177-3.089,7.086-13.719c0,0-.363-6.814.909-9.267s4.452-9.812,0-12.083-7.541,1.817-9.176,6c0,0-1.272,4.815-2.363,6s-8.994,8.086-8.359,22.441l1.547,15.173Z" transform="translate(-382.893 -2090.347)" fill="#ebebeb"/></g><g transform="translate(33.919 24.244)"><path d="M386.483,2144.924a.4.4,0,0,1-.4-.385c-.459-12.22,4.84-28.156,7.879-32.76a81.7,81.7,0,0,0,5.059-8.924.4.4,0,0,1,.724.342,82.87,82.87,0,0,1-5.116,9.022c-2.989,4.529-8.2,20.229-7.747,32.291a.4.4,0,0,1-.385.414Z" transform="translate(-386.056 -2102.625)" fill="#f9f9f9"/></g><path d="M367.357,2187.209H384.49l4.147-23.476H363.209Z" transform="translate(-344.841 -2097.895)" fill="#ebebeb"/></g><g transform="translate(32.448 2584.9)"><rect width="50.479" height="29.78" transform="translate(50.479 29.78) rotate(-180)" fill="#ebebeb"/></g><text transform="translate(41.931 2608.802)" fill="#2d356b" font-size="27" font-family="TrebuchetMS-Bold, Trebuchet MS" font-weight="700"><tspan x="0" y="0">A</tspan></text><g transform="translate(504.184 2875.56)"><rect width="85.177" height="48.605" rx="6.672" transform="translate(-28 -132)" fill="#fff" stroke="#231f20" stroke-miterlimit="10" stroke-width="0.25"/><text transform="translate(-15.412 -109.698)" fill="#2d356b" font-size="14" font-family="TrebuchetMS-Bold, Trebuchet MS" font-weight="700"><tspan x="0" y="0">Mizuho</tspan><tspan x="0" y="14">Marketing</tspan></text></g><g transform="translate(284 2566)"><circle cx="18" cy="18" r="18" fill="#1287cd"/><text transform="translate(3 1)" fill="#fff" font-size="24" font-family="NotoSans-Bold, Noto Sans" font-weight="700"><tspan x="8.136" y="26">2</tspan></text></g></g></svg>