<svg xmlns="http://www.w3.org/2000/svg" width="538.639" height="354.798" viewBox="0 0 538.639 354.798"><g transform="translate(-32.719 -6505)"><g transform="translate(-137.959 657.108)"><g transform="translate(170.678 5866.814)"><g transform="translate(0.523)"><g transform="translate(0.12)"><path d="M709.208,5879.613h.637v-11.419H171.925v238.654H709.2v-23.972h.005Z" transform="translate(-171.925 -5867.86)" fill="#fff"/><rect width="537.278" height="0.667" transform="translate(0 238.654)" fill="#a0bacb"/><rect width="537.921" height="0.667" fill="#7b88ac"/></g><g transform="translate(0 48.765)"><path d="M259.675,5962.973v-.175H252v.175H172.628v145.5H335.621v-145.5Zm69.2,4.671v32h-69.2v-32ZM252,6005.16v61.125H179.376V6005.16Zm7.678,61.125V6005.16h69.2v61.125ZM252,5967.644v32H179.376v-32Zm-72.621,104.163H252v32H179.376Zm80.3,32v-32h69.2v32Z" transform="translate(-172.146 -5962.464)" fill="#ebebeb"/><path d="M335.65,6108.494H171.692V5962.325h79.369v-.174H259.7v.174H335.65Zm-162.993-.667H334.685V5962.993H258.739v-.175h-6.714v.175H172.656Zm156.245-4H258.739V6071.16H328.9Zm-69.2-.667h68.234v-31.328H259.7Zm-7.679.667H178.44V6071.16h73.584Zm-72.621-.667h71.657v-31.328H179.4Zm149.5-36.848H258.739v-61.793H328.9Zm-69.2-.667h68.234V6005.18H259.7Zm-7.679.667H178.44v-61.793h73.584Zm-72.621-.667h71.657V6005.18H179.4Zm149.5-65.979H258.739V5967H328.9Zm-69.2-.667h68.234v-31.328H259.7Zm-7.679.667H178.44V5967h73.584Zm-72.621-.667h71.657v-31.328H179.4Z" transform="translate(-171.692 -5962.151)" fill="#ebebeb"/></g><g transform="translate(215.663 47.903)"><path d="M670.784,5961.3v-.175h-7.043v.175h-72.8v145.5h149.5V5961.3Zm63.47,4.672v31.994h-63.47v-31.994Zm-70.513,37.516v61.125h-66.61v-61.125Zm7.043,61.125v-61.125h63.47v61.125Zm-7.043-98.64v31.994h-66.61v-31.994Zm-66.61,104.162h66.61v32h-66.61Zm73.652,32v-32h63.47v32Z" transform="translate(-590.5 -5960.794)" fill="#ebebeb"/><path d="M740.47,6106.823H590.084V5960.655h72.8v-.175h7.927v.175h69.66Zm-149.5-.667H739.586V5961.323h-69.66v-.175h-6.159v.175h-72.8Zm143.312-4H669.926v-32.662h64.355Zm-63.471-.667H733.4v-31.327H670.81Zm-7.043.667H596.274v-32.662h67.494Zm-66.609-.667h65.725v-31.327H597.158Zm137.123-36.848H669.926v-61.792h64.355Zm-63.471-.667H733.4v-60.457H670.81Zm-7.043.667H596.274v-61.792h67.494Zm-66.609-.667h65.725v-60.457H597.158Zm137.123-65.979H669.926v-32.663h64.355Zm-63.471-.667H733.4v-31.327H670.81Zm-7.043.667H596.274v-32.663h67.494Zm-66.609-.667h65.725v-31.327H597.158Z" transform="translate(-590.084 -5960.48)" fill="#ebebeb"/></g><g transform="translate(408.743 48.764)"><path d="M1093.779,6103.8h-41.131v-32h41.131v-5.521h-41.131V6005.16h41.131v-5.521h-41.131v-32h41.131v-4.671h-41.131v-.175h-7.678v.175H965.6v145.5h128.179Zm-48.81,0h-72.62v-32h72.62Zm0-37.516h-72.62V6005.16h72.62Zm0-66.646h-72.62v-32h72.62Z" transform="translate(-965.119 -5962.464)" fill="#ebebeb"/><path d="M1133.539,6206.293h41.613v-.667H1134.5V6174.3h40.649v-.667h-41.613Z" transform="translate(-1046.492 -6064.622)" fill="#ebebeb"/><path d="M1133.539,6106.128h41.613v-.667H1134.5V6045h40.649v-.667h-41.613Z" transform="translate(-1046.492 -6001.973)" fill="#ebebeb"/><path d="M1133.539,6004.216h41.613v-.667H1134.5v-31.328h40.649v-.667h-41.613Z" transform="translate(-1046.492 -5966.707)" fill="#ebebeb"/><path d="M1051.341,5971.555H977.757v32.661h73.584Zm-.964,31.994H978.721v-31.328h71.656Z" transform="translate(-971.009 -5966.708)" fill="#ebebeb"/><path d="M1093.326,6107.826H965.63V5962.993H1045v-.175h6.714v.175h41.613v-.667h-40.65v-.175h-8.642v.175H964.666v146.168h128.66Z" transform="translate(-964.666 -5962.15)" fill="#ebebeb"/><path d="M977.757,6206.293h73.584v-32.662H977.757Zm.964-31.995h71.656v31.328H978.721Z" transform="translate(-971.009 -6064.622)" fill="#ebebeb"/><path d="M1051.341,6044.335H977.757v61.793h73.584Zm-.964,61.126H978.721V6045h71.656Z" transform="translate(-971.009 -6001.972)" fill="#ebebeb"/></g></g><g transform="translate(0 220.633)"><path d="M708.6,6276H171.32v81.882h-.643v33.078H708.593V6279.488h.005Z" transform="translate(-170.678 -6275.716)" fill="#f9f9f9"/><rect width="536.159" height="0.478" transform="translate(1.922 114.585)" fill="#f9f9f9"/><rect width="537.283" height="0.478" transform="translate(0.643)" fill="#f9f9f9"/></g><g transform="translate(32.617 4.208)"><path d="M887.292,5947.108v-71.4h-2.06v71.4c-6.421.364-11.471,4.081-11.471,8.619,0,4.78,5.6,8.654,12.5,8.654s12.5-3.874,12.5-8.654C898.762,5951.189,893.712,5947.473,887.292,5947.108Z" transform="translate(-543.97 -5875.709)" fill="#ffb2b0"/><path d="M247.486,5958.05v-71.4h-2.059v71.4c-6.421.363-11.471,4.08-11.471,8.618,0,4.779,5.6,8.654,12.5,8.654s12.5-3.875,12.5-8.654C258.957,5962.13,253.907,5958.413,247.486,5958.05Z" transform="translate(-233.956 -5881.011)" fill="#ffb2b0"/><path d="M471.42,5949.562v-51.91h-1.5v51.91c-4.668.264-8.34,2.966-8.34,6.266,0,3.475,4.069,6.292,9.089,6.292s9.089-2.817,9.089-6.292C479.76,5952.528,476.088,5949.826,471.42,5949.562Z" transform="translate(-344.251 -5886.342)" fill="#ffb2b0"/><path d="M1082.724,5949.562v-51.91h-1.5v51.91c-4.668.264-8.339,2.966-8.339,6.266,0,3.475,4.069,6.292,9.088,6.292s9.089-2.817,9.089-6.292C1091.064,5952.528,1087.392,5949.826,1082.724,5949.562Z" transform="translate(-640.455 -5886.342)" fill="#ffb2b0"/></g><g transform="translate(21.853 94.821)"><g transform="translate(0 20.624)"><rect width="45.251" height="1.616" transform="translate(0.413 0.344)" fill="#ebebeb"/><path d="M259.149,6084.113H213.073v-2.3h46.076Zm-45.251-.687h44.427v-.929H213.9Z" transform="translate(-213.073 -6081.81)" fill="#ebebeb"/><g transform="translate(0 24.381)"><rect width="45.251" height="1.616" transform="translate(0.413 0.344)" fill="#ebebeb"/><path d="M259.149,6131.415H213.073v-2.3h46.076Zm-45.251-.687h44.427v-.929H213.9Z" transform="translate(-213.073 -6129.111)" fill="#ebebeb"/></g><g transform="translate(0 48.763)"><rect width="45.251" height="1.616" transform="translate(0.413 0.344)" fill="#ebebeb"/><path d="M259.149,6178.716H213.073v-2.3h46.076Zm-45.251-.687h44.427v-.93H213.9Z" transform="translate(-213.073 -6176.412)" fill="#ebebeb"/></g><g transform="translate(0 0.539)"><g transform="translate(0 73.144)"><rect width="45.251" height="1.616" transform="translate(0.413 0.344)" fill="#ebebeb"/><path d="M259.149,6227.061H213.073v-2.3h46.076Zm-45.251-.687h44.427v-.93H213.9Z" transform="translate(-213.073 -6224.756)" fill="#ebebeb"/></g><g transform="translate(0 96.479)"><rect width="45.251" height="1.616" transform="translate(0.413 0.344)" fill="#ebebeb"/><path d="M259.149,6272.333H213.073v-2.3h46.076Zm-45.251-.687h44.427v-.931H213.9Z" transform="translate(-213.073 -6270.029)" fill="#ebebeb"/></g><rect width="2.424" height="117.288" transform="translate(0.413 0.344)" fill="#ebebeb"/><path d="M216.322,6200.831h-3.249V6082.856h3.249Zm-2.424-.687h1.6v-116.6h-1.6Z" transform="translate(-213.073 -6082.856)" fill="#ebebeb"/><g transform="translate(42.827)"><rect width="2.424" height="117.288" transform="translate(0.412 0.344)" fill="#ebebeb"/><path d="M299.408,6200.831h-3.249V6082.856h3.249Zm-2.424-.687h1.6v-116.6h-1.6Z" transform="translate(-296.159 -6082.856)" fill="#ebebeb"/></g></g></g><g transform="translate(8.111 26.371)"><rect width="4.741" height="18.634" transform="translate(0.412 0.344)" fill="#ebebeb"/><path d="M234.374,6112.282h-5.565v-19.321h5.565Zm-4.741-.687h3.916v-17.947h-3.916Z" transform="translate(-228.809 -6092.961)" fill="#ebebeb"/><path d="M234.3,6100.679a1.588,1.588,0,1,1-1.562-1.3A1.45,1.45,0,0,1,234.3,6100.679Z" transform="translate(-229.956 -6096.069)" fill="#ebebeb"/><g transform="translate(5.572)"><rect width="4.741" height="18.634" transform="translate(0.412 0.344)" fill="#ebebeb"/><path d="M245.184,6112.282h-5.565v-19.321h5.565Zm-4.741-.687h3.916v-17.947h-3.916Z" transform="translate(-239.619 -6092.961)" fill="#ebebeb"/><path d="M245.111,6100.679a1.588,1.588,0,1,1-1.562-1.3A1.45,1.45,0,0,1,245.111,6100.679Z" transform="translate(-240.766 -6096.069)" fill="#ebebeb"/></g><g transform="translate(11.144)"><rect width="4.741" height="18.634" transform="translate(0.412 0.344)" fill="#ebebeb"/><path d="M255.994,6112.282h-5.565v-19.321h5.565Zm-4.741-.687h3.916v-17.947h-3.916Z" transform="translate(-250.429 -6092.961)" fill="#ebebeb"/><path d="M255.921,6100.679a1.588,1.588,0,1,1-1.562-1.3A1.45,1.45,0,0,1,255.921,6100.679Z" transform="translate(-251.576 -6096.069)" fill="#ebebeb"/></g><g transform="translate(16.716)"><rect width="4.741" height="18.634" transform="translate(0.412 0.344)" fill="#ebebeb"/><path d="M266.8,6112.282h-5.565v-19.321H266.8Zm-4.741-.687h3.916v-17.947h-3.916Z" transform="translate(-261.239 -6092.961)" fill="#ebebeb"/><path d="M266.731,6100.679a1.588,1.588,0,1,1-1.562-1.3A1.45,1.45,0,0,1,266.731,6100.679Z" transform="translate(-262.386 -6096.069)" fill="#ebebeb"/></g><g transform="translate(22.288)"><rect width="4.741" height="18.634" transform="translate(0.413 0.344)" fill="#ebebeb"/><path d="M277.614,6112.282h-5.565v-19.321h5.565Zm-4.741-.687h3.916v-17.947h-3.916Z" transform="translate(-272.049 -6092.961)" fill="#ebebeb"/><path d="M277.542,6100.679a1.588,1.588,0,1,1-1.562-1.3A1.45,1.45,0,0,1,277.542,6100.679Z" transform="translate(-273.196 -6096.069)" fill="#ebebeb"/></g></g><path d="M231.993,6199.25a7.732,7.732,0,0,1,.738-3.424h-5.682a7.731,7.731,0,0,1,.738,3.424c0,2.072-2.49,5.9-2.49,8.446s2.64,3.387,4.593,3.387,4.593-.836,4.593-3.387S231.993,6201.321,231.993,6199.25Z" transform="translate(-218.996 -6116.432)" fill="#ebebeb"/><g transform="translate(24.119 53.009)"><g transform="translate(0.704)"><path d="M273.664,6153.9c1.532-3-1.874-2.942-1.614-3.729.487-1.476,2.324.128,3.069-.615s-1.838-3.062-.486-3.865.879,1.914,2.048,1.721.473-3.063,1.852-2.742c1.037.241-.195,2.035-.081,2.874s2.252-.384,2.288.813-2.548.673-2.853,1.583,2.781,1.1,1.7,1.867-3.121-.153-3.658.648S273.013,6155.169,273.664,6153.9Z" transform="translate(-266.466 -6144.64)" fill="#ebebeb"/><path d="M267.484,6158.719c-1.44-3.029-3.815-.992-4.295-1.7-.9-1.336,1.76-1.271,1.662-2.237s-3.89-1.1-3.607-2.461,2.24.845,2.908.022-2.249-2.455-1-3.035c.94-.437,1.579,1.561,2.367,2.09s1.276-1.592,2.312-.764-1.244,1.973-.693,2.8,2.9-.851,2.783.331-2.347,1.722-2.053,2.605S268.1,6160.005,267.484,6158.719Z" transform="translate(-261.23 -6146.87)" fill="#ebebeb"/></g><path d="M270.49,6159.481h-7.865s-2.761,1.977-2.761,4.312,1.721,4.76,6.693,4.76,6.694-2.426,6.694-4.76S270.49,6159.481,270.49,6159.481Z" transform="translate(-259.864 -6151.831)" fill="#ebebeb"/></g><g transform="translate(26.048 84.009)"><rect width="7.259" height="8.217" transform="translate(2.246 2.425)" fill="#ebebeb"/><ellipse cx="5.729" cy="2.425" rx="5.729" ry="2.425" fill="#ebebeb"/></g><g transform="translate(20.992 13.078)"><rect width="5.382" height="6.092" transform="translate(1.665 1.798)" fill="#ebebeb"/><path d="M262.294,6068.969c0,.992-1.9,1.8-4.248,1.8s-4.247-.806-4.247-1.8,1.9-1.8,4.247-1.8S262.294,6067.976,262.294,6068.969Z" transform="translate(-253.799 -6067.171)" fill="#ebebeb"/></g><g transform="translate(2.998)"><path d="M237.069,6058.648s-1.862-5.388,6.38-11.45c0,0-7.057,6.466-4.741,11.45Z" transform="translate(-227.61 -6044.416)" fill="#ebebeb"/><path d="M235.567,6057.256s-4.27-6,3.376-15.456c0,0-6.066,9.631-1.4,15.027Z" transform="translate(-226.394 -6041.8)" fill="#ebebeb"/><path d="M227.9,6058.648s1.862-5.388-6.38-11.45c0,0,7.057,6.466,4.741,11.45Z" transform="translate(-220.164 -6044.416)" fill="#ebebeb"/><path d="M231.684,6057.164s3.43-4.823-2.715-12.42c0,0,4.876,7.739,1.129,12.077Z" transform="translate(-223.773 -6043.227)" fill="#ebebeb"/><path d="M236.535,6063.482s-1.609-5.444,6.909-11.234c0,0-7.353,6.232-5.271,11.288Z" transform="translate(-227.381 -6046.863)" fill="#ebebeb"/><path d="M225.8,6062.2s1.609-5.444-6.91-11.235c0,0,7.353,6.233,5.271,11.288Z" transform="translate(-218.889 -6046.241)" fill="#ebebeb"/><path d="M228.969,6065.752H223.4l2.557,8.621h6.03l2.557-8.621Z" transform="translate(-221.073 -6053.406)" fill="#ebebeb"/></g><g transform="translate(4.324 62.994)"><g transform="translate(0 0)"><g transform="translate(0.412 4.561)"><rect width="2.276" height="17.055" transform="translate(0 2.276) rotate(-90)" fill="#ebebeb"/></g><g transform="translate(0 1.932)"><rect width="2.276" height="17.055" transform="translate(0.412 2.62) rotate(-90)" fill="#ebebeb"/><path d="M239.342,6170.724h-17.88v-2.964h17.88Zm-17.055-.687h16.231v-1.588H222.287Z" transform="translate(-221.462 -6167.76)" fill="#ebebeb"/></g><g transform="translate(0.412)"><rect width="2.276" height="17.055" transform="translate(0 2.276) rotate(-90)" fill="#ebebeb"/></g></g><g transform="translate(10.457)"><rect width="0.123" height="2.276" fill="#ebebeb"/></g><g transform="translate(11.831)"><rect width="0.123" height="2.276" fill="#ebebeb"/></g><g transform="translate(13.204)"><rect width="0.123" height="2.276" fill="#ebebeb"/></g><g transform="translate(14.578)"><rect width="0.122" height="2.276" fill="#ebebeb"/></g><rect width="8.027" height="0.375" transform="translate(8.606 4.949)" fill="#ebebeb"/><rect width="8.027" height="0.375" transform="translate(8.606 5.512)" fill="#ebebeb"/><rect width="8.027" height="0.375" transform="translate(8.606 6.074)" fill="#ebebeb"/></g></g><g transform="translate(473.275 94.821)"><g transform="translate(0 20.624)"><rect width="45.251" height="1.616" transform="translate(0.412 0.344)" fill="#ebebeb"/><path d="M1134.921,6084.113h-46.076v-2.3h46.076Zm-45.251-.687H1134.1v-.929h-44.427Z" transform="translate(-1088.845 -6081.81)" fill="#ebebeb"/><g transform="translate(0 24.381)"><rect width="45.251" height="1.616" transform="translate(0.412 0.344)" fill="#ebebeb"/><path d="M1134.921,6131.415h-46.076v-2.3h46.076Zm-45.251-.687H1134.1v-.929h-44.427Z" transform="translate(-1088.845 -6129.111)" fill="#ebebeb"/></g><g transform="translate(0 48.763)"><rect width="45.251" height="1.616" transform="translate(0.412 0.344)" fill="#ebebeb"/><path d="M1134.921,6178.716h-46.076v-2.3h46.076Zm-45.251-.687H1134.1v-.93h-44.427Z" transform="translate(-1088.845 -6176.412)" fill="#ebebeb"/></g><g transform="translate(0 0.539)"><g transform="translate(0 73.144)"><rect width="45.251" height="1.616" transform="translate(0.412 0.344)" fill="#ebebeb"/><path d="M1134.921,6227.061h-46.076v-2.3h46.076Zm-45.251-.687H1134.1v-.93h-44.427Z" transform="translate(-1088.845 -6224.756)" fill="#ebebeb"/></g><g transform="translate(0 96.479)"><rect width="45.251" height="1.616" transform="translate(0.412 0.344)" fill="#ebebeb"/><path d="M1134.921,6272.333h-46.076v-2.3h46.076Zm-45.251-.687H1134.1v-.931h-44.427Z" transform="translate(-1088.845 -6270.029)" fill="#ebebeb"/></g><rect width="2.424" height="117.288" transform="translate(0.412 0.344)" fill="#ebebeb"/><path d="M1092.093,6200.831h-3.248V6082.856h3.248Zm-2.424-.687h1.6v-116.6h-1.6Z" transform="translate(-1088.845 -6082.856)" fill="#ebebeb"/><g transform="translate(42.827)"><rect width="2.424" height="117.288" transform="translate(0.413 0.344)" fill="#ebebeb"/><path d="M1175.179,6200.831h-3.249V6082.856h3.249Zm-2.424-.687h1.6v-116.6h-1.6Z" transform="translate(-1171.93 -6082.856)" fill="#ebebeb"/></g></g></g><g transform="translate(8.111 26.371)"><rect width="4.741" height="18.634" transform="translate(0.413 0.344)" fill="#ebebeb"/><path d="M1110.145,6112.282h-5.565v-19.321h5.565Zm-4.741-.687h3.916v-17.947H1105.4Z" transform="translate(-1104.58 -6092.961)" fill="#ebebeb"/><path d="M1110.073,6100.679a1.588,1.588,0,1,1-1.562-1.3A1.45,1.45,0,0,1,1110.073,6100.679Z" transform="translate(-1105.727 -6096.069)" fill="#ebebeb"/><g transform="translate(5.572)"><rect width="4.741" height="18.634" transform="translate(0.413 0.344)" fill="#ebebeb"/><path d="M1120.955,6112.282h-5.565v-19.321h5.565Zm-4.741-.687h3.916v-17.947h-3.916Z" transform="translate(-1115.39 -6092.961)" fill="#ebebeb"/><path d="M1120.883,6100.679a1.588,1.588,0,1,1-1.562-1.3A1.45,1.45,0,0,1,1120.883,6100.679Z" transform="translate(-1116.537 -6096.069)" fill="#ebebeb"/></g><g transform="translate(11.145)"><rect width="4.741" height="18.634" transform="translate(0.412 0.344)" fill="#ebebeb"/><path d="M1131.766,6112.282H1126.2v-19.321h5.565Zm-4.74-.687h3.915v-17.947h-3.915Z" transform="translate(-1126.201 -6092.961)" fill="#ebebeb"/><path d="M1131.693,6100.679a1.588,1.588,0,1,1-1.562-1.3A1.45,1.45,0,0,1,1131.693,6100.679Z" transform="translate(-1127.348 -6096.069)" fill="#ebebeb"/></g><g transform="translate(16.716)"><rect width="4.741" height="18.634" transform="translate(0.413 0.344)" fill="#ebebeb"/><path d="M1142.575,6112.282h-5.565v-19.321h5.565Zm-4.741-.687h3.917v-17.947h-3.917Z" transform="translate(-1137.01 -6092.961)" fill="#ebebeb"/><path d="M1142.5,6100.679a1.588,1.588,0,1,1-1.562-1.3A1.45,1.45,0,0,1,1142.5,6100.679Z" transform="translate(-1138.157 -6096.069)" fill="#ebebeb"/></g><g transform="translate(22.289)"><rect width="4.741" height="18.634" transform="translate(0.412 0.344)" fill="#ebebeb"/><path d="M1153.386,6112.282h-5.565v-19.321h5.565Zm-4.741-.687h3.916v-17.947h-3.916Z" transform="translate(-1147.821 -6092.961)" fill="#ebebeb"/><path d="M1153.313,6100.679a1.588,1.588,0,1,1-1.562-1.3A1.45,1.45,0,0,1,1153.313,6100.679Z" transform="translate(-1148.968 -6096.069)" fill="#ebebeb"/></g></g><path d="M1107.764,6199.25a7.728,7.728,0,0,1,.738-3.424h-5.682a7.731,7.731,0,0,1,.738,3.424c0,2.072-2.49,5.9-2.49,8.446s2.64,3.387,4.593,3.387,4.593-.836,4.593-3.387S1107.764,6201.321,1107.764,6199.25Z" transform="translate(-1094.767 -6116.432)" fill="#ebebeb"/><g transform="translate(24.118 53.009)"><g transform="translate(0.704)"><path d="M1149.435,6153.9c1.533-3-1.874-2.942-1.615-3.729.487-1.476,2.324.128,3.069-.615s-1.838-3.062-.486-3.865.879,1.914,2.048,1.721.473-3.063,1.852-2.742c1.037.241-.195,2.035-.081,2.874s2.251-.384,2.288.813-2.549.673-2.853,1.583,2.781,1.1,1.7,1.867-3.121-.153-3.658.648S1148.785,6155.169,1149.435,6153.9Z" transform="translate(-1142.237 -6144.64)" fill="#ebebeb"/><path d="M1143.256,6158.719c-1.44-3.029-3.815-.992-4.295-1.7-.9-1.336,1.76-1.271,1.661-2.237s-3.89-1.1-3.606-2.461,2.24.845,2.908.022-2.249-2.455-1-3.035c.94-.437,1.579,1.561,2.367,2.09s1.276-1.592,2.313-.764-1.244,1.973-.693,2.8,2.9-.851,2.783.331-2.346,1.722-2.052,2.605S1143.867,6160.005,1143.256,6158.719Z" transform="translate(-1137.001 -6146.87)" fill="#ebebeb"/></g><path d="M1146.261,6159.481H1138.4s-2.761,1.977-2.761,4.312,1.721,4.76,6.694,4.76,6.693-2.426,6.693-4.76S1146.261,6159.481,1146.261,6159.481Z" transform="translate(-1135.635 -6151.831)" fill="#ebebeb"/></g><g transform="translate(26.048 84.009)"><rect width="7.259" height="8.217" transform="translate(2.246 2.425)" fill="#ebebeb"/><ellipse cx="5.729" cy="2.425" rx="5.729" ry="2.425" fill="#ebebeb"/></g><g transform="translate(20.993 13.078)"><rect width="5.382" height="6.092" transform="translate(1.665 1.798)" fill="#ebebeb"/><path d="M1138.066,6068.969c0,.992-1.9,1.8-4.247,1.8s-4.247-.806-4.247-1.8,1.9-1.8,4.247-1.8S1138.066,6067.976,1138.066,6068.969Z" transform="translate(-1129.571 -6067.171)" fill="#ebebeb"/></g><g transform="translate(2.998)"><path d="M1112.84,6058.648s-1.862-5.388,6.38-11.45c0,0-7.057,6.466-4.741,11.45Z" transform="translate(-1103.382 -6044.416)" fill="#ebebeb"/><path d="M1111.338,6057.256s-4.269-6,3.376-15.456c0,0-6.066,9.631-1.4,15.027Z" transform="translate(-1102.166 -6041.8)" fill="#ebebeb"/><path d="M1103.672,6058.648s1.862-5.388-6.38-11.45c0,0,7.057,6.466,4.741,11.45Z" transform="translate(-1095.936 -6044.416)" fill="#ebebeb"/><path d="M1107.455,6057.164s3.43-4.823-2.716-12.42c0,0,4.876,7.739,1.129,12.077Z" transform="translate(-1099.545 -6043.227)" fill="#ebebeb"/><path d="M1112.306,6063.482s-1.609-5.444,6.909-11.234c0,0-7.353,6.232-5.271,11.288Z" transform="translate(-1103.152 -6046.863)" fill="#ebebeb"/><path d="M1101.57,6062.2s1.609-5.444-6.909-11.235c0,0,7.353,6.233,5.271,11.288Z" transform="translate(-1094.661 -6046.241)" fill="#ebebeb"/><path d="M1104.741,6065.752h-5.572l2.557,8.621h6.03l2.557-8.621Z" transform="translate(-1096.845 -6053.406)" fill="#ebebeb"/></g><g transform="translate(4.324 62.994)"><g transform="translate(0 0)"><g transform="translate(0.412 4.561)"><rect width="2.276" height="17.055" transform="translate(0 2.276) rotate(-90)" fill="#ebebeb"/></g><g transform="translate(0 1.932)"><rect width="2.276" height="17.055" transform="translate(0.413 2.62) rotate(-90)" fill="#ebebeb"/><path d="M1115.113,6170.724h-17.88v-2.964h17.88Zm-17.055-.687h16.231v-1.588h-16.231Z" transform="translate(-1097.233 -6167.76)" fill="#ebebeb"/></g><g transform="translate(0.412)"><rect width="2.276" height="17.055" transform="translate(0 2.276) rotate(-90)" fill="#ebebeb"/></g></g><g transform="translate(10.457)"><rect width="0.123" height="2.276" fill="#ebebeb"/></g><g transform="translate(11.831)"><rect width="0.123" height="2.276" fill="#ebebeb"/></g><g transform="translate(13.205)"><rect width="0.123" height="2.276" fill="#ebebeb"/></g><g transform="translate(14.578)"><rect width="0.122" height="2.276" fill="#ebebeb"/></g><rect width="8.027" height="0.375" transform="translate(8.606 4.949)" fill="#ebebeb"/><rect width="8.027" height="0.375" transform="translate(8.606 5.512)" fill="#ebebeb"/><rect width="8.027" height="0.375" transform="translate(8.606 6.074)" fill="#ebebeb"/></g></g><g transform="translate(230.474 173.245)"><path d="M732.82,6326.773H625.181c-2.055,0-3.537-1.675-2.967-3.354h0a3.061,3.061,0,0,1,2.967-1.9H732.82a3.061,3.061,0,0,1,2.967,1.9h0C736.357,6325.1,734.875,6326.773,732.82,6326.773Z" transform="translate(-619.881 -6253.916)" fill="#ebebeb" opacity="0.32"/><g transform="translate(0 23.26)"><rect width="2.082" height="44.101" transform="translate(1.241 0.247)" fill="#ebebeb"/><rect width="2.082" height="44.101" transform="translate(114.329 0.247)" fill="#ebebeb"/><path d="M735.623,6240.3H618.484l.891-4.336H734.532Z" transform="translate(-618.133 -6235.719)" fill="#ebebeb"/><path d="M735.657,6240.315H617.8l.992-4.828H734.443Zm-117.153-.492H734.929l-.966-3.843H619.295Z" transform="translate(-617.804 -6235.487)" fill="#ebebeb"/><g transform="translate(0.055 4.336)"><path d="M735.423,6244.377H618.484v45.264h1.933v-42.293H733.689v42.293h1.933v-45.264Z" transform="translate(-618.188 -6244.13)" fill="#ebebeb"/><path d="M735.64,6289.655h-2.525v-42.293H620.435v42.293H617.91V6243.9H735.64Zm-1.933-.493h1.342v-44.771H618.5v44.771h1.342v-42.293H733.707Z" transform="translate(-617.91 -6243.898)" fill="#ebebeb"/></g></g><g transform="translate(80.286)"><path d="M812.066,6192.186V6208.4a2.124,2.124,0,0,1-2.321,1.822H775.883a2.125,2.125,0,0,1-2.322-1.822v-16.211a2.128,2.128,0,0,1,2.322-1.824h33.862A2.127,2.127,0,0,1,812.066,6192.186Z" transform="translate(-773.561 -6190.362)" fill="#ebebeb"/><path d="M776.613,6210.185a1.414,1.414,0,0,1-1.547-1.216v-16.211a1.414,1.414,0,0,1,1.547-1.216h33.859a1.414,1.414,0,0,1,1.548,1.216v16.211a1.414,1.414,0,0,1-1.548,1.216Z" transform="translate(-774.29 -6190.934)" fill="#ebebeb"/><g transform="translate(1.254 0.97)"><path d="M777.341,6210.148a.706.706,0,0,1-.774-.608v-16.211a.706.706,0,0,1,.774-.607H811.2a.707.707,0,0,1,.774.607v16.211a.707.707,0,0,1-.774.608Z" transform="translate(-776.271 -6192.475)" fill="#ebebeb"/><path d="M810.922,6210.163H777.063a.981.981,0,0,1-1.07-.854V6193.1a.981.981,0,0,1,1.07-.854h33.859a.981.981,0,0,1,1.07.854v16.211A.981.981,0,0,1,810.922,6210.163Zm-33.859-17.426c-.264,0-.478.162-.478.361v16.211a.433.433,0,0,0,.478.361h33.859a.433.433,0,0,0,.478-.361V6193.1c0-.2-.214-.361-.478-.361Z" transform="translate(-775.993 -6192.243)" fill="#ebebeb"/></g><path d="M811.183,6220.646H802.1l1.025-8.768h7.031Z" transform="translate(-787.391 -6200.788)" fill="#ebebeb"/><g transform="translate(14.677 10.379)"><path d="M811.168,6225.224h-8.513l1.337-14.249h5.84Z" transform="translate(-802.335 -6210.729)" fill="#ebebeb"/><path d="M811.187,6225.239h-9.152l1.382-14.741H809.8Zm-8.513-.493h7.874l-1.29-13.755h-5.293Z" transform="translate(-802.035 -6210.498)" fill="#ebebeb"/></g><g transform="translate(8.896 24.02)"><path d="M811.516,6239.618H791.394a2.53,2.53,0,0,1,2.773-2.178h14.576a2.53,2.53,0,0,1,2.773,2.178Z" transform="translate(-791.098 -6237.193)" fill="#ebebeb"/><path d="M811.534,6239.632H790.82v-.247c0-1.337,1.377-2.425,3.069-2.425h14.576c1.692,0,3.069,1.088,3.069,2.425Zm-20.1-.493h19.491a2.354,2.354,0,0,0-2.458-1.685H793.889A2.354,2.354,0,0,0,791.431,6239.139Z" transform="translate(-790.82 -6236.961)" fill="#ebebeb"/></g></g></g></g><g transform="translate(540.603 6031.076)"><g transform="translate(11.786)"><path d="M913.077,6198.246s-.976-5.453-1.418-6.652c-.571-1.549-.85-3.857.72-5.215s1.807-4.555,1.807-5.043.589-7.824,7.064-6.737c0,0,2.682.544,1.374,4.456,0,0-1.374,2.335.359,3.8s3.238,4.835,0,8.1-2.315,4.453-1.8,5.7c2.359,5.706-2.66,10.945-3.205,12.343s-1.2,3.692-.652,5.013l-1.9.029Z" transform="translate(-911.208 -6174.488)" fill="#ebebeb"/></g><g transform="translate(16.493 5.521)"><path d="M920.861,6219.439a.474.474,0,0,0,.058,0,.245.245,0,0,0,.224-.283c-.728-2.943.549-8.188.562-8.241.7-2.233.909-5.085-.258-12.358a23.288,23.288,0,0,1,.355-9.542,14.183,14.183,0,0,1,1.331-3.466.221.221,0,0,0-.127-.321.317.317,0,0,0-.387.1,14.265,14.265,0,0,0-1.375,3.56,23.687,23.687,0,0,0-.368,9.727c1.15,7.171.94,10.059.268,12.186-.058.232-1.318,5.406-.566,8.446A.28.28,0,0,0,920.861,6219.439Z" transform="translate(-920.341 -6185.199)" fill="#fff"/></g><g transform="translate(18.056 20.953)"><path d="M925.627,6233.851s0-1.286,3.177-2.5a4.877,4.877,0,0,0,3.177-3.18c.815-2.571,3.1-1.9,4.562-1.151s4.8,0,4.8-3.856a2.3,2.3,0,0,1,1.136-3.112c2.127-1.083,2.941-4.95-1.621-4.911s-8.859,1.911-13.278,7.347c-6.141,7.555-3.75,11.367-3.75,11.367Z" transform="translate(-923.373 -6215.137)" fill="#ebebeb"/></g><g transform="translate(18.599 23.662)"><path d="M924.919,6236.637a.325.325,0,0,0,.088-.012.237.237,0,0,0,.186-.3,4.836,4.836,0,0,1-.018-2.523.213.213,0,0,0,.022-.048c2.463-7.723,14.611-12.854,14.733-12.906a.221.221,0,0,0,.128-.32.317.317,0,0,0-.386-.107c-.125.052-12.479,5.272-15.024,13.189a4.731,4.731,0,0,0,0,2.864A.283.283,0,0,0,924.919,6236.637Z" transform="translate(-924.426 -6220.394)" fill="#fff"/></g><g transform="translate(0 9.5)"><path d="M901.964,6222.97s-3.336-1.575-2.682-4.727-2.747-3.857-3.532-3.965-5.887-1.848-5.1-8.2c0,0,.261-4.074-.654-5.541s-3.205-5.867,0-7.226,5.429,1.086,6.606,3.585c0,0,.916,2.879,1.7,3.586a15.642,15.642,0,0,1,6.018,13.419l-1.114,9.072Z" transform="translate(-888.344 -6192.919)" fill="#ebebeb"/></g><g transform="translate(4.568 14.497)"><path d="M906.781,6227.907a.269.269,0,0,0,.287-.23c.33-7.307-3.484-16.836-5.672-19.59a47.318,47.318,0,0,1-3.643-5.336.315.315,0,0,0-.383-.114.223.223,0,0,0-.138.318,47.923,47.923,0,0,0,3.683,5.4c2.152,2.708,5.9,12.1,5.578,19.309a.263.263,0,0,0,.277.248Z" transform="translate(-897.205 -6202.614)" fill="#fff"/></g><path d="M917.9,6264.9H905.57l-2.985-14.039H920.89Z" transform="translate(-895.244 -6211.496)" fill="#ebebeb"/></g><g transform="translate(344.737 6039.175)"><g transform="translate(0 0)"><g transform="translate(10.025)"><path d="M529.4,6210.171s-.83-4.639-1.206-5.659c-.485-1.318-.723-3.282.612-4.437s1.537-3.875,1.537-4.291.5-6.654,6.009-5.73c0,0,2.281.462,1.169,3.79,0,0-1.169,1.987.306,3.235s2.754,4.113,0,6.886-1.97,3.788-1.53,4.852c2.007,4.854-2.263,9.311-2.726,10.5s-1.02,3.141-.555,4.265l-1.62.024Z" transform="translate(-527.808 -6189.962)" fill="#ebebeb"/></g><g transform="translate(14.03 4.696)"><path d="M536.019,6228.2a.341.341,0,0,0,.049,0,.207.207,0,0,0,.191-.24c-.619-2.5.467-6.966.478-7.01.6-1.9.773-4.325-.22-10.512a19.818,19.818,0,0,1,.3-8.116,12.1,12.1,0,0,1,1.132-2.949.188.188,0,0,0-.108-.273.27.27,0,0,0-.329.09,12.152,12.152,0,0,0-1.169,3.028,20.142,20.142,0,0,0-.313,8.274c.978,6.1.8,8.556.228,10.367-.049.2-1.121,4.6-.481,7.185A.238.238,0,0,0,536.019,6228.2Z" transform="translate(-535.577 -6199.073)" fill="#fff"/></g><g transform="translate(15.359 17.824)"><path d="M540.073,6240.459s0-1.093,2.7-2.129a4.15,4.15,0,0,0,2.7-2.705c.693-2.187,2.633-1.612,3.88-.978s4.081,0,4.084-3.281a1.955,1.955,0,0,1,.966-2.647c1.809-.921,2.5-4.21-1.378-4.177s-7.536,1.624-11.3,6.249c-5.224,6.427-3.19,9.669-3.19,9.669Z" transform="translate(-538.156 -6224.541)" fill="#ebebeb"/></g><g transform="translate(15.821 20.128)"><path d="M539.471,6242.83a.287.287,0,0,0,.075-.01.2.2,0,0,0,.158-.256,4.108,4.108,0,0,1-.015-2.147.207.207,0,0,0,.019-.041c2.1-6.569,12.429-10.936,12.533-10.979a.189.189,0,0,0,.109-.273.271.271,0,0,0-.328-.09c-.106.044-10.615,4.485-12.78,11.219a4.023,4.023,0,0,0,0,2.437A.24.24,0,0,0,539.471,6242.83Z" transform="translate(-539.052 -6229.012)" fill="#fff"/></g><g transform="translate(0 8.081)"><path d="M519.944,6231.2s-2.838-1.34-2.281-4.02-2.337-3.282-3-3.374-5.008-1.571-4.34-6.978c0,0,.223-3.467-.556-4.714s-2.726-4.991,0-6.146,4.618.924,5.62,3.05a10.694,10.694,0,0,0,1.446,3.05,13.307,13.307,0,0,1,5.119,11.415L521,6231.2Z" transform="translate(-508.358 -6205.64)" fill="#ebebeb"/></g><g transform="translate(3.885 12.332)"><path d="M524.042,6235.4a.228.228,0,0,0,.244-.2c.281-6.216-2.964-14.323-4.825-16.664a40.376,40.376,0,0,1-3.1-4.54.269.269,0,0,0-.326-.1.19.19,0,0,0-.117.271,40.8,40.8,0,0,0,3.133,4.589c1.831,2.3,5.023,10.29,4.745,16.425a.223.223,0,0,0,.236.211Z" transform="translate(-515.896 -6213.887)" fill="#fff"/></g></g><path d="M533.5,6266.875H523.012l-2.539-11.942h15.572Z" transform="translate(-514.228 -6221.443)" fill="#ebebeb"/></g><g transform="translate(403.257 5984.682)"><g transform="translate(0 0)"><g transform="translate(-4 -1)"><rect width="175.089" height="48.468" rx="11.604" transform="translate(-5 25.207)" fill="#fff" stroke="#231f20" stroke-miterlimit="10" stroke-width="0.25"/><path d="M936.347,6145.346l36.977-22.176-36.977,7.539Z" transform="translate(-766.257 -6094.998)" fill="#fff" stroke="#231f20" stroke-miterlimit="10" stroke-width="0.25"/></g></g></g><g transform="translate(592.632 5978.122)"><g transform="translate(0 0)"><g transform="translate(0 92.45)"><path d="M1027.944,6250.638l-8.432,1.585c-7.415,26.487-5.594,58.063-22.164,112.141,0,0,1.583.69,1.811,0,13.786-41.815,21.325-74.6,24-79.106C1029.1,6275.249,1036.537,6266.739,1027.944,6250.638Z" transform="translate(-993.19 -6246.552)" fill="#ffd8a3"/><path d="M1047.325,6247.455c10.377,19.354,2.607,17.854,2.27,27.864-.973,28.865,17.431,43.547,23.144,87.7,0,0-2.262-.115-2.327-.753-3.549-35.224-34.761-68.925-36.045-101.628-.083-2.108-.176-8.408,2.284-10.662C1040.41,6246.527,1047.325,6247.455,1047.325,6247.455Z" transform="translate(-1011.112 -6244.955)" fill="#f7c371"/><path d="M1095.547,6470.095h6.781s.328-1.925-1.185-2.233C1100.191,6467.667,1098.506,6468.114,1095.547,6470.095Z" transform="translate(-1040.771 -6351.787)" fill="#7b88ac"/><path d="M989.281,6470.418h5.961s.288-1.923-1.042-2.232C993.363,6467.991,991.883,6468.438,989.281,6470.418Z" transform="translate(-989.281 -6351.944)" fill="#7b88ac"/><path d="M1051.5,6311.028s-28.468,4.577-34.992,2.747c0,0,6.227-64.691,10.676-68.658s12.454-1.83,12.454-1.83a25.17,25.17,0,0,1,4.152,26.853C1037.859,6284.175,1051.5,6311.028,1051.5,6311.028Z" transform="translate(-1002.474 -6242.712)" fill="#9ea9fc"/></g><g transform="translate(7.663)"><g transform="translate(0 45.52)"><g transform="translate(0 17.465)"><path d="M1019.952,6198.271c-1.776-1.187-7.026-.816-6.634-2.639.35-1.632,3.329-3.736,7.493,1.223Z" transform="translate(-1008.581 -6189.528)" fill="#f8c471"/><path d="M1016.982,6194.047c-.436,2.921-3.993,2.377-5.073,1.947-1.188-.474-1.464-2.784-.774-3.532S1017.147,6192.93,1016.982,6194.047Z" transform="translate(-1007.353 -6188.787)" fill="#f8c471"/><path d="M1015.334,6189.354c-.958-1.453-1.355-3.576-.722-3.784.713-.237.711,1.652,1.889,2.748,1.274,1.188,2.011,2,1.579,2.518S1016.292,6190.812,1015.334,6189.354Z" transform="translate(-1009.07 -6185.55)" fill="#f8c471"/><path d="M1008.341,6191.151c-1.383-.56-1.977-1.17-1.786-1.519s.959.018,2.341.574,3.278.924,3.088,1.274S1009.724,6191.706,1008.341,6191.151Z" transform="translate(-1005.297 -6187.46)" fill="#f8c471"/><path d="M1006.71,6194.426c-1.5-.275-2.668-1.177-2.554-1.552s1.427.207,2.923.482,2.452.534,2.337.908S1008.206,6194.7,1006.71,6194.426Z" transform="translate(-1004.148 -6189.04)" fill="#f8c471"/><path d="M1008.783,6197.929c-1.483-.335-2.235-.857-2.111-1.228s1.06.036,2.542.371,2.516.59,2.392.961S1010.267,6198.265,1008.783,6197.929Z" transform="translate(-1005.365 -6190.881)" fill="#f8c471"/></g><g transform="translate(10.911)"><path d="M1045.152,6151.859c4.781-2.925,17.272,28.223,17.276,29.415,0,0-2.458,1.92-3.487.96C1056.281,6179.751,1043.018,6153.166,1045.152,6151.859Z" transform="translate(-1034.815 -6151.666)" fill="#9ea9fc"/><path d="M1028.233,6199.1c-1.162,4.247,23.153,6.247,24.054,5.983,0,0,1.9-2.755.948-3.314C1050.778,6200.326,1028.752,6197.206,1028.233,6199.1Z" transform="translate(-1026.709 -6174.363)" fill="#9ea9fc"/><path d="M1025.616,6198.411l.7-1.15,5.1-.5a10.491,10.491,0,0,1-1.258,2.605C1029.689,6199.729,1025.616,6198.411,1025.616,6198.411Z" transform="translate(-1025.461 -6173.518)" fill="#eaeaea"/><path d="M1025.488,6199.771l-.173,1.343,3.71,3.534a10.531,10.531,0,0,0,.652-2.841C1029.536,6201.235,1025.488,6199.771,1025.488,6199.771Z" transform="translate(-1025.315 -6174.975)" fill="#eaeaea"/></g></g><g transform="translate(9.384)"><g transform="translate(0 25.57)"><path d="M1058.949,6112.961l-6.283,3.948-1.128,13.587,5.049-1.826Z" transform="translate(-1036.495 -6112.961)" fill="#f7c371"/><path d="M1025.464,6206.96c4.038-2.646,13.412-8.493,23.808-1.253-3.109-9.131-5.933-18.108-6.033-25.618-.186-13.922,11.647-30.276,1.856-36.571-10.4-6.683-22.741,24.18-22.741,24.18C1032.75,6173.545,1029.873,6190.309,1025.464,6206.96Z" transform="translate(-1022.354 -6127.309)" fill="#7b88ac"/><path d="M1055.692,6141.777l-1.826-.214-8.163,7.68,2.417,2.04S1053.6,6145.7,1055.692,6141.777Z" transform="translate(-1033.668 -6126.82)" fill="#fff"/><path d="M1039.032,6151.481c-.039-.027-.075-.055-.115-.083,2.155-4.3,6.863-10.881,11.409-10.458C1046.189,6144.633,1039.032,6151.481,1039.032,6151.481Z" transform="translate(-1030.38 -6126.51)" fill="#f7c371"/></g><g transform="translate(5.542)"><path d="M1045.845,6097.639c-6.457-2.227-14.955-14.02-12.21-21.537,2.678-7.335,7.544-5.575,7.868-6.352.239-.569-1.042-4.332,5.707-6,7.616-1.881,15.131,3.164,15.8,10.541.8,8.779-1.434,18.885-5.821,21.572S1045.845,6097.639,1045.845,6097.639Z" transform="translate(-1033.106 -6063.356)" fill="#f8c471"/></g><g transform="translate(6.297 4.099)"><path d="M1050.245,6099.343c3.4-.73,10.194-1.421,13.724-6.289,4.59-6.329,3.747-10.452,2.62-15.474-2.149-9.573-18.468-6.068-17.62-3.236C1050.094,6078.105,1037.933,6101.986,1050.245,6099.343Z" transform="translate(-1039.473 -6071.31)" fill="#f8c471"/><path d="M1040.423,6104.867c-1.22-.068-3.046-6.494-3.424-11.365-.124-1.606,1.6-1.7,1.8-7.14.117-3.2,1.841-7.531,7.365-10.4,5.215-2.708,5.031,7.218,5.334,9.532.863,6.588,2.3,10.776.448,13.835C1048.334,6105.306,1041.759,6104.627,1040.423,6104.867Z" transform="translate(-1035.744 -6073.339)" fill="#ffd8a3"/><path d="M1044.548,6115.776a.281.281,0,0,0-.237-.319.3.3,0,0,0-.262.311.282.282,0,0,0,.238.319A.3.3,0,0,0,1044.548,6115.776Z" transform="translate(-1039.162 -6092.701)" fill="#ffab00"/><path d="M1045.117,6099.345c.254-.82,0-1.62-.568-1.785s-1.234.367-1.487,1.189,0,1.62.569,1.785S1044.864,6100.167,1045.117,6099.345Z" transform="translate(-1038.637 -6084.014)" fill="#2d356b"/><path d="M1045.916,6099.456c-.393-1.394-1.12-2.9-3.5-2.89A8.211,8.211,0,0,1,1045.916,6099.456Z" transform="translate(-1038.371 -6083.547)" fill="#2d356b"/><path d="M1040.107,6122.537c-.025-.2-.677.469-.969.478-.825.023-.65,1.084.178.977C1039.64,6123.949,1040.133,6122.75,1040.107,6122.537Z" transform="translate(-1036.522 -6096.113)" fill="#f36973"/><path d="M1040.772,6115.725c.568-.189-3.125-1.483-2.517-.171A5.9,5.9,0,0,0,1040.772,6115.725Z" transform="translate(-1036.323 -6092.466)" fill="#f36973"/><path d="M1041.855,6089.441a5.008,5.008,0,0,1,5.849,3.483C1046.206,6090.608,1044.993,6089.707,1041.855,6089.441Z" transform="translate(-1038.099 -6080.058)" fill="#2d356b"/><path d="M1035.382,6106.485l1.855.684.34-4.817-3.007,3.273Z" transform="translate(-1034.569 -6086.351)" fill="#ffd8a3"/><path d="M1036.93,6113.05l-1.3-3.067,1.42.029Z" transform="translate(-1035.084 -6090.048)" fill="#ffd8a3"/><path d="M1038.625,6119.974a35.694,35.694,0,0,1-.695-4.237l3.409.192S1040.458,6119.5,1038.625,6119.974Z" transform="translate(-1036.198 -6092.837)" fill="#ffab00"/><path d="M1040.405,6117.973l-1.942-.109c-.082-.532-.155-1.088-.219-1.663l2.786.157Z" transform="translate(-1036.35 -6093.061)" fill="#fff"/><path d="M1069.729,6105.75c.007-1.491-.435-2.616.7-2.608s2.046,1.224,2.039,2.717-.934,2.7-2.067,2.688S1069.72,6107.243,1069.729,6105.75Z" transform="translate(-1051.558 -6086.733)" fill="#f7c371"/><path d="M1050.113,6075.971c3.275,5.612,9.1,13.877,7.158,21.5,3.637-8.028,2.839-19.057-2.352-23.872C1054.3,6074.39,1049.438,6073.867,1050.113,6075.971Z" transform="translate(-1042.07 -6072.418)" fill="#f8c471"/></g></g><g transform="translate(1.457 45.172)"><g transform="translate(0 14.922)"><path d="M1022.673,6196.322c-1.651-1.861-7.674-2.986-6.7-4.924.875-1.735,4.848-3.229,8.08,3.581Z" transform="translate(-1011.285 -6184.783)" fill="#ffd9a4"/><path d="M1020.633,6190.342c-1.35,3.162-5.2,1.5-6.287.7-1.2-.882-.83-3.565.167-4.206S1021.147,6189.132,1020.633,6190.342Z" transform="translate(-1010.182 -6183.237)" fill="#ffd9a4"/><path d="M1020.352,6184.416c-.651-1.919-.474-4.427.3-4.475.873-.057.315,2.07,1.319,3.65,1.084,1.713,1.675,2.847,1.038,3.3S1021,6186.338,1020.352,6184.416Z" transform="translate(-1013.263 -6179.94)" fill="#ffd9a4"/><path d="M1012.2,6184.346c-1.393-1.037-1.882-1.9-1.565-2.237s1.075.3,2.468,1.336,3.421,2,3.1,2.343S1013.592,6185.377,1012.2,6184.346Z" transform="translate(-1008.701 -6180.947)" fill="#ffd9a4"/><path d="M1009.428,6187.539c-1.605-.75-2.659-2.111-2.421-2.5s1.547.651,3.151,1.4,2.6,1.323,2.364,1.711S1011.032,6188.288,1009.428,6187.539Z" transform="translate(-1006.974 -6182.371)" fill="#ffd9a4"/><path d="M1010.717,6192.1c-1.572-.814-2.265-1.624-2.016-2s1.183.352,2.754,1.165,2.661,1.406,2.411,1.788S1012.29,6192.918,1010.717,6192.1Z" transform="translate(-1007.787 -6184.813)" fill="#ffd9a4"/></g><g transform="translate(10.89)"><path d="M1064.893,6151.058c6.245-1.889,11.152,36.866,10.8,38.21,0,0-3.333,1.44-4.209.056C1069.223,6185.744,1062.105,6151.9,1064.893,6151.058Z" transform="translate(-1045.619 -6150.991)" fill="#9ea9fc"/><path d="M1032.067,6199.481c-2.558,4.442,24.239,13.846,25.332,13.814,0,0,2.948-2.545,2.042-3.455C1057.1,6207.49,1033.209,6197.5,1032.067,6199.481Z" transform="translate(-1029.939 -6174.361)" fill="#9ea9fc"/><path d="M1029.152,6198.253l1.127-1.089,5.884.938a12.2,12.2,0,0,1-2.183,2.564C1033.351,6200.935,1029.152,6198.253,1029.152,6198.253Z" transform="translate(-1028.61 -6173.364)" fill="#eaeaea"/><path d="M1028.691,6199.077l-.591,1.461,3.139,5.071s1.56-2.323,1.57-3.008S1028.691,6199.077,1028.691,6199.077Z" transform="translate(-1028.1 -6174.291)" fill="#eaeaea"/></g></g></g></g></g><g transform="translate(185.569 5871.997)"><g transform="translate(0 7.845)"><g transform="translate(2 3.214)"><path d="M397.649,5925.689c7.5,7.314,1.51,15.2-14.656,18.268-17.173,3.258-39.467-.125-50.471-7.561-8.661,4.073-21.864,7.212-37,8.325-27.909,2.051-51.823-3.563-53.414-12.54a6.593,6.593,0,0,1,1.644-5.294c-23.6,3.418-37.47-.312-43.347-10.453-4.337-7.482,8.062-20.629,42.123-23.131,4.343-.319,8.6-.526,12.723-.628-.09-.247-1.308-1.655.458-4.109,7.675-10.663,34.706-12.329,62.918-10.11,23.755,1.869,35.618,8.745,41.12,14.97,0,0,67.525-11.877,79.647,12.736C439.389,5906.161,452.9,5927.858,397.649,5925.689Z" transform="translate(-199.568 -5877.599)" fill="#fff" stroke="#ebebeb" stroke-miterlimit="10" stroke-width="1"/><circle cx="8.341" cy="8.341" r="8.341" transform="translate(24.503 58.986)" fill="#fff" stroke="#ebebeb" stroke-miterlimit="10" stroke-width="1"/><circle cx="4.943" cy="4.943" r="4.943" transform="translate(32.844 78.352)" fill="#fff" stroke="#ebebeb" stroke-miterlimit="10" stroke-width="1"/><circle cx="4.228" cy="4.228" r="4.228" transform="translate(49.788 84.01)" fill="#fff" stroke="#ebebeb" stroke-miterlimit="10" stroke-width="1"/></g></g></g><g transform="translate(295.797 5938.016)"><rect width="123.499" height="45.717" rx="11.604" transform="translate(25.865 18.275)" fill="#fff" stroke="#231f20" stroke-miterlimit="10" stroke-width="0.25"/><path d="M451.173,6084.649l-34.97,11.427,53.569-11.427Z" transform="translate(-413.412 -6020.658)" fill="#fff" stroke="#231f20" stroke-miterlimit="10" stroke-width="0.25"/></g><g transform="translate(221.914 5972.304)"><g transform="translate(32.166 110.549)"><path d="M371.342,6267.938s-14.263,22.394-12.777,23.755c2.816,2.579,8.581,35.353,15.727,83.941.18,1.232,3-.168,3-.168C371.576,6351.9,371.342,6267.938,371.342,6267.938Z" transform="translate(-345.067 -6267.217)" fill="#9999a5"/><path d="M370.4,6272.5s4.918,79.772,11.138,103.543a8.792,8.792,0,0,0,1.546-.574c-5.72-23.567-5.954-107.528-5.954-107.528Z" transform="translate(-350.853 -6267.217)" fill="#9999a5"/><path d="M359.019,6267.268s-27.044-1.9-26.532.434c3.179,14.508-2.275,44.248,2.317,106.634l2.5.082c-2.688-41.071,3.489-65.669,10.7-78.905,3.728-6.843,7.851-7.759,11.012-6.99C359.245,6280.2,359.019,6267.268,359.019,6267.268Z" transform="translate(-332.48 -6266.537)" fill="#cfd0d8"/><rect width="1.197" height="7.586" transform="translate(17.008 4.215) rotate(-88.114)" fill="#9999a5"/><rect width="2.008" height="1.603" transform="translate(25.383 5.042) rotate(-88.114)" fill="#9999a5"/><path d="M343.164,6475.8l-7.811-.258s.774-2.632,2.315-2.447S343.164,6475.8,343.164,6475.8Z" transform="translate(-333.872 -6366.618)" fill="#0080af"/><path d="M396.189,6477.543l-7.812-.257s.775-2.632,2.316-2.448S396.189,6477.543,396.189,6477.543Z" transform="translate(-359.565 -6367.463)" fill="#0080af"/></g><g transform="translate(18.704 25.519)"><path d="M361.154,6129.542l-1.075.381-.36,2.716,2.467.977Z" transform="translate(-332.217 -6115.126)" fill="#eaeaea"/><path d="M346.23,6105.284l-10.161-3.708-.352,16.355,14.543,4.165Z" transform="translate(-320.586 -6101.576)" fill="#f7c371"/><path d="M371.166,6200.66l-19.146,5.991-.948,28.788,16.991.664Z" transform="translate(-328.026 -6149.586)" fill="#eaeaea"/><path d="M314.423,6213.972c12.221-.37,26.406-4.961,32.617-19,3.36-7.6,3.28-20.1,3.444-32.5.219-16.566-18.319-38.216-33.014-33.261-20.424,6.888-6.9,33.7-4.465,40.773C320.13,6190.721,314.89,6209.349,314.423,6213.972Z" transform="translate(-306.363 -6114.619)" fill="#ffac00"/><path d="M338,6221.926c-.192-5.438-2.76-22.13-13-40.65-1.986-3.593-4.267-14.338-6.426-23.312-.806-3.35-6.522,3.127-7.341,11.363-.508,5.109,3.173,11.794,4.1,14.5,7.126,20.732,1.887,39.36,1.419,43.983C323.827,6227.6,331.545,6225.971,338,6221.926Z" transform="translate(-308.703 -6128.461)" fill="#f8c471"/><path d="M358.506,6178.357c-1.6-21.358-18.565-42.008-33.5-47.623-2.509-.943-.323-2.841,6.782-2.358C338.148,6128.834,363.905,6140.887,358.506,6178.357Z" transform="translate(-314.913 -6114.524)" fill="#ffac00"/><path d="M364.812,6164.451c-2.855-17.916-9.8-27.2-25.7-36,6.2.448,30.967,8.241,27.188,43.373C366.2,6172.716,365.305,6167.548,364.812,6164.451Z" transform="translate(-322.229 -6114.597)" fill="#eaeaea"/><path d="M384.8,6246.535c.083-.754-.271-1.411-.792-1.47s-1.011.507-1.094,1.262.271,1.412.791,1.469S384.715,6247.289,384.8,6246.535Z" transform="translate(-343.449 -6171.101)" fill="#ffd9a4"/><path d="M386.719,6229.2c.083-.752-.271-1.41-.792-1.469s-1.01.507-1.094,1.262.27,1.411.791,1.468S386.635,6229.953,386.719,6229.2Z" transform="translate(-344.379 -6162.701)" fill="#ffd9a4"/><path d="M357.024,6133.172l3.7,1.183-1.378-3.97-.706-.358Z" transform="translate(-330.91 -6115.362)" fill="#03b4e9"/><path d="M377.869,6177.981l-1.324-7.228s2.727-22.71-13.9-33.67l.186-.577C376.508,6145.953,381,6162.655,377.869,6177.981Z" transform="translate(-333.632 -6118.501)" fill="#03b4e9"/><path d="M347.174,6126.234l-14.539-3.519-1.768,2.94,13.839,5.245Z" transform="translate(-318.236 -6111.818)" fill="#fff"/></g><g transform="translate(0 41.424)"><path d="M270.436,6170.573c-3.638-.9,21.446-39.149,27.563-38.121,0,0,10.282,5.6,5.233,26.141C303.232,6158.593,283.726,6173.865,270.436,6170.573Z" transform="translate(-270.077 -6132.432)" fill="#f8c471"/><path d="M275.98,6191.226c13.156,6.431,30.106-9.948,30.106-9.948a8.567,8.567,0,0,0,.46-2.029C292.744,6191.105,275.433,6190.958,275.98,6191.226Z" transform="translate(-272.931 -6155.117)" fill="#ffac00"/><path d="M338.163,6280.713c.321-.549-.551-1.255-1.639-1.893s-1.976-.97-2.3-.42.3,1.511,1.387,2.15S337.841,6281.262,338.163,6280.713Z" transform="translate(-301.119 -6203.025)" fill="#f7c371"/><path d="M335.518,6282.929c.321-.549-.548-1.254-1.637-1.894s-1.978-.97-2.3-.419.3,1.512,1.387,2.148S335.2,6283.478,335.518,6282.929Z" transform="translate(-299.837 -6204.098)" fill="#f7c371"/><path d="M341.371,6276.123c-.474-.426-1.694.686-2.94,2.075s-2.049,2.53-1.573,2.957,1.867-.359,3.114-1.75S341.846,6276.547,341.371,6276.123Z" transform="translate(-302.368 -6202.011)" fill="#ffd8a3"/><path d="M327.241,6263.255c2.271,1.478,9.758,5.535,8.458,8.249-1.164,2.426-5.821,3.6-10.319-6.427Z" transform="translate(-296.873 -6195.821)" fill="#ffd8a3"/><path d="M323.307,6264.821l-4.314-2.965,5.925-5.175,2.093,4.69Z" transform="translate(-293.779 -6192.635)" fill="#eaeaea"/><path d="M270.375,6200.547s6.033,12.578,26.115,32.476c0,0,3.106-.425,5.7-5.246,0,0-8.016-23.116-18.515-33.124C283.675,6194.653,271.682,6195.22,270.375,6200.547Z" transform="translate(-270.221 -6162.58)" fill="#f8c471"/><path d="M321.951,6256.151a1.106,1.106,0,1,0,.289-1.692A1.228,1.228,0,0,0,321.951,6256.151Z" transform="translate(-295.113 -6191.502)" fill="#ffac00"/></g><g transform="translate(24.956)"><path d="M324.794,6079.24c-7.078-8.449-6.46-22.39-6.118-22.878,3.648-5.218,13.933-4.769,19.122-3.368,4.375,1.18,7.811,3.6,5.641,7.015-.749,1.179-4.225-1.481-5.287-1.34-2.007.267-3.208,27.88-3.208,27.88Z" transform="translate(-318.492 -6052.068)" fill="#219ecc"/><g transform="translate(7.106 6.37)"><g transform="translate(2.182)"><path d="M368.028,6106.217l1.028-1.752-1.406-.86Z" transform="translate(-351.599 -6083.41)" fill="#ffd8a3"/><path d="M337.462,6088.615c.852,2.334,8.12,7.262,15.274,6.863.707-9.319.2-24.683-1.567-27.286-1.734-2.562-8.609-4.373-9.443-3.578,2.538,2.961-1.388,12.967-2.842,13.9C335.342,6080.78,336.573,6086.181,337.462,6088.615Z" transform="translate(-336.51 -6064.426)" fill="#ffd8a3"/><path d="M371.027,6097.518a65.991,65.991,0,0,1-3.61-7.817c-1.1-2.922-.629,7.857-.629,7.857S369.986,6098.258,371.027,6097.518Z" transform="translate(-351.132 -6076.43)" fill="#ffd8a3"/><path d="M367.039,6122.434c.719-.315,1.071-1,.786-1.539a1.419,1.419,0,0,0-1.821-.4c-.72.314-1.072,1-.786,1.539A1.419,1.419,0,0,0,367.039,6122.434Z" transform="translate(-350.372 -6091.52)" fill="#ffd8a3"/><path d="M368.566,6115.1c.022-.188-.191-.37-.477-.4s-.535.091-.557.28.191.368.476.4S368.543,6115.292,368.566,6115.1Z" transform="translate(-351.541 -6088.784)" fill="#ffd8a3"/></g><path d="M336.793,6090.406c-.418-1.69-1.738-2.875-2.95-2.643s-1.856,1.79-1.439,3.48,2.732,2.655,3.944,2.423S337.21,6092.1,336.793,6090.406Z" transform="translate(-332.278 -6075.72)" fill="#ffd8a3"/></g><path d="M366.59,6107.525l-.209,3.8s-1.061-.1-1.3-.572a13.307,13.307,0,0,1-.8-3.812Z" transform="translate(-340.679 -6078.657)" fill="#ffab00"/><path d="M366.828,6107.824l-.187,3.376s-.784-.063-.954-.275a9.477,9.477,0,0,1-.765-3.607Z" transform="translate(-340.984 -6078.84)" fill="#fff"/><path d="M363.166,6084.557a.923.923,0,0,0-.241-.607c-.387-.4-3.594.624-3.548,1.3l.03.419c.034.484.988-.038,1.948-.178.919-.135,1.847.13,1.831-.327Z" transform="translate(-338.303 -6067.473)" fill="#2d356b"/><path d="M363.191,6091.392c.013-.563-.286-1.057-.667-1.1s-.7.374-.716.936.284,1.056.666,1.1S363.176,6091.954,363.191,6091.392Z" transform="translate(-339.48 -6070.586)" fill="#2d356b"/><path d="M364.128,6106.829c.015-.131-.046-.246-.139-.256s-.179.085-.194.217.046.244.138.255S364.112,6106.959,364.128,6106.829Z" transform="translate(-340.442 -6078.477)" fill="#ffab00"/></g><g transform="translate(35.231 4.936)"><path d="M353.243,6063.823c-.132-.924-3.555-1.2-7.645-.62s-7.3,1.8-7.168,2.73,3.554,1.2,7.645.618S353.374,6064.747,353.243,6063.823Z" transform="translate(-338.425 -6062.251)" fill="#219ecc"/><path d="M356.139,6065.234c-3.733,3.617-8.6,4.442-12.469,4.5,0,0,8.735-1.6,11.613-4.83Z" transform="translate(-340.967 -6063.222)" fill="#219ecc"/><path d="M360.855,6063.98c-.708,3.775-3.708,5.028-6.417,5.457,0,0,5.326-2.357,5.633-5.686Z" transform="translate(-346.184 -6062.666)" fill="#219ecc"/><path d="M364.361,6061.645c1,3.433-1.4,5.771-3.753,7.281,0,0,3.673-3.953,2.452-7.017Z" transform="translate(-349.174 -6061.645)" fill="#219ecc"/><path d="M353.264,6065.677c-4.111,3.184-9.038,3.466-12.89,3.092,0,0,8.859-.622,12.075-3.516Z" transform="translate(-339.37 -6063.393)" fill="#219ecc"/></g></g><g transform="translate(-456.896 0.628)"><g transform="translate(1115.198 5866.639)"><rect width="51.015" height="30.096" transform="translate(51.015 30.096) rotate(-180)" fill="#ebebeb"/></g><text transform="translate(1124.705 5891.187)" fill="#2d356b" font-size="27" font-family="TrebuchetMS-Bold, Trebuchet MS" font-weight="700"><tspan x="0" y="0">B</tspan></text></g></g><g transform="translate(-138.692 657.886)"><g transform="translate(171.692 5866.617)"><rect width="51.564" height="30.42" transform="translate(51.564 30.42) rotate(-180)" fill="#ebebeb"/></g><text transform="translate(181.378 5891.036)" fill="#2d356b" font-size="27" font-family="TrebuchetMS-Bold, Trebuchet MS" font-weight="700"><tspan x="0" y="0">A</tspan></text></g><g transform="translate(-45.414 2455.198)"><rect width="51.497" height="22.137" rx="6.672" transform="translate(138.737 4247.197)" fill="#fff" stroke="#231f20" stroke-miterlimit="10" stroke-width="0.25"/><text transform="translate(152.485 4261.766)" fill="#2d356b" font-size="10" font-family="TrebuchetMS-Bold, Trebuchet MS" font-weight="700"><tspan x="0" y="0">Kenji</tspan></text></g><g transform="translate(329.586 2455.198)"><rect width="51.497" height="22.137" rx="6.672" transform="translate(138.737 4247.197)" fill="#fff" stroke="#231f20" stroke-miterlimit="10" stroke-width="0.25"/><text transform="translate(149.485 4261.766)" fill="#2d356b" font-size="10" font-family="TrebuchetMS-Bold, Trebuchet MS" font-weight="700"><tspan x="0" y="0">Mandy</tspan></text></g><g transform="translate(295 6505)"><circle cx="18" cy="18" r="18" fill="#1287cd"/><text transform="translate(3 1)" fill="#fff" font-size="24" font-family="NotoSans-Bold, Noto Sans" font-weight="700"><tspan x="8.136" y="26">3</tspan></text></g></g></svg>