<svg xmlns="http://www.w3.org/2000/svg" width="541.445" height="395.322" viewBox="0 0 541.445 395.322"><g transform="translate(-339.065 -5747.547)"><g transform="translate(339.065 5748.893)"><g transform="translate(0.526)"><g transform="translate(0.121)"><path d="M880.792,5765.614h.641v-13.822h-540.8v288.86H880.786v-29.016h.005Z" transform="translate(-340.634 -5751.389)" fill="#fff"/><rect width="540.153" height="0.808" transform="translate(0 288.861)" fill="#a0bacb"/><rect width="540.799" height="0.808" fill="#7b88ac"/></g><g transform="translate(0 59.023)"><path d="M429.031,5895.271v-.212h-7.719v.212H341.518v176.11H505.383v-176.11Zm69.569,5.655v38.726H429.031v-38.726Zm-77.288,45.408v73.984H348.3v-73.984Zm7.719,73.984v-73.984H498.6v73.984Zm-7.719-119.393v38.726H348.3v-38.726ZM348.3,6027h73.009v38.726H348.3Zm80.729,38.726V6027H498.6v38.726Z" transform="translate(-341.033 -5894.656)" fill="#ebebeb"/><path d="M505.176,6071.209H340.341V5894.292h79.794v-.211h8.689v.211h76.352ZM341.31,6070.4h162.9V5895.1H427.854v-.212H421.1v.212H341.31Zm157.081-4.847H427.854v-39.534h70.538Zm-69.568-.808h68.6v-37.918h-68.6Zm-7.72.808H347.125v-39.534H421.1Zm-73.009-.808h72.04v-37.918h-72.04Zm150.3-44.6H427.854v-74.792h70.538Zm-69.568-.808h68.6v-73.177h-68.6Zm-7.72.808H347.125v-74.792H421.1Zm-73.009-.808h72.04v-73.177h-72.04Zm150.3-79.859H427.854v-39.533h70.538Zm-69.568-.808h68.6v-37.918h-68.6Zm-7.72.808H347.125v-39.533H421.1Zm-73.009-.808h72.04v-37.918h-72.04Z" transform="translate(-340.341 -5894.08)" fill="#ebebeb"/></g><g transform="translate(216.817 57.981)"><path d="M947.97,5892.743v-.212h-7.08v.212H867.7v176.11H1018v-176.11Zm63.81,5.654v38.726H947.97V5898.4Zm-70.891,45.409v73.984H873.924v-73.984Zm7.08,73.984v-73.984h63.81v73.984ZM940.89,5898.4v38.726H873.924V5898.4Zm-66.966,126.075H940.89V6063.2H873.924ZM947.97,6063.2v-38.726h63.81V6063.2Z" transform="translate(-867.256 -5892.127)" fill="#ebebeb"/><path d="M1017.813,6068.681H866.622V5891.762h73.189v-.211h7.969v.211h70.033Zm-150.3-.808h149.413v-175.3H946.891v-.213H940.7v.213H867.511Zm144.079-4.847h-64.7v-39.533h64.7Zm-63.81-.808H1010.7V6024.3H947.78Zm-7.08.808H872.845v-39.533H940.7Zm-66.966-.808h66.077V6024.3H873.734Zm137.857-44.6h-64.7v-74.793h64.7Zm-63.81-.809H1010.7v-73.176H947.78Zm-7.08.809H872.845v-74.793H940.7Zm-66.966-.809h66.077v-73.176H873.734Zm137.857-79.859h-64.7v-39.533h64.7Zm-63.81-.807H1010.7v-37.918H947.78Zm-7.08.807H872.845v-39.533H940.7Zm-66.966-.807h66.077v-37.918H873.734Z" transform="translate(-866.622 -5891.551)" fill="#ebebeb"/></g><g transform="translate(410.93 59.023)"><path d="M1467.835,6065.727h-41.352V6027h41.352v-6.683h-41.352v-73.984h41.352v-6.683h-41.352v-38.726h41.352v-5.655h-41.352v-.212h-7.719v.212h-79.793v176.11h128.864Zm-49.071,0h-73.009V6027h73.009Zm0-45.408h-73.009v-73.984h73.009Zm0-80.667h-73.009v-38.726h73.009Z" transform="translate(-1338.487 -5894.656)" fill="#ebebeb"/><path d="M1550.215,6253.876h41.836v-.808h-40.867V6215.15h40.867v-.808h-41.836Z" transform="translate(-1462.703 -6082.401)" fill="#ebebeb"/><path d="M1550.215,6093.332h41.836v-.808h-40.867v-73.177h40.867v-.808h-41.836Z" transform="translate(-1462.703 -5967.264)" fill="#ebebeb"/><path d="M1550.215,5947.853h41.836v-.808h-40.867v-37.917h40.867v-.808h-41.836Z" transform="translate(-1462.703 -5902.454)" fill="#ebebeb"/><path d="M1428.241,5908.32h-73.978v39.533h73.978Zm-.969,38.726h-72.04v-37.918h72.04Z" transform="translate(-1347.479 -5902.454)" fill="#ebebeb"/><path d="M1467.144,6070.4H1338.765V5895.1h79.793v-.212h6.75v.212h41.836v-.808h-40.867v-.211h-8.689v.211H1337.8v176.917h129.348Z" transform="translate(-1337.795 -5894.08)" fill="#ebebeb"/><path d="M1354.263,6253.876h73.978v-39.533h-73.978Zm.969-38.726h72.04v37.918h-72.04Z" transform="translate(-1347.479 -6082.401)" fill="#ebebeb"/><path d="M1428.241,6018.539h-73.978v74.792h73.978Zm-.969,73.985h-72.04v-73.177h72.04Z" transform="translate(-1347.479 -5967.264)" fill="#ebebeb"/></g></g><g transform="translate(0 254.489)"><path d="M879.864,6369.367H339.711v99.109h-.646v40.036H879.859V6373.589h.005Z" transform="translate(-339.065 -6369.023)" fill="#f9f9f9"/><rect width="539.027" height="0.579" transform="translate(1.932 138.691)" fill="#f9f9f9"/><rect width="540.158" height="0.579" transform="translate(0.646)" fill="#f9f9f9"/></g><g transform="translate(32.792 5.093)"><path d="M1237.052,5849.594v-86.42h-2.071v86.42c-6.456.441-11.532,4.938-11.532,10.432,0,5.785,5.627,10.475,12.568,10.475s12.567-4.69,12.567-10.475C1248.584,5854.533,1243.507,5850.035,1237.052,5849.594Z" transform="translate(-891.893 -5763.174)" fill="#ffb2b0"/><path d="M432.264,5866.164v-86.42h-2.071v86.42c-6.455.44-11.532,4.938-11.532,10.432,0,5.786,5.627,10.475,12.567,10.475s12.567-4.689,12.567-10.475C443.8,5871.1,438.719,5866.6,432.264,5866.164Z" transform="translate(-418.661 -5772.917)" fill="#ffb2b0"/><path d="M714.875,5859.234V5796.4h-1.505v62.831c-4.693.319-8.384,3.59-8.384,7.584,0,4.206,4.091,7.615,9.137,7.615s9.137-3.409,9.137-7.615C723.259,5862.824,719.568,5859.554,714.875,5859.234Z" transform="translate(-587.025 -5782.713)" fill="#ffb2b0"/><path d="M1483.813,5859.234V5796.4h-1.505v62.831c-4.693.319-8.384,3.59-8.384,7.584,0,4.206,4.091,7.615,9.137,7.615s9.137-3.409,9.137-7.615C1492.2,5862.824,1488.506,5859.554,1483.813,5859.234Z" transform="translate(-1039.177 -5782.713)" fill="#ffb2b0"/></g></g><g transform="translate(394.675 5950.751)"><g transform="translate(0 0)"><path d="M617.587,6462.509l1.949-.207-12.374-63.777-4.117.676-45.522,5.4,1.244,11.69.118-.013L558,6469.2l1.949-.208,5.628-53.423,36.128-3.846Z" transform="translate(-523.133 -6333.54)" fill="#7b88ac"/><path d="M503.78,6245.967c-2.713-7.747-13.195-5.03-22.462-3.107-6.663,1.378-8.008,4.292-6.944,11.026l14.292,57.906c1.044,6.717,7.037,10.6,13.293,8.615s18.971-7.691,17.75-14.389Z" transform="translate(-474.047 -6240.786)" fill="#7b88ac"/><path d="M589.741,6486.005l1.6-.171-12.413-58.7,9.185-10.262-29.855,2.977-35.168,3.369,1.174,9.735-.649,60.448,1.3-.138,5.814-61,41.451-4.413Z" transform="translate(-502.886 -6344.331)" fill="#7b88ac"/><path d="M592.662,6395.1a2.414,2.414,0,0,0-2.263-3.727l-36.29,3.715a30.9,30.9,0,0,0-9.457,2.833l-19.677,8.956c-.048.022-.1.047-.146.072-2.342,1.238-2.026,2.037.735,1.744l61.518-6.7a2.411,2.411,0,0,0,1.756-1.075Z" transform="translate(-502.987 -6329.327)" fill="#7b88ac"/></g></g><g transform="translate(710.97 5940.392)"><g transform="translate(0 0)"><g transform="translate(11.849)"><path d="M1272.432,6244.4s-.98-6.6-1.425-8.052c-.574-1.875-.855-4.668.723-6.312s1.816-5.513,1.816-6.1.592-9.469,7.1-8.154c0,0,2.7.658,1.381,5.393,0,0-1.381,2.828.362,4.6a7.209,7.209,0,0,1,0,9.8c-3.255,3.946-2.328,5.39-1.808,6.9,2.371,6.907-2.675,13.247-3.222,14.939s-1.205,4.469-.656,6.067l-1.915.036Z" transform="translate(-1270.553 -6215.64)" fill="#ebebeb"/></g><g transform="translate(16.582 6.682)"><path d="M1282.564,6273.3a.3.3,0,0,0,.058-.006.29.29,0,0,0,.225-.342c-.732-3.562.552-9.91.566-9.974.708-2.7.913-6.155-.26-14.958a33.8,33.8,0,0,1,.357-11.548,19.346,19.346,0,0,1,1.338-4.2.289.289,0,1,0-.516-.261,19.4,19.4,0,0,0-1.382,4.309,34.347,34.347,0,0,0-.371,11.772c1.157,8.68.944,12.174.27,14.75-.058.28-1.324,6.543-.569,10.222A.289.289,0,0,0,1282.564,6273.3Z" transform="translate(-1282.041 -6231.861)" fill="#fff"/></g><g transform="translate(18.153 25.361)"><path d="M1288.12,6299.85s0-1.557,3.194-3.03a5.336,5.336,0,0,0,3.194-3.849c.819-3.112,3.112-2.293,4.586-1.392s4.823,0,4.828-4.668a3.1,3.1,0,0,1,1.142-3.767c2.138-1.311,2.957-5.991-1.629-5.943s-8.907,2.312-13.348,8.892c-6.174,9.145-3.771,13.759-3.771,13.759Z" transform="translate(-1285.855 -6277.199)" fill="#ebebeb"/></g><g transform="translate(18.699 28.64)"><path d="M1287.674,6304.82a.3.3,0,0,0,.089-.014.3.3,0,0,0,.186-.365,7,7,0,0,1-.018-3.054.343.343,0,0,0,.022-.058c2.476-9.348,14.689-15.56,14.812-15.621a.289.289,0,0,0-.259-.518c-.125.063-12.545,6.382-15.1,15.963a6.837,6.837,0,0,0,0,3.465A.283.283,0,0,0,1287.674,6304.82Z" transform="translate(-1287.179 -6285.16)" fill="#fff"/></g><g transform="translate(0 11.499)"><path d="M1255.485,6279.925a5.7,5.7,0,0,1-2.7-5.721c.657-3.814-2.762-4.669-3.551-4.8s-5.918-2.236-5.129-9.93c0,0,.263-4.932-.658-6.707s-3.222-7.1,0-8.746,5.458,1.314,6.642,4.34c0,0,.92,3.485,1.71,4.34s6.51,5.852,6.049,16.242l-1.12,10.981Z" transform="translate(-1241.792 -6243.551)" fill="#ebebeb"/></g><g transform="translate(4.592 17.548)"><path d="M1262.565,6288.848a.29.29,0,0,0,.289-.279c.332-8.844-3.5-20.378-5.7-23.711a59.344,59.344,0,0,1-3.662-6.458.289.289,0,0,0-.523.247,59.783,59.783,0,0,0,3.7,6.53c2.163,3.278,5.936,14.642,5.607,23.372a.29.29,0,0,0,.278.3Z" transform="translate(-1252.938 -6258.233)" fill="#fff"/></g></g><path d="M1275.107,6348.3h-12.4l-3-16.992h18.4Z" transform="translate(-1252.325 -6283.654)" fill="#ebebeb"/></g><g transform="translate(514.056 5950.046)"><g transform="translate(0 0)"><g transform="translate(10.079)"><path d="M789.885,6263.535s-.834-5.615-1.212-6.85c-.488-1.6-.727-3.972.615-5.37s1.545-4.689,1.545-5.193.5-8.055,6.041-6.937c0,0,2.293.56,1.174,4.587,0,0-1.175,2.405.307,3.916a6.133,6.133,0,0,1,0,8.335c-2.768,3.356-1.98,4.585-1.538,5.874,2.017,5.875-2.275,11.269-2.741,12.708s-1.025,3.8-.558,5.162l-1.629.03Z" transform="translate(-788.286 -6239.074)" fill="#ebebeb"/></g><g transform="translate(14.105 5.684)"><path d="M798.5,6288.126a.292.292,0,0,0,.05,0,.246.246,0,0,0,.192-.291c-.622-3.03.47-8.431.481-8.485.6-2.3.777-5.235-.221-12.723a28.756,28.756,0,0,1,.3-9.824,16.509,16.509,0,0,1,1.138-3.569.246.246,0,0,0-.439-.222,16.539,16.539,0,0,0-1.175,3.666,29.23,29.23,0,0,0-.315,10.013c.984,7.384.8,10.356.229,12.548-.049.238-1.127,5.566-.484,8.7A.246.246,0,0,0,798.5,6288.126Z" transform="translate(-798.059 -6252.872)" fill="#fff"/></g><g transform="translate(15.442 21.573)"><path d="M803.231,6310.707s0-1.325,2.717-2.578a4.539,4.539,0,0,0,2.717-3.274c.7-2.648,2.647-1.951,3.9-1.185s4.1,0,4.107-3.97a2.636,2.636,0,0,1,.972-3.205c1.819-1.115,2.515-5.1-1.386-5.056s-7.576,1.967-11.355,7.564c-5.252,7.779-3.207,11.7-3.207,11.7Z" transform="translate(-801.304 -6291.438)" fill="#ebebeb"/></g><g transform="translate(15.906 24.363)"><path d="M802.852,6314.935a.256.256,0,0,0,.075-.012.25.25,0,0,0,.159-.31,5.949,5.949,0,0,1-.015-2.6.26.26,0,0,0,.019-.05c2.107-7.952,12.495-13.235,12.6-13.288a.246.246,0,0,0-.22-.441c-.107.054-10.672,5.429-12.849,13.579a5.82,5.82,0,0,0,0,2.948A.241.241,0,0,0,802.852,6314.935Z" transform="translate(-802.43 -6298.211)" fill="#fff"/></g><g transform="translate(0 9.781)"><path d="M775.47,6293.758a4.846,4.846,0,0,1-2.293-4.867,3.407,3.407,0,0,0-3.021-4.083c-.671-.111-5.034-1.9-4.363-8.447,0,0,.224-4.194-.559-5.7s-2.741-6.042,0-7.44,4.643,1.119,5.649,3.691c0,0,.783,2.965,1.454,3.692s5.538,4.979,5.146,13.817l-.952,9.341Z" transform="translate(-763.822 -6262.817)" fill="#ebebeb"/></g><g transform="translate(3.906 14.927)"><path d="M781.492,6301.349a.246.246,0,0,0,.246-.237c.283-7.524-2.98-17.335-4.851-20.169a50.382,50.382,0,0,1-3.115-5.495.246.246,0,0,0-.445.21,50.96,50.96,0,0,0,3.15,5.555c1.84,2.788,5.049,12.455,4.77,19.881a.246.246,0,0,0,.236.255Z" transform="translate(-773.303 -6275.306)" fill="#fff"/></g></g><path d="M792.161,6351.92H781.612l-2.553-14.454h15.655Z" transform="translate(-772.782 -6296.931)" fill="#ebebeb"/></g><g transform="translate(367.633 5912.604)"><g transform="translate(0 0)"><g transform="translate(0 14.775)"><rect width="46.889" height="27.021" rx="6.672" transform="translate(-4 -12)" fill="#fff" stroke="#231f20" stroke-miterlimit="10" stroke-width="0.25"/><text transform="translate(6.445 5.01)" fill="#2d356b" font-size="10" font-family="TrebuchetMS-Bold, Trebuchet MS" font-weight="700"><tspan x="0" y="0">Steve</tspan></text></g><g transform="translate(44.403)"><g transform="translate(0 29.796)"><path d="M595.128,6260.777l-1.247.461-.376,3.172,2.891,1.1Z" transform="translate(-561.652 -6244.19)" fill="#eaeaea"/><path d="M570.5,6224.673l-11.906-4.158-.144,19.073,17.022,4.619Z" transform="translate(-541.039 -6220.515)" fill="#f7c371"/><path d="M606.444,6363.952l-22.224,7.295-.638,33.576,19.818.5Z" transform="translate(-555.817 -6304.859)" fill="#eaeaea"/><path d="M526.7,6359.544c14.241-.63,30.7-6.212,37.715-22.678,3.794-8.911,3.5-23.489,3.487-37.939-.014-19.316-21.976-44.255-39.027-38.239-23.7,8.361-7.494,39.394-4.544,47.6C532.978,6332.347,527.172,6354.147,526.7,6359.544Z" transform="translate(-516.188 -6243.601)" fill="#9999a5"/><path d="M555.773,6376.992c-.312-6.337-3.577-25.754-15.811-47.179-2.373-4.155-5.207-16.646-7.87-27.071-.994-3.893-7.552,3.751-8.373,13.366-.509,5.964,3.89,13.7,5.019,16.841,8.644,24.055,2.838,45.854,2.369,51.252C539.339,6383.836,548.31,6381.812,555.773,6376.992Z" transform="translate(-520.593 -6268.257)" fill="#2d356b"/><path d="M582.334,6317.407c-2.217-24.873-22.324-48.671-39.824-54.974-2.94-1.059-.422-3.308,7.869-2.86C557.8,6260.006,588.02,6273.637,582.334,6317.407Z" transform="translate(-530.971 -6243.448)" fill="#2d356b"/><path d="M593.846,6301.211c-3.62-20.841-11.862-31.545-30.55-41.554,7.234.421,36.235,9.1,32.4,50.123C595.6,6310.825,594.472,6304.814,593.846,6301.211Z" transform="translate(-543.889 -6243.531)" fill="#7b88ac"/><path d="M631.81,6430.523c.084-.88-.339-1.642-.948-1.7s-1.17.606-1.254,1.487.338,1.642.947,1.7S631.725,6431.4,631.81,6430.523Z" transform="translate(-582.875 -6343.002)" fill="#2d356b"/><path d="M634.261,6405.2c.085-.88-.339-1.642-.947-1.7s-1.17.608-1.255,1.487.338,1.643.946,1.7S634.176,6406.077,634.261,6405.2Z" transform="translate(-584.316 -6328.109)" fill="#2d356b"/><path d="M589.585,6265.224l4.337,1.319-1.671-4.605-.829-.407Z" transform="translate(-559.347 -6244.633)" fill="#ffb2b0"/><path d="M616.224,6319.034l-1.66-8.4s2.81-26.521-16.756-39.027l.207-.676C614.119,6281.716,619.623,6301.115,616.224,6319.034Z" transform="translate(-564.182 -6250.158)" fill="#ffb2b0"/><path d="M570.3,6255.258l-17.006-3.867-2.014,3.457,16.219,5.89Z" transform="translate(-536.821 -6238.67)" fill="#fff"/></g><g transform="translate(5.35 54.683)"><path d="M538.326,6335.506c-3.8,2.151-13.2-50.341-7.2-54.372,0,0,13.194-3.5,25.377,17.948C556.506,6299.083,552.22,6327.647,538.326,6335.506Z" transform="translate(-529.175 -6280.923)" fill="#9999a5"/><g transform="translate(56.153 51.317)"><path d="M665.476,6416.686c3.871.163,11.156,6.325,12.532,3.238,1.235-2.764-.873-9.029-12.274-6.229Z" transform="translate(-665.476 -6409.898)" fill="#ffd9a4"/><path d="M679.839,6413.446c-2.488,4.742,3.3,7.753,5.341,8.279,2.245.578,5.121-2.507,4.912-4.34S680.793,6411.636,679.839,6413.446Z" transform="translate(-673.563 -6409.891)" fill="#ffd9a4"/><path d="M688.437,6410.512c2.958-1.1,5.81-3.784,5.107-4.766-.791-1.11-2.808,1.657-5.7,2-3.136.377-5.086.779-5.006,1.995S685.476,6411.618,688.437,6410.512Z" transform="translate(-675.681 -6405.484)" fill="#ffd9a4"/><path d="M700.065,6420.5c2.622.661,4.144.4,4.24-.312s-1.422-1-4.041-1.665-5.786-2.157-5.882-1.44S697.447,6419.828,700.065,6420.5Z" transform="translate(-682.472 -6412.191)" fill="#ffd9a4"/><path d="M700.046,6428.065c2.485,1.2,5.165,1.132,5.4.462s-2.309-1.226-4.793-2.423-4.16-1.842-4.392-1.171S697.563,6426.866,700.046,6428.065Z" transform="translate(-683.564 -6416.761)" fill="#ffd9a4"/><path d="M692.046,6432.131c2.53,1.1,4.189,1.137,4.4.461s-1.588-1.083-4.116-2.177-4.315-1.829-4.53-1.152S689.516,6431.034,692.046,6432.131Z" transform="translate(-678.595 -6419.313)" fill="#ffd9a4"/></g><path d="M552.932,6354.571c16.3-5.094,17.531-32.547,17.531-32.547a10,10,0,0,0-1.236-2.086C567.035,6341.039,552.255,6354.783,552.932,6354.571Z" transform="translate(-543.131 -6303.864)" fill="#cfd0d8"/><path d="M668.956,6415l-6.03.945.872-9.131,5.531,2.3Z" transform="translate(-607.824 -6354.947)" fill="#eaeaea"/><path d="M549.721,6391.121s15.188,5.82,48.138,6.583c0,0,2.291-2.848.625-9.01,0,0-25.31-13.157-42.22-13.222C556.264,6375.473,546.56,6385.561,549.721,6391.121Z" transform="translate(-540.884 -6336.52)" fill="#9999a5"/><path d="M655.722,6412.852a1.289,1.289,0,1,0-1.111-1.664A1.431,1.431,0,0,0,655.722,6412.852Z" transform="translate(-602.907 -6357.032)" fill="#2d356b"/></g><g transform="translate(6.487)"><path d="M539.616,6179.962c-8.388-9.734-7.894-26-7.5-26.572,4.168-6.143,16.166-5.785,22.237-4.236,5.12,1.305,9.165,4.072,6.691,8.087-.854,1.386-4.95-1.659-6.185-1.477-2.336.344-3.288,32.555-3.288,32.555Z" transform="translate(-531.935 -6148.192)" fill="#2d356b"/><g transform="translate(8.515 7.372)"><g transform="translate(2.619)"><path d="M604.907,6225.878l1.17-2.058-1.653-.981Z" transform="translate(-585.694 -6199.458)" fill="#ffd8a3"/><path d="M560.153,6194.369c1.031,2.707,9.584,8.334,17.918,7.753.673-10.875-.172-28.778-2.27-31.783-2.064-2.958-10.107-4.958-11.067-4.019,3.007,3.411-1.407,15.141-3.087,16.249C557.555,6185.27,559.077,6191.545,560.153,6194.369Z" transform="translate(-558.962 -6166.086)" fill="#ffd8a3"/><path d="M608,6211.465a76.9,76.9,0,0,1-4.336-9.054c-1.334-3.388-.606,9.169-.606,9.169S606.8,6212.345,608,6211.465Z" transform="translate(-584.775 -6187.104)" fill="#ffd8a3"/><path d="M603.373,6249.674c.833-.378,1.233-1.187.891-1.806a1.653,1.653,0,0,0-2.129-.435c-.835.378-1.234,1.188-.892,1.806A1.654,1.654,0,0,0,603.373,6249.674Z" transform="translate(-583.753 -6213.806)" fill="#ffd8a3"/><path d="M605.7,6239.468c.023-.22-.228-.427-.562-.462s-.622.115-.645.334.228.427.561.462S605.672,6239.689,605.7,6239.468Z" transform="translate(-585.731 -6208.961)" fill="#ffd8a3"/></g><path d="M557.872,6203.407c-.514-1.964-2.072-3.322-3.482-3.033s-2.134,2.116-1.621,4.08,3.229,3.051,4.638,2.761S558.385,6205.372,557.872,6203.407Z" transform="translate(-552.604 -6186.226)" fill="#ffd8a3"/></g><path d="M602.283,6228.417l-.181,4.434s-1.239-.1-1.52-.645a15.51,15.51,0,0,1-.993-4.432Z" transform="translate(-571.714 -6194.988)" fill="#ffab00"/><path d="M602.753,6228.872l-.164,3.938s-.915-.06-1.116-.3a11.032,11.032,0,0,1-.951-4.192Z" transform="translate(-572.26 -6195.304)" fill="#fff"/><path d="M596.417,6194.885a1.075,1.075,0,0,0-.291-.7c-.457-.456-4.18.786-4.115,1.567l.042.49c.047.563,1.151-.06,2.268-.241,1.069-.173,2.156.122,2.13-.409Z" transform="translate(-567.261 -6175.177)" fill="#2d356b"/><path d="M597.284,6204.782c.006-.656-.35-1.227-.8-1.274s-.813.446-.82,1.1.349,1.226.8,1.273S597.276,6205.437,597.284,6204.782Z" transform="translate(-569.411 -6180.718)" fill="#2d356b"/><path d="M599.258,6227.536c.017-.153-.057-.285-.166-.3s-.207.1-.223.255.057.285.164.3S599.242,6227.688,599.258,6227.536Z" transform="translate(-571.293 -6194.673)" fill="#ffab00"/><g transform="translate(11.675 1.789)"><path d="M566.427,6170.648c3.618.22-1.872,16.632-.026,17.789s.05,2.513-.919,2.157c-2.217-.817-2.65-5.434-2.832-8.375C562.447,6178.944,566.12,6170.63,566.427,6170.648Z" transform="translate(-561.666 -6163.186)" fill="#2d356b"/><path d="M578.43,6159.013c.555-2.613-1.626-5.289-4.869-5.979s-12.708-1.05-13.262,1.561,8.009,7.212,11.253,7.9S577.876,6161.624,578.43,6159.013Z" transform="translate(-560.273 -6152.535)" fill="#2d356b"/></g></g></g></g></g><g transform="translate(375.899 5977.798)"><g transform="translate(0 0)"><g transform="translate(0 41.295)"><rect width="199.183" height="5.979" fill="#40558d"/><rect width="185.035" height="107.436" transform="translate(6.809 2.306)" fill="#40558d"/><rect width="57.417" height="107.436" transform="translate(6.809 2.306)" fill="#7b87ab"/><rect width="199.183" height="7.781" transform="translate(0 2.306)" fill="#2d356b"/></g><g transform="translate(61.558)"><path d="M649.83,6344.927h46.2a2.857,2.857,0,0,0,2.807-2.324l6.227-32.777a2.857,2.857,0,0,0-2.807-3.39h-46.2a2.857,2.857,0,0,0-2.807,2.324l-6.226,32.776A2.857,2.857,0,0,0,649.83,6344.927Z" transform="translate(-618.513 -6306.436)" fill="#cfd0d8"/><path d="M653.25,6309.529a1.549,1.549,0,1,1,2.28,1.067l-6.226,32.776a1.548,1.548,0,1,1-2.28-1.066Z" transform="translate(-618.513 -6307.206)" fill="#ebebeb"/><path d="M581.144,6403.116h71.012a3.251,3.251,0,0,0,3.251-3.25H577.893A3.251,3.251,0,0,0,581.144,6403.116Z" transform="translate(-577.893 -6361.374)" fill="#9898a4"/><path d="M577.893,6399.865h29.892a3.491,3.491,0,0,1-3.69,3.25H581.582A3.491,3.491,0,0,1,577.893,6399.865Z" transform="translate(-577.893 -6361.374)" fill="#cfd0d8"/><circle cx="3.279" cy="3.279" r="3.279" transform="translate(54.273 21.02) rotate(-67.5)" fill="#fff4ba"/></g></g></g><g transform="translate(339.711 5749.7)"><rect width="78.742" height="46.454" transform="translate(78.742 46.454) rotate(-180)" fill="#ebebeb"/></g><text transform="translate(354.502 5785.547)" fill="#2d356b" font-size="41" font-family="TrebuchetMS-Bold, Trebuchet MS" font-weight="700"><tspan x="0" y="0">5</tspan></text><g transform="translate(422.038 5749.716)"><g transform="translate(0 0)"><path d="M858.844,5890.412c12.164,20.84,2.665,43.154-23.256,51.683-27.534,9.059-63.4-.794-81.192-22.021-13.847,11.463-35.007,20.229-59.309,23.217-44.8,5.509-83.3-10.692-86-36.185a29.152,29.152,0,0,1,2.557-15.009c-37.857,9.438-60.194-1.3-69.794-30.15-7.084-21.285,12.625-58.459,67.3-65.182,6.971-.858,13.8-1.4,20.428-1.643-.149-.7-2.127-4.714.671-11.657,12.162-30.179,55.556-34.6,100.908-27.995,38.188,5.567,57.352,25.217,66.287,42.945,0,0,108.281-32.957,128.14,37.033C925.585,5835.45,947.629,5897.181,858.844,5890.412Z" transform="translate(-540.467 -5752.812)" fill="#fff" stroke="#ebebeb" stroke-miterlimit="10" stroke-width="1"/><ellipse cx="11.472" cy="12.42" rx="11.472" ry="12.42" transform="translate(52.455 134.708) rotate(-2.698)" fill="#fff" stroke="#ebebeb" stroke-miterlimit="10" stroke-width="1"/><ellipse cx="6.798" cy="7.36" rx="6.798" ry="7.36" transform="translate(46.879 152.666) rotate(-2.698)" fill="#fff" stroke="#ebebeb" stroke-miterlimit="10" stroke-width="1"/><ellipse cx="5.815" cy="6.295" rx="5.815" ry="6.295" transform="translate(32.678 161.21) rotate(-2.698)" fill="#fff" stroke="#ebebeb" stroke-miterlimit="10" stroke-width="1"/></g></g><g transform="translate(718.004 5880.623)"><g transform="translate(0 105.988)"><path d="M1307.923,6339.785l-10.166,1.912c-8.94,31.934-6.744,70-26.721,135.2,0,0,1.908.832,2.184,0,16.621-50.414,25.711-89.941,28.936-95.373C1309.322,6369.458,1318.282,6359.2,1307.923,6339.785Z" transform="translate(-1266.022 -6334.86)" fill="#ffd8a3"/><path d="M1342.489,6334.952c12.511,23.333,3.143,21.525,2.736,33.593-1.173,34.8,21.015,52.5,27.9,105.733,0,0-2.728-.14-2.805-.908-4.279-42.468-41.909-83.1-43.458-122.526-.1-2.542-.211-10.137,2.754-12.854C1334.153,6333.832,1342.489,6334.952,1342.489,6334.952Z" transform="translate(-1298.829 -6331.937)" fill="#f7c371"/><path d="M1419.163,6670.137h8.176s.4-2.321-1.429-2.693C1424.762,6667.209,1422.731,6667.75,1419.163,6670.137Z" transform="translate(-1353.124 -6527.5)" fill="#7b88ac"/><path d="M1258.866,6670.623h7.187s.347-2.319-1.256-2.691C1263.788,6667.7,1262,6668.237,1258.866,6670.623Z" transform="translate(-1258.866 -6527.787)" fill="#7b88ac"/><path d="M1342.124,6410.193s-34.321,5.519-42.187,3.311c0,0,7.508-77.993,12.871-82.776s15.015-2.207,15.015-2.207a30.344,30.344,0,0,1,5.005,32.374C1325.678,6377.819,1342.124,6410.193,1342.124,6410.193Z" transform="translate(-1283.017 -6327.829)" fill="#fff4ba"/></g><g transform="translate(9.239)"><g transform="translate(0 49.408)"><g transform="translate(0 21.057)"><path d="M1303.117,6259.427c-2.141-1.433-8.471-.984-8-3.181.422-1.968,4.013-4.5,9.034,1.474Z" transform="translate(-1289.408 -6248.887)" fill="#f8c471"/><path d="M1298.769,6253.871c-.526,3.522-4.815,2.866-6.117,2.348-1.432-.571-1.765-3.356-.934-4.258S1298.968,6252.524,1298.769,6253.871Z" transform="translate(-1287.16 -6247.53)" fill="#f8c471"/><path d="M1297.854,6246.191c-1.156-1.753-1.633-4.312-.87-4.562.86-.286.857,1.992,2.278,3.313,1.535,1.433,2.424,2.415,1.9,3.036S1299.01,6247.948,1297.854,6246.191Z" transform="translate(-1290.302 -6241.604)" fill="#f8c471"/><path d="M1287.066,6249.55c-1.667-.674-2.383-1.41-2.153-1.831s1.156.021,2.822.693,3.953,1.113,3.723,1.536S1288.734,6250.219,1287.066,6249.55Z" transform="translate(-1283.396 -6245.102)" fill="#f8c471"/><path d="M1284.381,6254.487c-1.8-.332-3.217-1.418-3.08-1.871s1.72.249,3.524.581,2.956.644,2.817,1.1S1286.185,6254.819,1284.381,6254.487Z" transform="translate(-1281.292 -6247.993)" fill="#f8c471"/><path d="M1287.642,6259.861c-1.788-.4-2.695-1.034-2.545-1.48s1.278.042,3.065.447,3.034.712,2.884,1.16S1289.431,6260.266,1287.642,6259.861Z" transform="translate(-1283.52 -6251.364)" fill="#f8c471"/></g><g transform="translate(13.154)"><path d="M1343.075,6190.726c5.765-3.528,20.824,34.025,20.828,35.463,0,0-2.962,2.315-4.2,1.157C1356.492,6224.351,1340.5,6192.3,1343.075,6190.726Z" transform="translate(-1330.611 -6190.492)" fill="#c3e8e6"/><path d="M1317.612,6261.869c-1.4,5.121,27.914,7.531,29,7.213,0,0,2.288-3.322,1.143-4C1344.792,6263.343,1318.237,6259.581,1317.612,6261.869Z" transform="translate(-1315.774 -6232.041)" fill="#c3e8e6"/><path d="M1313.677,6260.5l.844-1.386,6.143-.6s-.955,2.708-1.516,3.14S1313.677,6260.5,1313.677,6260.5Z" transform="translate(-1313.489 -6230.493)" fill="#eaeaea"/><path d="M1313.43,6263.056l-.209,1.62,4.473,4.261s.956-2.737.786-3.426S1313.43,6263.056,1313.43,6263.056Z" transform="translate(-1313.221 -6233.161)" fill="#eaeaea"/></g></g><g transform="translate(11.314)"><g transform="translate(9.174 1.45)"><path d="M1333.79,6137.289c-6.617-5.531,3.058-7.571,2.239-12.763s-1.842-3.459-3.162-10.141.295-9.32.137-13.255-3.256-10.18-1.377-15.311,3.37-3.55,5.041-7.647,3.853.078,7.252,1.59,6.438-8.215,12.44-5.037,6,10.515,8.028,14.478,7.846,5.193,9.278,12.445-2.761,5.9-.549,10.818,7.222,4.127,8.655,11.38c0,0,1.234,7.291-6.987,7.527s-5.327,4.424-14.435,2.257-5.537,5.457-12.021,2.969S1339.7,6142.231,1333.79,6137.289Z" transform="translate(-1331.023 -6074.082)" fill="#2d356b"/></g><g transform="translate(0 25.356)"><path d="M1361.713,6132.109l-7.576,4.759-1.36,16.382,6.086-2.2Z" transform="translate(-1334.642 -6132.109)" fill="#f7c371"/><path d="M1312.505,6254.4c4.868-3.189,16.17-10.239,28.7-1.51-3.749-11.009-7.153-21.832-7.274-30.887-.224-16.786,14.042-36.5,2.238-44.091-12.534-8.058-27.417,29.152-27.417,29.152C1321.289,6214.115,1317.822,6234.327,1312.505,6254.4Z" transform="translate(-1308.756 -6158.371)" fill="#54ccca"/><path d="M1356.019,6175.511l-2.2-.259-9.842,9.259,2.914,2.46S1353.494,6180.237,1356.019,6175.511Z" transform="translate(-1329.466 -6157.478)" fill="#fff"/><path d="M1333.88,6187.016c-.047-.033-.091-.066-.138-.1,2.6-5.182,8.274-13.118,13.755-12.608C1342.508,6178.759,1333.88,6187.016,1333.88,6187.016Z" transform="translate(-1323.448 -6156.908)" fill="#f7c371"/></g><g transform="translate(6.484)"><path d="M1348.569,6105.421c3.908-1.51,11.871-3.614,15.157-10.076,4.273-8.4,2.493-13.152.2-18.92-4.363-10.994-23.136-3.746-21.593-.532C1344.388,6080.16,1334.406,6110.888,1348.569,6105.421Z" transform="translate(-1334.092 -6070.563)" fill="#2d356b"/><path d="M1334.656,6116.114c-1.465.148-4.851-7.16-6.219-12.889-.451-1.889,1.588-2.322.8-8.842-.463-3.827.772-9.315,6.81-13.771,5.7-4.208,7.351,7.647,8.148,10.344,2.27,7.683,4.767,12.4,3.141,16.392C1344.16,6115.145,1336.2,6115.576,1334.656,6116.114Z" transform="translate(-1326.774 -6075.946)" fill="#ffd8a3"/><path d="M1340.946,6142.826a.339.339,0,0,0-.342-.335.356.356,0,0,0-.253.418c.026.209.178.359.343.336A.356.356,0,0,0,1340.946,6142.826Z" transform="translate(-1333.816 -6112.856)" fill="#ffab00"/><path d="M1337.729,6117.531c.147-1.025-.308-1.929-1.014-2.019s-1.4.67-1.547,1.7.307,1.929,1.013,2.018S1337.582,6118.557,1337.729,6117.531Z" transform="translate(-1330.755 -6096.991)" fill="#2d356b"/><path d="M1338.036,6117.523c-.73-1.585-1.88-3.241-4.713-2.783A9.9,9.9,0,0,1,1338.036,6117.523Z" transform="translate(-1329.686 -6096.494)" fill="#2d356b"/><path d="M1335.808,6153.755c-.068-.234-.718.687-1.064.751-.978.184-.569,1.414.4,1.13C1335.517,6155.525,1335.879,6154,1335.808,6153.755Z" transform="translate(-1330.192 -6119.459)" fill="#f36973"/><path d="M1334.664,6143.483c.642-.333-4-1.178-3.029.27C1331.964,6144.022,1334.335,6143.654,1334.664,6143.483Z" transform="translate(-1328.615 -6113.119)" fill="#f36973"/><path d="M1330.825,6103.944a6.036,6.036,0,0,1,7.621,3.046C1336.226,6104.515,1334.612,6103.669,1330.825,6103.944Z" transform="translate(-1328.217 -6089.972)" fill="#2d356b"/><path d="M1325.624,6129.283l2.338.465-.5-5.8-2.964,4.464Z" transform="translate(-1324.495 -6101.955)" fill="#ffd8a3"/><path d="M1328.5,6139.519l-2.125-3.409,1.7-.232Z" transform="translate(-1325.603 -6108.969)" fill="#ffd8a3"/><path d="M1332.787,6148.8a42.983,42.983,0,0,1-1.626-4.915l4.1-.413S1334.881,6147.888,1332.787,6148.8Z" transform="translate(-1328.415 -6113.434)" fill="#ffab00"/><path d="M1334.646,6146.311l-2.333.234c-.2-.617-.39-1.265-.574-1.939l3.348-.338Z" transform="translate(-1328.755 -6113.903)" fill="#fff"/><path d="M1376.26,6121.074c-.273-1.777-1.011-3.033.338-3.236s2.667,1.072,2.94,2.851-.6,3.385-1.954,3.591S1376.531,6122.854,1376.26,6121.074Z" transform="translate(-1354.671 -6098.349)" fill="#f7c371"/><path d="M1340.321,6080.335c4.957,6.067,13.454,14.809,12.575,24.254,2.818-10.246-.211-23.229-7.3-27.983C1345.008,6077.665,1339.121,6077.958,1340.321,6080.335Z" transform="translate(-1333.707 -6074.117)" fill="#2d356b"/></g></g><g transform="translate(1.756 48.989)"><g transform="translate(0 17.99)"><path d="M1307.177,6255.919c-1.991-2.244-9.252-3.6-8.073-5.936,1.054-2.093,5.845-3.894,9.741,4.317Z" transform="translate(-1293.446 -6242.007)" fill="#ffd9a4"/><path d="M1304.027,6247.744c-1.628,3.812-6.266,1.812-7.58.845-1.445-1.065-1-4.3.2-5.071S1304.647,6246.286,1304.027,6247.744Z" transform="translate(-1291.427 -6239.179)" fill="#ffd9a4"/><path d="M1305.614,6238.538c-.786-2.313-.572-5.337.362-5.394,1.053-.069.379,2.5,1.591,4.4,1.307,2.066,2.02,3.433,1.252,3.98S1306.4,6240.856,1305.614,6238.538Z" transform="translate(-1297.067 -6233.142)" fill="#ffd9a4"/><path d="M1292.931,6239.082c-1.679-1.25-2.269-2.288-1.886-2.7s1.3.364,2.975,1.611,4.124,2.417,3.741,2.825S1294.613,6240.326,1292.931,6239.082Z" transform="translate(-1288.718 -6234.983)" fill="#ffd9a4"/><path d="M1288.514,6243.823c-1.935-.9-3.206-2.545-2.918-3.013s1.865.786,3.8,1.691,3.14,1.595,2.85,2.062S1290.448,6244.727,1288.514,6243.823Z" transform="translate(-1285.556 -6237.591)" fill="#ffd9a4"/><path d="M1290.576,6250.853c-1.9-.981-2.731-1.957-2.431-2.416s1.427.423,3.32,1.4,3.208,1.694,2.907,2.154S1292.472,6251.834,1290.576,6250.853Z" transform="translate(-1287.044 -6242.063)" fill="#ffd9a4"/></g><g transform="translate(13.129)"><path d="M1372.731,6189.555c7.529-2.278,13.446,44.446,13.027,46.067,0,0-4.017,1.736-5.074.067C1377.951,6231.373,1369.369,6190.572,1372.731,6189.555Z" transform="translate(-1349.493 -6189.474)" fill="#c3e8e6"/><path d="M1323.355,6262.541c-3.084,5.355,29.224,16.692,30.54,16.654,0,0,3.554-3.068,2.463-4.165C1353.533,6272.2,1324.733,6260.149,1323.355,6262.541Z" transform="translate(-1320.789 -6232.255)" fill="#c3e8e6"/><path d="M1319.01,6260.436l1.359-1.313,7.095,1.132s-1.872,2.768-2.632,3.092S1319.01,6260.436,1319.01,6260.436Z" transform="translate(-1318.356 -6230.429)" fill="#eaeaea"/><path d="M1318.135,6262.009l-.712,1.763,3.784,6.114s1.881-2.8,1.892-3.626S1318.135,6262.009,1318.135,6262.009Z" transform="translate(-1317.423 -6232.126)" fill="#eaeaea"/></g></g></g><g transform="translate(17.043 109.193)"><rect width="46.455" height="23.219" rx="6.672" transform="translate(0 -8)" fill="#fff" stroke="#231f20" stroke-miterlimit="10" stroke-width="0.25"/><text transform="translate(10.227 7.109)" fill="#2d356b" font-size="10" font-family="TrebuchetMS-Bold, Trebuchet MS" font-weight="700"><tspan x="0" y="0">Akiko</tspan></text></g></g></g></svg>