<svg xmlns="http://www.w3.org/2000/svg" width="193.112" height="102.414" viewBox="0 0 193.112 102.414"><g transform="translate(-32 -6581.031)"><g transform="translate(0 202.768)"><g transform="translate(32 6379.425)"><g transform="translate(0 0.735)"><g transform="translate(40.859 3.228)"><rect width="34.915" height="21.02" rx="6.672" transform="translate(0 -5)" fill="#fff" stroke="#231f20" stroke-miterlimit="10" stroke-width="0.25"/><text transform="translate(6.457 9.01)" fill="#2d356b" font-size="10" font-family="TrebuchetMS-Bold, Trebuchet MS" font-weight="700"><tspan x="0" y="0">Mike</tspan></text></g><g transform="translate(0 17.251)"><path d="M114.413,6461.839l18.681,1.835a3.538,3.538,0,0,0,3.884-3.521v-34.127a3.539,3.539,0,0,0-3.855-3.524l-22.767,2.047c-.071.006-.143.009-.215.012a3.381,3.381,0,0,0-3.255,3.927l4.37,30.335A3.538,3.538,0,0,0,114.413,6461.839Z" transform="translate(-101.378 -6396.968)" fill="#c3e8e6"/><g transform="translate(10.896)"><g transform="translate(46.152 19.151)"><g transform="translate(0 15.314)"><path d="M383.12,6491.278c1.669-1.568,7.286-2.1,6.551-3.957-.658-1.664-4.177-3.366-7.708,2.611Z" transform="translate(-381.963 -6482.837)" fill="#ffd9a4"/><path d="M394.61,6481.7c.976,3.012,4.641,1.812,5.708,1.167,1.172-.71,1.058-3.2.2-3.87S394.239,6480.548,394.61,6481.7Z" transform="translate(-392.224 -6477.248)" fill="#ffd9a4"/><path d="M410.548,6472.229c1.364-.834,1.885-1.583,1.621-1.92s-1.01.188-2.374,1.02-3.3,1.552-3.041,1.89S409.184,6473.06,410.548,6472.229Z" transform="translate(-402.088 -6470.205)" fill="#f8c471"/><path d="M403.59,6482.985c1.049,2.575,2.942,1.8,3.834,1.163.981-.7.72-2.872-.078-3.4S403.19,6482,403.59,6482.985Z" transform="translate(-399.508 -6478.691)" fill="#f8c471"/><path d="M419.957,6485a.761.761,0,0,0,.111-1.343c-.355-.217-.736.424-1.462.907s-1.127.844-.771,1.062S419.23,6485.477,419.957,6485Z" transform="translate(-411.003 -6481.096)" fill="#ffd9a4"/><path d="M419.536,6493.644c.828-.391,1.059-.9.775-1.222s-.7.1-1.529.488-1.394.682-1.109,1S418.708,6494.033,419.536,6493.644Z" transform="translate(-410.918 -6488.164)" fill="#ffd9a4"/></g><g transform="translate(7.349)"><path d="M423.5,6461.168c.123-.034.245-.059.367-.081a5.308,5.308,0,0,0,.027,1.086c-.911.315-1.5.984-1.347,1.555.165.6,1.091.863,2.085.61a4.978,4.978,0,0,0,.788,1.012,3.872,3.872,0,0,1-.69.267c-1.6.441-3.166-.2-3.505-1.424S421.9,6461.61,423.5,6461.168Z" transform="translate(-421.161 -6447.483)" fill="#fff4ba"/><path d="M424.412,6478.684a3.369,3.369,0,0,0,.733-.3,4.948,4.948,0,0,0,.743.941,3.873,3.873,0,0,1-.69.267c-1.543.426-3.057-.157-3.463-1.305A3.323,3.323,0,0,0,424.412,6478.684Z" transform="translate(-421.627 -6461.456)" fill="#f8c471"/><path d="M430.81,6443.117l7.595-2.1,1.275,8.54-6.584,1.822Z" transform="translate(-429.001 -6431.174)" fill="#fff4ba"/><path d="M451.7,6442.327l3.24-.9.439-.415,1.275,8.54-3.589.994Z" transform="translate(-445.971 -6431.174)" fill="#fff4ba"/><path d="M461.666,6441.831l1.371-.4.439-.415,1.275,8.54-2.378.658Z" transform="translate(-454.072 -6431.174)" fill="#f8c471"/><path d="M434.012,6443.317c-.052-.187,1.431-.761,3.312-1.281,1.272-.352,3.023-.817,3.673-.985.033.118.088.24.108.3.137.4-1.712.843-3.593,1.364S434.064,6443.505,434.012,6443.317Z" transform="translate(-431.602 -6431.203)" fill="#ebebeb"/><path d="M433.978,6445.045a41.482,41.482,0,0,1,6.6-1.825,41.513,41.513,0,0,1-6.6,1.825Z" transform="translate(-431.575 -6432.957)" fill="#2d356b"/><path d="M431.953,6398.042c.228-1.715,6.321-1.215,5.014-3.294-.6-.953-2.866-.439-2.639-2.475.139-1.243-3.37-1.165-2.8-3.754-.216.721-.585,2.1,1.776,3.151,1.04.466.366,1.191.66,1.923.387.962,2.171.9,2.037,1.757C435.889,6396.094,431.383,6396.188,431.953,6398.042Z" transform="translate(-429.458 -6388.52)" fill="#ebebeb" opacity="0.2"/><path d="M436.2,6439.477c.528.349,1.5-.695,1.991-.4s.347,1.12-.564,1.485c0,0,.83-.66.215-1.009C437.524,6439.372,436.735,6440,436.2,6439.477Z" transform="translate(-433.384 -6429.556)" fill="#ebebeb" opacity="0.2"/></g><path d="M403.33,6472.152c.951-1.605.67-2.98-.036-3.091-.242-.038-3.738,3.82-3.049,4.568C400.733,6474.159,402.378,6473.761,403.33,6472.152Z" transform="translate(-396.745 -6453.961)" fill="#ffd9a4"/><path d="M414.708,6471.866c-.594-.8-.934-1.588-.424-1.967s1.11.172,1.7.971,1.169,1.188.447,1.921C415.994,6473.242,415.3,6472.665,414.708,6471.866Z" transform="translate(-408.022 -6454.543)" fill="#ffd9a4"/><path d="M429.249,6471.845c-.41.4-.848.638-1.15.327s-.044-.705.366-1.1.57-.773,1.119-.34C429.92,6470.993,429.659,6471.447,429.249,6471.845Z" transform="translate(-419.343 -6455.159)" fill="#ffd9a4"/></g><g transform="translate(0 18.319)"><path d="M240.109,6439.278l-.772.273-.259,1.949,1.771.7Z" transform="translate(-219.715 -6428.93)" fill="#eaeaea"/><path d="M199.251,6386.74l-7.294-2.662-.252,11.741,10.44,2.989Z" transform="translate(-181.221 -6384.078)" fill="#f7c371"/><path d="M164.606,6486.537c2.412-5.454,2.355-14.431,2.472-23.327.157-11.892-12.7-25.6-23.7-23.876-17.856,2.794,1.143,39.5,2.889,44.581" transform="translate(-135.785 -6428.854)" fill="#ffac00"/><path d="M153.318,6510.978c-1.425-2.579-3.063-10.292-4.613-16.734-.579-2.4-4.682,2.246-5.269,8.157-.365,3.667,8.6,24.63,9.263,26.575" transform="translate(-141.993 -6473.065)" fill="#ffac00"/><path d="M193.358,6472.757c-1.152-15.333-13.327-30.156-24.046-34.187-1.8-.677-.232-2.04,4.869-1.692C178.744,6437.207,197.234,6445.858,193.358,6472.757Z" transform="translate(-162.443 -6426.935)" fill="#fff4ba"/><path d="M216.849,6462.963c-2.05-12.861-7.032-19.523-18.451-25.844,4.45.321,22.23,5.915,19.517,31.135C217.846,6468.9,217.2,6465.187,216.849,6462.963Z" transform="translate(-186.66 -6427.175)" fill="#eaeaea"/><path d="M286.194,6668.34c.06-.541-.195-1.014-.569-1.055s-.725.364-.785.9.194,1.014.568,1.055S286.134,6668.882,286.194,6668.34Z" transform="translate(-256.889 -6614.189)" fill="#ffd9a4"/><path d="M289.987,6634.122c.06-.54-.195-1.014-.569-1.055s-.725.363-.785.905.194,1.014.568,1.055S289.926,6634.664,289.987,6634.122Z" transform="translate(-259.971 -6586.386)" fill="#ffd9a4"/><path d="M233.759,6442.492l2.659.849-.99-2.85-.507-.257Z" transform="translate(-215.392 -6429.707)" fill="#03b4e9"/><path d="M255.777,6482.8l-.95-5.188s1.957-16.3-9.981-24.17l.133-.414C254.8,6459.806,258.023,6471.8,255.777,6482.8Z" transform="translate(-224.399 -6440.1)" fill="#03b4e9"/><path d="M193.839,6428.328,183.4,6425.8l-1.269,2.11,9.934,3.765Z" transform="translate(-173.444 -6417.98)" fill="#fff"/></g><g transform="translate(1.432 33.547)"><path d="M167.352,6493.074c-.759,2.581-23.748-12-23.927-20.765,0,0,5.263-13.049,14.909-3.52C158.334,6468.79,170.124,6483.645,167.352,6493.074Z" transform="translate(-143.425 -6465.308)" fill="#f8c471"/><path d="M229.392,6505.634c5.019-9.236-7.644-22.292-7.644-22.292h0C229.824,6493.607,229.183,6506.018,229.392,6505.634Z" transform="translate(-206.839 -6479.859)" fill="#fff4ba"/><path d="M381.017,6495.472l-2.26,3-3.528-4.409,3.429-1.356Z" transform="translate(-331.772 -6487.572)" fill="#eaeaea"/><path d="M253.816,6518.936s9.208-3.938,24.1-17.725c0,0-.208-2.241-3.586-4.25,0,0-16.826,5.034-24.328,12.253C250,6509.215,250.036,6517.833,253.816,6518.936Z" transform="translate(-230.021 -6491.027)" fill="#f8c471"/><path d="M371.3,6509.951a.794.794,0,1,0-1.2-.26A.881.881,0,0,0,371.3,6509.951Z" transform="translate(-327.545 -6500.354)" fill="#fff4ba"/></g><g transform="translate(4.11)"><path d="M162.231,6305.869c-5.081-6.064-4.637-16.072-4.392-16.423,2.619-3.746,10-3.424,13.727-2.418,3.141.848,5.607,2.586,4.05,5.036-.538.847-3.033-1.062-3.8-.962-1.441.191-2.3,20.015-2.3,20.015Z" transform="translate(-157.707 -6286.363)" fill="#54ccca"/><g transform="translate(5.101 4.573)"><g transform="translate(1.566)"><path d="M255,6389.958l.738-1.257-1.009-.618Z" transform="translate(-243.209 -6373.585)" fill="#ffd8a3"/><path d="M193.954,6328.119c.611,1.675,5.829,5.213,10.965,4.927.507-6.689.141-17.719-1.125-19.587-1.245-1.839-6.18-3.14-6.779-2.568,1.822,2.125-1,9.309-2.04,9.977C192.432,6322.5,193.316,6326.371,193.954,6328.119Z" transform="translate(-193.271 -6310.755)" fill="#ffd8a3"/><path d="M255.946,6365.622a47.41,47.41,0,0,1-2.592-5.611c-.792-2.1-.452,5.639-.452,5.639S255.2,6366.153,255.946,6365.622Z" transform="translate(-241.664 -6350.483)" fill="#ffd8a3"/><path d="M251.114,6422.62c.516-.226.769-.721.564-1.1a1.018,1.018,0,0,0-1.307-.286c-.517.226-.769.721-.564,1.1A1.02,1.02,0,0,0,251.114,6422.62Z" transform="translate(-239.15 -6400.427)" fill="#ffd8a3"/><path d="M255.239,6410.268c.016-.135-.137-.265-.342-.29s-.384.065-.4.2.137.266.341.29S255.223,6410.4,255.239,6410.268Z" transform="translate(-243.018 -6391.374)" fill="#ffd8a3"/></g><path d="M188.158,6358.677c-.3-1.214-1.247-2.064-2.117-1.9s-1.332,1.285-1.033,2.5a2.768,2.768,0,0,0,2.832,1.74C188.708,6360.852,188.457,6359.891,188.158,6358.677Z" transform="translate(-184.916 -6348.134)" fill="#ffd8a3"/></g><path d="M249.74,6395.087l-.15,2.729s-.762-.072-.93-.411a9.554,9.554,0,0,1-.574-2.736Z" transform="translate(-231.14 -6374.364)" fill="#ffab00"/><path d="M250.7,6395.778l-.134,2.422s-.563-.044-.685-.2a6.8,6.8,0,0,1-.549-2.589Z" transform="translate(-232.15 -6374.97)" fill="#fff"/><path d="M241.124,6349.614a.663.663,0,0,0-.173-.436c-.277-.285-2.58.448-2.547.93l.022.3c.024.347.709-.027,1.4-.128.659-.1,1.326.093,1.315-.234Z" transform="translate(-223.276 -6337.35)" fill="#2d356b"/><path d="M244.191,6362.589c.009-.4-.2-.758-.479-.792s-.5.269-.514.672.2.758.479.791S244.18,6362.992,244.191,6362.589Z" transform="translate(-227.17 -6347.653)" fill="#2d356b"/><path d="M247.359,6394.124c.011-.095-.033-.177-.1-.185s-.128.062-.139.155.033.176.1.184S247.347,6394.217,247.359,6394.124Z" transform="translate(-230.356 -6373.772)" fill="#ffab00"/></g><g transform="translate(11.485 3.543)"><path d="M207.687,6308.4c-.094-.664-2.552-.863-5.488-.445s-5.24,1.295-5.146,1.959,2.551.863,5.488.444S207.781,6309.066,207.687,6308.4Z" transform="translate(-197.05 -6307.275)" fill="#54ccca"/><path d="M216.353,6311.931a12.782,12.782,0,0,1-8.951,3.228s6.271-1.147,8.336-3.466Z" transform="translate(-205.461 -6310.487)" fill="#54ccca"/><path d="M233.261,6309.588c-.508,2.71-2.662,3.61-4.607,3.918,0,0,3.823-1.693,4.044-4.082Z" transform="translate(-222.729 -6308.644)" fill="#54ccca"/><path d="M243.528,6305.264c.717,2.464-1.007,4.143-2.694,5.227,0,0,2.637-2.837,1.76-5.037Z" transform="translate(-232.626 -6305.264)" fill="#54ccca"/><path d="M210.149,6312.691a12.773,12.773,0,0,1-9.253,2.219s6.359-.445,8.668-2.523Z" transform="translate(-200.175 -6311.052)" fill="#54ccca"/></g></g><g transform="translate(0 62.614)"><path d="M182.557,6629.515l-84.931-1.871,2.022,16.332,81.7-3.976Z" transform="translate(-93.884 -6626.276)" fill="#cfd0d8"/><path d="M167.213,6620.352H77.666l1.3,4.889,87.372-1.629Z" transform="translate(-77.666 -6620.352)" fill="#fff4ba"/></g><g transform="translate(21.166 39.495)"><rect width="31.705" height="21.963" rx="4.745" transform="translate(0.243)" fill="#ebebeb"/><rect width="32.191" height="1.585" transform="translate(0 22.614)" fill="#ebebeb"/><rect width="1.585" height="3.807" transform="translate(26.311 19.615)" fill="#ebebeb"/><rect width="1.585" height="3.807" transform="translate(4.344 19.615)" fill="#ebebeb"/><g transform="translate(12.373 6.626)"><path d="M260.291,6539.827a3.722,3.722,0,1,1,3.722-3.723A3.727,3.727,0,0,1,260.291,6539.827Zm0-6.026a2.3,2.3,0,1,0,2.3,2.3A2.307,2.307,0,0,0,260.291,6533.8Z" transform="translate(-256.568 -6532.382)" fill="#7b88ac"/></g></g><g transform="translate(62.39 44.358)"><g transform="translate(0.92 6.019)"><path d="M421.731,6557.8a.368.368,0,0,1-.368-.368v-1.373a.246.246,0,0,0-.246-.245h-4.769a.246.246,0,0,0-.246.245v1.373a.368.368,0,1,1-.736,0v-1.373a.983.983,0,0,1,.982-.981h4.769a.983.983,0,0,1,.982.981v1.373A.368.368,0,0,1,421.731,6557.8Z" transform="translate(-415.366 -6555.079)" fill="#9999a5"/></g><path d="M416.852,6525.972s2.691,1.586,4.139.811c0,0,1.318,7.773,3.68,7.887l-4.233,2.486S417.468,6533.976,416.852,6525.972Z" transform="translate(-415.654 -6525.41)" fill="#ebebeb"/><path d="M417.642,6524.591s2.691,1.587,4.139.812c0,0,1.318,7.772,3.681,7.887l-4.233,2.486S418.258,6532.6,417.642,6524.591Z" transform="translate(-416.296 -6524.288)" fill="#ebebeb"/><path d="M418.995,6526.17s2.691,1.586,4.139.812c0,0,1.318,7.772,3.681,7.886l-4.233,2.486S419.611,6534.174,418.995,6526.17Z" transform="translate(-417.395 -6525.571)" fill="#ebebeb"/><path d="M420.553,6527.826s2.691,1.586,4.139.811c0,0,1.318,7.773,3.68,7.887l-4.233,2.486S421.169,6535.831,420.553,6527.826Z" transform="translate(-418.661 -6526.917)" fill="#ebebeb"/><path d="M421.594,6527.826s2.691,1.586,4.139.811c0,0,1.318,7.773,3.681,7.887l-4.233,2.486S422.21,6535.831,421.594,6527.826Z" transform="translate(-419.507 -6526.917)" fill="#fff"/><path d="M427.4,6524.354s2.691,1.586,4.139.811c0,0,1.318,7.773,3.68,7.888l-4.233,2.486S428.013,6532.359,427.4,6524.354Z" transform="translate(-424.222 -6524.096)" fill="#ebebeb"/><path d="M428.187,6522.974s2.691,1.586,4.139.812c0,0,1.318,7.773,3.681,7.887l-4.233,2.486S428.8,6530.979,428.187,6522.974Z" transform="translate(-424.864 -6522.974)" fill="#ebebeb"/><path d="M429.54,6524.554s2.691,1.586,4.139.811c0,0,1.318,7.773,3.68,7.887l-4.233,2.486S430.156,6532.558,429.54,6524.554Z" transform="translate(-425.963 -6524.258)" fill="#ebebeb"/><path d="M431.1,6526.209s2.691,1.586,4.139.811c0,0,1.318,7.773,3.681,7.887l-4.233,2.486S431.714,6534.214,431.1,6526.209Z" transform="translate(-427.229 -6525.603)" fill="#fff"/><path d="M432.139,6526.209s2.691,1.586,4.139.811c0,0,1.318,7.773,3.68,7.887l-4.233,2.486S432.755,6534.214,432.139,6526.209Z" transform="translate(-428.075 -6525.603)" fill="#ebebeb"/><g transform="translate(11.884 6.019)"><path d="M480.213,6557.8a.368.368,0,0,1-.368-.368v-1.373a.246.246,0,0,0-.246-.245H474.83a.246.246,0,0,0-.246.245v1.373a.368.368,0,1,1-.736,0v-1.373a.983.983,0,0,1,.982-.981H479.6a.983.983,0,0,1,.982.981v1.373A.368.368,0,0,1,480.213,6557.8Z" transform="translate(-473.848 -6555.079)" fill="#9999a5"/></g><rect width="11.994" height="10.302" rx="3.14" transform="translate(7.101 8.116)" fill="#ffd9a4"/><path d="M458.486,6566.854v9.125a.59.59,0,0,1-.59.588h-8.971a.588.588,0,0,1-.589-.588v-9.125a.588.588,0,0,1,.589-.588H457.9A.59.59,0,0,1,458.486,6566.854Z" transform="translate(-441.235 -6558.15)" fill="#ebebeb"/><rect width="11.994" height="10.302" rx="3.143" transform="translate(0 8.116)" fill="#cfd0d8"/></g></g></g><g transform="translate(103.566 0.316)"><g transform="translate(18.204 2.647)"><rect width="42.541" height="20.783" rx="6.672" transform="translate(0 -4)" fill="#fff" stroke="#231f20" stroke-miterlimit="10" stroke-width="0.25"/><text transform="translate(4.77 9.892)" fill="#2d356b" font-size="10" font-family="TrebuchetMS-Bold, Trebuchet MS" font-weight="700"><tspan x="0" y="0">Brenda</tspan></text></g><g transform="translate(0 19.43)"><path d="M907.293,6457.284l-18.681,1.835a3.538,3.538,0,0,1-3.884-3.521v-34.127a3.538,3.538,0,0,1,3.855-3.524l22.767,2.047c.071.006.143.009.215.011a3.381,3.381,0,0,1,3.255,3.928l-4.37,30.334A3.538,3.538,0,0,1,907.293,6457.284Z" transform="translate(-836.991 -6395.762)" fill="#c3e8e6"/><g transform="translate(23.484)"><path d="M913.949,6310.98c-1.706-6.6,9.634-13.43,14.059-10.68,0,0,11.055-.072,7.756,18.5-.146.821-3.524.792-3.5,2.581s-.137,1.588-.992,2.421-2.448-.362-2.82.246c-1.022,1.67,2.283,2.862,3.3,1.956,0,0-8.26,5.075-12.327-3.626C919.19,6321.875,914.4,6312.717,913.949,6310.98Z" transform="translate(-884.078 -6299.676)" fill="#fff4ba"/><g transform="translate(0 30.592)"><path d="M880.91,6463.174c-4.447-3.335-16.162,20.57-16.2,21.585,0,0,1.188,2.452,2.194,1.816C869.5,6484.933,882.9,6464.663,880.91,6463.174Z" transform="translate(-844.209 -6462.855)" fill="#495bd9"/><g transform="translate(0 20.59)"><path d="M761.866,6582.393c1.092,3.879,21.142-6.149,21.724-6.781,0,0,1.13-2.749-.853-2.924C780.138,6572.46,761.378,6580.658,761.866,6582.393Z" transform="translate(-760.64 -6572.683)" fill="#495bd9"/><path d="M755.364,6607.163l.261-1.206,4.256-1.96a9.606,9.606,0,0,1-.306,2.631C759.281,6607.078,755.364,6607.163,755.364,6607.163Z" transform="translate(-755.364 -6598.125)" fill="#fffdfd"/><path d="M755.388,6620.732l.251,1.2,4.208,1.912a9.5,9.5,0,0,0-.287-2.613C759.272,6620.782,755.388,6620.732,755.388,6620.732Z" transform="translate(-755.383 -6611.725)" fill="#fffdfd"/></g></g><g transform="translate(25.152 17.581)"><path d="M956.534,6393.455l-4.673,2.748-1.116,9.9,3.726-1.225Z" transform="translate(-939.268 -6393.455)" fill="#f6cda2"/><path d="M889.812,6494.955c9.347,5.979,13.017,3.946,18.553,3.867.348-7.843-3.942-13.349-3.853-18.835.164-10.17,9.157-21.855,2.144-26.662-7.447-5.1-17.126,17.165-17.126,17.165C896.995,6474.982,893.391,6482.894,889.812,6494.955Z" transform="translate(-889.53 -6441.482)" fill="#7b88ac"/><path d="M945.924,6450.81l-1.328-.2-6.126,5.432,1.721,1.542S944.31,6453.626,945.924,6450.81Z" transform="translate(-929.295 -6439.898)" fill="#fff"/><path d="M924.647,6456.718l-.082-.063c1.666-3.092,5.246-7.8,8.556-7.39C930.021,6451.872,924.647,6456.718,924.647,6456.718Z" transform="translate(-917.998 -6438.781)" fill="#f6cda2"/></g><g transform="translate(16.848 25.511)"><path d="M881.289,6491.028c.3-.369.444-.761.608-.626a.868.868,0,0,1-.089,1.033.884.884,0,0,1-1,.3C880.644,6491.6,880.988,6491.4,881.289,6491.028Z" transform="translate(-874.104 -6480.134)" fill="#f8c471"/><path d="M874.555,6488.923a2.175,2.175,0,0,1,0,.457c1.777-.481,1.429,1.048-.087,1.441a2.206,2.206,0,0,1-.592.075,2.743,2.743,0,0,1-.735.563,3.384,3.384,0,0,0,1.273-.1C876.945,6490.708,877.18,6488.3,874.555,6488.923Z" transform="translate(-867.907 -6478.873)" fill="#cfd0d8"/><path d="M880.7,6488.923c0,.049.006.087.008.124.633-.031,1.268-.11,1.481.376a1.133,1.133,0,0,1-.258,1.267C883.044,6489.761,882.719,6488.445,880.7,6488.923Z" transform="translate(-874.049 -6478.873)" fill="#cfd0d8"/><rect width="0.942" height="3.211" transform="translate(1.846 13.622) rotate(-88.313)" fill="#cfd0d8"/><path d="M857.812,6444.118c-1.324-.332-3.427-.978-1.317-2.376s2.185-4.543-.9-5.989c1.711.577,5.049,1.922,4.126,4.8-.415,1.3-3.423.62-3.655,2.329C856,6443.406,857.812,6444.118,857.812,6444.118Z" transform="translate(-853.656 -6435.753)" fill="#fff4ba" opacity="0.4"/><path d="M845.235,6485.138c-.048,1.6.892,4.031,3.2,4.075,3.28.062,3.709-2.649,3.816-3.868A40.952,40.952,0,0,0,845.235,6485.138Z" transform="translate(-845.234 -6475.83)" fill="#cfd0d8"/><path d="M848.752,6489.393c-2.3-.043-3.237-2.454-3.2-4.059-.108.005-.211.007-.321.012-.048,1.605.892,4.032,3.2,4.075a4.978,4.978,0,0,0,.721-.037C849.024,6489.392,848.892,6489.4,848.752,6489.393Z" transform="translate(-845.234 -6476.039)" fill="#cfd0d8"/><path d="M854.246,6486.562c-.04,1.336.547,3.354,2.02,3.377,2.1.031,2.385-2.229,2.46-3.245A20.2,20.2,0,0,0,854.246,6486.562Z" transform="translate(-852.555 -6476.983)" fill="#cfd0d8"/><path d="M852.976,6485.892c.005-.184-1.464-.376-3.281-.43s-3.3.052-3.3.236,1.463.375,3.281.428S852.97,6486.074,852.976,6485.892Z" transform="translate(-846.176 -6476.131)" fill="#fff"/><path d="M853.691,6486.194a24.647,24.647,0,0,0-6.158-.181,24.9,24.9,0,0,0,6.158.181Z" transform="translate(-847.102 -6476.49)" fill="#9999a5"/><path d="M887.14,6505.531c.472-.309.836-.645.731-.891s-.573-.194-1.045.116-.769.76-.663,1.005S886.668,6505.841,887.14,6505.531Z" transform="translate(-878.472 -6491.601)" fill="#f8c471"/><path d="M883,6500.432c.643-.083,1.156-.323,1.189-.061s-.42.792-1.065.876-1.231-.31-1.266-.571S882.358,6500.516,883,6500.432Z" transform="translate(-874.993 -6488.16)" fill="#f8c471"/><g transform="translate(6.705 10.742)"><path d="M897.527,6505.506c-1.322-.821-5.136-.424-4.894-1.76.215-1.2,2.333-2.8,5.485.709Z" transform="translate(-890.443 -6500.583)" fill="#ffd9a4"/><path d="M891.9,6500.786c-.247,2.138-2.85,1.828-3.648,1.542a1.936,1.936,0,0,1-.648-2.553C888.093,6499.213,892,6499.97,891.9,6500.786Z" transform="translate(-886.173 -6498.357)" fill="#ffd9a4"/><path d="M882.357,6496.647c-1.02-.374-1.467-.8-1.337-1.063s.7-.01,1.717.363,2.409.592,2.279.852S883.378,6497.018,882.357,6496.647Z" transform="translate(-880.998 -6495.022)" fill="#ffd9a4"/><path d="M883.152,6503.351c-1.1-.166-1.532-.745-1.459-1.021s1.044.114,2.14.279,1.8.33,1.723.606S884.248,6503.515,883.152,6503.351Z" transform="translate(-881.557 -6500.514)" fill="#ffd9a4"/><path d="M887.382,6511.176c-1.092-.177-1.663-.522-1.591-.8s.773-.022,1.865.154,1.857.314,1.782.589S888.476,6511.352,887.382,6511.176Z" transform="translate(-884.887 -6507.031)" fill="#ffd9a4"/><path d="M898.456,6494.962c-.731-1.034-.5-1.793-.032-1.908.162-.039,2.629,2.194,2.2,2.74C900.326,6496.181,899.19,6496,898.456,6494.962Z" transform="translate(-894.802 -6493.054)" fill="#ffd9a4"/></g><path d="M889.562,6486.992c-.373-.365-.488-.853-.837-.625-.278.182-.087.745.293,1.1.7.658,2.022,1.885,2.009.319C891.025,6487.507,889.96,6487.382,889.562,6486.992Z" transform="translate(-880.465 -6476.831)" fill="#f8c471"/></g><g transform="translate(29.103 30.96)"><path d="M917.172,6519c-3.067,2.5,8.006,16.494,8.812,16.782,0,0,2.836-1.006,2.423-1.925C927.336,6531.479,918.542,6517.884,917.172,6519Z" transform="translate(-915.506 -6508.788)" fill="#495bd9"/><path d="M963.9,6464.893c4.775-1.629.739,25.133-.665,25.637,0,0-2.583-.845-3.059-2.039C958.738,6484.882,961.765,6465.619,963.9,6464.893Z" transform="translate(-950.578 -6464.821)" fill="#495bd9"/><path d="M914.716,6512.04l1.086-.381,3.7,2.7a8.321,8.321,0,0,1-2.238,1.064C916.762,6515.4,914.716,6512.04,914.716,6512.04Z" transform="translate(-913.945 -6502.878)" fill="#fff"/><path d="M911.438,6513.4l-.833.833.622,4.685a8.7,8.7,0,0,0,1.955-1.593C913.391,6516.839,911.438,6513.4,911.438,6513.4Z" transform="translate(-910.605 -6504.29)" fill="#fff"/></g><g transform="translate(30.919 1.958)"><g transform="translate(0 1.78)"><path d="M928.63,6341.193c-.878.042-2.664-4.422-3.3-7.881-.209-1.14,1.021-1.333.758-5.245-.154-2.3.757-5.528,4.5-7.992,3.532-2.327,4.138,4.793,4.527,6.426,1.108,4.652,2.446,7.543,1.349,9.872C934.327,6340.919,929.569,6340.922,928.63,6341.193Z" transform="translate(-924.369 -6319.612)" fill="#ffd8a3"/><path d="M940.81,6401.258a.2.2,0,0,0-.193-.211.213.213,0,0,0-.164.242.2.2,0,0,0,.194.21A.212.212,0,0,0,940.81,6401.258Z" transform="translate(-936.672 -6385.779)" fill="#ffab00"/><path d="M936.938,6366.7c-.05-.616-.434-1.082-.857-1.041s-.727.575-.676,1.19.434,1.083.857,1.042S936.988,6367.317,936.938,6366.7Z" transform="translate(-932.567 -6357.024)" fill="#2d356b"/><path d="M934.738,6366.442a2.407,2.407,0,0,0-3.112-1A5.91,5.91,0,0,1,934.738,6366.442Z" transform="translate(-929.501 -6356.665)" fill="#2d356b"/><path d="M932.433,6415.569c-.033-.142-.45.386-.658.414-.589.079-.385.825.2.687C932.2,6416.615,932.468,6415.719,932.433,6415.569Z" transform="translate(-929.335 -6397.56)" fill="#f36973"/><path d="M930.7,6401.53c.393-.178-2.347-.829-1.814.064A4.257,4.257,0,0,0,930.7,6401.53Z" transform="translate(-927.218 -6385.851)" fill="#f36973"/><path d="M930.706,6349.866a3.6,3.6,0,0,1,4.446,2.059A4.623,4.623,0,0,0,930.706,6349.866Z" transform="translate(-928.753 -6344.068)" fill="#2d356b"/><path d="M920.936,6379.226l1.379.352-.115-3.474-1.909,2.566Z" transform="translate(-920.291 -6365.513)" fill="#ffd8a3"/><path d="M923.8,6393.833l-1.158-2.1,1.019-.085Z" transform="translate(-922.202 -6378.144)" fill="#ffd8a3"/><path d="M929.157,6405.435a25.634,25.634,0,0,1-.813-2.981l2.455-.116S930.434,6404.959,929.157,6405.435Z" transform="translate(-926.834 -6386.828)" fill="#ffab00"/><path d="M930.737,6404.5l-1.4.066q-.148-.562-.28-1.174l2.006-.095Z" transform="translate(-927.414 -6387.608)" fill="#fff"/><path d="M988.741,6373.261c-.106-1.068-.505-1.841.3-1.918s1.556.723,1.661,1.792a1.758,1.758,0,0,1-1.279,2.078C988.615,6375.292,988.845,6374.33,988.741,6373.261Z" transform="translate(-975.752 -6361.64)" fill="#f7c371"/></g><path d="M946.948,6310.123c.677,2.524,2.688,8.9,6.319,10.042,0,0,2.006-5.693-1.407-7.7C947.55,6309.93,946.948,6310.123,946.948,6310.123Z" transform="translate(-941.95 -6310.12)" fill="#fff4ba"/></g></g><g transform="translate(0 59.404)"><path d="M634.756,6625.707l84.931-1.87-2.022,16.331-81.7-3.976Z" transform="translate(-633.883 -6622.47)" fill="#cfd0d8"/><path d="M630.1,6616.544h89.546l-1.3,4.889-87.372-1.629Z" transform="translate(-630.096 -6616.544)" fill="#fff4ba"/></g><g transform="translate(7.389 37)"><rect width="31.705" height="21.963" rx="4.745" transform="translate(0.243)" fill="#ebebeb"/><rect width="32.191" height="1.585" transform="translate(0 22.614)" fill="#ebebeb"/><rect width="1.585" height="3.807" transform="translate(26.311 19.615)" fill="#ebebeb"/><rect width="1.585" height="3.807" transform="translate(4.344 19.615)" fill="#ebebeb"/><g transform="translate(12.373 6.626)"><path d="M739.23,6539.827a3.722,3.722,0,1,1,3.722-3.723A3.727,3.727,0,0,1,739.23,6539.827Zm0-6.026a2.3,2.3,0,1,0,2.3,2.3A2.306,2.306,0,0,0,739.23,6533.8Z" transform="translate(-735.507 -6532.382)" fill="#7b88ac"/></g></g><g transform="translate(70.395 46.37)"><g transform="translate(0.244 6.993)"><path d="M1008.673,6591.8h4.272v-7.484h-6.051Z" transform="translate(-1006.893 -6584.319)" fill="#cfd0d8"/><path d="M1032.526,6591.8h-4.272v-7.484h6.051Z" transform="translate(-1024.249 -6584.319)" fill="#ebebeb"/></g><g transform="translate(6.296 2.312)"><path d="M1044.4,6564.03s1.291-3.7,3.95-4.682a7.95,7.95,0,0,0-1.975,4.682Z" transform="translate(-1043.418 -6559.349)" fill="#ffe200"/><path d="M1044.1,6559.349s-2.808.521-4.929,4.682h.98A10.739,10.739,0,0,1,1044.1,6559.349Z" transform="translate(-1039.172 -6559.349)" fill="#ffe200"/></g><g transform="translate(0 4.201)"><path d="M1007.945,6572.217s-.77-2.206-2.356-2.792a4.74,4.74,0,0,1,1.178,2.792Z" transform="translate(-1005.589 -6569.425)" fill="#ffe200"/><path d="M1005.589,6569.425s1.675.311,2.94,2.792h-.584A6.4,6.4,0,0,0,1005.589,6569.425Z" transform="translate(-1005.589 -6569.425)" fill="#ffe200"/></g><g transform="translate(1.06 2.312)"><path d="M1013.469,6564.03s-.727-3.7-2.224-4.682a11.369,11.369,0,0,1,1.112,4.682Z" transform="translate(-1011.244 -6559.349)" fill="#ffe200"/><path d="M1011.244,6559.349s1.581.521,2.776,4.682h-.552A11.958,11.958,0,0,0,1011.244,6559.349Z" transform="translate(-1011.244 -6559.349)" fill="#ffe200"/></g><g transform="translate(2.448)"><path d="M1020.874,6554.011s-.727-5.525-2.225-6.993a23.813,23.813,0,0,1,1.112,6.993Z" transform="translate(-1018.649 -6547.019)" fill="#ffe200"/><path d="M1018.649,6547.019s1.581.777,2.777,6.993h-.552S1020.179,6549.436,1018.649,6547.019Z" transform="translate(-1018.649 -6547.019)" fill="#ffe200"/></g><g transform="translate(4.907)"><path d="M1034.71,6554.011s.727-5.525,2.225-6.993a23.8,23.8,0,0,0-1.112,6.993Z" transform="translate(-1034.158 -6547.019)" fill="#ffe200"/><path d="M1034.543,6547.019s-1.582.777-2.777,6.993h.552S1033.013,6549.436,1034.543,6547.019Z" transform="translate(-1031.766 -6547.019)" fill="#ffe200"/></g></g></g></g></g><g transform="translate(93.028 6465.594)"><path d="M426,6653.98v14.166h67.744l3.511-7.031-3.511-7.135Z" transform="translate(-425.995 -6653.98)" fill="#ffac00"/><text transform="translate(2.072 12.083)" fill="#fff" font-size="14" font-family="TrebuchetMS-Bold, Trebuchet MS" font-weight="700"><tspan x="0" y="0">Tomorrow</tspan></text></g></g><text transform="translate(76 6606.253)" fill="#7f8288" font-size="13" font-family="SegoeUISymbol, Segoe UI Symbol"><tspan x="0" y="14">♫</tspan></text></g></svg>