<svg xmlns="http://www.w3.org/2000/svg" width="540" height="377.162" viewBox="0 0 540 377.162"><g transform="translate(-335.27 -5971.747)"><g transform="translate(335.27 5972.284)"><g transform="translate(0.675)"><path d="M876.026,5973.057h-539.1v225.657H876.117v-22.667h.005V5983.854" transform="translate(-336.924 -5972.741)" fill="#fff"/><rect width="537.195" height="0.631" transform="translate(0 225.657)" fill="#a0bacb"/><rect width="539.198" height="0.631" fill="#7b88ac"/><g transform="translate(180.706 46.109)"><path d="M726.717,6086.189v-.166h-5.125v.166H668.609v137.576H777.414V6086.189Zm46.193,4.417v30.252H726.717v-30.252Zm-51.319,35.473v57.8H673.114v-57.8Zm5.125,57.8v-57.8H772.91v57.8Zm-5.125-93.269v30.252H673.114v-30.252ZM673.114,6189.1h48.478v30.252H673.114Zm53.6,30.252V6189.1H772.91v30.252Z" transform="translate(-668.287 -6085.708)" fill="#ebebeb"/><path d="M777.269,6223.624H667.82V6085.416H720.8v-.165h5.769v.165h50.7Zm-108.805-.631H776.626V6086.047h-50.7v-.166h-4.482v.166H668.464Zm104.3-3.786H725.928v-30.883h46.836Zm-46.193-.631h45.549v-29.622H726.572Zm-5.126.631H672.325v-30.883h49.121Zm-48.478-.631H720.8v-29.622H672.968Zm99.8-34.842H725.928v-58.427h46.836Zm-46.193-.631h45.549v-57.165H726.572Zm-5.126.631H672.325v-58.427h49.121Zm-48.478-.631H720.8v-57.165H672.968Zm99.8-62.385H725.928v-30.883h46.836Zm-46.193-.631h45.549v-29.622H726.572Zm-5.126.631H672.325v-30.883h49.121Zm-48.478-.631H720.8v-29.622H672.968Z" transform="translate(-667.82 -6085.25)" fill="#ebebeb"/></g><g transform="translate(453.278 46.109)"><path d="M1267.85,6219.348h-27.457V6189.1h27.457v-5.22h-27.457v-57.8h27.457v-5.221h-27.457v-30.252h27.457v-4.417h-27.457v-.166h-5.125v.166h-52.983v137.576h85.565Zm-32.583,0H1186.79V6189.1h48.478Zm0-35.473H1186.79v-57.8h48.478Zm0-63.017H1186.79v-30.252h48.478Z" transform="translate(-1181.964 -6085.708)" fill="#ebebeb"/><path d="M1323.861,6368.66h27.779v-.632H1324.5v-29.621h27.135v-.631h-27.779Z" transform="translate(-1265.753 -6234.704)" fill="#ebebeb"/><path d="M1323.861,6241.814h27.779v-.632H1324.5v-57.165h27.135v-.631h-27.779Z" transform="translate(-1265.753 -6143.331)" fill="#ebebeb"/><path d="M1323.861,6127.361h27.779v-.631H1324.5V6097.11h27.135v-.631h-27.779Z" transform="translate(-1265.753 -6091.896)" fill="#ebebeb"/><path d="M1241.655,6096.479h-49.121v30.883h49.121Zm-.644,30.252h-47.834V6097.11h47.834Z" transform="translate(-1188.03 -6091.896)" fill="#ebebeb"/><path d="M1267.384,6222.992h-85.243V6086.047h52.982v-.166h4.482v.166h27.779v-.631h-27.135v-.165h-5.769v.165H1181.5v138.208h85.886Z" transform="translate(-1181.498 -6085.25)" fill="#ebebeb"/><path d="M1192.534,6368.66h49.121v-30.883h-49.121Zm.644-30.252h47.834v29.621h-47.834Z" transform="translate(-1188.03 -6234.704)" fill="#ebebeb"/><path d="M1241.655,6183.387h-49.121v58.428h49.121Zm-.644,57.8h-47.834v-57.165h47.834Z" transform="translate(-1188.03 -6143.331)" fill="#ebebeb"/></g></g><g transform="translate(314.839 104.887)"><ellipse cx="10.719" cy="10.512" rx="10.719" ry="10.512" fill="#fff4ba"/><g transform="translate(0.588 0.577)"><path d="M956.724,6245.418a9.937,9.937,0,1,1,10.131-9.935A10.045,10.045,0,0,1,956.724,6245.418Zm0-19.485a9.552,9.552,0,1,0,9.739,9.55A9.657,9.657,0,0,0,956.724,6225.933Z" transform="translate(-946.593 -6225.548)" fill="#fff4ba"/></g><g transform="translate(10.524 3.205)"><path d="M976.882,6239.485H971.13a.194.194,0,0,1-.2-.192v-7.115a.2.2,0,0,1,.392,0v6.922h5.556a.192.192,0,1,1,0,.385Z" transform="translate(-970.934 -6231.987)" fill="#fff4ba"/></g><g transform="translate(10.524 1.186)"><path d="M971.13,6228.435a.194.194,0,0,1-.2-.193v-1.009a.2.2,0,0,1,.392,0v1.009A.194.194,0,0,1,971.13,6228.435Z" transform="translate(-970.934 -6227.041)" fill="#fff4ba"/><g transform="translate(0 17.065)"><path d="M971.13,6270.245a.194.194,0,0,1-.2-.192v-1.01a.2.2,0,0,1,.392,0v1.01A.194.194,0,0,1,971.13,6270.245Z" transform="translate(-970.934 -6268.851)" fill="#fff4ba"/></g></g><g transform="translate(1.307 10.223)"><g transform="translate(17.403)"><path d="M992.216,6249.567h-1.03a.192.192,0,1,1,0-.385h1.03a.192.192,0,1,1,0,.385Z" transform="translate(-990.991 -6249.182)" fill="#fff4ba"/></g><path d="M949.58,6249.567H948.55a.192.192,0,1,1,0-.385h1.029a.192.192,0,1,1,0,.385Z" transform="translate(-948.354 -6249.182)" fill="#fff4ba"/></g><g transform="translate(2.5 2.595)"><g transform="translate(0 3.18)"><g transform="translate(15.149)"><path d="M988.59,6239.167a.2.2,0,0,1-.171-.1.19.19,0,0,1,.074-.262l.9-.5a.2.2,0,0,1,.267.072.19.19,0,0,1-.074.262l-.9.5A.2.2,0,0,1,988.59,6239.167Z" transform="translate(-988.393 -6238.286)" fill="#fff4ba"/></g><g transform="translate(0 8.399)"><path d="M951.474,6259.744a.2.2,0,0,1-.171-.1.19.19,0,0,1,.074-.262l.9-.5a.2.2,0,0,1,.267.073.19.19,0,0,1-.074.262l-.9.5A.2.2,0,0,1,951.474,6259.744Z" transform="translate(-951.278 -6258.862)" fill="#fff4ba"/></g></g><g transform="translate(3.08)"><g transform="translate(9.333)"><path d="M981.886,6231.73a.2.2,0,0,1-.1-.03.191.191,0,0,1-.06-.266l.552-.852a.2.2,0,0,1,.271-.059.191.191,0,0,1,.06.266l-.552.852A.2.2,0,0,1,981.886,6231.73Z" transform="translate(-981.69 -6230.494)" fill="#fff4ba"/></g><g transform="translate(0 14.404)"><path d="M959.02,6267.02a.2.2,0,0,1-.1-.03.19.19,0,0,1-.06-.265l.552-.852a.2.2,0,0,1,.271-.06.191.191,0,0,1,.06.266l-.552.852A.2.2,0,0,1,959.02,6267.02Z" transform="translate(-958.824 -6265.783)" fill="#fff4ba"/></g></g></g><g transform="translate(2.745 2.356)"><g transform="translate(3.243)"><g transform="translate(8.565 14.855)"><path d="M981.508,6267.567a.2.2,0,0,1-.171-.1l-.507-.879a.19.19,0,0,1,.074-.262.2.2,0,0,1,.267.073l.507.878a.19.19,0,0,1-.074.262A.194.194,0,0,1,981.508,6267.567Z" transform="translate(-980.805 -6266.304)" fill="#fff4ba"/></g><path d="M960.524,6231.171a.2.2,0,0,1-.171-.1l-.507-.879a.191.191,0,0,1,.074-.262.2.2,0,0,1,.267.073l.507.878a.191.191,0,0,1-.074.263A.2.2,0,0,1,960.524,6231.171Z" transform="translate(-959.821 -6229.908)" fill="#fff4ba"/></g><g transform="translate(0 3.02)"><g transform="translate(14.688 9.152)"><path d="M988.927,6260.657a.193.193,0,0,1-.1-.031l-.869-.541a.189.189,0,0,1-.06-.265.2.2,0,0,1,.271-.059l.869.541a.191.191,0,0,1,.06.266A.2.2,0,0,1,988.927,6260.657Z" transform="translate(-987.862 -6259.731)" fill="#fff4ba"/></g><path d="M952.941,6238.233a.2.2,0,0,1-.1-.03l-.869-.542a.189.189,0,0,1-.06-.265.2.2,0,0,1,.271-.06l.869.542a.19.19,0,0,1,.06.265A.2.2,0,0,1,952.941,6238.233Z" transform="translate(-951.876 -6237.308)" fill="#fff4ba"/></g></g></g><g transform="translate(0 204.596)"><path d="M875.142,6457.215H335.915v122.23h-.645v49.376H875.137v-166.4h.005Z" transform="translate(-335.27 -6456.792)" fill="#f9f9f9"/><rect width="538.459" height="0.714" transform="translate(1.541 171.047)" fill="#f9f9f9"/><rect width="539.361" height="0.714" transform="translate(0.515)" fill="#f9f9f9"/></g><g transform="translate(22.019 3.978)"><path d="M937.617,6049.543v-67.512h-1.375v67.512a8.346,8.346,0,1,0,1.375,0Z" transform="translate(-708.434 -5982.031)" fill="#fff4ba"/><path d="M398.249,6062.607V5995.1h-1.375v67.512a8.347,8.347,0,1,0,1.375,0Z" transform="translate(-389.217 -5989.764)" fill="#fff4ba"/><path d="M587.678,6057.316v-49.083h-1v49.083a6.068,6.068,0,1,0,1,0Z" transform="translate(-502.787 -5997.539)" fill="#fff4ba"/><path d="M1103.019,6057.316v-49.083h-1v49.083a6.068,6.068,0,1,0,1,0Z" transform="translate(-807.784 -5997.539)" fill="#fff4ba"/><path d="M751.649,6043.85v-49.083h-1v49.083a6.068,6.068,0,1,0,1,0Z" transform="translate(-599.83 -5989.568)" fill="#fff4ba"/></g><g transform="translate(359.988 19.141)"><g transform="translate(0 27.251)"><rect width="50.823" height="2.136" transform="translate(0.463 0.454)" fill="#ebebeb"/><path d="M1072.9,6088.988h-51.749v-3.043H1072.9Zm-50.823-.908h49.9v-1.228h-49.9Z" transform="translate(-1021.149 -6085.944)" fill="#ebebeb"/><g transform="translate(0 32.217)"><rect width="50.823" height="2.136" transform="translate(0.463 0.454)" fill="#ebebeb"/><path d="M1072.9,6167.921h-51.749v-3.044H1072.9Zm-50.823-.909h49.9v-1.227h-49.9Z" transform="translate(-1021.149 -6164.876)" fill="#ebebeb"/></g><g transform="translate(0 64.434)"><rect width="50.823" height="2.136" transform="translate(0.463 0.454)" fill="#ebebeb"/><path d="M1072.9,6246.85h-51.749v-3.043H1072.9Zm-50.823-.908h49.9v-1.227h-49.9Z" transform="translate(-1021.149 -6243.807)" fill="#ebebeb"/></g><g transform="translate(0 0.712)"><g transform="translate(0 96.65)"><rect width="50.823" height="2.136" transform="translate(0.463 0.454)" fill="#ebebeb"/><path d="M1072.9,6327.525h-51.749v-3.044H1072.9Zm-50.823-.908h49.9v-1.228h-49.9Z" transform="translate(-1021.149 -6324.481)" fill="#ebebeb"/></g><g transform="translate(0 127.485)"><rect width="50.823" height="2.136" transform="translate(0.463 0.454)" fill="#ebebeb"/><path d="M1072.9,6403.07h-51.749v-3.045H1072.9Zm-50.823-.909h49.9v-1.227h-49.9Z" transform="translate(-1021.149 -6400.025)" fill="#ebebeb"/></g><rect width="2.723" height="154.98" transform="translate(0.463 0.454)" fill="#ebebeb"/><path d="M1024.8,6243.578h-3.649V6087.689h3.649Zm-2.722-.909h1.8V6088.6h-1.8Z" transform="translate(-1021.149 -6087.689)" fill="#ebebeb"/><g transform="translate(48.1)"><rect width="2.723" height="154.98" transform="translate(0.463 0.454)" fill="#ebebeb"/><path d="M1142.643,6243.578h-3.649V6087.689h3.649Zm-2.723-.909h1.8V6088.6h-1.8Z" transform="translate(-1138.994 -6087.689)" fill="#ebebeb"/></g></g></g><g transform="translate(9.11 34.846)"><rect width="5.324" height="24.622" transform="translate(0.463 0.455)" fill="#ebebeb"/><path d="M1049.719,6130.081h-6.251V6104.55h6.251Zm-5.324-.908h4.4v-23.715h-4.4Z" transform="translate(-1043.468 -6104.55)" fill="#ebebeb"/><path d="M1050.335,6116.978a1.755,1.755,0,1,1-1.755-1.721A1.737,1.737,0,0,1,1050.335,6116.978Z" transform="translate(-1045.455 -6110.887)" fill="#ebebeb"/><g transform="translate(6.258)"><rect width="5.324" height="24.622" transform="translate(0.463 0.455)" fill="#ebebeb"/><path d="M1065.051,6130.081h-6.25V6104.55h6.25Zm-5.324-.908h4.4v-23.715h-4.4Z" transform="translate(-1058.8 -6104.55)" fill="#ebebeb"/><path d="M1065.668,6116.978a1.755,1.755,0,1,1-1.755-1.721A1.737,1.737,0,0,1,1065.668,6116.978Z" transform="translate(-1060.788 -6110.887)" fill="#ebebeb"/></g><g transform="translate(12.516)"><rect width="5.324" height="24.622" transform="translate(0.463 0.455)" fill="#ebebeb"/><path d="M1080.383,6130.081h-6.25V6104.55h6.25Zm-5.324-.908h4.4v-23.715h-4.4Z" transform="translate(-1074.133 -6104.55)" fill="#ebebeb"/><path d="M1081,6116.978a1.755,1.755,0,1,1-1.755-1.721A1.737,1.737,0,0,1,1081,6116.978Z" transform="translate(-1076.12 -6110.887)" fill="#ebebeb"/></g><g transform="translate(18.774)"><rect width="5.324" height="24.622" transform="translate(0.463 0.455)" fill="#ebebeb"/><path d="M1095.716,6130.081h-6.251V6104.55h6.251Zm-5.325-.908h4.4v-23.715h-4.4Z" transform="translate(-1089.465 -6104.55)" fill="#ebebeb"/><path d="M1096.333,6116.978a1.755,1.755,0,1,1-1.754-1.721A1.737,1.737,0,0,1,1096.333,6116.978Z" transform="translate(-1091.453 -6110.887)" fill="#ebebeb"/></g><g transform="translate(25.033)"><rect width="5.324" height="24.622" transform="translate(0.463 0.455)" fill="#ebebeb"/><path d="M1111.049,6130.081H1104.8V6104.55h6.251Zm-5.325-.908h4.4v-23.715h-4.4Z" transform="translate(-1104.798 -6104.55)" fill="#ebebeb"/><path d="M1111.666,6116.978a1.755,1.755,0,1,1-1.755-1.721A1.737,1.737,0,0,1,1111.666,6116.978Z" transform="translate(-1106.786 -6110.887)" fill="#ebebeb"/></g></g><path d="M1046.007,6280.727a11.677,11.677,0,0,1,.829-4.524h-6.382a11.677,11.677,0,0,1,.829,4.524c0,2.737-2.8,7.792-2.8,11.161s2.965,4.475,5.159,4.475,5.159-1.105,5.159-4.475S1046.007,6283.464,1046.007,6280.727Z" transform="translate(-1031.41 -6171.294)" fill="#ebebeb"/><g transform="translate(27.088 70.045)"><g transform="translate(0.791)"><path d="M1106.607,6203.019c1.721-3.96-2.1-3.887-1.813-4.927.547-1.952,2.61.169,3.447-.814s-2.065-4.045-.545-5.106.987,2.529,2.3,2.274.531-4.047,2.08-3.624c1.164.318-.219,2.689-.091,3.8s2.529-.506,2.57,1.075-2.863.888-3.2,2.09,3.123,1.451,1.908,2.468-3.505-.2-4.108.857S1105.876,6204.7,1106.607,6203.019Z" transform="translate(-1098.523 -6190.789)" fill="#ebebeb"/><path d="M1096.477,6210.991c-1.618-4-4.285-1.312-4.823-2.252-1.011-1.764,1.976-1.68,1.866-2.956s-4.369-1.451-4.051-3.253,2.516,1.116,3.266.03-2.526-3.244-1.121-4.011c1.055-.576,1.773,2.063,2.658,2.762s1.434-2.1,2.6-1.009-1.4,2.606-.778,3.7,3.26-1.124,3.126.437-2.635,2.275-2.305,3.442S1097.164,6212.69,1096.477,6210.991Z" transform="translate(-1089.452 -6195.333)" fill="#ebebeb"/></g><path d="M1099.449,6215.557h-8.833s-3.1,2.61-3.1,5.7,1.933,6.289,7.518,6.289,7.518-3.2,7.518-6.289S1099.449,6215.557,1099.449,6215.557Z" transform="translate(-1087.515 -6205.447)" fill="#ebebeb"/></g><g transform="translate(29.255 111.006)"><rect width="8.153" height="10.858" transform="translate(2.522 3.204)" fill="#ebebeb"/><ellipse cx="6.434" cy="3.204" rx="6.434" ry="3.204" fill="#ebebeb"/></g><g transform="translate(23.577 17.28)"><rect width="6.045" height="8.05" transform="translate(1.87 2.375)" fill="#ebebeb"/><path d="M1088.454,6063.891c0,1.312-2.136,2.375-4.771,2.375s-4.77-1.063-4.77-2.375,2.136-2.375,4.77-2.375S1088.454,6062.579,1088.454,6063.891Z" transform="translate(-1078.913 -6061.516)" fill="#ebebeb"/></g><g transform="translate(3.367)"><path d="M1055.13,6043.315s-2.091-7.119,7.166-15.129c0,0-7.926,8.544-5.324,15.129Z" transform="translate(-1044.508 -6024.509)" fill="#ebebeb"/><path d="M1052.7,6039.6s-4.795-7.931,3.792-20.423c0,0-6.813,12.725-1.574,19.856Z" transform="translate(-1042.401 -6019.178)" fill="#ebebeb"/><path d="M1040.3,6043.315s2.091-7.119-7.166-15.129c0,0,7.926,8.544,5.324,15.129Z" transform="translate(-1031.608 -6024.509)" fill="#ebebeb"/><path d="M1046.745,6040.5s3.852-6.374-3.05-16.411c0,0,5.476,10.226,1.268,15.957Z" transform="translate(-1037.86 -6022.087)" fill="#ebebeb"/><path d="M1054.391,6051.458s-1.808-7.193,7.76-14.844c0,0-8.259,8.235-5.92,14.915Z" transform="translate(-1044.11 -6029.497)" fill="#ebebeb"/><path d="M1037.159,6049.318s1.807-7.193-7.76-14.844c0,0,8.258,8.235,5.92,14.915Z" transform="translate(-1029.399 -6028.231)" fill="#ebebeb"/><path d="M1042.051,6059.148h-6.258l2.872,11.392h6.772l2.872-11.392Z" transform="translate(-1033.183 -6042.834)" fill="#ebebeb"/></g><g transform="translate(4.856 83.239)"><g transform="translate(0 0)"><g transform="translate(0.463 6.027)"><rect width="3.008" height="19.155" transform="translate(0 3.008) rotate(-90)" fill="#ebebeb"/></g><g transform="translate(0 2.554)"><rect width="3.008" height="19.155" transform="translate(0.463 3.462) rotate(-90)" fill="#ebebeb"/><path d="M1053.129,6233.286h-20.082v-3.916h20.082Zm-19.155-.909H1052.2v-2.1h-18.229Z" transform="translate(-1033.047 -6229.37)" fill="#ebebeb"/></g><g transform="translate(0.463)"><rect width="3.008" height="19.155" transform="translate(0 3.008) rotate(-90)" fill="#ebebeb"/></g></g><g transform="translate(11.745 0)"><rect width="0.138" height="3.008" fill="#ebebeb"/></g><g transform="translate(13.288 0)"><rect width="0.138" height="3.008" fill="#ebebeb"/></g><g transform="translate(14.83 0)"><rect width="0.138" height="3.008" fill="#ebebeb"/></g><g transform="translate(16.373 0)"><rect width="0.137" height="3.008" fill="#ebebeb"/></g><rect width="9.015" height="0.496" transform="translate(9.666 6.54)" fill="#ebebeb"/><rect width="9.015" height="0.496" transform="translate(9.666 7.283)" fill="#ebebeb"/><rect width="9.015" height="0.496" transform="translate(9.666 8.026)" fill="#ebebeb"/></g></g><g transform="translate(202.142 152.529)"><path d="M826.361,6555.453H709.2a3.362,3.362,0,0,1-3.229-4.294h0a3.361,3.361,0,0,1,3.229-2.429H826.361a3.362,3.362,0,0,1,3.23,2.429h0A3.362,3.362,0,0,1,826.361,6555.453Z" transform="translate(-703.429 -6462.15)" fill="#ebebeb" opacity="0.32"/><g transform="translate(0 29.787)"><rect width="2.266" height="56.477" transform="translate(1.351 0.316)" fill="#ebebeb"/><rect width="2.266" height="56.477" transform="translate(124.446 0.316)" fill="#ebebeb"/><path d="M828.38,6415.914h-127.5l.97-5.552H827.192Z" transform="translate(-700.494 -6410.046)" fill="#ebebeb"/><path d="M828.223,6415.771H699.941l1.08-6.183H826.9ZM700.7,6415.14H827.43l-1.053-4.921H701.564Z" transform="translate(-699.941 -6409.588)" fill="#ebebeb"/><g transform="translate(0.06 5.552)"><path d="M828.162,6423.964H700.875v57.965h2.1v-54.161h123.3v54.161h2.1v-57.965Z" transform="translate(-700.554 -6423.648)" fill="#ebebeb"/><path d="M828.234,6481.787h-2.748v-54.161H702.835v54.161h-2.748v-58.6H828.234Zm-2.1-.631h1.461v-57.335H700.731v57.335h1.46V6427H826.13Z" transform="translate(-700.087 -6423.19)" fill="#ebebeb"/></g></g><g transform="translate(32.691)"><path d="M821.945,6338.944v20.761a2.444,2.444,0,0,1-2.527,2.335H782.56a2.444,2.444,0,0,1-2.527-2.335v-20.761a2.447,2.447,0,0,1,2.527-2.335h36.858A2.447,2.447,0,0,1,821.945,6338.944Z" transform="translate(-780.033 -6336.609)" fill="#ebebeb"/><path d="M783.786,6362.392a1.627,1.627,0,0,1-1.685-1.558v-20.76a1.627,1.627,0,0,1,1.685-1.557h36.855a1.626,1.626,0,0,1,1.684,1.557v20.76a1.626,1.626,0,0,1-1.684,1.558Z" transform="translate(-781.257 -6337.739)" fill="#ebebeb"/><g transform="translate(1.364 1.242)"><path d="M785.008,6362.741a.813.813,0,0,1-.842-.778V6341.2a.813.813,0,0,1,.842-.779h36.855a.814.814,0,0,1,.842.779v20.76a.813.813,0,0,1-.842.778Z" transform="translate(-783.843 -6340.108)" fill="#ebebeb"/><path d="M821.4,6362.6H784.541a1.133,1.133,0,0,1-1.165-1.095v-20.76a1.132,1.132,0,0,1,1.165-1.094H821.4a1.132,1.132,0,0,1,1.164,1.094v20.76A1.132,1.132,0,0,1,821.4,6362.6Zm-36.855-22.317a.5.5,0,0,0-.521.463v20.76a.5.5,0,0,0,.521.464H821.4a.5.5,0,0,0,.521-.464v-20.76a.5.5,0,0,0-.521-.463Z" transform="translate(-783.376 -6339.651)" fill="#ebebeb"/></g><path d="M829.151,6382.635h-9.884l1.115-11.227h7.653Z" transform="translate(-803.253 -6357.204)" fill="#ebebeb"/><g transform="translate(15.975 13.292)"><path d="M829.291,6388.194h-9.266l1.455-18.247h6.357Z" transform="translate(-819.677 -6369.632)" fill="#ebebeb"/><path d="M829.135,6388.052h-9.963l1.505-18.877h6.952l.022.291Zm-9.267-.631h8.57l-1.4-17.615h-5.761Z" transform="translate(-819.172 -6369.174)" fill="#ebebeb"/></g><g transform="translate(9.683 30.76)"><path d="M826.448,6415.534h-21.9a2.911,2.911,0,0,1,3.018-2.79H823.43a2.911,2.911,0,0,1,3.018,2.79Z" transform="translate(-804.224 -6412.429)" fill="#ebebeb"/><path d="M826.3,6415.392H803.757v-.315a3.233,3.233,0,0,1,3.341-3.105h15.865a3.232,3.232,0,0,1,3.34,3.105Zm-21.88-.631h21.215a2.631,2.631,0,0,0-2.675-2.159H807.1A2.632,2.632,0,0,0,804.422,6414.761Z" transform="translate(-803.757 -6411.971)" fill="#ebebeb"/></g></g></g><g transform="translate(1.97 153.816)"><path d="M463.142,6552.768H349.106a3.272,3.272,0,0,1-3.143-4.179h0a3.271,3.271,0,0,1,3.143-2.364H463.142a3.272,3.272,0,0,1,3.144,2.364h0A3.272,3.272,0,0,1,463.142,6552.768Z" transform="translate(-343.492 -6461.956)" fill="#ebebeb" opacity="0.32"/><g transform="translate(0 28.992)"><rect width="2.206" height="54.969" transform="translate(1.315 0.307)" fill="#ebebeb"/><rect width="2.206" height="54.969" transform="translate(121.124 0.307)" fill="#ebebeb"/><path d="M465.107,6416.953h-124.1l.944-5.4h122Z" transform="translate(-340.635 -6411.243)" fill="#ebebeb"/><path d="M464.955,6416.815H340.1l1.051-6.018h122.52Zm-124.115-.614H464.183l-1.024-4.791H341.676Z" transform="translate(-340.097 -6410.797)" fill="#ebebeb"/><g transform="translate(0.058 5.404)"><path d="M464.9,6424.789H341.006v56.418h2.048v-52.715h120v52.715h2.048v-56.418Z" transform="translate(-340.693 -6424.482)" fill="#ebebeb"/><path d="M464.966,6481.069h-2.675v-52.715H342.914v52.715h-2.675v-57.032H464.966Zm-2.048-.614h1.422v-55.8H340.866v55.8h1.422v-52.715H462.918Z" transform="translate(-340.239 -6424.037)" fill="#ebebeb"/></g></g><g transform="translate(85.058)"><path d="M589.281,6342.039v20.207a2.379,2.379,0,0,1-2.459,2.272H550.947a2.379,2.379,0,0,1-2.459-2.272v-20.207a2.382,2.382,0,0,1,2.459-2.272h35.874A2.382,2.382,0,0,1,589.281,6342.039Z" transform="translate(-548.488 -6339.767)" fill="#ebebeb"/><path d="M552.14,6364.86a1.583,1.583,0,0,1-1.64-1.515v-20.207a1.583,1.583,0,0,1,1.64-1.515h35.872a1.583,1.583,0,0,1,1.64,1.515v20.207a1.583,1.583,0,0,1-1.64,1.515Z" transform="translate(-549.679 -6340.865)" fill="#ebebeb"/><g transform="translate(1.328 1.209)"><path d="M553.329,6365.2a.792.792,0,0,1-.82-.758v-20.207a.792.792,0,0,1,.82-.757H589.2a.792.792,0,0,1,.82.757v20.207a.792.792,0,0,1-.82.758Z" transform="translate(-552.196 -6343.173)" fill="#ebebeb"/><path d="M588.747,6365.063H552.875a1.1,1.1,0,0,1-1.133-1.064v-20.206a1.1,1.1,0,0,1,1.133-1.065h35.872a1.1,1.1,0,0,1,1.133,1.065V6364A1.1,1.1,0,0,1,588.747,6365.063Zm-35.872-21.721a.482.482,0,0,0-.507.451V6364a.481.481,0,0,0,.507.45h35.872a.481.481,0,0,0,.506-.45v-20.206a.481.481,0,0,0-.506-.451Z" transform="translate(-551.742 -6342.727)" fill="#ebebeb"/></g><path d="M596.295,6384.563h-9.62l1.086-10.927h7.449Z" transform="translate(-571.088 -6359.812)" fill="#ebebeb"/><g transform="translate(15.549 12.937)"><path d="M596.431,6389.974h-9.019l1.416-17.76h6.187Z" transform="translate(-587.074 -6371.906)" fill="#ebebeb"/><path d="M596.279,6389.835h-9.7l1.465-18.374h6.766Zm-9.019-.614H595.6l-1.367-17.146h-5.608Z" transform="translate(-586.583 -6371.461)" fill="#ebebeb"/></g><g transform="translate(9.425 29.939)"><path d="M593.664,6416.584H572.346a2.833,2.833,0,0,1,2.938-2.715h15.442a2.833,2.833,0,0,1,2.938,2.715Z" transform="translate(-572.033 -6413.563)" fill="#ebebeb"/><path d="M593.523,6416.446H571.579v-.307a3.147,3.147,0,0,1,3.251-3.022h15.442a3.147,3.147,0,0,1,3.251,3.022Zm-21.3-.615h20.649a2.563,2.563,0,0,0-2.6-2.1H574.83A2.564,2.564,0,0,0,572.226,6415.832Z" transform="translate(-571.579 -6413.117)" fill="#ebebeb"/></g></g></g><g transform="translate(8.237 139.937)"><g transform="translate(8.358)"><path d="M377.252,6328.071s-.691-4.655-1-5.68c-.4-1.323-.6-3.293.51-4.453s1.282-3.889,1.282-4.306.417-6.679,5.009-5.751c0,0,1.9.464.974,3.8,0,0-.974,2,.255,3.247a5.086,5.086,0,0,1,0,6.912c-2.3,2.783-1.642,3.8-1.276,4.87,1.673,4.871-1.887,9.345-2.273,10.538s-.85,3.152-.463,4.28l-1.35.024Z" transform="translate(-375.927 -6307.788)" fill="#ebebeb"/></g><g transform="translate(11.696 4.714)"><path d="M384.475,6348.57a.238.238,0,0,0,.041,0,.205.205,0,0,0,.159-.241c-.516-2.513.389-6.991.4-7.036.5-1.906.645-4.342-.183-10.551a23.842,23.842,0,0,1,.252-8.146,13.641,13.641,0,0,1,.944-2.96.2.2,0,0,0-.364-.184,13.7,13.7,0,0,0-.975,3.04,24.235,24.235,0,0,0-.261,8.3c.816,6.123.666,8.588.19,10.4-.041.2-.934,4.616-.4,7.211A.2.2,0,0,0,384.475,6348.57Z" transform="translate(-384.107 -6319.336)" fill="#ebebeb"/></g><g transform="translate(12.805 17.889)"><path d="M388.42,6367.593s0-1.1,2.253-2.137a3.763,3.763,0,0,0,2.253-2.715c.578-2.195,2.2-1.617,3.235-.982s3.4,0,3.405-3.292a2.185,2.185,0,0,1,.806-2.657c1.508-.925,2.086-4.226-1.149-4.193s-6.283,1.631-9.416,6.272c-4.355,6.451-2.66,9.705-2.66,9.705Z" transform="translate(-386.822 -6351.615)" fill="#ebebeb"/></g><g transform="translate(13.19 20.202)"><path d="M388.114,6371.151a.2.2,0,0,0,.062-.01.207.207,0,0,0,.131-.256,4.946,4.946,0,0,1-.013-2.155.193.193,0,0,0,.016-.041c1.747-6.594,10.361-10.975,10.448-11.019a.2.2,0,1,0-.182-.364c-.089.044-8.849,4.5-10.655,11.26a4.822,4.822,0,0,0,0,2.445A.2.2,0,0,0,388.114,6371.151Z" transform="translate(-387.765 -6357.283)" fill="#ebebeb"/></g><g transform="translate(0 8.111)"><path d="M365.109,6353.318a4.02,4.02,0,0,1-1.9-4.036,2.825,2.825,0,0,0-2.5-3.386c-.556-.093-4.174-1.577-3.618-7,0,0,.185-3.479-.464-4.732s-2.273-5.009,0-6.168,3.85.927,4.685,3.062a11.859,11.859,0,0,0,1.206,3.061,14.347,14.347,0,0,1,4.267,11.457l-.79,7.747Z" transform="translate(-355.451 -6327.66)" fill="#ebebeb"/></g><g transform="translate(3.239 12.378)"><path d="M370.177,6359.708a.2.2,0,0,0,.2-.2c.235-6.239-2.471-14.375-4.022-16.726a41.782,41.782,0,0,1-2.583-4.556.2.2,0,0,0-.369.174,42.131,42.131,0,0,0,2.612,4.606c1.526,2.313,4.187,10.328,3.955,16.485a.2.2,0,0,0,.2.212Z" transform="translate(-363.386 -6338.114)" fill="#ebebeb"/></g><path d="M379.068,6402.125h-8.747l-2.117-11.985h12.982Z" transform="translate(-362.999 -6356.526)" fill="#ebebeb"/></g><g transform="translate(235.696 211.951)"><g transform="translate(6.337)"><path d="M813.661,6494.455s.461-3.1.67-3.787a3.115,3.115,0,0,0-.34-2.968,5.2,5.2,0,0,1-.854-2.871c0-.278-.278-4.453-3.34-3.834,0,0-1.268.309-.649,2.536a2.06,2.06,0,0,1-.17,2.165,3.39,3.39,0,0,0,0,4.607c1.531,1.855,1.1,2.535.851,3.247-1.115,3.248,1.258,6.229,1.515,7.025a5.494,5.494,0,0,1,.308,2.853l.9.016Z" transform="translate(-808.077 -6480.933)" fill="#ebebeb"/></g><g transform="translate(9.244 3.143)"><path d="M816.288,6508.121l-.027,0a.136.136,0,0,1-.106-.16,15.6,15.6,0,0,0-.266-4.691c-.333-1.271-.43-2.894.122-7.034a15.885,15.885,0,0,0-.168-5.43,9.054,9.054,0,0,0-.629-1.973.136.136,0,0,1,.243-.123,9.151,9.151,0,0,1,.65,2.026,16.167,16.167,0,0,1,.174,5.536c-.544,4.081-.444,5.725-.127,6.937a15.526,15.526,0,0,1,.267,4.807A.136.136,0,0,1,816.288,6508.121Z" transform="translate(-815.199 -6488.632)" fill="#ebebeb"/></g><g transform="translate(0 11.926)"><path d="M801.326,6520.8s0-.732-1.5-1.425a2.509,2.509,0,0,1-1.5-1.81c-.385-1.463-1.464-1.078-2.157-.655s-2.268,0-2.27-2.2a1.457,1.457,0,0,0-.537-1.771c-1.005-.617-1.39-2.817.766-2.8s4.189,1.087,6.278,4.182c2.9,4.3,1.773,6.47,1.773,6.47Z" transform="translate(-792.551 -6510.151)" fill="#ebebeb"/></g><g transform="translate(2.179 13.468)"><path d="M805.061,6523.175a.153.153,0,0,1-.042-.006.139.139,0,0,1-.088-.172,3.292,3.292,0,0,0,.009-1.437.116.116,0,0,1-.011-.028c-1.164-4.4-6.907-7.316-6.965-7.345a.136.136,0,0,1,.122-.244c.059.03,5.9,3,7.1,7.507a3.221,3.221,0,0,1,0,1.631A.133.133,0,0,1,805.061,6523.175Z" transform="translate(-797.889 -6513.929)" fill="#ebebeb"/></g><g transform="translate(10.812 5.407)"><path d="M820.166,6511.286a2.679,2.679,0,0,0,1.268-2.69,1.883,1.883,0,0,1,1.67-2.257c.371-.062,2.783-1.051,2.412-4.669a9.243,9.243,0,0,1,.309-3.154c.433-.834,1.515-3.339,0-4.112s-2.567.618-3.123,2.041a7.9,7.9,0,0,1-.8,2.041,9.567,9.567,0,0,0-2.845,7.638l.527,5.164Z" transform="translate(-819.04 -6494.181)" fill="#ebebeb"/></g><g transform="translate(11.544 8.252)"><path d="M820.98,6515.545a.135.135,0,0,1-.136-.13,24.668,24.668,0,0,1,2.682-11.15,27.91,27.91,0,0,0,1.722-3.037.136.136,0,1,1,.246.116,28.273,28.273,0,0,1-1.741,3.07,24.325,24.325,0,0,0-2.637,10.991.135.135,0,0,1-.131.14Z" transform="translate(-820.835 -6501.149)" fill="#ebebeb"/></g><path d="M809.28,6543.823h5.831l1.411-7.99h-8.654Z" transform="translate(-801.616 -6513.425)" fill="#ebebeb"/></g><g transform="translate(36.173 100.964)"><g transform="translate(40.022 137.019)"><path d="M578.26,6538.627s-16.283,27.524-14.439,29.1c3.493,2.994,11.732,42.219,22.26,100.429.267,1.476,3.609-.32,3.609-.32C581.87,6639.695,578.26,6538.627,578.26,6538.627Z" transform="translate(-546.644 -6538.363)" fill="#029390"/><path d="M580,6544.383s9.084,95.839,17.514,124.208a10.63,10.63,0,0,0,1.838-.751c-7.821-28.146-11.431-129.213-11.431-129.213Z" transform="translate(-556.305 -6538.363)" fill="#029390"/><path d="M553.882,6538.243s-32.632-1.22-31.923,1.574c4.4,17.339-.984,53.357,7.018,128.278h3.008c-4.865-49.337,1.6-79.193,9.753-95.414,4.217-8.386,9.144-9.651,12.98-8.853C554.667,6553.808,553.882,6538.243,553.882,6538.243Z" transform="translate(-521.948 -6537.978)" fill="#54ccca"/><rect width="9.137" height="1.442" transform="translate(20.599 3.395)" fill="#cecfd7"/><rect width="1.931" height="2.419" transform="translate(30.714 3.082)" fill="#cecfd7"/><path d="M546.2,6855.747h-9.414s.828-3.2,2.691-3.039S546.2,6855.747,546.2,6855.747Z" transform="translate(-530.731 -6724.243)" fill="#9898a4"/><path d="M626.9,6855.747h-9.415s.828-3.2,2.691-3.039S626.9,6855.747,626.9,6855.747Z" transform="translate(-578.493 -6724.243)" fill="#9898a4"/></g><g transform="translate(21.598 35.013)"><path d="M558.3,6329.275l-1.279.5-.326,3.284,3.008,1.078Z" transform="translate(-524.087 -6312.454)" fill="#eaeaea"/><path d="M531.918,6292.125l-12.38-4.061.225,19.7,17.673,4.437Z" transform="translate(-502.097 -6288.064)" fill="#f7c371"/><path d="M573,6436.016l-22.812,7.971v34.694l20.48.125Z" transform="translate(-520.235 -6375.627)" fill="#eaeaea"/><path d="M489.253,6432.167c14.7-.931,31.592-7.019,38.512-24.166,3.743-9.279,3.151-24.331,2.857-39.256-.394-19.952-23.568-45.28-41.063-38.732-24.314,9.1-6.968,40.838-3.759,49.26C495.2,6403.951,489.633,6426.582,489.253,6432.167Z" transform="translate(-476.808 -6312.268)" fill="#029390"/><path d="M519.6,6450.331c-.447-6.539-4.2-26.532-17.258-48.421-2.533-4.247-5.705-17.092-8.66-27.808-1.1-4-7.727,4.023-8.386,13.97-.409,6.17,4.287,14.073,5.515,17.3,9.4,24.676,3.832,47.309,3.453,52.893C502.755,6457.723,511.982,6455.456,519.6,6450.331Z" transform="translate(-481.814 -6338.363)" fill="#54ccca"/><path d="M545.642,6387.855c-2.778-25.648-24.015-49.835-42.214-56-3.057-1.037-.5-3.409,8.072-3.108C519.171,6329.046,550.656,6342.533,545.642,6387.855Z" transform="translate(-491.828 -6312.125)" fill="#54ccca"/><path d="M557.374,6371.105c-4.148-21.456-12.872-32.351-32.371-42.322,7.48.293,37.606,8.692,34.45,51.136C559.373,6381,558.091,6374.814,557.374,6371.105Z" transform="translate(-505.332 -6312.163)" fill="#eaeaea"/><path d="M599.845,6505.515c.07-.91-.383-1.689-1.012-1.738s-1.2.65-1.267,1.562.382,1.688,1.011,1.737S599.774,6506.425,599.845,6505.515Z" transform="translate(-548.273 -6415.729)" fill="#54ccca"/><path d="M601.9,6479.062c.07-.91-.382-1.688-1.012-1.738s-1.2.65-1.266,1.561.381,1.689,1.011,1.738S601.828,6479.973,601.9,6479.062Z" transform="translate(-549.488 -6400.074)" fill="#54ccca"/><path d="M552.625,6333.979l4.506,1.277-1.817-4.724-.865-.4Z" transform="translate(-521.679 -6312.959)" fill="#02928f"/><path d="M581.192,6389.172l-1.88-8.649s2.382-27.448-18.074-39.982l.2-.7C578.284,6350.667,584.352,6370.6,581.192,6389.172Z" transform="translate(-526.777 -6318.706)" fill="#02928f"/><path d="M532.127,6323.968l-17.642-3.66-2.012,3.61,16.868,5.765Z" transform="translate(-497.916 -6307.147)" fill="#fff"/></g><g transform="translate(0 54.418)"><path d="M424.353,6382.605c-4.416-.941,24.265-47.979,31.67-46.984,0,0,12.6,6.331,7.337,31.261C463.359,6366.882,440.483,6386.042,424.353,6382.605Z" transform="translate(-423.893 -6335.605)" fill="#029390"/><path d="M432.732,6421.835c16.093,7.22,35.849-13.169,35.849-13.169a10.348,10.348,0,0,0,.473-2.46C452.909,6421.026,432.063,6421.536,432.732,6421.835Z" transform="translate(-429.115 -6377.389)" fill="#54ccca"/><path d="M529.926,6559.5c.364-.674-.712-1.489-2.047-2.214s-2.418-1.09-2.785-.415.419,1.808,1.754,2.533S529.559,6560.176,529.926,6559.5Z" transform="translate(-483.734 -6466.349)" fill="#f7c371"/><path d="M526.015,6563c.365-.674-.71-1.488-2.046-2.215s-2.42-1.089-2.786-.414.42,1.808,1.755,2.532S525.648,6563.677,526.015,6563Z" transform="translate(-481.42 -6468.421)" fill="#f7c371"/><path d="M534.64,6552.943c-.587-.493-2.013.893-3.457,2.615s-2.367,3.126-1.777,3.621,2.233-.5,3.68-2.229S535.228,6553.436,534.64,6552.943Z" transform="translate(-486.233 -6464.173)" fill="#f8c471"/><path d="M513.227,6534.234c2.793,1.688,11.967,6.276,10.509,9.6-1.306,2.966-6.864,4.569-12.678-7.329Z" transform="translate(-475.481 -6453.161)" fill="#f8c471"/><path d="M506.657,6534.027l-5.311-3.4,6.928-6.465,2.706,5.563Z" transform="translate(-469.732 -6447.202)" fill="#eaeaea"/><path d="M424.4,6439.208s7.762,14.9,32.725,38.06c0,0,3.723-.634,6.654-6.541,0,0-10.567-27.51-23.6-39.141C440.173,6431.585,425.758,6432.743,424.4,6439.208Z" transform="translate(-424.191 -6392.41)" fill="#029390"/><path d="M505.289,6523.162a1.332,1.332,0,1,0,.28-2.048A1.479,1.479,0,0,0,505.289,6523.162Z" transform="translate(-471.902 -6445.302)" fill="#54ccca"/></g><g transform="translate(26.13)"><path d="M496.442,6235.691c-8.979-10.028-8.785-27.069-8.387-27.679,4.243-6.516,16.815-6.381,23.2-4.88,5.388,1.265,9.679,4.082,7.168,8.336-.867,1.47-5.217-1.639-6.507-1.423-2.44.406-2.8,34.161-2.8,34.161Z" transform="translate(-487.912 -6202.283)" fill="#2d356b"/><g transform="translate(9.256 7.652)"><g transform="translate(2.848)"><path d="M566.247,6283.616l1.184-2.18-1.751-.994Z" transform="translate(-546.042 -6256.192)" fill="#ffd8a3"/><path d="M518.935,6250.763c1.133,2.815,10.2,8.538,18.92,7.763.488-11.4-.753-30.136-3.01-33.241-2.22-3.057-10.685-4.992-11.67-3.987,3.216,3.512-1.172,15.884-2.91,17.078C516.032,6241.285,517.752,6247.826,518.935,6250.763Z" transform="translate(-517.567 -6221.029)" fill="#ffd8a3"/><path d="M569.269,6268.242a80.567,80.567,0,0,1-4.721-9.4c-1.464-3.522-.452,9.615-.452,9.615S568.028,6269.188,569.269,6268.242Z" transform="translate(-544.902 -6243.056)" fill="#ffd8a3"/><path d="M565.131,6308.752a1.439,1.439,0,0,0,.9-1.91,1.732,1.732,0,0,0-2.238-.413,1.437,1.437,0,0,0-.9,1.91A1.733,1.733,0,0,0,565.131,6308.752Z" transform="translate(-544.31 -6271.442)" fill="#ffd8a3"/><path d="M567.357,6297.975c.02-.231-.247-.443-.6-.473s-.649.132-.669.363.247.443.6.473S567.337,6298.206,567.357,6297.975Z" transform="translate(-546.284 -6266.287)" fill="#ffd8a3"/></g><path d="M516.11,6260.745c-.577-2.047-2.236-3.439-3.707-3.108s-2.193,2.259-1.616,4.306,3.442,3.131,4.912,2.8S516.687,6262.792,516.11,6260.745Z" transform="translate(-510.589 -6242.666)" fill="#ffd8a3"/></g><path d="M563.507,6286.377l-.1,4.647s-1.3-.079-1.6-.646a16.25,16.25,0,0,1-1.129-4.62Z" transform="translate(-530.972 -6251.686)" fill="#ffab00"/><path d="M564.019,6286.848l-.093,4.127s-.959-.045-1.176-.3a11.576,11.576,0,0,1-1.08-4.372Z" transform="translate(-531.562 -6252.01)" fill="#fff"/><path d="M556.659,6250.939a1.128,1.128,0,0,0-.318-.731c-.488-.469-4.362.906-4.278,1.724l.054.512c.06.589,1.2-.086,2.371-.3,1.116-.2,2.26.085,2.222-.471Z" transform="translate(-525.877 -6230.589)" fill="#2d356b"/><path d="M557.786,6261.463c-.007-.687-.391-1.277-.859-1.317s-.842.483-.837,1.171.39,1.276.858,1.317S557.791,6262.151,557.786,6261.463Z" transform="translate(-528.262 -6236.527)" fill="#2d356b"/><path d="M560.32,6285.5c.014-.16-.066-.3-.18-.309s-.214.112-.228.272.066.3.178.307S560.306,6285.661,560.32,6285.5Z" transform="translate(-530.523 -6251.352)" fill="#ffab00"/><g transform="translate(12.162 1.777)"><path d="M524.753,6225.929c3.793.158-1.629,17.456.327,18.63s.1,2.631-.919,2.276c-2.339-.811-2.884-5.638-3.133-8.714C520.751,6234.694,524.432,6225.915,524.753,6225.929Z" transform="translate(-519.665 -6218.054)" fill="#2d356b"/><path d="M536.808,6213.212c.529-2.747-1.808-5.506-5.218-6.164s-13.33-.847-13.858,1.9,8.531,7.394,11.943,8.048S536.279,6215.958,536.808,6213.212Z" transform="translate(-517.709 -6206.636)" fill="#2d356b"/></g></g></g><g transform="translate(68.412 206.857)"><rect width="42.725" height="21.263" rx="6.672" transform="translate(0 -7)" fill="#fff" stroke="#231f20" stroke-miterlimit="10" stroke-width="0.25"/><text transform="translate(8.363 7.131)" fill="#2d356b" font-size="10" font-family="TrebuchetMS-Bold, Trebuchet MS" font-weight="700"><tspan x="0" y="0">Steve</tspan></text></g><g transform="translate(292.416 116.483)"><path d="M1037.516,6429.031l-34.045,3.18a6.3,6.3,0,0,1-6.89-6.276v-58.307a6.3,6.3,0,0,1,6.84-6.28l41.541,3.551c.171,0,.342.006.51.019a6.225,6.225,0,0,1,5.506,7.206l-7.816,51.577A6.3,6.3,0,0,1,1037.516,6429.031Z" transform="translate(-910.521 -6314.663)" fill="#7b87ab"/><g transform="translate(85.339)"><path d="M997.054,6303.5c-3.407-5.386,1.866-7.694,2.053-12.762s-4.291-3.94-4.291-10.51,4.1-7.881,4.664-11.636-4.478-5.254-1.865-9.759,6.192-4.059,8.431-7.623,7.836-5.068,10.635-3,7.055-3.825,11.906.3,3.544,11.073,4.665,15.2,6.156,6.381,6.156,13.512-3.544,5.068-2.425,10.135,5.784,5.254,5.784,12.387c0,0-.187,7.131-7.649,5.817s-5.6,3.189-13.433-.562-5.972,4.128-11.381.563S1000.972,6309.693,997.054,6303.5Z" transform="translate(-994.815 -6247.006)" fill="#2d356b"/></g><g transform="translate(74.984 46.661)"><path d="M994.044,6361.655c-4.741-3.909-22.924,28.065-23.105,29.362,0,0,2.418,3.991,3.676,3.1C977.869,6391.822,996.162,6363.4,994.044,6361.655Z" transform="translate(-970.329 -6361.324)" fill="#fff4ba"/><path d="M993.974,6443.237c2.456-3.978-21.427-13.073-22.425-13.068,0,0-2.761,2.245-1.958,3.092C971.667,6435.453,992.877,6445.014,993.974,6443.237Z" transform="translate(-969.445 -6402.069)" fill="#fff4ba"/></g><g transform="translate(116.047 46.185)"><path d="M1070.2,6360.515c4.635-4.035,23.667,27.442,23.883,28.733,0,0-2.311,4.054-3.592,3.2C1087.181,6390.238,1068.135,6362.317,1070.2,6360.515Z" transform="translate(-1070.048 -6360.158)" fill="#fff4ba"/><path d="M1073.625,6442.42c-3.194-3.415,18.423-17.047,19.4-17.239,0,0,3.149,1.655,2.53,2.644C1093.955,6430.384,1075.051,6443.946,1073.625,6442.42Z" transform="translate(-1071.974 -6398.641)" fill="#fff4ba"/></g><g transform="translate(89.658 31.073)"><path d="M1005.4,6405.943s7.51,6.652,15.02,9.146l3.911-8.454,3.6,8.454s10.152-2.859,14.238-9.146c-8.273-12-11.541-22-2.962-34.49,0,0-3.453-22.328-15.97-22.883s-14.747,23.8-14.747,23.8C1016.621,6384.566,1019.285,6389.863,1005.4,6405.943Z" transform="translate(-1005.395 -6338.184)" fill="#ffac00"/><path d="M1038.638,6359.093a7.58,7.58,0,0,1,4.849,1.749,15.636,15.636,0,0,0,1.21-10.06c-7.62-5.73-12.315.6-12.315.6s-1,3.946,1.688,9.252A7.565,7.565,0,0,1,1038.638,6359.093Z" transform="translate(-1021.259 -6338.076)" fill="#fff"/><path d="M1037.832,6350.508s-1.267,6.358,4.495,13.256c0,0,4.9-6.714,3.515-13.748C1040.885,6345.281,1037.832,6350.508,1037.832,6350.508Z" transform="translate(-1024.522 -6337.87)" fill="#f7c371"/><rect width="6.536" height="12.253" transform="translate(14.094)" fill="#f7c371"/><path d="M1054.025,6421.892a.919.919,0,1,0-.919.919A.919.919,0,0,0,1054.025,6421.892Z" transform="translate(-1033.088 -6381.039)" fill="#fff"/><path d="M1054.025,6439.491a.919.919,0,1,0-.919.919A.919.919,0,0,0,1054.025,6439.491Z" transform="translate(-1033.088 -6391.454)" fill="#fff"/><path d="M1054.025,6474.689a.919.919,0,1,0-.919.919A.919.919,0,0,0,1054.025,6474.689Z" transform="translate(-1033.088 -6412.286)" fill="#fff"/><path d="M1054.025,6457.09a.919.919,0,1,0-.919.92A.919.919,0,0,0,1054.025,6457.09Z" transform="translate(-1033.088 -6401.871)" fill="#fff"/></g><g transform="translate(0 5.761)"><g transform="translate(93.86)"><g transform="translate(0.271 4.028)"><path d="M1031.019,6300.715c-4.151,0-13.5-11.345-9.636-25.288.781-2.818,3.844-4.44,9.636-4.44,6.371,0,9.286,1.723,9.75,4C1044.052,6291.129,1035.267,6300.715,1031.019,6300.715Z" transform="translate(-1018.788 -6270.987)" fill="#ffd8a3"/><path d="M1018.182,6304.622c-.215-1-.081-1.817-.821-1.658a1.667,1.667,0,0,0-.952,2.1c.213,1,.988,1.687,1.728,1.529S1018.4,6305.626,1018.182,6304.622Z" transform="translate(-1016.353 -6289.9)" fill="#f7c371"/><path d="M1071.683,6304.58c.19-1.008.03-1.823.8-1.678a1.685,1.685,0,0,1,1.043,2.091c-.189,1.007-.965,1.707-1.731,1.563S1071.493,6305.589,1071.683,6304.58Z" transform="translate(-1048.912 -6289.865)" fill="#f7c371"/><g transform="translate(4.15 8.289)"><path d="M1046.253,6324.635c-1.168-1.1-1.8-.409-2.067-.363-.289.049-.873-.557-1.687.538-.249.335.778.17,1.816.159S1046.553,6324.916,1046.253,6324.635Z" transform="translate(-1035.955 -6310.661)" fill="#f36973"/><path d="M1046.164,6327.754c-.026-.432-.719-.349-1.616-.295s-1.657.058-1.633.489.773.737,1.671.684S1046.19,6328.185,1046.164,6327.754Z" transform="translate(-1036.224 -6312.672)" fill="#f36973"/><path d="M1056.646,6293.359c-1.112-.986-3.663-2.889-6.391-1.373C1052.474,6291.44,1053.871,6291.611,1056.646,6293.359Z" transform="translate(-1040.567 -6291.37)" fill="#2d356b"/><path d="M1026.52,6293.773c1.243-1.053,4.056-3.151,6.719-2.264C1031.007,6291.393,1029.549,6291.774,1026.52,6293.773Z" transform="translate(-1026.52 -6291.296)" fill="#2d356b"/><path d="M1056.486,6304.236a1.155,1.155,0,1,0-1.383,1.192A1.307,1.307,0,0,0,1056.486,6304.236Z" transform="translate(-1042.934 -6297.979)" fill="#2d356b"/><path d="M1057.489,6303.048a3.547,3.547,0,0,0-3.945-1.982A8.949,8.949,0,0,1,1057.489,6303.048Z" transform="translate(-1042.514 -6297.041)" fill="#2d356b"/><path d="M1033.116,6304.08a1.173,1.173,0,1,1,1.408,1.207A1.329,1.329,0,0,1,1033.116,6304.08Z" transform="translate(-1030.402 -6297.87)" fill="#2d356b"/><path d="M1028.842,6302.712a3.551,3.551,0,0,1,4.058-1.731A8.958,8.958,0,0,0,1028.842,6302.712Z" transform="translate(-1027.894 -6296.958)" fill="#2d356b"/><path d="M1040.223,6326.675c.541.332,1.759-.169,2.614-.256.924-.094,2.645.459,2.816.056,0,0,.151-1.774-2.941-1.49A2.487,2.487,0,0,0,1040.223,6326.675Z" transform="translate(-1034.63 -6311.216)" fill="#ffab00"/><path d="M1046.008,6325.746a3.237,3.237,0,0,0-2.013-.452,3.5,3.5,0,0,0-2.116.667A9.768,9.768,0,0,0,1046.008,6325.746Z" transform="translate(-1035.609 -6311.415)" fill="#fff"/><path d="M1053.458,6328.657a.216.216,0,1,0-.213.247A.234.234,0,0,0,1053.458,6328.657Z" transform="translate(-1042.21 -6313.26)" fill="#ffab00"/><path d="M1040,6328.819a.234.234,0,1,0-.231.271A.253.253,0,0,0,1040,6328.819Z" transform="translate(-1034.224 -6313.344)" fill="#ffab00"/></g><g transform="translate(11.309 15.755)"><path d="M1044.06,6314.747a2.807,2.807,0,0,0,1.148.477,1.633,1.633,0,0,0,1.149-.524c.051-.316-.787-3.84-1.084-3.873S1044.038,6314.288,1044.06,6314.747Z" transform="translate(-1044.06 -6310.321)" fill="#ffab00"/><path d="M1045.755,6313.41c0,.072.341.185.461.185.206,0,.453-.105.462-.233.02-.308.184-3.806-.436-3.773C1045.563,6309.624,1045.746,6312.963,1045.755,6313.41Z" transform="translate(-1045.046 -6309.588)" fill="#ffd8a3"/></g></g><g transform="translate(10.075)"><path d="M1055.186,6272.152c-4-1.521-14.01-5.763-14.811-10.888,0,0,10.109-1.281,12.409,3.763C1055.691,6271.4,1055.186,6272.152,1055.186,6272.152Z" transform="translate(-1040.374 -6261.119)" fill="#2d356b"/><g transform="translate(0.733 1.924)"><path d="M1047.508,6271.25c.875,1.274,6.129,5.572,9.79,6.924S1047.508,6271.25,1047.508,6271.25Z" transform="translate(-1045.329 -6269.039)" fill="#2d356b"/><path d="M1042.169,6265.833a19.119,19.119,0,0,0,4.028,6.3C1047.994,6273.769,1042.169,6265.833,1042.169,6265.833Z" transform="translate(-1042.169 -6265.833)" fill="#2d356b"/></g></g><path d="M1015.716,6278.443c3.2-1.521,11.208-5.762,11.849-10.887,0,0-8.086-1.282-9.927,3.763C1015.314,6277.688,1015.716,6278.443,1015.716,6278.443Z" transform="translate(-1015.69 -6264.843)" fill="#2d356b"/></g><g transform="translate(178.928 59.091)"><rect width="2.227" height="19.14" transform="translate(14.92 4.222)" fill="#7b87ab"/><rect width="3.669" height="20.805" transform="translate(3.703 2.558)" fill="#54cbc9"/><path d="M1246.85,6429.316l-3.2-.672,5.295-22.751,3.2.673Z" transform="translate(-1235.674 -6405.893)" fill="#ffab00"/><rect width="2.227" height="23.301" transform="translate(18.215 0.061)" fill="#7b87ab"/><rect width="4.783" height="14.98" transform="translate(21.748 8.383)" fill="#40558d"/><rect width="30.671" height="1.82" transform="translate(0 22.452)" fill="#7b87ab"/></g><g transform="translate(0 83.649)"><rect width="195.79" height="95.455" transform="translate(7.765 2.049)" fill="#40558d"/><rect width="60.754" height="95.455" transform="translate(142.801 2.049)" fill="#7b87ab"/><rect width="210.76" height="6.913" transform="translate(0 2.049)" fill="#2d356b"/><rect width="210.76" height="5.312" fill="#40558d"/></g></g><g transform="translate(142.245 74.636)"><path d="M1134.232,6451.04v-2.275a1.869,1.869,0,0,1,1.57-1.809l32.8-6.041a1.914,1.914,0,0,1,2.308,1.81v8.314Z" transform="translate(-1134.232 -6436.383)" fill="#9898a4"/><path d="M1170.7,6438.675l.005.019-32.805,6.04-.124-1.678,30.4-5.886A2.168,2.168,0,0,1,1170.7,6438.675Z" transform="translate(-1136.329 -6434.163)" fill="#cecfd7"/><path d="M1141.875,6436.672a2.158,2.158,0,0,1,1.214-2.259,53.407,53.407,0,0,1,23.156-4.528,2.273,2.273,0,0,1,2.054,1.621h0l.008.037,0,.017q.315,1.452.629,2.907a54.029,54.029,0,0,0-5.524-.054q-.315-1.449-.628-2.9a53.442,53.442,0,0,0-15.853,3.1l.628,2.9a52.734,52.734,0,0,0-5.053,2.121l-.63-2.907,0-.016c0-.012,0-.025-.008-.038Z" transform="translate(-1138.738 -6429.863)" fill="#cecfd7"/></g><g transform="translate(67.322 54.86)"><path d="M997.99,6414.359H958.449a2.445,2.445,0,0,1-2.4-1.989l-5.33-28.055a2.445,2.445,0,0,1,2.4-2.9h39.542a2.446,2.446,0,0,1,2.4,1.989l5.329,28.056A2.445,2.445,0,0,1,997.99,6414.359Z" transform="translate(-950.673 -6381.414)" fill="#cecfd7"/><path d="M1056.536,6384.072a1.326,1.326,0,1,0-1.951.913l5.329,28.055a1.325,1.325,0,1,0,1.951-.913Z" transform="translate(-1012.146 -6382.083)" fill="#eaeaea"/><path d="M1020.471,6464.912H971.945a2.549,2.549,0,0,1-2.222-2.782h52.969A2.549,2.549,0,0,1,1020.471,6464.912Z" transform="translate(-961.948 -6429.184)" fill="#9898a4"/><path d="M1081.795,6462.13h-12.208c0,1.537.675,2.782,1.507,2.782h9.194C1081.121,6464.912,1081.795,6463.667,1081.795,6462.13Z" transform="translate(-1021.051 -6429.184)" fill="#eaeaea"/><circle cx="2.807" cy="2.807" r="2.807" transform="matrix(0.924, -0.383, 0.383, 0.924, 20.334, 14.954)" fill="#eaeaea"/></g></g><g transform="translate(275.526 0)"><path d="M1148.734,6004.653a54.01,54.01,0,0,0-11.431-6.574c-22.572-9.794-53.562-4.462-69.015,6.506-8.383,5.95-12.345,9.971-8.943,17.313-25.759-5.122-48.254,1.539-53,10.575-4.467,8.508-5.713,23.54,17.2,29.6-13.344,9.851,5.117,19.491,22.064,26.844,12.067,5.236,28.106,5.815,41.4,2.262.038,5.345,3.541,10.139,10.55,13.179,14.451,6.27,38.33,2.719,53.337-7.932q1.642-1.165,3.051-2.377c18.859,5.434,42.325,3,55.573-6.4,15.006-10.65,11.217-26.207-8.464-34.746q-.96-.418-1.947-.8a60.162,60.162,0,0,0,7.775-4.649c18.859-13.384,18.06-31.216-1.785-39.827C1189.491,6000.853,1166.911,5997.424,1148.734,6004.653Z" transform="translate(-1005.262 -5992.938)" fill="#fff" stroke="#d0d2d3" stroke-miterlimit="10" stroke-width="1"/><ellipse cx="12.606" cy="10.613" rx="12.606" ry="10.613" transform="matrix(0.604, -0.797, 0.797, 0.604, 13.074, 101.69)" fill="#fff" stroke="#d0d2d3" stroke-miterlimit="10" stroke-width="1"/><ellipse cx="3.956" cy="4.238" rx="3.956" ry="4.238" transform="translate(45.52 111.822) rotate(-19.234)" fill="#fff" stroke="#d0d2d3" stroke-miterlimit="10" stroke-width="1"/><ellipse cx="1.992" cy="2.007" rx="1.992" ry="2.007" transform="translate(64.773 122.239) rotate(-37.294)" fill="#fff" stroke="#d0d2d3" stroke-miterlimit="10" stroke-width="1"/></g><g transform="translate(295.58 202.761)"><rect width="46.135" height="22.008" rx="6.672" transform="translate(17 -3.824)" fill="#fff" stroke="#231f20" stroke-miterlimit="10" stroke-width="0.25"/><text transform="translate(27.068 10.679)" fill="#2d356b" font-size="10" font-family="TrebuchetMS-Bold, Trebuchet MS" font-weight="700"><tspan x="0" y="0">Akiko</tspan></text></g></g><g transform="translate(725.858 6143.596)"><g transform="translate(0)"><path d="M1267.317,6302.876h-38.486a2.188,2.188,0,0,1-1.692,1.293h-2.981a5.519,5.519,0,0,1,.158,2.414,5.464,5.464,0,0,1-5.274,5.27h-33.649a5.269,5.269,0,0,1-5.269-5.27,6.883,6.883,0,0,1,.366-2.414h-3.643c-.709,0-1.075-.774-1.484-1.293h-38.243a2.271,2.271,0,0,0-2.268,2.271v168.792a2.269,2.269,0,0,0,2.268,2.271h130.2a2.269,2.269,0,0,0,2.267-2.271V6305.146A2.271,2.271,0,0,0,1267.317,6302.876Z" transform="translate(-1134.854 -6298.803)" fill="#ffe200"/><path d="M1265.429,6462.4c-.037.041-16.322,17.406-16.163,17.406h-93.788a1.882,1.882,0,0,1-1.885-1.885V6337.82a1.886,1.886,0,0,1,1.885-1.883h108.067a1.886,1.886,0,0,1,1.885,1.883Z" transform="translate(-1141.99 -6311.394)" fill="#fff"/><path d="M1251.406,6296.3h-46.935a2.081,2.081,0,0,0,0,4.161h3.626a4.908,4.908,0,0,0,4.135,7.569h31.416a4.909,4.909,0,0,0,4.135-7.569h3.622a2.081,2.081,0,0,0,0-4.161Z" transform="translate(-1160.575 -6296.298)" fill="#9999a5"/><g transform="translate(107.22 150.957)"><path d="M1309.9,6540.1h14.372l-16.257,17.511v-15.624A1.883,1.883,0,0,1,1309.9,6540.1Z" transform="translate(-1308.02 -6540.1)" fill="#9999a5"/></g></g></g><text transform="translate(746.787 6196.873)" fill="#2d356b" font-size="11" font-family="TrebuchetMS-Bold, Trebuchet MS" font-weight="700"><tspan x="0" y="0">Akiko&apos;s To-do List</tspan><tspan font-family="TrebuchetMS, Trebuchet MS" font-weight="400"><tspan x="0" y="14">_________________</tspan></tspan><tspan x="0" y="28"></tspan><tspan x="0" y="42" xml:space="preserve">   </tspan><tspan y="42" font-size="10">write 2 reports</tspan><tspan font-size="10"><tspan x="0" y="56" xml:space="preserve">   make a proposal</tspan><tspan x="0" y="70" xml:space="preserve">   attend 4 meetings</tspan><tspan x="0" y="84" xml:space="preserve">   make a budget</tspan></tspan><tspan font-size="10" font-family="TrebuchetMS-Bold"><tspan x="0" y="98"></tspan></tspan></text><g transform="translate(744.265 6232.959)"><rect width="6.522" height="6.411" transform="translate(0 0)" fill="none" stroke="#9999a5" stroke-miterlimit="10" stroke-width="1"/><rect width="6.522" height="6.411" transform="translate(0 13.693)" fill="none" stroke="#9999a5" stroke-miterlimit="10" stroke-width="1"/><rect width="6.522" height="6.411" transform="translate(0 27.853)" fill="none" stroke="#9999a5" stroke-miterlimit="10" stroke-width="1"/><rect width="6.522" height="6.411" transform="translate(0 41.546)" fill="none" stroke="#9999a5" stroke-miterlimit="10" stroke-width="1"/></g></g></svg>