<svg xmlns="http://www.w3.org/2000/svg" width="466.588" height="392.147" viewBox="0 0 466.588 392.147"><g transform="translate(-68.706 -5678.708)"><g transform="translate(71.206 5747.708)"><g transform="translate(10.198 -69)"><g transform="translate(0 57.316)"><path d="M831.374,9633.568a6.479,6.479,0,0,1-6.492,6.488H396.673a6.479,6.479,0,0,1-6.491-6.488V9315.737a6.475,6.475,0,0,1,6.491-6.476h428.21a6.475,6.475,0,0,1,6.492,6.476Z" transform="translate(-390.182 -9305.226)" fill="#7b88ac"/><path d="M833.321,9559.872c-.272.283-60.879,69.448-60.879,69.619H400.29a6.492,6.492,0,0,1-6.475-6.5V9305.187a6.466,6.466,0,0,1,6.475-6.467H826.88a6.438,6.438,0,0,1,6.441,6.467Z" transform="translate(-392.423 -9298.72)" fill="#fff"/><g transform="translate(380.077 261.616)"><path d="M1392.838,9981.694h50.5l-60.933,69.528v-59.1A10.433,10.433,0,0,1,1392.838,9981.694Z" transform="translate(-1382.407 -9981.694)" fill="#40558e"/></g><g transform="translate(14.526 45.232)"><rect width="54.901" height="36.646" fill="#ebebeb"/><rect width="54.901" height="36.646" transform="translate(59.76)" fill="#ebebeb"/><rect width="54.901" height="36.646" transform="translate(119.519)" fill="#ebebeb"/><rect width="54.901" height="36.646" transform="translate(179.279)" fill="#ebebeb"/><rect width="54.901" height="36.646" transform="translate(239.038)" fill="#ebebeb"/><rect width="54.901" height="36.646" transform="translate(298.798)" fill="#ebebeb"/><rect width="54.901" height="36.646" transform="translate(358.557)" fill="#ebebeb"/></g><g transform="translate(14.526 94.876)"><rect width="54.901" height="36.646" fill="#ebebeb"/><rect width="54.901" height="36.646" transform="translate(59.636)" fill="#ebebeb"/><rect width="54.901" height="36.646" transform="translate(178.909)" fill="#ebebeb"/><rect width="54.901" height="36.646" transform="translate(238.545)" fill="#ebebeb"/><rect width="54.901" height="36.646" transform="translate(298.181)" fill="#ebebeb"/><rect width="54.901" height="36.646" transform="translate(357.818)" fill="#ebebeb"/><rect width="54.901" height="36.646" transform="translate(119.273)" fill="#ebebeb"/></g><g transform="translate(14.526 144.521)"><rect width="54.901" height="36.646" fill="#ebebeb"/><rect width="54.901" height="36.646" transform="translate(59.636)" fill="#ebebeb"/><rect width="54.901" height="36.646" transform="translate(178.909)" fill="#ebebeb"/><rect width="54.901" height="36.646" transform="translate(238.545)" fill="#ebebeb"/><rect width="54.901" height="36.646" transform="translate(298.181)" fill="#ebebeb"/><rect width="54.901" height="36.646" transform="translate(357.818)" fill="#ebebeb"/><rect width="54.901" height="36.646" transform="translate(119.273)" fill="#ebebeb"/></g><g transform="translate(14.526 194.165)"><rect width="54.901" height="36.646" fill="#ebebeb"/><rect width="54.901" height="36.646" transform="translate(59.636)" fill="#ebebeb"/><rect width="54.901" height="36.646" transform="translate(178.909)" fill="#ebebeb"/><rect width="54.901" height="36.646" transform="translate(238.545)" fill="#ebebeb"/><rect width="54.901" height="36.646" transform="translate(298.181)" fill="#ebebeb"/><rect width="54.901" height="36.646" transform="translate(357.818)" fill="#ebebeb"/><rect width="54.901" height="36.646" transform="translate(119.273)" fill="#ebebeb"/></g><g transform="translate(14.526 243.809)"><rect width="54.901" height="36.646" fill="#ebebeb"/><rect width="54.901" height="36.646" transform="translate(58.569)" fill="#ebebeb"/><rect width="54.901" height="36.646" transform="translate(120.074)" fill="#ebebeb"/></g></g><path d="M831.237,9242.473v-59.26c0-2.968-2.925-5.38-6.508-5.38H396.668c-3.595,0-6.486,2.412-6.486,5.38v59.26Z" transform="translate(-390.182 -9166.823)" fill="#2d356b"/><g transform="translate(31.998)"><path d="M485.553,9167.345c0,2.068-2.585,3.769-5.7,3.769h-.408c-3.141,0-5.725-1.7-5.725-3.769v-14.487c0-2.062,2.584-3.765,5.725-3.765h.408c3.119,0,5.7,1.7,5.7,3.765Z" transform="translate(-473.716 -9149.093)" fill="#fff4ba"/><g transform="translate(36.499)"><path d="M580.838,9167.345c0,2.068-2.586,3.769-5.715,3.769H574.7c-3.129,0-5.7-1.7-5.7-3.769v-14.487c0-2.062,2.574-3.765,5.7-3.765h.421c3.129,0,5.715,1.7,5.715,3.765Z" transform="translate(-568.999 -9149.093)" fill="#fff4ba"/></g><g transform="translate(72.998)"><path d="M676.11,9167.345c0,2.068-2.563,3.769-5.714,3.769h-.386c-3.164,0-5.726-1.7-5.726-3.769v-14.487c0-2.062,2.563-3.765,5.726-3.765h.386c3.151,0,5.714,1.7,5.714,3.765Z" transform="translate(-664.284 -9149.093)" fill="#fff4ba"/></g><g transform="translate(109.474)"><path d="M771.358,9167.345c0,2.068-2.586,3.769-5.7,3.769h-.431c-3.13,0-5.715-1.7-5.715-3.769v-14.487c0-2.062,2.584-3.765,5.715-3.765h.431c3.118,0,5.7,1.7,5.7,3.765Z" transform="translate(-759.509 -9149.093)" fill="#fff4ba"/></g><g transform="translate(145.973)"><path d="M866.618,9167.345c0,2.068-2.563,3.769-5.7,3.769H860.5c-3.13,0-5.7-1.7-5.7-3.769v-14.487c0-2.062,2.574-3.765,5.7-3.765h.419c3.141,0,5.7,1.7,5.7,3.765Z" transform="translate(-854.791 -9149.093)" fill="#fff4ba"/></g><g transform="translate(182.478)"><path d="M961.907,9167.345c0,2.068-2.586,3.769-5.693,3.769h-.431c-3.129,0-5.691-1.7-5.691-3.769v-14.487c0-2.062,2.562-3.765,5.691-3.765h.431c3.107,0,5.693,1.7,5.693,3.765Z" transform="translate(-950.092 -9149.093)" fill="#fff4ba"/></g><g transform="translate(218.966)"><path d="M1057.184,9167.345c0,2.068-2.608,3.769-5.715,3.769h-.431c-3.152,0-5.691-1.7-5.691-3.769v-14.487c0-2.062,2.539-3.765,5.691-3.765h.431c3.107,0,5.715,1.7,5.715,3.765Z" transform="translate(-1045.347 -9149.093)" fill="#fff4ba"/></g><g transform="translate(255.453)"><path d="M1152.414,9167.345c0,2.068-2.562,3.769-5.715,3.769h-.385c-3.152,0-5.715-1.7-5.715-3.769v-14.487c0-2.062,2.563-3.765,5.715-3.765h.385c3.152,0,5.715,1.7,5.715,3.765Z" transform="translate(-1140.599 -9149.093)" fill="#fff4ba"/></g><g transform="translate(291.941)"><path d="M1247.669,9167.345c0,2.068-2.562,3.769-5.715,3.769h-.408c-3.107,0-5.693-1.7-5.693-3.769v-14.487c0-2.062,2.586-3.765,5.693-3.765h.408c3.153,0,5.715,1.7,5.715,3.765Z" transform="translate(-1235.854 -9149.093)" fill="#fff4ba"/></g><g transform="translate(328.405)"><path d="M1342.886,9167.345c0,2.068-2.562,3.769-5.692,3.769h-.431c-3.106,0-5.715-1.7-5.715-3.769v-14.487c0-2.062,2.609-3.765,5.715-3.765h.431c3.13,0,5.692,1.7,5.692,3.765Z" transform="translate(-1331.048 -9149.093)" fill="#fff4ba"/></g><g transform="translate(364.917)"><path d="M1438.2,9167.345c0,2.068-2.584,3.769-5.715,3.769h-.408c-3.152,0-5.715-1.7-5.715-3.769v-14.487c0-2.062,2.563-3.765,5.715-3.765h.408c3.13,0,5.715,1.7,5.715,3.765Z" transform="translate(-1426.364 -9149.093)" fill="#fff4ba"/></g></g><g transform="translate(14.778 101.277)"><text transform="translate(0.107 10)" fill="#9999a5" font-size="11" font-family="TrebuchetMS-Bold, Trebuchet MS" font-weight="700"><tspan x="0" y="0">1</tspan></text><text transform="translate(0.107 59.293)" fill="#9999a5" font-size="11" font-family="TrebuchetMS-Bold, Trebuchet MS" font-weight="700"><tspan x="0" y="0">8</tspan></text><text transform="translate(0 109.979)" fill="#9999a5" font-size="12" font-family="TrebuchetMS-Bold, Trebuchet MS" font-weight="700"><tspan x="0" y="0">15</tspan></text><text transform="translate(14 174.476)" fill="#9999a5" font-size="20" font-family="TrebuchetMS-Bold, Trebuchet MS" font-weight="700"><tspan x="0" y="0">22</tspan></text><text transform="translate(0.107 208.882)" fill="#9999a5" font-size="12" font-family="TrebuchetMS-Bold, Trebuchet MS" font-weight="700"><tspan x="0" y="0">29</tspan></text><text transform="translate(60.944 10.371)" fill="#9999a5" font-size="11" font-family="TrebuchetMS-Bold, Trebuchet MS" font-weight="700"><tspan x="0" y="0">2</tspan></text><text transform="translate(60.944 59.663)" fill="#9999a5" font-size="11" font-family="TrebuchetMS-Bold, Trebuchet MS" font-weight="700"><tspan x="0" y="0">9</tspan></text><text transform="translate(60.944 110.683)" fill="#9999a5" font-size="12" font-family="TrebuchetMS-Bold, Trebuchet MS" font-weight="700"><tspan x="0" y="0">16</tspan></text><text transform="translate(74.944 174.476)" fill="#9999a5" font-size="20" font-family="TrebuchetMS-Bold, Trebuchet MS" font-weight="700"><tspan x="0" y="0">23</tspan></text><text transform="translate(60.944 209.253)" fill="#9999a5" font-size="12" font-family="TrebuchetMS-Bold, Trebuchet MS" font-weight="700"><tspan x="0" y="0">30</tspan></text><text transform="translate(119.639 10.371)" fill="#9999a5" font-size="11" font-family="TrebuchetMS-Bold, Trebuchet MS" font-weight="700"><tspan x="0" y="0">3</tspan></text><text transform="translate(119.639 60.663)" fill="#9999a5" font-size="12" font-family="TrebuchetMS-Bold, Trebuchet MS" font-weight="700"><tspan x="0" y="0">10</tspan></text><text transform="translate(119.639 110.683)" fill="#9999a5" font-size="12" font-family="TrebuchetMS-Bold, Trebuchet MS" font-weight="700"><tspan x="0" y="0">17</tspan></text><text transform="translate(133.639 174.476)" fill="#9999a5" font-size="20" font-family="TrebuchetMS-Bold, Trebuchet MS" font-weight="700"><tspan x="0" y="0">24</tspan></text><text transform="translate(179.444 10.235)" fill="#9999a5" font-size="11" font-family="TrebuchetMS-Bold, Trebuchet MS" font-weight="700"><tspan x="0" y="0">4</tspan></text><text transform="translate(179.444 60.528)" fill="#9999a5" font-size="12" font-family="TrebuchetMS-Bold, Trebuchet MS" font-weight="700"><tspan x="0" y="0">11</tspan></text><text transform="translate(179.445 110.547)" fill="#9999a5" font-size="12" font-family="TrebuchetMS-Bold, Trebuchet MS" font-weight="700"><tspan x="0" y="0">18</tspan></text><text transform="translate(194.582 174.476)" fill="#9999a5" font-size="20" font-family="TrebuchetMS-Bold, Trebuchet MS" font-weight="700"><tspan x="0" y="0">25</tspan></text><text transform="translate(239.456 10.235)" fill="#9999a5" font-size="11" font-family="TrebuchetMS-Bold, Trebuchet MS" font-weight="700"><tspan x="0" y="0">5</tspan></text><text transform="translate(239.456 60.528)" fill="#9999a5" font-size="12" font-family="TrebuchetMS-Bold, Trebuchet MS" font-weight="700"><tspan x="0" y="0">12</tspan></text><text transform="translate(239.457 110.547)" fill="#9999a5" font-size="12" font-family="TrebuchetMS-Bold, Trebuchet MS" font-weight="700"><tspan x="0" y="0">19</tspan></text><text transform="translate(253.277 174.476)" fill="#9999a5" font-size="20" font-family="TrebuchetMS-Bold, Trebuchet MS" font-weight="700"><tspan x="0" y="0">26</tspan></text><text transform="translate(299.459 10.235)" fill="#9999a5" font-size="11" font-family="TrebuchetMS-Bold, Trebuchet MS" font-weight="700"><tspan x="0" y="0">6</tspan></text><text transform="translate(299.459 60.528)" fill="#9999a5" font-size="12" font-family="TrebuchetMS-Bold, Trebuchet MS" font-weight="700"><tspan x="0" y="0">13</tspan></text><text transform="translate(299.459 110.547)" fill="#9999a5" font-size="12" font-family="TrebuchetMS-Bold, Trebuchet MS" font-weight="700"><tspan x="0" y="0">20</tspan></text><text transform="translate(311.972 174.839)" fill="#9999a5" font-size="20" font-family="TrebuchetMS-Bold, Trebuchet MS" font-weight="700"><tspan x="0" y="0">27</tspan></text><text transform="translate(359.225 10.235)" fill="#9999a5" font-size="11" font-family="TrebuchetMS-Bold, Trebuchet MS" font-weight="700"><tspan x="0" y="0">7</tspan></text><text transform="translate(359.225 60.528)" fill="#9999a5" font-size="12" font-family="TrebuchetMS-Bold, Trebuchet MS" font-weight="700"><tspan x="0" y="0">14</tspan></text><text transform="translate(359.225 110.547)" fill="#9999a5" font-size="12" font-family="TrebuchetMS-Bold, Trebuchet MS" font-weight="700"><tspan x="0" y="0">21</tspan></text><text transform="translate(372.916 174.839)" fill="#9999a5" font-size="20" font-family="TrebuchetMS-Bold, Trebuchet MS" font-weight="700"><tspan x="0" y="0">28</tspan></text><text transform="translate(119.639 209.253)" fill="#9999a5" font-size="12" font-family="TrebuchetMS-Bold, Trebuchet MS" font-weight="700"><tspan x="0" y="0">31</tspan></text></g><text transform="translate(184.335 59.855)" fill="#fff" font-size="33" font-family="TrebuchetMS-Bold, Trebuchet MS" font-weight="700" letter-spacing="0.038em"><tspan x="0" y="0">MAY</tspan></text></g><ellipse cx="230.794" cy="19.824" rx="230.794" ry="19.824" transform="translate(0 178.788)" fill="none" stroke="#f46973" stroke-miterlimit="10" stroke-width="5"/></g><text transform="translate(222.493 5807.827)" fill="#2d356b" font-size="14" font-family="TrebuchetMS-Bold, Trebuchet MS" font-weight="700"><tspan x="0" y="0">Today</tspan></text></g></svg>