<svg xmlns="http://www.w3.org/2000/svg" width="538.716" height="478.828" viewBox="0 0 538.716 478.828"><g transform="translate(0 0)"><g transform="translate(0 69.986)"><path d="M894.428,2211.511a7.91,7.91,0,0,1-7.927,7.919H363.637a7.909,7.909,0,0,1-7.925-7.919V1823.423a7.906,7.906,0,0,1,7.925-7.905H886.5a7.907,7.907,0,0,1,7.927,7.905Z" transform="translate(-355.712 -1810.589)" fill="#7b88ac"/><path d="M896.542,2122.288c-.332.346-74.336,84.8-74.336,85.008H367.792a7.928,7.928,0,0,1-7.906-7.934V1811.3a7.893,7.893,0,0,1,7.906-7.892H888.677a7.858,7.858,0,0,1,7.865,7.892Z" transform="translate(-358.187 -1803.41)" fill="#fff"/><g transform="translate(464.091 319.445)"><path d="M1508.377,2588.049h61.666l-74.4,84.9v-72.16A12.739,12.739,0,0,1,1508.377,2588.049Z" transform="translate(-1495.64 -2588.049)" fill="#40558e"/></g><g transform="translate(17.737 55.23)"><rect width="67.037" height="44.746" fill="#ebebeb"/><rect width="67.037" height="44.746" transform="translate(72.969)" fill="#ebebeb"/><rect width="67.037" height="44.746" transform="translate(145.938)" fill="#ebebeb"/><rect width="67.037" height="44.746" transform="translate(218.907)" fill="#ebebeb"/><rect width="67.037" height="44.746" transform="translate(291.876)" fill="#ebebeb"/><rect width="67.037" height="44.746" transform="translate(364.845)" fill="#ebebeb"/><rect width="67.037" height="44.746" transform="translate(437.814)" fill="#ebebeb"/></g><g transform="translate(17.737 115.848)"><rect width="67.037" height="44.746" fill="#ebebeb"/><rect width="67.037" height="44.746" transform="translate(72.819)" fill="#ebebeb"/><rect width="67.037" height="44.746" transform="translate(218.456)" fill="#ebebeb"/><rect width="67.037" height="44.746" transform="translate(291.274)" fill="#ebebeb"/><rect width="67.037" height="44.746" transform="translate(364.093)" fill="#ebebeb"/><rect width="67.037" height="44.746" transform="translate(436.912)" fill="#ebebeb"/><rect width="67.037" height="44.746" transform="translate(145.637)" fill="#ebebeb"/></g><g transform="translate(17.737 176.466)"><rect width="67.037" height="44.746" fill="#ebebeb"/><rect width="67.037" height="44.746" transform="translate(72.819)" fill="#ebebeb"/><rect width="67.037" height="44.746" transform="translate(218.456)" fill="#ebebeb"/><rect width="67.037" height="44.746" transform="translate(291.274)" fill="#ebebeb"/><rect width="67.037" height="44.746" transform="translate(364.093)" fill="#ebebeb"/><rect width="67.037" height="44.746" transform="translate(436.912)" fill="#ebebeb"/><rect width="67.037" height="44.746" transform="translate(145.637)" fill="#ebebeb"/></g><g transform="translate(17.737 237.084)"><rect width="67.037" height="44.746" fill="#ebebeb"/><rect width="67.037" height="44.746" transform="translate(72.819)" fill="#ebebeb"/><rect width="67.037" height="44.746" transform="translate(218.456)" fill="#ebebeb"/><rect width="67.037" height="44.746" transform="translate(291.274)" fill="#ebebeb"/><rect width="67.037" height="44.746" transform="translate(364.093)" fill="#ebebeb"/><rect width="67.037" height="44.746" transform="translate(436.912)" fill="#ebebeb"/><rect width="67.037" height="44.746" transform="translate(145.637)" fill="#ebebeb"/></g><g transform="translate(17.737 297.702)"><rect width="67.037" height="44.746" fill="#ebebeb"/><rect width="67.037" height="44.746" transform="translate(71.516)" fill="#ebebeb"/><rect width="67.037" height="44.746" transform="translate(146.616)" fill="#ebebeb"/></g></g><path d="M894.26,1743.454v-72.361c0-3.622-3.571-6.566-7.946-6.566H363.631c-4.389,0-7.919,2.944-7.919,6.566v72.361Z" transform="translate(-355.712 -1651.083)" fill="#2d356b"/><g transform="translate(39.071)"><path d="M466.135,1653.79c0,2.527-3.156,4.6-6.964,4.6h-.5c-3.835,0-6.991-2.077-6.991-4.6V1636.1c0-2.52,3.156-4.6,6.991-4.6h.5c3.808,0,6.964,2.077,6.964,4.6Z" transform="translate(-451.681 -1631.506)" fill="#fff4ba"/><g transform="translate(44.566)"><path d="M575.6,1653.79c0,2.527-3.157,4.6-6.978,4.6h-.513c-3.821,0-6.964-2.077-6.964-4.6V1636.1c0-2.52,3.143-4.6,6.964-4.6h.513c3.821,0,6.978,2.077,6.978,4.6Z" transform="translate(-561.147 -1631.506)" fill="#fff4ba"/></g><g transform="translate(89.134)"><path d="M685.057,1653.79c0,2.527-3.129,4.6-6.977,4.6h-.471c-3.863,0-6.992-2.077-6.992-4.6V1636.1c0-2.52,3.129-4.6,6.992-4.6h.471c3.848,0,6.977,2.077,6.977,4.6Z" transform="translate(-670.617 -1631.506)" fill="#fff4ba"/></g><g transform="translate(133.673)"><path d="M794.484,1653.79c0,2.527-3.157,4.6-6.964,4.6h-.526c-3.822,0-6.978-2.077-6.978-4.6V1636.1c0-2.52,3.156-4.6,6.978-4.6h.526c3.807,0,6.964,2.077,6.964,4.6Z" transform="translate(-780.016 -1631.506)" fill="#fff4ba"/></g><g transform="translate(178.239)"><path d="M903.924,1653.79c0,2.527-3.129,4.6-6.964,4.6h-.512c-3.822,0-6.965-2.077-6.965-4.6V1636.1c0-2.52,3.143-4.6,6.965-4.6h.512c3.835,0,6.964,2.077,6.964,4.6Z" transform="translate(-889.483 -1631.506)" fill="#fff4ba"/></g><g transform="translate(222.814)"><path d="M1013.4,1653.79c0,2.527-3.158,4.6-6.951,4.6h-.526c-3.821,0-6.95-2.077-6.95-4.6V1636.1c0-2.52,3.129-4.6,6.95-4.6h.526c3.794,0,6.951,2.077,6.951,4.6Z" transform="translate(-998.97 -1631.506)" fill="#fff4ba"/></g><g transform="translate(267.367)"><path d="M1122.858,1653.79c0,2.527-3.184,4.6-6.978,4.6h-.526c-3.849,0-6.95-2.077-6.95-4.6V1636.1c0-2.52,3.1-4.6,6.95-4.6h.526c3.793,0,6.978,2.077,6.978,4.6Z" transform="translate(-1108.404 -1631.506)" fill="#fff4ba"/></g><g transform="translate(311.919)"><path d="M1232.263,1653.79c0,2.527-3.129,4.6-6.978,4.6h-.471c-3.849,0-6.978-2.077-6.978-4.6V1636.1c0-2.52,3.129-4.6,6.978-4.6h.471c3.849,0,6.978,2.077,6.978,4.6Z" transform="translate(-1217.836 -1631.506)" fill="#fff4ba"/></g><g transform="translate(356.473)"><path d="M1341.7,1653.79c0,2.527-3.129,4.6-6.978,4.6h-.5c-3.794,0-6.951-2.077-6.951-4.6V1636.1c0-2.52,3.157-4.6,6.951-4.6h.5c3.849,0,6.978,2.077,6.978,4.6Z" transform="translate(-1327.271 -1631.506)" fill="#fff4ba"/></g><g transform="translate(400.998)"><path d="M1451.091,1653.79c0,2.527-3.129,4.6-6.951,4.6h-.526c-3.792,0-6.978-2.077-6.978-4.6V1636.1c0-2.52,3.185-4.6,6.978-4.6h.526c3.822,0,6.951,2.077,6.951,4.6Z" transform="translate(-1436.636 -1631.506)" fill="#fff4ba"/></g><g transform="translate(445.579)"><path d="M1560.594,1653.79c0,2.527-3.156,4.6-6.978,4.6h-.5c-3.849,0-6.978-2.077-6.978-4.6V1636.1c0-2.52,3.129-4.6,6.978-4.6h.5c3.823,0,6.978,2.077,6.978,4.6Z" transform="translate(-1546.14 -1631.506)" fill="#fff4ba"/></g></g><g transform="translate(17.783 124.143)"><text transform="translate(1.205 14.752)" fill="#9999a5" font-size="15" font-family="TrebuchetMS-Bold, Trebuchet MS" font-weight="700"><tspan x="0" y="0">1st</tspan></text><text transform="translate(1.205 74.94)" fill="#9999a5" font-size="15" font-family="TrebuchetMS-Bold, Trebuchet MS" font-weight="700"><tspan x="0" y="0">8th</tspan></text><text transform="translate(1.206 134.811)" fill="#9999a5" font-size="15" font-family="TrebuchetMS-Bold, Trebuchet MS" font-weight="700"><tspan x="0" y="0">15th</tspan></text><text transform="translate(1.206 196.205)" fill="#9999a5" font-size="15" font-family="TrebuchetMS-Bold, Trebuchet MS" font-weight="700"><tspan x="0" y="0">22nd</tspan></text><text transform="translate(0 255.169)" fill="#9999a5" font-size="15" font-family="TrebuchetMS-Bold, Trebuchet MS" font-weight="700"><tspan x="0" y="0">29th</tspan></text><text transform="translate(74.676 14)" fill="#9999a5" font-size="15" font-family="TrebuchetMS-Bold, Trebuchet MS" font-weight="700"><tspan x="0" y="0">2nd</tspan></text><text transform="translate(74.676 75.394)" fill="#9999a5" font-size="15" font-family="TrebuchetMS-Bold, Trebuchet MS" font-weight="700"><tspan x="0" y="0">9th</tspan></text><text transform="translate(74.676 135.264)" fill="#9999a5" font-size="15" font-family="TrebuchetMS-Bold, Trebuchet MS" font-weight="700"><tspan x="0" y="0">16th</tspan></text><text transform="translate(74.676 195.453)" fill="#9999a5" font-size="15" font-family="TrebuchetMS-Bold, Trebuchet MS" font-weight="700"><tspan x="0" y="0">23rd</tspan></text><text transform="translate(73.471 255.622)" fill="#9999a5" font-size="15" font-family="TrebuchetMS-Bold, Trebuchet MS" font-weight="700"><tspan x="0" y="0">30th</tspan></text><text transform="translate(147.159 14)" fill="#9999a5" font-size="15" font-family="TrebuchetMS-Bold, Trebuchet MS" font-weight="700"><tspan x="0" y="0">3rd</tspan></text><text transform="translate(147.159 74.188)" fill="#9999a5" font-size="15" font-family="TrebuchetMS-Bold, Trebuchet MS" font-weight="700"><tspan x="0" y="0">10th</tspan></text><text transform="translate(147.16 135.265)" fill="#9999a5" font-size="15" font-family="TrebuchetMS-Bold, Trebuchet MS" font-weight="700"><tspan x="0" y="0">17th</tspan></text><text transform="translate(147.567 195.453)" fill="#9999a5" font-size="15" font-family="TrebuchetMS-Bold, Trebuchet MS" font-weight="700"><tspan x="0" y="0">24th</tspan></text><text transform="translate(220.592 15.039)" fill="#9999a5" font-size="15" font-family="TrebuchetMS-Bold, Trebuchet MS" font-weight="700"><tspan x="0" y="0">4th</tspan></text><text transform="translate(219.778 74.022)" fill="#9999a5" font-size="15" font-family="TrebuchetMS-Bold, Trebuchet MS" font-weight="700"><tspan x="0" y="0">11th</tspan></text><text transform="translate(219.778 135.098)" fill="#9999a5" font-size="15" font-family="TrebuchetMS-Bold, Trebuchet MS" font-weight="700"><tspan x="0" y="0">18th</tspan></text><text transform="translate(219.778 195.286)" fill="#9999a5" font-size="15" font-family="TrebuchetMS-Bold, Trebuchet MS" font-weight="700"><tspan x="0" y="0">25th</tspan></text><text transform="translate(292.648 15.039)" fill="#9999a5" font-size="15" font-family="TrebuchetMS-Bold, Trebuchet MS" font-weight="700"><tspan x="0" y="0">5th</tspan></text><text transform="translate(292.648 74.022)" fill="#9999a5" font-size="15" font-family="TrebuchetMS-Bold, Trebuchet MS" font-weight="700"><tspan x="0" y="0">12th</tspan></text><text transform="translate(292.648 135.098)" fill="#9999a5" font-size="15" font-family="TrebuchetMS-Bold, Trebuchet MS" font-weight="700"><tspan x="0" y="0">19th</tspan></text><text transform="translate(292.648 195.286)" fill="#9999a5" font-size="15" font-family="TrebuchetMS-Bold, Trebuchet MS" font-weight="700"><tspan x="0" y="0">26th</tspan></text><text transform="translate(365.914 15.039)" fill="#9999a5" font-size="15" font-family="TrebuchetMS-Bold, Trebuchet MS" font-weight="700"><tspan x="0" y="0">6th</tspan></text><text transform="translate(365.914 74.022)" fill="#9999a5" font-size="15" font-family="TrebuchetMS-Bold, Trebuchet MS" font-weight="700"><tspan x="0" y="0">13th</tspan></text><text transform="translate(365.914 135.098)" fill="#9999a5" font-size="15" font-family="TrebuchetMS-Bold, Trebuchet MS" font-weight="700"><tspan x="0" y="0">20th</tspan></text><text transform="translate(365.914 195.286)" fill="#9999a5" font-size="15" font-family="TrebuchetMS-Bold, Trebuchet MS" font-weight="700"><tspan x="0" y="0">27th</tspan></text><text transform="translate(438.891 15.039)" fill="#9999a5" font-size="15" font-family="TrebuchetMS-Bold, Trebuchet MS" font-weight="700"><tspan x="0" y="0">7th</tspan></text><text transform="translate(438.891 74.022)" fill="#9999a5" font-size="15" font-family="TrebuchetMS-Bold, Trebuchet MS" font-weight="700"><tspan x="0" y="0">14th</tspan></text><text transform="translate(438.891 135.098)" fill="#9999a5" font-size="15" font-family="TrebuchetMS-Bold, Trebuchet MS" font-weight="700"><tspan x="0" y="0">21st</tspan></text><text transform="translate(438.891 195.286)" fill="#9999a5" font-size="15" font-family="TrebuchetMS-Bold, Trebuchet MS" font-weight="700"><tspan x="0" y="0">28th</tspan></text><text transform="translate(146.361 255.622)" fill="#9999a5" font-size="15" font-family="TrebuchetMS-Bold, Trebuchet MS" font-weight="700"><tspan x="0" y="0">31st</tspan></text></g></g><text transform="translate(21.218 151.208)" fill="#2d356b" font-size="10" font-family="TrebuchetMS-Bold, Trebuchet MS" font-weight="700"><tspan x="0" y="0">First</tspan></text><text transform="translate(93.608 151.308)" fill="#2d356b" font-size="10" font-family="TrebuchetMS-Bold, Trebuchet MS" font-weight="700"><tspan x="0" y="0">Second</tspan></text><text transform="translate(166.125 151.409)" fill="#2d356b" font-size="10" font-family="TrebuchetMS-Bold, Trebuchet MS" font-weight="700"><tspan x="0" y="0">Third</tspan></text><text transform="translate(311.918 151.409)" fill="#2d356b" font-size="10" font-family="TrebuchetMS-Bold, Trebuchet MS" font-weight="700"><tspan x="0" y="0">Fifth</tspan></text><text transform="translate(384.308 151.715)" fill="#2d356b" font-size="10" font-family="TrebuchetMS-Bold, Trebuchet MS" font-weight="700"><tspan x="0" y="0">Sixth</tspan></text><text transform="translate(457.975 151.918)" fill="#2d356b" font-size="10" font-family="TrebuchetMS-Bold, Trebuchet MS" font-weight="700"><tspan x="0" y="0">Seventh</tspan></text><text transform="translate(238.932 150.511)" fill="#2d356b" font-size="10" font-family="TrebuchetMS-Bold, Trebuchet MS" font-weight="700"><tspan x="0" y="0">Fourth</tspan></text><text transform="translate(21.492 210.374)" fill="#2d356b" font-size="10" font-family="TrebuchetMS-Bold, Trebuchet MS" font-weight="700"><tspan x="0" y="0">Eighth</tspan></text><text transform="translate(93.881 210.679)" fill="#2d356b" font-size="10" font-family="TrebuchetMS-Bold, Trebuchet MS" font-weight="700"><tspan x="0" y="0">Ninth</tspan></text><text transform="translate(166.398 210.78)" fill="#2d356b" font-size="10" font-family="TrebuchetMS-Bold, Trebuchet MS" font-weight="700"><tspan x="0" y="0">Tenth</tspan></text><text transform="translate(312.191 210.781)" fill="#2d356b" font-size="10" font-family="TrebuchetMS-Bold, Trebuchet MS" font-weight="700"><tspan x="0" y="0">Twelfth</tspan></text><text transform="translate(384.581 211.086)" fill="#2d356b" font-size="10" font-family="TrebuchetMS-Bold, Trebuchet MS" font-weight="700"><tspan x="0" y="0">Thirteenth</tspan></text><text transform="translate(458.248 211.289)" fill="#2d356b" font-size="10" font-family="TrebuchetMS-Bold, Trebuchet MS" font-weight="700"><tspan x="0" y="0">Fourteenth</tspan></text><text transform="translate(239.205 210.882)" fill="#2d356b" font-size="10" font-family="TrebuchetMS-Bold, Trebuchet MS" font-weight="700"><tspan x="0" y="0">Eleventh</tspan></text><text transform="translate(21.865 273.652)" fill="#2d356b" font-size="10" font-family="TrebuchetMS-Bold, Trebuchet MS" font-weight="700"><tspan x="0" y="0">Fifteenth</tspan></text><text transform="translate(94.254 273.957)" fill="#2d356b" font-size="10" font-family="TrebuchetMS-Bold, Trebuchet MS" font-weight="700"><tspan x="0" y="0">Sixteenth</tspan></text><text transform="translate(166.771 274.058)" fill="#2d356b" font-size="10" font-family="TrebuchetMS-Bold, Trebuchet MS" font-weight="700"><tspan x="0" y="0">Seventeenth</tspan></text><text transform="translate(312.564 274.059)" fill="#2d356b" font-size="10" font-family="TrebuchetMS-Bold, Trebuchet MS" font-weight="700"><tspan x="0" y="0">Nineteenth</tspan></text><text transform="translate(384.954 274.364)" fill="#2d356b" font-size="10" font-family="TrebuchetMS-Bold, Trebuchet MS" font-weight="700"><tspan x="0" y="0">Twentieth</tspan></text><text transform="translate(458.621 274.568)" fill="#2d356b" font-size="10" font-family="TrebuchetMS-Bold, Trebuchet MS" font-weight="700"><tspan x="0" y="0">Twenty-first</tspan></text><text transform="translate(239.578 274.16)" fill="#2d356b" font-size="10" font-family="TrebuchetMS-Bold, Trebuchet MS" font-weight="700"><tspan x="0" y="0">Eighteenth</tspan></text><text transform="translate(22.138 332.023)" fill="#2d356b" font-size="10" font-family="TrebuchetMS-Bold, Trebuchet MS" font-weight="700"><tspan x="0" y="0">Twenty-</tspan><tspan x="0" y="12">second</tspan></text><text transform="translate(94.527 332.328)" fill="#2d356b" font-size="10" font-family="TrebuchetMS-Bold, Trebuchet MS" font-weight="700"><tspan x="0" y="0">Twenty-</tspan><tspan x="0" y="12">third</tspan></text><text transform="translate(167.044 332.43)" fill="#2d356b" font-size="10" font-family="TrebuchetMS-Bold, Trebuchet MS" font-weight="700"><tspan x="0" y="0">Twenty-</tspan><tspan x="0" y="12">fourth</tspan></text><text transform="translate(22.264 392.428)" fill="#2d356b" font-size="10" font-family="TrebuchetMS-Bold, Trebuchet MS" font-weight="700"><tspan x="0" y="0">Twenty-</tspan><tspan x="0" y="12">nineth</tspan></text><text transform="translate(94.654 392.733)" fill="#2d356b" font-size="9" font-family="TrebuchetMS-Bold, Trebuchet MS" font-weight="700"><tspan x="0" y="0">Thirtieth</tspan></text><text transform="translate(167.171 392.835)" fill="#2d356b" font-size="10" font-family="TrebuchetMS-Bold, Trebuchet MS" font-weight="700"><tspan x="0" y="0">Thirty-</tspan><tspan x="0" y="12">first</tspan></text><text transform="translate(312.837 332.43)" fill="#2d356b" font-size="10" font-family="TrebuchetMS-Bold, Trebuchet MS" font-weight="700"><tspan x="0" y="0">Twenty-</tspan><tspan x="0" y="12">sixth</tspan></text><text transform="translate(385.227 332.735)" fill="#2d356b" font-size="10" font-family="TrebuchetMS-Bold, Trebuchet MS" font-weight="700"><tspan x="0" y="0">Twenty-</tspan><tspan x="0" y="12">seventh</tspan></text><text transform="translate(458.894 332.938)" fill="#2d356b" font-size="10" font-family="TrebuchetMS-Bold, Trebuchet MS" font-weight="700"><tspan x="0" y="0">Twenty-</tspan><tspan x="0" y="12">eighth</tspan></text><text transform="translate(239.851 332.532)" fill="#2d356b" font-size="10" font-family="TrebuchetMS-Bold, Trebuchet MS" font-weight="700"><tspan x="0" y="0">Twenty-</tspan><tspan x="0" y="12">fifth</tspan></text></svg>