<svg xmlns="http://www.w3.org/2000/svg" width="172.458" height="108.603" viewBox="0 0 172.458 108.603">
    <g transform="translate(-30 -2651.647)">
        <g transform="translate(30 2645.343)">
            <g transform="translate(37.89 11.25)">
                <g transform="translate(18.41)">
                    <path
                        d="M472.712,3005.115c-1.877-2.967,1.028-4.239,1.131-7.029s-2.364-2.171-2.364-5.79,2.261-4.341,2.569-6.409-2.466-2.895-1.028-5.376,3.411-2.235,4.644-4.2,4.316-2.792,5.858-1.654,3.886-2.107,6.558.168,1.952,6.1,2.569,8.374,3.391,3.514,3.391,7.442-1.952,2.792-1.336,5.583,3.186,2.894,3.186,6.823a3.306,3.306,0,0,1-4.214,3.2c-4.111-.723-3.084,1.757-7.4-.31s-3.289,2.274-6.269.31S474.871,3008.526,472.712,3005.115Z"
                        transform="translate(-471.479 -2973.996)" fill="#2d356b" />
                </g>
                <g transform="translate(0 4.013)">
                    <g transform="translate(0 20.458)">
                        <path d="M384.835,3126.165c-.09-1.686-2.814-4.83-1.475-5.446,1.2-.552,3.94.335,2.778,5.318Z"
                            transform="translate(-381.725 -3116.646)" fill="#ffd9a4" />
                        <path
                            d="M384.348,3116.693c-2.054,1.109-3.4-1.4-3.636-2.286-.263-.976,1.067-2.245,1.867-2.164S385.133,3116.268,384.348,3116.693Z"
                            transform="translate(-379.861 -3109.926)" fill="#ffd9a4" />
                        <path
                            d="M395.175,3111.132c.465-1.3,1.62-2.552,2.052-2.25.488.339-.708,1.232-.843,2.5-.149,1.369-.314,2.221-.844,2.192S394.707,3112.428,395.175,3111.132Z"
                            transform="translate(-391.362 -3107.182)" fill="#ffd9a4" />
                        <path
                            d="M387.887,3102.181c-.3-1.14-.2-1.8.115-1.85s.443.615.746,1.753.969,2.511.658,2.556S388.191,3103.319,387.887,3102.181Z"
                            transform="translate(-385.528 -3100.323)" fill="#ffd9a4" />
                        <path
                            d="M380.131,3102.656c-.535-1.077-.52-2.246-.229-2.351s.546,1,1.081,2.077.824,1.8.533,1.908S380.666,3103.732,380.131,3102.656Z"
                            transform="translate(-379.074 -3100.298)" fill="#ffd9a4" />
                        <path
                            d="M376.872,3111.315c-.491-1.1-.517-1.82-.224-1.917s.48.687.97,1.783.819,1.872.525,1.968S377.363,3112.413,376.872,3111.315Z"
                            transform="translate(-376.459 -3107.629)" fill="#ffd9a4" />
                        <g transform="translate(2.458 3.419)">
                            <path
                                d="M448.818,3117.965c4.116,1.637-9.664,24.3-10.417,24.865,0,0-2.379-.645-2.259-1.75C436.452,3138.22,446.98,3117.234,448.818,3117.965Z"
                                transform="translate(-427.033 -3117.947)" fill="#54ccca" />
                            <path
                                d="M397.281,3149.245c-3.237,1.278,7.021,17.6,7.615,18.048,0,0,2.642-.105,2.546-.971C407.191,3164.082,398.727,3148.674,397.281,3149.245Z"
                                transform="translate(-395.197 -3143.168)" fill="#54ccca" />
                            <path
                                d="M396.059,3144.79l1.059-.1,2.729,2.987a8.287,8.287,0,0,1-2.243.439C397.155,3147.99,396.059,3144.79,396.059,3144.79Z"
                                transform="translate(-394.72 -3139.507)" fill="#ebebeb" />
                            <path
                                d="M390.556,3145.038l-.932.527-.477,4.021a8.321,8.321,0,0,0,2.105-.934C391.548,3148.291,390.556,3145.038,390.556,3145.038Z"
                                transform="translate(-389.147 -3139.789)" fill="#ebebeb" />
                        </g>
                    </g>
                    <g transform="translate(37.704 25.343)">
                        <path
                            d="M571.321,3125.64c4.339-2.242,13.1,25.644,13.028,26.681,0,0-2.548,2.695-3.376,1.794C578.831,3151.785,569.384,3126.641,571.321,3125.64Z"
                            transform="translate(-571.061 -3125.512)" fill="#54ccca" />
                    </g>
                    <g transform="translate(16.612)">
                        <path
                            d="M462.2,3152.5s5.968,5.286,11.936,7.269l3.108-6.718,2.86,6.718s8.068-2.273,11.315-7.269c-6.574-9.532-9.172-17.487-2.354-27.409,0,0-2.744-17.743-12.691-18.184s-11.719,18.915-11.719,18.915C471.12,3135.514,473.237,3139.723,462.2,3152.5Z"
                            transform="translate(-462.199 -3085.164)" fill="#9ea9fc" />
                        <path
                            d="M512.19,3115.112a6.025,6.025,0,0,1,3.854,1.39,12.428,12.428,0,0,0,.962-7.995c-6.055-4.553-9.787.473-9.787.473a11.378,11.378,0,0,0,1.342,7.353A6.012,6.012,0,0,1,512.19,3115.112Z"
                            transform="translate(-498.38 -3084.92)" fill="#fff" />
                        <path
                            d="M516.4,3107.983s-1.007,5.052,3.572,10.535c0,0,3.893-5.336,2.793-10.926C518.825,3103.83,516.4,3107.983,516.4,3107.983Z"
                            transform="translate(-505.821 -3084.45)" fill="#f7c371" />
                        <rect width="5.194" height="9.738" transform="translate(11.201 13.49)" fill="#f7c371" />
                        <path d="M541.995,3228.858a.73.73,0,1,0-.73.731A.73.73,0,0,0,541.995,3228.858Z"
                            transform="translate(-525.357 -3182.903)" fill="#fff" />
                        <path d="M541.995,3258.321a.73.73,0,1,0-.73.73A.73.73,0,0,0,541.995,3258.321Z"
                            transform="translate(-525.357 -3206.657)" fill="#fff" />
                        <path d="M541.995,3317.248a.73.73,0,1,0-.73.73A.73.73,0,0,0,541.995,3317.248Z"
                            transform="translate(-525.357 -3254.166)" fill="#fff" />
                        <path d="M541.995,3287.785a.73.73,0,1,0-.73.73A.73.73,0,0,0,541.995,3287.785Z"
                            transform="translate(-525.357 -3230.412)" fill="#fff" />
                        <g transform="translate(6.591)">
                            <g transform="translate(0.013 1.942)">
                                <path
                                    d="M506.868,3022.794c-2.522,0-8.2-6.893-5.854-15.364.474-1.712,2.335-2.7,5.854-2.7,3.871,0,5.641,1.047,5.924,2.433C514.786,3016.97,509.449,3022.794,506.868,3022.794Z"
                                    transform="translate(-499.649 -3004.733)" fill="#ffd8a3" />
                                <path
                                    d="M538.314,3025.626a3.174,3.174,0,0,1,3.825,2A4.069,4.069,0,0,0,538.314,3025.626Z"
                                    transform="translate(-530.17 -3021.505)" fill="#2d356b" />
                                <path
                                    d="M509.714,3026.558a3.162,3.162,0,0,0-4.023,1.523A4.059,4.059,0,0,1,509.714,3026.558Z"
                                    transform="translate(-503.868 -3022.152)" fill="#2d356b" />
                                <path d="M545.882,3041.271a.7.7,0,1,0-.64.9A.791.791,0,0,0,545.882,3041.271Z"
                                    transform="translate(-535.179 -3033.514)" fill="#2d356b" />
                                <path
                                    d="M543.989,3041.075a2.308,2.308,0,0,0-2.835-.441A5.821,5.821,0,0,1,543.989,3041.075Z"
                                    transform="translate(-532.46 -3033.431)" fill="#2d356b" />
                                <path d="M514.695,3041.271a.7.7,0,1,1,.64.9A.791.791,0,0,1,514.695,3041.271Z"
                                    transform="translate(-511.126 -3033.514)" fill="#2d356b" />
                                <path
                                    d="M510.436,3041.075a2.306,2.306,0,0,1,2.834-.441A5.816,5.816,0,0,0,510.436,3041.075Z"
                                    transform="translate(-507.694 -3033.431)" fill="#2d356b" />
                                <path
                                    d="M529.552,3051.549a1.846,1.846,0,0,0,.755.313,1.074,1.074,0,0,0,.755-.345,8.645,8.645,0,0,0-.713-2.547A8.209,8.209,0,0,0,529.552,3051.549Z"
                                    transform="translate(-523.106 -3040.399)" fill="#ffab00" />
                                <path
                                    d="M531.878,3049.77c0,.047.225.121.3.121.135,0,.3-.069.3-.153.014-.2.121-2.5-.287-2.482C531.752,3047.279,531.872,3049.475,531.878,3049.77Z"
                                    transform="translate(-524.966 -3039.017)" fill="#ffd8a3" />
                                <path
                                    d="M531.544,3082.562c0-.281-.31-.254-.71-.254s-.738-.027-.738.254.324.508.724.508S531.544,3082.843,531.544,3082.562Z"
                                    transform="translate(-523.545 -3067.277)" fill="#f36973" />
                                <path
                                    d="M529.413,3069.079a1.256,1.256,0,0,0-1.323-.04c-.249,0-.5-.421-1.359.04-.247.133.6.508,1.341.508S529.66,3069.212,529.413,3069.079Z"
                                    transform="translate(-520.797 -3056.438)" fill="#f36973" />
                                <path d="M523.754,3070.088h3.894s-.522,2.8-1.947,2.8S523.754,3070.088,523.754,3070.088Z"
                                    transform="translate(-518.431 -3057.425)" fill="#ffab00" />
                                <path d="M528.427,3070.825h-3.354l.369,1.14h2.616Z"
                                    transform="translate(-519.495 -3058.02)" fill="#fff" />
                                <path d="M543.358,3069.1a.2.2,0,1,0-.2.228A.214.214,0,0,0,543.358,3069.1Z"
                                    transform="translate(-533.921 -3056.444)" fill="#ffab00" />
                                <path d="M522.971,3069.1a.2.2,0,1,0-.2.228A.214.214,0,0,0,522.971,3069.1Z"
                                    transform="translate(-517.484 -3056.444)" fill="#ffab00" />
                                <path
                                    d="M497.3,3049.254c-.119-.556-.045-1.007-.455-.92a.925.925,0,0,0-.528,1.166c.119.555.548.935.958.847S497.415,3049.81,497.3,3049.254Z"
                                    transform="translate(-496.283 -3039.877)" fill="#f7c371" />
                                <path
                                    d="M564.628,3049.268c.106-.558.016-1.01.441-.929a.933.933,0,0,1,.578,1.158c-.105.558-.535.946-.959.866S564.523,3049.828,564.628,3049.268Z"
                                    transform="translate(-551.244 -3039.882)" fill="#f7c371" />
                            </g>
                            <g transform="translate(5.584)">
                                <path
                                    d="M533.246,3000.823c-2.218-.844-7.765-3.194-8.209-6.035,0,0,5.6-.71,6.878,2.086C533.526,3000.4,533.246,3000.823,533.246,3000.823Z"
                                    transform="translate(-525.037 -2994.708)" fill="#2d356b" />
                                <g transform="translate(0.406 1.066)">
                                    <path
                                        d="M533.366,3006.538a17,17,0,0,0,5.426,3.837C540.821,3011.125,533.366,3006.538,533.366,3006.538Z"
                                        transform="translate(-532.158 -3005.313)" fill="#2d356b" />
                                    <path
                                        d="M527.133,3000.213a10.6,10.6,0,0,0,2.233,3.489C530.361,3004.611,527.133,3000.213,527.133,3000.213Z"
                                        transform="translate(-527.133 -3000.213)" fill="#2d356b" />
                                </g>
                            </g>
                            <path
                                d="M496.232,3008.169c1.775-.843,6.212-3.194,6.567-6.034,0,0-4.482-.71-5.5,2.086C496.008,3007.75,496.232,3008.169,496.232,3008.169Z"
                                transform="translate(-496.217 -3000.631)" fill="#2d356b" />
                        </g>
                    </g>
                </g>
                <g transform="translate(23.37 54.455)">
                    <g transform="translate(0 3.864)">
                        <path
                            d="M497.756,3286.347c.072-.366.743-.305,1.484-.125s1.273.408,1.2.775-.731.518-1.473.338S497.684,3286.713,497.756,3286.347Z"
                            transform="translate(-497.619 -3283.932)" fill="#f7c371" />
                        <path
                            d="M498.6,3291.769c.072-.367.743-.3,1.484-.124s1.273.407,1.2.775-.73.518-1.473.338S498.529,3292.135,498.6,3291.769Z"
                            transform="translate(-498.299 -3288.303)" fill="#f7c371" />
                        <path
                            d="M497.742,3275.429c.381.016.493.993.506,2.1s-.075,1.924-.457,1.908-.7-.926-.713-2.033S497.36,3275.412,497.742,3275.429Z"
                            transform="translate(-497.076 -3275.345)" fill="#ffd8a3" />
                        <path d="M504.518,3275.827c-1.605-.316-6.577-1.7-7.062-.007-.433,1.513,1.2,3.944,7.181,1.552Z"
                            transform="translate(-497.33 -3274.995)" fill="#ffd8a3" />
                    </g>
                    <path
                        d="M532.658,3261.021c-1.164-3.528,18.976-6.149,19.746-5.961,0,0,1.719,2.245.943,2.751C551.338,3259.122,533.178,3262.6,532.658,3261.021Z"
                        transform="translate(-525.725 -3255.05)" fill="#54ccca" />
                    <path
                        d="M529.664,3282.669l.506,1.06,4.381.883a9.12,9.12,0,0,0-.861-2.374C533.317,3281.885,529.664,3282.669,529.664,3282.669Z"
                        transform="translate(-523.35 -3276.897)" fill="#eaeaea" />
                    <path
                        d="M529.568,3268.958l-.031-1.182,3.535-2.74a9.2,9.2,0,0,1,.314,2.525C533.213,3268.045,529.568,3268.958,529.568,3268.958Z"
                        transform="translate(-523.248 -3263.101)" fill="#eaeaea" />
                </g>
                <g transform="translate(11.561 40.167)">
                    <rect width="38.729" height="26.828" rx="5.608" transform="translate(0.297)" fill="#ebebeb" />
                    <rect width="39.322" height="1.937" transform="translate(0 27.623)" fill="#ebebeb" />
                    <rect width="1.936" height="4.65" transform="translate(32.14 23.96)" fill="#ebebeb" />
                    <rect width="1.936" height="4.65" transform="translate(5.307 23.96)" fill="#ebebeb" />
                    <g transform="translate(15.114 8.094)">
                        <path
                            d="M518.68,3232.179a4.547,4.547,0,1,1,4.547-4.548A4.552,4.552,0,0,1,518.68,3232.179Zm0-7.361a2.814,2.814,0,1,0,2.814,2.814A2.817,2.817,0,0,0,518.68,3224.818Z"
                            transform="translate(-514.133 -3223.085)" fill="#7b88ac" />
                    </g>
                </g>
            </g>
            <g transform="translate(0 13.601)">
                <path d="M328.085,3331.554H207.636V3348H328.847Z" transform="translate(-202.456 -3264.628)"
                    fill="#9999a5" />
                <g transform="translate(87.014)">
                    <g transform="translate(14.201)">
                        <path
                            d="M779.457,3071c.142-1.491.808-2.3,1.468-2.3s1.064.807.922,2.3a2.226,2.226,0,0,1-1.893,2.184C779.294,3073.183,779.315,3072.49,779.457,3071Z"
                            transform="translate(-764.637 -3052.702)" fill="#f8c471" />
                        <path
                            d="M706.454,3071.437c-.1-1.492-.77-2.3-1.462-2.3s-1.141.807-1.042,2.3a2.18,2.18,0,0,0,1.91,2.184C706.551,3073.62,706.554,3072.928,706.454,3071.437Z"
                            transform="translate(-703.813 -3053.055)" fill="#f8c471" />
                        <path
                            d="M711.806,3031.11c.1.8,3.248,4.269,6.835,4.269s6.557-3.159,7.179-4.44-1.89-17.589-3.353-18.955-7.364-.463-7.865.256C713.414,3013.948,711.417,3027.951,711.806,3031.11Z"
                            transform="translate(-710.119 -3006.404)" fill="#f8c471" />
                        <path
                            d="M719,3018.053c.516.25,2.557-5.039,2.984-5.923s.355-1.8-.162-2.054-1.282.266-1.709,1.15S718.479,3017.8,719,3018.053Z"
                            transform="translate(-715.853 -3005.385)" fill="#f8c471" />
                        <path
                            d="M762.368,3016.724c.543-.184-.892-5.551-1.208-6.481s-1.012-1.535-1.555-1.351-.728,1.088-.413,2.017S761.825,3016.908,762.368,3016.724Z"
                            transform="translate(-748.239 -3004.454)" fill="#f8c471" />
                        <path d="M728.906,3111.736H720.8l-1.213,7.428c4.413,2.3,6.991,2.051,10.429-.5Z"
                            transform="translate(-716.43 -3087.4)" fill="#f8c471" />
                        <path
                            d="M745.774,3117.86c0-.157-.287-.285-.64-.285s-.64.127-.64.285.287.171.64.171S745.774,3118.017,745.774,3117.86Z"
                            transform="translate(-736.513 -3092.108)" fill="#f8c471" />
                        <path
                            d="M708.661,3019.7c-.284-1.822-.781-14.882.4-16.605s8.111-2.851,9.2-2.577c2.362.6,1.948,2.384,1.948,2.384a3.969,3.969,0,0,1,1.99.576c.815.574,2.515,8.8,1.156,15.026-.611,2.8-3.016,5.237-7.172,5.351C711.023,3023.995,709.015,3021.962,708.661,3019.7Z"
                            transform="translate(-707.34 -2997.696)" fill="#f8c471" />
                        <path
                            d="M706.458,3002.811c-.845.255-2.688-1.155-1.817-1.9,0,0-1.659-1.271-.309-1.986,0,0-1.357-1.669-.031-2.115,0,0-2.063-2.626-.257-2.582,0,0-.948-2.81.892-2.4,0,0,.324-3.054,1.787-2.013,0,0-.145-2.9,1.715-1.3,0,0,1.234-3.365,1.726-1.016,0,0,1.551-2.308,2.026-.669,0,0,3.519-1.661,2.4.117,0,0,3.571-1.189,2.53.557,0,0,3.476.583,1.67,2.15,0,0,2.606,2.379.35,2.576,0,0,2,3.368-.2,2.707,0,0,1.925,3.917-.561,2.556,0,0,1.792,4.441-.328,2.864,0,0,.436,5.4-1.133,3.019Z"
                            transform="translate(-703.301 -2986.13)" fill="#f8c471" />
                        <path
                            d="M714.413,3061.7a28.284,28.284,0,0,1-7.232-.874,18.3,18.3,0,0,0,.367,7.531c.354,2.264,2.361,4.3,7.513,4.156,4.155-.114,6.661-2.533,7.172-5.351.752-4.15.752-4.15.492-6.335A43.021,43.021,0,0,1,714.413,3061.7Z"
                            transform="translate(-706.227 -3046.352)" fill="#f8c471" />
                    </g>
                    <g transform="translate(0 30.689)">
                        <g transform="translate(0 4.741)">
                            <path d="M642.293,3364.68l-.641-2.29,3.572-.079-.635,2.243Z"
                                transform="translate(-639.395 -3324.856)" fill="#f8c471" />
                            <path
                                d="M643.353,3363.675c.49-.094.927.025,1.275.741l.6-2.1-3.572.079.641,2.29.122-.006A1.027,1.027,0,0,1,643.353,3363.675Z"
                                transform="translate(-639.395 -3324.857)" fill="#f8c471" />
                            <path
                                d="M631.047,3192.717c-1.7-.059-.8-15.417,3.572-23.722,0,0,5.9,5.948,6.183,10.338C640.8,3179.332,637.912,3192.955,631.047,3192.717Z"
                                transform="translate(-630.196 -3168.995)" fill="#f8c471" />
                            <path
                                d="M630.118,3267.688s-.852,6.347,2.1,18.842a5.428,5.428,0,0,0,3.908-.734s2.365-13-.737-17.683C635.393,3268.113,631.9,3265.949,630.118,3267.688Z"
                                transform="translate(-630.004 -3248.021)" fill="#f8c471" />
                            <path
                                d="M649.439,3269.358c.97.4,2.258,1.085,2.128,1.466C651.3,3271.6,649.439,3269.358,649.439,3269.358Z"
                                transform="translate(-645.673 -3249.912)" fill="#f8c471" />
                            <path
                                d="M650.563,3272.66c.565-.885,1.468-2.031,1.819-1.835C653.1,3271.224,650.563,3272.66,650.563,3272.66Z"
                                transform="translate(-646.58 -3251.078)" fill="#f8c471" />
                            <path
                                d="M660.484,3226.44a58.36,58.36,0,0,1-5.594,9.227c2.242,5.114.864,16.971.779,17.686.172-.08.347-.166.525-.268,0,0,2.085-11.461-.227-16.734C658.556,3233.252,660,3228.343,660.484,3226.44Z"
                                transform="translate(-650.068 -3215.31)" fill="#f8c471" />
                            <path d="M638.6,3353.34a.537.537,0,1,0-.214-1.05Z" transform="translate(-636.759 -3316.76)"
                                fill="#f8c471" />
                        </g>
                        <g transform="translate(34.701 4.207)">
                            <path d="M836.7,3361.922l.641-2.29-3.572-.08.635,2.244Z"
                                transform="translate(-828.987 -3322.098)" fill="#f8c471" />
                            <path
                                d="M835.636,3360.918c-.49-.094-.927.024-1.275.741l-.6-2.1,3.572.079-.641,2.29-.122-.007A1.026,1.026,0,0,0,835.636,3360.918Z"
                                transform="translate(-828.987 -3322.099)" fill="#f8c471" />
                            <path
                                d="M818.86,3189.959c1.7-.059.8-15.417-3.572-23.723,0,0-5.9,5.948-6.183,10.338C809.1,3176.574,812,3190.2,818.86,3189.959Z"
                                transform="translate(-809.105 -3166.237)" fill="#f8c471" />
                            <path
                                d="M834.652,3264.931s.852,6.347-2.1,18.842a5.423,5.423,0,0,1-3.908-.734s-2.365-13,.737-17.682C829.377,3265.356,832.867,3263.192,834.652,3264.931Z"
                                transform="translate(-824.159 -3245.264)" fill="#f8c471" />
                            <path
                                d="M835.522,3266.6c-.97.4-2.258,1.086-2.128,1.466C833.661,3268.84,835.522,3266.6,835.522,3266.6Z"
                                transform="translate(-828.681 -3247.153)" fill="#f8c471" />
                            <path
                                d="M835.184,3269.9c-.565-.885-1.468-2.031-1.819-1.835C832.649,3268.466,835.184,3269.9,835.184,3269.9Z"
                                transform="translate(-828.562 -3248.32)" fill="#f8c471" />
                            <path
                                d="M810.089,3223.681a58.374,58.374,0,0,0,5.594,9.227c-2.241,5.113-.865,16.971-.779,17.686-.173-.08-.347-.167-.525-.268,0,0-2.084-11.46.228-16.734C812.018,3230.493,810.576,3225.584,810.089,3223.681Z"
                                transform="translate(-809.898 -3212.551)" fill="#f8c471" />
                            <path d="M852.451,3350.582a.538.538,0,0,1,.078-1.07.521.521,0,0,1,.136.02Z"
                                transform="translate(-843.681 -3314.003)" fill="#f8c471" />
                        </g>
                        <path
                            d="M652.406,3149.338c3.172,12.9,9.146,42.935,9.146,42.935,1.755,1.689,5.354,2.375,9.052,2.345l.6-1.659.988,1.6c3.785-.233,7.415-1.177,9.009-2.525,1.033-5.568,7.689-43.324,7.689-43.324C669.533,3138.934,652.406,3149.338,652.406,3149.338Z"
                            transform="translate(-648.066 -3144.523)" fill="#f8c471" />
                    </g>
                    <path
                        d="M723.852,3133.144c-1.561-1.647-11.163-1.877-13.238.006l-.713,1.969c4.381.5,8.313.371,15.159-.061Z"
                        transform="translate(-694.421 -3103.594)" fill="#f8c471" />
                </g>
                <g transform="translate(2.923 4.842)">
                    <g transform="translate(14.324)">
                        <path
                            d="M345.443,3081.642c.142-1.491.808-2.3,1.468-2.3s1.064.807.922,2.3a2.226,2.226,0,0,1-1.892,2.184C345.281,3083.827,345.3,3083.135,345.443,3081.642Z"
                            transform="translate(-330.745 -3066.126)" fill="#f8c471" />
                        <path
                            d="M272.437,3082.084c-.1-1.492-.771-2.3-1.462-2.3s-1.142.807-1.042,2.3a2.18,2.18,0,0,0,1.91,2.184C272.535,3084.267,272.537,3083.575,272.437,3082.084Z"
                            transform="translate(-269.919 -3066.481)" fill="#f8c471" />
                        <path
                            d="M277.789,3041.758c.1.8,3.248,4.269,6.835,4.269s6.556-3.159,7.179-4.44-1.89-17.588-3.353-18.954-7.363-.463-7.864.257C279.4,3024.6,277.4,3038.6,277.789,3041.758Z"
                            transform="translate(-276.225 -3019.831)" fill="#f8c471" />
                        <path
                            d="M284.98,3028.7c.516.25,2.557-5.039,2.984-5.923s.355-1.8-.162-2.054-1.282.265-1.709,1.15S284.462,3028.451,284.98,3028.7Z"
                            transform="translate(-281.959 -3018.813)" fill="#f8c471" />
                        <path
                            d="M328.351,3027.369c.543-.184-.892-5.551-1.208-6.481s-1.012-1.535-1.555-1.351-.728,1.088-.413,2.017S327.808,3027.554,328.351,3027.369Z"
                            transform="translate(-314.345 -3017.879)" fill="#f8c471" />
                        <path d="M294.889,3122.384h-8.108l-1.213,7.428c4.413,2.3,6.992,2.051,10.429-.5Z"
                            transform="translate(-282.536 -3100.826)" fill="#f8c471" />
                        <path
                            d="M311.757,3128.507c0-.156-.287-.285-.64-.285s-.64.128-.64.285.287.171.64.171S311.757,3128.665,311.757,3128.507Z"
                            transform="translate(-302.619 -3105.534)" fill="#f8c471" />
                        <path
                            d="M274.645,3030.345c-.284-1.822-.781-14.882.4-16.605s8.111-2.852,9.2-2.577c2.362.6,1.948,2.383,1.948,2.383a3.969,3.969,0,0,1,1.99.576c.815.574,2.514,8.8,1.156,15.026-.611,2.8-3.017,5.237-7.172,5.351C277.006,3034.641,275,3032.609,274.645,3030.345Z"
                            transform="translate(-273.447 -3011.122)" fill="#f8c471" />
                        <path
                            d="M281.876,3032.374a28.286,28.286,0,0,1-7.233-.874c-.642,3.828-.241,13.708,0,15.275.353,2.264,2.361,4.3,7.513,4.156,4.156-.114,6.561-2.553,7.172-5.351a31.8,31.8,0,0,0-.634-13.973A28.877,28.877,0,0,1,281.876,3032.374Z"
                            transform="translate(-273.449 -3027.552)" fill="#f8c471" />
                    </g>
                    <g transform="translate(0 27.91)">
                        <g transform="translate(0 4.742)">
                            <path d="M208.277,3375.33l-.641-2.289,3.572-.079-.635,2.243Z"
                                transform="translate(-205.379 -3335.506)" fill="#f8c471" />
                            <path
                                d="M209.336,3374.323c.49-.094.927.024,1.275.741l.6-2.1-3.572.079.641,2.29.122-.006A1.027,1.027,0,0,1,209.336,3374.323Z"
                                transform="translate(-205.378 -3335.504)" fill="#f8c471" />
                            <path
                                d="M197.03,3203.365c-1.7-.059-.8-15.417,3.572-23.722,0,0,5.9,5.948,6.183,10.338C206.786,3189.98,203.895,3203.6,197.03,3203.365Z"
                                transform="translate(-196.179 -3179.643)" fill="#f8c471" />
                            <path
                                d="M196.1,3278.336s-.852,6.347,2.1,18.842a5.424,5.424,0,0,0,3.908-.734s2.365-13-.737-17.682C201.377,3278.761,197.886,3276.6,196.1,3278.336Z"
                                transform="translate(-195.988 -3258.669)" fill="#f8c471" />
                            <path
                                d="M215.421,3280c.97.4,2.258,1.085,2.128,1.466C217.283,3282.246,215.421,3280,215.421,3280Z"
                                transform="translate(-211.656 -3260.56)" fill="#f8c471" />
                            <path
                                d="M216.548,3283.307c.565-.885,1.468-2.031,1.819-1.835C219.084,3281.871,216.548,3283.307,216.548,3283.307Z"
                                transform="translate(-212.564 -3261.725)" fill="#f8c471" />
                            <path
                                d="M226.467,3237.086a58.339,58.339,0,0,1-5.594,9.227c2.242,5.113.865,16.971.779,17.686.172-.079.347-.166.525-.268,0,0,2.084-11.46-.227-16.734C224.538,3243.9,225.98,3238.989,226.467,3237.086Z"
                                transform="translate(-216.051 -3225.956)" fill="#f8c471" />
                            <path d="M204.579,3363.988a.538.538,0,0,0-.078-1.07.531.531,0,0,0-.136.019Z"
                                transform="translate(-202.742 -3327.408)" fill="#f8c471" />
                        </g>
                        <g transform="translate(34.701 4.207)">
                            <path d="M402.679,3372.569l.641-2.29-3.572-.079.635,2.244Z"
                                transform="translate(-394.97 -3332.745)" fill="#f8c471" />
                            <path
                                d="M401.618,3371.564c-.49-.094-.927.024-1.275.741l-.6-2.1,3.572.079-.641,2.29-.122-.007A1.027,1.027,0,0,0,401.618,3371.564Z"
                                transform="translate(-394.969 -3332.745)" fill="#f8c471" />
                            <path
                                d="M384.844,3200.606c1.7-.059.8-15.418-3.573-23.723,0,0-5.9,5.948-6.183,10.337C375.089,3187.221,377.98,3200.843,384.844,3200.606Z"
                                transform="translate(-375.089 -3176.884)" fill="#f8c471" />
                            <path
                                d="M400.635,3275.578s.852,6.347-2.1,18.842a5.424,5.424,0,0,1-3.908-.734s-2.365-13,.737-17.682C395.36,3276,398.85,3273.839,400.635,3275.578Z"
                                transform="translate(-390.142 -3255.911)" fill="#f8c471" />
                            <path
                                d="M401.506,3277.247c-.97.4-2.258,1.085-2.128,1.466C399.644,3279.488,401.506,3277.247,401.506,3277.247Z"
                                transform="translate(-394.664 -3257.801)" fill="#f8c471" />
                            <path
                                d="M401.17,3280.547c-.565-.885-1.468-2.031-1.819-1.835C398.635,3279.112,401.17,3280.547,401.17,3280.547Z"
                                transform="translate(-394.547 -3258.965)" fill="#f8c471" />
                            <path
                                d="M376.073,3234.328a58.336,58.336,0,0,0,5.594,9.227c-2.242,5.113-.865,16.971-.779,17.686-.172-.08-.347-.166-.525-.268,0,0-2.084-11.461.227-16.734C378,3241.14,376.56,3236.231,376.073,3234.328Z"
                                transform="translate(-375.882 -3223.198)" fill="#f8c471" />
                            <path d="M418.428,3361.229a.538.538,0,0,1,.078-1.07.53.53,0,0,1,.136.02Z"
                                transform="translate(-409.659 -3324.649)" fill="#f8c471" />
                        </g>
                        <path
                            d="M218.39,3159.986c3.172,12.9,9.145,42.935,9.145,42.935,1.755,1.689,5.354,2.375,9.053,2.345l.6-1.66.988,1.6c3.786-.234,7.415-1.177,9.009-2.526,1.033-5.568,7.69-43.324,7.69-43.324C235.517,3149.582,218.39,3159.986,218.39,3159.986Z"
                            transform="translate(-214.05 -3155.171)" fill="#f8c471" />
                    </g>
                    <path
                        d="M289.835,3143.792c-1.561-1.647-11.163-1.877-13.238.006l-.713,1.969c4.381.5,8.314.37,15.159-.06Z"
                        transform="translate(-260.404 -3117.021)" fill="#f8c471" />
                </g>
                <g transform="translate(0 49.356)">
                    <path
                        d="M232.054,3274.881h-48.9l-2.232-28.035c-.254-3.2,1.717-5.977,4.24-5.977H225.5c2.187,0,4.019,2.109,4.24,4.881Z"
                        transform="translate(-180.9 -3240.869)" fill="#029390" />
                    <path
                        d="M664.861,3247.026l-2.957,27.855h-48.9l3.11-29.311c.286-2.693,2.09-4.7,4.222-4.7h40.3C663.218,3240.869,665.207,3243.768,664.861,3247.026Z"
                        transform="translate(-529.285 -3240.869)" fill="#029390" />
                </g>
            </g>
            <g transform="translate(122.114 6.304)">
                <g transform="translate(0 5.814)">
                    <path
                        d="M811.163,3024.346c0,.848.33,1.536.741,1.536h48.863c.411,0,.741-.687.741-1.536v-39.407c0-.846-.33-1.533-.741-1.533H811.9c-.411,0-.741.687-.741,1.533Z"
                        transform="translate(-811.163 -2982.451)" fill="#40558e" />
                    <path
                        d="M811.339,3015.265c.031.067,4.381,5.727,4.381,5.767l44.742-.088c.405,0,.734-.69.734-1.538V2980c0-.848-.329-1.53-.734-1.53H812.07c-.405,0-.731.682-.731,1.53Z"
                        transform="translate(-811.305 -2978.474)" fill="#fff" />
                    <g transform="translate(0.021 36.791)">
                        <path d="M814.914,3168.361h-3.641l4.393,5.767v-4.9A.815.815,0,0,0,814.914,3168.361Z"
                            transform="translate(-811.273 -3168.361)" fill="#2d356b" />
                    </g>
                </g>
                <path d="M811.244,2977.636v-11.313c0-.566.334-1.026.743-1.026h48.846c.41,0,.74.46.74,1.026v11.313Z"
                    transform="translate(-811.228 -2962.036)" fill="#2d356b" />
                <g transform="translate(9.146)">
                    <g transform="translate(27.582)">
                        <path
                            d="M1000.728,2953.871c0,.613.969,1.117,2.16,1.117h.146c1.2,0,2.164-.5,2.164-1.117v-4.291c0-.611-.969-1.115-2.164-1.115h-.146c-1.191,0-2.16.5-2.16,1.115Z"
                            transform="translate(-1000.728 -2948.465)" fill="#fff4ba" />
                    </g>
                    <g transform="translate(13.787)">
                        <path
                            d="M929.526,2953.871c0,.613.977,1.117,2.156,1.117h.163c1.183,0,2.16-.5,2.16-1.117v-4.291c0-.611-.977-1.115-2.16-1.115h-.163c-1.178,0-2.156.5-2.156,1.115Z"
                            transform="translate(-929.526 -2948.465)" fill="#fff4ba" />
                    </g>
                    <path
                        d="M858.369,2953.871c0,.613.969,1.117,2.156,1.117h.158c1.183,0,2.156-.5,2.156-1.117v-4.291c0-.611-.973-1.115-2.156-1.115h-.158c-1.187,0-2.156.5-2.156,1.115Z"
                        transform="translate(-858.369 -2948.465)" fill="#fff4ba" />
                </g>
                <rect width="37.509" height="20.839" transform="translate(6.418 21.706)" fill="#ebebeb" />
            </g><text transform="translate(133.381 43.539)" fill="#9999a5" font-size="16"
                font-family="TrebuchetMS-Bold, Trebuchet MS" font-weight="700">
                <tspan x="0" y="0">5th</tspan>
            </text>
        </g>
        <g transform="translate(49.5 2722.25)">
            <g transform="translate(87 -170)">
                <rect width="98" height="38" rx="3" transform="translate(-87 170)" fill="#ffb2b0" /><text
                    transform="translate(-71 195)" fill="#141821" font-size="16"
                    font-family="NotoSans-Bold, Noto Sans, Arial, sans-serif" font-weight="700">
                    <tspan x="0" y="0">Meeting</tspan>
                </text>
            </g>
        </g>
    </g>
</svg>