<svg xmlns="http://www.w3.org/2000/svg" width="536.916" height="382.591" viewBox="0 0 536.916 382.591"><g transform="translate(-31.542 -3087.331)"><g transform="translate(31.542 3091.968)"><g transform="translate(0 0)"><g transform="translate(0.504)"><g transform="translate(0.116)"><path d="M1106.711,3578.526h.635v-13.26H571.05v277.113h535.655v-27.835h.005Z" transform="translate(-571.05 -3564.879)" fill="#fff"/><rect width="535.676" height="0.775" transform="translate(0 277.113)" fill="#a0bacb"/><rect width="536.296" height="0.775" fill="#7b88ac"/></g><g transform="translate(0 56.623)"><path d="M655.889,3708.737v-.2h-7.405v.2H571.935v168.948h157.2V3708.737Zm66.739,5.425v37.151H655.889v-37.151Zm-74.145,43.562V3828.7h-70.04v-70.976Zm7.405,70.976v-70.976h66.739V3828.7Zm-7.405-114.537v37.151h-70.04v-37.151Zm-70.04,120.948h70.04v37.151h-70.04Zm77.445,37.151v-37.151h66.739v37.151Z" transform="translate(-571.47 -3708.147)" fill="#ebebeb"/><path d="M728.889,3877.48H570.758V3707.758h76.549v-.2h8.335v.2h73.247Zm-157.2-.775H727.96V3708.532H654.712v-.2h-6.476v.2H571.688Zm150.693-4.65H654.712V3834.13h67.669Zm-66.739-.775h65.809v-36.375H655.642Zm-7.406.775h-70.97V3834.13h70.97Zm-70.04-.775h69.11v-36.375H578.2Zm144.185-42.787H654.712v-71.75h67.669Zm-66.739-.775h65.809v-70.2H655.642Zm-7.406.775h-70.97v-71.75h70.97Zm-70.04-.775h69.11v-70.2H578.2Zm144.185-76.611H654.712v-37.926h67.669Zm-66.739-.775h65.809v-36.376H655.642Zm-7.406.775h-70.97v-37.926h70.97Zm-70.04-.775h69.11v-36.376H578.2Z" transform="translate(-570.758 -3707.554)" fill="#ebebeb"/></g><g transform="translate(217.729 55.623)"><path d="M1175.123,3706.208v-.2h-6.792v.2h-70.212v168.948h144.189V3706.208Zm61.215,5.425v37.15h-61.215v-37.15Zm-68.007,43.561v70.975h-64.243v-70.975Zm6.792,70.975v-70.975h61.215v70.975Zm-6.792-114.536v37.15h-64.243v-37.15Zm-64.243,120.948h64.243v37.15h-64.243Zm71.035,37.15v-37.15h61.215v37.15Z" transform="translate(-1097.692 -3705.618)" fill="#ebebeb"/><path d="M1242.081,3874.951H1097.039V3705.228h70.212v-.2h7.645v.2h67.185Zm-144.189-.775h143.336V3706h-67.185v-.2H1168.1v.2h-70.212Zm138.219-4.65h-62.068V3831.6h62.068Zm-61.215-.775h60.362v-36.375H1174.9Zm-6.792.775h-65.1V3831.6h65.1Zm-64.243-.775h63.39v-36.375h-63.39Zm132.25-42.786h-62.068v-71.751h62.068Zm-61.215-.775h60.362v-70.2H1174.9Zm-6.792.775h-65.1v-71.751h65.1Zm-64.243-.775h63.39v-70.2h-63.39Zm132.25-76.612h-62.068v-37.925h62.068Zm-61.215-.775h60.362v-36.375H1174.9Zm-6.792.775h-65.1v-37.925h65.1Zm-64.243-.775h63.39v-36.375h-63.39Z" transform="translate(-1097.039 -3705.025)" fill="#ebebeb"/></g><g transform="translate(411.709 56.623)"><path d="M1693.011,3872.26h-39.67v-37.151h39.67v-6.41h-39.67v-70.976h39.67v-6.411h-39.67v-37.151h39.67v-5.425h-39.67v-.2h-7.405v.2h-76.548v168.948h123.623Zm-47.075,0H1575.9v-37.151h70.04Zm0-43.561H1575.9v-70.976h70.04Zm0-77.386H1575.9v-37.151h70.04Z" transform="translate(-1568.924 -3708.147)" fill="#ebebeb"/><path d="M1780.632,4065.743h40.134v-.775h-39.2v-36.375h39.2v-.775h-40.134Z" transform="translate(-1696.679 -3901.241)" fill="#ebebeb"/><path d="M1780.632,3903.764h40.134v-.775h-39.2v-70.2h39.2v-.775h-40.134Z" transform="translate(-1696.679 -3782.824)" fill="#ebebeb"/><path d="M1780.632,3759.719h40.134v-.775h-39.2v-36.375h39.2v-.775h-40.134Z" transform="translate(-1696.679 -3716.166)" fill="#ebebeb"/><path d="M1655.649,3721.794H1584.68v37.925h70.969Zm-.93,37.151h-69.11v-36.375h69.11Z" transform="translate(-1578.172 -3716.166)" fill="#ebebeb"/><path d="M1692.3,3876.705H1569.142V3708.532h76.548v-.2h6.476v.2H1692.3v-.775h-39.2v-.2h-8.335v.2h-76.548V3877.48H1692.3Z" transform="translate(-1568.212 -3707.554)" fill="#ebebeb"/><path d="M1584.68,4065.742h70.969v-37.925H1584.68Zm.93-37.15h69.11v36.375h-69.11Z" transform="translate(-1578.172 -3901.241)" fill="#ebebeb"/><path d="M1655.649,3832.013H1584.68v71.75h70.969Zm-.93,70.976h-69.11v-70.2h69.11Z" transform="translate(-1578.172 -3782.824)" fill="#ebebeb"/></g></g><g transform="translate(0 244.139)"><path d="M1105.778,4182.841H570.123v95.078h-.641v38.408h536.29V4186.892h.005Z" transform="translate(-569.482 -4182.512)" fill="#f9f9f9"/><rect width="534.596" height="0.556" transform="translate(1.853 133.05)" fill="#f9f9f9"/><rect width="535.681" height="0.555" transform="translate(0.62)" fill="#f9f9f9"/></g><g transform="translate(31.458 4.886)"><path d="M1466.916,3659.554v-82.906h-1.986v82.906c-6.193.422-11.064,4.736-11.064,10.007,0,5.55,5.4,10.049,12.057,10.049s12.056-4.5,12.056-10.049C1477.979,3664.291,1473.109,3659.976,1466.916,3659.554Z" transform="translate(-1122.241 -3576.648)" fill="#ffb2b0"/><path d="M662.128,3676.123v-82.906h-1.986v82.906c-6.193.422-11.063,4.737-11.063,10.007,0,5.55,5.4,10.049,12.056,10.049s12.056-4.5,12.056-10.049C673.191,3680.861,668.32,3676.545,662.128,3676.123Z" transform="translate(-649.078 -3586.669)" fill="#ffb2b0"/><path d="M944.889,3670.153v-60.275h-1.444v60.275c-4.5.307-8.043,3.444-8.043,7.276,0,4.035,3.925,7.306,8.765,7.306s8.766-3.271,8.766-7.306C952.933,3673.6,949.392,3670.46,944.889,3670.153Z" transform="translate(-817.494 -3596.745)" fill="#ffb2b0"/><path d="M1713.827,3670.153v-60.275h-1.444v60.275c-4.5.307-8.043,3.444-8.043,7.276,0,4.035,3.924,7.306,8.765,7.306s8.766-3.271,8.766-7.306C1721.871,3673.6,1718.33,3670.46,1713.827,3670.153Z" transform="translate(-1269.784 -3596.745)" fill="#ffb2b0"/></g></g></g><g transform="translate(32.163 3089.447)"><rect width="75.54" height="44.564" transform="translate(75.54 46.564) rotate(-180)" fill="#ebebeb"/></g><text transform="translate(46.352 3123.331)" fill="#2d356b" font-size="38" font-family="TrebuchetMS-Bold, Trebuchet MS" font-weight="700"><tspan x="0" y="0">3</tspan></text><g transform="translate(128.632 3090.678)"><g transform="translate(0 5)"><path d="M1076.312,3698.29c11.669,19.993,2.557,41.4-22.31,49.581-26.414,8.69-60.82-.762-77.89-21.125-13.284,11-33.583,19.406-56.9,22.273-42.977,5.285-79.912-10.256-82.5-34.713a27.965,27.965,0,0,1,2.453-14.4c-36.318,9.055-57.746-1.251-66.955-28.924-6.8-20.42,12.112-56.082,64.562-62.531,6.688-.823,13.243-1.34,19.6-1.575-.143-.676-2.041-4.522.643-11.183,11.667-28.951,53.3-33.2,96.8-26.855,36.635,5.34,55.019,24.191,63.591,41.2,0,0,103.877-31.617,122.929,35.527C1140.34,3645.563,1161.487,3704.783,1076.312,3698.29Z" transform="translate(-770.884 -3566.286)" fill="#fff" stroke="#ebebeb" stroke-miterlimit="10" stroke-width="1"/><ellipse cx="11.006" cy="11.914" rx="11.006" ry="11.914" transform="translate(50.321 129.229) rotate(-2.698)" fill="#fff" stroke="#ebebeb" stroke-miterlimit="10" stroke-width="1"/><ellipse cx="6.522" cy="7.06" rx="6.522" ry="7.06" transform="translate(44.972 146.457) rotate(-2.698)" fill="#fff" stroke="#ebebeb" stroke-miterlimit="10" stroke-width="1"/><ellipse cx="5.579" cy="6.039" rx="5.579" ry="6.039" transform="translate(31.349 154.653) rotate(-2.698)" fill="#fff" stroke="#ebebeb" stroke-miterlimit="10" stroke-width="1"/></g></g><g transform="translate(52.958 3224.877)"><g transform="translate(34.01 0.133)"><g transform="translate(5.989 101.678)"><path d="M796.607,4163.08l9.753,1.834c8.576,30.635,6.47,67.155,25.635,129.7,0,0-1.831.8-2.095,0-15.945-48.364-24.665-86.283-27.759-91.494C795.265,4191.546,786.669,4181.7,796.607,4163.08Z" transform="translate(-765.527 -4158.354)" fill="#ffd8a3"/><path d="M754.265,4158.24c-12,22.385-3.015,20.649-2.626,32.227,1.125,33.385-20.16,50.367-26.768,101.433,0,0,2.616-.134,2.691-.872,4.1-40.739,40.2-79.719,41.69-117.542.1-2.439.2-9.725-2.642-12.332C762.262,4157.167,754.265,4158.24,754.265,4158.24Z" transform="translate(-724.872 -4155.349)" fill="#f7c371"/><path d="M732.865,4493.321h-7.844s-.379-2.227,1.37-2.583C727.494,4490.513,729.443,4491.032,732.865,4493.321Z" transform="translate(-724.942 -4356.486)" fill="#7b88ac"/><path d="M894.62,4493.807h-6.895s-.334-2.225,1.205-2.582C889.9,4491,891.611,4491.518,894.62,4493.807Z" transform="translate(-823.343 -4356.78)" fill="#7b88ac"/><path d="M761.746,4230.139s32.926,5.294,40.471,3.177c0,0-7.2-74.821-12.347-79.409s-14.405-2.118-14.405-2.118a29.111,29.111,0,0,0-4.8,31.058C777.523,4199.081,761.746,4230.139,761.746,4230.139Z" transform="translate(-747.172 -4151.125)" fill="#9ea9fc"/></g><g transform="translate(23.846 47.399)"><g transform="translate(30.411 20.201)"><path d="M847.994,4082.5c2.054-1.375,8.127-.943,7.674-3.052-.405-1.889-3.85-4.322-8.667,1.414Z" transform="translate(-847.001 -4072.389)" fill="#f8c471"/><path d="M854.605,4077.077c.5,3.379,4.619,2.75,5.868,2.252,1.373-.548,1.693-3.22.9-4.085S854.415,4075.785,854.605,4077.077Z" transform="translate(-851.597 -4070.994)" fill="#f8c471"/><path d="M859.379,4069.3c1.108-1.682,1.567-4.137.835-4.378-.825-.273-.822,1.911-2.185,3.178-1.473,1.375-2.326,2.317-1.827,2.913S858.271,4070.985,859.379,4069.3Z" transform="translate(-852.479 -4064.898)" fill="#f8c471"/><path d="M867.414,4072.764c1.6-.647,2.286-1.353,2.066-1.757s-1.108.02-2.707.665-3.792,1.068-3.572,1.473S865.814,4073.406,867.414,4072.764Z" transform="translate(-856.789 -4068.497)" fill="#f8c471"/><path d="M870.489,4077.7c1.731-.318,3.086-1.362,2.954-1.795s-1.65.239-3.381.557-2.836.619-2.7,1.051S868.758,4078.019,870.489,4077.7Z" transform="translate(-859.307 -4071.47)" fill="#f8c471"/><path d="M867.772,4083.089c1.715-.389,2.585-.993,2.441-1.421s-1.226.041-2.94.428-2.911.684-2.767,1.114S866.056,4083.477,867.772,4083.089Z" transform="translate(-857.581 -4074.938)" fill="#f8c471"/></g><path d="M790.036,4014.011c-5.53-3.383-19.977,32.642-19.981,34.021,0,0,2.842,2.221,4.032,1.11C777.165,4046.269,792.5,4015.522,790.036,4014.011Z" transform="translate(-770.055 -4013.787)" fill="#9ea9fc"/><path d="M801.682,4085.135c1.344,4.913-26.779,7.225-27.821,6.919,0,0-2.2-3.187-1.1-3.834C775.607,4086.549,801.082,4082.94,801.682,4085.135Z" transform="translate(-771.508 -4056.52)" fill="#9ea9fc"/><path d="M840.15,4083.718l-.81-1.33-5.893-.575a12.106,12.106,0,0,0,1.454,3.013C835.44,4085.243,840.15,4083.718,840.15,4083.718Z" transform="translate(-808.393 -4054.927)" fill="#eaeaea"/><path d="M842.913,4086.351l.2,1.555-4.291,4.087s-.917-2.625-.754-3.286S842.913,4086.351,842.913,4086.351Z" transform="translate(-811.176 -4057.672)" fill="#eaeaea"/></g><g transform="translate(0 1.391)"><path d="M755.813,3958.014c6.348-5.307-2.933-7.264-2.148-12.245s1.767-3.318,3.034-9.729-.283-8.941-.131-12.716,3.124-9.766,1.32-14.689-3.233-3.406-4.836-7.336-3.7.075-6.958,1.525-6.177-7.881-11.934-4.832-5.76,10.088-7.7,13.889-7.527,4.981-8.9,11.938,2.648,5.661.527,10.378-6.929,3.958-8.3,10.917c0,0-1.184,7,6.7,7.221s5.111,4.244,13.848,2.165,5.312,5.235,11.532,2.849S750.143,3962.754,755.813,3958.014Z" transform="translate(-709.719 -3897.377)" fill="#2d356b"/></g><g transform="translate(26.415 24.325)"><path d="M789.617,3955.4l7.267,4.566,1.3,15.715-5.839-2.112Z" transform="translate(-784.455 -3955.404)" fill="#f7c371"/><path d="M804.091,4074.539c-4.67-3.06-15.513-9.823-27.536-1.449,3.6-10.561,6.862-20.943,6.978-29.63.216-16.1-13.471-35.017-2.146-42.3,12.024-7.73,26.3,27.966,26.3,27.966C795.664,4035.891,798.991,4055.281,804.091,4074.539Z" transform="translate(-776.555 -3982.415)" fill="#495bd9"/><path d="M790.875,3998.8l2.112-.248,9.441,8.882-2.8,2.361S793.3,4003.329,790.875,3998.8Z" transform="translate(-785.215 -3981.496)" fill="#fff"/><path d="M810.018,4009.793c.046-.032.087-.064.132-.1-2.492-4.972-7.937-12.585-13.2-12.1C801.741,4001.872,810.018,4009.793,810.018,4009.793Z" transform="translate(-788.892 -3980.911)" fill="#f7c371"/></g><g transform="translate(20.406)"><path d="M778.384,3927.3c-3.749-1.448-11.388-3.466-14.541-9.666-4.1-8.06-2.392-12.618-.2-18.15,4.186-10.547,22.2-3.594,20.715-.511C782.4,3903.065,791.97,3932.544,778.384,3927.3Z" transform="translate(-761.351 -3893.858)" fill="#2d356b"/><path d="M801.08,3937.929c1.406.142,4.654-6.869,5.966-12.365.433-1.812-1.523-2.227-.767-8.482.444-3.672-.741-8.936-6.533-13.212-5.468-4.036-7.052,7.337-7.817,9.924-2.178,7.371-4.572,11.9-3.013,15.725C791.963,3937,799.6,3937.414,801.08,3937.929Z" transform="translate(-777.72 -3899.395)" fill="#ffd8a3"/><path d="M822.278,3966.108a.326.326,0,0,1,.328-.323.343.343,0,0,1,.244.4.325.325,0,0,1-.33.321A.341.341,0,0,1,822.278,3966.108Z" transform="translate(-798.196 -3937.357)" fill="#ffab00"/><path d="M822.621,3940.744c-.141-.984.3-1.85.972-1.936s1.343.642,1.484,1.625-.295,1.851-.973,1.937S822.762,3941.729,822.621,3940.744Z" transform="translate(-798.39 -3921.039)" fill="#2d356b"/><path d="M819.32,3940.7c.7-1.521,1.8-3.109,4.522-2.669A9.5,9.5,0,0,0,819.32,3940.7Z" transform="translate(-796.409 -3920.528)" fill="#2d356b"/><path d="M825.944,3977.049c.065-.225.689.658,1.02.721.939.176.547,1.356-.38,1.084C826.222,3978.747,825.876,3977.288,825.944,3977.049Z" transform="translate(-800.41 -3944.148)" fill="#f36973"/><path d="M824.814,3966.756c-.615-.32,3.838-1.13,2.906.259A6.839,6.839,0,0,1,824.814,3966.756Z" transform="translate(-799.697 -3937.626)" fill="#f36973"/><path d="M822.071,3927.224a5.792,5.792,0,0,0-7.311,2.922C816.89,3927.772,818.438,3926.961,822.071,3927.224Z" transform="translate(-793.652 -3913.821)" fill="#2d356b"/><path d="M833.416,3952.361l-2.242.446.482-5.564,2.843,4.283Z" transform="translate(-803.578 -3926.144)" fill="#ffd8a3"/><path d="M832.547,3962.666l2.038-3.27-1.627-.223Z" transform="translate(-804.409 -3933.359)" fill="#ffd8a3"/><path d="M825.351,3971.877a41.253,41.253,0,0,0,1.56-4.715l-3.929-.4S823.342,3971,825.351,3971.877Z" transform="translate(-798.624 -3937.95)" fill="#ffab00"/><path d="M824.642,3969.522l2.238.226c.191-.593.374-1.214.551-1.861l-3.211-.324Z" transform="translate(-799.372 -3938.433)" fill="#fff"/><path d="M782.3,3944.237c.262-1.7.969-2.909-.324-3.1s-2.559,1.028-2.82,2.735.579,3.248,1.875,3.445S782.042,3945.944,782.3,3944.237Z" transform="translate(-772.091 -3922.435)" fill="#f7c371"/><path d="M803.539,3903.48c-4.756,5.819-12.907,14.207-12.064,23.268-2.7-9.829.2-22.284,7-26.845C799.042,3900.918,804.69,3901.2,803.539,3903.48Z" transform="translate(-778.963 -3897.513)" fill="#2d356b"/></g><g transform="translate(19.313 46.997)"><g transform="translate(32.632 17.258)"><path d="M842.752,4078.9c1.909-2.152,8.876-3.454,7.745-5.694-1.012-2.008-5.607-3.736-9.345,4.142Z" transform="translate(-841.151 -4065.554)" fill="#ffd9a4"/><path d="M847.885,4070.862c1.562,3.658,6.011,1.739,7.272.811,1.386-1.021.96-4.124-.193-4.864S847.291,4069.463,847.885,4070.862Z" transform="translate(-845.201 -4062.646)" fill="#ffd9a4"/><path d="M852.614,4061.613c.754-2.22.548-5.12-.347-5.175-1.01-.065-.364,2.395-1.526,4.222-1.254,1.981-1.938,3.293-1.2,3.817S851.861,4063.837,852.614,4061.613Z" transform="translate(-846.041 -4056.437)" fill="#ffd9a4"/><path d="M861.15,4062.263c1.611-1.2,2.177-2.2,1.81-2.587s-1.243.349-2.854,1.545-3.956,2.318-3.589,2.709S859.537,4063.457,861.15,4062.263Z" transform="translate(-850.421 -4058.332)" fill="#ffd9a4"/><path d="M865.807,4066.991c1.856-.867,3.075-2.442,2.8-2.89s-1.789.753-3.644,1.622-3.012,1.53-2.734,1.978S863.952,4067.858,865.807,4066.991Z" transform="translate(-853.873 -4061.014)" fill="#ffd9a4"/><path d="M864.317,4074.044c1.818-.941,2.62-1.877,2.332-2.317s-1.369.4-3.185,1.347-3.078,1.626-2.789,2.067S862.5,4074.985,864.317,4074.044Z" transform="translate(-852.934 -4065.611)" fill="#ffd9a4"/></g><path d="M771.1,4012.847c-7.223-2.185-12.9,42.639-12.5,44.194,0,0,3.854,1.666,4.868.064C766.093,4052.964,774.326,4013.823,771.1,4012.847Z" transform="translate(-758.584 -4012.769)" fill="#9ea9fc"/><path d="M791.679,4085.823c2.959,5.139-28.035,16.014-29.3,15.976,0,0-3.41-2.942-2.363-3.994C762.728,4095.085,790.357,4083.528,791.679,4085.823Z" transform="translate(-759.331 -4056.768)" fill="#9ea9fc"/><path d="M832.665,4083.678l-1.3-1.26-6.806,1.085s1.8,2.656,2.524,2.966S832.665,4083.678,832.665,4083.678Z" transform="translate(-798.482 -4054.891)" fill="#eaeaea"/><path d="M837.645,4085.3l.683,1.691-3.63,5.865s-1.8-2.687-1.815-3.479S837.645,4085.3,837.645,4085.3Z" transform="translate(-803.518 -4056.636)" fill="#eaeaea"/></g></g><rect width="45.687" height="23.9" rx="6.672" transform="translate(51 80)" fill="#fff" stroke="#231f20" stroke-miterlimit="10" stroke-width="0.25"/><text transform="translate(60.843 95.45)" fill="#2d356b" font-size="10" font-family="TrebuchetMS-Bold, Trebuchet MS" font-weight="700"><tspan x="0" y="0">Akiko</tspan></text></g><g transform="translate(-979.812 -716.044)"><g transform="translate(1399.622 4003.562)"><g transform="translate(0)"><path d="M1523.311,4279.687l-1.905-.2,12.1-62.348,4.025.662,44.5,5.278-1.217,11.428-.115-.012.864,51.732-1.906-.2-5.5-52.225-35.319-3.76Z" transform="translate(-1521.405 -4153.606)" fill="#7b88ac"/><path d="M1660.024,4064.461c2.652-7.573,12.9-4.918,21.958-3.037,6.514,1.346,7.829,4.2,6.789,10.778l-13.972,56.609c-1.021,6.566-6.88,10.364-13,8.421s-18.546-7.519-17.352-14.067Z" transform="translate(-1594.848 -4059.396)" fill="#7b88ac"/><path d="M1542.259,4303.066l-1.565-.167,12.135-57.38-8.979-10.032,29.185,2.91,34.38,3.293-1.147,9.518.635,59.094-1.269-.135-5.684-59.631-40.522-4.314Z" transform="translate(-1532.925 -4164.567)" fill="#7b88ac"/><path d="M1537.153,4213.628a2.36,2.36,0,0,1,2.213-3.643l35.477,3.631a30.228,30.228,0,0,1,9.245,2.768l19.236,8.757c.047.021.1.045.142.069,2.29,1.21,1.98,1.992-.719,1.7l-60.14-6.547a2.358,2.358,0,0,1-1.717-1.05Z" transform="translate(-1530.576 -4149.329)" fill="#7b88ac"/></g></g><g transform="translate(1386.978 3965.912)"><g transform="translate(91.044 14.443)"><rect width="44.928" height="23.684" rx="6.672" transform="translate(0 -9)" fill="#fff" stroke="#231f20" stroke-miterlimit="10" stroke-width="0.25"/><text transform="translate(9.464 6.342)" fill="#2d356b" font-size="10" font-family="TrebuchetMS-Bold, Trebuchet MS" font-weight="700"><tspan x="0" y="0">Steve</tspan></text></g><g transform="translate(37.748 29.128)"><path d="M1629.3,4078.5l1.219.451.367,3.1-2.826,1.074Z" transform="translate(-1610.209 -4062.282)" fill="#eaeaea"/><path d="M1633.676,4042.3l11.64-4.064.141,18.646-16.641,4.515Z" transform="translate(-1610.661 -4038.235)" fill="#f7c371"/><path d="M1589.507,4181.671l21.725,7.131.624,32.824-19.374.487Z" transform="translate(-1587.184 -4123.903)" fill="#eaeaea"/><path d="M1627.126,4175.029c-13.922-.616-30.016-6.072-36.87-22.17-3.708-8.711-3.419-22.963-3.409-37.089.014-18.883,21.484-43.263,38.152-37.382,23.167,8.174,7.326,38.511,4.442,46.537C1620.991,4148.44,1626.667,4169.752,1627.126,4175.029Z" transform="translate(-1585.589 -4061.683)" fill="#03b4e9"/><path d="M1627,4193.024c.305-6.195,3.5-25.177,15.457-46.122,2.319-4.062,5.09-16.273,7.693-26.464.972-3.805,7.383,3.667,8.185,13.066.5,5.83-3.8,13.391-4.907,16.463-8.45,23.516-2.774,44.827-2.315,50.1C1643.066,4199.716,1634.3,4197.736,1627,4193.024Z" transform="translate(-1609.576 -4086.726)" fill="#0080af"/><path d="M1586.694,4133.83c2.167-24.316,21.824-47.58,38.932-53.742,2.874-1.035.413-3.234-7.693-2.8C1610.681,4077.715,1581.136,4091.042,1586.694,4133.83Z" transform="translate(-1585.09 -4061.529)" fill="#219ecc"/><path d="M1587.947,4118c3.538-20.373,11.6-30.838,29.865-40.623-7.072.412-35.423,8.9-31.673,49C1586.234,4127.4,1587.335,4121.522,1587.947,4118Z" transform="translate(-1584.968 -4061.613)" fill="#fff"/><path d="M1593.6,4248.2c-.083-.86.332-1.6.926-1.662s1.144.593,1.226,1.454-.331,1.6-.926,1.662S1593.681,4249.065,1593.6,4248.2Z" transform="translate(-1589.62 -4162.646)" fill="#0080af"/><path d="M1591.147,4222.878c-.083-.86.331-1.6.926-1.663s1.144.594,1.226,1.454-.33,1.605-.925,1.662S1591.231,4223.739,1591.147,4222.878Z" transform="translate(-1588.157 -4147.519)" fill="#0080af"/><path d="M1632.709,4082.862l-4.24,1.29,1.634-4.5.811-.4Z" transform="translate(-1610.454 -4062.732)" fill="#ffd9a4"/><path d="M1584.678,4135.676l1.623-8.216s-2.747-25.927,16.38-38.153l-.2-.66C1586.737,4099.194,1581.355,4118.159,1584.678,4135.676Z" transform="translate(-1583.738 -4068.344)" fill="#ffd9a4"/><path d="M1631.138,4072.892l16.625-3.78,1.969,3.379-15.855,5.758Z" transform="translate(-1612.048 -4056.676)" fill="#fff"/></g><g transform="translate(0 57.268)"><path d="M1643.706,4158.852c3.234,2.791,22.3-45.731,17.314-50.745,0,0-19.905-.249-26.774,11.526C1634.245,4119.633,1631.891,4148.655,1643.706,4158.852Z" transform="translate(-1576.041 -4108.106)" fill="#03b4e9"/><g transform="translate(0 35.269)"><path d="M1525.609,4212.962c-3.741-.586-11.906,3.926-12.634.7-.654-2.886,2.566-8.489,12.959-3.62Z" transform="translate(-1503.677 -4203.114)" fill="#ffd9a4"/><path d="M1515.24,4208.292c1.477,5.022-4.649,6.8-6.706,6.913-2.262.124-4.429-3.384-3.878-5.1S1514.673,4206.373,1515.24,4208.292Z" transform="translate(-1498.706 -4202.745)" fill="#ffd9a4"/><path d="M1508.753,4201.394c-2.624-1.623-4.844-4.74-3.982-5.547.971-.913,2.375,2.126,5.086,3.009,2.933.962,4.726,1.722,4.417,2.873S1511.379,4203.021,1508.753,4201.394Z" transform="translate(-1498.713 -4195.678)" fill="#ffd9a4"/><path d="M1495.927,4211.712c-2.64.131-4.05-.407-4-1.111s1.555-.687,4.193-.821,5.959-.959,5.914-.255S1498.565,4211.574,1495.927,4211.712Z" transform="translate(-1491.152 -4203.78)" fill="#ffd9a4"/><path d="M1495.276,4219.08c-2.612.673-5.168.1-5.263-.591s2.448-.733,5.059-1.4,4.34-.969,4.434-.281S1497.886,4218.406,1495.276,4219.08Z" transform="translate(-1490.01 -4208.06)" fill="#ffd9a4"/><path d="M1503.186,4224.65c-2.635.567-4.233.287-4.309-.4s1.73-.734,4.363-1.3,4.487-.927,4.564-.237S1505.822,4224.083,1503.186,4224.65Z" transform="translate(-1495.304 -4211.599)" fill="#ffd9a4"/></g><path d="M1642.852,4170.7c-14.646-8-9.579-35.378-9.579-35.378.591-.911.594-.945.594-.945C1631.925,4155.028,1643.461,4171.036,1642.852,4170.7Z" transform="translate(-1575.068 -4123.798)" fill="#0080af"/><path d="M1531.688,4212.216l5.6,2.061.913-8.92-5.742,1.141Z" transform="translate(-1514.902 -4166.19)" fill="#eaeaea"/><path d="M1587.731,4209.057s-15.674,2.67-47.408-2.909c0,0-1.651-3.169,1.126-8.756,0,0,26.783-7.765,43.006-4.587C1584.456,4192.8,1591.826,4204.333,1587.731,4209.057Z" transform="translate(-1519.769 -4158.236)" fill="#03b4e9"/><path d="M1551.063,4212.624a1.261,1.261,0,1,1,1.384-1.383A1.4,1.4,0,0,1,1551.063,4212.624Z" transform="translate(-1525.495 -4169.057)" fill="#0080af"/><path d="M1543.81,4197.043c29.24-7.788,40.149-5.158,40.149-5.158.917,2.329,1.381,2.489,1.381,2.489A351.484,351.484,0,0,0,1543.81,4197.043Z" transform="translate(-1522.129 -4157.888)" fill="#0080af"/></g><g transform="translate(49.632)"><path d="M1645.862,3996.97c8.2-9.516,7.717-25.414,7.335-25.976-4.075-6-15.8-5.656-21.739-4.142-5,1.276-8.959,3.981-6.541,7.906.835,1.356,4.839-1.621,6.047-1.444,2.283.336,3.214,31.825,3.214,31.825Z" transform="translate(-1619.78 -3965.912)" fill="#2d356b"/><g transform="translate(0 7.207)"><path d="M1621.29,4043.531l-1.143-2.013,1.616-.959Z" transform="translate(-1617.367 -4017.702)" fill="#ffd8a3"/><path d="M1640.424,4011.456c-1.008,2.646-9.37,8.147-17.516,7.579-.658-10.632.168-28.134,2.219-31.072,2.017-2.891,9.881-4.847,10.819-3.927-2.939,3.334,1.375,14.8,3.018,15.884C1642.965,4002.56,1641.476,4008.695,1640.424,4011.456Z" transform="translate(-1618.884 -3983.806)" fill="#ffd8a3"/><path d="M1613.245,4028.969a75.121,75.121,0,0,0,4.238-8.852c1.3-3.312.593,8.964.593,8.964S1614.42,4029.83,1613.245,4028.969Z" transform="translate(-1613.245 -4005.155)" fill="#ffd8a3"/><path d="M1620.526,4067.34c-.815-.37-1.2-1.161-.871-1.766a1.617,1.617,0,0,1,2.081-.426c.816.37,1.206,1.161.872,1.766A1.618,1.618,0,0,1,1620.526,4067.34Z" transform="translate(-1617.002 -4032.276)" fill="#ffd8a3"/><path d="M1621.16,4057.178c-.023-.215.223-.417.549-.452s.608.112.631.327-.223.417-.548.452S1621.183,4057.393,1621.16,4057.178Z" transform="translate(-1617.971 -4027.355)" fill="#ffd8a3"/><path d="M1662.484,4021.059c.5-1.92,2.026-3.248,3.4-2.966s2.086,2.069,1.585,3.989-3.156,2.982-4.534,2.7S1661.982,4022.979,1662.484,4021.059Z" transform="translate(-1642.368 -4004.262)" fill="#ffd8a3"/></g><path d="M1622.447,4046.123l.178,4.334s1.211-.1,1.486-.631a15.162,15.162,0,0,0,.971-4.332Z" transform="translate(-1618.741 -4013.443)" fill="#ffab00"/><path d="M1622.634,4046.579l.159,3.85s.894-.059,1.092-.3a10.794,10.794,0,0,0,.93-4.1Z" transform="translate(-1618.853 -4013.764)" fill="#fff"/><path d="M1625.825,4012.588a1.05,1.05,0,0,1,.284-.688c.447-.446,4.086.768,4.022,1.531l-.041.479c-.046.551-1.125-.059-2.217-.235-1.045-.168-2.108.119-2.082-.4Z" transform="translate(-1620.738 -3993.322)" fill="#2d356b"/><path d="M1628.992,4022.474c-.006-.642.342-1.2.778-1.245s.795.436.8,1.078-.341,1.2-.777,1.245S1629,4023.115,1628.992,4022.474Z" transform="translate(-1622.65 -3998.948)" fill="#2d356b"/><path d="M1628.763,4045.249c-.016-.149.056-.279.162-.29s.2.1.218.25-.056.278-.161.29S1628.779,4045.4,1628.763,4045.249Z" transform="translate(-1622.512 -4013.123)" fill="#ffab00"/><g transform="translate(4.343 1.749)"><path d="M1654.921,3988.369c-3.536.215,1.83,16.259.026,17.389s-.049,2.457.9,2.108c2.168-.8,2.591-5.312,2.768-8.187C1658.811,3996.478,1655.22,3988.351,1654.921,3988.369Z" transform="translate(-1641.741 -3981.073)" fill="#2d356b"/><path d="M1624.112,3976.588c-.542-2.554,1.589-5.171,4.76-5.844s12.423-1.027,12.965,1.525-7.83,7.05-11,7.722S1624.654,3979.14,1624.112,3976.588Z" transform="translate(-1624.028 -3970.255)" fill="#2d356b"/></g></g></g><g transform="translate(1379.809 3991.367)"><g transform="translate(11.583)"><path d="M1502.806,4057.226s-.958-6.452-1.392-7.871c-.561-1.833-.836-4.564.707-6.171s1.776-5.389,1.776-5.968.579-9.257,6.943-7.971c0,0,2.636.644,1.35,5.272,0,0-1.35,2.764.353,4.5a7.048,7.048,0,0,1,0,9.578c-3.182,3.857-2.276,5.269-1.767,6.75,2.318,6.751-2.615,12.95-3.15,14.6s-1.178,4.369-.641,5.932l-1.871.035Z" transform="translate(-1500.97 -4029.115)" fill="#ebebeb"/></g><g transform="translate(16.21 6.533)"><path d="M1512.969,4085.85a.325.325,0,0,0,.057-.006.284.284,0,0,0,.22-.334c-.715-3.482.54-9.688.553-9.751.692-2.642.893-6.017-.254-14.622a33.046,33.046,0,0,1,.349-11.29,18.911,18.911,0,0,1,1.308-4.1.283.283,0,1,0-.5-.256,19,19,0,0,0-1.351,4.212,33.589,33.589,0,0,0-.363,11.509c1.131,8.486.924,11.9.264,14.419-.056.274-1.295,6.4-.556,9.993A.283.283,0,0,0,1512.969,4085.85Z" transform="translate(-1512.458 -4045.335)" fill="#fff"/></g><g transform="translate(17.746 24.792)"><path d="M1518.487,4112.816s0-1.521,3.122-2.962a5.218,5.218,0,0,0,3.123-3.763c.8-3.042,3.042-2.241,4.483-1.36s4.715,0,4.719-4.564a3.029,3.029,0,0,1,1.117-3.683c2.09-1.281,2.891-5.857-1.593-5.811s-8.707,2.26-13.049,8.692c-6.036,8.94-3.686,13.451-3.686,13.451Z" transform="translate(-1516.272 -4090.674)" fill="#ebebeb"/></g><g transform="translate(18.279 27.998)"><path d="M1518.08,4117.854a.284.284,0,0,0,.269-.37,6.839,6.839,0,0,1-.017-2.986.335.335,0,0,0,.022-.058c2.421-9.138,14.36-15.21,14.48-15.271a.283.283,0,0,0-.253-.506c-.122.062-12.264,6.239-14.766,15.6a6.69,6.69,0,0,0,0,3.389A.277.277,0,0,0,1518.08,4117.854Z" transform="translate(-1517.596 -4098.634)" fill="#fff"/></g><g transform="translate(0 11.241)"><path d="M1485.6,4092.584a5.57,5.57,0,0,1-2.636-5.593c.643-3.729-2.7-4.564-3.471-4.693s-5.785-2.185-5.014-9.707c0,0,.257-4.821-.643-6.557s-3.15-6.943,0-8.549,5.335,1.285,6.493,4.242c0,0,.9,3.407,1.671,4.243s6.364,5.721,5.914,15.878l-1.095,10.735Z" transform="translate(-1472.209 -4057.026)" fill="#ebebeb"/></g><g transform="translate(4.489 17.154)"><path d="M1492.767,4101.636a.283.283,0,0,0,.283-.272c.325-8.646-3.425-19.922-5.575-23.179a57.994,57.994,0,0,1-3.58-6.314.283.283,0,1,0-.511.242,58.61,58.61,0,0,0,3.62,6.384c2.115,3.2,5.8,14.313,5.482,22.847a.283.283,0,0,0,.272.293Z" transform="translate(-1483.355 -4071.708)" fill="#fff"/></g><path d="M1505.179,4161.392h-12.122l-2.934-16.61h17.991Z" transform="translate(-1482.908 -4098.197)" fill="#ebebeb"/></g><g transform="translate(1317.5 4030.003)"><g transform="translate(0 40.369)"><rect width="194.719" height="5.845" fill="#40558d"/><rect width="180.888" height="105.028" transform="translate(7.174 2.254)" fill="#40558d"/><rect width="56.13" height="105.028" transform="translate(131.932 2.254)" fill="#7b87ab"/><rect width="194.719" height="7.607" transform="translate(0 2.254)" fill="#2d356b"/></g><g transform="translate(49.884)"><path d="M1495.4,4162.674H1450.24a2.793,2.793,0,0,1-2.744-2.271l-6.087-32.042a2.793,2.793,0,0,1,2.744-3.314h45.162a2.793,2.793,0,0,1,2.744,2.271l6.087,32.043A2.793,2.793,0,0,1,1495.4,4162.674Z" transform="translate(-1441.359 -4125.046)" fill="#cfd0d8"/><path d="M1563.864,4128.1a1.513,1.513,0,1,0-2.229,1.042l6.087,32.043a1.514,1.514,0,1,0,2.229-1.042Z" transform="translate(-1513.165 -4125.828)" fill="#ebebeb"/><path d="M1536.008,4221.654h-69.42a3.179,3.179,0,0,1-3.178-3.178h75.776A3.179,3.179,0,0,1,1536.008,4221.654Z" transform="translate(-1454.529 -4180.848)" fill="#9898a4"/><path d="M1608.223,4218.476H1579a3.413,3.413,0,0,0,3.607,3.178h22.009A3.413,3.413,0,0,0,1608.223,4218.476Z" transform="translate(-1523.566 -4180.848)" fill="#cfd0d8"/><circle cx="3.206" cy="3.206" r="3.206" transform="translate(23.224 17.079) rotate(-22.5)" fill="#fff4ba"/></g></g></g></g></svg>