<svg xmlns="http://www.w3.org/2000/svg" width="542" height="383.577" viewBox="0 0 542 383.577"><g transform="translate(-567.727 -1404.024)"><g transform="translate(567.727 1405.329)"><g transform="translate(0 0)"><g transform="translate(0.51)"><g transform="translate(0.117)"><path d="M1110.027,1421.681h.641V1408.27H569.3v280.279h540.726V1660.4h.006Z" transform="translate(-569.295 -1407.878)" fill="#fff"/><rect width="540.746" height="0.784" transform="translate(0 280.279)" fill="#a0bacb"/><rect width="541.373" height="0.784" fill="#7b88ac"/></g><g transform="translate(0 57.27)"><path d="M655.093,1551.743v-.206H647.6v.206H570.18v170.878h159V1551.743Zm67.5,5.486V1594.8h-67.5v-37.575ZM647.6,1601.289v71.786h-70.84v-71.786Zm7.49,71.786v-71.786h67.5v71.786Zm-7.49-115.846V1594.8h-70.84v-37.575Zm-70.84,122.33H647.6v37.575h-70.84Zm78.33,37.575v-37.575h67.5v37.575Z" transform="translate(-569.71 -1551.146)" fill="#ebebeb"/><path d="M728.941,1722.425H569V1550.763h77.423v-.206h8.43v.206h74.085Zm-159-.784H728V1551.546H653.916v-.205h-6.55v.205H569.944Zm152.414-4.7H653.916v-38.359h68.442Zm-67.5-.784h66.562v-36.792H654.856Zm-7.49.784H575.586v-38.359h71.781Zm-70.84-.784h69.9v-36.792h-69.9Zm145.832-43.275H653.916v-72.57h68.442Zm-67.5-.784h66.562v-71H654.856Zm-7.49.784H575.586v-72.57h71.781Zm-70.84-.784h69.9v-71h-69.9Zm145.832-77.487H653.916V1556.25h68.442Zm-67.5-.783h66.562v-36.792H654.856Zm-7.49.783H575.586V1556.25h71.781Zm-70.84-.783h69.9v-36.792h-69.9Z" transform="translate(-569.003 -1550.557)" fill="#ebebeb"/></g><g transform="translate(219.633 56.259)"><path d="M1174.248,1549.214v-.205h-6.87v.205h-71.014v170.878H1242.2V1549.214Zm61.915,5.487v37.575h-61.915V1554.7Zm-68.785,44.059v71.786H1102.4v-71.786Zm6.87,71.786v-71.786h61.915v71.786Zm-6.87-115.845v37.575H1102.4V1554.7ZM1102.4,1677.03h64.977v37.575H1102.4Zm71.847,37.575V1677.03h61.915v37.575Z" transform="translate(-1095.932 -1548.616)" fill="#ebebeb"/><path d="M1241.983,1719.9h-146.7V1548.233H1166.3v-.205h7.732v.205h67.952Zm-145.836-.784h144.974V1549.017h-67.952v-.206h-6.008v.206h-71.014Zm139.8-4.7h-62.777V1676.05h62.777Zm-61.914-.784h61.052v-36.791h-61.052Zm-6.87.784h-65.839V1676.05h65.839Zm-64.977-.784H1166.3v-36.791h-64.114Zm133.761-43.275h-62.777v-72.57h62.777Zm-61.914-.784h61.052v-71h-61.052Zm-6.87.784h-65.839v-72.57h65.839Zm-64.977-.784H1166.3v-71h-64.114Zm133.761-77.487h-62.777V1553.72h62.777Zm-61.914-.784h61.052V1554.5h-61.052Zm-6.87.784h-65.839V1553.72h65.839Zm-64.977-.784H1166.3V1554.5h-64.114Z" transform="translate(-1095.284 -1548.028)" fill="#ebebeb"/></g><g transform="translate(415.363 57.27)"><path d="M1692.668,1717.134h-40.123v-37.575h40.123v-6.484h-40.123v-71.786h40.123V1594.8h-40.123v-37.575h40.123v-5.486h-40.123v-.206h-7.49v.206h-77.423v170.878h125.036Zm-47.613,0h-70.84v-37.575h70.84Zm0-44.059h-70.84v-71.786h70.84Zm0-78.271h-70.84v-37.575h70.84Z" transform="translate(-1567.162 -1551.146)" fill="#ebebeb"/><path d="M1778.877,1909.179h40.593v-.784h-39.653V1871.6h39.653v-.784h-40.593Z" transform="translate(-1693.964 -1742.798)" fill="#ebebeb"/><path d="M1778.877,1747.587h40.593v-.784h-39.653v-71h39.653v-.784h-40.593Z" transform="translate(-1693.964 -1625.265)" fill="#ebebeb"/><path d="M1778.877,1603.156h40.593v-.784h-39.653v-36.791h39.653v-.784h-40.593Z" transform="translate(-1693.964 -1559.105)" fill="#ebebeb"/><path d="M1654.705,1564.8h-71.78v38.359h71.78Zm-.941,37.575h-69.9v-36.792h69.9Z" transform="translate(-1576.342 -1559.105)" fill="#ebebeb"/><path d="M1691.963,1721.641H1567.4V1551.546h77.423v-.205h6.549v.205h40.593v-.784H1652.31v-.206h-8.43v.206h-77.423v171.662h125.506Z" transform="translate(-1566.457 -1550.557)" fill="#ebebeb"/><path d="M1582.925,1909.179h71.78V1870.82h-71.78Zm.94-37.575h69.9V1908.4h-69.9Z" transform="translate(-1576.342 -1742.798)" fill="#ebebeb"/><path d="M1654.705,1675.016h-71.78v72.57h71.78Zm-.941,71.786h-69.9v-71h69.9Z" transform="translate(-1576.342 -1625.265)" fill="#ebebeb"/></g></g><g transform="translate(0 246.928)"><path d="M1109.1,2025.844H568.374v96.165h-.647v38.847h541.368V2029.941h.005Z" transform="translate(-567.727 -2025.511)" fill="#f9f9f9"/><rect width="539.654" height="0.562" transform="translate(1.875 134.571)" fill="#f9f9f9"/><rect width="540.752" height="0.562" transform="translate(0.627)" fill="#f9f9f9"/></g><g transform="translate(31.817 4.941)"><path d="M1465.31,1503.5v-83.853H1463.3V1503.5c-6.264.427-11.19,4.791-11.19,10.122,0,5.613,5.46,10.164,12.194,10.164s12.195-4.551,12.195-10.164C1476.5,1508.3,1471.573,1503.931,1465.31,1503.5Z" transform="translate(-1117.511 -1419.651)" fill="#ffb2b0"/><path d="M660.521,1520.073V1436.22h-2.009v83.853c-6.263.427-11.19,4.791-11.19,10.122,0,5.613,5.46,10.164,12.194,10.164s12.194-4.551,12.194-10.164C671.711,1524.864,666.785,1520.5,660.521,1520.073Z" transform="translate(-647.322 -1429.597)" fill="#ffb2b0"/><path d="M943.243,1513.845v-60.964h-1.461v60.964c-4.554.31-8.135,3.483-8.135,7.359,0,4.081,3.969,7.389,8.865,7.389s8.865-3.308,8.865-7.389C951.378,1517.328,947.8,1514.155,943.243,1513.845Z" transform="translate(-814.677 -1439.598)" fill="#ffb2b0"/><path d="M1712.18,1513.845v-60.964h-1.461v60.964c-4.554.31-8.135,3.483-8.135,7.359,0,4.081,3.969,7.389,8.866,7.389s8.866-3.308,8.866-7.389C1720.316,1517.328,1716.734,1514.155,1712.18,1513.845Z" transform="translate(-1264.113 -1439.598)" fill="#ffb2b0"/></g></g></g><g transform="translate(964.889 1603.245)"><g transform="translate(0 0)"><path d="M1521.541,2122.222l-1.891-.2,12.006-61.883,3.995.656,44.169,5.239-1.207,11.342-.114-.012.857,51.346-1.891-.2-5.46-51.836-35.055-3.732Z" transform="translate(-1519.65 -1997.083)" fill="#7b88ac"/><path d="M1658.151,1907.426c2.633-7.517,12.8-4.881,21.795-3.014,6.466,1.336,7.771,4.164,6.738,10.7l-13.867,56.186c-1.013,6.518-6.828,10.288-12.9,8.359s-18.407-7.463-17.223-13.962Z" transform="translate(-1593.462 -1902.399)" fill="#7b88ac"/><path d="M1540.492,2145.564l-1.553-.165,12.045-56.953-8.912-9.957,28.968,2.888,34.123,3.269-1.139,9.446.63,58.653-1.259-.134-5.641-59.186-40.219-4.281Z" transform="translate(-1531.228 -2008.099)" fill="#7b88ac"/><path d="M1535.4,2056.6a2.342,2.342,0,0,1,2.2-3.616l35.212,3.6a30.013,30.013,0,0,1,9.176,2.748l19.092,8.691c.047.021.1.045.141.069,2.273,1.2,1.966,1.978-.713,1.692l-59.691-6.5a2.343,2.343,0,0,1-1.7-1.043Z" transform="translate(-1528.867 -1992.784)" fill="#7b88ac"/></g></g><g transform="translate(952.339 1565.875)"><g transform="translate(0)"><g transform="translate(37.467 28.91)"><path d="M1627.535,1921.5l1.21.448.365,3.078-2.805,1.066Z" transform="translate(-1608.587 -1905.406)" fill="#eaeaea"/><path d="M1631.884,1885.272l11.553-4.034.14,18.506-16.516,4.482Z" transform="translate(-1609.041 -1881.238)" fill="#f7c371"/><path d="M1587.752,2024.675l21.563,7.078.619,32.578-19.229.484Z" transform="translate(-1585.446 -1967.337)" fill="#eaeaea"/><path d="M1625.07,2017.3c-13.818-.612-29.792-6.027-36.595-22-3.681-8.646-3.394-22.792-3.384-36.812.014-18.742,21.323-42.94,37.868-37.1,22.994,8.113,7.272,38.224,4.409,46.19C1618.981,1990.914,1624.615,2012.066,1625.07,2017.3Z" transform="translate(-1583.843 -1904.804)" fill="#03b4e9"/><path d="M1625.244,2035.477c.3-6.148,3.471-24.989,15.342-45.777,2.3-4.032,5.052-16.151,7.636-26.268.964-3.776,7.328,3.641,8.124,12.969.494,5.787-3.774,13.291-4.87,16.341-8.387,23.34-2.754,44.493-2.3,49.73C1641.19,2042.119,1632.485,2040.154,1625.244,2035.477Z" transform="translate(-1607.951 -1929.973)" fill="#0080af"/><path d="M1584.933,1976.41c2.151-24.134,21.661-47.225,38.641-53.341,2.853-1.028.41-3.21-7.635-2.775C1608.741,1920.714,1579.417,1933.941,1584.933,1976.41Z" transform="translate(-1583.341 -1904.648)" fill="#219ecc"/><path d="M1586.175,1960.7c3.512-20.222,11.51-30.609,29.642-40.32-7.019.408-35.159,8.833-31.437,48.634C1584.475,1970.027,1585.568,1964.2,1586.175,1960.7Z" transform="translate(-1583.219 -1904.734)" fill="#fff"/><path d="M1591.842,2091.2c-.082-.854.329-1.593.919-1.65s1.135.589,1.218,1.443-.328,1.593-.919,1.65S1591.925,2092.05,1591.842,2091.2Z" transform="translate(-1587.895 -2006.275)" fill="#0080af"/><path d="M1589.392,2065.869c-.083-.853.329-1.593.919-1.65s1.135.59,1.217,1.444-.328,1.594-.918,1.65S1589.475,2066.724,1589.392,2065.869Z" transform="translate(-1586.424 -1991.072)" fill="#0080af"/><path d="M1630.923,1925.838l-4.208,1.28,1.622-4.469.8-.395Z" transform="translate(-1608.833 -1905.859)" fill="#ffd9a4"/><path d="M1582.916,1978.328l1.611-8.155s-2.726-25.733,16.258-37.868l-.2-.655C1584.959,1942.119,1579.618,1960.941,1582.916,1978.328Z" transform="translate(-1581.983 -1911.498)" fill="#ffd9a4"/><path d="M1629.383,1915.866l16.5-3.752,1.954,3.354-15.736,5.715Z" transform="translate(-1610.435 -1899.772)" fill="#fff"/></g><g transform="translate(0 56.841)"><path d="M1641.878,2001.475c3.21,2.77,22.132-45.39,17.185-50.366,0,0-19.757-.247-26.574,11.441C1632.489,1962.55,1630.152,1991.356,1641.878,2001.475Z" transform="translate(-1574.719 -1951.109)" fill="#03b4e9"/><g transform="translate(0 35.006)"><path d="M1523.759,2055.928c-3.714-.582-11.817,3.9-12.54.7-.649-2.865,2.547-8.426,12.863-3.594Z" transform="translate(-1501.991 -2046.154)" fill="#ffd9a4"/><path d="M1513.405,2051.289c1.465,4.985-4.614,6.748-6.656,6.862-2.245.123-4.4-3.359-3.849-5.064S1512.842,2049.384,1513.405,2051.289Z" transform="translate(-1496.994 -2045.783)" fill="#ffd9a4"/><path d="M1506.966,2044.354c-2.6-1.611-4.808-4.7-3.952-5.506.963-.906,2.357,2.111,5.047,2.987,2.912.955,4.691,1.709,4.384,2.851S1509.573,2045.97,1506.966,2044.354Z" transform="translate(-1497.002 -2038.681)" fill="#ffd9a4"/><path d="M1494.142,2054.7c-2.621.13-4.02-.4-3.975-1.1s1.543-.682,4.161-.816,5.915-.952,5.871-.252S1496.76,2054.56,1494.142,2054.7Z" transform="translate(-1489.402 -2046.824)" fill="#ffd9a4"/><path d="M1493.482,2062.063c-2.592.668-5.129.1-5.224-.586s2.43-.727,5.022-1.395,4.308-.961,4.4-.279S1496.072,2061.395,1493.482,2062.063Z" transform="translate(-1488.255 -2051.125)" fill="#ffd9a4"/><path d="M1501.4,2067.635c-2.615.563-4.2.285-4.277-.4s1.717-.729,4.33-1.29,4.454-.919,4.529-.235S1504.015,2067.073,1501.4,2067.635Z" transform="translate(-1493.576 -2054.682)" fill="#ffd9a4"/></g><path d="M1641.019,2013.434c-14.537-7.945-9.508-35.113-9.508-35.113.586-.906.589-.938.589-.938C1630.173,1997.876,1641.623,2013.765,1641.019,2013.434Z" transform="translate(-1573.741 -1966.88)" fill="#0080af"/><path d="M1529.933,2055.167l5.557,2.046.906-8.853-5.7,1.133Z" transform="translate(-1513.273 -2009.485)" fill="#eaeaea"/><path d="M1585.618,2051.933s-15.557,2.65-47.054-2.888c0,0-1.639-3.146,1.118-8.691,0,0,26.583-7.707,42.686-4.553C1582.368,2035.8,1589.683,2047.245,1585.618,2051.933Z" transform="translate(-1518.164 -2001.491)" fill="#03b4e9"/><path d="M1549.3,2055.608a1.251,1.251,0,1,1,1.374-1.372A1.388,1.388,0,0,1,1549.3,2055.608Z" transform="translate(-1523.918 -2012.367)" fill="#0080af"/><path d="M1542.055,2040c29.022-7.729,39.849-5.12,39.849-5.12.909,2.312,1.37,2.47,1.37,2.47A349.024,349.024,0,0,0,1542.055,2040Z" transform="translate(-1520.536 -2001.142)" fill="#0080af"/></g><g transform="translate(49.262)"><path d="M1643.944,1839.741c8.139-9.445,7.659-25.224,7.28-25.782-4.044-5.96-15.685-5.614-21.576-4.111-4.968,1.267-8.893,3.951-6.492,7.847.829,1.346,4.8-1.609,6-1.433,2.266.333,3.19,31.588,3.19,31.588Z" transform="translate(-1618.058 -1808.915)" fill="#2d356b"/><g transform="translate(0 7.153)"><path d="M1619.526,1886.512l-1.135-2,1.6-.952Z" transform="translate(-1615.633 -1860.876)" fill="#ffd8a3"/><path d="M1638.537,1854.253c-1,2.626-9.3,8.087-17.385,7.522-.653-10.552.167-27.923,2.2-30.84,2-2.87,9.808-4.811,10.738-3.9-2.917,3.309,1.365,14.691,3,15.766C1641.058,1845.423,1639.581,1851.512,1638.537,1854.253Z" transform="translate(-1617.157 -1826.81)" fill="#ffd8a3"/><path d="M1611.49,1871.9a74.683,74.683,0,0,0,4.207-8.785c1.294-3.288.588,8.9.588,8.9S1612.656,1872.756,1611.49,1871.9Z" transform="translate(-1611.49 -1848.265)" fill="#ffd8a3"/><path d="M1618.763,1910.325c-.808-.367-1.2-1.152-.864-1.752a1.6,1.6,0,0,1,2.065-.422c.81.367,1.2,1.153.865,1.752A1.605,1.605,0,0,1,1618.763,1910.325Z" transform="translate(-1615.266 -1875.523)" fill="#ffd8a3"/><path d="M1619.4,1900.178c-.023-.213.221-.414.545-.448s.6.111.625.324-.221.414-.544.449S1619.427,1900.391,1619.4,1900.178Z" transform="translate(-1616.24 -1870.578)" fill="#ffd8a3"/><path d="M1660.725,1864.039c.5-1.906,2.011-3.224,3.378-2.944s2.071,2.053,1.573,3.959-3.133,2.959-4.5,2.679S1660.227,1865.945,1660.725,1864.039Z" transform="translate(-1640.76 -1847.368)" fill="#ffd8a3"/></g><path d="M1620.692,1889.122l.176,4.3s1.2-.1,1.475-.626a15.048,15.048,0,0,0,.964-4.3Z" transform="translate(-1617.014 -1856.686)" fill="#ffab00"/><path d="M1620.878,1889.578l.159,3.821s.887-.058,1.083-.3a10.711,10.711,0,0,0,.923-4.068Z" transform="translate(-1617.125 -1857.008)" fill="#fff"/><path d="M1624.07,1855.585a1.042,1.042,0,0,1,.282-.682c.443-.443,4.056.762,3.993,1.521l-.041.475c-.046.546-1.116-.059-2.2-.233-1.037-.167-2.092.118-2.066-.4Z" transform="translate(-1619.021 -1836.462)" fill="#2d356b"/><path d="M1627.236,1865.468c-.006-.637.34-1.19.772-1.236s.789.433.8,1.07-.339,1.189-.772,1.235S1627.244,1866.1,1627.236,1865.468Z" transform="translate(-1620.942 -1842.118)" fill="#2d356b"/><path d="M1627.008,1888.25c-.016-.148.055-.277.161-.288s.2.1.216.248-.055.277-.159.287S1627.023,1888.4,1627.008,1888.25Z" transform="translate(-1620.803 -1856.363)" fill="#ffab00"/><g transform="translate(4.31 1.736)"><path d="M1653.157,1831.372c-3.51.214,1.816,16.138.025,17.26s-.048,2.438.892,2.093c2.151-.792,2.571-5.272,2.748-8.126C1657.018,1839.42,1653.454,1831.354,1653.157,1831.372Z" transform="translate(-1640.075 -1824.131)" fill="#2d356b"/><path d="M1622.357,1819.543c-.538-2.535,1.577-5.132,4.724-5.8s12.33-1.019,12.868,1.514-7.771,7-10.919,7.664S1622.894,1822.077,1622.357,1819.543Z" transform="translate(-1622.273 -1813.258)" fill="#2d356b"/></g></g><g transform="translate(65.087 68.418)"><rect width="47.615" height="24.575" rx="6.672" transform="translate(0 -10)" fill="#fff" stroke="#231f20" stroke-miterlimit="10" stroke-width="0.25"/><text transform="translate(10.808 5.787)" fill="#2d356b" font-size="10" font-family="TrebuchetMS-Bold, Trebuchet MS" font-weight="700"><tspan x="0" y="0">Steve</tspan></text></g></g></g><g transform="translate(940.902 1591.14)"><g transform="translate(11.497)"><path d="M1501.038,1900.019s-.951-6.4-1.382-7.813c-.557-1.82-.829-4.53.7-6.125s1.763-5.349,1.763-5.923.574-9.188,6.891-7.912c0,0,2.616.638,1.34,5.232,0,0-1.34,2.743.351,4.466a7,7,0,0,1,0,9.507c-3.158,3.828-2.259,5.23-1.755,6.7,2.3,6.7-2.595,12.854-3.126,14.5s-1.169,4.337-.636,5.888l-1.858.034Z" transform="translate(-1499.215 -1872.118)" fill="#ebebeb"/></g><g transform="translate(16.089 6.484)"><path d="M1511.21,1928.551a.3.3,0,0,0,.057-.006.281.281,0,0,0,.219-.332c-.71-3.457.536-9.616.549-9.678.687-2.622.886-5.972-.252-14.513a32.79,32.79,0,0,1,.347-11.206,18.78,18.78,0,0,1,1.3-4.071.281.281,0,0,0-.5-.254,18.854,18.854,0,0,0-1.341,4.181,33.334,33.334,0,0,0-.359,11.423c1.123,8.422.917,11.812.262,14.312-.056.272-1.285,6.349-.552,9.919A.281.281,0,0,0,1511.21,1928.551Z" transform="translate(-1510.703 -1888.338)" fill="#fff"/></g><g transform="translate(17.613 24.607)"><path d="M1516.715,1955.654s0-1.51,3.1-2.94a5.178,5.178,0,0,0,3.1-3.735c.794-3.02,3.019-2.225,4.45-1.351s4.68,0,4.684-4.53a3.006,3.006,0,0,1,1.109-3.655c2.074-1.272,2.869-5.813-1.581-5.767s-8.642,2.243-12.952,8.627c-5.99,8.873-3.658,13.35-3.658,13.35Z" transform="translate(-1514.517 -1933.676)" fill="#ebebeb"/></g><g transform="translate(18.143 27.79)"><path d="M1516.322,1960.713a.28.28,0,0,0,.086-.014.286.286,0,0,0,.181-.354,6.793,6.793,0,0,1-.018-2.964.32.32,0,0,0,.022-.057c2.4-9.07,14.252-15.1,14.372-15.157a.281.281,0,0,0-.252-.5c-.122.061-12.173,6.192-14.656,15.489a6.64,6.64,0,0,0,0,3.363A.275.275,0,0,0,1516.322,1960.713Z" transform="translate(-1515.841 -1941.637)" fill="#fff"/></g><g transform="translate(0 11.157)"><path d="M1483.74,1935.322a5.528,5.528,0,0,1-2.616-5.551,3.886,3.886,0,0,0-3.445-4.658c-.766-.127-5.743-2.169-4.977-9.635,0,0,.255-4.785-.638-6.508s-3.126-6.891,0-8.486,5.3,1.276,6.444,4.211c0,0,.893,3.381,1.659,4.211s6.317,5.679,5.87,15.76l-1.087,10.655Z" transform="translate(-1470.454 -1900.029)" fill="#ebebeb"/></g><g transform="translate(4.456 17.026)"><path d="M1490.941,1944.416a.281.281,0,0,0,.281-.27c.323-8.582-3.4-19.773-5.534-23.007a57.315,57.315,0,0,1-3.553-6.267.281.281,0,0,0-.508.24,58.061,58.061,0,0,0,3.593,6.336c2.1,3.181,5.759,14.206,5.441,22.677a.28.28,0,0,0,.27.291Z" transform="translate(-1481.6 -1914.711)" fill="#fff"/></g><path d="M1503.311,2004.271h-12.032l-2.912-16.486h17.857Z" transform="translate(-1481.207 -1941.548)" fill="#ebebeb"/></g><g transform="translate(743.249 1600.507)"><g transform="translate(0 0)"><g transform="translate(9.78)"><path d="M1018.5,1919.286s-.809-5.448-1.176-6.646c-.474-1.548-.706-3.854.6-5.21s1.5-4.55,1.5-5.038.489-7.816,5.861-6.73c0,0,2.225.542,1.14,4.45,0,0-1.14,2.334.3,3.8a5.951,5.951,0,0,1,0,8.087c-2.686,3.256-1.922,4.449-1.492,5.7,1.957,5.7-2.208,10.935-2.66,12.331s-.995,3.689-.541,5.008l-1.58.029Z" transform="translate(-1016.948 -1895.552)" fill="#ebebeb"/></g><g transform="translate(13.686 5.515)"><path d="M1027.153,1943.556a.257.257,0,0,0,.048,0,.239.239,0,0,0,.186-.282c-.6-2.94.456-8.18.467-8.233.584-2.23.754-5.08-.214-12.346a27.893,27.893,0,0,1,.295-9.532,15.964,15.964,0,0,1,1.1-3.463.239.239,0,0,0-.426-.216,16.042,16.042,0,0,0-1.14,3.557,28.351,28.351,0,0,0-.306,9.717c.955,7.165.78,10.048.223,12.174-.047.231-1.093,5.4-.47,8.438A.239.239,0,0,0,1027.153,1943.556Z" transform="translate(-1026.721 -1909.349)" fill="#fff"/></g><g transform="translate(14.983 20.932)"><path d="M1031.835,1966.612s0-1.284,2.636-2.5a4.4,4.4,0,0,0,2.636-3.177c.676-2.569,2.568-1.893,3.785-1.149s3.981,0,3.985-3.853a2.558,2.558,0,0,1,.943-3.11c1.765-1.081,2.441-4.945-1.345-4.906s-7.352,1.908-11.018,7.339c-5.1,7.548-3.112,11.356-3.112,11.356Z" transform="translate(-1029.965 -1947.916)" fill="#ebebeb"/></g><g transform="translate(15.433 23.639)"><path d="M1031.5,1970.915a.24.24,0,0,0,.074-.011.243.243,0,0,0,.154-.3,5.777,5.777,0,0,1-.015-2.521.292.292,0,0,0,.018-.048c2.044-7.715,12.124-12.843,12.225-12.893a.239.239,0,1,0-.214-.427c-.1.052-10.354,5.267-12.467,13.176a5.643,5.643,0,0,0,0,2.861A.234.234,0,0,0,1031.5,1970.915Z" transform="translate(-1031.092 -1954.688)" fill="#fff"/></g><g transform="translate(0 9.491)"><path d="M1003.785,1949.316a4.7,4.7,0,0,1-2.225-4.722,3.306,3.306,0,0,0-2.931-3.962c-.651-.108-4.885-1.845-4.234-8.2,0,0,.217-4.071-.543-5.536s-2.66-5.862,0-7.219,4.505,1.085,5.482,3.582a13.859,13.859,0,0,0,1.411,3.582c.651.706,5.373,4.831,4.993,13.406l-.924,9.064Z" transform="translate(-992.483 -1919.294)" fill="#ebebeb"/></g><g transform="translate(3.79 14.483)"><path d="M1009.911,1957.052a.239.239,0,0,0,.239-.23c.274-7.3-2.892-16.82-4.707-19.571a48.878,48.878,0,0,1-3.022-5.331.239.239,0,0,0-.432.2,49.433,49.433,0,0,0,3.056,5.39c1.786,2.706,4.9,12.084,4.628,19.29a.239.239,0,0,0,.23.247Z" transform="translate(-1001.965 -1931.783)" fill="#fff"/></g></g><path d="M1020.433,2007.968H1010.2l-2.477-14.024h15.19Z" transform="translate(-1001.63 -1954.612)" fill="#ebebeb"/></g><g transform="translate(883.38 1629.487)"><g transform="translate(0)"><g transform="translate(0 40.068)"><rect width="193.266" height="5.801" fill="#40558d"/><rect width="179.538" height="104.244" transform="translate(7.12 2.238)" fill="#40558d"/><rect width="55.711" height="104.244" transform="translate(130.948 2.238)" fill="#7b87ab"/><rect width="193.266" height="7.55" transform="translate(0 2.238)" fill="#2d356b"/></g><g transform="translate(49.511)"><path d="M1493.243,2005.4h-44.824a2.772,2.772,0,0,1-2.724-2.254l-6.042-31.8a2.772,2.772,0,0,1,2.723-3.289H1487.2a2.772,2.772,0,0,1,2.723,2.255l6.042,31.8A2.772,2.772,0,0,1,1493.243,2005.4Z" transform="translate(-1439.604 -1968.049)" fill="#cfd0d8"/><path d="M1562.092,1971.09a1.5,1.5,0,1,0-2.212,1.035l6.041,31.8a1.5,1.5,0,1,0,2.212-1.035Z" transform="translate(-1511.771 -1968.835)" fill="#ebebeb"/><path d="M1533.711,2064.633h-68.9a3.154,3.154,0,0,1-3.154-3.154h75.21A3.154,3.154,0,0,1,1533.711,2064.633Z" transform="translate(-1452.84 -2024.131)" fill="#9898a4"/><path d="M1606.25,2061.478h-29a3.387,3.387,0,0,0,3.58,3.154h21.845A3.387,3.387,0,0,0,1606.25,2061.478Z" transform="translate(-1522.225 -2024.131)" fill="#cfd0d8"/><circle cx="3.182" cy="3.182" r="3.182" transform="translate(23.051 16.952) rotate(-22.5)" fill="#fff4ba"/></g></g></g><g transform="translate(568.354 1406.113)"><rect width="76.403" height="45.074" transform="translate(76.403 45.074) rotate(-180)" fill="#ebebeb"/></g><text transform="translate(582.706 1442.024)" fill="#2d356b" font-size="41" font-family="TrebuchetMS-Bold, Trebuchet MS" font-weight="700"><tspan x="0" y="0">1</tspan></text><g transform="translate(664.876 1406.129)"><g transform="translate(0 0)"><path d="M1078.047,1542.8c11.8,20.222,2.586,41.873-22.565,50.147-26.716,8.789-61.516-.771-78.78-21.366-13.436,11.123-33.967,19.628-57.547,22.527-43.468,5.345-80.826-10.374-83.442-35.11a28.284,28.284,0,0,1,2.481-14.563c-36.733,9.158-58.406-1.265-67.72-29.254-6.874-20.653,12.25-56.722,65.3-63.246,6.764-.832,13.394-1.355,19.821-1.593-.145-.683-2.064-4.574.651-11.31,11.8-29.282,53.905-33.577,97.91-27.162,37.053,5.4,55.648,24.467,64.318,41.668,0,0,105.063-31.978,124.333,35.933C1142.806,1489.472,1164.195,1549.37,1078.047,1542.8Z" transform="translate(-769.129 -1409.29)" fill="#fff" stroke="#ebebeb" stroke-miterlimit="10" stroke-width="1"/><ellipse cx="11.131" cy="12.051" rx="11.131" ry="12.051" transform="translate(50.896 130.706) rotate(-2.698)" fill="#fff" stroke="#ebebeb" stroke-miterlimit="10" stroke-width="1"/><ellipse cx="6.596" cy="7.141" rx="6.596" ry="7.141" transform="translate(45.486 148.13) rotate(-2.698)" fill="#fff" stroke="#ebebeb" stroke-miterlimit="10" stroke-width="1"/><ellipse cx="5.642" cy="6.108" rx="5.642" ry="6.108" transform="translate(31.707 156.42) rotate(-2.698)" fill="#fff" stroke="#ebebeb" stroke-miterlimit="10" stroke-width="1"/></g></g><g transform="translate(589.386 1536.938)"><g transform="translate(34.399 0.134)"><g transform="translate(6.057 102.84)"><path d="M794.9,2006.083l9.864,1.855c8.674,30.985,6.543,67.923,25.927,131.184,0,0-1.852.807-2.119,0-16.127-48.916-24.947-87.269-28.076-92.539C793.546,2034.874,784.851,2024.919,794.9,2006.083Z" transform="translate(-763.468 -2001.304)" fill="#ffd8a3"/><path d="M752.846,2001.245c-12.139,22.64-3.05,20.885-2.656,32.6,1.138,33.766-20.39,50.942-27.074,102.592,0,0,2.646-.135,2.721-.881,4.152-41.205,40.664-80.63,42.167-118.886.1-2.467.205-9.835-2.672-12.472C760.934,2000.159,752.846,2001.245,752.846,2001.245Z" transform="translate(-723.117 -1998.32)" fill="#f7c371"/><path d="M731.2,2336.354h-7.933s-.383-2.252,1.386-2.613C725.767,2333.514,727.738,2334.038,731.2,2336.354Z" transform="translate(-723.186 -2197.955)" fill="#7b88ac"/><path d="M892.944,2336.841H885.97s-.337-2.25,1.219-2.612C888.168,2334,889.9,2334.525,892.944,2336.841Z" transform="translate(-820.853 -2198.248)" fill="#7b88ac"/><path d="M759.991,2074.045s33.3,5.354,40.934,3.212c0,0-7.285-75.676-12.488-80.316s-14.57-2.142-14.57-2.142a29.444,29.444,0,0,0-4.856,31.413C775.948,2042.632,759.991,2074.045,759.991,2074.045Z" transform="translate(-745.251 -1994.127)" fill="#9ea9fc"/></g><g transform="translate(24.118 47.94)"><g transform="translate(30.759 20.431)"><path d="M846.25,1925.564c2.078-1.39,8.22-.954,7.761-3.087-.41-1.91-3.894-4.371-8.766,1.43Z" transform="translate(-845.246 -1915.337)" fill="#f8c471"/><path d="M852.85,1920.1c.51,3.418,4.672,2.781,5.935,2.278,1.389-.554,1.713-3.256.906-4.132S852.657,1918.8,852.85,1920.1Z" transform="translate(-849.807 -1913.951)" fill="#f8c471"/><path d="M857.662,1912.353c1.121-1.7,1.584-4.184.844-4.427-.835-.277-.832,1.933-2.21,3.214-1.489,1.391-2.352,2.343-1.848,2.946S856.541,1914.057,857.662,1912.353Z" transform="translate(-850.683 -1907.902)" fill="#f8c471"/><path d="M865.707,1915.789c1.618-.654,2.313-1.368,2.089-1.777s-1.122.021-2.739.673-3.835,1.08-3.612,1.49S864.089,1916.438,865.707,1915.789Z" transform="translate(-854.961 -1911.473)" fill="#f8c471"/><path d="M868.77,1920.726c1.751-.322,3.121-1.378,2.988-1.816s-1.669.241-3.42.564-2.868.625-2.733,1.063S867.02,1921.047,868.77,1920.726Z" transform="translate(-857.46 -1914.424)" fill="#f8c471"/><path d="M866.054,1926.11c1.735-.392,2.615-1,2.469-1.437s-1.24.041-2.973.433-2.944.691-2.8,1.126S864.318,1926.5,866.054,1926.11Z" transform="translate(-855.747 -1917.866)" fill="#f8c471"/></g><path d="M788.508,1857.017c-5.593-3.423-20.205,33.015-20.209,34.41,0,0,2.874,2.246,4.078,1.123C775.49,1889.643,791.005,1858.545,788.508,1857.017Z" transform="translate(-768.299 -1856.79)" fill="#9ea9fc"/><path d="M800.26,1928.145c1.359,4.969-27.085,7.308-28.139,7,0,0-2.22-3.223-1.109-3.878C773.888,1929.575,799.653,1925.926,800.26,1928.145Z" transform="translate(-769.741 -1899.204)" fill="#9ea9fc"/><path d="M838.472,1926.742l-.819-1.345-5.96-.581s.927,2.627,1.471,3.048S838.472,1926.742,838.472,1926.742Z" transform="translate(-806.351 -1897.623)" fill="#eaeaea"/><path d="M841.214,1929.354l.2,1.572-4.34,4.134s-.927-2.655-.762-3.324S841.214,1929.354,841.214,1929.354Z" transform="translate(-809.114 -1900.347)" fill="#eaeaea"/></g><g transform="translate(0 1.407)"><path d="M754.584,1801.711c6.421-5.368-2.967-7.347-2.172-12.385s1.787-3.357,3.068-9.84-.286-9.042-.132-12.862,3.16-9.877,1.336-14.856-3.27-3.445-4.891-7.42-3.739.075-7.037,1.542-6.247-7.971-12.07-4.887-5.825,10.2-7.789,14.048-7.613,5.038-9,12.075,2.679,5.726.533,10.5-7.008,4-8.4,11.042c0,0-1.2,7.075,6.779,7.3s5.169,4.292,14.006,2.191,5.372,5.294,11.664,2.881S748.849,1806.5,754.584,1801.711Z" transform="translate(-707.964 -1740.38)" fill="#2d356b"/></g><g transform="translate(26.717 24.602)"><path d="M787.862,1798.407l7.351,4.618,1.319,15.9-5.906-2.136Z" transform="translate(-782.641 -1798.407)" fill="#f7c371"/><path d="M802.651,1918.393c-4.724-3.094-15.69-9.935-27.851-1.466,3.637-10.681,6.94-21.183,7.057-29.969.218-16.287-13.625-35.418-2.171-42.781,12.161-7.818,26.6,28.285,26.6,28.285C794.128,1879.3,797.492,1898.915,802.651,1918.393Z" transform="translate(-774.8 -1825.216)" fill="#495bd9"/><path d="M789.12,1841.8l2.136-.251,9.549,8.984-2.827,2.387S791.57,1846.387,789.12,1841.8Z" transform="translate(-783.396 -1824.304)" fill="#fff"/><path d="M808.411,1852.936c.046-.032.088-.065.134-.1-2.52-5.028-8.028-12.728-13.346-12.233C800.04,1844.924,808.411,1852.936,808.411,1852.936Z" transform="translate(-787.045 -1823.723)" fill="#f7c371"/></g><g transform="translate(20.639)"><path d="M776.823,1770.683c-3.792-1.464-11.519-3.506-14.708-9.776-4.146-8.152-2.418-12.762-.2-18.358,4.234-10.668,22.449-3.635,20.951-.517C780.88,1746.173,790.565,1775.989,776.823,1770.683Z" transform="translate(-759.596 -1736.861)" fill="#2d356b"/><path d="M799.47,1781.331c1.422.144,4.707-6.947,6.034-12.506.438-1.833-1.541-2.253-.776-8.579.449-3.714-.749-9.039-6.607-13.363-5.531-4.083-7.133,7.421-7.906,10.038-2.2,7.454-4.625,12.031-3.047,15.9C790.248,1780.391,797.97,1780.809,799.47,1781.331Z" transform="translate(-775.842 -1742.356)" fill="#ffd8a3"/><path d="M820.523,1809.115a.329.329,0,0,1,.332-.326.346.346,0,0,1,.246.406.33.33,0,0,1-.333.325A.345.345,0,0,1,820.523,1809.115Z" transform="translate(-796.166 -1780.035)" fill="#ffab00"/><path d="M820.867,1783.77c-.143-1,.3-1.872.983-1.959s1.359.65,1.5,1.645-.3,1.871-.984,1.958S821.009,1784.765,820.867,1783.77Z" transform="translate(-796.358 -1763.839)" fill="#2d356b"/><path d="M817.565,1783.736c.708-1.538,1.824-3.145,4.573-2.7A9.609,9.609,0,0,0,817.565,1783.736Z" transform="translate(-794.392 -1763.332)" fill="#2d356b"/><path d="M824.189,1820.053c.066-.228.7.666,1.032.729.949.178.553,1.372-.384,1.1C824.47,1821.77,824.12,1820.294,824.189,1820.053Z" transform="translate(-798.363 -1786.775)" fill="#f36973"/><path d="M823.06,1809.765c-.622-.323,3.882-1.142,2.939.262A6.912,6.912,0,0,1,823.06,1809.765Z" transform="translate(-797.655 -1780.303)" fill="#f36973"/><path d="M820.4,1770.231a5.858,5.858,0,0,0-7.395,2.956C815.16,1770.785,816.725,1769.965,820.4,1770.231Z" transform="translate(-791.655 -1756.675)" fill="#2d356b"/><path d="M831.687,1795.423l-2.268.451.488-5.628,2.876,4.332Z" transform="translate(-801.508 -1768.906)" fill="#ffd8a3"/><path d="M830.791,1805.709l2.062-3.307-1.646-.226Z" transform="translate(-802.332 -1776.067)" fill="#ffd8a3"/><path d="M823.622,1814.938a41.76,41.76,0,0,0,1.578-4.769l-3.974-.4S821.591,1814.055,823.622,1814.938Z" transform="translate(-796.59 -1780.624)" fill="#ffab00"/><path d="M822.891,1812.548l2.264.228c.193-.6.379-1.228.557-1.882l-3.248-.328Z" transform="translate(-797.333 -1781.104)" fill="#fff"/><path d="M780.583,1787.276c.265-1.724.98-2.943-.328-3.141s-2.588,1.04-2.852,2.766.586,3.285,1.9,3.484S780.32,1789,780.583,1787.276Z" transform="translate(-770.256 -1765.225)" fill="#f7c371"/><path d="M801.932,1746.523c-4.811,5.886-13.055,14.369-12.2,23.534-2.734-9.941.205-22.538,7.083-27.152C797.385,1743.932,803.1,1744.216,801.932,1746.523Z" transform="translate(-777.076 -1740.489)" fill="#2d356b"/></g><g transform="translate(19.533 47.534)"><g transform="translate(33.005 17.456)"><path d="M841.015,1921.988c1.931-2.177,8.977-3.493,7.833-5.759-1.023-2.031-5.671-3.778-9.452,4.189Z" transform="translate(-839.396 -1908.489)" fill="#ffd9a4"/><path d="M846.131,1913.914c1.58,3.7,6.079,1.758,7.355.82,1.4-1.033.971-4.171-.2-4.92S845.529,1912.5,846.131,1913.914Z" transform="translate(-843.415 -1905.603)" fill="#ffd9a4"/><path d="M850.9,1904.676c.762-2.245.554-5.178-.351-5.235-1.022-.066-.369,2.422-1.543,4.27-1.269,2-1.96,3.331-1.214,3.862S850.136,1906.925,850.9,1904.676Z" transform="translate(-844.249 -1899.44)" fill="#ffd9a4"/><path d="M859.448,1905.3c1.629-1.213,2.2-2.221,1.83-2.616s-1.257.353-2.886,1.563-4,2.345-3.63,2.741S857.817,1906.5,859.448,1905.3Z" transform="translate(-848.596 -1901.32)" fill="#ffd9a4"/><path d="M864.093,1910.028c1.877-.878,3.11-2.469,2.831-2.923s-1.809.762-3.686,1.64-3.047,1.548-2.766,2S862.217,1910.905,864.093,1910.028Z" transform="translate(-852.023 -1903.982)" fill="#ffd9a4"/><path d="M862.6,1917.075c1.839-.952,2.65-1.9,2.359-2.344s-1.385.41-3.222,1.363-3.113,1.644-2.821,2.091S860.764,1918.027,862.6,1917.075Z" transform="translate(-851.091 -1908.546)" fill="#ffd9a4"/></g><path d="M769.489,1855.851c-7.306-2.21-13.046,43.126-12.64,44.7,0,0,3.9,1.684,4.924.065C764.424,1896.426,772.751,1856.838,769.489,1855.851Z" transform="translate(-756.829 -1855.772)" fill="#9ea9fc"/><path d="M790.288,1928.83c2.992,5.2-28.356,16.2-29.633,16.159,0,0-3.449-2.978-2.389-4.041C761.006,1938.2,788.951,1926.509,790.288,1928.83Z" transform="translate(-757.57 -1899.444)" fill="#9ea9fc"/><path d="M831,1926.7l-1.319-1.274-6.884,1.1s1.816,2.686,2.553,3S831,1926.7,831,1926.7Z" transform="translate(-796.429 -1897.58)" fill="#eaeaea"/><path d="M835.943,1928.307l.691,1.71-3.672,5.932s-1.825-2.718-1.836-3.519S835.943,1928.307,835.943,1928.307Z" transform="translate(-801.427 -1899.312)" fill="#eaeaea"/></g></g><rect width="48.164" height="24.767" rx="6.672" transform="translate(51 91)" fill="#fff" stroke="#231f20" stroke-miterlimit="10" stroke-width="0.25"/><text transform="translate(62.082 106.883)" fill="#2d356b" font-size="10" font-family="TrebuchetMS-Bold, Trebuchet MS" font-weight="700"><tspan x="0" y="0">Akiko</tspan></text></g></g></svg>