<svg xmlns="http://www.w3.org/2000/svg" width="90.43" height="131.609" viewBox="0 0 90.43 131.609"><g transform="translate(-456.905 -3865.699)"><g transform="translate(41.353 -159.223)"><g transform="translate(415.552 4024.922)"><g transform="translate(0 63.305)"><g transform="translate(0 0)"><g transform="translate(2.967 0.642)"><rect width="84.494" height="67.021" fill="#ffb2b0"/></g><path d="M505.982,4235.226h-90.43v-68.3h90.43Zm-84.494-1.283h78.557V4168.2H421.487Z" transform="translate(-415.552 -4166.922)" fill="#2d356b"/></g><g transform="translate(2.968 61.92)"><g transform="translate(0 2.967)"><path d="M422.21,4312.469h0Z" transform="translate(-422.21 -4312.469)" fill="#2d356b"/></g><rect width="84.493" height="5.936" fill="#2d356b"/></g><g transform="translate(2.274)"><g transform="translate(0 2.968)"><path d="M420.654,4173.579h0Z" transform="translate(-420.654 -4173.579)" fill="#2d356b"/></g><rect width="84.493" height="5.936" fill="#2d356b"/></g></g><g transform="translate(2.967 0.642)"><rect width="84.494" height="67.021" fill="#ffb2b0"/></g><path d="M505.982,4093.226h-90.43v-68.3h90.43Zm-84.494-1.284h78.557v-65.737H421.487Z" transform="translate(-415.552 -4024.922)" fill="#2d356b"/><g transform="translate(2.968 61.92)"><g transform="translate(0 2.968)"><path d="M422.21,4170.47h0Z" transform="translate(-422.21 -4170.47)" fill="#2d356b"/></g><rect width="84.493" height="5.936" fill="#2d356b"/></g><g transform="translate(2.274)"><g transform="translate(0 2.968)"><path d="M420.654,4031.58h0Z" transform="translate(-420.654 -4031.58)" fill="#2d356b"/></g><rect width="84.493" height="5.936" fill="#2d356b"/></g><g transform="translate(18.92 76.265)"><rect width="13.227" height="48.793" fill="#cfd0d8"/></g><g transform="translate(42.132 76.434)"><rect width="13.226" height="48.793" fill="#9999a5"/></g><g transform="translate(32.619 76.265)"><rect width="2.592" height="48.793" fill="#9999a5"/></g><g transform="translate(35.886 76.265)"><rect width="2.592" height="48.793" fill="#f46973"/></g><g transform="translate(39.154 76.265)"><rect width="2.592" height="48.793" fill="#ebebeb"/></g><g transform="translate(8.34 79.796)"><rect width="10.581" height="45.262" fill="#54ccca"/><g transform="translate(2.757 5.052)"><rect width="5.068" height="2.634" fill="#54ccca"/></g><g transform="translate(2.757 11.448)"><rect width="5.068" height="2.633" fill="#54ccca"/></g><g transform="translate(2.757 17.844)"><rect width="5.068" height="2.634" fill="#54ccca"/></g></g><g transform="translate(54.808 78.633)"><g transform="translate(0 0)"><rect width="10.581" height="45.262" transform="matrix(0.984, -0.176, 0.176, 0.984, 0, 1.859)" fill="#9999a5"/></g><g transform="translate(3.602 5.458)"><rect width="5.068" height="2.633" transform="translate(0 0.891) rotate(-10.122)" fill="#ebebeb"/></g><g transform="translate(4.725 11.754)"><rect width="5.068" height="2.633" transform="translate(0 0.891) rotate(-10.12)" fill="#cfd0d8"/></g><g transform="translate(5.849 18.05)"><rect width="5.068" height="2.633" transform="translate(0 0.891) rotate(-10.122)" fill="#ebebeb"/></g></g><g transform="translate(65.926 78.893)"><g transform="translate(0 0)"><rect width="6.931" height="45.262" transform="translate(0 1.218) rotate(-10.122)" fill="#ebebeb"/></g><g transform="translate(2.666 5.291)"><rect width="3.319" height="2.633" transform="matrix(0.984, -0.176, 0.176, 0.984, 0, 0.583)" fill="#ebebeb"/></g><g transform="translate(3.79 11.588)"><rect width="3.319" height="2.633" transform="translate(0 0.583) rotate(-10.108)" fill="#ebebeb"/></g><g transform="translate(4.914 17.884)"><rect width="3.319" height="2.633" transform="matrix(0.984, -0.176, 0.176, 0.984, 0, 0.583)" fill="#ebebeb"/></g></g><g transform="translate(44.925 83.749)"><rect width="4.419" height="34.317" fill="#9999a5"/></g></g><g transform="translate(441.729 4035.738)"><g transform="translate(42.127 2.837)"><rect width="15.135" height="48.395" fill="#ebebeb"/><g transform="translate(4.38 36.256)"><path d="M580.8,4141.285a2.2,2.2,0,1,0,2.2-2.2A2.2,2.2,0,0,0,580.8,4141.285Z" transform="translate(-579.816 -4138.097)" fill="#ebebeb"/><path d="M578.59,4140.059a3.187,3.187,0,1,1,3.187,3.187A3.192,3.192,0,0,1,578.59,4140.059Zm1.973,0a1.214,1.214,0,1,0,1.214-1.215A1.216,1.216,0,0,0,580.563,4140.059Z" transform="translate(-578.59 -4136.871)" fill="#ebebeb"/></g><g transform="translate(2.294 2.935)"><rect width="10.549" height="23.757" fill="#ebebeb"/></g><g transform="translate(2.294 2.935)"><rect width="10.549" height="2.201" fill="#cfd0d8"/></g><g transform="translate(2.294 24.491)"><rect width="10.549" height="2.201" fill="#ebebeb"/></g><g transform="translate(3.547 6.866)"><rect width="8.04" height="0.839" fill="#cfd0d8"/></g><g transform="translate(3.547 9.159)"><rect width="8.04" height="0.839" fill="#cfd0d8"/></g><g transform="translate(3.547 11.452)"><rect width="8.04" height="0.839" fill="#cfd0d8"/></g></g><g transform="translate(25.466 2.837)"><rect width="15.135" height="48.395" fill="#fff"/><g transform="translate(4.379 36.256)"><path d="M543.427,4141.285a2.2,2.2,0,1,0,2.2-2.2A2.2,2.2,0,0,0,543.427,4141.285Z" transform="translate(-542.44 -4138.097)" fill="#fff"/><path d="M541.214,4140.059a3.188,3.188,0,1,1,3.188,3.187A3.192,3.192,0,0,1,541.214,4140.059Zm1.974,0a1.215,1.215,0,1,0,1.215-1.215A1.216,1.216,0,0,0,543.188,4140.059Z" transform="translate(-541.214 -4136.871)" fill="#fff"/></g><g transform="translate(2.292 2.935)"><rect width="10.55" height="23.757" fill="#ebebeb"/></g><g transform="translate(2.292 2.935)"><rect width="10.55" height="2.201" fill="#fff"/></g><g transform="translate(2.292 24.491)"><rect width="10.55" height="2.201" fill="#fff"/></g><g transform="translate(3.545 6.866)"><rect width="8.042" height="0.839" fill="#fff"/></g><g transform="translate(3.545 9.159)"><rect width="8.042" height="0.839" fill="#fff"/></g><g transform="translate(3.545 11.452)"><rect width="8.042" height="0.839" fill="#fff"/></g></g><g transform="translate(0 0)"><g transform="translate(0)"><rect width="48.394" height="15.136" transform="translate(0 47.537) rotate(-79.196)" fill="#ffe200"/></g><g transform="translate(5.923 36.974)"><path d="M489.807,4136.121a2.2,2.2,0,1,0,2.576-1.75A2.2,2.2,0,0,0,489.807,4136.121Z" transform="translate(-488.782 -4133.345)" fill="#fff"/><path d="M490.147,4138.438a3.186,3.186,0,1,1,.6.057A3.249,3.249,0,0,1,490.147,4138.438Zm-.6-3.358a1.215,1.215,0,0,0,.966,1.421,1.215,1.215,0,1,0,.455-2.388,1.19,1.19,0,0,0-.23-.022A1.213,1.213,0,0,0,489.55,4135.08Z" transform="translate(-487.556 -4132.118)" fill="#fff"/></g><g transform="translate(6.32 3.313)"><rect width="23.757" height="10.549" transform="matrix(0.187, -0.982, 0.982, 0.187, 0, 23.336)" fill="#fff"/></g><g transform="translate(10.361 3.313)"><rect width="2.201" height="10.549" transform="translate(0 2.162) rotate(-79.197)" fill="#ffe200"/></g><g transform="translate(6.321 24.487)"><rect width="2.202" height="10.549" transform="matrix(0.187, -0.982, 0.982, 0.187, 0, 2.163)" fill="#ffe200"/></g><g transform="translate(11.111 7.409)"><rect width="0.839" height="8.042" transform="translate(0 0.824) rotate(-79.197)" fill="#ffe200"/></g><g transform="translate(10.681 9.662)"><rect width="0.839" height="8.042" transform="translate(0 0.824) rotate(-79.197)" fill="#ffe200"/></g><g transform="translate(10.251 11.914)"><rect width="0.839" height="8.042" transform="translate(0 0.824) rotate(-79.197)" fill="#ffe200"/></g></g></g></g><g transform="translate(466.586 3869.509)"><rect width="69.672" height="16.662" transform="translate(69.672 16.662) rotate(-180)" fill="#9999a5"/></g><text transform="translate(477.826 3883.708)" fill="#fff" font-size="15" font-family="TrebuchetMS-Bold, Trebuchet MS" font-weight="700"><tspan x="0" y="0">Cabinet</tspan></text></g></svg>