<svg xmlns="http://www.w3.org/2000/svg" width="107.473" height="99.39" viewBox="0 0 107.473 99.39"><g transform="translate(0 8.113)"><g transform="translate(34.768)"><g transform="translate(1.037)"><path d="M1394.963,2215.545c-2.121-3.523,1.162-5.033,1.278-8.347s-2.671-2.578-2.671-6.876,2.555-5.155,2.9-7.611-2.787-3.437-1.161-6.384,3.405-2.414,4.957-5.575c1.2-2.439,4.878-3.315,6.62-1.964s4.682-1.914,7.7.787,2.206,7.243,2.9,9.944,3.832,4.174,3.832,8.838-2.206,3.315-1.51,6.629,3.6,3.437,3.6,8.1c0,0-.116,4.664-4.761,3.8s-3.484,2.087-8.362-.368-3.717,2.7-7.084.368S1397.4,2219.6,1394.963,2215.545Z" transform="translate(-1393.569 -2178.155)" fill="#ffac00"/></g><g transform="translate(0 30.428)"><g transform="translate(14.47 36.776)"><path d="M1457.008,2432.148c.136-.373-.508-.686-1.282-.93s-1.382-.328-1.52.045.38.873,1.154,1.117S1456.872,2432.521,1457.008,2432.148Z" transform="translate(-1450.506 -2426.83)" fill="#f7c371"/><path d="M1454.435,2435.213c.136-.374-.509-.686-1.282-.929s-1.382-.33-1.52.044.381.872,1.154,1.117S1454.3,2435.585,1454.435,2435.213Z" transform="translate(-1448.659 -2429.029)" fill="#f7c371"/><path d="M1460.954,2426.427c-.356-.194-.995.633-1.615,1.633s-.989,1.792-.632,1.987,1.146-.458,1.767-1.458S1461.309,2426.622,1460.954,2426.427Z" transform="translate(-1453.65 -2423.521)" fill="#ffd8a3"/><path d="M1442.11,2416.2c1.634.595,6.918,2.072,6.428,3.876-.438,1.614-3.26,2.928-7.386-2.537Z" transform="translate(-1441.153 -2416.204)" fill="#ffd8a3"/></g><path d="M1401.247,2286.042c-4.09-1.961-11.45,24.168-11.35,25.129,0,0,2.44,2.43,3.183,1.571C1395.005,2310.52,1403.073,2286.917,1401.247,2286.042Z" transform="translate(-1389.896 -2285.937)" fill="#219ecc"/><path d="M1404.946,2383.9c2.62-2.245-12.128-14-12.831-14.222,0,0-2.445.958-2.071,1.734C1391.012,2373.419,1403.776,2384.9,1404.946,2383.9Z" transform="translate(-1389.975 -2346.037)" fill="#219ecc"/><path d="M1432.764,2414.758l-.911.6-3.906-1.4a8.478,8.478,0,0,1,1.825-1.473C1430.237,2412.38,1432.764,2414.758,1432.764,2414.758Z" transform="translate(-1417.205 -2376.755)" fill="#eaeaea"/><path d="M1438.833,2408.574l.592-.924-1.494-3.875a8.542,8.542,0,0,0-1.462,1.856C1436.374,2406.1,1438.833,2408.574,1438.833,2408.574Z" transform="translate(-1423.32 -2370.508)" fill="#eaeaea"/></g><g transform="translate(24.219 31.218)"><path d="M1475.893,2288.878c3.924-2.274,13.3,23.2,13.281,24.164,0,0-2.242,2.614-3.051,1.816C1484.031,2312.792,1474.141,2289.893,1475.893,2288.878Z" transform="translate(-1475.686 -2288.734)" fill="#219ecc"/></g><g transform="translate(4.476 19.796)"><path d="M1405.752,2317.751s5.542,4.909,11.085,6.75l2.887-6.238,2.656,6.238s7.492-2.111,10.507-6.75c-6.105-8.852-8.517-16.239-2.186-25.454,0,0-2.548-16.477-11.785-16.886s-10.883,17.565-10.883,17.565C1414.036,2301.976,1416,2305.884,1405.752,2317.751Z" transform="translate(-1405.752 -2267.745)" fill="#03b4e9"/><path d="M1439.1,2283.117a5.594,5.594,0,0,1,3.578,1.291,11.54,11.54,0,0,0,.893-7.424c-5.623-4.229-9.089.438-9.089.438a10.566,10.566,0,0,0,1.246,6.829A5.581,5.581,0,0,1,1439.1,2283.117Z" transform="translate(-1426.278 -2267.607)" fill="#fff"/><path d="M1440.323,2276.667s-.936,4.691,3.317,9.783c0,0,3.615-4.955,2.594-10.146C1442.577,2272.81,1440.323,2276.667,1440.323,2276.667Z" transform="translate(-1430.5 -2267.34)" fill="#f7c371"/><rect width="4.824" height="9.043" transform="translate(10.402)" fill="#f7c371"/><path d="M1457.036,2353.344a.678.678,0,1,0-.678.678A.678.678,0,0,0,1457.036,2353.344Z" transform="translate(-1441.584 -2323.195)" fill="#fff"/><path d="M1457.036,2372.122a.678.678,0,1,0-.678.679A.678.678,0,0,0,1457.036,2372.122Z" transform="translate(-1441.584 -2336.672)" fill="#fff"/><path d="M1457.036,2409.678a.678.678,0,1,0-.678.678A.678.678,0,0,0,1457.036,2409.678Z" transform="translate(-1441.584 -2363.626)" fill="#fff"/><path d="M1457.036,2390.9a.678.678,0,1,0-.678.678A.679.679,0,0,0,1457.036,2390.9Z" transform="translate(-1441.584 -2350.148)" fill="#fff"/></g><g transform="translate(7.224 4.79)"><path d="M1426.4,2216.513c2.93-.652,7.748-10.127,2.834-19.365-.994-1.867-3.411-2.531-7.5-1.622-4.5,1-6.285,2.673-6.254,4.357C1415.7,2211.791,1423.406,2217.179,1426.4,2216.513Z" transform="translate(-1415.484 -2195.123)" fill="#ffd8a3"/><path d="M1471.646,2226.45c-.005-.677-.208-1.182.291-1.186s.909.541.914,1.218-.395,1.228-.894,1.232S1471.652,2227.126,1471.646,2226.45Z" transform="translate(-1455.759 -2216.755)" fill="#f7c371"/><path d="M1417.674,2238.256c-.267-.621-.28-1.169-.752-.966a1.273,1.273,0,0,0,.966,2.255C1418.361,2239.34,1417.941,2238.879,1417.674,2238.256Z" transform="translate(-1416.157 -2225.355)" fill="#f7c371"/><g transform="translate(8.143 11.134)"><path d="M1446.208,2238.733a2.207,2.207,0,0,1-.8.56,1.278,1.278,0,0,1-.967-.206,10.281,10.281,0,0,1,.171-3.144C1444.838,2235.867,1446.147,2238.379,1446.208,2238.733Z" transform="translate(-1444.379 -2235.552)" fill="#ffab00"/><path d="M1445.515,2237.4c.011.055-.229.2-.321.219-.157.035-.364,0-.393-.1-.067-.232-.787-2.878-.308-2.958C1445.018,2234.476,1445.445,2237.06,1445.515,2237.4Z" transform="translate(-1444.329 -2234.562)" fill="#ffd8a3"/></g><g transform="translate(1.386 4.635)"><path d="M1420.393,2218.146c.754-1.029,2.5-3.121,4.485-2.722C1423.284,2215.61,1422.3,2216.109,1420.393,2218.146Z" transform="translate(-1420.393 -2214.293)" fill="#2d356b"/><path d="M1450.395,2213.067c-1.035-.718-3.356-2.126-5.341-1.245C1446.764,2211.567,1447.914,2211.752,1450.395,2213.067Z" transform="translate(-1438.092 -2211.542)" fill="#2d356b"/><path d="M1430.748,2232.5a.832.832,0,1,1,1.161.617A.942.942,0,0,1,1430.748,2232.5Z" transform="translate(-1427.743 -2225.628)" fill="#2d356b"/><path d="M1431.463,2238.173c-.438-.425-1.084-.8-2.44-.155A4.89,4.89,0,0,1,1431.463,2238.173Z" transform="translate(-1426.587 -2230.294)" fill="#ffd8a3"/><path d="M1431.206,2231.181c-.319-.521-.851-1.046-2.326-.755A4.885,4.885,0,0,1,1431.206,2231.181Z" transform="translate(-1426.485 -2225.035)" fill="#2d356b"/><path d="M1454.867,2225.921c-.319-.521-.851-1.046-2.325-.755A4.887,4.887,0,0,1,1454.867,2225.921Z" transform="translate(-1443.466 -2221.26)" fill="#2d356b"/><path d="M1455.173,2226.537a.832.832,0,1,0-.179,1.3A.941.941,0,0,0,1455.173,2226.537Z" transform="translate(-1444.23 -2221.888)" fill="#2d356b"/><path d="M1451.964,2232.329a2.329,2.329,0,0,1,2.717.543A5.906,5.906,0,0,0,1451.964,2232.329Z" transform="translate(-1443.051 -2226.311)" fill="#ffd8a3"/></g><g transform="translate(8.062 16.015)"><path d="M1445.347,2253.418a.99.99,0,0,1,1.033-.742c.168-.053.336-.512,1.05-.191.218.1-.38.3-.947.572S1445.254,2253.639,1445.347,2253.418Z" transform="translate(-1444.972 -2252.225)" fill="#f36973"/><path d="M1447.36,2256.168c-.107-.214.248-.366.693-.59s.811-.432.918-.218-.166.568-.611.791S1447.467,2256.382,1447.36,2256.168Z" transform="translate(-1446.409 -2254.306)" fill="#f36973"/><path d="M1447.25,2252.678a3.429,3.429,0,0,0-1.5.35c-.469.211-1.286.489-1.312.718,0,0,.2.9,1.771.206C1447.31,2253.5,1447.25,2252.678,1447.25,2252.678Z" transform="translate(-1444.326 -2252.437)" fill="#ffab00"/><path d="M1445.193,2253.852c.127-.194.552-.328,1.176-.611a2.134,2.134,0,0,1,1.269-.259A3.817,3.817,0,0,1,1445.193,2253.852Z" transform="translate(-1444.868 -2252.648)" fill="#fff"/><path d="M1444.058,2256.135a.12.12,0,1,1,.167.07A.129.129,0,0,1,1444.058,2256.135Z" transform="translate(-1444.041 -2254.792)" fill="#ffab00"/><ellipse cx="0.128" cy="0.15" rx="0.128" ry="0.15" transform="matrix(0.894, -0.448, 0.448, 0.894, 2.748, 0.115)" fill="#ffab00"/></g></g><g transform="translate(5.325 2.902)"><path d="M1448.016,2193.46c2.158,4.389.286,9.588.286,9.588-.072-1.609-1.7-9.947-8.46-12.169C1439.842,2190.879,1445.859,2189.07,1448.016,2193.46Z" transform="translate(-1431.067 -2189.924)" fill="#ffac00"/><path d="M1418.4,2190.662c-.73,2.415-1.9,8.341-9.425,12.8C1407.7,2190.747,1412.2,2191.468,1418.4,2190.662Z" transform="translate(-1408.759 -2190.033)" fill="#ffac00"/><path d="M1434.165,2188.989c.155,2.815.035,6.847-2.223,9.406,2.992-2.381,3.3-7.117,3.335-9.962C1434.881,2188.616,1434.513,2188.8,1434.165,2188.989Z" transform="translate(-1425.397 -2188.433)" fill="#ffac00"/></g></g><path d="M1340.373,2403.775h-93.242v15.571h93.832Z" transform="translate(-1242.226 -2340.08)" fill="#ffe200"/><path d="M1462.326,2388.87c-2.195-2.662,14.355-11.707,15.085-11.8,0,0,2.243,1.365,1.742,2.064C1477.855,2380.941,1463.306,2390.059,1462.326,2388.87Z" transform="translate(-1408.872 -2320.912)" fill="#219ecc"/><g transform="translate(27.189 46.248)"><path d="M1388.657,2362.573h-24.723a1.528,1.528,0,0,1-1.5-1.243l-3.332-17.541a1.53,1.53,0,0,1,1.5-1.814h24.723a1.529,1.529,0,0,1,1.5,1.244l3.332,17.541a1.528,1.528,0,0,1-1.5,1.814Z" transform="translate(-1359.074 -2341.974)" fill="#cecfd6"/><path d="M1454.214,2343.951a.829.829,0,1,0-1.22.571l3.332,17.541a.829.829,0,1,0,1.22-.571Z" transform="translate(-1426.46 -2342.708)" fill="#fff"/><path d="M1416.036,2416.679h-38a1.74,1.74,0,0,1-1.74-1.74h41.482a1.74,1.74,0,0,1-1.74,1.74Z" transform="translate(-1371.432 -2394.34)" fill="#9898a3"/><path d="M1482.563,2414.939h-16a1.868,1.868,0,0,0,1.974,1.74h12.048A1.868,1.868,0,0,0,1482.563,2414.939Z" transform="translate(-1436.219 -2394.34)" fill="#fff"/><circle cx="1.755" cy="1.755" r="1.755" transform="translate(12.292 8.814)" fill="#eaeaea"/></g><g transform="translate(61.448 0.317)"><g transform="translate(13.449)"><path d="M1618.794,2235.118c.135-1.413.765-2.177,1.391-2.177s1.008.764.873,2.177a2.109,2.109,0,0,1-1.792,2.068C1618.64,2237.186,1618.659,2236.53,1618.794,2235.118Z" transform="translate(-1604.76 -2217.791)" fill="#7d87a8"/><path d="M1572.072,2235.4c-.094-1.413-.729-2.177-1.384-2.177s-1.081.764-.987,2.177a2.064,2.064,0,0,0,1.809,2.068C1572.164,2237.47,1572.167,2236.814,1572.072,2235.4Z" transform="translate(-1569.571 -2217.995)" fill="#7d87a8"/><path d="M1574.818,2214.4c.094.76,3.076,4.042,6.473,4.042s6.209-2.991,6.8-4.2-1.789-16.656-3.175-17.95-6.973-.438-7.448.243C1576.34,2198.15,1574.449,2211.411,1574.818,2214.4Z" transform="translate(-1573.22 -2191.006)" fill="#7d87a8"/><path d="M1579.514,2202.413c.489.236,2.421-4.772,2.826-5.609s.336-1.708-.153-1.945-1.214.251-1.618,1.089S1579.024,2202.176,1579.514,2202.413Z" transform="translate(-1576.537 -2190.416)" fill="#7d87a8"/><path d="M1608.653,2201.5c.514-.175-.845-5.257-1.144-6.138s-.958-1.454-1.473-1.279-.69,1.03-.391,1.91S1608.138,2201.671,1608.653,2201.5Z" transform="translate(-1595.273 -2189.878)" fill="#7d87a8"/><path d="M1588.685,2260.911h-7.678l-1.149,7.034c4.179,2.178,6.621,1.942,9.876-.475Z" transform="translate(-1576.87 -2237.865)" fill="#7d87a8"/><path d="M1597.26,2264.975c0-.148-.271-.269-.606-.269s-.606.121-.606.269.272.162.606.162S1597.26,2265.125,1597.26,2264.975Z" transform="translate(-1588.489 -2240.588)" fill="#7d87a8"/><path d="M1572.863,2206.8c-.269-1.725-.74-14.093.375-15.725s7.681-2.7,8.708-2.441c2.237.566,1.845,2.258,1.845,2.258a3.76,3.76,0,0,1,1.885.546c.772.543,2.381,8.336,1.094,14.229-.578,2.65-2.857,4.959-6.792,5.067C1575.1,2210.872,1573.2,2208.948,1572.863,2206.8Z" transform="translate(-1571.612 -2185.967)" fill="#7d87a8"/><path d="M1572.264,2195.073c-.8.241-2.545-1.093-1.721-1.8,0,0-1.571-1.2-.293-1.882,0,0-1.285-1.58-.03-2,0,0-1.953-2.487-.244-2.445,0,0-.9-2.661.844-2.27,0,0,.307-2.892,1.693-1.906,0,0-.137-2.75,1.624-1.228,0,0,1.168-3.187,1.635-.962,0,0,1.468-2.186,1.919-.634,0,0,3.332-1.573,2.275.111,0,0,3.381-1.126,2.4.527,0,0,3.291.552,1.581,2.036,0,0,2.468,2.253.331,2.439,0,0,1.892,3.19-.193,2.563,0,0,1.823,3.71-.531,2.421,0,0,1.7,4.206-.311,2.712,0,0,.413,5.117-1.073,2.859Z" transform="translate(-1569.276 -2179.277)" fill="#7d87a8"/><path d="M1578.72,2228.65a26.77,26.77,0,0,1-6.849-.828,17.327,17.327,0,0,0,.348,7.131c.335,2.144,2.236,4.068,7.115,3.935,3.935-.108,6.308-2.4,6.792-5.067.712-3.931.712-3.931.466-6A40.737,40.737,0,0,1,1578.72,2228.65Z" transform="translate(-1570.968 -2214.117)" fill="#7d87a8"/></g><g transform="translate(0 29.062)"><g transform="translate(0 4.49)"><path d="M1529.815,2426.008l-.607-2.168,3.383-.075-.6,2.125Z" transform="translate(-1527.071 -2388.295)" fill="#7d87a8"/><path d="M1530.819,2425.057c.464-.089.877.023,1.207.7l.564-1.993-3.383.075.607,2.168.115-.006A.972.972,0,0,1,1530.819,2425.057Z" transform="translate(-1527.071 -2388.295)" fill="#7d87a8"/><path d="M1522.555,2320.589c-1.611-.056-.755-14.6,3.383-22.465,0,0,5.583,5.633,5.855,9.79C1531.793,2307.913,1529.055,2320.814,1522.555,2320.589Z" transform="translate(-1521.749 -2298.124)" fill="#7d87a8"/><path d="M1521.746,2362.468s-.807,6.01,1.993,17.843a5.138,5.138,0,0,0,3.7-.7s2.24-12.314-.7-16.745C1526.741,2362.871,1523.436,2360.822,1521.746,2362.468Z" transform="translate(-1521.638 -2343.844)" fill="#7d87a8"/><path d="M1534.269,2363.353c.919.378,2.138,1.028,2.015,1.388C1536.032,2365.476,1534.269,2363.353,1534.269,2363.353Z" transform="translate(-1530.703 -2344.938)" fill="#7d87a8"/><path d="M1535,2366.051c.535-.838,1.39-1.923,1.723-1.738C1537.4,2364.691,1535,2366.051,1535,2366.051Z" transform="translate(-1531.228 -2345.612)" fill="#7d87a8"/><path d="M1543.11,2335.459a55.3,55.3,0,0,1-5.3,8.738c2.123,4.842.819,16.071.738,16.748.163-.076.329-.157.5-.254,0,0,1.974-10.853-.216-15.847C1541.283,2341.91,1542.649,2337.261,1543.11,2335.459Z" transform="translate(-1533.246 -2324.919)" fill="#7d87a8"/><path d="M1527.285,2418.252a.509.509,0,0,0-.074-1.013.5.5,0,0,0-.128.018Z" transform="translate(-1525.546 -2383.611)" fill="#7d87a8"/></g><g transform="translate(32.862 3.984)"><path d="M1656.842,2424.216l.607-2.168-3.383-.075.6,2.124Z" transform="translate(-1649.542 -2386.503)" fill="#7d87a8"/><path d="M1655.838,2423.265c-.464-.089-.877.023-1.207.7l-.565-1.993,3.383.075-.607,2.168-.115-.007A.971.971,0,0,0,1655.838,2423.265Z" transform="translate(-1649.542 -2386.503)" fill="#7d87a8"/><path d="M1647.278,2318.8c1.611-.055.755-14.6-3.383-22.464,0,0-5.583,5.633-5.855,9.79C1638.04,2306.121,1640.777,2319.021,1647.278,2318.8Z" transform="translate(-1638.04 -2296.332)" fill="#7d87a8"/><path d="M1656.686,2360.676s.807,6.01-1.993,17.843a5.137,5.137,0,0,1-3.7-.7s-2.24-12.314.7-16.745C1651.69,2361.079,1655,2359.03,1656.686,2360.676Z" transform="translate(-1646.749 -2342.052)" fill="#7d87a8"/><path d="M1655.844,2361.56c-.919.379-2.139,1.028-2.015,1.388C1654.081,2363.683,1655.844,2361.56,1655.844,2361.56Z" transform="translate(-1649.365 -2343.145)" fill="#7d87a8"/><path d="M1655.567,2364.258c-.535-.838-1.39-1.924-1.723-1.739C1653.166,2362.9,1655.567,2364.258,1655.567,2364.258Z" transform="translate(-1649.296 -2343.819)" fill="#7d87a8"/><path d="M1638.679,2333.666a55.278,55.278,0,0,0,5.3,8.738c-2.123,4.842-.819,16.071-.738,16.748-.163-.075-.329-.157-.5-.254,0,0-1.974-10.853.216-15.847C1640.505,2340.117,1639.14,2335.468,1638.679,2333.666Z" transform="translate(-1638.499 -2323.126)" fill="#7d87a8"/><path d="M1666.347,2416.46a.509.509,0,0,1,.074-1.013.489.489,0,0,1,.129.019Z" transform="translate(-1658.043 -2381.819)" fill="#7d87a8"/></g><path d="M1536.2,2286.779c3,12.217,8.661,40.658,8.661,40.658,1.662,1.6,5.07,2.249,8.572,2.221l.564-1.571.935,1.519c3.585-.221,7.022-1.115,8.531-2.392.978-5.273,7.282-41.028,7.282-41.028C1552.416,2276.927,1536.2,2286.779,1536.2,2286.779Z" transform="translate(-1532.087 -2282.219)" fill="#7d87a8"/></g><path d="M1586.776,2275.217c-1.478-1.56-10.571-1.778-12.536.006l-.675,1.865c4.149.474,7.872.351,14.355-.057Z" transform="translate(-1558.905 -2247.234)" fill="#7d87a8"/></g><g transform="translate(2.768 4.902)"><g transform="translate(13.565)"><path d="M1336.719,2242.035c.135-1.412.765-2.176,1.39-2.176s1.008.764.873,2.176a2.108,2.108,0,0,1-1.792,2.069C1336.566,2244.1,1336.584,2243.448,1336.719,2242.035Z" transform="translate(-1322.8 -2227.341)" fill="#7d87a8"/><path d="M1289.995,2242.322c-.094-1.413-.729-2.177-1.384-2.177s-1.081.764-.987,2.177a2.065,2.065,0,0,0,1.809,2.068C1290.087,2244.39,1290.089,2243.734,1289.995,2242.322Z" transform="translate(-1287.61 -2227.547)" fill="#7d87a8"/><path d="M1292.74,2221.323c.094.76,3.076,4.042,6.472,4.042s6.208-2.992,6.8-4.2-1.79-16.656-3.175-17.949-6.973-.439-7.447.243C1294.263,2205.071,1292.372,2218.331,1292.74,2221.323Z" transform="translate(-1291.258 -2200.558)" fill="#7d87a8"/><path d="M1297.436,2209.333c.489.236,2.421-4.771,2.826-5.609s.336-1.708-.153-1.945-1.214.251-1.619,1.089S1296.947,2209.1,1297.436,2209.333Z" transform="translate(-1294.576 -2199.968)" fill="#7d87a8"/><path d="M1326.576,2208.415c.514-.174-.845-5.257-1.144-6.138s-.958-1.454-1.473-1.279-.689,1.03-.391,1.91S1326.062,2208.59,1326.576,2208.415Z" transform="translate(-1313.313 -2199.428)" fill="#7d87a8"/><path d="M1306.607,2267.831h-7.678l-1.149,7.034c4.179,2.178,6.621,1.942,9.876-.476Z" transform="translate(-1294.91 -2247.417)" fill="#7d87a8"/><path d="M1315.182,2271.9c0-.148-.271-.27-.606-.27s-.606.121-.606.27.272.162.606.162S1315.182,2272.044,1315.182,2271.9Z" transform="translate(-1306.528 -2250.14)" fill="#7d87a8"/><path d="M1290.786,2213.723c-.269-1.725-.739-14.093.375-15.725s7.681-2.7,8.708-2.441c2.237.566,1.844,2.257,1.844,2.257a3.76,3.76,0,0,1,1.885.546c.772.544,2.381,8.336,1.094,14.23-.578,2.65-2.857,4.959-6.792,5.067C1293.022,2217.792,1291.121,2215.867,1290.786,2213.723Z" transform="translate(-1289.651 -2195.519)" fill="#7d87a8"/><path d="M1297.634,2209.591a26.783,26.783,0,0,1-6.849-.828c-.608,3.625-.228,12.981,0,14.466.334,2.144,2.236,4.068,7.115,3.935,3.935-.108,6.214-2.417,6.792-5.067a30.12,30.12,0,0,0-.6-13.232A27.334,27.334,0,0,1,1297.634,2209.591Z" transform="translate(-1289.653 -2205.024)" fill="#7d87a8"/></g><g transform="translate(0 26.43)"><g transform="translate(0 4.49)"><path d="M1247.738,2432.93l-.607-2.167,3.383-.075-.6,2.125Z" transform="translate(-1244.994 -2395.217)" fill="#7d87a8"/><path d="M1248.742,2431.977c.464-.089.877.023,1.207.7l.564-1.993-3.383.074.607,2.169.115-.006A.973.973,0,0,1,1248.742,2431.977Z" transform="translate(-1244.994 -2395.216)" fill="#7d87a8"/><path d="M1240.477,2327.509c-1.611-.055-.755-14.6,3.383-22.464,0,0,5.583,5.633,5.855,9.789C1249.715,2314.834,1246.978,2327.734,1240.477,2327.509Z" transform="translate(-1239.671 -2305.045)" fill="#7d87a8"/><path d="M1239.669,2369.388s-.807,6.01,1.993,17.843a5.138,5.138,0,0,0,3.7-.7s2.24-12.314-.7-16.745C1244.664,2369.792,1241.358,2367.742,1239.669,2369.388Z" transform="translate(-1239.561 -2350.764)" fill="#7d87a8"/><path d="M1252.191,2370.272c.919.379,2.139,1.028,2.015,1.388C1253.954,2372.395,1252.191,2370.272,1252.191,2370.272Z" transform="translate(-1248.625 -2351.858)" fill="#7d87a8"/><path d="M1252.923,2372.97c.535-.838,1.391-1.923,1.723-1.738C1255.324,2371.61,1252.923,2372.97,1252.923,2372.97Z" transform="translate(-1249.151 -2352.532)" fill="#7d87a8"/><path d="M1261.032,2342.379a55.279,55.279,0,0,1-5.3,8.738c2.123,4.842.818,16.071.738,16.748.163-.076.328-.157.5-.254,0,0,1.974-10.853-.215-15.847C1259.206,2348.83,1260.571,2344.181,1261.032,2342.379Z" transform="translate(-1251.169 -2331.839)" fill="#7d87a8"/><path d="M1245.208,2425.172a.509.509,0,0,0-.074-1.013.5.5,0,0,0-.129.019Z" transform="translate(-1243.468 -2390.531)" fill="#7d87a8"/></g><g transform="translate(32.862 3.984)"><path d="M1374.765,2431.136l.607-2.168-3.383-.075.6,2.125Z" transform="translate(-1367.465 -2393.423)" fill="#7d87a8"/><path d="M1373.76,2430.184c-.464-.089-.877.023-1.207.7l-.564-1.993,3.383.075-.607,2.168-.115-.006A.972.972,0,0,0,1373.76,2430.184Z" transform="translate(-1367.465 -2393.423)" fill="#7d87a8"/><path d="M1365.2,2325.716c1.611-.055.755-14.6-3.383-22.464,0,0-5.583,5.633-5.855,9.789C1355.963,2313.041,1358.7,2325.941,1365.2,2325.716Z" transform="translate(-1355.963 -2303.252)" fill="#7d87a8"/><path d="M1374.608,2367.6s.807,6.011-1.993,17.843a5.139,5.139,0,0,1-3.7-.7s-2.24-12.314.7-16.745C1369.612,2368,1372.918,2365.949,1374.608,2367.6Z" transform="translate(-1364.672 -2348.971)" fill="#7d87a8"/><path d="M1373.767,2368.48c-.919.379-2.139,1.028-2.015,1.388C1372,2370.6,1373.767,2368.48,1373.767,2368.48Z" transform="translate(-1367.288 -2350.065)" fill="#7d87a8"/><path d="M1373.492,2371.176c-.535-.837-1.39-1.923-1.723-1.738C1371.091,2369.817,1373.492,2371.176,1373.492,2371.176Z" transform="translate(-1367.22 -2350.738)" fill="#7d87a8"/><path d="M1356.6,2340.586a55.243,55.243,0,0,0,5.3,8.738c-2.123,4.842-.819,16.072-.738,16.748-.163-.075-.329-.157-.5-.254,0,0-1.974-10.853.215-15.847C1358.428,2347.037,1357.063,2342.388,1356.6,2340.586Z" transform="translate(-1356.422 -2330.046)" fill="#7d87a8"/><path d="M1384.267,2423.379a.509.509,0,0,1,.074-1.013.486.486,0,0,1,.128.019Z" transform="translate(-1375.963 -2388.739)" fill="#7d87a8"/></g><path d="M1254.12,2293.7c3,12.217,8.661,40.658,8.661,40.658,1.662,1.6,5.07,2.249,8.573,2.221l.564-1.572.935,1.52c3.585-.221,7.022-1.115,8.531-2.392.978-5.273,7.282-41.027,7.282-41.027C1270.339,2283.848,1254.12,2293.7,1254.12,2293.7Z" transform="translate(-1250.01 -2289.141)" fill="#7d87a8"/></g><path d="M1304.7,2282.137c-1.478-1.559-10.571-1.777-12.536.006l-.675,1.865c4.149.474,7.874.351,14.355-.057Z" transform="translate(-1276.828 -2256.785)" fill="#7d87a8"/></g><g transform="translate(0 47.056)"><path d="M1278.2,2377.046h-46.308l-2.113-26.549c-.24-3.029,1.625-5.66,4.016-5.66h38.2c2.071,0,3.806,2,4.015,4.623Z" transform="translate(-1229.755 -2344.837)" fill="#2e3667"/><path d="M1559.7,2350.667l-2.8,26.379H1510.59l2.945-27.757c.271-2.55,1.979-4.452,4-4.452H1555.7C1558.14,2344.837,1560.024,2347.582,1559.7,2350.667Z" transform="translate(-1452.26 -2344.837)" fill="#2e3667"/></g></g><g transform="translate(10.816 0)"><path d="M1346.61,2157.34h0l-72.3,91.467-6.247-7.923,72.3-91.467Z" transform="translate(-1268.068 -2149.417)" fill="#03b4e9"/><path d="M1268.068,2180.255h0l83.559,78.09,5.469-8.931-83.559-78.09Z" transform="translate(-1268.068 -2165.14)" fill="#03b4e9"/></g></svg>