<svg xmlns="http://www.w3.org/2000/svg" width="125.696" height="141.482" viewBox="0 0 125.696 141.482"><g transform="translate(-439.524 -2730.66)"><g transform="translate(439.524 2765.531)"><g transform="translate(4.546)"><path d="M513.116,3338.531c5.817-12.164,13.44-43.931.953-56.754-6.957-7.144-12.483-2.517-12.483-2.517s-7.939-3.709-13.759,8.8c-6.741,14.488,4.053,46.625,8.087,54.117,0,0,7.163-32.7,9.838-33.13S513.116,3338.531,513.116,3338.531Z" transform="translate(-485.663 -3277.786)" fill="#2d356b"/></g><g transform="translate(0 41.776)"><g transform="translate(20.341 51.696)"><path d="M557.987,3603.275c.19-.525-.715-.964-1.8-1.307s-1.943-.461-2.137.063.534,1.228,1.622,1.571S557.8,3603.8,557.987,3603.275Z" transform="translate(-548.847 -3595.799)" fill="#7b88ac"/><path d="M554.659,3607.24c.191-.525-.714-.964-1.8-1.306s-1.943-.464-2.136.062.535,1.227,1.622,1.571S554.467,3607.763,554.659,3607.24Z" transform="translate(-546.539 -3598.547)" fill="#7b88ac"/><path d="M563.043,3595.748c-.5-.273-1.4.89-2.27,2.295s-1.39,2.518-.889,2.793,1.611-.643,2.484-2.049S563.543,3596.022,563.043,3595.748Z" transform="translate(-552.777 -3591.663)" fill="#7b88ac"/><path d="M538.5,3582.519c2.3.837,9.724,2.913,9.037,5.45-.615,2.269-4.583,4.116-10.383-3.566Z" transform="translate(-537.158 -3582.519)" fill="#7b88ac"/></g><path d="M486.8,3414.129c-5.749-2.756-16.095,33.973-15.954,35.324,0,0,3.429,3.416,4.475,2.208C478.025,3448.538,489.366,3415.36,486.8,3414.129Z" transform="translate(-470.843 -3413.982)" fill="#7b88ac"/><path d="M491.987,3542.317c3.683-3.156-17.049-19.682-18.036-19.992,0,0-3.437,1.347-2.911,2.438C472.4,3527.583,490.342,3543.726,491.987,3542.317Z" transform="translate(-470.941 -3489.092)" fill="#7b88ac"/><path d="M526.843,3580.9l-1.281.843-5.49-1.971a11.92,11.92,0,0,1,2.565-2.07C523.292,3577.561,526.843,3580.9,526.843,3580.9Z" transform="translate(-504.972 -3527.482)" fill="#7b88ac"/><path d="M534.421,3573.186l.833-1.3-2.1-5.448a12.013,12.013,0,0,0-2.055,2.609C530.965,3569.706,534.421,3573.186,534.421,3573.186Z" transform="translate(-512.614 -3519.675)" fill="#7b88ac"/></g><g transform="translate(20.408 41.232)"><g transform="translate(0 48.319)"><path d="M540.611,3586.549c-.13-.47.689-.791,1.659-1.014s1.724-.267,1.856.2-.55,1.032-1.521,1.255S540.741,3587.018,540.611,3586.549Z" transform="translate(-539.609 -3580.577)" fill="#7b88ac"/><path d="M543.234,3590.232c-.13-.47.689-.79,1.659-1.012s1.724-.27,1.856.2-.55,1.031-1.521,1.256S543.365,3590.7,543.234,3590.232Z" transform="translate(-541.428 -3583.13)" fill="#7b88ac"/><path d="M537.632,3579.271c.454-.2,1.156.871,1.819,2.155s1.037,2.289.582,2.494-1.359-.671-2.022-1.956S537.177,3579.475,537.632,3579.271Z" transform="translate(-537.377 -3576.329)" fill="#7b88ac"/><path d="M545.772,3569.735c-2.058.57-8.669,1.865-8.245,4.122.379,2.018,3.706,3.9,9.288-2.388Z" transform="translate(-537.467 -3569.735)" fill="#7b88ac"/></g><path d="M577.194,3412.415c5.495-3.233,18.917,32.486,18.892,33.844,0,0-3.128,3.695-4.272,2.58C588.854,3445.956,574.741,3413.859,577.194,3412.415Z" transform="translate(-564.783 -3412.208)" fill="#7b88ac"/><path d="M565.095,3533.251c-3.422-3.437,18.552-18.272,19.56-18.5,0,0,3.319,1.615,2.709,2.66C585.787,3520.113,566.623,3534.786,565.095,3533.251Z" transform="translate(-556.342 -3483.295)" fill="#7b88ac"/><path d="M563.177,3569.023l1.211.942,5.629-1.531s-1.752-2.073-2.393-2.267S563.177,3569.023,563.177,3569.023Z" transform="translate(-555.263 -3518.936)" fill="#7b88ac"/><path d="M561.719,3560.831l-.727-1.362,2.524-5.265a12.012,12.012,0,0,1,1.843,2.764C565.439,3557.635,561.719,3560.831,561.719,3560.831Z" transform="translate(-553.748 -3510.649)" fill="#7b88ac"/></g><g transform="translate(6.292 26.83)"><path d="M491.357,3459.882s7.791,6.9,15.582,9.488h7.791s10.532-2.967,14.77-9.488c-8.582-12.444-11.973-22.828-3.073-35.78,0,0-3.582-23.163-16.567-23.738s-15.3,24.692-15.3,24.692C503,3437.706,505.766,3443.2,491.357,3459.882Z" transform="translate(-491.357 -3389.588)" fill="#9ea9fc"/><path d="M535.039,3411.218a7.862,7.862,0,0,1,5.03,1.815,16.221,16.221,0,0,0,1.256-10.437c-7.9-5.944-12.776.617-12.776.617s-1.035,4.094,1.751,9.6A7.846,7.846,0,0,1,535.039,3411.218Z" transform="translate(-517.01 -3389.416)" fill="#fff"/><path d="M536.094,3402.193s-1.315,6.6,4.663,13.752c0,0,5.081-6.965,3.646-14.262C539.262,3396.771,536.094,3402.193,536.094,3402.193Z" transform="translate(-522.286 -3389.082)" fill="#f7c371"/><rect width="6.781" height="12.712" transform="translate(14.622)" fill="#f7c371"/><path d="M557.858,3501.268a.954.954,0,1,0-.954.954A.954.954,0,0,0,557.858,3501.268Z" transform="translate(-536.138 -3458.887)" fill="#fff"/><path d="M557.858,3525.563a.954.954,0,1,0-.954.954A.953.953,0,0,0,557.858,3525.563Z" transform="translate(-536.138 -3475.73)" fill="#fff"/><path d="M557.858,3574.152a.954.954,0,1,0-.954.953A.953.953,0,0,0,557.858,3574.152Z" transform="translate(-536.138 -3509.415)" fill="#fff"/><path d="M557.858,3549.858a.954.954,0,1,0-.954.953A.953.953,0,0,0,557.858,3549.858Z" transform="translate(-536.138 -3492.573)" fill="#fff"/></g><g transform="translate(10.345 5.562)"><path d="M520.443,3325.937c4.1-1.008,10.568-14.478,3.37-27.3-1.456-2.593-4.873-3.449-10.591-2.043-6.289,1.548-8.748,3.956-8.652,6.322C505.25,3319.639,516.25,3326.969,520.443,3325.937Z" transform="translate(-504.568 -3295.919)" fill="#ffd8a3"/><path d="M577.675,3335.9c-.029-.951-.33-1.655.372-1.676s1.295.731,1.323,1.682-.516,1.738-1.217,1.759S577.7,3336.851,577.675,3335.9Z" transform="translate(-555.189 -3322.474)" fill="#f7c371"/><path d="M508.381,3352.7c-.394-.865-.43-1.634-1.088-1.334a1.79,1.79,0,0,0,1.429,3.138C509.38,3354.2,508.776,3353.564,508.381,3352.7Z" transform="translate(-505.99 -3334.31)" fill="#f7c371"/><g transform="translate(11.662 15.687)"><path d="M545.449,3352.713a3.082,3.082,0,0,1-1.1.812,1.793,1.793,0,0,1-1.365-.259c-.138-.325-.169-4.311.14-4.424S545.352,3352.217,545.449,3352.713Z" transform="translate(-542.791 -3348.294)" fill="#ffab00"/><path d="M544.329,3351.021c.018.077-.317.287-.445.318-.22.054-.512.007-.555-.127-.1-.324-1.2-4.021-.527-4.148C543.538,3346.924,544.22,3350.541,544.329,3351.021Z" transform="translate(-542.587 -3347.06)" fill="#ffd8a3"/></g><g transform="translate(2.068 6.508)"><path d="M511.309,3326.568c1.027-1.469,3.408-4.465,6.216-3.966C515.292,3322.912,513.923,3323.644,511.309,3326.568Z" transform="translate(-511.309 -3320.887)" fill="#2d356b"/><path d="M550.382,3319.158c-1.477-.977-4.784-2.881-7.545-1.581C545.232,3317.164,546.855,3317.388,550.382,3319.158Z" transform="translate(-533.166 -3317.137)" fill="#2d356b"/><path d="M524.988,3344.909a1.17,1.17,0,1,1,1.651.83A1.324,1.324,0,0,1,524.988,3344.909Z" transform="translate(-520.67 -3335.081)" fill="#2d356b"/><path d="M526.3,3352.083c-.629-.584-1.549-1.094-3.434-.141A6.862,6.862,0,0,1,526.3,3352.083Z" transform="translate(-519.325 -3340.899)" fill="#ffd8a3"/><path d="M525.738,3343.12c-.464-.722-1.229-1.443-3.292-.987A6.868,6.868,0,0,1,525.738,3343.12Z" transform="translate(-519.03 -3334.368)" fill="#2d356b"/><path d="M556.189,3335.628c-.465-.722-1.23-1.443-3.292-.987A6.866,6.866,0,0,1,556.189,3335.628Z" transform="translate(-540.141 -3329.173)" fill="#2d356b"/><path d="M556.565,3336.4a1.169,1.169,0,1,0-.211,1.836A1.323,1.323,0,0,0,556.565,3336.4Z" transform="translate(-541.161 -3329.943)" fill="#2d356b"/><path d="M552.368,3343.913a3.274,3.274,0,0,1,3.836.677A8.293,8.293,0,0,0,552.368,3343.913Z" transform="translate(-539.774 -3335.472)" fill="#ffd8a3"/></g><g transform="translate(11.728 22.461)"><path d="M544.489,3371.44a1.39,1.39,0,0,1,1.428-1.075c.235-.081.456-.73,1.47-.3.31.131-.525.427-1.313.834S544.365,3371.753,544.489,3371.44Z" transform="translate(-543.964 -3369.681)" fill="#f36973"/><path d="M547.154,3374.933c-.158-.3.337-.523.955-.85s1.126-.632,1.283-.335-.215.8-.834,1.131S547.311,3375.231,547.154,3374.933Z" transform="translate(-545.799 -3372.253)" fill="#f36973"/><path d="M547.239,3370.231a4.812,4.812,0,0,0-2.1.54c-.652.311-1.792.728-1.822,1.05,0,0,.3,1.254,2.5.233C547.35,3371.382,547.239,3370.231,547.239,3370.231Z" transform="translate(-543.162 -3369.89)" fill="#ffab00"/><path d="M544.286,3371.945c.172-.277.765-.478,1.634-.9a3,3,0,0,1,1.775-.4A5.366,5.366,0,0,1,544.286,3371.945Z" transform="translate(-543.831 -3370.171)" fill="#fff"/><path d="M542.829,3375.006a.168.168,0,1,1,.237.093A.182.182,0,0,1,542.829,3375.006Z" transform="translate(-542.803 -3373.025)" fill="#ffab00"/><ellipse cx="0.181" cy="0.21" rx="0.181" ry="0.21" transform="matrix(0.884, -0.468, 0.468, 0.884, 3.826, 0.169)" fill="#ffab00"/></g></g><g transform="translate(7.987 2.966)"><path d="M540.387,3295.455c5.19,5.516,4.784,14.063,4.784,14.063-.837-2.349-7.045-13.948-18.057-14.166C527.114,3295.351,535.2,3289.938,540.387,3295.455Z" transform="translate(-517.841 -3291.283)" fill="#2d356b"/><path d="M511.873,3290.628c-1.146,3.735-3,12.9-14.679,19.752C495.3,3290.688,502.269,3291.835,511.873,3290.628Z" transform="translate(-496.881 -3289.656)" fill="#2d356b"/><path d="M533.418,3288.311c.221,4.36.01,10.6-3.5,14.55,4.649-3.667,5.153-11,5.23-15.4C534.529,3287.738,533.958,3288.022,533.418,3288.311Z" transform="translate(-519.781 -3287.457)" fill="#2d356b"/></g></g><g transform="translate(481.93 2730.66)"><path d="M681.759,3205.778a13.421,13.421,0,0,1,.455,4.8c-.717,8.3-8.953,14.369-18.4,13.554a18.206,18.206,0,0,1-12.411-6.228c-3.885,7.247-11.527,11.205-17.3,8.871-5.433-2.2-7.314-9.208-4.622-16.209-8.347-.844-14.635-6.49-14.1-12.722.383-4.437,4.125-7.99,9.269-9.451-2.7-1.973-4.245-4.465-4.023-7.043.459-5.314,8.265-8.98,17.436-8.189q1,.086,1.972.239c1.991-5.925,9.128-9.916,17.223-9.217,9.171.792,16.1,7.3,15.473,14.538q-.03.353-.084.7a32.879,32.879,0,0,1,4.311.09c11.525,1,20.357,7.718,19.727,15.016C696.2,3200.266,689.994,3204.652,681.759,3205.778Z" transform="translate(-613.435 -3164.102)" fill="#c3e8e6"/><circle cx="5.39" cy="5.39" r="5.39" transform="translate(6.157 49.364)" fill="#c3e8e6"/><circle cx="3.194" cy="3.194" r="3.194" transform="translate(2.718 56.596)" fill="#c3e8e6"/><circle cx="2.732" cy="2.732" r="2.732" transform="translate(0 64.277)" fill="#c3e8e6"/></g><g transform="translate(495.033 2740.726)"><g transform="translate(0)"><g transform="translate(24.308 37.752)"><path d="M745.214,3325.858H731.057L732.52,3320h11.232Z" transform="translate(-731.057 -3319.995)" fill="#9ea9fc"/></g><g transform="translate(17.971 43.075)"><path d="M738.427,3340.118H710.4v-.338a2.433,2.433,0,0,1,2.432-2.433h23.163a2.433,2.433,0,0,1,2.433,2.433Z" transform="translate(-710.398 -3337.347)" fill="#40558e"/></g><rect width="61.687" height="39.016" fill="#2d356b"/><g transform="translate(1.462 1.462)"><rect width="58.763" height="34.297" fill="#ffd9a4"/></g><g transform="translate(61.687)"><path d="M853.571,3236.534h-.65v-39.617l.65.59Z" transform="translate(-852.92 -3196.917)" fill="#7b88ac"/></g><g transform="translate(0 38.967)"><path d="M713.5,3323.955v.65h-61.11l-.577-.65Z" transform="translate(-651.81 -3323.955)" fill="#7b88ac"/></g><g transform="translate(2.112 2.112)" style="mix-blend-mode:screen;isolation:isolate"><path d="M676.318,3203.822,658.7,3221.445l.023-1.537,16.105-16.1Z" transform="translate(-658.695 -3203.802)" fill="#ebebeb"/></g><g transform="translate(2.112 2.112)" style="mix-blend-mode:screen;isolation:isolate"><path d="M686.941,3203.8,658.7,3232.048v-4.11L682.83,3203.8Z" transform="translate(-658.695 -3203.802)" fill="#ebebeb"/></g></g><text transform="translate(12.569 22.364)" fill="#2d356b" font-size="10" font-family="TrebuchetMS-Bold, Trebuchet MS" font-weight="700"><tspan x="0" y="0">Intranet</tspan></text></g></g></svg>