<svg xmlns="http://www.w3.org/2000/svg" width="206.144" height="359.445" viewBox="0 0 206.144 359.445">
  <g id="Group_5472" data-name="Group 5472" transform="translate(-264.285 -2274.031)">
    <g id="Group_5470" data-name="Group 5470" transform="translate(264.285 2274.031)">
      <g id="Group_5469" data-name="Group 5469">
        <g id="Group_5455" data-name="Group 5455" transform="translate(0 42.491)">
          <path id="Path_5930" data-name="Path 5930" d="M470.429,2660.172c0,6.19-1.35,11.2-3.034,11.2H267.317c-1.682,0-3.032-5.014-3.032-11.2v-287.59c0-6.17,1.35-11.185,3.032-11.185H467.4c1.683,0,3.034,5.015,3.034,11.185Z" transform="translate(-264.285 -2354.422)" fill="#40558e"/>
          <path id="Path_5931" data-name="Path 5931" d="M471.709,2617.577c-.127.489-28.279,41.148-28.279,41.443H270.565c-1.658,0-3.008-5.035-3.008-11.226V2360.245c0-6.191,1.349-11.167,3.008-11.167H468.717c1.658,0,2.992,4.976,2.992,11.167Z" transform="translate(-265.704 -2349.078)" fill="#fff"/>
          <g id="Group_5454" data-name="Group 5454" transform="translate(177.26 268.499)">
            <g id="Group_5453" data-name="Group 5453">
              <g id="Group_5452" data-name="Group 5452">
                <path id="Path_5932" data-name="Path 5932" d="M582.292,2823.3h23.867l-28.8,42.089v-35.774C577.362,2826.128,579.57,2823.3,582.292,2823.3Z" transform="translate(-577.362 -2823.3)" fill="#2d356b"/>
              </g>
            </g>
          </g>
        </g>
        <path id="Path_5933" data-name="Path 5933" d="M470.365,2358.869v-58.552c0-2.932-1.367-5.314-3.041-5.314H267.315c-1.679,0-3.03,2.383-3.03,5.314v58.552Z" transform="translate(-264.285 -2283.129)" fill="#2d356b"/>
        <g id="Group_5468" data-name="Group 5468" transform="translate(15.02)">
          <g id="Group_5467" data-name="Group 5467">
            <g id="Group_5456" data-name="Group 5456">
              <path id="Path_5934" data-name="Path 5934" d="M296.343,2289.009a2.92,2.92,0,0,1-2.664,3.094h-.191a2.921,2.921,0,0,1-2.675-3.094v-11.888a2.92,2.92,0,0,1,2.675-3.09h.191a2.918,2.918,0,0,1,2.664,3.09Z" transform="translate(-290.813 -2274.031)" fill="#fff4ba"/>
            </g>
            <g id="Group_5457" data-name="Group 5457" transform="translate(17.054)">
              <path id="Path_5935" data-name="Path 5935" d="M326.465,2289.009a2.921,2.921,0,0,1-2.671,3.094h-.2a2.917,2.917,0,0,1-2.665-3.094v-11.888a2.915,2.915,0,0,1,2.665-3.09h.2a2.92,2.92,0,0,1,2.671,3.09Z" transform="translate(-320.933 -2274.031)" fill="#fff4ba"/>
            </g>
            <g id="Group_5458" data-name="Group 5458" transform="translate(34.108)">
              <path id="Path_5936" data-name="Path 5936" d="M356.579,2289.009a2.914,2.914,0,0,1-2.67,3.094h-.18a2.915,2.915,0,0,1-2.676-3.094v-11.888a2.913,2.913,0,0,1,2.676-3.09h.18a2.912,2.912,0,0,1,2.67,3.09Z" transform="translate(-351.054 -2274.031)" fill="#fff4ba"/>
            </g>
            <g id="Group_5459" data-name="Group 5459" transform="translate(51.151)">
              <path id="Path_5937" data-name="Path 5937" d="M386.692,2289.009a2.921,2.921,0,0,1-2.664,3.094h-.2a2.921,2.921,0,0,1-2.67-3.094v-11.888a2.919,2.919,0,0,1,2.67-3.09h.2a2.919,2.919,0,0,1,2.664,3.09Z" transform="translate(-381.156 -2274.031)" fill="#fff4ba"/>
            </g>
            <g id="Group_5460" data-name="Group 5460" transform="translate(68.205)">
              <path id="Path_5938" data-name="Path 5938" d="M416.8,2289.009a2.914,2.914,0,0,1-2.665,3.094h-.2a2.917,2.917,0,0,1-2.666-3.094v-11.888a2.915,2.915,0,0,1,2.666-3.09h.2a2.912,2.912,0,0,1,2.665,3.09Z" transform="translate(-411.276 -2274.031)" fill="#fff4ba"/>
            </g>
            <g id="Group_5461" data-name="Group 5461" transform="translate(85.262)">
              <path id="Path_5939" data-name="Path 5939" d="M446.922,2289.009a2.921,2.921,0,0,1-2.66,3.094h-.2a2.913,2.913,0,0,1-2.659-3.094v-11.888a2.912,2.912,0,0,1,2.659-3.09h.2a2.919,2.919,0,0,1,2.66,3.09Z" transform="translate(-441.402 -2274.031)" fill="#fff4ba"/>
            </g>
            <g id="Group_5462" data-name="Group 5462" transform="translate(102.31)">
              <path id="Path_5940" data-name="Path 5940" d="M477.044,2289.009a2.929,2.929,0,0,1-2.67,3.094h-.2a2.906,2.906,0,0,1-2.659-3.094v-11.888a2.9,2.9,0,0,1,2.659-3.09h.2a2.927,2.927,0,0,1,2.67,3.09Z" transform="translate(-471.513 -2274.031)" fill="#fff4ba"/>
            </g>
            <g id="Group_5463" data-name="Group 5463" transform="translate(119.358)">
              <path id="Path_5941" data-name="Path 5941" d="M507.144,2289.009a2.914,2.914,0,0,1-2.67,3.094h-.18a2.914,2.914,0,0,1-2.67-3.094v-11.888a2.912,2.912,0,0,1,2.67-3.09h.18a2.912,2.912,0,0,1,2.67,3.09Z" transform="translate(-501.624 -2274.031)" fill="#fff4ba"/>
            </g>
            <g id="Group_5464" data-name="Group 5464" transform="translate(136.407)">
              <path id="Path_5942" data-name="Path 5942" d="M537.256,2289.009a2.914,2.914,0,0,1-2.67,3.094H534.4a2.921,2.921,0,0,1-2.66-3.094v-11.888a2.919,2.919,0,0,1,2.66-3.09h.191a2.912,2.912,0,0,1,2.67,3.09Z" transform="translate(-531.735 -2274.031)" fill="#fff4ba"/>
            </g>
            <g id="Group_5465" data-name="Group 5465" transform="translate(153.445)">
              <path id="Path_5943" data-name="Path 5943" d="M567.359,2289.009a2.913,2.913,0,0,1-2.66,3.094h-.2a2.929,2.929,0,0,1-2.67-3.094v-11.888a2.927,2.927,0,0,1,2.67-3.09h.2a2.911,2.911,0,0,1,2.66,3.09Z" transform="translate(-561.828 -2274.031)" fill="#fff4ba"/>
            </g>
            <g id="Group_5466" data-name="Group 5466" transform="translate(170.504)">
              <path id="Path_5944" data-name="Path 5944" d="M597.489,2289.009a2.921,2.921,0,0,1-2.67,3.094h-.19a2.914,2.914,0,0,1-2.671-3.094v-11.888a2.912,2.912,0,0,1,2.671-3.09h.19a2.919,2.919,0,0,1,2.67,3.09Z" transform="translate(-591.958 -2274.031)" fill="#fff4ba"/>
            </g>
          </g>
        </g>
      </g>
    </g>
    <g id="Group_5471" data-name="Group 5471" transform="translate(278.882 2387.123)">
      <line id="Line_25" data-name="Line 25" x2="173.721" transform="translate(0 29.616)" fill="#7b88ac" stroke="#7b88ac" stroke-miterlimit="10" stroke-width="0.75"/>
      <line id="Line_26" data-name="Line 26" x2="173.721" transform="translate(0 0)" fill="#7b88ac" stroke="#7b88ac" stroke-miterlimit="10" stroke-width="0.75"/>
      <line id="Line_27" data-name="Line 27" x2="173.721" transform="translate(0 59.233)" fill="#7b88ac" stroke="#7b88ac" stroke-miterlimit="10" stroke-width="0.75"/>
      <line id="Line_28" data-name="Line 28" x2="173.721" transform="translate(1.272 88.85)" fill="#7b88ac" stroke="#7b88ac" stroke-miterlimit="10" stroke-width="0.75"/>
      <line id="Line_29" data-name="Line 29" x2="156.501" transform="translate(18.492 118.466)" fill="#7b88ac" stroke="#7b88ac" stroke-miterlimit="10" stroke-width="0.75"/>
      <line id="Line_30" data-name="Line 30" x2="173.721" transform="translate(1.272 148.083)" fill="#7b88ac" stroke="#7b88ac" stroke-miterlimit="10" stroke-width="0.75"/>
      <line id="Line_31" data-name="Line 31" x2="173.721" transform="translate(1.272 177.699)" fill="#7b88ac" stroke="#7b88ac" stroke-miterlimit="10" stroke-width="0.75"/>
    </g>
    <rect id="Rectangle_1771" data-name="Rectangle 1771" width="124.831" height="59.233" transform="translate(304.776 2387.123)" fill="#ebebeb"/>
    <rect id="Rectangle_1772" data-name="Rectangle 1772" width="124.831" height="57.843" transform="translate(304.776 2505.589)" fill="#ffe200"/>
    <text id="Meeting_with_HR" data-name="Meeting with HR" transform="translate(310.03 2401.144)" font-size="13" font-family="TrebuchetMS-Bold, Trebuchet MS" font-weight="700"><tspan x="0" y="0">Meeting with HR</tspan></text>
    <rect id="Rectangle_1773" data-name="Rectangle 1773" width="124.831" height="27.103" transform="translate(304.776 2448.87)" fill="#ebebeb"/>
    <text id="Meeting_with_IT" data-name="Meeting with IT" transform="translate(309.357 2462.931)" font-size="13" font-family="TrebuchetMS-Bold, Trebuchet MS" font-weight="700"><tspan x="0" y="0">Meeting with IT</tspan></text>
    <text id="_6PM" data-name="6PM" transform="translate(274.299 2506.736)" fill="#40558e" font-size="8" font-family="TrebuchetMS-Bold, Trebuchet MS" font-weight="700"><tspan x="0" y="0">6PM</tspan></text>
    <text id="Work_overtime" data-name="Work overtime" transform="translate(310.03 2519.736)" fill="#2d356b" font-size="13" font-family="TrebuchetMS-Bold, Trebuchet MS" font-weight="700"><tspan x="0" y="0">Work overtime</tspan></text>
    <text id="Friday" transform="translate(331.857 2329.337)" fill="#fff" font-size="24" font-family="TrebuchetMS-Bold, Trebuchet MS" font-weight="700"><tspan x="0" y="0">Friday</tspan></text>
  </g>
</svg>
