<svg xmlns="http://www.w3.org/2000/svg" width="435.626" height="144.168" viewBox="0 0 435.626 144.168"><g transform="translate(-89.776 -3546.733)"><g transform="translate(89.776 3546.887)"><g transform="translate(0 73.866)"><g transform="translate(0 10.449)"><rect width="47.605" height="59.547" fill="#fcf3bf"/></g><g transform="translate(47.605 0.181)"><path d="M382.63,2479.2v59.547H393.5l-.988-69.815Z" transform="translate(-382.63 -2468.931)" fill="#9898a3"/></g><path d="M268.314,2478.766,278.2,2468.5l-43.6-.18-13.885,10.449Z" transform="translate(-220.71 -2468.316)" fill="#cecfd6"/><g transform="translate(3.774 14.388)"><rect width="39.625" height="13.091" fill="#cecfd6"/></g><g transform="translate(4.161 30.549)"><rect width="39.625" height="39.447" fill="#cecfd6"/></g><g transform="translate(20.505 19.485)"><ellipse cx="2.804" cy="1.68" rx="2.804" ry="1.68" fill="#eaeaea"/></g><g transform="translate(21.17 34.03)"><ellipse cx="2.804" cy="1.68" rx="2.804" ry="1.68" fill="#eaeaea"/></g></g><g transform="translate(1.404 54.615)"><path d="M280.166,2417.056a11.034,11.034,0,0,1-10.961,11.107H236.447a11.036,11.036,0,0,1-10.961-11.107v-3.109a11.036,11.036,0,0,1,10.961-11.109H269.2a11.035,11.035,0,0,1,10.961,11.109Z" transform="translate(-225.486 -2402.838)" fill="#fff4ba"/><rect width="52.425" height="24.095" rx="12.048" transform="translate(1.129 0.827)" fill="#2d356b"/><path d="M271,2429.494H240.118a10.774,10.774,0,0,1-10.763-10.762v-2.924a10.775,10.775,0,0,1,10.763-10.762H271a10.776,10.776,0,0,1,10.763,10.762v2.924A10.775,10.775,0,0,1,271,2429.494Zm-30.882-23.82a10.147,10.147,0,0,0-10.136,10.134v2.924a10.147,10.147,0,0,0,10.136,10.136H271a10.145,10.145,0,0,0,10.134-10.136v-2.924A10.145,10.145,0,0,0,271,2405.673Z" transform="translate(-228.217 -2404.396)" fill="#c3e8e6"/><text transform="translate(7.765 16.33)" fill="#fff" font-size="10" font-family="SegoeUI, Segoe UI"><tspan x="0" y="0">7:00 am</tspan></text></g><g transform="translate(44.413)"><g transform="translate(15.721 62.155)"><g transform="translate(0 23.696)"><path d="M431,2516.637l-5.759,10.515H537.505l-3.712-10.515-8.545-7.553-88.161,1.481Z" transform="translate(-425.244 -2509.084)" fill="#f3ae3d"/></g><g transform="translate(3.851)"><path d="M544.948,2428.485H438.342l1.908,31.249,50.986.17v0h.817v0l50.986-.17Z" transform="translate(-438.342 -2428.485)" fill="#445689"/></g><g transform="translate(8.294 4.147)"><path d="M551.5,2442.59H453.454l1.755,27.125,46.891.148v0h.751v0l46.891-.148Z" transform="translate(-453.454 -2442.59)" fill="#7d87a8"/></g><g transform="translate(9.048 16.678)"><path d="M549.64,2504.647c-.326.549-.625,1.027-.874,1.407-1.876,2.864-89.952,3.357-89.952,3.357s-.925-2.859-1.691-5.725c-.206-.772-.4-1.544-.562-2.262a20.322,20.322,0,0,1-.407-2.281c-.3-2.962-.2-6.022,1.33-7.059s9.827-3.406,12.3-4.2,5.035-2.567,9.972-2.666c1.364-.027,3.18.021,5.149.126,1.866.1,3.87.252,5.761.441h0a38.357,38.357,0,0,1,7.552,1.26c2.427.943,19.34.538,24.662.122.526-.042.939-.083,1.213-.122.5-.073,1.158-.132,1.921-.177a137.35,137.35,0,0,1,14.56.177,31.022,31.022,0,0,1,11.027,3.013,5.638,5.638,0,0,1,2.5,2.17C555.125,2494.458,551.773,2501.064,549.64,2504.647Z" transform="translate(-456.02 -2485.214)" fill="#f3ae3d"/></g><g transform="translate(10.152 17.253)"><path d="M552.291,2506.027c-.326.549-.625,1.027-.874,1.408-1.876,2.863-89.952,3.357-89.952,3.357s-.925-2.859-1.691-5.725c2.642-.494,6.949-1.229,10.378-1.483,5.338-.395,8.893-.79,12.349-3.554s5.332-7.4,6.072-9.232,4.739-3.629,4.739-3.629h0a38.359,38.359,0,0,1,7.552,1.26c2.427.943,19.34.538,24.662.122a1.981,1.981,0,0,1,.1.175,20.339,20.339,0,0,0,5.007,6.22c2.123,1.728,3.307,1.294,6.664,2.5C540.573,2498.618,549.3,2499.869,552.291,2506.027Z" transform="translate(-459.774 -2487.169)" fill="#f8d9aa"/></g></g><g transform="translate(15.681)"><g transform="translate(41.412 12.605)"><path d="M566.268,2295.5c-1.5-4.623,2.974-5.176,4.141-8.806s-2.461-3.764-1.131-8.522,4.711-4.836,5.9-7.436-2.336-4.755.559-7.463,4.8.315,7.219-1.791,6.974-2.007,8.681.083,6.854-3.214,9.7.806.45,8.771.465,12,3.382,5.927,1.939,11.09-3.716,2.918-3.892,6.824,3.327,5.032,1.884,10.2c0,0-1.585,5.124-6.984,2.59s-4.9,1.123-10.084-3.257-5.368,1.723-8.754-2.008S567.99,2300.814,566.268,2295.5Z" transform="translate(-565.965 -2259.948)" fill="#f2a93c"/></g><path d="M567.359,2458.1a58.391,58.391,0,0,0,11.094,6.861,3.19,3.19,0,0,0,4.2-1.572l.049-.1a3.19,3.19,0,0,1,5.83.09h0a3.187,3.187,0,0,0,4.094,1.722c3.086-1.21,7.945-3.523,11.216-7.055a3.2,3.2,0,0,0,.328-3.936c-7.972-12.111-10.879-22.538-2.7-35.21a3.205,3.205,0,0,0,.454-2.367c-1.026-5.13-5.518-23.459-17.421-23.987-12.077-.535-15.5,19.9-16.172,25.121a3.19,3.19,0,0,0,.5,2.171c8.076,12.189,10.679,18.211-2,33.716A3.192,3.192,0,0,0,567.359,2458.1Z" transform="translate(-524.662 -2340.949)" fill="#c9e6e5"/><path d="M621.161,2355.249H615.6l-.464,12.643,7.547-.94Z" transform="translate(-559.268 -2314.625)" fill="#efc47d"/><g transform="translate(0 9.587)"><path d="M439.366,2278.645c-.738-2.569-6.055-6.452-4.21-7.877,1.653-1.277,6.2-.884,6.173,7.217Z" transform="translate(-431.93 -2264.179)" fill="#f8d7a2"/><path d="M438.425,2267.8c-2.775,2.439-5.734-.952-6.42-2.235-.752-1.411.848-3.841,2.111-4S439.484,2266.866,438.425,2267.8Z" transform="translate(-429.841 -2258.069)" fill="#f8d7a2"/><path d="M447.249,2258.664c.258-2.162,1.592-4.511,2.365-4.2.873.35-.654,2.153-.413,4.151.257,2.164.3,3.537-.524,3.681S446.989,2260.829,447.249,2258.664Z" transform="translate(-440.707 -2253.039)" fill="#f8d7a2"/><path d="M435.38,2252.6c-.87-1.651-.945-2.713-.48-2.894s.9.791,1.773,2.439,2.387,3.528,1.922,3.709S436.253,2254.244,435.38,2252.6Z" transform="translate(-431.822 -2249.682)" fill="#f8d7a2"/><path d="M427.755,2255.21c-1.208-1.471-1.6-3.279-1.188-3.544s1.2,1.349,2.4,2.82,1.911,2.49,1.5,2.754S428.962,2256.68,427.755,2255.21Z" transform="translate(-426.028 -2251.062)" fill="#f8d7a2"/><path d="M426.316,2264.547c-1.147-1.518-1.443-2.624-1.026-2.877s.984.889,2.13,2.406,1.928,2.6,1.509,2.851S427.463,2266.065,426.316,2264.547Z" transform="translate(-425.11 -2258.12)" fill="#f8d7a2"/></g><g transform="translate(95.148)"><path d="M750.412,2243c1.486-2.222,7.732-4.3,6.409-6.221-1.186-1.72-5.634-2.729-8.078,4.994Z" transform="translate(-748.743 -2230.126)" fill="#f8d7a2"/><path d="M755.454,2233.09c1.9,3.169,5.752.84,6.8-.173,1.147-1.115.362-3.917-.793-4.453S754.729,2231.878,755.454,2233.09Z" transform="translate(-753.435 -2225.08)" fill="#f8d7a2"/><path d="M759.659,2221.794c.413-2.138-.143-4.782-.974-4.72-.938.067-.033,2.25-.871,4.079-.9,1.983-1.367,3.277-.622,3.666S759.248,2223.936,759.659,2221.794Z" transform="translate(-754.446 -2217.073)" fill="#f8d7a2"/><path d="M769.1,2221.01c1.331-1.308,1.726-2.3,1.339-2.61s-1.1.479-2.432,1.783-3.348,2.634-2.961,2.948S767.766,2222.313,769.1,2221.01Z" transform="translate(-760.219 -2217.961)" fill="#f8d7a2"/><path d="M775.768,2225.934c1.6-1.033,2.522-2.636,2.211-3.014s-1.551.92-3.149,1.954-2.578,1.789-2.266,2.167S774.17,2226.966,775.768,2225.934Z" transform="translate(-765.519 -2221.154)" fill="#f8d7a2"/><path d="M775.08,2235.225c1.554-1.1,2.174-2.06,1.853-2.428s-1.208.547-2.761,1.642-2.627,1.886-2.305,2.256S773.525,2236.322,775.08,2235.225Z" transform="translate(-765.028 -2228.116)" fill="#f8d7a2"/></g><g transform="translate(66.815 11.289)"><path d="M652.489,2359.987c3.908,4.648,22.3-21.079,22.642-22.2,0,0-1.712-2.506-2.938-1.91C668.977,2337.437,650.749,2357.918,652.489,2359.987Z" transform="translate(-652.372 -2312.172)" fill="#c9e6e5"/><path d="M727.673,2259.5c4.377.985-5.447,23.813-6.115,24.5,0,0-3.386.39-3.435-.731C718,2280.362,725.719,2259.059,727.673,2259.5Z" transform="translate(-698.791 -2258.31)" fill="#c9e6e5"/><path d="M743.089,2255.574l-1.369.081L738.838,2260a10.648,10.648,0,0,0,2.945.113C742.329,2259.867,743.089,2255.574,743.089,2255.574Z" transform="translate(-713.417 -2255.544)" fill="#75c8c8"/><path d="M752.175,2255.472l1.292.487,1.405,5.026a10.745,10.745,0,0,1-2.868-.772C751.557,2259.813,752.175,2255.472,752.175,2255.472Z" transform="translate(-722.597 -2255.472)" fill="#75c8c8"/></g><g transform="translate(7.231 22.525)"><path d="M533.365,2375.483c-2.107,5.7-28.112-12.3-28.813-13.243,0,0,.764-2.937,2.119-2.791C510.226,2359.832,534.3,2372.948,533.365,2375.483Z" transform="translate(-488.427 -2340.111)" fill="#c9e6e5"/><path d="M455.555,2297.688c-3.787,2.406,13.174,20.571,14.034,20.99,0,0,3.319-.777,2.986-1.85C471.712,2314.054,457.246,2296.614,455.555,2297.688Z" transform="translate(-453.447 -2296.478)" fill="#c9e6e5"/><path d="M453.014,2294.074l1.315-.386,4.181,3.116a10.652,10.652,0,0,1-2.733,1.1C455.18,2297.858,453.014,2294.074,453.014,2294.074Z" transform="translate(-452.041 -2293.688)" fill="#75c8c8"/><path d="M450.757,2294.8l-1.051.895.376,5.2a10.746,10.746,0,0,0,2.438-1.7C452.806,2298.674,450.757,2294.8,450.757,2294.8Z" transform="translate(-449.706 -2294.472)" fill="#75c8c8"/></g><g transform="translate(46.139 18.356)"><g transform="translate(4.491 0.559)"><g transform="translate(0 3.311)"><path d="M608.542,2320.062c-3.736-.937-9.586-13.259-2.962-24.936,1.339-2.36,4.462-3.128,9.675-1.82,5.734,1.439,7.968,3.647,7.87,5.806C622.436,2314.377,612.366,2321.021,608.542,2320.062Z" transform="translate(-601.029 -2292.672)" fill="#f8d6a1"/><path d="M598.868,2330.548c.031-.868.308-1.509-.332-1.532s-1.185.662-1.215,1.53.464,1.589,1.1,1.611S598.837,2331.416,598.868,2330.548Z" transform="translate(-597.319 -2318.331)" fill="#f5c171"/><path d="M663.5,2346.852c.364-.788.4-1.49,1-1.214a1.634,1.634,0,0,1-1.318,2.858C662.582,2348.219,663.136,2347.642,663.5,2346.852Z" transform="translate(-643.631 -2330.023)" fill="#f5c171"/><g transform="translate(9.074 13.927)"><path d="M628.183,2345.263a2.828,2.828,0,0,0,1,.745,1.637,1.637,0,0,0,1.247-.23c.128-.3.173-3.934-.109-4.039S628.275,2344.81,628.183,2345.263Z" transform="translate(-628.183 -2341.239)" fill="#f2a93c"/><path d="M631.032,2343.653c-.016.07.288.263.4.292.2.05.467.009.507-.114.095-.3,1.11-3.665.5-3.784C631.771,2339.917,631.133,2343.215,631.032,2343.653Z" transform="translate(-630.194 -2340.044)" fill="#f8d6a1"/></g><g transform="translate(3.966 7.887)"><path d="M646.505,2321.115a7.265,7.265,0,0,0,5.655,3.9C649.809,2324.37,648.523,2323.608,646.505,2321.115Z" transform="translate(-636.01 -2320.64)" fill="#2d356b"/><path d="M618.279,2319.5a8.264,8.264,0,0,1-7.471.032A11.192,11.192,0,0,0,618.279,2319.5Z" transform="translate(-610.808 -2319.498)" fill="#2d356b"/><path d="M614.943,2330.958a3.515,3.515,0,0,1,3.964,1.855A8.856,8.856,0,0,0,614.943,2330.958Z" transform="translate(-613.727 -2327.547)" fill="#2d356b"/><path d="M614.315,2335.2a3.516,3.516,0,0,1,4.376.111A8.874,8.874,0,0,0,614.315,2335.2Z" transform="translate(-613.284 -2330.079)" fill="#2d356b"/><path d="M646.755,2339.5a3.148,3.148,0,0,0-4.108-.17A7.853,7.853,0,0,1,646.755,2339.5Z" transform="translate(-633.286 -2333.012)" fill="#2d356b"/><path d="M645.71,2342.245a3.164,3.164,0,0,0-3.649-1.9A7.888,7.888,0,0,1,645.71,2342.245Z" transform="translate(-632.873 -2334.162)" fill="#2d356b"/><path d="M625.523,2373.711c.1-.416-.365-.492-.958-.641s-1.084-.314-1.188.1.291.874.884,1.022S625.418,2374.126,625.523,2373.711Z" transform="translate(-619.67 -2357.206)" fill="#ec6872"/><path d="M627.578,2359.792a1.919,1.919,0,0,0-1.945-.551c-.37-.093-.582-.809-2.027-.446-.416.1.7.976,1.8,1.251S627.9,2360.08,627.578,2359.792Z" transform="translate(-619.781 -2347.17)" fill="#ec6872"/><path d="M620.514,2359.042l5.769,1.448s-1.815,3.956-3.926,3.427S620.514,2359.042,620.514,2359.042Z" transform="translate(-617.652 -2347.416)" fill="#f2a93c"/><path d="M626.615,2361.329l-4.969-1.247.392,3.514a1.95,1.95,0,0,0,2.668.624Z" transform="translate(-618.46 -2348.15)" fill="#fff"/></g></g><g transform="translate(1.352)"><g transform="translate(11.801)"><path d="M652.165,2294.281c-3.064-2.261-10.62-8.29-10.08-12.871,0,0,8.964,1.323,9.727,6.194C652.779,2293.755,652.165,2294.281,652.165,2294.281Z" transform="translate(-642.058 -2281.41)" fill="#f2a93c"/><g transform="translate(0.227 1.699)"><path d="M647.385,2295.405a27.288,27.288,0,0,0,6.728,8.274C656.925,2305.715,647.385,2295.405,647.385,2295.405Z" transform="translate(-646.046 -2292.99)" fill="#f2a93c"/><path d="M642.832,2287.189a17.009,17.009,0,0,0,1.943,6.356C645.922,2295.38,642.832,2287.189,642.832,2287.189Z" transform="translate(-642.83 -2287.189)" fill="#f2a93c"/></g></g><path d="M601.919,2294.137c3.108-.536,10.979-2.253,12.755-6.489,0,0-6.619-3.033-9.4.847C601.755,2293.394,601.919,2294.137,601.919,2294.137Z" transform="translate(-601.918 -2285.018)" fill="#f2a93c"/></g></g><g transform="translate(6.617)"><path d="M605.174,2282.781c-1.736,3.6.449,7.337,2.98,7.468s3.722-.8,7.4.385,5.581,3.712,7.416,3.807,3.477-.85,4.427-4.459C629.135,2283.393,609.079,2274.673,605.174,2282.781Z" transform="translate(-604.551 -2279.51)" fill="#c9e6e5"/></g><g transform="translate(0 6.515)"><path d="M582.558,2304.733a.56.56,0,0,1-.5-.492.62.62,0,0,1,.437-.718l8.349-1.842a.544.544,0,0,1,.634.482.619.619,0,0,1-.437.718l-8.349,1.842A.5.5,0,0,1,582.558,2304.733Z" transform="translate(-582.045 -2301.669)" fill="#40908e"/></g><g transform="translate(7.814 1.322)"><path d="M626.025,2296.069a2.521,2.521,0,0,1-.258-.027,8.539,8.539,0,0,1-2.634-1.1c-.358-.2-.7-.384-1.026-.539-.552-.26-1.092-.571-1.613-.871a13.2,13.2,0,0,0-2.58-1.248,8.078,8.078,0,0,0-3.65.037c-.233.038-.465.075-.7.108a4.31,4.31,0,0,1-4.279-2.068,4.2,4.2,0,0,1-.65-1.847,3.381,3.381,0,0,1,.283-1.707h0a4.478,4.478,0,0,1,2.6-2.247c3.413-1.247,7.705-.393,12.758,2.539a13.356,13.356,0,0,1,4.14,3.362,3.713,3.713,0,0,1,.761,1.957,3.615,3.615,0,0,1-.967,2.723A2.855,2.855,0,0,1,626.025,2296.069Zm-9.2-4.831a5.263,5.263,0,0,1,1.3.222,13.718,13.718,0,0,1,2.723,1.31c.51.293,1.037.6,1.562.844.351.165.714.366,1.066.56a8.036,8.036,0,0,0,2.408,1.02,2.082,2.082,0,0,0,1.81-.674,2.694,2.694,0,0,0,.722-2.03,2.862,2.862,0,0,0-.589-1.476,12.669,12.669,0,0,0-3.908-3.153c-3.346-1.941-8.173-3.949-12.173-2.487a3.674,3.674,0,0,0-2.145,1.812h0a2.449,2.449,0,0,0-.2,1.234,3.284,3.284,0,0,0,.516,1.442,3.589,3.589,0,0,0,3.566,1.719c.227-.033.456-.07.686-.106A12.722,12.722,0,0,1,616.829,2291.238Z" transform="translate(-608.625 -2284.006)" fill="#75c8c8"/></g></g><path d="M614.488,2388.367s-2.123,5.588,2.064,12.741c0,0,5.479-5.358,5.295-11.966C618.063,2384.081,614.488,2388.367,614.488,2388.367Z" transform="translate(-558.431 -2336.81)" fill="#efc47d"/></g><g transform="translate(0 83.832)"><path d="M521.744,2561.869H371.96s.592-8.294,0-9.478.2-10.861,2.764-12.638,3.411-5.134,3.411-8.491,4.344-12.836,7.109-16.785c2.119-3.027,3.311-4.256,5.884-4.465a16.351,16.351,0,0,1,2.8.071c4.739.444,13.773,2.962,18.809,2.073s9.929-3.555,14.366-6.961,7.405-3.11,11.552-2.814,9.627,3.406,14.662,3.555,7.7-.741,12.885-.888,11.4,4.146,16.735,4.442c5.231.291,13.6,2.6,17.409,3.447l.215.047.086.019c3.633.779,4.665.51,6.135,3.449,1.481,2.962-.148,8.146,1.333,10.811s5.48,6.073,7.109,12.589S521.744,2561.869,521.744,2561.869Z" transform="translate(-371.773 -2502.214)" fill="#fcf3bf"/><g transform="translate(19.355 13.225)"><path d="M437.606,2553.736s.4-1.58,7.032-.2,7.818.943,11.965-.615,4.542-.219,8.1,0,11.354-4.717,16.735-5.606,13.379,3.259,18.068,4.443,17.328,1.382,21.474.2,3.95-.906,9.873,2.41,7.5,4.106,12.441,4.3,9.676,2.369,6.121,3.356-17.97-4.146-21.524-5.332-7.1.79-16.284.2-16.989-3.357-23.654-4.345-11.206,3.357-16.538,3.555-8.293-2.862-12.243-1.431-4.147,2.615-9.084,2.023S437.521,2556.457,437.606,2553.736Z" transform="translate(-437.606 -2547.195)" fill="#efc47d"/></g><g transform="translate(10.706 39.45)"><path d="M408.189,2641.989s4.7-4.344,15.681-3.554,7.028,5.924,14.532,5.924,11.694,0,17.7-4.146,7.186-5.129,12.715-1.874,6.418,4.835,13.477,6.02,9.034,2.765,15.155,1.185,4.147-4.542,11.058-2.172,8.491,5.171,4.344,5.35-9.281.019-20.932,0-18.76-5.35-23.894-4.955-4.048,1.778-10.614,3.159-23.746,2.765-27.893-.592S408.584,2644.951,408.189,2641.989Z" transform="translate(-408.189 -2636.397)" fill="#efc47d"/></g><g transform="translate(31.645 28.185)"><path d="M481.1,2599.754c6.48-2.235,15.4.573,21.721-1a18.356,18.356,0,0,1,14.168,1.7c3.209,1.859,5.51,2.965-5.153,1.188s-9.133,1.479-17.821.849S475.371,2601.728,481.1,2599.754Z" transform="translate(-479.407 -2598.081)" fill="#efc47d"/></g><g transform="translate(79.031 33.726)"><path d="M642.274,2618.6c6.48-2.234,15.4.573,21.722-1a18.355,18.355,0,0,1,14.168,1.7c3.209,1.86,5.51,2.965-5.153,1.188s-9.133,1.479-17.821.849S636.548,2620.575,642.274,2618.6Z" transform="translate(-640.583 -2616.928)" fill="#efc47d"/></g><g transform="translate(128.578 10.722)"><path d="M826.106,2587.617h-5.057c-1.139-4.8-3.469-13.762-5.8-17.574-3.258-5.332.3-7.109,0-12.253s-2.666-9.073-4.443-12.332a18.314,18.314,0,0,1-1.7-6.773l.215.047.086.019c3.592.79,2.053,1.3,3.522,4.238,1.481,2.962,1.625,8,3.106,10.664s-.247,7.243,1.382,13.759C818.587,2572.071,823.436,2582.214,826.106,2587.617Z" transform="translate(-809.111 -2538.684)" fill="#efc47d"/></g><g transform="translate(0.187 7.797)"><path d="M391.577,2528.735c-.96,3.783-3.6,9.125-5.292,15.523-1.948,7.365-2.924,15.626-3.357,16.129-.987,1.149-3.653,8.851-3.653,13.886,0,2.118-1.205,4.393-2.6,6.319h-4.265s4.6-6.7,4-7.88.235-7.71,1.975-10.879c1.5-2.738,4.541-6.714,4.541-10.071a55.864,55.864,0,0,1,3.555-16.587C387.844,2531.74,389,2528.944,391.577,2528.735Z" transform="translate(-372.408 -2528.735)" fill="#efc47d"/></g></g></g></g><g transform="translate(133.731 3676.373)"><path d="M370.218,2672.028H512.313l5.812-7.264-5.812-7.264H370.218" transform="translate(-370.218 -2657.5)" fill="#ffac00"/><text transform="translate(38.59 8.833)" fill="#fff" font-size="7" font-family="TrebuchetMS-Bold, Trebuchet MS" font-weight="700"><tspan x="0" y="0" xml:space="preserve">Monday  ~  Friday</tspan></text></g><g transform="translate(331.018 3546.733)"><g transform="translate(0 73.866)"><g transform="translate(0 10.449)"><rect width="47.605" height="59.547" fill="#fcf3bf"/></g><g transform="translate(47.605 0.181)"><path d="M1165.161,2475.879v59.546h10.872l-.988-69.815Z" transform="translate(-1165.161 -2465.611)" fill="#9898a3"/></g><path d="M1050.845,2475.445l9.883-10.269-43.6-.181-13.885,10.449Z" transform="translate(-1003.24 -2464.996)" fill="#cecfd6"/><g transform="translate(3.774 14.388)"><rect width="39.625" height="13.091" fill="#cecfd6"/></g><g transform="translate(4.161 30.549)"><rect width="39.625" height="39.447" fill="#cecfd6"/></g><g transform="translate(20.505 19.485)"><ellipse cx="2.804" cy="1.68" rx="2.804" ry="1.68" fill="#eaeaea"/></g><g transform="translate(21.17 34.03)"><ellipse cx="2.804" cy="1.68" rx="2.804" ry="1.68" fill="#eaeaea"/></g></g><g transform="translate(1.404 54.615)"><path d="M1062.7,2413.735a11.034,11.034,0,0,1-10.96,11.107h-32.758a11.035,11.035,0,0,1-10.961-11.107v-3.109a11.036,11.036,0,0,1,10.961-11.109h32.758a11.035,11.035,0,0,1,10.96,11.109Z" transform="translate(-1008.017 -2399.517)" fill="#fff4ba"/><rect width="52.425" height="24.095" rx="12.048" transform="translate(1.128 0.827)" fill="#2d356b"/><path d="M1053.53,2426.173h-30.882a10.774,10.774,0,0,1-10.763-10.763v-2.923a10.775,10.775,0,0,1,10.763-10.763h30.882a10.776,10.776,0,0,1,10.762,10.763v2.923A10.775,10.775,0,0,1,1053.53,2426.173Zm-30.882-23.82a10.147,10.147,0,0,0-10.136,10.134v2.923a10.147,10.147,0,0,0,10.136,10.136h30.882a10.145,10.145,0,0,0,10.134-10.136v-2.923a10.145,10.145,0,0,0-10.134-10.134Z" transform="translate(-1010.749 -2401.075)" fill="#c3e8e6"/><text transform="translate(7.765 16.33)" fill="#fff" font-size="10" font-family="SegoeUI, Segoe UI"><tspan x="0" y="0">8:30 am</tspan></text></g><g transform="translate(44.413)"><g transform="translate(15.721 62.155)"><g transform="translate(0 23.696)"><path d="M1213.534,2513.317l-5.759,10.515h112.261l-3.712-10.515-8.545-7.553-88.161,1.481Z" transform="translate(-1207.775 -2505.763)" fill="#f3ae3d"/></g><g transform="translate(3.851)"><path d="M1327.478,2425.165H1220.872l1.908,31.249,50.986.17v0h.816v0l50.986-.17Z" transform="translate(-1220.872 -2425.165)" fill="#445689"/></g><g transform="translate(8.294 4.147)"><path d="M1334.027,2439.27h-98.043l1.755,27.125,46.891.148v0h.751v0l46.891-.148Z" transform="translate(-1235.984 -2439.27)" fill="#7d87a8"/></g><g transform="translate(9.048 16.678)"><path d="M1332.171,2501.327c-.327.55-.625,1.027-.874,1.408-1.876,2.863-89.952,3.357-89.952,3.357s-.925-2.859-1.691-5.726c-.205-.772-.4-1.544-.562-2.261a20.356,20.356,0,0,1-.407-2.281c-.3-2.962-.2-6.023,1.33-7.059s9.827-3.406,12.3-4.2,5.036-2.567,9.972-2.666c1.364-.027,3.179.021,5.149.126,1.866.1,3.87.252,5.761.441h0a38.385,38.385,0,0,1,7.552,1.259c2.426.944,19.34.538,24.662.122.526-.041.939-.082,1.213-.122.5-.073,1.158-.131,1.921-.177a137.418,137.418,0,0,1,14.561.177,31.035,31.035,0,0,1,11.026,3.013,5.638,5.638,0,0,1,2.5,2.171C1337.656,2491.138,1334.3,2497.744,1332.171,2501.327Z" transform="translate(-1238.55 -2481.894)" fill="#f3ae3d"/></g><g transform="translate(10.152 17.253)"><path d="M1334.821,2502.706c-.327.549-.625,1.027-.874,1.408-1.876,2.863-89.952,3.356-89.952,3.356s-.925-2.859-1.691-5.725a104.785,104.785,0,0,1,10.378-1.482c5.338-.395,8.893-.79,12.349-3.554s5.332-7.405,6.072-9.232,4.739-3.629,4.739-3.629h0a38.387,38.387,0,0,1,7.552,1.259c2.426.944,19.34.538,24.662.122a1.885,1.885,0,0,1,.1.174,20.333,20.333,0,0,0,5.007,6.22c2.123,1.728,3.308,1.294,6.665,2.5C1323.1,2495.3,1331.831,2496.548,1334.821,2502.706Z" transform="translate(-1242.304 -2483.848)" fill="#f8d9aa"/></g></g><g transform="translate(15.681)"><g transform="translate(41.412 12.605)"><path d="M1348.8,2292.177c-1.5-4.623,2.974-5.176,4.141-8.805s-2.46-3.764-1.13-8.522,4.711-4.836,5.9-7.436-2.335-4.755.559-7.463,4.8.315,7.219-1.791,6.974-2.008,8.681.082,6.854-3.214,9.7.806.449,8.771.464,12,3.382,5.927,1.939,11.091-3.716,2.917-3.892,6.824,3.327,5.032,1.884,10.2c0,0-1.585,5.124-6.984,2.589s-4.9,1.123-10.084-3.256-5.369,1.722-8.754-2.008S1350.52,2297.493,1348.8,2292.177Z" transform="translate(-1348.496 -2256.626)" fill="#f2a93c"/></g><path d="M1349.89,2454.782a58.381,58.381,0,0,0,11.094,6.86,3.19,3.19,0,0,0,4.2-1.571l.048-.1a3.19,3.19,0,0,1,5.83.089h0a3.188,3.188,0,0,0,4.094,1.723c3.086-1.211,7.945-3.523,11.217-7.055a3.2,3.2,0,0,0,.328-3.937c-7.972-12.111-10.879-22.538-2.7-35.21a3.207,3.207,0,0,0,.455-2.367c-1.026-5.13-5.519-23.459-17.421-23.987-12.077-.535-15.5,19.9-16.172,25.122a3.187,3.187,0,0,0,.5,2.171c8.076,12.19,10.679,18.212-2,33.716A3.192,3.192,0,0,0,1349.89,2454.782Z" transform="translate(-1307.192 -2337.628)" fill="#c9e6e5"/><path d="M1403.691,2351.928h-5.561l-.464,12.643,7.547-.941Z" transform="translate(-1341.798 -2311.304)" fill="#efc47d"/><g transform="translate(0 9.587)"><path d="M1221.9,2275.324c-.739-2.569-6.055-6.452-4.21-7.876,1.653-1.278,6.2-.884,6.174,7.217Z" transform="translate(-1214.46 -2260.859)" fill="#f8d7a2"/><path d="M1220.955,2264.48c-2.775,2.439-5.734-.952-6.42-2.235-.753-1.411.848-3.842,2.111-4S1222.014,2263.546,1220.955,2264.48Z" transform="translate(-1212.372 -2254.749)" fill="#f8d7a2"/><path d="M1229.78,2255.344c.258-2.163,1.592-4.511,2.365-4.2.873.35-.654,2.154-.413,4.151.257,2.164.3,3.537-.524,3.681S1229.52,2257.508,1229.78,2255.344Z" transform="translate(-1223.238 -2249.718)" fill="#f8d7a2"/><path d="M1217.91,2249.276c-.87-1.651-.945-2.713-.48-2.894s.9.79,1.773,2.439,2.387,3.528,1.922,3.709S1218.784,2250.923,1217.91,2249.276Z" transform="translate(-1214.353 -2246.361)" fill="#f8d7a2"/><path d="M1210.286,2251.889c-1.208-1.471-1.6-3.279-1.188-3.545s1.2,1.349,2.4,2.821,1.911,2.489,1.5,2.754S1211.493,2253.36,1210.286,2251.889Z" transform="translate(-1208.558 -2247.741)" fill="#f8d7a2"/><path d="M1208.846,2261.226c-1.146-1.518-1.443-2.624-1.026-2.877s.985.889,2.13,2.406,1.928,2.6,1.509,2.85S1209.994,2262.744,1208.846,2261.226Z" transform="translate(-1207.641 -2254.799)" fill="#f8d7a2"/></g><g transform="translate(95.149)"><path d="M1532.943,2239.675c1.486-2.222,7.732-4.3,6.408-6.22-1.185-1.72-5.634-2.729-8.078,4.994Z" transform="translate(-1531.274 -2226.806)" fill="#f8d7a2"/><path d="M1537.984,2229.769c1.9,3.168,5.752.84,6.8-.174,1.147-1.115.363-3.917-.792-4.453S1537.26,2228.557,1537.984,2229.769Z" transform="translate(-1535.966 -2221.759)" fill="#f8d7a2"/><path d="M1542.19,2218.474c.413-2.138-.143-4.782-.974-4.72-.938.067-.033,2.25-.871,4.079-.9,1.983-1.367,3.276-.621,3.666S1541.778,2220.615,1542.19,2218.474Z" transform="translate(-1536.977 -2213.753)" fill="#f8d7a2"/><path d="M1551.63,2217.689c1.331-1.308,1.726-2.3,1.339-2.609s-1.1.478-2.432,1.782-3.348,2.634-2.961,2.948S1550.3,2218.992,1551.63,2217.689Z" transform="translate(-1542.749 -2214.641)" fill="#f8d7a2"/><path d="M1558.3,2222.613c1.6-1.033,2.522-2.636,2.211-3.014s-1.552.92-3.149,1.954-2.578,1.789-2.266,2.167S1556.7,2223.646,1558.3,2222.613Z" transform="translate(-1548.05 -2217.833)" fill="#f8d7a2"/><path d="M1557.61,2231.9c1.554-1.1,2.174-2.06,1.853-2.428s-1.208.547-2.761,1.643-2.627,1.886-2.305,2.256S1556.055,2233,1557.61,2231.9Z" transform="translate(-1547.558 -2224.794)" fill="#f8d7a2"/></g><g transform="translate(66.815 11.289)"><path d="M1435.02,2356.666c3.908,4.648,22.3-21.08,22.642-22.2,0,0-1.712-2.506-2.938-1.91C1451.508,2334.116,1433.28,2354.6,1435.02,2356.666Z" transform="translate(-1434.903 -2308.851)" fill="#c9e6e5"/><path d="M1510.2,2256.178c4.377.984-5.447,23.813-6.114,24.5,0,0-3.386.39-3.435-.732C1500.528,2277.042,1508.249,2255.738,1510.2,2256.178Z" transform="translate(-1481.322 -2254.989)" fill="#c9e6e5"/><path d="M1525.62,2252.254l-1.369.081-2.882,4.346a10.664,10.664,0,0,0,2.945.114C1524.86,2256.547,1525.62,2252.254,1525.62,2252.254Z" transform="translate(-1495.948 -2252.224)" fill="#75c8c8"/><path d="M1534.706,2252.151l1.292.487,1.405,5.026a10.755,10.755,0,0,1-2.867-.773C1534.088,2256.492,1534.706,2252.151,1534.706,2252.151Z" transform="translate(-1505.128 -2252.151)" fill="#75c8c8"/></g><g transform="translate(7.231 22.525)"><path d="M1315.9,2372.162c-2.107,5.7-28.111-12.3-28.813-13.243,0,0,.764-2.937,2.12-2.791C1292.757,2356.512,1316.834,2369.628,1315.9,2372.162Z" transform="translate(-1270.958 -2336.791)" fill="#c9e6e5"/><path d="M1238.085,2294.368c-3.786,2.406,13.174,20.571,14.034,20.989,0,0,3.319-.777,2.985-1.849C1254.243,2310.734,1239.776,2293.293,1238.085,2294.368Z" transform="translate(-1235.977 -2293.158)" fill="#c9e6e5"/><path d="M1235.544,2290.754l1.315-.387,4.182,3.116a10.681,10.681,0,0,1-2.733,1.1C1237.711,2294.537,1235.544,2290.754,1235.544,2290.754Z" transform="translate(-1234.572 -2290.367)" fill="#75c8c8"/><path d="M1233.288,2291.477l-1.051.895.376,5.205a10.763,10.763,0,0,0,2.438-1.7C1235.337,2295.354,1233.288,2291.477,1233.288,2291.477Z" transform="translate(-1232.237 -2291.151)" fill="#75c8c8"/></g><g transform="translate(46.139 18.356)"><g transform="translate(4.49 3.87)"><path d="M1391.073,2316.741c-3.736-.937-9.586-13.259-2.962-24.936,1.339-2.36,4.463-3.128,9.676-1.82,5.734,1.438,7.968,3.647,7.871,5.806C1404.967,2311.056,1394.9,2317.7,1391.073,2316.741Z" transform="translate(-1383.559 -2289.351)" fill="#f8d6a1"/><path d="M1381.4,2327.227c.031-.867.307-1.509-.332-1.531s-1.185.663-1.215,1.531.464,1.588,1.1,1.611S1381.368,2328.095,1381.4,2327.227Z" transform="translate(-1379.849 -2315.01)" fill="#f5c171"/><path d="M1446.031,2343.531c.364-.788.4-1.49,1-1.213a1.634,1.634,0,0,1-1.318,2.858C1445.113,2344.9,1445.667,2344.322,1446.031,2343.531Z" transform="translate(-1426.161 -2326.702)" fill="#f5c171"/><g transform="translate(9.074 13.927)"><path d="M1410.714,2341.942a2.822,2.822,0,0,0,1,.746,1.638,1.638,0,0,0,1.247-.231c.128-.3.173-3.934-.11-4.039S1410.805,2341.49,1410.714,2341.942Z" transform="translate(-1410.714 -2337.918)" fill="#f2a93c"/><path d="M1413.563,2340.332c-.016.07.287.263.4.293.2.05.467.008.507-.114.095-.3,1.11-3.665.5-3.784C1414.3,2336.6,1413.664,2339.894,1413.563,2340.332Z" transform="translate(-1412.725 -2336.723)" fill="#f8d6a1"/></g><g transform="translate(3.966 7.887)"><path d="M1429.035,2317.795a7.265,7.265,0,0,0,5.655,3.9C1432.339,2321.05,1431.053,2320.288,1429.035,2317.795Z" transform="translate(-1418.541 -2317.319)" fill="#2d356b"/><path d="M1400.81,2316.177a8.263,8.263,0,0,1-7.471.032A11.193,11.193,0,0,0,1400.81,2316.177Z" transform="translate(-1393.339 -2316.177)" fill="#2d356b"/><path d="M1397.473,2327.636a3.515,3.515,0,0,1,3.964,1.855A8.86,8.86,0,0,0,1397.473,2327.636Z" transform="translate(-1396.258 -2324.226)" fill="#2d356b"/><path d="M1396.846,2331.879a3.516,3.516,0,0,1,4.377.111A8.873,8.873,0,0,0,1396.846,2331.879Z" transform="translate(-1395.815 -2326.758)" fill="#2d356b"/><path d="M1429.286,2336.175a3.148,3.148,0,0,0-4.108-.17A7.856,7.856,0,0,1,1429.286,2336.175Z" transform="translate(-1415.817 -2329.691)" fill="#2d356b"/><path d="M1428.24,2338.924a3.164,3.164,0,0,0-3.649-1.9A7.886,7.886,0,0,1,1428.24,2338.924Z" transform="translate(-1415.403 -2330.841)" fill="#2d356b"/><path d="M1408.054,2370.39c.1-.416-.365-.491-.958-.641s-1.084-.313-1.188.1.291.874.884,1.022S1407.949,2370.806,1408.054,2370.39Z" transform="translate(-1402.201 -2353.885)" fill="#ec6872"/><path d="M1410.109,2356.47a1.921,1.921,0,0,0-1.944-.55c-.37-.093-.582-.809-2.028-.446-.416.1.7.976,1.8,1.251S1410.426,2356.759,1410.109,2356.47Z" transform="translate(-1402.311 -2343.848)" fill="#ec6872"/><path d="M1403.045,2355.722l5.769,1.448s-1.816,3.956-3.926,3.427S1403.045,2355.722,1403.045,2355.722Z" transform="translate(-1400.183 -2344.096)" fill="#f2a93c"/><path d="M1409.146,2358.009l-4.969-1.247.392,3.514a1.951,1.951,0,0,0,2.668.624Z" transform="translate(-1400.991 -2344.83)" fill="#fff"/></g></g><g transform="translate(6.617)"><path d="M1387.7,2279.46c-1.736,3.6.449,7.336,2.98,7.468s3.722-.8,7.4.385,5.58,3.712,7.416,3.807,3.477-.85,4.427-4.459C1411.666,2280.072,1391.609,2271.352,1387.7,2279.46Z" transform="translate(-1387.082 -2276.189)" fill="#c9e6e5"/></g><g transform="translate(0 6.515)"><path d="M1365.088,2301.413a.561.561,0,0,1-.5-.493.619.619,0,0,1,.437-.718l8.349-1.842a.544.544,0,0,1,.634.482.619.619,0,0,1-.437.718l-8.35,1.842A.468.468,0,0,1,1365.088,2301.413Z" transform="translate(-1364.576 -2298.349)" fill="#40908e"/></g><g transform="translate(7.814 1.322)"><path d="M1408.555,2292.749a2.464,2.464,0,0,1-.257-.028,8.536,8.536,0,0,1-2.634-1.1c-.358-.2-.7-.384-1.026-.539-.552-.26-1.092-.571-1.614-.871a13.2,13.2,0,0,0-2.58-1.248,8.067,8.067,0,0,0-3.65.037c-.233.037-.465.074-.7.108a4.311,4.311,0,0,1-4.279-2.068,4.2,4.2,0,0,1-.65-1.848,3.387,3.387,0,0,1,.283-1.707h0a4.474,4.474,0,0,1,2.6-2.247c3.413-1.248,7.705-.394,12.758,2.539a13.353,13.353,0,0,1,4.14,3.363,3.713,3.713,0,0,1,.76,1.957,3.613,3.613,0,0,1-.967,2.724A2.856,2.856,0,0,1,1408.555,2292.749Zm-9.2-4.831a5.259,5.259,0,0,1,1.3.222,13.741,13.741,0,0,1,2.723,1.31c.51.293,1.037.6,1.562.844.35.165.714.366,1.066.56a8.05,8.05,0,0,0,2.409,1.019,2.084,2.084,0,0,0,1.81-.673,2.7,2.7,0,0,0,.722-2.031,2.862,2.862,0,0,0-.589-1.476,12.677,12.677,0,0,0-3.908-3.152c-3.346-1.942-8.173-3.949-12.173-2.487a3.68,3.68,0,0,0-2.145,1.812h0a2.449,2.449,0,0,0-.2,1.234,3.294,3.294,0,0,0,.515,1.442,3.59,3.59,0,0,0,3.566,1.719c.227-.033.456-.07.686-.107A12.706,12.706,0,0,1,1399.359,2287.918Z" transform="translate(-1391.155 -2280.686)" fill="#75c8c8"/></g></g><path d="M1397.018,2385.047s-2.123,5.588,2.064,12.741c0,0,5.479-5.358,5.295-11.966C1400.593,2380.76,1397.018,2385.047,1397.018,2385.047Z" transform="translate(-1340.961 -2333.49)" fill="#efc47d"/></g><g transform="translate(0 83.832)"><path d="M1304.275,2558.548H1154.49s.593-8.294,0-9.479.2-10.861,2.765-12.638,3.411-5.134,3.411-8.491,4.344-12.835,7.109-16.785c2.119-3.028,3.31-4.256,5.884-4.465a16.383,16.383,0,0,1,2.8.072c4.739.444,13.773,2.962,18.809,2.073s9.929-3.555,14.366-6.961,7.4-3.11,11.552-2.814,9.627,3.406,14.662,3.554,7.7-.74,12.885-.888,11.4,4.147,16.735,4.443c5.231.291,13.6,2.6,17.41,3.447l.215.047.085.019c3.633.779,4.665.51,6.135,3.448,1.481,2.962-.148,8.146,1.333,10.811s5.479,6.072,7.109,12.589S1304.275,2558.548,1304.275,2558.548Z" transform="translate(-1154.304 -2498.893)" fill="#fcf3bf"/><g transform="translate(19.355 13.225)"><path d="M1220.136,2550.417s.4-1.58,7.032-.2,7.818.943,11.964-.615,4.542-.219,8.1,0,11.355-4.717,16.735-5.605,13.379,3.258,18.068,4.443,17.328,1.383,21.475.2,3.949-.907,9.873,2.41,7.5,4.106,12.44,4.3,9.676,2.37,6.122,3.357-17.97-4.147-21.524-5.332-7.1.79-16.285.2-16.989-3.357-23.653-4.344-11.206,3.357-16.538,3.554-8.294-2.862-12.243-1.431-4.147,2.616-9.083,2.023S1220.051,2553.137,1220.136,2550.417Z" transform="translate(-1220.135 -2543.875)" fill="#efc47d"/></g><g transform="translate(10.706 39.45)"><path d="M1190.719,2638.668s4.7-4.344,15.681-3.554,7.028,5.924,14.532,5.924,11.695,0,17.7-4.147,7.186-5.128,12.715-1.873,6.418,4.835,13.477,6.02,9.034,2.765,15.156,1.185,4.147-4.542,11.058-2.172,8.491,5.171,4.344,5.35-9.281.018-20.932,0-18.759-5.35-23.894-4.955-4.048,1.777-10.614,3.159-23.746,2.765-27.893-.592S1191.114,2641.631,1190.719,2638.668Z" transform="translate(-1190.719 -2633.077)" fill="#efc47d"/></g><g transform="translate(31.644 28.185)"><path d="M1263.628,2596.433c6.48-2.235,15.4.573,21.722-1a18.354,18.354,0,0,1,14.168,1.7c3.209,1.859,5.51,2.965-5.153,1.188s-9.133,1.479-17.821.849S1257.9,2598.408,1263.628,2596.433Z" transform="translate(-1261.938 -2594.76)" fill="#efc47d"/></g><g transform="translate(79.031 33.726)"><path d="M1424.805,2615.28c6.48-2.234,15.4.573,21.721-1a18.355,18.355,0,0,1,14.168,1.7c3.209,1.86,5.51,2.965-5.153,1.188s-9.133,1.479-17.822.849S1419.079,2617.255,1424.805,2615.28Z" transform="translate(-1423.115 -2613.607)" fill="#efc47d"/></g><g transform="translate(128.578 10.723)"><path d="M1608.636,2584.3h-5.057c-1.139-4.8-3.469-13.762-5.8-17.575-3.258-5.332.3-7.109,0-12.253s-2.666-9.074-4.443-12.332a18.315,18.315,0,0,1-1.7-6.773l.215.047.086.019c3.592.79,2.053,1.3,3.522,4.239,1.481,2.962,1.625,8,3.106,10.663s-.247,7.243,1.382,13.76C1601.118,2568.75,1605.967,2578.893,1608.636,2584.3Z" transform="translate(-1591.642 -2535.364)" fill="#efc47d"/></g><g transform="translate(0.187 7.797)"><path d="M1174.108,2525.415c-.959,3.783-3.6,9.124-5.292,15.523-1.948,7.366-2.924,15.626-3.357,16.129-.987,1.149-3.653,8.85-3.653,13.886,0,2.118-1.205,4.394-2.6,6.319h-4.265s4.6-6.7,4-7.88.235-7.71,1.974-10.879c1.5-2.737,4.541-6.714,4.541-10.071a55.875,55.875,0,0,1,3.555-16.587C1170.375,2528.42,1171.534,2525.624,1174.108,2525.415Z" transform="translate(-1154.939 -2525.415)" fill="#efc47d"/></g></g></g><g transform="translate(43.956 129.486)"><path d="M1152.749,2668.708h142.095l5.811-7.265-5.811-7.264H1152.749" transform="translate(-1152.749 -2654.179)" fill="#009c9a"/><text transform="translate(38.59 8.833)" fill="#fff" font-size="7" font-family="TrebuchetMS-Bold, Trebuchet MS" font-weight="700"><tspan x="0" y="0" xml:space="preserve">Saturday  ~  Sunday</tspan></text></g></g></g></svg>