<svg xmlns="http://www.w3.org/2000/svg" xmlns:xlink="http://www.w3.org/1999/xlink" width="541.794" height="385.597" viewBox="0 0 541.794 385.597">
  <defs>
    <clipPath id="clip-path">
      <circle id="Ellipse_63" data-name="Ellipse 63" cx="39.896" cy="39.896" r="39.896" fill="#f8f8f8"/>
    </clipPath>
    <clipPath id="clip-path-2">
      <circle id="Ellipse_65" data-name="Ellipse 65" cx="39.896" cy="39.896" r="39.896" fill="#fff"/>
    </clipPath>
  </defs>
  <g id="Group_6155" data-name="Group 6155" transform="translate(-30 -253.352)">
    <g id="Group_6154" data-name="Group 6154">
      <g id="Group_6153" data-name="Group 6153">
        <g id="Group_6152" data-name="Group 6152">
          <g id="Group_5287" data-name="Group 5287" transform="translate(30 253.352)">
            <g id="Group_5286" data-name="Group 5286">
              <g id="Group_5285" data-name="Group 5285">
                <g id="Group_5284" data-name="Group 5284">
                  <g id="Group_5283" data-name="Group 5283">
                    <g id="Group_5182" data-name="Group 5182">
                      <g id="Group_5179" data-name="Group 5179" transform="translate(0.45)">
                        <g id="Group_5175" data-name="Group 5175" transform="translate(0.103)">
                          <path id="Path_5801" data-name="Path 5801" d="M920.561,237.128h.641V223.207H379.962v290.93H920.556V484.914h.005Z" transform="translate(-379.962 -222.8)" fill="#fff"/>
                          <rect id="Rectangle_1692" data-name="Rectangle 1692" width="540.687" height="0.814" transform="translate(0 290.93)" fill="#a0bacb"/>
                          <rect id="Rectangle_1693" data-name="Rectangle 1693" width="541.24" height="0.814" fill="#7b88ac"/>
                        </g>
                        <g id="Group_5176" data-name="Group 5176" transform="translate(296.851 105.827)">
                          <path id="Path_5802" data-name="Path 5802" d="M884.546,425.658v-.129h-2.358v.129H857.816V532.487h50.052V425.658Zm21.249,3.43v23.491H884.546V429.088Zm-23.607,27.545v44.879h-22.3V456.633Zm2.358,44.879V456.633H905.8v44.879Zm-2.358-72.424v23.491h-22.3V429.088Zm-22.3,76.478h22.3v23.491h-22.3Zm24.658,23.491V505.566H905.8v23.491Z" transform="translate(-857.668 -425.284)" fill="#ebebeb"/>
                          <path id="Path_5803" data-name="Path 5803" d="M907.88,532.508H857.533V425.188H881.9v-.128h2.654v.128H907.88Zm-50.051-.49h49.755V425.679H884.263v-.128H882.2v.128H857.829Zm47.979-2.94H884.263V505.1h21.545Zm-21.249-.49h20.953v-23H884.559Zm-2.358.49H859.6V505.1h22.6Zm-22.3-.49h22v-23h-22Zm45.907-27.055H884.263V456.164h21.545Zm-21.249-.49h20.953V456.654H884.559Zm-2.358.49H859.6V456.164h22.6Zm-22.3-.49h22V456.654h-22ZM905.808,452.6H884.263V428.619h21.545Zm-21.249-.49h20.953v-23H884.559Zm-2.358.49H859.6V428.619h22.6Zm-22.3-.49h22v-23h-22Z" transform="translate(-857.533 -425.06)" fill="#ebebeb"/>
                        </g>
                        <g id="Group_5177" data-name="Group 5177" transform="translate(0 59.446)">
                          <path id="Path_5804" data-name="Path 5804" d="M455.475,337.245v-.214h-6.609v.214H380.559V514.616H520.838V337.245Zm59.555,5.7v39H455.475v-39Zm-66.163,45.733v74.514h-62.5V388.673Zm6.609,74.514V388.673H515.03v74.514ZM448.867,342.94v39h-62.5v-39Zm-62.5,126.978h62.5v39h-62.5Zm69.108,39v-39H515.03v39Z" transform="translate(-380.144 -336.625)" fill="#ebebeb"/>
                          <path id="Path_5805" data-name="Path 5805" d="M520.873,514.651H379.765V336.466h68.308v-.213h7.438v.213h65.362Zm-140.278-.814H520.044V337.28H454.681v-.214H448.9v.214H380.595Zm134.471-4.882H454.681V469.14h60.384Zm-59.555-.813h58.725V469.953H455.511Zm-6.608.813h-63.33V469.14H448.9Zm-62.5-.813h61.67V469.953H386.4Zm128.663-44.92H454.681V387.895h60.384Zm-59.555-.814h58.725v-73.7H455.511Zm-6.608.814h-63.33V387.895H448.9Zm-62.5-.814h61.67v-73.7H386.4Zm128.663-80.432H454.681V342.161h60.384Zm-59.555-.813h58.725V342.975H455.511Zm-6.608.813h-63.33V342.161H448.9Zm-62.5-.813h61.67V342.975H386.4Z" transform="translate(-379.765 -336.253)" fill="#ebebeb"/>
                        </g>
                        <g id="Group_5178" data-name="Group 5178" transform="translate(430.065 59.446)">
                          <path id="Path_5806" data-name="Path 5806" d="M1164.443,508.921h-35.4v-39h35.4v-6.73h-35.4V388.673h35.4v-6.73h-35.4v-39h35.4v-5.7h-35.4v-.214h-6.608v.214h-68.308V514.616h110.315Zm-42.008,0h-62.5v-39h62.5Zm0-45.733h-62.5V388.673h62.5Zm0-81.245h-62.5v-39h62.5Z" transform="translate(-1053.714 -336.624)" fill="#ebebeb"/>
                          <path id="Path_5807" data-name="Path 5807" d="M1196.779,630.513h35.814V629.7h-34.984V591.51h34.984V590.7h-35.814Z" transform="translate(-1121.863 -457.81)" fill="#ebebeb"/>
                          <path id="Path_5808" data-name="Path 5808" d="M1196.779,510.462h35.814v-.814h-34.984v-73.7h34.984v-.814h-35.814Z" transform="translate(-1121.863 -383.492)" fill="#ebebeb"/>
                          <path id="Path_5809" data-name="Path 5809" d="M1196.779,387.382h35.814v-.814h-34.984V348.379h34.984v-.814h-35.814Z" transform="translate(-1121.863 -341.657)" fill="#ebebeb"/>
                          <path id="Path_5810" data-name="Path 5810" d="M1127.784,347.566h-63.329v39.816h63.329Zm-.83,39h-61.67V348.38h61.67Z" transform="translate(-1058.647 -341.657)" fill="#ebebeb"/>
                          <path id="Path_5811" data-name="Path 5811" d="M1164.064,513.837h-109.9V337.28h68.307v-.213h5.779v.213h35.814v-.814H1129.08v-.213h-7.438v.213h-68.307V514.651h110.73Z" transform="translate(-1053.334 -336.253)" fill="#ebebeb"/>
                          <path id="Path_5812" data-name="Path 5812" d="M1064.455,630.513h63.329V590.7h-63.329Zm.829-39h61.67V629.7h-61.67Z" transform="translate(-1058.647 -457.81)" fill="#ebebeb"/>
                          <path id="Path_5813" data-name="Path 5813" d="M1127.784,435.134h-63.329v75.328h63.329Zm-.83,74.514h-61.67v-73.7h61.67Z" transform="translate(-1058.647 -383.492)" fill="#ebebeb"/>
                        </g>
                      </g>
                      <g id="Group_5180" data-name="Group 5180" transform="translate(0 245.11)">
                        <path id="Path_5814" data-name="Path 5814" d="M920.144,713.861H379.55V813.68H378.9V854H920.138V718.114h.005Z" transform="translate(-378.903 -713.516)" fill="#f9f9f9"/>
                        <rect id="Rectangle_1694" data-name="Rectangle 1694" width="539.724" height="0.583" transform="translate(1.654 139.684)" fill="#f9f9f9"/>
                        <rect id="Rectangle_1695" data-name="Rectangle 1695" width="540.692" height="0.583" transform="translate(0.553)" fill="#f9f9f9"/>
                      </g>
                      <g id="Group_5181" data-name="Group 5181" transform="translate(28.072 5.129)">
                        <path id="Path_5815" data-name="Path 5815" d="M987.763,319.289v-87.04H985.99v87.04a10.761,10.761,0,1,0,1.773,0Z" transform="translate(-631.626 -232.249)" fill="#ffb2b0"/>
                        <path id="Path_5816" data-name="Path 5816" d="M444.3,332.453v-87.04h-1.773v87.04a10.761,10.761,0,1,0,1.773,0Z" transform="translate(-432.653 -238.538)" fill="#ffb2b0"/>
                        <path id="Path_5817" data-name="Path 5817" d="M634.471,321.931V258.65h-1.288v63.281a7.823,7.823,0,1,0,1.288,0Z" transform="translate(-503.783 -244.862)" fill="#ffb2b0"/>
                        <path id="Path_5818" data-name="Path 5818" d="M1153.726,321.931V258.65h-1.288v63.281a7.823,7.823,0,1,0,1.288,0Z" transform="translate(-694.807 -244.862)" fill="#ffb2b0"/>
                      </g>
                    </g>
                    <g id="Group_5219" data-name="Group 5219" transform="translate(15.653 119.753)">
                      <g id="Group_5191" data-name="Group 5191" transform="translate(0 24.411)">
                        <g id="Group_5183" data-name="Group 5183">
                          <rect id="Rectangle_1696" data-name="Rectangle 1696" width="45.524" height="1.913" transform="translate(0.415 0.407)" fill="#ebebeb"/>
                          <path id="Path_5819" data-name="Path 5819" d="M455.229,512.819H408.875v-2.727h46.354Zm-45.525-.814h44.7v-1.1H409.7Z" transform="translate(-408.875 -510.092)" fill="#ebebeb"/>
                        </g>
                        <g id="Group_5184" data-name="Group 5184" transform="translate(0 28.859)">
                          <rect id="Rectangle_1697" data-name="Rectangle 1697" width="45.524" height="1.913" transform="translate(0.415 0.407)" fill="#ebebeb"/>
                          <path id="Path_5820" data-name="Path 5820" d="M455.229,568.076H408.875v-2.727h46.354Zm-45.525-.814h44.7v-1.1H409.7Z" transform="translate(-408.875 -565.349)" fill="#ebebeb"/>
                        </g>
                        <g id="Group_5185" data-name="Group 5185" transform="translate(0 57.717)">
                          <rect id="Rectangle_1698" data-name="Rectangle 1698" width="45.524" height="1.913" transform="translate(0.415 0.407)" fill="#ebebeb"/>
                          <path id="Path_5821" data-name="Path 5821" d="M455.229,623.332H408.875V620.6h46.354Zm-45.525-.814h44.7v-1.1H409.7Z" transform="translate(-408.875 -620.605)" fill="#ebebeb"/>
                        </g>
                        <g id="Group_5190" data-name="Group 5190" transform="translate(0 0.638)">
                          <g id="Group_5186" data-name="Group 5186" transform="translate(0 86.574)">
                            <rect id="Rectangle_1699" data-name="Rectangle 1699" width="45.524" height="1.913" transform="translate(0.415 0.407)" fill="#ebebeb"/>
                            <path id="Path_5822" data-name="Path 5822" d="M455.229,679.808H408.875v-2.727h46.354Zm-45.525-.813h44.7v-1.1H409.7Z" transform="translate(-408.875 -677.081)" fill="#ebebeb"/>
                          </g>
                          <g id="Group_5187" data-name="Group 5187" transform="translate(0 114.194)">
                            <rect id="Rectangle_1700" data-name="Rectangle 1700" width="45.524" height="1.913" transform="translate(0.415 0.407)" fill="#ebebeb"/>
                            <path id="Path_5823" data-name="Path 5823" d="M455.229,732.694H408.875v-2.727h46.354ZM409.7,731.88h44.7v-1.1H409.7Z" transform="translate(-408.875 -729.967)" fill="#ebebeb"/>
                          </g>
                          <g id="Group_5188" data-name="Group 5188">
                            <rect id="Rectangle_1701" data-name="Rectangle 1701" width="2.439" height="138.823" transform="translate(0.415 0.407)" fill="#ebebeb"/>
                            <path id="Path_5824" data-name="Path 5824" d="M412.143,650.951h-3.268V511.314h3.268Zm-2.439-.814h1.609V512.128H409.7Z" transform="translate(-408.875 -511.314)" fill="#ebebeb"/>
                          </g>
                          <g id="Group_5189" data-name="Group 5189" transform="translate(43.086)">
                            <rect id="Rectangle_1702" data-name="Rectangle 1702" width="2.439" height="138.823" transform="translate(0.415 0.407)" fill="#ebebeb"/>
                            <path id="Path_5825" data-name="Path 5825" d="M494.641,650.951h-3.268V511.314h3.268Zm-2.439-.814h1.61V512.128H492.2Z" transform="translate(-491.373 -511.314)" fill="#ebebeb"/>
                          </g>
                        </g>
                      </g>
                      <g id="Group_5202" data-name="Group 5202" transform="translate(8.16 31.214)">
                        <g id="Group_5193" data-name="Group 5193">
                          <g id="Group_5192" data-name="Group 5192">
                            <rect id="Rectangle_1703" data-name="Rectangle 1703" width="4.769" height="22.055" transform="translate(0.415 0.407)" fill="#ebebeb"/>
                            <path id="Path_5826" data-name="Path 5826" d="M430.1,545.987h-5.6V523.118h5.6Zm-4.769-.814h3.939V523.932h-3.939Z" transform="translate(-424.499 -523.118)" fill="#ebebeb"/>
                          </g>
                          <path id="Path_5827" data-name="Path 5827" d="M429.993,532.154a1.572,1.572,0,1,1-1.571-1.541A1.556,1.556,0,0,1,429.993,532.154Z" transform="translate(-425.622 -526.699)" fill="#ebebeb"/>
                        </g>
                        <g id="Group_5195" data-name="Group 5195" transform="translate(5.606)">
                          <g id="Group_5194" data-name="Group 5194">
                            <rect id="Rectangle_1704" data-name="Rectangle 1704" width="4.769" height="22.055" transform="translate(0.415 0.407)" fill="#ebebeb"/>
                            <path id="Path_5828" data-name="Path 5828" d="M440.832,545.987h-5.6V523.118h5.6Zm-4.769-.814H440V523.932h-3.94Z" transform="translate(-435.233 -523.118)" fill="#ebebeb"/>
                          </g>
                          <path id="Path_5829" data-name="Path 5829" d="M440.727,532.154a1.572,1.572,0,1,1-1.572-1.541A1.556,1.556,0,0,1,440.727,532.154Z" transform="translate(-436.356 -526.699)" fill="#ebebeb"/>
                        </g>
                        <g id="Group_5197" data-name="Group 5197" transform="translate(11.212)">
                          <g id="Group_5196" data-name="Group 5196">
                            <rect id="Rectangle_1705" data-name="Rectangle 1705" width="4.769" height="22.055" transform="translate(0.415 0.407)" fill="#ebebeb"/>
                            <path id="Path_5830" data-name="Path 5830" d="M451.566,545.987h-5.6V523.118h5.6Zm-4.769-.814h3.939V523.932H446.8Z" transform="translate(-445.967 -523.118)" fill="#ebebeb"/>
                          </g>
                          <path id="Path_5831" data-name="Path 5831" d="M451.46,532.154a1.572,1.572,0,1,1-1.572-1.541A1.556,1.556,0,0,1,451.46,532.154Z" transform="translate(-447.09 -526.699)" fill="#ebebeb"/>
                        </g>
                        <g id="Group_5199" data-name="Group 5199" transform="translate(16.817)">
                          <g id="Group_5198" data-name="Group 5198">
                            <rect id="Rectangle_1706" data-name="Rectangle 1706" width="4.769" height="22.055" transform="translate(0.415 0.407)" fill="#ebebeb"/>
                            <path id="Path_5832" data-name="Path 5832" d="M462.3,545.987h-5.6V523.118h5.6Zm-4.77-.814h3.94V523.932h-3.94Z" transform="translate(-456.7 -523.118)" fill="#ebebeb"/>
                          </g>
                          <path id="Path_5833" data-name="Path 5833" d="M462.194,532.154a1.572,1.572,0,1,1-1.572-1.541A1.557,1.557,0,0,1,462.194,532.154Z" transform="translate(-457.823 -526.699)" fill="#ebebeb"/>
                        </g>
                        <g id="Group_5201" data-name="Group 5201" transform="translate(22.423)">
                          <g id="Group_5200" data-name="Group 5200">
                            <rect id="Rectangle_1707" data-name="Rectangle 1707" width="4.769" height="22.055" transform="translate(0.415 0.407)" fill="#ebebeb"/>
                            <path id="Path_5834" data-name="Path 5834" d="M473.033,545.987h-5.6V523.118h5.6Zm-4.769-.814h3.94V523.932h-3.94Z" transform="translate(-467.434 -523.118)" fill="#ebebeb"/>
                          </g>
                          <path id="Path_5835" data-name="Path 5835" d="M472.928,532.154a1.572,1.572,0,1,1-1.572-1.541A1.556,1.556,0,0,1,472.928,532.154Z" transform="translate(-468.557 -526.699)" fill="#ebebeb"/>
                        </g>
                      </g>
                      <path id="Path_5836" data-name="Path 5836" d="M427.749,647.336a10.465,10.465,0,0,1,.742-4.053h-5.716a10.464,10.464,0,0,1,.742,4.053c0,2.452-2.5,6.979-2.5,10s2.655,4.008,4.621,4.008,4.62-.99,4.62-4.008S427.749,649.788,427.749,647.336Z" transform="translate(-414.673 -549.312)" fill="#ebebeb"/>
                      <g id="Group_5204" data-name="Group 5204" transform="translate(24.264 62.743)">
                        <g id="Group_5203" data-name="Group 5203" transform="translate(0.708)">
                          <path id="Path_5837" data-name="Path 5837" d="M469.058,594.444c1.542-3.548-1.885-3.482-1.624-4.414.49-1.749,2.338.151,3.087-.729s-1.849-3.623-.488-4.574.884,2.266,2.06,2.037.476-3.626,1.863-3.246c1.042.286-.2,2.409-.081,3.4s2.265-.454,2.3.963-2.564.8-2.87,1.873,2.8,1.3,1.709,2.21-3.14-.18-3.68.768S468.4,595.951,469.058,594.444Z" transform="translate(-461.816 -583.489)" fill="#ebebeb"/>
                          <path id="Path_5838" data-name="Path 5838" d="M462.983,600.083c-1.449-3.585-3.838-1.175-4.321-2.017-.906-1.581,1.77-1.505,1.672-2.648s-3.914-1.3-3.628-2.914,2.254,1,2.926.027-2.263-2.905-1-3.593c.946-.516,1.589,1.848,2.382,2.474s1.284-1.885,2.327-.9-1.251,2.334-.7,3.311,2.92-1.006,2.8.392-2.361,2.038-2.065,3.084S463.6,601.6,462.983,600.083Z" transform="translate(-456.691 -586.057)" fill="#ebebeb"/>
                        </g>
                        <path id="Path_5839" data-name="Path 5839" d="M466.025,600.828h-7.912s-2.777,2.338-2.777,5.1,1.731,5.633,6.734,5.633,6.734-2.87,6.734-5.633S466.025,600.828,466.025,600.828Z" transform="translate(-455.335 -591.772)" fill="#ebebeb"/>
                      </g>
                      <g id="Group_5205" data-name="Group 5205" transform="translate(26.205 99.434)">
                        <rect id="Rectangle_1708" data-name="Rectangle 1708" width="7.303" height="9.726" transform="translate(2.259 2.87)" fill="#ebebeb"/>
                        <ellipse id="Ellipse_309" data-name="Ellipse 309" cx="5.763" cy="2.87" rx="5.763" ry="2.87" fill="#ebebeb"/>
                      </g>
                      <g id="Group_5206" data-name="Group 5206" transform="translate(21.119 15.479)">
                        <rect id="Rectangle_1709" data-name="Rectangle 1709" width="5.415" height="7.211" transform="translate(1.675 2.128)" fill="#ebebeb"/>
                        <path id="Path_5840" data-name="Path 5840" d="M457.859,495.118c0,1.175-1.913,2.128-4.273,2.128s-4.273-.953-4.273-2.128,1.913-2.128,4.273-2.128S457.859,493.943,457.859,495.118Z" transform="translate(-449.313 -492.99)" fill="#ebebeb"/>
                      </g>
                      <g id="Group_5208" data-name="Group 5208" transform="translate(3.016)">
                        <g id="Group_5207" data-name="Group 5207">
                          <path id="Path_5841" data-name="Path 5841" d="M432.7,483.211s-1.873-6.378,6.419-13.552c0,0-7.1,7.653-4.769,13.552Z" transform="translate(-423.188 -466.365)" fill="#ebebeb"/>
                          <path id="Path_5842" data-name="Path 5842" d="M431.224,481.646s-4.3-7.1,3.4-18.294c0,0-6.1,11.4-1.41,17.787Z" transform="translate(-421.997 -463.352)" fill="#ebebeb"/>
                          <path id="Path_5843" data-name="Path 5843" d="M423.682,483.211s1.873-6.378-6.419-13.552c0,0,7.1,7.653,4.769,13.552Z" transform="translate(-415.898 -466.365)" fill="#ebebeb"/>
                          <path id="Path_5844" data-name="Path 5844" d="M427.39,481.493s3.451-5.709-2.732-14.7c0,0,4.906,9.159,1.135,14.293Z" transform="translate(-419.431 -464.995)" fill="#ebebeb"/>
                          <path id="Path_5845" data-name="Path 5845" d="M432.173,488.855s-1.619-6.444,6.951-13.3c0,0-7.4,7.376-5.3,13.36Z" transform="translate(-422.963 -469.183)" fill="#ebebeb"/>
                          <path id="Path_5846" data-name="Path 5846" d="M421.6,487.357s1.619-6.444-6.951-13.3c0,0,7.4,7.376,5.3,13.36Z" transform="translate(-414.65 -468.468)" fill="#ebebeb"/>
                        </g>
                        <path id="Path_5847" data-name="Path 5847" d="M424.732,491.334h-5.606l2.573,10.2h6.066l2.573-10.2Z" transform="translate(-416.788 -476.72)" fill="#ebebeb"/>
                      </g>
                      <g id="Group_5218" data-name="Group 5218" transform="translate(4.35 74.561)">
                        <g id="Group_5213" data-name="Group 5213">
                          <g id="Group_5209" data-name="Group 5209" transform="translate(0.415 5.399)">
                            <rect id="Rectangle_1710" data-name="Rectangle 1710" width="2.694" height="17.158" transform="translate(0 2.694) rotate(-90)" fill="#ebebeb"/>
                          </g>
                          <g id="Group_5211" data-name="Group 5211" transform="translate(0 2.287)">
                            <g id="Group_5210" data-name="Group 5210">
                              <rect id="Rectangle_1711" data-name="Rectangle 1711" width="2.694" height="17.158" transform="translate(0.415 3.101) rotate(-90)" fill="#ebebeb"/>
                              <path id="Path_5848" data-name="Path 5848" d="M435.192,614.005H417.2V610.5h17.988Zm-17.158-.813h16.329v-1.881H418.034Z" transform="translate(-417.204 -610.498)" fill="#ebebeb"/>
                            </g>
                          </g>
                          <g id="Group_5212" data-name="Group 5212" transform="translate(0.415)">
                            <rect id="Rectangle_1712" data-name="Rectangle 1712" width="2.694" height="17.158" transform="translate(0 2.694) rotate(-90)" fill="#ebebeb"/>
                          </g>
                        </g>
                        <g id="Group_5214" data-name="Group 5214" transform="translate(10.52 0)">
                          <rect id="Rectangle_1713" data-name="Rectangle 1713" width="0.123" height="2.694" fill="#ebebeb"/>
                        </g>
                        <g id="Group_5215" data-name="Group 5215" transform="translate(11.902 0)">
                          <rect id="Rectangle_1714" data-name="Rectangle 1714" width="0.123" height="2.694" fill="#ebebeb"/>
                        </g>
                        <g id="Group_5216" data-name="Group 5216" transform="translate(13.284 0)">
                          <rect id="Rectangle_1715" data-name="Rectangle 1715" width="0.123" height="2.694" fill="#ebebeb"/>
                        </g>
                        <g id="Group_5217" data-name="Group 5217" transform="translate(14.666 0)">
                          <rect id="Rectangle_1716" data-name="Rectangle 1716" width="0.123" height="2.694" fill="#ebebeb"/>
                        </g>
                        <rect id="Rectangle_1717" data-name="Rectangle 1717" width="8.075" height="0.444" transform="translate(8.658 5.858)" fill="#ebebeb"/>
                        <rect id="Rectangle_1718" data-name="Rectangle 1718" width="8.075" height="0.444" transform="translate(8.658 6.524)" fill="#ebebeb"/>
                        <rect id="Rectangle_1719" data-name="Rectangle 1719" width="8.075" height="0.444" transform="translate(8.658 7.189)" fill="#ebebeb"/>
                      </g>
                    </g>
                    <g id="Group_5227" data-name="Group 5227" transform="translate(260.068 220.406)">
                      <path id="Path_5849" data-name="Path 5849" d="M934.628,888.3H783.574a4.334,4.334,0,0,1-4.164-5.535h0a4.333,4.333,0,0,1,4.164-3.132H934.628a4.334,4.334,0,0,1,4.164,3.132h0A4.334,4.334,0,0,1,934.628,888.3Z" transform="translate(-776.137 -768.004)" fill="#ebebeb" opacity="0.32"/>
                      <g id="Group_5222" data-name="Group 5222" transform="translate(0 38.404)">
                        <rect id="Rectangle_1720" data-name="Rectangle 1720" width="2.922" height="72.813" transform="translate(1.742 0.407)" fill="#ebebeb"/>
                        <rect id="Rectangle_1721" data-name="Rectangle 1721" width="2.922" height="72.813" transform="translate(160.443 0.407)" fill="#ebebeb"/>
                        <g id="Group_5220" data-name="Group 5220">
                          <path id="Path_5850" data-name="Path 5850" d="M938.627,747.367H774.241l1.25-7.158H937.1Z" transform="translate(-773.75 -739.802)" fill="#ebebeb"/>
                          <path id="Path_5851" data-name="Path 5851" d="M938.688,747.4H773.3l1.392-7.971H936.984Zm-164.405-.814H937.667l-1.357-6.344H775.392Z" transform="translate(-773.3 -739.43)" fill="#ebebeb"/>
                        </g>
                        <g id="Group_5221" data-name="Group 5221" transform="translate(0.077 7.158)">
                          <path id="Path_5852" data-name="Path 5852" d="M938.347,753.914H774.241v74.732h2.713V758.819H935.914v69.827h2.713V753.914Z" transform="translate(-773.826 -753.507)" fill="#ebebeb"/>
                          <path id="Path_5853" data-name="Path 5853" d="M938.662,828.681h-3.543V758.854H776.99v69.828h-3.542V753.135H938.662Zm-2.713-.814h1.884V753.949H774.277v73.919h1.883V758.04H935.949Z" transform="translate(-773.447 -753.135)" fill="#ebebeb"/>
                        </g>
                      </g>
                      <g id="Group_5226" data-name="Group 5226" transform="translate(42.147)">
                        <path id="Path_5854" data-name="Path 5854" d="M908.036,668.907v26.765a3.151,3.151,0,0,1-3.258,3.01h-47.52a3.151,3.151,0,0,1-3.257-3.01V668.907a3.155,3.155,0,0,1,3.257-3.01h47.52A3.155,3.155,0,0,1,908.036,668.907Z" transform="translate(-854.001 -665.897)" fill="#ebebeb"/>
                        <path id="Path_5855" data-name="Path 5855" d="M858.256,698.6a2.1,2.1,0,0,1-2.172-2.008V669.826a2.1,2.1,0,0,1,2.172-2.007h47.516a2.1,2.1,0,0,1,2.172,2.007v26.765a2.1,2.1,0,0,1-2.172,2.008Z" transform="translate(-854.996 -666.815)" fill="#ebebeb"/>
                        <g id="Group_5223" data-name="Group 5223" transform="translate(1.759 1.6)">
                          <path id="Path_5856" data-name="Path 5856" d="M859.249,698.513a1.049,1.049,0,0,1-1.086-1V670.744a1.049,1.049,0,0,1,1.086-1h47.516a1.049,1.049,0,0,1,1.086,1v26.765a1.049,1.049,0,0,1-1.086,1Z" transform="translate(-857.748 -669.333)" fill="#ebebeb"/>
                          <path id="Path_5857" data-name="Path 5857" d="M906.386,698.547H858.87a1.459,1.459,0,0,1-1.5-1.41V670.372a1.46,1.46,0,0,1,1.5-1.411h47.515a1.46,1.46,0,0,1,1.5,1.411v26.765A1.46,1.46,0,0,1,906.386,698.547ZM858.87,669.775a.639.639,0,0,0-.672.6v26.765a.638.638,0,0,0,.672.6h47.515a.638.638,0,0,0,.672-.6V670.372a.639.639,0,0,0-.672-.6Z" transform="translate(-857.369 -668.961)" fill="#ebebeb"/>
                        </g>
                        <path id="Path_5858" data-name="Path 5858" d="M906.275,715.434H893.532l1.438-14.475h9.867Z" transform="translate(-872.887 -682.647)" fill="#ebebeb"/>
                        <g id="Group_5224" data-name="Group 5224" transform="translate(20.596 17.136)">
                          <path id="Path_5859" data-name="Path 5859" d="M906.243,723.012H894.3l1.876-23.525h8.2Z" transform="translate(-893.847 -699.081)" fill="#ebebeb"/>
                          <path id="Path_5860" data-name="Path 5860" d="M906.281,723.047H893.437l1.94-24.338h8.964l.029.375Zm-11.947-.813h11.049l-1.811-22.712h-7.428Z" transform="translate(-893.437 -698.709)" fill="#ebebeb"/>
                        </g>
                        <g id="Group_5225" data-name="Group 5225" transform="translate(12.484 39.657)">
                          <path id="Path_5861" data-name="Path 5861" d="M906.938,746.206H878.7a3.753,3.753,0,0,1,3.891-3.6h20.454a3.753,3.753,0,0,1,3.892,3.6Z" transform="translate(-878.284 -742.203)" fill="#ebebeb"/>
                          <path id="Path_5862" data-name="Path 5862" d="M906.972,746.241H877.9v-.407a4.169,4.169,0,0,1,4.308-4h20.454a4.168,4.168,0,0,1,4.307,4Zm-28.21-.814h27.352a3.393,3.393,0,0,0-3.449-2.783H882.212A3.394,3.394,0,0,0,878.762,745.427Z" transform="translate(-877.904 -741.831)" fill="#ebebeb"/>
                        </g>
                      </g>
                    </g>
                    <g id="Group_5235" data-name="Group 5235" transform="translate(0.865 180.773)">
                      <path id="Path_5863" data-name="Path 5863" d="M537.582,799.507H390.56a4.218,4.218,0,0,1-4.053-5.388h0a4.218,4.218,0,0,1,4.053-3.048H537.582a4.218,4.218,0,0,1,4.053,3.048h0A4.218,4.218,0,0,1,537.582,799.507Z" transform="translate(-383.321 -682.427)" fill="#ebebeb" opacity="0.32"/>
                      <g id="Group_5230" data-name="Group 5230" transform="translate(0 37.378)">
                        <rect id="Rectangle_1722" data-name="Rectangle 1722" width="2.844" height="70.87" transform="translate(1.696 0.396)" fill="#ebebeb"/>
                        <rect id="Rectangle_1723" data-name="Rectangle 1723" width="2.844" height="70.87" transform="translate(156.161 0.396)" fill="#ebebeb"/>
                        <g id="Group_5228" data-name="Group 5228">
                          <path id="Path_5864" data-name="Path 5864" d="M541.474,662.34h-160l1.217-6.967H539.984Z" transform="translate(-380.997 -654.977)" fill="#ebebeb"/>
                          <path id="Path_5865" data-name="Path 5865" d="M541.533,662.374H380.559l1.356-7.759h157.96Zm-160.017-.792H540.539l-1.321-6.175H382.6Z" transform="translate(-380.559 -654.615)" fill="#ebebeb"/>
                        </g>
                        <g id="Group_5229" data-name="Group 5229" transform="translate(0.075 6.967)">
                          <path id="Path_5866" data-name="Path 5866" d="M541.2,668.713H381.476v72.737h2.641V673.487H538.833v67.964h2.641V668.713Z" transform="translate(-381.072 -668.317)" fill="#ebebeb"/>
                          <path id="Path_5867" data-name="Path 5867" d="M541.509,741.484H538.06V673.521H384.151v67.964H380.7V667.955H541.509Zm-2.641-.792H540.7V668.747H381.51v71.946h1.834V672.729H538.868Z" transform="translate(-380.703 -667.955)" fill="#ebebeb"/>
                        </g>
                      </g>
                      <g id="Group_5234" data-name="Group 5234" transform="translate(109.662)">
                        <path id="Path_5868" data-name="Path 5868" d="M643.126,585.975v26.051a3.067,3.067,0,0,1-3.171,2.93H593.7a3.067,3.067,0,0,1-3.171-2.93V585.975a3.071,3.071,0,0,1,3.171-2.93h46.251A3.071,3.071,0,0,1,643.126,585.975Z" transform="translate(-590.534 -583.045)" fill="#ebebeb"/>
                        <path id="Path_5869" data-name="Path 5869" d="M594.676,614.875a2.041,2.041,0,0,1-2.114-1.954V586.87a2.041,2.041,0,0,1,2.114-1.954h46.247a2.041,2.041,0,0,1,2.114,1.954v26.051a2.041,2.041,0,0,1-2.114,1.954Z" transform="translate(-591.503 -583.939)" fill="#ebebeb"/>
                        <g id="Group_5231" data-name="Group 5231" transform="translate(1.712 1.558)">
                          <path id="Path_5870" data-name="Path 5870" d="M595.643,614.791a1.02,1.02,0,0,1-1.057-.977V587.763a1.02,1.02,0,0,1,1.057-.977H641.89a1.02,1.02,0,0,1,1.057.977v26.051a1.02,1.02,0,0,1-1.057.977Z" transform="translate(-594.182 -586.39)" fill="#ebebeb"/>
                          <path id="Path_5871" data-name="Path 5871" d="M641.521,614.824H595.273a1.421,1.421,0,0,1-1.461-1.372V587.4a1.421,1.421,0,0,1,1.461-1.373h46.247a1.421,1.421,0,0,1,1.461,1.373v26.051A1.42,1.42,0,0,1,641.521,614.824Zm-46.247-28a.621.621,0,0,0-.653.581v26.051a.621.621,0,0,0,.653.581h46.247a.621.621,0,0,0,.653-.581V587.4a.621.621,0,0,0-.653-.581Z" transform="translate(-593.812 -586.028)" fill="#ebebeb"/>
                        </g>
                        <path id="Path_5872" data-name="Path 5872" d="M641.413,631.26h-12.4l1.4-14.088h9.6Z" transform="translate(-608.916 -599.348)" fill="#ebebeb"/>
                        <g id="Group_5232" data-name="Group 5232" transform="translate(20.047 16.679)">
                          <path id="Path_5873" data-name="Path 5873" d="M641.382,638.636H629.754l1.826-22.9h7.977Z" transform="translate(-629.317 -615.343)" fill="#ebebeb"/>
                          <path id="Path_5874" data-name="Path 5874" d="M641.419,638.67h-12.5l1.888-23.689h8.724Zm-11.628-.792h10.755l-1.763-22.105h-7.23Z" transform="translate(-628.918 -614.981)" fill="#ebebeb"/>
                        </g>
                        <g id="Group_5233" data-name="Group 5233" transform="translate(12.151 38.599)">
                          <path id="Path_5875" data-name="Path 5875" d="M642.058,661.211H614.573a3.653,3.653,0,0,1,3.788-3.5H638.27a3.653,3.653,0,0,1,3.788,3.5Z" transform="translate(-614.169 -657.315)" fill="#ebebeb"/>
                          <path id="Path_5876" data-name="Path 5876" d="M642.092,661.245H613.8v-.4a4.057,4.057,0,0,1,4.192-3.9H637.9a4.057,4.057,0,0,1,4.192,3.9Zm-27.457-.792h26.622a3.3,3.3,0,0,0-3.357-2.708H617.992A3.3,3.3,0,0,0,614.635,660.453Z" transform="translate(-613.8 -656.953)" fill="#ebebeb"/>
                        </g>
                      </g>
                    </g>
                    <g id="Group_5282" data-name="Group 5282" transform="translate(471.557 134.177)">
                      <g id="Group_5246" data-name="Group 5246" transform="translate(48.285)">
                        <g id="Group_5236" data-name="Group 5236" transform="translate(0 0.027)">
                          <rect id="Rectangle_1724" data-name="Rectangle 1724" width="8.575" height="2.085" transform="translate(0.334 0.327)" fill="#ebebeb"/>
                          <path id="Path_5877" data-name="Path 5877" d="M1233.615,503.583h-9.243v-2.74h9.243Zm-8.576-.655h7.908V501.5h-7.908Z" transform="translate(-1224.372 -500.843)" fill="#ebebeb"/>
                        </g>
                        <g id="Group_5245" data-name="Group 5245">
                          <g id="Group_5237" data-name="Group 5237" transform="translate(0 54.251)">
                            <rect id="Rectangle_1725" data-name="Rectangle 1725" width="8.575" height="2.085" transform="translate(0.334 0.327)" fill="#ebebeb"/>
                            <path id="Path_5878" data-name="Path 5878" d="M1233.615,607.408h-9.243v-2.74h9.243Zm-8.576-.655h7.908v-1.43h-7.908Z" transform="translate(-1224.372 -604.668)" fill="#ebebeb"/>
                          </g>
                          <g id="Group_5238" data-name="Group 5238" transform="translate(0 26.808)">
                            <rect id="Rectangle_1726" data-name="Rectangle 1726" width="8.575" height="2.085" transform="translate(0.334 0.327)" fill="#ebebeb"/>
                            <path id="Path_5879" data-name="Path 5879" d="M1233.615,554.862h-9.243v-2.74h9.243Zm-8.576-.655h7.908v-1.43h-7.908Z" transform="translate(-1224.372 -552.122)" fill="#ebebeb"/>
                          </g>
                          <g id="Group_5239" data-name="Group 5239" transform="translate(0 85.7)">
                            <rect id="Rectangle_1727" data-name="Rectangle 1727" width="8.575" height="2.085" transform="translate(0.334 0.328)" fill="#ebebeb"/>
                            <path id="Path_5880" data-name="Path 5880" d="M1233.615,667.626h-9.243v-2.74h9.243Zm-8.576-.655h7.908v-1.431h-7.908Z" transform="translate(-1224.372 -664.886)" fill="#ebebeb"/>
                          </g>
                          <g id="Group_5240" data-name="Group 5240" transform="translate(0 117.151)">
                            <rect id="Rectangle_1728" data-name="Rectangle 1728" width="8.575" height="2.085" transform="translate(0.334 0.327)" fill="#ebebeb"/>
                            <path id="Path_5881" data-name="Path 5881" d="M1233.615,727.846h-9.243v-2.74h9.243Zm-8.576-.655h7.908v-1.43h-7.908Z" transform="translate(-1224.372 -725.106)" fill="#ebebeb"/>
                          </g>
                          <g id="Group_5241" data-name="Group 5241" transform="translate(0 149.296)">
                            <rect id="Rectangle_1729" data-name="Rectangle 1729" width="8.575" height="2.085" transform="translate(0.334 0.327)" fill="#ebebeb"/>
                            <path id="Path_5882" data-name="Path 5882" d="M1233.615,789.4h-9.243v-2.74h9.243Zm-8.576-.655h7.908v-1.43h-7.908Z" transform="translate(-1224.372 -786.656)" fill="#ebebeb"/>
                          </g>
                          <g id="Group_5242" data-name="Group 5242" transform="translate(0 179.397)">
                            <rect id="Rectangle_1730" data-name="Rectangle 1730" width="8.575" height="2.085" transform="translate(0.334 0.327)" fill="#ebebeb"/>
                            <path id="Path_5883" data-name="Path 5883" d="M1233.615,847.032h-9.243v-2.74h9.243Zm-8.576-.655h7.908v-1.43h-7.908Z" transform="translate(-1224.372 -844.292)" fill="#ebebeb"/>
                          </g>
                          <g id="Group_5243" data-name="Group 5243">
                            <rect id="Rectangle_1731" data-name="Rectangle 1731" width="0.459" height="206.239" transform="translate(0.334 0.327)" fill="#ebebeb"/>
                            <rect id="Rectangle_1732" data-name="Rectangle 1732" width="1.127" height="206.894" fill="#ebebeb"/>
                          </g>
                          <g id="Group_5244" data-name="Group 5244" transform="translate(8.116)">
                            <rect id="Rectangle_1733" data-name="Rectangle 1733" width="0.459" height="206.239" transform="translate(0.334 0.327)" fill="#ebebeb"/>
                            <rect id="Rectangle_1734" data-name="Rectangle 1734" width="1.128" height="206.894" fill="#ebebeb"/>
                          </g>
                        </g>
                      </g>
                      <g id="Group_5257" data-name="Group 5257" transform="translate(0 0)">
                        <g id="Group_5247" data-name="Group 5247" transform="translate(0 0.027)">
                          <rect id="Rectangle_1735" data-name="Rectangle 1735" width="49.613" height="2.085" transform="translate(0.334 0.327)" fill="#ebebeb"/>
                          <path id="Path_5884" data-name="Path 5884" d="M1182.2,503.583h-50.282v-2.74H1182.2Zm-49.614-.655h48.946V501.5h-48.946Z" transform="translate(-1131.918 -500.843)" fill="#ebebeb"/>
                        </g>
                        <g id="Group_5256" data-name="Group 5256">
                          <g id="Group_5248" data-name="Group 5248" transform="translate(0 54.251)">
                            <rect id="Rectangle_1736" data-name="Rectangle 1736" width="49.613" height="2.085" transform="translate(0.334 0.327)" fill="#ebebeb"/>
                            <path id="Path_5885" data-name="Path 5885" d="M1182.2,607.408h-50.282v-2.74H1182.2Zm-49.614-.655h48.946v-1.43h-48.946Z" transform="translate(-1131.918 -604.668)" fill="#ebebeb"/>
                          </g>
                          <g id="Group_5249" data-name="Group 5249" transform="translate(0 26.808)">
                            <rect id="Rectangle_1737" data-name="Rectangle 1737" width="49.613" height="2.085" transform="translate(0.334 0.327)" fill="#ebebeb"/>
                            <path id="Path_5886" data-name="Path 5886" d="M1182.2,554.862h-50.282v-2.74H1182.2Zm-49.614-.655h48.946v-1.43h-48.946Z" transform="translate(-1131.918 -552.122)" fill="#ebebeb"/>
                          </g>
                          <g id="Group_5250" data-name="Group 5250" transform="translate(0 85.7)">
                            <rect id="Rectangle_1738" data-name="Rectangle 1738" width="49.613" height="2.085" transform="translate(0.334 0.328)" fill="#ebebeb"/>
                            <path id="Path_5887" data-name="Path 5887" d="M1182.2,667.626h-50.282v-2.74H1182.2Zm-49.614-.655h48.946v-1.431h-48.946Z" transform="translate(-1131.918 -664.886)" fill="#ebebeb"/>
                          </g>
                          <g id="Group_5251" data-name="Group 5251" transform="translate(0 117.151)">
                            <rect id="Rectangle_1739" data-name="Rectangle 1739" width="49.613" height="2.085" transform="translate(0.334 0.327)" fill="#ebebeb"/>
                            <path id="Path_5888" data-name="Path 5888" d="M1182.2,727.846h-50.282v-2.74H1182.2Zm-49.614-.655h48.946v-1.43h-48.946Z" transform="translate(-1131.918 -725.106)" fill="#ebebeb"/>
                          </g>
                          <g id="Group_5252" data-name="Group 5252" transform="translate(0 149.296)">
                            <rect id="Rectangle_1740" data-name="Rectangle 1740" width="49.613" height="2.085" transform="translate(0.334 0.327)" fill="#ebebeb"/>
                            <path id="Path_5889" data-name="Path 5889" d="M1182.2,789.4h-50.282v-2.74H1182.2Zm-49.614-.655h48.946v-1.43h-48.946Z" transform="translate(-1131.918 -786.656)" fill="#ebebeb"/>
                          </g>
                          <g id="Group_5253" data-name="Group 5253" transform="translate(0 179.397)">
                            <rect id="Rectangle_1741" data-name="Rectangle 1741" width="49.613" height="2.085" transform="translate(0.334 0.327)" fill="#ebebeb"/>
                            <path id="Path_5890" data-name="Path 5890" d="M1182.2,847.032h-50.282v-2.74H1182.2Zm-49.614-.655h48.946v-1.43h-48.946Z" transform="translate(-1131.918 -844.292)" fill="#ebebeb"/>
                          </g>
                          <g id="Group_5254" data-name="Group 5254">
                            <rect id="Rectangle_1742" data-name="Rectangle 1742" width="2.658" height="206.239" transform="translate(0.334 0.327)" fill="#ebebeb"/>
                            <path id="Path_5891" data-name="Path 5891" d="M1135.244,707.685h-3.326V500.792h3.326Zm-2.658-.654h1.99V501.446h-1.99Z" transform="translate(-1131.918 -500.792)" fill="#ebebeb"/>
                          </g>
                          <g id="Group_5255" data-name="Group 5255" transform="translate(46.956)">
                            <rect id="Rectangle_1743" data-name="Rectangle 1743" width="2.658" height="206.239" transform="translate(0.334 0.327)" fill="#ebebeb"/>
                            <path id="Path_5892" data-name="Path 5892" d="M1225.153,707.685h-3.326V500.792h3.326Zm-2.658-.654h1.99V501.446h-1.99Z" transform="translate(-1221.827 -500.792)" fill="#ebebeb"/>
                          </g>
                        </g>
                      </g>
                      <g id="Group_5268" data-name="Group 5268" transform="translate(8.893 2.613)">
                        <g id="Group_5259" data-name="Group 5259">
                          <g id="Group_5258" data-name="Group 5258">
                            <rect id="Rectangle_1744" data-name="Rectangle 1744" width="5.198" height="24.037" transform="translate(0.334 0.328)" fill="#ebebeb"/>
                            <path id="Path_5893" data-name="Path 5893" d="M1154.812,530.487h-5.865V505.795h5.865Zm-5.2-.655h4.53V506.45h-4.53Z" transform="translate(-1148.946 -505.795)" fill="#ebebeb"/>
                          </g>
                          <path id="Path_5894" data-name="Path 5894" d="M1154.708,515.422a1.713,1.713,0,1,1-1.713-1.68A1.7,1.7,0,0,1,1154.708,515.422Z" transform="translate(-1150.062 -509.592)" fill="#ebebeb"/>
                        </g>
                        <g id="Group_5261" data-name="Group 5261" transform="translate(6.109)">
                          <g id="Group_5260" data-name="Group 5260">
                            <rect id="Rectangle_1745" data-name="Rectangle 1745" width="5.198" height="24.037" transform="translate(0.334 0.328)" fill="#ebebeb"/>
                            <path id="Path_5895" data-name="Path 5895" d="M1166.509,530.487h-5.865V505.795h5.865Zm-5.2-.655h4.53V506.45h-4.53Z" transform="translate(-1160.644 -505.795)" fill="#ebebeb"/>
                          </g>
                          <path id="Path_5896" data-name="Path 5896" d="M1166.406,515.422a1.713,1.713,0,1,1-1.713-1.68A1.7,1.7,0,0,1,1166.406,515.422Z" transform="translate(-1161.76 -509.592)" fill="#ebebeb"/>
                        </g>
                        <g id="Group_5263" data-name="Group 5263" transform="translate(12.219)">
                          <g id="Group_5262" data-name="Group 5262">
                            <rect id="Rectangle_1746" data-name="Rectangle 1746" width="5.198" height="24.037" transform="translate(0.334 0.328)" fill="#ebebeb"/>
                            <path id="Path_5897" data-name="Path 5897" d="M1178.208,530.487h-5.865V505.795h5.865Zm-5.2-.655h4.53V506.45h-4.53Z" transform="translate(-1172.342 -505.795)" fill="#ebebeb"/>
                          </g>
                          <path id="Path_5898" data-name="Path 5898" d="M1178.1,515.422a1.713,1.713,0,1,1-1.713-1.68A1.7,1.7,0,0,1,1178.1,515.422Z" transform="translate(-1173.458 -509.592)" fill="#ebebeb"/>
                        </g>
                        <g id="Group_5265" data-name="Group 5265" transform="translate(18.328)">
                          <g id="Group_5264" data-name="Group 5264">
                            <rect id="Rectangle_1747" data-name="Rectangle 1747" width="5.198" height="24.037" transform="translate(0.334 0.328)" fill="#ebebeb"/>
                            <path id="Path_5899" data-name="Path 5899" d="M1189.905,530.487h-5.865V505.795h5.865Zm-5.2-.655h4.53V506.45h-4.53Z" transform="translate(-1184.04 -505.795)" fill="#ebebeb"/>
                          </g>
                          <path id="Path_5900" data-name="Path 5900" d="M1189.8,515.422a1.713,1.713,0,1,1-1.713-1.68A1.7,1.7,0,0,1,1189.8,515.422Z" transform="translate(-1185.156 -509.592)" fill="#ebebeb"/>
                        </g>
                        <g id="Group_5267" data-name="Group 5267" transform="translate(24.437)">
                          <g id="Group_5266" data-name="Group 5266">
                            <rect id="Rectangle_1748" data-name="Rectangle 1748" width="5.198" height="24.037" transform="translate(0.334 0.328)" fill="#ebebeb"/>
                            <path id="Path_5901" data-name="Path 5901" d="M1201.6,530.487h-5.865V505.795h5.865Zm-5.2-.655h4.53V506.45h-4.53Z" transform="translate(-1195.737 -505.795)" fill="#ebebeb"/>
                          </g>
                          <rect id="Rectangle_1749" data-name="Rectangle 1749" width="6.669" height="24.037" transform="translate(6.344 0.328)" fill="#ebebeb"/>
                          <path id="Path_5902" data-name="Path 5902" d="M1201.5,515.422a1.713,1.713,0,1,1-1.713-1.68A1.7,1.7,0,0,1,1201.5,515.422Z" transform="translate(-1196.853 -509.592)" fill="#ebebeb"/>
                        </g>
                      </g>
                      <path id="Path_5903" data-name="Path 5903" d="M1202.332,693.737a11.4,11.4,0,0,1,.809-4.416h-6.23a11.4,11.4,0,0,1,.809,4.416c0,2.672-2.73,7.606-2.73,10.9s2.894,4.369,5.036,4.369,5.036-1.08,5.036-4.369S1202.332,696.41,1202.332,693.737Z" transform="translate(-1162.05 -590.859)" fill="#ebebeb"/>
                      <g id="Group_5270" data-name="Group 5270" transform="translate(28.549 158.051)">
                        <g id="Group_5269" data-name="Group 5269" transform="translate(0.772)">
                          <path id="Path_5904" data-name="Path 5904" d="M1201.539,815.359c1.681-3.866-2.055-3.8-1.77-4.81.534-1.905,2.548.165,3.364-.794s-2.016-3.949-.533-4.985.964,2.469,2.246,2.22.519-3.951,2.03-3.538c1.136.311-.214,2.625-.089,3.706s2.468-.495,2.509,1.049-2.795.867-3.128,2.041,3.049,1.416,1.863,2.408-3.422-.2-4.01.837S1200.825,817,1201.539,815.359Z" transform="translate(-1193.646 -803.419)" fill="#ebebeb"/>
                          <path id="Path_5905" data-name="Path 5905" d="M1194.918,821.5c-1.579-3.908-4.183-1.28-4.709-2.2-.987-1.723,1.929-1.64,1.822-2.885s-4.265-1.416-3.954-3.176,2.456,1.09,3.188.029-2.466-3.167-1.095-3.915c1.031-.563,1.731,2.014,2.6,2.7s1.4-2.054,2.536-.985-1.364,2.544-.759,3.608,3.183-1.1,3.051.427-2.573,2.221-2.25,3.361S1195.589,823.163,1194.918,821.5Z" transform="translate(-1188.06 -806.218)" fill="#ebebeb"/>
                        </g>
                        <path id="Path_5906" data-name="Path 5906" d="M1198.233,822.316h-8.624s-3.027,2.549-3.027,5.56,1.887,6.14,7.339,6.14,7.339-3.128,7.339-6.14S1198.233,822.316,1198.233,822.316Z" transform="translate(-1186.582 -812.447)" fill="#ebebeb"/>
                      </g>
                      <g id="Group_5271" data-name="Group 5271" transform="translate(28.441 135.897)">
                        <rect id="Rectangle_1750" data-name="Rectangle 1750" width="7.959" height="10.599" transform="translate(2.462 3.128)" fill="#ebebeb"/>
                        <path id="Path_5907" data-name="Path 5907" d="M1198.937,764.127c0,1.728-2.812,3.128-6.281,3.128s-6.281-1.4-6.281-3.128,2.812-3.128,6.281-3.128S1198.937,762.4,1198.937,764.127Z" transform="translate(-1186.375 -760.999)" fill="#ebebeb"/>
                      </g>
                      <g id="Group_5281" data-name="Group 5281" transform="translate(5.652 139.914)">
                        <g id="Group_5276" data-name="Group 5276" transform="translate(0 0)">
                          <g id="Group_5272" data-name="Group 5272" transform="translate(0.334 5.883)">
                            <rect id="Rectangle_1751" data-name="Rectangle 1751" width="2.936" height="18.699" transform="translate(0 2.936) rotate(-90)" fill="#ebebeb"/>
                          </g>
                          <g id="Group_5274" data-name="Group 5274" transform="translate(0 2.609)">
                            <g id="Group_5273" data-name="Group 5273">
                              <rect id="Rectangle_1752" data-name="Rectangle 1752" width="2.936" height="18.699" transform="translate(0.334 3.263) rotate(-90)" fill="#ebebeb"/>
                              <path id="Path_5908" data-name="Path 5908" d="M1162.109,777.278h-19.368v-3.591h19.368Zm-18.7-.654h18.032v-2.281h-18.032Z" transform="translate(-1142.741 -773.687)" fill="#ebebeb"/>
                            </g>
                          </g>
                          <g id="Group_5275" data-name="Group 5275" transform="translate(0.334)">
                            <rect id="Rectangle_1753" data-name="Rectangle 1753" width="2.936" height="18.699" transform="translate(0 2.936) rotate(-90)" fill="#ebebeb"/>
                          </g>
                        </g>
                        <g id="Group_5277" data-name="Group 5277" transform="translate(11.347)">
                          <rect id="Rectangle_1754" data-name="Rectangle 1754" width="0.134" height="2.936" fill="#ebebeb"/>
                        </g>
                        <g id="Group_5278" data-name="Group 5278" transform="translate(12.853)">
                          <rect id="Rectangle_1755" data-name="Rectangle 1755" width="0.134" height="2.936" fill="#ebebeb"/>
                        </g>
                        <g id="Group_5279" data-name="Group 5279" transform="translate(14.359)">
                          <rect id="Rectangle_1756" data-name="Rectangle 1756" width="0.134" height="2.936" fill="#ebebeb"/>
                        </g>
                        <g id="Group_5280" data-name="Group 5280" transform="translate(15.865)">
                          <rect id="Rectangle_1757" data-name="Rectangle 1757" width="0.134" height="2.936" fill="#ebebeb"/>
                        </g>
                        <rect id="Rectangle_1758" data-name="Rectangle 1758" width="8.801" height="0.484" transform="translate(9.318 6.384)" fill="#ebebeb"/>
                        <rect id="Rectangle_1759" data-name="Rectangle 1759" width="8.801" height="0.484" transform="translate(9.318 7.11)" fill="#ebebeb"/>
                        <rect id="Rectangle_1760" data-name="Rectangle 1760" width="8.801" height="0.484" transform="translate(9.318 7.835)" fill="#ebebeb"/>
                      </g>
                    </g>
                  </g>
                </g>
              </g>
            </g>
          </g>
          <g id="Group_5295" data-name="Group 5295" transform="translate(31.907 497.396)">
            <g id="Group_5294" data-name="Group 5294" transform="translate(0)">
              <g id="Group_5288" data-name="Group 5288" transform="translate(25.856)">
                <path id="Path_5909" data-name="Path 5909" d="M454.845,766.33s1.882-12.663,2.734-15.448c1.1-3.6,1.64-8.958-1.388-12.112s-3.486-10.577-3.486-11.712-1.135-18.168-13.626-15.644c0,0-5.173,1.262-2.649,10.346,0,0,2.65,5.425-.694,8.831s-6.245,11.229,0,18.8,4.467,10.342,3.469,13.247c-4.549,13.25,5.132,25.417,6.183,28.664s2.312,8.575,1.258,11.641l3.673.068Z" transform="translate(-432.062 -711.158)" fill="#ebebeb"/>
              </g>
              <g id="Group_5289" data-name="Group 5289" transform="translate(37.717 12.821)">
                <path id="Path_5910" data-name="Path 5910" d="M459.216,815.224a.547.547,0,0,1-.112-.011.555.555,0,0,1-.432-.655c1.4-6.835-1.06-19.016-1.085-19.138-1.358-5.184-1.753-11.809.5-28.7a64.842,64.842,0,0,0-.685-22.159,37.081,37.081,0,0,0-2.567-8.05.555.555,0,0,1,.99-.5,37.3,37.3,0,0,1,2.652,8.268,65.944,65.944,0,0,1,.711,22.588c-2.22,16.654-1.812,23.358-.518,28.3.111.537,2.542,12.555,1.092,19.614A.555.555,0,0,1,459.216,815.224Z" transform="translate(-454.773 -735.707)" fill="#fff"/>
              </g>
              <g id="Group_5290" data-name="Group 5290" transform="translate(0 48.658)">
                <path id="Path_5911" data-name="Path 5911" d="M418.356,847.785s0-2.985-6.128-5.813c0,0-4.557-1.414-6.128-7.385s-5.971-4.4-8.8-2.671-9.254,0-9.262-8.956c0,0,1.91-4.714-2.191-7.228s-5.673-11.495,3.126-11.4,17.089,4.436,25.612,17.061c11.845,17.545,7.234,26.4,7.234,26.4Z" transform="translate(-382.554 -804.327)" fill="#ebebeb"/>
              </g>
              <g id="Group_5291" data-name="Group 5291" transform="translate(8.889 54.951)">
                <path id="Path_5912" data-name="Path 5912" d="M428.837,854.1a.557.557,0,0,1-.171-.027.565.565,0,0,1-.358-.7,13.43,13.43,0,0,0,.035-5.86.6.6,0,0,1-.043-.112c-4.752-17.935-28.183-29.854-28.419-29.972a.555.555,0,0,1,.5-.993c.241.121,24.071,12.245,28.981,30.628a13.129,13.129,0,0,1,.005,6.651A.544.544,0,0,1,428.837,854.1Z" transform="translate(-399.575 -816.375)" fill="#fff"/>
              </g>
              <g id="Group_5292" data-name="Group 5292" transform="translate(44.113 22.062)">
                <path id="Path_5913" data-name="Path 5913" d="M471.613,823.19s6.434-3.659,5.172-10.976,5.3-8.958,6.813-9.211,11.355-4.289,9.841-19.051c0,0-.5-9.463,1.262-12.869s6.182-13.626,0-16.78-10.472,2.523-12.743,8.327c0,0-1.766,6.687-3.28,8.327s-12.49,11.229-11.607,31.163l2.148,21.07Z" transform="translate(-467.02 -753.401)" fill="#ebebeb"/>
              </g>
              <g id="Group_5293" data-name="Group 5293" transform="translate(47.102 33.667)">
                <path id="Path_5914" data-name="Path 5914" d="M473.337,834.362a.556.556,0,0,1-.555-.535c-.638-16.97,6.722-39.1,10.942-45.494a113.855,113.855,0,0,0,7.027-12.392.555.555,0,1,1,1,.474,114.929,114.929,0,0,1-7.1,12.53c-4.15,6.29-11.388,28.091-10.759,44.841a.555.555,0,0,1-.534.575Z" transform="translate(-472.744 -775.623)" fill="#fff"/>
              </g>
            </g>
            <path id="Path_5915" data-name="Path 5915" d="M437.156,918.821h23.792l5.758-32.6H431.4Z" transform="translate(-405.888 -794.792)" fill="#ebebeb"/>
          </g>
          <g id="Group_5377" data-name="Group 5377" transform="translate(116.526 330.393)">
            <g id="Group_5373" data-name="Group 5373">
              <g id="Group_5372" data-name="Group 5372">
                <g id="Group_5367" data-name="Group 5367" transform="translate(15.517 116.559)">
                  <path id="Path_5941" data-name="Path 5941" d="M594.775,618.041l15.844,1.512c12.021,41.73-11.251,99.178,1.866,177.663,0,0-2.76,1.133-2.936,0C596.354,711.753,606.868,676,594.775,618.041Z" transform="translate(-569.48 -616.229)" fill="#f7c371"/>
                  <path id="Path_5942" data-name="Path 5942" d="M570.184,614.571c-16.976,30.378-5.016,28.057-3.9,43.733,4.173,58.659-10.333,68.348-19.944,137.648,0,0,3.669-.181,3.778-1.181,6.032-55.286,38.63-108.185,40.97-159.513C591.47,626.892,570.184,614.571,570.184,614.571Z" transform="translate(-546.341 -614.571)" fill="#ffd8a3"/>
                  <path id="Path_5943" data-name="Path 5943" d="M557.505,959.329H546.512s-.532-3.032,1.92-3.518C549.977,955.5,552.71,956.212,557.505,959.329Z" transform="translate(-546.4 -777.563)" fill="#ffe200"/>
                  <path id="Path_5944" data-name="Path 5944" d="M632.714,959.834h-9.665s-.466-3.033,1.689-3.518C626.1,956.01,628.5,956.715,632.714,959.834Z" transform="translate(-582.967 -777.804)" fill="#ffe200"/>
                  <path id="Path_5945" data-name="Path 5945" d="M575.011,703.66c11.559,2.434,18.555,3.194,27.453,2.738,0,0,7.985-61.6-2.965-84.639-3.936-8.283-14.063-8.691-18.707-1.749C565.278,643.2,582.388,663.279,575.011,703.66Z" transform="translate(-559.572 -614.845)" fill="#f46973"/>
                </g>
                <g id="Group_5368" data-name="Group 5368" transform="translate(0 3.173)">
                  <path id="Path_5946" data-name="Path 5946" d="M574.291,468.972c7.08-7.245-4.466-8.487-4.122-14.651s1.745-4.26,2.5-12.224-1.444-10.856-1.723-15.474,2.6-12.279-.2-18.054-4.356-3.751-6.792-8.342-4.494.546-8.287,2.713-8.492-8.84-15.13-4.418-5.775,13-7.673,17.865-8.556,6.993-9.375,15.637,3.922,6.57,1.918,12.577-7.953,5.673-8.772,14.318c0,0-.582,8.666,9.052,7.972s6.747,4.541,17.134.936,7.114,5.723,14.4,2.051S567.967,475.443,574.291,468.972Z" transform="translate(-516.63 -397.466)" fill="#2d356b"/>
                </g>
                <g id="Group_5369" data-name="Group 5369" transform="translate(28.591 27.996)">
                  <path id="Path_5947" data-name="Path 5947" d="M583.475,444.994l8.9,5.589,1.6,19.24-7.148-2.586Z" transform="translate(-577.155 -444.994)" fill="#f7c371"/>
                  <path id="Path_5948" data-name="Path 5948" d="M605.086,577.547c-5.718-3.746-18.992-12.026-33.712-1.774,4.4-12.929,8.4-25.641,8.543-36.275.264-19.715-16.492-42.871-2.628-51.784,14.72-9.463,32.2,34.237,32.2,34.237C594.769,530.233,598.841,553.971,605.086,577.547Z" transform="translate(-571.374 -464.763)" fill="#fc8c99"/>
                  <path id="Path_5949" data-name="Path 5949" d="M584.641,485.269l2.586-.3,11.559,10.875-3.422,2.89S587.606,490.82,584.641,485.269Z" transform="translate(-577.712 -464.09)" fill="#fff"/>
                  <path id="Path_5950" data-name="Path 5950" d="M606.266,499.022c.055-.039.107-.078.161-.118-3.05-6.086-9.717-15.407-16.155-14.808C596.133,489.324,606.266,499.022,606.266,499.022Z" transform="translate(-580.403 -463.662)" fill="#f7c371"/>
                </g>
                <g id="Group_5371" data-name="Group 5371" transform="translate(20.466)">
                  <g id="Group_5370" data-name="Group 5370">
                    <path id="Path_5951" data-name="Path 5951" d="M578.956,431.582c-4.744-1.3-14.3-2.822-18.9-9.986-5.984-9.314-4.464-15.075-2.469-22.084,3.8-13.362,26.594-7.105,25.169-3.169C580.863,401.57,596.151,436.3,578.956,431.582Z" transform="translate(-555.818 -391.39)" fill="#2d356b"/>
                    <path id="Path_5952" data-name="Path 5952" d="M600.664,440.216c1.73,0,4.825-8.939,5.747-15.794.3-2.26-2.129-2.526-1.977-10.238.089-4.527-2-10.794-9.582-15.29-7.157-4.244-7.688,9.8-8.3,13.05-1.746,9.245-4.107,15.051-1.737,19.524C589.445,440.2,598.8,439.77,600.664,440.216Z" transform="translate(-569.193 -394.596)" fill="#ffd8a3"/>
                    <path id="Path_5953" data-name="Path 5953" d="M615.459,455.355a.4.4,0,0,1,.36-.433.42.42,0,0,1,.346.46.4.4,0,0,1-.362.432A.418.418,0,0,1,615.459,455.355Z" transform="translate(-584.31 -421.741)" fill="#ffab00"/>
                    <path id="Path_5954" data-name="Path 5954" d="M613.55,432.012c.041-1.216.753-2.167,1.587-2.125s1.481,1.062,1.439,2.278-.753,2.167-1.587,2.126S613.509,433.229,613.55,432.012Z" transform="translate(-583.398 -409.781)" fill="#2d356b"/>
                    <path id="Path_5955" data-name="Path 5955" d="M610.312,432.108c1.17-1.682,2.84-3.36,6.023-2.247A11.635,11.635,0,0,0,610.312,432.108Z" transform="translate(-581.852 -409.597)" fill="#2d356b"/>
                    <path id="Path_5956" data-name="Path 5956" d="M619.819,465.043c.052-.282.92.718,1.331.753,1.165.1.833,1.585-.33,1.367C620.367,467.077,619.765,465.342,619.819,465.043Z" transform="translate(-586.392 -426.553)" fill="#f36973"/>
                    <path id="Path_5957" data-name="Path 5957" d="M617.891,455.561c-.789-.314,4.536-1.847,3.572-.042C621.109,455.872,618.3,455.721,617.891,455.561Z" transform="translate(-585.434 -421.614)" fill="#f36973"/>
                    <path id="Path_5958" data-name="Path 5958" d="M614.145,418.747c-1.971-.4-6.261-.745-8.546,4.459C607.9,420.052,609.688,418.874,614.145,418.747Z" transform="translate(-579.6 -404.363)" fill="#2d356b"/>
                    <path id="Path_5959" data-name="Path 5959" d="M625.751,442.982l-2.677.819-.1-6.837,3.99,4.867Z" transform="translate(-587.903 -413.162)" fill="#ffd8a3"/>
                    <path id="Path_5960" data-name="Path 5960" d="M625.05,452.155l2.081-4.234-2.01-.072Z" transform="translate(-588.893 -418.363)" fill="#ffd8a3"/>
                    <path id="Path_5961" data-name="Path 5961" d="M619.631,461.77a50.407,50.407,0,0,0,1.32-5.935h-4.835S617.077,460.954,619.631,461.77Z" transform="translate(-584.625 -422.178)" fill="#ffab00"/>
                    <path id="Path_5962" data-name="Path 5962" d="M618.088,458.79h2.754c.159-.746.307-1.526.442-2.334h-3.951Z" transform="translate(-585.205 -422.474)" fill="#fff"/>
                    <path id="Path_5963" data-name="Path 5963" d="M577.919,439.382c.109-2.109.823-3.664-.777-3.743s-2.99,1.567-3.1,3.678,1.1,3.885,2.707,3.966S577.812,441.493,577.919,439.382Z" transform="translate(-564.522 -412.528)" fill="#f7c371"/>
                  </g>
                  <path id="Path_5964" data-name="Path 5964" d="M598.255,399.076c-5.078,7.674-13.976,18.892-11.835,29.825-4.5-11.64-2.493-27.168,5.23-33.561C592.464,396.509,599.377,396.156,598.255,399.076Z" transform="translate(-569.306 -393.277)" fill="#2d356b"/>
                </g>
              </g>
            </g>
            <g id="Group_5376" data-name="Group 5376" transform="translate(19.895 55.753)">
              <g id="Group_5374" data-name="Group 5374" transform="translate(39.951 21.128)">
                <path id="Path_5965" data-name="Path 5965" d="M633.18,561.61c2.338-2.634,10.866-4.228,9.482-6.971-1.238-2.458-6.865-4.573-11.441,5.07Z" transform="translate(-631.22 -545.271)" fill="#ffd9a4"/>
                <path id="Path_5966" data-name="Path 5966" d="M637.47,553.2c1.912,4.477,7.359,2.128,8.9.992,1.7-1.25,1.176-5.049-.236-5.955S636.742,551.49,637.47,553.2Z" transform="translate(-634.184 -543.143)" fill="#ffd9a4"/>
                <path id="Path_5967" data-name="Path 5967" d="M642.846,544.936c.922-2.717.671-6.268-.426-6.337-1.236-.08-.445,2.931-1.868,5.169-1.535,2.426-2.372,4.032-1.47,4.674S641.924,547.658,642.846,544.936Z" transform="translate(-634.799 -538.598)" fill="#ffd9a4"/>
                <path id="Path_5968" data-name="Path 5968" d="M651.14,544.8c1.972-1.469,2.665-2.689,2.215-3.167s-1.521.427-3.494,1.891-4.843,2.839-4.394,3.317S649.165,546.26,651.14,544.8Z" transform="translate(-638.004 -539.985)" fill="#ffd9a4"/>
                <path id="Path_5969" data-name="Path 5969" d="M655.141,549.266c2.272-1.062,3.764-2.989,3.427-3.538s-2.19.923-4.461,1.986-3.687,1.873-3.348,2.422S652.87,550.328,655.141,549.266Z" transform="translate(-640.531 -541.948)" fill="#ffd9a4"/>
                <path id="Path_5970" data-name="Path 5970" d="M653.779,555.637c2.226-1.152,3.207-2.3,2.855-2.837s-1.675.5-3.9,1.649-3.768,1.99-3.414,2.531S651.552,556.79,653.779,555.637Z" transform="translate(-639.843 -545.313)" fill="#ffd9a4"/>
              </g>
              <g id="Group_5375" data-name="Group 5375">
                <path id="Path_5971" data-name="Path 5971" d="M570.049,498.237c-8.843-2.675-15.791,52.2-15.3,54.1,0,0,4.718,2.039,5.96.078C563.918,547.351,574,499.432,570.049,498.237Z" transform="translate(-554.725 -498.143)" fill="#cfd0d8"/>
                <path id="Path_5972" data-name="Path 5972" d="M594.874,565.913c3.622,6.29-34.323,19.605-35.869,19.56,0,0-4.174-3.6-2.892-4.891C559.43,577.253,593.256,563.1,594.874,565.913Z" transform="translate(-555.271 -530.344)" fill="#cfd0d8"/>
                <path id="Path_5973" data-name="Path 5973" d="M625.772,564.212l-1.6-1.542L615.844,564s2.2,3.251,3.091,3.631S625.772,564.212,625.772,564.212Z" transform="translate(-583.924 -528.97)" fill="#eaeaea"/>
                <path id="Path_5974" data-name="Path 5974" d="M629.39,565.343l.836,2.07-4.444,7.181s-2.21-3.289-2.222-4.26S629.39,565.343,629.39,565.343Z" transform="translate(-587.609 -530.247)" fill="#eaeaea"/>
              </g>
            </g>
          </g>
          <g id="Group_5385" data-name="Group 5385" transform="translate(386.92 454.795)">
            <g id="Group_5384" data-name="Group 5384">
              <g id="Group_5378" data-name="Group 5378" transform="translate(13.228)">
                <path id="Path_5975" data-name="Path 5975" d="M993.07,649.779s.963-6.478,1.4-7.9c.563-1.841.839-4.583-.71-6.2s-1.784-5.411-1.784-5.992-.581-9.295-6.971-8c0,0-2.646.646-1.356,5.293,0,0,1.356,2.775-.355,4.518a7.077,7.077,0,0,0,0,9.618c3.2,3.873,2.285,5.29,1.775,6.777-2.327,6.779,2.625,13,3.163,14.665s1.183,4.387.643,5.956l1.879.035Z" transform="translate(-981.414 -621.552)" fill="#ebebeb"/>
              </g>
              <g id="Group_5379" data-name="Group 5379" transform="translate(19.297 6.559)">
                <path id="Path_5976" data-name="Path 5976" d="M995.307,674.794a.31.31,0,0,1-.057-.006.284.284,0,0,1-.221-.335c.718-3.5-.543-9.729-.555-9.791-.7-2.653-.9-6.042.255-14.682a33.186,33.186,0,0,0-.35-11.337,18.968,18.968,0,0,0-1.313-4.118.284.284,0,0,1,.507-.257,19.061,19.061,0,0,1,1.356,4.23,33.721,33.721,0,0,1,.364,11.557c-1.135,8.52-.928,11.95-.265,14.479.057.275,1.3,6.423.559,10.034A.284.284,0,0,1,995.307,674.794Z" transform="translate(-993.034 -634.112)" fill="#f9f9f9"/>
              </g>
              <g id="Group_5380" data-name="Group 5380" transform="translate(0 24.894)">
                <path id="Path_5977" data-name="Path 5977" d="M974.4,691.453s0-1.528-3.135-2.975a5.239,5.239,0,0,1-3.135-3.778c-.8-3.055-3.055-2.251-4.5-1.367s-4.734,0-4.738-4.582a3.042,3.042,0,0,0-1.121-3.7c-2.1-1.286-2.9-5.881,1.6-5.835s8.743,2.27,13.1,8.729c6.06,8.977,3.7,13.506,3.7,13.506Z" transform="translate(-956.086 -669.218)" fill="#ebebeb"/>
              </g>
              <g id="Group_5381" data-name="Group 5381" transform="translate(4.548 28.114)">
                <path id="Path_5978" data-name="Path 5978" d="M979.764,694.682a.285.285,0,0,1-.087-.014.289.289,0,0,1-.183-.358,6.873,6.873,0,0,0,.018-3,.261.261,0,0,1-.022-.057c-2.431-9.176-14.419-15.274-14.54-15.334a.284.284,0,1,1,.254-.508c.123.062,12.315,6.265,14.827,15.67a6.714,6.714,0,0,1,0,3.4A.278.278,0,0,1,979.764,694.682Z" transform="translate(-964.793 -675.383)" fill="#f9f9f9"/>
              </g>
              <g id="Group_5382" data-name="Group 5382" transform="translate(22.569 11.287)">
                <path id="Path_5979" data-name="Path 5979" d="M1001.649,678.87a5.592,5.592,0,0,0,2.647-5.616c-.646-3.744,2.711-4.583,3.486-4.712s5.809-2.195,5.035-9.747c0,0-.258-4.841.646-6.584s3.163-6.971,0-8.585-5.357,1.291-6.519,4.26c0,0-.9,3.421-1.678,4.26s-6.39,5.745-5.939,15.944l1.1,10.78Z" transform="translate(-999.299 -643.165)" fill="#ebebeb"/>
              </g>
              <g id="Group_5383" data-name="Group 5383" transform="translate(24.098 17.225)">
                <path id="Path_5980" data-name="Path 5980" d="M1002.531,684.585a.284.284,0,0,1-.284-.274c-.326-8.682,3.439-20,5.6-23.275a58.136,58.136,0,0,0,3.595-6.34.284.284,0,0,1,.514.242,58.915,58.915,0,0,1-3.635,6.41c-2.124,3.218-5.826,14.372-5.5,22.941a.284.284,0,0,1-.273.294Z" transform="translate(-1002.228 -654.533)" fill="#f9f9f9"/>
              </g>
            </g>
            <path id="Path_5981" data-name="Path 5981" d="M984.02,727.8h12.172l2.946-16.679H981.073Z" transform="translate(-968.023 -664.341)" fill="#ebebeb"/>
          </g>
          <g id="Group_5401" data-name="Group 5401" transform="translate(413.758 337.596)">
            <g id="Group_5400" data-name="Group 5400">
              <g id="Group_5396" data-name="Group 5396" transform="translate(6.732)">
                <g id="Group_5395" data-name="Group 5395">
                  <g id="Group_5390" data-name="Group 5390" transform="translate(1.398 114.892)">
                    <path id="Path_5984" data-name="Path 5984" d="M1038.991,628.534,1023.631,630c-11.654,40.456,10.907,96.15-1.809,172.238,0,0,2.676,1.1,2.846,0C1037.46,719.384,1027.267,684.726,1038.991,628.534Z" transform="translate(-1015.286 -626.777)" fill="#ffac00"/>
                    <path id="Path_5985" data-name="Path 5985" d="M1040.362,625.17c16.458,29.45,4.863,27.2,3.781,42.4-4.046,56.868,10.017,66.262,19.334,133.445,0,0-3.557-.175-3.662-1.145-5.848-53.6-37.451-104.881-39.719-154.642C1019.726,637.114,1040.362,625.17,1040.362,625.17Z" transform="translate(-1015.25 -625.17)" fill="#f8c471"/>
                    <path id="Path_5986" data-name="Path 5986" d="M1082.549,959.4h10.658s.515-2.939-1.862-3.411C1089.848,955.692,1087.2,956.378,1082.549,959.4Z" transform="translate(-1045.088 -783.185)" fill="#495bd9"/>
                    <path id="Path_5987" data-name="Path 5987" d="M1010.821,959.889h9.369s.452-2.941-1.637-3.41C1017.236,956.181,1014.909,956.866,1010.821,959.889Z" transform="translate(-1010.821 -783.418)" fill="#495bd9"/>
                    <path id="Path_5988" data-name="Path 5988" d="M1047.668,711.537c-11.206,2.36-17.989,3.1-26.614,2.654,0,0-7.741-59.716,2.876-82.055,3.816-8.03,13.634-8.426,18.136-1.7C1057.1,652.927,1040.516,672.39,1047.668,711.537Z" transform="translate(-1014.408 -625.435)" fill="#495bd9"/>
                  </g>
                  <g id="Group_5391" data-name="Group 5391" transform="translate(0 29.032)">
                    <path id="Path_5989" data-name="Path 5989" d="M1057.858,460.771l-8.626,5.419-1.548,18.652,6.93-2.507Z" transform="translate(-1027.034 -460.771)" fill="#ffac00"/>
                    <path id="Path_5990" data-name="Path 5990" d="M1012.413,589.276c5.543-3.631,18.412-11.658,32.683-1.72-4.268-12.534-8.145-24.857-8.282-35.167-.256-19.113,15.988-41.562,2.548-50.2-14.271-9.175-31.217,33.192-31.217,33.192C1022.415,543.407,1018.467,566.42,1012.413,589.276Z" transform="translate(-1008.144 -479.936)" fill="#9ea9fc"/>
                    <path id="Path_5991" data-name="Path 5991" d="M1053.491,499.816l-2.507-.295-11.206,10.542,3.318,2.8S1050.615,505.2,1053.491,499.816Z" transform="translate(-1023.257 -479.283)" fill="#fff"/>
                    <path id="Path_5992" data-name="Path 5992" d="M1030.744,513.148c-.054-.038-.1-.076-.157-.114,2.957-5.9,9.421-14.936,15.661-14.356C1040.567,503.747,1030.744,513.148,1030.744,513.148Z" transform="translate(-1018.866 -478.868)" fill="#ffac00"/>
                  </g>
                </g>
              </g>
              <g id="Group_5399" data-name="Group 5399" transform="translate(0 58.359)">
                <g id="Group_5397" data-name="Group 5397">
                  <path id="Path_6008" data-name="Path 6008" d="M1009.892,541.472c-1.294-3.16-8.586-7.351-6.44-9.417,1.921-1.852,7.747-1.983,8.842,8.307Z" transform="translate(-998.983 -523.69)" fill="#f8c471"/>
                  <path id="Path_6009" data-name="Path 6009" d="M1009.584,532.446c-3.185,3.483-7.415-.412-8.463-1.946-1.152-1.688.543-5,2.126-5.373S1010.8,531.113,1009.584,532.446Z" transform="translate(-997.875 -520.835)" fill="#f8c471"/>
                  <path id="Path_6010" data-name="Path 6010" d="M1011.617,524.52c.027-2.782,1.4-5.95,2.42-5.661,1.157.323-.532,2.824.052,5.328.627,2.713.878,4.45-.154,4.748S1011.587,527.306,1011.617,524.52Z" transform="translate(-1003.071 -517.84)" fill="#f8c471"/>
                  <path id="Path_6011" data-name="Path 6011" d="M1002.452,520.578c-1.334-1.975-1.577-3.314-1.012-3.608s1.255.879,2.591,2.851,3.521,4.149,2.957,4.443S1003.79,522.548,1002.452,520.578Z" transform="translate(-998.073 -516.924)" fill="#f8c471"/>
                  <path id="Path_6012" data-name="Path 6012" d="M997.554,523.391c-1.739-1.7-2.487-3.941-2-4.336S997.26,520.6,999,522.3s2.773,2.9,2.286,3.289S999.291,525.09,997.554,523.391Z" transform="translate(-995.327 -517.917)" fill="#f8c471"/>
                  <path id="Path_6013" data-name="Path 6013" d="M997.134,529.813c-1.667-1.768-2.2-3.131-1.7-3.511s1.374.992,3.039,2.759,2.809,3.029,2.312,3.41S998.8,531.582,997.134,529.813Z" transform="translate(-995.254 -521.374)" fill="#f8c471"/>
                </g>
                <g id="Group_5398" data-name="Group 5398" transform="translate(7.322 4.355)">
                  <path id="Path_6014" data-name="Path 6014" d="M1053.082,525.275c8.752,1.9-11.235,51.665-12.549,53.046,0,0-4.958-.5-5.085-2.743C1035.12,569.77,1049.174,524.425,1053.082,525.275Z" transform="translate(-1021.775 -525.263)" fill="#7b88ac"/>
                  <path id="Path_6015" data-name="Path 6015" d="M1017.991,550.212c-6.893,1.416,7.371,36.811,8.4,37.9,0,0,5.772,1.409,5.882-.349C1032.553,583.219,1021.07,549.579,1017.991,550.212Z" transform="translate(-1012.542 -537.178)" fill="#7b88ac"/>
                  <path id="Path_6016" data-name="Path 6016" d="M1017.4,546.7l2.145.166,4.393,6.9s-3.773.5-4.621.092S1017.4,546.7,1017.4,546.7Z" transform="translate(-1013.153 -535.503)" fill="#eaeaea"/>
                  <path id="Path_6017" data-name="Path 6017" d="M1013.664,546.613l-2.039.724-2.352,7.842s3.807-.512,4.519-1.127S1013.664,546.613,1013.664,546.613Z" transform="translate(-1009.273 -535.463)" fill="#eaeaea"/>
                </g>
              </g>
            </g>
          </g>
          <g id="Group_5936" data-name="Group 5936" transform="translate(405.91 327.958)">
            <g id="Group_452" data-name="Group 452">
              <path id="Path_6222" data-name="Path 6222" d="M1086.438,426.174c1.365,6.51,8.937,9.048,15.37,4.161,0,0,2.706,8.488,11.408-3.984s3.079-22.954,1.3-24.307c0,0,8.275-8.667-4.943-11.225,0,0,1.256-5.8-4.676-9.932-4.446-3.093-12.344-2.376-13.364,2.263,0,0-9.276-5.587-13.968,2.022s-3.326,10.611-3.326,10.611.795,1.347-.869,4.232,4.456,5.665,4.456,5.665-2.5-2.455-3.331-1.012,3.219,4.078,3.219,4.078-5.432,2.178-4.143,6.209,6.316,3.521,6.316,3.521Z" transform="translate(-1046.127 -372.859)" fill="#7b88ac"/>
            </g>
          </g>
          <g id="Group_5937" data-name="Group 5937" transform="translate(426.649 339.744)">
            <g id="Group_5759" data-name="Group 5759" transform="translate(0 0)">
              <g id="Group_5758" data-name="Group 5758" transform="translate(0 0)">
                <g id="Group_5756" data-name="Group 5756" transform="translate(1.974)">
                  <path id="Path_6223" data-name="Path 6223" d="M1086.307,427.282c4.352-1.195,13.116-2.588,17.338-9.16,5.489-8.544,4.1-13.829,2.265-20.258-3.488-12.257-24.395-6.518-23.088-2.907C1084.558,399.752,1070.534,431.611,1086.307,427.282Z" transform="translate(-1071.697 -390.413)" fill="#7b88ac"/>
                  <path id="Path_6224" data-name="Path 6224" d="M1073.174,435.552c-1.587,0-4.426-8.2-5.272-14.488-.279-2.073,1.953-2.317,1.813-9.391-.082-4.153,1.835-9.9,8.79-14.025,6.565-3.894,7.052,8.993,7.615,11.97,1.6,8.481,3.768,13.807,1.593,17.91C1083.466,435.542,1074.888,435.143,1073.174,435.552Z" transform="translate(-1066.208 -393.705)" fill="#f8c471"/>
                  <path id="Path_6225" data-name="Path 6225" d="M1078.532,452.4a.366.366,0,0,0-.33-.4.384.384,0,0,0-.317.422.366.366,0,0,0,.332.4A.383.383,0,0,0,1078.532,452.4Z" transform="translate(-1071.27 -421.569)" fill="#ffab00"/>
                  <path id="Path_6226" data-name="Path 6226" d="M1078.2,429.684c-.037-1.116-.691-1.988-1.456-1.949s-1.359.975-1.32,2.089.69,1.988,1.456,1.949S1078.238,430.8,1078.2,429.684Z" transform="translate(-1070.024 -409.291)" fill="#2d356b"/>
                  <path id="Path_6227" data-name="Path 6227" d="M1078.53,429.753c-1.074-1.543-2.606-3.083-5.525-2.061A10.668,10.668,0,0,1,1078.53,429.753Z" transform="translate(-1068.802 -409.103)" fill="#2d356b"/>
                  <path id="Path_6228" data-name="Path 6228" d="M1073.034,461.815c-.047-.258-.844.658-1.221.69-1.068.091-.764,1.453.3,1.254C1072.532,463.681,1073.083,462.089,1073.034,461.815Z" transform="translate(-1067.862 -426.508)" fill="#f36973"/>
                  <path id="Path_6229" data-name="Path 6229" d="M1073.3,452.578c.724-.288-4.161-1.694-3.277-.039C1070.35,452.864,1072.932,452.725,1073.3,452.578Z" transform="translate(-1067.24 -421.438)" fill="#f36973"/>
                  <path id="Path_6230" data-name="Path 6230" d="M1072.889,416.925a6.5,6.5,0,0,1,7.839,4.09C1078.616,418.122,1076.978,417.041,1072.889,416.925Z" transform="translate(-1068.743 -403.73)" fill="#2d356b"/>
                  <path id="Path_6231" data-name="Path 6231" d="M1065.615,440.116l2.455.751.089-6.272-3.66,4.465Z" transform="translate(-1064.499 -412.762)" fill="#f8c471"/>
                  <path id="Path_6232" data-name="Path 6232" d="M1067.943,449.1l-1.909-3.883,1.844-.066Z" transform="translate(-1065.276 -418.101)" fill="#f8c471"/>
                  <path id="Path_6233" data-name="Path 6233" d="M1070.794,458.335a46.349,46.349,0,0,1-1.212-5.445h4.435S1073.137,457.586,1070.794,458.335Z" transform="translate(-1067.07 -422.016)" fill="#ffab00"/>
                  <path id="Path_6234" data-name="Path 6234" d="M1072.975,455.633h-2.526q-.22-1.026-.405-2.141h3.625Z" transform="translate(-1067.304 -422.321)" fill="#fff"/>
                  <path id="Path_6235" data-name="Path 6235" d="M1111.909,436.744c-.1-1.934-.755-3.36.713-3.433s2.743,1.437,2.842,3.374-1.013,3.563-2.483,3.638S1112.007,438.681,1111.909,436.744Z" transform="translate(-1088.364 -412.111)" fill="#ffac00"/>
                </g>
                <g id="Group_5757" data-name="Group 5757" transform="translate(0 1.02)">
                  <path id="Path_6236" data-name="Path 6236" d="M1088.627,392.478c-1.36,2.327-2.869,17.61,9.8,19.629,0,0-6.665-7.622-.261-14.583Z" transform="translate(-1074.284 -392.478)" fill="#7b88ac"/>
                  <path id="Path_6237" data-name="Path 6237" d="M1060.505,405.755c2.3.4,6.91-.734,8.179-3.545s6.073-5.02,9.661-3.874l-.773-1.963s-6.906-.661-9.475,5.041C1066.488,404.984,1060.505,405.755,1060.505,405.755Z" transform="translate(-1060.505 -394.436)" fill="#7b88ac"/>
                </g>
              </g>
            </g>
          </g>
        </g>
        <g id="Group_5387" data-name="Group 5387" transform="translate(133.838 426.449)">
          <rect id="Rectangle_1763" data-name="Rectangle 1763" width="56.256" height="28.346" rx="6.672" transform="translate(0 0)" fill="#fff" stroke="#231f20" stroke-miterlimit="10" stroke-width="0.25"/>
          <text id="Akiko" transform="translate(15.128 17.673)" fill="#2d356b" font-size="10" font-family="TrebuchetMS-Bold, Trebuchet MS" font-weight="700"><tspan x="0" y="0">Akiko</tspan></text>
        </g>
        <g id="Group_5388" data-name="Group 5388" transform="translate(413.758 426.681)">
          <rect id="Rectangle_1764" data-name="Rectangle 1764" width="56.256" height="25.878" rx="6.672" transform="translate(0 0)" fill="#fff" stroke="#231f20" stroke-miterlimit="10" stroke-width="0.25"/>
          <text id="Sara" transform="translate(18.128 16.439)" fill="#2d356b" font-size="10" font-family="TrebuchetMS-Bold, Trebuchet MS" font-weight="700"><tspan x="0" y="0">Sara</tspan></text>
        </g>
      </g>
      <g id="Group_5386" data-name="Group 5386" transform="translate(40.796 267.725)">
        <rect id="Rectangle_1762" data-name="Rectangle 1762" width="268.55" height="51.796" rx="11.604" transform="translate(0)" fill="#fff" stroke="#231f20" stroke-miterlimit="10" stroke-width="0.25"/>
        <path id="Path_5982" data-name="Path 5982" d="M434.291,349.13l38.663,19.356L452.085,349.13Z" transform="translate(-416.16 -297.331)" fill="#fff" stroke="#231f20" stroke-miterlimit="10" stroke-width="0.25"/>
      </g>
    </g>
    <g id="Group_5296" data-name="Group 5296" transform="translate(340.616 268.928)">
      <rect id="Rectangle_1761" data-name="Rectangle 1761" width="204.384" height="51.796" rx="11.604" transform="translate(204.384 51.796) rotate(-180)" fill="#fff" stroke="#231f20" stroke-miterlimit="10" stroke-width="0.25"/>
      <path id="Path_5916" data-name="Path 5916" d="M1191.766,351.1l-37.2,23.629,16.189-23.629Z" transform="translate(-1008.796 -299.305)" fill="#fff" stroke="#231f20" stroke-miterlimit="10" stroke-width="0.25"/>
    </g>
    <g id="Group_5366" data-name="Group 5366" transform="translate(230.217 326.391)">
      <g id="Group_5357" data-name="Group 5357">
        <g id="Group_5356" data-name="Group 5356">
          <g id="Group_5334" data-name="Group 5334">
            <g id="Group_5301" data-name="Group 5301" transform="translate(0.76 0.76)">
              <g id="Group_5298" data-name="Group 5298" transform="translate(1.997 2.034)">
                <g id="Group_5297" data-name="Group 5297">
                  <path id="Path_5917" data-name="Path 5917" d="M760.207,416.966a29.686,29.686,0,0,1-23.708,14.8A29.847,29.847,0,0,1,706.358,392.3a29.664,29.664,0,0,1,20.867-18.967,29.859,29.859,0,0,1,36.515,33.548,29.559,29.559,0,0,1-3.533,10.087C752.113,431.161,768.3,402.771,760.207,416.966Z" transform="translate(-704.753 -372.504)" fill="#81bec0"/>
                </g>
              </g>
              <g id="Group_5300" data-name="Group 5300">
                <g id="Group_5299" data-name="Group 5299">
                  <path id="Path_5918" data-name="Path 5918" d="M732.732,431.982A31.87,31.87,0,0,1,703.3,388.024a31.753,31.753,0,0,1,27.957-19.394,31.828,31.828,0,0,1,28.691,47.783A31.75,31.75,0,0,1,732.732,431.982Zm-.3-59.34a27.67,27.67,0,1,0,27.785,29.4,27.868,27.868,0,0,0-27.785-29.4Z" transform="translate(-700.929 -368.609)" fill="#2d356b"/>
                </g>
              </g>
            </g>
            <g id="Group_5304" data-name="Group 5304" transform="translate(1.996 2.034)">
              <g id="Group_5303" data-name="Group 5303">
                <g id="Group_5302" data-name="Group 5302">
                  <path id="Path_5919" data-name="Path 5919" d="M758.751,415.51a29.684,29.684,0,0,1-23.708,14.8A29.847,29.847,0,0,1,704.9,390.841a29.665,29.665,0,0,1,20.866-18.967,29.859,29.859,0,0,1,36.516,33.549,29.566,29.566,0,0,1-3.532,10.088C750.655,429.706,766.847,401.315,758.751,415.51Z" transform="translate(-703.296 -371.048)" fill="#fff"/>
                </g>
              </g>
            </g>
            <g id="Group_5307" data-name="Group 5307" transform="translate(30.628 0.98)">
              <g id="Group_5306" data-name="Group 5306">
                <g id="Group_5305" data-name="Group 5305">
                  <path id="Path_5920" data-name="Path 5920" d="M759.914,381c-2.461,0-1.676-4.5-1.676-5.985s-.785-5.985,1.676-5.985,1.675,4.5,1.675,5.985S762.373,381,759.914,381Z" transform="translate(-758.119 -369.029)" fill="#9999a5"/>
                </g>
              </g>
            </g>
            <g id="Group_5310" data-name="Group 5310" transform="translate(51.91 30.687)">
              <g id="Group_5309" data-name="Group 5309">
                <g id="Group_5308" data-name="Group 5308">
                  <path id="Path_5921" data-name="Path 5921" d="M808.526,429.351h-6.019c-.693,0-1.413.063-2.105,0-2.046,0-2.046-3.361,0-3.361,1.975-.178,4.037,0,6.018,0,.692,0,1.414-.062,2.105,0C810.572,425.99,810.572,429.351,808.526,429.351Z" transform="translate(-798.868 -425.911)" fill="#9999a5"/>
                </g>
              </g>
            </g>
            <g id="Group_5313" data-name="Group 5313" transform="translate(30.628 51.944)">
              <g id="Group_5312" data-name="Group 5312">
                <g id="Group_5311" data-name="Group 5311">
                  <path id="Path_5922" data-name="Path 5922" d="M759.914,477.821c-2.461,0-1.676-4.209-1.676-5.6s-.785-5.6,1.676-5.6,1.675,4.209,1.675,5.6S762.373,477.821,759.914,477.821Z" transform="translate(-758.119 -466.613)" fill="#9999a5"/>
                </g>
              </g>
            </g>
            <g id="Group_5316" data-name="Group 5316" transform="translate(1.104 30.697)">
              <g id="Group_5315" data-name="Group 5315">
                <g id="Group_5314" data-name="Group 5314">
                  <path id="Path_5923" data-name="Path 5923" d="M711.788,429.369h-6.356c-.733,0-1.5.062-2.224,0a1.681,1.681,0,0,1,0-3.361c2.085-.178,4.263,0,6.356,0,.732,0,1.5-.062,2.224,0A1.681,1.681,0,0,1,711.788,429.369Z" transform="translate(-701.587 -425.929)" fill="#9999a5"/>
                </g>
              </g>
            </g>
            <g id="Group_5319" data-name="Group 5319" transform="translate(29.868 0.22)">
              <g id="Group_5318" data-name="Group 5318">
                <g id="Group_5317" data-name="Group 5317">
                  <path id="Path_5924" data-name="Path 5924" d="M758.458,379.542c-2.46,0-1.676-4.5-1.676-5.985s-.783-5.985,1.676-5.985,1.674,4.5,1.674,5.985S760.917,379.542,758.458,379.542Z" transform="translate(-756.663 -367.573)" fill="#ebebeb"/>
                </g>
              </g>
            </g>
            <g id="Group_5322" data-name="Group 5322" transform="translate(51.149 29.927)">
              <g id="Group_5321" data-name="Group 5321">
                <g id="Group_5320" data-name="Group 5320">
                  <path id="Path_5925" data-name="Path 5925" d="M807.611,427.895h-6.355c-.732,0-1.494.063-2.225,0a1.681,1.681,0,0,1,0-3.36c2.086-.179,4.264,0,6.355,0,.732,0,1.495-.063,2.225,0A1.681,1.681,0,0,1,807.611,427.895Z" transform="translate(-797.41 -424.455)" fill="#ebebeb"/>
                </g>
              </g>
            </g>
            <g id="Group_5325" data-name="Group 5325" transform="translate(29.868 51.183)">
              <g id="Group_5324" data-name="Group 5324">
                <g id="Group_5323" data-name="Group 5323">
                  <path id="Path_5926" data-name="Path 5926" d="M758.458,477.125c-2.46,0-1.676-4.5-1.676-5.985s-.783-5.985,1.676-5.985,1.674,4.5,1.674,5.985S760.917,477.125,758.458,477.125Z" transform="translate(-756.663 -465.155)" fill="#ebebeb"/>
                </g>
              </g>
            </g>
            <g id="Group_5328" data-name="Group 5328" transform="translate(0.343 29.937)">
              <g id="Group_5327" data-name="Group 5327">
                <g id="Group_5326" data-name="Group 5326">
                  <path id="Path_5927" data-name="Path 5927" d="M710.33,427.914h-6.354c-.733,0-1.495.062-2.225,0a1.681,1.681,0,0,1,0-3.361c2.086-.178,4.262,0,6.356,0,.731,0,1.494-.062,2.223,0A1.681,1.681,0,0,1,710.33,427.914Z" transform="translate(-700.13 -424.474)" fill="#ebebeb"/>
                </g>
              </g>
            </g>
            <g id="Group_5330" data-name="Group 5330">
              <g id="Group_5329" data-name="Group 5329">
                <path id="Path_5928" data-name="Path 5928" d="M731.279,430.526a31.87,31.87,0,0,1-29.433-43.958A31.752,31.752,0,0,1,729.8,367.174a31.827,31.827,0,0,1,28.69,47.783A31.747,31.747,0,0,1,731.279,430.526Zm-.306-59.341a27.672,27.672,0,1,0,27.784,29.405,27.868,27.868,0,0,0-27.784-29.405Z" transform="translate(-699.474 -367.153)" fill="#495bd9"/>
              </g>
            </g>
            <g id="Group_5333" data-name="Group 5333" transform="translate(30.633 9.794)">
              <g id="Group_5332" data-name="Group 5332">
                <g id="Group_5331" data-name="Group 5331">
                  <path id="Path_5929" data-name="Path 5929" d="M759.688,385.921c.7,3.9,1.061,7.83,1.622,11.745a19.4,19.4,0,0,1,.213,6.074c-.093.57-.715,4.378-1.617,4.1-.316-.1-.691-1.413-.8-1.7a17.063,17.063,0,0,1-.809-3,26.278,26.278,0,0,1,.092-6.229c.128-2.195.284-4.386.486-6.577.1-1.048.195-2.094.312-3.138C759.232,386.8,759.076,385.772,759.688,385.921Z" transform="translate(-758.127 -385.906)" fill="#2d356b"/>
                </g>
              </g>
            </g>
          </g>
          <g id="Group_5355" data-name="Group 5355" transform="translate(8.473 8.419)">
            <g id="Group_5339" data-name="Group 5339" transform="translate(9.414)">
              <g id="Group_5336" data-name="Group 5336" transform="translate(23.508)">
                <g id="Group_5335" data-name="Group 5335">
                  <path id="Path_5930" data-name="Path 5930" d="M779.171,387.877c-1.044-.6.06-1.935.436-2.6s1.038-2.5,2.119-1.881c1.043.6-.058,1.934-.437,2.6s-1.036,2.5-2.118,1.881C778.736,387.627,779.606,388.126,779.171,387.877Z" transform="translate(-778.733 -383.273)" fill="#cfd0d8"/>
                </g>
              </g>
              <g id="Group_5338" data-name="Group 5338" transform="translate(0 41.222)">
                <g id="Group_5337" data-name="Group 5337">
                  <path id="Path_5931" data-name="Path 5931" d="M734.159,466.806c-1.042-.6.058-1.934.436-2.6s1.037-2.5,2.118-1.882c1.043.6-.056,1.933-.435,2.6s-1.039,2.5-2.119,1.881Z" transform="translate(-733.722 -462.202)" fill="#cfd0d8"/>
                </g>
              </g>
            </g>
            <g id="Group_5344" data-name="Group 5344" transform="translate(9.231 0.103)">
              <g id="Group_5341" data-name="Group 5341">
                <g id="Group_5340" data-name="Group 5340">
                  <path id="Path_5932" data-name="Path 5932" d="M735.494,388.056c-.654-.375-1.079-1.622-1.438-2.236q-.28-.483-.56-.964a.917.917,0,0,1,1.138-1.309c.7.307,1.175,1.675,1.527,2.281.188.321.373.643.56.964a.915.915,0,0,1-1.227,1.264Z" transform="translate(-733.372 -383.47)" fill="#cfd0d8"/>
                </g>
              </g>
              <g id="Group_5343" data-name="Group 5343" transform="translate(23.828 41.037)">
                <g id="Group_5342" data-name="Group 5342">
                  <path id="Path_5933" data-name="Path 5933" d="M781.119,466.633c-.657-.379-1.079-1.62-1.438-2.237q-.28-.482-.558-.964a.916.916,0,0,1,1.138-1.308c.7.306,1.174,1.674,1.526,2.281.187.321.372.642.56.963a.916.916,0,0,1-1.227,1.265C780.986,466.556,781.393,466.789,781.119,466.633Z" transform="translate(-778.997 -462.046)" fill="#cfd0d8"/>
                </g>
              </g>
            </g>
            <g id="Group_5349" data-name="Group 5349" transform="translate(0 9.444)">
              <g id="Group_5346" data-name="Group 5346">
                <g id="Group_5345" data-name="Group 5345">
                  <path id="Path_5934" data-name="Path 5934" d="M716.141,403.056a.918.918,0,0,1,.348-1.695,1.8,1.8,0,0,1,1.04.394,18.718,18.718,0,0,1,2.4,1.379.918.918,0,0,1-.349,1.695,1.788,1.788,0,0,1-1.039-.394Z" transform="translate(-715.697 -401.356)" fill="#cfd0d8"/>
                </g>
              </g>
              <g id="Group_5348" data-name="Group 5348" transform="translate(41.078 23.583)">
                <g id="Group_5347" data-name="Group 5347">
                  <path id="Path_5935" data-name="Path 5935" d="M797.691,449.873l-2.248-1.291a3.407,3.407,0,0,1-.864-.55.913.913,0,0,1,1.126-1.4,17.319,17.319,0,0,1,2.248,1.29,3.459,3.459,0,0,1,.866.55A.914.914,0,0,1,797.691,449.873Z" transform="translate(-794.35 -446.512)" fill="#cfd0d8"/>
                </g>
              </g>
            </g>
            <g id="Group_5354" data-name="Group 5354" transform="translate(0.02 9.285)">
              <g id="Group_5351" data-name="Group 5351" transform="translate(0 23.906)">
                <g id="Group_5350" data-name="Group 5350">
                  <path id="Path_5936" data-name="Path 5936" d="M716.256,450.194c-1.372-.787.324-1.768.973-2.147.619-.362,1.936-1.5,2.718-1.158,1.559.682-.24,1.815-.882,2.192S717.045,450.646,716.256,450.194Z" transform="translate(-715.735 -446.825)" fill="#cfd0d8"/>
                </g>
              </g>
              <g id="Group_5353" data-name="Group 5353" transform="translate(40.902)">
                <g id="Group_5352" data-name="Group 5352">
                  <path id="Path_5937" data-name="Path 5937" d="M794.574,404.419c-1.372-.788.322-1.769.971-2.148.62-.362,1.936-1.5,2.72-1.158,1.558.682-.24,1.816-.884,2.191s-2.018,1.565-2.807,1.114Z" transform="translate(-794.052 -401.051)" fill="#cfd0d8"/>
                </g>
              </g>
            </g>
          </g>
        </g>
      </g>
      <g id="Group_5360" data-name="Group 5360" transform="translate(30.638 13.23)">
        <g id="Group_5359" data-name="Group 5359">
          <g id="Group_5358" data-name="Group 5358">
            <path id="Path_5938" data-name="Path 5938" d="M760.058,392.5c.593,2.8.9,5.638,1.312,8.467a11.212,11.212,0,0,1,.061,4.9c-.157.577-.791,3.045-1.666,2.832-.265-.064-.613-.963-.725-1.194a9.859,9.859,0,0,1-.76-2.23c-.372-1.735.079-3.32.265-5.043.174-1.642.41-3.272.664-4.9C759.28,394.862,759.391,392.289,760.058,392.5Z" transform="translate(-758.138 -392.485)" fill="#ffac00"/>
          </g>
        </g>
      </g>
      <g id="Group_5365" data-name="Group 5365" transform="translate(28.484 28.058)">
        <g id="Group_5362" data-name="Group 5362" transform="translate(0.753 0.862)">
          <g id="Group_5361" data-name="Group 5361">
            <path id="Path_5939" data-name="Path 5939" d="M761.82,425.614c0,4.116-6.365,4.116-6.365,0S761.82,421.5,761.82,425.614Z" transform="translate(-755.455 -422.526)" fill="#ffe200"/>
          </g>
        </g>
        <g id="Group_5364" data-name="Group 5364">
          <g id="Group_5363" data-name="Group 5363">
            <path id="Path_5940" data-name="Path 5940" d="M757.951,428.774a3.949,3.949,0,1,1,3.936-3.949A3.984,3.984,0,0,1,757.951,428.774Zm0-6.386c-3.134,0-3.134,4.873,0,4.873S761.084,422.388,757.951,422.388Z" transform="translate(-754.014 -420.876)" fill="#f8c471"/>
          </g>
        </g>
      </g>
    </g>
  </g>
</svg>
