<svg xmlns="http://www.w3.org/2000/svg" width="172.084" height="122.225" viewBox="0 0 172.084 122.225"><g transform="translate(-57.184 -2042.279)"><g transform="translate(65.072 2042.279)"><g transform="translate(63.514 28.267)"><g transform="translate(0 21.075)"><path d="M576.87,2117.895c2.3-2.158,10.028-2.888,9.015-5.445-.905-2.291-5.749-4.632-10.608,3.594Z" transform="translate(-575.278 -2106.278)" fill="#ffd9a4"/><path d="M584.841,2108.985c1.343,4.144,6.387,2.492,7.856,1.6,1.613-.977,1.456-4.4.27-5.326S584.33,2107.4,584.841,2108.985Z" transform="translate(-581.558 -2102.856)" fill="#ffd9a4"/><path d="M599.237,2101.333c1.877-1.148,2.594-2.18,2.232-2.643s-1.39.259-3.267,1.4-4.546,2.137-4.185,2.6S597.36,2102.476,599.237,2101.333Z" transform="translate(-587.594 -2098.547)" fill="#f8c471"/><path d="M591.632,2109.65c1.444,3.544,4.048,2.473,5.277,1.6,1.349-.96.99-3.952-.108-4.683S591.082,2108.295,591.632,2109.65Z" transform="translate(-586.016 -2103.74)" fill="#f8c471"/><path d="M605.372,2110.578a1.048,1.048,0,0,0,.153-1.848c-.489-.3-1.013.583-2.012,1.248s-1.55,1.162-1.062,1.462S604.372,2111.242,605.372,2110.578Z" transform="translate(-593.05 -2105.212)" fill="#ffd9a4"/><path d="M604.858,2117.078c1.14-.538,1.457-1.24,1.067-1.681s-.966.135-2.1.673-1.918.938-1.526,1.38S603.718,2117.615,604.858,2117.078Z" transform="translate(-592.998 -2109.538)" fill="#ffd9a4"/></g><g transform="translate(10.113)"><path d="M608.1,2091.773c.169-.047.338-.082.506-.112a7.312,7.312,0,0,0,.038,1.494c-1.255.433-2.07,1.354-1.853,2.14.227.821,1.5,1.188,2.87.839a6.839,6.839,0,0,0,1.084,1.392,5.32,5.32,0,0,1-.95.367c-2.2.607-4.357-.27-4.824-1.96S605.906,2092.38,608.1,2091.773Z" transform="translate(-604.882 -2072.938)" fill="#fff4ba"/><path d="M609,2105.2a4.6,4.6,0,0,0,1.009-.417,6.8,6.8,0,0,0,1.022,1.3,5.357,5.357,0,0,1-.95.367c-2.123.587-4.208-.216-4.767-1.8A4.572,4.572,0,0,0,609,2105.2Z" transform="translate(-605.167 -2081.49)" fill="#f8c471"/><path d="M612.17,2079.393l10.452-2.892,1.755,11.753-9.061,2.507Z" transform="translate(-609.681 -2062.957)" fill="#fff4ba"/><path d="M627.944,2078.306l4.46-1.234.6-.571,1.755,11.753-4.938,1.366Z" transform="translate(-620.067 -2062.957)" fill="#fff4ba"/><path d="M635.475,2077.623l1.887-.551.6-.571,1.755,11.753-3.273.906Z" transform="translate(-625.025 -2062.957)" fill="#f8c471"/><path d="M614.589,2079.647c-.071-.258,1.969-1.047,4.558-1.764,1.75-.484,4.16-1.125,5.055-1.355.045.162.121.33.149.412.189.557-2.356,1.161-4.945,1.877S614.661,2079.905,614.589,2079.647Z" transform="translate(-611.272 -2062.975)" fill="#ebebeb"/><path d="M614.563,2080.683a57.164,57.164,0,0,1,9.077-2.512,57.109,57.109,0,0,1-9.077,2.512Z" transform="translate(-611.256 -2064.048)" fill="#2d356b"/><path d="M613.394,2049.957c.314-2.36,8.7-1.673,6.9-4.533-.825-1.312-3.945-.6-3.632-3.406.192-1.711-4.637-1.6-3.847-5.166-.3.992-.8,2.884,2.443,4.337,1.431.64.5,1.639.909,2.646.532,1.323,2.987,1.238,2.8,2.417C618.81,2047.276,612.61,2047.4,613.394,2049.957Z" transform="translate(-609.961 -2036.852)" fill="#ebebeb" opacity="0.2"/><path d="M616.244,2075.619c.727.481,2.069-.956,2.74-.549s.478,1.541-.776,2.044c0,0,1.143-.909.3-1.389C618.06,2075.475,616.975,2076.34,616.244,2075.619Z" transform="translate(-612.363 -2061.966)" fill="#ebebeb" opacity="0.2"/></g><path d="M593.386,2101.937c1.309-2.209.922-4.1-.05-4.253-.333-.052-5.145,5.257-4.2,6.286C589.812,2104.7,592.076,2104.15,593.386,2101.937Z" transform="translate(-584.324 -2076.904)" fill="#ffd9a4"/><path d="M600.426,2101.1c-.817-1.1-1.286-2.184-.583-2.706s1.528.238,2.345,1.337,1.608,1.634.616,2.644C602.2,2102.992,601.244,2102.2,600.426,2101.1Z" transform="translate(-591.226 -2077.259)" fill="#ffd9a4"/><path d="M611.787,2100.6c-.564.549-1.167.877-1.583.45s-.061-.972.5-1.52.785-1.064,1.54-.469C612.711,2099.426,612.351,2100.051,611.787,2100.6Z" transform="translate(-598.154 -2077.636)" fill="#ffd9a4"/></g><g transform="translate(0 30.865)"><path d="M468.779,2075.188l-1.062.376-.356,2.683,2.437.965Z" transform="translate(-440.711 -2060.947)" fill="#eaeaea"/><path d="M441.966,2037.161l-10.038-3.663-.347,16.157,14.367,4.114Z" transform="translate(-417.153 -2033.498)" fill="#f7c371"/><path d="M474.32,2181.205l-18.915,5.918-.937,28.44,16.785.656Z" transform="translate(-432.223 -2130.749)" fill="#eaeaea"/><path d="M429.009,2140.282c3.319-7.505,3.24-19.86,3.4-32.1.216-16.366-17.478-35.228-32.615-32.859-24.573,3.846,1.573,54.36,3.976,61.351" transform="translate(-389.346 -2060.901)" fill="#ffac00"/><path d="M408.73,2140.133c-1.961-3.549-4.215-14.165-6.348-23.029-.8-3.31-6.442,3.09-7.252,11.226-.5,5.047,11.829,33.894,12.748,36.571" transform="translate(-393.145 -2087.958)" fill="#ffac00"/><path d="M448.206,2122.786c-1.585-21.1-18.34-41.5-33.093-47.046-2.478-.932-.319-2.808,6.7-2.33C428.094,2073.863,453.539,2085.769,448.206,2122.786Z" transform="translate(-405.66 -2059.726)" fill="#fff4ba"/><path d="M462.028,2109.125c-2.821-17.7-9.678-26.867-25.392-35.567,6.124.442,30.592,8.14,26.859,42.848C463.4,2117.29,462.516,2112.185,462.028,2109.125Z" transform="translate(-420.482 -2059.874)" fill="#eaeaea"/><path d="M503.792,2248.85c.082-.744-.268-1.4-.783-1.452s-1,.5-1.08,1.246.267,1.395.782,1.451S503.709,2249.594,503.792,2248.85Z" transform="translate(-463.463 -2174.328)" fill="#ffd9a4"/><path d="M506.656,2223.006c.082-.745-.268-1.4-.782-1.452s-1,.5-1.08,1.246.267,1.4.782,1.452S506.573,2223.751,506.656,2223.006Z" transform="translate(-465.349 -2157.313)" fill="#ffd9a4"/><path d="M463.343,2079.018l3.659,1.169-1.362-3.922-.7-.354Z" transform="translate(-438.066 -2061.423)" fill="#03b4e9"/><path d="M486.76,2126.545l-1.308-7.141s2.693-22.437-13.736-33.263l.183-.57C485.416,2094.9,489.851,2111.4,486.76,2126.545Z" transform="translate(-443.579 -2067.783)" fill="#03b4e9"/><path d="M440.461,2068.487,426.1,2065.01l-1.747,2.9,13.672,5.181Z" transform="translate(-412.393 -2054.246)" fill="#fff"/></g><g transform="translate(1.971 49.79)"><path d="M428.044,2133.06c-1.045,3.552-32.681-16.517-32.928-28.576,0,0,7.243-17.958,20.517-4.843C415.633,2099.641,431.86,2120.083,428.044,2133.06Z" transform="translate(-395.116 -2094.848)" fill="#f8c471"/><path d="M464.963,2139.224c6.907-12.711-10.519-30.678-10.519-30.678h0C465.558,2122.674,464.675,2139.753,464.963,2139.224Z" transform="translate(-433.926 -2103.754)" fill="#fff4ba"/><path d="M578.157,2119.346l-3.11,4.132-4.855-6.068,4.718-1.866Z" transform="translate(-510.387 -2108.474)" fill="#eaeaea"/><path d="M480.861,2149s12.671-5.419,33.165-24.392c0,0-.287-3.084-4.935-5.849,0,0-23.156,6.927-33.48,16.863C475.61,2135.618,475.658,2147.479,480.861,2149Z" transform="translate(-448.114 -2110.588)" fill="#f8c471"/><path d="M568.017,2129.5a1.093,1.093,0,1,0-1.658-.357A1.212,1.212,0,0,0,568.017,2129.5Z" transform="translate(-507.799 -2116.297)" fill="#fff4ba"/></g><g transform="translate(5.656 0)"><path d="M412.129,1986.539c-6.992-8.347-6.382-22.119-6.044-22.6,3.6-5.155,13.765-4.711,18.891-3.327,4.322,1.166,7.717,3.558,5.573,6.93-.74,1.165-4.174-1.463-5.223-1.323-1.983.264-3.169,27.543-3.169,27.543Z" transform="translate(-405.903 -1959.696)" fill="#54ccca"/><g transform="translate(7.02 6.293)"><g transform="translate(2.155)"><path d="M479.556,2039.1l1.015-1.73-1.389-.851Z" transform="translate(-463.326 -2016.571)" fill="#ffd8a3"/><path d="M433.7,2002.015c.842,2.306,8.022,7.174,15.09,6.78.7-9.206.194-24.385-1.548-26.956-1.713-2.53-8.505-4.32-9.329-3.535,2.507,2.925-1.371,12.811-2.808,13.73C431.609,1994.275,432.825,1999.609,433.7,2002.015Z" transform="translate(-432.763 -1978.118)" fill="#ffd8a3"/><path d="M482.035,2023.266a65.222,65.222,0,0,1-3.567-7.723c-1.09-2.887-.621,7.761-.621,7.761S481.006,2024,482.035,2023.266Z" transform="translate(-462.381 -2002.432)" fill="#ffd8a3"/><path d="M477.306,2063.54c.71-.311,1.058-.991.776-1.52a1.4,1.4,0,0,0-1.8-.394c-.712.311-1.059.992-.777,1.52A1.4,1.4,0,0,0,477.306,2063.54Z" transform="translate(-460.841 -2032.999)" fill="#ffd8a3"/><path d="M480.027,2053.46c.022-.186-.188-.365-.471-.4s-.528.09-.551.276.189.365.47.4S480,2053.646,480.027,2053.46Z" transform="translate(-463.209 -2027.457)" fill="#ffd8a3"/></g><path d="M430.914,2015.5c-.412-1.67-1.716-2.839-2.914-2.611s-1.833,1.768-1.422,3.438,2.7,2.622,3.9,2.394S431.326,2017.174,430.914,2015.5Z" transform="translate(-426.453 -2000.995)" fill="#ffd8a3"/></g><path d="M476.443,2042.073l-.206,3.754s-1.048-.1-1.28-.565a13.148,13.148,0,0,1-.789-3.766Z" transform="translate(-450.845 -2013.554)" fill="#ffab00"/><path d="M476.994,2042.559l-.185,3.334s-.774-.062-.942-.271a9.361,9.361,0,0,1-.756-3.564Z" transform="translate(-451.463 -2013.924)" fill="#fff"/><path d="M470.595,2007.778a.91.91,0,0,0-.238-.6c-.382-.392-3.551.616-3.5,1.279l.03.415c.033.478.976-.038,1.925-.177.908-.133,1.825.129,1.809-.322Z" transform="translate(-446.032 -1990.901)" fill="#2d356b"/><path d="M471.839,2017.76c.013-.556-.282-1.043-.659-1.088s-.694.368-.708.924.281,1.043.659,1.088S471.825,2018.315,471.839,2017.76Z" transform="translate(-448.415 -1997.206)" fill="#2d356b"/><path d="M473.764,2041.2c.016-.129-.045-.242-.137-.253s-.177.085-.192.214.045.242.136.253S473.748,2041.328,473.764,2041.2Z" transform="translate(-450.365 -2013.191)" fill="#ffab00"/></g><g transform="translate(15.806 4.877)"><path d="M450.256,1976.755c-.13-.914-3.512-1.188-7.553-.613s-7.212,1.783-7.082,2.7,3.511,1.187,7.553.612S450.386,1977.668,450.256,1976.755Z" transform="translate(-435.618 -1975.203)" fill="#54ccca"/><path d="M455.754,1979.155c-3.688,3.573-8.5,4.389-12.318,4.442,0,0,8.63-1.578,11.472-4.771Z" transform="translate(-440.765 -1977.168)" fill="#54ccca"/><path d="M465.826,1977.339c-.7,3.73-3.663,4.968-6.339,5.392,0,0,5.262-2.33,5.566-5.618Z" transform="translate(-451.333 -1976.04)" fill="#54ccca"/><path d="M472.393,1973.972c.987,3.391-1.386,5.7-3.707,7.193,0,0,3.628-3.9,2.422-6.931Z" transform="translate(-457.39 -1973.972)" fill="#54ccca"/><path d="M451.256,1979.769c-4.061,3.146-8.929,3.425-12.734,3.054,0,0,8.752-.614,11.929-3.473Z" transform="translate(-437.53 -1977.513)" fill="#54ccca"/></g></g><g transform="translate(155.783 2048.469)"><path d="M750.127,1993c-2.136-9.132,13.685-18.169,19.684-14.242,0,0,15.212.255,10.078,25.7-.228,1.125-4.874.975-4.9,3.438s-.239,2.181-1.442,3.3-3.356-.577-3.887.248c-1.46,2.266,3.05,4.011,4.477,2.8,0,0-11.526,6.717-16.842-5.384C756.988,2008.159,750.689,1995.407,750.127,1993Z" transform="translate(-707.463 -1977.817)" fill="#fff4ba"/><g transform="translate(0 45.89)"><path d="M731.879,2100.971c-6.011-4.731-22.9,27.783-22.982,29.178,0,0,1.556,3.412,2.961,2.57C715.487,2130.543,734.565,2103.084,731.879,2100.971Z" transform="translate(-680.447 -2100.501)" fill="#495bd9"/><g transform="translate(0 27.887)"><path d="M630.467,2194.833c1.378,5.372,29.285-7.784,30.106-8.634,0,0,1.643-3.746-1.079-4.05C655.923,2181.752,629.851,2192.43,630.467,2194.833Z" transform="translate(-628.801 -2182.138)" fill="#495bd9"/><path d="M625.61,2208.357l.4-1.651,5.919-2.561s-.085,3-.5,3.61S625.61,2208.357,625.61,2208.357Z" transform="translate(-625.61 -2196.628)" fill="#fffdfd"/><path d="M625.631,2216.361l.307,1.654,5.729,2.765s.074-2.982-.31-3.6S625.631,2216.361,625.631,2216.361Z" transform="translate(-625.624 -2204.671)" fill="#fffdfd"/></g></g><g transform="translate(34.647 29.877)"><path d="M784.318,2048.727l-6.517,3.63-1.853,13.58,5.166-1.565Z" transform="translate(-759.24 -2048.727)" fill="#f6cda2"/><path d="M727.036,2150.979c12.668,8.526,17.783,5.846,25.4,5.914.73-10.779-5-18.492-4.7-26.037.55-13.986,13.3-29.776,3.8-36.614-10.082-7.26-24.112,23.067-24.112,23.067C737.557,2123.731,732.346,2134.5,727.036,2150.979Z" transform="translate(-727.036 -2077.955)" fill="#7b88ac"/><path d="M776.775,2092.013l-1.821-.312-8.6,7.277,2.318,2.177S774.464,2095.837,776.775,2092.013Z" transform="translate(-752.922 -2077.021)" fill="#fff"/><path d="M755.8,2100.637l-.11-.091c2.39-4.2,7.466-10.558,12.008-9.892C763.349,2094.142,755.8,2100.637,755.8,2100.637Z" transform="translate(-745.903 -2076.301)" fill="#f6cda2"/></g><g transform="translate(23.988 36.758)"><path d="M723.211,2121.116c.425-.5.635-1.032.856-.842a1.2,1.2,0,0,1-.156,1.418,1.217,1.217,0,0,1-1.386.38C722.307,2121.883,722.786,2121.612,723.211,2121.116Z" transform="translate(-713.372 -2105.961)" fill="#f8c471"/><path d="M718.643,2119.147a2.976,2.976,0,0,1-.02.629c2.46-.605,1.932,1.488-.166,1.98a3.066,3.066,0,0,1-.817.084,3.766,3.766,0,0,1-1.029.75,4.65,4.65,0,0,0,1.754-.091C721.874,2121.678,722.274,2118.379,718.643,2119.147Z" transform="translate(-709.514 -2105.169)" fill="#cfd0d8"/><path d="M722.558,2119.146c0,.067.005.12.007.171.872-.023,1.748-.112,2.025.565a1.561,1.561,0,0,1-.4,1.735C725.759,2120.374,725.354,2118.554,722.558,2119.146Z" transform="translate(-713.429 -2105.169)" fill="#cfd0d8"/><rect width="1.297" height="4.42" transform="translate(2.407 18.738) rotate(-86.98)" fill="#cfd0d8"/><path d="M706.889,2090.03c-1.811-.5-4.683-1.455-1.736-3.311s3.152-6.18-1.042-8.269c2.336.847,6.885,2.806,5.524,6.732-.613,1.771-4.729.744-5.1,3.086C704.414,2088.991,706.889,2090.03,706.889,2090.03Z" transform="translate(-701.135 -2078.45)" fill="#fff4ba" opacity="0.4"/><path d="M695.842,2115.713c-.117,2.207,1.1,5.575,4.267,5.708,4.51.19,5.188-3.526,5.374-5.2A56.377,56.377,0,0,0,695.842,2115.713Z" transform="translate(-695.834 -2102.969)" fill="#cfd0d8"/><path d="M700.551,2121.422c-3.158-.133-4.374-3.48-4.267-5.687-.149,0-.29,0-.441.007-.117,2.207,1.1,5.575,4.267,5.708a6.733,6.733,0,0,0,.993-.028C700.924,2121.429,700.742,2121.43,700.551,2121.422Z" transform="translate(-695.834 -2102.999)" fill="#cfd0d8"/><path d="M702.619,2116.924c-.1,1.837.645,4.631,2.671,4.71,2.883.11,3.352-2.99,3.489-4.386A27.678,27.678,0,0,0,702.619,2116.924Z" transform="translate(-700.296 -2103.753)" fill="#cfd0d8"/><path d="M705.75,2116.76c.013-.253-2-.564-4.5-.7s-4.537-.035-4.549.219,2,.562,4.5.694S705.737,2117.01,705.75,2116.76Z" transform="translate(-696.405 -2103.176)" fill="#fff"/><path d="M706.032,2116.867a33.932,33.932,0,0,0-8.466-.447,34.314,34.314,0,0,0,8.466.447Z" transform="translate(-696.974 -2103.368)" fill="#9999a5"/><path d="M727.671,2132.442c.66-.411,1.171-.86,1.034-1.2s-.782-.285-1.442.125-1.082,1.021-.945,1.361S727.012,2132.853,727.671,2132.442Z" transform="translate(-715.888 -2113.061)" fill="#f8c471"/><path d="M724.785,2128.028c.887-.094,1.6-.407,1.638-.045s-.6,1.076-1.493,1.173-1.684-.467-1.724-.827S723.9,2128.123,724.785,2128.028Z" transform="translate(-713.855 -2110.951)" fill="#f8c471"/><g transform="translate(9.163 15.048)"><path d="M737.885,2134.019c-1.793-1.173-7.052-.748-6.677-2.579.333-1.639,3.3-3.778,7.523,1.151Z" transform="translate(-728.275 -2127.136)" fill="#ffd9a4"/><path d="M733.552,2129.07c-.408,2.932-3.979,2.424-5.068,2-1.194-.463-1.493-2.774-.81-3.532S733.707,2127.949,733.552,2129.07Z" transform="translate(-725.724 -2125.661)" fill="#ffd9a4"/><path d="M724.5,2125.661c-1.392-.547-1.993-1.152-1.8-1.506s.961.008,2.351.553,3.3.891,3.109,1.245S725.889,2126.2,724.5,2125.661Z" transform="translate(-722.658 -2123.498)" fill="#ffd9a4"/><path d="M725.049,2130.7c-1.5-.262-2.084-1.074-1.974-1.45s1.433.191,2.936.453,2.463.511,2.351.888S726.552,2130.962,725.049,2130.7Z" transform="translate(-722.924 -2126.864)" fill="#ffd9a4"/><path d="M728.188,2136.567c-1.5-.278-2.272-.772-2.162-1.148s1.064-.006,2.561.272,2.544.492,2.434.868S729.689,2136.844,728.188,2136.567Z" transform="translate(-724.869 -2130.901)" fill="#ffd9a4"/><path d="M736.089,2125.129c-.973-1.446-.634-2.483.017-2.626.224-.047,3.547,3.1,2.943,3.841C738.623,2126.865,737.066,2126.581,736.089,2125.129Z" transform="translate(-731.101 -2122.502)" fill="#ffd9a4"/></g><path d="M729.863,2118.192c-.5-.514-.644-1.189-1.131-.886-.388.241-.144,1.023.368,1.528.945.928,2.721,2.658,2.754.5C731.859,2118.948,730.4,2118.742,729.863,2118.192Z" transform="translate(-717.368 -2103.983)" fill="#f8c471"/></g><g transform="translate(40.66 46.269)"><path d="M749.818,2142.479c-4.3,3.336,10.487,22.95,11.586,23.372,0,0,3.935-1.294,3.4-2.571C763.4,2159.977,751.739,2140.991,749.818,2142.479Z" transform="translate(-747.535 -2128.819)" fill="#495bd9"/><path d="M787.074,2102.735c6.622-2.087.212,34.6-1.736,35.25,0,0-3.527-1.244-4.143-2.9C779.335,2130.073,784.116,2103.666,787.074,2102.735Z" transform="translate(-768.432 -2102.65)" fill="#495bd9"/><path d="M747.816,2137.394l1.506-.489,5.009,3.834s-2.418,1.449-3.113,1.393S747.816,2137.394,747.816,2137.394Z" transform="translate(-746.731 -2125.203)" fill="#fff"/><path d="M745.812,2138.12l-1.173,1.12.706,6.466s2.434-1.473,2.74-2.129S745.812,2138.12,745.812,2138.12Z" transform="translate(-744.639 -2126.003)" fill="#fff"/></g><g transform="translate(43.927 2.521)"><g transform="translate(0 2.528)"><path d="M762.273,2022.184c-1.21.029-3.523-6.17-4.283-10.949-.251-1.575,1.447-1.8,1.212-7.192-.138-3.165,1.219-7.582,6.445-10.852,4.934-3.088,5.54,6.728,6.023,8.987,1.376,6.436,3.124,10.456,1.54,13.624C770.118,2021.989,763.572,2021.841,762.273,2022.184Z" transform="translate(-756.68 -1992.596)" fill="#ffd8a3"/><path d="M769.7,2054.049a.278.278,0,0,0-.259-.3.294.294,0,0,0-.234.327.279.279,0,0,0,.26.3A.292.292,0,0,0,769.7,2054.049Z" transform="translate(-764.082 -2032.861)" fill="#ffab00"/><path d="M768.052,2028.454c-.049-.85-.563-1.5-1.145-1.459s-1.018.767-.969,1.617.563,1.5,1.146,1.459S768.1,2029.3,768.052,2028.454Z" transform="translate(-761.927 -2015.243)" fill="#2d356b"/><path d="M767.421,2028.378c-.847-1.157-2.042-2.3-4.249-1.47A8.137,8.137,0,0,1,767.421,2028.378Z" transform="translate(-760.108 -2014.999)" fill="#2d356b"/><path d="M763.5,2064.65c-.041-.2-.631.517-.919.549-.813.089-.555,1.122.253.95C763.149,2066.082,763.54,2064.858,763.5,2064.65Z" transform="translate(-759.391 -2040.014)" fill="#f36973"/><path d="M763,2054.234c.546-.232-3.2-1.216-2.5.03A5.848,5.848,0,0,0,763,2054.234Z" transform="translate(-758.294 -2032.792)" fill="#f36973"/><path d="M762.757,2015.084a4.961,4.961,0,0,1,6.051,2.976C767.145,2015.892,765.876,2015.1,762.757,2015.084Z" transform="translate(-759.835 -2007.286)" fill="#2d356b"/><path d="M755.073,2038.981l1.885.528-.047-4.783-2.709,3.47Z" transform="translate(-754.203 -2020.335)" fill="#ffd8a3"/><path d="M757.465,2049.431l-1.526-2.926,1.4-.084Z" transform="translate(-755.346 -2028.035)" fill="#ffd8a3"/><path d="M761.075,2058.936a35.35,35.35,0,0,1-1.023-4.128l3.381-.081S762.847,2058.322,761.075,2058.936Z" transform="translate(-758.054 -2033.503)" fill="#ffab00"/><path d="M762.851,2057.067l-1.926.046q-.186-.778-.348-1.625l2.763-.066Z" transform="translate(-758.4 -2033.961)" fill="#fff"/><path d="M806.235,2034.837c-.111-1.473-.636-2.548.481-2.631s2.117,1.046,2.229,2.521-.707,2.735-1.827,2.818S806.345,2036.312,806.235,2034.837Z" transform="translate(-788.316 -2018.673)" fill="#f7c371"/></g><path d="M775.731,1985.2c.85,3.5,3.414,12.325,8.373,14.018,0,0,2.942-7.769-1.69-10.639C776.565,1984.954,775.731,1985.2,775.731,1985.2Z" transform="translate(-768.377 -1985.197)" fill="#fff4ba"/></g></g><path d="M370.768,2219.835l159.966-3.3-3.809,28.837-153.889-7.021Z" transform="translate(-312.042 -80.866)" fill="#cfd0d8"/><path d="M366.252,2209.465H534.368l-2.448,8.632-164.034-2.876Z" transform="translate(-309.068 -77.397)" fill="#fff4ba"/><g transform="translate(57.184 2131.855)"><path d="M534.368,2209.465H366.252l.919,3.238H533.453Z" transform="translate(-366.252 -2209.465)" fill="#fff4ba" opacity="0.6" style="mix-blend-mode:overlay;isolation:isolate"/></g><path d="M621.031,2196.7h37.047l-4.638,4.638H626.309Z" transform="translate(-469.853 -69.371)" fill="#9999a5"/><path d="M474.055,2196.7H511.1l-4.638,4.638H479.333Z" transform="translate(-377.099 -69.371)" fill="#9999a5"/><text transform="translate(114.073 2151.342)" fill="#2d356b" font-size="10" font-family="TrebuchetMS-Bold, Trebuchet MS" font-weight="700"><tspan x="0" y="0">Sundays</tspan></text></g></svg>