<svg xmlns="http://www.w3.org/2000/svg" width="166.854" height="139.894" viewBox="0 0 166.854 139.894"><g transform="translate(-41 -1857.37)"><g transform="translate(127.624 1857.37)"><g transform="translate(0)"><g transform="translate(0 16.537)"><path d="M701.381,1586.194c0,2.41-.526,4.361-1.18,4.361H622.331c-.655,0-1.18-1.951-1.18-4.361V1474.266c0-2.4.526-4.353,1.18-4.353H700.2c.655,0,1.18,1.953,1.18,4.353Z" transform="translate(-621.151 -1467.198)" fill="#40558e"/><path d="M702.117,1568.721c-.049.19-11.005,16.015-11.005,16.129H623.833c-.646,0-1.171-1.959-1.171-4.369V1468.569c0-2.409.525-4.346,1.171-4.346h77.119c.646,0,1.165,1.938,1.165,4.346Z" transform="translate(-621.941 -1464.223)" fill="#fff"/><g transform="translate(68.989 104.498)"><path d="M767.678,1683.264h9.289l-11.207,16.38v-13.922A2.239,2.239,0,0,1,767.678,1683.264Z" transform="translate(-765.76 -1683.264)" fill="#2d356b"/></g></g><path d="M701.356,1464.1v-22.788c0-1.141-.532-2.068-1.184-2.068H622.33c-.654,0-1.179.927-1.179,2.068V1464.1Z" transform="translate(-621.151 -1434.626)" fill="#2d356b"/><g transform="translate(5.846)"><path d="M635.557,1435.389a1.137,1.137,0,0,1-1.037,1.2h-.074a1.137,1.137,0,0,1-1.041-1.2v-4.627a1.136,1.136,0,0,1,1.041-1.2h.074a1.136,1.136,0,0,1,1.037,1.2Z" transform="translate(-633.404 -1429.56)" fill="#fff4ba"/><g transform="translate(6.637)"><path d="M649.469,1435.389a1.137,1.137,0,0,1-1.039,1.2h-.077a1.136,1.136,0,0,1-1.037-1.2v-4.627a1.135,1.135,0,0,1,1.037-1.2h.077a1.136,1.136,0,0,1,1.039,1.2Z" transform="translate(-647.316 -1429.56)" fill="#fff4ba"/></g><g transform="translate(13.275)"><path d="M663.38,1435.389a1.134,1.134,0,0,1-1.039,1.2h-.07a1.134,1.134,0,0,1-1.041-1.2v-4.627a1.134,1.134,0,0,1,1.041-1.2h.07a1.134,1.134,0,0,1,1.039,1.2Z" transform="translate(-661.229 -1429.56)" fill="#fff4ba"/></g><g transform="translate(19.908)"><path d="M677.288,1435.389a1.137,1.137,0,0,1-1.037,1.2h-.079a1.137,1.137,0,0,1-1.039-1.2v-4.627a1.136,1.136,0,0,1,1.039-1.2h.079a1.136,1.136,0,0,1,1.037,1.2Z" transform="translate(-675.133 -1429.56)" fill="#fff4ba"/></g><g transform="translate(26.545)"><path d="M691.2,1435.389a1.134,1.134,0,0,1-1.037,1.2h-.076a1.136,1.136,0,0,1-1.038-1.2v-4.627a1.135,1.135,0,0,1,1.038-1.2h.076a1.133,1.133,0,0,1,1.037,1.2Z" transform="translate(-689.045 -1429.56)" fill="#fff4ba"/></g><g transform="translate(33.183)"><path d="M705.109,1435.389a1.137,1.137,0,0,1-1.035,1.2H704a1.134,1.134,0,0,1-1.035-1.2v-4.627a1.133,1.133,0,0,1,1.035-1.2h.078a1.136,1.136,0,0,1,1.035,1.2Z" transform="translate(-702.96 -1429.56)" fill="#fff4ba"/></g><g transform="translate(39.819)"><path d="M719.021,1435.389a1.14,1.14,0,0,1-1.039,1.2H717.9a1.131,1.131,0,0,1-1.035-1.2v-4.627a1.13,1.13,0,0,1,1.035-1.2h.078a1.139,1.139,0,0,1,1.039,1.2Z" transform="translate(-716.869 -1429.56)" fill="#fff4ba"/></g><g transform="translate(46.454)"><path d="M732.925,1435.389a1.134,1.134,0,0,1-1.039,1.2h-.07a1.134,1.134,0,0,1-1.039-1.2v-4.627a1.133,1.133,0,0,1,1.039-1.2h.07a1.133,1.133,0,0,1,1.039,1.2Z" transform="translate(-730.777 -1429.56)" fill="#fff4ba"/></g><g transform="translate(53.089)"><path d="M746.834,1435.389a1.134,1.134,0,0,1-1.039,1.2h-.074a1.137,1.137,0,0,1-1.036-1.2v-4.627a1.136,1.136,0,0,1,1.036-1.2h.074a1.134,1.134,0,0,1,1.039,1.2Z" transform="translate(-744.685 -1429.56)" fill="#fff4ba"/></g><g transform="translate(59.72)"><path d="M760.737,1435.389a1.134,1.134,0,0,1-1.035,1.2h-.078a1.14,1.14,0,0,1-1.04-1.2v-4.627a1.14,1.14,0,0,1,1.04-1.2h.078a1.133,1.133,0,0,1,1.035,1.2Z" transform="translate(-758.584 -1429.56)" fill="#fff4ba"/></g><g transform="translate(66.36)"><path d="M774.655,1435.389a1.137,1.137,0,0,1-1.04,1.2h-.074a1.134,1.134,0,0,1-1.039-1.2v-4.627a1.133,1.133,0,0,1,1.039-1.2h.074a1.136,1.136,0,0,1,1.04,1.2Z" transform="translate(-772.502 -1429.56)" fill="#fff4ba"/></g></g></g><g transform="translate(6.269 44.015)"><line x2="67.611" transform="translate(0 11.527)" fill="#7b88ac" stroke="#7b88ac" stroke-miterlimit="10" stroke-width="0.75"/><line x2="67.611" fill="#7b88ac" stroke="#7b88ac" stroke-miterlimit="10" stroke-width="0.75"/><line x2="67.611" transform="translate(0 23.053)" fill="#7b88ac" stroke="#7b88ac" stroke-miterlimit="10" stroke-width="0.75"/><line x2="67.611" transform="translate(0.495 34.58)" fill="#7b88ac" stroke="#7b88ac" stroke-miterlimit="10" stroke-width="0.75"/><line x2="67.611" transform="translate(0.495 46.106)" fill="#7b88ac" stroke="#7b88ac" stroke-miterlimit="10" stroke-width="0.75"/><line x2="67.611" transform="translate(0.495 57.633)" fill="#7b88ac" stroke="#7b88ac" stroke-miterlimit="10" stroke-width="0.75"/><line x2="67.611" transform="translate(0.495 69.159)" fill="#7b88ac" stroke="#7b88ac" stroke-miterlimit="10" stroke-width="0.75"/></g><rect width="56.4" height="15.801" transform="translate(13.885 44.522)" fill="#fff4ba"/><rect width="56.4" height="5.263" transform="translate(13.885 72.79)" fill="#ffe200" opacity="0.5"/><rect width="56.4" height="10.357" transform="translate(13.885 79.135)" fill="#54ccca" opacity="0.5"/><rect width="56.4" height="5.222" transform="translate(13.885 102.188)" fill="#f8c471"/><rect width="56.4" height="5.222" transform="translate(13.885 107.411)" fill="#ffb2b0" opacity="0.5"/><text transform="translate(15.866 47.246)" fill="#2d356b" font-size="2" font-family="TrebuchetMS-Bold, Trebuchet MS" font-weight="700"><tspan x="0" y="0">Meeting with Sales</tspan></text><text transform="translate(15.866 75.129)" fill="#2d356b" font-size="2" font-family="TrebuchetMS-Bold, Trebuchet MS" font-weight="700"><tspan x="0" y="0">Meeting</tspan></text><rect width="56.4" height="5.263" transform="translate(13.885 67.068)" fill="#9ea9fc" opacity="0.5"/><text transform="translate(15.866 69.761)" fill="#2d356b" font-size="2" font-family="TrebuchetMS-Bold, Trebuchet MS" font-weight="700"><tspan x="0" y="0">Meeting with IT</tspan></text><rect width="56.4" height="5.263" transform="translate(13.885 60.449)" fill="#cfd0d8" opacity="0.5"/><text transform="translate(16.482 62.788)" fill="#2d356b" font-size="2" font-family="TrebuchetMS-Bold, Trebuchet MS" font-weight="700"><tspan x="0" y="0">Meeting</tspan></text><rect width="56.4" height="5.263" transform="translate(13.885 96.385)" fill="#c3e8e6" opacity="0.5"/><text transform="translate(15.866 98.628)" fill="#2d356b" font-size="2" font-family="TrebuchetMS-Bold, Trebuchet MS" font-weight="700"><tspan x="0" y="0">Meeting</tspan></text><text transform="translate(15.866 81.39)" fill="#2d356b" font-size="2" font-family="TrebuchetMS-Bold, Trebuchet MS" font-weight="700"><tspan x="0" y="0">Meeting with HR</tspan></text><text transform="translate(15.866 104.52)" fill="#2d356b" font-size="2" font-family="TrebuchetMS-Bold, Trebuchet MS" font-weight="700"><tspan x="0" y="0">Meeting with Accounting</tspan></text><text transform="translate(15.866 109.651)" fill="#2d356b" font-size="2" font-family="TrebuchetMS-Bold, Trebuchet MS" font-weight="700"><tspan x="0" y="0">Meeting with Marketing</tspan></text><text transform="translate(1.344 19.512)" fill="#fff" font-size="11" font-family="TrebuchetMS-Bold, Trebuchet MS" font-weight="700"><tspan x="0" y="0" xml:space="preserve">   Mondays</tspan></text></g><g transform="translate(41 1857.37)"><g transform="translate(76.351 45.241)"><path d="M525.227,1596.589c3.5-.557,2.3-29.381-4.23-47.8,0,0-12.7,6.978-16.2,13.176C504.8,1561.963,514.419,1598.307,525.227,1596.589Z" transform="translate(-504.798 -1545.829)" fill="#7b88ac"/><path d="M513.109,1582.136c2.707,12.545,5.682,25.573,12.507,24.862a.824.824,0,0,1-.389.2c-10.808,1.718-20.429-34.626-20.429-34.626,1.2-2.125,3.769-4.551,6.629-6.818A69.678,69.678,0,0,0,513.109,1582.136Z" transform="translate(-504.798 -1556.435)" fill="#7b88ac"/><g transform="translate(39.943)"><path d="M613.84,1570.4c1.795-3.107,10.211-6.419,8.145-8.889-1.849-2.213-8.14-3.2-10.607,7.381Z" transform="translate(-611.377 -1552.888)" fill="#ffd9a4"/><path d="M617.488,1558.837c3.013,4.1,8.077.656,9.4-.793,1.458-1.593.037-5.294-1.631-5.919S616.338,1557.27,617.488,1558.837Z" transform="translate(-615.121 -1547.886)" fill="#ffd9a4"/><path d="M622.342,1547.162c.318-2.908-.771-6.416-1.915-6.264-1.293.168.222,3.026-.719,5.553-1.019,2.741-1.506,4.519-.427,4.981S622.027,1550.075,622.342,1547.162Z" transform="translate(-615.938 -1540.893)" fill="#ffd9a4"/><path d="M632.418,1544.647c1.69-1.867,2.12-3.23,1.543-3.618s-1.466.735-3.157,2.6-4.329,3.815-3.753,4.207S630.724,1546.508,632.418,1544.647Z" transform="translate(-621.126 -1540.929)" fill="#ffd9a4"/><path d="M639.759,1549.526c2.094-1.523,3.181-3.753,2.705-4.236s-2.041,1.366-4.132,2.888-3.363,2.619-2.885,3.1S637.666,1551.045,639.759,1549.526Z" transform="translate(-626.363 -1543.594)" fill="#ffd9a4"/><path d="M639.827,1559.256c2.027-1.6,2.77-2.95,2.28-3.418s-1.611.834-3.634,2.436-3.419,2.751-2.929,3.224S637.8,1560.857,639.827,1559.256Z" transform="translate(-626.425 -1550.177)" fill="#ffd9a4"/></g><path d="M607.1,1574.7l-3.787,3.186,5.724,3.78,1.653-4.413Z" transform="translate(-566.39 -1562.029)" fill="#eaeaea"/><path d="M550.331,1614.62s-3.568-13.423,20.393-34.358a11.3,11.3,0,0,1,6.8,4.729s-5.079,15.255-12.874,25.657C562.562,1613.431,552.238,1619.446,550.331,1614.62Z" transform="translate(-533.149 -1565.508)" fill="#7b88ac"/><g transform="translate(19.124 14.754)"><path d="M576.509,1581.045c-3.664,2.745-8.327,7.805-13.283,12.918a53.872,53.872,0,0,0-7.4,9.447c2.469-5.84,7.675-13.734,18.451-23.149A8.274,8.274,0,0,1,576.509,1581.045Z" transform="translate(-555.826 -1580.262)" fill="#9ea9fc"/></g></g><path d="M463.724,1523.61c-1.981-2.093-14.177-2.391-16.813,0l-.068,2.689h16.813Z" transform="translate(-392.212 -1483.794)" fill="#fff"/><rect width="11.208" height="7.05" transform="translate(57.023 113.363)" fill="#eaeaea"/><path d="M389.1,1621.946s-15.558-61.073-18.508-82.884c0,0,28.854-21.935,66.477-3.386,0,0-8.079,74.649-9.972,85.44-7.615-2.962-12.973-7.321-18.455-16.01C401.232,1615.367,395.506,1621.147,389.1,1621.946Z" transform="translate(-344.536 -1487.733)" fill="#9ea9fc"/><path d="M430.287,1580.951s-31.217-21.581-18.738-50.1c0,0,18.225-8.024,36.94-.119C453.649,1555.228,442.093,1571.008,430.287,1580.951Z" transform="translate(-368.304 -1487.119)" fill="#7b87ab"/><path d="M446.31,1585.258s-17.976-21.8-10.068-50.609c0,0,14.393-1.076,22.56-.12C461.708,1559.276,453.62,1575.216,446.31,1585.258Z" transform="translate(-384.327 -1491.426)" fill="#eaeaea"/><path d="M462.171,1509.937H449.3l-1.927,11.8c7.008,3.653,11.1,3.256,16.562-.8Z" transform="translate(-392.541 -1476.297)" fill="#f7c371"/><path d="M459.544,1548.007l3.133,2.092,3.653-2.391-2.092-3.048-2.439-.06Z" transform="translate(-400.153 -1497.969)" fill="#ffac00"/><path d="M436.865,1529.661l3.92-3.19c1.154,3.3,3.189,5.2,8.039,6.615,0,0-3.9,5.914-5.685,5.759S436.865,1529.661,436.865,1529.661Z" transform="translate(-385.973 -1486.635)" fill="#fff"/><path d="M481.232,1529.585l-4-3.169c-1.5,3.227-3.639,5.175-8.873,6.687,0,0,3.774,5.925,5.672,5.759S481.232,1529.585,481.232,1529.585Z" transform="translate(-405.664 -1486.601)" fill="#fff"/><path d="M462.738,1556.775l-1.271.238-2.875,38.454,2.883,3.948,2.993-3.948Z" transform="translate(-399.558 -1505.582)" fill="#ffac00"/><path d="M469.413,1711.009a1.491,1.491,0,1,0-1.491,1.491A1.491,1.491,0,0,0,469.413,1711.009Z" transform="translate(-404.458 -1601.08)" fill="#7b87ab"/><path d="M469.413,1685.358a1.491,1.491,0,1,0-1.491,1.491A1.492,1.492,0,0,0,469.413,1685.358Z" transform="translate(-404.458 -1585.043)" fill="#7b87ab"/><g transform="translate(0 51.22)"><path d="M407.748,1765.674c.31-.572-.6-1.263-1.735-1.88s-2.052-.922-2.363-.35.356,1.532,1.488,2.148S407.438,1766.245,407.748,1765.674Z" transform="translate(-365.16 -1685.828)" fill="#f7c371"/><path d="M404.136,1768.906c.31-.571-.6-1.263-1.735-1.878s-2.051-.924-2.363-.351.356,1.532,1.489,2.149S403.826,1769.478,404.136,1768.906Z" transform="translate(-362.901 -1687.849)" fill="#f7c371"/><path d="M412.067,1759.833c-.5-.417-1.707.757-2.933,2.217s-2.006,2.653-1.507,3.072,1.895-.427,3.121-1.889S412.564,1760.251,412.067,1759.833Z" transform="translate(-367.598 -1683.706)" fill="#ffd8a3"/><path d="M392.535,1742.561c2.369,1.43,10.148,5.323,8.912,8.136-1.107,2.517-5.821,3.876-10.75-6.213Z" transform="translate(-357.108 -1672.96)" fill="#ffd8a3"/><path d="M383.681,1738.583l-4.788-3.063,6.245-5.828,2.439,5.014Z" transform="translate(-349.728 -1664.914)" fill="#eaeaea"/><path d="M301.787,1595.442c-4.066-.156,9.848-19.288,25.486-38.595,0,0,6.052,8.574,4.611,18.7C331.883,1575.544,316.836,1596.019,301.787,1595.442Z" transform="translate(-301.072 -1556.847)" fill="#7b88ac"/><path d="M301.634,1646.771s7,13.434,29.5,34.308c0,0,4.141-1.337,6.783-6.661,0,0-13.625-23-21.746-34.463C316.171,1639.955,302.862,1640.943,301.634,1646.771Z" transform="translate(-301.423 -1608.808)" fill="#7b88ac"/><path d="M376.448,1729.536a1.2,1.2,0,1,0,.251-1.846A1.332,1.332,0,0,0,376.448,1729.536Z" transform="translate(-348.043 -1663.573)" fill="#9ea9fc"/></g><g transform="translate(48.635)"><path d="M439.773,1424.038c.108-3.7,5.247-4.192,9.724-3.7,0,0-.472.729,3.837,1.283,4.43.57,1.568,4.734,5.533,2.953,0,0,3.143,2.206-.205,15.867h0l-21.2,5.084c-.7-5.457-4.779-16.777-.913-20.326" transform="translate(-433.385 -1420.177)" fill="#2d356b"/><path d="M441.349,1459.66c-.933-7.837-.28-24.72,4.291-27.426s10.97-2.1,13.06.559c5.5,7,3.825,21.175,3.358,26.958Z" transform="translate(-437.184 -1426.618)" fill="#2d356b"/><g transform="translate(0 3.315)"><path d="M494,1470.523c.233-2.445,1.325-3.768,2.407-3.768s1.744,1.322,1.511,3.768-2.019,3.578-3.1,3.578S493.767,1472.967,494,1470.523Z" transform="translate(-470.248 -1452.615)" fill="#f7c371"/><path d="M434.972,1470.9c-.162-2.445-1.263-3.768-2.4-3.768s-1.871,1.323-1.708,3.768a3.573,3.573,0,0,0,3.131,3.579C435.132,1474.475,435.135,1473.34,434.972,1470.9Z" transform="translate(-430.845 -1452.847)" fill="#f7c371"/><g transform="translate(2.461)"><path d="M437.493,1460.623c.162,1.126,5.323,5.986,11.2,5.986a15.5,15.5,0,0,0,11.766-6.225c1.021-1.8-3.1-24.661-5.495-26.576s-12.068-.65-12.888.359C440.127,1436.562,436.855,1456.194,437.493,1460.623Z" transform="translate(-437.411 -1431.393)" fill="#ffd8a3"/><path d="M463.506,1431.6c-.421-2-2.922-2.574-6.612-2.574s-6.682,1.14-6.682,2.544,2.992,2.544,6.682,2.544S463.795,1432.98,463.506,1431.6Z" transform="translate(-445.415 -1429.023)" fill="#ffd8a3"/><path d="M443.645,1443.173c.847.35,4.191-7.065,4.891-8.305s.581-2.529-.265-2.879-2.1.372-2.8,1.612S442.8,1442.823,443.645,1443.173Z" transform="translate(-441.179 -1430.822)" fill="#ffd8a3"/><path d="M482.928,1442.09c.89-.258-1.462-7.783-1.98-9.088s-1.658-2.151-2.548-1.894-1.193,1.526-.677,2.829S482.037,1442.349,482.928,1442.09Z" transform="translate(-462.458 -1430.298)" fill="#ffd8a3"/></g><g transform="translate(8.972 23.055)"><path d="M456.132,1491.8s.707,4.161,1.4,4.371a18.835,18.835,0,0,0,5.863.1c.777-.171,1.6-4.744,1.6-4.744Z" transform="translate(-455.627 -1491.157)" fill="#ffab00"/><path d="M464.87,1492.177l-8.136.209,1.048,3.96c.913.276,5.5.414,6.138,0Z" transform="translate(-456.003 -1491.564)" fill="#fff"/><path d="M479.857,1490.678c-.061-.142-.291-.18-.517-.085s-.359.287-.3.43.292.18.517.086S479.917,1490.82,479.857,1490.678Z" transform="translate(-469.941 -1490.54)" fill="#ffab00"/><path d="M455.648,1491.962c.039-.149-.122-.321-.358-.383s-.46.008-.5.159.121.32.357.383S455.608,1492.112,455.648,1491.962Z" transform="translate(-454.784 -1491.176)" fill="#ffab00"/></g><path d="M451.381,1457.039a.9.9,0,0,0-.422-.631c-.609-.372-5.13,1.363-4.98,2.1l.095.464c.108.531,1.425-.227,2.8-.563,1.314-.322,2.691-.2,2.612-.7Z" transform="translate(-440.305 -1446.113)" fill="#2d356b"/><path d="M474.678,1457.6a.887.887,0,0,1,.356-.675c.579-.438,5.422.772,5.358,1.522l-.041.472c-.046.541-1.488-.063-2.937-.241-1.386-.17-2.782.108-2.763-.4Z" transform="translate(-458.233 -1446.411)" fill="#2d356b"/><path d="M462.7,1470.729a4.184,4.184,0,0,0,1.89,1.014,2.509,2.509,0,0,0,1.888-1.119c.084-.674-1.294-8.185-1.783-8.255S462.662,1469.75,462.7,1470.729Z" transform="translate(-450.759 -1449.872)" fill="#ffab00"/><path d="M464.934,1469.918c0,.171.782.443,1.058.443.47,0,1.039-.251,1.058-.558.046-.74.422-9.129-1-9.049C464.495,1460.84,464.914,1468.845,464.934,1469.918Z" transform="translate(-452.117 -1448.862)" fill="#ffd8a3"/><path d="M454.959,1467.767c0-.644-.356-1.166-.788-1.166s-.778.523-.774,1.166.357,1.166.789,1.166S454.963,1468.411,454.959,1467.767Z" transform="translate(-444.945 -1452.517)" fill="#2d356b"/><path d="M481.469,1467.767c0-.644-.357-1.166-.788-1.166s-.777.523-.773,1.166.356,1.166.788,1.166S481.473,1468.411,481.469,1467.767Z" transform="translate(-461.52 -1452.517)" fill="#2d356b"/></g><g transform="translate(13.466 2.197)"><path d="M466.776,1426.038c1.632.606,6.436,3.358,3.4,4.664,0,0,5.784-.186,1.4-4.058Z" transform="translate(-466.776 -1426.038)" fill="#2d356b"/><path d="M476.443,1428.652c1.466,1.034,4.5,3.186,1.969,4.664,0,0,4.3-.2,1.448-4.411Z" transform="translate(-472.82 -1427.672)" fill="#2d356b"/></g></g></g></g></svg>