<svg xmlns="http://www.w3.org/2000/svg" width="178.898" height="123.779" viewBox="0 0 178.898 123.779">
  <g id="Group_8955" data-name="Group 8955" transform="translate(0.607 0.527)">
    <g id="Group_8954" data-name="Group 8954" transform="translate(0 0)">
      <path id="Path_11074" data-name="Path 11074" d="M662.443,3268.349a52.827,52.827,0,0,1,11.242-3.715c20.931-4.517,42.206,5.891,49.512,18.43,3.964,6.8,2.525,13.983-2.961,19.851,21.48.2,38.647,7.328,38.637,16.192-.01,8.345-15.239,15.321-34.947,16.476,6.159,11.164-1.412,22.85-17.127,26.241-11.19,2.415-23.528-.019-32.151-5.6-2.153,4.721-6.7,8.317-13.2,9.719-13.4,2.892-30.016-4.635-37.111-16.812a26.31,26.31,0,0,1-1.358-2.663c-16.4,1.343-33.143-5.121-39.407-15.87-7.1-12.177,1.948-25.241,20.2-29.179q.89-.193,1.788-.35a35.192,35.192,0,0,1-4.022-5.54c-8.917-15.3-1.228-30.928,17.175-34.9C633.187,3257.5,651.6,3258.615,662.443,3268.349Z" transform="translate(-581.152 -3259.071)" fill="#ebebeb" stroke="#d0d2d3" stroke-miterlimit="10" stroke-width="1"/>
      <g id="Group_8953" data-name="Group 8953" transform="translate(147.844 76.521)">
        <ellipse id="Ellipse_423" data-name="Ellipse 423" cx="14.801" cy="13.672" rx="14.801" ry="13.672" transform="translate(0 0.368) rotate(-0.712)" fill="#ebebeb" stroke="#d0d2d3" stroke-miterlimit="10" stroke-width="1"/>
        <ellipse id="Ellipse_424" data-name="Ellipse 424" cx="5.83" cy="5.063" rx="5.83" ry="5.063" transform="translate(13.715 31.525) rotate(-13.361)" fill="#ebebeb" stroke="#d0d2d3" stroke-miterlimit="10" stroke-width="1"/>
        <ellipse id="Ellipse_425" data-name="Ellipse 425" cx="2.797" cy="2.516" rx="2.797" ry="2.516" transform="translate(12.9 41.191) rotate(-1.014)" fill="#ebebeb" stroke="#d0d2d3" stroke-miterlimit="10" stroke-width="1"/>
      </g>
    </g>
    <text id="THIS_WEEK" data-name="THIS WEEK" transform="translate(27.521 61.393) rotate(-0.298)" fill="#2d356b" font-size="18" font-family="TrebuchetMS-Bold, Trebuchet MS" font-weight="700"><tspan x="0" y="0">THIS WEEK</tspan></text>
  </g>
</svg>
