<svg xmlns="http://www.w3.org/2000/svg" width="541.431" height="379.502" viewBox="0 0 541.431 379.502">
  <g id="Group_8949" data-name="Group 8949" transform="translate(0 0)">
    <g id="Group_8948" data-name="Group 8948" transform="translate(0 0)">
      <g id="Group_8947" data-name="Group 8947">
        <g id="Group_8946" data-name="Group 8946">
          <g id="Group_8945" data-name="Group 8945">
            <g id="Group_8942" data-name="Group 8942" transform="translate(0.474)">
              <g id="Group_8938" data-name="Group 8938" transform="translate(0.109)">
                <path id="Path_11489" data-name="Path 11489" d="M1015.012,327.4h.641V315.1H474.805V572.209h540.2V546.383h.006Z" transform="translate(-474.805 -314.738)" fill="#fff"/>
                <rect id="Rectangle_2940" data-name="Rectangle 2940" width="540.265" height="0.719" transform="translate(0 257.112)" fill="#a0bacb"/>
                <rect id="Rectangle_2941" data-name="Rectangle 2941" width="540.848" height="0.719" fill="#7b88ac"/>
              </g>
              <g id="Group_8939" data-name="Group 8939" transform="translate(0 52.536)">
                <path id="Path_11490" data-name="Path 11490" d="M554.624,458.553v-.188h-6.963v.188H475.689V615.307h147.8V458.553Zm62.75,5.033v34.469h-62.75V463.587ZM547.662,504v65.852H481.809V504Zm6.963,65.852V504h62.75v65.852Zm-6.963-106.27v34.469H481.809V463.587ZM481.809,575.8h65.853v34.469H481.809Zm72.816,34.469V575.8h62.75v34.469Z" transform="translate(-475.252 -458.006)" fill="#ebebeb"/>
                <path id="Path_11491" data-name="Path 11491" d="M623.191,615.046H474.513V457.574h71.972v-.189h7.837v.189h68.869Zm-147.8-.719h146.93V458.293H553.449V458.1H547.36v.189H475.387Zm141.685-4.314H553.449V574.825h63.624Zm-62.75-.719H616.2v-33.75H554.322Zm-6.963.719H480.632V574.825H547.36Zm-65.853-.719h64.979v-33.75H481.507Zm135.566-39.7H553.449V503.024h63.624Zm-62.75-.719H616.2V503.743H554.322Zm-6.963.719H480.632V503.024H547.36Zm-65.853-.719h64.979V503.743H481.507Zm135.566-71.082H553.449V462.606h63.624Zm-62.75-.719H616.2v-33.75H554.322Zm-6.963.719H480.632V462.606H547.36Zm-65.853-.719h64.979v-33.75H481.507Z" transform="translate(-474.513 -457.385)" fill="#ebebeb"/>
              </g>
              <g id="Group_8940" data-name="Group 8940" transform="translate(225.082 51.608)">
                <path id="Path_11492" data-name="Path 11492" d="M1074.275,456.024v-.188h-6.387v.188h-66.015V612.778h135.57V456.024Zm57.555,5.033v34.469h-57.555V461.058Zm-63.943,40.417v65.853h-60.4V501.475Zm6.387,65.853V501.475h57.555v65.853Zm-6.387-106.27v34.469h-60.4V461.058Zm-60.4,112.218h60.4v34.469h-60.4Zm66.789,34.469V573.276h57.555v34.469Z" transform="translate(-1001.472 -455.476)" fill="#ebebeb"/>
                <path id="Path_11493" data-name="Path 11493" d="M1137.166,612.516H1000.794V455.044h66.015v-.189H1074v.189h63.169ZM1001.6,611.8h134.768V455.763H1073.2v-.188h-5.584v.188H1001.6Zm129.957-4.314H1073.2V572.295h58.358ZM1074,606.764h56.754v-33.75H1074Zm-6.386.719h-61.2V572.295h61.2Zm-60.4-.719h59.6v-33.75h-59.6Zm124.344-39.7H1073.2V500.494h58.358ZM1074,566.347h56.754V501.213H1074Zm-6.386.719h-61.2V500.494h61.2Zm-60.4-.719h59.6V501.213h-59.6Zm124.344-71.081H1073.2V460.077h58.358ZM1074,494.546h56.754V460.8H1074Zm-6.386.719h-61.2V460.077h61.2Zm-60.4-.719h59.6V460.8h-59.6Z" transform="translate(-1000.794 -454.855)" fill="#ebebeb"/>
              </g>
              <g id="Group_8941" data-name="Group 8941" transform="translate(423.708 52.536)">
                <path id="Path_11494" data-name="Path 11494" d="M1589.375,610.274h-37.3V575.8h37.3v-5.948h-37.3V504h37.3v-5.948h-37.3V463.587h37.3v-5.033h-37.3v-.188h-6.963v.188h-71.973V615.307h116.233Zm-44.261,0h-65.853V575.8h65.853Zm0-40.417h-65.853V504h65.853Zm0-71.8h-65.853V463.587h65.853Z" transform="translate(-1472.705 -458.006)" fill="#ebebeb"/>
                <path id="Path_11495" data-name="Path 11495" d="M1684.387,812.836h37.735v-.719h-36.861v-33.75h36.861v-.719h-37.735Z" transform="translate(-1605.452 -660.208)" fill="#ebebeb"/>
                <path id="Path_11496" data-name="Path 11496" d="M1684.387,648.416h37.735V647.7h-36.861V582.563h36.861v-.719h-37.735Z" transform="translate(-1605.452 -536.205)" fill="#ebebeb"/>
                <path id="Path_11497" data-name="Path 11497" d="M1684.387,506.813h37.735v-.719h-36.861v-33.75h36.861v-.719h-37.735Z" transform="translate(-1605.452 -466.403)" fill="#ebebeb"/>
                <path id="Path_11498" data-name="Path 11498" d="M1555.161,471.624h-66.727v35.188h66.727Zm-.874,34.469h-64.979v-33.75h64.979Z" transform="translate(-1482.315 -466.402)" fill="#ebebeb"/>
                <path id="Path_11499" data-name="Path 11499" d="M1588.637,614.327h-115.8V458.292h71.972V458.1h6.088v.189h37.736v-.719h-36.861v-.189h-7.837v.189h-71.972V615.046h116.67Z" transform="translate(-1471.967 -457.385)" fill="#ebebeb"/>
                <path id="Path_11500" data-name="Path 11500" d="M1488.434,812.836h66.727V777.647h-66.727Zm.874-34.469h64.979v33.75h-64.979Z" transform="translate(-1482.315 -660.207)" fill="#ebebeb"/>
                <path id="Path_11501" data-name="Path 11501" d="M1555.161,581.844h-66.727v66.572h66.727Zm-.874,65.853h-64.979V582.563h64.979Z" transform="translate(-1482.315 -536.205)" fill="#ebebeb"/>
              </g>
            </g>
            <g id="Group_8943" data-name="Group 8943" transform="translate(0 255.345)">
              <path id="Path_11502" data-name="Path 11502" d="M1014.085,932.672h-540.2v88.216h-.646v35.636h540.842V936.43h.006Z" transform="translate(-473.237 -932.366)" fill="#f9f9f9"/>
              <rect id="Rectangle_2942" data-name="Rectangle 2942" width="539.25" height="0.515" transform="translate(1.743 123.447)" fill="#f9f9f9"/>
              <rect id="Rectangle_2943" data-name="Rectangle 2943" width="540.27" height="0.515" transform="translate(0.583)" fill="#f9f9f9"/>
            </g>
            <g id="Group_8944" data-name="Group 8944" transform="translate(29.578 4.533)">
              <path id="Path_11503" data-name="Path 11503" d="M1369.89,403.4V326.478h-1.868V403.4c-5.822.392-10.4,4.4-10.4,9.285,0,5.15,5.075,9.324,11.335,9.324s11.335-4.175,11.335-9.324C1380.292,407.8,1375.713,403.792,1369.89,403.4Z" transform="translate(-1017.452 -326.478)" fill="#ffb2b0"/>
              <path id="Path_11504" data-name="Path 11504" d="M565.1,419.97V343.047h-1.868V419.97c-5.823.392-10.4,4.395-10.4,9.285,0,5.149,5.075,9.324,11.336,9.324S575.5,434.4,575.5,429.255C575.5,424.364,570.924,420.361,565.1,419.97Z" transform="translate(-552.832 -336.971)" fill="#ffb2b0"/>
              <path id="Path_11505" data-name="Path 11505" d="M848.077,415.634V359.709h-1.358v55.925c-4.233.285-7.562,3.2-7.562,6.75,0,3.744,3.69,6.779,8.241,6.779s8.241-3.035,8.241-6.779C855.64,418.829,852.311,415.918,848.077,415.634Z" transform="translate(-718.363 -347.523)" fill="#ffb2b0"/>
              <path id="Path_11506" data-name="Path 11506" d="M1617.014,415.634V359.709h-1.358v55.925c-4.233.285-7.562,3.2-7.562,6.75,0,3.744,3.69,6.779,8.241,6.779s8.242-3.035,8.242-6.779C1624.577,418.829,1621.247,415.918,1617.014,415.634Z" transform="translate(-1162.904 -347.523)" fill="#ffb2b0"/>
            </g>
          </g>
        </g>
      </g>
    </g>
  </g>
  <g id="Group_8959" data-name="Group 8959" transform="translate(371.547 186.127)">
    <g id="Group_8953" data-name="Group 8953" transform="translate(10.687 0)">
      <path id="Path_11511" data-name="Path 11511" d="M1406.419,804.541s-.885-5.875-1.285-7.167c-.517-1.669-.771-4.155.652-5.619s1.639-4.906,1.639-5.433.534-8.428,6.406-7.258c0,0,2.432.585,1.246,4.8,0,0-1.246,2.517.326,4.1a6.356,6.356,0,0,1,0,8.721c-2.936,3.512-2.1,4.8-1.631,6.146,2.139,6.147-2.412,11.791-2.906,13.3s-1.087,3.978-.592,5.4l-1.727.032Z" transform="translate(-1404.724 -778.946)" fill="#ebebeb"/>
    </g>
    <g id="Group_8954" data-name="Group 8954" transform="translate(14.956 5.948)">
      <path id="Path_11512" data-name="Path 11512" d="M1416.684,832.055a.261.261,0,0,0,.256-.309c-.66-3.171.5-8.822.51-8.878.639-2.405.824-5.478-.234-13.314a29.7,29.7,0,0,1,.322-10.279,17.024,17.024,0,0,1,1.207-3.735.256.256,0,0,0-.115-.346.263.263,0,0,0-.351.113,17.161,17.161,0,0,0-1.246,3.836,30.187,30.187,0,0,0-.334,10.479c1.043,7.726.852,10.836.243,13.129-.052.249-1.195,5.824-.513,9.1A.26.26,0,0,0,1416.684,832.055Z" transform="translate(-1416.213 -795.166)" fill="#fff"/>
    </g>
    <g id="Group_8955" data-name="Group 8955" transform="translate(16.374 22.573)">
      <path id="Path_11513" data-name="Path 11513" d="M1422.07,860.664s0-1.385,2.881-2.7a4.776,4.776,0,0,0,2.881-3.426c.739-2.77,2.807-2.041,4.137-1.239s4.351,0,4.354-4.155a2.735,2.735,0,0,1,1.03-3.353c1.928-1.166,2.667-5.332-1.469-5.291s-8.034,2.058-12.041,7.915c-5.568,8.139-3.4,12.246-3.4,12.246Z" transform="translate(-1420.026 -840.503)" fill="#ebebeb"/>
    </g>
    <g id="Group_8956" data-name="Group 8956" transform="translate(16.866 25.492)">
      <path id="Path_11514" data-name="Path 11514" d="M1421.8,865.964a.265.265,0,0,0,.08-.012.262.262,0,0,0,.168-.324,6.163,6.163,0,0,1-.016-2.719.263.263,0,0,0,.02-.052c2.234-8.32,13.249-13.849,13.36-13.9a.256.256,0,0,0,.116-.346.263.263,0,0,0-.35-.115c-.113.056-11.316,5.68-13.624,14.209a6.01,6.01,0,0,0,0,3.086A.256.256,0,0,0,1421.8,865.964Z" transform="translate(-1421.35 -848.465)" fill="#fff"/>
    </g>
    <g id="Group_8957" data-name="Group 8957" transform="translate(0 10.235)">
      <path id="Path_11515" data-name="Path 11515" d="M1388.315,839.233a5.059,5.059,0,0,1-2.432-5.092c.594-3.395-2.49-4.155-3.2-4.272s-5.338-1.99-4.626-8.838c0,0,.237-4.39-.594-5.97s-2.906-6.321,0-7.785,4.923,1.17,5.991,3.863c0,0,.831,3.1,1.542,3.863s5.872,5.209,5.457,14.457l-1.01,9.775Z" transform="translate(-1375.964 -806.856)" fill="#ebebeb"/>
    </g>
    <g id="Group_8958" data-name="Group 8958" transform="translate(4.142 15.619)">
      <path id="Path_11516" data-name="Path 11516" d="M1395.793,848.788a.259.259,0,0,0,.26-.248c.3-7.873-3.159-18.139-5.144-21.1a52.587,52.587,0,0,1-3.3-5.749.262.262,0,0,0-.347-.123.256.256,0,0,0-.125.343,53.215,53.215,0,0,0,3.34,5.813c1.951,2.918,5.354,13.032,5.058,20.8a.259.259,0,0,0,.251.267Z" transform="translate(-1387.11 -821.539)" fill="#fff"/>
    </g>
  </g>
  <g id="Group_8976" data-name="Group 8976" transform="translate(57.77 173.075)">
    <g id="Group_8975" data-name="Group 8975" transform="translate(0 0)">
      <g id="Group_8974" data-name="Group 8974">
        <g id="Group_8964" data-name="Group 8964" transform="translate(27.636 43.708)">
          <g id="Group_8962" data-name="Group 8962" transform="translate(28.27 24.562)">
            <path id="Path_11518" data-name="Path 11518" d="M780.08,942c1.932-1.275,7.641-.876,7.215-2.832-.381-1.752-3.62-4.01-8.149,1.312Z" transform="translate(-779.146 -932.621)" fill="#f8c471"/>
            <path id="Path_11519" data-name="Path 11519" d="M786.749,936.8c.474,3.135,4.343,2.551,5.518,2.09,1.291-.508,1.592-2.987.842-3.79S786.57,935.6,786.749,936.8Z" transform="translate(-783.921 -931.159)" fill="#f8c471"/>
            <path id="Path_11520" data-name="Path 11520" d="M791.325,928.86c1.042-1.56,1.474-3.838.785-4.061-.776-.254-.773,1.773-2.054,2.949-1.384,1.276-2.187,2.149-1.717,2.7S790.283,930.423,791.325,928.86Z" transform="translate(-784.838 -924.777)" fill="#f8c471"/>
            <path id="Path_11521" data-name="Path 11521" d="M799.306,932.5c1.5-.6,2.15-1.255,1.942-1.63s-1.043.019-2.546.616-3.565.991-3.358,1.367S797.8,933.1,799.306,932.5Z" transform="translate(-789.316 -928.544)" fill="#f8c471"/>
            <path id="Path_11522" data-name="Path 11522" d="M802.446,937.438c1.628-.3,2.9-1.263,2.777-1.665s-1.552.221-3.179.517-2.666.573-2.541.975S800.819,937.734,802.446,937.438Z" transform="translate(-791.933 -931.658)" fill="#f8c471"/>
            <path id="Path_11523" data-name="Path 11523" d="M799.72,942.852c1.613-.36,2.431-.92,2.3-1.318s-1.152.038-2.764.4-2.737.634-2.6,1.032S798.107,943.212,799.72,942.852Z" transform="translate(-790.139 -935.289)" fill="#f8c471"/>
          </g>
          <g id="Group_8963" data-name="Group 8963">
            <path id="Path_11524" data-name="Path 11524" d="M707.577,857.806c-6.048-.743-4.446,35.235-3.914,36.4,0,0,3.3.789,3.884-.606C709.068,890,710.278,858.138,707.577,857.806Z" transform="translate(-703.069 -857.794)" fill="#54ccca"/>
            <path id="Path_11525" data-name="Path 11525" d="M732.079,944.962c1.264,4.558-25.178,6.7-26.158,6.42,0,0-2.064-2.957-1.031-3.557C707.563,946.274,731.515,942.926,732.079,944.962Z" transform="translate(-704.032 -912.593)" fill="#54ccca"/>
            <path id="Path_11526" data-name="Path 11526" d="M771.894,943.458l-.762-1.234-5.541-.533a11.183,11.183,0,0,0,1.368,2.8C767.466,944.872,771.894,943.458,771.894,943.458Z" transform="translate(-742.359 -910.926)" fill="#eaeaea"/>
            <path id="Path_11527" data-name="Path 11527" d="M774.767,946.229l.189,1.441-4.035,3.792a11.174,11.174,0,0,1-.708-3.049C770.366,947.8,774.767,946.229,774.767,946.229Z" transform="translate(-745.251 -913.8)" fill="#eaeaea"/>
          </g>
        </g>
        <g id="Group_8970" data-name="Group 8970">
          <g id="Group_8969" data-name="Group 8969">
            <g id="Group_8965" data-name="Group 8965" transform="translate(0 1.291)">
              <path id="Path_11528" data-name="Path 11528" d="M672.036,798.382c5.969-4.924-2.758-6.739-2.019-11.361s1.661-3.079,2.852-9.027-.266-8.3-.123-11.8,2.937-9.061,1.241-13.628-3.04-3.16-4.546-6.807-3.476.07-6.542,1.415-5.807-7.312-11.22-4.483-5.415,9.359-7.241,12.887-7.077,4.622-8.369,11.077,2.49,5.253.5,9.63-6.514,3.672-7.807,10.129c0,0-1.113,6.49,6.3,6.7s4.805,3.938,13.02,2.01,4.994,4.857,10.843,2.643S666.705,802.781,672.036,798.382Z" transform="translate(-628.698 -742.122)" fill="#2d356b"/>
            </g>
            <g id="Group_8966" data-name="Group 8966" transform="translate(24.836 22.569)">
              <path id="Path_11529" data-name="Path 11529" d="M708.6,800.148l6.833,4.236,1.226,14.581-5.49-1.96Z" transform="translate(-703.742 -800.148)" fill="#f7c371"/>
              <path id="Path_11530" data-name="Path 11530" d="M721.424,913.908c-4.391-2.838-14.585-9.114-25.891-1.345,3.381-9.8,6.452-19.431,6.56-27.491.2-14.941-12.665-32.49-2.018-39.245,11.305-7.172,24.73,25.947,24.73,25.947C713.5,878.05,716.629,896.04,721.424,913.908Z" transform="translate(-695.534 -828.433)" fill="#029390"/>
              <path id="Path_11531" data-name="Path 11531" d="M709.854,843.521l1.986-.23,8.877,8.241-2.628,2.19S712.132,847.728,709.854,843.521Z" transform="translate(-704.533 -827.471)" fill="#fff"/>
              <path id="Path_11532" data-name="Path 11532" d="M728.216,853.656c.043-.03.082-.059.125-.089-2.343-4.613-7.463-11.677-12.406-11.223C720.434,846.306,728.216,853.656,728.216,853.656Z" transform="translate(-708.354 -826.858)" fill="#f7c371"/>
            </g>
            <g id="Group_8968" data-name="Group 8968" transform="translate(19.186)">
              <g id="Group_8967" data-name="Group 8967">
                <path id="Path_11533" data-name="Path 11533" d="M696.345,769.629c-3.525-1.343-10.708-3.216-13.672-8.968-3.854-7.478-2.249-11.707-.184-16.841,3.936-9.786,20.868-3.334,19.476-.474C700.116,747.144,709.119,774.5,696.345,769.629Z" transform="translate(-680.33 -738.602)" fill="#2d356b"/>
                <path id="Path_11534" data-name="Path 11534" d="M719.3,780.154c1.322.132,4.376-6.373,5.609-11.472.407-1.681-1.432-2.067-.721-7.87.417-3.407-.7-8.291-6.143-12.258-5.142-3.745-6.63,6.807-7.349,9.208-2.048,6.838-4.3,11.037-2.833,14.59C710.73,779.291,717.908,779.675,719.3,780.154Z" transform="translate(-697.338 -744.4)" fill="#ffd8a3"/>
                <path id="Path_11535" data-name="Path 11535" d="M741.257,810.829a.3.3,0,0,1,.309-.3.318.318,0,0,1,.229.373.3.3,0,0,1-.31.3A.317.317,0,0,1,741.257,810.829Z" transform="translate(-718.615 -784.153)" fill="#ffab00"/>
                <path id="Path_11536" data-name="Path 11536" d="M741.6,785.349c-.133-.913.278-1.717.914-1.8s1.263.6,1.4,1.508-.277,1.717-.914,1.8S741.731,786.262,741.6,785.349Z" transform="translate(-718.816 -767.065)" fill="#2d356b"/>
                <path id="Path_11537" data-name="Path 11537" d="M738.3,785.248c.658-1.411,1.7-2.885,4.251-2.477A8.958,8.958,0,0,0,738.3,785.248Z" transform="translate(-716.758 -766.53)" fill="#2d356b"/>
                <path id="Path_11538" data-name="Path 11538" d="M744.922,821.791c.061-.209.647.611.959.669.883.164.514,1.258-.357,1.005C745.184,823.366,744.858,822.012,744.922,821.791Z" transform="translate(-720.915 -791.264)" fill="#f36973"/>
                <path id="Path_11539" data-name="Path 11539" d="M743.79,811.463c-.578-.3,3.609-1.048,2.733.24A6.5,6.5,0,0,1,743.79,811.463Z" transform="translate(-720.174 -784.435)" fill="#f36973"/>
                <path id="Path_11540" data-name="Path 11540" d="M740.614,771.942a5.48,5.48,0,0,0-6.874,2.711C735.743,772.451,737.2,771.7,740.614,771.942Z" transform="translate(-713.893 -759.507)" fill="#2d356b"/>
                <path id="Path_11541" data-name="Path 11541" d="M752.261,796.736l-2.109.414.454-5.163,2.673,3.974Z" transform="translate(-724.207 -772.411)" fill="#ffd8a3"/>
                <path id="Path_11542" data-name="Path 11542" d="M751.526,807.158l1.917-3.034-1.53-.207Z" transform="translate(-725.069 -779.966)" fill="#ffd8a3"/>
                <path id="Path_11543" data-name="Path 11543" d="M744.188,816.253a37.905,37.905,0,0,0,1.467-4.375l-3.694-.368S742.3,815.443,744.188,816.253Z" transform="translate(-719.059 -784.775)" fill="#ffab00"/>
                <path id="Path_11544" data-name="Path 11544" d="M743.6,814.125l2.1.21c.179-.55.352-1.127.518-1.726l-3.019-.3Z" transform="translate(-719.836 -785.28)" fill="#fff"/>
                <path id="Path_11545" data-name="Path 11545" d="M701.089,788.756c.246-1.582.911-2.7-.3-2.882s-2.406.954-2.652,2.538.545,3.013,1.763,3.2S700.845,790.34,701.089,788.756Z" transform="translate(-691.489 -768.527)" fill="#f7c371"/>
              </g>
              <path id="Path_11546" data-name="Path 11546" d="M721.736,747.965c-4.472,5.4-12.136,13.182-11.343,21.588-2.542-9.119.19-20.675,6.584-24.907C717.509,745.589,722.819,745.849,721.736,747.965Z" transform="translate(-698.63 -742.43)" fill="#2d356b"/>
            </g>
          </g>
        </g>
        <g id="Group_8973" data-name="Group 8973" transform="translate(18.158 43.605)">
          <g id="Group_8971" data-name="Group 8971" transform="translate(32.93 37.229)">
            <path id="Path_11547" data-name="Path 11547" d="M766.212,969.924c2.7-.159,8.2,3.557,8.935,1.345.662-1.981-1.245-6.129-8.967-3.414Z" transform="translate(-766.18 -964.057)" fill="#ffd9a4"/>
            <path id="Path_11548" data-name="Path 11548" d="M776.913,967.077c-1.393,3.424,2.841,5.084,4.3,5.3,1.6.239,3.38-2.076,3.106-3.318S777.448,965.77,776.913,967.077Z" transform="translate(-772.75 -963.864)" fill="#ffd9a4"/>
            <path id="Path_11549" data-name="Path 11549" d="M783.084,962.81c1.977-.961,3.768-3,3.21-3.624-.628-.705-1.834,1.332-3.821,1.769-2.151.477-3.478.889-3.336,1.717S781.106,963.776,783.084,962.81Z" transform="translate(-774.315 -959.04)" fill="#ffd9a4"/>
            <path id="Path_11550" data-name="Path 11550" d="M792.357,970.9c1.868.27,2.908-.012,2.923-.51s-1.058-.587-2.924-.859-4.172-1.074-4.188-.577S790.491,970.62,792.357,970.9Z" transform="translate(-779.997 -965.215)" fill="#ffd9a4"/>
            <path id="Path_11551" data-name="Path 11551" d="M793.1,976.7c1.811.648,3.668.416,3.783-.06s-1.69-.679-3.5-1.327-3.02-.972-3.133-.5S791.291,976.055,793.1,976.7Z" transform="translate(-781.3 -968.89)" fill="#ffd9a4"/>
            <path id="Path_11552" data-name="Path 11552" d="M787.221,980.492c1.835.576,2.99.487,3.091.01s-1.179-.631-3.013-1.206-3.127-.952-3.229-.474S785.386,979.917,787.221,980.492Z" transform="translate(-777.419 -971.43)" fill="#ffd9a4"/>
          </g>
          <g id="Group_8972" data-name="Group 8972">
            <path id="Path_11553" data-name="Path 11553" d="M689.332,857.586c-6.791-2.027-12.128,39.561-11.75,41,0,0,3.624,1.545,4.577.059C684.623,894.808,692.364,858.491,689.332,857.586Z" transform="translate(-677.563 -857.514)" fill="#54ccca"/>
            <path id="Path_11554" data-name="Path 11554" d="M711.193,962.508c.073,5.5-30.355.284-31.375-.317,0,0-1.449-3.927-.107-4.305C683.182,956.909,711.161,960.051,711.193,962.508Z" transform="translate(-678.555 -920.964)" fill="#54ccca"/>
            <path id="Path_11555" data-name="Path 11555" d="M758.654,965.9l-.492-1.61-6.084-2.2s.256,2.964.712,3.545S758.654,965.9,758.654,965.9Z" transform="translate(-724.388 -923.741)" fill="#eaeaea"/>
            <path id="Path_11556" data-name="Path 11556" d="M759.705,972.147l-.215,1.678-5.67,3.108s-.249-2.993.106-3.639S759.705,972.147,759.705,972.147Z" transform="translate(-725.43 -930.112)" fill="#eaeaea"/>
          </g>
        </g>
      </g>
    </g>
  </g>
  <g id="Group_8961" data-name="Group 8961" transform="translate(18.536 215.923)">
    <rect id="Rectangle_2944" data-name="Rectangle 2944" width="68.225" height="38.612" rx="6.672" transform="translate(0)" fill="#fff" stroke="#231f20" stroke-miterlimit="10" stroke-width="0.25"/>
    <text id="Akiko" transform="translate(16.113 24.306)" fill="#2d356b" font-size="14" font-family="TrebuchetMS-Bold, Trebuchet MS" font-weight="700"><tspan x="0" y="0">Akiko</tspan></text>
  </g>
  <g id="Group_8984" data-name="Group 8984" transform="translate(174.632 195.117)">
    <g id="Group_8978" data-name="Group 8978" transform="translate(9.091 0)">
      <path id="Path_11557" data-name="Path 11557" d="M923.9,824.151s-.752-5-1.093-6.1c-.441-1.42-.656-3.535.555-4.779s1.394-4.174,1.394-4.622.454-7.169,5.449-6.174c0,0,2.069.5,1.059,4.083,0,0-1.059,2.141.278,3.485a5.407,5.407,0,0,1,0,7.419c-2.5,2.987-1.787,4.081-1.388,5.227,1.82,5.229-2.052,10.03-2.472,11.312s-.925,3.384-.5,4.594l-1.469.027Z" transform="translate(-922.458 -802.379)" fill="#ebebeb"/>
    </g>
    <g id="Group_8979" data-name="Group 8979" transform="translate(12.723 5.059)">
      <path id="Path_11558" data-name="Path 11558" d="M932.632,847.556a.229.229,0,0,0,.045,0,.219.219,0,0,0,.173-.258c-.561-2.7.424-7.5.434-7.553.543-2.046.7-4.66-.2-11.325a25.261,25.261,0,0,1,.274-8.745,14.594,14.594,0,0,1,1.026-3.176.217.217,0,0,0-.1-.295.223.223,0,0,0-.3.1,14.539,14.539,0,0,0-1.06,3.262,25.677,25.677,0,0,0-.284,8.914c.887,6.572.725,9.218.207,11.168-.045.212-1.017,4.954-.437,7.74A.221.221,0,0,0,932.632,847.556Z" transform="translate(-932.231 -816.177)" fill="#fff"/>
    </g>
    <g id="Group_8980" data-name="Group 8980" transform="translate(13.928 19.202)">
      <path id="Path_11559" data-name="Path 11559" d="M937.214,871.894s0-1.179,2.451-2.294a4.065,4.065,0,0,0,2.451-2.914c.628-2.357,2.388-1.736,3.519-1.054s3.7,0,3.7-3.535a2.327,2.327,0,0,1,.876-2.852c1.64-.992,2.269-4.536-1.25-4.5s-6.834,1.751-10.242,6.733c-4.737,6.924-2.893,10.418-2.893,10.418Z" transform="translate(-935.475 -854.743)" fill="#ebebeb"/>
    </g>
    <g id="Group_8981" data-name="Group 8981" transform="translate(14.347 21.685)">
      <path id="Path_11560" data-name="Path 11560" d="M936.982,876.4a.217.217,0,0,0,.068-.011.223.223,0,0,0,.143-.276,5.235,5.235,0,0,1-.014-2.313.247.247,0,0,0,.018-.044c1.9-7.078,11.27-11.781,11.364-11.828a.218.218,0,0,0,.1-.294.224.224,0,0,0-.3-.1c-.1.048-9.626,4.832-11.589,12.087a5.107,5.107,0,0,0,0,2.624A.217.217,0,0,0,936.982,876.4Z" transform="translate(-936.602 -861.516)" fill="#fff"/>
    </g>
    <g id="Group_8982" data-name="Group 8982" transform="translate(0 8.706)">
      <path id="Path_11561" data-name="Path 11561" d="M908.5,853.662a4.3,4.3,0,0,1-2.069-4.332,3.044,3.044,0,0,0-2.724-3.635c-.605-.1-4.541-1.693-3.935-7.518,0,0,.2-3.734-.5-5.079s-2.472-5.377,0-6.622,4.188,1,5.1,3.286a12.594,12.594,0,0,0,1.312,3.286,15.312,15.312,0,0,1,4.641,12.3l-.859,8.315Z" transform="translate(-897.993 -826.122)" fill="#ebebeb"/>
    </g>
    <g id="Group_8983" data-name="Group 8983" transform="translate(3.523 13.286)">
      <path id="Path_11562" data-name="Path 11562" d="M914.861,861.791a.221.221,0,0,0,.222-.211c.255-6.7-2.688-15.43-4.375-17.953a44.8,44.8,0,0,1-2.81-4.89.223.223,0,0,0-.3-.1.218.218,0,0,0-.106.292,45.132,45.132,0,0,0,2.841,4.944c1.66,2.482,4.554,11.086,4.3,17.7a.22.22,0,0,0,.214.227Z" transform="translate(-907.475 -838.611)" fill="#fff"/>
    </g>
  </g>
  <path id="Path_11563" data-name="Path 11563" d="M925.048,913.636h-9.515l-2.3-12.865h14.121Z" transform="translate(-732.903 -669.574)" fill="#ebebeb"/>
  <g id="Group_8988" data-name="Group 8988" transform="translate(33.732 236.863)">
    <g id="Group_8986" data-name="Group 8986" transform="translate(0 36.756)">
      <rect id="Rectangle_2945" data-name="Rectangle 2945" width="179.66" height="5.321" fill="#40558d"/>
      <rect id="Rectangle_2946" data-name="Rectangle 2946" width="166.899" height="95.628" transform="translate(6.142 2.053)" fill="#40558d"/>
      <rect id="Rectangle_2947" data-name="Rectangle 2947" width="51.789" height="95.628" transform="translate(6.142 2.053)" fill="#7b87ab"/>
      <rect id="Rectangle_2948" data-name="Rectangle 2948" width="179.66" height="6.926" transform="translate(0 2.053)" fill="#2d356b"/>
    </g>
    <g id="Group_8987" data-name="Group 8987" transform="translate(55.524)">
      <path id="Path_11564" data-name="Path 11564" d="M785.088,915.7h41.669a2.568,2.568,0,0,0,2.532-2.068l5.616-29.175a2.553,2.553,0,0,0-2.532-3.017H790.7a2.568,2.568,0,0,0-2.532,2.068l-5.616,29.174A2.553,2.553,0,0,0,785.088,915.7Z" transform="translate(-756.841 -881.436)" fill="#cfd0d8"/>
      <path id="Path_11565" data-name="Path 11565" d="M788.173,884.334a1.383,1.383,0,1,1,2.056.949l-5.616,29.175a1.383,1.383,0,1,1-2.056-.949Z" transform="translate(-756.841 -882.266)" fill="#ebebeb"/>
      <path id="Path_11566" data-name="Path 11566" d="M716.364,977.759h64.052a2.913,2.913,0,0,0,2.932-2.894H713.432A2.913,2.913,0,0,0,716.364,977.759Z" transform="translate(-713.432 -940.605)" fill="#9898a4"/>
      <path id="Path_11567" data-name="Path 11567" d="M713.432,974.865h26.962a3.134,3.134,0,0,1-3.328,2.894H716.76A3.134,3.134,0,0,1,713.432,974.865Z" transform="translate(-713.432 -940.605)" fill="#cfd0d8"/>
      <path id="Path_11736" data-name="Path 11736" d="M2.911,0A2.972,2.972,0,0,1,5.849,2.966,2.905,2.905,0,0,1,2.938,5.9,2.972,2.972,0,0,1,0,2.938,2.905,2.905,0,0,1,2.911,0Z" transform="translate(48.971 18.702) rotate(-67.5)" fill="#fff4ba"/>
    </g>
  </g>
  <g id="Group_8990" data-name="Group 8990" transform="translate(104.657 6.119)">
    <path id="Path_11568" data-name="Path 11568" d="M954.707,499.688c10.971,18.55,2.4,38.412-20.976,46-24.835,8.063-57.185-.707-73.234-19.6-12.491,10.2-31.576,18.005-53.5,20.665-40.408,4.9-75.136-9.516-77.568-32.208a25.644,25.644,0,0,1,2.307-13.359c-34.147,8.4-54.294-1.161-62.953-26.836-6.389-18.946,11.388-52.034,60.7-58.018,6.288-.763,12.451-1.243,18.425-1.462-.135-.627-1.919-4.2.6-10.375,10.97-26.862,50.111-30.8,91.018-24.917,34.445,4.955,51.73,22.445,59.789,38.224,0,0,97.667-29.335,115.58,32.963C1014.907,450.768,1034.79,505.714,954.707,499.688Z" transform="translate(-667.536 -377.213)" fill="#fff" stroke="#ebebeb" stroke-miterlimit="10" stroke-width="1"/>
    <path id="Path_11737" data-name="Path 11737" d="M10.34,0c5.715,0,10.351,4.956,10.354,11.061S16.069,22.113,10.354,22.11,0,17.154,0,11.048,4.626,0,10.34,0Z" transform="translate(37.764 120.655) rotate(-2.698)" fill="#fff" stroke="#ebebeb" stroke-width="1"/>
    <path id="Path_11738" data-name="Path 11738" d="M6.128,0a6.361,6.361,0,0,1,6.136,6.555A6.342,6.342,0,0,1,6.136,13.1,6.361,6.361,0,0,1,0,6.547,6.342,6.342,0,0,1,6.128,0Z" transform="translate(35.754 150.508) rotate(-2.698)" fill="#fff" stroke="#ebebeb" stroke-width="1"/>
    <path id="Path_11739" data-name="Path 11739" d="M5.241,0A5.441,5.441,0,0,1,10.49,5.607a5.425,5.425,0,0,1-5.241,5.6A5.441,5.441,0,0,1,0,5.6,5.425,5.425,0,0,1,5.241,0Z" transform="translate(17.811 164.089) rotate(-2.698)" fill="#fff" stroke="#ebebeb" stroke-width="1"/>
  </g>
  <g id="Group_8992" data-name="Group 8992" transform="translate(363.272 259.054)">
    <path id="Path_11569" data-name="Path 11569" d="M1410.115,961.741c-8.107,17.016-20.773,33.572-24.277,41.751s-6.08,20.787-18.605,50.245c-.31.729-1.988-.495-1.988-.495,11-29.476,11.854-46.731,13.039-49.114s9.221-44.339,10.566-58.864C1396.525,946.946,1410.115,961.741,1410.115,961.741Z" transform="translate(-1359.016 -944.05)" fill="#0080af"/>
    <path id="Path_11570" data-name="Path 11570" d="M1428.28,942.04s18.32-.229,23.094.048c6.2,13.558-4.151,28.263,7.1,70.552,3.25,12.214,7.511,21.315,11.059,45.158l-2.72.136c-2.924-21.637-8.657-33.462-13.432-44.346C1436.836,975.863,1427.271,969.114,1428.28,942.04Z" transform="translate(-1398.582 -941.951)" fill="#03b4e9"/>
    <path id="Path_11571" data-name="Path 11571" d="M1517.5,1256.291l9.467-.475s-.769-2.543-2.645-2.32S1517.5,1256.291,1517.5,1256.291Z" transform="translate(-1454.696 -1139.244)" fill="#9898a4"/>
    <path id="Path_11572" data-name="Path 11572" d="M1348.483,1239.679l7.938,3.272s.847-2.875-.8-3.39S1348.483,1239.679,1348.483,1239.679Z" transform="translate(-1348.483 -1130.3)" fill="#9898a4"/>
    <path id="Path_11573" data-name="Path 11573" d="M1430.4,945.432l21.75-.146-.026,2.178-21.75.146Z" transform="translate(-1399.942 -944.063)" fill="#cecfd7"/>
    <rect id="Rectangle_2949" data-name="Rectangle 2949" width="1.568" height="4.126" transform="translate(47.67 0.547) rotate(-0.381)" fill="#40558d"/>
    <rect id="Rectangle_2950" data-name="Rectangle 2950" width="1.567" height="4.126" transform="translate(42.799 0.791) rotate(-0.38)" fill="#40558d"/>
    <rect id="Rectangle_2951" data-name="Rectangle 2951" width="1.567" height="4.126" transform="translate(37.571 0.881) rotate(-0.38)" fill="#40558d"/>
    <rect id="Rectangle_2952" data-name="Rectangle 2952" width="1.568" height="4.126" transform="matrix(1, -0.007, 0.007, 1, 32.151, 0.636)" fill="#40558d"/>
  </g>
  <g id="Group_9004" data-name="Group 9004" transform="translate(348.785 151.603)">
    <g id="Group_9003" data-name="Group 9003" transform="translate(0 0)">
      <g id="Group_9002" data-name="Group 9002">
        <g id="Group_9001" data-name="Group 9001">
          <g id="Group_8994" data-name="Group 8994" transform="translate(34.829 26.521)">
            <path id="Path_11574" data-name="Path 11574" d="M1446.845,761.513l1.125.41.339,2.824-2.608.978Z" transform="translate(-1429.232 -746.749)" fill="#eaeaea"/>
            <path id="Path_11575" data-name="Path 11575" d="M1450.942,724.951l10.739-3.7.13,16.977-15.353,4.111Z" transform="translate(-1429.707 -721.251)" fill="#f7c371"/>
            <path id="Path_11576" data-name="Path 11576" d="M1407.15,864.687l20.045,6.493.576,29.885-17.876.444Z" transform="translate(-1405.006 -812.089)" fill="#eaeaea"/>
            <path id="Path_11577" data-name="Path 11577" d="M1441.653,849.314c-12.845-.561-27.694-5.529-34.019-20.185-3.422-7.932-3.155-20.907-3.146-33.769.012-17.193,19.821-39.392,35.2-34.037,21.375,7.443,6.76,35.064,4.1,42.373C1435.993,825.106,1441.23,844.51,1441.653,849.314Z" transform="translate(-1403.329 -746.113)" fill="#03b4e9"/>
            <path id="Path_11578" data-name="Path 11578" d="M1444.642,869.452c.282-5.64,3.226-22.924,14.261-41.993,2.14-3.7,4.7-14.817,7.1-24.1.9-3.465,6.812,3.339,7.553,11.9.459,5.308-3.509,12.192-4.527,14.99-7.8,21.41-2.56,40.815-2.136,45.619C1459.465,875.544,1451.373,873.742,1444.642,869.452Z" transform="translate(-1428.566 -772.668)" fill="#0080af"/>
            <path id="Path_11579" data-name="Path 11579" d="M1404.283,811.78c2-22.139,20.136-43.321,35.921-48.932,2.652-.943.381-2.945-7.1-2.545C1426.415,760.687,1399.155,772.821,1404.283,811.78Z" transform="translate(-1402.803 -745.95)" fill="#219ecc"/>
            <path id="Path_11580" data-name="Path 11580" d="M1405.423,797.38c3.265-18.55,10.7-28.078,27.555-36.987-6.524.375-32.683,8.1-29.223,44.613C1403.842,805.936,1404.859,800.587,1405.423,797.38Z" transform="translate(-1402.675 -746.04)" fill="#fff"/>
            <path id="Path_11581" data-name="Path 11581" d="M1411.239,931.071c-.076-.783.306-1.461.855-1.513s1.055.541,1.132,1.324-.305,1.461-.854,1.513S1411.317,931.854,1411.239,931.071Z" transform="translate(-1407.569 -853.17)" fill="#0080af"/>
            <path id="Path_11582" data-name="Path 11582" d="M1408.79,905.745c-.077-.783.306-1.461.854-1.513s1.055.54,1.131,1.324-.3,1.462-.853,1.513S1408.867,906.529,1408.79,905.745Z" transform="translate(-1406.03 -837.131)" fill="#0080af"/>
            <path id="Path_11583" data-name="Path 11583" d="M1450.024,765.554l-3.912,1.174,1.508-4.1.748-.362Z" transform="translate(-1429.49 -747.226)" fill="#ffd9a4"/>
            <path id="Path_11584" data-name="Path 11584" d="M1402.247,814.482l1.5-7.481s-2.534-23.606,15.114-34.737l-.187-.6C1404.147,781.266,1399.181,798.533,1402.247,814.482Z" transform="translate(-1401.38 -753.176)" fill="#ffd9a4"/>
            <path id="Path_11585" data-name="Path 11585" d="M1448.781,755.569l15.339-3.442,1.817,3.077-14.629,5.242Z" transform="translate(-1431.167 -740.805)" fill="#fff"/>
          </g>
          <g id="Group_8996" data-name="Group 8996" transform="translate(0 52.142)">
            <path id="Path_11586" data-name="Path 11586" d="M1460.6,837.325c2.984,2.542,20.574-41.637,15.975-46.2,0,0-18.366-.227-24.7,10.495C1451.873,801.617,1449.7,828.042,1460.6,837.325Z" transform="translate(-1398.17 -791.122)" fill="#03b4e9"/>
            <g id="Group_8995" data-name="Group 8995" transform="translate(0 32.112)">
              <path id="Path_11587" data-name="Path 11587" d="M1342.268,895.544c-3.452-.533-10.986,3.574-11.658.641-.6-2.628,2.368-7.729,11.957-3.3Z" transform="translate(-1322.032 -886.578)" fill="#ffd9a4"/>
              <path id="Path_11588" data-name="Path 11588" d="M1332.057,891.237c1.362,4.573-4.29,6.191-6.188,6.294-2.087.113-4.086-3.081-3.578-4.645S1331.533,889.49,1332.057,891.237Z" transform="translate(-1316.801 -886.187)" fill="#ffd9a4"/>
              <path id="Path_11589" data-name="Path 11589" d="M1326.073,883.9c-2.422-1.478-4.47-4.316-3.674-5.051.9-.831,2.191,1.936,4.692,2.74,2.707.876,4.361,1.568,4.075,2.615S1328.5,885.379,1326.073,883.9Z" transform="translate(-1316.809 -878.692)" fill="#ffd9a4"/>
              <path id="Path_11590" data-name="Path 11590" d="M1313.26,894.508c-2.436.119-3.737-.371-3.694-1.012s1.434-.625,3.867-.748,5.5-.873,5.457-.231S1315.694,894.381,1313.26,894.508Z" transform="translate(-1308.854 -887.285)" fill="#ffd9a4"/>
              <path id="Path_11591" data-name="Path 11591" d="M1312.511,901.856c-2.41.613-4.768.088-4.856-.538s2.259-.667,4.668-1.278,4-.882,4.091-.256S1314.919,901.243,1312.511,901.856Z" transform="translate(-1307.652 -891.823)" fill="#ffd9a4"/>
              <path id="Path_11592" data-name="Path 11592" d="M1320.5,907.458c-2.431.516-3.906.262-3.976-.365s1.6-.668,4.026-1.183,4.14-.844,4.21-.215S1322.928,906.942,1320.5,907.458Z" transform="translate(-1313.223 -895.575)" fill="#ffd9a4"/>
            </g>
            <path id="Path_11593" data-name="Path 11593" d="M1459.688,850.468c-13.513-7.289-8.838-32.211-8.838-32.211.545-.831.548-.861.548-.861C1449.606,836.2,1460.25,850.771,1459.688,850.468Z" transform="translate(-1397.146 -807.761)" fill="#0080af"/>
            <path id="Path_11594" data-name="Path 11594" d="M1349.331,894.618l5.166,1.877.842-8.122-5.3,1.04Z" transform="translate(-1333.843 -852.711)" fill="#eaeaea"/>
            <path id="Path_11595" data-name="Path 11595" d="M1401.67,890.55s-14.462,2.431-43.742-2.649c0,0-1.523-2.886,1.04-7.973,0,0,24.712-7.069,39.68-4.177C1398.648,875.75,1405.448,886.248,1401.67,890.55Z" transform="translate(-1338.963 -844.277)" fill="#03b4e9"/>
            <path id="Path_11596" data-name="Path 11596" d="M1368.579,895.419a1.151,1.151,0,1,1,1.277-1.259A1.29,1.29,0,0,1,1368.579,895.419Z" transform="translate(-1344.987 -855.752)" fill="#0080af"/>
            <path id="Path_11597" data-name="Path 11597" d="M1361.451,879.558c26.978-7.091,37.044-4.7,37.044-4.7.846,2.121,1.274,2.266,1.274,2.266A328.9,328.9,0,0,0,1361.451,879.558Z" transform="translate(-1341.446 -843.908)" fill="#0080af"/>
          </g>
          <g id="Group_9000" data-name="Group 9000" transform="translate(45.794)">
            <path id="Path_11598" data-name="Path 11598" d="M1461.827,677.206c7.566-8.664,7.12-23.14,6.768-23.651-3.759-5.467-14.581-5.149-20.058-3.771-4.618,1.162-8.266,3.625-6.035,7.2.771,1.234,4.465-1.476,5.579-1.314,2.106.306,2.966,28.977,2.966,28.977Z" transform="translate(-1437.763 -648.928)" fill="#2d356b"/>
            <g id="Group_8998" data-name="Group 8998" transform="translate(0 6.562)">
              <g id="Group_8997" data-name="Group 8997">
                <path id="Path_11599" data-name="Path 11599" d="M1438.844,726.28l-1.055-1.833,1.491-.873Z" transform="translate(-1435.225 -702.764)" fill="#ffd8a3"/>
                <path id="Path_11600" data-name="Path 11600" d="M1456.7,692c-.93,2.41-8.645,7.418-16.162,6.9-.607-9.68.155-25.615,2.047-28.29,1.861-2.632,9.117-4.413,9.982-3.576-2.712,3.036,1.269,13.476,2.785,14.463C1459.039,683.9,1457.666,689.483,1456.7,692Z" transform="translate(-1436.821 -666.822)" fill="#ffd8a3"/>
                <path id="Path_11601" data-name="Path 11601" d="M1430.888,711.142a68.082,68.082,0,0,0,3.911-8.059c1.2-3.016.547,8.161.547,8.161S1431.972,711.926,1430.888,711.142Z" transform="translate(-1430.888 -689.459)" fill="#ffd8a3"/>
                <path id="Path_11602" data-name="Path 11602" d="M1438.092,750.142c-.752-.337-1.112-1.057-.8-1.608a1.505,1.505,0,0,1,1.921-.387c.752.337,1.112,1.058.8,1.608A1.5,1.5,0,0,1,1438.092,750.142Z" transform="translate(-1434.841 -718.216)" fill="#ffd8a3"/>
                <path id="Path_11603" data-name="Path 11603" d="M1438.8,740.153c-.021-.2.205-.38.507-.412s.561.1.581.3-.2.38-.505.411S1438.823,740.349,1438.8,740.153Z" transform="translate(-1435.861 -712.999)" fill="#ffd8a3"/>
              </g>
              <path id="Path_11604" data-name="Path 11604" d="M1480.09,703.805c.463-1.748,1.869-2.957,3.14-2.7s1.925,1.884,1.463,3.632-2.913,2.715-4.183,2.458S1479.626,705.554,1480.09,703.805Z" transform="translate(-1461.529 -688.512)" fill="#ffd8a3"/>
            </g>
            <path id="Path_11605" data-name="Path 11605" d="M1440.09,729.083l.164,3.946s1.117-.088,1.371-.574a13.656,13.656,0,0,0,.9-3.944Z" transform="translate(-1436.67 -699.328)" fill="#ffab00"/>
            <path id="Path_11606" data-name="Path 11606" d="M1440.276,729.547l.147,3.5s.825-.053,1.007-.271a9.727,9.727,0,0,0,.858-3.732Z" transform="translate(-1436.787 -699.668)" fill="#fff"/>
            <path id="Path_11607" data-name="Path 11607" d="M1443.466,695.533a.952.952,0,0,1,.262-.626c.412-.406,3.771.7,3.712,1.395l-.038.436c-.042.5-1.038-.054-2.046-.214-.964-.154-1.944.108-1.921-.365Z" transform="translate(-1438.772 -677.991)" fill="#2d356b"/>
            <path id="Path_11608" data-name="Path 11608" d="M1446.634,705.378c-.005-.584.316-1.092.718-1.133s.733.4.74.981-.314,1.091-.717,1.133S1446.641,705.962,1446.634,705.378Z" transform="translate(-1440.783 -683.958)" fill="#2d356b"/>
            <path id="Path_11609" data-name="Path 11609" d="M1446.4,728.238c-.015-.136.052-.254.15-.264s.187.092.2.228-.051.253-.148.264S1446.419,728.374,1446.4,728.238Z" transform="translate(-1440.638 -698.987)" fill="#ffab00"/>
            <g id="Group_8999" data-name="Group 8999" transform="translate(4.007 1.592)">
              <path id="Path_11610" data-name="Path 11610" d="M1472.468,671.385c-3.263.2,1.688,14.8.023,15.833s-.045,2.237.829,1.919c2-.727,2.39-4.837,2.554-7.455C1476.057,678.768,1472.745,671.368,1472.468,671.385Z" transform="translate(-1460.308 -664.742)" fill="#2d356b"/>
              <path id="Path_11611" data-name="Path 11611" d="M1441.749,659.036c-.5-2.326,1.466-4.708,4.391-5.321s11.463-.935,11.963,1.389-7.224,6.419-10.151,7.031S1442.248,661.36,1441.749,659.036Z" transform="translate(-1441.671 -653.27)" fill="#2d356b"/>
            </g>
          </g>
        </g>
      </g>
      <g id="Group_8993" data-name="Group 8993" transform="translate(29.572 82.552)">
        <rect id="Rectangle_2953" data-name="Rectangle 2953" width="69.828" height="42.442" rx="6.672" fill="#fff" stroke="#231f20" stroke-miterlimit="10" stroke-width="0.25"/>
        <text id="Steve" transform="translate(16.914 26.221)" fill="#2d356b" font-size="14" font-family="TrebuchetMS-Bold, Trebuchet MS" font-weight="700"><tspan x="0" y="0">Steve</tspan></text>
      </g>
    </g>
  </g>
  <rect id="Rectangle_2954" data-name="Rectangle 2954" width="191.473" height="42.536" rx="6.672" transform="translate(0.475 0.726)" fill="#fff" stroke="#231f20" stroke-miterlimit="10" stroke-width="0.25"/>
  <text id="Morning" transform="translate(52.648 28.994)" fill="#2d356b" font-size="19" font-family="TrebuchetMS-Bold, Trebuchet MS" font-weight="700"><tspan x="0" y="0">Morning</tspan></text>
</svg>
