<svg id="Group_8689" data-name="Group 8689" xmlns="http://www.w3.org/2000/svg" width="169.012" height="101.849" viewBox="0 0 169.012 101.849">
  <g id="Group_8688" data-name="Group 8688" transform="translate(0 0)">
    <path id="Path_10747" data-name="Path 10747" d="M773.321,5024.584a18.28,18.28,0,0,1,.871,7.714c-1.372,13.348-17.14,23.1-35.219,21.794-9.807-.711-18.279-4.535-23.76-10.014-7.438,11.653-22.068,18.018-33.117,14.264-10.4-3.535-14-14.807-8.849-26.063-15.98-1.356-28.017-10.436-26.987-20.457.734-7.135,7.9-12.847,17.745-15.2-5.166-3.173-8.128-7.18-7.7-11.324.878-8.545,15.823-14.441,33.379-13.167q1.922.139,3.775.384c3.813-9.526,17.474-15.944,32.973-14.82,17.556,1.273,30.819,11.739,29.623,23.376q-.058.568-.162,1.125a74.82,74.82,0,0,1,8.253.145c22.064,1.6,38.973,12.41,37.767,24.145C800.964,5015.722,789.086,5022.774,773.321,5024.584Z" transform="translate(-632.961 -4957.571)" fill="#fff4ba"/>
    <g id="Group_8687" data-name="Group 8687" transform="translate(0 65.313)">
      <ellipse id="Ellipse_404" data-name="Ellipse 404" cx="10.319" cy="8.667" rx="10.319" ry="8.667" transform="translate(20.151)" fill="#fff4ba"/>
      <ellipse id="Ellipse_405" data-name="Ellipse 405" cx="6.115" cy="5.136" rx="6.115" ry="5.136" transform="translate(10.494 7.016)" fill="#fff4ba"/>
      <ellipse id="Ellipse_406" data-name="Ellipse 406" cx="5.23" cy="4.393" rx="5.23" ry="4.393" transform="translate(0 16.099)" fill="#fff4ba"/>
    </g>
  </g>
  <text id="Report" transform="translate(21.964 53.245) rotate(-20)" fill="#2d356b" font-size="20" font-family="TrebuchetMS-Bold, Trebuchet MS" font-weight="700"><tspan x="0" y="0">Report</tspan></text>
  <text id="Finish_" data-name="Finish?" transform="translate(81.512 59.486) rotate(11.604)" fill="#2d356b" font-size="20" font-family="TrebuchetMS-Bold, Trebuchet MS" font-weight="700"><tspan x="0" y="0">Finish?</tspan></text>
</svg>
