<svg xmlns="http://www.w3.org/2000/svg" width="541" height="374.923" viewBox="0 0 541 374.923">
  <g id="Group_9148" data-name="Group 9148" transform="translate(-552.43 -2553.914)">
    <g id="Group_9091" data-name="Group 9091" transform="translate(552.43 2555.189)">
      <g id="Group_9090" data-name="Group 9090">
        <g id="Group_9089" data-name="Group 9089">
          <g id="Group_9088" data-name="Group 9088">
            <g id="Group_9087" data-name="Group 9087">
              <g id="Group_9086" data-name="Group 9086">
                <g id="Group_9083" data-name="Group 9083" transform="translate(0.499)">
                  <g id="Group_9079" data-name="Group 9079" transform="translate(0.114)">
                    <path id="Path_11740" data-name="Path 11740" d="M1093.745,2571.268h.64v-13.109H554v273.955H1093.74V2804.6h.005Z" transform="translate(-553.998 -2557.776)" fill="#fff"/>
                    <rect id="Rectangle_2971" data-name="Rectangle 2971" width="539.774" height="0.766" transform="translate(0 273.955)" fill="#a0bacb"/>
                    <rect id="Rectangle_2972" data-name="Rectangle 2972" width="540.387" height="0.766" fill="#7b88ac"/>
                  </g>
                  <g id="Group_9080" data-name="Group 9080" transform="translate(0 55.978)">
                    <path id="Path_11741" data-name="Path 11741" d="M637.879,2701.628v-.2h-7.321v.2H554.882V2868.65h155.41V2701.628Zm65.979,5.363v36.727H637.879v-36.727Zm-73.3,43.065v70.167H561.316v-70.167Zm7.321,70.167v-70.167h65.979v70.167Zm-7.321-113.231v36.727H561.316v-36.727Zm-69.242,119.57h69.242v36.727H561.316Zm76.563,36.727V2826.56h65.979v36.727Z" transform="translate(-554.422 -2701.044)" fill="#ebebeb"/>
                    <path id="Path_11742" data-name="Path 11742" d="M710.035,2868.436H553.706V2700.648h75.676v-.2h8.24v.2h72.413Zm-155.41-.766H709.116V2701.414H636.7v-.2h-6.4v.2H554.625Zm148.976-4.6H636.7V2825.58h66.9Zm-65.979-.766h65.06v-35.961h-65.06Zm-7.321.766H560.14V2825.58H630.3Zm-69.242-.766h68.323v-35.961H561.059Zm142.542-42.3H636.7v-70.933h66.9Zm-65.979-.766h65.06v-69.4h-65.06Zm-7.321.766H560.14v-70.933H630.3Zm-69.242-.766h68.323v-69.4H561.059ZM703.6,2743.5H636.7V2706.01h66.9Zm-65.979-.766h65.06v-35.961h-65.06Zm-7.321.766H560.14V2706.01H630.3Zm-69.242-.766h68.323v-35.961H561.059Z" transform="translate(-553.706 -2700.447)" fill="#ebebeb"/>
                  </g>
                  <g id="Group_9081" data-name="Group 9081" transform="translate(220.924 54.989)">
                    <path id="Path_11743" data-name="Path 11743" d="M1157.193,2699.1v-.2h-6.715v.2h-69.412v167.023h142.546V2699.1Zm60.517,5.363v36.727h-60.517V2704.46Zm-67.233,43.065v70.167h-63.51v-70.167Zm6.715,70.167v-70.167h60.517v70.167Zm-6.715-113.232v36.727h-63.51V2704.46Zm-63.51,119.57h63.51v36.727h-63.51Zm70.226,36.727V2824.03h60.517v36.727Z" transform="translate(-1080.645 -2698.514)" fill="#ebebeb"/>
                    <path id="Path_11744" data-name="Path 11744" d="M1223.376,2865.906H1079.987V2698.118H1149.4v-.2h7.558v.2h66.419Zm-142.546-.766h141.7V2698.884h-66.419v-.2h-5.872v.2H1080.83Zm136.644-4.6h-61.36V2823.05h61.36Zm-60.518-.766h59.675v-35.961h-59.675Zm-6.715.766h-64.354V2823.05h64.354Zm-63.51-.766H1149.4v-35.961h-62.667Zm130.743-42.3h-61.36v-70.933h61.36Zm-60.518-.767h59.675v-69.4h-59.675Zm-6.715.767h-64.354v-70.933h64.354Zm-63.51-.767H1149.4v-69.4h-62.667Zm130.743-75.739h-61.36V2703.48h61.36Zm-60.518-.766h59.675v-35.961h-59.675Zm-6.715.766h-64.354V2703.48h64.354Zm-63.51-.766H1149.4v-35.961h-62.667Z" transform="translate(-1079.987 -2697.917)" fill="#ebebeb"/>
                  </g>
                  <g id="Group_9082" data-name="Group 9082" transform="translate(417.22 55.978)">
                    <path id="Path_11745" data-name="Path 11745" d="M1674.55,2863.288h-39.218V2826.56h39.218v-6.338h-39.218v-70.167h39.218v-6.338h-39.218v-36.727h39.218v-5.363h-39.218v-.2h-7.321v.2h-75.676V2868.65H1674.55Zm-46.539,0h-69.242V2826.56h69.242Zm0-43.065h-69.242v-70.167h69.242Zm0-76.5h-69.242v-36.727h69.242Z" transform="translate(-1551.876 -2701.044)" fill="#ebebeb"/>
                    <path id="Path_11746" data-name="Path 11746" d="M1763.579,3058.2h39.677v-.766H1764.5v-35.961h38.758v-.766h-39.677Z" transform="translate(-1680.583 -2895.576)" fill="#ebebeb"/>
                    <path id="Path_11747" data-name="Path 11747" d="M1763.579,2895.839h39.677v-.766H1764.5v-69.4h38.758v-.766h-39.677Z" transform="translate(-1680.583 -2776.277)" fill="#ebebeb"/>
                    <path id="Path_11748" data-name="Path 11748" d="M1763.579,2752.18h39.677v-.766H1764.5v-35.961h38.758v-.766h-39.677Z" transform="translate(-1680.583 -2709.122)" fill="#ebebeb"/>
                    <path id="Path_11749" data-name="Path 11749" d="M1637.788,2714.686h-70.161v37.493h70.161Zm-.919,36.727h-68.322v-35.961h68.322Z" transform="translate(-1561.193 -2709.122)" fill="#ebebeb"/>
                    <path id="Path_11750" data-name="Path 11750" d="M1673.834,2867.67H1552.079V2701.413h75.676v-.2h6.4v.2h39.677v-.766h-38.758v-.2h-8.24v.2H1551.16v167.789h122.674Z" transform="translate(-1551.16 -2700.446)" fill="#ebebeb"/>
                    <path id="Path_11751" data-name="Path 11751" d="M1567.627,3058.2h70.161v-37.494h-70.161Zm.919-36.728h68.322v35.961h-68.322Z" transform="translate(-1561.193 -2895.576)" fill="#ebebeb"/>
                    <path id="Path_11752" data-name="Path 11752" d="M1637.788,2824.906h-70.161v70.933h70.161Zm-.919,70.167h-68.322v-69.4h68.322Z" transform="translate(-1561.193 -2776.277)" fill="#ebebeb"/>
                  </g>
                </g>
                <g id="Group_9084" data-name="Group 9084" transform="translate(0 241.357)">
                  <path id="Path_11753" data-name="Path 11753" d="M1092.817,3175.733H553.075v93.995h-.646V3307.7h540.382v-127.96h.005Z" transform="translate(-552.43 -3175.407)" fill="#f9f9f9"/>
                  <rect id="Rectangle_2973" data-name="Rectangle 2973" width="538.707" height="0.549" transform="translate(1.832 131.534)" fill="#f9f9f9"/>
                  <rect id="Rectangle_2974" data-name="Rectangle 2974" width="539.779" height="0.549" transform="translate(0.613)" fill="#f9f9f9"/>
                </g>
                <g id="Group_9085" data-name="Group 9085" transform="translate(31.1 4.83)">
                  <path id="Path_11754" data-name="Path 11754" d="M1449.715,2651.5V2569.54h-1.964V2651.5c-6.122.417-10.937,4.683-10.937,9.894,0,5.487,5.336,9.934,11.919,9.934s11.919-4.447,11.919-9.934C1460.652,2656.185,1455.837,2651.918,1449.715,2651.5Z" transform="translate(-1101.062 -2569.54)" fill="#ffb2b0"/>
                  <path id="Path_11755" data-name="Path 11755" d="M644.926,2668.071v-81.962h-1.964v81.962c-6.122.417-10.937,4.683-10.937,9.893,0,5.487,5.336,9.935,11.919,9.935s11.919-4.448,11.919-9.935C655.863,2672.753,651.048,2668.487,644.926,2668.071Z" transform="translate(-632.025 -2579.635)" fill="#ffb2b0"/>
                  <path id="Path_11756" data-name="Path 11756" d="M927.729,2662.358V2602.77H926.3v59.588c-4.451.3-7.952,3.4-7.952,7.193,0,3.989,3.88,7.223,8.666,7.223s8.665-3.234,8.665-7.223C935.681,2665.763,932.18,2662.662,927.729,2662.358Z" transform="translate(-799.017 -2589.786)" fill="#ffb2b0"/>
                  <path id="Path_11757" data-name="Path 11757" d="M1696.667,2662.358V2602.77h-1.428v59.588c-4.45.3-7.951,3.4-7.951,7.193,0,3.989,3.88,7.223,8.666,7.223s8.666-3.234,8.666-7.223C1704.618,2665.763,1701.118,2662.662,1696.667,2662.358Z" transform="translate(-1247.48 -2589.786)" fill="#ffb2b0"/>
                </g>
              </g>
            </g>
          </g>
        </g>
      </g>
    </g>
    <g id="Group_9093" data-name="Group 9093" transform="translate(605.704 2751.202)">
      <g id="Group_9092" data-name="Group 9092" transform="translate(0 0)">
        <path id="Path_11758" data-name="Path 11758" d="M829.219,3277.27l1.849-.2-11.735-60.486-3.9.641-43.173,5.121,1.18,11.087.112-.012-.838,50.188,1.849-.2,5.337-50.666,34.264-3.647Z" transform="translate(-739.64 -3154.955)" fill="#7b88ac"/>
        <path id="Path_11759" data-name="Path 11759" d="M716.977,3063.762c-2.573-7.348-12.514-4.771-21.3-2.947-6.32,1.306-7.6,4.071-6.586,10.457l13.554,54.919c.99,6.37,6.674,10.055,12.607,8.169s17.992-7.294,16.834-13.646Z" transform="translate(-688.779 -3058.848)" fill="#7b88ac"/>
        <path id="Path_11760" data-name="Path 11760" d="M801.034,3300.5l1.518-.162-11.773-55.667,8.711-9.732-28.314,2.823-33.353,3.195,1.113,9.233-.616,57.329,1.231-.131,5.514-57.851,39.312-4.185Z" transform="translate(-718.66 -3166.136)" fill="#7b88ac"/>
        <path id="Path_11761" data-name="Path 11761" d="M803.813,3212.971a2.289,2.289,0,0,0-2.147-3.534l-34.418,3.522a29.347,29.347,0,0,0-8.969,2.686l-18.661,8.495c-.046.021-.093.044-.138.067-2.222,1.174-1.921,1.933.7,1.654l58.344-6.352a2.287,2.287,0,0,0,1.666-1.019Z" transform="translate(-718.765 -3150.591)" fill="#7b88ac"/>
      </g>
    </g>
    <g id="Group_9101" data-name="Group 9101" transform="translate(925.498 2736.808)">
      <g id="Group_9100" data-name="Group 9100" transform="translate(0)">
        <g id="Group_9094" data-name="Group 9094" transform="translate(11.237)">
          <path id="Path_11762" data-name="Path 11762" d="M1485.7,3049.279s-.93-6.259-1.352-7.636c-.544-1.779-.811-4.428.686-5.987s1.723-5.229,1.723-5.79.561-8.98,6.735-7.733c0,0,2.557.624,1.31,5.114,0,0-1.31,2.681.343,4.365a6.838,6.838,0,0,1,0,9.292c-3.087,3.742-2.208,5.112-1.715,6.548,2.249,6.549-2.537,12.563-3.056,14.168s-1.143,4.239-.622,5.754l-1.816.034Z" transform="translate(-1483.917 -3022.008)" fill="#ebebeb"/>
        </g>
        <g id="Group_9095" data-name="Group 9095" transform="translate(15.726 6.337)">
          <path id="Path_11763" data-name="Path 11763" d="M1495.9,3077.533a.271.271,0,0,0,.055-.006.274.274,0,0,0,.213-.324c-.694-3.378.524-9.4.536-9.46.672-2.563.866-5.837-.246-14.186a32.057,32.057,0,0,1,.338-10.953,18.381,18.381,0,0,1,1.269-3.979.274.274,0,0,0-.49-.248,18.433,18.433,0,0,0-1.311,4.087,32.583,32.583,0,0,0-.351,11.166c1.1,8.232.9,11.545.256,13.989-.055.265-1.257,6.206-.54,9.694A.274.274,0,0,0,1495.9,3077.533Z" transform="translate(-1495.406 -3038.227)" fill="#fff"/>
        </g>
        <g id="Group_9096" data-name="Group 9096" transform="translate(17.216 24.052)">
          <path id="Path_11764" data-name="Path 11764" d="M1501.368,3105.046s0-1.475,3.029-2.874a5.061,5.061,0,0,0,3.029-3.65c.777-2.951,2.951-2.174,4.349-1.32s4.575,0,4.579-4.427a2.939,2.939,0,0,1,1.083-3.573c2.028-1.243,2.8-5.682-1.545-5.637s-8.447,2.193-12.66,8.434c-5.855,8.673-3.576,13.048-3.576,13.048Z" transform="translate(-1499.219 -3083.565)" fill="#ebebeb"/>
        </g>
        <g id="Group_9097" data-name="Group 9097" transform="translate(17.733 27.162)">
          <path id="Path_11765" data-name="Path 11765" d="M1501.013,3110.171a.265.265,0,0,0,.084-.014.279.279,0,0,0,.177-.345,6.648,6.648,0,0,1-.017-2.9.3.3,0,0,0,.021-.056c2.349-8.866,13.931-14.757,14.047-14.815a.274.274,0,1,0-.246-.491c-.119.06-11.9,6.052-14.325,15.139a6.485,6.485,0,0,0,0,3.288A.269.269,0,0,0,1501.013,3110.171Z" transform="translate(-1500.543 -3091.526)" fill="#fff"/>
        </g>
        <g id="Group_9098" data-name="Group 9098" transform="translate(0 10.905)">
          <path id="Path_11766" data-name="Path 11766" d="M1468.143,3084.415a5.4,5.4,0,0,1-2.557-5.425,3.8,3.8,0,0,0-3.368-4.553c-.748-.125-5.613-2.12-4.864-9.417,0,0,.249-4.677-.624-6.361s-3.055-6.736,0-8.294,5.176,1.247,6.3,4.116c0,0,.873,3.305,1.621,4.116s6.174,5.55,5.738,15.4l-1.062,10.415Z" transform="translate(-1455.157 -3049.918)" fill="#ebebeb"/>
        </g>
        <g id="Group_9099" data-name="Group 9099" transform="translate(4.355 16.642)">
          <path id="Path_11767" data-name="Path 11767" d="M1475.433,3093.635a.275.275,0,0,0,.274-.265c.315-8.389-3.322-19.327-5.408-22.488a56.064,56.064,0,0,1-3.473-6.125.274.274,0,1,0-.5.234,56.785,56.785,0,0,0,3.512,6.193c2.052,3.109,5.629,13.886,5.318,22.166a.274.274,0,0,0,.264.284Z" transform="translate(-1466.303 -3064.6)" fill="#fff"/>
        </g>
      </g>
      <path id="Path_11768" data-name="Path 11768" d="M1487.677,3153.788h-11.76l-2.846-16.115h17.454Z" transform="translate(-1466.071 -3092.48)" fill="#ebebeb"/>
    </g>
    <g id="Group_9118" data-name="Group 9118" transform="translate(579.549 2720.913)">
      <g id="Group_9117" data-name="Group 9117" transform="translate(33.623 0.131)">
        <g id="Group_9116" data-name="Group 9116">
          <g id="Group_9115" data-name="Group 9115">
            <g id="Group_9105" data-name="Group 9105" transform="translate(29.058 46.571)">
              <g id="Group_9103" data-name="Group 9103" transform="translate(29.725 26.171)">
                <path id="Path_11769" data-name="Path 11769" d="M859.321,3185.381c2.031-1.358,8.034-.933,7.586-3.017-.4-1.867-3.806-4.272-8.568,1.4Z" transform="translate(-858.339 -3175.385)" fill="#f8c471"/>
                <path id="Path_11770" data-name="Path 11770" d="M865.942,3179.992c.5,3.34,4.566,2.719,5.8,2.227,1.358-.542,1.674-3.182.885-4.039S865.754,3178.714,865.942,3179.992Z" transform="translate(-862.969 -3173.978)" fill="#f8c471"/>
                <path id="Path_11771" data-name="Path 11771" d="M870.679,3172.188c1.1-1.662,1.549-4.089.825-4.328-.816-.27-.813,1.89-2.16,3.143-1.456,1.359-2.3,2.291-1.806,2.879S869.583,3173.854,870.679,3172.188Z" transform="translate(-863.858 -3167.837)" fill="#f8c471"/>
                <path id="Path_11772" data-name="Path 11772" d="M878.7,3175.682c1.581-.64,2.26-1.337,2.042-1.737s-1.1.02-2.677.657-3.748,1.056-3.531,1.457S877.122,3176.316,878.7,3175.682Z" transform="translate(-868.2 -3171.462)" fill="#f8c471"/>
                <path id="Path_11773" data-name="Path 11773" d="M881.791,3180.618c1.711-.315,3.051-1.347,2.92-1.774s-1.632.236-3.342.551-2.8.611-2.672,1.039S880.08,3180.933,881.791,3180.618Z" transform="translate(-870.736 -3174.459)" fill="#f8c471"/>
                <path id="Path_11774" data-name="Path 11774" d="M879.072,3186.01c1.7-.383,2.556-.981,2.413-1.4s-1.212.04-2.906.423-2.878.676-2.735,1.1S877.375,3186.394,879.072,3186.01Z" transform="translate(-868.997 -3177.952)" fill="#f8c471"/>
              </g>
              <g id="Group_9104" data-name="Group 9104">
                <path id="Path_11775" data-name="Path 11775" d="M787,3100.868c-6.36-.792-4.675,37.543-4.115,38.787,0,0,3.465.84,4.084-.646C788.57,3135.167,789.841,3101.221,787,3100.868Z" transform="translate(-782.262 -3100.856)" fill="#54ccca"/>
                <path id="Path_11776" data-name="Path 11776" d="M812.687,3188.065c1.328,4.857-26.474,7.143-27.5,6.841,0,0-2.17-3.15-1.084-3.79C786.909,3189.463,812.093,3185.9,812.687,3188.065Z" transform="translate(-783.195 -3153.576)" fill="#54ccca"/>
                <path id="Path_11777" data-name="Path 11777" d="M851.411,3186.636l-.8-1.314-5.826-.568a11.982,11.982,0,0,0,1.438,2.979C846.755,3188.143,851.411,3186.636,851.411,3186.636Z" transform="translate(-820.356 -3151.973)" fill="#eaeaea"/>
                <path id="Path_11778" data-name="Path 11778" d="M854.2,3189.291l.2,1.536-4.242,4.041a12.044,12.044,0,0,1-.745-3.249C849.568,3190.964,854.2,3189.291,854.2,3189.291Z" transform="translate(-823.16 -3154.737)" fill="#eaeaea"/>
              </g>
            </g>
            <g id="Group_9111" data-name="Group 9111">
              <g id="Group_9110" data-name="Group 9110">
                <g id="Group_9106" data-name="Group 9106" transform="translate(0 1.375)">
                  <path id="Path_11779" data-name="Path 11779" d="M753.459,3045.13c6.276-5.247-2.9-7.181-2.123-12.105s1.747-3.281,3-9.618-.28-8.839-.13-12.572,3.088-9.654,1.305-14.521-3.2-3.367-4.78-7.252-3.655.074-6.878,1.508-6.106-7.791-11.8-4.776-5.694,9.972-7.614,13.73-7.441,4.924-8.8,11.8,2.618,5.6.521,10.261-6.85,3.913-8.209,10.792c0,0-1.17,6.916,6.626,7.139s5.052,4.2,13.69,2.141,5.251,5.175,11.4,2.816S747.854,3049.816,753.459,3045.13Z" transform="translate(-707.891 -2985.184)" fill="#2d356b"/>
                </g>
                <g id="Group_9107" data-name="Group 9107" transform="translate(26.114 24.047)">
                  <path id="Path_11780" data-name="Path 11780" d="M787.789,3043.209l7.185,4.514,1.29,15.536-5.772-2.088Z" transform="translate(-782.685 -3043.209)" fill="#f7c371"/>
                  <path id="Path_11781" data-name="Path 11781" d="M801.95,3161.5c-4.617-3.024-15.336-9.711-27.223-1.433,3.555-10.44,6.784-20.7,6.9-29.292.213-15.919-13.317-34.618-2.122-41.816,11.887-7.642,26,27.648,26,27.648C793.619,3123.289,796.907,3142.458,801.95,3161.5Z" transform="translate(-774.727 -3070.422)" fill="#029390"/>
                  <path id="Path_11782" data-name="Path 11782" d="M789.047,3086.6l2.088-.246,9.334,8.781-2.764,2.333S791.442,3091.081,789.047,3086.6Z" transform="translate(-783.452 -3069.496)" fill="#fff"/>
                  <path id="Path_11783" data-name="Path 11783" d="M808.041,3097.459c.045-.032.086-.063.131-.095-2.464-4.915-7.847-12.441-13.045-11.958C799.858,3089.629,808.041,3097.459,808.041,3097.459Z" transform="translate(-787.156 -3068.906)" fill="#f7c371"/>
                </g>
                <g id="Group_9109" data-name="Group 9109" transform="translate(20.174)">
                  <g id="Group_9108" data-name="Group 9108">
                    <path id="Path_11784" data-name="Path 11784" d="M776.362,3014.723c-3.706-1.431-11.259-3.426-14.375-9.556-4.052-7.968-2.364-12.473-.193-17.943,4.138-10.427,21.942-3.552,20.479-.5C780.328,2990.766,789.794,3019.909,776.362,3014.723Z" transform="translate(-759.523 -2981.664)" fill="#2d356b"/>
                    <path id="Path_11785" data-name="Path 11785" d="M799.108,3025.337c1.39.14,4.6-6.791,5.9-12.224.428-1.792-1.506-2.2-.758-8.386.439-3.63-.732-8.834-6.459-13.061-5.406-3.99-6.972,7.253-7.728,9.812-2.153,7.286-4.52,11.76-2.979,15.545C790.094,3024.418,797.642,3024.827,799.108,3025.337Z" transform="translate(-776.014 -2987.241)" fill="#ffd8a3"/>
                    <path id="Path_11786" data-name="Path 11786" d="M820.45,3053.91a.321.321,0,0,1,.325-.318.339.339,0,0,1,.24.4.322.322,0,0,1-.326.318A.337.337,0,0,1,820.45,3053.91Z" transform="translate(-796.643 -3025.487)" fill="#ffab00"/>
                    <path id="Path_11787" data-name="Path 11787" d="M820.793,3028.528c-.14-.972.292-1.829.961-1.914s1.328.635,1.467,1.607-.292,1.83-.961,1.914S820.932,3029.5,820.793,3028.528Z" transform="translate(-796.838 -3009.047)" fill="#2d356b"/>
                    <path id="Path_11788" data-name="Path 11788" d="M817.492,3028.476c.692-1.5,1.782-3.074,4.47-2.639A9.393,9.393,0,0,0,817.492,3028.476Z" transform="translate(-794.843 -3008.533)" fill="#2d356b"/>
                    <path id="Path_11789" data-name="Path 11789" d="M824.116,3064.854c.065-.222.681.651,1.009.713.928.174.54,1.34-.375,1.071C824.391,3066.533,824.048,3065.091,824.116,3064.854Z" transform="translate(-798.873 -3032.328)" fill="#f36973"/>
                    <path id="Path_11790" data-name="Path 11790" d="M822.986,3054.557c-.608-.316,3.794-1.116,2.873.255A6.753,6.753,0,0,1,822.986,3054.557Z" transform="translate(-798.154 -3025.759)" fill="#f36973"/>
                    <path id="Path_11791" data-name="Path 11791" d="M820.161,3015.026a5.726,5.726,0,0,0-7.228,2.889C815.039,3015.568,816.569,3014.766,820.161,3015.026Z" transform="translate(-792.065 -3001.776)" fill="#2d356b"/>
                    <path id="Path_11792" data-name="Path 11792" d="M831.563,3040.109l-2.217.441.477-5.5,2.811,4.234Z" transform="translate(-802.065 -3014.19)" fill="#ffd8a3"/>
                    <path id="Path_11793" data-name="Path 11793" d="M830.719,3050.432l2.015-3.233-1.609-.22Z" transform="translate(-802.901 -3021.459)" fill="#ffd8a3"/>
                    <path id="Path_11794" data-name="Path 11794" d="M823.5,3059.624a40.748,40.748,0,0,0,1.543-4.661l-3.884-.392S821.51,3058.761,823.5,3059.624Z" transform="translate(-797.074 -3026.084)" fill="#ffab00"/>
                    <path id="Path_11795" data-name="Path 11795" d="M822.809,3057.306l2.212.224c.189-.586.37-1.2.544-1.839l-3.175-.32Z" transform="translate(-797.827 -3026.572)" fill="#fff"/>
                    <path id="Path_11796" data-name="Path 11796" d="M780.437,3032.007c.259-1.686.958-2.877-.32-3.071s-2.53,1.017-2.788,2.7.573,3.211,1.854,3.405S780.18,3033.7,780.437,3032.007Z" transform="translate(-770.343 -3010.453)" fill="#f7c371"/>
                  </g>
                  <path id="Path_11797" data-name="Path 11797" d="M801.561,2991.245c-4.7,5.753-12.76,14.045-11.926,23-2.673-9.717.2-22.03,6.923-26.539C797.117,2988.712,802.7,2988.99,801.561,2991.245Z" transform="translate(-777.266 -2985.346)" fill="#2d356b"/>
                </g>
              </g>
            </g>
            <g id="Group_9114" data-name="Group 9114" transform="translate(19.093 46.462)">
              <g id="Group_9112" data-name="Group 9112" transform="translate(34.624 39.668)">
                <path id="Path_11798" data-name="Path 11798" d="M845.406,3213.18c2.839-.169,8.619,3.79,9.394,1.434.7-2.111-1.308-6.531-9.428-3.638Z" transform="translate(-845.373 -3206.928)" fill="#ffd9a4"/>
                <path id="Path_11799" data-name="Path 11799" d="M856.121,3210.167c-1.465,3.648,2.987,5.417,4.517,5.649,1.682.255,3.554-2.211,3.265-3.535S856.683,3208.772,856.121,3210.167Z" transform="translate(-851.744 -3206.742)" fill="#ffd9a4"/>
                <path id="Path_11800" data-name="Path 11800" d="M862.481,3206.119c2.079-1.025,3.962-3.2,3.375-3.86-.66-.752-1.928,1.419-4.018,1.884-2.262.508-3.657.948-3.508,1.83S860.4,3207.147,862.481,3206.119Z" transform="translate(-853.261 -3202.102)" fill="#ffd9a4"/>
                <path id="Path_11801" data-name="Path 11801" d="M871.766,3214.1c1.965.288,3.057-.014,3.073-.543s-1.113-.625-3.075-.915-4.386-1.145-4.4-.615S869.8,3213.8,871.766,3214.1Z" transform="translate(-858.77 -3208.043)" fill="#ffd9a4"/>
                <path id="Path_11802" data-name="Path 11802" d="M872.441,3219.9c1.9.691,3.856.443,3.978-.064s-1.778-.724-3.682-1.414-3.175-1.036-3.294-.528S870.538,3219.212,872.441,3219.9Z" transform="translate(-860.033 -3211.578)" fill="#ffd9a4"/>
                <path id="Path_11803" data-name="Path 11803" d="M866.577,3223.677c1.929.613,3.144.519,3.25.01s-1.24-.673-3.168-1.285-3.288-1.015-3.395-.5S864.647,3223.064,866.577,3223.677Z" transform="translate(-856.27 -3214.021)" fill="#ffd9a4"/>
              </g>
              <g id="Group_9113" data-name="Group 9113">
                <path id="Path_11804" data-name="Path 11804" d="M769.131,3100.653c-7.141-2.16-12.751,42.152-12.355,43.689,0,0,3.81,1.647,4.813.064C764.18,3140.312,772.319,3101.617,769.131,3100.653Z" transform="translate(-756.756 -3100.577)" fill="#54ccca"/>
                <path id="Path_11805" data-name="Path 11805" d="M792.036,3205.883c.076,5.862-31.917.3-32.989-.337,0,0-1.523-4.185-.113-4.587C762.583,3199.918,792,3203.266,792.036,3205.883Z" transform="translate(-757.718 -3161.619)" fill="#54ccca"/>
                <path id="Path_11806" data-name="Path 11806" d="M838.186,3209.21l-.517-1.716-6.4-2.344s.27,3.158.749,3.777S838.186,3209.21,838.186,3209.21Z" transform="translate(-802.157 -3164.291)" fill="#eaeaea"/>
                <path id="Path_11807" data-name="Path 11807" d="M839.205,3215.209l-.226,1.788-5.962,3.312s-.262-3.189.111-3.878S839.205,3215.209,839.205,3215.209Z" transform="translate(-803.166 -3170.419)" fill="#eaeaea"/>
              </g>
            </g>
          </g>
        </g>
      </g>
      <g id="Group_9102" data-name="Group 9102" transform="translate(0 10)">
        <rect id="Rectangle_2975" data-name="Rectangle 2975" width="46.212" height="28.433" rx="6.672" transform="translate(5.106 36)" fill="#fff" stroke="#231f20" stroke-miterlimit="10" stroke-width="0.25"/>
        <text id="Akiko" transform="translate(15.212 53.717)" fill="#2d356b" font-size="10" font-family="TrebuchetMS-Bold, Trebuchet MS" font-weight="700"><tspan x="0" y="0">Akiko</tspan></text>
      </g>
    </g>
    <g id="Group_9126" data-name="Group 9126" transform="translate(727.858 2745.964)">
      <g id="Group_9125" data-name="Group 9125" transform="translate(0 0)">
        <g id="Group_9119" data-name="Group 9119" transform="translate(9.559)">
          <path id="Path_11808" data-name="Path 11808" d="M1003.167,3068.64s-.791-5.325-1.149-6.5c-.463-1.513-.69-3.767.583-5.093s1.466-4.447,1.466-4.925.478-7.639,5.729-6.579c0,0,2.175.531,1.114,4.351,0,0-1.114,2.281.292,3.713a5.816,5.816,0,0,1,0,7.9c-2.626,3.183-1.878,4.349-1.459,5.571,1.913,5.571-2.158,10.688-2.6,12.052s-.972,3.605-.529,4.895l-1.545.029Z" transform="translate(-1001.651 -3045.441)" fill="#ebebeb"/>
        </g>
        <g id="Group_9120" data-name="Group 9120" transform="translate(13.377 5.391)">
          <path id="Path_11809" data-name="Path 11809" d="M1011.846,3092.673a.259.259,0,0,0,.047,0,.234.234,0,0,0,.182-.276c-.59-2.874.446-8,.456-8.046.571-2.181.737-4.966-.209-12.068a27.263,27.263,0,0,1,.288-9.317,15.647,15.647,0,0,1,1.079-3.384.233.233,0,1,0-.416-.211,15.636,15.636,0,0,0-1.115,3.476,27.716,27.716,0,0,0-.3,9.5c.933,7,.762,9.822.218,11.9-.047.226-1.069,5.279-.459,8.247A.233.233,0,0,0,1011.846,3092.673Z" transform="translate(-1011.424 -3059.238)" fill="#fff"/>
        </g>
        <g id="Group_9121" data-name="Group 9121" transform="translate(14.645 20.46)">
          <path id="Path_11810" data-name="Path 11810" d="M1016.5,3116.079s0-1.255,2.577-2.444a4.306,4.306,0,0,0,2.576-3.105c.661-2.51,2.511-1.85,3.7-1.123s3.891,0,3.895-3.766a2.5,2.5,0,0,1,.921-3.039c1.725-1.057,2.385-4.833-1.314-4.795s-7.186,1.865-10.77,7.173c-4.98,7.377-3.042,11.1-3.042,11.1Z" transform="translate(-1014.668 -3097.805)" fill="#ebebeb"/>
        </g>
        <g id="Group_9122" data-name="Group 9122" transform="translate(15.085 23.106)">
          <path id="Path_11811" data-name="Path 11811" d="M1016.194,3120.438a.23.23,0,0,0,.072-.011.238.238,0,0,0,.151-.294,5.649,5.649,0,0,1-.015-2.464.247.247,0,0,0,.018-.047c2-7.541,11.85-12.553,11.949-12.6a.234.234,0,0,0-.209-.418c-.1.051-10.121,5.149-12.186,12.878a5.518,5.518,0,0,0,0,2.8A.228.228,0,0,0,1016.194,3120.438Z" transform="translate(-1015.795 -3104.577)" fill="#fff"/>
        </g>
        <g id="Group_9123" data-name="Group 9123" transform="translate(0 9.277)">
          <path id="Path_11812" data-name="Path 11812" d="M988.233,3098.528a4.6,4.6,0,0,1-2.175-4.615,3.231,3.231,0,0,0-2.865-3.873c-.636-.106-4.774-1.8-4.138-8.01,0,0,.212-3.979-.531-5.411s-2.6-5.729,0-7.056,4.4,1.061,5.358,3.5a13.537,13.537,0,0,0,1.379,3.5c.636.69,5.252,4.722,4.88,13.1l-.9,8.86Z" transform="translate(-977.186 -3069.183)" fill="#ebebeb"/>
        </g>
        <g id="Group_9124" data-name="Group 9124" transform="translate(3.705 14.156)">
          <path id="Path_11813" data-name="Path 11813" d="M994.434,3106.371a.233.233,0,0,0,.233-.225c.268-7.135-2.826-16.44-4.6-19.129a47.944,47.944,0,0,1-2.955-5.21.233.233,0,0,0-.422.2,48.318,48.318,0,0,0,2.987,5.268c1.745,2.645,4.789,11.812,4.524,18.855a.233.233,0,0,0,.225.242Z" transform="translate(-986.668 -3081.673)" fill="#fff"/>
        </g>
      </g>
      <path id="Path_11814" data-name="Path 11814" d="M1004.849,3157.541h-10l-2.421-13.708h14.847Z" transform="translate(-986.47 -3105.389)" fill="#ebebeb"/>
    </g>
    <g id="Group_9130" data-name="Group 9130" transform="translate(587.898 2776.853)">
      <g id="Group_9129" data-name="Group 9129" transform="translate(0 0)">
        <g id="Group_9127" data-name="Group 9127" transform="translate(0 39.164)">
          <rect id="Rectangle_2976" data-name="Rectangle 2976" width="188.905" height="5.67" fill="#40558d"/>
          <rect id="Rectangle_2977" data-name="Rectangle 2977" width="175.487" height="101.892" transform="translate(6.458 2.187)" fill="#40558d"/>
          <rect id="Rectangle_2978" data-name="Rectangle 2978" width="54.454" height="101.892" transform="translate(6.458 2.187)" fill="#7b87ab"/>
          <rect id="Rectangle_2979" data-name="Rectangle 2979" width="188.905" height="7.38" transform="translate(0 2.187)" fill="#2d356b"/>
        </g>
        <g id="Group_9128" data-name="Group 9128" transform="translate(58.381)">
          <path id="Path_11815" data-name="Path 11815" d="M864.414,3161h43.813a2.71,2.71,0,0,0,2.662-2.2l5.905-31.086a2.71,2.71,0,0,0-2.662-3.215H870.319a2.71,2.71,0,0,0-2.662,2.2l-5.9,31.086A2.709,2.709,0,0,0,864.414,3161Z" transform="translate(-834.713 -3124.498)" fill="#cfd0d8"/>
          <path id="Path_11816" data-name="Path 11816" d="M867.658,3127.5a1.468,1.468,0,1,1,2.162,1.011l-5.905,31.086a1.468,1.468,0,1,1-2.162-1.011Z" transform="translate(-834.714 -3125.296)" fill="#ebebeb"/>
          <path id="Path_11817" data-name="Path 11817" d="M795.708,3221.01h67.348a3.084,3.084,0,0,0,3.083-3.083H792.625A3.083,3.083,0,0,0,795.708,3221.01Z" transform="translate(-792.625 -3181.422)" fill="#9898a4"/>
          <path id="Path_11818" data-name="Path 11818" d="M792.625,3217.927h28.35a3.311,3.311,0,0,1-3.5,3.083H796.124A3.311,3.311,0,0,1,792.625,3217.927Z" transform="translate(-792.625 -3181.422)" fill="#cfd0d8"/>
          <circle id="Ellipse_450" data-name="Ellipse 450" cx="3.11" cy="3.11" r="3.11" transform="matrix(0.383, -0.924, 0.924, 0.383, 51.472, 19.935)" fill="#fff4ba"/>
        </g>
      </g>
    </g>
    <g id="Group_9132" data-name="Group 9132" transform="translate(628.346 2579.842)">
      <g id="Group_9131" data-name="Group 9131" transform="translate(-22.937 -18)">
        <path id="Path_11819" data-name="Path 11819" d="M1112.259,2750.774c13.965,19.765,3.06,40.928-26.7,49.016-31.612,8.591-72.789-.754-93.217-20.884-15.9,10.872-40.191,19.185-68.093,22.019-51.434,5.225-95.638-10.14-98.733-34.318a23.456,23.456,0,0,1,2.936-14.234c-43.464,8.951-69.109-1.237-80.131-28.594-8.133-20.187,14.495-55.442,77.266-61.819,8-.813,15.849-1.324,23.453-1.557-.171-.668-2.442-4.471.77-11.055,13.963-28.622,63.784-32.819,115.853-26.549,43.844,5.279,65.846,23.915,76.1,40.728,0,0,124.318-31.257,147.119,35.122C1188.886,2698.648,1214.195,2757.194,1112.259,2750.774Z" transform="translate(-746.729 -2620.274)" fill="#fff" stroke="#ebebeb" stroke-miterlimit="10" stroke-width="1"/>
        <ellipse id="Ellipse_451" data-name="Ellipse 451" cx="10.88" cy="11.779" rx="10.88" ry="11.779" transform="translate(7.071 109.391) rotate(-2.698)" fill="#fff" stroke="#ebebeb" stroke-miterlimit="10" stroke-width="1"/>
        <ellipse id="Ellipse_452" data-name="Ellipse 452" cx="6.447" cy="6.98" rx="6.447" ry="6.98" transform="translate(0 135.062) rotate(-2.698)" fill="#fff" stroke="#ebebeb" stroke-miterlimit="10" stroke-width="1"/>
        <ellipse id="Ellipse_453" data-name="Ellipse 453" cx="5.515" cy="5.97" rx="5.515" ry="5.97" transform="translate(13.538 150.525) rotate(-2.698)" fill="#fff" stroke="#ebebeb" stroke-miterlimit="10" stroke-width="1"/>
      </g>
    </g>
    <g id="Group_9146" data-name="Group 9146" transform="translate(905.947 2686.007)">
      <g id="Group_9133" data-name="Group 9133" transform="translate(15.954 114.49)">
        <path id="Path_11820" data-name="Path 11820" d="M1491.616,3205.882c-8.525,18.131-21.842,35.771-25.526,44.486s-6.393,22.149-19.563,53.537c-.326.776-2.09-.527-2.09-.527,11.564-31.407,12.463-49.792,13.71-52.331s9.7-47.244,11.11-62.72C1477.327,3190.118,1491.616,3205.882,1491.616,3205.882Z" transform="translate(-1437.889 -3187.032)" fill="#0080af"/>
        <path id="Path_11821" data-name="Path 11821" d="M1507.477,3185.108s19.264-.244,24.283.051c6.522,14.446-4.365,30.115,7.469,75.174,3.418,13.014,7.9,22.711,11.629,48.117l-2.86.145c-3.074-23.055-9.1-35.654-14.124-47.251C1516.473,3221.146,1506.416,3213.955,1507.477,3185.108Z" transform="translate(-1476.25 -3185.013)" fill="#03b4e9"/>
        <path id="Path_11822" data-name="Path 11822" d="M1596.7,3499.536l9.954-.505s-.808-2.709-2.781-2.472S1596.7,3499.536,1596.7,3499.536Z" transform="translate(-1530.657 -3374.823)" fill="#9898a4"/>
        <path id="Path_11823" data-name="Path 11823" d="M1427.676,3482.762l8.346,3.486s.891-3.063-.836-3.613S1427.676,3482.762,1427.676,3482.762Z" transform="translate(-1427.676 -3366.217)" fill="#9898a4"/>
        <path id="Path_11824" data-name="Path 11824" d="M1509.592,3188.5l22.869-.155-.028,2.32-22.869.156Z" transform="translate(-1477.569 -3187.045)" fill="#cecfd7"/>
        <rect id="Rectangle_2980" data-name="Rectangle 2980" width="1.648" height="4.396" transform="translate(50.122 0.583) rotate(-0.381)" fill="#40558d"/>
        <rect id="Rectangle_2981" data-name="Rectangle 2981" width="1.648" height="4.396" transform="translate(45.001 0.843) rotate(-0.38)" fill="#40558d"/>
        <rect id="Rectangle_2982" data-name="Rectangle 2982" width="1.648" height="4.397" transform="translate(39.504 0.938) rotate(-0.38)" fill="#40558d"/>
        <rect id="Rectangle_2983" data-name="Rectangle 2983" width="1.648" height="4.396" transform="matrix(1, -0.007, 0.007, 1, 33.805, 0.678)" fill="#40558d"/>
      </g>
      <g id="Group_9145" data-name="Group 9145" transform="translate(0 0)">
        <g id="Group_9144" data-name="Group 9144">
          <g id="Group_9143" data-name="Group 9143">
            <g id="Group_9142" data-name="Group 9142">
              <g id="Group_9135" data-name="Group 9135" transform="translate(36.621 28.258)">
                <path id="Path_11825" data-name="Path 11825" d="M1526.1,3004.574l1.183.438.356,3.009-2.742,1.042Z" transform="translate(-1507.577 -2988.843)" fill="#eaeaea"/>
                <path id="Path_11826" data-name="Path 11826" d="M1530.366,2968.255l11.292-3.943.137,18.089-16.143,4.38Z" transform="translate(-1508.039 -2964.313)" fill="#f7c371"/>
                <path id="Path_11827" data-name="Path 11827" d="M1486.343,3107.749l21.077,6.918.605,31.843-18.8.473Z" transform="translate(-1484.089 -3051.705)" fill="#eaeaea"/>
                <path id="Path_11828" data-name="Path 11828" d="M1522.759,3098.193c-13.506-.6-29.119-5.891-35.769-21.508-3.6-8.451-3.317-22.277-3.307-35.981.013-18.319,20.842-41.972,37.013-36.267,22.476,7.93,7.108,37.361,4.31,45.148C1516.807,3072.4,1522.314,3093.074,1522.759,3098.193Z" transform="translate(-1482.462 -2988.232)" fill="#03b4e9"/>
                <path id="Path_11829" data-name="Path 11829" d="M1523.835,3116.9c.3-6.01,3.393-24.426,15-44.745,2.25-3.941,4.938-15.787,7.463-25.674.943-3.691,7.162,3.558,7.941,12.677.483,5.655-3.689,12.991-4.76,15.972-8.2,22.813-2.692,43.488-2.246,48.607C1539.421,3123.4,1530.913,3121.475,1523.835,3116.9Z" transform="translate(-1506.932 -3013.78)" fill="#0080af"/>
                <path id="Path_11830" data-name="Path 11830" d="M1483.509,3058.217c2.1-23.59,21.172-46.159,37.769-52.137,2.788-1,.4-3.138-7.463-2.711C1506.779,3003.778,1478.117,3016.706,1483.509,3058.217Z" transform="translate(-1481.953 -2988.074)" fill="#219ecc"/>
                <path id="Path_11831" data-name="Path 11831" d="M1484.718,3042.865c3.433-19.765,11.25-29.918,28.973-39.41-6.861.4-34.365,8.633-30.727,47.536C1483.056,3051.982,1484.125,3046.281,1484.718,3042.865Z" transform="translate(-1481.829 -2988.161)" fill="#fff"/>
                <path id="Path_11832" data-name="Path 11832" d="M1490.433,3174.231c-.08-.834.322-1.557.9-1.612s1.11.576,1.19,1.411-.321,1.557-.9,1.613S1490.514,3175.066,1490.433,3174.231Z" transform="translate(-1486.574 -3091.227)" fill="#0080af"/>
                <path id="Path_11833" data-name="Path 11833" d="M1487.983,3148.906c-.08-.834.322-1.557.9-1.612s1.109.576,1.189,1.411-.32,1.557-.9,1.613S1488.064,3149.741,1487.983,3148.906Z" transform="translate(-1485.081 -3075.797)" fill="#0080af"/>
                <path id="Path_11834" data-name="Path 11834" d="M1529.418,3008.831l-4.113,1.251,1.585-4.368.786-.386Z" transform="translate(-1507.827 -2989.302)" fill="#ffd9a4"/>
                <path id="Path_11835" data-name="Path 11835" d="M1481.485,3060.349l1.575-7.971s-2.665-25.153,15.891-37.013l-.2-.641C1483.482,3024.957,1478.261,3043.354,1481.485,3060.349Z" transform="translate(-1480.573 -2995.027)" fill="#ffd9a4"/>
                <path id="Path_11836" data-name="Path 11836" d="M1527.974,2998.856l16.128-3.667,1.91,3.278-15.382,5.586Z" transform="translate(-1509.453 -2983.125)" fill="#fff"/>
              </g>
              <g id="Group_9137" data-name="Group 9137" transform="translate(0 55.558)">
                <path id="Path_11837" data-name="Path 11837" d="M1540.253,3083.413c3.137,2.708,21.633-44.366,16.8-49.229,0,0-19.311-.242-25.974,11.182C1531.076,3045.366,1528.791,3073.522,1540.253,3083.413Z" transform="translate(-1474.609 -3034.184)" fill="#03b4e9"/>
                <g id="Group_9136" data-name="Group 9136" transform="translate(0 34.216)">
                  <path id="Path_11838" data-name="Path 11838" d="M1422.065,3138.895c-3.63-.569-11.551,3.809-12.257.682-.635-2.8,2.49-8.235,12.573-3.512Z" transform="translate(-1400.788 -3129.341)" fill="#ffd9a4"/>
                  <path id="Path_11839" data-name="Path 11839" d="M1411.757,3134.345c1.432,4.872-4.51,6.6-6.506,6.707-2.195.121-4.3-3.283-3.762-4.949S1411.206,3132.483,1411.757,3134.345Z" transform="translate(-1395.716 -3128.964)" fill="#ffd9a4"/>
                  <path id="Path_11840" data-name="Path 11840" d="M1405.464,3127.3c-2.546-1.574-4.7-4.6-3.863-5.381.942-.885,2.3,2.063,4.934,2.919,2.846.934,4.585,1.671,4.285,2.787S1408.012,3128.879,1405.464,3127.3Z" transform="translate(-1395.724 -3121.755)" fill="#ffd9a4"/>
                  <path id="Path_11841" data-name="Path 11841" d="M1392.643,3137.716c-2.561.128-3.929-.395-3.885-1.078s1.508-.667,4.067-.8,5.781-.93,5.738-.247S1395.2,3137.582,1392.643,3137.716Z" transform="translate(-1388.01 -3130.021)" fill="#ffd9a4"/>
                  <path id="Path_11842" data-name="Path 11842" d="M1391.954,3145.077c-2.534.654-5.014.094-5.107-.573s2.375-.71,4.909-1.363,4.21-.939,4.3-.272S1394.486,3144.424,1391.954,3145.077Z" transform="translate(-1386.845 -3134.386)" fill="#ffd9a4"/>
                  <path id="Path_11843" data-name="Path 11843" d="M1399.893,3150.658c-2.556.55-4.107.278-4.18-.389s1.679-.711,4.233-1.26,4.354-.9,4.427-.229S1402.45,3150.108,1399.893,3150.658Z" transform="translate(-1392.246 -3137.996)" fill="#ffd9a4"/>
                </g>
                <path id="Path_11844" data-name="Path 11844" d="M1539.376,3095.695c-14.209-7.766-9.293-34.321-9.293-34.321.573-.884.576-.917.576-.917C1528.775,3080.488,1539.967,3096.018,1539.376,3095.695Z" transform="translate(-1473.616 -3050.192)" fill="#0080af"/>
                <path id="Path_11845" data-name="Path 11845" d="M1428.524,3138.088l5.432,2,.885-8.653-5.57,1.107Z" transform="translate(-1412.239 -3093.437)" fill="#eaeaea"/>
                <path id="Path_11846" data-name="Path 11846" d="M1483.137,3134.626s-15.207,2.59-45.993-2.823c0,0-1.6-3.075,1.093-8.5,0,0,25.983-7.532,41.722-4.45C1479.96,3118.858,1487.109,3130.043,1483.137,3134.626Z" transform="translate(-1417.203 -3085.323)" fill="#03b4e9"/>
                <path id="Path_11847" data-name="Path 11847" d="M1447.85,3138.627a1.223,1.223,0,1,1,1.343-1.341A1.357,1.357,0,0,1,1447.85,3138.627Z" transform="translate(-1423.044 -3096.362)" fill="#0080af"/>
                <path id="Path_11848" data-name="Path 11848" d="M1440.645,3122.953c28.367-7.555,38.95-5,38.95-5,.889,2.26,1.339,2.414,1.339,2.414A341.312,341.312,0,0,0,1440.645,3122.953Z" transform="translate(-1419.611 -3084.968)" fill="#0080af"/>
              </g>
              <g id="Group_9141" data-name="Group 9141" transform="translate(48.151)">
                <path id="Path_11849" data-name="Path 11849" d="M1542.049,2922.12c7.956-9.232,7.487-24.655,7.116-25.2-3.952-5.825-15.332-5.486-21.09-4.018-4.855,1.238-8.692,3.862-6.345,7.67.81,1.315,4.694-1.573,5.866-1.4,2.215.326,3.118,30.875,3.118,30.875Z" transform="translate(-1516.747 -2891.99)" fill="#2d356b"/>
                <g id="Group_9139" data-name="Group 9139" transform="translate(0 6.991)">
                  <g id="Group_9138" data-name="Group 9138">
                    <path id="Path_11850" data-name="Path 11850" d="M1518.091,2969.519l-1.109-1.953,1.568-.93Z" transform="translate(-1514.286 -2944.462)" fill="#ffd8a3"/>
                    <path id="Path_11851" data-name="Path 11851" d="M1536.73,2936.707c-.978,2.567-9.09,7.9-16.994,7.353-.638-10.314.164-27.293,2.153-30.144,1.958-2.805,9.586-4.7,10.5-3.811-2.851,3.235,1.334,14.359,2.928,15.41C1539.195,2928.078,1537.75,2934.029,1536.73,2936.707Z" transform="translate(-1515.833 -2909.884)" fill="#ffd8a3"/>
                    <path id="Path_11852" data-name="Path 11852" d="M1510.081,2954.766a73,73,0,0,0,4.112-8.587c1.265-3.214.575,8.7.575,8.7S1511.221,2955.6,1510.081,2954.766Z" transform="translate(-1510.081 -2931.662)" fill="#ffd8a3"/>
                    <path id="Path_11853" data-name="Path 11853" d="M1517.332,2993.346c-.79-.359-1.168-1.126-.844-1.713a1.567,1.567,0,0,1,2.019-.413c.792.359,1.17,1.127.846,1.713A1.569,1.569,0,0,1,1517.332,2993.346Z" transform="translate(-1513.914 -2959.328)" fill="#ffd8a3"/>
                    <path id="Path_11854" data-name="Path 11854" d="M1518,2983.242c-.022-.208.216-.405.533-.439s.59.109.612.317-.216.405-.532.438S1518.018,2983.451,1518,2983.242Z" transform="translate(-1514.902 -2954.309)" fill="#ffd8a3"/>
                  </g>
                  <path id="Path_11855" data-name="Path 11855" d="M1559.305,2947.046c.488-1.863,1.966-3.151,3.3-2.877s2.024,2.007,1.538,3.87-3.062,2.893-4.4,2.619S1558.818,2948.91,1559.305,2947.046Z" transform="translate(-1539.79 -2930.751)" fill="#ffd8a3"/>
                </g>
                <path id="Path_11856" data-name="Path 11856" d="M1519.283,2972.182l.172,4.2s1.175-.093,1.442-.612a14.718,14.718,0,0,0,.942-4.2Z" transform="translate(-1515.688 -2940.478)" fill="#ffab00"/>
                <path id="Path_11857" data-name="Path 11857" d="M1519.469,2972.641l.155,3.734s.867-.057,1.059-.289a10.462,10.462,0,0,0,.9-3.976Z" transform="translate(-1515.801 -2940.805)" fill="#fff"/>
                <path id="Path_11858" data-name="Path 11858" d="M1522.66,2938.641a1.019,1.019,0,0,1,.275-.667c.433-.433,3.965.745,3.9,1.486l-.04.464c-.044.534-1.091-.057-2.151-.229-1.013-.163-2.045.116-2.02-.388Z" transform="translate(-1517.725 -2919.95)" fill="#2d356b"/>
                <path id="Path_11859" data-name="Path 11859" d="M1525.827,2948.514c-.006-.623.332-1.164.755-1.208s.771.423.778,1.045-.331,1.163-.754,1.208S1525.835,2949.136,1525.827,2948.514Z" transform="translate(-1519.674 -2925.691)" fill="#2d356b"/>
                <path id="Path_11860" data-name="Path 11860" d="M1525.6,2971.318c-.015-.145.055-.271.158-.282s.2.1.211.243-.054.27-.156.281S1525.613,2971.462,1525.6,2971.318Z" transform="translate(-1519.533 -2940.15)" fill="#ffab00"/>
                <g id="Group_9140" data-name="Group 9140" transform="translate(4.213 1.697)">
                  <path id="Path_11861" data-name="Path 11861" d="M1551.72,2914.447c-3.431.208,1.775,15.773.025,16.869s-.047,2.384.872,2.046c2.1-.775,2.513-5.154,2.686-7.943C1555.494,2922.313,1552.01,2914.429,1551.72,2914.447Z" transform="translate(-1538.933 -2907.369)" fill="#2d356b"/>
                  <path id="Path_11862" data-name="Path 11862" d="M1520.945,2902.475c-.526-2.478,1.542-5.016,4.617-5.669s12.052-1,12.578,1.48-7.6,6.839-10.673,7.491S1521.471,2904.952,1520.945,2902.475Z" transform="translate(-1520.864 -2896.331)" fill="#2d356b"/>
                </g>
              </g>
            </g>
          </g>
          <g id="Group_9134" data-name="Group 9134" transform="translate(85.326 14.012)">
            <rect id="Rectangle_2984" data-name="Rectangle 2984" width="50.676" height="26.246" rx="6.672" transform="translate(-45 80)" fill="#fff" stroke="#231f20" stroke-miterlimit="10" stroke-width="0.25"/>
            <text id="Steve" transform="translate(-32.662 96.623)" fill="#2d356b" font-size="10" font-family="TrebuchetMS-Bold, Trebuchet MS" font-weight="700"><tspan x="0" y="0">Steve</tspan></text>
          </g>
        </g>
      </g>
    </g>
    <g id="Group_9147" data-name="Group 9147" transform="translate(553.042 2555.956)">
      <rect id="Rectangle_2985" data-name="Rectangle 2985" width="74.679" height="44.057" transform="translate(74.679 44.057) rotate(-180)" fill="#ebebeb"/>
    </g>
    <text id="_2" data-name="2" transform="translate(567.07 2590.914)" fill="#2d356b" font-size="39" font-family="TrebuchetMS-Bold, Trebuchet MS" font-weight="700"><tspan x="0" y="0">2</tspan></text>
  </g>
</svg>
