<svg xmlns="http://www.w3.org/2000/svg" width="166.651" height="129.987" viewBox="0 0 166.651 129.987">
  <g id="Group_8677" data-name="Group 8677" transform="translate(0 0.125)">
    <g id="Group_8658" data-name="Group 8658" transform="translate(0 24.881)">
      <g id="Group_8656" data-name="Group 8656">
        <g id="Group_8641" data-name="Group 8641" transform="translate(2.081)">
          <g id="Group_8640" data-name="Group 8640">
            <path id="Path_10682" data-name="Path 10682" d="M630.031,3011.328c-3.641-4.385.77-7.04.353-11.555s-4.26-3-5.015-8.828,2.734-7.462,2.8-10.857-4.576-4.145-2.777-8.441,5.025-4.312,6.6-7.731,6.367-5.4,9.088-3.887,5.818-4.2,10.6-1.1,4.417,9.414,5.886,12.947,6.195,4.951,7.015,11.276-2.561,4.9-.985,9.268,5.735,4,6.555,10.322c0,0,.655,6.346-6.116,6.039s-4.6,3.474-11.98,1.047-4.822,4.349-10.03,1.808S634.22,3016.37,630.031,3011.328Z" transform="translate(-624.976 -2957.989)" fill="#2d356b"/>
          </g>
        </g>
        <g id="Group_8643" data-name="Group 8643" transform="translate(0 42.963)">
          <g id="Group_8642" data-name="Group 8642" transform="translate(19.457 49.449)">
            <path id="Path_10683" data-name="Path 10683" d="M704.856,3293.642c.182-.5-.684-.922-1.724-1.25s-1.859-.441-2.044.06.511,1.175,1.552,1.5S704.673,3294.144,704.856,3293.642Z" transform="translate(-696.113 -3286.491)" fill="#9ea9fc"/>
            <path id="Path_10684" data-name="Path 10684" d="M701.527,3297.607c.183-.5-.683-.922-1.724-1.249s-1.859-.444-2.044.059.511,1.173,1.552,1.5S701.343,3298.107,701.527,3297.607Z" transform="translate(-693.76 -3289.292)" fill="#9ea9fc"/>
            <path id="Path_10685" data-name="Path 10685" d="M709.938,3286.183c-.478-.262-1.338.851-2.172,2.2s-1.33,2.408-.851,2.672,1.541-.616,2.376-1.96S710.416,3286.445,709.938,3286.183Z" transform="translate(-700.118 -3282.275)" fill="#9ea9fc"/>
            <path id="Path_10686" data-name="Path 10686" d="M685.486,3272.955c2.2.8,9.3,2.786,8.644,5.212-.588,2.17-4.383,3.938-9.931-3.41Z" transform="translate(-684.199 -3272.955)" fill="#9ea9fc"/>
          </g>
          <path id="Path_10687" data-name="Path 10687" d="M633.146,3104.559c-5.5-2.636-15.4,32.5-15.261,33.789,0,0,3.281,3.267,4.281,2.113C624.752,3137.472,635.6,3105.736,633.146,3104.559Z" transform="translate(-617.883 -3104.418)" fill="#9ea9fc"/>
          <path id="Path_10688" data-name="Path 10688" d="M638.115,3231.884c3.523-3.019-16.308-18.825-17.252-19.123,0,0-3.288,1.289-2.785,2.332C619.378,3217.791,636.542,3233.233,638.115,3231.884Z" transform="translate(-617.984 -3180.973)" fill="#9ea9fc"/>
          <path id="Path_10689" data-name="Path 10689" d="M673.59,3271.2l-1.226.806-5.252-1.885a11.4,11.4,0,0,1,2.453-1.98C670.193,3268,673.59,3271.2,673.59,3271.2Z" transform="translate(-652.669 -3220.101)" fill="#9ea9fc"/>
          <path id="Path_10690" data-name="Path 10690" d="M681.318,3263.329l.8-1.243-2.008-5.211a11.483,11.483,0,0,0-1.966,2.5C678.012,3260,681.318,3263.329,681.318,3263.329Z" transform="translate(-660.458 -3212.144)" fill="#9ea9fc"/>
        </g>
        <g id="Group_8645" data-name="Group 8645" transform="translate(19.521 42.442)">
          <g id="Group_8644" data-name="Group 8644" transform="translate(0 46.219)">
            <path id="Path_10691" data-name="Path 10691" d="M687.651,3276.934c-.124-.45.659-.756,1.587-.97s1.65-.255,1.775.194-.526.987-1.455,1.2S687.776,3277.384,687.651,3276.934Z" transform="translate(-686.693 -3271.221)" fill="#9ea9fc"/>
            <path id="Path_10692" data-name="Path 10692" d="M690.275,3280.618c-.125-.45.659-.756,1.587-.969s1.65-.258,1.775.192-.526.987-1.455,1.2S690.4,3281.066,690.275,3280.618Z" transform="translate(-688.547 -3273.823)" fill="#9ea9fc"/>
            <path id="Path_10693" data-name="Path 10693" d="M684.662,3269.706c.434-.195,1.106.833,1.74,2.062s.992,2.189.556,2.385-1.3-.642-1.934-1.871S684.227,3269.9,684.662,3269.706Z" transform="translate(-684.418 -3266.891)" fill="#9ea9fc"/>
            <path id="Path_10694" data-name="Path 10694" d="M692.454,3260.171c-1.968.545-8.292,1.784-7.887,3.943.362,1.931,3.545,3.732,8.884-2.285Z" transform="translate(-684.51 -3260.171)" fill="#9ea9fc"/>
          </g>
          <path id="Path_10695" data-name="Path 10695" d="M724.223,3102.842c5.256-3.093,18.095,31.075,18.071,32.373,0,0-2.992,3.534-4.086,2.469C735.376,3134.925,721.876,3104.223,724.223,3102.842Z" transform="translate(-712.351 -3102.644)" fill="#9ea9fc"/>
          <path id="Path_10696" data-name="Path 10696" d="M787.985,3150.347c4.051,2.261-12.255,21.684-13.122,22.162,0,0-3.477-.612-3.191-1.734C772.411,3167.873,786.176,3149.338,787.985,3150.347Z" transform="translate(-746.059 -3136.323)" fill="#9ea9fc"/>
          <path id="Path_10697" data-name="Path 10697" d="M710.218,3259.334l1.158.9,5.385-1.464s-1.676-1.982-2.289-2.168S710.218,3259.334,710.218,3259.334Z" transform="translate(-702.648 -3211.425)" fill="#9ea9fc"/>
          <path id="Path_10698" data-name="Path 10698" d="M708.728,3250.979l-.7-1.3,2.414-5.036a11.507,11.507,0,0,1,1.762,2.643C712.286,3247.921,708.728,3250.979,708.728,3250.979Z" transform="translate(-701.104 -3202.979)" fill="#9ea9fc"/>
        </g>
        <g id="Group_8646" data-name="Group 8646" transform="translate(6.019 28.666)">
          <path id="Path_10699" data-name="Path 10699" d="M638.4,3147.731s7.452,6.6,14.9,9.076l3.881-8.388,3.571,8.388s10.074-2.838,14.128-9.076c-8.209-11.9-11.452-21.835-2.939-34.225,0,0-3.427-22.156-15.847-22.707s-14.633,23.619-14.633,23.619C649.537,3126.519,652.181,3131.774,638.4,3147.731Z" transform="translate(-638.398 -3080.492)" fill="#7b88ac"/>
          <path id="Path_10700" data-name="Path 10700" d="M681.789,3101.171a7.523,7.523,0,0,1,4.812,1.736,15.515,15.515,0,0,0,1.2-9.983c-7.561-5.686-12.221.59-12.221.59s-.991,3.916,1.675,9.181A7.5,7.5,0,0,1,681.789,3101.171Z" transform="translate(-664.544 -3080.316)" fill="#fff"/>
          <path id="Path_10701" data-name="Path 10701" d="M683.129,3092.518s-1.258,6.308,4.46,13.154c0,0,4.861-6.662,3.488-13.642C686.16,3087.331,683.129,3092.518,683.129,3092.518Z" transform="translate(-669.922 -3079.977)" fill="#f7c371"/>
          <rect id="Rectangle_3071" data-name="Rectangle 3071" width="6.486" height="12.159" transform="translate(13.986)" fill="#f7c371"/>
          <path id="Path_10702" data-name="Path 10702" d="M698.165,3190.659a.912.912,0,1,0-.87.953A.912.912,0,0,0,698.165,3190.659Z" transform="translate(-679.341 -3150.444)" fill="#fff"/>
          <path id="Path_10703" data-name="Path 10703" d="M699.265,3214.928a.912.912,0,1,0-.87.952A.912.912,0,0,0,699.265,3214.928Z" transform="translate(-680.118 -3167.592)" fill="#fff"/>
          <path id="Path_10704" data-name="Path 10704" d="M701.465,3263.468a.912.912,0,1,0-.87.952A.912.912,0,0,0,701.465,3263.468Z" transform="translate(-681.673 -3201.89)" fill="#fff"/>
          <path id="Path_10705" data-name="Path 10705" d="M700.365,3239.2a.912.912,0,1,0-.87.952A.912.912,0,0,0,700.365,3239.2Z" transform="translate(-680.895 -3184.742)" fill="#fff"/>
        </g>
        <g id="Group_8652" data-name="Group 8652" transform="translate(10.578 8.566)">
          <g id="Group_8650" data-name="Group 8650">
            <g id="Group_8648" data-name="Group 8648">
              <path id="Path_10706" data-name="Path 10706" d="M668.325,3015.97c3.951-.824,10.595-13.48,4.15-25.986-1.3-2.527-4.541-3.463-10.055-2.312-6.064,1.266-8.5,3.485-8.485,5.749C654.016,3009.433,664.281,3016.813,668.325,3015.97Z" transform="translate(-653.935 -2987.185)" fill="#ffd8a3"/>
              <path id="Path_10707" data-name="Path 10707" d="M726.3,3028.17c0-.91-.259-1.594.412-1.59s1.213.744,1.208,1.653-.552,1.644-1.223,1.641S726.3,3029.08,726.3,3028.17Z" transform="translate(-705.03 -3015.022)" fill="#f7c371"/>
              <path id="Path_10708" data-name="Path 10708" d="M656.345,3042.539c-.348-.84-.356-1.577-.995-1.312a1.712,1.712,0,0,0,1.26,3.048C657.249,3044.008,656.693,3043.382,656.345,3042.539Z" transform="translate(-654.449 -3025.332)" fill="#f7c371"/>
              <g id="Group_8647" data-name="Group 8647" transform="translate(10.814 14.951)">
                <path id="Path_10709" data-name="Path 10709" d="M693.217,3043.709a2.952,2.952,0,0,1-1.081.739,1.715,1.715,0,0,1-1.3-.294c-.121-.315-.015-4.126.284-4.224S693.141,3043.232,693.217,3043.709Z" transform="translate(-690.791 -3039.404)" fill="#ffab00"/>
                <path id="Path_10710" data-name="Path 10710" d="M692.393,3041.977c.014.074-.312.264-.436.289-.212.044-.489-.01-.526-.14-.087-.313-1.008-3.884-.362-3.983C691.776,3038.033,692.3,3041.514,692.393,3041.977Z" transform="translate(-690.826 -3038.141)" fill="#ffd8a3"/>
              </g>
            </g>
            <g id="Group_8649" data-name="Group 8649" transform="translate(1.797 6.237)">
              <path id="Path_10711" data-name="Path 10711" d="M660.06,3016.8c1.032-1.369,3.409-4.153,6.077-3.581C663.992,3013.438,662.659,3014.091,660.06,3016.8Z" transform="translate(-660.06 -3011.761)" fill="#2d356b"/>
              <path id="Path_10712" data-name="Path 10712" d="M699.335,3010.563c-1.378-.984-4.475-2.917-7.159-1.767C694.48,3008.481,696.023,3008.751,699.335,3010.563Z" transform="translate(-682.753 -3008.441)" fill="#2d356b"/>
              <path id="Path_10713" data-name="Path 10713" d="M673.3,3035.33a1.119,1.119,0,1,1,1.55.849A1.267,1.267,0,0,1,673.3,3035.33Z" transform="translate(-669.315 -3026.183)" fill="#2d356b"/>
              <path id="Path_10714" data-name="Path 10714" d="M674.271,3042.665c-.582-.58-1.444-1.1-3.278-.251A6.573,6.573,0,0,1,674.271,3042.665Z" transform="translate(-667.785 -3032.131)" fill="#ffd8a3"/>
              <path id="Path_10715" data-name="Path 10715" d="M674.062,3033.61c-.42-.706-1.126-1.422-3.113-1.055A6.568,6.568,0,0,1,674.062,3033.61Z" transform="translate(-667.754 -3025.41)" fill="#2d356b"/>
              <path id="Path_10716" data-name="Path 10716" d="M704.76,3027.2c-.42-.707-1.127-1.422-3.114-1.056A6.571,6.571,0,0,1,704.76,3027.2Z" transform="translate(-689.445 -3020.883)" fill="#2d356b"/>
              <path id="Path_10717" data-name="Path 10717" d="M705.078,3027.99a1.118,1.118,0,1,0-.264,1.747A1.265,1.265,0,0,0,705.078,3027.99Z" transform="translate(-690.378 -3021.693)" fill="#2d356b"/>
              <path id="Path_10718" data-name="Path 10718" d="M700.774,3035.426a3.131,3.131,0,0,1,3.643.777A7.937,7.937,0,0,0,700.774,3035.426Z" transform="translate(-688.828 -3027.324)" fill="#ffd8a3"/>
            </g>
          </g>
          <g id="Group_8651" data-name="Group 8651" transform="translate(10.619 21.561)">
            <path id="Path_10719" data-name="Path 10719" d="M691.82,3062.662a1.331,1.331,0,0,1,1.4-.979c.227-.069.46-.682,1.415-.239.292.137-.516.391-1.284.753S691.692,3062.958,691.82,3062.662Z" transform="translate(-691.315 -3061.104)" fill="#f36973"/>
            <path id="Path_10720" data-name="Path 10720" d="M694.389,3066.239c-.14-.29.34-.489.942-.781s1.1-.566,1.238-.277-.233.76-.835,1.052S694.529,3066.529,694.389,3066.239Z" transform="translate(-693.121 -3063.772)" fill="#f36973"/>
            <path id="Path_10721" data-name="Path 10721" d="M694.437,3061.731a4.591,4.591,0,0,0-2.021.445c-.634.275-1.738.635-1.777.942,0,0,.249,1.208,2.378.308C694.5,3062.835,694.437,3061.731,694.437,3061.731Z" transform="translate(-690.488 -3061.406)" fill="#ffab00"/>
            <path id="Path_10722" data-name="Path 10722" d="M691.621,3063.238c.174-.258.748-.43,1.593-.8a2.87,2.87,0,0,1,1.711-.325A5.129,5.129,0,0,1,691.621,3063.238Z" transform="translate(-691.183 -3061.666)" fill="#fff"/>
            <path id="Path_10723" data-name="Path 10723" d="M690.148,3066.048a.161.161,0,1,1,.223.1A.173.173,0,0,1,690.148,3066.048Z" transform="translate(-690.127 -3064.293)" fill="#ffab00"/>
            <ellipse id="Ellipse_390" data-name="Ellipse 390" cx="0.173" cy="0.201" rx="0.173" ry="0.201" transform="matrix(0.9, -0.436, 0.436, 0.9, 3.716, 0.151)" fill="#ffab00"/>
          </g>
        </g>
        <g id="Group_8655" data-name="Group 8655" transform="translate(8.439 5.4)">
          <g id="Group_8654" data-name="Group 8654" transform="translate(8.013)">
            <path id="Path_10724" data-name="Path 10724" d="M690.562,2985.821c-4.258-.881-14.976-3.522-16.6-8.532,0,0,9.93-2.912,13.049,1.775C690.947,2984.982,690.562,2985.821,690.562,2985.821Z" transform="translate(-673.957 -2976.395)" fill="#2d356b"/>
            <g id="Group_8653" data-name="Group 8653" transform="translate(1.021 2.56)">
              <path id="Path_10725" data-name="Path 10725" d="M686.1,2991.48c1.082,1.136,7.043,4.6,10.932,5.366S686.1,2991.48,686.1,2991.48Z" transform="translate(-683.557 -2989.615)" fill="#2d356b"/>
              <path id="Path_10726" data-name="Path 10726" d="M677.437,2985.12a19.423,19.423,0,0,0,5.053,5.663C684.556,2992.139,677.437,2985.12,677.437,2985.12Z" transform="translate(-677.437 -2985.12)" fill="#2d356b"/>
            </g>
          </g>
          <path id="Path_10727" data-name="Path 10727" d="M646.75,3000.056c2.967-2.042,10.31-7.583,10.127-12.825,0,0-8.314.018-9.347,5.372C646.224,2999.363,646.75,3000.056,646.75,3000.056Z" transform="translate(-646.645 -2984.051)" fill="#2d356b"/>
        </g>
      </g>
      <g id="Group_8657" data-name="Group 8657" transform="translate(60.746 42.897)">
        <path id="Path_10728" data-name="Path 10728" d="M826.748,3132c1.524-2.427,8.156-4.844,6.679-6.861-1.323-1.807-6.12-2.753-8.505,5.6Z" transform="translate(-824.922 -3118.125)" fill="#ffd9a4"/>
        <path id="Path_10729" data-name="Path 10729" d="M831.733,3121.2c2.132,3.338,6.19.725,7.277-.392,1.195-1.23.269-4.209-.984-4.748S830.92,3119.92,831.733,3121.2Z" transform="translate(-829.68 -3112.544)" fill="#ffd9a4"/>
        <path id="Path_10730" data-name="Path 10730" d="M836.089,3109.226c.378-2.3-.3-5.12-1.187-5.029-1,.1.033,2.412-.809,4.4-.908,2.152-1.365,3.553-.555,3.948S835.713,3111.533,836.089,3109.226Z" transform="translate(-830.713 -3104.195)" fill="#ffd9a4"/>
        <path id="Path_10731" data-name="Path 10731" d="M846.032,3107.856c1.387-1.442,1.78-2.514,1.355-2.837s-1.164.545-2.552,1.984-3.508,2.925-3.083,3.249S844.642,3109.293,846.032,3107.856Z" transform="translate(-836.775 -3104.729)" fill="#ffd9a4"/>
        <path id="Path_10732" data-name="Path 10732" d="M853.295,3112.934c1.682-1.156,2.622-2.9,2.278-3.3s-1.635,1.033-3.316,2.189-2.709,2-2.363,2.391S851.614,3114.09,853.295,3112.934Z" transform="translate(-842.52 -3107.993)" fill="#ffd9a4"/>
        <path id="Path_10733" data-name="Path 10733" d="M852.824,3122.962c1.632-1.222,2.267-2.273,1.912-2.658s-1.278.623-2.909,1.844-2.758,2.1-2.4,2.487S851.191,3124.185,852.824,3122.962Z" transform="translate(-842.189 -3115.519)" fill="#ffd9a4"/>
      </g>
      <path id="Path_10734" data-name="Path 10734" d="M815.77,3144.929l-1.429-.331-4.271,3.591a11.4,11.4,0,0,0,2.988,1.006C813.693,3149.106,815.77,3144.929,815.77,3144.929Z" transform="translate(-753.682 -3089.846)" fill="#f5f6f6"/>
      <path id="Path_10735" data-name="Path 10735" d="M825.234,3145.523l1.178.889-.075,5.584a11.482,11.482,0,0,1-2.71-1.658C823.289,3149.792,825.234,3145.523,825.234,3145.523Z" transform="translate(-763.234 -3090.5)" fill="#f5f6f6"/>
    </g>
    <g id="Group_8659" data-name="Group 8659" transform="translate(1.372)">
      <rect id="Rectangle_3072" data-name="Rectangle 3072" width="37.562" height="21.381" rx="6.672" fill="#fff" stroke="#231f20" stroke-miterlimit="10" stroke-width="0.25"/>
      <text id="Akiko" transform="translate(5.781 14.191)" fill="#2d356b" font-size="10" font-family="TrebuchetMS-Bold, Trebuchet MS" font-weight="700"><tspan x="0" y="0">Akiko</tspan></text>
    </g>
    <g id="Group_8661" data-name="Group 8661" transform="translate(42.504 6.429)">
      <path id="Path_10736" data-name="Path 10736" d="M910.081,2949.594a17.554,17.554,0,0,1,.594,6.273c-.937,10.855-11.706,18.789-24.054,17.723a23.808,23.808,0,0,1-16.228-8.144c-5.08,9.476-15.073,14.652-22.619,11.6-7.1-2.874-9.564-12.04-6.044-21.194-10.914-1.1-19.135-8.486-18.432-16.635.5-5.8,5.394-10.447,12.12-12.358-3.528-2.58-5.551-5.839-5.26-9.208.6-6.949,10.807-11.743,22.8-10.708q1.313.114,2.578.313c2.6-7.747,11.935-12.966,22.521-12.052,11.991,1.035,21.05,9.546,20.232,19.009-.026.308-.064.613-.11.915a42.851,42.851,0,0,1,5.637.118c15.07,1.3,26.618,10.091,25.794,19.634C928.961,2942.387,920.849,2948.121,910.081,2949.594Z" transform="translate(-805.503 -2895.1)" fill="#fff4ba"/>
      <g id="Group_8660" data-name="Group 8660" transform="translate(0 16.482)">
        <circle id="Ellipse_391" data-name="Ellipse 391" cx="7.048" cy="7.048" r="7.048" transform="translate(16.049 0.663)" fill="#fff4ba"/>
        <circle id="Ellipse_392" data-name="Ellipse 392" cx="4.176" cy="4.176" r="4.176" transform="translate(9.692)" fill="#fff4ba"/>
        <circle id="Ellipse_393" data-name="Ellipse 393" cx="3.572" cy="3.572" r="3.572" transform="translate(0 1.232)" fill="#fff4ba"/>
      </g>
    </g>
    <g id="Group_8676" data-name="Group 8676" transform="translate(77.855 13.372)">
      <g id="Group_8674" data-name="Group 8674">
        <g id="Group_8673" data-name="Group 8673">
          <g id="Group_8672" data-name="Group 8672">
            <g id="Group_8671" data-name="Group 8671">
              <g id="Group_8665" data-name="Group 8665" transform="translate(0 12.978)">
                <path id="Path_10737" data-name="Path 10737" d="M883.236,3045.086c0,1.894.5,3.427,1.121,3.427H958.3c.622,0,1.121-1.534,1.121-3.427v-87.96c0-1.888-.5-3.421-1.121-3.421H884.357c-.622,0-1.121,1.534-1.121,3.421Z" transform="translate(-883.236 -2951.572)" fill="#354a83"/>
                <path id="Path_10738" data-name="Path 10738" d="M883.411,3030.894c.047.149,6.629,12.783,6.629,12.874l67.709-.2c.613,0,1.112-1.54,1.112-3.434v-87.948c0-1.894-.5-3.416-1.112-3.416H884.517c-.613,0-1.106,1.521-1.106,3.416Z" transform="translate(-883.36 -2948.772)" fill="#fff"/>
                <g id="Group_8664" data-name="Group 8664" transform="translate(0.032 82.121)">
                  <g id="Group_8663" data-name="Group 8663">
                    <g id="Group_8662" data-name="Group 8662">
                      <path id="Path_10739" data-name="Path 10739" d="M888.856,3138.658h-5.511l6.649,12.873V3140.59C889.994,3139.523,889.484,3138.658,888.856,3138.658Z" transform="translate(-883.345 -3138.658)" fill="#272c60"/>
                    </g>
                  </g>
                </g>
              </g>
              <path id="Path_10740" data-name="Path 10740" d="M883.316,2963.137v-25.252c0-1.264.505-2.292,1.124-2.292h73.918c.621,0,1.12,1.028,1.12,2.292v25.252Z" transform="translate(-883.293 -2928.315)" fill="#272c60"/>
              <g id="Group_8670" data-name="Group 8670" transform="translate(13.841)">
                <g id="Group_8669" data-name="Group 8669">
                  <g id="Group_8666" data-name="Group 8666" transform="translate(41.74)">
                    <path id="Path_10741" data-name="Path 10741" d="M1072.672,2930.828c0,1.368,1.466,2.493,3.268,2.493h.221c1.81,0,3.275-1.125,3.275-2.493v-9.577c0-1.364-1.466-2.489-3.275-2.489h-.221c-1.8,0-3.268,1.125-3.268,2.489Z" transform="translate(-1072.672 -2918.763)" fill="#fff2af"/>
                  </g>
                  <g id="Group_8667" data-name="Group 8667" transform="translate(20.864)">
                    <path id="Path_10742" data-name="Path 10742" d="M1001.518,2930.828c0,1.368,1.479,2.493,3.262,2.493h.247c1.79,0,3.269-1.125,3.269-2.493v-9.577c0-1.364-1.478-2.489-3.269-2.489h-.247c-1.783,0-3.262,1.125-3.262,2.489Z" transform="translate(-1001.518 -2918.763)" fill="#fff2af"/>
                  </g>
                  <g id="Group_8668" data-name="Group 8668">
                    <path id="Path_10743" data-name="Path 10743" d="M930.409,2930.828c0,1.368,1.466,2.493,3.262,2.493h.24c1.79,0,3.263-1.125,3.263-2.493v-9.577c0-1.364-1.472-2.489-3.263-2.489h-.24c-1.8,0-3.262,1.125-3.262,2.489Z" transform="translate(-930.409 -2918.763)" fill="#fff2af"/>
                  </g>
                </g>
              </g>
            </g>
          </g>
        </g>
      </g>
      <line id="Line_21" data-name="Line 21" x2="70.255" transform="translate(2.768 73.64)" fill="#7b88ac" stroke="#7b88ac" stroke-miterlimit="10" stroke-width="0.75"/>
      <line id="Line_22" data-name="Line 22" x2="70.255" transform="translate(2.768 59.344)" fill="#7b88ac" stroke="#7b88ac" stroke-miterlimit="10" stroke-width="0.75"/>
      <g id="Group_8675" data-name="Group 8675" transform="translate(2.768 87.937)">
        <line id="Line_23" data-name="Line 23" x2="70.255" fill="#7b88ac" stroke="#7b88ac" stroke-miterlimit="10" stroke-width="0.75"/>
      </g>
      <rect id="Rectangle_3073" data-name="Rectangle 3073" width="52.693" height="12.146" transform="translate(9.652 88.859)" fill="#ebebeb"/>
      <text id="LUNCH" transform="translate(35.907 99.005)" fill="#9999a5" font-size="10" font-family="TrebuchetMS-Bold, Trebuchet MS" font-weight="700"><tspan x="-15.967" y="0">LUNCH</tspan></text>
      <rect id="Rectangle_3074" data-name="Rectangle 3074" width="52.693" height="43.664" transform="translate(9.767 43.235)" fill="#9ea9fc"/>
      <text id="BEFORE_LUNCH" data-name="BEFORE
LUNCH" transform="translate(36.113 63.307)" fill="#2d356b" font-size="10" font-family="TrebuchetMS-Bold, Trebuchet MS" font-weight="700"><tspan x="-18.152" y="0">BEFORE</tspan><tspan x="-15.967" y="12">LUNCH</tspan></text>
      <ellipse id="Ellipse_394" data-name="Ellipse 394" cx="34.671" cy="25.529" rx="34.671" ry="25.529" transform="translate(1.236 40.279)" fill="none" stroke="#ff4368" stroke-miterlimit="10" stroke-width="2"/>
    </g>
  </g>
</svg>
