<svg xmlns="http://www.w3.org/2000/svg" width="204.547" height="133.83" viewBox="0 0 204.547 133.83">
  <g id="Group_8603" data-name="Group 8603" transform="translate(15.116 0.125)">
    <g id="Group_8560" data-name="Group 8560" transform="translate(6.111)">
      <rect id="Rectangle_3060" data-name="Rectangle 3060" width="37.496" height="22.381" rx="6.672" fill="#fff" stroke="#231f20" stroke-miterlimit="10" stroke-width="0.25"/>
      <text id="Akiko" transform="translate(5.748 14.69)" fill="#2d356b" font-size="10" font-family="TrebuchetMS-Bold, Trebuchet MS" font-weight="700"><tspan x="0" y="0">Akiko</tspan></text>
    </g>
    <g id="Group_8562" data-name="Group 8562" transform="translate(52.078 10.447)">
      <path id="Path_10566" data-name="Path 10566" d="M888.037,1806.942a19.714,19.714,0,0,1,.668,7.051c-1.053,12.2-13.159,21.12-27.039,19.922a26.76,26.76,0,0,1-18.242-9.154c-5.71,10.651-16.943,16.47-25.427,13.038-7.986-3.231-10.751-13.534-6.794-23.825-12.269-1.24-21.511-9.539-20.72-18.7.563-6.523,6.063-11.744,13.624-13.892-3.966-2.9-6.24-6.562-5.913-10.351.674-7.811,12.148-13.2,25.627-12.037q1.475.128,2.9.351c2.927-8.708,13.416-14.574,25.316-13.547,13.479,1.163,23.662,10.731,22.744,21.369q-.045.519-.124,1.029a48.219,48.219,0,0,1,6.336.133c16.94,1.462,29.922,11.344,29,22.071C909.26,1798.84,900.141,1805.286,888.037,1806.942Z" transform="translate(-772.683 -1745.684)" fill="#fff4ba"/>
      <g id="Group_8561" data-name="Group 8561" transform="translate(0 16.482)">
        <circle id="Ellipse_380" data-name="Ellipse 380" cx="7.048" cy="7.048" r="7.048" transform="translate(16.049 0.663)" fill="#fff4ba"/>
        <circle id="Ellipse_381" data-name="Ellipse 381" cx="4.176" cy="4.176" r="4.176" transform="translate(9.692)" fill="#fff4ba"/>
        <circle id="Ellipse_382" data-name="Ellipse 382" cx="3.572" cy="3.572" r="3.572" transform="translate(0 1.232)" fill="#fff4ba"/>
      </g>
    </g>
    <g id="Group_8585" data-name="Group 8585" transform="translate(56.385 22.381)">
      <g id="Group_8584" data-name="Group 8584">
        <g id="Group_8583" data-name="Group 8583">
          <g id="Group_8582" data-name="Group 8582">
            <g id="Group_8581" data-name="Group 8581">
              <g id="Group_8580" data-name="Group 8580">
                <g id="Group_8579" data-name="Group 8579">
                  <g id="Group_8567" data-name="Group 8567" transform="translate(0 18.904)">
                    <path id="Path_10567" data-name="Path 10567" d="M935.261,1879.7c0,.457-.814.827-1.829.827H812.827c-1.014,0-1.828-.37-1.828-.827v-40.48c0-.455.814-.825,1.828-.825H933.433c1.014,0,1.829.37,1.829.825Z" transform="translate(-810.999 -1837.878)" fill="#6d7ca2"/>
                    <path id="Path_10568" data-name="Path 10568" d="M935.836,1870.276c-.076.036-10.245,8.845-10.245,8.867H813.872c-1.005,0-1.823-.371-1.823-.828v-40.478c0-.456.818-.823,1.823-.823h120.15c1.006,0,1.814.367,1.814.823Z" transform="translate(-811.657 -1837.014)" fill="#fff"/>
                    <g id="Group_8565" data-name="Group 8565" transform="translate(113.934 33.321)">
                      <g id="Group_8564" data-name="Group 8564">
                        <g id="Group_8563" data-name="Group 8563">
                          <path id="Path_10569" data-name="Path 10569" d="M1119.229,1926.3h7.339l-10.276,8.855v-7.526C1116.291,1926.893,1117.607,1926.3,1119.229,1926.3Z" transform="translate(-1116.291 -1926.298)" fill="#354a83"/>
                        </g>
                      </g>
                    </g>
                    <g id="Group_8566" data-name="Group 8566" transform="translate(13.947 14.919)">
                      <rect id="Rectangle_3061" data-name="Rectangle 3061" width="18.108" height="12.087" fill="#e7e7e7"/>
                      <rect id="Rectangle_3062" data-name="Rectangle 3062" width="18.108" height="12.087" transform="translate(19.71)" fill="#e7e7e7"/>
                      <rect id="Rectangle_3063" data-name="Rectangle 3063" width="18.108" height="12.087" transform="translate(39.42)" fill="#e7e7e7"/>
                      <rect id="Rectangle_3064" data-name="Rectangle 3064" width="18.108" height="12.087" transform="translate(59.13)" fill="#e7e7e7"/>
                      <rect id="Rectangle_3065" data-name="Rectangle 3065" width="18.108" height="12.087" transform="translate(78.84)" fill="#e7e7e7"/>
                    </g>
                  </g>
                  <path id="Path_10570" data-name="Path 10570" d="M935.261,1817.409v-19.546a1.807,1.807,0,0,0-1.833-1.773h-120.6a1.8,1.8,0,0,0-1.827,1.773v19.546Z" transform="translate(-810.999 -1792.458)" fill="#272c60"/>
                  <g id="Group_8578" data-name="Group 8578" transform="translate(12.038)">
                    <g id="Group_8577" data-name="Group 8577">
                      <g id="Group_8568" data-name="Group 8568">
                        <path id="Path_10571" data-name="Path 10571" d="M847.16,1792.379c0,.682-.853,1.243-1.885,1.243h-.138c-1.032,0-1.881-.561-1.881-1.243V1787.6c0-.681.849-1.242,1.881-1.242h.138c1.032,0,1.885.561,1.885,1.242Z" transform="translate(-843.255 -1786.359)" fill="#fff2af"/>
                      </g>
                      <g id="Group_8569" data-name="Group 8569" transform="translate(12.039)">
                        <path id="Path_10572" data-name="Path 10572" d="M879.414,1792.379c0,.682-.845,1.243-1.885,1.243H877.4c-1.044,0-1.888-.561-1.888-1.243V1787.6c0-.681.845-1.242,1.888-1.242h.127c1.039,0,1.885.561,1.885,1.242Z" transform="translate(-875.513 -1786.359)" fill="#fff2af"/>
                      </g>
                      <g id="Group_8570" data-name="Group 8570" transform="translate(24.069)">
                        <path id="Path_10573" data-name="Path 10573" d="M911.657,1792.379c0,.682-.853,1.243-1.881,1.243h-.142c-1.032,0-1.885-.561-1.885-1.243V1787.6c0-.681.853-1.242,1.885-1.242h.142c1.028,0,1.881.561,1.881,1.242Z" transform="translate(-907.749 -1786.359)" fill="#fff2af"/>
                      </g>
                      <g id="Group_8571" data-name="Group 8571" transform="translate(36.107)">
                        <path id="Path_10574" data-name="Path 10574" d="M943.907,1792.379c0,.682-.845,1.243-1.881,1.243h-.138c-1.032,0-1.881-.561-1.881-1.243V1787.6c0-.681.849-1.242,1.881-1.242h.138c1.036,0,1.881.561,1.881,1.242Z" transform="translate(-940.006 -1786.359)" fill="#fff2af"/>
                      </g>
                      <g id="Group_8572" data-name="Group 8572" transform="translate(48.147)">
                        <path id="Path_10575" data-name="Path 10575" d="M976.165,1792.379c0,.682-.853,1.243-1.877,1.243h-.142c-1.032,0-1.877-.561-1.877-1.243V1787.6c0-.681.845-1.242,1.877-1.242h.142c1.025,0,1.877.561,1.877,1.242Z" transform="translate(-972.268 -1786.359)" fill="#fff2af"/>
                      </g>
                      <g id="Group_8573" data-name="Group 8573" transform="translate(60.182)">
                        <path id="Path_10576" data-name="Path 10576" d="M1008.42,1792.379c0,.682-.86,1.243-1.885,1.243h-.142c-1.04,0-1.877-.561-1.877-1.243V1787.6c0-.681.838-1.242,1.877-1.242h.142c1.025,0,1.885.561,1.885,1.242Z" transform="translate(-1004.516 -1786.359)" fill="#fff2af"/>
                      </g>
                      <g id="Group_8574" data-name="Group 8574" transform="translate(72.216)">
                        <path id="Path_10577" data-name="Path 10577" d="M1040.659,1792.379c0,.682-.845,1.243-1.885,1.243h-.127c-1.04,0-1.885-.561-1.885-1.243V1787.6c0-.681.845-1.242,1.885-1.242h.127c1.04,0,1.885.561,1.885,1.242Z" transform="translate(-1036.762 -1786.359)" fill="#fff2af"/>
                      </g>
                      <g id="Group_8575" data-name="Group 8575" transform="translate(84.251)">
                        <path id="Path_10578" data-name="Path 10578" d="M1072.906,1792.379c0,.682-.845,1.243-1.885,1.243h-.135c-1.025,0-1.877-.561-1.877-1.243V1787.6c0-.681.853-1.242,1.877-1.242h.135c1.04,0,1.885.561,1.885,1.242Z" transform="translate(-1069.009 -1786.359)" fill="#fff2af"/>
                      </g>
                      <g id="Group_8576" data-name="Group 8576" transform="translate(96.278)">
                        <path id="Path_10579" data-name="Path 10579" d="M1105.14,1792.379c0,.682-.846,1.243-1.878,1.243h-.142c-1.025,0-1.885-.561-1.885-1.243V1787.6c0-.681.861-1.242,1.885-1.242h.142c1.032,0,1.878.561,1.878,1.242Z" transform="translate(-1101.235 -1786.359)" fill="#fff2af"/>
                      </g>
                    </g>
                  </g>
                </g>
              </g>
            </g>
            <text id="Wed" transform="translate(55.605 16.693)" fill="#6d7ca2" font-size="5" font-family="TrebuchetMS-Bold, Trebuchet MS" font-weight="700"><tspan x="0" y="0">Wed</tspan></text>
            <text id="Thu" transform="translate(75.688 16.693)" fill="#6d7ca2" font-size="5" font-family="TrebuchetMS-Bold, Trebuchet MS" font-weight="700"><tspan x="0" y="0">Thu</tspan></text>
            <text id="Fri" transform="translate(96.461 16.693)" fill="#6d7ca2" font-size="5" font-family="TrebuchetMS-Bold, Trebuchet MS" font-weight="700"><tspan x="0" y="0">Fri</tspan></text>
            <text id="Mon" transform="translate(16.444 16.693)" fill="#6d7ca2" font-size="5" font-family="TrebuchetMS-Bold, Trebuchet MS" font-weight="700"><tspan x="0" y="0">Mon</tspan></text>
            <text id="Tue" transform="translate(36.284 16.693)" fill="#6d7ca2" font-size="5" font-family="TrebuchetMS-Bold, Trebuchet MS" font-weight="700"><tspan x="0" y="0">Tue</tspan></text>
          </g>
        </g>
      </g>
      <ellipse id="Ellipse_383" data-name="Ellipse 383" cx="14.679" cy="10.822" rx="14.679" ry="10.822" transform="translate(68.061 28.719)" fill="none" stroke="#ff4368" stroke-miterlimit="10" stroke-width="2"/>
      <text id="Tomorrow" transform="translate(82.739 43.041)" fill="#272c60" font-size="10" font-family="TrebuchetMS-Bold, Trebuchet MS" font-weight="700"><tspan x="-23.391" y="0">Tomorrow</tspan></text>
    </g>
    <g id="Group_8602" data-name="Group 8602" transform="translate(-15.116 25.566)">
      <g id="Group_8587" data-name="Group 8587" transform="translate(19.812)">
        <g id="Group_8586" data-name="Group 8586">
          <path id="Path_10580" data-name="Path 10580" d="M625.012,1850.554c-3.641-4.385.771-7.04.353-11.555s-4.26-3-5.016-8.829,2.735-7.462,2.8-10.857-4.576-4.146-2.777-8.441,5.025-4.312,6.6-7.732,6.367-5.4,9.087-3.886,5.818-4.2,10.6-1.1,4.417,9.414,5.886,12.947,6.195,4.951,7.015,11.276-2.561,4.9-.985,9.268,5.735,4,6.555,10.322c0,0,.655,6.346-6.116,6.039s-4.6,3.474-11.98,1.046-4.822,4.348-10.03,1.808S629.2,1855.6,625.012,1850.554Z" transform="translate(-619.956 -1797.215)" fill="#2d356b"/>
        </g>
      </g>
      <g id="Group_8589" data-name="Group 8589" transform="translate(0 37.679)">
        <g id="Group_8588" data-name="Group 8588">
          <path id="Path_10581" data-name="Path 10581" d="M569.859,1955.483c-1.091-2.65-7.216-6.157-5.419-7.894,1.61-1.557,6.5-1.675,7.433,6.959Z" transform="translate(-560.685 -1940.571)" fill="#ffd9a4"/>
          <path id="Path_10582" data-name="Path 10582" d="M568.071,1944c-2.668,2.928-6.223-.335-7.105-1.62-.969-1.414.448-4.194,1.775-4.512S569.089,1942.879,568.071,1944Z" transform="translate(-558.236 -1934.268)" fill="#ffd9a4"/>
          <path id="Path_10583" data-name="Path 10583" d="M576.882,1933.229c.018-2.335,1.162-5,2.022-4.755.971.269-.442,2.372.052,4.471.53,2.275.743,3.733-.122,3.984S576.861,1935.567,576.882,1933.229Z" transform="translate(-569.708 -1927.63)" fill="#ffd9a4"/>
          <path id="Path_10584" data-name="Path 10584" d="M562.317,1928.7c-1.122-1.656-1.328-2.779-.855-3.026s1.055.735,2.179,2.388,2.961,3.477,2.488,3.725S563.443,1930.35,562.317,1928.7Z" transform="translate(-558.644 -1925.634)" fill="#ffd9a4"/>
          <path id="Path_10585" data-name="Path 10585" d="M554.45,1932.435c-1.461-1.425-2.093-3.3-1.686-3.636s1.436,1.3,2.9,2.72,2.331,2.426,1.924,2.757S555.91,1933.858,554.45,1932.435Z" transform="translate(-552.581 -1927.839)" fill="#ffd9a4"/>
          <path id="Path_10586" data-name="Path 10586" d="M554.015,1942.562c-1.4-1.481-1.848-2.624-1.434-2.944s1.154.83,2.555,2.311,2.362,2.538,1.945,2.858S555.417,1944.044,554.015,1942.562Z" transform="translate(-552.432 -1935.478)" fill="#ffd9a4"/>
        </g>
        <path id="Path_10587" data-name="Path 10587" d="M628.127,1943.785c-5.5-2.636-15.4,32.5-15.261,33.789,0,0,3.28,3.268,4.28,2.113C619.733,1976.7,630.582,1944.962,628.127,1943.785Z" transform="translate(-595.134 -1938.36)" fill="#2d356b"/>
        <path id="Path_10588" data-name="Path 10588" d="M585.511,1975.2c-4.482,1.2,6.568,24.026,7.291,24.7,0,0,3.521.259,3.519-.9C596.315,1996.009,587.512,1974.665,585.511,1975.2Z" transform="translate(-575.052 -1960.651)" fill="#2d356b"/>
        <path id="Path_10589" data-name="Path 10589" d="M586.3,1970.877l1.465-.084,3.6,4.263a11.387,11.387,0,0,1-3.115.484C587.636,1975.346,586.3,1970.877,586.3,1970.877Z" transform="translate(-576.361 -1957.544)" fill="#f5f6f6"/>
        <path id="Path_10590" data-name="Path 10590" d="M581.365,1970.929l-1.312.677-.873,5.516a11.492,11.492,0,0,0,2.952-1.175C582.558,1975.467,581.365,1970.929,581.365,1970.929Z" transform="translate(-571.332 -1957.639)" fill="#f5f6f6"/>
      </g>
      <g id="Group_8591" data-name="Group 8591" transform="translate(37.252 42.442)">
        <g id="Group_8590" data-name="Group 8590" transform="translate(0 46.219)">
          <path id="Path_10591" data-name="Path 10591" d="M682.631,2116.16c-.124-.45.659-.756,1.587-.97s1.649-.256,1.775.194-.526.988-1.455,1.2S682.756,2116.609,682.631,2116.16Z" transform="translate(-681.673 -2110.447)" fill="#2d356b"/>
          <path id="Path_10592" data-name="Path 10592" d="M685.254,2119.843c-.125-.449.659-.755,1.587-.968s1.65-.258,1.775.192-.526.986-1.455,1.2S685.38,2120.292,685.254,2119.843Z" transform="translate(-683.527 -2113.05)" fill="#2d356b"/>
          <path id="Path_10593" data-name="Path 10593" d="M679.642,2108.931c.434-.2,1.106.833,1.74,2.062s.992,2.189.556,2.385-1.3-.642-1.934-1.871S679.207,2109.127,679.642,2108.931Z" transform="translate(-679.398 -2106.117)" fill="#2d356b"/>
          <path id="Path_10594" data-name="Path 10594" d="M687.434,2099.4c-1.969.545-8.293,1.784-7.887,3.943.362,1.93,3.545,3.732,8.884-2.285Z" transform="translate(-679.49 -2099.397)" fill="#2d356b"/>
        </g>
        <path id="Path_10595" data-name="Path 10595" d="M719.2,1942.068c5.256-3.093,18.095,31.075,18.071,32.374,0,0-2.992,3.534-4.086,2.468C730.356,1974.151,716.857,1943.449,719.2,1942.068Z" transform="translate(-707.331 -1941.87)" fill="#2d356b"/>
        <path id="Path_10596" data-name="Path 10596" d="M707.1,2062.11c-3.273-3.288,17.745-17.478,18.71-17.7,0,0,3.175,1.544,2.592,2.545C726.893,2049.542,708.562,2063.578,707.1,2062.11Z" transform="translate(-698.728 -2014.324)" fill="#2d356b"/>
        <path id="Path_10597" data-name="Path 10597" d="M705.2,2098.56l1.158.9L711.74,2098s-1.676-1.982-2.289-2.168S705.2,2098.56,705.2,2098.56Z" transform="translate(-697.628 -2050.65)" fill="#2d356b"/>
        <path id="Path_10598" data-name="Path 10598" d="M703.708,2090.205l-.7-1.3,2.414-5.036a11.483,11.483,0,0,1,1.762,2.643C707.267,2087.148,703.708,2090.205,703.708,2090.205Z" transform="translate(-696.084 -2042.205)" fill="#2d356b"/>
      </g>
      <g id="Group_8592" data-name="Group 8592" transform="translate(23.808 28.666)">
        <path id="Path_10599" data-name="Path 10599" d="M633.578,1997.722s7.452,6.6,14.9,9.076l3.881-8.388,3.571,8.388s10.074-2.838,14.128-9.076c-8.209-11.9-11.452-21.835-2.939-34.225,0,0-3.427-22.156-15.847-22.706s-14.634,23.618-14.634,23.618C644.717,1976.51,647.361,1981.765,633.578,1997.722Z" transform="translate(-633.578 -1927.325)" fill="#40558e"/>
        <path id="Path_10600" data-name="Path 10600" d="M676.77,1940.4a7.519,7.519,0,0,1,4.812,1.736,15.516,15.516,0,0,0,1.2-9.983c-7.561-5.685-12.221.59-12.221.59s-.99,3.916,1.675,9.182A7.506,7.506,0,0,1,676.77,1940.4Z" transform="translate(-659.584 -1919.542)" fill="#fff"/>
        <path id="Path_10601" data-name="Path 10601" d="M678.11,1931.743s-1.258,6.308,4.46,13.154c0,0,4.86-6.662,3.488-13.643C681.14,1926.557,678.11,1931.743,678.11,1931.743Z" transform="translate(-664.961 -1919.203)" fill="#f7c371"/>
        <rect id="Rectangle_3066" data-name="Rectangle 3066" width="6.486" height="12.159" transform="translate(13.927)" fill="#f7c371"/>
        <path id="Path_10602" data-name="Path 10602" d="M693.145,2029.885a.912.912,0,1,0-.87.952A.912.912,0,0,0,693.145,2029.885Z" transform="translate(-674.38 -1989.67)" fill="#fff"/>
        <path id="Path_10603" data-name="Path 10603" d="M694.245,2054.154a.912.912,0,1,0-.87.953A.912.912,0,0,0,694.245,2054.154Z" transform="translate(-675.157 -2006.818)" fill="#fff"/>
        <path id="Path_10604" data-name="Path 10604" d="M696.446,2102.694a.912.912,0,1,0-.87.952A.912.912,0,0,0,696.446,2102.694Z" transform="translate(-676.712 -2041.116)" fill="#fff"/>
        <path id="Path_10605" data-name="Path 10605" d="M695.345,2078.424a.912.912,0,1,0-.87.952A.912.912,0,0,0,695.345,2078.424Z" transform="translate(-675.934 -2023.967)" fill="#fff"/>
      </g>
      <g id="Group_8598" data-name="Group 8598" transform="translate(28.308 8.566)">
        <g id="Group_8596" data-name="Group 8596">
          <g id="Group_8594" data-name="Group 8594">
            <path id="Path_10606" data-name="Path 10606" d="M663.3,1855.2c3.951-.825,10.595-13.48,4.15-25.985-1.3-2.527-4.541-3.463-10.055-2.312-6.064,1.265-8.5,3.484-8.485,5.749C649,1848.659,659.261,1856.039,663.3,1855.2Z" transform="translate(-648.915 -1826.411)" fill="#ffd8a3"/>
            <path id="Path_10607" data-name="Path 10607" d="M721.284,1867.4c0-.91-.259-1.593.412-1.59s1.213.743,1.208,1.653-.552,1.644-1.224,1.64S721.28,1868.306,721.284,1867.4Z" transform="translate(-700.01 -1854.247)" fill="#f7c371"/>
            <path id="Path_10608" data-name="Path 10608" d="M651.326,1881.765c-.348-.84-.356-1.577-.995-1.312a1.712,1.712,0,0,0,1.259,3.048C652.23,1883.235,651.674,1882.608,651.326,1881.765Z" transform="translate(-649.43 -1864.558)" fill="#f7c371"/>
            <g id="Group_8593" data-name="Group 8593" transform="translate(10.814 14.95)">
              <path id="Path_10609" data-name="Path 10609" d="M688.2,1882.936a2.956,2.956,0,0,1-1.081.738,1.715,1.715,0,0,1-1.3-.293c-.121-.315-.015-4.126.284-4.224S688.122,1882.458,688.2,1882.936Z" transform="translate(-685.772 -1878.63)" fill="#ffab00"/>
              <path id="Path_10610" data-name="Path 10610" d="M687.373,1881.2c.014.074-.312.263-.436.289-.212.044-.489-.011-.526-.14-.087-.314-1.008-3.885-.362-3.984C686.756,1877.259,687.284,1880.74,687.373,1881.2Z" transform="translate(-685.806 -1877.365)" fill="#ffd8a3"/>
            </g>
          </g>
          <g id="Group_8595" data-name="Group 8595" transform="translate(1.797 6.237)">
            <path id="Path_10611" data-name="Path 10611" d="M655.041,1856.024c1.032-1.37,3.409-4.153,6.077-3.581C658.973,1852.663,657.639,1853.317,655.041,1856.024Z" transform="translate(-655.041 -1850.988)" fill="#2d356b"/>
            <path id="Path_10612" data-name="Path 10612" d="M694.315,1849.788c-1.378-.984-4.475-2.917-7.159-1.767C689.46,1847.708,691,1847.977,694.315,1849.788Z" transform="translate(-677.733 -1847.667)" fill="#2d356b"/>
            <path id="Path_10613" data-name="Path 10613" d="M668.282,1874.556a1.119,1.119,0,1,1,1.55.85A1.266,1.266,0,0,1,668.282,1874.556Z" transform="translate(-664.296 -1865.409)" fill="#2d356b"/>
            <path id="Path_10614" data-name="Path 10614" d="M669.252,1881.891c-.581-.58-1.443-1.1-3.278-.251A6.569,6.569,0,0,1,669.252,1881.891Z" transform="translate(-662.766 -1871.357)" fill="#ffd8a3"/>
            <path id="Path_10615" data-name="Path 10615" d="M669.042,1872.836c-.42-.706-1.126-1.422-3.113-1.056A6.567,6.567,0,0,1,669.042,1872.836Z" transform="translate(-662.734 -1864.635)" fill="#2d356b"/>
            <path id="Path_10616" data-name="Path 10616" d="M699.74,1866.43c-.42-.706-1.126-1.421-3.113-1.055A6.573,6.573,0,0,1,699.74,1866.43Z" transform="translate(-684.426 -1860.11)" fill="#2d356b"/>
            <path id="Path_10617" data-name="Path 10617" d="M700.058,1867.216a1.119,1.119,0,1,0-.264,1.747A1.266,1.266,0,0,0,700.058,1867.216Z" transform="translate(-685.359 -1860.919)" fill="#2d356b"/>
            <path id="Path_10618" data-name="Path 10618" d="M695.754,1874.652a3.13,3.13,0,0,1,3.643.777A7.928,7.928,0,0,0,695.754,1874.652Z" transform="translate(-683.809 -1866.55)" fill="#ffd8a3"/>
          </g>
        </g>
        <g id="Group_8597" data-name="Group 8597" transform="translate(10.619 21.561)">
          <path id="Path_10619" data-name="Path 10619" d="M686.8,1901.888a1.33,1.33,0,0,1,1.4-.979c.227-.069.46-.683,1.415-.239.292.136-.516.391-1.284.753S686.672,1902.184,686.8,1901.888Z" transform="translate(-686.295 -1900.33)" fill="#f36973"/>
          <path id="Path_10620" data-name="Path 10620" d="M689.37,1905.465c-.141-.289.339-.488.942-.78s1.1-.566,1.238-.277-.233.76-.835,1.052S689.51,1905.754,689.37,1905.465Z" transform="translate(-688.102 -1902.997)" fill="#f36973"/>
          <path id="Path_10621" data-name="Path 10621" d="M689.418,1900.957a4.593,4.593,0,0,0-2.021.445c-.634.275-1.737.635-1.777.942,0,0,.249,1.209,2.378.308C689.485,1902.06,689.418,1900.957,689.418,1900.957Z" transform="translate(-685.469 -1900.633)" fill="#ffab00"/>
          <path id="Path_10622" data-name="Path 10622" d="M686.6,1902.463c.174-.258.748-.431,1.593-.8a2.867,2.867,0,0,1,1.711-.325A5.13,5.13,0,0,1,686.6,1902.463Z" transform="translate(-686.163 -1900.892)" fill="#fff"/>
          <path id="Path_10623" data-name="Path 10623" d="M685.128,1905.274a.161.161,0,1,1,.223.1A.174.174,0,0,1,685.128,1905.274Z" transform="translate(-685.107 -1903.519)" fill="#ffab00"/>
          <ellipse id="Ellipse_384" data-name="Ellipse 384" cx="0.173" cy="0.201" rx="0.173" ry="0.201" transform="matrix(0.9, -0.436, 0.436, 0.9, 3.716, 0.151)" fill="#ffab00"/>
        </g>
      </g>
      <g id="Group_8601" data-name="Group 8601" transform="translate(26.169 5.4)">
        <g id="Group_8600" data-name="Group 8600" transform="translate(8.014)">
          <path id="Path_10624" data-name="Path 10624" d="M685.543,1825.047c-4.258-.881-14.977-3.522-16.6-8.532,0,0,9.93-2.912,13.049,1.775C685.928,1824.208,685.543,1825.047,685.543,1825.047Z" transform="translate(-668.938 -1815.621)" fill="#2d356b"/>
          <g id="Group_8599" data-name="Group 8599" transform="translate(1.021 2.56)">
            <path id="Path_10625" data-name="Path 10625" d="M681.078,1830.706c1.083,1.136,7.043,4.6,10.932,5.366S681.078,1830.706,681.078,1830.706Z" transform="translate(-678.537 -1828.84)" fill="#2d356b"/>
            <path id="Path_10626" data-name="Path 10626" d="M672.417,1824.345a19.423,19.423,0,0,0,5.053,5.664C679.536,1831.364,672.417,1824.345,672.417,1824.345Z" transform="translate(-672.417 -1824.345)" fill="#2d356b"/>
          </g>
        </g>
        <path id="Path_10627" data-name="Path 10627" d="M641.73,1839.282c2.967-2.041,10.311-7.583,10.128-12.825,0,0-8.315.018-9.348,5.372C641.2,1838.589,641.73,1839.282,641.73,1839.282Z" transform="translate(-641.625 -1823.277)" fill="#2d356b"/>
      </g>
    </g>
  </g>
</svg>
