<svg id="Group_8680" data-name="Group 8680" xmlns="http://www.w3.org/2000/svg" width="169.012" height="101.849" viewBox="0 0 169.012 101.849">
  <g id="Group_8679" data-name="Group 8679" transform="translate(0 0)">
    <path id="Path_10744" data-name="Path 10744" d="M704.9,3558.43a18.288,18.288,0,0,1,.87,7.715c-1.372,13.347-17.139,23.1-35.218,21.794-9.807-.711-18.279-4.535-23.76-10.014-7.438,11.652-22.068,18.018-33.117,14.263-10.4-3.534-14-14.806-8.849-26.062-15.98-1.356-28.017-10.435-26.987-20.456.733-7.136,7.9-12.847,17.745-15.2-5.166-3.173-8.128-7.179-7.7-11.323.878-8.545,15.823-14.441,33.379-13.168q1.922.14,3.774.385c3.813-9.527,17.475-15.945,32.974-14.821,17.557,1.273,30.819,11.739,29.623,23.377q-.059.567-.162,1.125a74.946,74.946,0,0,1,8.253.146c22.064,1.6,38.973,12.41,37.766,24.144C732.538,3549.568,720.661,3556.62,704.9,3558.43Z" transform="translate(-564.536 -3491.417)" fill="#fff4ba"/>
    <g id="Group_8678" data-name="Group 8678" transform="translate(0 65.314)">
      <ellipse id="Ellipse_395" data-name="Ellipse 395" cx="10.319" cy="8.667" rx="10.319" ry="8.667" transform="translate(20.151)" fill="#fff4ba"/>
      <ellipse id="Ellipse_396" data-name="Ellipse 396" cx="6.115" cy="5.136" rx="6.115" ry="5.136" transform="translate(10.494 7.016)" fill="#fff4ba"/>
      <ellipse id="Ellipse_397" data-name="Ellipse 397" cx="5.23" cy="4.393" rx="5.23" ry="4.393" transform="translate(0 16.099)" fill="#fff4ba"/>
    </g>
  </g>
  <text id="Project" transform="translate(21.964 56.102) rotate(-20)" fill="#2d356b" font-size="20" font-family="TrebuchetMS-Bold, Trebuchet MS" font-weight="700"><tspan x="0" y="0">Project</tspan></text>
  <text id="Start_" data-name="Start?" transform="translate(95.443 56.068) rotate(17.256)" fill="#2d356b" font-size="20" font-family="TrebuchetMS-Bold, Trebuchet MS" font-weight="700"><tspan x="0" y="0">Start?</tspan></text>
</svg>
