<svg xmlns="http://www.w3.org/2000/svg" width="154.478" height="176.587" viewBox="0 0 154.478 176.587">
  <g id="Group_8304" data-name="Group 8304" transform="translate(-294.649 -7801.631)">
    <g id="Group_8302" data-name="Group 8302" transform="translate(294.649 7801.631)">
      <g id="Group_8301" data-name="Group 8301" transform="translate(0 0)">
        <g id="Group_8287" data-name="Group 8287" transform="translate(0 23.851)">
          <path id="Path_10565" data-name="Path 10565" d="M449.127,8027.253c0,2.982-1.012,5.4-2.273,5.4H296.922c-1.261,0-2.273-2.417-2.273-5.4V7888.668c0-2.974,1.012-5.391,2.273-5.391H446.854c1.261,0,2.273,2.417,2.273,5.391Z" transform="translate(-294.649 -7879.916)" fill="#40558e"/>
          <path id="Path_10566" data-name="Path 10566" d="M451.8,8002.578c-.095.236-21.191,19.829-21.191,19.971H301.068c-1.243,0-2.254-2.426-2.254-5.41V7878.574c0-2.983,1.011-5.381,2.254-5.381h148.49c1.243,0,2.242,2.4,2.242,5.381Z" transform="translate(-297.426 -7873.193)" fill="#fff"/>
          <g id="Group_8286" data-name="Group 8286" transform="translate(132.833 129.386)">
            <g id="Group_8285" data-name="Group 8285">
              <g id="Group_8284" data-name="Group 8284">
                <path id="Path_10567" data-name="Path 10567" d="M696.892,8261.4h17.885L693.2,8281.68v-17.238C693.2,8262.761,694.852,8261.4,696.892,8261.4Z" transform="translate(-693.198 -8261.397)" fill="#2d356b"/>
              </g>
            </g>
          </g>
        </g>
        <path id="Path_10568" data-name="Path 10568" d="M449.079,7857.479v-32.868c0-1.645-1.024-2.983-2.279-2.983H296.92c-1.259,0-2.271,1.338-2.271,2.983v32.868Z" transform="translate(-294.649 -7814.964)" fill="#2d356b"/>
        <g id="Group_8300" data-name="Group 8300" transform="translate(11.255)">
          <g id="Group_8299" data-name="Group 8299">
            <g id="Group_8288" data-name="Group 8288">
              <path id="Path_10569" data-name="Path 10569" d="M332.563,7810.038a1.892,1.892,0,0,1-2,1.737h-.143a1.894,1.894,0,0,1-2-1.737v-6.673a1.894,1.894,0,0,1,2-1.734h.143a1.891,1.891,0,0,1,2,1.734Z" transform="translate(-328.419 -7801.631)" fill="#fff4ba"/>
            </g>
            <g id="Group_8289" data-name="Group 8289" transform="translate(12.779)">
              <path id="Path_10570" data-name="Path 10570" d="M370.907,7810.038a1.894,1.894,0,0,1-2,1.737h-.147a1.89,1.89,0,0,1-2-1.737v-6.673a1.889,1.889,0,0,1,2-1.734h.147a1.893,1.893,0,0,1,2,1.734Z" transform="translate(-366.762 -7801.631)" fill="#fff4ba"/>
            </g>
            <g id="Group_8290" data-name="Group 8290" transform="translate(25.559)">
              <path id="Path_10571" data-name="Path 10571" d="M409.247,7810.038a1.888,1.888,0,0,1-2,1.737h-.135a1.89,1.89,0,0,1-2.005-1.737v-6.673a1.889,1.889,0,0,1,2.005-1.734h.135a1.887,1.887,0,0,1,2,1.734Z" transform="translate(-405.106 -7801.631)" fill="#fff4ba"/>
            </g>
            <g id="Group_8291" data-name="Group 8291" transform="translate(38.331)">
              <path id="Path_10572" data-name="Path 10572" d="M447.575,7810.038a1.892,1.892,0,0,1-2,1.737h-.151a1.893,1.893,0,0,1-2-1.737v-6.673a1.893,1.893,0,0,1,2-1.734h.151a1.891,1.891,0,0,1,2,1.734Z" transform="translate(-443.426 -7801.631)" fill="#fff4ba"/>
            </g>
            <g id="Group_8292" data-name="Group 8292" transform="translate(51.11)">
              <path id="Path_10573" data-name="Path 10573" d="M485.91,7810.038a1.887,1.887,0,0,1-2,1.737h-.147a1.89,1.89,0,0,1-2-1.737v-6.673a1.889,1.889,0,0,1,2-1.734h.147a1.886,1.886,0,0,1,2,1.734Z" transform="translate(-481.769 -7801.631)" fill="#fff4ba"/>
            </g>
            <g id="Group_8293" data-name="Group 8293" transform="translate(63.892)">
              <path id="Path_10574" data-name="Path 10574" d="M524.257,7810.038a1.891,1.891,0,0,1-1.993,1.737h-.151a1.886,1.886,0,0,1-1.993-1.737v-6.673a1.885,1.885,0,0,1,1.993-1.734h.151a1.89,1.89,0,0,1,1.993,1.734Z" transform="translate(-520.12 -7801.631)" fill="#fff4ba"/>
            </g>
            <g id="Group_8294" data-name="Group 8294" transform="translate(76.668)">
              <path id="Path_10575" data-name="Path 10575" d="M562.6,7810.038a1.9,1.9,0,0,1-2,1.737h-.151a1.881,1.881,0,0,1-1.993-1.737v-6.673a1.88,1.88,0,0,1,1.993-1.734h.151a1.9,1.9,0,0,1,2,1.734Z" transform="translate(-558.452 -7801.631)" fill="#fff4ba"/>
            </g>
            <g id="Group_8295" data-name="Group 8295" transform="translate(89.444)">
              <path id="Path_10576" data-name="Path 10576" d="M600.92,7810.038a1.888,1.888,0,0,1-2,1.737h-.135a1.888,1.888,0,0,1-2-1.737v-6.673a1.887,1.887,0,0,1,2-1.734h.135a1.887,1.887,0,0,1,2,1.734Z" transform="translate(-596.783 -7801.631)" fill="#fff4ba"/>
            </g>
            <g id="Group_8296" data-name="Group 8296" transform="translate(102.219)">
              <path id="Path_10577" data-name="Path 10577" d="M639.252,7810.038a1.888,1.888,0,0,1-2,1.737h-.143a1.891,1.891,0,0,1-1.993-1.737v-6.673a1.89,1.89,0,0,1,1.993-1.734h.143a1.887,1.887,0,0,1,2,1.734Z" transform="translate(-635.115 -7801.631)" fill="#fff4ba"/>
            </g>
            <g id="Group_8297" data-name="Group 8297" transform="translate(114.987)">
              <path id="Path_10578" data-name="Path 10578" d="M677.568,7810.038a1.886,1.886,0,0,1-1.993,1.737h-.151a1.9,1.9,0,0,1-2-1.737v-6.673a1.9,1.9,0,0,1,2-1.734h.151a1.885,1.885,0,0,1,1.993,1.734Z" transform="translate(-673.423 -7801.631)" fill="#fff4ba"/>
            </g>
            <g id="Group_8298" data-name="Group 8298" transform="translate(127.771)">
              <path id="Path_10579" data-name="Path 10579" d="M715.924,7810.038a1.893,1.893,0,0,1-2,1.737h-.143a1.888,1.888,0,0,1-2-1.737v-6.673a1.888,1.888,0,0,1,2-1.734h.143a1.892,1.892,0,0,1,2,1.734Z" transform="translate(-711.779 -7801.631)" fill="#fff4ba"/>
            </g>
          </g>
        </g>
      </g>
    </g>
    <g id="Group_8303" data-name="Group 8303" transform="translate(318.085 7866.84)">
      <line id="Line_45" data-name="Line 45" x2="107.525" transform="translate(0.863 88.775)" fill="#7b88ac" stroke="#7b88ac" stroke-miterlimit="10" stroke-width="0.75"/>
      <line id="Line_46" data-name="Line 46" x2="117.876" transform="translate(0 22.194)" fill="#7b88ac" stroke="#7b88ac" stroke-miterlimit="10" stroke-width="0.75"/>
      <line id="Line_47" data-name="Line 47" x2="117.786" transform="translate(0)" fill="#7b88ac" stroke="#7b88ac" stroke-miterlimit="10" stroke-width="0.75"/>
      <line id="Line_48" data-name="Line 48" x2="117.786" transform="translate(0 44.388)" fill="#7b88ac" stroke="#7b88ac" stroke-miterlimit="10" stroke-width="0.75"/>
      <line id="Line_49" data-name="Line 49" x2="117.876" transform="translate(0.863 66.581)" fill="#7b88ac" stroke="#7b88ac" stroke-miterlimit="10" stroke-width="0.75"/>
    </g>
    <text id="AM" transform="translate(301.69 7870.018)" fill="#2d356b" font-size="10" font-family="TrebuchetMS-Bold, Trebuchet MS" font-weight="700"><tspan x="0" y="0">AM</tspan></text>
    <text id="PM" transform="translate(301.69 7914.785)" fill="#2d356b" font-size="10" font-family="TrebuchetMS-Bold, Trebuchet MS" font-weight="700"><tspan x="0" y="0">PM</tspan></text>
    <text id="Tuesday" transform="translate(334.388 7837.28)" fill="#fff" font-size="20" font-family="TrebuchetMS-Bold, Trebuchet MS" font-weight="700"><tspan x="0" y="0">Tuesday</tspan></text>
    <rect id="Rectangle_2676" data-name="Rectangle 2676" width="103.855" height="15.295" transform="translate(322.006 7866.84)" fill="#fff4ba"/>
    <rect id="Rectangle_2677" data-name="Rectangle 2677" width="103.855" height="31.429" transform="translate(322.006 7910.647)" fill="#ffac00"/>
    <text id="meeting" transform="translate(324.575 7878.323)" fill="#2d356b" font-size="14" font-family="TrebuchetMS-Bold, Trebuchet MS" font-weight="700"><tspan x="0" y="0">meeting</tspan></text>
    <rect id="Rectangle_2678" data-name="Rectangle 2678" width="103.855" height="15.295" transform="translate(322.006 7889.034)" fill="#c3e8e6"/>
    <text id="meeting-2" data-name="meeting" transform="translate(324.575 7900.517)" fill="#2d356b" font-size="14" font-family="TrebuchetMS-Bold, Trebuchet MS" font-weight="700"><tspan x="0" y="0">meeting</tspan></text>
    <text id="work_on_proposal_A" data-name="work on 
proposal A" transform="translate(324.911 7923.717)" fill="#2d356b" font-size="14" font-family="TrebuchetMS-Bold, Trebuchet MS" font-weight="700"><tspan x="0" y="0">work on </tspan><tspan x="0" y="14">proposal A</tspan></text>
  </g>
</svg>
