<svg xmlns="http://www.w3.org/2000/svg" width="544" height="343.45" viewBox="0 0 544 343.45"><g transform="translate(-328.021 -9035.639)"><g transform="translate(328.021 9035.639)"><g transform="translate(0 0)"><path d="M328.665,9082.521h-.644v-12.049h543.4v251.812H328.671v-25.293h-.005Z" transform="translate(-328.021 -9070.121)" fill="#fff"/><rect width="542.809" height="0.704" transform="translate(0.596 251.813)" fill="#a0bacb"/><rect width="543.405" height="0.704" fill="#7b88ac"/><g transform="translate(391.591 51.453)"><path d="M1148.19,9192.242v153.525h151.032V9192.242h-73.544v-.184h-7.114v.184Zm70.373,4.931v33.759h-64.12v-33.759Zm74.406,39.585v64.494h-67.292v-64.494Zm-138.526,64.494v-64.494h64.12v64.494Zm138.526-104.079v33.759h-67.292v-33.759Zm0,143.665h-67.292v-33.761h67.292Zm-138.526,0v-33.761h64.12v33.761Z" transform="translate(-1147.744 -9191.707)" fill="#ebebeb"/><path d="M1147.135,9191.412h70.373v-.186h8.008v.186h73.544v154.227H1147.135Zm151.031.705h-73.544v-.187H1218.4v.187h-70.373v152.819h150.138Zm-144.778,114.129H1218.4v34.464h-65.013Zm64.12.706h-63.226V9340h63.226Zm7.115-.706h68.184v34.464h-68.184Zm67.291.706h-66.4V9340h66.4Zm-138.526-71.026H1218.4v65.2h-65.013Zm64.12.7h-63.226v63.792h63.226Zm7.115-.7h68.184v65.2h-68.184Zm67.291.7h-66.4v63.792h66.4Zm-138.526-40.288H1218.4V9230.8h-65.013Zm64.12.7h-63.226V9230.1h63.226Zm7.115-.7h68.184V9230.8h-68.184Zm67.291.7h-66.4V9230.1h66.4Z" transform="translate(-1147.135 -9191.227)" fill="#ebebeb"/></g><g transform="translate(179.317 50.545)"><path d="M705.592,9190.1v153.523h138.53V9190.1H776.666v-.185H770.14v.185Zm64.548,4.929v33.76H711.327v-33.76Zm68.247,39.585v64.5H776.666v-64.5Zm-127.06,64.5v-64.5H770.14v64.5Zm127.06-104.08v33.76H776.666v-33.76Zm0,143.665H776.666v-33.759h61.721Zm-127.06,0v-33.759H770.14v33.759Z" transform="translate(-705.182 -9189.562)" fill="#ebebeb"/><path d="M704.624,9189.265h64.547v-.185h7.346v.185h67.456v154.228H704.624Zm138.53.7H775.7v-.183h-5.706v.183H705.443v152.819H843.154ZM710.359,9304.1h59.632v34.464H710.359Zm58.812.705H711.179v33.056h57.993Zm6.526-.705h62.541v34.464H775.7Zm61.722.705h-60.9v33.056h60.9Zm-127.06-71.026h59.632v65.2H710.359Zm58.812.705H711.179v63.791h57.993Zm6.526-.705h62.541v65.2H775.7Zm61.722.705h-60.9v63.791h60.9ZM710.359,9194.2h59.632v34.463H710.359Zm58.812.7H711.179v33.055h57.993Zm6.526-.7h62.541v34.463H775.7Zm61.722.7h-60.9v33.055h60.9Z" transform="translate(-704.624 -9189.08)" fill="#ebebeb"/></g><g transform="translate(0.591 51.454)"><path d="M329.417,9345.768H448.189V9192.242H374.644v-.184H367.53v.184H329.417v4.931H367.53v33.759H329.417v5.826H367.53v64.494H329.417v5.825H367.53v33.761H329.417Zm45.227-38.69h67.291v33.761H374.644Zm0-70.319h67.291v64.494H374.644Zm0-39.585h67.291v33.759H374.644Z" transform="translate(-329.417 -9191.708)" fill="#ebebeb"/><path d="M367.976,9497.49H329.417v-.7h37.666v-33.055H329.417v-.7h38.559Z" transform="translate(-329.417 -9348.008)" fill="#ebebeb"/><path d="M367.976,9362.055H329.417v-.705h37.666v-63.79H329.417v-.705h38.559Z" transform="translate(-329.417 -9252.156)" fill="#ebebeb"/><path d="M367.976,9237.775H329.417v-.7h37.666v-33.055H329.417v-.7h38.559Z" transform="translate(-329.417 -9198.199)" fill="#ebebeb"/><path d="M435.238,9237.775h68.184v-34.463H435.238Zm.893-33.76h66.4v33.055h-66.4Z" transform="translate(-390.457 -9198.199)" fill="#ebebeb"/><path d="M329.417,9344.937H447.742V9192.117H374.2v-.186h-6.222v.186H329.417v-.705h37.666v-.185h8.008v.185h73.544v154.227H329.417Z" transform="translate(-329.417 -9191.228)" fill="#ebebeb"/><path d="M503.422,9463.027H435.238v34.463h68.184Zm-.893,33.759h-66.4v-33.055h66.4Z" transform="translate(-390.457 -9348.008)" fill="#ebebeb"/><path d="M435.238,9362.053h68.184v-65.2H435.238Zm.893-64.494h66.4v63.791h-66.4Z" transform="translate(-390.457 -9252.155)" fill="#ebebeb"/></g><g transform="translate(0.448 221.849)"><path d="M329.429,9594.593H872.184v86.4h.649v34.9h-543.4v-117.62h-.005Z" transform="translate(-329.281 -9594.293)" fill="#f9f9f9"/><rect width="541.772" height="0.505" transform="translate(0 120.903)" fill="#f9f9f9"/><rect width="542.814" height="0.505" transform="translate(0.143)" fill="#f9f9f9"/></g><g transform="translate(51.277 4.44)"><path d="M669.625,9155.469v-75.337h1.908v75.337c5.95.383,10.629,4.3,10.629,9.093,0,5.044-5.186,9.131-11.583,9.131S659,9169.605,659,9164.562C659,9159.772,663.675,9155.852,669.625,9155.469Z" transform="translate(-560.09 -9080.132)" fill="#ffb2b0"/><path d="M1391.755,9169.531v-75.338h1.908v75.338c5.949.383,10.629,4.3,10.629,9.093,0,5.044-5.186,9.132-11.583,9.132s-11.583-4.088-11.583-9.132C1381.126,9173.835,1385.805,9169.914,1391.755,9169.531Z" transform="translate(-941.792 -9088.242)" fill="#ffb2b0"/><path d="M1146.881,9163.1v-54.771h1.387V9163.1c4.325.28,7.727,3.131,7.727,6.613,0,3.666-3.77,6.638-8.421,6.638s-8.421-2.972-8.421-6.638C1139.153,9166.234,1142.555,9163.384,1146.881,9163.1Z" transform="translate(-814.416 -9096.398)" fill="#ffb2b0"/><path d="M456.92,9163.1v-54.771h1.387V9163.1c4.326.28,7.728,3.131,7.728,6.613,0,3.666-3.771,6.638-8.421,6.638s-8.421-2.972-8.421-6.638C449.192,9166.234,452.594,9163.384,456.92,9163.1Z" transform="translate(-449.192 -9096.398)" fill="#ffb2b0"/></g><g transform="translate(131.921 166.939)"><g transform="translate(12.421)"><path d="M652.464,9489.2s.9-5.754,1.313-7.019c.529-1.636.788-4.07-.666-5.5s-1.675-4.807-1.675-5.322-.545-8.255-6.545-7.108c0,0-2.485.573-1.273,4.7,0,0,1.273,2.465-.333,4.013a6.039,6.039,0,0,0,0,8.541c3,3.439,2.146,4.7,1.666,6.019-2.186,6.021,2.465,11.548,2.97,13.023s1.11,3.9.6,5.289l1.765.032Z" transform="translate(-641.52 -9464.132)" fill="#ebebeb"/></g><g transform="translate(18.118 5.825)"><path d="M657.118,9514.024a.337.337,0,0,1-.054,0,.254.254,0,0,1-.208-.3c.675-3.105-.509-8.64-.521-8.7-.653-2.354-.842-5.365.239-13.038a27.906,27.906,0,0,0-.329-10.069,16.251,16.251,0,0,0-1.233-3.656.245.245,0,0,1,.117-.339.275.275,0,0,1,.358.11,16.314,16.314,0,0,1,1.273,3.756,28.366,28.366,0,0,1,.342,10.264c-1.066,7.566-.871,10.613-.249,12.858.054.244,1.221,5.7.525,8.912A.264.264,0,0,1,657.118,9514.024Z" transform="translate(-654.984 -9477.896)" fill="#fff"/></g><g transform="translate(0 22.108)"><path d="M629.367,9536.117s0-1.355-2.944-2.641a4.771,4.771,0,0,1-2.944-3.354c-.755-2.714-2.868-2-4.227-1.215s-4.445,0-4.45-4.068a2.609,2.609,0,0,0-1.052-3.284c-1.971-1.144-2.725-5.222,1.5-5.182s8.209,2.016,12.3,7.752c5.69,7.971,3.475,11.992,3.475,11.992Z" transform="translate(-612.169 -9516.373)" fill="#ebebeb"/></g><g transform="translate(4.27 24.967)"><path d="M636.317,9540.269a.24.24,0,0,1-.082-.014.253.253,0,0,1-.172-.316,5.789,5.789,0,0,0,.017-2.664.256.256,0,0,1-.021-.051c-2.283-8.149-13.538-13.563-13.652-13.618a.245.245,0,0,1-.119-.338.274.274,0,0,1,.358-.112c.116.055,11.563,5.564,13.922,13.915a5.655,5.655,0,0,1,0,3.022A.262.262,0,0,1,636.317,9540.269Z" transform="translate(-622.26 -9523.129)" fill="#fff"/></g><g transform="translate(21.191 10.024)"><path d="M664.451,9519.526s3.091-1.661,2.485-4.986,2.545-4.071,3.273-4.185,5.454-1.95,4.727-8.657c0,0-.242-4.3.606-5.847s2.97-6.191,0-7.624-5.03,1.146-6.121,3.783c0,0-.848,3.038-1.576,3.784a17.3,17.3,0,0,0-5.576,14.158l1.032,9.573Z" transform="translate(-662.245 -9487.817)" fill="#ebebeb"/></g><g transform="translate(22.627 15.296)"><path d="M665.923,9526.967a.261.261,0,0,1-.266-.244c-.306-7.711,3.229-17.765,5.256-20.669a50.834,50.834,0,0,0,3.375-5.631.272.272,0,0,1,.355-.12.247.247,0,0,1,.127.337,51.785,51.785,0,0,1-3.412,5.691c-1.994,2.857-5.471,12.764-5.168,20.373a.26.26,0,0,1-.257.263Z" transform="translate(-665.638 -9500.278)" fill="#fff"/></g><path d="M643.892,9577.1h11.429l2.766-14.812H641.125Z" transform="translate(-628.871 -9520.752)" fill="#ebebeb"/></g><g transform="translate(336.595 175.355)"><g transform="translate(10.566)"><path d="M1088.037,9505.343s.769-4.9,1.117-5.972c.45-1.392.67-3.463-.567-4.682s-1.424-4.088-1.424-4.527-.464-7.021-5.568-6.046c0,0-2.114.487-1.083,4,0,0,1.083,2.1-.283,3.414a5.138,5.138,0,0,0,0,7.267c2.552,2.926,1.825,4,1.418,5.12-1.859,5.119,2.1,9.822,2.526,11.077s.945,3.314.514,4.5l1.5.028Z" transform="translate(-1078.727 -9484.018)" fill="#ebebeb"/></g><g transform="translate(15.412 4.955)"><path d="M1092,9526.46a.24.24,0,0,1-.046,0,.216.216,0,0,1-.177-.254c.574-2.642-.433-7.349-.443-7.4-.555-2-.716-4.564.2-11.092a23.732,23.732,0,0,0-.28-8.564,13.894,13.894,0,0,0-1.049-3.111.208.208,0,0,1,.1-.287.233.233,0,0,1,.3.093,13.892,13.892,0,0,1,1.083,3.2,24.128,24.128,0,0,1,.29,8.729c-.907,6.438-.741,9.027-.212,10.938.046.208,1.039,4.852.447,7.581A.225.225,0,0,1,1092,9526.46Z" transform="translate(-1090.18 -9495.728)" fill="#fff"/></g><g transform="translate(0 18.806)"><path d="M1068.389,9545.254s0-1.154-2.5-2.247a4.061,4.061,0,0,1-2.5-2.855c-.642-2.307-2.44-1.7-3.6-1.032s-3.782,0-3.785-3.461a2.22,2.22,0,0,0-.9-2.794c-1.676-.972-2.319-4.442,1.277-4.407s6.983,1.715,10.466,6.594c4.84,6.781,2.956,10.2,2.956,10.2Z" transform="translate(-1053.759 -9528.457)" fill="#ebebeb"/></g><g transform="translate(3.632 21.238)"><path d="M1074.3,9548.784a.222.222,0,0,1-.216-.28,4.921,4.921,0,0,0,.014-2.265.266.266,0,0,1-.018-.044c-1.941-6.932-11.516-11.538-11.613-11.583a.209.209,0,0,1-.1-.288.232.232,0,0,1,.3-.1c.1.047,9.836,4.732,11.843,11.838a4.81,4.81,0,0,1,0,2.57A.221.221,0,0,1,1074.3,9548.784Z" transform="translate(-1062.343 -9534.205)" fill="#fff"/></g><g transform="translate(18.026 8.527)"><path d="M1098.233,9531.141a4.184,4.184,0,0,0,2.114-4.243c-.516-2.828,2.165-3.461,2.784-3.561s4.64-1.657,4.021-7.362c0,0-.206-3.657.516-4.974s2.526-5.267,0-6.485-4.279.975-5.207,3.217a12.075,12.075,0,0,1-1.341,3.221,14.721,14.721,0,0,0-4.743,12.043l.878,8.145Z" transform="translate(-1096.356 -9504.167)" fill="#ebebeb"/></g><g transform="translate(19.248 13.012)"><path d="M1099.486,9537.469a.222.222,0,0,1-.226-.207c-.261-6.56,2.746-15.111,4.471-17.584a43.11,43.11,0,0,0,2.872-4.79.232.232,0,0,1,.3-.1.209.209,0,0,1,.108.285,43.735,43.735,0,0,1-2.9,4.842c-1.7,2.431-4.654,10.857-4.4,17.331a.221.221,0,0,1-.218.224Z" transform="translate(-1099.244 -9514.766)" fill="#fff"/></g><path d="M1080.744,9580.119h9.722l2.353-12.6H1078.39Z" transform="translate(-1067.967 -9532.183)" fill="#ebebeb"/></g></g></g><g transform="translate(502.008 9160.745)"><g transform="translate(202.713 120.638)"><path d="M1190.476,9656.9c4.95,3.157,2.486,14.854-.349,16.2-2.852,1.357-23.372-16.532-28.129-12.053-3.131,2.948,4.215,28.885-5.694,64.971-.782.4-1.469.961-1.205-.122,6.166-25.144.162-68.7,1.771-69.745C1164.341,9651.239,1172.926,9645.7,1190.476,9656.9Z" transform="translate(-1136.805 -9650.354)" fill="#9999a5"/><path d="M1174.345,9654.428c5,2.877,7.672,13.388,3.941,14.656s-19.276-7.846-25.7-3.718c-4.183,2.688-2.566,27.627-22.281,59.009-.923.313-1.679-.025-1.132-.949,12.807-21.721,18.06-60.2,20.08-61.177C1158.725,9657.655,1156.9,9644.389,1174.345,9654.428Z" transform="translate(-1121.78 -9650.589)" fill="#cfd0d8"/><path d="M1111.946,9819.627l8.528,2.4s-.02-2.906-1.745-3.248S1111.946,9819.627,1111.946,9819.627Z" transform="translate(-1111.946 -9747.472)" fill="#f46973"/><path d="M1141.779,9825.979l8.528,2.4s-.023-2.907-1.745-3.248S1141.779,9825.979,1141.779,9825.979Z" transform="translate(-1129.154 -9751.135)" fill="#f46973"/><path d="M1151.382,9674.471c6.652-4.354,18.507,7.492,22.141,6.131.029-.013-.9-.725-.869-.737,5.944-.161,7.446-4.937,8.533-10.573l1.049.537c-1.284,7-2,13.849-9.388,13.856-.03.012.9.721.87.733-3.735,1.27-14.693-12.491-21.112-8.363-4.183,2.688-2.566,27.626-22.281,59.009-.722.245-1.33.085-1.3-.433C1149.586,9701.389,1147.031,9677.319,1151.382,9674.471Z" transform="translate(-1121.795 -9661.277)" fill="#9999a5"/></g><g transform="translate(264.84 79.459)"><path d="M1261.406,9745.672h-1.616l4.579-53.371,3.435.2,37.8.453v9.692h-.1l5.344,43.312h-1.616l-9.277-43.312h-29.958Z" transform="translate(-1259.353 -9633.371)" fill="#0080af"/><path d="M1352.8,9558.2c1.549-6.589,10.38-5.275,18.146-4.507,5.584.547,6.941,2.819,6.656,8.434l-6.664,48.726c-.27,5.6-4.845,9.308-10.147,8.224s-16.226-4.65-15.809-10.249Z" transform="translate(-1308.488 -9553.045)" fill="#03b4e9"/><path d="M1274.546,9763.373h-1.328l5.055-49.21-8.426-7.611,24.738-.165,29.129-.309-.112,8.085,5.809,49.507h-1.076l-10.091-49.507h-34.371Z" transform="translate(-1265.154 -9641.317)" fill="#03b4e9"/><path d="M1259.213,9690.395a1.991,1.991,0,0,1,1.53-3.254l30.079-.121a25.526,25.526,0,0,1,8,1.5l16.915,5.627c.042.014.085.029.126.045,2.028.812,1.839,1.494-.451,1.494l-51.025-.121a1.991,1.991,0,0,1-1.534-.729Z" transform="translate(-1258.757 -9630.325)" fill="#219ecc"/></g><g transform="translate(55.796 74.978)"><path d="M855.941,9735.083h1.616l-4.579-53.372-3.435.2-37.8.453v9.692h.1l-5.344,43.313h1.616l9.277-43.312h29.958Z" transform="translate(-788.842 -9622.781)" fill="#0080af"/><path d="M789.607,9547.61c-1.549-6.588-10.38-5.275-18.146-4.507-5.583.548-6.941,2.82-6.656,8.434l6.663,48.726c.27,5.6,4.845,9.308,10.147,8.224s16.226-4.649,15.809-10.249Z" transform="translate(-764.77 -9542.455)" fill="#03b4e9"/><path d="M831.2,9752.784h1.328l-5.055-49.209,8.426-7.613-24.738-.165-29.129-.308.112,8.086-5.809,49.507h1.076l10.091-49.507h34.371Z" transform="translate(-771.443 -9630.729)" fill="#03b4e9"/><path d="M847.972,9679.8a1.991,1.991,0,0,0-1.531-3.254l-30.079-.121a25.5,25.5,0,0,0-8,1.5l-16.915,5.627c-.042.014-.085.029-.125.045-2.029.812-1.839,1.494.451,1.494l51.024-.121a1.991,1.991,0,0,0,1.534-.729Z" transform="translate(-779.276 -9619.733)" fill="#219ecc"/></g><g transform="translate(229.925 19.507)"><g transform="translate(3.785 103.68)"><path d="M1257.522,9660.548c6.4,1.573,6.543,13.654,3.671,15.813-2.889,2.171-48.415-5.08-52.679.7-2.8,3.8,11.642,25.655,9.478,63.632-.788.619-3.123.591-3.095-.538.671-26.235-17.058-66.666-15.5-68.172C1206.628,9664.983,1234.839,9654.967,1257.522,9660.548Z" transform="translate(-1193.332 -9657.844)" fill="#2d356b"/><path d="M1273.31,9662.644c6.384,1.287,2.014,13.821-1.9,16.174s-48.881-2.978-55.115,2.953c-4.062,3.865,3.208,24.83-11.246,61.192-.964.583-3.226.558-2.841-.5,9.054-24.92,4.583-63.775,6.625-65.331C1218.406,9669.83,1251.04,9658.15,1273.31,9662.644Z" transform="translate(-1194.986 -9659.415)" fill="#40558d"/><path d="M1185.2,9852.227l10.26-.232s-.754-2.812-2.791-2.625S1185.2,9852.227,1185.2,9852.227Z" transform="translate(-1185.196 -9767.694)" fill="#9898a4"/><path d="M1220.574,9849.415l10.26-.233s-.754-2.812-2.791-2.626S1220.574,9849.415,1220.574,9849.415Z" transform="translate(-1205.603 -9766.07)" fill="#9898a4"/><path d="M1347.4,9675.749c3.931-1.364,7.575-9.086,7.27-16.295l-20.163-3.077-.565,6.238S1342.959,9677.29,1347.4,9675.749Z" transform="translate(-1270.997 -9656.377)" fill="#40558d"/><path d="M1355.351,9662.271l-.232,2.268-17.073-4.139-.032-1.415Z" transform="translate(-1273.345 -9657.88)" fill="#cecfd7"/><path d="M1371.026,9662.959l1.131.143-.679,5.183-1.131-.145Z" transform="translate(-1291.996 -9660.173)" fill="#40558d"/><path d="M1359.975,9662.207l1.132.143-.679,5.182-1.132-.142Z" transform="translate(-1285.621 -9659.739)" fill="#40558d"/><path d="M1347.216,9659.823l1.131.143-.68,5.183-1.13-.142Z" transform="translate(-1278.262 -9658.364)" fill="#40558d"/></g><g transform="translate(47.542 23.15)"><path d="M1312.031,9501.687l1.033.191.722,2.418-2.1,1.246Z" transform="translate(-1301.914 -9486.618)" fill="#eaeaea"/><path d="M1314.244,9470.925l8.708-4.847,2.693,14.83-12.629,5.9Z" transform="translate(-1302.682 -9466.078)" fill="#f7c371"/><path d="M1294.536,9585.378l18.291,2.673,5.04,26.058-15.364,3.068Z" transform="translate(-1292.023 -9534.893)" fill="#eaeaea"/><path d="M1331.172,9572.4c-11.173,1.438-24.747-.683-32.434-12.555-4.159-6.425-5.9-17.815-7.848-29.068-2.6-15.041,11.124-37.432,25.214-35.055,19.583,3.3,11.165,29.659,9.978,36.453C1322.606,9552.073,1330.077,9568.262,1331.172,9572.4Z" transform="translate(-1289.735 -9483.076)" fill="#40558d"/><path d="M1338.466,9587.3c-.614-4.978-.7-20.536,5.928-38.874,1.285-3.558,1.8-13.666,2.465-22.143.248-3.165,6.388,1.9,8.328,9.274,1.2,4.574-1.176,11.19-1.629,13.792-3.476,19.9,3.993,36.087,5.089,40.227C1352.188,9590.405,1344.928,9590.043,1338.466,9587.3Z" transform="translate(-1317.209 -9500.252)" fill="#7b87ab"/><path d="M1294.174,9544.837c-1.639-19.667,10.8-40.916,23.571-48.191,2.146-1.223-.119-2.634-6.514-1.163C1305.513,9496.821,1283.825,9511.525,1294.174,9544.837Z" transform="translate(-1290.222 -9482.676)" fill="#7b87ab"/><path d="M1292.227,9532.828c0-16.719,4.969-26.168,18.165-36.488-5.575,1.307-26.982,11.991-18.446,43.409C1292.163,9540.55,1292.227,9535.717,1292.227,9532.828Z" transform="translate(-1289.383 -9483.533)" fill="#eaeaea"/><path d="M1306.649,9635.135c-.185-.674.042-1.325.507-1.452s.993.315,1.178.989-.042,1.323-.507,1.451S1306.835,9635.809,1306.649,9635.135Z" transform="translate(-1298.973 -9562.743)" fill="#7b87ab"/><path d="M1301.456,9616.26c-.185-.674.042-1.323.507-1.452s.993.314,1.178.988-.041,1.324-.507,1.452S1301.642,9616.934,1301.456,9616.26Z" transform="translate(-1295.977 -9551.856)" fill="#7b87ab"/><path d="M1315.382,9504.438l-3.2,1.614.678-3.812.591-.429Z" transform="translate(-1302.202 -9486.689)" fill="#02928f"/><path d="M1291.332,9549.415l.156-6.77s-5.776-20.27,7.766-32.653l-.253-.5C1287.923,9520.074,1286.261,9535.924,1291.332,9549.415Z" transform="translate(-1288.597 -9491.12)" fill="#02928f"/><path d="M1312.5,9494.446l12.718-5.311,2.036,2.418-11.831,6.78Z" transform="translate(-1302.387 -9479.379)" fill="#fff"/></g><g transform="translate(49.938)"><path d="M1315.153,9435.6c5.215-8.716,2.629-21.311,2.247-21.706-4.076-4.217-13.37-2.316-17.887-.289-3.81,1.709-6.585,4.41-4.115,7.2.853.964,3.63-1.961,4.616-1.987,1.865-.047,6.964,24.905,6.964,24.905Z" transform="translate(-1294.375 -9411.372)" fill="#c3e8e6"/><g transform="translate(0 6.577)"><path d="M1300.679,9476.281l-1.189-1.443,1.154-.988Z" transform="translate(-1297.276 -9453.986)" fill="#ffd8a3"/><path d="M1314.462,9448.219c-.437,2.247-6.335,7.785-12.9,8.46-2-8.376-3.759-22.431-2.533-25.054,1.207-2.582,7.2-5.229,8.073-4.625-1.879,3.062,3.144,11.6,4.6,12.233C1315.254,9440.782,1314.917,9445.874,1314.462,9448.219Z" transform="translate(-1296.775 -9426.913)" fill="#ffd8a3"/><path d="M1294.258,9465.987a60.7,60.7,0,0,0,2.151-7.637c.58-2.817,1.712,7.058,1.712,7.058S1295.313,9466.511,1294.258,9465.987Z" transform="translate(-1294.258 -9444.754)" fill="#ffd8a3"/><path d="M1303.233,9494.427c-.7-.183-1.12-.758-.938-1.286a1.306,1.306,0,0,1,1.6-.626c.7.181,1.121.757.939,1.286A1.309,1.309,0,0,1,1303.233,9494.427Z" transform="translate(-1298.869 -9464.722)" fill="#ffd8a3"/><path d="M1302.213,9486.724c-.048-.167.12-.363.375-.436s.5,0,.547.173-.12.363-.374.436S1302.261,9486.892,1302.213,9486.724Z" transform="translate(-1298.842 -9461.146)" fill="#ffd8a3"/><path d="M1329.708,9453.439c.134-1.6,1.164-2.868,2.3-2.832s1.948,1.358,1.814,2.956a3.552,3.552,0,0,1-3.238,2.778C1329.45,9456.308,1329.574,9455.038,1329.708,9453.439Z" transform="translate(-1314.658 -9440.58)" fill="#ffd8a3"/></g><path d="M1301.775,9477.818l.741,3.428s.951-.243,1.1-.707a12.249,12.249,0,0,0,.174-3.583Z" transform="translate(-1298.594 -9449.203)" fill="#ffab00"/><path d="M1301.961,9478.221l.66,3.044s.7-.17.828-.388a8.728,8.728,0,0,0,.173-3.393Z" transform="translate(-1298.702 -9449.506)" fill="#fff"/><path d="M1299.978,9452.281a.85.85,0,0,1,.131-.587c.294-.418,3.361.046,3.416.663l.033.387c.04.444-.9.109-1.8.12-.856.01-1.662.386-1.714-.031Z" transform="translate(-1297.553 -9434.538)" fill="#2d356b"/><path d="M1303.711,9459.385c-.094-.51.107-1,.448-1.1s.693.237.787.747-.106,1-.447,1.1S1303.806,9459.895,1303.711,9459.385Z" transform="translate(-1299.697 -9438.422)" fill="#2d356b"/><path d="M1306.368,9476.771c-.033-.116.006-.229.089-.254s.175.053.208.17a.2.2,0,0,1-.088.254C1306.494,9476.964,1306.4,9476.888,1306.368,9476.771Z" transform="translate(-1301.237 -9448.947)" fill="#ffab00"/><g transform="translate(0.126 2.095)"><path d="M1319.094,9429.993c-2.787.661,3.707,12.7,2.427,13.847s.3,1.963,1.007,1.555c1.616-.936,1.328-4.589,1.072-6.9C1323.314,9435.914,1319.33,9429.938,1319.094,9429.993Z" transform="translate(-1308.305 -9424.208)" fill="#c3e8e6"/><path d="M1294.781,9423.152c-.785-1.959.55-4.338,2.982-5.312s9.752-2.538,10.537-.581-5.26,6.7-7.693,7.673S1295.566,9425.111,1294.781,9423.152Z" transform="translate(-1294.557 -9416.322)" fill="#c3e8e6"/></g></g><g transform="translate(0 45.1)"><g transform="translate(0 35.806)"><path d="M1209.454,9609.667c-3.76.562-10.226,7.337-11.892,4.469-1.494-2.567-.092-8.9,11.327-7.361Z" transform="translate(-1188.26 -9604.854)" fill="#ffd9a4"/><path d="M1197.985,9607.556c2.923,4.367-2.411,7.91-4.348,8.637-2.13.8-5.259-1.912-5.247-3.722S1196.865,9605.889,1197.985,9607.556Z" transform="translate(-1183.253 -9605.241)" fill="#ffd9a4"/><path d="M1188.913,9606.986c-3-.766-6.065-3.086-5.481-4.118.656-1.166,2.914,1.324,5.776,1.355,3.1.041,5.045.23,5.094,1.425S1191.918,9607.758,1188.913,9606.986Z" transform="translate(-1180.352 -9602.558)" fill="#ffd9a4"/><path d="M1180.435,9616.215c-2.49.919-4,.825-4.17.137s1.283-1.124,3.77-2.046,5.421-2.709,5.59-2.02S1182.921,9615.288,1180.435,9616.215Z" transform="translate(-1176.251 -9608.081)" fill="#ffd9a4"/><path d="M1182.292,9623.416c-2.3,1.428-4.922,1.643-5.22,1.016s2.125-1.438,4.425-2.866,3.866-2.233,4.163-1.6S1184.59,9621.985,1182.292,9623.416Z" transform="translate(-1176.71 -9612.472)" fill="#ffd9a4"/><path d="M1190.972,9626.456c-2.354,1.335-3.969,1.547-4.248.909s1.437-1.222,3.789-2.555,4.02-2.235,4.3-1.6S1193.327,9625.121,1190.972,9626.456Z" transform="translate(-1182.275 -9614.353)" fill="#ffd9a4"/></g><g transform="translate(51.863)"><path d="M1300.321,9555.853c1.682,2.479,23.414-11.446,32.094-25.978,0,0,2.727-25.821-20.643-1.484C1311.772,9528.391,1293.533,9545.846,1300.321,9555.853Z" transform="translate(-1298.807 -9517.946)" fill="#40558d"/></g></g></g><g transform="translate(94.804 97.582)"><path d="M880.24,9620.4c-3.641,4.227-22.93-20.088-23.291-21.221,0,0,.19-4.111,2.781-3.17C863.127,9597.247,881.867,9618.51,880.24,9620.4Z" transform="translate(-856.949 -9595.872)" fill="#9ea9fc"/><path d="M909.77,9644.52l.378-1.667-4.193-4.949s-1.261,2.741-1.156,3.479S909.77,9644.52,909.77,9644.52Z" transform="translate(-884.547 -9620.116)" fill="#9ea9fc"/><path d="M906.476,9650.9l-1.015,1.354-6.4-.062s1.265-2.723,1.889-3.112S906.476,9650.9,906.476,9650.9Z" transform="translate(-881.241 -9626.537)" fill="#9ea9fc"/></g><g transform="translate(56.536 23.176)"><g transform="translate(0 1.491)"><path d="M809.118,9474.031c4.649-5.753-3.829-5.862-4-10.365s.976-3.219.978-9.058-1.794-7.793-2.314-11.13,1.05-9.1-1.383-13.109-3.424-2.428-5.51-5.6-3.229.705-5.838,2.541-6.78-5.843-11.3-2.173-3.306,9.843-4.352,13.513-5.739,5.671-5.741,12.01,3.3,4.506,2.258,9.01-5.392,4.67-5.394,11.011c0,0,.172,6.338,7.127,5.173s5.216,2.838,12.519-.5,5.564,3.672,10.606.5S804.966,9479.168,809.118,9474.031Z" transform="translate(-766.52 -9423.565)" fill="#2d356b"/></g><g transform="translate(29.84 40.149)"><path d="M837.744,9515.036c7.291-2.461,12.353,34.048,11.967,35.4,0,0-2.623,2.712-3.672,1.441C843.331,9548.59,834.487,9516.136,837.744,9515.036Z" transform="translate(-837.034 -9514.917)" fill="#9ea9fc"/></g><g transform="translate(17.229 21.524)"><path d="M815.518,9470.905l6.47,3.8,1.546,13.7-5.159-1.694Z" transform="translate(-812.013 -9470.905)" fill="#f6cda2"/><path d="M834.252,9565.848c-12.94,8.279-18.022,5.464-25.686,5.354-.482-10.859,5.458-18.482,5.334-26.078-.226-14.079-12.677-30.258-2.969-36.911,10.31-7.067,23.711,23.763,23.711,23.763C824.308,9538.2,829.3,9549.149,834.252,9565.848Z" transform="translate(-807.234 -9491.819)" fill="#495bd9"/><path d="M817.6,9506.235l1.839-.271,8.481,7.521-2.383,2.137S819.834,9510.136,817.6,9506.235Z" transform="translate(-813.213 -9491.13)" fill="#fff"/><path d="M834.255,9515.475l.113-.089c-2.306-4.28-7.262-10.794-11.846-10.229C826.816,9508.764,834.255,9515.475,834.255,9515.475Z" transform="translate(-816.053 -9490.644)" fill="#f6cda2"/></g><g transform="translate(10.196)"><path d="M807.509,9449.389c-3.464-.951-10.439-2.061-13.8-7.292-4.369-6.8-3.259-11.006-1.8-16.124,2.776-9.756,19.417-5.188,18.376-2.313C808.9,9427.477,820.063,9452.834,807.509,9449.389Z" transform="translate(-790.615 -9420.043)" fill="#2d356b"/><path d="M828.145,9456.84c1.263,0,3.523-6.527,4.2-11.532.222-1.65-1.555-1.844-1.443-7.474.065-3.307-1.461-7.882-7-11.164-5.225-3.1-5.613,7.158-6.061,9.528-1.275,6.749-3,10.989-1.268,14.255C819.953,9456.832,826.78,9456.515,828.145,9456.84Z" transform="translate(-805.167 -9423.532)" fill="#ffd8a3"/><path d="M844.356,9477.608a.29.29,0,0,1,.263-.316.306.306,0,0,1,.253.335.293.293,0,0,1-.264.316A.306.306,0,0,1,844.356,9477.608Z" transform="translate(-821.614 -9453.065)" fill="#ffab00"/><path d="M842.636,9456.284c.03-.889.55-1.583,1.159-1.552s1.082.776,1.051,1.663-.549,1.583-1.159,1.551S842.606,9457.172,842.636,9456.284Z" transform="translate(-820.621 -9440.053)" fill="#2d356b"/><path d="M839.718,9456.289c.855-1.229,2.074-2.455,4.4-1.641A8.476,8.476,0,0,0,839.718,9456.289Z" transform="translate(-818.939 -9439.853)" fill="#2d356b"/><path d="M848.285,9486.4c.038-.207.671.523.972.55.85.072.608,1.156-.241,1C848.685,9487.888,848.245,9486.621,848.285,9486.4Z" transform="translate(-823.879 -9458.298)" fill="#f36973"/><path d="M846.533,9477.713c-.576-.229,3.312-1.35,2.608-.031A6.141,6.141,0,0,1,846.533,9477.713Z" transform="translate(-822.836 -9452.927)" fill="#f36973"/><path d="M841.712,9444.661a5.176,5.176,0,0,0-6.24,3.255C837.153,9445.613,838.457,9444.752,841.712,9444.661Z" transform="translate(-816.49 -9434.159)" fill="#2d356b"/><path d="M853.156,9465.5l-1.954.6-.07-4.991,2.913,3.553Z" transform="translate(-825.522 -9443.73)" fill="#ffd8a3"/><path d="M853,9474.061l1.519-3.091-1.467-.053Z" transform="translate(-826.599 -9449.389)" fill="#ffd8a3"/><path d="M847.515,9482.447a36.861,36.861,0,0,0,.964-4.334h-3.53S845.651,9481.85,847.515,9482.447Z" transform="translate(-821.957 -9453.539)" fill="#ffab00"/><path d="M846.6,9480.379h2.01q.175-.819.323-1.705h-2.885Z" transform="translate(-822.588 -9453.863)" fill="#fff"/><path d="M809.865,9462.646c.08-1.538.6-2.674-.567-2.731s-2.183,1.145-2.263,2.684.807,2.838,1.977,2.9S809.788,9464.189,809.865,9462.646Z" transform="translate(-800.084 -9443.041)" fill="#f7c371"/><path d="M826.426,9426.331c-3.707,5.6-10.2,13.793-8.64,21.776-3.287-8.5-1.82-19.836,3.818-24.5C822.2,9424.457,827.246,9424.2,826.426,9426.331Z" transform="translate(-805.29 -9422.097)" fill="#2d356b"/></g><g transform="translate(11.492 39.321)"><g transform="translate(29.78 15.749)"><path d="M865.508,9569.77c1.743-1.964,8.1-3.152,7.068-5.2-.923-1.833-5.117-3.408-8.528,3.779Z" transform="translate(-864.047 -9557.59)" fill="#ffd9a4"/><path d="M869.788,9562.725c1.425,3.338,5.485,1.587,6.636.738,1.265-.931.876-3.763-.176-4.437S869.246,9561.449,869.788,9562.725Z" transform="translate(-867.339 -9555.227)" fill="#ffd9a4"/><path d="M874.02,9554.9c.688-2.025.5-4.673-.317-4.723-.922-.059-.333,2.185-1.393,3.853-1.145,1.81-1.768,3-1.1,3.484S873.333,9556.932,874.02,9554.9Z" transform="translate(-868.022 -9550.179)" fill="#ffd9a4"/><path d="M881.374,9555.308c1.47-1.095,1.987-2,1.652-2.36s-1.134.317-2.6,1.408-3.61,2.117-3.275,2.473S879.9,9556.4,881.374,9555.308Z" transform="translate(-871.582 -9551.72)" fill="#ffd9a4"/><path d="M885.279,9559.354c1.694-.791,2.807-2.228,2.555-2.637s-1.632.688-3.325,1.48-2.749,1.4-2.5,1.8S883.586,9560.146,885.279,9559.354Z" transform="translate(-874.389 -9553.897)" fill="#ffd9a4"/><path d="M884.012,9565.333c1.659-.858,2.391-1.713,2.128-2.115s-1.249.371-2.907,1.229-2.809,1.483-2.545,1.887S882.353,9566.192,884.012,9565.333Z" transform="translate(-873.625 -9557.637)" fill="#ffd9a4"/></g><path d="M805.1,9513.03c-6.592-1.992-11.771,38.913-11.4,40.331,0,0,3.517,1.521,4.442.06C800.528,9549.642,808.042,9513.922,805.1,9513.03Z" transform="translate(-793.676 -9512.96)" fill="#9ea9fc"/><path d="M823.8,9575.242c2.7,4.688-25.584,14.615-26.737,14.58,0,0-3.112-2.687-2.156-3.646C797.382,9583.694,822.6,9573.146,823.8,9575.242Z" transform="translate(-794.282 -9548.729)" fill="#9ea9fc"/><path d="M857.3,9573.472l-1.19-1.148-6.211.991s1.639,2.424,2.3,2.706S857.3,9573.472,857.3,9573.472Z" transform="translate(-826.108 -9547.202)" fill="#eaeaea"/><path d="M861.345,9574.782l.623,1.544-3.313,5.353s-1.647-2.452-1.656-3.175S861.345,9574.782,861.345,9574.782Z" transform="translate(-830.202 -9548.62)" fill="#eaeaea"/></g></g><g transform="translate(76.236 88.642)"><g transform="translate(0 30.527)"><path d="M848.634,9653.886c-5.164,1.2-5.4,10.918-3.118,12.683,2.3,1.777,40.693-5.066,44.063-.376,2.217,3.086-9.949,21.389-8.6,51.959.626.508,1.132,1.121,1.121.212-.268-21.113,14.411-53.452,13.173-54.678C889.527,9657.979,866.938,9649.632,848.634,9653.886Z" transform="translate(-830.99 -9650.251)" fill="#f7c371"/><path d="M824.266,9655.171c-5.149.969-1.763,11.1,1.358,13.03s40.041-4.081,44.995.756c3.227,3.151-3.526,22.13,7.723,51.531.769.477,1.527.4,1.228-.451-7.025-20.138-3.64-51.389-5.266-52.66C866.683,9661.405,842.226,9651.789,824.266,9655.171Z" transform="translate(-817.997 -9651.259)" fill="#ffd8a3"/><path d="M963.538,9809.344l-8.252-.3s.635-2.252,2.272-2.082S963.538,9809.344,963.538,9809.344Z" transform="translate(-895.105 -9739.218)" fill="#7b87ab"/><path d="M935.107,9806.713l-8.251-.295s.636-2.254,2.272-2.083S935.107,9806.713,935.107,9806.713Z" transform="translate(-878.706 -9737.699)" fill="#7b87ab"/><path d="M823.117,9665.806c-6.809-1.854-6-7.388-5.679-13.185l16.251-2.267.39,5.024S826.766,9666.8,823.117,9665.806Z" transform="translate(-815.471 -9648.885)" fill="#ffcc9b"/><path d="M864.933,9669.423s13.771-8.084,14.071-9.58-18.178-15.437-46.1-12.574a136.017,136.017,0,0,0-19.459,3.293s-3.593,17.662,11.675,16.167S855.153,9660.64,864.933,9669.423Z" transform="translate(-813.073 -9646.882)" fill="#fff3b9"/></g><g transform="translate(11.399)"><rect width="8.276" height="86.004" transform="translate(169.885 30.61)" fill="#9999a5"/><rect width="8.28" height="86.003" transform="translate(19.095 31.301)" fill="#9999a5"/><path d="M840.009,9601.646v3.881h201.286v-3.881l-32.718-26.9H875.13Z" transform="translate(-840.009 -9574.745)" fill="#9999a5"/><rect width="201.474" height="7.642" transform="translate(0 26.902)" fill="#cfd0d8"/></g></g><path d="M1199.5,9592.218c-16.639,12.23-33.59,8.554-39.523,0,15.985-21.716-6.927-56.651,20.35-57.783C1206.607,9533.344,1182.429,9573.7,1199.5,9592.218Z" transform="translate(-936.941 -9462.838)" fill="#c2e7e5"/><path d="M1259.988,9595.677s-10.877,4.086-34.147,4.187a9.3,9.3,0,0,1-.27-7s22.035-9.433,31.549-6.051C1257.12,9586.811,1262.345,9591.9,1259.988,9595.677Z" transform="translate(-974.474 -9492.64)" fill="#40558d"/><g transform="translate(177.513 67.112)"><path d="M1099.432,9596.974l-41.583-.028-5.453-7.325,37.353-.078Z" transform="translate(-1052.396 -9561.75)" fill="#fff"/><g transform="translate(14.765 25.511)"><g transform="translate(5.032 1.017)"><path d="M1109.076,9589.923c-2.077,2.161-4.2,1.721-4.576,1.092-.131-.215,1.77-1.558,3.883-4.356C1108.871,9586.011,1110.373,9588.574,1109.076,9589.923Z" transform="translate(-1102.244 -9586.556)" fill="#f8c471"/><path d="M1101.614,9595c-1.32.636-2.641.923-2.41,1.4s1.631.477,2.951-.159,1.987-1.273,1.83-2.139C1103.89,9593.57,1102.935,9594.368,1101.614,9595Z" transform="translate(-1099.178 -9590.809)" fill="#f8c471"/></g><path d="M1112.29,9592.062c-4.581-3.127-9.927.152-9.715-2.457.189-2.335,3.948-5.809,10.651.33Z" transform="translate(-1096.102 -9585.502)" fill="#ffd9a4"/><path d="M1106.378,9586.627c-.3,2.8-5.122,4.038-6.705,3.638-1.739-.442-2.546-3.605-1.723-4.773S1106.546,9585.051,1106.378,9586.627Z" transform="translate(-1093.251 -9584.592)" fill="#ffd9a4"/><path d="M1090.52,9593.445c-1.778.4-3.349,1.122-3.226,1.668s1.575.3,3.611-.181c1.4-.328,4.061-.144,3.939-.69S1092.561,9592.984,1090.52,9593.445Z" transform="translate(-1087.287 -9589.427)" fill="#ffd9a4"/><path d="M1095.279,9588.605c-1.139.073-1.5.592-1.245,1.069s.952.252,2.091.179,1.831-.223,1.57-.7S1096.419,9588.534,1095.279,9588.605Z" transform="translate(-1091.133 -9586.71)" fill="#ffd9a4"/><path d="M1090.086,9590.468c1.085-.356,1.309-.948.937-1.347s-.984,0-2.069.352-1.716.675-1.344,1.071S1089,9590.824,1090.086,9590.468Z" transform="translate(-1087.411 -9586.92)" fill="#ffd9a4"/><path d="M1097.671,9584.152c-1.142-.015-1.546.472-1.324.97s.929.324,2.071.34,1.842-.08,1.619-.577S1098.813,9584.169,1097.671,9584.152Z" transform="translate(-1092.479 -9584.152)" fill="#ffd9a4"/><path d="M1092.289,9585.769c1.109-.272,1.378-.847,1.038-1.271s-.981-.08-2.09.19-1.764.54-1.423.967S1091.18,9586.039,1092.289,9585.769Z" transform="translate(-1088.693 -9584.235)" fill="#ffd9a4"/></g><path d="M1164.967,9524.177c6.8-4.356,10.047,38.587,8.058,39.906,0,0-4.29-.31-5.447-1.974C1164.081,9557.082,1161.931,9526.122,1164.967,9524.177Z" transform="translate(-1116.494 -9523.866)" fill="#c3e8e6"/><g transform="translate(26.385 26.601)"><path d="M1120.062,9591.882c-1.114,6.248,26.466,11.588,27.724,11.091,0,0,2.364-4.2.928-4.881C1145,9596.339,1120.56,9589.093,1120.062,9591.882Z" transform="translate(-1117.794 -9589.337)" fill="#c3e8e6"/><path d="M1115.043,9588.945l.907-1.6,7.2-.616s-.953,3.144-1.587,3.641S1115.043,9588.945,1115.043,9588.945Z" transform="translate(-1114.918 -9586.726)" fill="#eaeaea"/><path d="M1114.89,9591.651l-.143,1.887,5.539,5.024s.951-3.178.708-3.982S1114.89,9591.651,1114.89,9591.651Z" transform="translate(-1114.747 -9589.567)" fill="#eaeaea"/></g></g><g transform="translate(250.834 79.06)"><path d="M1300.088,9589.542c-1.1-1.5-2.824-3.422-3.444-3.041C1295.38,9587.278,1300.088,9589.542,1300.088,9589.542Z" transform="translate(-1266.481 -9571.915)" fill="#7b87ab"/><path d="M1266.82,9552.1c-4.892,4.064-6.519,12.239-9.587,16.193-9.938-1.728-30.343,5.536-31.572,5.979.072-.328.155-.663.263-1.011,0,0,19.42-8.312,29.669-6.53C1260.031,9561.013,1263.651,9553.724,1266.82,9552.1Z" transform="translate(-1225.661 -9552.102)" fill="#7b87ab"/></g><g transform="translate(209.524 87.991)"><path d="M1129.8,9765.136h-1.117l6.112-55.694,4.155,5.9Z" transform="translate(-1128.411 -9651.788)" fill="#0080af"/><path d="M1179.4,9691.324a23.875,23.875,0,0,0-3.57-3.4c-.551-.423-6.253-6.46-6.253-6.46l-38.056,2.553a16,16,0,0,0-2.346.763c-.8.329-1.214,2.87-1.115,4.973.112,2.3,3.514,6.5,6.7,8.8,4.439,3.207,16.9,2.609,18.674,2.609h2.352c1.775,0,19.924.5,24.366-2.693C1181.761,9697.3,1180.817,9692.878,1179.4,9691.324Z" transform="translate(-1128.042 -9635.652)" fill="#0080af"/><g transform="translate(3.938)"><path d="M1137.347,9780.185h2.021l9.832-61.816h-5.238Z" transform="translate(-1137.347 -9656.938)" fill="#219ecc"/><path d="M1249.267,9780.185h-2.021l-9.832-61.816h5.238Z" transform="translate(-1195.068 -9656.938)" fill="#219ecc"/><g transform="translate(30.774 62.887)"><path d="M1219.409,9771.619H1218.3l-8.235-49.8h4.774Z" transform="translate(-1210.068 -9721.815)" fill="#0080af"/></g><path d="M1158.507,9575.859c-2.808.848-9.555,2.543-10.113,9.322s-4.537,46.326-3.416,48.943c1.41,3.293,5.34,3.378,6.738,1.688,1.417-1.694,9.6-57.138,8.756-57.977S1158.507,9575.859,1158.507,9575.859Z" transform="translate(-1141.634 -9574.736)" fill="#219ecc"/><path d="M1151.078,9631.437c0,3.615,3.885,6.412,8.7,6.3l26.436-.634c4.766-.119,8.842-3.1,9.12-6.7l5.542-49.54c.334-4.291-3.679-7.748-8.97-7.661l-27.543.868c-5.336.1-9.664,3.694-9.664,8.016Z" transform="translate(-1145.267 -9573.206)" fill="#03b4e9"/></g></g><g transform="translate(102.128 80.013)"><path d="M927.34,9583.5h34.979a2.161,2.161,0,0,0,2.126-1.757l4.713-24.819a2.163,2.163,0,0,0-1.721-2.528,2.079,2.079,0,0,0-.4-.038H932.055a2.162,2.162,0,0,0-2.125,1.76l-4.714,24.816a2.159,2.159,0,0,0,2.125,2.566Z" transform="translate(-903.629 -9554.354)" fill="#fff4ba"/><path d="M929.93,9556.671a1.172,1.172,0,1,1,1.726.806l-4.714,24.819a1.172,1.172,0,1,1-1.726-.808Z" transform="translate(-903.629 -9554.91)" fill="#ffd9a4"/><path d="M876.718,9625.685h53.767a2.461,2.461,0,0,0,2.462-2.461h-58.69a2.461,2.461,0,0,0,2.461,2.462Z" transform="translate(-874.256 -9594.078)" fill="#ffac00"/><path d="M874.256,9623.223H896.89a2.643,2.643,0,0,1-2.793,2.462H877.05A2.643,2.643,0,0,1,874.256,9623.223Z" transform="translate(-874.256 -9594.078)" fill="#f8c471"/><circle cx="2.483" cy="2.483" r="2.483" transform="translate(43.21 12.47)" fill="#ffac00"/></g><g transform="translate(272.378 74.478)"><rect width="76.616" height="31.204" rx="6.672" fill="#fff" stroke="#231f20" stroke-miterlimit="10" stroke-width="0.25"/><text transform="translate(15.808 19.102)" fill="#2d356b" font-size="10" font-family="TrebuchetMS-Bold, Trebuchet MS" font-weight="700"><tspan x="0" y="0">Customer</tspan></text></g><g transform="translate(216.921 26.196)"><path d="M1147.643,9480.718c-3.229-5.1,1.769-7.293,1.945-12.095s-4.067-3.734-4.067-9.959,3.89-7.47,4.42-11.027-4.244-4.979-1.768-9.248,5.868-3.847,7.99-7.223,7.426-4.8,10.078-2.847,6.686-3.626,11.283.288,3.359,10.493,4.421,14.406,5.834,6.047,5.834,12.8-3.359,4.8-2.3,9.605,5.481,4.979,5.481,11.739c0,0-.177,6.757-7.249,5.513s-5.305,3.023-12.73-.533-5.659,3.912-10.785.533S1151.356,9486.585,1147.643,9480.718Z" transform="translate(-1145.521 -9427.179)" fill="#f8c471"/></g><g transform="translate(40 74.977)"><rect width="57.98" height="30.204" rx="6.672" fill="#fff" stroke="#231f20" stroke-miterlimit="10" stroke-width="0.25"/><text transform="translate(15.99 18.603)" fill="#2d356b" font-size="10" font-family="TrebuchetMS-Bold, Trebuchet MS" font-weight="700"><tspan x="0" y="0">Akiko</tspan></text></g></g><g transform="translate(341.103 9047.028)"><g transform="translate(0 -7.957)"><g transform="translate(0 34.45)"><path d="M660.126,9282.263c0,2.074-1.973,3.75-4.432,3.75H363.365c-2.458,0-4.431-1.676-4.431-3.75V9186c0-2.064,1.973-3.744,4.431-3.744H655.694c2.459,0,4.432,1.68,4.432,3.744Z" transform="translate(-358.934 -9180.184)" fill="#40558e"/><path d="M663.056,9267.531c-.185.162-28.961,13.772-28.961,13.871H369.02c-2.424,0-4.4-1.685-4.4-3.758V9181.4c0-2.071,1.972-3.737,4.4-3.737H658.683c2.424,0,4.374,1.666,4.374,3.737Z" transform="translate(-362.058 -9177.658)" fill="#fff"/><g transform="translate(273.551 91.41)"><path d="M937.678,9354.813h20.691l-27.521,12.526v-10.646C930.848,9355.656,933.906,9354.813,937.678,9354.813Z" transform="translate(-930.848 -9354.813)" fill="#2d356b"/></g></g><path d="M660.037,9162.469v-36.53c0-1.828-2-3.314-4.443-3.314H363.362c-2.454,0-4.428,1.486-4.428,3.314v36.53Z" transform="translate(-358.934 -9112.997)" fill="#2d356b"/><g transform="translate(20.809)"><path d="M412.731,9113.425c0,1.376-1.673,2.507-3.692,2.507h-.264c-2.033,0-3.706-1.131-3.706-2.507v-9.64c0-1.373,1.673-2.5,3.706-2.5h.264c2.019,0,3.692,1.132,3.692,2.5Z" transform="translate(-405.069 -9101.28)" fill="#fff4ba"/><g transform="translate(23.627)"><path d="M465.114,9113.425c0,1.376-1.674,2.507-3.7,2.507h-.272c-2.026,0-3.692-1.131-3.692-2.507v-9.64c0-1.373,1.666-2.5,3.692-2.5h.272c2.025,0,3.7,1.132,3.7,2.5Z" transform="translate(-457.451 -9101.28)" fill="#fff4ba"/></g><g transform="translate(50.373)"><path d="M517.49,9113.425c0,1.376-1.659,2.507-3.7,2.507h-.249c-2.048,0-3.707-1.131-3.707-2.507v-9.64c0-1.373,1.659-2.5,3.707-2.5h.249c2.04,0,3.7,1.132,3.7,2.5Z" transform="translate(-509.835 -9101.28)" fill="#fff4ba"/></g><g transform="translate(75.544)"><path d="M569.856,9113.425c0,1.376-1.674,2.507-3.692,2.507h-.279c-2.026,0-3.7-1.131-3.7-2.507v-9.64c0-1.373,1.673-2.5,3.7-2.5h.279c2.018,0,3.692,1.132,3.692,2.5Z" transform="translate(-562.186 -9101.28)" fill="#fff4ba"/></g><g transform="translate(100.73)"><path d="M622.224,9113.425c0,1.376-1.659,2.507-3.692,2.507h-.271c-2.027,0-3.693-1.131-3.693-2.507v-9.64c0-1.373,1.666-2.5,3.693-2.5h.271c2.033,0,3.692,1.132,3.692,2.5Z" transform="translate(-614.568 -9101.28)" fill="#fff4ba"/></g><g transform="translate(125.921)"><path d="M674.608,9113.425c0,1.376-1.674,2.507-3.685,2.507h-.279c-2.026,0-3.685-1.131-3.685-2.507v-9.64c0-1.373,1.659-2.5,3.685-2.5h.279c2.011,0,3.685,1.132,3.685,2.5Z" transform="translate(-666.96 -9101.28)" fill="#fff4ba"/></g><g transform="translate(151.1)"><path d="M726.99,9113.425c0,1.376-1.688,2.507-3.7,2.507h-.279c-2.041,0-3.685-1.131-3.685-2.507v-9.64c0-1.373,1.644-2.5,3.685-2.5h.279c2.011,0,3.7,1.132,3.7,2.5Z" transform="translate(-719.327 -9101.28)" fill="#fff4ba"/></g><g transform="translate(176.278)"><path d="M779.342,9113.425c0,1.376-1.659,2.507-3.7,2.507h-.249c-2.041,0-3.7-1.131-3.7-2.507v-9.64c0-1.373,1.659-2.5,3.7-2.5h.249c2.041,0,3.7,1.132,3.7,2.5Z" transform="translate(-771.693 -9101.28)" fill="#fff4ba"/></g><g transform="translate(201.457)"><path d="M831.709,9113.425c0,1.376-1.659,2.507-3.7,2.507h-.264c-2.011,0-3.685-1.131-3.685-2.507v-9.64c0-1.373,1.674-2.5,3.685-2.5h.264c2.04,0,3.7,1.132,3.7,2.5Z" transform="translate(-824.06 -9101.28)" fill="#fff4ba"/></g><g transform="translate(228.18)"><path d="M884.057,9113.425c0,1.376-1.659,2.507-3.685,2.507h-.279c-2.011,0-3.7-1.131-3.7-2.507v-9.64c0-1.373,1.689-2.5,3.7-2.5h.279c2.027,0,3.685,1.132,3.685,2.5Z" transform="translate(-876.394 -9101.28)" fill="#fff4ba"/></g><g transform="translate(251.816)"><path d="M936.457,9113.425c0,1.376-1.673,2.507-3.7,2.507h-.264c-2.04,0-3.7-1.131-3.7-2.507v-9.64c0-1.373,1.659-2.5,3.7-2.5h.264c2.026,0,3.7,1.132,3.7,2.5Z" transform="translate(-928.795 -9101.28)" fill="#fff4ba"/></g></g></g><text transform="translate(13.806 68.601)" fill="#2d356b" font-size="14" font-family="TrebuchetMS-Bold, Trebuchet MS" font-weight="700"><tspan x="0" y="0">Send the customer </tspan><tspan x="0" y="16">an invoice</tspan><tspan x="0" y="32"></tspan><tspan x="0" y="48">Meet again</tspan></text><text transform="translate(159.89 68.528)" fill="#2d356b" font-size="14" font-family="TrebuchetMS-Bold, Trebuchet MS" font-weight="700"><tspan x="0" y="0">Tomorrow</tspan><tspan x="0" y="16"></tspan><tspan x="0" y="32"></tspan><tspan x="0" y="48">Next Thursday</tspan></text><text transform="translate(13.806 32.337)" fill="#fff" font-size="14" font-family="TrebuchetMS-Bold, Trebuchet MS" font-weight="700"><tspan x="0" y="0">To-do </tspan><tspan y="0" fill="#ebebeb" font-size="11" font-family="YuGothicUI-Regular, Yu Gothic UI" font-weight="400">やること</tspan></text><text transform="translate(159.89 32.337)" fill="#fff" font-size="14" font-family="TrebuchetMS-Bold, Trebuchet MS" font-weight="700"><tspan x="0" y="0">By when </tspan><tspan y="0" fill="#ebebeb" font-size="11" font-family="YuGothicUI-Regular, Yu Gothic UI" font-weight="400">いつまでに</tspan></text><path d="M20,0V70.649" transform="translate(127.558 50.528)" fill="none" stroke="#2d356b" stroke-width="1"/></g></g></svg>