<svg xmlns="http://www.w3.org/2000/svg" width="202.116" height="157.83" viewBox="0 0 202.116 157.83">
  <g id="Group_7602" data-name="Group 7602" transform="translate(-393.396 -3061.275)">
    <g id="Group_7600" data-name="Group 7600" transform="translate(393.396 3083.069)">
      <g id="Group_7581" data-name="Group 7581" transform="translate(0 21.972)">
        <path id="Path_9450" data-name="Path 9450" d="M591.16,3318.426l0-.239-15.053-.01-.077-8.991-15.118-.01-.153-8.991-15.118-.01-.088-8.812-15.118-.01v-8.888l-15.119-.136.092-9.013-15.118-.01-.033-9.031-15.118-.01-.015-8.951H470.006v-8.9l-14.97-.166,0-8.757-15.118-.011-.072-8.9-15.118-.01v-8.888H411.274v-11.22H393.4v46.053l108.277,63.909Z" transform="translate(-393.396 -3206.047)" fill="#ebebeb"/>
        <path id="Path_9451" data-name="Path 9451" d="M489.4,3206.6l-4.087,3.077v-11.219l3.9-2.417Z" transform="translate(-467.437 -3196.037)" fill="#cfd0d8"/>
        <path id="Path_9452" data-name="Path 9452" d="M554.5,3298.562l15.118.01,4.289-3.15-15.243-.069-4.164,3.208" transform="translate(-523.168 -3276.038)" fill="#cfd0d8"/>
        <path id="Path_9453" data-name="Path 9453" d="M558.794,3250.33l-4.292,3.077v8.9l4.164-3.208Z" transform="translate(-523.168 -3239.771)" fill="#cfd0d8"/>
        <path id="Path_9454" data-name="Path 9454" d="M636.51,3296.135l-4.292,3.077v8.9l4.164-3.208Z" transform="translate(-585.769 -3276.667)" fill="#cfd0d8"/>
        <path id="Path_9455" data-name="Path 9455" d="M632.6,3344.367l15.118.01,4.289-3.15-15.243-.068-4.164,3.208" transform="translate(-586.079 -3312.934)" fill="#cfd0d8"/>
        <path id="Path_9456" data-name="Path 9456" d="M714.611,3341.159l-4.292,3.077v8.9l4.164-3.208Z" transform="translate(-648.68 -3312.934)" fill="#cfd0d8"/>
        <path id="Path_9457" data-name="Path 9457" d="M791.581,3386.55l-4.292,3.313v8.9l4.164-3.208Z" transform="translate(-710.68 -3349.496)" fill="#cfd0d8"/>
        <path id="Path_9458" data-name="Path 9458" d="M710.319,3389.4l14.97.166,4.292-3.313-15.129-.072-4.133,3.219" transform="translate(-648.68 -3349.2)" fill="#cfd0d8"/>
        <path id="Path_9459" data-name="Path 9459" d="M787.29,3435.994l15.118.01,4.306-3.013-15.261-.205-4.164,3.208" transform="translate(-710.68 -3386.74)" fill="#cfd0d8"/>
        <path id="Path_9460" data-name="Path 9460" d="M865.095,3482.072l15.118.011,4.289-3.15-15.243-.069-4.164,3.208" transform="translate(-773.352 -3423.856)" fill="#cfd0d8"/>
        <path id="Path_9461" data-name="Path 9461" d="M942.992,3528.558l15.118.011,4.2-3.085-15.155-.133-4.164,3.208" transform="translate(-836.099 -3461.301)" fill="#cfd0d8"/>
        <path id="Path_9462" data-name="Path 9462" d="M1020.246,3574.954l15.119.136,4.292-3.077-15.247-.267-4.164,3.208" transform="translate(-898.327 -3498.673)" fill="#cfd0d8"/>
        <path id="Path_9463" data-name="Path 9463" d="M1097.98,3621.35l15.118.01,4.289-3.149-15.243-.069-4.164,3.208" transform="translate(-960.943 -3536.045)" fill="#cfd0d8"/>
        <path id="Path_9464" data-name="Path 9464" d="M1176.16,3666.71l15.118.01,4.289-3.149-15.243-.069-4.164,3.208" transform="translate(-1023.917 -3572.583)" fill="#cfd0d8"/>
        <path id="Path_9465" data-name="Path 9465" d="M1254.675,3712.992l15.118.01,4.289-3.149-15.243-.068-4.164,3.208" transform="translate(-1087.161 -3609.864)" fill="#cfd0d8"/>
        <path id="Path_9466" data-name="Path 9466" d="M1332.8,3759.274l15.118.011,4.289-3.15-15.243-.069-4.164,3.208" transform="translate(-1150.092 -3647.144)" fill="#cfd0d8"/>
        <path id="Path_9467" data-name="Path 9467" d="M869.325,3433.84l-4.306,3.014.015,8.961,4.164-3.208Z" transform="translate(-773.291 -3387.589)" fill="#cfd0d8"/>
        <path id="Path_9468" data-name="Path 9468" d="M947.249,3479.217l-4.256,3.15v9.041l4.164-3.208Z" transform="translate(-836.099 -3424.14)" fill="#cfd0d8"/>
        <path id="Path_9469" data-name="Path 9469" d="M1024.54,3526.035l-4.2,3.085-.092,9.024,4.164-3.208Z" transform="translate(-898.327 -3461.853)" fill="#cfd0d8"/>
        <path id="Path_9470" data-name="Path 9470" d="M1102.272,3573.118l-4.292,3.077v8.9l4.164-3.208Z" transform="translate(-960.943 -3499.778)" fill="#cfd0d8"/>
        <path id="Path_9471" data-name="Path 9471" d="M1180.452,3618.142l-4.292,3.077v8.9l4.164-3.208Z" transform="translate(-1023.917 -3536.045)" fill="#cfd0d8"/>
        <path id="Path_9472" data-name="Path 9472" d="M1258.967,3663.5l-4.292,3.077v9.132l4.164-3.208Z" transform="translate(-1087.161 -3572.583)" fill="#cfd0d8"/>
        <path id="Path_9473" data-name="Path 9473" d="M1337.092,3710.569l-4.292,3.077v8.98l4.164-3.208Z" transform="translate(-1150.092 -3610.496)" fill="#cfd0d8"/>
        <path id="Path_9474" data-name="Path 9474" d="M1414.5,3759.808l.048-3.389-4.354,3.15,0,.239Z" transform="translate(-1212.436 -3647.428)" fill="#cfd0d8"/>
        <path id="Path_9475" data-name="Path 9475" d="M710.319,3356.98" transform="translate(-648.679 -3325.677)" fill="#cfd0d8"/>
        <path id="Path_9476" data-name="Path 9476" d="M489.4,3250.33h13.661l-4.292,3.077H485.314Z" transform="translate(-467.437 -3239.771)" fill="#cfd0d8"/>
      </g>
      <g id="Group_7599" data-name="Group 7599" transform="translate(73.418 -18.793)">
        <g id="Group_7598" data-name="Group 7598">
          <g id="Group_7593" data-name="Group 7593" transform="translate(9.722)">
            <g id="Group_7582" data-name="Group 7582" transform="translate(4.722 68.213)">
              <path id="Path_9477" data-name="Path 9477" d="M951.982,3404.711l6.165,1.159c5.421,19.365,4.089,42.45,16.2,81.987,0,0-1.157.5-1.324,0-10.079-30.572-15.591-54.541-17.547-57.834C951.134,3422.7,945.7,3416.483,951.982,3404.711Z" transform="translate(-932.336 -3401.725)" fill="#ffd8a3"/>
              <path id="Path_9478" data-name="Path 9478" d="M891.844,3399.186c-7.587,14.149-1.906,13.053-1.659,20.371.711,21.1-12.743,31.837-16.92,64.116,0,0,1.654-.084,1.7-.55,2.595-25.752,25.414-50.391,26.353-74.3.061-1.542.128-6.147-1.67-7.795C896.9,3398.506,891.843,3399.186,891.844,3399.186Z" transform="translate(-873.264 -3397.357)" fill="#f7c371"/>
              <path id="Path_9479" data-name="Path 9479" d="M878.374,3776.106h-4.958s-.24-1.407.866-1.633C874.979,3774.331,876.211,3774.658,878.374,3776.106Z" transform="translate(-873.365 -3689.611)" fill="#7b88ac"/>
              <path id="Path_9480" data-name="Path 9480" d="M1061.4,3776.656h-4.358s-.211-1.407.762-1.633C1058.414,3774.882,1059.5,3775.209,1061.4,3776.656Z" transform="translate(-1016.344 -3690.04)" fill="#7b88ac"/>
              <path id="Path_9481" data-name="Path 9481" d="M914.879,3441.165s20.813,3.347,25.582,2.008c0,0-4.553-47.295-7.8-50.2s-9.106-1.338-9.106-1.338a18.4,18.4,0,0,0-3.035,19.632C924.852,3421.532,914.879,3441.165,914.879,3441.165Z" transform="translate(-905.667 -3391.219)" fill="#219ecc"/>
            </g>
            <g id="Group_7592" data-name="Group 7592">
              <g id="Group_7588" data-name="Group 7588">
                <g id="Group_7587" data-name="Group 7587">
                  <g id="Group_7583" data-name="Group 7583" transform="translate(0 1.262)">
                    <path id="Path_9482" data-name="Path 9482" d="M881.7,3125.689c3.656-3.741-2.306-4.382-2.128-7.565s.9-2.2,1.29-6.312-.745-5.6-.89-7.989,1.345-6.34-.1-9.322-2.249-1.937-3.507-4.306-2.32.281-4.279,1.4-4.385-4.564-7.812-2.281-2.982,6.709-3.962,9.224-4.417,3.611-4.84,8.073,2.025,3.392.99,6.494-4.106,2.929-4.529,7.393c0,0-.3,4.474,4.674,4.115s3.484,2.345,8.847.483,3.673,2.955,7.434,1.059S878.437,3129.031,881.7,3125.689Z" transform="translate(-851.931 -3088.77)" fill="#2d356b"/>
                  </g>
                  <g id="Group_7584" data-name="Group 7584" transform="translate(15.213 15.462)">
                    <path id="Path_9483" data-name="Path 9483" d="M935.395,3152.918l4.594,2.886.824,9.934-3.691-1.335Z" transform="translate(-932.132 -3152.918)" fill="#f7c371"/>
                    <path id="Path_9484" data-name="Path 9484" d="M938.06,3250.4c-2.952-1.934-9.806-6.209-17.406-.916,2.273-6.676,4.337-13.239,4.411-18.73.136-10.178-8.515-22.135-1.357-26.737,7.6-4.886,16.626,17.678,16.626,17.678C932.733,3225.968,934.836,3238.225,938.06,3250.4Z" transform="translate(-920.654 -3192.165)" fill="#219ecc"/>
                    <path id="Path_9485" data-name="Path 9485" d="M936.815,3201.765l1.335-.157,5.968,5.614-1.767,1.493S938.346,3204.63,936.815,3201.765Z" transform="translate(-933.238 -3190.83)" fill="#fff"/>
                    <path id="Path_9486" data-name="Path 9486" d="M951.933,3208.236l.084-.061c-1.575-3.142-5.017-7.955-8.341-7.646C946.7,3203.229,951.933,3208.236,951.933,3208.236Z" transform="translate(-938.58 -3189.979)" fill="#f7c371"/>
                  </g>
                  <g id="Group_7586" data-name="Group 7586" transform="translate(10.567)">
                    <g id="Group_7585" data-name="Group 7585">
                      <path id="Path_9487" data-name="Path 9487" d="M911.614,3103.821c-2.45-.672-7.382-1.457-9.759-5.156-3.089-4.808-2.3-7.783-1.275-11.4,1.963-6.9,13.731-3.668,13-1.636C912.6,3088.325,920.492,3106.257,911.614,3103.821Z" transform="translate(-899.668 -3083.069)" fill="#2d356b"/>
                      <path id="Path_9488" data-name="Path 9488" d="M942.471,3112.99c.893,0,2.491-4.615,2.968-8.155.157-1.167-1.1-1.3-1.021-5.286.046-2.337-1.033-5.573-4.947-7.894-3.7-2.192-3.969,5.062-4.286,6.737-.9,4.773-2.121,7.771-.9,10.081C936.679,3112.984,941.507,3112.76,942.471,3112.99Z" transform="translate(-926.222 -3089.436)" fill="#ffd8a3"/>
                      <path id="Path_9489" data-name="Path 9489" d="M972.319,3160.684a.206.206,0,0,1,.186-.224.217.217,0,0,1,.178.237.206.206,0,0,1-.187.223A.216.216,0,0,1,972.319,3160.684Z" transform="translate(-956.237 -3143.329)" fill="#ffab00"/>
                      <path id="Path_9490" data-name="Path 9490" d="M969.992,3131.06c.021-.628.389-1.119.82-1.1s.765.549.743,1.176-.388,1.119-.82,1.1S969.971,3131.688,969.992,3131.06Z" transform="translate(-954.424 -3119.582)" fill="#2d356b"/>
                      <path id="Path_9491" data-name="Path 9491" d="M966.049,3130.84a2.444,2.444,0,0,1,3.11-1.16A6,6,0,0,0,966.049,3130.84Z" transform="translate(-951.355 -3119.218)" fill="#2d356b"/>
                      <path id="Path_9492" data-name="Path 9492" d="M977.628,3172.754c.027-.145.475.371.687.389.6.051.43.818-.17.706C977.911,3173.8,977.6,3172.908,977.628,3172.754Z" transform="translate(-960.369 -3152.881)" fill="#f36973"/>
                      <path id="Path_9493" data-name="Path 9493" d="M975.225,3160.6c-.407-.162,2.342-.954,1.844-.022A4.317,4.317,0,0,1,975.225,3160.6Z" transform="translate(-958.467 -3143.075)" fill="#f36973"/>
                      <path id="Path_9494" data-name="Path 9494" d="M964.721,3116.252a3.661,3.661,0,0,0-4.412,2.3A4.7,4.7,0,0,1,964.721,3116.252Z" transform="translate(-946.885 -3108.825)" fill="#2d356b"/>
                      <path id="Path_9495" data-name="Path 9495" d="M982.91,3141.691l-1.382.423-.05-3.53,2.06,2.513Z" transform="translate(-963.368 -3126.295)" fill="#ffd8a3"/>
                      <path id="Path_9496" data-name="Path 9496" d="M984,3154.068l1.074-2.186-1.037-.037Z" transform="translate(-965.334 -3136.621)" fill="#ffd8a3"/>
                      <path id="Path_9497" data-name="Path 9497" d="M974.935,3164.636a26.072,26.072,0,0,0,.682-3.064h-2.5S973.617,3164.215,974.935,3164.636Z" transform="translate(-956.861 -3144.195)" fill="#ffab00"/>
                      <path id="Path_9498" data-name="Path 9498" d="M974.991,3163.534h1.422q.124-.578.228-1.205H974.6Z" transform="translate(-958.013 -3144.784)" fill="#fff"/>
                      <path id="Path_9499" data-name="Path 9499" d="M923.865,3138.9c.056-1.089.425-1.891-.4-1.932s-1.544.809-1.6,1.9a1.787,1.787,0,0,0,1.4,2.047C924.09,3140.956,923.81,3139.992,923.865,3138.9Z" transform="translate(-916.948 -3125.036)" fill="#f7c371"/>
                    </g>
                    <path id="Path_9500" data-name="Path 9500" d="M941.4,3089.811c-2.622,3.962-7.216,9.754-6.11,15.4-2.324-6.01-1.287-14.027,2.7-17.327C938.4,3088.485,941.974,3088.3,941.4,3089.811Z" transform="translate(-926.448 -3086.817)" fill="#2d356b"/>
                  </g>
                </g>
              </g>
              <path id="Path_9501" data-name="Path 9501" d="M921.463,3325.141a8.742,8.742,0,0,1,7.845,7.351c1.148,6.907,1.095-.033,1.095-.033s-1-9.691-9.749-8.105" transform="translate(-905.441 -3270.805)" fill="#cfd0d8"/>
              <g id="Group_7591" data-name="Group 7591" transform="translate(10.723 29.794)">
                <g id="Group_7589" data-name="Group 7589" transform="translate(20.627 10.909)">
                  <path id="Path_9502" data-name="Path 9502" d="M994.567,3288.625c1.207-1.36,5.61-2.183,4.9-3.6-.64-1.269-3.544-2.361-5.907,2.618Z" transform="translate(-993.555 -3280.189)" fill="#ffd9a4"/>
                  <path id="Path_9503" data-name="Path 9503" d="M1001.136,3281.158c.987,2.312,3.8,1.1,4.6.512.876-.645.607-2.606-.122-3.075S1000.76,3280.273,1001.136,3281.158Z" transform="translate(-999.439 -3275.964)" fill="#ffd9a4"/>
                  <path id="Path_9504" data-name="Path 9504" d="M1004.815,3270.214c.476-1.4.346-3.236-.22-3.271-.638-.042-.23,1.513-.964,2.669-.793,1.253-1.225,2.082-.759,2.414S1004.339,3271.619,1004.815,3270.214Z" transform="translate(-1000.66 -3266.941)" fill="#ffd9a4"/>
                  <path id="Path_9505" data-name="Path 9505" d="M1013.806,3272.18c1.018-.759,1.376-1.388,1.144-1.635s-.786.22-1.8.976-2.5,1.466-2.269,1.713S1012.787,3272.934,1013.806,3272.18Z" transform="translate(-1007.024 -3269.695)" fill="#ffd9a4"/>
                  <path id="Path_9506" data-name="Path 9506" d="M1019.583,3277.369c1.173-.549,1.944-1.543,1.769-1.827s-1.13.476-2.3,1.025-1.9.967-1.729,1.25S1018.411,3277.917,1019.583,3277.369Z" transform="translate(-1012.04 -3273.591)" fill="#ffd9a4"/>
                  <path id="Path_9507" data-name="Path 9507" d="M1017.87,3285.6c1.149-.595,1.656-1.187,1.474-1.465s-.865.257-2.013.852-1.945,1.028-1.763,1.307S1016.721,3286.2,1017.87,3285.6Z" transform="translate(-1010.675 -3280.271)" fill="#ffd9a4"/>
                </g>
                <g id="Group_7590" data-name="Group 7590">
                  <path id="Path_9508" data-name="Path 9508" d="M908.285,3217.709c-4.566-1.381-8.153,26.953-7.9,27.935,0,0,2.436,1.053,3.077.041C905.119,3243.067,910.323,3218.326,908.285,3217.709Z" transform="translate(-900.373 -3217.66)" fill="#03b4e9"/>
                  <path id="Path_9509" data-name="Path 9509" d="M921.9,3299.957c1.87,3.249-17.721,10.123-18.52,10.1,0,0-2.155-1.861-1.494-2.526C903.6,3305.812,921.069,3298.507,921.9,3299.957Z" transform="translate(-901.456 -3281.592)" fill="#03b4e9"/>
                  <path id="Path_9510" data-name="Path 9510" d="M979.951,3297.059l-.824-.8-4.3.687a8.9,8.9,0,0,0,1.6,1.875C976.881,3299.02,979.951,3297.059,979.951,3297.059Z" transform="translate(-958.344 -3278.863)" fill="#eaeaea"/>
                  <path id="Path_9511" data-name="Path 9511" d="M987.232,3299.52l.432,1.069-2.295,3.707a8.962,8.962,0,0,1-1.147-2.2C984.215,3301.6,987.232,3299.52,987.232,3299.52Z" transform="translate(-965.661 -3281.399)" fill="#eaeaea"/>
                </g>
              </g>
            </g>
          </g>
          <g id="Group_7595" data-name="Group 7595" transform="translate(0 53.965)">
            <path id="Path_9512" data-name="Path 9512" d="M856.548,3327.966s-11.465,2.256-12.843,10.455-1.883.247-1.883.247.891-11.345,16.047-11.814" transform="translate(-834.337 -3326.855)" fill="#ffe200"/>
            <g id="Group_7594" data-name="Group 7594" transform="translate(0 9.049)">
              <path id="Path_9513" data-name="Path 9513" d="M808.012,3371.834l9,50.646,35.568-1.4,3.3-53.348Z" transform="translate(-808.012 -3367.734)" fill="#ffe200"/>
            </g>
          </g>
          <g id="Group_7597" data-name="Group 7597" transform="translate(9.685 53.022)">
            <path id="Path_9514" data-name="Path 9514" d="M896.56,3323.357s-6.128,1.59-6.283,7.178-1.016.177-1.016.177-.344-7.728,7.942-8.118" transform="translate(-880.96 -3322.594)" fill="#9999a5"/>
            <g id="Group_7596" data-name="Group 7596" transform="translate(0 8.27)">
              <path id="Path_9515" data-name="Path 9515" d="M851.764,3359.952l3.536,38.984h27.819l1.814-38.984Z" transform="translate(-851.764 -3359.952)" fill="#ebebeb" stroke="#cfd0d8" stroke-miterlimit="10" stroke-width="1"/>
              <path id="Path_9516" data-name="Path 9516" d="M980.32,3359.952l.249,38.984h1.959l1.318-38.984Z" transform="translate(-951.863 -3359.952)" fill="#cfd0d8"/>
            </g>
          </g>
        </g>
        <text id="shopping" transform="translate(53.697 14)" fill="#2d356b" font-size="18" font-family="TrebuchetMS-Bold, Trebuchet MS" font-weight="700"><tspan x="0" y="0">shopping</tspan></text>
      </g>
    </g>
    <g id="Group_7601" data-name="Group 7601" transform="translate(458.146 3085.84)">
      <rect id="Rectangle_2570" data-name="Rectangle 2570" width="45.283" height="23.555" rx="6.672" transform="translate(-18 0)" fill="#fff" stroke="#231f20" stroke-miterlimit="10" stroke-width="0.25"/>
      <text id="Akiko" transform="translate(-8.359 15.277)" fill="#2d356b" font-size="10" font-family="TrebuchetMS-Bold, Trebuchet MS" font-weight="700"><tspan x="0" y="0">Akiko</tspan></text>
    </g>
  </g>
</svg>
