<svg xmlns="http://www.w3.org/2000/svg" width="150.478" height="146.837" viewBox="0 0 150.478 146.837">
  <g id="Group_7668" data-name="Group 7668" transform="translate(-435.929 -5074.188)">
    <g id="Group_7667" data-name="Group 7667" transform="translate(435.929 5074.188)">
      <g id="Group_7666" data-name="Group 7666" transform="translate(0 0)">
        <g id="Group_7654" data-name="Group 7654" transform="translate(55.894 57.231)">
          <g id="Group_7652" data-name="Group 7652" transform="translate(34.077 1.233)">
            <path id="Path_9594" data-name="Path 9594" d="M927.616,5424.743c.712-2.884,6.453-7.419,4.343-8.925-1.889-1.349-6.919-.72-6.552,8.274Z" transform="translate(-925.148 -5408.499)" fill="#f8c471"/>
            <path id="Path_9595" data-name="Path 9595" d="M928.432,5407.483c3.184,2.592,6.329-1.3,7.035-2.753.776-1.6-1.1-4.229-2.513-4.353S927.217,5406.49,928.432,5407.483Z" transform="translate(-927.438 -5396.448)" fill="#f8c471"/>
            <path id="Path_9596" data-name="Path 9596" d="M927.222,5393.79c-.377-2.391-1.959-4.943-2.8-4.563-.955.425.817,2.363.633,4.591-.194,2.415-.189,3.941.737,4.066S927.6,5396.183,927.222,5393.79Z" transform="translate(-924.134 -5387.401)" fill="#f8c471"/>
            <path id="Path_9597" data-name="Path 9597" d="M942.06,5383.1c.9-1.87.935-3.053.411-3.234s-.968.916-1.866,2.784-2.5,4.019-1.979,4.2S941.159,5384.962,942.06,5383.1Z" transform="translate(-935.771 -5379.842)" fill="#f8c471"/>
            <path id="Path_9598" data-name="Path 9598" d="M954.916,5386.634c1.28-1.685,1.638-3.709,1.17-3.986s-1.273,1.548-2.551,3.233-2.018,2.845-1.549,3.122S953.637,5388.318,954.916,5386.634Z" transform="translate(-946.544 -5382.089)" fill="#f8c471"/>
            <path id="Path_9599" data-name="Path 9599" d="M959.013,5402.885c1.21-1.734,1.492-2.974,1.018-3.238s-1.056,1.029-2.264,2.761-2.032,2.964-1.556,3.229S957.8,5404.62,959.013,5402.885Z" transform="translate(-949.965 -5395.831)" fill="#f8c471"/>
          </g>
          <g id="Group_7653" data-name="Group 7653">
            <path id="Path_9600" data-name="Path 9600" d="M748.009,5373.405c-7.651,1.473,8.694,45.167,9.808,46.4,0,0,4.323-.329,4.48-2.28C762.7,5412.477,751.425,5372.748,748.009,5373.405Z" transform="translate(-745.977 -5373.397)" fill="#fc8c99"/>
            <path id="Path_9601" data-name="Path 9601" d="M825.987,5461.818c5.172,3.275-17.931,28.1-19.1,28.677,0,0-4.531-1.053-4.079-2.517C803.976,5484.191,823.677,5460.355,825.987,5461.818Z" transform="translate(-791.911 -5444.854)" fill="#fc8c99"/>
            <path id="Path_9602" data-name="Path 9602" d="M900.538,5453.988l-1.8-.526-5.7,4.262s2.917,1.564,3.732,1.5S900.538,5453.988,900.538,5453.988Z" transform="translate(-864.913 -5438.147)" fill="#eaeaea"/>
            <path id="Path_9603" data-name="Path 9603" d="M921.379,5455.778l1.436,1.218-.5,7.1s-2.94-1.589-3.33-2.308S921.379,5455.778,921.379,5455.778Z" transform="translate(-885.862 -5440.021)" fill="#eaeaea"/>
          </g>
        </g>
        <g id="DOG" transform="translate(55.076 52.408)">
          <path id="Path_9604" data-name="Path 9604" d="M784.968,5513.459c-.931-.82-31.66,3.31-42.885-10.861-3.227-4.075,14.54,5.146,26.573-.7C775.612,5498.52,784.968,5513.459,784.968,5513.459Z" transform="translate(-741.698 -5472.095)" fill="#cfd0d8"/>
          <path id="Path_9605" data-name="Path 9605" d="M1096.429,5624.117c-2.394,5.839-1.813,9.618-.947,11.917,2.109,5.6,6.912,5.092,16.162,13.6,5.389,4.958,9.107,10.061,10.453,9.217.35-.219.5-.8.384-1.839-.842-7.43-10-13.892-10.618-14.872s-3.495-21.151-3.495-21.151Z" transform="translate(-1027.203 -5568.81)" fill="#cfd0d8"/>
          <path id="Path_9606" data-name="Path 9606" d="M874.97,5363.346c-.276-.656-4.716-4.808-5.108-9.179s.872-5.984.872-5.984,6.051,4.633,6.742,6.86l2.478,12.209Z" transform="translate(-845.287 -5348.184)" fill="#cfd0d8"/>
          <path id="Path_9607" data-name="Path 9607" d="M788.829,5362.464a18.24,18.24,0,0,0,9.525,12.327c4.007,3.3,6.279,3.918,7.392,5.685,3.243,5.146-2.4,11.064,1,16.275.709,1.087,2.255,2.355,5.436,4.778,1.989,1.518,4.275,3.1,6.736,4.686,13.069,8.414,27.829,13.383,33.38,12.7,7.773-.955,7.847.693,12.648-11.273,0,0-.369-9.306-8.836-11.318-16.717-3.971-21.845-9.9-26.286-11.426a8.409,8.409,0,0,1-2.736-1.837,65.579,65.579,0,0,1-5.07-5.61c-2.855-3.375-5.924-6.9-9-8.361-5.233-2.482-12.167-5.761-16.542-8.231a40.176,40.176,0,0,0-4.12-1.6C789.831,5358.417,787.889,5358.477,788.829,5362.464Z" transform="translate(-779.619 -5356.79)" fill="#ebebeb"/>
          <path id="Path_9608" data-name="Path 9608" d="M917,5440.922s3.97,1.837,5.565,2.3c.011,0,.023,0,.033.008a65.557,65.557,0,0,1-5.069-5.609c-2.625-2.1-5.849-4.048-8.7-4.337C902.167,5432.607,912.851,5438.416,917,5440.922Z" transform="translate(-875.134 -5416.96)" fill="#cfd0d8"/>
          <path id="Path_9609" data-name="Path 9609" d="M903.754,5412.184s9.228-2.322,17.989-.61,11.538,4.829,9.444,5.66-3.738-1.553-5.018-.432-1.7,5.067-5.336,2.795-6.054-1.611-6.054-1.611-8.677,1.765-10.907-1.341S903.754,5412.184,903.754,5412.184Z" transform="translate(-872.025 -5398.94)" fill="#ebebeb"/>
          <path id="Path_9610" data-name="Path 9610" d="M1047.375,5595.937c-.151.9,12.326,23.672,14.6,26.108s14.609,15.97,16.939,14.3-4.742-11.053-9.394-15.985-4.731-19.123-6.458-23.138S1050.182,5579.195,1047.375,5595.937Z" transform="translate(-988.906 -5542.056)" fill="#ebebeb"/>
          <path id="Path_9611" data-name="Path 9611" d="M903.094,5573.81c1.989,1.517,6.667,5.043,9.128,6.629,1.987-.024,5.727-2.222,7.283-3.689l3.163-2.982C921.915,5573.751,915.75,5579.731,903.094,5573.81Z" transform="translate(-872.223 -5530.383)" fill="#cfd0d8"/>
          <path id="Path_9612" data-name="Path 9612" d="M1151.751,5585.519a4.734,4.734,0,0,1,2.05,1.438,33.573,33.573,0,0,0,2.945,2.86,34.689,34.689,0,0,1,2.811,2.3c1.282,1.356,2.18,2.856,2.656,2.658.252-.1.155-.587.742-1.329.216-.274.324-.44.436-.428.439.045.537,2.267,2.9,3.353l.058.026c2.6,1.156-.161-3.667-2.252-5.553a3.462,3.462,0,0,0-.94-.648c-1.992-.81.752-.457,3.818.625a3.622,3.622,0,0,0,1.037.278c.518-.055-2.439-1.771-3.672-2.81-1.528-1.286,1.319-.389,1.81-1.027s-2.907-.532-2.7-1.175.791-3.058-.882-1.691-10-2.028-10.286-2.074C1150.271,5585.173,1150.918,5585.216,1151.751,5585.519Z" transform="translate(-1072.67 -5537.536)" fill="#ebebeb"/>
          <path id="Path_9613" data-name="Path 9613" d="M788.514,5357.871a6.6,6.6,0,0,0,7.766-.26c-.8-.451-1.488-.854-2.035-1.19C790.7,5354.234,787.575,5353.885,788.514,5357.871Z" transform="translate(-779.423 -5353.545)" fill="#2d356b"/>
          <path id="Path_9614" data-name="Path 9614" d="M1165.763,5605.856a33.439,33.439,0,0,0,2.945,2.859,34.662,34.662,0,0,1,2.811,2.3c1.282,1.355,2.18,2.855,2.656,2.659.252-.1.155-.588.742-1.329.216-.275.324-.44.436-.428.438.044.537,2.266,2.9,3.352-.669-1.927-2.03-5.129-3.272-4.555C1173.414,5611.439,1165.249,5604.543,1165.763,5605.856Z" transform="translate(-1084.632 -5556.436)" fill="#cfd0d8"/>
          <path id="Path_9615" data-name="Path 9615" d="M1206.818,5615.754c0,.632,1.159,1.321,2.462,1.906a3.485,3.485,0,0,0-.94-.648c-1.992-.811.752-.457,3.818.626a3.651,3.651,0,0,0,1.037.278C1211.21,5616.92,1206.819,5614.716,1206.818,5615.754Z" transform="translate(-1117.853 -5564.355)" fill="#cfd0d8"/>
          <g id="Group_7656" data-name="Group 7656" transform="translate(26.036 21.299)">
            <g id="Group_7655" data-name="Group 7655">
              <path id="Path_9616" data-name="Path 9616" d="M894.259,5459.687c-2.488,1.167-11.266,4.911-16.351,2.234a3.642,3.642,0,0,0,.372,2.6c2.651,3.272,16.939.168,18.883-2.794.654-1-.511-1.561-1.551-2.043A1.6,1.6,0,0,0,894.259,5459.687Z" transform="translate(-877.818 -5459.535)" fill="#2d356b"/>
              <path id="Path_9617" data-name="Path 9617" d="M947.187,5464.523c.642.222,1.276.475,1.909.723a1.775,1.775,0,0,1,.915.563,5.916,5.916,0,0,1,.508,3.041c0,.254-.15.315-.317.272a.177.177,0,0,1-.141.048,3,3,0,0,1-1.386-.456.628.628,0,0,1-.254-.557c.02-.165.167-.341.351-.294a3.08,3.08,0,0,1,.911.434c-.038-.257-.078-.515-.124-.772a2.952,2.952,0,0,0-.2-.957c-.152-.213-.715-.327-.977-.425-.423-.159-.848-.314-1.265-.488C946.618,5465.447,946.519,5464.293,947.187,5464.523Z" transform="translate(-933.536 -5463.545)" fill="#7b88ac"/>
            </g>
          </g>
        </g>
        <g id="Group_7662" data-name="Group 7662">
          <g id="Group_7661" data-name="Group 7661">
            <g id="Group_7657" data-name="Group 7657">
              <path id="Path_9618" data-name="Path 9618" d="M500.222,5150.842c9.48-3,.053-9.415,3.2-14.6s3.48-2.883,7.813-9.433,3.765-10.07,5.658-14.2,7.93-9.433,8.172-15.729-2.04-5.262-2.029-10.364-4.145-1.6-8.432-1.479-3.271-11.581-11.064-10.818-11.008,8.587-14.9,11.928-10.642,2.1-15.346,9.212.361,7.5-4.15,11.78-9.51,1.239-14.215,8.349c0,0-4.508,7.238,4.157,11.089s3.746,7.051,14.409,8.728,3.517,8.245,11.523,8.43S491.754,5153.526,500.222,5150.842Z" transform="translate(-453.755 -5074.189)" fill="#2d356b"/>
            </g>
            <g id="Group_7658" data-name="Group 7658" transform="translate(34.403 31.513)">
              <path id="Path_9619" data-name="Path 9619" d="M687.5,5238.94l8.735,5.488,1.568,18.889-7.018-2.538Z" transform="translate(-677.197 -5238.94)" fill="#f7c371"/>
              <path id="Path_9620" data-name="Path 9620" d="M635.056,5443.968c-6.47-23.271,11.012-38.912,11.052-41.953.259-19.355-16.191-42.088-2.58-50.839,14.451-9.29,31.612,33.612,31.612,33.612-6.734,14.456-4.612,46.7-6.137,59.179" transform="translate(-633.619 -5328.645)" fill="#f46973"/>
              <path id="Path_9621" data-name="Path 9621" d="M690.628,5346.384l2.538-.3,11.348,10.675-3.359,2.837S693.54,5351.834,690.628,5346.384Z" transform="translate(-679.724 -5325.592)" fill="#fff"/>
              <path id="Path_9622" data-name="Path 9622" d="M721.427,5358.363c.055-.038.1-.076.159-.115-2.995-5.975-9.54-15.125-15.86-14.537C711.479,5348.843,721.427,5358.363,721.427,5358.363Z" transform="translate(-691.934 -5323.649)" fill="#f7c371"/>
            </g>
            <g id="Group_7660" data-name="Group 7660" transform="translate(38.011 0.104)">
              <g id="Group_7659" data-name="Group 7659">
                <path id="Path_9623" data-name="Path 9623" d="M664.363,5115.546c-3.508-3.32-11.081-9.051-11.757-17.384-.879-10.833,3.1-15.121,8.066-20.271,9.468-9.818,26.319,6.134,23.265,8.886C679.883,5090.432,677.076,5127.58,664.363,5115.546Z" transform="translate(-652.483 -5074.733)" fill="#2d356b"/>
                <path id="Path_9624" data-name="Path 9624" d="M698.261,5160.974c1.5.8,8.309-5.513,12.276-11.025,1.308-1.817-.677-3.172,3.018-9.781,2.169-3.88,3.255-10.273-1.234-17.671-4.238-6.983-11.19,4.94-13.221,7.468-5.785,7.2-10.513,11.139-10.527,16.109C688.548,5155.779,696.848,5159.724,698.261,5160.974Z" transform="translate(-681.671 -5111.609)" fill="#ffd8a3"/>
                <path id="Path_9625" data-name="Path 9625" d="M766.471,5276.628a.391.391,0,0,1,.512-.208.411.411,0,0,1,.087.557.392.392,0,0,1-.513.208A.411.411,0,0,1,766.471,5276.628Z" transform="translate(-744.613 -5237.813)" fill="#ffab00"/>
                <path id="Path_9626" data-name="Path 9626" d="M787.347,5218.048c.884-.8,2.041-.954,2.582-.338s.266,1.77-.618,2.572-2.041.954-2.582.338S786.463,5218.851,787.347,5218.048Z" transform="translate(-760.827 -5190.056)" fill="#2d356b"/>
                <path id="Path_9627" data-name="Path 9627" d="M784.051,5215.266c1.985-.328,4.309-.3,5.7,2.7A11.413,11.413,0,0,0,784.051,5215.266Z" transform="translate(-758.886 -5188.274)" fill="#2d356b"/>
                <path id="Path_9628" data-name="Path 9628" d="M764.106,5305.15c.175-.221.465,1.045.805,1.267.963.624-.011,1.757-.917,1.031C763.641,5307.164,763.922,5305.384,764.106,5305.15Z" transform="translate(-742.529 -5261.057)" fill="#f36973"/>
                <path id="Path_9629" data-name="Path 9629" d="M771.713,5281.563c-.538-.635,4.783.5,3.113,1.614C774.358,5283.321,771.99,5281.89,771.713,5281.563Z" transform="translate(-748.877 -5241.853)" fill="#f36973"/>
                <path id="Path_9630" data-name="Path 9630" d="M788.5,5185.319c-1.449-1.34-4.867-3.826-9.442-.633C782.6,5183.22,784.7,5183.146,788.5,5185.319Z" transform="translate(-754.845 -5162.394)" fill="#2d356b"/>
                <path id="Path_9631" data-name="Path 9631" d="M794.861,5249.215l-2.7-.527,3.076-5.967,1.207,6.06Z" transform="translate(-765.447 -5210.589)" fill="#ffd8a3"/>
                <path id="Path_9632" data-name="Path 9632" d="M789.01,5274.952l3.759-2.706-1.708-.99Z" transform="translate(-762.896 -5233.666)" fill="#ffd8a3"/>
                <path id="Path_9633" data-name="Path 9633" d="M765.972,5285.462a49.7,49.7,0,0,0,3.887-4.531l-4.188-2.234S764.137,5283.574,765.972,5285.462Z" transform="translate(-743.535 -5239.685)" fill="#ffab00"/>
                <path id="Path_9634" data-name="Path 9634" d="M768.083,5284.07l2.385,1.272q.724-.858,1.462-1.817l-3.423-1.826Z" transform="translate(-745.972 -5242.113)" fill="#fff"/>
                <path id="Path_9635" data-name="Path 9635" d="M685.794,5187.6c1.069-1.776,2.406-2.792,1.057-3.6s-3.314-.024-4.384,1.754-.838,3.875.513,4.686S684.727,5189.377,685.794,5187.6Z" transform="translate(-676.189 -5162.839)" fill="#f7c371"/>
              </g>
              <path id="Path_9636" data-name="Path 9636" d="M722.38,5119.811c-7.944,4.3-20.835,9.906-24.033,20.365,1.48-12.163,10.395-24.685,20.038-26.653C718.55,5114.911,724.7,5117.8,722.38,5119.811Z" transform="translate(-689.574 -5106.104)" fill="#2d356b"/>
            </g>
          </g>
        </g>
        <g id="Group_7665" data-name="Group 7665" transform="translate(35.297 56.05)">
          <g id="Group_7663" data-name="Group 7663" transform="translate(36.769 16.308)">
            <path id="Path_9637" data-name="Path 9637" d="M832.678,5498.875c1.933-2.867,10.024-5.526,8.321-8.015-1.524-2.23-7.274-3.558-10.475,6.421Z" transform="translate(-830.524 -5482.24)" fill="#f8c471"/>
            <path id="Path_9638" data-name="Path 9638" d="M843.921,5481.143c2.443,4.108,7.437,1.115,8.792-.192,1.489-1.436.488-5.064-1-5.764S842.99,5479.571,843.921,5481.143Z" transform="translate(-841.292 -5470.791)" fill="#f8c471"/>
            <path id="Path_9639" data-name="Path 9639" d="M850.391,5458.594c.545-2.764-.161-6.187-1.237-6.11-1.214.083-.053,2.91-1.146,5.272-1.179,2.56-1.785,4.231-.823,4.739S849.848,5461.363,850.391,5458.594Z" transform="translate(-843.612 -5452.482)" fill="#f8c471"/>
            <path id="Path_9640" data-name="Path 9640" d="M868.333,5458.591c1.728-1.686,2.244-2.962,1.745-3.37s-1.425.614-3.154,2.294-4.345,3.391-3.845,3.8S866.6,5460.269,868.333,5458.591Z" transform="translate(-856.801 -5454.624)" fill="#f8c471"/>
            <path id="Path_9641" data-name="Path 9641" d="M882.153,5468.157c2.073-1.33,3.275-3.4,2.875-3.889s-2.011,1.183-4.083,2.512-3.345,2.3-2.943,2.792S880.081,5469.485,882.153,5468.157Z" transform="translate(-868.861 -5461.943)" fill="#f8c471"/>
            <path id="Path_9642" data-name="Path 9642" d="M880.712,5487.016c2.016-1.41,2.822-2.654,2.409-3.132s-1.566.7-3.58,2.111-3.408,2.427-2.994,2.905S878.695,5488.426,880.712,5487.016Z" transform="translate(-867.685 -5477.79)" fill="#f8c471"/>
          </g>
          <g id="Group_7664" data-name="Group 7664">
            <path id="Path_9643" data-name="Path 9643" d="M646.488,5367.252c-8.953-1.454-8.585,52.849-7.859,54.638,0,0,4.857,1.371,5.81-.7C646.9,5415.842,650.485,5367.9,646.488,5367.252Z" transform="translate(-638.292 -5367.223)" fill="#ffb2b0"/>
            <path id="Path_9644" data-name="Path 9644" d="M676.63,5530.347c4.342,5.651-30.853,23.537-32.363,23.7,0,0-4.53-2.965-3.45-4.385C643.613,5545.986,674.691,5527.824,676.63,5530.347Z" transform="translate(-640.199 -5498.952)" fill="#ffb2b0"/>
            <path id="Path_9645" data-name="Path 9645" d="M798.994,5522.7l-1.753-1.293-7.936,2.377s2.562,2.878,3.479,3.131S798.994,5522.7,798.994,5522.7Z" transform="translate(-760.42 -5491.917)" fill="#eaeaea"/>
            <path id="Path_9646" data-name="Path 9646" d="M818.251,5527.476l1.082,1.906-3.392,7.565s-2.577-2.915-2.716-3.856S818.251,5527.476,818.251,5527.476Z" transform="translate(-779.763 -5496.824)" fill="#eaeaea"/>
          </g>
        </g>
      </g>
      <path id="Path_9647" data-name="Path 9647" d="M775.652,5551.815s-37.219,17.208-44.751,17.228-7.457-3.65-5.395-4.239,7.01-.422,11.6-3.038,11.883-8.406,21.483-12.289S774.9,5544.23,775.652,5551.815Z" transform="translate(-672.562 -5456.028)" fill="#ebebeb"/>
    </g>
    <g id="Group_7651" data-name="Group 7651" transform="translate(462.946 5144.434)">
      <rect id="Rectangle_2572" data-name="Rectangle 2572" width="45.911" height="26.149" rx="6.672" transform="translate(-2 -2)" fill="#fff" stroke="#231f20" stroke-miterlimit="10" stroke-width="0.25"/>
      <text id="Akiko" transform="translate(7.955 14.575)" fill="#2d356b" font-size="10" font-family="TrebuchetMS-Bold, Trebuchet MS" font-weight="700"><tspan x="0" y="0">Akiko</tspan></text>
    </g>
  </g>
</svg>
