<svg xmlns="http://www.w3.org/2000/svg" width="378.135" height="109.341" viewBox="0 0 378.135 109.341">
  <g id="Group_8163" data-name="Group 8163" transform="translate(-112.933 -2102.436)">
    <g id="Group_7809" data-name="Group 7809" transform="translate(270.32 2102.436)">
      <g id="Group_7808" data-name="Group 7808">
        <g id="Group_7807" data-name="Group 7807">
          <g id="Group_7806" data-name="Group 7806">
            <g id="Group_7805" data-name="Group 7805">
              <g id="Group_7804" data-name="Group 7804">
                <g id="Group_7803" data-name="Group 7803">
                  <g id="Group_7791" data-name="Group 7791" transform="translate(0 33.583)">
                    <path id="Path_9445" data-name="Path 9445" d="M1052.587,2026.635c0,.81-1.446,1.467-3.248,1.467H835.087c-1.8,0-3.248-.657-3.248-1.467v-71.913c0-.808,1.446-1.465,3.248-1.465h214.252c1.8,0,3.248.657,3.248,1.465Z" transform="translate(-831.839 -1952.344)" fill="#7b87aa"/>
                    <path id="Path_9446" data-name="Path 9446" d="M1053.751,2009.711c-.136.064-18.2,15.713-18.2,15.752H837.087c-1.787,0-3.24-.66-3.24-1.47v-71.908c0-.811,1.453-1.462,3.24-1.462h213.442c1.786,0,3.223.652,3.223,1.462Z" transform="translate(-833.151 -1950.623)" fill="#fff"/>
                    <g id="Group_7789" data-name="Group 7789" transform="translate(202.401 59.193)">
                      <g id="Group_7788" data-name="Group 7788">
                        <g id="Group_7787" data-name="Group 7787">
                          <path id="Path_9447" data-name="Path 9447" d="M1420.725,2121.319h13.036l-18.256,15.731v-13.371C1415.506,2122.376,1417.843,2121.319,1420.725,2121.319Z" transform="translate(-1415.506 -2121.319)" fill="#40558c"/>
                        </g>
                      </g>
                    </g>
                    <g id="Group_7790" data-name="Group 7790" transform="translate(24.777 26.502)">
                      <rect id="Rectangle_2613" data-name="Rectangle 2613" width="32.168" height="21.472" fill="#e9e9e9"/>
                      <rect id="Rectangle_2614" data-name="Rectangle 2614" width="32.168" height="21.472" transform="translate(35.014)" fill="#e9e9e9"/>
                      <rect id="Rectangle_2615" data-name="Rectangle 2615" width="32.168" height="21.472" transform="translate(70.029)" fill="#e9e9e9"/>
                      <rect id="Rectangle_2616" data-name="Rectangle 2616" width="32.168" height="21.472" transform="translate(105.043)" fill="#e9e9e9"/>
                      <rect id="Rectangle_2617" data-name="Rectangle 2617" width="32.168" height="21.472" transform="translate(140.057)" fill="#e9e9e9"/>
                    </g>
                  </g>
                  <path id="Path_9448" data-name="Path 9448" d="M1052.587,1910.255v-34.723a3.21,3.21,0,0,0-3.257-3.151H835.085a3.2,3.2,0,0,0-3.246,3.151v34.723Z" transform="translate(-831.839 -1865.931)" fill="#2d356b"/>
                  <g id="Group_7802" data-name="Group 7802" transform="translate(21.385)">
                    <g id="Group_7801" data-name="Group 7801">
                      <g id="Group_7792" data-name="Group 7792">
                        <path id="Path_9449" data-name="Path 9449" d="M900.444,1864.472c0,1.212-1.515,2.209-3.348,2.209h-.246c-1.833,0-3.341-1-3.341-2.209v-8.487c0-1.209,1.508-2.206,3.341-2.206h.246c1.833,0,3.348,1,3.348,2.206Z" transform="translate(-893.508 -1853.779)" fill="#fcf2b8"/>
                      </g>
                      <g id="Group_7793" data-name="Group 7793" transform="translate(21.386)">
                        <path id="Path_9450" data-name="Path 9450" d="M962.107,1864.472c0,1.212-1.5,2.209-3.348,2.209h-.226c-1.854,0-3.355-1-3.355-2.209v-8.487c0-1.209,1.5-2.206,3.355-2.206h.226c1.847,0,3.348,1,3.348,2.206Z" transform="translate(-955.178 -1853.779)" fill="#fcf2b8"/>
                      </g>
                      <g id="Group_7794" data-name="Group 7794" transform="translate(42.758)">
                        <path id="Path_9451" data-name="Path 9451" d="M1023.752,1864.472c0,1.212-1.515,2.209-3.342,2.209h-.252c-1.834,0-3.348-1-3.348-2.209v-8.487c0-1.209,1.514-2.206,3.348-2.206h.252c1.827,0,3.342,1,3.342,2.206Z" transform="translate(-1016.81 -1853.779)" fill="#fcf2b8"/>
                      </g>
                      <g id="Group_7795" data-name="Group 7795" transform="translate(64.143)">
                        <path id="Path_9452" data-name="Path 9452" d="M1085.408,1864.472c0,1.212-1.5,2.209-3.342,2.209h-.245c-1.834,0-3.342-1-3.342-2.209v-8.487c0-1.209,1.508-2.206,3.342-2.206h.245c1.84,0,3.342,1,3.342,2.206Z" transform="translate(-1078.479 -1853.779)" fill="#fcf2b8"/>
                      </g>
                      <g id="Group_7796" data-name="Group 7796" transform="translate(85.532)">
                        <path id="Path_9453" data-name="Path 9453" d="M1147.082,1864.472c0,1.212-1.515,2.209-3.335,2.209h-.253c-1.833,0-3.335-1-3.335-2.209v-8.487c0-1.209,1.5-2.206,3.335-2.206h.253c1.82,0,3.335,1,3.335,2.206Z" transform="translate(-1140.159 -1853.779)" fill="#fcf2b8"/>
                      </g>
                      <g id="Group_7797" data-name="Group 7797" transform="translate(106.911)">
                        <path id="Path_9454" data-name="Path 9454" d="M1208.746,1864.472c0,1.212-1.528,2.209-3.348,2.209h-.252c-1.847,0-3.335-1-3.335-2.209v-8.487c0-1.209,1.488-2.206,3.335-2.206h.252c1.821,0,3.348,1,3.348,2.206Z" transform="translate(-1201.81 -1853.779)" fill="#fcf2b8"/>
                      </g>
                      <g id="Group_7798" data-name="Group 7798" transform="translate(128.29)">
                        <path id="Path_9455" data-name="Path 9455" d="M1270.383,1864.472c0,1.212-1.5,2.209-3.349,2.209h-.226c-1.847,0-3.348-1-3.348-2.209v-8.487c0-1.209,1.5-2.206,3.348-2.206h.226c1.847,0,3.349,1,3.349,2.206Z" transform="translate(-1263.46 -1853.779)" fill="#fcf2b8"/>
                      </g>
                      <g id="Group_7799" data-name="Group 7799" transform="translate(149.669)">
                        <path id="Path_9456" data-name="Path 9456" d="M1332.034,1864.472c0,1.212-1.5,2.209-3.349,2.209h-.239c-1.82,0-3.335-1-3.335-2.209v-8.487c0-1.209,1.515-2.206,3.335-2.206h.239c1.847,0,3.349,1,3.349,2.206Z" transform="translate(-1325.111 -1853.779)" fill="#fcf2b8"/>
                      </g>
                      <g id="Group_7800" data-name="Group 7800" transform="translate(171.034)">
                        <path id="Path_9457" data-name="Path 9457" d="M1393.659,1864.472c0,1.212-1.5,2.209-3.336,2.209h-.252c-1.82,0-3.348-1-3.348-2.209v-8.487c0-1.209,1.529-2.206,3.348-2.206h.252c1.834,0,3.336,1,3.336,2.206Z" transform="translate(-1386.723 -1853.779)" fill="#fcf2b8"/>
                      </g>
                    </g>
                  </g>
                </g>
              </g>
            </g>
            <text id="Wed" transform="translate(97.04 34.209)" fill="#fff" font-size="14" font-family="TrebuchetMS-Bold, Trebuchet MS" font-weight="700"><tspan x="0" y="0">Wed</tspan></text>
            <text id="Thu" transform="translate(132.716 34.209)" fill="#fff" font-size="14" font-family="TrebuchetMS-Bold, Trebuchet MS" font-weight="700"><tspan x="0" y="0">Thu</tspan></text>
            <text id="Fri" transform="translate(169.619 34.209)" fill="#fff" font-size="14" font-family="TrebuchetMS-Bold, Trebuchet MS" font-weight="700"><tspan x="0" y="0">Fri</tspan></text>
            <text id="Mon" transform="translate(27.473 34.209)" fill="#fff" font-size="14" font-family="TrebuchetMS-Bold, Trebuchet MS" font-weight="700"><tspan x="0" y="0">Mon</tspan></text>
            <text id="Tue" transform="translate(63.717 34.21)" fill="#fff" font-size="14" font-family="TrebuchetMS-Bold, Trebuchet MS" font-weight="700"><tspan x="0" y="0">Tue</tspan></text>
          </g>
        </g>
      </g>
      <text id="Today" transform="translate(26.127 73.85)" fill="#2d356b" font-size="10" font-family="TrebuchetMS-Bold, Trebuchet MS" font-weight="700"><tspan x="0" y="0">Today</tspan></text>
      <text id="Tomorrow" transform="translate(55.839 72.891)" fill="#2d356b" font-size="9" font-family="TrebuchetMS-Bold, Trebuchet MS" font-weight="700" letter-spacing="-0.049em"><tspan x="0" y="0">Tomorrow</tspan></text>
    </g>
    <ellipse id="Ellipse_374" data-name="Ellipse 374" cx="21.886" cy="18.355" rx="21.886" ry="18.355" transform="translate(324.457 2155)" fill="none" stroke="#f46973" stroke-miterlimit="10" stroke-width="4"/>
    <g id="Group_7879" data-name="Group 7879" transform="translate(112.933 2111.086)">
      <g id="Group_7878" data-name="Group 7878" transform="translate(0)">
        <g id="Group_7850" data-name="Group 7850">
          <g id="Group_7814" data-name="Group 7814" transform="translate(1.133 1.133)">
            <g id="Group_7811" data-name="Group 7811" transform="translate(2.974 3.03)">
              <g id="Group_7810" data-name="Group 7810">
                <path id="Path_9458" data-name="Path 9458" d="M472.416,1956.951A44.215,44.215,0,0,1,437.1,1978.99a44.456,44.456,0,0,1-44.894-58.78,44.184,44.184,0,0,1,31.08-28.251,44.474,44.474,0,0,1,54.387,49.968,44.028,44.028,0,0,1-5.262,15.025C460.36,1978.094,484.476,1935.807,472.416,1956.951Z" transform="translate(-389.82 -1890.727)" fill="#81bec0"/>
              </g>
            </g>
            <g id="Group_7813" data-name="Group 7813">
              <g id="Group_7812" data-name="Group 7812">
                <path id="Path_9459" data-name="Path 9459" d="M428.613,1976.38a47.468,47.468,0,0,1-43.837-65.473,47.294,47.294,0,0,1,41.641-28.886,47.406,47.406,0,0,1,42.733,71.17A47.287,47.287,0,0,1,428.613,1976.38ZM428.161,1888a41.214,41.214,0,1,0,41.385,43.8,41.509,41.509,0,0,0-41.385-43.8Z" transform="translate(-381.244 -1881.99)" fill="#9999a5"/>
              </g>
            </g>
          </g>
          <g id="Group_7817" data-name="Group 7817" transform="translate(2.973 3.03)">
            <g id="Group_7816" data-name="Group 7816">
              <g id="Group_7815" data-name="Group 7815">
                <path id="Path_9460" data-name="Path 9460" d="M469.15,1953.685a44.212,44.212,0,0,1-35.312,22.038,44.456,44.456,0,0,1-44.894-58.781,44.185,44.185,0,0,1,31.079-28.25,44.474,44.474,0,0,1,54.388,49.969,44.033,44.033,0,0,1-5.261,15.024C457.092,1974.829,481.209,1932.542,469.15,1953.685Z" transform="translate(-386.553 -1887.461)" fill="#fff"/>
              </g>
            </g>
          </g>
          <g id="Group_7820" data-name="Group 7820" transform="translate(45.619 1.46)">
            <g id="Group_7819" data-name="Group 7819">
              <g id="Group_7818" data-name="Group 7818">
                <path id="Path_9461" data-name="Path 9461" d="M512.2,1900.76c-3.665,0-2.5-6.7-2.5-8.913s-1.169-8.915,2.5-8.915,2.5,6.7,2.5,8.915S515.867,1900.76,512.2,1900.76Z" transform="translate(-509.531 -1882.932)" fill="#9999a5"/>
              </g>
            </g>
          </g>
          <g id="Group_7823" data-name="Group 7823" transform="translate(77.318 45.707)">
            <g id="Group_7822" data-name="Group 7822">
              <g id="Group_7821" data-name="Group 7821">
                <path id="Path_9462" data-name="Path 9462" d="M616.133,2015.653h-9.467c-1.089,0-2.224.093-3.311,0-3.218,0-3.218-5.006,0-5.006,3.106-.265,6.35,0,9.467,0,1.088,0,2.224-.093,3.311,0C619.352,2010.646,619.352,2015.653,616.133,2015.653Z" transform="translate(-600.941 -2010.529)" fill="#9999a5"/>
              </g>
            </g>
          </g>
          <g id="Group_7826" data-name="Group 7826" transform="translate(45.619 77.368)">
            <g id="Group_7825" data-name="Group 7825">
              <g id="Group_7824" data-name="Group 7824">
                <path id="Path_9463" data-name="Path 9463" d="M512.2,2119.658c-3.665,0-2.5-6.695-2.5-8.914s-1.169-8.913,2.5-8.913,2.5,6.694,2.5,8.913S515.867,2119.658,512.2,2119.658Z" transform="translate(-509.531 -2101.831)" fill="#9999a5"/>
              </g>
            </g>
          </g>
          <g id="Group_7829" data-name="Group 7829" transform="translate(1.644 45.722)">
            <g id="Group_7828" data-name="Group 7828">
              <g id="Group_7827" data-name="Group 7827">
                <path id="Path_9464" data-name="Path 9464" d="M397.913,2015.694h-9.467c-1.091,0-2.227.093-3.313,0-3.218,0-3.218-5.005,0-5.005,3.105-.265,6.349,0,9.467,0,1.089,0,2.226-.093,3.313,0C401.131,2010.689,401.131,2015.694,397.913,2015.694Z" transform="translate(-382.719 -2010.571)" fill="#9999a5"/>
              </g>
            </g>
          </g>
          <g id="Group_7832" data-name="Group 7832" transform="translate(44.487 0.327)">
            <g id="Group_7831" data-name="Group 7831">
              <g id="Group_7830" data-name="Group 7830">
                <path id="Path_9465" data-name="Path 9465" d="M508.938,1897.493c-3.664,0-2.5-6.7-2.5-8.914s-1.167-8.913,2.5-8.913,2.494,6.7,2.494,8.913S512.6,1897.493,508.938,1897.493Z" transform="translate(-506.265 -1879.666)" fill="#ebebeb"/>
              </g>
            </g>
          </g>
          <g id="Group_7835" data-name="Group 7835" transform="translate(76.183 44.575)">
            <g id="Group_7834" data-name="Group 7834">
              <g id="Group_7833" data-name="Group 7833">
                <path id="Path_9466" data-name="Path 9466" d="M612.864,2012.387H603.4c-1.091,0-2.225.093-3.314,0-3.218,0-3.218-5.005,0-5.005,3.107-.266,6.351,0,9.466,0,1.091,0,2.227-.093,3.314,0C616.082,2007.382,616.082,2012.387,612.864,2012.387Z" transform="translate(-597.67 -2007.264)" fill="#ebebeb"/>
              </g>
            </g>
          </g>
          <g id="Group_7838" data-name="Group 7838" transform="translate(44.487 76.235)">
            <g id="Group_7837" data-name="Group 7837">
              <g id="Group_7836" data-name="Group 7836">
                <path id="Path_9467" data-name="Path 9467" d="M508.938,2116.39c-3.664,0-2.5-6.7-2.5-8.914s-1.167-8.914,2.5-8.914,2.494,6.7,2.494,8.914S512.6,2116.39,508.938,2116.39Z" transform="translate(-506.265 -2098.562)" fill="#ebebeb"/>
              </g>
            </g>
          </g>
          <g id="Group_7841" data-name="Group 7841" transform="translate(0.511 44.589)">
            <g id="Group_7840" data-name="Group 7840">
              <g id="Group_7839" data-name="Group 7839">
                <path id="Path_9468" data-name="Path 9468" d="M394.644,2012.428H385.18c-1.093,0-2.227.093-3.314,0-3.218,0-3.22-5.005,0-5.005,3.107-.265,6.348,0,9.467,0,1.089,0,2.225-.092,3.311,0C397.863,2007.423,397.863,2012.428,394.644,2012.428Z" transform="translate(-379.451 -2007.305)" fill="#ebebeb"/>
              </g>
            </g>
          </g>
          <g id="Group_7843" data-name="Group 7843">
            <g id="Group_7842" data-name="Group 7842">
              <path id="Path_9469" data-name="Path 9469" d="M425.35,1973.113a47.469,47.469,0,0,1-43.839-65.473,47.294,47.294,0,0,1,41.641-28.886,47.4,47.4,0,0,1,42.732,71.17A47.284,47.284,0,0,1,425.35,1973.113Zm-.454-88.385a41.215,41.215,0,1,0,41.383,43.8,41.507,41.507,0,0,0-41.383-43.8Z" transform="translate(-377.978 -1878.723)" fill="#0080af"/>
            </g>
          </g>
          <g id="Group_7846" data-name="Group 7846" transform="translate(24.562 45.646)">
            <g id="Group_7845" data-name="Group 7845">
              <g id="Group_7844" data-name="Group 7844">
                <path id="Path_9470" data-name="Path 9470" d="M448.825,2013.039c4.161-.948,8.377-1.465,12.581-2.148,2.557-.416,4.72-.862,7.291-.2.862.221,4.552,1.107,4.255,2.416-.089.4-1.42.935-1.762,1.107a14.74,14.74,0,0,1-3.3,1.183c-2.575.593-4.945-.042-7.517-.28-2.449-.222-4.882-.535-7.315-.877C452.366,2014.143,448.53,2014.036,448.825,2013.039Z" transform="translate(-448.809 -2010.353)" fill="#9999a5"/>
              </g>
            </g>
          </g>
          <g id="Group_7849" data-name="Group 7849" transform="translate(44.74 13.457)">
            <g id="Group_7848" data-name="Group 7848">
              <g id="Group_7847" data-name="Group 7847">
                <path id="Path_9471" data-name="Path 9471" d="M510.164,1917.556c.833,5.837,1.149,11.713,1.77,17.57a28.9,28.9,0,0,1-.016,9.053c-.169.843-1.3,6.476-2.632,6.011-.465-.163-.951-2.14-1.1-2.577a25.335,25.335,0,0,1-1.04-4.5c-.445-3.187.187-6.107.479-9.267.311-3.259.663-6.513,1.083-9.763.2-1.554.4-3.106.637-4.654C509.438,1918.833,509.261,1917.3,510.164,1917.556Z" transform="translate(-506.995 -1917.528)" fill="#9999a5"/>
              </g>
            </g>
          </g>
        </g>
        <g id="Group_7871" data-name="Group 7871" transform="translate(12.62 12.54)">
          <g id="Group_7855" data-name="Group 7855" transform="translate(14.022)">
            <g id="Group_7852" data-name="Group 7852" transform="translate(35.013)">
              <g id="Group_7851" data-name="Group 7851">
                <path id="Path_9472" data-name="Path 9472" d="M556.425,1921.741c-1.555-.893.088-2.881.65-3.868.573-1,1.546-3.725,3.157-2.8,1.554.892-.087,2.881-.651,3.867-.57,1-1.542,3.725-3.155,2.8C555.778,1921.369,557.073,1922.113,556.425,1921.741Z" transform="translate(-555.773 -1914.884)" fill="#cfd0d8"/>
              </g>
            </g>
            <g id="Group_7854" data-name="Group 7854" transform="translate(0 61.398)">
              <g id="Group_7853" data-name="Group 7853">
                <path id="Path_9473" data-name="Path 9473" d="M455.456,2098.795c-1.553-.893.087-2.881.65-3.867.57-1,1.544-3.726,3.155-2.8,1.554.9-.084,2.88-.648,3.868s-1.547,3.725-3.157,2.8Z" transform="translate(-454.805 -2091.937)" fill="#cfd0d8"/>
              </g>
            </g>
          </g>
          <g id="Group_7860" data-name="Group 7860" transform="translate(13.749 0.153)">
            <g id="Group_7857" data-name="Group 7857">
              <g id="Group_7856" data-name="Group 7856">
                <path id="Path_9474" data-name="Path 9474" d="M457.181,1922.157c-.975-.558-1.608-2.415-2.143-3.331q-.416-.718-.834-1.435a1.365,1.365,0,0,1,1.7-1.949c1.044.456,1.75,2.494,2.275,3.4.279.479.555.958.834,1.435a1.363,1.363,0,0,1-1.827,1.882Z" transform="translate(-454.019 -1915.326)" fill="#cfd0d8"/>
              </g>
            </g>
            <g id="Group_7859" data-name="Group 7859" transform="translate(35.491 61.122)">
              <g id="Group_7858" data-name="Group 7858">
                <path id="Path_9475" data-name="Path 9475" d="M559.525,2098.419c-.978-.565-1.607-2.412-2.143-3.333q-.416-.718-.831-1.435a1.364,1.364,0,0,1,1.694-1.949c1.043.455,1.748,2.494,2.273,3.4.279.479.555.958.834,1.435a1.364,1.364,0,0,1-1.828,1.884C559.327,2098.3,559.934,2098.65,559.525,2098.419Z" transform="translate(-556.365 -2091.586)" fill="#cfd0d8"/>
              </g>
            </g>
          </g>
          <g id="Group_7865" data-name="Group 7865" transform="translate(0 14.067)">
            <g id="Group_7862" data-name="Group 7862">
              <g id="Group_7861" data-name="Group 7861">
                <path id="Path_9476" data-name="Path 9476" d="M415.032,1957.981a1.367,1.367,0,0,1,.519-2.525,2.674,2.674,0,0,1,1.548.587,27.8,27.8,0,0,1,3.577,2.053,1.367,1.367,0,0,1-.521,2.524,2.664,2.664,0,0,1-1.547-.587Q416.817,1959.008,415.032,1957.981Z" transform="translate(-414.37 -1955.449)" fill="#cfd0d8"/>
              </g>
            </g>
            <g id="Group_7864" data-name="Group 7864" transform="translate(61.183 35.126)">
              <g id="Group_7863" data-name="Group 7863">
                <path id="Path_9477" data-name="Path 9477" d="M595.781,2061.747l-3.349-1.923a5.058,5.058,0,0,1-1.288-.819,1.36,1.36,0,0,1,1.677-2.081,25.747,25.747,0,0,1,3.349,1.922,5.135,5.135,0,0,1,1.29.82A1.362,1.362,0,0,1,595.781,2061.747Z" transform="translate(-590.805 -2056.741)" fill="#cfd0d8"/>
              </g>
            </g>
          </g>
          <g id="Group_7870" data-name="Group 7870" transform="translate(0.03 13.829)">
            <g id="Group_7867" data-name="Group 7867" transform="translate(0 35.607)">
              <g id="Group_7866" data-name="Group 7866">
                <path id="Path_9478" data-name="Path 9478" d="M415.232,2062.462c-2.044-1.173.483-2.634,1.45-3.2.921-.539,2.882-2.235,4.048-1.725,2.323,1.015-.357,2.7-1.314,3.265S416.407,2063.135,415.232,2062.462Z" transform="translate(-414.456 -2057.445)" fill="#cfd0d8"/>
              </g>
            </g>
            <g id="Group_7869" data-name="Group 7869" transform="translate(60.922)">
              <g id="Group_7868" data-name="Group 7868">
                <path id="Path_9479" data-name="Path 9479" d="M590.913,1959.78c-2.043-1.173.48-2.634,1.446-3.2.923-.54,2.882-2.234,4.051-1.725,2.321,1.015-.357,2.7-1.317,3.264-.942.552-3.005,2.33-4.18,1.659C590.715,1959.666,591.32,1960.012,590.913,1959.78Z" transform="translate(-590.136 -1954.763)" fill="#cfd0d8"/>
              </g>
            </g>
          </g>
        </g>
        <g id="Group_7877" data-name="Group 7877" transform="translate(41.297 41.313)">
          <g id="Group_7872" data-name="Group 7872" transform="translate(5.875 5.833)">
            <path id="Path_9480" data-name="Path 9480" d="M531.436,2036.924c-3.1-3.544-6.134-7.142-9.16-10.748-1.746-2.081-3.544-4.093-5.119-6.314-.44-.623-3.558-4.674-3.1-5.181.11-.12,4.252,4.361,4.57,4.73,1.788,2.054,3.317,4.306,4.944,6.489q2.568,3.455,5.106,6.938C529.079,2033.4,531.736,2036.356,531.436,2036.924Z" transform="translate(-514.009 -2014.68)" fill="#f8c471"/>
          </g>
          <g id="Group_7874" data-name="Group 7874" transform="translate(1.121 1.284)">
            <g id="Group_7873" data-name="Group 7873">
              <path id="Path_9481" data-name="Path 9481" d="M509.779,2006.158c0,6.131-9.481,6.131-9.481,0S509.779,2000.027,509.779,2006.158Z" transform="translate(-500.298 -2001.56)" fill="#f8c471"/>
            </g>
          </g>
          <g id="Group_7876" data-name="Group 7876">
            <g id="Group_7875" data-name="Group 7875">
              <path id="Path_9482" data-name="Path 9482" d="M502.929,2009.622a5.882,5.882,0,1,1,5.862-5.882A5.933,5.933,0,0,1,502.929,2009.622Zm0-9.511c-4.667,0-4.667,7.258,0,7.258S507.6,2000.111,502.929,2000.111Z" transform="translate(-497.066 -1997.858)" fill="#f8c471"/>
            </g>
          </g>
        </g>
      </g>
    </g>
    <text id="AM" transform="translate(166.83 2151.996)" fill="#cfd0d8" font-size="14" font-family="TrebuchetMS-Bold, Trebuchet MS" font-weight="700"><tspan x="0" y="0">AM</tspan></text>
  </g>
</svg>
