<svg id="Group_8240" data-name="Group 8240" xmlns="http://www.w3.org/2000/svg" width="155.349" height="177.583" viewBox="0 0 155.349 177.583">
  <g id="Group_8238" data-name="Group 8238" transform="translate(0 0)">
    <g id="Group_8237" data-name="Group 8237">
      <g id="Group_8223" data-name="Group 8223" transform="translate(0 23.986)">
        <path id="Path_10497" data-name="Path 10497" d="M453.668,6891.636c0,3-1.018,5.43-2.286,5.43H300.6c-1.268,0-2.286-2.43-2.286-5.43V6752.27c0-2.99,1.018-5.42,2.286-5.42H451.382c1.268,0,2.286,2.43,2.286,5.42Z" transform="translate(-298.319 -6743.469)" fill="#40558e"/>
        <path id="Path_10498" data-name="Path 10498" d="M456.333,6866.879c-.1.238-21.311,19.941-21.311,20.084H304.751c-1.25,0-2.266-2.439-2.266-5.439V6742.176c0-3,1.017-5.411,2.266-5.411H454.078c1.25,0,2.255,2.412,2.255,5.411Z" transform="translate(-301.089 -6736.765)" fill="#fff"/>
        <g id="Group_8222" data-name="Group 8222" transform="translate(133.583 130.115)">
          <g id="Group_8221" data-name="Group 8221">
            <g id="Group_8220" data-name="Group 8220">
              <path id="Path_10499" data-name="Path 10499" d="M700.583,7124.968h17.986l-21.7,20.4v-17.336C696.868,7126.339,698.532,7124.968,700.583,7124.968Z" transform="translate(-696.868 -7124.968)" fill="#2d356b"/>
            </g>
          </g>
        </g>
      </g>
      <path id="Path_10500" data-name="Path 10500" d="M453.62,6721.252V6688.2c0-1.654-1.03-3-2.292-3H300.6c-1.266,0-2.284,1.345-2.284,3v33.053Z" transform="translate(-298.319 -6678.497)" fill="#2d356b"/>
      <g id="Group_8236" data-name="Group 8236" transform="translate(11.319)">
        <g id="Group_8235" data-name="Group 8235">
          <g id="Group_8224" data-name="Group 8224">
            <path id="Path_10501" data-name="Path 10501" d="M336.257,6673.656a1.9,1.9,0,0,1-2.008,1.747h-.144a1.9,1.9,0,0,1-2.016-1.747v-6.711a1.905,1.905,0,0,1,2.016-1.744h.144a1.9,1.9,0,0,1,2.008,1.744Z" transform="translate(-332.089 -6665.201)" fill="#fff4ba"/>
          </g>
          <g id="Group_8225" data-name="Group 8225" transform="translate(12.852)">
            <path id="Path_10502" data-name="Path 10502" d="M374.6,6673.656a1.9,1.9,0,0,1-2.012,1.747h-.148a1.9,1.9,0,0,1-2.008-1.747v-6.711a1.9,1.9,0,0,1,2.008-1.744h.148a1.9,1.9,0,0,1,2.012,1.744Z" transform="translate(-370.433 -6665.201)" fill="#fff4ba"/>
          </g>
          <g id="Group_8226" data-name="Group 8226" transform="translate(25.704)">
            <path id="Path_10503" data-name="Path 10503" d="M412.941,6673.656a1.9,1.9,0,0,1-2.012,1.747h-.136a1.9,1.9,0,0,1-2.016-1.747v-6.711a1.9,1.9,0,0,1,2.016-1.744h.136a1.9,1.9,0,0,1,2.012,1.744Z" transform="translate(-408.777 -6665.201)" fill="#fff4ba"/>
          </g>
          <g id="Group_8227" data-name="Group 8227" transform="translate(38.547)">
            <path id="Path_10504" data-name="Path 10504" d="M451.269,6673.656a1.9,1.9,0,0,1-2.008,1.747h-.152a1.9,1.9,0,0,1-2.012-1.747v-6.711a1.9,1.9,0,0,1,2.012-1.744h.152a1.9,1.9,0,0,1,2.008,1.744Z" transform="translate(-447.097 -6665.201)" fill="#fff4ba"/>
          </g>
          <g id="Group_8228" data-name="Group 8228" transform="translate(51.399)">
            <path id="Path_10505" data-name="Path 10505" d="M489.6,6673.656a1.9,1.9,0,0,1-2.008,1.747h-.147a1.9,1.9,0,0,1-2.009-1.747v-6.711a1.9,1.9,0,0,1,2.009-1.744h.147a1.9,1.9,0,0,1,2.008,1.744Z" transform="translate(-485.44 -6665.201)" fill="#fff4ba"/>
          </g>
          <g id="Group_8229" data-name="Group 8229" transform="translate(64.253)">
            <path id="Path_10506" data-name="Path 10506" d="M527.951,6673.656a1.9,1.9,0,0,1-2,1.747h-.151a1.9,1.9,0,0,1-2-1.747v-6.711a1.9,1.9,0,0,1,2-1.744h.151a1.9,1.9,0,0,1,2,1.744Z" transform="translate(-523.79 -6665.201)" fill="#fff4ba"/>
          </g>
          <g id="Group_8230" data-name="Group 8230" transform="translate(77.101)">
            <path id="Path_10507" data-name="Path 10507" d="M566.291,6673.656a1.909,1.909,0,0,1-2.012,1.747h-.151a1.891,1.891,0,0,1-2-1.747v-6.711a1.891,1.891,0,0,1,2-1.744h.151a1.909,1.909,0,0,1,2.012,1.744Z" transform="translate(-562.123 -6665.201)" fill="#fff4ba"/>
          </g>
          <g id="Group_8231" data-name="Group 8231" transform="translate(89.948)">
            <path id="Path_10508" data-name="Path 10508" d="M604.613,6673.656a1.9,1.9,0,0,1-2.012,1.747h-.136a1.9,1.9,0,0,1-2.012-1.747v-6.711a1.9,1.9,0,0,1,2.012-1.744h.136a1.9,1.9,0,0,1,2.012,1.744Z" transform="translate(-600.453 -6665.201)" fill="#fff4ba"/>
          </g>
          <g id="Group_8232" data-name="Group 8232" transform="translate(102.796)">
            <path id="Path_10509" data-name="Path 10509" d="M642.946,6673.656a1.9,1.9,0,0,1-2.012,1.747h-.143a1.9,1.9,0,0,1-2-1.747v-6.711a1.9,1.9,0,0,1,2-1.744h.143a1.9,1.9,0,0,1,2.012,1.744Z" transform="translate(-638.786 -6665.201)" fill="#fff4ba"/>
          </g>
          <g id="Group_8233" data-name="Group 8233" transform="translate(115.636)">
            <path id="Path_10510" data-name="Path 10510" d="M681.262,6673.656a1.9,1.9,0,0,1-2,1.747h-.152a1.909,1.909,0,0,1-2.012-1.747v-6.711a1.909,1.909,0,0,1,2.012-1.744h.152a1.9,1.9,0,0,1,2,1.744Z" transform="translate(-677.093 -6665.201)" fill="#fff4ba"/>
          </g>
          <g id="Group_8234" data-name="Group 8234" transform="translate(128.492)">
            <path id="Path_10511" data-name="Path 10511" d="M719.618,6673.656a1.9,1.9,0,0,1-2.012,1.747h-.143a1.9,1.9,0,0,1-2.012-1.747v-6.711a1.9,1.9,0,0,1,2.012-1.744h.143a1.9,1.9,0,0,1,2.012,1.744Z" transform="translate(-715.45 -6665.201)" fill="#fff4ba"/>
          </g>
        </g>
      </g>
    </g>
  </g>
  <g id="Group_8239" data-name="Group 8239" transform="translate(23.569 65.577)">
    <line id="Line_38" data-name="Line 38" x2="108.131" transform="translate(0.868 89.276)" fill="#7b88ac" stroke="#7b88ac" stroke-miterlimit="10" stroke-width="0.75"/>
    <line id="Line_39" data-name="Line 39" x2="118.541" transform="translate(0 22.319)" fill="#7b88ac" stroke="#7b88ac" stroke-miterlimit="10" stroke-width="0.75"/>
    <line id="Line_40" data-name="Line 40" x2="118.45" fill="#7b88ac" stroke="#7b88ac" stroke-miterlimit="10" stroke-width="0.75"/>
    <line id="Line_41" data-name="Line 41" x2="118.45" transform="translate(0 44.638)" fill="#7b88ac" stroke="#7b88ac" stroke-miterlimit="10" stroke-width="0.75"/>
    <line id="Line_42" data-name="Line 42" x2="118.541" transform="translate(0.868 66.957)" fill="#7b88ac" stroke="#7b88ac" stroke-miterlimit="10" stroke-width="0.75"/>
  </g>
  <rect id="Rectangle_2668" data-name="Rectangle 2668" width="104.44" height="33.508" transform="translate(27.019 64.577)" fill="#fff4ba"/>
  <rect id="Rectangle_2669" data-name="Rectangle 2669" width="104.44" height="31.606" transform="translate(27.019 109.632)" fill="#ffb2b0"/>
  <text id="AM" transform="translate(8.103 69.077)" fill="#2d356b" font-size="10" font-family="TrebuchetMS-Bold, Trebuchet MS" font-weight="700"><tspan x="0" y="0">AM</tspan></text>
  <text id="yoga_class" data-name="yoga class" transform="translate(31.019 78.577)" fill="#2d356b" font-size="14" font-family="TrebuchetMS-Bold, Trebuchet MS" font-weight="700"><tspan x="0" y="0">yoga class</tspan></text>
  <text id="PM" transform="translate(8.103 114.132)" fill="#2d356b" font-size="10" font-family="TrebuchetMS-Bold, Trebuchet MS" font-weight="700"><tspan x="0" y="0">PM</tspan></text>
  <text id="dinner_with_Sarah" data-name="dinner with 
Sarah" transform="translate(30.945 124.713)" fill="#2d356b" font-size="14" font-family="TrebuchetMS-Bold, Trebuchet MS" font-weight="700"><tspan x="0" y="0">dinner with </tspan><tspan x="0" y="14">Sarah</tspan></text>
  <text id="Saturday" transform="translate(38.239 34.743)" fill="#fff" font-size="20" font-family="TrebuchetMS-Bold, Trebuchet MS" font-weight="700"><tspan x="0" y="0">Saturday</tspan></text>
</svg>
