<svg xmlns="http://www.w3.org/2000/svg" width="327.927" height="202.652" viewBox="0 0 327.927 202.652"><g transform="translate(-294.453 -2747.887)"><g transform="translate(323.675 2750.821)"><g transform="translate(-6)"><g transform="translate(0.266)"><g transform="translate(0.061)"><path d="M625.054,2768h.356V2761H324.773v146.432H625.051v-14.709h0Z" transform="translate(-324.773 -2760.791)" fill="#fff"/><rect width="300.309" height="0.409" transform="translate(0 146.432)" fill="#a0bacb"/><rect width="300.637" height="0.409" fill="#7b88ac"/></g><g transform="translate(0 29.921)"><path d="M369.729,2857.147v-.107h-3.913v.107h-40.45v89.275h83.068v-89.275ZM405,2860.014v19.632H369.729v-19.632Zm-39.179,23.019v37.5H328.805v-37.5Zm3.913,37.5v-37.5H405v37.5Zm-3.913-60.524v19.632H328.805v-19.632Zm-37.011,63.912h37.011v19.631H328.805Zm40.924,19.631v-19.631H405v19.631Z" transform="translate(-325.12 -2856.835)" fill="#ebebeb"/><path d="M408.137,2946.175h-83.56V2856.49h40.45v-.107h4.4v.107h38.706Zm-83.068-.409h82.577V2856.9H368.94v-.108h-3.422v.108h-40.45Zm79.629-2.457H368.94v-20.041H404.7Zm-35.266-.409h34.775v-19.221H369.431Zm-3.913.409h-37.5v-20.041h37.5Zm-37.011-.409h36.519v-19.221H328.508Zm76.19-22.609H368.94v-37.914H404.7Zm-35.266-.409h34.775v-37.1H369.431Zm-3.913.409h-37.5v-37.914h37.5Zm-37.011-.409h36.519v-37.1H328.508ZM404.7,2879.4H368.94v-20.041H404.7Zm-35.266-.409h34.775v-19.222H369.431Zm-3.913.409h-37.5v-20.041h37.5Zm-37.011-.409h36.519v-19.222H328.508Z" transform="translate(-324.577 -2856.383)" fill="#ebebeb"/></g><g transform="translate(124.648 29.393)"><path d="M718.8,2855.452v-.108h-3.589v.108h-37.1v89.275H754.3v-89.275Zm32.348,2.866v19.631H718.8v-19.631Zm-35.937,23.02v37.5H681.264v-37.5Zm3.589,37.5v-37.5h32.348v37.5Zm-3.589-60.524v19.631H681.264v-19.631Zm-33.947,63.912h33.947v19.631H681.264Zm37.536,19.631v-19.631h32.348v19.631Z" transform="translate(-677.884 -2855.139)" fill="#ebebeb"/><path d="M754.029,2944.479H677.386v-89.685h37.1v-.107h4.04v.107h35.5Zm-76.193-.41h75.742V2855.2h-35.5v-.108h-3.139v.108h-37.1Zm73.038-2.457h-32.8v-20.041h32.8Zm-32.347-.41h31.9v-19.222h-31.9Zm-3.589.41h-34.4v-20.041h34.4Zm-33.947-.41h33.5v-19.222h-33.5Zm69.883-22.609h-32.8V2880.68h32.8Zm-32.347-.41h31.9v-37.1h-31.9Zm-3.589.41h-34.4V2880.68h34.4Zm-33.947-.41h33.5v-37.1h-33.5Zm69.883-40.483h-32.8v-20.041h32.8Zm-32.347-.41h31.9V2858.07h-31.9Zm-3.589.41h-34.4v-20.041h34.4Zm-33.947-.41h33.5V2858.07h-33.5Z" transform="translate(-677.386 -2854.687)" fill="#ebebeb"/></g><g transform="translate(234.803 29.921)"><path d="M1059.364,2943.556H1038.4v-19.631h20.962v-3.388H1038.4v-37.5h20.962v-3.387H1038.4v-19.632h20.962v-2.866H1038.4v-.107h-3.913v.107h-40.45v89.275h65.325Zm-24.875,0H997.478v-19.631h37.011Zm0-23.019H997.478v-37.5h37.011Zm0-40.892H997.478v-19.632h37.011Z" transform="translate(-993.794 -2856.835)" fill="#ebebeb"/><path d="M1135.653,3091.121h21.208v-.409h-20.716V3071.49h20.716v-.409h-21.208Z" transform="translate(-1091.29 -3004.196)" fill="#ebebeb"/><path d="M1135.653,2977.732h21.208v-.409h-20.716v-37.1h20.716v-.41h-21.208Z" transform="translate(-1091.29 -2913.825)" fill="#ebebeb"/><path d="M1135.653,2885.969h21.208v-.409h-20.716v-19.222h20.716v-.41h-21.208Z" transform="translate(-1091.29 -2862.955)" fill="#ebebeb"/><path d="M1041.792,2865.929h-37.5v20.041h37.5Zm-.491,19.631h-36.519v-19.222H1041.3Z" transform="translate(-1000.851 -2862.955)" fill="#ebebeb"/><path d="M1058.822,2945.766H993.742V2856.9h40.45v-.107h3.422v.107h21.208v-.41H1038.1v-.107h-4.4v.107h-40.45v89.685h65.571Z" transform="translate(-993.251 -2856.383)" fill="#ebebeb"/><path d="M1004.29,3091.121h37.5v-20.041h-37.5Zm.491-19.631H1041.3v19.222h-36.519Z" transform="translate(-1000.851 -3004.196)" fill="#ebebeb"/><path d="M1041.792,2939.819h-37.5v37.914h37.5Zm-.491,37.5h-36.519v-37.1H1041.3Z" transform="translate(-1000.851 -2913.826)" fill="#ebebeb"/></g></g><g transform="translate(0 129.008)"><path d="M624.359,3175.006H324.081v50.241h-.359v20.3H624.356v-68.4h0Z" transform="translate(-323.722 -3174.832)" fill="#f9f9f9"/><rect width="299.739" height="0.294" transform="translate(0.979 70.307)" fill="#f9f9f9"/><rect width="300.312" height="0.294" transform="translate(0.328)" fill="#f9f9f9"/></g><g transform="translate(16.623 2.581)"><path d="M923.491,2812.435v-43.81h-1.05v43.81c-3.272.223-5.846,2.5-5.846,5.288,0,2.933,2.852,5.31,6.371,5.31s6.371-2.377,6.371-5.31C929.337,2814.938,926.763,2812.658,923.491,2812.435Z" transform="translate(-727.993 -2768.625)" fill="#ffb2b0"/><path d="M383.977,2823.543v-43.809h-1.05v43.809c-3.273.223-5.846,2.5-5.846,5.288,0,2.933,2.852,5.31,6.371,5.31s6.371-2.378,6.371-5.31C389.823,2826.046,387.249,2823.766,383.977,2823.543Z" transform="translate(-377.081 -2776.273)" fill="#ffb2b0"/><path d="M574.041,2822.753V2790.9h-.763v31.851c-2.379.163-4.25,1.82-4.25,3.845,0,2.132,2.074,3.861,4.632,3.861s4.632-1.729,4.632-3.861C578.291,2824.573,576.42,2822.916,574.041,2822.753Z" transform="translate(-502.042 -2783.962)" fill="#ffb2b0"/><path d="M1089.522,2822.753V2790.9h-.763v31.851c-2.379.163-4.25,1.82-4.25,3.845,0,2.132,2.074,3.861,4.632,3.861s4.632-1.729,4.632-3.861C1093.772,2824.573,1091.9,2822.916,1089.522,2822.753Z" transform="translate(-837.633 -2783.962)" fill="#ffb2b0"/></g><g transform="translate(208.14 97.077)"><g transform="translate(6.007)"><path d="M949.126,3086.528s-.5-3.346-.722-4.082a3.357,3.357,0,0,1,.367-3.2,5.607,5.607,0,0,0,.921-3.095c0-.3.3-4.8,3.6-4.133,0,0,1.367.333.7,2.733,0,0-.7,1.433.183,2.333a3.654,3.654,0,0,1,0,4.967c-1.65,2-1.18,2.732-.917,3.5,1.2,3.5-1.356,6.716-1.633,7.573a5.922,5.922,0,0,0-.332,3.075l-.971.018Z" transform="translate(-948.173 -3071.951)" fill="#ebebeb"/></g><g transform="translate(8.406 3.387)"><path d="M956.14,3103.833l.03,0a.147.147,0,0,0,.114-.174,16.81,16.81,0,0,1,.286-5.056c.359-1.37.463-3.12-.132-7.583a17.147,17.147,0,0,1,.181-5.854,9.843,9.843,0,0,1,.678-2.127.146.146,0,1,0-.261-.132,9.845,9.845,0,0,0-.7,2.184,17.424,17.424,0,0,0-.188,5.968c.586,4.4.479,6.171.137,7.477a16.742,16.742,0,0,0-.288,5.183A.146.146,0,0,0,956.14,3103.833Z" transform="translate(-955.874 -3082.824)" fill="#fff"/></g><g transform="translate(9.202 12.856)"><path d="M959.579,3124.7s0-.789,1.619-1.536a2.707,2.707,0,0,0,1.619-1.951c.415-1.578,1.578-1.163,2.325-.706s2.445,0,2.447-2.367a1.57,1.57,0,0,1,.579-1.909c1.084-.664,1.5-3.037-.826-3.013s-4.515,1.172-6.767,4.507c-3.13,4.636-1.911,6.975-1.911,6.975Z" transform="translate(-958.431 -3113.218)" fill="#ebebeb"/></g><g transform="translate(9.479 14.518)"><path d="M959.569,3128.521a.145.145,0,0,0,.045-.007.15.15,0,0,0,.095-.185,3.548,3.548,0,0,1-.009-1.548.164.164,0,0,0,.012-.03c1.255-4.738,7.446-7.887,7.509-7.919a.147.147,0,0,0-.131-.262c-.064.032-6.359,3.235-7.657,8.092a3.471,3.471,0,0,0,0,1.757A.143.143,0,0,0,959.569,3128.521Z" transform="translate(-959.319 -3118.555)" fill="#fff"/></g><g transform="translate(0 5.829)"><path d="M935.833,3109.1a2.888,2.888,0,0,1-1.367-2.9,2.03,2.03,0,0,0-1.8-2.433c-.4-.067-3-1.133-2.6-5.033a9.965,9.965,0,0,0-.333-3.4c-.467-.9-1.633-3.6,0-4.434s2.767.667,3.367,2.2a8.515,8.515,0,0,0,.867,2.2,10.311,10.311,0,0,1,3.067,8.233l-.568,5.567Z" transform="translate(-928.892 -3090.662)" fill="#ebebeb"/></g><g transform="translate(2.328 8.895)"><path d="M941.245,3116.024a.147.147,0,0,0,.146-.141,26.585,26.585,0,0,0-2.891-12.02,30.183,30.183,0,0,1-1.856-3.274.147.147,0,0,0-.265.125,30.32,30.32,0,0,0,1.877,3.31,26.217,26.217,0,0,1,2.842,11.848.147.147,0,0,0,.141.152Z" transform="translate(-936.365 -3100.505)" fill="#fff"/></g><path d="M948.708,3158.1h-6.286l-1.521-8.613h9.329Z" transform="translate(-937.16 -3125.335)" fill="#ebebeb"/></g><g transform="translate(97.829 101.971)"><g transform="translate(5.109)"><path d="M625.681,3100.06s-.423-2.846-.614-3.472a2.856,2.856,0,0,1,.312-2.722,4.772,4.772,0,0,0,.784-2.632c0-.255.255-4.084,3.062-3.516,0,0,1.163.283.6,2.324,0,0-.6,1.219.156,1.985a3.11,3.11,0,0,1,0,4.226c-1.4,1.7-1,2.324-.78,2.977,1.022,2.978-1.153,5.712-1.389,6.442a5.042,5.042,0,0,0-.283,2.617l-.826.015Z" transform="translate(-624.871 -3087.661)" fill="#ebebeb"/></g><g transform="translate(7.15 2.882)"><path d="M631.648,3114.781l.025,0a.125.125,0,0,0,.1-.147,14.3,14.3,0,0,1,.244-4.3c.305-1.166.394-2.654-.112-6.451a14.569,14.569,0,0,1,.154-4.979,8.342,8.342,0,0,1,.577-1.809.125.125,0,0,0-.222-.113,8.368,8.368,0,0,0-.6,1.858,14.827,14.827,0,0,0-.16,5.077c.5,3.743.407,5.249.116,6.36a14.235,14.235,0,0,0-.246,4.408A.125.125,0,0,0,631.648,3114.781Z" transform="translate(-631.422 -3096.91)" fill="#fff"/></g><g transform="translate(7.828 10.936)"><path d="M634.574,3132.532s0-.671,1.377-1.306a2.3,2.3,0,0,0,1.377-1.66c.353-1.342,1.342-.989,1.978-.6s2.08,0,2.082-2.013a1.335,1.335,0,0,1,.492-1.624c.922-.565,1.275-2.584-.7-2.563s-3.841,1-5.756,3.834c-2.662,3.943-1.626,5.933-1.626,5.933Z" transform="translate(-633.597 -3122.765)" fill="#ebebeb"/></g><g transform="translate(8.063 12.35)"><path d="M634.566,3135.782a.13.13,0,0,0,.038-.006.127.127,0,0,0,.08-.157,3.022,3.022,0,0,1-.008-1.317.131.131,0,0,0,.01-.025c1.068-4.031,6.334-6.71,6.387-6.736a.125.125,0,0,0-.112-.223c-.054.027-5.41,2.752-6.514,6.884a2.951,2.951,0,0,0,0,1.495A.122.122,0,0,0,634.566,3135.782Z" transform="translate(-634.353 -3127.304)" fill="#fff"/></g><g transform="translate(0 4.958)"><path d="M614.375,3119.262a2.458,2.458,0,0,1-1.163-2.467,1.727,1.727,0,0,0-1.531-2.07c-.34-.056-2.552-.964-2.212-4.282a8.478,8.478,0,0,0-.283-2.892c-.4-.765-1.389-3.062,0-3.771s2.354.567,2.864,1.872a7.232,7.232,0,0,0,.737,1.871,8.772,8.772,0,0,1,2.609,7l-.483,4.736Z" transform="translate(-608.47 -3103.577)" fill="#ebebeb"/></g><g transform="translate(1.98 7.567)"><path d="M618.978,3125.151a.125.125,0,0,0,.125-.121,22.615,22.615,0,0,0-2.459-10.224,25.6,25.6,0,0,1-1.579-2.785.125.125,0,0,0-.226.107,25.849,25.849,0,0,0,1.6,2.815,22.3,22.3,0,0,1,2.418,10.078.125.125,0,0,0,.12.13Z" transform="translate(-614.826 -3111.949)" fill="#fff"/></g><path d="M625.327,3160.948h-5.347l-1.294-7.327h7.936Z" transform="translate(-615.503 -3133.072)" fill="#ebebeb"/></g></g><g transform="translate(10.419 67.137)"><g transform="translate(1.268 11.989)"><g transform="translate(0 1.974)"><path d="M477.393,3098.253c5.951-8.836-6.229-7.934-7.04-14.376s1-4.738.269-13.119-3.551-10.957-4.715-15.681.368-13.2-3.625-18.64-5.218-3.055-8.607-7.343-4.546,1.416-8.059,4.377-10.461-7.536-16.49-1.7-3.512,14.539-4.553,19.936-7.526,8.856-6.735,17.953,5.3,6.053,4.368,12.647-7.153,7.376-6.362,16.475c0,0,1.04,9.076,10.875,6.532s7.84,3.419,17.9-2.279,8.444,4.573,15.283-.606S472.076,3106.146,477.393,3098.253Z" transform="translate(-415.773 -3027.552)" fill="#2d356b"/></g><g transform="translate(26.395 29.959)"><path d="M520.077,3117.076l9.358,5.879,1.68,20.235-7.518-2.719Z" transform="translate(-513.867 -3117.076)" fill="#f7c371"/><path d="M507.686,3255.943a63.437,63.437,0,0,0,1.073-10.283c.278-20.735-17.345-45.089-2.764-54.463,15.482-9.953,33.867,36.009,33.867,36.009-7.215,15.487-8.648,10.822-7.917,28.737" transform="translate(-500.212 -3167.057)" fill="#f46973"/><path d="M522.125,3187.632l2.719-.319L537,3198.749l-3.6,3.039S525.244,3193.47,522.125,3187.632Z" transform="translate(-515.275 -3165.357)" fill="#fff"/><path d="M548.842,3201.464c.059-.042.112-.083.17-.124-3.208-6.4-10.22-16.2-16.99-15.574C538.185,3191.265,548.842,3201.464,548.842,3201.464Z" transform="translate(-522.078 -3164.274)" fill="#f7c371"/></g><g transform="translate(12.116)"><path d="M483.1,3061.652c-5.155-.448-15.326-.209-21.446-6.749-7.955-8.5-7.475-14.75-6.74-22.379,1.4-14.544,26.165-12.39,25.438-8.048C479.382,3030.242,501.779,3063.276,483.1,3061.652Z" transform="translate(-454.532 -3021.237)" fill="#2d356b"/><path d="M532.2,3070.947c1.79-.327,3.3-10.162,2.953-17.429-.113-2.4-2.681-2.21-3.985-10.217-.765-4.7-4.115-10.788-12.81-14-8.208-3.035-6.1,11.6-6.115,15.073-.055,9.9-1.4,16.349,1.9,20.528C520.588,3073.061,530.179,3070.84,532.2,3070.947Z" transform="translate(-493.983 -3026.497)" fill="#ffd8a3"/><path d="M568.413,3122.756a.419.419,0,0,1,.291-.516.44.44,0,0,1,.444.41.42.42,0,0,1-.292.516A.44.44,0,0,1,568.413,3122.756Z" transform="translate(-532.809 -3090.665)" fill="#ffab00"/><path d="M557.777,3081.454c-.4-1.215-.045-2.412.794-2.674s1.848.51,2.249,1.724.045,2.412-.794,2.675S558.178,3082.67,557.777,3081.454Z" transform="translate(-525.39 -3060.757)" fill="#2d356b"/><path d="M553.122,3080.607c.544-2.086,1.581-4.349,5.127-4.407A12.229,12.229,0,0,0,553.122,3080.607Z" transform="translate(-522.303 -3059.019)" fill="#2d356b"/><path d="M578.929,3138.516c0-.3,1.088.568,1.52.527,1.224-.118,1.161,1.481-.082,1.476C579.882,3140.517,578.93,3138.836,578.929,3138.516Z" transform="translate(-540.043 -3101.812)" fill="#f36973"/><path d="M572.745,3120.9c-.875-.175,4.343-2.771,3.687-.72C576.134,3120.611,573.194,3120.989,572.745,3120.9Z" transform="translate(-535.724 -3088.71)" fill="#f36973"/><path d="M551.259,3056.32c-2.1.264-6.492,1.356-7.026,7.309C545.472,3059.713,546.857,3057.94,551.259,3056.32Z" transform="translate(-516.193 -3045.353)" fill="#2d356b"/><path d="M579.488,3094.745l-2.614,1.355-1.4-7.055,5.05,4.279Z" transform="translate(-537.672 -3067.848)" fill="#ffd8a3"/><path d="M583.486,3110.954l1.351-4.774-2.093.306Z" transform="translate(-542.666 -3079.627)" fill="#ffd8a3"/><path d="M574.356,3127.292a53.054,53.054,0,0,0,.242-6.39l-5,.916S571.559,3126.932,574.356,3127.292Z" transform="translate(-533.628 -3089.747)" fill="#ffab00"/><path d="M573.117,3125.147l2.849-.521c.024-.8.028-1.636.015-2.5l-4.088.748Z" transform="translate(-535.207 -3090.59)" fill="#fff"/><path d="M496.643,3104.055c-.287-2.2.157-3.946-1.513-3.725s-2.8,2.188-2.509,4.393,1.879,3.809,3.552,3.588S496.933,3106.259,496.643,3104.055Z" transform="translate(-480.684 -3075.593)" fill="#f7c371"/><path d="M517.455,3027.433c-3.8,8.9-10.878,22.193-6.591,33.1-6.863-11.189-7.727-27.634-.949-35.711C510.976,3025.875,518.062,3024.2,517.455,3027.433Z" transform="translate(-489.397 -3023.7)" fill="#2d356b"/></g><g transform="translate(27.382 52.377)"><g transform="translate(58.813)"><path d="M694.056,3224.841c1.576-3.353,9.707-7.493,7.5-9.85-1.98-2.112-8.284-2.574-10.037,8.514Z" transform="translate(-691.515 -3205.979)" fill="#ffd9a4"/><path d="M697.631,3210.872c3.259,3.949,8.056-.039,9.277-1.643,1.34-1.765-.314-5.443-2.007-5.938S696.388,3209.36,697.631,3210.872Z" transform="translate(-695.616 -3198.74)" fill="#ffd9a4"/><path d="M702.223,3197.258c.124-3.015-1.184-6.523-2.311-6.266-1.272.287.42,3.09-.35,5.77-.828,2.9-1.2,4.773-.095,5.152S702.1,3200.278,702.223,3197.258Z" transform="translate(-696.51 -3190.295)" fill="#ffd9a4"/><path d="M713.317,3192.706c1.554-2.067,1.891-3.5,1.295-3.853s-1.409.883-2.963,2.946-4.044,4.3-3.448,4.652S711.758,3194.767,713.317,3192.706Z" transform="translate(-702.922 -3188.793)" fill="#ffd9a4"/><path d="M722.5,3197.767c1.977-1.747,2.911-4.134,2.407-4.588s-1.935,1.582-3.911,3.328-3.164,2.985-2.658,3.438S720.519,3199.513,722.5,3197.767Z" transform="translate(-709.869 -3191.764)" fill="#ffd9a4"/><path d="M723.319,3210c1.9-1.823,2.553-3.271,2.038-3.71s-1.543,1-3.444,2.822-3.21,3.127-2.693,3.568S721.415,3211.829,723.319,3210Z" transform="translate(-710.481 -3200.769)" fill="#ffd9a4"/></g><g transform="translate(0 6.909)"><path d="M504.422,3211c-8.02,5.486,32.381,47.345,34.266,48.2,0,0,4.78-2.524,3.992-4.833C540.639,3248.4,508,3208.555,504.422,3211Z" transform="translate(-503.37 -3210.896)" fill="#ffb2b0"/><path d="M634.763,3241.646c6.653,3.745-20.514,36.159-21.937,36.948,0,0-5.71-1.018-5.242-2.871C608.8,3270.933,631.792,3239.975,634.763,3241.646Z" transform="translate(-574.989 -3231.989)" fill="#ffb2b0"/><path d="M680.531,3235.8l-2.271-.538-6.821,5.676s3.734,1.759,4.744,1.625S680.531,3235.8,680.531,3235.8Z" transform="translate(-618.901 -3227.648)" fill="#eaeaea"/><path d="M694.24,3236.683l1.867,1.423-.164,8.881s-3.764-1.788-4.3-2.658S694.24,3236.683,694.24,3236.683Z" transform="translate(-632.75 -3228.622)" fill="#eaeaea"/></g></g></g></g><g transform="translate(162.003 27.97)"><g transform="translate(14.497 47.131)"><path d="M941.7,3054.949l7.368,1.241c12.62,8.351-3.678,37.428,1.243,69.6H949.27c-4.921-25.76.906-55.189-4.225-55.385-5.383-.205,3.38,55.385,3.38,55.385h-1.293c-3.33-19.4-13.924-54.22-8.712-65.25A40.657,40.657,0,0,1,941.7,3054.949Z" transform="translate(-933.806 -3054.239)" fill="#ffd8a3"/><path d="M987.186,3327.675h-3.53s-.17-1.146.617-1.331C984.769,3326.229,985.646,3326.5,987.186,3327.675Z" transform="translate(-968.443 -3255.778)" fill="#495bd9"/><path d="M963.9,3327.377h4.621s.224-1.147-.807-1.331C967.066,3325.93,965.918,3326.2,963.9,3327.377Z" transform="translate(-953.784 -3255.556)" fill="#495bd9"/><path d="M930.286,3094c-2.061-10.787-12.606-31.877,1.576-41.816l8.606,1.576s12,2.667,1.454,40.968Z" transform="translate(-924.582 -3052.187)" fill="#9ea9fc"/></g><g transform="translate(0 17.304)"><path d="M871.593,2954.7c.2-1.425-1.57-4.5-.351-4.794,1.092-.268,3.242.918,1.462,4.9Z" transform="translate(-870.15 -2946.369)" fill="#ffd9a4"/><path d="M872.35,2948.906c-1.9.595-2.614-1.72-2.671-2.5-.062-.859,1.256-1.705,1.912-1.507S873.075,2948.678,872.35,2948.906Z" transform="translate(-869.31 -2942.658)" fill="#ffd9a4"/><path d="M878.389,2946.306c.6-1.007,1.768-1.872,2.081-1.549.353.362-.792.917-1.109,1.952-.346,1.121-.622,1.806-1.061,1.7S877.788,2947.314,878.389,2946.306Z" transform="translate(-875.456 -2942.523)" fill="#ffd9a4"/><path d="M876.2,2938.851c-.067-1,.128-1.541.4-1.528s.271.586.34,1.587.4,2.257.136,2.245S876.269,2939.852,876.2,2938.851Z" transform="translate(-874.142 -2937.053)" fill="#ffd9a4"/><path d="M871.318,2938.282c-.273-.987-.071-1.962.189-2s.295.925.567,1.912.4,1.642.136,1.683S871.591,2939.269,871.318,2938.282Z" transform="translate(-870.431 -2936.278)" fill="#ffd9a4"/><path d="M868.38,2943.245c-.233-1-.137-1.606.124-1.639s.29.652.523,1.649.381,1.7.12,1.731S868.613,2944.243,868.38,2943.245Z" transform="translate(-868.248 -2940.234)" fill="#ffd9a4"/><g transform="translate(0.299 6.627)"><path d="M904.883,2962.068c3.177,2.036-12.019,18.757-12.741,19.109,0,0-1.885-.924-1.606-1.83C891.259,2977,903.464,2961.159,904.883,2962.068Z" transform="translate(-885.079 -2962.03)" fill="#7b88ac"/><path d="M876.209,2969.453c-2.915.544,3.021,15.861,3.445,16.329,0,0,2.227.34,2.287-.4C882.094,2983.468,877.511,2969.21,876.209,2969.453Z" transform="translate(-873.864 -2967.541)" fill="#7b88ac"/><path d="M876.6,2966.415l.9.086,1.8,2.94a7.044,7.044,0,0,1-1.947,0C877,2969.269,876.6,2966.415,876.6,2966.415Z" transform="translate(-874.752 -2965.287)" fill="#ebebeb"/><path d="M871.323,2966.347l-.865.29-1.05,3.286a7.091,7.091,0,0,0,1.912-.44C871.626,2969.229,871.323,2966.347,871.323,2966.347Z" transform="translate(-869.408 -2965.236)" fill="#ebebeb"/></g></g><g transform="translate(22.469 23.783)"><g transform="translate(0 26.903)"><path d="M957.587,3076.776c-.066-.264.4-.431.941-.542s.966-.125,1.033.139-.322.569-.867.679S957.653,3077.041,957.587,3076.776Z" transform="translate(-957.062 -3073.546)" fill="#7b88ac"/><path d="M959.271,3079.272c-.066-.265.4-.431.941-.542s.966-.126,1.033.139-.322.568-.867.679S959.337,3079.535,959.271,3079.272Z" transform="translate(-958.313 -3075.399)" fill="#7b88ac"/><path d="M955.717,3071.908c.256-.107.633.5.984,1.229s.546,1.292.289,1.4-.749-.394-1.1-1.121S955.46,3072.015,955.717,3071.908Z" transform="translate(-955.566 -3070.38)" fill="#7b88ac"/><path d="M960.3,3066.005c-1.157.289-4.866.918-4.661,2.184.183,1.132,2.013,2.231,5.219-1.2Z" transform="translate(-955.616 -3066.005)" fill="#7b88ac"/></g><path d="M984.845,2961.561c3.113-1.727,10.1,18.4,10.065,19.161,0,0-1.8,2.018-2.421,1.38C990.877,2980.45,983.455,2962.332,984.845,2961.561Z" transform="translate(-977.182 -2961.456)" fill="#7b88ac"/><path d="M992.661,3047.08c-2.523-.986,5.364-13.514,5.827-13.86,0,0,2.06.077,1.983.749C1000.275,3035.706,993.788,3047.52,992.661,3047.08Z" transform="translate(-982.747 -3014.753)" fill="#7b88ac"/><path d="M972.832,3065.381l.662.543,3.164-.775s-.948-1.181-1.3-1.3S972.832,3065.381,972.832,3065.381Z" transform="translate(-968.389 -3037.497)" fill="#7b88ac"/><path d="M971.835,3059.425l-.387-.771,1.484-2.9a6.715,6.715,0,0,1,.989,1.569C973.957,3057.694,971.835,3059.425,971.835,3059.425Z" transform="translate(-967.361 -3031.487)" fill="#7b88ac"/></g><g transform="translate(14.828 15.664)"><path d="M925.871,2986.509s4.35,3.853,8.7,5.3l2.266-4.9,2.085,4.9s5.881-1.657,8.247-5.3c-4.792-6.949-6.685-12.747-1.716-19.979,0,0-2-12.934-9.251-13.255s-8.543,13.788-8.543,13.788C932.374,2974.126,933.917,2977.194,925.871,2986.509Z" transform="translate(-925.871 -2947.257)" fill="#9ea9fc"/><path d="M954.229,2959.308a4.392,4.392,0,0,1,2.809,1.013,9.057,9.057,0,0,0,.7-5.828c-4.414-3.319-7.134.345-7.134.345a8.293,8.293,0,0,0,.978,5.36A4.381,4.381,0,0,1,954.229,2959.308Z" transform="translate(-944.162 -2947.134)" fill="#fff"/><path d="M955.634,2954.217s-.734,3.683,2.6,7.679c0,0,2.837-3.889,2.036-7.964C957.4,2951.189,955.634,2954.217,955.634,2954.217Z" transform="translate(-947.924 -2946.896)" fill="#f7c371"/><rect width="3.786" height="7.098" transform="translate(8.164)" fill="#f7c371"/><path d="M969.929,3020.334a.532.532,0,1,0-.532.532A.532.532,0,0,0,969.929,3020.334Z" transform="translate(-957.801 -2996.669)" fill="#fff"/><path d="M969.929,3036.5a.532.532,0,1,0-.532.533A.532.532,0,0,0,969.929,3036.5Z" transform="translate(-957.801 -3008.678)" fill="#fff"/><path d="M969.929,3068.846a.532.532,0,1,0-.532.532A.532.532,0,0,0,969.929,3068.846Z" transform="translate(-957.801 -3032.697)" fill="#fff"/><path d="M969.929,3052.676a.532.532,0,1,0-.532.532A.532.532,0,0,0,969.929,3052.676Z" transform="translate(-957.801 -3020.688)" fill="#fff"/></g><g transform="translate(14.91)"><path d="M934.314,2883.71a4.734,4.734,0,0,1-.912,4.952c-2.438,2.349-4.157-.808-4.157-.808.76,1.162,2.433.96,2.281-.455s-.811-.353-1.977-1.163.152-2.021-.152-2.577c-.826-1.507-1.978-.454-2.687-1.666-2.6-4.437,5.222-14.046,8.923-12.833,0,0,7.932-2.281,9.075,12.58.05.657-2.383,1.314-2.028,2.679s.609.959.152,1.768-3.143.707-2.129,1.819a1.523,1.523,0,0,0,2.484.051s-1.673,3.587-4.918-.3-.2-4.244-.2-4.244Z" transform="translate(-926.191 -2869.034)" fill="#fff4ba"/><g transform="translate(3.881 5.463)"><path d="M949.244,2905.329c-2.1,0-6.841-5.75-4.884-12.817.4-1.428,1.948-2.25,4.884-2.25,3.229,0,4.706.873,4.942,2.03C955.849,2900.47,951.4,2905.329,949.244,2905.329Z" transform="translate(-943.222 -2890.262)" fill="#ffd8a3"/><path d="M967.674,2903.4a2.648,2.648,0,0,1,3.191,1.665A3.394,3.394,0,0,0,967.674,2903.4Z" transform="translate(-960.88 -2899.966)" fill="#2d356b"/><path d="M950.539,2904.015a2.638,2.638,0,0,0-3.356,1.271A3.386,3.386,0,0,1,950.539,2904.015Z" transform="translate(-945.662 -2900.34)" fill="#2d356b"/><path d="M972.707,2913.386a.583.583,0,1,0-.534.75A.661.661,0,0,0,972.707,2913.386Z" transform="translate(-963.779 -2906.914)" fill="#2d356b"/><path d="M971.823,2913.243a1.925,1.925,0,0,0-2.365-.368A4.849,4.849,0,0,1,971.823,2913.243Z" transform="translate(-962.205 -2906.866)" fill="#2d356b"/><path d="M952.839,2913.386a.583.583,0,1,1,.534.75A.66.66,0,0,1,952.839,2913.386Z" transform="translate(-949.862 -2906.914)" fill="#2d356b"/><path d="M950.163,2913.243a1.924,1.924,0,0,1,2.364-.368A4.846,4.846,0,0,0,950.163,2913.243Z" transform="translate(-947.876 -2906.866)" fill="#2d356b"/><path d="M962.17,2920.2a1.539,1.539,0,0,0,.63.262.9.9,0,0,0,.63-.288,7.207,7.207,0,0,0-.6-2.125A6.849,6.849,0,0,0,962.17,2920.2Z" transform="translate(-956.793 -2910.898)" fill="#ffab00"/><path d="M963.635,2919.068c0,.039.187.1.253.1.113,0,.249-.058.254-.128.011-.169.1-2.089-.239-2.071C963.531,2916.99,963.631,2918.823,963.635,2919.068Z" transform="translate(-957.869 -2910.098)" fill="#ffd8a3"/><path d="M963.721,2939.2c0-.234-.259-.211-.592-.211s-.616-.023-.616.211.27.424.6.424S963.721,2939.434,963.721,2939.2Z" transform="translate(-957.047 -2926.449)" fill="#f36973"/><path d="M962.645,2930.723a1.047,1.047,0,0,0-1.1-.033c-.208,0-.416-.351-1.134.033-.206.11.5.424,1.118.424S962.852,2930.834,962.645,2930.723Z" transform="translate(-955.457 -2920.178)" fill="#f36973"/><path d="M958.529,2931.313h3.249s-.435,2.337-1.624,2.337S958.529,2931.313,958.529,2931.313Z" transform="translate(-954.089 -2920.75)" fill="#ffab00"/><path d="M962.155,2931.776h-2.8l.307.951h2.183Z" transform="translate(-954.704 -2921.093)" fill="#fff"/><path d="M970.923,2930.738a.165.165,0,1,0-.163.19A.179.179,0,0,0,970.923,2930.738Z" transform="translate(-963.051 -2920.181)" fill="#ffab00"/><path d="M958.117,2930.738a.166.166,0,1,0-.163.19A.179.179,0,0,0,958.117,2930.738Z" transform="translate(-953.54 -2920.181)" fill="#ffab00"/><path d="M942.119,2918.418c-.1-.464-.038-.84-.38-.767a.772.772,0,0,0-.44.972c.1.463.457.78.8.707S942.219,2918.882,942.119,2918.418Z" transform="translate(-941.274 -2910.596)" fill="#f7c371"/><path d="M984.239,2918.429c.088-.466.014-.843.368-.776a.779.779,0,0,1,.482.967c-.088.466-.446.79-.8.723S984.151,2918.9,984.239,2918.429Z" transform="translate(-973.074 -2910.599)" fill="#f7c371"/></g><g transform="translate(3.815 3.089)"><path d="M941.031,2888.153c1.848-.877,6.466-3.325,6.835-6.28,0,0-4.665-.739-5.727,2.17C940.8,2887.717,941.031,2888.153,941.031,2888.153Z" transform="translate(-941.016 -2881.596)" fill="#fff4ba"/><path d="M968.464,2892.857a14.771,14.771,0,0,1-.493-4.353c.179-1.537-4.524-5.089-5.183-6.405-.94-1.877,3.219-.69,3.219-.69C969.771,2884.854,968.925,2888.557,968.464,2892.857Z" transform="translate(-957.083 -2881.039)" fill="#fff4ba"/><g transform="translate(2.659 0.505)"><path d="M955.489,2883c-.285,1.961-2.333,3.825-4.141,5.12,2.005-1.207,4.317-3.016,4.573-5.071C955.921,2883.05,955.758,2883.025,955.489,2883Z" transform="translate(-951.347 -2883.002)" fill="#fff4ba"/></g></g></g><g transform="translate(-5.003 46.822)"><rect width="61.502" height="28.541" rx="6.672" transform="translate(0 8.771)" fill="#fff" stroke="#231f20" stroke-miterlimit="10" stroke-width="0.25"/><text transform="translate(11.751 26.541)" fill="#2d356b" font-size="10" font-family="TrebuchetMS-Bold, Trebuchet MS" font-weight="700"><tspan x="0" y="0">Director</tspan></text></g></g></g><g transform="translate(380.14 2797.573)"><g transform="translate(0 0)"><rect width="100.261" height="28.4" rx="9" transform="translate(100.688 28.4) rotate(-180)" fill="#fff" stroke="#231f20" stroke-miterlimit="10" stroke-width="0.25"/><path d="M567.142,3000.669l-12.589,9.465,6.948-9.465Z" transform="translate(-552.369 -2972.269)" fill="#fff" stroke="#231f20" stroke-miterlimit="10" stroke-width="0.25"/></g></g><g transform="translate(547.756 2747.887)"><g transform="translate(0 0)"><g transform="translate(0 8.624)"><path d="M1004.563,2834.987c0,1.258.489,2.277,1.1,2.277h72.428c.609,0,1.1-1.019,1.1-2.277v-58.451c0-1.254-.489-2.273-1.1-2.273h-72.428c-.609,0-1.1,1.02-1.1,2.273Z" transform="translate(-1004.563 -2772.845)" fill="#40558e"/><path d="M1004.7,2825.058c.046.1,6.493,8.495,6.493,8.554l66.32-.13c.6,0,1.089-1.023,1.089-2.282v-58.442c0-1.258-.488-2.27-1.089-2.27h-71.731c-.6,0-1.083,1.011-1.083,2.27Z" transform="translate(-1004.648 -2770.487)" fill="#fff"/><g transform="translate(0.032 54.571)"><path d="M1010.045,2915.8h-5.4l6.512,8.554v-7.271A1.208,1.208,0,0,0,1010.045,2915.8Z" transform="translate(-1004.647 -2915.798)" fill="#2d356b"/></g></g><path d="M1004.625,2785.021v-22.569c0-1.13.5-2.048,1.1-2.048h72.4c.608,0,1.1.918,1.1,2.048v22.569Z" transform="translate(-1004.602 -2755.566)" fill="#2d356b"/><g transform="translate(13.557)"><g transform="translate(40.884)"><path d="M1149.529,2755.541c0,.91,1.436,1.657,3.2,1.657h.216c1.772,0,3.208-.747,3.208-1.657v-6.363c0-.906-1.436-1.655-3.208-1.655h-.216c-1.765,0-3.2.749-3.2,1.655Z" transform="translate(-1149.529 -2747.523)" fill="#fff4ba"/></g><g transform="translate(20.436)"><path d="M1095.079,2755.541c0,.91,1.449,1.657,3.2,1.657h.241c1.754,0,3.2-.747,3.2-1.657v-6.363c0-.906-1.448-1.655-3.2-1.655h-.241c-1.747,0-3.2.749-3.2,1.655Z" transform="translate(-1095.079 -2747.523)" fill="#fff4ba"/></g><path d="M1040.663,2755.541c0,.91,1.436,1.657,3.2,1.657h.235c1.754,0,3.2-.747,3.2-1.657v-6.363c0-.906-1.442-1.655-3.2-1.655h-.235c-1.76,0-3.2.749-3.2,1.655Z" transform="translate(-1040.663 -2747.523)" fill="#fff4ba"/></g><rect width="57.735" height="30.91" transform="translate(8.444 35.116)" fill="#ebebeb"/></g><text transform="translate(24.963 57.458)" fill="#9999a5" font-size="20" font-family="TrebuchetMS-Bold, Trebuchet MS" font-weight="700"><tspan x="0" y="0">30</tspan></text><text transform="translate(18.492 23.805)" fill="#fff" font-size="14" font-family="TrebuchetMS-Bold, Trebuchet MS" font-weight="700" letter-spacing="0.038em"><tspan x="0" y="0">JUNE</tspan></text></g><g transform="translate(291.578 2750.821)"><rect width="96.38" height="29.996" rx="6.672" transform="translate(3 0)" fill="#fff" stroke="#231f20" stroke-miterlimit="10" stroke-width="0.25"/><text transform="translate(16.133 20.361)" fill="#2d356b" font-size="14" font-family="TrebuchetMS-Bold, Trebuchet MS" font-weight="700"><tspan x="0" y="0">NEXT STEP</tspan></text></g><text transform="translate(390.958 2815.431)" fill="#2d356b" font-size="10" font-family="TrebuchetMS-Bold, Trebuchet MS" font-weight="700"><tspan x="0" y="0">Can I talk to you?</tspan></text></g></svg>