<svg xmlns="http://www.w3.org/2000/svg" width="378.135" height="110.341" viewBox="0 0 378.135 110.341">
  <g id="Group_8162" data-name="Group 8162" transform="translate(-112.933 -2340.329)">
    <g id="Group_7903" data-name="Group 7903" transform="translate(270.319 2340.329)">
      <g id="Group_7902" data-name="Group 7902" transform="translate(0 0)">
        <g id="Group_7901" data-name="Group 7901">
          <g id="Group_7900" data-name="Group 7900">
            <g id="Group_7899" data-name="Group 7899">
              <g id="Group_7898" data-name="Group 7898">
                <g id="Group_7897" data-name="Group 7897">
                  <g id="Group_7885" data-name="Group 7885" transform="translate(0 33.583)">
                    <path id="Path_9483" data-name="Path 9483" d="M1032.68,2472.947c0,.811-1.446,1.468-3.248,1.468H815.18c-1.8,0-3.248-.657-3.248-1.468v-71.913c0-.808,1.446-1.465,3.248-1.465h214.252c1.8,0,3.248.657,3.248,1.465Z" transform="translate(-811.932 -2398.656)" fill="#7b87aa"/>
                    <path id="Path_9484" data-name="Path 9484" d="M1033.844,2456.023c-.136.064-18.2,15.714-18.2,15.752H817.18c-1.787,0-3.24-.659-3.24-1.47V2398.4c0-.811,1.453-1.462,3.24-1.462h213.441c1.787,0,3.223.652,3.223,1.462Z" transform="translate(-813.244 -2396.935)" fill="#fff"/>
                    <g id="Group_7882" data-name="Group 7882" transform="translate(202.401 59.193)">
                      <g id="Group_7881" data-name="Group 7881">
                        <g id="Group_7880" data-name="Group 7880">
                          <path id="Path_9485" data-name="Path 9485" d="M1400.818,2567.631h13.037l-18.256,15.731v-13.371C1395.6,2568.688,1397.936,2567.631,1400.818,2567.631Z" transform="translate(-1395.599 -2567.631)" fill="#40558c"/>
                        </g>
                      </g>
                    </g>
                    <g id="Group_7883" data-name="Group 7883" transform="translate(24.777 21.789)">
                      <rect id="Rectangle_2618" data-name="Rectangle 2618" width="32.168" height="21.472" fill="#e9e9e9"/>
                      <rect id="Rectangle_2619" data-name="Rectangle 2619" width="32.168" height="21.472" transform="translate(35.014)" fill="#e9e9e9"/>
                      <rect id="Rectangle_2620" data-name="Rectangle 2620" width="32.168" height="21.472" transform="translate(70.029)" fill="#e9e9e9"/>
                      <rect id="Rectangle_2621" data-name="Rectangle 2621" width="32.168" height="21.472" transform="translate(105.043)" fill="#e9e9e9"/>
                      <rect id="Rectangle_2622" data-name="Rectangle 2622" width="32.168" height="21.472" transform="translate(140.057)" fill="#e9e9e9"/>
                    </g>
                    <g id="Group_7884" data-name="Group 7884" transform="translate(24.777 45.587)">
                      <rect id="Rectangle_2623" data-name="Rectangle 2623" width="32.168" height="21.472" fill="#e9e9e9"/>
                      <rect id="Rectangle_2624" data-name="Rectangle 2624" width="32.168" height="21.472" transform="translate(35.014)" fill="#e9e9e9"/>
                      <rect id="Rectangle_2625" data-name="Rectangle 2625" width="32.168" height="21.472" transform="translate(70.029)" fill="#e9e9e9"/>
                      <rect id="Rectangle_2626" data-name="Rectangle 2626" width="32.168" height="21.472" transform="translate(105.043)" fill="#e9e9e9"/>
                      <rect id="Rectangle_2627" data-name="Rectangle 2627" width="32.168" height="21.472" transform="translate(140.057)" fill="#e9e9e9"/>
                    </g>
                  </g>
                  <path id="Path_9486" data-name="Path 9486" d="M1032.68,2356.567v-34.722a3.21,3.21,0,0,0-3.257-3.151H815.178a3.2,3.2,0,0,0-3.246,3.151v34.722Z" transform="translate(-811.932 -2312.243)" fill="#2d356b"/>
                  <g id="Group_7896" data-name="Group 7896" transform="translate(21.385)">
                    <g id="Group_7895" data-name="Group 7895">
                      <g id="Group_7886" data-name="Group 7886">
                        <path id="Path_9487" data-name="Path 9487" d="M880.537,2310.784c0,1.212-1.515,2.208-3.349,2.208h-.246c-1.833,0-3.341-1-3.341-2.208V2302.3c0-1.209,1.508-2.206,3.341-2.206h.246c1.833,0,3.349,1,3.349,2.206Z" transform="translate(-873.601 -2300.091)" fill="#fcf2b8"/>
                      </g>
                      <g id="Group_7887" data-name="Group 7887" transform="translate(21.386)">
                        <path id="Path_9488" data-name="Path 9488" d="M942.2,2310.784c0,1.212-1.5,2.208-3.348,2.208h-.226c-1.854,0-3.355-1-3.355-2.208V2302.3c0-1.209,1.5-2.206,3.355-2.206h.226c1.847,0,3.348,1,3.348,2.206Z" transform="translate(-935.272 -2300.091)" fill="#fcf2b8"/>
                      </g>
                      <g id="Group_7888" data-name="Group 7888" transform="translate(42.758)">
                        <path id="Path_9489" data-name="Path 9489" d="M1003.845,2310.784c0,1.212-1.515,2.208-3.342,2.208h-.252c-1.834,0-3.348-1-3.348-2.208V2302.3c0-1.209,1.514-2.206,3.348-2.206h.252c1.826,0,3.342,1,3.342,2.206Z" transform="translate(-996.903 -2300.091)" fill="#fcf2b8"/>
                      </g>
                      <g id="Group_7889" data-name="Group 7889" transform="translate(64.143)">
                        <path id="Path_9490" data-name="Path 9490" d="M1065.5,2310.784c0,1.212-1.5,2.208-3.342,2.208h-.245c-1.834,0-3.342-1-3.342-2.208V2302.3c0-1.209,1.508-2.206,3.342-2.206h.245c1.84,0,3.342,1,3.342,2.206Z" transform="translate(-1058.572 -2300.091)" fill="#fcf2b8"/>
                      </g>
                      <g id="Group_7890" data-name="Group 7890" transform="translate(85.532)">
                        <path id="Path_9491" data-name="Path 9491" d="M1127.175,2310.784c0,1.212-1.515,2.208-3.336,2.208h-.252c-1.833,0-3.335-1-3.335-2.208V2302.3c0-1.209,1.5-2.206,3.335-2.206h.252c1.821,0,3.336,1,3.336,2.206Z" transform="translate(-1120.252 -2300.091)" fill="#fcf2b8"/>
                      </g>
                      <g id="Group_7891" data-name="Group 7891" transform="translate(106.912)">
                        <path id="Path_9492" data-name="Path 9492" d="M1188.84,2310.784c0,1.212-1.528,2.208-3.349,2.208h-.252c-1.847,0-3.335-1-3.335-2.208V2302.3c0-1.209,1.488-2.206,3.335-2.206h.252c1.821,0,3.349,1,3.349,2.206Z" transform="translate(-1181.904 -2300.091)" fill="#fcf2b8"/>
                      </g>
                      <g id="Group_7892" data-name="Group 7892" transform="translate(128.29)">
                        <path id="Path_9493" data-name="Path 9493" d="M1250.476,2310.784c0,1.212-1.5,2.208-3.348,2.208h-.226c-1.847,0-3.348-1-3.348-2.208V2302.3c0-1.209,1.5-2.206,3.348-2.206h.226c1.847,0,3.348,1,3.348,2.206Z" transform="translate(-1243.553 -2300.091)" fill="#fcf2b8"/>
                      </g>
                      <g id="Group_7893" data-name="Group 7893" transform="translate(149.669)">
                        <path id="Path_9494" data-name="Path 9494" d="M1312.127,2310.784c0,1.212-1.5,2.208-3.349,2.208h-.239c-1.821,0-3.336-1-3.336-2.208V2302.3c0-1.209,1.515-2.206,3.336-2.206h.239c1.847,0,3.349,1,3.349,2.206Z" transform="translate(-1305.204 -2300.091)" fill="#fcf2b8"/>
                      </g>
                      <g id="Group_7894" data-name="Group 7894" transform="translate(171.034)">
                        <path id="Path_9495" data-name="Path 9495" d="M1373.752,2310.784c0,1.212-1.5,2.208-3.335,2.208h-.252c-1.82,0-3.349-1-3.349-2.208V2302.3c0-1.209,1.529-2.206,3.349-2.206h.252c1.834,0,3.335,1,3.335,2.206Z" transform="translate(-1366.816 -2300.091)" fill="#fcf2b8"/>
                      </g>
                    </g>
                  </g>
                </g>
              </g>
            </g>
            <text id="Wed" transform="translate(96.04 35.209)" fill="#fff" font-size="14" font-family="TrebuchetMS-Bold, Trebuchet MS" font-weight="700"><tspan x="0" y="0">Wed</tspan></text>
            <text id="Thu" transform="translate(131.716 35.209)" fill="#fff" font-size="14" font-family="TrebuchetMS-Bold, Trebuchet MS" font-weight="700"><tspan x="0" y="0">Thu</tspan></text>
            <text id="Fri" transform="translate(168.619 35.209)" fill="#fff" font-size="14" font-family="TrebuchetMS-Bold, Trebuchet MS" font-weight="700"><tspan x="0" y="0">Fri</tspan></text>
            <text id="Mon" transform="translate(26.473 35.209)" fill="#fff" font-size="14" font-family="TrebuchetMS-Bold, Trebuchet MS" font-weight="700"><tspan x="0" y="0">Mon</tspan></text>
            <text id="Tue" transform="translate(61.717 35.21)" fill="#fff" font-size="14" font-family="TrebuchetMS-Bold, Trebuchet MS" font-weight="700"><tspan x="0" y="0">Tue</tspan></text>
          </g>
        </g>
      </g>
      <text id="Today" transform="translate(27.46 69.364)" fill="#2d356b" font-size="10" font-family="TrebuchetMS-Bold, Trebuchet MS" font-weight="700"><tspan x="0" y="0">Today</tspan></text>
      <text id="Next_Monday" data-name="Next 
Monday" transform="translate(23.541 89.872)" fill="#2d356b" font-size="10" font-family="TrebuchetMS-Bold, Trebuchet MS" font-weight="700"><tspan x="0" y="0">Next </tspan><tspan x="0" y="8">Monday</tspan></text>
    </g>
    <ellipse id="Ellipse_375" data-name="Ellipse 375" cx="21.886" cy="18.355" rx="21.886" ry="18.355" transform="translate(288.67 2411.961)" fill="none" stroke="#f46973" stroke-miterlimit="10" stroke-width="4"/>
    <g id="Group_7973" data-name="Group 7973" transform="translate(112.933 2348.979)">
      <g id="Group_7972" data-name="Group 7972" transform="translate(0 0)">
        <g id="Group_7944" data-name="Group 7944">
          <g id="Group_7908" data-name="Group 7908" transform="translate(1.132 1.133)">
            <g id="Group_7905" data-name="Group 7905" transform="translate(2.974 3.03)">
              <g id="Group_7904" data-name="Group 7904">
                <path id="Path_9496" data-name="Path 9496" d="M452.509,2403.263A44.214,44.214,0,0,1,417.2,2425.3a44.456,44.456,0,0,1-44.894-58.781,44.183,44.183,0,0,1,31.08-28.251,44.473,44.473,0,0,1,54.387,49.968,44.027,44.027,0,0,1-5.262,15.024C440.454,2424.407,464.569,2382.12,452.509,2403.263Z" transform="translate(-369.914 -2337.04)" fill="#81bec0"/>
              </g>
            </g>
            <g id="Group_7907" data-name="Group 7907">
              <g id="Group_7906" data-name="Group 7906">
                <path id="Path_9497" data-name="Path 9497" d="M408.706,2422.692a47.468,47.468,0,0,1-43.838-65.473,47.294,47.294,0,0,1,41.641-28.886,47.406,47.406,0,0,1,42.733,71.17A47.288,47.288,0,0,1,408.706,2422.692Zm-.452-88.385a41.214,41.214,0,1,0,41.385,43.8,41.51,41.51,0,0,0-41.385-43.8Z" transform="translate(-361.337 -2328.302)" fill="#9999a5"/>
              </g>
            </g>
          </g>
          <g id="Group_7911" data-name="Group 7911" transform="translate(2.973 3.03)">
            <g id="Group_7910" data-name="Group 7910">
              <g id="Group_7909" data-name="Group 7909">
                <path id="Path_9498" data-name="Path 9498" d="M449.243,2400a44.213,44.213,0,0,1-35.313,22.038,44.456,44.456,0,0,1-44.894-58.781A44.185,44.185,0,0,1,400.116,2335a44.474,44.474,0,0,1,54.388,49.969,44.042,44.042,0,0,1-5.26,15.025Z" transform="translate(-366.646 -2333.773)" fill="#fff"/>
              </g>
            </g>
          </g>
          <g id="Group_7914" data-name="Group 7914" transform="translate(45.619 1.46)">
            <g id="Group_7913" data-name="Group 7913">
              <g id="Group_7912" data-name="Group 7912">
                <path id="Path_9499" data-name="Path 9499" d="M492.3,2347.073c-3.666,0-2.5-6.7-2.5-8.914s-1.169-8.914,2.5-8.914,2.5,6.7,2.5,8.914S495.96,2347.073,492.3,2347.073Z" transform="translate(-489.624 -2329.245)" fill="#9999a5"/>
              </g>
            </g>
          </g>
          <g id="Group_7917" data-name="Group 7917" transform="translate(77.318 45.707)">
            <g id="Group_7916" data-name="Group 7916">
              <g id="Group_7915" data-name="Group 7915">
                <path id="Path_9500" data-name="Path 9500" d="M596.226,2461.965h-9.467c-1.089,0-2.224.093-3.311,0-3.218,0-3.218-5.006,0-5.006,3.106-.265,6.35,0,9.468,0,1.087,0,2.223-.093,3.311,0C599.445,2456.958,599.445,2461.965,596.226,2461.965Z" transform="translate(-581.034 -2456.841)" fill="#9999a5"/>
              </g>
            </g>
          </g>
          <g id="Group_7920" data-name="Group 7920" transform="translate(45.619 77.368)">
            <g id="Group_7919" data-name="Group 7919">
              <g id="Group_7918" data-name="Group 7918">
                <path id="Path_9501" data-name="Path 9501" d="M492.3,2565.97c-3.666,0-2.5-6.695-2.5-8.914s-1.169-8.913,2.5-8.913,2.5,6.695,2.5,8.913S495.96,2565.97,492.3,2565.97Z" transform="translate(-489.624 -2548.143)" fill="#9999a5"/>
              </g>
            </g>
          </g>
          <g id="Group_7923" data-name="Group 7923" transform="translate(1.644 45.721)">
            <g id="Group_7922" data-name="Group 7922">
              <g id="Group_7921" data-name="Group 7921">
                <path id="Path_9502" data-name="Path 9502" d="M378.006,2462.007h-9.467c-1.091,0-2.227.093-3.313,0-3.218,0-3.218-5,0-5,3.106-.266,6.349,0,9.467,0,1.089,0,2.226-.093,3.313,0C381.224,2457,381.224,2462.007,378.006,2462.007Z" transform="translate(-362.812 -2456.884)" fill="#9999a5"/>
              </g>
            </g>
          </g>
          <g id="Group_7926" data-name="Group 7926" transform="translate(44.486 0.327)">
            <g id="Group_7925" data-name="Group 7925">
              <g id="Group_7924" data-name="Group 7924">
                <path id="Path_9503" data-name="Path 9503" d="M489.032,2343.805c-3.664,0-2.5-6.7-2.5-8.914s-1.167-8.914,2.5-8.914,2.494,6.7,2.494,8.914S492.694,2343.805,489.032,2343.805Z" transform="translate(-486.358 -2325.978)" fill="#ebebeb"/>
              </g>
            </g>
          </g>
          <g id="Group_7929" data-name="Group 7929" transform="translate(76.183 44.574)">
            <g id="Group_7928" data-name="Group 7928">
              <g id="Group_7927" data-name="Group 7927">
                <path id="Path_9504" data-name="Path 9504" d="M592.957,2458.7h-9.466c-1.091,0-2.225.093-3.314,0-3.218,0-3.218-5.005,0-5.005,3.107-.266,6.351,0,9.466,0,1.091,0,2.227-.093,3.315,0C596.175,2453.694,596.175,2458.7,592.957,2458.7Z" transform="translate(-577.763 -2453.575)" fill="#ebebeb"/>
              </g>
            </g>
          </g>
          <g id="Group_7932" data-name="Group 7932" transform="translate(44.486 76.234)">
            <g id="Group_7931" data-name="Group 7931">
              <g id="Group_7930" data-name="Group 7930">
                <path id="Path_9505" data-name="Path 9505" d="M489.032,2562.7c-3.664,0-2.5-6.7-2.5-8.914s-1.167-8.914,2.5-8.914,2.494,6.7,2.494,8.914S492.694,2562.7,489.032,2562.7Z" transform="translate(-486.358 -2544.874)" fill="#ebebeb"/>
              </g>
            </g>
          </g>
          <g id="Group_7935" data-name="Group 7935" transform="translate(0.51 44.589)">
            <g id="Group_7934" data-name="Group 7934">
              <g id="Group_7933" data-name="Group 7933">
                <path id="Path_9506" data-name="Path 9506" d="M374.737,2458.741h-9.464c-1.092,0-2.227.093-3.314,0-3.218,0-3.22-5.005,0-5.005,3.107-.265,6.348,0,9.467,0,1.089,0,2.225-.092,3.311,0C377.957,2453.735,377.957,2458.741,374.737,2458.741Z" transform="translate(-359.544 -2453.617)" fill="#ebebeb"/>
              </g>
            </g>
          </g>
          <g id="Group_7937" data-name="Group 7937">
            <g id="Group_7936" data-name="Group 7936">
              <path id="Path_9507" data-name="Path 9507" d="M405.443,2419.426a47.468,47.468,0,0,1-43.839-65.473,47.292,47.292,0,0,1,41.641-28.886,47.4,47.4,0,0,1,42.732,71.17A47.283,47.283,0,0,1,405.443,2419.426Zm-.455-88.385a41.215,41.215,0,1,0,41.383,43.8,41.507,41.507,0,0,0-41.383-43.8Z" transform="translate(-358.072 -2325.036)" fill="#0080af"/>
            </g>
          </g>
          <g id="Group_7940" data-name="Group 7940" transform="translate(45.556 21.986)">
            <g id="Group_7939" data-name="Group 7939">
              <g id="Group_7938" data-name="Group 7938">
                <path id="Path_9508" data-name="Path 9508" d="M492,2388.452c.957,4.159,1.484,8.374,2.177,12.576.421,2.556.873,4.718.219,7.291-.219.863-1.1,4.555-2.407,4.261-.4-.088-.938-1.418-1.111-1.759a14.745,14.745,0,0,1-1.19-3.3c-.6-2.574.031-4.945.263-7.517.217-2.449.524-4.883.86-7.317C490.908,2392,491.006,2388.16,492,2388.452Z" transform="translate(-489.441 -2388.436)" fill="#9999a5"/>
              </g>
            </g>
          </g>
          <g id="Group_7943" data-name="Group 7943" transform="translate(44.74 13.456)">
            <g id="Group_7942" data-name="Group 7942">
              <g id="Group_7941" data-name="Group 7941">
                <path id="Path_9509" data-name="Path 9509" d="M490.257,2363.868c.833,5.837,1.149,11.713,1.77,17.571a28.885,28.885,0,0,1-.016,9.052c-.169.843-1.3,6.476-2.632,6.011-.465-.163-.951-2.14-1.1-2.577a25.359,25.359,0,0,1-1.04-4.5c-.444-3.187.187-6.107.479-9.267.311-3.259.664-6.513,1.083-9.763.2-1.554.4-3.106.637-4.654C489.531,2365.145,489.354,2363.614,490.257,2363.868Z" transform="translate(-487.089 -2363.839)" fill="#9999a5"/>
              </g>
            </g>
          </g>
        </g>
        <g id="Group_7965" data-name="Group 7965" transform="translate(12.619 12.539)">
          <g id="Group_7949" data-name="Group 7949" transform="translate(14.022)">
            <g id="Group_7946" data-name="Group 7946" transform="translate(35.013)">
              <g id="Group_7945" data-name="Group 7945">
                <path id="Path_9510" data-name="Path 9510" d="M536.518,2368.053c-1.554-.893.088-2.881.649-3.868.573-1,1.546-3.725,3.157-2.8,1.554.892-.087,2.882-.651,3.867-.57,1-1.542,3.725-3.155,2.8C535.871,2367.681,537.166,2368.425,536.518,2368.053Z" transform="translate(-535.867 -2361.196)" fill="#cfd0d8"/>
              </g>
            </g>
            <g id="Group_7948" data-name="Group 7948" transform="translate(0 61.398)">
              <g id="Group_7947" data-name="Group 7947">
                <path id="Path_9511" data-name="Path 9511" d="M435.549,2545.107c-1.553-.893.087-2.881.65-3.867.57-1,1.544-3.726,3.155-2.8,1.554.9-.084,2.88-.648,3.868s-1.547,3.725-3.157,2.8Z" transform="translate(-434.898 -2538.249)" fill="#cfd0d8"/>
              </g>
            </g>
          </g>
          <g id="Group_7954" data-name="Group 7954" transform="translate(13.749 0.154)">
            <g id="Group_7951" data-name="Group 7951">
              <g id="Group_7950" data-name="Group 7950">
                <path id="Path_9512" data-name="Path 9512" d="M437.274,2368.469c-.975-.558-1.608-2.415-2.142-3.331q-.417-.718-.834-1.435a1.365,1.365,0,0,1,1.7-1.949c1.044.457,1.749,2.494,2.274,3.4.279.479.555.957.834,1.435a1.363,1.363,0,0,1-1.828,1.882Z" transform="translate(-434.112 -2361.638)" fill="#cfd0d8"/>
              </g>
            </g>
            <g id="Group_7953" data-name="Group 7953" transform="translate(35.491 61.122)">
              <g id="Group_7952" data-name="Group 7952">
                <path id="Path_9513" data-name="Path 9513" d="M539.619,2544.731c-.978-.565-1.607-2.412-2.143-3.332q-.416-.718-.831-1.435a1.364,1.364,0,0,1,1.694-1.949c1.043.455,1.748,2.494,2.273,3.4.279.479.555.957.834,1.435a1.364,1.364,0,0,1-1.827,1.884C539.421,2544.615,540.027,2544.962,539.619,2544.731Z" transform="translate(-536.459 -2537.898)" fill="#cfd0d8"/>
              </g>
            </g>
          </g>
          <g id="Group_7959" data-name="Group 7959" transform="translate(0 14.067)">
            <g id="Group_7956" data-name="Group 7956">
              <g id="Group_7955" data-name="Group 7955">
                <path id="Path_9514" data-name="Path 9514" d="M395.125,2404.293a1.367,1.367,0,0,1,.519-2.525,2.674,2.674,0,0,1,1.548.587,27.869,27.869,0,0,1,3.577,2.053,1.367,1.367,0,0,1-.521,2.524,2.665,2.665,0,0,1-1.547-.587Q396.91,2405.319,395.125,2404.293Z" transform="translate(-394.463 -2401.761)" fill="#cfd0d8"/>
              </g>
            </g>
            <g id="Group_7958" data-name="Group 7958" transform="translate(61.183 35.126)">
              <g id="Group_7957" data-name="Group 7957">
                <path id="Path_9515" data-name="Path 9515" d="M575.874,2508.059l-3.349-1.923a5.062,5.062,0,0,1-1.287-.819,1.36,1.36,0,0,1,1.677-2.081,25.823,25.823,0,0,1,3.349,1.922,5.162,5.162,0,0,1,1.29.82A1.362,1.362,0,0,1,575.874,2508.059Z" transform="translate(-570.899 -2503.053)" fill="#cfd0d8"/>
              </g>
            </g>
          </g>
          <g id="Group_7964" data-name="Group 7964" transform="translate(0.03 13.829)">
            <g id="Group_7961" data-name="Group 7961" transform="translate(0 35.607)">
              <g id="Group_7960" data-name="Group 7960">
                <path id="Path_9516" data-name="Path 9516" d="M395.325,2508.774c-2.044-1.173.483-2.634,1.45-3.2.921-.539,2.882-2.235,4.048-1.724,2.323,1.015-.357,2.7-1.314,3.265S396.5,2509.447,395.325,2508.774Z" transform="translate(-394.549 -2503.757)" fill="#cfd0d8"/>
              </g>
            </g>
            <g id="Group_7963" data-name="Group 7963" transform="translate(60.922)">
              <g id="Group_7962" data-name="Group 7962">
                <path id="Path_9517" data-name="Path 9517" d="M571.006,2406.093c-2.043-1.173.48-2.634,1.446-3.2.923-.539,2.882-2.234,4.051-1.724,2.321,1.015-.357,2.7-1.317,3.264-.942.552-3.005,2.33-4.18,1.658Z" transform="translate(-570.229 -2401.076)" fill="#cfd0d8"/>
              </g>
            </g>
          </g>
        </g>
        <g id="Group_7971" data-name="Group 7971" transform="translate(41.296 41.313)">
          <g id="Group_7966" data-name="Group 7966" transform="translate(5.875 5.834)">
            <path id="Path_9518" data-name="Path 9518" d="M511.529,2483.237c-3.1-3.545-6.133-7.142-9.16-10.748-1.746-2.081-3.544-4.093-5.119-6.314-.44-.622-3.558-4.674-3.1-5.18.11-.12,4.252,4.361,4.57,4.731,1.788,2.054,3.317,4.306,4.944,6.489q2.568,3.456,5.106,6.938C509.172,2479.71,511.829,2482.668,511.529,2483.237Z" transform="translate(-494.102 -2460.992)" fill="#f8c471"/>
          </g>
          <g id="Group_7968" data-name="Group 7968" transform="translate(1.121 1.284)">
            <g id="Group_7967" data-name="Group 7967">
              <path id="Path_9519" data-name="Path 9519" d="M489.872,2452.471c0,6.13-9.481,6.13-9.481,0S489.872,2446.339,489.872,2452.471Z" transform="translate(-480.391 -2447.872)" fill="#f8c471"/>
            </g>
          </g>
          <g id="Group_7970" data-name="Group 7970">
            <g id="Group_7969" data-name="Group 7969">
              <path id="Path_9520" data-name="Path 9520" d="M483.023,2455.934a5.882,5.882,0,1,1,5.862-5.881A5.933,5.933,0,0,1,483.023,2455.934Zm0-9.511c-4.668,0-4.668,7.258,0,7.258S487.689,2446.423,483.023,2446.423Z" transform="translate(-477.159 -2444.17)" fill="#f8c471"/>
            </g>
          </g>
        </g>
      </g>
    </g>
    <text id="PM" transform="translate(134.319 2388.472)" fill="#cfd0d8" font-size="14" font-family="TrebuchetMS-Bold, Trebuchet MS" font-weight="700"><tspan x="0" y="0">PM</tspan></text>
  </g>
</svg>
