<svg xmlns="http://www.w3.org/2000/svg" xmlns:xlink="http://www.w3.org/1999/xlink" width="402.751" height="275.826" viewBox="0 0 402.751 275.826"><defs><linearGradient id="a" x1="-0.66" y1="0.5" x2="0.34" y2="0.5" gradientUnits="objectBoundingBox"><stop offset="0" stop-color="#ffc074"/><stop offset="1" stop-color="#ffb561"/></linearGradient></defs><g transform="translate(-137.45 -3497.514)"><g transform="translate(-195.564 -1042.102)"><g transform="translate(404.727 4655.427)"><g transform="translate(0 0)"><g transform="translate(0 123.147)"><g transform="translate(0 0)"><rect width="223.469" height="6.455" rx="1.391" transform="translate(223.469 6.455) rotate(180)" fill="url(#a)"/><g transform="translate(8.717 6.455)"><path d="M1051.1,5243.115h14.831c2.878,0,5.211-2.625,5.211-5.864h-25.253C1045.891,5240.49,1048.224,5243.115,1051.1,5243.115Z" transform="translate(-864.989 -5237.251)" fill="#cfd0d8"/><path d="M501.959,5243.115H516.79c2.878,0,5.211-2.625,5.211-5.864H496.748C496.748,5240.49,499.081,5243.115,501.959,5243.115Z" transform="translate(-496.748 -5237.251)" fill="#cfd0d8"/></g></g><rect width="8.463" height="24.55" transform="translate(16.72 12.318)" fill="#cfd0d8"/></g><g transform="translate(21.11 9.212)"><rect width="27.93" height="1.039" transform="translate(86.904 113.932) rotate(180)" fill="#ebebeb"/><path d="M727.664,5124.057l28.279,28.279,18.18-.063-1.036-1.036-27.193-27.18Z" transform="translate(-669.316 -5038.344)" fill="#9999a5"/><path d="M769.955,5152.274l-28.219-28.219H723.5l28.279,28.279Z" transform="translate(-666.431 -5038.343)" fill="#ebebeb"/><path d="M3.772,0H136.465a3.772,3.772,0,0,1,3.772,3.772V97.684a3.772,3.772,0,0,1-3.772,3.772H5.61A5.61,5.61,0,0,1,0,95.847V3.772A3.772,3.772,0,0,1,3.772,0Z" transform="translate(141.805 101.456) rotate(180)" fill="#cfd0d8"/><path d="M537.2,4852.022v76.464l.822,9.283a7.039,7.039,0,0,0,7.4,7.245H669.8c4.278,0,6.872-3.234,6.872-7.512l.77-9.016v-76.464a7.764,7.764,0,0,0-7.756-7.757H544.973A7.767,7.767,0,0,0,537.2,4852.022Z" transform="translate(-537.201 -4844.266)" fill="#7b88ac"/><rect width="132.403" height="79.259" transform="translate(4.074 4.962)" fill="#fff"/></g><g transform="translate(123.493 37.868)"><rect width="11.006" height="20.499" transform="translate(27.17)" fill="#f7c371"/><path d="M902.087,5081.728c-26.062,19.157-52.613,13.4-61.906,0,25.039-34.016-10.85-88.733,31.875-90.508C913.213,4989.512,875.341,5052.716,902.087,5081.728Z" transform="translate(-840.181 -4974.833)" fill="#c2e7e5"/></g><rect width="67.143" height="3.231" transform="translate(62.491 121.109)" fill="#40558e"/><g transform="translate(70.56 70.802)"><g transform="translate(0 44.144)"><g transform="translate(8.707 1.759)"><path d="M728.357,5200.984c-3.593,3.739-7.26,2.977-7.919,1.89-.226-.374,3.064-2.7,6.72-7.541C728,5194.214,730.6,5198.648,728.357,5200.984Z" transform="translate(-716.535 -5195.156)" fill="#f8c471"/><path d="M711.938,5214.639c-2.285,1.1-4.569,1.594-4.171,2.423s2.822.824,5.107-.274,3.439-2.205,3.167-3.7C715.875,5212.163,714.224,5213.54,711.938,5214.639Z" transform="translate(-707.721 -5207.382)" fill="#f8c471"/></g><path d="M732.648,5204.641c-7.926-5.409-17.179.263-16.811-4.25.328-4.042,6.833-10.052,18.432.571Z" transform="translate(-704.637 -5193.289)" fill="#ffd9a4"/><path d="M719.159,5194.2c-.515,4.843-8.864,6.99-11.6,6.3-3.009-.765-4.406-6.238-2.981-8.26S719.449,5191.471,719.159,5194.2Z" transform="translate(-696.443 -5190.679)" fill="#ffd9a4"/><path d="M684.894,5211.53c-3.076.694-5.795,1.941-5.582,2.886s2.726.517,6.249-.312c2.417-.568,7.027-.249,6.816-1.2S688.425,5210.734,684.894,5211.53Z" transform="translate(-679.301 -5204.576)" fill="#ffd9a4"/><path d="M697.531,5200.05c-1.972.128-2.6,1.022-2.155,1.85s1.647.436,3.619.309,3.168-.384,2.717-1.212S699.5,5199.925,697.531,5200.05Z" transform="translate(-690.356 -5196.77)" fill="#ffd9a4"/><path d="M684.286,5203.512c1.877-.617,2.264-1.643,1.621-2.331s-1.7-.009-3.581.609-2.97,1.167-2.326,1.855S682.408,5204.128,684.286,5203.512Z" transform="translate(-679.657 -5197.376)" fill="#ffd9a4"/><path d="M703.207,5189.413c-1.975-.027-2.675.817-2.291,1.678s1.608.562,3.584.587,3.188-.138,2.8-1S705.183,5189.441,703.207,5189.413Z" transform="translate(-694.224 -5189.413)" fill="#ffd9a4"/><path d="M689.564,5192.306c1.919-.471,2.384-1.462,1.8-2.2s-1.7-.14-3.617.329-3.051.935-2.462,1.671S687.645,5192.774,689.564,5192.306Z" transform="translate(-683.341 -5189.654)" fill="#ffd9a4"/></g><path d="M864.022,5045.85c11.765-7.54,17.387,66.77,13.944,69.054,0,0-7.423-.538-9.425-3.418C862.489,5102.787,858.77,5049.215,864.022,5045.85Z" transform="translate(-805.694 -5045.313)" fill="#cecfd7"/><g transform="translate(20.108 46.03)"><path d="M757.622,5207.472c-1.928,10.809,45.8,20.049,47.972,19.19,0,0,4.091-7.271,1.605-8.444C800.772,5215.184,758.484,5202.645,757.622,5207.472Z" transform="translate(-753.697 -5203.067)" fill="#cecfd7"/><path d="M745.645,5199.406l1.569-2.774,12.455-1.063s-1.649,5.438-2.746,6.3S745.645,5199.406,745.645,5199.406Z" transform="translate(-745.428 -5195.569)" fill="#eaeaea"/><path d="M745.185,5207.338l-.247,3.263,9.585,8.7s1.645-5.5,1.224-6.891S745.185,5207.338,745.185,5207.338Z" transform="translate(-744.938 -5203.733)" fill="#eaeaea"/></g></g><g transform="translate(119.958)"><path d="M822.168,4906.839c-5.587-8.832,3.06-12.618,3.366-20.927s-7.038-6.461-7.038-17.235,6.732-12.924,7.649-19.081-7.343-8.616-3.059-16,10.154-6.656,13.825-12.5,12.85-8.311,17.439-4.923,11.57-6.274,19.524.5,5.812,18.158,7.65,24.928,10.1,10.462,10.1,22.156-5.812,8.311-3.977,16.62,9.485,8.617,9.485,20.313c0,0-.306,11.694-12.543,9.539s-9.18,5.231-22.029-.922-9.792,6.77-18.664.922S828.594,4916.994,822.168,4906.839Z" transform="translate(-818.497 -4814.196)" fill="#2d356b"/></g><path d="M842.766,5026.887c2.157-5.526,24.153-9.767,35.216-10.583,31.715-2.337,47.769,2.939,45.859,10.583-14.3,57.229.627,70.774-10.441,81.836-6.17,6.163-105.187,7.407-94.14,1.251s17.208-9.865,18.442-33.238C838.935,5053.347,842.766,5026.887,842.766,5026.887Z" transform="translate(-698.471 -4954)" fill="#c3e8e6"/><text transform="translate(42.059 51.868)" fill="#2d356b" font-size="15" font-family="TrebuchetMS-Bold, Trebuchet MS" font-weight="700"><tspan x="0" y="0">Next</tspan><tspan x="0" y="15">meeting</tspan></text></g></g><g transform="translate(343.038 4625.635)"><g transform="translate(0 0)"><g transform="translate(0 7.035)"><path d="M1038.95,4792.585c0,1.026.484,1.858,1.086,1.858h71.6c.6,0,1.085-.832,1.085-1.858V4744.9c0-1.023-.484-1.855-1.085-1.855h-71.6c-.6,0-1.086.832-1.086,1.855Z" transform="translate(-1038.95 -4741.894)" fill="#40558e"/><path d="M1039.113,4783.79c.045.081,6.419,6.929,6.419,6.978l65.559-.107c.594,0,1.076-.835,1.076-1.861v-47.673c0-1.027-.483-1.852-1.076-1.852h-70.907c-.593,0-1.071.825-1.071,1.852Z" transform="translate(-1039.063 -4739.274)" fill="#fff"/><g transform="translate(0.031 44.515)"><path d="M1044.388,4884.585h-5.336l6.438,6.979v-5.931A1.076,1.076,0,0,0,1044.388,4884.585Z" transform="translate(-1039.052 -4884.585)" fill="#2d356b"/></g></g><path d="M1039.025,4744.122v-13.688a1.174,1.174,0,0,1,1.088-1.242h71.571a1.17,1.17,0,0,1,1.085,1.242v13.688Z" transform="translate(-1039.002 -4725.246)" fill="#2d356b"/><g transform="translate(13.401)"><g transform="translate(40.415)"><path d="M1214.622,4722.852c0,.741,1.419,1.351,3.164,1.351H1218c1.752,0,3.171-.609,3.171-1.351v-5.191c0-.739-1.419-1.349-3.171-1.349h-.214c-1.745,0-3.164.61-3.164,1.349Z" transform="translate(-1214.622 -4716.311)" fill="#fff4ba"/></g><g transform="translate(20.201)"><path d="M1148.638,4722.852c0,.741,1.432,1.351,3.158,1.351h.239c1.734,0,3.165-.609,3.165-1.351v-5.191c0-.739-1.431-1.349-3.165-1.349h-.239c-1.727,0-3.158.61-3.158,1.349Z" transform="translate(-1148.638 -4716.311)" fill="#fff4ba"/></g><path d="M1082.7,4722.852c0,.741,1.419,1.351,3.159,1.351h.232c1.734,0,3.159-.609,3.159-1.351v-5.191c0-.739-1.426-1.349-3.159-1.349h-.232c-1.74,0-3.159.61-3.159,1.349Z" transform="translate(-1082.696 -4716.311)" fill="#fff4ba"/></g><rect width="59.66" height="25.214" transform="translate(7.054 26.264)" fill="#ebebeb"/></g><text transform="translate(15.511 43.646)" fill="#9999a5" font-size="15" font-family="TrebuchetMS-Bold, Trebuchet MS" font-weight="700"><tspan x="0" y="0">Today</tspan></text></g><g transform="translate(399.71 4540.121)"><g transform="translate(0 0)"><path d="M664.31,4659.378a16.49,16.49,0,0,0-3.257,10.033c.586,17.433,32.933,30.564,72.251,29.327,21.329-.67,40.325-5.433,53.151-12.431,14,15.381,44.5,24.062,69.052,19.457,23.118-4.336,32.912-18.934,23.776-33.741,34.789-1.349,62.43-12.869,61.989-25.959-.313-9.32-14.78-16.95-35.652-20.271,11.734-4,18.85-9.146,18.668-14.559-.375-11.161-31.631-19.237-69.813-18.036q-4.18.131-8.228.4c-6.544-12.517-34.934-21.24-68.642-20.179-38.181,1.2-68.72,14.5-68.208,29.7a11.122,11.122,0,0,0,.149,1.471c-5.774-.2-11.75-.217-17.869-.026-47.984,1.507-86.466,15.157-85.95,30.485C606.131,4647.1,630.551,4656.607,664.31,4659.378Z" transform="translate(-605.721 -4573.335)" fill="#fff" stroke="#cfd0d8" stroke-miterlimit="10" stroke-width="1"/><ellipse cx="6.029" cy="5.783" rx="6.029" ry="5.783" transform="translate(201.969 127.818) rotate(-13.723)" fill="#fff" stroke="#cfd0d8" stroke-miterlimit="10" stroke-width="1"/><ellipse cx="3.573" cy="3.427" rx="3.573" ry="3.427" transform="translate(197.686 138.937) rotate(-13.723)" fill="#fff" stroke="#cfd0d8" stroke-miterlimit="10" stroke-width="1"/><ellipse cx="3.056" cy="2.931" rx="3.056" ry="2.931" transform="translate(188.224 147.045) rotate(-13.723)" fill="#fff" stroke="#cfd0d8" stroke-miterlimit="10" stroke-width="1"/></g></g></g><g transform="translate(137.575 3544.31)"><rect width="96.679" height="29.731" rx="6.672" fill="#fff" stroke="#231f20" stroke-miterlimit="10" stroke-width="0.25"/><text transform="translate(13.34 19.866)" fill="#2d356b" font-size="14" font-family="TrebuchetMS-Bold, Trebuchet MS" font-weight="700"><tspan x="0" y="0">NEXT STEP</tspan></text></g></g></svg>