<svg xmlns="http://www.w3.org/2000/svg" width="181.053" height="136.391" viewBox="0 0 181.053 136.391">
  <g id="Group_7649" data-name="Group 7649" transform="translate(22.725 -12.712)">
    <g id="Group_7632" data-name="Group 7632" transform="translate(126.849 105.188)">
      <path id="Path_9392" data-name="Path 9392" d="M776.1,2435.669c-1.587.479-5.048-2.168-3.414-3.568,0,0-3.116-2.386-.581-3.731,0,0-2.549-3.134-.058-3.974,0,0-3.874-4.933-.484-4.849,0,0-1.781-5.279,1.674-4.5,0,0,.609-5.736,3.357-3.781,0,0-.272-5.455,3.221-2.435,0,0,2.318-6.321,3.243-1.909,0,0,2.913-4.336,3.805-1.258,0,0,6.61-3.12,4.514.221,0,0,6.708-2.232,4.753,1.045,0,0,6.528,1.094,3.136,4.039,0,0,4.9,4.469.658,4.838,0,0,3.753,6.327-.384,5.085,0,0,3.615,7.358-1.053,4.8,0,0,3.366,8.342-.617,5.378,0,0,.82,10.149-2.127,5.672Z" transform="translate(-770.177 -2404.336)" fill="#7b88ac"/>
      <g id="Group_7631" data-name="Group 7631" transform="translate(2.012 6.477)">
        <g id="Group_7629" data-name="Group 7629">
          <path id="Path_9393" data-name="Path 9393" d="M855.907,2477.079c.231-2.423,1.313-3.732,2.384-3.732s1.728,1.31,1.5,3.732a3.612,3.612,0,0,1-3.072,3.545C855.644,2480.624,855.676,2479.5,855.907,2477.079Z" transform="translate(-832.38 -2459.339)" fill="#f7c371"/>
          <path id="Path_9394" data-name="Path 9394" d="M781.044,2477.545c-.161-2.421-1.25-3.732-2.374-3.732s-1.853,1.311-1.692,3.732a3.54,3.54,0,0,0,3.1,3.546C781.2,2481.091,781.206,2479.967,781.044,2477.545Z" transform="translate(-776.956 -2459.667)" fill="#f7c371"/>
          <g id="Group_7628" data-name="Group 7628" transform="translate(2.438)">
            <g id="Group_7627" data-name="Group 7627">
              <path id="Path_9395" data-name="Path 9395" d="M785.249,2458.445c.16,1.116,5.273,5.93,11.094,5.93A15.36,15.36,0,0,0,808,2458.208c1.011-1.779-3.066-24.429-5.443-26.325s-11.954-.644-12.766.355C787.858,2434.61,784.617,2454.058,785.249,2458.445Z" transform="translate(-785.168 -2429.49)" fill="#f8c471"/>
              <path id="Path_9396" data-name="Path 9396" d="M814.347,2428.707c-.417-1.986-2.895-2.551-6.55-2.551s-6.619,1.129-6.619,2.521,2.964,2.52,6.619,2.52S814.632,2430.076,814.347,2428.707Z" transform="translate(-796.426 -2426.156)" fill="#f8c471"/>
            </g>
            <path id="Path_9397" data-name="Path 9397" d="M792.91,2440.921c.839.347,4.151-7,4.845-8.227s.575-2.505-.263-2.852-2.081.368-2.775,1.6S792.072,2440.574,792.91,2440.921Z" transform="translate(-790.468 -2428.687)" fill="#f8c471"/>
            <path id="Path_9398" data-name="Path 9398" d="M840.676,2439.63c.882-.256-1.448-7.71-1.961-9s-1.642-2.131-2.525-1.876-1.182,1.511-.67,2.8S839.793,2439.886,840.676,2439.63Z" transform="translate(-820.398 -2427.949)" fill="#f8c471"/>
          </g>
        </g>
        <g id="Group_7630" data-name="Group 7630" transform="translate(8.887 22.838)">
          <path id="Path_9399" data-name="Path 9399" d="M808.581,2504.594s.7,4.122,1.391,4.33a18.643,18.643,0,0,0,5.807.1c.77-.169,1.581-4.7,1.581-4.7Z" transform="translate(-808.081 -2503.961)" fill="#ffab00"/>
          <path id="Path_9400" data-name="Path 9400" d="M817.394,2505.141l-8.059.207,1.038,3.923c.905.273,5.448.41,6.08,0Z" transform="translate(-808.611 -2504.533)" fill="#fff"/>
          <path id="Path_9401" data-name="Path 9401" d="M838.038,2503.229c-.061-.141-.289-.179-.512-.084s-.356.284-.3.426.289.178.512.085S838.1,2503.371,838.038,2503.229Z" transform="translate(-828.215 -2503.093)" fill="#ffab00"/>
          <path id="Path_9402" data-name="Path 9402" d="M807.751,2504.767c.038-.148-.121-.318-.355-.38s-.455.008-.5.157.12.317.354.379S807.711,2504.915,807.751,2504.767Z" transform="translate(-806.896 -2503.987)" fill="#ffab00"/>
        </g>
        <path id="Path_9403" data-name="Path 9403" d="M801.234,2461.017a.9.9,0,0,0-.418-.625c-.6-.368-5.081,1.351-4.933,2.083l.094.459c.107.527,1.411-.224,2.773-.557,1.3-.319,2.665-.2,2.587-.7Z" transform="translate(-790.262 -2450.194)" fill="#2d356b"/>
        <path id="Path_9404" data-name="Path 9404" d="M831.768,2461.7a.878.878,0,0,1,.353-.669c.574-.434,5.371.764,5.307,1.508l-.041.468c-.046.536-1.474-.063-2.909-.239-1.373-.168-2.756.107-2.737-.4Z" transform="translate(-815.479 -2450.613)" fill="#2d356b"/>
        <path id="Path_9405" data-name="Path 9405" d="M816.791,2476.143a4.144,4.144,0,0,0,1.872,1,2.485,2.485,0,0,0,1.871-1.109c.084-.667-1.282-8.108-1.766-8.177S816.757,2475.172,816.791,2476.143Z" transform="translate(-804.966 -2455.481)" fill="#ffab00"/>
        <path id="Path_9406" data-name="Path 9406" d="M819.573,2474.918c0,.169.775.438,1.048.438.466,0,1.028-.248,1.048-.552.046-.732.418-9.042-.99-8.964C819.138,2465.925,819.553,2473.854,819.573,2474.918Z" transform="translate(-806.877 -2454.06)" fill="#f8c471"/>
        <path id="Path_9407" data-name="Path 9407" d="M806.708,2474.309c0-.638-.353-1.156-.781-1.156s-.77.518-.766,1.156.353,1.155.781,1.155S806.712,2474.947,806.708,2474.309Z" transform="translate(-796.789 -2459.203)" fill="#2d356b"/>
        <path id="Path_9408" data-name="Path 9408" d="M839.863,2474.309c0-.638-.354-1.156-.78-1.156s-.77.518-.766,1.156.353,1.155.781,1.155S839.867,2474.947,839.863,2474.309Z" transform="translate(-820.102 -2459.203)" fill="#2d356b"/>
      </g>
      <path id="Path_9409" data-name="Path 9409" d="M799.356,2425.607c-.7,1.758,4.089,1.248,5.337.07,0,0-.069-1.04,1.594-1.04s2.772,1.8,3.6.97,2.073,1.573,3.534.9-.97-3.812-.97-3.812S801.228,2420.895,799.356,2425.607Z" transform="translate(-790.646 -2417.009)" fill="#7b88ac"/>
    </g>
    <g id="Group_7639" data-name="Group 7639" transform="translate(-14.197 16.837)">
      <path id="Path_9410" data-name="Path 9410" d="M385.759,2026.7c.115-3.974,5.632-4.5,10.438-3.974,0,0-.507.783,4.118,1.377,4.755.611,1.683,5.081,5.939,3.169,0,0,3.374,2.368-.22,17.032h0l-22.756,5.458c-.751-5.858-5.13-18.01-.979-21.819" transform="translate(-378.901 -2022.556)" fill="#2d356b"/>
      <path id="Path_9411" data-name="Path 9411" d="M389.162,2067.841c-1-8.412-.3-26.535,4.606-29.44s11.775-2.252,14.019.6c5.908,7.51,4.105,22.731,3.6,28.938Z" transform="translate(-384.691 -2032.373)" fill="#2d356b"/>
      <g id="Group_7637" data-name="Group 7637" transform="translate(0 3.559)">
        <g id="Group_7635" data-name="Group 7635">
          <path id="Path_9412" data-name="Path 9412" d="M460.585,2089.727c.25-2.625,1.423-4.045,2.584-4.045s1.872,1.42,1.622,4.045-2.167,3.841-3.329,3.841S460.335,2092.351,460.585,2089.727Z" transform="translate(-435.089 -2070.503)" fill="#f7c371"/>
          <path id="Path_9413" data-name="Path 9413" d="M379.46,2090.232c-.174-2.624-1.355-4.044-2.573-4.044s-2.009,1.42-1.834,4.044a3.836,3.836,0,0,0,3.361,3.842C379.632,2094.075,379.635,2092.856,379.46,2090.232Z" transform="translate(-375.03 -2070.859)" fill="#f7c371"/>
          <g id="Group_7634" data-name="Group 7634" transform="translate(2.642)">
            <g id="Group_7633" data-name="Group 7633">
              <path id="Path_9414" data-name="Path 9414" d="M384.016,2069.534c.174,1.208,5.714,6.426,12.022,6.426s11.535-4.755,12.63-6.682-3.323-26.472-5.9-28.528-12.954-.7-13.834.385C386.844,2043.705,383.331,2064.78,384.016,2069.534Z" transform="translate(-383.929 -2038.158)" fill="#ffd8a3"/>
              <path id="Path_9415" data-name="Path 9415" d="M415.548,2037.308c-.452-2.152-3.137-2.763-7.1-2.763s-7.172,1.223-7.172,2.731,3.211,2.73,7.172,2.73S415.858,2038.793,415.548,2037.308Z" transform="translate(-396.128 -2034.545)" fill="#ffd8a3"/>
            </g>
            <path id="Path_9416" data-name="Path 9416" d="M392.319,2050.544c.909.376,4.5-7.583,5.25-8.915s.624-2.715-.285-3.09-2.255.4-3.007,1.731S391.41,2050.169,392.319,2050.544Z" transform="translate(-389.672 -2037.287)" fill="#ffd8a3"/>
            <path id="Path_9417" data-name="Path 9417" d="M444.079,2049.146c.956-.277-1.569-8.355-2.125-9.755s-1.779-2.31-2.736-2.033-1.281,1.637-.726,3.037S443.122,2049.424,444.079,2049.146Z" transform="translate(-422.105 -2036.488)" fill="#ffd8a3"/>
          </g>
        </g>
        <g id="Group_7636" data-name="Group 7636" transform="translate(9.631 24.748)">
          <path id="Path_9418" data-name="Path 9418" d="M409.3,2119.544s.759,4.466,1.507,4.692a20.215,20.215,0,0,0,6.293.112c.835-.183,1.713-5.093,1.713-5.093Z" transform="translate(-408.758 -2118.858)" fill="#ffab00"/>
          <path id="Path_9419" data-name="Path 9419" d="M418.85,2120.136l-8.733.225,1.125,4.252c.98.3,5.9.444,6.589,0Z" transform="translate(-409.332 -2119.478)" fill="#fff"/>
          <path id="Path_9420" data-name="Path 9420" d="M441.22,2118.065c-.066-.152-.313-.193-.555-.091s-.386.308-.321.462.313.193.555.091S441.285,2118.219,441.22,2118.065Z" transform="translate(-430.576 -2117.918)" fill="#ffab00"/>
          <path id="Path_9421" data-name="Path 9421" d="M408.4,2119.731c.042-.161-.131-.345-.384-.412s-.493.009-.537.17.13.344.384.411S408.358,2119.892,408.4,2119.731Z" transform="translate(-407.474 -2118.886)" fill="#ffab00"/>
        </g>
        <path id="Path_9422" data-name="Path 9422" d="M401.337,2072.322a.97.97,0,0,0-.453-.678c-.653-.4-5.507,1.464-5.346,2.258l.1.5c.116.571,1.529-.243,3.005-.6,1.41-.345,2.888-.212,2.8-.755Z" transform="translate(-389.448 -2060.593)" fill="#2d356b"/>
        <path id="Path_9423" data-name="Path 9423" d="M434.427,2073.061a.95.95,0,0,1,.382-.725c.622-.47,5.82.828,5.751,1.634l-.044.506c-.05.581-1.6-.068-3.152-.258-1.488-.182-2.987.116-2.966-.432Z" transform="translate(-416.776 -2061.048)" fill="#2d356b"/>
        <path id="Path_9424" data-name="Path 9424" d="M418.2,2088.713a4.492,4.492,0,0,0,2.029,1.089,2.692,2.692,0,0,0,2.027-1.2c.091-.723-1.389-8.786-1.914-8.861S418.159,2087.662,418.2,2088.713Z" transform="translate(-405.382 -2066.323)" fill="#ffab00"/>
        <path id="Path_9425" data-name="Path 9425" d="M421.211,2087.386c0,.184.839.475,1.135.475.5,0,1.115-.269,1.136-.6.05-.793.453-9.8-1.073-9.714C420.74,2077.641,421.19,2086.234,421.211,2087.386Z" transform="translate(-407.453 -2064.784)" fill="#ffd8a3"/>
        <path id="Path_9426" data-name="Path 9426" d="M407.271,2086.725c0-.691-.383-1.252-.846-1.252s-.834.561-.831,1.252.383,1.252.847,1.252S407.275,2087.417,407.271,2086.725Z" transform="translate(-396.521 -2070.356)" fill="#2d356b"/>
        <path id="Path_9427" data-name="Path 9427" d="M443.2,2086.725c0-.691-.384-1.252-.846-1.252s-.834.561-.831,1.252.383,1.252.847,1.252S443.2,2087.417,443.2,2086.725Z" transform="translate(-421.785 -2070.356)" fill="#2d356b"/>
      </g>
      <g id="Group_7638" data-name="Group 7638" transform="translate(14.454 2.357)">
        <path id="Path_9428" data-name="Path 9428" d="M423.725,2030.5c1.752.651,6.909,3.6,3.655,5.007,0,0,6.209-.2,1.5-4.356Z" transform="translate(-423.725 -2030.498)" fill="#2d356b"/>
        <path id="Path_9429" data-name="Path 9429" d="M436.827,2034.041c1.574,1.11,4.826,3.42,2.113,5.007,0,0,4.616-.212,1.554-4.734Z" transform="translate(-432.938 -2032.989)" fill="#2d356b"/>
      </g>
    </g>
    <g id="Group_7643" data-name="Group 7643" transform="translate(-22.725 101.188)">
      <g id="Group_7640" data-name="Group 7640">
        <path id="Path_9430" data-name="Path 9430" d="M369.234,2425.136c-4.312,4.111-11.156,2.116-13.39-4.78,0,0-6.3,4.886-6.341-8.771s9.416-18.525,11.409-18.616c0,0-1.662-10.629,9.334-5.764,0,0,2.031-4.929,8.482-4.946,4.834-.012,10.262,4.553,8.651,8.5,0,0,9.645.613,9.217,8.63a11.352,11.352,0,0,1-7.042,10.276,2.4,2.4,0,0,1,2.57,2.829,9.1,9.1,0,0,1-2.651,5.218s3.082-.536,2.958.955-4.435,1.368-4.435,1.368,2.443,2.956-.553,5.274-9.488-2.51-9.488-2.51Z" transform="translate(-349.503 -2382.259)" fill="#9999a5"/>
      </g>
      <g id="Group_7641" data-name="Group 7641" transform="translate(9.396 14.61)">
        <path id="Path_9431" data-name="Path 9431" d="M398,2464.784c-4.65,0-15.121-12.709-10.8-28.33.875-3.157,4.307-4.974,10.8-4.974,7.137,0,10.4,1.93,10.922,4.487C412.6,2454.045,402.762,2464.784,398,2464.784Z" transform="translate(-384.69 -2431.48)" fill="#ffd8a3"/>
        <path id="Path_9432" data-name="Path 9432" d="M431.745,2456.686a5.852,5.852,0,0,1,7.053,3.68C436.9,2457.762,435.424,2456.79,431.745,2456.686Z" transform="translate(-416.729 -2449.086)" fill="#2d356b"/>
        <path id="Path_9433" data-name="Path 9433" d="M399.9,2457.889a5.831,5.831,0,0,0-7.418,2.808C394.678,2458.342,396.254,2457.554,399.9,2457.889Z" transform="translate(-389.12 -2449.766)" fill="#2d356b"/>
        <path id="Path_9434" data-name="Path 9434" d="M441.722,2476a1.289,1.289,0,1,0-1.18,1.659A1.459,1.459,0,0,0,441.722,2476Z" transform="translate(-421.987 -2461.693)" fill="#2d356b"/>
        <path id="Path_9435" data-name="Path 9435" d="M440.391,2475.7a4.255,4.255,0,0,0-5.227-.813A10.731,10.731,0,0,1,440.391,2475.7Z" transform="translate(-419.133 -2461.605)" fill="#2d356b"/>
        <path id="Path_9436" data-name="Path 9436" d="M403.317,2476a1.289,1.289,0,1,1,1.18,1.659A1.459,1.459,0,0,1,403.317,2476Z" transform="translate(-396.738 -2461.693)" fill="#2d356b"/>
        <path id="Path_9437" data-name="Path 9437" d="M398.192,2475.7a4.253,4.253,0,0,1,5.225-.813A10.725,10.725,0,0,0,398.192,2475.7Z" transform="translate(-393.135 -2461.605)" fill="#2d356b"/>
        <path id="Path_9438" data-name="Path 9438" d="M421.2,2489.479a3.4,3.4,0,0,0,1.393.578,1.98,1.98,0,0,0,1.393-.636c.062-.384-.954-4.658-1.316-4.7S421.173,2488.924,421.2,2489.479Z" transform="translate(-409.313 -2468.92)" fill="#ffab00"/>
        <path id="Path_9439" data-name="Path 9439" d="M424.011,2487.3c0,.087.414.224.56.224.249,0,.55-.128.56-.282.025-.374.223-4.618-.529-4.577C423.779,2482.7,424,2486.753,424.011,2487.3Z" transform="translate(-411.266 -2467.468)" fill="#ffd8a3"/>
        <path id="Path_9440" data-name="Path 9440" d="M424.526,2525.318c0-.518-.572-.468-1.31-.468s-1.361-.05-1.361.468.6.937,1.335.937S424.526,2525.836,424.526,2525.318Z" transform="translate(-409.775 -2497.134)" fill="#f36973"/>
        <path id="Path_9441" data-name="Path 9441" d="M422.777,2509.065a2.316,2.316,0,0,0-2.439-.073c-.459,0-.92-.777-2.506.073-.456.244,1.106.937,2.473.937S423.234,2509.31,422.777,2509.065Z" transform="translate(-406.889 -2485.756)" fill="#f36973"/>
        <path id="Path_9442" data-name="Path 9442" d="M414.221,2510.141H421.4s-.963,5.167-3.59,5.167S414.221,2510.141,414.221,2510.141Z" transform="translate(-404.406 -2486.792)" fill="#ffab00"/>
        <path id="Path_9443" data-name="Path 9443" d="M421.994,2511.028h-6.184l.68,2.1h4.824Z" transform="translate(-405.523 -2487.416)" fill="#fff"/>
        <path id="Path_9444" data-name="Path 9444" d="M438.066,2509.1a.365.365,0,1,0-.361.421A.395.395,0,0,0,438.066,2509.1Z" transform="translate(-420.666 -2485.761)" fill="#ffab00"/>
        <path id="Path_9445" data-name="Path 9445" d="M413.53,2509.1a.366.366,0,1,0-.361.421A.4.4,0,0,0,413.53,2509.1Z" transform="translate(-403.412 -2485.761)" fill="#ffab00"/>
        <path id="Path_9446" data-name="Path 9446" d="M383.026,2485.661c-.219-1.025-.083-1.858-.839-1.7a1.705,1.705,0,0,0-.973,2.148c.218,1.024,1.01,1.724,1.766,1.562S383.245,2486.686,383.026,2485.661Z" transform="translate(-381.157 -2468.372)" fill="#f7c371"/>
        <path id="Path_9447" data-name="Path 9447" d="M463.4,2485.615c.243-1.019.119-1.859.893-1.674a1.721,1.721,0,0,1,.963,2.185c-.243,1.019-1.068,1.7-1.843,1.512S463.156,2486.637,463.4,2485.615Z" transform="translate(-438.708 -2468.351)" fill="#f7c371"/>
      </g>
      <g id="Group_7642" data-name="Group 7642" transform="translate(17.376 9.324)">
        <path id="Path_9448" data-name="Path 9448" d="M411.9,2416.542c.629,2.067,8.8,11.271,16.887,4.913,0,0-8.112-.225-8.724-7.782Z" transform="translate(-410.751 -2413.672)" fill="#9999a5"/>
        <path id="Path_9449" data-name="Path 9449" d="M408.041,2436.638c1.489-1.137,3.328-4.466,2.364-6.742s.351-6.306,2.978-7.794l-1.577-.614s-4.147,3.7-2.189,8.32C410.843,2432.7,408.041,2436.638,408.041,2436.638Z" transform="translate(-408.041 -2419.168)" fill="#9999a5"/>
      </g>
    </g>
    <g id="Group_7647" data-name="Group 7647" transform="translate(121.121 13.284)">
      <g id="Group_7644" data-name="Group 7644">
        <path id="Path_9450" data-name="Path 9450" d="M768.271,2055.708C760.2,2044.072,751.9,2039,762.7,2023.6c6.013-8.576,12.52-4.707,12.52-4.707s7.608-5.179,15.744,6.813c9.423,13.889-1.318,22.442-4.242,30.887,0,0-7.972-6.115-10.819-6.115S768.271,2055.708,768.271,2055.708Z" transform="translate(-757.547 -2017.785)" fill="#ffb2b0"/>
      </g>
      <g id="Group_7645" data-name="Group 7645" transform="translate(5.544 9.946)">
        <path id="Path_9451" data-name="Path 9451" d="M793.911,2086.26c-4.882,0-15.876-13.344-11.335-29.745.919-3.315,4.522-5.223,11.335-5.223,7.494,0,10.922,2.027,11.468,4.711C809.24,2074.985,798.908,2086.26,793.911,2086.26Z" transform="translate(-779.934 -2051.293)" fill="#ffd8a3"/>
        <path id="Path_9452" data-name="Path 9452" d="M829.339,2077.757a6.145,6.145,0,0,1,7.4,3.864C834.749,2078.888,833.2,2077.867,829.339,2077.757Z" transform="translate(-813.573 -2069.778)" fill="#2d356b"/>
        <path id="Path_9453" data-name="Path 9453" d="M795.9,2079.021a6.122,6.122,0,0,0-7.789,2.948C790.42,2079.5,792.074,2078.669,795.9,2079.021Z" transform="translate(-784.584 -2070.492)" fill="#2d356b"/>
        <path id="Path_9454" data-name="Path 9454" d="M839.814,2098.032a1.353,1.353,0,1,0-1.239,1.742A1.531,1.531,0,0,0,839.814,2098.032Z" transform="translate(-819.093 -2083.015)" fill="#2d356b"/>
        <path id="Path_9455" data-name="Path 9455" d="M838.416,2097.721a4.468,4.468,0,0,0-5.488-.854A11.273,11.273,0,0,1,838.416,2097.721Z" transform="translate(-816.096 -2082.923)" fill="#2d356b"/>
        <path id="Path_9456" data-name="Path 9456" d="M799.492,2098.032a1.353,1.353,0,1,1,1.238,1.742A1.531,1.531,0,0,1,799.492,2098.032Z" transform="translate(-792.584 -2083.015)" fill="#2d356b"/>
        <path id="Path_9457" data-name="Path 9457" d="M794.109,2097.721a4.466,4.466,0,0,1,5.486-.854A11.268,11.268,0,0,0,794.109,2097.721Z" transform="translate(-788.8 -2082.923)" fill="#2d356b"/>
        <path id="Path_9458" data-name="Path 9458" d="M818.267,2112.189a3.573,3.573,0,0,0,1.462.607,2.081,2.081,0,0,0,1.462-.667c.065-.4-1-4.891-1.381-4.931S818.239,2111.606,818.267,2112.189Z" transform="translate(-805.787 -2090.604)" fill="#ffab00"/>
        <path id="Path_9459" data-name="Path 9459" d="M821.218,2109.9c0,.091.435.235.588.235.262,0,.578-.134.588-.3.026-.392.234-4.849-.555-4.806C820.975,2105.073,821.208,2109.327,821.218,2109.9Z" transform="translate(-807.837 -2089.078)" fill="#ffd8a3"/>
        <path id="Path_9460" data-name="Path 9460" d="M821.759,2149.817c0-.544-.6-.491-1.375-.491s-1.429-.052-1.429.491.627.984,1.4.984S821.759,2150.361,821.759,2149.817Z" transform="translate(-806.27 -2120.226)" fill="#f36973"/>
        <path id="Path_9461" data-name="Path 9461" d="M819.923,2132.752a2.433,2.433,0,0,0-2.561-.077c-.482,0-.966-.815-2.63.077-.479.257,1.161.984,2.6.984S820.4,2133.009,819.923,2132.752Z" transform="translate(-803.242 -2108.279)" fill="#f36973"/>
        <path id="Path_9462" data-name="Path 9462" d="M810.94,2133.883h7.539s-1.011,5.425-3.77,5.425S810.94,2133.883,810.94,2133.883Z" transform="translate(-800.635 -2109.367)" fill="#ffab00"/>
        <path id="Path_9463" data-name="Path 9463" d="M819.1,2134.814h-6.493l.714,2.207h5.065Z" transform="translate(-801.807 -2110.022)" fill="#fff"/>
        <path id="Path_9464" data-name="Path 9464" d="M835.976,2132.786a.383.383,0,1,0-.379.442A.414.414,0,0,0,835.976,2132.786Z" transform="translate(-817.707 -2108.285)" fill="#ffab00"/>
        <path id="Path_9465" data-name="Path 9465" d="M810.213,2132.786a.384.384,0,1,0-.379.442A.415.415,0,0,0,810.213,2132.786Z" transform="translate(-799.59 -2108.285)" fill="#ffab00"/>
        <path id="Path_9466" data-name="Path 9466" d="M778.187,2108.18c-.23-1.076-.088-1.95-.881-1.781a1.791,1.791,0,0,0-1.021,2.256c.229,1.075,1.06,1.81,1.854,1.64S778.417,2109.257,778.187,2108.18Z" transform="translate(-776.224 -2090.028)" fill="#f7c371"/>
        <path id="Path_9467" data-name="Path 9467" d="M862.494,2108.094c.286-1.062.18-1.947.987-1.73a2.071,2.071,0,0,1-1.033,3.853C861.64,2110,862.209,2109.159,862.494,2108.094Z" transform="translate(-836.562 -2089.994)" fill="#f7c371"/>
      </g>
      <g id="Group_7646" data-name="Group 7646" transform="translate(4.198 1.574)">
        <path id="Path_9468" data-name="Path 9468" d="M773.049,2053.529c-3.189,7.287.228,15.6.228,15.6,0-2.619,2.05-16.285,12.868-20.385C786.145,2048.745,776.237,2046.24,773.049,2053.529Z" transform="translate(-771.689 -2040.837)" fill="#ffb2b0"/>
        <path id="Path_9469" data-name="Path 9469" d="M815.557,2026.475c1.36,3.872,3.7,13.416,16.239,20.111C832.958,2025.839,825.688,2027.337,815.557,2026.475Z" transform="translate(-802.535 -2025.47)" fill="#ffb2b0"/>
        <path id="Path_9470" data-name="Path 9470" d="M815.958,2023.911c-.048,4.585.437,11.128,4.292,15.124-5.034-3.652-5.872-11.326-6.138-15.947C814.767,2023.357,815.379,2023.632,815.958,2023.911Z" transform="translate(-801.519 -2023.088)" fill="#ffb2b0"/>
      </g>
    </g>
    <g id="Group_6348" data-name="Group 6348" transform="translate(27.192 12.712)">
      <g id="Group_6346" data-name="Group 6346">
        <g id="Group_6345" data-name="Group 6345">
          <g id="Group_6339" data-name="Group 6339" transform="translate(0 21.594)">
            <path id="Path_7569" data-name="Path 7569" d="M947.973,2221.565c0,1.492.58,2.7,1.3,2.7h85.979c.723,0,1.3-1.209,1.3-2.7v-69.34c0-1.487-.58-2.7-1.3-2.7H949.276c-.723,0-1.3,1.209-1.3,2.7Z" transform="translate(-947.973 -2147.846)" fill="#40558e"/>
            <path id="Path_7570" data-name="Path 7570" d="M948.081,2211.225c.054.118,7.709,10.077,7.709,10.148l78.728-.156c.713,0,1.293-1.214,1.293-2.707v-69.33c0-1.492-.58-2.692-1.293-2.692H949.367c-.713,0-1.286,1.2-1.286,2.692Z" transform="translate(-948.021 -2146.488)" fill="#fff"/>
            <g id="Group_6338" data-name="Group 6338" transform="translate(0.037 64.737)">
              <g id="Group_6337" data-name="Group 6337">
                <g id="Group_6336" data-name="Group 6336">
                  <path id="Path_7571" data-name="Path 7571" d="M954.448,2263.513H948.04l7.731,10.148v-8.626A1.434,1.434,0,0,0,954.448,2263.513Z" transform="translate(-948.04 -2263.513)" fill="#2d356b"/>
                </g>
              </g>
            </g>
          </g>
          <path id="Path_7572" data-name="Path 7572" d="M948.023,2150.9v-30.324c0-1.519.587-2.752,1.307-2.752h85.949c.721,0,1.3,1.234,1.3,2.752V2150.9Z" transform="translate(-947.995 -2112.087)" fill="#2d356b"/>
          <g id="Group_6344" data-name="Group 6344" transform="translate(16.093)">
            <g id="Group_6343" data-name="Group 6343">
              <g id="Group_6340" data-name="Group 6340" transform="translate(48.533)">
                <path id="Path_7573" data-name="Path 7573" d="M1064.8,2116.963c0,1.079,1.7,1.965,3.8,1.965h.257c2.1,0,3.808-.886,3.808-1.965v-7.549c0-1.075-1.7-1.962-3.808-1.962h-.257c-2.1,0-3.8.887-3.8,1.962Z" transform="translate(-1064.799 -2107.452)" fill="#fff4ba"/>
              </g>
              <g id="Group_6341" data-name="Group 6341" transform="translate(24.259)">
                <path id="Path_7574" data-name="Path 7574" d="M1020.918,2116.963c0,1.079,1.72,1.965,3.793,1.965H1025c2.082,0,3.8-.886,3.8-1.965v-7.549c0-1.075-1.719-1.962-3.8-1.962h-.286c-2.073,0-3.793.887-3.793,1.962Z" transform="translate(-1020.918 -2107.452)" fill="#fff4ba"/>
              </g>
              <g id="Group_6342" data-name="Group 6342">
                <path id="Path_7575" data-name="Path 7575" d="M977.065,2116.963c0,1.079,1.7,1.965,3.793,1.965h.279c2.082,0,3.794-.886,3.794-1.965v-7.549c0-1.075-1.712-1.962-3.794-1.962h-.279c-2.089,0-3.793.887-3.793,1.962Z" transform="translate(-977.065 -2107.452)" fill="#fff4ba"/>
              </g>
            </g>
          </g>
        </g>
      </g>
      <g id="Group_6347" data-name="Group 6347" transform="translate(30.627 16.998)">
        <text id="Schedule" transform="translate(-12 11)" fill="#fff" font-size="12" font-family="TrebuchetMS-Bold, Trebuchet MS" font-weight="700"><tspan x="0" y="0">Schedule</tspan></text>
      </g>
      <g id="Group_7648" data-name="Group 7648" transform="translate(3.473 51.071)">
        <rect id="Rectangle_2610" data-name="Rectangle 2610" width="80.584" height="28.923" rx="6.672" fill="#fff" stroke="#231f20" stroke-miterlimit="10" stroke-width="0.25"/>
        <text id="Meeting" transform="translate(40.292 18.461)" fill="#2d356b" font-size="13" font-family="TrebuchetMS-Bold, Trebuchet MS" font-weight="700"><tspan x="-23.931" y="0">Meeting</tspan></text>
      </g>
    </g>
    <path id="Path_9471" data-name="Path 9471" d="M460.18,2166.595a.59.59,0,0,1,.475.409l5.112,16.527a.59.59,0,0,1-.9.656l-14.236-10.03a.59.59,0,0,1,.246-1.065l3.394-.542-3.008-4.081a.59.59,0,0,1,.125-.825l2.454-1.809a.608.608,0,0,1,.825.125l3.184,4.32,1.719-3.37a.591.591,0,0,1,.576-.319Z" transform="translate(-1183.406 -1804.719) rotate(-21)" fill="#2d356b"/>
    <path id="Path_9472" data-name="Path 9472" d="M757.327,2166.59a.591.591,0,0,1,.576.319l1.719,3.37,3.184-4.32a.608.608,0,0,1,.825-.125l2.454,1.809a.591.591,0,0,1,.125.825l-3.008,4.081,3.393.542a.59.59,0,0,1,.246,1.065l-14.236,10.03a.59.59,0,0,1-.9-.656L756.814,2167a.59.59,0,0,1,.475-.409Z" transform="matrix(0.966, 0.259, -0.259, 0.966, -53.574, -2236.243)" fill="#2d356b"/>
    <path id="Path_9473" data-name="Path 9473" d="M459.709,2349.969a.591.591,0,0,1-.576-.319l-1.719-3.37-3.184,4.32a.608.608,0,0,1-.825.125l-2.454-1.81a.591.591,0,0,1-.125-.825l3.008-4.08-3.393-.542a.59.59,0,0,1-.246-1.065l14.236-10.03a.59.59,0,0,1,.9.656l-5.112,16.527a.589.589,0,0,1-.475.409Z" transform="matrix(0.966, 0.259, -0.259, 0.966, 188.362, -2285.987)" fill="#2d356b"/>
    <path id="Path_9474" data-name="Path 9474" d="M756.856,2349.965a.589.589,0,0,1-.475-.409l-5.112-16.527a.59.59,0,0,1,.9-.656l14.236,10.03a.59.59,0,0,1-.246,1.065l-3.393.542,3.008,4.08a.59.59,0,0,1-.125.825l-2.454,1.81a.607.607,0,0,1-.825-.125l-3.184-4.32-1.719,3.37a.591.591,0,0,1-.577.319Z" transform="matrix(0.966, -0.259, 0.259, 0.966, -1222.128, -1971.107)" fill="#2d356b"/>
  </g>
</svg>
