<svg id="Group_8198" data-name="Group 8198" xmlns="http://www.w3.org/2000/svg" width="219.581" height="177.583" viewBox="0 0 219.581 177.583">
  <g id="Group_8196" data-name="Group 8196" transform="translate(0 0)">
    <g id="Group_8195" data-name="Group 8195">
      <g id="Group_8181" data-name="Group 8181" transform="translate(0 23.986)">
        <path id="Path_10467" data-name="Path 10467" d="M507.955,8631.341c0,3-1.439,5.431-3.232,5.431H291.6c-1.792,0-3.231-2.431-3.231-5.431V8491.975c0-2.99,1.438-5.421,3.231-5.421H504.723c1.793,0,3.232,2.431,3.232,5.421Z" transform="translate(-288.374 -8483.174)" fill="#40558e"/>
        <path id="Path_10468" data-name="Path 10468" d="M510.619,8606.584c-.135.238-30.208,19.941-30.208,20.084H295.753c-1.772,0-3.213-2.438-3.213-5.439V8481.882c0-3,1.441-5.412,3.213-5.412h211.67c1.772,0,3.2,2.411,3.2,5.412Z" transform="translate(-291.144 -8476.47)" fill="#fff"/>
        <g id="Group_8180" data-name="Group 8180" transform="translate(197.814 130.115)">
          <g id="Group_8179" data-name="Group 8179">
            <g id="Group_8178" data-name="Group 8178">
              <path id="Path_10469" data-name="Path 10469" d="M690.639,8864.673h17.986l-21.7,20.4v-17.337C686.924,8866.044,688.587,8864.673,690.639,8864.673Z" transform="translate(-686.924 -8864.673)" fill="#2d356b"/>
            </g>
          </g>
        </g>
      </g>
      <path id="Path_10470" data-name="Path 10470" d="M507.906,8460.958V8427.9a3.131,3.131,0,0,0-3.239-3H291.6a3.117,3.117,0,0,0-3.228,3v33.054Z" transform="translate(-288.374 -8418.202)" fill="#2d356b"/>
      <g id="Group_8194" data-name="Group 8194" transform="translate(11.319)">
        <g id="Group_8193" data-name="Group 8193">
          <g id="Group_8182" data-name="Group 8182">
            <path id="Path_10471" data-name="Path 10471" d="M326.312,8413.362a1.9,1.9,0,0,1-2.008,1.747h-.144a1.9,1.9,0,0,1-2.016-1.747v-6.71a1.9,1.9,0,0,1,2.016-1.745h.144a1.9,1.9,0,0,1,2.008,1.745Z" transform="translate(-322.144 -8404.907)" fill="#fff4ba"/>
          </g>
          <g id="Group_8183" data-name="Group 8183" transform="translate(12.852)">
            <path id="Path_10472" data-name="Path 10472" d="M364.656,8413.362a1.9,1.9,0,0,1-2.012,1.747H362.5a1.9,1.9,0,0,1-2.008-1.747v-6.71a1.9,1.9,0,0,1,2.008-1.745h.148a1.9,1.9,0,0,1,2.012,1.745Z" transform="translate(-360.488 -8404.907)" fill="#fff4ba"/>
          </g>
          <g id="Group_8184" data-name="Group 8184" transform="translate(38.552)">
            <path id="Path_10473" data-name="Path 10473" d="M403,8413.362a1.9,1.9,0,0,1-2.012,1.747h-.136a1.9,1.9,0,0,1-2.016-1.747v-6.71a1.9,1.9,0,0,1,2.016-1.745h.136a1.9,1.9,0,0,1,2.012,1.745Z" transform="translate(-398.832 -8404.907)" fill="#fff4ba"/>
          </g>
          <g id="Group_8185" data-name="Group 8185" transform="translate(57.817)">
            <path id="Path_10474" data-name="Path 10474" d="M441.324,8413.362a1.9,1.9,0,0,1-2.008,1.747h-.151a1.9,1.9,0,0,1-2.012-1.747v-6.71a1.9,1.9,0,0,1,2.012-1.745h.151a1.9,1.9,0,0,1,2.008,1.745Z" transform="translate(-437.152 -8404.907)" fill="#fff4ba"/>
          </g>
          <g id="Group_8186" data-name="Group 8186" transform="translate(77.092)">
            <path id="Path_10475" data-name="Path 10475" d="M479.659,8413.362a1.9,1.9,0,0,1-2.008,1.747H477.5a1.9,1.9,0,0,1-2.009-1.747v-6.71a1.9,1.9,0,0,1,2.009-1.745h.147a1.9,1.9,0,0,1,2.008,1.745Z" transform="translate(-475.495 -8404.907)" fill="#fff4ba"/>
          </g>
          <g id="Group_8187" data-name="Group 8187" transform="translate(96.37)">
            <path id="Path_10476" data-name="Path 10476" d="M518.005,8413.362a1.9,1.9,0,0,1-2,1.747h-.151a1.9,1.9,0,0,1-2-1.747v-6.71a1.9,1.9,0,0,1,2-1.745H516a1.9,1.9,0,0,1,2,1.745Z" transform="translate(-513.845 -8404.907)" fill="#fff4ba"/>
          </g>
          <g id="Group_8188" data-name="Group 8188" transform="translate(115.642)">
            <path id="Path_10477" data-name="Path 10477" d="M556.346,8413.362a1.909,1.909,0,0,1-2.012,1.747h-.152a1.891,1.891,0,0,1-2-1.747v-6.71a1.89,1.89,0,0,1,2-1.745h.152a1.909,1.909,0,0,1,2.012,1.745Z" transform="translate(-552.178 -8404.907)" fill="#fff4ba"/>
          </g>
          <g id="Group_8189" data-name="Group 8189" transform="translate(134.909)">
            <path id="Path_10478" data-name="Path 10478" d="M594.669,8413.362a1.9,1.9,0,0,1-2.012,1.747h-.136a1.9,1.9,0,0,1-2.012-1.747v-6.71a1.9,1.9,0,0,1,2.012-1.745h.136a1.9,1.9,0,0,1,2.012,1.745Z" transform="translate(-590.509 -8404.907)" fill="#fff4ba"/>
          </g>
          <g id="Group_8190" data-name="Group 8190" transform="translate(154.179)">
            <path id="Path_10479" data-name="Path 10479" d="M633,8413.362a1.9,1.9,0,0,1-2.012,1.747h-.143a1.9,1.9,0,0,1-2-1.747v-6.71a1.9,1.9,0,0,1,2-1.745h.143a1.9,1.9,0,0,1,2.012,1.745Z" transform="translate(-628.841 -8404.907)" fill="#fff4ba"/>
          </g>
          <g id="Group_8191" data-name="Group 8191" transform="translate(179.867)">
            <path id="Path_10480" data-name="Path 10480" d="M671.317,8413.362a1.9,1.9,0,0,1-2,1.747h-.152a1.909,1.909,0,0,1-2.012-1.747v-6.71a1.909,1.909,0,0,1,2.012-1.745h.152a1.9,1.9,0,0,1,2,1.745Z" transform="translate(-667.148 -8404.907)" fill="#fff4ba"/>
          </g>
          <g id="Group_8192" data-name="Group 8192" transform="translate(192.723)">
            <path id="Path_10481" data-name="Path 10481" d="M709.673,8413.362a1.9,1.9,0,0,1-2.012,1.747h-.143a1.9,1.9,0,0,1-2.012-1.747v-6.71a1.9,1.9,0,0,1,2.012-1.745h.143a1.9,1.9,0,0,1,2.012,1.745Z" transform="translate(-705.505 -8404.907)" fill="#fff4ba"/>
          </g>
        </g>
      </g>
    </g>
  </g>
  <g id="Group_8197" data-name="Group 8197" transform="translate(23.569 65.577)">
    <line id="Line_28" data-name="Line 28" y1="0.119" x2="173.738" transform="translate(0.868 89.157)" fill="#7b88ac" stroke="#7b88ac" stroke-miterlimit="10" stroke-width="0.75"/>
    <line id="Line_29" data-name="Line 29" x2="173.59" transform="translate(0 22.319)" fill="#7b88ac" stroke="#7b88ac" stroke-miterlimit="10" stroke-width="0.75"/>
    <line id="Line_30" data-name="Line 30" x2="173.499" fill="#7b88ac" stroke="#7b88ac" stroke-miterlimit="10" stroke-width="0.75"/>
    <line id="Line_31" data-name="Line 31" x2="173.499" transform="translate(0 44.638)" fill="#7b88ac" stroke="#7b88ac" stroke-miterlimit="10" stroke-width="0.75"/>
    <line id="Line_32" data-name="Line 32" x2="173.59" transform="translate(0.868 66.957)" fill="#7b88ac" stroke="#7b88ac" stroke-miterlimit="10" stroke-width="0.75"/>
  </g>
  <text id="AM" transform="translate(8.103 68.728)" fill="#2d356b" font-size="10" font-family="TrebuchetMS-Bold, Trebuchet MS" font-weight="700"><tspan x="0" y="0">AM</tspan></text>
  <text id="PM" transform="translate(8.104 113.747)" fill="#2d356b" font-size="10" font-family="TrebuchetMS-Bold, Trebuchet MS" font-weight="700"><tspan x="0" y="0">PM</tspan></text>
  <text id="Wednesday" transform="translate(57.29 34.743)" fill="#fff" font-size="20" font-family="TrebuchetMS-Bold, Trebuchet MS" font-weight="700"><tspan x="0" y="0">Wednesday</tspan></text>
  <rect id="Rectangle_2662" data-name="Rectangle 2662" width="165.138" height="15.381" transform="translate(27.512 65.577)" fill="#fff4ba"/>
  <rect id="Rectangle_2663" data-name="Rectangle 2663" width="165.138" height="31.606" transform="translate(27.512 109.632)" fill="#03b4e9"/>
  <text id="meeting_with_Marketing" data-name="meeting with Marketing" transform="translate(30.1 78.074)" fill="#2d356b" font-size="14" font-family="TrebuchetMS-Bold, Trebuchet MS" font-weight="700"><tspan x="0" y="0">meeting with Marketing</tspan></text>
  <rect id="Rectangle_2664" data-name="Rectangle 2664" width="165.138" height="15.381" transform="translate(27.512 87.896)" fill="#ffb2b0"/>
  <text id="management_training" data-name="management training" transform="translate(30.1 100.393)" fill="#2d356b" font-size="14" font-family="TrebuchetMS-Bold, Trebuchet MS" font-weight="700"><tspan x="0" y="0">management training</tspan></text>
  <text id="work_on_my_report_" data-name="work on my report
" transform="translate(30.438 122.712)" fill="#2d356b" font-size="14" font-family="TrebuchetMS-Bold, Trebuchet MS" font-weight="700"><tspan x="0" y="0">work on my report</tspan><tspan font-family="TrebuchetMS-Bold"><tspan x="0" y="14"></tspan></tspan></text>
</svg>
