<svg xmlns="http://www.w3.org/2000/svg" width="544" height="391.47" viewBox="0 0 544 391.47">
  <g id="Group_8476" data-name="Group 8476" transform="translate(-388.3 -317.816)">
    <g id="Group_7857" data-name="Group 7857" transform="translate(388.3 317.816)">
      <g id="Group_7832" data-name="Group 7832">
        <g id="Group_7807" data-name="Group 7807">
          <g id="Group_7806" data-name="Group 7806">
            <g id="Group_7805" data-name="Group 7805">
              <g id="Group_7804" data-name="Group 7804">
                <g id="Group_7803" data-name="Group 7803">
                  <g id="Group_7802" data-name="Group 7802">
                    <g id="Group_7799" data-name="Group 7799">
                      <g id="Group_7795" data-name="Group 7795">
                        <path id="Path_9869" data-name="Path 9869" d="M388.944,332.464H388.3V318.73H931.658V605.753H388.95V576.922h-.005Z" transform="translate(-388.3 -318.329)" fill="#fff"/>
                        <rect id="Rectangle_2585" data-name="Rectangle 2585" width="542.716" height="0.803" transform="translate(0.642 287.022)" fill="#a0bacb"/>
                        <rect id="Rectangle_2586" data-name="Rectangle 2586" width="543.358" height="0.803" fill="#7b88ac"/>
                      </g>
                      <g id="Group_7796" data-name="Group 7796" transform="translate(379.691 58.648)">
                        <path id="Path_9870" data-name="Path 9870" d="M1240.636,452.535v174.99h162.823V452.535h-79.285v-.21h-7.67v.21Zm75.867,5.619v38.479h-69.126V458.154Zm80.215,45.119v73.514h-72.545V503.273Zm-149.341,73.514V503.273H1316.5v73.514Zm149.341-118.633v38.479h-72.545V458.154Zm0,163.752h-72.545V583.427h72.545Zm-149.341,0V583.427H1316.5v38.479Z" transform="translate(-1240.154 -451.924)" fill="#ebebeb"/>
                        <path id="Path_9871" data-name="Path 9871" d="M1239.539,451.621h75.867v-.21h8.633v.21h79.285V627.413H1239.539Zm162.823.8h-79.286v-.211h-6.708v.211H1240.5V626.611h161.86ZM1246.28,582.513h70.088v39.282H1246.28Zm69.126.8h-68.163v37.676h68.163Zm7.67-.8h73.508v39.282h-73.508Zm72.545.8h-71.582v37.676h71.582ZM1246.28,502.359h70.088v74.316H1246.28Zm69.126.8h-68.163v72.711h68.163Zm7.67-.8h73.508v74.316h-73.508Zm72.545.8h-71.582v72.711h71.582ZM1246.28,457.24h70.088v39.282H1246.28Zm69.126.8h-68.163v37.677h68.163Zm7.67-.8h73.508v39.282h-73.508Zm72.545.8h-71.582v37.677h71.582Z" transform="translate(-1239.539 -451.411)" fill="#ebebeb"/>
                      </g>
                      <g id="Group_7797" data-name="Group 7797" transform="translate(174.473 57.612)">
                        <path id="Path_9872" data-name="Path 9872" d="M780.679,450.177V625.166H930.025V450.177H857.3v-.211h-7.035v.211Zm69.587,5.619v38.479h-63.4V455.8Zm73.575,45.119v73.514H857.3V500.914ZM786.862,574.428V500.914h63.4v73.514ZM923.841,455.8v38.479H857.3V455.8Zm0,163.752H857.3V581.068h66.54Zm-136.979,0V581.068h63.4v38.479Z" transform="translate(-780.237 -449.565)" fill="#ebebeb"/>
                        <path id="Path_9873" data-name="Path 9873" d="M779.673,449.262H849.26v-.21h7.919v.21H929.9V625.054H779.673Zm149.345.8H856.3v-.211h-6.152v.211H780.557V624.252H929.018ZM785.856,580.154h64.287v39.281H785.856Zm63.4.8H786.74v37.676H849.26Zm7.035-.8h67.423v39.281H856.3Zm66.54.8H857.179v37.676h65.656ZM785.856,500h64.287v74.317H785.856Zm63.4.8H786.74v72.711H849.26Zm7.035-.8h67.423v74.317H856.3Zm66.54.8H857.179v72.711h65.656ZM785.856,454.881h64.287v39.282H785.856Zm63.4.8H786.74V493.36H849.26Zm7.035-.8h67.423v39.282H856.3Zm66.54.8H857.179V493.36h65.656Z" transform="translate(-779.673 -449.052)" fill="#ebebeb"/>
                      </g>
                      <g id="Group_7798" data-name="Group 7798" transform="translate(0.637 58.648)">
                        <path id="Path_9874" data-name="Path 9874" d="M389.751,627.525H517.8V452.535H438.51v-.21h-7.67v.21H389.751v5.619h41.088v38.479H389.751v6.64h41.088v73.514H389.751v6.64h41.088v38.479H389.751Zm48.759-44.1h72.545v38.479H438.51Zm0-80.154h72.545v73.514H438.51Zm0-45.119h72.545v38.479H438.51Z" transform="translate(-389.751 -451.924)" fill="#ebebeb"/>
                        <path id="Path_9875" data-name="Path 9875" d="M431.321,789.332h-41.57v-.8h40.607V750.853H389.751v-.8h41.57Z" transform="translate(-389.751 -618.948)" fill="#ebebeb"/>
                        <path id="Path_9876" data-name="Path 9876" d="M431.321,641.783h-41.57v-.8h40.607V568.27H389.751v-.8h41.57Z" transform="translate(-389.751 -516.518)" fill="#ebebeb"/>
                        <path id="Path_9877" data-name="Path 9877" d="M431.321,503.971h-41.57v-.8h40.607V465.492H389.751v-.8h41.57Z" transform="translate(-389.751 -458.86)" fill="#ebebeb"/>
                        <path id="Path_9878" data-name="Path 9878" d="M499.722,503.971h73.507V464.689H499.722Zm.963-38.479h71.581v37.677H500.685Z" transform="translate(-451.445 -458.86)" fill="#ebebeb"/>
                        <path id="Path_9879" data-name="Path 9879" d="M389.751,626.61H517.313V452.424H438.028v-.211h-6.707v.211h-41.57v-.8h40.607v-.21h8.633v.21h79.285V627.413H389.751Z" transform="translate(-389.751 -451.411)" fill="#ebebeb"/>
                        <path id="Path_9880" data-name="Path 9880" d="M573.229,750.05H499.722v39.282h73.507Zm-.963,38.479H500.685V750.853h71.581Z" transform="translate(-451.445 -618.948)" fill="#ebebeb"/>
                        <path id="Path_9881" data-name="Path 9881" d="M499.722,641.783h73.507V567.467H499.722Zm.963-73.514h71.581v72.711H500.685Z" transform="translate(-451.445 -516.518)" fill="#ebebeb"/>
                      </g>
                    </g>
                    <g id="Group_7800" data-name="Group 7800" transform="translate(0.483 252.869)">
                      <path id="Path_9882" data-name="Path 9882" d="M389.763,894.608H932.471v98.478h.649v39.781H389.768V898.8h-.005Z" transform="translate(-389.604 -894.267)" fill="#f9f9f9"/>
                      <rect id="Rectangle_2587" data-name="Rectangle 2587" width="541.597" height="0.575" transform="translate(0 137.808)" fill="#f9f9f9"/>
                      <rect id="Rectangle_2588" data-name="Rectangle 2588" width="542.721" height="0.575" transform="translate(0.154)" fill="#f9f9f9"/>
                    </g>
                    <g id="Group_7801" data-name="Group 7801" transform="translate(55.28 5.06)">
                      <path id="Path_9883" data-name="Path 9883" d="M743.715,415.214V329.343h2.058v85.871c6.414.437,11.459,4.906,11.459,10.365,0,5.748-5.591,10.409-12.488,10.409s-12.487-4.66-12.487-10.409C732.256,420.12,737.3,415.651,743.715,415.214Z" transform="translate(-635.189 -329.343)" fill="#ffb2b0"/>
                      <path id="Path_9884" data-name="Path 9884" d="M1494.166,430.664V344.793h2.057v85.871c6.415.437,11.459,4.906,11.459,10.365,0,5.749-5.591,10.409-12.488,10.409s-12.488-4.66-12.488-10.409C1482.707,435.57,1487.752,431.1,1494.166,430.664Z" transform="translate(-1051.545 -338.01)" fill="#ffb2b0"/>
                      <path id="Path_9885" data-name="Path 9885" d="M1239.575,422.76V360.329h1.5V422.76c4.663.318,8.331,3.567,8.331,7.536,0,4.179-4.065,7.567-9.079,7.567s-9.079-3.388-9.079-7.567C1231.244,426.327,1234.912,423.078,1239.575,422.76Z" transform="translate(-912.102 -346.726)" fill="#ffb2b0"/>
                      <path id="Path_9886" data-name="Path 9886" d="M522.554,422.76V360.329h1.5V422.76c4.663.318,8.331,3.567,8.331,7.536,0,4.179-4.065,7.567-9.079,7.567s-9.079-3.388-9.079-7.567C514.223,426.327,517.89,423.078,522.554,422.76Z" transform="translate(-514.223 -346.726)" fill="#ffb2b0"/>
                    </g>
                  </g>
                </g>
              </g>
            </g>
          </g>
        </g>
        <g id="Group_7815" data-name="Group 7815" transform="translate(256.872 190.281)">
          <g id="Group_7814" data-name="Group 7814">
            <g id="Group_7808" data-name="Group 7808" transform="translate(13.39)">
              <path id="Path_9887" data-name="Path 9887" d="M1008.784,779.833s.974-6.558,1.416-8c.57-1.864.849-4.639-.719-6.272s-1.805-5.477-1.805-6.066-.588-9.409-7.056-8.1c0,0-2.679.654-1.372,5.358,0,0,1.372,2.81-.359,4.574a7.163,7.163,0,0,0,0,9.735c3.234,3.92,2.314,5.356,1.8,6.861-2.357,6.862,2.657,13.163,3.2,14.844s1.2,4.441.651,6.029l1.9.035Z" transform="translate(-996.985 -751.261)" fill="#ebebeb"/>
            </g>
            <g id="Group_7809" data-name="Group 7809" transform="translate(19.533 6.64)">
              <path id="Path_9888" data-name="Path 9888" d="M1013.278,807.566a.3.3,0,0,1-.058-.006.287.287,0,0,1-.223-.339c.727-3.54-.549-9.848-.562-9.911-.7-2.685-.908-6.115.258-14.862a33.586,33.586,0,0,0-.355-11.475,19.222,19.222,0,0,0-1.329-4.168.288.288,0,0,1,.513-.26,19.342,19.342,0,0,1,1.373,4.282,34.147,34.147,0,0,1,.368,11.7c-1.149,8.625-.938,12.1-.268,14.656.058.278,1.317,6.5.566,10.157A.287.287,0,0,1,1013.278,807.566Z" transform="translate(-1010.977 -766.386)" fill="#fff"/>
            </g>
            <g id="Group_7810" data-name="Group 7810" transform="translate(0 25.199)">
              <path id="Path_9889" data-name="Path 9889" d="M985.024,831.169s0-1.546-3.174-3.011a5.3,5.3,0,0,1-3.173-3.825c-.814-3.092-3.092-2.278-4.557-1.383s-4.793,0-4.8-4.638a3.079,3.079,0,0,0-1.135-3.743c-2.124-1.3-2.938-5.953,1.619-5.906s8.85,2.3,13.264,8.835c6.134,9.087,3.746,13.671,3.746,13.671Z" transform="translate(-966.483 -808.662)" fill="#ebebeb"/>
            </g>
            <g id="Group_7811" data-name="Group 7811" transform="translate(4.604 28.458)">
              <path id="Path_9890" data-name="Path 9890" d="M992.124,835.621a.279.279,0,0,1-.088-.014.292.292,0,0,1-.185-.362,6.96,6.96,0,0,0,.018-3.035.31.31,0,0,1-.022-.058c-2.461-9.288-14.6-15.46-14.717-15.522a.287.287,0,0,1,.257-.514c.125.062,12.466,6.341,15.009,15.861a6.8,6.8,0,0,1,0,3.444A.281.281,0,0,1,992.124,835.621Z" transform="translate(-976.97 -816.086)" fill="#fff"/>
            </g>
            <g id="Group_7812" data-name="Group 7812" transform="translate(22.845 11.426)">
              <path id="Path_9891" data-name="Path 9891" d="M1020.9,813.429a5.661,5.661,0,0,0,2.679-5.684c-.653-3.79,2.744-4.639,3.528-4.77s5.88-2.221,5.1-9.866c0,0-.261-4.9.654-6.664s3.2-7.057,0-8.69-5.424,1.307-6.6,4.312c0,0-.915,3.463-1.7,4.312s-6.469,5.815-6.011,16.139l1.112,10.911Z" transform="translate(-1018.523 -777.287)" fill="#ebebeb"/>
            </g>
            <g id="Group_7813" data-name="Group 7813" transform="translate(24.394 17.436)">
              <path id="Path_9892" data-name="Path 9892" d="M1022.357,821.4a.287.287,0,0,1-.287-.277c-.33-8.789,3.481-20.249,5.666-23.56a58.882,58.882,0,0,0,3.639-6.417.287.287,0,1,1,.52.245,59.483,59.483,0,0,1-3.679,6.489c-2.149,3.257-5.9,14.548-5.571,23.222a.288.288,0,0,1-.277.3Z" transform="translate(-1022.05 -790.978)" fill="#fff"/>
            </g>
          </g>
          <path id="Path_9893" data-name="Path 9893" d="M999.558,876h12.321l2.982-16.883H996.575Z" transform="translate(-983.365 -811.769)" fill="#ebebeb"/>
        </g>
        <g id="Group_7823" data-name="Group 7823" transform="translate(335.026 199.874)">
          <g id="Group_7822" data-name="Group 7822">
            <g id="Group_7816" data-name="Group 7816" transform="translate(11.39)">
              <path id="Path_9894" data-name="Path 9894" d="M1178.485,797.417s.829-5.578,1.2-6.805c.485-1.585.722-3.946-.611-5.336s-1.536-4.659-1.536-5.16-.5-8-6-6.892c0,0-2.279.556-1.167,4.558,0,0,1.167,2.39-.306,3.89a6.1,6.1,0,0,0,0,8.282c2.751,3.335,1.968,4.556,1.529,5.836-2,5.837,2.26,11.2,2.724,12.627s1.018,3.778.554,5.128l1.618.03Z" transform="translate(-1168.448 -773.112)" fill="#ebebeb"/>
            </g>
            <g id="Group_7817" data-name="Group 7817" transform="translate(16.616 5.648)">
              <path id="Path_9895" data-name="Path 9895" d="M1182.308,821.008a.239.239,0,0,1-.05-.005.244.244,0,0,1-.19-.289c.618-3.011-.467-8.377-.478-8.431-.6-2.284-.772-5.2.219-12.643a28.572,28.572,0,0,0-.3-9.762,16.363,16.363,0,0,0-1.131-3.546.244.244,0,1,1,.436-.221,16.4,16.4,0,0,1,1.168,3.642,29.049,29.049,0,0,1,.313,9.951c-.978,7.337-.8,10.29-.228,12.467.049.236,1.119,5.53.481,8.64A.245.245,0,0,1,1182.308,821.008Z" transform="translate(-1180.351 -785.978)" fill="#fff"/>
            </g>
            <g id="Group_7818" data-name="Group 7818" transform="translate(0 21.436)">
              <path id="Path_9896" data-name="Path 9896" d="M1158.273,841.086s0-1.315-2.7-2.561a4.511,4.511,0,0,1-2.7-3.254c-.693-2.63-2.631-1.938-3.876-1.177s-4.077,0-4.081-3.946a2.619,2.619,0,0,0-.965-3.184c-1.807-1.108-2.5-5.064,1.377-5.024s7.529,1.954,11.283,7.516c5.218,7.729,3.187,11.629,3.187,11.629Z" transform="translate(-1142.501 -821.941)" fill="#ebebeb"/>
            </g>
            <g id="Group_7819" data-name="Group 7819" transform="translate(3.916 24.208)">
              <path id="Path_9897" data-name="Path 9897" d="M1164.313,844.874a.238.238,0,0,1-.075-.012.249.249,0,0,1-.158-.308,5.912,5.912,0,0,0,.015-2.582.273.273,0,0,1-.019-.049c-2.093-7.9-12.415-13.152-12.519-13.2a.245.245,0,1,1,.219-.437c.106.053,10.6,5.394,12.767,13.493a5.781,5.781,0,0,1,0,2.93A.24.24,0,0,1,1164.313,844.874Z" transform="translate(-1151.422 -828.256)" fill="#fff"/>
            </g>
            <g id="Group_7820" data-name="Group 7820" transform="translate(19.433 9.719)">
              <path id="Path_9898" data-name="Path 9898" d="M1188.792,826a4.815,4.815,0,0,0,2.279-4.835,3.385,3.385,0,0,1,3-4.057c.667-.111,5-1.89,4.335-8.393,0,0-.222-4.169.556-5.669s2.723-6,0-7.392-4.613,1.112-5.614,3.668c0,0-.778,2.946-1.445,3.668s-5.5,4.947-5.113,13.729l.946,9.282Z" transform="translate(-1186.769 -795.251)" fill="#ebebeb"/>
            </g>
            <g id="Group_7821" data-name="Group 7821" transform="translate(20.75 14.832)">
              <path id="Path_9899" data-name="Path 9899" d="M1190.031,832.774a.245.245,0,0,1-.244-.235c-.281-7.476,2.961-17.225,4.82-20.042a50.016,50.016,0,0,0,3.1-5.459.245.245,0,1,1,.442.209,50.6,50.6,0,0,1-3.13,5.52c-1.828,2.771-5.017,12.375-4.739,19.754a.245.245,0,0,1-.235.253Z" transform="translate(-1189.769 -806.897)" fill="#fff"/>
            </g>
          </g>
          <path id="Path_9900" data-name="Path 9900" d="M1170.636,879.223h10.481l2.537-14.362H1168.1Z" transform="translate(-1156.862 -824.584)" fill="#ebebeb"/>
        </g>
        <g id="Group_7831" data-name="Group 7831" transform="translate(175.644 197.096)">
          <g id="Group_7830" data-name="Group 7830">
            <g id="Group_7824" data-name="Group 7824" transform="translate(11.39)">
              <path id="Path_9901" data-name="Path 9901" d="M819.688,791.091s.829-5.578,1.2-6.805c.485-1.585.723-3.947-.611-5.336s-1.536-4.66-1.536-5.16-.5-8-6-6.892c0,0-2.279.556-1.167,4.558,0,0,1.168,2.39-.305,3.891a6.094,6.094,0,0,0,0,8.281c2.751,3.335,1.968,4.556,1.528,5.836-2,5.837,2.26,11.2,2.724,12.627s1.018,3.777.554,5.128l1.618.03Z" transform="translate(-809.651 -766.786)" fill="#ebebeb"/>
            </g>
            <g id="Group_7825" data-name="Group 7825" transform="translate(16.616 5.648)">
              <path id="Path_9902" data-name="Path 9902" d="M823.511,814.682a.248.248,0,0,1-.05-.005.245.245,0,0,1-.19-.289c.619-3.011-.467-8.377-.478-8.43-.6-2.284-.772-5.2.22-12.643a28.572,28.572,0,0,0-.3-9.761,16.372,16.372,0,0,0-1.131-3.546.244.244,0,1,1,.436-.221,16.437,16.437,0,0,1,1.168,3.642,29.043,29.043,0,0,1,.313,9.951c-.978,7.336-.8,10.29-.228,12.468.049.237,1.12,5.531.481,8.64A.245.245,0,0,1,823.511,814.682Z" transform="translate(-821.554 -779.652)" fill="#fff"/>
            </g>
            <g id="Group_7826" data-name="Group 7826" transform="translate(0 21.436)">
              <path id="Path_9903" data-name="Path 9903" d="M799.477,834.76s0-1.315-2.7-2.561a4.51,4.51,0,0,1-2.7-3.253c-.692-2.63-2.63-1.938-3.876-1.177s-4.077,0-4.08-3.945a2.62,2.62,0,0,0-.965-3.184c-1.807-1.107-2.5-5.063,1.377-5.023s7.528,1.954,11.283,7.516C803.033,830.861,801,834.76,801,834.76Z" transform="translate(-783.705 -815.615)" fill="#ebebeb"/>
            </g>
            <g id="Group_7827" data-name="Group 7827" transform="translate(3.916 24.208)">
              <path id="Path_9904" data-name="Path 9904" d="M805.516,838.547a.233.233,0,0,1-.075-.012.249.249,0,0,1-.157-.308,5.915,5.915,0,0,0,.015-2.582.261.261,0,0,1-.019-.05c-2.093-7.9-12.415-13.151-12.519-13.2a.245.245,0,0,1,.219-.438c.106.053,10.6,5.394,12.767,13.493a5.78,5.78,0,0,1,0,2.93A.239.239,0,0,1,805.516,838.547Z" transform="translate(-792.625 -821.929)" fill="#fff"/>
            </g>
            <g id="Group_7828" data-name="Group 7828" transform="translate(19.433 9.719)">
              <path id="Path_9905" data-name="Path 9905" d="M830,819.67a4.815,4.815,0,0,0,2.279-4.835,3.384,3.384,0,0,1,3-4.057c.667-.112,5-1.89,4.335-8.393,0,0-.222-4.169.556-5.669s2.724-6,0-7.392-4.613,1.111-5.613,3.668c0,0-.778,2.946-1.445,3.668s-5.5,4.947-5.113,13.728l.947,9.282Z" transform="translate(-827.972 -788.925)" fill="#ebebeb"/>
            </g>
            <g id="Group_7829" data-name="Group 7829" transform="translate(20.75 14.832)">
              <path id="Path_9906" data-name="Path 9906" d="M831.234,826.448a.245.245,0,0,1-.245-.235c-.281-7.476,2.961-17.225,4.82-20.042a50.038,50.038,0,0,0,3.1-5.459.244.244,0,1,1,.442.209,50.617,50.617,0,0,1-3.13,5.52c-1.828,2.771-5.017,12.375-4.739,19.754a.245.245,0,0,1-.235.254Z" transform="translate(-830.972 -800.571)" fill="#fff"/>
            </g>
          </g>
          <path id="Path_9907" data-name="Path 9907" d="M811.839,872.9h10.481l2.537-14.362H809.3Z" transform="translate(-798.065 -818.257)" fill="#ebebeb"/>
        </g>
      </g>
      <g id="Group_7844" data-name="Group 7844" transform="translate(11.03 189.563)">
        <g id="Group_7837" data-name="Group 7837">
          <path id="Path_9908" data-name="Path 9908" d="M447.79,839.405h26.819s-4,3.183-14.109,3.183S447.79,839.405,447.79,839.405Z" transform="translate(-432.704 -799.992)" fill="#cfd0d8"/>
          <g id="Group_7833" data-name="Group 7833" transform="translate(37.505 39.644)">
            <path id="Path_9909" data-name="Path 9909" d="M511.514,872.843l-12.655-32.679.5-.233,12.654,32.679Z" transform="translate(-498.859 -839.931)" fill="#cfd0d8"/>
          </g>
          <g id="Group_7834" data-name="Group 7834" transform="translate(10.145 39.531)">
            <path id="Path_9910" data-name="Path 9910" d="M437.057,872.665l-.523-.165,8.573-32.827.522.164Z" transform="translate(-436.534 -839.673)" fill="#cfd0d8"/>
          </g>
          <g id="Group_7835" data-name="Group 7835" transform="translate(22.516 40.343)">
            <path id="Path_9911" data-name="Path 9911" d="M465.259,873.635l-.544-.028,1.361-32.082.544.029Z" transform="translate(-464.715 -841.525)" fill="#cfd0d8"/>
          </g>
          <g id="Group_7836" data-name="Group 7836" transform="translate(30.548 40.903)">
            <path id="Path_9912" data-name="Path 9912" d="M488.046,874.387,483.012,842.9l.535-.1,5.035,31.484Z" transform="translate(-483.012 -842.799)" fill="#cfd0d8"/>
          </g>
          <path id="Path_9913" data-name="Path 9913" d="M453.033,789.935h-22.42c-12.209,0-17.925-29.368-17.112-34.421,1.2-7.461,14.311-7.461,17.913-2.09,2.4,3.582,6,16.274,8.14,24.334a9.655,9.655,0,0,0,8.862,7.152c3.976.2,8.2.525,8.516,1.043C457.445,786.809,457.531,789.935,453.033,789.935Z" transform="translate(-413.425 -749.626)" fill="#cfd0d8"/>
          <path id="Path_9914" data-name="Path 9914" d="M456.881,791.894l-22.441-.448c-12.208,0-19.051-26.929-18.237-31.981.121-.753-2.461-.111-2.7,1.392-.813,5.052,4.9,34.42,17.112,34.42h22.42C457.533,795.277,457.482,791.894,456.881,791.894Z" transform="translate(-413.425 -754.968)" fill="#cfd0d8"/>
        </g>
        <g id="Group_7842" data-name="Group 7842" transform="translate(109.727)">
          <path id="Path_9915" data-name="Path 9915" d="M710.138,839.405H683.319s4,3.183,14.109,3.183S710.138,839.405,710.138,839.405Z" transform="translate(-674.563 -799.992)" fill="#cfd0d8"/>
          <g id="Group_7838" data-name="Group 7838" transform="translate(0 39.644)">
            <path id="Path_9916" data-name="Path 9916" d="M663.875,872.843l12.655-32.679-.5-.233L663.375,872.61Z" transform="translate(-663.375 -839.931)" fill="#cfd0d8"/>
          </g>
          <g id="Group_7839" data-name="Group 7839" transform="translate(31.421 39.531)">
            <path id="Path_9917" data-name="Path 9917" d="M743.521,872.665l.523-.165-8.573-32.827-.522.164Z" transform="translate(-734.948 -839.673)" fill="#cfd0d8"/>
          </g>
          <g id="Group_7840" data-name="Group 7840" transform="translate(26.24 40.343)">
            <path id="Path_9918" data-name="Path 9918" d="M724.507,873.635l.544-.028-1.361-32.082-.544.029Z" transform="translate(-723.146 -841.525)" fill="#cfd0d8"/>
          </g>
          <g id="Group_7841" data-name="Group 7841" transform="translate(14.542 40.903)">
            <path id="Path_9919" data-name="Path 9919" d="M697.036,874.387,702.07,842.9l-.535-.1L696.5,874.284Z" transform="translate(-696.5 -842.799)" fill="#cfd0d8"/>
          </g>
          <path id="Path_9920" data-name="Path 9920" d="M683.262,789.935h22.42c12.209,0,17.925-29.368,17.112-34.421-1.2-7.461-14.311-7.461-17.912-2.09-2.4,3.582-6.005,16.274-8.14,24.334a9.655,9.655,0,0,1-8.862,7.152c-3.976.2-8.2.525-8.516,1.043C678.849,786.809,678.763,789.935,683.262,789.935Z" transform="translate(-672.209 -749.626)" fill="#cfd0d8"/>
          <path id="Path_9921" data-name="Path 9921" d="M679.419,791.894l22.44-.448c12.208,0,19.051-26.929,18.237-31.981-.121-.753,2.461-.111,2.7,1.392.813,5.052-4.9,34.42-17.112,34.42h-22.42C678.766,795.277,678.817,791.894,679.419,791.894Z" transform="translate(-672.214 -754.968)" fill="#cfd0d8"/>
        </g>
        <g id="Group_7843" data-name="Group 7843" transform="translate(46.298 21.631)">
          <path id="Path_9922" data-name="Path 9922" d="M596.145,799.919h3.585c-2.564.776-1.823,29.212,0,49.456h-3.585C597.613,830.249,597.9,800.8,596.145,799.919Z" transform="translate(-562.229 -799.471)" fill="#cfd0d8"/>
          <path id="Path_9923" data-name="Path 9923" d="M591.572,906.291h2.693l4.373,3.78H587.2Z" transform="translate(-557.21 -859.146)" fill="#cfd0d8"/>
          <path id="Path_9924" data-name="Path 9924" d="M526.955,801.163h68.021l-4.377,1.345H531.332Z" transform="translate(-523.413 -800.169)" fill="#cfd0d8"/>
          <rect id="Rectangle_2589" data-name="Rectangle 2589" width="75.302" height="1.345" fill="#cfd0d8"/>
        </g>
      </g>
      <g id="Group_7856" data-name="Group 7856" transform="translate(376.328 189.019)">
        <g id="Group_7849" data-name="Group 7849">
          <path id="Path_9925" data-name="Path 9925" d="M1266.241,838.166h26.819s-4,3.183-14.109,3.183S1266.241,838.166,1266.241,838.166Z" transform="translate(-1251.155 -798.753)" fill="#cfd0d8"/>
          <g id="Group_7845" data-name="Group 7845" transform="translate(37.505 39.644)">
            <path id="Path_9926" data-name="Path 9926" d="M1329.965,871.6l-12.655-32.679.5-.233,12.655,32.679Z" transform="translate(-1317.311 -838.692)" fill="#cfd0d8"/>
          </g>
          <g id="Group_7846" data-name="Group 7846" transform="translate(10.145 39.531)">
            <path id="Path_9927" data-name="Path 9927" d="M1255.508,871.426l-.523-.165,8.573-32.827.522.164Z" transform="translate(-1254.985 -838.434)" fill="#cfd0d8"/>
          </g>
          <g id="Group_7847" data-name="Group 7847" transform="translate(22.516 40.343)">
            <path id="Path_9928" data-name="Path 9928" d="M1283.71,872.4l-.544-.028,1.361-32.082.544.029Z" transform="translate(-1283.166 -840.286)" fill="#cfd0d8"/>
          </g>
          <g id="Group_7848" data-name="Group 7848" transform="translate(30.548 40.903)">
            <path id="Path_9929" data-name="Path 9929" d="M1306.5,873.148l-5.035-31.484.536-.1,5.035,31.485Z" transform="translate(-1301.463 -841.56)" fill="#cfd0d8"/>
          </g>
          <path id="Path_9930" data-name="Path 9930" d="M1271.484,788.7h-22.42c-12.209,0-17.925-29.368-17.112-34.42,1.2-7.461,14.311-7.461,17.912-2.09,2.4,3.582,6,16.274,8.14,24.334a9.655,9.655,0,0,0,8.861,7.152c3.977.2,8.2.525,8.516,1.043C1275.9,785.569,1275.983,788.7,1271.484,788.7Z" transform="translate(-1231.877 -748.387)" fill="#cfd0d8"/>
          <path id="Path_9931" data-name="Path 9931" d="M1275.333,790.655l-22.441-.448c-12.208,0-19.051-26.929-18.236-31.981.12-.753-2.461-.112-2.7,1.392-.813,5.052,4.9,34.42,17.112,34.42h22.42C1275.985,794.038,1275.934,790.655,1275.333,790.655Z" transform="translate(-1231.877 -753.729)" fill="#cfd0d8"/>
        </g>
        <g id="Group_7854" data-name="Group 7854" transform="translate(109.727)">
          <path id="Path_9932" data-name="Path 9932" d="M1528.589,838.166h-26.818s4,3.183,14.109,3.183S1528.589,838.166,1528.589,838.166Z" transform="translate(-1493.015 -798.753)" fill="#cfd0d8"/>
          <g id="Group_7850" data-name="Group 7850" transform="translate(0 39.644)">
            <path id="Path_9933" data-name="Path 9933" d="M1482.326,871.6l12.655-32.679-.5-.233-12.655,32.679Z" transform="translate(-1481.826 -838.692)" fill="#cfd0d8"/>
          </g>
          <g id="Group_7851" data-name="Group 7851" transform="translate(31.421 39.531)">
            <path id="Path_9934" data-name="Path 9934" d="M1561.972,871.426l.523-.165-8.573-32.827-.522.164Z" transform="translate(-1553.4 -838.434)" fill="#cfd0d8"/>
          </g>
          <g id="Group_7852" data-name="Group 7852" transform="translate(26.24 40.343)">
            <path id="Path_9935" data-name="Path 9935" d="M1542.958,872.4l.544-.028-1.362-32.082-.543.029Z" transform="translate(-1541.597 -840.286)" fill="#cfd0d8"/>
          </g>
          <g id="Group_7853" data-name="Group 7853" transform="translate(14.542 40.903)">
            <path id="Path_9936" data-name="Path 9936" d="M1515.487,873.148l5.035-31.484-.535-.1-5.035,31.485Z" transform="translate(-1514.951 -841.56)" fill="#cfd0d8"/>
          </g>
          <path id="Path_9937" data-name="Path 9937" d="M1501.714,788.7h22.419c12.209,0,17.925-29.368,17.112-34.42-1.2-7.461-14.311-7.461-17.912-2.09-2.4,3.582-6.005,16.274-8.14,24.334a9.655,9.655,0,0,1-8.862,7.152c-3.976.2-8.2.525-8.515,1.043C1497.3,785.569,1497.215,788.7,1501.714,788.7Z" transform="translate(-1490.66 -748.387)" fill="#cfd0d8"/>
          <path id="Path_9938" data-name="Path 9938" d="M1497.87,790.655l22.44-.448c12.208,0,19.051-26.929,18.236-31.981-.12-.753,2.461-.112,2.7,1.392.813,5.052-4.9,34.42-17.112,34.42h-22.42C1497.217,794.038,1497.268,790.655,1497.87,790.655Z" transform="translate(-1490.665 -753.729)" fill="#cfd0d8"/>
        </g>
        <g id="Group_7855" data-name="Group 7855" transform="translate(46.297 21.631)">
          <path id="Path_9939" data-name="Path 9939" d="M1414.6,798.68h3.586c-2.565.776-1.824,29.212,0,49.456H1414.6C1416.064,829.01,1416.351,799.561,1414.6,798.68Z" transform="translate(-1380.68 -798.232)" fill="#cfd0d8"/>
          <path id="Path_9940" data-name="Path 9940" d="M1410.023,905.052h2.693l4.373,3.78H1405.65Z" transform="translate(-1375.662 -857.907)" fill="#cfd0d8"/>
          <path id="Path_9941" data-name="Path 9941" d="M1345.406,799.924h68.021l-4.377,1.345h-59.267Z" transform="translate(-1341.865 -798.93)" fill="#cfd0d8"/>
          <rect id="Rectangle_2590" data-name="Rectangle 2590" width="75.302" height="1.345" fill="#cfd0d8"/>
        </g>
      </g>
    </g>
    <g id="Group_7868" data-name="Group 7868" transform="translate(497.97 540.028)">
      <g id="Group_7862" data-name="Group 7862" transform="translate(0 0)">
        <path id="Path_9942" data-name="Path 9942" d="M703.542,1014.07H760.32s-8.473,6.739-29.87,6.739S703.542,1014.07,703.542,1014.07Z" transform="translate(-671.603 -930.629)" fill="#9999a5"/>
        <g id="Group_7858" data-name="Group 7858" transform="translate(79.403 83.93)">
          <path id="Path_9943" data-name="Path 9943" d="M838.451,1084.861l-26.791-69.184,1.06-.494,26.791,69.185Z" transform="translate(-811.66 -1015.184)" fill="#9999a5"/>
        </g>
        <g id="Group_7859" data-name="Group 7859" transform="translate(21.477 83.69)">
          <path id="Path_9944" data-name="Path 9944" d="M680.818,1084.485l-1.107-.349,18.149-69.5,1.106.347Z" transform="translate(-679.711 -1014.637)" fill="#9999a5"/>
        </g>
        <g id="Group_7860" data-name="Group 7860" transform="translate(47.669 85.411)">
          <path id="Path_9945" data-name="Path 9945" d="M740.525,1086.537l-1.152-.06,2.882-67.92,1.151.061Z" transform="translate(-739.373 -1018.557)" fill="#9999a5"/>
        </g>
        <g id="Group_7861" data-name="Group 7861" transform="translate(64.674 86.595)">
          <path id="Path_9946" data-name="Path 9946" d="M788.768,1088.13l-10.659-66.656,1.134-.219,10.659,66.656Z" transform="translate(-778.11 -1021.255)" fill="#9999a5"/>
        </g>
        <path id="Path_9947" data-name="Path 9947" d="M714.641,909.336H667.176c-25.848,0-37.949-62.175-36.227-72.871,2.542-15.8,30.3-15.8,37.923-4.424,5.086,7.584,12.713,34.453,17.234,51.518a20.441,20.441,0,0,0,18.76,15.142c8.418.415,17.365,1.11,18.028,2.208C723.984,902.718,724.165,909.336,714.641,909.336Z" transform="translate(-630.788 -823.998)" fill="#40558e"/>
        <path id="Path_9948" data-name="Path 9948" d="M722.788,913.483l-47.509-.948c-25.846,0-40.333-57.011-38.609-67.707.255-1.594-5.211-.235-5.721,2.948-1.722,10.7,10.38,72.871,36.227,72.871h47.465C724.17,920.646,724.061,913.483,722.788,913.483Z" transform="translate(-630.788 -835.308)" fill="#2d356b"/>
      </g>
      <g id="Group_7867" data-name="Group 7867" transform="translate(232.303 0)">
        <path id="Path_9949" data-name="Path 9949" d="M1258.959,1014.07h-56.778s8.474,6.739,29.87,6.739S1258.959,1014.07,1258.959,1014.07Z" transform="translate(-1183.644 -930.629)" fill="#9999a5"/>
        <g id="Group_7863" data-name="Group 7863" transform="translate(0 83.93)">
          <path id="Path_9950" data-name="Path 9950" d="M1161.016,1084.861l26.791-69.184-1.06-.494-26.791,69.185Z" transform="translate(-1159.956 -1015.184)" fill="#9999a5"/>
        </g>
        <g id="Group_7864" data-name="Group 7864" transform="translate(66.521 83.69)">
          <path id="Path_9951" data-name="Path 9951" d="M1329.633,1084.485l1.107-.349-18.149-69.5-1.106.347Z" transform="translate(-1311.485 -1014.637)" fill="#9999a5"/>
        </g>
        <g id="Group_7865" data-name="Group 7865" transform="translate(55.552 85.411)">
          <path id="Path_9952" data-name="Path 9952" d="M1289.38,1086.537l1.152-.06-2.882-67.92-1.151.061Z" transform="translate(-1286.498 -1018.557)" fill="#9999a5"/>
        </g>
        <g id="Group_7866" data-name="Group 7866" transform="translate(30.787 86.595)">
          <path id="Path_9953" data-name="Path 9953" d="M1231.22,1088.13l10.659-66.656-1.134-.219-10.659,66.656Z" transform="translate(-1230.086 -1021.255)" fill="#9999a5"/>
        </g>
        <path id="Path_9954" data-name="Path 9954" d="M1202.06,909.336h47.465c25.848,0,37.949-62.175,36.227-72.871-2.542-15.8-30.3-15.8-37.923-4.424-5.086,7.584-12.712,34.453-17.234,51.518a20.441,20.441,0,0,1-18.761,15.142c-8.418.415-17.365,1.11-18.028,2.208C1192.717,902.718,1192.536,909.336,1202.06,909.336Z" transform="translate(-1178.66 -823.998)" fill="#40558e"/>
        <path id="Path_9955" data-name="Path 9955" d="M1193.922,913.483l47.509-.948c25.847,0,40.333-57.011,38.609-67.707-.255-1.594,5.21-.235,5.722,2.948,1.722,10.7-10.38,72.871-36.227,72.871h-47.465C1192.54,920.646,1192.649,913.483,1193.922,913.483Z" transform="translate(-1178.669 -835.308)" fill="#2d356b"/>
      </g>
    </g>
    <g id="Group_7880" data-name="Group 7880" transform="translate(678.571 462.048)">
      <g id="Group_7869" data-name="Group 7869" transform="translate(0 127.781)">
        <path id="Path_9956" data-name="Path 9956" d="M1153.365,941.692c8.1,2.808,6.835,18.475,2.855,20.926-4,2.466-62.112-12.4-68.331-5.43-4.091,4.585,12,34.637,4.627,83.576-1.1.708-4.118.39-3.945-1.069,4.024-33.908-14.081-88.418-11.883-90.181C1086.9,941.318,1124.651,931.735,1153.365,941.692Z" transform="translate(-1060.365 -937.441)" fill="#ffac00"/>
        <path id="Path_9957" data-name="Path 9957" d="M1163.071,948.671c8.116,2.437.946,18.149-4.4,20.727s-62.968-9.737-71.758-2.8c-5.727,4.52,1.169,32.554-21.929,77.923-1.319.638-4.245.334-3.62-.991,14.726-31.2,13.607-82.072,16.438-83.842C1091.077,951.38,1134.76,940.175,1163.071,948.671Z" transform="translate(-1051.823 -942.04)" fill="#f8c471"/>
        <path id="Path_9958" data-name="Path 9958" d="M1039.742,1167.445l13.321.931s-.638-3.734-3.3-3.736S1039.742,1167.445,1039.742,1167.445Z" transform="translate(-1039.742 -1064.9)" fill="#9898a4"/>
        <path id="Path_9959" data-name="Path 9959" d="M1084.25,1168.034l13.321.931s-.639-3.735-3.3-3.737S1084.25,1168.034,1084.25,1168.034Z" transform="translate(-1064.711 -1065.23)" fill="#9898a4"/>
        <path id="Path_9960" data-name="Path 9960" d="M1262.806,965.608c5.256-1.294,10.906-10.861,11.377-20.237l-25.75-6.412-1.482,8.014S1256.866,967.069,1262.806,965.608Z" transform="translate(-1155.987 -938.292)" fill="#f8c471"/>
        <path id="Path_9961" data-name="Path 9961" d="M1275.342,948.877l-.573,2.912-21.621-7.416.128-1.836Z" transform="translate(-1159.463 -940.3)" fill="#cecfd7"/>
        <path id="Path_9962" data-name="Path 9962" d="M1293.442,951.431l1.448.32-1.5,6.633-1.448-.321Z" transform="translate(-1181.226 -945.289)" fill="#f8c471"/>
        <path id="Path_9963" data-name="Path 9963" d="M1279.728,949.213l1.449.32-1.5,6.632-1.449-.32Z" transform="translate(-1173.532 -944.045)" fill="#f8c471"/>
        <path id="Path_9964" data-name="Path 9964" d="M1264.071,944.755l1.448.32-1.5,6.633-1.447-.32Z" transform="translate(-1164.748 -941.544)" fill="#f8c471"/>
      </g>
      <g id="Group_7879" data-name="Group 7879" transform="translate(21.26)">
        <g id="Group_7872" data-name="Group 7872" transform="translate(0 38.745)">
          <g id="Group_7870" data-name="Group 7870" transform="translate(13.722 28.067)">
            <path id="Path_9965" data-name="Path 9965" d="M1144.728,817.218c-3.425-2.464-13.813-2.083-12.916-5.654.8-3.2,6.822-7.15,14.707,2.919Z" transform="translate(-1126.346 -803.879)" fill="#ffd9a4"/>
            <path id="Path_9966" data-name="Path 9966" d="M1138.345,808.016c-1.059,5.735-8.043,4.423-10.147,3.5-2.311-1.015-2.7-5.592-1.288-7.022S1138.746,805.824,1138.345,808.016Z" transform="translate(-1123.164 -801.668)" fill="#ffd9a4"/>
            <path id="Path_9967" data-name="Path 9967" d="M1122.931,801.932c-2.693-1.2-3.824-2.44-3.423-3.119s1.89.1,4.581,1.293,6.408,2.043,6.008,2.723S1125.622,803.121,1122.931,801.932Z" transform="translate(-1119.429 -798.56)" fill="#f8c471"/>
            <path id="Path_9968" data-name="Path 9968" d="M1136.251,808.831c-1.3,4.955-4.942,3.988-6.724,3.045-1.958-1.039-2-5.073-.674-6.235S1136.745,806.936,1136.251,808.831Z" transform="translate(-1124.205 -802.365)" fill="#f8c471"/>
            <path id="Path_9969" data-name="Path 9969" d="M1125.065,811.058a1.4,1.4,0,0,1-.526-2.427c.6-.482,1.446.6,2.888,1.306s2.26,1.273,1.664,1.755S1126.508,811.764,1125.065,811.058Z" transform="translate(-1122.014 -804.143)" fill="#ffd9a4"/>
            <path id="Path_9970" data-name="Path 9970" d="M1126.266,817.74c-1.607-.514-2.15-1.392-1.709-2.045s1.305.01,2.911.525,2.709.91,2.266,1.565S1127.874,818.254,1126.266,817.74Z" transform="translate(-1122.223 -808.02)" fill="#ffd9a4"/>
          </g>
          <g id="Group_7871" data-name="Group 7871">
            <path id="Path_9971" data-name="Path 9971" d="M1117.1,791.638c-.233-.033-.462-.05-.69-.06a9.83,9.83,0,0,1,.211,1.99c1.741.356,2.984,1.436,2.833,2.516-.159,1.13-1.786,1.839-3.663,1.615a9.161,9.161,0,0,1-1.2,2.037,7.145,7.145,0,0,0,1.325.321c3.021.424,5.736-1.118,6.061-3.443S1120.118,792.061,1117.1,791.638Z" transform="translate(-1102.993 -766.576)" fill="#fff4ba"/>
            <path id="Path_9972" data-name="Path 9972" d="M1117.135,804.944a6.161,6.161,0,0,1-1.412-.378,9.071,9.071,0,0,1-1.131,1.9,7.135,7.135,0,0,0,1.325.321c2.921.41,5.548-1.02,6.013-3.216A6.119,6.119,0,0,1,1117.135,804.944Z" transform="translate(-1102.993 -773.303)" fill="#f8c471"/>
            <path id="Path_9973" data-name="Path 9973" d="M1102.826,781.6l-14.378-2.015-.278,15.906,12.464,1.747Z" transform="translate(-1088.171 -759.847)" fill="#fff4ba"/>
            <path id="Path_9974" data-name="Path 9974" d="M1095.484,781.1l-6.134-.86-.9-.652-.278,15.906,6.793.952Z" transform="translate(-1088.171 -759.847)" fill="#fff4ba"/>
            <path id="Path_9975" data-name="Path 9975" d="M1091.951,780.639l-2.6-.4-.9-.652-.278,15.906,4.5.631Z" transform="translate(-1088.171 -759.847)" fill="#f8c471"/>
            <path id="Path_9976" data-name="Path 9976" d="M1101.979,782.07c.05-.354-2.8-1.047-6.358-1.546-2.407-.337-5.718-.766-6.945-.916-.031.223-.1.459-.125.573-.154.773,3.329,1.13,6.891,1.629S1101.93,782.426,1101.979,782.07Z" transform="translate(-1088.381 -759.861)" fill="#ebebeb"/>
            <path id="Path_9977" data-name="Path 9977" d="M1103.205,782.818a76.431,76.431,0,0,0-12.486-1.75,76.516,76.516,0,0,0,12.486,1.75Z" transform="translate(-1089.6 -760.659)" fill="#2d356b"/>
            <path id="Path_9978" data-name="Path 9978" d="M1104.385,752.121c-.828-3.078-11.839-.7-9.949-4.814.866-1.885,5.13-1.49,4.225-5.154-.553-2.238,5.876-2.937,4.2-7.529.568,1.264,1.571,3.688-2.486,6.183-1.788,1.1-.382,2.264-.744,3.671-.476,1.848-3.749,2.164-3.3,3.7C1096.728,749.507,1104.981,748.6,1104.385,752.121Z" transform="translate(-1091.563 -734.625)" fill="#ebebeb" opacity="0.2"/>
            <path id="Path_9979" data-name="Path 9979" d="M1110.967,775.792c-.88.764-2.913-.908-3.733-.251s-.366,2.128,1.387,2.577c0,0-1.675-1.007-.634-1.791C1108.531,775.917,1110.123,776.876,1110.967,775.792Z" transform="translate(-1098.644 -757.491)" fill="#ebebeb" opacity="0.2"/>
          </g>
          <path id="Path_9980" data-name="Path 9980" d="M1133.612,801.533c-2.123-2.7-1.939-5.283-.676-5.654.433-.128,7.746,6.08,6.666,7.612C1138.838,804.576,1135.737,804.242,1133.612,801.533Z" transform="translate(-1112.758 -768.987)" fill="#ffd9a4"/>
          <path id="Path_9981" data-name="Path 9981" d="M1130.038,800.295c.893-1.6,1.326-3.123.3-3.694s-1.986.582-2.879,2.184-1.85,2.449-.356,3.617C1128.02,803.119,1129.144,801.9,1130.038,800.295Z" transform="translate(-1109.575 -769.31)" fill="#ffd9a4"/>
          <path id="Path_9982" data-name="Path 9982" d="M1119.635,801.226c.845.63,1.7.961,2.179.32s-.089-1.3-.934-1.929-1.227-1.275-2.125-.353C1118.2,799.828,1118.79,800.6,1119.635,801.226Z" transform="translate(-1105.208 -770.629)" fill="#ffd9a4"/>
        </g>
        <g id="Group_7873" data-name="Group 7873" transform="translate(57.699 33.204)">
          <path id="Path_9983" data-name="Path 9983" d="M1266.814,765.43l1.422.5.476,3.592-3.262,1.292Z" transform="translate(-1245.324 -746.366)" fill="#eaeaea"/>
          <path id="Path_9984" data-name="Path 9984" d="M1271.671,726.906l13.439-4.9.465,21.63-19.234,5.508Z" transform="translate(-1245.824 -722.002)" fill="#f7c371"/>
          <path id="Path_9985" data-name="Path 9985" d="M1227.371,852.594c-4.443-10.047-4.338-26.587-4.555-42.977-.289-21.909,23.4-47.16,43.662-43.988,32.9,5.148-2.106,72.773-5.322,82.132" transform="translate(-1221.405 -746.325)" fill="#ffac00"/>
          <path id="Path_9986" data-name="Path 9986" d="M1306.621,840.188c2.625-4.751,5.643-18.963,8.5-30.829,1.066-4.43,8.625,4.136,9.708,15.028.672,6.756-15.835,45.376-17.066,48.958" transform="translate(-1268.421 -770.341)" fill="#ffac00"/>
          <path id="Path_9987" data-name="Path 9987" d="M1223.157,829.7c2.122-28.247,24.552-55.556,44.3-62.982,3.318-1.248.427-3.759-8.97-3.119C1250.081,764.208,1216.017,780.147,1223.157,829.7Z" transform="translate(-1221.049 -745.281)" fill="#fff4ba"/>
          <path id="Path_9988" data-name="Path 9988" d="M1224.284,811.346c3.776-23.7,12.956-35.968,33.993-47.614-8.2.592-40.955,10.9-35.957,57.362C1222.448,822.277,1223.632,815.442,1224.284,811.346Z" transform="translate(-1220.839 -745.413)" fill="#eaeaea"/>
          <path id="Path_9989" data-name="Path 9989" d="M1231.146,946.765c-.11-1,.359-1.867,1.047-1.943s1.337.67,1.447,1.668-.358,1.867-1.047,1.943S1231.256,947.761,1231.146,946.765Z" transform="translate(-1226.07 -847.001)" fill="#ffd9a4"/>
          <path id="Path_9990" data-name="Path 9990" d="M1228.162,919.844c-.11-1,.359-1.867,1.047-1.943s1.337.67,1.446,1.667-.357,1.868-1.046,1.944S1228.273,920.841,1228.162,919.844Z" transform="translate(-1224.396 -831.898)" fill="#ffd9a4"/>
          <path id="Path_9991" data-name="Path 9991" d="M1270.807,770.343l-4.9,1.564,1.823-5.25.934-.474Z" transform="translate(-1245.581 -746.787)" fill="#03b4e9"/>
          <path id="Path_9992" data-name="Path 9992" d="M1220.861,831.1l1.751-9.559s-3.606-30.036,18.389-44.53l-.246-.763C1222.661,788.738,1216.723,810.828,1220.861,831.1Z" transform="translate(-1219.604 -752.433)" fill="#03b4e9"/>
          <path id="Path_9993" data-name="Path 9993" d="M1268.557,759.483l19.228-4.654,2.339,3.889-18.3,6.937Z" transform="translate(-1247.067 -740.418)" fill="#fff"/>
        </g>
        <g id="Group_7874" data-name="Group 7874" transform="translate(25.602 53.896)">
          <path id="Path_9994" data-name="Path 9994" d="M1260.459,823.745c2.006,4.533,40.5-27.626,38.719-43.675,0,0-12.747-22.572-28.078-2.849C1271.1,777.221,1253.13,807.186,1260.459,823.745Z" transform="translate(-1209.441 -769.137)" fill="#f8c471"/>
          <path id="Path_9995" data-name="Path 9995" d="M1262.853,829.729c-11.386-15.667,8.609-42.555,8.609-42.555h0C1259.175,807.865,1263.326,830.381,1262.853,829.729Z" transform="translate(-1209.803 -779.09)" fill="#fff4ba"/>
          <path id="Path_9996" data-name="Path 9996" d="M1146.491,817.542l4.849,4.942,5.386-8.9-6.588-1.653Z" transform="translate(-1146.491 -793.143)" fill="#eaeaea"/>
          <path id="Path_9997" data-name="Path 9997" d="M1201.636,849.048s-17.764-4.982-48.276-26.588c0,0-.158-4.144,5.529-8.625,0,0,31.944,5.154,47.381,16.54C1206.271,830.376,1208.276,846.127,1201.636,849.048Z" transform="translate(-1150.344 -794.213)" fill="#f8c471"/>
          <path id="Path_9998" data-name="Path 9998" d="M1168.658,825.165a1.463,1.463,0,1,1,2.138-.763A1.624,1.624,0,0,1,1168.658,825.165Z" transform="translate(-1158.226 -798.985)" fill="#fff4ba"/>
        </g>
        <g id="Group_7878" data-name="Group 7878" transform="translate(70.76)">
          <path id="Path_9999" data-name="Path 9999" d="M1286.2,680.843c9.63-9.83,10.211-27.245,9.833-27.885-4.035-6.849-16.882-7.287-23.477-6.047-5.561,1.046-10.073,3.726-7.7,8.186.819,1.541,5.4-1.434,6.711-1.155,2.473.527,1.291,35.017,1.291,35.017Z" transform="translate(-1257.686 -646.366)" fill="#ffac00"/>
          <g id="Group_7876" data-name="Group 7876" transform="translate(0 7.688)">
            <g id="Group_7875" data-name="Group 7875">
              <path id="Path_10000" data-name="Path 10000" d="M1257.387,722.191l-1.109-2.28,1.833-.935Z" transform="translate(-1253.239 -694.789)" fill="#ffd8a3"/>
              <path id="Path_10001" data-name="Path 10001" d="M1277.24,694.5c-1.286,2.823-10.812,8.253-19.679,7.063.023-11.669,2.149-30.745,4.6-33.814,2.407-3.02,11.141-4.609,12.1-3.538-3.446,3.44.469,16.277,2.19,17.576C1280.638,684.956,1278.582,691.558,1277.24,694.5Z" transform="translate(-1253.959 -663.88)" fill="#ffd8a3"/>
              <path id="Path_10002" data-name="Path 10002" d="M1249.356,707.915a82.4,82.4,0,0,0,5.252-9.381c1.657-3.53.021,9.841.021,9.841S1250.58,708.937,1249.356,707.915Z" transform="translate(-1249.356 -682.988)" fill="#ffd8a3"/>
              <path id="Path_10003" data-name="Path 10003" d="M1255.07,745.938a1.471,1.471,0,0,1-.829-1.991,1.771,1.771,0,0,1,2.3-.32,1.47,1.47,0,0,1,.83,1.991A1.772,1.772,0,0,1,1255.07,745.938Z" transform="translate(-1252.004 -708.466)" fill="#ffd8a3"/>
              <path id="Path_10004" data-name="Path 10004" d="M1256.34,735.548c-.01-.237.273-.441.632-.456s.657.165.667.4-.273.441-.631.456S1256.349,735.785,1256.34,735.548Z" transform="translate(-1253.274 -703.829)" fill="#ffd8a3"/>
            </g>
            <path id="Path_10005" data-name="Path 10005" d="M1299.674,702.454c.683-2.065,2.442-3.41,3.928-3s2.136,2.407,1.454,4.472-3.659,3.039-5.145,2.634S1298.991,704.519,1299.674,702.454Z" transform="translate(-1277.192 -683.794)" fill="#ffd8a3"/>
          </g>
          <path id="Path_10006" data-name="Path 10006" d="M1258.182,724.739l-.109,4.751s1.331-.021,1.669-.586a16.62,16.62,0,0,0,1.364-4.667Z" transform="translate(-1254.246 -690.051)" fill="#ffab00"/>
          <path id="Path_10007" data-name="Path 10007" d="M1258.366,725.16l-.094,4.22s.981,0,1.214-.25a11.822,11.822,0,0,0,1.3-4.416Z" transform="translate(-1254.358 -690.319)" fill="#fff"/>
          <path id="Path_10008" data-name="Path 10008" d="M1263.783,691.157a1.152,1.152,0,0,1,.359-.732c.519-.457,4.414,1.125,4.29,1.956l-.078.521c-.089.6-1.226-.143-2.408-.412-1.13-.257-2.313-.017-2.248-.583Z" transform="translate(-1257.4 -671.038)" fill="#2d356b"/>
          <path id="Path_10009" data-name="Path 10009" d="M1266.338,701.332c.038-.7.458-1.287.938-1.306s.838.532.8,1.234-.457,1.286-.937,1.306S1266.3,702.033,1266.338,701.332Z" transform="translate(-1258.882 -676.469)" fill="#2d356b"/>
          <path id="Path_10010" data-name="Path 10010" d="M1264.746,724.016c-.007-.164.081-.3.2-.306s.214.125.221.288-.081.3-.2.306S1264.753,724.18,1264.746,724.016Z" transform="translate(-1257.99 -689.756)" fill="#ffab00"/>
          <g id="Group_7877" data-name="Group 7877" transform="translate(6.397 1.577)">
            <path id="Path_10011" data-name="Path 10011" d="M1293.784,668.72c-3.881-.012.865,17.9-1.187,19.012s-.224,2.683.835,2.368c2.425-.722,3.2-5.627,3.6-8.757C1297.47,677.856,1294.112,668.72,1293.784,668.72Z" transform="translate(-1279.489 -660.483)" fill="#ffac00"/>
            <path id="Path_10012" data-name="Path 10012" d="M1263.973,656.227c-.414-2.83,2.1-5.541,5.612-6.057s13.653-.255,14.067,2.573-9.052,7.161-12.566,7.673S1264.387,659.055,1263.973,656.227Z" transform="translate(-1263.928 -649.958)" fill="#ffac00"/>
          </g>
        </g>
      </g>
    </g>
    <g id="Group_7892" data-name="Group 7892" transform="translate(515.325 470.222)">
      <g id="Group_7882" data-name="Group 7882" transform="translate(39.863 52.019)">
        <g id="Group_7881" data-name="Group 7881" transform="translate(45.112 56.608)">
          <path id="Path_10013" data-name="Path 10013" d="M867.919,914.249c3.46,1.121,11.885-1.924,12.089,1.242.183,2.837-3.717,7.664-12.839,1.476Z" transform="translate(-867.17 -913.311)" fill="#ffd9a4"/>
          <path id="Path_10014" data-name="Path 10014" d="M879,918.6c-.642-4.987,5.436-5.746,7.4-5.543,2.165.224,3.689,3.878,2.907,5.425S879.244,920.5,879,918.6Z" transform="translate(-873.778 -912.762)" fill="#ffd9a4"/>
          <path id="Path_10015" data-name="Path 10015" d="M884.8,923c2.8.985,5.517,3.455,4.873,4.389-.724,1.055-2.664-1.509-5.389-1.782-2.949-.3-4.787-.648-4.732-1.791S882,922.006,884.8,923Z" transform="translate(-874.114 -918.086)" fill="#ffd9a4"/>
          <path id="Path_10016" data-name="Path 10016" d="M897.457,924.539c2.525.275,3.78,1,3.63,1.659s-1.578.416-4.1.146-5.8.009-5.648-.653S894.934,924.272,897.457,924.539Z" transform="translate(-880.726 -919.191)" fill="#ffd9a4"/>
          <path id="Path_10017" data-name="Path 10017" d="M899.718,917.72c2.579-.244,4.916.69,4.9,1.356s-2.432.325-5.011.568-4.262.262-4.247-.4S897.141,917.964,899.718,917.72Z" transform="translate(-882.986 -915.375)" fill="#ffd9a4"/>
          <path id="Path_10018" data-name="Path 10018" d="M894.362,912.451c2.584-.139,4.058.367,4.026,1.031s-1.752.435-4.335.573-4.4.2-4.364-.465S891.777,912.591,894.362,912.451Z" transform="translate(-879.804 -912.428)" fill="#ffd9a4"/>
        </g>
        <path id="Path_10019" data-name="Path 10019" d="M765.465,783.6c9.6-2.851,14.429,44.878,13.861,46.617,0,0-3.543,3.4-4.845,1.7C771.117,827.513,761.175,784.875,765.465,783.6Z" transform="translate(-764.409 -783.479)" fill="#f46973"/>
        <path id="Path_10020" data-name="Path 10020" d="M825.472,897.314c-1.572,7.09-38.661-8.92-39.773-10,0,0-2.312-4.831,1.238-5.347C791.593,881.3,826.175,894.144,825.472,897.314Z" transform="translate(-775.938 -838.718)" fill="#f46973"/>
        <path id="Path_10021" data-name="Path 10021" d="M871.937,911.094l-.139-2.22-7.052-4.644s-.569,3.887-.167,4.77S871.937,911.094,871.937,911.094Z" transform="translate(-820.524 -851.221)" fill="#fffdfd"/>
        <path id="Path_10022" data-name="Path 10022" d="M870.3,919.091l-.77,2.063-8.015,2.267s.581-3.862,1.218-4.578S870.3,919.091,870.3,919.091Z" transform="translate(-818.883 -859.271)" fill="#fffdfd"/>
      </g>
      <g id="Group_7883" data-name="Group 7883" transform="translate(19.867 125.967)">
        <path id="Path_10023" data-name="Path 10023" d="M762.379,955.633c-7.384,1.712-7.736,15.612-4.463,18.135,3.291,2.545,58.2-7.22,63.016-.513,3.17,4.415-14.238,30.583-12.328,74.307.9.726,1.616,1.6,1.6.3-.373-30.2,20.64-76.44,18.869-78.193C820.864,961.509,788.561,949.559,762.379,955.633Z" transform="translate(-739.662 -953.076)" fill="#9999a5"/>
        <path id="Path_10024" data-name="Path 10024" d="M722.845,952.826c-7.362,1.383.476,17.922,4.935,20.687s57.271-5.816,64.353,1.1c4.613,4.509-5.054,31.649,11.017,73.7,1.1.684,2.188.582,1.757-.643-10.034-28.8-5.175-73.5-7.5-75.315C786.509,963.815,748.535,948,722.845,952.826Z" transform="translate(-719.399 -951.929)" fill="#cfd0d8"/>
        <path id="Path_10025" data-name="Path 10025" d="M920.91,1170.063l-11.8-.426s.909-3.223,3.252-2.978S920.91,1170.063,920.91,1170.063Z" transform="translate(-825.59 -1072.386)" fill="#f46973"/>
        <path id="Path_10026" data-name="Path 10026" d="M881.716,1166.426l-11.8-.427s.913-3.225,3.251-2.977S881.716,1166.426,881.716,1166.426Z" transform="translate(-803.602 -1070.345)" fill="#f46973"/>
        <path id="Path_10027" data-name="Path 10027" d="M793.663,976.467c-7.315-7.257-60.706-1.128-65.011-3.96-.034-.025-.068-.056-.1-.08-7.668-2.338-8.168-8.194-7.87-14.855l-1.525.217c-.459,8.252-1.606,16.124,7.981,18.817.035.024.071.051.1.074,4.463,2.767,57.271-5.816,64.353,1.1,4.614,4.509-5.054,31.649,11.017,73.7.862.536,1.7.579,1.824-.007C787.826,1007.048,798.448,981.215,793.663,976.467Z" transform="translate(-718.859 -955.094)" fill="#9999a5"/>
      </g>
      <g id="Group_7884" data-name="Group 7884" transform="translate(0 2.87)">
        <path id="Path_10028" data-name="Path 10028" d="M725.76,736.2c6.4-6.553-4.04-7.677-3.728-13.252s1.578-3.853,2.26-11.057-1.306-9.819-1.558-14,2.356-11.107-.178-16.33-3.94-3.393-6.143-7.545-4.065.493-7.5,2.454-7.682-8-13.686-4-5.224,11.755-6.941,16.159-7.739,6.326-8.48,14.144,3.547,5.943,1.735,11.376-7.193,5.131-7.934,12.951c0,0-.526,7.839,8.188,7.211s6.1,4.108,15.5.846,6.434,5.177,13.023,1.856S720.04,742.056,725.76,736.2Z" transform="translate(-673.604 -671.523)" fill="#2d356b"/>
      </g>
      <g id="Group_7885" data-name="Group 7885" transform="translate(19.157 28.63)">
        <path id="Path_10029" data-name="Path 10029" d="M747.535,730.2l7.875,5.779.192,17.945-6.456-2.876Z" transform="translate(-734.236 -730.203)" fill="#f6cda2"/>
        <path id="Path_10030" data-name="Path 10030" d="M751.208,855.088c-17.85,9.01-24.058,4.694-33.966,3.539.809-14.123,9.508-23.21,10.351-33.061,1.566-18.261-12.419-40.854,1.031-48.189,14.284-7.787,27.564,33.9,27.564,33.9C741.984,817.97,747,832.811,751.208,855.088Z" transform="translate(-717.242 -756.123)" fill="#fc8c99"/>
        <path id="Path_10031" data-name="Path 10031" d="M745.587,774.887l2.417-.109,9.989,10.857-3.367,2.451S747.965,780.232,745.587,774.887Z" transform="translate(-733.144 -755.21)" fill="#fff"/>
        <path id="Path_10032" data-name="Path 10032" d="M765.74,788.811l.158-.1c-2.421-5.847-7.978-14.935-13.987-14.811C756.994,779.141,765.74,788.811,765.74,788.811Z" transform="translate(-736.691 -754.716)" fill="#f6cda2"/>
      </g>
      <g id="Group_7888" data-name="Group 7888" transform="translate(48.393 47.166)">
        <path id="Path_10033" data-name="Path 10033" d="M813.122,813.1c-.472-.716-.657-1.443-.975-1.234a1.564,1.564,0,0,0-.029,1.868,1.593,1.593,0,0,0,1.739.72C814.172,814.246,813.594,813.816,813.122,813.1Z" transform="translate(-799.543 -794.532)" fill="#f8c471"/>
        <g id="Group_7886" data-name="Group 7886" transform="translate(11.219)">
          <path id="Path_10034" data-name="Path 10034" d="M812.871,811.066a3.881,3.881,0,0,0-.077.82c-3.1-1.187-2.753,1.618-.108,2.6a4.023,4.023,0,0,0,1.047.242,4.943,4.943,0,0,0,1.215,1.143,6.081,6.081,0,0,1-2.264-.4C808.261,813.827,808.279,809.476,812.871,811.066Z" transform="translate(-809.396 -793.91)" fill="#cfd0d8"/>
          <path id="Path_10035" data-name="Path 10035" d="M812.873,811.065c-.014.087-.027.154-.037.221-1.129-.172-2.253-.43-2.723.4a2.043,2.043,0,0,0,.231,2.318C808.514,812.138,809.336,809.841,812.873,811.065Z" transform="translate(-809.398 -793.909)" fill="#cfd0d8"/>
          <rect id="Rectangle_2591" data-name="Rectangle 2591" width="1.698" height="5.787" transform="matrix(0.072, -0.997, 0.997, 0.072, 5.659, 24.021)" fill="#cfd0d8"/>
          <path id="Path_10036" data-name="Path 10036" d="M824.469,787.016c2.434-.352,6.322-1.126,2.8-4.019s-3.087-8.543,2.7-10.573c-3.174.72-9.4,2.522-8.275,7.845.507,2.4,6.023,1.738,6.127,4.842C827.853,786.071,824.469,787.016,824.469,787.016Z" transform="translate(-816.218 -772.425)" fill="#ffd9a4" opacity="0.4"/>
          <path id="Path_10037" data-name="Path 10037" d="M828.649,810.072c-.208,2.886-2.336,7.064-6.475,6.72-5.891-.489-6.164-5.427-6.134-7.631A73.814,73.814,0,0,1,828.649,810.072Z" transform="translate(-813.123 -793.031)" fill="#cfd0d8"/>
          <path id="Path_10038" data-name="Path 10038" d="M827.8,817.75c4.125.342,6.251-3.807,6.472-6.693.193.03.377.052.573.082-.208,2.886-2.336,7.064-6.475,6.72a8.785,8.785,0,0,1-1.286-.2C827.316,817.7,827.552,817.729,827.8,817.75Z" transform="translate(-819.32 -794.098)" fill="#cfd0d8"/>
          <path id="Path_10039" data-name="Path 10039" d="M827.449,810.867c-.173,2.4-1.593,5.911-4.238,5.684-3.764-.328-3.868-4.432-3.817-6.267A36.259,36.259,0,0,1,827.449,810.867Z" transform="translate(-815.001 -793.649)" fill="#cfd0d8"/>
          <path id="Path_10040" data-name="Path 10040" d="M816.816,809.866c.025-.33,2.693-.406,5.96-.17s5.9.7,5.875,1.026-2.691.4-5.96.169S816.792,810.194,816.816,809.866Z" transform="translate(-813.559 -793.257)" fill="#fff"/>
          <path id="Path_10041" data-name="Path 10041" d="M817.7,809.951c.014-.191,2.5-.168,5.56.053s5.524.555,5.512.748-2.5.163-5.56-.057S817.689,810.14,817.7,809.951Z" transform="translate(-814.055 -793.404)" fill="#9999a5"/>
        </g>
        <path id="Path_10042" data-name="Path 10042" d="M805.916,824.009c-.791-.641-1.381-1.308-1.147-1.729s1.063-.243,1.852.4,1.239,1.5,1.006,1.923S806.705,824.651,805.916,824.009Z" transform="translate(-795.552 -800.266)" fill="#f8c471"/>
        <path id="Path_10043" data-name="Path 10043" d="M808.1,819.357c-1.137-.266-2.014-.789-2.121-.326s.609,1.5,1.749,1.767,2.264-.331,2.375-.793S809.244,819.626,808.1,819.357Z" transform="translate(-796.256 -798.468)" fill="#f8c471"/>
        <g id="Group_7887" data-name="Group 7887" transform="translate(0 17.723)">
          <path id="Path_10044" data-name="Path 10044" d="M784.706,824.832c2.52-1.231,9.285.179,9.1-2.261-.166-2.183-3.671-5.446-9.962.268Z" transform="translate(-783.84 -816.638)" fill="#ffd9a4"/>
          <path id="Path_10045" data-name="Path 10045" d="M792.377,819.824c.051,3.876,4.774,3.8,6.258,3.43,1.626-.407,2.393-3.361,1.628-4.457S792.359,818.343,792.377,819.824Z" transform="translate(-788.629 -815.854)" fill="#ffd9a4"/>
          <path id="Path_10046" data-name="Path 10046" d="M804.427,817.951c1.9-.484,2.778-1.171,2.59-1.662s-1.249-.147-3.145.336-4.426.62-4.241,1.11S802.529,818.427,804.427,817.951Z" transform="translate(-792.693 -814.622)" fill="#ffd9a4"/>
          <path id="Path_10047" data-name="Path 10047" d="M803.615,822.954c2-.1,2.883-1.056,2.8-1.562s-1.893.014-3.888.11-3.283.263-3.2.771S801.62,823.047,803.615,822.954Z" transform="translate(-792.527 -817.497)" fill="#ffd9a4"/>
          <path id="Path_10048" data-name="Path 10048" d="M800.177,828.387c1.991-.117,3.078-.633,3-1.139s-1.381-.182-3.372-.064-3.386.224-3.3.731S798.183,828.5,800.177,828.387Z" transform="translate(-790.94 -820.749)" fill="#ffd9a4"/>
          <path id="Path_10049" data-name="Path 10049" d="M795.826,816.214c1.5-1.72,1.229-3.123.406-3.414-.284-.1-5.115,3.453-4.45,4.509C792.251,818.056,794.32,817.941,795.826,816.214Z" transform="translate(-788.26 -812.797)" fill="#ffd9a4"/>
        </g>
        <path id="Path_10050" data-name="Path 10050" d="M803.689,809.528c.735-.586,1.031-1.44,1.614-.967.465.377.021,1.352-.728,1.925-1.379,1.052-3.969,3.01-3.66.205C800.972,810.184,802.9,810.155,803.689,809.528Z" transform="translate(-793.405 -792.62)" fill="#f8c471"/>
      </g>
      <g id="Group_7889" data-name="Group 7889" transform="translate(24.22 52.531)">
        <path id="Path_10051" data-name="Path 10051" d="M755.922,831.18c5.041,5.035-17.368,28.105-18.866,28.475,0,0-4.9-2.324-3.991-3.895C735.421,851.7,753.671,828.933,755.922,831.18Z" transform="translate(-731.118 -810.665)" fill="#f46973"/>
        <path id="Path_10052" data-name="Path 10052" d="M734.542,784.858c-8.262-3.793-5.92,44.92-3.5,46.08,0,0,4.785-1.041,5.856-3.1C740.135,821.636,738.232,786.549,734.542,784.858Z" transform="translate(-728.774 -784.647)" fill="#f46973"/>
        <path id="Path_10053" data-name="Path 10053" d="M777.854,826.349l-1.877-.882-7.134,4.165s2.9,2.277,3.817,2.317S777.854,826.349,777.854,826.349Z" transform="translate(-751.253 -807.547)" fill="#fff"/>
        <path id="Path_10054" data-name="Path 10054" d="M784.207,827.223l1.342,1.647-1.972,8.285s-2.922-2.311-3.213-3.213S784.207,827.223,784.207,827.223Z" transform="translate(-757.708 -808.533)" fill="#fff"/>
      </g>
      <g id="Group_7891" data-name="Group 7891" transform="translate(18.512 0)">
        <g id="Group_7890" data-name="Group 7890">
          <path id="Path_10055" data-name="Path 10055" d="M736.7,701.34c-4.292-1.178-12.933-2.552-17.1-9.033-5.412-8.425-4.037-13.636-2.234-19.976,3.439-12.086,24.055-6.427,22.766-2.866C738.428,674.194,752.256,705.609,736.7,701.34Z" transform="translate(-715.774 -664.985)" fill="#2d356b"/>
          <path id="Path_10056" data-name="Path 10056" d="M761.142,710.3c1.564,0,4.364-8.086,5.2-14.287.275-2.044-1.926-2.285-1.788-9.26.081-4.095-1.809-9.763-8.667-13.83-6.474-3.84-6.954,8.868-7.509,11.8-1.58,8.363-3.715,13.614-1.571,17.66C750.994,710.291,759.451,709.9,761.142,710.3Z" transform="translate(-732.675 -669.037)" fill="#ffd8a3"/>
          <path id="Path_10057" data-name="Path 10057" d="M779.953,733.743a.36.36,0,0,1,.326-.391.38.38,0,0,1,.313.416.361.361,0,0,1-.328.391A.378.378,0,0,1,779.953,733.743Z" transform="translate(-751.779 -703.339)" fill="#ffab00"/>
          <path id="Path_10058" data-name="Path 10058" d="M777.9,708.333c.037-1.1.681-1.96,1.435-1.923s1.34.961,1.3,2.061-.68,1.96-1.436,1.922S777.861,709.433,777.9,708.333Z" transform="translate(-750.625 -688.224)" fill="#2d356b"/>
          <path id="Path_10059" data-name="Path 10059" d="M774.414,708.354c1.059-1.521,2.569-3.04,5.448-2.032A10.522,10.522,0,0,0,774.414,708.354Z" transform="translate(-748.671 -687.993)" fill="#2d356b"/>
          <path id="Path_10060" data-name="Path 10060" d="M784.644,744.234c.047-.255.832.649,1.2.681,1.053.09.753,1.433-.3,1.236C785.14,746.074,784.6,744.5,784.644,744.234Z" transform="translate(-754.409 -709.419)" fill="#f36973"/>
          <path id="Path_10061" data-name="Path 10061" d="M782.555,733.884c-.713-.284,4.1-1.671,3.231-.038C785.467,734.165,782.922,734.029,782.555,733.884Z" transform="translate(-753.198 -703.178)" fill="#f36973"/>
          <path id="Path_10062" data-name="Path 10062" d="M777.073,694.389a6.414,6.414,0,0,0-7.73,4.033C771.426,695.569,773.042,694.5,777.073,694.389Z" transform="translate(-745.826 -681.378)" fill="#2d356b"/>
          <path id="Path_10063" data-name="Path 10063" d="M790.552,719.47l-2.421.741-.087-6.185,3.609,4.4Z" transform="translate(-756.317 -692.497)" fill="#ffd8a3"/>
          <path id="Path_10064" data-name="Path 10064" d="M790.274,729.635l1.882-3.829-1.818-.065Z" transform="translate(-757.569 -699.069)" fill="#ffd8a3"/>
          <path id="Path_10065" data-name="Path 10065" d="M783.84,739.7a45.733,45.733,0,0,0,1.194-5.368h-4.373S781.529,738.964,783.84,739.7Z" transform="translate(-752.176 -703.89)" fill="#ffab00"/>
          <path id="Path_10066" data-name="Path 10066" d="M782.653,737.113h2.491c.144-.674.277-1.38.4-2.111h-3.574Z" transform="translate(-752.909 -704.265)" fill="#fff"/>
          <path id="Path_10067" data-name="Path 10067" d="M738.89,715.986c.1-1.908.744-3.314-.7-3.386s-2.7,1.418-2.8,3.327,1,3.514,2.449,3.587S738.794,717.9,738.89,715.986Z" transform="translate(-726.772 -691.696)" fill="#f7c371"/>
        </g>
        <path id="Path_10068" data-name="Path 10068" d="M759,672.616c-4.593,6.941-12.641,17.088-10.7,26.977-4.072-10.529-2.255-24.574,4.73-30.356C753.765,670.293,760.019,669.975,759,672.616Z" transform="translate(-732.819 -667.371)" fill="#2d356b"/>
      </g>
    </g>
    <g id="Group_7893" data-name="Group 7893" transform="translate(589.07 585.839)">
      <path id="Path_10069" data-name="Path 10069" d="M1002.063,930.509h7.591c-5.429,1.642-3.86,61.845,0,104.7h-7.591C1005.172,994.721,1005.779,932.375,1002.063,930.509Z" transform="translate(-930.26 -929.561)" fill="#7b88ac"/>
      <path id="Path_10070" data-name="Path 10070" d="M992.382,1155.711h5.7l9.259,8H983.124Z" transform="translate(-919.635 -1055.9)" fill="#7b88ac"/>
      <path id="Path_10071" data-name="Path 10071" d="M855.58,933.145H999.587l-9.266,2.847H864.847Z" transform="translate(-848.083 -931.04)" fill="#7b88ac"/>
      <rect id="Rectangle_2592" data-name="Rectangle 2592" width="159.422" height="2.848" fill="#7b88ac"/>
    </g>
    <g id="Group_7896" data-name="Group 7896" transform="translate(555.615 367.37)">
      <g id="Group_7895" data-name="Group 7895">
        <g id="Group_7894" data-name="Group 7894">
          <rect id="Rectangle_2593" data-name="Rectangle 2593" width="249.268" height="80.348" rx="11.604" transform="translate(0 -21)" fill="#fff" stroke="#231f20" stroke-miterlimit="10" stroke-width="0.25"/>
          <path id="Path_10072" data-name="Path 10072" d="M782.063,565.9l-11.144,29.466L797.7,565.9Z" transform="translate(-741.604 -506.548)" fill="#fff" stroke="#231f20" stroke-miterlimit="10" stroke-width="0.25"/>
        </g>
      </g>
    </g>
    <g id="Group_7897" data-name="Group 7897" transform="translate(504.909 549.873)">
      <rect id="Rectangle_2594" data-name="Rectangle 2594" width="54.698" height="30.106" rx="6.672" transform="translate(0 -12)" fill="#fff" stroke="#231f20" stroke-miterlimit="10" stroke-width="0.25"/>
      <text id="Akiko" transform="translate(14.349 6.553)" fill="#2d356b" font-size="10" font-family="TrebuchetMS-Bold, Trebuchet MS" font-weight="700"><tspan x="0" y="0">Akiko</tspan></text>
    </g>
    <g id="Group_7898" data-name="Group 7898" transform="translate(817.571 490.873)">
      <rect id="Rectangle_2595" data-name="Rectangle 2595" width="53.698" height="29.106" rx="6.672" transform="translate(-40 48)" fill="#fff" stroke="#231f20" stroke-miterlimit="10" stroke-width="0.25"/>
      <text id="Nick" transform="translate(-23.151 66.053)" fill="#2d356b" font-size="10" font-family="TrebuchetMS-Bold, Trebuchet MS" font-weight="700"><tspan x="0" y="0">Nick</tspan></text>
    </g>
  </g>
</svg>
