<svg xmlns="http://www.w3.org/2000/svg" width="158.648" height="165.681" viewBox="0 0 158.648 165.681">
  <g id="Group_8082" data-name="Group 8082" transform="translate(-250.837 -3266.372)">
    <g id="Group_8076" data-name="Group 8076" transform="translate(250.837 3285.608)">
      <path id="Path_9826" data-name="Path 9826" d="M295.9,3380.04c3.173-4.053,3.223-16.731,7.53-15.462,3.859,1.135,8.377,8.667-4.283,17.779Z" transform="translate(-282.064 -3353.597)" fill="#ffd9a4"/>
      <path id="Path_9827" data-name="Path 9827" d="M312.917,3369.912c-6.939-1.573-4.992-10.02-3.765-12.537,1.351-2.767,6.949-3.016,8.623-1.224S315.571,3370.509,312.917,3369.912Z" transform="translate(-290.401 -3347.028)" fill="#ffd9a4"/>
      <path id="Path_9828" data-name="Path 9828" d="M327.51,3373.688c3.664-2.041,8.834-2.612,9.22-1.054.44,1.757-4.1,1.411-6.94,4.044-3.084,2.844-5.173,4.469-6.333,3.341S323.839,3375.728,327.51,3373.688Z" transform="translate(-300.895 -3358.625)" fill="#ffd9a4"/>
      <path id="Path_9829" data-name="Path 9829" d="M336.259,3343.632c1.592-3.221,3.164-4.538,3.97-4.017s-.214,2.3-1.8,5.52-2.807,7.708-3.614,7.188S334.677,3346.855,336.259,3343.632Z" transform="translate(-308.789 -3336.285)" fill="#ffd9a4"/>
      <path id="Path_9830" data-name="Path 9830" d="M325.665,3334.905c.93-3.546,3.308-6.2,4.186-5.856s-.751,3.391-1.682,6.935-1.724,5.793-2.6,5.449S324.735,3338.448,325.665,3334.905Z" transform="translate(-302.183 -3329.019)" fill="#ffd9a4"/>
      <path id="Path_9831" data-name="Path 9831" d="M311.137,3342.864c1.072-3.5,2.462-5.214,3.329-4.849s-.274,2.54-1.346,6.039-1.872,5.94-2.741,5.573S310.065,3346.368,311.137,3342.864Z" transform="translate(-291.799 -3335.219)" fill="#ffd9a4"/>
      <g id="Group_8075" data-name="Group 8075" transform="translate(0 24.064)">
        <path id="Path_9832" data-name="Path 9832" d="M264.639,3487.512c-2.379-3.41,22.947-25.863,43.825-35.344,0,0,4.447,16.411,2.058,24.411C310.521,3476.579,271.987,3498.04,264.639,3487.512Z" transform="translate(-260.293 -3438.417)" fill="#40558d"/>
        <path id="Path_9833" data-name="Path 9833" d="M295.686,3507.27c-12.8,7.926-26.229,16.021-31.184,9.676a.968.968,0,0,0,.15.489c7.348,10.528,45.882-10.933,45.882-10.933.819-2.743.775-6.889.362-11.151A81.739,81.739,0,0,1,295.686,3507.27Z" transform="translate(-260.306 -3468.34)" fill="#7b87ab"/>
        <path id="Path_9834" data-name="Path 9834" d="M299.182,3408.34l.392,5.793-7.853-1.758,2.382-4.989Z" transform="translate(-279.167 -3407.387)" fill="#eaeaea"/>
        <path id="Path_9835" data-name="Path 9835" d="M259.219,3465.2s14.245-7.914,12.422-45.2c0,0-3.513-2.728-9.529-1.893,0,0-8.752,16.71-11.193,31.764C250.266,3453.9,253.59,3467.522,259.219,3465.2Z" transform="translate(-250.837 -3414.708)" fill="#40558d"/>
        <g id="Group_8074" data-name="Group 8074" transform="translate(16.27 4.049)">
          <path id="Path_9836" data-name="Path 9836" d="M305.878,3420.572c.664,5.33.186,13.389-.1,21.738a63.183,63.183,0,0,1-1.956,13.942c2.923-6.84,5.353-17.664,4.533-34.432A9.686,9.686,0,0,0,305.878,3420.572Z" transform="translate(-303.823 -3420.572)" fill="#7b87ab"/>
        </g>
      </g>
    </g>
    <path id="Path_9837" data-name="Path 9837" d="M520.613,3414.844c-2.49-2.629-17.815-3-21.128,0l-.085,3.38h21.127Z" transform="translate(-172.238 -101.417)" fill="#fff"/>
    <rect id="Rectangle_2655" data-name="Rectangle 2655" width="47.71" height="26.201" transform="translate(314.466 3405.851)" fill="#eaeaea"/>
    <path id="Path_9838" data-name="Path 9838" d="M405.7,3540.163s-19.551-76.748-23.258-104.157c0,0,36.26-27.565,83.539-4.254,0,0-10.233,94.851-12.612,108.411-9.57-3.722-15.839-2.182-22.728-13.1C421.334,3539.956,413.757,3539.159,405.7,3540.163Z" transform="translate(-91.195 -108.111)" fill="#40558d"/>
    <path id="Path_9839" data-name="Path 9839" d="M468,3488.375s-39.229-27.12-23.547-62.965c0,0,22.9-10.084,46.42-.149C497.357,3456.05,482.834,3475.881,468,3488.375Z" transform="translate(-131.598 -107.067)" fill="#7b87ab"/>
    <path id="Path_9840" data-name="Path 9840" d="M495.236,3495.7s-22.59-27.392-12.652-63.6c0,0,18.086-1.353,28.35-.151C514.585,3463.045,504.422,3483.076,495.236,3495.7Z" transform="translate(-158.835 -114.388)" fill="#eaeaea"/>
    <path id="Path_9841" data-name="Path 9841" d="M518.808,3394.339H502.629l-2.421,14.823c8.806,4.59,13.951,4.092,20.812-1Z" transform="translate(-172.798 -88.673)" fill="#f7c371"/>
    <path id="Path_9842" data-name="Path 9842" d="M518.879,3451.785l3.938,2.629,4.59-3-2.629-3.831-3.065-.075Z" transform="translate(-185.736 -125.512)" fill="#ffb2b0"/>
    <path id="Path_9843" data-name="Path 9843" d="M484.1,3423.707l4.926-4.01c1.451,4.145,4.008,6.537,10.1,8.313,0,0-4.9,7.432-7.144,7.236S484.1,3423.707,484.1,3423.707Z" transform="translate(-161.634 -106.245)" fill="#fff"/>
    <path id="Path_9844" data-name="Path 9844" d="M548.576,3423.6l-5.026-3.983c-1.888,4.055-4.573,6.5-11.151,8.4,0,0,4.742,7.445,7.128,7.238S548.576,3423.6,548.576,3423.6Z" transform="translate(-195.105 -106.186)" fill="#fff"/>
    <path id="Path_9845" data-name="Path 9845" d="M522.629,3466.177l-1.6.3-3.613,48.323,3.622,4.961,3.761-4.961Z" transform="translate(-184.724 -138.453)" fill="#ffb2b0"/>
    <path id="Path_9846" data-name="Path 9846" d="M533.19,3702.321a1.874,1.874,0,1,0-1.874,1.874A1.875,1.875,0,0,0,533.19,3702.321Z" transform="translate(-193.055 -300.786)" fill="#7b87ab"/>
    <path id="Path_9847" data-name="Path 9847" d="M533.19,3662.978a1.874,1.874,0,1,0-1.874,1.874A1.875,1.875,0,0,0,533.19,3662.978Z" transform="translate(-193.055 -273.524)" fill="#7b87ab"/>
    <g id="Group_8080" data-name="Group 8080" transform="translate(319.466 3266.372)">
      <g id="Group_8079" data-name="Group 8079" transform="translate(0 0)">
        <path id="Path_9848" data-name="Path 9848" d="M573.672,3344.2c.3-2.947,1.684-4.542,3.059-4.542s2.217,1.594,1.921,4.542a4.5,4.5,0,0,1-3.942,4.315C573.335,3348.515,573.376,3347.147,573.672,3344.2Z" transform="translate(-543.053 -3317.155)" fill="#f7c371"/>
        <path id="Path_9849" data-name="Path 9849" d="M479.584,3344.749c-.207-2.948-1.606-4.542-3.047-4.542s-2.379,1.594-2.171,4.542a4.412,4.412,0,0,0,3.98,4.315C479.787,3349.064,479.791,3347.7,479.584,3344.749Z" transform="translate(-474.338 -3317.535)" fill="#f7c371"/>
        <path id="Path_9850" data-name="Path 9850" d="M483.554,3300.282s-3.019-26.079-.567-29.188,16.9-5.143,19.156-4.648c4.921,1.078,4.059,4.3,4.059,4.3a9.284,9.284,0,0,1,4.146,1.039c1.7,1.036,3.952,15.821,1.121,27.047S483.554,3300.282,483.554,3300.282Z" transform="translate(-479.666 -3266.372)" fill="#cfd0d8"/>
        <path id="Path_9851" data-name="Path 9851" d="M499.321,3312.337a19.462,19.462,0,0,1-17.259-10.4c.133,9.516.362,22.465.362,22.465s23.035,1.181,30.06-.759c.178-5.314.484-11.586.307-16.686A19.463,19.463,0,0,1,499.321,3312.337Z" transform="translate(-479.69 -3291.015)" fill="#cfd0d8"/>
        <path id="Path_9852" data-name="Path 9852" d="M484.721,3320.3c.206,1.408,6.767,7.486,14.237,7.486s13.66-5.54,14.957-7.785-3.936-30.842-6.984-33.238-15.341-.812-16.383.45C488.071,3290.207,483.911,3314.761,484.721,3320.3Z" transform="translate(-481.462 -3279.64)" fill="#ffd8a3"/>
        <path id="Path_9853" data-name="Path 9853" d="M492.615,3303.792c1.124.438,5.559-8.835,6.487-10.386s.771-3.163-.352-3.6-2.786.466-3.715,2.017S491.492,3303.354,492.615,3303.792Z" transform="translate(-486.812 -3282.532)" fill="#ffd8a3"/>
        <path id="Path_9854" data-name="Path 9854" d="M554.666,3302.208c1.181-.323-1.938-9.734-2.624-11.365s-2.2-2.692-3.38-2.369-1.582,1.907-.9,3.539S553.486,3302.531,554.666,3302.208Z" transform="translate(-524.986 -3281.646)" fill="#ffd8a3"/>
        <path id="Path_9855" data-name="Path 9855" d="M503.031,3323.429a1.088,1.088,0,0,0-.536-.762c-.774-.447-6.521,1.645-6.33,2.535l.12.559c.137.642,1.812-.272,3.558-.677,1.67-.388,3.421-.24,3.32-.849Z" transform="translate(-489.459 -3305.338)" fill="#2d356b"/>
        <path id="Path_9856" data-name="Path 9856" d="M540.684,3324.233a1.059,1.059,0,0,1,.453-.815c.735-.527,6.892.931,6.81,1.837l-.052.567c-.059.653-1.892-.076-3.733-.29-1.762-.205-3.537.131-3.511-.485Z" transform="translate(-520.288 -3305.824)" fill="#2d356b"/>
        <path id="Path_9857" data-name="Path 9857" d="M524.51,3345.891a5.4,5.4,0,0,0,2.4,1.223,3.216,3.216,0,0,0,2.4-1.349c.107-.813-1.645-9.87-2.267-9.954S524.466,3344.711,524.51,3345.891Z" transform="translate(-509.104 -3314.489)" fill="#ffab00"/>
        <path id="Path_9858" data-name="Path 9858" d="M527.961,3344.482c0,.206,1,.534,1.346.534.6,0,1.32-.3,1.345-.673.06-.891.536-11.006-1.27-10.91C527.4,3333.536,527.936,3343.187,527.961,3344.482Z" transform="translate(-511.438 -3312.841)" fill="#ffd8a3"/>
        <path id="Path_9859" data-name="Path 9859" d="M509.661,3339.088c-.005-.776-.454-1.406-1-1.406s-.988.63-.984,1.406.454,1.406,1,1.406S509.665,3339.865,509.661,3339.088Z" transform="translate(-497.438 -3315.785)" fill="#2d356b"/>
        <path id="Path_9860" data-name="Path 9860" d="M550.788,3339.088c-.005-.776-.454-1.406-1-1.406s-.988.63-.983,1.406.454,1.406,1,1.406S550.793,3339.865,550.788,3339.088Z" transform="translate(-525.937 -3315.785)" fill="#2d356b"/>
        <g id="Group_8077" data-name="Group 8077" transform="translate(12.171 4.546)">
          <path id="Path_9861" data-name="Path 9861" d="M524.826,3283.2c0-1.119-2.429-2.025-5.425-2.025s-5.426.906-5.426,2.025,2.43,2.024,5.426,2.024S524.826,3284.318,524.826,3283.2Z" transform="translate(-513.976 -3281.175)" fill="#cfd0d8"/>
          <path id="Path_9862" data-name="Path 9862" d="M541.973,3284.577c2.047-.889,4.761-.79,4,3.084,0,0-.978-1.987-4.3-.781Z" transform="translate(-533.167 -3283.214)" fill="#cfd0d8"/>
        </g>
        <g id="Group_8078" data-name="Group 8078" transform="translate(11.637 34.051)">
          <path id="Path_9863" data-name="Path 9863" d="M514.323,3379.042s.9,5.016,1.785,5.269a25.219,25.219,0,0,0,7.453.126c.987-.205,2.029-5.72,2.029-5.72Z" transform="translate(-513.682 -3378.271)" fill="#ffab00"/>
          <path id="Path_9864" data-name="Path 9864" d="M525.6,3379.672l-10.343.253,1.332,4.774c1.162.333,6.991.5,7.8,0Z" transform="translate(-514.328 -3378.933)" fill="#fff"/>
          <path id="Path_9865" data-name="Path 9865" d="M550.9,3377.43c-.077-.172-.371-.218-.658-.1s-.457.347-.38.519.371.217.658.1S550.976,3377.6,550.9,3377.43Z" transform="translate(-538.295 -3377.264)" fill="#ffab00"/>
          <path id="Path_9866" data-name="Path 9866" d="M513.332,3379.25c.05-.18-.154-.387-.455-.462s-.585.01-.635.19.154.388.454.463S513.282,3379.43,513.332,3379.25Z" transform="translate(-512.235 -3378.301)" fill="#ffab00"/>
        </g>
      </g>
    </g>
    <g id="Group_8081" data-name="Group 8081" transform="translate(355.256 3323.315)">
      <path id="Path_9867" data-name="Path 9867" d="M601.641,3776.369c-.521-.7.643-1.764,2.125-2.761s2.716-1.556,3.241-.856-.255,2.078-1.738,3.075S602.163,3777.069,601.641,3776.369Z" transform="translate(-598.253 -3673.987)" fill="#f7c371"/>
      <path id="Path_9868" data-name="Path 9868" d="M608.409,3780.828c-.522-.7.643-1.763,2.126-2.761s2.715-1.559,3.24-.858-.256,2.076-1.739,3.077S608.932,3781.527,608.409,3780.828Z" transform="translate(-602.943 -3677.076)" fill="#f7c371"/>
      <path id="Path_9869" data-name="Path 9869" d="M591.074,3769.956c.63-.634,2.5.711,4.439,2.43s3.215,3.157,2.585,3.792-2.71-.247-4.65-1.967S590.446,3770.588,591.074,3769.956Z" transform="translate(-590.893 -3672.156)" fill="#ffd8a3"/>
      <path id="Path_9870" data-name="Path 9870" d="M603.377,3737.429c-3.08,2.277-13.32,8.7-11.154,12.194,1.938,3.129,8.728,4.133,14.02-9.968Z" transform="translate(-591.608 -3649.728)" fill="#ffd8a3"/>
      <path id="Path_9871" data-name="Path 9871" d="M618.6,3727.287l2.988-6.585,8.472,6.807-5.871,3.981Z" transform="translate(-610.091 -3638.137)" fill="#eaeaea"/>
      <path id="Path_9872" data-name="Path 9872" d="M673.593,3499.638c4.558-2.178-13.462-23.839-34.246-47.823,0,0-8.186,16.238-5.955,26.427C633.392,3478.242,655.2,3508.427,673.593,3499.638Z" transform="translate(-620.075 -3451.815)" fill="#40558d"/>
      <path id="Path_9873" data-name="Path 9873" d="M668.691,3590.946s-9.909,15.543-34.907,44.448c0,0-5.189-1.488-8.71-8.051,0,0,15.73-28.055,26.622-42.513C651.7,3584.83,666.9,3583.684,668.691,3590.946Z" transform="translate(-614.578 -3543.94)" fill="#40558d"/>
      <path id="Path_9874" data-name="Path 9874" d="M647.388,3722.457a1.509,1.509,0,1,0-2.145.94A1.674,1.674,0,0,0,647.388,3722.457Z" transform="translate(-628.053 -3637.671)" fill="#7b87ab"/>
    </g>
  </g>
</svg>
