<svg xmlns="http://www.w3.org/2000/svg" width="61.626" height="149.708" viewBox="0 0 61.626 149.708">
  <g id="Group_8950" data-name="Group 8950" transform="translate(0)">
    <g id="Group_8940" data-name="Group 8940" transform="translate(0)">
      <path id="Path_11085" data-name="Path 11085" d="M1067.564,1906.7c-4.379-6.922,2.4-9.889,2.638-16.4s-5.516-5.064-5.516-13.508,5.276-10.129,5.994-14.954-5.755-6.753-2.4-12.542,7.958-5.216,10.836-9.8,10.071-6.514,13.668-3.859,9.068-4.917,15.3.391,4.555,14.231,6,19.537,7.912,8.2,7.912,17.365-4.555,6.514-3.117,13.025,7.434,6.753,7.434,15.92c0,0-.24,9.165-9.831,7.476s-7.195,4.1-17.265-.723-7.674,5.306-14.627.723S1072.6,1914.662,1067.564,1906.7Z" transform="translate(-1064.687 -1834.096)" fill="#2d356b"/>
    </g>
    <g id="Group_8941" data-name="Group 8941" transform="translate(41.441 64.242)">
      <path id="Path_11086" data-name="Path 11086" d="M1220.627,2074.775c8.068-2.827,16.453,47.649,16.067,49.429,0,0-5.074,4.049-6.289,2.285C1227.259,2121.928,1217.025,2076.038,1220.627,2074.775Z" transform="translate(-1219.869 -2074.661)" fill="#cfd0d8"/>
      <path id="Path_11087" data-name="Path 11087" d="M1223.121,2283.356c-6.3-1.558,8.79-30.03,9.791-30.868,0,0,4.927-.282,4.943,1.169C1237.9,2257.411,1225.933,2284.052,1223.121,2283.356Z" transform="translate(-1221.13 -2204.984)" fill="#cfd0d8"/>
    </g>
    <g id="Group_8942" data-name="Group 8942" transform="translate(0 64.686)">
      <path id="Path_11088" data-name="Path 11088" d="M1080.766,2076.437c-8.068-2.827-16.453,47.65-16.067,49.428,0,0,5.074,4.049,6.289,2.286C1074.134,2123.59,1084.368,2077.7,1080.766,2076.437Z" transform="translate(-1064.687 -2076.323)" fill="#cfd0d8"/>
      <path id="Path_11089" data-name="Path 11089" d="M1079.839,2285.019c6.3-1.558-8.79-30.03-9.792-30.868,0,0-4.927-.282-4.943,1.169C1065.062,2259.073,1077.028,2285.715,1079.839,2285.019Z" transform="translate(-1064.993 -2206.646)" fill="#cfd0d8"/>
    </g>
    <g id="Group_8943" data-name="Group 8943" transform="translate(4.279 42.725)">
      <path id="Path_11090" data-name="Path 11090" d="M1080.712,2127.972s10.447,9.253,20.894,12.724l5.441-11.76,5.006,11.76s14.122-3.979,19.805-12.724c-11.508-16.687-16.054-30.61-4.12-47.979,0,0-4.8-31.059-22.215-31.831s-20.514,33.109-20.514,33.109C1096.328,2098.235,1100.034,2105.6,1080.712,2127.972Z" transform="translate(-1080.712 -2033.713)" fill="#ebebeb"/>
      <path id="Path_11091" data-name="Path 11091" d="M1146.66,2062.666a10.547,10.547,0,0,1,6.746,2.433c1.765-4.015,2.943-8.954,1.684-13.994-10.6-7.97-17.132.827-17.132.827s-1.389,5.49,2.349,12.872A10.523,10.523,0,0,1,1146.66,2062.666Z" transform="translate(-1122.486 -2033.431)" fill="#fff"/>
      <path id="Path_11092" data-name="Path 11092" d="M1149.592,2050.468s-1.763,8.844,6.252,18.441c0,0,6.814-9.34,4.889-19.125C1153.84,2043.2,1149.592,2050.468,1149.592,2050.468Z" transform="translate(-1131.077 -2032.888)" fill="#f7c371"/>
      <rect id="Rectangle_2885" data-name="Rectangle 2885" width="9.093" height="17.045" transform="translate(19.606)" fill="#f7c371"/>
      <path id="Path_11093" data-name="Path 11093" d="M1182.758,2203.388a1.278,1.278,0,1,0-1.279,1.279A1.278,1.278,0,0,0,1182.758,2203.388Z" transform="translate(-1153.633 -2146.558)" fill="#fff"/>
      <path id="Path_11094" data-name="Path 11094" d="M1182.758,2240.806a1.278,1.278,0,1,0-1.279,1.279A1.278,1.278,0,0,0,1182.758,2240.806Z" transform="translate(-1153.633 -2173.984)" fill="#fff"/>
      <path id="Path_11095" data-name="Path 11095" d="M1182.758,2315.645a1.278,1.278,0,1,0-1.279,1.278A1.278,1.278,0,0,0,1182.758,2315.645Z" transform="translate(-1153.633 -2228.838)" fill="#fff"/>
      <path id="Path_11096" data-name="Path 11096" d="M1182.758,2278.225a1.278,1.278,0,1,0-1.279,1.279A1.278,1.278,0,0,0,1182.758,2278.225Z" transform="translate(-1153.633 -2201.411)" fill="#fff"/>
    </g>
    <g id="Group_8949" data-name="Group 8949" transform="translate(12.874 13.488)">
      <g id="Group_8945" data-name="Group 8945" transform="translate(0 3.819)">
        <path id="Path_11097" data-name="Path 11097" d="M1132.755,1936.9c-5.305,0-17.25-14.5-12.316-32.32,1-3.6,4.913-5.674,12.316-5.674,8.142,0,11.867,2.2,12.461,5.118C1149.411,1924.648,1138.184,1936.9,1132.755,1936.9Z" transform="translate(-1117.568 -1898.906)" fill="#ffd8a3"/>
        <path id="Path_11098" data-name="Path 11098" d="M1190.015,1931.516a6.677,6.677,0,0,1-8.252-3.776C1184.081,1930.593,1185.818,1931.614,1190.015,1931.516Z" transform="translate(-1163.373 -1920.039)" fill="#2d356b"/>
        <path id="Path_11099" data-name="Path 11099" d="M1129.37,1933.039c1.88.106,5.9-.144,7.334-5.3C1134.985,1930.986,1133.485,1932.323,1129.37,1933.039Z" transform="translate(-1124.971 -1920.039)" fill="#2d356b"/>
        <path id="Path_11100" data-name="Path 11100" d="M1189.381,1955.159a1.471,1.471,0,1,0-1.346,1.893A1.664,1.664,0,0,0,1189.381,1955.159Z" transform="translate(-1166.867 -1938.841)" fill="#2d356b"/>
        <path id="Path_11101" data-name="Path 11101" d="M1187.347,1954.8c-1.376-1.2-3.215-2.319-5.964-.928A12.245,12.245,0,0,1,1187.347,1954.8Z" transform="translate(-1163.094 -1938.725)" fill="#2d356b"/>
        <path id="Path_11102" data-name="Path 11102" d="M1141,1955.159a1.47,1.47,0,1,1,1.346,1.893A1.664,1.664,0,0,1,1141,1955.159Z" transform="translate(-1133.493 -1938.841)" fill="#2d356b"/>
        <path id="Path_11103" data-name="Path 11103" d="M1134.5,1954.8c1.376-1.2,3.214-2.319,5.961-.928A12.237,12.237,0,0,0,1134.5,1954.8Z" transform="translate(-1128.731 -1938.725)" fill="#2d356b"/>
        <path id="Path_11104" data-name="Path 11104" d="M1163.675,1971.849a3.89,3.89,0,0,0,1.589.66,2.26,2.26,0,0,0,1.589-.725c.07-.438-1.089-5.314-1.5-5.358S1163.644,1971.214,1163.675,1971.849Z" transform="translate(-1150.114 -1948.394)" fill="#ffab00"/>
        <path id="Path_11105" data-name="Path 11105" d="M1167.235,1969.094c0,.1.472.255.639.255.284,0,.627-.146.639-.322.029-.426.254-5.269-.6-5.222C1166.971,1963.854,1167.224,1968.475,1167.235,1969.094Z" transform="translate(-1152.696 -1946.474)" fill="#ffd8a3"/>
        <path id="Path_11106" data-name="Path 11106" d="M1115.03,1967.394c-.25-1.17-.095-2.12-.957-1.935a1.946,1.946,0,0,0-1.11,2.451c.249,1.168,1.152,1.967,2.015,1.782S1115.28,1968.563,1115.03,1967.394Z" transform="translate(-1112.897 -1947.669)" fill="#f7c371"/>
        <path id="Path_11107" data-name="Path 11107" d="M1217.311,1967.419c.222-1.174.035-2.125.927-1.956a1.963,1.963,0,0,1,1.216,2.437c-.221,1.174-1.125,1.99-2.018,1.823S1217.09,1968.6,1217.311,1967.419Z" transform="translate(-1189.158 -1947.675)" fill="#f7c371"/>
        <path id="Path_11108" data-name="Path 11108" d="M1164.642,2006.691c-1.151-1.836-2.227-.857-2.84-.882-.687-.027-1.787-.954-2.839,1.249-.248.517,1.276-.75,2.57-.76S1164.936,2007.16,1164.642,2006.691Z" transform="translate(-1146.641 -1977.086)" fill="#f36973"/>
        <path id="Path_11109" data-name="Path 11109" d="M1165.953,2008.51c.018.429-.916.437-2.119.5s-2.215.155-2.235-.275.888-1.143,2.09-1.2S1165.934,2008.079,1165.953,2008.51Z" transform="translate(-1148.594 -1978.519)" fill="#f36973"/>
        <path id="Path_11110" data-name="Path 11110" d="M1150.522,2016.39a.338.338,0,1,0-.359.366A.365.365,0,0,0,1150.522,2016.39Z" transform="translate(-1139.985 -1984.714)" fill="#ffab00"/>
        <path id="Path_11111" data-name="Path 11111" d="M1188.784,2015.074a.338.338,0,1,0-.359.366A.365.365,0,0,0,1188.784,2015.074Z" transform="translate(-1168.029 -1983.75)" fill="#ffab00"/>
        <g id="Group_8944" data-name="Group 8944" transform="translate(10.194 29.006)">
          <path id="Path_11112" data-name="Path 11112" d="M1151.072,2010.064l.155.154a7.364,7.364,0,0,1,10.069-.328l.085-.166c-1.742-1.438-3.617-2.435-5.739-2.15A7.122,7.122,0,0,0,1151.072,2010.064Z" transform="translate(-1151.072 -2007.525)" fill="#ffab00"/>
        </g>
      </g>
      <g id="Group_8948" data-name="Group 8948" transform="translate(0.24)">
        <g id="Group_8947" data-name="Group 8947" transform="translate(11.747)">
          <path id="Path_11113" data-name="Path 11113" d="M1175.053,1897.469c-4.666-1.774-16.334-6.719-17.268-12.694,0,0,11.785-1.493,14.467,4.388C1175.642,1896.588,1175.053,1897.469,1175.053,1897.469Z" transform="translate(-1157.785 -1884.606)" fill="#2d356b"/>
          <g id="Group_8946" data-name="Group 8946" transform="translate(0.854 2.244)">
            <path id="Path_11114" data-name="Path 11114" d="M1170.5,1902.661c1.02,1.485,7.146,6.5,11.414,8.073S1170.5,1902.661,1170.5,1902.661Z" transform="translate(-1167.956 -1900.083)" fill="#2d356b"/>
            <path id="Path_11115" data-name="Path 11115" d="M1160.983,1893.007a22.294,22.294,0,0,0,4.7,7.34C1167.774,1902.259,1160.983,1893.007,1160.983,1893.007Z" transform="translate(-1160.983 -1893.007)" fill="#2d356b"/>
          </g>
        </g>
        <path id="Path_11116" data-name="Path 11116" d="M1113.829,1908.681c3.734-1.774,13.067-6.719,13.814-12.694,0,0-9.428-1.493-11.573,4.388C1113.359,1907.8,1113.829,1908.681,1113.829,1908.681Z" transform="translate(-1113.797 -1892.823)" fill="#2d356b"/>
      </g>
    </g>
  </g>
</svg>
