<svg id="Group_8635" data-name="Group 8635" xmlns="http://www.w3.org/2000/svg" width="356.138" height="196.93" viewBox="0 0 356.138 196.93">
  <g id="Group_8629" data-name="Group 8629" transform="translate(0 0)">
    <g id="Group_8620" data-name="Group 8620">
      <path id="Path_10439" data-name="Path 10439" d="M503.248,2373.959s16.06-32.975,5.637-49.2c0,0,89.752-22.677,88.885-50.437l33.05,47.228S596.37,2359.285,503.248,2373.959Z" transform="translate(-500.082 -2263.592)" fill="#cfd0d8"/>
      <path id="Path_10440" data-name="Path 10440" d="M494.528,2369.853s16.06-32.975,5.637-49.2c0,0,89.752-22.677,88.885-50.437l33.05,47.228S587.649,2355.178,494.528,2369.853Z" transform="translate(-494.528 -2260.976)" fill="#ebebeb"/>
      <path id="Path_10441" data-name="Path 10441" d="M503.417,2360.916s16.06-32.975,5.637-49.2c0,0,89.752-22.677,88.885-50.437l33.05,47.228S596.539,2346.241,503.417,2360.916Z" transform="translate(-500.189 -2255.284)" fill="#cfd0d8"/>
      <path id="Path_10442" data-name="Path 10442" d="M512.676,2350.7s16.061-32.975,5.637-49.2c0,0,89.752-22.677,88.885-50.437l33.05,47.228S605.8,2336.028,512.676,2350.7Z" transform="translate(-506.087 -2248.779)" fill="#9999a5"/>
      <path id="Path_10443" data-name="Path 10443" d="M512.175,2344.409s16.06-32.974,5.637-49.2c0,0,89.752-22.677,88.885-50.437L639.747,2292S605.3,2329.735,512.175,2344.409Z" transform="translate(-505.768 -2244.771)" fill="#fff4ba"/>
    </g>
    <g id="Group_8628" data-name="Group 8628" transform="translate(34.132 55.184)">
      <g id="Group_8627" data-name="Group 8627">
        <rect id="Rectangle_2820" data-name="Rectangle 2820" width="197.408" height="66.191" transform="translate(0 11.468)" fill="#fff" stroke="#cfd0d8" stroke-miterlimit="10" stroke-width="1"/>
        <rect id="Rectangle_2821" data-name="Rectangle 2821" width="172.603" height="8.943" transform="translate(24.572 28.013)" fill="#029390"/>
        <g id="Group_8621" data-name="Group 8621" transform="translate(24.658 28.013)">
          <line id="Line_18" data-name="Line 18" y2="49.646" transform="translate(24.572)" fill="#cfd0d8" stroke="#d0d2d3" stroke-miterlimit="10" stroke-width="0.25"/>
          <line id="Line_19" data-name="Line 19" y2="49.646" fill="#cfd0d8" stroke="#d0d2d3" stroke-miterlimit="10" stroke-width="0.25"/>
          <line id="Line_20" data-name="Line 20" y2="49.646" transform="translate(49.23)" fill="#cfd0d8" stroke="#d0d2d3" stroke-miterlimit="10" stroke-width="0.25"/>
          <line id="Line_21" data-name="Line 21" y2="49.646" transform="translate(73.887)" fill="#cfd0d8" stroke="#d0d2d3" stroke-miterlimit="10" stroke-width="0.25"/>
          <line id="Line_22" data-name="Line 22" y2="49.646" transform="translate(123.203)" fill="#cfd0d8" stroke="#d0d2d3" stroke-miterlimit="10" stroke-width="0.25"/>
          <line id="Line_23" data-name="Line 23" y2="49.646" transform="translate(147.86)" fill="#cfd0d8" stroke="#d0d2d3" stroke-miterlimit="10" stroke-width="0.25"/>
          <line id="Line_24" data-name="Line 24" y2="49.646" transform="translate(98.545)" fill="#cfd0d8" stroke="#d0d2d3" stroke-miterlimit="10" stroke-width="0.25"/>
        </g>
        <rect id="Rectangle_2822" data-name="Rectangle 2822" width="54.731" height="6.439" transform="translate(24.487 36.897)" fill="#03b4e9"/>
        <rect id="Rectangle_2823" data-name="Rectangle 2823" width="24.658" height="6.439" transform="translate(73.888 45.482)" fill="#c3e8e6"/>
        <rect id="Rectangle_2824" data-name="Rectangle 2824" width="98.472" height="6.439" transform="translate(73.888 54.067)" fill="#ffb2b0"/>
        <rect id="Rectangle_2825" data-name="Rectangle 2825" width="98.545" height="6.439" transform="translate(98.545 62.653)" fill="#fff4ba"/>
        <rect id="Rectangle_2826" data-name="Rectangle 2826" width="74.058" height="6.439" transform="translate(24.487 62.653)" fill="#ebebeb"/>
        <rect id="Rectangle_2827" data-name="Rectangle 2827" width="49.4" height="6.439" transform="translate(24.487 54.067)" fill="#ebebeb"/>
        <rect id="Rectangle_2828" data-name="Rectangle 2828" width="49.4" height="6.439" transform="translate(24.487 45.482)" fill="#ebebeb"/>
        <path id="Path_10444" data-name="Path 10444" d="M656.207,2473.906" transform="translate(-631.635 -2445.893)" fill="#cfd0d8" stroke="#d0d2d3" stroke-miterlimit="10" stroke-width="2"/>
        <text id="Jan" transform="translate(32.904 33.25)" fill="#c3e8e6" font-size="4" font-family="TrebuchetMS-Bold, Trebuchet MS" font-weight="700"><tspan x="0" y="0">Jan</tspan></text>
        <g id="Group_8622" data-name="Group 8622" transform="translate(0 36.897)">
          <rect id="Rectangle_2829" data-name="Rectangle 2829" width="24.658" height="6.439" fill="#cfd0d8"/>
          <text id="Task1" transform="translate(6.651 5.001)" fill="#fff" font-size="4" font-family="TrebuchetMS-Bold, Trebuchet MS" font-weight="700"><tspan x="0" y="0">Task1</tspan></text>
        </g>
        <g id="Group_8623" data-name="Group 8623" transform="translate(0 45.482)">
          <rect id="Rectangle_2830" data-name="Rectangle 2830" width="24.658" height="6.439" fill="#cfd0d8"/>
          <text id="Task2" transform="translate(6.651 5.001)" fill="#fff" font-size="4" font-family="TrebuchetMS-Bold, Trebuchet MS" font-weight="700"><tspan x="0" y="0">Task2</tspan></text>
        </g>
        <g id="Group_8624" data-name="Group 8624">
          <rect id="Rectangle_2831" data-name="Rectangle 2831" width="197.175" height="25.345" fill="#2d356b"/>
          <text id="PROJECT" transform="translate(6.69 19.795)" fill="#fff" font-size="19" font-family="TrebuchetMS-Bold, Trebuchet MS" font-weight="700"><tspan x="0" y="0">PROJECT</tspan></text>
        </g>
        <g id="Group_8625" data-name="Group 8625" transform="translate(0 54.067)">
          <rect id="Rectangle_2832" data-name="Rectangle 2832" width="24.658" height="6.439" fill="#cfd0d8"/>
          <text id="Task3" transform="translate(6.651 5.001)" fill="#fff" font-size="4" font-family="TrebuchetMS-Bold, Trebuchet MS" font-weight="700"><tspan x="0" y="0">Task3</tspan></text>
        </g>
        <g id="Group_8626" data-name="Group 8626" transform="translate(0 62.653)">
          <rect id="Rectangle_2833" data-name="Rectangle 2833" width="24.658" height="6.439" fill="#cfd0d8"/>
          <text id="Task4" transform="translate(6.651 5.001)" fill="#fff" font-size="4" font-family="TrebuchetMS-Bold, Trebuchet MS" font-weight="700"><tspan x="0" y="0">Task4</tspan></text>
        </g>
        <text id="Feb" transform="translate(57.928 33.25)" fill="#c3e8e6" font-size="4" font-family="TrebuchetMS-Bold, Trebuchet MS" font-weight="700"><tspan x="0" y="0">Feb</tspan></text>
        <text id="Mar" transform="translate(82.675 33.25)" fill="#c3e8e6" font-size="4" font-family="TrebuchetMS-Bold, Trebuchet MS" font-weight="700"><tspan x="0" y="0">Mar</tspan></text>
        <text id="Apr" transform="translate(106.669 33.25)" fill="#c3e8e6" font-size="4" font-family="TrebuchetMS-Bold, Trebuchet MS" font-weight="700"><tspan x="0" y="0">Apr</tspan></text>
        <text id="May" transform="translate(131.922 33.304)" fill="#c3e8e6" font-size="4" font-family="TrebuchetMS-Bold, Trebuchet MS" font-weight="700"><tspan x="0" y="0">May</tspan></text>
        <text id="Jun" transform="translate(156.668 33.304)" fill="#c3e8e6" font-size="4" font-family="TrebuchetMS-Bold, Trebuchet MS" font-weight="700"><tspan x="0" y="0">Jun</tspan></text>
        <text id="Jul" transform="translate(180.663 33.304)" fill="#c3e8e6" font-size="4" font-family="TrebuchetMS-Bold, Trebuchet MS" font-weight="700"><tspan x="0" y="0">Jul</tspan></text>
      </g>
    </g>
  </g>
  <g id="Group_8634" data-name="Group 8634" transform="translate(163.233 43.958)">
    <g id="Group_8632" data-name="Group 8632">
      <g id="Group_8631" data-name="Group 8631">
        <path id="Path_10445" data-name="Path 10445" d="M1130.307,2466.1a35.5,35.5,0,0,1,.991,11.542c-1.562,19.971-19.511,34.57-40.091,32.609a38.54,38.54,0,0,1-27.047-14.983c-8.467,17.434-25.122,26.959-37.7,21.341-11.841-5.289-15.94-22.154-10.073-39-18.191-2.03-31.893-15.614-30.721-30.608.835-10.676,8.989-19.223,20.2-22.738-5.881-4.748-9.252-10.742-8.767-16.943,1-12.786,18.012-21.607,38-19.7q2.188.208,4.3.574c4.34-14.253,19.892-23.855,37.536-22.174,19.986,1.9,35.083,17.564,33.722,34.977q-.066.85-.184,1.683a64.836,64.836,0,0,1,9.4.218c25.116,2.394,44.365,18.567,42.992,36.126C1161.775,2452.843,1148.254,2463.4,1130.307,2466.1Z" transform="translate(-970.527 -2365.837)" fill="#ebebeb" stroke="#cfd0d8" stroke-miterlimit="10" stroke-width="1"/>
        <g id="Group_8630" data-name="Group 8630" transform="translate(0 97.724)">
          <ellipse id="Ellipse_437" data-name="Ellipse 437" cx="11.746" cy="12.967" rx="11.746" ry="12.967" transform="translate(22.939)" fill="#ebebeb" stroke="#cfd0d8" stroke-miterlimit="10" stroke-width="1"/>
          <ellipse id="Ellipse_438" data-name="Ellipse 438" cx="6.961" cy="7.684" rx="6.961" ry="7.684" transform="translate(11.946 10.497)" fill="#ebebeb" stroke="#cfd0d8" stroke-miterlimit="10" stroke-width="1"/>
          <ellipse id="Ellipse_439" data-name="Ellipse 439" cx="5.954" cy="6.573" rx="5.954" ry="6.573" transform="translate(0 24.088)" fill="#ebebeb" stroke="#cfd0d8" stroke-miterlimit="10" stroke-width="1"/>
        </g>
      </g>
      <text id="really_tough" data-name="really
tough" transform="translate(58.215 104.192) rotate(-20)" fill="#343f76" font-size="20" font-family="TrebuchetMS-Bold, Trebuchet MS" font-weight="700"><tspan x="0" y="0">really</tspan><tspan x="0" y="24">tough</tspan></text>
    </g>
    <g id="Group_8633" data-name="Group 8633" transform="translate(80.401 7.28)">
      <path id="Path_10446" data-name="Path 10446" d="M1171.406,2433.573a5.891,5.891,0,0,1-5.878-5.878v-34.989a5.892,5.892,0,0,1,5.878-5.878h18.513a5.892,5.892,0,0,1,5.878,5.878V2427.7a5.891,5.891,0,0,1-5.878,5.878Zm20.636-3.754a3,3,0,0,0,.885-2.123v-34.989a3.021,3.021,0,0,0-3.008-3.008h-18.513a3.021,3.021,0,0,0-3.008,3.008V2427.7a3.021,3.021,0,0,0,3.008,3.008h18.513A3,3,0,0,0,1192.042,2429.819Z" transform="translate(-1165.528 -2386.486)" fill="#9898a3"/>
      <path id="Path_10447" data-name="Path 10447" d="M1241.078,2429.9a1.429,1.429,0,1,1,1.233-2.578c.057.027,19.7,9.133,16.821,37.251,3.976.726,16.706,1.014,11.188-26.948h0a1.436,1.436,0,0,1,1.13-1.686,1.421,1.421,0,0,1,.582.005c2.363.3,39.356,4.79,27.516-13.37l0,0a1.435,1.435,0,0,1,.143-1.752c.54-.7,4.645-6.405-1.884-9.582h-.006a1.435,1.435,0,0,1-.715-1.8c.194-.583,2.342-7.391-2.7-9.552l0,0a1.435,1.435,0,0,1-.864-1.45c-.008-1.183-.321-10.687-8.36-9.593v0a1.474,1.474,0,0,1-.219.013h-34.9l-7.418,4.08a1.432,1.432,0,1,1-1.379-2.511l7.667-4.217a1.431,1.431,0,0,1,.766-.222h35.238c9.906-1.254,11.254,8.573,11.433,11.672,5.172,2.842,4.375,8.98,3.767,11.563,6.972,4.1,3.82,10.355,2.352,12.608,12.282,20.124-20.487,18-28.972,17.143,6.065,34.312-14.815,28.517-16.27,28.074a1.435,1.435,0,0,1-1.078-1.569h0C1259.495,2438.427,1241.131,2429.92,1241.078,2429.9Z" transform="translate(-1213.129 -2385.886)" fill="#9898a3"/>
      <path id="Path_10448" data-name="Path 10448" d="M1264.535,2469.611c2.478-24.233-11.765-34.344-15.786-36.693a5.864,5.864,0,0,0,.052-.779V2397.56l6.638-3.651h34.9a1.476,1.476,0,0,0,.219-.013v0c8.039-1.094,8.352,8.411,8.36,9.593a1.435,1.435,0,0,0,.864,1.45l0,0c5.042,2.161,2.894,8.969,2.7,9.552a1.435,1.435,0,0,0,.715,1.8h.006c6.529,3.176,2.425,8.879,1.884,9.582a1.435,1.435,0,0,0-.143,1.752l0,0c11.84,18.16-25.153,13.673-27.516,13.37a1.435,1.435,0,0,0-1.712,1.68h0C1281.24,2470.625,1268.511,2470.337,1264.535,2469.611Z" transform="translate(-1218.532 -2390.93)" fill="#fff" fill-rule="evenodd"/>
      <path id="Path_10449" data-name="Path 10449" d="M1197.96,2397.74v34.989a3.021,3.021,0,0,1-3.008,3.008h-18.513a3.021,3.021,0,0,1-3.008-3.008V2397.74a3.021,3.021,0,0,1,3.008-3.008h18.513a3.024,3.024,0,0,1,2.975,2.566,1.449,1.449,0,0,0,.031.322C1197.96,2397.66,1197.96,2397.7,1197.96,2397.74Z" transform="translate(-1170.562 -2391.52)" fill="#fcf3bf" fill-rule="evenodd"/>
      <path id="Path_10450" data-name="Path 10450" d="M1177.744,2432.729V2397.74a5.833,5.833,0,0,1,.832-3.008h-2.137a3.021,3.021,0,0,0-3.008,3.008v34.989a3.021,3.021,0,0,0,3.008,3.008h2.137A5.833,5.833,0,0,1,1177.744,2432.729Z" transform="translate(-1170.562 -2391.52)" fill="#efc47d" fill-rule="evenodd"/>
      <path id="Path_10451" data-name="Path 10451" d="M1253.113,2435.064v-34.989c0-.041,0-.081,0-.121a1.437,1.437,0,0,1-.031-.322,2.992,2.992,0,0,0-.483-1.235l-3.8,2.088v34.579a5.864,5.864,0,0,1-.052.779,26.6,26.6,0,0,1,2.683,1.81,42.249,42.249,0,0,1,13.1,34.884,11.812,11.812,0,0,0,4.3.01C1271.583,2446.993,1253.113,2436.832,1253.113,2435.064Z" transform="translate(-1218.532 -2393.854)" fill="#cecfd6" fill-rule="evenodd"/>
      <path id="Path_10452" data-name="Path 10452" d="M1266.288,2394.27a5.891,5.891,0,0,1,.286.523l1.273-.7h-1.238Z" transform="translate(-1229.703 -2391.113)" fill="#eaeaea" fill-rule="evenodd"/>
    </g>
  </g>
</svg>
