<svg xmlns="http://www.w3.org/2000/svg" width="541" height="345.872" viewBox="0 0 541 345.872">
  <g id="Group_7760" data-name="Group 7760" transform="translate(-262.101 -3171.202)">
    <g id="Group_7705" data-name="Group 7705" transform="translate(262.101 3171.202)">
      <g id="Group_7704" data-name="Group 7704" transform="translate(0)">
        <g id="Group_7703" data-name="Group 7703">
          <g id="Group_7702" data-name="Group 7702">
            <g id="Group_7701" data-name="Group 7701">
              <g id="Group_7618" data-name="Group 7618">
                <g id="Group_7592" data-name="Group 7592" transform="translate(0.462)">
                  <g id="Group_7588" data-name="Group 7588" transform="translate(0.106)">
                    <path id="Path_9399" data-name="Path 9399" d="M803.668,3184.445h.64v-12.134H263.875V3425.9H803.662v-25.472h.005Z" transform="translate(-263.875 -3171.957)" fill="#fff"/>
                    <rect id="Rectangle_2571" data-name="Rectangle 2571" width="539.865" height="0.709" transform="translate(0 253.59)" fill="#a0bacb"/>
                    <rect id="Rectangle_2572" data-name="Rectangle 2572" width="540.432" height="0.709" fill="#7b88ac"/>
                  </g>
                  <g id="Group_7589" data-name="Group 7589" transform="translate(0 51.816)">
                    <path id="Path_9400" data-name="Path 9400" d="M341.7,3334.56v-.186h-6.777v.186h-70.05v154.606H408.733V3334.56Zm61.074,4.964v34H341.7v-34Zm-67.851,39.863v64.951H270.832v-64.951Zm6.777,64.951v-64.951h61.074v64.951Zm-6.777-104.814v34H270.832v-34Zm-64.095,110.681h64.095v34H270.832Zm70.872,34v-34h61.074v34Z" transform="translate(-264.45 -3334.019)" fill="#ebebeb"/>
                    <path id="Path_9401" data-name="Path 9401" d="M408.253,3488.767H263.545V3333.451H333.6v-.186h7.628v.186h67.03Zm-143.857-.709H407.4v-153.9h-67.03v-.186h-5.926v.186H264.4Zm137.9-4.255H340.372V3449.1H402.3Zm-61.074-.709h60.223v-33.288H341.223Zm-6.777.709H269.5V3449.1h64.945Zm-64.095-.709H333.6v-33.288H270.352ZM402.3,3443.939H340.372v-65.66H402.3Zm-61.074-.709h60.223v-64.242H341.223Zm-6.777.709H269.5v-65.66h64.945Zm-64.095-.709H333.6v-64.242H270.352ZM402.3,3373.121H340.372v-34.706H402.3Zm-61.074-.709h60.223v-33.288H341.223Zm-6.777.709H269.5v-34.706h64.945Zm-64.095-.709H333.6v-33.288H270.352Z" transform="translate(-263.545 -3333.265)" fill="#ebebeb"/>
                  </g>
                  <g id="Group_7590" data-name="Group 7590" transform="translate(213.84 50.902)">
                    <path id="Path_9402" data-name="Path 9402" d="M899.562,3331.7v-.186h-6.777v.186h-70.05v154.607H966.592V3331.7Zm61.074,4.964v34H899.562v-34Zm-67.851,39.864v64.951H828.691v-64.951Zm6.777,64.951v-64.951h61.074v64.951Zm-6.777-104.815v34H828.691v-34Zm-64.095,110.681h64.095v34H828.691Zm70.871,34v-34h61.074v34Z" transform="translate(-822.309 -3331.158)" fill="#ebebeb"/>
                    <path id="Path_9403" data-name="Path 9403" d="M966.112,3485.906H821.4V3330.59h70.051v-.186h7.628v.186h67.03Zm-143.858-.709H965.261V3331.3h-67.03v-.186h-5.926v.186H822.255Zm137.9-4.255H898.231v-34.706h61.925Zm-61.074-.709h60.223v-33.288H899.082Zm-6.777.709H827.36v-34.706h64.946Zm-64.095-.709h63.244v-33.288H828.211Zm131.946-39.155H898.231v-65.66h61.925Zm-61.074-.709h60.223v-64.241H899.082Zm-6.777.709H827.36v-65.66h64.946Zm-64.095-.709h63.244v-64.241H828.211Zm131.946-70.108H898.231v-34.707h61.925Zm-61.074-.709h60.223v-33.288H899.082Zm-6.777.709H827.36v-34.707h64.946Zm-64.095-.709h63.244v-33.288H828.211Z" transform="translate(-821.404 -3330.404)" fill="#ebebeb"/>
                  </g>
                  <g id="Group_7591" data-name="Group 7591" transform="translate(426.421 51.816)">
                    <path id="Path_9404" data-name="Path 9404" d="M1506.311,3484.2h-36.3v-34h36.3v-5.866h-36.3v-64.951h36.3v-5.867h-36.3v-34h36.3v-4.964h-36.3v-.186h-6.776v.186h-70.051v154.606h113.13Zm-43.079,0h-64.095v-34h64.095Zm0-39.864h-64.095v-64.951h64.095Zm0-70.818h-64.095v-34h64.095Z" transform="translate(-1392.757 -3334.02)" fill="#ebebeb"/>
                    <path id="Path_9405" data-name="Path 9405" d="M1632.139,3730.248h36.728v-.709h-35.877v-33.288h35.877v-.709h-36.728Z" transform="translate(-1555.312 -3579.711)" fill="#ebebeb"/>
                    <path id="Path_9406" data-name="Path 9406" d="M1632.139,3539.711h36.728V3539h-35.877v-64.241h35.877v-.709h-36.728Z" transform="translate(-1555.312 -3429.038)" fill="#ebebeb"/>
                    <path id="Path_9407" data-name="Path 9407" d="M1632.139,3384.079h36.728v-.709h-35.877v-33.288h35.877v-.709h-36.728Z" transform="translate(-1555.312 -3344.222)" fill="#ebebeb"/>
                    <path id="Path_9408" data-name="Path 9408" d="M1475.425,3349.373H1410.48v34.706h64.945Zm-.851,34h-63.243v-33.288h63.243Z" transform="translate(-1404.524 -3344.223)" fill="#ebebeb"/>
                    <path id="Path_9409" data-name="Path 9409" d="M1505.407,3488.057H1392.7v-153.9h70.05v-.186h5.926v.186h36.728v-.709H1469.53v-.186H1461.9v.186h-70.05v155.316h113.555Z" transform="translate(-1391.852 -3333.265)" fill="#ebebeb"/>
                    <path id="Path_9410" data-name="Path 9410" d="M1410.48,3730.248h64.945v-34.707H1410.48Zm.851-34h63.243v33.289h-63.243Z" transform="translate(-1404.524 -3579.711)" fill="#ebebeb"/>
                    <path id="Path_9411" data-name="Path 9411" d="M1475.425,3474.052H1410.48v65.66h64.945Zm-.851,64.951h-63.243v-64.242h63.243Z" transform="translate(-1404.524 -3429.038)" fill="#ebebeb"/>
                  </g>
                </g>
                <g id="Group_7615" data-name="Group 7615" transform="translate(377.104 115.522)">
                  <ellipse id="Ellipse_369" data-name="Ellipse 369" cx="14.173" cy="11.813" rx="14.173" ry="11.813" fill="#fff4ba"/>
                  <g id="Group_7593" data-name="Group 7593" transform="translate(0.778 0.648)">
                    <path id="Path_9412" data-name="Path 9412" d="M1306.294,3556.868c-7.386,0-13.4-5.009-13.4-11.165s6.009-11.164,13.4-11.164,13.395,5.008,13.395,11.164S1313.68,3556.868,1306.294,3556.868Zm0-21.9c-7.1,0-12.877,4.815-12.877,10.732s5.777,10.733,12.877,10.733,12.876-4.815,12.876-10.733S1313.394,3534.971,1306.294,3534.971Z" transform="translate(-1292.899 -3534.539)" fill="#fff4ba"/>
                  </g>
                  <g id="Group_7594" data-name="Group 7594" transform="translate(13.913 3.601)">
                    <path id="Path_9413" data-name="Path 9413" d="M1341.847,3552.2h-7.6a.241.241,0,0,1-.259-.216v-8a.264.264,0,0,1,.519,0v7.779h7.346a.22.22,0,1,1,0,.432Z" transform="translate(-1333.983 -3543.775)" fill="#fff4ba"/>
                  </g>
                  <g id="Group_7597" data-name="Group 7597" transform="translate(13.913 1.333)">
                    <g id="Group_7595" data-name="Group 7595">
                      <path id="Path_9414" data-name="Path 9414" d="M1334.242,3538.245a.24.24,0,0,1-.259-.216V3536.9a.264.264,0,0,1,.519,0v1.134A.24.24,0,0,1,1334.242,3538.245Z" transform="translate(-1333.983 -3536.679)" fill="#fff4ba"/>
                    </g>
                    <g id="Group_7596" data-name="Group 7596" transform="translate(0 19.178)">
                      <path id="Path_9415" data-name="Path 9415" d="M1334.242,3598.227a.241.241,0,0,1-.259-.216v-1.134a.264.264,0,0,1,.519,0v1.134A.241.241,0,0,1,1334.242,3598.227Z" transform="translate(-1333.983 -3596.66)" fill="#fff4ba"/>
                    </g>
                  </g>
                  <g id="Group_7600" data-name="Group 7600" transform="translate(1.728 11.489)">
                    <g id="Group_7598" data-name="Group 7598" transform="translate(23.009)">
                      <path id="Path_9416" data-name="Path 9416" d="M1369.456,3568.876H1368.1a.22.22,0,1,1,0-.432h1.361a.22.22,0,1,1,0,.432Z" transform="translate(-1367.836 -3568.444)" fill="#fff4ba"/>
                    </g>
                    <g id="Group_7599" data-name="Group 7599">
                      <path id="Path_9417" data-name="Path 9417" d="M1297.493,3568.876h-1.361a.22.22,0,1,1,0-.432h1.361a.22.22,0,1,1,0,.432Z" transform="translate(-1295.872 -3568.444)" fill="#fff4ba"/>
                    </g>
                  </g>
                  <g id="Group_7607" data-name="Group 7607" transform="translate(3.306 2.917)">
                    <g id="Group_7603" data-name="Group 7603" transform="translate(0 3.574)">
                      <g id="Group_7601" data-name="Group 7601" transform="translate(20.03)">
                        <path id="Path_9418" data-name="Path 9418" d="M1363.712,3553.8a.272.272,0,0,1-.226-.11.2.2,0,0,1,.1-.294l1.185-.559a.289.289,0,0,1,.353.082.2.2,0,0,1-.1.294l-1.185.558A.293.293,0,0,1,1363.712,3553.8Z" transform="translate(-1363.452 -3552.811)" fill="#fff4ba"/>
                      </g>
                      <g id="Group_7602" data-name="Group 7602" transform="translate(0 9.438)">
                        <path id="Path_9419" data-name="Path 9419" d="M1301.067,3583.321a.272.272,0,0,1-.226-.11.2.2,0,0,1,.1-.294l1.185-.558a.288.288,0,0,1,.353.082.2.2,0,0,1-.1.294l-1.185.558A.3.3,0,0,1,1301.067,3583.321Z" transform="translate(-1300.807 -3582.33)" fill="#fff4ba"/>
                      </g>
                    </g>
                    <g id="Group_7606" data-name="Group 7606" transform="translate(4.072)">
                      <g id="Group_7604" data-name="Group 7604" transform="translate(12.34)">
                        <path id="Path_9420" data-name="Path 9420" d="M1352.4,3543.023a.3.3,0,0,1-.139-.034.2.2,0,0,1-.08-.3l.73-.957a.291.291,0,0,1,.358-.067.2.2,0,0,1,.08.3l-.73.957A.275.275,0,0,1,1352.4,3543.023Z" transform="translate(-1352.139 -3541.633)" fill="#fff4ba"/>
                      </g>
                      <g id="Group_7605" data-name="Group 7605" transform="translate(0 16.187)">
                        <path id="Path_9421" data-name="Path 9421" d="M1313.8,3593.649a.3.3,0,0,1-.139-.034.2.2,0,0,1-.08-.3l.73-.957a.292.292,0,0,1,.358-.066.2.2,0,0,1,.08.3l-.73.957A.276.276,0,0,1,1313.8,3593.649Z" transform="translate(-1313.544 -3592.26)" fill="#fff4ba"/>
                      </g>
                    </g>
                  </g>
                  <g id="Group_7614" data-name="Group 7614" transform="translate(3.629 2.648)">
                    <g id="Group_7610" data-name="Group 7610" transform="translate(4.287)">
                      <g id="Group_7608" data-name="Group 7608" transform="translate(11.324 16.694)">
                        <path id="Path_9422" data-name="Path 9422" d="M1351.573,3594.426a.271.271,0,0,1-.226-.11l-.67-.988a.2.2,0,0,1,.1-.294.287.287,0,0,1,.353.081l.67.987a.2.2,0,0,1-.1.295A.294.294,0,0,1,1351.573,3594.426Z" transform="translate(-1350.644 -3593.007)" fill="#fff4ba"/>
                      </g>
                      <g id="Group_7609" data-name="Group 7609">
                        <path id="Path_9423" data-name="Path 9423" d="M1316.156,3542.212a.273.273,0,0,1-.226-.11l-.67-.988a.2.2,0,0,1,.1-.294.29.29,0,0,1,.353.082l.67.988a.2.2,0,0,1-.1.295A.305.305,0,0,1,1316.156,3542.212Z" transform="translate(-1315.226 -3540.793)" fill="#fff4ba"/>
                      </g>
                    </g>
                    <g id="Group_7613" data-name="Group 7613" transform="translate(0 3.394)">
                      <g id="Group_7611" data-name="Group 7611" transform="translate(19.42 10.285)">
                        <path id="Path_9424" data-name="Path 9424" d="M1363.963,3584.618a.3.3,0,0,1-.139-.033l-1.149-.609a.2.2,0,0,1-.08-.3.291.291,0,0,1,.358-.067l1.149.609a.2.2,0,0,1,.08.3A.276.276,0,0,1,1363.963,3584.618Z" transform="translate(-1362.555 -3583.577)" fill="#fff4ba"/>
                      </g>
                      <g id="Group_7612" data-name="Group 7612">
                        <path id="Path_9425" data-name="Path 9425" d="M1303.225,3552.448a.3.3,0,0,1-.139-.033l-1.149-.608a.2.2,0,0,1-.08-.3.293.293,0,0,1,.358-.066l1.148.608a.2.2,0,0,1,.08.3A.275.275,0,0,1,1303.225,3552.448Z" transform="translate(-1301.818 -3551.408)" fill="#fff4ba"/>
                      </g>
                    </g>
                  </g>
                </g>
                <g id="Group_7616" data-name="Group 7616" transform="translate(0 223.415)">
                  <path id="Path_9426" data-name="Path 9426" d="M802.534,3870.9H262.747v87.007H262.1v35.148H802.528V3874.61h.005Z" transform="translate(-262.101 -3870.602)" fill="#f9f9f9"/>
                  <rect id="Rectangle_2573" data-name="Rectangle 2573" width="538.877" height="0.508" transform="translate(1.696 121.756)" fill="#f9f9f9"/>
                  <rect id="Rectangle_2574" data-name="Rectangle 2574" width="539.87" height="0.508" transform="translate(0.567)" fill="#f9f9f9"/>
                </g>
                <g id="Group_7617" data-name="Group 7617" transform="translate(28.788 4.471)">
                  <path id="Path_9427" data-name="Path 9427" d="M1274.447,3261.054v-75.869h-1.818v75.869c-5.667.386-10.124,4.335-10.124,9.157,0,5.079,4.94,9.2,11.033,9.2s11.033-4.117,11.033-9.2C1284.571,3265.389,1280.114,3261.44,1274.447,3261.054Z" transform="translate(-920.55 -3185.185)" fill="#ffb2b0"/>
                  <path id="Path_9428" data-name="Path 9428" d="M364.081,3279.8v-75.869h-1.818V3279.8c-5.667.386-10.124,4.335-10.124,9.158,0,5.079,4.94,9.2,11.033,9.2s11.033-4.117,11.033-9.2C374.2,3284.131,369.748,3280.183,364.081,3279.8Z" transform="translate(-352.139 -3197.935)" fill="#ffb2b0"/>
                  <path id="Path_9429" data-name="Path 9429" d="M684.707,3277.933v-55.158h-1.322v55.158c-4.12.281-7.36,3.152-7.36,6.658,0,3.693,3.591,6.686,8.021,6.686s8.021-2.993,8.021-6.686C692.068,3281.085,688.827,3278.214,684.707,3277.933Z" transform="translate(-554.651 -3210.756)" fill="#ffb2b0"/>
                  <path id="Path_9430" data-name="Path 9430" d="M1554.52,3277.933v-55.158H1553.2v55.158c-4.12.281-7.36,3.152-7.36,6.658,0,3.693,3.591,6.686,8.021,6.686s8.021-2.993,8.021-6.686C1561.88,3281.085,1558.64,3278.214,1554.52,3277.933Z" transform="translate(-1098.509 -3210.756)" fill="#ffb2b0"/>
                </g>
              </g>
              <g id="Group_7655" data-name="Group 7655" transform="translate(16.052 109.676)">
                <g id="Group_7627" data-name="Group 7627" transform="translate(0 21.278)">
                  <g id="Group_7619" data-name="Group 7619">
                    <rect id="Rectangle_2575" data-name="Rectangle 2575" width="46.686" height="1.668" transform="translate(0.426 0.355)" fill="#ebebeb"/>
                    <path id="Path_9431" data-name="Path 9431" d="M359.844,3583.155H312.307v-2.377h47.537Zm-46.686-.709h45.835v-.958H313.158Z" transform="translate(-312.307 -3580.778)" fill="#ebebeb"/>
                  </g>
                  <g id="Group_7620" data-name="Group 7620" transform="translate(0 25.154)">
                    <rect id="Rectangle_2576" data-name="Rectangle 2576" width="46.686" height="1.668" transform="translate(0.426 0.354)" fill="#ebebeb"/>
                    <path id="Path_9432" data-name="Path 9432" d="M359.844,3661.828H312.307v-2.377h47.537Zm-46.686-.709h45.835v-.958H313.158Z" transform="translate(-312.307 -3659.451)" fill="#ebebeb"/>
                  </g>
                  <g id="Group_7621" data-name="Group 7621" transform="translate(0 50.309)">
                    <rect id="Rectangle_2577" data-name="Rectangle 2577" width="46.686" height="1.668" transform="translate(0.426 0.354)" fill="#ebebeb"/>
                    <path id="Path_9433" data-name="Path 9433" d="M359.844,3740.5H312.307v-2.377h47.537Zm-46.686-.709h45.835v-.959H313.158Z" transform="translate(-312.307 -3738.125)" fill="#ebebeb"/>
                  </g>
                  <g id="Group_7626" data-name="Group 7626" transform="translate(0 0.556)">
                    <g id="Group_7622" data-name="Group 7622" transform="translate(0 75.463)">
                      <rect id="Rectangle_2578" data-name="Rectangle 2578" width="46.686" height="1.668" transform="translate(0.426 0.355)" fill="#ebebeb"/>
                      <path id="Path_9434" data-name="Path 9434" d="M359.844,3820.913H312.307v-2.377h47.537Zm-46.686-.709h45.835v-.959H313.158Z" transform="translate(-312.307 -3818.536)" fill="#ebebeb"/>
                    </g>
                    <g id="Group_7623" data-name="Group 7623" transform="translate(0 99.538)">
                      <rect id="Rectangle_2579" data-name="Rectangle 2579" width="46.686" height="1.668" transform="translate(0.426 0.354)" fill="#ebebeb"/>
                      <path id="Path_9435" data-name="Path 9435" d="M359.844,3896.212H312.307v-2.377h47.537Zm-46.686-.709h45.835v-.958H313.158Z" transform="translate(-312.307 -3893.835)" fill="#ebebeb"/>
                    </g>
                    <g id="Group_7624" data-name="Group 7624">
                      <rect id="Rectangle_2580" data-name="Rectangle 2580" width="2.501" height="121.006" transform="translate(0.426 0.355)" fill="#ebebeb"/>
                      <path id="Path_9436" data-name="Path 9436" d="M315.659,3704.232h-3.352V3582.517h3.352Zm-2.5-.709h1.65v-120.3h-1.65Z" transform="translate(-312.307 -3582.517)" fill="#ebebeb"/>
                    </g>
                    <g id="Group_7625" data-name="Group 7625" transform="translate(44.185)">
                      <rect id="Rectangle_2581" data-name="Rectangle 2581" width="2.501" height="121.006" transform="translate(0.425 0.355)" fill="#ebebeb"/>
                      <path id="Path_9437" data-name="Path 9437" d="M453.853,3704.232H450.5V3582.517h3.352Zm-2.5-.709H453v-120.3h-1.65Z" transform="translate(-450.501 -3582.517)" fill="#ebebeb"/>
                    </g>
                  </g>
                </g>
                <g id="Group_7638" data-name="Group 7638" transform="translate(8.368 27.207)">
                  <g id="Group_7629" data-name="Group 7629">
                    <g id="Group_7628" data-name="Group 7628">
                      <rect id="Rectangle_2582" data-name="Rectangle 2582" width="4.891" height="19.225" transform="translate(0.425 0.355)" fill="#ebebeb"/>
                      <path id="Path_9438" data-name="Path 9438" d="M344.222,3619.257H338.48v-19.934h5.742Zm-4.891-.709h4.04v-18.516h-4.04Z" transform="translate(-338.48 -3599.323)" fill="#ebebeb"/>
                    </g>
                    <path id="Path_9439" data-name="Path 9439" d="M345.641,3611.338a1.639,1.639,0,1,1-1.612-1.344A1.5,1.5,0,0,1,345.641,3611.338Z" transform="translate(-341.159 -3606.583)" fill="#ebebeb"/>
                  </g>
                  <g id="Group_7631" data-name="Group 7631" transform="translate(5.749)">
                    <g id="Group_7630" data-name="Group 7630">
                      <rect id="Rectangle_2583" data-name="Rectangle 2583" width="4.891" height="19.225" transform="translate(0.425 0.355)" fill="#ebebeb"/>
                      <path id="Path_9440" data-name="Path 9440" d="M362.2,3619.257H356.46v-19.934H362.2Zm-4.891-.709h4.04v-18.516h-4.04Z" transform="translate(-356.46 -3599.323)" fill="#ebebeb"/>
                    </g>
                    <path id="Path_9441" data-name="Path 9441" d="M363.621,3611.338a1.639,1.639,0,1,1-1.612-1.344A1.5,1.5,0,0,1,363.621,3611.338Z" transform="translate(-359.139 -3606.583)" fill="#ebebeb"/>
                  </g>
                  <g id="Group_7633" data-name="Group 7633" transform="translate(11.498)">
                    <g id="Group_7632" data-name="Group 7632">
                      <rect id="Rectangle_2584" data-name="Rectangle 2584" width="4.891" height="19.225" transform="translate(0.426 0.355)" fill="#ebebeb"/>
                      <path id="Path_9442" data-name="Path 9442" d="M380.182,3619.257H374.44v-19.934h5.742Zm-4.891-.709h4.04v-18.516h-4.04Z" transform="translate(-374.44 -3599.323)" fill="#ebebeb"/>
                    </g>
                    <path id="Path_9443" data-name="Path 9443" d="M381.6,3611.338a1.639,1.639,0,1,1-1.612-1.344A1.5,1.5,0,0,1,381.6,3611.338Z" transform="translate(-377.119 -3606.583)" fill="#ebebeb"/>
                  </g>
                  <g id="Group_7635" data-name="Group 7635" transform="translate(17.246)">
                    <g id="Group_7634" data-name="Group 7634">
                      <rect id="Rectangle_2585" data-name="Rectangle 2585" width="4.891" height="19.225" transform="translate(0.426 0.355)" fill="#ebebeb"/>
                      <path id="Path_9444" data-name="Path 9444" d="M398.162,3619.257H392.42v-19.934h5.742Zm-4.891-.709h4.04v-18.516h-4.04Z" transform="translate(-392.42 -3599.323)" fill="#ebebeb"/>
                    </g>
                    <path id="Path_9445" data-name="Path 9445" d="M399.581,3611.338a1.639,1.639,0,1,1-1.612-1.344A1.5,1.5,0,0,1,399.581,3611.338Z" transform="translate(-395.099 -3606.583)" fill="#ebebeb"/>
                  </g>
                  <g id="Group_7637" data-name="Group 7637" transform="translate(22.995)">
                    <g id="Group_7636" data-name="Group 7636">
                      <rect id="Rectangle_2586" data-name="Rectangle 2586" width="4.891" height="19.225" transform="translate(0.426 0.355)" fill="#ebebeb"/>
                      <path id="Path_9446" data-name="Path 9446" d="M416.142,3619.257H410.4v-19.934h5.742Zm-4.891-.709h4.04v-18.516h-4.04Z" transform="translate(-410.4 -3599.323)" fill="#ebebeb"/>
                    </g>
                    <path id="Path_9447" data-name="Path 9447" d="M417.562,3611.338a1.639,1.639,0,1,1-1.612-1.344A1.5,1.5,0,0,1,417.562,3611.338Z" transform="translate(-413.079 -3606.583)" fill="#ebebeb"/>
                  </g>
                </g>
                <path id="Path_9448" data-name="Path 9448" d="M339.547,3773.947a7.971,7.971,0,0,1,.761-3.532h-5.862a7.971,7.971,0,0,1,.761,3.532c0,2.137-2.569,6.083-2.569,8.714s2.723,3.494,4.739,3.494,4.739-.863,4.739-3.494S339.547,3776.084,339.547,3773.947Z" transform="translate(-326.138 -3688.504)" fill="#ebebeb"/>
                <g id="Group_7640" data-name="Group 7640" transform="translate(24.883 54.69)">
                  <g id="Group_7639" data-name="Group 7639" transform="translate(0.726)">
                    <path id="Path_9449" data-name="Path 9449" d="M412.057,3694.829c1.581-3.092-1.933-3.035-1.666-3.847.5-1.524,2.4.132,3.166-.635s-1.9-3.158-.5-3.987.906,1.975,2.113,1.775.488-3.16,1.91-2.83c1.07.249-.2,2.1-.084,2.964s2.322-.4,2.361.839-2.629.694-2.943,1.633,2.869,1.133,1.752,1.926-3.22-.157-3.774.669S411.385,3696.142,412.057,3694.829Z" transform="translate(-404.63 -3685.279)" fill="#ebebeb"/>
                    <path id="Path_9450" data-name="Path 9450" d="M398.857,3702.711c-1.486-3.125-3.936-1.024-4.431-1.758-.929-1.378,1.815-1.312,1.714-2.308s-4.014-1.133-3.721-2.54,2.311.872,3,.023-2.32-2.532-1.03-3.131c.97-.45,1.629,1.611,2.442,2.156s1.317-1.643,2.386-.788-1.284,2.035-.715,2.886,2.995-.877,2.871.342-2.421,1.777-2.118,2.688S399.488,3704.038,398.857,3702.711Z" transform="translate(-392.404 -3690.486)" fill="#ebebeb"/>
                  </g>
                  <path id="Path_9451" data-name="Path 9451" d="M401.1,3709.966h-8.115s-2.848,2.038-2.848,4.448,1.775,4.91,6.906,4.91,6.906-2.5,6.906-4.91S401.1,3709.966,401.1,3709.966Z" transform="translate(-390.133 -3702.073)" fill="#ebebeb"/>
                </g>
                <g id="Group_7641" data-name="Group 7641" transform="translate(26.874 86.672)">
                  <rect id="Rectangle_2587" data-name="Rectangle 2587" width="7.489" height="8.477" transform="translate(2.317 2.502)" fill="#ebebeb"/>
                  <ellipse id="Ellipse_370" data-name="Ellipse 370" cx="5.91" cy="2.502" rx="5.91" ry="2.502" fill="#ebebeb"/>
                </g>
                <g id="Group_7642" data-name="Group 7642" transform="translate(21.658 13.492)">
                  <rect id="Rectangle_2588" data-name="Rectangle 2588" width="5.553" height="6.285" transform="translate(1.718 1.855)" fill="#ebebeb"/>
                  <path id="Path_9452" data-name="Path 9452" d="M388.809,3558.282c0,1.024-1.962,1.854-4.382,1.854s-4.382-.83-4.382-1.854,1.962-1.855,4.382-1.855S388.809,3557.258,388.809,3558.282Z" transform="translate(-380.045 -3556.428)" fill="#ebebeb"/>
                </g>
                <g id="Group_7644" data-name="Group 7644" transform="translate(3.093)">
                  <g id="Group_7643" data-name="Group 7643">
                    <path id="Path_9453" data-name="Path 9453" d="M352.1,3535.021s-1.921-5.559,6.582-11.813c0,0-7.281,6.671-4.891,11.813Z" transform="translate(-342.346 -3520.337)" fill="#ebebeb"/>
                    <path id="Path_9454" data-name="Path 9454" d="M348.969,3530.174s-4.4-6.192,3.483-15.945c0,0-6.258,9.936-1.446,15.5Z" transform="translate(-339.506 -3514.229)" fill="#ebebeb"/>
                    <path id="Path_9455" data-name="Path 9455" d="M332.94,3535.021s1.921-5.559-6.582-11.813c0,0,7.281,6.671,4.891,11.813Z" transform="translate(-324.959 -3520.337)" fill="#ebebeb"/>
                    <path id="Path_9456" data-name="Path 9456" d="M341.547,3531.94s3.538-4.977-2.8-12.814c0,0,5.031,7.984,1.164,12.458Z" transform="translate(-333.386 -3517.561)" fill="#ebebeb"/>
                    <path id="Path_9457" data-name="Path 9457" d="M351.254,3543.2s-1.66-5.617,7.128-11.59c0,0-7.586,6.43-5.438,11.646Z" transform="translate(-341.81 -3526.051)" fill="#ebebeb"/>
                    <path id="Path_9458" data-name="Path 9458" d="M329.109,3541.065s1.66-5.617-7.128-11.591c0,0,7.586,6.43,5.438,11.646Z" transform="translate(-321.981 -3524.6)" fill="#ebebeb"/>
                  </g>
                  <path id="Path_9459" data-name="Path 9459" d="M335.228,3554.069h-5.749l2.638,8.894h6.221l2.638-8.894Z" transform="translate(-327.082 -3541.331)" fill="#ebebeb"/>
                </g>
                <g id="Group_7654" data-name="Group 7654" transform="translate(4.461 64.992)">
                  <g id="Group_7649" data-name="Group 7649" transform="translate(0 0)">
                    <g id="Group_7645" data-name="Group 7645" transform="translate(0.425 4.706)">
                      <rect id="Rectangle_2589" data-name="Rectangle 2589" width="2.348" height="17.596" transform="translate(0 2.348) rotate(-90)" fill="#ebebeb"/>
                    </g>
                    <g id="Group_7647" data-name="Group 7647" transform="translate(0 1.994)">
                      <g id="Group_7646" data-name="Group 7646">
                        <rect id="Rectangle_2590" data-name="Rectangle 2590" width="2.348" height="17.596" transform="translate(0.425 2.703) rotate(-90)" fill="#ebebeb"/>
                        <path id="Path_9460" data-name="Path 9460" d="M344.707,3726.792H326.26v-3.058h18.447Zm-17.6-.709h16.746v-1.639H327.111Z" transform="translate(-326.26 -3723.735)" fill="#ebebeb"/>
                      </g>
                    </g>
                    <g id="Group_7648" data-name="Group 7648" transform="translate(0.425)">
                      <rect id="Rectangle_2591" data-name="Rectangle 2591" width="2.348" height="17.596" transform="translate(0 2.348) rotate(-90)" fill="#ebebeb"/>
                    </g>
                  </g>
                  <g id="Group_7650" data-name="Group 7650" transform="translate(10.789 0)">
                    <rect id="Rectangle_2592" data-name="Rectangle 2592" width="0.126" height="2.348" fill="#ebebeb"/>
                  </g>
                  <g id="Group_7651" data-name="Group 7651" transform="translate(12.206 0)">
                    <rect id="Rectangle_2593" data-name="Rectangle 2593" width="0.126" height="2.348" fill="#ebebeb"/>
                  </g>
                  <g id="Group_7652" data-name="Group 7652" transform="translate(13.623 0)">
                    <rect id="Rectangle_2594" data-name="Rectangle 2594" width="0.126" height="2.348" fill="#ebebeb"/>
                  </g>
                  <g id="Group_7653" data-name="Group 7653" transform="translate(15.04 0)">
                    <rect id="Rectangle_2595" data-name="Rectangle 2595" width="0.126" height="2.348" fill="#ebebeb"/>
                  </g>
                  <rect id="Rectangle_2596" data-name="Rectangle 2596" width="8.281" height="0.387" transform="translate(8.879 5.106)" fill="#ebebeb"/>
                  <rect id="Rectangle_2597" data-name="Rectangle 2597" width="8.281" height="0.387" transform="translate(8.879 5.686)" fill="#ebebeb"/>
                  <rect id="Rectangle_2598" data-name="Rectangle 2598" width="8.281" height="0.387" transform="translate(8.879 6.267)" fill="#ebebeb"/>
                </g>
              </g>
              <g id="Group_7692" data-name="Group 7692" transform="translate(452.348 99.192)">
                <g id="Group_7664" data-name="Group 7664" transform="translate(0 21.278)">
                  <g id="Group_7656" data-name="Group 7656">
                    <rect id="Rectangle_2599" data-name="Rectangle 2599" width="46.686" height="1.668" transform="translate(0.426 0.355)" fill="#ebebeb"/>
                    <path id="Path_9461" data-name="Path 9461" d="M1519.036,3550.364H1471.5v-2.377h47.537Zm-46.686-.709h45.835v-.959H1472.35Z" transform="translate(-1471.499 -3547.987)" fill="#ebebeb"/>
                  </g>
                  <g id="Group_7657" data-name="Group 7657" transform="translate(0 25.154)">
                    <rect id="Rectangle_2600" data-name="Rectangle 2600" width="46.686" height="1.668" transform="translate(0.426 0.354)" fill="#ebebeb"/>
                    <path id="Path_9462" data-name="Path 9462" d="M1519.036,3629.038H1471.5v-2.377h47.537Zm-46.686-.709h45.835v-.958H1472.35Z" transform="translate(-1471.499 -3626.66)" fill="#ebebeb"/>
                  </g>
                  <g id="Group_7658" data-name="Group 7658" transform="translate(0 50.309)">
                    <rect id="Rectangle_2601" data-name="Rectangle 2601" width="46.686" height="1.668" transform="translate(0.426 0.354)" fill="#ebebeb"/>
                    <path id="Path_9463" data-name="Path 9463" d="M1519.036,3707.711H1471.5v-2.377h47.537ZM1472.35,3707h45.835v-.959H1472.35Z" transform="translate(-1471.499 -3705.334)" fill="#ebebeb"/>
                  </g>
                  <g id="Group_7663" data-name="Group 7663" transform="translate(0 0.556)">
                    <g id="Group_7659" data-name="Group 7659" transform="translate(0 75.463)">
                      <rect id="Rectangle_2602" data-name="Rectangle 2602" width="46.686" height="1.668" transform="translate(0.426 0.355)" fill="#ebebeb"/>
                      <path id="Path_9464" data-name="Path 9464" d="M1519.036,3788.122H1471.5v-2.377h47.537Zm-46.686-.709h45.835v-.959H1472.35Z" transform="translate(-1471.499 -3785.745)" fill="#ebebeb"/>
                    </g>
                    <g id="Group_7660" data-name="Group 7660" transform="translate(0 99.538)">
                      <rect id="Rectangle_2603" data-name="Rectangle 2603" width="46.686" height="1.668" transform="translate(0.426 0.354)" fill="#ebebeb"/>
                      <path id="Path_9465" data-name="Path 9465" d="M1519.036,3863.421H1471.5v-2.377h47.537Zm-46.686-.709h45.835v-.958H1472.35Z" transform="translate(-1471.499 -3861.043)" fill="#ebebeb"/>
                    </g>
                    <g id="Group_7661" data-name="Group 7661">
                      <rect id="Rectangle_2604" data-name="Rectangle 2604" width="2.501" height="121.006" transform="translate(0.426 0.355)" fill="#ebebeb"/>
                      <path id="Path_9466" data-name="Path 9466" d="M1474.851,3671.441H1471.5V3549.726h3.352Zm-2.5-.709H1474v-120.3h-1.65Z" transform="translate(-1471.499 -3549.726)" fill="#ebebeb"/>
                    </g>
                    <g id="Group_7662" data-name="Group 7662" transform="translate(44.185)">
                      <rect id="Rectangle_2605" data-name="Rectangle 2605" width="2.501" height="121.006" transform="translate(0.425 0.355)" fill="#ebebeb"/>
                      <path id="Path_9467" data-name="Path 9467" d="M1613.045,3671.441h-3.352V3549.726h3.352Zm-2.5-.709h1.65v-120.3h-1.65Z" transform="translate(-1609.693 -3549.726)" fill="#ebebeb"/>
                    </g>
                  </g>
                </g>
                <g id="Group_7675" data-name="Group 7675" transform="translate(8.368 27.207)">
                  <g id="Group_7666" data-name="Group 7666">
                    <g id="Group_7665" data-name="Group 7665">
                      <rect id="Rectangle_2606" data-name="Rectangle 2606" width="4.891" height="19.225" transform="translate(0.425 0.355)" fill="#ebebeb"/>
                      <path id="Path_9468" data-name="Path 9468" d="M1503.413,3586.466h-5.741v-19.934h5.741Zm-4.89-.709h4.04v-18.516h-4.04Z" transform="translate(-1497.672 -3566.531)" fill="#ebebeb"/>
                    </g>
                    <path id="Path_9469" data-name="Path 9469" d="M1504.833,3578.548a1.639,1.639,0,1,1-1.612-1.344A1.5,1.5,0,0,1,1504.833,3578.548Z" transform="translate(-1500.351 -3573.792)" fill="#ebebeb"/>
                  </g>
                  <g id="Group_7668" data-name="Group 7668" transform="translate(5.748)">
                    <g id="Group_7667" data-name="Group 7667">
                      <rect id="Rectangle_2607" data-name="Rectangle 2607" width="4.891" height="19.225" transform="translate(0.426 0.355)" fill="#ebebeb"/>
                      <path id="Path_9470" data-name="Path 9470" d="M1521.393,3586.466h-5.742v-19.934h5.742Zm-4.891-.709h4.04v-18.516h-4.04Z" transform="translate(-1515.651 -3566.531)" fill="#ebebeb"/>
                    </g>
                    <path id="Path_9471" data-name="Path 9471" d="M1522.813,3578.548a1.639,1.639,0,1,1-1.612-1.344A1.5,1.5,0,0,1,1522.813,3578.548Z" transform="translate(-1518.33 -3573.792)" fill="#ebebeb"/>
                  </g>
                  <g id="Group_7670" data-name="Group 7670" transform="translate(11.498)">
                    <g id="Group_7669" data-name="Group 7669">
                      <rect id="Rectangle_2608" data-name="Rectangle 2608" width="4.891" height="19.225" transform="translate(0.425 0.355)" fill="#ebebeb"/>
                      <path id="Path_9472" data-name="Path 9472" d="M1539.373,3586.466h-5.741v-19.934h5.741Zm-4.891-.709h4.04v-18.516h-4.04Z" transform="translate(-1533.632 -3566.531)" fill="#ebebeb"/>
                    </g>
                    <path id="Path_9473" data-name="Path 9473" d="M1540.793,3578.548a1.639,1.639,0,1,1-1.612-1.344A1.5,1.5,0,0,1,1540.793,3578.548Z" transform="translate(-1536.311 -3573.792)" fill="#ebebeb"/>
                  </g>
                  <g id="Group_7672" data-name="Group 7672" transform="translate(17.246)">
                    <g id="Group_7671" data-name="Group 7671">
                      <rect id="Rectangle_2609" data-name="Rectangle 2609" width="4.891" height="19.225" transform="translate(0.426 0.355)" fill="#ebebeb"/>
                      <path id="Path_9474" data-name="Path 9474" d="M1557.353,3586.466h-5.742v-19.934h5.742Zm-4.891-.709h4.04v-18.516h-4.04Z" transform="translate(-1551.611 -3566.531)" fill="#ebebeb"/>
                    </g>
                    <path id="Path_9475" data-name="Path 9475" d="M1558.774,3578.548a1.639,1.639,0,1,1-1.612-1.344A1.5,1.5,0,0,1,1558.774,3578.548Z" transform="translate(-1554.29 -3573.792)" fill="#ebebeb"/>
                  </g>
                  <g id="Group_7674" data-name="Group 7674" transform="translate(22.995)">
                    <g id="Group_7673" data-name="Group 7673">
                      <rect id="Rectangle_2610" data-name="Rectangle 2610" width="4.891" height="19.225" transform="translate(0.425 0.355)" fill="#ebebeb"/>
                      <path id="Path_9476" data-name="Path 9476" d="M1575.334,3586.466h-5.742v-19.934h5.742Zm-4.891-.709h4.04v-18.516h-4.04Z" transform="translate(-1569.592 -3566.531)" fill="#ebebeb"/>
                    </g>
                    <path id="Path_9477" data-name="Path 9477" d="M1576.753,3578.548a1.638,1.638,0,1,1-1.612-1.344A1.5,1.5,0,0,1,1576.753,3578.548Z" transform="translate(-1572.271 -3573.792)" fill="#ebebeb"/>
                  </g>
                </g>
                <path id="Path_9478" data-name="Path 9478" d="M1498.738,3741.156a7.969,7.969,0,0,1,.761-3.532h-5.862a7.969,7.969,0,0,1,.761,3.532c0,2.137-2.569,6.083-2.569,8.714s2.724,3.494,4.739,3.494,4.739-.863,4.739-3.494S1498.738,3743.293,1498.738,3741.156Z" transform="translate(-1485.329 -3655.713)" fill="#ebebeb"/>
                <g id="Group_7677" data-name="Group 7677" transform="translate(24.883 54.69)">
                  <g id="Group_7676" data-name="Group 7676" transform="translate(0.726)">
                    <path id="Path_9479" data-name="Path 9479" d="M1571.249,3662.038c1.581-3.093-1.934-3.036-1.666-3.847.5-1.524,2.4.132,3.166-.635s-1.9-3.159-.5-3.987.907,1.975,2.113,1.776.488-3.16,1.911-2.83c1.069.249-.2,2.1-.084,2.965s2.323-.4,2.361.839-2.629.694-2.943,1.632,2.869,1.133,1.753,1.926-3.22-.157-3.774.669S1570.577,3663.351,1571.249,3662.038Z" transform="translate(-1563.822 -3652.489)" fill="#ebebeb"/>
                    <path id="Path_9480" data-name="Path 9480" d="M1558.049,3669.92c-1.486-3.125-3.936-1.024-4.431-1.758-.929-1.378,1.815-1.312,1.714-2.308s-4.013-1.132-3.721-2.54,2.311.872,3,.023-2.321-2.532-1.03-3.131c.97-.45,1.629,1.61,2.443,2.156s1.316-1.643,2.386-.788-1.283,2.035-.715,2.886,2.995-.877,2.871.341-2.421,1.777-2.117,2.689S1558.68,3671.247,1558.049,3669.92Z" transform="translate(-1551.596 -3657.695)" fill="#ebebeb"/>
                  </g>
                  <path id="Path_9481" data-name="Path 9481" d="M1560.287,3677.176h-8.115s-2.848,2.038-2.848,4.447,1.776,4.91,6.906,4.91,6.906-2.5,6.906-4.91S1560.287,3677.176,1560.287,3677.176Z" transform="translate(-1549.324 -3669.283)" fill="#ebebeb"/>
                </g>
                <g id="Group_7678" data-name="Group 7678" transform="translate(26.874 86.672)">
                  <rect id="Rectangle_2611" data-name="Rectangle 2611" width="7.489" height="8.477" transform="translate(2.317 2.502)" fill="#ebebeb"/>
                  <ellipse id="Ellipse_371" data-name="Ellipse 371" cx="5.91" cy="2.502" rx="5.91" ry="2.502" fill="#ebebeb"/>
                </g>
                <g id="Group_7679" data-name="Group 7679" transform="translate(21.658 13.492)">
                  <rect id="Rectangle_2612" data-name="Rectangle 2612" width="5.553" height="6.285" transform="translate(1.718 1.855)" fill="#ebebeb"/>
                  <path id="Path_9482" data-name="Path 9482" d="M1548,3525.491c0,1.024-1.962,1.855-4.382,1.855s-4.382-.831-4.382-1.855,1.962-1.854,4.382-1.854S1548,3524.467,1548,3525.491Z" transform="translate(-1539.237 -3523.637)" fill="#ebebeb"/>
                </g>
                <g id="Group_7681" data-name="Group 7681" transform="translate(3.093)">
                  <g id="Group_7680" data-name="Group 7680">
                    <path id="Path_9483" data-name="Path 9483" d="M1511.3,3502.23s-1.921-5.56,6.582-11.813c0,0-7.281,6.671-4.891,11.813Z" transform="translate(-1501.538 -3487.546)" fill="#ebebeb"/>
                    <path id="Path_9484" data-name="Path 9484" d="M1508.161,3497.384s-4.4-6.192,3.483-15.946c0,0-6.258,9.936-1.446,15.5Z" transform="translate(-1498.698 -3481.438)" fill="#ebebeb"/>
                    <path id="Path_9485" data-name="Path 9485" d="M1492.131,3502.23s1.921-5.56-6.583-11.813c0,0,7.281,6.671,4.891,11.813Z" transform="translate(-1484.15 -3487.546)" fill="#ebebeb"/>
                    <path id="Path_9486" data-name="Path 9486" d="M1500.739,3499.149s3.538-4.977-2.8-12.814c0,0,5.031,7.984,1.165,12.458Z" transform="translate(-1492.577 -3484.77)" fill="#ebebeb"/>
                    <path id="Path_9487" data-name="Path 9487" d="M1510.445,3510.406s-1.661-5.617,7.128-11.591c0,0-7.586,6.43-5.438,11.646Z" transform="translate(-1501.001 -3493.26)" fill="#ebebeb"/>
                    <path id="Path_9488" data-name="Path 9488" d="M1488.3,3508.274s1.661-5.617-7.128-11.591c0,0,7.586,6.43,5.438,11.646Z" transform="translate(-1481.173 -3491.809)" fill="#ebebeb"/>
                  </g>
                  <path id="Path_9489" data-name="Path 9489" d="M1494.419,3521.278h-5.749l2.638,8.895h6.221l2.638-8.895Z" transform="translate(-1486.273 -3508.54)" fill="#ebebeb"/>
                </g>
                <g id="Group_7691" data-name="Group 7691" transform="translate(4.461 64.992)">
                  <g id="Group_7686" data-name="Group 7686" transform="translate(0 0)">
                    <g id="Group_7682" data-name="Group 7682" transform="translate(0.425 4.706)">
                      <rect id="Rectangle_2613" data-name="Rectangle 2613" width="2.348" height="17.596" transform="translate(0 2.348) rotate(-90)" fill="#ebebeb"/>
                    </g>
                    <g id="Group_7684" data-name="Group 7684" transform="translate(0 1.994)">
                      <g id="Group_7683" data-name="Group 7683">
                        <rect id="Rectangle_2614" data-name="Rectangle 2614" width="2.348" height="17.596" transform="translate(0.425 2.703) rotate(-90)" fill="#ebebeb"/>
                        <path id="Path_9490" data-name="Path 9490" d="M1503.9,3694h-18.447v-3.057H1503.9Zm-17.6-.709h16.745v-1.639H1486.3Z" transform="translate(-1485.452 -3690.944)" fill="#ebebeb"/>
                      </g>
                    </g>
                    <g id="Group_7685" data-name="Group 7685" transform="translate(0.425)">
                      <rect id="Rectangle_2615" data-name="Rectangle 2615" width="2.348" height="17.596" transform="translate(0 2.348) rotate(-90)" fill="#ebebeb"/>
                    </g>
                  </g>
                  <g id="Group_7687" data-name="Group 7687" transform="translate(10.788 0)">
                    <rect id="Rectangle_2616" data-name="Rectangle 2616" width="0.126" height="2.348" fill="#ebebeb"/>
                  </g>
                  <g id="Group_7688" data-name="Group 7688" transform="translate(12.206 0)">
                    <rect id="Rectangle_2617" data-name="Rectangle 2617" width="0.126" height="2.348" fill="#ebebeb"/>
                  </g>
                  <g id="Group_7689" data-name="Group 7689" transform="translate(13.623 0)">
                    <rect id="Rectangle_2618" data-name="Rectangle 2618" width="0.126" height="2.348" fill="#ebebeb"/>
                  </g>
                  <g id="Group_7690" data-name="Group 7690" transform="translate(15.04 0)">
                    <rect id="Rectangle_2619" data-name="Rectangle 2619" width="0.126" height="2.348" fill="#ebebeb"/>
                  </g>
                  <rect id="Rectangle_2620" data-name="Rectangle 2620" width="8.281" height="0.387" transform="translate(8.879 5.106)" fill="#ebebeb"/>
                  <rect id="Rectangle_2621" data-name="Rectangle 2621" width="8.281" height="0.387" transform="translate(8.879 5.686)" fill="#ebebeb"/>
                  <rect id="Rectangle_2622" data-name="Rectangle 2622" width="8.281" height="0.387" transform="translate(8.879 6.267)" fill="#ebebeb"/>
                </g>
              </g>
              <g id="Group_7700" data-name="Group 7700" transform="translate(223.528 168.565)">
                <path id="Path_9491" data-name="Path 9491" d="M972.872,3921.982H861.821c-2.12,0-3.649-1.728-3.061-3.459h0a3.158,3.158,0,0,1,3.061-1.957H972.872a3.159,3.159,0,0,1,3.061,1.957h0C976.521,3920.254,974.992,3921.982,972.872,3921.982Z" transform="translate(-856.353 -3846.814)" fill="#ebebeb" opacity="0.32"/>
                <g id="Group_7695" data-name="Group 7695" transform="translate(0 23.997)">
                  <rect id="Rectangle_2623" data-name="Rectangle 2623" width="2.148" height="45.499" transform="translate(1.281 0.254)" fill="#ebebeb"/>
                  <rect id="Rectangle_2624" data-name="Rectangle 2624" width="2.148" height="45.499" transform="translate(117.954 0.254)" fill="#ebebeb"/>
                  <g id="Group_7693" data-name="Group 7693">
                    <path id="Path_9492" data-name="Path 9492" d="M973.485,3778.733H852.633l.919-4.473H972.36Z" transform="translate(-852.271 -3774.006)" fill="#ebebeb"/>
                    <path id="Path_9493" data-name="Path 9493" d="M973.091,3778.446H851.5l1.024-4.981H971.838Zm-120.867-.508H972.34l-1-3.965H853.04Z" transform="translate(-851.502 -3773.465)" fill="#ebebeb"/>
                  </g>
                  <g id="Group_7694" data-name="Group 7694" transform="translate(0.057 4.473)">
                    <path id="Path_9494" data-name="Path 9494" d="M973.279,3788.25H852.633v46.7h1.995v-43.634H971.49v43.634h1.995v-46.7Z" transform="translate(-852.328 -3787.995)" fill="#ebebeb"/>
                    <path id="Path_9495" data-name="Path 9495" d="M973.141,3834.662h-2.6v-43.634H854.284v43.634h-2.6v-47.207H973.141Zm-1.995-.508h1.385v-46.19H852.289v46.19h1.385V3790.52H971.147Z" transform="translate(-851.679 -3787.455)" fill="#ebebeb"/>
                  </g>
                </g>
                <g id="Group_7699" data-name="Group 7699" transform="translate(82.831)">
                  <path id="Path_9496" data-name="Path 9496" d="M1150.293,3700.291v16.725a2.192,2.192,0,0,1-2.395,1.881h-34.935a2.192,2.192,0,0,1-2.395-1.881v-16.725a2.2,2.2,0,0,1,2.395-1.882H1147.9A2.195,2.195,0,0,1,1150.293,3700.291Z" transform="translate(-1110.568 -3698.409)" fill="#ebebeb"/>
                  <path id="Path_9497" data-name="Path 9497" d="M1114.667,3719.606a1.459,1.459,0,0,1-1.6-1.254v-16.725a1.459,1.459,0,0,1,1.6-1.254H1149.6a1.458,1.458,0,0,1,1.6,1.254v16.725a1.458,1.458,0,0,1-1.6,1.254Z" transform="translate(-1112.27 -3699.745)" fill="#ebebeb"/>
                  <g id="Group_7696" data-name="Group 7696" transform="translate(1.293 1)">
                    <path id="Path_9498" data-name="Path 9498" d="M1116.366,3720.313a.73.73,0,0,1-.8-.627v-16.725a.729.729,0,0,1,.8-.627H1151.3a.729.729,0,0,1,.8.627v16.725a.729.729,0,0,1-.8.627Z" transform="translate(-1115.262 -3702.08)" fill="#ebebeb"/>
                    <path id="Path_9499" data-name="Path 9499" d="M1150.649,3720.026h-34.932a1.012,1.012,0,0,1-1.1-.881v-16.724a1.012,1.012,0,0,1,1.1-.882h34.932a1.013,1.013,0,0,1,1.1.882v16.724A1.013,1.013,0,0,1,1150.649,3720.026Zm-34.932-17.979a.447.447,0,0,0-.493.373v16.724a.447.447,0,0,0,.493.373h34.932a.447.447,0,0,0,.494-.373v-16.724a.447.447,0,0,0-.494-.373Z" transform="translate(-1114.613 -3701.539)" fill="#ebebeb"/>
                  </g>
                  <path id="Path_9500" data-name="Path 9500" d="M1167.409,3743.243h-9.368l1.057-9.045h7.254Z" transform="translate(-1142.862 -3722.755)" fill="#ebebeb"/>
                  <g id="Group_7697" data-name="Group 7697" transform="translate(15.142 10.708)">
                    <path id="Path_9501" data-name="Path 9501" d="M1167.741,3747.4h-8.783l1.379-14.7h6.025Z" transform="translate(-1158.628 -3732.442)" fill="#ebebeb"/>
                    <path id="Path_9502" data-name="Path 9502" d="M1167.369,3747.109h-9.443l1.427-15.209h6.589Zm-8.783-.508h8.124l-1.331-14.192h-5.461Z" transform="translate(-1157.927 -3731.901)" fill="#ebebeb"/>
                  </g>
                  <g id="Group_7698" data-name="Group 7698" transform="translate(9.178 24.781)">
                    <path id="Path_9503" data-name="Path 9503" d="M1160.988,3778.958h-20.76c0-1.241,1.281-2.248,2.861-2.248h15.037c1.58,0,2.861,1.007,2.861,2.248Z" transform="translate(-1139.923 -3776.457)" fill="#ebebeb"/>
                    <path id="Path_9504" data-name="Path 9504" d="M1160.644,3778.672h-21.37v-.254c0-1.379,1.421-2.5,3.166-2.5h15.038c1.746,0,3.166,1.122,3.166,2.5Zm-20.739-.508h20.109a2.428,2.428,0,0,0-2.536-1.739H1142.44A2.428,2.428,0,0,0,1139.9,3778.165Z" transform="translate(-1139.274 -3775.917)" fill="#ebebeb"/>
                  </g>
                </g>
              </g>
            </g>
          </g>
        </g>
      </g>
    </g>
    <g id="Group_7707" data-name="Group 7707" transform="translate(657.758 3357.383)">
      <g id="Group_7706" data-name="Group 7706">
        <path id="Path_9505" data-name="Path 9505" d="M1295.878,3985.1l-1.689-.18,10.723-55.271,3.568.586,39.45,4.679-1.078,10.13-.1-.011.766,45.859-1.689-.18-4.877-46.3-31.309-3.333Z" transform="translate(-1294.189 -3873.329)" fill="#ffe200"/>
        <path id="Path_9506" data-name="Path 9506" d="M1445.374,3758c2.352-6.713,11.435-4.359,19.466-2.692,5.774,1.194,6.94,3.72,6.018,9.555l-12.385,50.183c-.9,5.821-6.1,9.188-11.52,7.465s-16.44-6.665-15.383-12.47Z" transform="translate(-1387.596 -3753.507)" fill="#ffe200"/>
        <path id="Path_9507" data-name="Path 9507" d="M1317.115,4010.046l-1.387-.148,10.758-50.867-7.959-8.893,25.872,2.58,30.477,2.919-1.017,8.437.563,52.385-1.125-.119-5.039-52.862-35.922-3.824Z" transform="translate(-1308.841 -3887.269)" fill="#ffe200"/>
        <path id="Path_9508" data-name="Path 9508" d="M1311.683,3924.888a2.092,2.092,0,0,1,1.962-3.229l31.45,3.219a26.793,26.793,0,0,1,8.2,2.454l17.052,7.762c.042.019.085.041.126.062,2.03,1.073,1.756,1.765-.637,1.511l-53.313-5.8a2.09,2.09,0,0,1-1.522-.931Z" transform="translate(-1305.853 -3867.888)" fill="#ffe200"/>
      </g>
    </g>
    <g id="Group_7715" data-name="Group 7715" transform="translate(653.781 3321.545)">
      <path id="Path_9509" data-name="Path 9509" d="M1405.676,3657.727c-2.293-9.807,14.7-19.512,21.138-15.3,0,0,16.336.274,10.823,27.594-.245,1.208-5.234,1.048-5.263,3.692s-.257,2.342-1.548,3.544-3.6-.62-4.174.266c-1.568,2.433,3.275,4.307,4.808,3,0,0-12.377,7.214-18.086-5.781C1413.045,3674,1406.28,3660.309,1405.676,3657.727Z" transform="translate(-1378.02 -3641.42)" fill="#fff4ba"/>
      <g id="Group_7708" data-name="Group 7708" transform="translate(6.16 69.2)">
        <path id="Path_9510" data-name="Path 9510" d="M1343.9,3868.429c.912,5.886,32.111-5.263,33.077-6.085,0,0,2.147-3.833-.731-4.441C1372.473,3857.1,1343.493,3865.8,1343.9,3868.429Z" transform="translate(-1342.296 -3857.851)" fill="#03b4e9"/>
        <path id="Path_9511" data-name="Path 9511" d="M1338.891,3882.75l.23-1.809,6.016-3.43s.262,3.211-.114,3.913S1338.891,3882.75,1338.891,3882.75Z" transform="translate(-1338.891 -3871.225)" fill="#fffdfd"/>
        <path id="Path_9512" data-name="Path 9512" d="M1338.9,3893.461l.522,1.729,6.44,2.278s-.272-3.191-.755-3.811S1338.9,3893.461,1338.9,3893.461Z" transform="translate(-1338.897 -3881.979)" fill="#fffdfd"/>
      </g>
      <g id="Group_7709" data-name="Group 7709" transform="translate(0 74.213)">
        <path id="Path_9513" data-name="Path 9513" d="M1346.194,3879.793c1.8-1.406,4.54-2.145,4.879-1.338.384.909-2.089,1.1-3.4,2.758-1.423,1.79-2.412,2.84-3.132,2.329S1344.388,3881.2,1346.194,3879.793Z" transform="translate(-1336.369 -3876.654)" fill="#f8c471"/>
        <path id="Path_9514" data-name="Path 9514" d="M1350.092,3876.993c-2.8-.16-8.491,3.762-9.263,1.439-.693-2.08,1.273-6.445,9.29-3.613Z" transform="translate(-1333.963 -3873.776)" fill="#ffd9a4"/>
        <path id="Path_9515" data-name="Path 9515" d="M1340.268,3873.969c1.454,3.6-2.932,5.352-4.44,5.585-1.659.256-3.512-2.172-3.231-3.479S1339.71,3872.6,1340.268,3873.969Z" transform="translate(-1328.431 -3873.531)" fill="#ffd9a4"/>
        <path id="Path_9516" data-name="Path 9516" d="M1323.626,3878.354c-1.937.289-3.016,0-3.033-.527s1.1-.62,3.031-.911,4.323-1.142,4.342-.619S1325.561,3878.059,1323.626,3878.354Z" transform="translate(-1320.284 -3875.299)" fill="#ffd9a4"/>
        <path id="Path_9517" data-name="Path 9517" d="M1323.555,3885.357c-1.876.687-3.8.447-3.923-.052s1.752-.718,3.628-1.4,3.129-1.031,3.249-.53S1325.431,3884.671,1323.555,3885.357Z" transform="translate(-1319.626 -3880.063)" fill="#ffd9a4"/>
        <path id="Path_9518" data-name="Path 9518" d="M1331.576,3889.94c-1.9.609-3.1.52-3.206.018s1.222-.667,3.122-1.275,3.241-1.01,3.347-.507S1333.477,3889.33,1331.576,3889.94Z" transform="translate(-1325.57 -3883.338)" fill="#ffd9a4"/>
      </g>
      <g id="Group_7710" data-name="Group 7710" transform="translate(19.047 26.012)">
        <path id="Path_9519" data-name="Path 9519" d="M1444.3,3722.775l-7,3.9-1.99,14.583,5.547-1.681Z" transform="translate(-1417.374 -3722.775)" fill="#f6cda2"/>
        <path id="Path_9520" data-name="Path 9520" d="M1379.2,3835.84c13.6,9.156,19.1,6.278,27.277,6.35.784-11.575-5.365-19.858-5.044-27.96.591-15.02,14.28-31.975,4.085-39.318-10.828-7.8-25.893,24.771-25.893,24.771C1390.5,3806.578,1384.9,3818.142,1379.2,3835.84Z" transform="translate(-1379.199 -3757.422)" fill="#0080af"/>
        <path id="Path_9521" data-name="Path 9521" d="M1435.5,3772.415l-1.955-.336-9.238,7.814,2.489,2.338S1433.019,3776.521,1435.5,3772.415Z" transform="translate(-1409.884 -3756.315)" fill="#fff"/>
        <path id="Path_9522" data-name="Path 9522" d="M1412.194,3781.594l-.118-.1c2.567-4.51,8.019-11.338,12.9-10.623C1420.3,3774.619,1412.194,3781.594,1412.194,3781.594Z" transform="translate(-1401.564 -3755.46)" fill="#f6cda2"/>
      </g>
      <g id="Group_7711" data-name="Group 7711" transform="translate(14.653 45.792)">
        <path id="Path_9523" data-name="Path 9523" d="M1371.816,3879.071c-.319,5.834,26,7.643,27.112,7.048,0,0,1.719-4.1.3-4.563C1395.567,3880.365,1371.96,3876.465,1371.816,3879.071Z" transform="translate(-1369.78 -3848.281)" fill="#03b4e9"/>
        <path id="Path_9524" data-name="Path 9524" d="M1447.618,3784.733c7.111-2.243.227,37.157-1.864,37.854,0,0-3.787-1.336-4.449-3.118C1439.308,3814.088,1444.443,3785.731,1447.618,3784.733Z" transform="translate(-1416.749 -3784.641)" fill="#03b4e9"/>
        <path id="Path_9525" data-name="Path 9525" d="M1365.456,3874.511l.663-1.566,6.635-1.365s-.526,2.98-1.061,3.505S1365.456,3874.511,1365.456,3874.511Z" transform="translate(-1365.456 -3843.783)" fill="#fff"/>
        <path id="Path_9526" data-name="Path 9526" d="M1365.461,3880.361l.083,1.739,5.741,3.978s.519-3.011.2-3.721S1365.461,3880.361,1365.461,3880.361Z" transform="translate(-1365.46 -3849.756)" fill="#fff"/>
      </g>
      <g id="Group_7714" data-name="Group 7714" transform="translate(29.013 2.707)">
        <g id="Group_7713" data-name="Group 7713">
          <g id="Group_7712" data-name="Group 7712" transform="translate(0 2.714)">
            <path id="Path_9527" data-name="Path 9527" d="M1419.31,3690.15c-1.3.031-3.783-6.626-4.6-11.757-.269-1.692,1.554-1.936,1.3-7.723-.149-3.4,1.309-8.142,6.921-11.654,5.3-3.316,5.949,7.225,6.468,9.651,1.477,6.911,3.354,11.229,1.654,14.63C1427.736,3689.94,1420.706,3689.782,1419.31,3690.15Z" transform="translate(-1413.304 -3658.376)" fill="#ffd8a3"/>
            <path id="Path_9528" data-name="Path 9528" d="M1428.112,3728.859a.3.3,0,0,0-.278-.319.315.315,0,0,0-.252.351.3.3,0,0,0,.28.319A.314.314,0,0,0,1428.112,3728.859Z" transform="translate(-1422.078 -3706.106)" fill="#ffab00"/>
            <path id="Path_9529" data-name="Path 9529" d="M1426.1,3699.409c-.052-.913-.6-1.614-1.23-1.568s-1.093.824-1.04,1.737.6,1.614,1.23,1.568S1426.154,3700.322,1426.1,3699.409Z" transform="translate(-1419.524 -3685.221)" fill="#2d356b"/>
            <path id="Path_9530" data-name="Path 9530" d="M1425.222,3699.3c-.909-1.243-2.193-2.472-4.563-1.579A8.74,8.74,0,0,1,1425.222,3699.3Z" transform="translate(-1417.369 -3684.933)" fill="#2d356b"/>
            <path id="Path_9531" data-name="Path 9531" d="M1420.928,3741.042c-.044-.211-.678.555-.986.589-.873.1-.6,1.2.272,1.02C1420.553,3742.579,1420.974,3741.265,1420.928,3741.042Z" transform="translate(-1416.518 -3714.586)" fill="#f36973"/>
            <path id="Path_9532" data-name="Path 9532" d="M1420.275,3729.05c.586-.25-3.44-1.306-2.683.033A6.293,6.293,0,0,0,1420.275,3729.05Z" transform="translate(-1415.217 -3706.024)" fill="#f36973"/>
            <path id="Path_9533" data-name="Path 9533" d="M1420.183,3684.164a5.326,5.326,0,0,1,6.5,3.2C1424.895,3685.031,1423.532,3684.179,1420.183,3684.164Z" transform="translate(-1417.045 -3675.791)" fill="#2d356b"/>
            <path id="Path_9534" data-name="Path 9534" d="M1411.3,3711.281l2.025.567-.05-5.136-2.909,3.726Z" transform="translate(-1410.368 -3691.258)" fill="#ffd8a3"/>
            <path id="Path_9535" data-name="Path 9535" d="M1414,3723.362l-1.639-3.142,1.508-.09Z" transform="translate(-1411.723 -3700.385)" fill="#ffd8a3"/>
            <path id="Path_9536" data-name="Path 9536" d="M1418.177,3734.179a38.048,38.048,0,0,1-1.1-4.433l3.63-.087S1420.081,3733.52,1418.177,3734.179Z" transform="translate(-1414.933 -3706.867)" fill="#ffab00"/>
            <path id="Path_9537" data-name="Path 9537" d="M1420.123,3732.223l-2.068.049c-.133-.557-.257-1.14-.374-1.745l2.968-.071Z" transform="translate(-1415.343 -3707.411)" fill="#fff"/>
            <path id="Path_9538" data-name="Path 9538" d="M1470.048,3706.646c-.12-1.581-.684-2.736.516-2.824s2.274,1.123,2.393,2.706-.76,2.937-1.962,3.026S1470.166,3708.23,1470.048,3706.646Z" transform="translate(-1450.806 -3689.288)" fill="#f7c371"/>
          </g>
          <path id="Path_9539" data-name="Path 9539" d="M1435.068,3649.891c.913,3.754,3.665,13.236,8.99,15.053,0,0,3.16-8.342-1.815-11.424C1435.964,3649.626,1435.068,3649.891,1435.068,3649.891Z" transform="translate(-1427.171 -3649.887)" fill="#fff4ba"/>
        </g>
      </g>
    </g>
    <g id="Group_7725" data-name="Group 7725" transform="translate(544.44 3452.296)">
      <g id="Group_7724" data-name="Group 7724" transform="translate(0)">
        <g id="Group_7718" data-name="Group 7718" transform="translate(8.848)">
          <path id="Path_9541" data-name="Path 9541" d="M1060.933,4071.834s-.732-4.929-1.064-6.013c-.429-1.4-.639-3.487.54-4.714s1.357-4.117,1.357-4.559.442-7.071,5.3-6.089c0,0,2.013.491,1.031,4.026,0,0-1.031,2.111.27,3.438a5.384,5.384,0,0,1,0,7.317c-2.431,2.946-1.739,4.025-1.351,5.156,1.771,5.158-2,9.894-2.406,11.157s-.9,3.337-.49,4.53l-1.43.027Z" transform="translate(-1059.53 -4050.361)" fill="#ebebeb"/>
        </g>
        <g id="Group_7719" data-name="Group 7719" transform="translate(12.383 4.99)">
          <path id="Path_9542" data-name="Path 9542" d="M1070.975,4096.918a.225.225,0,0,0,.044,0,.217.217,0,0,0,.168-.255c-.546-2.66.412-7.4.422-7.449.529-2.018.682-4.6-.194-11.17a25.23,25.23,0,0,1,.267-8.624,14.45,14.45,0,0,1,1-3.133.216.216,0,1,0-.385-.2,14.514,14.514,0,0,0-1.032,3.218,25.667,25.667,0,0,0-.277,8.792c.864,6.482.706,9.092.2,11.015-.043.209-.989,4.886-.425,7.634A.216.216,0,0,0,1070.975,4096.918Z" transform="translate(-1070.585 -4065.969)" fill="#fff"/>
        </g>
        <g id="Group_7720" data-name="Group 7720" transform="translate(13.556 18.939)">
          <path id="Path_9543" data-name="Path 9543" d="M1075.946,4126.51s0-1.162,2.385-2.263a3.983,3.983,0,0,0,2.385-2.875c.612-2.324,2.324-1.712,3.425-1.039s3.6,0,3.6-3.486a2.314,2.314,0,0,1,.853-2.813c1.6-.978,2.208-4.474-1.217-4.438s-6.651,1.727-9.968,6.64c-4.61,6.829-2.816,10.274-2.816,10.274Z" transform="translate(-1074.254 -4109.595)" fill="#ebebeb"/>
        </g>
        <g id="Group_7721" data-name="Group 7721" transform="translate(13.964 21.388)">
          <path id="Path_9544" data-name="Path 9544" d="M1075.9,4131.937a.209.209,0,0,0,.066-.01.22.22,0,0,0,.14-.272,5.233,5.233,0,0,1-.014-2.281.223.223,0,0,0,.017-.043c1.849-6.981,10.969-11.62,11.061-11.666a.216.216,0,1,0-.194-.387c-.093.047-9.369,4.766-11.28,11.92a5.114,5.114,0,0,0,0,2.589A.212.212,0,0,0,1075.9,4131.937Z" transform="translate(-1075.529 -4117.255)" fill="#fff"/>
        </g>
        <g id="Group_7722" data-name="Group 7722" transform="translate(0 8.587)">
          <path id="Path_9545" data-name="Path 9545" d="M1042.081,4104.381a4.253,4.253,0,0,1-2.014-4.272,2.99,2.99,0,0,0-2.651-3.584c-.589-.1-4.42-1.67-3.83-7.415,0,0,.2-3.683-.491-5.009s-2.406-5.3,0-6.531,4.076.982,4.96,3.241a12.537,12.537,0,0,0,1.277,3.241c.589.638,4.861,4.37,4.518,12.129l-.836,8.2Z" transform="translate(-1031.855 -4077.218)" fill="#ebebeb"/>
        </g>
        <g id="Group_7723" data-name="Group 7723" transform="translate(3.429 13.104)">
          <path id="Path_9546" data-name="Path 9546" d="M1049.77,4114.208a.216.216,0,0,0,.216-.208c.248-6.6-2.616-15.218-4.259-17.708a44.211,44.211,0,0,1-2.735-4.823.216.216,0,1,0-.391.185,44.686,44.686,0,0,0,2.765,4.876c1.616,2.449,4.432,10.934,4.188,17.453a.216.216,0,0,0,.208.224Z" transform="translate(-1042.581 -4091.346)" fill="#fff"/>
        </g>
      </g>
      <path id="Path_9547" data-name="Path 9547" d="M1060.594,4174.349h-9.26l-2.241-12.688h13.744Z" transform="translate(-1043.581 -4126.075)" fill="#ebebeb"/>
    </g>
    <g id="Group_7731" data-name="Group 7731" transform="translate(582.392 3369.318)">
      <g id="Group_7730" data-name="Group 7730" transform="translate(0)">
        <g id="Group_7728" data-name="Group 7728" transform="translate(0 35.787)">
          <rect id="Rectangle_2627" data-name="Rectangle 2627" width="172.615" height="5.181" fill="#40558d"/>
          <rect id="Rectangle_2628" data-name="Rectangle 2628" width="160.354" height="93.106" transform="translate(6.36 1.998)" fill="#40558d"/>
          <rect id="Rectangle_2629" data-name="Rectangle 2629" width="49.758" height="93.106" transform="translate(116.956 1.998)" fill="#7b87ab"/>
          <rect id="Rectangle_2630" data-name="Rectangle 2630" width="172.615" height="6.743" transform="translate(0 1.998)" fill="#2d356b"/>
        </g>
        <g id="Group_7729" data-name="Group 7729" transform="translate(44.221)">
          <path id="Path_9549" data-name="Path 9549" d="M1244.687,3824.191h-40.035a2.476,2.476,0,0,1-2.432-2.014l-5.4-28.405a2.475,2.475,0,0,1,2.432-2.937h40.035a2.475,2.475,0,0,1,2.433,2.014l5.4,28.405A2.476,2.476,0,0,1,1244.687,3824.191Z" transform="translate(-1196.779 -3790.835)" fill="#cfd0d8"/>
          <path id="Path_9550" data-name="Path 9550" d="M1333.049,3793.843a1.342,1.342,0,1,0-1.976.924l5.4,28.405a1.342,1.342,0,1,0,1.976-.924Z" transform="translate(-1288.105 -3791.83)" fill="#ebebeb"/>
          <path id="Path_9551" data-name="Path 9551" d="M1285.759,3897.979h-61.54a2.817,2.817,0,0,1-2.817-2.817h67.175A2.817,2.817,0,0,1,1285.759,3897.979Z" transform="translate(-1213.529 -3861.805)" fill="#9898a4"/>
          <path id="Path_9552" data-name="Path 9552" d="M1376.382,3895.162h-25.906a3.026,3.026,0,0,0,3.2,2.817h19.511A3.025,3.025,0,0,0,1376.382,3895.162Z" transform="translate(-1301.334 -3861.805)" fill="#cfd0d8"/>
          <circle id="Ellipse_372" data-name="Ellipse 372" cx="2.842" cy="2.842" r="2.842" transform="matrix(0.924, -0.383, 0.383, 0.924, 20.588, 15.14)" fill="#fff4ba"/>
        </g>
      </g>
    </g>
    <g id="Group_7732" data-name="Group 7732" transform="translate(736.696 3333.605)">
      <rect id="Rectangle_2631" data-name="Rectangle 2631" width="46.652" height="23.187" rx="6.672" transform="translate(-16 34)" fill="#fff" stroke="#231f20" stroke-miterlimit="10" stroke-width="0.25"/>
      <text id="Helen" transform="translate(-6.174 48.593)" fill="#2d356b" font-size="10" font-family="TrebuchetMS-Bold, Trebuchet MS" font-weight="700"><tspan x="0" y="0">Helen</tspan></text>
    </g>
    <g id="Group_7740" data-name="Group 7740" transform="translate(740.415 3452.296)">
      <g id="Group_7739" data-name="Group 7739">
        <g id="Group_7733" data-name="Group 7733" transform="translate(8.848)">
          <path id="Path_9553" data-name="Path 9553" d="M1581.789,4071.834s-.732-4.929-1.064-6.013c-.428-1.4-.638-3.487.54-4.714s1.357-4.117,1.357-4.559.442-7.071,5.3-6.089c0,0,2.013.491,1.031,4.026,0,0-1.031,2.111.27,3.438a5.384,5.384,0,0,1,0,7.317c-2.431,2.946-1.739,4.025-1.35,5.156,1.771,5.158-2,9.894-2.406,11.157s-.9,3.337-.49,4.53l-1.43.027Z" transform="translate(-1580.386 -4050.361)" fill="#ebebeb"/>
        </g>
        <g id="Group_7734" data-name="Group 7734" transform="translate(12.383 4.99)">
          <path id="Path_9554" data-name="Path 9554" d="M1591.831,4096.918a.222.222,0,0,0,.043,0,.216.216,0,0,0,.168-.255c-.546-2.66.413-7.4.422-7.449.529-2.018.682-4.6-.194-11.17a25.233,25.233,0,0,1,.267-8.624,14.464,14.464,0,0,1,1-3.133.216.216,0,1,0-.385-.2,14.5,14.5,0,0,0-1.032,3.218,25.657,25.657,0,0,0-.277,8.792c.864,6.482.705,9.092.2,11.015-.043.209-.989,4.886-.425,7.634A.217.217,0,0,0,1591.831,4096.918Z" transform="translate(-1591.44 -4065.969)" fill="#fff"/>
        </g>
        <g id="Group_7735" data-name="Group 7735" transform="translate(13.556 18.939)">
          <path id="Path_9555" data-name="Path 9555" d="M1596.8,4126.51s0-1.162,2.385-2.263a3.983,3.983,0,0,0,2.385-2.875c.612-2.324,2.324-1.712,3.425-1.039s3.6,0,3.605-3.486a2.314,2.314,0,0,1,.853-2.813c1.6-.978,2.208-4.474-1.216-4.438s-6.652,1.727-9.969,6.64c-4.61,6.829-2.815,10.274-2.815,10.274Z" transform="translate(-1595.11 -4109.595)" fill="#ebebeb"/>
        </g>
        <g id="Group_7736" data-name="Group 7736" transform="translate(13.964 21.388)">
          <path id="Path_9556" data-name="Path 9556" d="M1596.754,4131.937a.211.211,0,0,0,.067-.01.22.22,0,0,0,.139-.272,5.23,5.23,0,0,1-.014-2.281.24.24,0,0,0,.017-.043c1.849-6.981,10.969-11.62,11.061-11.666a.216.216,0,1,0-.193-.387c-.094.047-9.369,4.766-11.28,11.92a5.108,5.108,0,0,0,0,2.589A.212.212,0,0,0,1596.754,4131.937Z" transform="translate(-1596.384 -4117.255)" fill="#fff"/>
        </g>
        <g id="Group_7737" data-name="Group 7737" transform="translate(0 8.587)">
          <path id="Path_9557" data-name="Path 9557" d="M1562.937,4104.381a4.253,4.253,0,0,1-2.013-4.272,2.99,2.99,0,0,0-2.652-3.584c-.589-.1-4.42-1.67-3.83-7.415,0,0,.2-3.683-.491-5.009s-2.406-5.3,0-6.531,4.076.982,4.96,3.241a12.536,12.536,0,0,0,1.277,3.241c.589.638,4.861,4.37,4.517,12.129l-.836,8.2Z" transform="translate(-1552.711 -4077.218)" fill="#ebebeb"/>
        </g>
        <g id="Group_7738" data-name="Group 7738" transform="translate(3.429 13.104)">
          <path id="Path_9558" data-name="Path 9558" d="M1570.626,4114.208a.215.215,0,0,0,.216-.208c.249-6.6-2.616-15.218-4.259-17.708a44.332,44.332,0,0,1-2.735-4.823.216.216,0,1,0-.391.185,44.734,44.734,0,0,0,2.765,4.876c1.616,2.449,4.433,10.934,4.188,17.453a.216.216,0,0,0,.208.224Z" transform="translate(-1563.436 -4091.346)" fill="#fff"/>
        </g>
      </g>
      <path id="Path_9559" data-name="Path 9559" d="M1581.45,4174.349h-9.26l-2.241-12.688h13.744Z" transform="translate(-1564.437 -4126.075)" fill="#ebebeb"/>
    </g>
    <g id="Group_7743" data-name="Group 7743" transform="translate(263.144 3180.143)">
      <g id="Group_7742" data-name="Group 7742" transform="translate(0 0)">
        <path id="Path_9560" data-name="Path 9560" d="M526.069,3305.992c9.872,16.247,1.988,33.764-19.29,40.58-22.6,7.239-51.945-.278-66.428-16.8-11.4,9.048-28.776,16.023-48.7,18.494-36.733,4.555-68.207-7.917-70.3-27.856a22.062,22.062,0,0,1,2.164-11.762c-31.063,7.594-49.317-.694-57.052-23.22-5.708-16.622,10.61-45.826,55.44-51.384,5.716-.709,11.317-1.169,16.746-1.4-.119-.551-1.722-3.677.6-9.127,10.1-23.687,45.679-27.386,82.81-22.458,31.266,4.15,46.88,19.426,54.12,33.253,0,0,88.874-26.384,104.829,28.292C581.006,3262.61,598.789,3310.809,526.069,3305.992Z" transform="translate(-265.364 -3207.017)" fill="#fff" stroke="#ebebeb" stroke-miterlimit="10" stroke-width="1"/>
        <circle id="Ellipse_373" data-name="Ellipse 373" cx="9.6" cy="9.6" r="9.6" transform="translate(25.627 91.771)" fill="#fff" stroke="#ebebeb" stroke-miterlimit="10" stroke-width="1"/>
        <circle id="Ellipse_374" data-name="Ellipse 374" cx="5.689" cy="5.689" r="5.689" transform="translate(39.138 115.328)" fill="#fff" stroke="#ebebeb" stroke-miterlimit="10" stroke-width="1"/>
        <circle id="Ellipse_375" data-name="Ellipse 375" cx="4.866" cy="4.866" r="4.866" transform="translate(50.516 129.706)" fill="#fff" stroke="#ebebeb" stroke-miterlimit="10" stroke-width="1"/>
      </g>
    </g>
    <g id="Group_7759" data-name="Group 7759" transform="translate(322.391 3286.048)">
      <g id="Group_7758" data-name="Group 7758">
        <g id="Group_7744" data-name="Group 7744" transform="translate(5.409 91.837)">
          <path id="Path_9561" data-name="Path 9561" d="M519.928,3835.773l8.809,1.656c7.746,27.669,5.843,60.656,23.153,117.149,0,0-1.654.721-1.892,0-14.4-43.683-22.278-77.933-25.073-82.639C518.716,3861.484,510.951,3852.594,519.928,3835.773Z" transform="translate(-491.856 -3831.505)" fill="#ffd8a3"/>
          <path id="Path_9562" data-name="Path 9562" d="M467.348,3830.342c-10.84,20.218-2.723,18.651-2.371,29.107,1.016,30.154-18.209,45.492-24.177,91.616,0,0,2.363-.121,2.431-.788,3.708-36.8,36.313-72,37.655-106.167.086-2.2.183-8.783-2.386-11.138C474.571,3829.372,467.348,3830.342,467.348,3830.342Z" transform="translate(-440.8 -3827.729)" fill="#f7c371"/>
          <path id="Path_9563" data-name="Path 9563" d="M448.044,4203.917h-7.085s-.342-2.011,1.238-2.333C443.193,4201.38,444.953,4201.849,448.044,4203.917Z" transform="translate(-440.887 -4080.325)" fill="#7b88ac"/>
          <path id="Path_9564" data-name="Path 9564" d="M628.842,4204.461h-6.228s-.3-2.01,1.089-2.332C624.578,4201.926,626.125,4202.393,628.842,4204.461Z" transform="translate(-564.464 -4080.696)" fill="#7b88ac"/>
          <path id="Path_9565" data-name="Path 9565" d="M481.969,3893.792s29.739,4.781,36.554,2.869c0,0-6.506-67.579-11.152-71.723s-13.011-1.913-13.011-1.913a26.294,26.294,0,0,0-4.337,28.052C496.219,3865.74,481.969,3893.792,481.969,3893.792Z" transform="translate(-468.806 -3822.424)" fill="#f46973"/>
        </g>
        <g id="Group_7757" data-name="Group 7757">
          <g id="Group_7747" data-name="Group 7747" transform="translate(21.538 42.811)">
            <g id="Group_7745" data-name="Group 7745" transform="translate(27.468 18.245)">
              <path id="Path_9566" data-name="Path 9566" d="M578.051,3744.7c1.855-1.241,7.34-.852,6.931-2.756-.366-1.706-3.477-3.9-7.828,1.277Z" transform="translate(-577.154 -3735.563)" fill="#f8c471"/>
              <path id="Path_9567" data-name="Path 9567" d="M585.643,3739.3c.456,3.052,4.172,2.484,5.3,2.034,1.241-.495,1.529-2.907.809-3.689S585.47,3738.137,585.643,3739.3Z" transform="translate(-582.926 -3733.81)" fill="#f8c471"/>
              <path id="Path_9568" data-name="Path 9568" d="M590.266,3730.13c1-1.519,1.415-3.736.754-3.954-.746-.247-.743,1.726-1.973,2.87-1.33,1.242-2.1,2.093-1.65,2.631S589.265,3731.652,590.266,3730.13Z" transform="translate(-584.034 -3726.156)" fill="#f8c471"/>
              <path id="Path_9569" data-name="Path 9569" d="M599.042,3734.528c1.445-.584,2.065-1.222,1.866-1.587s-1,.018-2.446.6-3.425.965-3.226,1.331S597.6,3735.108,599.042,3734.528Z" transform="translate(-589.445 -3730.674)" fill="#f8c471"/>
              <path id="Path_9570" data-name="Path 9570" d="M602.708,3740.036c1.564-.287,2.787-1.23,2.668-1.621s-1.491.216-3.054.5-2.561.558-2.441.949S601.145,3740.323,602.708,3740.036Z" transform="translate(-592.608 -3734.409)" fill="#f8c471"/>
              <path id="Path_9571" data-name="Path 9571" d="M599.645,3746.125c1.55-.35,2.335-.9,2.2-1.283s-1.107.037-2.655.387-2.629.617-2.5,1.005S598.1,3746.476,599.645,3746.125Z" transform="translate(-590.441 -3738.763)" fill="#f8c471"/>
            </g>
            <g id="Group_7746" data-name="Group 7746">
              <path id="Path_9572" data-name="Path 9572" d="M509.292,3669.293c-4.994-3.056-18.043,29.483-18.047,30.729,0,0,2.567,2.006,3.642,1C497.667,3698.429,511.522,3670.658,509.292,3669.293Z" transform="translate(-491.245 -3669.091)" fill="#ffb2b0"/>
              <path id="Path_9573" data-name="Path 9573" d="M520.324,3748.6c1.214,4.437-24.187,6.526-25.128,6.25,0,0-1.983-2.878-.99-3.462C496.773,3749.878,519.781,3746.619,520.324,3748.6Z" transform="translate(-493.07 -3722.756)" fill="#ffb2b0"/>
              <path id="Path_9574" data-name="Path 9574" d="M568.075,3746.761l-.732-1.2-5.323-.519a10.942,10.942,0,0,0,1.314,2.721C563.821,3748.138,568.075,3746.761,568.075,3746.761Z" transform="translate(-539.392 -3720.757)" fill="#eaeaea"/>
              <path id="Path_9575" data-name="Path 9575" d="M571.552,3750.107l.181,1.4-3.875,3.692a11.006,11.006,0,0,1-.681-2.968C567.325,3751.636,571.552,3750.107,571.552,3750.107Z" transform="translate(-542.888 -3724.204)" fill="#eaeaea"/>
            </g>
          </g>
          <g id="Group_7753" data-name="Group 7753">
            <g id="Group_7752" data-name="Group 7752">
              <g id="Group_7748" data-name="Group 7748" transform="translate(0 1.256)">
                <path id="Path_9576" data-name="Path 9576" d="M465.515,3593.891c5.734-4.794-2.65-6.561-1.94-11.06s1.6-3,2.74-8.787-.255-8.075-.119-11.486,2.822-8.82,1.193-13.266-2.92-3.076-4.368-6.626-3.339.068-6.284,1.377-5.579-7.118-10.779-4.364-5.2,9.111-6.956,12.545-6.8,4.5-8.04,10.783,2.392,5.113.476,9.374-6.258,3.575-7.5,9.861c0,0-1.069,6.318,6.054,6.522s4.616,3.833,12.508,1.956,4.8,4.728,10.416,2.573S460.393,3598.172,465.515,3593.891Z" transform="translate(-423.883 -3539.122)" fill="#2d356b"/>
              </g>
              <g id="Group_7749" data-name="Group 7749" transform="translate(23.858 21.97)">
                <path id="Path_9577" data-name="Path 9577" d="M513.086,3603.907l6.564,4.124,1.178,14.194-5.274-1.907Z" transform="translate(-508.423 -3603.907)" fill="#f7c371"/>
                <path id="Path_9578" data-name="Path 9578" d="M523.374,3721.037c-4.218-2.763-14.011-8.872-24.871-1.309,3.248-9.538,6.2-18.916,6.3-26.762.194-14.545-12.167-31.628-1.939-38.2,10.86-6.982,23.756,25.259,23.756,25.259C515.763,3686.13,518.767,3703.643,523.374,3721.037Z" transform="translate(-498.503 -3637.829)" fill="#fc8c99"/>
                <path id="Path_9579" data-name="Path 9579" d="M514.491,3652.3l1.907-.224,8.528,8.022-2.525,2.132S516.679,3656.394,514.491,3652.3Z" transform="translate(-509.379 -3636.674)" fill="#fff"/>
                <path id="Path_9580" data-name="Path 9580" d="M533.077,3662.027c.041-.029.079-.057.119-.086-2.251-4.49-7.169-11.367-11.918-10.925C525.6,3654.873,533.077,3662.027,533.077,3662.027Z" transform="translate(-513.996 -3635.94)" fill="#f7c371"/>
              </g>
              <g id="Group_7751" data-name="Group 7751" transform="translate(18.431)">
                <g id="Group_7750" data-name="Group 7750">
                  <path id="Path_9581" data-name="Path 9581" d="M496.912,3565.4c-3.386-1.307-10.286-3.13-13.134-8.73-3.7-7.28-2.16-11.4-.177-16.394,3.781-9.527,20.047-3.245,18.71-.461C500.535,3543.508,509.184,3570.134,496.912,3565.4Z" transform="translate(-481.528 -3535.192)" fill="#2d356b"/>
                  <path id="Path_9582" data-name="Path 9582" d="M523.184,3576.951c1.27.128,4.2-6.2,5.389-11.168.391-1.637-1.376-2.012-.693-7.661.4-3.317-.669-8.071-5.9-11.933-4.939-3.646-6.37,6.627-7.06,8.964-1.967,6.657-4.13,10.744-2.721,14.2C514.949,3576.111,521.844,3576.485,523.184,3576.951Z" transform="translate(-502.085 -3542.146)" fill="#ffd8a3"/>
                  <path id="Path_9583" data-name="Path 9583" d="M549.551,3615.789a.294.294,0,0,1,.3-.291.31.31,0,0,1,.22.363.3.3,0,0,1-.3.291A.309.309,0,0,1,549.551,3615.789Z" transform="translate(-527.8 -3589.82)" fill="#ffab00"/>
                  <path id="Path_9584" data-name="Path 9584" d="M549.929,3587.126c-.128-.889.267-1.671.878-1.749s1.213.58,1.34,1.469-.266,1.672-.878,1.749S550.056,3588.015,549.929,3587.126Z" transform="translate(-528.043 -3569.327)" fill="#2d356b"/>
                  <path id="Path_9585" data-name="Path 9585" d="M546.249,3586.907c.632-1.374,1.629-2.808,4.084-2.411A8.581,8.581,0,0,0,546.249,3586.907Z" transform="translate(-525.556 -3568.687)" fill="#2d356b"/>
                  <path id="Path_9586" data-name="Path 9586" d="M553.643,3628.066c.059-.2.622.594.921.651.848.159.494,1.225-.343.979C553.894,3629.6,553.581,3628.281,553.643,3628.066Z" transform="translate(-530.58 -3598.349)" fill="#f36973"/>
                  <path id="Path_9587" data-name="Path 9587" d="M552.37,3616.47c-.556-.289,3.467-1.02,2.625.234A6.174,6.174,0,0,1,552.37,3616.47Z" transform="translate(-529.684 -3590.159)" fill="#f36973"/>
                  <path id="Path_9588" data-name="Path 9588" d="M547.762,3572.369a5.232,5.232,0,0,0-6.6,2.64C543.082,3572.864,544.48,3572.132,547.762,3572.369Z" transform="translate(-522.092 -3560.263)" fill="#2d356b"/>
                  <path id="Path_9589" data-name="Path 9589" d="M561.509,3599.418l-2.026.4.436-5.026,2.568,3.868Z" transform="translate(-534.559 -3575.739)" fill="#ffd8a3"/>
                  <path id="Path_9590" data-name="Path 9590" d="M561.016,3611.271l1.841-2.953-1.47-.2Z" transform="translate(-535.601 -3584.8)" fill="#ffd8a3"/>
                  <path id="Path_9591" data-name="Path 9591" d="M552.477,3621.209a37.3,37.3,0,0,0,1.409-4.259l-3.549-.358S550.662,3620.42,552.477,3621.209Z" transform="translate(-528.337 -3590.566)" fill="#ffab00"/>
                  <path id="Path_9592" data-name="Path 9592" d="M552.1,3619.253l2.021.2c.172-.535.338-1.1.5-1.68l-2.9-.293Z" transform="translate(-529.276 -3591.173)" fill="#fff"/>
                  <path id="Path_9593" data-name="Path 9593" d="M504.238,3590.773c.236-1.54.875-2.628-.293-2.8s-2.311.928-2.547,2.47.523,2.934,1.694,3.112S504,3592.315,504.238,3590.773Z" transform="translate(-495.016 -3571.082)" fill="#f7c371"/>
                </g>
                <path id="Path_9594" data-name="Path 9594" d="M525.843,3545.172c-4.3,5.257-11.658,12.832-10.9,21.016-2.442-8.878.183-20.126,6.325-24.247C521.781,3542.858,526.882,3543.112,525.843,3545.172Z" transform="translate(-503.645 -3539.783)" fill="#2d356b"/>
              </g>
            </g>
          </g>
          <g id="Group_7756" data-name="Group 7756" transform="translate(17.443 42.448)">
            <g id="Group_7754" data-name="Group 7754" transform="translate(29.474 15.588)">
              <path id="Path_9595" data-name="Path 9595" d="M572.068,3740.213c1.725-1.944,8.016-3.12,7-5.144-.914-1.813-5.064-3.374-8.441,3.741Z" transform="translate(-570.623 -3728.159)" fill="#ffd9a4"/>
              <path id="Path_9596" data-name="Path 9596" d="M578.133,3731.927c1.411,3.3,5.429,1.57,6.568.732,1.251-.922.867-3.724-.175-4.394S577.6,3730.664,578.133,3731.927Z" transform="translate(-575.708 -3724.506)" fill="#ffd9a4"/>
              <path id="Path_9597" data-name="Path 9597" d="M582.7,3721.384c.681-2,.5-4.624-.314-4.675-.912-.059-.329,2.162-1.378,3.813-1.133,1.79-1.751,2.974-1.085,3.448S582.021,3723.392,582.7,3721.384Z" transform="translate(-576.764 -3716.708)" fill="#ffd9a4"/>
              <path id="Path_9598" data-name="Path 9598" d="M591.955,3722.639c1.455-1.084,1.966-1.984,1.634-2.337s-1.123.315-2.578,1.4-3.573,2.094-3.242,2.448S590.5,3723.717,591.955,3722.639Z" transform="translate(-582.264 -3719.087)" fill="#ffd9a4"/>
              <path id="Path_9599" data-name="Path 9599" d="M597.378,3727.854c1.676-.783,2.777-2.205,2.528-2.61s-1.616.681-3.291,1.465-2.721,1.382-2.47,1.787S595.7,3728.638,597.378,3727.854Z" transform="translate(-586.599 -3722.455)" fill="#ffd9a4"/>
              <path id="Path_9600" data-name="Path 9600" d="M595.7,3735.846c1.642-.85,2.366-1.7,2.106-2.093s-1.236.367-2.877,1.217-2.78,1.468-2.519,1.866S594.058,3736.7,595.7,3735.846Z" transform="translate(-585.42 -3728.23)" fill="#ffd9a4"/>
            </g>
            <g id="Group_7755" data-name="Group 7755">
              <path id="Path_9601" data-name="Path 9601" d="M489.745,3668.025c-6.524-1.973-11.65,38.512-11.287,39.917,0,0,3.481,1.5,4.4.058C485.221,3704.26,492.658,3668.906,489.745,3668.025Z" transform="translate(-478.439 -3667.956)" fill="#ffb2b0"/>
              <path id="Path_9602" data-name="Path 9602" d="M508.594,3749.453c2.672,4.641-25.322,14.464-26.463,14.431,0,0-3.08-2.659-2.134-3.609C482.445,3757.819,507.4,3747.38,508.594,3749.453Z" transform="translate(-479.376 -3723.211)" fill="#ffb2b0"/>
              <path id="Path_9603" data-name="Path 9603" d="M559.418,3746.854l-1.177-1.138-6.147.981s1.622,2.4,2.28,2.679S559.418,3746.854,559.418,3746.854Z" transform="translate(-528.544 -3720.853)" fill="#eaeaea"/>
              <path id="Path_9604" data-name="Path 9604" d="M565.692,3748.938l.617,1.527-3.279,5.3s-1.63-2.427-1.64-3.143S565.692,3748.938,565.692,3748.938Z" transform="translate(-534.868 -3723.045)" fill="#eaeaea"/>
            </g>
          </g>
        </g>
      </g>
    </g>
    <g id="Group_7741" data-name="Group 7741" transform="translate(328.818 3357.029)">
      <rect id="Rectangle_2632" data-name="Rectangle 2632" width="47.806" height="24.578" rx="6.672" transform="translate(0 0)" fill="#fff" stroke="#231f20" stroke-miterlimit="10" stroke-width="0.25"/>
      <text id="Akiko" transform="translate(10.903 15.789)" fill="#2d356b" font-size="10" font-family="TrebuchetMS-Bold, Trebuchet MS" font-weight="700"><tspan x="0" y="0">Akiko</tspan></text>
    </g>
  </g>
</svg>
