<svg xmlns="http://www.w3.org/2000/svg" width="543" height="345.855" viewBox="0 0 543 345.855">
  <g id="Group_8433" data-name="Group 8433" transform="translate(-105.342 -9637.825)">
    <g id="Group_8342" data-name="Group 8342" transform="translate(105.342 9637.825)">
      <g id="Group_8341" data-name="Group 8341" transform="translate(0)">
        <g id="Group_8324" data-name="Group 8324">
          <g id="Group_8323" data-name="Group 8323">
            <g id="Group_8322" data-name="Group 8322">
              <g id="Group_8321" data-name="Group 8321">
                <g id="Group_8320" data-name="Group 8320">
                  <g id="Group_8319" data-name="Group 8319">
                    <g id="Group_8309" data-name="Group 8309" transform="translate(0.519)">
                      <g id="Group_8305" data-name="Group 8305" transform="translate(0.119)">
                        <path id="Path_10580" data-name="Path 10580" d="M648.706,9650.874h.643V9638.74H106.986v253.577H648.7v-25.472h.005Z" transform="translate(-106.986 -9638.386)" fill="#fff"/>
                        <rect id="Rectangle_2679" data-name="Rectangle 2679" width="541.725" height="0.709" transform="translate(0 253.577)" fill="#a0bacb"/>
                        <rect id="Rectangle_2680" data-name="Rectangle 2680" width="542.362" height="0.709" fill="#7b88ac"/>
                      </g>
                      <g id="Group_8306" data-name="Group 8306" transform="translate(0 51.814)">
                        <path id="Path_10581" data-name="Path 10581" d="M194.262,9772.521v-.186h-7.616v.186H107.913v154.6H269.6v-154.6Zm68.644,4.963v34H194.262v-34Zm-76.26,39.863v64.947H114.607v-64.947Zm7.616,64.947v-64.947h68.644v64.947Zm-7.616-104.811v34H114.607v-34ZM114.607,9888.16h72.039v34H114.607Zm79.655,34v-34h68.644v34Z" transform="translate(-107.435 -9771.981)" fill="#ebebeb"/>
                        <path id="Path_10582" data-name="Path 10582" d="M269.323,9926.914H106.68V9771.606h78.733v-.186h8.573v.186h75.337Zm-161.687-.709H268.367v-153.89H193.029v-.186h-6.66v.186H107.636Zm154.993-4.255h-69.6v-34.705h69.6Zm-68.644-.709h67.687v-33.286H193.985Zm-7.617.709H113.374v-34.705h72.995Zm-72.038-.709h71.082v-33.286H114.33Zm148.3-39.152h-69.6v-65.656h69.6Zm-68.644-.71h67.687v-64.238H193.985Zm-7.617.71H113.374v-65.656h72.995Zm-72.038-.71h71.082v-64.238H114.33Zm148.3-70.1h-69.6v-34.7h69.6Zm-68.644-.708h67.687v-33.287H193.985Zm-7.617.708H113.374v-34.7h72.995Zm-72.038-.708h71.082v-33.287H114.33Z" transform="translate(-106.68 -9771.421)" fill="#ebebeb"/>
                      </g>
                      <g id="Group_8307" data-name="Group 8307" transform="translate(218.804 50.899)">
                        <path id="Path_10583" data-name="Path 10583" d="M738.612,9770.162v-.187h-6.987v.187H659.41v154.6h148.3v-154.6Zm62.962,4.964v34H738.612v-34Zm-69.948,39.861v64.948H665.55v-64.948Zm6.987,64.948v-64.948h62.962v64.948Zm-6.987-104.81v34H665.55v-34ZM665.55,9885.8h66.075V9919.8H665.55Zm73.062,33.994V9885.8h62.962V9919.8Z" transform="translate(-658.971 -9769.621)" fill="#ebebeb"/>
                        <path id="Path_10584" data-name="Path 10584" d="M807.459,9924.556H658.279V9769.248h72.216v-.187h7.863v.187h69.1Zm-148.3-.709H806.582V9769.958h-69.1v-.187h-6.109v.188H659.156Zm142.164-4.255H737.481v-34.7h63.839Zm-62.962-.71h62.084V9885.6H738.358Zm-6.986.71H664.419v-34.7h66.953Zm-66.076-.71h65.2V9885.6H665.3Zm136.024-39.151H737.481v-65.657h63.839Zm-62.962-.709h62.084v-64.239H738.358Zm-6.986.709H664.419v-65.657h66.953Zm-66.076-.709h65.2v-64.239H665.3Zm136.024-70.105H737.481v-34.7h63.839Zm-62.962-.709h62.084V9774.92H738.358Zm-6.986.709H664.419v-34.7h66.953Zm-66.076-.709h65.2V9774.92H665.3Z" transform="translate(-658.279 -9769.062)" fill="#ebebeb"/>
                      </g>
                      <g id="Group_8308" data-name="Group 8308" transform="translate(414.22 51.814)">
                        <path id="Path_10585" data-name="Path 10585" d="M1280.5,9922.156h-40.8v-34h40.8v-5.865h-40.8v-64.947h40.8v-5.867h-40.8v-34h40.8v-4.963h-40.8v-.186h-7.617v.186h-78.732v154.6H1280.5Zm-48.418,0h-72.039v-34h72.039Zm0-39.861h-72.039v-64.947h72.039Zm0-70.814h-72.039v-34h72.039Z" transform="translate(-1152.873 -9771.981)" fill="#ebebeb"/>
                        <path id="Path_10586" data-name="Path 10586" d="M1374.758,10104.766h41.28v-.71h-40.323v-33.287h40.323v-.708h-41.28Z" transform="translate(-1288.409 -9954.234)" fill="#ebebeb"/>
                        <path id="Path_10587" data-name="Path 10587" d="M1374.758,9953.133h41.28v-.709h-40.323v-64.238h40.323v-.709h-41.28Z" transform="translate(-1288.409 -9842.465)" fill="#ebebeb"/>
                        <path id="Path_10588" data-name="Path 10588" d="M1374.758,9819.4h41.28v-.71h-40.323v-33.286h40.323v-.709h-41.28Z" transform="translate(-1288.409 -9779.549)" fill="#ebebeb"/>
                        <path id="Path_10589" data-name="Path 10589" d="M1242.374,9784.7h-72.994V9819.4h72.994Zm-.957,33.994h-71.082V9785.41h71.082Z" transform="translate(-1162.685 -9779.549)" fill="#ebebeb"/>
                        <path id="Path_10590" data-name="Path 10590" d="M1279.748,9926.206H1153.075V9772.315h78.732v-.186h6.66v.186h41.28v-.709h-40.323v-.186h-8.573v.186h-78.732v155.308h127.629Z" transform="translate(-1152.119 -9771.421)" fill="#ebebeb"/>
                        <path id="Path_10591" data-name="Path 10591" d="M1169.379,10104.766h72.994v-34.705h-72.994Zm.956-34h71.082v33.287h-71.082Z" transform="translate(-1162.685 -9954.234)" fill="#ebebeb"/>
                        <path id="Path_10592" data-name="Path 10592" d="M1242.374,9887.477h-72.994v65.656h72.994Zm-.957,64.947h-71.082v-64.238h71.082Z" transform="translate(-1162.685 -9842.465)" fill="#ebebeb"/>
                      </g>
                    </g>
                    <g id="Group_8310" data-name="Group 8310" transform="translate(0 223.404)">
                      <path id="Path_10593" data-name="Path 10593" d="M647.7,10214.617H105.99v87h-.648v35.146H647.7v-118.443h.005Z" transform="translate(-105.342 -10214.316)" fill="#f9f9f9"/>
                      <rect id="Rectangle_2681" data-name="Rectangle 2681" width="540.614" height="0.508" transform="translate(1.906 121.75)" fill="#f9f9f9"/>
                      <rect id="Rectangle_2682" data-name="Rectangle 2682" width="541.73" height="0.508" transform="translate(0.638)" fill="#f9f9f9"/>
                    </g>
                    <g id="Group_8312" data-name="Group 8312" transform="translate(296.181 15.518)">
                      <path id="Path_10594" data-name="Path 10594" d="M855.812,9886.375l12.977,5.717s7.938-26.254,4.636-28.467S860.406,9871.5,855.812,9886.375Z" transform="translate(-855.812 -9791.382)" fill="#fff4ba"/>
                      <path id="Path_10595" data-name="Path 10595" d="M857.025,9890.615l8.65,3.811s8-22.375,5.866-23.973S861.623,9877.934,857.025,9890.615Z" transform="translate(-856.555 -9795.636)" fill="#fff"/>
                      <path id="Path_10596" data-name="Path 10596" d="M918.2,9891.926l-16.258,8.588s-5.849-33.876-2.245-36.159S913.561,9878.714,918.2,9891.926Z" transform="translate(-881.958 -9791.885)" fill="#fff4ba"/>
                      <path id="Path_10597" data-name="Path 10597" d="M903.525,9897.788c-2.213-10.689.024-20.527,5.1-25.353-3.62-5.585-7.117-9.228-8.931-8.081-3.6,2.283,2.245,36.159,2.245,36.159l1.973-1.042C903.775,9898.917,903.644,9898.356,903.525,9897.788Z" transform="translate(-881.958 -9791.885)" fill="#fff4ba"/>
                      <path id="Path_10598" data-name="Path 10598" d="M923.139,9898.779l-11.7,6.381s-6.023-27.885-3.447-29.609S919.031,9887.811,923.139,9898.779Z" transform="translate(-887.361 -9798.779)" fill="#fff"/>
                      <path id="Path_10599" data-name="Path 10599" d="M897.727,9677.835v72.393h1.185v-72.393" transform="translate(-881.471 -9677.835)" fill="#9999a5"/>
                      <path id="Path_10600" data-name="Path 10600" d="M876.679,9912.084H893.19s-3.641-44.6-7.705-45.274S876,9897.846,876.679,9912.084Z" transform="translate(-868.551 -9793.512)" fill="#fff4ba"/>
                      <path id="Path_10601" data-name="Path 10601" d="M887.144,9884.285c1.907,0,3.693,1.5,5.23,4.1-1.4-10.784-3.257-21.247-5.209-21.572-2.749-.46-6.116,13.91-7.8,27.662C881.262,9888.23,884.044,9884.285,887.144,9884.285Z" transform="translate(-870.23 -9793.512)" fill="#fff4ba"/>
                      <path id="Path_10602" data-name="Path 10602" d="M881.031,9929.361h13.052s-2.88-33.088-6.093-33.592S880.5,9918.8,881.031,9929.361Z" transform="translate(-871.222 -9811.241)" fill="#fff"/>
                      <g id="Group_8311" data-name="Group 8311" transform="translate(11.516 69.5)">
                        <path id="Path_10603" data-name="Path 10603" d="M896.427,9862.262c-4.319-8.248-8.891-5.536-10.922-.113C889.188,9860.566,891.728,9860.341,896.427,9862.262Z" transform="translate(-885.505 -9857.033)" fill="#9999a5"/>
                      </g>
                      <rect id="Rectangle_2683" data-name="Rectangle 2683" width="3.556" height="4.746" transform="translate(15.135 65.783)" fill="#9999a5"/>
                    </g>
                    <g id="Group_8314" data-name="Group 8314" transform="translate(176.022 15.518)">
                      <path id="Path_10604" data-name="Path 10604" d="M551.351,9886.375l12.976,5.717s7.938-26.254,4.636-28.467S555.945,9871.5,551.351,9886.375Z" transform="translate(-551.351 -9791.382)" fill="#fff4ba"/>
                      <path id="Path_10605" data-name="Path 10605" d="M552.563,9890.615l8.65,3.811s8-22.375,5.866-23.973S557.162,9877.934,552.563,9890.615Z" transform="translate(-552.093 -9795.636)" fill="#fff"/>
                      <path id="Path_10606" data-name="Path 10606" d="M613.738,9891.926l-16.257,8.588s-5.849-33.876-2.245-36.159S609.1,9878.714,613.738,9891.926Z" transform="translate(-577.497 -9791.885)" fill="#fff4ba"/>
                      <path id="Path_10607" data-name="Path 10607" d="M599.064,9897.788c-2.213-10.689.024-20.527,5.1-25.353-3.62-5.585-7.117-9.228-8.931-8.081-3.6,2.283,2.245,36.159,2.245,36.159l1.973-1.042C599.314,9898.917,599.183,9898.356,599.064,9897.788Z" transform="translate(-577.497 -9791.885)" fill="#fff4ba"/>
                      <path id="Path_10608" data-name="Path 10608" d="M618.678,9898.779l-11.7,6.381s-6.023-27.885-3.447-29.609S614.57,9887.811,618.678,9898.779Z" transform="translate(-582.9 -9798.779)" fill="#fff"/>
                      <path id="Path_10609" data-name="Path 10609" d="M593.266,9677.835v72.393h1.185v-72.393" transform="translate(-577.01 -9677.835)" fill="#9999a5"/>
                      <path id="Path_10610" data-name="Path 10610" d="M572.218,9912.084h16.51s-3.641-44.6-7.705-45.274S571.542,9897.846,572.218,9912.084Z" transform="translate(-564.09 -9793.512)" fill="#fff4ba"/>
                      <path id="Path_10611" data-name="Path 10611" d="M582.683,9884.285c1.907,0,3.693,1.5,5.229,4.1-1.4-10.784-3.257-21.247-5.21-21.572-2.749-.46-6.116,13.91-7.8,27.662C576.8,9888.23,579.583,9884.285,582.683,9884.285Z" transform="translate(-565.769 -9793.512)" fill="#fff4ba"/>
                      <path id="Path_10612" data-name="Path 10612" d="M576.57,9929.361h13.052s-2.88-33.088-6.093-33.592S576.035,9918.8,576.57,9929.361Z" transform="translate(-566.761 -9811.241)" fill="#fff"/>
                      <g id="Group_8313" data-name="Group 8313" transform="translate(11.516 69.5)">
                        <path id="Path_10613" data-name="Path 10613" d="M591.966,9862.262c-4.318-8.248-8.89-5.536-10.922-.113C584.727,9860.566,587.267,9860.341,591.966,9862.262Z" transform="translate(-581.044 -9857.033)" fill="#9999a5"/>
                      </g>
                      <rect id="Rectangle_2684" data-name="Rectangle 2684" width="3.556" height="4.746" transform="translate(15.135 65.783)" fill="#9999a5"/>
                    </g>
                    <g id="Group_8316" data-name="Group 8316" transform="translate(50.186 14.087)">
                      <path id="Path_10614" data-name="Path 10614" d="M234.74,9812.689l8.621,3.8s5.273-17.441,3.079-18.91S237.792,9802.809,234.74,9812.689Z" transform="translate(-234.74 -9749.582)" fill="#fff4ba"/>
                      <path id="Path_10615" data-name="Path 10615" d="M235.546,9815.507l5.747,2.532s5.314-14.865,3.9-15.928S238.6,9807.082,235.546,9815.507Z" transform="translate(-235.233 -9752.407)" fill="#fff"/>
                      <path id="Path_10616" data-name="Path 10616" d="M276.186,9816.376l-10.8,5.706s-3.886-22.5-1.491-24.021S273.105,9807.6,276.186,9816.376Z" transform="translate(-252.11 -9749.916)" fill="#fff4ba"/>
                      <path id="Path_10617" data-name="Path 10617" d="M266.438,9820.271c-1.47-7.1.016-13.637,3.39-16.843-2.405-3.71-4.728-6.131-5.933-5.368-2.395,1.517,1.491,24.021,1.491,24.021l1.31-.692C266.6,9821.021,266.517,9820.649,266.438,9820.271Z" transform="translate(-252.11 -9749.915)" fill="#fff4ba"/>
                      <path id="Path_10618" data-name="Path 10618" d="M279.468,9820.929l-7.774,4.24s-4-18.524-2.29-19.67S276.739,9813.644,279.468,9820.929Z" transform="translate(-255.699 -9754.497)" fill="#fff"/>
                      <path id="Path_10619" data-name="Path 10619" d="M262.586,9674.147v48.094h.787v-48.094" transform="translate(-251.786 -9674.147)" fill="#9999a5"/>
                      <path id="Path_10620" data-name="Path 10620" d="M248.6,9829.767h10.969s-2.419-29.625-5.119-30.076S248.154,9820.31,248.6,9829.767Z" transform="translate(-243.203 -9750.995)" fill="#fff4ba"/>
                      <path id="Path_10621" data-name="Path 10621" d="M255.555,9811.3c1.267,0,2.453,1,3.474,2.722-.931-7.164-2.164-14.115-3.461-14.331-1.826-.3-4.063,9.241-5.181,18.377C251.647,9813.921,253.5,9811.3,255.555,9811.3Z" transform="translate(-244.318 -9750.995)" fill="#fff4ba"/>
                      <path id="Path_10622" data-name="Path 10622" d="M251.494,9841.247h8.671s-1.914-21.98-4.048-22.315S251.138,9834.23,251.494,9841.247Z" transform="translate(-244.978 -9762.775)" fill="#fff"/>
                      <g id="Group_8315" data-name="Group 8315" transform="translate(7.651 46.172)">
                        <path id="Path_10623" data-name="Path 10623" d="M261.722,9796.67c-2.869-5.48-5.906-3.678-7.256-.075C256.913,9795.545,258.6,9795.394,261.722,9796.67Z" transform="translate(-254.466 -9793.196)" fill="#9999a5"/>
                      </g>
                      <rect id="Rectangle_2685" data-name="Rectangle 2685" width="2.363" height="3.153" transform="translate(10.055 43.702)" fill="#9999a5"/>
                    </g>
                    <g id="Group_8318" data-name="Group 8318" transform="translate(448.802 11.513)">
                      <path id="Path_10624" data-name="Path 10624" d="M1239.945,9806.053l8.621,3.8s5.273-17.441,3.08-18.911S1243,9796.173,1239.945,9806.053Z" transform="translate(-1239.945 -9742.944)" fill="#fff4ba"/>
                      <path id="Path_10625" data-name="Path 10625" d="M1240.751,9808.869l5.747,2.532s5.314-14.865,3.9-15.928S1243.806,9800.443,1240.751,9808.869Z" transform="translate(-1240.438 -9745.77)" fill="#fff"/>
                      <path id="Path_10626" data-name="Path 10626" d="M1281.392,9809.739l-10.8,5.705s-3.886-22.506-1.491-24.023S1278.31,9800.961,1281.392,9809.739Z" transform="translate(-1257.315 -9743.276)" fill="#fff4ba"/>
                      <path id="Path_10627" data-name="Path 10627" d="M1271.643,9813.634c-1.47-7.1.016-13.639,3.39-16.844-2.405-3.711-4.728-6.13-5.933-5.369-2.395,1.518,1.491,24.023,1.491,24.023l1.311-.692C1271.809,9814.383,1271.722,9814.011,1271.643,9813.634Z" transform="translate(-1257.315 -9743.277)" fill="#fff4ba"/>
                      <path id="Path_10628" data-name="Path 10628" d="M1284.673,9814.291l-7.774,4.24s-4-18.524-2.29-19.67S1281.944,9807.006,1284.673,9814.291Z" transform="translate(-1260.904 -9747.858)" fill="#fff"/>
                      <path id="Path_10629" data-name="Path 10629" d="M1267.791,9667.51V9715.6h.787V9667.51" transform="translate(-1256.991 -9667.51)" fill="#9999a5"/>
                      <path id="Path_10630" data-name="Path 10630" d="M1253.808,9823.13h10.969s-2.419-29.628-5.119-30.077S1253.359,9813.671,1253.808,9823.13Z" transform="translate(-1248.408 -9744.357)" fill="#fff4ba"/>
                      <path id="Path_10631" data-name="Path 10631" d="M1260.76,9804.662c1.267,0,2.453,1,3.474,2.722-.931-7.164-2.164-14.115-3.461-14.331-1.826-.3-4.063,9.241-5.181,18.378C1256.852,9807.284,1258.7,9804.662,1260.76,9804.662Z" transform="translate(-1249.523 -9744.357)" fill="#fff4ba"/>
                      <path id="Path_10632" data-name="Path 10632" d="M1256.7,9834.609h8.671s-1.914-21.982-4.048-22.317S1256.344,9827.591,1256.7,9834.609Z" transform="translate(-1250.182 -9756.136)" fill="#fff"/>
                      <g id="Group_8317" data-name="Group 8317" transform="translate(7.651 46.172)">
                        <path id="Path_10633" data-name="Path 10633" d="M1266.927,9790.032c-2.869-5.48-5.906-3.678-7.256-.074C1262.118,9788.906,1263.805,9788.756,1266.927,9790.032Z" transform="translate(-1259.671 -9786.559)" fill="#9999a5"/>
                      </g>
                      <rect id="Rectangle_2686" data-name="Rectangle 2686" width="2.363" height="3.153" transform="translate(10.055 43.702)" fill="#9999a5"/>
                    </g>
                  </g>
                </g>
              </g>
            </g>
          </g>
        </g>
        <g id="Group_8332" data-name="Group 8332" transform="translate(373.44 168.109)">
          <g id="Group_8331" data-name="Group 8331">
            <g id="Group_8325" data-name="Group 8325" transform="translate(11.691)">
              <path id="Path_10634" data-name="Path 10634" d="M1083.5,10096.514s-.967-5.794-1.406-7.068c-.566-1.646-.843-4.1.714-5.541s1.793-4.839,1.793-5.358.584-8.312,7.007-7.159c0,0,2.66.578,1.362,4.734,0,0-1.363,2.481.357,4.041s3.211,5.138,0,8.6-2.3,4.731-1.784,6.062c2.339,6.063-2.639,11.63-3.179,13.114s-1.189,3.924-.647,5.326l-1.889.031Z" transform="translate(-1081.642 -10071.271)" fill="#ebebeb"/>
            </g>
            <g id="Group_8326" data-name="Group 8326" transform="translate(16.361 5.866)">
              <path id="Path_10635" data-name="Path 10635" d="M1094.2,10122.778a.386.386,0,0,0,.057-.006.256.256,0,0,0,.222-.3c-.722-3.128.545-8.7.558-8.757.7-2.373.9-5.4-.256-13.131a26.471,26.471,0,0,1,.353-10.139,15.792,15.792,0,0,1,1.32-3.683.242.242,0,0,0-.126-.342.3.3,0,0,0-.384.111,15.9,15.9,0,0,0-1.363,3.784,26.907,26.907,0,0,0-.366,10.335c1.141,7.618.932,10.687.266,12.947-.057.246-1.307,5.745-.562,8.974A.279.279,0,0,0,1094.2,10122.778Z" transform="translate(-1093.682 -10086.396)" fill="#fff"/>
            </g>
            <g id="Group_8327" data-name="Group 8327" transform="translate(17.911 22.263)">
              <path id="Path_10636" data-name="Path 10636" d="M1099.915,10148.557s0-1.366,3.152-2.659a4.968,4.968,0,0,0,3.151-3.38c.808-2.731,3.071-2.013,4.525-1.222s4.759,0,4.763-4.1a2.535,2.535,0,0,1,1.127-3.307c2.109-1.151,2.917-5.259-1.608-5.219s-8.788,2.03-13.172,7.8c-6.092,8.028-3.72,12.079-3.72,12.079Z" transform="translate(-1097.68 -10128.673)" fill="#ebebeb"/>
            </g>
            <g id="Group_8328" data-name="Group 8328" transform="translate(18.45 25.142)">
              <path id="Path_10637" data-name="Path 10637" d="M1099.556,10153.354a.455.455,0,0,0,.088-.01.256.256,0,0,0,.184-.32,5.484,5.484,0,0,1-.018-2.682.3.3,0,0,0,.022-.053c2.444-8.205,14.493-13.658,14.615-13.713a.241.241,0,0,0,.128-.34.3.3,0,0,0-.383-.113c-.124.055-12.378,5.6-14.9,14.014a5.372,5.372,0,0,0,0,3.043A.279.279,0,0,0,1099.556,10153.354Z" transform="translate(-1099.068 -10136.097)" fill="#fff"/>
            </g>
            <g id="Group_8329" data-name="Group 8329" transform="translate(0 10.094)">
              <path id="Path_10638" data-name="Path 10638" d="M1065.008,10129.229s-3.309-1.675-2.66-5.022-2.725-4.1-3.5-4.214-5.839-1.962-5.061-8.717c0,0,.26-4.329-.649-5.888s-3.18-6.234,0-7.677,5.385,1.153,6.553,3.81c0,0,.908,3.059,1.687,3.81a17.008,17.008,0,0,1,5.969,14.257l-1.1,9.642Z" transform="translate(-1051.497 -10097.298)" fill="#ebebeb"/>
            </g>
            <g id="Group_8330" data-name="Group 8330" transform="translate(4.531 15.404)">
              <path id="Path_10639" data-name="Path 10639" d="M1072.679,10137.863a.272.272,0,0,0,.285-.244c.328-7.766-3.457-17.891-5.627-20.814a50.61,50.61,0,0,1-3.614-5.67.3.3,0,0,0-.38-.121.242.242,0,0,0-.137.338,51.487,51.487,0,0,0,3.653,5.732c2.135,2.877,5.857,12.854,5.533,20.516a.268.268,0,0,0,.275.264Z" transform="translate(-1063.18 -10110.989)" fill="#fff"/>
            </g>
          </g>
          <path id="Path_10640" data-name="Path 10640" d="M1085.469,10194.044h-12.235l-2.961-14.917h18.159Z" transform="translate(-1062.99 -10137.296)" fill="#ebebeb"/>
        </g>
        <g id="Group_8340" data-name="Group 8340" transform="translate(175.678 176.583)">
          <g id="Group_8339" data-name="Group 8339">
            <g id="Group_8333" data-name="Group 8333" transform="translate(9.945)">
              <path id="Path_10641" data-name="Path 10641" d="M577.751,10114.6s-.823-4.93-1.2-6.014c-.482-1.4-.718-3.486.607-4.713s1.525-4.119,1.525-4.559.5-7.072,5.961-6.09c0,0,2.263.49,1.159,4.027,0,0-1.159,2.111.3,3.436a4.962,4.962,0,0,1,0,7.318c-2.732,2.945-1.954,4.025-1.518,5.154,1.99,5.158-2.245,9.893-2.7,11.156s-1.012,3.338-.55,4.531l-1.607.025Z" transform="translate(-576.174 -10093.121)" fill="#ebebeb"/>
            </g>
            <g id="Group_8334" data-name="Group 8334" transform="translate(13.918 4.99)">
              <path id="Path_10642" data-name="Path 10642" d="M586.856,10136.937a.213.213,0,0,0,.049,0,.217.217,0,0,0,.189-.255c-.614-2.659.464-7.4.475-7.448.594-2.019.767-4.6-.218-11.17a22.513,22.513,0,0,1,.3-8.624,13.4,13.4,0,0,1,1.123-3.133.205.205,0,0,0-.107-.29.258.258,0,0,0-.326.095,13.436,13.436,0,0,0-1.16,3.218,22.9,22.9,0,0,0-.311,8.792c.971,6.48.793,9.09.227,11.015-.049.209-1.112,4.885-.478,7.634A.238.238,0,0,0,586.856,10136.937Z" transform="translate(-586.417 -10105.988)" fill="#fff"/>
            </g>
            <g id="Group_8335" data-name="Group 8335" transform="translate(15.237 18.938)">
              <path id="Path_10643" data-name="Path 10643" d="M591.719,10158.865s0-1.162,2.681-2.262a4.226,4.226,0,0,0,2.681-2.875c.688-2.324,2.612-1.713,3.849-1.039s4.048,0,4.052-3.486a2.155,2.155,0,0,1,.959-2.812c1.794-.979,2.482-4.475-1.368-4.439s-7.476,1.727-11.2,6.641c-5.182,6.828-3.165,10.273-3.165,10.273Z" transform="translate(-589.818 -10141.951)" fill="#ebebeb"/>
            </g>
            <g id="Group_8336" data-name="Group 8336" transform="translate(15.695 21.387)">
              <path id="Path_10644" data-name="Path 10644" d="M591.414,10162.947a.245.245,0,0,0,.075-.01.217.217,0,0,0,.157-.272,4.666,4.666,0,0,1-.015-2.281.208.208,0,0,0,.019-.043c2.079-6.981,12.329-11.619,12.432-11.665a.205.205,0,0,0,.108-.29.259.259,0,0,0-.326-.1c-.105.048-10.53,4.767-12.678,11.921a4.564,4.564,0,0,0,0,2.589A.238.238,0,0,0,591.414,10162.947Z" transform="translate(-590.998 -10148.266)" fill="#fff"/>
            </g>
            <g id="Group_8337" data-name="Group 8337" transform="translate(0 8.587)">
              <path id="Path_10645" data-name="Path 10645" d="M562.025,10142.424s-2.815-1.424-2.263-4.271-2.318-3.486-2.981-3.586-4.967-1.668-4.305-7.414c0,0,.221-3.682-.552-5.008s-2.7-5.3,0-6.531,4.581.982,5.574,3.242a11.751,11.751,0,0,0,1.435,3.24,14.47,14.47,0,0,1,5.078,12.129l-.94,8.2Z" transform="translate(-550.532 -10115.263)" fill="#ebebeb"/>
            </g>
            <g id="Group_8338" data-name="Group 8338" transform="translate(3.854 13.104)">
              <path id="Path_10646" data-name="Path 10646" d="M568.55,10149.769a.232.232,0,0,0,.243-.208c.279-6.6-2.941-15.218-4.787-17.706a43.131,43.131,0,0,1-3.074-4.823.256.256,0,0,0-.323-.1.205.205,0,0,0-.116.287,43.443,43.443,0,0,0,3.108,4.877c1.816,2.447,4.982,10.934,4.706,17.451a.228.228,0,0,0,.233.225Z" transform="translate(-560.47 -10126.907)" fill="#fff"/>
            </g>
          </g>
          <path id="Path_10647" data-name="Path 10647" d="M579.431,10197.56H569.022l-2.519-12.688H581.95Z" transform="translate(-560.309 -10149.286)" fill="#ebebeb"/>
        </g>
      </g>
    </g>
    <g id="Group_8363" data-name="Group 8363" transform="translate(117.198 9654.097)">
      <g id="Group_8361" data-name="Group 8361" transform="translate(0 0)">
        <g id="Group_8360" data-name="Group 8360">
          <g id="Group_8346" data-name="Group 8346" transform="translate(0 17.671)">
            <path id="Path_10648" data-name="Path 10648" d="M298.591,9850.684c0,2.468-1.065,4.467-2.394,4.467H138.3c-1.328,0-2.394-2-2.394-4.467V9736.069c0-2.459,1.066-4.457,2.394-4.457H296.2c1.328,0,2.394,2,2.394,4.457Z" transform="translate(-135.911 -9729.181)" fill="#40558e"/>
            <path id="Path_10649" data-name="Path 10649" d="M300.023,9832.349c-.1.2-22.392,16.4-22.392,16.518H140.748c-1.313,0-2.381-2.007-2.381-4.476v-114.6c0-2.468,1.068-4.452,2.381-4.452H297.654c1.313,0,2.37,1.984,2.37,4.452Z" transform="translate(-137.414 -9725.341)" fill="#fff"/>
            <g id="Group_8345" data-name="Group 8345" transform="translate(147.834 109.071)">
              <g id="Group_8344" data-name="Group 8344">
                <g id="Group_8343" data-name="Group 8343">
                  <path id="Path_10650" data-name="Path 10650" d="M373.362,9966.77h12.267l-14.8,14.68v-12.477A2.387,2.387,0,0,1,373.362,9966.77Z" transform="translate(-370.828 -9966.77)" fill="#2d356b"/>
                </g>
              </g>
            </g>
          </g>
          <path id="Path_10651" data-name="Path 10651" d="M298.558,9719.071v-24.351a2.315,2.315,0,0,0-2.4-2.211H138.3a2.3,2.3,0,0,0-2.392,2.211v24.351Z" transform="translate(-135.911 -9687.572)" fill="#2d356b"/>
          <g id="Group_8359" data-name="Group 8359" transform="translate(7.72)">
            <g id="Group_8358" data-name="Group 8358">
              <g id="Group_8347" data-name="Group 8347">
                <path id="Path_10652" data-name="Path 10652" d="M158.659,9686.006a1.337,1.337,0,0,1-1.369,1.287h-.1a1.339,1.339,0,0,1-1.375-1.287v-4.943a1.34,1.34,0,0,1,1.375-1.285h.1a1.338,1.338,0,0,1,1.369,1.285Z" transform="translate(-155.816 -9679.777)" fill="#fff4ba"/>
              </g>
              <g id="Group_8348" data-name="Group 8348" transform="translate(8.766)">
                <path id="Path_10653" data-name="Path 10653" d="M181.26,9686.006a1.339,1.339,0,0,1-1.373,1.287h-.1a1.336,1.336,0,0,1-1.37-1.287v-4.943a1.337,1.337,0,0,1,1.37-1.285h.1a1.34,1.34,0,0,1,1.373,1.285Z" transform="translate(-178.417 -9679.777)" fill="#fff4ba"/>
              </g>
              <g id="Group_8349" data-name="Group 8349" transform="translate(28.878)">
                <path id="Path_10654" data-name="Path 10654" d="M203.858,9686.006a1.335,1.335,0,0,1-1.372,1.287h-.093a1.336,1.336,0,0,1-1.375-1.287v-4.943a1.337,1.337,0,0,1,1.375-1.285h.093a1.336,1.336,0,0,1,1.372,1.285Z" transform="translate(-201.018 -9679.777)" fill="#fff4ba"/>
              </g>
              <g id="Group_8350" data-name="Group 8350" transform="translate(43.309)">
                <path id="Path_10655" data-name="Path 10655" d="M226.451,9686.006a1.338,1.338,0,0,1-1.369,1.287h-.1a1.338,1.338,0,0,1-1.373-1.287v-4.943a1.339,1.339,0,0,1,1.373-1.285h.1a1.339,1.339,0,0,1,1.369,1.285Z" transform="translate(-223.605 -9679.777)" fill="#fff4ba"/>
              </g>
              <g id="Group_8351" data-name="Group 8351" transform="translate(57.747)">
                <path id="Path_10656" data-name="Path 10656" d="M249.046,9686.006a1.334,1.334,0,0,1-1.37,1.287h-.1a1.336,1.336,0,0,1-1.37-1.287v-4.943a1.337,1.337,0,0,1,1.37-1.285h.1a1.335,1.335,0,0,1,1.37,1.285Z" transform="translate(-246.206 -9679.777)" fill="#fff4ba"/>
              </g>
              <g id="Group_8352" data-name="Group 8352" transform="translate(72.187)">
                <path id="Path_10657" data-name="Path 10657" d="M271.648,9686.006a1.337,1.337,0,0,1-1.367,1.287h-.1a1.334,1.334,0,0,1-1.367-1.287v-4.943a1.335,1.335,0,0,1,1.367-1.285h.1a1.338,1.338,0,0,1,1.367,1.285Z" transform="translate(-268.81 -9679.777)" fill="#fff4ba"/>
              </g>
              <g id="Group_8353" data-name="Group 8353" transform="translate(86.624)">
                <path id="Path_10658" data-name="Path 10658" d="M294.247,9686.006a1.342,1.342,0,0,1-1.372,1.287h-.1a1.33,1.33,0,0,1-1.367-1.287v-4.943a1.331,1.331,0,0,1,1.367-1.285h.1a1.343,1.343,0,0,1,1.372,1.285Z" transform="translate(-291.405 -9679.777)" fill="#fff4ba"/>
              </g>
              <g id="Group_8354" data-name="Group 8354" transform="translate(101.056)">
                <path id="Path_10659" data-name="Path 10659" d="M316.835,9686.006a1.335,1.335,0,0,1-1.373,1.287h-.092a1.335,1.335,0,0,1-1.373-1.287v-4.943a1.336,1.336,0,0,1,1.373-1.285h.092a1.336,1.336,0,0,1,1.373,1.285Z" transform="translate(-313.998 -9679.777)" fill="#fff4ba"/>
              </g>
              <g id="Group_8355" data-name="Group 8355" transform="translate(115.49)">
                <path id="Path_10660" data-name="Path 10660" d="M339.43,9686.006a1.335,1.335,0,0,1-1.373,1.287h-.1a1.337,1.337,0,0,1-1.367-1.287v-4.943a1.338,1.338,0,0,1,1.367-1.285h.1a1.336,1.336,0,0,1,1.373,1.285Z" transform="translate(-336.592 -9679.777)" fill="#fff4ba"/>
              </g>
              <g id="Group_8356" data-name="Group 8356" transform="translate(135.594)">
                <path id="Path_10661" data-name="Path 10661" d="M362.015,9686.006a1.334,1.334,0,0,1-1.367,1.287h-.1a1.342,1.342,0,0,1-1.372-1.287v-4.943a1.343,1.343,0,0,1,1.372-1.285h.1a1.335,1.335,0,0,1,1.367,1.285Z" transform="translate(-359.172 -9679.777)" fill="#fff4ba"/>
              </g>
              <g id="Group_8357" data-name="Group 8357" transform="translate(144.362)">
                <path id="Path_10662" data-name="Path 10662" d="M384.623,9686.006a1.338,1.338,0,0,1-1.373,1.287h-.1a1.335,1.335,0,0,1-1.373-1.287v-4.943a1.336,1.336,0,0,1,1.373-1.285h.1a1.339,1.339,0,0,1,1.373,1.285Z" transform="translate(-381.78 -9679.777)" fill="#fff4ba"/>
              </g>
            </g>
          </g>
        </g>
      </g>
      <text id="Saturday" transform="translate(58.692 23.89)" fill="#fff" font-size="14" font-family="TrebuchetMS-Bold, Trebuchet MS" font-weight="700"><tspan x="0" y="0">Saturday</tspan></text>
      <g id="Group_8362" data-name="Group 8362" transform="translate(15.608 43.305)">
        <line id="Line_50" data-name="Line 50" x2="141.32" transform="translate(0.619 75.509)" fill="#7b88ac" stroke="#7b88ac" stroke-miterlimit="10" stroke-width="0.75"/>
        <line id="Line_51" data-name="Line 51" x2="141.32" transform="translate(0 18.877)" fill="#7b88ac" stroke="#7b88ac" stroke-miterlimit="10" stroke-width="0.75"/>
        <line id="Line_52" data-name="Line 52" x2="141.256" fill="#7b88ac" stroke="#7b88ac" stroke-miterlimit="10" stroke-width="0.75"/>
        <line id="Line_53" data-name="Line 53" x2="141.256" transform="translate(0 37.755)" fill="#7b88ac" stroke="#7b88ac" stroke-miterlimit="10" stroke-width="0.75"/>
        <line id="Line_54" data-name="Line 54" x2="141.32" transform="translate(0.619 56.632)" fill="#7b88ac" stroke="#7b88ac" stroke-miterlimit="10" stroke-width="0.75"/>
      </g>
      <text id="AM" transform="translate(4.712 45.916)" fill="#2d356b" font-size="7" font-family="TrebuchetMS-Bold, Trebuchet MS" font-weight="700"><tspan x="0" y="0">AM</tspan></text>
      <text id="PM" transform="translate(4.712 78.044)" fill="#2d356b" font-size="7" font-family="TrebuchetMS-Bold, Trebuchet MS" font-weight="700"><tspan x="0" y="0">PM</tspan></text>
      <rect id="Rectangle_2687" data-name="Rectangle 2687" width="130.882" height="15.611" transform="translate(18.798 43.783)" fill="#fff4ba"/>
      <rect id="Rectangle_2688" data-name="Rectangle 2688" width="130.882" height="32.272" transform="translate(18.798 81.443)" fill="#9ea9fc"/>
      <text id="jogging" transform="translate(21.193 54.61)" fill="#2d356b" font-size="14" font-family="TrebuchetMS-Bold, Trebuchet MS" font-weight="700"><tspan x="0" y="0">jogging</tspan></text>
      <rect id="Rectangle_2689" data-name="Rectangle 2689" width="130.882" height="15.611" transform="translate(18.798 62.533)" fill="#ebebeb"/>
      <text id="lunch_at_a_cafe" data-name="lunch at a cafe" transform="translate(21.193 75.533)" fill="#2d356b" font-size="14" font-family="TrebuchetMS-Bold, Trebuchet MS" font-weight="700"><tspan x="0" y="0">lunch at a cafe</tspan></text>
      <text id="visit_Sarah" data-name="visit Sarah" transform="translate(21.193 95.301)" fill="#2d356b" font-size="14" font-family="TrebuchetMS-Bold, Trebuchet MS" font-weight="700"><tspan x="0" y="0">visit Sarah</tspan></text>
    </g>
    <g id="Group_8384" data-name="Group 8384" transform="translate(117.198 9823.981)">
      <g id="Group_8382" data-name="Group 8382" transform="translate(0)">
        <g id="Group_8381" data-name="Group 8381">
          <g id="Group_8367" data-name="Group 8367" transform="translate(0 17.672)">
            <path id="Path_10663" data-name="Path 10663" d="M298.591,10198.269c0,2.467-1.065,4.466-2.394,4.466H138.3c-1.328,0-2.394-2-2.394-4.466v-114.643c0-2.46,1.066-4.459,2.394-4.459H296.2c1.328,0,2.394,2,2.394,4.459Z" transform="translate(-135.911 -10076.735)" fill="#40558e"/>
            <path id="Path_10664" data-name="Path 10664" d="M300.023,10179.931c-.1.194-22.392,16.4-22.392,16.52H140.748c-1.313,0-2.381-2.008-2.381-4.475v-114.628c0-2.467,1.068-4.451,2.381-4.451H297.654c1.313,0,2.37,1.984,2.37,4.451Z" transform="translate(-137.414 -10072.896)" fill="#fff"/>
            <g id="Group_8366" data-name="Group 8366" transform="translate(147.834 109.101)">
              <g id="Group_8365" data-name="Group 8365">
                <g id="Group_8364" data-name="Group 8364">
                  <path id="Path_10665" data-name="Path 10665" d="M373.362,10314.326h12.267l-14.8,14.678v-12.477A2.384,2.384,0,0,1,373.362,10314.326Z" transform="translate(-370.828 -10314.326)" fill="#2d356b"/>
                </g>
              </g>
            </g>
          </g>
          <path id="Path_10666" data-name="Path 10666" d="M298.558,10066.627v-24.351a2.315,2.315,0,0,0-2.4-2.211H138.3a2.3,2.3,0,0,0-2.392,2.211v24.351Z" transform="translate(-135.911 -10035.127)" fill="#2d356b"/>
          <g id="Group_8380" data-name="Group 8380" transform="translate(7.72)">
            <g id="Group_8379" data-name="Group 8379">
              <g id="Group_8368" data-name="Group 8368">
                <path id="Path_10667" data-name="Path 10667" d="M158.659,10033.561a1.337,1.337,0,0,1-1.369,1.287h-.1a1.339,1.339,0,0,1-1.375-1.287v-4.943a1.339,1.339,0,0,1,1.375-1.285h.1a1.337,1.337,0,0,1,1.369,1.285Z" transform="translate(-155.816 -10027.332)" fill="#fff4ba"/>
              </g>
              <g id="Group_8369" data-name="Group 8369" transform="translate(8.766)">
                <path id="Path_10668" data-name="Path 10668" d="M181.26,10033.561a1.338,1.338,0,0,1-1.373,1.287h-.1a1.335,1.335,0,0,1-1.37-1.287v-4.943a1.336,1.336,0,0,1,1.37-1.285h.1a1.338,1.338,0,0,1,1.373,1.285Z" transform="translate(-178.417 -10027.332)" fill="#fff4ba"/>
              </g>
              <g id="Group_8370" data-name="Group 8370" transform="translate(28.878)">
                <path id="Path_10669" data-name="Path 10669" d="M203.858,10033.561a1.334,1.334,0,0,1-1.372,1.287h-.093a1.335,1.335,0,0,1-1.375-1.287v-4.943a1.335,1.335,0,0,1,1.375-1.285h.093a1.335,1.335,0,0,1,1.372,1.285Z" transform="translate(-201.018 -10027.332)" fill="#fff4ba"/>
              </g>
              <g id="Group_8371" data-name="Group 8371" transform="translate(43.309)">
                <path id="Path_10670" data-name="Path 10670" d="M226.451,10033.561a1.337,1.337,0,0,1-1.369,1.287h-.1a1.338,1.338,0,0,1-1.373-1.287v-4.943a1.338,1.338,0,0,1,1.373-1.285h.1a1.337,1.337,0,0,1,1.369,1.285Z" transform="translate(-223.605 -10027.332)" fill="#fff4ba"/>
              </g>
              <g id="Group_8372" data-name="Group 8372" transform="translate(57.747)">
                <path id="Path_10671" data-name="Path 10671" d="M249.046,10033.561a1.334,1.334,0,0,1-1.37,1.287h-.1a1.335,1.335,0,0,1-1.37-1.287v-4.943a1.336,1.336,0,0,1,1.37-1.285h.1a1.334,1.334,0,0,1,1.37,1.285Z" transform="translate(-246.206 -10027.332)" fill="#fff4ba"/>
              </g>
              <g id="Group_8373" data-name="Group 8373" transform="translate(72.187)">
                <path id="Path_10672" data-name="Path 10672" d="M271.648,10033.561a1.337,1.337,0,0,1-1.367,1.287h-.1a1.333,1.333,0,0,1-1.367-1.287v-4.943a1.333,1.333,0,0,1,1.367-1.285h.1a1.337,1.337,0,0,1,1.367,1.285Z" transform="translate(-268.81 -10027.332)" fill="#fff4ba"/>
              </g>
              <g id="Group_8374" data-name="Group 8374" transform="translate(86.624)">
                <path id="Path_10673" data-name="Path 10673" d="M294.247,10033.561a1.341,1.341,0,0,1-1.372,1.287h-.1a1.329,1.329,0,0,1-1.367-1.287v-4.943a1.329,1.329,0,0,1,1.367-1.285h.1a1.341,1.341,0,0,1,1.372,1.285Z" transform="translate(-291.405 -10027.332)" fill="#fff4ba"/>
              </g>
              <g id="Group_8375" data-name="Group 8375" transform="translate(101.056)">
                <path id="Path_10674" data-name="Path 10674" d="M316.835,10033.561a1.334,1.334,0,0,1-1.373,1.287h-.092a1.334,1.334,0,0,1-1.373-1.287v-4.943a1.335,1.335,0,0,1,1.373-1.285h.092a1.335,1.335,0,0,1,1.373,1.285Z" transform="translate(-313.998 -10027.332)" fill="#fff4ba"/>
              </g>
              <g id="Group_8376" data-name="Group 8376" transform="translate(115.49)">
                <path id="Path_10675" data-name="Path 10675" d="M339.43,10033.561a1.334,1.334,0,0,1-1.373,1.287h-.1a1.336,1.336,0,0,1-1.367-1.287v-4.943a1.337,1.337,0,0,1,1.367-1.285h.1a1.335,1.335,0,0,1,1.373,1.285Z" transform="translate(-336.592 -10027.332)" fill="#fff4ba"/>
              </g>
              <g id="Group_8377" data-name="Group 8377" transform="translate(135.594)">
                <path id="Path_10676" data-name="Path 10676" d="M362.015,10033.561a1.333,1.333,0,0,1-1.367,1.287h-.1a1.341,1.341,0,0,1-1.372-1.287v-4.943a1.342,1.342,0,0,1,1.372-1.285h.1a1.333,1.333,0,0,1,1.367,1.285Z" transform="translate(-359.172 -10027.332)" fill="#fff4ba"/>
              </g>
              <g id="Group_8378" data-name="Group 8378" transform="translate(144.362)">
                <path id="Path_10677" data-name="Path 10677" d="M384.623,10033.561a1.338,1.338,0,0,1-1.373,1.287h-.1a1.334,1.334,0,0,1-1.373-1.287v-4.943a1.335,1.335,0,0,1,1.373-1.285h.1a1.338,1.338,0,0,1,1.373,1.285Z" transform="translate(-381.78 -10027.332)" fill="#fff4ba"/>
              </g>
            </g>
          </g>
        </g>
      </g>
      <text id="Sunday" transform="translate(57.84 24.89)" fill="#fff" font-size="14" font-family="TrebuchetMS-Bold, Trebuchet MS" font-weight="700"><tspan x="0" y="0">Sunday</tspan></text>
      <g id="Group_8383" data-name="Group 8383" transform="translate(14.802 53.689)">
        <line id="Line_55" data-name="Line 55" x2="141.32" transform="translate(0.619 63.712)" fill="#7b88ac" stroke="#7b88ac" stroke-miterlimit="10" stroke-width="0.75"/>
        <line id="Line_56" data-name="Line 56" x2="141.32" transform="translate(0 15.928)" fill="#7b88ac" stroke="#7b88ac" stroke-miterlimit="10" stroke-width="0.75"/>
        <line id="Line_57" data-name="Line 57" x2="141.256" fill="#7b88ac" stroke="#7b88ac" stroke-miterlimit="10" stroke-width="0.75"/>
        <line id="Line_58" data-name="Line 58" x2="141.256" transform="translate(0 31.856)" fill="#7b88ac" stroke="#7b88ac" stroke-miterlimit="10" stroke-width="0.75"/>
        <line id="Line_59" data-name="Line 59" x2="141.32" transform="translate(0.619 47.784)" fill="#7b88ac" stroke="#7b88ac" stroke-miterlimit="10" stroke-width="0.75"/>
      </g>
      <text id="AM-2" data-name="AM" transform="translate(2.906 50.965)" fill="#2d356b" font-size="7" font-family="TrebuchetMS-Bold, Trebuchet MS" font-weight="700"><tspan x="0" y="0">AM</tspan></text>
      <text id="PM-2" data-name="PM" transform="translate(3.906 86.131)" fill="#2d356b" font-size="7" font-family="TrebuchetMS-Bold, Trebuchet MS" font-weight="700"><tspan x="0" y="0">PM</tspan></text>
      <rect id="Rectangle_2690" data-name="Rectangle 2690" width="130.486" height="31.856" transform="translate(18.387 50.255)" fill="#fff4ba"/>
      <rect id="Rectangle_2691" data-name="Rectangle 2691" width="130.486" height="16.344" transform="translate(18.387 85.079)" fill="#ffb2b0"/>
      <text id="play_with_my_dog" data-name="play with my dog" transform="translate(21.735 64.256)" fill="#2d356b" font-size="14" font-family="TrebuchetMS-Bold, Trebuchet MS" font-weight="700"><tspan x="0" y="0">play with my dog</tspan></text>
      <text id="shopping" transform="translate(21.735 98.079)" fill="#2d356b" font-size="14" font-family="TrebuchetMS-Bold, Trebuchet MS" font-weight="700"><tspan x="0" y="0">shopping</tspan></text>
      <rect id="Rectangle_2692" data-name="Rectangle 2692" width="130.486" height="16.344" transform="translate(18.387 103.915)" fill="#c3e8e6"/>
      <text id="relax_at_home" data-name="relax at home" transform="translate(21.735 116.915)" fill="#2d356b" font-size="14" font-family="TrebuchetMS-Bold, Trebuchet MS" font-weight="700"><tspan x="0" y="0">relax at home</tspan></text>
    </g>
    <g id="Group_8395" data-name="Group 8395" transform="translate(298.368 9831.74)">
      <g id="Group_8389" data-name="Group 8389" transform="translate(0 0)">
        <path id="Path_10678" data-name="Path 10678" d="M653.217,10327.881h50.162s-7.486,5.953-26.39,5.953S653.217,10327.881,653.217,10327.881Z" transform="translate(-625 -10254.162)" fill="#9999a5"/>
        <g id="Group_8385" data-name="Group 8385" transform="translate(70.15 74.15)">
          <path id="Path_10679" data-name="Path 10679" d="M785,10390.553l-23.669-61.123.937-.436,23.669,61.124Z" transform="translate(-761.335 -10328.994)" fill="#9999a5"/>
        </g>
        <g id="Group_8386" data-name="Group 8386" transform="translate(18.975 73.939)">
          <path id="Path_10680" data-name="Path 10680" d="M630.364,10390.155l-.978-.308,16.035-61.4.977.308Z" transform="translate(-629.386 -10328.447)" fill="#9999a5"/>
        </g>
        <g id="Group_8387" data-name="Group 8387" transform="translate(42.114 75.459)">
          <path id="Path_10681" data-name="Path 10681" d="M690.066,10392.424l-1.018-.053,2.546-60,1.017.053Z" transform="translate(-689.048 -10332.367)" fill="#9999a5"/>
        </g>
        <g id="Group_8388" data-name="Group 8388" transform="translate(57.138 76.505)">
          <path id="Path_10682" data-name="Path 10682" d="M737.2,10394.147l-9.417-58.889,1-.194,9.417,58.889Z" transform="translate(-727.785 -10335.064)" fill="#9999a5"/>
        </g>
        <path id="Path_10683" data-name="Path 10683" d="M654.545,10213.2H612.611c-22.836,0-33.527-54.93-32.006-64.379,2.246-13.955,26.766-13.955,33.5-3.908,4.494,6.7,11.232,30.438,15.226,45.514a18.057,18.057,0,0,0,16.574,13.377c7.437.367,15.342.98,15.928,1.951C662.8,10207.354,662.959,10213.2,654.545,10213.2Z" transform="translate(-580.463 -10137.808)" fill="#40558e"/>
        <path id="Path_10684" data-name="Path 10684" d="M661.742,10219.214l-41.973-.837c-22.835,0-35.633-50.368-34.11-59.818.225-1.407-4.6-.207-5.055,2.6-1.521,9.45,9.17,64.38,32.006,64.38h41.934C662.963,10225.543,662.867,10219.214,661.742,10219.214Z" transform="translate(-580.463 -10150.148)" fill="#2d356b"/>
      </g>
      <g id="Group_8394" data-name="Group 8394" transform="translate(205.234 0)">
        <path id="Path_10685" data-name="Path 10685" d="M1202.018,10327.881h-50.162s7.486,5.953,26.39,5.953S1202.018,10327.881,1202.018,10327.881Z" transform="translate(-1135.479 -10254.162)" fill="#9999a5"/>
        <g id="Group_8390" data-name="Group 8390" transform="translate(0 74.15)">
          <path id="Path_10686" data-name="Path 10686" d="M1110.567,10390.553l23.669-61.123-.936-.436-23.669,61.124Z" transform="translate(-1109.631 -10328.994)" fill="#9999a5"/>
        </g>
        <g id="Group_8391" data-name="Group 8391" transform="translate(58.769 73.939)">
          <path id="Path_10687" data-name="Path 10687" d="M1277.194,10390.155l.978-.308-16.034-61.4-.977.308Z" transform="translate(-1261.16 -10328.447)" fill="#9999a5"/>
        </g>
        <g id="Group_8392" data-name="Group 8392" transform="translate(49.079 75.459)">
          <path id="Path_10688" data-name="Path 10688" d="M1238.719,10392.424l1.018-.053-2.546-60-1.017.053Z" transform="translate(-1236.173 -10332.367)" fill="#9999a5"/>
        </g>
        <g id="Group_8393" data-name="Group 8393" transform="translate(27.2 76.505)">
          <path id="Path_10689" data-name="Path 10689" d="M1180.763,10394.147l9.417-58.889-1-.194-9.417,58.889Z" transform="translate(-1179.762 -10335.064)" fill="#9999a5"/>
        </g>
        <path id="Path_10690" data-name="Path 10690" d="M1150.714,10213.2h41.934c22.836,0,33.527-54.93,32.006-64.379-2.246-13.955-26.767-13.955-33.5-3.908-4.493,6.7-11.231,30.438-15.225,45.514a18.058,18.058,0,0,1-16.575,13.377c-7.437.367-15.342.98-15.928,1.951C1142.46,10207.354,1142.3,10213.2,1150.714,10213.2Z" transform="translate(-1130.04 -10137.808)" fill="#40558e"/>
        <path id="Path_10691" data-name="Path 10691" d="M1143.526,10219.214l41.973-.837c22.835,0,35.633-50.368,34.11-59.818-.225-1.407,4.6-.207,5.055,2.6,1.521,9.45-9.17,64.38-32.006,64.38h-41.934C1142.306,10225.543,1142.4,10219.214,1143.526,10219.214Z" transform="translate(-1130.05 -10150.148)" fill="#2d356b"/>
      </g>
    </g>
    <g id="Group_8411" data-name="Group 8411" transform="translate(456.978 9762.847)">
      <g id="Group_8396" data-name="Group 8396" transform="translate(0 112.891)">
        <path id="Path_10692" data-name="Path 10692" d="M1094.084,10255.007c7.157,2.481,6.038,16.322,2.522,18.487-3.537,2.178-54.874-10.956-60.369-4.8-3.614,4.051,10.6,30.6,4.088,73.838-.968.625-3.638.345-3.485-.945,3.555-29.956-12.44-78.114-10.5-79.672C1035.362,10254.677,1068.716,10246.209,1094.084,10255.007Z" transform="translate(-1011.92 -10251.251)" fill="#219ecc"/>
        <path id="Path_10693" data-name="Path 10693" d="M1100.885,10262.129c7.17,2.152.836,16.033-3.888,18.311s-55.631-8.6-63.4-2.475c-5.06,3.992,1.033,28.76-19.373,68.844-1.165.563-3.751.295-3.2-.877,13.011-27.561,12.022-72.51,14.523-74.072C1037.28,10264.521,1075.873,10254.621,1100.885,10262.129Z" transform="translate(-1002.6 -10256.27)" fill="#03b4e9"/>
        <path id="Path_10694" data-name="Path 10694" d="M989.417,10480.929l11.768.822s-.563-3.3-2.915-3.3S989.417,10480.929,989.417,10480.929Z" transform="translate(-989.417 -10390.333)" fill="#9898a4"/>
        <path id="Path_10695" data-name="Path 10695" d="M1033.925,10481.517l11.769.822s-.565-3.3-2.916-3.3S1033.925,10481.517,1033.925,10481.517Z" transform="translate(-1016.663 -10390.691)" fill="#9898a4"/>
        <path id="Path_10696" data-name="Path 10696" d="M1210.634,10276.313c4.644-1.143,9.636-9.6,10.052-17.88l-22.75-5.665-1.309,7.081S1205.386,10277.6,1210.634,10276.313Z" transform="translate(-1116.261 -10252.179)" fill="#03b4e9"/>
        <path id="Path_10697" data-name="Path 10697" d="M1222.431,10261.948l-.507,2.571-19.1-6.551.113-1.622Z" transform="translate(-1120.055 -10254.37)" fill="#cecfd7"/>
        <path id="Path_10698" data-name="Path 10698" d="M1242.942,10265.242l1.279.283-1.327,5.857-1.28-.281Z" transform="translate(-1143.802 -10259.816)" fill="#03b4e9"/>
        <path id="Path_10699" data-name="Path 10699" d="M1229.228,10263.022l1.28.284-1.328,5.858-1.28-.282Z" transform="translate(-1135.406 -10258.456)" fill="#03b4e9"/>
        <path id="Path_10700" data-name="Path 10700" d="M1213.571,10258.564l1.279.283-1.328,5.86-1.279-.282Z" transform="translate(-1125.822 -10255.728)" fill="#03b4e9"/>
      </g>
      <g id="Group_8410" data-name="Group 8410" transform="translate(9.48 0)">
        <g id="Group_8397" data-name="Group 8397" transform="translate(60.279 29.335)">
          <path id="Path_10701" data-name="Path 10701" d="M1216.33,10079.24l1.256.445.421,3.174-2.882,1.14Z" transform="translate(-1197.344 -10062.396)" fill="#eaeaea"/>
          <path id="Path_10702" data-name="Path 10702" d="M1220.725,10040.145l11.873-4.332.411,19.109-16.992,4.865Z" transform="translate(-1197.89 -10035.813)" fill="#f7c371"/>
          <path id="Path_10703" data-name="Path 10703" d="M1176.515,10156.237c-3.925-8.875-3.832-23.488-4.024-37.967-.255-19.357,20.672-41.667,38.574-38.863,29.063,4.548-1.86,64.293-4.7,72.562" transform="translate(-1171.244 -10062.353)" fill="#219ecc"/>
          <path id="Path_10704" data-name="Path 10704" d="M1256.3,10150.266c2.32-4.2,4.985-16.752,7.508-27.236.942-3.914,7.62,3.654,8.577,13.277.593,5.969-13.99,40.088-15.077,43.252" transform="translate(-1222.547 -10088.559)" fill="#0080af"/>
          <path id="Path_10705" data-name="Path 10705" d="M1172.718,10135.8c1.875-24.955,21.691-49.082,39.139-55.643,2.931-1.1.377-3.32-7.925-2.756C1196.5,10077.936,1166.41,10092.016,1172.718,10135.8Z" transform="translate(-1170.856 -10061.214)" fill="#03b4e9"/>
          <path id="Path_10706" data-name="Path 10706" d="M1173.671,10119.607c3.336-20.934,11.447-31.775,30.033-42.064-7.243.521-36.182,9.627-31.767,50.678C1172.049,10129.266,1173.094,10123.227,1173.671,10119.607Z" transform="translate(-1170.627 -10061.358)" fill="#eaeaea"/>
          <path id="Path_10707" data-name="Path 10707" d="M1180.819,10260.348c-.1-.881.317-1.65.925-1.717s1.181.592,1.278,1.471-.316,1.652-.925,1.719S1180.917,10261.229,1180.819,10260.348Z" transform="translate(-1176.335 -10172.209)" fill="#ffd9a4"/>
          <path id="Path_10708" data-name="Path 10708" d="M1177.836,10233.426c-.1-.88.317-1.648.925-1.716s1.181.592,1.278,1.473-.316,1.65-.925,1.718S1177.933,10234.308,1177.836,10233.426Z" transform="translate(-1174.508 -10155.729)" fill="#ffd9a4"/>
          <path id="Path_10709" data-name="Path 10709" d="M1219.911,10083.668l-4.328,1.382,1.611-4.639.825-.419Z" transform="translate(-1197.625 -10062.857)" fill="#ffac00"/>
          <path id="Path_10710" data-name="Path 10710" d="M1170.39,10138.518l1.547-8.446s-3.185-26.536,16.246-39.34l-.217-.675C1171.98,10101.094,1166.734,10120.609,1170.39,10138.518Z" transform="translate(-1169.279 -10069.018)" fill="#ffac00"/>
          <path id="Path_10711" data-name="Path 10711" d="M1218.233,10072.751l16.987-4.113,2.066,3.436-16.17,6.129Z" transform="translate(-1199.246 -10055.905)" fill="#fff"/>
        </g>
        <g id="Group_8398" data-name="Group 8398" transform="translate(26.653 47.616)">
          <path id="Path_10712" data-name="Path 10712" d="M1209.929,10131.191c1.772,4,35.777-24.406,34.207-38.586,0,0-11.261-19.941-24.806-2.517C1219.33,10090.089,1203.454,10116.563,1209.929,10131.191Z" transform="translate(-1159.587 -10082.947)" fill="#03b4e9"/>
          <path id="Path_10713" data-name="Path 10713" d="M1212.119,10138.547c-10.059-13.841,7.606-37.6,7.606-37.6h0C1208.87,10119.23,1212.538,10139.123,1212.119,10138.547Z" transform="translate(-1159.982 -10093.809)" fill="#0080af"/>
          <path id="Path_10714" data-name="Path 10714" d="M1082.58,10184.219l5.75,2.086.891-9.149-5.88,1.2Z" transform="translate(-1082.58 -10140.616)" fill="#eaeaea"/>
          <path id="Path_10715" data-name="Path 10715" d="M1140.369,10179.944s-16.055,2.814-48.614-2.746c0,0-1.708-3.24,1.111-8.982,0,0,27.417-8.093,44.064-4.918C1136.931,10163.3,1144.544,10175.08,1140.369,10179.944Z" transform="translate(-1087.883 -10131.682)" fill="#03b4e9"/>
          <path id="Path_10716" data-name="Path 10716" d="M1103.1,10184.764a1.292,1.292,0,1,1,1.412-1.423A1.433,1.433,0,0,1,1103.1,10184.764Z" transform="translate(-1094.108 -10143.728)" fill="#fff4ba"/>
        </g>
        <g id="Group_8402" data-name="Group 8402" transform="translate(71.818)">
          <path id="Path_10717" data-name="Path 10717" d="M1233.31,9990.637c8.508-8.686,9.022-24.071,8.688-24.637-3.565-6.052-14.915-6.438-20.741-5.343-4.913.924-8.9,3.292-6.8,7.232.723,1.361,4.773-1.268,5.929-1.021,2.185.466,1.141,30.938,1.141,30.938Z" transform="translate(-1208.121 -9960.176)" fill="#ffac00"/>
          <g id="Group_8400" data-name="Group 8400" transform="translate(0 6.793)">
            <g id="Group_8399" data-name="Group 8399">
              <path id="Path_10718" data-name="Path 10718" d="M1206.933,10035.627l-.98-2.015,1.62-.827Z" transform="translate(-1203.268 -10011.417)" fill="#ffd8a3"/>
              <path id="Path_10719" data-name="Path 10719" d="M1224.622,10004.744c-1.136,2.5-9.552,7.292-17.386,6.24.021-10.309,1.9-27.162,4.06-29.874,2.127-2.668,9.843-4.071,10.692-3.126-3.045,3.04.415,14.381,1.935,15.529C1227.624,9996.311,1225.808,10002.144,1224.622,10004.744Z" transform="translate(-1204.054 -9977.689)" fill="#ffd8a3"/>
              <path id="Path_10720" data-name="Path 10720" d="M1199.031,10020.563a72.843,72.843,0,0,0,4.64-8.288c1.464-3.119.019,8.693.019,8.693S1200.113,10021.466,1199.031,10020.563Z" transform="translate(-1199.031 -9998.541)" fill="#ffd8a3"/>
              <path id="Path_10721" data-name="Path 10721" d="M1204.63,10059.447a1.3,1.3,0,0,1-.732-1.76,1.566,1.566,0,0,1,2.036-.283,1.3,1.3,0,0,1,.733,1.76A1.567,1.567,0,0,1,1204.63,10059.447Z" transform="translate(-1201.921 -10026.342)" fill="#ffd8a3"/>
              <path id="Path_10722" data-name="Path 10722" d="M1206.015,10049.3c-.008-.209.241-.389.559-.4s.58.146.589.355-.241.389-.557.4S1206.024,10049.514,1206.015,10049.3Z" transform="translate(-1203.306 -10021.282)" fill="#ffd8a3"/>
            </g>
            <path id="Path_10723" data-name="Path 10723" d="M1249.267,10015.907c.6-1.825,2.157-3.014,3.47-2.656s1.888,2.127,1.284,3.951-3.233,2.686-4.545,2.328S1248.664,10017.729,1249.267,10015.907Z" transform="translate(-1229.405 -9999.42)" fill="#ffd8a3"/>
          </g>
          <path id="Path_10724" data-name="Path 10724" d="M1207.844,10038.49l-.1,4.2s1.176-.018,1.474-.518a14.677,14.677,0,0,0,1.206-4.124Z" transform="translate(-1204.367 -10007.844)" fill="#ffab00"/>
          <path id="Path_10725" data-name="Path 10725" d="M1208.031,10038.918l-.083,3.729s.867,0,1.073-.221a10.464,10.464,0,0,0,1.151-3.9Z" transform="translate(-1204.489 -10008.139)" fill="#fff"/>
          <path id="Path_10726" data-name="Path 10726" d="M1213.447,10004.873a1.016,1.016,0,0,1,.317-.648c.459-.4,3.9.994,3.791,1.729l-.069.461c-.078.527-1.083-.127-2.127-.365-1-.227-2.043-.014-1.986-.514Z" transform="translate(-1207.809 -9987.098)" fill="#2d356b"/>
          <path id="Path_10727" data-name="Path 10727" d="M1216.014,10014.989c.034-.62.4-1.136.828-1.153s.741.47.708,1.091-.4,1.135-.828,1.153S1215.981,10015.608,1216.014,10014.989Z" transform="translate(-1209.426 -9993.023)" fill="#2d356b"/>
          <path id="Path_10728" data-name="Path 10728" d="M1214.422,10037.789c-.006-.145.071-.265.174-.27s.189.11.2.255-.071.267-.173.27S1214.427,10037.935,1214.422,10037.789Z" transform="translate(-1208.452 -10007.521)" fill="#ffab00"/>
          <g id="Group_8401" data-name="Group 8401" transform="translate(5.652 1.393)">
            <path id="Path_10729" data-name="Path 10729" d="M1243.212,9982.529c-3.429-.011.764,15.816-1.049,16.8s-.2,2.37.738,2.092c2.143-.639,2.83-4.972,3.179-7.737C1246.469,9990.6,1243.5,9982.529,1243.212,9982.529Z" transform="translate(-1230.584 -9975.252)" fill="#ffac00"/>
            <path id="Path_10730" data-name="Path 10730" d="M1213.644,9969.307c-.366-2.5,1.854-4.9,4.957-5.352s12.063-.225,12.428,2.274-8,6.326-11.1,6.778S1214.009,9971.806,1213.644,9969.307Z" transform="translate(-1213.604 -9963.768)" fill="#ffac00"/>
          </g>
        </g>
        <g id="Group_8409" data-name="Group 8409" transform="translate(0 70.431)">
          <path id="Path_10731" data-name="Path 10731" d="M1048.715,10167.211c-2.62-3.269-2.427-6.413-.894-6.882.526-.161,9.513,7.313,8.216,9.194C1055.12,10170.855,1051.337,10170.488,1048.715,10167.211Z" transform="translate(-1033.963 -10153.131)" fill="#ffd9a4"/>
          <g id="Group_8407" data-name="Group 8407">
            <rect id="Rectangle_2693" data-name="Rectangle 2693" width="8.301" height="0.916" transform="translate(9.974 22.424) rotate(-23.942)" fill="#9999a5"/>
            <path id="Path_10732" data-name="Path 10732" d="M1028.037,10147.66l-12.473,5.538,8.949,15.049,8.684-3.855Z" transform="translate(-1014.903 -10145.377)" fill="#fff4ba"/>
            <path id="Path_10733" data-name="Path 10733" d="M1023.941,10155.16l-8.378,2.629,8.949,15.049,4.008-2.039Z" transform="translate(-1014.903 -10149.968)" fill="#f8c471"/>
            <path id="Path_10734" data-name="Path 10734" d="M1036.4,10167.791a3.425,3.425,0,0,0-4.754,1.5,3.82,3.82,0,0,0,2.093,4.776,3.425,3.425,0,0,0,4.755-1.5A3.819,3.819,0,0,0,1036.4,10167.791Z" transform="translate(-1024.592 -10157.452)" fill="#f8c471"/>
            <path id="Path_10735" data-name="Path 10735" d="M1036.866,10168.705a3.071,3.071,0,0,0-4.26,1.342,3.418,3.418,0,0,0,1.875,4.275,3.07,3.07,0,0,0,4.26-1.34A3.42,3.42,0,0,0,1036.866,10168.705Z" transform="translate(-1025.198 -10158.038)" fill="#ebebeb"/>
            <g id="Group_8403" data-name="Group 8403" transform="translate(9.04 11.309)">
              <path id="Path_10736" data-name="Path 10736" d="M1038.87,10175.012a6.362,6.362,0,0,0-.762-2.371,2.286,2.286,0,0,1,.068-1.711,2.267,2.267,0,0,0-.946,2.24A3.045,3.045,0,0,0,1038.87,10175.012Z" transform="translate(-1037.167 -10170.93)" fill="#ffac00"/>
              <path id="Path_10737" data-name="Path 10737" d="M1040.271,10171.607a6.4,6.4,0,0,0,.762,2.369,2.281,2.281,0,0,1-.069,1.71,2.265,2.265,0,0,0,.948-2.238A3.044,3.044,0,0,0,1040.271,10171.607Z" transform="translate(-1039.066 -10171.345)" fill="#ffac00"/>
            </g>
            <g id="Group_8406" data-name="Group 8406">
              <path id="Path_10738" data-name="Path 10738" d="M1029.052,10143.663l-1.549.666.011,1.157,2.37-1.052Z" transform="translate(-1022.212 -10142.93)" fill="#9999a5"/>
              <path id="Path_10739" data-name="Path 10739" d="M1025.778,10142.179a1.022,1.022,0,0,0-1.215-.323l-8.862,3.936a1.06,1.06,0,0,0-.6,1.161l.648,3.78,12.413-5.512Z" transform="translate(-1014.611 -10141.771)" fill="#cfd0d8"/>
              <g id="Group_8404" data-name="Group 8404" transform="translate(0.476 0)">
                <path id="Path_10740" data-name="Path 10740" d="M1040.562,10144.349a12.281,12.281,0,0,1,.59,1.64l1.729-.768-2.388-3.042a1.023,1.023,0,0,0-1.216-.322l-.153.067A11.956,11.956,0,0,1,1040.562,10144.349Z" transform="translate(-1029.801 -10141.772)" fill="#9999a5"/>
                <path id="Path_10741" data-name="Path 10741" d="M1016.481,10154.9a12.042,12.042,0,0,1-.834-2.687,1.061,1.061,0,0,0-.545,1.133l.649,3.779,1.551-.687A12.324,12.324,0,0,1,1016.481,10154.9Z" transform="translate(-1015.086 -10148.161)" fill="#9999a5"/>
              </g>
              <path id="Path_10742" data-name="Path 10742" d="M1026.13,10142.809a76.406,76.406,0,0,0-8.851,3.93,77.253,77.253,0,0,0,8.851-3.93Z" transform="translate(-1015.952 -10142.403)" fill="#9999a5"/>
              <path id="Path_10743" data-name="Path 10743" d="M1027.484,10146.042a1.156,1.156,0,0,0-1.275-.179l-11.571,5.138a1.251,1.251,0,0,0-.779,1.149l.095,2.555a.368.368,0,0,0,.2.315.482.482,0,0,0,.413,0l14.43-6.407a.623.623,0,0,0,.356-.4.474.474,0,0,0-.126-.47Z" transform="translate(-1013.859 -10144.208)" fill="#9999a5"/>
              <g id="Group_8405" data-name="Group 8405" transform="translate(0 1.543)">
                <path id="Path_10744" data-name="Path 10744" d="M1016.469,10158.863c-.17-.383-.32-.764-.46-1.145l-1.37.609a1.251,1.251,0,0,0-.779,1.148l.095,2.555a.362.362,0,0,0,.2.314.485.485,0,0,0,.413,0l3.023-1.342A18.72,18.72,0,0,1,1016.469,10158.863Z" transform="translate(-1013.859 -10153.077)" fill="#9999a5"/>
                <path id="Path_10745" data-name="Path 10745" d="M1048.277,10147.743l-1.747-1.7a1.156,1.156,0,0,0-1.275-.179l-.283.126c.187.36.37.728.54,1.109a18.892,18.892,0,0,1,.834,2.272l1.7-.756a.623.623,0,0,0,.356-.4A.474.474,0,0,0,1048.277,10147.743Z" transform="translate(-1032.905 -10145.751)" fill="#9999a5"/>
              </g>
              <path id="Path_10746" data-name="Path 10746" d="M1027.926,10146.549a79.585,79.585,0,0,0-12.014,5.333,39.814,39.814,0,0,0,6.117-2.419A40.231,40.231,0,0,0,1027.926,10146.549Z" transform="translate(-1015.115 -10144.688)" fill="#9999a5"/>
            </g>
          </g>
          <g id="Group_8408" data-name="Group 8408" transform="translate(4.176 11.878)">
            <path id="Path_10747" data-name="Path 10747" d="M1060.253,10182.93c-4.249-.709-13.586,4.334-14.378.658-.711-3.289,3.016-9.627,14.783-3.971Z" transform="translate(-1037.583 -10175.434)" fill="#ffd9a4"/>
            <path id="Path_10748" data-name="Path 10748" d="M1048.791,10174c4.8,3.526-5.9,8.622-8.239,8.73-2.574.114-5.76-5.789-3.8-6.383C1042.76,10174.538,1043.345,10170,1048.791,10174Z" transform="translate(-1031.679 -10172.398)" fill="#ffd9a4"/>
            <path id="Path_10749" data-name="Path 10749" d="M1029.171,10181.328c-3.005.119-4.6-.508-4.541-1.309s1.268-.277,4.27-.4,7.3-1.509,7.238-.706S1032.173,10181.2,1029.171,10181.328Z" transform="translate(-1024.628 -10176.232)" fill="#ffd9a4"/>
            <path id="Path_10750" data-name="Path 10750" d="M1033.606,10187.621c-2.979.735-4.706-.29-4.806-1.072s2.792-.8,5.771-1.54,4.948-1.052,5.047-.269S1036.583,10186.884,1033.606,10187.621Z" transform="translate(-1027.18 -10179.674)" fill="#ffd9a4"/>
            <path id="Path_10751" data-name="Path 10751" d="M1040.27,10194.543c-2.984.705-4.809.42-4.911-.361s1.952-.872,4.935-1.573,5.082-1.153,5.183-.369S1043.256,10193.84,1040.27,10194.543Z" transform="translate(-1031.195 -10184.292)" fill="#ffd9a4"/>
          </g>
        </g>
      </g>
    </g>
    <g id="Group_8423" data-name="Group 8423" transform="translate(310.286 9770.068)">
      <g id="Group_8413" data-name="Group 8413" transform="translate(34.996 44.284)">
        <g id="Group_8412" data-name="Group 8412" transform="translate(36.68 53.172)">
          <path id="Path_10752" data-name="Path 10752" d="M808.9,10230.163c2.988,1.184,10.587-1.029,10.59,1.773,0,2.511-3.707,6.549-11.4.581Z" transform="translate(-808.087 -10230.128)" fill="#ffd9a4"/>
          <path id="Path_10753" data-name="Path 10753" d="M819.618,10234.758c-.287-4.434,5.115-4.764,6.839-4.473,1.9.318,3.036,3.627,2.26,4.945S819.73,10236.451,819.618,10234.758Z" transform="translate(-815.139 -10230.154)" fill="#ffd9a4"/>
          <path id="Path_10754" data-name="Path 10754" d="M824.808,10239.705c2.409,1.025,4.67,3.355,4.051,4.144-.7.89-2.265-1.48-4.651-1.875-2.584-.431-4.184-.839-4.072-1.844S822.4,10238.676,824.808,10239.705Z" transform="translate(-815.459 -10235.612)" fill="#ffd9a4"/>
          <path id="Path_10755" data-name="Path 10755" d="M837.25,10242.283c2.21.385,3.277,1.092,3.107,1.666s-1.415.279-3.623-.1-5.111-.316-4.943-.891S835.042,10241.908,837.25,10242.283Z" transform="translate(-822.594 -10237.466)" fill="#ffd9a4"/>
          <path id="Path_10756" data-name="Path 10756" d="M840.116,10235.666c2.288-.07,4.3.885,4.247,1.469s-2.163.15-4.45.221-3.773-.008-3.722-.594S837.83,10235.734,840.116,10235.666Z" transform="translate(-825.29 -10233.495)" fill="#ffd9a4"/>
          <path id="Path_10757" data-name="Path 10757" d="M835.1,10230.075c2.286.022,3.557.552,3.493,1.135s-1.569.286-3.854.262-3.887-.068-3.821-.654S832.815,10230.054,835.1,10230.075Z" transform="translate(-822.063 -10230.073)" fill="#ffd9a4"/>
        </g>
        <path id="Path_10758" data-name="Path 10758" d="M714.718,10093.043c8.626-1.976,10.208,40.377,9.61,41.879,0,0-3.314,2.8-4.367,1.224C717.241,10132.075,710.864,10093.925,714.718,10093.043Z" transform="translate(-713.512 -10092.976)" fill="#fff4ba"/>
        <path id="Path_10759" data-name="Path 10759" d="M763.139,10208.31c-1.783,6.162-33.588-10.031-34.508-11.044,0,0-1.767-4.391,1.391-4.646C734.165,10192.287,763.936,10205.553,763.139,10208.31Z" transform="translate(-722.465 -10153.97)" fill="#fff4ba"/>
        <path id="Path_10760" data-name="Path 10760" d="M812.295,10226.067l0-1.965-5.958-4.49s-.72,3.4-.415,4.2S812.295,10226.067,812.295,10226.067Z" transform="translate(-770.037 -10170.497)" fill="#fffdfd"/>
        <path id="Path_10761" data-name="Path 10761" d="M809.866,10234.866l-.795,1.775-7.194,1.55s.729-3.373,1.33-3.97S809.866,10234.866,809.866,10234.866Z" transform="translate(-767.606 -10179.341)" fill="#fffdfd"/>
      </g>
      <g id="Group_8414" data-name="Group 8414" transform="translate(17.552 111.289)">
        <path id="Path_10762" data-name="Path 10762" d="M711.3,10269.25c-6.524,1.514-6.835,13.793-3.943,16.023,2.908,2.248,51.417-6.381,55.673-.453,2.8,3.9-12.579,27.02-10.891,65.646.791.643,1.428,1.416,1.415.268-.33-26.678,18.234-67.531,16.67-69.08C762.974,10274.441,734.435,10263.883,711.3,10269.25Z" transform="translate(-691.234 -10266.989)" fill="#2d356b"/>
        <path id="Path_10763" data-name="Path 10763" d="M672.167,10266.532c-6.5,1.221.42,15.832,4.36,18.275s50.6-5.138,56.854.976c4.076,3.984-4.465,27.961,9.733,65.114.975.6,1.933.514,1.552-.568-8.865-25.447-4.572-64.932-6.627-66.539C728.413,10276.241,694.864,10262.267,672.167,10266.532Z" transform="translate(-669.123 -10265.739)" fill="#7b88ac"/>
        <path id="Path_10764" data-name="Path 10764" d="M869.21,10483.476l-10.426-.376s.8-2.848,2.873-2.63S869.21,10483.476,869.21,10483.476Z" transform="translate(-784.997 -10397.181)" fill="#9999a5"/>
        <path id="Path_10765" data-name="Path 10765" d="M830.016,10479.836l-10.426-.378s.806-2.848,2.872-2.629S830.016,10479.836,830.016,10479.836Z" transform="translate(-761.004 -10394.952)" fill="#9999a5"/>
        <path id="Path_10766" data-name="Path 10766" d="M734.622,10288.074c-6.463-6.412-53.632-1-57.436-3.5-.03-.023-.06-.051-.09-.072-6.775-2.064-7.216-7.238-6.952-13.123l-1.347.191c-.405,7.289-1.419,14.244,7.051,16.623.031.021.063.045.091.066,3.943,2.445,50.6-5.139,56.854.975,4.076,3.984-4.465,27.961,9.733,65.115.761.475,1.5.512,1.612-.006C729.465,10315.092,738.849,10292.27,734.622,10288.074Z" transform="translate(-668.534 -10269.192)" fill="#9ea9fc"/>
      </g>
      <g id="Group_8415" data-name="Group 8415" transform="translate(0 2.536)">
        <path id="Path_10767" data-name="Path 10767" d="M669.358,10042.476c5.658-5.788-3.569-6.781-3.294-11.707s1.394-3.4,2-9.769-1.153-8.674-1.377-12.364,2.081-9.813-.157-14.428-3.481-3-5.427-6.666-3.591.436-6.623,2.168-6.786-7.064-12.091-3.53-4.615,10.385-6.132,14.276-6.837,5.588-7.492,12.494,3.134,5.252,1.533,10.052-6.356,4.532-7.01,11.442c0,0-.465,6.925,7.234,6.369s5.392,3.63,13.692.748,5.685,4.573,11.505,1.64S664.3,10047.647,669.358,10042.476Z" transform="translate(-623.279 -9985.334)" fill="#2d356b"/>
      </g>
      <g id="Group_8416" data-name="Group 8416" transform="translate(16.925 25.294)">
        <path id="Path_10768" data-name="Path 10768" d="M697.21,10044.012l6.957,5.106.169,15.854-5.7-2.542Z" transform="translate(-685.461 -10044.012)" fill="#f6cda2"/>
        <path id="Path_10769" data-name="Path 10769" d="M696.925,10159.729c-15.77,7.96-21.254,4.146-30.008,3.126.715-12.478,8.4-20.5,9.145-29.209,1.384-16.133-10.972-36.093.911-42.572,12.619-6.881,24.352,29.95,24.352,29.95C688.776,10126.937,693.206,10140.049,696.925,10159.729Z" transform="translate(-666.917 -10072.297)" fill="#ffe200"/>
        <path id="Path_10770" data-name="Path 10770" d="M695.263,10088.686l2.135-.1,8.825,9.593-2.974,2.165S697.364,10093.407,695.263,10088.686Z" transform="translate(-684.269 -10071.3)" fill="#fff"/>
        <path id="Path_10771" data-name="Path 10771" d="M713.8,10100.883l.14-.088c-2.139-5.165-7.049-13.194-12.357-13.085C706.077,10092.34,713.8,10100.883,713.8,10100.883Z" transform="translate(-688.14 -10070.762)" fill="#f6cda2"/>
      </g>
      <g id="Group_8419" data-name="Group 8419" transform="translate(42.754 41.67)">
        <path id="Path_10772" data-name="Path 10772" d="M762.647,10126.764c-.417-.633-.581-1.275-.862-1.09a1.38,1.38,0,0,0-.026,1.649,1.407,1.407,0,0,0,1.536.636C763.574,10127.773,763.063,10127.393,762.647,10126.764Z" transform="translate(-750.65 -10110.359)" fill="#f8c471"/>
        <g id="Group_8417" data-name="Group 8417" transform="translate(9.912)">
          <path id="Path_10773" data-name="Path 10773" d="M762.141,10124.837a3.44,3.44,0,0,0-.068.725c-2.737-1.05-2.432,1.429-.1,2.3a3.565,3.565,0,0,0,.925.215,4.356,4.356,0,0,0,1.073,1.009,5.365,5.365,0,0,1-2-.357C758.068,10127.275,758.084,10123.433,762.141,10124.837Z" transform="translate(-759.071 -10109.68)" fill="#cfd0d8"/>
          <path id="Path_10774" data-name="Path 10774" d="M762.143,10124.837c-.012.076-.024.135-.033.194-1-.152-1.99-.381-2.406.356a1.806,1.806,0,0,0,.2,2.049C758.292,10125.784,759.019,10123.753,762.143,10124.837Z" transform="translate(-759.073 -10109.68)" fill="#cfd0d8"/>
          <rect id="Rectangle_2694" data-name="Rectangle 2694" width="1.5" height="5.113" transform="matrix(0.072, -0.997, 0.997, 0.072, 4.999, 21.221)" fill="#cfd0d8"/>
          <path id="Path_10775" data-name="Path 10775" d="M773.8,10099.126c2.151-.31,5.585-.994,2.469-3.55s-2.727-7.547,2.388-9.341c-2.8.637-8.308,2.229-7.31,6.932.448,2.12,5.321,1.535,5.413,4.277C776.795,10098.292,773.8,10099.126,773.8,10099.126Z" transform="translate(-766.515 -10086.235)" fill="#ffd9a4" opacity="0.4"/>
          <path id="Path_10776" data-name="Path 10776" d="M776.855,10123.774c-.183,2.55-2.064,6.241-5.72,5.938-5.2-.433-5.446-4.795-5.419-6.742A65.212,65.212,0,0,1,776.855,10123.774Z" transform="translate(-763.138 -10108.72)" fill="#cfd0d8"/>
          <path id="Path_10777" data-name="Path 10777" d="M777.394,10130.779c3.644.3,5.522-3.363,5.718-5.912.17.025.332.045.505.072-.183,2.551-2.064,6.24-5.72,5.938a7.931,7.931,0,0,1-1.136-.176C776.964,10130.734,777.173,10130.762,777.394,10130.779Z" transform="translate(-769.9 -10109.885)" fill="#cfd0d8"/>
          <path id="Path_10778" data-name="Path 10778" d="M776.185,10124.605c-.153,2.123-1.408,5.223-3.744,5.021-3.325-.289-3.417-3.916-3.372-5.535A31.994,31.994,0,0,1,776.185,10124.605Z" transform="translate(-765.187 -10109.395)" fill="#cfd0d8"/>
          <path id="Path_10779" data-name="Path 10779" d="M766.491,10123.641c.022-.291,2.379-.359,5.266-.15s5.212.613,5.19.906-2.378.357-5.266.148S766.47,10123.93,766.491,10123.641Z" transform="translate(-763.613 -10108.968)" fill="#fff"/>
          <path id="Path_10780" data-name="Path 10780" d="M767.376,10123.746c.013-.17,2.21-.148,4.912.047s4.881.488,4.869.66a39.761,39.761,0,0,1-9.781-.707Z" transform="translate(-764.155 -10109.128)" fill="#9999a5"/>
        </g>
        <path id="Path_10781" data-name="Path 10781" d="M755.451,10137.591c-.7-.565-1.22-1.155-1.013-1.527s.939-.215,1.637.353,1.095,1.327.889,1.7S756.149,10138.158,755.451,10137.591Z" transform="translate(-746.295 -10116.614)" fill="#f8c471"/>
        <path id="Path_10782" data-name="Path 10782" d="M757.531,10133.107c-1-.234-1.779-.7-1.874-.287s.538,1.322,1.545,1.561,2-.293,2.1-.7S758.539,10133.346,757.531,10133.107Z" transform="translate(-747.064 -10114.652)" fill="#f8c471"/>
        <g id="Group_8418" data-name="Group 8418" transform="translate(0 15.658)">
          <path id="Path_10783" data-name="Path 10783" d="M734.28,10138.037c2.227-1.088,8.2.158,8.036-2-.147-1.929-3.243-4.812-8.8.237Z" transform="translate(-733.515 -10130.799)" fill="#ffd9a4"/>
          <path id="Path_10784" data-name="Path 10784" d="M742.052,10133.45c.045,3.425,4.218,3.354,5.528,3.03,1.437-.36,2.114-2.971,1.438-3.938S742.036,10132.14,742.052,10133.45Z" transform="translate(-738.741 -10129.941)" fill="#ffd9a4"/>
          <path id="Path_10785" data-name="Path 10785" d="M753.542,10131.539c1.677-.428,2.454-1.035,2.288-1.468s-1.1-.13-2.778.3-3.911.548-3.747.981S751.866,10131.961,753.542,10131.539Z" transform="translate(-743.176 -10128.599)" fill="#ffd9a4"/>
          <path id="Path_10786" data-name="Path 10786" d="M752.79,10136.556c1.763-.084,2.547-.933,2.475-1.381s-1.672.014-3.435.1-2.9.232-2.827.682S751.027,10136.64,752.79,10136.556Z" transform="translate(-742.994 -10131.735)" fill="#ffd9a4"/>
          <path id="Path_10787" data-name="Path 10787" d="M749.424,10142.032c1.759-.1,2.719-.559,2.648-1.006s-1.22-.16-2.979-.058-2.991.2-2.919.646S747.662,10142.133,749.424,10142.032Z" transform="translate(-741.263 -10135.285)" fill="#ffd9a4"/>
          <path id="Path_10788" data-name="Path 10788" d="M745.023,10129.626c1.325-1.519,1.086-2.759.358-3.016-.251-.088-4.519,3.051-3.932,3.982C741.864,10131.253,743.692,10131.151,745.023,10129.626Z" transform="translate(-738.338 -10126.608)" fill="#ffd9a4"/>
        </g>
        <path id="Path_10789" data-name="Path 10789" d="M753.038,10123.21c.65-.519.911-1.272,1.426-.854.411.333.018,1.194-.643,1.7-1.219.929-3.506,2.659-3.233.182C750.637,10123.79,752.345,10123.764,753.038,10123.21Z" transform="translate(-743.952 -10108.272)" fill="#f8c471"/>
      </g>
      <g id="Group_8420" data-name="Group 8420" transform="translate(21.397 46.41)">
        <path id="Path_10790" data-name="Path 10790" d="M702.921,10144.974c4.454,4.447-15.345,24.829-16.668,25.155,0,0-4.329-2.054-3.526-3.44C684.808,10163.1,700.931,10142.987,702.921,10144.974Z" transform="translate(-681.007 -10126.849)" fill="#fff4ba"/>
        <path id="Path_10791" data-name="Path 10791" d="M683.545,10098.643c-7.3-3.352-5.23,39.686-3.089,40.713,0,0,4.228-.922,5.174-2.736C688.487,10131.137,686.8,10100.137,683.545,10098.643Z" transform="translate(-678.449 -10098.457)" fill="#fff4ba"/>
        <path id="Path_10792" data-name="Path 10792" d="M726.479,10140.056l-1.658-.778-6.3,3.679s2.566,2.013,3.373,2.048S726.479,10140.056,726.479,10140.056Z" transform="translate(-702.978 -10123.445)" fill="#ebebeb"/>
        <path id="Path_10793" data-name="Path 10793" d="M733.432,10141.033l1.185,1.454-1.742,7.319s-2.582-2.04-2.838-2.838S733.432,10141.033,733.432,10141.033Z" transform="translate(-710.021 -10124.521)" fill="#ebebeb"/>
      </g>
      <g id="Group_8422" data-name="Group 8422" transform="translate(16.355 0)">
        <g id="Group_8421" data-name="Group 8421">
          <path id="Path_10794" data-name="Path 10794" d="M683.939,10010.913c-3.792-1.041-11.426-2.256-15.1-7.98-4.782-7.443-3.567-12.047-1.974-17.648,3.038-10.679,21.252-5.677,20.114-2.531C685.463,9986.931,697.68,10014.685,683.939,10010.913Z" transform="translate(-665.449 -9978.795)" fill="#2d356b"/>
          <path id="Path_10795" data-name="Path 10795" d="M709.041,10019.673c1.382,0,3.856-7.144,4.593-12.622.243-1.806-1.7-2.019-1.58-8.181.072-3.618-1.6-8.627-7.657-12.218-5.72-3.392-6.144,7.833-6.634,10.427-1.4,7.389-3.282,12.027-1.388,15.6C700.075,10019.663,707.547,10019.316,709.041,10019.673Z" transform="translate(-683.891 -9983.218)" fill="#ffd8a3"/>
          <path id="Path_10796" data-name="Path 10796" d="M729.628,10047.508a.318.318,0,0,1,.288-.346.335.335,0,0,1,.276.367.319.319,0,0,1-.289.346A.334.334,0,0,1,729.628,10047.508Z" transform="translate(-704.737 -10020.646)" fill="#ffab00"/>
          <path id="Path_10797" data-name="Path 10797" d="M727.574,10021.918c.033-.972.6-1.73,1.268-1.7s1.184.85,1.15,1.821-.6,1.731-1.269,1.7S727.54,10022.891,727.574,10021.918Z" transform="translate(-703.478 -10004.152)" fill="#2d356b"/>
          <path id="Path_10798" data-name="Path 10798" d="M724.089,10021.889c.935-1.344,2.27-2.685,4.813-1.795A9.292,9.292,0,0,0,724.089,10021.889Z" transform="translate(-701.346 -10003.9)" fill="#2d356b"/>
          <path id="Path_10799" data-name="Path 10799" d="M734.319,10058.038c.041-.225.735.573,1.064.6.931.079.665,1.266-.263,1.091C734.757,10059.664,734.276,10058.278,734.319,10058.038Z" transform="translate(-707.607 -10027.279)" fill="#f36973"/>
          <path id="Path_10800" data-name="Path 10800" d="M732.222,10047.6c-.63-.25,3.625-1.477,2.854-.033A6.661,6.661,0,0,1,732.222,10047.6Z" transform="translate(-706.285 -10020.471)" fill="#f36973"/>
          <path id="Path_10801" data-name="Path 10801" d="M725.848,10008.178a5.667,5.667,0,0,0-6.83,3.563C720.858,10009.221,722.286,10008.279,725.848,10008.178Z" transform="translate(-698.242 -9996.682)" fill="#2d356b"/>
          <path id="Path_10802" data-name="Path 10802" d="M739.935,10032.646l-2.139.653-.077-5.463,3.188,3.889Z" transform="translate(-709.689 -10008.816)" fill="#ffd8a3"/>
          <path id="Path_10803" data-name="Path 10803" d="M739.949,10042.992l1.663-3.383-1.606-.059Z" transform="translate(-711.055 -10015.986)" fill="#ffd8a3"/>
          <path id="Path_10804" data-name="Path 10804" d="M733.145,10052.887a40.391,40.391,0,0,0,1.055-4.744h-3.863S731.1,10052.234,733.145,10052.887Z" transform="translate(-705.171 -10021.246)" fill="#ffab00"/>
          <path id="Path_10805" data-name="Path 10805" d="M732.248,10050.678h2.2q.191-.9.353-1.866h-3.158Z" transform="translate(-705.971 -10021.655)" fill="#fff"/>
          <path id="Path_10806" data-name="Path 10806" d="M688.156,10029.4c.087-1.685.657-2.927-.621-2.99s-2.389,1.252-2.476,2.939.883,3.1,2.163,3.168S688.071,10031.088,688.156,10029.4Z" transform="translate(-677.45 -10007.942)" fill="#f7c371"/>
        </g>
        <path id="Path_10807" data-name="Path 10807" d="M707.182,9986.032c-4.058,6.132-11.168,15.1-9.457,23.834-3.6-9.3-1.992-21.711,4.179-26.82C702.554,9983.979,708.079,9983.7,707.182,9986.032Z" transform="translate(-684.048 -9981.397)" fill="#2d356b"/>
      </g>
    </g>
    <g id="Group_8424" data-name="Group 8424" transform="translate(374.047 9872.212)">
      <path id="Path_10808" data-name="Path 10808" d="M972.086,10244.32h-6.707c4.8,1.45,3.41,54.639,0,92.5h6.707C969.339,10301.05,968.8,10245.968,972.086,10244.32Z" transform="translate(-894.676 -10243.483)" fill="#7b88ac"/>
      <path id="Path_10809" data-name="Path 10809" d="M959.658,10469.521h-5.037l-8.18,7.071h21.4Z" transform="translate(-883.083 -10381.341)" fill="#7b88ac"/>
      <path id="Path_10810" data-name="Path 10810" d="M928.344,10246.954H801.117l8.186,2.516H920.157Z" transform="translate(-794.122 -10245.095)" fill="#7b88ac"/>
      <rect id="Rectangle_2695" data-name="Rectangle 2695" width="140.845" height="2.516" transform="translate(0 0)" fill="#7b88ac"/>
    </g>
    <g id="Group_8428" data-name="Group 8428" transform="translate(269.67 9772.981)">
      <rect id="Rectangle_2697" data-name="Rectangle 2697" width="55.674" height="26.996" rx="6.672" transform="translate(23 51)" fill="#fff" stroke="#231f20" stroke-miterlimit="10" stroke-width="0.25"/>
      <text id="Akiko" transform="translate(37.837 67.998)" fill="#2d356b" font-size="10" font-family="TrebuchetMS-Bold, Trebuchet MS" font-weight="700"><tspan x="0" y="0">Akiko</tspan></text>
    </g>
    <g id="Group_8429" data-name="Group 8429" transform="translate(578.109 9762.981)">
      <rect id="Rectangle_2698" data-name="Rectangle 2698" width="54.674" height="28.996" rx="6.672" transform="translate(-38.836 61)" fill="#fff" stroke="#231f20" stroke-miterlimit="10" stroke-width="0.25"/>
      <text id="Nick" transform="translate(-21.5 78.998)" fill="#2d356b" font-size="10" font-family="TrebuchetMS-Bold, Trebuchet MS" font-weight="700"><tspan x="0" y="0">Nick</tspan></text>
    </g>
  </g>
</svg>
