<svg xmlns="http://www.w3.org/2000/svg" width="541" height="369.48" viewBox="0 0 541 369.48"><g transform="translate(-32 -1757)"><g transform="translate(32 1758.799)"><g transform="translate(0.618)"><g transform="translate(0.142)"><path d="M1159.413,1722.436h.64v-12.9H619.813v269.581h539.6v-27.079h.005Z" transform="translate(-619.813 -1709.16)" fill="#fff"/><rect width="539.481" height="0.754" transform="translate(0 269.581)" fill="#a0bacb"/><rect width="540.24" height="0.754" fill="#7b88ac"/></g><g transform="translate(0 55.084)"><path d="M723.914,1868.028v-.2H714.84v.2h-93.8v164.356H813.666V1868.028Zm81.777,5.277v36.141H723.914V1873.3Zm-90.851,42.378v69.047H629.019v-69.047Zm9.074,69.047v-69.047h81.777v69.047ZM714.84,1873.3v36.141H629.019V1873.3Zm-85.821,117.66H714.84v36.141H629.019Zm94.9,36.141v-36.141h81.777v36.141Z" transform="translate(-620.474 -1867.453)" fill="#ebebeb"/><path d="M813.167,2032.054H619.406v-165.11h93.8v-.2h10.213v.2h89.752Zm-192.622-.754H812.028V1867.7H722.276v-.2h-7.935v.2h-93.8Zm184.647-4.523H722.276v-36.9h82.916Zm-81.777-.754h80.638v-35.388H723.416Zm-9.074.754H627.381v-36.9h86.961Zm-85.821-.754H713.2v-35.388H628.52ZM805.192,1984.4H722.276v-69.8h82.916Zm-81.777-.754h80.638v-68.292H723.416Zm-9.074.754H627.381v-69.8h86.961Zm-85.821-.754H713.2v-68.292H628.52Zm176.672-74.529H722.276v-36.895h82.916Zm-81.777-.754h80.638v-35.387H723.416Zm-9.074.754H627.381v-36.895h86.961Zm-85.821-.754H713.2v-35.387H628.52Z" transform="translate(-619.406 -1866.747)" fill="#ebebeb"/></g><g transform="translate(201.758 54.111)"><path d="M1447.663,1865.233v-.2h-8.323v.2h-86.032v164.356h176.678V1865.233Zm75.008,5.277v36.141h-75.008V1870.51Zm-83.331,42.377v69.046h-78.717v-69.046Zm8.323,69.046v-69.046h75.008v69.046Zm-8.323-111.424v36.141h-78.717V1870.51Zm-78.717,117.66h78.717v36.141h-78.717Zm87.04,36.141v-36.141h75.008v36.141Z" transform="translate(-1352.785 -1864.658)" fill="#ebebeb"/><path d="M1529.529,2029.259H1351.806V1864.15h86.032v-.2h9.368v.2h82.322Zm-176.677-.754h175.632V1864.9h-82.323v-.2h-7.278v.2h-86.032Zm169.363-4.524h-76.053v-36.895h76.053Zm-75.008-.754h73.963v-35.387h-73.963Zm-8.323.754h-79.763v-36.895h79.763Zm-78.718-.754h77.672v-35.387h-77.672Zm162.048-41.624h-76.053v-69.8h76.053Zm-75.008-.754h73.963v-68.293h-73.963Zm-8.323.754h-79.763v-69.8h79.763Zm-78.718-.754h77.672v-68.293h-77.672Zm162.048-74.529h-76.053v-36.895h76.053Zm-75.008-.754h73.963v-35.387h-73.963Zm-8.323.754h-79.763v-36.895h79.763Zm-78.718-.754h77.672v-35.387h-77.672Z" transform="translate(-1351.806 -1863.952)" fill="#ebebeb"/></g><g transform="translate(387.582 55.084)"><path d="M2160.628,2027.107H2112.02v-36.141h48.608v-6.236H2112.02v-69.047h48.608v-6.236H2112.02V1873.3h48.608v-5.277H2112.02v-.2h-9.073v.2h-93.8v164.356h151.478Zm-57.682,0h-85.821v-36.141h85.821Zm0-42.378h-85.821v-69.047h85.821Zm0-75.283h-85.821V1873.3h85.821Z" transform="translate(-2008.581 -1867.453)" fill="#ebebeb"/><path d="M2303.129,2257.493h49.178v-.754h-48.039v-35.387h48.039v-.754h-49.178Z" transform="translate(-2200.259 -2097.463)" fill="#ebebeb"/><path d="M2303.129,2074.06h49.178v-.754h-48.039v-68.292h48.039v-.754h-49.178Z" transform="translate(-2200.259 -1956.407)" fill="#ebebeb"/><path d="M2303.129,1919.375h49.178v-.754h-48.039v-35.387h48.039v-.754h-49.178Z" transform="translate(-2200.259 -1877.005)" fill="#ebebeb"/><path d="M2117.391,1882.48h-86.96v36.895h86.96Zm-1.139,36.141H2031.57v-35.387h84.682Z" transform="translate(-2022.456 -1877.005)" fill="#ebebeb"/><path d="M2159.562,2031.3H2008.654V1867.7h93.8v-.2h7.934v.2h49.178v-.754h-48.038v-.2H2101.31v.2h-93.8v165.11h152.047Z" transform="translate(-2007.515 -1866.747)" fill="#ebebeb"/><path d="M2030.431,2257.493h86.96V2220.6h-86.96Zm1.139-36.141h84.682v35.387H2031.57Z" transform="translate(-2022.456 -2097.462)" fill="#ebebeb"/><path d="M2117.391,2004.259h-86.96v69.8h86.96Zm-1.139,69.047H2031.57v-68.292h84.682Z" transform="translate(-2022.456 -1956.407)" fill="#ebebeb"/></g></g><g transform="translate(0 237.503)"><path d="M1157.871,2391.881h-539.6v92.494h-.646v37.364h540.235V2395.822h.005Z" transform="translate(-617.63 -2391.561)" fill="#f9f9f9"/><rect width="538.158" height="0.54" transform="translate(2.271 129.434)" fill="#f9f9f9"/><rect width="539.487" height="0.54" transform="translate(0.76)" fill="#f9f9f9"/></g><g transform="translate(33.997 4.753)"><path d="M1717.226,1802.764v-80.653h-2.147v80.653c-6.692.411-11.956,4.608-11.956,9.735,0,5.4,5.834,9.776,13.03,9.776s13.029-4.377,13.029-9.776C1729.182,1807.372,1723.918,1803.175,1717.226,1802.764Z" transform="translate(-1351.735 -1722.111)" fill="#ffb2b0"/><path d="M729.429,1821.071v-80.653h-2.147v80.653c-6.693.411-11.956,4.608-11.956,9.735,0,5.4,5.833,9.776,13.029,9.776s13.029-4.377,13.029-9.776C741.385,1825.679,736.121,1821.482,729.429,1821.071Z" transform="translate(-715.326 -1734.048)" fill="#ffb2b0"/><path d="M1077.014,1817.464v-58.637h-1.561v58.637c-4.866.3-8.692,3.35-8.692,7.077,0,3.926,4.241,7.107,9.473,7.107s9.473-3.182,9.473-7.107C1085.707,1820.814,1081.88,1817.762,1077.014,1817.464Z" transform="translate(-941.788 -1746.05)" fill="#ffb2b0"/><path d="M2020.808,1817.464v-58.637h-1.561v58.637c-4.866.3-8.692,3.35-8.692,7.077,0,3.926,4.241,7.107,9.473,7.107s9.473-3.182,9.473-7.107C2029.5,1820.814,2025.674,1817.762,2020.808,1817.464Z" transform="translate(-1549.964 -1746.05)" fill="#ffb2b0"/></g></g><g transform="translate(334.815 1992.381)"><path d="M1820.8,2535.4h34.753s-5.186,4.125-18.283,4.125S1820.8,2535.4,1820.8,2535.4Z" transform="translate(-1801.251 -2484.327)" fill="#ebebeb"/><g transform="translate(48.602 51.373)"><path d="M1921.6,2578.919l-16.4-42.347.649-.3,16.4,42.347Z" transform="translate(-1905.198 -2536.271)" fill="#ebebeb"/></g><g transform="translate(13.146 51.226)"><path d="M1802.875,2578.6l-.678-.213,11.109-42.54.677.213Z" transform="translate(-1802.197 -2535.844)" fill="#ebebeb"/></g><g transform="translate(29.178 52.279)"><path d="M1849.475,2580.514l-.705-.037,1.764-41.573.7.037Z" transform="translate(-1848.77 -2538.904)" fill="#ebebeb"/></g><g transform="translate(39.586 53.004)"><path d="M1885.533,2581.944l-6.524-40.8.694-.134,6.524,40.8Z" transform="translate(-1879.009 -2541.01)" fill="#ebebeb"/></g><path d="M1815.333,2439.263H1786.28c-15.822,0-23.229-38.057-22.175-44.6,1.556-9.668,18.545-9.668,23.212-2.708,3.113,4.642,7.781,21.088,10.549,31.533a12.512,12.512,0,0,0,11.483,9.268c5.153.254,10.629.68,11.035,1.352C1821.051,2435.212,1821.162,2439.263,1815.333,2439.263Z" transform="translate(-1764.007 -2387.028)" fill="#ebebeb"/><path d="M1820.319,2445.2l-29.08-.581c-15.82,0-24.687-34.9-23.632-41.443.156-.976-3.189-.144-3.5,1.8-1.054,6.547,6.353,44.6,22.175,44.6h29.053C1821.165,2449.583,1821.1,2445.2,1820.319,2445.2Z" transform="translate(-1764.007 -2397.349)" fill="#ebebeb"/></g><g transform="translate(385.079 2020.411)"><path d="M2056.978,2470.144h-4.646c3.323,1.005,2.363,37.855,0,64.088h4.646C2055.074,2509.448,2054.7,2471.286,2056.978,2470.144Z" transform="translate(-2003.347 -2469.564)" fill="#ebebeb"/><path d="M2046.7,2645.939h-3.49l-5.667,4.9h14.824Z" transform="translate(-1993.652 -2584.846)" fill="#ebebeb"/><path d="M2012.252,2472.2h-88.145l5.672,1.743h76.8Z" transform="translate(-1919.26 -2470.913)" fill="#ebebeb"/><rect width="97.581" height="1.743" fill="#ebebeb"/></g><g transform="translate(222.697 1949.829)"><path d="M1273.684,2371.9h-25.41s3.792,3.016,13.368,3.016S1273.684,2371.9,1273.684,2371.9Z" transform="translate(-1239.978 -2334.554)" fill="#ebebeb"/><g transform="translate(0 37.562)"><path d="M1224.647,2403.717l11.99-30.963-.474-.221-11.99,30.963Z" transform="translate(-1224.173 -2372.534)" fill="#ebebeb"/></g><g transform="translate(29.771 37.455)"><path d="M1318.782,2403.481l.5-.156-8.123-31.1-.495.156Z" transform="translate(-1310.66 -2372.222)" fill="#ebebeb"/></g><g transform="translate(24.862 38.225)"><path d="M1297.688,2404.883l.516-.027-1.29-30.4-.515.028Z" transform="translate(-1296.399 -2374.459)" fill="#ebebeb"/></g><g transform="translate(13.779 38.755)"><path d="M1264.708,2405.928l4.77-29.831-.507-.1-4.77,29.831Z" transform="translate(-1264.201 -2375.999)" fill="#ebebeb"/></g><path d="M1247.125,2301.6h21.242c11.568,0,16.984-27.826,16.213-32.613-1.137-7.069-13.559-7.069-16.972-1.98-2.276,3.395-5.689,15.419-7.713,23.057a9.147,9.147,0,0,1-8.4,6.776c-3.767.186-7.772.5-8.068.989C1242.943,2298.642,1242.862,2301.6,1247.125,2301.6Z" transform="translate(-1236.652 -2263.412)" fill="#ebebeb"/><path d="M1243.485,2305.944l21.262-.424c11.568,0,18.051-25.515,17.279-30.3-.114-.713,2.332-.105,2.56,1.319.771,4.787-4.645,32.613-16.213,32.613h-21.242C1242.866,2309.15,1242.915,2305.944,1243.485,2305.944Z" transform="translate(-1236.658 -2270.958)" fill="#ebebeb"/></g><g transform="translate(118.73 1949.829)"><path d="M963.668,2371.9h25.411s-3.792,3.016-13.368,3.016S963.668,2371.9,963.668,2371.9Z" transform="translate(-949.374 -2334.554)" fill="#ebebeb"/><g transform="translate(35.536 37.562)"><path d="M1037.369,2403.717l-11.99-30.963.474-.221,11.99,30.963Z" transform="translate(-1025.379 -2372.534)" fill="#ebebeb"/></g><g transform="translate(9.612 37.455)"><path d="M950.562,2403.481l-.5-.156,8.123-31.1.495.156Z" transform="translate(-950.067 -2372.222)" fill="#ebebeb"/></g><g transform="translate(21.334 38.225)"><path d="M984.635,2404.883l-.516-.027,1.29-30.4.515.028Z" transform="translate(-984.12 -2374.459)" fill="#ebebeb"/></g><g transform="translate(28.945 38.755)"><path d="M1011,2405.928l-4.77-29.831.507-.1,4.77,29.831Z" transform="translate(-1006.229 -2375.999)" fill="#ebebeb"/></g><path d="M959.671,2301.6H938.428c-11.568,0-16.984-27.826-16.213-32.613,1.138-7.069,13.559-7.069,16.972-1.98,2.276,3.395,5.689,15.419,7.713,23.057a9.147,9.147,0,0,0,8.4,6.776c3.767.186,7.772.5,8.068.989C963.852,2298.642,963.934,2301.6,959.671,2301.6Z" transform="translate(-922.143 -2263.412)" fill="#ebebeb"/><path d="M963.317,2305.944l-21.262-.424c-11.568,0-18.051-25.515-17.279-30.3.114-.713-2.332-.105-2.561,1.319-.771,4.787,4.646,32.613,16.213,32.613h21.243C963.936,2309.15,963.887,2305.944,963.317,2305.944Z" transform="translate(-922.143 -2270.958)" fill="#ebebeb"/></g><g transform="translate(155.482 1970.324)"><path d="M1136.355,2324.184h-3.4c2.43.735,1.728,27.678,0,46.859h3.4C1134.964,2352.922,1134.692,2325.019,1136.355,2324.184Z" transform="translate(-1097.142 -2323.76)" fill="#ebebeb"/><path d="M1128.844,2452.72h-2.552l-4.144,3.582h10.839Z" transform="translate(-1090.053 -2408.05)" fill="#ebebeb"/><path d="M1103.653,2325.688H1039.2l4.147,1.274h56.155Z" transform="translate(-1035.66 -2324.746)" fill="#ebebeb"/><rect width="71.348" height="1.274" fill="#ebebeb"/></g><g transform="translate(63.748 1891.517)"><rect width="48.912" height="1.747" transform="translate(0.446 0.372)" fill="#ebebeb"/><path d="M752.011,2096.5h-49.8v-2.49h49.8Zm-48.912-.743h48.02v-1H703.1Z" transform="translate(-702.208 -2094.01)" fill="#ebebeb"/><g transform="translate(0 26.354)"><rect width="48.912" height="1.747" transform="translate(0.446 0.371)" fill="#ebebeb"/><path d="M752.011,2173.061h-49.8v-2.49h49.8Zm-48.912-.743h48.02v-1H703.1Z" transform="translate(-702.208 -2170.57)" fill="#ebebeb"/></g><g transform="translate(0 52.708)"><rect width="48.912" height="1.747" transform="translate(0.446 0.371)" fill="#ebebeb"/><path d="M752.011,2249.62h-49.8v-2.49h49.8Zm-48.912-.743h48.02v-1H703.1Z" transform="translate(-702.208 -2247.13)" fill="#ebebeb"/></g><g transform="translate(0 0.583)"><g transform="translate(0 79.061)"><rect width="48.912" height="1.747" transform="translate(0.446 0.372)" fill="#ebebeb"/><path d="M752.011,2327.87h-49.8v-2.49h49.8Zm-48.912-.743h48.02v-1H703.1Z" transform="translate(-702.208 -2325.38)" fill="#ebebeb"/></g><g transform="translate(0 104.284)"><rect width="48.912" height="1.747" transform="translate(0.446 0.372)" fill="#ebebeb"/><path d="M752.011,2401.146h-49.8v-2.49h49.8ZM703.1,2400.4h48.02v-1H703.1Z" transform="translate(-702.208 -2398.655)" fill="#ebebeb"/></g><rect width="2.62" height="126.775" transform="translate(0.446 0.371)" fill="#ebebeb"/><path d="M705.719,2223.221h-3.511V2095.7h3.511Zm-2.62-.743h1.729V2096.446H703.1Z" transform="translate(-702.208 -2095.703)" fill="#ebebeb"/><g transform="translate(46.291)"><rect width="2.62" height="126.775" transform="translate(0.446 0.371)" fill="#ebebeb"/><path d="M840.2,2223.221h-3.512V2095.7H840.2Zm-2.62-.743h1.729V2096.446H837.58Z" transform="translate(-836.688 -2095.703)" fill="#ebebeb"/></g></g></g><g transform="translate(72.515 1897.729)"><rect width="5.124" height="20.141" transform="translate(0.445 0.371)" fill="#ebebeb"/><path d="M733.693,2132.943h-6.015v-20.885h6.015Zm-5.124-.743H732.8v-19.4h-4.233Z" transform="translate(-727.678 -2112.058)" fill="#ebebeb"/><path d="M734.887,2123.851a1.717,1.717,0,1,1-1.689-1.407A1.568,1.568,0,0,1,734.887,2123.851Z" transform="translate(-730.191 -2118.868)" fill="#ebebeb"/><g transform="translate(6.023)"><rect width="5.124" height="20.141" transform="translate(0.446 0.371)" fill="#ebebeb"/><path d="M751.19,2132.943h-6.016v-20.885h6.016Zm-5.124-.743H750.3v-19.4h-4.233Z" transform="translate(-745.174 -2112.058)" fill="#ebebeb"/><path d="M752.383,2123.851a1.717,1.717,0,1,1-1.688-1.407A1.567,1.567,0,0,1,752.383,2123.851Z" transform="translate(-747.687 -2118.868)" fill="#ebebeb"/></g><g transform="translate(12.045)"><rect width="5.124" height="20.141" transform="translate(0.446 0.371)" fill="#ebebeb"/><path d="M768.686,2132.943h-6.015v-20.885h6.015Zm-5.124-.743h4.232v-19.4h-4.232Z" transform="translate(-762.671 -2112.058)" fill="#ebebeb"/><path d="M769.88,2123.851a1.717,1.717,0,1,1-1.689-1.407A1.568,1.568,0,0,1,769.88,2123.851Z" transform="translate(-765.184 -2118.868)" fill="#ebebeb"/></g><g transform="translate(18.068)"><rect width="5.124" height="20.141" transform="translate(0.446 0.371)" fill="#ebebeb"/><path d="M786.183,2132.943h-6.015v-20.885h6.015Zm-5.124-.743h4.233v-19.4h-4.233Z" transform="translate(-780.168 -2112.058)" fill="#ebebeb"/><path d="M787.377,2123.851a1.717,1.717,0,1,1-1.688-1.407A1.567,1.567,0,0,1,787.377,2123.851Z" transform="translate(-782.681 -2118.868)" fill="#ebebeb"/></g><g transform="translate(24.091)"><rect width="5.124" height="20.141" transform="translate(0.446 0.371)" fill="#ebebeb"/><path d="M803.681,2132.943h-6.016v-20.885h6.016Zm-5.124-.743h4.233v-19.4h-4.233Z" transform="translate(-797.665 -2112.058)" fill="#ebebeb"/><path d="M804.874,2123.851a1.717,1.717,0,1,1-1.688-1.407A1.567,1.567,0,0,1,804.874,2123.851Z" transform="translate(-800.178 -2118.868)" fill="#ebebeb"/></g></g><path d="M729.23,2282.253a8.347,8.347,0,0,1,.8-3.7h-6.142a8.348,8.348,0,0,1,.8,3.7c0,2.239-2.691,6.374-2.691,9.129s2.853,3.661,4.965,3.661,4.965-.9,4.965-3.661S729.23,2284.492,729.23,2282.253Z" transform="translate(-651.434 -323.512)" fill="#ebebeb"/><g transform="translate(89.817 1926.522)"><g transform="translate(0.761)"><path d="M799.4,2205.708c1.657-3.24-2.026-3.18-1.745-4.031.527-1.6,2.512.139,3.317-.666s-1.987-3.309-.525-4.177.95,2.069,2.213,1.86.511-3.311,2-2.965c1.12.261-.211,2.2-.088,3.106s2.433-.414,2.474.879-2.755.727-3.084,1.71,3.006,1.187,1.836,2.018-3.374-.164-3.954.7S798.7,2207.084,799.4,2205.708Z" transform="translate(-791.621 -2195.704)" fill="#ebebeb"/><path d="M786.913,2213.4c-1.557-3.274-4.123-1.073-4.642-1.842-.973-1.444,1.9-1.374,1.8-2.418s-4.2-1.187-3.9-2.662,2.421.914,3.144.025-2.431-2.653-1.079-3.281c1.016-.472,1.707,1.688,2.559,2.259s1.38-1.721,2.5-.825-1.345,2.132-.749,3.024,3.138-.919,3.008.358-2.536,1.861-2.219,2.816S787.574,2214.787,786.913,2213.4Z" transform="translate(-780.152 -2200.588)" fill="#ebebeb"/></g><path d="M789.427,2219.728h-8.5s-2.984,2.135-2.984,4.659,1.86,5.145,7.235,5.145,7.235-2.621,7.235-5.145S789.427,2219.728,789.427,2219.728Z" transform="translate(-777.942 -2211.458)" fill="#ebebeb"/></g><g transform="translate(91.902 1960.029)"><rect width="7.846" height="8.882" transform="translate(2.427 2.621)" fill="#ebebeb"/><ellipse cx="6.192" cy="2.621" rx="6.192" ry="2.621" fill="#ebebeb"/></g><g transform="translate(86.438 1883.36)"><rect width="5.817" height="6.585" transform="translate(1.8 1.943)" fill="#ebebeb"/><path d="M777.308,2072.258c0,1.073-2.055,1.943-4.591,1.943s-4.591-.87-4.591-1.943,2.055-1.943,4.591-1.943S777.308,2071.185,777.308,2072.258Z" transform="translate(-768.126 -2070.315)" fill="#ebebeb"/></g><g transform="translate(66.988 1869.225)"><path d="M740.95,2050.364s-2.013-5.824,6.9-12.376c0,0-7.628,6.989-5.124,12.376Z" transform="translate(-730.727 -2034.98)" fill="#ebebeb"/><path d="M737.976,2045.956s-4.615-6.488,3.649-16.706c0,0-6.557,10.41-1.515,16.243Z" transform="translate(-728.062 -2029.25)" fill="#ebebeb"/><path d="M722.777,2050.364s2.013-5.824-6.9-12.376c0,0,7.628,6.989,5.124,12.376Z" transform="translate(-714.415 -2034.98)" fill="#ebebeb"/><path d="M730.871,2047.441s3.707-5.214-2.935-13.425c0,0,5.271,8.365,1.22,13.053Z" transform="translate(-722.32 -2032.375)" fill="#ebebeb"/><path d="M740.118,2058.3s-1.74-5.885,7.468-12.143c0,0-7.948,6.736-5.7,12.2Z" transform="translate(-730.223 -2040.34)" fill="#ebebeb"/><path d="M719.09,2056.229s1.74-5.885-7.468-12.143c0,0,7.948,6.737,5.7,12.2Z" transform="translate(-711.622 -2038.979)" fill="#ebebeb"/><path d="M724.941,2068.019h-6.023l2.764,9.318H728.2l2.764-9.318Z" transform="translate(-716.406 -2054.674)" fill="#ebebeb"/></g><g transform="translate(68.421 1937.315)"><g transform="translate(0 0)"><g transform="translate(0.446 4.93)"><rect width="2.46" height="18.435" transform="translate(0 2.46) rotate(-90)" fill="#ebebeb"/></g><g transform="translate(0 2.089)"><rect width="2.46" height="18.435" transform="translate(0.446 2.832) rotate(-90)" fill="#ebebeb"/><path d="M735.113,2236.33H715.786v-3.2h19.326Zm-18.435-.743h17.544v-1.717H716.677Z" transform="translate(-715.786 -2233.126)" fill="#ebebeb"/></g><g transform="translate(0.446)"><rect width="2.46" height="18.435" transform="translate(0 2.46) rotate(-90)" fill="#ebebeb"/></g></g><g transform="translate(11.303 0)"><rect width="0.132" height="2.46" fill="#ebebeb"/></g><g transform="translate(12.788 0)"><rect width="0.132" height="2.46" fill="#ebebeb"/></g><g transform="translate(14.272 0)"><rect width="0.132" height="2.46" fill="#ebebeb"/></g><g transform="translate(15.757 0)"><rect width="0.132" height="2.46" fill="#ebebeb"/></g><rect width="8.676" height="0.405" transform="translate(9.302 5.349)" fill="#ebebeb"/><rect width="8.676" height="0.405" transform="translate(9.302 5.957)" fill="#ebebeb"/><rect width="8.676" height="0.405" transform="translate(9.302 6.566)" fill="#ebebeb"/></g><g transform="translate(444.112 1879.023)"><rect width="48.912" height="1.747" transform="translate(0.446 0.372)" fill="#ebebeb"/><path d="M2131.326,2060.2h-49.8v-2.49h49.8Zm-48.912-.743h48.021v-1h-48.021Z" transform="translate(-2081.523 -2057.714)" fill="#ebebeb"/><g transform="translate(0 26.354)"><rect width="48.912" height="1.747" transform="translate(0.446 0.371)" fill="#ebebeb"/><path d="M2131.326,2136.764h-49.8v-2.49h49.8Zm-48.912-.743h48.021v-1h-48.021Z" transform="translate(-2081.523 -2134.274)" fill="#ebebeb"/></g><g transform="translate(0 52.707)"><rect width="48.912" height="1.747" transform="translate(0.446 0.371)" fill="#ebebeb"/><path d="M2131.326,2213.323h-49.8v-2.49h49.8Zm-48.912-.743h48.021v-1h-48.021Z" transform="translate(-2081.523 -2210.833)" fill="#ebebeb"/></g><g transform="translate(0 0.582)"><g transform="translate(0 79.061)"><rect width="48.912" height="1.747" transform="translate(0.446 0.371)" fill="#ebebeb"/><path d="M2131.326,2291.574h-49.8v-2.49h49.8Zm-48.912-.743h48.021v-1h-48.021Z" transform="translate(-2081.523 -2289.084)" fill="#ebebeb"/></g><g transform="translate(0 104.284)"><rect width="48.912" height="1.747" transform="translate(0.446 0.371)" fill="#ebebeb"/><path d="M2131.326,2364.849h-49.8v-2.49h49.8Zm-48.912-.743h48.021v-1h-48.021Z" transform="translate(-2081.523 -2362.359)" fill="#ebebeb"/></g><rect width="2.62" height="126.775" transform="translate(0.446 0.372)" fill="#ebebeb"/><path d="M2085.035,2186.924h-3.512V2059.406h3.512Zm-2.621-.743h1.729V2060.149h-1.729Z" transform="translate(-2081.523 -2059.406)" fill="#ebebeb"/><g transform="translate(46.292)"><rect width="2.62" height="126.775" transform="translate(0.446 0.372)" fill="#ebebeb"/><path d="M2219.515,2186.924H2216V2059.406h3.511Zm-2.62-.743h1.729V2060.149H2216.9Z" transform="translate(-2216.004 -2059.406)" fill="#ebebeb"/></g></g></g><g transform="translate(452.88 1885.235)"><rect width="5.124" height="20.141" transform="translate(0.446 0.372)" fill="#ebebeb"/><path d="M2113.008,2096.646h-6.015v-20.884h6.015Zm-5.124-.743h4.232v-19.4h-4.232Z" transform="translate(-2106.993 -2075.761)" fill="#ebebeb"/><path d="M2114.2,2087.554a1.717,1.717,0,1,1-1.689-1.407A1.568,1.568,0,0,1,2114.2,2087.554Z" transform="translate(-2109.506 -2082.571)" fill="#ebebeb"/><g transform="translate(6.023)"><rect width="5.124" height="20.141" transform="translate(0.446 0.372)" fill="#ebebeb"/><path d="M2130.5,2096.646h-6.016v-20.884h6.016Zm-5.124-.743h4.232v-19.4h-4.232Z" transform="translate(-2124.489 -2075.761)" fill="#ebebeb"/><path d="M2131.7,2087.554a1.717,1.717,0,1,1-1.689-1.407A1.567,1.567,0,0,1,2131.7,2087.554Z" transform="translate(-2127.002 -2082.571)" fill="#ebebeb"/></g><g transform="translate(12.046)"><rect width="5.124" height="20.141" transform="translate(0.446 0.372)" fill="#ebebeb"/><path d="M2148,2096.646h-6.015v-20.884H2148Zm-5.124-.743h4.232v-19.4h-4.232Z" transform="translate(-2141.986 -2075.761)" fill="#ebebeb"/><path d="M2149.2,2087.554a1.717,1.717,0,1,1-1.689-1.407A1.568,1.568,0,0,1,2149.2,2087.554Z" transform="translate(-2144.5 -2082.571)" fill="#ebebeb"/></g><g transform="translate(18.068)"><rect width="5.124" height="20.141" transform="translate(0.446 0.372)" fill="#ebebeb"/><path d="M2165.5,2096.646h-6.016v-20.884h6.016Zm-5.125-.743h4.233v-19.4h-4.233Z" transform="translate(-2159.483 -2075.761)" fill="#ebebeb"/><path d="M2166.692,2087.554a1.717,1.717,0,1,1-1.689-1.407A1.568,1.568,0,0,1,2166.692,2087.554Z" transform="translate(-2161.996 -2082.571)" fill="#ebebeb"/></g><g transform="translate(24.091)"><rect width="5.124" height="20.141" transform="translate(0.446 0.372)" fill="#ebebeb"/><path d="M2183,2096.646h-6.016v-20.884H2183Zm-5.124-.743h4.233v-19.4h-4.233Z" transform="translate(-2176.98 -2075.761)" fill="#ebebeb"/><path d="M2184.19,2087.554a1.717,1.717,0,1,1-1.689-1.407A1.568,1.568,0,0,1,2184.19,2087.554Z" transform="translate(-2179.494 -2082.571)" fill="#ebebeb"/></g></g><path d="M2108.545,2245.956a8.353,8.353,0,0,1,.8-3.7H2103.2a8.349,8.349,0,0,1,.8,3.7c0,2.24-2.691,6.374-2.691,9.13s2.853,3.661,4.964,3.661,4.965-.9,4.965-3.661S2108.545,2248.2,2108.545,2245.956Z" transform="translate(-1650.385 -299.708)" fill="#ebebeb"/><g transform="translate(447.353 1856.731)"><path d="M2120.264,2014.067s-2.012-5.824,6.9-12.376c0,0-7.628,6.989-5.124,12.376Z" transform="translate(-2110.041 -1998.683)" fill="#ebebeb"/><path d="M2117.291,2009.659s-4.614-6.487,3.65-16.706c0,0-6.557,10.409-1.515,16.243Z" transform="translate(-2107.378 -1992.954)" fill="#ebebeb"/><path d="M2102.092,2014.067s2.013-5.824-6.9-12.376c0,0,7.628,6.989,5.124,12.376Z" transform="translate(-2093.73 -1998.683)" fill="#ebebeb"/><path d="M2110.186,2011.145s3.708-5.214-2.935-13.424c0,0,5.271,8.364,1.22,13.052Z" transform="translate(-2101.635 -1996.08)" fill="#ebebeb"/><path d="M2119.433,2022.007s-1.74-5.885,7.468-12.143c0,0-7.948,6.736-5.7,12.2Z" transform="translate(-2109.538 -2004.043)" fill="#ebebeb"/><path d="M2098.406,2019.933s1.74-5.885-7.468-12.143c0,0,7.948,6.736,5.7,12.2Z" transform="translate(-2090.937 -2002.683)" fill="#ebebeb"/><path d="M2104.256,2031.723h-6.023l2.764,9.318h6.518l2.764-9.318Z" transform="translate(-2095.721 -2018.378)" fill="#ebebeb"/></g><g transform="translate(448.786 1924.821)"><g transform="translate(0 0)"><g transform="translate(0.446 4.93)"><rect width="2.46" height="18.435" transform="translate(0 2.46) rotate(-90)" fill="#ebebeb"/></g><g transform="translate(0 2.089)"><rect width="2.46" height="18.435" transform="translate(0.446 2.832) rotate(-90)" fill="#ebebeb"/><path d="M2114.427,2200.034H2095.1v-3.2h19.326Zm-18.435-.743h17.544v-1.717h-17.544Z" transform="translate(-2095.101 -2196.83)" fill="#ebebeb"/></g><g transform="translate(0.446)"><rect width="2.46" height="18.435" transform="translate(0 2.46) rotate(-90)" fill="#ebebeb"/></g></g><g transform="translate(11.303 0)"><rect width="0.132" height="2.46" fill="#ebebeb"/></g><g transform="translate(12.788 0)"><rect width="0.132" height="2.46" fill="#ebebeb"/></g><g transform="translate(14.272 0)"><rect width="0.132" height="2.46" fill="#ebebeb"/></g><g transform="translate(15.757 0)"><rect width="0.132" height="2.46" fill="#ebebeb"/></g><rect width="8.676" height="0.405" transform="translate(9.302 5.349)" fill="#ebebeb"/><rect width="8.676" height="0.405" transform="translate(9.302 5.957)" fill="#ebebeb"/><rect width="8.676" height="0.405" transform="translate(9.302 6.566)" fill="#ebebeb"/></g><g transform="translate(419.68 1949.846)"><g transform="translate(8.421)"><path d="M1970.2,2283.9s-.7-4.691-1.013-5.723c-.407-1.333-.608-3.318.514-4.487s1.291-3.918,1.291-4.339.421-6.73,5.048-5.8c0,0,1.917.468.981,3.833,0,0-.982,2.01.257,3.271a5.125,5.125,0,0,1,0,6.964c-2.313,2.8-1.655,3.831-1.285,4.907,1.686,4.908-1.9,9.416-2.29,10.618s-.856,3.176-.466,4.312l-1.361.025Z" transform="translate(-1968.869 -2263.46)" fill="#ebebeb"/></g><g transform="translate(11.786 4.749)"><path d="M1979.013,2306.714a.224.224,0,0,0,.042,0,.206.206,0,0,0,.16-.243c-.52-2.532.393-7.044.4-7.089.5-1.921.649-4.374-.185-10.631a24.026,24.026,0,0,1,.254-8.209,13.784,13.784,0,0,1,.951-2.982.206.206,0,0,0-.367-.186,13.837,13.837,0,0,0-.982,3.063,24.425,24.425,0,0,0-.263,8.368c.822,6.169.671,8.653.192,10.484-.042.2-.942,4.651-.4,7.266A.2.2,0,0,0,1979.013,2306.714Z" transform="translate(-1978.642 -2277.258)" fill="#fff"/></g><g transform="translate(12.902 18.025)"><path d="M1983.5,2331.924s0-1.106,2.27-2.154a3.793,3.793,0,0,0,2.27-2.735c.582-2.212,2.212-1.63,3.259-.99s3.428,0,3.431-3.318a2.2,2.2,0,0,1,.812-2.677c1.519-.931,2.1-4.258-1.158-4.225s-6.331,1.644-9.488,6.32c-4.388,6.5-2.68,9.779-2.68,9.779Z" transform="translate(-1981.886 -2315.824)" fill="#ebebeb"/></g><g transform="translate(13.29 20.356)"><path d="M1983.364,2336.571a.221.221,0,0,0,.063-.01.21.21,0,0,0,.132-.259,4.979,4.979,0,0,1-.013-2.171.208.208,0,0,0,.016-.041c1.76-6.644,10.44-11.059,10.528-11.1a.206.206,0,0,0-.184-.368c-.089.045-8.917,4.536-10.736,11.346a4.864,4.864,0,0,0,0,2.464A.2.2,0,0,0,1983.364,2336.571Z" transform="translate(-1983.012 -2322.597)" fill="#fff"/></g><g transform="translate(0 8.173)"><path d="M1954.136,2313.056a4.049,4.049,0,0,1-1.916-4.066,2.846,2.846,0,0,0-2.524-3.412c-.561-.093-4.207-1.589-3.646-7.057,0,0,.187-3.505-.468-4.768s-2.29-5.047,0-6.216,3.879.935,4.72,3.084a11.934,11.934,0,0,0,1.215,3.084,14.458,14.458,0,0,1,4.3,11.544l-.8,7.805Z" transform="translate(-1944.404 -2287.203)" fill="#ebebeb"/></g><g transform="translate(3.264 12.472)"><path d="M1960.728,2321.452a.206.206,0,0,0,.206-.2c.236-6.286-2.49-14.484-4.053-16.853a42.084,42.084,0,0,1-2.6-4.59.206.206,0,0,0-.372.176,42.7,42.7,0,0,0,2.632,4.641c1.538,2.33,4.218,10.406,3.985,16.611a.205.205,0,0,0,.2.213Z" transform="translate(-1953.885 -2299.692)" fill="#fff"/></g></g><path d="M1970.588,2373.929h-8.814l-2.133-12.077h13.08Z" transform="translate(-1534.717 -378.137)" fill="#ebebeb"/><g transform="translate(409.788 1938.54)"><g transform="translate(9.9)"><path d="M1718.768,2257.832s-.819-5.514-1.19-6.728c-.48-1.567-.714-3.9.6-5.274s1.518-4.606,1.518-5.1.495-7.912,5.934-6.813c0,0,2.252.55,1.153,4.505,0,0-1.154,2.363.3,3.846a6.024,6.024,0,0,1,0,8.187c-2.719,3.3-1.945,4.5-1.511,5.769,1.981,5.771-2.235,11.069-2.692,12.483s-1.007,3.734-.548,5.069l-1.6.03Z" transform="translate(-1717.198 -2233.806)" fill="#ebebeb"/></g><g transform="translate(13.855 5.583)"><path d="M1729.123,2284.654a.275.275,0,0,0,.048,0,.242.242,0,0,0,.188-.286c-.611-2.977.461-8.281.473-8.334.592-2.258.763-5.142-.217-12.5a28.234,28.234,0,0,1,.3-9.65,16.18,16.18,0,0,1,1.117-3.506.242.242,0,1,0-.431-.218,16.241,16.241,0,0,0-1.155,3.6,28.718,28.718,0,0,0-.31,9.837c.967,7.252.789,10.172.226,12.324-.048.234-1.107,5.467-.476,8.541A.242.242,0,0,0,1729.123,2284.654Z" transform="translate(-1728.686 -2250.026)" fill="#fff"/></g><g transform="translate(15.167 21.19)"><path d="M1734.393,2314.29s0-1.3,2.669-2.532a4.459,4.459,0,0,0,2.668-3.216c.684-2.6,2.6-1.916,3.832-1.163s4.03,0,4.034-3.9a2.589,2.589,0,0,1,.954-3.148c1.786-1.095,2.47-5.006-1.361-4.966s-7.442,1.932-11.154,7.429c-5.158,7.641-3.15,11.5-3.15,11.5Z" transform="translate(-1732.5 -2295.364)" fill="#ebebeb"/></g><g transform="translate(15.623 23.93)"><path d="M1734.238,2319.752a.239.239,0,0,0,.074-.012.246.246,0,0,0,.156-.3,5.838,5.838,0,0,1-.015-2.552.263.263,0,0,0,.018-.049c2.07-7.81,12.273-13,12.376-13.052a.242.242,0,0,0-.216-.432c-.1.052-10.482,5.332-12.621,13.338a5.715,5.715,0,0,0,0,2.9A.237.237,0,0,0,1734.238,2319.752Z" transform="translate(-1733.824 -2303.325)" fill="#fff"/></g><g transform="translate(0 9.608)"><path d="M1699.878,2292.109a4.761,4.761,0,0,1-2.253-4.78,3.346,3.346,0,0,0-2.967-4.011c-.659-.11-4.945-1.868-4.286-8.3,0,0,.22-4.12-.549-5.6s-2.692-5.934,0-7.307,4.56,1.1,5.549,3.626a14.024,14.024,0,0,0,1.428,3.626c.659.714,5.439,4.89,5.055,13.571l-.936,9.175Z" transform="translate(-1688.438 -2261.717)" fill="#ebebeb"/></g><g transform="translate(3.837 14.662)"><path d="M1707.627,2301.979a.242.242,0,0,0,.242-.233c.278-7.39-2.927-17.027-4.765-19.811a49.511,49.511,0,0,1-3.06-5.4.242.242,0,0,0-.437.206,50,50,0,0,0,3.094,5.456c1.808,2.739,4.959,12.233,4.685,19.528a.242.242,0,0,0,.233.25Z" transform="translate(-1699.584 -2276.399)" fill="#fff"/></g></g><path d="M1719.219,2363.669h-10.361l-2.508-14.2h15.377Z" transform="translate(-1290.397 -371.117)" fill="#ebebeb"/><g transform="translate(241.959 1946.606)"><g transform="translate(8.422)"><path d="M1236.267,2277.677s-.7-4.69-1.013-5.723c-.407-1.333-.607-3.318.514-4.487s1.291-3.918,1.291-4.339.421-6.73,5.048-5.8c0,0,1.916.468.981,3.833,0,0-.982,2.01.257,3.271a5.125,5.125,0,0,1,0,6.964c-2.313,2.8-1.655,3.831-1.285,4.907,1.685,4.909-1.9,9.416-2.29,10.618s-.856,3.177-.466,4.313l-1.361.025Z" transform="translate(-1234.932 -2257.239)" fill="#ebebeb"/></g><g transform="translate(11.786 4.75)"><path d="M1245.076,2300.493a.221.221,0,0,0,.042,0,.206.206,0,0,0,.16-.243c-.52-2.532.393-7.044.4-7.09.5-1.92.649-4.375-.185-10.631a24.016,24.016,0,0,1,.254-8.208,13.769,13.769,0,0,1,.951-2.982.206.206,0,0,0-.367-.186,13.824,13.824,0,0,0-.982,3.063,24.422,24.422,0,0,0-.264,8.367c.823,6.169.672,8.653.192,10.484-.041.2-.942,4.651-.4,7.266A.206.206,0,0,0,1245.076,2300.493Z" transform="translate(-1244.705 -2271.037)" fill="#fff"/></g><g transform="translate(12.902 18.025)"><path d="M1249.559,2325.7s0-1.106,2.27-2.154a3.793,3.793,0,0,0,2.27-2.736c.582-2.212,2.212-1.63,3.26-.989s3.428,0,3.431-3.318a2.2,2.2,0,0,1,.812-2.678c1.52-.931,2.1-4.258-1.158-4.224s-6.331,1.643-9.488,6.32c-4.388,6.5-2.68,9.779-2.68,9.779Z" transform="translate(-1247.949 -2309.604)" fill="#ebebeb"/></g><g transform="translate(13.29 20.356)"><path d="M1249.427,2330.349a.2.2,0,0,0,.063-.01.209.209,0,0,0,.133-.259,4.974,4.974,0,0,1-.013-2.17.216.216,0,0,0,.016-.042c1.76-6.644,10.44-11.059,10.528-11.1a.206.206,0,0,0-.184-.368c-.089.045-8.917,4.536-10.736,11.346a4.865,4.865,0,0,0,0,2.464A.2.2,0,0,0,1249.427,2330.349Z" transform="translate(-1249.075 -2316.376)" fill="#fff"/></g><g transform="translate(0 8.173)"><path d="M1220.2,2306.835a4.049,4.049,0,0,1-1.916-4.066,2.846,2.846,0,0,0-2.524-3.412c-.561-.093-4.206-1.589-3.645-7.057,0,0,.187-3.505-.468-4.767s-2.29-5.048,0-6.216,3.879.935,4.72,3.085a11.94,11.94,0,0,0,1.215,3.085,14.456,14.456,0,0,1,4.3,11.544l-.8,7.8Z" transform="translate(-1210.467 -2280.982)" fill="#ebebeb"/></g><g transform="translate(3.264 12.472)"><path d="M1226.79,2315.231a.206.206,0,0,0,.206-.2c.236-6.287-2.49-14.484-4.053-16.853a42.024,42.024,0,0,1-2.6-4.591.206.206,0,0,0-.372.176,42.554,42.554,0,0,0,2.632,4.642c1.538,2.33,4.218,10.406,3.985,16.611a.206.206,0,0,0,.2.213Z" transform="translate(-1219.948 -2293.471)" fill="#fff"/></g></g><path d="M1236.651,2367.708h-8.814l-2.133-12.077h13.081Z" transform="translate(-978.5 -375.156)" fill="#ebebeb"/><g transform="translate(136.567 1762.135)"><path d="M1182.325,1867.249c11.177,22.166,2.277,46.018-21.776,55.253-25.55,9.81-58.734-.508-75.124-23.054-12.88,12.3-32.523,21.764-55.052,25.083-41.529,6.116-77.128-10.959-79.513-38.138a35.442,35.442,0,0,1,2.436-16.023c-35.116,10.27-55.763-1.069-64.528-31.787-6.468-22.667,11.957-62.424,62.641-69.889,6.462-.952,12.8-1.563,18.933-1.86-.135-.751-1.95-5.017.673-12.438,11.4-32.256,51.625-37.21,93.614-30.4,35.356,5.734,53.023,26.591,61.222,45.453,0,0,100.467-35.734,118.554,38.818C1244.4,1808.267,1264.553,1874,1182.325,1867.249Z" transform="translate(-887.523 -1721.336)" fill="#fff" stroke="#ebebeb" stroke-miterlimit="10" stroke-width="1"/><ellipse cx="10.858" cy="11.754" rx="10.858" ry="11.754" transform="matrix(0.829, 0.559, -0.559, 0.829, 67.291, 167.886)" fill="#fff" stroke="#ebebeb" stroke-miterlimit="10" stroke-width="1"/><ellipse cx="6.434" cy="6.965" rx="6.434" ry="6.965" transform="matrix(0.829, 0.559, -0.559, 0.829, 52.071, 179.477)" fill="#fff" stroke="#ebebeb" stroke-miterlimit="10" stroke-width="1"/><ellipse cx="5.504" cy="5.958" rx="5.504" ry="5.958" transform="matrix(0.829, 0.559, -0.559, 0.829, 35.934, 178.637)" fill="#fff" stroke="#ebebeb" stroke-miterlimit="10" stroke-width="1"/></g><rect width="65.792" height="38.814" transform="translate(97.792 1798.613) rotate(-180)" fill="#ebebeb"/><text transform="translate(46.992 1788)" fill="#2d356b" font-size="33" font-family="TrebuchetMS-Bold, Trebuchet MS" font-weight="700"><tspan x="0" y="0">1</tspan></text><g transform="translate(100.085 1903.12)"><g transform="translate(0 86.604)"><path d="M881.056,2394.456l8.494,1.6c7.469,26.681,5.635,58.49,22.327,112.966,0,0-1.595.7-1.824,0-13.887-42.123-21.483-75.15-24.177-79.687C879.887,2419.249,872.4,2410.676,881.056,2394.456Z" transform="translate(-853.986 -2390.341)" fill="#ffd8a3"/><path d="M835.5,2389.6c-10.453,19.5-2.626,17.985-2.287,28.069.98,29.077-17.559,43.867-23.314,88.343,0,0,2.279-.116,2.344-.759,3.575-35.483,35.017-69.432,36.311-102.375.083-2.125.177-8.47-2.3-10.741C842.468,2388.666,835.5,2389.6,835.5,2389.6Z" transform="translate(-809.903 -2387.082)" fill="#f7c371"/><path d="M816.88,2724.358h-6.831s-.33-1.939,1.193-2.25C812.2,2721.912,813.9,2722.363,816.88,2724.358Z" transform="translate(-809.979 -2605.18)" fill="#7b88ac"/><path d="M978.757,2724.845h-6.005s-.29-1.938,1.05-2.249C974.645,2722.4,976.137,2722.85,978.757,2724.845Z" transform="translate(-916.678 -2605.5)" fill="#7b88ac"/><path d="M846.777,2451.32s28.677,4.61,35.249,2.766c0,0-6.273-65.166-10.754-69.162s-12.546-1.845-12.546-1.845a25.355,25.355,0,0,0-4.182,27.05C860.518,2424.27,846.777,2451.32,846.777,2451.32Z" transform="translate(-834.084 -2382.501)" fill="#c3e8e6"/></g><g transform="translate(11.184)"><path d="M888,2146.87c2.469-9.21-13.313-18.912-19.538-15.118,0,0-15.467-.239-11.082,25.783.195,1.151,4.921,1.151,4.868,3.654s.172,2.225,1.357,3.4,3.43-.476,3.942.379c1.41,2.351-3.231,3.977-4.641,2.7,0,0,11.494,7.2,17.292-4.92C880.526,2162.048,887.345,2149.295,888,2146.87Z" transform="translate(-851.704 -2130.908)" fill="#fff4ba"/><g transform="translate(26.017 80.608)"><path d="M926.467,2371.844c-.9-1.967-2.882-3.781-3.518-3.251-.719.6,1.275,1.837,1.656,3.8.417,2.125.791,3.438,1.618,3.322S927.374,2373.813,926.467,2371.844Z" transform="translate(-921.135 -2367.323)" fill="#f8c471"/><path d="M917.973,2366.92c2.424,1.086,5.5,6.862,7.159,5.246,1.488-1.446,1.738-5.973-6.235-7.085Z" transform="translate(-917.973 -2365.08)" fill="#ffd9a4"/><path d="M929.742,2368.856c-2.789,2.388.132,5.776,1.3,6.63,1.283.938,3.9-.3,4.232-1.516S930.809,2367.945,929.742,2368.856Z" transform="translate(-924.923 -2367.481)" fill="#ffd9a4"/><path d="M944.112,2379.192c1.5,1.087,2.537,1.31,2.78.878s-.652-1-2.151-2.086-3.137-2.843-3.38-2.412S942.614,2378.1,944.112,2379.192Z" transform="translate(-933.292 -2371.917)" fill="#ffd9a4"/><path d="M941.906,2385.145c1.278,1.4,3,2.033,3.321,1.666s-1.159-1.367-2.437-2.761-2.181-2.23-2.5-1.861S940.629,2383.751,941.906,2385.145Z" transform="translate(-932.556 -2376.242)" fill="#ffd9a4"/><path d="M934.539,2385.812c1.332,1.341,2.379,1.788,2.687,1.413s-.737-1.094-2.068-2.433-2.284-2.261-2.593-1.884S933.206,2384.47,934.539,2385.812Z" transform="translate(-927.504 -2376.715)" fill="#ffd9a4"/></g><g transform="translate(4.422 24.232)"><path d="M894.564,2201.306l5.928,4.731-.415,13.929-4.919-2.434Z" transform="translate(-881.027 -2201.306)" fill="#f6cda2"/><path d="M881.7,2308.813c-14.132,6.43-18.813,2.886-26.464,1.679,1.072-10.932,8.106-17.709,9.069-25.326,1.789-14.119-8.353-32.087,2.313-37.356,11.327-5.594,20.321,27.169,20.321,27.169C875.712,2279.725,879.137,2291.4,881.7,2308.813Z" transform="translate(-855.239 -2231.381)" fill="#54ccca"/><path d="M890.842,2245.563l1.879-.009,7.409,8.737-2.689,1.8S892.519,2249.784,890.842,2245.563Z" transform="translate(-878.587 -2230.323)" fill="#fff"/><path d="M907.405,2256.723l.126-.072c-1.695-4.612-5.721-11.838-10.387-11.931C900.923,2248.945,907.405,2256.723,907.405,2256.723Z" transform="translate(-882.719 -2229.775)" fill="#f6cda2"/></g><g transform="translate(0 42.65)"><path d="M868.414,2348.849c-2.274,5.044-25.182-4.9-25.861-5.89,0,0,.343-4.2,1.734-3.968C847.885,2339.587,869.428,2346.6,868.414,2348.849Z" transform="translate(-842.498 -2310.008)" fill="#c3e8e6"/><path d="M857.449,2255.282c-5-4.984-16.383,31.134-14.929,32.631,0,0,3.766.527,5.1-.682C851.642,2283.579,859.683,2257.506,857.449,2255.282Z" transform="translate(-842.392 -2254.811)" fill="#c3e8e6"/><path d="M912.195,2359.319l.125-1.605-4.983-4.039s-.857,2.735-.636,3.409S912.195,2359.319,912.195,2359.319Z" transform="translate(-884.541 -2319.643)" fill="#fff"/><path d="M908.809,2367.789l-.828,1.427-6.559.841s.876-2.757,1.452-3.216S908.809,2367.789,908.809,2367.789Z" transform="translate(-881.103 -2328.217)" fill="#fff"/></g><g transform="translate(13.83 2.808)"><g transform="translate(0 2.459)"><path d="M903.911,2176.447c1.229.069,3.782-6.155,4.71-10.987.306-1.593-1.411-1.878-1-7.348.244-3.211-.991-7.745-6.195-11.239-4.913-3.3-5.85,6.655-6.415,8.936-1.609,6.5-3.516,10.524-2.011,13.8C895.944,2175.991,902.6,2176.055,903.911,2176.447Z" transform="translate(-889.054 -2146.209)" fill="#ffd8a3"/><path d="M926.452,2208.688a.283.283,0,0,1,.273-.293.3.3,0,0,1,.228.34.284.284,0,0,1-.274.293A.3.3,0,0,1,926.452,2208.688Z" transform="translate(-911.346 -2186.989)" fill="#ffab00"/><path d="M925.7,2182.89c.077-.862.621-1.509,1.212-1.446s1.009.813.932,1.675-.621,1.509-1.212,1.446S925.621,2183.752,925.7,2182.89Z" transform="translate(-910.847 -2169.313)" fill="#2d356b"/><path d="M922.193,2182.809c.9-1.148,2.151-2.273,4.366-1.356A8.273,8.273,0,0,0,922.193,2182.809Z" transform="translate(-908.554 -2169.1)" fill="#2d356b"/><path d="M930.581,2219.508c.048-.2.625.546.915.588.823.117.528,1.158-.288.957C930.889,2220.975,930.531,2219.719,930.581,2219.508Z" transform="translate(-914.052 -2194.255)" fill="#f36973"/><path d="M929.012,2209.064c-.548-.254,3.295-1.131,2.538.113A5.944,5.944,0,0,1,929.012,2209.064Z" transform="translate(-912.99 -2187.075)" fill="#f36973"/><path d="M923.787,2169.536a5.043,5.043,0,0,0-6.246,2.826C919.3,2170.214,920.617,2169.448,923.787,2169.536Z" transform="translate(-905.503 -2161.355)" fill="#2d356b"/><path d="M937.031,2193.845l-1.933.475.2-4.859,2.639,3.615Z" transform="translate(-917.017 -2174.573)" fill="#ffd8a3"/><path d="M936.767,2204.378l1.646-2.923-1.424-.131Z" transform="translate(-918.111 -2182.352)" fill="#ffd8a3"/><path d="M929.417,2213.732a35.815,35.815,0,0,0,1.174-4.162l-3.433-.193S927.636,2213.051,929.417,2213.732Z" transform="translate(-911.81 -2187.634)" fill="#ffab00"/><path d="M928.873,2211.809l1.955.11q.214-.785.407-1.64l-2.806-.157Z" transform="translate(-912.644 -2188.121)" fill="#fff"/><path d="M885.34,2188.11c.161-1.493.73-2.569-.4-2.688s-2.186.993-2.347,2.488.63,2.8,1.765,2.924S885.181,2189.6,885.34,2188.11Z" transform="translate(-882.57 -2171.918)" fill="#f7c371"/></g><path d="M905.023,2139.071c-.978,3.524-3.872,12.414-8.967,13.972,0,0-2.736-7.991,2.065-10.756C904.183,2138.794,905.023,2139.071,905.023,2139.071Z" transform="translate(-890.905 -2139.066)" fill="#fff4ba"/></g></g></g><g transform="translate(106.174 1972.156)"><rect width="49.308" height="26.324" rx="6.672" fill="#fff" stroke="#231f20" stroke-miterlimit="10" stroke-width="0.25"/><text transform="translate(11.154 16.662)" fill="#2d356b" font-size="10" font-family="TrebuchetMS-Bold, Trebuchet MS" font-weight="700"><tspan x="0" y="0">Helen</tspan></text></g><g transform="translate(451.663 1901.167)"><g transform="translate(0 88.558)"><path d="M2083.89,2394.933l-8.494,1.6c-7.469,26.682-5.635,58.49-22.327,112.966,0,0,1.594.7,1.824,0,13.887-42.123,21.483-75.149,24.177-79.688C2085.059,2419.726,2092.546,2411.153,2083.89,2394.933Z" transform="translate(-2048.881 -2390.818)" fill="#ffd8a3"/><path d="M2121.947,2390.077c10.454,19.5,2.626,17.985,2.287,28.068-.98,29.077,17.559,43.867,23.313,88.344,0,0-2.279-.117-2.344-.759-3.575-35.482-35.017-69.432-36.31-102.375-.084-2.124-.177-8.469,2.3-10.74C2114.982,2389.141,2121.948,2390.077,2121.947,2390.077Z" transform="translate(-2085.469 -2387.558)" fill="#f7c371"/><path d="M2201.2,2724.834h6.832s.33-1.939-1.194-2.25C2205.875,2722.388,2204.178,2722.839,2201.2,2724.834Z" transform="translate(-2146.019 -2605.656)" fill="#7b88ac"/><path d="M2040.9,2725.321h6.005s.291-1.938-1.049-2.249C2045.013,2722.876,2043.521,2723.327,2040.9,2725.321Z" transform="translate(-2040.901 -2605.976)" fill="#7b88ac"/><path d="M2117.22,2451.8s-28.677,4.61-35.249,2.766c0,0,6.273-65.166,10.753-69.162s12.546-1.845,12.546-1.845a25.355,25.355,0,0,1,4.182,27.05C2103.479,2424.746,2117.22,2451.8,2117.22,2451.8Z" transform="translate(-2067.834 -2382.977)" fill="#0080af"/></g><g transform="translate(7.72)"><g transform="translate(0 41.283)"><g transform="translate(0 17.594)"><path d="M2083.832,2313.681c-1.79-1.2-7.078-.822-6.684-2.658.353-1.645,3.353-3.764,7.549,1.231Z" transform="translate(-2072.377 -2304.874)" fill="#f8c471"/><path d="M2079.57,2308.659c-.439,2.943-4.023,2.395-5.111,1.962-1.2-.477-1.475-2.8-.78-3.558S2079.736,2307.534,2079.57,2308.659Z" transform="translate(-2069.87 -2303.361)" fill="#f8c471"/><path d="M2079.684,2300.584c-.965-1.464-1.365-3.6-.727-3.812.719-.239.716,1.664,1.9,2.768,1.282,1.2,2.025,2.018,1.591,2.537S2080.65,2302.052,2079.684,2300.584Z" transform="translate(-2073.374 -2296.751)" fill="#f8c471"/><path d="M2068.739,2304.37c-1.393-.563-1.991-1.178-1.8-1.531s.965.018,2.358.579,3.3.93,3.111,1.283S2070.133,2304.929,2068.739,2304.37Z" transform="translate(-2065.674 -2300.653)" fill="#f8c471"/><path d="M2065.908,2309.3c-1.508-.277-2.688-1.186-2.573-1.563s1.437.208,2.944.486,2.47.538,2.354.915S2067.415,2309.581,2065.908,2309.3Z" transform="translate(-2063.328 -2303.877)" fill="#f8c471"/><path d="M2069.255,2314.737c-1.494-.338-2.251-.864-2.126-1.237s1.068.035,2.561.373,2.535.595,2.41.969S2070.75,2315.074,2069.255,2314.737Z" transform="translate(-2065.811 -2307.637)" fill="#f8c471"/></g><g transform="translate(10.991)"><path d="M2125.064,2245.835c4.816-2.948,17.4,28.429,17.4,29.631,0,0-2.475,1.934-3.512.967C2136.274,2273.931,2122.913,2247.151,2125.064,2245.835Z" transform="translate(-2114.65 -2245.64)" fill="#0080af"/><path d="M2099.638,2316.9c-1.171,4.279,23.323,6.292,24.231,6.027,0,0,1.912-2.776.955-3.339C2122.348,2318.13,2100.161,2314.987,2099.638,2316.9Z" transform="translate(-2098.103 -2291.976)" fill="#0080af"/><path d="M2095.711,2315.325l.705-1.158,5.133-.5a10.55,10.55,0,0,1-1.267,2.625C2099.813,2316.653,2095.711,2315.325,2095.711,2315.325Z" transform="translate(-2095.554 -2290.25)" fill="#eaeaea"/><path d="M2095.431,2318.2l-.174,1.353,3.737,3.56a10.615,10.615,0,0,0,.656-2.862C2099.507,2319.679,2095.431,2318.2,2095.431,2318.2Z" transform="translate(-2095.256 -2293.226)" fill="#eaeaea"/></g></g><g transform="translate(9.453)"><g transform="translate(7.665 1.211)"><path d="M2115.369,2182.042c-5.529-4.622,2.555-6.326,1.871-10.664s-1.539-2.891-2.642-8.474.246-7.787.114-11.075-2.721-8.505-1.15-12.793,2.816-2.966,4.211-6.389,3.22.065,6.06,1.328,5.38-6.864,10.394-4.208,5.016,8.786,6.708,12.1,6.555,4.339,7.752,10.4-2.306,4.931-.459,9.039,6.035,3.447,7.232,9.508c0,0,1.031,6.092-5.838,6.289s-4.451,3.7-12.061,1.886-4.626,4.559-10.044,2.48S2120.307,2186.171,2115.369,2182.042Z" transform="translate(-2113.058 -2129.23)" fill="#2d356b"/></g><g transform="translate(0 21.186)"><path d="M2142.278,2187.257l-6.33,3.977-1.136,13.687,5.086-1.84Z" transform="translate(-2119.659 -2187.257)" fill="#f7c371"/><path d="M2093.923,2296.782c4.067-2.665,13.51-8.556,23.983-1.262-3.132-9.2-5.977-18.241-6.077-25.806-.188-14.026,11.733-30.5,1.87-36.84-10.472-6.732-22.908,24.357-22.908,24.357C2101.262,2263.121,2098.365,2280.009,2093.923,2296.782Z" transform="translate(-2090.79 -2216.545)" fill="#03b4e9"/><path d="M2136.073,2230.615l-1.84-.216-8.223,7.736,2.435,2.056S2133.963,2234.564,2136.073,2230.615Z" transform="translate(-2113.886 -2215.548)" fill="#fff"/><path d="M2115.891,2240.07c-.04-.028-.076-.056-.115-.083,2.17-4.33,6.913-10.961,11.493-10.535C2123.1,2233.171,2115.891,2240.07,2115.891,2240.07Z" transform="translate(-2107.175 -2214.914)" fill="#f7c371"/></g><g transform="translate(5.418)"><path d="M2129.328,2154.836c3.266-1.261,9.919-3.019,12.665-8.419,3.57-7.02,2.083-10.989.17-15.808-3.646-9.186-19.331-3.13-18.042-.445C2125.834,2133.73,2117.5,2159.4,2129.328,2154.836Z" transform="translate(-2117.232 -2125.711)" fill="#2d356b"/><path d="M2115.657,2165.276c-1.224.124-4.053-5.983-5.2-10.769-.377-1.578,1.327-1.94.668-7.387-.386-3.2.645-7.783,5.69-11.507,4.763-3.516,6.142,6.39,6.808,8.644,1.9,6.419,3.983,10.36,2.624,13.7C2123.6,2164.467,2116.948,2164.827,2115.657,2165.276Z" transform="translate(-2109.071 -2131.714)" fill="#ffd8a3"/><path d="M2122.881,2197.919a.283.283,0,0,0-.286-.281.3.3,0,0,0-.212.35.284.284,0,0,0,.287.28A.3.3,0,0,0,2122.881,2197.919Z" transform="translate(-2116.925 -2172.878)" fill="#ffab00"/><path d="M2119.337,2172.347c.123-.857-.257-1.612-.847-1.687s-1.17.56-1.292,1.416.257,1.612.847,1.687S2119.215,2173.2,2119.337,2172.347Z" transform="translate(-2113.51 -2155.183)" fill="#2d356b"/><path d="M2119.3,2172.2c-.61-1.324-1.571-2.708-3.938-2.324A8.274,8.274,0,0,1,2119.3,2172.2Z" transform="translate(-2112.318 -2154.63)" fill="#2d356b"/><path d="M2117.575,2208.9c-.057-.2-.6.574-.889.628-.817.154-.476,1.181.331.944C2117.333,2210.376,2117.634,2209.105,2117.575,2208.9Z" transform="translate(-2112.883 -2180.242)" fill="#f36973"/><path d="M2116.178,2198.541c.536-.278-3.342-.984-2.531.226A5.959,5.959,0,0,0,2116.178,2198.541Z" transform="translate(-2111.124 -2173.171)" fill="#f36973"/><path d="M2112.859,2159.031a5.045,5.045,0,0,1,6.368,2.545C2117.371,2159.508,2116.023,2158.8,2112.859,2159.031Z" transform="translate(-2110.68 -2147.357)" fill="#2d356b"/><path d="M2107.473,2183.553l1.953.389-.42-4.846-2.476,3.73Z" transform="translate(-2106.53 -2160.719)" fill="#ffd8a3"/><path d="M2110.189,2194.068l-1.775-2.848,1.417-.195Z" transform="translate(-2107.765 -2168.543)" fill="#ffd8a3"/><path d="M2114.554,2203.07a35.8,35.8,0,0,1-1.359-4.106l3.422-.345S2116.3,2202.31,2114.554,2203.07Z" transform="translate(-2110.901 -2173.521)" fill="#ffab00"/><path d="M2116.2,2201.123l-1.949.2q-.249-.775-.479-1.621l2.8-.282Z" transform="translate(-2111.281 -2174.045)" fill="#fff"/><path d="M2158.22,2175.686c-.228-1.485-.844-2.534.282-2.7s2.229.9,2.456,2.382-.5,2.828-1.633,3S2158.447,2177.173,2158.22,2175.686Z" transform="translate(-2140.182 -2156.698)" fill="#f7c371"/><path d="M2122.329,2134.87c4.142,5.069,11.242,12.374,10.507,20.265,2.355-8.561-.176-19.408-6.1-23.381C2126.245,2132.639,2121.326,2132.884,2122.329,2134.87Z" transform="translate(-2116.802 -2129.674)" fill="#2d356b"/></g></g><g transform="translate(1.467 40.932)"><g transform="translate(0 15.031)"><path d="M2087.862,2309.8c-1.663-1.874-7.73-3.008-6.746-4.959.881-1.749,4.884-3.253,8.139,3.607Z" transform="translate(-2076.39 -2298.176)" fill="#ffd9a4"/><path d="M2084.666,2302.179c-1.361,3.185-5.235,1.514-6.333.706-1.207-.889-.836-3.592.168-4.236S2085.184,2300.96,2084.666,2302.179Z" transform="translate(-2074.138 -2295.023)" fill="#ffd9a4"/><path d="M2087.569,2292.8c-.657-1.934-.477-4.459.3-4.508.88-.057.317,2.085,1.329,3.677,1.093,1.727,1.688,2.869,1.046,3.325S2088.225,2294.735,2087.569,2292.8Z" transform="translate(-2080.428 -2288.29)" fill="#ffd9a4"/><path d="M2074.638,2293.768c-1.4-1.044-1.9-1.913-1.576-2.253s1.083.3,2.486,1.346,3.445,2.019,3.126,2.36S2076.043,2294.808,2074.638,2293.768Z" transform="translate(-2071.116 -2290.344)" fill="#ffd9a4"/><path d="M2070.062,2298.459c-1.616-.756-2.678-2.127-2.438-2.517s1.558.656,3.174,1.413,2.623,1.333,2.382,1.723S2071.678,2299.214,2070.062,2298.459Z" transform="translate(-2067.59 -2293.252)" fill="#ffd9a4"/><path d="M2072.2,2305.582c-1.583-.819-2.282-1.635-2.031-2.018s1.192.354,2.774,1.173,2.681,1.416,2.429,1.8S2073.785,2306.4,2072.2,2305.582Z" transform="translate(-2069.249 -2298.238)" fill="#ffd9a4"/></g><g transform="translate(10.97)"><path d="M2154.639,2244.69c6.291-1.9,11.234,37.137,10.884,38.491,0,0-3.357,1.45-4.24.056C2159,2279.63,2151.83,2245.54,2154.639,2244.69Z" transform="translate(-2135.223 -2244.623)" fill="#0080af"/><path d="M2105.355,2317.638c-2.577,4.475,24.418,13.947,25.518,13.915,0,0,2.97-2.563,2.058-3.479C2130.57,2325.7,2106.506,2315.639,2105.355,2317.638Z" transform="translate(-2103.211 -2292.333)" fill="#0080af"/><path d="M2101.044,2315.368l1.135-1.1,5.928.946s-1.564,2.313-2.2,2.583S2101.044,2315.368,2101.044,2315.368Z" transform="translate(-2100.498 -2290.296)" fill="#eaeaea"/><path d="M2100.053,2317.157l-.595,1.473,3.162,5.109s1.572-2.341,1.58-3.031S2100.053,2317.157,2100.053,2317.157Z" transform="translate(-2099.458 -2292.189)" fill="#eaeaea"/></g></g></g></g><g transform="translate(455.506 1969.372)"><rect width="54.308" height="28.706" rx="6.672" fill="#fff" stroke="#231f20" stroke-miterlimit="10" stroke-width="0.25"/><text transform="translate(14.154 17.853)" fill="#2d356b" font-size="10" font-family="TrebuchetMS-Bold, Trebuchet MS" font-weight="700"><tspan x="0" y="0">Akiko</tspan></text></g></g></svg>