<svg xmlns="http://www.w3.org/2000/svg" width="286.625" height="193.562" viewBox="0 0 286.625 193.562">
  <g id="Group_8604" data-name="Group 8604" transform="translate(0.504 0.514)">
    <g id="Group_8598" data-name="Group 8598">
      <g id="Group_8597" data-name="Group 8597">
        <g id="Group_8570" data-name="Group 8570" transform="translate(83.562 12.716)">
          <rect id="Rectangle_2776" data-name="Rectangle 2776" width="110.646" height="79.57" transform="matrix(0.15, -0.989, 0.989, 0.15, 23.179, 109.393)" fill="#fff4ba" stroke="#cfd0d8" stroke-miterlimit="10" stroke-width="1"/>
          <rect id="Rectangle_2777" data-name="Rectangle 2777" width="110.646" height="85.221" transform="matrix(0.15, -0.989, 0.989, 0.15, 12.315, 114.291)" fill="#fff"/>
          <rect id="Rectangle_2778" data-name="Rectangle 2778" width="111.116" height="84.75" transform="matrix(0.15, -0.989, 0.989, 0.15, 10.538, 115.806)" fill="#cfd0d8"/>
          <rect id="Rectangle_2779" data-name="Rectangle 2779" width="110.646" height="87.339" transform="matrix(0.15, -0.989, 0.989, 0.15, 6.297, 117.068)" fill="#fff"/>
          <rect id="Rectangle_2780" data-name="Rectangle 2780" width="110.646" height="86.163" transform="matrix(0.15, -0.989, 0.989, 0.15, 6.354, 118.268)" fill="#029390"/>
          <g id="Group_8569" data-name="Group 8569" transform="translate(0 10.731)">
            <g id="Group_8568" data-name="Group 8568">
              <path id="Path_10381" data-name="Path 10381" d="M851.579,1692.811a.883.883,0,0,1-1,.752l-86.465-13.128a.882.882,0,0,1-.732-1.014L780.192,1568.7a.883.883,0,0,1,1-.75l86.465,13.127a.884.884,0,0,1,.73,1.013Z" transform="translate(-763.373 -1567.945)" fill="#cfd0d8"/>
              <g id="Group_8567" data-name="Group 8567" transform="translate(35.202 30.382)">
                <g id="Group_8566" data-name="Group 8566">
                  <path id="Path_10382" data-name="Path 10382" d="M860.323,1671.422l8.023-11.051,1.665,3.962,3.19-6.082.936,7.28,8-13.911,1.745,15.391,4.085-4.519,11.252,7.987,5.445-6.021,5.659-1.425,8.3-9.867,3.8-1.136-4.277,28.171Z" transform="translate(-860.323 -1651.62)" fill="#cfd0d8"/>
                </g>
              </g>
            </g>
          </g>
        </g>
        <g id="Group_8583" data-name="Group 8583" transform="translate(65.412)">
          <rect id="Rectangle_2781" data-name="Rectangle 2781" width="79.57" height="110.646" transform="translate(20.537 2.346) rotate(-1.69)" fill="#fff" stroke="#ebebeb" stroke-miterlimit="10" stroke-width="1"/>
          <rect id="Rectangle_2782" data-name="Rectangle 2782" width="85.221" height="110.646" transform="translate(10.726 9.112) rotate(-1.69)" fill="#fff"/>
          <rect id="Rectangle_2783" data-name="Rectangle 2783" width="84.75" height="111.116" transform="translate(9.236 10.451) rotate(-1.69)" fill="#cfd0d8"/>
          <rect id="Rectangle_2784" data-name="Rectangle 2784" width="87.339" height="110.646" transform="translate(5.304 12.923) rotate(-1.69)" fill="#fff"/>
          <rect id="Rectangle_2785" data-name="Rectangle 2785" width="86.163" height="110.646" transform="translate(5.575 14.093) rotate(-1.69)" fill="#fff4ba"/>
          <g id="Group_8582" data-name="Group 8582" transform="translate(0 14.27)">
            <g id="Group_8581" data-name="Group 8581">
              <path id="Path_10383" data-name="Path 10383" d="M805.857,1655.474a.883.883,0,0,1-.847.918l-87.418,2.579a.882.882,0,0,1-.9-.866l-3.3-111.936a.883.883,0,0,1,.85-.917l87.418-2.579a.883.883,0,0,1,.9.866Z" transform="translate(-713.387 -1542.672)" fill="#c3e8e6"/>
              <g id="Group_8580" data-name="Group 8580" transform="translate(10.735 12.506)">
                <g id="Group_8571" data-name="Group 8571" transform="translate(0 8.277)">
                  <rect id="Rectangle_2786" data-name="Rectangle 2786" width="28.653" height="2.288" transform="translate(0 0.845) rotate(-1.69)" fill="#029390"/>
                  <rect id="Rectangle_2787" data-name="Rectangle 2787" width="28.653" height="2.287" transform="translate(0.113 4.682) rotate(-1.69)" fill="#029390"/>
                  <rect id="Rectangle_2788" data-name="Rectangle 2788" width="28.653" height="2.288" transform="translate(0.228 8.584) rotate(-1.69)" fill="#029390"/>
                  <rect id="Rectangle_2789" data-name="Rectangle 2789" width="28.653" height="2.287" transform="translate(0.343 12.482) rotate(-1.69)" fill="#029390"/>
                </g>
                <g id="Group_8572" data-name="Group 8572" transform="translate(0.792 35.132)">
                  <rect id="Rectangle_2790" data-name="Rectangle 2790" width="28.653" height="2.289" transform="translate(0 0.845) rotate(-1.69)" fill="#029390"/>
                  <rect id="Rectangle_2791" data-name="Rectangle 2791" width="28.653" height="2.287" transform="translate(0.113 4.683) rotate(-1.69)" fill="#029390"/>
                  <rect id="Rectangle_2792" data-name="Rectangle 2792" width="28.653" height="2.288" transform="translate(0.228 8.584) rotate(-1.69)" fill="#029390"/>
                  <rect id="Rectangle_2793" data-name="Rectangle 2793" width="28.653" height="2.287" transform="translate(0.343 12.482) rotate(-1.69)" fill="#029390"/>
                  <rect id="Rectangle_2794" data-name="Rectangle 2794" width="28.653" height="2.287" transform="translate(0.461 16.461) rotate(-1.69)" fill="#029390"/>
                </g>
                <g id="Group_8576" data-name="Group 8576" transform="translate(41.596 29.694)">
                  <path id="Path_10384" data-name="Path 10384" d="M859.437,1681.7l-.637-21.582-1.289.038.673,22.831,23.579-.7-.037-1.249Z" transform="translate(-857.512 -1659.673)" fill="#029390"/>
                  <g id="Group_8575" data-name="Group 8575" transform="translate(3.673)">
                    <path id="Path_10385" data-name="Path 10385" d="M885.539,1677.584l-3.048.4.809.834-5.894,5.373-3.218-1.412-6.417,5.65.058,1.96,6.682-5.888,3.253,1.423,6.516-6.092.857.887Z" transform="translate(-867.719 -1670.799)" fill="#029390"/>
                    <g id="Group_8574" data-name="Group 8574">
                      <g id="Group_8573" data-name="Group 8573">
                        <path id="Path_10386" data-name="Path 10386" d="M867.627,1674.171l3.929-8.515a.284.284,0,0,1,.35-.15h0l4.652,1.594,1.883-.726,1.518-7.252a.284.284,0,0,1,.208-.216h0a.28.28,0,0,1,.285.093h0l2.721,3.266,3.679-1.414.2.531-3.868,1.486a.286.286,0,0,1-.321-.083h0l-2.472-2.969-1.431,6.827a.275.275,0,0,1-.172.206h0l-2.124.82a.278.278,0,0,1-.193,0h0l-4.508-1.546-4.286,9.276Z" transform="translate(-867.627 -1658.898)" fill="#029390"/>
                        <path id="Path_10387" data-name="Path 10387" d="M920.273,1664.489l.6-1.483a.069.069,0,0,0,0-.057.062.062,0,0,0-.052-.029l-1.5-.13a.086.086,0,0,0-.072.032.075.075,0,0,0,0,.073l.9,1.61a.072.072,0,0,0,.129-.016Z" transform="translate(-900.498 -1661.376)" fill="#029390"/>
                      </g>
                    </g>
                  </g>
                </g>
                <g id="Group_8578" data-name="Group 8578" transform="translate(40.861)">
                  <path id="Path_10388" data-name="Path 10388" d="M857.3,1598.7l-.621-21.041-1.19.035.621,21.04.036,1.215,1.19-.035,20.562-.606-.036-1.215Z" transform="translate(-855.489 -1577.465)" fill="#029390"/>
                  <g id="Group_8577" data-name="Group 8577" transform="translate(3.345 6.802)">
                    <rect id="Rectangle_2795" data-name="Rectangle 2795" width="3.571" height="4.452" transform="translate(0 8.447) rotate(-1.69)" fill="#029390"/>
                    <rect id="Rectangle_2796" data-name="Rectangle 2796" width="3.566" height="7.957" transform="translate(4.647 4.803) rotate(-1.69)" fill="#029390"/>
                    <rect id="Rectangle_2797" data-name="Rectangle 2797" width="3.565" height="6.703" transform="translate(9.395 5.918) rotate(-1.69)" fill="#029390"/>
                    <rect id="Rectangle_2798" data-name="Rectangle 2798" width="3.569" height="12.38" transform="translate(13.935 0.105) rotate(-1.69)" fill="#029390"/>
                  </g>
                  <path id="Path_10389" data-name="Path 10389" d="M882.308,1577.116l-3.087.41.819.865-5.955,5.56-3.255-1.462-6.489,5.845.06,2.028,6.758-6.091,3.29,1.479,6.586-6.308.87.922Z" transform="translate(-861.127 -1577.116)" fill="#029390"/>
                </g>
                <g id="Group_8579" data-name="Group 8579" transform="translate(8.118 65.038)">
                  <path id="Path_10390" data-name="Path 10390" d="M765.312,1786.446l5.913-12.309,2.348,3.6,2.048-6.556,2.226,6.994,5.382-15.12,4.474,14.829,3.209-5.178,12.5,5.842,4.278-6.9,5.312-2.416,6.4-11.194,3.533-1.8.84,28.481Z" transform="translate(-765.312 -1756.24)" fill="#029390"/>
                </g>
              </g>
            </g>
          </g>
        </g>
        <g id="Group_8596" data-name="Group 8596" transform="translate(0 13.424)">
          <rect id="Rectangle_2799" data-name="Rectangle 2799" width="79.57" height="110.646" transform="matrix(0.932, -0.361, 0.361, 0.932, 14.273, 28.761)" fill="#ffac00" stroke="#cfd0d8" stroke-miterlimit="10" stroke-width="1"/>
          <rect id="Rectangle_2800" data-name="Rectangle 2800" width="85.221" height="110.646" transform="matrix(0.932, -0.361, 0.361, 0.932, 7.283, 38.413)" fill="#fff"/>
          <rect id="Rectangle_2801" data-name="Rectangle 2801" width="84.75" height="111.116" transform="matrix(0.932, -0.361, 0.361, 0.932, 6.326, 40.174)" fill="#cfd0d8"/>
          <rect id="Rectangle_2802" data-name="Rectangle 2802" width="87.339" height="110.646" transform="matrix(0.932, -0.361, 0.361, 0.932, 3.444, 43.816)" fill="#fff"/>
          <rect id="Rectangle_2803" data-name="Rectangle 2803" width="86.163" height="110.646" transform="matrix(0.932, -0.361, 0.361, 0.932, 4.09, 44.828)" fill="#54ccca"/>
          <g id="Group_8595" data-name="Group 8595" transform="translate(0 17.334)">
            <g id="Group_8594" data-name="Group 8594">
              <path id="Path_10391" data-name="Path 10391" d="M656.947,1693.069a.883.883,0,0,1-.492,1.148l-81.543,31.611a.883.883,0,0,1-1.14-.516L533.295,1620.9a.883.883,0,0,1,.495-1.148l81.543-31.612a.884.884,0,0,1,1.137.516Z" transform="translate(-533.233 -1588.081)" fill="#fff" stroke="#9999a5" stroke-miterlimit="10" stroke-width="1"/>
              <g id="Group_8593" data-name="Group 8593" transform="translate(22.76 33.589)">
                <g id="Group_8584" data-name="Group 8584" transform="translate(0 18.952)">
                  <rect id="Rectangle_2804" data-name="Rectangle 2804" width="28.653" height="2.288" transform="matrix(0.932, -0.361, 0.361, 0.932, 0, 10.357)" fill="#cfd0d8"/>
                  <rect id="Rectangle_2805" data-name="Rectangle 2805" width="28.653" height="2.287" transform="matrix(0.932, -0.361, 0.361, 0.932, 1.388, 13.936)" fill="#cfd0d8"/>
                  <rect id="Rectangle_2806" data-name="Rectangle 2806" width="28.653" height="2.288" transform="matrix(0.932, -0.361, 0.361, 0.932, 2.798, 17.575)" fill="#cfd0d8"/>
                  <rect id="Rectangle_2807" data-name="Rectangle 2807" width="28.653" height="2.287" transform="matrix(0.932, -0.361, 0.361, 0.932, 4.208, 21.212)" fill="#cfd0d8"/>
                </g>
                <g id="Group_8585" data-name="Group 8585" transform="translate(5.894 21.184)">
                  <rect id="Rectangle_2808" data-name="Rectangle 2808" width="65.28" height="2.748" transform="matrix(0.932, -0.361, 0.361, 0.932, 0, 23.596)" fill="#cfd0d8"/>
                  <rect id="Rectangle_2809" data-name="Rectangle 2809" width="65.28" height="2.746" transform="matrix(0.932, -0.361, 0.361, 0.932, 1.693, 27.962)" fill="#cfd0d8"/>
                  <rect id="Rectangle_2810" data-name="Rectangle 2810" width="65.28" height="2.746" transform="matrix(0.932, -0.361, 0.361, 0.932, 3.421, 32.419)" fill="#cfd0d8"/>
                </g>
                <g id="Group_8589" data-name="Group 8589" transform="translate(15.176 55.238)">
                  <path id="Path_10392" data-name="Path 10392" d="M649.217,1881.45l-9.967-25.709-1.536.6,10.543,27.2,28.089-10.889-.577-1.488Z" transform="translate(-637.715 -1847.383)" fill="#cfd0d8"/>
                  <g id="Group_8588" data-name="Group 8588" transform="translate(10.727)">
                    <path id="Path_10393" data-name="Path 10393" d="M686.967,1853.049l-3.5,1.78,1.329.66-4.8,8.98-4.476-.327-5.316,9.537.905,2.335,5.533-9.936,4.523.327,5.247-10.112,1.41.7Z" transform="translate(-669.133 -1845.669)" fill="#cfd0d8"/>
                    <g id="Group_8587" data-name="Group 8587">
                      <g id="Group_8586" data-name="Group 8586">
                        <path id="Path_10394" data-name="Path 10394" d="M667.259,1859.609l1.1-11.925a.363.363,0,0,1,.358-.33h0l6.279-.065,1.957-1.677-1.264-9.377a.362.362,0,0,1,.159-.348h0a.356.356,0,0,1,.383-.01h0l4.668,2.771,3.826-3.271.47.552-4.023,3.438a.365.365,0,0,1-.422.037h0l-4.241-2.521,1.188,8.827a.351.351,0,0,1-.12.321h0l-2.208,1.893a.355.355,0,0,1-.231.088h0l-6.086.061-1.206,12.993Z" transform="translate(-667.259 -1834.414)" fill="#cfd0d8"/>
                        <path id="Path_10395" data-name="Path 10395" d="M715.133,1834.848l.093-2.042a.088.088,0,0,0-.029-.068.08.08,0,0,0-.075-.013l-1.861.483a.109.109,0,0,0-.072.069.1.1,0,0,0,.026.09l1.769,1.554a.089.089,0,0,0,.094.012A.09.09,0,0,0,715.133,1834.848Z" transform="translate(-696.51 -1832.722)" fill="#cfd0d8"/>
                      </g>
                    </g>
                  </g>
                </g>
                <g id="Group_8591" data-name="Group 8591" transform="translate(35.551)">
                  <path id="Path_10396" data-name="Path 10396" d="M702.548,1719.113l-7.609-19.626-1.11.43,7.608,19.626.439,1.133,1.11-.43,19.18-7.435-.439-1.133Z" transform="translate(-693.829 -1692.625)" fill="#cfd0d8"/>
                  <g id="Group_8590" data-name="Group 8590" transform="translate(8.165 6.524)">
                    <rect id="Rectangle_2811" data-name="Rectangle 2811" width="3.571" height="4.452" transform="matrix(0.932, -0.361, 0.361, 0.932, 0, 13.805)" fill="#cfd0d8"/>
                    <rect id="Rectangle_2812" data-name="Rectangle 2812" width="3.566" height="7.957" transform="matrix(0.932, -0.361, 0.361, 0.932, 3.164, 8.819)" fill="#cfd0d8"/>
                    <rect id="Rectangle_2813" data-name="Rectangle 2813" width="3.565" height="6.703" transform="matrix(0.932, -0.361, 0.361, 0.932, 8.012, 8.285)" fill="#cfd0d8"/>
                    <rect id="Rectangle_2814" data-name="Rectangle 2814" width="3.569" height="12.38" transform="matrix(0.932, -0.361, 0.361, 0.932, 10.351, 1.29)" fill="#cfd0d8"/>
                  </g>
                  <path id="Path_10397" data-name="Path 10397" d="M725.463,1680.591l-2.773,1.416,1.061.542-3.757,7.228-3.557-.291-4.165,7.676.733,1.892,4.337-8,3.595.3,4.1-8.145,1.128.578Z" transform="translate(-705.575 -1680.591)" fill="#cfd0d8"/>
                </g>
                <g id="Group_8592" data-name="Group 8592" transform="translate(50.026 47.457)">
                  <rect id="Rectangle_2815" data-name="Rectangle 2815" width="28.653" height="2.288" transform="matrix(0.932, -0.361, 0.361, 0.932, 0, 10.357)" fill="#cfd0d8"/>
                  <rect id="Rectangle_2816" data-name="Rectangle 2816" width="28.653" height="2.287" transform="matrix(0.932, -0.361, 0.361, 0.932, 1.388, 13.936)" fill="#cfd0d8"/>
                  <rect id="Rectangle_2817" data-name="Rectangle 2817" width="28.653" height="2.288" transform="matrix(0.932, -0.361, 0.361, 0.932, 2.798, 17.575)" fill="#cfd0d8"/>
                  <rect id="Rectangle_2818" data-name="Rectangle 2818" width="28.653" height="2.287" transform="matrix(0.932, -0.361, 0.361, 0.932, 4.208, 21.212)" fill="#cfd0d8"/>
                </g>
              </g>
            </g>
          </g>
        </g>
      </g>
      <text id="RESEARCH" transform="translate(16.024 79.86) rotate(-21.5)" fill="#2d356b" font-size="14" font-family="TrebuchetMS-Bold, Trebuchet MS" font-weight="700"><tspan x="0" y="0">RESEARCH</tspan></text>
    </g>
    <g id="Group_8603" data-name="Group 8603" transform="translate(93.216 31.147)">
      <g id="Group_8601" data-name="Group 8601" transform="translate(0 8.925)">
        <g id="Group_8600" data-name="Group 8600">
          <path id="Path_10398" data-name="Path 10398" d="M976.174,1714a35.5,35.5,0,0,1,.991,11.542c-1.562,19.971-19.511,34.57-40.091,32.609a38.54,38.54,0,0,1-27.047-14.983c-8.467,17.434-25.122,26.959-37.7,21.341-11.841-5.289-15.94-22.154-10.073-39-18.191-2.029-31.894-15.614-30.721-30.607.835-10.677,8.989-19.223,20.2-22.738-5.881-4.747-9.252-10.742-8.767-16.944,1-12.786,18.012-21.606,38-19.7q2.188.209,4.3.575c4.34-14.254,19.892-23.855,37.536-22.174,19.986,1.9,35.083,17.564,33.722,34.977q-.066.85-.184,1.683a64.852,64.852,0,0,1,9.4.217c25.117,2.394,44.365,18.567,42.992,36.125C1007.642,1700.739,994.121,1711.292,976.174,1714Z" transform="translate(-816.394 -1613.733)" fill="#ebebeb" stroke="#cfd0d8" stroke-miterlimit="10" stroke-width="1"/>
          <g id="Group_8599" data-name="Group 8599" transform="translate(0 97.724)">
            <ellipse id="Ellipse_431" data-name="Ellipse 431" cx="11.746" cy="12.967" rx="11.746" ry="12.967" transform="translate(22.939)" fill="#ebebeb" stroke="#cfd0d8" stroke-miterlimit="10" stroke-width="1"/>
            <ellipse id="Ellipse_432" data-name="Ellipse 432" cx="6.961" cy="7.684" rx="6.961" ry="7.684" transform="translate(11.946 10.497)" fill="#ebebeb" stroke="#cfd0d8" stroke-miterlimit="10" stroke-width="1"/>
            <ellipse id="Ellipse_433" data-name="Ellipse 433" cx="5.954" cy="6.573" rx="5.954" ry="6.573" transform="translate(0 24.088)" fill="#ebebeb" stroke="#cfd0d8" stroke-miterlimit="10" stroke-width="1"/>
          </g>
        </g>
        <text id="pretty_interesting" data-name="pretty
interesting" transform="translate(55.748 110.119) rotate(-20)" fill="#343f76" font-size="20" font-family="TrebuchetMS-Bold, Trebuchet MS" font-weight="700"><tspan x="0" y="0">pretty</tspan><tspan x="0" y="24">interesting</tspan></text>
      </g>
      <g id="Group_8602" data-name="Group 8602" transform="translate(55.963)">
        <path id="Path_10399" data-name="Path 10399" d="M949.969,1684.768h18.513a5.891,5.891,0,0,1,5.878,5.878v34.989a5.891,5.891,0,0,1-5.878,5.878H949.969a5.891,5.891,0,0,1-5.878-5.878v-34.989a5.891,5.891,0,0,1,5.878-5.878Zm18.513,2.869H949.969a3.021,3.021,0,0,0-3.008,3.008v34.989a3.021,3.021,0,0,0,3.008,3.008h18.513a3.021,3.021,0,0,0,3.008-3.008v-34.989a3.021,3.021,0,0,0-3.008-3.008Z" transform="translate(-944.091 -1650.051)" fill="#9898a3"/>
        <path id="Path_10400" data-name="Path 10400" d="M1019.641,1626.948a1.429,1.429,0,0,0,1.233,2.578c.057-.027,19.7-9.133,16.82-37.251,3.976-.725,16.706-1.014,11.188,26.948h0a1.435,1.435,0,0,0,1.712,1.68c2.363-.3,39.356-4.79,27.516,13.37l0,0a1.436,1.436,0,0,0,.143,1.752c.54.7,4.645,6.405-1.884,9.582h-.005a1.435,1.435,0,0,0-.715,1.8c.194.583,2.342,7.391-2.7,9.552l0,0a1.435,1.435,0,0,0-.864,1.45c-.008,1.183-.321,10.687-8.36,9.593v0a1.508,1.508,0,0,0-.219-.013h-34.9l-7.419-4.08a1.432,1.432,0,1,0-1.379,2.511l7.668,4.217a1.43,1.43,0,0,0,.766.222h35.238c9.906,1.254,11.253-8.573,11.432-11.672,5.172-2.842,4.375-8.98,3.767-11.563,6.972-4.1,3.82-10.355,2.352-12.608,12.282-20.124-20.487-18-28.972-17.143,6.065-34.311-14.815-28.516-16.27-28.074a1.435,1.435,0,0,0-1.079,1.569h0C1038.059,1618.417,1019.694,1626.923,1019.641,1626.948Z" transform="translate(-991.692 -1589.153)" fill="#9898a3"/>
        <path id="Path_10401" data-name="Path 10401" d="M1043.1,1597.4c2.478,24.233-11.765,34.344-15.786,36.694a5.858,5.858,0,0,1,.052.779v34.579L1034,1673.1h34.9a1.491,1.491,0,0,1,.219.013v0c8.039,1.094,8.352-8.411,8.36-9.593a1.435,1.435,0,0,1,.864-1.451l0,0c5.042-2.161,2.894-8.969,2.7-9.552a1.435,1.435,0,0,1,.715-1.8h.005c6.529-3.176,2.425-8.879,1.884-9.582a1.435,1.435,0,0,1-.143-1.752l0,0c11.84-18.16-25.152-13.673-27.516-13.37a1.435,1.435,0,0,1-1.712-1.68h0C1059.8,1596.382,1047.074,1596.67,1043.1,1597.4Z" transform="translate(-997.095 -1594.273)" fill="#fff" fill-rule="evenodd"/>
        <path id="Path_10402" data-name="Path 10402" d="M976.524,1730.669v-34.989a3.02,3.02,0,0,0-3.008-3.008H955a3.02,3.02,0,0,0-3.008,3.008v34.989a3.021,3.021,0,0,0,3.008,3.008h18.513a3.024,3.024,0,0,0,2.976-2.566,1.418,1.418,0,0,1,.03-.322C976.523,1730.749,976.524,1730.709,976.524,1730.669Z" transform="translate(-949.125 -1655.085)" fill="#fcf3bf" fill-rule="evenodd"/>
        <path id="Path_10403" data-name="Path 10403" d="M956.307,1695.679v34.989a5.836,5.836,0,0,0,.832,3.008H955a3.021,3.021,0,0,1-3.008-3.008v-34.989a3.02,3.02,0,0,1,3.008-3.008h2.137A5.836,5.836,0,0,0,956.307,1695.679Z" transform="translate(-949.125 -1655.085)" fill="#efc47d" fill-rule="evenodd"/>
        <path id="Path_10404" data-name="Path 10404" d="M1031.676,1634.868v34.989c0,.04,0,.081,0,.121a1.42,1.42,0,0,0-.031.322,2.987,2.987,0,0,1-.483,1.235l-3.8-2.088v-34.579a5.858,5.858,0,0,0-.052-.779,26.645,26.645,0,0,0,2.683-1.81,42.249,42.249,0,0,0,13.1-34.884,11.812,11.812,0,0,1,4.3-.01C1050.146,1622.939,1031.676,1633.1,1031.676,1634.868Z" transform="translate(-997.095 -1594.273)" fill="#cecfd6" fill-rule="evenodd"/>
        <path id="Path_10405" data-name="Path 10405" d="M1044.851,1804.841a5.818,5.818,0,0,0,.286-.524l1.273.7h-1.238Z" transform="translate(-1008.266 -1726.193)" fill="#eaeaea" fill-rule="evenodd"/>
      </g>
    </g>
  </g>
</svg>
