<svg xmlns="http://www.w3.org/2000/svg" width="358.516" height="318.661" viewBox="0 0 358.516 318.661">
  <g id="Group_9974" data-name="Group 9974" transform="translate(-122.742 -3236.934)">
    <g id="Group_9633" data-name="Group 9633" transform="translate(122.742 3236.934)">
      <g id="Group_9632" data-name="Group 9632">
        <g id="Group_9631" data-name="Group 9631">
          <g id="Group_9630" data-name="Group 9630">
            <g id="Group_9628" data-name="Group 9628">
              <g id="Group_9627" data-name="Group 9627">
                <g id="Group_9613" data-name="Group 9613" transform="translate(0 46.576)">
                  <path id="Path_13079" data-name="Path 13079" d="M764.359,3446.851a5.264,5.264,0,0,1-5.275,5.271H411.117a5.264,5.264,0,0,1-5.274-5.271V3188.578a5.262,5.262,0,0,1,5.274-5.261H759.083a5.262,5.262,0,0,1,5.275,5.261Z" transform="translate(-405.843 -3180.037)" fill="#7b88ac"/>
                  <path id="Path_13080" data-name="Path 13080" d="M765.465,3388.345c-.221.231-49.47,56.435-49.47,56.573H413.581a5.277,5.277,0,0,1-5.261-5.28V3181.385a5.252,5.252,0,0,1,5.261-5.252h346.65a5.229,5.229,0,0,1,5.234,5.252Z" transform="translate(-407.189 -3176.132)" fill="#fff"/>
                  <g id="Group_9608" data-name="Group 9608" transform="translate(308.853 212.59)">
                    <g id="Group_9607" data-name="Group 9607">
                      <g id="Group_9606" data-name="Group 9606">
                        <path id="Path_13081" data-name="Path 13081" d="M1090.824,3641.786h41.038l-49.515,56.5v-48.022A8.478,8.478,0,0,1,1090.824,3641.786Z" transform="translate(-1082.348 -3641.786)" fill="#40558e"/>
                      </g>
                    </g>
                  </g>
                  <g id="Group_9609" data-name="Group 9609" transform="translate(11.804 36.755)">
                    <rect id="Rectangle_3820" data-name="Rectangle 3820" width="44.613" height="29.779" fill="#ebebeb"/>
                    <rect id="Rectangle_3821" data-name="Rectangle 3821" width="44.613" height="29.779" transform="translate(48.561)" fill="#ebebeb"/>
                    <rect id="Rectangle_3822" data-name="Rectangle 3822" width="44.613" height="29.779" transform="translate(97.122)" fill="#ebebeb"/>
                    <rect id="Rectangle_3823" data-name="Rectangle 3823" width="44.613" height="29.779" transform="translate(145.683)" fill="#ebebeb"/>
                    <rect id="Rectangle_3824" data-name="Rectangle 3824" width="44.613" height="29.779" transform="translate(194.244)" fill="#ebebeb"/>
                    <rect id="Rectangle_3825" data-name="Rectangle 3825" width="44.613" height="29.779" transform="translate(242.805)" fill="#ebebeb"/>
                    <rect id="Rectangle_3826" data-name="Rectangle 3826" width="44.613" height="29.779" transform="translate(291.366)" fill="#ebebeb"/>
                  </g>
                  <g id="Group_9610" data-name="Group 9610" transform="translate(11.804 77.097)">
                    <rect id="Rectangle_3827" data-name="Rectangle 3827" width="44.613" height="29.779" fill="#ebebeb"/>
                    <rect id="Rectangle_3828" data-name="Rectangle 3828" width="44.613" height="29.779" transform="translate(48.461)" fill="#ebebeb"/>
                    <rect id="Rectangle_3829" data-name="Rectangle 3829" width="44.613" height="29.779" transform="translate(145.382)" fill="#ebebeb"/>
                    <rect id="Rectangle_3830" data-name="Rectangle 3830" width="44.613" height="29.779" transform="translate(193.843)" fill="#ebebeb"/>
                    <rect id="Rectangle_3831" data-name="Rectangle 3831" width="44.613" height="29.779" transform="translate(242.304)" fill="#ebebeb"/>
                    <rect id="Rectangle_3832" data-name="Rectangle 3832" width="44.613" height="29.779" transform="translate(290.765)" fill="#ebebeb"/>
                    <rect id="Rectangle_3833" data-name="Rectangle 3833" width="44.613" height="29.779" transform="translate(96.922)" fill="#ebebeb"/>
                  </g>
                  <g id="Group_9611" data-name="Group 9611" transform="translate(11.804 117.438)">
                    <rect id="Rectangle_3834" data-name="Rectangle 3834" width="44.613" height="29.779" fill="#ebebeb"/>
                    <rect id="Rectangle_3835" data-name="Rectangle 3835" width="44.613" height="29.779" transform="translate(48.461)" fill="#ebebeb"/>
                    <rect id="Rectangle_3836" data-name="Rectangle 3836" width="44.613" height="29.779" transform="translate(145.382)" fill="#ebebeb"/>
                    <rect id="Rectangle_3837" data-name="Rectangle 3837" width="44.613" height="29.779" transform="translate(193.843)" fill="#ebebeb"/>
                    <rect id="Rectangle_3838" data-name="Rectangle 3838" width="44.613" height="29.779" transform="translate(242.304)" fill="#ebebeb"/>
                    <rect id="Rectangle_3839" data-name="Rectangle 3839" width="44.613" height="29.779" transform="translate(290.765)" fill="#ebebeb"/>
                    <rect id="Rectangle_3840" data-name="Rectangle 3840" width="44.613" height="29.779" transform="translate(96.922)" fill="#ebebeb"/>
                  </g>
                  <g id="Group_9612" data-name="Group 9612" transform="translate(11.804 157.779)">
                    <rect id="Rectangle_3841" data-name="Rectangle 3841" width="44.613" height="29.779" fill="#ebebeb"/>
                    <rect id="Rectangle_3842" data-name="Rectangle 3842" width="44.613" height="29.779" transform="translate(48.461)" fill="#ebebeb"/>
                    <rect id="Rectangle_3843" data-name="Rectangle 3843" width="44.613" height="29.779" transform="translate(145.382)" fill="#ebebeb"/>
                    <rect id="Rectangle_3844" data-name="Rectangle 3844" width="44.613" height="29.779" transform="translate(193.843)" fill="#ebebeb"/>
                    <rect id="Rectangle_3845" data-name="Rectangle 3845" width="44.613" height="29.779" transform="translate(242.304)" fill="#ebebeb"/>
                    <rect id="Rectangle_3846" data-name="Rectangle 3846" width="44.613" height="29.779" transform="translate(290.765)" fill="#ebebeb"/>
                    <rect id="Rectangle_3847" data-name="Rectangle 3847" width="44.613" height="29.779" transform="translate(96.922)" fill="#ebebeb"/>
                  </g>
                </g>
                <path id="Path_13082" data-name="Path 13082" d="M764.247,3146.236V3098.08c0-2.411-2.376-4.37-5.288-4.37H411.113c-2.921,0-5.27,1.959-5.27,4.37v48.156Z" transform="translate(-405.843 -3084.763)" fill="#2d356b"/>
                <g id="Group_9626" data-name="Group 9626" transform="translate(26.002)">
                  <g id="Group_9625" data-name="Group 9625">
                    <g id="Group_9614" data-name="Group 9614">
                      <path id="Path_13083" data-name="Path 13083" d="M472.416,3088.943c0,1.682-2.1,3.064-4.634,3.064h-.332c-2.552,0-4.652-1.382-4.652-3.064v-11.77c0-1.677,2.1-3.059,4.652-3.059h.332c2.534,0,4.634,1.382,4.634,3.059Z" transform="translate(-462.797 -3074.113)" fill="#fff4ba"/>
                    </g>
                    <g id="Group_9615" data-name="Group 9615" transform="translate(29.659)">
                      <path id="Path_13084" data-name="Path 13084" d="M537.381,3088.943c0,1.682-2.1,3.064-4.644,3.064H532.4c-2.542,0-4.634-1.382-4.634-3.064v-11.77c0-1.677,2.092-3.059,4.634-3.059h.341c2.543,0,4.644,1.382,4.644,3.059Z" transform="translate(-527.761 -3074.113)" fill="#fff4ba"/>
                    </g>
                    <g id="Group_9616" data-name="Group 9616" transform="translate(59.318)">
                      <path id="Path_13085" data-name="Path 13085" d="M602.336,3088.943c0,1.682-2.082,3.064-4.643,3.064h-.313c-2.571,0-4.654-1.382-4.654-3.064v-11.77c0-1.677,2.082-3.059,4.654-3.059h.313c2.56,0,4.643,1.382,4.643,3.059Z" transform="translate(-592.727 -3074.113)" fill="#fff4ba"/>
                    </g>
                    <g id="Group_9617" data-name="Group 9617" transform="translate(88.959)">
                      <path id="Path_13086" data-name="Path 13086" d="M667.281,3088.943c0,1.682-2.1,3.064-4.635,3.064h-.35c-2.544,0-4.644-1.382-4.644-3.064v-11.77c0-1.677,2.1-3.059,4.644-3.059h.35c2.533,0,4.635,1.382,4.635,3.059Z" transform="translate(-657.652 -3074.113)" fill="#fff4ba"/>
                    </g>
                    <g id="Group_9618" data-name="Group 9618" transform="translate(118.618)">
                      <path id="Path_13087" data-name="Path 13087" d="M732.226,3088.943c0,1.682-2.082,3.064-4.634,3.064h-.341c-2.543,0-4.635-1.382-4.635-3.064v-11.77c0-1.677,2.092-3.059,4.635-3.059h.341c2.552,0,4.634,1.382,4.634,3.059Z" transform="translate(-722.616 -3074.113)" fill="#fff4ba"/>
                    </g>
                    <g id="Group_9619" data-name="Group 9619" transform="translate(148.283)">
                      <path id="Path_13088" data-name="Path 13088" d="M797.193,3088.943c0,1.682-2.1,3.064-4.626,3.064h-.35c-2.543,0-4.625-1.382-4.625-3.064v-11.77c0-1.677,2.082-3.059,4.625-3.059h.35c2.525,0,4.626,1.382,4.626,3.059Z" transform="translate(-787.592 -3074.113)" fill="#fff4ba"/>
                    </g>
                    <g id="Group_9620" data-name="Group 9620" transform="translate(177.933)">
                      <path id="Path_13089" data-name="Path 13089" d="M862.157,3088.943c0,1.682-2.119,3.064-4.644,3.064h-.35c-2.562,0-4.625-1.382-4.625-3.064v-11.77c0-1.677,2.064-3.059,4.625-3.059h.35c2.525,0,4.644,1.382,4.644,3.059Z" transform="translate(-852.538 -3074.113)" fill="#fff4ba"/>
                    </g>
                    <g id="Group_9621" data-name="Group 9621" transform="translate(207.582)">
                      <path id="Path_13090" data-name="Path 13090" d="M927.082,3088.943c0,1.682-2.082,3.064-4.644,3.064h-.313c-2.562,0-4.644-1.382-4.644-3.064v-11.77c0-1.677,2.082-3.059,4.644-3.059h.313c2.562,0,4.644,1.382,4.644,3.059Z" transform="translate(-917.481 -3074.113)" fill="#fff4ba"/>
                    </g>
                    <g id="Group_9622" data-name="Group 9622" transform="translate(237.233)">
                      <path id="Path_13091" data-name="Path 13091" d="M992.028,3088.943c0,1.682-2.082,3.064-4.644,3.064h-.331c-2.525,0-4.626-1.382-4.626-3.064v-11.77c0-1.677,2.1-3.059,4.626-3.059h.331c2.562,0,4.644,1.382,4.644,3.059Z" transform="translate(-982.427 -3074.113)" fill="#fff4ba"/>
                    </g>
                    <g id="Group_9623" data-name="Group 9623" transform="translate(266.864)">
                      <path id="Path_13092" data-name="Path 13092" d="M1056.951,3088.943c0,1.682-2.082,3.064-4.626,3.064h-.35c-2.524,0-4.644-1.382-4.644-3.064v-11.77c0-1.677,2.12-3.059,4.644-3.059h.35c2.544,0,4.626,1.382,4.626,3.059Z" transform="translate(-1047.331 -3074.113)" fill="#fff4ba"/>
                    </g>
                    <g id="Group_9624" data-name="Group 9624" transform="translate(296.534)">
                      <path id="Path_13093" data-name="Path 13093" d="M1121.937,3088.943c0,1.682-2.1,3.064-4.644,3.064h-.331c-2.562,0-4.644-1.382-4.644-3.064v-11.77c0-1.677,2.082-3.059,4.644-3.059h.331c2.544,0,4.644,1.382,4.644,3.059Z" transform="translate(-1112.318 -3074.113)" fill="#fff4ba"/>
                    </g>
                  </g>
                </g>
              </g>
            </g>
            <g id="Group_9629" data-name="Group 9629" transform="translate(12.095 82.382)">
              <text id="_1" data-name="1" transform="translate(0 7)" fill="#9999a5" font-size="7" font-family="TrebuchetMS-Bold, Trebuchet MS" font-weight="700"><tspan x="0" y="0">1</tspan></text>
              <text id="_8" data-name="8" transform="translate(0 47.056)" fill="#9999a5" font-size="7" font-family="TrebuchetMS-Bold, Trebuchet MS" font-weight="700"><tspan x="0" y="0">8</tspan></text>
              <text id="_15" data-name="15" transform="translate(8.771 104.242)" fill="#f46973" font-size="20" font-family="TrebuchetMS-Bold, Trebuchet MS" font-weight="700"><tspan x="0" y="0">15</tspan></text>
              <text id="_22" data-name="22" transform="translate(0 127.757)" fill="#9999a5" font-size="7" font-family="TrebuchetMS-Bold, Trebuchet MS" font-weight="700"><tspan x="0" y="0">22</tspan></text>
              <text id="_2" data-name="2" transform="translate(49.436 7.301)" fill="#9999a5" font-size="7" font-family="TrebuchetMS-Bold, Trebuchet MS" font-weight="700"><tspan x="0" y="0">2</tspan></text>
              <text id="_9" data-name="9" transform="translate(49.436 47.357)" fill="#9999a5" font-size="7" font-family="TrebuchetMS-Bold, Trebuchet MS" font-weight="700"><tspan x="0" y="0">9</tspan></text>
              <text id="_16" data-name="16" transform="translate(49.436 88.004)" fill="#9999a5" font-size="7" font-family="TrebuchetMS-Bold, Trebuchet MS" font-weight="700"><tspan x="0" y="0">16</tspan></text>
              <text id="_23" data-name="23" transform="translate(49.436 128.059)" fill="#9999a5" font-size="7" font-family="TrebuchetMS-Bold, Trebuchet MS" font-weight="700"><tspan x="0" y="0">23</tspan></text>
              <text id="_3" data-name="3" transform="translate(97.132 7.301)" fill="#9999a5" font-size="7" font-family="TrebuchetMS-Bold, Trebuchet MS" font-weight="700"><tspan x="0" y="0">3</tspan></text>
              <text id="_10" data-name="10" transform="translate(97.132 47.357)" fill="#9999a5" font-size="7" font-family="TrebuchetMS-Bold, Trebuchet MS" font-weight="700"><tspan x="0" y="0">10</tspan></text>
              <text id="_17" data-name="17" transform="translate(97.132 88.004)" fill="#9999a5" font-size="7" font-family="TrebuchetMS-Bold, Trebuchet MS" font-weight="700"><tspan x="0" y="0">17</tspan></text>
              <text id="_24" data-name="24" transform="translate(97.132 128.059)" fill="#9999a5" font-size="7" font-family="TrebuchetMS-Bold, Trebuchet MS" font-weight="700"><tspan x="0" y="0">24</tspan></text>
              <text id="_4" data-name="4" transform="translate(145.731 7.191)" fill="#9999a5" font-size="7" font-family="TrebuchetMS-Bold, Trebuchet MS" font-weight="700"><tspan x="0" y="0">4</tspan></text>
              <text id="_11" data-name="11" transform="translate(145.731 47.247)" fill="#9999a5" font-size="7" font-family="TrebuchetMS-Bold, Trebuchet MS" font-weight="700"><tspan x="0" y="0">11</tspan></text>
              <text id="_18" data-name="18" transform="translate(145.731 87.893)" fill="#9999a5" font-size="7" font-family="TrebuchetMS-Bold, Trebuchet MS" font-weight="700"><tspan x="0" y="0">18</tspan></text>
              <text id="_25" data-name="25" transform="translate(145.731 127.948)" fill="#9999a5" font-size="7" font-family="TrebuchetMS-Bold, Trebuchet MS" font-weight="700"><tspan x="0" y="0">25</tspan></text>
              <text id="_5" data-name="5" transform="translate(194.497 7.191)" fill="#9999a5" font-size="7" font-family="TrebuchetMS-Bold, Trebuchet MS" font-weight="700"><tspan x="0" y="0">5</tspan></text>
              <text id="_12" data-name="12" transform="translate(194.497 47.247)" fill="#9999a5" font-size="7" font-family="TrebuchetMS-Bold, Trebuchet MS" font-weight="700"><tspan x="0" y="0">12</tspan></text>
              <text id="_19" data-name="19" transform="translate(194.498 87.893)" fill="#9999a5" font-size="7" font-family="TrebuchetMS-Bold, Trebuchet MS" font-weight="700"><tspan x="0" y="0">19</tspan></text>
              <text id="_26" data-name="26" transform="translate(194.498 127.948)" fill="#9999a5" font-size="7" font-family="TrebuchetMS-Bold, Trebuchet MS" font-weight="700"><tspan x="0" y="0">26</tspan></text>
              <text id="_6" data-name="6" transform="translate(243.256 7.191)" fill="#9999a5" font-size="7" font-family="TrebuchetMS-Bold, Trebuchet MS" font-weight="700"><tspan x="0" y="0">6</tspan></text>
              <text id="_13" data-name="13" transform="translate(243.256 47.247)" fill="#9999a5" font-size="7" font-family="TrebuchetMS-Bold, Trebuchet MS" font-weight="700"><tspan x="0" y="0">13</tspan></text>
              <text id="_20" data-name="20" transform="translate(243.256 87.893)" fill="#9999a5" font-size="7" font-family="TrebuchetMS-Bold, Trebuchet MS" font-weight="700"><tspan x="0" y="0">20</tspan></text>
              <text id="_27" data-name="27" transform="translate(243.256 127.948)" fill="#9999a5" font-size="7" font-family="TrebuchetMS-Bold, Trebuchet MS" font-weight="700"><tspan x="0" y="0">27</tspan></text>
              <text id="_7" data-name="7" transform="translate(291.821 7.191)" fill="#9999a5" font-size="7" font-family="TrebuchetMS-Bold, Trebuchet MS" font-weight="700"><tspan x="0" y="0">7</tspan></text>
              <text id="_14" data-name="14" transform="translate(291.821 47.247)" fill="#9999a5" font-size="7" font-family="TrebuchetMS-Bold, Trebuchet MS" font-weight="700"><tspan x="0" y="0">14</tspan></text>
              <text id="_21" data-name="21" transform="translate(291.821 87.893)" fill="#9999a5" font-size="7" font-family="TrebuchetMS-Bold, Trebuchet MS" font-weight="700"><tspan x="0" y="0">21</tspan></text>
              <text id="_28" data-name="28" transform="translate(291.821 127.948)" fill="#9999a5" font-size="7" font-family="TrebuchetMS-Bold, Trebuchet MS" font-weight="700"><tspan x="0" y="0">28</tspan></text>
            </g>
          </g>
        </g>
      </g>
      <ellipse id="Ellipse_77" data-name="Ellipse 77" cx="25.034" cy="17.273" rx="25.034" ry="17.273" transform="translate(9.349 161.963)" fill="none" stroke="#f46973" stroke-miterlimit="10" stroke-width="4"/>
    </g>
    <text id="FEBRUARY" transform="translate(233 3289.406)" fill="#fff" font-size="27" font-family="TrebuchetMS-Bold, Trebuchet MS" font-weight="700" letter-spacing="0.038em"><tspan x="0" y="0">FEBRUARY</tspan></text>
  </g>
</svg>
