<svg xmlns="http://www.w3.org/2000/svg" width="535.273" height="363.328" viewBox="0 0 535.273 363.328">
  <g id="Group_11375" data-name="Group 11375" transform="translate(-30.623 -1271.893)">
    <g id="Group_11058" data-name="Group 11058" transform="translate(30.623 1272.591)">
      <g id="Group_10943" data-name="Group 10943" transform="translate(0 0)">
        <g id="Group_10942" data-name="Group 10942">
          <g id="Group_10941" data-name="Group 10941">
            <g id="Group_10940" data-name="Group 10940">
              <g id="Group_10939" data-name="Group 10939">
                <g id="Group_10936" data-name="Group 10936" transform="translate(0.61)">
                  <g id="Group_10932" data-name="Group 10932" transform="translate(0.14)">
                    <path id="Path_14658" data-name="Path 14658" d="M820.3,1228.156h.633v-12.722H286.413V1481.31H820.3V1454.6h.005Z" transform="translate(-286.413 -1215.062)" fill="#fff"/>
                    <rect id="Rectangle_3391" data-name="Rectangle 3391" width="533.774" height="0.744" transform="translate(0 265.877)" fill="#a0bacb"/>
                    <rect id="Rectangle_3392" data-name="Rectangle 3392" width="534.523" height="0.744" fill="#7b88ac"/>
                  </g>
                  <g id="Group_10933" data-name="Group 10933" transform="translate(0 54.327)">
                    <path id="Path_14659" data-name="Path 14659" d="M389.1,1373.922v-.195H380.15v.195H287.643v162.1H477.618v-162.1Zm80.653,5.2v35.644H389.1v-35.644Zm-89.6,41.8v68.1H295.508v-68.1Zm8.949,68.1v-68.1h80.653v68.1Zm-8.949-109.893v35.644H295.508v-35.644ZM295.508,1495.17H380.15v35.645H295.508Zm93.591,35.645V1495.17h80.653v35.645Z" transform="translate(-287.081 -1373.355)" fill="#ebebeb"/>
                    <path id="Path_14660" data-name="Path 14660" d="M477.1,1535.68h-191.1V1372.839h92.507v-.195h10.073v.195H477.1Zm-189.975-.743H475.981V1373.582H387.463v-.195h-7.826v.195H287.13Zm182.11-4.461H387.463v-36.388h81.776Zm-80.653-.744h79.529v-34.9H388.586Zm-8.949.744H293.871v-36.388h85.766Zm-84.642-.744h83.519v-34.9H294.995Zm174.244-41.052H387.463v-68.841h81.776Zm-80.653-.744h79.529v-67.354H388.586Zm-8.949.744H293.871v-68.841h85.766Zm-84.642-.744h83.519v-67.354H294.995Zm174.244-73.505H387.463v-36.388h81.776Zm-80.653-.744h79.529v-34.9H388.586Zm-8.949.744H293.871v-36.388h85.766Zm-84.642-.744h83.519v-34.9H294.995Z" transform="translate(-286.006 -1372.644)" fill="#ebebeb"/>
                  </g>
                  <g id="Group_10934" data-name="Group 10934" transform="translate(199.934 53.368)">
                    <path id="Path_14661" data-name="Path 14661" d="M1112.966,1371.127v-.195h-8.208v.195h-84.85v162.1h174.25v-162.1Zm73.978,5.2v35.644h-73.978v-35.644Zm-82.186,41.8v68.1h-77.636v-68.1Zm8.208,68.1v-68.1h73.978v68.1Zm-8.208-109.893v35.644h-77.636v-35.644Zm-77.636,116.044h77.636v35.644h-77.636Zm85.844,35.644v-35.644h73.978v35.644Z" transform="translate(-1019.392 -1370.56)" fill="#ebebeb"/>
                    <path id="Path_14662" data-name="Path 14662" d="M1193.687,1532.885H1018.406V1370.044h84.85v-.195h9.239v.195h81.191Zm-174.25-.743h173.22V1370.788h-81.191v-.2h-7.178v.2h-84.85Zm167.036-4.461h-75.008v-36.388h75.008Zm-73.977-.743h72.946v-34.9H1112.5Zm-8.209.743H1025.62v-36.388h78.666Zm-77.636-.743h76.606v-34.9h-76.606Zm159.822-41.052h-75.008v-68.841h75.008Zm-73.977-.744h72.946v-67.354H1112.5Zm-8.209.744H1025.62v-68.841h78.666Zm-77.636-.744h76.606v-67.354h-76.606Zm159.822-73.5h-75.008v-36.388h75.008Zm-73.977-.743h72.946v-34.9H1112.5Zm-8.209.743H1025.62v-36.388h78.666Zm-77.636-.743h76.606v-34.9h-76.606Z" transform="translate(-1018.406 -1369.849)" fill="#ebebeb"/>
                  </g>
                  <g id="Group_10935" data-name="Group 10935" transform="translate(383.962 54.327)">
                    <path id="Path_14663" data-name="Path 14663" d="M1825.146,1530.815h-47.94V1495.17h47.94v-6.151h-47.94v-68.1h47.94v-6.151h-47.94v-35.644h47.94v-5.2h-47.94v-.195h-8.949v.195H1675.75v162.1h149.4Zm-56.889,0h-84.642V1495.17h84.642Zm0-41.8h-84.642v-68.1h84.642Zm0-74.249h-84.642v-35.644h84.642Z" transform="translate(-1675.188 -1373.355)" fill="#ebebeb"/>
                    <path id="Path_14664" data-name="Path 14664" d="M1969.728,1762.883h48.5v-.743h-47.378v-34.9h47.378v-.743h-48.5Z" transform="translate(-1868.272 -1605.052)" fill="#ebebeb"/>
                    <path id="Path_14665" data-name="Path 14665" d="M1969.728,1579h48.5v-.744h-47.378V1510.9h47.378v-.744h-48.5Z" transform="translate(-1868.272 -1462.961)" fill="#ebebeb"/>
                    <path id="Path_14666" data-name="Path 14666" d="M1969.728,1424.765h48.5v-.744h-47.378v-34.9h47.378v-.743h-48.5Z" transform="translate(-1868.272 -1382.977)" fill="#ebebeb"/>
                    <path id="Path_14667" data-name="Path 14667" d="M1782.8,1388.377h-85.765v36.388H1782.8Zm-1.124,35.644h-83.518v-34.9h83.518Z" transform="translate(-1689.166 -1382.977)" fill="#ebebeb"/>
                    <path id="Path_14668" data-name="Path 14668" d="M1824.072,1534.936H1675.238V1373.582h92.507v-.2h7.826v.2h48.5v-.744h-47.378v-.195h-10.073v.195h-92.507V1535.68h149.958Z" transform="translate(-1674.114 -1372.644)" fill="#ebebeb"/>
                    <path id="Path_14669" data-name="Path 14669" d="M1697.031,1762.883H1782.8v-36.388h-85.765Zm1.124-35.645h83.518v34.9h-83.518Z" transform="translate(-1689.166 -1605.051)" fill="#ebebeb"/>
                    <path id="Path_14670" data-name="Path 14670" d="M1782.8,1510.156h-85.765V1579H1782.8Zm-1.124,68.1h-83.518V1510.9h83.518Z" transform="translate(-1689.166 -1462.961)" fill="#ebebeb"/>
                  </g>
                </g>
                <g id="Group_10937" data-name="Group 10937" transform="translate(0 234.24)">
                  <path id="Path_14671" data-name="Path 14671" d="M818.753,1897.778H284.868V1989h-.639v36.851H818.748V1901.665h.005Z" transform="translate(-284.23 -1897.462)" fill="#f9f9f9"/>
                  <rect id="Rectangle_3393" data-name="Rectangle 3393" width="532.47" height="0.533" transform="translate(2.24 127.656)" fill="#f9f9f9"/>
                  <rect id="Rectangle_3394" data-name="Rectangle 3394" width="533.781" height="0.533" transform="translate(0.749)" fill="#f9f9f9"/>
                </g>
                <g id="Group_10938" data-name="Group 10938" transform="translate(33.529 4.687)">
                  <path id="Path_14672" data-name="Path 14672" d="M1383.632,1307.553v-79.545h-2.117v79.545c-6.6.405-11.792,4.545-11.792,9.6,0,5.325,5.754,9.642,12.85,9.642s12.85-4.317,12.85-9.642C1395.424,1312.1,1390.233,1307.958,1383.632,1307.553Z" transform="translate(-1004.167 -1228.008)" fill="#ffb2b0"/>
                  <path id="Path_14673" data-name="Path 14673" d="M395.834,1325.86v-79.545h-2.117v79.545c-6.6.405-11.792,4.545-11.792,9.6,0,5.325,5.753,9.642,12.851,9.642s12.85-4.317,12.85-9.642C407.626,1330.4,402.435,1326.265,395.834,1325.86Z" transform="translate(-381.925 -1240.032)" fill="#ffb2b0"/>
                  <path id="Path_14674" data-name="Path 14674" d="M743.472,1322.555v-57.831h-1.539v57.831c-4.8.294-8.573,3.3-8.573,6.98,0,3.871,4.183,7.01,9.343,7.01s9.342-3.138,9.342-7.01C752.045,1325.859,748.271,1322.849,743.472,1322.555Z" transform="translate(-603.453 -1252.123)" fill="#ffb2b0"/>
                  <path id="Path_14675" data-name="Path 14675" d="M1687.266,1322.555v-57.831h-1.539v57.831c-4.8.294-8.573,3.3-8.573,6.98,0,3.871,4.183,7.01,9.343,7.01s9.342-3.138,9.342-7.01C1695.839,1325.859,1692.065,1322.849,1687.266,1322.555Z" transform="translate(-1198.376 -1252.123)" fill="#ffb2b0"/>
                </g>
              </g>
            </g>
          </g>
        </g>
      </g>
      <g id="Group_10955" data-name="Group 10955" transform="translate(300.999 232.89)">
        <g id="Group_10948" data-name="Group 10948" transform="translate(141.769)">
          <path id="Path_14676" data-name="Path 14676" d="M1911.294,2041.3h-34.65s5.171,4.113,18.229,4.113S1911.294,2041.3,1911.294,2041.3Z" transform="translate(-1865.331 -1990.375)" fill="#ebebeb"/>
          <g id="Group_10944" data-name="Group 10944" transform="translate(0 51.221)">
            <path id="Path_14677" data-name="Path 14677" d="M1844.329,2084.69l16.35-42.221-.647-.3-16.35,42.222Z" transform="translate(-1843.682 -2042.167)" fill="#ebebeb"/>
          </g>
          <g id="Group_10945" data-name="Group 10945" transform="translate(40.596 51.074)">
            <path id="Path_14678" data-name="Path 14678" d="M1973.043,2084.367l.676-.212-11.076-42.414-.675.212Z" transform="translate(-1961.968 -2041.741)" fill="#ebebeb"/>
          </g>
          <g id="Group_10946" data-name="Group 10946" transform="translate(33.902 52.125)">
            <path id="Path_14679" data-name="Path 14679" d="M1944.221,2086.287l.7-.037-1.759-41.45-.7.037Z" transform="translate(-1942.463 -2044.801)" fill="#ebebeb"/>
          </g>
          <g id="Group_10947" data-name="Group 10947" transform="translate(18.789 52.847)">
            <path id="Path_14680" data-name="Path 14680" d="M1899.119,2087.719l6.5-40.679-.692-.134-6.5,40.679Z" transform="translate(-1898.427 -2046.907)" fill="#ebebeb"/>
          </g>
          <path id="Path_14681" data-name="Path 14681" d="M1875.056,1945.005h28.967c15.774,0,23.159-37.944,22.109-44.471-1.551-9.64-18.49-9.64-23.143-2.7-3.1,4.629-7.758,21.025-10.517,31.44a12.475,12.475,0,0,1-11.449,9.241c-5.137.253-10.6.678-11,1.348C1869.355,1940.966,1869.244,1945.005,1875.056,1945.005Z" transform="translate(-1860.776 -1892.925)" fill="#ebebeb"/>
          <path id="Path_14682" data-name="Path 14682" d="M1870.093,1950.97l28.993-.578c15.774,0,24.614-34.792,23.562-41.321-.156-.973,3.18-.144,3.492,1.8,1.051,6.527-6.335,44.471-22.109,44.471h-28.967C1869.25,1955.342,1869.316,1950.97,1870.093,1950.97Z" transform="translate(-1860.784 -1903.261)" fill="#ebebeb"/>
        </g>
        <g id="Group_10953" data-name="Group 10953">
          <path id="Path_14683" data-name="Path 14683" d="M1487.4,2041.3h34.65s-5.171,4.113-18.229,4.113S1487.4,2041.3,1487.4,2041.3Z" transform="translate(-1467.908 -1990.375)" fill="#ebebeb"/>
          <g id="Group_10949" data-name="Group 10949" transform="translate(48.458 51.221)">
            <path id="Path_14684" data-name="Path 14684" d="M1588.148,2084.69l-16.35-42.221.647-.3,16.35,42.222Z" transform="translate(-1571.798 -2042.167)" fill="#ebebeb"/>
          </g>
          <g id="Group_10950" data-name="Group 10950" transform="translate(13.107 51.074)">
            <path id="Path_14685" data-name="Path 14685" d="M1469.473,2084.367l-.676-.212,11.076-42.414.675.212Z" transform="translate(-1468.797 -2041.741)" fill="#ebebeb"/>
          </g>
          <g id="Group_10951" data-name="Group 10951" transform="translate(29.091 52.125)">
            <path id="Path_14686" data-name="Path 14686" d="M1516.073,2086.287l-.7-.037,1.759-41.45.7.037Z" transform="translate(-1515.37 -2044.801)" fill="#ebebeb"/>
          </g>
          <g id="Group_10952" data-name="Group 10952" transform="translate(39.469 52.847)">
            <path id="Path_14687" data-name="Path 14687" d="M1552.113,2087.719l-6.5-40.679.692-.134,6.5,40.679Z" transform="translate(-1545.608 -2046.907)" fill="#ebebeb"/>
          </g>
          <path id="Path_14688" data-name="Path 14688" d="M1481.78,1945.005h-28.967c-15.774,0-23.159-37.944-22.109-44.471,1.552-9.64,18.49-9.64,23.144-2.7,3.1,4.629,7.758,21.025,10.517,31.44a12.475,12.475,0,0,0,11.449,9.241c5.137.253,10.6.678,11,1.348C1487.482,1940.966,1487.593,1945.005,1481.78,1945.005Z" transform="translate(-1430.607 -1892.925)" fill="#ebebeb"/>
          <path id="Path_14689" data-name="Path 14689" d="M1486.752,1950.97l-28.993-.578c-15.774,0-24.614-34.792-23.562-41.321.156-.973-3.18-.144-3.492,1.8-1.051,6.527,6.335,44.471,22.109,44.471h28.967C1487.6,1955.342,1487.53,1950.97,1486.752,1950.97Z" transform="translate(-1430.607 -1903.261)" fill="#ebebeb"/>
        </g>
        <g id="Group_10954" data-name="Group 10954" transform="translate(50.115 27.947)">
          <path id="Path_14690" data-name="Path 14690" d="M1723.563,1976.041h-4.633c3.313,1,2.356,37.743,0,63.9h4.633C1721.666,2015.228,1721.3,1977.18,1723.563,1976.041Z" transform="translate(-1670.091 -1975.462)" fill="#ebebeb"/>
          <path id="Path_14691" data-name="Path 14691" d="M1713.277,2151.836H1709.8l-5.651,4.884h14.78Z" transform="translate(-1660.382 -2090.924)" fill="#ebebeb"/>
          <path id="Path_14692" data-name="Path 14692" d="M1678.59,1978.1h-87.884l5.655,1.738h76.574Z" transform="translate(-1585.874 -1976.813)" fill="#ebebeb"/>
          <rect id="Rectangle_3395" data-name="Rectangle 3395" width="97.292" height="1.738" fill="#ebebeb"/>
        </g>
      </g>
      <g id="Group_10967" data-name="Group 10967" transform="translate(84.222 190.464)">
        <g id="Group_10960" data-name="Group 10960" transform="translate(103.658)">
          <path id="Path_14693" data-name="Path 14693" d="M940.208,1877.795H914.873s3.781,3.007,13.329,3.007S940.208,1877.795,940.208,1877.795Z" transform="translate(-906.602 -1840.562)" fill="#ebebeb"/>
          <g id="Group_10956" data-name="Group 10956" transform="translate(0 37.451)">
            <path id="Path_14694" data-name="Path 14694" d="M891.245,1909.522,903.2,1878.65l-.473-.22L890.772,1909.3Z" transform="translate(-890.772 -1878.43)" fill="#ebebeb"/>
          </g>
          <g id="Group_10957" data-name="Group 10957" transform="translate(29.683 37.344)">
            <path id="Path_14695" data-name="Path 14695" d="M985.358,1909.285l.494-.155-8.1-31.011-.493.155Z" transform="translate(-977.26 -1878.119)" fill="#ebebeb"/>
          </g>
          <g id="Group_10958" data-name="Group 10958" transform="translate(24.788 38.112)">
            <path id="Path_14696" data-name="Path 14696" d="M964.284,1910.689l.514-.027-1.286-30.307-.514.027Z" transform="translate(-962.998 -1880.356)" fill="#ebebeb"/>
          </g>
          <g id="Group_10959" data-name="Group 10959" transform="translate(13.738 38.641)">
            <path id="Path_14697" data-name="Path 14697" d="M931.306,1911.736l4.756-29.743-.506-.1-4.756,29.743Z" transform="translate(-930.8 -1881.896)" fill="#ebebeb"/>
          </g>
          <path id="Path_14698" data-name="Path 14698" d="M913.712,1807.388h21.18c11.534,0,16.934-27.744,16.165-32.516-1.134-7.048-13.519-7.048-16.922-1.974-2.27,3.384-5.673,15.374-7.69,22.988a9.121,9.121,0,0,1-8.371,6.756c-3.756.185-7.749.5-8.045.986C909.543,1804.434,909.462,1807.388,913.712,1807.388Z" transform="translate(-903.271 -1769.308)" fill="#ebebeb"/>
          <path id="Path_14699" data-name="Path 14699" d="M910.083,1811.749l21.2-.423c11.533,0,18-25.439,17.228-30.213-.114-.711,2.325-.1,2.553,1.316.768,4.772-4.632,32.516-16.165,32.516h-21.18C909.467,1814.945,909.515,1811.749,910.083,1811.749Z" transform="translate(-903.277 -1776.865)" fill="#ebebeb"/>
        </g>
        <g id="Group_10965" data-name="Group 10965">
          <path id="Path_14700" data-name="Path 14700" d="M630.268,1877.795H655.6s-3.781,3.007-13.329,3.007S630.268,1877.795,630.268,1877.795Z" transform="translate(-616.016 -1840.562)" fill="#ebebeb"/>
          <g id="Group_10961" data-name="Group 10961" transform="translate(35.431 37.451)">
            <path id="Path_14701" data-name="Path 14701" d="M703.933,1909.522l-11.955-30.871.473-.22,11.955,30.871Z" transform="translate(-691.978 -1878.43)" fill="#ebebeb"/>
          </g>
          <g id="Group_10962" data-name="Group 10962" transform="translate(9.584 37.344)">
            <path id="Path_14702" data-name="Path 14702" d="M617.161,1909.285l-.494-.155,8.1-31.011.494.155Z" transform="translate(-616.667 -1878.119)" fill="#ebebeb"/>
          </g>
          <g id="Group_10963" data-name="Group 10963" transform="translate(21.271 38.112)">
            <path id="Path_14703" data-name="Path 14703" d="M651.233,1910.689l-.514-.027,1.286-30.307.514.027Z" transform="translate(-650.719 -1880.356)" fill="#ebebeb"/>
          </g>
          <g id="Group_10964" data-name="Group 10964" transform="translate(28.859 38.641)">
            <path id="Path_14704" data-name="Path 14704" d="M677.585,1911.736l-4.756-29.743.506-.1,4.756,29.743Z" transform="translate(-672.829 -1881.896)" fill="#ebebeb"/>
          </g>
          <path id="Path_14705" data-name="Path 14705" d="M626.16,1807.388H604.98c-11.534,0-16.934-27.744-16.165-32.516,1.134-7.048,13.519-7.048,16.922-1.974,2.27,3.384,5.673,15.374,7.69,22.988a9.121,9.121,0,0,0,8.371,6.756c3.756.185,7.749.5,8.045.986C630.329,1804.434,630.409,1807.388,626.16,1807.388Z" transform="translate(-588.743 -1769.308)" fill="#ebebeb"/>
          <path id="Path_14706" data-name="Path 14706" d="M629.795,1811.749l-21.2-.423c-11.533,0-18-25.439-17.228-30.213.114-.711-2.325-.1-2.553,1.316-.768,4.772,4.632,32.516,16.165,32.516h21.18C630.411,1814.945,630.363,1811.749,629.795,1811.749Z" transform="translate(-588.743 -1776.865)" fill="#ebebeb"/>
        </g>
        <g id="Group_10966" data-name="Group 10966" transform="translate(36.643 20.434)">
          <path id="Path_14707" data-name="Path 14707" d="M802.944,1830.081h-3.387c2.423.733,1.722,27.6,0,46.72h3.387C801.557,1858.733,801.286,1830.913,802.944,1830.081Z" transform="translate(-763.847 -1829.658)" fill="#ebebeb"/>
          <path id="Path_14708" data-name="Path 14708" d="M795.424,1958.617H792.88l-4.131,3.571h10.807Z" transform="translate(-756.748 -1914.079)" fill="#ebebeb"/>
          <path id="Path_14709" data-name="Path 14709" d="M770.061,1831.584H705.8l4.135,1.271h55.989Z" transform="translate(-702.27 -1830.645)" fill="#ebebeb"/>
          <rect id="Rectangle_3396" data-name="Rectangle 3396" width="71.137" height="1.271" fill="#ebebeb"/>
        </g>
      </g>
      <g id="Group_11004" data-name="Group 11004" transform="translate(29.027 110.099)">
        <g id="Group_10976" data-name="Group 10976" transform="translate(0 22.226)">
          <g id="Group_10968" data-name="Group 10968">
            <rect id="Rectangle_3397" data-name="Rectangle 3397" width="48.767" height="1.742" transform="translate(0.445 0.371)" fill="#ebebeb"/>
            <path id="Path_14710" data-name="Path 14710" d="M418.463,1602.39H368.807v-2.483h49.656Zm-48.767-.74h47.878v-1H369.7Z" transform="translate(-368.807 -1599.907)" fill="#ebebeb"/>
          </g>
          <g id="Group_10969" data-name="Group 10969" transform="translate(0 26.276)">
            <rect id="Rectangle_3398" data-name="Rectangle 3398" width="48.767" height="1.742" transform="translate(0.445 0.37)" fill="#ebebeb"/>
            <path id="Path_14711" data-name="Path 14711" d="M418.463,1678.95H368.807v-2.483h49.656Zm-48.767-.741h47.878v-1H369.7Z" transform="translate(-368.807 -1676.467)" fill="#ebebeb"/>
          </g>
          <g id="Group_10970" data-name="Group 10970" transform="translate(0 52.552)">
            <rect id="Rectangle_3399" data-name="Rectangle 3399" width="48.767" height="1.742" transform="translate(0.445 0.37)" fill="#ebebeb"/>
            <path id="Path_14712" data-name="Path 14712" d="M418.463,1755.51H368.807v-2.483h49.656Zm-48.767-.741h47.878v-1H369.7Z" transform="translate(-368.807 -1753.027)" fill="#ebebeb"/>
          </g>
          <g id="Group_10975" data-name="Group 10975" transform="translate(0 0.581)">
            <g id="Group_10971" data-name="Group 10971" transform="translate(0 78.826)">
              <rect id="Rectangle_3400" data-name="Rectangle 3400" width="48.767" height="1.742" transform="translate(0.445 0.37)" fill="#ebebeb"/>
              <path id="Path_14713" data-name="Path 14713" d="M418.463,1833.76H368.807v-2.483h49.656Zm-48.767-.741h47.878v-1H369.7Z" transform="translate(-368.807 -1831.277)" fill="#ebebeb"/>
            </g>
            <g id="Group_10972" data-name="Group 10972" transform="translate(0 103.975)">
              <rect id="Rectangle_3401" data-name="Rectangle 3401" width="48.767" height="1.742" transform="translate(0.445 0.37)" fill="#ebebeb"/>
              <path id="Path_14714" data-name="Path 14714" d="M418.463,1907.035H368.807v-2.483h49.656Zm-48.767-.74h47.878v-1H369.7Z" transform="translate(-368.807 -1904.552)" fill="#ebebeb"/>
            </g>
            <g id="Group_10973" data-name="Group 10973">
              <rect id="Rectangle_3402" data-name="Rectangle 3402" width="2.612" height="126.4" transform="translate(0.445 0.37)" fill="#ebebeb"/>
              <path id="Path_14715" data-name="Path 14715" d="M372.308,1728.74h-3.5V1601.6h3.5ZM369.7,1728h1.724V1602.341H369.7Z" transform="translate(-368.807 -1601.6)" fill="#ebebeb"/>
            </g>
            <g id="Group_10974" data-name="Group 10974" transform="translate(46.155)">
              <rect id="Rectangle_3403" data-name="Rectangle 3403" width="2.613" height="126.4" transform="translate(0.444 0.37)" fill="#ebebeb"/>
              <path id="Path_14716" data-name="Path 14716" d="M506.789,1728.74h-3.5V1601.6h3.5Zm-2.613-.741H505.9V1602.341h-1.724Z" transform="translate(-503.288 -1601.6)" fill="#ebebeb"/>
            </g>
          </g>
        </g>
        <g id="Group_10987" data-name="Group 10987" transform="translate(8.741 28.42)">
          <g id="Group_10978" data-name="Group 10978">
            <g id="Group_10977" data-name="Group 10977">
              <rect id="Rectangle_3404" data-name="Rectangle 3404" width="5.109" height="20.082" transform="translate(0.444 0.37)" fill="#ebebeb"/>
              <path id="Path_14717" data-name="Path 14717" d="M400.275,1638.778h-6v-20.823h6Zm-5.109-.741h4.22V1618.7h-4.22Z" transform="translate(-394.277 -1617.955)" fill="#ebebeb"/>
            </g>
            <path id="Path_14718" data-name="Path 14718" d="M401.476,1629.743a1.712,1.712,0,1,1-1.683-1.4A1.563,1.563,0,0,1,401.476,1629.743Z" transform="translate(-396.794 -1624.776)" fill="#ebebeb"/>
          </g>
          <g id="Group_10980" data-name="Group 10980" transform="translate(6.005)">
            <g id="Group_10979" data-name="Group 10979">
              <rect id="Rectangle_3405" data-name="Rectangle 3405" width="5.109" height="20.082" transform="translate(0.445 0.37)" fill="#ebebeb"/>
              <path id="Path_14719" data-name="Path 14719" d="M417.771,1638.778h-6v-20.823h6Zm-5.109-.741h4.22V1618.7h-4.22Z" transform="translate(-411.773 -1617.955)" fill="#ebebeb"/>
            </g>
            <path id="Path_14720" data-name="Path 14720" d="M418.973,1629.743a1.712,1.712,0,1,1-1.683-1.4A1.563,1.563,0,0,1,418.973,1629.743Z" transform="translate(-414.29 -1624.776)" fill="#ebebeb"/>
          </g>
          <g id="Group_10982" data-name="Group 10982" transform="translate(12.01)">
            <g id="Group_10981" data-name="Group 10981">
              <rect id="Rectangle_3406" data-name="Rectangle 3406" width="5.109" height="20.082" transform="translate(0.444 0.37)" fill="#ebebeb"/>
              <path id="Path_14721" data-name="Path 14721" d="M435.268,1638.778h-6v-20.823h6Zm-5.109-.741h4.22V1618.7h-4.22Z" transform="translate(-429.271 -1617.955)" fill="#ebebeb"/>
            </g>
            <path id="Path_14722" data-name="Path 14722" d="M436.47,1629.743a1.712,1.712,0,1,1-1.684-1.4A1.563,1.563,0,0,1,436.47,1629.743Z" transform="translate(-431.788 -1624.776)" fill="#ebebeb"/>
          </g>
          <g id="Group_10984" data-name="Group 10984" transform="translate(18.015)">
            <g id="Group_10983" data-name="Group 10983">
              <rect id="Rectangle_3407" data-name="Rectangle 3407" width="5.109" height="20.082" transform="translate(0.445 0.37)" fill="#ebebeb"/>
              <path id="Path_14723" data-name="Path 14723" d="M452.765,1638.778h-6v-20.823h6Zm-5.109-.741h4.22V1618.7h-4.22Z" transform="translate(-446.767 -1617.955)" fill="#ebebeb"/>
            </g>
            <path id="Path_14724" data-name="Path 14724" d="M453.967,1629.743a1.712,1.712,0,1,1-1.683-1.4A1.563,1.563,0,0,1,453.967,1629.743Z" transform="translate(-449.284 -1624.776)" fill="#ebebeb"/>
          </g>
          <g id="Group_10986" data-name="Group 10986" transform="translate(24.02)">
            <g id="Group_10985" data-name="Group 10985">
              <rect id="Rectangle_3408" data-name="Rectangle 3408" width="5.109" height="20.082" transform="translate(0.444 0.37)" fill="#ebebeb"/>
              <path id="Path_14725" data-name="Path 14725" d="M470.263,1638.778h-6v-20.823h6Zm-5.109-.741h4.22V1618.7h-4.22Z" transform="translate(-464.265 -1617.955)" fill="#ebebeb"/>
            </g>
            <path id="Path_14726" data-name="Path 14726" d="M471.464,1629.743a1.712,1.712,0,1,1-1.684-1.4A1.563,1.563,0,0,1,471.464,1629.743Z" transform="translate(-466.782 -1624.776)" fill="#ebebeb"/>
          </g>
        </g>
        <path id="Path_14727" data-name="Path 14727" d="M395.809,1788.138a8.323,8.323,0,0,1,.8-3.689H390.48a8.326,8.326,0,0,1,.795,3.689c0,2.233-2.683,6.355-2.683,9.1s2.844,3.65,4.95,3.65,4.95-.9,4.95-3.65S395.809,1790.371,395.809,1788.138Z" transform="translate(-381.802 -1698.887)" fill="#ebebeb"/>
        <g id="Group_10989" data-name="Group 10989" transform="translate(25.993 57.128)">
          <g id="Group_10988" data-name="Group 10988" transform="translate(0.759)">
            <path id="Path_14728" data-name="Path 14728" d="M466,1711.576c1.651-3.23-2.02-3.171-1.74-4.019.525-1.592,2.5.138,3.307-.663s-1.981-3.3-.523-4.165.947,2.063,2.207,1.855.51-3.3,2-2.956c1.117.26-.21,2.194-.088,3.1s2.426-.413,2.466.877-2.747.724-3.075,1.705,3,1.183,1.831,2.012-3.363-.164-3.942.7S465.3,1712.948,466,1711.576Z" transform="translate(-458.239 -1701.601)" fill="#ebebeb"/>
            <path id="Path_14729" data-name="Path 14729" d="M453.493,1719.263c-1.552-3.264-4.112-1.07-4.628-1.836-.97-1.439,1.9-1.37,1.791-2.411s-4.193-1.184-3.887-2.654,2.414.911,3.134.025-2.424-2.646-1.076-3.271c1.013-.47,1.7,1.682,2.551,2.252s1.376-1.716,2.492-.823-1.341,2.125-.747,3.015,3.128-.916,3,.357-2.529,1.856-2.212,2.808S454.152,1720.65,453.493,1719.263Z" transform="translate(-446.752 -1706.493)" fill="#ebebeb"/>
          </g>
          <path id="Path_14730" data-name="Path 14730" d="M455.993,1725.625h-8.476s-2.975,2.129-2.975,4.645,1.854,5.129,7.213,5.129,7.213-2.613,7.213-5.129S455.993,1725.625,455.993,1725.625Z" transform="translate(-444.542 -1717.38)" fill="#ebebeb"/>
        </g>
        <g id="Group_10990" data-name="Group 10990" transform="translate(28.072 90.535)">
          <rect id="Rectangle_3409" data-name="Rectangle 3409" width="7.823" height="8.855" transform="translate(2.42 2.613)" fill="#ebebeb"/>
          <ellipse id="Ellipse_556" data-name="Ellipse 556" cx="6.174" cy="2.613" rx="6.174" ry="2.613" fill="#ebebeb"/>
        </g>
        <g id="Group_10991" data-name="Group 10991" transform="translate(22.623 14.094)">
          <rect id="Rectangle_3410" data-name="Rectangle 3410" width="5.8" height="6.566" transform="translate(1.794 1.937)" fill="#ebebeb"/>
          <path id="Path_14731" data-name="Path 14731" d="M443.88,1578.149c0,1.07-2.049,1.938-4.578,1.938s-4.577-.868-4.577-1.937,2.049-1.937,4.577-1.937S443.88,1577.079,443.88,1578.149Z" transform="translate(-434.725 -1576.212)" fill="#ebebeb"/>
        </g>
        <g id="Group_10993" data-name="Group 10993" transform="translate(3.231)">
          <g id="Group_10992" data-name="Group 10992">
            <path id="Path_14732" data-name="Path 14732" d="M407.548,1556.224s-2.007-5.807,6.876-12.339c0,0-7.605,6.968-5.109,12.339Z" transform="translate(-397.355 -1540.886)" fill="#ebebeb"/>
            <path id="Path_14733" data-name="Path 14733" d="M404.572,1551.8s-4.6-6.468,3.638-16.656c0,0-6.537,10.379-1.51,16.195Z" transform="translate(-394.687 -1535.147)" fill="#ebebeb"/>
            <path id="Path_14734" data-name="Path 14734" d="M389.356,1556.224s2.006-5.807-6.876-12.339c0,0,7.605,6.968,5.109,12.339Z" transform="translate(-381.018 -1540.886)" fill="#ebebeb"/>
            <path id="Path_14735" data-name="Path 14735" d="M397.461,1553.3s3.7-5.2-2.927-13.385c0,0,5.255,8.34,1.217,13.014Z" transform="translate(-388.936 -1538.277)" fill="#ebebeb"/>
            <path id="Path_14736" data-name="Path 14736" d="M406.716,1564.165s-1.734-5.867,7.446-12.107c0,0-7.925,6.717-5.68,12.165Z" transform="translate(-396.851 -1546.254)" fill="#ebebeb"/>
            <path id="Path_14737" data-name="Path 14737" d="M385.667,1562.09s1.734-5.868-7.446-12.107c0,0,7.925,6.717,5.681,12.165Z" transform="translate(-378.221 -1544.891)" fill="#ebebeb"/>
          </g>
          <path id="Path_14738" data-name="Path 14738" d="M391.523,1573.916h-6.005l2.756,9.291h6.5l2.756-9.291Z" transform="translate(-383.013 -1560.61)" fill="#ebebeb"/>
        </g>
        <g id="Group_11003" data-name="Group 11003" transform="translate(4.66 67.889)">
          <g id="Group_10998" data-name="Group 10998">
            <g id="Group_10994" data-name="Group 10994" transform="translate(0.444 4.915)">
              <rect id="Rectangle_3411" data-name="Rectangle 3411" width="2.453" height="18.38" transform="translate(0 2.453) rotate(-90)" fill="#ebebeb"/>
            </g>
            <g id="Group_10996" data-name="Group 10996" transform="translate(0 2.083)">
              <g id="Group_10995" data-name="Group 10995">
                <rect id="Rectangle_3412" data-name="Rectangle 3412" width="2.453" height="18.38" transform="translate(0.444 2.823) rotate(-90)" fill="#ebebeb"/>
                <path id="Path_14739" data-name="Path 14739" d="M401.654,1742.217H382.385v-3.194h19.269Zm-18.38-.74h17.492v-1.712H383.274Z" transform="translate(-382.385 -1739.023)" fill="#ebebeb"/>
              </g>
            </g>
            <g id="Group_10997" data-name="Group 10997" transform="translate(0.444)">
              <rect id="Rectangle_3413" data-name="Rectangle 3413" width="2.453" height="18.38" transform="translate(0 2.453) rotate(-90)" fill="#ebebeb"/>
            </g>
          </g>
          <g id="Group_10999" data-name="Group 10999" transform="translate(11.269 0)">
            <rect id="Rectangle_3414" data-name="Rectangle 3414" width="0.132" height="2.453" fill="#ebebeb"/>
          </g>
          <g id="Group_11000" data-name="Group 11000" transform="translate(12.75 0)">
            <rect id="Rectangle_3415" data-name="Rectangle 3415" width="0.132" height="2.453" fill="#ebebeb"/>
          </g>
          <g id="Group_11001" data-name="Group 11001" transform="translate(14.23 0)">
            <rect id="Rectangle_3416" data-name="Rectangle 3416" width="0.132" height="2.453" fill="#ebebeb"/>
          </g>
          <g id="Group_11002" data-name="Group 11002" transform="translate(15.711 0)">
            <rect id="Rectangle_3417" data-name="Rectangle 3417" width="0.132" height="2.453" fill="#ebebeb"/>
          </g>
          <rect id="Rectangle_3418" data-name="Rectangle 3418" width="8.65" height="0.404" transform="translate(9.275 5.333)" fill="#ebebeb"/>
          <rect id="Rectangle_3419" data-name="Rectangle 3419" width="8.65" height="0.404" transform="translate(9.275 5.94)" fill="#ebebeb"/>
          <rect id="Rectangle_3420" data-name="Rectangle 3420" width="8.65" height="0.404" transform="translate(9.275 6.546)" fill="#ebebeb"/>
        </g>
      </g>
      <g id="Group_11041" data-name="Group 11041" transform="translate(404.232 97.642)">
        <g id="Group_11013" data-name="Group 11013" transform="translate(0 22.226)">
          <g id="Group_11005" data-name="Group 11005">
            <rect id="Rectangle_3421" data-name="Rectangle 3421" width="48.767" height="1.742" transform="translate(0.444 0.37)" fill="#ebebeb"/>
            <path id="Path_14740" data-name="Path 14740" d="M1797.778,1566.094h-49.656v-2.483h49.656Zm-48.767-.741h47.878v-1h-47.878Z" transform="translate(-1748.123 -1563.611)" fill="#ebebeb"/>
          </g>
          <g id="Group_11006" data-name="Group 11006" transform="translate(0 26.276)">
            <rect id="Rectangle_3422" data-name="Rectangle 3422" width="48.767" height="1.742" transform="translate(0.444 0.37)" fill="#ebebeb"/>
            <path id="Path_14741" data-name="Path 14741" d="M1797.778,1642.654h-49.656v-2.483h49.656Zm-48.767-.741h47.878v-1h-47.878Z" transform="translate(-1748.123 -1640.171)" fill="#ebebeb"/>
          </g>
          <g id="Group_11007" data-name="Group 11007" transform="translate(0 52.551)">
            <rect id="Rectangle_3423" data-name="Rectangle 3423" width="48.767" height="1.742" transform="translate(0.444 0.37)" fill="#ebebeb"/>
            <path id="Path_14742" data-name="Path 14742" d="M1797.778,1719.213h-49.656v-2.483h49.656Zm-48.767-.741h47.878v-1h-47.878Z" transform="translate(-1748.123 -1716.73)" fill="#ebebeb"/>
          </g>
          <g id="Group_11012" data-name="Group 11012" transform="translate(0 0.581)">
            <g id="Group_11008" data-name="Group 11008" transform="translate(0 78.827)">
              <rect id="Rectangle_3424" data-name="Rectangle 3424" width="48.767" height="1.742" transform="translate(0.444 0.37)" fill="#ebebeb"/>
              <path id="Path_14743" data-name="Path 14743" d="M1797.778,1797.464h-49.656v-2.483h49.656Zm-48.767-.741h47.878v-1h-47.878Z" transform="translate(-1748.123 -1794.981)" fill="#ebebeb"/>
            </g>
            <g id="Group_11009" data-name="Group 11009" transform="translate(0 103.975)">
              <rect id="Rectangle_3425" data-name="Rectangle 3425" width="48.767" height="1.742" transform="translate(0.444 0.37)" fill="#ebebeb"/>
              <path id="Path_14744" data-name="Path 14744" d="M1797.778,1870.739h-49.656v-2.483h49.656Zm-48.767-.741h47.878v-1h-47.878Z" transform="translate(-1748.123 -1868.256)" fill="#ebebeb"/>
            </g>
            <g id="Group_11010" data-name="Group 11010">
              <rect id="Rectangle_3426" data-name="Rectangle 3426" width="2.612" height="126.4" transform="translate(0.444 0.37)" fill="#ebebeb"/>
              <path id="Path_14745" data-name="Path 14745" d="M1751.624,1692.443h-3.5V1565.3h3.5Zm-2.613-.741h1.724V1566.044h-1.724Z" transform="translate(-1748.123 -1565.303)" fill="#ebebeb"/>
            </g>
            <g id="Group_11011" data-name="Group 11011" transform="translate(46.154)">
              <rect id="Rectangle_3427" data-name="Rectangle 3427" width="2.613" height="126.4" transform="translate(0.444 0.37)" fill="#ebebeb"/>
              <path id="Path_14746" data-name="Path 14746" d="M1886.1,1692.443h-3.5V1565.3h3.5Zm-2.612-.741h1.723V1566.044h-1.723Z" transform="translate(-1882.603 -1565.303)" fill="#ebebeb"/>
            </g>
          </g>
        </g>
        <g id="Group_11024" data-name="Group 11024" transform="translate(8.741 28.42)">
          <g id="Group_11015" data-name="Group 11015">
            <g id="Group_11014" data-name="Group 11014">
              <rect id="Rectangle_3428" data-name="Rectangle 3428" width="5.109" height="20.082" transform="translate(0.444 0.371)" fill="#ebebeb"/>
              <path id="Path_14747" data-name="Path 14747" d="M1779.589,1602.481h-6v-20.823h6Zm-5.109-.741h4.22V1582.4h-4.22Z" transform="translate(-1773.592 -1581.658)" fill="#ebebeb"/>
            </g>
            <path id="Path_14748" data-name="Path 14748" d="M1780.791,1593.446a1.712,1.712,0,1,1-1.683-1.4A1.563,1.563,0,0,1,1780.791,1593.446Z" transform="translate(-1776.109 -1588.479)" fill="#ebebeb"/>
          </g>
          <g id="Group_11017" data-name="Group 11017" transform="translate(6.005)">
            <g id="Group_11016" data-name="Group 11016">
              <rect id="Rectangle_3429" data-name="Rectangle 3429" width="5.109" height="20.082" transform="translate(0.444 0.371)" fill="#ebebeb"/>
              <path id="Path_14749" data-name="Path 14749" d="M1797.087,1602.481h-6v-20.823h6Zm-5.109-.741h4.22V1582.4h-4.22Z" transform="translate(-1791.089 -1581.658)" fill="#ebebeb"/>
            </g>
            <path id="Path_14750" data-name="Path 14750" d="M1798.288,1593.446a1.712,1.712,0,1,1-1.684-1.4A1.563,1.563,0,0,1,1798.288,1593.446Z" transform="translate(-1793.606 -1588.479)" fill="#ebebeb"/>
          </g>
          <g id="Group_11019" data-name="Group 11019" transform="translate(12.01)">
            <g id="Group_11018" data-name="Group 11018">
              <rect id="Rectangle_3430" data-name="Rectangle 3430" width="5.109" height="20.082" transform="translate(0.444 0.371)" fill="#ebebeb"/>
              <path id="Path_14751" data-name="Path 14751" d="M1814.583,1602.481h-6v-20.823h6Zm-5.108-.741h4.219V1582.4h-4.219Z" transform="translate(-1808.586 -1581.658)" fill="#ebebeb"/>
            </g>
            <path id="Path_14752" data-name="Path 14752" d="M1815.785,1593.446a1.712,1.712,0,1,1-1.683-1.4A1.563,1.563,0,0,1,1815.785,1593.446Z" transform="translate(-1811.103 -1588.479)" fill="#ebebeb"/>
          </g>
          <g id="Group_11021" data-name="Group 11021" transform="translate(18.015)">
            <g id="Group_11020" data-name="Group 11020">
              <rect id="Rectangle_3431" data-name="Rectangle 3431" width="5.109" height="20.082" transform="translate(0.445 0.371)" fill="#ebebeb"/>
              <path id="Path_14753" data-name="Path 14753" d="M1832.08,1602.481h-6v-20.823h6Zm-5.109-.741h4.22V1582.4h-4.22Z" transform="translate(-1826.082 -1581.658)" fill="#ebebeb"/>
            </g>
            <path id="Path_14754" data-name="Path 14754" d="M1833.282,1593.446a1.711,1.711,0,1,1-1.683-1.4A1.563,1.563,0,0,1,1833.282,1593.446Z" transform="translate(-1828.6 -1588.479)" fill="#ebebeb"/>
          </g>
          <g id="Group_11023" data-name="Group 11023" transform="translate(24.02)">
            <g id="Group_11022" data-name="Group 11022">
              <rect id="Rectangle_3432" data-name="Rectangle 3432" width="5.109" height="20.082" transform="translate(0.444 0.371)" fill="#ebebeb"/>
              <path id="Path_14755" data-name="Path 14755" d="M1849.578,1602.481h-6v-20.823h6Zm-5.109-.741h4.22V1582.4h-4.22Z" transform="translate(-1843.58 -1581.658)" fill="#ebebeb"/>
            </g>
            <path id="Path_14756" data-name="Path 14756" d="M1850.779,1593.446a1.712,1.712,0,1,1-1.684-1.4A1.563,1.563,0,0,1,1850.779,1593.446Z" transform="translate(-1846.097 -1588.479)" fill="#ebebeb"/>
          </g>
        </g>
        <path id="Path_14757" data-name="Path 14757" d="M1775.124,1751.842a8.327,8.327,0,0,1,.8-3.69H1769.8a8.325,8.325,0,0,1,.8,3.69c0,2.233-2.684,6.355-2.684,9.1s2.844,3.65,4.95,3.65,4.95-.9,4.95-3.65S1775.124,1754.074,1775.124,1751.842Z" transform="translate(-1761.117 -1662.591)" fill="#ebebeb"/>
        <g id="Group_11026" data-name="Group 11026" transform="translate(25.992 57.128)">
          <g id="Group_11025" data-name="Group 11025" transform="translate(0.759)">
            <path id="Path_14758" data-name="Path 14758" d="M1845.312,1675.28c1.652-3.23-2.02-3.171-1.74-4.019.525-1.592,2.5.138,3.307-.664s-1.981-3.3-.523-4.165.947,2.063,2.207,1.855.51-3.3,2-2.956c1.117.26-.21,2.193-.088,3.1s2.426-.413,2.466.876-2.746.724-3.075,1.705,3,1.183,1.831,2.012-3.364-.164-3.942.7S1844.61,1676.652,1845.312,1675.28Z" transform="translate(-1837.554 -1665.305)" fill="#ebebeb"/>
            <path id="Path_14759" data-name="Path 14759" d="M1832.808,1682.967c-1.552-3.264-4.112-1.069-4.628-1.836-.97-1.439,1.9-1.37,1.791-2.411s-4.192-1.183-3.887-2.653,2.414.911,3.134.024-2.424-2.645-1.076-3.271c1.013-.47,1.7,1.682,2.551,2.252s1.376-1.716,2.492-.823-1.341,2.125-.747,3.015,3.129-.916,3,.357-2.529,1.856-2.212,2.808S1833.468,1684.353,1832.808,1682.967Z" transform="translate(-1826.067 -1670.197)" fill="#ebebeb"/>
          </g>
          <path id="Path_14760" data-name="Path 14760" d="M1835.308,1689.328h-8.476s-2.975,2.129-2.975,4.646,1.854,5.129,7.213,5.129,7.214-2.613,7.214-5.129S1835.308,1689.328,1835.308,1689.328Z" transform="translate(-1823.857 -1681.083)" fill="#ebebeb"/>
        </g>
        <g id="Group_11027" data-name="Group 11027" transform="translate(28.071 90.535)">
          <rect id="Rectangle_3433" data-name="Rectangle 3433" width="7.823" height="8.855" transform="translate(2.42 2.613)" fill="#ebebeb"/>
          <ellipse id="Ellipse_557" data-name="Ellipse 557" cx="6.174" cy="2.613" rx="6.174" ry="2.613" fill="#ebebeb"/>
        </g>
        <g id="Group_11028" data-name="Group 11028" transform="translate(22.623 14.093)">
          <rect id="Rectangle_3434" data-name="Rectangle 3434" width="5.8" height="6.566" transform="translate(1.794 1.937)" fill="#ebebeb"/>
          <path id="Path_14761" data-name="Path 14761" d="M1823.2,1541.852c0,1.07-2.049,1.937-4.577,1.937s-4.577-.867-4.577-1.937,2.049-1.937,4.577-1.937S1823.2,1540.783,1823.2,1541.852Z" transform="translate(-1814.041 -1539.915)" fill="#ebebeb"/>
        </g>
        <g id="Group_11030" data-name="Group 11030" transform="translate(3.231)">
          <g id="Group_11029" data-name="Group 11029">
            <path id="Path_14762" data-name="Path 14762" d="M1786.863,1519.927s-2.006-5.807,6.876-12.34c0,0-7.605,6.968-5.109,12.34Z" transform="translate(-1776.671 -1504.589)" fill="#ebebeb"/>
            <path id="Path_14763" data-name="Path 14763" d="M1783.887,1515.507s-4.6-6.468,3.638-16.656c0,0-6.537,10.378-1.51,16.194Z" transform="translate(-1774.002 -1498.851)" fill="#ebebeb"/>
            <path id="Path_14764" data-name="Path 14764" d="M1768.672,1519.927s2.007-5.807-6.876-12.34c0,0,7.6,6.968,5.108,12.34Z" transform="translate(-1760.334 -1504.589)" fill="#ebebeb"/>
            <path id="Path_14765" data-name="Path 14765" d="M1776.777,1517s3.7-5.2-2.927-13.385c0,0,5.255,8.339,1.216,13.014Z" transform="translate(-1768.252 -1501.981)" fill="#ebebeb"/>
            <path id="Path_14766" data-name="Path 14766" d="M1786.031,1527.868s-1.734-5.867,7.446-12.107c0,0-7.925,6.717-5.68,12.165Z" transform="translate(-1776.166 -1509.957)" fill="#ebebeb"/>
            <path id="Path_14767" data-name="Path 14767" d="M1764.983,1525.794s1.735-5.867-7.446-12.107c0,0,7.924,6.716,5.68,12.164Z" transform="translate(-1757.537 -1508.595)" fill="#ebebeb"/>
          </g>
          <path id="Path_14768" data-name="Path 14768" d="M1770.838,1537.62h-6.005l2.756,9.291h6.5l2.756-9.291Z" transform="translate(-1762.329 -1524.314)" fill="#ebebeb"/>
        </g>
        <g id="Group_11040" data-name="Group 11040" transform="translate(4.66 67.888)">
          <g id="Group_11035" data-name="Group 11035">
            <g id="Group_11031" data-name="Group 11031" transform="translate(0.445 4.915)">
              <rect id="Rectangle_3435" data-name="Rectangle 3435" width="2.453" height="18.38" transform="translate(0 2.453) rotate(-90)" fill="#ebebeb"/>
            </g>
            <g id="Group_11033" data-name="Group 11033" transform="translate(0 2.083)">
              <g id="Group_11032" data-name="Group 11032">
                <rect id="Rectangle_3436" data-name="Rectangle 3436" width="2.453" height="18.38" transform="translate(0.445 2.823) rotate(-90)" fill="#ebebeb"/>
                <path id="Path_14769" data-name="Path 14769" d="M1780.969,1705.921H1761.7v-3.194h19.27Zm-18.381-.741h17.492v-1.712h-17.492Z" transform="translate(-1761.7 -1702.727)" fill="#ebebeb"/>
              </g>
            </g>
            <g id="Group_11034" data-name="Group 11034" transform="translate(0.445)">
              <rect id="Rectangle_3437" data-name="Rectangle 3437" width="2.453" height="18.38" transform="translate(0 2.453) rotate(-90)" fill="#ebebeb"/>
            </g>
          </g>
          <g id="Group_11036" data-name="Group 11036" transform="translate(11.27 0)">
            <rect id="Rectangle_3438" data-name="Rectangle 3438" width="0.132" height="2.453" fill="#ebebeb"/>
          </g>
          <g id="Group_11037" data-name="Group 11037" transform="translate(12.75 0)">
            <rect id="Rectangle_3439" data-name="Rectangle 3439" width="0.132" height="2.453" fill="#ebebeb"/>
          </g>
          <g id="Group_11038" data-name="Group 11038" transform="translate(14.23 0)">
            <rect id="Rectangle_3440" data-name="Rectangle 3440" width="0.132" height="2.453" fill="#ebebeb"/>
          </g>
          <g id="Group_11039" data-name="Group 11039" transform="translate(15.711 0)">
            <rect id="Rectangle_3441" data-name="Rectangle 3441" width="0.132" height="2.453" fill="#ebebeb"/>
          </g>
          <rect id="Rectangle_3442" data-name="Rectangle 3442" width="8.65" height="0.404" transform="translate(9.275 5.333)" fill="#ebebeb"/>
          <rect id="Rectangle_3443" data-name="Rectangle 3443" width="8.65" height="0.404" transform="translate(9.275 5.94)" fill="#ebebeb"/>
          <rect id="Rectangle_3444" data-name="Rectangle 3444" width="8.65" height="0.404" transform="translate(9.275 6.546)" fill="#ebebeb"/>
        </g>
      </g>
      <g id="Group_11049" data-name="Group 11049" transform="translate(477.99 182.439)">
        <g id="Group_11048" data-name="Group 11048">
          <g id="Group_11042" data-name="Group 11042" transform="translate(9.871)">
            <path id="Path_14770" data-name="Path 14770" d="M1976.633,1769.879s-.817-5.5-1.187-6.708c-.478-1.562-.712-3.889.6-5.259s1.513-4.592,1.513-5.085.493-7.888,5.916-6.793c0,0,2.246.548,1.151,4.492,0,0-1.151,2.356.3,3.834a6.006,6.006,0,0,1,0,8.162c-2.711,3.287-1.939,4.491-1.506,5.752,1.976,5.753-2.228,11.036-2.684,12.445s-1,3.723-.546,5.054l-1.595.03Z" transform="translate(-1975.068 -1745.924)" fill="#ebebeb"/>
          </g>
          <g id="Group_11043" data-name="Group 11043" transform="translate(13.814 5.567)">
            <path id="Path_14771" data-name="Path 14771" d="M1986.991,1796.669a.237.237,0,0,0,.049-.005.241.241,0,0,0,.188-.284c-.61-2.968.46-8.257.471-8.309.59-2.251.761-5.128-.217-12.461a28.155,28.155,0,0,1,.3-9.621,16.133,16.133,0,0,1,1.114-3.5.241.241,0,0,0-.43-.218,16.208,16.208,0,0,0-1.151,3.59,28.628,28.628,0,0,0-.309,9.807c.964,7.231.787,10.142.225,12.288-.048.234-1.1,5.451-.474,8.516A.241.241,0,0,0,1986.991,1796.669Z" transform="translate(-1986.556 -1762.144)" fill="#fff"/>
          </g>
          <g id="Group_11044" data-name="Group 11044" transform="translate(15.123 21.127)">
            <path id="Path_14772" data-name="Path 14772" d="M1992.257,1826.35s0-1.3,2.661-2.524a4.445,4.445,0,0,0,2.661-3.206c.682-2.593,2.593-1.91,3.821-1.16s4.018,0,4.021-3.888a2.581,2.581,0,0,1,.951-3.138c1.781-1.092,2.463-4.991-1.357-4.952s-7.42,1.926-11.12,7.408c-5.143,7.618-3.141,11.461-3.141,11.461Z" transform="translate(-1990.37 -1807.481)" fill="#ebebeb"/>
          </g>
          <g id="Group_11045" data-name="Group 11045" transform="translate(15.577 23.859)">
            <path id="Path_14773" data-name="Path 14773" d="M1992.106,1831.821a.241.241,0,0,0,.229-.315,5.825,5.825,0,0,1-.015-2.544.251.251,0,0,0,.019-.049c2.063-7.787,12.237-12.962,12.339-13.013a.241.241,0,0,0-.216-.431c-.1.052-10.451,5.316-12.583,13.3a5.7,5.7,0,0,0,0,2.888A.236.236,0,0,0,1992.106,1831.821Z" transform="translate(-1991.694 -1815.443)" fill="#fff"/>
          </g>
          <g id="Group_11046" data-name="Group 11046" transform="translate(0 9.579)">
            <path id="Path_14774" data-name="Path 14774" d="M1957.714,1804.136a4.746,4.746,0,0,1-2.246-4.766,3.336,3.336,0,0,0-2.958-4c-.657-.11-4.93-1.862-4.273-8.272,0,0,.219-4.108-.548-5.587s-2.684-5.916,0-7.286,4.547,1.1,5.533,3.615a13.978,13.978,0,0,0,1.424,3.616c.657.712,5.423,4.875,5.04,13.531l-.933,9.148Z" transform="translate(-1946.307 -1773.834)" fill="#ebebeb"/>
          </g>
          <g id="Group_11047" data-name="Group 11047" transform="translate(3.825 14.618)">
            <path id="Path_14775" data-name="Path 14775" d="M1965.473,1814.02a.241.241,0,0,0,.241-.232c.277-7.368-2.918-16.977-4.751-19.753a49.5,49.5,0,0,1-3.051-5.38.241.241,0,1,0-.436.205,49.935,49.935,0,0,0,3.084,5.44c1.8,2.731,4.945,12.2,4.671,19.47a.241.241,0,0,0,.232.25Z" transform="translate(-1957.453 -1788.516)" fill="#fff"/>
          </g>
        </g>
        <path id="Path_14776" data-name="Path 14776" d="M1977.051,1875.744h-10.33l-2.5-14.155h15.331Z" transform="translate(-1958.073 -1821.893)" fill="#ebebeb"/>
      </g>
      <g id="Group_11057" data-name="Group 11057" transform="translate(385.2 190.481)">
        <g id="Group_11056" data-name="Group 11056">
          <g id="Group_11050" data-name="Group 11050" transform="translate(8.397)">
            <path id="Path_14777" data-name="Path 14777" d="M1636.8,1789.734s-.695-4.677-1.01-5.706c-.407-1.329-.606-3.309.513-4.473s1.287-3.907,1.287-4.326.419-6.71,5.032-5.778c0,0,1.911.466.979,3.821,0,0-.979,2,.256,3.262a5.109,5.109,0,0,1,0,6.944c-2.306,2.8-1.65,3.819-1.281,4.893,1.68,4.894-1.9,9.387-2.283,10.587s-.854,3.167-.465,4.3l-1.357.025Z" transform="translate(-1635.468 -1769.357)" fill="#ebebeb"/>
          </g>
          <g id="Group_11051" data-name="Group 11051" transform="translate(11.751 4.735)">
            <path id="Path_14778" data-name="Path 14778" d="M1645.612,1812.524a.2.2,0,0,0,.2-.246c-.519-2.525.391-7.024.4-7.069.5-1.915.647-4.362-.184-10.6a23.95,23.95,0,0,1,.253-8.184,13.689,13.689,0,0,1,.948-2.973.205.205,0,1,0-.366-.185,13.755,13.755,0,0,0-.979,3.053,24.354,24.354,0,0,0-.263,8.343c.82,6.151.669,8.627.191,10.453-.041.2-.939,4.637-.4,7.244A.205.205,0,0,0,1645.612,1812.524Z" transform="translate(-1645.241 -1783.154)" fill="#fff"/>
          </g>
          <g id="Group_11052" data-name="Group 11052" transform="translate(12.864 17.972)">
            <path id="Path_14779" data-name="Path 14779" d="M1650.091,1837.773s0-1.1,2.263-2.147a3.783,3.783,0,0,0,2.264-2.728c.58-2.205,2.2-1.625,3.25-.986s3.418,0,3.421-3.308a2.2,2.2,0,0,1,.809-2.669c1.515-.929,2.1-4.245-1.155-4.212s-6.312,1.639-9.46,6.3c-4.375,6.48-2.672,9.75-2.672,9.75Z" transform="translate(-1648.485 -1821.721)" fill="#ebebeb"/>
          </g>
          <g id="Group_11053" data-name="Group 11053" transform="translate(13.251 20.296)">
            <path id="Path_14780" data-name="Path 14780" d="M1649.962,1842.426a.2.2,0,0,0,.063-.01.209.209,0,0,0,.132-.258,4.958,4.958,0,0,1-.013-2.165.228.228,0,0,0,.016-.041c1.755-6.624,10.409-11.026,10.5-11.07a.2.2,0,1,0-.184-.366c-.089.045-8.89,4.522-10.7,11.312a4.847,4.847,0,0,0,0,2.456A.2.2,0,0,0,1649.962,1842.426Z" transform="translate(-1649.612 -1828.493)" fill="#fff"/>
          </g>
          <g id="Group_11054" data-name="Group 11054" transform="translate(0 8.149)">
            <path id="Path_14781" data-name="Path 14781" d="M1620.706,1818.876a4.037,4.037,0,0,1-1.91-4.054,2.838,2.838,0,0,0-2.516-3.4c-.559-.094-4.194-1.584-3.635-7.036,0,0,.187-3.495-.466-4.753s-2.283-5.033,0-6.2,3.868.931,4.707,3.075a11.9,11.9,0,0,0,1.211,3.075,14.414,14.414,0,0,1,4.287,11.51l-.793,7.782Z" transform="translate(-1611.003 -1793.099)" fill="#ebebeb"/>
          </g>
          <g id="Group_11055" data-name="Group 11055" transform="translate(3.254 12.435)">
            <path id="Path_14782" data-name="Path 14782" d="M1627.307,1827.284a.206.206,0,0,0,.2-.2c.236-6.268-2.483-14.441-4.042-16.8a42.019,42.019,0,0,1-2.595-4.577.205.205,0,0,0-.371.175,42.451,42.451,0,0,0,2.624,4.627c1.533,2.323,4.206,10.375,3.973,16.562a.205.205,0,0,0,.2.212Z" transform="translate(-1620.484 -1805.589)" fill="#fff"/>
          </g>
        </g>
        <path id="Path_14783" data-name="Path 14783" d="M1637.155,1879.79h-8.787l-2.127-12.041h13.042Z" transform="translate(-1621.011 -1833.98)" fill="#ebebeb"/>
      </g>
    </g>
    <g id="Group_11094" data-name="Group 11094" transform="translate(140.457 1277.013)">
      <g id="Group_11093" data-name="Group 11093" transform="translate(-26 -2)">
        <path id="Path_14842" data-name="Path 14842" d="M866.517,1384.17c11.843,23.841,2.413,49.495-23.076,59.427-27.074,10.551-62.239-.546-79.607-24.8-13.649,13.231-34.464,23.409-58.337,26.977-44.007,6.578-81.731-11.787-84.258-41.02a38.632,38.632,0,0,1,2.581-17.233c-37.212,11.046-59.09-1.15-68.379-34.189-6.854-24.379,12.671-67.14,66.379-75.168,6.848-1.023,13.559-1.681,20.063-2-.143-.808-2.066-5.4.714-13.377,12.082-34.693,54.706-40.021,99.2-32.7,37.465,6.167,56.187,28.6,64.876,48.888,0,0,106.461-38.433,125.629,41.75C932.3,1320.731,953.652,1391.426,866.517,1384.17Z" transform="translate(-554.123 -1227.234)" fill="#fff" stroke="#ebebeb" stroke-miterlimit="10" stroke-width="1"/>
        <ellipse id="Ellipse_558" data-name="Ellipse 558" cx="11.036" cy="11.948" rx="11.036" ry="11.948" transform="translate(71.003 193.1) rotate(-2.698)" fill="#fff" stroke="#ebebeb" stroke-miterlimit="10" stroke-width="1"/>
        <ellipse id="Ellipse_559" data-name="Ellipse 559" cx="6.54" cy="7.08" rx="6.54" ry="7.08" transform="translate(66.019 211.012) rotate(-2.698)" fill="#fff" stroke="#ebebeb" stroke-miterlimit="10" stroke-width="1"/>
        <ellipse id="Ellipse_560" data-name="Ellipse 560" cx="5.594" cy="6.056" rx="5.594" ry="6.056" transform="translate(56.019 219.635) rotate(-2.698)" fill="#fff" stroke="#ebebeb" stroke-miterlimit="10" stroke-width="1"/>
      </g>
    </g>
    <g id="Group_11095" data-name="Group 11095" transform="translate(31.354 1273.687)">
      <rect id="Rectangle_3446" data-name="Rectangle 3446" width="65.597" height="38.699" transform="translate(65.597 38.699) rotate(-180)" fill="#ebebeb"/>
    </g>
    <g id="Group_11076" data-name="Group 11076" transform="translate(61.596 1417.58)">
      <g id="Group_11059" data-name="Group 11059" transform="translate(35.042 84.749)">
        <path id="Path_14784" data-name="Path 14784" d="M547.719,1895.694l8.469,1.593c7.447,26.6,5.618,58.316,22.26,112.631,0,0-1.59.693-1.819,0-13.846-42-21.419-74.927-24.106-79.452C546.554,1920.413,539.089,1911.866,547.719,1895.694Z" transform="translate(-520.73 -1891.591)" fill="#ffd8a3"/>
        <path id="Path_14785" data-name="Path 14785" d="M502.1,1890.838c-10.422,19.438-2.618,17.931-2.28,27.985.977,28.991-17.507,43.738-23.245,88.082,0,0,2.272-.116,2.337-.757,3.565-35.377,34.913-69.226,36.2-102.072.083-2.118.176-8.444-2.294-10.709C509.048,1889.905,502.1,1890.838,502.1,1890.838Z" transform="translate(-476.579 -1888.326)" fill="#f7c371"/>
        <path id="Path_14786" data-name="Path 14786" d="M483.535,2225.589h-6.811s-.329-1.934,1.19-2.243C478.87,2223.15,480.563,2223.6,483.535,2225.589Z" transform="translate(-476.654 -2106.763)" fill="#ffe200"/>
        <path id="Path_14787" data-name="Path 14787" d="M645.415,2226.075h-5.987s-.289-1.932,1.046-2.242C641.315,2223.638,642.8,2224.087,645.415,2226.075Z" transform="translate(-583.52 -2107.084)" fill="#ffe200"/>
        <path id="Path_14788" data-name="Path 14788" d="M513.453,1952.353s28.592,4.6,35.144,2.758c0,0-6.255-64.973-10.722-68.958s-12.509-1.839-12.509-1.839a25.28,25.28,0,0,0-4.17,26.97C527.153,1925.383,513.453,1952.353,513.453,1952.353Z" transform="translate(-500.798 -1883.739)" fill="#f46973"/>
      </g>
      <g id="Group_11075" data-name="Group 11075" transform="translate(29.534 0.115)">
        <g id="Group_11074" data-name="Group 11074">
          <g id="Group_11073" data-name="Group 11073">
            <g id="Group_11063" data-name="Group 11063" transform="translate(25.524 40.907)">
              <g id="Group_11061" data-name="Group 11061" transform="translate(26.11 22.988)">
                <path id="Path_14789" data-name="Path 14789" d="M611.839,1840.231c1.784-1.193,7.057-.82,6.663-2.65-.352-1.64-3.343-3.753-7.526,1.228Z" transform="translate(-610.977 -1831.45)" fill="#f8c471"/>
                <path id="Path_14790" data-name="Path 14790" d="M618.58,1835.217c.438,2.934,4.011,2.388,5.1,1.956,1.193-.476,1.47-2.8.778-3.547S618.414,1834.094,618.58,1835.217Z" transform="translate(-615.968 -1829.934)" fill="#f8c471"/>
                <path id="Path_14791" data-name="Path 14791" d="M622.917,1827.136c.963-1.46,1.361-3.592.725-3.8-.717-.238-.714,1.66-1.9,2.76-1.279,1.194-2.02,2.012-1.586,2.53S621.955,1828.6,622.917,1827.136Z" transform="translate(-616.926 -1823.315)" fill="#f8c471"/>
                <path id="Path_14792" data-name="Path 14792" d="M630.832,1830.929c1.389-.562,1.985-1.175,1.794-1.526s-.963.017-2.351.577-3.292.928-3.1,1.279S629.443,1831.486,630.832,1830.929Z" transform="translate(-621.606 -1827.222)" fill="#f8c471"/>
                <path id="Path_14793" data-name="Path 14793" d="M634.05,1835.862c1.5-.276,2.68-1.183,2.565-1.559s-1.433.207-2.936.484-2.463.536-2.347.912S632.548,1836.139,634.05,1835.862Z" transform="translate(-624.34 -1830.452)" fill="#f8c471"/>
                <path id="Path_14794" data-name="Path 14794" d="M631.316,1841.3c1.49-.337,2.245-.861,2.12-1.233s-1.065.035-2.553.372-2.528.594-2.4.966S629.826,1841.633,631.316,1841.3Z" transform="translate(-622.466 -1834.217)" fill="#f8c471"/>
              </g>
              <g id="Group_11062" data-name="Group 11062">
                <path id="Path_14795" data-name="Path 14795" d="M539.063,1756.344c-5.587-.7-4.106,32.978-3.615,34.07,0,0,3.044.738,3.587-.567C540.44,1786.472,541.557,1756.654,539.063,1756.344Z" transform="translate(-534.9 -1756.333)" fill="#ffb2b0"/>
                <path id="Path_14796" data-name="Path 14796" d="M561.811,1843.459c1.167,4.266-23.255,6.274-24.159,6.009,0,0-1.906-2.767-.952-3.329C539.168,1844.687,561.289,1841.554,561.811,1843.459Z" transform="translate(-535.906 -1813.165)" fill="#ffb2b0"/>
                <path id="Path_14797" data-name="Path 14797" d="M603.243,1841.884l-.7-1.155-5.117-.5a10.528,10.528,0,0,0,1.263,2.616C599.154,1843.207,603.243,1841.884,603.243,1841.884Z" transform="translate(-575.965 -1811.436)" fill="#eaeaea"/>
                <path id="Path_14798" data-name="Path 14798" d="M606.248,1844.768l.174,1.349-3.726,3.549a10.566,10.566,0,0,1-.654-2.854C602.184,1846.238,606.248,1844.768,606.248,1844.768Z" transform="translate(-578.988 -1814.417)" fill="#eaeaea"/>
              </g>
            </g>
            <g id="Group_11069" data-name="Group 11069">
              <g id="Group_11068" data-name="Group 11068">
                <g id="Group_11064" data-name="Group 11064" transform="translate(0 1.208)">
                  <path id="Path_14799" data-name="Path 14799" d="M500.556,1693.317c5.513-4.609-2.548-6.308-1.865-10.633s1.535-2.882,2.634-8.448-.245-7.764-.114-11.042,2.713-8.48,1.147-12.755-2.807-2.957-4.2-6.37-3.21.065-6.042,1.324-5.364-6.844-10.363-4.2-5,8.76-6.688,12.061-6.536,4.326-7.729,10.367,2.3,4.916.458,9.013-6.017,3.437-7.21,9.48c0,0-1.028,6.074,5.82,6.27s4.438,3.685,12.026,1.881,4.613,4.546,10.014,2.474S495.632,1697.433,500.556,1693.317Z" transform="translate(-460.529 -1640.661)" fill="#2d356b"/>
                </g>
                <g id="Group_11065" data-name="Group 11065" transform="translate(22.938 21.123)">
                  <path id="Path_14800" data-name="Path 14800" d="M540.427,1698.687l6.311,3.965,1.133,13.647-5.07-1.834Z" transform="translate(-535.944 -1698.687)" fill="#f7c371"/>
                  <path id="Path_14801" data-name="Path 14801" d="M551.277,1808.02c-4.056-2.657-13.471-8.53-23.912-1.259,3.122-9.17,5.959-18.187,6.059-25.73.187-13.984-11.7-30.409-1.864-36.731,10.441-6.712,22.84,24.285,22.84,24.285C543.959,1774.459,546.848,1791.3,551.277,1808.02Z" transform="translate(-527.365 -1728.021)" fill="#fc8c99"/>
                  <path id="Path_14802" data-name="Path 14802" d="M541.685,1742.045l1.834-.215,8.2,7.713-2.427,2.05S543.789,1745.983,541.685,1742.045Z" transform="translate(-536.77 -1727.023)" fill="#fff"/>
                  <path id="Path_14803" data-name="Path 14803" d="M559.108,1751.468c.039-.028.076-.056.115-.083-2.164-4.317-6.893-10.928-11.459-10.5C551.92,1744.59,559.108,1751.468,559.108,1751.468Z" transform="translate(-540.763 -1726.387)" fill="#f7c371"/>
                </g>
                <g id="Group_11067" data-name="Group 11067" transform="translate(17.72)">
                  <g id="Group_11066" data-name="Group 11066">
                    <path id="Path_14804" data-name="Path 14804" d="M526.951,1666.18c-3.255-1.257-9.889-3.01-12.627-8.394-3.559-7-2.076-10.956-.17-15.761,3.635-9.159,19.274-3.12,17.988-.443C530.435,1645.136,538.75,1670.735,526.951,1666.18Z" transform="translate(-512.161 -1637.141)" fill="#2d356b"/>
                    <path id="Path_14805" data-name="Path 14805" d="M550.223,1676.616c1.22.124,4.041-5.964,5.181-10.737.376-1.574-1.323-1.934-.666-7.366.386-3.189-.643-7.76-5.673-11.473-4.749-3.505-6.124,6.371-6.788,8.618-1.891,6.4-3.971,10.329-2.616,13.655C542.305,1675.809,548.935,1676.169,550.223,1676.616Z" transform="translate(-529.937 -1643.154)" fill="#ffd8a3"/>
                    <path id="Path_14806" data-name="Path 14806" d="M573.088,1709.348a.282.282,0,0,1,.285-.28.3.3,0,0,1,.211.349.283.283,0,0,1-.286.279A.3.3,0,0,1,573.088,1709.348Z" transform="translate(-552.175 -1684.381)" fill="#ffab00"/>
                    <path id="Path_14807" data-name="Path 14807" d="M573.428,1683.772c-.123-.855.256-1.607.844-1.681s1.167.558,1.289,1.411-.256,1.607-.845,1.682S573.55,1684.626,573.428,1683.772Z" transform="translate(-552.386 -1666.66)" fill="#2d356b"/>
                    <path id="Path_14808" data-name="Path 14808" d="M570.13,1683.623c.608-1.321,1.566-2.7,3.927-2.318A8.248,8.248,0,0,0,570.13,1683.623Z" transform="translate(-550.235 -1666.105)" fill="#2d356b"/>
                    <path id="Path_14809" data-name="Path 14809" d="M576.753,1720.327c.056-.2.6.572.886.626.815.153.475,1.177-.33.941C576.994,1721.8,576.693,1720.534,576.753,1720.327Z" transform="translate(-554.579 -1691.756)" fill="#f36973"/>
                    <path id="Path_14810" data-name="Path 14810" d="M575.617,1709.97c-.534-.278,3.333-.981,2.524.225A5.933,5.933,0,0,1,575.617,1709.97Z" transform="translate(-553.805 -1684.674)" fill="#f36973"/>
                    <path id="Path_14811" data-name="Path 14811" d="M571.919,1670.46A5.03,5.03,0,0,0,565.57,1673C567.42,1670.936,568.764,1670.232,571.919,1670.46Z" transform="translate(-547.24 -1658.821)" fill="#2d356b"/>
                    <path id="Path_14812" data-name="Path 14812" d="M583.931,1694.97l-1.947.387.419-4.832,2.469,3.719Z" transform="translate(-558.02 -1672.204)" fill="#ffd8a3"/>
                    <path id="Path_14813" data-name="Path 14813" d="M583.356,1705.49l1.77-2.839-1.413-.194Z" transform="translate(-558.922 -1680.04)" fill="#ffd8a3"/>
                    <path id="Path_14814" data-name="Path 14814" d="M575.848,1714.487a35.874,35.874,0,0,0,1.355-4.094l-3.412-.345S574.1,1713.729,575.848,1714.487Z" transform="translate(-552.639 -1685.026)" fill="#ffab00"/>
                    <path id="Path_14815" data-name="Path 14815" d="M575.4,1712.548l1.944.2q.248-.772.478-1.616l-2.788-.281Z" transform="translate(-553.452 -1685.551)" fill="#fff"/>
                    <path id="Path_14816" data-name="Path 14816" d="M532.691,1687.109c.227-1.48.842-2.527-.282-2.7s-2.222.893-2.449,2.375.5,2.82,1.628,2.991S532.466,1688.591,532.691,1687.109Z" transform="translate(-523.825 -1668.176)" fill="#f7c371"/>
                  </g>
                  <path id="Path_14817" data-name="Path 14817" d="M552.628,1646.292c-4.13,5.054-11.208,12.337-10.476,20.205-2.348-8.536.176-19.35,6.081-23.312C548.724,1644.067,553.628,1644.311,552.628,1646.292Z" transform="translate(-531.287 -1641.11)" fill="#2d356b"/>
                </g>
              </g>
            </g>
            <g id="Group_11072" data-name="Group 11072" transform="translate(16.771 40.811)">
              <g id="Group_11070" data-name="Group 11070" transform="translate(30.413 34.844)">
                <path id="Path_14818" data-name="Path 14818" d="M598.04,1868.273c2.494-.148,7.57,3.33,8.252,1.259.612-1.854-1.149-5.736-8.282-3.2Z" transform="translate(-598.01 -1862.781)" fill="#ffd9a4"/>
                <path id="Path_14819" data-name="Path 14819" d="M608.723,1865.589c-1.287,3.2,2.624,4.758,3.967,4.963,1.478.224,3.122-1.943,2.868-3.105S609.217,1864.365,608.723,1865.589Z" transform="translate(-604.878 -1862.581)" fill="#ffd9a4"/>
                <path id="Path_14820" data-name="Path 14820" d="M614.612,1861.107c1.826-.9,3.48-2.807,2.965-3.391-.58-.66-1.694,1.247-3.53,1.656-1.987.447-3.212.832-3.082,1.607S612.784,1862.011,614.612,1861.107Z" transform="translate(-606.513 -1857.579)" fill="#ffd9a4"/>
                <path id="Path_14821" data-name="Path 14821" d="M623.868,1869.3c1.726.252,2.685-.012,2.7-.478s-.978-.549-2.7-.8-3.853-1.006-3.868-.54S622.144,1869.042,623.868,1869.3Z" transform="translate(-612.452 -1863.983)" fill="#ffd9a4"/>
                <path id="Path_14822" data-name="Path 14822" d="M624.713,1875.107c1.672.607,3.387.389,3.493-.056s-1.561-.636-3.234-1.242-2.789-.91-2.894-.464S623.041,1874.5,624.713,1875.107Z" transform="translate(-613.813 -1867.794)" fill="#ffd9a4"/>
                <path id="Path_14823" data-name="Path 14823" d="M618.811,1878.91c1.694.538,2.761.456,2.855.009s-1.09-.591-2.783-1.129-2.888-.892-2.982-.443S617.116,1878.371,618.811,1878.91Z" transform="translate(-609.758 -1870.428)" fill="#ffd9a4"/>
              </g>
              <g id="Group_11071" data-name="Group 11071">
                <path id="Path_14824" data-name="Path 14824" d="M520.264,1756.12c-6.272-1.9-11.2,37.027-10.852,38.377,0,0,3.347,1.446,4.227.056C515.915,1790.957,523.064,1756.967,520.264,1756.12Z" transform="translate(-509.394 -1756.053)" fill="#ffb2b0"/>
                <path id="Path_14825" data-name="Path 14825" d="M540.574,1860.738c.067,5.148-28.036.266-28.978-.3,0,0-1.338-3.676-.1-4.03C514.7,1855.5,540.545,1858.438,540.574,1860.738Z" transform="translate(-510.43 -1821.856)" fill="#ffb2b0"/>
                <path id="Path_14826" data-name="Path 14826" d="M589.982,1864.193l-.455-1.507-5.62-2.059s.237,2.774.658,3.318S589.982,1864.193,589.982,1864.193Z" transform="translate(-558.335 -1824.737)" fill="#eaeaea"/>
                <path id="Path_14827" data-name="Path 14827" d="M591.079,1870.686l-.2,1.571-5.236,2.909s-.23-2.8.1-3.406S591.079,1870.686,591.079,1870.686Z" transform="translate(-559.423 -1831.344)" fill="#eaeaea"/>
              </g>
            </g>
          </g>
        </g>
      </g>
      <g id="Group_11060" data-name="Group 11060" transform="translate(3 -0.361)">
        <rect id="Rectangle_3445" data-name="Rectangle 3445" width="49.2" height="27.11" rx="6.672" transform="translate(29 58)" fill="#fff" stroke="#231f20" stroke-miterlimit="10" stroke-width="0.25"/>
        <text id="Akiko" transform="translate(40.6 75.055)" fill="#2d356b" font-size="10" font-family="TrebuchetMS-Bold, Trebuchet MS" font-weight="700"><tspan x="0" y="0">Akiko</tspan></text>
      </g>
    </g>
    <text id="_1" data-name="1" transform="translate(43.676 1302.893)" fill="#2d356b" font-size="33" font-family="TrebuchetMS-Bold, Trebuchet MS" font-weight="700"><tspan x="0" y="0">1</tspan></text>
    <g id="Group_11107" data-name="Group 11107" transform="translate(432.378 1415.98)">
      <g id="Group_11106" data-name="Group 11106" transform="translate(0 0)">
        <g id="Group_11105" data-name="Group 11105">
          <g id="Group_11097" data-name="Group 11097" transform="translate(0 86.348)">
            <path id="Path_14843" data-name="Path 14843" d="M1658.506,1900.353l-8.469,1.593c-7.447,26.6-5.618,58.317-22.261,112.631,0,0,1.59.693,1.819,0,13.846-42,21.419-74.927,24.105-79.451C1659.672,1925.072,1667.137,1916.525,1658.506,1900.353Z" transform="translate(-1623.601 -1896.25)" fill="#ffd8a3"/>
            <path id="Path_14844" data-name="Path 14844" d="M1696.617,1895.5c10.422,19.438,2.618,17.931,2.28,27.985-.977,28.991,17.507,43.738,23.245,88.082,0,0-2.272-.116-2.337-.756-3.565-35.378-34.913-69.227-36.2-102.072-.083-2.118-.176-8.445,2.294-10.709C1689.672,1894.565,1696.617,1895.5,1696.617,1895.5Z" transform="translate(-1660.246 -1892.986)" fill="#f7c371"/>
            <path id="Path_14845" data-name="Path 14845" d="M1775.9,2230.248h6.811s.33-1.934-1.19-2.244C1780.569,2227.809,1778.877,2228.259,1775.9,2230.248Z" transform="translate(-1720.89 -2111.423)" fill="#7b88ac"/>
            <path id="Path_14846" data-name="Path 14846" d="M1615.609,2230.735h5.988s.289-1.932-1.047-2.242C1619.709,2228.3,1618.221,2228.747,1615.609,2230.735Z" transform="translate(-1615.609 -2111.743)" fill="#7b88ac"/>
            <path id="Path_14847" data-name="Path 14847" d="M1691.823,1957.013s-28.592,4.6-35.144,2.758c0,0,6.254-64.973,10.722-68.957s12.509-1.839,12.509-1.839a25.279,25.279,0,0,1,4.169,26.97C1678.123,1930.043,1691.823,1957.013,1691.823,1957.013Z" transform="translate(-1642.583 -1888.398)" fill="#c3e8e6"/>
          </g>
          <g id="Group_11104" data-name="Group 11104" transform="translate(11.206)">
            <path id="Path_14848" data-name="Path 14848" d="M1657.541,1652.72c-2.462-9.183,13.274-18.856,19.48-15.073,0,0,15.421-.238,11.049,25.707-.194,1.147-4.906,1.147-4.853,3.643s-.171,2.218-1.353,3.39-3.419-.475-3.931.378c-1.406,2.343,3.221,3.965,4.628,2.688,0,0-11.46,7.182-17.241-4.906C1664.988,1667.852,1658.189,1655.137,1657.541,1652.72Z" transform="translate(-1654.186 -1636.805)" fill="#fff4ba"/>
            <g id="Group_11098" data-name="Group 11098" transform="translate(0 80.369)">
              <path id="Path_14849" data-name="Path 14849" d="M1671.352,1877.731c.9-1.961,2.873-3.77,3.507-3.241.717.6-1.271,1.831-1.651,3.789-.416,2.118-.788,3.428-1.613,3.312S1670.448,1879.694,1671.352,1877.731Z" transform="translate(-1663.07 -1873.223)" fill="#f8c471"/>
              <path id="Path_14850" data-name="Path 14850" d="M1672.66,1872.811c-2.417,1.083-5.482,6.842-7.138,5.23-1.484-1.442-1.733-5.955,6.216-7.064Z" transform="translate(-1659.061 -1870.977)" fill="#ffd9a4"/>
              <path id="Path_14851" data-name="Path 14851" d="M1663.3,1874.753c2.781,2.381-.132,5.759-1.295,6.61-1.279.935-3.887-.295-4.219-1.512S1662.239,1873.845,1663.3,1874.753Z" transform="translate(-1654.508 -1873.382)" fill="#ffd9a4"/>
              <path id="Path_14852" data-name="Path 14852" d="M1651.072,1885.078c-1.5,1.084-2.529,1.306-2.771.875s.65-1,2.144-2.08,3.128-2.835,3.37-2.4S1652.566,1883.991,1651.072,1885.078Z" transform="translate(-1648.261 -1877.824)" fill="#ffd9a4"/>
              <path id="Path_14853" data-name="Path 14853" d="M1654.3,1891.033c-1.274,1.391-2.993,2.027-3.311,1.661s1.156-1.363,2.43-2.753,2.175-2.223,2.492-1.856S1655.575,1889.643,1654.3,1891.033Z" transform="translate(-1650.025 -1882.157)" fill="#ffd9a4"/>
              <path id="Path_14854" data-name="Path 14854" d="M1662.216,1891.7c-1.328,1.337-2.372,1.783-2.679,1.409s.734-1.09,2.062-2.426,2.277-2.254,2.585-1.879S1663.545,1890.362,1662.216,1891.7Z" transform="translate(-1655.632 -1882.63)" fill="#ffd9a4"/>
            </g>
            <g id="Group_11099" data-name="Group 11099" transform="translate(3.52 24.16)">
              <path id="Path_14855" data-name="Path 14855" d="M1699.982,1707.2l-5.911,4.717.413,13.888,4.9-2.427Z" transform="translate(-1681.868 -1707.202)" fill="#f6cda2"/>
              <path id="Path_14856" data-name="Path 14856" d="M1663.74,1814.527c14.09,6.411,18.757,2.878,26.386,1.674-1.068-10.9-8.082-17.657-9.042-25.251-1.783-14.077,8.328-31.992-2.306-37.245-11.293-5.577-20.261,27.088-20.261,27.088C1669.713,1785.525,1666.3,1797.162,1663.74,1814.527Z" transform="translate(-1658.516 -1737.324)" fill="#54ccca"/>
              <path id="Path_14857" data-name="Path 14857" d="M1697.294,1751.46l-1.873-.009-7.387,8.712,2.681,1.791S1695.622,1755.669,1697.294,1751.46Z" transform="translate(-1677.903 -1736.265)" fill="#fff"/>
              <path id="Path_14858" data-name="Path 14858" d="M1678.663,1762.584l-.125-.072c1.69-4.6,5.7-11.8,10.356-11.9C1685.126,1754.83,1678.663,1762.584,1678.663,1762.584Z" transform="translate(-1671.666 -1735.717)" fill="#f6cda2"/>
            </g>
            <g id="Group_11100" data-name="Group 11100" transform="translate(11.841 42.524)">
              <path id="Path_14859" data-name="Path 14859" d="M1688.11,1854.717c2.267,5.029,25.107-4.889,25.784-5.873,0,0-.342-4.185-1.728-3.956C1708.578,1845.482,1687.1,1852.471,1688.11,1854.717Z" transform="translate(-1686.252 -1815.991)" fill="#c3e8e6"/>
              <path id="Path_14860" data-name="Path 14860" d="M1718.989,1761.178c4.985-4.969,16.335,31.042,14.885,32.534,0,0-3.755.526-5.083-.68C1724.779,1789.391,1716.762,1763.395,1718.989,1761.178Z" transform="translate(-1706.304 -1760.708)" fill="#c3e8e6"/>
              <path id="Path_14861" data-name="Path 14861" d="M1682.888,1865.2l-.125-1.6,4.968-4.027s.854,2.727.634,3.4S1682.888,1865.2,1682.888,1865.2Z" transform="translate(-1682.763 -1825.641)" fill="#fff"/>
              <path id="Path_14862" data-name="Path 14862" d="M1682.975,1873.682l.826,1.422,6.54.839s-.874-2.749-1.448-3.206S1682.975,1873.682,1682.975,1873.682Z" transform="translate(-1682.902 -1834.229)" fill="#fff"/>
            </g>
            <g id="Group_11103" data-name="Group 11103" transform="translate(4.887 2.8)">
              <g id="Group_11102" data-name="Group 11102">
                <g id="Group_11101" data-name="Group 11101" transform="translate(0 2.451)">
                  <path id="Path_14863" data-name="Path 14863" d="M1671.068,1682.254c-1.225.069-3.771-6.137-4.7-10.954-.305-1.588,1.407-1.873.993-7.327-.243-3.2.988-7.721,6.177-11.206,4.9-3.29,5.832,6.636,6.4,8.909,1.6,6.476,3.506,10.493,2.005,13.754C1679.011,1681.8,1672.374,1681.864,1671.068,1682.254Z" transform="translate(-1665.019 -1652.106)" fill="#ffd8a3"/>
                  <path id="Path_14864" data-name="Path 14864" d="M1678.447,1714.584a.282.282,0,0,0-.272-.292.3.3,0,0,0-.227.339.283.283,0,0,0,.273.292A.3.3,0,0,0,1678.447,1714.584Z" transform="translate(-1672.645 -1692.949)" fill="#ffab00"/>
                  <path id="Path_14865" data-name="Path 14865" d="M1676.033,1688.783c-.077-.86-.619-1.5-1.208-1.442s-1.006.811-.929,1.67.619,1.5,1.209,1.441S1676.111,1689.643,1676.033,1688.783Z" transform="translate(-1669.979 -1675.245)" fill="#2d356b"/>
                  <path id="Path_14866" data-name="Path 14866" d="M1675.332,1688.7c-.9-1.145-2.145-2.266-4.354-1.352A8.25,8.25,0,0,1,1675.332,1688.7Z" transform="translate(-1668.069 -1675.033)" fill="#2d356b"/>
                  <path id="Path_14867" data-name="Path 14867" d="M1672.586,1725.4c-.048-.2-.622.545-.912.586-.821.117-.526,1.155.288.954C1672.279,1726.867,1672.636,1725.615,1672.586,1725.4Z" transform="translate(-1668.204 -1700.226)" fill="#f36973"/>
                  <path id="Path_14868" data-name="Path 14868" d="M1671.711,1714.959c.546-.253-3.285-1.128-2.531.112A5.933,5.933,0,0,0,1671.711,1714.959Z" transform="translate(-1666.823 -1693.036)" fill="#f36973"/>
                  <path id="Path_14869" data-name="Path 14869" d="M1670.17,1675.432a5.028,5.028,0,0,1,6.228,2.817C1674.642,1676.108,1673.331,1675.345,1670.17,1675.432Z" transform="translate(-1667.537 -1667.276)" fill="#2d356b"/>
                  <path id="Path_14870" data-name="Path 14870" d="M1663.406,1699.729l1.928.474-.2-4.844-2.631,3.6Z" transform="translate(-1662.5 -1680.514)" fill="#ffd8a3"/>
                  <path id="Path_14871" data-name="Path 14871" d="M1665.949,1710.266l-1.641-2.915,1.42-.131Z" transform="translate(-1663.687 -1688.305)" fill="#ffd8a3"/>
                  <path id="Path_14872" data-name="Path 14872" d="M1669.9,1719.616a35.814,35.814,0,0,1-1.171-4.149l3.423-.192S1671.672,1718.937,1669.9,1719.616Z" transform="translate(-1666.588 -1693.595)" fill="#ffab00"/>
                  <path id="Path_14873" data-name="Path 14873" d="M1671.631,1717.7l-1.95.109q-.214-.782-.406-1.635l2.8-.157Z" transform="translate(-1666.95 -1694.083)" fill="#fff"/>
                  <path id="Path_14874" data-name="Path 14874" d="M1714.694,1694c-.161-1.489-.728-2.561.4-2.681s2.179.99,2.34,2.481-.627,2.794-1.759,2.915S1714.853,1695.49,1714.694,1694Z" transform="translate(-1696.593 -1677.854)" fill="#f7c371"/>
                </g>
                <path id="Path_14875" data-name="Path 14875" d="M1682.273,1644.968c.975,3.514,3.86,12.377,8.94,13.931,0,0,2.728-7.967-2.059-10.724C1683.11,1644.692,1682.273,1644.968,1682.273,1644.968Z" transform="translate(-1675.487 -1644.963)" fill="#fff4ba"/>
              </g>
            </g>
          </g>
        </g>
      </g>
      <g id="Group_11096" data-name="Group 11096" transform="translate(53.695 7.396)">
        <rect id="Rectangle_3447" data-name="Rectangle 3447" width="53.2" height="27.678" rx="6.672" transform="translate(-45 49)" fill="#fff" stroke="#231f20" stroke-miterlimit="10" stroke-width="0.25"/>
        <text id="Helen" transform="translate(-31.9 66.339)" fill="#2d356b" font-size="10" font-family="TrebuchetMS-Bold, Trebuchet MS" font-weight="700"><tspan x="0" y="0">Helen</tspan></text>
      </g>
    </g>
  </g>
</svg>
