<svg xmlns="http://www.w3.org/2000/svg" width="171.34" height="136.078" viewBox="0 0 171.34 136.078">
  <g id="Group_7626" data-name="Group 7626" transform="translate(-347.509 -1405.197)">
    <g id="Group_7618" data-name="Group 7618" transform="translate(347.509 1410.231)">
      <path id="Path_9383" data-name="Path 9383" d="M504.493,1421.5H358.428a10.92,10.92,0,0,0-10.919,10.916v96.447a10.918,10.918,0,0,0,10.919,10.918H504.493a10.92,10.92,0,0,0,10.921-10.918v-96.447A10.921,10.921,0,0,0,504.493,1421.5Z" transform="translate(-347.509 -1421.5)" fill="#dbdadc"/>
      <g id="Group_7617" data-name="Group 7617" transform="translate(0 8.932)">
        <path id="Path_9384" data-name="Path 9384" d="M347.509,1452.411V1540.1H515.414v-87.692a11.121,11.121,0,0,0-.183-1.985H347.692A10.96,10.96,0,0,0,347.509,1452.411Z" transform="translate(-347.509 -1450.426)" fill="#4e4e4e"/>
        <g id="Group_7616" data-name="Group 7616" transform="translate(68.302 109.35)">
          <path id="Path_9385" data-name="Path 9385" d="M599.82,1816.026s-1.331-1.382-3.006-2.881-1.438-2.6-1.438-2.6l-.452-5.979H573.8l-.45,5.979s.237,1.1-1.44,2.6-3,2.881-3,2.881a1.753,1.753,0,0,0-.194.808c0,.473.279.494,1.438.494h28.425c1.159,0,1.438-.021,1.438-.494A1.764,1.764,0,0,0,599.82,1816.026Z" transform="translate(-568.711 -1804.565)" fill="#d0d2d3"/>
          <path id="Path_9386" data-name="Path 9386" d="M599.82,1816.026s-1.331-1.382-3.006-2.881-1.438-2.6-1.438-2.6l-.452-5.979H573.8l-.45,5.979s.237,1.1-1.44,2.6-3,2.881-3,2.881a1.753,1.753,0,0,0-.194.808c0,.473.279.494,1.438.494h28.425c1.159,0,1.438-.021,1.438-.494A1.764,1.764,0,0,0,599.82,1816.026Z" transform="translate(-568.711 -1804.565)" fill="#cdccce"/>
        </g>
      </g>
    </g>
    <g id="Group_7624" data-name="Group 7624" transform="translate(347.655 1419.162)">
      <g id="Group_7623" data-name="Group 7623" transform="translate(0 0)">
        <g id="Group_7620" data-name="Group 7620" transform="translate(0)">
          <g id="Group_7619" data-name="Group 7619">
            <rect id="Rectangle_2608" data-name="Rectangle 2608" width="89.729" height="167.21" transform="translate(0 89.729) rotate(-89.875)" fill="#fff"/>
          </g>
        </g>
        <text id="Sending..." transform="translate(18.49 29.513)" fill="#2d356b" font-size="14" font-family="TrebuchetMS-Bold, Trebuchet MS" font-weight="700"><tspan x="0" y="0">Sending...</tspan></text>
        <g id="Group_7622" data-name="Group 7622" transform="translate(58.723 46.657)">
          <g id="Group_7621" data-name="Group 7621">
            <rect id="Rectangle_2609" data-name="Rectangle 2609" width="50.168" height="26.452" transform="translate(0 3.913)" fill="#f8c471"/>
            <path id="Path_9387" data-name="Path 9387" d="M538.16,1601.527h13.288l4.241,3.913H538.16Z" transform="translate(-538.16 -1601.527)" fill="#ffac00"/>
          </g>
          <text id="Files" transform="translate(1.974 14.642)" fill="#fff" font-size="10" font-family="TrebuchetMS-Bold, Trebuchet MS" font-weight="700"><tspan x="0" y="0">Files</tspan></text>
        </g>
      </g>
    </g>
    <g id="Group_7625" data-name="Group 7625" transform="translate(460.51 1405.197)">
      <path id="Path_9388" data-name="Path 9388" d="M728.449,1426.593l43.363-21.4-58.339,14.234Z" transform="translate(-713.473 -1405.197)" fill="#9ea9fc"/>
      <path id="Path_9389" data-name="Path 9389" d="M807.03,1437.053l16.277,11.194,13.173-43.051Z" transform="translate(-778.142 -1405.197)" fill="#9ea9fc"/>
      <path id="Path_9390" data-name="Path 9390" d="M758.079,1443.345l44.565-38.147-43.363,21.4Z" transform="translate(-744.305 -1405.197)" fill="#2d356b"/>
      <path id="Path_9391" data-name="Path 9391" d="M773.194,1437.053l29.45-31.856-44.565,38.147Z" transform="translate(-744.305 -1405.197)" fill="#40558e"/>
    </g>
  </g>
</svg>
