<svg xmlns="http://www.w3.org/2000/svg" width="117.095" height="136.963" viewBox="0 0 117.095 136.963"><g transform="translate(0 0.125)"><g transform="translate(0 19.615)"><g transform="translate(1.39 1.39)"><g transform="translate(3.65 3.718)"><path d="M823.231,1563.239a54.259,54.259,0,0,1-43.333,27.045,54.555,54.555,0,0,1-55.092-72.134,54.22,54.22,0,0,1,38.14-34.669,54.577,54.577,0,0,1,66.742,61.32,54.028,54.028,0,0,1-6.457,18.438C808.437,1589.186,838.031,1537.293,823.231,1563.239Z" transform="translate(-721.872 -1481.971)" fill="#81bec0"/></g><path d="M767.016,1584.575a58.252,58.252,0,0,1-53.8-80.346,58.039,58.039,0,0,1,51.1-35.449,58.175,58.175,0,0,1,52.441,87.338A58.03,58.03,0,0,1,767.016,1584.575Zm-.555-108.463a50.577,50.577,0,1,0,50.786,53.747,50.938,50.938,0,0,0-50.786-53.747Z" transform="translate(-708.886 -1468.741)" fill="#9999a5"/></g><g transform="translate(3.649 3.718)"><path d="M818.286,1558.294a54.256,54.256,0,0,1-43.335,27.045,54.555,54.555,0,0,1-55.092-72.135A54.223,54.223,0,0,1,758,1478.536a54.577,54.577,0,0,1,66.744,61.32,54.038,54.038,0,0,1-6.456,18.438Z" transform="translate(-716.924 -1477.026)" fill="#fff"/></g><g transform="translate(55.982 1.791)"><path d="M906.411,1492.047c-4.5,0-3.064-8.217-3.064-10.939s-1.434-10.939,3.064-10.939,3.062,8.216,3.062,10.939S910.9,1492.047,906.411,1492.047Z" transform="translate(-903.129 -1470.169)" fill="#9999a5"/></g><g transform="translate(94.882 56.09)"><path d="M1060.18,1669.654h-11.618c-1.337,0-2.729.114-4.063,0-3.949,0-3.949-6.143,0-6.143,3.811-.325,7.792,0,11.618,0,1.335,0,2.728-.114,4.063,0C1064.129,1663.511,1064.129,1669.654,1060.18,1669.654Z" transform="translate(-1041.536 -1663.367)" fill="#9999a5"/></g><g transform="translate(55.982 94.944)"><path d="M906.411,1823.487c-4.5,0-3.064-8.216-3.064-10.938s-1.434-10.938,3.064-10.938,3.062,8.215,3.062,10.938S910.9,1823.487,906.411,1823.487Z" transform="translate(-903.129 -1801.611)" fill="#9999a5"/></g><g transform="translate(2.017 56.108)"><path d="M729.765,1669.718H718.147c-1.339,0-2.732.114-4.065,0-3.95,0-3.95-6.142,0-6.142,3.811-.326,7.792,0,11.618,0,1.337,0,2.732-.114,4.065,0C733.714,1663.576,733.714,1669.718,729.765,1669.718Z" transform="translate(-711.119 -1663.431)" fill="#9999a5"/></g><g transform="translate(54.593 0.401)"><path d="M901.466,1487.1c-4.5,0-3.064-8.216-3.064-10.939s-1.433-10.938,3.064-10.938,3.06,8.216,3.06,10.938S905.96,1487.1,901.466,1487.1Z" transform="translate(-898.185 -1465.223)" fill="#ebebeb"/></g><g transform="translate(93.49 54.701)"><path d="M1055.229,1664.71h-11.616c-1.339,0-2.731.114-4.067,0-3.95,0-3.95-6.142,0-6.142,3.813-.326,7.794,0,11.616,0,1.339,0,2.732-.114,4.067,0C1059.178,1658.568,1059.178,1664.71,1055.229,1664.71Z" transform="translate(-1036.583 -1658.423)" fill="#ebebeb"/></g><g transform="translate(54.593 93.553)"><path d="M901.466,1818.539c-4.5,0-3.064-8.218-3.064-10.939s-1.433-10.939,3.064-10.939,3.06,8.216,3.06,10.939S905.96,1818.539,901.466,1818.539Z" transform="translate(-898.185 -1796.661)" fill="#ebebeb"/></g><g transform="translate(0.627 54.719)"><path d="M724.815,1664.773H713.2c-1.341,0-2.732.114-4.067,0-3.95,0-3.951-6.142,0-6.142,3.813-.325,7.79,0,11.618,0,1.336,0,2.73-.113,4.063,0C728.766,1658.631,728.766,1664.773,724.815,1664.773Z" transform="translate(-706.171 -1658.486)" fill="#ebebeb"/></g><path d="M762.075,1579.629a58.252,58.252,0,0,1-53.8-80.347,58.036,58.036,0,0,1,51.1-35.448,58.173,58.173,0,0,1,52.44,87.339A58.026,58.026,0,0,1,762.075,1579.629Zm-.558-108.464a50.578,50.578,0,1,0,50.784,53.747,50.936,50.936,0,0,0-50.784-53.747Z" transform="translate(-703.942 -1463.795)" fill="#2d356b"/><g transform="translate(58.053 55.947)"><path d="M940.088,1665c-5.162-.878-10.364-1.225-15.561-1.775-3.162-.335-5.842-.735-8.948.248-1.042.329-5.5,1.667-5.049,3.25.136.479,1.8,1.049,2.234,1.237a18.089,18.089,0,0,0,4.129,1.224c3.2.552,6.056-.389,9.191-.855,2.986-.439,5.945-.988,8.9-1.573C935.825,1666.6,940.517,1666.2,940.088,1665Z" transform="translate(-910.497 -1662.856)" fill="#9999a5"/></g><g transform="translate(55.997 20.035)"><path d="M906.043,1535.112c-1.088,7.154-1.542,14.361-2.369,21.541-.437,3.816-.812,7.289-.082,11.109.2,1.036,1.528,7.962,3.162,7.406.573-.194,1.191-2.616,1.375-3.15a31.133,31.133,0,0,0,1.327-5.516c.581-3.906-.161-7.5-.484-11.376-.345-4-.741-8-1.219-11.992-.23-1.909-.462-3.816-.729-5.718C906.92,1536.687,907.155,1534.81,906.043,1535.112Z" transform="translate(-903.18 -1535.079)" fill="#9999a5"/></g><g transform="translate(15.486 15.388)"><g transform="translate(17.207)"><g transform="translate(42.968)"><path d="M973.946,1526.963c-1.908-1.1.109-3.536.8-4.747.7-1.23,1.9-4.572,3.874-3.437,1.907,1.095-.107,3.536-.8,4.746-.7,1.231-1.893,4.571-3.872,3.439C973.153,1526.506,974.742,1527.419,973.946,1526.963Z" transform="translate(-973.147 -1518.547)" fill="#cfd0d8"/></g><g transform="translate(0 75.346)"><path d="M821.065,1795.046c-1.906-1.1.107-3.536.8-4.746.7-1.231,1.895-4.572,3.872-3.439,1.908,1.1-.1,3.534-.8,4.746-.7,1.23-1.9,4.572-3.874,3.439C820.269,1794.589,821.862,1795.5,821.065,1795.046Z" transform="translate(-820.266 -1786.63)" fill="#cfd0d8"/></g></g><g transform="translate(16.873 0.188)"><path d="M822.957,1527.6c-1.2-.685-1.974-2.964-2.629-4.088q-.511-.881-1.024-1.761a1.675,1.675,0,0,1,2.081-2.392c1.281.56,2.147,3.061,2.791,4.169.343.587.682,1.175,1.024,1.761a1.673,1.673,0,0,1-2.243,2.31Z" transform="translate(-819.076 -1519.218)" fill="#cfd0d8"/><g transform="translate(43.554 75.008)"><path d="M977.921,1794.484c-1.2-.693-1.972-2.96-2.629-4.09q-.511-.881-1.02-1.761a1.673,1.673,0,0,1,2.079-2.391c1.28.559,2.145,3.061,2.789,4.169.342.587.681,1.175,1.024,1.761a1.674,1.674,0,0,1-2.243,2.312C977.678,1794.342,978.422,1794.768,977.921,1794.484Z" transform="translate(-974.043 -1786.099)" fill="#cfd0d8"/></g></g><g transform="translate(0 17.263)"><path d="M759.855,1583.075a1.677,1.677,0,0,1,.637-3.1,3.284,3.284,0,0,1,1.9.72,34.209,34.209,0,0,1,4.39,2.52,1.677,1.677,0,0,1-.639,3.1,3.271,3.271,0,0,1-1.9-.72Q762.046,1584.335,759.855,1583.075Z" transform="translate(-759.042 -1579.968)" fill="#cfd0d8"/><g transform="translate(75.083 43.105)"><path d="M1032.3,1739.482l-4.11-2.359a6.213,6.213,0,0,1-1.58-1.005,1.669,1.669,0,0,1,2.058-2.554,31.664,31.664,0,0,1,4.11,2.359,6.318,6.318,0,0,1,1.584,1.006A1.671,1.671,0,0,1,1032.3,1739.482Z" transform="translate(-1026.189 -1733.339)" fill="#cfd0d8"/></g></g><g transform="translate(0.036 16.971)"><g transform="translate(0 43.696)"><path d="M760.125,1740.56c-2.508-1.439.593-3.232,1.779-3.925,1.13-.662,3.537-2.743,4.967-2.116,2.85,1.245-.438,3.318-1.613,4.006C764.1,1739.2,761.567,1741.387,760.125,1740.56Z" transform="translate(-759.172 -1734.403)" fill="#cfd0d8"/></g><g transform="translate(74.762)"><path d="M1026.131,1585.087c-2.508-1.44.589-3.232,1.775-3.925,1.132-.662,3.537-2.741,4.971-2.116,2.849,1.246-.438,3.319-1.617,4.005-1.156.678-3.688,2.859-5.129,2.035Z" transform="translate(-1025.177 -1578.93)" fill="#cfd0d8"/></g></g></g><g transform="translate(50.678 50.698)"><g transform="translate(7.21 7.159)"><path d="M931.3,1696.949c-3.8-4.35-7.527-8.764-11.24-13.189-2.143-2.554-4.349-5.023-6.282-7.748-.539-.764-4.365-5.735-3.807-6.358.134-.147,5.218,5.351,5.608,5.805,2.194,2.521,4.071,5.284,6.067,7.963q3.151,4.241,6.266,8.514C928.4,1692.622,931.664,1696.252,931.3,1696.949Z" transform="translate(-909.91 -1669.652)" fill="#f8c471"/></g><g transform="translate(1.375 1.576)"><path d="M900.785,1655.43c0,7.523-11.635,7.523-11.635,0S900.785,1647.906,900.785,1655.43Z" transform="translate(-889.15 -1649.787)" fill="#f8c471"/></g><path d="M891.452,1658.617a7.218,7.218,0,1,1,7.194-7.218A7.281,7.281,0,0,1,891.452,1658.617Zm0-11.672c-5.728,0-5.728,8.907,0,8.907S897.178,1646.946,891.452,1646.946Z" transform="translate(-884.256 -1644.181)" fill="#f8c471"/></g></g><g transform="translate(1.978 0)"><rect width="111.75" height="25.157" rx="6.672" fill="#fff" stroke="#231f20" stroke-miterlimit="10" stroke-width="0.25"/><text transform="translate(57.466 17.081)" fill="#2d356b" font-size="14" font-family="TrebuchetMS-Bold, Trebuchet MS" font-weight="700"><tspan x="-43.729" y="0">Meeting Start</tspan></text></g></g></svg>