<svg xmlns="http://www.w3.org/2000/svg" width="538.17" height="365.752" viewBox="0 0 538.17 365.752">
  <g id="Group_10457" data-name="Group 10457" transform="translate(-538.173 -1258.054)">
    <g id="Group_10407" data-name="Group 10407" transform="translate(538.173 1258.729)">
      <g id="Group_10292" data-name="Group 10292" transform="translate(0 0)">
        <g id="Group_10291" data-name="Group 10291">
          <g id="Group_10290" data-name="Group 10290">
            <g id="Group_10289" data-name="Group 10289">
              <g id="Group_10288" data-name="Group 10288">
                <g id="Group_10285" data-name="Group 10285" transform="translate(0.589)">
                  <g id="Group_10281" data-name="Group 10281" transform="translate(0.135)">
                    <path id="Path_13690" data-name="Path 13690" d="M1077.165,1273.47h.637v-12.3H540.356v257h536.8v-25.815h.005Z" transform="translate(-540.356 -1260.813)" fill="#fff"/>
                    <rect id="Rectangle_3180" data-name="Rectangle 3180" width="536.722" height="0.719" transform="translate(0 256.997)" fill="#a0bacb"/>
                    <rect id="Rectangle_3181" data-name="Rectangle 3181" width="537.446" height="0.719" fill="#7b88ac"/>
                  </g>
                  <g id="Group_10282" data-name="Group 10282" transform="translate(0 52.512)">
                    <path id="Path_13691" data-name="Path 13691" d="M639.654,1419.654v-.188H631v.188H541.586v156.683h183.63V1419.654Zm77.96,5.031v34.454h-77.96v-34.454Zm-86.61,40.4v65.823H549.188v-65.823Zm8.65,65.823v-65.823h77.96v65.823ZM631,1424.685v34.454H549.188v-34.454Zm-81.815,112.168H631v34.454H549.188Zm90.466,34.454v-34.454h77.96v34.454Z" transform="translate(-541.043 -1419.106)" fill="#ebebeb"/>
                    <path id="Path_13692" data-name="Path 13692" d="M724.665,1575.973H539.949v-157.4h89.418v-.189H639.1v.189h85.562Zm-183.63-.719H723.579V1419.289H638.017v-.188h-7.565v.188H541.035Zm176.028-4.312H638.017v-35.172h79.045Zm-77.959-.719h76.873v-33.735H639.1Zm-8.651.719h-82.9v-35.172h82.9Zm-81.815-.719h80.729v-33.735H548.638Zm168.425-39.681H638.017V1464h79.045Zm-77.959-.718h76.873v-65.1H639.1Zm-8.651.718h-82.9V1464h82.9Zm-81.815-.718h80.729v-65.1H548.638Zm168.425-71.051H638.017V1423.6h79.045Zm-77.959-.718h76.873V1424.32H639.1Zm-8.651.718h-82.9V1423.6h82.9Zm-81.815-.718h80.729V1424.32H548.638Z" transform="translate(-539.949 -1418.382)" fill="#ebebeb"/>
                  </g>
                  <g id="Group_10283" data-name="Group 10283" transform="translate(204.815 51.586)">
                    <path id="Path_13693" data-name="Path 13693" d="M1363.8,1416.859v-.188h-7.935v.188h-82.016v156.684h168.43V1416.859Zm71.506,5.031v34.454H1363.8V1421.89Zm-79.441,40.4v65.823h-75.043V1462.29Zm7.935,65.823V1462.29h71.506v65.823Zm-7.935-106.223v34.454h-75.043V1421.89Zm-75.043,112.168h75.043v34.454h-75.043Zm82.977,34.454v-34.454h71.506v34.454Z" transform="translate(-1273.353 -1416.312)" fill="#ebebeb"/>
                    <path id="Path_13694" data-name="Path 13694" d="M1441.775,1573.179H1272.349v-157.4h82.016v-.188h8.931v.188h78.479Zm-168.43-.718h167.434V1416.495H1362.3v-.188h-6.938v.188h-82.016Zm161.457-4.312h-72.5v-35.173h72.5Zm-71.506-.719h70.51v-33.735H1363.3Zm-7.935.719h-76.039v-35.173h76.039Zm-75.043-.719h74.047v-33.735h-74.047Zm154.484-39.68h-72.5v-66.542h72.5Zm-71.506-.719h70.51v-65.1H1363.3Zm-7.935.719h-76.039v-66.542h76.039Zm-75.043-.719h74.047v-65.1h-74.047Zm154.484-71.05h-72.5v-35.172h72.5Zm-71.506-.719h70.51v-33.735H1363.3Zm-7.935.719h-76.039v-35.172h76.039Zm-75.043-.719h74.047v-33.735h-74.047Z" transform="translate(-1272.349 -1415.588)" fill="#ebebeb"/>
                  </g>
                  <g id="Group_10284" data-name="Group 10284" transform="translate(391.913 52.513)">
                    <path id="Path_13695" data-name="Path 13695" d="M2074.1,1571.307h-46.339v-34.454H2074.1v-5.946h-46.339v-65.823H2074.1v-5.945h-46.339v-34.454H2074.1v-5.031h-46.339v-.188h-8.65v.188h-89.418v156.683H2074.1Zm-54.989,0H1937.3v-34.454h81.816Zm0-40.4H1937.3v-65.823h81.816Zm0-71.769H1937.3v-34.454h81.816Z" transform="translate(-1929.15 -1419.107)" fill="#ebebeb"/>
                    <path id="Path_13696" data-name="Path 13696" d="M2223.671,1807.406h46.882v-.719h-45.8v-33.735h45.8v-.719h-46.882Z" transform="translate(-2125.603 -1654.846)" fill="#ebebeb"/>
                    <path id="Path_13697" data-name="Path 13697" d="M2223.671,1622.437h46.882v-.718h-45.8v-65.1h45.8v-.719h-46.882Z" transform="translate(-2125.603 -1510.276)" fill="#ebebeb"/>
                    <path id="Path_13698" data-name="Path 13698" d="M2223.671,1469.288h46.882v-.719h-45.8v-33.735h45.8v-.718h-46.882Z" transform="translate(-2125.603 -1428.897)" fill="#ebebeb"/>
                    <path id="Path_13699" data-name="Path 13699" d="M2033.875,1434.116h-82.9v35.172h82.9Zm-1.086,34.454H1952.06v-33.735h80.729Z" transform="translate(-1943.372 -1428.897)" fill="#ebebeb"/>
                    <path id="Path_13700" data-name="Path 13700" d="M2073.007,1575.255H1929.143V1419.29h89.417v-.189h7.564v.189h46.882v-.719h-45.8v-.188h-9.737v.188h-89.417v157.4h144.95Z" transform="translate(-1928.057 -1418.382)" fill="#ebebeb"/>
                    <path id="Path_13701" data-name="Path 13701" d="M1950.974,1807.406h82.9v-35.172h-82.9Zm1.086-34.454h80.729v33.735H1952.06Z" transform="translate(-1943.372 -1654.846)" fill="#ebebeb"/>
                    <path id="Path_13702" data-name="Path 13702" d="M2033.875,1555.9h-82.9v66.542h82.9Zm-1.086,65.823H1952.06v-65.1h80.729Z" transform="translate(-1943.372 -1510.276)" fill="#ebebeb"/>
                  </g>
                </g>
                <g id="Group_10286" data-name="Group 10286" transform="translate(0 240.974)">
                  <path id="Path_13703" data-name="Path 13703" d="M1075.619,1943.516h-536.8v88.177h-.642v35.62h537.441v-120.04h.005Z" transform="translate(-538.173 -1943.211)" fill="#f9f9f9"/>
                  <rect id="Rectangle_3182" data-name="Rectangle 3182" width="535.461" height="0.515" transform="translate(2.165 123.392)" fill="#f9f9f9"/>
                  <rect id="Rectangle_3183" data-name="Rectangle 3183" width="536.728" height="0.515" transform="translate(0.724)" fill="#f9f9f9"/>
                </g>
                <g id="Group_10287" data-name="Group 10287" transform="translate(32.41 4.531)">
                  <path id="Path_13704" data-name="Path 13704" d="M1637.111,1350.635v-76.888h-2.047v76.888c-6.38.391-11.4,4.393-11.4,9.281,0,5.147,5.561,9.319,12.421,9.319s12.421-4.172,12.421-9.319C1648.509,1355.028,1643.491,1351.026,1637.111,1350.635Z" transform="translate(-1295.972 -1273.747)" fill="#ffb2b0"/>
                  <path id="Path_13705" data-name="Path 13705" d="M649.313,1368.942v-76.888h-2.046v76.888c-6.38.391-11.4,4.393-11.4,9.281,0,5.148,5.561,9.32,12.421,9.32s12.421-4.172,12.421-9.32C660.711,1373.335,655.694,1369.333,649.313,1368.942Z" transform="translate(-635.869 -1285.981)" fill="#ffb2b0"/>
                  <path id="Path_13706" data-name="Path 13706" d="M997.078,1366.362v-55.9H995.59v55.9c-4.638.285-8.286,3.194-8.286,6.748,0,3.741,4.043,6.775,9.03,6.775s9.031-3.034,9.031-6.775C1005.365,1369.556,1001.717,1366.647,997.078,1366.362Z" transform="translate(-870.718 -1298.282)" fill="#ffb2b0"/>
                  <path id="Path_13707" data-name="Path 13707" d="M1940.871,1366.362v-55.9h-1.488v55.9c-4.639.285-8.287,3.194-8.287,6.748,0,3.741,4.043,6.775,9.031,6.775s9.031-3.034,9.031-6.775C1949.158,1369.556,1945.51,1366.647,1940.871,1366.362Z" transform="translate(-1501.415 -1298.282)" fill="#ffb2b0"/>
                </g>
              </g>
            </g>
          </g>
        </g>
      </g>
      <g id="Group_10304" data-name="Group 10304" transform="translate(311.721 239.67)">
        <g id="Group_10297" data-name="Group 10297" transform="translate(137.035)">
          <path id="Path_13708" data-name="Path 13708" d="M2164.08,2087.037h-33.493s5,3.975,17.62,3.975S2164.08,2087.037,2164.08,2087.037Z" transform="translate(-2119.652 -2037.816)" fill="#ebebeb"/>
          <g id="Group_10293" data-name="Group 10293" transform="translate(0 49.51)">
            <path id="Path_13709" data-name="Path 13709" d="M2098.25,2129.009l15.8-40.811-.625-.292-15.8,40.812Z" transform="translate(-2097.625 -2087.906)" fill="#ebebeb"/>
          </g>
          <g id="Group_10294" data-name="Group 10294" transform="translate(39.24 49.369)">
            <path id="Path_13710" data-name="Path 13710" d="M2226.617,2128.682l.653-.205-10.706-41-.653.205Z" transform="translate(-2215.911 -2087.48)" fill="#ebebeb"/>
          </g>
          <g id="Group_10295" data-name="Group 10295" transform="translate(32.77 50.384)">
            <path id="Path_13711" data-name="Path 13711" d="M2198.106,2130.64l.68-.035-1.7-40.066-.679.036Z" transform="translate(-2196.406 -2090.54)" fill="#ebebeb"/>
          </g>
          <g id="Group_10296" data-name="Group 10296" transform="translate(18.161 51.082)">
            <path id="Path_13712" data-name="Path 13712" d="M2153.039,2132.095l6.288-39.32-.668-.13-6.288,39.321Z" transform="translate(-2152.37 -2092.646)" fill="#ebebeb"/>
          </g>
          <path id="Path_13713" data-name="Path 13713" d="M2128.821,1989h28c15.248,0,22.386-36.677,21.371-42.986-1.5-9.318-17.872-9.318-22.37-2.61-3,4.474-7.5,20.323-10.166,30.39a12.058,12.058,0,0,1-11.067,8.932c-4.966.245-10.243.655-10.635,1.3C2123.31,1985.1,2123.2,1989,2128.821,1989Z" transform="translate(-2115.018 -1938.664)" fill="#ebebeb"/>
          <path id="Path_13714" data-name="Path 13714" d="M2124.024,1995.3l28.025-.559c15.246,0,23.792-33.63,22.775-39.94-.15-.941,3.074-.139,3.375,1.739,1.016,6.31-6.123,42.986-21.37,42.986h-28C2123.209,1999.521,2123.273,1995.3,2124.024,1995.3Z" transform="translate(-2115.026 -1949.18)" fill="#ebebeb"/>
        </g>
        <g id="Group_10302" data-name="Group 10302">
          <path id="Path_13715" data-name="Path 13715" d="M1741.343,2087.037h33.493s-5,3.975-17.62,3.975S1741.343,2087.037,1741.343,2087.037Z" transform="translate(-1722.502 -2037.816)" fill="#ebebeb"/>
          <g id="Group_10298" data-name="Group 10298" transform="translate(46.839 49.51)">
            <path id="Path_13716" data-name="Path 13716" d="M1841.545,2129.009l-15.8-40.811.625-.292,15.8,40.812Z" transform="translate(-1825.742 -2087.906)" fill="#ebebeb"/>
          </g>
          <g id="Group_10299" data-name="Group 10299" transform="translate(12.669 49.369)">
            <path id="Path_13717" data-name="Path 13717" d="M1723.393,2128.682l-.653-.205,10.706-41,.652.205Z" transform="translate(-1722.74 -2087.48)" fill="#ebebeb"/>
          </g>
          <g id="Group_10300" data-name="Group 10300" transform="translate(28.119 50.384)">
            <path id="Path_13718" data-name="Path 13718" d="M1769.993,2130.64l-.68-.035,1.7-40.066.679.036Z" transform="translate(-1769.313 -2090.54)" fill="#ebebeb"/>
          </g>
          <g id="Group_10301" data-name="Group 10301" transform="translate(38.151 51.082)">
            <path id="Path_13719" data-name="Path 13719" d="M1805.839,2132.095l-6.288-39.32.669-.13,6.287,39.321Z" transform="translate(-1799.551 -2092.646)" fill="#ebebeb"/>
          </g>
          <path id="Path_13720" data-name="Path 13720" d="M1734.015,1989h-28c-15.247,0-22.386-36.677-21.37-42.986,1.5-9.318,17.872-9.318,22.37-2.61,3,4.474,7.5,20.323,10.166,30.39a12.058,12.058,0,0,0,11.067,8.932c4.966.245,10.244.655,10.635,1.3C1739.526,1985.1,1739.632,1989,1734.015,1989Z" transform="translate(-1684.55 -1938.664)" fill="#ebebeb"/>
          <path id="Path_13721" data-name="Path 13721" d="M1738.82,1995.3l-28.025-.559c-15.246,0-23.792-33.63-22.775-39.94.15-.941-3.073-.139-3.375,1.739-1.016,6.31,6.123,42.986,21.37,42.986h28C1739.635,1999.521,1739.571,1995.3,1738.82,1995.3Z" transform="translate(-1684.55 -1949.18)" fill="#ebebeb"/>
        </g>
        <g id="Group_10303" data-name="Group 10303" transform="translate(48.441 27.014)">
          <path id="Path_13722" data-name="Path 13722" d="M1977.352,2021.78h-4.478c3.2.969,2.277,36.482,0,61.764h4.478C1975.518,2059.658,1975.16,2022.881,1977.352,2021.78Z" transform="translate(-1925.666 -2021.221)" fill="#ebebeb"/>
          <path id="Path_13723" data-name="Path 13723" d="M1966.916,2197.575h-3.363l-5.461,4.72h14.286Z" transform="translate(-1915.787 -2138.697)" fill="#ebebeb"/>
          <path id="Path_13724" data-name="Path 13724" d="M1929.6,2023.837h-84.949l5.466,1.679h74.017Z" transform="translate(-1839.979 -2022.595)" fill="#ebebeb"/>
          <rect id="Rectangle_3184" data-name="Rectangle 3184" width="94.042" height="1.68" fill="#ebebeb"/>
        </g>
      </g>
      <g id="Group_10316" data-name="Group 10316" transform="translate(85.969 193.531)">
        <g id="Group_10309" data-name="Group 10309" transform="translate(100.196)">
          <path id="Path_13725" data-name="Path 13725" d="M1193.305,1923.533h-24.489s3.655,2.907,12.884,2.907S1193.305,1923.533,1193.305,1923.533Z" transform="translate(-1160.821 -1887.544)" fill="#ebebeb"/>
          <g id="Group_10305" data-name="Group 10305" transform="translate(0 36.2)">
            <path id="Path_13726" data-name="Path 13726" d="M1145.173,1954.222l11.555-29.84-.457-.213-11.555,29.84Z" transform="translate(-1144.716 -1924.169)" fill="#ebebeb"/>
          </g>
          <g id="Group_10306" data-name="Group 10306" transform="translate(28.691 36.097)">
            <path id="Path_13727" data-name="Path 13727" d="M1239.03,1953.983l.477-.15-7.828-29.976-.477.15Z" transform="translate(-1231.203 -1923.857)" fill="#ebebeb"/>
          </g>
          <g id="Group_10307" data-name="Group 10307" transform="translate(23.96 36.839)">
            <path id="Path_13728" data-name="Path 13728" d="M1218.184,1955.415l.5-.026-1.243-29.295-.5.026Z" transform="translate(-1216.941 -1926.094)" fill="#ebebeb"/>
          </g>
          <g id="Group_10308" data-name="Group 10308" transform="translate(13.279 37.35)">
            <path id="Path_13729" data-name="Path 13729" d="M1185.233,1956.478l4.6-28.75-.489-.095-4.6,28.75Z" transform="translate(-1184.744 -1927.634)" fill="#ebebeb"/>
          </g>
          <path id="Path_13730" data-name="Path 13730" d="M1167.525,1851.855H1188c11.149,0,16.368-26.817,15.625-31.431-1.1-6.813-13.067-6.813-16.356-1.908-2.193,3.271-5.483,14.859-7.433,22.22a8.817,8.817,0,0,1-8.092,6.531c-3.631.179-7.49.479-7.776.952C1163.5,1849,1163.417,1851.855,1167.525,1851.855Z" transform="translate(-1157.432 -1815.047)" fill="#ebebeb"/>
          <path id="Path_13731" data-name="Path 13731" d="M1164.018,1856.455l20.491-.409c11.148,0,17.4-24.589,16.653-29.2-.11-.687,2.247-.1,2.468,1.271.743,4.614-4.477,31.43-15.626,31.43h-20.472C1163.422,1859.544,1163.468,1856.455,1164.018,1856.455Z" transform="translate(-1157.439 -1822.737)" fill="#ebebeb"/>
        </g>
        <g id="Group_10314" data-name="Group 10314">
          <path id="Path_13732" data-name="Path 13732" d="M884.211,1923.533H908.7s-3.654,2.907-12.883,2.907S884.211,1923.533,884.211,1923.533Z" transform="translate(-870.435 -1887.544)" fill="#ebebeb"/>
          <g id="Group_10310" data-name="Group 10310" transform="translate(34.248 36.2)">
            <path id="Path_13733" data-name="Path 13733" d="M957.477,1954.222l-11.556-29.84.457-.213,11.555,29.84Z" transform="translate(-945.921 -1924.169)" fill="#ebebeb"/>
          </g>
          <g id="Group_10311" data-name="Group 10311" transform="translate(9.264 36.097)">
            <path id="Path_13734" data-name="Path 13734" d="M871.087,1953.983l-.478-.15,7.828-29.976.477.15Z" transform="translate(-870.61 -1923.857)" fill="#ebebeb"/>
          </g>
          <g id="Group_10312" data-name="Group 10312" transform="translate(20.56 36.839)">
            <path id="Path_13735" data-name="Path 13735" d="M905.159,1955.415l-.5-.026,1.243-29.295.5.026Z" transform="translate(-904.662 -1926.094)" fill="#ebebeb"/>
          </g>
          <g id="Group_10313" data-name="Group 10313" transform="translate(27.895 37.35)">
            <path id="Path_13736" data-name="Path 13736" d="M931.369,1956.478l-4.6-28.75.489-.095,4.6,28.75Z" transform="translate(-926.772 -1927.634)" fill="#ebebeb"/>
          </g>
          <path id="Path_13737" data-name="Path 13737" d="M878.853,1851.855H858.381c-11.148,0-16.368-26.817-15.625-31.431,1.1-6.813,13.068-6.813,16.357-1.908,2.194,3.271,5.483,14.859,7.433,22.22a8.817,8.817,0,0,0,8.092,6.531c3.63.179,7.49.479,7.776.952C882.883,1849,882.961,1851.855,878.853,1851.855Z" transform="translate(-842.686 -1815.047)" fill="#ebebeb"/>
          <path id="Path_13738" data-name="Path 13738" d="M882.367,1856.455l-20.491-.409c-11.148,0-17.4-24.589-16.652-29.2.11-.687-2.247-.1-2.468,1.271-.742,4.614,4.477,31.43,15.625,31.43h20.473C882.963,1859.544,882.916,1856.455,882.367,1856.455Z" transform="translate(-842.686 -1822.737)" fill="#ebebeb"/>
        </g>
        <g id="Group_10315" data-name="Group 10315" transform="translate(35.419 19.752)">
          <path id="Path_13739" data-name="Path 13739" d="M1056.775,1875.819H1053.5c2.342.709,1.665,26.675,0,45.16h3.274C1055.434,1903.515,1055.172,1876.624,1056.775,1875.819Z" transform="translate(-1018.984 -1875.41)" fill="#ebebeb"/>
          <path id="Path_13740" data-name="Path 13740" d="M1049.144,2004.356h-2.459l-3.994,3.452h10.446Z" transform="translate(-1011.76 -1961.306)" fill="#ebebeb"/>
          <path id="Path_13741" data-name="Path 13741" d="M1021.859,1877.323H959.746l4,1.228h54.119Z" transform="translate(-956.331 -1876.415)" fill="#ebebeb"/>
          <rect id="Rectangle_3185" data-name="Rectangle 3185" width="68.761" height="1.228" fill="#ebebeb"/>
        </g>
      </g>
      <g id="Group_10353" data-name="Group 10353" transform="translate(28.058 113.958)">
        <g id="Group_10325" data-name="Group 10325" transform="translate(0 21.484)">
          <g id="Group_10317" data-name="Group 10317">
            <rect id="Rectangle_3186" data-name="Rectangle 3186" width="47.138" height="1.684" transform="translate(0.43 0.358)" fill="#ebebeb"/>
            <path id="Path_13742" data-name="Path 13742" d="M670.748,1648.046h-48v-2.4h48Zm-47.138-.716h46.279v-.968H623.61Z" transform="translate(-622.751 -1645.646)" fill="#ebebeb"/>
          </g>
          <g id="Group_10318" data-name="Group 10318" transform="translate(0 25.398)">
            <rect id="Rectangle_3187" data-name="Rectangle 3187" width="47.138" height="1.684" transform="translate(0.43 0.358)" fill="#ebebeb"/>
            <path id="Path_13743" data-name="Path 13743" d="M670.748,1724.606h-48v-2.4h48Zm-47.138-.716h46.279v-.968H623.61Z" transform="translate(-622.751 -1722.206)" fill="#ebebeb"/>
          </g>
          <g id="Group_10319" data-name="Group 10319" transform="translate(0 50.796)">
            <rect id="Rectangle_3188" data-name="Rectangle 3188" width="47.138" height="1.684" transform="translate(0.43 0.358)" fill="#ebebeb"/>
            <path id="Path_13744" data-name="Path 13744" d="M670.748,1801.165h-48v-2.4h48Zm-47.138-.716h46.279v-.968H623.61Z" transform="translate(-622.751 -1798.765)" fill="#ebebeb"/>
          </g>
          <g id="Group_10324" data-name="Group 10324" transform="translate(0 0.562)">
            <g id="Group_10320" data-name="Group 10320" transform="translate(0 76.194)">
              <rect id="Rectangle_3189" data-name="Rectangle 3189" width="47.138" height="1.684" transform="translate(0.43 0.358)" fill="#ebebeb"/>
              <path id="Path_13745" data-name="Path 13745" d="M670.748,1879.416h-48v-2.4h48Zm-47.138-.716h46.279v-.968H623.61Z" transform="translate(-622.751 -1877.016)" fill="#ebebeb"/>
            </g>
            <g id="Group_10321" data-name="Group 10321" transform="translate(0 100.502)">
              <rect id="Rectangle_3190" data-name="Rectangle 3190" width="47.138" height="1.684" transform="translate(0.43 0.358)" fill="#ebebeb"/>
              <path id="Path_13746" data-name="Path 13746" d="M670.748,1952.691h-48v-2.4h48Zm-47.138-.716h46.279v-.968H623.61Z" transform="translate(-622.751 -1950.291)" fill="#ebebeb"/>
            </g>
            <g id="Group_10322" data-name="Group 10322">
              <rect id="Rectangle_3191" data-name="Rectangle 3191" width="2.525" height="122.178" transform="translate(0.43 0.358)" fill="#ebebeb"/>
              <path id="Path_13747" data-name="Path 13747" d="M626.135,1770.233h-3.384V1647.339h3.384Zm-2.525-.716h1.666V1648.055H623.61Z" transform="translate(-622.751 -1647.339)" fill="#ebebeb"/>
            </g>
            <g id="Group_10323" data-name="Group 10323" transform="translate(44.613)">
              <rect id="Rectangle_3192" data-name="Rectangle 3192" width="2.525" height="122.178" transform="translate(0.43 0.358)" fill="#ebebeb"/>
              <path id="Path_13748" data-name="Path 13748" d="M760.616,1770.233h-3.385V1647.339h3.385Zm-2.525-.716h1.666V1648.055H758.09Z" transform="translate(-757.231 -1647.339)" fill="#ebebeb"/>
            </g>
          </g>
        </g>
        <g id="Group_10336" data-name="Group 10336" transform="translate(8.449 27.471)">
          <g id="Group_10327" data-name="Group 10327">
            <g id="Group_10326" data-name="Group 10326">
              <rect id="Rectangle_3193" data-name="Rectangle 3193" width="4.938" height="19.411" transform="translate(0.43 0.358)" fill="#ebebeb"/>
              <path id="Path_13749" data-name="Path 13749" d="M654.017,1683.82h-5.8v-20.127h5.8Zm-4.938-.716h4.079v-18.695h-4.079Z" transform="translate(-648.22 -1663.693)" fill="#ebebeb"/>
            </g>
            <path id="Path_13750" data-name="Path 13750" d="M655.307,1675.435a1.654,1.654,0,1,1-1.627-1.356A1.511,1.511,0,0,1,655.307,1675.435Z" transform="translate(-650.781 -1670.633)" fill="#ebebeb"/>
          </g>
          <g id="Group_10329" data-name="Group 10329" transform="translate(5.804)">
            <g id="Group_10328" data-name="Group 10328">
              <rect id="Rectangle_3194" data-name="Rectangle 3194" width="4.938" height="19.411" transform="translate(0.43 0.358)" fill="#ebebeb"/>
              <path id="Path_13751" data-name="Path 13751" d="M671.514,1683.82h-5.8v-20.127h5.8Zm-4.939-.716h4.079v-18.695h-4.079Z" transform="translate(-665.717 -1663.693)" fill="#ebebeb"/>
            </g>
            <path id="Path_13752" data-name="Path 13752" d="M672.8,1675.435a1.654,1.654,0,1,1-1.627-1.356A1.51,1.51,0,0,1,672.8,1675.435Z" transform="translate(-668.278 -1670.633)" fill="#ebebeb"/>
          </g>
          <g id="Group_10331" data-name="Group 10331" transform="translate(11.609)">
            <g id="Group_10330" data-name="Group 10330">
              <rect id="Rectangle_3195" data-name="Rectangle 3195" width="4.938" height="19.411" transform="translate(0.43 0.358)" fill="#ebebeb"/>
              <path id="Path_13753" data-name="Path 13753" d="M689.011,1683.82h-5.8v-20.127h5.8Zm-4.938-.716h4.079v-18.695h-4.079Z" transform="translate(-683.214 -1663.693)" fill="#ebebeb"/>
            </g>
            <path id="Path_13754" data-name="Path 13754" d="M690.3,1675.435a1.654,1.654,0,1,1-1.627-1.356A1.511,1.511,0,0,1,690.3,1675.435Z" transform="translate(-685.775 -1670.633)" fill="#ebebeb"/>
          </g>
          <g id="Group_10333" data-name="Group 10333" transform="translate(17.413)">
            <g id="Group_10332" data-name="Group 10332">
              <rect id="Rectangle_3196" data-name="Rectangle 3196" width="4.938" height="19.411" transform="translate(0.43 0.358)" fill="#ebebeb"/>
              <path id="Path_13755" data-name="Path 13755" d="M706.508,1683.82h-5.8v-20.127h5.8Zm-4.938-.716h4.079v-18.695h-4.079Z" transform="translate(-700.71 -1663.693)" fill="#ebebeb"/>
            </g>
            <path id="Path_13756" data-name="Path 13756" d="M707.8,1675.435a1.654,1.654,0,1,1-1.627-1.356A1.511,1.511,0,0,1,707.8,1675.435Z" transform="translate(-703.271 -1670.633)" fill="#ebebeb"/>
          </g>
          <g id="Group_10335" data-name="Group 10335" transform="translate(23.218)">
            <g id="Group_10334" data-name="Group 10334">
              <rect id="Rectangle_3197" data-name="Rectangle 3197" width="4.938" height="19.411" transform="translate(0.429 0.358)" fill="#ebebeb"/>
              <path id="Path_13757" data-name="Path 13757" d="M724.005,1683.82h-5.8v-20.127h5.8Zm-4.939-.716h4.079v-18.695h-4.079Z" transform="translate(-718.208 -1663.693)" fill="#ebebeb"/>
            </g>
            <path id="Path_13758" data-name="Path 13758" d="M725.295,1675.435a1.654,1.654,0,1,1-1.627-1.356A1.511,1.511,0,0,1,725.295,1675.435Z" transform="translate(-720.769 -1670.633)" fill="#ebebeb"/>
          </g>
        </g>
        <path id="Path_13759" data-name="Path 13759" d="M649.51,1833.755a8.047,8.047,0,0,1,.769-3.567H644.36a8.047,8.047,0,0,1,.769,3.567c0,2.158-2.594,6.142-2.594,8.8s2.749,3.528,4.785,3.528,4.785-.871,4.785-3.528S649.51,1835.913,649.51,1833.755Z" transform="translate(-635.972 -1747.484)" fill="#ebebeb"/>
        <g id="Group_10338" data-name="Group 10338" transform="translate(25.124 55.22)">
          <g id="Group_10337" data-name="Group 10337" transform="translate(0.733)">
            <path id="Path_13760" data-name="Path 13760" d="M719.881,1756.982c1.6-3.123-1.952-3.065-1.682-3.885.507-1.539,2.421.133,3.2-.641s-1.915-3.189-.506-4.026.916,1.994,2.133,1.793.493-3.191,1.929-2.857c1.08.251-.2,2.12-.085,2.994s2.345-.4,2.384.847-2.655.7-2.972,1.648,2.9,1.144,1.77,1.945-3.251-.159-3.811.675S719.2,1758.308,719.881,1756.982Z" transform="translate(-712.383 -1747.339)" fill="#ebebeb"/>
            <path id="Path_13761" data-name="Path 13761" d="M707.211,1764.661c-1.5-3.156-3.974-1.034-4.474-1.775-.938-1.391,1.833-1.324,1.731-2.33s-4.052-1.144-3.757-2.565,2.333.881,3.03.024-2.343-2.557-1.04-3.162c.979-.454,1.645,1.626,2.466,2.177s1.33-1.659,2.409-.8-1.3,2.055-.722,2.914,3.024-.885,2.9.345-2.444,1.794-2.138,2.714S707.848,1766,707.211,1764.661Z" transform="translate(-700.695 -1752.317)" fill="#ebebeb"/>
          </g>
          <path id="Path_13762" data-name="Path 13762" d="M709.554,1771.363h-8.193s-2.876,2.058-2.876,4.49,1.792,4.958,6.973,4.958,6.973-2.526,6.973-4.958S709.554,1771.363,709.554,1771.363Z" transform="translate(-698.485 -1763.393)" fill="#ebebeb"/>
        </g>
        <g id="Group_10339" data-name="Group 10339" transform="translate(27.134 87.512)">
          <rect id="Rectangle_3198" data-name="Rectangle 3198" width="7.562" height="8.56" transform="translate(2.339 2.526)" fill="#ebebeb"/>
          <ellipse id="Ellipse_528" data-name="Ellipse 528" cx="5.968" cy="2.526" rx="5.968" ry="2.526" fill="#ebebeb"/>
        </g>
        <g id="Group_10340" data-name="Group 10340" transform="translate(21.868 13.623)">
          <rect id="Rectangle_3199" data-name="Rectangle 3199" width="5.607" height="6.346" transform="translate(1.734 1.873)" fill="#ebebeb"/>
          <path id="Path_13763" data-name="Path 13763" d="M697.518,1623.823c0,1.034-1.981,1.873-4.424,1.873s-4.424-.838-4.424-1.873,1.981-1.873,4.424-1.873S697.518,1622.789,697.518,1623.823Z" transform="translate(-688.669 -1621.95)" fill="#ebebeb"/>
        </g>
        <g id="Group_10342" data-name="Group 10342" transform="translate(3.123)">
          <g id="Group_10341" data-name="Group 10341">
            <path id="Path_13764" data-name="Path 13764" d="M661.485,1601.551s-1.939-5.613,6.646-11.927c0,0-7.351,6.736-4.938,11.927Z" transform="translate(-651.633 -1586.725)" fill="#ebebeb"/>
            <path id="Path_13765" data-name="Path 13765" d="M658.472,1596.986s-4.447-6.252,3.517-16.1c0,0-6.319,10.032-1.46,15.654Z" transform="translate(-648.918 -1580.886)" fill="#ebebeb"/>
            <path id="Path_13766" data-name="Path 13766" d="M643.07,1601.551s1.94-5.613-6.646-11.927c0,0,7.351,6.736,4.938,11.927Z" transform="translate(-635.011 -1586.725)" fill="#ebebeb"/>
            <path id="Path_13767" data-name="Path 13767" d="M651.308,1598.59s3.573-5.025-2.829-12.938c0,0,5.08,8.061,1.176,12.579Z" transform="translate(-643.067 -1584.071)" fill="#ebebeb"/>
            <path id="Path_13768" data-name="Path 13768" d="M660.655,1609.5s-1.676-5.671,7.2-11.7c0,0-7.66,6.492-5.491,11.758Z" transform="translate(-651.12 -1592.187)" fill="#ebebeb"/>
            <path id="Path_13769" data-name="Path 13769" d="M639.362,1607.425s1.677-5.671-7.2-11.7c0,0,7.66,6.492,5.491,11.758Z" transform="translate(-632.165 -1590.8)" fill="#ebebeb"/>
          </g>
          <path id="Path_13770" data-name="Path 13770" d="M645.265,1619.655h-5.8l2.664,8.981h6.282l2.664-8.981Z" transform="translate(-637.041 -1606.793)" fill="#ebebeb"/>
        </g>
        <g id="Group_10352" data-name="Group 10352" transform="translate(4.504 65.621)">
          <g id="Group_10347" data-name="Group 10347" transform="translate(0 0)">
            <g id="Group_10343" data-name="Group 10343" transform="translate(0.43 4.751)">
              <rect id="Rectangle_3200" data-name="Rectangle 3200" width="2.371" height="17.767" transform="translate(0 2.371) rotate(-90)" fill="#ebebeb"/>
            </g>
            <g id="Group_10345" data-name="Group 10345" transform="translate(0 2.013)">
              <g id="Group_10344" data-name="Group 10344">
                <rect id="Rectangle_3201" data-name="Rectangle 3201" width="2.371" height="17.767" transform="translate(0.43 2.729) rotate(-90)" fill="#ebebeb"/>
                <path id="Path_13771" data-name="Path 13771" d="M654.954,1787.849H636.328v-3.088h18.626Zm-17.767-.716h16.908v-1.656H637.187Z" transform="translate(-636.328 -1784.762)" fill="#ebebeb"/>
              </g>
            </g>
            <g id="Group_10346" data-name="Group 10346" transform="translate(0.43)">
              <rect id="Rectangle_3202" data-name="Rectangle 3202" width="2.371" height="17.767" transform="translate(0 2.371) rotate(-90)" fill="#ebebeb"/>
            </g>
          </g>
          <g id="Group_10348" data-name="Group 10348" transform="translate(10.893 0)">
            <rect id="Rectangle_3203" data-name="Rectangle 3203" width="0.128" height="2.371" fill="#ebebeb"/>
          </g>
          <g id="Group_10349" data-name="Group 10349" transform="translate(12.324 0)">
            <rect id="Rectangle_3204" data-name="Rectangle 3204" width="0.128" height="2.371" fill="#ebebeb"/>
          </g>
          <g id="Group_10350" data-name="Group 10350" transform="translate(13.755 0)">
            <rect id="Rectangle_3205" data-name="Rectangle 3205" width="0.128" height="2.371" fill="#ebebeb"/>
          </g>
          <g id="Group_10351" data-name="Group 10351" transform="translate(15.186 0)">
            <rect id="Rectangle_3206" data-name="Rectangle 3206" width="0.127" height="2.371" fill="#ebebeb"/>
          </g>
          <rect id="Rectangle_3207" data-name="Rectangle 3207" width="8.361" height="0.391" transform="translate(8.965 5.155)" fill="#ebebeb"/>
          <rect id="Rectangle_3208" data-name="Rectangle 3208" width="8.361" height="0.391" transform="translate(8.965 5.741)" fill="#ebebeb"/>
          <rect id="Rectangle_3209" data-name="Rectangle 3209" width="8.361" height="0.391" transform="translate(8.965 6.327)" fill="#ebebeb"/>
        </g>
      </g>
      <g id="Group_10390" data-name="Group 10390" transform="translate(417.054 101.064)">
        <g id="Group_10362" data-name="Group 10362" transform="translate(0 21.484)">
          <g id="Group_10354" data-name="Group 10354">
            <rect id="Rectangle_3210" data-name="Rectangle 3210" width="47.138" height="1.684" transform="translate(0.43 0.358)" fill="#ebebeb"/>
            <path id="Path_13772" data-name="Path 13772" d="M2050.063,1611.749h-48v-2.4h48Zm-47.138-.716H2049.2v-.968h-46.279Z" transform="translate(-2002.066 -1609.349)" fill="#ebebeb"/>
          </g>
          <g id="Group_10355" data-name="Group 10355" transform="translate(0 25.399)">
            <rect id="Rectangle_3211" data-name="Rectangle 3211" width="47.138" height="1.684" transform="translate(0.43 0.358)" fill="#ebebeb"/>
            <path id="Path_13773" data-name="Path 13773" d="M2050.063,1688.31h-48v-2.4h48Zm-47.138-.716H2049.2v-.968h-46.279Z" transform="translate(-2002.066 -1685.91)" fill="#ebebeb"/>
          </g>
          <g id="Group_10356" data-name="Group 10356" transform="translate(0 50.796)">
            <rect id="Rectangle_3212" data-name="Rectangle 3212" width="47.138" height="1.684" transform="translate(0.43 0.358)" fill="#ebebeb"/>
            <path id="Path_13774" data-name="Path 13774" d="M2050.063,1764.869h-48v-2.4h48Zm-47.138-.716H2049.2v-.968h-46.279Z" transform="translate(-2002.066 -1762.469)" fill="#ebebeb"/>
          </g>
          <g id="Group_10361" data-name="Group 10361" transform="translate(0 0.562)">
            <g id="Group_10357" data-name="Group 10357" transform="translate(0 76.194)">
              <rect id="Rectangle_3213" data-name="Rectangle 3213" width="47.138" height="1.684" transform="translate(0.43 0.358)" fill="#ebebeb"/>
              <path id="Path_13775" data-name="Path 13775" d="M2050.063,1843.119h-48v-2.4h48Zm-47.138-.716H2049.2v-.968h-46.279Z" transform="translate(-2002.066 -1840.719)" fill="#ebebeb"/>
            </g>
            <g id="Group_10358" data-name="Group 10358" transform="translate(0 100.502)">
              <rect id="Rectangle_3214" data-name="Rectangle 3214" width="47.138" height="1.684" transform="translate(0.43 0.358)" fill="#ebebeb"/>
              <path id="Path_13776" data-name="Path 13776" d="M2050.063,1916.394h-48v-2.4h48Zm-47.138-.716H2049.2v-.967h-46.279Z" transform="translate(-2002.066 -1913.994)" fill="#ebebeb"/>
            </g>
            <g id="Group_10359" data-name="Group 10359">
              <rect id="Rectangle_3215" data-name="Rectangle 3215" width="2.525" height="122.178" transform="translate(0.43 0.358)" fill="#ebebeb"/>
              <path id="Path_13777" data-name="Path 13777" d="M2005.45,1733.936h-3.384V1611.042h3.384Zm-2.525-.716h1.666V1611.758h-1.666Z" transform="translate(-2002.066 -1611.042)" fill="#ebebeb"/>
            </g>
            <g id="Group_10360" data-name="Group 10360" transform="translate(44.613)">
              <rect id="Rectangle_3216" data-name="Rectangle 3216" width="2.525" height="122.178" transform="translate(0.43 0.358)" fill="#ebebeb"/>
              <path id="Path_13778" data-name="Path 13778" d="M2139.931,1733.936h-3.385V1611.042h3.385Zm-2.525-.716h1.666V1611.758h-1.666Z" transform="translate(-2136.546 -1611.042)" fill="#ebebeb"/>
            </g>
          </g>
        </g>
        <g id="Group_10373" data-name="Group 10373" transform="translate(8.449 27.471)">
          <g id="Group_10364" data-name="Group 10364">
            <g id="Group_10363" data-name="Group 10363">
              <rect id="Rectangle_3217" data-name="Rectangle 3217" width="4.938" height="19.411" transform="translate(0.429 0.358)" fill="#ebebeb"/>
              <path id="Path_13779" data-name="Path 13779" d="M2033.333,1647.524h-5.8V1627.4h5.8Zm-4.938-.716h4.079v-18.7H2028.4Z" transform="translate(-2027.536 -1627.397)" fill="#ebebeb"/>
            </g>
            <path id="Path_13780" data-name="Path 13780" d="M2034.623,1639.138a1.655,1.655,0,1,1-1.628-1.356A1.511,1.511,0,0,1,2034.623,1639.138Z" transform="translate(-2030.096 -1634.337)" fill="#ebebeb"/>
          </g>
          <g id="Group_10366" data-name="Group 10366" transform="translate(5.804)">
            <g id="Group_10365" data-name="Group 10365">
              <rect id="Rectangle_3218" data-name="Rectangle 3218" width="4.938" height="19.411" transform="translate(0.43 0.358)" fill="#ebebeb"/>
              <path id="Path_13781" data-name="Path 13781" d="M2050.829,1647.524h-5.8V1627.4h5.8Zm-4.938-.716h4.079v-18.7h-4.079Z" transform="translate(-2045.032 -1627.397)" fill="#ebebeb"/>
            </g>
            <path id="Path_13782" data-name="Path 13782" d="M2052.12,1639.138a1.654,1.654,0,1,1-1.627-1.356A1.511,1.511,0,0,1,2052.12,1639.138Z" transform="translate(-2047.594 -1634.337)" fill="#ebebeb"/>
          </g>
          <g id="Group_10368" data-name="Group 10368" transform="translate(11.609)">
            <g id="Group_10367" data-name="Group 10367">
              <rect id="Rectangle_3219" data-name="Rectangle 3219" width="4.938" height="19.411" transform="translate(0.43 0.358)" fill="#ebebeb"/>
              <path id="Path_13783" data-name="Path 13783" d="M2068.327,1647.524h-5.8V1627.4h5.8Zm-4.938-.716h4.079v-18.7h-4.079Z" transform="translate(-2062.529 -1627.397)" fill="#ebebeb"/>
            </g>
            <path id="Path_13784" data-name="Path 13784" d="M2069.616,1639.138a1.655,1.655,0,1,1-1.627-1.356A1.511,1.511,0,0,1,2069.616,1639.138Z" transform="translate(-2065.09 -1634.337)" fill="#ebebeb"/>
          </g>
          <g id="Group_10370" data-name="Group 10370" transform="translate(17.413)">
            <g id="Group_10369" data-name="Group 10369">
              <rect id="Rectangle_3220" data-name="Rectangle 3220" width="4.938" height="19.411" transform="translate(0.43 0.358)" fill="#ebebeb"/>
              <path id="Path_13785" data-name="Path 13785" d="M2085.823,1647.524h-5.8V1627.4h5.8Zm-4.939-.716h4.08v-18.7h-4.08Z" transform="translate(-2080.026 -1627.397)" fill="#ebebeb"/>
            </g>
            <path id="Path_13786" data-name="Path 13786" d="M2087.113,1639.138a1.655,1.655,0,1,1-1.628-1.356A1.511,1.511,0,0,1,2087.113,1639.138Z" transform="translate(-2082.586 -1634.337)" fill="#ebebeb"/>
          </g>
          <g id="Group_10372" data-name="Group 10372" transform="translate(23.218)">
            <g id="Group_10371" data-name="Group 10371">
              <rect id="Rectangle_3221" data-name="Rectangle 3221" width="4.938" height="19.411" transform="translate(0.43 0.358)" fill="#ebebeb"/>
              <path id="Path_13787" data-name="Path 13787" d="M2103.321,1647.524h-5.8V1627.4h5.8Zm-4.938-.716h4.079v-18.7h-4.079Z" transform="translate(-2097.523 -1627.397)" fill="#ebebeb"/>
            </g>
            <path id="Path_13788" data-name="Path 13788" d="M2104.61,1639.138a1.655,1.655,0,1,1-1.628-1.356A1.511,1.511,0,0,1,2104.61,1639.138Z" transform="translate(-2100.084 -1634.337)" fill="#ebebeb"/>
          </g>
        </g>
        <path id="Path_13789" data-name="Path 13789" d="M2028.826,1797.458a8.044,8.044,0,0,1,.769-3.567h-5.919a8.045,8.045,0,0,1,.769,3.567c0,2.158-2.594,6.142-2.594,8.8s2.75,3.528,4.785,3.528,4.785-.872,4.785-3.528S2028.826,1799.615,2028.826,1797.458Z" transform="translate(-2015.287 -1711.187)" fill="#ebebeb"/>
        <g id="Group_10375" data-name="Group 10375" transform="translate(25.124 55.22)">
          <g id="Group_10374" data-name="Group 10374" transform="translate(0.733)">
            <path id="Path_13790" data-name="Path 13790" d="M2099.2,1720.686c1.6-3.123-1.952-3.065-1.682-3.885.507-1.538,2.42.133,3.2-.641s-1.915-3.189-.506-4.026.915,1.994,2.133,1.793.493-3.191,1.929-2.857c1.08.251-.2,2.12-.084,2.993s2.344-.4,2.384.847-2.656.7-2.972,1.648,2.9,1.143,1.77,1.945-3.251-.158-3.811.676S2098.519,1722.012,2099.2,1720.686Z" transform="translate(-2091.698 -1711.044)" fill="#ebebeb"/>
            <path id="Path_13791" data-name="Path 13791" d="M2086.526,1728.364c-1.5-3.155-3.974-1.034-4.473-1.775-.938-1.391,1.833-1.324,1.73-2.33s-4.052-1.144-3.757-2.565,2.334.88,3.03.024-2.343-2.557-1.04-3.162c.979-.455,1.645,1.626,2.466,2.177s1.329-1.659,2.409-.8-1.3,2.054-.721,2.915,3.024-.886,2.9.345-2.444,1.794-2.138,2.714S2087.163,1729.7,2086.526,1728.364Z" transform="translate(-2080.01 -1716.021)" fill="#ebebeb"/>
          </g>
          <path id="Path_13792" data-name="Path 13792" d="M2088.869,1735.067h-8.193s-2.876,2.058-2.876,4.49,1.792,4.958,6.973,4.958,6.972-2.526,6.972-4.958S2088.869,1735.067,2088.869,1735.067Z" transform="translate(-2077.8 -1727.098)" fill="#ebebeb"/>
        </g>
        <g id="Group_10376" data-name="Group 10376" transform="translate(27.134 87.512)">
          <rect id="Rectangle_3222" data-name="Rectangle 3222" width="7.562" height="8.56" transform="translate(2.339 2.526)" fill="#ebebeb"/>
          <ellipse id="Ellipse_529" data-name="Ellipse 529" cx="5.968" cy="2.526" rx="5.968" ry="2.526" fill="#ebebeb"/>
        </g>
        <g id="Group_10377" data-name="Group 10377" transform="translate(21.868 13.623)">
          <rect id="Rectangle_3223" data-name="Rectangle 3223" width="5.607" height="6.346" transform="translate(1.734 1.873)" fill="#ebebeb"/>
          <path id="Path_13793" data-name="Path 13793" d="M2076.833,1587.526c0,1.035-1.981,1.873-4.425,1.873s-4.424-.838-4.424-1.873,1.981-1.873,4.424-1.873S2076.833,1586.492,2076.833,1587.526Z" transform="translate(-2067.984 -1585.654)" fill="#ebebeb"/>
        </g>
        <g id="Group_10379" data-name="Group 10379" transform="translate(3.123)">
          <g id="Group_10378" data-name="Group 10378">
            <path id="Path_13794" data-name="Path 13794" d="M2040.8,1565.254s-1.94-5.613,6.646-11.927c0,0-7.351,6.735-4.938,11.927Z" transform="translate(-2030.948 -1550.428)" fill="#ebebeb"/>
            <path id="Path_13795" data-name="Path 13795" d="M2037.787,1560.689s-4.447-6.253,3.517-16.1c0,0-6.319,10.032-1.46,15.654Z" transform="translate(-2028.233 -1544.589)" fill="#ebebeb"/>
            <path id="Path_13796" data-name="Path 13796" d="M2022.385,1565.254s1.94-5.613-6.646-11.927c0,0,7.351,6.735,4.939,11.927Z" transform="translate(-2014.326 -1550.428)" fill="#ebebeb"/>
            <path id="Path_13797" data-name="Path 13797" d="M2030.623,1562.293s3.573-5.025-2.829-12.938c0,0,5.08,8.061,1.176,12.579Z" transform="translate(-2022.382 -1547.774)" fill="#ebebeb"/>
            <path id="Path_13798" data-name="Path 13798" d="M2039.971,1573.2s-1.677-5.671,7.2-11.7c0,0-7.66,6.492-5.491,11.758Z" transform="translate(-2030.435 -1555.89)" fill="#ebebeb"/>
            <path id="Path_13799" data-name="Path 13799" d="M2018.678,1571.128s1.676-5.671-7.2-11.7c0,0,7.66,6.492,5.491,11.758Z" transform="translate(-2011.48 -1554.503)" fill="#ebebeb"/>
          </g>
          <path id="Path_13800" data-name="Path 13800" d="M2024.581,1583.358h-5.8l2.664,8.98h6.281l2.664-8.98Z" transform="translate(-2016.356 -1570.497)" fill="#ebebeb"/>
        </g>
        <g id="Group_10389" data-name="Group 10389" transform="translate(4.504 65.621)">
          <g id="Group_10384" data-name="Group 10384" transform="translate(0 0)">
            <g id="Group_10380" data-name="Group 10380" transform="translate(0.429 4.751)">
              <rect id="Rectangle_3224" data-name="Rectangle 3224" width="2.371" height="17.767" transform="translate(0 2.371) rotate(-90)" fill="#ebebeb"/>
            </g>
            <g id="Group_10382" data-name="Group 10382" transform="translate(0 2.013)">
              <g id="Group_10381" data-name="Group 10381">
                <rect id="Rectangle_3225" data-name="Rectangle 3225" width="2.371" height="17.767" transform="translate(0.429 2.729) rotate(-90)" fill="#ebebeb"/>
                <path id="Path_13801" data-name="Path 13801" d="M2034.269,1751.552h-18.625v-3.088h18.625Zm-17.766-.716h16.907v-1.655H2016.5Z" transform="translate(-2015.644 -1748.465)" fill="#ebebeb"/>
              </g>
            </g>
            <g id="Group_10383" data-name="Group 10383" transform="translate(0.429)">
              <rect id="Rectangle_3226" data-name="Rectangle 3226" width="2.371" height="17.767" transform="translate(0 2.371) rotate(-90)" fill="#ebebeb"/>
            </g>
          </g>
          <g id="Group_10385" data-name="Group 10385" transform="translate(10.893 0)">
            <rect id="Rectangle_3227" data-name="Rectangle 3227" width="0.128" height="2.371" fill="#ebebeb"/>
          </g>
          <g id="Group_10386" data-name="Group 10386" transform="translate(12.324 0)">
            <rect id="Rectangle_3228" data-name="Rectangle 3228" width="0.128" height="2.371" fill="#ebebeb"/>
          </g>
          <g id="Group_10387" data-name="Group 10387" transform="translate(13.755 0)">
            <rect id="Rectangle_3229" data-name="Rectangle 3229" width="0.128" height="2.371" fill="#ebebeb"/>
          </g>
          <g id="Group_10388" data-name="Group 10388" transform="translate(15.186 0)">
            <rect id="Rectangle_3230" data-name="Rectangle 3230" width="0.127" height="2.371" fill="#ebebeb"/>
          </g>
          <rect id="Rectangle_3231" data-name="Rectangle 3231" width="8.361" height="0.391" transform="translate(8.965 5.155)" fill="#ebebeb"/>
          <rect id="Rectangle_3232" data-name="Rectangle 3232" width="8.361" height="0.391" transform="translate(8.965 5.741)" fill="#ebebeb"/>
          <rect id="Rectangle_3233" data-name="Rectangle 3233" width="8.361" height="0.391" transform="translate(8.965 6.327)" fill="#ebebeb"/>
        </g>
      </g>
      <g id="Group_10398" data-name="Group 10398" transform="translate(482.8 184.947)">
        <g id="Group_10397" data-name="Group 10397">
          <g id="Group_10391" data-name="Group 10391" transform="translate(9.541)">
            <path id="Path_13802" data-name="Path 13802" d="M2230.523,1814.817s-.789-5.314-1.147-6.483c-.462-1.51-.689-3.76.582-5.083s1.463-4.439,1.463-4.915.477-7.625,5.719-6.566c0,0,2.171.529,1.112,4.342,0,0-1.112,2.276.291,3.706a5.805,5.805,0,0,1,0,7.89c-2.621,3.177-1.875,4.34-1.456,5.56,1.909,5.561-2.154,10.667-2.594,12.03s-.97,3.6-.528,4.885l-1.542.029Z" transform="translate(-2229.011 -1791.663)" fill="#ebebeb"/>
          </g>
          <g id="Group_10392" data-name="Group 10392" transform="translate(13.352 5.381)">
            <path id="Path_13803" data-name="Path 13803" d="M2240.92,1841.254a.254.254,0,0,0,.047,0,.233.233,0,0,0,.181-.275c-.589-2.868.445-7.981.456-8.032.571-2.176.735-4.956-.209-12.045a27.207,27.207,0,0,1,.287-9.3,15.577,15.577,0,0,1,1.077-3.378.233.233,0,0,0-.416-.211,15.654,15.654,0,0,0-1.113,3.47,27.668,27.668,0,0,0-.3,9.48c.932,6.989.761,9.8.218,11.877-.047.225-1.067,5.269-.458,8.231A.233.233,0,0,0,2240.92,1841.254Z" transform="translate(-2240.499 -1807.882)" fill="#fff"/>
          </g>
          <g id="Group_10393" data-name="Group 10393" transform="translate(14.617 20.421)">
            <path id="Path_13804" data-name="Path 13804" d="M2246.137,1871.459s0-1.253,2.573-2.44a4.3,4.3,0,0,0,2.572-3.1c.659-2.505,2.506-1.846,3.693-1.121s3.884,0,3.887-3.759a2.5,2.5,0,0,1,.919-3.033c1.722-1.055,2.381-4.824-1.312-4.786s-7.172,1.862-10.749,7.16c-4.971,7.364-3.036,11.079-3.036,11.079Z" transform="translate(-2244.313 -1853.22)" fill="#ebebeb"/>
          </g>
          <g id="Group_10394" data-name="Group 10394" transform="translate(15.057 23.062)">
            <path id="Path_13805" data-name="Path 13805" d="M2246.036,1877.012a.227.227,0,0,0,.071-.011.238.238,0,0,0,.151-.294,5.639,5.639,0,0,1-.015-2.459.247.247,0,0,0,.018-.047c1.995-7.527,11.828-12.529,11.927-12.578a.233.233,0,1,0-.209-.417c-.1.051-10.1,5.139-12.163,12.854a5.518,5.518,0,0,0,0,2.791A.228.228,0,0,0,2246.036,1877.012Z" transform="translate(-2245.637 -1861.181)" fill="#fff"/>
          </g>
          <g id="Group_10395" data-name="Group 10395" transform="translate(0 9.259)">
            <path id="Path_13806" data-name="Path 13806" d="M2211.276,1848.862a4.588,4.588,0,0,1-2.171-4.607,3.224,3.224,0,0,0-2.859-3.865c-.635-.106-4.766-1.8-4.13-8,0,0,.212-3.971-.53-5.4s-2.595-5.719,0-7.042,4.395,1.059,5.348,3.495a13.516,13.516,0,0,0,1.377,3.495c.635.689,5.242,4.713,4.871,13.079l-.9,8.842Z" transform="translate(-2200.25 -1819.573)" fill="#ebebeb"/>
          </g>
          <g id="Group_10396" data-name="Group 10396" transform="translate(3.698 14.13)">
            <path id="Path_13807" data-name="Path 13807" d="M2219.149,1858.907a.233.233,0,0,0,.233-.225c.268-7.122-2.821-16.409-4.593-19.093a47.718,47.718,0,0,1-2.949-5.2.233.233,0,0,0-.421.2,48.159,48.159,0,0,0,2.981,5.259c1.742,2.639,4.779,11.789,4.515,18.819a.233.233,0,0,0,.225.242Z" transform="translate(-2211.397 -1834.255)" fill="#fff"/>
          </g>
        </g>
        <path id="Path_13808" data-name="Path 13808" d="M2230.565,1921.011h-9.985l-2.417-13.682h14.82Z" transform="translate(-2212.221 -1868.958)" fill="#ebebeb"/>
      </g>
      <g id="Group_10406" data-name="Group 10406" transform="translate(388.101 201.902)">
        <g id="Group_10405" data-name="Group 10405">
          <g id="Group_10399" data-name="Group 10399" transform="translate(8.116)">
            <path id="Path_13809" data-name="Path 13809" d="M1890.7,1834.793s-.672-4.521-.976-5.515c-.393-1.285-.586-3.2.5-4.325s1.244-3.776,1.244-4.181.405-6.486,4.865-5.585c0,0,1.847.45.946,3.693,0,0-.946,1.937.247,3.153a4.937,4.937,0,0,1,0,6.711c-2.229,2.7-1.6,3.692-1.238,4.729,1.624,4.731-1.832,9.074-2.207,10.233s-.826,3.062-.449,4.156l-1.312.025Z" transform="translate(-1889.412 -1815.096)" fill="#ebebeb"/>
          </g>
          <g id="Group_10400" data-name="Group 10400" transform="translate(11.358 4.577)">
            <path id="Path_13810" data-name="Path 13810" d="M1899.543,1857.281a.207.207,0,0,0,.04,0,.2.2,0,0,0,.154-.234c-.5-2.44.379-6.789.388-6.832.485-1.851.625-4.216-.178-10.246a23.145,23.145,0,0,1,.245-7.911,13.249,13.249,0,0,1,.916-2.874.2.2,0,0,0-.354-.179,13.352,13.352,0,0,0-.946,2.952,23.536,23.536,0,0,0-.254,8.064c.793,5.946.647,8.339.185,10.1-.04.192-.907,4.482-.39,7A.2.2,0,0,0,1899.543,1857.281Z" transform="translate(-1899.185 -1828.893)" fill="#fff"/>
          </g>
          <g id="Group_10401" data-name="Group 10401" transform="translate(12.434 17.372)">
            <path id="Path_13811" data-name="Path 13811" d="M1903.981,1882.975s0-1.066,2.187-2.075a3.655,3.655,0,0,0,2.188-2.637c.561-2.132,2.132-1.571,3.141-.953s3.3,0,3.307-3.2a2.122,2.122,0,0,1,.782-2.58c1.464-.9,2.026-4.1-1.116-4.072s-6.1,1.584-9.144,6.091c-4.229,6.264-2.583,9.424-2.583,9.424Z" transform="translate(-1902.429 -1867.46)" fill="#ebebeb"/>
          </g>
          <g id="Group_10402" data-name="Group 10402" transform="translate(12.808 19.618)">
            <path id="Path_13812" data-name="Path 13812" d="M1903.894,1887.7a.207.207,0,0,0,.061-.01.2.2,0,0,0,.127-.25,4.8,4.8,0,0,1-.012-2.092.238.238,0,0,0,.015-.04c1.7-6.4,10.062-10.658,10.146-10.7a.2.2,0,0,0-.178-.354c-.086.043-8.594,4.372-10.346,10.934a4.682,4.682,0,0,0,0,2.374A.194.194,0,0,0,1903.894,1887.7Z" transform="translate(-1903.555 -1874.232)" fill="#fff"/>
          </g>
          <g id="Group_10403" data-name="Group 10403" transform="translate(0 7.876)">
            <path id="Path_13813" data-name="Path 13813" d="M1874.326,1863.753a3.9,3.9,0,0,1-1.847-3.919,2.743,2.743,0,0,0-2.432-3.288c-.54-.09-4.054-1.532-3.513-6.8,0,0,.181-3.378-.45-4.594s-2.208-4.865,0-5.991,3.738.9,4.549,2.973a11.5,11.5,0,0,0,1.171,2.973,13.935,13.935,0,0,1,4.144,11.125l-.767,7.522Z" transform="translate(-1864.947 -1838.838)" fill="#ebebeb"/>
          </g>
          <g id="Group_10404" data-name="Group 10404" transform="translate(3.145 12.02)">
            <path id="Path_13814" data-name="Path 13814" d="M1881.022,1872.3a.2.2,0,0,0,.2-.191c.228-6.058-2.4-13.959-3.906-16.242a40.547,40.547,0,0,1-2.509-4.424.2.2,0,1,0-.358.169,40.91,40.91,0,0,0,2.536,4.474c1.482,2.245,4.065,10.029,3.841,16.009a.2.2,0,0,0,.19.206Z" transform="translate(-1874.427 -1851.328)" fill="#fff"/>
          </g>
        </g>
        <path id="Path_13815" data-name="Path 13815" d="M1890.734,1925.126h-8.494l-2.056-11.638h12.606Z" transform="translate(-1875.13 -1880.847)" fill="#ebebeb"/>
      </g>
    </g>
    <g id="Group_10425" data-name="Group 10425" transform="translate(594.2 1413.545)">
      <g id="Group_10408" data-name="Group 10408" transform="translate(7.783 81.807)">
        <path id="Path_13816" data-name="Path 13816" d="M801.532,1941.433l8.186,1.54c7.2,25.714,5.431,56.369,21.517,108.869,0,0-1.537.67-1.758,0-13.384-40.6-20.7-72.424-23.3-76.8C800.406,1965.327,793.19,1957.065,801.532,1941.433Z" transform="translate(-775.444 -1937.467)" fill="#ffd8a3"/>
        <path id="Path_13817" data-name="Path 13817" d="M755.194,1936.573c-10.074,18.789-2.531,17.333-2.2,27.051.945,28.022-16.922,42.277-22.468,85.14,0,0,2.2-.112,2.259-.731,3.446-34.2,33.747-66.914,34.994-98.663.08-2.047.171-8.162-2.218-10.351C761.906,1935.671,755.194,1936.573,755.194,1936.573Z" transform="translate(-730.522 -1934.145)" fill="#f7c371"/>
        <path id="Path_13818" data-name="Path 13818" d="M737.249,2271.251h-6.584s-.318-1.869,1.151-2.168C732.741,2268.894,734.377,2269.328,737.249,2271.251Z" transform="translate(-730.599 -2156.394)" fill="#ffe200"/>
        <path id="Path_13819" data-name="Path 13819" d="M899.157,2271.738H893.37s-.28-1.868,1.012-2.167C895.194,2269.382,896.632,2269.816,899.157,2271.738Z" transform="translate(-839.329 -2156.721)" fill="#ffe200"/>
        <path id="Path_13820" data-name="Path 13820" d="M767.4,1995.8s27.637,4.443,33.971,2.666c0,0-6.046-62.8-10.364-66.654s-12.091-1.778-12.091-1.778a24.435,24.435,0,0,0-4.03,26.069C780.639,1969.731,767.4,1995.8,767.4,1995.8Z" transform="translate(-755.163 -1929.477)" fill="#f46973"/>
      </g>
      <g id="Group_10424" data-name="Group 10424" transform="translate(2.459 0)">
        <g id="Group_10423" data-name="Group 10423">
          <g id="Group_10422" data-name="Group 10422">
            <g id="Group_10412" data-name="Group 10412" transform="translate(24.672 39.541)">
              <g id="Group_10410" data-name="Group 10410" transform="translate(25.238 22.221)">
                <path id="Path_13821" data-name="Path 13821" d="M865.754,1885.818c1.724-1.153,6.821-.792,6.441-2.561-.34-1.585-3.232-3.628-7.275,1.186Z" transform="translate(-864.92 -1877.331)" fill="#f8c471"/>
                <path id="Path_13822" data-name="Path 13822" d="M872.523,1880.895c.424,2.836,3.877,2.308,4.926,1.89,1.153-.46,1.421-2.7.751-3.429S872.363,1879.81,872.523,1880.895Z" transform="translate(-869.998 -1875.788)" fill="#f8c471"/>
                <path id="Path_13823" data-name="Path 13823" d="M876.765,1872.748c.93-1.411,1.315-3.472.7-3.674-.693-.23-.69,1.6-1.834,2.668-1.236,1.154-1.952,1.945-1.533,2.445S875.834,1874.162,876.765,1872.748Z" transform="translate(-870.973 -1869.054)" fill="#f8c471"/>
                <path id="Path_13824" data-name="Path 13824" d="M884.653,1876.612c1.343-.543,1.919-1.135,1.734-1.475s-.931.017-2.273.558-3.182.9-3,1.237S883.311,1877.15,884.653,1876.612Z" transform="translate(-875.735 -1873.029)" fill="#f8c471"/>
                <path id="Path_13825" data-name="Path 13825" d="M887.9,1881.545c1.453-.267,2.59-1.143,2.479-1.507s-1.385.2-2.838.468-2.38.519-2.268.882S886.451,1881.811,887.9,1881.545Z" transform="translate(-878.517 -1876.315)" fill="#f8c471"/>
                <path id="Path_13826" data-name="Path 13826" d="M885.164,1886.988c1.44-.325,2.17-.833,2.049-1.192s-1.029.034-2.468.36-2.443.574-2.322.934S883.723,1887.314,885.164,1886.988Z" transform="translate(-876.61 -1880.146)" fill="#f8c471"/>
              </g>
              <g id="Group_10411" data-name="Group 10411">
                <path id="Path_13827" data-name="Path 13827" d="M792.867,1802.082c-5.4-.672-3.969,31.876-3.494,32.932,0,0,2.942.713,3.468-.548C794.2,1831.2,795.278,1802.381,792.867,1802.082Z" transform="translate(-788.843 -1802.071)" fill="#ffb2b0"/>
                <path id="Path_13828" data-name="Path 13828" d="M814.906,1889.178c1.128,4.124-22.478,6.065-23.352,5.809,0,0-1.843-2.675-.92-3.218C793.02,1890.365,814.4,1887.337,814.906,1889.178Z" transform="translate(-789.867 -1859.895)" fill="#ffb2b0"/>
                <path id="Path_13829" data-name="Path 13829" d="M856.992,1887.567l-.68-1.117-4.946-.482a10.176,10.176,0,0,0,1.221,2.529C853.039,1888.847,856.992,1887.567,856.992,1887.567Z" transform="translate(-830.625 -1858.136)" fill="#f9f9f9"/>
                <path id="Path_13830" data-name="Path 13830" d="M860.051,1890.506l.168,1.3-3.6,3.43a10.222,10.222,0,0,1-.632-2.758C856.122,1891.927,860.051,1890.506,860.051,1890.506Z" transform="translate(-833.7 -1861.168)" fill="#f9f9f9"/>
              </g>
            </g>
            <g id="Group_10418" data-name="Group 10418">
              <g id="Group_10417" data-name="Group 10417">
                <g id="Group_10413" data-name="Group 10413" transform="translate(0 1.167)">
                  <path id="Path_13831" data-name="Path 13831" d="M753.162,1737.3c5.328-4.454-2.462-6.1-1.8-10.278s1.483-2.786,2.546-8.167-.238-7.5-.11-10.674,2.622-8.2,1.108-12.329-2.714-2.858-4.059-6.157-3.1.063-5.84,1.28-5.185-6.615-10.017-4.056-4.834,8.468-6.464,11.658-6.318,4.181-7.471,10.021,2.223,4.752.442,8.711-5.816,3.322-6.97,9.164c0,0-.993,5.871,5.626,6.061s4.29,3.563,11.624,1.818,4.459,4.393,9.68,2.39S748.4,1741.275,753.162,1737.3Z" transform="translate(-714.472 -1686.399)" fill="#2d356b"/>
                </g>
                <g id="Group_10414" data-name="Group 10414" transform="translate(22.172 20.417)">
                  <path id="Path_13832" data-name="Path 13832" d="M794.37,1744.425l6.1,3.832,1.095,13.191-4.9-1.773Z" transform="translate(-790.037 -1744.425)" fill="#f7c371"/>
                  <path id="Path_13833" data-name="Path 13833" d="M804.421,1851.6c-3.92-2.568-13.021-8.245-23.113-1.217,3.018-8.865,5.76-17.579,5.857-24.871.181-13.517-11.307-29.393-1.8-35.5,10.093-6.488,22.077,23.474,22.077,23.474C797.348,1819.159,800.14,1835.434,804.421,1851.6Z" transform="translate(-781.308 -1774.272)" fill="#fc8c99"/>
                  <path id="Path_13834" data-name="Path 13834" d="M795.628,1787.777l1.773-.209,7.925,7.456-2.346,1.981S797.661,1791.583,795.628,1787.777Z" transform="translate(-790.877 -1773.256)" fill="#fff"/>
                  <path id="Path_13835" data-name="Path 13835" d="M812.673,1796.853l.111-.081c-2.092-4.173-6.662-10.563-11.076-10.152C805.725,1790.2,812.673,1796.853,812.673,1796.853Z" transform="translate(-794.94 -1772.61)" fill="#f7c371"/>
                </g>
                <g id="Group_10416" data-name="Group 10416" transform="translate(17.128)">
                  <g id="Group_10415" data-name="Group 10415">
                    <path id="Path_13836" data-name="Path 13836" d="M780.4,1710.949c-3.147-1.215-9.559-2.909-12.206-8.113-3.44-6.766-2.007-10.591-.164-15.235,3.513-8.853,18.63-3.016,17.387-.429C783.768,1690.608,791.805,1715.352,780.4,1710.949Z" transform="translate(-766.104 -1682.88)" fill="#2d356b"/>
                    <path id="Path_13837" data-name="Path 13837" d="M803.8,1721.343c1.18.119,3.906-5.766,5.008-10.379.363-1.521-1.279-1.87-.644-7.119.372-3.082-.622-7.5-5.484-11.09-4.59-3.388-5.919,6.159-6.561,8.33-1.828,6.187-3.838,9.984-2.529,13.2C796.146,1720.562,802.555,1720.91,803.8,1721.343Z" transform="translate(-784.191 -1688.998)" fill="#ffd8a3"/>
                    <path id="Path_13838" data-name="Path 13838" d="M827.031,1755.078a.273.273,0,0,1,.275-.271.287.287,0,0,1,.2.337.274.274,0,0,1-.277.27A.286.286,0,0,1,827.031,1755.078Z" transform="translate(-806.817 -1730.945)" fill="#ffab00"/>
                    <path id="Path_13839" data-name="Path 13839" d="M827.37,1729.454c-.118-.826.248-1.553.816-1.626s1.127.539,1.245,1.365-.247,1.553-.816,1.625S827.488,1730.28,827.37,1729.454Z" transform="translate(-807.031 -1712.913)" fill="#2d356b"/>
                    <path id="Path_13840" data-name="Path 13840" d="M824.073,1729.283c.588-1.277,1.513-2.61,3.8-2.241A7.97,7.97,0,0,0,824.073,1729.283Z" transform="translate(-804.842 -1712.35)" fill="#2d356b"/>
                    <path id="Path_13841" data-name="Path 13841" d="M830.7,1766.065c.055-.189.578.553.856.605.788.148.459,1.138-.319.91C830.929,1767.49,830.638,1766.266,830.7,1766.065Z" transform="translate(-809.263 -1738.448)" fill="#f36973"/>
                    <path id="Path_13842" data-name="Path 13842" d="M829.558,1755.694c-.516-.268,3.221-.948,2.439.217A5.735,5.735,0,0,1,829.558,1755.694Z" transform="translate(-808.475 -1731.243)" fill="#f36973"/>
                    <path id="Path_13843" data-name="Path 13843" d="M825.65,1716.188a4.861,4.861,0,0,0-6.137,2.453C821.3,1716.648,822.6,1715.968,825.65,1716.188Z" transform="translate(-801.795 -1704.938)" fill="#2d356b"/>
                    <path id="Path_13844" data-name="Path 13844" d="M837.809,1740.561l-1.882.375.4-4.671,2.387,3.595Z" transform="translate(-812.764 -1718.555)" fill="#ffd8a3"/>
                    <path id="Path_13845" data-name="Path 13845" d="M837.3,1751.127l1.711-2.745-1.366-.187Z" transform="translate(-813.681 -1726.527)" fill="#ffd8a3"/>
                    <path id="Path_13846" data-name="Path 13846" d="M829.723,1760.078a34.631,34.631,0,0,0,1.31-3.958l-3.3-.333S828.037,1759.345,829.723,1760.078Z" transform="translate(-807.289 -1731.601)" fill="#ffab00"/>
                    <path id="Path_13847" data-name="Path 13847" d="M829.327,1758.23l1.879.189c.16-.5.314-1.019.462-1.561l-2.7-.272Z" transform="translate(-808.116 -1732.135)" fill="#fff"/>
                    <path id="Path_13848" data-name="Path 13848" d="M786.542,1732.757c.22-1.431.813-2.442-.272-2.606s-2.148.863-2.367,2.3.486,2.726,1.574,2.892S786.324,1734.19,786.542,1732.757Z" transform="translate(-777.971 -1714.457)" fill="#f7c371"/>
                  </g>
                  <path id="Path_13849" data-name="Path 13849" d="M806.193,1691.927c-3.992,4.885-10.834,11.925-10.126,19.531-2.27-8.25.17-18.7,5.878-22.533C802.419,1689.776,807.159,1690.012,806.193,1691.927Z" transform="translate(-785.564 -1686.919)" fill="#2d356b"/>
                </g>
              </g>
            </g>
            <g id="Group_10421" data-name="Group 10421" transform="translate(16.211 39.448)">
              <g id="Group_10419" data-name="Group 10419" transform="translate(29.398 33.68)">
                <path id="Path_13850" data-name="Path 13850" d="M851.982,1913.92c2.41-.144,7.318,3.218,7.977,1.217.591-1.792-1.111-5.545-8-3.088Z" transform="translate(-851.954 -1908.611)" fill="#ffd9a4"/>
                <path id="Path_13851" data-name="Path 13851" d="M862.657,1911.315c-1.243,3.1,2.536,4.6,3.835,4.8,1.428.217,3.018-1.878,2.773-3S863.135,1910.132,862.657,1911.315Z" transform="translate(-858.941 -1908.408)" fill="#ffd9a4"/>
                <path id="Path_13852" data-name="Path 13852" d="M868.433,1906.729c1.765-.87,3.364-2.713,2.866-3.278-.561-.639-1.637,1.2-3.412,1.6-1.921.432-3.1.805-2.978,1.553S866.667,1907.6,868.433,1906.729Z" transform="translate(-860.605 -1903.318)" fill="#ffd9a4"/>
                <path id="Path_13853" data-name="Path 13853" d="M877.682,1914.972c1.668.244,2.6-.011,2.61-.461s-.945-.53-2.611-.777-3.724-.973-3.739-.523S876.016,1914.723,877.682,1914.972Z" transform="translate(-866.647 -1909.833)" fill="#ffd9a4"/>
                <path id="Path_13854" data-name="Path 13854" d="M878.568,1920.779c1.617.587,3.274.376,3.377-.054s-1.509-.614-3.125-1.2-2.7-.88-2.8-.449S876.953,1920.193,878.568,1920.779Z" transform="translate(-868.033 -1913.71)" fill="#ffd9a4"/>
                <path id="Path_13855" data-name="Path 13855" d="M872.657,1924.589c1.638.521,2.669.44,2.759.008s-1.053-.571-2.69-1.09-2.792-.862-2.882-.429S871.018,1924.069,872.657,1924.589Z" transform="translate(-863.906 -1916.391)" fill="#ffd9a4"/>
              </g>
              <g id="Group_10420" data-name="Group 10420">
                <path id="Path_13856" data-name="Path 13856" d="M773.844,1801.856c-6.063-1.834-10.827,35.791-10.49,37.1,0,0,3.235,1.4,4.086.054C769.64,1835.53,776.551,1802.675,773.844,1801.856Z" transform="translate(-763.337 -1801.791)" fill="#ffb2b0"/>
                <path id="Path_13857" data-name="Path 13857" d="M793.529,1906.326c.065,4.976-27.1.258-28.01-.287,0,0-1.293-3.553-.1-3.9C768.523,1901.261,793.5,1904.1,793.529,1906.326Z" transform="translate(-764.391 -1868.743)" fill="#ffb2b0"/>
                <path id="Path_13858" data-name="Path 13858" d="M843.723,1909.813l-.439-1.457-5.432-1.99a11.833,11.833,0,0,0,.636,3.206C838.895,1910.1,843.723,1909.813,843.723,1909.813Z" transform="translate(-813.132 -1871.674)" fill="#eaeaea"/>
                <path id="Path_13859" data-name="Path 13859" d="M844.839,1916.424l-.192,1.519-5.062,2.812a11.915,11.915,0,0,1,.094-3.293C840,1916.876,844.839,1916.424,844.839,1916.424Z" transform="translate(-814.24 -1878.395)" fill="#eaeaea"/>
              </g>
            </g>
          </g>
        </g>
      </g>
      <g id="Group_10409" data-name="Group 10409" transform="translate(0 60.521)">
        <rect id="Rectangle_3234" data-name="Rectangle 3234" width="44.022" height="23.358" rx="6.672" transform="translate(0 0)" fill="#fff" stroke="#231f20" stroke-miterlimit="10" stroke-width="0.25"/>
        <text id="Akiko" transform="translate(8.967 15.16)" fill="#2d356b" font-size="10" font-family="TrebuchetMS-Bold, Trebuchet MS" font-weight="700"><tspan x="0" y="0">Akiko</tspan></text>
      </g>
    </g>
    <g id="Group_10433" data-name="Group 10433" transform="translate(881.98 1452.011)">
      <g id="Group_10432" data-name="Group 10432" transform="translate(0 0)">
        <g id="Group_10426" data-name="Group 10426" transform="translate(9.541)">
          <path id="Path_13860" data-name="Path 13860" d="M1616.914,1809.895s-.79-5.315-1.147-6.484c-.462-1.51-.688-3.759.583-5.083s1.463-4.439,1.463-4.915.477-7.625,5.719-6.566c0,0,2.171.53,1.112,4.342,0,0-1.112,2.277.291,3.706a5.8,5.8,0,0,1,0,7.89c-2.621,3.177-1.874,4.34-1.456,5.56,1.91,5.561-2.153,10.667-2.594,12.03s-.97,3.6-.528,4.885l-1.542.029Z" transform="translate(-1615.401 -1786.74)" fill="#ebebeb"/>
        </g>
        <g id="Group_10427" data-name="Group 10427" transform="translate(13.352 5.381)">
          <path id="Path_13861" data-name="Path 13861" d="M1627.311,1836.332a.242.242,0,0,0,.047,0,.233.233,0,0,0,.181-.275c-.589-2.868.445-7.98.455-8.032.57-2.176.735-4.956-.209-12.045a27.212,27.212,0,0,1,.288-9.3,15.57,15.57,0,0,1,1.077-3.378.233.233,0,0,0-.415-.211,15.641,15.641,0,0,0-1.113,3.47,27.672,27.672,0,0,0-.3,9.48c.932,6.99.761,9.8.218,11.878-.047.226-1.067,5.269-.458,8.232A.233.233,0,0,0,1627.311,1836.332Z" transform="translate(-1626.889 -1802.96)" fill="#fff"/>
        </g>
        <g id="Group_10428" data-name="Group 10428" transform="translate(14.617 20.421)">
          <path id="Path_13862" data-name="Path 13862" d="M1632.527,1866.537s0-1.253,2.572-2.439a4.3,4.3,0,0,0,2.572-3.1c.66-2.506,2.506-1.847,3.693-1.122s3.884,0,3.888-3.759a2.5,2.5,0,0,1,.919-3.034c1.722-1.055,2.381-4.824-1.311-4.786s-7.172,1.862-10.749,7.16c-4.972,7.363-3.036,11.078-3.036,11.078Z" transform="translate(-1630.703 -1848.298)" fill="#ebebeb"/>
        </g>
        <g id="Group_10429" data-name="Group 10429" transform="translate(15.057 23.062)">
          <path id="Path_13863" data-name="Path 13863" d="M1632.426,1872.09a.233.233,0,0,0,.072-.011.237.237,0,0,0,.151-.293,5.629,5.629,0,0,1-.015-2.46.259.259,0,0,0,.018-.047c1.995-7.528,11.828-12.53,11.927-12.579a.233.233,0,0,0-.209-.417c-.1.051-10.1,5.139-12.163,12.854a5.51,5.51,0,0,0,0,2.792A.228.228,0,0,0,1632.426,1872.09Z" transform="translate(-1632.027 -1856.259)" fill="#fff"/>
        </g>
        <g id="Group_10430" data-name="Group 10430" transform="translate(0 9.259)">
          <path id="Path_13864" data-name="Path 13864" d="M1597.666,1843.94a4.588,4.588,0,0,1-2.171-4.607,3.225,3.225,0,0,0-2.859-3.865c-.635-.106-4.765-1.8-4.13-8,0,0,.212-3.972-.529-5.4s-2.595-5.718,0-7.042,4.395,1.059,5.348,3.495a13.529,13.529,0,0,0,1.377,3.495c.635.688,5.242,4.713,4.871,13.079l-.9,8.843Z" transform="translate(-1586.64 -1814.65)" fill="#ebebeb"/>
        </g>
        <g id="Group_10431" data-name="Group 10431" transform="translate(3.698 14.13)">
          <path id="Path_13865" data-name="Path 13865" d="M1605.539,1853.984a.233.233,0,0,0,.233-.224c.267-7.122-2.821-16.41-4.592-19.093a47.833,47.833,0,0,1-2.949-5.2.233.233,0,1,0-.421.2,48.229,48.229,0,0,0,2.981,5.258c1.742,2.64,4.78,11.79,4.515,18.819a.232.232,0,0,0,.224.241Z" transform="translate(-1597.786 -1829.333)" fill="#fff"/>
        </g>
      </g>
      <path id="Path_13866" data-name="Path 13866" d="M1616.955,1916.088h-9.985l-2.417-13.682h14.819Z" transform="translate(-1598.611 -1864.035)" fill="#ebebeb"/>
    </g>
    <g id="Group_10441" data-name="Group 10441" transform="translate(727.431 1458.934)">
      <g id="Group_10440" data-name="Group 10440">
        <g id="Group_10434" data-name="Group 10434" transform="translate(8.116)">
          <path id="Path_13867" data-name="Path 13867" d="M1134.422,1829.87s-.672-4.521-.976-5.515c-.393-1.284-.585-3.2.5-4.324s1.245-3.776,1.245-4.182.405-6.486,4.865-5.586c0,0,1.847.451.946,3.694,0,0-.946,1.937.248,3.153a4.939,4.939,0,0,1,0,6.712c-2.23,2.7-1.6,3.692-1.239,4.729,1.624,4.73-1.832,9.074-2.207,10.233s-.826,3.061-.449,4.156l-1.312.024Z" transform="translate(-1133.135 -1810.173)" fill="#ebebeb"/>
        </g>
        <g id="Group_10435" data-name="Group 10435" transform="translate(11.358 4.577)">
          <path id="Path_13868" data-name="Path 13868" d="M1143.266,1852.359a.225.225,0,0,0,.04,0,.2.2,0,0,0,.154-.234c-.5-2.441.379-6.789.388-6.833.485-1.851.626-4.216-.178-10.246a23.139,23.139,0,0,1,.245-7.911,13.244,13.244,0,0,1,.916-2.874.2.2,0,1,0-.354-.179,13.327,13.327,0,0,0-.947,2.951,23.538,23.538,0,0,0-.254,8.065c.792,5.945.647,8.339.185,10.1-.04.192-.908,4.482-.39,7A.2.2,0,0,0,1143.266,1852.359Z" transform="translate(-1142.908 -1823.971)" fill="#fff"/>
        </g>
        <g id="Group_10436" data-name="Group 10436" transform="translate(12.434 17.371)">
          <path id="Path_13869" data-name="Path 13869" d="M1147.7,1878.053s0-1.066,2.188-2.076a3.657,3.657,0,0,0,2.188-2.637c.561-2.132,2.131-1.571,3.141-.954s3.3,0,3.307-3.2a2.122,2.122,0,0,1,.783-2.58c1.464-.9,2.025-4.1-1.116-4.072s-6.1,1.584-9.144,6.091c-4.229,6.264-2.583,9.424-2.583,9.424Z" transform="translate(-1146.151 -1862.537)" fill="#ebebeb"/>
        </g>
        <g id="Group_10437" data-name="Group 10437" transform="translate(12.808 19.618)">
          <path id="Path_13870" data-name="Path 13870" d="M1147.617,1882.777a.2.2,0,0,0,.061-.01.2.2,0,0,0,.128-.25,4.8,4.8,0,0,1-.012-2.092.212.212,0,0,0,.015-.04c1.7-6.4,10.062-10.659,10.146-10.7a.2.2,0,1,0-.177-.354c-.086.043-8.593,4.371-10.346,10.934a4.686,4.686,0,0,0,0,2.375A.194.194,0,0,0,1147.617,1882.777Z" transform="translate(-1147.278 -1869.31)" fill="#fff"/>
        </g>
        <g id="Group_10438" data-name="Group 10438" transform="translate(0 7.876)">
          <path id="Path_13871" data-name="Path 13871" d="M1118.049,1858.831a3.9,3.9,0,0,1-1.847-3.919,2.743,2.743,0,0,0-2.432-3.288c-.54-.09-4.054-1.532-3.513-6.8,0,0,.18-3.378-.451-4.594s-2.207-4.865,0-5.991,3.739.9,4.549,2.973a11.5,11.5,0,0,0,1.171,2.973,13.936,13.936,0,0,1,4.144,11.126l-.767,7.522Z" transform="translate(-1108.67 -1833.916)" fill="#ebebeb"/>
        </g>
        <g id="Group_10439" data-name="Group 10439" transform="translate(3.145 12.02)">
          <path id="Path_13872" data-name="Path 13872" d="M1124.746,1867.375a.2.2,0,0,0,.2-.191c.228-6.058-2.4-13.959-3.906-16.242a40.56,40.56,0,0,1-2.508-4.423.2.2,0,0,0-.359.169,41.169,41.169,0,0,0,2.537,4.473c1.482,2.245,4.065,10.029,3.841,16.009a.2.2,0,0,0,.19.205Z" transform="translate(-1118.151 -1846.405)" fill="#fff"/>
        </g>
      </g>
      <path id="Path_13873" data-name="Path 13873" d="M1134.457,1920.2h-8.494l-2.056-11.639h12.606Z" transform="translate(-1118.853 -1875.924)" fill="#ebebeb"/>
    </g>
    <g id="Group_10443" data-name="Group 10443" transform="translate(615.659 1269.796)">
      <g id="Group_10442" data-name="Group 10442" transform="translate(0 0)">
        <path id="Path_13874" data-name="Path 13874" d="M1098.437,1400.806c11.095,19.009,2.431,39.362-21.212,47.14-25.113,8.262-57.826-.724-74.056-20.085-12.63,10.456-31.93,18.45-54.1,21.177-40.861,5.025-75.979-9.752-78.438-33.005a26.591,26.591,0,0,1,2.332-13.689c-34.53,8.609-54.9-1.19-63.66-27.5-6.461-19.415,11.516-53.321,61.384-59.454,6.358-.782,12.591-1.274,18.632-1.5-.136-.643-1.94-4.3.612-10.632,11.093-27.526,50.673-31.564,92.039-25.534,34.832,5.078,52.311,23,60.461,39.17,0,0,98.764-30.061,116.878,33.778C1159.313,1350.675,1179.42,1406.981,1098.437,1400.806Z" transform="translate(-808.042 -1275.3)" fill="#fff" stroke="#ebebeb" stroke-miterlimit="10" stroke-width="1"/>
        <ellipse id="Ellipse_530" data-name="Ellipse 530" cx="10.464" cy="11.328" rx="10.464" ry="11.328" transform="translate(79.336 151.756) rotate(-2.698)" fill="#fff" stroke="#ebebeb" stroke-miterlimit="10" stroke-width="1"/>
        <ellipse id="Ellipse_531" data-name="Ellipse 531" cx="6.201" cy="6.713" rx="6.201" ry="6.713" transform="translate(74.251 168.135) rotate(-2.698)" fill="#fff" stroke="#ebebeb" stroke-miterlimit="10" stroke-width="1"/>
        <ellipse id="Ellipse_532" data-name="Ellipse 532" cx="5.304" cy="5.742" rx="5.304" ry="5.742" transform="translate(61.298 175.928) rotate(-2.698)" fill="#fff" stroke="#ebebeb" stroke-miterlimit="10" stroke-width="1"/>
      </g>
    </g>
    <g id="Group_10444" data-name="Group 10444" transform="translate(538.88 1259.788)">
      <rect id="Rectangle_3235" data-name="Rectangle 3235" width="63.407" height="37.406" transform="translate(63.407 37.406) rotate(-180)" fill="#ebebeb"/>
    </g>
    <text id="_1" data-name="1" transform="translate(550.79 1285.054)" fill="#2d356b" font-size="29" font-family="TrebuchetMS-Bold, Trebuchet MS" font-weight="700"><tspan x="0" y="0">1</tspan></text>
    <g id="Group_10456" data-name="Group 10456" transform="translate(979.848 1413.433)">
      <g id="Group_10455" data-name="Group 10455" transform="translate(0 0)">
        <g id="Group_10454" data-name="Group 10454">
          <g id="Group_10446" data-name="Group 10446" transform="translate(0 83.464)">
            <path id="Path_13875" data-name="Path 13875" d="M1911.424,1946.092l-8.186,1.54c-7.2,25.714-5.43,56.369-21.517,108.87,0,0,1.536.67,1.758,0,13.383-40.6,20.7-72.425,23.3-76.8C1912.551,1969.986,1919.766,1961.724,1911.424,1946.092Z" transform="translate(-1877.684 -1942.126)" fill="#ffd8a3"/>
            <path id="Path_13876" data-name="Path 13876" d="M1950.124,1941.232c10.074,18.789,2.531,17.332,2.2,27.05-.945,28.023,16.922,42.277,22.468,85.141,0,0-2.2-.112-2.259-.731-3.446-34.2-33.747-66.915-34.994-98.664-.081-2.047-.17-8.162,2.218-10.351C1943.412,1940.331,1950.125,1941.232,1950.124,1941.232Z" transform="translate(-1914.968 -1938.805)" fill="#f7c371"/>
            <path id="Path_13877" data-name="Path 13877" d="M2029.849,2275.911h6.583s.318-1.869-1.15-2.169C2034.358,2273.553,2032.722,2273.988,2029.849,2275.911Z" transform="translate(-1976.672 -2161.054)" fill="#7b88ac"/>
            <path id="Path_13878" data-name="Path 13878" d="M1869.552,2276.4h5.787s.28-1.867-1.012-2.167C1873.515,2274.041,1872.078,2274.475,1869.552,2276.4Z" transform="translate(-1869.552 -2161.38)" fill="#7b88ac"/>
            <path id="Path_13879" data-name="Path 13879" d="M1944.594,2000.46s-27.637,4.444-33.971,2.666c0,0,6.046-62.8,10.364-66.654s12.091-1.777,12.091-1.777a24.435,24.435,0,0,1,4.03,26.069C1931.351,1974.391,1944.594,2000.46,1944.594,2000.46Z" transform="translate(-1896.998 -1934.137)" fill="#c3e8e6"/>
          </g>
          <g id="Group_10453" data-name="Group 10453" transform="translate(10.832)">
            <path id="Path_13880" data-name="Path 13880" d="M1911.476,1697.927c-2.38-8.877,12.83-18.226,18.829-14.57,0,0,14.906-.23,10.68,24.848-.187,1.109-4.743,1.109-4.691,3.521s-.166,2.144-1.308,3.277-3.305-.459-3.8.365c-1.359,2.266,3.113,3.833,4.473,2.6,0,0-11.077,6.942-16.665-4.742C1918.674,1712.554,1912.1,1700.263,1911.476,1697.927Z" transform="translate(-1908.233 -1682.544)" fill="#fff4ba"/>
            <g id="Group_10447" data-name="Group 10447" transform="translate(0 77.685)">
              <path id="Path_13881" data-name="Path 13881" d="M1925.277,1923.358c.871-1.9,2.778-3.645,3.39-3.133.693.576-1.229,1.771-1.6,3.662-.4,2.048-.762,3.314-1.559,3.2S1924.4,1925.256,1925.277,1923.358Z" transform="translate(-1917.271 -1919.001)" fill="#f8c471"/>
              <path id="Path_13882" data-name="Path 13882" d="M1926.338,1918.489c-2.336,1.047-5.3,6.614-6.9,5.056-1.434-1.394-1.675-5.756,6.009-6.829Z" transform="translate(-1913.193 -1916.716)" fill="#ffd9a4"/>
              <path id="Path_13883" data-name="Path 13883" d="M1917.062,1920.487c2.688,2.3-.128,5.567-1.251,6.389-1.237.9-3.757-.285-4.078-1.462S1916.033,1919.609,1917.062,1920.487Z" transform="translate(-1908.561 -1919.163)" fill="#ffd9a4"/>
              <path id="Path_13884" data-name="Path 13884" d="M1904.922,1930.694c-1.448,1.048-2.445,1.263-2.679.847s.628-.962,2.073-2.011,3.024-2.74,3.258-2.324S1906.365,1929.643,1904.922,1930.694Z" transform="translate(-1902.204 -1923.682)" fill="#ffd9a4"/>
              <path id="Path_13885" data-name="Path 13885" d="M1908.133,1936.67c-1.231,1.344-2.893,1.959-3.2,1.6s1.117-1.317,2.349-2.661,2.1-2.149,2.409-1.794S1909.364,1935.327,1908.133,1936.67Z" transform="translate(-1903.999 -1928.09)" fill="#ffd9a4"/>
              <path id="Path_13886" data-name="Path 13886" d="M1916.069,1937.339c-1.284,1.293-2.293,1.723-2.59,1.361s.71-1.053,1.994-2.344,2.2-2.179,2.5-1.816S1917.353,1936.046,1916.069,1937.339Z" transform="translate(-1909.703 -1928.572)" fill="#ffd9a4"/>
            </g>
            <g id="Group_10448" data-name="Group 10448" transform="translate(3.402 23.354)">
              <path id="Path_13887" data-name="Path 13887" d="M1953.728,1752.941l-5.714,4.559.4,13.424,4.74-2.346Z" transform="translate(-1936.219 -1752.941)" fill="#f6cda2"/>
              <path id="Path_13888" data-name="Path 13888" d="M1917.509,1858.212c13.62,6.2,18.131,2.782,25.505,1.618-1.033-10.536-7.812-17.067-8.74-24.408-1.724-13.607,8.05-30.923-2.229-36-10.916-5.39-19.584,26.184-19.584,26.184C1923.282,1830.179,1919.983,1841.428,1917.509,1858.212Z" transform="translate(-1912.46 -1783.588)" fill="#54ccca"/>
              <path id="Path_13889" data-name="Path 13889" d="M1950.928,1797.2l-1.811-.008-7.14,8.421,2.591,1.731S1949.312,1801.267,1950.928,1797.2Z" transform="translate(-1932.185 -1782.511)" fill="#fff"/>
              <path id="Path_13890" data-name="Path 13890" d="M1932.6,1807.924l-.121-.07c1.633-4.445,5.514-11.409,10.011-11.5C1938.849,1800.428,1932.6,1807.924,1932.6,1807.924Z" transform="translate(-1925.839 -1781.954)" fill="#f6cda2"/>
            </g>
            <g id="Group_10449" data-name="Group 10449" transform="translate(11.446 41.104)">
              <path id="Path_13891" data-name="Path 13891" d="M1942.051,1900.126c2.192,4.861,24.269-4.726,24.923-5.676,0,0-.33-4.045-1.671-3.824C1961.836,1891.2,1941.074,1897.956,1942.051,1900.126Z" transform="translate(-1940.256 -1862.694)" fill="#c3e8e6"/>
              <path id="Path_13892" data-name="Path 13892" d="M1972.919,1806.9c4.819-4.8,15.789,30.005,14.388,31.448,0,0-3.63.508-4.914-.658C1978.516,1834.172,1970.766,1809.043,1972.919,1806.9Z" transform="translate(-1960.658 -1806.446)" fill="#c3e8e6"/>
              <path id="Path_13893" data-name="Path 13893" d="M1936.827,1910.751l-.121-1.547,4.8-3.893s.826,2.635.612,3.285S1936.827,1910.751,1936.827,1910.751Z" transform="translate(-1936.706 -1872.513)" fill="#fff"/>
              <path id="Path_13894" data-name="Path 13894" d="M1936.918,1919.387l.8,1.374,6.321.811s-.844-2.657-1.4-3.1S1936.918,1919.387,1936.918,1919.387Z" transform="translate(-1936.847 -1881.25)" fill="#fff"/>
            </g>
            <g id="Group_10452" data-name="Group 10452" transform="translate(4.724 2.706)">
              <g id="Group_10451" data-name="Group 10451">
                <g id="Group_10450" data-name="Group 10450" transform="translate(0 2.369)">
                  <path id="Path_13895" data-name="Path 13895" d="M1924.853,1726.986c-1.184.067-3.645-5.932-4.54-10.588-.295-1.535,1.361-1.811.96-7.082-.235-3.095.954-7.463,5.97-10.831,4.735-3.18,5.638,6.414,6.182,8.612,1.55,6.26,3.389,10.143,1.938,13.295C1932.531,1726.547,1926.115,1726.609,1924.853,1726.986Z" transform="translate(-1919.006 -1697.844)" fill="#ffd8a3"/>
                  <path id="Path_13896" data-name="Path 13896" d="M1932.374,1760.314a.273.273,0,0,0-.263-.282.288.288,0,0,0-.219.328.274.274,0,0,0,.264.281A.287.287,0,0,0,1932.374,1760.314Z" transform="translate(-1926.766 -1739.401)" fill="#ffab00"/>
                  <path id="Path_13897" data-name="Path 13897" d="M1929.9,1734.473c-.075-.831-.6-1.454-1.168-1.393s-.973.784-.9,1.614.6,1.454,1.168,1.394S1929.98,1735.3,1929.9,1734.473Z" transform="translate(-1924.052 -1721.388)" fill="#2d356b"/>
                  <path id="Path_13898" data-name="Path 13898" d="M1929.13,1734.383c-.865-1.106-2.073-2.191-4.208-1.306A7.972,7.972,0,0,1,1929.13,1734.383Z" transform="translate(-1922.109 -1721.172)" fill="#2d356b"/>
                  <path id="Path_13899" data-name="Path 13899" d="M1926.482,1771.143c-.046-.191-.6.526-.882.566-.793.113-.509,1.116.278.922C1926.186,1772.556,1926.531,1771.346,1926.482,1771.143Z" transform="translate(-1922.247 -1746.805)" fill="#f36973"/>
                  <path id="Path_13900" data-name="Path 13900" d="M1925.567,1760.68c.528-.245-3.175-1.09-2.446.108A5.739,5.739,0,0,0,1925.567,1760.68Z" transform="translate(-1920.841 -1739.489)" fill="#f36973"/>
                  <path id="Path_13901" data-name="Path 13901" d="M1924.113,1721.163a4.86,4.86,0,0,1,6.02,2.723C1928.436,1721.816,1927.169,1721.078,1924.113,1721.163Z" transform="translate(-1921.568 -1713.279)" fill="#2d356b"/>
                  <path id="Path_13902" data-name="Path 13902" d="M1917.32,1745.322l1.863.458-.2-4.683-2.543,3.484Z" transform="translate(-1916.443 -1726.748)" fill="#ffd8a3"/>
                  <path id="Path_13903" data-name="Path 13903" d="M1919.837,1755.9l-1.587-2.817,1.373-.126Z" transform="translate(-1917.651 -1734.676)" fill="#ffd8a3"/>
                  <path id="Path_13904" data-name="Path 13904" d="M1923.8,1765.21a34.552,34.552,0,0,1-1.131-4.011l3.309-.185S1925.517,1764.553,1923.8,1765.21Z" transform="translate(-1920.603 -1740.058)" fill="#ffab00"/>
                  <path id="Path_13905" data-name="Path 13905" d="M1925.5,1763.382l-1.885.106c-.137-.5-.268-1.032-.392-1.58l2.7-.152Z" transform="translate(-1920.971 -1740.554)" fill="#fff"/>
                  <path id="Path_13906" data-name="Path 13906" d="M1968.627,1739.648c-.156-1.439-.7-2.476.388-2.592s2.107.957,2.262,2.4-.607,2.7-1.7,2.817S1968.781,1741.089,1968.627,1739.648Z" transform="translate(-1951.131 -1724.042)" fill="#f7c371"/>
                </g>
                <path id="Path_13907" data-name="Path 13907" d="M1936.216,1690.707c.943,3.4,3.732,11.964,8.642,13.465,0,0,2.637-7.7-1.991-10.366C1937.026,1690.439,1936.216,1690.707,1936.216,1690.707Z" transform="translate(-1929.656 -1690.702)" fill="#fff4ba"/>
              </g>
            </g>
          </g>
        </g>
      </g>
      <g id="Group_10445" data-name="Group 10445" transform="translate(18.129 58.213)">
        <rect id="Rectangle_3236" data-name="Rectangle 3236" width="46.029" height="25.299" rx="6.672" fill="#fff" stroke="#231f20" stroke-miterlimit="10" stroke-width="0.25"/>
        <text id="Helen" transform="translate(9.469 16.131)" fill="#2d356b" font-size="10" font-family="TrebuchetMS-Bold, Trebuchet MS" font-weight="700"><tspan x="0" y="0">Helen</tspan></text>
      </g>
    </g>
  </g>
</svg>
