<svg xmlns="http://www.w3.org/2000/svg" width="546.002" height="402.382" viewBox="0 0 546.002 402.382"><g transform="translate(-30 -5236.97)"><g transform="translate(30 5236.97)"><g transform="translate(0.53)"><g transform="translate(0.122)"><path d="M1004.849,7123.037h.646V7108.92H460.145v295.022h544.7v-29.634h.005Z" transform="translate(-460.145 -7108.508)" fill="#fff"/><rect width="544.698" height="0.825" transform="translate(0 295.023)" fill="#a0bacb"/><rect width="545.35" height="0.825" fill="#7b88ac"/></g><g transform="translate(455.972 60.339)"><path d="M1266.531,7211.3v-.13h-2.778v.13h-28.71v108.332H1294V7211.3Zm25.03,3.479V7238.6h-25.03v-23.821Zm-27.808,27.932v45.511h-26.269v-45.511Zm2.778,45.511v-45.511h25.03v45.511Zm-2.778-73.442V7238.6h-26.269v-23.821Zm-26.269,77.553h26.269v23.822h-26.269Zm29.046,23.822v-23.822h25.03v23.822Z" transform="translate(-1234.87 -7210.923)" fill="#ebebeb"/><path d="M1294.056,7319.71h-59.307V7210.88h28.71v-.131h3.126v.131h27.472Zm-58.959-.5h58.611V7211.377h-27.472v-.13h-2.429v.13H1235.1Zm56.518-2.98h-25.38v-24.318h25.38Zm-25.031-.5h24.682v-23.325h-24.682Zm-2.778.5h-26.618v-24.318h26.618Zm-26.269-.5h25.92v-23.325h-25.92Zm54.077-27.437h-25.38V7242.29h25.38Zm-25.031-.5h24.682v-45.014h-24.682Zm-2.778.5h-26.618V7242.29h26.618Zm-26.269-.5h25.92v-45.014h-25.92Zm54.077-49.125h-25.38v-24.318h25.38Zm-25.031-.5h24.682v-23.324h-24.682Zm-2.778.5h-26.618v-24.318h26.618Zm-26.269-.5h25.92v-23.324h-25.92Z" transform="translate(-1234.748 -7210.749)" fill="#ebebeb"/></g><g transform="translate(0 60.283)"><path d="M549.018,7211.571v-.217h-7.784v.217H460.769v179.867H626.014V7211.571Zm70.155,5.775V7256.9H549.018v-39.552Zm-77.939,46.377v75.563H467.61v-75.562Zm7.784,75.563v-75.562h70.155v75.563Zm-7.784-121.939V7256.9H467.61v-39.552ZM467.61,7346.111h73.624v39.552H467.61Zm81.408,39.552v-39.552h70.155v39.552Z" transform="translate(-460.28 -7210.942)" fill="#ebebeb"/><path d="M626.16,7391.563H459.938V7210.87H540.4v-.216h8.762v.216h77Zm-165.245-.824H625.183V7211.7h-77v-.216H541.38v.216H460.916Zm158.4-4.951H548.188v-40.376h71.131Zm-70.154-.824h69.176v-38.728H549.165Zm-7.785.824h-74.6v-40.376h74.6Zm-73.624-.824H540.4v-38.728H467.757Zm151.562-45.553H548.188v-76.388h71.131Zm-70.154-.825h69.176v-74.737H549.165Zm-7.785.825h-74.6v-76.388h74.6Zm-73.624-.825H540.4v-74.737H467.757Zm151.562-81.562H548.188v-40.376h71.131Zm-70.154-.824h69.176v-38.727H549.165Zm-7.785.824h-74.6v-40.376h74.6Zm-73.624-.824H540.4v-38.727H467.757Z" transform="translate(-459.938 -7210.654)" fill="#ebebeb"/></g></g><g transform="translate(0 259.918)"><path d="M1004.388,7550.479h-544.7V7651.7h-.652v40.891h545.345v-137.8h.005Z" transform="translate(-459.037 -7550.128)" fill="#f9f9f9"/><rect width="543.564" height="0.591" transform="translate(1.948 141.65)" fill="#f9f9f9"/><rect width="544.704" height="0.591" transform="translate(0.652)" fill="#f9f9f9"/></g><g transform="translate(33.068 5.201)"><path d="M1097.082,7205.322v-88.265h-2.088v88.265c-6.51.449-11.629,5.043-11.629,10.654,0,5.908,5.674,10.7,12.673,10.7s12.673-4.791,12.673-10.7C1108.712,7210.365,1103.591,7205.771,1097.082,7205.322Z" transform="translate(-749.019 -7117.057)" fill="#ffb2b0"/><path d="M528.945,7217.168V7128.9h-2.088v88.264c-6.51.45-11.629,5.044-11.629,10.655,0,5.908,5.674,10.7,12.673,10.7s12.673-4.79,12.673-10.7C540.574,7222.212,535.455,7217.618,528.945,7217.168Z" transform="translate(-515.228 -7121.932)" fill="#ffb2b0"/><path d="M727.33,7204.987v-64.171h-1.518v64.171c-4.733.327-8.455,3.667-8.455,7.746,0,4.295,4.125,7.778,9.214,7.778s9.214-3.483,9.214-7.778C735.785,7208.654,732.063,7205.314,727.33,7204.987Z" transform="translate(-598.405 -7126.834)" fill="#ffb2b0"/><path d="M1270.158,7204.987v-64.171h-1.518v64.171c-4.733.327-8.455,3.667-8.455,7.746,0,4.295,4.125,7.778,9.214,7.778s9.214-3.483,9.214-7.778C1278.613,7208.654,1274.891,7205.314,1270.158,7204.987Z" transform="translate(-821.781 -7126.834)" fill="#ffb2b0"/></g><g transform="translate(257.906 187.651)"><g transform="translate(0.481 37.755)"><path d="M899.779,7544.838l-1.678-.011,5.3-38.881.777-4.854,28.724,4.079-1.765,43.667-2.144-.15-1.042-38.682-20.49-2.837Z" transform="translate(-898.101 -7495.294)" fill="#cfd0d8"/><g transform="translate(5.075)"><path d="M962,7493.816l-17.7-1.067-37.293,2.834-.118,4.863a2.355,2.355,0,0,0,2.262,2.862s23.224,4.32,26.016,3.563l28.281-7.281Z" transform="translate(-906.758 -7491.861)" fill="#cfd0d8"/><path d="M937.727,7499.093c-3.961.758-3.979.037-7.376-.267l-18.839-2.7c-7.114-.65-5.085-.884-1.681-2.061l2.816-.527c2.819-.959,16.764-2.579,20.493-2.252l27.046.687c3.988.343,1.9,1.534,1.344,1.631Z" transform="translate(-906.726 -7491.24)" fill="#cfd0d8"/></g><path d="M997.226,7502.071l4.445,40.878-1.31-.147-7.072-38.036Z" transform="translate(-937.272 -7495.697)" fill="#cfd0d8"/></g><path d="M933.142,7468.1c.048,2.229-2.428,3.66-6.84,3.357l-20-2.718c-5.057-.568-4.331-.976-4.919-3.265l-3.93-32.462c-.91-3.518,1.758-6.344,7.589-5.873l18.2,1.391c5.758.459,6.415,3.033,6.469,6.456Z" transform="translate(-897.284 -7427.084)" fill="#cfd0d8"/><path d="M946.236,7431.4c1.78-.1,4.819,1.471,5.12,4.022s5.717,33.81,4.232,35.854-5.06,2.359-4.9,1.47c1.479-8.309-2.819-36.808-3.861-38.472A3.481,3.481,0,0,1,946.236,7431.4Z" transform="translate(-917.389 -7428.857)" fill="#cfd0d8"/><g transform="translate(167.219 3.646)"><path d="M1183.324,7539.42h-1.3l3.678-36.9,2.759.136,30.357.313v6.7h-.079l4.292,29.945h-1.3l-7.451-29.945h-24.062Z" transform="translate(-1181.675 -7461.771)" fill="#cfd0d8"/><path d="M1237.512,7436.846c1.244-4.557,8.337-3.648,14.575-3.117,4.484.379,5.575,1.95,5.346,5.831l-5.352,33.69c-.217,3.871-3.891,6.436-8.15,5.686s-13.032-3.215-12.7-7.086Z" transform="translate(-1201.92 -7433.28)" fill="#cfd0d8"/><path d="M1191.609,7548.983h-1.066l4.06-34.025-6.768-5.263,19.869-.114,23.4-.213-.09,5.59,4.666,34.23h-.864l-8.105-34.23H1199.1Z" transform="translate(-1184.066 -7464.59)" fill="#cfd0d8"/><path d="M1181.8,7502.225c-.854-.9-.117-2.244,1.229-2.249l24.159-.084a23.41,23.41,0,0,1,6.426,1.035l13.586,3.889.1.032c1.629.561,1.476,1.033-.362,1.033l-40.982-.084a1.711,1.711,0,0,1-1.232-.5Z" transform="translate(-1181.43 -7460.691)" fill="#cfd0d8"/></g><g transform="translate(33.597 12.886)"><rect width="6.647" height="59.465" transform="translate(18.725 21.165)" fill="#ebebeb"/><rect width="6.65" height="59.465" transform="translate(139.834 21.642)" fill="#ebebeb"/><path d="M1116.3,7467.582v2.684H954.629v-2.684l26.278-18.6H1088.09Z" transform="translate(-954.478 -7448.981)" fill="#ebebeb"/><rect width="161.821" height="5.284" transform="translate(0 18.601)" fill="#ebebeb"/></g><g transform="translate(66.531 15.53)"><path d="M1029.575,7468.62l33.4-.021,4.379-5.063-30-.055Z" transform="translate(-1018.253 -7457.592)" fill="#cfd0d8"/><path d="M1088.79,7570.1h-1.623l-7.9-42.741h4.207Z" transform="translate(-1038.703 -7483.879)" fill="#cfd0d8"/><path d="M1012.282,7568.389h1.624l7.9-42.742h-4.208Z" transform="translate(-1011.137 -7483.173)" fill="#cfd0d8"/><g transform="translate(12.458 38.706)"><path d="M1031.505,7561.8h.889l6.614-34.437h-3.834Z" transform="translate(-1031.505 -7522.585)" fill="#cfd0d8"/><path d="M1102.8,7557.754h.9l-4.909-38.509-3.337,4.076Z" transform="translate(-1057.818 -7519.245)" fill="#cfd0d8"/></g><path d="M1021.744,7517.072a20.545,20.545,0,0,1,3.277-2.351c.506-.294,5.74-4.469,5.74-4.469l34.938,1.767a18.659,18.659,0,0,1,2.153.525c.738.229,1.115,1.986,1.024,3.438-.1,1.59-3.226,4.5-6.147,6.088-4.075,2.217-15.511,1.8-17.143,1.8h-2.159c-1.629,0-18.291.349-22.369-1.863C1019.572,7521.205,1020.439,7518.146,1021.744,7517.072Z" transform="translate(-1014.427 -7476.839)" fill="#cfd0d8"/><path d="M1062.087,7454.794c2.256.586,7.675,1.758,8.123,6.445s3.645,32.031,2.744,33.841a3.646,3.646,0,0,1-5.412,1.167c-1.139-1.172-7.713-39.506-7.032-40.087Z" transform="translate(-1030.963 -7454.018)" fill="#cfd0d8"/><path d="M1050.346,7493.736c0,2.5-3.12,4.433-6.984,4.358l-21.233-.438c-3.828-.083-7.1-2.142-7.325-4.631l-4.451-34.254c-.268-2.966,2.954-5.355,7.2-5.3l22.122.6c4.285.065,7.761,2.554,7.761,5.542Z" transform="translate(-1010.336 -7453.474)" fill="#cfd0d8"/></g></g><g transform="translate(83.706 232.782)"><path d="M1145.273,7667.568l-37.144,3.649a7.036,7.036,0,0,1-7.724-7V7596.36a7.035,7.035,0,0,1,7.665-7.007l45.267,4.069c.142.013.285.018.427.021a6.724,6.724,0,0,1,6.472,7.81l-8.689,60.315A7.034,7.034,0,0,1,1145.273,7667.568Z" transform="translate(-806.669 -7538.979)" fill="#ffb2b0"/><g transform="translate(233.318)"><g transform="translate(0 105.072)"><g transform="translate(0.226 3.173)"><path d="M1027.9,7693.887a2.166,2.166,0,0,1-2.2,1.637c-4.969-.271-13.365,2.508-13.653-1.052-.281-3.446,4.17-9.3,14.863-3a2.172,2.172,0,0,1,.986,2.417Z" transform="translate(-1003.85 -7688.108)" fill="#ffd9a4"/><path d="M1019.039,7689.335c.915,6.31-6.775,7.4-9.276,7.185-2.75-.24-4.759-4.841-3.8-6.818S1018.684,7686.923,1019.039,7689.335Z" transform="translate(-1001.251 -7687.764)" fill="#ffd9a4"/><path d="M1002.776,7690.3c-3.207-.295-4.815-1.185-4.639-2.028s1.992-.559,5.2-.268,7.351-.134,7.176.71S1005.98,7690.582,1002.776,7690.3Z" transform="translate(-998.125 -7687.708)" fill="#f8c471"/><path d="M1016.557,7691.195c.394,5.586-3.717,5.864-5.893,5.512-2.392-.388-3.855-4.549-2.885-6.218S1016.4,7689.061,1016.557,7691.195Z" transform="translate(-1001.972 -7688.402)" fill="#f8c471"/><path d="M1006.216,7696.782c-1.741-.227-1.842-1.62-1.4-2.328s1.707.111,3.448.339,2.787.524,2.339,1.233S1007.957,7697.007,1006.216,7696.782Z" transform="translate(-1000.787 -7690.369)" fill="#ffd9a4"/><path d="M1009,7701.511c-1.844.031-2.715-.687-2.488-1.517s1.355-.448,3.2-.479,3.124-.008,2.9.825S1010.847,7701.479,1009,7701.511Z" transform="translate(-1001.563 -7692.542)" fill="#ffd9a4"/></g><path d="M1010.825,7687.948c-3.147-2.054-3.861-4.789-2.684-5.616.4-.284,10.152,3.576,9.572,5.542C1017.3,7689.265,1013.976,7690.007,1010.825,7687.948Z" transform="translate(-1001.8 -7682.317)" fill="#ffd9a4"/><path d="M1008.925,7686.609c.362-1.973.277-3.7-.984-3.931s-1.852,1.3-2.214,3.272-1.056,3.185.9,3.869C1007.826,7690.242,1008.562,7688.583,1008.925,7686.609Z" transform="translate(-1000.853 -7682.456)" fill="#ffd9a4"/><path d="M999.426,7690.526c1.1.355,2.1.4,2.369-.434s-.548-1.313-1.643-1.67-1.718-.889-2.325.38C997.455,7689.581,998.331,7690.169,999.426,7690.526Z" transform="translate(-997.74 -7684.656)" fill="#ffd9a4"/></g><g transform="translate(41.585 36.297)"><path d="M1107.28,7600.865l1.554.55.521,3.928-3.566,1.412Z" transform="translate(-1083.788 -7580.024)" fill="#eaeaea"/><path d="M1112.342,7570.812l14.69-5.361.508,23.646-21.025,6.021Z" transform="translate(-1084.087 -7565.45)" fill="#f7c371"/><path d="M1076,7696.167c-4.857-10.982-4.742-29.062-4.979-46.979-.316-23.949,25.578-51.553,47.729-48.087,35.96,5.628-2.3,79.552-5.819,89.783" transform="translate(-1069.481 -7579.999)" fill="#03b4e9"/><path d="M1139.361,7670.718c2.871-5.193,6.169-20.729,9.29-33.7,1.165-4.844,9.428,4.521,10.613,16.428.734,7.386-17.31,49.6-18.655,53.519" transform="translate(-1097.603 -7594.365)" fill="#219ecc"/><path d="M1071.572,7671.658c2.319-30.878,26.84-60.73,48.428-68.848,3.627-1.363.467-4.109-9.805-3.409C1101,7600.064,1063.768,7617.487,1071.572,7671.658Z" transform="translate(-1069.268 -7579.375)" fill="#0080af"/><path d="M1072.909,7651.528c4.128-25.9,14.163-39.317,37.16-52.049-8.961.647-44.77,11.914-39.306,62.7C1070.9,7663.478,1072.2,7656.007,1072.909,7651.528Z" transform="translate(-1069.143 -7579.453)" fill="#eaeaea"/><path d="M1077.82,7749.275c-.12-1.09.392-2.041,1.145-2.125s1.461.732,1.581,1.823-.391,2.042-1.145,2.125S1077.941,7750.365,1077.82,7749.275Z" transform="translate(-1072.271 -7640.219)" fill="#ffd9a4"/><path d="M1075.387,7727.322c-.12-1.089.392-2.042,1.145-2.125s1.461.733,1.581,1.823-.391,2.041-1.144,2.124S1075.508,7728.412,1075.387,7727.322Z" transform="translate(-1071.27 -7631.185)" fill="#ffd9a4"/><path d="M1111.517,7606.026l-5.355,1.71,1.993-5.739,1.021-.519Z" transform="translate(-1083.942 -7580.277)" fill="#03b4e9"/><path d="M1069.778,7669.645l1.914-10.448s-3.942-32.835,20.1-48.679l-.268-.834C1071.745,7623.34,1065.254,7647.487,1069.778,7669.645Z" transform="translate(-1068.404 -7583.653)" fill="#03b4e9"/><path d="M1108.323,7597.307l21.019-5.088,2.556,4.251-20.007,7.583Z" transform="translate(-1084.831 -7576.466)" fill="#fff"/></g><g transform="translate(16.762 62.266)"><path d="M1127.963,7676.977c3.632,3.95,31.05-41.094,24.33-57.512h0c-3.506-10.15-21.352-17.991-29.588,5.467a2.32,2.32,0,0,0-.082.293C1122.09,7627.785,1115.056,7662.939,1127.963,7676.977Z" transform="translate(-1064.909 -7609.58)" fill="#03b4e9"/><path d="M1127.844,7682.661c-17.285-12.226-6.018-47.078-6.018-47.078h0C1116.364,7661.315,1128.562,7683.169,1127.844,7682.661Z" transform="translate(-1064.079 -7620.086)" fill="#0080af"/><path d="M1027.423,7696.952l2.678,1.354a2.184,2.184,0,0,0,3.119-1.479l1.208-5.47a2.184,2.184,0,0,0-2.309-2.648l-2.9.235a2.183,2.183,0,0,0-1.94,1.639l-.988,3.88A2.185,2.185,0,0,0,1027.423,7696.952Z" transform="translate(-1026.224 -7642.139)" fill="#03b4e9"/><path d="M1091.33,7707.636c-4.4.043-23.652-.421-57.042-10.229a2.184,2.184,0,0,1-1.567-1.939c-.111-1.67.166-4.6,2.42-8.418a2.185,2.185,0,0,1,1.554-1.052c5.735-.88,34.854-4.934,52.92.369a2.158,2.158,0,0,1,1.358,1.2c1.421,3.213,5.769,14.064,2.126,19.149A2.2,2.2,0,0,1,1091.33,7707.636Z" transform="translate(-1028.889 -7640.075)" fill="#03b4e9"/><path d="M1043.688,7696.1a1.6,1.6,0,1,1,1.946-1.54A1.775,1.775,0,0,1,1043.688,7696.1Z" transform="translate(-1032.627 -7643.895)" fill="#03b4e9"/></g><g transform="translate(55.863)"><path d="M1128.814,7541.462c10.527-10.747,11.163-29.782,10.749-30.483-4.411-7.486-18.454-7.966-25.663-6.61-6.079,1.144-11.011,4.074-8.42,8.95.895,1.684,5.906-1.568,7.336-1.264,2.7.576,1.411,38.278,1.411,38.278Z" transform="translate(-1097.648 -7503.773)" fill="#2d356b"/><g transform="translate(0 8.404)"><path d="M1099.522,7566.5l-1.213-2.493,2-1.022Z" transform="translate(-1094.988 -7536.543)" fill="#ffd8a3"/><path d="M1120.868,7551.531c-1.407,3.085-11.819,9.021-21.512,7.721.025-12.758,2.349-33.609,5.024-36.965,2.632-3.3,12.179-5.038,13.229-3.867-3.767,3.76.514,17.794,2.394,19.214C1124.583,7541.094,1122.336,7548.312,1120.868,7551.531Z" transform="translate(-1095.418 -7518.055)" fill="#ffd8a3"/><path d="M1092.665,7556.732a90.038,90.038,0,0,0,5.741-10.254c1.812-3.858.024,10.758.024,10.758S1094,7557.851,1092.665,7556.732Z" transform="translate(-1092.665 -7529.484)" fill="#ffd8a3"/><path d="M1097.6,7585.687a1.607,1.607,0,0,1-.906-2.177,1.933,1.933,0,0,1,2.519-.35,1.607,1.607,0,0,1,.907,2.177A1.939,1.939,0,0,1,1097.6,7585.687Z" transform="translate(-1094.249 -7544.725)" fill="#ffd8a3"/><path d="M1098.36,7576.624c-.01-.259.3-.482.691-.5s.718.181.729.439-.3.481-.69.5S1098.371,7576.883,1098.36,7576.624Z" transform="translate(-1095.008 -7541.951)" fill="#ffd8a3"/><path d="M1133.891,7550.365c.747-2.257,2.67-3.728,4.294-3.284s2.335,2.632,1.589,4.888-4,3.323-5.624,2.881S1133.144,7552.622,1133.891,7550.365Z" transform="translate(-1109.315 -7529.966)" fill="#ffd8a3"/></g><path d="M1099.892,7567.822l-.119,5.193s1.455-.022,1.824-.641a18.177,18.177,0,0,0,1.491-5.1Z" transform="translate(-1095.59 -7529.903)" fill="#ffab00"/><path d="M1100.039,7568.15l-.1,4.613s1.073,0,1.328-.273a12.941,12.941,0,0,0,1.423-4.827Z" transform="translate(-1095.657 -7530.064)" fill="#fff"/><path d="M1104.453,7540.524a1.262,1.262,0,0,1,.392-.8c.568-.5,4.825,1.229,4.69,2.139l-.086.568c-.1.654-1.34-.156-2.632-.45-1.236-.281-2.528-.019-2.458-.638Z" transform="translate(-1097.477 -7518.531)" fill="#2d356b"/><path d="M1106.514,7548.959c.042-.768.5-1.408,1.025-1.429s.917.582.876,1.35-.5,1.405-1.024,1.427S1106.475,7549.725,1106.514,7548.959Z" transform="translate(-1098.363 -7521.78)" fill="#2d356b"/><path d="M1105.215,7567.179c-.007-.18.089-.329.216-.335s.233.137.241.316-.088.328-.214.333S1105.222,7567.358,1105.215,7567.179Z" transform="translate(-1097.829 -7529.727)" fill="#ffab00"/><g transform="translate(6.993 1.724)"><path d="M1129.482,7522c-4.242-.015.946,19.57-1.3,20.783s-.245,2.933.912,2.588c2.652-.788,3.5-6.15,3.934-9.573C1133.512,7531.99,1129.841,7522,1129.482,7522Z" transform="translate(-1113.856 -7513)" fill="#2d356b"/><path d="M1104.6,7513.556c-.453-3.095,2.295-6.058,6.135-6.621s14.925-.278,15.377,2.813-9.9,7.827-13.736,8.388S1105.049,7516.647,1104.6,7513.556Z" transform="translate(-1104.548 -7506.703)" fill="#2d356b"/></g></g></g><g transform="translate(0 5.927)"><g transform="translate(3.877)"><g transform="translate(10.521)"><path d="M640.778,7665.782l37.145,3.649a7.035,7.035,0,0,0,7.723-7v-67.855a7.035,7.035,0,0,0-7.665-7.007l-45.267,4.069c-.142.012-.285.019-.428.021a6.723,6.723,0,0,0-6.472,7.81l8.688,60.315A7.035,7.035,0,0,0,640.778,7665.782Z" transform="translate(-625.739 -7544.171)" fill="#ffb2b0"/><g transform="translate(23.667)"><g transform="translate(0 2.14)"><path d="M727.134,7589.961c6.677-8.261-5.5-8.42-5.747-14.889s1.4-4.619,1.4-13.008-2.578-11.189-3.325-15.982,1.509-13.075-1.986-18.828-4.917-3.486-7.912-8.038-4.638,1.013-8.384,3.648-9.737-8.391-16.231-3.12-4.748,14.136-6.249,19.406-8.242,8.144-8.245,17.247,4.741,6.473,3.242,12.941-7.743,6.706-7.746,15.812c0,0,.247,9.1,10.235,7.43s7.492,4.075,17.98-.712,7.99,5.273,15.232.723S721.17,7597.34,727.134,7589.961Z" transform="translate(-665.956 -7517.483)" fill="#2d356b"/></g><g transform="translate(39.161 58.146)"><path d="M732.9,7613.284c8.842-6.632,32.135,40.9,32.215,42.918,0,0-2.362,4.876-4.363,3.612C755.582,7656.55,728.948,7616.247,732.9,7613.284Z" transform="translate(-732.501 -7612.65)" fill="#9ea9fc"/><g transform="translate(27.1 40.94)"><path d="M822.383,7701.522c-2.172,7.713-42.037-12.228-43.2-13.482,0,0-2.247-5.466,1.695-5.813C786.054,7681.772,823.354,7698.073,822.383,7701.522Z" transform="translate(-778.55 -7682.217)" fill="#9ea9fc"/><path d="M850.9,7708.346l-.519-2.4-8.463-3.9s.023,4.335.608,5.23S850.9,7708.346,850.9,7708.346Z" transform="translate(-804.625 -7690.378)" fill="#9ea9fc"/><path d="M850.963,7712.651l-.5,2.379-8.367,3.8s-.006-4.31.57-5.2S850.963,7712.651,850.963,7712.651Z" transform="translate(-804.7 -7694.74)" fill="#9ea9fc"/></g></g><g transform="translate(24.744 30.912)"><path d="M716.557,7566.373l9.291,5.461,2.219,19.678-7.409-2.434Z" transform="translate(-711.522 -7566.373)" fill="#f6cda2"/><path d="M746.8,7688.1c-18.585,11.889-25.883,7.846-36.889,7.688-.693-15.594,7.838-26.542,7.66-37.451-.325-20.221-18.206-43.455-4.264-53.013,14.808-10.147,34.053,34.128,34.053,34.128C732.523,7648.387,739.689,7664.118,746.8,7688.1Z" transform="translate(-708.002 -7581.78)" fill="#495bd9"/><path d="M718.707,7602.969l2.641-.391,12.181,10.8-3.422,3.067S721.915,7608.569,718.707,7602.969Z" transform="translate(-712.407 -7581.272)" fill="#fff"/><path d="M740.64,7616.577l.162-.128c-3.311-6.146-10.43-15.5-17.012-14.692C729.957,7606.94,740.64,7616.577,740.64,7616.577Z" transform="translate(-714.499 -7580.914)" fill="#f6cda2"/></g><g transform="translate(14.643)"><path d="M715.1,7555.991c-4.975-1.366-14.992-2.959-19.819-10.472-6.274-9.767-4.681-15.808-2.589-23.158,3.986-14.011,27.885-7.45,26.392-3.322C717.1,7524.521,733.131,7560.939,715.1,7555.991Z" transform="translate(-690.839 -7513.846)" fill="#2d356b"/><path d="M734.56,7564.251c1.814,0,5.059-9.373,6.026-16.562.319-2.37-2.233-2.648-2.073-10.734.094-4.747-2.1-11.318-10.047-16.033-7.505-4.45-8.062,10.281-8.7,13.684-1.831,9.7-4.307,15.782-1.821,20.474C722.8,7564.239,732.6,7563.784,734.56,7564.251Z" transform="translate(-701.56 -7516.416)" fill="#ffd8a3"/><path d="M746.339,7573.421a.417.417,0,0,1,.377-.453.439.439,0,0,1,.363.481.418.418,0,0,1-.38.453A.438.438,0,0,1,746.339,7573.421Z" transform="translate(-713.677 -7538.175)" fill="#ffab00"/><path d="M744.563,7551.9c.043-1.275.79-2.271,1.664-2.229s1.553,1.114,1.509,2.389-.789,2.272-1.664,2.229S744.519,7553.174,744.563,7551.9Z" transform="translate(-712.946 -7528.587)" fill="#2d356b"/><path d="M741.549,7552.045c1.227-1.765,2.978-3.523,6.315-2.356A12.187,12.187,0,0,0,741.549,7552.045Z" transform="translate(-711.706 -7528.44)" fill="#2d356b"/><path d="M750.4,7582.392c.054-.3.964.752,1.4.789,1.221.1.873,1.661-.345,1.433C750.971,7584.523,750.34,7582.705,750.4,7582.392Z" transform="translate(-715.346 -7542.031)" fill="#f36973"/><path d="M748.611,7573.669c-.827-.329,4.756-1.937,3.745-.044C751.986,7574,749.035,7573.837,748.611,7573.669Z" transform="translate(-714.578 -7538.072)" fill="#f36973"/><path d="M746.126,7539.329c-2.067-.417-6.566-.781-8.962,4.675C739.579,7540.7,741.451,7539.46,746.126,7539.329Z" transform="translate(-709.902 -7524.245)" fill="#2d356b"/><path d="M756.243,7562.566l-2.807.858-.1-7.17,4.184,5.1Z" transform="translate(-716.556 -7531.297)" fill="#ffd8a3"/><path d="M755.264,7570.9l2.182-4.437-2.107-.076Z" transform="translate(-717.35 -7535.466)" fill="#ffd8a3"/><path d="M750.636,7580.039a52.855,52.855,0,0,0,1.385-6.223h-5.07S747.958,7579.184,750.636,7580.039Z" transform="translate(-713.929 -7538.524)" fill="#ffab00"/><path d="M748.874,7576.842h2.888c.167-.782.321-1.6.464-2.448h-4.144Z" transform="translate(-714.395 -7538.761)" fill="#fff"/><path d="M711.863,7558.947c.114-2.211.863-3.842-.815-3.924s-3.136,1.643-3.25,3.856,1.158,4.073,2.839,4.157S711.752,7561.161,711.863,7558.947Z" transform="translate(-697.815 -7530.79)" fill="#f7c371"/><path d="M732.006,7521.441c-5.325,8.046-14.655,19.809-12.41,31.272-4.72-12.205-2.614-28.487,5.484-35.19C725.933,7518.748,733.182,7518.378,732.006,7521.441Z" transform="translate(-701.651 -7515.359)" fill="#2d356b"/></g><g transform="translate(16.503 56.471)"><g transform="translate(42.769 22.619)"><path d="M768.771,7671.192c2.5-2.821,11.632-4.527,10.15-7.463-1.326-2.631-7.349-4.9-12.248,5.428Z" transform="translate(-766.674 -7653.701)" fill="#ffd9a4"/><path d="M772.617,7662.727c2.047,4.793,7.878,2.278,9.531,1.063,1.816-1.338,1.258-5.4-.253-6.375S771.838,7660.894,772.617,7662.727Z" transform="translate(-769.099 -7651.958)" fill="#ffd9a4"/><path d="M778.217,7655.025c.988-2.909.719-6.71-.455-6.784-1.324-.085-.477,3.139-2,5.534-1.644,2.6-2.539,4.315-1.573,5S777.23,7657.939,778.217,7655.025Z" transform="translate(-769.602 -7648.24)" fill="#ffd9a4"/><path d="M786.288,7654.527c2.112-1.571,2.853-2.878,2.372-3.391s-1.63.459-3.741,2.025-5.185,3.038-4.7,3.552S784.173,7656.091,786.288,7654.527Z" transform="translate(-772.225 -7649.374)" fill="#ffd9a4"/><path d="M789.934,7658.816c2.432-1.138,4.03-3.2,3.669-3.788s-2.345.987-4.776,2.125-3.948,2-3.584,2.593S787.5,7659.952,789.934,7658.816Z" transform="translate(-774.293 -7650.981)" fill="#ffd9a4"/><path d="M788.649,7664.786c2.383-1.232,3.433-2.461,3.056-3.037s-1.794.533-4.175,1.766-4.034,2.131-3.655,2.709S786.265,7666.021,788.649,7664.786Z" transform="translate(-773.73 -7653.734)" fill="#ffd9a4"/></g><path d="M710.4,7609.906c-9.467-2.863-16.905,55.883-16.379,57.921,0,0,5.052,2.182,6.38.084C703.841,7662.484,714.631,7611.185,710.4,7609.906Z" transform="translate(-693.999 -7609.805)" fill="#9ea9fc"/><path d="M736.842,7674.234c3.878,6.734-36.743,20.988-38.4,20.939,0,0-4.469-3.858-3.1-5.236C698.9,7686.373,735.11,7671.227,736.842,7674.234Z" transform="translate(-694.446 -7636.156)" fill="#9ea9fc"/><path d="M762.694,7672.76l-1.708-1.651-8.92,1.424s2.354,3.48,3.308,3.887S762.694,7672.76,762.694,7672.76Z" transform="translate(-717.894 -7635.032)" fill="#eaeaea"/><path d="M765.637,7673.649l.9,2.216-4.759,7.688s-2.365-3.521-2.379-4.561S765.637,7673.649,765.637,7673.649Z" transform="translate(-720.91 -7636.077)" fill="#eaeaea"/></g><g transform="translate(82.116 69.522)"><rect width="63.04" height="43.67" rx="3.005" transform="translate(0.483)" fill="#ebebeb"/><rect width="64.006" height="3.152" transform="translate(0 44.964)" fill="#ebebeb"/><rect width="3.152" height="7.569" transform="translate(8.539 39)" fill="#ebebeb"/><rect width="3.152" height="7.569" transform="translate(52.217 39)" fill="#ebebeb"/><g transform="translate(24.602 13.176)"><path d="M847.3,7661.771a7.4,7.4,0,1,1,7.4,7.4A7.41,7.41,0,0,1,847.3,7661.771Zm2.821,0a4.581,4.581,0,1,0,4.58-4.579A4.586,4.586,0,0,0,850.116,7661.771Z" transform="translate(-847.295 -7654.37)" fill="#7b88ac"/></g></g></g></g></g><g transform="translate(201.026 5.256)"><g transform="translate(0 64.828)"><rect width="63.04" height="43.67" rx="3.005" transform="translate(0.483)" fill="#ebebeb"/><rect width="64.006" height="3.152" transform="translate(0 44.964)" fill="#ebebeb"/><rect width="3.152" height="7.569" transform="translate(8.539 39)" fill="#ebebeb"/><rect width="3.152" height="7.569" transform="translate(52.217 39)" fill="#ebebeb"/><g transform="translate(24.602 13.176)"><path d="M984.672,7662.725a7.4,7.4,0,1,1,7.4,7.4A7.41,7.41,0,0,1,984.672,7662.725Zm2.821,0a4.581,4.581,0,1,0,4.58-4.58A4.586,4.586,0,0,0,987.493,7662.725Z" transform="translate(-984.672 -7655.324)" fill="#7b88ac"/></g></g><g transform="translate(97.637 61.548)"><rect width="55.275" height="27.338" rx="6.672" fill="#fff" stroke="#231f20" stroke-miterlimit="10" stroke-width="0.25"/><text transform="translate(14.638 17.169)" fill="#2d356b" font-size="10" font-family="TrebuchetMS-Bold, Trebuchet MS" font-weight="700"><tspan x="0" y="0">Steve</tspan></text></g></g><g transform="translate(0 117.895)"><path d="M621.456,7722.429l341.993-3.632-8.34,42.466H629.253Z" transform="translate(-609.579 -7716.079)" fill="#2d356b"/><path d="M601.274,7714.178h369.3L965.2,7723.9l-360.336-3.24Z" transform="translate(-601.274 -7714.178)" fill="#7b88ac"/></g></g></g></g><g transform="translate(41.539 5289.823)"><g transform="translate(0 44.948)"><path d="M851.277,7395.022c0,2.4-2.441,4.351-5.483,4.351H484.126c-3.041,0-5.482-1.947-5.482-4.351V7283.354c0-2.4,2.441-4.343,5.482-4.343H845.794c3.042,0,5.483,1.946,5.483,4.343Z" transform="translate(-478.644 -7276.303)" fill="#40558e"/><path d="M853.367,7378.664c-.228.19-35.812,15.978-35.812,16.092H489.771c-3,0-5.436-1.955-5.436-4.357V7278.744c0-2.4,2.438-4.336,5.436-4.336H847.959c3,0,5.408,1.933,5.408,4.336Z" transform="translate(-480.986 -7274.408)" fill="#fff"/><g transform="translate(336.569 104.256)"><path d="M1059.469,7451.564h27l-35.907,16.343v-13.891C1050.558,7452.663,1054.549,7451.564,1059.469,7451.564Z" transform="translate(-1050.558 -7451.564)" fill="#2d356b"/></g></g><path d="M851.161,7271.359V7223.7c0-2.386-2.47-4.325-5.5-4.325H484.122c-3.036,0-5.478,1.939-5.478,4.325v47.66Z" transform="translate(-478.644 -7206.813)" fill="#2d356b"/><g transform="translate(27.15)"><path d="M534.777,7213.874c0,1.8-2.183,3.273-4.817,3.273h-.345c-2.653,0-4.836-1.477-4.836-3.273V7201.3c0-1.791,2.183-3.269,4.836-3.269h.345c2.634,0,4.817,1.478,4.817,3.269Z" transform="translate(-524.779 -7198.03)" fill="#fff4ba"/><g transform="translate(30.827)"><path d="M587.16,7213.874c0,1.8-2.184,3.273-4.827,3.273h-.355c-2.642,0-4.817-1.477-4.817-3.273V7201.3c0-1.791,2.174-3.269,4.817-3.269h.355c2.642,0,4.827,1.478,4.827,3.269Z" transform="translate(-577.161 -7198.03)" fill="#fff4ba"/></g><g transform="translate(61.654)"><path d="M639.533,7213.874c0,1.8-2.165,3.273-4.826,3.273h-.325c-2.672,0-4.837-1.477-4.837-3.273V7201.3c0-1.791,2.164-3.269,4.837-3.269h.325c2.661,0,4.826,1.478,4.826,3.269Z" transform="translate(-629.545 -7198.03)" fill="#fff4ba"/></g><g transform="translate(92.463)"><path d="M691.9,7213.874c0,1.8-2.184,3.273-4.817,3.273h-.364c-2.644,0-4.827-1.477-4.827-3.273V7201.3c0-1.791,2.183-3.269,4.827-3.269h.364c2.633,0,4.817,1.478,4.817,3.269Z" transform="translate(-681.896 -7198.03)" fill="#fff4ba"/></g><g transform="translate(123.289)"><path d="M744.267,7213.874c0,1.8-2.164,3.273-4.817,3.273H739.1c-2.644,0-4.818-1.477-4.818-3.273V7201.3c0-1.791,2.174-3.269,4.818-3.269h.354c2.653,0,4.817,1.478,4.817,3.269Z" transform="translate(-734.278 -7198.03)" fill="#fff4ba"/></g><g transform="translate(154.122)"><path d="M796.649,7213.874c0,1.8-2.184,3.273-4.808,3.273h-.364c-2.643,0-4.807-1.477-4.807-3.273V7201.3c0-1.791,2.164-3.269,4.807-3.269h.364c2.624,0,4.808,1.478,4.808,3.269Z" transform="translate(-786.67 -7198.03)" fill="#fff4ba"/></g><g transform="translate(184.939)"><path d="M849.035,7213.874c0,1.8-2.2,3.273-4.827,3.273h-.364c-2.662,0-4.807-1.477-4.807-3.273V7201.3c0-1.791,2.145-3.269,4.807-3.269h.364c2.624,0,4.827,1.478,4.827,3.269Z" transform="translate(-839.037 -7198.03)" fill="#fff4ba"/></g><g transform="translate(215.757)"><path d="M901.382,7213.874c0,1.8-2.165,3.273-4.827,3.273h-.325c-2.662,0-4.827-1.477-4.827-3.273V7201.3c0-1.791,2.165-3.269,4.827-3.269h.325c2.662,0,4.827,1.478,4.827,3.269Z" transform="translate(-891.403 -7198.03)" fill="#fff4ba"/></g><g transform="translate(246.574)"><path d="M953.749,7213.874c0,1.8-2.164,3.273-4.827,3.273h-.344c-2.624,0-4.808-1.477-4.808-3.273V7201.3c0-1.791,2.184-3.269,4.808-3.269h.344c2.662,0,4.827,1.478,4.827,3.269Z" transform="translate(-943.77 -7198.03)" fill="#fff4ba"/></g><g transform="translate(277.373)"><path d="M1006.1,7213.874c0,1.8-2.164,3.273-4.808,3.273h-.364c-2.624,0-4.827-1.477-4.827-3.273V7201.3c0-1.791,2.2-3.269,4.827-3.269h.364c2.644,0,4.808,1.478,4.808,3.269Z" transform="translate(-996.104 -7198.03)" fill="#fff4ba"/></g><g transform="translate(308.21)"><path d="M1058.5,7213.874c0,1.8-2.183,3.273-4.827,3.273h-.344c-2.663,0-4.827-1.477-4.827-3.273V7201.3c0-1.791,2.164-3.269,4.827-3.269h.344c2.644,0,4.827,1.478,4.827,3.269Z" transform="translate(-1048.505 -7198.03)" fill="#fff4ba"/></g></g></g><text transform="translate(61.869 5387.832)" fill="#2d356b" font-size="14" font-family="TrebuchetMS-Bold, Trebuchet MS" font-weight="700"><tspan x="0" y="0">Talk to the director</tspan><tspan x="0" y="13"></tspan><tspan x="0" y="26">Give Steve an update</tspan></text><text transform="translate(237.977 5385.832)" fill="#2d356b" font-size="14" font-family="TrebuchetMS-Bold, Trebuchet MS" font-weight="700"><tspan x="0" y="0">Tomorrow</tspan><tspan x="0" y="14"></tspan><tspan x="0" y="28">Next Monday</tspan></text><text transform="translate(60.737 5338.666)" fill="#fff" font-size="14" font-family="TrebuchetMS-Bold, Trebuchet MS" font-weight="700"><tspan x="0" y="0">To-do </tspan><tspan y="0" fill="#ebebeb" font-size="11" font-family="YuGothicUI-Regular, Yu Gothic UI" font-weight="400">やること</tspan></text><text transform="translate(237.977 5338.666)" fill="#fff" font-size="14" font-family="TrebuchetMS-Bold, Trebuchet MS" font-weight="700"><tspan x="0" y="0">By when </tspan><tspan y="0" fill="#ebebeb" font-size="11" font-family="YuGothicUI-Regular, Yu Gothic UI" font-weight="400">いつまでに</tspan></text><line y2="71.975" transform="translate(215.423 5367.052)" fill="none" stroke="#2d356b" stroke-miterlimit="10" stroke-width="1"/></g></svg>