<svg xmlns="http://www.w3.org/2000/svg" width="544" height="394.08" viewBox="0 0 544 394.08"><g transform="translate(-357.756 -121.297)"><g transform="translate(357.756 121.297)"><g transform="translate(0.447)"><g transform="translate(0.102)"><path d="M901.6,135.889h.644V122.063H358.8V411H901.6V381.977h.005Z" transform="translate(-358.798 -121.659)" fill="#fff"/><rect width="542.901" height="0.808" transform="translate(0 288.936)" fill="#a0bacb"/><rect width="543.451" height="0.808" fill="#7b88ac"/></g><g transform="translate(468.096 59.094)"><path d="M1114.757,234v-.128h-2.342V234h-24.2V340.1h49.708V234Zm21.1,3.407v23.33h-21.1V237.4Zm-23.445,27.356v44.572h-22.147V264.76Zm2.342,44.572V264.76h21.1v44.572Zm-2.342-71.928v23.33h-22.147V237.4Zm-22.147,75.954h22.147v23.331h-22.147Zm24.489,23.331V313.358h21.1v23.331Z" transform="translate(-1088.063 -233.626)" fill="#ebebeb"/><path d="M1137.933,340.12h-50V233.536h24.2v-.128h2.636v.128h23.162Zm-49.708-.487h49.414V234.023h-23.161v-.128h-2.048v.128h-24.2Zm47.65-2.92h-21.4V312.9h21.4Zm-21.1-.486h20.809V313.383h-20.809Zm-2.342.486h-22.441V312.9h22.441Zm-22.147-.486h21.853V313.383h-21.853Zm45.592-26.869h-21.4V264.3h21.4Zm-21.1-.487h20.809V264.785h-20.809Zm-2.342.487h-22.441V264.3h22.441Zm-22.147-.487h21.853V264.785h-21.853Zm45.592-48.111h-21.4V236.942h21.4Zm-21.1-.487h20.809V237.429h-20.809Zm-2.342.487h-22.441V236.942h22.441Zm-22.147-.487h21.853V237.429h-21.853Z" transform="translate(-1087.931 -233.408)" fill="#ebebeb"/></g><g transform="translate(0 59.039)"><path d="M433.788,234.282v-.212h-6.563v.212H359.386V410.438H498.7V234.282Zm59.147,5.656v38.736H433.788V239.938Zm-65.71,45.42v74H365.154v-74Zm6.563,74v-74h59.147v74Zm-6.563-119.424v38.736H365.154V239.938ZM365.154,366.046h62.072v38.736H365.154Zm68.635,38.736V366.046h59.147v38.736Z" transform="translate(-358.974 -233.666)" fill="#ebebeb"/><path d="M498.745,410.479H358.6V233.515h67.84V233.3h7.387v.212h64.915Zm-139.317-.808H497.921V234.323H433.007v-.212h-5.739v.212h-67.84Zm133.549-4.848h-59.97V365.28h59.97Zm-59.146-.808h58.323V366.088H433.831Zm-6.563.808h-62.9V365.28h62.9Zm-62.072-.808h61.248V366.088H365.2ZM492.977,359.4h-59.97V284.591h59.97Zm-59.146-.808h58.323V285.4H433.831Zm-6.563.808h-62.9V284.591h62.9Zm-62.072-.808h61.248V285.4H365.2Zm127.781-79.88h-59.97V239.171h59.97Zm-59.146-.808h58.323V239.979H433.831Zm-6.563.808h-62.9V239.171h62.9Zm-62.072-.808h61.248V239.979H365.2Z" transform="translate(-358.604 -233.303)" fill="#ebebeb"/></g></g><g transform="translate(0 254.555)"><path d="M901.206,604.883h-542.8v99.135h-.649v40.047H901.2V609.106h.005Z" transform="translate(-357.756 -604.539)" fill="#f9f9f9"/><rect width="541.944" height="0.579" transform="translate(1.643 138.727)" fill="#f9f9f9"/><rect width="542.906" height="0.579" transform="translate(0.549)" fill="#f9f9f9"/></g><g transform="translate(27.879 5.094)"><path d="M957,217.4V130.961h-1.761V217.4a10.687,10.687,0,1,0,1.761,0Z" transform="translate(-598.717 -130.961)" fill="#ffb2b0"/><path d="M422.213,230.358V143.915h-1.76v86.443a10.687,10.687,0,1,0,1.76,0Z" transform="translate(-410.648 -137.087)" fill="#ffb2b0"/><path d="M609.32,219.787V156.94h-1.28v62.847a7.77,7.77,0,1,0,1.28,0Z" transform="translate(-477.922 -143.246)" fill="#ffb2b0"/><path d="M1120.283,219.787V156.94H1119v62.847a7.77,7.77,0,1,0,1.28,0Z" transform="translate(-658.59 -143.246)" fill="#ffb2b0"/></g><g transform="translate(301.107 183.78)"><g transform="translate(0 0)"><g transform="translate(0.406 36.976)"><path d="M772.461,593.725l-1.414-.01,4.469-38.079.655-4.753,24.217,3.994L798.9,597.643l-1.808-.148-.879-37.883-17.275-2.778Z" transform="translate(-771.046 -545.203)" fill="#cfd0d8"/><g transform="translate(4.279)"><path d="M825.777,542.8l-14.926-1.046-31.441,2.775-.1,4.764a2.291,2.291,0,0,0,1.907,2.8s19.58,4.23,21.934,3.489L827,548.459Z" transform="translate(-779.199 -540.888)" fill="#cfd0d8"/><path d="M805.3,547.8c-3.339.742-3.354.036-6.219-.261L783.2,544.89c-6-.637-4.286-.865-1.417-2.019l2.374-.515c2.377-.94,14.134-2.527,17.277-2.207l22.8.673c3.362.335,1.6,1.5,1.133,1.6Z" transform="translate(-779.165 -540.108)" fill="#cfd0d8"/></g><path d="M863.965,551.951l3.748,40.034-1.1-.145-5.962-37.251Z" transform="translate(-813.418 -545.708)" fill="#cfd0d8"/></g><path d="M800.508,510.122c.041,2.184-2.047,3.585-5.767,3.288l-16.858-2.661c-4.263-.556-3.651-.955-4.146-3.2l-3.314-31.792c-.767-3.446,1.483-6.213,6.4-5.752l15.34,1.362c4.855.449,5.409,2.971,5.454,6.323Z" transform="translate(-770.276 -469.958)" fill="#cfd0d8"/><path d="M816.345,474.675a4.609,4.609,0,0,1,4.317,3.939c.251,2.506,4.82,33.112,3.567,35.113s-4.266,2.311-4.129,1.44c1.247-8.136-2.377-36.047-3.255-37.678A3.877,3.877,0,0,1,816.345,474.675Z" transform="translate(-792.024 -472.187)" fill="#cfd0d8"/></g><g transform="translate(140.982 3.571)"><path d="M1039.4,588.581H1038.3l3.1-36.142,2.326.132,25.593.307v6.564h-.066l3.618,29.329h-1.094l-6.282-29.329h-20.286Z" transform="translate(-1038.008 -512.534)" fill="#cfd0d8"/><path d="M1089.916,480.224c1.049-4.462,7.029-3.573,12.288-3.052,3.781.371,4.7,1.91,4.507,5.711l-4.513,33a5.666,5.666,0,0,1-6.871,5.568c-3.6-.731-10.987-3.149-10.706-6.94Z" transform="translate(-1059.908 -476.732)" fill="#cfd0d8"/><path d="M1046.954,598.728h-.9l3.423-33.323-5.706-5.155,16.752-.112,19.725-.208-.076,5.475,3.933,33.524h-.729l-6.833-33.524h-23.275Z" transform="translate(-1040.594 -516.076)" fill="#cfd0d8"/><path d="M1038.051,551.853a1.348,1.348,0,0,1,1.036-2.2l20.369-.083a17.281,17.281,0,0,1,5.418,1.014l11.454,3.81c.028.01.057.02.085.031,1.374.549,1.245,1.012-.305,1.012l-34.552-.082a1.348,1.348,0,0,1-1.038-.493Z" transform="translate(-1037.743 -511.176)" fill="#cfd0d8"/></g><g transform="translate(28.325 12.62)"><rect width="5.604" height="58.239" transform="translate(15.787 20.728)" fill="#ebebeb"/><rect width="5.607" height="58.238" transform="translate(117.894 21.195)" fill="#ebebeb"/><path d="M960.559,512.118v2.628h-136.3v-2.628L846.411,493.9h90.365Z" transform="translate(-824.128 -493.901)" fill="#ebebeb"/><rect width="136.431" height="5.175" transform="translate(0 18.217)" fill="#ebebeb"/></g><g transform="translate(56.092 15.21)"><path d="M894.8,514.788l28.158-.02,3.692-4.959-25.294-.053Z" transform="translate(-885.257 -503.988)" fill="#cfd0d8"/><path d="M949.606,621.464h-1.369L941.58,579.6h3.547Z" transform="translate(-907.378 -537.02)" fill="#cfd0d8"/><path d="M878.524,619.591h1.369l6.658-41.86H883Z" transform="translate(-877.559 -536.134)" fill="#cfd0d8"/><g transform="translate(10.503 37.907)"><path d="M896.619,613.331h.749l5.576-33.727h-3.233Z" transform="translate(-896.619 -574.927)" fill="#cfd0d8"/><path d="M963,608.444h.757l-4.139-37.713-2.814,3.992Z" transform="translate(-925.082 -570.731)" fill="#cfd0d8"/></g><path d="M887.286,567.576a17.643,17.643,0,0,1,2.763-2.3c.426-.287,4.84-4.375,4.84-4.375l29.455,1.729a13.856,13.856,0,0,1,1.816.516c.622.223.939,1.945.863,3.367-.086,1.557-2.719,4.406-5.182,5.962-3.436,2.171-13.077,1.767-14.454,1.767h-1.821c-1.374,0-15.421.341-18.859-1.825C885.456,571.624,886.187,568.628,887.286,567.576Z" transform="translate(-881.118 -528.174)" fill="#cfd0d8"/><path d="M925.246,500.256c1.9.574,6.47,1.722,6.849,6.313s3.073,31.37,2.313,33.143c-.955,2.229-3.616,2.288-4.563,1.143s-6.5-38.691-5.929-39.26Z" transform="translate(-899.005 -499.496)" fill="#cfd0d8"/><path d="M910.425,538.245c0,2.448-2.631,4.342-5.889,4.268l-17.9-.429c-3.227-.081-5.988-2.1-6.176-4.535L876.706,504c-.226-2.9,2.491-5.246,6.074-5.188l18.651.589c3.613.064,6.544,2.5,6.544,5.427Z" transform="translate(-876.693 -498.814)" fill="#cfd0d8"/></g></g><g transform="translate(202.261 203.039)"><path d="M798.516,762.966h-8.178c5.849.838,4.159,31.551,0,53.415h8.178C795.166,795.724,794.512,763.918,798.516,762.966Z" transform="translate(-722.127 -627.781)" fill="#2d356b"/><path d="M805.168,765.778H689.107l7.468,3.648H797.7Z" transform="translate(-674.255 -629.111)" fill="#2d356b"/><path d="M796.9,506.5H670.387c-5.223,0-9.457,5.059-9.457,11.294v99.785c0,6.24,4.235,11.3,9.457,11.3H796.9c5.223,0,9.459-5.056,9.459-11.3V517.791C806.356,511.556,802.12,506.5,796.9,506.5Z" transform="translate(-660.93 -506.497)" fill="#40558e" stroke="#2d356b" stroke-miterlimit="10" stroke-width="1"/><g transform="translate(0 9.241)"><path d="M660.93,526.082V616.81H806.356V526.082a13.677,13.677,0,0,0-.159-2.053H661.089A13.456,13.456,0,0,0,660.93,526.082Z" transform="translate(-660.93 -524.029)" fill="#fff"/><g transform="translate(59.158 113.135)"><path d="M800.107,750.523s-1.153-1.43-2.6-2.981-1.246-2.691-1.246-2.691l-.391-6.186h-18.3l-.39,6.186s.2,1.14-1.247,2.691-2.6,2.981-2.6,2.981a2.091,2.091,0,0,0-.168.836c0,.489.242.511,1.245.511h24.62c1,0,1.246-.022,1.246-.511A2.1,2.1,0,0,0,800.107,750.523Z" transform="translate(-773.163 -738.665)" fill="#40558e"/><path d="M800.107,750.523s-1.153-1.43-2.6-2.981-1.246-2.691-1.246-2.691l-.391-6.186h-18.3l-.39,6.186s.2,1.14-1.247,2.691-2.6,2.981-2.6,2.981a2.091,2.091,0,0,0-.168.836c0,.489.242.511,1.245.511h24.62c1,0,1.246-.022,1.246-.511A2.1,2.1,0,0,0,800.107,750.523Z" transform="translate(-773.163 -738.665)" fill="#40558e"/></g></g><rect width="128.484" height="3.648" transform="translate(8.471 133.97)" fill="#2d356b"/><g transform="translate(22.719 11.935)"><g transform="translate(0 12.936)"><path d="M803.607,628.6a1.462,1.462,0,0,1-1.465,1.464H705.5a1.461,1.461,0,0,1-1.465-1.464V556.872a1.461,1.461,0,0,1,1.465-1.462h96.644a1.462,1.462,0,0,1,1.465,1.462Z" transform="translate(-704.032 -554.499)" fill="#7b88ac"/><path d="M803.821,612.622c-.061.064-13.74,15.674-13.74,15.712H706.089a1.465,1.465,0,0,1-1.462-1.466V555.141a1.459,1.459,0,0,1,1.462-1.459h96.279a1.452,1.452,0,0,1,1.454,1.459Z" transform="translate(-704.313 -553.682)" fill="#fff"/><g transform="translate(85.781 59.045)"><path d="M869.127,665.7h11.4l-13.753,15.692V668.056A2.354,2.354,0,0,1,869.127,665.7Z" transform="translate(-866.773 -665.701)" fill="#40558e"/></g><g transform="translate(3.278 10.208)"><rect width="12.391" height="8.271" fill="#ebebeb"/><rect width="12.391" height="8.271" transform="translate(13.487)" fill="#ebebeb"/><rect width="12.391" height="8.271" transform="translate(26.975)" fill="#ebebeb"/><rect width="12.391" height="8.271" transform="translate(40.462)" fill="#ebebeb"/><rect width="12.391" height="8.271" transform="translate(53.95)" fill="#ebebeb"/><rect width="12.391" height="8.271" transform="translate(67.437)" fill="#ebebeb"/><rect width="12.391" height="8.271" transform="translate(80.924)" fill="#ebebeb"/></g><g transform="translate(3.278 21.413)"><rect width="12.391" height="8.271" fill="#ebebeb"/><rect width="12.391" height="8.271" transform="translate(13.46)" fill="#ebebeb"/><rect width="12.391" height="8.271" transform="translate(40.379)" fill="#ebebeb"/><rect width="12.391" height="8.271" transform="translate(53.838)" fill="#ebebeb"/><rect width="12.391" height="8.271" transform="translate(67.298)" fill="#ebebeb"/><rect width="12.391" height="8.271" transform="translate(80.757)" fill="#ebebeb"/><rect width="12.391" height="8.271" transform="translate(26.919)" fill="#ebebeb"/></g><g transform="translate(3.278 32.617)"><rect width="12.391" height="8.271" fill="#ebebeb"/><rect width="12.391" height="8.271" transform="translate(13.46)" fill="#ebebeb"/><rect width="12.391" height="8.271" transform="translate(40.379)" fill="#ebebeb"/><rect width="12.391" height="8.271" transform="translate(53.838)" fill="#ebebeb"/><rect width="12.391" height="8.271" transform="translate(67.298)" fill="#ebebeb"/><rect width="12.391" height="8.271" transform="translate(80.757)" fill="#ebebeb"/><rect width="12.391" height="8.271" transform="translate(26.919)" fill="#ebebeb"/></g><g transform="translate(3.278 43.822)"><rect width="12.391" height="8.271" fill="#ebebeb"/><rect width="12.391" height="8.271" transform="translate(13.46)" fill="#ebebeb"/><rect width="12.391" height="8.271" transform="translate(40.379)" fill="#ebebeb"/><rect width="12.391" height="8.271" transform="translate(53.838)" fill="#ebebeb"/><rect width="12.391" height="8.271" transform="translate(67.298)" fill="#ebebeb"/><rect width="12.391" height="8.271" transform="translate(80.757)" fill="#ebebeb"/><rect width="12.391" height="8.271" transform="translate(26.919)" fill="#ebebeb"/></g><g transform="translate(3.278 55.026)"><rect width="12.391" height="8.271" fill="#ebebeb"/><rect width="12.391" height="8.271" transform="translate(13.219)" fill="#ebebeb"/><rect width="12.391" height="8.271" transform="translate(27.1)" fill="#ebebeb"/></g><g transform="translate(43.834 54.91)"><rect width="12.391" height="8.271" fill="#ebebeb"/><rect width="12.391" height="8.271" transform="translate(13.219)" fill="#ebebeb"/><rect width="12.391" height="8.271" transform="translate(27.1)" fill="#ebebeb"/></g></g><path d="M803.576,548.443V535.068a1.362,1.362,0,0,0-1.469-1.214H705.5a1.355,1.355,0,0,0-1.464,1.214v13.375Z" transform="translate(-704.032 -531.369)" fill="#2d356b"/><g transform="translate(7.222)"><path d="M720.4,533.259c0,.467-.584.851-1.287.851h-.092c-.709,0-1.292-.384-1.292-.851V529.99c0-.466.583-.85,1.292-.85h.092c.7,0,1.287.384,1.287.85Z" transform="translate(-717.733 -529.14)" fill="#fff4ba"/><g transform="translate(8.237)"><path d="M736.032,533.259c0,.467-.584.851-1.29.851h-.095c-.706,0-1.287-.384-1.287-.851V529.99c0-.466.581-.85,1.287-.85h.095c.706,0,1.29.384,1.29.85Z" transform="translate(-733.36 -529.14)" fill="#fff4ba"/></g><g transform="translate(16.475)"><path d="M751.658,533.259c0,.467-.578.851-1.289.851h-.087c-.714,0-1.292-.384-1.292-.851V529.99c0-.466.578-.85,1.292-.85h.087c.711,0,1.289.384,1.289.85Z" transform="translate(-748.989 -529.14)" fill="#fff4ba"/></g><g transform="translate(24.707)"><path d="M767.282,533.259c0,.467-.584.851-1.287.851h-.1c-.706,0-1.29-.384-1.29-.851V529.99c0-.466.584-.85,1.29-.85h.1c.7,0,1.287.384,1.287.85Z" transform="translate(-764.607 -529.14)" fill="#fff4ba"/></g><g transform="translate(32.945)"><path d="M782.9,533.259c0,.467-.578.851-1.287.851h-.094c-.707,0-1.288-.384-1.288-.851V529.99c0-.466.581-.85,1.288-.85h.094c.709,0,1.287.384,1.287.85Z" transform="translate(-780.235 -529.14)" fill="#fff4ba"/></g><g transform="translate(41.184)"><path d="M798.533,533.259c0,.467-.583.851-1.285.851h-.1c-.706,0-1.285-.384-1.285-.851V529.99c0-.466.578-.85,1.285-.85h.1c.7,0,1.285.384,1.285.85Z" transform="translate(-795.866 -529.14)" fill="#fff4ba"/></g><g transform="translate(49.419)"><path d="M814.161,533.259c0,.467-.589.851-1.29.851h-.1c-.712,0-1.285-.384-1.285-.851V529.99c0-.466.573-.85,1.285-.85h.1c.7,0,1.29.384,1.29.85Z" transform="translate(-811.49 -529.14)" fill="#fff4ba"/></g><g transform="translate(57.654)"><path d="M829.779,533.259c0,.467-.578.851-1.29.851H828.4c-.711,0-1.29-.384-1.29-.851V529.99c0-.466.579-.85,1.29-.85h.087c.712,0,1.29.384,1.29.85Z" transform="translate(-827.112 -529.14)" fill="#fff4ba"/></g><g transform="translate(65.889)"><path d="M845.4,533.259c0,.467-.578.851-1.29.851h-.092c-.7,0-1.285-.384-1.285-.851V529.99c0-.466.584-.85,1.285-.85h.092c.712,0,1.29.384,1.29.85Z" transform="translate(-842.736 -529.14)" fill="#fff4ba"/></g><g transform="translate(74.119)"><path d="M861.021,533.259c0,.467-.578.851-1.285.851h-.1c-.7,0-1.29-.384-1.29-.851V529.99c0-.466.589-.85,1.29-.85h.1c.706,0,1.285.384,1.285.85Z" transform="translate(-858.349 -529.14)" fill="#fff4ba"/></g><g transform="translate(82.359)"><path d="M876.654,533.259c0,.467-.583.851-1.29.851h-.092c-.712,0-1.29-.384-1.29-.851V529.99c0-.466.578-.85,1.29-.85h.092c.707,0,1.29.384,1.29.85Z" transform="translate(-873.983 -529.14)" fill="#fff4ba"/></g></g><g transform="translate(3.359 22.688)"><text transform="translate(0 12.072)" fill="#9999a5" font-size="1" font-family="TrebuchetMS-Bold, Trebuchet MS" font-weight="700"><tspan x="0" y="0">5</tspan></text><text transform="translate(0 23.361)" fill="#9999a5" font-size="1" font-family="TrebuchetMS-Bold, Trebuchet MS" font-weight="700"><tspan x="0" y="0">12</tspan></text><text transform="translate(0 34.486)" fill="#9999a5" font-size="1" font-family="TrebuchetMS-Bold, Trebuchet MS" font-weight="700"><tspan x="0" y="0">19</tspan></text><text transform="translate(0 45.607)" fill="#9999a5" font-size="1" font-family="TrebuchetMS-Bold, Trebuchet MS" font-weight="700"><tspan x="0" y="0">26</tspan></text><text transform="translate(13.73 12.155)" fill="#9999a5" font-size="1" font-family="TrebuchetMS-Bold, Trebuchet MS" font-weight="700"><tspan x="0" y="0">6</tspan></text><text transform="translate(13.73 23.445)" fill="#9999a5" font-size="1" font-family="TrebuchetMS-Bold, Trebuchet MS" font-weight="700"><tspan x="0" y="0">13</tspan></text><text transform="translate(13.73 34.57)" fill="#9999a5" font-size="1" font-family="TrebuchetMS-Bold, Trebuchet MS" font-weight="700"><tspan x="0" y="0">20</tspan></text><text transform="translate(13.73 45.691)" fill="#9999a5" font-size="1" font-family="TrebuchetMS-Bold, Trebuchet MS" font-weight="700"><tspan x="0" y="0">27</tspan></text><text transform="translate(26.977 12.155)" fill="#9999a5" font-size="1" font-family="TrebuchetMS-Bold, Trebuchet MS" font-weight="700"><tspan x="0" y="0">7</tspan></text><text transform="translate(26.977 23.445)" fill="#9999a5" font-size="1" font-family="TrebuchetMS-Bold, Trebuchet MS" font-weight="700"><tspan x="0" y="0">14</tspan></text><text transform="translate(26.977 34.57)" fill="#9999a5" font-size="1" font-family="TrebuchetMS-Bold, Trebuchet MS" font-weight="700"><tspan x="0" y="0">21</tspan></text><text transform="translate(40.475 1)" fill="#9999a5" font-size="1" font-family="TrebuchetMS-Bold, Trebuchet MS" font-weight="700"><tspan x="0" y="0">1</tspan></text><text transform="translate(40.475 12.125)" fill="#9999a5" font-size="1" font-family="TrebuchetMS-Bold, Trebuchet MS" font-weight="700"><tspan x="0" y="0">8</tspan></text><text transform="translate(40.476 23.414)" fill="#9999a5" font-size="1" font-family="TrebuchetMS-Bold, Trebuchet MS" font-weight="700"><tspan x="0" y="0">15</tspan></text><text transform="translate(40.476 34.539)" fill="#9999a5" font-size="1" font-family="TrebuchetMS-Bold, Trebuchet MS" font-weight="700"><tspan x="0" y="0">22</tspan></text><text transform="translate(54.02 1)" fill="#9999a5" font-size="1" font-family="TrebuchetMS-Bold, Trebuchet MS" font-weight="700"><tspan x="0" y="0">2</tspan></text><text transform="translate(54.02 12.125)" fill="#9999a5" font-size="1" font-family="TrebuchetMS-Bold, Trebuchet MS" font-weight="700"><tspan x="0" y="0">9</tspan></text><text transform="translate(54.02 23.414)" fill="#9999a5" font-size="1" font-family="TrebuchetMS-Bold, Trebuchet MS" font-weight="700"><tspan x="0" y="0">16</tspan></text><text transform="translate(54.02 34.539)" fill="#9999a5" font-size="1" font-family="TrebuchetMS-Bold, Trebuchet MS" font-weight="700"><tspan x="0" y="0">23</tspan></text><text transform="translate(67.562 1)" fill="#9999a5" font-size="1" font-family="TrebuchetMS-Bold, Trebuchet MS" font-weight="700"><tspan x="0" y="0">3</tspan></text><text transform="translate(67.562 12.125)" fill="#9999a5" font-size="1" font-family="TrebuchetMS-Bold, Trebuchet MS" font-weight="700"><tspan x="0" y="0">10</tspan></text><text transform="translate(67.562 23.414)" fill="#9999a5" font-size="1" font-family="TrebuchetMS-Bold, Trebuchet MS" font-weight="700"><tspan x="0" y="0">17</tspan></text><text transform="translate(67.562 41.539)" fill="#f46973" font-size="10" font-family="TrebuchetMS-Bold, Trebuchet MS" font-weight="700"><tspan x="0" y="0">24</tspan></text><text transform="translate(81.051 1)" fill="#9999a5" font-size="1" font-family="TrebuchetMS-Bold, Trebuchet MS" font-weight="700"><tspan x="0" y="0">4</tspan></text><text transform="translate(81.051 12.125)" fill="#9999a5" font-size="1" font-family="TrebuchetMS-Bold, Trebuchet MS" font-weight="700"><tspan x="0" y="0">11</tspan></text><text transform="translate(81.051 23.414)" fill="#9999a5" font-size="1" font-family="TrebuchetMS-Bold, Trebuchet MS" font-weight="700"><tspan x="0" y="0">18</tspan></text><text transform="translate(81.051 34.539)" fill="#9999a5" font-size="1" font-family="TrebuchetMS-Bold, Trebuchet MS" font-weight="700"><tspan x="0" y="0">25</tspan></text><text transform="translate(26.977 45.691)" fill="#9999a5" font-size="1" font-family="TrebuchetMS-Bold, Trebuchet MS" font-weight="700"><tspan x="0" y="0">28</tspan></text><text transform="translate(40.475 45.607)" fill="#9999a5" font-size="1" font-family="TrebuchetMS-Bold, Trebuchet MS" font-weight="700"><tspan x="0" y="0">29</tspan></text><text transform="translate(53.808 45.607)" fill="#9999a5" font-size="1" font-family="TrebuchetMS-Bold, Trebuchet MS" font-weight="700"><tspan x="0" y="0">30</tspan></text></g><ellipse cx="9.984" cy="6.974" rx="9.984" ry="6.974" transform="translate(66.626 53.824)" fill="none" stroke="#f46973" stroke-miterlimit="10" stroke-width="1.5"/><g transform="translate(60.094 64.588)"><g transform="translate(0)"><rect width="74.23" height="25.282" rx="9.753" transform="translate(1.99 -53.445) rotate(-0.118)" fill="#fff" stroke="#231f20" stroke-miterlimit="10" stroke-width="0.25"/><path d="M837.277,650.655l7.039-13.691,1.173,13.575Z" transform="matrix(-0.999, -0.035, 0.035, -0.999, 838.622, 651.432)" fill="#fff" stroke="#231f20" stroke-miterlimit="10" stroke-width="0.25"/></g></g><text transform="translate(72.532 14.366)" fill="#2d356b" font-size="14" font-family="TrebuchetMS-Bold, Trebuchet MS" font-weight="700"><tspan x="0" y="13">meeting</tspan></text></g></g><path d="M1012.268,737.381,979,740.65a6.3,6.3,0,0,1-6.918-6.271V673.6a6.3,6.3,0,0,1,6.866-6.276l40.545,3.645c.127.012.255.016.383.02a6.022,6.022,0,0,1,5.8,6.995l-7.782,54.023A6.3,6.3,0,0,1,1012.268,737.381Z" transform="translate(-586.651 -379.501)" fill="#ffb2b0"/><g transform="translate(285.899 118.332)"><g transform="translate(0)"><rect width="264.153" height="62.917" rx="11.604" transform="translate(236.153 59.917) rotate(-180)" fill="#fff" stroke="#231f20" stroke-miterlimit="10" stroke-width="0.25"/><path d="M1027.4,459.473l-35.447,64.985,16.085-64.985Z" transform="translate(-859.901 -399.552)" fill="#fff" stroke="#231f20" stroke-miterlimit="10" stroke-width="0.25"/></g></g><g transform="translate(51.416 42.071)"><rect width="252.77" height="59.917" rx="11.604" fill="#fff" stroke="#231f20" stroke-miterlimit="10" stroke-width="0.25"/><path d="M487.408,333.764l50.467,132.257-30.93-132.257Z" transform="translate(-470.484 -273.844)" fill="#fff" stroke="#231f20" stroke-miterlimit="10" stroke-width="0.25"/></g><g transform="translate(326.474 242.705)"><g transform="translate(0 94.11)"><g transform="translate(0.203 2.842)"><path d="M897.918,771.32a1.94,1.94,0,0,1-1.967,1.465c-4.451-.243-11.971,2.246-12.228-.942-.251-3.087,3.735-8.328,13.312-2.689a1.946,1.946,0,0,1,.883,2.165Z" transform="translate(-876.379 -766.144)" fill="#ffd9a4"/><path d="M889.324,767.156c.82,5.651-6.068,6.629-8.309,6.435-2.462-.215-4.262-4.336-3.4-6.107S889.007,765,889.324,767.156Z" transform="translate(-873.392 -765.748)" fill="#ffd9a4"/><path d="M873.966,768c-2.873-.264-4.313-1.061-4.155-1.816s1.785-.5,4.655-.24,6.584-.12,6.427.636S876.836,768.259,873.966,768Z" transform="translate(-869.8 -765.684)" fill="#f8c471"/><path d="M887.285,768.983c.353,5-3.33,5.251-5.279,4.937-2.142-.348-3.453-4.074-2.584-5.569S887.147,767.071,887.285,768.983Z" transform="translate(-874.222 -766.481)" fill="#f8c471"/><path d="M877.723,774.485c-1.56-.2-1.65-1.451-1.25-2.085s1.528.1,3.088.3,2.5.47,2.094,1.1S879.282,774.687,877.723,774.485Z" transform="translate(-872.86 -768.741)" fill="#ffd9a4"/><path d="M880.415,779.272c-1.652.028-2.432-.615-2.229-1.359s1.213-.4,2.865-.428,2.8-.007,2.593.739S882.067,779.243,880.415,779.272Z" transform="translate(-873.751 -771.238)" fill="#ffd9a4"/></g><path d="M882.165,765.337c-2.818-1.84-3.458-4.29-2.4-5.031.361-.254,9.094,3.2,8.574,4.964C887.967,766.516,884.987,767.182,882.165,765.337Z" transform="translate(-874.081 -760.293)" fill="#ffd9a4"/><path d="M880.222,764.173c.325-1.767.248-3.313-.881-3.521s-1.659,1.164-1.983,2.931-.946,2.852.807,3.466C879.238,767.426,879.9,765.94,880.222,764.173Z" transform="translate(-872.993 -760.453)" fill="#ffd9a4"/><path d="M870.926,768.238c.981.319,1.88.356,2.122-.388s-.491-1.177-1.472-1.5-1.539-.8-2.082.341C869.16,767.392,869.944,767.919,870.926,768.238Z" transform="translate(-869.415 -762.981)" fill="#ffd9a4"/></g><g transform="translate(37.247 32.51)"><path d="M978.8,678.841l1.392.493.466,3.517-3.194,1.265Z" transform="translate(-957.759 -660.174)" fill="#eaeaea"/><path d="M983.41,648.228l13.158-4.8.455,21.178L978.191,670Z" transform="translate(-958.103 -643.427)" fill="#f7c371"/><path d="M947.159,764.195c-4.35-9.837-4.247-26.031-4.459-42.078-.283-21.451,22.909-46.174,42.749-43.069,32.208,5.041-2.062,71.252-5.211,80.416" transform="translate(-941.318 -660.146)" fill="#ffac00"/><path d="M1011.037,745.042c2.571-4.652,5.525-18.567,8.321-30.185,1.044-4.338,8.445,4.049,9.5,14.714.658,6.615-15.5,44.427-16.709,47.935" transform="translate(-973.635 -676.654)" fill="#ffac00"/><path d="M943.136,742.085c2.078-27.656,24.039-54.4,43.376-61.666,3.248-1.221.418-3.68-8.783-3.053C969.5,677.96,936.146,693.566,943.136,742.085Z" transform="translate(-941.073 -659.429)" fill="#fff4ba"/><path d="M944.3,724.075c3.7-23.2,12.686-35.216,33.284-46.619-8.027.579-40.1,10.67-35.206,56.163C942.5,734.778,943.663,728.086,944.3,724.075Z" transform="translate(-940.929 -659.519)" fill="#eaeaea"/><path d="M949.493,827.028c-.107-.976.352-1.828,1.026-1.9s1.308.656,1.416,1.633-.351,1.828-1.025,1.9S949.6,828,949.493,827.028Z" transform="translate(-944.524 -729.349)" fill="#ffd9a4"/><path d="M947.061,805.075c-.108-.975.351-1.828,1.025-1.9s1.309.657,1.416,1.633-.349,1.828-1.025,1.9S947.169,806.052,947.061,805.075Z" transform="translate(-943.374 -718.968)" fill="#ffd9a4"/><path d="M982.634,683.527l-4.8,1.532,1.785-5.141.915-.464Z" transform="translate(-957.936 -660.464)" fill="#03b4e9"/><path d="M941.311,741.366l1.714-9.359s-3.531-29.409,18-43.6l-.241-.747C943.073,699.891,937.259,721.519,941.311,741.366Z" transform="translate(-940.08 -664.345)" fill="#03b4e9"/><path d="M980,674.752l18.826-4.557,2.29,3.808-17.92,6.792Z" transform="translate(-958.957 -656.086)" fill="#fff"/></g><g transform="translate(15.014 55.77)"><path d="M998.832,747.922c3.253,3.538,27.811-36.807,21.792-51.512h0c-3.141-9.091-19.125-16.115-26.5,4.9a2.137,2.137,0,0,0-.073.262C993.572,703.862,987.272,735.349,998.832,747.922Z" transform="translate(-942.356 -687.556)" fill="#f8c471"/><path d="M998.515,755.676c-15.481-10.949-5.391-42.166-5.391-42.166h0C988.233,736.557,999.159,756.131,998.515,755.676Z" transform="translate(-941.403 -699.629)" fill="#fff4ba"/><path d="M898.973,774.067l2.4,1.213a1.957,1.957,0,0,0,2.794-1.325l1.082-4.9a1.957,1.957,0,0,0-2.069-2.372l-2.6.21a1.957,1.957,0,0,0-1.738,1.468l-.885,3.476A1.957,1.957,0,0,0,898.973,774.067Z" transform="translate(-897.899 -724.972)" fill="#eaeaea"/><path d="M956.889,783.112c-3.942.039-21.184-.376-51.091-9.163a1.953,1.953,0,0,1-1.4-1.736,13.2,13.2,0,0,1,2.167-7.541,1.964,1.964,0,0,1,1.392-.942c5.138-.787,31.218-4.419,47.4.331a1.931,1.931,0,0,1,1.217,1.076c1.273,2.878,5.167,12.6,1.9,17.152A1.97,1.97,0,0,1,956.889,783.112Z" transform="translate(-900.962 -722.601)" fill="#f8c471"/><path d="M915.165,773.75a1.432,1.432,0,1,1,1.743-1.379A1.59,1.59,0,0,1,915.165,773.75Z" transform="translate(-905.258 -726.991)" fill="#fff4ba"/></g><g transform="translate(50.035)"><path d="M997.982,615.506c9.429-9.625,10-26.675,9.628-27.3-3.951-6.705-16.529-7.134-22.986-5.92-5.444,1.024-9.863,3.648-7.542,8.016.8,1.508,5.29-1.4,6.571-1.132,2.421.516,1.264,34.285,1.264,34.285Z" transform="translate(-970.067 -581.75)" fill="#ffac00"/><g transform="translate(0 7.528)"><path d="M971.071,644.107l-1.086-2.233,1.8-.916Z" transform="translate(-967.009 -617.277)" fill="#ffd8a3"/><path d="M990.3,626.015c-1.26,2.764-10.586,8.081-19.268,6.915.023-11.425,2.1-30.1,4.5-33.108,2.357-2.956,10.908-4.512,11.849-3.464-3.373,3.368.461,15.937,2.144,17.209C993.626,616.667,991.614,623.131,990.3,626.015Z" transform="translate(-967.504 -596.031)" fill="#ffd8a3"/><path d="M964.34,633.571a80.554,80.554,0,0,0,5.142-9.185c1.622-3.456.021,9.635.021,9.635S965.539,634.573,964.34,633.571Z" transform="translate(-964.34 -609.166)" fill="#ffd8a3"/><path d="M969.164,663.368a1.44,1.44,0,0,1-.812-1.95,1.734,1.734,0,0,1,2.257-.313,1.439,1.439,0,0,1,.812,1.95A1.735,1.735,0,0,1,969.164,663.368Z" transform="translate(-966.161 -626.679)" fill="#ffd8a3"/><path d="M970.036,654.548c-.01-.232.267-.432.619-.446s.643.162.652.393-.267.432-.618.446S970.045,654.779,970.036,654.548Z" transform="translate(-967.033 -623.492)" fill="#ffd8a3"/><path d="M1005.487,627.99c.669-2.021,2.39-3.339,3.846-2.942s2.092,2.357,1.424,4.378-3.582,2.976-5.038,2.58S1004.818,630.011,1005.487,627.99Z" transform="translate(-983.474 -609.72)" fill="#ffd8a3"/></g><path d="M971.555,645.74l-.107,4.652s1.3-.02,1.634-.573a16.279,16.279,0,0,0,1.336-4.57Z" transform="translate(-967.702 -611.778)" fill="#ffab00"/><path d="M971.7,646.075l-.092,4.131s.961,0,1.189-.245a11.575,11.575,0,0,0,1.276-4.323Z" transform="translate(-967.779 -611.963)" fill="#fff"/><path d="M976.119,618.408a1.127,1.127,0,0,1,.351-.717c.509-.447,4.322,1.1,4.2,1.915l-.076.51c-.087.586-1.2-.14-2.358-.4-1.106-.252-2.264-.017-2.2-.571Z" transform="translate(-969.87 -598.709)" fill="#2d356b"/><path d="M978.19,626.785c.037-.687.448-1.26.918-1.28s.821.521.785,1.209-.448,1.259-.917,1.279S978.154,627.472,978.19,626.785Z" transform="translate(-970.888 -602.442)" fill="#2d356b"/><path d="M976.891,645.119c-.007-.161.079-.295.193-.3s.21.122.217.282-.079.295-.192.3S976.9,645.28,976.891,645.119Z" transform="translate(-970.275 -611.576)" fill="#ffab00"/><g transform="translate(6.264 1.544)"><path d="M1000.916,599.978c-3.8-.012.847,17.529-1.162,18.615s-.22,2.627.818,2.318c2.375-.706,3.136-5.509,3.523-8.574C1004.525,608.924,1001.237,599.979,1000.916,599.978Z" transform="translate(-986.92 -591.914)" fill="#ffac00"/><path d="M976.268,590.816c-.405-2.771,2.055-5.426,5.495-5.93s13.368-.25,13.773,2.52-8.863,7.011-12.3,7.513S976.673,593.586,976.268,590.816Z" transform="translate(-976.224 -584.678)" fill="#ffac00"/></g></g></g><g transform="translate(60.719 248.014)"><g transform="translate(23.472)"><g transform="translate(9.423)"><path d="M510.885,735.595l33.27,3.269a6.3,6.3,0,0,0,6.918-6.271V671.816a6.3,6.3,0,0,0-6.866-6.276l-40.545,3.645c-.127.011-.255.016-.383.02a6.021,6.021,0,0,0-5.8,6.994l7.782,54.023A6.3,6.3,0,0,0,510.885,735.595Z" transform="translate(-497.415 -626.671)" fill="#ffb2b0"/><g transform="translate(21.198)"><g transform="translate(0 1.917)"><path d="M592.427,660.375c5.98-7.4-4.925-7.542-5.147-13.336s1.255-4.137,1.258-11.65-2.309-10.023-2.978-14.316,1.351-11.711-1.778-16.863-4.4-3.122-7.087-7.2-4.154.907-7.509,3.268-8.721-7.516-14.537-2.795-4.253,12.661-5.6,17.381-7.383,7.294-7.385,15.449,4.247,5.8,2.9,11.59-6.936,6.006-6.938,14.163c0,0,.221,8.154,9.168,6.654s6.71,3.65,16.1-.638,7.157,4.723,13.643.647S587.085,666.984,592.427,660.375Z" transform="translate(-537.631 -595.459)" fill="#2d356b"/></g><g transform="translate(35.076 52.08)"><path d="M604.532,691.194c7.92-5.939,28.783,36.634,28.855,38.441,0,0-2.116,4.368-3.908,3.235C624.85,729.945,600.994,693.847,604.532,691.194Z" transform="translate(-604.176 -690.626)" fill="#9ea9fc"/><g transform="translate(24.273 36.668)"><path d="M689.486,777.484c-1.945,6.908-37.652-10.952-38.689-12.076,0,0-2.012-4.9,1.518-5.207C656.947,759.794,690.356,774.394,689.486,777.484Z" transform="translate(-650.226 -760.192)" fill="#9ea9fc"/><path d="M721.636,785.665l-.464-2.148-7.58-3.491s.02,3.883.544,4.685S721.636,785.665,721.636,785.665Z" transform="translate(-680.192 -769.572)" fill="#9ea9fc"/><path d="M721.713,790.627l-.446,2.13-7.495,3.405s-.005-3.86.511-4.654S721.713,790.627,721.713,790.627Z" transform="translate(-680.277 -774.585)" fill="#9ea9fc"/></g></g><g transform="translate(22.163 27.687)"><path d="M588.233,644.349l8.322,4.892,1.988,17.625-6.636-2.181Z" transform="translate(-583.723 -644.349)" fill="#f6cda2"/><path d="M614.432,757.282c-16.646,10.649-23.182,7.027-33.04,6.885-.62-13.967,7.021-23.773,6.861-33.544-.291-18.111-16.307-38.922-3.819-47.482,13.263-9.089,30.5,30.568,30.5,30.568C601.641,721.713,608.059,735.8,614.432,757.282Z" transform="translate(-579.677 -662.054)" fill="#495bd9"/><path d="M590.382,680.9l2.366-.35,10.909,9.673-3.064,2.748S593.256,685.919,590.382,680.9Z" transform="translate(-584.74 -661.47)" fill="#fff"/><path d="M610.559,693l.145-.114c-2.967-5.505-9.342-13.884-15.237-13.159C600.99,684.37,610.559,693,610.559,693Z" transform="translate(-587.144 -661.059)" fill="#f6cda2"/></g><g transform="translate(13.116)"><path d="M584.245,629.57c-4.456-1.223-13.428-2.65-17.751-9.379-5.619-8.748-4.193-14.159-2.319-20.742,3.571-12.549,24.977-6.673,23.639-2.976C586.036,601.383,600.394,634,584.245,629.57Z" transform="translate(-562.514 -591.822)" fill="#2d356b"/><path d="M604.392,637.621c1.625,0,4.531-8.4,5.4-14.834.286-2.123-2-2.372-1.857-9.615.084-4.252-1.879-10.137-9-14.36-6.722-3.987-7.22,9.208-7.8,12.256-1.64,8.683-3.857,14.136-1.631,18.337C593.855,637.61,602.637,637.2,604.392,637.621Z" transform="translate(-574.835 -594.776)" fill="#ffd8a3"/><path d="M618.014,651.349a.375.375,0,0,1,.338-.406.4.4,0,0,1,.325.432.375.375,0,0,1-.34.406A.393.393,0,0,1,618.014,651.349Z" transform="translate(-588.76 -619.78)" fill="#ffab00"/><path d="M616.238,629.642c.038-1.142.707-2.035,1.491-2s1.391,1,1.352,2.14-.707,2.035-1.491,2S616.2,630.784,616.238,629.642Z" transform="translate(-587.919 -608.762)" fill="#2d356b"/><path d="M613.224,629.736c1.1-1.58,2.668-3.156,5.657-2.11A10.924,10.924,0,0,0,613.224,629.736Z" transform="translate(-586.495 -608.594)" fill="#2d356b"/><path d="M622.071,660.362c.049-.265.864.674,1.251.707,1.094.093.782,1.488-.31,1.284C622.586,662.272,622.021,660.643,622.071,660.362Z" transform="translate(-590.677 -624.212)" fill="#f36973"/><path d="M620.278,651.545c-.741-.295,4.261-1.735,3.354-.04C623.3,651.838,620.658,651.7,620.278,651.545Z" transform="translate(-589.795 -619.662)" fill="#f36973"/><path d="M616.866,617.282a6.66,6.66,0,0,0-8.027,4.188C611,618.507,612.679,617.4,616.866,617.282Z" transform="translate(-584.421 -603.772)" fill="#2d356b"/><path d="M627.616,639.884l-2.514.769-.091-6.421,3.747,4.571Z" transform="translate(-592.069 -611.877)" fill="#ffd8a3"/><path d="M626.94,648.405l1.954-3.976-1.887-.067Z" transform="translate(-592.981 -616.668)" fill="#ffd8a3"/><path d="M621.927,657.366a47.4,47.4,0,0,0,1.24-5.574h-4.54S619.528,656.6,621.927,657.366Z" transform="translate(-589.05 -620.182)" fill="#ffab00"/><path d="M620.468,654.562h2.586c.15-.7.288-1.433.415-2.192h-3.711Z" transform="translate(-589.585 -620.455)" fill="#fff"/><path d="M583.114,636.514c.1-1.981.773-3.441-.73-3.515s-2.808,1.472-2.911,3.455,1.038,3.648,2.543,3.724S583.014,638.5,583.114,636.514Z" transform="translate(-570.531 -611.293)" fill="#f7c371"/><path d="M602.128,599.007c-4.769,7.207-13.125,17.743-11.114,28.012-4.228-10.933-2.341-25.516,4.911-31.52C596.689,596.6,603.181,596.265,602.128,599.007Z" transform="translate(-574.939 -593.561)" fill="#2d356b"/></g><g transform="translate(14.782 50.58)"><g transform="translate(38.306 20.259)"><path d="M640.228,748.158c2.241-2.526,10.419-4.054,9.091-6.684-1.188-2.357-6.583-4.384-10.971,4.862Z" transform="translate(-638.349 -732.491)" fill="#ffd9a4"/><path d="M644.288,740.135c1.834,4.293,7.056,2.04,8.536.951,1.627-1.2,1.127-4.841-.227-5.71S643.589,738.493,644.288,740.135Z" transform="translate(-641.136 -730.489)" fill="#ffd9a4"/><path d="M649.431,732.293c.885-2.605.644-6.01-.408-6.076-1.185-.077-.427,2.81-1.791,4.956-1.472,2.327-2.274,3.866-1.409,4.482S648.547,734.9,649.431,732.293Z" transform="translate(-641.715 -726.215)" fill="#ffd9a4"/><path d="M657.325,732.135c1.891-1.408,2.555-2.578,2.124-3.037s-1.459.41-3.35,1.814-4.644,2.721-4.213,3.181S655.431,733.536,657.325,732.135Z" transform="translate(-644.729 -727.519)" fill="#ffd9a4"/><path d="M661.114,736.383c2.179-1.019,3.61-2.866,3.286-3.393s-2.1.885-4.277,1.9-3.536,1.8-3.21,2.322S658.937,737.4,661.114,736.383Z" transform="translate(-647.105 -729.365)" fill="#ffd9a4"/><path d="M659.821,742.429c2.134-1.1,3.076-2.2,2.737-2.72s-1.607.477-3.739,1.581-3.613,1.909-3.274,2.427S657.686,743.534,659.821,742.429Z" transform="translate(-646.458 -732.53)" fill="#ffd9a4"/></g><path d="M580.369,687.872c-8.479-2.565-15.142,50.053-14.67,51.878,0,0,4.524,1.954,5.714.075C574.49,734.964,584.154,689.017,580.369,687.872Z" transform="translate(-565.675 -687.781)" fill="#9ea9fc"/><path d="M604.162,752.169c3.473,6.031-32.91,18.8-34.393,18.755,0,0-4-3.456-2.773-4.69C570.177,763.042,602.611,749.476,604.162,752.169Z" transform="translate(-566.189 -718.064)" fill="#9ea9fc"/><path d="M633.261,750.563l-1.53-1.479-7.99,1.275s2.109,3.117,2.964,3.482S633.261,750.563,633.261,750.563Z" transform="translate(-593.135 -716.771)" fill="#eaeaea"/><path d="M636.661,751.624l.8,1.985-4.262,6.886s-2.118-3.154-2.131-4.084S636.661,751.624,636.661,751.624Z" transform="translate(-596.601 -717.972)" fill="#eaeaea"/></g><g transform="translate(73.549 62.269)"><rect width="56.464" height="39.114" rx="3.005" transform="translate(0.433)" fill="#ebebeb"/><rect width="57.329" height="2.823" transform="translate(0 40.273)" fill="#ebebeb"/><rect width="2.823" height="6.779" transform="translate(7.648 34.931)" fill="#ebebeb"/><rect width="2.823" height="6.779" transform="translate(46.769 34.931)" fill="#ebebeb"/><g transform="translate(22.035 11.801)"><path d="M718.971,738.975a6.629,6.629,0,1,1,6.629,6.63A6.637,6.637,0,0,1,718.971,738.975Zm2.526,0a4.1,4.1,0,1,0,4.1-4.1A4.107,4.107,0,0,0,721.5,738.975Z" transform="translate(-718.971 -732.346)" fill="#7b88ac"/></g></g></g></g><g transform="translate(34 69.859)"><rect width="50.702" height="27.657" rx="6.672" transform="translate(-16 -12)" fill="#fff" stroke="#231f20" stroke-miterlimit="10" stroke-width="0.25"/><text transform="translate(-3.649 5.329)" fill="#2d356b" font-size="10" font-family="TrebuchetMS-Bold, Trebuchet MS" font-weight="700"><tspan x="0" y="0">Akiko</tspan></text></g></g><g transform="translate(263.722 4.707)"><g transform="translate(-6 58.065)"><rect width="56.464" height="39.114" rx="3.005" transform="translate(0.433)" fill="#ebebeb"/><rect width="57.329" height="2.823" transform="translate(0 40.273)" fill="#ebebeb"/><rect width="2.823" height="6.779" transform="translate(7.648 34.931)" fill="#ebebeb"/><rect width="2.823" height="6.779" transform="translate(46.769 34.931)" fill="#ebebeb"/><g transform="translate(22.035 11.801)"><path d="M856.348,739.929a6.629,6.629,0,1,1,6.629,6.63A6.637,6.637,0,0,1,856.348,739.929Zm2.526,0a4.1,4.1,0,1,0,4.1-4.1A4.107,4.107,0,0,0,858.874,739.929Z" transform="translate(-856.348 -733.3)" fill="#7b88ac"/></g></g><g transform="translate(65.364 53.268)"><rect width="51.911" height="26.345" rx="6.672" fill="#fff" stroke="#231f20" stroke-miterlimit="10" stroke-width="0.25"/><text transform="translate(15.955 16.672)" fill="#2d356b" font-size="10" font-family="TrebuchetMS-Bold, Trebuchet MS" font-weight="700"><tspan x="0" y="0">Nick</tspan></text></g></g><g transform="translate(0 105.595)"><path d="M493.132,800.026l389.982-3.253-9.51,38.036H502.023Z" transform="translate(-482.494 -794.338)" fill="#2d356b"/><path d="M472.95,792.154H887.392l-6.035,8.706-404.38-2.9Z" transform="translate(-472.95 -792.154)" fill="#7b88ac"/></g></g></g></g></svg>