<svg xmlns="http://www.w3.org/2000/svg" width="543.314" height="577.315" viewBox="0 0 543.314 577.315">
  <g id="Group_13935" data-name="Group 13935" transform="translate(-23.049 -6782.654)">
    <g id="Group_13830" data-name="Group 13830" transform="translate(23.049 6782.654)">
      <g id="Group_13829" data-name="Group 13829">
        <g id="Group_13828" data-name="Group 13828">
          <g id="Group_13827" data-name="Group 13827">
            <g id="Group_13826" data-name="Group 13826">
              <g id="Group_13825" data-name="Group 13825">
                <g id="Group_13824" data-name="Group 13824">
                  <g id="Group_13801" data-name="Group 13801" transform="translate(0 75.832)">
                    <path id="Path_15031" data-name="Path 15031" d="M566.363,7547.729c0,1.035-1.847,1.874-4.148,1.874l-535.018-2.8c-2.3,0-4.148-.838-4.148-1.874V7051.158c0-1.032,1.847-1.871,4.148-1.871l535.018,2.8c2.3,0,4.148.839,4.148,1.87Z" transform="translate(-23.049 -7048.12)" fill="#7b87aa"/>
                    <path id="Path_15032" data-name="Path 15032" d="M568.366,7525.438c-.174.081-23.244,20.067-23.244,20.117l-514.856-2.8c-2.282,0-4.137-.842-4.137-1.878V7047.114c0-1.036,1.856-1.868,4.137-1.868l533.983,2.8c2.282,0,4.116.833,4.116,1.867Z" transform="translate(-25.24 -7045.246)" fill="#fff"/>
                    <g id="Group_13800" data-name="Group 13800" transform="translate(519.883 480.326)">
                      <g id="Group_13799" data-name="Group 13799">
                        <g id="Group_13798" data-name="Group 13798">
                          <path id="Path_15033" data-name="Path 15033" d="M1829.973,8708.529h16.65l-23.315,20.09v-17.076C1823.307,8709.879,1826.292,8708.529,1829.973,8708.529Z" transform="translate(-1823.307 -8708.529)" fill="#40558c"/>
                        </g>
                      </g>
                    </g>
                  </g>
                  <path id="Path_15034" data-name="Path 15034" d="M566.363,6888.535V6813.26c0-3.768-1.87-6.831-4.16-6.831l-535.009-4.745c-2.3,0-4.146,3.063-4.146,6.831v75.274Z" transform="translate(-23.049 -6796.188)" fill="#2d356b"/>
                  <g id="Group_13812" data-name="Group 13812" transform="translate(33.214)">
                    <g id="Group_13811" data-name="Group 13811">
                      <g id="Group_13802" data-name="Group 13802">
                        <path id="Path_15035" data-name="Path 15035" d="M146.923,6796.312c0,1.548-1.935,2.82-4.276,2.82h-.315c-2.341,0-4.268-1.272-4.268-2.82v-10.84c0-1.545,1.926-2.817,4.268-2.817h.315c2.341,0,4.276,1.272,4.276,2.817Z" transform="translate(-138.064 -6782.654)" fill="#fcf2b8"/>
                      </g>
                      <g id="Group_13803" data-name="Group 13803" transform="translate(27.313)">
                        <path id="Path_15036" data-name="Path 15036" d="M241.494,6796.312c0,1.548-1.918,2.82-4.276,2.82h-.288c-2.367,0-4.285-1.272-4.285-2.82v-10.84c0-1.545,1.918-2.817,4.285-2.817h.288c2.358,0,4.276,1.272,4.276,2.817Z" transform="translate(-232.645 -6782.654)" fill="#fcf2b8"/>
                      </g>
                      <g id="Group_13804" data-name="Group 13804" transform="translate(54.609)">
                        <path id="Path_15037" data-name="Path 15037" d="M336.031,6796.312c0,1.548-1.935,2.82-4.268,2.82h-.322c-2.343,0-4.277-1.272-4.277-2.82v-10.84c0-1.545,1.934-2.817,4.277-2.817h.322c2.333,0,4.268,1.272,4.268,2.817Z" transform="translate(-327.165 -6782.654)" fill="#fcf2b8"/>
                      </g>
                      <g id="Group_13805" data-name="Group 13805" transform="translate(81.921)">
                        <path id="Path_15038" data-name="Path 15038" d="M430.592,6796.312c0,1.548-1.918,2.82-4.268,2.82h-.314c-2.342,0-4.269-1.272-4.269-2.82v-10.84c0-1.545,1.926-2.817,4.269-2.817h.314c2.35,0,4.268,1.272,4.268,2.817Z" transform="translate(-421.742 -6782.654)" fill="#fcf2b8"/>
                      </g>
                      <g id="Group_13806" data-name="Group 13806" transform="translate(109.239)">
                        <path id="Path_15039" data-name="Path 15039" d="M525.179,6796.312c0,1.548-1.935,2.82-4.26,2.82H520.6c-2.342,0-4.259-1.272-4.259-2.82v-10.84c0-1.545,1.917-2.817,4.259-2.817h.322c2.325,0,4.26,1.272,4.26,2.817Z" transform="translate(-516.338 -6782.654)" fill="#fcf2b8"/>
                      </g>
                      <g id="Group_13807" data-name="Group 13807" transform="translate(136.543)">
                        <path id="Path_15040" data-name="Path 15040" d="M619.747,6796.312c0,1.548-1.951,2.82-4.277,2.82h-.322c-2.359,0-4.259-1.272-4.259-2.82v-10.84c0-1.545,1.9-2.817,4.259-2.817h.322c2.325,0,4.277,1.272,4.277,2.817Z" transform="translate(-610.889 -6782.654)" fill="#fcf2b8"/>
                      </g>
                      <g id="Group_13808" data-name="Group 13808" transform="translate(163.847)">
                        <path id="Path_15041" data-name="Path 15041" d="M714.277,6796.312c0,1.548-1.918,2.82-4.276,2.82h-.288c-2.359,0-4.277-1.272-4.277-2.82v-10.84c0-1.545,1.918-2.817,4.277-2.817H710c2.359,0,4.276,1.272,4.276,2.817Z" transform="translate(-705.436 -6782.654)" fill="#fcf2b8"/>
                      </g>
                      <g id="Group_13809" data-name="Group 13809" transform="translate(191.152)">
                        <path id="Path_15042" data-name="Path 15042" d="M808.828,6796.312c0,1.548-1.918,2.82-4.277,2.82h-.305c-2.325,0-4.26-1.272-4.26-2.82v-10.84c0-1.545,1.935-2.817,4.26-2.817h.305c2.359,0,4.277,1.272,4.277,2.817Z" transform="translate(-799.987 -6782.654)" fill="#fcf2b8"/>
                      </g>
                      <g id="Group_13810" data-name="Group 13810" transform="translate(218.439)">
                        <path id="Path_15043" data-name="Path 15043" d="M903.336,6796.312c0,1.548-1.917,2.82-4.26,2.82h-.322c-2.324,0-4.277-1.272-4.277-2.82v-10.84c0-1.545,1.952-2.817,4.277-2.817h.322c2.342,0,4.26,1.272,4.26,2.817Z" transform="translate(-894.477 -6782.654)" fill="#fcf2b8"/>
                      </g>
                    </g>
                  </g>
                  <g id="Group_13823" data-name="Group 13823" transform="translate(278.863)">
                    <g id="Group_13822" data-name="Group 13822">
                      <g id="Group_13813" data-name="Group 13813">
                        <path id="Path_15044" data-name="Path 15044" d="M997.558,6796.312c0,1.548-1.935,2.82-4.276,2.82h-.315c-2.342,0-4.268-1.272-4.268-2.82v-10.84c0-1.545,1.926-2.817,4.268-2.817h.315c2.341,0,4.276,1.272,4.276,2.817Z" transform="translate(-988.699 -6782.654)" fill="#fcf2b8"/>
                      </g>
                      <g id="Group_13814" data-name="Group 13814" transform="translate(27.313)">
                        <path id="Path_15045" data-name="Path 15045" d="M1092.129,6796.312c0,1.548-1.917,2.82-4.276,2.82h-.288c-2.367,0-4.285-1.272-4.285-2.82v-10.84c0-1.545,1.918-2.817,4.285-2.817h.288c2.358,0,4.276,1.272,4.276,2.817Z" transform="translate(-1083.28 -6782.654)" fill="#fcf2b8"/>
                      </g>
                      <g id="Group_13815" data-name="Group 13815" transform="translate(54.609)">
                        <path id="Path_15046" data-name="Path 15046" d="M1186.667,6796.312c0,1.548-1.935,2.82-4.268,2.82h-.322c-2.343,0-4.277-1.272-4.277-2.82v-10.84c0-1.545,1.934-2.817,4.277-2.817h.322c2.333,0,4.268,1.272,4.268,2.817Z" transform="translate(-1177.8 -6782.654)" fill="#fcf2b8"/>
                      </g>
                      <g id="Group_13816" data-name="Group 13816" transform="translate(81.921)">
                        <path id="Path_15047" data-name="Path 15047" d="M1281.227,6796.312c0,1.548-1.918,2.82-4.268,2.82h-.314c-2.342,0-4.269-1.272-4.269-2.82v-10.84c0-1.545,1.927-2.817,4.269-2.817h.314c2.35,0,4.268,1.272,4.268,2.817Z" transform="translate(-1272.377 -6782.654)" fill="#fcf2b8"/>
                      </g>
                      <g id="Group_13817" data-name="Group 13817" transform="translate(109.239)">
                        <path id="Path_15048" data-name="Path 15048" d="M1375.814,6796.312c0,1.548-1.935,2.82-4.26,2.82h-.322c-2.342,0-4.259-1.272-4.259-2.82v-10.84c0-1.545,1.917-2.817,4.259-2.817h.322c2.325,0,4.26,1.272,4.26,2.817Z" transform="translate(-1366.973 -6782.654)" fill="#fcf2b8"/>
                      </g>
                      <g id="Group_13818" data-name="Group 13818" transform="translate(136.543)">
                        <path id="Path_15049" data-name="Path 15049" d="M1470.382,6796.312c0,1.548-1.951,2.82-4.277,2.82h-.322c-2.359,0-4.259-1.272-4.259-2.82v-10.84c0-1.545,1.9-2.817,4.259-2.817h.322c2.325,0,4.277,1.272,4.277,2.817Z" transform="translate(-1461.524 -6782.654)" fill="#fcf2b8"/>
                      </g>
                      <g id="Group_13819" data-name="Group 13819" transform="translate(163.847)">
                        <path id="Path_15050" data-name="Path 15050" d="M1564.912,6796.312c0,1.548-1.917,2.82-4.276,2.82h-.288c-2.359,0-4.277-1.272-4.277-2.82v-10.84c0-1.545,1.918-2.817,4.277-2.817h.288c2.359,0,4.276,1.272,4.276,2.817Z" transform="translate(-1556.071 -6782.654)" fill="#fcf2b8"/>
                      </g>
                      <g id="Group_13820" data-name="Group 13820" transform="translate(191.152)">
                        <path id="Path_15051" data-name="Path 15051" d="M1659.463,6796.312c0,1.548-1.917,2.82-4.277,2.82h-.3c-2.325,0-4.26-1.272-4.26-2.82v-10.84c0-1.545,1.935-2.817,4.26-2.817h.3c2.359,0,4.277,1.272,4.277,2.817Z" transform="translate(-1650.622 -6782.654)" fill="#fcf2b8"/>
                      </g>
                      <g id="Group_13821" data-name="Group 13821" transform="translate(218.439)">
                        <path id="Path_15052" data-name="Path 15052" d="M1753.971,6796.312c0,1.548-1.917,2.82-4.26,2.82h-.323c-2.324,0-4.277-1.272-4.277-2.82v-10.84c0-1.545,1.952-2.817,4.277-2.817h.323c2.342,0,4.26,1.272,4.26,2.817Z" transform="translate(-1745.112 -6782.654)" fill="#fcf2b8"/>
                      </g>
                    </g>
                  </g>
                </g>
              </g>
            </g>
            <text id="Tue" transform="translate(77.134 79.474)" fill="#fff" font-size="24" font-family="TrebuchetMS-Bold, Trebuchet MS" font-weight="700"><tspan x="0" y="0">Tue</tspan></text>
            <text id="Fri" transform="translate(420.264 77.218)" fill="#fff" font-size="24" font-family="TrebuchetMS-Bold, Trebuchet MS" font-weight="700"><tspan x="0" y="0">Fri</tspan></text>
            <text id="Wed" transform="translate(127.218 79.474)" fill="#fff" font-size="24" font-family="TrebuchetMS-Bold, Trebuchet MS" font-weight="700"><tspan x="0" y="0">Wed</tspan></text>
            <text id="Mon" transform="translate(21.051 79.474)" fill="#fff" font-size="24" font-family="TrebuchetMS-Bold, Trebuchet MS" font-weight="700"><tspan x="0" y="0">Mon</tspan></text>
            <text id="Thu" transform="translate(249.652 77.218)" fill="#fff" font-size="24" font-family="TrebuchetMS-Bold, Trebuchet MS" font-weight="700"><tspan x="0" y="0">Thu</tspan></text>
            <text id="Last_week" data-name="Last week" transform="translate(268.147 47.451)" fill="#fff" font-size="30" font-family="TrebuchetMS-Bold, Trebuchet MS" font-weight="700"><tspan x="-70.422" y="0">Last week</tspan></text>
          </g>
        </g>
      </g>
    </g>
    <rect id="Rectangle_820" data-name="Rectangle 820" width="160.468" height="255.168" transform="translate(212.049 6891.505)" fill="none" stroke="#ebebeb" stroke-miterlimit="10" stroke-width="8"/>
    <rect id="Rectangle_821" data-name="Rectangle 821" width="160.468" height="255.168" transform="translate(44.4 6891.505)" fill="none" stroke="#ebebeb" stroke-miterlimit="10" stroke-width="8"/>
    <g id="Group_13831" data-name="Group 13831" transform="translate(378.936 6891.164)">
      <rect id="Rectangle_822" data-name="Rectangle 822" width="165.586" height="255.168" transform="translate(0 0)" fill="none" stroke="#ebebeb" stroke-miterlimit="10" stroke-width="8"/>
    </g>
    <g id="Group_13871" data-name="Group 13871" transform="translate(43.849 6886.79)">
      <g id="Group_13836" data-name="Group 13836" transform="translate(69.835 42.18)">
        <g id="Group_13834" data-name="Group 13834">
          <g id="Group_13832" data-name="Group 13832" transform="translate(33.055)">
            <rect id="Rectangle_823" data-name="Rectangle 823" width="34.188" height="121.759" transform="translate(14.32)" fill="#cfd0d8"/>
            <path id="Path_15053" data-name="Path 15053" d="M465.663,7289.318v121.759h-14.3V7289.618l.343-.3Z" transform="translate(-451.367 -7289.318)" fill="#9999a5"/>
            <rect id="Rectangle_824" data-name="Rectangle 824" width="9.504" height="1.965" transform="translate(34.935 13.603)" fill="#9999a5"/>
            <rect id="Rectangle_825" data-name="Rectangle 825" width="9.18" height="1.965" transform="translate(17.892 13.603)" fill="#fff"/>
            <rect id="Rectangle_826" data-name="Rectangle 826" width="9.504" height="2.946" transform="translate(34.935 18.522)" fill="#fff"/>
            <rect id="Rectangle_827" data-name="Rectangle 827" width="9.18" height="2.95" transform="translate(17.892 29.334)" fill="#9999a5"/>
            <rect id="Rectangle_828" data-name="Rectangle 828" width="9.504" height="2.95" transform="translate(34.935 29.334)" fill="#9999a5"/>
            <rect id="Rectangle_829" data-name="Rectangle 829" width="9.18" height="1.968" transform="translate(17.892 35.235)" fill="#9999a5"/>
            <rect id="Rectangle_830" data-name="Rectangle 830" width="9.18" height="2.946" transform="translate(17.892 40.153)" fill="#9999a5"/>
            <rect id="Rectangle_831" data-name="Rectangle 831" width="9.504" height="2.95" transform="translate(34.935 50.968)" fill="#9999a5"/>
            <rect id="Rectangle_832" data-name="Rectangle 832" width="9.18" height="2.95" transform="translate(17.892 50.968)" fill="#9999a5"/>
            <rect id="Rectangle_833" data-name="Rectangle 833" width="9.504" height="2.95" transform="translate(34.935 61.779)" fill="#fff"/>
            <rect id="Rectangle_834" data-name="Rectangle 834" width="9.18" height="2.95" transform="translate(17.892 61.779)" fill="#9999a5"/>
            <rect id="Rectangle_835" data-name="Rectangle 835" width="9.18" height="1.961" transform="translate(17.892 67.688)" fill="#9999a5"/>
            <rect id="Rectangle_836" data-name="Rectangle 836" width="9.504" height="2.95" transform="translate(34.935 72.599)" fill="#9999a5"/>
            <rect id="Rectangle_837" data-name="Rectangle 837" width="9.504" height="2.945" transform="translate(34.935 83.413)" fill="#9999a5"/>
            <rect id="Rectangle_838" data-name="Rectangle 838" width="9.18" height="2.945" transform="translate(17.892 83.413)" fill="#fff"/>
            <rect id="Rectangle_839" data-name="Rectangle 839" width="9.504" height="1.965" transform="translate(34.935 89.314)" fill="#9999a5"/>
            <rect id="Rectangle_840" data-name="Rectangle 840" width="9.18" height="2.948" transform="translate(17.892 94.228)" fill="#9999a5"/>
            <rect id="Rectangle_841" data-name="Rectangle 841" width="9.504" height="2.95" transform="translate(34.935 105.044)" fill="#9999a5"/>
            <rect id="Rectangle_842" data-name="Rectangle 842" width="9.18" height="2.95" transform="translate(17.892 105.044)" fill="#9999a5"/>
            <rect id="Rectangle_843" data-name="Rectangle 843" width="9.504" height="1.969" transform="translate(34.935 110.94)" fill="#9999a5"/>
          </g>
          <g id="Group_13833" data-name="Group 13833" transform="translate(0 51.639)">
            <rect id="Rectangle_844" data-name="Rectangle 844" width="32.587" height="70.12" transform="translate(13.47)" fill="#ebebeb"/>
            <rect id="Rectangle_845" data-name="Rectangle 845" width="13.47" height="70.12" fill="#9999a5"/>
            <rect id="Rectangle_846" data-name="Rectangle 846" width="3.939" height="6.915" transform="translate(38.158 8.891)" fill="#9999a5"/>
            <rect id="Rectangle_847" data-name="Rectangle 847" width="3.947" height="6.915" transform="translate(24.33 8.891)" fill="#9999a5"/>
            <rect id="Rectangle_848" data-name="Rectangle 848" width="3.954" height="6.915" transform="translate(17.417 8.891)" fill="#9999a5"/>
            <rect id="Rectangle_849" data-name="Rectangle 849" width="3.939" height="6.91" transform="translate(38.158 19.759)" fill="#9999a5"/>
            <rect id="Rectangle_850" data-name="Rectangle 850" width="3.952" height="6.91" transform="translate(31.245 19.759)" fill="#9999a5"/>
            <rect id="Rectangle_851" data-name="Rectangle 851" width="3.947" height="6.91" transform="translate(24.33 19.759)" fill="#9999a5"/>
            <rect id="Rectangle_852" data-name="Rectangle 852" width="3.939" height="7.903" transform="translate(38.158 30.615)" fill="#9999a5"/>
            <rect id="Rectangle_853" data-name="Rectangle 853" width="3.947" height="7.903" transform="translate(24.33 30.615)" fill="#9999a5"/>
            <rect id="Rectangle_854" data-name="Rectangle 854" width="3.954" height="7.903" transform="translate(17.417 30.615)" fill="#9999a5"/>
            <rect id="Rectangle_855" data-name="Rectangle 855" width="3.939" height="6.913" transform="translate(38.158 42.471)" fill="#9999a5"/>
            <rect id="Rectangle_856" data-name="Rectangle 856" width="3.952" height="6.913" transform="translate(31.245 42.471)" fill="#9999a5"/>
            <rect id="Rectangle_857" data-name="Rectangle 857" width="3.954" height="6.913" transform="translate(17.417 42.471)" fill="#9999a5"/>
          </g>
        </g>
        <g id="Group_13835" data-name="Group 13835" transform="translate(7.919 31.358)">
          <rect id="Rectangle_858" data-name="Rectangle 858" width="65.725" height="38.271" rx="6.672" fill="#fff" stroke="#231f20" stroke-miterlimit="10" stroke-width="0.25"/>
          <text id="Malaysia_Office" data-name="Malaysia 
Office" transform="translate(9.863 16.634)" fill="#2d356b" font-size="12" font-family="TrebuchetMS-Bold, Trebuchet MS" font-weight="700"><tspan x="0" y="0">Malaysia </tspan><tspan x="0" y="14">Office</tspan></text>
        </g>
      </g>
      <g id="Group_13850" data-name="Group 13850" transform="translate(20.759 23.62)">
        <g id="Group_13848" data-name="Group 13848">
          <g id="Group_13837" data-name="Group 13837" transform="translate(2.944 74.478)">
            <path id="Path_15054" data-name="Path 15054" d="M248.283,7495.008l7.188,1.353c6.321,22.576,4.768,49.492,18.892,95.588,0,0-1.349.588-1.544,0-11.751-35.643-18.178-63.589-20.458-67.43C247.294,7515.987,240.958,7508.733,248.283,7495.008Z" transform="translate(-225.377 -7491.526)" fill="#ffd8a3"/>
            <path id="Path_15055" data-name="Path 15055" d="M198.817,7490.093c-8.845,16.5-2.222,15.217-1.935,23.751.829,24.6-14.858,37.119-19.728,74.754,0,0,1.928-.1,1.983-.644,3.025-30.024,29.631-58.751,30.725-86.627.07-1.8.15-7.166-1.947-9.088C204.711,7489.3,198.817,7490.093,198.817,7490.093Z" transform="translate(-177.155 -7487.961)" fill="#f7c371"/>
            <path id="Path_15056" data-name="Path 15056" d="M183.077,7827.383H177.3s-.279-1.641,1.01-1.9C179.118,7825.313,180.555,7825.7,183.077,7827.383Z" transform="translate(-177.237 -7726.538)" fill="#7b88ac"/>
            <path id="Path_15057" data-name="Path 15057" d="M346.486,7827.875H341.4s-.246-1.641.888-1.9C343.006,7825.805,344.269,7826.187,346.486,7827.875Z" transform="translate(-293.956 -7726.887)" fill="#7b88ac"/>
            <path id="Path_15058" data-name="Path 15058" d="M214.347,7541.182s24.266,3.9,29.827,2.342c0,0-5.308-55.143-9.1-58.523s-10.616-1.561-10.616-1.561a21.453,21.453,0,0,0-3.539,22.889C225.974,7518.293,214.347,7541.182,214.347,7541.182Z" transform="translate(-203.607 -7482.95)" fill="#2d356b"/>
          </g>
          <g id="Group_13847" data-name="Group 13847">
            <g id="Group_13843" data-name="Group 13843">
              <g id="Group_13842" data-name="Group 13842">
                <g id="Group_13838" data-name="Group 13838" transform="translate(0 1.471)">
                  <path id="Path_15059" data-name="Path 15059" d="M201.671,7273.188c4.262-4.362-2.689-5.109-2.481-8.819s1.05-2.565,1.5-7.358-.869-6.535-1.037-9.315,1.568-7.392-.119-10.868-2.622-2.258-4.089-5.021-2.705.329-4.989,1.633-5.112-5.321-9.108-2.659-3.477,7.823-4.619,10.754-5.15,4.211-5.643,9.414,2.361,3.955,1.155,7.57-4.787,3.415-5.281,8.62c0,0-.35,5.216,5.449,4.8s4.062,2.734,10.314.563,4.282,3.445,8.667,1.235S197.865,7277.083,201.671,7273.188Z" transform="translate(-166.961 -7230.142)" fill="#2d356b"/>
                </g>
                <g id="Group_13839" data-name="Group 13839" transform="translate(17.736 18.027)">
                  <path id="Path_15060" data-name="Path 15060" d="M241.554,7287.472l5.356,3.365.961,11.582-4.3-1.558Z" transform="translate(-237.749 -7287.472)" fill="#f7c371"/>
                  <path id="Path_15061" data-name="Path 15061" d="M248.673,7387.4c-3.442-2.254-11.433-7.238-20.294-1.066,2.65-7.784,5.057-15.436,5.143-21.837.159-11.868-9.928-25.808-1.582-31.174,8.861-5.7,19.384,20.611,19.384,20.611C242.462,7358.923,244.914,7373.213,248.673,7387.4Z" transform="translate(-228.379 -7319.511)" fill="#9999a5"/>
                  <path id="Path_15062" data-name="Path 15062" d="M242.823,7331.17l1.557-.183,6.958,6.546-2.06,1.74S244.608,7334.511,242.823,7331.17Z" transform="translate(-238.652 -7318.421)" fill="#fff"/>
                  <path id="Path_15063" data-name="Path 15063" d="M258.582,7339.013l.1-.07c-1.836-3.664-5.85-9.275-9.725-8.914C252.482,7333.175,258.582,7339.013,258.582,7339.013Z" transform="translate(-243.013 -7317.728)" fill="#f7c371"/>
                </g>
                <g id="Group_13841" data-name="Group 13841" transform="translate(12.32)">
                  <g id="Group_13840" data-name="Group 13840">
                    <path id="Path_15064" data-name="Path 15064" d="M223.552,7249.243c-2.856-.785-8.607-1.7-11.378-6.012-3.6-5.606-2.687-9.075-1.487-13.295,2.289-8.044,16.009-4.277,15.151-1.907C224.7,7231.176,233.9,7252.083,223.552,7249.243Z" transform="translate(-209.624 -7225.047)" fill="#2d356b"/>
                    <path id="Path_15065" data-name="Path 15065" d="M250.246,7257.707c1.041,0,2.9-5.382,3.46-9.508.183-1.361-1.282-1.521-1.19-6.163.054-2.726-1.2-6.5-5.768-9.2-4.308-2.556-4.628,5.9-5,7.855-1.051,5.565-2.473,9.061-1.046,11.753C243.492,7257.7,249.121,7257.438,250.246,7257.707Z" transform="translate(-231.301 -7230.244)" fill="#ffd8a3"/>
                    <path id="Path_15066" data-name="Path 15066" d="M274.554,7294.475a.24.24,0,0,1,.217-.261.253.253,0,0,1,.208.276.241.241,0,0,1-.218.261A.252.252,0,0,1,274.554,7294.475Z" transform="translate(-255.803 -7274.24)" fill="#ffab00"/>
                    <path id="Path_15067" data-name="Path 15067" d="M272.475,7268.237c.025-.732.453-1.3.955-1.28s.892.641.867,1.372-.453,1.3-.956,1.279S272.45,7268.968,272.475,7268.237Z" transform="translate(-254.324 -7254.853)" fill="#2d356b"/>
                    <path id="Path_15068" data-name="Path 15068" d="M268.95,7268.108a2.849,2.849,0,0,1,3.626-1.353A7,7,0,0,0,268.95,7268.108Z" transform="translate(-251.818 -7254.556)" fill="#2d356b"/>
                    <path id="Path_15069" data-name="Path 15069" d="M279.3,7305.209c.031-.171.554.432.8.453.7.059.5.953-.2.822C279.629,7306.433,279.267,7305.388,279.3,7305.209Z" transform="translate(-259.177 -7282.038)" fill="#f36973"/>
                    <path id="Path_15070" data-name="Path 15070" d="M277.162,7294.468c-.475-.187,2.73-1.111,2.15-.024A5.015,5.015,0,0,1,277.162,7294.468Z" transform="translate(-257.624 -7274.033)" fill="#f36973"/>
                    <path id="Path_15071" data-name="Path 15071" d="M268.965,7254.732a4.269,4.269,0,0,0-5.145,2.685A5.475,5.475,0,0,1,268.965,7254.732Z" transform="translate(-248.169 -7246.072)" fill="#2d356b"/>
                    <path id="Path_15072" data-name="Path 15072" d="M284.409,7278.286l-1.611.492-.058-4.114,2.4,2.929Z" transform="translate(-261.625 -7260.335)" fill="#ffd8a3"/>
                    <path id="Path_15073" data-name="Path 15073" d="M285,7289.106l1.253-2.548-1.21-.043Z" transform="translate(-263.23 -7268.765)" fill="#ffd8a3"/>
                    <path id="Path_15074" data-name="Path 15074" d="M277.386,7298.78a30.467,30.467,0,0,0,.8-3.573h-2.91S275.849,7298.288,277.386,7298.78Z" transform="translate(-256.313 -7274.946)" fill="#ffab00"/>
                    <path id="Path_15075" data-name="Path 15075" d="M277.048,7297.288h1.658c.1-.448.185-.918.266-1.405h-2.379Z" transform="translate(-257.253 -7275.427)" fill="#fff"/>
                    <path id="Path_15076" data-name="Path 15076" d="M231.8,7275.472c.066-1.27.5-2.205-.467-2.253s-1.8.943-1.866,2.214a2.082,2.082,0,0,0,1.63,2.387C232.057,7277.869,231.731,7276.744,231.8,7275.472Z" transform="translate(-223.731 -7259.307)" fill="#f7c371"/>
                  </g>
                  <path id="Path_15077" data-name="Path 15077" d="M248.912,7231.6c-3.057,4.619-8.413,11.372-7.124,17.953-2.71-7.008-1.5-16.354,3.148-20.2C245.426,7230.052,249.588,7229.84,248.912,7231.6Z" transform="translate(-231.486 -7228.107)" fill="#2d356b"/>
                </g>
              </g>
            </g>
            <g id="Group_13846" data-name="Group 13846" transform="translate(12.502 34.737)">
              <g id="Group_13844" data-name="Group 13844" transform="translate(24.05 12.719)">
                <path id="Path_15078" data-name="Path 15078" d="M294.712,7410.029c1.407-1.587,6.541-2.546,5.708-4.2-.745-1.479-4.132-2.753-6.887,3.053Z" transform="translate(-293.533 -7400.192)" fill="#ffd9a4"/>
                <path id="Path_15079" data-name="Path 15079" d="M300.315,7402.8c1.151,2.7,4.43,1.28,5.359.6,1.021-.753.708-3.04-.142-3.585S299.876,7401.768,300.315,7402.8Z" transform="translate(-298.336 -7396.744)" fill="#ffd9a4"/>
                <path id="Path_15080" data-name="Path 15080" d="M304.177,7393.192c.556-1.636.4-3.773-.256-3.815-.744-.048-.268,1.766-1.124,3.112-.924,1.461-1.428,2.428-.885,2.814S303.622,7394.83,304.177,7393.192Z" transform="translate(-299.333 -7389.376)" fill="#ffd9a4"/>
                <path id="Path_15081" data-name="Path 15081" d="M312.435,7394.522c1.187-.884,1.6-1.618,1.334-1.906s-.916.257-2.1,1.139-2.915,1.708-2.645,2S311.246,7395.4,312.435,7394.522Z" transform="translate(-304.528 -7391.624)" fill="#ffd9a4"/>
                <path id="Path_15082" data-name="Path 15082" d="M317.418,7399.211c1.368-.64,2.266-1.8,2.063-2.13s-1.318.555-2.686,1.2-2.22,1.128-2.015,1.457S316.05,7399.851,317.418,7399.211Z" transform="translate(-308.622 -7394.806)" fill="#ffd9a4"/>
                <path id="Path_15083" data-name="Path 15083" d="M315.9,7406.474c1.34-.693,1.931-1.385,1.719-1.708s-1.009.3-2.347.993-2.268,1.2-2.055,1.523S314.557,7407.168,315.9,7406.474Z" transform="translate(-307.508 -7400.259)" fill="#ffd9a4"/>
              </g>
              <g id="Group_13845" data-name="Group 13845">
                <path id="Path_15084" data-name="Path 15084" d="M219.479,7345.391c-5.323-1.61-9.506,31.424-9.21,32.569,0,0,2.84,1.228,3.588.048C215.788,7374.955,221.855,7346.109,219.479,7345.391Z" transform="translate(-210.254 -7345.333)" fill="#cfd0d8"/>
                <path id="Path_15085" data-name="Path 15085" d="M234.979,7418.936c2.18,3.787-20.662,11.8-21.593,11.775,0,0-2.513-2.17-1.741-2.945C213.643,7425.763,234,7417.245,234.979,7418.936Z" transform="translate(-211.139 -7397.523)" fill="#cfd0d8"/>
                <path id="Path_15086" data-name="Path 15086" d="M282.77,7416.512l-.961-.929-5.016.8a10.416,10.416,0,0,0,1.861,2.186C279.191,7418.8,282.77,7416.512,282.77,7416.512Z" transform="translate(-257.578 -7395.296)" fill="#eaeaea"/>
                <path id="Path_15087" data-name="Path 15087" d="M288.7,7418.494l.5,1.246-2.676,4.322a10.434,10.434,0,0,1-1.338-2.563C285.184,7420.914,288.7,7418.494,288.7,7418.494Z" transform="translate(-263.551 -7397.366)" fill="#eaeaea"/>
              </g>
            </g>
          </g>
        </g>
        <g id="Group_13849" data-name="Group 13849" transform="translate(5.777 61.835)">
          <rect id="Rectangle_859" data-name="Rectangle 859" width="24.209" height="20.083" rx="5.632" transform="translate(0 4.01) rotate(-0.228)" fill="#ebebeb"/>
          <rect id="Rectangle_860" data-name="Rectangle 860" width="24.209" height="10.042" rx="5.021" transform="translate(0.02 4.011) rotate(-0.228)" fill="#f8c471"/>
          <rect id="Rectangle_861" data-name="Rectangle 861" width="24.209" height="9.682" rx="4.841" transform="translate(0 4.011) rotate(-0.228)" fill="#ffe200"/>
          <path id="Rectangle_862" data-name="Rectangle 862" d="M1.184,0H2.5A1.183,1.183,0,0,1,3.685,1.183v0A1.183,1.183,0,0,1,2.5,2.367H1.184A1.184,1.184,0,0,1,0,1.184v0A1.184,1.184,0,0,1,1.184,0Z" transform="matrix(1, -0.004, 0.004, 1, 10.296, 12.656)" fill="#ebebeb"/>
          <path id="Path_15088" data-name="Path 15088" d="M224.274,7488.231a.309.309,0,1,0,.308-.311A.307.307,0,0,0,224.274,7488.231Z" transform="translate(-213.5 -7473.842)" fill="#d9d9d9"/>
          <path id="Path_15089" data-name="Path 15089" d="M224.5,7488a.309.309,0,1,0,.308-.312A.309.309,0,0,0,224.5,7488Z" transform="translate(-213.661 -7473.68)" fill="#fff"/>
          <path id="Path_15090" data-name="Path 15090" d="M231.207,7488.2a.309.309,0,1,0,.308-.311A.311.311,0,0,0,231.207,7488.2Z" transform="translate(-218.431 -7473.822)" fill="#d9d9d9"/>
          <path id="Path_15091" data-name="Path 15091" d="M231.433,7487.976a.309.309,0,1,0,.308-.311A.309.309,0,0,0,231.433,7487.976Z" transform="translate(-218.592 -7473.661)" fill="#fff"/>
          <path id="Path_15092" data-name="Path 15092" d="M214.6,7439.729s-4.151-.075-5.232,3.428-.673-.067-.673-.067a5.105,5.105,0,0,1,6.446-3.729" transform="translate(-202.368 -7439.169)" fill="#ffe200"/>
        </g>
      </g>
      <g id="Group_13864" data-name="Group 13864" transform="translate(182.62 23.62)">
        <g id="Group_13862" data-name="Group 13862">
          <g id="Group_13851" data-name="Group 13851" transform="translate(2.944 74.478)">
            <path id="Path_15093" data-name="Path 15093" d="M808.778,7495.008l7.188,1.353c6.321,22.576,4.768,49.492,18.892,95.588,0,0-1.349.588-1.544,0-11.751-35.643-18.178-63.589-20.458-67.43C807.789,7515.987,801.453,7508.733,808.778,7495.008Z" transform="translate(-785.872 -7491.526)" fill="#ffd8a3"/>
            <path id="Path_15094" data-name="Path 15094" d="M759.312,7490.093c-8.845,16.5-2.222,15.217-1.935,23.751.829,24.6-14.858,37.119-19.728,74.754,0,0,1.928-.1,1.983-.644,3.025-30.024,29.63-58.751,30.725-86.627.07-1.8.15-7.166-1.947-9.088C765.206,7489.3,759.312,7490.093,759.312,7490.093Z" transform="translate(-737.65 -7487.961)" fill="#f7c371"/>
            <path id="Path_15095" data-name="Path 15095" d="M743.572,7827.383h-5.781s-.279-1.641,1.01-1.9C739.613,7825.313,741.049,7825.7,743.572,7827.383Z" transform="translate(-737.732 -7726.538)" fill="#7b88ac"/>
            <path id="Path_15096" data-name="Path 15096" d="M906.98,7827.875H901.9s-.245-1.641.888-1.9C903.5,7825.805,904.763,7826.187,906.98,7827.875Z" transform="translate(-854.451 -7726.887)" fill="#7b88ac"/>
            <path id="Path_15097" data-name="Path 15097" d="M774.842,7541.182s24.266,3.9,29.827,2.342c0,0-5.308-55.143-9.1-58.523s-10.616-1.561-10.616-1.561a21.453,21.453,0,0,0-3.539,22.889C786.469,7518.293,774.842,7541.182,774.842,7541.182Z" transform="translate(-764.102 -7482.95)" fill="#2d356b"/>
          </g>
          <g id="Group_13861" data-name="Group 13861">
            <g id="Group_13857" data-name="Group 13857">
              <g id="Group_13856" data-name="Group 13856">
                <g id="Group_13852" data-name="Group 13852" transform="translate(0 1.471)">
                  <path id="Path_15098" data-name="Path 15098" d="M762.166,7273.188c4.262-4.362-2.689-5.109-2.481-8.819s1.05-2.565,1.5-7.358-.869-6.535-1.037-9.315,1.568-7.392-.119-10.868-2.622-2.258-4.089-5.021-2.705.329-4.989,1.633-5.112-5.321-9.108-2.659-3.477,7.823-4.619,10.754-5.15,4.211-5.643,9.414,2.361,3.955,1.155,7.57-4.788,3.415-5.281,8.62c0,0-.35,5.216,5.449,4.8s4.062,2.734,10.315.563,4.282,3.445,8.667,1.235S758.36,7277.083,762.166,7273.188Z" transform="translate(-727.456 -7230.142)" fill="#2d356b"/>
                </g>
                <g id="Group_13853" data-name="Group 13853" transform="translate(17.736 18.027)">
                  <path id="Path_15099" data-name="Path 15099" d="M802.049,7287.472l5.356,3.365.961,11.582-4.3-1.558Z" transform="translate(-798.244 -7287.472)" fill="#f7c371"/>
                  <path id="Path_15100" data-name="Path 15100" d="M809.168,7387.4c-3.442-2.254-11.433-7.238-20.294-1.066,2.65-7.784,5.057-15.436,5.143-21.837.159-11.868-9.928-25.808-1.582-31.174,8.861-5.7,19.384,20.611,19.384,20.611C802.958,7358.923,805.409,7373.213,809.168,7387.4Z" transform="translate(-788.874 -7319.511)" fill="#9999a5"/>
                  <path id="Path_15101" data-name="Path 15101" d="M803.318,7331.17l1.557-.183,6.958,6.546-2.06,1.74S805.1,7334.511,803.318,7331.17Z" transform="translate(-799.147 -7318.421)" fill="#fff"/>
                  <path id="Path_15102" data-name="Path 15102" d="M819.077,7339.013l.1-.07c-1.836-3.664-5.849-9.275-9.725-8.914C812.977,7333.175,819.077,7339.013,819.077,7339.013Z" transform="translate(-803.508 -7317.728)" fill="#f7c371"/>
                </g>
                <g id="Group_13855" data-name="Group 13855" transform="translate(12.32)">
                  <g id="Group_13854" data-name="Group 13854">
                    <path id="Path_15103" data-name="Path 15103" d="M784.047,7249.243c-2.856-.785-8.607-1.7-11.378-6.012-3.6-5.606-2.687-9.075-1.487-13.295,2.289-8.044,16.009-4.277,15.151-1.907C785.2,7231.176,794.4,7252.083,784.047,7249.243Z" transform="translate(-770.119 -7225.047)" fill="#2d356b"/>
                    <path id="Path_15104" data-name="Path 15104" d="M810.741,7257.707c1.041,0,2.9-5.382,3.46-9.508.183-1.361-1.282-1.521-1.19-6.163.054-2.726-1.2-6.5-5.768-9.2-4.308-2.556-4.628,5.9-5,7.855-1.052,5.565-2.473,9.061-1.046,11.753C803.987,7257.7,809.616,7257.438,810.741,7257.707Z" transform="translate(-791.796 -7230.244)" fill="#ffd8a3"/>
                    <path id="Path_15105" data-name="Path 15105" d="M835.049,7294.475a.24.24,0,0,1,.217-.261.253.253,0,0,1,.208.276.242.242,0,0,1-.218.261A.252.252,0,0,1,835.049,7294.475Z" transform="translate(-816.298 -7274.24)" fill="#ffab00"/>
                    <path id="Path_15106" data-name="Path 15106" d="M832.969,7268.237c.025-.732.453-1.3.956-1.28s.892.641.867,1.372-.453,1.3-.956,1.279S832.944,7268.968,832.969,7268.237Z" transform="translate(-814.818 -7254.853)" fill="#2d356b"/>
                    <path id="Path_15107" data-name="Path 15107" d="M829.445,7268.108a2.849,2.849,0,0,1,3.626-1.353A7,7,0,0,0,829.445,7268.108Z" transform="translate(-812.313 -7254.556)" fill="#2d356b"/>
                    <path id="Path_15108" data-name="Path 15108" d="M839.793,7305.209c.031-.171.554.432.8.453.7.059.5.953-.2.822C840.123,7306.433,839.761,7305.388,839.793,7305.209Z" transform="translate(-819.671 -7282.038)" fill="#f36973"/>
                    <path id="Path_15109" data-name="Path 15109" d="M837.657,7294.468c-.475-.187,2.73-1.111,2.15-.024A5.015,5.015,0,0,1,837.657,7294.468Z" transform="translate(-818.119 -7274.033)" fill="#f36973"/>
                    <path id="Path_15110" data-name="Path 15110" d="M829.46,7254.732a4.268,4.268,0,0,0-5.145,2.685A5.475,5.475,0,0,1,829.46,7254.732Z" transform="translate(-808.664 -7246.072)" fill="#2d356b"/>
                    <path id="Path_15111" data-name="Path 15111" d="M844.9,7278.286l-1.611.492-.058-4.114,2.4,2.929Z" transform="translate(-822.12 -7260.335)" fill="#ffd8a3"/>
                    <path id="Path_15112" data-name="Path 15112" d="M845.49,7289.106l1.253-2.548-1.21-.043Z" transform="translate(-823.724 -7268.765)" fill="#ffd8a3"/>
                    <path id="Path_15113" data-name="Path 15113" d="M837.88,7298.78a30.389,30.389,0,0,0,.795-3.573h-2.91S836.343,7298.288,837.88,7298.78Z" transform="translate(-816.808 -7274.946)" fill="#ffab00"/>
                    <path id="Path_15114" data-name="Path 15114" d="M837.543,7297.288H839.2c.1-.448.185-.918.266-1.405h-2.379Z" transform="translate(-817.749 -7275.427)" fill="#fff"/>
                    <path id="Path_15115" data-name="Path 15115" d="M792.289,7275.472c.066-1.27.5-2.205-.467-2.253s-1.8.943-1.865,2.214a2.082,2.082,0,0,0,1.63,2.387C792.552,7277.869,792.225,7276.744,792.289,7275.472Z" transform="translate(-784.225 -7259.307)" fill="#f7c371"/>
                  </g>
                  <path id="Path_15116" data-name="Path 15116" d="M809.407,7231.6c-3.057,4.619-8.413,11.372-7.124,17.953-2.71-7.008-1.5-16.354,3.148-20.2C805.921,7230.052,810.083,7229.84,809.407,7231.6Z" transform="translate(-791.981 -7228.107)" fill="#2d356b"/>
                </g>
              </g>
            </g>
            <g id="Group_13860" data-name="Group 13860" transform="translate(12.502 34.737)">
              <g id="Group_13858" data-name="Group 13858" transform="translate(24.05 12.719)">
                <path id="Path_15117" data-name="Path 15117" d="M855.207,7410.029c1.407-1.587,6.541-2.546,5.708-4.2-.745-1.479-4.132-2.753-6.887,3.053Z" transform="translate(-854.028 -7400.192)" fill="#ffd9a4"/>
                <path id="Path_15118" data-name="Path 15118" d="M860.81,7402.8c1.151,2.7,4.43,1.28,5.359.6,1.021-.753.708-3.04-.142-3.585S860.371,7401.768,860.81,7402.8Z" transform="translate(-858.831 -7396.744)" fill="#ffd9a4"/>
                <path id="Path_15119" data-name="Path 15119" d="M864.672,7393.192c.556-1.636.4-3.773-.256-3.815-.744-.048-.268,1.766-1.124,3.112-.924,1.461-1.428,2.428-.885,2.814S864.117,7394.83,864.672,7393.192Z" transform="translate(-859.828 -7389.376)" fill="#ffd9a4"/>
                <path id="Path_15120" data-name="Path 15120" d="M872.93,7394.522c1.187-.884,1.6-1.618,1.334-1.906s-.916.257-2.1,1.139-2.916,1.708-2.645,2S871.741,7395.4,872.93,7394.522Z" transform="translate(-865.023 -7391.624)" fill="#ffd9a4"/>
                <path id="Path_15121" data-name="Path 15121" d="M877.913,7399.211c1.368-.64,2.266-1.8,2.063-2.13s-1.318.555-2.685,1.2-2.22,1.128-2.015,1.457S876.545,7399.851,877.913,7399.211Z" transform="translate(-869.117 -7394.806)" fill="#ffd9a4"/>
                <path id="Path_15122" data-name="Path 15122" d="M876.392,7406.474c1.34-.693,1.931-1.385,1.718-1.708s-1.009.3-2.347.993-2.268,1.2-2.055,1.523S875.052,7407.168,876.392,7406.474Z" transform="translate(-868.003 -7400.259)" fill="#ffd9a4"/>
              </g>
              <g id="Group_13859" data-name="Group 13859">
                <path id="Path_15123" data-name="Path 15123" d="M779.973,7345.391c-5.323-1.61-9.506,31.424-9.21,32.569,0,0,2.84,1.228,3.588.048C776.283,7374.955,782.35,7346.109,779.973,7345.391Z" transform="translate(-770.749 -7345.333)" fill="#cfd0d8"/>
                <path id="Path_15124" data-name="Path 15124" d="M795.474,7418.936c2.18,3.787-20.661,11.8-21.593,11.775,0,0-2.513-2.17-1.741-2.945C774.137,7425.763,794.5,7417.245,795.474,7418.936Z" transform="translate(-771.634 -7397.523)" fill="#cfd0d8"/>
                <path id="Path_15125" data-name="Path 15125" d="M843.265,7416.512l-.961-.929-5.016.8a10.414,10.414,0,0,0,1.861,2.186C839.686,7418.8,843.265,7416.512,843.265,7416.512Z" transform="translate(-818.073 -7395.296)" fill="#eaeaea"/>
                <path id="Path_15126" data-name="Path 15126" d="M849.2,7418.494l.5,1.246-2.676,4.322a10.436,10.436,0,0,1-1.338-2.563C845.679,7420.914,849.2,7418.494,849.2,7418.494Z" transform="translate(-824.046 -7397.366)" fill="#eaeaea"/>
              </g>
            </g>
          </g>
        </g>
        <g id="Group_13863" data-name="Group 13863" transform="translate(5.777 61.835)">
          <rect id="Rectangle_863" data-name="Rectangle 863" width="24.209" height="20.083" rx="5.632" transform="translate(0 4.01) rotate(-0.228)" fill="#ebebeb"/>
          <rect id="Rectangle_864" data-name="Rectangle 864" width="24.209" height="10.042" rx="5.021" transform="translate(0.02 4.011) rotate(-0.228)" fill="#f8c471"/>
          <rect id="Rectangle_865" data-name="Rectangle 865" width="24.209" height="9.682" rx="4.841" transform="translate(0 4.011) rotate(-0.228)" fill="#ffe200"/>
          <path id="Rectangle_866" data-name="Rectangle 866" d="M1.184,0H2.5A1.183,1.183,0,0,1,3.685,1.183v0A1.183,1.183,0,0,1,2.5,2.367H1.184A1.184,1.184,0,0,1,0,1.184v0A1.184,1.184,0,0,1,1.184,0Z" transform="matrix(1, -0.004, 0.004, 1, 10.296, 12.656)" fill="#ebebeb"/>
          <path id="Path_15127" data-name="Path 15127" d="M784.768,7488.231a.309.309,0,1,0,.308-.311A.307.307,0,0,0,784.768,7488.231Z" transform="translate(-773.994 -7473.842)" fill="#d9d9d9"/>
          <path id="Path_15128" data-name="Path 15128" d="M784.994,7488a.31.31,0,1,0,.308-.312A.31.31,0,0,0,784.994,7488Z" transform="translate(-774.155 -7473.68)" fill="#fff"/>
          <path id="Path_15129" data-name="Path 15129" d="M791.7,7488.2a.309.309,0,1,0,.308-.311A.311.311,0,0,0,791.7,7488.2Z" transform="translate(-778.926 -7473.822)" fill="#d9d9d9"/>
          <path id="Path_15130" data-name="Path 15130" d="M791.928,7487.976a.309.309,0,1,0,.308-.311A.308.308,0,0,0,791.928,7487.976Z" transform="translate(-779.087 -7473.661)" fill="#fff"/>
          <path id="Path_15131" data-name="Path 15131" d="M775.1,7439.729s-4.151-.075-5.232,3.428-.673-.067-.673-.067a5.105,5.105,0,0,1,6.446-3.729" transform="translate(-762.863 -7439.169)" fill="#ffe200"/>
        </g>
      </g>
      <g id="Group_13867" data-name="Group 13867" transform="translate(234.244 27.918)">
        <g id="Group_13865" data-name="Group 13865" transform="translate(0.697)">
          <path id="Path_15132" data-name="Path 15132" d="M1065.114,7336.527v11.834h7.061v44.369h-13.483v-56.2Z" transform="translate(-1015.358 -7308.632)" fill="#cfd0d8"/>
          <path id="Path_15133" data-name="Path 15133" d="M1078.879,7474.559h24.744v-22.977h-17.184l-7.56,6.93Z" transform="translate(-1029.715 -7390.461)" fill="#9999a5"/>
          <path id="Path_15134" data-name="Path 15134" d="M1132.833,7474.559h18.324v-16.047l-9.161-6.93-9.164,6.93Z" transform="translate(-1068.088 -7390.461)" fill="#cfd0d8"/>
          <rect id="Rectangle_867" data-name="Rectangle 867" width="8.217" height="10.475" transform="translate(69.634 73.622)" fill="#fff"/>
          <rect id="Rectangle_868" data-name="Rectangle 868" width="1.994" height="3.33" transform="translate(52.868 41.72)" fill="#fff"/>
          <rect id="Rectangle_869" data-name="Rectangle 869" width="2" height="3.33" transform="translate(48.874 41.72)" fill="#fff"/>
          <rect id="Rectangle_870" data-name="Rectangle 870" width="1.991" height="3.33" transform="translate(44.893 41.72)" fill="#fff"/>
          <rect id="Rectangle_871" data-name="Rectangle 871" width="1.994" height="3.318" transform="translate(52.868 48.878)" fill="#fff"/>
          <rect id="Rectangle_872" data-name="Rectangle 872" width="2" height="3.318" transform="translate(48.874 48.878)" fill="#fff"/>
          <rect id="Rectangle_873" data-name="Rectangle 873" width="1.991" height="3.318" transform="translate(44.893 48.878)" fill="#fff"/>
          <rect id="Rectangle_874" data-name="Rectangle 874" width="1.994" height="3.33" transform="translate(52.868 56.028)" fill="#fff"/>
          <rect id="Rectangle_875" data-name="Rectangle 875" width="2" height="3.33" transform="translate(48.874 56.028)" fill="#fff"/>
          <rect id="Rectangle_876" data-name="Rectangle 876" width="1.991" height="3.33" transform="translate(44.893 56.028)" fill="#fff"/>
          <rect id="Rectangle_877" data-name="Rectangle 877" width="2.49" height="4.146" transform="translate(21.491)" fill="#fff"/>
          <path id="Path_15135" data-name="Path 15135" d="M915.128,7376.459v-28.1h16.115v-11.834h20.725v56.2H908.634v-16.271Z" transform="translate(-908.634 -7308.632)" fill="#9999a5"/>
          <rect id="Rectangle_878" data-name="Rectangle 878" width="1.543" height="35.522" transform="translate(39.346 31.274)" fill="#fff"/>
          <rect id="Rectangle_879" data-name="Rectangle 879" width="1.534" height="35.522" transform="translate(36.27 31.274)" fill="#fff"/>
          <rect id="Rectangle_880" data-name="Rectangle 880" width="1.543" height="35.522" transform="translate(33.191 31.274)" fill="#fff"/>
          <rect id="Rectangle_881" data-name="Rectangle 881" width="1.539" height="35.522" transform="translate(30.108 31.274)" fill="#fff"/>
          <rect id="Rectangle_882" data-name="Rectangle 882" width="8.764" height="16.27" transform="translate(16.148 67.827)" fill="#cfd0d8"/>
        </g>
        <g id="Group_13866" data-name="Group 13866" transform="translate(1 78.434)">
          <rect id="Rectangle_883" data-name="Rectangle 883" width="69.812" height="29.271" rx="6.672" transform="translate(8.443 -13.469)" fill="#fff" stroke="#231f20" stroke-miterlimit="10" stroke-width="0.25"/>
          <text id="Factory" transform="translate(22.849 4.667)" fill="#2d356b" font-size="12" font-family="TrebuchetMS-Bold, Trebuchet MS" font-weight="700"><tspan x="0" y="0">Factory</tspan></text>
        </g>
      </g>
      <g id="Group_13868" data-name="Group 13868" transform="translate(0 201.922)">
        <path id="Path_15136" data-name="Path 15136" d="M95.077,7842.474v36.469h320.3l7.914-18.1-7.914-18.368Z" transform="translate(-95.077 -7842.474)" fill="#ffac00"/>
        <text id="BUSINESS_TRIP" data-name="BUSINESS TRIP" transform="translate(69.965 26.812)" fill="#fff" font-size="24" font-family="TrebuchetMS-Bold, Trebuchet MS" font-weight="700"><tspan x="0" y="0">BUSINESS TRIP</tspan></text>
      </g>
    </g>
    <g id="Group_13900" data-name="Group 13900" transform="translate(379.794 6934.74)">
      <g id="Group_13873" data-name="Group 13873" transform="translate(0.773)">
        <g id="Group_13872" data-name="Group 13872">
          <path id="Path_15137" data-name="Path 15137" d="M1545.043,7605.349l6.766,1.451,1.792,33.892-9.1-.067Z" transform="translate(-1462.651 -7519.855)" fill="#ebebeb"/>
          <path id="Path_15138" data-name="Path 15138" d="M1427.7,7317.077l-160.8-2.717-5.824,93.531H1426.25Z" transform="translate(-1261.069 -7312.899)" fill="#7b88ac"/>
          <path id="Path_15139" data-name="Path 15139" d="M1429.3,7394l.954-80.031-161.606-4.672L1265.6,7394Z" transform="translate(-1264.292 -7309.301)" fill="#7b88ac"/>
          <path id="Path_15140" data-name="Path 15140" d="M1439.768,7396.337l.916-77.12-155.089-4.4-2.922,81.516Z" transform="translate(-1276.434 -7313.227)" fill="#fff7d3"/>
          <path id="Path_15141" data-name="Path 15141" d="M1440.924,7396.748l.907-76.606-153.551-4.348-2.892,80.954Z" transform="translate(-1278.365 -7313.919)" fill="#fff"/>
        </g>
      </g>
      <g id="Group_13892" data-name="Group 13892" transform="translate(47.989 62.791)">
        <g id="Group_13886" data-name="Group 13886">
          <g id="Group_13885" data-name="Group 13885">
            <g id="Group_13875" data-name="Group 13875" transform="translate(28.094)">
              <g id="Group_13874" data-name="Group 13874">
                <path id="Path_15142" data-name="Path 15142" d="M1524.566,7568.584c-2.7-3.707.982-5.61.88-9.256s-3.264-2.629-3.569-7.345,2.581-5.849,2.807-8.569-3.458-3.563-1.792-6.919,4.256-3.2,5.7-5.862,5.389-4,7.494-2.65,4.886-3.074,8.561-.335,3.059,7.783,4.055,10.694,4.716,4.295,5.047,9.412-2.309,3.8-1.27,7.388,4.4,3.5,4.728,8.623a4.319,4.319,0,0,1-5.221,4.531c-5.418-.6-3.87,2.55-9.669.221s-4.094,3.241-8.144.933S1527.667,7572.847,1524.566,7568.584Z" transform="translate(-1521.855 -7526.734)" fill="#2d356b"/>
              </g>
            </g>
            <g id="Group_13877" data-name="Group 13877" transform="translate(41.969 35.195)">
              <g id="Group_13876" data-name="Group 13876" transform="translate(0 33.997)">
                <path id="Path_15143" data-name="Path 15143" d="M1572.311,7778.836c-.091-.331.485-.556,1.168-.713s1.213-.187,1.306.145-.388.726-1.071.882S1572.4,7779.167,1572.311,7778.836Z" transform="translate(-1571.608 -7774.638)" fill="#c3e8e6"/>
                <path id="Path_15144" data-name="Path 15144" d="M1574.27,7781.591c-.091-.331.485-.555,1.168-.712s1.213-.187,1.306.143-.387.726-1.071.883S1574.362,7781.921,1574.27,7781.591Z" transform="translate(-1573.001 -7776.597)" fill="#c3e8e6"/>
                <path id="Path_15145" data-name="Path 15145" d="M1570.079,7773.441c.32-.144.813.614,1.279,1.518s.728,1.611.407,1.756-.956-.473-1.421-1.378S1569.759,7773.584,1570.079,7773.441Z" transform="translate(-1569.9 -7771.375)" fill="#c3e8e6"/>
                <path id="Path_15146" data-name="Path 15146" d="M1575.815,7766.332c-1.449.4-6.1,1.308-5.8,2.9.266,1.421,2.606,2.747,6.537-1.675Z" transform="translate(-1569.969 -7766.332)" fill="#c3e8e6"/>
              </g>
              <path id="Path_15147" data-name="Path 15147" d="M1599.755,7648.752c3.868-2.271,13.292,22.871,13.273,23.826,0,0-2.2,2.6-3.007,1.813C1607.939,7672.361,1598.028,7649.767,1599.755,7648.752Z" transform="translate(-1590.99 -7648.607)" fill="#fff4ba"/>
              <path id="Path_15148" data-name="Path 15148" d="M1590.606,7738.286c-2.406-2.422,13.065-12.847,13.775-13.008,0,0,2.334,1.137,1.9,1.872C1605.174,7729.053,1591.68,7739.367,1590.606,7738.286Z" transform="translate(-1584.446 -7703.137)" fill="#fff4ba"/>
              <path id="Path_15149" data-name="Path 15149" d="M1589.187,7765.679l.851.664,3.962-1.075s-1.231-1.458-1.682-1.6S1589.187,7765.679,1589.187,7765.679Z" transform="translate(-1583.617 -7730.439)" fill="#c3e8e6"/>
              <path id="Path_15150" data-name="Path 15150" d="M1588.066,7759.39l-.511-.959,1.78-3.7a8.452,8.452,0,0,1,1.295,1.944C1590.686,7757.143,1588.066,7759.39,1588.066,7759.39Z" transform="translate(-1582.456 -7724.083)" fill="#c3e8e6"/>
            </g>
            <g id="Group_13879" data-name="Group 13879" transform="translate(0 23.851)">
              <path id="Path_15151" data-name="Path 15151" d="M1498.788,7647.137c2.986,3.348-19.82,17.519-20.76,17.688,0,0-2.98-1.651-2.368-2.593C1477.244,7659.792,1497.455,7645.643,1498.788,7647.137Z" transform="translate(-1460.847 -7636.139)" fill="#fff4ba"/>
              <g id="Group_13878" data-name="Group 13878">
                <path id="Path_15152" data-name="Path 15152" d="M1440,7632.98c-1.006-2.083-6.107-4.613-4.743-6.1,1.222-1.33,5.154-1.66,6.321,5.249Z" transform="translate(-1432.003 -7621.266)" fill="#ffd9a4"/>
                <path id="Path_15153" data-name="Path 15153" d="M1438.162,7623.748c-2.009,2.485-5.029.028-5.8-.965-.848-1.093.16-3.4,1.214-3.72S1438.928,7622.8,1438.162,7623.748Z" transform="translate(-1429.885 -7616.238)" fill="#ffd9a4"/>
                <path id="Path_15154" data-name="Path 15154" d="M1445.1,7614.554c-.1-1.881.7-4.079,1.4-3.927.8.17-.242,1.932.256,3.6.536,1.808.778,2.971.092,3.215S1445.2,7616.439,1445.1,7614.554Z" transform="translate(-1439.165 -7610.246)" fill="#ffd9a4"/>
                <path id="Path_15155" data-name="Path 15155" d="M1432.466,7611.759c-.984-1.279-1.2-2.174-.833-2.4s.885.542,1.869,1.819,2.552,2.658,2.182,2.881S1433.451,7613.035,1432.466,7611.759Z" transform="translate(-1429.472 -7609.324)" fill="#ffd9a4"/>
                <path id="Path_15156" data-name="Path 15156" d="M1426.183,7615.209c-1.245-1.078-1.844-2.561-1.532-2.848s1.218.975,2.463,2.053,1.994,1.841,1.681,2.128S1427.427,7616.286,1426.183,7615.209Z" transform="translate(-1424.569 -7611.455)" fill="#ffd9a4"/>
                <path id="Path_15157" data-name="Path 15157" d="M1426.325,7623.52c-1.2-1.127-1.615-2.025-1.3-2.3s.969.614,2.168,1.739,2.024,1.932,1.7,2.209S1427.525,7624.646,1426.325,7623.52Z" transform="translate(-1424.822 -7617.745)" fill="#ffd9a4"/>
              </g>
              <path id="Path_15158" data-name="Path 15158" d="M1451.568,7643.455c2.82-1.923,10.238,15.194,10.268,15.923,0,0-1.546,2.087-2.191,1.529C1457.979,7659.466,1450.308,7644.313,1451.568,7643.455Z" transform="translate(-1443.672 -7633.492)" fill="#fff4ba"/>
              <path id="Path_15159" data-name="Path 15159" d="M1449.985,7641.757l-.808.716.331,4.091a8.385,8.385,0,0,0,1.877-1.361C1451.6,7644.784,1449.985,7641.757,1449.985,7641.757Z" transform="translate(-1442.071 -7632.392)" fill="#eaeaea"/>
              <path id="Path_15160" data-name="Path 15160" d="M1451.721,7641.046l1.036-.327,3.315,2.427a8.482,8.482,0,0,1-2.15.917C1453.45,7644.034,1451.721,7641.046,1451.721,7641.046Z" transform="translate(-1443.88 -7631.653)" fill="#eaeaea"/>
            </g>
            <g id="Group_13880" data-name="Group 13880" transform="translate(31.224 24.61)">
              <path id="Path_15161" data-name="Path 15161" d="M1532.693,7680.074s5.482,4.856,10.964,6.677l2.855-6.172,2.627,6.172s7.411-2.088,10.393-6.677c-6.039-8.757-8.425-16.062-2.162-25.177,0,0-2.521-16.3-11.657-16.7s-10.765,17.374-10.765,17.374C1540.887,7664.469,1542.832,7668.336,1532.693,7680.074Z" transform="translate(-1532.693 -7630.611)" fill="#ffe200"/>
              <path id="Path_15162" data-name="Path 15162" d="M1565.048,7645.819a5.538,5.538,0,0,1,3.54,1.276,11.411,11.411,0,0,0,.884-7.343c-5.562-4.183-8.99.434-8.99.434a10.449,10.449,0,0,0,1.233,6.754A5.523,5.523,0,0,1,1565.048,7645.819Z" transform="translate(-1552.363 -7630.478)" fill="#fff"/>
              <path id="Path_15163" data-name="Path 15163" d="M1566.124,7639.448s-.925,4.641,3.281,9.677c0,0,3.575-4.9,2.566-10.035C1568.354,7635.633,1566.124,7639.448,1566.124,7639.448Z" transform="translate(-1556.408 -7630.223)" fill="#f7c371"/>
              <rect id="Rectangle_886" data-name="Rectangle 886" width="4.771" height="8.945" transform="translate(10.289)" fill="#f7c371"/>
              <path id="Path_15164" data-name="Path 15164" d="M1582.312,7713.567a.671.671,0,1,0-.671.672A.672.672,0,0,0,1582.312,7713.567Z" transform="translate(-1567.028 -7683.745)" fill="#fff"/>
              <path id="Path_15165" data-name="Path 15165" d="M1582.312,7731.725a.671.671,0,1,0-.671.671A.671.671,0,0,0,1582.312,7731.725Z" transform="translate(-1567.028 -7696.659)" fill="#fff"/>
              <path id="Path_15166" data-name="Path 15166" d="M1582.312,7768.041a.671.671,0,1,0-.671.67A.67.67,0,0,0,1582.312,7768.041Z" transform="translate(-1567.028 -7722.489)" fill="#fff"/>
              <path id="Path_15167" data-name="Path 15167" d="M1582.312,7749.882a.671.671,0,1,0-.671.67A.67.67,0,0,0,1582.312,7749.882Z" transform="translate(-1567.028 -7709.574)" fill="#fff"/>
            </g>
            <g id="Group_13881" data-name="Group 13881" transform="translate(35.232 7.654)">
              <path id="Path_15168" data-name="Path 15168" d="M1557.495,7574.507c-2.963.19-10.159-7.475-8.048-17.605.427-2.049,2.539-3.348,6.673-3.616,4.548-.294,6.708.8,7.145,2.409C1566.354,7567.062,1560.527,7574.311,1557.495,7574.507Z" transform="translate(-1548.345 -7553.237)" fill="#ffd8a3"/>
              <path id="Path_15169" data-name="Path 15169" d="M1578.342,7569.481a3.737,3.737,0,0,1,4.646,2.055A4.791,4.791,0,0,0,1578.342,7569.481Z" transform="translate(-1569.167 -7564.661)" fill="#2d356b"/>
              <path id="Path_15170" data-name="Path 15170" d="M1557.713,7571.272a3.723,3.723,0,0,0-4.611,2.095A4.778,4.778,0,0,1,1557.713,7571.272Z" transform="translate(-1551.217 -7565.943)" fill="#2d356b"/>
              <path id="Path_15171" data-name="Path 15171" d="M1585.785,7581.74c-.061-.562-.465-.98-.9-.932a1.057,1.057,0,1,0,.9.932Z" transform="translate(-1573.327 -7572.844)" fill="#2d356b"/>
              <path id="Path_15172" data-name="Path 15172" d="M1584.757,7581.508a2.718,2.718,0,0,0-3.364-.3A6.855,6.855,0,0,1,1584.757,7581.508Z" transform="translate(-1571.337 -7572.807)" fill="#2d356b"/>
              <path id="Path_15173" data-name="Path 15173" d="M1560.684,7583.361a.823.823,0,1,1,.82,1.009A.931.931,0,0,1,1560.684,7583.361Z" transform="translate(-1556.609 -7573.922)" fill="#2d356b"/>
              <path id="Path_15174" data-name="Path 15174" d="M1557.3,7583.195a2.715,2.715,0,0,1,3.3-.734A6.85,6.85,0,0,0,1557.3,7583.195Z" transform="translate(-1554.199 -7573.825)" fill="#2d356b"/>
              <path id="Path_15175" data-name="Path 15175" d="M1573.283,7591.361a2.185,2.185,0,0,0,.911.311,1.268,1.268,0,0,0,.861-.462,10.131,10.131,0,0,0-1.032-2.938C1573.792,7588.26,1573.243,7591.008,1573.283,7591.361Z" transform="translate(-1565.568 -7578.155)" fill="#ffab00"/>
              <path id="Path_15176" data-name="Path 15176" d="M1574.791,7589.9c.005.056.273.125.366.12.159-.011.345-.105.345-.2,0-.238-.049-2.951-.526-2.894C1574.454,7586.98,1574.762,7589.551,1574.791,7589.9Z" transform="translate(-1566.559 -7577.192)" fill="#ffd8a3"/>
              <path id="Path_15177" data-name="Path 15177" d="M1576.506,7614.725c-.021-.329-.384-.273-.854-.243s-.87.024-.848.354.419.572.89.541S1576.527,7615.056,1576.506,7614.725Z" transform="translate(-1566.651 -7596.779)" fill="#f36973"/>
              <path id="Path_15178" data-name="Path 15178" d="M1574.635,7603.977a1.476,1.476,0,0,0-1.557.054c-.293.019-.618-.458-1.594.149-.28.175.743.552,1.614.5S1574.936,7604.113,1574.635,7603.977Z" transform="translate(-1564.257 -7589.183)" fill="#f36973"/>
              <path id="Path_15179" data-name="Path 15179" d="M1569.116,7604.692l4.575-.3s-.4,3.332-2.074,3.44S1569.116,7604.692,1569.116,7604.692Z" transform="translate(-1562.606 -7589.623)" fill="#ffab00"/>
              <path id="Path_15180" data-name="Path 15180" d="M1574.134,7605.052l-3.94.256.52,1.311,3.074-.2Z" transform="translate(-1563.372 -7590.089)" fill="#fff"/>
              <path id="Path_15181" data-name="Path 15181" d="M1584.716,7603.684a.233.233,0,1,0-.212.283A.251.251,0,0,0,1584.716,7603.684Z" transform="translate(-1573.374 -7588.936)" fill="#ffab00"/>
              <path id="Path_15182" data-name="Path 15182" d="M1568.646,7604.724a.234.234,0,1,0-.213.282A.252.252,0,0,0,1568.646,7604.724Z" transform="translate(-1561.943 -7589.675)" fill="#ffab00"/>
              <path id="Path_15183" data-name="Path 15183" d="M1547.77,7590.56c-.182-.645-.13-1.18-.6-1.046a1.089,1.089,0,0,0-.531,1.409c.181.644.714,1.058,1.189.922S1547.952,7591.2,1547.77,7590.56Z" transform="translate(-1546.572 -7579.024)" fill="#f7c371"/>
              <path id="Path_15184" data-name="Path 15184" d="M1600.69,7587.181c.082-.663-.057-1.187.447-1.125a1.1,1.1,0,0,1,.767,1.317c-.081.663-.556,1.152-1.061,1.091S1600.609,7587.847,1600.69,7587.181Z" transform="translate(-1584.958 -7576.575)" fill="#f7c371"/>
            </g>
            <g id="Group_13884" data-name="Group 13884" transform="translate(34.923 5.394)">
              <g id="Group_13883" data-name="Group 13883" transform="translate(6.006)">
                <path id="Path_15185" data-name="Path 15185" d="M1576.4,7552.124c-2.671-.821-9.366-3.161-10.1-6.465,0,0,6.528-1.262,8.239,1.927C1576.7,7551.611,1576.4,7552.124,1576.4,7552.124Z" transform="translate(-1566.3 -7545.413)" fill="#2d356b"/>
                <g id="Group_13882" data-name="Group 13882" transform="translate(0.552 1.373)">
                  <path id="Path_15186" data-name="Path 15186" d="M1573.448,7554.836a20.018,20.018,0,0,0,6.667,4.1C1582.557,7559.659,1573.448,7554.836,1573.448,7554.836Z" transform="translate(-1571.936 -7553.489)" fill="#2d356b"/>
                  <path id="Path_15187" data-name="Path 15187" d="M1568.212,7550.168a12.477,12.477,0,0,0,2.888,3.929C1572.34,7555.09,1568.212,7550.168,1568.212,7550.168Z" transform="translate(-1568.212 -7550.168)" fill="#2d356b"/>
                </g>
              </g>
              <path id="Path_15188" data-name="Path 15188" d="M1545.532,7559.318c2.021-1.126,7.055-4.226,7.256-7.59,0,0-5.32-.492-6.3,2.87C1545.238,7558.844,1545.532,7559.318,1545.532,7559.318Z" transform="translate(-1545.502 -7549.886)" fill="#2d356b"/>
            </g>
          </g>
        </g>
        <g id="Group_13891" data-name="Group 13891" transform="translate(14.269 40.007)">
          <g id="Group_13890" data-name="Group 13890">
            <g id="Group_13889" data-name="Group 13889">
              <g id="Group_13887" data-name="Group 13887">
                <rect id="Rectangle_887" data-name="Rectangle 887" width="43.805" height="30.345" rx="4.256" transform="translate(0.336)" fill="#ebebeb"/>
                <rect id="Rectangle_888" data-name="Rectangle 888" width="44.476" height="2.19" transform="translate(0 31.244)" fill="#ebebeb"/>
                <rect id="Rectangle_889" data-name="Rectangle 889" width="2.19" height="5.259" transform="translate(36.353 27.1)" fill="#ebebeb"/>
                <rect id="Rectangle_890" data-name="Rectangle 890" width="2.19" height="5.259" transform="translate(6.002 27.1)" fill="#ebebeb"/>
              </g>
              <g id="Group_13888" data-name="Group 13888" transform="translate(17.095 9.155)">
                <path id="Path_15189" data-name="Path 15189" d="M1538.32,7707.26a5.143,5.143,0,1,1,5.143-5.144A5.149,5.149,0,0,1,1538.32,7707.26Zm0-8.326a3.183,3.183,0,1,0,3.183,3.183A3.186,3.186,0,0,0,1538.32,7698.934Z" transform="translate(-1533.176 -7696.974)" fill="#7b88ac"/>
              </g>
            </g>
          </g>
        </g>
      </g>
      <g id="Group_13896" data-name="Group 13896" transform="translate(0 60.419)">
        <path id="Path_15190" data-name="Path 15190" d="M1414.436,7779.837H1258.391v18.192h157.034Z" transform="translate(-1258.391 -7704.374)" fill="#fff4ba"/>
        <g id="Group_34" data-name="Group 34" transform="translate(107.623)">
          <g id="Group_30" data-name="Group 30" transform="translate(16.063)">
            <path id="Path_151" data-name="Path 151" d="M1744.515,7583.779c.161-1.687.914-2.6,1.661-2.6s1.2.912,1.042,2.6a2.519,2.519,0,0,1-2.14,2.471C1744.331,7586.25,1744.354,7585.465,1744.515,7583.779Z" transform="translate(-1727.752 -7563.084)" fill="#f8c471"/>
            <path id="Path_152" data-name="Path 152" d="M1690.023,7584.111c-.112-1.687-.871-2.6-1.654-2.6s-1.291.913-1.179,2.6a2.464,2.464,0,0,0,2.16,2.469C1690.133,7586.58,1690.135,7585.8,1690.023,7584.111Z" transform="translate(-1687.036 -7563.32)" fill="#f8c471"/>
            <path id="Path_153" data-name="Path 153" d="M1693.166,7560.036c.112.908,3.674,4.828,7.731,4.828s7.416-3.572,8.12-5.021-2.137-19.894-3.792-21.438-8.328-.523-8.9.29C1694.985,7540.625,1692.727,7556.463,1693.166,7560.036Z" transform="translate(-1691.257 -7532.091)" fill="#f8c471"/>
            <path id="Path_154" data-name="Path 154" d="M1698.651,7545.737c.584.282,2.892-5.7,3.375-6.7s.4-2.04-.183-2.322-1.45.3-1.933,1.3S1698.066,7545.455,1698.651,7545.737Z" transform="translate(-1695.096 -7531.41)" fill="#9999a5"/>
            <path id="Path_155" data-name="Path 155" d="M1732.756,7544.663c.614-.208-1.009-6.277-1.366-7.33s-1.145-1.737-1.759-1.528-.823,1.23-.467,2.281S1732.142,7544.872,1732.756,7544.663Z" transform="translate(-1716.776 -7530.786)" fill="#9999a5"/>
            <path id="Path_156" data-name="Path 156" d="M1709.592,7613.837h-9.17l-1.372,8.4c4.991,2.6,7.907,2.318,11.8-.568Z" transform="translate(-1695.482 -7586.312)" fill="#f8c471"/>
            <path id="Path_157" data-name="Path 157" d="M1719.4,7618.59c0-.177-.324-.322-.724-.322s-.724.146-.724.322.324.193.724.193S1719.4,7618.768,1719.4,7618.59Z" transform="translate(-1708.926 -7589.462)" fill="#9999a5"/>
            <path id="Path_158" data-name="Path 158" d="M1690.891,7551.148c-.322-2.061-.884-16.832.448-18.782s9.174-3.225,10.4-2.914c2.672.676,2.2,2.7,2.2,2.7a4.493,4.493,0,0,1,2.251.652c.922.649,2.844,9.957,1.307,17-.691,3.164-3.412,5.923-8.112,6.052C1693.562,7556.008,1691.291,7553.709,1690.891,7551.148Z" transform="translate(-1689.397 -7526.262)" fill="#9999a5"/>
            <path id="Path_159" data-name="Path 159" d="M1690.263,7537.387c-.956.288-3.04-1.306-2.055-2.147,0,0-1.877-1.438-.35-2.248,0,0-1.534-1.887-.036-2.393,0,0-2.333-2.97-.291-2.92,0,0-1.072-3.178,1.008-2.711,0,0,.367-3.455,2.021-2.277,0,0-.163-3.286,1.94-1.468,0,0,1.4-3.806,1.953-1.148,0,0,1.754-2.611,2.292-.758,0,0,3.98-1.879,2.718.133,0,0,4.039-1.345,2.862.629,0,0,3.931.66,1.888,2.434,0,0,2.948,2.69.4,2.913,0,0,2.26,3.81-.231,3.062,0,0,2.177,4.432-.635,2.892,0,0,2.027,5.023-.371,3.238,0,0,.494,6.112-1.281,3.416Z" transform="translate(-1686.693 -7518.52)" fill="#9999a5"/>
            <path id="Path_160" data-name="Path 160" d="M1697.911,7576.192a32.086,32.086,0,0,1-8.18-.989,20.691,20.691,0,0,0,.416,8.518c.4,2.561,2.67,4.859,8.5,4.7,4.7-.13,7.534-2.865,8.112-6.052.85-4.7.85-4.7.557-7.166A48.683,48.683,0,0,1,1697.911,7576.192Z" transform="translate(-1688.652 -7558.834)" fill="#9999a5"/>
          </g>
          <g id="Group_33" data-name="Group 33" transform="translate(0 34.711)">
            <g id="Group_31" data-name="Group 31" transform="translate(0 5.363)">
              <path id="Path_161" data-name="Path 161" d="M1640.635,7806.667l-.725-2.59,4.04-.089-.719,2.537Z" transform="translate(-1637.358 -7761.625)" fill="#495bd9"/>
              <path id="Path_162" data-name="Path 162" d="M1641.835,7805.531c.554-.106,1.048.028,1.441.839l.674-2.381-4.04.089.725,2.59.138-.007A1.162,1.162,0,0,1,1641.835,7805.531Z" transform="translate(-1637.358 -7761.625)" fill="#495bd9"/>
              <path id="Path_163" data-name="Path 163" d="M1632.162,7684.12c-1.924-.067-.9-17.438,4.041-26.831,0,0,6.669,6.727,6.993,11.691C1643.2,7668.98,1639.927,7684.388,1632.162,7684.12Z" transform="translate(-1631.199 -7657.289)" fill="#495bd9"/>
              <path id="Path_164" data-name="Path 164" d="M1631.2,7732.435s-.964,7.18,2.38,21.312a6.132,6.132,0,0,0,4.42-.83s2.675-14.707-.833-20C1637.166,7732.916,1633.218,7730.467,1631.2,7732.435Z" transform="translate(-1631.071 -7710.189)" fill="#495bd9"/>
              <path id="Path_165" data-name="Path 165" d="M1645.819,7733.45c1.1.452,2.554,1.228,2.406,1.658C1647.924,7735.985,1645.819,7733.45,1645.819,7733.45Z" transform="translate(-1641.56 -7711.456)" fill="#495bd9"/>
              <path id="Path_166" data-name="Path 166" d="M1646.672,7736.646c.639-1,1.66-2.3,2.058-2.075C1649.541,7735.022,1646.672,7736.646,1646.672,7736.646Z" transform="translate(-1642.167 -7712.235)" fill="#495bd9"/>
              <path id="Path_167" data-name="Path 167" d="M1656.283,7700.881a66,66,0,0,1-6.327,10.437c2.535,5.783.978,19.2.881,20,.195-.091.393-.187.594-.3,0,0,2.358-12.964-.258-18.928C1654.1,7708.585,1655.733,7703.033,1656.283,7700.881Z" transform="translate(-1644.502 -7688.293)" fill="#495bd9"/>
              <path id="Path_168" data-name="Path 168" d="M1637.67,7797.58a.608.608,0,0,0-.088-1.21.588.588,0,0,0-.154.021Z" transform="translate(-1635.592 -7756.206)" fill="#495bd9"/>
            </g>
            <g id="Group_32" data-name="Group 32" transform="translate(39.249 4.759)">
              <path id="Path_169" data-name="Path 169" d="M1789.012,7804.576l.725-2.59-4.041-.089.719,2.537Z" transform="translate(-1780.293 -7759.533)" fill="#495bd9"/>
              <path id="Path_170" data-name="Path 170" d="M1787.813,7803.439c-.554-.106-1.048.027-1.442.838l-.674-2.38,4.041.089-.725,2.59-.138-.007A1.161,1.161,0,0,0,1787.813,7803.439Z" transform="translate(-1780.293 -7759.533)" fill="#495bd9"/>
              <path id="Path_171" data-name="Path 171" d="M1778.018,7682.028c1.924-.066.9-17.438-4.041-26.832,0,0-6.668,6.728-6.993,11.693C1766.984,7666.888,1770.254,7682.3,1778.018,7682.028Z" transform="translate(-1766.984 -7655.196)" fill="#495bd9"/>
              <path id="Path_172" data-name="Path 172" d="M1788.929,7730.342s.964,7.179-2.38,21.311a6.138,6.138,0,0,1-4.42-.83s-2.675-14.707.833-20C1782.963,7730.824,1786.911,7728.375,1788.929,7730.342Z" transform="translate(-1777.061 -7708.098)" fill="#495bd9"/>
              <path id="Path_173" data-name="Path 173" d="M1787.826,7731.358c-1.1.451-2.554,1.228-2.406,1.658C1785.72,7733.893,1787.826,7731.358,1787.826,7731.358Z" transform="translate(-1780.088 -7709.364)" fill="#495bd9"/>
              <path id="Path_174" data-name="Path 174" d="M1787.5,7734.555c-.639-1-1.66-2.3-2.058-2.075C1784.631,7732.93,1787.5,7734.555,1787.5,7734.555Z" transform="translate(-1780.008 -7710.143)" fill="#495bd9"/>
              <path id="Path_175" data-name="Path 175" d="M1767.73,7698.788a66.016,66.016,0,0,0,6.328,10.437c-2.535,5.783-.978,19.2-.881,20-.2-.091-.392-.188-.594-.3,0,0-2.357-12.962.257-18.927C1769.912,7706.494,1768.281,7700.94,1767.73,7698.788Z" transform="translate(-1767.515 -7686.199)" fill="#495bd9"/>
              <path id="Path_176" data-name="Path 176" d="M1800.049,7795.486a.608.608,0,0,1,.088-1.21.542.542,0,0,1,.153.022Z" transform="translate(-1790.13 -7754.112)" fill="#495bd9"/>
            </g>
            <path id="Path_177" data-name="Path 177" d="M1648.071,7644.164c3.587,14.593,10.344,48.563,10.344,48.563,1.985,1.91,6.055,2.687,10.239,2.652l.674-1.878,1.117,1.815c4.282-.264,8.387-1.331,10.19-2.856,1.168-6.3,8.7-49,8.7-49C1667.443,7632.4,1648.071,7644.164,1648.071,7644.164Z" transform="translate(-1643.162 -7638.718)" fill="#495bd9"/>
          </g>
          <path id="Path_178" data-name="Path 178" d="M1707.481,7630.574c-1.765-1.861-12.626-2.123-14.972.008l-.806,2.227c4.956.566,9.4.419,17.146-.068Z" transform="translate(-1674.193 -7597.152)" fill="#ffd9a4"/>
        </g>
        <g id="Group_13895" data-name="Group 13895" transform="translate(8.771 3.248)">
          <g id="Group_13894" data-name="Group 13894" transform="translate(17.674)">
            <path id="Path_15191" data-name="Path 15191" d="M1409.74,7580.551c.167-1.759.953-2.71,1.731-2.71s1.255.951,1.087,2.71a2.623,2.623,0,0,1-2.231,2.574C1409.548,7583.125,1409.572,7582.31,1409.74,7580.551Z" transform="translate(-1392.41 -7563.958)" fill="#f7c371"/>
            <path id="Path_15192" data-name="Path 15192" d="M1352.935,7580.9c-.117-1.759-.908-2.71-1.724-2.71s-1.345.951-1.229,2.71a2.57,2.57,0,0,0,2.253,2.575C1353.05,7583.475,1353.053,7582.659,1352.935,7580.9Z" transform="translate(-1349.966 -7564.206)" fill="#f7c371"/>
            <path id="Path_15193" data-name="Path 15193" d="M1356.211,7555.8c.117.946,3.83,5.033,8.058,5.033s7.73-3.725,8.465-5.234-2.228-20.738-3.953-22.35-8.682-.546-9.273.3C1358.107,7535.569,1355.753,7552.078,1356.211,7555.8Z" transform="translate(-1354.366 -7531.651)" fill="#ffd8a3"/>
            <path id="Path_15194" data-name="Path 15194" d="M1361.93,7540.9c.608.294,3.015-5.941,3.518-6.984s.418-2.126-.191-2.421-1.511.313-2.015,1.356S1361.32,7540.6,1361.93,7540.9Z" transform="translate(-1358.368 -7530.942)" fill="#ffcc9b"/>
            <path id="Path_15195" data-name="Path 15195" d="M1397.482,7539.778c.64-.217-1.051-6.545-1.424-7.642s-1.193-1.81-1.834-1.593-.858,1.282-.487,2.38S1396.841,7540,1397.482,7539.778Z" transform="translate(-1380.968 -7530.292)" fill="#ffcc9b"/>
            <path id="Path_15196" data-name="Path 15196" d="M1373.335,7611.888h-9.559l-1.43,8.757c5.2,2.713,8.243,2.419,12.3-.591Z" transform="translate(-1358.771 -7588.173)" fill="#f7c371"/>
            <path id="Path_15197" data-name="Path 15197" d="M1383.56,7616.841c0-.185-.338-.335-.755-.335s-.755.15-.755.335.338.2.755.2S1383.56,7617.028,1383.56,7616.841Z" transform="translate(-1372.785 -7591.457)" fill="#f3ac7d"/>
            <path id="Path_15198" data-name="Path 15198" d="M1353.841,7551.034c-.336-2.016-.921-16.464.467-18.371s9.563-3.153,10.842-2.851c2.785.661,2.3,2.637,2.3,2.637a4.929,4.929,0,0,1,2.346.638c.962.636,2.965,9.738,1.363,16.624-.72,3.1-3.557,5.794-8.456,5.92C1356.624,7555.787,1354.257,7553.538,1353.841,7551.034Z" transform="translate(-1352.428 -7529.767)" fill="#2d356b"/>
          </g>
          <path id="Path_15199" data-name="Path 15199" d="M1288.766,7662.9c4.088,17.472,13.265,18.33,14,20.812a.843.843,0,0,0,.225.375c2.331,2.213,6.811,3.17,11.5,3.21a.86.86,0,0,0,.817-.586h0a.863.863,0,0,1,1.563-.156l.115.2a.862.862,0,0,0,.809.428c4.742-.377,9.226-1.618,11.42-3.372a.861.861,0,0,0,.311-.519c1.45-7.893,13.361-16.426,14.637-21.359.1-.387-3.968-23.372-4.323-23.558-23.655-12.281-44.723-.975-48.319,1.157C1291.188,7639.72,1288.68,7662.534,1288.766,7662.9Z" transform="translate(-1288.764 -7603.001)" fill="#03b3e8"/>
          <path id="Path_15200" data-name="Path 15200" d="M1373.14,7625.188c-1.4-1.546-9.946-1.718-11.784.067l-.625,1.859c3.9.453,7.4.312,13.494-.126Z" transform="translate(-1339.948 -7596.767)" fill="#fff3b9"/>
        </g>
        <g id="students" transform="translate(7.538 55.186)">
          <g id="Group_35" data-name="Group 35">
            <path id="Path_180" data-name="Path 180" d="M1284.492,7748.522H1339.8l2.524-31.711c.287-3.616-1.941-6.76-4.8-6.76H1291.91c-2.474,0-4.546,2.386-4.8,5.521Z" transform="translate(-1284.492 -7709.926)" fill="#2e3667"/>
            <path id="Path_182" data-name="Path 182" d="M1672.258,7716.583l-3.344,31.507h-55.307l3.518-33.152c.323-3.046,2.363-5.317,4.776-5.317h45.582C1670.4,7709.62,1672.649,7712.9,1672.258,7716.583Z" transform="translate(-1518.564 -7709.62)" fill="#2e3667"/>
          </g>
        </g>
      </g>
      <text id="TOPIC:_Training" data-name="TOPIC: 
Training" transform="translate(25.777 32.269)" fill="#2d356b" font-size="24" font-family="TrebuchetMS-Bold, Trebuchet MS" font-weight="700"><tspan x="0" y="0">TOPIC: </tspan><tspan x="0" y="23">Training</tspan></text>
      <g id="Group_13897" data-name="Group 13897" transform="translate(0 153.971)">
        <path id="Path_15201" data-name="Path 15201" d="M1258.391,7842.474v36.469h158.247l7.914-18.1-7.914-18.368Z" transform="translate(-1258.391 -7842.474)" fill="#ffac00"/>
        <text id="MEETING" transform="translate(28.501 26.933)" fill="#fff" font-size="24" font-family="TrebuchetMS-Bold, Trebuchet MS" font-weight="700"><tspan x="0" y="0">MEETING</tspan></text>
      </g>
      <g id="Group_13899" data-name="Group 13899" transform="translate(73.029 125.28)">
        <rect id="Rectangle_893" data-name="Rectangle 893" width="73.165" height="38.271" rx="6.672" transform="translate(5.165 -17.969)" fill="#fff" stroke="#231f20" stroke-miterlimit="10" stroke-width="0.25"/>
        <text id="Human_Resources" data-name="Human 
Resources" transform="translate(15.247 -1.334)" fill="#2d356b" font-size="12" font-family="TrebuchetMS-Bold, Trebuchet MS" font-weight="700"><tspan x="0" y="0">Human </tspan><tspan x="0" y="12">Resources</tspan></text>
      </g>
    </g>
    <g id="Group_13934" data-name="Group 13934" transform="translate(111.93 7176.561)">
      <g id="Group_13917" data-name="Group 13917" transform="translate(0 10.923)">
        <g id="Group_13915" data-name="Group 13915" transform="translate(15.671)">
          <path id="Path_15202" data-name="Path 15202" d="M399.348,8401.049l35.214,3.459a6.668,6.668,0,0,0,7.322-6.635v-64.33a6.671,6.671,0,0,0-7.267-6.643l-42.914,3.857c-.135.012-.27.018-.405.021a6.374,6.374,0,0,0-6.135,7.4l8.237,57.18A6.667,6.667,0,0,0,399.348,8401.049Z" transform="translate(-385.091 -8285.761)" fill="#ffd9a4"/>
          <g id="Group_13914" data-name="Group 13914" transform="translate(22.437)">
            <g id="Group_13910" data-name="Group 13910">
              <g id="Group_13901" data-name="Group 13901" transform="translate(0 2.029)">
                <path id="Path_15203" data-name="Path 15203" d="M520.783,8260.244c6.33-7.832-5.213-7.982-5.448-14.115s1.328-4.379,1.331-12.332-2.443-10.605-3.151-15.15,1.43-12.4-1.882-17.85-4.662-3.3-7.5-7.619-4.4.959-7.948,3.459-9.231-7.957-15.387-2.959-4.5,13.4-5.924,18.4-7.814,7.721-7.816,16.352,4.5,6.135,3.074,12.268-7.341,6.357-7.343,14.99c0,0,.234,8.631,9.7,7.045s7.1,3.861,17.044-.676,7.575,5,14.44.684S515.129,8267.238,520.783,8260.244Z" transform="translate(-462.785 -8191.535)" fill="#2d356b"/>
              </g>
              <g id="Group_13903" data-name="Group 13903" transform="translate(32.608 58.33)">
                <path id="Path_15204" data-name="Path 15204" d="M576.079,8387.094c8.382-6.286,30.465,38.774,30.54,40.687,0,0-2.239,4.622-4.136,3.425C597.583,8428.109,572.334,8389.9,576.079,8387.094Z" transform="translate(-575.702 -8386.493)" fill="#495bd9"/>
                <g id="Group_13902" data-name="Group 13902" transform="translate(25.691 38.811)">
                  <path id="Path_15205" data-name="Path 15205" d="M706.22,8539.191c-2.059,7.311-39.852-11.592-40.95-12.783,0,0-2.13-5.182,1.607-5.512C671.779,8520.469,707.14,8535.92,706.22,8539.191Z" transform="translate(-664.665 -8520.888)" fill="#495bd9"/>
                  <path id="Path_15206" data-name="Path 15206" d="M795.6,8565.174l-.492-2.275-8.022-3.693s.021,4.109.576,4.957S795.6,8565.174,795.6,8565.174Z" transform="translate(-751.731 -8548.141)" fill="#495bd9"/>
                  <path id="Path_15207" data-name="Path 15207" d="M795.836,8579.686l-.473,2.254-7.933,3.6s-.006-4.084.54-4.926S795.836,8579.686,795.836,8579.686Z" transform="translate(-751.978 -8562.707)" fill="#495bd9"/>
                </g>
              </g>
              <g id="Group_13904" data-name="Group 13904" transform="translate(23.458 29.305)">
                <path id="Path_15208" data-name="Path 15208" d="M560.543,8285.986l8.808,5.178,2.1,18.654-7.024-2.307Z" transform="translate(-555.77 -8285.986)" fill="#f6cda2"/>
                <path id="Path_15209" data-name="Path 15209" d="M580.8,8438.221c-17.619,11.271-24.537,7.438-34.971,7.288-.657-14.783,7.431-25.163,7.262-35.5-.308-19.17-17.26-41.2-4.042-50.257,14.037-9.621,32.282,32.354,32.282,32.354C567.261,8400.573,574.054,8415.484,580.8,8438.221Z" transform="translate(-544.015 -8337.429)" fill="#9ea9fc"/>
                <path id="Path_15210" data-name="Path 15210" d="M564.7,8356.3l2.5-.371,11.547,10.238-3.243,2.908S567.737,8361.607,564.7,8356.3Z" transform="translate(-558.723 -8335.73)" fill="#fff"/>
                <path id="Path_15211" data-name="Path 15211" d="M590.49,8368.345c.052-.039.1-.079.154-.119-3.14-5.829-9.888-14.7-16.128-13.93C580.362,8359.21,590.49,8368.345,590.49,8368.345Z" transform="translate(-565.708 -8334.536)" fill="#f6cda2"/>
              </g>
              <g id="Group_13906" data-name="Group 13906" transform="translate(13.882)">
                <g id="Group_13905" data-name="Group 13905">
                  <path id="Path_15212" data-name="Path 15212" d="M533.858,8224.463c-4.716-1.295-14.213-2.807-18.789-9.928-5.948-9.26-4.437-14.986-2.455-21.955,3.779-13.282,26.436-7.062,25.02-3.148C535.754,8194.627,550.951,8229.152,533.858,8224.463Z" transform="translate(-510.857 -8184.508)" fill="#2d356b"/>
                  <path id="Path_15213" data-name="Path 15213" d="M577.938,8238.439c1.72,0,4.8-8.886,5.713-15.7.3-2.247-2.117-2.511-1.965-10.178.089-4.5-1.989-10.729-9.525-15.2-7.115-4.219-7.643,9.746-8.252,12.972-1.736,9.19-4.083,14.962-1.727,19.409C566.785,8238.427,576.08,8238,577.938,8238.439Z" transform="translate(-546.654 -8193.09)" fill="#ffd8a3"/>
                  <path id="Path_15214" data-name="Path 15214" d="M618.078,8299.154a.4.4,0,0,1,.358-.43.416.416,0,0,1,.344.457.4.4,0,0,1-.36.43A.415.415,0,0,1,618.078,8299.154Z" transform="translate(-587.114 -8265.742)" fill="#ffab00"/>
                  <path id="Path_15215" data-name="Path 15215" d="M614.644,8255.828c.041-1.209.749-2.154,1.578-2.113s1.473,1.057,1.431,2.264-.748,2.156-1.578,2.113S614.6,8257.035,614.644,8255.828Z" transform="translate(-584.671 -8233.729)" fill="#2d356b"/>
                  <path id="Path_15216" data-name="Path 15216" d="M608.824,8255.617c1.164-1.674,2.824-3.342,5.987-2.234A11.556,11.556,0,0,0,608.824,8255.617Z" transform="translate(-580.533 -8233.239)" fill="#2d356b"/>
                  <path id="Path_15217" data-name="Path 15217" d="M625.914,8316.879c.051-.281.914.713,1.323.748,1.158.1.827,1.574-.328,1.359C626.458,8318.9,625.86,8317.176,625.914,8316.879Z" transform="translate(-592.685 -8278.617)" fill="#f36973"/>
                  <path id="Path_15218" data-name="Path 15218" d="M622.385,8299.144c-.784-.312,4.509-1.835,3.551-.042C625.585,8299.453,622.787,8299.3,622.385,8299.144Z" transform="translate(-590.121 -8265.398)" fill="#f36973"/>
                  <path id="Path_15219" data-name="Path 15219" d="M608.848,8233.527c-1.959-.395-6.224-.742-8.5,4.432C602.642,8234.824,604.417,8233.652,608.848,8233.527Z" transform="translate(-574.508 -8219.227)" fill="#2d356b"/>
                  <path id="Path_15220" data-name="Path 15220" d="M634.352,8272.422l-2.661.814-.1-6.8,3.966,4.838Z" transform="translate(-596.728 -8242.779)" fill="#ffd8a3"/>
                  <path id="Path_15221" data-name="Path 15221" d="M635.321,8290.289l2.069-4.207-2-.072Z" transform="translate(-599.378 -8256.697)" fill="#ffd8a3"/>
                  <path id="Path_15222" data-name="Path 15222" d="M622.755,8306.266a50.312,50.312,0,0,0,1.313-5.9h-4.806S620.216,8305.454,622.755,8306.266Z" transform="translate(-587.957 -8266.907)" fill="#ffab00"/>
                  <path id="Path_15223" data-name="Path 15223" d="M622.2,8303.8h2.737c.159-.74.3-1.516.44-2.318h-3.928Z" transform="translate(-589.51 -8267.703)" fill="#fff"/>
                  <path id="Path_15224" data-name="Path 15224" d="M547.469,8267.775c.109-2.1.818-3.641-.772-3.721s-2.973,1.559-3.081,3.658,1.1,3.861,2.691,3.941S547.363,8269.875,547.469,8267.775Z" transform="translate(-534.151 -8241.081)" fill="#f7c371"/>
                </g>
                <path id="Path_15225" data-name="Path 15225" d="M575.735,8195.324c-5.048,7.628-13.892,18.78-11.764,29.648-4.475-11.57-2.478-27.008,5.2-33.361C569.978,8192.772,576.85,8192.422,575.735,8195.324Z" transform="translate(-546.958 -8189.56)" fill="#2d356b"/>
              </g>
              <g id="Group_13909" data-name="Group 13909" transform="translate(15.646 53.535)">
                <g id="Group_13907" data-name="Group 13907" transform="translate(40.545 21.443)">
                  <path id="Path_15226" data-name="Path 15226" d="M659.352,8478.961c2.373-2.674,11.028-4.293,9.623-7.076-1.257-2.494-6.966-4.641-11.611,5.145Z" transform="translate(-657.364 -8462.378)" fill="#ffd9a4"/>
                  <path id="Path_15227" data-name="Path 15227" d="M668.8,8466.771c1.941,4.543,7.468,2.158,9.035,1.008,1.722-1.27,1.193-5.125-.24-6.045S668.058,8465.033,668.8,8466.771Z" transform="translate(-665.461 -8456.563)" fill="#ffd9a4"/>
                  <path id="Path_15228" data-name="Path 15228" d="M675.308,8450.576c.937-2.758.681-6.361-.432-6.432-1.255-.08-.452,2.977-1.9,5.248-1.558,2.461-2.407,4.09-1.491,4.742S674.373,8453.34,675.308,8450.576Z" transform="translate(-667.142 -8444.143)" fill="#ffd9a4"/>
                  <path id="Path_15229" data-name="Path 15229" d="M689.231,8452.819c2-1.491,2.7-2.729,2.249-3.215s-1.544.434-3.546,1.92-4.915,2.88-4.46,3.367S687.226,8454.3,689.231,8452.819Z" transform="translate(-675.9 -8447.934)" fill="#ffd9a4"/>
                  <path id="Path_15230" data-name="Path 15230" d="M697.631,8460.723c2.306-1.078,3.821-3.033,3.478-3.592s-2.223.939-4.527,2.016-3.743,1.9-3.4,2.459S695.326,8461.8,697.631,8460.723Z" transform="translate(-682.803 -8453.295)" fill="#ffd9a4"/>
                  <path id="Path_15231" data-name="Path 15231" d="M695.068,8472.967c2.259-1.168,3.255-2.332,2.9-2.877s-1.7.5-3.957,1.674-3.824,2.02-3.465,2.566S692.808,8474.139,695.068,8472.967Z" transform="translate(-680.925 -8462.49)" fill="#ffd9a4"/>
                </g>
                <g id="Group_13908" data-name="Group 13908">
                  <path id="Path_15232" data-name="Path 15232" d="M532.516,8369.988c-8.974-2.715-16.026,52.977-15.527,54.908,0,0,4.789,2.068,6.048.08C526.293,8419.832,536.522,8371.2,532.516,8369.988Z" transform="translate(-516.964 -8369.893)" fill="#495bd9"/>
                  <path id="Path_15233" data-name="Path 15233" d="M558.647,8493.977c3.676,6.385-34.833,19.9-36.4,19.852,0,0-4.237-3.657-2.935-4.965C522.676,8505.485,557.006,8491.126,558.647,8493.977Z" transform="translate(-518.455 -8457.878)" fill="#495bd9"/>
                  <path id="Path_15234" data-name="Path 15234" d="M639.218,8489.889l-1.62-1.564-8.456,1.35s2.232,3.3,3.137,3.684S639.218,8489.889,639.218,8489.889Z" transform="translate(-596.747 -8454.123)" fill="#eaeaea"/>
                  <path id="Path_15235" data-name="Path 15235" d="M649.219,8493.231l.848,2.1-4.511,7.288s-2.242-3.34-2.255-4.322S649.219,8493.231,649.219,8493.231Z" transform="translate(-606.817 -8457.612)" fill="#eaeaea"/>
                </g>
              </g>
            </g>
            <g id="Group_13913" data-name="Group 13913" transform="translate(77.847 65.908)">
              <g id="Group_13911" data-name="Group 13911">
                <rect id="Rectangle_894" data-name="Rectangle 894" width="59.763" height="41.399" rx="5.806" transform="translate(0.458)" fill="#ebebeb"/>
                <rect id="Rectangle_895" data-name="Rectangle 895" width="60.679" height="2.988" transform="translate(0 42.626)" fill="#ebebeb"/>
                <rect id="Rectangle_896" data-name="Rectangle 896" width="2.988" height="7.175" transform="translate(8.095 36.973)" fill="#ebebeb"/>
                <rect id="Rectangle_897" data-name="Rectangle 897" width="2.988" height="7.175" transform="translate(49.502 36.973)" fill="#ebebeb"/>
              </g>
              <g id="Group_13912" data-name="Group 13912" transform="translate(23.323 12.491)">
                <path id="Path_15236" data-name="Path 15236" d="M813.117,8463a7.017,7.017,0,1,1,7.016,7.018A7.024,7.024,0,0,1,813.117,8463Zm2.674,0a4.343,4.343,0,1,0,4.342-4.342A4.348,4.348,0,0,0,815.791,8463Z" transform="translate(-813.117 -8455.988)" fill="#7b88ac"/>
              </g>
            </g>
          </g>
        </g>
        <g id="Group_13916" data-name="Group 13916" transform="translate(15.67 69.066)">
          <rect id="Rectangle_898" data-name="Rectangle 898" width="52.17" height="30.996" rx="6.672" fill="#fff" stroke="#231f20" stroke-miterlimit="10" stroke-width="0.25"/>
          <text id="Akiko" transform="translate(13.085 18.998)" fill="#2d356b" font-size="10" font-family="TrebuchetMS-Bold, Trebuchet MS" font-weight="700"><tspan x="0" y="0">Akiko</tspan></text>
        </g>
      </g>
      <g id="Group_13932" data-name="Group 13932" transform="translate(192.597)">
        <path id="Path_15237" data-name="Path 15237" d="M1336.286,8393.543,1301.073,8397a6.668,6.668,0,0,1-7.322-6.637v-64.33a6.669,6.669,0,0,1,7.267-6.641l42.914,3.857c.135.012.27.018.405.02a6.377,6.377,0,0,1,6.135,7.4l-8.237,57.18A6.667,6.667,0,0,1,1336.286,8393.543Z" transform="translate(-1208.272 -8269.501)" fill="#ffd9a4"/>
        <path id="Path_15238" data-name="Path 15238" d="M1229.176,8175.27c-7.123-11.038,9.484-30.418,19.248-28.066,0,0,20.185-6.837,25.408,29.14.23,1.592-5.969,3.586-4.843,6.847s.713,2.988-.346,5.03-4.7.821-5.01,2.161c-.858,3.678,5.914,3.853,7.224,1.577,0,0-12.036,14.295-24.754.84C1245.373,8192.024,1231.052,8178.176,1229.176,8175.27Z" transform="translate(-1161.118 -8146.685)" fill="#fff4ba"/>
        <g id="Group_13920" data-name="Group 13920" transform="translate(0 77.363)">
          <g id="Group_13918" data-name="Group 13918">
            <rect id="Rectangle_899" data-name="Rectangle 899" width="59.763" height="41.399" rx="5.806" transform="translate(0.458)" fill="#ebebeb"/>
            <rect id="Rectangle_900" data-name="Rectangle 900" width="60.679" height="2.988" transform="translate(0 42.626)" fill="#ebebeb"/>
            <rect id="Rectangle_901" data-name="Rectangle 901" width="2.988" height="7.175" transform="translate(8.095 36.972)" fill="#ebebeb"/>
            <rect id="Rectangle_902" data-name="Rectangle 902" width="2.988" height="7.175" transform="translate(49.502 36.972)" fill="#ebebeb"/>
          </g>
          <g id="Group_13919" data-name="Group 13919" transform="translate(23.323 12.49)">
            <path id="Path_15239" data-name="Path 15239" d="M1078.516,8464.846a7.017,7.017,0,1,1,7.016,7.018A7.024,7.024,0,0,1,1078.516,8464.846Zm2.674,0a4.343,4.343,0,1,0,4.342-4.342A4.348,4.348,0,0,0,1081.19,8464.846Z" transform="translate(-1078.516 -8457.83)" fill="#7b88ac"/>
          </g>
        </g>
        <g id="Group_13924" data-name="Group 13924" transform="translate(60.866 36.911)">
          <g id="Group_13921" data-name="Group 13921">
            <path id="Path_15240" data-name="Path 15240" d="M1294.342,8274.5l-8.808,5.179-2.1,18.654,7.023-2.31Z" transform="translate(-1261.797 -8274.5)" fill="#f6cda2"/>
            <path id="Path_15241" data-name="Path 15241" d="M1209.054,8426.733c17.619,11.271,24.537,7.438,34.971,7.289.657-14.783-7.431-25.163-7.262-35.5.308-19.169,17.26-41.2,4.042-50.256-14.038-9.621-32.283,32.354-32.283,32.354C1222.593,8389.087,1215.8,8404,1209.054,8426.733Z" transform="translate(-1208.522 -8325.942)" fill="#54ccca"/>
            <path id="Path_15242" data-name="Path 15242" d="M1282.461,8344.812l-2.5-.37-11.547,10.238,3.243,2.908S1279.418,8350.121,1282.461,8344.812Z" transform="translate(-1251.115 -8324.244)" fill="#fff"/>
            <path id="Path_15243" data-name="Path 15243" d="M1251.55,8356.858c-.052-.039-.1-.079-.154-.12,3.14-5.828,9.888-14.694,16.128-13.929C1261.678,8347.724,1251.55,8356.858,1251.55,8356.858Z" transform="translate(-1239.015 -8323.05)" fill="#f6cda2"/>
          </g>
          <g id="Group_13923" data-name="Group 13923" transform="translate(0.805 24.23)">
            <g id="Group_13922" data-name="Group 13922">
              <path id="Path_15244" data-name="Path 15244" d="M1308.685,8358.5c8.974-2.713,16.026,52.979,15.527,54.91,0,0-4.789,2.07-6.049.08C1314.907,8408.346,1304.678,8359.713,1308.685,8358.5Z" transform="translate(-1279.912 -8358.404)" fill="#c3e8e6"/>
              <path id="Path_15245" data-name="Path 15245" d="M1222.03,8545.369c.885,7.313,39.808-4.959,41.036-5.937,0,0,1.2-5.467-.627-5.732C1257.719,8533.013,1221.635,8542.1,1222.03,8545.369Z" transform="translate(-1218.932 -8483.052)" fill="#c3e8e6"/>
              <path id="Path_15246" data-name="Path 15246" d="M1211.4,8559.07l.448-2.207,7.734-3.678s.03,3.982-.5,4.814S1211.4,8559.07,1211.4,8559.07Z" transform="translate(-1211.375 -8496.938)" fill="#f5f6f6"/>
              <path id="Path_15247" data-name="Path 15247" d="M1211.309,8573l.49,2.213,7.845,3.45s-.043-4.021-.59-4.84S1211.309,8573,1211.309,8573Z" transform="translate(-1211.309 -8511.033)" fill="#f5f6f6"/>
            </g>
          </g>
        </g>
        <g id="Group_13930" data-name="Group 13930" transform="translate(69.023 6.049)">
          <g id="Group_13929" data-name="Group 13929">
            <g id="Group_13928" data-name="Group 13928">
              <g id="Group_13927" data-name="Group 13927">
                <g id="Group_13926" data-name="Group 13926">
                  <g id="Group_13925" data-name="Group 13925" transform="translate(0 2.783)">
                    <path id="Path_15248" data-name="Path 15248" d="M1251.516,8219.354c-1.669.293-6.167-7.812-8.216-14.273-.676-2.129,1.628-2.795.178-10.213-.851-4.355.107-10.755,6.664-16.375,6.191-5.307,9.077,8.163,10.217,11.19,3.248,8.628,6.507,13.833,4.975,18.55C1262.342,8217.447,1253.245,8218.607,1251.516,8219.354Z" transform="translate(-1241.323 -8177.267)" fill="#ffd8a3"/>
                    <path id="Path_15249" data-name="Path 15249" d="M1264.428,8281.8a.389.389,0,0,0-.42-.355.41.41,0,0,0-.256.5.392.392,0,0,0,.422.355A.409.409,0,0,0,1264.428,8281.8Z" transform="translate(-1255.952 -8251.355)" fill="#ffab00"/>
                    <path id="Path_15250" data-name="Path 15250" d="M1255.492,8239.618c-.245-1.167-1.093-1.964-1.891-1.782s-1.25,1.275-1,2.441,1.093,1.964,1.892,1.784S1255.737,8240.785,1255.492,8239.618Z" transform="translate(-1247.977 -8220.327)" fill="#2d356b"/>
                    <path id="Path_15251" data-name="Path 15251" d="M1253.356,8239.371c-1.414-1.428-3.309-2.764-6.193-1.152A11.387,11.387,0,0,1,1253.356,8239.371Z" transform="translate(-1244.161 -8220.095)" fill="#2d356b"/>
                    <path id="Path_15252" data-name="Path 15252" d="M1257.03,8300.228c-.1-.265-.766.848-1.157.951-1.108.292-.536,1.669.549,1.263C1256.845,8302.283,1257.133,8300.5,1257.03,8300.228Z" transform="translate(-1249.929 -8264.69)" fill="#f36973"/>
                    <path id="Path_15253" data-name="Path 15253" d="M1252.98,8283.406c.708-.436-4.69-1.016-3.454.564C1249.927,8284.25,1252.617,8283.629,1252.98,8283.406Z" transform="translate(-1245.71 -8252.419)" fill="#f36973"/>
                    <path id="Path_15254" data-name="Path 15254" d="M1243.515,8218.847c1.836-.718,5.917-1.776,9,2.859C1249.761,8219.052,1247.839,8218.216,1243.515,8218.847Z" transform="translate(-1241.567 -8206.384)" fill="#2d356b"/>
                    <path id="Path_15255" data-name="Path 15255" d="M1238.136,8258.478l2.722.337-1.062-6.615-3.028,5.373Z" transform="translate(-1236.768 -8230.56)" fill="#ffd8a3"/>
                    <path id="Path_15256" data-name="Path 15256" d="M1242.775,8276.02l-2.724-3.734,1.927-.408Z" transform="translate(-1239.103 -8244.556)" fill="#ffd8a3"/>
                    <path id="Path_15257" data-name="Path 15257" d="M1251.115,8289.363a49.512,49.512,0,0,1-2.277-5.506l4.666-.816S1253.443,8288.144,1251.115,8289.363Z" transform="translate(-1245.353 -8252.494)" fill="#ffab00"/>
                    <path id="Path_15258" data-name="Path 15258" d="M1253.338,8286.877l-2.658.465c-.28-.691-.554-1.42-.821-2.178l3.813-.666Z" transform="translate(-1246.078 -8253.532)" fill="#fff"/>
                    <path id="Path_15259" data-name="Path 15259" d="M1319.72,8240.363c-.462-2.018-1.413-3.4.117-3.744s3.151,1.008,3.612,3.025-.409,3.938-1.943,4.285S1320.18,8242.381,1319.72,8240.363Z" transform="translate(-1295.254 -8219.439)" fill="#f7c371"/>
                  </g>
                  <path id="Path_15260" data-name="Path 15260" d="M1257.318,8167.653c1.907,4.665,7.3,16.36,14.52,17.671,0,0,2.455-11.374-4.56-14.383C1258.422,8167.138,1257.318,8167.653,1257.318,8167.653Z" transform="translate(-1251.383 -8167.629)" fill="#fff4ba"/>
                </g>
              </g>
            </g>
          </g>
        </g>
        <g id="Group_13931" data-name="Group 13931" transform="translate(90.102 77.364)">
          <rect id="Rectangle_903" data-name="Rectangle 903" width="52.17" height="31.988" rx="6.672" fill="#fff" stroke="#231f20" stroke-miterlimit="10" stroke-width="0.25"/>
          <text id="Helen" transform="translate(12.585 19.494)" fill="#2d356b" font-size="10" font-family="TrebuchetMS-Bold, Trebuchet MS" font-weight="700"><tspan x="0" y="0">Helen</tspan></text>
        </g>
      </g>
      <g id="Group_13933" data-name="Group 13933" transform="translate(7.599 122.688)">
        <path id="Path_15261" data-name="Path 15261" d="M732.013,8583.9,407.8,8580.455l7.906,40.258H724.622Z" transform="translate(-393.171 -8577.878)" fill="#2d356b"/>
        <path id="Path_15262" data-name="Path 15262" d="M707.243,8571.531h-350.1l5.1,9.214,341.6-3.071Z" transform="translate(-357.141 -8571.531)" fill="#7b88ac"/>
      </g>
    </g>
  </g>
</svg>
