<svg xmlns="http://www.w3.org/2000/svg" width="367.426" height="162.584" viewBox="0 0 367.426 162.584">
  <g id="Group_14448" data-name="Group 14448" transform="translate(-128.574 -3635)">
    <g id="Group_14372" data-name="Group 14372" transform="translate(-213.876 118.526)">
      <g id="Group_14341" data-name="Group 14341" transform="translate(415.596 3529.098)">
        <rect id="Rectangle_4748" data-name="Rectangle 4748" width="91.357" height="91.357" transform="translate(0)" fill="none" stroke="#cfd0d8" stroke-miterlimit="10" stroke-width="1"/>
        <g id="Group_14340" data-name="Group 14340" transform="translate(12.225 8.415)">
          <g id="Group_14338" data-name="Group 14338" transform="translate(1.565)">
            <path id="Path_20555" data-name="Path 20555" d="M880.084,4516.318v10.211h6.093v38.287H874.542v-48.5Z" transform="translate(-837.148 -4516.318)" fill="#cfd0d8"/>
            <path id="Path_20556" data-name="Path 20556" d="M893.519,4644.3h21.353v-19.827H900.043l-6.524,5.979Z" transform="translate(-851.095 -4595.807)" fill="#9999a5"/>
            <rect id="Rectangle_4749" data-name="Rectangle 4749" width="1.72" height="2.874" transform="translate(45.621 11.93)" fill="#fff"/>
            <rect id="Rectangle_4750" data-name="Rectangle 4750" width="1.726" height="2.874" transform="translate(42.174 11.93)" fill="#fff"/>
            <rect id="Rectangle_4751" data-name="Rectangle 4751" width="1.718" height="2.874" transform="translate(38.739 11.93)" fill="#fff"/>
            <rect id="Rectangle_4752" data-name="Rectangle 4752" width="1.72" height="2.863" transform="translate(45.621 18.106)" fill="#fff"/>
            <rect id="Rectangle_4753" data-name="Rectangle 4753" width="1.726" height="2.863" transform="translate(42.174 18.106)" fill="#fff"/>
            <rect id="Rectangle_4754" data-name="Rectangle 4754" width="1.718" height="2.863" transform="translate(38.739 18.106)" fill="#fff"/>
            <rect id="Rectangle_4755" data-name="Rectangle 4755" width="1.72" height="2.874" transform="translate(45.621 24.276)" fill="#fff"/>
            <rect id="Rectangle_4756" data-name="Rectangle 4756" width="1.726" height="2.874" transform="translate(42.174 24.276)" fill="#fff"/>
            <rect id="Rectangle_4757" data-name="Rectangle 4757" width="1.718" height="2.874" transform="translate(38.739 24.276)" fill="#fff"/>
            <path id="Path_20557" data-name="Path 20557" d="M739.081,4550.776v-24.247h13.906v-10.211H770.87v48.5H733.477v-14.04Z" transform="translate(-733.477 -4516.318)" fill="#9999a5"/>
            <rect id="Rectangle_4758" data-name="Rectangle 4758" width="1.331" height="30.653" transform="translate(33.952 2.916)" fill="#fff"/>
            <rect id="Rectangle_4759" data-name="Rectangle 4759" width="1.323" height="30.653" transform="translate(31.298 2.916)" fill="#fff"/>
            <rect id="Rectangle_4760" data-name="Rectangle 4760" width="1.331" height="30.653" transform="translate(28.641 2.916)" fill="#fff"/>
            <rect id="Rectangle_4761" data-name="Rectangle 4761" width="1.328" height="30.653" transform="translate(25.981 2.916)" fill="#fff"/>
            <rect id="Rectangle_4762" data-name="Rectangle 4762" width="1.715" height="1.781" transform="translate(8.709 36.49)" fill="#fff"/>
            <rect id="Rectangle_4763" data-name="Rectangle 4763" width="1.715" height="1.776" transform="translate(8.709 40.323)" fill="#fff"/>
            <rect id="Rectangle_4764" data-name="Rectangle 4764" width="7.563" height="14.04" transform="translate(13.934 34.458)" fill="#cfd0d8"/>
          </g>
          <g id="Group_14339" data-name="Group 14339" transform="translate(0 55.55)">
            <rect id="Rectangle_4765" data-name="Rectangle 4765" width="72.838" height="22.977" rx="6.672" transform="translate(-5)" fill="#fff" stroke="#231f20" stroke-miterlimit="10" stroke-width="0.25"/>
            <text id="SUPPLIER_A" data-name="SUPPLIER A" transform="translate(6.426 15.274)" fill="#2d356b" font-size="10" font-family="TrebuchetMS-Bold, Trebuchet MS" font-weight="700"><tspan x="0" y="0">SUPPLIER A</tspan></text>
          </g>
        </g>
      </g>
      <g id="Group_14345" data-name="Group 14345" transform="translate(510.77 3529.098)">
        <rect id="Rectangle_4766" data-name="Rectangle 4766" width="91.357" height="91.357" transform="translate(0)" fill="none" stroke="#cfd0d8" stroke-miterlimit="10" stroke-width="1"/>
        <g id="Group_14344" data-name="Group 14344" transform="translate(12.225 8.415)">
          <g id="Group_14342" data-name="Group 14342" transform="translate(1.565)">
            <path id="Path_20558" data-name="Path 20558" d="M1239.125,4516.318v10.211h6.093v38.287h-11.635v-48.5Z" transform="translate(-1196.189 -4516.318)" fill="#cfd0d8"/>
            <path id="Path_20559" data-name="Path 20559" d="M1252.56,4644.3h21.353v-19.827h-14.829l-6.524,5.979Z" transform="translate(-1210.136 -4595.807)" fill="#9999a5"/>
            <rect id="Rectangle_4767" data-name="Rectangle 4767" width="1.72" height="2.874" transform="translate(45.621 11.93)" fill="#fff"/>
            <rect id="Rectangle_4768" data-name="Rectangle 4768" width="1.726" height="2.874" transform="translate(42.174 11.93)" fill="#fff"/>
            <rect id="Rectangle_4769" data-name="Rectangle 4769" width="1.718" height="2.874" transform="translate(38.739 11.93)" fill="#fff"/>
            <rect id="Rectangle_4770" data-name="Rectangle 4770" width="1.72" height="2.863" transform="translate(45.621 18.106)" fill="#fff"/>
            <rect id="Rectangle_4771" data-name="Rectangle 4771" width="1.726" height="2.863" transform="translate(42.174 18.106)" fill="#fff"/>
            <rect id="Rectangle_4772" data-name="Rectangle 4772" width="1.718" height="2.863" transform="translate(38.739 18.106)" fill="#fff"/>
            <rect id="Rectangle_4773" data-name="Rectangle 4773" width="1.72" height="2.874" transform="translate(45.621 24.276)" fill="#fff"/>
            <rect id="Rectangle_4774" data-name="Rectangle 4774" width="1.726" height="2.874" transform="translate(42.174 24.276)" fill="#fff"/>
            <rect id="Rectangle_4775" data-name="Rectangle 4775" width="1.718" height="2.874" transform="translate(38.739 24.276)" fill="#fff"/>
            <path id="Path_20560" data-name="Path 20560" d="M1098.122,4550.776v-24.247h13.906v-10.211h17.884v48.5h-37.394v-14.04Z" transform="translate(-1092.518 -4516.318)" fill="#9999a5"/>
            <rect id="Rectangle_4776" data-name="Rectangle 4776" width="1.331" height="30.653" transform="translate(33.952 2.916)" fill="#fff"/>
            <rect id="Rectangle_4777" data-name="Rectangle 4777" width="1.323" height="30.653" transform="translate(31.298 2.916)" fill="#fff"/>
            <rect id="Rectangle_4778" data-name="Rectangle 4778" width="1.331" height="30.653" transform="translate(28.641 2.916)" fill="#fff"/>
            <rect id="Rectangle_4779" data-name="Rectangle 4779" width="1.328" height="30.653" transform="translate(25.981 2.916)" fill="#fff"/>
            <rect id="Rectangle_4780" data-name="Rectangle 4780" width="1.715" height="1.781" transform="translate(8.709 36.49)" fill="#fff"/>
            <rect id="Rectangle_4781" data-name="Rectangle 4781" width="1.715" height="1.776" transform="translate(8.709 40.323)" fill="#fff"/>
            <rect id="Rectangle_4782" data-name="Rectangle 4782" width="7.563" height="14.04" transform="translate(13.934 34.458)" fill="#cfd0d8"/>
          </g>
          <g id="Group_14343" data-name="Group 14343" transform="translate(-1 55.55)">
            <rect id="Rectangle_4783" data-name="Rectangle 4783" width="71.296" height="22.977" rx="6.672" transform="translate(-1 1)" fill="#fff" stroke="#231f20" stroke-miterlimit="10" stroke-width="0.25"/>
            <text id="SUPPLIER_B" data-name="SUPPLIER B" transform="translate(8.426 16.274)" fill="#2d356b" font-size="10" font-family="TrebuchetMS-Bold, Trebuchet MS" font-weight="700"><tspan x="0" y="0">SUPPLIER B</tspan></text>
          </g>
        </g>
      </g>
      <g id="Group_14364" data-name="Group 14364" transform="translate(342.45 3531.653)">
        <g id="Group_14351" data-name="Group 14351" transform="translate(8.839)">
          <g id="Group_14350" data-name="Group 14350">
            <path id="Path_20564" data-name="Path 20564" d="M446.8,4573c-5.42-6.409,1.042-10.376.369-17.02s-6.312-4.364-7.5-12.936,3.929-11.024,3.979-16.024-6.792-6.044-4.2-12.394,7.344-6.416,9.62-11.471,9.306-8.03,13.331-5.842,8.512-6.268,15.588-1.758,6.628,13.8,8.837,18.987,9.187,7.21,10.477,16.513-3.707,7.254-1.33,13.661,8.5,5.808,9.788,15.113c0,0,1.047,9.336-8.927,8.973s-6.726,5.176-17.627,1.7-7.043,6.467-14.746,2.793S453.034,4580.374,446.8,4573Z" transform="translate(-438.861 -4494.214)" fill="#2d356b"/>
          </g>
        </g>
        <g id="Group_14353" data-name="Group 14353" transform="translate(0 63.832)">
          <path id="Path_20565" data-name="Path 20565" d="M432.937,4735.357c-6.76-4.665-27.325,39.991-27.419,41.738,0,0,3.676,5.039,5.25,3.713C414.839,4777.377,435.956,4737.44,432.937,4735.357Z" transform="translate(-405.518 -4735.016)" fill="#fff4ba"/>
          <g id="Group_14352" data-name="Group 14352" transform="translate(24.446 61.229)">
            <path id="Path_20566" data-name="Path 20566" d="M497.738,4968.4c3.219,2.75,5.328,12.963,8.593,11.238,2.926-1.545,5.34-8.354-6.353-13.636Z" transform="translate(-497.738 -4965.999)" fill="#ffd9a4"/>
            <path id="Path_20567" data-name="Path 20567" d="M517.807,4980.355c-5.338,2.4-2.391,8.892-.991,10.721,1.54,2.011,6.094,1.3,7.152-.419S519.849,4979.441,517.807,4980.355Z" transform="translate(-510.229 -4976.504)" fill="#ffd9a4"/>
            <path id="Path_20568" data-name="Path 20568" d="M531.2,4988.183c3.287,1.048,7.548.665,7.606-.654.068-1.488-3.533-.47-6.255-2.128-2.951-1.791-4.9-2.76-5.65-1.66S527.91,4987.138,531.2,4988.183Z" transform="translate(-519.045 -4978.696)" fill="#ffd9a4"/>
            <path id="Path_20569" data-name="Path 20569" d="M543.424,5005.795c1.81,2.337,3.292,3.142,3.856,2.591s-.548-1.818-2.352-4.156-3.521-5.756-4.086-5.206S541.624,5003.455,543.424,5005.795Z" transform="translate(-529.319 -4990.226)" fill="#ffd9a4"/>
            <path id="Path_20570" data-name="Path 20570" d="M535.738,5016.907c1.328,2.707,3.678,4.457,4.33,4.039s-1.159-2.611-2.488-5.318-2.335-4.388-2.986-3.968S534.411,5014.2,535.738,5016.907Z" transform="translate(-524.61 -4999.509)" fill="#ffd9a4"/>
            <path id="Path_20571" data-name="Path 20571" d="M520.7,5013.879c1.436,2.649,2.836,3.8,3.475,3.367s-.635-2-2.07-4.649-2.478-4.483-3.119-4.046S519.269,5011.229,520.7,5013.879Z" transform="translate(-513.204 -4997.224)" fill="#ffd9a4"/>
          </g>
          <path id="Path_20572" data-name="Path 20572" d="M433.8,4907.8c4.717-4.1-22.143-25.2-23.419-25.6,0,0-4.416,1.767-3.729,3.167C408.43,4889,431.694,4909.633,433.8,4907.8Z" transform="translate(-406.299 -4843.19)" fill="#fff4ba"/>
          <path id="Path_20573" data-name="Path 20573" d="M489.072,4968.351l-1.643,1.1-7.091-2.49s2.444-2.5,3.286-2.691S489.072,4968.351,489.072,4968.351Z" transform="translate(-460.505 -4903.493)" fill="#eaeaea"/>
          <path id="Path_20574" data-name="Path 20574" d="M501,4956.057l1.061-1.682-2.755-7s-2.458,2.532-2.624,3.38S501,4956.057,501,4956.057Z" transform="translate(-472.509 -4891.083)" fill="#eaeaea"/>
        </g>
        <g id="Group_14355" data-name="Group 14355" transform="translate(48.466 63.538)">
          <g id="Group_14354" data-name="Group 14354" transform="translate(9.677 60.345)">
            <path id="Path_20575" data-name="Path 20575" d="M633.879,4993.693c-.378-.5.45-1.273,1.506-2s1.938-1.139,2.319-.639-.168,1.5-1.226,2.226S634.258,4994.194,633.879,4993.693Z" transform="translate(-631.419 -4983.071)" fill="#f7c371"/>
            <path id="Path_20576" data-name="Path 20576" d="M639.539,4997.355c-.38-.5.45-1.273,1.507-2s1.937-1.142,2.318-.641-.169,1.5-1.226,2.226S639.92,4997.854,639.539,4997.355Z" transform="translate(-635.579 -4985.762)" fill="#f7c371"/>
            <path id="Path_20577" data-name="Path 20577" d="M624.985,4988.947c.447-.459,1.8.495,3.2,1.718s2.329,2.249,1.881,2.71-1.946-.158-3.35-1.382S624.537,4989.407,624.985,4988.947Z" transform="translate(-624.858 -4981.6)" fill="#ffd8a3"/>
            <path id="Path_20578" data-name="Path 20578" d="M633.869,4961.555c-2.194,1.66-9.5,6.352-7.918,8.853,1.413,2.238,6.292,2.913,9.99-7.272Z" transform="translate(-625.499 -4961.555)" fill="#ffd8a3"/>
          </g>
          <path id="Path_20579" data-name="Path 20579" d="M588.467,4734.679c5.045-6.482,38.087,29.924,38.7,31.562,0,0-1.991,5.911-3.89,5.119C618.363,4769.312,586.215,4737.573,588.467,4734.679Z" transform="translate(-588.354 -4733.906)" fill="#fff4ba"/>
          <path id="Path_20580" data-name="Path 20580" d="M658.447,4880.952c-5.731-2.492,13.54-30.7,14.638-31.452,0,0,4.742.358,4.508,1.9C676.989,4855.388,661.006,4882.064,658.447,4880.952Z" transform="translate(-639.086 -4818.858)" fill="#fff4ba"/>
          <path id="Path_20581" data-name="Path 20581" d="M657.834,4954.9l1.9.553,6.015-4.507s-3.083-1.649-3.943-1.578S657.834,4954.9,657.834,4954.9Z" transform="translate(-639.416 -4892.25)" fill="#eaeaea"/>
          <path id="Path_20582" data-name="Path 20582" d="M654.054,4946.2l-1.518-1.285.522-7.5s3.105,1.675,3.519,2.435S654.054,4946.2,654.054,4946.2Z" transform="translate(-635.523 -4883.467)" fill="#eaeaea"/>
        </g>
        <g id="Group_14356" data-name="Group 14356" transform="translate(15.547 44.613)">
          <path id="Path_20583" data-name="Path 20583" d="M464.167,4791.539s10.038,8.891,20.076,12.225l5.228-11.3,4.81,11.3s13.569-3.823,19.03-12.225c-11.058-16.033-15.426-29.411-3.959-46.1,0,0-4.616-29.843-21.345-30.583s-19.711,31.812-19.711,31.812C479.171,4762.966,482.732,4770.045,464.167,4791.539Z" transform="translate(-464.167 -4700.971)" fill="#ffe200"/>
          <path id="Path_20584" data-name="Path 20584" d="M527.938,4728.787a10.13,10.13,0,0,1,6.481,2.338c1.7-3.857,2.828-8.6,1.618-13.446-10.184-7.657-16.461.795-16.461.795s-1.334,5.274,2.257,12.367A10.114,10.114,0,0,1,527.938,4728.787Z" transform="translate(-504.711 -4700.698)" fill="#fff"/>
          <path id="Path_20585" data-name="Path 20585" d="M530.839,4717.062s-1.694,8.5,6.008,17.719c0,0,6.547-8.974,4.7-18.376C534.921,4710.076,530.839,4717.062,530.839,4717.062Z" transform="translate(-513.049 -4700.17)" fill="#f7c371"/>
          <rect id="Rectangle_4802" data-name="Rectangle 4802" width="8.737" height="16.378" transform="translate(18.839)" fill="#f7c371"/>
          <path id="Path_20586" data-name="Path 20586" d="M562.925,4865.1a1.229,1.229,0,1,0-1.229,1.229A1.228,1.228,0,0,0,562.925,4865.1Z" transform="translate(-534.94 -4810.493)" fill="#fff"/>
          <path id="Path_20587" data-name="Path 20587" d="M562.925,4901.317a1.229,1.229,0,1,0-1.229,1.229A1.228,1.228,0,0,0,562.925,4901.317Z" transform="translate(-534.94 -4837.112)" fill="#fff"/>
          <path id="Path_20588" data-name="Path 20588" d="M562.925,4973.758a1.229,1.229,0,1,0-1.229,1.228A1.228,1.228,0,0,0,562.925,4973.758Z" transform="translate(-534.94 -4890.35)" fill="#fff"/>
          <path id="Path_20589" data-name="Path 20589" d="M562.925,4937.538a1.229,1.229,0,1,0-1.229,1.229A1.228,1.228,0,0,0,562.925,4937.538Z" transform="translate(-534.94 -4863.731)" fill="#fff"/>
        </g>
        <g id="Group_14360" data-name="Group 14360" transform="translate(20.988 14.364)">
          <g id="Group_14358" data-name="Group 14358">
            <path id="Path_20590" data-name="Path 20590" d="M504.426,4587.689c-5.412.928-20.133-11.775-18.214-30.816.389-3.849,4.02-6.647,11.571-7.942,8.306-1.423,12.491.171,13.606,3.043C519.275,4572.279,509.964,4586.74,504.426,4587.689Z" transform="translate(-485.684 -4548.402)" fill="#ffd8a3"/>
            <path id="Path_20591" data-name="Path 20591" d="M486.925,4629.719c-.46-1.149-.467-2.145-1.315-1.806a2.014,2.014,0,0,0-.7,2.695c.459,1.148,1.519,1.8,2.367,1.465S487.385,4630.868,486.925,4629.719Z" transform="translate(-484.695 -4606.786)" fill="#f7c371"/>
            <path id="Path_20592" data-name="Path 20592" d="M592.992,4611.845c.021-1.237-.336-2.173.6-2.157a2.328,2.328,0,0,1-.073,4.485C592.581,4614.156,592.972,4613.085,592.992,4611.845Z" transform="translate(-564.213 -4593.443)" fill="#f7c371"/>
            <g id="Group_14357" data-name="Group 14357" transform="translate(15.419 20.114)">
              <path id="Path_20593" data-name="Path 20593" d="M542.887,4632.8a4.029,4.029,0,0,0,1.736.4,2.335,2.335,0,0,0,1.494-1.019c0-.459-2.039-5.23-2.467-5.2S542.745,4632.16,542.887,4632.8Z" transform="translate(-542.862 -4626.261)" fill="#ffab00"/>
              <path id="Path_20594" data-name="Path 20594" d="M544.44,4629.8c.019.1.526.178.7.149.29-.05.614-.258.6-.441-.046-.439-.662-5.418-1.528-5.221C543.253,4624.5,544.321,4629.169,544.44,4629.8Z" transform="translate(-543.561 -4624.28)" fill="#ffd8a3"/>
            </g>
          </g>
          <g id="Group_14359" data-name="Group 14359" transform="translate(3.496 10.217)">
            <path id="Path_20595" data-name="Path 20595" d="M546.586,4659.49c-2.046-1.223-2.843-.1-3.248.038-.428.145-1.466-.545-2.45,1.2-.3.532,1.229.033,2.816-.257S547.111,4659.8,546.586,4659.49Z" transform="translate(-529.461 -4639.844)" fill="#f36973"/>
            <path id="Path_20596" data-name="Path 20596" d="M549.245,4668.459c-.1-.6-1.065-.379-2.319-.164s-2.322.339-2.218.941,1.2.917,2.454.7S549.348,4669.062,549.245,4668.459Z" transform="translate(-532.291 -4646.564)" fill="#f36973"/>
            <path id="Path_20597" data-name="Path 20597" d="M554.821,4589.541c-1.936-1.3-6.23-3.822-9.405-1.9C548.272,4586.97,550.276,4587.217,554.821,4589.541Z" transform="translate(-532.816 -4586.943)" fill="#2d356b"/>
            <path id="Path_20598" data-name="Path 20598" d="M497.885,4593.989c1.254-1.933,4.208-5.924,8.179-5.808C502.992,4588.933,501.173,4590.044,497.885,4593.989Z" transform="translate(-497.885 -4587.851)" fill="#2d356b"/>
            <path id="Path_20599" data-name="Path 20599" d="M562.883,4610.354a1.522,1.522,0,1,0-.828,2.257A1.722,1.722,0,0,0,562.883,4610.354Z" transform="translate(-543.504 -4603.111)" fill="#2d356b"/>
            <path id="Path_20600" data-name="Path 20600" d="M560.34,4605.378c-1.46.15-3.07.662-3.326,3.406A7.941,7.941,0,0,1,560.34,4605.378Z" transform="translate(-541.34 -4600.492)" fill="#2d356b"/>
            <path id="Path_20601" data-name="Path 20601" d="M514.608,4619.321a1.522,1.522,0,1,1,2.147,1.083A1.721,1.721,0,0,1,514.608,4619.321Z" transform="translate(-510.007 -4608.934)" fill="#2d356b"/>
            <path id="Path_20602" data-name="Path 20602" d="M510.967,4616.961c.151-1.659.676-3.5,3.506-3.849A8.877,8.877,0,0,0,510.967,4616.961Z" transform="translate(-507.499 -4606.175)" fill="#2d356b"/>
            <path id="Path_20603" data-name="Path 20603" d="M537.277,4662.131a8.735,8.735,0,0,1,3.614-1.549c1.284-.276,3.386-.941,3.787-.51,0,0,.952,2.142-3.333,3.1C538.393,4663.911,537.277,4662.131,537.277,4662.131Z" transform="translate(-526.835 -4640.583)" fill="#ffab00"/>
            <path id="Path_20604" data-name="Path 20604" d="M545.338,4660.687c-.554-.206-1.631.162-3.345.525a5.444,5.444,0,0,0-3,1.39C540.469,4662.763,544.113,4662.066,545.338,4660.687Z" transform="translate(-528.095 -4641.095)" fill="#fff"/>
            <path id="Path_20605" data-name="Path 20605" d="M564.466,4659.346a.305.305,0,1,0-.238.4A.33.33,0,0,0,564.466,4659.346Z" transform="translate(-546.375 -4639.932)" fill="#ffab00"/>
            <ellipse id="Ellipse_122" data-name="Ellipse 122" cx="0.328" cy="0.382" rx="0.328" ry="0.382" transform="translate(9.964 21.133) rotate(-9.725)" fill="#ffab00"/>
          </g>
        </g>
        <g id="Group_14363" data-name="Group 14363" transform="translate(20.633 10.412)">
          <g id="Group_14362" data-name="Group 14362" transform="translate(9.786)">
            <path id="Path_20606" data-name="Path 20606" d="M539.586,4544.844c-4.987-1.143-17.527-4.52-19.316-10.454,0,0,11.753-3.175,15.3,2.417C540.06,4543.867,539.586,4544.844,539.586,4544.844Z" transform="translate(-520.27 -4533.492)" fill="#2d356b"/>
            <g id="Group_14361" data-name="Group 14361" transform="translate(1.159 2.883)">
              <path id="Path_20607" data-name="Path 20607" d="M535.74,4552.892c1.245,1.364,8.168,5.588,12.724,6.588S535.74,4552.892,535.74,4552.892Z" transform="translate(-532.798 -4550.632)" fill="#2d356b"/>
              <path id="Path_20608" data-name="Path 20608" d="M524.642,4544.369a22.849,22.849,0,0,0,5.8,6.79C532.839,4552.8,524.642,4544.369,524.642,4544.369Z" transform="translate(-524.642 -4544.369)" fill="#2d356b"/>
            </g>
          </g>
          <path id="Path_20609" data-name="Path 20609" d="M483.456,4562.06c3.541-2.326,12.318-8.66,12.235-14.831,0,0-9.78-.188-11.13,6.084C482.855,4561.231,483.456,4562.06,483.456,4562.06Z" transform="translate(-483.354 -4543.587)" fill="#2d356b"/>
        </g>
      </g>
      <g id="Group_14349" data-name="Group 14349" transform="translate(605.945 3529.098)">
        <rect id="Rectangle_4784" data-name="Rectangle 4784" width="91.357" height="91.357" transform="translate(0)" fill="none" stroke="#cfd0d8" stroke-miterlimit="10" stroke-width="1"/>
        <g id="Group_14348" data-name="Group 14348" transform="translate(12.225 8.415)">
          <g id="Group_14346" data-name="Group 14346" transform="translate(1.565)">
            <path id="Path_20561" data-name="Path 20561" d="M1598.166,4516.318v10.211h6.093v38.287h-11.635v-48.5Z" transform="translate(-1555.23 -4516.318)" fill="#cfd0d8"/>
            <path id="Path_20562" data-name="Path 20562" d="M1611.6,4644.3h21.353v-19.827h-14.829l-6.524,5.979Z" transform="translate(-1569.177 -4595.807)" fill="#9999a5"/>
            <rect id="Rectangle_4785" data-name="Rectangle 4785" width="1.72" height="2.874" transform="translate(45.621 11.93)" fill="#fff"/>
            <rect id="Rectangle_4786" data-name="Rectangle 4786" width="1.726" height="2.874" transform="translate(42.174 11.93)" fill="#fff"/>
            <rect id="Rectangle_4787" data-name="Rectangle 4787" width="1.718" height="2.874" transform="translate(38.739 11.93)" fill="#fff"/>
            <rect id="Rectangle_4788" data-name="Rectangle 4788" width="1.72" height="2.863" transform="translate(45.621 18.106)" fill="#fff"/>
            <rect id="Rectangle_4789" data-name="Rectangle 4789" width="1.726" height="2.863" transform="translate(42.174 18.106)" fill="#fff"/>
            <rect id="Rectangle_4790" data-name="Rectangle 4790" width="1.718" height="2.863" transform="translate(38.739 18.106)" fill="#fff"/>
            <rect id="Rectangle_4791" data-name="Rectangle 4791" width="1.72" height="2.874" transform="translate(45.621 24.276)" fill="#fff"/>
            <rect id="Rectangle_4792" data-name="Rectangle 4792" width="1.726" height="2.874" transform="translate(42.174 24.276)" fill="#fff"/>
            <rect id="Rectangle_4793" data-name="Rectangle 4793" width="1.718" height="2.874" transform="translate(38.739 24.276)" fill="#fff"/>
            <path id="Path_20563" data-name="Path 20563" d="M1457.162,4550.776v-24.247h13.906v-10.211h17.884v48.5h-37.394v-14.04Z" transform="translate(-1451.558 -4516.318)" fill="#9999a5"/>
            <rect id="Rectangle_4794" data-name="Rectangle 4794" width="1.331" height="30.653" transform="translate(33.952 2.916)" fill="#fff"/>
            <rect id="Rectangle_4795" data-name="Rectangle 4795" width="1.323" height="30.653" transform="translate(31.298 2.916)" fill="#fff"/>
            <rect id="Rectangle_4796" data-name="Rectangle 4796" width="1.331" height="30.653" transform="translate(28.641 2.916)" fill="#fff"/>
            <rect id="Rectangle_4797" data-name="Rectangle 4797" width="1.328" height="30.653" transform="translate(25.981 2.916)" fill="#fff"/>
            <rect id="Rectangle_4798" data-name="Rectangle 4798" width="1.715" height="1.781" transform="translate(8.709 36.49)" fill="#fff"/>
            <rect id="Rectangle_4799" data-name="Rectangle 4799" width="1.715" height="1.776" transform="translate(8.709 40.323)" fill="#fff"/>
            <rect id="Rectangle_4800" data-name="Rectangle 4800" width="7.563" height="14.04" transform="translate(13.934 34.458)" fill="#cfd0d8"/>
          </g>
          <g id="Group_14347" data-name="Group 14347" transform="translate(0 55.55)">
            <rect id="Rectangle_4801" data-name="Rectangle 4801" width="69.838" height="21.977" rx="6.672" transform="translate(-2 2)" fill="#fff" stroke="#231f20" stroke-miterlimit="10" stroke-width="0.25"/>
            <text id="SUPPLIER_C" data-name="SUPPLIER C" transform="translate(6.426 16.274)" fill="#2d356b" font-size="10" font-family="TrebuchetMS-Bold, Trebuchet MS" font-weight="700"><tspan x="0" y="0">SUPPLIER C</tspan></text>
          </g>
        </g>
      </g>
    </g>
    <g id="Ellipse_123" data-name="Ellipse 123" transform="translate(379 3635)" fill="none" stroke="#f46973" stroke-width="5">
      <circle cx="58.5" cy="58.5" r="58.5" stroke="none"/>
      <circle cx="58.5" cy="58.5" r="56" fill="none"/>
    </g>
  </g>
</svg>
