<svg xmlns="http://www.w3.org/2000/svg" xmlns:xlink="http://www.w3.org/1999/xlink" width="300.355" height="225.803" viewBox="0 0 300.355 225.803">
  <defs>
    <linearGradient id="linear-gradient" x1="-0.485" y1="0.5" x2="0.515" y2="0.5" gradientUnits="objectBoundingBox">
      <stop offset="0" stop-color="#ffc074"/>
      <stop offset="1" stop-color="#ffb561"/>
    </linearGradient>
  </defs>
  <g id="Group_14368" data-name="Group 14368" transform="translate(-340.432 -2835.957)">
    <g id="Group_14148" data-name="Group 14148" transform="translate(340.432 2835.957)">
      <g id="Group_14139" data-name="Group 14139" transform="translate(0 173.777)">
        <g id="Group_14138" data-name="Group 14138" transform="translate(0 0)">
          <rect id="Rectangle_4725" data-name="Rectangle 4725" width="297.459" height="9.109" rx="1.391" transform="translate(297.459 9.109) rotate(-180)" fill="url(#linear-gradient)"/>
          <g id="Group_14137" data-name="Group 14137" transform="translate(12.301 9.109)">
            <path id="Path_20296" data-name="Path 20296" d="M1016.358,2325.614h20.929c4.061,0,7.353-3.7,7.353-8.274H1009C1009,2321.909,1012.3,2325.614,1016.358,2325.614Z" transform="translate(-771.613 -2317.34)" fill="#cfd0d8"/>
            <path id="Path_20297" data-name="Path 20297" d="M435.362,2325.614h20.929c4.061,0,7.353-3.7,7.353-8.274H428.009C428.009,2321.909,431.3,2325.614,435.362,2325.614Z" transform="translate(-428.009 -2317.34)" fill="#cfd0d8"/>
          </g>
        </g>
        <rect id="Rectangle_4726" data-name="Rectangle 4726" width="11.943" height="34.643" transform="translate(23.594 17.383)" fill="#cfd0d8"/>
      </g>
      <g id="Group_14140" data-name="Group 14140" transform="translate(29.788 12.999)">
        <rect id="Rectangle_4727" data-name="Rectangle 4727" width="39.413" height="1.466" transform="translate(122.633 160.773) rotate(180)" fill="#ebebeb"/>
        <path id="Path_20298" data-name="Path 20298" d="M672.319,2197.579l39.906,39.906,25.654-.09-1.461-1.461-38.372-38.354Z" transform="translate(-589.983 -2076.627)" fill="#9999a5"/>
        <path id="Path_20299" data-name="Path 20299" d="M733.466,2237.4l-39.821-39.821H667.919l39.905,39.905Z" transform="translate(-587.38 -2076.627)" fill="#ebebeb"/>
        <path id="Rectangle_4728" data-name="Rectangle 4728" d="M3.772,0H194.121a3.772,3.772,0,0,1,3.772,3.772V139.4a3.772,3.772,0,0,1-3.772,3.772H5.61A5.61,5.61,0,0,1,0,137.559V3.772A3.772,3.772,0,0,1,3.772,0Z" transform="translate(200.106 143.169) rotate(180)" fill="#cfd0d8"/>
        <path id="Path_20300" data-name="Path 20300" d="M470.808,1912.5v107.9l1.16,13.1c0,6.036,4.39,10.223,10.449,10.223h175.5c6.037,0,9.7-4.563,9.7-10.6l1.087-12.723V1912.5a10.956,10.956,0,0,0-10.945-10.945H481.775A10.961,10.961,0,0,0,470.808,1912.5Z" transform="translate(-470.808 -1901.559)" fill="#7b88ac"/>
        <rect id="Rectangle_4729" data-name="Rectangle 4729" width="186.838" height="111.845" transform="translate(5.749 7.002)" fill="#fff"/>
      </g>
      <g id="Group_14141" data-name="Group 14141" transform="translate(160.766 53.436)">
        <rect id="Rectangle_4730" data-name="Rectangle 4730" width="15.531" height="28.927" transform="translate(38.34)" fill="#f7c371"/>
        <path id="Path_20301" data-name="Path 20301" d="M878.72,2184.769c-36.778,27.031-74.244,18.905-87.357,0,35.333-48-15.31-125.217,44.98-127.72C894.421,2054.638,840.979,2143.829,878.72,2184.769Z" transform="translate(-791.363 -2033.925)" fill="#c2e7e5"/>
      </g>
      <rect id="Rectangle_4731" data-name="Rectangle 4731" width="94.748" height="4.56" transform="translate(81.127 170.901)" fill="#40558e"/>
      <g id="Group_14146" data-name="Group 14146" transform="translate(91.218 99.911)">
        <g id="Group_14144" data-name="Group 14144" transform="translate(0 62.293)">
          <g id="Group_14142" data-name="Group 14142" transform="translate(12.286 2.483)">
            <path id="Path_20302" data-name="Path 20302" d="M675.853,2281.027c-5.071,5.277-10.246,4.2-11.175,2.667-.32-.526,4.324-3.8,9.482-10.64C675.353,2271.474,679.021,2277.73,675.853,2281.027Z" transform="translate(-659.17 -2272.802)" fill="#f8c471"/>
            <path id="Path_20303" data-name="Path 20303" d="M657.17,2294.072c-3.224,1.55-6.448,2.249-5.885,3.418s3.983,1.163,7.207-.387,4.852-3.113,4.469-5.228C662.727,2290.578,660.4,2292.522,657.17,2294.072Z" transform="translate(-651.22 -2283.831)" fill="#f8c471"/>
          </g>
          <g id="Group_14143" data-name="Group 14143">
            <path id="Path_20304" data-name="Path 20304" d="M683.533,2286.243c-11.185-7.633-24.242.37-23.723-6,.462-5.7,9.642-14.184,26.009.806Z" transform="translate(-644.005 -2270.222)" fill="#ffd9a4"/>
            <path id="Path_20305" data-name="Path 20305" d="M668.668,2272.834c-.727,6.834-12.508,9.864-16.373,8.885-4.245-1.079-6.217-8.8-4.206-11.656S669.078,2268.986,668.668,2272.834Z" transform="translate(-636.614 -2267.868)" fill="#ffd9a4"/>
            <path id="Path_20306" data-name="Path 20306" d="M629.043,2290.217c-4.341.98-8.177,2.739-7.876,4.073s3.847.73,8.819-.44c3.411-.8,9.916-.351,9.617-1.687S634.026,2289.093,629.043,2290.217Z" transform="translate(-621.15 -2280.405)" fill="#ffd9a4"/>
            <path id="Path_20307" data-name="Path 20307" d="M641.247,2277.992c-2.782.179-3.674,1.441-3.04,2.609s2.324.616,5.107.437,4.47-.542,3.834-1.711S644.03,2277.816,641.247,2277.992Z" transform="translate(-631.123 -2273.363)" fill="#ffd9a4"/>
            <path id="Path_20308" data-name="Path 20308" d="M628,2282.57c2.648-.872,3.195-2.318,2.287-3.29s-2.4-.012-5.053.859-4.191,1.646-3.282,2.618S625.354,2283.438,628,2282.57Z" transform="translate(-621.472 -2273.909)" fill="#ffd9a4"/>
            <path id="Path_20309" data-name="Path 20309" d="M647.289,2266.727c-2.787-.038-3.774,1.153-3.232,2.367s2.269.793,5.057.83,4.5-.194,3.954-1.409S650.077,2266.766,647.289,2266.727Z" transform="translate(-634.613 -2266.726)" fill="#ffd9a4"/>
            <path id="Path_20310" data-name="Path 20310" d="M633.578,2270.686c2.707-.664,3.364-2.062,2.535-3.1s-2.4-.2-5.1.466-4.306,1.318-3.475,2.355S630.869,2271.347,633.578,2270.686Z" transform="translate(-624.795 -2266.944)" fill="#ffd9a4"/>
          </g>
        </g>
        <path id="Path_20311" data-name="Path 20311" d="M817.473,2115.026c16.6-10.638,24.535,94.221,19.677,97.445,0,0-10.475-.76-13.3-4.823C815.309,2195.371,810.062,2119.774,817.473,2115.026Z" transform="translate(-735.164 -2114.269)" fill="#cecfd7"/>
        <g id="Group_14145" data-name="Group 14145" transform="translate(28.375 64.955)">
          <path id="Path_20312" data-name="Path 20312" d="M704.036,2286.219c-2.721,15.253,64.624,28.291,67.7,27.08,0,0,5.773-10.26,2.265-11.915C764.926,2297.1,705.251,2279.407,704.036,2286.219Z" transform="translate(-698.497 -2280.003)" fill="#cecfd7"/>
          <path id="Path_20313" data-name="Path 20313" d="M691.344,2278.655l2.214-3.914,17.576-1.5s-2.328,7.674-3.875,8.887S691.344,2278.655,691.344,2278.655Z" transform="translate(-691.038 -2273.24)" fill="#eaeaea"/>
          <path id="Path_20314" data-name="Path 20314" d="M690.944,2285.691l-.348,4.605,13.525,12.271s2.321-7.757,1.727-9.724S690.944,2285.691,690.944,2285.691Z" transform="translate(-690.596 -2280.604)" fill="#eaeaea"/>
        </g>
      </g>
      <g id="Group_14147" data-name="Group 14147" transform="translate(151.392 0)">
        <path id="Path_20315" data-name="Path 20315" d="M773.6,2000.476c-7.884-12.463,4.318-17.806,4.75-29.53s-9.931-9.119-9.931-24.322,9.5-18.237,10.794-26.924-10.362-12.16-4.317-22.583,14.329-9.391,19.51-17.64,18.133-11.728,24.609-6.947,16.327-8.853,27.552.7,8.2,25.623,10.795,35.177,14.247,14.765,14.247,31.266-8.2,11.728-5.613,23.452,13.384,12.159,13.384,28.664c0,0-.431,16.5-17.7,13.46s-12.954,7.383-31.085-1.3-13.818,9.554-26.337,1.3S782.669,2014.806,773.6,2000.476Z" transform="translate(-768.421 -1869.744)" fill="#2d356b"/>
      </g>
      <path id="Path_20316" data-name="Path 20316" d="M802.7,2098.708c3.045-7.8,34.084-13.781,49.694-14.934,44.755-3.3,67.408,4.148,64.712,14.934-20.173,80.759.885,99.873-14.733,115.483-8.707,8.7-148.433,10.451-132.844,1.766s24.283-13.921,26.024-46.9C797.3,2136.049,802.7,2098.708,802.7,2098.708Z" transform="translate(-616.969 -1995.856)" fill="#ffd9a4"/>
    </g>
    <g id="Group_14436" data-name="Group 14436" transform="translate(397.099 2860.455)">
      <g id="Group_14435" data-name="Group 14435" transform="translate(0)">
        <rect id="Rectangle_4813" data-name="Rectangle 4813" width="68.593" height="98.168" transform="translate(0 2.683)" fill="#9999a5"/>
        <path id="Path_20719" data-name="Path 20719" d="M358.489,6790.166l20.439,1.649-1.127,17.254h48.575v-96.787H358.489Z" transform="translate(-358.136 -6709.341)" fill="#fff"/>
        <path id="Path_20720" data-name="Path 20720" d="M469.827,6697.056H489.99s3.088.553,2.906,2.683H466.92C466.739,6697.609,469.827,6697.056,469.827,6697.056Z" transform="translate(-445.611 -6697.056)" fill="#7b88ac"/>
        <path id="Path_20721" data-name="Path 20721" d="M377.8,7134.3l-19.316-18.9,20.441,1.646Z" transform="translate(-358.13 -7034.571)" fill="#c1c1c1"/>
        <path id="Path_20722" data-name="Path 20722" d="M358.481,7115.4l19.316,18.9v-18.9Z" transform="translate(-358.13 -7034.571)" fill="#fff4ba"/>
        <rect id="Rectangle_4814" data-name="Rectangle 4814" width="52.11" height="0.653" rx="0.326" transform="translate(8.243 41.855)" fill="#54ccca"/>
        <rect id="Rectangle_4815" data-name="Rectangle 4815" width="52.11" height="0.653" rx="0.326" transform="translate(8.243 44.479)" fill="#54ccca"/>
        <rect id="Rectangle_4816" data-name="Rectangle 4816" width="52.11" height="0.653" rx="0.326" transform="translate(8.243 47.104)" fill="#54ccca"/>
        <rect id="Rectangle_4817" data-name="Rectangle 4817" width="52.11" height="0.653" rx="0.326" transform="translate(8.243 49.728)" fill="#54ccca"/>
        <rect id="Rectangle_4818" data-name="Rectangle 4818" width="52.11" height="0.653" rx="0.326" transform="translate(8.243 52.352)" fill="#54ccca"/>
        <rect id="Rectangle_4819" data-name="Rectangle 4819" width="52.11" height="0.653" rx="0.326" transform="translate(8.243 54.976)" fill="#54ccca"/>
        <path id="Path_20723" data-name="Path 20723" d="M495.357,7028.9H474.78a.353.353,0,0,1-.375-.325h0a.352.352,0,0,1,.375-.326h20.577a.352.352,0,0,1,.375.326h0A.353.353,0,0,1,495.357,7028.9Z" transform="translate(-451.656 -6964.263)" fill="#40558e"/>
        <rect id="Rectangle_4820" data-name="Rectangle 4820" width="21.328" height="0.653" rx="0.326" transform="translate(22.749 66.679)" fill="#40558e"/>
      </g>
      <text id="PROPOSAL" transform="translate(5.243 26.457)" fill="#2d356b" font-size="12" font-family="TrebuchetMS-Bold, Trebuchet MS" font-weight="700"><tspan x="0" y="0">PROPOSAL</tspan></text>
    </g>
    <g id="Group_14438" data-name="Group 14438" transform="translate(-1039.757 367.568) rotate(-22)">
      <g id="Rectangle_4821" data-name="Rectangle 4821" transform="translate(389.172 2930.67)" fill="#ffe200" stroke="#707070" stroke-width="0.5">
        <rect width="66" height="28" stroke="none"/>
        <rect x="0.25" y="0.25" width="65.5" height="27.5" fill="none"/>
      </g>
      <text id="Revise" transform="translate(393.551 2951.561)" fill="#2d356b" font-size="19" font-family="TrebuchetMS-Bold, Trebuchet MS" font-weight="700"><tspan x="0" y="0">Revise</tspan></text>
    </g>
  </g>
</svg>
