<svg xmlns="http://www.w3.org/2000/svg" width="212.349" height="131.243" viewBox="0 0 212.349 131.243">
  <g id="Group_15254" data-name="Group 15254" transform="translate(-361.06 -7620.607)">
    <g id="Group_15252" data-name="Group 15252" transform="translate(361.06 7620.607)">
      <path id="Path_22172" data-name="Path 22172" d="M598.353,6668.6a26.89,26.89,0,0,1-.429,10.263c-4.119,17.231-24.46,27.136-45.433,22.123-11.377-2.72-20.6-9.272-26-17.448-10.92,13.905-29.289,19.575-41.552,12.643-11.544-6.527-13.652-21.946-5.486-35.75-18.5-4.691-30.922-18.777-27.829-31.715,2.2-9.212,11.684-15.387,23.685-16.668-5.467-5.1-8.19-10.886-6.91-16.237,2.637-11.032,21.286-16.028,41.653-11.159q2.23.532,4.358,1.191c6.266-11.782,23.507-17.7,41.487-13.4,20.367,4.869,33.966,21,30.374,36.021q-.175.732-.4,1.444a79.886,79.886,0,0,1,9.66,1.7c25.6,6.119,43.41,23.36,39.788,38.51C632.464,6662.027,617.2,6669.1,598.353,6668.6Z" transform="translate(-423.431 -6571.04)" fill="#fff4ba"/>
      <circle id="Ellipse_133" data-name="Ellipse 133" cx="8.921" cy="8.921" r="8.921" transform="translate(20.266 45.621)" fill="#fff4ba"/>
      <circle id="Ellipse_134" data-name="Ellipse 134" cx="5.286" cy="5.286" r="5.286" transform="translate(11.414 48.532)" fill="#fff4ba"/>
      <circle id="Ellipse_135" data-name="Ellipse 135" cx="4.522" cy="4.522" r="4.522" transform="translate(0 54.002)" fill="#fff4ba"/>
    </g>
    <text id="research" transform="matrix(0.986, 0.168, -0.168, 0.986, 420.789, 7672.894)" fill="#2d356b" font-size="20" font-family="TrebuchetMS-Bold, Trebuchet MS" font-weight="700"><tspan x="0" y="0">research</tspan></text>
    <text id="complete" transform="matrix(0.958, -0.288, 0.288, 0.958, 459.055, 7722.042)" fill="#2d356b" font-size="20" font-family="TrebuchetMS-Bold, Trebuchet MS" font-weight="700"><tspan x="0" y="0">complete</tspan></text>
  </g>
</svg>
