<svg xmlns="http://www.w3.org/2000/svg" width="478.126" height="254.97" viewBox="0 0 478.126 254.97">
  <g id="Group_16398" data-name="Group 16398" transform="translate(-103.202 -7299.779)">
    <g id="Group_16235" data-name="Group 16235" transform="translate(204.417 7304.846)">
      <path id="Path_24069" data-name="Path 24069" d="M1077.659,6664.128a51.063,51.063,0,0,1-.814,19.492c-7.824,32.727-46.457,51.539-86.29,42.017-21.609-5.166-39.128-17.61-49.39-33.14-20.741,26.41-55.627,37.178-78.917,24.011-21.926-12.4-25.928-41.681-10.42-67.9-35.138-8.908-58.729-35.662-52.855-60.233,4.182-17.5,22.19-29.224,44.983-31.658-10.383-9.682-15.554-20.674-13.125-30.836,5.009-20.953,40.427-30.442,79.109-21.2q4.235,1.012,8.277,2.263c11.9-22.377,44.646-33.609,78.8-25.446,38.682,9.247,64.51,39.876,57.689,68.411q-.333,1.393-.762,2.743a151.742,151.742,0,0,1,18.346,3.22c48.614,11.622,82.447,44.368,75.568,73.141C1142.444,6651.654,1113.449,6665.084,1077.659,6664.128Z" transform="translate(-772.422 -6478.845)" fill="#fff" stroke="#ebebeb" stroke-miterlimit="10" stroke-width="1"/>
      <circle id="Ellipse_194" data-name="Ellipse 194" cx="12.011" cy="12.011" r="12.011" transform="translate(27.287 41.71)" fill="#fff" stroke="#ebebeb" stroke-miterlimit="10" stroke-width="1"/>
      <circle id="Ellipse_195" data-name="Ellipse 195" cx="7.117" cy="7.117" r="7.117" transform="translate(15.367 45.629)" fill="#fff" stroke="#ebebeb" stroke-miterlimit="10" stroke-width="1"/>
      <circle id="Ellipse_196" data-name="Ellipse 196" cx="6.088" cy="6.088" r="6.088" transform="translate(0 52.994)" fill="#fff" stroke="#ebebeb" stroke-miterlimit="10" stroke-width="1"/>
    </g>
    <g id="Group_16255" data-name="Group 16255" transform="translate(284.967 7299.779)">
      <g id="Group_16254" data-name="Group 16254" transform="translate(0 0)">
        <g id="Group_16253" data-name="Group 16253">
          <g id="Group_16239" data-name="Group 16239" transform="translate(0 32.872)">
            <path id="Path_24070" data-name="Path 24070" d="M1214.873,6687.764c0,3.483-1.395,6.3-3.133,6.3H969.752c-1.737,0-3.132-2.822-3.132-6.3V6582.559c0-3.471,1.395-6.292,3.132-6.292H1211.74c1.738,0,3.133,2.821,3.133,6.292Z" transform="translate(-966.62 -6572.342)" fill="#40558e"/>
            <path id="Path_24071" data-name="Path 24071" d="M1218.689,6658.683c-.13.275-29.206,23.15-29.206,23.316H975.6c-1.713,0-3.106-2.833-3.106-6.315V6570.5c0-3.482,1.393-6.282,3.106-6.282h240c1.713,0,3.09,2.8,3.09,6.282Z" transform="translate(-970.581 -6564.218)" fill="#fff"/>
            <g id="Group_16238" data-name="Group 16238" transform="translate(218.421 94.465)">
              <g id="Group_16237" data-name="Group 16237">
                <g id="Group_16236" data-name="Group 16236">
                  <path id="Path_24072" data-name="Path 24072" d="M1642.32,6854.248h24.65l-29.741,23.68V6857.8C1637.229,6855.84,1639.509,6854.248,1642.32,6854.248Z" transform="translate(-1637.229 -6854.248)" fill="#2d356b"/>
                </g>
              </g>
            </g>
          </g>
          <path id="Path_24073" data-name="Path 24073" d="M1214.907,6540.905v-45.3c0-2.268-1.411-4.111-3.141-4.111H969.851c-1.734,0-3.13,1.843-3.13,4.111v45.3Z" transform="translate(-966.688 -6482.31)" fill="#2d356b"/>
          <g id="Group_16252" data-name="Group 16252" transform="translate(33.222)">
            <g id="Group_16251" data-name="Group 16251">
              <g id="Group_16240" data-name="Group 16240">
                <path id="Path_24074" data-name="Path 24074" d="M1074.332,6474.879a2.607,2.607,0,0,1-2.752,2.394h-.2a2.61,2.61,0,0,1-2.763-2.394v-9.2a2.61,2.61,0,0,1,2.763-2.391h.2a2.607,2.607,0,0,1,2.752,2.391Z" transform="translate(-1068.62 -6463.291)" fill="#fff4ba"/>
              </g>
              <g id="Group_16241" data-name="Group 16241" transform="translate(17.613)">
                <path id="Path_24075" data-name="Path 24075" d="M1128.409,6474.879a2.609,2.609,0,0,1-2.758,2.394h-.2a2.6,2.6,0,0,1-2.752-2.394v-9.2a2.6,2.6,0,0,1,2.752-2.391h.2a2.609,2.609,0,0,1,2.758,2.391Z" transform="translate(-1122.696 -6463.291)" fill="#fff4ba"/>
              </g>
              <g id="Group_16242" data-name="Group 16242" transform="translate(35.226)">
                <path id="Path_24076" data-name="Path 24076" d="M1182.48,6474.879a2.6,2.6,0,0,1-2.757,2.394h-.186a2.6,2.6,0,0,1-2.763-2.394v-9.2a2.6,2.6,0,0,1,2.763-2.391h.186a2.6,2.6,0,0,1,2.757,2.391Z" transform="translate(-1176.774 -6463.291)" fill="#fff4ba"/>
              </g>
              <g id="Group_16243" data-name="Group 16243" transform="translate(52.829)">
                <path id="Path_24077" data-name="Path 24077" d="M1236.535,6474.879a2.607,2.607,0,0,1-2.752,2.394h-.208a2.609,2.609,0,0,1-2.758-2.394v-9.2a2.609,2.609,0,0,1,2.758-2.391h.208a2.607,2.607,0,0,1,2.752,2.391Z" transform="translate(-1230.817 -6463.291)" fill="#fff4ba"/>
              </g>
              <g id="Group_16244" data-name="Group 16244" transform="translate(70.441)">
                <path id="Path_24078" data-name="Path 24078" d="M1290.6,6474.879a2.6,2.6,0,0,1-2.752,2.394h-.2a2.6,2.6,0,0,1-2.753-2.394v-9.2a2.6,2.6,0,0,1,2.753-2.391h.2a2.6,2.6,0,0,1,2.752,2.391Z" transform="translate(-1284.893 -6463.291)" fill="#fff4ba"/>
              </g>
              <g id="Group_16245" data-name="Group 16245" transform="translate(88.058)">
                <path id="Path_24079" data-name="Path 24079" d="M1344.681,6474.879a2.606,2.606,0,0,1-2.747,2.394h-.208a2.6,2.6,0,0,1-2.747-2.394v-9.2a2.6,2.6,0,0,1,2.747-2.391h.208a2.606,2.606,0,0,1,2.747,2.391Z" transform="translate(-1338.979 -6463.291)" fill="#fff4ba"/>
              </g>
              <g id="Group_16246" data-name="Group 16246" transform="translate(105.666)">
                <path id="Path_24080" data-name="Path 24080" d="M1398.752,6474.879a2.616,2.616,0,0,1-2.758,2.394h-.208a2.591,2.591,0,0,1-2.746-2.394v-9.2a2.591,2.591,0,0,1,2.746-2.391h.208a2.616,2.616,0,0,1,2.758,2.391Z" transform="translate(-1393.04 -6463.291)" fill="#fff4ba"/>
              </g>
              <g id="Group_16247" data-name="Group 16247" transform="translate(123.273)">
                <path id="Path_24081" data-name="Path 24081" d="M1452.8,6474.879a2.6,2.6,0,0,1-2.758,2.394h-.186a2.6,2.6,0,0,1-2.758-2.394v-9.2a2.6,2.6,0,0,1,2.758-2.391h.186a2.6,2.6,0,0,1,2.758,2.391Z" transform="translate(-1447.098 -6463.291)" fill="#fff4ba"/>
              </g>
              <g id="Group_16248" data-name="Group 16248" transform="translate(140.881)">
                <path id="Path_24082" data-name="Path 24082" d="M1506.86,6474.879a2.6,2.6,0,0,1-2.758,2.394h-.2a2.606,2.606,0,0,1-2.747-2.394v-9.2a2.606,2.606,0,0,1,2.747-2.391h.2a2.6,2.6,0,0,1,2.758,2.391Z" transform="translate(-1501.159 -6463.291)" fill="#fff4ba"/>
              </g>
              <g id="Group_16249" data-name="Group 16249" transform="translate(158.477)">
                <path id="Path_24083" data-name="Path 24083" d="M1560.9,6474.879a2.6,2.6,0,0,1-2.747,2.394h-.208a2.616,2.616,0,0,1-2.758-2.394v-9.2a2.616,2.616,0,0,1,2.758-2.391h.208a2.6,2.6,0,0,1,2.747,2.391Z" transform="translate(-1555.185 -6463.291)" fill="#fff4ba"/>
              </g>
              <g id="Group_16250" data-name="Group 16250" transform="translate(176.096)">
                <path id="Path_24084" data-name="Path 24084" d="M1614.992,6474.879a2.609,2.609,0,0,1-2.758,2.394h-.2a2.6,2.6,0,0,1-2.758-2.394v-9.2a2.6,2.6,0,0,1,2.758-2.391h.2a2.609,2.609,0,0,1,2.758,2.391Z" transform="translate(-1609.28 -6463.291)" fill="#fff4ba"/>
              </g>
            </g>
          </g>
        </g>
      </g>
      <text id="Meeting_with_project_team_Reach_agreement_" data-name="Meeting with project team

Reach agreement
" transform="translate(46.34 91.573)" fill="#2d356b" font-size="14" font-family="TrebuchetMS-Bold, Trebuchet MS" font-weight="700"><tspan x="0" y="0">Meeting with project team</tspan><tspan x="0" y="14"></tspan><tspan x="0" y="28">Reach agreement</tspan><tspan font-family="TrebuchetMS-Bold"><tspan x="0" y="42"></tspan></tspan></text>
      <text id="Last_week_s_to-do_list" data-name="Last week’s to-do list" transform="translate(24.918 42.344)" fill="#fff" font-size="20" font-family="TrebuchetMS-Bold, Trebuchet MS" font-weight="700"><tspan x="0" y="0">Last week’s to-do list</tspan></text>
      <rect id="Rectangle_5277" data-name="Rectangle 5277" width="17.613" height="17.613" transform="translate(15.214 79.214)" fill="none" stroke="#2d356b" stroke-miterlimit="10" stroke-width="1"/>
      <rect id="Rectangle_5278" data-name="Rectangle 5278" width="17.613" height="17.613" transform="translate(15.214 105.743)" fill="none" stroke="#2d356b" stroke-miterlimit="10" stroke-width="1"/>
      <path id="Path_24085" data-name="Path 24085" d="M1025.1,6693.977l5.286,13.119,22.007-27.636-8.038.075-11.967,19.444-1.935-7.545Z" transform="translate(-1006.051 -6609.052)" fill="#f46973"/>
    </g>
    <g id="Group_16287" data-name="Group 16287" transform="translate(103.202 7338.24)">
      <g id="Group_16286" data-name="Group 16286">
        <path id="Path_24102" data-name="Path 24102" d="M639.994,6750.1c-2.484-2.623-17.772-3-21.078,0l-.085,3.372h21.077Z" transform="translate(-550.343 -6693.722)" fill="#fff"/>
        <rect id="Rectangle_5281" data-name="Rectangle 5281" width="14.052" height="8.839" transform="translate(71.488 148.58)" fill="#eaeaea"/>
        <path id="Path_24103" data-name="Path 24103" d="M532.035,6874.568s-19.5-76.565-23.2-103.909c0,0,36.173-27.5,83.34-4.244,0,0-10.129,93.585-12.5,107.113-9.547-3.713-16.264-9.178-23.136-20.071C547.249,6866.32,540.071,6873.566,532.035,6874.568Z" transform="translate(-476.171 -6699.85)" fill="#029390"/>
        <path id="Path_24104" data-name="Path 24104" d="M590.854,6822.989s-39.136-27.055-23.491-62.814c0,0,22.848-10.06,46.309-.149C620.143,6790.741,605.654,6810.525,590.854,6822.989Z" transform="translate(-513.148 -6698.895)" fill="#54ccca"/>
        <path id="Path_24105" data-name="Path 24105" d="M615.782,6829.689s-22.536-27.327-12.622-63.446c0,0,18.043-1.35,28.283-.15C635.086,6797.117,624.946,6817.1,615.782,6829.689Z" transform="translate(-538.076 -6705.595)" fill="#eaeaea"/>
        <path id="Path_24106" data-name="Path 24106" d="M638.147,6730.693h-16.14l-2.415,14.787c8.785,4.579,13.918,4.082,20.763-1Z" transform="translate(-550.855 -6682.06)" fill="#f7c371"/>
        <path id="Path_24107" data-name="Path 24107" d="M637.152,6784.967l3.928,2.622,4.58-3-2.623-3.821-3.058-.076Z" transform="translate(-562.696 -6715.775)" fill="#02928f"/>
        <path id="Path_24108" data-name="Path 24108" d="M604.438,6758.544l4.914-4c1.447,4.134,4,6.521,10.079,8.292,0,0-4.884,7.415-7.126,7.22S604.438,6758.544,604.438,6758.544Z" transform="translate(-540.637 -6698.143)" fill="#fff"/>
        <path id="Path_24109" data-name="Path 24109" d="M666.007,6758.438l-5.014-3.974c-1.883,4.046-4.562,6.488-11.124,8.384,0,0,4.731,7.427,7.111,7.22S666.007,6758.438,666.007,6758.438Z" transform="translate(-571.271 -6698.088)" fill="#fff"/>
        <path id="Path_24110" data-name="Path 24110" d="M640.977,6798.259l-1.594.3-3.6,48.209,3.614,4.949,3.752-4.949Z" transform="translate(-561.771 -6727.619)" fill="#02928f"/>
        <path id="Path_24111" data-name="Path 24111" d="M650.826,7020.462a1.87,1.87,0,1,0-1.87,1.87A1.87,1.87,0,0,0,650.826,7020.462Z" transform="translate(-569.395 -6876.188)" fill="#54ccca"/>
        <path id="Path_24112" data-name="Path 24112" d="M650.826,6983.459a1.87,1.87,0,1,0-1.87,1.869A1.871,1.871,0,0,0,650.826,6983.459Z" transform="translate(-569.395 -6851.237)" fill="#54ccca"/>
        <g id="Group_16283" data-name="Group 16283" transform="translate(57.15)">
          <g id="Group_16282" data-name="Group 16282">
            <path id="Path_24113" data-name="Path 24113" d="M592.283,6625.5c-1.861-5.1-5.254-24.644-2.413-29.406,0,0-10.127-1.636-3.736-8.974,8.1-9.3,25.424-6.278,27.559,1.749,0,0,12.627-5.412,7.185,33.2Z" transform="translate(-584.019 -6581.376)" fill="#ffac00"/>
            <path id="Path_24114" data-name="Path 24114" d="M618.565,6656.76a19.416,19.416,0,0,1-18.1-8.742c1.009,9.44,2.43,22.282,2.43,22.282s22.99-.951,29.79-3.526c-.313-5.295-.588-11.553-1.233-16.6A19.418,19.418,0,0,1,618.565,6656.76Z" transform="translate(-595.106 -6626.313)" fill="#ffac00"/>
            <g id="Group_16281" data-name="Group 16281" transform="translate(3.503 10.544)">
              <g id="Group_16279" data-name="Group 16279">
                <g id="Group_16278" data-name="Group 16278">
                  <path id="Path_24115" data-name="Path 24115" d="M690.515,6671.68c.008-3.229,1.277-5.091,2.692-5.223s2.443,1.519,2.434,4.747-2.207,4.927-3.623,5.059S690.508,6674.906,690.515,6671.68Z" transform="translate(-659.331 -6649.285)" fill="#f7c371"/>
                  <path id="Path_24116" data-name="Path 24116" d="M600.3,6680.763c-.509-3.179-2.11-4.776-3.593-4.639s-2.288,1.958-1.778,5.137,3.048,4.441,4.531,4.3S600.808,6683.941,600.3,6680.763Z" transform="translate(-594.773 -6655.803)" fill="#f7c371"/>
                  <g id="Group_16277" data-name="Group 16277" transform="translate(4.344)">
                    <g id="Group_16276" data-name="Group 16276">
                      <path id="Path_24117" data-name="Path 24117" d="M608.575,6657.171c.349,1.454,7.693,7.187,15.381,6.473s13.522-7.1,14.639-9.574-7.045-31.892-10.416-34.106-15.869.615-16.82,2.034C609.1,6625.367,607.2,6651.453,608.575,6657.171Z" transform="translate(-608.111 -6617.388)" fill="#ffd8a3"/>
                      <path id="Path_24118" data-name="Path 24118" d="M635.919,6616.468c-.794-2.572-4.136-3.013-8.964-2.565s-8.6,2.3-8.434,4.141,4.223,2.965,9.052,2.517S636.464,6618.242,635.919,6616.468Z" transform="translate(-615.126 -6613.749)" fill="#ffd8a3"/>
                    </g>
                    <path id="Path_24119" data-name="Path 24119" d="M611.99,6635.6c1.151.356,4.626-9.752,5.391-11.461s.453-3.379-.7-3.734-2.7.741-3.469,2.45S610.84,6635.244,611.99,6635.6Z" transform="translate(-610.456 -6618.191)" fill="#ffd8a3"/>
                    <path id="Path_24120" data-name="Path 24120" d="M667.766,6629.406c1.134-.446-2.857-10.007-3.693-11.651s-2.43-2.614-3.565-2.168-1.376,2.141-.542,3.784S666.632,6629.853,667.766,6629.406Z" transform="translate(-642.742 -6614.915)" fill="#ffd8a3"/>
                  </g>
                </g>
                <path id="Path_24121" data-name="Path 24121" d="M644.121,6675.609a5.491,5.491,0,0,0,2.6,1.1,3.3,3.3,0,0,0,2.335-1.694c.029-.892-2.687-10.552-3.335-10.585S643.957,6674.333,644.121,6675.609Z" transform="translate(-628.037 -6647.922)" fill="#ffab00"/>
                <path id="Path_24122" data-name="Path 24122" d="M646.327,6674.111c.024.224,1.077.484,1.438.451.615-.057,1.328-.454,1.317-.858-.029-.973-.557-12-2.407-11.72C644.65,6662.286,646.17,6672.709,646.327,6674.111Z" transform="translate(-629.067 -6646.271)" fill="#ffd8a3"/>
                <path id="Path_24123" data-name="Path 24123" d="M630.084,6673.977c-.083-.841-.608-1.482-1.173-1.43s-.954.778-.871,1.62.608,1.482,1.174,1.43S630.168,6674.82,630.084,6673.977Z" transform="translate(-617.198 -6653.394)" fill="#2d356b"/>
                <path id="Path_24124" data-name="Path 24124" d="M670,6670.273c-.083-.842-.609-1.482-1.173-1.431s-.954.778-.871,1.62.608,1.482,1.174,1.43S670.08,6671.116,670,6670.273Z" transform="translate(-644.11 -6650.896)" fill="#2d356b"/>
              </g>
              <path id="Path_24125" data-name="Path 24125" d="M623.966,6664.49a1.175,1.175,0,0,0-.628-.774c-.841-.411-6.546,2.406-6.261,3.355l.181.595c.2.683,1.836-.469,3.593-1.076,1.682-.579,3.5-.587,3.333-1.238Z" transform="translate(-609.805 -6647.414)" fill="#2d356b"/>
              <path id="Path_24126" data-name="Path 24126" d="M659.862,6662.332a1.165,1.165,0,0,1,.383-.927c.7-.643,7.187.352,7.194,1.343l0,.622c0,.713-1.953.1-3.872.042-1.833-.055-3.627.48-3.662-.192Z" transform="translate(-638.661 -6645.746)" fill="#2d356b"/>
              <g id="Group_16280" data-name="Group 16280" transform="translate(14.823 33.378)">
                <path id="Path_24127" data-name="Path 24127" d="M640.63,6724.757a.227.227,0,0,0,0-.306.212.212,0,0,0-.287.085.226.226,0,0,0,0,.306A.214.214,0,0,0,640.63,6724.757Z" transform="translate(-640.285 -6721.752)" fill="#ffab00"/>
                <path id="Path_24128" data-name="Path 24128" d="M645.185,6716.564a7.131,7.131,0,0,1,4.922,1.064l.046-.007c-1.419-.8-2.85-1.668-5.011-1.312-1.984.327-4.218,2.743-4.218,2.743l.079-.012A9.673,9.673,0,0,1,645.185,6716.564Z" transform="translate(-640.717 -6716.227)" fill="#ffab00"/>
                <path id="Path_24129" data-name="Path 24129" d="M668.5,6720.181c.135.047.27.007.3-.088s-.057-.212-.193-.258-.27-.007-.3.089S668.365,6720.134,668.5,6720.181Z" transform="translate(-659.177 -6718.646)" fill="#ffab00"/>
              </g>
            </g>
            <path id="Path_24130" data-name="Path 24130" d="M629.75,6605.887c-.46-1.812-5.748-2.034-11.811-.494s-10.606,4.254-10.147,6.065,5.748,2.033,11.812.5S630.209,6607.7,629.75,6605.887Z" transform="translate(-600.027 -6596.88)" fill="#ffac00"/>
          </g>
        </g>
        <g id="Group_16284" data-name="Group 16284" transform="translate(96.516 66.24)">
          <path id="Path_24131" data-name="Path 24131" d="M715,7090.223c-.52-.7.642-1.759,2.121-2.755s2.71-1.552,3.233-.854-.254,2.073-1.734,3.068S715.519,7090.921,715,7090.223Z" transform="translate(-711.619 -6988.085)" fill="#f7c371"/>
          <path id="Path_24132" data-name="Path 24132" d="M721.364,7094.417c-.52-.7.642-1.759,2.121-2.754s2.709-1.556,3.232-.855-.255,2.071-1.735,3.07S721.886,7095.115,721.364,7094.417Z" transform="translate(-715.911 -6990.912)" fill="#f7c371"/>
          <path id="Path_24133" data-name="Path 24133" d="M705.063,7083.977c.629-.633,2.494.709,4.428,2.424s3.207,3.149,2.579,3.784-2.7-.247-4.639-1.962S704.436,7084.607,705.063,7083.977Z" transform="translate(-704.883 -6986.409)" fill="#ffd8a3"/>
          <path id="Path_24134" data-name="Path 24134" d="M717.278,7053.375c-3.073,2.272-13.288,8.676-11.127,12.165,1.934,3.122,8.707,4.124,13.986-9.944Z" transform="translate(-705.537 -6965.882)" fill="#ffd8a3"/>
          <path id="Path_24135" data-name="Path 24135" d="M730.94,7044.213l2.98-6.569,8.452,6.791-5.857,3.971Z" transform="translate(-722.453 -6955.275)" fill="#eaeaea"/>
          <path id="Path_24136" data-name="Path 24136" d="M784.982,6832.459c4.548-2.172-13.43-23.783-34.164-47.709,0,0-8.166,16.2-5.941,26.363C744.876,6811.113,766.631,6841.227,784.982,6832.459Z" transform="translate(-731.591 -6784.75)" fill="#029390"/>
          <path id="Path_24137" data-name="Path 24137" d="M780.544,6915.959s-9.886,15.506-34.824,44.343c0,0-5.177-1.485-8.689-8.032,0,0,15.693-27.988,26.558-42.411C763.589,6909.858,778.755,6908.715,780.544,6915.959Z" transform="translate(-726.56 -6869.065)" fill="#029390"/>
          <path id="Path_24138" data-name="Path 24138" d="M758.181,7039.433a1.505,1.505,0,1,0-2.14.938A1.67,1.67,0,0,0,758.181,7039.433Z" transform="translate(-738.893 -6954.848)" fill="#54ccca"/>
        </g>
        <g id="Group_16285" data-name="Group 16285" transform="translate(0 70.673)">
          <path id="Path_24139" data-name="Path 24139" d="M561.648,7099.122c.388-.717-.757-1.583-2.175-2.356s-2.572-1.156-2.962-.439.446,1.921,1.865,2.693S561.259,7099.838,561.648,7099.122Z" transform="translate(-508.256 -6999.021)" fill="#f7c371"/>
          <path id="Path_24140" data-name="Path 24140" d="M556.437,7103.785c.389-.716-.756-1.584-2.175-2.354s-2.571-1.158-2.962-.441.446,1.921,1.866,2.694S556.049,7104.5,556.437,7103.785Z" transform="translate(-504.743 -7002.167)" fill="#f7c371"/>
          <path id="Path_24141" data-name="Path 24141" d="M567.8,7091.158c-.625-.522-2.141.949-3.677,2.779s-2.515,3.326-1.889,3.851,2.375-.536,3.912-2.368S568.422,7091.682,567.8,7091.158Z" transform="translate(-512.05 -6995.721)" fill="#ffd8a3"/>
          <path id="Path_24142" data-name="Path 24142" d="M540.143,7066.258c2.97,1.793,12.723,6.673,11.173,10.2-1.387,3.156-7.3,4.859-13.477-7.788Z" transform="translate(-495.73 -6979.002)" fill="#ffd8a3"/>
          <path id="Path_24143" data-name="Path 24143" d="M526.814,7058.841l-6-3.841,7.829-7.306,3.057,6.286Z" transform="translate(-484.249 -6966.485)" fill="#eaeaea"/>
          <path id="Path_24144" data-name="Path 24144" d="M409.45,6846.746c-5.1-.2,12.346-24.181,31.95-48.385,0,0,7.587,10.75,5.781,23.44C447.181,6821.8,428.316,6847.469,409.45,6846.746Z" transform="translate(-408.553 -6798.361)" fill="#029390"/>
          <path id="Path_24145" data-name="Path 24145" d="M409.364,6926.792s8.772,16.841,36.983,43.01c0,0,5.191-1.676,8.5-8.351,0,0-17.081-28.831-27.262-43.205C427.589,6918.247,410.9,6919.486,409.364,6926.792Z" transform="translate(-409.1 -6879.199)" fill="#029390"/>
          <path id="Path_24146" data-name="Path 24146" d="M517.238,7047.095a1.505,1.505,0,1,0,.316-2.315A1.67,1.67,0,0,0,517.238,7047.095Z" transform="translate(-481.627 -6964.398)" fill="#54ccca"/>
        </g>
      </g>
    </g>
    <text id="Tough" transform="translate(351.577 7497.105)" fill="#2d356b" font-size="30" font-family="TrebuchetMS-Bold, Trebuchet MS" font-weight="700"><tspan x="0" y="0">Tough</tspan></text>
  </g>
</svg>
