<svg xmlns="http://www.w3.org/2000/svg" width="544" height="375.414" viewBox="0 0 544 375.414">
  <g id="Group_13509" data-name="Group 13509" transform="translate(-427.955 -8581.848)">
    <g id="Layer_1" data-name="Layer 1" transform="translate(427.955 8581.848)">
      <g id="Group_1" data-name="Group 1" transform="translate(0 0)">
        <rect id="Rectangle_1" data-name="Rectangle 1" width="544" height="228.575" fill="#c3e8e6"/>
        <rect id="Rectangle_2" data-name="Rectangle 2" width="521.793" height="208.193" transform="translate(11.108 10.401)" fill="#fff"/>
      </g>
      <g id="Group_13" data-name="Group 13" transform="translate(330.69 96.269)">
        <g id="Group_4" data-name="Group 4" transform="translate(44.716 102.493)">
          <path id="Path_1" data-name="Path 1" d="M1051.82,8923.6l15.515,2.588c26.6,17.542-7.621,78.81,2.844,146.523l-2.2,0c-10.444-54.217,1.729-116.192-9.077-116.586-11.333-.414,7.3,116.588,7.3,116.588l-2.721,0c-7.074-40.828-29.492-114.1-18.555-137.34A85.676,85.676,0,0,1,1051.82,8923.6Z" transform="translate(-1035.243 -8922.107)" fill="#f8d9aa"/>
          <path id="Path_4" data-name="Path 4" d="M1092.87,9177.295l-7.432.013s-.364-2.416,1.294-2.808C1087.777,9174.255,1089.624,9174.815,1092.87,9177.295Z" transform="translate(-1053.227 -9025.967)" fill="#decba9"/>
          <path id="Path_5" data-name="Path 5" d="M1067.157,9177.053l9.727-.018s.468-2.414-1.7-2.8C1073.814,9174,1071.4,9174.561,1067.157,9177.053Z" transform="translate(-1045.672 -9025.859)" fill="#e37176"/>
          <path id="Path_8" data-name="Path 8" d="M1042.585,9009.094c-4.373-22.7-26.642-67.069,3.181-88.042l18.122,3.29s25.271,5.573,3.2,86.243Z" transform="translate(-1030.49 -8921.052)" fill="#2e3667"/>
        </g>
        <g id="Group_13474" data-name="Group 13474">
          <g id="Group_13473" data-name="Group 13473">
            <g id="Group_13463" data-name="Group 13463" transform="translate(41.899)">
              <g id="Group_13462" data-name="Group 13462">
                <path id="Path_19883" data-name="Path 19883" d="M1029.893,8811.137c-4.187-5.758,1.525-8.714,1.368-14.375s-5.069-4.083-5.544-11.408,4.007-9.083,4.359-13.308-5.371-5.535-2.784-10.745,6.61-4.971,8.849-9.108,8.37-6.216,11.64-4.113,7.589-4.774,13.3-.522,4.75,12.091,6.3,16.61,7.324,6.67,7.839,14.62-3.585,5.906-1.972,11.473,6.827,5.441,7.343,13.393c0,0,.307,7.963-8.108,7.037s-6.011,3.96-15.017.344-6.359,5.033-12.648,1.447S1034.709,8817.758,1029.893,8811.137Z" transform="translate(-1025.682 -8746.139)" fill="#2d356b"/>
              </g>
            </g>
            <g id="Group_13465" data-name="Group 13465" transform="translate(63.448 54.662)">
              <g id="Group_13464" data-name="Group 13464" transform="translate(0 52.801)">
                <path id="Path_19884" data-name="Path 19884" d="M1064.31,8939.756c-.141-.514.754-.862,1.815-1.106s1.885-.29,2.028.226-.6,1.126-1.664,1.368S1064.452,8940.271,1064.31,8939.756Z" transform="translate(-1063.218 -8933.237)" fill="#c3e8e6"/>
                <path id="Path_19885" data-name="Path 19885" d="M1065.81,8941.863c-.142-.514.754-.861,1.815-1.105s1.885-.293,2.028.223-.6,1.127-1.664,1.371S1065.953,8942.375,1065.81,8941.863Z" transform="translate(-1063.839 -8934.107)" fill="#c3e8e6"/>
                <path id="Path_19886" data-name="Path 19886" d="M1062.737,8934.989c.5-.222,1.263.954,1.986,2.357s1.131,2.5.633,2.726-1.484-.733-2.207-2.14S1062.24,8935.212,1062.737,8934.989Z" transform="translate(-1062.458 -8931.781)" fill="#c3e8e6"/>
                <path id="Path_19887" data-name="Path 19887" d="M1071.567,8929.535c-2.25.62-9.476,2.029-9.015,4.5.412,2.206,4.047,4.267,10.153-2.6Z" transform="translate(-1062.488 -8929.535)" fill="#c3e8e6"/>
              </g>
              <path id="Path_19888" data-name="Path 19888" d="M1085.468,8839.651c6.007-3.529,20.642,35.521,20.614,37,0,0-3.422,4.036-4.671,2.816C1098.178,8876.317,1082.785,8841.227,1085.468,8839.651Z" transform="translate(-1071.855 -8839.426)" fill="#fff4ba"/>
              <path id="Path_19889" data-name="Path 19889" d="M1078.506,8918.313c-3.737-3.759,20.291-19.951,21.394-20.2,0,0,3.626,1.764,2.958,2.906C1101.132,8903.973,1080.175,8919.992,1078.506,8918.313Z" transform="translate(-1068.939 -8863.724)" fill="#fff4ba"/>
              <path id="Path_19890" data-name="Path 19890" d="M1077.22,8930.621l1.322,1.03,6.154-1.667s-1.913-2.268-2.614-2.479S1077.22,8930.621,1077.22,8930.621Z" transform="translate(-1068.57 -8875.89)" fill="#c3e8e6"/>
              <path id="Path_19891" data-name="Path 19891" d="M1076.765,8927.892l-.794-1.486,2.764-5.753s1.923,2.3,2.011,3.021S1076.765,8927.892,1076.765,8927.892Z" transform="translate(-1068.052 -8873.056)" fill="#c3e8e6"/>
            </g>
            <g id="Group_13466" data-name="Group 13466" transform="translate(46.76 38.223)">
              <path id="Path_19892" data-name="Path 19892" d="M1033.978,8896.5s8.515,7.542,17.029,10.37l4.435-9.584,4.08,9.584s11.51-3.242,16.142-10.37c-9.38-13.6-13.085-24.946-3.358-39.1,0,0-3.915-25.314-18.1-25.941s-16.719,26.982-16.719,26.982C1046.705,8872.27,1049.725,8878.273,1033.978,8896.5Z" transform="translate(-1033.978 -8819.686)" fill="#ffe200"/>
              <path id="Path_19893" data-name="Path 19893" d="M1062.445,8843.451a8.593,8.593,0,0,1,5.5,1.982,17.728,17.728,0,0,0,1.372-11.405c-8.639-6.494-13.962.675-13.962.675s-1.131,4.474,1.914,10.489A8.582,8.582,0,0,1,1062.445,8843.451Z" transform="translate(-1042.743 -8819.626)" fill="#fff"/>
              <path id="Path_19894" data-name="Path 19894" d="M1059.635,8833.839s-1.437,7.207,5.1,15.027c0,0,5.552-7.611,3.984-15.586C1063.1,8827.912,1059.635,8833.839,1059.635,8833.839Z" transform="translate(-1044.546 -8819.511)" fill="#f7c371"/>
              <rect id="Rectangle_4584" data-name="Rectangle 4584" width="7.41" height="13.892" transform="translate(15.979)" fill="#f7c371"/>
              <path id="Path_19895" data-name="Path 19895" d="M1073.015,8889.675a1.042,1.042,0,1,0-1.042,1.044A1.042,1.042,0,0,0,1073.015,8889.675Z" transform="translate(-1049.278 -8843.358)" fill="#fff"/>
              <path id="Path_19896" data-name="Path 19896" d="M1073.015,8903.574a1.042,1.042,0,1,0-1.042,1.042A1.043,1.043,0,0,0,1073.015,8903.574Z" transform="translate(-1049.278 -8849.114)" fill="#fff"/>
              <path id="Path_19897" data-name="Path 19897" d="M1073.015,8931.369a1.042,1.042,0,1,0-1.042,1.043A1.041,1.041,0,0,0,1073.015,8931.369Z" transform="translate(-1049.278 -8860.622)" fill="#fff"/>
              <path id="Path_19898" data-name="Path 19898" d="M1073.015,8917.472a1.042,1.042,0,1,0-1.042,1.041A1.042,1.042,0,0,0,1073.015,8917.472Z" transform="translate(-1049.278 -8854.868)" fill="#fff"/>
            </g>
            <g id="Group_13468" data-name="Group 13468" transform="translate(0 32.908)">
              <path id="Path_19899" data-name="Path 19899" d="M1024.977,8840.674c4.089,5.64-33.371,23.963-34.851,24.076,0,0-4.346-3.018-3.252-4.378C989.7,8856.853,1023.151,8838.154,1024.977,8840.674Z" transform="translate(-967.643 -8818.091)" fill="#fff4ba"/>
              <g id="Group_13467" data-name="Group 13467">
                <path id="Path_19900" data-name="Path 19900" d="M968.034,8826.889c-1.228-3.375-8.714-8.085-6.374-10.167,2.1-1.864,8.224-1.758,8.944,9.1Z" transform="translate(-957.09 -8807.895)" fill="#ffd9a4"/>
                <path id="Path_19901" data-name="Path 19901" d="M968.261,8818.076c-3.493,3.527-7.775-.745-8.812-2.4-1.14-1.823.78-5.228,2.458-5.559S969.594,8816.726,968.261,8818.076Z" transform="translate(-956.218 -8805.533)" fill="#ffd9a4"/>
                <path id="Path_19902" data-name="Path 19902" d="M969.4,8810.487c.145-2.92,1.715-6.19,2.78-5.847,1.2.39-.676,2.947-.168,5.6.544,2.877.736,4.713-.361,4.983S969.256,8813.416,969.4,8810.487Z" transform="translate(-960.478 -8803.259)" fill="#ffd9a4"/>
                <path id="Path_19903" data-name="Path 19903" d="M961.279,8806.173c-1.319-2.132-1.518-3.547-.912-3.832s1.282.976,2.6,3.1,3.527,4.508,2.921,4.793S962.6,8808.3,961.279,8806.173Z" transform="translate(-956.605 -8802.3)" fill="#ffd9a4"/>
                <path id="Path_19904" data-name="Path 19904" d="M956.686,8808.711c-1.756-1.861-2.448-4.248-1.921-4.643s1.73,1.7,3.485,3.557,2.792,3.16,2.265,3.553S958.44,8810.566,956.686,8808.711Z" transform="translate(-954.35 -8803.013)" fill="#ffd9a4"/>
                <path id="Path_19905" data-name="Path 19905" d="M956.026,8814.617c-1.678-1.929-2.177-3.384-1.642-3.762s1.4,1.1,3.078,3.027,2.825,3.3,2.287,3.679S957.7,8816.544,956.026,8814.617Z" transform="translate(-954.179 -8805.818)" fill="#ffd9a4"/>
              </g>
              <path id="Path_19906" data-name="Path 19906" d="M972.861,8829.959c4.659-2.528,13.44,25.084,13.372,26.211,0,0-2.717,2.984-3.624,2.021C980.259,8855.705,970.781,8831.089,972.861,8829.959Z" transform="translate(-961.791 -8813.685)" fill="#fff4ba"/>
              <path id="Path_19907" data-name="Path 19907" d="M972.226,8828.5l-1.36.98-.13,6.372s2.713-1.2,3.114-1.811S972.226,8828.5,972.226,8828.5Z" transform="translate(-961.034 -8813.148)" fill="#eaeaea"/>
              <path id="Path_19908" data-name="Path 19908" d="M973.079,8828.315l1.651-.345,4.742,4.271s-2.742,1.2-3.465,1.079S973.079,8828.315,973.079,8828.315Z" transform="translate(-962.004 -8812.929)" fill="#eaeaea"/>
            </g>
            <g id="Group_13469" data-name="Group 13469" transform="translate(52.985 11.888)">
              <path id="Path_19909" data-name="Path 19909" d="M1059.6,8799.459c-4.6.3-15.779-11.608-12.5-27.343.664-3.182,3.944-5.2,10.365-5.614,7.063-.456,10.418,1.243,11.1,3.739C1073.362,8787.9,1064.312,8799.155,1059.6,8799.459Z" transform="translate(-1045.391 -8766.428)" fill="#ffd8a3"/>
              <path id="Path_19910" data-name="Path 19910" d="M1068.919,8779a5.8,5.8,0,0,1,7.215,3.189C1074.087,8779.737,1072.566,8778.869,1068.919,8779Z" transform="translate(-1054.67 -8771.515)" fill="#2d356b"/>
              <path id="Path_19911" data-name="Path 19911" d="M1056.761,8780.364a5.782,5.782,0,0,0-7.161,3.255C1051.624,8781.146,1053.132,8780.266,1056.761,8780.364Z" transform="translate(-1046.671 -8772.089)" fill="#2d356b"/>
              <path id="Path_19912" data-name="Path 19912" d="M1075.872,8788.979c-.095-.873-.722-1.521-1.4-1.446a1.642,1.642,0,1,0,1.4,1.446Z" transform="translate(-1056.524 -8775.163)" fill="#2d356b"/>
              <path id="Path_19913" data-name="Path 19913" d="M1076.48,8788.66a4.223,4.223,0,0,0-5.226-.471A10.643,10.643,0,0,1,1076.48,8788.66Z" transform="translate(-1055.637 -8775.147)" fill="#2d356b"/>
              <path id="Path_19914" data-name="Path 19914" d="M1055.4,8790.3a1.278,1.278,0,1,1,1.273,1.565A1.448,1.448,0,0,1,1055.4,8790.3Z" transform="translate(-1049.074 -8775.642)" fill="#2d356b"/>
              <path id="Path_19915" data-name="Path 19915" d="M1052.809,8790.151a4.217,4.217,0,0,1,5.119-1.14A10.638,10.638,0,0,0,1052.809,8790.151Z" transform="translate(-1048 -8775.6)" fill="#2d356b"/>
              <path id="Path_19916" data-name="Path 19916" d="M1065.048,8798.04a3.374,3.374,0,0,0,1.416.482,1.965,1.965,0,0,0,1.338-.719c.036-.384-1.243-4.548-1.6-4.562S1064.986,8797.492,1065.048,8798.04Z" transform="translate(-1053.066 -8777.528)" fill="#ffab00"/>
              <path id="Path_19917" data-name="Path 19917" d="M1066.292,8796.833c.008.087.424.2.568.186.247-.017.537-.163.537-.315,0-.371-.076-4.584-.817-4.5C1065.768,8792.3,1066.248,8796.3,1066.292,8796.833Z" transform="translate(-1053.508 -8777.099)" fill="#ffd8a3"/>
              <path id="Path_19918" data-name="Path 19918" d="M1068.854,8813.7c-.033-.513-.6-.427-1.326-.38s-1.35.038-1.317.552.651.888,1.382.84S1068.888,8814.214,1068.854,8813.7Z" transform="translate(-1053.548 -8785.828)" fill="#f36973"/>
              <path id="Path_19919" data-name="Path 19919" d="M1068.6,8805.419a2.3,2.3,0,0,0-2.418.086c-.455.028-.96-.711-2.474.231-.435.271,1.154.857,2.507.77S1069.068,8805.632,1068.6,8805.419Z" transform="translate(-1052.482 -8782.443)" fill="#f36973"/>
              <path id="Path_19920" data-name="Path 19920" d="M1061.857,8806.045l7.106-.461s-.622,5.176-3.222,5.345S1061.857,8806.045,1061.857,8806.045Z" transform="translate(-1051.746 -8782.64)" fill="#ffab00"/>
              <path id="Path_19921" data-name="Path 19921" d="M1068.8,8806.087l-6.12.4.807,2.036,4.774-.309Z" transform="translate(-1052.087 -8782.848)" fill="#fff"/>
              <path id="Path_19922" data-name="Path 19922" d="M1074.161,8805.238a.363.363,0,1,0-.33.44A.39.39,0,0,0,1074.161,8805.238Z" transform="translate(-1056.544 -8782.332)" fill="#ffab00"/>
              <path id="Path_19923" data-name="Path 19923" d="M1061.861,8806.036a.363.363,0,1,0-.331.44A.392.392,0,0,0,1061.861,8806.036Z" transform="translate(-1051.451 -8782.663)" fill="#ffab00"/>
              <path id="Path_19924" data-name="Path 19924" d="M1046.461,8795.833c-.282-1-.2-1.833-.938-1.622a1.69,1.69,0,0,0-.826,2.188c.282,1,1.11,1.641,1.848,1.433S1046.743,8796.835,1046.461,8795.833Z" transform="translate(-1044.601 -8777.916)" fill="#f7c371"/>
              <path id="Path_19925" data-name="Path 19925" d="M1086.139,8793.3c.126-1.03-.09-1.846.694-1.748a1.706,1.706,0,0,1,1.192,2.045c-.126,1.031-.865,1.791-1.648,1.7S1086.013,8794.332,1086.139,8793.3Z" transform="translate(-1061.706 -8776.825)" fill="#f7c371"/>
            </g>
            <g id="Group_13472" data-name="Group 13472" transform="translate(52.505 8.378)">
              <g id="Group_13471" data-name="Group 13471" transform="translate(9.328)">
                <path id="Path_19926" data-name="Path 19926" d="M1075.394,8770.858c-4.148-1.275-14.547-4.909-15.692-10.04,0,0,10.139-1.957,12.8,2.994C1075.856,8770.063,1075.394,8770.858,1075.394,8770.858Z" transform="translate(-1059.702 -8760.437)" fill="#2d356b"/>
                <g id="Group_13470" data-name="Group 13470" transform="translate(0.857 2.133)">
                  <path id="Path_19927" data-name="Path 19927" d="M1065.173,8767.649c.969,1.232,6.563,5.234,10.355,6.362S1065.173,8767.649,1065.173,8767.649Z" transform="translate(-1062.824 -8765.557)" fill="#2d356b"/>
                  <path id="Path_19928" data-name="Path 19928" d="M1061.165,8764.077a19.377,19.377,0,0,0,4.486,6.1C1067.576,8771.722,1061.165,8764.077,1061.165,8764.077Z" transform="translate(-1061.165 -8764.077)" fill="#2d356b"/>
                </g>
              </g>
              <path id="Path_19929" data-name="Path 19929" d="M1043.83,8777.077c3.139-1.747,10.957-6.562,11.269-11.785,0,0-8.262-.768-9.792,4.455C1043.373,8776.342,1043.83,8777.077,1043.83,8777.077Z" transform="translate(-1043.783 -8762.43)" fill="#2d356b"/>
            </g>
          </g>
        </g>
      </g>
      <g id="Group_13482" data-name="Group 13482" transform="translate(337.677 129.047)">
        <g id="Group_13475" data-name="Group 13475" transform="translate(71.173)">
          <path id="Path_19930" data-name="Path 19930" d="M1110.509,8837.734c-2.015-10.594-4.174-20.006-4.57-20.443h0c-.365-.581-3.984-2.962-7.328-4.968h0c-3.372-2.05-6.6-3.892-6.6-3.892h0l.55-.967c.057.061,12.832,7.271,14.282,9.177h0c.756,1.18,2.658,10.12,4.757,20.881h0c2.056,10.691,4.141,22.874,4.835,29.732h0l-1.107.113c-.685-6.783-2.767-18.967-4.822-29.634Z" transform="translate(-1088.184 -8804.31)" fill="#9999a5"/>
          <path id="Path_19931" data-name="Path 19931" d="M1085.481,8805.374a3.3,3.3,0,1,0,3.3-3.3A3.3,3.3,0,0,0,1085.481,8805.374Z" transform="translate(-1085.481 -8802.078)" fill="#9999a5"/>
        </g>
        <g id="Group_13481" data-name="Group 13481" transform="translate(0 61.44)">
          <g id="Group_13476" data-name="Group 13476" transform="translate(22.315 19.541)">
            <path id="Path_19932" data-name="Path 19932" d="M1003.4,8943.485c.146.373,1.651.676,3.337.676l61.321-.018c1.67,0,3.237-.3,3.471-.672l1.547-2.448c.258-.407-.988-.743-2.762-.743h-64.924c-1.782,0-3.442.465-3.275.868Z" transform="translate(-1002.101 -8940.28)" fill="#9999a5"/>
          </g>
          <g id="Group_13477" data-name="Group 13477" transform="translate(37.554 12.253)">
            <rect id="Rectangle_4585" data-name="Rectangle 4585" width="43.7" height="154.692" fill="#9999a5"/>
            <path id="Path_19933" data-name="Path 19933" d="M1041.709,9079.313a.521.521,0,0,0,.528.508h26.7a.523.523,0,0,0,.537-.508V8952.106a.529.529,0,0,0-.537-.51h-26.7a.527.527,0,0,0-.528.51Z" transform="translate(-1033.739 -8937.677)" fill="#ebebeb"/>
          </g>
          <g id="Group_13479" data-name="Group 13479">
            <g id="Group_13478" data-name="Group 13478" transform="translate(0 1.622)">
              <path id="Path_19934" data-name="Path 19934" d="M1078.361,8911.711c1.286-1.108.944-2.012-.771-2.012h-112.1c-1.71,0-1.963.788-.558,1.746l9.045,8.983c1.4.965,1.794,1.758,3.508,1.758h91.267c1.713,0,1.7-.905,2.985-2.017Z" transform="translate(-964.018 -8909.699)" fill="#cfd0d8"/>
            </g>
            <path id="Path_19935" data-name="Path 19935" d="M964.042,8908.635a.56.56,0,0,0,.568.553h114.07a.559.559,0,0,0,.564-.553v-1.145a.564.564,0,0,0-.564-.56H964.61a.565.565,0,0,0-.568.56Z" transform="translate(-964.028 -8906.931)" fill="#ebebeb"/>
          </g>
          <g id="Group_13480" data-name="Group 13480" transform="translate(22.115 5.555)">
            <path id="Path_19936" data-name="Path 19936" d="M1001.759,8930.007a3.15,3.15,0,0,0,3.234,3.051h64.936a3.157,3.157,0,0,0,3.237-3.051v-10.542a3.163,3.163,0,0,0-3.237-3.053h-64.936a3.156,3.156,0,0,0-3.234,3.053Z" transform="translate(-1001.759 -8916.412)" fill="#cfd0d8"/>
          </g>
        </g>
      </g>
      <g id="Group_18" data-name="Group 18" transform="translate(285.534 210.885)">
        <g id="Group_14" data-name="Group 14" transform="translate(31.911)">
          <path id="Path_69" data-name="Path 69" d="M991.639,8993.765c.317-3.122,1.8-4.81,3.271-4.81s2.371,1.688,2.053,4.81a4.8,4.8,0,0,1-4.216,4.571C991.277,8998.336,991.323,8996.887,991.639,8993.765Z" transform="translate(-958.896 -8961.292)" fill="#9999a5"/>
          <path id="Path_70" data-name="Path 70" d="M941.5,8994.069c-.221-3.123-1.716-4.811-3.257-4.811s-2.543,1.688-2.322,4.811a4.693,4.693,0,0,0,4.256,4.569C941.715,8998.639,941.72,8997.191,941.5,8994.069Z" transform="translate(-935.888 -8961.416)" fill="#9999a5"/>
          <path id="Path_71" data-name="Path 71" d="M941.759,8990.729c.221,1.68,7.237,8.933,15.227,8.933s14.607-6.61,15.994-9.291-4.21-36.81-7.469-39.669-16.4-.969-17.521.536C945.341,8954.812,940.893,8984.116,941.759,8990.729Z" transform="translate(-938.273 -8944.838)" fill="#9999a5"/>
          <path id="Path_72" data-name="Path 72" d="M947.171,8965.17c1.15.522,5.7-10.544,6.647-12.395s.791-3.776-.36-4.3-2.856.557-3.807,2.409S946.02,8964.648,947.171,8965.17Z" transform="translate(-940.443 -8944.477)" fill="#9999a5"/>
          <path id="Path_73" data-name="Path 73" d="M983.9,8964c1.21-.383-1.987-11.616-2.69-13.563s-2.255-3.213-3.465-2.826-1.621,2.274-.919,4.222S982.685,8964.392,983.9,8964Z" transform="translate(-952.694 -8944.145)" fill="#9999a5"/>
          <path id="Path_74" data-name="Path 74" d="M968.18,9018.738H950.117l-2.7,15.545c9.831,4.813,15.575,4.289,23.233-1.051Z" transform="translate(-940.661 -8973.622)" fill="#9999a5"/>
          <path id="Path_75" data-name="Path 75" d="M968.617,9023.374c0-.327-.639-.6-1.426-.6s-1.426.266-1.426.6.639.357,1.426.357S968.617,9023.7,968.617,9023.374Z" transform="translate(-948.258 -8975.294)" fill="#9999a5"/>
          <path id="Path_76" data-name="Path 76" d="M939.892,8981.974c-.634-3.812-1.74-31.145.883-34.752s18.068-5.97,20.485-5.393c5.262,1.251,4.339,4.984,4.339,4.984a9.305,9.305,0,0,1,4.433,1.207c1.817,1.2,5.6,18.424,2.575,31.45-1.361,5.854-6.72,10.957-15.977,11.2C945.152,8990.967,940.68,8986.712,939.892,8981.974Z" transform="translate(-937.222 -8941.742)" fill="#9999a5"/>
          <path id="Path_77" data-name="Path 77" d="M956,8957.674a66.838,66.838,0,0,1-16.113-1.829c-1.43,8.013-.538,28.689.008,31.968.788,4.739,5.259,8.991,16.737,8.7,9.257-.238,14.617-5.342,15.978-11.2,2.464-10.6.414-23.984-1.413-29.242A68.384,68.384,0,0,1,956,8957.674Z" transform="translate(-937.223 -8947.582)" fill="#9999a5"/>
        </g>
        <g id="Group_17" data-name="Group 17" transform="translate(0 58.41)">
          <g id="Group_15" data-name="Group 15" transform="translate(0 9.923)">
            <path id="Path_78" data-name="Path 78" d="M891.436,9197.092l-1.428-4.792,7.958-.165-1.415,4.694Z" transform="translate(-884.981 -9113.748)" fill="#9999a5"/>
            <path id="Path_79" data-name="Path 79" d="M893.8,9194.99a2.409,2.409,0,0,1,2.84,1.549l1.328-4.4-7.958.167,1.428,4.791.271-.014A2.219,2.219,0,0,1,893.8,9194.99Z" transform="translate(-884.981 -9113.748)" fill="#9999a5"/>
            <path id="Path_80" data-name="Path 80" d="M883.4,9108.008c-3.789-.124-1.777-32.266,7.959-49.647,0,0,13.134,12.448,13.774,21.635C905.13,9080,898.691,9108.5,883.4,9108.008Z" transform="translate(-881.501 -9058.36)" fill="#9999a5"/>
            <path id="Path_81" data-name="Path 81" d="M881.683,9127.6s-1.9,13.285,4.688,39.435a12.782,12.782,0,0,0,8.706-1.537s5.269-27.215-1.642-37.006C893.434,9128.494,885.658,9123.963,881.683,9127.6Z" transform="translate(-881.429 -9086.442)" fill="#9999a5"/>
            <path id="Path_82" data-name="Path 82" d="M895.744,9127.811c2.162.838,5.031,2.273,4.74,3.068C899.892,9132.5,895.744,9127.811,895.744,9127.811Z" transform="translate(-887.356 -9087.115)" fill="#9999a5"/>
            <path id="Path_83" data-name="Path 83" d="M896.574,9132.7c1.258-1.852,3.27-4.25,4.053-3.841C902.223,9129.692,896.574,9132.7,896.574,9132.7Z" transform="translate(-887.699 -9087.53)" fill="#9999a5"/>
            <path id="Path_84" data-name="Path 84" d="M912.223,9098.111c-3.6,6.561-8.475,14.829-12.463,19.311,4.994,10.7,1.926,35.518,1.736,37.016.384-.168.773-.348,1.17-.562,0,0,4.644-23.986-.506-35.023C907.926,9112.37,911.138,9102.1,912.223,9098.111Z" transform="translate(-889.019 -9074.818)" fill="#9999a5"/>
            <path id="Path_85" data-name="Path 85" d="M888.076,9187.428a1.138,1.138,0,0,0,1.017-1.272,1.177,1.177,0,0,0-1.191-.966,1.259,1.259,0,0,0-.3.04Z" transform="translate(-883.984 -9110.872)" fill="#9999a5"/>
          </g>
          <g id="Group_16" data-name="Group 16" transform="translate(77.306 8.806)">
            <path id="Path_86" data-name="Path 86" d="M1038.053,9195.186l1.427-4.794-7.958-.165,1.415,4.7Z" transform="translate(-1020.879 -9111.841)" fill="#9999a5"/>
            <path id="Path_87" data-name="Path 87" d="M1035.691,9193.08a2.408,2.408,0,0,0-2.84,1.55l-1.328-4.4,7.958.166-1.427,4.792-.271-.013A2.22,2.22,0,0,0,1035.691,9193.08Z" transform="translate(-1020.879 -9111.84)" fill="#9999a5"/>
            <path id="Path_88" data-name="Path 88" d="M1035.091,9106.1c3.789-.125,1.776-32.268-7.958-49.647,0,0-13.134,12.449-13.774,21.634C1013.358,9078.085,1019.8,9106.594,1035.091,9106.1Z" transform="translate(-1013.358 -9056.453)" fill="#9999a5"/>
            <path id="Path_89" data-name="Path 89" d="M1042.428,9125.7s1.9,13.283-4.688,39.433a12.766,12.766,0,0,1-8.706-1.537s-5.269-27.214,1.642-37.007C1030.677,9126.585,1038.452,9122.058,1042.428,9125.7Z" transform="translate(-1019.053 -9084.538)" fill="#9999a5"/>
            <path id="Path_90" data-name="Path 90" d="M1036,9125.9c-2.162.837-5.031,2.273-4.741,3.068C1031.857,9130.594,1036,9125.9,1036,9125.9Z" transform="translate(-1020.763 -9085.208)" fill="#9999a5"/>
            <path id="Path_91" data-name="Path 91" d="M1035.474,9130.792c-1.259-1.85-3.27-4.25-4.052-3.84C1029.824,9127.786,1035.474,9130.792,1035.474,9130.792Z" transform="translate(-1020.719 -9085.624)" fill="#9999a5"/>
            <path id="Path_92" data-name="Path 92" d="M1014.083,9096.2c3.6,6.559,8.475,14.828,12.463,19.312-4.994,10.7-1.926,35.516-1.736,37.014-.385-.169-.773-.348-1.17-.562,0,0-4.643-23.985.508-35.022C1018.38,9110.46,1015.168,9100.186,1014.083,9096.2Z" transform="translate(-1013.658 -9072.911)" fill="#9999a5"/>
            <path id="Path_93" data-name="Path 93" d="M1045.974,9185.517a1.138,1.138,0,0,1-1.014-1.274,1.2,1.2,0,0,1,1.49-.923Z" transform="translate(-1026.437 -9108.963)" fill="#9999a5"/>
          </g>
          <path id="Path_94" data-name="Path 94" d="M897.93,9051.5c7.067,27,20.374,89.855,20.374,89.855,3.909,3.534,11.927,4.971,20.167,4.907l1.327-3.472,2.2,3.359c8.433-.491,16.52-2.466,20.07-5.287,2.3-11.653,17.13-90.672,17.13-90.672C936.086,9029.729,897.93,9051.5,897.93,9051.5Z" transform="translate(-888.261 -9041.425)" fill="#9999a5"/>
        </g>
        <path id="Path_95" data-name="Path 95" d="M971.361,9035.4c-3.477-3.447-24.869-3.927-29.49.013l-1.589,4.121c9.761,1.05,18.522.777,33.771-.126Z" transform="translate(-905.796 -8979.376)" fill="#9999a5"/>
      </g>
      <g id="Group_29" data-name="Group 29" transform="translate(24.691 211.102)">
        <path id="Path_123" data-name="Path 123" d="M562,8955.035c1.627-1.44,3.792-6.685-1.8-12.066,0,0,1.8,3.889-.723,5.1,0,0,.632-5.19-4.424-5.957,0,0,1.173,1.719.452,2.4,0,0-1.832-2.74-7.042-.5-5.055,2.179-10.941,14.905-9.374,29.133Z" transform="translate(-495.62 -8942.113)" fill="#9999a5"/>
        <g id="Group_28" data-name="Group 28">
          <g id="Group_24" data-name="Group 24" transform="translate(31.912)">
            <path id="Path_124" data-name="Path 124" d="M575.3,8994.136c.316-3.121,1.8-4.81,3.271-4.81s2.371,1.688,2.053,4.81a4.79,4.79,0,0,1-4.215,4.568C574.942,8998.7,574.986,8997.258,575.3,8994.136Z" transform="translate(-542.56 -8961.662)" fill="#9999a5"/>
            <path id="Path_125" data-name="Path 125" d="M525.161,8994.44c-.221-3.123-1.716-4.812-3.257-4.812s-2.543,1.689-2.322,4.813a4.694,4.694,0,0,0,4.255,4.569C525.379,8999.01,525.383,8997.562,525.161,8994.44Z" transform="translate(-519.552 -8961.785)" fill="#9999a5"/>
            <path id="Path_126" data-name="Path 126" d="M525.422,8991.1c.221,1.68,7.237,8.934,15.227,8.934s14.607-6.611,15.994-9.293-4.21-36.809-7.469-39.666-16.4-.971-17.52.535C529,8955.18,524.556,8984.486,525.422,8991.1Z" transform="translate(-521.937 -8945.207)" fill="#9999a5"/>
            <path id="Path_127" data-name="Path 127" d="M530.835,8965.542c1.149.521,5.7-10.545,6.647-12.4s.79-3.776-.361-4.3-2.855.555-3.807,2.408S529.682,8965.02,530.835,8965.542Z" transform="translate(-524.106 -8944.847)" fill="#9999a5"/>
            <path id="Path_128" data-name="Path 128" d="M567.559,8964.376c1.209-.385-1.987-11.617-2.69-13.564s-2.254-3.213-3.465-2.825-1.622,2.274-.92,4.222S566.348,8964.764,567.559,8964.376Z" transform="translate(-536.357 -8944.516)" fill="#9999a5"/>
            <path id="Path_129" data-name="Path 129" d="M551.843,9019.108H533.781l-2.7,15.546c9.831,4.813,15.575,4.291,23.234-1.052Z" transform="translate(-524.324 -8973.992)" fill="#9999a5"/>
            <path id="Path_130" data-name="Path 130" d="M552.28,9023.745c0-.329-.639-.6-1.426-.6s-1.426.266-1.426.6.638.357,1.426.357S552.28,9024.073,552.28,9023.745Z" transform="translate(-531.922 -8975.665)" fill="#9999a5"/>
            <path id="Path_131" data-name="Path 131" d="M523.555,8982.345c-.634-3.812-1.74-31.146.883-34.752s18.068-5.969,20.485-5.393c5.261,1.251,4.339,4.988,4.339,4.988a9.287,9.287,0,0,1,4.433,1.206c1.817,1.2,5.6,18.421,2.574,31.446-1.361,5.854-6.72,10.96-15.977,11.2C528.814,8991.337,524.343,8987.083,523.555,8982.345Z" transform="translate(-520.886 -8942.113)" fill="#9999a5"/>
            <path id="Path_132" data-name="Path 132" d="M539.661,8958.045a66.987,66.987,0,0,1-16.113-1.829c-1.43,8.011-.537,28.688.008,31.968.788,4.737,5.259,8.99,16.737,8.7,9.258-.239,14.617-5.343,15.978-11.2,2.463-10.6.415-23.983-1.413-29.243A68.274,68.274,0,0,1,539.661,8958.045Z" transform="translate(-520.887 -8947.953)" fill="#9999a5"/>
          </g>
          <g id="Group_27" data-name="Group 27" transform="translate(0 58.411)">
            <g id="Group_25" data-name="Group 25" transform="translate(0 9.923)">
              <path id="Path_133" data-name="Path 133" d="M475.1,9197.465l-1.428-4.793,7.958-.164-1.416,4.693Z" transform="translate(-468.644 -9114.121)" fill="#9999a5"/>
              <path id="Path_134" data-name="Path 134" d="M477.462,9195.359a2.412,2.412,0,0,1,2.84,1.553l1.328-4.4-7.958.164,1.428,4.793.271-.016A2.223,2.223,0,0,1,477.462,9195.359Z" transform="translate(-468.644 -9114.121)" fill="#9999a5"/>
              <path id="Path_135" data-name="Path 135" d="M467.061,9108.379c-3.79-.124-1.777-32.267,7.959-49.646,0,0,13.134,12.446,13.774,21.634C488.793,9080.363,482.354,9108.874,467.061,9108.379Z" transform="translate(-465.164 -9058.732)" fill="#9999a5"/>
              <path id="Path_136" data-name="Path 136" d="M465.346,9127.974s-1.9,13.282,4.688,39.433a12.776,12.776,0,0,0,8.706-1.536s5.269-27.214-1.642-37.007C477.1,9128.863,469.321,9124.336,465.346,9127.974Z" transform="translate(-465.092 -9086.814)" fill="#9999a5"/>
              <path id="Path_137" data-name="Path 137" d="M479.407,9128.183c2.162.837,5.031,2.271,4.74,3.066C483.555,9132.872,479.407,9128.183,479.407,9128.183Z" transform="translate(-471.019 -9087.487)" fill="#9999a5"/>
              <path id="Path_138" data-name="Path 138" d="M480.237,9133.07c1.258-1.854,3.27-4.252,4.053-3.843C485.886,9130.061,480.237,9133.07,480.237,9133.07Z" transform="translate(-471.362 -9087.9)" fill="#9999a5"/>
              <path id="Path_139" data-name="Path 139" d="M495.889,9098.484c-3.6,6.559-8.475,14.827-12.462,19.311,4.994,10.7,1.925,35.516,1.735,37.014.384-.168.775-.348,1.17-.562,0,0,4.643-23.984-.507-35.022C491.589,9112.74,494.8,9102.467,495.889,9098.484Z" transform="translate(-472.683 -9075.191)" fill="#9999a5"/>
              <path id="Path_140" data-name="Path 140" d="M471.74,9187.8a1.141,1.141,0,0,0,1.013-1.277,1.175,1.175,0,0,0-1.188-.963,1.315,1.315,0,0,0-.3.041Z" transform="translate(-467.647 -9111.241)" fill="#9999a5"/>
            </g>
            <g id="Group_26" data-name="Group 26" transform="translate(77.306 8.805)">
              <path id="Path_141" data-name="Path 141" d="M621.716,9195.554l1.427-4.791-7.957-.164,1.415,4.694Z" transform="translate(-604.542 -9112.212)" fill="#9999a5"/>
              <path id="Path_142" data-name="Path 142" d="M619.353,9193.453a2.408,2.408,0,0,0-2.84,1.55l-1.328-4.4,7.957.164-1.427,4.791-.271-.011A2.217,2.217,0,0,0,619.353,9193.453Z" transform="translate(-604.542 -9112.212)" fill="#9999a5"/>
              <path id="Path_143" data-name="Path 143" d="M618.753,9106.471c3.79-.124,1.777-32.268-7.958-49.647,0,0-13.134,12.448-13.774,21.636C597.021,9078.459,603.461,9106.967,618.753,9106.471Z" transform="translate(-597.021 -9056.823)" fill="#9999a5"/>
              <path id="Path_144" data-name="Path 144" d="M626.091,9126.067s1.9,13.282-4.688,39.433a12.776,12.776,0,0,1-8.705-1.538s-5.27-27.214,1.641-37.006C614.34,9126.956,622.115,9122.429,626.091,9126.067Z" transform="translate(-602.716 -9084.907)" fill="#9999a5"/>
              <path id="Path_145" data-name="Path 145" d="M619.667,9126.272c-2.162.836-5.031,2.271-4.74,3.066C615.52,9130.964,619.667,9126.272,619.667,9126.272Z" transform="translate(-604.427 -9085.577)" fill="#9999a5"/>
              <path id="Path_146" data-name="Path 146" d="M619.137,9131.162c-1.258-1.852-3.27-4.251-4.053-3.843C613.488,9128.156,619.137,9131.162,619.137,9131.162Z" transform="translate(-604.382 -9085.992)" fill="#9999a5"/>
              <path id="Path_147" data-name="Path 147" d="M597.746,9096.575c3.6,6.558,8.475,14.827,12.463,19.311-4.994,10.7-1.926,35.517-1.736,37.014-.384-.168-.773-.35-1.17-.562,0,0-4.644-23.985.507-35.022C602.044,9110.832,598.831,9100.558,597.746,9096.575Z" transform="translate(-597.321 -9073.282)" fill="#9999a5"/>
              <path id="Path_148" data-name="Path 148" d="M629.637,9185.888a1.138,1.138,0,0,1-1.014-1.273,1.206,1.206,0,0,1,1.49-.924Z" transform="translate(-610.1 -9109.334)" fill="#9999a5"/>
            </g>
            <path id="Path_149" data-name="Path 149" d="M481.594,9051.873c7.066,27,20.374,89.854,20.374,89.854,3.91,3.535,11.927,4.971,20.167,4.907l1.327-3.472,2.2,3.356c8.433-.488,16.519-2.464,20.069-5.284,2.3-11.651,17.13-90.671,17.13-90.671C519.749,9030.1,481.594,9051.873,481.594,9051.873Z" transform="translate(-471.924 -9041.796)" fill="#9999a5"/>
          </g>
          <path id="Path_150" data-name="Path 150" d="M555.023,9035.773c-3.477-3.445-24.868-3.927-29.49.013l-1.589,4.121c9.761,1.049,18.52.775,33.771-.126Z" transform="translate(-489.459 -8979.746)" fill="#9999a5"/>
        </g>
      </g>
      <g id="Group_13493" data-name="Group 13493" transform="translate(175.128 216.499)">
        <g id="Group_13484" data-name="Group 13484" transform="translate(0 60.104)">
          <g id="Group_13483" data-name="Group 13483" transform="translate(30.679 62.047)">
            <path id="Path_19937" data-name="Path 19937" d="M776.522,9171.959c.116-.717-1.151-1.06-2.628-1.234s-2.6-.116-2.722.6.983,1.445,2.461,1.617S776.4,9172.679,776.522,9171.959Z" transform="translate(-763.445 -9164.28)" fill="#9999a5"/>
            <path id="Path_19938" data-name="Path 19938" d="M774.8,9175.045c.117-.721-1.151-1.061-2.628-1.234s-2.6-.119-2.723.6.984,1.439,2.462,1.617S774.675,9175.764,774.8,9175.045Z" transform="translate(-762.73 -9165.556)" fill="#9999a5"/>
            <path id="Path_19939" data-name="Path 19939" d="M779.112,9164.993c-.707-.228-1.575,1.483-2.35,3.5s-1.168,3.564-.459,3.795,1.908-1.216,2.683-3.23S779.819,9165.225,779.112,9164.993Z" transform="translate(-765.42 -9161.932)" fill="#9999a5"/>
            <path id="Path_19940" data-name="Path 19940" d="M759.258,9159.784c3.147.514,13.171,1.363,12.908,4.782-.235,3.058-4.869,6.391-14.174-2.038Z" transform="translate(-757.992 -9159.784)" fill="#9999a5"/>
          </g>
          <path id="Path_19941" data-name="Path 19941" d="M725.34,9054.067c-7.582-3.413-19.927,44.8-19.7,46.562,0,0,4.579,4.349,5.9,2.74C714.973,9099.21,728.726,9055.593,725.34,9054.067Z" transform="translate(-705.636 -9053.895)" fill="#9999a5"/>
          <path id="Path_19942" data-name="Path 19942" d="M737.3,9148.4c3.95-4.941-26.644-21.062-27.984-21.221,0,0-4.076,2.563-3.137,3.834C708.605,9134.293,735.533,9150.605,737.3,9148.4Z" transform="translate(-705.801 -9084.236)" fill="#9999a5"/>
          <path id="Path_19943" data-name="Path 19943" d="M754.948,9161.29l-1.436,1.395L746,9161.5s1.978-2.935,2.782-3.277S754.948,9161.29,754.948,9161.29Z" transform="translate(-722.346 -9097.078)" fill="#9999a5"/>
          <path id="Path_19944" data-name="Path 19944" d="M757.449,9157.813l.751-1.869-4.018-6.468s-1.987,2.969-2,3.844S757.449,9157.813,757.449,9157.813Z" transform="translate(-724.908 -9093.469)" fill="#9999a5"/>
        </g>
        <g id="Group_13486" data-name="Group 13486" transform="translate(16.836 60.446)">
          <g id="Group_13485" data-name="Group 13485" transform="translate(0 61.682)">
            <path id="Path_19945" data-name="Path 19945" d="M735.914,9170.049c-.087-.63,1.026-.907,2.319-1.03s2.275-.054,2.365.577-.886,1.242-2.18,1.366S736,9170.678,735.914,9170.049Z" transform="translate(-735.006 -9163.563)" fill="#9999a5"/>
            <path id="Path_19946" data-name="Path 19946" d="M737.363,9172.776c-.089-.63,1.024-.9,2.318-1.026s2.276-.058,2.366.573-.886,1.24-2.181,1.367S737.454,9173.405,737.363,9172.776Z" transform="translate(-735.606 -9164.693)" fill="#9999a5"/>
            <path id="Path_19947" data-name="Path 19947" d="M734.825,9163.9c.622-.187,1.348,1.324,1.986,3.1s.953,3.136.329,3.324-1.643-1.1-2.282-2.874S734.2,9164.083,734.825,9163.9Z" transform="translate(-734.368 -9161.458)" fill="#9999a5"/>
            <path id="Path_19948" data-name="Path 19948" d="M745.737,9159.744c-2.759.391-11.529.941-11.364,3.933.148,2.675,4.132,5.675,12.417-1.513Z" transform="translate(-734.369 -9159.744)" fill="#9999a5"/>
          </g>
          <path id="Path_19949" data-name="Path 19949" d="M776.357,9054.636c7.654-3.249,18.952,45.224,18.689,46.977,0,0-4.672,4.246-5.962,2.611C785.745,9099.991,772.939,9056.087,776.357,9054.636Z" transform="translate(-751.515 -9054.479)" fill="#9999a5"/>
          <path id="Path_19950" data-name="Path 19950" d="M754.049,9148.926c-3.842-5.027,27.093-20.484,28.437-20.611,0,0,4.019,2.65,3.053,3.9C783.039,9135.443,755.764,9151.168,754.049,9148.926Z" transform="translate(-742.38 -9085.05)" fill="#9999a5"/>
          <path id="Path_19951" data-name="Path 19951" d="M752.392,9161.437l1.406,1.423,7.54-1.024s-1.914-2.978-2.71-3.337S752.392,9161.437,752.392,9161.437Z" transform="translate(-741.83 -9097.535)" fill="#9999a5"/>
          <path id="Path_19952" data-name="Path 19952" d="M751.989,9157.919l-.71-1.884,4.157-6.381s1.922,3.012,1.914,3.888S751.989,9157.919,751.989,9157.919Z" transform="translate(-741.37 -9093.884)" fill="#9999a5"/>
        </g>
        <g id="Group_13487" data-name="Group 13487" transform="translate(6.377 42.345)">
          <path id="Path_19953" data-name="Path 19953" d="M716.519,9125.2s10.162,9,20.325,12.376l5.292-11.439,4.87,11.439s13.737-3.869,19.265-12.376c-11.194-16.232-15.617-29.775-4.008-46.671,0,0-4.672-30.213-21.609-30.964s-19.955,32.209-19.955,32.209C731.709,9096.275,735.314,9103.44,716.519,9125.2Z" transform="translate(-716.519 -9033.51)" fill="#9999a5"/>
          <path id="Path_19954" data-name="Path 19954" d="M750.5,9061.881a10.247,10.247,0,0,1,6.562,2.366c1.717-3.905,2.863-8.711,1.638-13.613-10.311-7.754-16.664.806-16.664.806s-1.351,5.34,2.285,12.52A10.237,10.237,0,0,1,750.5,9061.881Z" transform="translate(-726.98 -9033.441)" fill="#9999a5"/>
          <path id="Path_19955" data-name="Path 19955" d="M747.142,9050.405s-1.716,8.6,6.082,17.939c0,0,6.628-9.086,4.756-18.6C751.274,9043.335,747.142,9050.405,747.142,9050.405Z" transform="translate(-729.132 -9033.305)" fill="#9999a5"/>
          <rect id="Rectangle_4586" data-name="Rectangle 4586" width="8.845" height="16.581" transform="translate(19.072)" fill="#9999a5"/>
          <path id="Path_19956" data-name="Path 19956" d="M763.111,9117.05a1.243,1.243,0,1,0-1.243,1.245A1.244,1.244,0,0,0,763.111,9117.05Z" transform="translate(-734.78 -9061.77)" fill="#9999a5"/>
          <path id="Path_19957" data-name="Path 19957" d="M763.111,9133.639a1.243,1.243,0,1,0-1.243,1.243A1.242,1.242,0,0,0,763.111,9133.639Z" transform="translate(-734.78 -9068.64)" fill="#9999a5"/>
          <path id="Path_19958" data-name="Path 19958" d="M763.111,9166.816a1.243,1.243,0,1,0-1.243,1.245A1.244,1.244,0,0,0,763.111,9166.816Z" transform="translate(-734.78 -9082.374)" fill="#9999a5"/>
          <path id="Path_19959" data-name="Path 19959" d="M763.111,9150.229a1.243,1.243,0,1,0-1.243,1.243A1.243,1.243,0,0,0,763.111,9150.229Z" transform="translate(-734.78 -9075.508)" fill="#9999a5"/>
        </g>
        <g id="Group_13492" data-name="Group 13492" transform="translate(3.975)">
          <g id="Group_13488" data-name="Group 13488">
            <path id="Path_19960" data-name="Path 19960" d="M733.67,8989.719c1.327,2.512,1.593,9.123-2.386,12.955-6.38,6.146-10.877-2.116-10.877-2.116,1.989,3.04,6.367,2.515,5.969-1.189s-2.122-.922-5.173-3.04.4-5.287-.4-6.742c-2.161-3.944-5.173-1.188-7.03-4.36-6.792-11.606,13.661-36.748,23.345-33.574,0,0,20.752-5.967,23.743,32.912.132,1.72-6.234,3.439-5.306,7.008s1.593,2.51.4,4.626-8.223,1.851-5.571,4.759,5.572,1.586,6.5.13c0,0-4.377,9.386-12.866-.791s-.531-11.1-.531-11.1Z" transform="translate(-712.419 -8951.322)" fill="#9999a5"/>
          </g>
          <g id="Group_13489" data-name="Group 13489" transform="translate(10.154 14.291)">
            <path id="Path_19961" data-name="Path 19961" d="M746.752,9015.133c-5.5,0-17.9-15.046-12.778-33.534,1.036-3.735,5.1-5.887,12.778-5.887,8.448,0,12.313,2.283,12.928,5.31C764.033,9002.42,752.385,9015.133,746.752,9015.133Z" transform="translate(-730.995 -8975.712)" fill="#9999a5"/>
            <path id="Path_19962" data-name="Path 19962" d="M760.08,8990.925c1.925-.39,6.116-.728,8.348,4.354C766.179,8992.2,764.434,8991.048,760.08,8990.925Z" transform="translate(-742.306 -8981.928)" fill="#9999a5"/>
            <path id="Path_19963" data-name="Path 19963" d="M745.318,8991.783c-1.854-.616-5.949-1.453-8.78,3.324C739.139,8992.319,741,8991.388,745.318,8991.783Z" transform="translate(-732.559 -8982.167)" fill="#9999a5"/>
            <path id="Path_19964" data-name="Path 19964" d="M767.521,9003.31a1.525,1.525,0,1,0-1.4,1.962A1.727,1.727,0,0,0,767.521,9003.31Z" transform="translate(-744.163 -8986.378)" fill="#9999a5"/>
            <path id="Path_19965" data-name="Path 19965" d="M768.317,9003.03c-1.427-1.242-3.335-2.405-6.187-.962A12.694,12.694,0,0,1,768.317,9003.03Z" transform="translate(-743.155 -8986.348)" fill="#9999a5"/>
            <path id="Path_19966" data-name="Path 19966" d="M743.036,9003.31a1.525,1.525,0,1,1,1.4,1.962A1.727,1.727,0,0,1,743.036,9003.31Z" transform="translate(-735.249 -8986.378)" fill="#9999a5"/>
            <path id="Path_19967" data-name="Path 19967" d="M739.962,9003.03c1.427-1.242,3.335-2.405,6.184-.962A12.687,12.687,0,0,0,739.962,9003.03Z" transform="translate(-733.977 -8986.348)" fill="#9999a5"/>
            <path id="Path_19968" data-name="Path 19968" d="M753.758,9013.264a4,4,0,0,0,1.648.686,2.344,2.344,0,0,0,1.649-.753c.073-.455-1.13-5.514-1.557-5.559S753.726,9012.605,753.758,9013.264Z" transform="translate(-739.689 -8988.931)" fill="#9999a5"/>
            <path id="Path_19969" data-name="Path 19969" d="M755.463,9011.887c0,.105.49.265.663.265.295,0,.651-.151.663-.333.029-.442.264-5.466-.626-5.418C755.189,9006.45,755.451,9011.246,755.463,9011.887Z" transform="translate(-740.378 -8988.42)" fill="#9999a5"/>
            <path id="Path_19970" data-name="Path 19970" d="M757.311,9032.25c0-.613-.677-.553-1.55-.553s-1.612-.061-1.612.553.707,1.111,1.581,1.111S757.311,9032.862,757.311,9032.25Z" transform="translate(-739.851 -8998.892)" fill="#9999a5"/>
            <path id="Path_19971" data-name="Path 19971" d="M757.638,9022.464c-1.85-.993-2.459-.087-2.886-.087-.544,0-1.089-.919-2.966.087-.54.288,1.31,1.108,2.927,1.108S758.178,9022.752,757.638,9022.464Z" transform="translate(-738.833 -8994.873)" fill="#9999a5"/>
            <path id="Path_19972" data-name="Path 19972" d="M749.573,9022.876h8.5s-1.14,6.118-4.25,6.118S749.573,9022.876,749.573,9022.876Z" transform="translate(-737.956 -8995.239)" fill="#9999a5"/>
            <path id="Path_19973" data-name="Path 19973" d="M757.845,9023.41h-7.32l.8,2.488h5.71Z" transform="translate(-738.351 -8995.463)" fill="#9999a5"/>
            <path id="Path_19974" data-name="Path 19974" d="M764.292,9022.5a.432.432,0,1,0-.427.5A.468.468,0,0,0,764.292,9022.5Z" transform="translate(-743.696 -8994.875)" fill="#9999a5"/>
            <path id="Path_19975" data-name="Path 19975" d="M749.581,9022.5a.433.433,0,1,0-.427.5A.468.468,0,0,0,749.581,9022.5Z" transform="translate(-737.605 -8994.875)" fill="#9999a5"/>
            <path id="Path_19976" data-name="Path 19976" d="M731.961,9009.2c-.26-1.213-.1-2.2-.994-2.007a2.017,2.017,0,0,0-1.151,2.542c.258,1.213,1.2,2.041,2.09,1.849S732.219,9010.415,731.961,9009.2Z" transform="translate(-729.748 -8988.737)" fill="#9999a5"/>
            <path id="Path_19977" data-name="Path 19977" d="M779.326,9009.225c.231-1.22.036-2.2.962-2.029a2.037,2.037,0,0,1,1.262,2.528c-.229,1.219-1.168,2.065-2.094,1.891S779.1,9010.446,779.326,9009.225Z" transform="translate(-750.117 -8988.74)" fill="#9999a5"/>
          </g>
          <g id="Group_13491" data-name="Group 13491" transform="translate(9.981 8.082)">
            <path id="Path_19978" data-name="Path 19978" d="M729.492,8982.627c4.834-2.3,16.916-8.7,17.883-16.431,0,0-12.2-1.934-14.983,5.679C728.883,8981.485,729.492,8982.627,729.492,8982.627Z" transform="translate(-729.452 -8965.472)" fill="#9999a5"/>
            <path id="Path_19979" data-name="Path 19979" d="M769.519,8996.035c-.849-3.341-1.632-8.454-1.29-11.39.468-4.021-11.836-13.314-13.56-16.756-2.459-4.91,8.422-1.8,8.422-1.8C772.938,8975.1,770.726,8984.782,769.519,8996.035Z" transform="translate(-739.743 -8965.116)" fill="#9999a5"/>
            <g id="Group_13490" data-name="Group 13490" transform="translate(6.955 1.322)">
              <path id="Path_19980" data-name="Path 19980" d="M752.156,8967.371c-.745,5.129-6.1,10.006-10.835,13.393,5.247-3.158,11.294-7.891,11.966-13.267C753.287,8967.5,752.862,8967.431,752.156,8967.371Z" transform="translate(-741.321 -8967.371)" fill="#9999a5"/>
            </g>
          </g>
        </g>
      </g>
      <g id="Group_13495" data-name="Group 13495" transform="translate(431.865 271.813)">
        <g id="Group_13494" data-name="Group 13494" transform="translate(29.289 69.973)">
          <path id="Path_19981" data-name="Path 19981" d="M1166.568,9165.137c2.474.758,10.44,2.541,9.848,5.258-.53,2.43-4.629,4.6-11.173-3.193Z" transform="translate(-1165.243 -9165.137)" fill="#9999a5"/>
          <path id="Path_19982" data-name="Path 19982" d="M1179.245,9176.807c.173-.565-.807-.979-1.976-1.281s-2.08-.381-2.256.184.63,1.267,1.8,1.567S1179.07,9177.368,1179.245,9176.807Z" transform="translate(-1169.278 -9169.341)" fill="#9999a5"/>
          <path id="Path_19983" data-name="Path 19983" d="M1180.617,9174.207c.174-.566-.806-.979-1.975-1.28s-2.08-.38-2.256.185.63,1.267,1.8,1.567S1180.442,9174.77,1180.617,9174.207Z" transform="translate(-1169.847 -9168.266)" fill="#9999a5"/>
          <path id="Path_19984" data-name="Path 19984" d="M1177.511,9179.092c.174-.564-.806-.979-1.976-1.281s-2.08-.38-2.257.185.631,1.266,1.8,1.567S1177.336,9179.654,1177.511,9179.092Z" transform="translate(-1168.56 -9170.288)" fill="#9999a5"/>
          <path id="Path_19985" data-name="Path 19985" d="M1181.644,9171.639c-.544-.263-1.432,1.014-2.281,2.547s-1.337,2.733-.793,3,1.67-.768,2.518-2.3S1182.186,9171.9,1181.644,9171.639Z" transform="translate(-1170.666 -9167.813)" fill="#9999a5"/>
          <path id="Path_19986" data-name="Path 19986" d="M1176.9,9169.533c-.347-.289-1.289.312-2.175,1.266s-1.381,1.9-1.034,2.185,1.344-.253,2.23-1.207S1177.249,9169.818,1176.9,9169.533Z" transform="translate(-1168.696 -9166.926)" fill="#9999a5"/>
          <path id="Path_19987" data-name="Path 19987" d="M1170.6,9166.793a1.717,1.717,0,0,0,1.046,2.338c1.276.246,3.97-.065,4.028-.515s-.864-1.189-2.316-1.534C1172.094,9166.782,1171.273,9166.158,1170.6,9166.793Z" transform="translate(-1167.394 -9165.71)" fill="#9999a5"/>
        </g>
        <path id="Path_19988" data-name="Path 19988" d="M1144.928,9046.1c-7.632-5.263-29.388,46.057-29.438,47.848,0,0,3.531,3,5.1,1.625C1124.689,9091.972,1148.325,9048.44,1144.928,9046.1Z" transform="translate(-1115.354 -9045.721)" fill="#9999a5"/>
        <path id="Path_19989" data-name="Path 19989" d="M1146.128,9146.988c-3.972,5.579-30.3-21.737-30.87-23.083,0,0,1.452-5,3.059-4.4C1122.477,9121.042,1147.9,9144.5,1146.128,9146.988Z" transform="translate(-1115.258 -9076.25)" fill="#9999a5"/>
        <path id="Path_19990" data-name="Path 19990" d="M1165.954,9163.437l.7-1.976-4.414-6.625s-1.925,3.162-1.9,4.077S1165.954,9163.437,1165.954,9163.437Z" transform="translate(-1133.922 -9090.898)" fill="#9999a5"/>
        <path id="Path_19991" data-name="Path 19991" d="M1163.484,9167.143l-1.448,1.529-7.905-.99s1.954-3.188,2.781-3.581S1163.484,9167.143,1163.484,9167.143Z" transform="translate(-1131.353 -9094.722)" fill="#9999a5"/>
      </g>
      <g id="Group_13497" data-name="Group 13497" transform="translate(473.858 272.349)">
        <g id="Group_13496" data-name="Group 13496" transform="translate(0 70.791)">
          <path id="Path_19992" data-name="Path 19992" d="M1197.753,9167.447c-2.69.854-11.368,2.892-10.654,5.821.638,2.623,5.175,4.911,12.154-3.607Z" transform="translate(-1186.979 -9167.447)" fill="#9999a5"/>
          <path id="Path_19993" data-name="Path 19993" d="M1189.453,9180.239c-.2-.609.86-1.07,2.133-1.411s2.267-.44,2.473.168-.66,1.378-1.932,1.721S1189.658,9180.848,1189.453,9180.239Z" transform="translate(-1187.961 -9172.046)" fill="#9999a5"/>
          <path id="Path_19994" data-name="Path 19994" d="M1187.888,9177.446c-.2-.607.86-1.067,2.132-1.413s2.268-.438,2.473.17-.659,1.379-1.931,1.722S1188.093,9178.055,1187.888,9177.446Z" transform="translate(-1187.313 -9170.889)" fill="#9999a5"/>
          <path id="Path_19995" data-name="Path 19995" d="M1191.4,9182.691c-.2-.608.86-1.07,2.133-1.412s2.268-.442,2.474.167-.661,1.377-1.934,1.723S1191.609,9183.3,1191.4,9182.691Z" transform="translate(-1188.768 -9173.06)" fill="#9999a5"/>
          <path id="Path_19996" data-name="Path 19996" d="M1187.223,9174.706c.59-.292,1.592,1.079,2.557,2.723s1.528,2.94.939,3.233-1.846-.808-2.812-2.455S1186.635,9174.994,1187.223,9174.706Z" transform="translate(-1186.924 -9170.438)" fill="#9999a5"/>
          <path id="Path_19997" data-name="Path 19997" d="M1192.474,9172.36c.373-.315,1.419.32,2.41,1.339s1.557,2.034,1.184,2.349-1.477-.255-2.469-1.274S1192.1,9172.675,1192.474,9172.36Z" transform="translate(-1189.171 -9169.448)" fill="#9999a5"/>
          <path id="Path_19998" data-name="Path 19998" d="M1197.947,9169.288a1.837,1.837,0,0,1-1.09,2.543c-1.391.284-4.346-.018-4.421-.5s.916-1.3,2.5-1.693C1196.31,9169.295,1197.193,9168.609,1197.947,9169.288Z" transform="translate(-1189.204 -9168.09)" fill="#9999a5"/>
        </g>
        <path id="Path_19999" data-name="Path 19999" d="M1204.627,9047c7.734-5.247,29.257,48.4,29.3,50.173,0,0-3.805,4.953-5.35,3.586C1224.512,9097.161,1201.188,9049.33,1204.627,9047Z" transform="translate(-1194.111 -9046.635)" fill="#9999a5"/>
        <path id="Path_20000" data-name="Path 20000" d="M1203.854,9153.106c-4.877-4.475,24.163-26.055,25.524-26.434,0,0,4.626,2,3.859,3.461C1231.253,9133.918,1206.032,9155.1,1203.854,9153.106Z" transform="translate(-1193.705 -9079.774)" fill="#9999a5"/>
        <path id="Path_20001" data-name="Path 20001" d="M1202.305,9169.222l1.709,1.209,7.579-2.433s-2.517-2.717-3.4-2.944S1202.305,9169.222,1202.305,9169.222Z" transform="translate(-1193.292 -9095.661)" fill="#9999a5"/>
        <path id="Path_20002" data-name="Path 20002" d="M1201.688,9165.929l-1.075-1.81,3.115-7.334s2.531,2.751,2.682,3.654S1201.688,9165.929,1201.688,9165.929Z" transform="translate(-1192.592 -9092.243)" fill="#9999a5"/>
      </g>
      <g id="Group_13498" data-name="Group 13498" transform="translate(445.773 255.941)">
        <rect id="Rectangle_4587" data-name="Rectangle 4587" width="9.254" height="18.396" transform="translate(22.846)" fill="#9999a5"/>
        <path id="Path_20003" data-name="Path 20003" d="M1191.046,9124.935c-21.915,17.19-44.24,12.022-52.053,0,21.054-30.528-9.123-79.631,26.8-81.225C1200.4,9042.179,1168.557,9098.9,1191.046,9124.935Z" transform="translate(-1138.993 -9029.004)" fill="#9999a5"/>
      </g>
      <path id="Path_20004" data-name="Path 20004" d="M1201.865,9003.465c0-1.744-2.405-3.158-5.372-3.158s-5.373,1.414-5.373,3.158,2.405,3.154,5.373,3.154S1201.865,9005.205,1201.865,9003.465Z" transform="translate(-714.803 -8755.105)" fill="#9999a5"/>
      <g id="Group_13499" data-name="Group 13499" transform="translate(453.739 210.312)">
        <path id="Path_20005" data-name="Path 20005" d="M1174.094,9005.147c-6,.145-19.979-18.368-14.951-41.655,1.017-4.707,5.383-7.507,13.761-7.708,9.216-.223,13.5,2.537,14.263,6.31C1192.561,8988.776,1180.239,9005,1174.094,9005.147Z" transform="translate(-1154.859 -8946.978)" fill="#9999a5"/>
        <path id="Path_20006" data-name="Path 20006" d="M1161.793,8993.65c-4.844-3.754-14.168-23.857-5.934-34.877,11.554-15.462,29.631-5.317,31.969,5.207a33.155,33.155,0,0,1-8.84,31C1171.238,9002.852,1161.793,8993.65,1161.793,8993.65Z" transform="translate(-1152.588 -8944.939)" fill="#9999a5"/>
        <path id="Path_20007" data-name="Path 20007" d="M1186.731,8961.581c0-1.743-2.4-3.156-5.372-3.156s-5.372,1.413-5.372,3.156,2.4,3.156,5.372,3.156S1186.731,8963.324,1186.731,8961.581Z" transform="translate(-1162.276 -8948.076)" fill="#9999a5"/>
        <ellipse id="Ellipse_142" data-name="Ellipse 142" cx="8.461" cy="7.12" rx="8.461" ry="7.12" transform="translate(11.045)" fill="#9999a5"/>
      </g>
      <g id="students" transform="translate(19.617 324.805)">
        <g id="Group_35" data-name="Group 35">
          <path id="Path_179" data-name="Path 179" d="M572.043,9186.767H463.107l-6.586-41.448c-.771-4.848,3.659-9.161,9.409-9.161h89.78c4.751,0,8.77,2.988,9.407,7Z" transform="translate(-456.433 -9136.157)" fill="#2e3667"/>
          <path id="Path_180" data-name="Path 180" d="M778.743,9186.767H669.805l-4.972-41.716c-.565-4.76,3.824-8.894,9.446-8.894h89.853c4.871,0,8.952,3.139,9.446,7.264Z" transform="translate(-533.925 -9136.157)" fill="#2e3667"/>
          <path id="Path_181" data-name="Path 181" d="M984.225,9145.051l-4.971,41.716H870.316l5.164-43.346c.493-4.125,4.572-7.264,9.446-7.264h89.853C980.4,9136.157,984.791,9140.291,984.225,9145.051Z" transform="translate(-610.368 -9136.157)" fill="#2e3667"/>
          <path id="Path_182" data-name="Path 182" d="M1191.371,9145.317l-6.587,41.449H1075.849l6.929-43.614c.637-4.007,4.655-7,9.406-7h89.779C1187.709,9136.157,1192.141,9140.471,1191.371,9145.317Z" transform="translate(-686.693 -9136.157)" fill="#2e3667"/>
        </g>
      </g>
    </g>
    <text id="Sales_Campaign" data-name="Sales Campaign" transform="translate(583.674 8638.307)" fill="#2d356b" font-size="20" font-family="TrebuchetMS-Bold, Trebuchet MS" font-weight="700" text-decoration="underline"><tspan x="-71.553" y="0">Sales Campaign</tspan></text>
    <text id="Goal_Start_End" data-name="Goal
Start
End" transform="translate(489.239 8699.301)" fill="#2d356b" font-size="20" font-family="TrebuchetMS-Bold, Trebuchet MS" font-weight="700"><tspan x="0" y="0" text-decoration="underline">Goal</tspan><tspan y="0"></tspan><tspan x="0" y="28" text-decoration="underline">Start</tspan><tspan y="28"></tspan><tspan text-decoration="underline"><tspan x="0" y="56">End</tspan></tspan></text>
    <g id="Group_13501" data-name="Group 13501" transform="translate(597.602 8679.302)">
      <text id="Sales_25_June_1st_August_31st" data-name="Sales 25%
June 1st
August 31st" transform="translate(0 20)" fill="#7b88ac" font-size="20" font-family="TrebuchetMS-Bold, Trebuchet MS" font-weight="700"><tspan x="0" y="0">Sales 25%</tspan><tspan x="0" y="28">June 1st</tspan><tspan x="0" y="56">August 31st</tspan></text>
      <path id="Path_20008" data-name="Path 20008" d="M913.919,8753.29l-10.758,10.9H909.4v7.771h9.112v-7.771h6.169Z" transform="translate(-805.669 -8750.559)" fill="#f46973"/>
    </g>
  </g>
</svg>
