<svg xmlns="http://www.w3.org/2000/svg" width="540" height="397.466" viewBox="0 0 540 397.466">
  <g id="Group_11965" data-name="Group 11965" transform="translate(-39.983 -3729.028)">
    <g id="Group_11717" data-name="Group 11717" transform="translate(39.983 3730.137)">
      <g id="Group_11668" data-name="Group 11668" transform="translate(0)">
        <g id="Group_11667" data-name="Group 11667">
          <g id="Group_11666" data-name="Group 11666">
            <g id="Group_11665" data-name="Group 11665">
              <g id="Group_11664" data-name="Group 11664">
                <g id="Group_11661" data-name="Group 11661" transform="translate(0.666)">
                  <g id="Group_11657" data-name="Group 11657" transform="translate(0.152)">
                    <path id="Path_15630" data-name="Path 15630" d="M580.708,3746.971h.639v-13.905H42.166v290.606H580.7v-29.191h.005Z" transform="translate(-42.166 -3732.659)" fill="#fff"/>
                    <rect id="Rectangle_3683" data-name="Rectangle 3683" width="538.362" height="0.813" transform="translate(0 290.607)" fill="#a0bacb"/>
                    <rect id="Rectangle_3684" data-name="Rectangle 3684" width="539.181" height="0.813" fill="#7b88ac"/>
                  </g>
                  <g id="Group_11658" data-name="Group 11658" transform="translate(0 59.38)">
                    <path id="Path_15631" data-name="Path 15631" d="M154.29,3891.572v-.213h-9.782v.213H43.4v177.175H251.042V3891.572Zm88.155,5.689v38.959H154.29v-38.959Zm-97.937,45.683v74.432H51.994v-74.432Zm9.782,74.432v-74.432h88.155v74.432Zm-9.782-120.114v38.959H51.994v-38.959ZM51.994,4024.1h92.515v38.959H51.994Zm102.3,38.959V4024.1h88.155v38.959Z" transform="translate(-42.783 -3890.953)" fill="#ebebeb"/>
                    <path id="Path_15632" data-name="Path 15632" d="M250.633,4068.476H41.76V3890.489H142.871v-.213h11.01v.213h96.752Zm-207.645-.812H249.4V3891.3H152.653v-.213H144.1v.213H42.988Zm199.048-4.876H152.653v-39.772h89.383Zm-88.155-.813h86.927v-38.147H153.881Zm-9.782.813H50.356v-39.772H144.1Zm-92.515-.813h91.287v-38.147H51.585Zm190.452-44.87H152.653V3941.86h89.383Zm-88.155-.813h86.927v-73.619H153.881Zm-9.782.813H50.356V3941.86H144.1Zm-92.515-.813h91.287v-73.619H51.585Zm190.452-80.342H152.653v-39.772h89.383Zm-88.155-.813h86.927V3896.99H153.881Zm-9.782.813H50.356v-39.772H144.1Zm-92.515-.813h91.287V3896.99H51.585Z" transform="translate(-41.76 -3890.276)" fill="#ebebeb"/>
                  </g>
                  <g id="Group_11659" data-name="Group 11659" transform="translate(193.463 58.332)">
                    <path id="Path_15633" data-name="Path 15633" d="M877.375,3888.777v-.213H868.4v.213H775.661v177.175H966.118V3888.777Zm80.858,5.689v38.959H877.375v-38.959Zm-89.83,45.683v74.432H783.546v-74.432Zm8.972,74.432v-74.432h80.858v74.432ZM868.4,3894.466v38.959H783.546v-38.959ZM783.546,4021.3H868.4v38.96H783.546Zm93.829,38.96V4021.3h80.858v38.96Z" transform="translate(-775.098 -3888.157)" fill="#ebebeb"/>
                    <path id="Path_15634" data-name="Path 15634" d="M965.743,4065.681H774.159V3887.694H866.9v-.213H877v.213h88.743Zm-190.457-.812H964.616V3888.507H875.873v-.213h-7.845v.213H775.286Zm182.572-4.876H875.873V4020.22h81.984ZM877,4059.18h79.731v-38.147H877Zm-8.972.813H782.044V4020.22h85.984Zm-84.857-.812H866.9v-38.147h-83.73Zm174.687-44.87H875.873v-75.245h81.984ZM877,4013.5h79.731v-73.619H877Zm-8.972.813H782.044v-75.245h85.984Zm-84.857-.813H866.9v-73.619h-83.73Zm174.687-80.342H875.873v-39.772h81.984ZM877,3932.342h79.731V3894.2H877Zm-8.972.813H782.044v-39.772h85.984Zm-84.857-.813H866.9V3894.2h-83.73Z" transform="translate(-774.159 -3887.481)" fill="#ebebeb"/>
                  </g>
                  <g id="Group_11660" data-name="Group 11660" transform="translate(374.616 59.38)">
                    <path id="Path_15635" data-name="Path 15635" d="M1594.8,4063.058h-52.4V4024.1h52.4v-6.723h-52.4v-74.432h52.4v-6.723h-52.4v-38.959h52.4v-5.689h-52.4v-.213h-9.782v.213H1431.5v177.175H1594.8Zm-62.181,0H1440.1V4024.1h92.515Zm0-45.683H1440.1v-74.432h92.515Zm0-81.155H1440.1v-38.959h92.515Z" transform="translate(-1430.89 -3890.952)" fill="#ebebeb"/>
                    <path id="Path_15636" data-name="Path 15636" d="M1725.482,4283.9h53.013v-.812H1726.71V4244.94h51.785v-.813h-53.013Z" transform="translate(-1614.589 -4111.388)" fill="#ebebeb"/>
                    <path id="Path_15637" data-name="Path 15637" d="M1725.482,4103.033h53.013v-.813H1726.71V4028.6h51.785v-.813h-53.013Z" transform="translate(-1614.589 -3976.203)" fill="#ebebeb"/>
                    <path id="Path_15638" data-name="Path 15638" d="M1725.482,3945.781h53.013v-.812H1726.71v-38.147h51.785v-.812h-53.013Z" transform="translate(-1614.589 -3900.107)" fill="#ebebeb"/>
                    <path id="Path_15639" data-name="Path 15639" d="M1546.527,3906.009h-93.742v39.772h93.742Zm-1.228,38.959h-91.286v-38.147H1545.3Z" transform="translate(-1444.188 -3900.107)" fill="#ebebeb"/>
                    <path id="Path_15640" data-name="Path 15640" d="M1593.774,4067.663H1431.1V3891.3h101.111v-.213h8.554v.213h53.013v-.812h-51.785v-.213h-11.01v.213H1429.868v177.987h163.906Z" transform="translate(-1429.868 -3890.276)" fill="#ebebeb"/>
                    <path id="Path_15641" data-name="Path 15641" d="M1452.785,4283.9h93.742v-39.772h-93.742Zm1.228-38.959H1545.3v38.146h-91.286Z" transform="translate(-1444.188 -4111.388)" fill="#ebebeb"/>
                    <path id="Path_15642" data-name="Path 15642" d="M1546.527,4027.788h-93.742v75.245h93.742Zm-1.228,74.432h-91.286V4028.6H1545.3Z" transform="translate(-1444.188 -3976.203)" fill="#ebebeb"/>
                  </g>
                </g>
                <g id="Group_11662" data-name="Group 11662" transform="translate(0 256.027)">
                  <path id="Path_15643" data-name="Path 15643" d="M579.165,4415.41H40.628v99.708h-.644V4555.4H579.159V4419.658h.005Z" transform="translate(-39.984 -4415.064)" fill="#f9f9f9"/>
                  <rect id="Rectangle_3685" data-name="Rectangle 3685" width="536.936" height="0.583" transform="translate(2.448 139.529)" fill="#f9f9f9"/>
                  <rect id="Rectangle_3686" data-name="Rectangle 3686" width="538.369" height="0.583" transform="translate(0.819)" fill="#f9f9f9"/>
                </g>
                <g id="Group_11663" data-name="Group 11663" transform="translate(18.622 5.123)">
                  <path id="Path_15644" data-name="Path 15644" d="M1140.68,3832.583V3745.64h-2.314v86.943c-7.215.443-12.889,4.967-12.889,10.495,0,5.82,6.289,10.539,14.045,10.539s14.046-4.719,14.046-10.539C1153.568,3837.551,1147.894,3833.026,1140.68,3832.583Z" transform="translate(-743.243 -3745.64)" fill="#ffb2b0"/>
                  <path id="Path_15645" data-name="Path 15645" d="M152.882,3850.891v-86.943h-2.314v86.943c-7.214.442-12.889,4.967-12.889,10.495,0,5.82,6.289,10.539,14.046,10.539s14.046-4.719,14.046-10.539C165.77,3855.858,160.1,3851.333,152.882,3850.891Z" transform="translate(-137.679 -3757.08)" fill="#ffb2b0"/>
                  <path id="Path_15646" data-name="Path 15646" d="M500.167,3845.565v-63.209h-1.682v63.209c-5.245.322-9.37,3.612-9.37,7.63,0,4.231,4.572,7.662,10.211,7.662s10.212-3.43,10.212-7.662C509.537,3849.177,505.412,3845.888,500.167,3845.565Z" transform="translate(-353.19 -3768.583)" fill="#ffb2b0"/>
                  <path id="Path_15647" data-name="Path 15647" d="M1443.961,3845.565v-63.209h-1.682v63.209c-5.245.322-9.37,3.612-9.37,7.63,0,4.231,4.572,7.662,10.211,7.662s10.212-3.43,10.212-7.662C1453.331,3849.177,1449.206,3845.888,1443.961,3845.565Z" transform="translate(-931.953 -3768.583)" fill="#ffb2b0"/>
                </g>
              </g>
            </g>
          </g>
        </g>
      </g>
      <g id="Group_11705" data-name="Group 11705" transform="translate(50.988 141.352)">
        <g id="Group_11677" data-name="Group 11677" transform="translate(0 21.902)">
          <g id="Group_11669" data-name="Group 11669">
            <rect id="Rectangle_3687" data-name="Rectangle 3687" width="48.054" height="1.717" transform="translate(0.438 0.365)" fill="#ebebeb"/>
            <path id="Path_15648" data-name="Path 15648" d="M224.836,4169.624h-48.93v-2.446h48.93Zm-48.054-.729H223.96v-.986H176.782Z" transform="translate(-175.906 -4167.178)" fill="#ebebeb"/>
          </g>
          <g id="Group_11670" data-name="Group 11670" transform="translate(0 25.892)">
            <rect id="Rectangle_3688" data-name="Rectangle 3688" width="48.054" height="1.717" transform="translate(0.438 0.365)" fill="#ebebeb"/>
            <path id="Path_15649" data-name="Path 15649" d="M224.836,4238.646h-48.93V4236.2h48.93Zm-48.054-.73H223.96v-.987H176.782Z" transform="translate(-175.906 -4236.199)" fill="#ebebeb"/>
          </g>
          <g id="Group_11671" data-name="Group 11671" transform="translate(0 51.783)">
            <rect id="Rectangle_3689" data-name="Rectangle 3689" width="48.054" height="1.717" transform="translate(0.438 0.365)" fill="#ebebeb"/>
            <path id="Path_15650" data-name="Path 15650" d="M224.836,4307.667h-48.93v-2.447h48.93Zm-48.054-.73H223.96v-.987H176.782Z" transform="translate(-175.906 -4305.22)" fill="#ebebeb"/>
          </g>
          <g id="Group_11676" data-name="Group 11676" transform="translate(0 0.572)">
            <g id="Group_11672" data-name="Group 11672" transform="translate(0 77.674)">
              <rect id="Rectangle_3690" data-name="Rectangle 3690" width="48.054" height="1.717" transform="translate(0.438 0.365)" fill="#ebebeb"/>
              <path id="Path_15651" data-name="Path 15651" d="M224.836,4378.212h-48.93v-2.447h48.93Zm-48.054-.73H223.96v-.986H176.782Z" transform="translate(-175.906 -4375.765)" fill="#ebebeb"/>
            </g>
            <g id="Group_11673" data-name="Group 11673" transform="translate(0 102.455)">
              <rect id="Rectangle_3691" data-name="Rectangle 3691" width="48.054" height="1.716" transform="translate(0.438 0.365)" fill="#ebebeb"/>
              <path id="Path_15652" data-name="Path 15652" d="M224.836,4444.271h-48.93v-2.446h48.93Zm-48.054-.73H223.96v-.987H176.782Z" transform="translate(-175.906 -4441.825)" fill="#ebebeb"/>
            </g>
            <g id="Group_11674" data-name="Group 11674">
              <rect id="Rectangle_3692" data-name="Rectangle 3692" width="2.574" height="124.553" transform="translate(0.438 0.365)" fill="#ebebeb"/>
              <path id="Path_15653" data-name="Path 15653" d="M179.356,4293.986h-3.45V4168.7h3.45Zm-2.574-.73h1.7V4169.434h-1.7Z" transform="translate(-175.906 -4168.704)" fill="#ebebeb"/>
            </g>
            <g id="Group_11675" data-name="Group 11675" transform="translate(45.48)">
              <rect id="Rectangle_3693" data-name="Rectangle 3693" width="2.574" height="124.553" transform="translate(0.438 0.365)" fill="#ebebeb"/>
              <path id="Path_15654" data-name="Path 15654" d="M300.594,4293.986h-3.45V4168.7h3.45Zm-2.575-.73h1.7V4169.434h-1.7Z" transform="translate(-297.144 -4168.704)" fill="#ebebeb"/>
            </g>
          </g>
        </g>
        <g id="Group_11688" data-name="Group 11688" transform="translate(8.613 28.005)">
          <g id="Group_11679" data-name="Group 11679">
            <g id="Group_11678" data-name="Group 11678">
              <rect id="Rectangle_3694" data-name="Rectangle 3694" width="5.034" height="19.788" transform="translate(0.438 0.365)" fill="#ebebeb"/>
              <path id="Path_15655" data-name="Path 15655" d="M204.777,4203.966h-5.91v-20.518h5.91Zm-5.034-.729H203.9v-19.058h-4.158Z" transform="translate(-198.867 -4183.448)" fill="#ebebeb"/>
            </g>
            <path id="Path_15656" data-name="Path 15656" d="M205.64,4194.193a1.687,1.687,0,1,1-1.659-1.383A1.54,1.54,0,0,1,205.64,4194.193Z" transform="translate(-201.026 -4189.298)" fill="#ebebeb"/>
          </g>
          <g id="Group_11681" data-name="Group 11681" transform="translate(5.917)">
            <g id="Group_11680" data-name="Group 11680">
              <rect id="Rectangle_3695" data-name="Rectangle 3695" width="5.034" height="19.788" transform="translate(0.438 0.365)" fill="#ebebeb"/>
              <path id="Path_15657" data-name="Path 15657" d="M220.551,4203.966h-5.91v-20.518h5.91Zm-5.034-.729h4.158v-19.058h-4.158Z" transform="translate(-214.641 -4183.448)" fill="#ebebeb"/>
            </g>
            <path id="Path_15658" data-name="Path 15658" d="M221.414,4194.193a1.687,1.687,0,1,1-1.659-1.383A1.54,1.54,0,0,1,221.414,4194.193Z" transform="translate(-216.8 -4189.298)" fill="#ebebeb"/>
          </g>
          <g id="Group_11683" data-name="Group 11683" transform="translate(11.834)">
            <g id="Group_11682" data-name="Group 11682">
              <rect id="Rectangle_3696" data-name="Rectangle 3696" width="5.034" height="19.788" transform="translate(0.438 0.365)" fill="#ebebeb"/>
              <path id="Path_15659" data-name="Path 15659" d="M236.325,4203.966h-5.91v-20.518h5.91Zm-5.034-.729h4.158v-19.058h-4.158Z" transform="translate(-230.415 -4183.448)" fill="#ebebeb"/>
            </g>
            <path id="Path_15660" data-name="Path 15660" d="M237.188,4194.193a1.687,1.687,0,1,1-1.659-1.383A1.54,1.54,0,0,1,237.188,4194.193Z" transform="translate(-232.574 -4189.298)" fill="#ebebeb"/>
          </g>
          <g id="Group_11685" data-name="Group 11685" transform="translate(17.752)">
            <g id="Group_11684" data-name="Group 11684">
              <rect id="Rectangle_3697" data-name="Rectangle 3697" width="5.034" height="19.788" transform="translate(0.438 0.365)" fill="#ebebeb"/>
              <path id="Path_15661" data-name="Path 15661" d="M252.1,4203.966h-5.91v-20.518h5.91Zm-5.034-.729h4.158v-19.058h-4.158Z" transform="translate(-246.189 -4183.448)" fill="#ebebeb"/>
            </g>
            <path id="Path_15662" data-name="Path 15662" d="M252.962,4194.193a1.687,1.687,0,1,1-1.659-1.383A1.54,1.54,0,0,1,252.962,4194.193Z" transform="translate(-248.348 -4189.298)" fill="#ebebeb"/>
          </g>
          <g id="Group_11687" data-name="Group 11687" transform="translate(23.669)">
            <g id="Group_11686" data-name="Group 11686">
              <rect id="Rectangle_3698" data-name="Rectangle 3698" width="5.034" height="19.788" transform="translate(0.438 0.365)" fill="#ebebeb"/>
              <path id="Path_15663" data-name="Path 15663" d="M267.873,4203.966h-5.91v-20.518h5.91Zm-5.035-.729H267v-19.058h-4.159Z" transform="translate(-261.963 -4183.448)" fill="#ebebeb"/>
            </g>
            <path id="Path_15664" data-name="Path 15664" d="M268.736,4194.193a1.687,1.687,0,1,1-1.659-1.383A1.54,1.54,0,0,1,268.736,4194.193Z" transform="translate(-264.122 -4189.298)" fill="#ebebeb"/>
          </g>
        </g>
        <path id="Path_15665" data-name="Path 15665" d="M200.853,4337.184a8.209,8.209,0,0,1,.783-3.636H195.6a8.206,8.206,0,0,1,.784,3.636c0,2.2-2.644,6.262-2.644,8.969s2.8,3.6,4.878,3.6,4.877-.888,4.877-3.6S200.853,4339.384,200.853,4337.184Z" transform="translate(-187.051 -4249.237)" fill="#ebebeb"/>
        <g id="Group_11690" data-name="Group 11690" transform="translate(25.613 56.293)">
          <g id="Group_11689" data-name="Group 11689" transform="translate(0.747)">
            <path id="Path_15666" data-name="Path 15666" d="M263.673,4268.688c1.627-3.183-1.99-3.125-1.715-3.96.517-1.568,2.468.136,3.259-.653s-1.952-3.251-.516-4.1.933,2.033,2.175,1.828.5-3.253,1.966-2.913c1.1.256-.207,2.162-.086,3.052s2.391-.408,2.43.864-2.707.714-3.03,1.68,2.953,1.167,1.8,1.983-3.314-.161-3.884.689S262.981,4270.04,263.673,4268.688Z" transform="translate(-256.028 -4258.858)" fill="#ebebeb"/>
            <path id="Path_15667" data-name="Path 15667" d="M252.818,4275.638c-1.529-3.216-4.051-1.054-4.561-1.81-.956-1.418,1.869-1.35,1.765-2.375s-4.131-1.166-3.83-2.615,2.379.9,3.088.024-2.388-2.607-1.06-3.223c1-.463,1.677,1.658,2.514,2.219s1.355-1.69,2.456-.811-1.321,2.094-.736,2.971,3.083-.9,2.956.351-2.492,1.829-2.18,2.767S253.467,4277,252.818,4275.638Z" transform="translate(-246.175 -4263.054)" fill="#ebebeb"/>
          </g>
          <path id="Path_15668" data-name="Path 15668" d="M255.467,4280.516h-8.353s-2.932,2.1-2.932,4.578,1.827,5.055,7.108,5.055,7.108-2.575,7.108-5.055S255.467,4280.516,255.467,4280.516Z" transform="translate(-244.183 -4272.391)" fill="#ebebeb"/>
        </g>
        <g id="Group_11691" data-name="Group 11691" transform="translate(27.661 89.212)">
          <rect id="Rectangle_3699" data-name="Rectangle 3699" width="7.709" height="8.726" transform="translate(2.385 2.575)" fill="#ebebeb"/>
          <ellipse id="Ellipse_595" data-name="Ellipse 595" cx="6.084" cy="2.575" rx="6.084" ry="2.575" fill="#ebebeb"/>
        </g>
        <g id="Group_11692" data-name="Group 11692" transform="translate(22.293 13.888)">
          <rect id="Rectangle_3700" data-name="Rectangle 3700" width="5.715" height="6.47" transform="translate(1.768 1.909)" fill="#ebebeb"/>
          <path id="Path_15669" data-name="Path 15669" d="M244.354,4147.724c0,1.054-2.019,1.91-4.511,1.91s-4.511-.855-4.511-1.91,2.019-1.909,4.511-1.909S244.354,4146.67,244.354,4147.724Z" transform="translate(-235.333 -4145.814)" fill="#ebebeb"/>
        </g>
        <g id="Group_11694" data-name="Group 11694" transform="translate(3.184)">
          <g id="Group_11693" data-name="Group 11693">
            <path id="Path_15670" data-name="Path 15670" d="M210.848,4128.831s-1.977-5.723,6.776-12.159c0,0-7.494,6.866-5.034,12.159Z" transform="translate(-200.804 -4113.717)" fill="#ebebeb"/>
            <path id="Path_15671" data-name="Path 15671" d="M208.256,4125.207s-4.534-6.374,3.585-16.413c0,0-6.442,10.228-1.488,15.958Z" transform="translate(-198.516 -4108.794)" fill="#ebebeb"/>
            <path id="Path_15672" data-name="Path 15672" d="M195.008,4128.831s1.977-5.723-6.776-12.159c0,0,7.494,6.866,5.034,12.159Z" transform="translate(-186.792 -4113.717)" fill="#ebebeb"/>
            <path id="Path_15673" data-name="Path 15673" d="M201.984,4126.28s3.642-5.122-2.884-13.189c0,0,5.178,8.218,1.2,12.824Z" transform="translate(-193.583 -4111.479)" fill="#ebebeb"/>
            <path id="Path_15674" data-name="Path 15674" d="M210.093,4135.97s-1.709-5.781,7.337-11.93c0,0-7.809,6.618-5.6,11.987Z" transform="translate(-200.372 -4118.321)" fill="#ebebeb"/>
            <path id="Path_15675" data-name="Path 15675" d="M191.73,4134.1s1.709-5.782-7.337-11.931c0,0,7.809,6.618,5.6,11.987Z" transform="translate(-184.393 -4117.152)" fill="#ebebeb"/>
          </g>
          <path id="Path_15676" data-name="Path 15676" d="M196.888,4143.746H190.97l2.716,9.155h6.4l2.716-9.155Z" transform="translate(-188.503 -4130.634)" fill="#ebebeb"/>
        </g>
        <g id="Group_11704" data-name="Group 11704" transform="translate(4.592 66.897)">
          <g id="Group_11699" data-name="Group 11699" transform="translate(0 0)">
            <g id="Group_11695" data-name="Group 11695" transform="translate(0.438 4.844)">
              <rect id="Rectangle_3701" data-name="Rectangle 3701" width="2.417" height="18.112" transform="translate(0 2.417) rotate(-90)" fill="#ebebeb"/>
            </g>
            <g id="Group_11697" data-name="Group 11697" transform="translate(0 2.052)">
              <g id="Group_11696" data-name="Group 11696">
                <rect id="Rectangle_3702" data-name="Rectangle 3702" width="2.417" height="18.112" transform="translate(0.438 2.782) rotate(-90)" fill="#ebebeb"/>
                <path id="Path_15677" data-name="Path 15677" d="M207.134,4295.742H188.146V4292.6h18.988Zm-18.112-.73h17.236v-1.687H189.022Z" transform="translate(-188.146 -4292.595)" fill="#ebebeb"/>
              </g>
            </g>
            <g id="Group_11698" data-name="Group 11698" transform="translate(0.438)">
              <rect id="Rectangle_3703" data-name="Rectangle 3703" width="2.417" height="18.112" transform="translate(0 2.417) rotate(-90)" fill="#ebebeb"/>
            </g>
          </g>
          <g id="Group_11700" data-name="Group 11700" transform="translate(11.105)">
            <rect id="Rectangle_3704" data-name="Rectangle 3704" width="0.13" height="2.417" fill="#ebebeb"/>
          </g>
          <g id="Group_11701" data-name="Group 11701" transform="translate(12.564)">
            <rect id="Rectangle_3705" data-name="Rectangle 3705" width="0.13" height="2.417" fill="#ebebeb"/>
          </g>
          <g id="Group_11702" data-name="Group 11702" transform="translate(14.022)">
            <rect id="Rectangle_3706" data-name="Rectangle 3706" width="0.13" height="2.417" fill="#ebebeb"/>
          </g>
          <g id="Group_11703" data-name="Group 11703" transform="translate(15.481)">
            <rect id="Rectangle_3707" data-name="Rectangle 3707" width="0.13" height="2.417" fill="#ebebeb"/>
          </g>
          <rect id="Rectangle_3708" data-name="Rectangle 3708" width="8.524" height="0.398" transform="translate(9.139 5.255)" fill="#ebebeb"/>
          <rect id="Rectangle_3709" data-name="Rectangle 3709" width="8.524" height="0.398" transform="translate(9.139 5.853)" fill="#ebebeb"/>
          <rect id="Rectangle_3710" data-name="Rectangle 3710" width="8.524" height="0.398" transform="translate(9.139 6.45)" fill="#ebebeb"/>
        </g>
      </g>
      <g id="Group_11716" data-name="Group 11716" transform="translate(281.908 190.963)">
        <g id="Group_11709" data-name="Group 11709">
          <g id="Group_11707" data-name="Group 11707" transform="translate(0.446 40.636)">
            <path id="Path_15678" data-name="Path 15678" d="M1183.7,4413.09l-1.554-.011,4.912-41.848.72-5.224,26.614,4.39-1.635,47-1.987-.163-.965-41.633-18.985-3.053Z" transform="translate(-1182.142 -4359.765)" fill="#cfd0d8"/>
            <g id="Group_11706" data-name="Group 11706" transform="translate(4.703)">
              <path id="Path_15679" data-name="Path 15679" d="M1245.937,4353.067l-16.4-1.15-34.554,3.05-.109,5.235a2.518,2.518,0,0,0,2.1,3.081s21.518,4.649,24.105,3.834l26.2-7.836Z" transform="translate(-1194.749 -4350.961)" fill="#cfd0d8"/>
              <path id="Path_15680" data-name="Path 15680" d="M1223.4,4357.823c-3.67.815-3.687.039-6.834-.288l-17.455-2.91c-6.591-.7-4.711-.952-1.557-2.219l2.609-.566c2.612-1.032,15.533-2.776,18.988-2.425l25.06.74c3.695.368,1.761,1.652,1.245,1.755Z" transform="translate(-1194.678 -4349.368)" fill="#cfd0d8"/>
            </g>
            <path id="Path_15681" data-name="Path 15681" d="M1324.151,4367.658l4.119,44-1.214-.159-6.552-40.938Z" transform="translate(-1268.6 -4360.797)" fill="#cfd0d8"/>
          </g>
          <g id="Group_11708" data-name="Group 11708">
            <path id="Path_15682" data-name="Path 15682" d="M1214.178,4285.184c.044,2.4-2.249,3.94-6.338,3.613l-18.527-2.925c-4.685-.61-4.012-1.049-4.557-3.513l-3.641-34.939c-.843-3.787,1.629-6.829,7.032-6.32l16.859,1.5c5.335.494,5.943,3.265,5.994,6.949Z" transform="translate(-1180.953 -4241.044)" fill="#cfd0d8"/>
            <path id="Path_15683" data-name="Path 15683" d="M1252.058,4248.325a5.064,5.064,0,0,1,4.744,4.329c.276,2.754,5.3,36.389,3.921,38.589s-4.688,2.54-4.537,1.582c1.37-8.941-2.612-39.616-3.578-41.407A4.263,4.263,0,0,1,1252.058,4248.325Z" transform="translate(-1225.33 -4245.59)" fill="#cfd0d8"/>
          </g>
        </g>
        <g id="Group_11711" data-name="Group 11711" transform="translate(154.936 3.924)">
          <g id="Group_11710" data-name="Group 11710">
            <path id="Path_15684" data-name="Path 15684" d="M1596.047,4408.13h-1.2l3.407-39.719,2.556.146,28.127.337v7.214h-.073l3.977,32.231h-1.2l-6.9-32.231h-22.295Z" transform="translate(-1594.519 -4324.556)" fill="#cfd0d8"/>
            <path id="Path_15685" data-name="Path 15685" d="M1672.184,4255.341c1.152-4.9,7.724-3.927,13.5-3.355,4.155.408,5.165,2.1,4.953,6.277l-4.959,36.262a6.227,6.227,0,0,1-7.552,6.119c-3.954-.8-12.075-3.46-11.765-7.627Z" transform="translate(-1639.205 -4251.504)" fill="#cfd0d8"/>
            <path id="Path_15686" data-name="Path 15686" d="M1606.785,4422.617h-.988l3.762-36.621-6.271-5.665,18.41-.123,21.677-.229-.084,6.017,4.323,36.842h-.8L1639.3,4386h-25.579Z" transform="translate(-1599.795 -4331.785)" fill="#cfd0d8"/>
            <path id="Path_15687" data-name="Path 15687" d="M1594.316,4366.489a1.481,1.481,0,0,1,1.139-2.421l22.385-.091a18.976,18.976,0,0,1,5.954,1.113l12.588,4.188c.031.01.063.021.093.034,1.51.6,1.369,1.112-.335,1.112l-37.972-.091a1.48,1.48,0,0,1-1.142-.542Z" transform="translate(-1593.977 -4321.786)" fill="#cfd0d8"/>
          </g>
        </g>
        <g id="Group_11712" data-name="Group 11712" transform="translate(31.129 13.869)">
          <rect id="Rectangle_3711" data-name="Rectangle 3711" width="6.159" height="64.003" transform="translate(17.349 22.78)" fill="#ebebeb"/>
          <rect id="Rectangle_3712" data-name="Rectangle 3712" width="6.162" height="64.003" transform="translate(129.564 23.294)" fill="#ebebeb"/>
          <path id="Path_15688" data-name="Path 15688" d="M1414.1,4298.036v2.889h-149.8v-2.889l24.348-20.02h99.31Z" transform="translate(-1264.169 -4278.016)" fill="#ebebeb"/>
          <rect id="Rectangle_3713" data-name="Rectangle 3713" width="149.935" height="5.687" transform="translate(0 20.02)" fill="#ebebeb"/>
        </g>
        <g id="Group_11715" data-name="Group 11715" transform="translate(61.644 16.715)">
          <path id="Path_15689" data-name="Path 15689" d="M1373.247,4308.029l30.945-.022,4.058-5.449-27.8-.06Z" transform="translate(-1362.757 -4296.16)" fill="#cfd0d8"/>
          <g id="Group_11714" data-name="Group 11714">
            <path id="Path_15690" data-name="Path 15690" d="M1454.3,4456.364h-1.5l-7.317-46h3.9Z" transform="translate(-1407.894 -4363.561)" fill="#cfd0d8"/>
            <path id="Path_15691" data-name="Path 15691" d="M1348.111,4453.471h1.5l7.317-46h-3.9Z" transform="translate(-1347.05 -4361.753)" fill="#cfd0d8"/>
            <g id="Group_11713" data-name="Group 11713" transform="translate(11.543 41.66)">
              <path id="Path_15692" data-name="Path 15692" d="M1376.053,4447.425h.823L1383,4410.36h-3.552Z" transform="translate(-1376.053 -4405.22)" fill="#cfd0d8"/>
              <path id="Path_15693" data-name="Path 15693" d="M1475.806,4438.1h.832l-4.549-41.446-3.092,4.387Z" transform="translate(-1434.131 -4396.658)" fill="#cfd0d8"/>
            </g>
            <path id="Path_15694" data-name="Path 15694" d="M1361.091,4388.813a19.361,19.361,0,0,1,3.036-2.531c.469-.315,5.319-4.808,5.319-4.808l32.371,1.9a15.239,15.239,0,0,1,2,.566c.683.246,1.033,2.138.949,3.7-.095,1.711-2.989,4.842-5.7,6.553-3.776,2.386-14.372,1.942-15.885,1.942h-2c-1.51,0-16.948.374-20.727-2.007C1359.079,4393.261,1359.883,4389.969,1361.091,4388.813Z" transform="translate(-1354.312 -4345.51)" fill="#cfd0d8"/>
            <path id="Path_15695" data-name="Path 15695" d="M1419.648,4287.83c2.091.63,7.111,1.892,7.526,6.938s3.377,34.476,2.542,36.423c-1.049,2.45-3.974,2.515-5.015,1.256s-7.147-42.521-6.516-43.146Z" transform="translate(-1390.809 -4286.995)" fill="#cfd0d8"/>
            <path id="Path_15696" data-name="Path 15696" d="M1382.354,4328.937c0,2.69-2.891,4.772-6.472,4.691l-19.674-.471c-3.547-.09-6.58-2.305-6.787-4.984l-4.125-36.867c-.248-3.193,2.738-5.766,6.675-5.7l20.5.647c3.971.071,7.191,2.749,7.191,5.964Z" transform="translate(-1345.283 -4285.603)" fill="#cfd0d8"/>
          </g>
        </g>
      </g>
    </g>
    <g id="Group_11719" data-name="Group 11719" transform="translate(115.759 3737.065)">
      <g id="Group_11718" data-name="Group 11718" transform="translate(-55.842 0)">
        <path id="Path_15697" data-name="Path 15697" d="M662.894,3891.62c15.958,21.445,3.251,44.521-31.091,53.456-36.479,9.49-83.859-.492-107.261-22.3-18.39,11.9-46.436,21.057-78.6,24.267-59.295,5.917-110.122-10.6-113.527-36.9a24.491,24.491,0,0,1,3.478-15.5c-50.138,9.936-79.617-1.035-92.132-30.753-9.235-21.93,17.072-60.394,89.437-67.616,9.227-.921,18.269-1.513,27.032-1.8-.193-.727-2.784-4.854.961-12.033,16.279-31.207,73.709-36,133.659-29.411,50.48,5.547,75.7,25.726,87.411,43.975,0,0,143.443-34.571,169.269,37.555C751.53,3834.555,780.3,3898.146,662.894,3891.62Z" transform="translate(-241.983 -3750.453)" fill="#fff" stroke="#ebebeb" stroke-miterlimit="10" stroke-width="1"/>
        <ellipse id="Ellipse_596" data-name="Ellipse 596" cx="13.8" cy="12.747" rx="13.8" ry="12.747" transform="matrix(0.579, -0.815, 0.815, 0.579, 31.257, 171.848)" fill="#fff" stroke="#ebebeb" stroke-miterlimit="10" stroke-width="1"/>
        <ellipse id="Ellipse_597" data-name="Ellipse 597" cx="8.177" cy="7.554" rx="8.177" ry="7.554" transform="matrix(0.579, -0.815, 0.815, 0.579, 40.667, 188.839)" fill="#fff" stroke="#ebebeb" stroke-miterlimit="10" stroke-width="1"/>
        <ellipse id="Ellipse_598" data-name="Ellipse 598" cx="6.995" cy="6.461" rx="6.995" ry="6.461" transform="matrix(0.579, -0.815, 0.815, 0.579, 51.964, 204.692)" fill="#fff" stroke="#ebebeb" stroke-miterlimit="10" stroke-width="1"/>
      </g>
    </g>
    <g id="Group_11750" data-name="Group 11750" transform="translate(93.135 3938.925)">
      <g id="Group_11738" data-name="Group 11738" transform="translate(9.507 4.014)">
        <g id="Group_11737" data-name="Group 11737">
          <path id="Path_15698" data-name="Path 15698" d="M223.807,4519.407l41.474,4.076a7.856,7.856,0,0,0,8.623-7.818V4439.9a7.855,7.855,0,0,0-8.559-7.824l-50.543,4.543c-.159.014-.318.02-.477.025a7.507,7.507,0,0,0-7.226,8.72l9.7,67.346A7.856,7.856,0,0,0,223.807,4519.407Z" transform="translate(-207.015 -4382.234)" fill="#c3e8e6"/>
          <g id="Group_11736" data-name="Group 11736" transform="translate(17.547)">
            <g id="Group_11722" data-name="Group 11722" transform="translate(100.567 79.013)">
              <g id="Group_11720" data-name="Group 11720">
                <path id="Rectangle_3714" data-name="Rectangle 3714" d="M5.264,0h59.86a5.265,5.265,0,0,1,5.265,5.265V43.5a5.265,5.265,0,0,1-5.265,5.265H5.265A5.265,5.265,0,0,1,0,43.5V5.264A5.264,5.264,0,0,1,5.264,0Z" transform="translate(0.539)" fill="#ebebeb"/>
                <rect id="Rectangle_3715" data-name="Rectangle 3715" width="71.467" height="3.52" transform="translate(0 50.205)" fill="#ebebeb"/>
                <rect id="Rectangle_3716" data-name="Rectangle 3716" width="3.519" height="8.451" transform="translate(9.534 43.546)" fill="#ebebeb"/>
                <rect id="Rectangle_3717" data-name="Rectangle 3717" width="3.519" height="8.451" transform="translate(58.303 43.546)" fill="#ebebeb"/>
              </g>
              <g id="Group_11721" data-name="Group 11721" transform="translate(27.469 14.711)">
                <path id="Path_15699" data-name="Path 15699" d="M595.1,4557.373a8.264,8.264,0,1,1,8.264,8.266A8.274,8.274,0,0,1,595.1,4557.373Zm3.149,0a5.115,5.115,0,1,0,5.115-5.114A5.121,5.121,0,0,0,598.254,4557.373Z" transform="translate(-595.105 -4549.109)" fill="#7b88ac"/>
              </g>
            </g>
            <g id="Group_11735" data-name="Group 11735">
              <g id="Group_11725" data-name="Group 11725" transform="translate(17.537 71.992)">
                <g id="Group_11723" data-name="Group 11723" transform="translate(45.585 35.259)">
                  <path id="Path_15700" data-name="Path 15700" d="M422.953,4608.063c3.4-1.308,12,1.289,12.039-1.893.032-2.849-4.133-7.474-12.934-.789Z" transform="translate(-422.057 -4595.649)" fill="#f8c471"/>
                  <path id="Path_15701" data-name="Path 15701" d="M435.646,4602.041c-.375,5.027,5.752,5.462,7.713,5.153,2.155-.341,3.486-4.082,2.619-5.588S435.792,4600.119,435.646,4602.041Z" transform="translate(-430.538 -4594.769)" fill="#f8c471"/>
                  <path id="Path_15702" data-name="Path 15702" d="M443.351,4591.286c2.143-2.059,3.6-5.443,2.627-6.028-1.1-.663-1.806,2.482-4.18,3.862-2.568,1.5-4.1,2.577-3.578,3.6S441.207,4593.35,443.351,4591.286Z" transform="translate(-432.093 -4585.167)" fill="#f8c471"/>
                  <path id="Path_15703" data-name="Path 15703" d="M456.155,4600.487c2.513-.411,3.731-1.2,3.546-1.856s-1.6-.333-4.114.074-5.805.3-5.62.957S453.642,4600.89,456.155,4600.487Z" transform="translate(-439.492 -4593.346)" fill="#f8c471"/>
                  <path id="Path_15704" data-name="Path 15704" d="M459.5,4608.91c2.6.105,4.885-.955,4.836-1.621s-2.453-.195-5.048-.3-4.282-.035-4.232.631S456.911,4608.8,459.5,4608.91Z" transform="translate(-442.68 -4598.763)" fill="#f8c471"/>
                  <path id="Path_15705" data-name="Path 15705" d="M453.54,4615.946c2.6,0,4.044-.585,3.976-1.249s-1.777-.341-4.371-.341-4.413.035-4.345.7S450.944,4615.946,453.54,4615.946Z" transform="translate(-438.767 -4603.358)" fill="#f8c471"/>
                </g>
                <g id="Group_11724" data-name="Group 11724">
                  <path id="Path_15706" data-name="Path 15706" d="M340.38,4491.822c-6.856-6.672-39.386,40.472-39.841,42.456,0,0,3.367,4.122,5.442,2.911C311.346,4534.057,343.441,4494.8,340.38,4491.822Z" transform="translate(-300.539 -4491.176)" fill="#0080af"/>
                  <path id="Path_15707" data-name="Path 15707" d="M349,4601.752c.333,7.508-40.9,1.674-42.3.9,0,0-2.121-5.3-.329-5.875C311.011,4595.292,348.851,4598.4,349,4601.752Z" transform="translate(-303.736 -4556.923)" fill="#0080af"/>
                  <path id="Path_15708" data-name="Path 15708" d="M412.085,4604.523l-.733-2.178-8.294-2.747s.473,4.037,1.111,4.81S412.085,4604.523,412.085,4604.523Z" transform="translate(-364.6 -4558.926)" fill="#eaeaea"/>
                  <path id="Path_15709" data-name="Path 15709" d="M413.92,4612.283l-.218,2.3-7.507,4.484s-.464-4.077-.014-4.975S413.92,4612.283,413.92,4612.283Z" transform="translate(-366.429 -4566.852)" fill="#eaeaea"/>
                </g>
              </g>
              <g id="Group_11731" data-name="Group 11731">
                <g id="Group_11730" data-name="Group 11730">
                  <g id="Group_11726" data-name="Group 11726" transform="translate(0 2.556)">
                    <path id="Path_15710" data-name="Path 15710" d="M322.753,4393.725c8.888-8.372-4.955-10.444-4.232-17.851s2.314-5.043,3.62-14.6-1.2-13.145-1.3-18.721,3.75-14.658.664-21.752-5.059-4.735-7.763-10.385-5.439.433-10.116,2.853-9.786-11.07-18-6.075-7.6,15.361-10.133,21.131-10.653,8-12.071,18.363,4.4,8.108,1.682,15.242-9.861,6.435-11.279,16.807c0,0-1.134,10.407,10.5,10.053s7.9,5.8,20.588,1.982,8.281,7.247,17.237,3.189S314.813,4401.2,322.753,4393.725Z" transform="translate(-253.791 -4306.078)" fill="#2d356b"/>
                  </g>
                  <g id="Group_11727" data-name="Group 11727" transform="translate(26.262 35.114)">
                    <path id="Path_15711" data-name="Path 15711" d="M376.676,4392.87l8.973,8.938-3.242,23.043-7.716-4.942Z" transform="translate(-355.6 -4392.87)" fill="#f7c371"/>
                    <path id="Path_15712" data-name="Path 15712" d="M323.8,4536.244a72.665,72.665,0,0,0,3.8-11.222c5.556-23.107-7.98-54.788,10.69-61.577,19.824-7.208,28.745,48.819,28.745,48.819-11.983,15.485-12.405,9.908-16.12,30.118" transform="translate(-323.799 -4436.571)" fill="#03b4e9"/>
                    <path id="Path_15713" data-name="Path 15713" d="M366.867,4459.675l3.121.331,10.695,15.86-4.792,2.486S368.877,4466.99,366.867,4459.675Z" transform="translate(-350.711 -4434.615)" fill="#fff"/>
                    <path id="Path_15714" data-name="Path 15714" d="M391.444,4481.23c.076-.031.146-.063.221-.095-1.966-7.967-7.324-20.7-15.051-21.708C382.112,4467.134,391.444,4481.23,391.444,4481.23Z" transform="translate(-356.802 -4434.46)" fill="#f7c371"/>
                  </g>
                  <g id="Group_11729" data-name="Group 11729" transform="translate(26.959)">
                    <g id="Group_11728" data-name="Group 11728">
                      <path id="Path_15715" data-name="Path 15715" d="M352.417,4348.108c-5.649-1.806-17.078-4.112-22.264-12.97-6.741-11.516-4.623-18.378-1.871-26.72,5.246-15.9,32.382-7.229,30.47-2.559C356.213,4312.06,372.89,4354.65,352.417,4348.108Z" transform="translate(-325.658 -4299.263)" fill="#2d356b"/>
                      <path id="Path_15716" data-name="Path 15716" d="M390.3,4362.828c2.083.087,6.256-10.524,7.71-18.734.479-2.707-2.438-3.148-1.87-12.428.334-5.448-1.87-13.1-10.776-18.892-8.407-5.47-9.748,11.423-10.649,15.3-2.565,11.047-5.7,17.921-3.067,23.427C376.787,4362.253,388.069,4362.2,390.3,4362.828Z" transform="translate(-353.773 -4307.031)" fill="#ffd8a3"/>
                      <path id="Path_15717" data-name="Path 15717" d="M423.583,4408.579a.48.48,0,0,1,.455-.5.506.506,0,0,1,.394.57.482.482,0,0,1-.458.5A.5.5,0,0,1,423.583,4408.579Z" transform="translate(-386.848 -4367.256)" fill="#ffab00"/>
                      <path id="Path_15718" data-name="Path 15718" d="M421.654,4368.646c-.141-1.46.56-2.707,1.564-2.789s1.936,1.037,2.077,2.5-.56,2.708-1.564,2.789S421.795,4370.106,421.654,4368.646Z" transform="translate(-385.632 -4340.873)" fill="#2d356b"/>
                      <path id="Path_15719" data-name="Path 15719" d="M416.409,4368.557c1.135-2.195,2.868-4.462,6.846-3.629A14.02,14.02,0,0,0,416.409,4368.557Z" transform="translate(-382.366 -4340.185)" fill="#2d356b"/>
                      <path id="Path_15720" data-name="Path 15720" d="M430.241,4425.283c.076-.337,1.072.91,1.566.973,1.4.178.923,1.95-.466,1.629C430.8,4427.76,430.161,4425.64,430.241,4425.283Z" transform="translate(-391.005 -4377.973)" fill="#f36973"/>
                      <path id="Path_15721" data-name="Path 15721" d="M427.587,4409.069c-.934-.417,5.555-2,4.3.128C431.448,4409.605,428.066,4409.282,427.587,4409.069Z" transform="translate(-389.293 -4367.28)" fill="#f36973"/>
                      <path id="Path_15722" data-name="Path 15722" d="M420.066,4346.006c-2.412-.235-7.6-.127-9.7,6.393C412.739,4348.334,414.736,4346.7,420.066,4346.006Z" transform="translate(-378.588 -4328.433)" fill="#2d356b"/>
                      <path id="Path_15723" data-name="Path 15723" d="M440.162,4385.827l-3.265.853.225-8.239,4.562,6.061Z" transform="translate(-395.169 -4348.739)" fill="#ffd8a3"/>
                      <path id="Path_15724" data-name="Path 15724" d="M439.643,4402.028l2.717-4.994-2.417-.187Z" transform="translate(-396.884 -4360.241)" fill="#ffd8a3"/>
                      <path id="Path_15725" data-name="Path 15725" d="M428.619,4416.928a60.853,60.853,0,0,0,1.887-7.082l-5.822-.241S425.584,4415.817,428.619,4416.928Z" transform="translate(-387.537 -4368.213)" fill="#ffab00"/>
                      <path id="Path_15726" data-name="Path 15726" d="M427.471,4413.579l3.317.138q.344-1.335.649-2.79l-4.758-.2Z" transform="translate(-388.783 -4368.916)" fill="#fff"/>
                      <path id="Path_15727" data-name="Path 15727" d="M359.683,4377.763c.237-2.534,1.174-4.371-.748-4.546s-3.68,1.738-3.916,4.275,1.136,4.734,3.063,4.911S359.449,4380.3,359.683,4377.763Z" transform="translate(-343.988 -4345.467)" fill="#f7c371"/>
                    </g>
                    <path id="Path_15728" data-name="Path 15728" d="M390.285,4311.786c-6.5,8.988-17.774,22.054-15.742,35.328-4.84-14.243-1.646-32.843,7.974-40.156C383.439,4308.4,391.782,4308.326,390.285,4311.786Z" transform="translate(-354.81 -4304.071)" fill="#2d356b"/>
                  </g>
                </g>
              </g>
              <g id="Group_11734" data-name="Group 11734" transform="translate(7.905 67.598)">
                <g id="Group_11732" data-name="Group 11732" transform="translate(51.896 33.62)">
                  <path id="Path_15729" data-name="Path 15729" d="M415.006,4600.993c3.449-2.475,13.9-2.079,13-5.672-.8-3.219-6.853-7.2-14.8,2.917Z" transform="translate(-413.208 -4583.26)" fill="#ffd9a4"/>
                  <path id="Path_15730" data-name="Path 15730" d="M426.6,4591.076c1.057,5.772,8.085,4.459,10.2,3.535,2.327-1.018,2.725-5.623,1.307-7.064S426.2,4588.868,426.6,4591.076Z" transform="translate(-421.566 -4580.373)" fill="#ffd9a4"/>
                  <path id="Path_15731" data-name="Path 15731" d="M434.8,4576.681c1.808-2.948,2.457-7.189,1.186-7.562-1.433-.424-1.3,3.326-3.572,5.579-2.451,2.443-3.862,4.108-2.972,5.1S432.995,4579.636,434.8,4576.681Z" transform="translate(-423.187 -4569.086)" fill="#ffd9a4"/>
                  <path id="Path_15732" data-name="Path 15732" d="M449.139,4582.519c2.709-1.2,3.849-2.452,3.447-3.133s-1.9.1-4.611,1.293-6.449,2.048-6.049,2.731S446.428,4583.71,449.139,4582.519Z" transform="translate(-431.135 -4575.362)" fill="#ffd9a4"/>
                  <path id="Path_15733" data-name="Path 15733" d="M455.042,4591.275c2.954-.644,5.221-2.512,4.97-3.248s-2.82.5-5.773,1.147-4.834,1.22-4.58,1.956S452.089,4591.919,455.042,4591.275Z" transform="translate(-435.971 -4580.781)" fill="#ffd9a4"/>
                  <path id="Path_15734" data-name="Path 15734" d="M450.433,4601.254c2.923-.763,4.383-1.849,4.111-2.576s-2.1.138-5.023.9-4.959,1.337-4.687,2.066S447.508,4602.017,450.433,4601.254Z" transform="translate(-432.955 -4587.405)" fill="#ffd9a4"/>
                </g>
                <g id="Group_11733" data-name="Group 11733">
                  <path id="Path_15735" data-name="Path 15735" d="M307.249,4479.8c-9.684-5.5-32.456,57.167-32.384,59.536,0,0,5,3.652,6.986,1.678C286.972,4535.912,311.573,4482.26,307.249,4479.8Z" transform="translate(-274.865 -4479.463)" fill="#0080af"/>
                  <path id="Path_15736" data-name="Path 15736" d="M328.886,4607.094c2.584,8.359-45.567,13.915-47.373,13.45,0,0-3.949-5.348-2.1-6.52C284.2,4610.993,327.732,4603.361,328.886,4607.094Z" transform="translate(-277.399 -4558.587)" fill="#0080af"/>
                  <path id="Path_15737" data-name="Path 15737" d="M400.038,4604.522l-1.466-2.238-10.149-.654s1.72,4.408,2.667,5.092S400.038,4604.522,400.038,4604.522Z" transform="translate(-345.824 -4555.802)" fill="#eaeaea"/>
                  <path id="Path_15738" data-name="Path 15738" d="M405.6,4608.834l.432,2.656-7.136,7.259s-1.722-4.455-1.479-5.6S405.6,4608.834,405.6,4608.834Z" transform="translate(-351.433 -4560.303)" fill="#eaeaea"/>
                </g>
              </g>
            </g>
          </g>
        </g>
      </g>
      <g id="Group_11748" data-name="Group 11748" transform="translate(232.969 0)">
        <path id="Path_15739" data-name="Path 15739" d="M1113.67,4512.6l-41.474,4.075a7.856,7.856,0,0,1-8.624-7.818v-75.765a7.856,7.856,0,0,1,8.559-7.824l50.544,4.543c.159.015.318.021.477.025a7.507,7.507,0,0,1,7.226,8.72l-9.7,67.346A7.856,7.856,0,0,1,1113.67,4512.6Z" transform="translate(-950.637 -4373.968)" fill="#c3e8e6"/>
        <g id="Group_11739" data-name="Group 11739" transform="translate(69.439 39.498)">
          <path id="Path_15740" data-name="Path 15740" d="M1009.524,4454.509l1.678.559.639,4.2-3.8,1.588Z" transform="translate(-985.38 -4431.757)" fill="#eaeaea"/>
          <path id="Path_15741" data-name="Path 15741" d="M1015.178,4399.908l15.645-6.051,1.032,25.349-22.425,6.891Z" transform="translate(-986.245 -4393.857)" fill="#f7c371"/>
          <path id="Path_15742" data-name="Path 15742" d="M956.2,4607.158l29.865,8.718,2.214,42.421-26.5.987Z" transform="translate(-952.981 -4527.143)" fill="#eaeaea"/>
          <path id="Path_15743" data-name="Path 15743" d="M1004.661,4557.823c-18.96-.209-36.793,5.516-47.169-2.791-10.057-8.051-5.685-31.073-6.308-50.282-.832-25.68,27.265-59.8,50.2-52.556,31.873,10.071,11.7,52.04,8.138,63.085C999.088,4547.638,1003.8,4550.668,1004.661,4557.823Z" transform="translate(-949.583 -4429.693)" fill="#2d356b"/>
          <path id="Path_15744" data-name="Path 15744" d="M1006.186,4587.039c.136-8.437,7.589-8.7,22.91-37.72,2.971-5.629,6.189-22.359,9.269-36.335,1.15-5.219,10.2,4.655,11.72,17.4.94,7.906-4.568,18.381-5.93,22.609-10.432,32.358-5.722,35.389-4.859,42.543C1028.335,4595.414,1016.32,4593.117,1006.186,4587.039Z" transform="translate(-984.218 -4467.405)" fill="#40558e"/>
          <path id="Path_15745" data-name="Path 15745" d="M952.906,4529.193c1.851-33.165,27.533-65.687,50.52-74.837,3.861-1.538.416-4.417-10.587-3.455C983,4451.8,943.419,4471.256,952.906,4529.193Z" transform="translate(-950.014 -4429.382)" fill="#7b88ac"/>
          <path id="Path_15746" data-name="Path 15746" d="M953.553,4507.81c3.893-27.864,14.379-42.459,38.781-56.587-9.6.878-47.77,13.7-40.863,68.06C951.647,4520.667,952.88,4512.626,953.553,4507.81Z" transform="translate(-949.509 -4429.703)" fill="#eaeaea"/>
          <path id="Path_15747" data-name="Path 15747" d="M965.487,4703.854c-.151-1.166.378-2.2,1.185-2.3s1.582.755,1.734,1.922-.377,2.2-1.184,2.3S965.64,4705.021,965.487,4703.854Z" transform="translate(-958.77 -4586.123)" fill="#7b87ab"/>
          <path id="Path_15748" data-name="Path 15748" d="M960.685,4667c-.151-1.165.378-2.2,1.184-2.3s1.582.756,1.734,1.923-.377,2.2-1.183,2.3S960.837,4668.165,960.685,4667Z" transform="translate(-955.769 -4563.091)" fill="#7b87ab"/>
          <path id="Path_15749" data-name="Path 15749" d="M1014.422,4460.274l-5.708,1.944,2.019-6.2,1.084-.577Z" transform="translate(-985.798 -4432.342)" fill="#f46973"/>
          <path id="Path_15750" data-name="Path 15750" d="M949.389,4534.125l1.837-11.247s-4.9-35.133,20.556-52.621l-.305-.889C950.545,4484.423,944.081,4510.454,949.389,4534.125Z" transform="translate(-947.624 -4441.042)" fill="#f46973"/>
          <path id="Path_15751" data-name="Path 15751" d="M1011.986,4444.7l22.438-5.89,2.829,4.506-21.3,8.545Z" transform="translate(-987.842 -4421.946)" fill="#fff"/>
        </g>
        <g id="Group_11740" data-name="Group 11740" transform="translate(71.666 74.009)">
          <path id="Path_15752" data-name="Path 15752" d="M1073.489,4558.826c5.425,2.086,7.522-68.815-1.167-72.943,0,0-18.042-2.021-29.877,28.577C1042.446,4514.459,1053.671,4551.2,1073.489,4558.826Z" transform="translate(-1009.102 -4485.855)" fill="#2d356b"/>
          <path id="Path_15753" data-name="Path 15753" d="M1071.875,4596.524c-22.436-3.515-29.429-39.392-29.429-39.392a13.309,13.309,0,0,1,1.218-2.988C1050.674,4581.478,1072.808,4596.671,1071.875,4596.524Z" transform="translate(-1009.102 -4528.527)" fill="#40558e"/>
          <path id="Path_15754" data-name="Path 15754" d="M1018.362,4648.11s-18.844,10.627-62.046,18.077c0,0-3.572-3.3-2.585-11.732,0,0,30.726-22.26,52.962-25.652C1006.693,4628.8,1021.433,4640.178,1018.362,4648.11Z" transform="translate(-953.559 -4575.179)" fill="#2d356b"/>
          <path id="Path_15755" data-name="Path 15755" d="M968.16,4702.029a1.715,1.715,0,1,1,1.137-2.407A1.9,1.9,0,0,1,968.16,4702.029Z" transform="translate(-960.98 -4618.892)" fill="#9ea9fc"/>
        </g>
        <g id="Group_11744" data-name="Group 11744" transform="translate(83.138)">
          <path id="Path_15756" data-name="Path 15756" d="M1027.752,4330.538c10.723-13.311,9.349-34.908,8.8-35.655-5.811-7.981-21.746-6.978-29.749-4.653-6.749,1.962-12,5.818-8.538,11.047,1.2,1.806,6.507-2.423,8.157-2.236,3.12.354,5.806,43.133,5.806,43.133Z" transform="translate(-992.283 -4288.564)" fill="#ffac00"/>
          <g id="Group_11742" data-name="Group 11742" transform="translate(0 9.988)">
            <g id="Group_11741" data-name="Group 11741">
              <path id="Path_15757" data-name="Path 15757" d="M995.863,4403.52l-1.646-2.685,2.154-1.377Z" transform="translate(-990.438 -4367.846)" fill="#ffd8a3"/>
              <path id="Path_15758" data-name="Path 15758" d="M1022.258,4352.544c-1.251,3.645-12.374,11.5-23.478,11.1-1.374-14.428-1.039-38.266,1.617-42.354,2.613-4.022,13.219-7.037,14.536-5.828-3.847,4.667,2.538,20.065,4.82,21.464C1025.312,4340.333,1023.564,4348.743,1022.258,4352.544Z" transform="translate(-992.793 -4315.189)" fill="#ffd8a3"/>
              <path id="Path_15759" data-name="Path 15759" d="M984.141,4381.774a102.328,102.328,0,0,0,5.365-12.228c1.624-4.563,1.21,12.163,1.21,12.163S985.778,4382.891,984.141,4381.774Z" transform="translate(-984.141 -4348.662)" fill="#ffd8a3"/>
              <path id="Path_15760" data-name="Path 15760" d="M995.925,4438.4c-1.124-.467-1.691-1.524-1.264-2.363a2.2,2.2,0,0,1,2.811-.672c1.126.466,1.692,1.525,1.265,2.362A2.2,2.2,0,0,1,995.925,4438.4Z" transform="translate(-990.626 -4390.143)" fill="#ffd8a3"/>
              <path id="Path_15761" data-name="Path 15761" d="M996.416,4423.771c-.041-.292.284-.578.727-.64s.832.125.872.417-.284.578-.725.639S996.457,4424.062,996.416,4423.771Z" transform="translate(-991.809 -4382.631)" fill="#ffd8a3"/>
            </g>
            <path id="Path_15762" data-name="Path 15762" d="M1055.32,4368.567c.6-2.634,2.608-4.509,4.495-4.187s2.93,2.72,2.335,5.353-4.158,4.2-6.044,3.875S1054.724,4371.2,1055.32,4368.567Z" transform="translate(-1028.281 -4345.905)" fill="#ffd8a3"/>
          </g>
          <path id="Path_15763" data-name="Path 15763" d="M997.775,4407.4l.437,5.886s1.642-.185,1.992-.925a20.629,20.629,0,0,0,1.125-5.934Z" transform="translate(-992.661 -4362.215)" fill="#ffab00"/>
          <path id="Path_15764" data-name="Path 15764" d="M998.064,4408.1l.391,5.227s1.213-.119,1.471-.453a14.706,14.706,0,0,0,1.079-5.616Z" transform="translate(-992.841 -4362.734)" fill="#fff"/>
          <path id="Path_15765" data-name="Path 15765" d="M1002.479,4351.505a1.429,1.429,0,0,0-.339.954c.045.857,4.829,2.947,5.461,2.116l.395-.521c.455-.6-1.19-.965-2.455-1.782-1.209-.782-2.021-2.041-2.469-1.493Z" transform="translate(-995.387 -4327.357)" fill="#2d356b"/>
          <path id="Path_15766" data-name="Path 15766" d="M1006.226,4372.63c-.037-.872.411-1.646,1-1.728s1.1.558,1.139,1.43-.41,1.645-1,1.727S1006.266,4373.5,1006.226,4372.63Z" transform="translate(-997.94 -4340.01)" fill="#2d356b"/>
          <path id="Path_15767" data-name="Path 15767" d="M1006.926,4406.039c-.028-.2.064-.382.207-.4s.28.128.308.331-.064.381-.206.4S1006.954,4406.24,1006.926,4406.039Z" transform="translate(-998.375 -4361.718)" fill="#ffab00"/>
          <g id="Group_11743" data-name="Group 11743" transform="translate(4.833 2.591)">
            <path id="Path_15768" data-name="Path 15768" d="M1042.422,4321.683c-4.8.452,3.221,22.028.818,23.646s.045,3.343,1.316,2.826c2.912-1.183,3.283-7.34,3.4-11.258C1048.077,4332.534,1042.828,4321.645,1042.422,4321.683Z" transform="translate(-1024.416 -4311.851)" fill="#ffac00"/>
            <path id="Path_15769" data-name="Path 15769" d="M997.178,4304.585c-.852-3.449,1.928-7.1,6.209-8.162s16.848-1.957,17.7,1.49-10.329,9.94-14.612,11S998.03,4308.032,997.178,4304.585Z" transform="translate(-997.025 -4295.472)" fill="#ffac00"/>
          </g>
        </g>
        <g id="Group_11747" data-name="Group 11747" transform="translate(0 83.653)">
          <g id="Group_11745" data-name="Group 11745">
            <path id="Rectangle_3718" data-name="Rectangle 3718" d="M5.264,0h59.86a5.264,5.264,0,0,1,5.264,5.264V43.5a5.265,5.265,0,0,1-5.265,5.265H5.265A5.265,5.265,0,0,1,0,43.5V5.264A5.264,5.264,0,0,1,5.264,0Z" transform="translate(0.539)" fill="#ebebeb"/>
            <rect id="Rectangle_3719" data-name="Rectangle 3719" width="71.467" height="3.52" transform="translate(0 50.205)" fill="#ebebeb"/>
            <rect id="Rectangle_3720" data-name="Rectangle 3720" width="3.519" height="8.451" transform="translate(9.534 43.546)" fill="#ebebeb"/>
            <rect id="Rectangle_3721" data-name="Rectangle 3721" width="3.519" height="8.451" transform="translate(58.303 43.546)" fill="#ebebeb"/>
          </g>
          <g id="Group_11746" data-name="Group 11746" transform="translate(27.47 14.711)">
            <path id="Path_15770" data-name="Path 15770" d="M835.742,4559.044a8.264,8.264,0,1,1,8.263,8.265A8.273,8.273,0,0,1,835.742,4559.044Zm3.149,0a5.115,5.115,0,1,0,5.114-5.114A5.12,5.12,0,0,0,838.891,4559.044Z" transform="translate(-835.742 -4550.781)" fill="#7b88ac"/>
          </g>
        </g>
      </g>
      <g id="Group_11749" data-name="Group 11749" transform="translate(0 137.037)">
        <path id="Path_15771" data-name="Path 15771" d="M624.542,4666.019l-396.936-4.055,9.679,47.417H615.493Z" transform="translate(-210.375 -4658.928)" fill="#2d356b"/>
        <path id="Path_15772" data-name="Path 15772" d="M609.1,4653.872H181.673l6.224,10.853,417.052-3.617Z" transform="translate(-181.673 -4653.872)" fill="#7b88ac"/>
      </g>
    </g>
    <g id="Group_11751" data-name="Group 11751" transform="translate(89.807 4032.056)">
      <rect id="Rectangle_3722" data-name="Rectangle 3722" width="68.647" height="36.042" rx="6.672" transform="translate(10.365 -12.709)" fill="#fff" stroke="#231f20" stroke-miterlimit="10" stroke-width="0.25"/>
      <text id="Akiko" transform="translate(31.688 8.812)" fill="#2d356b" font-size="10" font-family="TrebuchetMS-Bold, Trebuchet MS" font-weight="700"><tspan x="0" y="0">Akiko</tspan></text>
    </g>
    <g id="Group_11752" data-name="Group 11752" transform="translate(436.643 4030.283)">
      <rect id="Rectangle_3723" data-name="Rectangle 3723" width="65.707" height="34.814" rx="6.672" transform="translate(-14 -6.198)" fill="#fff" stroke="#231f20" stroke-miterlimit="10" stroke-width="0.25"/>
      <text id="Nick" transform="translate(8.854 14.709)" fill="#2d356b" font-size="10" font-family="TrebuchetMS-Bold, Trebuchet MS" font-weight="700"><tspan x="0" y="0">Nick</tspan></text>
    </g>
    <g id="Group_11753" data-name="Group 11753" transform="translate(40.862 3730.988)">
      <rect id="Rectangle_3724" data-name="Rectangle 3724" width="71.699" height="42.298" transform="translate(71.699 42.298) rotate(-180)" fill="#ebebeb"/>
    </g>
    <text id="_3" data-name="3" transform="translate(54.33 3765.028)" fill="#2d356b" font-size="38" font-family="TrebuchetMS-Bold, Trebuchet MS" font-weight="700"><tspan x="0" y="0">3</tspan></text>
  </g>
</svg>
