<svg xmlns="http://www.w3.org/2000/svg" width="505.767" height="166.027" viewBox="0 0 505.767 166.027">
  <g id="Group_12407" data-name="Group 12407" transform="translate(-41.109 -4701.163)">
    <path id="Path_16685" data-name="Path 16685" d="M187.863,6503.673" transform="translate(-118.858 -1663.439)" fill="#cfd0d8" stroke="#d0d2d3" stroke-miterlimit="10" stroke-width="2"/>
    <rect id="Rectangle_3924" data-name="Rectangle 3924" width="505.767" height="30.51" transform="translate(41.109 4807.969)" fill="#40558e"/>
    <text id="_1st_Phase" data-name="1st Phase" transform="translate(48.61 4831.06)" fill="#fff" font-size="24" font-family="TrebuchetMS-Bold, Trebuchet MS" font-weight="700"><tspan x="0" y="0">1st Phase</tspan></text>
    <text id="_2nd_Phase" data-name="2nd Phase" transform="translate(424.617 4831.06)" fill="#fff" font-size="24" font-family="TrebuchetMS-Bold, Trebuchet MS" font-weight="700"><tspan x="0" y="0">2nd Phase</tspan></text>
    <text id="Bug_fix" data-name="Bug fix" transform="translate(241.203 4724.163)" fill="#2d356b" font-size="24" font-family="TrebuchetMS-Bold, Trebuchet MS" font-weight="700"><tspan x="-38.514" y="0">Bug fix</tspan></text>
    <line id="Line_18" data-name="Line 18" y2="81.819" transform="translate(243.157 4732.6)" fill="#40558e" stroke="#40558e" stroke-miterlimit="10" stroke-width="2"/>
    <rect id="Rectangle_3967" data-name="Rectangle 3967" width="166" height="30.2" rx="6" transform="translate(216.992 4808.099)" fill="#a9b3fc"/>
    <g id="Group_12405" data-name="Group 12405" transform="translate(253.957 4724.886)">
      <g id="Group_12404" data-name="Group 12404" transform="translate(0 -22.391)">
        <g id="Group_12398" data-name="Group 12398" transform="translate(24.818 32.148)">
          <path id="Path_16686" data-name="Path 16686" d="M1012.734,6276.914l-1.426.505-.478,3.6,3.273,1.3Z" transform="translate(-974.336 -6257.786)" fill="#eaeaea"/>
          <path id="Path_16687" data-name="Path 16687" d="M972.236,6220.612l-13.483-4.919-.466,21.7,19.3,5.526Z" transform="translate(-938.209 -6215.692)" fill="#f7c371"/>
          <path id="Path_16688" data-name="Path 16688" d="M1017.114,6432.6l-25.406,7.95-1.916,20.941,22.545.881Z" transform="translate(-959.871 -6364.826)" fill="#eaeaea"/>
          <path id="Path_16689" data-name="Path 16689" d="M904.066,6370.784c16.216-.491,35.7,10.675,43.937-7.952,4.458-10.081,4.352-26.675,4.57-43.119.29-21.982-24.308-50.71-43.807-44.135-27.1,9.14-9.152,44.711-5.925,54.1C912.3,6357.19,904.686,6364.649,904.066,6370.784Z" transform="translate(-894.029 -6256.21)" fill="#54ccca"/>
          <path id="Path_16690" data-name="Path 16690" d="M939.519,6405.967c-.255-7.216-3.005-12.107-16.588-36.682-2.634-4.767-5.662-19.025-8.526-30.931-1.069-4.445-8.653,4.149-9.74,15.078-.674,6.778,4.21,15.649,5.445,19.244,9.456,27.51,1.846,34.97,1.226,41.1C920.708,6413.5,930.95,6411.334,939.519,6405.967Z" transform="translate(-901.297 -6299.207)" fill="#029390"/>
          <path id="Path_16691" data-name="Path 16691" d="M978.431,6340.612c-2.129-28.34-24.634-55.74-44.448-63.19-3.329-1.251-.428-3.772,9-3.129C951.418,6274.9,985.594,6290.893,978.431,6340.612Z" transform="translate(-920.586 -6255.913)" fill="#029390"/>
          <path id="Path_16692" data-name="Path 16692" d="M999.817,6322.291c-3.789-23.773-13-36.087-34.106-47.772,8.225.594,41.09,10.934,36.076,57.552C1001.659,6333.258,1000.472,6326.4,999.817,6322.291Z" transform="translate(-943.314 -6256.139)" fill="#eaeaea"/>
          <path id="Path_16693" data-name="Path 16693" d="M1062.645,6497.37c.11-1-.36-1.874-1.051-1.95s-2-16.585-2.109-15.584.359,1.873,1.051,1.949S1062.534,6498.37,1062.645,6497.37Z" transform="translate(-1007.777 -6397.275)" fill="#c3e8e6"/>
          <path id="Path_16694" data-name="Path 16694" d="M1068.3,6493.8c.11-1-.36-1.873-1.051-1.95s-1.341.674-1.451,1.674.359,1.874,1.05,1.95S1068.187,6494.8,1068.3,6493.8Z" transform="translate(-1012.117 -6405.559)" fill="#c3e8e6"/>
          <path id="Path_16695" data-name="Path 16695" d="M1004.929,6282.147l4.915,1.57-1.829-5.268-.937-.476Z" transform="translate(-970.279 -6258.514)" fill="#9999a5"/>
          <path id="Path_16696" data-name="Path 16696" d="M1037.43,6347.193l-1.757-9.59s3.618-30.136-18.45-44.678l.247-.765C1035.625,6304.694,1041.583,6326.856,1037.43,6347.193Z" transform="translate(-978.732 -6268.268)" fill="#9999a5"/>
          <path id="Path_16697" data-name="Path 16697" d="M969.309,6266.638l-19.291-4.67-2.346,3.9,18.363,6.959Z" transform="translate(-930.911 -6247.509)" fill="#fff"/>
        </g>
        <g id="Group_12399" data-name="Group 12399" transform="translate(0 53.252)">
          <path id="Path_16698" data-name="Path 16698" d="M815.073,6333.849c-4.827-1.2,28.457-51.947,36.573-50.583,0,0,13.644,7.427,6.944,34.686C858.591,6317.952,832.708,6338.217,815.073,6333.849Z" transform="translate(-814.597 -6283.239)" fill="#54ccca"/>
          <path id="Path_16699" data-name="Path 16699" d="M827.508,6401.617c17.458,8.533,39.949-13.2,39.949-13.2a11.388,11.388,0,0,0,.61-2.692C849.752,6401.457,826.782,6401.262,827.508,6401.617Z" transform="translate(-823.463 -6353.704)" fill="#029390"/>
          <path id="Path_16700" data-name="Path 16700" d="M927.4,6566.028l-5.725-3.934,7.862-6.867,2.777,6.224Z" transform="translate(-888.221 -6470.247)" fill="#eaeaea"/>
          <path id="Path_16701" data-name="Path 16701" d="M815.248,6427.269s8.006,16.69,34.652,43.091c0,0,4.122-.563,7.563-6.96,0,0-10.637-30.673-24.567-43.952C832.9,6419.448,816.982,6420.2,815.248,6427.269Z" transform="translate(-815.045 -6376.891)" fill="#54ccca"/>
          <path id="Path_16702" data-name="Path 16702" d="M927.975,6552.508a1.467,1.467,0,1,0,.383-2.245A1.63,1.63,0,0,0,927.975,6552.508Z" transform="translate(-892.364 -6466.727)" fill="#c3e8e6"/>
        </g>
        <g id="Group_12402" data-name="Group 12402" transform="translate(33.069)">
          <path id="Path_16703" data-name="Path 16703" d="M928.833,6147.49c-9.406-10.8-8.608-28.6-8.155-29.225,4.831-6.657,18.479-6.066,25.366-4.27,5.807,1.515,10.371,4.612,7.5,8.968-.992,1.5-5.608-1.9-7.017-1.72-2.663.337-4.211,35.6-4.211,35.6Z" transform="translate(-920.439 -6112.801)" fill="#9999a5"/>
          <g id="Group_12401" data-name="Group 12401" transform="translate(9.473 6.739)">
            <g id="Group_12400" data-name="Group 12400" transform="translate(2.895)">
              <path id="Path_16704" data-name="Path 16704" d="M1028.692,6223.6l1.364-2.324-1.865-1.143Z" transform="translate(-1006.892 -6193.336)" fill="#ffd8a3"/>
              <path id="Path_16705" data-name="Path 16705" d="M961.286,6166.466c1.13,3.1,10.775,9.636,20.268,9.107.938-12.366.26-32.752-2.079-36.206-2.3-3.4-11.424-5.8-12.531-4.747,3.367,3.929-1.841,17.207-3.771,18.441C958.474,6156.07,960.107,6163.235,961.286,6166.466Z" transform="translate(-960.024 -6134.37)" fill="#ffd8a3"/>
              <path id="Path_16706" data-name="Path 16706" d="M1031.841,6199.637a87.543,87.543,0,0,1-4.79-10.373c-1.464-3.877-.835,10.424-.835,10.424S1030.459,6200.62,1031.841,6199.637Z" transform="translate(-1005.442 -6171.655)" fill="#ffd8a3"/>
              <path id="Path_16707" data-name="Path 16707" d="M1025.2,6259.549c.954-.417,1.421-1.332,1.042-2.042a1.881,1.881,0,0,0-2.416-.529c-.956.417-1.422,1.332-1.043,2.041A1.883,1.883,0,0,0,1025.2,6259.549Z" transform="translate(-1003.082 -6218.528)" fill="#ffd8a3"/>
              <path id="Path_16708" data-name="Path 16708" d="M1029.3,6244.955c.03-.25-.253-.489-.632-.535s-.71.121-.74.371.253.489.631.535S1029.272,6245.205,1029.3,6244.955Z" transform="translate(-1006.712 -6210.03)" fill="#ffd8a3"/>
            </g>
            <path id="Path_16709" data-name="Path 16709" d="M956.749,6188.938c-.554-2.244-2.306-3.814-3.914-3.508s-2.462,2.375-1.91,4.618,3.626,3.521,5.234,3.216S957.3,6191.182,956.749,6188.938Z" transform="translate(-950.758 -6169.451)" fill="#ffd8a3"/>
          </g>
          <path id="Path_16710" data-name="Path 16710" d="M1023.88,6228.212l-.277,5.043s-1.408-.131-1.72-.759a17.641,17.641,0,0,1-1.06-5.058Z" transform="translate(-989.454 -6191.621)" fill="#ffab00"/>
          <path id="Path_16711" data-name="Path 16711" d="M1024.738,6228.936l-.248,4.479s-1.04-.083-1.266-.365a12.574,12.574,0,0,1-1.016-4.786Z" transform="translate(-990.402 -6192.188)" fill="#fff"/>
          <path id="Path_16712" data-name="Path 16712" d="M1015.109,6177.838a1.222,1.222,0,0,0-.32-.805c-.513-.526-4.77.828-4.707,1.718l.04.558c.045.641,1.31-.05,2.585-.238,1.219-.179,2.452.172,2.43-.433Z" transform="translate(-982.073 -6156.883)" fill="#2d356b"/>
          <path id="Path_16713" data-name="Path 16713" d="M1017.234,6192.445c.017-.747-.379-1.4-.885-1.462s-.932.5-.951,1.242.378,1.4.885,1.461S1017.215,6193.191,1017.234,6192.445Z" transform="translate(-985.728 -6166.553)" fill="#2d356b"/>
          <path id="Path_16714" data-name="Path 16714" d="M1020.191,6226.969c.021-.173-.061-.326-.184-.341s-.237.115-.258.288.061.325.182.339S1020.17,6227.142,1020.191,6226.969Z" transform="translate(-988.718 -6191.063)" fill="#ffab00"/>
        </g>
        <g id="Group_12403" data-name="Group 12403" transform="translate(46.787 1.821)">
          <path id="Path_16715" data-name="Path 16715" d="M964.345,6128.956c-.116-.823,6.964-6.207,11.9-6.424s8.905,1.912,8.865,4.758-4.074,5.329-9.01,5.546S964.511,6130.127,964.345,6128.956Z" transform="translate(-964.344 -6121.303)" fill="#9999a5"/>
          <path id="Path_16716" data-name="Path 16716" d="M990.927,6129.058c4.238,1.161,16.975-.883,13.39-7.6a4.838,4.838,0,0,0-4.439-2.818s2.691.334,2.273,3.776c-.5,4.063-10.482,2.836-11.1,2.083Z" transform="translate(-982.621 -6118.631)" fill="#9999a5"/>
        </g>
      </g>
      <path id="Path_16717" data-name="Path 16717" d="M898.764,6519.46v29.1H977.68l7.713-14.442-7.713-14.655Z" transform="translate(-882.904 -6406.253)" fill="#ffac00"/>
      <text id="Now" transform="translate(33.777 136.207)" fill="#fff" font-size="24" font-family="TrebuchetMS-Bold, Trebuchet MS" font-weight="700"><tspan x="0" y="0">Now</tspan></text>
    </g>
  </g>
</svg>
