<svg xmlns="http://www.w3.org/2000/svg" width="544.51" height="374.061" viewBox="0 0 544.51 374.061">
  <g id="Group_10660" data-name="Group 10660" transform="translate(-354.372 -4658.681)">
    <g id="Group_10560" data-name="Group 10560" transform="translate(354.372 4659.74)">
      <g id="Group_10494" data-name="Group 10494" transform="translate(28.248 141.861)">
        <g id="Group_10466" data-name="Group 10466" transform="translate(0 22.359)">
          <g id="Group_10458" data-name="Group 10458">
            <rect id="Rectangle_3239" data-name="Rectangle 3239" width="49.059" height="1.752" transform="translate(0.447 0.373)" fill="#ebebeb"/>
            <path id="Path_14049" data-name="Path 14049" d="M485.894,5125.355H435.941v-2.5h49.953Zm-49.059-.745H485V5123.6H436.835Z" transform="translate(-435.941 -5122.857)" fill="#ebebeb"/>
          </g>
          <g id="Group_10459" data-name="Group 10459" transform="translate(0 26.433)">
            <rect id="Rectangle_3240" data-name="Rectangle 3240" width="49.059" height="1.753" transform="translate(0.447 0.373)" fill="#ebebeb"/>
            <path id="Path_14050" data-name="Path 14050" d="M485.894,5201.686H435.941v-2.5h49.953Zm-49.059-.746H485v-1.007H436.835Z" transform="translate(-435.941 -5199.188)" fill="#ebebeb"/>
          </g>
          <g id="Group_10460" data-name="Group 10460" transform="translate(0 52.867)">
            <rect id="Rectangle_3241" data-name="Rectangle 3241" width="49.059" height="1.752" transform="translate(0.447 0.372)" fill="#ebebeb"/>
            <path id="Path_14051" data-name="Path 14051" d="M485.894,5278.016H435.941v-2.5h49.953Zm-49.059-.745H485v-1.009H436.835Z" transform="translate(-435.941 -5275.518)" fill="#ebebeb"/>
          </g>
          <g id="Group_10465" data-name="Group 10465" transform="translate(0 0.585)">
            <g id="Group_10461" data-name="Group 10461" transform="translate(0 79.299)">
              <rect id="Rectangle_3242" data-name="Rectangle 3242" width="49.059" height="1.753" transform="translate(0.447 0.373)" fill="#ebebeb"/>
              <path id="Path_14052" data-name="Path 14052" d="M485.894,5356.03H435.941v-2.5h49.953Zm-49.059-.744H485v-1.008H436.835Z" transform="translate(-435.941 -5353.533)" fill="#ebebeb"/>
            </g>
            <g id="Group_10462" data-name="Group 10462" transform="translate(0 104.598)">
              <rect id="Rectangle_3243" data-name="Rectangle 3243" width="49.059" height="1.752" transform="translate(0.447 0.373)" fill="#ebebeb"/>
              <path id="Path_14053" data-name="Path 14053" d="M485.894,5429.085H435.941v-2.5h49.953Zm-49.059-.744H485v-1.008H436.835Z" transform="translate(-435.941 -5426.587)" fill="#ebebeb"/>
            </g>
            <g id="Group_10463" data-name="Group 10463">
              <rect id="Rectangle_3244" data-name="Rectangle 3244" width="2.628" height="127.158" transform="translate(0.447 0.373)" fill="#ebebeb"/>
              <path id="Path_14054" data-name="Path 14054" d="M439.463,5252.448h-3.522v-127.9h3.522Zm-2.628-.746h1.734V5125.291h-1.734Z" transform="translate(-435.941 -5124.545)" fill="#ebebeb"/>
            </g>
            <g id="Group_10464" data-name="Group 10464" transform="translate(46.431)">
              <rect id="Rectangle_3245" data-name="Rectangle 3245" width="2.628" height="127.158" transform="translate(0.447 0.373)" fill="#ebebeb"/>
              <path id="Path_14055" data-name="Path 14055" d="M573.539,5252.448h-3.522v-127.9h3.522Zm-2.628-.746h1.734V5125.291h-1.734Z" transform="translate(-570.017 -5124.545)" fill="#ebebeb"/>
            </g>
          </g>
        </g>
        <g id="Group_10477" data-name="Group 10477" transform="translate(8.794 28.591)">
          <g id="Group_10468" data-name="Group 10468">
            <g id="Group_10467" data-name="Group 10467">
              <rect id="Rectangle_3246" data-name="Rectangle 3246" width="5.14" height="20.202" transform="translate(0.447 0.373)" fill="#ebebeb"/>
              <path id="Path_14056" data-name="Path 14056" d="M467.367,5161.8h-6.033v-20.947h6.033Zm-5.139-.745h4.245V5141.6h-4.245Z" transform="translate(-461.334 -5140.851)" fill="#ebebeb"/>
            </g>
            <path id="Path_14057" data-name="Path 14057" d="M468.542,5152.617a1.722,1.722,0,1,1-1.694-1.412A1.572,1.572,0,0,1,468.542,5152.617Z" transform="translate(-463.831 -5147.619)" fill="#ebebeb"/>
          </g>
          <g id="Group_10470" data-name="Group 10470" transform="translate(6.041)">
            <g id="Group_10469" data-name="Group 10469">
              <rect id="Rectangle_3247" data-name="Rectangle 3247" width="5.14" height="20.202" transform="translate(0.447 0.373)" fill="#ebebeb"/>
              <path id="Path_14058" data-name="Path 14058" d="M484.812,5161.8h-6.034v-20.947h6.034Zm-5.14-.745h4.246V5141.6h-4.246Z" transform="translate(-478.778 -5140.851)" fill="#ebebeb"/>
            </g>
            <path id="Path_14059" data-name="Path 14059" d="M485.986,5152.617a1.722,1.722,0,1,1-1.694-1.412A1.572,1.572,0,0,1,485.986,5152.617Z" transform="translate(-481.276 -5147.619)" fill="#ebebeb"/>
          </g>
          <g id="Group_10472" data-name="Group 10472" transform="translate(12.082)">
            <g id="Group_10471" data-name="Group 10471">
              <rect id="Rectangle_3248" data-name="Rectangle 3248" width="5.14" height="20.202" transform="translate(0.447 0.373)" fill="#ebebeb"/>
              <path id="Path_14060" data-name="Path 14060" d="M502.256,5161.8h-6.034v-20.947h6.034Zm-5.14-.745h4.245V5141.6h-4.245Z" transform="translate(-496.222 -5140.851)" fill="#ebebeb"/>
            </g>
            <path id="Path_14061" data-name="Path 14061" d="M503.431,5152.617a1.722,1.722,0,1,1-1.694-1.412A1.572,1.572,0,0,1,503.431,5152.617Z" transform="translate(-498.72 -5147.619)" fill="#ebebeb"/>
          </g>
          <g id="Group_10474" data-name="Group 10474" transform="translate(18.123)">
            <g id="Group_10473" data-name="Group 10473">
              <rect id="Rectangle_3249" data-name="Rectangle 3249" width="5.14" height="20.202" transform="translate(0.447 0.373)" fill="#ebebeb"/>
              <path id="Path_14062" data-name="Path 14062" d="M519.7,5161.8h-6.034v-20.947H519.7Zm-5.14-.745h4.246V5141.6H514.56Z" transform="translate(-513.666 -5140.851)" fill="#ebebeb"/>
            </g>
            <path id="Path_14063" data-name="Path 14063" d="M520.875,5152.617a1.722,1.722,0,1,1-1.694-1.412A1.572,1.572,0,0,1,520.875,5152.617Z" transform="translate(-516.164 -5147.619)" fill="#ebebeb"/>
          </g>
          <g id="Group_10476" data-name="Group 10476" transform="translate(24.164)">
            <g id="Group_10475" data-name="Group 10475">
              <rect id="Rectangle_3250" data-name="Rectangle 3250" width="5.14" height="20.202" transform="translate(0.447 0.373)" fill="#ebebeb"/>
              <path id="Path_14064" data-name="Path 14064" d="M537.145,5161.8h-6.034v-20.947h6.034Zm-5.14-.745h4.246V5141.6h-4.246Z" transform="translate(-531.111 -5140.851)" fill="#ebebeb"/>
            </g>
            <path id="Path_14065" data-name="Path 14065" d="M538.32,5152.617a1.722,1.722,0,1,1-1.694-1.412A1.572,1.572,0,0,1,538.32,5152.617Z" transform="translate(-533.609 -5147.619)" fill="#ebebeb"/>
          </g>
        </g>
        <path id="Path_14066" data-name="Path 14066" d="M462.925,5310.558a8.379,8.379,0,0,1,.8-3.712h-6.16a8.378,8.378,0,0,1,.8,3.712c0,2.245-2.7,6.392-2.7,9.156s2.862,3.672,4.98,3.672,4.979-.906,4.979-3.672S462.925,5312.8,462.925,5310.558Z" transform="translate(-448.835 -5220.771)" fill="#ebebeb"/>
        <g id="Group_10479" data-name="Group 10479" transform="translate(26.148 57.471)">
          <g id="Group_10478" data-name="Group 10478" transform="translate(0.763)">
            <path id="Path_14067" data-name="Path 14067" d="M532.854,5234.282c1.662-3.249-2.032-3.189-1.751-4.043.528-1.6,2.519.139,3.327-.668s-1.993-3.318-.526-4.19.953,2.075,2.22,1.867.513-3.322,2.008-2.973c1.124.261-.212,2.205-.088,3.114s2.441-.416,2.481.882-2.763.729-3.094,1.716,3.015,1.19,1.842,2.024-3.384-.165-3.966.7S532.148,5235.662,532.854,5234.282Z" transform="translate(-525.049 -5224.247)" fill="#ebebeb"/>
            <path id="Path_14068" data-name="Path 14068" d="M520.433,5241.947c-1.561-3.284-4.136-1.077-4.656-1.848-.976-1.448,1.907-1.378,1.8-2.424s-4.218-1.191-3.91-2.67,2.428.917,3.153.026-2.438-2.662-1.083-3.292c1.019-.473,1.712,1.693,2.566,2.266s1.384-1.727,2.507-.829-1.349,2.14-.751,3.033,3.147-.921,3.017.36-2.544,1.867-2.225,2.825S521.1,5243.342,520.433,5241.947Z" transform="translate(-513.652 -5229.101)" fill="#ebebeb"/>
          </g>
          <path id="Path_14069" data-name="Path 14069" d="M522.968,5248.2H514.44s-2.993,2.142-2.993,4.673,1.866,5.16,7.257,5.16,7.257-2.629,7.257-5.16S522.968,5248.2,522.968,5248.2Z" transform="translate(-511.447 -5239.904)" fill="#ebebeb"/>
        </g>
        <g id="Group_10480" data-name="Group 10480" transform="translate(28.24 91.079)">
          <rect id="Rectangle_3251" data-name="Rectangle 3251" width="7.87" height="8.908" transform="translate(2.435 2.629)" fill="#ebebeb"/>
          <ellipse id="Ellipse_540" data-name="Ellipse 540" cx="6.211" cy="2.629" rx="6.211" ry="2.629" fill="#ebebeb"/>
        </g>
        <g id="Group_10481" data-name="Group 10481" transform="translate(22.759 14.178)">
          <rect id="Rectangle_3252" data-name="Rectangle 3252" width="5.835" height="6.605" transform="translate(1.805 1.949)" fill="#ebebeb"/>
          <path id="Path_14070" data-name="Path 14070" d="M510.87,5101.182c0,1.076-2.062,1.949-4.6,1.949s-4.605-.873-4.605-1.949,2.062-1.949,4.605-1.949S510.87,5100.105,510.87,5101.182Z" transform="translate(-501.66 -5099.233)" fill="#ebebeb"/>
        </g>
        <g id="Group_10483" data-name="Group 10483" transform="translate(3.25)">
          <g id="Group_10482" data-name="Group 10482">
            <path id="Path_14071" data-name="Path 14071" d="M474.567,5079.417s-2.019-5.841,6.917-12.414c0,0-7.651,7.01-5.139,12.414Z" transform="translate(-464.313 -5063.986)" fill="#ebebeb"/>
            <path id="Path_14072" data-name="Path 14072" d="M471.609,5075.048s-4.628-6.508,3.66-16.757c0,0-6.576,10.441-1.52,16.292Z" transform="translate(-461.665 -5058.292)" fill="#ebebeb"/>
            <path id="Path_14073" data-name="Path 14073" d="M456.489,5079.417s2.019-5.841-6.917-12.414c0,0,7.651,7.01,5.14,12.414Z" transform="translate(-448.102 -5063.986)" fill="#ebebeb"/>
            <path id="Path_14074" data-name="Path 14074" d="M464.535,5076.508s3.718-5.229-2.944-13.465c0,0,5.287,8.39,1.224,13.092Z" transform="translate(-455.958 -5061.397)" fill="#ebebeb"/>
            <path id="Path_14075" data-name="Path 14075" d="M473.737,5087.332s-1.745-5.9,7.491-12.18c0,0-7.972,6.756-5.714,12.237Z" transform="translate(-463.813 -5069.313)" fill="#ebebeb"/>
            <path id="Path_14076" data-name="Path 14076" d="M452.817,5085.264s1.745-5.9-7.491-12.181c0,0,7.972,6.757,5.715,12.237Z" transform="translate(-445.326 -5067.96)" fill="#ebebeb"/>
          </g>
          <path id="Path_14077" data-name="Path 14077" d="M458.642,5096.945H452.6l2.772,9.346h6.538l2.772-9.346Z" transform="translate(-450.081 -5083.559)" fill="#ebebeb"/>
        </g>
        <g id="Group_10493" data-name="Group 10493" transform="translate(4.688 68.296)">
          <g id="Group_10488" data-name="Group 10488" transform="translate(0 0)">
            <g id="Group_10484" data-name="Group 10484" transform="translate(0.447 4.945)">
              <rect id="Rectangle_3253" data-name="Rectangle 3253" width="2.468" height="18.491" transform="translate(0 2.468) rotate(-90)" fill="#ebebeb"/>
            </g>
            <g id="Group_10486" data-name="Group 10486" transform="translate(0 2.095)">
              <g id="Group_10485" data-name="Group 10485">
                <rect id="Rectangle_3254" data-name="Rectangle 3254" width="2.468" height="18.491" transform="translate(0.447 2.84) rotate(-90)" fill="#ebebeb"/>
                <path id="Path_14078" data-name="Path 14078" d="M468.863,5264.769H449.478v-3.213h19.385Zm-18.491-.745h17.6V5262.3h-17.6Z" transform="translate(-449.478 -5261.556)" fill="#ebebeb"/>
              </g>
            </g>
            <g id="Group_10487" data-name="Group 10487" transform="translate(0.447)">
              <rect id="Rectangle_3255" data-name="Rectangle 3255" width="2.468" height="18.491" transform="translate(0 2.468) rotate(-90)" fill="#ebebeb"/>
            </g>
          </g>
          <g id="Group_10489" data-name="Group 10489" transform="translate(11.337 0)">
            <rect id="Rectangle_3256" data-name="Rectangle 3256" width="0.133" height="2.468" fill="#ebebeb"/>
          </g>
          <g id="Group_10490" data-name="Group 10490" transform="translate(12.826 0)">
            <rect id="Rectangle_3257" data-name="Rectangle 3257" width="0.133" height="2.468" fill="#ebebeb"/>
          </g>
          <g id="Group_10491" data-name="Group 10491" transform="translate(14.315 0)">
            <rect id="Rectangle_3258" data-name="Rectangle 3258" width="0.133" height="2.468" fill="#ebebeb"/>
          </g>
          <g id="Group_10492" data-name="Group 10492" transform="translate(15.805 0)">
            <rect id="Rectangle_3259" data-name="Rectangle 3259" width="0.133" height="2.468" fill="#ebebeb"/>
          </g>
          <rect id="Rectangle_3260" data-name="Rectangle 3260" width="8.702" height="0.407" transform="translate(9.33 5.365)" fill="#ebebeb"/>
          <rect id="Rectangle_3261" data-name="Rectangle 3261" width="8.702" height="0.407" transform="translate(9.33 5.975)" fill="#ebebeb"/>
          <rect id="Rectangle_3262" data-name="Rectangle 3262" width="8.702" height="0.407" transform="translate(9.33 6.585)" fill="#ebebeb"/>
        </g>
      </g>
      <g id="Group_10531" data-name="Group 10531" transform="translate(395.934 139.484)">
        <g id="Group_10503" data-name="Group 10503" transform="translate(0 22.359)">
          <g id="Group_10495" data-name="Group 10495">
            <rect id="Rectangle_3263" data-name="Rectangle 3263" width="49.059" height="1.752" transform="translate(0.447 0.373)" fill="#ebebeb"/>
            <path id="Path_14079" data-name="Path 14079" d="M1754.491,5118.713h-49.953v-2.5h49.953Zm-49.059-.745H1753.6v-1.007h-48.165Z" transform="translate(-1704.537 -5116.216)" fill="#ebebeb"/>
          </g>
          <g id="Group_10496" data-name="Group 10496" transform="translate(0 26.433)">
            <rect id="Rectangle_3264" data-name="Rectangle 3264" width="49.059" height="1.753" transform="translate(0.447 0.373)" fill="#ebebeb"/>
            <path id="Path_14080" data-name="Path 14080" d="M1754.491,5195.043h-49.953v-2.5h49.953Zm-49.059-.745H1753.6v-1.008h-48.165Z" transform="translate(-1704.537 -5192.545)" fill="#ebebeb"/>
          </g>
          <g id="Group_10497" data-name="Group 10497" transform="translate(0 52.867)">
            <rect id="Rectangle_3265" data-name="Rectangle 3265" width="49.059" height="1.752" transform="translate(0.447 0.372)" fill="#ebebeb"/>
            <path id="Path_14081" data-name="Path 14081" d="M1754.491,5271.373h-49.953v-2.5h49.953Zm-49.059-.745H1753.6v-1.007h-48.165Z" transform="translate(-1704.537 -5268.875)" fill="#ebebeb"/>
          </g>
          <g id="Group_10502" data-name="Group 10502" transform="translate(0 0.585)">
            <g id="Group_10498" data-name="Group 10498" transform="translate(0 79.299)">
              <rect id="Rectangle_3266" data-name="Rectangle 3266" width="49.059" height="1.753" transform="translate(0.447 0.373)" fill="#ebebeb"/>
              <path id="Path_14082" data-name="Path 14082" d="M1754.491,5349.388h-49.953v-2.5h49.953Zm-49.059-.744H1753.6v-1.009h-48.165Z" transform="translate(-1704.537 -5346.89)" fill="#ebebeb"/>
            </g>
            <g id="Group_10499" data-name="Group 10499" transform="translate(0 104.598)">
              <rect id="Rectangle_3267" data-name="Rectangle 3267" width="49.059" height="1.752" transform="translate(0.447 0.373)" fill="#ebebeb"/>
              <path id="Path_14083" data-name="Path 14083" d="M1754.491,5422.443h-49.953v-2.5h49.953Zm-49.059-.746H1753.6v-1.007h-48.165Z" transform="translate(-1704.537 -5419.945)" fill="#ebebeb"/>
            </g>
            <g id="Group_10500" data-name="Group 10500">
              <rect id="Rectangle_3268" data-name="Rectangle 3268" width="2.628" height="127.158" transform="translate(0.447 0.373)" fill="#ebebeb"/>
              <path id="Path_14084" data-name="Path 14084" d="M1708.059,5245.806h-3.522V5117.9h3.522Zm-2.628-.745h1.734V5118.647h-1.734Z" transform="translate(-1704.537 -5117.903)" fill="#ebebeb"/>
            </g>
            <g id="Group_10501" data-name="Group 10501" transform="translate(46.431)">
              <rect id="Rectangle_3269" data-name="Rectangle 3269" width="2.628" height="127.158" transform="translate(0.447 0.373)" fill="#ebebeb"/>
              <path id="Path_14085" data-name="Path 14085" d="M1842.136,5245.806h-3.522V5117.9h3.522Zm-2.628-.745h1.734V5118.647h-1.734Z" transform="translate(-1838.614 -5117.903)" fill="#ebebeb"/>
            </g>
          </g>
        </g>
        <g id="Group_10514" data-name="Group 10514" transform="translate(8.794 28.591)">
          <g id="Group_10505" data-name="Group 10505">
            <g id="Group_10504" data-name="Group 10504">
              <rect id="Rectangle_3270" data-name="Rectangle 3270" width="5.14" height="20.202" transform="translate(0.447 0.373)" fill="#ebebeb"/>
              <path id="Path_14086" data-name="Path 14086" d="M1735.964,5155.156h-6.033v-20.947h6.033Zm-5.139-.745h4.245v-19.457h-4.245Z" transform="translate(-1729.931 -5134.208)" fill="#ebebeb"/>
            </g>
            <path id="Path_14087" data-name="Path 14087" d="M1737.139,5145.975a1.722,1.722,0,1,1-1.694-1.413A1.571,1.571,0,0,1,1737.139,5145.975Z" transform="translate(-1732.428 -5140.977)" fill="#ebebeb"/>
          </g>
          <g id="Group_10507" data-name="Group 10507" transform="translate(6.041)">
            <g id="Group_10506" data-name="Group 10506">
              <rect id="Rectangle_3271" data-name="Rectangle 3271" width="5.14" height="20.202" transform="translate(0.447 0.373)" fill="#ebebeb"/>
              <path id="Path_14088" data-name="Path 14088" d="M1753.409,5155.156h-6.034v-20.947h6.034Zm-5.14-.745h4.246v-19.457h-4.246Z" transform="translate(-1747.374 -5134.208)" fill="#ebebeb"/>
            </g>
            <path id="Path_14089" data-name="Path 14089" d="M1754.583,5145.975a1.722,1.722,0,1,1-1.694-1.413A1.571,1.571,0,0,1,1754.583,5145.975Z" transform="translate(-1749.872 -5140.977)" fill="#ebebeb"/>
          </g>
          <g id="Group_10509" data-name="Group 10509" transform="translate(12.082)">
            <g id="Group_10508" data-name="Group 10508">
              <rect id="Rectangle_3272" data-name="Rectangle 3272" width="5.14" height="20.202" transform="translate(0.447 0.373)" fill="#ebebeb"/>
              <path id="Path_14090" data-name="Path 14090" d="M1770.853,5155.156h-6.033v-20.947h6.033Zm-5.139-.745h4.245v-19.457h-4.245Z" transform="translate(-1764.819 -5134.208)" fill="#ebebeb"/>
            </g>
            <path id="Path_14091" data-name="Path 14091" d="M1772.027,5145.975a1.721,1.721,0,1,1-1.694-1.413A1.571,1.571,0,0,1,1772.027,5145.975Z" transform="translate(-1767.317 -5140.977)" fill="#ebebeb"/>
          </g>
          <g id="Group_10511" data-name="Group 10511" transform="translate(18.123)">
            <g id="Group_10510" data-name="Group 10510">
              <rect id="Rectangle_3273" data-name="Rectangle 3273" width="5.14" height="20.202" transform="translate(0.447 0.373)" fill="#ebebeb"/>
              <path id="Path_14092" data-name="Path 14092" d="M1788.3,5155.156h-6.034v-20.947h6.034Zm-5.14-.745h4.246v-19.457h-4.246Z" transform="translate(-1782.263 -5134.208)" fill="#ebebeb"/>
            </g>
            <path id="Path_14093" data-name="Path 14093" d="M1789.472,5145.975a1.722,1.722,0,1,1-1.694-1.413A1.571,1.571,0,0,1,1789.472,5145.975Z" transform="translate(-1784.761 -5140.977)" fill="#ebebeb"/>
          </g>
          <g id="Group_10513" data-name="Group 10513" transform="translate(24.164)">
            <g id="Group_10512" data-name="Group 10512">
              <rect id="Rectangle_3274" data-name="Rectangle 3274" width="5.14" height="20.202" transform="translate(0.447 0.373)" fill="#ebebeb"/>
              <path id="Path_14094" data-name="Path 14094" d="M1805.742,5155.156h-6.034v-20.947h6.034Zm-5.14-.745h4.245v-19.457H1800.6Z" transform="translate(-1799.708 -5134.208)" fill="#ebebeb"/>
            </g>
            <path id="Path_14095" data-name="Path 14095" d="M1806.917,5145.975a1.722,1.722,0,1,1-1.694-1.413A1.571,1.571,0,0,1,1806.917,5145.975Z" transform="translate(-1802.206 -5140.977)" fill="#ebebeb"/>
          </g>
        </g>
        <path id="Path_14096" data-name="Path 14096" d="M1731.522,5303.915a8.382,8.382,0,0,1,.8-3.712h-6.16a8.379,8.379,0,0,1,.8,3.712c0,2.246-2.7,6.393-2.7,9.157s2.862,3.671,4.98,3.671,4.979-.907,4.979-3.671S1731.522,5306.161,1731.522,5303.915Z" transform="translate(-1717.431 -5214.127)" fill="#ebebeb"/>
        <g id="Group_10516" data-name="Group 10516" transform="translate(26.148 57.471)">
          <g id="Group_10515" data-name="Group 10515" transform="translate(0.763)">
            <path id="Path_14097" data-name="Path 14097" d="M1801.451,5227.639c1.662-3.25-2.032-3.189-1.751-4.044.528-1.6,2.519.14,3.327-.667s-1.993-3.319-.526-4.19.953,2.075,2.22,1.866.513-3.321,2.008-2.974c1.124.262-.212,2.207-.088,3.115s2.44-.416,2.481.882-2.763.729-3.093,1.714,3.015,1.191,1.842,2.025-3.384-.166-3.966.7S1800.745,5229.019,1801.451,5227.639Z" transform="translate(-1793.646 -5217.604)" fill="#ebebeb"/>
            <path id="Path_14098" data-name="Path 14098" d="M1789.029,5235.305c-1.562-3.284-4.136-1.076-4.656-1.848-.976-1.448,1.908-1.378,1.8-2.425s-4.217-1.191-3.91-2.67,2.428.916,3.153.026-2.438-2.662-1.083-3.292c1.019-.473,1.712,1.693,2.567,2.267s1.384-1.727,2.507-.828-1.349,2.138-.75,3.033,3.147-.921,3.017.359-2.544,1.868-2.226,2.825S1789.692,5236.7,1789.029,5235.305Z" transform="translate(-1782.248 -5222.458)" fill="#ebebeb"/>
          </g>
          <path id="Path_14099" data-name="Path 14099" d="M1791.564,5241.555h-8.527s-2.993,2.143-2.993,4.674,1.866,5.16,7.257,5.16,7.257-2.629,7.257-5.16S1791.564,5241.555,1791.564,5241.555Z" transform="translate(-1780.044 -5233.26)" fill="#ebebeb"/>
        </g>
        <g id="Group_10517" data-name="Group 10517" transform="translate(28.24 91.079)">
          <rect id="Rectangle_3275" data-name="Rectangle 3275" width="7.87" height="8.908" transform="translate(2.435 2.629)" fill="#ebebeb"/>
          <ellipse id="Ellipse_541" data-name="Ellipse 541" cx="6.211" cy="2.629" rx="6.211" ry="2.629" fill="#ebebeb"/>
        </g>
        <g id="Group_10518" data-name="Group 10518" transform="translate(22.759 14.178)">
          <rect id="Rectangle_3276" data-name="Rectangle 3276" width="5.835" height="6.605" transform="translate(1.805 1.949)" fill="#ebebeb"/>
          <path id="Path_14100" data-name="Path 14100" d="M1779.467,5094.541c0,1.077-2.062,1.948-4.6,1.948s-4.605-.872-4.605-1.948,2.062-1.95,4.605-1.95S1779.467,5093.464,1779.467,5094.541Z" transform="translate(-1770.257 -5092.591)" fill="#ebebeb"/>
        </g>
        <g id="Group_10520" data-name="Group 10520" transform="translate(3.25)">
          <g id="Group_10519" data-name="Group 10519">
            <path id="Path_14101" data-name="Path 14101" d="M1743.164,5072.775s-2.019-5.842,6.917-12.414c0,0-7.651,7.01-5.14,12.414Z" transform="translate(-1732.91 -5057.345)" fill="#ebebeb"/>
            <path id="Path_14102" data-name="Path 14102" d="M1740.206,5068.406s-4.629-6.508,3.66-16.757c0,0-6.577,10.441-1.52,16.292Z" transform="translate(-1730.262 -5051.649)" fill="#ebebeb"/>
            <path id="Path_14103" data-name="Path 14103" d="M1725.086,5072.775s2.019-5.842-6.917-12.414c0,0,7.651,7.01,5.14,12.414Z" transform="translate(-1716.699 -5057.345)" fill="#ebebeb"/>
            <path id="Path_14104" data-name="Path 14104" d="M1733.132,5069.866s3.719-5.229-2.944-13.465c0,0,5.286,8.39,1.224,13.092Z" transform="translate(-1724.555 -5054.755)" fill="#ebebeb"/>
            <path id="Path_14105" data-name="Path 14105" d="M1742.334,5080.689s-1.745-5.9,7.491-12.181c0,0-7.972,6.757-5.715,12.239Z" transform="translate(-1732.41 -5062.67)" fill="#ebebeb"/>
            <path id="Path_14106" data-name="Path 14106" d="M1721.414,5078.621s1.745-5.9-7.49-12.18c0,0,7.972,6.757,5.714,12.237Z" transform="translate(-1713.923 -5061.318)" fill="#ebebeb"/>
          </g>
          <path id="Path_14107" data-name="Path 14107" d="M1727.239,5090.3H1721.2l2.772,9.346h6.537l2.772-9.346Z" transform="translate(-1718.678 -5076.917)" fill="#ebebeb"/>
        </g>
        <g id="Group_10530" data-name="Group 10530" transform="translate(4.688 68.296)">
          <g id="Group_10525" data-name="Group 10525" transform="translate(0 0)">
            <g id="Group_10521" data-name="Group 10521" transform="translate(0.447 4.945)">
              <rect id="Rectangle_3277" data-name="Rectangle 3277" width="2.468" height="18.491" transform="translate(0 2.468) rotate(-90)" fill="#ebebeb"/>
            </g>
            <g id="Group_10523" data-name="Group 10523" transform="translate(0 2.095)">
              <g id="Group_10522" data-name="Group 10522">
                <rect id="Rectangle_3278" data-name="Rectangle 3278" width="2.468" height="18.491" transform="translate(0.447 2.84) rotate(-90)" fill="#ebebeb"/>
                <path id="Path_14108" data-name="Path 14108" d="M1737.459,5258.126h-19.385v-3.213h19.385Zm-18.491-.745h17.6v-1.723h-17.6Z" transform="translate(-1718.074 -5254.914)" fill="#ebebeb"/>
              </g>
            </g>
            <g id="Group_10524" data-name="Group 10524" transform="translate(0.447)">
              <rect id="Rectangle_3279" data-name="Rectangle 3279" width="2.468" height="18.491" transform="translate(0 2.468) rotate(-90)" fill="#ebebeb"/>
            </g>
          </g>
          <g id="Group_10526" data-name="Group 10526" transform="translate(11.337 0)">
            <rect id="Rectangle_3280" data-name="Rectangle 3280" width="0.133" height="2.468" fill="#ebebeb"/>
          </g>
          <g id="Group_10527" data-name="Group 10527" transform="translate(12.826 0)">
            <rect id="Rectangle_3281" data-name="Rectangle 3281" width="0.133" height="2.468" fill="#ebebeb"/>
          </g>
          <g id="Group_10528" data-name="Group 10528" transform="translate(14.316 0)">
            <rect id="Rectangle_3282" data-name="Rectangle 3282" width="0.133" height="2.468" fill="#ebebeb"/>
          </g>
          <g id="Group_10529" data-name="Group 10529" transform="translate(15.805 0)">
            <rect id="Rectangle_3283" data-name="Rectangle 3283" width="0.133" height="2.468" fill="#ebebeb"/>
          </g>
          <rect id="Rectangle_3284" data-name="Rectangle 3284" width="8.702" height="0.407" transform="translate(9.33 5.365)" fill="#ebebeb"/>
          <rect id="Rectangle_3285" data-name="Rectangle 3285" width="8.702" height="0.407" transform="translate(9.33 5.975)" fill="#ebebeb"/>
          <rect id="Rectangle_3286" data-name="Rectangle 3286" width="8.702" height="0.407" transform="translate(9.33 6.585)" fill="#ebebeb"/>
        </g>
      </g>
      <g id="Group_10539" data-name="Group 10539" transform="translate(250.405 211.464)">
        <path id="Path_14109" data-name="Path 14109" d="M1360.076,5474.949h-116.7c-2.228,0-3.834-1.815-3.217-3.635h0a3.319,3.319,0,0,1,3.217-2.057h116.7a3.319,3.319,0,0,1,3.217,2.057h0C1363.91,5473.134,1362.3,5474.949,1360.076,5474.949Z" transform="translate(-1237.633 -5395.96)" fill="#ebebeb" opacity="0.32"/>
        <g id="Group_10534" data-name="Group 10534" transform="translate(0 25.217)">
          <rect id="Rectangle_3287" data-name="Rectangle 3287" width="2.257" height="47.812" transform="translate(1.346 0.267)" fill="#ebebeb"/>
          <rect id="Rectangle_3288" data-name="Rectangle 3288" width="2.257" height="47.812" transform="translate(123.951 0.267)" fill="#ebebeb"/>
          <g id="Group_10532" data-name="Group 10532">
            <path id="Path_14110" data-name="Path 14110" d="M1361.2,5335.893h-127l.966-4.7h124.848Z" transform="translate(-1233.828 -5330.926)" fill="#ebebeb"/>
            <path id="Path_14111" data-name="Path 14111" d="M1360.881,5335.656H1233.11l1.076-5.235h125.379Zm-127.011-.535h126.222l-1.048-4.166H1234.726Z" transform="translate(-1233.11 -5330.42)" fill="#ebebeb"/>
          </g>
          <g id="Group_10533" data-name="Group 10533" transform="translate(0.06 4.7)">
            <path id="Path_14112" data-name="Path 14112" d="M1360.988,5344.765h-126.78v49.073h2.1v-45.853h122.8v45.853h2.1v-49.073Z" transform="translate(-1233.887 -5344.498)" fill="#ebebeb"/>
            <path id="Path_14113" data-name="Path 14113" d="M1360.92,5393.6h-2.737v-45.852H1236.019V5393.6h-2.737v-49.607H1360.92Zm-2.1-.535h1.455v-48.538H1233.923v48.538h1.456v-45.852h123.445Z" transform="translate(-1233.282 -5343.994)" fill="#ebebeb"/>
          </g>
        </g>
        <g id="Group_10538" data-name="Group 10538" transform="translate(87.043)">
          <path id="Path_14114" data-name="Path 14114" d="M1526.2,5259.579v17.576a2.3,2.3,0,0,1-2.517,1.976h-36.711a2.3,2.3,0,0,1-2.517-1.976v-17.576a2.307,2.307,0,0,1,2.517-1.977h36.711A2.306,2.306,0,0,1,1526.2,5259.579Z" transform="translate(-1484.458 -5257.602)" fill="#ebebeb"/>
          <path id="Path_14115" data-name="Path 14115" d="M1488.563,5279.716a1.533,1.533,0,0,1-1.678-1.318v-17.576a1.533,1.533,0,0,1,1.678-1.319h36.709a1.533,1.533,0,0,1,1.678,1.319V5278.4a1.532,1.532,0,0,1-1.678,1.318Z" transform="translate(-1486.045 -5258.845)" fill="#ebebeb"/>
          <g id="Group_10535" data-name="Group 10535" transform="translate(1.359 1.051)">
            <path id="Path_14116" data-name="Path 14116" d="M1490.147,5280.3a.766.766,0,0,1-.839-.659v-17.575a.766.766,0,0,1,.839-.659h36.708a.766.766,0,0,1,.839.659v17.575a.766.766,0,0,1-.839.659Z" transform="translate(-1488.987 -5261.142)" fill="#ebebeb"/>
            <path id="Path_14117" data-name="Path 14117" d="M1526.251,5280.064h-36.709a1.064,1.064,0,0,1-1.16-.926v-17.575a1.064,1.064,0,0,1,1.16-.926h36.709a1.064,1.064,0,0,1,1.159.926v17.575A1.064,1.064,0,0,1,1526.251,5280.064Zm-36.709-18.893a.47.47,0,0,0-.519.392v17.575a.47.47,0,0,0,.519.392h36.709a.469.469,0,0,0,.518-.392v-17.575a.469.469,0,0,0-.518-.392Z" transform="translate(-1488.382 -5260.637)" fill="#ebebeb"/>
          </g>
          <path id="Path_14118" data-name="Path 14118" d="M1540.361,5301.829h-9.845l1.111-9.506h7.622Z" transform="translate(-1514.566 -5280.299)" fill="#ebebeb"/>
          <g id="Group_10536" data-name="Group 10536" transform="translate(15.912 11.253)">
            <path id="Path_14119" data-name="Path 14119" d="M1540.635,5306.314h-9.23l1.449-15.447h6.332Z" transform="translate(-1531.059 -5290.6)" fill="#ebebeb"/>
            <path id="Path_14120" data-name="Path 14120" d="M1540.328,5306.077h-9.922l1.5-15.981h6.924Zm-9.23-.534h8.536l-1.4-14.914H1532.5Z" transform="translate(-1530.406 -5290.096)" fill="#ebebeb"/>
          </g>
          <g id="Group_10537" data-name="Group 10537" transform="translate(9.645 26.041)">
            <path id="Path_14121" data-name="Path 14121" d="M1535.049,5335.93h-21.815c0-1.3,1.346-2.36,3.006-2.36h15.8c1.66,0,3.006,1.057,3.006,2.36Z" transform="translate(-1512.914 -5333.303)" fill="#ebebeb"/>
            <path id="Path_14122" data-name="Path 14122" d="M1534.765,5335.694h-22.456v-.267c0-1.449,1.492-2.63,3.327-2.63h15.8c1.834,0,3.327,1.181,3.327,2.63Zm-21.793-.534H1534.1a2.552,2.552,0,0,0-2.664-1.828h-15.8A2.553,2.553,0,0,0,1512.972,5335.16Z" transform="translate(-1512.309 -5332.798)" fill="#ebebeb"/>
          </g>
        </g>
      </g>
      <g id="Group_10547" data-name="Group 10547" transform="translate(131.066 211.686)">
        <path id="Path_14123" data-name="Path 14123" d="M941.283,5475.575h-116.7c-2.228,0-3.835-1.816-3.217-3.636h0a3.32,3.32,0,0,1,3.217-2.056h116.7a3.32,3.32,0,0,1,3.217,2.056h0C945.118,5473.759,943.511,5475.575,941.283,5475.575Z" transform="translate(-818.84 -5396.585)" fill="#ebebeb" opacity="0.32"/>
        <g id="Group_10542" data-name="Group 10542" transform="translate(0 25.217)">
          <rect id="Rectangle_3289" data-name="Rectangle 3289" width="2.257" height="47.812" transform="translate(1.346 0.267)" fill="#ebebeb"/>
          <rect id="Rectangle_3290" data-name="Rectangle 3290" width="2.257" height="47.812" transform="translate(123.951 0.267)" fill="#ebebeb"/>
          <g id="Group_10540" data-name="Group 10540">
            <path id="Path_14124" data-name="Path 14124" d="M942.411,5336.517h-127l.966-4.7H941.229Z" transform="translate(-815.035 -5331.55)" fill="#ebebeb"/>
            <path id="Path_14125" data-name="Path 14125" d="M942.088,5336.281H814.317l1.076-5.235H940.772Zm-127.011-.535H941.3l-1.048-4.167H815.933Z" transform="translate(-814.317 -5331.045)" fill="#ebebeb"/>
          </g>
          <g id="Group_10541" data-name="Group 10541" transform="translate(0.06 4.7)">
            <path id="Path_14126" data-name="Path 14126" d="M942.195,5345.39H815.414v49.072h2.1v-45.852h122.8v45.852h2.1V5345.39Z" transform="translate(-815.094 -5345.123)" fill="#ebebeb"/>
            <path id="Path_14127" data-name="Path 14127" d="M942.127,5394.226H939.39v-45.853H817.226v45.853h-2.737v-49.607H942.127Zm-2.1-.535h1.455v-48.538H815.13v48.538h1.455V5347.84H940.031Z" transform="translate(-814.489 -5344.619)" fill="#ebebeb"/>
          </g>
        </g>
        <g id="Group_10546" data-name="Group 10546" transform="translate(87.043)">
          <path id="Path_14128" data-name="Path 14128" d="M1107.41,5260.2v17.576a2.3,2.3,0,0,1-2.517,1.977h-36.711a2.3,2.3,0,0,1-2.517-1.977V5260.2a2.306,2.306,0,0,1,2.517-1.977h36.711A2.306,2.306,0,0,1,1107.41,5260.2Z" transform="translate(-1065.665 -5258.227)" fill="#ebebeb"/>
          <path id="Path_14129" data-name="Path 14129" d="M1069.771,5280.342a1.533,1.533,0,0,1-1.678-1.318v-17.576a1.534,1.534,0,0,1,1.678-1.318h36.708a1.534,1.534,0,0,1,1.678,1.318v17.576a1.533,1.533,0,0,1-1.678,1.318Z" transform="translate(-1067.252 -5259.47)" fill="#ebebeb"/>
          <g id="Group_10543" data-name="Group 10543" transform="translate(1.359 1.051)">
            <path id="Path_14130" data-name="Path 14130" d="M1071.354,5280.927a.766.766,0,0,1-.839-.659v-17.575a.766.766,0,0,1,.839-.659h36.708a.766.766,0,0,1,.839.659v17.575a.766.766,0,0,1-.839.659Z" transform="translate(-1070.195 -5261.767)" fill="#ebebeb"/>
            <path id="Path_14131" data-name="Path 14131" d="M1107.458,5280.689h-36.708a1.064,1.064,0,0,1-1.159-.927v-17.576a1.064,1.064,0,0,1,1.159-.925h36.708a1.064,1.064,0,0,1,1.16.925v17.576A1.064,1.064,0,0,1,1107.458,5280.689Zm-36.708-18.894c-.286,0-.519.176-.519.391v17.576a.469.469,0,0,0,.519.392h36.708a.469.469,0,0,0,.519-.392v-17.576c0-.215-.232-.391-.519-.391Z" transform="translate(-1069.59 -5261.262)" fill="#ebebeb"/>
          </g>
          <path id="Path_14132" data-name="Path 14132" d="M1121.568,5302.453h-9.845l1.111-9.5h7.622Z" transform="translate(-1095.773 -5280.923)" fill="#ebebeb"/>
          <g id="Group_10544" data-name="Group 10544" transform="translate(15.912 11.253)">
            <path id="Path_14133" data-name="Path 14133" d="M1121.843,5306.938h-9.23l1.449-15.447h6.331Z" transform="translate(-1112.267 -5291.224)" fill="#ebebeb"/>
            <path id="Path_14134" data-name="Path 14134" d="M1121.536,5306.7h-9.922l1.5-15.982h6.924Zm-9.229-.535h8.536l-1.4-14.914H1113.7Z" transform="translate(-1111.613 -5290.72)" fill="#ebebeb"/>
          </g>
          <g id="Group_10545" data-name="Group 10545" transform="translate(9.645 26.041)">
            <path id="Path_14135" data-name="Path 14135" d="M1116.257,5336.556h-21.815c0-1.3,1.346-2.361,3.006-2.361h15.8c1.66,0,3.006,1.058,3.006,2.361Z" transform="translate(-1094.121 -5333.927)" fill="#ebebeb"/>
            <path id="Path_14136" data-name="Path 14136" d="M1115.973,5336.319h-22.456v-.267c0-1.449,1.493-2.629,3.327-2.629h15.8c1.835,0,3.327,1.18,3.327,2.629Zm-21.794-.534h21.131a2.551,2.551,0,0,0-2.665-1.828h-15.8A2.552,2.552,0,0,0,1094.179,5335.786Z" transform="translate(-1093.516 -5333.423)" fill="#ebebeb"/>
          </g>
        </g>
      </g>
      <g id="Group_10559" data-name="Group 10559" transform="translate(0 0)">
        <g id="Group_10558" data-name="Group 10558">
          <g id="Group_10557" data-name="Group 10557">
            <g id="Group_10556" data-name="Group 10556">
              <g id="Group_10555" data-name="Group 10555">
                <g id="Group_10552" data-name="Group 10552" transform="translate(0.615)">
                  <g id="Group_10548" data-name="Group 10548" transform="translate(0.141)">
                    <path id="Path_14137" data-name="Path 14137" d="M899.155,4675.662h.644v-12.838H356.554V4931.1h542.6v-26.948h.005Z" transform="translate(-356.554 -4662.449)" fill="#fff"/>
                    <rect id="Rectangle_3291" data-name="Rectangle 3291" width="542.488" height="0.75" transform="translate(0 268.278)" fill="#a0bacb"/>
                    <rect id="Rectangle_3292" data-name="Rectangle 3292" width="543.244" height="0.75" fill="#7b88ac"/>
                  </g>
                  <g id="Group_10549" data-name="Group 10549" transform="translate(0 54.818)">
                    <path id="Path_14138" data-name="Path 14138" d="M460.158,4821.314v-.2h-9.03v.2H357.785v163.561H549.476V4821.314Zm81.382,5.251v35.966H460.158v-35.966Zm-90.412,42.173v68.712H365.721v-68.712Zm9.03,68.712v-68.712h81.382v68.712Zm-9.03-110.885v35.966H365.721v-35.966Zm-85.406,117.091h85.406v35.966H365.721Zm94.436,35.966v-35.966h81.382v35.966Z" transform="translate(-357.218 -4820.741)" fill="#ebebeb"/>
                    <path id="Path_14139" data-name="Path 14139" d="M548.972,4984.542H356.148V4820.231H449.49v-.2h10.164v.2h89.318Zm-191.691-.75H547.838V4820.981H458.521v-.2h-7.9v.2H357.282Zm183.754-4.5H458.521v-36.716h82.515Zm-81.381-.75H539.9v-35.217H459.655Zm-9.03.75h-86.54v-36.716h86.54Zm-85.407-.75H449.49v-35.217H365.218Zm175.818-41.423H458.521v-69.463h82.515Zm-81.381-.75H539.9V4868.4H459.655Zm-9.03.75h-86.54v-69.463h86.54Zm-85.407-.75H449.49V4868.4H365.218ZM541.036,4862.2H458.521v-36.716h82.515Zm-81.381-.75H539.9v-35.217H459.655Zm-9.03.75h-86.54v-36.716h86.54Zm-85.407-.75H449.49v-35.217H365.218Z" transform="translate(-356.148 -4820.034)" fill="#ebebeb"/>
                  </g>
                  <g id="Group_10550" data-name="Group 10550" transform="translate(203.906 53.85)">
                    <path id="Path_14140" data-name="Path 14140" d="M1183.948,4818.519v-.2h-8.282v.2h-85.616v163.561h175.823V4818.519Zm74.645,5.251v35.966h-74.645V4823.77Zm-82.928,42.173v68.712h-78.337v-68.712Zm8.282,68.712v-68.712h74.645v68.712Zm-8.282-110.885v35.966h-78.337V4823.77Zm-78.337,117.092h78.337v35.965h-78.337Zm86.62,35.965v-35.965h74.645v35.965Z" transform="translate(-1089.529 -4817.947)" fill="#ebebeb"/>
                    <path id="Path_14141" data-name="Path 14141" d="M1265.411,4981.748H1088.547V4817.437h85.616v-.2h9.322v.2h81.925Zm-175.824-.75H1264.37V4818.187h-81.925v-.2H1175.2v.2h-85.617Zm168.544-4.5h-75.685V4939.78h75.685Zm-74.645-.751h73.605V4940.53h-73.605Zm-8.282.751h-79.377V4939.78H1175.2Zm-78.337-.751h77.3V4940.53h-77.3Zm161.265-41.422h-75.685v-69.464h75.685Zm-74.645-.75h73.605V4865.61h-73.605Zm-8.282.75h-79.377v-69.464H1175.2Zm-78.337-.75h77.3V4865.61h-77.3Zm161.265-74.169h-75.685v-36.717h75.685Zm-74.645-.75h73.605v-35.215h-73.605Zm-8.282.75h-79.377v-36.717H1175.2Zm-78.337-.75h77.3v-35.215h-77.3Z" transform="translate(-1088.547 -4817.24)" fill="#ebebeb"/>
                  </g>
                  <g id="Group_10551" data-name="Group 10551" transform="translate(391.323 54.818)">
                    <path id="Path_14142" data-name="Path 14142" d="M1896.637,4979.623h-48.373v-35.966h48.373v-6.206h-48.373v-68.712h48.373v-6.207h-48.373v-35.966h48.373v-5.251h-48.373v-.2h-9.03v.2h-93.343v163.561h150.746Zm-57.4,0h-85.407v-35.966h85.407Zm0-42.172h-85.407v-68.712h85.407Zm0-74.919h-85.407v-35.966h85.407Z" transform="translate(-1745.325 -4820.741)" fill="#ebebeb"/>
                    <path id="Path_14143" data-name="Path 14143" d="M2039.87,5210.6h48.94v-.75H2041v-35.217h47.806v-.75h-48.94Z" transform="translate(-1937.498 -5051.345)" fill="#ebebeb"/>
                    <path id="Path_14144" data-name="Path 14144" d="M2039.87,5027.009h48.94v-.75H2041V4958.3h47.806v-.75h-48.94Z" transform="translate(-1937.498 -4909.924)" fill="#ebebeb"/>
                    <path id="Path_14145" data-name="Path 14145" d="M2039.87,4872.483h48.94v-.75H2041v-35.217h47.806v-.75h-48.94Z" transform="translate(-1937.498 -4830.318)" fill="#ebebeb"/>
                    <path id="Path_14146" data-name="Path 14146" d="M1853.713,4835.767h-86.54v36.717h86.54Zm-1.134,35.967h-84.272v-35.217h84.272Z" transform="translate(-1759.237 -4830.318)" fill="#ebebeb"/>
                    <path id="Path_14147" data-name="Path 14147" d="M1895.568,4983.792H1745.39V4820.981h93.342v-.2h7.9v.2h48.94v-.75h-47.806v-.2H1837.6v.2h-93.342v164.311h151.312Z" transform="translate(-1744.256 -4820.034)" fill="#ebebeb"/>
                    <path id="Path_14148" data-name="Path 14148" d="M1767.173,5210.6h86.54v-36.717h-86.54Zm1.134-35.967h84.272v35.217h-84.272Z" transform="translate(-1759.237 -5051.345)" fill="#ebebeb"/>
                    <path id="Path_14149" data-name="Path 14149" d="M1853.713,4957.546h-86.54v69.463h86.54Zm-1.134,68.713h-84.272V4958.3h84.272Z" transform="translate(-1759.237 -4909.924)" fill="#ebebeb"/>
                  </g>
                </g>
                <g id="Group_10553" data-name="Group 10553" transform="translate(0 243.454)">
                  <path id="Path_14150" data-name="Path 14150" d="M897.616,5345.168h-542.6v92.046h-.649V5474.4H897.61V5349.089h.005Z" transform="translate(-354.371 -5344.85)" fill="#f9f9f9"/>
                  <rect id="Rectangle_3293" data-name="Rectangle 3293" width="541.172" height="0.538" transform="translate(2.26 128.809)" fill="#f9f9f9"/>
                  <rect id="Rectangle_3294" data-name="Rectangle 3294" width="542.495" height="0.538" transform="translate(0.756)" fill="#f9f9f9"/>
                </g>
                <g id="Group_10554" data-name="Group 10554" transform="translate(33.832 4.73)">
                  <path id="Path_14151" data-name="Path 14151" d="M1453.9,4755.662V4675.4h-2.136v80.263c-6.66.409-11.9,4.586-11.9,9.688,0,5.374,5.805,9.729,12.966,9.729s12.966-4.355,12.966-9.729C1465.8,4760.248,1460.56,4756.07,1453.9,4755.662Z" transform="translate(-1097.787 -4675.398)" fill="#ffb2b0"/>
                  <path id="Path_14152" data-name="Path 14152" d="M466.1,4773.968v-80.263h-2.136v80.263c-6.66.409-11.9,4.586-11.9,9.689,0,5.373,5.806,9.729,12.966,9.729S478,4789.03,478,4783.657C478,4778.554,472.762,4774.376,466.1,4773.968Z" transform="translate(-452.067 -4687.365)" fill="#ffb2b0"/>
                  <path id="Path_14153" data-name="Path 14153" d="M813.705,4770.467v-58.354h-1.553v58.354c-4.842.3-8.65,3.334-8.65,7.044,0,3.906,4.22,7.073,9.427,7.073s9.427-3.167,9.427-7.073C822.356,4773.8,818.548,4770.765,813.705,4770.467Z" transform="translate(-681.799 -4699.398)" fill="#ffb2b0"/>
                  <path id="Path_14154" data-name="Path 14154" d="M1757.5,4770.467v-58.354h-1.553v58.354c-4.842.3-8.65,3.334-8.65,7.044,0,3.906,4.221,7.073,9.427,7.073s9.427-3.167,9.427-7.073C1766.15,4773.8,1762.342,4770.765,1757.5,4770.467Z" transform="translate(-1298.753 -4699.398)" fill="#ffb2b0"/>
                </g>
              </g>
            </g>
          </g>
        </g>
      </g>
    </g>
    <g id="Group_10577" data-name="Group 10577" transform="translate(394.057 4833.147)">
      <g id="Group_10573" data-name="Group 10573" transform="translate(32.418 0)">
        <g id="Group_10572" data-name="Group 10572">
          <g id="Group_10571" data-name="Group 10571">
            <g id="Group_10570" data-name="Group 10570">
              <g id="Group_10563" data-name="Group 10563" transform="translate(4.796 24.5)">
                <path id="Path_14159" data-name="Path 14159" d="M650.713,5251.118l-.986.339-.352,2.48,2.247.914Z" transform="translate(-624.113 -5237.822)" fill="#eaeaea"/>
                <path id="Path_14160" data-name="Path 14160" d="M626.455,5216.2l-9.26-3.476-.46,14.952L630,5231.608Z" transform="translate(-602.776 -5212.725)" fill="#f7c371"/>
                <path id="Path_14161" data-name="Path 14161" d="M654.6,5348.26l-17.558,5.315-1.112,26.316,15.53.752Z" transform="translate(-615.322 -5301.323)" fill="#eaeaea"/>
                <path id="Path_14162" data-name="Path 14162" d="M585,5316.25c11.115-.161,17.689,0,27.561.026,3.136-6.919,3.811-24.265,4.066-35.6.341-15.146-16.426-35.1-29.905-30.694-18.734,6.125-6.593,30.751-4.43,37.244C588.632,5306.248,585.466,5312.026,585,5316.25Z" transform="translate(-576.429 -5236.676)" fill="#03b4e9"/>
                <path id="Path_14163" data-name="Path 14163" d="M606.813,5341.561c-.129-4.974-2.336-14.253-11.539-31.274-1.785-3.3-3.78-13.146-5.678-21.369-.709-3.07-5.99,2.8-6.809,10.328-.508,4.666,3.107,10.729,3.629,13.3,3.906,19.2,3.174,24.8,2.707,29.019C595.629,5341.587,606.813,5341.561,606.813,5341.561Z" transform="translate(-580.554 -5261.988)" fill="#0080af"/>
                <path id="Path_14164" data-name="Path 14164" d="M631.956,5295.091c-1.285-19.543-16.618-38.569-30.225-43.83-2.286-.884-.271-2.6,6.222-2.1C613.762,5249.637,637.211,5260.875,631.956,5295.091Z" transform="translate(-592.375 -5236.485)" fill="#219ecc"/>
                <path id="Path_14165" data-name="Path 14165" d="M644.608,5282.471c-2.458-16.406-8.726-24.95-23.2-33.138,5.664.462,28.246,7.8,24.492,39.891C645.807,5290.042,645.033,5285.309,644.608,5282.471Z" transform="translate(-605.833 -5236.655)" fill="#fff"/>
                <path id="Path_14166" data-name="Path 14166" d="M681.236,5409.979c.082-.688-.236-1.293-.712-1.35s-.928.456-1.011,1.145.235,1.292.712,1.351S681.153,5410.669,681.236,5409.979Z" transform="translate(-643.806 -5340.784)" fill="#0080af"/>
                <path id="Path_14167" data-name="Path 14167" d="M684.071,5386.409c.083-.688-.236-1.292-.712-1.35s-.928.454-1.011,1.144.235,1.293.711,1.35S683.988,5387.1,684.071,5386.409Z" transform="translate(-645.659 -5325.376)" fill="#0080af"/>
                <path id="Path_14168" data-name="Path 14168" d="M645.7,5254.611l3.377,1.113-1.227-3.642-.643-.334Z" transform="translate(-621.71 -5238.234)" fill="#ffd9a4"/>
                <path id="Path_14169" data-name="Path 14169" d="M666.9,5298.656l-1.149-6.619s2.686-20.744-12.428-30.907l.175-.525C665.928,5269.358,669.891,5284.669,666.9,5298.656Z" transform="translate(-626.694 -5244.023)" fill="#ffd9a4"/>
                <path id="Path_14170" data-name="Path 14170" d="M625.1,5244.811l-13.264-3.342-1.642,2.674,12.61,4.913Z" transform="translate(-598.502 -5231.515)" fill="#fff"/>
              </g>
              <g id="Group_10565" data-name="Group 10565" transform="translate(0 41.885)">
                <g id="Group_10564" data-name="Group 10564">
                  <path id="Path_14171" data-name="Path 14171" d="M563.638,5305.7c-3.382.725,1.952-41.152,7.442-42.774,0,0,10.794.483,14.917,19.567C586,5282.493,575.995,5303.055,563.638,5305.7Z" transform="translate(-562.58 -5262.926)" fill="#03b4e9"/>
                  <path id="Path_14172" data-name="Path 14172" d="M569.675,5336.335c13.516.011,20.95-20.433,20.95-20.433a7.93,7.93,0,0,0-.44-1.87C583.532,5329.453,569.113,5336.335,569.675,5336.335Z" transform="translate(-567.207 -5296.334)" fill="#0080af"/>
                  <path id="Path_14173" data-name="Path 14173" d="M695.322,5426.133c0-.587-1.027-.738-2.191-.734s-2.026.16-2.024.748.947,1.059,2.112,1.056S695.324,5426.719,695.322,5426.133Z" transform="translate(-646.598 -5369.133)" fill="#f7c371"/>
                  <path id="Path_14174" data-name="Path 14174" d="M693.746,5430.6c0-.586-1.025-.737-2.19-.733s-2.027.161-2.025.748.948,1.061,2.112,1.056S693.748,5431.189,693.746,5430.6Z" transform="translate(-645.567 -5372.057)" fill="#f7c371"/>
                  <path id="Path_14175" data-name="Path 14175" d="M699.832,5416.641c-.576-.115-1.023,1.341-1.359,3.03s-.437,2.973.141,3.088,1.314-1.162,1.65-2.854S700.409,5416.754,699.832,5416.641Z" transform="translate(-651.234 -5363.404)" fill="#ffd8a3"/>
                  <path id="Path_14176" data-name="Path 14176" d="M672.867,5413.069c2.5.1,10.352-.194,10.6,2.571.216,2.475-2.927,5.6-11.218-.25Z" transform="translate(-634.268 -5361.074)" fill="#ffd8a3"/>
                  <path id="Path_14177" data-name="Path 14177" d="M669.469,5411.47l-4.821-.325,2.271-6.9,3.868,2.74Z" transform="translate(-629.302 -5355.309)" fill="#eaeaea"/>
                  <path id="Path_14178" data-name="Path 14178" d="M564.44,5365.888s10.707,7.152,36.011,13.507c0,0,2.267-1.8,2.059-6.845,0,0-17.237-14.587-30.281-17.6C572.23,5354.953,562.973,5361.043,564.44,5365.888Z" transform="translate(-563.693 -5323.083)" fill="#03b4e9"/>
                  <path id="Path_14179" data-name="Path 14179" d="M660.885,5407.836a1.021,1.021,0,1,0-.567-1.48A1.135,1.135,0,0,0,660.885,5407.836Z" transform="translate(-626.398 -5356.392)" fill="#0080af"/>
                </g>
              </g>
              <g id="Group_10569" data-name="Group 10569" transform="translate(9.657)">
                <path id="Path_14180" data-name="Path 14180" d="M598.266,5166.96c-7.167-6.827-8.018-19.332-7.762-19.8,2.731-5.024,11.955-5.658,16.727-4.93,4.023.613,7.334,2.428,5.741,5.692-.55,1.129-3.92-.9-4.853-.663-1.764.439-.058,25.206-.058,25.206Z" transform="translate(-590.465 -5141.978)" fill="#c3e8e6"/>
                <g id="Group_10567" data-name="Group 10567" transform="translate(7.863 5.479)">
                  <g id="Group_10566" data-name="Group 10566" transform="translate(2.387)">
                    <path id="Path_14181" data-name="Path 14181" d="M662.476,5209.316l.741-1.667-1.341-.627Z" transform="translate(-647.396 -5189.976)" fill="#ffd8a3"/>
                    <path id="Path_14182" data-name="Path 14182" d="M621.47,5179.929c.995,2,7.978,5.665,14.322,4.589-.307-8.388-2.309-22.049-4.144-24.194-1.806-2.111-8.124-3.036-8.788-2.243,2.563,2.387.067,11.714-1.137,12.689C618.789,5173.15,620.431,5177.847,621.47,5179.929Z" transform="translate(-620.064 -5157.8)" fill="#ffd8a3"/>
                    <path id="Path_14183" data-name="Path 14183" d="M663.5,5194.94a59.336,59.336,0,0,1-4.009-6.613c-1.279-2.5.229,7.074.229,7.074S662.649,5195.706,663.5,5194.94Z" transform="translate(-645.503 -5177.484)" fill="#ffd8a3"/>
                    <path id="Path_14184" data-name="Path 14184" d="M663.181,5230.984a1.058,1.058,0,0,0,.546-1.453,1.273,1.273,0,0,0-1.665-.173,1.058,1.058,0,0,0-.547,1.454A1.275,1.275,0,0,0,663.181,5230.984Z" transform="translate(-647.073 -5204.433)" fill="#ffd8a3"/>
                    <path id="Path_14185" data-name="Path 14185" d="M664.4,5221.937c0-.169-.207-.31-.466-.312s-.468.136-.469.305.207.31.465.313S664.4,5222.107,664.4,5221.937Z" transform="translate(-648.435 -5199.522)" fill="#ffd8a3"/>
                  </g>
                  <path id="Path_14186" data-name="Path 14186" d="M617.241,5192.794c-.543-1.467-1.84-2.391-2.9-2.061s-1.476,1.783-.934,3.25a3.466,3.466,0,0,0,3.764,1.767C618.23,5195.421,617.783,5194.261,617.241,5192.794Z" transform="translate(-613.171 -5179.285)" fill="#ffd8a3"/>
                </g>
                <path id="Path_14187" data-name="Path 14187" d="M660.03,5212.246l.2,3.413s-.957.018-1.214-.379a11.951,11.951,0,0,1-1.1-3.322Z" transform="translate(-634.557 -5187.723)" fill="#ffab00"/>
                <path id="Path_14188" data-name="Path 14188" d="M660.573,5212.623l.172,3.03s-.705.024-.879-.148a8.513,8.513,0,0,1-1.046-3.142Z" transform="translate(-635.148 -5187.988)" fill="#fff"/>
                <path id="Path_14189" data-name="Path 14189" d="M651.638,5181.654a.829.829,0,0,0-.276-.517c-.385-.316-3.145.917-3.036,1.512l.069.372c.079.429.878-.133,1.721-.355.806-.214,1.662-.07,1.6-.477Z" transform="translate(-628.286 -5167.542)" fill="#2d356b"/>
                <path id="Path_14190" data-name="Path 14190" d="M653.633,5190.922c-.045-.5-.361-.914-.707-.917s-.589.4-.545.907.361.914.706.916S653.677,5191.425,653.633,5190.922Z" transform="translate(-630.936 -5173.374)" fill="#2d356b"/>
                <path id="Path_14191" data-name="Path 14191" d="M657.566,5211.7c0-.119-.065-.215-.149-.215s-.151.095-.152.213.066.213.149.215S657.565,5211.819,657.566,5211.7Z" transform="translate(-634.132 -5187.415)" fill="#ffab00"/>
                <g id="Group_10568" data-name="Group 10568" transform="translate(8.765 0.434)">
                  <path id="Path_14192" data-name="Path 14192" d="M623.546,5162.357c2.79-.1-.177,12.891,1.326,13.638s.228,1.923-.541,1.723c-1.762-.458-2.443-3.965-2.8-6.207C621.123,5169.017,623.31,5162.365,623.546,5162.357Z" transform="translate(-619.502 -5155.734)" fill="#c3e8e6"/>
                  <path id="Path_14193" data-name="Path 14193" d="M630.96,5143.67s-1.545.861-5.359-.245c-2.454-.71-9.593.6-9.82,2.648s6.672,5.079,9.224,5.2C629.76,5151.505,630.93,5146.625,630.96,5143.67Z" transform="translate(-615.775 -5143.231)" fill="#c3e8e6"/>
                </g>
              </g>
            </g>
          </g>
        </g>
      </g>
      <g id="Group_10576" data-name="Group 10576" transform="translate(0 50.598)">
        <g id="Group_10574" data-name="Group 10574" transform="translate(0 34.712)">
          <rect id="Rectangle_3295" data-name="Rectangle 3295" width="167.43" height="5.025" fill="#40558d"/>
          <rect id="Rectangle_3296" data-name="Rectangle 3296" width="155.538" height="90.309" transform="translate(5.724 1.938)" fill="#40558d"/>
          <rect id="Rectangle_3297" data-name="Rectangle 3297" width="48.264" height="90.309" transform="translate(5.724 1.938)" fill="#7b87ab"/>
          <rect id="Rectangle_3298" data-name="Rectangle 3298" width="167.43" height="6.541" transform="translate(0 1.938)" fill="#2d356b"/>
        </g>
        <g id="Group_10575" data-name="Group 10575" transform="translate(51.745)">
          <path id="Path_14194" data-name="Path 14194" d="M689.869,5320.441H728.7a2.4,2.4,0,0,0,2.359-1.953l5.234-27.552a2.4,2.4,0,0,0-2.359-2.85H695.1a2.4,2.4,0,0,0-2.36,1.954l-5.234,27.551A2.4,2.4,0,0,0,689.869,5320.441Z" transform="translate(-663.545 -5288.087)" fill="#cfd0d8"/>
          <path id="Path_14195" data-name="Path 14195" d="M692.744,5290.9a1.3,1.3,0,1,1,1.917.9l-5.234,27.552a1.3,1.3,0,1,1-1.916-.9Z" transform="translate(-663.545 -5288.943)" fill="#ebebeb"/>
          <path id="Path_14196" data-name="Path 14196" d="M621.121,5384.248h59.691a2.733,2.733,0,0,0,2.733-2.732H618.388A2.733,2.733,0,0,0,621.121,5384.248Z" transform="translate(-618.388 -5349.161)" fill="#9898a4"/>
          <path id="Path_14197" data-name="Path 14197" d="M618.388,5381.516h25.127a2.935,2.935,0,0,1-3.1,2.732H621.489A2.934,2.934,0,0,1,618.388,5381.516Z" transform="translate(-618.388 -5349.161)" fill="#cfd0d8"/>
          <circle id="Ellipse_542" data-name="Ellipse 542" cx="2.756" cy="2.756" r="2.756" transform="translate(45.621 17.669) rotate(-67.5)" fill="#fff4ba"/>
        </g>
      </g>
    </g>
    <g id="Group_10578" data-name="Group 10578" transform="translate(380.792 4862.791)">
      <rect id="Rectangle_3299" data-name="Rectangle 3299" width="52.176" height="26.223" rx="6.672" transform="translate(15.588 18.611)" fill="#fff" stroke="#231f20" stroke-miterlimit="10" stroke-width="0.25"/>
      <text id="Glen" transform="translate(31.176 35.223)" fill="#2d356b" font-size="10" font-family="TrebuchetMS-Bold, Trebuchet MS" font-weight="700"><tspan x="0" y="0">Glen</tspan></text>
    </g>
    <g id="Group_10579" data-name="Group 10579" transform="translate(355.109 4660.49)">
      <rect id="Rectangle_3300" data-name="Rectangle 3300" width="66.19" height="39.048" transform="translate(66.19 39.048) rotate(-180)" fill="#ebebeb"/>
    </g>
    <text id="_4" data-name="4" transform="translate(367.542 4689.681)" fill="#2d356b" font-size="33" font-family="TrebuchetMS-Bold, Trebuchet MS" font-weight="700"><tspan x="0" y="0">4</tspan></text>
    <g id="Group_10581" data-name="Group 10581" transform="translate(429.14 4677.185)">
      <g id="Group_10580" data-name="Group 10580" transform="translate(-28 -15.642)">
        <path id="Path_14198" data-name="Path 14198" d="M977.081,4867.765c14.716,23.331,1.584,47.871-32.026,56.813-35.7,9.5-81.286-2.117-103.206-25.983-18.249,12.432-45.762,21.731-77.061,24.568-57.7,5.23-106.393-13.472-108.767-41.773a28.86,28.86,0,0,1,3.918-16.581c-48.959,9.72-77.153-2.619-88.241-34.768-8.182-23.724,18.679-64.53,89.093-70.913,8.978-.815,17.766-1.279,26.272-1.421-.161-.784-2.528-5.265,1.356-12.9,16.882-33.2,72.731-37.261,130.622-29.051,48.746,6.913,72.492,29.06,83.2,48.878,0,0,140.29-34.406,162.788,43.535C1065.025,4808.167,1090.676,4877,977.081,4867.765Z" transform="translate(-570.276 -4712.114)" fill="#fff" stroke="#ebebeb" stroke-miterlimit="10" stroke-width="1"/>
        <ellipse id="Ellipse_543" data-name="Ellipse 543" cx="11.768" cy="12.739" rx="11.768" ry="12.739" transform="translate(8.244 154.482) rotate(-131)" fill="#fff" stroke="#ebebeb" stroke-miterlimit="10" stroke-width="1"/>
        <ellipse id="Ellipse_544" data-name="Ellipse 544" cx="6.973" cy="7.549" rx="6.973" ry="7.549" transform="translate(6.715 164.533) rotate(-131)" fill="#fff" stroke="#ebebeb" stroke-miterlimit="10" stroke-width="1"/>
        <ellipse id="Ellipse_545" data-name="Ellipse 545" cx="5.965" cy="6.457" rx="5.965" ry="6.457" transform="translate(12.874 179.967) rotate(-131)" fill="#fff" stroke="#ebebeb" stroke-miterlimit="10" stroke-width="1"/>
      </g>
    </g>
    <g id="Group_10598" data-name="Group 10598" transform="translate(769.886 4822.133)">
      <g id="Group_10597" data-name="Group 10597" transform="translate(0 0)">
        <g id="Group_10596" data-name="Group 10596">
          <g id="Group_10582" data-name="Group 10582" transform="translate(0 82.4)">
            <path id="Path_14199" data-name="Path 14199" d="M1314.108,5365.085l-7.913,1.489c-6.959,24.856-5.25,54.491-20.8,105.244,0,0,1.485.647,1.7,0,12.938-39.245,20.014-70.013,22.524-74.242C1315.2,5388.183,1322.172,5380.2,1314.108,5365.085Z" transform="translate(-1281.492 -5361.252)" fill="#ffd8a3"/>
            <path id="Path_14200" data-name="Path 14200" d="M1349.251,5360.589c9.739,18.164,2.447,16.755,2.13,26.15-.913,27.089,16.359,40.868,21.72,82.3,0,0-2.123-.108-2.184-.707-3.331-33.057-32.623-64.686-33.828-95.377-.078-1.979-.165-7.891,2.144-10.006C1342.762,5359.718,1349.252,5360.589,1349.251,5360.589Z" transform="translate(-1315.266 -5358.242)" fill="#f7c371"/>
            <path id="Path_14201" data-name="Path 14201" d="M1422.567,5670.6h6.364s.308-1.807-1.112-2.1C1426.925,5668.322,1425.344,5668.744,1422.567,5670.6Z" transform="translate(-1371.161 -5559.571)" fill="#7b88ac"/>
            <path id="Path_14202" data-name="Path 14202" d="M1274.125,5671.052h5.595s.27-1.8-.978-2.1C1277.956,5668.775,1276.566,5669.194,1274.125,5671.052Z" transform="translate(-1274.125 -5559.866)" fill="#7b88ac"/>
            <path id="Path_14203" data-name="Path 14203" d="M1345,5418.129s-26.717,4.295-32.839,2.577c0,0,5.844-60.711,10.019-64.434s11.688-1.719,11.688-1.719a23.621,23.621,0,0,1,3.9,25.2C1332.2,5392.928,1345,5418.129,1345,5418.129Z" transform="translate(-1298.987 -5354.015)" fill="#219ecc"/>
          </g>
          <g id="Group_10595" data-name="Group 10595" transform="translate(12.92)">
            <g id="Group_10585" data-name="Group 10585" transform="translate(0 37.109)">
              <path id="Path_14204" data-name="Path 14204" d="M1369.994,5223.284c6.587-1.59-2.62,33.356-4.56,33.857,0,0-3.692.045-4.153-1.592C1359.887,5250.6,1367.054,5223.994,1369.994,5223.284Z" transform="translate(-1343.902 -5223.231)" fill="#0080af"/>
              <g id="Group_10584" data-name="Group 10584" transform="translate(0 30.397)">
                <g id="Group_10583" data-name="Group 10583" transform="translate(0 19.767)">
                  <path id="Path_14205" data-name="Path 14205" d="M1324.223,5369.028c-1.289,1.7-1.231,6.95-3.023,6.452-1.605-.446-3.524-3.538,1.664-7.391Z" transform="translate(-1316.695 -5368.088)" fill="#f8c471"/>
                  <path id="Path_14206" data-name="Path 14206" d="M1318.876,5375.2c2.884.608,2.13,4.119,1.638,5.169-.543,1.155-2.86,1.292-3.565.562S1317.773,5374.968,1318.876,5375.2Z" transform="translate(-1314.921 -5372.732)" fill="#f8c471"/>
                  <path id="Path_14207" data-name="Path 14207" d="M1314.813,5379.125c-1.037,1.394-2.893,2.489-3.3,1.966-.465-.589,1.308-1.23,1.934-2.708.681-1.6,1.194-2.568,1.824-2.339S1315.853,5377.731,1314.813,5379.125Z" transform="translate(-1311.432 -5373.267)" fill="#f8c471"/>
                  <path id="Path_14208" data-name="Path 14208" d="M1313.918,5387.043c-.64,1.343-1.283,1.9-1.62,1.688s.075-.953.712-2.3,1.115-3.211,1.453-3S1314.552,5385.7,1313.918,5387.043Z" transform="translate(-1311.918 -5378.109)" fill="#f8c471"/>
                  <path id="Path_14209" data-name="Path 14209" d="M1318.594,5390.433c-.363,1.475-1.332,2.589-1.7,2.453s.29-1.409.654-2.883.678-2.412,1.043-2.273S1318.958,5388.959,1318.594,5390.433Z" transform="translate(-1314.934 -5380.918)" fill="#f8c471"/>
                  <path id="Path_14210" data-name="Path 14210" d="M1324.133,5388.063c-.422,1.457-.987,2.175-1.348,2.029s.1-1.054.52-2.51.738-2.472,1.1-2.325S1324.556,5386.6,1324.133,5388.063Z" transform="translate(-1318.768 -5379.302)" fill="#f8c471"/>
                </g>
                <path id="Path_14211" data-name="Path 14211" d="M1328.11,5332.242c4.654,2.585,16.408-17.847,16.357-18.98,0,0-2.69-3.021-3.62-2.066C1338.443,5313.666,1326.032,5331.087,1328.11,5332.242Z" transform="translate(-1322.182 -5311.008)" fill="#0080af"/>
                <path id="Path_14212" data-name="Path 14212" d="M1324.178,5363.694l-1.026-1.157,1.474-5.88s2.233,1.613,2.456,2.251S1324.178,5363.694,1324.178,5363.694Z" transform="translate(-1319.094 -5340.849)" fill="#eaeaea"/>
                <path id="Path_14213" data-name="Path 14213" d="M1325.818,5369.193l1.458.627,5.5-3.027s-2.262-1.62-2.967-1.647S1325.818,5369.193,1325.818,5369.193Z" transform="translate(-1320.836 -5346.398)" fill="#eaeaea"/>
              </g>
            </g>
            <g id="Group_10591" data-name="Group 10591" transform="translate(3.636)">
              <g id="Group_10590" data-name="Group 10590">
                <g id="Group_10586" data-name="Group 10586" transform="translate(5.048 1.62)">
                  <path id="Path_14214" data-name="Path 14214" d="M1338.033,5168.145c-4.693-4.8,2.96-5.625,2.732-9.71s-1.156-2.823-1.657-8.1.957-7.194,1.142-10.256-1.726-8.138.131-11.965,2.887-2.486,4.5-5.529,2.979.362,5.493,1.8,5.629-5.859,10.028-2.929,3.828,8.614,5.086,11.84,5.671,4.635,6.213,10.363-2.6,4.355-1.271,8.336,5.271,3.76,5.814,9.49c0,0,.385,5.744-6,5.283s-4.472,3.01-11.356.62-4.715,3.793-9.542,1.36S1342.224,5172.434,1338.033,5168.145Z" transform="translate(-1336.507 -5120.751)" fill="#2d356b"/>
                </g>
                <g id="Group_10587" data-name="Group 10587" transform="translate(0 19.848)">
                  <path id="Path_14215" data-name="Path 14215" d="M1369.653,5173.388l-5.9,3.7-1.058,12.751,4.738-1.714Z" transform="translate(-1348.58 -5173.388)" fill="#f7c371"/>
                  <path id="Path_14216" data-name="Path 14216" d="M1324.85,5275.176c3.79-2.482,12.587-7.97,22.343-1.176-2.918-8.569-5.568-16.994-5.662-24.042-.175-13.067,10.93-28.414,1.742-34.322-9.756-6.272-21.342,22.691-21.342,22.691C1331.687,5243.817,1328.988,5259.55,1324.85,5275.176Z" transform="translate(-1321.931 -5200.425)" fill="#03b4e9"/>
                  <path id="Path_14217" data-name="Path 14217" d="M1363.921,5213.542l-1.714-.2-7.661,7.207,2.268,1.916S1361.955,5217.221,1363.921,5213.542Z" transform="translate(-1343.251 -5199.504)" fill="#fff"/>
                  <path id="Path_14218" data-name="Path 14218" d="M1345.177,5222.355l-.108-.078c2.022-4.033,6.441-10.211,10.707-9.815C1351.893,5215.928,1345.177,5222.355,1345.177,5222.355Z" transform="translate(-1337.056 -5198.919)" fill="#f7c371"/>
                </g>
                <g id="Group_10589" data-name="Group 10589" transform="translate(5.334)">
                  <g id="Group_10588" data-name="Group 10588">
                    <path id="Path_14219" data-name="Path 14219" d="M1357.479,5142.713c3.144-.864,9.476-1.871,12.527-6.619,3.966-6.173,2.958-9.992,1.637-14.638-2.52-8.856-17.626-4.709-16.682-2.1C1356.215,5122.821,1346.083,5145.841,1357.479,5142.713Z" transform="translate(-1346.923 -5116.074)" fill="#2d356b"/>
                    <path id="Path_14220" data-name="Path 14220" d="M1344.642,5150.7c-1.147,0-3.2-5.925-3.809-10.469-.2-1.5,1.411-1.674,1.311-6.785-.06-3,1.326-7.153,6.35-10.133,4.743-2.814,5.1,6.5,5.5,8.649,1.158,6.127,2.722,9.975,1.151,12.94C1352.078,5150.687,1345.881,5150.4,1344.642,5150.7Z" transform="translate(-1339.609 -5120.46)" fill="#ffd8a3"/>
                    <path id="Path_14221" data-name="Path 14221" d="M1351.6,5179.864a.263.263,0,0,0-.239-.287.278.278,0,0,0-.229.3.264.264,0,0,0,.24.286A.276.276,0,0,0,1351.6,5179.864Z" transform="translate(-1346.354 -5157.586)" fill="#ffab00"/>
                    <path id="Path_14222" data-name="Path 14222" d="M1350.6,5155.961c-.027-.806-.5-1.436-1.051-1.408s-.982.7-.955,1.51.5,1.437,1.052,1.409S1350.628,5156.769,1350.6,5155.961Z" transform="translate(-1344.694 -5141.227)" fill="#2d356b"/>
                    <path id="Path_14223" data-name="Path 14223" d="M1350.094,5155.9c-.776-1.116-1.883-2.228-3.992-1.49A7.71,7.71,0,0,1,1350.094,5155.9Z" transform="translate(-1343.065 -5140.976)" fill="#2d356b"/>
                    <path id="Path_14224" data-name="Path 14224" d="M1345.55,5189.677c-.034-.187-.609.475-.882.5-.772.065-.552,1.05.219.9C1345.187,5191.025,1345.586,5189.875,1345.55,5189.677Z" transform="translate(-1341.813 -5164.166)" fill="#f36973"/>
                    <path id="Path_14225" data-name="Path 14225" d="M1345.365,5179.91c.523-.208-3.006-1.224-2.367-.027A5.546,5.546,0,0,0,1345.365,5179.91Z" transform="translate(-1340.985 -5157.411)" fill="#f36973"/>
                    <path id="Path_14226" data-name="Path 14226" d="M1345.983,5143.35a4.7,4.7,0,0,1,5.664,2.956C1350.121,5144.216,1348.938,5143.434,1345.983,5143.35Z" transform="translate(-1342.987 -5133.816)" fill="#2d356b"/>
                    <path id="Path_14227" data-name="Path 14227" d="M1338.139,5165.615l1.774.544.064-4.532-2.645,3.226Z" transform="translate(-1337.333 -5145.852)" fill="#ffd8a3"/>
                    <path id="Path_14228" data-name="Path 14228" d="M1340.294,5175.361l-1.379-2.806,1.332-.048Z" transform="translate(-1338.367 -5152.964)" fill="#ffd8a3"/>
                    <path id="Path_14229" data-name="Path 14229" d="M1343.449,5184.422a33.352,33.352,0,0,1-.875-3.933h3.2S1345.141,5183.882,1343.449,5184.422Z" transform="translate(-1340.758 -5158.182)" fill="#ffab00"/>
                    <path id="Path_14230" data-name="Path 14230" d="M1345.167,5182.657h-1.825q-.158-.74-.293-1.546h2.619Z" transform="translate(-1341.07 -5158.588)" fill="#fff"/>
                    <path id="Path_14231" data-name="Path 14231" d="M1386.141,5162.783c-.072-1.4-.546-2.428.515-2.481s1.982,1.039,2.054,2.438a2.3,2.3,0,0,1-1.794,2.629C1385.853,5165.42,1386.212,5164.183,1386.141,5162.783Z" transform="translate(-1369.129 -5144.983)" fill="#f7c371"/>
                  </g>
                  <path id="Path_14232" data-name="Path 14232" d="M1356.539,5122.5c3.366,5.085,9.263,12.521,7.844,19.767,2.984-7.714,1.652-18.006-3.466-22.243C1360.378,5120.8,1355.8,5120.564,1356.539,5122.5Z" transform="translate(-1349.835 -5118.656)" fill="#2d356b"/>
                </g>
              </g>
            </g>
            <g id="Group_10594" data-name="Group 10594" transform="translate(23.457 36.304)">
              <path id="Path_14233" data-name="Path 14233" d="M1379.5,5221.384c4.689-4.892,15.788,29.5,14.425,30.969,0,0-3.085,2.03-4.356.9C1385.728,5249.839,1377.408,5223.568,1379.5,5221.384Z" transform="translate(-1379.169 -5220.908)" fill="#0080af"/>
              <g id="Group_10593" data-name="Group 10593" transform="translate(10.241 30.186)">
                <g id="Group_10592" data-name="Group 10592" transform="translate(4.378 24.474)">
                  <path id="Path_14234" data-name="Path 14234" d="M1423.3,5378.745c.244,2.2,4.043,6.109,2.337,7.015-1.526.812-5.18-.142-4.032-6.75Z" transform="translate(-1421.382 -5378.745)" fill="#ffd9a4"/>
                  <path id="Path_14235" data-name="Path 14235" d="M1421.88,5388.6c2.6-1.6,4.548,1.576,4.928,2.72.418,1.255-1.227,3.016-2.28,2.969S1420.885,5389.218,1421.88,5388.6Z" transform="translate(-1421.561 -5384.9)" fill="#ffd9a4"/>
                  <path id="Path_14236" data-name="Path 14236" d="M1423.877,5392.921c.216,1.791-.4,3.94-1.08,3.841-.771-.11.1-1.86-.481-3.419-.631-1.69-.938-2.787-.3-3.064S1423.662,5391.128,1423.877,5392.921Z" transform="translate(-1421.566 -5386.257)" fill="#ffd9a4"/>
                  <path id="Path_14237" data-name="Path 14237" d="M1427.125,5401.66c.48,1.468.393,2.345-.011,2.428s-.626-.771-1.107-2.237-1.456-3.212-1.052-3.3S1426.641,5400.194,1427.125,5401.66Z" transform="translate(-1423.655 -5391.692)" fill="#ffd9a4"/>
                  <path id="Path_14238" data-name="Path 14238" d="M1432.3,5401.479c.781,1.369.848,2.9.475,3.058s-.789-1.267-1.569-2.636-1.213-2.3-.84-2.456S1431.524,5400.111,1432.3,5401.479Z" transform="translate(-1427.169 -5392.264)" fill="#ffd9a4"/>
                  <path id="Path_14239" data-name="Path 14239" d="M1434.711,5395.818c.725,1.4.813,2.343.436,2.492s-.679-.863-1.4-2.261-1.211-2.387-.834-2.536S1433.987,5394.42,1434.711,5395.818Z" transform="translate(-1428.832 -5388.39)" fill="#ffd9a4"/>
                </g>
                <path id="Path_14240" data-name="Path 14240" d="M1414.206,5334.086c5.35-1.381-.416-25.158-1.265-25.974,0,0-4.184-.35-4.2,1.034C1408.7,5312.724,1411.816,5334.7,1414.206,5334.086Z" transform="translate(-1408.741 -5308.073)" fill="#0080af"/>
                <path id="Path_14241" data-name="Path 14241" d="M1417.157,5377.475l-1.6-.137-3.095-5.478s2.833-.384,3.457-.062S1417.157,5377.475,1417.157,5377.475Z" transform="translate(-1411.174 -5349.646)" fill="#eaeaea"/>
                <path id="Path_14242" data-name="Path 14242" d="M1425.372,5375.74l1.545-.57,1.973-6.209s-2.86.4-3.41.883S1425.372,5375.74,1425.372,5375.74Z" transform="translate(-1419.503 -5347.875)" fill="#eaeaea"/>
              </g>
            </g>
          </g>
        </g>
      </g>
    </g>
    <g id="Group_10599" data-name="Group 10599" transform="translate(771.97 4891.704)">
      <rect id="Rectangle_3301" data-name="Rectangle 3301" width="57.176" height="27.223" rx="6.672" fill="#fff" stroke="#231f20" stroke-miterlimit="10" stroke-width="0.25"/>
      <text id="Akiko" transform="translate(15.588 17.112)" fill="#2d356b" font-size="10" font-family="TrebuchetMS-Bold, Trebuchet MS" font-weight="700"><tspan x="0" y="0">Akiko</tspan></text>
    </g>
  </g>
</svg>
