<svg xmlns="http://www.w3.org/2000/svg" width="401.378" height="163.884" viewBox="0 0 401.378 163.884"><g transform="translate(-101.565 -3046.111)"><g transform="translate(101.565 3050.613)"><g transform="translate(0 0)"><g transform="translate(5.619)"><path d="M158.222,2554.512c-5.335-7.337,1.943-11.1,1.742-18.317s-6.459-5.2-7.063-14.536,5.106-11.573,5.555-16.957-6.844-7.053-3.548-13.691,8.423-6.335,11.275-11.6,10.665-7.92,14.831-5.244,9.67-6.083,16.941-.663,6.054,15.4,8.025,21.165,9.333,8.5,9.988,18.627-4.569,7.526-2.513,14.62,8.7,6.932,9.356,17.064c0,0,.391,10.147-10.331,8.967s-7.659,5.047-19.134.438-8.1,6.414-16.116,1.845S164.358,2562.948,158.222,2554.512Z" transform="translate(-152.856 -2471.692)" fill="#2d356b"/></g><g transform="translate(0 63.988)"><g transform="translate(32.38 70.748)"><path d="M285.036,3004.81c.184-.69-1.02-1.149-2.445-1.464s-2.531-.37-2.717.321.819,1.505,2.245,1.819S284.851,3005.5,285.036,3004.81Z" transform="translate(-272.75 -2996.152)" fill="#f7c371"/><path d="M280.666,3011.059c.185-.691-1.019-1.148-2.445-1.463s-2.53-.373-2.717.319.819,1.5,2.246,1.821S280.479,3011.747,280.666,3011.059Z" transform="translate(-269.545 -3000.733)" fill="#f7c371"/><path d="M292.916,2992.665c-.668-.293-1.683,1.292-2.637,3.182s-1.49,3.368-.82,3.662,1.982-1,2.937-2.893S293.585,2992.958,292.916,2992.665Z" transform="translate(-279.575 -2988.456)" fill="#ffd8a3"/><path d="M254.724,2976.979c3.024.809,12.729,2.622,12.137,5.934-.529,2.963-5.381,5.765-13.642-3.38Z" transform="translate(-253.218 -2976.979)" fill="#ffd8a3"/></g><path d="M159.034,2711.954c-8.094-4.667-27.3,47.853-27.249,49.841,0,0,4.631,5.375,6.293,3.727C142.378,2761.258,162.648,2714.038,159.034,2711.954Z" transform="translate(-131.785 -2711.66)" fill="#ffd9a4"/><path d="M165.854,2912.115c4.971-5.082-27.422-26.538-28.9-26.865,0,0-4.843,2.409-3.936,3.934C135.362,2893.127,163.635,2914.384,165.854,2912.115Z" transform="translate(-132.604 -2838.962)" fill="#ffd9a4"/><path d="M233.513,2975.283l-1.762,1.4-8.269-2.171s2.541-3.059,3.478-3.352S233.513,2975.283,233.513,2975.283Z" transform="translate(-199.031 -2901.95)" fill="#eaeaea"/><path d="M245.984,2960.557l1.048-2-3.766-7.682s-2.554,3.1-2.664,4.073S245.984,2960.557,245.984,2960.557Z" transform="translate(-211.584 -2887.084)" fill="#eaeaea"/></g><g transform="translate(41.964 62.762)"><g transform="translate(0 71.149)"><path d="M296.357,3005.545c-.281-.657.844-1.283,2.21-1.8s2.452-.728,2.735-.072-.595,1.607-1.961,2.123S296.639,3006.2,296.357,3005.545Z" transform="translate(-294.406 -2995.431)" fill="#f7c371"/><path d="M301.575,3011.1c-.282-.657.844-1.283,2.211-1.8s2.451-.731,2.735-.074-.595,1.606-1.962,2.123S301.859,3011.757,301.575,3011.1Z" transform="translate(-298.232 -2999.506)" fill="#f7c371"/><path d="M289.429,2995.691c.619-.385,1.851,1.038,3.066,2.771s1.957,3.119,1.336,3.507-2.105-.707-3.321-2.442S288.809,2996.078,289.429,2995.691Z" transform="translate(-289.159 -2989.832)" fill="#ffd8a3"/><path d="M300.911,2973.89c-2.876,1.233-12.222,4.418-11.161,7.612.948,2.857,6.152,4.935,13.017-5.3Z" transform="translate(-289.531 -2973.89)" fill="#ffd8a3"/></g><path d="M317.857,2707.536c7.341-5.779,33.878,43.447,34.108,45.424,0,0-3.813,5.982-5.694,4.59C341.4,2753.945,314.579,2710.116,317.857,2707.536Z" transform="translate(-310.002 -2707.064)" fill="#ffd9a4"/><path d="M333.482,2897.967c-5.647-4.317,23.337-30.193,24.757-30.729,0,0,5.139,1.69,4.459,3.329C360.94,2874.806,336,2899.894,333.482,2897.967Z" transform="translate(-321.129 -2824.528)" fill="#ffd9a4"/><path d="M331.013,2969.978l1.944,1.129,7.872-3.333s-2.953-2.664-3.922-2.819S331.013,2969.978,331.013,2969.978Z" transform="translate(-319.853 -2896.186)" fill="#eaeaea"/><path d="M327.75,2956.843l-1.325-1.834,2.627-8.143s2.971,2.7,3.221,3.649S327.75,2956.843,327.75,2956.843Z" transform="translate(-316.488 -2882.923)" fill="#eaeaea"/></g><g transform="translate(12.138 42.334)"><path d="M177.3,2776.866s11.418,10.113,22.835,13.906l5.947-12.852,5.471,12.852s15.435-4.348,21.646-13.906c-12.578-18.237-17.546-33.454-4.5-52.437,0,0-5.25-33.945-24.279-34.788S182,2725.827,182,2725.827C194.37,2744.366,198.42,2752.418,177.3,2776.866Z" transform="translate(-177.303 -2673.849)" fill="#ffac00"/><path d="M249.471,2705.492a11.523,11.523,0,0,1,7.372,2.659c1.929-4.388,3.216-9.786,1.84-15.3-11.585-8.71-18.724.9-18.724.9s-1.517,6,2.567,14.067A11.5,11.5,0,0,1,249.471,2705.492Z" transform="translate(-223.05 -2673.54)" fill="#fff"/><path d="M252.694,2692.16s-1.927,9.666,6.833,20.154c0,0,7.447-10.208,5.344-20.9C257.337,2684.213,252.694,2692.16,252.694,2692.16Z" transform="translate(-232.459 -2672.946)" fill="#f7c371"/><rect width="9.937" height="18.629" transform="translate(21.428)" fill="#f7c371"/><path d="M288.992,2859.539a1.4,1.4,0,1,0-1.4,1.4A1.4,1.4,0,0,0,288.992,2859.539Z" transform="translate(-257.16 -2797.428)" fill="#fff"/><path d="M288.992,2900.494a1.4,1.4,0,1,0-1.4,1.4A1.4,1.4,0,0,0,288.992,2900.494Z" transform="translate(-257.16 -2827.463)" fill="#fff"/><path d="M288.992,2982.408a1.4,1.4,0,1,0-1.4,1.4A1.4,1.4,0,0,0,288.992,2982.408Z" transform="translate(-257.16 -2887.534)" fill="#fff"/><path d="M288.992,2941.452a1.4,1.4,0,1,0-1.4,1.4A1.4,1.4,0,0,0,288.992,2941.452Z" transform="translate(-257.16 -2857.5)" fill="#fff"/></g><g transform="translate(20.202 14.053)"><path d="M228.607,2564.887c-5.628.53-19.749-13.661-16.292-33.06.7-3.921,4.646-6.511,12.5-7.25,8.639-.813,12.81,1.151,13.731,4.186C245.054,2550.226,234.367,2564.345,228.607,2564.887Z" transform="translate(-210.649 -2524.393)" fill="#ffd8a3"/><path d="M209.831,2602.936c-.382-1.216-.312-2.239-1.209-1.957a2.075,2.075,0,0,0-.933,2.712c.381,1.214,1.419,1.971,2.315,1.689S210.213,2604.152,209.831,2602.936Z" transform="translate(-207.547 -2580.522)" fill="#f7c371"/><path d="M319.032,2592.81c.118-1.268-.175-2.258.788-2.167a2.092,2.092,0,0,1,1.533,2.464c-.117,1.268-1,2.224-1.959,2.135S318.915,2594.081,319.032,2592.81Z" transform="translate(-289.139 -2572.973)" fill="#f7c371"/><g transform="translate(3.429 11.692)"><path d="M220.4,2571.35c2.329.584,7.367,1.525,9.773-1.445C227.644,2571.553,225.617,2572.013,220.4,2571.35Z" transform="translate(-220.405 -2569.461)" fill="#2d356b"/><path d="M281.786,2568.24c-2.287.945-7.288,2.667-10.253.108C274.4,2569.579,276.56,2569.717,281.786,2568.24Z" transform="translate(-257.9 -2568.24)" fill="#2d356b"/><path d="M285.751,2588.33a1.567,1.567,0,1,0-1.716,1.784A1.773,1.773,0,0,0,285.751,2588.33Z" transform="translate(-266.1 -2581.429)" fill="#2d356b"/><path d="M284.147,2586.2c-1.705-.936-3.875-1.682-6.419.394A13.032,13.032,0,0,1,284.147,2586.2Z" transform="translate(-262.443 -2580.727)" fill="#2d356b"/><path d="M235.739,2592.813a1.567,1.567,0,1,1,2.022,1.428A1.772,1.772,0,0,1,235.739,2592.813Z" transform="translate(-231.572 -2584.532)" fill="#2d356b"/><path d="M228.291,2591.01c1.552-1.173,3.591-2.226,6.41-.55A13.072,13.072,0,0,0,228.291,2591.01Z" transform="translate(-226.188 -2583.895)" fill="#2d356b"/><path d="M261.413,2610.809a4.147,4.147,0,0,0,1.752.541,2.4,2.4,0,0,0,1.613-.928c.032-.472-1.685-5.529-2.126-5.536S261.317,2610.138,261.413,2610.809Z" transform="translate(-250.473 -2595.115)" fill="#ffab00"/><path d="M264.117,2607.786c.012.1.527.223.7.207.3-.029.65-.217.646-.406-.013-.455-.256-5.615-1.161-5.48C263.313,2602.254,264.044,2607.13,264.117,2607.786Z" transform="translate(-252.22 -2593.075)" fill="#ffd8a3"/></g><path d="M239.252,2602.248c-.063-.666-1.36-1.089-2.9-.944s-2.731.8-2.668,1.468,1.359,1.089,2.9.944S239.315,2602.915,239.252,2602.248Z" transform="translate(-226.716 -2580.775)" fill="#ffd8a3"/><path d="M286.7,2597.783c-.063-.666-1.36-1.089-2.9-.944s-2.731.8-2.668,1.468,1.358,1.089,2.9.945S286.763,2598.45,286.7,2597.783Z" transform="translate(-261.513 -2577.501)" fill="#ffd8a3"/><g transform="translate(12.636 30.799)"><path d="M266.558,2640.615c-2.005-1.414-2.911-.323-3.337-.214-.452.114-1.464-.675-2.609,1.036-.351.523,1.259.129,2.911-.044S267.071,2640.979,266.558,2640.615Z" transform="translate(-259.062 -2639.896)" fill="#f36973"/><path d="M268.9,2646.028c-.133-.615-1.112-.343-2.391-.066s-2.374.451-2.241,1.066,1.276.89,2.555.615S269.033,2646.643,268.9,2646.028Z" transform="translate(-261.771 -2644.12)" fill="#f36973"/><path d="M256.053,2643.174c.655-.615,2.771-.482,4.012-.651,1.339-.183,3.892-.59,4.294-.552-.356,1.854-2.485,1.779-3.786,2C259.193,2644.195,257.522,2645.32,256.053,2643.174Z" transform="translate(-255.754 -2641.415)" fill="#ffab00"/><path d="M266.31,2643.135c-.553-.257-1.721.1-3.51.337s-2.177.081-2.868.4C261.332,2644.331,264.944,2644.455,266.31,2643.135Z" transform="translate(-258.599 -2642.206)" fill="#fff"/><path d="M286.679,2641.228a.314.314,0,1,0-.275.389A.34.34,0,0,0,286.679,2641.228Z" transform="translate(-277.759 -2640.628)" fill="#ffab00"/><path d="M255.608,2644.99a.342.342,0,1,0-.3.423A.37.37,0,0,0,255.608,2644.99Z" transform="translate(-254.933 -2643.366)" fill="#ffab00"/></g></g><g transform="translate(19.149 9.586)"><g transform="translate(11.886)"><path d="M268.169,2520.921c-5.285-1.626-18.535-6.257-19.995-12.794,0,0,12.919-2.494,16.3,3.814C268.757,2519.905,268.169,2520.921,268.169,2520.921Z" transform="translate(-248.174 -2507.64)" fill="#2d356b"/><g transform="translate(1.092 2.718)"><path d="M263.493,2527.836c1.234,1.568,8.363,6.668,13.194,8.106S263.493,2527.836,263.493,2527.836Z" transform="translate(-260.5 -2525.168)" fill="#2d356b"/><path d="M252.27,2517.832a24.7,24.7,0,0,0,5.716,7.776C260.439,2527.572,252.27,2517.832,252.27,2517.832Z" transform="translate(-252.27 -2517.832)" fill="#2d356b"/></g></g><path d="M203.659,2536.192c4-2.228,13.962-8.362,14.36-15.019,0,0-10.527-.976-12.477,5.678C203.077,2535.252,203.659,2536.192,203.659,2536.192Z" transform="translate(-203.599 -2517.528)" fill="#2d356b"/></g></g><g transform="translate(12.756 133.971)"><rect width="56.787" height="25.287" rx="6.672" fill="#fff" stroke="#231f20" stroke-miterlimit="10" stroke-width="0.25"/><text transform="translate(15.393 16.143)" fill="#2d356b" font-size="10" font-family="TrebuchetMS-Bold, Trebuchet MS" font-weight="700"><tspan x="0" y="0">Akiko</tspan></text></g></g><g transform="translate(509.993 2902.364)"><g transform="translate(-347.18 144.27)"><path d="M668.819,2559.206c9.994,15.515,2.189,32.126-19.109,38.475-22.623,6.743-52.091-.591-66.711-16.392-11.378,8.534-28.764,15.059-48.732,17.283-36.809,4.1-68.444-7.959-70.66-26.937a19.916,19.916,0,0,1,2.1-11.173c-31.105,7.026-49.459-.971-57.346-22.445-5.82-15.846,10.374-43.52,55.3-48.525,5.728-.638,11.342-1.04,16.785-1.222-.123-.525-1.748-3.509.551-8.677,9.993-22.466,45.648-25.761,82.911-20.84,31.377,4.144,47.123,18.772,54.464,31.97,0,0,88.969-24.535,105.287,27.569C723.657,2518.291,741.77,2564.246,668.819,2559.206Z" transform="translate(-386.03 -2456.771)" fill="#fff" stroke="#ebebeb" stroke-miterlimit="10" stroke-width="1"/><ellipse cx="7.599" cy="7.205" rx="7.599" ry="7.205" transform="translate(15.177 29.951) rotate(-71.931)" fill="#fff" stroke="#ebebeb" stroke-miterlimit="10" stroke-width="1"/><ellipse cx="4.503" cy="4.269" rx="4.503" ry="4.269" transform="translate(9.808 23.553) rotate(-71.931)" fill="#fff" stroke="#ebebeb" stroke-miterlimit="10" stroke-width="1"/><ellipse cx="3.852" cy="3.652" rx="3.852" ry="3.652" transform="translate(0 23.152) rotate(-71.931)" fill="#fff" stroke="#ebebeb" stroke-miterlimit="10" stroke-width="1"/></g></g></g></svg>