<svg xmlns="http://www.w3.org/2000/svg" width="189.89" height="204.839" viewBox="0 0 189.89 204.839">
  <g id="Group_14444" data-name="Group 14444" transform="translate(-203 -2584.008)">
    <g id="Group_14446" data-name="Group 14446">
      <g id="Group_14443" data-name="Group 14443">
        <g id="Group_14169" data-name="Group 14169" transform="translate(294.272 2584.008)">
          <g id="Group_14163" data-name="Group 14163" transform="translate(15.671 85.079)">
            <g id="Group_14162" data-name="Group 14162">
              <path id="Path_20349" data-name="Path 20349" d="M825.594,1300.036l-10.375.99c-7.872,27.326,7.368,64.944-1.222,116.338,0,0,1.807.742,1.922,0C824.561,1361.4,817.676,1337.99,825.594,1300.036Z" transform="translate(-809.583 -1300.036)" fill="#f7c371"/>
              <path id="Path_20350" data-name="Path 20350" d="M828.66,1314.554c8.081,20.237.566,17.61-1.654,27.052-8.3,35.331.157,42.708-.245,85.922,0,0-2.356-.482-2.331-1.1,1.378-34.31-14.658-69.858-11.27-101.381C813.713,1319.906,828.66,1314.554,828.66,1314.554Z" transform="translate(-809.458 -1309.566)" fill="#ffd8a3"/>
              <path id="Path_20351" data-name="Path 20351" d="M834.219,1639.018h7.2s.349-1.985-1.257-2.3C839.149,1636.513,837.36,1636.977,834.219,1639.018Z" transform="translate(-823.59 -1521.008)" fill="#ffe200"/>
              <path id="Path_20352" data-name="Path 20352" d="M803.284,1639.018h6.328s.305-1.986-1.106-2.3C807.617,1636.513,806.045,1636.976,803.284,1639.018Z" transform="translate(-803.284 -1521.008)" fill="#ffe200"/>
            </g>
            <path id="Path_20353" data-name="Path 20353" d="M831.231,1357.651c-7.64,1.609-12.263,2.111-18.143,1.809,0,0-6.611-34.548.627-49.776,2.6-5.474,10.628-11.906,13.7-7.317C837.664,1317.7,826.356,1330.964,831.231,1357.651Z" transform="translate(-807.907 -1300.539)" fill="#2d356b"/>
          </g>
          <g id="Group_14164" data-name="Group 14164" transform="translate(5.88 26.082)">
            <path id="Path_20354" data-name="Path 20354" d="M793.4,1128.325l-4.588,5.213,2.6,12.491,4.044-2.981Z" transform="translate(-783.995 -1128.325)" fill="#f7c371"/>
            <path id="Path_20355" data-name="Path 20355" d="M788.018,1232.125c2.92-3.447,8.412-11.589,19.665-7.857-3.373-11.356-8.775-14.267-10.861-20.98-3.87-12.443,2.4-30.262-8.059-33.307-11.1-3.232-13.975,27.742-13.975,27.742C785.67,1200.205,787.548,1216.012,788.018,1232.125Z" transform="translate(-774.788 -1155.513)" fill="#40558d"/>
            <path id="Path_20356" data-name="Path 20356" d="M799.291,1167.717l-1.7.293-5.282,9.062,2.711,1.188S798.454,1171.792,799.291,1167.717Z" transform="translate(-786.292 -1154.182)" fill="#fff"/>
            <path id="Path_20357" data-name="Path 20357" d="M785.214,1180.413l-.125-.044c.79-4.43,3.265-11.587,7.456-12.417C789.814,1172.365,785.214,1180.413,785.214,1180.413Z" transform="translate(-781.55 -1154.337)" fill="#f7c371"/>
          </g>
          <g id="Group_14166" data-name="Group 14166" transform="translate(14.901 42.35)">
            <g id="Group_14165" data-name="Group 14165" transform="translate(0 41.035)">
              <path id="Path_20358" data-name="Path 20358" d="M806.529,1313.389c-.3-.307.193-.907.847-1.5s1.219-.95,1.525-.644.02,1.033-.636,1.625S806.833,1313.7,806.529,1313.389Z" transform="translate(-804.584 -1305.628)" fill="#f7c371"/>
              <path id="Path_20359" data-name="Path 20359" d="M809.766,1314.916c-.3-.306.191-.907.848-1.5s1.219-.951,1.524-.645.02,1.033-.636,1.625S810.069,1315.221,809.766,1314.916Z" transform="translate(-806.708 -1306.63)" fill="#f7c371"/>
              <path id="Path_20360" data-name="Path 20360" d="M801.1,1311.61c.264-.354,1.272.173,2.34.878s1.792,1.319,1.528,1.674-1.342.068-2.41-.639S800.837,1311.962,801.1,1311.61Z" transform="translate(-801.042 -1305.865)" fill="#ffd8a3"/>
              <path id="Path_20361" data-name="Path 20361" d="M806.417,1295.106c-1.348,1.328-5.906,5.18-4.6,6.739,1.166,1.4,4.556,1.413,6.161-5.85Z" transform="translate(-801.396 -1295.106)" fill="#ffd8a3"/>
            </g>
            <path id="Path_20362" data-name="Path 20362" d="M817.5,1261.411c3.946,2.009,13.1-15.331,13.024-16.272,0,0-2.328-2.43-3.072-1.608C825.526,1245.657,815.735,1260.513,817.5,1261.411Z" transform="translate(-811.705 -1220.105)" fill="#7b87ab"/>
            <path id="Path_20363" data-name="Path 20363" d="M816.177,1176.119c3.661-4.286,14.519,23.745,13.457,25.03,0,0-2.464,1.833-3.574.956C822.706,1199.453,814.543,1178.033,816.177,1176.119Z" transform="translate(-810.837 -1175.674)" fill="#7b87ab"/>
            <path id="Path_20364" data-name="Path 20364" d="M814.306,1288.667l-.888-.93,1.048-4.933s1.905,1.273,2.11,1.8S814.306,1288.667,814.306,1288.667Z" transform="translate(-809.166 -1245.995)" fill="#eaeaea"/>
            <path id="Path_20365" data-name="Path 20365" d="M815.748,1293.1l1.231.477,4.479-2.682a9.854,9.854,0,0,0-2.517-1.279C818.354,1289.614,815.748,1293.1,815.748,1293.1Z" transform="translate(-810.695 -1250.466)" fill="#eaeaea"/>
          </g>
          <g id="Group_14168" data-name="Group 14168" transform="translate(0 0)">
            <path id="Path_20366" data-name="Path 20366" d="M804.608,1053.378c1.934-1.653,5.093-1.129,7.056,1.168s1.987,5.5.054,7.151-5.092,1.129-7.056-1.169S802.675,1055.03,804.608,1053.378Z" transform="translate(-787.541 -1052.414)" fill="#fff4ba"/>
            <path id="Path_20367" data-name="Path 20367" d="M802.33,1070.35c.9-.675,2.567.025,3.715,1.562s1.347,3.331.444,4.005-2.566-.025-3.715-1.562S801.427,1071.025,802.33,1070.35Z" transform="translate(-786.615 -1064.019)" fill="#2d356b"/>
            <g id="Group_14167" data-name="Group 14167" transform="translate(0 6.453)">
              <path id="Path_20368" data-name="Path 20368" d="M775.836,1098.785c2.762-1.716,8.53-4.473,10.1-9.877,2.042-7.026,0-10.391-2.582-14.458-4.919-7.753-18.186.491-16.544,2.718C768.992,1080.126,765.827,1105,775.836,1098.785Z" transform="translate(-763.58 -1071.196)" fill="#fff4ba"/>
              <path id="Path_20369" data-name="Path 20369" d="M766.165,1111.952c-1.1.325-4.736-4.758-6.608-8.929-.617-1.375.875-2-.67-6.858-.907-2.852-.76-7.215,3.2-11.488,3.738-4.033,6.713,4.769,7.711,6.71,2.843,5.53,5.429,8.766,4.767,12.046C773.272,1109.837,767.266,1111.318,766.165,1111.952Z" transform="translate(-758.17 -1079.359)" fill="#ffd8a3"/>
              <path id="Path_20370" data-name="Path 20370" d="M774.1,1143.327a.263.263,0,0,0-.31-.207.277.277,0,0,0-.133.356.263.263,0,0,0,.31.206A.276.276,0,0,0,774.1,1143.327Z" transform="translate(-768.154 -1118.401)" fill="#ffab00"/>
              <path id="Path_20371" data-name="Path 20371" d="M766.78,1120.125c-.255-.763-.884-1.232-1.4-1.049s-.739.951-.485,1.714.884,1.232,1.405,1.049S767.034,1120.888,766.78,1120.125Z" transform="translate(-762.341 -1102.599)" fill="#2d356b"/>
              <path id="Path_20372" data-name="Path 20372" d="M765.768,1119.89c-1.058-.846-2.431-1.6-4.238-.293A7.688,7.688,0,0,1,765.768,1119.89Z" transform="translate(-760.205 -1102.505)" fill="#2d356b"/>
              <path id="Path_20373" data-name="Path 20373" d="M771.422,1153.934c-.086-.169-.448.627-.7.727-.719.282-.23,1.16.466.8C771.456,1155.326,771.512,1154.114,771.422,1153.934Z" transform="translate(-766.005 -1125.491)" fill="#f36973"/>
              <path id="Path_20374" data-name="Path 20374" d="M768.105,1144.683c.441-.347-3.221-.319-2.271.644A5.529,5.529,0,0,0,768.105,1144.683Z" transform="translate(-762.927 -1119.301)" fill="#f36973"/>
              <path id="Path_20375" data-name="Path 20375" d="M758.362,1108.182a4.687,4.687,0,0,1,6.038,2.032C762.572,1108.391,761.285,1107.806,758.362,1108.182Z" transform="translate(-758.126 -1095.215)" fill="#2d356b"/>
              <path id="Path_20376" data-name="Path 20376" d="M758.661,1132.124l1.85.016-1.223-4.35-1.614,3.833Z" transform="translate(-757.674 -1108.345)" fill="#ffd8a3"/>
              <path id="Path_20377" data-name="Path 20377" d="M761.8,1141.62l-2.114-2.292,1.26-.423Z" transform="translate(-758.994 -1115.642)" fill="#ffd8a3"/>
              <path id="Path_20378" data-name="Path 20378" d="M767.4,1148.429a33.4,33.4,0,0,1-1.952-3.513l3.064-.908S768.867,1147.432,767.4,1148.429Z" transform="translate(-762.778 -1118.991)" fill="#ffab00"/>
              <path id="Path_20379" data-name="Path 20379" d="M768.549,1146.574l-1.745.517q-.362-.664-.718-1.4l2.5-.742Z" transform="translate(-763.196 -1119.611)" fill="#fff"/>
              <path id="Path_20380" data-name="Path 20380" d="M802.671,1116.6c-.465-1.316-1.209-2.167-.211-2.518a2.625,2.625,0,0,1,1.684,4.77C803.142,1119.2,803.135,1117.919,802.671,1116.6Z" transform="translate(-786.747 -1099.293)" fill="#f7c371"/>
            </g>
            <path id="Path_20381" data-name="Path 20381" d="M763.4,1084.348c4.659,3.909,12.4,9.347,13.1,16.676.666-8.221-3.523-17.683-9.616-20.284C766.591,1081.634,762.144,1082.709,763.4,1084.348Z" transform="translate(-761.287 -1071.008)" fill="#fff4ba"/>
          </g>
        </g>
        <g id="Group_14440" data-name="Group 14440">
          <g id="Group_14441" data-name="Group 14441">
            <g id="Group_14369" data-name="Group 14369" transform="translate(203 2585.054)">
              <g id="Group_14161" data-name="Group 14161" transform="translate(0 15.354)">
                <g id="Group_14149" data-name="Group 14149" transform="translate(0 68.398)">
                  <path id="Path_20317" data-name="Path 20317" d="M509.109,1302.1l10.375.99c7.872,27.325-7.367,64.944,1.222,116.337,0,0-1.807.742-1.922,0C510.143,1363.464,517.028,1340.054,509.109,1302.1Z" transform="translate(-502.017 -1301.108)" fill="#f7c371"/>
                  <path id="Path_20318" data-name="Path 20318" d="M492.838,1316.618c-8.081,20.237-.565,17.61,1.654,27.052,8.3,35.332-.157,42.708.245,85.923,0,0,2.356-.482,2.331-1.1-1.378-34.31,14.658-69.858,11.27-101.381C507.785,1321.97,492.838,1316.618,492.838,1316.618Z" transform="translate(-488.936 -1310.639)" fill="#ffd8a3"/>
                  <path id="Path_20319" data-name="Path 20319" d="M510.961,1641.082h-7.2s-.348-1.985,1.258-2.3C506.031,1638.578,507.82,1639.041,510.961,1641.082Z" transform="translate(-498.486 -1522.081)" fill="#7b87ab"/>
                  <path id="Path_20320" data-name="Path 20320" d="M543.566,1641.082h-6.329s-.305-1.986,1.106-2.3C539.233,1638.577,540.8,1639.039,543.566,1641.082Z" transform="translate(-520.463 -1522.081)" fill="#7b87ab"/>
                  <path id="Path_20321" data-name="Path 20321" d="M489.105,1357.177c7.569,1.594,12.151,2.092,17.977,1.793,0,0,5.229-40.335-1.942-55.423-2.578-5.424-9.209-5.691-12.25-1.145C482.731,1317.589,493.936,1330.735,489.105,1357.177Z" transform="translate(-488.467 -1299.216)" fill="#fff3b9"/>
                </g>
                <g id="Group_14160" data-name="Group 14160" transform="translate(0.018)">
                  <g id="Group_14159" data-name="Group 14159">
                    <g id="Group_14158" data-name="Group 14158">
                      <g id="Group_14155" data-name="Group 14155" transform="translate(1.565)">
                        <g id="Group_14154" data-name="Group 14154">
                          <g id="Group_14150" data-name="Group 14150" transform="translate(1.104)">
                            <path id="Path_20322" data-name="Path 20322" d="M521.976,1148.355c6.385-.728,1.2-5.964,3.841-8.858s2.565-1.4,6.126-5.012,3.638-5.918,5.351-8.3,6.2-5,7.135-8.96-.641-3.59,0-6.824-2.429-1.531-5.163-1.985-.636-7.75-5.673-8.234-8.047,4.079-10.931,5.714-7.01.013-10.875,3.937-.7,4.8-4.094,6.955-6.185-.395-10.051,3.53c0,0-3.757,4.03,1.26,7.547s1.5,4.936,8.054,7.323,1.207,5.665,6.26,6.777S516.273,1149,521.976,1148.355Z" transform="translate(-496.291 -1100.145)" fill="#2d356b"/>
                          </g>
                          <g id="Group_14151" data-name="Group 14151" transform="translate(0 16.79)">
                            <path id="Path_20323" data-name="Path 20323" d="M580.2,1149.012l3.171,5.863L578.255,1166l-3.142-3.658Z" transform="translate(-546.926 -1149.012)" fill="#f7c371"/>
                            <path id="Path_20324" data-name="Path 20324" d="M511.133,1238.672c-1.99-3.853-6.728-6.457-18.057-5.387,2.428-8.705,7.794-12.509,11.19-18.339,6.3-10.808,4.265-28.825,14.7-29.423,11.083-.635,7.105,28.957,7.105,28.957C515.361,1214.462,515.039,1223.7,511.133,1238.672Z" transform="translate(-493.076 -1172.972)" fill="#ffe200"/>
                            <path id="Path_20325" data-name="Path 20325" d="M571.672,1183.613l1.523.639,2.992,9.613-2.792.529S571.578,1187.6,571.672,1183.613Z" transform="translate(-544.665 -1171.725)" fill="#fff"/>
                            <path id="Path_20326" data-name="Path 20326" d="M581.261,1198.321l.126-.015c.214-4.313-.561-11.541-4.3-13.219C578.69,1189.8,581.261,1198.321,581.261,1198.321Z" transform="translate(-548.22 -1172.692)" fill="#f7c371"/>
                          </g>
                          <g id="Group_14153" data-name="Group 14153" transform="translate(28.04 0.42)">
                            <g id="Group_14152" data-name="Group 14152">
                              <path id="Path_20327" data-name="Path 20327" d="M580.043,1126.92c-1.812-2.541-5.9-7.115-5.3-12.483.787-6.978,3.843-9.2,7.631-11.853,7.223-5.05,15.928,7.157,13.65,8.523C593,1112.921,586.611,1136.129,580.043,1126.92Z" transform="translate(-574.686 -1101.367)" fill="#2d356b"/>
                              <path id="Path_20328" data-name="Path 20328" d="M587.3,1146.5c.851.693,5.954-2.464,9.154-5.467,1.055-.99-.036-2.1,3.128-5.828,1.858-2.191,3.34-6.111,1.411-11.359-1.82-4.955-7.709,1.743-9.311,3.094-4.562,3.848-8.049,5.759-8.675,8.908C581.788,1142,586.562,1145.536,587.3,1146.5Z" transform="translate(-580.019 -1114.943)" fill="#ffd8a3"/>
                              <path id="Path_20329" data-name="Path 20329" d="M606.427,1178.39a.253.253,0,0,1,.343-.1.267.267,0,0,1,.019.365.253.253,0,0,1-.344.1A.264.264,0,0,1,606.427,1178.39Z" transform="translate(-595.48 -1151.838)" fill="#ffab00"/>
                              <path id="Path_20330" data-name="Path 20330" d="M620.4,1157.074c.508-.582,1.238-.764,1.632-.41s.3,1.116-.2,1.7-1.239.764-1.632.41S619.894,1157.656,620.4,1157.074Z" transform="translate(-604.399 -1137.546)" fill="#2d356b"/>
                              <path id="Path_20331" data-name="Path 20331" d="M618.512,1156.2a3,3,0,0,1,3.863,1.307A7.379,7.379,0,0,0,618.512,1156.2Z" transform="translate(-603.454 -1137.21)" fill="#2d356b"/>
                              <path id="Path_20332" data-name="Path 20332" d="M606.5,1185.391c.127-.13.228.7.433.869.577.466-.125,1.129-.659.6C606.065,1186.655,606.366,1185.529,606.5,1185.391Z" transform="translate(-595.374 -1156.512)" fill="#f36973"/>
                              <path id="Path_20333" data-name="Path 20333" d="M608.466,1179.895c-.3-.445,3.041.641,1.892,1.247C610.047,1181.2,608.621,1180.123,608.466,1179.895Z" transform="translate(-596.846 -1152.845)" fill="#f36973"/>
                              <path id="Path_20334" data-name="Path 20334" d="M625.276,1148.436a4.5,4.5,0,0,0-6.035-.987C621.61,1146.723,622.965,1146.8,625.276,1148.436Z" transform="translate(-603.932 -1131.124)" fill="#2d356b"/>
                              <path id="Path_20335" data-name="Path 20335" d="M620.29,1170.261l-1.645-.669,2.691-3.4.013,3.993Z" transform="translate(-603.541 -1143.917)" fill="#ffd8a3"/>
                              <path id="Path_20336" data-name="Path 20336" d="M616.38,1177.764l2.719-1.249-.96-.84Z" transform="translate(-602.055 -1150.143)" fill="#ffd8a3"/>
                              <path id="Path_20337" data-name="Path 20337" d="M607.094,1182.366a15.576,15.576,0,0,0,2.1-1.617l-2.541-1.717S605.945,1181.171,607.094,1182.366Z" transform="translate(-595.529 -1152.347)" fill="#ffab00"/>
                              <path id="Path_20338" data-name="Path 20338" d="M607.826,1180.865l1.447.978c.208-.128.416-.268.622-.42l-2.077-1.4Z" transform="translate(-596.435 -1152.995)" fill="#fff"/>
                              <path id="Path_20339" data-name="Path 20339" d="M586.846,1140.445c.9-.994,1.872-1.473,1.117-2.152a2.52,2.52,0,0,0-3.254,3.6C585.466,1142.577,585.948,1141.441,586.846,1140.445Z" transform="translate(-580.937 -1125.355)" fill="#f7c371"/>
                            </g>
                            <path id="Path_20340" data-name="Path 20340" d="M604.749,1124.708c-5.572,1.741-14.442,3.7-17.768,9.931,2.448-7.529,9.656-14.363,16.016-14.414C602.929,1121.125,606.471,1123.721,604.749,1124.708Z" transform="translate(-582.756 -1113.746)" fill="#2d356b"/>
                          </g>
                        </g>
                      </g>
                      <g id="Group_14157" data-name="Group 14157" transform="translate(0 29.248)">
                        <g id="Group_14156" data-name="Group 14156" transform="translate(14.734 43.855)">
                          <path id="Path_20341" data-name="Path 20341" d="M545.533,1332.947c.277-.431-.445-1.009-1.35-1.536s-1.648-.807-1.927-.377.229,1.208,1.135,1.736S545.255,1333.378,545.533,1332.947Z" transform="translate(-538.477 -1324.668)" fill="#f7c371"/>
                          <path id="Path_20342" data-name="Path 20342" d="M542.152,1335.516c.278-.431-.445-1.008-1.35-1.535s-1.647-.809-1.927-.378.23,1.207,1.135,1.736S541.873,1335.945,542.152,1335.516Z" transform="translate(-536.258 -1326.354)" fill="#f7c371"/>
                          <path id="Path_20343" data-name="Path 20343" d="M549.28,1328.679c-.392-.346-1.433.514-2.5,1.6s-1.756,1.974-1.363,2.322,1.574-.25,2.641-1.332S549.672,1329.026,549.28,1328.679Z" transform="translate(-540.529 -1323.21)" fill="#ffd8a3"/>
                          <path id="Path_20344" data-name="Path 20344" d="M532.99,1312.909c1.888,1.215,8.122,4.581,6.991,6.715-1.011,1.908-4.941,2.759-8.579-5.3Z" transform="translate(-531.402 -1312.909)" fill="#ffd8a3"/>
                        </g>
                        <path id="Path_20345" data-name="Path 20345" d="M514.328,1185.732c-3.937-4.336-25.46,23.33-25.808,24.528,0,0,1.735,4.095,3.042,3.429C494.946,1211.968,516.086,1187.667,514.328,1185.732Z" transform="translate(-488.52 -1185.271)" fill="#fff4ba"/>
                        <path id="Path_20346" data-name="Path 20346" d="M504.369,1275.31c3.94-2.081-11.284-21.09-12.106-21.569,0,0-3.352.51-3.1,1.594C489.807,1258.138,502.609,1276.239,504.369,1275.31Z" transform="translate(-488.932 -1230.216)" fill="#fff4ba"/>
                        <path id="Path_20347" data-name="Path 20347" d="M524.334,1310.411l-1.319.5-4.519-2.879a10.948,10.948,0,0,1,2.718-1.335C521.83,1306.7,524.334,1310.411,524.334,1310.411Z" transform="translate(-508.197 -1264.974)" fill="#eaeaea"/>
                        <path id="Path_20348" data-name="Path 20348" d="M531.147,1305.673l1.01-1-.776-5.307a11.043,11.043,0,0,0-2.37,1.921C528.756,1301.854,531.147,1305.673,531.147,1305.673Z" transform="translate(-515.086 -1260.168)" fill="#eaeaea"/>
                      </g>
                    </g>
                  </g>
                </g>
              </g>
              <g id="Group_14180" data-name="Group 14180" transform="translate(126.787 0)">
                <g id="Group_14179" data-name="Group 14179" transform="translate(0 0)">
                  <g id="Group_14170" data-name="Group 14170" transform="translate(29.489 96.146)">
                    <path id="Path_20382" data-name="Path 20382" d="M965.768,1359.714c-2.555,16.833-9.131,34.427-10.023,42.418s.155,19.59-2.973,48.347c-.077.712-1.83.077-1.83.077,1.816-28.384-1.9-43.578-1.5-45.948s-3.54-40.832-6.135-53.781C950.311,1350.332,965.768,1359.714,965.768,1359.714Z" transform="translate(-943.304 -1345.476)" fill="#2d356b"/>
                    <path id="Path_20383" data-name="Path 20383" d="M945.474,1335.289s16.36.623,20.607,1.09c4.912,12.542-5,25.371,3.1,64.123,2.34,11.193,5.724,19.616,7.8,41.339h-2.434c-1.615-19.7-6.189-30.652-9.95-40.712C951.556,1366.263,943.33,1359.727,945.474,1335.289Z" transform="translate(-944.506 -1335.289)" fill="#40558e"/>
                    <path id="Path_20384" data-name="Path 20384" d="M1016.484,1643.243h8.47s-.57-2.334-2.254-2.218S1016.484,1643.243,1016.484,1643.243Z" transform="translate(-991.34 -1535.975)" fill="#9898a4"/>
                    <path id="Path_20385" data-name="Path 20385" d="M950.145,1642.539l7.643.819s-.016-2.711-1.556-2.74S950.145,1642.539,950.145,1642.539Z" transform="translate(-947.794 -1535.711)" fill="#9898a4"/>
                    <path id="Path_20386" data-name="Path 20386" d="M947.683,1338.758l19.416.854-.124,1.969-19.416-.854Z" transform="translate(-946.097 -1337.566)" fill="#cecfd7"/>
                    <rect id="Rectangle_4732" data-name="Rectangle 4732" width="3.736" height="1.401" transform="matrix(0.044, -0.999, 0.999, 0.044, 16.82, 4.961)" fill="#40558d"/>
                    <rect id="Rectangle_4733" data-name="Rectangle 4733" width="3.736" height="1.4" transform="matrix(0.044, -0.999, 0.999, 0.044, 12.462, 4.961)" fill="#40558d"/>
                    <rect id="Rectangle_4734" data-name="Rectangle 4734" width="3.736" height="1.4" transform="translate(7.793 4.805) rotate(-87.472)" fill="#40558d"/>
                    <rect id="Rectangle_4735" data-name="Rectangle 4735" width="3.736" height="1.401" transform="translate(2.967 4.339) rotate(-87.473)" fill="#40558d"/>
                  </g>
                  <g id="Group_14178" data-name="Group 14178">
                    <g id="Group_14171" data-name="Group 14171" transform="translate(10.679 22.096)">
                      <path id="Path_20387" data-name="Path 20387" d="M900.36,1168.7l1.036-.062,1.265,2.148-1.72,1.693Z" transform="translate(-896.305 -1151.845)" fill="#eaeaea"/>
                      <path id="Path_20388" data-name="Path 20388" d="M897.337,1126.48l7.2-6.712,6.1,13.579L899.925,1142Z" transform="translate(-894.321 -1119.769)" fill="#f7c371"/>
                      <path id="Path_20389" data-name="Path 20389" d="M903.579,1269.487l18.168-1.773,11.007,23.784-14,6.584Z" transform="translate(-898.418 -1216.882)" fill="#eaeaea"/>
                      <path id="Path_20390" data-name="Path 20390" d="M942.4,1220.668c-10.371,4.025-23.885,5.212-34.068-4.347-5.51-5.173-9.88-15.68-14.414-26.005-6.06-13.8,1.791-38.519,15.862-39.581,19.556-1.474,17.733,25.785,18.206,32.577C929.369,1203.212,940.367,1216.96,942.4,1220.668Z" transform="translate(-890.718 -1140.057)" fill="#7b88ac"/>
                      <path id="Path_20391" data-name="Path 20391" d="M968.786,1244.2c-1.768-4.625-5.538-19.521-3.532-38.67.389-3.714-1.512-13.527-2.886-21.811-.513-3.093,6.573.306,10.182,6.916,2.238,4.1,1.526,11.008,1.707,13.607,1.385,19.9,12.383,33.648,14.415,37.356C982.676,1243.928,975.631,1245.3,968.786,1244.2Z" transform="translate(-936.99 -1160.991)" fill="#2d356b"/>
                      <path id="Path_20392" data-name="Path 20392" d="M900.621,1202.628c-6.233-18.465.652-41.783,11.172-51.785,1.767-1.681-.738-2.5-6.52.43C900.109,1153.913,882.8,1173.148,900.621,1202.628Z" transform="translate(-891.314 -1139.171)" fill="#2d356b"/>
                      <path id="Path_20393" data-name="Path 20393" d="M894.353,1194.274c-3.964-16.024-1.44-26.262,8.764-39.284-5.035,2.574-23.023,17.89-7.392,45.986C896.122,1201.692,895.038,1197.044,894.353,1194.274Z" transform="translate(-889.158 -1142.888)" fill="#7b88ac"/>
                      <path id="Path_20394" data-name="Path 20394" d="M932.684,1327.391c-.337-.6-.274-1.279.143-1.512s1.026.066,1.364.668.274,1.279-.142,1.512S933.021,1327.993,932.684,1327.391Z" transform="translate(-917.381 -1255.01)" fill="#2d356b"/>
                      <path id="Path_20395" data-name="Path 20395" d="M921.042,1306.622c-.337-.6-.273-1.279.142-1.512s1.027.066,1.364.668.275,1.279-.141,1.512S921.379,1307.224,921.042,1306.622Z" transform="translate(-909.739 -1241.377)" fill="#2d356b"/>
                      <path id="Path_20396" data-name="Path 20396" d="M905.142,1170.242l-2.684,2.305-.253-3.815.465-.551Z" transform="translate(-897.516 -1151.547)" fill="#ffb2b0"/>
                      <path id="Path_20397" data-name="Path 20397" d="M895.782,1217.923l-1.455-6.526s-10.342-18.062-.3-33.144l-.36-.417C885.559,1190.6,887.723,1206.191,895.782,1217.923Z" transform="translate(-888.558 -1157.885)" fill="#ffb2b0"/>
                      <path id="Path_20398" data-name="Path 20398" d="M900.36,1153.329l10.933-8.106,2.525,1.836-9.734,9.3Z" transform="translate(-896.305 -1136.477)" fill="#fff"/>
                    </g>
                    <g id="Group_14173" data-name="Group 14173" transform="translate(23.357 34.356)">
                      <path id="Path_20399" data-name="Path 20399" d="M950.862,1195.911c4.09-.931-8.362-39.745-13.96-40.462,0,0-10.43,2.165-11.446,21.387C925.457,1176.835,938.715,1198.675,950.862,1195.911Z" transform="translate(-925.457 -1155.449)" fill="#40558e"/>
                      <g id="Group_14172" data-name="Group 14172" transform="translate(8.624 72.729)">
                        <path id="Path_20400" data-name="Path 20400" d="M968.625,1367.631c-.783,2.92,2.1,9.784-.516,10.088-2.347.274-6.52-2.759-1.772-10.594Z" transform="translate(-959.49 -1367.125)" fill="#ffd9a4"/>
                        <path id="Path_20401" data-name="Path 20401" d="M964.212,1379.859c4.112-.745,5,4.268,4.917,5.911-.094,1.806-3.062,3.227-4.379,2.644S962.641,1380.146,964.212,1379.859Z" transform="translate(-958.95 -1375.434)" fill="#ffd9a4"/>
                        <path id="Path_20402" data-name="Path 20402" d="M955.4,1386.63c-1.512,1.945-4.175,3.443-4.742,2.689-.642-.848,1.89-1.7,2.822-3.781,1.013-2.246,1.768-3.6,2.655-3.261S956.917,1384.683,955.4,1386.63Z" transform="translate(-950.557 -1377.036)" fill="#ffd9a4"/>
                        <path id="Path_20403" data-name="Path 20403" d="M965.368,1398.144c-.12,2.107-.667,3.18-1.222,3.084s-.413-1.292-.3-3.4-.255-4.812.3-4.716S965.482,1396.038,965.368,1398.144Z" transform="translate(-959.211 -1384.183)" fill="#ffd9a4"/>
                        <path id="Path_20404" data-name="Path 20404" d="M972.193,1400.6c.313,2.13-.363,4.11-.916,4.128s-.373-2.006-.685-4.135-.4-3.528.154-3.544S971.88,1398.475,972.193,1400.6Z" transform="translate(-963.544 -1386.77)" fill="#ffd9a4"/>
                        <path id="Path_20405" data-name="Path 20405" d="M978.131,1394.532c.226,2.139-.132,3.385-.684,3.386s-.436-1.436-.661-3.574-.354-3.64.2-3.642S977.905,1392.391,978.131,1394.532Z" transform="translate(-967.647 -1382.601)" fill="#ffd9a4"/>
                      </g>
                      <path id="Path_20406" data-name="Path 20406" d="M948.957,1237.251c-13.241,1.482-22.75-17.741-22.75-17.741a7.808,7.808,0,0,1,.227-1.879C934.63,1232.015,949.508,1237.189,948.957,1237.251Z" transform="translate(-925.948 -1196.266)" fill="#2d356b"/>
                      <path id="Path_20407" data-name="Path 20407" d="M968.629,1369.722l2.112-4.269-7-1.483.418,4.654Z" transform="translate(-950.586 -1292.325)" fill="#eaeaea"/>
                      <path id="Path_20408" data-name="Path 20408" d="M973.213,1261.073s.787,12.669-6.34,37.383c0,0-2.656,1.041-6.855-1.638,0,0-3.886-21.919.015-34.527C960.033,1262.292,969.812,1257.421,973.213,1261.073Z" transform="translate(-947.013 -1223.891)" fill="#40558e"/>
                      <path id="Path_20409" data-name="Path 20409" d="M970.7,1357.488a1.006,1.006,0,1,1-.98-1.216A1.117,1.117,0,0,1,970.7,1357.488Z" transform="translate(-953.861 -1287.272)" fill="#2d356b"/>
                    </g>
                    <g id="Group_14177" data-name="Group 14177">
                      <path id="Path_20410" data-name="Path 20410" d="M881.411,1077.9c2.933-9.589-2.531-21.051-2.991-21.339-4.907-3.078-13.366.948-17.216,3.962-3.247,2.541-5.267,5.789-2.238,7.88,1.046.722,3.015-2.74,3.954-3,1.777-.488,12.579,22.222,12.579,22.222Z" transform="translate(-857.477 -1055.457)" fill="#54ccca"/>
                      <g id="Group_14175" data-name="Group 14175" transform="translate(3.065 8.057)">
                        <g id="Group_14174" data-name="Group 14174">
                          <path id="Path_20411" data-name="Path 20411" d="M879.029,1141.274l-1.483-1.1.873-1.22Z" transform="translate(-873.716 -1118.321)" fill="#ffd8a3"/>
                          <path id="Path_20412" data-name="Path 20412" d="M885.168,1097.528c.114,2.257-4.227,8.965-10.363,11.169-3.9-7.557-8.921-20.611-8.367-23.417.545-2.761,5.662-6.718,6.643-6.348-1.076,3.381,5.763,10.373,7.312,10.637C884.165,1090.211,885.049,1095.172,885.168,1097.528Z" transform="translate(-866.396 -1078.907)" fill="#ffd8a3"/>
                          <path id="Path_20413" data-name="Path 20413" d="M871.634,1129.1a60.053,60.053,0,0,0,.252-7.83c-.112-2.84,3.314,6.359,3.314,6.359S872.769,1129.352,871.634,1129.1Z" transform="translate(-869.834 -1106.358)" fill="#ffd8a3"/>
                          <path id="Path_20414" data-name="Path 20414" d="M887.347,1161.926c-.714-.009-1.254-.461-1.2-1.01a1.291,1.291,0,0,1,1.384-.98c.715.008,1.254.461,1.2,1.01A1.291,1.291,0,0,1,887.347,1161.926Z" transform="translate(-879.356 -1132.095)" fill="#ffd8a3"/>
                          <path id="Path_20415" data-name="Path 20415" d="M883.983,1153.76c-.086-.15.029-.377.256-.507s.48-.114.566.036-.029.377-.255.506S884.068,1153.91,883.983,1153.76Z" transform="translate(-877.921 -1127.651)" fill="#ffd8a3"/>
                        </g>
                        <path id="Path_20416" data-name="Path 20416" d="M907.751,1105.063c-.25-1.565.436-3.025,1.534-3.261s2.19.841,2.44,2.4a3.508,3.508,0,0,1-2.445,3.43C908.183,1107.873,908,1106.627,907.751,1105.063Z" transform="translate(-893.508 -1093.914)" fill="#ffd8a3"/>
                      </g>
                      <path id="Path_20417" data-name="Path 20417" d="M882.562,1147.269l.951,1.938s.919-.115,1.031-.371a3.93,3.93,0,0,0-.062-2Z" transform="translate(-873.943 -1115.436)" fill="#ffab00"/>
                      <path id="Path_20418" data-name="Path 20418" d="M882.805,1147.554l.846,1.721a2.457,2.457,0,0,0,.788-.2,2.818,2.818,0,0,0-.05-1.9Z" transform="translate(-874.103 -1115.665)" fill="#fff"/>
                      <path id="Path_20419" data-name="Path 20419" d="M871.662,1113.714a.838.838,0,0,1,.071-.59c.247-.439,3.307-.289,3.422.313l.071.377c.083.433-.878.2-1.755.3-.839.095-1.595.544-1.687.139Z" transform="translate(-866.772 -1093.145)" fill="#2d356b"/>
                      <path id="Path_20420" data-name="Path 20420" d="M877.88,1120.9a.922.922,0,0,1,.168-1.16c.3-.174.721.063.932.53a.92.92,0,0,1-.168,1.159C878.509,1121.6,878.091,1121.365,877.88,1120.9Z" transform="translate(-870.791 -1097.615)" fill="#2d356b"/>
                      <path id="Path_20421" data-name="Path 20421" d="M887.957,1146.673a.087.087,0,0,1,.071-.14.234.234,0,0,1,.216.1.087.087,0,0,1-.07.14A.234.234,0,0,1,887.957,1146.673Z" transform="translate(-877.473 -1115.24)" fill="#ffab00"/>
                      <g id="Group_14176" data-name="Group 14176" transform="translate(0.132 3.284)">
                        <path id="Path_20422" data-name="Path 20422" d="M887.493,1081.963c-2.515,1.294,6.564,11.292,5.609,12.7s.755,1.811,1.334,1.252c1.327-1.281.186-4.715-.609-6.872C892.943,1086.638,887.706,1081.854,887.493,1081.963Z" transform="translate(-877.022 -1076.139)" fill="#54ccca"/>
                        <path id="Path_20423" data-name="Path 20423" d="M858.454,1074.346c-1.217-1.692-.5-4.289,1.6-5.8s8.748-4.744,9.964-3.053-3.455,7.668-5.556,9.178S859.67,1076.037,858.454,1074.346Z" transform="translate(-857.861 -1065.016)" fill="#54ccca"/>
                      </g>
                    </g>
                  </g>
                </g>
              </g>
            </g>
          </g>
        </g>
        <g id="Group_14447" data-name="Group 14447">
          <g id="Group_14442" data-name="Group 14442">
            <g id="Group_14183" data-name="Group 14183" transform="translate(307.976 2681.14)">
              <rect id="Rectangle_4738" data-name="Rectangle 4738" width="70.737" height="31.236" rx="6.672" transform="translate(0 0)" fill="#fff" stroke="#231f20" stroke-miterlimit="10" stroke-width="0.25"/>
              <text id="Client" transform="translate(15.868 20.618)" fill="#2d356b" font-size="14" font-family="TrebuchetMS-Bold, Trebuchet MS" font-weight="700"><tspan x="0" y="0">Client</tspan></text>
            </g>
          </g>
        </g>
      </g>
    </g>
  </g>
</svg>
