<svg xmlns="http://www.w3.org/2000/svg" width="540.5" height="393.29" viewBox="0 0 540.5 393.29">
  <g id="Group_15199" data-name="Group 15199" transform="translate(-319.584 -6026.503)">
    <g id="Group_15128" data-name="Group 15128" transform="translate(319.584 6026.503)">
      <g id="Group_15127" data-name="Group 15127">
        <g id="Group_15126" data-name="Group 15126">
          <g id="Group_15125" data-name="Group 15125">
            <g id="Group_15124" data-name="Group 15124">
              <g id="Group_15049" data-name="Group 15049">
                <g id="Group_15023" data-name="Group 15023" transform="translate(0.525)">
                  <g id="Group_15019" data-name="Group 15019" transform="translate(0.12)">
                    <path id="Path_16428" data-name="Path 16428" d="M859.867,6040.967h.64v-13.8H320.651v288.356h539.21v-28.965h.006Z" transform="translate(-320.651 -6026.767)" fill="#fff"/>
                    <rect id="Rectangle_1350" data-name="Rectangle 1350" width="539.21" height="0.806" transform="translate(0 288.356)" fill="#a0bacb"/>
                    <rect id="Rectangle_1351" data-name="Rectangle 1351" width="539.855" height="0.806" fill="#7b88ac"/>
                  </g>
                  <g id="Group_15020" data-name="Group 15020" transform="translate(0 58.92)">
                    <path id="Path_16429" data-name="Path 16429" d="M408.612,6124.818v-.213h-7.706v.213H321.252v175.8h163.58v-175.8Zm69.447,5.644v38.658H408.612v-38.658Zm-77.154,45.329v73.855H328.025v-73.855Zm7.706,73.855v-73.855H478.06v73.855Zm-7.706-119.185v38.658H328.025v-38.658Zm-72.881,125.855h72.881v38.658H328.025Zm80.588,38.658v-38.658H478.06v38.658Z" transform="translate(-320.768 -6124.202)" fill="#ebebeb"/>
                    <path id="Path_16430" data-name="Path 16430" d="M485,6300.759H320.452V6124.15h79.654v-.212h8.674v.212H485Zm-163.58-.806H484.032v-175H407.812v-.212h-6.739v.212H321.419Zm156.807-4.838H407.812V6255.65h70.414Zm-69.447-.807h68.479v-37.852H408.78Zm-7.706.807H327.225V6255.65h73.849Zm-72.881-.807h71.914v-37.852H328.192Zm150.034-44.523H407.812v-74.661h70.414Zm-69.447-.806h68.479v-73.048H408.78Zm-7.706.806H327.225v-74.661h73.849Zm-72.881-.806h71.914v-73.048H328.192Zm150.034-79.72H407.812v-39.464h70.414Zm-69.447-.806h68.479V6130.6H408.78Zm-7.706.806H327.225v-39.464h73.849Zm-72.881-.806h71.914V6130.6H328.192Z" transform="translate(-320.452 -6123.938)" fill="#ebebeb"/>
                  </g>
                  <g id="Group_15021" data-name="Group 15021" transform="translate(202.819 57.88)">
                    <path id="Path_16431" data-name="Path 16431" d="M744.013,6123.1v-.211h-7.706v.211H656.653v175.8H820.232V6123.1Zm69.447,5.646V6167.4H744.013v-38.657Zm-77.153,45.328v73.855H663.425v-73.855Zm7.706,73.855v-73.855H813.46v73.855Zm-7.706-119.183V6167.4H663.425v-38.657ZM663.425,6254.6h72.882v38.659H663.425Zm80.588,38.659V6254.6H813.46v38.659Z" transform="translate(-656.169 -6122.482)" fill="#ebebeb"/>
                    <path id="Path_16432" data-name="Path 16432" d="M820.4,6299.04H655.853V6122.43h79.654v-.211h8.673v.211H820.4Zm-163.58-.806H819.432v-175H743.213v-.211h-6.738v.211H656.82Zm156.808-4.839H743.213V6253.93h70.415Zm-69.447-.806h68.48v-37.852H744.18Zm-7.706.806h-73.85V6253.93h73.85Zm-72.882-.806h71.914v-37.852H663.593Zm150.035-44.522H743.213V6173.4h70.415Zm-69.447-.806h68.48v-73.049H744.18Zm-7.706.806h-73.85V6173.4h73.85Zm-72.882-.806h71.914v-73.049H663.593Zm150.035-79.719H743.213v-39.465h70.415Zm-69.447-.807h68.48v-37.852H744.18Zm-7.706.807h-73.85v-39.465h73.85Zm-72.882-.807h71.914v-37.852H663.593Z" transform="translate(-655.853 -6122.219)" fill="#ebebeb"/>
                  </g>
                  <g id="Group_15022" data-name="Group 15022" transform="translate(410.213 58.92)">
                    <path id="Path_16433" data-name="Path 16433" d="M1128.26,6294.976h-41.28v-38.658h41.28v-6.671h-41.28v-73.855h41.28v-6.671h-41.28v-38.658h41.28v-5.644h-41.28v-.213h-7.706v.213H999.621v175.8H1128.26Zm-48.985,0h-72.882v-38.658h72.882Zm0-45.329h-72.882v-73.855h72.882Zm0-80.526h-72.882v-38.658h72.882Z" transform="translate(-999.138 -6124.202)" fill="#ebebeb"/>
                    <path id="Path_16434" data-name="Path 16434" d="M1143.288,6381.214h41.763v-.806h-40.8v-37.852h40.8v-.806h-41.763Z" transform="translate(-1055.928 -6210.04)" fill="#ebebeb"/>
                    <path id="Path_16435" data-name="Path 16435" d="M1143.288,6283.246h41.763v-.806h-40.8v-73.049h40.8v-.807h-41.763Z" transform="translate(-1055.928 -6157.399)" fill="#ebebeb"/>
                    <path id="Path_16436" data-name="Path 16436" d="M1143.288,6173.089h41.763v-.807h-40.8V6134.43h40.8v-.806h-41.763Z" transform="translate(-1055.928 -6127.768)" fill="#ebebeb"/>
                    <path id="Path_16437" data-name="Path 16437" d="M1083.87,6133.624h-73.849v39.465h73.849Zm-.967,38.659h-71.914V6134.43H1082.9Z" transform="translate(-1003.249 -6127.768)" fill="#ebebeb"/>
                    <path id="Path_16438" data-name="Path 16438" d="M1127.944,6299.953H999.789v-175h79.654v-.211h6.738v.211h41.763v-.806h-40.8v-.212h-8.673v.212H998.821v176.608h129.123Z" transform="translate(-998.821 -6123.939)" fill="#ebebeb"/>
                    <path id="Path_16439" data-name="Path 16439" d="M1010.021,6381.215h73.849V6341.75h-73.849Zm.968-38.658H1082.9v37.852h-71.914Z" transform="translate(-1003.249 -6210.039)" fill="#ebebeb"/>
                    <path id="Path_16440" data-name="Path 16440" d="M1083.87,6208.584h-73.849v74.661h73.849Zm-.967,73.855h-71.914v-73.049H1082.9Z" transform="translate(-1003.249 -6157.399)" fill="#ebebeb"/>
                  </g>
                </g>
                <g id="Group_15046" data-name="Group 15046" transform="translate(373.878 131.359)">
                  <ellipse id="Ellipse_122" data-name="Ellipse 122" cx="16.116" cy="13.432" rx="16.116" ry="13.432" fill="#fff4ba"/>
                  <g id="Group_15024" data-name="Group 15024" transform="translate(0.884 0.737)">
                    <path id="Path_16441" data-name="Path 16441" d="M954.56,6270.341c-8.4,0-15.232-5.694-15.232-12.694s6.833-12.7,15.232-12.7,15.231,5.7,15.231,12.7S962.958,6270.341,954.56,6270.341Zm0-24.9c-8.074,0-14.642,5.475-14.642,12.2s6.568,12.2,14.642,12.2,14.641-5.476,14.641-12.2S962.633,6245.442,954.56,6245.442Z" transform="translate(-939.328 -6244.951)" fill="#fff4ba"/>
                  </g>
                  <g id="Group_15025" data-name="Group 15025" transform="translate(15.821 4.095)">
                    <path id="Path_16442" data-name="Path 16442" d="M972.971,6260.086h-8.647a.273.273,0,0,1-.3-.245v-9.092a.3.3,0,0,1,.59,0v8.846h8.353a.25.25,0,1,1,0,.491Z" transform="translate(-964.029 -6250.504)" fill="#fff4ba"/>
                  </g>
                  <g id="Group_15028" data-name="Group 15028" transform="translate(15.821 1.515)">
                    <g id="Group_15026" data-name="Group 15026">
                      <path id="Path_16443" data-name="Path 16443" d="M964.324,6248.019a.274.274,0,0,1-.3-.245v-1.29a.3.3,0,0,1,.59,0v1.29A.273.273,0,0,1,964.324,6248.019Z" transform="translate(-964.029 -6246.238)" fill="#fff4ba"/>
                    </g>
                    <g id="Group_15027" data-name="Group 15027" transform="translate(0 21.807)">
                      <path id="Path_16444" data-name="Path 16444" d="M964.324,6284.081a.273.273,0,0,1-.3-.245v-1.291a.3.3,0,0,1,.59,0v1.291A.273.273,0,0,1,964.324,6284.081Z" transform="translate(-964.029 -6282.3)" fill="#fff4ba"/>
                    </g>
                  </g>
                  <g id="Group_15031" data-name="Group 15031" transform="translate(1.965 13.063)">
                    <g id="Group_15029" data-name="Group 15029" transform="translate(26.163)">
                      <path id="Path_16445" data-name="Path 16445" d="M986.224,6265.826h-1.547a.25.25,0,1,1,0-.491h1.547a.25.25,0,1,1,0,.491Z" transform="translate(-984.382 -6265.335)" fill="#fff4ba"/>
                    </g>
                    <g id="Group_15030" data-name="Group 15030">
                      <path id="Path_16446" data-name="Path 16446" d="M942.958,6265.826h-1.547a.25.25,0,1,1,0-.491h1.547a.249.249,0,1,1,0,.491Z" transform="translate(-941.116 -6265.335)" fill="#fff4ba"/>
                    </g>
                  </g>
                  <g id="Group_15038" data-name="Group 15038" transform="translate(3.759 3.316)">
                    <g id="Group_15034" data-name="Group 15034" transform="translate(0 4.063)">
                      <g id="Group_15032" data-name="Group 15032" transform="translate(22.776)">
                        <path id="Path_16447" data-name="Path 16447" d="M982.042,6257.063a.312.312,0,0,1-.257-.125.226.226,0,0,1,.111-.335l1.347-.635a.327.327,0,0,1,.4.092.225.225,0,0,1-.111.335l-1.347.635A.342.342,0,0,1,982.042,6257.063Z" transform="translate(-981.747 -6255.936)" fill="#fff4ba"/>
                      </g>
                      <g id="Group_15033" data-name="Group 15033" transform="translate(0 10.733)">
                        <path id="Path_16448" data-name="Path 16448" d="M944.378,6274.81a.309.309,0,0,1-.257-.125.226.226,0,0,1,.111-.335l1.348-.634a.327.327,0,0,1,.4.093.224.224,0,0,1-.111.333l-1.348.635A.327.327,0,0,1,944.378,6274.81Z" transform="translate(-944.083 -6273.685)" fill="#fff4ba"/>
                      </g>
                    </g>
                    <g id="Group_15037" data-name="Group 15037" transform="translate(4.631)">
                      <g id="Group_15035" data-name="Group 15035" transform="translate(14.032)">
                        <path id="Path_16449" data-name="Path 16449" d="M975.239,6250.8a.341.341,0,0,1-.158-.039.223.223,0,0,1-.09-.339l.83-1.089a.331.331,0,0,1,.407-.075.222.222,0,0,1,.091.339l-.83,1.088A.314.314,0,0,1,975.239,6250.8Z" transform="translate(-974.945 -6249.216)" fill="#fff4ba"/>
                      </g>
                      <g id="Group_15036" data-name="Group 15036" transform="translate(0 18.406)">
                        <path id="Path_16450" data-name="Path 16450" d="M952.035,6281.234a.342.342,0,0,1-.158-.038.223.223,0,0,1-.091-.339l.83-1.089a.335.335,0,0,1,.407-.076.224.224,0,0,1,.091.34l-.83,1.089A.311.311,0,0,1,952.035,6281.234Z" transform="translate(-951.741 -6279.654)" fill="#fff4ba"/>
                      </g>
                    </g>
                  </g>
                  <g id="Group_15045" data-name="Group 15045" transform="translate(4.127 3.011)">
                    <g id="Group_15041" data-name="Group 15041" transform="translate(4.875)">
                      <g id="Group_15039" data-name="Group 15039" transform="translate(12.877 18.983)">
                        <path id="Path_16451" data-name="Path 16451" d="M975.1,6281.717a.307.307,0,0,1-.257-.125l-.762-1.122a.225.225,0,0,1,.112-.335.327.327,0,0,1,.4.093l.762,1.123a.225.225,0,0,1-.111.335A.342.342,0,0,1,975.1,6281.717Z" transform="translate(-974.046 -6280.103)" fill="#fff4ba"/>
                      </g>
                      <g id="Group_15040" data-name="Group 15040">
                        <path id="Path_16452" data-name="Path 16452" d="M953.809,6250.324a.31.31,0,0,1-.257-.124l-.762-1.123a.226.226,0,0,1,.112-.335.328.328,0,0,1,.4.093l.762,1.124a.225.225,0,0,1-.112.334A.333.333,0,0,1,953.809,6250.324Z" transform="translate(-952.752 -6248.71)" fill="#fff4ba"/>
                      </g>
                    </g>
                    <g id="Group_15044" data-name="Group 15044" transform="translate(0 3.859)">
                      <g id="Group_15042" data-name="Group 15042" transform="translate(22.082 11.696)">
                        <path id="Path_16453" data-name="Path 16453" d="M982.808,6275.617a.337.337,0,0,1-.158-.038l-1.306-.692a.223.223,0,0,1-.091-.339.333.333,0,0,1,.408-.076l1.306.692a.223.223,0,0,1,.091.339A.313.313,0,0,1,982.808,6275.617Z" transform="translate(-981.207 -6274.434)" fill="#fff4ba"/>
                      </g>
                      <g id="Group_15043" data-name="Group 15043">
                        <path id="Path_16454" data-name="Path 16454" d="M946.291,6256.276a.34.34,0,0,1-.158-.039l-1.306-.692a.223.223,0,0,1-.091-.339.333.333,0,0,1,.407-.076l1.306.691a.223.223,0,0,1,.091.34A.314.314,0,0,1,946.291,6256.276Z" transform="translate(-944.69 -6255.093)" fill="#fff4ba"/>
                      </g>
                    </g>
                  </g>
                </g>
                <g id="Group_15047" data-name="Group 15047" transform="translate(0 254.044)">
                  <path id="Path_16455" data-name="Path 16455" d="M859.439,6447.182H320.229v98.936h-.645v39.967h539.85V6451.4h.005Z" transform="translate(-319.584 -6446.84)" fill="#f9f9f9"/>
                  <rect id="Rectangle_1352" data-name="Rectangle 1352" width="538.087" height="0.578" transform="translate(1.929 138.449)" fill="#f9f9f9"/>
                  <rect id="Rectangle_1353" data-name="Rectangle 1353" width="539.216" height="0.578" transform="translate(0.645)" fill="#f9f9f9"/>
                </g>
                <g id="Group_15048" data-name="Group 15048" transform="translate(32.734 5.084)">
                  <path id="Path_16456" data-name="Path 16456" d="M934.634,6121.18v-86.27h-2.067v86.27c-6.444.439-11.512,4.929-11.512,10.413,0,5.776,5.617,10.458,12.545,10.458s12.546-4.682,12.546-10.458C946.146,6126.109,941.078,6121.619,934.634,6121.18Z" transform="translate(-590.077 -6034.91)" fill="#ffb2b0"/>
                  <path id="Path_16457" data-name="Path 16457" d="M387.3,6132.449v-86.27h-2.067v86.27c-6.444.439-11.512,4.929-11.512,10.414,0,5.775,5.617,10.457,12.546,10.457s12.546-4.682,12.546-10.457C398.809,6137.378,393.741,6132.888,387.3,6132.449Z" transform="translate(-373.717 -6039.364)" fill="#ffb2b0"/>
                  <path id="Path_16458" data-name="Path 16458" d="M578.319,6120.23v-62.721h-1.5v62.721c-4.685.319-8.37,3.584-8.37,7.571,0,4.2,4.084,7.6,9.121,7.6s9.121-3.4,9.121-7.6C586.689,6123.814,583,6120.549,578.319,6120.23Z" transform="translate(-450.693 -6043.843)" fill="#ffb2b0"/>
                  <path id="Path_16459" data-name="Path 16459" d="M1101.274,6120.23v-62.721h-1.5v62.721c-4.685.319-8.37,3.584-8.37,7.571,0,4.2,4.084,7.6,9.121,7.6s9.121-3.4,9.121-7.6C1109.644,6123.814,1105.96,6120.549,1101.274,6120.23Z" transform="translate(-657.415 -6043.843)" fill="#ffb2b0"/>
                </g>
              </g>
              <g id="Group_15086" data-name="Group 15086" transform="translate(18.253 124.713)">
                <g id="Group_15058" data-name="Group 15058" transform="translate(0 24.195)">
                  <g id="Group_15050" data-name="Group 15050">
                    <rect id="Rectangle_1354" data-name="Rectangle 1354" width="53.086" height="1.896" transform="translate(0.484 0.403)" fill="#ebebeb"/>
                    <path id="Path_16460" data-name="Path 16460" d="M403.823,6275.454H349.77v-2.7h54.053Zm-53.086-.806h52.119v-1.091H350.737Z" transform="translate(-349.77 -6272.751)" fill="#ebebeb"/>
                  </g>
                  <g id="Group_15051" data-name="Group 15051" transform="translate(0 28.603)">
                    <rect id="Rectangle_1355" data-name="Rectangle 1355" width="53.086" height="1.896" transform="translate(0.484 0.403)" fill="#ebebeb"/>
                    <path id="Path_16461" data-name="Path 16461" d="M403.823,6322.755H349.77v-2.7h54.053Zm-53.086-.808h52.119v-1.089H350.737Z" transform="translate(-349.77 -6320.052)" fill="#ebebeb"/>
                  </g>
                  <g id="Group_15052" data-name="Group 15052" transform="translate(0 57.206)">
                    <rect id="Rectangle_1356" data-name="Rectangle 1356" width="53.086" height="1.896" transform="translate(0.484 0.403)" fill="#ebebeb"/>
                    <path id="Path_16462" data-name="Path 16462" d="M403.823,6370.055H349.77v-2.7h54.053Zm-53.086-.807h52.119v-1.09H350.737Z" transform="translate(-349.77 -6367.352)" fill="#ebebeb"/>
                  </g>
                  <g id="Group_15057" data-name="Group 15057" transform="translate(0 0.632)">
                    <g id="Group_15053" data-name="Group 15053" transform="translate(0 85.808)">
                      <rect id="Rectangle_1357" data-name="Rectangle 1357" width="53.086" height="1.896" transform="translate(0.484 0.403)" fill="#ebebeb"/>
                      <path id="Path_16463" data-name="Path 16463" d="M403.823,6418.4H349.77v-2.7h54.053Zm-53.086-.806h52.119V6416.5H350.737Z" transform="translate(-349.77 -6415.698)" fill="#ebebeb"/>
                    </g>
                    <g id="Group_15054" data-name="Group 15054" transform="translate(0 113.184)">
                      <rect id="Rectangle_1358" data-name="Rectangle 1358" width="53.086" height="1.896" transform="translate(0.484 0.403)" fill="#ebebeb"/>
                      <path id="Path_16464" data-name="Path 16464" d="M403.823,6463.672H349.77v-2.7h54.053Zm-53.086-.807h52.119v-1.09H350.737Z" transform="translate(-349.77 -6460.969)" fill="#ebebeb"/>
                    </g>
                    <g id="Group_15055" data-name="Group 15055">
                      <rect id="Rectangle_1359" data-name="Rectangle 1359" width="2.844" height="137.595" transform="translate(0.484 0.403)" fill="#ebebeb"/>
                      <path id="Path_16465" data-name="Path 16465" d="M353.581,6412.2H349.77V6273.8h3.811Zm-2.844-.807h1.876V6274.6h-1.876Z" transform="translate(-349.77 -6273.797)" fill="#ebebeb"/>
                    </g>
                    <g id="Group_15056" data-name="Group 15056" transform="translate(50.242)">
                      <rect id="Rectangle_1360" data-name="Rectangle 1360" width="2.844" height="137.595" transform="translate(0.484 0.403)" fill="#ebebeb"/>
                      <path id="Path_16466" data-name="Path 16466" d="M436.666,6412.2h-3.811V6273.8h3.811Zm-2.844-.807H435.7V6274.6h-1.876Z" transform="translate(-432.855 -6273.797)" fill="#ebebeb"/>
                    </g>
                  </g>
                </g>
                <g id="Group_15069" data-name="Group 15069" transform="translate(9.515 30.937)">
                  <g id="Group_15060" data-name="Group 15060">
                    <g id="Group_15059" data-name="Group 15059">
                      <rect id="Rectangle_1361" data-name="Rectangle 1361" width="5.561" height="21.86" transform="translate(0.484 0.403)" fill="#ebebeb"/>
                      <path id="Path_16467" data-name="Path 16467" d="M372.034,6306.567h-6.529V6283.9h6.529Zm-5.561-.806h4.594v-21.054h-4.594Z" transform="translate(-365.505 -6283.901)" fill="#ebebeb"/>
                    </g>
                    <path id="Path_16468" data-name="Path 16468" d="M371.539,6291.844a1.863,1.863,0,1,1-1.833-1.528A1.7,1.7,0,0,1,371.539,6291.844Z" transform="translate(-366.441 -6286.437)" fill="#ebebeb"/>
                  </g>
                  <g id="Group_15062" data-name="Group 15062" transform="translate(6.537)">
                    <g id="Group_15061" data-name="Group 15061">
                      <rect id="Rectangle_1362" data-name="Rectangle 1362" width="5.561" height="21.86" transform="translate(0.484 0.403)" fill="#ebebeb"/>
                      <path id="Path_16469" data-name="Path 16469" d="M382.844,6306.567h-6.529V6283.9h6.529Zm-5.561-.806h4.594v-21.054h-4.594Z" transform="translate(-376.315 -6283.901)" fill="#ebebeb"/>
                    </g>
                    <path id="Path_16470" data-name="Path 16470" d="M382.349,6291.844a1.863,1.863,0,1,1-1.833-1.528A1.7,1.7,0,0,1,382.349,6291.844Z" transform="translate(-377.251 -6286.437)" fill="#ebebeb"/>
                  </g>
                  <g id="Group_15064" data-name="Group 15064" transform="translate(13.074)">
                    <g id="Group_15063" data-name="Group 15063">
                      <rect id="Rectangle_1363" data-name="Rectangle 1363" width="5.561" height="21.86" transform="translate(0.483 0.403)" fill="#ebebeb"/>
                      <path id="Path_16471" data-name="Path 16471" d="M393.654,6306.567h-6.528V6283.9h6.528Zm-5.561-.806h4.594v-21.054h-4.594Z" transform="translate(-387.126 -6283.901)" fill="#ebebeb"/>
                    </g>
                    <path id="Path_16472" data-name="Path 16472" d="M393.159,6291.844a1.863,1.863,0,1,1-1.833-1.528A1.7,1.7,0,0,1,393.159,6291.844Z" transform="translate(-388.062 -6286.437)" fill="#ebebeb"/>
                  </g>
                  <g id="Group_15066" data-name="Group 15066" transform="translate(19.611)">
                    <g id="Group_15065" data-name="Group 15065">
                      <rect id="Rectangle_1364" data-name="Rectangle 1364" width="5.561" height="21.86" transform="translate(0.484 0.403)" fill="#ebebeb"/>
                      <path id="Path_16473" data-name="Path 16473" d="M404.464,6306.567h-6.529V6283.9h6.529Zm-5.561-.806H403.5v-21.054H398.9Z" transform="translate(-397.935 -6283.901)" fill="#ebebeb"/>
                    </g>
                    <path id="Path_16474" data-name="Path 16474" d="M403.969,6291.844a1.863,1.863,0,1,1-1.833-1.528A1.7,1.7,0,0,1,403.969,6291.844Z" transform="translate(-398.871 -6286.437)" fill="#ebebeb"/>
                  </g>
                  <g id="Group_15068" data-name="Group 15068" transform="translate(26.148)">
                    <g id="Group_15067" data-name="Group 15067">
                      <rect id="Rectangle_1365" data-name="Rectangle 1365" width="5.561" height="21.86" transform="translate(0.484 0.403)" fill="#ebebeb"/>
                      <path id="Path_16475" data-name="Path 16475" d="M415.275,6306.567h-6.529V6283.9h6.529Zm-5.561-.806h4.594v-21.054h-4.594Z" transform="translate(-408.746 -6283.901)" fill="#ebebeb"/>
                    </g>
                    <path id="Path_16476" data-name="Path 16476" d="M414.779,6291.844a1.863,1.863,0,1,1-1.833-1.528A1.7,1.7,0,0,1,414.779,6291.844Z" transform="translate(-409.682 -6286.437)" fill="#ebebeb"/>
                  </g>
                </g>
                <path id="Path_16477" data-name="Path 16477" d="M369.849,6390.782a9.062,9.062,0,0,1,.866-4.017h-6.666a9.067,9.067,0,0,1,.865,4.017c0,2.43-2.921,6.918-2.921,9.909s3.1,3.973,5.389,3.973,5.389-.981,5.389-3.973S369.849,6393.212,369.849,6390.782Z" transform="translate(-354.602 -6293.626)" fill="#ebebeb"/>
                <g id="Group_15071" data-name="Group 15071" transform="translate(28.294 62.188)">
                  <g id="Group_15070" data-name="Group 15070" transform="translate(0.826)">
                    <path id="Path_16478" data-name="Path 16478" d="M410.642,6346.439c1.8-3.517-2.2-3.451-1.894-4.374.571-1.733,2.726.149,3.6-.723s-2.156-3.591-.57-4.533,1.031,2.246,2.4,2.019.555-3.594,2.173-3.217c1.216.282-.229,2.387-.1,3.37s2.641-.45,2.684.954-2.99.789-3.347,1.856,3.262,1.288,1.992,2.191-3.661-.178-4.291.761S409.878,6347.933,410.642,6346.439Z" transform="translate(-402.197 -6335.581)" fill="#ebebeb"/>
                    <path id="Path_16479" data-name="Path 16479" d="M405.264,6351.3c-1.69-3.554-4.476-1.164-5.038-2-1.056-1.567,2.064-1.492,1.949-2.625s-4.564-1.288-4.231-2.888,2.628.991,3.412.027-2.638-2.88-1.171-3.562c1.1-.511,1.853,1.832,2.777,2.452s1.5-1.868,2.713-.9-1.46,2.314-.813,3.282,3.406-1,3.265.388-2.753,2.021-2.408,3.057S405.981,6352.809,405.264,6351.3Z" transform="translate(-397.926 -6337.399)" fill="#ebebeb"/>
                  </g>
                  <path id="Path_16480" data-name="Path 16480" d="M409.026,6350.423H399.8s-3.239,2.318-3.239,5.057,2.019,5.583,7.853,5.583,7.852-2.844,7.852-5.583S409.026,6350.423,409.026,6350.423Z" transform="translate(-396.56 -6341.447)" fill="#ebebeb"/>
                </g>
                <g id="Group_15072" data-name="Group 15072" transform="translate(30.558 98.554)">
                  <rect id="Rectangle_1366" data-name="Rectangle 1366" width="8.516" height="9.64" transform="translate(2.635 2.845)" fill="#ebebeb"/>
                  <ellipse id="Ellipse_123" data-name="Ellipse 123" cx="6.721" cy="2.845" rx="6.721" ry="2.845" fill="#ebebeb"/>
                </g>
                <g id="Group_15073" data-name="Group 15073" transform="translate(24.627 15.342)">
                  <rect id="Rectangle_1367" data-name="Rectangle 1367" width="6.314" height="7.147" transform="translate(1.954 2.109)" fill="#ebebeb"/>
                  <path id="Path_16481" data-name="Path 16481" d="M400.461,6260.22c0,1.165-2.231,2.108-4.983,2.108s-4.983-.943-4.983-2.108,2.231-2.11,4.983-2.11S400.461,6259.055,400.461,6260.22Z" transform="translate(-390.495 -6258.11)" fill="#ebebeb"/>
                </g>
                <g id="Group_15075" data-name="Group 15075" transform="translate(3.517)">
                  <g id="Group_15074" data-name="Group 15074">
                    <path id="Path_16482" data-name="Path 16482" d="M373.8,6251.571s-2.185-6.322,7.484-13.432c0,0-8.279,7.585-5.561,13.432Z" transform="translate(-362.701 -6234.874)" fill="#ebebeb"/>
                    <path id="Path_16483" data-name="Path 16483" d="M372.469,6250.871s-5.008-7.04,3.961-18.131c0,0-7.117,11.3-1.644,17.628Z" transform="translate(-361.709 -6232.74)" fill="#ebebeb"/>
                    <path id="Path_16484" data-name="Path 16484" d="M365.7,6251.571s2.184-6.322-7.485-13.432c0,0,8.279,7.585,5.561,13.432Z" transform="translate(-356.626 -6234.874)" fill="#ebebeb"/>
                    <path id="Path_16485" data-name="Path 16485" d="M368.851,6250.255s4.024-5.66-3.186-14.571c0,0,5.721,9.079,1.324,14.167Z" transform="translate(-359.57 -6233.904)" fill="#ebebeb"/>
                    <path id="Path_16486" data-name="Path 16486" d="M373.252,6256.368s-1.888-6.388,8.105-13.18c0,0-8.626,7.312-6.184,13.241Z" transform="translate(-362.513 -6236.87)" fill="#ebebeb"/>
                    <path id="Path_16487" data-name="Path 16487" d="M363.691,6255.085s1.888-6.387-8.105-13.18c0,0,8.626,7.312,6.184,13.242Z" transform="translate(-355.586 -6236.364)" fill="#ebebeb"/>
                  </g>
                  <path id="Path_16488" data-name="Path 16488" d="M366.63,6256.692h-6.537l3,10.114h7.074l3-10.114Z" transform="translate(-357.368 -6242.208)" fill="#ebebeb"/>
                </g>
                <g id="Group_15085" data-name="Group 15085" transform="translate(5.072 73.902)">
                  <g id="Group_15080" data-name="Group 15080" transform="translate(0 0)">
                    <g id="Group_15076" data-name="Group 15076" transform="translate(0.484 5.351)">
                      <rect id="Rectangle_1368" data-name="Rectangle 1368" width="2.67" height="20.008" transform="translate(0 2.67) rotate(-90)" fill="#ebebeb"/>
                    </g>
                    <g id="Group_15078" data-name="Group 15078" transform="translate(0 2.268)">
                      <g id="Group_15077" data-name="Group 15077">
                        <rect id="Rectangle_1369" data-name="Rectangle 1369" width="2.67" height="20.008" transform="translate(0.484 3.073) rotate(-90)" fill="#ebebeb"/>
                        <path id="Path_16489" data-name="Path 16489" d="M379.134,6362.178H358.158V6358.7h20.976Zm-20.009-.806h19.041v-1.865H359.125Z" transform="translate(-358.158 -6358.701)" fill="#ebebeb"/>
                      </g>
                    </g>
                    <g id="Group_15079" data-name="Group 15079" transform="translate(0.484)">
                      <rect id="Rectangle_1370" data-name="Rectangle 1370" width="2.67" height="20.008" transform="translate(0 2.67) rotate(-90)" fill="#ebebeb"/>
                    </g>
                  </g>
                  <g id="Group_15081" data-name="Group 15081" transform="translate(12.268 0)">
                    <rect id="Rectangle_1371" data-name="Rectangle 1371" width="0.144" height="2.67" fill="#ebebeb"/>
                  </g>
                  <g id="Group_15082" data-name="Group 15082" transform="translate(13.879 0)">
                    <rect id="Rectangle_1372" data-name="Rectangle 1372" width="0.144" height="2.67" fill="#ebebeb"/>
                  </g>
                  <g id="Group_15083" data-name="Group 15083" transform="translate(15.491 0)">
                    <rect id="Rectangle_1373" data-name="Rectangle 1373" width="0.144" height="2.67" fill="#ebebeb"/>
                  </g>
                  <g id="Group_15084" data-name="Group 15084" transform="translate(17.102 0)">
                    <rect id="Rectangle_1374" data-name="Rectangle 1374" width="0.144" height="2.67" fill="#ebebeb"/>
                  </g>
                  <rect id="Rectangle_1375" data-name="Rectangle 1375" width="9.417" height="0.44" transform="translate(10.096 5.806)" fill="#ebebeb"/>
                  <rect id="Rectangle_1376" data-name="Rectangle 1376" width="9.417" height="0.44" transform="translate(10.096 6.466)" fill="#ebebeb"/>
                  <rect id="Rectangle_1377" data-name="Rectangle 1377" width="9.417" height="0.44" transform="translate(10.096 7.126)" fill="#ebebeb"/>
                </g>
              </g>
              <g id="Group_15123" data-name="Group 15123" transform="translate(439.694 112.791)">
                <g id="Group_15095" data-name="Group 15095" transform="translate(0 24.195)">
                  <g id="Group_15087" data-name="Group 15087">
                    <rect id="Rectangle_1378" data-name="Rectangle 1378" width="53.086" height="1.896" transform="translate(0.484 0.403)" fill="#ebebeb"/>
                    <path id="Path_16490" data-name="Path 16490" d="M1100.761,6255.738h-54.054v-2.7h54.054Zm-53.086-.806h52.119v-1.089h-52.119Z" transform="translate(-1046.707 -6253.036)" fill="#ebebeb"/>
                  </g>
                  <g id="Group_15088" data-name="Group 15088" transform="translate(0 28.603)">
                    <rect id="Rectangle_1379" data-name="Rectangle 1379" width="53.086" height="1.896" transform="translate(0.484 0.403)" fill="#ebebeb"/>
                    <path id="Path_16491" data-name="Path 16491" d="M1100.761,6303.04h-54.054v-2.7h54.054Zm-53.086-.807h52.119v-1.089h-52.119Z" transform="translate(-1046.707 -6300.337)" fill="#ebebeb"/>
                  </g>
                  <g id="Group_15089" data-name="Group 15089" transform="translate(0 57.206)">
                    <rect id="Rectangle_1380" data-name="Rectangle 1380" width="53.086" height="1.896" transform="translate(0.484 0.403)" fill="#ebebeb"/>
                    <path id="Path_16492" data-name="Path 16492" d="M1100.761,6350.34h-54.054v-2.7h54.054Zm-53.086-.807h52.119v-1.089h-52.119Z" transform="translate(-1046.707 -6347.638)" fill="#ebebeb"/>
                  </g>
                  <g id="Group_15094" data-name="Group 15094" transform="translate(0 0.632)">
                    <g id="Group_15090" data-name="Group 15090" transform="translate(0 85.808)">
                      <rect id="Rectangle_1381" data-name="Rectangle 1381" width="53.086" height="1.896" transform="translate(0.484 0.403)" fill="#ebebeb"/>
                      <path id="Path_16493" data-name="Path 16493" d="M1100.761,6398.685h-54.054v-2.7h54.054Zm-53.086-.806h52.119v-1.09h-52.119Z" transform="translate(-1046.707 -6395.982)" fill="#ebebeb"/>
                    </g>
                    <g id="Group_15091" data-name="Group 15091" transform="translate(0 113.184)">
                      <rect id="Rectangle_1382" data-name="Rectangle 1382" width="53.086" height="1.896" transform="translate(0.484 0.403)" fill="#ebebeb"/>
                      <path id="Path_16494" data-name="Path 16494" d="M1100.761,6443.957h-54.054v-2.7h54.054Zm-53.086-.807h52.119v-1.09h-52.119Z" transform="translate(-1046.707 -6441.254)" fill="#ebebeb"/>
                    </g>
                    <g id="Group_15092" data-name="Group 15092">
                      <rect id="Rectangle_1383" data-name="Rectangle 1383" width="2.844" height="137.595" transform="translate(0.484 0.403)" fill="#ebebeb"/>
                      <path id="Path_16495" data-name="Path 16495" d="M1050.518,6392.482h-3.811v-138.4h3.811Zm-2.844-.806h1.876v-136.79h-1.876Z" transform="translate(-1046.707 -6254.082)" fill="#ebebeb"/>
                    </g>
                    <g id="Group_15093" data-name="Group 15093" transform="translate(50.242)">
                      <rect id="Rectangle_1384" data-name="Rectangle 1384" width="2.844" height="137.595" transform="translate(0.484 0.403)" fill="#ebebeb"/>
                      <path id="Path_16496" data-name="Path 16496" d="M1133.6,6392.482h-3.811v-138.4h3.811Zm-2.844-.806h1.876v-136.79h-1.876Z" transform="translate(-1129.793 -6254.082)" fill="#ebebeb"/>
                    </g>
                  </g>
                </g>
                <g id="Group_15106" data-name="Group 15106" transform="translate(9.516 30.937)">
                  <g id="Group_15097" data-name="Group 15097">
                    <g id="Group_15096" data-name="Group 15096">
                      <rect id="Rectangle_1385" data-name="Rectangle 1385" width="5.561" height="21.86" transform="translate(0.484 0.403)" fill="#ebebeb"/>
                      <path id="Path_16497" data-name="Path 16497" d="M1068.972,6286.853h-6.529v-22.667h6.529Zm-5.562-.807H1068v-21.054h-4.594Z" transform="translate(-1062.443 -6264.186)" fill="#ebebeb"/>
                    </g>
                    <path id="Path_16498" data-name="Path 16498" d="M1068.476,6272.13a1.863,1.863,0,1,1-1.832-1.528A1.7,1.7,0,0,1,1068.476,6272.13Z" transform="translate(-1063.379 -6266.722)" fill="#ebebeb"/>
                  </g>
                  <g id="Group_15099" data-name="Group 15099" transform="translate(6.537)">
                    <g id="Group_15098" data-name="Group 15098">
                      <rect id="Rectangle_1386" data-name="Rectangle 1386" width="5.561" height="21.86" transform="translate(0.484 0.403)" fill="#ebebeb"/>
                      <path id="Path_16499" data-name="Path 16499" d="M1079.782,6286.853h-6.529v-22.667h6.529Zm-5.561-.807h4.594v-21.054h-4.594Z" transform="translate(-1073.253 -6264.186)" fill="#ebebeb"/>
                    </g>
                    <path id="Path_16500" data-name="Path 16500" d="M1079.286,6272.13a1.863,1.863,0,1,1-1.832-1.528A1.7,1.7,0,0,1,1079.286,6272.13Z" transform="translate(-1074.189 -6266.722)" fill="#ebebeb"/>
                  </g>
                  <g id="Group_15101" data-name="Group 15101" transform="translate(13.074)">
                    <g id="Group_15100" data-name="Group 15100">
                      <rect id="Rectangle_1387" data-name="Rectangle 1387" width="5.561" height="21.86" transform="translate(0.484 0.403)" fill="#ebebeb"/>
                      <path id="Path_16501" data-name="Path 16501" d="M1090.592,6286.853h-6.529v-22.667h6.529Zm-5.562-.807h4.594v-21.054h-4.594Z" transform="translate(-1084.063 -6264.186)" fill="#ebebeb"/>
                    </g>
                    <path id="Path_16502" data-name="Path 16502" d="M1090.1,6272.13a1.863,1.863,0,1,1-1.833-1.528A1.7,1.7,0,0,1,1090.1,6272.13Z" transform="translate(-1084.999 -6266.722)" fill="#ebebeb"/>
                  </g>
                  <g id="Group_15103" data-name="Group 15103" transform="translate(19.611)">
                    <g id="Group_15102" data-name="Group 15102">
                      <rect id="Rectangle_1388" data-name="Rectangle 1388" width="5.561" height="21.86" transform="translate(0.484 0.403)" fill="#ebebeb"/>
                      <path id="Path_16503" data-name="Path 16503" d="M1101.4,6286.853h-6.529v-22.667h6.529Zm-5.562-.807h4.594v-21.054h-4.594Z" transform="translate(-1094.873 -6264.186)" fill="#ebebeb"/>
                    </g>
                    <path id="Path_16504" data-name="Path 16504" d="M1100.906,6272.13a1.863,1.863,0,1,1-1.833-1.528A1.7,1.7,0,0,1,1100.906,6272.13Z" transform="translate(-1095.809 -6266.722)" fill="#ebebeb"/>
                  </g>
                  <g id="Group_15105" data-name="Group 15105" transform="translate(26.147)">
                    <g id="Group_15104" data-name="Group 15104">
                      <rect id="Rectangle_1389" data-name="Rectangle 1389" width="5.561" height="21.86" transform="translate(0.484 0.403)" fill="#ebebeb"/>
                      <path id="Path_16505" data-name="Path 16505" d="M1112.213,6286.853h-6.53v-22.667h6.53Zm-5.562-.807h4.594v-21.054h-4.594Z" transform="translate(-1105.683 -6264.186)" fill="#ebebeb"/>
                    </g>
                    <path id="Path_16506" data-name="Path 16506" d="M1111.717,6272.13a1.863,1.863,0,1,1-1.833-1.528A1.7,1.7,0,0,1,1111.717,6272.13Z" transform="translate(-1106.619 -6266.722)" fill="#ebebeb"/>
                  </g>
                </g>
                <path id="Path_16507" data-name="Path 16507" d="M1066.787,6371.067a9.067,9.067,0,0,1,.865-4.017h-6.666a9.067,9.067,0,0,1,.865,4.017c0,2.431-2.921,6.917-2.921,9.91s3.1,3.973,5.388,3.973,5.388-.981,5.388-3.973S1066.787,6373.5,1066.787,6371.067Z" transform="translate(-1051.539 -6273.911)" fill="#ebebeb"/>
                <g id="Group_15108" data-name="Group 15108" transform="translate(28.295 62.188)">
                  <g id="Group_15107" data-name="Group 15107" transform="translate(0.826)">
                    <path id="Path_16508" data-name="Path 16508" d="M1107.58,6326.724c1.8-3.516-2.2-3.451-1.894-4.375.572-1.732,2.726.15,3.6-.723s-2.156-3.591-.57-4.533,1.031,2.245,2.4,2.019.555-3.594,2.173-3.217c1.216.282-.229,2.387-.1,3.37s2.641-.45,2.684.955-2.99.789-3.347,1.855,3.262,1.288,1.993,2.191-3.662-.179-4.292.761S1106.816,6328.217,1107.58,6326.724Z" transform="translate(-1099.135 -6315.866)" fill="#ebebeb"/>
                    <path id="Path_16509" data-name="Path 16509" d="M1102.2,6331.585c-1.689-3.554-4.475-1.165-5.038-2-1.056-1.567,2.064-1.492,1.949-2.624s-4.564-1.288-4.231-2.888,2.628.991,3.412.027-2.638-2.88-1.171-3.562c1.1-.512,1.852,1.832,2.777,2.453s1.5-1.869,2.713-.9-1.459,2.313-.813,3.282,3.406-1,3.266.388-2.753,2.02-2.408,3.057S1102.919,6333.094,1102.2,6331.585Z" transform="translate(-1094.864 -6317.684)" fill="#ebebeb"/>
                  </g>
                  <path id="Path_16510" data-name="Path 16510" d="M1105.964,6330.708h-9.227s-3.239,2.318-3.239,5.057,2.019,5.584,7.852,5.584,7.853-2.844,7.853-5.584S1105.964,6330.708,1105.964,6330.708Z" transform="translate(-1093.498 -6321.732)" fill="#ebebeb"/>
                </g>
                <g id="Group_15109" data-name="Group 15109" transform="translate(30.558 98.555)">
                  <rect id="Rectangle_1390" data-name="Rectangle 1390" width="8.516" height="9.64" transform="translate(2.635 2.845)" fill="#ebebeb"/>
                  <ellipse id="Ellipse_124" data-name="Ellipse 124" cx="6.721" cy="2.845" rx="6.721" ry="2.845" fill="#ebebeb"/>
                </g>
                <g id="Group_15110" data-name="Group 15110" transform="translate(24.627 15.342)">
                  <rect id="Rectangle_1391" data-name="Rectangle 1391" width="6.314" height="7.147" transform="translate(1.953 2.109)" fill="#ebebeb"/>
                  <path id="Path_16511" data-name="Path 16511" d="M1097.4,6240.5c0,1.165-2.231,2.108-4.983,2.108s-4.983-.943-4.983-2.108,2.231-2.109,4.983-2.109S1097.4,6239.341,1097.4,6240.5Z" transform="translate(-1087.433 -6238.396)" fill="#ebebeb"/>
                </g>
                <g id="Group_15112" data-name="Group 15112" transform="translate(3.517)">
                  <g id="Group_15111" data-name="Group 15111">
                    <path id="Path_16512" data-name="Path 16512" d="M1070.734,6231.856s-2.184-6.322,7.485-13.433c0,0-8.279,7.586-5.562,13.433Z" transform="translate(-1059.638 -6215.158)" fill="#ebebeb"/>
                    <path id="Path_16513" data-name="Path 16513" d="M1069.406,6231.157s-5.009-7.042,3.96-18.132c0,0-7.116,11.3-1.644,17.629Z" transform="translate(-1058.646 -6213.024)" fill="#ebebeb"/>
                    <path id="Path_16514" data-name="Path 16514" d="M1062.64,6231.856s2.184-6.322-7.485-13.433c0,0,8.278,7.586,5.562,13.433Z" transform="translate(-1053.563 -6215.158)" fill="#ebebeb"/>
                    <path id="Path_16515" data-name="Path 16515" d="M1065.788,6230.54s4.024-5.659-3.185-14.569c0,0,5.72,9.078,1.324,14.166Z" transform="translate(-1056.508 -6214.189)" fill="#ebebeb"/>
                    <path id="Path_16516" data-name="Path 16516" d="M1070.19,6236.652s-1.888-6.387,8.105-13.18c0,0-8.626,7.312-6.184,13.242Z" transform="translate(-1059.451 -6217.154)" fill="#ebebeb"/>
                    <path id="Path_16517" data-name="Path 16517" d="M1060.629,6235.372s1.888-6.388-8.106-13.18c0,0,8.627,7.312,6.184,13.242Z" transform="translate(-1052.523 -6216.648)" fill="#ebebeb"/>
                  </g>
                  <path id="Path_16518" data-name="Path 16518" d="M1063.568,6236.978h-6.537l3,10.114h7.074l3-10.114Z" transform="translate(-1054.305 -6222.493)" fill="#ebebeb"/>
                </g>
                <g id="Group_15122" data-name="Group 15122" transform="translate(5.073 73.902)">
                  <g id="Group_15117" data-name="Group 15117" transform="translate(0 0)">
                    <g id="Group_15113" data-name="Group 15113" transform="translate(0.484 5.351)">
                      <rect id="Rectangle_1392" data-name="Rectangle 1392" width="2.67" height="20.008" transform="translate(0 2.67) rotate(-90)" fill="#ebebeb"/>
                    </g>
                    <g id="Group_15115" data-name="Group 15115" transform="translate(0 2.267)">
                      <g id="Group_15114" data-name="Group 15114">
                        <rect id="Rectangle_1393" data-name="Rectangle 1393" width="2.67" height="20.008" transform="translate(0.484 3.073) rotate(-90)" fill="#ebebeb"/>
                        <path id="Path_16519" data-name="Path 16519" d="M1076.072,6342.462H1055.1v-3.477h20.976Zm-20.008-.806H1075.1v-1.865h-19.041Z" transform="translate(-1055.096 -6338.986)" fill="#ebebeb"/>
                      </g>
                    </g>
                    <g id="Group_15116" data-name="Group 15116" transform="translate(0.484)">
                      <rect id="Rectangle_1394" data-name="Rectangle 1394" width="2.67" height="20.008" transform="translate(0 2.67) rotate(-90)" fill="#ebebeb"/>
                    </g>
                  </g>
                  <g id="Group_15118" data-name="Group 15118" transform="translate(12.268 0)">
                    <rect id="Rectangle_1395" data-name="Rectangle 1395" width="0.144" height="2.67" fill="#ebebeb"/>
                  </g>
                  <g id="Group_15119" data-name="Group 15119" transform="translate(13.879 0)">
                    <rect id="Rectangle_1396" data-name="Rectangle 1396" width="0.144" height="2.67" fill="#ebebeb"/>
                  </g>
                  <g id="Group_15120" data-name="Group 15120" transform="translate(15.491 0)">
                    <rect id="Rectangle_1397" data-name="Rectangle 1397" width="0.144" height="2.67" fill="#ebebeb"/>
                  </g>
                  <g id="Group_15121" data-name="Group 15121" transform="translate(17.102 0)">
                    <rect id="Rectangle_1398" data-name="Rectangle 1398" width="0.144" height="2.67" fill="#ebebeb"/>
                  </g>
                  <rect id="Rectangle_1399" data-name="Rectangle 1399" width="9.417" height="0.44" transform="translate(10.096 5.806)" fill="#ebebeb"/>
                  <rect id="Rectangle_1400" data-name="Rectangle 1400" width="9.417" height="0.44" transform="translate(10.096 6.466)" fill="#ebebeb"/>
                  <rect id="Rectangle_1401" data-name="Rectangle 1401" width="9.417" height="0.44" transform="translate(10.096 7.126)" fill="#ebebeb"/>
                </g>
              </g>
            </g>
          </g>
        </g>
      </g>
    </g>
    <g id="Group_15142" data-name="Group 15142" transform="translate(704.064 6197.138)">
      <g id="Group_15131" data-name="Group 15131" transform="translate(7.004 79.008)">
        <path id="Path_16524" data-name="Path 16524" d="M969.994,6451.364c1.038,6.692,36.513-5.984,37.613-6.92,0,0,2.441-4.357-.831-5.05C1002.483,6438.487,969.53,6448.37,969.994,6451.364Z" transform="translate(-968.169 -6439.335)" fill="#7b88ac"/>
        <path id="Path_16525" data-name="Path 16525" d="M966.98,6457.112l.261-2.058,6.842-3.9s.3,3.651-.131,4.448S966.98,6457.112,966.98,6457.112Z" transform="translate(-966.98 -6444.008)" fill="#fffdfd"/>
        <path id="Path_16526" data-name="Path 16526" d="M966.985,6460.82l.593,1.965,7.323,2.591s-.31-3.629-.859-4.334S966.985,6460.82,966.985,6460.82Z" transform="translate(-966.982 -6447.765)" fill="#fffdfd"/>
      </g>
      <g id="Group_15132" data-name="Group 15132" transform="translate(0 84.708)">
        <path id="Path_16527" data-name="Path 16527" d="M972.42,6453.422c2.051-1.6,5.163-2.437,5.547-1.521.437,1.034-2.375,1.254-3.866,3.136-1.619,2.035-2.743,3.229-3.561,2.648S970.365,6455.021,972.42,6453.422Z" transform="translate(-961.247 -6449.854)" fill="#f8c471"/>
        <path id="Path_16528" data-name="Path 16528" d="M978.747,6452.506c-3.185-.183-9.655,4.276-10.533,1.635-.788-2.365,1.448-7.329,10.564-4.107Z" transform="translate(-960.406 -6448.848)" fill="#f8c471"/>
        <path id="Path_16529" data-name="Path 16529" d="M971.934,6449.26c1.654,4.088-3.334,6.085-5.049,6.351-1.886.291-3.993-2.47-3.673-3.956S971.3,6447.7,971.934,6449.26Z" transform="translate(-958.474 -6448.762)" fill="#f8c471"/>
        <path id="Path_16530" data-name="Path 16530" d="M959.428,6452.854c-2.2.328-3.429-.006-3.449-.6s1.246-.7,3.446-1.037,4.916-1.3,4.938-.7S961.627,6452.518,959.428,6452.854Z" transform="translate(-955.627 -6449.38)" fill="#f8c471"/>
        <path id="Path_16531" data-name="Path 16531" d="M959.865,6457.064c-2.133.78-4.324.508-4.461-.06s1.991-.816,4.125-1.6,3.558-1.171,3.693-.6S962,6456.283,959.865,6457.064Z" transform="translate(-955.398 -6451.044)" fill="#f8c471"/>
        <path id="Path_16532" data-name="Path 16532" d="M964.3,6459.695c-2.162.694-3.525.591-3.646.021s1.39-.758,3.55-1.451,3.684-1.148,3.806-.576S966.465,6459,964.3,6459.695Z" transform="translate(-957.474 -6452.188)" fill="#f8c471"/>
      </g>
      <g id="Group_15135" data-name="Group 15135" transform="translate(22.385 0)">
        <g id="Group_15134" data-name="Group 15134">
          <g id="Group_15133" data-name="Group 15133">
            <path id="Path_16533" data-name="Path 16533" d="M995.781,6332.285c-4.923-3.471-4.508-10.845,1.66-14.616,0,0-6.111-5.319,7.071-8.344s19.972,5.49,20.5,7.491c0,0,9.9-4.009,7.629,8.2,0,0,5.208.981,6.65,7.515,1.079,4.9-2.13,11.4-6.3,10.626,0,0,1.538,9.91-6.3,11.229a11.242,11.242,0,0,1-11.48-4.89,2.472,2.472,0,0,1-2.165,3.224,8.817,8.817,0,0,1-5.626-1.546s1.2,3.007-.269,3.208-2.3-4.2-2.3-4.2-2.315,3.122-5.216.592.328-10.165.328-10.165Z" transform="translate(-992.416 -6308.681)" fill="#c3e8e6"/>
          </g>
        </g>
      </g>
      <g id="Group_15136" data-name="Group 15136" transform="translate(23.676 28.631)">
        <path id="Path_16534" data-name="Path 16534" d="M1029.827,6356.028l-7.393,5.322-.331,16.732,6.044-2.628Z" transform="translate(-1005.442 -6356.028)" fill="#ffac00"/>
        <path id="Path_16535" data-name="Path 16535" d="M998.824,6460.493c16.568,8.554,22.394,4.582,31.644,3.588-.636-13.176-8.67-21.725-9.372-30.918-1.306-17.042,11.927-37.991-.553-44.945-13.253-7.382-25.991,31.381-25.991,31.381C1007.74,6425.958,1002.938,6439.755,998.824,6460.493Z" transform="translate(-994.551 -6368.382)" fill="#2d356b"/>
        <path id="Path_16536" data-name="Path 16536" d="M1028.3,6386.306l-2.253-.123-9.407,10.04,3.119,2.314S1026.032,6391.269,1028.3,6386.306Z" transform="translate(-1003.281 -6367.948)" fill="#fff"/>
        <path id="Path_16537" data-name="Path 16537" d="M1010.013,6399.37c-.05-.031-.1-.062-.146-.094,2.307-5.432,7.567-13.859,13.169-13.693C1018.251,6390.427,1010.013,6399.37,1010.013,6399.37Z" transform="translate(-1000.605 -6367.71)" fill="#ffac00"/>
      </g>
      <g id="Group_15137" data-name="Group 15137" transform="translate(16.662 52.391)">
        <path id="Path_16538" data-name="Path 16538" d="M986.777,6452.563c-.363,6.635,29.559,8.692,30.828,8.016,0,0,1.954-4.665.345-5.189C1013.785,6454.035,986.94,6449.6,986.777,6452.563Z" transform="translate(-984.463 -6417.552)" fill="#7b88ac"/>
        <path id="Path_16539" data-name="Path 16539" d="M1035.973,6395.423c8.085-2.549.258,42.251-2.12,43.043,0,0-4.306-1.52-5.059-3.545C1026.523,6428.8,1032.362,6396.56,1035.973,6395.423Z" transform="translate(-1000.872 -6395.318)" fill="#7b88ac"/>
        <path id="Path_16540" data-name="Path 16540" d="M982.952,6450.922l.753-1.781,7.546-1.552s-.6,3.389-1.206,3.986S982.952,6450.922,982.952,6450.922Z" transform="translate(-982.952 -6415.981)" fill="#fff"/>
        <path id="Path_16541" data-name="Path 16541" d="M982.954,6452.868l.094,1.979,6.529,4.522s.59-3.423.229-4.23S982.954,6452.868,982.954,6452.868Z" transform="translate(-982.953 -6418.067)" fill="#fff"/>
      </g>
      <g id="Group_15141" data-name="Group 15141" transform="translate(27.478 7.282)">
        <g id="Group_15140" data-name="Group 15140">
          <g id="Group_15139" data-name="Group 15139">
            <g id="Group_15138" data-name="Group 15138" transform="translate(0 1.509)">
              <path id="Path_16542" data-name="Path 16542" d="M1012.184,6358.474c-1.345.492-6.3-5.58-8.963-10.647-.88-1.672.937-2.572-1.376-8.525-1.357-3.5-1.515-8.964,3.1-14.616,4.358-5.337,8.768,5.437,10.168,7.787,3.989,6.692,7.477,10.535,6.906,14.688C1020.906,6355.272,1013.511,6357.594,1012.184,6358.474Z" transform="translate(-1000.907 -6323.219)" fill="#f8c471"/>
              <path id="Path_16543" data-name="Path 16543" d="M1013.88,6365.763a.329.329,0,0,0-.4-.234.348.348,0,0,0-.139.456.331.331,0,0,0,.4.233A.346.346,0,0,0,1013.88,6365.763Z" transform="translate(-1005.768 -6339.937)" fill="#ffab00"/>
              <path id="Path_16544" data-name="Path 16544" d="M1008.547,6349.99c-.379-.934-1.2-1.471-1.84-1.2s-.85,1.248-.471,2.181,1.2,1.471,1.839,1.2S1008.925,6350.925,1008.547,6349.99Z" transform="translate(-1002.898 -6333.299)" fill="#2d356b"/>
              <path id="Path_16545" data-name="Path 16545" d="M1009.007,6349.683c-1.389-.976-3.165-1.806-5.323-.034A9.628,9.628,0,0,1,1009.007,6349.683Z" transform="translate(-1001.963 -6333.256)" fill="#2d356b"/>
              <path id="Path_16546" data-name="Path 16546" d="M1012.813,6373.254c-.12-.205-.511.818-.821.963-.877.409-.2,1.469.645.97C1012.966,6374.991,1012.94,6373.47,1012.813,6373.254Z" transform="translate(-1005.085 -6342.988)" fill="#f36973"/>
              <path id="Path_16547" data-name="Path 16547" d="M1010.761,6366.836c.524-.469-4.053-.146-2.79.983C1008.346,6367.994,1010.492,6367.075,1010.761,6366.836Z" transform="translate(-1003.57 -6340.378)" fill="#f36973"/>
              <path id="Path_16548" data-name="Path 16548" d="M1000.838,6342.087a5.872,5.872,0,0,1,7.915,1.035C1006.065,6341.325,1004.341,6340.917,1000.838,6342.087Z" transform="translate(-1000.838 -6330.248)" fill="#2d356b"/>
              <path id="Path_16549" data-name="Path 16549" d="M1003.02,6360.625l2.314-.125-1.87-5.344-1.718,4.92Z" transform="translate(-1001.197 -6335.844)" fill="#f8c471"/>
              <path id="Path_16550" data-name="Path 16550" d="M1006.051,6366.338l-2.823-2.7,1.542-.627Z" transform="translate(-1001.783 -6338.949)" fill="#f8c471"/>
              <path id="Path_16551" data-name="Path 16551" d="M1010.331,6371.76a41.8,41.8,0,0,1-2.716-4.24l3.76-1.375S1012.085,6370.4,1010.331,6371.76Z" transform="translate(-1003.517 -6340.188)" fill="#ffab00"/>
              <path id="Path_16552" data-name="Path 16552" d="M1011.236,6368.891l-2.141.784c-.336-.534-.672-1.1-1.008-1.689l3.073-1.125Z" transform="translate(-1003.704 -6340.47)" fill="#fff"/>
              <path id="Path_16553" data-name="Path 16553" d="M1033.224,6346.737c-.685-1.608-1.682-2.614-.461-3.131s2.771.367,3.457,1.979.246,3.334-.977,3.854S1033.908,6348.349,1033.224,6346.737Z" transform="translate(-1013.23 -6331.219)" fill="#ffac00"/>
            </g>
            <path id="Path_16554" data-name="Path 16554" d="M1002.567,6320.815c2.282,3.6,8.512,12.521,14.715,12.534,0,0,.346-9.828-5.939-11.285C1003.409,6320.222,1002.567,6320.815,1002.567,6320.815Z" transform="translate(-1001.521 -6320.724)" fill="#c3e8e6"/>
          </g>
        </g>
      </g>
    </g>
    <g id="Group_15154" data-name="Group 15154" transform="translate(609.117 6251.78)">
      <g id="Group_15153" data-name="Group 15153" transform="translate(0 0)">
        <g id="Group_15151" data-name="Group 15151" transform="translate(0 40.693)">
          <rect id="Rectangle_1402" data-name="Rectangle 1402" width="196.28" height="5.891" fill="#40558d"/>
          <rect id="Rectangle_1403" data-name="Rectangle 1403" width="182.338" height="105.87" transform="translate(7.232 2.272)" fill="#40558d"/>
          <rect id="Rectangle_1404" data-name="Rectangle 1404" width="56.58" height="105.87" transform="translate(132.99 2.272)" fill="#7b87ab"/>
          <rect id="Rectangle_1405" data-name="Rectangle 1405" width="196.28" height="7.668" transform="translate(0 2.272)" fill="#2d356b"/>
        </g>
        <g id="Group_15152" data-name="Group 15152" transform="translate(50.284)">
          <path id="Path_16562" data-name="Path 16562" d="M936.014,6436.972H890.49a2.815,2.815,0,0,1-2.766-2.29l-6.135-32.3a2.815,2.815,0,0,1,2.765-3.341h45.524a2.815,2.815,0,0,1,2.765,2.29l6.136,32.3A2.815,2.815,0,0,1,936.014,6436.972Z" transform="translate(-881.539 -6399.042)" fill="#cfd0d8"/>
          <path id="Path_16563" data-name="Path 16563" d="M964.55,6401.679a1.526,1.526,0,1,0-2.246,1.051l6.136,32.3a1.525,1.525,0,1,0,2.246-1.05Z" transform="translate(-913.445 -6399.39)" fill="#ebebeb"/>
          <path id="Path_16564" data-name="Path 16564" d="M969.523,6464.971H899.546a3.2,3.2,0,0,1-3.2-3.2h76.384A3.2,3.2,0,0,1,969.523,6464.971Z" transform="translate(-887.39 -6423.837)" fill="#9898a4"/>
          <path id="Path_16565" data-name="Path 16565" d="M1003.4,6461.767H973.945a3.441,3.441,0,0,0,3.636,3.2h22.185A3.44,3.44,0,0,0,1003.4,6461.767Z" transform="translate(-918.067 -6423.837)" fill="#cfd0d8"/>
          <circle id="Ellipse_125" data-name="Ellipse 125" cx="3.231" cy="3.231" r="3.231" transform="translate(23.41 17.216) rotate(-22.5)" fill="#fff4ba"/>
        </g>
      </g>
    </g>
    <g id="Group_15155" data-name="Group 15155" transform="translate(780.064 6211.039)">
      <rect id="Rectangle_1406" data-name="Rectangle 1406" width="60.814" height="30.995" rx="6.672" transform="translate(-42 45)" fill="#fff" stroke="#231f20" stroke-miterlimit="10" stroke-width="0.25"/>
      <text id="Brenda" transform="translate(-28.092 63.998)" fill="#2d356b" font-size="10" font-family="TrebuchetMS-Bold, Trebuchet MS" font-weight="700"><tspan x="0" y="0">Brenda</tspan></text>
    </g>
    <g id="Group_15166" data-name="Group 15166" transform="translate(335.97 6028.566)">
      <g id="Group_15165" data-name="Group 15165" transform="translate(0 0)">
        <path id="Path_16573" data-name="Path 16573" d="M725.1,6143.895c13.255,16.8-.81,33.969-34.15,39.728-35.416,6.115-79.463-2.912-99.744-20.214-18.476,8.5-45.866,14.613-76.643,16.083-56.734,2.707-103.48-11.4-104.408-31.507-.185-4,1.461-7.93,4.652-11.688-48.4,6.042-75.394-3.2-84.662-26.184-6.839-16.963,21.466-45.431,90.707-48.734,8.829-.421,17.453-.6,25.786-.551-.12-.559-2.215-3.777,1.963-9.125,18.162-23.249,73.03-25.158,129.293-18.332,47.375,5.748,69.527,21.863,79.03,36.1,0,0,139.02-21.961,157.2,33.692C814.121,6103.163,835.837,6152.412,725.1,6143.895Z" transform="translate(-329.149 -6029.914)" fill="#fff" stroke="#ebebeb" stroke-miterlimit="10" stroke-width="1"/>
        <circle id="Ellipse_126" data-name="Ellipse 126" cx="10.917" cy="10.917" r="10.917" transform="translate(39.543 100.129)" fill="#fff" stroke="#ebebeb" stroke-miterlimit="10" stroke-width="1"/>
        <circle id="Ellipse_127" data-name="Ellipse 127" cx="6.469" cy="6.469" r="6.469" transform="translate(48.069 119.33)" fill="#fff" stroke="#ebebeb" stroke-miterlimit="10" stroke-width="1"/>
        <circle id="Ellipse_128" data-name="Ellipse 128" cx="5.533" cy="5.533" r="5.533" transform="translate(59.252 132.522)" fill="#fff" stroke="#ebebeb" stroke-miterlimit="10" stroke-width="1"/>
      </g>
    </g>
    <g id="Group_15182" data-name="Group 15182" transform="translate(377.309 6159.268)">
      <g id="Group_15181" data-name="Group 15181" transform="translate(0 0)">
        <g id="Group_15167" data-name="Group 15167" transform="translate(7.244 103.998)">
          <path id="Path_16574" data-name="Path 16574" d="M476.781,6426.061l10.016,1.883c8.808,31.463,6.644,68.972,26.328,133.21,0,0-1.88.819-2.151,0-16.376-49.671-25.332-88.617-28.51-93.969C475.4,6455.3,466.573,6445.188,476.781,6426.061Z" transform="translate(-444.86 -6421.208)" fill="#ffd8a3"/>
          <path id="Path_16575" data-name="Path 16575" d="M457.211,6422.859c-12.327,22.99-3.1,21.208-2.7,33.1,1.156,34.288-20.706,51.729-27.492,104.176,0,0,2.687-.138,2.763-.895,4.216-41.842,41.292-81.875,42.817-120.722.1-2.5.209-9.987-2.713-12.666C465.424,6421.757,457.21,6422.859,457.211,6422.859Z" transform="translate(-427.023 -6419.889)" fill="#f7c371"/>
          <path id="Path_16576" data-name="Path 16576" d="M435.192,6648.672h-8.056s-.389-2.287,1.408-2.653C429.675,6645.788,431.676,6646.321,435.192,6648.672Z" transform="translate(-427.053 -6508.136)" fill="#7b88ac"/>
          <path id="Path_16577" data-name="Path 16577" d="M543.431,6649H536.35s-.342-2.286,1.238-2.652C538.581,6646.117,540.341,6646.647,543.431,6649Z" transform="translate(-470.227 -6508.267)" fill="#7b88ac"/>
          <path id="Path_16578" data-name="Path 16578" d="M451.775,6499.186s33.816,5.438,41.566,3.263c0,0-7.4-76.844-12.681-81.557s-14.795-2.174-14.795-2.174a29.9,29.9,0,0,0-4.931,31.9C467.979,6467.288,451.775,6499.186,451.775,6499.186Z" transform="translate(-436.807 -6418.035)" fill="#ffe200"/>
        </g>
        <g id="Group_15180" data-name="Group 15180">
          <g id="Group_15170" data-name="Group 15170" transform="translate(25.584 48.251)">
            <g id="Group_15168" data-name="Group 15168" transform="translate(31.234 20.747)">
              <path id="Path_16579" data-name="Path 16579" d="M510.023,6373.828c2.11-1.411,8.346-.969,7.88-3.134-.415-1.939-3.954-4.438-8.9,1.452Z" transform="translate(-509.003 -6363.443)" fill="#f8c471"/>
              <path id="Path_16580" data-name="Path 16580" d="M514.108,6369.079c.518,3.47,4.744,2.823,6.027,2.313,1.411-.563,1.739-3.307.92-4.2S513.912,6367.751,514.108,6369.079Z" transform="translate(-511.019 -6362.83)" fill="#f8c471"/>
              <path id="Path_16581" data-name="Path 16581" d="M518.492,6364.675c1.139-1.727,1.61-4.248.857-4.5-.848-.281-.845,1.963-2.244,3.264-1.512,1.412-2.388,2.379-1.876,2.991S517.354,6366.406,518.492,6364.675Z" transform="translate(-511.406 -6360.156)" fill="#f8c471"/>
              <path id="Path_16582" data-name="Path 16582" d="M524.209,6366.118c1.643-.664,2.348-1.389,2.122-1.8s-1.139.021-2.781.682-3.894,1.1-3.668,1.514S522.566,6366.777,524.209,6366.118Z" transform="translate(-513.297 -6361.734)" fill="#f8c471"/>
              <path id="Path_16583" data-name="Path 16583" d="M525.886,6369.438c1.778-.328,3.17-1.4,3.034-1.844s-1.7.245-3.473.573-2.912.634-2.776,1.079S524.109,6369.764,525.886,6369.438Z" transform="translate(-514.402 -6363.039)" fill="#f8c471"/>
              <path id="Path_16584" data-name="Path 16584" d="M524.111,6372.932c1.762-.4,2.655-1.019,2.508-1.459s-1.259.042-3.02.44-2.99.7-2.842,1.143S522.348,6373.33,524.111,6372.932Z" transform="translate(-513.644 -6364.56)" fill="#f8c471"/>
            </g>
            <g id="Group_15169" data-name="Group 15169">
              <path id="Path_16585" data-name="Path 16585" d="M477.873,6326.077c-5.679-3.476-20.518,33.524-20.521,34.941,0,0,2.919,2.281,4.141,1.14C464.654,6359.208,480.409,6327.629,477.873,6326.077Z" transform="translate(-457.352 -6325.847)" fill="#fff4ba"/>
              <path id="Path_16586" data-name="Path 16586" d="M488.98,6373.984c1.38,5.045-27.5,7.42-28.574,7.107,0,0-2.254-3.273-1.126-3.938C462.2,6375.437,488.363,6371.73,488.98,6373.984Z" transform="translate(-457.989 -6344.596)" fill="#fff4ba"/>
              <path id="Path_16587" data-name="Path 16587" d="M506.789,6373.466l-.832-1.366-6.053-.591s.942,2.667,1.494,3.1S506.789,6373.466,506.789,6373.466Z" transform="translate(-474.173 -6343.897)" fill="#eaeaea"/>
              <path id="Path_16588" data-name="Path 16588" d="M507.989,6374.556l.206,1.6-4.407,4.2s-.942-2.7-.774-3.375S507.989,6374.556,507.989,6374.556Z" transform="translate(-475.394 -6345.101)" fill="#eaeaea"/>
            </g>
          </g>
          <g id="Group_15176" data-name="Group 15176">
            <g id="Group_15175" data-name="Group 15175">
              <g id="Group_15171" data-name="Group 15171" transform="translate(0 1.113)">
                <path id="Path_16589" data-name="Path 16589" d="M461.578,6311.26c6.834-5.05-2.56-7.628-1.448-12.686s2.016-3.294,3.709-9.787.26-9.183.648-13.045,3.8-9.819,2.258-14.976-3.1-3.691-4.506-7.819-3.794-.15-7.227,1.135-5.847-8.459-11.937-5.688-6.526,9.987-8.751,13.765-8.023,4.644-9.86,11.692,2.367,5.967-.1,10.672-7.347,3.632-9.185,10.681c0,0-1.644,7.1,6.427,7.815s4.979,4.666,14.064,3.073,5.123,5.693,11.647,3.63S455.473,6315.77,461.578,6311.26Z" transform="translate(-415.044 -6247.895)" fill="#2d356b"/>
              </g>
              <g id="Group_15172" data-name="Group 15172" transform="translate(28.222 24.553)">
                <path id="Path_16590" data-name="Path 16590" d="M470.483,6286.657l7.464,4.688,1.34,16.141-6-2.169Z" transform="translate(-465.181 -6286.657)" fill="#f7c371"/>
                <path id="Path_16591" data-name="Path 16591" d="M490,6393.124c-4.8-3.142-15.932-10.088-28.281-1.488,3.694-10.846,7.048-21.51,7.167-30.431.221-16.54-13.835-35.965-2.2-43.442,12.349-7.939,27.013,28.722,27.013,28.722C481.341,6353.431,484.758,6373.345,490,6393.124Z" transform="translate(-461.715 -6298.508)" fill="#ffe200"/>
                <path id="Path_16592" data-name="Path 16592" d="M471.328,6315.872l2.169-.255,9.7,9.122-2.87,2.424S473.816,6320.528,471.328,6315.872Z" transform="translate(-465.515 -6298.105)" fill="#fff"/>
                <path id="Path_16593" data-name="Path 16593" d="M488.825,6327.512c.047-.032.089-.066.136-.1-2.559-5.106-8.152-12.924-13.552-12.422C480.324,6319.376,488.825,6327.512,488.825,6327.512Z" transform="translate(-467.128 -6297.849)" fill="#f7c371"/>
              </g>
              <g id="Group_15174" data-name="Group 15174" transform="translate(23.083)">
                <g id="Group_15173" data-name="Group 15173">
                  <path id="Path_16594" data-name="Path 16594" d="M469.554,6280.69c-3.754-1.714-11.462-4.254-14.312-10.8-3.706-8.516-1.675-13.083.917-18.62,4.941-10.555,22.976-2.317,21.268.751C475.159,6256.094,483.161,6286.905,469.554,6280.69Z" transform="translate(-453.216 -6246.055)" fill="#2d356b"/>
                  <path id="Path_16595" data-name="Path 16595" d="M482.393,6289.069c1.433.232,5.194-6.755,6.878-12.309.555-1.831-1.425-2.377-.264-8.743.682-3.737-.209-9.207-5.884-13.947-5.357-4.475-7.682,7.088-8.624,9.694-2.687,7.421-5.42,11.913-4.057,15.935C473.1,6287.555,480.905,6288.45,482.393,6289.069Z" transform="translate(-459.882 -6248.82)" fill="#ffd8a3"/>
                  <path id="Path_16596" data-name="Path 16596" d="M492.658,6295.9a.335.335,0,0,1,.356-.31.352.352,0,0,1,.225.426.335.335,0,0,1-.358.31A.35.35,0,0,1,492.658,6295.9Z" transform="translate(-468.805 -6265.632)" fill="#ffab00"/>
                  <path id="Path_16597" data-name="Path 16597" d="M493.832,6279.522c-.084-1.018.417-1.879,1.116-1.925s1.338.741,1.421,1.757-.417,1.879-1.116,1.925S493.915,6280.539,493.832,6279.522Z" transform="translate(-469.268 -6258.522)" fill="#2d356b"/>
                  <path id="Path_16598" data-name="Path 16598" d="M491.551,6279.742c.811-1.517,2.04-3.078,4.8-2.459A9.755,9.755,0,0,0,491.551,6279.742Z" transform="translate(-468.37 -6258.344)" fill="#2d356b"/>
                  <path id="Path_16599" data-name="Path 16599" d="M494.692,6303.262c.08-.227.665.717,1,.8.951.238.477,1.423-.456,1.087C494.872,6305.02,494.607,6303.5,494.692,6303.262Z" transform="translate(-469.605 -6268.654)" fill="#f36973"/>
                  <path id="Path_16600" data-name="Path 16600" d="M494.344,6296.568c-.611-.365,4-.921,2.963.444C496.968,6297.259,494.658,6296.756,494.344,6296.568Z" transform="translate(-469.452 -6265.853)" fill="#f36973"/>
                  <path id="Path_16601" data-name="Path 16601" d="M496.563,6270.186a5.948,5.948,0,0,0-7.676,2.547C491.217,6270.43,492.854,6269.693,496.563,6270.186Z" transform="translate(-467.317 -6255.39)" fill="#2d356b"/>
                  <path id="Path_16602" data-name="Path 16602" d="M501.159,6288.89l-2.326.32.837-5.675,2.651,4.566Z" transform="translate(-471.248 -6260.87)" fill="#ffd8a3"/>
                  <path id="Path_16603" data-name="Path 16603" d="M499.483,6295.132l2.291-3.227-1.654-.329Z" transform="translate(-471.506 -6264.049)" fill="#ffd8a3"/>
                  <path id="Path_16604" data-name="Path 16604" d="M495.238,6301.623a42.321,42.321,0,0,0,1.89-4.738l-4-.648S493.233,6300.6,495.238,6301.623Z" transform="translate(-468.992 -6265.891)" fill="#ffab00"/>
                  <path id="Path_16605" data-name="Path 16605" d="M494.234,6298.855l2.28.37c.232-.6.458-1.223.679-1.874l-3.273-.531Z" transform="translate(-469.307 -6266.122)" fill="#fff"/>
                  <path id="Path_16606" data-name="Path 16606" d="M467.7,6280.786c.373-1.732,1.173-2.924-.141-3.2s-2.687.9-3.06,2.63.394,3.366,1.71,3.647S467.328,6282.52,467.7,6280.786Z" transform="translate(-457.639 -6258.501)" fill="#f7c371"/>
                </g>
                <path id="Path_16607" data-name="Path 16607" d="M486.4,6254.921c-5.234,5.673-14.107,13.77-13.8,23.111-2.166-10.243,1.58-22.832,8.832-27.09C481.947,6252.019,487.72,6252.654,486.4,6254.921Z" transform="translate(-460.637 -6247.986)" fill="#2d356b"/>
              </g>
            </g>
          </g>
          <g id="Group_15179" data-name="Group 15179" transform="translate(20.928 47.838)">
            <g id="Group_15177" data-name="Group 15177" transform="translate(33.515 17.725)">
              <path id="Path_16608" data-name="Path 16608" d="M506.72,6372.183c1.961-2.21,9.115-3.546,7.954-5.848-1.039-2.062-5.759-3.836-9.6,4.252Z" transform="translate(-505.076 -6358.476)" fill="#ffd9a4"/>
              <path id="Path_16609" data-name="Path 16609" d="M509.609,6365.64c1.6,3.755,6.173,1.785,7.469.831,1.423-1.048.986-4.234-.2-5S509,6364.2,509.609,6365.64Z" transform="translate(-506.852 -6357.2)" fill="#ffd9a4"/>
              <path id="Path_16610" data-name="Path 16610" d="M513.972,6359.793c.774-2.28.563-5.259-.357-5.316-1.038-.068-.374,2.458-1.567,4.336-1.288,2.035-1.99,3.382-1.233,3.92S513.2,6362.077,513.972,6359.793Z" transform="translate(-507.221 -6354.476)" fill="#ffd9a4"/>
              <path id="Path_16611" data-name="Path 16611" d="M520.163,6359.344c1.654-1.231,2.236-2.254,1.859-2.656s-1.276.359-2.931,1.587-4.064,2.381-3.686,2.783S518.506,6360.571,520.163,6359.344Z" transform="translate(-509.143 -6355.307)" fill="#ffd9a4"/>
              <path id="Path_16612" data-name="Path 16612" d="M522.914,6362.623c1.906-.892,3.158-2.508,2.875-2.969s-1.837.774-3.742,1.666-3.094,1.571-2.808,2.032S521.009,6363.514,522.914,6362.623Z" transform="translate(-510.658 -6356.484)" fill="#ffd9a4"/>
              <path id="Path_16613" data-name="Path 16613" d="M521.936,6367.163c1.867-.967,2.691-1.93,2.395-2.382s-1.405.418-3.271,1.385-3.161,1.67-2.865,2.123S520.068,6368.13,521.936,6367.163Z" transform="translate(-510.245 -6358.501)" fill="#ffd9a4"/>
            </g>
            <g id="Group_15178" data-name="Group 15178">
              <path id="Path_16614" data-name="Path 16614" d="M462.508,6325.243c-7.419-2.244-13.248,43.792-12.835,45.389,0,0,3.958,1.71,5,.066C457.365,6366.445,465.82,6326.246,462.508,6325.243Z" transform="translate(-449.653 -6325.164)" fill="#fff4ba"/>
              <path id="Path_16615" data-name="Path 16615" d="M483.2,6374.309c3.039,5.276-28.794,16.445-30.091,16.408,0,0-3.5-3.023-2.427-4.1C453.469,6383.821,481.846,6371.951,483.2,6374.309Z" transform="translate(-449.98 -6344.47)" fill="#fff4ba"/>
              <path id="Path_16616" data-name="Path 16616" d="M502.265,6373.21l-1.339-1.294-6.99,1.115s1.844,2.727,2.592,3.046S502.265,6373.21,502.265,6373.21Z" transform="translate(-467.158 -6343.646)" fill="#eaeaea"/>
              <path id="Path_16617" data-name="Path 16617" d="M504.416,6373.854l.7,1.736-3.729,6.024s-1.853-2.76-1.864-3.573S504.416,6373.854,504.416,6373.854Z" transform="translate(-469.367 -6344.412)" fill="#eaeaea"/>
            </g>
          </g>
        </g>
      </g>
    </g>
    <g id="Group_15164" data-name="Group 15164" transform="translate(389.125 6253.328)">
      <rect id="Rectangle_1407" data-name="Rectangle 1407" width="56.814" height="28.995" rx="6.672" transform="translate(0 0)" fill="#fff" stroke="#231f20" stroke-miterlimit="10" stroke-width="0.25"/>
      <text id="Akiko" transform="translate(15.407 17.997)" fill="#2d356b" font-size="10" font-family="TrebuchetMS-Bold, Trebuchet MS" font-weight="700"><tspan x="0" y="0">Akiko</tspan></text>
    </g>
  </g>
</svg>
