<svg xmlns="http://www.w3.org/2000/svg" width="476.031" height="210.153" viewBox="0 0 476.031 210.153">
  <g id="Group_14745" data-name="Group 14745" transform="translate(-40.667 -7376.938)">
    <g id="Group_14711" data-name="Group 14711" transform="translate(194.859 7376.938)">
      <g id="Group_14709" data-name="Group 14709">
        <g id="Group_14702" data-name="Group 14702" transform="translate(25.757 9.088)">
          <g id="Group_14701" data-name="Group 14701">
            <path id="Path_21206" data-name="Path 21206" d="M1003.451,5208.479l-79.106-68.766a101.961,101.961,0,0,1,36.473-26.989Z" transform="translate(-924.345 -5112.725)" fill="#c3e8e6"/>
          </g>
        </g>
        <g id="Group_14704" data-name="Group 14704" transform="translate(0.445 36.077)">
          <g id="Group_14703" data-name="Group 14703">
            <path id="Path_21207" data-name="Path 21207" d="M918.435,5299.128l-104.418-9.135c2.018-23.068,10.121-42.155,25.312-59.631Z" transform="translate(-814.017 -5230.362)" fill="#ffb2b0"/>
          </g>
        </g>
        <g id="Group_14706" data-name="Group 14706" transform="translate(0 95.707)">
          <g id="Group_14705" data-name="Group 14705">
            <path id="Path_21208" data-name="Path 21208" d="M916.939,5499.413l-68.766,79.1c-26.214-22.786-38.679-53.64-35.652-88.241Z" transform="translate(-812.076 -5490.277)" fill="#ffd9a4"/>
          </g>
        </g>
        <g id="Group_14708" data-name="Group 14708" transform="translate(36.097)">
          <g id="Group_14707" data-name="Group 14707">
            <path id="Path_21209" data-name="Path 21209" d="M1038.182,5177.954,995.549,5082.2a104.817,104.817,0,0,1,85.265,191.51c-38.5,17.141-79.593,11-111.4-16.649Z" transform="translate(-969.416 -5073.111)" fill="#2d356b"/>
          </g>
        </g>
      </g>
    </g>
    <g id="Group_14712" data-name="Group 14712" transform="translate(312.77 7438.354)">
      <line id="Line_18" data-name="Line 18" x2="202.582" transform="translate(1.346 1.346)" fill="#9999a5" stroke="#9999a5" stroke-miterlimit="10" stroke-width="2"/>
      <circle id="Ellipse_87" data-name="Ellipse 87" cx="1.346" cy="1.346" r="1.346" transform="translate(0 0)" fill="#9999a5" stroke="#9999a5" stroke-miterlimit="10" stroke-width="2"/>
    </g>
    <g id="Group_14713" data-name="Group 14713" transform="translate(428.616 7417.488)">
      <text id="Advertising" transform="translate(0 13)" fill="#2d356b" font-size="14" font-family="TrebuchetMS-Bold, Trebuchet MS" font-weight="700"><tspan x="0" y="0">Advertising</tspan></text>
    </g>
    <text id="_68.0_" data-name="68.0%" transform="translate(448.6 7458.358)" fill="#9999a5" font-size="20" font-family="TrebuchetMS-Bold, Trebuchet MS" font-weight="700"><tspan x="0" y="0">68.0%</tspan></text>
    <g id="Group_14724" data-name="Group 14724" transform="translate(40.667 7534.694)">
      <line id="Line_24" data-name="Line 24" x1="192.848" transform="translate(0 1.346)" fill="#9999a5" stroke="#9999a5" stroke-miterlimit="10" stroke-width="2"/>
      <circle id="Ellipse_93" data-name="Ellipse 93" cx="1.346" cy="1.346" r="1.346" transform="translate(191.503)" fill="#9999a5" stroke="#9999a5" stroke-miterlimit="10" stroke-width="2"/>
    </g>
    <g id="Group_14725" data-name="Group 14725" transform="translate(40.667 7513.829)">
      <text id="Content_marketing" data-name="Content marketing" transform="translate(0 13)" fill="#2d356b" font-size="14" font-family="TrebuchetMS-Bold, Trebuchet MS" font-weight="700"><tspan x="0" y="0">Content marketing</tspan></text>
    </g>
    <text id="_15.0_" data-name="15.0%" transform="translate(40.667 7554.549)" fill="#9999a5" font-size="20" font-family="TrebuchetMS-Bold, Trebuchet MS" font-weight="700"><tspan x="0" y="0">15.0%</tspan></text>
    <g id="Group_14726" data-name="Group 14726" transform="translate(40.667 7461.6)">
      <line id="Line_25" data-name="Line 25" x1="192.848" transform="translate(0 1.346)" fill="#9999a5" stroke="#9999a5" stroke-miterlimit="10" stroke-width="2"/>
      <circle id="Ellipse_94" data-name="Ellipse 94" cx="1.346" cy="1.346" r="1.346" transform="translate(191.503)" fill="#9999a5" stroke="#9999a5" stroke-miterlimit="10" stroke-width="2"/>
    </g>
    <g id="Group_14727" data-name="Group 14727" transform="translate(40.667 7440.734)">
      <text id="Influencer" transform="translate(0 13)" fill="#2d356b" font-size="14" font-family="TrebuchetMS-Bold, Trebuchet MS" font-weight="700"><tspan x="0" y="0">Influencer</tspan></text>
    </g>
    <text id="_10.0_" data-name="10.0%" transform="translate(40.667 7481.454)" fill="#9999a5" font-size="20" font-family="TrebuchetMS-Bold, Trebuchet MS" font-weight="700"><tspan x="0" y="0">10.0%</tspan></text>
    <g id="Group_14728" data-name="Group 14728" transform="translate(51.628 7406.7)">
      <line id="Line_26" data-name="Line 26" x1="192.848" transform="translate(0 1.346)" fill="#9999a5" stroke="#9999a5" stroke-miterlimit="10" stroke-width="2"/>
      <circle id="Ellipse_95" data-name="Ellipse 95" cx="1.346" cy="1.346" r="1.346" transform="translate(191.503)" fill="#9999a5" stroke="#9999a5" stroke-miterlimit="10" stroke-width="2"/>
    </g>
    <g id="Group_14729" data-name="Group 14729" transform="translate(51.628 7385.835)">
      <text id="Other_expenses" data-name="Other expenses" transform="translate(0 13)" fill="#2d356b" font-size="14" font-family="TrebuchetMS-Bold, Trebuchet MS" font-weight="700"><tspan x="0" y="0">Other expenses</tspan></text>
    </g>
    <text id="_7.0_" data-name="7.0%" transform="translate(51.628 7426.555)" fill="#9999a5" font-size="20" font-family="TrebuchetMS-Bold, Trebuchet MS" font-weight="700"><tspan x="0" y="0">7.0%</tspan></text>
  </g>
</svg>
