<svg xmlns="http://www.w3.org/2000/svg" width="392.233" height="275.808" viewBox="0 0 392.233 275.808">
  <g id="Group_13459" data-name="Group 13459" transform="translate(-30.001 -4657.364)">
    <g id="Layer_1" data-name="Layer 1" transform="translate(30.001 4657.364)">
      <g id="Group_1" data-name="Group 1" transform="translate(20.034 0)">
        <rect id="Rectangle_1" data-name="Rectangle 1" width="352.166" height="155.459" fill="#c3e8e6"/>
        <rect id="Rectangle_2" data-name="Rectangle 2" width="337.063" height="141.597" transform="translate(7.555 7.074)" fill="#fff"/>
      </g>
      <g id="Group_13365" data-name="Group 13365" transform="translate(243.328 41.902)">
        <g id="Group_13364" data-name="Group 13364">
          <path id="Path_19519" data-name="Path 19519" d="M1053.932,6318.9c-1.546-1.632-11.058-1.865-13.115,0l-.053,2.1h13.115Z" transform="translate(-998.152 -6283.57)" fill="#fff"/>
          <rect id="Rectangle_4569" data-name="Rectangle 4569" width="8.743" height="5.499" transform="translate(44.479 92.699)" fill="#eaeaea"/>
          <path id="Path_19520" data-name="Path 19520" d="M1008.787,6394.526s-12.136-47.639-14.437-64.651c0,0,22.506-17.11,51.853-2.641,0,0-6.3,58.228-7.778,66.645-5.94-2.31-10.119-5.71-14.395-12.488C1018.252,6389.394,1013.786,6393.9,1008.787,6394.526Z" transform="translate(-974.028 -6285.563)" fill="#029390"/>
          <path id="Path_19521" data-name="Path 19521" d="M1034.4,6362.717s-24.35-16.833-14.616-39.083c0,0,14.216-6.259,28.814-.092C1052.625,6342.653,1043.611,6354.961,1034.4,6362.717Z" transform="translate(-986.055 -6285.252)" fill="#54ccca"/>
          <path id="Path_19522" data-name="Path 19522" d="M1042.51,6364.9s-14.022-17-7.853-39.475c0,0,11.227-.84,17.6-.094C1054.521,6344.63,1048.212,6357.063,1042.51,6364.9Z" transform="translate(-994.162 -6287.432)" fill="#eaeaea"/>
          <path id="Path_19523" data-name="Path 19523" d="M1052.631,6310.291h-10.042l-1.5,9.2c5.466,2.849,8.66,2.54,12.918-.622Z" transform="translate(-998.319 -6279.777)" fill="#f7c371"/>
          <path id="Path_19524" data-name="Path 19524" d="M1048.5,6334.047l2.444,1.632,2.849-1.865-1.632-2.378-1.9-.047Z" transform="translate(-1002.17 -6290.742)" fill="#02928f"/>
          <path id="Path_19525" data-name="Path 19525" d="M1034.692,6322.843l3.057-2.488c.9,2.572,2.488,4.057,6.271,5.159,0,0-3.039,4.613-4.434,4.492S1034.692,6322.843,1034.692,6322.843Z" transform="translate(-994.996 -6285.008)" fill="#fff"/>
          <path id="Path_19526" data-name="Path 19526" d="M1063.9,6322.793l-3.119-2.473c-1.172,2.518-2.839,4.037-6.922,5.217,0,0,2.943,4.621,4.424,4.492S1063.9,6322.793,1063.9,6322.793Z" transform="translate(-1004.959 -6284.99)" fill="#fff"/>
          <path id="Path_19527" data-name="Path 19527" d="M1051.151,6338.8l-.992.185-2.243,29.995,2.249,3.08,2.334-3.08Z" transform="translate(-1001.869 -6294.594)" fill="#02928f"/>
          <path id="Path_19528" data-name="Path 19528" d="M1055.015,6432.936a1.163,1.163,0,1,0-1.164,1.164A1.163,1.163,0,0,0,1055.015,6432.936Z" transform="translate(-1004.349 -6342.917)" fill="#54ccca"/>
          <path id="Path_19529" data-name="Path 19529" d="M1055.015,6417.323a1.163,1.163,0,1,0-1.164,1.163A1.164,1.164,0,0,0,1055.015,6417.323Z" transform="translate(-1004.349 -6334.802)" fill="#54ccca"/>
          <g id="Group_13361" data-name="Group 13361" transform="translate(36.649)">
            <g id="Group_13360" data-name="Group 13360">
              <path id="Path_19530" data-name="Path 19530" d="M1031.52,6273.713c-.86-3.267-1.838-15.57.2-18.357,0,0-6.18-1.6-1.8-5.774,5.553-5.3,16.112-2.428,16.973,2.668,0,0,8.134-2.627,2.542,20.983Z" transform="translate(-1028.348 -6246.755)" fill="#ffac00"/>
              <path id="Path_19531" data-name="Path 19531" d="M1070.279,6291.409c.183-1.829,1.045-2.819,1.9-2.819s1.377.99,1.193,2.819a2.8,2.8,0,0,1-2.446,2.679C1070.07,6294.087,1070.095,6293.238,1070.279,6291.409Z" transform="translate(-1050.087 -6268.498)" fill="#f7c371"/>
              <path id="Path_19532" data-name="Path 19532" d="M1034.075,6291.627c-.129-1.83-1-2.819-1.891-2.819s-1.477.989-1.348,2.819a2.738,2.738,0,0,0,2.47,2.678C1034.2,6294.305,1034.2,6293.457,1034.075,6291.627Z" transform="translate(-1029.632 -6268.612)" fill="#f7c371"/>
              <path id="Path_19533" data-name="Path 19533" d="M1044.6,6280.076a12.08,12.08,0,0,1-10.713-6.457c.083,5.906.224,13.944.224,13.944s14.3.733,18.658-.471c.11-3.3.3-7.192.191-10.358A12.078,12.078,0,0,1,1044.6,6280.076Z" transform="translate(-1031.226 -6260.717)" fill="#ffac00"/>
              <path id="Path_19534" data-name="Path 19534" d="M1034.964,6288.693c.128.874,4.2,4.646,8.836,4.646a12.28,12.28,0,0,0,9.284-4.833c.805-1.394-2.443-19.144-4.335-20.631s-9.522-.5-10.17.279C1037.042,6270.014,1034.46,6285.254,1034.964,6288.693Z" transform="translate(-1031.753 -6257.331)" fill="#ffd8a3"/>
              <path id="Path_19535" data-name="Path 19535" d="M1038.134,6277.511c.7.272,3.451-5.484,4.026-6.447s.479-1.963-.219-2.235-1.729.289-2.306,1.251S1037.437,6277.24,1038.134,6277.511Z" transform="translate(-1033.345 -6258.192)" fill="#ffd8a3"/>
              <path id="Path_19536" data-name="Path 19536" d="M1064.318,6276.814c.733-.2-1.2-6.041-1.629-7.054s-1.365-1.671-2.1-1.471-.982,1.184-.557,2.2S1063.586,6277.015,1064.318,6276.814Z" transform="translate(-1044.709 -6257.929)" fill="#ffd8a3"/>
              <path id="Path_19537" data-name="Path 19537" d="M1043.745,6282.333a.677.677,0,0,0-.333-.473c-.48-.277-4.047,1.021-3.929,1.574l.074.347c.085.4,1.125-.169,2.209-.421,1.037-.24,2.123-.148,2.061-.526Z" transform="translate(-1034.134 -6264.98)" fill="#2d356b"/>
              <path id="Path_19538" data-name="Path 19538" d="M1057.156,6282.675a.655.655,0,0,1,.281-.506c.456-.328,4.278.577,4.227,1.14l-.032.353c-.037.4-1.174-.047-2.317-.18-1.094-.127-2.2.082-2.18-.3Z" transform="translate(-1043.31 -6265.125)" fill="#2d356b"/>
              <path id="Path_19539" data-name="Path 19539" d="M1050.731,6293.319a3.341,3.341,0,0,0,1.49.759,2,2,0,0,0,1.49-.837c.067-.505-1.021-6.126-1.407-6.179S1050.7,6292.586,1050.731,6293.319Z" transform="translate(-1039.981 -6267.704)" fill="#ffab00"/>
              <path id="Path_19540" data-name="Path 19540" d="M1052.119,6292.978c0,.128.618.331.835.331.371,0,.819-.188.835-.417.037-.553.333-6.832-.789-6.772C1051.773,6286.184,1052.1,6292.174,1052.119,6292.978Z" transform="translate(-1040.676 -6267.214)" fill="#ffd8a3"/>
              <path id="Path_19541" data-name="Path 19541" d="M1045.282,6288.678c0-.481-.282-.872-.622-.872s-.613.391-.61.872.281.873.622.873S1045.285,6289.16,1045.282,6288.678Z" transform="translate(-1036.509 -6268.09)" fill="#2d356b"/>
              <path id="Path_19542" data-name="Path 19542" d="M1061.6,6288.678c0-.481-.282-.872-.622-.872s-.614.391-.61.872.282.873.622.873S1061.607,6289.16,1061.6,6288.678Z" transform="translate(-1044.992 -6268.09)" fill="#2d356b"/>
              <g id="Group_13359" data-name="Group 13359" transform="translate(8.41 27.259)">
                <path id="Path_19543" data-name="Path 19543" d="M1046.688,6304.292s.558,3.114,1.107,3.271a15.676,15.676,0,0,0,4.626.079c.613-.127,1.259-3.551,1.259-3.551Z" transform="translate(-1046.29 -6303.813)" fill="#ffab00"/>
                <path id="Path_19544" data-name="Path 19544" d="M1053.478,6304.47l-6.42.157.827,2.963c.721.207,4.34.31,4.844,0Z" transform="translate(-1046.482 -6304.01)" fill="#fff"/>
                <path id="Path_19545" data-name="Path 19545" d="M1061.44,6303.617c-.048-.107-.231-.136-.408-.063s-.284.215-.236.322.23.135.408.063S1061.487,6303.724,1061.44,6303.617Z" transform="translate(-1053.616 -6303.514)" fill="#ffab00"/>
                <path id="Path_19546" data-name="Path 19546" d="M1046.54,6304.412c.031-.111-.1-.24-.282-.287s-.363.007-.394.118.1.241.281.287S1046.509,6304.524,1046.54,6304.412Z" transform="translate(-1045.859 -6303.823)" fill="#ffab00"/>
              </g>
              <path id="Path_19547" data-name="Path 19547" d="M1049.58,6264.615c-.181-1.149-3.444-1.591-7.289-.986s-6.815,2.026-6.635,3.174,3.444,1.59,7.289.986S1049.761,6265.763,1049.58,6264.615Z" transform="translate(-1032.142 -6255.384)" fill="#ffac00"/>
            </g>
          </g>
          <g id="Group_13362" data-name="Group 13362" transform="translate(60.051 41.468)">
            <path id="Path_19548" data-name="Path 19548" d="M1081.369,6462.783c-.323-.436.4-1.094,1.319-1.713s1.686-.966,2.012-.532-.159,1.29-1.079,1.909S1081.693,6463.218,1081.369,6462.783Z" transform="translate(-1079.266 -6399.234)" fill="#f7c371"/>
            <path id="Path_19549" data-name="Path 19549" d="M1084.055,6464.553c-.324-.435.4-1.095,1.32-1.714s1.685-.968,2.011-.531-.159,1.288-1.079,1.909S1084.38,6464.987,1084.055,6464.553Z" transform="translate(-1080.662 -6400.154)" fill="#f7c371"/>
            <path id="Path_19550" data-name="Path 19550" d="M1077.188,6459.394c.391-.394,1.552.441,2.755,1.508s2,1.959,1.6,2.354-1.682-.154-2.886-1.221S1076.8,6459.786,1077.188,6459.394Z" transform="translate(-1077.075 -6398.689)" fill="#ffd8a3"/>
            <path id="Path_19551" data-name="Path 19551" d="M1084.594,6446.45c-1.912,1.414-8.268,5.4-6.923,7.569,1.2,1.942,5.417,2.565,8.7-6.188Z" transform="translate(-1077.288 -6392.013)" fill="#ffd8a3"/>
            <path id="Path_19552" data-name="Path 19552" d="M1088.071,6443.9l1.854-4.087,5.258,4.225-3.644,2.47Z" transform="translate(-1082.79 -6388.563)" fill="#eaeaea"/>
            <path id="Path_19553" data-name="Path 19553" d="M1118.981,6362.785c2.83-1.352-8.356-14.8-21.256-29.684,0,0-5.081,10.079-3.7,16.4C1094.028,6349.5,1107.563,6368.24,1118.981,6362.785Z" transform="translate(-1085.762 -6333.101)" fill="#029390"/>
            <path id="Path_19554" data-name="Path 19554" d="M1117.714,6389.7s-6.151,9.647-21.667,27.589a10.024,10.024,0,0,1-5.406-5s9.764-17.414,16.524-26.388C1107.165,6385.9,1116.6,6385.193,1117.714,6389.7Z" transform="translate(-1084.126 -6360.523)" fill="#029390"/>
            <path id="Path_19555" data-name="Path 19555" d="M1100.138,6441.052a.937.937,0,1,0-1.331.583A1.04,1.04,0,0,0,1100.138,6441.052Z" transform="translate(-1088.137 -6388.424)" fill="#54ccca"/>
          </g>
          <g id="Group_13363" data-name="Group 13363" transform="translate(0 44.227)">
            <path id="Path_19556" data-name="Path 19556" d="M1017.684,6466.389c.241-.446-.471-.984-1.353-1.466s-1.6-.72-1.843-.273.278,1.2,1.161,1.676S1017.442,6466.835,1017.684,6466.389Z" transform="translate(-984.464 -6404.108)" fill="#f7c371"/>
            <path id="Path_19557" data-name="Path 19557" d="M1015.485,6468.356c.242-.445-.47-.985-1.353-1.464s-1.6-.72-1.843-.274.278,1.195,1.161,1.676S1015.243,6468.8,1015.485,6468.356Z" transform="translate(-983.321 -6405.131)" fill="#f7c371"/>
            <path id="Path_19558" data-name="Path 19558" d="M1020.384,6462.414c-.389-.325-1.332.59-2.287,1.729s-1.565,2.069-1.176,2.4,1.478-.333,2.434-1.473S1020.772,6462.74,1020.384,6462.414Z" transform="translate(-985.697 -6403.034)" fill="#ffd8a3"/>
            <path id="Path_19559" data-name="Path 19559" d="M1008.023,6451.886c1.848,1.116,7.916,4.153,6.951,6.347-.863,1.963-4.54,3.022-8.385-4.846Z" transform="translate(-980.389 -6397.597)" fill="#ffd8a3"/>
            <path id="Path_19560" data-name="Path 19560" d="M1003.139,6450.988,999.4,6448.6l4.871-4.546,1.9,3.912Z" transform="translate(-976.655 -6393.525)" fill="#eaeaea"/>
            <path id="Path_19561" data-name="Path 19561" d="M952.594,6368.948c-3.171-.122,7.681-15.045,19.879-30.1,0,0,4.721,6.688,3.6,14.584C976.069,6353.428,964.331,6369.4,952.594,6368.948Z" transform="translate(-952.036 -6338.844)" fill="#029390"/>
            <path id="Path_19562" data-name="Path 19562" d="M952.378,6394.748s5.458,10.478,23.01,26.761a10.117,10.117,0,0,0,5.291-5.2s-10.628-17.938-16.962-26.881C963.717,6389.431,953.336,6390.2,952.378,6394.748Z" transform="translate(-952.214 -6365.136)" fill="#029390"/>
            <path id="Path_19563" data-name="Path 19563" d="M997.96,6444.3a.936.936,0,1,0,.2-1.44A1.039,1.039,0,0,0,997.96,6444.3Z" transform="translate(-975.803 -6392.847)" fill="#54ccca"/>
          </g>
        </g>
      </g>
      <g id="Group_13373" data-name="Group 13373" transform="translate(243.772 73.884)">
        <g id="Group_13366" data-name="Group 13366" transform="translate(58.334)">
          <path id="Path_19564" data-name="Path 19564" d="M1096.113,6343.545c-1.652-8.682-3.421-16.4-3.746-16.755h0c-.3-.476-3.265-2.427-6.006-4.072h0c-2.764-1.68-5.406-3.189-5.412-3.189h0l.451-.793c.047.05,10.517,5.96,11.705,7.523h0c.62.966,2.179,8.293,3.9,17.113h0c1.684,8.762,3.394,18.748,3.963,24.369h0l-.907.092c-.562-5.56-2.268-15.545-3.952-24.289Z" transform="translate(-1077.815 -6316.149)" fill="#9999a5"/>
          <path id="Path_19565" data-name="Path 19565" d="M1074.422,6316.051a2.7,2.7,0,1,0,2.7-2.7A2.7,2.7,0,0,0,1074.422,6316.051Z" transform="translate(-1074.422 -6313.35)" fill="#9999a5"/>
        </g>
        <g id="Group_13372" data-name="Group 13372" transform="translate(0 50.357)">
          <g id="Group_13367" data-name="Group 13367" transform="translate(18.29 16.015)">
            <path id="Path_19566" data-name="Path 19566" d="M992.1,6454.177c.12.307,1.353.555,2.735.555l50.259-.015c1.369,0,2.653-.245,2.846-.55l1.268-2.007c.212-.333-.81-.608-2.264-.608H993.736c-1.461,0-2.821.381-2.684.709Z" transform="translate(-991.042 -6451.551)" fill="#9999a5"/>
          </g>
          <g id="Group_13368" data-name="Group 13368" transform="translate(30.779 10.043)">
            <rect id="Rectangle_4570" data-name="Rectangle 4570" width="35.817" height="126.786" fill="#9999a5"/>
            <path id="Path_19567" data-name="Path 19567" d="M1030.65,6567.545a.427.427,0,0,0,.433.417h21.884a.429.429,0,0,0,.44-.417V6463.286a.432.432,0,0,0-.44-.417h-21.884a.431.431,0,0,0-.433.417Z" transform="translate(-1024.117 -6451.46)" fill="#ebebeb"/>
          </g>
          <g id="Group_13370" data-name="Group 13370">
            <g id="Group_13369" data-name="Group 13369" transform="translate(0 1.329)">
              <path id="Path_19568" data-name="Path 19568" d="M1046.675,6422.62c1.054-.907.774-1.647-.632-1.647H954.161c-1.4,0-1.609.646-.457,1.431l7.413,7.364c1.146.79,1.47,1.439,2.875,1.439h74.8c1.4,0,1.393-.742,2.447-1.651Z" transform="translate(-952.959 -6420.972)" fill="#cfd0d8"/>
            </g>
            <path id="Path_19569" data-name="Path 19569" d="M952.983,6419.6a.458.458,0,0,0,.465.453h93.492a.458.458,0,0,0,.462-.453v-.937a.462.462,0,0,0-.462-.458H953.448a.462.462,0,0,0-.465.458Z" transform="translate(-952.972 -6418.204)" fill="#ebebeb"/>
          </g>
          <g id="Group_13371" data-name="Group 13371" transform="translate(18.125 4.553)">
            <path id="Path_19570" data-name="Path 19570" d="M990.7,6438.826a2.583,2.583,0,0,0,2.65,2.5h53.222a2.588,2.588,0,0,0,2.653-2.5v-8.641a2.592,2.592,0,0,0-2.653-2.5H993.35a2.587,2.587,0,0,0-2.65,2.5Z" transform="translate(-990.7 -6427.684)" fill="#cfd0d8"/>
          </g>
        </g>
      </g>
      <g id="Group_18" data-name="Group 18" transform="translate(204.107 140.959)">
        <g id="Group_14" data-name="Group 14" transform="translate(26.155)">
          <path id="Path_69" data-name="Path 69" d="M980.547,6504.168c.259-2.558,1.476-3.942,2.681-3.942s1.944,1.384,1.683,3.942a3.929,3.929,0,0,1-3.455,3.746C980.251,6507.915,980.288,6506.727,980.547,6504.168Z" transform="translate(-953.711 -6477.553)" fill="#9999a5"/>
          <path id="Path_70" data-name="Path 70" d="M929.427,6504.474c-.182-2.56-1.407-3.943-2.67-3.943s-2.084,1.384-1.9,3.943a3.848,3.848,0,0,0,3.488,3.746C929.6,6508.22,929.609,6507.032,929.427,6504.474Z" transform="translate(-924.829 -6477.71)" fill="#9999a5"/>
          <path id="Path_71" data-name="Path 71" d="M930.68,6494.511c.181,1.376,5.931,7.323,12.48,7.323s11.971-5.419,13.109-7.617-3.451-30.168-6.122-32.512-13.444-.794-14.359.439C933.616,6465.074,929.971,6489.092,930.68,6494.511Z" transform="translate(-927.823 -6456.899)" fill="#9999a5"/>
          <path id="Path_72" data-name="Path 72" d="M936.061,6473.407c.942.428,4.668-8.643,5.448-10.161s.648-3.094-.3-3.522-2.34.456-3.12,1.973S935.116,6472.979,936.061,6473.407Z" transform="translate(-930.546 -6456.445)" fill="#9999a5"/>
          <path id="Path_73" data-name="Path 73" d="M971.5,6472.308c.992-.316-1.629-9.521-2.2-11.118s-1.848-2.633-2.84-2.317-1.329,1.866-.753,3.46S970.506,6472.625,971.5,6472.308Z" transform="translate(-945.925 -6456.03)" fill="#9999a5"/>
          <path id="Path_74" data-name="Path 74" d="M953.374,6530.008h-14.8l-2.215,12.741c8.058,3.945,12.766,3.517,19.042-.861Z" transform="translate(-930.82 -6493.031)" fill="#9999a5"/>
          <path id="Path_75" data-name="Path 75" d="M957.043,6534.538c0-.268-.523-.488-1.169-.488s-1.169.218-1.169.488.523.293,1.169.293S957.043,6534.808,957.043,6534.538Z" transform="translate(-940.357 -6495.132)" fill="#9999a5"/>
          <path id="Path_76" data-name="Path 76" d="M928.692,6485.988c-.519-3.125-1.425-25.526.724-28.483s14.809-4.892,16.789-4.42c4.313,1.024,3.556,4.086,3.556,4.086a7.622,7.622,0,0,1,3.634.989c1.489.984,4.591,15.1,2.11,25.774-1.115,4.8-5.508,8.983-13.1,9.179C933,6493.358,929.338,6489.872,928.692,6485.988Z" transform="translate(-926.504 -6453.015)" fill="#9999a5"/>
          <path id="Path_77" data-name="Path 77" d="M941.893,6468.616a54.8,54.8,0,0,1-13.206-1.5c-1.172,6.567-.441,23.513.006,26.2.646,3.883,4.311,7.368,13.719,7.127,7.587-.2,11.979-4.379,13.1-9.179,2.019-8.689.339-19.656-1.158-23.967A55.906,55.906,0,0,1,941.893,6468.616Z" transform="translate(-926.505 -6460.344)" fill="#9999a5"/>
        </g>
        <g id="Group_17" data-name="Group 17" transform="translate(0 47.874)">
          <g id="Group_15" data-name="Group 15" transform="translate(0 8.132)">
            <path id="Path_78" data-name="Path 78" d="M880.119,6707.472l-1.17-3.929,6.522-.135-1.16,3.848Z" transform="translate(-874.828 -6639.161)" fill="#9999a5"/>
            <path id="Path_79" data-name="Path 79" d="M882.056,6705.748a1.975,1.975,0,0,1,2.327,1.27l1.088-3.609-6.522.136,1.17,3.928.222-.011A1.817,1.817,0,0,1,882.056,6705.748Z" transform="translate(-874.828 -6639.161)" fill="#9999a5"/>
            <path id="Path_80" data-name="Path 80" d="M872.015,6610.323c-3.106-.1-1.457-26.446,6.523-40.691,0,0,10.765,10.2,11.289,17.732C889.827,6587.364,884.549,6610.73,872.015,6610.323Z" transform="translate(-870.46 -6569.632)" fill="#9999a5"/>
            <path id="Path_81" data-name="Path 81" d="M870.577,6638.62s-1.556,10.887,3.843,32.319a10.469,10.469,0,0,0,7.136-1.26s4.318-22.3-1.346-30.33C880.209,6639.35,873.836,6635.637,870.577,6638.62Z" transform="translate(-870.369 -6604.885)" fill="#9999a5"/>
            <path id="Path_82" data-name="Path 82" d="M884.685,6639.084c1.772.686,4.123,1.861,3.885,2.514C888.084,6642.928,884.685,6639.084,884.685,6639.084Z" transform="translate(-877.81 -6605.729)" fill="#9999a5"/>
            <path id="Path_83" data-name="Path 83" d="M885.514,6643.269c1.032-1.517,2.681-3.483,3.322-3.147C890.145,6640.805,885.514,6643.269,885.514,6643.269Z" transform="translate(-878.24 -6606.249)" fill="#9999a5"/>
            <path id="Path_84" data-name="Path 84" d="M898.916,6609.384c-2.947,5.375-6.946,12.153-10.214,15.827,4.093,8.772,1.579,29.11,1.422,30.336.315-.137.633-.285.959-.46,0,0,3.806-19.66-.415-28.7C895.393,6621.069,898.027,6612.648,898.916,6609.384Z" transform="translate(-879.897 -6590.292)" fill="#9999a5"/>
            <path id="Path_85" data-name="Path 85" d="M876.931,6698.3a.933.933,0,0,0,.833-1.043.964.964,0,0,0-.975-.792,1.031,1.031,0,0,0-.248.034Z" transform="translate(-873.577 -6635.55)" fill="#9999a5"/>
          </g>
          <g id="Group_16" data-name="Group 16" transform="translate(63.36 7.217)">
            <path id="Path_86" data-name="Path 86" d="M1025.815,6705.563l1.17-3.927-6.522-.136,1.16,3.849Z" transform="translate(-1011.74 -6637.253)" fill="#9999a5"/>
            <path id="Path_87" data-name="Path 87" d="M1023.879,6703.837a1.976,1.976,0,0,0-2.327,1.271l-1.088-3.609,6.522.136-1.17,3.928-.222-.012A1.819,1.819,0,0,0,1023.879,6703.837Z" transform="translate(-1011.74 -6637.253)" fill="#9999a5"/>
            <path id="Path_88" data-name="Path 88" d="M1020.111,6608.417c3.106-.1,1.456-26.445-6.523-40.69,0,0-10.765,10.2-11.289,17.732C1002.3,6585.456,1007.577,6608.822,1020.111,6608.417Z" transform="translate(-1002.299 -6567.726)" fill="#9999a5"/>
            <path id="Path_89" data-name="Path 89" d="M1028.606,6636.712s1.556,10.887-3.843,32.319a10.469,10.469,0,0,1-7.135-1.259s-4.319-22.3,1.345-30.331C1018.974,6637.441,1025.347,6633.729,1028.606,6636.712Z" transform="translate(-1009.447 -6602.978)" fill="#9999a5"/>
            <path id="Path_90" data-name="Path 90" d="M1024.086,6637.175c-1.772.687-4.123,1.861-3.885,2.515C1020.686,6641.02,1024.086,6637.175,1024.086,6637.175Z" transform="translate(-1011.595 -6603.821)" fill="#9999a5"/>
            <path id="Path_91" data-name="Path 91" d="M1023.632,6641.364c-1.031-1.518-2.68-3.484-3.321-3.148C1019,6638.9,1023.632,6641.364,1023.632,6641.364Z" transform="translate(-1011.539 -6604.343)" fill="#9999a5"/>
            <path id="Path_92" data-name="Path 92" d="M1003.023,6607.475c2.947,5.376,6.947,12.154,10.215,15.828-4.093,8.77-1.579,29.109-1.423,30.336-.315-.138-.633-.285-.959-.46,0,0-3.806-19.658.416-28.7C1006.545,6619.161,1003.912,6610.739,1003.023,6607.475Z" transform="translate(-1002.675 -6588.385)" fill="#9999a5"/>
            <path id="Path_93" data-name="Path 93" d="M1034.73,6696.386a.933.933,0,0,1-.831-1.045.983.983,0,0,1,1.221-.756Z" transform="translate(-1018.717 -6633.642)" fill="#9999a5"/>
          </g>
          <path id="Path_94" data-name="Path 94" d="M886.871,6560.957c5.792,22.129,16.7,73.646,16.7,73.646,3.2,2.9,9.775,4.073,16.528,4.022l1.088-2.846,1.8,2.752c6.912-.4,13.539-2.02,16.449-4.332,1.886-9.551,14.04-74.313,14.04-74.313C918.143,6543.111,886.871,6560.957,886.871,6560.957Z" transform="translate(-878.946 -6552.698)" fill="#9999a5"/>
        </g>
        <path id="Path_95" data-name="Path 95" d="M954.695,6546.176c-2.849-2.825-20.382-3.22-24.17.01l-1.3,3.377c8,.859,15.18.636,27.679-.1Z" transform="translate(-900.958 -6500.255)" fill="#9999a5"/>
      </g>
      <g id="Group_29" data-name="Group 29" transform="translate(4.158 141.138)">
        <path id="Path_123" data-name="Path 123" d="M546.759,6463.976c1.334-1.18,3.108-5.477-1.479-9.889,0,0,1.479,3.188-.593,4.18,0,0,.518-4.253-3.626-4.88,0,0,.962,1.408.37,1.969,0,0-1.5-2.246-5.771-.408-4.143,1.786-8.967,12.216-7.683,23.877Z" transform="translate(-492.355 -6453.386)" fill="#9999a5"/>
        <g id="Group_28" data-name="Group 28">
          <g id="Group_24" data-name="Group 24" transform="translate(26.155)">
            <path id="Path_124" data-name="Path 124" d="M564.211,6504.54c.259-2.559,1.475-3.942,2.68-3.942s1.944,1.384,1.683,3.942a3.926,3.926,0,0,1-3.454,3.744C563.915,6508.284,563.952,6507.1,564.211,6504.54Z" transform="translate(-537.375 -6477.924)" fill="#9999a5"/>
            <path id="Path_125" data-name="Path 125" d="M513.09,6504.844c-.182-2.56-1.407-3.943-2.67-3.943s-2.084,1.384-1.9,3.943a3.847,3.847,0,0,0,3.488,3.746C513.269,6508.59,513.272,6507.4,513.09,6504.844Z" transform="translate(-508.493 -6478.082)" fill="#9999a5"/>
            <path id="Path_126" data-name="Path 126" d="M514.343,6494.879c.182,1.377,5.931,7.322,12.48,7.322s11.971-5.418,13.109-7.615-3.451-30.17-6.122-32.513-13.444-.795-14.359.439C517.279,6465.442,513.634,6489.462,514.343,6494.879Z" transform="translate(-511.487 -6457.269)" fill="#9999a5"/>
            <path id="Path_127" data-name="Path 127" d="M519.725,6473.778c.942.428,4.668-8.643,5.448-10.16s.648-3.095-.3-3.523-2.34.456-3.12,1.973S518.78,6473.349,519.725,6473.778Z" transform="translate(-514.21 -6456.816)" fill="#9999a5"/>
            <path id="Path_128" data-name="Path 128" d="M555.162,6472.679c.991-.315-1.629-9.521-2.205-11.116s-1.847-2.634-2.839-2.317-1.329,1.865-.754,3.46S554.17,6473,555.162,6472.679Z" transform="translate(-529.589 -6456.402)" fill="#9999a5"/>
            <path id="Path_129" data-name="Path 129" d="M537.037,6530.379h-14.8l-2.216,12.741c8.058,3.945,12.766,3.518,19.043-.861Z" transform="translate(-514.483 -6493.402)" fill="#9999a5"/>
            <path id="Path_130" data-name="Path 130" d="M540.706,6534.908c0-.269-.523-.487-1.169-.487s-1.169.219-1.169.487.523.293,1.169.293S540.706,6535.178,540.706,6534.908Z" transform="translate(-524.02 -6495.503)" fill="#9999a5"/>
            <path id="Path_131" data-name="Path 131" d="M512.355,6486.36c-.52-3.125-1.426-25.527.724-28.484s14.809-4.892,16.789-4.419c4.313,1.025,3.557,4.088,3.557,4.088a7.618,7.618,0,0,1,3.634.989c1.489.985,4.591,15.1,2.11,25.775-1.115,4.8-5.508,8.983-13.1,9.178C516.665,6493.729,513,6490.243,512.355,6486.36Z" transform="translate(-510.167 -6453.386)" fill="#9999a5"/>
            <path id="Path_132" data-name="Path 132" d="M525.557,6468.986a54.773,54.773,0,0,1-13.206-1.5c-1.172,6.568-.44,23.514.006,26.2.646,3.883,4.31,7.369,13.718,7.127,7.588-.2,11.98-4.38,13.1-9.178,2.019-8.69.34-19.657-1.158-23.967A55.939,55.939,0,0,1,525.557,6468.986Z" transform="translate(-510.169 -6460.714)" fill="#9999a5"/>
          </g>
          <g id="Group_27" data-name="Group 27" transform="translate(0 47.873)">
            <g id="Group_25" data-name="Group 25" transform="translate(0 8.133)">
              <path id="Path_133" data-name="Path 133" d="M463.783,6707.842l-1.17-3.928,6.522-.136-1.16,3.849Z" transform="translate(-458.492 -6639.531)" fill="#9999a5"/>
              <path id="Path_134" data-name="Path 134" d="M465.719,6706.118a1.975,1.975,0,0,1,2.327,1.271l1.088-3.61-6.522.136,1.17,3.927.222-.011A1.819,1.819,0,0,1,465.719,6706.118Z" transform="translate(-458.492 -6639.531)" fill="#9999a5"/>
              <path id="Path_135" data-name="Path 135" d="M455.678,6610.693c-3.106-.1-1.456-26.445,6.523-40.69,0,0,10.765,10.2,11.289,17.732C473.49,6587.732,468.212,6611.1,455.678,6610.693Z" transform="translate(-454.124 -6570.002)" fill="#9999a5"/>
              <path id="Path_136" data-name="Path 136" d="M454.241,6638.991s-1.556,10.887,3.843,32.319a10.465,10.465,0,0,0,7.135-1.259s4.319-22.3-1.345-30.331C463.872,6639.72,457.5,6636.008,454.241,6638.991Z" transform="translate(-454.033 -6605.256)" fill="#9999a5"/>
              <path id="Path_137" data-name="Path 137" d="M468.348,6639.455c1.772.686,4.123,1.861,3.885,2.514C471.747,6643.3,468.348,6639.455,468.348,6639.455Z" transform="translate(-461.473 -6606.1)" fill="#9999a5"/>
              <path id="Path_138" data-name="Path 138" d="M469.178,6643.641c1.031-1.517,2.68-3.483,3.321-3.148C473.808,6641.175,469.178,6643.641,469.178,6643.641Z" transform="translate(-461.904 -6606.62)" fill="#9999a5"/>
              <path id="Path_139" data-name="Path 139" d="M482.582,6609.754c-2.947,5.376-6.946,12.153-10.214,15.828,4.093,8.771,1.578,29.11,1.422,30.336.315-.137.635-.285.959-.459,0,0,3.806-19.658-.415-28.705C479.057,6621.439,481.693,6613.019,482.582,6609.754Z" transform="translate(-463.562 -6590.663)" fill="#9999a5"/>
              <path id="Path_140" data-name="Path 140" d="M460.594,6698.665a.933.933,0,0,0,.831-1.044.964.964,0,0,0-.973-.79,1.031,1.031,0,0,0-.248.034Z" transform="translate(-457.24 -6635.92)" fill="#9999a5"/>
            </g>
            <g id="Group_26" data-name="Group 26" transform="translate(63.36 7.217)">
              <path id="Path_141" data-name="Path 141" d="M609.478,6705.934l1.17-3.928-6.522-.135,1.16,3.848Z" transform="translate(-595.403 -6637.624)" fill="#9999a5"/>
              <path id="Path_142" data-name="Path 142" d="M607.542,6704.211a1.975,1.975,0,0,0-2.328,1.271l-1.088-3.61,6.522.135-1.17,3.929-.222-.012A1.818,1.818,0,0,0,607.542,6704.211Z" transform="translate(-595.403 -6637.625)" fill="#9999a5"/>
              <path id="Path_143" data-name="Path 143" d="M603.774,6608.785c3.106-.1,1.456-26.445-6.523-40.69,0,0-10.765,10.2-11.289,17.731C585.962,6585.826,591.24,6609.192,603.774,6608.785Z" transform="translate(-585.962 -6568.095)" fill="#9999a5"/>
              <path id="Path_144" data-name="Path 144" d="M612.269,6637.083s1.556,10.887-3.842,32.319a10.467,10.467,0,0,1-7.135-1.259s-4.318-22.305,1.346-30.331C602.638,6637.812,609.01,6634.1,612.269,6637.083Z" transform="translate(-593.111 -6603.348)" fill="#9999a5"/>
              <path id="Path_145" data-name="Path 145" d="M607.749,6637.544c-1.772.686-4.124,1.862-3.885,2.514C604.35,6641.39,607.749,6637.544,607.749,6637.544Z" transform="translate(-595.258 -6604.19)" fill="#9999a5"/>
              <path id="Path_146" data-name="Path 146" d="M607.3,6641.732c-1.031-1.517-2.68-3.483-3.321-3.148C602.665,6639.268,607.3,6641.732,607.3,6641.732Z" transform="translate(-595.202 -6604.712)" fill="#9999a5"/>
              <path id="Path_147" data-name="Path 147" d="M586.687,6607.846c2.947,5.376,6.946,12.154,10.215,15.828-4.093,8.77-1.579,29.109-1.423,30.336-.315-.138-.633-.285-.959-.46,0,0-3.806-19.658.415-28.7C590.209,6619.532,587.576,6611.11,586.687,6607.846Z" transform="translate(-586.339 -6588.755)" fill="#9999a5"/>
              <path id="Path_148" data-name="Path 148" d="M618.393,6696.756a.933.933,0,0,1-.831-1.045.965.965,0,0,1,.973-.79,1.01,1.01,0,0,1,.248.033Z" transform="translate(-602.38 -6634.012)" fill="#9999a5"/>
            </g>
            <path id="Path_149" data-name="Path 149" d="M470.535,6561.327c5.791,22.129,16.7,73.646,16.7,73.646,3.2,2.9,9.775,4.073,16.529,4.022l1.088-2.846,1.8,2.752c6.912-.4,13.539-2.02,16.449-4.333,1.886-9.551,14.04-74.314,14.04-74.314C501.807,6543.481,470.535,6561.327,470.535,6561.327Z" transform="translate(-462.61 -6553.068)" fill="#9999a5"/>
          </g>
          <path id="Path_150" data-name="Path 150" d="M538.358,6546.547c-2.849-2.825-20.382-3.22-24.17.011l-1.3,3.378c8,.858,15.179.635,27.678-.1Z" transform="translate(-484.621 -6500.627)" fill="#9999a5"/>
        </g>
      </g>
      <g id="Group_13384" data-name="Group 13384" transform="translate(119.682 145.561)">
        <g id="Group_13375" data-name="Group 13375" transform="translate(0 49.261)">
          <g id="Group_13374" data-name="Group 13374" transform="translate(25.144 50.854)">
            <path id="Path_19571" data-name="Path 19571" d="M764.5,6682.993c.1-.588-.943-.869-2.154-1.012s-2.133-.1-2.231.493.806,1.183,2.018,1.325S764.4,6683.583,764.5,6682.993Z" transform="translate(-753.778 -6676.699)" fill="#9999a5"/>
            <path id="Path_19572" data-name="Path 19572" d="M762.769,6686.08c.1-.589-.943-.869-2.153-1.01s-2.133-.1-2.232.491.807,1.182,2.018,1.326S762.671,6686.667,762.769,6686.08Z" transform="translate(-752.881 -6678.303)" fill="#9999a5"/>
            <path id="Path_19573" data-name="Path 19573" d="M767.479,6676.262c-.58-.187-1.291,1.213-1.926,2.864s-.957,2.922-.376,3.111,1.563-1,2.2-2.648S768.059,6676.451,767.479,6676.262Z" transform="translate(-756.257 -6673.753)" fill="#9999a5"/>
            <path id="Path_19574" data-name="Path 19574" d="M747.97,6671.057c2.579.42,10.8,1.115,10.58,3.917-.193,2.507-3.991,5.239-11.617-1.67Z" transform="translate(-746.933 -6671.057)" fill="#9999a5"/>
          </g>
          <path id="Path_19575" data-name="Path 19575" d="M710.727,6565.308c-6.214-2.8-16.332,36.722-16.147,38.162,0,0,3.753,3.563,4.839,2.246C702.229,6602.308,713.5,6566.558,710.727,6565.308Z" transform="translate(-694.577 -6565.167)" fill="#9999a5"/>
          <path id="Path_19576" data-name="Path 19576" d="M720.6,6655.843c3.238-4.051-21.837-17.265-22.936-17.394,0,0-3.341,2.1-2.571,3.142C697.083,6644.282,719.152,6657.651,720.6,6655.843Z" transform="translate(-694.784 -6603.254)" fill="#9999a5"/>
          <path id="Path_19577" data-name="Path 19577" d="M742.274,6672l-1.178,1.14-6.16-.973s1.621-2.405,2.28-2.687S742.274,6672,742.274,6672Z" transform="translate(-715.554 -6619.375)" fill="#9999a5"/>
          <path id="Path_19578" data-name="Path 19578" d="M745.441,6667.581l.615-1.531-3.294-5.3s-1.628,2.434-1.637,3.151S745.441,6667.581,745.441,6667.581Z" transform="translate(-718.77 -6614.844)" fill="#9999a5"/>
        </g>
        <g id="Group_13377" data-name="Group 13377" transform="translate(13.798 49.542)">
          <g id="Group_13376" data-name="Group 13376" transform="translate(0 50.555)">
            <path id="Path_19579" data-name="Path 19579" d="M724.854,6681.126c-.072-.517.84-.742,1.9-.844s1.865-.043,1.939.473-.726,1.019-1.787,1.119S724.927,6681.643,724.854,6681.126Z" transform="translate(-724.109 -6675.812)" fill="#9999a5"/>
            <path id="Path_19580" data-name="Path 19580" d="M726.3,6683.854c-.073-.517.84-.741,1.9-.843s1.865-.046,1.939.472-.726,1.016-1.788,1.119S726.377,6684.368,726.3,6683.854Z" transform="translate(-724.862 -6677.229)" fill="#9999a5"/>
            <path id="Path_19581" data-name="Path 19581" d="M723.683,6675.166c.509-.153,1.1,1.084,1.628,2.538s.78,2.57.269,2.725-1.347-.9-1.871-2.355S723.172,6675.319,723.683,6675.166Z" transform="translate(-723.308 -6673.167)" fill="#9999a5"/>
            <path id="Path_19582" data-name="Path 19582" d="M732.627,6671.017c-2.261.318-9.449.771-9.313,3.223.121,2.192,3.386,4.651,10.177-1.24Z" transform="translate(-723.31 -6671.017)" fill="#9999a5"/>
          </g>
          <path id="Path_19583" data-name="Path 19583" d="M765.194,6565.88c6.274-2.663,15.533,37.066,15.317,38.5,0,0-3.829,3.481-4.886,2.142C772.889,6603.054,762.393,6567.068,765.194,6565.88Z" transform="translate(-744.833 -6565.752)" fill="#9999a5"/>
          <path id="Path_19584" data-name="Path 19584" d="M742.93,6656.479c-3.15-4.12,22.205-16.788,23.307-16.893,0,0,3.294,2.173,2.5,3.2C766.69,6645.429,744.336,6658.318,742.93,6656.479Z" transform="translate(-733.366 -6604.126)" fill="#9999a5"/>
          <path id="Path_19585" data-name="Path 19585" d="M741.333,6672.174l1.152,1.167,6.179-.84s-1.568-2.44-2.222-2.735S741.333,6672.174,741.333,6672.174Z" transform="translate(-732.676 -6619.8)" fill="#9999a5"/>
          <path id="Path_19586" data-name="Path 19586" d="M740.8,6667.7l-.582-1.543,3.407-5.23s1.575,2.468,1.569,3.186S740.8,6667.7,740.8,6667.7Z" transform="translate(-732.098 -6615.218)" fill="#9999a5"/>
        </g>
        <g id="Group_13378" data-name="Group 13378" transform="translate(5.227 34.706)">
          <path id="Path_19587" data-name="Path 19587" d="M705.46,6622.466s8.329,7.378,16.658,10.145l4.338-9.375,3.991,9.375s11.259-3.171,15.79-10.145c-9.175-13.3-12.8-24.4-3.285-38.251,0,0-3.83-24.763-17.711-25.377s-16.355,26.4-16.355,26.4C717.91,6598.759,720.864,6604.632,705.46,6622.466Z" transform="translate(-705.46 -6547.317)" fill="#9999a5"/>
          <path id="Path_19588" data-name="Path 19588" d="M737.865,6570.537a8.406,8.406,0,0,1,5.378,1.939,17.343,17.343,0,0,0,1.342-11.158c-8.451-6.354-13.658.66-13.658.66s-1.107,4.377,1.872,10.261A8.392,8.392,0,0,1,737.865,6570.537Z" transform="translate(-718.592 -6547.228)" fill="#9999a5"/>
          <path id="Path_19589" data-name="Path 19589" d="M736.053,6561.074s-1.406,7.051,4.985,14.7c0,0,5.432-7.447,3.9-15.248C739.44,6555.277,736.053,6561.074,736.053,6561.074Z" transform="translate(-721.292 -6547.058)" fill="#9999a5"/>
          <rect id="Rectangle_4571" data-name="Rectangle 4571" width="7.249" height="13.59" transform="translate(15.631)" fill="#9999a5"/>
          <path id="Path_19590" data-name="Path 19590" d="M751.6,6628.1a1.019,1.019,0,1,0-1.019,1.02A1.019,1.019,0,0,0,751.6,6628.1Z" transform="translate(-728.383 -6582.791)" fill="#9999a5"/>
          <path id="Path_19591" data-name="Path 19591" d="M751.6,6644.687a1.019,1.019,0,1,0-1.019,1.02A1.019,1.019,0,0,0,751.6,6644.687Z" transform="translate(-728.383 -6591.412)" fill="#9999a5"/>
          <path id="Path_19592" data-name="Path 19592" d="M751.6,6677.864a1.019,1.019,0,1,0-1.019,1.02A1.019,1.019,0,0,0,751.6,6677.864Z" transform="translate(-728.383 -6608.656)" fill="#9999a5"/>
          <path id="Path_19593" data-name="Path 19593" d="M751.6,6661.276a1.019,1.019,0,1,0-1.019,1.019A1.019,1.019,0,0,0,751.6,6661.276Z" transform="translate(-728.383 -6600.034)" fill="#9999a5"/>
        </g>
        <g id="Group_13383" data-name="Group 13383" transform="translate(3.258)">
          <g id="Group_13379" data-name="Group 13379">
            <path id="Path_19594" data-name="Path 19594" d="M718.777,6494.065c1.088,2.059,1.305,7.477-1.956,10.618-5.229,5.036-8.915-1.734-8.915-1.734,1.631,2.491,5.218,2.059,4.892-.976s-1.74-.757-4.24-2.492.326-4.333-.325-5.525c-1.771-3.233-4.24-.975-5.762-3.574-5.567-9.513,11.2-30.119,19.133-27.518,0,0,17.009-4.891,19.46,26.976.108,1.408-5.109,2.817-4.349,5.742s1.305,2.057.326,3.792-6.74,1.516-4.566,3.9,4.567,1.3,5.327.108c0,0-3.588,7.691-10.545-.649s-.435-9.1-.435-9.1Z" transform="translate(-701.36 -6462.595)" fill="#9999a5"/>
          </g>
          <g id="Group_13380" data-name="Group 13380" transform="translate(8.322 11.713)">
            <path id="Path_19595" data-name="Path 19595" d="M733.169,6519.293c-4.511,0-14.669-12.33-10.472-27.483.849-3.062,4.178-4.825,10.472-4.825,6.924,0,10.092,1.872,10.6,4.353C747.332,6508.875,737.786,6519.293,733.169,6519.293Z" transform="translate(-720.255 -6486.984)" fill="#9999a5"/>
            <path id="Path_19596" data-name="Path 19596" d="M749.021,6502.159a5.678,5.678,0,0,1,6.842,3.57C754.02,6503.2,752.59,6502.26,749.021,6502.159Z" transform="translate(-734.454 -6494.787)" fill="#9999a5"/>
            <path id="Path_19597" data-name="Path 19597" d="M732.675,6502.969a5.656,5.656,0,0,0-7.2,2.724C727.61,6503.408,729.138,6502.643,732.675,6502.969Z" transform="translate(-722.217 -6495.088)" fill="#9999a5"/>
            <path id="Path_19598" data-name="Path 19598" d="M755.929,6514.25a1.251,1.251,0,1,0-1.144,1.61A1.415,1.415,0,0,0,755.929,6514.25Z" transform="translate(-736.784 -6500.375)" fill="#9999a5"/>
            <path id="Path_19599" data-name="Path 19599" d="M756.142,6514.009a4.127,4.127,0,0,0-5.071-.789A10.406,10.406,0,0,1,756.142,6514.009Z" transform="translate(-735.519 -6500.335)" fill="#9999a5"/>
            <path id="Path_19600" data-name="Path 19600" d="M731.977,6514.25a1.25,1.25,0,1,1,1.145,1.61A1.415,1.415,0,0,1,731.977,6514.25Z" transform="translate(-725.594 -6500.375)" fill="#9999a5"/>
            <path id="Path_19601" data-name="Path 19601" d="M728.9,6514.009a4.124,4.124,0,0,1,5.069-.789A10.4,10.4,0,0,0,728.9,6514.009Z" transform="translate(-723.998 -6500.335)" fill="#9999a5"/>
            <path id="Path_19602" data-name="Path 19602" d="M742.7,6523.522a3.3,3.3,0,0,0,1.351.561,1.922,1.922,0,0,0,1.351-.617c.06-.372-.926-4.519-1.276-4.556S742.673,6522.983,742.7,6523.522Z" transform="translate(-731.167 -6503.578)" fill="#9999a5"/>
            <path id="Path_19603" data-name="Path 19603" d="M744.4,6522.169c0,.083.4.216.543.216.242,0,.534-.124.544-.273.024-.363.216-4.48-.513-4.44C744.171,6517.713,744.387,6521.642,744.4,6522.169Z" transform="translate(-732.033 -6502.934)" fill="#9999a5"/>
            <path id="Path_19604" data-name="Path 19604" d="M745.682,6543.422c0-.5-.555-.454-1.27-.454s-1.321-.048-1.321.454.579.909,1.3.909S745.682,6543.924,745.682,6543.422Z" transform="translate(-731.372 -6516.081)" fill="#9999a5"/>
            <path id="Path_19605" data-name="Path 19605" d="M745.505,6533.651a2.248,2.248,0,0,0-2.366-.071c-.446,0-.892-.753-2.431.071-.442.237,1.073.909,2.4.909S745.949,6533.888,745.505,6533.651Z" transform="translate(-730.093 -6511.039)" fill="#9999a5"/>
            <path id="Path_19606" data-name="Path 19606" d="M738.514,6534.148h6.966s-.934,5.013-3.483,5.013S738.514,6534.148,738.514,6534.148Z" transform="translate(-728.993 -6511.498)" fill="#9999a5"/>
            <path id="Path_19607" data-name="Path 19607" d="M745.465,6534.681h-6l.659,2.04h4.68Z" transform="translate(-729.488 -6511.774)" fill="#9999a5"/>
            <path id="Path_19608" data-name="Path 19608" d="M753.079,6533.68a.354.354,0,1,0-.35.408A.383.383,0,0,0,753.079,6533.68Z" transform="translate(-736.198 -6511.042)" fill="#9999a5"/>
            <path id="Path_19609" data-name="Path 19609" d="M738.367,6533.68a.355.355,0,1,0-.35.408A.383.383,0,0,0,738.367,6533.68Z" transform="translate(-728.552 -6511.042)" fill="#9999a5"/>
            <path id="Path_19610" data-name="Path 19610" d="M720.5,6520.107c-.212-.995-.081-1.8-.814-1.646a1.655,1.655,0,0,0-.944,2.085c.212.993.98,1.673,1.713,1.515S720.715,6521.1,720.5,6520.107Z" transform="translate(-718.689 -6503.334)" fill="#9999a5"/>
            <path id="Path_19611" data-name="Path 19611" d="M768.2,6520.126c.189-1,.029-1.807.789-1.663a1.669,1.669,0,0,1,1.034,2.072c-.188,1-.957,1.692-1.716,1.55S768.01,6521.127,768.2,6520.126Z" transform="translate(-744.258 -6503.337)" fill="#9999a5"/>
          </g>
          <g id="Group_13382" data-name="Group 13382" transform="translate(8.18 6.624)">
            <path id="Path_19612" data-name="Path 19612" d="M718.426,6490.9c3.962-1.882,13.865-7.13,14.657-13.467,0,0-10-1.584-12.28,4.654C717.926,6489.961,718.426,6490.9,718.426,6490.9Z" transform="translate(-718.393 -6476.835)" fill="#9999a5"/>
            <path id="Path_19613" data-name="Path 19613" d="M755.716,6501.729a31.671,31.671,0,0,1-1.058-9.334c.384-3.3-9.7-10.914-11.113-13.734-2.016-4.025,6.9-1.479,6.9-1.479C758.518,6484.568,756.705,6492.508,755.716,6501.729Z" transform="translate(-731.311 -6476.388)" fill="#9999a5"/>
            <g id="Group_13381" data-name="Group 13381" transform="translate(5.7 1.083)">
              <path id="Path_19614" data-name="Path 19614" d="M739.142,6478.645c-.611,4.2-5,8.2-8.88,10.977,4.3-2.588,9.256-6.466,9.807-10.874C740.069,6478.747,739.721,6478.692,739.142,6478.645Z" transform="translate(-730.262 -6478.645)" fill="#9999a5"/>
            </g>
          </g>
        </g>
      </g>
      <g id="Group_13386" data-name="Group 13386" transform="translate(316.406 190.896)">
        <g id="Group_13385" data-name="Group 13385" transform="translate(24.006 57.35)">
          <path id="Path_19615" data-name="Path 19615" d="M1155.269,6676.41c2.028.621,8.557,2.083,8.071,4.308-.433,1.992-3.793,3.767-9.156-2.617Z" transform="translate(-1154.184 -6676.41)" fill="#9999a5"/>
          <path id="Path_19616" data-name="Path 19616" d="M1167.418,6687.8c.142-.462-.661-.8-1.62-1.05s-1.7-.311-1.849.151.516,1.038,1.474,1.285S1167.274,6688.266,1167.418,6687.8Z" transform="translate(-1159.249 -6681.687)" fill="#9999a5"/>
          <path id="Path_19617" data-name="Path 19617" d="M1168.79,6685.206c.143-.463-.661-.8-1.62-1.049s-1.7-.312-1.849.151.516,1.037,1.474,1.285S1168.647,6685.667,1168.79,6685.206Z" transform="translate(-1159.963 -6680.336)" fill="#9999a5"/>
          <path id="Path_19618" data-name="Path 19618" d="M1165.684,6690.091c.143-.462-.661-.8-1.619-1.049s-1.705-.312-1.85.15.517,1.037,1.475,1.286S1165.54,6690.552,1165.684,6690.091Z" transform="translate(-1158.348 -6682.875)" fill="#9999a5"/>
          <path id="Path_19619" data-name="Path 19619" d="M1169.989,6682.905c-.446-.215-1.174.833-1.869,2.087s-1.1,2.241-.65,2.457,1.369-.629,2.064-1.885S1170.434,6683.119,1169.989,6682.905Z" transform="translate(-1160.992 -6679.771)" fill="#9999a5"/>
          <path id="Path_19620" data-name="Path 19620" d="M1165.245,6680.791c-.284-.235-1.056.257-1.783,1.038s-1.132,1.555-.847,1.791,1.1-.208,1.828-.989S1165.528,6681.026,1165.245,6680.791Z" transform="translate(-1158.518 -6678.656)" fill="#9999a5"/>
          <path id="Path_19621" data-name="Path 19621" d="M1159.51,6678.015a1.407,1.407,0,0,0,.857,1.916c1.045.2,3.254-.053,3.3-.42s-.708-.976-1.9-1.258C1160.736,6678.006,1160.063,6677.495,1159.51,6678.015Z" transform="translate(-1156.884 -6677.127)" fill="#9999a5"/>
        </g>
        <path id="Path_19622" data-name="Path 19622" d="M1128.559,6557.3c-6.255-4.313-24.087,37.749-24.128,39.216,0,0,2.894,2.456,4.177,1.332C1111.97,6594.9,1131.343,6559.224,1128.559,6557.3Z" transform="translate(-1104.32 -6556.994)" fill="#9999a5"/>
        <path id="Path_19623" data-name="Path 19623" d="M1129.5,6653.293c-3.256,4.571-24.835-17.816-25.3-18.918,0,0,1.19-4.095,2.507-3.608C1110.115,6632.027,1130.953,6651.251,1129.5,6653.293Z" transform="translate(-1104.199 -6595.315)" fill="#9999a5"/>
        <path id="Path_19624" data-name="Path 19624" d="M1153.881,6673.155l.57-1.618-3.618-5.429s-1.578,2.592-1.557,3.342S1153.881,6673.155,1153.881,6673.155Z" transform="translate(-1127.628 -6613.705)" fill="#9999a5"/>
        <path id="Path_19625" data-name="Path 19625" d="M1150.737,6677.859l-1.187,1.255-6.48-.813s1.6-2.613,2.279-2.934S1150.737,6677.859,1150.737,6677.859Z" transform="translate(-1124.402 -6618.504)" fill="#9999a5"/>
      </g>
      <g id="Group_13388" data-name="Group 13388" transform="translate(350.824 191.336)">
        <g id="Group_13387" data-name="Group 13387" transform="translate(0 58.02)">
          <path id="Path_19626" data-name="Path 19626" d="M1184.764,6678.719c-2.2.7-9.317,2.37-8.733,4.771.523,2.149,4.242,4.025,9.961-2.957Z" transform="translate(-1175.933 -6678.719)" fill="#9999a5"/>
          <path id="Path_19627" data-name="Path 19627" d="M1178.389,6691.208c-.166-.5.705-.877,1.748-1.157s1.858-.361,2.027.138-.541,1.13-1.584,1.41S1178.557,6691.706,1178.389,6691.208Z" transform="translate(-1177.166 -6684.492)" fill="#9999a5"/>
          <path id="Path_19628" data-name="Path 19628" d="M1176.825,6688.415c-.166-.5.7-.877,1.748-1.158s1.859-.36,2.027.139-.54,1.129-1.583,1.41S1176.993,6688.913,1176.825,6688.415Z" transform="translate(-1176.353 -6683.041)" fill="#9999a5"/>
          <path id="Path_19629" data-name="Path 19629" d="M1180.339,6693.659c-.167-.5.7-.876,1.748-1.157s1.859-.361,2.028.137-.541,1.129-1.584,1.412S1180.508,6694.156,1180.339,6693.659Z" transform="translate(-1178.179 -6685.766)" fill="#9999a5"/>
          <path id="Path_19630" data-name="Path 19630" d="M1176.11,6685.97c.483-.239,1.3.884,2.1,2.233s1.252,2.409.769,2.649-1.513-.662-2.3-2.012S1175.627,6686.207,1176.11,6685.97Z" transform="translate(-1175.864 -6682.471)" fill="#9999a5"/>
          <path id="Path_19631" data-name="Path 19631" d="M1181.392,6683.618c.306-.258,1.163.263,1.975,1.1s1.276,1.666.971,1.925-1.211-.209-2.024-1.045S1181.088,6683.875,1181.392,6683.618Z" transform="translate(-1178.685 -6681.231)" fill="#9999a5"/>
          <path id="Path_19632" data-name="Path 19632" d="M1185.893,6680.508a1.5,1.5,0,0,1-.893,2.084c-1.14.232-3.562-.014-3.623-.41s.75-1.067,2.047-1.388C1184.551,6680.515,1185.275,6679.952,1185.893,6680.508Z" transform="translate(-1178.728 -6679.526)" fill="#9999a5"/>
        </g>
        <path id="Path_19633" data-name="Path 19633" d="M1193.506,6558.2c6.338-4.3,23.979,39.665,24.011,41.123,0,0-3.119,4.058-4.385,2.937C1209.8,6599.317,1190.687,6560.117,1193.506,6558.2Z" transform="translate(-1184.887 -6557.909)" fill="#9999a5"/>
        <path id="Path_19634" data-name="Path 19634" d="M1192.695,6659.61c-4-3.668,19.8-21.354,20.92-21.665,0,0,3.791,1.637,3.162,2.836C1215.151,6643.884,1194.48,6661.248,1192.695,6659.61Z" transform="translate(-1184.377 -6599.507)" fill="#9999a5"/>
        <path id="Path_19635" data-name="Path 19635" d="M1191.246,6679.743l1.4.991,6.212-2s-2.063-2.227-2.789-2.412S1191.246,6679.743,1191.246,6679.743Z" transform="translate(-1183.859 -6619.452)" fill="#9999a5"/>
        <path id="Path_19636" data-name="Path 19636" d="M1190.435,6675.551l-.881-1.484,2.553-6.01s2.074,2.254,2.2,2.994S1190.435,6675.551,1190.435,6675.551Z" transform="translate(-1182.979 -6615.158)" fill="#9999a5"/>
      </g>
      <g id="Group_13389" data-name="Group 13389" transform="translate(327.805 177.888)">
        <rect id="Rectangle_4572" data-name="Rectangle 4572" width="7.585" height="15.078" transform="translate(18.724)" fill="#9999a5"/>
        <path id="Path_19637" data-name="Path 19637" d="M1170.6,6621.547c-17.961,14.09-36.259,9.854-42.663,0,17.256-25.021-7.477-65.266,21.967-66.571C1178.265,6553.721,1152.165,6600.209,1170.6,6621.547Z" transform="translate(-1127.934 -6542.924)" fill="#9999a5"/>
      </g>
      <path id="Path_19638" data-name="Path 19638" d="M1188.867,6514.167c0-1.428-1.971-2.587-4.4-2.587s-4.4,1.159-4.4,2.587,1.971,2.587,4.4,2.587S1188.867,6515.6,1188.867,6514.167Z" transform="translate(-827.222 -6342.494)" fill="#7b88ac"/>
      <g id="Group_13390" data-name="Group 13390" transform="translate(334.334 140.49)">
        <path id="Path_19639" data-name="Path 19639" d="M1160.144,6507.513c-4.921.119-16.374-15.055-12.254-34.141.834-3.858,4.412-6.153,11.278-6.318,7.553-.183,11.066,2.08,11.69,5.172C1175.28,6494.095,1165.18,6507.392,1160.144,6507.513Z" transform="translate(-1144.379 -6459.836)" fill="#9999a5"/>
        <path id="Path_19640" data-name="Path 19640" d="M1149.074,6497.2c-3.97-3.078-11.612-19.553-4.864-28.585,9.47-12.673,24.286-4.358,26.2,4.269a27.176,27.176,0,0,1-7.246,25.408C1156.814,6504.744,1149.074,6497.2,1149.074,6497.2Z" transform="translate(-1141.529 -6457.278)" fill="#9999a5"/>
        <path id="Path_19641" data-name="Path 19641" d="M1173.734,6472.283c0-1.428-1.971-2.587-4.4-2.587s-4.4,1.159-4.4,2.587,1.971,2.587,4.4,2.587S1173.734,6473.712,1173.734,6472.283Z" transform="translate(-1153.69 -6461.215)" fill="#9999a5"/>
        <ellipse id="Ellipse_139" data-name="Ellipse 139" cx="6.935" cy="5.836" rx="6.935" ry="5.836" transform="translate(9.053)" fill="#9999a5"/>
      </g>
      <g id="students" transform="translate(0 234.329)">
        <g id="Group_35" data-name="Group 35">
          <path id="Path_179" data-name="Path 179" d="M540.128,6688.909H450.844l-5.4-33.971c-.632-3.973,3-7.508,7.711-7.508h73.584c3.894,0,7.188,2.449,7.71,5.734Z" transform="translate(-445.374 -6647.429)" fill="#2e3667"/>
          <path id="Path_180" data-name="Path 180" d="M747.126,6688.909H657.84l-4.075-34.19c-.464-3.9,3.134-7.29,7.742-7.29h73.644c3.992,0,7.338,2.572,7.742,5.953Z" transform="translate(-553.663 -6647.429)" fill="#2e3667"/>
          <path id="Path_181" data-name="Path 181" d="M952.617,6654.719l-4.074,34.19H859.256l4.233-35.527c.4-3.38,3.747-5.953,7.742-5.953h73.644C949.482,6647.429,953.081,6650.818,952.617,6654.719Z" transform="translate(-660.486 -6647.429)" fill="#2e3667"/>
          <path id="Path_182" data-name="Path 182" d="M1159.472,6654.938l-5.4,33.971H1064.79l5.679-35.746c.522-3.285,3.816-5.734,7.71-5.734h73.583C1156.471,6647.429,1160.1,6650.964,1159.472,6654.938Z" transform="translate(-767.31 -6647.429)" fill="#2e3667"/>
        </g>
      </g>
    </g>
    <g id="Group_13391" data-name="Group 13391" transform="translate(294.624 4780.825)">
      <rect id="Rectangle_4573" data-name="Rectangle 4573" width="53.075" height="25.588" rx="6.672" transform="translate(0 0)" fill="#fff" stroke="#231f20" stroke-miterlimit="10" stroke-width="0.25"/>
      <text id="Nick" transform="translate(16.538 16.294)" fill="#2d356b" font-size="10" font-family="TrebuchetMS-Bold, Trebuchet MS" font-weight="700"><tspan x="0" y="0">Nick</tspan></text>
    </g>
    <text id="New_business_Goal:_Launch_in_2025_" data-name="New business

Goal:   Launch in 2025
" transform="translate(84.024 4700.961)" fill="#2d356b" font-size="20" font-family="TrebuchetMS-Bold, Trebuchet MS" font-weight="700"><tspan text-decoration="underline"><tspan x="0" y="0">New business</tspan></tspan><tspan font-size="17"><tspan x="0" y="20"></tspan></tspan><tspan x="0" y="40">Goal:</tspan><tspan y="40" xml:space="preserve" font-size="17">   </tspan><tspan y="40" fill="#7588ac">Launch in 2025</tspan><tspan fill="#7588ac" font-family="TrebuchetMS-Bold"><tspan x="0" y="60"></tspan></tspan></text>
  </g>
</svg>
