<svg xmlns="http://www.w3.org/2000/svg" width="163.093" height="149.35" viewBox="0 0 163.093 149.35">
  <g id="Group_16313" data-name="Group 16313" transform="translate(-418.235 -2917.421)">
    <g id="Group_16181" data-name="Group 16181" transform="translate(484.445 2927.964)">
      <g id="Group_16169" data-name="Group 16169" transform="translate(0 46.968)">
        <path id="Path_18100" data-name="Path 18100" d="M719.2,2800.578l7.125.68c5.405,18.764-5.059,44.6.839,79.887,0,0-1.241.51-1.32,0C719.906,2842.716,724.634,2826.641,719.2,2800.578Z" transform="translate(-714.326 -2799.898)" fill="#f7c371"/>
        <path id="Path_18101" data-name="Path 18101" d="M705.3,2812.534c-5.549,13.9-.388,12.092,1.136,18.576,5.7,24.261-.108,29.327.168,59,0,0,1.618-.331,1.6-.757-.946-23.56,10.066-47.97,7.739-69.617C715.561,2816.209,705.3,2812.534,705.3,2812.534Z" transform="translate(-702.618 -2808.428)" fill="#ffd8a3"/>
        <path id="Path_18102" data-name="Path 18102" d="M719.732,3079.4h-4.943s-.239-1.363.864-1.582C716.347,3077.68,717.575,3078,719.732,3079.4Z" transform="translate(-711.166 -2997.684)" fill="#7b87ab"/>
        <path id="Path_18103" data-name="Path 18103" d="M746.7,3079.4h-4.346s-.209-1.364.759-1.582C743.726,3077.68,744.805,3078,746.7,3079.4Z" transform="translate(-730.836 -2997.684)" fill="#7b87ab"/>
        <path id="Path_18104" data-name="Path 18104" d="M702.636,2838a43.6,43.6,0,0,0,12.344,1.231s3.59-27.7-1.334-38.058a4.757,4.757,0,0,0-8.412-.786C698.26,2810.821,705.953,2819.848,702.636,2838Z" transform="translate(-702.198 -2798.204)" fill="#fff3b9"/>
      </g>
      <g id="Group_16180" data-name="Group 16180" transform="translate(0.013 0)">
        <g id="Group_16179" data-name="Group 16179">
          <g id="Group_16178" data-name="Group 16178">
            <g id="Group_16175" data-name="Group 16175" transform="translate(1.075)">
              <g id="Group_16174" data-name="Group 16174">
                <g id="Group_16170" data-name="Group 16170" transform="translate(0.759)">
                  <path id="Path_18105" data-name="Path 18105" d="M726.278,2667.379c4.384-.5.826-4.1,2.638-6.083s1.761-.959,4.207-3.441,2.5-4.064,3.674-5.7,4.258-3.431,4.9-6.153-.44-2.465,0-4.686-1.668-1.052-3.545-1.363-.437-5.322-3.9-5.654-5.525,2.8-7.506,3.924-4.813.009-7.467,2.7-.483,3.3-2.812,4.776-4.247-.271-6.9,2.424c0,0-2.58,2.767.865,5.182s1.03,3.39,5.53,5.029.829,3.89,4.3,4.653S722.362,2667.825,726.278,2667.379Z" transform="translate(-708.641 -2634.274)" fill="#2d356b"/>
                </g>
                <g id="Group_16171" data-name="Group 16171" transform="translate(0 11.53)">
                  <path id="Path_18106" data-name="Path 18106" d="M777.044,2674.516l2.177,4.026-3.516,7.64-2.157-2.512Z" transform="translate(-754.193 -2674.516)" fill="#f7c371"/>
                  <path id="Path_18107" data-name="Path 18107" d="M718.393,2741.076c-1.366-2.646-4.62-4.434-12.4-3.7,1.667-5.978,5.352-8.59,7.684-12.593,4.323-7.421,2.929-19.794,10.1-20.2,7.611-.436,4.879,19.885,4.879,19.885C721.3,2724.451,721.075,2730.8,718.393,2741.076Z" transform="translate(-705.993 -2695.961)" fill="#ffe200"/>
                  <path id="Path_18108" data-name="Path 18108" d="M770.715,2703.009l1.046.439,2.055,6.6-1.917.363A35.1,35.1,0,0,1,770.715,2703.009Z" transform="translate(-752.17 -2694.845)" fill="#fff"/>
                  <path id="Path_18109" data-name="Path 18109" d="M778.041,2713.309l.086-.01c.147-2.962-.385-7.926-2.955-9.078C776.274,2707.46,778.041,2713.309,778.041,2713.309Z" transform="translate(-755.351 -2695.711)" fill="#f7c371"/>
                </g>
                <g id="Group_16173" data-name="Group 16173" transform="translate(19.255 0.288)">
                  <g id="Group_16172" data-name="Group 16172">
                    <path id="Path_18110" data-name="Path 18110" d="M776.876,2652.827c-1.244-1.745-4.054-4.886-3.638-8.572.541-4.792,2.638-6.32,5.24-8.139,4.96-3.468,10.938,4.915,9.373,5.853C785.775,2643.214,781.386,2659.151,776.876,2652.827Z" transform="translate(-773.197 -2635.28)" fill="#2d356b"/>
                    <path id="Path_18111" data-name="Path 18111" d="M782.972,2669.1c.584.476,4.088-1.693,6.285-3.754.725-.68-.024-1.439,2.148-4,1.276-1.5,2.293-4.2.969-7.8-1.25-3.4-5.294,1.2-6.393,2.125-3.133,2.643-5.527,3.954-5.957,6.117C779.185,2666.015,782.463,2668.44,782.972,2669.1Z" transform="translate(-777.97 -2647.432)" fill="#ffd8a3"/>
                    <path id="Path_18112" data-name="Path 18112" d="M799.326,2698.688a.173.173,0,0,1,.235-.068.183.183,0,0,1,.013.25.175.175,0,0,1-.236.068A.183.183,0,0,1,799.326,2698.688Z" transform="translate(-791.809 -2680.456)" fill="#ffab00"/>
                    <path id="Path_18113" data-name="Path 18113" d="M810.781,2681.073c.348-.4.85-.525,1.121-.281s.208.766-.14,1.165-.85.525-1.121.281S810.432,2681.473,810.781,2681.073Z" transform="translate(-799.793 -2667.664)" fill="#2d356b"/>
                    <path id="Path_18114" data-name="Path 18114" d="M809.287,2680.4a2.063,2.063,0,0,1,2.653.9A5.068,5.068,0,0,0,809.287,2680.4Z" transform="translate(-798.947 -2667.363)" fill="#2d356b"/>
                    <path id="Path_18115" data-name="Path 18115" d="M799.354,2704.469c.088-.089.157.483.3.6.4.32-.086.775-.452.413C799.056,2705.337,799.262,2704.564,799.354,2704.469Z" transform="translate(-791.714 -2684.639)" fill="#f36973"/>
                    <path id="Path_18116" data-name="Path 18116" d="M801.011,2699.933c-.208-.306,2.088.439,1.3.856C802.1,2700.83,801.117,2700.089,801.011,2699.933Z" transform="translate(-793.032 -2681.358)" fill="#f36973"/>
                    <path id="Path_18117" data-name="Path 18117" d="M814.031,2673.8a3.089,3.089,0,0,0-4.144-.678A3.96,3.96,0,0,1,814.031,2673.8Z" transform="translate(-799.375 -2661.916)" fill="#2d356b"/>
                    <path id="Path_18118" data-name="Path 18118" d="M810.526,2691.456,809.4,2691l1.848-2.336.009,2.742Z" transform="translate(-799.025 -2673.366)" fill="#ffd8a3"/>
                    <path id="Path_18119" data-name="Path 18119" d="M807.531,2697.905l1.867-.858-.659-.577Z" transform="translate(-797.694 -2678.939)" fill="#ffd8a3"/>
                    <path id="Path_18120" data-name="Path 18120" d="M799.795,2701.525a10.7,10.7,0,0,0,1.444-1.11l-1.745-1.179A2.548,2.548,0,0,0,799.795,2701.525Z" transform="translate(-791.853 -2680.912)" fill="#ffab00"/>
                    <path id="Path_18121" data-name="Path 18121" d="M800.486,2700.63l.994.671q.215-.132.427-.288l-1.426-.964Z" transform="translate(-792.664 -2681.492)" fill="#fff"/>
                    <path id="Path_18122" data-name="Path 18122" d="M782.85,2667.114c.617-.683,1.286-1.011.767-1.478a1.73,1.73,0,0,0-2.234,2.474C781.9,2668.577,782.233,2667.8,782.85,2667.114Z" transform="translate(-778.792 -2656.751)" fill="#f7c371"/>
                  </g>
                  <path id="Path_18123" data-name="Path 18123" d="M795.522,2653.888c-3.826,1.2-9.917,2.538-12.2,6.819,1.682-5.17,6.631-9.863,11-9.9C794.272,2651.428,796.7,2653.211,795.522,2653.888Z" transform="translate(-780.42 -2646.361)" fill="#2d356b"/>
                </g>
              </g>
            </g>
            <g id="Group_16177" data-name="Group 16177" transform="translate(0 20.084)">
              <g id="Group_16176" data-name="Group 16176" transform="translate(10.117 30.114)">
                <path id="Path_18124" data-name="Path 18124" d="M748.732,2825.69c.19-.3-.305-.693-.927-1.055s-1.131-.554-1.323-.259.157.83.779,1.192S748.541,2825.985,748.732,2825.69Z" transform="translate(-743.887 -2820.005)" fill="#f7c371"/>
                <path id="Path_18125" data-name="Path 18125" d="M745.947,2827.806c.191-.3-.305-.693-.927-1.055s-1.131-.556-1.323-.26.158.829.78,1.192S745.756,2828.1,745.947,2827.806Z" transform="translate(-741.9 -2821.514)" fill="#f7c371"/>
                <path id="Path_18126" data-name="Path 18126" d="M751.733,2822.456c-.27-.238-.984.352-1.717,1.1s-1.206,1.355-.936,1.595,1.081-.171,1.813-.915S752,2822.694,751.733,2822.456Z" transform="translate(-745.723 -2818.7)" fill="#ffd8a3"/>
                <path id="Path_18127" data-name="Path 18127" d="M738.644,2809.48c1.3.834,5.577,3.146,4.8,4.611-.695,1.31-3.393,1.894-5.891-3.639Z" transform="translate(-737.554 -2809.48)" fill="#ffd8a3"/>
              </g>
              <path id="Path_18128" data-name="Path 18128" d="M719.964,2704.69c-2.7-2.977-17.483,16.021-17.722,16.843,0,0,1.191,2.812,2.089,2.355C706.654,2722.706,721.171,2706.02,719.964,2704.69Z" transform="translate(-702.242 -2704.374)" fill="#fff4ba"/>
              <path id="Path_18129" data-name="Path 18129" d="M713.21,2775.568c2.705-1.429-7.748-14.482-8.313-14.811,0,0-2.3.351-2.13,1.094C703.211,2763.776,712,2776.206,713.21,2775.568Z" transform="translate(-702.61 -2744.602)" fill="#fff4ba"/>
              <path id="Path_18130" data-name="Path 18130" d="M730.935,2806.915l-.906.34-3.1-1.977a7.506,7.506,0,0,1,1.866-.917C729.215,2804.364,730.935,2806.915,730.935,2806.915Z" transform="translate(-719.854 -2775.714)" fill="#eaeaea"/>
              <path id="Path_18131" data-name="Path 18131" d="M737.049,2802.659l.693-.683-.533-3.644a7.561,7.561,0,0,0-1.628,1.319C735.407,2800.037,737.049,2802.659,737.049,2802.659Z" transform="translate(-726.02 -2771.412)" fill="#eaeaea"/>
            </g>
          </g>
        </g>
      </g>
    </g>
    <g id="Group_16188" data-name="Group 16188" transform="translate(537.498 2917.421)">
      <g id="Group_16182" data-name="Group 16182" transform="translate(0.654 56.617)">
        <path id="Path_18132" data-name="Path 18132" d="M906.437,2797.952l-7.191.686c-5.455,18.938,5.106,45.01-.847,80.628,0,0,1.253.514,1.332,0C905.72,2840.481,900.949,2824.257,906.437,2797.952Z" transform="translate(-895.34 -2797.13)" fill="#f7c371"/>
        <path id="Path_18133" data-name="Path 18133" d="M907.05,2795.082c7.7,13.786,2.276,12.733,1.77,19.847-1.894,26.621,4.69,31.018,9.051,62.468,0,0-1.665-.082-1.714-.535-2.737-25.091-17.531-49.1-18.593-72.392C897.39,2800.673,907.05,2795.082,907.05,2795.082Z" transform="translate(-895.294 -2795.082)" fill="#ffd8a3"/>
        <path id="Path_18134" data-name="Path 18134" d="M950.856,3078.945h4.989s.242-1.376-.871-1.6C954.273,3077.208,953.033,3077.53,950.856,3078.945Z" transform="translate(-933.32 -2996.454)" fill="#7b87ab"/>
        <path id="Path_18135" data-name="Path 18135" d="M889.65,3079.363h4.386s.212-1.377-.766-1.6C892.653,3077.627,891.564,3077.947,889.65,3079.363Z" transform="translate(-889.65 -2996.753)" fill="#7b87ab"/>
        <path id="Path_18136" data-name="Path 18136" d="M909.791,2835.727a44.034,44.034,0,0,1-12.459,1.242s-3.624-27.954,1.346-38.412a4.8,4.8,0,0,1,8.49-.793C914.208,2808.29,906.443,2817.4,909.791,2835.727Z" transform="translate(-894.221 -2795.42)" fill="#2d356b"/>
      </g>
      <g id="Group_16183" data-name="Group 16183" transform="translate(0 16.424)">
        <path id="Path_18137" data-name="Path 18137" d="M925.868,2654.8l-4.038,2.537-.725,8.731,3.244-1.174Z" transform="translate(-911.439 -2654.799)" fill="#f7c371"/>
        <path id="Path_18138" data-name="Path 18138" d="M889.364,2730.407c2.595-1.7,8.619-5.458,15.3-.805-2-5.868-3.813-11.636-3.877-16.462-.12-8.947,7.485-19.456,1.193-23.5-6.681-4.294-14.614,15.538-14.614,15.538C894.046,2708.935,892.2,2719.708,889.364,2730.407Z" transform="translate(-887.366 -2679.222)" fill="#40558d"/>
        <path id="Path_18139" data-name="Path 18139" d="M920.779,2688l-1.174-.138-5.245,4.935,1.553,1.311A36.588,36.588,0,0,0,920.779,2688Z" transform="translate(-906.626 -2678.391)" fill="#fff"/>
        <path id="Path_18140" data-name="Path 18140" d="M906.589,2693.91l-.073-.054c1.384-2.763,4.41-6.992,7.331-6.721C911.188,2689.508,906.589,2693.91,906.589,2693.91Z" transform="translate(-901.029 -2677.862)" fill="#f7c371"/>
      </g>
      <g id="Group_16185" data-name="Group 16185" transform="translate(7.495 28.996)">
        <g id="Group_16184" data-name="Group 16184" transform="translate(0 27.832)">
          <path id="Path_18141" data-name="Path 18141" d="M917.474,2809.934c-.179-.236.213-.6.712-.944s.916-.537,1.1-.3-.08.706-.58,1.048S917.653,2810.17,917.474,2809.934Z" transform="translate(-916.311 -2804.928)" fill="#f7c371"/>
          <path id="Path_18142" data-name="Path 18142" d="M919.951,2811.531c-.179-.236.212-.6.712-.943s.916-.538,1.1-.3-.08.705-.58,1.049S920.13,2811.766,919.951,2811.531Z" transform="translate(-918.078 -2806.067)" fill="#f7c371"/>
          <path id="Path_18143" data-name="Path 18143" d="M913.586,2807.768c.212-.218.85.233,1.514.809s1.1,1.06.889,1.277-.919-.075-1.583-.652S913.375,2807.985,913.586,2807.768Z" transform="translate(-913.526 -2804.305)" fill="#ffd8a3"/>
          <path id="Path_18144" data-name="Path 18144" d="M917.755,2795.819c-1.037.783-4.488,2.994-3.742,4.173.668,1.055,2.974,1.373,4.722-3.427Z" transform="translate(-913.799 -2795.819)" fill="#ffd8a3"/>
        </g>
        <path id="Path_18145" data-name="Path 18145" d="M928.816,2768.425c2.506,1.724,10.3-9.255,10.333-9.9,0,0-1.365-1.865-1.946-1.372C935.7,2758.424,927.7,2767.655,928.816,2768.425Z" transform="translate(-924.359 -2740.338)" fill="#7b87ab"/>
        <path id="Path_18146" data-name="Path 18146" d="M940.2,2698.908c2.878-2.588,7.742,17.473,6.9,18.252,0,0-1.843,1.026-2.519.328C942.539,2715.381,938.913,2700.064,940.2,2698.908Z" transform="translate(-932.365 -2698.678)" fill="#7b87ab"/>
        <path id="Path_18147" data-name="Path 18147" d="M925.806,2789.841l-.521-.713,1.158-3.263s1.182,1.039,1.274,1.414S925.806,2789.841,925.806,2789.841Z" transform="translate(-921.916 -2760.885)" fill="#eaeaea"/>
        <path id="Path_18148" data-name="Path 18148" d="M926.907,2794.435l.795.436,3.291-1.422a6.758,6.758,0,0,0-1.6-1.1C929,2792.3,926.907,2794.435,926.907,2794.435Z" transform="translate(-923.073 -2765.512)" fill="#eaeaea"/>
      </g>
      <g id="Group_16187" data-name="Group 16187" transform="translate(3.652 0)">
        <path id="Path_18149" data-name="Path 18149" d="M954.59,2597.709a3.5,3.5,0,0,1,4.417,2.146c.844,1.9.236,4.008-1.359,4.718s-3.573-.25-4.417-2.146A3.5,3.5,0,0,1,954.59,2597.709Z" transform="translate(-937.74 -2597.475)" fill="#ffab00"/>
        <path id="Path_18150" data-name="Path 18150" d="M950.349,2609.574c.727-.268,1.685.517,2.141,1.753s.237,2.456-.489,2.724-1.685-.518-2.141-1.753S949.623,2609.843,950.349,2609.574Z" transform="translate(-935.437 -2606.071)" fill="#54aeae"/>
        <g id="Group_16186" data-name="Group 16186" transform="translate(0 2.833)">
          <path id="Path_18151" data-name="Path 18151" d="M916,2625.6c2.153-.591,6.489-1.281,8.578-4.532,2.715-4.227,2.026-6.842,1.121-10.023-1.726-6.064-12.069-3.225-11.423-1.438C915.139,2611.984,908.2,2627.746,916,2625.6Z" transform="translate(-908.776 -2607.364)" fill="#ffab00"/>
          <path id="Path_18152" data-name="Path 18152" d="M905.616,2632.03c-.785,0-2.19-4.057-2.608-7.168-.138-1.026.966-1.146.9-4.646-.041-2.055.908-4.9,4.348-6.939,3.248-1.927,3.489,4.449,3.767,5.922.793,4.2,1.864,6.831.788,8.861C910.707,2632.024,906.464,2631.827,905.616,2632.03Z" transform="translate(-902.169 -2611.326)" fill="#ffd8a3"/>
          <path id="Path_18153" data-name="Path 18153" d="M911.855,2660.118a.181.181,0,0,0-.163-.2.19.19,0,0,0-.157.209.181.181,0,0,0,.164.2A.189.189,0,0,0,911.855,2660.118Z" transform="translate(-908.262 -2644.863)" fill="#ffab00"/>
          <path id="Path_18154" data-name="Path 18154" d="M910.807,2640.175c-.019-.552-.341-.983-.72-.965s-.672.482-.653,1.034.342.983.721.964S910.826,2640.727,910.807,2640.175Z" transform="translate(-906.763 -2630.085)" fill="#2d356b"/>
          <path id="Path_18155" data-name="Path 18155" d="M910.1,2640.075a2.149,2.149,0,0,0-2.733-1.02A5.281,5.281,0,0,1,910.1,2640.075Z" transform="translate(-905.291 -2629.859)" fill="#2d356b"/>
          <path id="Path_18156" data-name="Path 18156" d="M906.72,2668.275c-.023-.128-.417.326-.6.342-.529.045-.378.719.15.62C906.471,2669.2,906.744,2668.411,906.72,2668.275Z" transform="translate(-904.161 -2650.807)" fill="#f36973"/>
          <path id="Path_18157" data-name="Path 18157" d="M906.412,2660.112c.358-.142-2.059-.838-1.621-.019A3.793,3.793,0,0,0,906.412,2660.112Z" transform="translate(-903.412 -2644.706)" fill="#f36973"/>
          <path id="Path_18158" data-name="Path 18158" d="M907.678,2629.213a3.219,3.219,0,0,1,3.579,2.516A4.127,4.127,0,0,0,907.678,2629.213Z" transform="translate(-905.51 -2622.945)" fill="#2d356b"/>
          <path id="Path_18159" data-name="Path 18159" d="M900.665,2647.8l1.215.372.044-3.1-1.811,2.209Z" transform="translate(-900.113 -2634.263)" fill="#ffd8a3"/>
          <path id="Path_18160" data-name="Path 18160" d="M902.367,2656.025l-.944-1.921.912-.032Z" transform="translate(-901.047 -2640.689)" fill="#ffd8a3"/>
          <path id="Path_18161" data-name="Path 18161" d="M905.049,2663.37a22.929,22.929,0,0,1-.6-2.693h2.194S906.209,2663,905.049,2663.37Z" transform="translate(-903.207 -2645.402)" fill="#ffab00"/>
          <path id="Path_18162" data-name="Path 18162" d="M906.294,2662.249h-1.25q-.108-.508-.2-1.059h1.793Z" transform="translate(-903.488 -2645.768)" fill="#fff"/>
          <path id="Path_18163" data-name="Path 18163" d="M940.485,2645.667c-.05-.957-.373-1.663.353-1.7s1.357.711,1.406,1.669a1.57,1.57,0,0,1-1.229,1.8C940.287,2647.474,940.533,2646.625,940.485,2645.667Z" transform="translate(-928.836 -2633.48)" fill="#f7c371"/>
        </g>
        <path id="Path_18164" data-name="Path 18164" d="M916,2612.328c2.3,3.482,6.342,8.573,5.371,13.535,2.043-5.283,1.131-12.33-2.373-15.231C918.626,2611.163,915.489,2611,916,2612.328Z" transform="translate(-911.407 -2606.863)" fill="#ffab00"/>
      </g>
    </g>
    <g id="Group_16189" data-name="Group 16189" transform="translate(463.288 3041.802)">
      <path id="Path_18165" data-name="Path 18165" d="M628.352,3090.93v21.649H741.695l4.7-10.745-4.7-10.9Z" transform="translate(-628.352 -3090.93)" fill="#ffac00"/>
      <text id="Client_visit" data-name="Client visit" transform="translate(23.399 16.165)" fill="#fff" font-size="14" font-family="TrebuchetMS-Bold, Trebuchet MS" font-weight="700"><tspan x="0" y="0">Client visit</tspan></text>
    </g>
    <g id="Group_16222" data-name="Group 16222" transform="translate(418.235 2928.973)">
      <g id="Group_16209" data-name="Group 16209" transform="translate(4.862 0)">
        <g id="Group_16208" data-name="Group 16208">
          <path id="Path_18218" data-name="Path 18218" d="M492.72,2807.18c-4.616-6.348,1.681-9.606,1.507-15.849s-5.589-4.5-6.112-12.577,4.418-10.014,4.807-14.672-5.922-6.1-3.07-11.846,7.288-5.481,9.756-10.041,9.228-6.853,12.832-4.537,8.367-5.264,14.658-.573,5.238,13.327,6.944,18.313,8.075,7.353,8.642,16.117-3.953,6.511-2.174,12.65,7.528,6,8.1,14.765c0,0,.338,8.779-8.939,7.758s-6.627,4.367-16.556.378-7.011,5.55-13.944,1.6S498.029,2814.48,492.72,2807.18Z" transform="translate(-488.077 -2735.521)" fill="#2d356b"/>
        </g>
      </g>
      <g id="Group_16211" data-name="Group 16211" transform="translate(0 55.366)">
        <g id="Group_16210" data-name="Group 16210" transform="translate(28.017 61.215)">
          <path id="Path_18219" data-name="Path 18219" d="M594.83,3164.93c.159-.6-.882-.994-2.116-1.267s-2.189-.32-2.351.277.709,1.3,1.943,1.575S594.669,3165.527,594.83,3164.93Z" transform="translate(-584.199 -3157.438)" fill="#f7c371"/>
          <path id="Path_18220" data-name="Path 18220" d="M591.31,3169.962c.16-.6-.882-.994-2.116-1.266s-2.189-.323-2.351.276.709,1.3,1.943,1.575S591.149,3170.557,591.31,3169.962Z" transform="translate(-581.688 -3161.028)" fill="#f7c371"/>
          <path id="Path_18221" data-name="Path 18221" d="M601.09,3155.049c-.578-.253-1.457,1.118-2.282,2.753s-1.289,2.914-.709,3.169,1.715-.866,2.541-2.5S601.668,3155.3,601.09,3155.049Z" transform="translate(-589.547 -3151.408)" fill="#ffd8a3"/>
          <path id="Path_18222" data-name="Path 18222" d="M570.2,3142.417c2.616.7,11.014,2.268,10.5,5.134-.458,2.564-4.656,4.988-11.8-2.925Z" transform="translate(-568.897 -3142.417)" fill="#ffd8a3"/>
        </g>
        <path id="Path_18223" data-name="Path 18223" d="M494.687,2929.015c-7-4.039-23.625,41.4-23.578,43.126,0,0,4.007,4.65,5.445,3.224C480.275,2971.676,497.813,2930.819,494.687,2929.015Z" transform="translate(-471.109 -2928.761)" fill="#fff4ba"/>
        <path id="Path_18224" data-name="Path 18224" d="M500.521,3091.795c4.3-4.4-23.727-22.963-25.009-23.245,0,0-4.191,2.084-3.406,3.4C474.137,3075.365,498.6,3093.758,500.521,3091.795Z" transform="translate(-471.75 -3028.499)" fill="#fff4ba"/>
        <path id="Path_18225" data-name="Path 18225" d="M553.63,3141.3l-1.525,1.208-7.154-1.879s2.2-2.647,3.009-2.9S553.63,3141.3,553.63,3141.3Z" transform="translate(-523.794 -3077.848)" fill="#eaeaea"/>
        <path id="Path_18226" data-name="Path 18226" d="M563.394,3129.774l.907-1.734-3.259-6.647s-2.21,2.679-2.306,3.525S563.394,3129.774,563.394,3129.774Z" transform="translate(-533.629 -3066.201)" fill="#eaeaea"/>
      </g>
      <g id="Group_16213" data-name="Group 16213" transform="translate(36.31 54.305)">
        <g id="Group_16212" data-name="Group 16212" transform="translate(0 61.562)">
          <path id="Path_18227" data-name="Path 18227" d="M603.638,3165.557c-.243-.568.731-1.111,1.912-1.557s2.121-.63,2.366-.062-.515,1.391-1.7,1.836S603.882,3166.125,603.638,3165.557Z" transform="translate(-601.95 -3156.806)" fill="#f7c371"/>
          <path id="Path_18228" data-name="Path 18228" d="M607.84,3170.032c-.244-.569.731-1.11,1.912-1.556s2.121-.633,2.367-.064-.515,1.39-1.7,1.837S608.085,3170.6,607.84,3170.032Z" transform="translate(-604.948 -3159.998)" fill="#f7c371"/>
          <path id="Path_18229" data-name="Path 18229" d="M598.073,3157.489c.536-.333,1.6.9,2.653,2.4s1.693,2.7,1.156,3.034-1.822-.612-2.874-2.113S597.536,3157.823,598.073,3157.489Z" transform="translate(-597.839 -3152.418)" fill="#ffd8a3"/>
          <path id="Path_18230" data-name="Path 18230" d="M607.977,3139.929c-2.489,1.067-10.575,3.823-9.657,6.586.821,2.471,5.323,4.27,11.263-4.586Z" transform="translate(-598.13 -3139.929)" fill="#ffd8a3"/>
        </g>
        <path id="Path_18231" data-name="Path 18231" d="M620.966,2925.468c6.352-5,29.313,37.593,29.512,39.3,0,0-3.3,5.176-4.927,3.971C641.34,2965.624,618.13,2927.7,620.966,2925.468Z" transform="translate(-614.169 -2925.06)" fill="#fff4ba"/>
        <path id="Path_18232" data-name="Path 18232" d="M633.575,3080.633c-4.886-3.736,20.193-26.125,21.421-26.588,0,0,4.446,1.462,3.858,2.88C657.333,3060.593,635.757,3082.3,633.575,3080.633Z" transform="translate(-622.886 -3017.089)" fill="#fff4ba"/>
        <path id="Path_18233" data-name="Path 18233" d="M631.543,3137.08l1.682.977,6.812-2.884s-2.555-2.3-3.394-2.439S631.543,3137.08,631.543,3137.08Z" transform="translate(-621.886 -3073.231)" fill="#eaeaea"/>
        <path id="Path_18234" data-name="Path 18234" d="M628.995,3126.8l-1.147-1.587,2.273-7.046s2.571,2.335,2.787,3.158S628.995,3126.8,628.995,3126.8Z" transform="translate(-619.25 -3062.84)" fill="#eaeaea"/>
      </g>
      <g id="Group_16214" data-name="Group 16214" transform="translate(10.502 36.63)">
        <path id="Path_18235" data-name="Path 18235" d="M507.764,2986.5s9.879,8.75,19.758,12.031l5.146-11.12,4.734,11.12s13.355-3.762,18.729-12.031c-10.883-15.78-15.182-28.947-3.9-45.372,0,0-4.543-29.371-21.008-30.1s-19.4,31.31-19.4,31.31C522.531,2958.382,526.036,2965.349,507.764,2986.5Z" transform="translate(-507.764 -2897.366)" fill="#ffe200"/>
        <path id="Path_18236" data-name="Path 18236" d="M566.466,2924.771a9.972,9.972,0,0,1,6.379,2.3c1.669-3.8,2.783-8.467,1.592-13.234-10.024-7.537-16.2.782-16.2.782s-1.313,5.192,2.221,12.172A9.951,9.951,0,0,1,566.466,2924.771Z" transform="translate(-543.605 -2897.124)" fill="#fff"/>
        <path id="Path_18237" data-name="Path 18237" d="M568.485,2913.283s-1.668,8.363,5.912,17.438c0,0,6.443-8.832,4.624-18.085C572.5,2906.408,568.485,2913.283,568.485,2913.283Z" transform="translate(-550.977 -2896.658)" fill="#f7c371"/>
        <rect id="Rectangle_1739" data-name="Rectangle 1739" width="8.598" height="16.119" transform="translate(18.541)" fill="#f7c371"/>
        <path id="Path_18238" data-name="Path 18238" d="M597.871,3047.928a1.209,1.209,0,1,0-1.209,1.209A1.209,1.209,0,0,0,597.871,3047.928Z" transform="translate(-570.329 -2994.187)" fill="#fff"/>
        <path id="Path_18239" data-name="Path 18239" d="M597.871,3080.909a1.209,1.209,0,1,0-1.209,1.209A1.209,1.209,0,0,0,597.871,3080.909Z" transform="translate(-570.329 -3017.718)" fill="#fff"/>
        <path id="Path_18240" data-name="Path 18240" d="M597.871,3146.872a1.209,1.209,0,1,0-1.209,1.209A1.209,1.209,0,0,0,597.871,3146.872Z" transform="translate(-570.329 -3064.782)" fill="#fff"/>
        <path id="Path_18241" data-name="Path 18241" d="M597.871,3113.891a1.209,1.209,0,1,0-1.209,1.209A1.209,1.209,0,0,0,597.871,3113.891Z" transform="translate(-570.329 -3041.25)" fill="#fff"/>
      </g>
      <g id="Group_16218" data-name="Group 16218" transform="translate(17.48 12.159)">
        <g id="Group_16216" data-name="Group 16216">
          <path id="Path_18242" data-name="Path 18242" d="M550.087,2813c-4.87.458-17.088-11.821-14.1-28.605.605-3.392,4.02-5.633,10.816-6.273,7.475-.7,11.084,1,11.881,3.623C564.318,2800.311,555.071,2812.527,550.087,2813Z" transform="translate(-534.549 -2777.959)" fill="#ffd8a3"/>
          <path id="Path_18243" data-name="Path 18243" d="M534.1,2841.328c-.331-1.052-.27-1.937-1.046-1.693a1.794,1.794,0,0,0-.807,2.346c.33,1.051,1.227,1.706,2,1.462S534.426,2842.38,534.1,2841.328Z" transform="translate(-532.119 -2821.935)" fill="#f7c371"/>
          <path id="Path_18244" data-name="Path 18244" d="M621.909,2833.184c.1-1.1-.152-1.953.682-1.875a1.81,1.81,0,0,1,1.327,2.132c-.1,1.1-.862,1.924-1.695,1.848S621.807,2834.284,621.909,2833.184Z" transform="translate(-596.043 -2816.02)" fill="#f7c371"/>
          <g id="Group_16215" data-name="Group 16215" transform="translate(2.966 10.116)">
            <path id="Path_18245" data-name="Path 18245" d="M542.472,2815.859c2.016.505,6.375,1.319,8.456-1.25C548.736,2816.034,546.982,2816.433,542.472,2815.859Z" transform="translate(-542.472 -2814.225)" fill="#2d356b"/>
            <path id="Path_18246" data-name="Path 18246" d="M592.517,2813.268c-1.979.818-6.305,2.308-8.872.094C586.13,2814.426,587.995,2814.545,592.517,2813.268Z" transform="translate(-571.848 -2813.268)" fill="#2d356b"/>
            <path id="Path_18247" data-name="Path 18247" d="M595.277,2829.573a1.356,1.356,0,1,0-1.485,1.544A1.534,1.534,0,0,0,595.277,2829.573Z" transform="translate(-578.273 -2823.602)" fill="#2d356b"/>
            <path id="Path_18248" data-name="Path 18248" d="M594.187,2827.79a4.471,4.471,0,0,0-5.554.341A11.285,11.285,0,0,1,594.187,2827.79Z" transform="translate(-575.407 -2823.051)" fill="#2d356b"/>
            <path id="Path_18249" data-name="Path 18249" d="M554.828,2833.2a1.356,1.356,0,1,1,1.75,1.235A1.534,1.534,0,0,1,554.828,2833.2Z" transform="translate(-551.222 -2826.032)" fill="#2d356b"/>
            <path id="Path_18250" data-name="Path 18250" d="M548.823,2831.689a4.485,4.485,0,0,1,5.547-.476A11.306,11.306,0,0,0,548.823,2831.689Z" transform="translate(-547.003 -2825.534)" fill="#2d356b"/>
            <path id="Path_18251" data-name="Path 18251" d="M575.5,2847.9a3.593,3.593,0,0,0,1.516.468,2.079,2.079,0,0,0,1.4-.8c.028-.408-1.458-4.783-1.84-4.789S575.413,2847.323,575.5,2847.9Z" transform="translate(-566.03 -2834.324)" fill="#ffab00"/>
            <path id="Path_18252" data-name="Path 18252" d="M577.692,2845.455c.01.09.456.193.608.179.261-.025.563-.187.559-.351-.011-.394-.221-4.858-1-4.741C577,2840.668,577.629,2844.887,577.692,2845.455Z" transform="translate(-567.399 -2832.726)" fill="#ffd8a3"/>
          </g>
        </g>
        <path id="Path_18253" data-name="Path 18253" d="M557.984,2840.712c-.054-.576-1.176-.942-2.5-.817s-2.363.694-2.309,1.27,1.176.942,2.505.817S558.038,2841.289,557.984,2840.712Z" transform="translate(-547.137 -2822.132)" fill="#ffd8a3"/>
        <path id="Path_18254" data-name="Path 18254" d="M596.193,2837.117c-.054-.576-1.176-.942-2.5-.817s-2.363.694-2.309,1.27,1.175.942,2.505.817S596.247,2837.694,596.193,2837.117Z" transform="translate(-574.399 -2819.567)" fill="#ffd8a3"/>
        <g id="Group_16217" data-name="Group 16217" transform="translate(10.933 26.649)">
          <path id="Path_18255" data-name="Path 18255" d="M580,2871.593a2.251,2.251,0,0,0-2.888-.185c-.391.1-1.266-.584-2.257.9-.3.453,1.089.112,2.518-.038S580.443,2871.907,580,2871.593Z" transform="translate(-573.512 -2870.971)" fill="#f36973"/>
          <path id="Path_18256" data-name="Path 18256" d="M581.8,2875.931c-.115-.532-.962-.3-2.069-.057s-2.054.39-1.939.922,1.1.771,2.211.532S581.918,2876.463,581.8,2875.931Z" transform="translate(-575.635 -2874.281)" fill="#f36973"/>
          <path id="Path_18257" data-name="Path 18257" d="M571.18,2873.683c.567-.532,2.4-.417,3.471-.564,1.158-.158,3.368-.51,3.715-.478-.308,1.6-2.151,1.539-3.276,1.726C573.9,2874.566,572.451,2875.54,571.18,2873.683Z" transform="translate(-570.921 -2872.161)" fill="#ffab00"/>
          <path id="Path_18258" data-name="Path 18258" d="M579.821,2873.584c-.479-.221-1.489.085-3.037.292a10.094,10.094,0,0,0-2.482.342C575.514,2874.619,578.64,2874.727,579.821,2873.584Z" transform="translate(-573.15 -2872.78)" fill="#fff"/>
          <path id="Path_18259" data-name="Path 18259" d="M595.878,2872.063a.272.272,0,1,0-.238.337A.294.294,0,0,0,595.878,2872.063Z" transform="translate(-588.16 -2871.544)" fill="#ffab00"/>
          <path id="Path_18260" data-name="Path 18260" d="M570.862,2875.1a.3.3,0,1,0-.258.366A.32.32,0,0,0,570.862,2875.1Z" transform="translate(-570.278 -2873.69)" fill="#ffab00"/>
        </g>
      </g>
      <g id="Group_16221" data-name="Group 16221" transform="translate(16.569 8.294)">
        <g id="Group_16220" data-name="Group 16220" transform="translate(10.284)">
          <path id="Path_18261" data-name="Path 18261" d="M582.135,2775.959c-4.573-1.407-16.038-5.414-17.3-11.07,0,0,11.178-2.158,14.108,3.3C582.643,2775.081,582.135,2775.959,582.135,2775.959Z" transform="translate(-564.834 -2764.468)" fill="#2d356b"/>
          <g id="Group_16219" data-name="Group 16219" transform="translate(0.945 2.351)">
            <path id="Path_18262" data-name="Path 18262" d="M577.17,2780.732c1.068,1.357,7.236,5.769,11.416,7.013S577.17,2780.732,577.17,2780.732Z" transform="translate(-574.581 -2778.423)" fill="#2d356b"/>
            <path id="Path_18263" data-name="Path 18263" d="M568.133,2772.675a21.366,21.366,0,0,0,4.946,6.729C575.2,2781.1,568.133,2772.675,568.133,2772.675Z" transform="translate(-568.133 -2772.675)" fill="#2d356b"/>
          </g>
        </g>
        <path id="Path_18264" data-name="Path 18264" d="M528.991,2788.364c3.462-1.927,12.081-7.235,12.425-13,0,0-9.109-.844-10.8,4.914C528.487,2787.551,528.991,2788.364,528.991,2788.364Z" transform="translate(-528.939 -2772.214)" fill="#2d356b"/>
      </g>
    </g>
  </g>
</svg>
