<svg xmlns="http://www.w3.org/2000/svg" width="540" height="403.893" viewBox="0 0 540 403.893">
  <g id="Group_12508" data-name="Group 12508" transform="translate(-68.299 -6969.03)">
    <g id="Group_12468" data-name="Group 12468" transform="translate(68.299 6970.196)">
      <g id="Group_12419" data-name="Group 12419" transform="translate(0)">
        <g id="Group_12418" data-name="Group 12418">
          <g id="Group_12417" data-name="Group 12417">
            <g id="Group_12416" data-name="Group 12416">
              <g id="Group_12415" data-name="Group 12415">
                <g id="Group_12412" data-name="Group 12412" transform="translate(0.677)">
                  <g id="Group_12408" data-name="Group 12408" transform="translate(0.155)">
                    <path id="Path_16718" data-name="Path 16718" d="M619.752,6987.3h.637v-14.129H82.821v295.276H619.747v-29.659h.005Z" transform="translate(-82.821 -6972.759)" fill="#fff"/>
                    <rect id="Rectangle_3925" data-name="Rectangle 3925" width="536.736" height="0.826" transform="translate(0 295.276)" fill="#a0bacb"/>
                    <rect id="Rectangle_3926" data-name="Rectangle 3926" width="537.568" height="0.826" fill="#7b88ac"/>
                  </g>
                  <g id="Group_12409" data-name="Group 12409" transform="translate(0 60.334)">
                    <path id="Path_16719" data-name="Path 16719" d="M196.726,7131.681v-.217h-9.939v.217H84.051V7311.7H295.032V7131.681Zm89.571,5.78v39.585H196.726v-39.585Zm-99.51,46.417v75.628h-94v-75.628Zm9.939,75.628v-75.628H286.3v75.628Zm-9.939-122.045v39.585h-94v-39.585Zm-94,128.875h94v39.586h-94Zm103.94,39.586v-39.586H286.3v39.586Z" transform="translate(-83.427 -7131.052)" fill="#ebebeb"/>
                    <path id="Path_16720" data-name="Path 16720" d="M294.643,7311.445H82.414V7130.6H185.15v-.217h11.187v.217h98.306Zm-210.981-.825H293.4v-179.2H195.089v-.217H186.4v.217H83.662Zm202.246-4.955H195.089v-40.411h90.819Zm-89.571-.826h88.323v-38.76H196.337Zm-9.939.826H91.149v-40.411H186.4Zm-94-.826H185.15v-38.76H92.4Zm193.511-45.59H195.089V7182.8h90.819Zm-89.571-.827h88.323v-74.8H196.337Zm-9.939.827H91.149V7182.8H186.4Zm-94-.827H185.15v-74.8H92.4Zm193.511-81.631H195.089v-40.412h90.819Zm-89.571-.827h88.323V7137.2H196.337Zm-9.939.827H91.149v-40.412H186.4Zm-94-.827H185.15V7137.2H92.4Z" transform="translate(-82.414 -7130.382)" fill="#ebebeb"/>
                  </g>
                  <g id="Group_12410" data-name="Group 12410" transform="translate(190.854 59.269)">
                    <path id="Path_16721" data-name="Path 16721" d="M919.664,7128.886v-.216h-9.116v.216H816.315v180.022h193.518V7128.886Zm82.157,5.781v39.586H919.664v-39.586Zm-91.274,46.416v75.628H824.327v-75.628Zm9.116,75.628v-75.628h82.157v75.628Zm-9.116-122.044v39.586H824.327v-39.586Zm-86.221,128.875h86.221v39.586H824.327Zm95.337,39.586v-39.586h82.157v39.586Z" transform="translate(-815.743 -7128.257)" fill="#ebebeb"/>
                    <path id="Path_16722" data-name="Path 16722" d="M1009.476,7308.651H814.814V7127.8h94.232v-.216h10.261v.216h90.169Zm-193.517-.826h192.373v-179.2H918.162v-.217h-7.972v.217H815.959Zm185.506-4.954h-83.3v-40.411h83.3Zm-82.157-.825h81.012v-38.761H919.307Zm-9.116.825H822.826v-40.411h87.365Zm-86.221-.825h85.076v-38.761H823.97Zm177.494-45.591h-83.3V7180h83.3Zm-82.157-.826h81.012v-74.8H919.307Zm-9.116.826H822.826V7180h87.365Zm-86.221-.826h85.076v-74.8H823.97ZM1001.464,7174h-83.3v-40.411h83.3Zm-82.157-.825h81.012V7134.41H919.307Zm-9.116.825H822.826v-40.411h87.365Zm-86.221-.825h85.076V7134.41H823.97Z" transform="translate(-814.814 -7127.587)" fill="#ebebeb"/>
                  </g>
                  <g id="Group_12411" data-name="Group 12411" transform="translate(370.359 60.334)">
                    <path id="Path_16723" data-name="Path 16723" d="M1638.074,7305.922h-53.241v-39.586h53.241v-6.83h-53.241v-75.628h53.241v-6.832h-53.241v-39.585h53.241v-5.78h-53.241v-.217h-9.939v.217H1472.158V7311.7h165.916Zm-63.18,0h-94v-39.586h94Zm0-46.416h-94v-75.628h94Zm0-82.46h-94v-39.585h94Z" transform="translate(-1471.535 -7131.052)" fill="#ebebeb"/>
                    <path id="Path_16724" data-name="Path 16724" d="M1766.136,7524.644H1820v-.825h-52.617v-38.76H1820v-.826h-53.865Z" transform="translate(-1653.462 -7349.361)" fill="#ebebeb"/>
                    <path id="Path_16725" data-name="Path 16725" d="M1766.136,7344.347H1820v-.825h-52.617v-74.8H1820v-.826h-53.865Z" transform="translate(-1653.462 -7215.48)" fill="#ebebeb"/>
                    <path id="Path_16726" data-name="Path 16726" d="M1766.136,7186.526H1820v-.826h-52.617v-38.759H1820v-.826h-53.865Z" transform="translate(-1653.462 -7140.118)" fill="#ebebeb"/>
                    <path id="Path_16727" data-name="Path 16727" d="M1588.688,7146.115h-95.249v40.412h95.249Zm-1.247,39.585h-92.753v-38.759h92.753Z" transform="translate(-1484.704 -7140.118)" fill="#ebebeb"/>
                    <path id="Path_16728" data-name="Path 16728" d="M1637.062,7310.62H1471.77v-179.2h102.736v-.217h8.691v.217h53.865v-.826h-52.617v-.216h-11.187v.216H1470.522v180.848h166.54Z" transform="translate(-1470.522 -7130.382)" fill="#ebebeb"/>
                    <path id="Path_16729" data-name="Path 16729" d="M1493.439,7524.644h95.249v-40.411h-95.249Zm1.248-39.585h92.753v38.76h-92.753Z" transform="translate(-1484.704 -7349.361)" fill="#ebebeb"/>
                    <path id="Path_16730" data-name="Path 16730" d="M1588.688,7267.894h-95.249v76.453h95.249Zm-1.247,75.628h-92.753v-74.8h92.753Z" transform="translate(-1484.704 -7215.48)" fill="#ebebeb"/>
                  </g>
                </g>
                <g id="Group_12413" data-name="Group 12413" transform="translate(0 260.141)">
                  <path id="Path_16731" data-name="Path 16731" d="M618.206,7655.516H81.28v101.31h-.642v40.926H618.2V7659.833h.005Z" transform="translate(-80.638 -7655.166)" fill="#f9f9f9"/>
                  <rect id="Rectangle_3927" data-name="Rectangle 3927" width="535.287" height="0.592" transform="translate(2.487 141.771)" fill="#f9f9f9"/>
                  <rect id="Rectangle_3928" data-name="Rectangle 3928" width="536.743" height="0.592" transform="translate(0.832)" fill="#f9f9f9"/>
                </g>
                <g id="Group_12414" data-name="Group 12414" transform="translate(5.4 5.206)">
                  <path id="Path_16732" data-name="Path 16732" d="M1181.578,7074.086v-88.34h-2.351v88.34c-7.33.45-13.1,5.048-13.1,10.664,0,5.913,6.39,10.707,14.271,10.707s14.271-4.794,14.271-10.707C1194.674,7079.134,1188.908,7074.537,1181.578,7074.086Z" transform="translate(-772.231 -6985.746)" fill="#ffb2b0"/>
                  <path id="Path_16733" data-name="Path 16733" d="M193.781,7092.393v-88.34H191.43v88.34c-7.331.45-13.1,5.048-13.1,10.664,0,5.913,6.389,10.708,14.271,10.708s14.271-4.795,14.271-10.708C206.876,7097.441,201.111,7092.843,193.781,7092.393Z" transform="translate(-178.334 -6997.075)" fill="#ffb2b0"/>
                  <path id="Path_16734" data-name="Path 16734" d="M541,7086.688v-64.227h-1.709v64.227c-5.329.326-9.521,3.669-9.521,7.752,0,4.3,4.646,7.784,10.376,7.784s10.376-3.484,10.376-7.784C550.52,7090.357,546.328,7087.015,541,7086.688Z" transform="translate(-398.404 -7008.467)" fill="#ffb2b0"/>
                  <path id="Path_16735" data-name="Path 16735" d="M1484.793,7086.688v-64.227h-1.71v64.227c-5.329.326-9.521,3.669-9.521,7.752,0,4.3,4.646,7.784,10.376,7.784s10.375-3.484,10.375-7.784C1494.313,7090.357,1490.122,7087.015,1484.793,7086.688Z" transform="translate(-959.713 -7008.467)" fill="#ffb2b0"/>
                </g>
              </g>
            </g>
          </g>
        </g>
      </g>
      <g id="Group_12456" data-name="Group 12456" transform="translate(51.807 143.623)">
        <g id="Group_12428" data-name="Group 12428" transform="translate(0 22.253)">
          <g id="Group_12420" data-name="Group 12420">
            <rect id="Rectangle_3929" data-name="Rectangle 3929" width="48.826" height="1.744" transform="translate(0.445 0.371)" fill="#ebebeb"/>
            <path id="Path_16736" data-name="Path 16736" d="M266.276,7409.77H216.56v-2.485h49.716Zm-48.826-.741h47.936v-1H217.45Z" transform="translate(-216.56 -7407.285)" fill="#ebebeb"/>
          </g>
          <g id="Group_12421" data-name="Group 12421" transform="translate(0 26.308)">
            <rect id="Rectangle_3930" data-name="Rectangle 3930" width="48.826" height="1.744" transform="translate(0.445 0.371)" fill="#ebebeb"/>
            <path id="Path_16737" data-name="Path 16737" d="M266.276,7478.791H216.56v-2.485h49.716Zm-48.826-.741h47.936v-1H217.45Z" transform="translate(-216.56 -7476.305)" fill="#ebebeb"/>
          </g>
          <g id="Group_12422" data-name="Group 12422" transform="translate(0 52.615)">
            <rect id="Rectangle_3931" data-name="Rectangle 3931" width="48.826" height="1.744" transform="translate(0.445 0.371)" fill="#ebebeb"/>
            <path id="Path_16738" data-name="Path 16738" d="M266.276,7547.812H216.56v-2.486h49.716Zm-48.826-.741h47.936v-1H217.45Z" transform="translate(-216.56 -7545.326)" fill="#ebebeb"/>
          </g>
          <g id="Group_12427" data-name="Group 12427" transform="translate(0 0.582)">
            <g id="Group_12423" data-name="Group 12423" transform="translate(0 78.923)">
              <rect id="Rectangle_3932" data-name="Rectangle 3932" width="48.826" height="1.744" transform="translate(0.445 0.371)" fill="#ebebeb"/>
              <path id="Path_16739" data-name="Path 16739" d="M266.276,7618.357H216.56v-2.485h49.716Zm-48.826-.742h47.936v-1H217.45Z" transform="translate(-216.56 -7615.872)" fill="#ebebeb"/>
            </g>
            <g id="Group_12424" data-name="Group 12424" transform="translate(0 104.101)">
              <rect id="Rectangle_3933" data-name="Rectangle 3933" width="48.826" height="1.744" transform="translate(0.445 0.371)" fill="#ebebeb"/>
              <path id="Path_16740" data-name="Path 16740" d="M266.276,7684.418H216.56v-2.486h49.716Zm-48.826-.742h47.936v-1H217.45Z" transform="translate(-216.56 -7681.932)" fill="#ebebeb"/>
            </g>
            <g id="Group_12425" data-name="Group 12425">
              <rect id="Rectangle_3934" data-name="Rectangle 3934" width="2.616" height="126.554" transform="translate(0.445 0.371)" fill="#ebebeb"/>
              <path id="Path_16741" data-name="Path 16741" d="M220.065,7536.106H216.56v-127.3h3.505Zm-2.615-.742h1.725V7409.552H217.45Z" transform="translate(-216.56 -7408.81)" fill="#ebebeb"/>
            </g>
            <g id="Group_12426" data-name="Group 12426" transform="translate(46.211)">
              <rect id="Rectangle_3935" data-name="Rectangle 3935" width="2.616" height="126.554" transform="translate(0.445 0.371)" fill="#ebebeb"/>
              <path id="Path_16742" data-name="Path 16742" d="M341.3,7536.106H337.8v-127.3H341.3Zm-2.616-.742h1.726V7409.552h-1.726Z" transform="translate(-337.799 -7408.81)" fill="#ebebeb"/>
            </g>
          </g>
        </g>
        <g id="Group_12439" data-name="Group 12439" transform="translate(8.752 28.455)">
          <g id="Group_12430" data-name="Group 12430">
            <g id="Group_12429" data-name="Group 12429">
              <rect id="Rectangle_3936" data-name="Rectangle 3936" width="5.115" height="20.106" transform="translate(0.445 0.371)" fill="#ebebeb"/>
              <path id="Path_16743" data-name="Path 16743" d="M245.527,7444.4h-6v-20.848h6Zm-5.115-.741h4.225V7424.3h-4.225Z" transform="translate(-239.522 -7423.554)" fill="#ebebeb"/>
            </g>
            <path id="Path_16744" data-name="Path 16744" d="M246.348,7434.322a1.714,1.714,0,1,1-1.686-1.405A1.565,1.565,0,0,1,246.348,7434.322Z" transform="translate(-241.66 -7429.348)" fill="#ebebeb"/>
          </g>
          <g id="Group_12432" data-name="Group 12432" transform="translate(6.012)">
            <g id="Group_12431" data-name="Group 12431">
              <rect id="Rectangle_3937" data-name="Rectangle 3937" width="5.115" height="20.106" transform="translate(0.445 0.371)" fill="#ebebeb"/>
              <path id="Path_16745" data-name="Path 16745" d="M261.3,7444.4h-6.005v-20.848H261.3Zm-5.115-.741h4.225V7424.3h-4.225Z" transform="translate(-255.295 -7423.554)" fill="#ebebeb"/>
            </g>
            <path id="Path_16746" data-name="Path 16746" d="M262.122,7434.322a1.714,1.714,0,1,1-1.686-1.405A1.565,1.565,0,0,1,262.122,7434.322Z" transform="translate(-257.434 -7429.348)" fill="#ebebeb"/>
          </g>
          <g id="Group_12434" data-name="Group 12434" transform="translate(12.025)">
            <g id="Group_12433" data-name="Group 12433">
              <rect id="Rectangle_3938" data-name="Rectangle 3938" width="5.115" height="20.106" transform="translate(0.445 0.371)" fill="#ebebeb"/>
              <path id="Path_16747" data-name="Path 16747" d="M277.075,7444.4h-6v-20.848h6Zm-5.115-.741h4.225V7424.3H271.96Z" transform="translate(-271.07 -7423.554)" fill="#ebebeb"/>
            </g>
            <path id="Path_16748" data-name="Path 16748" d="M277.9,7434.322a1.714,1.714,0,1,1-1.686-1.405A1.565,1.565,0,0,1,277.9,7434.322Z" transform="translate(-273.208 -7429.348)" fill="#ebebeb"/>
          </g>
          <g id="Group_12436" data-name="Group 12436" transform="translate(18.037)">
            <g id="Group_12435" data-name="Group 12435">
              <rect id="Rectangle_3939" data-name="Rectangle 3939" width="5.115" height="20.106" transform="translate(0.445 0.371)" fill="#ebebeb"/>
              <path id="Path_16749" data-name="Path 16749" d="M292.848,7444.4h-6.005v-20.848h6.005Zm-5.115-.741h4.225V7424.3h-4.225Z" transform="translate(-286.843 -7423.554)" fill="#ebebeb"/>
            </g>
            <path id="Path_16750" data-name="Path 16750" d="M293.67,7434.322a1.714,1.714,0,1,1-1.686-1.405A1.565,1.565,0,0,1,293.67,7434.322Z" transform="translate(-288.982 -7429.348)" fill="#ebebeb"/>
          </g>
          <g id="Group_12438" data-name="Group 12438" transform="translate(24.049)">
            <g id="Group_12437" data-name="Group 12437">
              <rect id="Rectangle_3940" data-name="Rectangle 3940" width="5.115" height="20.106" transform="translate(0.445 0.371)" fill="#ebebeb"/>
              <path id="Path_16751" data-name="Path 16751" d="M308.623,7444.4h-6.005v-20.848h6.005Zm-5.115-.741h4.225V7424.3h-4.225Z" transform="translate(-302.618 -7423.554)" fill="#ebebeb"/>
            </g>
            <path id="Path_16752" data-name="Path 16752" d="M309.444,7434.322a1.714,1.714,0,1,1-1.686-1.405A1.565,1.565,0,0,1,309.444,7434.322Z" transform="translate(-304.756 -7429.348)" fill="#ebebeb"/>
          </g>
        </g>
        <path id="Path_16753" data-name="Path 16753" d="M241.622,7577.349a8.336,8.336,0,0,1,.8-3.694h-6.131a8.336,8.336,0,0,1,.8,3.694c0,2.235-2.687,6.362-2.687,9.114s2.848,3.654,4.956,3.654,4.956-.9,4.956-3.654S241.622,7579.584,241.622,7577.349Z" transform="translate(-227.598 -7487.988)" fill="#ebebeb"/>
        <g id="Group_12441" data-name="Group 12441" transform="translate(26.024 57.198)">
          <g id="Group_12440" data-name="Group 12440" transform="translate(0.76)">
            <path id="Path_16754" data-name="Path 16754" d="M304.354,7508.952c1.654-3.234-2.022-3.175-1.742-4.024.526-1.594,2.507.139,3.311-.664s-1.984-3.3-.524-4.17.948,2.065,2.21,1.856.51-3.3,2-2.959c1.119.26-.21,2.2-.087,3.1s2.429-.414,2.469.877-2.75.726-3.079,1.708,3,1.185,1.833,2.015-3.368-.164-3.947.7S303.652,7510.325,304.354,7508.952Z" transform="translate(-296.587 -7498.964)" fill="#ebebeb"/>
            <path id="Path_16755" data-name="Path 16755" d="M293.579,7515.906c-1.554-3.269-4.116-1.071-4.634-1.839-.971-1.442,1.9-1.373,1.793-2.414s-4.2-1.185-3.892-2.657,2.417.912,3.138.024-2.427-2.647-1.077-3.274c1.014-.471,1.7,1.684,2.554,2.255s1.377-1.718,2.5-.824-1.342,2.128-.747,3.019,3.132-.917,3,.357-2.532,1.857-2.215,2.812S294.239,7517.293,293.579,7515.906Z" transform="translate(-286.83 -7503.119)" fill="#ebebeb"/>
          </g>
          <path id="Path_16756" data-name="Path 16756" d="M296.3,7520.622h-8.486s-2.979,2.133-2.979,4.652,1.857,5.135,7.222,5.135,7.223-2.616,7.223-5.135S296.3,7520.622,296.3,7520.622Z" transform="translate(-284.837 -7512.366)" fill="#ebebeb"/>
        </g>
        <g id="Group_12442" data-name="Group 12442" transform="translate(28.106 90.646)">
          <rect id="Rectangle_3941" data-name="Rectangle 3941" width="7.832" height="8.866" transform="translate(2.423 2.616)" fill="#ebebeb"/>
          <ellipse id="Ellipse_628" data-name="Ellipse 628" cx="6.181" cy="2.616" rx="6.181" ry="2.616" fill="#ebebeb"/>
        </g>
        <g id="Group_12443" data-name="Group 12443" transform="translate(22.651 14.111)">
          <rect id="Rectangle_3942" data-name="Rectangle 3942" width="5.807" height="6.574" transform="translate(1.797 1.94)" fill="#ebebeb"/>
          <path id="Path_16757" data-name="Path 16757" d="M285.153,7387.86c0,1.071-2.052,1.94-4.583,1.94s-4.583-.869-4.583-1.94,2.052-1.939,4.583-1.939S285.153,7386.789,285.153,7387.86Z" transform="translate(-275.987 -7385.921)" fill="#ebebeb"/>
        </g>
        <g id="Group_12445" data-name="Group 12445" transform="translate(3.235)">
          <g id="Group_12444" data-name="Group 12444">
            <path id="Path_16758" data-name="Path 16758" d="M251.506,7369.133s-2.009-5.814,6.884-12.354c0,0-7.614,6.976-5.115,12.354Z" transform="translate(-241.301 -7353.776)" fill="#ebebeb"/>
            <path id="Path_16759" data-name="Path 16759" d="M248.93,7365.577s-4.606-6.478,3.643-16.678c0,0-6.546,10.392-1.512,16.215Z" transform="translate(-239.034 -7348.899)" fill="#ebebeb"/>
            <path id="Path_16760" data-name="Path 16760" d="M235.771,7369.133s2.009-5.814-6.884-12.354c0,0,7.614,6.976,5.115,12.354Z" transform="translate(-227.423 -7353.776)" fill="#ebebeb"/>
            <path id="Path_16761" data-name="Path 16761" d="M242.685,7366.6s3.7-5.2-2.93-13.4c0,0,5.261,8.351,1.218,13.029Z" transform="translate(-234.149 -7351.558)" fill="#ebebeb"/>
            <path id="Path_16762" data-name="Path 16762" d="M250.75,7376.268s-1.737-5.874,7.455-12.122c0,0-7.934,6.726-5.688,12.181Z" transform="translate(-240.872 -7358.334)" fill="#ebebeb"/>
            <path id="Path_16763" data-name="Path 16763" d="M232.5,7374.4s1.737-5.874-7.455-12.122c0,0,7.934,6.725,5.688,12.18Z" transform="translate(-225.047 -7357.176)" fill="#ebebeb"/>
          </g>
          <path id="Path_16764" data-name="Path 16764" d="M237.637,7383.852h-6.012l2.759,9.3h6.506l2.759-9.3Z" transform="translate(-229.118 -7370.53)" fill="#ebebeb"/>
        </g>
        <g id="Group_12455" data-name="Group 12455" transform="translate(4.666 67.971)">
          <g id="Group_12450" data-name="Group 12450" transform="translate(0 0)">
            <g id="Group_12446" data-name="Group 12446" transform="translate(0.445 4.921)">
              <rect id="Rectangle_3943" data-name="Rectangle 3943" width="2.456" height="18.403" transform="translate(0 2.456) rotate(-90)" fill="#ebebeb"/>
            </g>
            <g id="Group_12448" data-name="Group 12448" transform="translate(0 2.085)">
              <g id="Group_12447" data-name="Group 12447">
                <rect id="Rectangle_3944" data-name="Rectangle 3944" width="2.456" height="18.403" transform="translate(0.445 2.827) rotate(-90)" fill="#ebebeb"/>
                <path id="Path_16765" data-name="Path 16765" d="M248.094,7535.9H228.8v-3.2h19.293Zm-18.4-.742H247.2v-1.714H229.691Z" transform="translate(-228.801 -7532.701)" fill="#ebebeb"/>
              </g>
            </g>
            <g id="Group_12449" data-name="Group 12449" transform="translate(0.445)">
              <rect id="Rectangle_3945" data-name="Rectangle 3945" width="2.456" height="18.403" transform="translate(0 2.456) rotate(-90)" fill="#ebebeb"/>
            </g>
          </g>
          <g id="Group_12451" data-name="Group 12451" transform="translate(11.283)">
            <rect id="Rectangle_3946" data-name="Rectangle 3946" width="0.132" height="2.456" fill="#ebebeb"/>
          </g>
          <g id="Group_12452" data-name="Group 12452" transform="translate(12.765)">
            <rect id="Rectangle_3947" data-name="Rectangle 3947" width="0.132" height="2.456" fill="#ebebeb"/>
          </g>
          <g id="Group_12453" data-name="Group 12453" transform="translate(14.248)">
            <rect id="Rectangle_3948" data-name="Rectangle 3948" width="0.132" height="2.456" fill="#ebebeb"/>
          </g>
          <g id="Group_12454" data-name="Group 12454" transform="translate(15.73)">
            <rect id="Rectangle_3949" data-name="Rectangle 3949" width="0.132" height="2.456" fill="#ebebeb"/>
          </g>
          <rect id="Rectangle_3950" data-name="Rectangle 3950" width="8.661" height="0.405" transform="translate(9.286 5.34)" fill="#ebebeb"/>
          <rect id="Rectangle_3951" data-name="Rectangle 3951" width="8.661" height="0.405" transform="translate(9.286 5.947)" fill="#ebebeb"/>
          <rect id="Rectangle_3952" data-name="Rectangle 3952" width="8.661" height="0.405" transform="translate(9.286 6.554)" fill="#ebebeb"/>
        </g>
      </g>
      <g id="Group_12467" data-name="Group 12467" transform="translate(276.161 194.031)">
        <g id="Group_12460" data-name="Group 12460">
          <g id="Group_12458" data-name="Group 12458" transform="translate(0.453 41.288)">
            <path id="Path_16766" data-name="Path 16766" d="M1224.376,7653.953l-1.579-.011,4.991-42.521.731-5.309,27.042,4.46-1.662,47.755-2.019-.164-.981-42.3-19.29-3.1Z" transform="translate(-1222.797 -7599.771)" fill="#cfd0d8"/>
            <g id="Group_12457" data-name="Group 12457" transform="translate(4.778)">
              <path id="Path_16767" data-name="Path 16767" d="M1287.413,7593.191l-16.667-1.168-35.109,3.1-.11,5.319a2.558,2.558,0,0,0,2.13,3.13s21.865,4.725,24.493,3.9l26.625-7.962Z" transform="translate(-1235.403 -7591.052)" fill="#cfd0d8"/>
              <path id="Path_16768" data-name="Path 16768" d="M1264.518,7598.065c-3.729.827-3.746.039-6.944-.293l-17.736-2.957c-6.7-.712-4.786-.967-1.582-2.255l2.651-.575c2.654-1.05,15.783-2.821,19.293-2.464l25.463.751c3.755.374,1.789,1.679,1.265,1.784Z" transform="translate(-1235.333 -7589.475)" fill="#cfd0d8"/>
            </g>
            <path id="Path_16769" data-name="Path 16769" d="M1364.864,7607.764l4.185,44.7-1.234-.162-6.658-41.6Z" transform="translate(-1308.421 -7600.793)" fill="#cfd0d8"/>
          </g>
          <g id="Group_12459" data-name="Group 12459">
            <path id="Path_16770" data-name="Path 16770" d="M1255.366,7526c.045,2.438-2.286,4-6.439,3.672L1230.1,7526.7c-4.761-.621-4.077-1.066-4.63-3.569l-3.7-35.5c-.856-3.847,1.656-6.938,7.145-6.422l17.13,1.521c5.421.5,6.039,3.316,6.09,7.06Z" transform="translate(-1221.608 -7481.149)" fill="#cfd0d8"/>
            <path id="Path_16771" data-name="Path 16771" d="M1292.714,7488.432a5.146,5.146,0,0,1,4.82,4.4c.281,2.8,5.382,36.975,3.984,39.209s-4.763,2.581-4.61,1.607c1.392-9.084-2.654-40.252-3.635-42.071A4.33,4.33,0,0,1,1292.714,7488.432Z" transform="translate(-1265.556 -7485.653)" fill="#cfd0d8"/>
          </g>
        </g>
        <g id="Group_12462" data-name="Group 12462" transform="translate(157.426 3.987)">
          <g id="Group_12461" data-name="Group 12461">
            <path id="Path_16772" data-name="Path 16772" d="M1636.721,7648.875H1635.5l3.462-40.357,2.6.147,28.579.343v7.329h-.074l4.041,32.75h-1.222l-7.015-32.75h-22.653Z" transform="translate(-1635.169 -7563.958)" fill="#cfd0d8"/>
            <path id="Path_16773" data-name="Path 16773" d="M1712.932,7495.509c1.171-4.982,7.849-3.99,13.721-3.409,4.222.415,5.249,2.133,5.033,6.378l-5.039,36.844a6.327,6.327,0,0,1-7.672,6.218c-4.018-.816-12.269-3.516-11.955-7.749Z" transform="translate(-1679.424 -7491.61)" fill="#cfd0d8"/>
            <path id="Path_16774" data-name="Path 16774" d="M1647.5,7663.408h-1l3.822-37.21-6.371-5.756,18.706-.124,22.026-.233-.085,6.113,4.392,37.435h-.814l-7.63-37.435h-25.99Z" transform="translate(-1640.394 -7571.116)" fill="#cfd0d8"/>
            <path id="Path_16775" data-name="Path 16775" d="M1634.977,7606.635a1.505,1.505,0,0,1,1.157-2.46l22.745-.092a19.259,19.259,0,0,1,6.049,1.131l12.79,4.255c.032.011.064.021.095.034,1.534.613,1.391,1.129-.341,1.129l-38.582-.091a1.5,1.5,0,0,1-1.159-.551Z" transform="translate(-1634.632 -7561.214)" fill="#cfd0d8"/>
          </g>
        </g>
        <g id="Group_12463" data-name="Group 12463" transform="translate(31.629 14.092)">
          <rect id="Rectangle_3953" data-name="Rectangle 3953" width="6.258" height="65.032" transform="translate(17.628 23.146)" fill="#ebebeb"/>
          <rect id="Rectangle_3954" data-name="Rectangle 3954" width="6.261" height="65.031" transform="translate(131.645 23.668)" fill="#ebebeb"/>
          <path id="Path_16776" data-name="Path 16776" d="M1457.165,7538.464v2.935h-152.2v-2.935l24.74-20.342h100.906Z" transform="translate(-1304.821 -7518.123)" fill="#ebebeb"/>
          <rect id="Rectangle_3955" data-name="Rectangle 3955" width="152.344" height="5.779" transform="translate(0 20.342)" fill="#ebebeb"/>
        </g>
        <g id="Group_12466" data-name="Group 12466" transform="translate(62.635 16.984)">
          <path id="Path_16777" data-name="Path 16777" d="M1413.9,7548.225l31.443-.023,4.123-5.537-28.244-.06Z" transform="translate(-1403.243 -7536.165)" fill="#cfd0d8"/>
          <g id="Group_12465" data-name="Group 12465">
            <path id="Path_16778" data-name="Path 16778" d="M1495.1,7697.209h-1.528l-7.435-46.742h3.961Z" transform="translate(-1447.945 -7602.916)" fill="#cfd0d8"/>
            <path id="Path_16779" data-name="Path 16779" d="M1388.765,7694.316h1.529l7.434-46.742h-3.961Z" transform="translate(-1387.688 -7601.125)" fill="#cfd0d8"/>
            <g id="Group_12464" data-name="Group 12464" transform="translate(11.728 42.329)">
              <path id="Path_16780" data-name="Path 16780" d="M1416.707,7688.127h.836l6.227-37.66h-3.61Z" transform="translate(-1416.707 -7645.245)" fill="#cfd0d8"/>
              <path id="Path_16781" data-name="Path 16781" d="M1516.57,7678.877h.845l-4.622-42.113-3.142,4.458Z" transform="translate(-1474.225 -7636.764)" fill="#cfd0d8"/>
            </g>
            <path id="Path_16782" data-name="Path 16782" d="M1401.768,7629.038a19.758,19.758,0,0,1,3.085-2.572c.476-.319,5.4-4.885,5.4-4.885l32.891,1.931a15.377,15.377,0,0,1,2.028.575c.694.25,1.049,2.172.964,3.76-.1,1.738-3.037,4.92-5.787,6.658-3.836,2.424-14.6,1.974-16.14,1.974h-2.033c-1.534,0-17.22.38-21.059-2.039C1399.724,7633.557,1400.54,7630.211,1401.768,7629.038Z" transform="translate(-1394.88 -7585.039)" fill="#cfd0d8"/>
            <path id="Path_16783" data-name="Path 16783" d="M1460.327,7527.936c2.124.642,7.225,1.923,7.647,7.05s3.431,35.029,2.583,37.009c-1.066,2.489-4.038,2.555-5.095,1.275s-7.262-43.2-6.621-43.84S1460.327,7527.936,1460.327,7527.936Z" transform="translate(-1431.025 -7527.087)" fill="#cfd0d8"/>
            <path id="Path_16784" data-name="Path 16784" d="M1423.6,7569.739c0,2.733-2.938,4.85-6.576,4.767l-19.99-.479c-3.6-.09-6.686-2.342-6.9-5.063l-4.191-37.46c-.252-3.244,2.782-5.858,6.782-5.792l20.827.657c4.035.071,7.307,2.794,7.307,6.06Z" transform="translate(-1385.938 -7525.709)" fill="#cfd0d8"/>
          </g>
        </g>
      </g>
    </g>
    <g id="Group_12469" data-name="Group 12469" transform="translate(69.11 6971.021)">
      <rect id="Rectangle_3956" data-name="Rectangle 3956" width="72.851" height="42.978" transform="translate(72.851 42.978) rotate(-180)" fill="#ebebeb"/>
    </g>
    <text id="_5" data-name="5" transform="translate(82.795 7005.03)" fill="#2d356b" font-size="38" font-family="TrebuchetMS-Bold, Trebuchet MS" font-weight="700"><tspan x="0" y="0">5</tspan></text>
    <g id="Group_12471" data-name="Group 12471" transform="translate(112.592 6985.628)">
      <g id="Group_12470" data-name="Group 12470" transform="translate(0 0)">
        <path id="Path_16785" data-name="Path 16785" d="M577.122,7156.013c14.417,21.789,2.937,45.237-28.09,54.314-32.957,9.643-75.763-.5-96.905-22.662-16.615,12.093-41.952,21.395-71.013,24.656-53.57,6.012-99.49-10.773-102.566-37.491a27.432,27.432,0,0,1,3.142-15.75c-45.3,10.095-71.93-1.052-83.237-31.248-8.344-22.282,15.424-61.364,80.8-68.7,8.336-.935,16.505-1.536,24.422-1.829-.174-.737-2.515-4.931.868-12.226,14.708-31.708,66.592-36.578,120.754-29.884,45.606,5.636,68.4,26.14,78.972,44.682,0,0,129.594-35.127,152.926,38.158C657.2,7098.032,683.189,7162.645,577.122,7156.013Z" transform="translate(-196.848 -7012.578)" fill="#fff" stroke="#ebebeb" stroke-miterlimit="10" stroke-width="1"/>
        <ellipse id="Ellipse_629" data-name="Ellipse 629" cx="14.021" cy="12.952" rx="14.021" ry="12.952" transform="matrix(0.579, -0.815, 0.815, 0.579, 31.76, 174.61)" fill="#fff" stroke="#ebebeb" stroke-miterlimit="10" stroke-width="1"/>
        <ellipse id="Ellipse_630" data-name="Ellipse 630" cx="8.309" cy="7.675" rx="8.309" ry="7.675" transform="matrix(0.579, -0.815, 0.815, 0.579, 41.321, 191.873)" fill="#fff" stroke="#ebebeb" stroke-miterlimit="10" stroke-width="1"/>
        <ellipse id="Ellipse_631" data-name="Ellipse 631" cx="7.107" cy="6.565" rx="7.107" ry="6.565" transform="matrix(0.579, -0.815, 0.815, 0.579, 52.799, 207.981)" fill="#fff" stroke="#ebebeb" stroke-miterlimit="10" stroke-width="1"/>
      </g>
    </g>
    <g id="Group_12489" data-name="Group 12489" transform="translate(131.963 7189.71)">
      <path id="Path_16786" data-name="Path 16786" d="M264.732,7760.916l42.14,4.142a7.982,7.982,0,0,0,8.762-7.943v-76.983a7.981,7.981,0,0,0-8.7-7.949l-51.356,4.616c-.161.016-.323.021-.485.026a7.625,7.625,0,0,0-7.342,8.858l9.857,68.429A7.98,7.98,0,0,0,264.732,7760.916Z" transform="translate(-247.67 -7624.833)" fill="#fff4ba"/>
      <g id="Group_12488" data-name="Group 12488" transform="translate(21.537)">
        <g id="Group_12484" data-name="Group 12484">
          <g id="Group_12474" data-name="Group 12474" transform="translate(38.562 72.728)">
            <g id="Group_12472" data-name="Group 12472" transform="translate(47.078 31.272)">
              <path id="Path_16787" data-name="Path 16787" d="M530.4,7848.822c3.18-2.128,12.581-1.461,11.879-4.725-.627-2.924-5.96-6.69-13.417,2.188Z" transform="translate(-528.862 -7833.168)" fill="#f8c471"/>
              <path id="Path_16788" data-name="Path 16788" d="M541.068,7840.292c.781,5.231,7.15,4.257,9.084,3.486,2.126-.848,2.621-4.983,1.386-6.323S540.773,7838.293,541.068,7840.292Z" transform="translate(-536.412 -7830.875)" fill="#f8c471"/>
              <path id="Path_16789" data-name="Path 16789" d="M548.541,7827.677c1.716-2.6,2.426-6.4,1.292-6.776-1.278-.423-1.273,2.959-3.382,4.921-2.28,2.128-3.6,3.586-2.828,4.508S546.826,7830.285,548.541,7827.677Z" transform="translate(-537.86 -7820.864)" fill="#f8c471"/>
              <path id="Path_16790" data-name="Path 16790" d="M561.387,7833.381c2.476-1,3.539-2.094,3.2-2.721s-1.717.031-4.192,1.029-5.87,1.653-5.529,2.279S558.91,7834.375,561.387,7833.381Z" transform="translate(-544.939 -7826.774)" fill="#f8c471"/>
              <path id="Path_16791" data-name="Path 16791" d="M566.385,7841.3c2.68-.493,4.777-2.108,4.573-2.779s-2.555.369-5.234.862-4.39.957-4.184,1.627S563.706,7841.795,566.385,7841.3Z" transform="translate(-549.075 -7831.658)" fill="#f8c471"/>
              <path id="Path_16792" data-name="Path 16792" d="M562.016,7849.973c2.656-.6,4-1.536,3.779-2.2s-1.9.063-4.551.663-4.506,1.058-4.283,1.723S559.36,7850.572,562.016,7849.973Z" transform="translate(-546.24 -7837.354)" fill="#f8c471"/>
            </g>
            <g id="Group_12473" data-name="Group 12473">
              <path id="Path_16793" data-name="Path 16793" d="M436.279,7739.167c-8.56-5.238-30.926,50.531-30.931,52.668,0,0,4.4,3.437,6.242,1.718C416.354,7789.1,440.1,7741.507,436.279,7739.167Z" transform="translate(-405.348 -7738.82)" fill="#fff4ba"/>
              <path id="Path_16794" data-name="Path 16794" d="M454.446,7853.307c2.08,7.605-41.456,11.185-43.068,10.713,0,0-3.4-4.934-1.7-5.936C414.08,7855.5,453.516,7849.909,454.446,7853.307Z" transform="translate(-407.734 -7809.01)" fill="#fff4ba"/>
              <path id="Path_16795" data-name="Path 16795" d="M517.482,7850.965l-1.254-2.06-9.123-.889s1.419,4.02,2.252,4.664S517.482,7850.965,517.482,7850.965Z" transform="translate(-468.32 -7806.396)" fill="#eaeaea"/>
              <path id="Path_16796" data-name="Path 16796" d="M522.022,7855.3l.31,2.405-6.642,6.327s-1.419-4.063-1.166-5.087S522.022,7855.3,522.022,7855.3Z" transform="translate(-472.892 -7810.903)" fill="#eaeaea"/>
            </g>
          </g>
          <g id="Group_12480" data-name="Group 12480">
            <g id="Group_12479" data-name="Group 12479">
              <g id="Group_12475" data-name="Group 12475" transform="translate(0 1.677)">
                <path id="Path_16797" data-name="Path 16797" d="M374.315,7647.92c10.3-7.612-3.859-11.5-2.183-19.121s3.039-4.965,5.591-14.753.392-13.841.977-19.661,5.734-14.8,3.4-22.575-4.68-5.562-6.792-11.785-5.72-.227-10.893,1.711-8.813-12.75-17.993-8.573-9.836,15.053-13.189,20.747-12.093,7-14.863,17.623,3.567,8.994-.148,16.086-11.074,5.474-13.844,16.1c0,0-2.478,10.7,9.687,11.78s7.5,7.032,21.2,4.632,7.722,8.582,17.556,5.472S365.114,7654.719,374.315,7647.92Z" transform="translate(-304.175 -7552.411)" fill="#2d356b"/>
              </g>
              <g id="Group_12476" data-name="Group 12476" transform="translate(42.539 37.008)">
                <path id="Path_16798" data-name="Path 16798" d="M436.749,7645.1,448,7652.17l2.019,24.329-9.039-3.271Z" transform="translate(-428.758 -7645.103)" fill="#f7c371"/>
                <path id="Path_16799" data-name="Path 16799" d="M458.41,7832.084c-7.23-4.736-24.014-15.207-42.628-2.244,5.567-16.348,10.623-32.421,10.8-45.868.334-24.929-20.853-54.209-3.323-65.479,18.613-11.966,40.717,43.293,40.717,43.293C445.364,7772.255,450.514,7802.271,458.41,7832.084Z" transform="translate(-415.782 -7689.47)" fill="#ffe200"/>
                <path id="Path_16800" data-name="Path 16800" d="M438.769,7714.739l3.27-.384,14.616,13.75-4.327,3.654S442.519,7721.759,438.769,7714.739Z" transform="translate(-430.007 -7687.959)" fill="#fff"/>
                <path id="Path_16801" data-name="Path 16801" d="M468.751,7731.711c.071-.05.135-.1.2-.149-3.857-7.7-12.287-19.481-20.427-18.725C455.937,7719.448,468.751,7731.711,468.751,7731.711Z" transform="translate(-436.047 -7686.998)" fill="#f7c371"/>
              </g>
              <g id="Group_12478" data-name="Group 12478" transform="translate(34.793)">
                <g id="Group_12477" data-name="Group 12477">
                  <path id="Path_16802" data-name="Path 16802" d="M420.085,7600.218c-5.659-2.585-17.276-6.412-21.573-16.286-5.586-12.835-2.524-19.719,1.382-28.065,7.447-15.91,34.631-3.493,32.057,1.134C428.533,7563.142,440.594,7609.585,420.085,7600.218Z" transform="translate(-395.459 -7548.01)" fill="#2d356b"/>
                  <path id="Path_16803" data-name="Path 16803" d="M454.344,7619.032c2.159.351,7.829-10.182,10.367-18.553.837-2.76-2.147-3.583-.4-13.179,1.027-5.633-.315-13.877-8.869-21.021-8.075-6.745-11.578,10.684-13,14.61-4.049,11.187-8.17,17.957-6.115,24.02C440.342,7616.75,452.1,7618.1,454.344,7619.032Z" transform="translate(-420.413 -7558.365)" fill="#ffd8a3"/>
                  <path id="Path_16804" data-name="Path 16804" d="M489.771,7666.917a.5.5,0,0,1,.537-.467.529.529,0,0,1,.339.643.5.5,0,0,1-.539.466A.527.527,0,0,1,489.771,7666.917Z" transform="translate(-453.816 -7621.303)" fill="#ffab00"/>
                  <path id="Path_16805" data-name="Path 16805" d="M492.575,7626.336c-.127-1.534.628-2.831,1.682-2.9s2.016,1.117,2.142,2.649-.627,2.832-1.682,2.9S492.7,7627.87,492.575,7626.336Z" transform="translate(-455.55 -7594.685)" fill="#2d356b"/>
                  <path id="Path_16806" data-name="Path 16806" d="M487.129,7626.27c1.224-2.285,3.075-4.637,7.235-3.705A14.7,14.7,0,0,0,487.129,7626.27Z" transform="translate(-452.189 -7594.019)" fill="#2d356b"/>
                  <path id="Path_16807" data-name="Path 16807" d="M494.626,7684.78c.122-.342,1,1.081,1.51,1.208,1.434.359.719,2.146-.688,1.64C494.9,7687.43,494.5,7685.143,494.626,7684.78Z" transform="translate(-456.813 -7632.617)" fill="#f36973"/>
                  <path id="Path_16808" data-name="Path 16808" d="M493.759,7668.427c-.921-.551,6.036-1.389,4.467.67C497.714,7669.467,494.232,7668.709,493.759,7668.427Z" transform="translate(-456.239 -7622.13)" fill="#f36973"/>
                  <path id="Path_16809" data-name="Path 16809" d="M492.958,7603.426c-2.5-.448-7.936-.771-10.683,5.87C485.1,7605.245,487.326,7603.707,492.958,7603.426Z" transform="translate(-449.185 -7582.176)" fill="#2d356b"/>
                  <path id="Path_16810" data-name="Path 16810" d="M508.049,7645.71l-3.507.481,1.262-8.555,4,6.882Z" transform="translate(-462.965 -7603.475)" fill="#ffd8a3"/>
                  <path id="Path_16811" data-name="Path 16811" d="M506.1,7662.228l3.453-4.864-2.494-.5Z" transform="translate(-463.928 -7615.375)" fill="#ffd8a3"/>
                  <path id="Path_16812" data-name="Path 16812" d="M494.078,7676.131a64.027,64.027,0,0,0,2.848-7.141l-6.035-.978S491.055,7674.6,494.078,7676.131Z" transform="translate(-454.517 -7622.274)" fill="#ffab00"/>
                  <path id="Path_16813" data-name="Path 16813" d="M493.269,7672.478l3.437.557c.349-.9.691-1.842,1.023-2.823l-4.932-.8Z" transform="translate(-455.697 -7623.138)" fill="#fff"/>
                  <path id="Path_16814" data-name="Path 16814" d="M427.18,7628.194c.563-2.61,1.768-4.406-.213-4.829s-4.049,1.352-4.612,3.965.594,5.072,2.578,5.5S426.62,7630.808,427.18,7628.194Z" transform="translate(-412.016 -7594.604)" fill="#f7c371"/>
                </g>
                <path id="Path_16815" data-name="Path 16815" d="M462.07,7565.694c-7.89,8.552-21.264,20.756-20.8,34.836-3.265-15.439,2.381-34.415,13.312-40.834C455.36,7561.319,464.061,7562.276,462.07,7565.694Z" transform="translate(-423.238 -7555.242)" fill="#2d356b"/>
              </g>
            </g>
          </g>
          <g id="Group_12483" data-name="Group 12483" transform="translate(31.544 72.106)">
            <g id="Group_12481" data-name="Group 12481" transform="translate(50.517 26.717)">
              <path id="Path_16816" data-name="Path 16816" d="M521.949,7842.918c2.956-3.331,13.74-5.347,11.99-8.814-1.566-3.108-8.68-5.782-14.467,6.411Z" transform="translate(-519.472 -7822.258)" fill="#ffd9a4"/>
              <path id="Path_16817" data-name="Path 16817" d="M530.279,7830.2c2.418,5.662,9.305,2.691,11.257,1.255,2.145-1.581,1.486-6.384-.3-7.529S529.358,7828.035,530.279,7830.2Z" transform="translate(-526.123 -7817.481)" fill="#ffd9a4"/>
              <path id="Path_16818" data-name="Path 16818" d="M537.679,7815.295c1.167-3.436.849-7.926-.537-8.013-1.563-.1-.564,3.706-2.362,6.536-1.942,3.067-3,5.1-1.859,5.91S536.514,7818.737,537.679,7815.295Z" transform="translate(-527.503 -7807.28)" fill="#ffd9a4"/>
              <path id="Path_16819" data-name="Path 16819" d="M551.308,7816.48c2.494-1.856,3.37-3.4,2.8-4s-1.924.541-4.418,2.392-6.124,3.589-5.556,4.194S548.81,7818.328,551.308,7816.48Z" transform="translate(-534.698 -7810.394)" fill="#ffd9a4"/>
              <path id="Path_16820" data-name="Path 16820" d="M558.843,7824.052c2.874-1.343,4.761-3.779,4.333-4.475s-2.769,1.167-5.641,2.511-4.663,2.368-4.233,3.063S555.971,7825.394,558.843,7824.052Z" transform="translate(-540.368 -7814.797)" fill="#ffd9a4"/>
              <path id="Path_16821" data-name="Path 16821" d="M556.446,7835.406c2.815-1.457,4.056-2.907,3.61-3.588s-2.119.629-4.931,2.086-4.764,2.517-4.317,3.2S553.631,7836.864,556.446,7835.406Z" transform="translate(-538.825 -7822.351)" fill="#ffd9a4"/>
            </g>
            <g id="Group_12482" data-name="Group 12482">
              <path id="Path_16822" data-name="Path 16822" d="M406.313,7737.307c-11.182-3.383-19.968,66.007-19.346,68.414,0,0,5.967,2.578,7.536.1C398.56,7799.41,411.3,7738.817,406.313,7737.307Z" transform="translate(-386.935 -7737.188)" fill="#ffe200"/>
              <path id="Path_16823" data-name="Path 16823" d="M438.239,7854.436c4.58,7.953-43.4,24.79-45.356,24.732,0,0-5.278-4.558-3.657-6.185C393.421,7868.774,436.193,7850.882,438.239,7854.436Z" transform="translate(-388.161 -7809.459)" fill="#ffe200"/>
              <path id="Path_16824" data-name="Path 16824" d="M505.386,7850.937l-2.018-1.95-10.536,1.681s2.781,4.112,3.908,4.592S505.386,7850.937,505.386,7850.937Z" transform="translate(-452.469 -7806.374)" fill="#eaeaea"/>
              <path id="Path_16825" data-name="Path 16825" d="M513.571,7853.619l1.057,2.618-5.62,9.079s-2.794-4.159-2.81-5.386S513.571,7853.619,513.571,7853.619Z" transform="translate(-460.741 -7809.241)" fill="#eaeaea"/>
            </g>
          </g>
        </g>
        <g id="Group_12487" data-name="Group 12487" transform="translate(90.772 76.989)">
          <g id="Group_12485" data-name="Group 12485">
            <path id="Rectangle_3957" data-name="Rectangle 3957" d="M5.264,0H66.255a5.264,5.264,0,0,1,5.264,5.264V44.279a5.265,5.265,0,0,1-5.265,5.265H5.265A5.265,5.265,0,0,1,0,44.279V5.264A5.264,5.264,0,0,1,5.264,0Z" transform="translate(0.548)" fill="#ebebeb"/>
            <rect id="Rectangle_3958" data-name="Rectangle 3958" width="72.616" height="3.576" transform="translate(0 51.011)" fill="#ebebeb"/>
            <rect id="Rectangle_3959" data-name="Rectangle 3959" width="3.576" height="8.587" transform="translate(9.687 44.246)" fill="#ebebeb"/>
            <rect id="Rectangle_3960" data-name="Rectangle 3960" width="3.576" height="8.587" transform="translate(59.24 44.246)" fill="#ebebeb"/>
          </g>
          <g id="Group_12486" data-name="Group 12486" transform="translate(27.911 14.948)">
            <path id="Path_16826" data-name="Path 16826" d="M615.554,7797.612a8.4,8.4,0,1,1,8.4,8.4A8.407,8.407,0,0,1,615.554,7797.612Zm3.2,0a5.2,5.2,0,1,0,5.2-5.2A5.2,5.2,0,0,0,618.754,7797.612Z" transform="translate(-615.554 -7789.215)" fill="#7b88ac"/>
          </g>
        </g>
      </g>
    </g>
    <g id="Group_12490" data-name="Group 12490" transform="translate(164.003 7278.617)">
      <rect id="Rectangle_3961" data-name="Rectangle 3961" width="62.901" height="32.983" rx="6.672" fill="#fff" stroke="#231f20" stroke-miterlimit="10" stroke-width="0.25"/>
      <text id="Akiko" transform="translate(18.45 19.992)" fill="#2d356b" font-size="10" font-family="TrebuchetMS-Bold, Trebuchet MS" font-weight="700"><tspan x="0" y="0">Akiko</tspan></text>
    </g>
    <g id="Group_12505" data-name="Group 12505" transform="translate(393.256 7179.292)">
      <path id="Path_16827" data-name="Path 16827" d="M1122.452,7754.112l-42.14,4.141a7.982,7.982,0,0,1-8.762-7.943v-76.983a7.982,7.982,0,0,1,8.7-7.949l51.356,4.617c.161.015.323.021.485.025a7.626,7.626,0,0,1,7.342,8.859l-9.857,68.428A7.981,7.981,0,0,1,1122.452,7754.112Z" transform="translate(-979.65 -7610.204)" fill="#fff4ba"/>
      <g id="Group_12501" data-name="Group 12501" transform="translate(41.967)">
        <g id="Group_12491" data-name="Group 12491" transform="translate(0 115.712)">
          <path id="Path_16828" data-name="Path 16828" d="M947.487,7841.732c1.507,9.722,53.038-8.691,54.634-10.052,0,0,3.546-6.329-1.207-7.335C994.678,7823.029,946.813,7837.386,947.487,7841.732Z" transform="translate(-944.836 -7824.261)" fill="#9ea9fc"/>
          <path id="Path_16829" data-name="Path 16829" d="M940.544,7860.153l.38-2.988,9.937-5.663s.432,5.3-.189,6.462S940.544,7860.153,940.544,7860.153Z" transform="translate(-940.544 -7841.119)" fill="#fffdfd"/>
          <path id="Path_16830" data-name="Path 16830" d="M940.556,7873.637l.862,2.856,10.636,3.762s-.449-5.271-1.248-6.294S940.556,7873.637,940.556,7873.637Z" transform="translate(-940.551 -7854.673)" fill="#fffdfd"/>
        </g>
        <g id="Group_12494" data-name="Group 12494" transform="translate(30.292)">
          <g id="Group_12493" data-name="Group 12493">
            <g id="Group_12492" data-name="Group 12492">
              <path id="Path_16831" data-name="Path 16831" d="M1022.881,7549.228c-5.449-6.846-1.867-16.956,8.268-19.7,0,0-6.354-9.905,13.259-8.755s25.61,15.792,25.531,18.8c0,0,15.435-1.558,7.3,14.539,0,0,6.863,3.489,6.211,13.187-.489,7.267-7.613,15.021-13.111,12.25,0,0-1.892,14.442-13.357,13.09a16.331,16.331,0,0,1-14.015-11.494s-.078,4.247-4.332,3.613-7.214-4.447-7.214-4.447.446,4.68-1.681,4.361-1.5-6.786-1.5-6.786-4.5,3.409-7.514-1.3,4.6-14.039,4.6-14.039Z" transform="translate(-1020.017 -7520.678)" fill="#c3e8e6"/>
            </g>
          </g>
        </g>
        <g id="Group_12495" data-name="Group 12495" transform="translate(24.218 42.539)">
          <path id="Path_16832" data-name="Path 16832" d="M1078.794,7632.283l-10.738,7.729-.48,24.306,8.78-3.816Z" transform="translate(-1043.375 -7632.283)" fill="#ffac00"/>
          <path id="Path_16833" data-name="Path 16833" d="M1010.289,7810.65c24.066,12.424,32.528,6.654,45.964,5.212-.923-19.141-12.593-31.557-13.613-44.911-1.9-24.753,17.324-55.185-.8-65.284-19.252-10.725-37.753,45.581-37.753,45.581C1023.24,7760.487,1016.266,7780.527,1010.289,7810.65Z" transform="translate(-1004.083 -7676.855)" fill="#2d356b"/>
          <path id="Path_16834" data-name="Path 16834" d="M1071.913,7701.951l-3.273-.179-13.663,14.584,4.53,3.361S1068.626,7709.161,1071.913,7701.951Z" transform="translate(-1035.578 -7675.286)" fill="#fff"/>
          <path id="Path_16835" data-name="Path 16835" d="M1039.589,7720.416l-.212-.136c3.351-7.89,10.991-20.132,19.128-19.891C1051.555,7707.424,1039.589,7720.416,1039.589,7720.416Z" transform="translate(-1025.924 -7674.428)" fill="#ffac00"/>
        </g>
        <g id="Group_12496" data-name="Group 12496" transform="translate(14.029 77.05)">
          <path id="Path_16836" data-name="Path 16836" d="M986.163,7853.895c-.528,9.638,42.936,12.625,44.78,11.643,0,0,2.839-6.776.5-7.538C1025.394,7856.033,986.4,7849.593,986.163,7853.895Z" transform="translate(-982.802 -7803.039)" fill="#9ea9fc"/>
          <path id="Path_16837" data-name="Path 16837" d="M1092.988,7722.978c11.745-3.7.375,61.373-3.078,62.523,0,0-6.255-2.207-7.348-5.149C1079.262,7771.465,1087.743,7724.628,1092.988,7722.978Z" transform="translate(-1042.001 -7722.826)" fill="#9ea9fc"/>
          <path id="Path_16838" data-name="Path 16838" d="M977.351,7848.125l1.094-2.587,10.961-2.255s-.869,4.924-1.753,5.79S977.351,7848.125,977.351,7848.125Z" transform="translate(-977.351 -7797.371)" fill="#fff"/>
          <path id="Path_16839" data-name="Path 16839" d="M977.358,7855.448l.137,2.873,9.483,6.569s.856-4.973.333-6.145S977.358,7855.448,977.358,7855.448Z" transform="translate(-977.355 -7804.899)" fill="#fff"/>
        </g>
        <g id="Group_12500" data-name="Group 12500" transform="translate(32.493 7.039)">
          <g id="Group_12499" data-name="Group 12499">
            <g id="Group_12498" data-name="Group 12498">
              <g id="Group_12497" data-name="Group 12497" transform="translate(0 4.096)">
                <path id="Path_16840" data-name="Path 16840" d="M1039.9,7601.1c-2.076.14-6.5-10.342-8.16-18.5-.546-2.688,2.354-3.2,1.555-12.444-.469-5.427,1.538-13.114,10.278-19.116,8.25-5.666,10.01,11.152,11.006,15,2.835,10.956,6.132,17.735,3.645,23.294C1053.361,7600.193,1042.1,7600.419,1039.9,7601.1Z" transform="translate(-1029.428 -7549.891)" fill="#f8c471"/>
                <path id="Path_16841" data-name="Path 16841" d="M1050.382,7645.583a.479.479,0,0,0-.467-.49.5.5,0,0,0-.378.579.479.479,0,0,0,.469.489A.5.5,0,0,0,1050.382,7645.583Z" transform="translate(-1040.486 -7608.805)" fill="#ffab00"/>
                <path id="Path_16842" data-name="Path 16842" d="M1046.6,7606.384c-.146-1.457-1.077-2.54-2.075-2.424s-1.693,1.393-1.546,2.849,1.076,2.541,2.075,2.424S1046.744,7607.841,1046.6,7606.384Z" transform="translate(-1036.415 -7583.347)" fill="#2d356b"/>
                <path id="Path_16843" data-name="Path 16843" d="M1045.866,7606.292c-1.539-1.926-3.678-3.807-7.408-2.216A14,14,0,0,1,1045.866,7606.292Z" transform="translate(-1033.631 -7583.054)" fill="#2d356b"/>
                <path id="Path_16844" data-name="Path 16844" d="M1041.777,7662.125c-.085-.334-1.046.936-1.538,1.01-1.39.213-.872,1.969.5,1.614C1041.282,7664.61,1041.865,7662.479,1041.777,7662.125Z" transform="translate(-1034.226 -7619.312)" fill="#f36973"/>
                <path id="Path_16845" data-name="Path 16845" d="M1040.462,7646.283c.922-.439-5.592-1.854-4.29.235C1036.624,7646.914,1039.99,7646.508,1040.462,7646.283Z" transform="translate(-1032.109 -7609)" fill="#f36973"/>
                <path id="Path_16846" data-name="Path 16846" d="M1037.029,7585.866c2.334-.634,7.455-1.395,10.613,4.669C1044.627,7586.934,1042.389,7585.662,1037.029,7585.866Z" transform="translate(-1032.746 -7571.895)" fill="#2d356b"/>
                <path id="Path_16847" data-name="Path 16847" d="M1027.345,7623.754l3.278.769-.431-8.213-4.4,6.16Z" transform="translate(-1025.793 -7590.994)" fill="#f8c471"/>
                <path id="Path_16848" data-name="Path 16848" d="M1031.418,7639.616l-2.836-4.915,2.406-.247Z" transform="translate(-1027.519 -7602.222)" fill="#f8c471"/>
                <path id="Path_16849" data-name="Path 16849" d="M1037.521,7654a60.779,60.779,0,0,1-2.059-7.018l5.8-.387S1040.521,7652.811,1037.521,7654Z" transform="translate(-1031.776 -7609.733)" fill="#ffab00"/>
                <path id="Path_16850" data-name="Path 16850" d="M1040.334,7650.608l-3.305.22c-.251-.882-.49-1.806-.717-2.766l4.742-.315Z" transform="translate(-1032.302 -7610.449)" fill="#fff"/>
                <path id="Path_16851" data-name="Path 16851" d="M1105.393,7613.951c-.3-2.522-1.281-4.331.633-4.554s3.714,1.642,4.014,4.167-1.015,4.75-2.933,4.975S1105.69,7616.478,1105.393,7613.951Z" transform="translate(-1074.732 -7586.705)" fill="#ffac00"/>
              </g>
              <path id="Path_16852" data-name="Path 16852" d="M1055.021,7539.156c1.716,5.943,6.767,20.925,15.411,23.47,0,0,4.485-13.562-3.683-18.153C1056.436,7538.673,1055.021,7539.156,1055.021,7539.156Z" transform="translate(-1043.88 -7539.146)" fill="#c3e8e6"/>
            </g>
          </g>
        </g>
      </g>
      <g id="Group_12504" data-name="Group 12504" transform="translate(0 88.044)">
        <g id="Group_12502" data-name="Group 12502">
          <path id="Rectangle_3962" data-name="Rectangle 3962" d="M5.264,0H66.255a5.264,5.264,0,0,1,5.264,5.264V44.279a5.265,5.265,0,0,1-5.265,5.265H5.265A5.265,5.265,0,0,1,0,44.279V5.264A5.264,5.264,0,0,1,5.264,0Z" transform="translate(0.548)" fill="#ebebeb"/>
          <rect id="Rectangle_3963" data-name="Rectangle 3963" width="72.616" height="3.576" transform="translate(0 51.011)" fill="#ebebeb"/>
          <rect id="Rectangle_3964" data-name="Rectangle 3964" width="3.576" height="8.587" transform="translate(9.687 44.246)" fill="#ebebeb"/>
          <rect id="Rectangle_3965" data-name="Rectangle 3965" width="3.576" height="8.587" transform="translate(59.24 44.246)" fill="#ebebeb"/>
        </g>
        <g id="Group_12503" data-name="Group 12503" transform="translate(27.911 14.948)">
          <path id="Path_16853" data-name="Path 16853" d="M903.668,7799.283a8.4,8.4,0,1,1,8.4,8.4A8.406,8.406,0,0,1,903.668,7799.283Zm3.2,0a5.2,5.2,0,1,0,5.2-5.2A5.2,5.2,0,0,0,906.867,7799.283Z" transform="translate(-903.668 -7790.888)" fill="#7b88ac"/>
        </g>
      </g>
    </g>
    <g id="Group_12506" data-name="Group 12506" transform="translate(122.304 7321.578)">
      <path id="Path_16854" data-name="Path 16854" d="M695.42,7906.189l-427.16-4.119,10.416,48.178H685.682Z" transform="translate(-250.753 -7898.986)" fill="#2d356b"/>
      <path id="Path_16855" data-name="Path 16855" d="M680.469,7893.979H222.327L229,7905.006l447.019-3.675Z" transform="translate(-222.327 -7893.979)" fill="#7b88ac"/>
    </g>
    <g id="Group_12507" data-name="Group 12507" transform="translate(476.009 7272.402)">
      <rect id="Rectangle_3966" data-name="Rectangle 3966" width="64.901" height="33.983" rx="6.672" fill="#fff" stroke="#231f20" stroke-miterlimit="10" stroke-width="0.25"/>
      <text id="Brenda" transform="translate(15.95 20.491)" fill="#2d356b" font-size="10" font-family="TrebuchetMS-Bold, Trebuchet MS" font-weight="700"><tspan x="0" y="0">Brenda</tspan></text>
    </g>
  </g>
</svg>
