<svg xmlns="http://www.w3.org/2000/svg" width="248.057" height="149.634" viewBox="0 0 248.057 149.634">
  <g id="Group_14601" data-name="Group 14601" transform="translate(-317.845 -6590.65)">
    <g id="Group_14517" data-name="Group 14517" transform="translate(317.845 6598.091)">
      <path id="Path_20807" data-name="Path 20807" d="M585.32,2908.567a1.147,1.147,0,1,0-1.147,1.147A1.147,1.147,0,0,0,585.32,2908.567Z" transform="translate(-537.7 -2792.539)" fill="#fff"/>
      <g id="Group_14515" data-name="Group 14515" transform="translate(0)">
        <g id="Group_14509" data-name="Group 14509" transform="translate(17.232 112.265)">
          <path id="Path_20808" data-name="Path 20808" d="M493.192,2932.955c.4-.536-.481-1.361-1.61-2.14s-2.072-1.218-2.48-.683.18,1.6,1.31,2.38S492.786,2933.49,493.192,2932.955Z" transform="translate(-484.658 -2921.599)" fill="#f8c471"/>
          <path id="Path_20809" data-name="Path 20809" d="M486.843,2937.06c.406-.536-.481-1.361-1.611-2.139s-2.071-1.221-2.479-.685.181,1.6,1.311,2.381S486.437,2937.593,486.843,2937.06Z" transform="translate(-479.913 -2924.665)" fill="#f8c471"/>
          <path id="Path_20810" data-name="Path 20810" d="M499.1,2927.775c-.478-.491-1.923.529-3.423,1.836s-2.49,2.4-2.011,2.9,2.081-.17,3.582-1.478S499.582,2928.267,499.1,2927.775Z" transform="translate(-488.075 -2919.92)" fill="#f8c471"/>
          <path id="Path_20811" data-name="Path 20811" d="M474.113,2897.074c2.346,1.775,10.154,6.791,8.466,9.465-1.51,2.392-6.727,3.113-10.68-7.775Z" transform="translate(-471.899 -2897.074)" fill="#f8c471"/>
        </g>
        <path id="Path_20812" data-name="Path 20812" d="M439.877,2674.449c-4.711-6.054-35.571,27.948-36.145,29.477,0,0,1.859,5.521,3.633,4.781C411.956,2706.795,441.981,2677.152,439.877,2674.449Z" transform="translate(-403.732 -2617.923)" fill="#9ea9fc"/>
        <path id="Path_20813" data-name="Path 20813" d="M422.722,2816.307c5.352-2.327-12.646-28.668-13.672-29.375,0,0-4.43.333-4.211,1.774C405.405,2792.431,420.332,2817.346,422.722,2816.307Z" transform="translate(-404.554 -2702.51)" fill="#9ea9fc"/>
        <path id="Path_20814" data-name="Path 20814" d="M457.245,2889.9l-1.772.516-5.617-4.209s2.879-1.541,3.682-1.474S457.245,2889.9,457.245,2889.9Z" transform="translate(-438.196 -2775.587)" fill="#eaeaea"/>
        <path id="Path_20815" data-name="Path 20815" d="M471.589,2881.237l1.417-1.2-.487-7.008s-2.9,1.564-3.287,2.274S471.589,2881.237,471.589,2881.237Z" transform="translate(-452.646 -2766.842)" fill="#eaeaea"/>
        <g id="Group_14510" data-name="Group 14510" transform="translate(61.266 112.164)">
          <path id="Path_20816" data-name="Path 20816" d="M654.915,2928.018c-.353-.468.42-1.19,1.407-1.87s1.81-1.064,2.166-.6-.157,1.4-1.145,2.079S655.269,2928.485,654.915,2928.018Z" transform="translate(-652.618 -2918.097)" fill="#f8c471"/>
          <path id="Path_20817" data-name="Path 20817" d="M660.459,2931.6c-.354-.468.42-1.189,1.407-1.869s1.809-1.066,2.165-.6-.157,1.4-1.145,2.08S660.814,2932.069,660.459,2931.6Z" transform="translate(-656.76 -2920.775)" fill="#f8c471"/>
          <path id="Path_20818" data-name="Path 20818" d="M646.2,2923.493c.417-.43,1.68.462,2.99,1.6s2.175,2.1,1.757,2.532-1.818-.148-3.129-1.291S645.786,2923.922,646.2,2923.493Z" transform="translate(-646.085 -2916.631)" fill="#f8c471"/>
          <path id="Path_20819" data-name="Path 20819" d="M654.541,2896.672c-2.049,1.551-8.87,5.932-7.395,8.268,1.319,2.09,5.876,2.72,9.33-6.792Z" transform="translate(-646.723 -2896.672)" fill="#f8c471"/>
        </g>
        <path id="Path_20820" data-name="Path 20820" d="M610.44,2674.449c4.712-6.054,35.572,27.948,36.145,29.477,0,0-1.859,5.521-3.633,4.781C638.362,2706.795,608.337,2677.152,610.44,2674.449Z" transform="translate(-558.106 -2617.923)" fill="#9ea9fc"/>
        <path id="Path_20821" data-name="Path 20821" d="M678.932,2816.307c-5.353-2.327,12.646-28.668,13.672-29.375,0,0,4.429.333,4.211,1.774C696.249,2792.431,681.322,2817.346,678.932,2816.307Z" transform="translate(-608.621 -2702.51)" fill="#9ea9fc"/>
        <path id="Path_20822" data-name="Path 20822" d="M678.38,2889.9l1.772.516,5.617-4.209s-2.879-1.541-3.682-1.474S678.38,2889.9,678.38,2889.9Z" transform="translate(-608.95 -2775.587)" fill="#eaeaea"/>
        <path id="Path_20823" data-name="Path 20823" d="M674.609,2881.237l-1.418-1.2.488-7.008s2.9,1.564,3.287,2.274S674.609,2881.237,674.609,2881.237Z" transform="translate(-605.073 -2766.842)" fill="#eaeaea"/>
        <path id="Path_20824" data-name="Path 20824" d="M488.714,2726.687s9.375,8.3,18.75,11.418l4.883-10.553,4.493,10.553s12.673-3.57,17.773-11.418c-10.327-14.974-14.407-27.469-3.7-43.055,0,0-4.311-27.872-19.935-28.564s-18.409,29.712-18.409,29.712C502.727,2700,506.053,2706.613,488.714,2726.687Z" transform="translate(-467.231 -2603.972)" fill="#7b88ac"/>
        <path id="Path_20825" data-name="Path 20825" d="M550.777,2668.064a9.464,9.464,0,0,1,6.053,2.183,19.519,19.519,0,0,0,1.511-12.559c-9.512-7.152-15.374.742-15.374.742s-1.246,4.927,2.108,11.551A9.442,9.442,0,0,1,550.777,2668.064Z" transform="translate(-507.6 -2603.699)" fill="#fff"/>
        <path id="Path_20826" data-name="Path 20826" d="M554,2657.08s-1.582,7.937,5.611,16.549c0,0,6.114-8.382,4.388-17.163C557.813,2650.556,554,2657.08,554,2657.08Z" transform="translate(-515.903 -2603.176)" fill="#ffac00"/>
        <rect id="Rectangle_4837" data-name="Rectangle 4837" width="8.16" height="15.296" transform="translate(39.078 38.129)" fill="#ffac00"/>
        <path id="Path_20827" data-name="Path 20827" d="M585.32,2802.151a1.147,1.147,0,1,0-1.147,1.148A1.147,1.147,0,0,0,585.32,2802.151Z" transform="translate(-537.7 -2713.025)" fill="#fff"/>
        <path id="Path_20828" data-name="Path 20828" d="M585.32,2837.624a1.147,1.147,0,1,0-1.147,1.147A1.147,1.147,0,0,0,585.32,2837.624Z" transform="translate(-537.7 -2739.53)" fill="#fff"/>
        <path id="Path_20829" data-name="Path 20829" d="M585.32,2873.1a1.147,1.147,0,1,0-1.147,1.147A1.147,1.147,0,0,0,585.32,2873.1Z" transform="translate(-537.7 -2766.035)" fill="#fff"/>
        <g id="Group_14514" data-name="Group 14514" transform="translate(17.486)">
          <g id="Group_14511" data-name="Group 14511">
            <path id="Path_20830" data-name="Path 20830" d="M494.208,2497.02c-4.626,4.208-12,2.127-14.439-4.971,0,0-6.765,5-6.865-9.045s10.06-19,12.206-19.089c0,0-1.835-10.934,10.026-5.886,0,0,2.166-5.058,9.112-5.048,5.2.008,11.07,4.724,9.351,8.775,0,0,10.388.672,9.961,8.911a11.67,11.67,0,0,1-7.538,10.534,2.566,2.566,0,0,1,2.779,2.919,9.157,9.157,0,0,1-2.832,5.353s3.316-.538,3.189.994-4.769,1.387-4.769,1.387,2.643,3.049-.573,5.419-10.227-2.621-10.227-2.621Z" transform="translate(-472.903 -2452.981)" fill="#c3e8e6"/>
          </g>
          <g id="Group_14512" data-name="Group 14512" transform="translate(11.917 15.098)">
            <path id="Path_20831" data-name="Path 20831" d="M538.255,2546.928c-4.779,0-15.539-13.062-11.094-29.114.9-3.245,4.426-5.112,11.094-5.112,7.335,0,10.69,1.983,11.225,4.611C553.259,2535.892,543.146,2546.928,538.255,2546.928Z" transform="translate(-524.575 -2512.703)" fill="#f8c471"/>
            <path id="Path_20832" data-name="Path 20832" d="M581.088,2543.088a6.014,6.014,0,0,1,7.248,3.782C586.383,2544.194,584.868,2543.195,581.088,2543.088Z" transform="translate(-565.656 -2535.278)" fill="#2d356b"/>
            <path id="Path_20833" data-name="Path 20833" d="M541.331,2544.5a5.992,5.992,0,0,0-7.623,2.885C535.966,2544.963,537.585,2544.153,541.331,2544.5Z" transform="translate(-530.254 -2536.15)" fill="#2d356b"/>
            <path id="Path_20834" data-name="Path 20834" d="M592.679,2566.143a1.325,1.325,0,1,0-1.212,1.7A1.5,1.5,0,0,0,592.679,2566.143Z" transform="translate(-572.399 -2551.443)" fill="#2d356b"/>
            <path id="Path_20835" data-name="Path 20835" d="M590.585,2565.815a4.373,4.373,0,0,0-5.372-.836A11.036,11.036,0,0,1,590.585,2565.815Z" transform="translate(-568.738 -2551.331)" fill="#2d356b"/>
            <path id="Path_20836" data-name="Path 20836" d="M546.784,2566.143a1.324,1.324,0,1,1,1.212,1.7A1.5,1.5,0,0,1,546.784,2566.143Z" transform="translate(-540.023 -2551.443)" fill="#2d356b"/>
            <path id="Path_20837" data-name="Path 20837" d="M540.6,2565.815a4.37,4.37,0,0,1,5.37-.836A11.03,11.03,0,0,0,540.6,2565.815Z" transform="translate(-535.403 -2551.331)" fill="#2d356b"/>
            <path id="Path_20838" data-name="Path 20838" d="M568.363,2581.84a3.5,3.5,0,0,0,1.431.594,2.037,2.037,0,0,0,1.432-.653c.063-.395-.981-4.787-1.352-4.826S568.335,2581.268,568.363,2581.84Z" transform="translate(-556.147 -2560.711)" fill="#ffab00"/>
            <path id="Path_20839" data-name="Path 20839" d="M571.749,2579.225c0,.089.425.23.575.23.256,0,.565-.131.576-.29.026-.384.229-4.746-.544-4.7C571.511,2574.5,571.739,2578.667,571.749,2579.225Z" transform="translate(-558.651 -2558.848)" fill="#f8c471"/>
            <path id="Path_20840" data-name="Path 20840" d="M571.9,2625.852c0-.532-.588-.481-1.346-.481s-1.4-.051-1.4.481.614.963,1.372.963S571.9,2626.384,571.9,2625.852Z" transform="translate(-556.738 -2596.888)" fill="#f36973"/>
            <path id="Path_20841" data-name="Path 20841" d="M569.367,2606.252a2.38,2.38,0,0,0-2.506-.075c-.472,0-.945-.8-2.575.075-.468.251,1.137.963,2.541.963S569.836,2606.5,569.367,2606.252Z" transform="translate(-553.039 -2582.298)" fill="#f36973"/>
            <path id="Path_20842" data-name="Path 20842" d="M559.942,2607.622h7.379s-.989,5.31-3.69,5.31S559.942,2607.622,559.942,2607.622Z" transform="translate(-549.856 -2583.627)" fill="#ffab00"/>
            <path id="Path_20843" data-name="Path 20843" d="M568.214,2608.692h-6.355l.7,2.16h4.958Z" transform="translate(-551.288 -2584.427)" fill="#fff"/>
            <path id="Path_20844" data-name="Path 20844" d="M588.586,2606.287a.375.375,0,1,0-.371.432A.405.405,0,0,0,588.586,2606.287Z" transform="translate(-570.704 -2582.305)" fill="#ffab00"/>
            <path id="Path_20845" data-name="Path 20845" d="M558.978,2606.287a.376.376,0,1,0-.371.432A.406.406,0,0,0,558.978,2606.287Z" transform="translate(-548.58 -2582.305)" fill="#ffab00"/>
            <path id="Path_20846" data-name="Path 20846" d="M521.964,2577.775c-.225-1.053-.085-1.909-.862-1.743a1.753,1.753,0,0,0-1,2.208c.225,1.052,1.038,1.772,1.815,1.605S522.19,2578.829,521.964,2577.775Z" transform="translate(-520.044 -2560.007)" fill="#ffac00"/>
            <path id="Path_20847" data-name="Path 20847" d="M619.213,2577.723c.25-1.047.122-1.91.918-1.72a1.768,1.768,0,0,1,.99,2.245c-.249,1.047-1.1,1.743-1.894,1.554S618.963,2578.773,619.213,2577.723Z" transform="translate(-593.839 -2559.981)" fill="#ffac00"/>
          </g>
          <g id="Group_14513" data-name="Group 14513" transform="translate(20.118 9.665)">
            <path id="Path_20848" data-name="Path 20848" d="M557.135,2494.163c.647,2.124,9.046,11.583,17.354,5.048,0,0-8.337-.231-8.966-8Z" transform="translate(-555.959 -2491.214)" fill="#c3e8e6"/>
            <path id="Path_20849" data-name="Path 20849" d="M552.484,2516.215c1.53-1.168,3.42-4.589,2.43-6.929s.36-6.48,3.06-8.01l-1.62-.63s-4.262,3.808-2.25,8.55C555.364,2512.166,552.484,2516.215,552.484,2516.215Z" transform="translate(-552.484 -2498.262)" fill="#c3e8e6"/>
          </g>
        </g>
      </g>
      <g id="Group_14516" data-name="Group 14516" transform="translate(8.311 116.61)">
        <rect id="Rectangle_4838" data-name="Rectangle 4838" width="72.693" height="25.459" rx="6.672" fill="#fff" stroke="#231f20" stroke-miterlimit="10" stroke-width="0.25"/>
        <text id="Brenda" transform="translate(18.273 16.602)" fill="#2d356b" font-size="11" font-family="TrebuchetMS-Bold, Trebuchet MS" font-weight="700"><tspan x="0" y="0">Brenda</tspan></text>
      </g>
    </g>
    <g id="Group_14518" data-name="Group 14518" transform="translate(389.776 6590.65)">
      <path id="Path_20850" data-name="Path 20850" d="M827.591,2498.953a22.212,22.212,0,0,0-.317,8.342c2.177,14.245,17.752,23.682,34.788,21.079a34.011,34.011,0,0,0,21.845-12.326c7.81,12.023,22.085,17.892,32.3,13.129,9.619-4.484,12.289-16.828,6.667-28.577,15.046-2.513,25.849-13.061,24.215-23.755-1.164-7.615-8.324-13.276-17.806-15.148,4.684-3.75,7.226-8.248,6.549-12.671-1.394-9.12-15.935-14.463-32.479-11.935q-1.811.276-3.55.662c-4.237-9.979-17.6-15.969-32.2-13.737-16.544,2.528-28.417,14.646-26.519,27.066q.093.605.227,1.2a62.691,62.691,0,0,0-7.807.7c-20.792,3.177-36.1,15.905-34.182,28.429C800.828,2491.261,812.541,2498.05,827.591,2498.953Z" transform="translate(-771.128 -2423.549)" fill="#ebebeb"/>
      <circle id="Ellipse_69" data-name="Ellipse 69" cx="9.322" cy="9.322" r="9.322" transform="translate(21.512 22.297)" fill="#ebebeb"/>
      <circle id="Ellipse_70" data-name="Ellipse 70" cx="5.524" cy="5.524" r="5.524" transform="translate(12.565 23.192)" fill="#ebebeb"/>
      <circle id="Ellipse_71" data-name="Ellipse 71" cx="4.725" cy="4.725" r="4.725" transform="translate(0 26.737)" fill="#ebebeb"/>
    </g>
  </g>
</svg>
