<svg xmlns="http://www.w3.org/2000/svg" width="197.338" height="143.373" viewBox="0 0 197.338 143.373">
  <g id="Layer_1" data-name="Layer 1" transform="translate(-339.55 -3451.779)">
    <g id="Group_1" data-name="Group 1" transform="translate(349.63 3451.779)">
      <rect id="Rectangle_1" data-name="Rectangle 1" width="177.18" height="78.214" transform="translate(0 0)" fill="#f3ae3d"/>
      <rect id="Rectangle_2" data-name="Rectangle 2" width="169.581" height="71.239" transform="translate(3.801 3.559)" fill="#fff"/>
    </g>
    <g id="Group_15710" data-name="Group 15710" transform="translate(460.613 3477.553)">
      <g id="Group_15703" data-name="Group 15703" transform="translate(19.108 55.745)">
        <path id="Path_17375" data-name="Path 17375" d="M920.751,3790.59c.57,8.621,2.85,18.638,7.4,56.082h.828c-2.048-31.042-3.073-43.076.048-44.783,5.451-2.982,5.073,19.631,3.63,44.783h.931c2.049-25.665,4.691-43.312,4.609-56.39A59.6,59.6,0,0,0,920.751,3790.59Z" transform="translate(-920.751 -3789.79)" fill="#9999a5"/>
        <path id="Path_17376" data-name="Path 17376" d="M971.682,4022.5H967.8s.341-1.28,1.108-1.216A11.886,11.886,0,0,1,971.682,4022.5Z" transform="translate(-956.455 -3965.451)" fill="#54ccca"/>
        <path id="Path_17377" data-name="Path 17377" d="M938.79,4022.5h3.877s-.341-1.28-1.108-1.216A11.874,11.874,0,0,0,938.79,4022.5Z" transform="translate(-934.439 -3965.451)" fill="#54ccca"/>
        <g id="Group_15702" data-name="Group 15702" transform="translate(0.818 0.405)">
          <g id="Group_15700" data-name="Group 15700" transform="translate(0 0.493)">
            <path id="Path_17378" data-name="Path 17378" d="M939.954,3794.829a122.713,122.713,0,0,0-15.811,0v1.024c0-.28,15.81-.178,15.811,0Z" transform="translate(-924.143 -3794.317)" fill="#9999a5"/>
            <rect id="Rectangle_1577" data-name="Rectangle 1577" width="2.646" height="1.878" transform="translate(6.764)" fill="#9999a5"/>
          </g>
          <g id="Group_15701" data-name="Group 15701" transform="translate(1.857)">
            <rect id="Rectangle_1578" data-name="Rectangle 1578" width="0.427" height="2.048" transform="translate(9.218 0.299)" fill="#9999a5"/>
            <rect id="Rectangle_1579" data-name="Rectangle 1579" width="0.427" height="2.048" transform="translate(11.736 0.213)" fill="#9999a5"/>
            <rect id="Rectangle_1580" data-name="Rectangle 1580" width="0.427" height="2.048" transform="translate(0 0.299)" fill="#9999a5"/>
            <rect id="Rectangle_1581" data-name="Rectangle 1581" width="0.427" height="2.048" transform="translate(2.561)" fill="#9999a5"/>
          </g>
        </g>
      </g>
      <g id="Group_15709" data-name="Group 15709" transform="translate(0 0)">
        <path id="Path_17379" data-name="Path 17379" d="M948.265,3638.69c-.869-.917-6.217-1.048-7.373,0l-.03,1.18h7.373Z" transform="translate(-916.904 -3618.826)" fill="#fff"/>
        <rect id="Rectangle_1582" data-name="Rectangle 1582" width="4.915" height="3.092" transform="translate(25.007 52.117)" fill="#eaeaea"/>
        <path id="Path_17380" data-name="Path 17380" d="M897.013,3683.345s-6.823-26.783-8.117-36.348c0,0,12.654-9.619,29.153-1.484,0,0-3.543,32.737-4.373,37.469-3.339-1.3-5.689-3.21-8.093-7.021C902.335,3680.459,899.824,3682.995,897.013,3683.345Z" transform="translate(-877.472 -3622.084)" fill="#9999a5"/>
        <path id="Path_17381" data-name="Path 17381" d="M924.312,3665.129s-13.69-9.464-8.217-21.973c0,0,7.992-3.519,16.2-.052C934.557,3653.848,929.489,3660.768,924.312,3665.129Z" transform="translate(-897.13 -3621.576)" fill="#cfd0d8"/>
        <path id="Path_17382" data-name="Path 17382" d="M937.565,3668.69s-7.883-9.559-4.415-22.194a69.024,69.024,0,0,1,9.894-.053C944.317,3657.3,940.77,3664.287,937.565,3668.69Z" transform="translate(-910.383 -3625.138)" fill="#eaeaea"/>
        <path id="Path_17383" data-name="Path 17383" d="M947.712,3629.782h-5.646l-.845,5.172c3.073,1.6,4.869,1.428,7.263-.349Z" transform="translate(-917.177 -3612.627)" fill="#f7c371"/>
        <path id="Path_17384" data-name="Path 17384" d="M949.517,3654.9l1.374.917,1.6-1.049-.917-1.336-1.07-.027Z" transform="translate(-923.472 -3630.551)" fill="#02928f"/>
        <path id="Path_17385" data-name="Path 17385" d="M934.062,3642.448l1.719-1.4c.506,1.446,1.4,2.281,3.526,2.9,0,0-1.708,2.594-2.493,2.525S934.062,3642.448,934.062,3642.448Z" transform="translate(-911.744 -3621.176)" fill="#fff"/>
        <path id="Path_17386" data-name="Path 17386" d="M961.169,3642.4l-1.754-1.39c-.659,1.415-1.6,2.27-3.891,2.933,0,0,1.655,2.6,2.488,2.526S961.169,3642.4,961.169,3642.4Z" transform="translate(-928.03 -3621.147)" fill="#fff"/>
        <path id="Path_17387" data-name="Path 17387" d="M950.686,3661.7l-.557.1-1.261,16.864,1.264,1.731,1.312-1.731Z" transform="translate(-922.979 -3636.847)" fill="#02928f"/>
        <path id="Path_17388" data-name="Path 17388" d="M955.518,3766.443a.654.654,0,1,0-.654.654A.654.654,0,0,0,955.518,3766.443Z" transform="translate(-927.033 -3715.833)" fill="#54ccca"/>
        <path id="Path_17389" data-name="Path 17389" d="M955.518,3748.962a.654.654,0,1,0-.654.654A.654.654,0,0,0,955.518,3748.962Z" transform="translate(-927.033 -3702.567)" fill="#54ccca"/>
        <g id="Group_15706" data-name="Group 15706" transform="translate(20.605)">
          <g id="Group_15705" data-name="Group 15705">
            <path id="Path_17390" data-name="Path 17390" d="M928.743,3573.806c-.484-1.836-1.033-8.753.11-10.32,0,0-3.474-.9-1.011-3.246,3.122-2.978,9.058-1.365,9.542,1.5,0,0,4.573-1.478,1.429,11.8Z" transform="translate(-926.96 -3558.65)" fill="#ffac00"/>
            <path id="Path_17391" data-name="Path 17391" d="M973.846,3607.071c.1-1.029.587-1.585,1.067-1.585s.774.556.67,1.585a1.571,1.571,0,0,1-1.375,1.506C973.729,3608.577,973.743,3608.1,973.846,3607.071Z" transform="translate(-962.494 -3594.19)" fill="#f7c371"/>
            <path id="Path_17392" data-name="Path 17392" d="M931.557,3607.315c-.072-1.029-.56-1.585-1.063-1.585s-.83.556-.758,1.585a1.54,1.54,0,0,0,1.389,1.506C931.628,3608.821,931.629,3608.344,931.557,3607.315Z" transform="translate(-929.059 -3594.375)" fill="#f7c371"/>
            <path id="Path_17393" data-name="Path 17393" d="M939.182,3592.355a6.792,6.792,0,0,1-6.023-3.63c.046,3.321.126,7.839.126,7.839s8.038.412,10.49-.265c.062-1.854.169-4.043.107-5.823A6.791,6.791,0,0,1,939.182,3592.355Z" transform="translate(-931.664 -3581.472)" fill="#ffac00"/>
            <path id="Path_17394" data-name="Path 17394" d="M934.331,3593.569c.072.492,2.361,2.613,4.968,2.613a6.905,6.905,0,0,0,5.219-2.717c.453-.783-1.374-10.763-2.437-11.6s-5.353-.283-5.717.157C935.5,3583.067,934.048,3591.636,934.331,3593.569Z" transform="translate(-932.526 -3575.938)" fill="#ffd8a3"/>
            <path id="Path_17395" data-name="Path 17395" d="M937.821,3588.206c.392.153,1.94-3.083,2.264-3.625s.269-1.1-.123-1.257-.972.162-1.3.7S937.429,3588.054,937.821,3588.206Z" transform="translate(-935.129 -3577.345)" fill="#ffd8a3"/>
            <path id="Path_17396" data-name="Path 17396" d="M964.728,3587.531c.412-.113-.677-3.4-.916-3.966s-.767-.939-1.179-.827-.552.666-.313,1.235S964.316,3587.645,964.728,3587.531Z" transform="translate(-953.703 -3576.914)" fill="#ffd8a3"/>
            <path id="Path_17397" data-name="Path 17397" d="M941.82,3598.2a.378.378,0,0,0-.187-.266c-.27-.156-2.275.573-2.209.885l.042.194c.048.225.632-.095,1.242-.236.583-.136,1.194-.084,1.159-.3Z" transform="translate(-936.417 -3588.441)" fill="#2d356b"/>
            <path id="Path_17398" data-name="Path 17398" d="M959.2,3598.544a.369.369,0,0,1,.158-.284c.257-.184,2.405.325,2.377.641l-.018.2c-.021.228-.66-.027-1.3-.1-.615-.072-1.234.045-1.225-.17Z" transform="translate(-951.417 -3588.677)" fill="#2d356b"/>
            <path id="Path_17399" data-name="Path 17399" d="M952.019,3607.295a1.882,1.882,0,0,0,.838.427,1.124,1.124,0,0,0,.838-.471,13.916,13.916,0,0,0-.791-3.474C952.687,3603.748,952,3606.883,952.019,3607.295Z" transform="translate(-945.975 -3592.894)" fill="#ffab00"/>
            <path id="Path_17400" data-name="Path 17400" d="M953.544,3606.576c0,.072.347.187.47.187.208,0,.461-.105.469-.235.021-.311.187-3.84-.443-3.807C953.35,3602.756,953.536,3606.124,953.544,3606.576Z" transform="translate(-947.111 -3592.091)" fill="#ffd8a3"/>
            <path id="Path_17401" data-name="Path 17401" d="M945.232,3605.1c0-.271-.158-.491-.35-.491s-.345.22-.343.491.158.491.35.491S945.234,3605.369,945.232,3605.1Z" transform="translate(-940.299 -3593.524)" fill="#2d356b"/>
            <path id="Path_17402" data-name="Path 17402" d="M963.5,3605.1c0-.271-.158-.491-.35-.491s-.345.22-.343.491.159.491.35.491S963.506,3605.369,963.5,3605.1Z" transform="translate(-954.165 -3593.524)" fill="#2d356b"/>
            <g id="Group_15704" data-name="Group 15704" transform="translate(4.728 15.326)">
              <path id="Path_17403" data-name="Path 17403" d="M947.493,3622.954s.313,1.75.623,1.839a8.776,8.776,0,0,0,2.6.044c.345-.071.708-2,.708-2Z" transform="translate(-947.269 -3622.685)" fill="#ffab00"/>
              <path id="Path_17404" data-name="Path 17404" d="M951.516,3623.265l-3.609.088.465,1.666a8.526,8.526,0,0,0,2.723,0Z" transform="translate(-947.583 -3623.007)" fill="#fff"/>
              <path id="Path_17405" data-name="Path 17405" d="M963.643,3622.253c-.027-.06-.13-.076-.23-.036s-.159.121-.133.181.129.076.229.036S963.67,3622.313,963.643,3622.253Z" transform="translate(-959.245 -3622.195)" fill="#ffab00"/>
              <path id="Path_17406" data-name="Path 17406" d="M946.948,3623.031c.017-.063-.054-.135-.159-.162s-.2,0-.221.067.054.135.158.161S946.93,3623.094,946.948,3623.031Z" transform="translate(-946.565 -3622.699)" fill="#ffab00"/>
            </g>
            <path id="Path_17407" data-name="Path 17407" d="M942.965,3577.944c-.1-.646-1.936-.895-4.1-.554s-3.832,1.139-3.73,1.785,1.937.894,4.1.554S943.067,3578.59,942.965,3577.944Z" transform="translate(-933.162 -3572.754)" fill="#ffac00"/>
          </g>
        </g>
        <g id="Group_15707" data-name="Group 15707" transform="translate(33.762 23.314)">
          <path id="Path_17408" data-name="Path 17408" d="M986.277,3799.147c-.182-.245.224-.615.742-.964s.948-.543,1.131-.3-.089.726-.607,1.074S986.459,3799.391,986.277,3799.147Z" transform="translate(-985.095 -3763.419)" fill="#f7c371"/>
          <path id="Path_17409" data-name="Path 17409" d="M989.284,3801.128c-.182-.245.224-.615.742-.963s.948-.544,1.131-.3-.089.725-.607,1.074S989.466,3801.372,989.284,3801.128Z" transform="translate(-987.376 -3764.922)" fill="#f7c371"/>
          <path id="Path_17410" data-name="Path 17410" d="M981.577,3796.657c.22-.221.873.248,1.549.848s1.122,1.1.9,1.324-.946-.086-1.623-.687S981.357,3796.878,981.577,3796.657Z" transform="translate(-981.514 -3762.528)" fill="#ffd8a3"/>
          <path id="Path_17411" data-name="Path 17411" d="M985.969,3782.221c-1.075.795-4.648,3.035-3.892,4.255.676,1.092,3.046,1.442,4.892-3.479Z" transform="translate(-981.862 -3751.615)" fill="#ffd8a3"/>
          <path id="Path_17412" data-name="Path 17412" d="M993.823,3777.087l1.042-2.3,2.956,2.375-2.049,1.389Z" transform="translate(-990.854 -3745.976)" fill="#eaeaea"/>
          <path id="Path_17413" data-name="Path 17413" d="M1014.389,3672.007c1.591-.76-4.7-8.319-11.951-16.689,0,0-2.857,5.667-2.078,9.222C1000.36,3664.541,1007.97,3675.075,1014.389,3672.007Z" transform="translate(-995.713 -3655.318)" fill="#cfd0d8"/>
          <path id="Path_17414" data-name="Path 17414" d="M1011.922,3716.547s-3.458,5.424-12.182,15.511a5.636,5.636,0,0,1-3.039-2.81,174.3,174.3,0,0,1,9.29-14.836S1011.3,3714.013,1011.922,3716.547Z" transform="translate(-993.038 -3700.144)" fill="#cfd0d8"/>
          <path id="Path_17415" data-name="Path 17415" d="M1006.342,3775.337a.526.526,0,1,0-.748.328A.584.584,0,0,0,1006.342,3775.337Z" transform="translate(-999.594 -3745.749)" fill="#54ccca"/>
        </g>
        <g id="Group_15708" data-name="Group 15708" transform="translate(0 24.865)">
          <path id="Path_17416" data-name="Path 17416" d="M913.206,3803.442c.136-.251-.265-.554-.761-.824s-.9-.4-1.036-.154.156.672.652.942S913.07,3803.693,913.206,3803.442Z" transform="translate(-894.53 -3768.427)" fill="#f7c371"/>
          <path id="Path_17417" data-name="Path 17417" d="M910.745,3805.646c.136-.25-.264-.554-.761-.824s-.9-.4-1.036-.154.156.672.653.943S910.609,3805.9,910.745,3805.646Z" transform="translate(-892.662 -3770.099)" fill="#f7c371"/>
          <path id="Path_17418" data-name="Path 17418" d="M916.048,3800.057c-.219-.183-.749.332-1.286.972s-.88,1.164-.661,1.347.831-.187,1.368-.829S916.266,3800.24,916.048,3800.057Z" transform="translate(-896.546 -3766.672)" fill="#ffd8a3"/>
          <path id="Path_17419" data-name="Path 17419" d="M903.406,3788.307c1.039.627,4.45,2.334,3.908,3.567-.485,1.1-2.553,1.7-4.714-2.724Z" transform="translate(-887.87 -3757.784)" fill="#ffd8a3"/>
          <path id="Path_17420" data-name="Path 17420" d="M896.656,3783.436l-2.1-1.343,2.739-2.556,1.07,2.2Z" transform="translate(-881.766 -3751.13)" fill="#eaeaea"/>
          <path id="Path_17421" data-name="Path 17421" d="M841.837,3678.674c-1.783-.068,4.318-8.458,11.177-16.925a12.656,12.656,0,0,1,2.022,8.2S848.437,3678.927,841.837,3678.674Z" transform="translate(-841.524 -3661.749)" fill="#cfd0d8"/>
          <path id="Path_17422" data-name="Path 17422" d="M841.907,3721.373s3.068,5.891,12.937,15.045a5.691,5.691,0,0,0,2.975-2.921s-5.975-10.085-9.536-15.113C848.282,3718.384,842.446,3718.817,841.907,3721.373Z" transform="translate(-841.815 -3704.725)" fill="#cfd0d8"/>
          <path id="Path_17423" data-name="Path 17423" d="M892.829,3778.948a.527.527,0,1,0,.11-.81A.585.585,0,0,0,892.829,3778.948Z" transform="translate(-880.372 -3750.021)" fill="#54ccca"/>
        </g>
      </g>
    </g>
    <g id="Group_18" data-name="Group 18" transform="translate(442.24 3522.933)">
      <g id="Group_14" data-name="Group 14" transform="translate(13.159)">
        <path id="Path_69" data-name="Path 69" d="M875.65,3799.271c.131-1.371.743-2.112,1.349-2.112s.978.741.847,2.112a2.045,2.045,0,0,1-1.739,2.006C875.5,3801.278,875.519,3800.641,875.65,3799.271Z" transform="translate(-862.148 -3785.017)" fill="#7d87a8"/>
        <path id="Path_70" data-name="Path 70" d="M822.214,3799.6c-.091-1.371-.708-2.112-1.343-2.112s-1.048.741-.958,2.112a2,2,0,0,0,1.755,2.006C822.3,3801.6,822.306,3800.967,822.214,3799.6Z" transform="translate(-819.901 -3785.264)" fill="#7d87a8"/>
        <path id="Path_71" data-name="Path 71" d="M825.719,3773c.091.737,2.984,3.921,6.279,3.921s6.023-2.9,6.6-4.078-1.736-16.158-3.08-17.413-6.764-.425-7.225.236C827.2,3757.238,825.362,3770.1,825.719,3773Z" transform="translate(-824.281 -3752.86)" fill="#7d87a8"/>
        <path id="Path_72" data-name="Path 72" d="M831.039,3761.237c.474.229,2.349-4.629,2.741-5.441s.326-1.658-.149-1.887-1.177.244-1.57,1.057S830.564,3761.007,831.039,3761.237Z" transform="translate(-828.264 -3752.152)" fill="#7d87a8"/>
        <path id="Path_73" data-name="Path 73" d="M863.626,3760.224c.5-.169-.819-5.1-1.109-5.954s-.93-1.41-1.429-1.241-.669,1-.379,1.853S863.127,3760.394,863.626,3760.224Z" transform="translate(-850.76 -3751.506)" fill="#7d87a8"/>
        <path id="Path_74" data-name="Path 74" d="M840.012,3828.922h-7.448l-1.115,6.824c4.054,2.113,6.422,1.883,9.58-.461Z" transform="translate(-828.665 -3809.119)" fill="#7d87a8"/>
        <path id="Path_75" data-name="Path 75" d="M851.009,3833.493c0-.144-.263-.261-.588-.261s-.588.117-.588.261.263.157.588.157S851.009,3833.638,851.009,3833.493Z" transform="translate(-842.614 -3812.389)" fill="#7d87a8"/>
        <path id="Path_76" data-name="Path 76" d="M823.452,3764.47c-.261-1.673-.717-13.671.365-15.254s7.45-2.62,8.447-2.367c2.17.549,1.789,2.189,1.789,2.189a3.648,3.648,0,0,1,1.828.529c.749.528,2.31,8.087,1.062,13.8-.561,2.57-2.771,4.811-6.588,4.915C825.621,3768.417,823.777,3766.55,823.452,3764.47Z" transform="translate(-822.351 -3746.811)" fill="#7d87a8"/>
        <path id="Path_77" data-name="Path 77" d="M830.095,3762.654a26.029,26.029,0,0,1-6.644-.8c-.59,3.517-.222,12.592,0,14.032.325,2.08,2.169,3.946,6.9,3.817,3.817-.1,6.027-2.345,6.588-4.916a29.218,29.218,0,0,0-.583-12.836A26.542,26.542,0,0,1,830.095,3762.654Z" transform="translate(-822.353 -3758.224)" fill="#7d87a8"/>
      </g>
      <g id="Group_17" data-name="Group 17" transform="translate(0 25.639)">
        <g id="Group_15" data-name="Group 15" transform="translate(0 4.356)">
          <path id="Path_78" data-name="Path 78" d="M774.525,4016.021l-.589-2.1,3.281-.072-.584,2.061Z" transform="translate(-771.863 -3979.437)" fill="#7d87a8"/>
          <path id="Path_79" data-name="Path 79" d="M775.5,4015.1c.45-.086.851.022,1.171.68l.547-1.933-3.281.073.589,2.1.112-.005A.943.943,0,0,1,775.5,4015.1Z" transform="translate(-771.863 -3979.438)" fill="#7d87a8"/>
          <path id="Path_80" data-name="Path 80" d="M766.255,3892.97c-1.563-.054-.733-14.163,3.282-21.792,0,0,5.416,5.463,5.679,9.5C775.216,3880.675,772.561,3893.189,766.255,3892.97Z" transform="translate(-765.473 -3871.179)" fill="#7d87a8"/>
          <path id="Path_81" data-name="Path 81" d="M765.445,3944.136s-.783,5.831,1.933,17.309a4.987,4.987,0,0,0,3.59-.674s2.173-11.945-.677-16.244C770.29,3944.528,767.084,3942.539,765.445,3944.136Z" transform="translate(-765.34 -3926.07)" fill="#7d87a8"/>
          <path id="Path_82" data-name="Path 82" d="M779.683,3945.246c.891.367,2.074,1,1.954,1.346C781.393,3947.3,779.683,3945.246,779.683,3945.246Z" transform="translate(-776.224 -3927.383)" fill="#7d87a8"/>
          <path id="Path_83" data-name="Path 83" d="M780.513,3948.019c.519-.813,1.349-1.866,1.671-1.686C782.843,3946.7,780.513,3948.019,780.513,3948.019Z" transform="translate(-776.854 -3928.192)" fill="#7d87a8"/>
          <path id="Path_84" data-name="Path 84" d="M788.845,3913.573a53.635,53.635,0,0,1-5.139,8.477c2.059,4.7.794,15.589.716,16.246.158-.073.319-.152.482-.246,0,0,1.915-10.528-.209-15.373C787.073,3919.831,788.4,3915.321,788.845,3913.573Z" transform="translate(-779.277 -3903.348)" fill="#7d87a8"/>
          <path id="Path_85" data-name="Path 85" d="M771.719,4007.42a.494.494,0,0,0-.072-.983.511.511,0,0,0-.125.018Z" transform="translate(-770.032 -3973.816)" fill="#7d87a8"/>
        </g>
        <g id="Group_16" data-name="Group 16" transform="translate(31.877 3.865)">
          <path id="Path_86" data-name="Path 86" d="M918.407,4013.986l.589-2.1-3.281-.073.584,2.062Z" transform="translate(-911.325 -3977.403)" fill="#7d87a8"/>
          <path id="Path_87" data-name="Path 87" d="M917.433,4013.062c-.45-.086-.851.022-1.171.681l-.548-1.933,3.281.073-.589,2.1-.112-.006A.944.944,0,0,0,917.433,4013.062Z" transform="translate(-911.325 -3977.403)" fill="#7d87a8"/>
          <path id="Path_88" data-name="Path 88" d="M906.478,3890.938c1.562-.054.732-14.163-3.282-21.792,0,0-5.416,5.464-5.68,9.5C897.516,3878.641,900.171,3891.155,906.478,3890.938Z" transform="translate(-897.516 -3869.146)" fill="#7d87a8"/>
          <path id="Path_89" data-name="Path 89" d="M917.611,3942.1s.783,5.83-1.933,17.309a4.985,4.985,0,0,1-3.59-.675s-2.173-11.945.677-16.243C912.765,3942.492,915.971,3940.5,917.611,3942.1Z" transform="translate(-907.972 -3924.035)" fill="#7d87a8"/>
          <path id="Path_90" data-name="Path 90" d="M917.4,3943.21c-.891.367-2.074,1-1.955,1.347C915.687,3945.269,917.4,3943.21,917.4,3943.21Z" transform="translate(-911.113 -3925.348)" fill="#7d87a8"/>
          <path id="Path_91" data-name="Path 91" d="M917.116,3945.986c-.519-.812-1.349-1.865-1.671-1.686C914.787,3944.666,917.116,3945.986,917.116,3945.986Z" transform="translate(-911.032 -3926.159)" fill="#7d87a8"/>
          <path id="Path_92" data-name="Path 92" d="M898.242,3911.537a53.644,53.644,0,0,0,5.139,8.477c-2.059,4.7-.794,15.59-.716,16.247-.158-.074-.319-.153-.482-.247,0,0-1.915-10.527.209-15.373C900.014,3917.8,898.689,3913.285,898.242,3911.537Z" transform="translate(-898.067 -3901.313)" fill="#7d87a8"/>
          <path id="Path_93" data-name="Path 93" d="M929.588,4005.382a.493.493,0,1,1,.2-.965Z" transform="translate(-921.532 -3971.78)" fill="#7d87a8"/>
        </g>
        <path id="Path_94" data-name="Path 94" d="M781.873,3857.542c2.914,11.852,8.4,39.441,8.4,39.441,1.612,1.552,4.918,2.182,8.316,2.154l.547-1.524.908,1.474c3.477-.214,6.812-1.082,8.276-2.32.949-5.115,7.064-39.8,7.064-39.8C797.606,3847.985,781.873,3857.542,781.873,3857.542Z" transform="translate(-777.886 -3853.119)" fill="#7d87a8"/>
      </g>
      <path id="Path_95" data-name="Path 95" d="M837.119,3844.96c-1.434-1.512-10.255-1.724-12.16.006l-.655,1.809c4.025.46,7.638.341,13.925-.056Z" transform="translate(-810.083 -3820.368)" fill="#7d87a8"/>
    </g>
    <g id="Group_23" data-name="Group 23" transform="translate(392.578 3523.493)">
      <g id="Group_19" data-name="Group 19" transform="translate(13.159)">
        <path id="Path_96" data-name="Path 96" d="M669.738,3801.6c.131-1.37.743-2.111,1.349-2.111s.978.741.847,2.111a2.045,2.045,0,0,1-1.738,2.006C669.589,3803.6,669.606,3802.966,669.738,3801.6Z" transform="translate(-656.235 -3787.341)" fill="#7d87a8"/>
        <path id="Path_97" data-name="Path 97" d="M616.3,3801.921c-.091-1.371-.708-2.112-1.343-2.112s-1.049.741-.957,2.112a2,2,0,0,0,1.755,2.006C616.39,3803.927,616.391,3803.291,616.3,3801.921Z" transform="translate(-613.987 -3787.588)" fill="#7d87a8"/>
        <path id="Path_98" data-name="Path 98" d="M619.8,3775.328c.091.737,2.984,3.922,6.279,3.922s6.022-2.9,6.6-4.079-1.736-16.157-3.08-17.412-6.764-.426-7.224.235C621.28,3759.563,619.446,3772.426,619.8,3775.328Z" transform="translate(-618.366 -3755.185)" fill="#7d87a8"/>
        <path id="Path_99" data-name="Path 99" d="M625.124,3763.561c.474.229,2.349-4.628,2.741-5.441s.326-1.657-.149-1.887-1.178.244-1.57,1.057S624.649,3763.332,625.124,3763.561Z" transform="translate(-622.349 -3754.477)" fill="#7d87a8"/>
        <path id="Path_100" data-name="Path 100" d="M657.71,3762.547c.5-.169-.819-5.1-1.109-5.954s-.93-1.41-1.429-1.241-.669,1-.379,1.854S657.211,3762.717,657.71,3762.547Z" transform="translate(-644.844 -3753.829)" fill="#7d87a8"/>
        <path id="Path_101" data-name="Path 101" d="M634.1,3831.247h-7.448l-1.115,6.824c4.054,2.113,6.423,1.884,9.581-.461Z" transform="translate(-622.75 -3811.444)" fill="#7d87a8"/>
        <path id="Path_102" data-name="Path 102" d="M645.094,3835.817c0-.144-.263-.261-.588-.261s-.588.117-.588.261.263.157.588.157S645.094,3835.962,645.094,3835.817Z" transform="translate(-636.699 -3814.713)" fill="#7d87a8"/>
        <path id="Path_103" data-name="Path 103" d="M617.538,3766.795c-.261-1.673-.718-13.671.364-15.254s7.451-2.62,8.447-2.367c2.17.549,1.789,2.189,1.789,2.189a3.647,3.647,0,0,1,1.828.529c.749.527,2.31,8.086,1.062,13.8-.561,2.57-2.771,4.811-6.588,4.916C619.706,3770.741,617.862,3768.875,617.538,3766.795Z" transform="translate(-616.437 -3749.135)" fill="#7d87a8"/>
        <path id="Path_104" data-name="Path 104" d="M624.18,3764.978a25.966,25.966,0,0,1-6.644-.8c-.589,3.518-.221,12.593,0,14.032.325,2.08,2.169,3.946,6.9,3.817,3.818-.1,6.027-2.346,6.588-4.916a29.214,29.214,0,0,0-.583-12.836A26.49,26.49,0,0,1,624.18,3764.978Z" transform="translate(-616.438 -3760.548)" fill="#7d87a8"/>
      </g>
      <g id="Group_22" data-name="Group 22" transform="translate(0 25.639)">
        <g id="Group_20" data-name="Group 20" transform="translate(0 4.355)">
          <path id="Path_105" data-name="Path 105" d="M568.61,4018.347l-.588-2.1,3.281-.073-.584,2.061Z" transform="translate(-565.949 -3981.764)" fill="#7d87a8"/>
          <path id="Path_106" data-name="Path 106" d="M569.584,4017.422c.45-.086.851.022,1.171.681l.547-1.933-3.281.072.589,2.1.112-.006A.944.944,0,0,1,569.584,4017.422Z" transform="translate(-565.948 -3981.762)" fill="#7d87a8"/>
          <path id="Path_107" data-name="Path 107" d="M560.34,3895.295c-1.563-.054-.732-14.163,3.282-21.792,0,0,5.416,5.464,5.68,9.5C569.3,3883,566.646,3895.513,560.34,3895.295Z" transform="translate(-559.558 -3873.503)" fill="#7d87a8"/>
          <path id="Path_108" data-name="Path 108" d="M559.53,3946.46s-.783,5.831,1.933,17.309a4.984,4.984,0,0,0,3.59-.675s2.173-11.945-.677-16.244C564.375,3946.851,561.169,3944.863,559.53,3946.46Z" transform="translate(-559.425 -3928.394)" fill="#7d87a8"/>
          <path id="Path_109" data-name="Path 109" d="M573.767,3947.57c.891.367,2.075,1,1.955,1.346C575.477,3949.629,573.767,3947.57,573.767,3947.57Z" transform="translate(-570.308 -3929.707)" fill="#7d87a8"/>
          <path id="Path_110" data-name="Path 110" d="M574.6,3950.343c.519-.812,1.348-1.866,1.671-1.686C576.928,3949.023,574.6,3950.343,574.6,3950.343Z" transform="translate(-570.939 -3930.516)" fill="#7d87a8"/>
          <path id="Path_111" data-name="Path 111" d="M582.93,3915.9a53.635,53.635,0,0,1-5.139,8.477c2.059,4.7.794,15.589.716,16.246.158-.073.319-.152.482-.246,0,0,1.915-10.528-.209-15.373C581.158,3922.154,582.483,3917.644,582.93,3915.9Z" transform="translate(-573.362 -3905.672)" fill="#7d87a8"/>
          <path id="Path_112" data-name="Path 112" d="M565.8,4009.741a.494.494,0,0,0-.072-.982.511.511,0,0,0-.125.018Z" transform="translate(-564.117 -3976.138)" fill="#7d87a8"/>
        </g>
        <g id="Group_21" data-name="Group 21" transform="translate(31.877 3.865)">
          <path id="Path_113" data-name="Path 113" d="M712.493,4016.31l.589-2.1-3.281-.073.584,2.061Z" transform="translate(-705.411 -3979.726)" fill="#7d87a8"/>
          <path id="Path_114" data-name="Path 114" d="M711.518,4015.388c-.45-.087-.851.022-1.171.68l-.547-1.933,3.282.073-.589,2.1-.112-.006A.943.943,0,0,0,711.518,4015.388Z" transform="translate(-705.41 -3979.727)" fill="#7d87a8"/>
          <path id="Path_115" data-name="Path 115" d="M700.562,3893.26c1.563-.054.733-14.163-3.282-21.792,0,0-5.416,5.463-5.68,9.5C691.6,3880.964,694.257,3893.478,700.562,3893.26Z" transform="translate(-691.601 -3871.468)" fill="#7d87a8"/>
          <path id="Path_116" data-name="Path 116" d="M711.7,3944.424s.783,5.831-1.933,17.309a4.985,4.985,0,0,1-3.59-.675s-2.173-11.945.677-16.244C706.85,3944.815,710.056,3942.827,711.7,3944.424Z" transform="translate(-702.057 -3926.358)" fill="#7d87a8"/>
          <path id="Path_117" data-name="Path 117" d="M711.483,3945.535c-.891.368-2.075,1-1.955,1.346C709.773,3947.593,711.483,3945.535,711.483,3945.535Z" transform="translate(-705.198 -3927.672)" fill="#7d87a8"/>
          <path id="Path_118" data-name="Path 118" d="M711.2,3948.306c-.519-.812-1.349-1.866-1.671-1.686C708.872,3946.987,711.2,3948.306,711.2,3948.306Z" transform="translate(-705.117 -3928.48)" fill="#7d87a8"/>
          <path id="Path_119" data-name="Path 119" d="M692.327,3913.861a53.634,53.634,0,0,0,5.139,8.477c-2.059,4.7-.794,15.59-.716,16.247-.158-.073-.319-.152-.482-.247,0,0-1.915-10.528.209-15.373C694.1,3920.119,692.774,3915.609,692.327,3913.861Z" transform="translate(-692.152 -3903.637)" fill="#7d87a8"/>
          <path id="Path_120" data-name="Path 120" d="M723.669,4007.707a.494.494,0,0,1,.072-.983.487.487,0,0,1,.124.018Z" transform="translate(-715.613 -3974.104)" fill="#7d87a8"/>
        </g>
        <path id="Path_121" data-name="Path 121" d="M575.958,3859.866c2.914,11.852,8.4,39.441,8.4,39.441,1.612,1.552,4.918,2.182,8.316,2.155l.547-1.525.907,1.475c3.478-.215,6.812-1.082,8.276-2.321.949-5.115,7.064-39.8,7.064-39.8C591.691,3850.309,575.958,3859.866,575.958,3859.866Z" transform="translate(-571.971 -3855.443)" fill="#7d87a8"/>
      </g>
      <path id="Path_122" data-name="Path 122" d="M631.2,3847.284c-1.434-1.513-10.254-1.724-12.16.006l-.655,1.809c4.025.46,7.638.341,13.926-.056Z" transform="translate(-604.168 -3822.692)" fill="#7d87a8"/>
    </g>
    <g id="Group_29" data-name="Group 29" transform="translate(341.642 3523.028)">
      <path id="Path_123" data-name="Path 123" d="M431.652,3752.878c.671-.632,1.564-2.934-.744-5.3,0,0,.744,1.707-.3,2.239,0,0,.26-2.277-1.824-2.614,0,0,.484.754.186,1.055,0,0-.756-1.2-2.9-.218-2.085.956-4.511,6.542-3.865,12.788Z" transform="translate(-404.281 -3747.207)" fill="#7d87a8"/>
      <g id="Group_28" data-name="Group 28" transform="translate(0 0)">
        <g id="Group_24" data-name="Group 24" transform="translate(13.159)">
          <path id="Path_124" data-name="Path 124" d="M458.536,3799.666c.131-1.37.743-2.111,1.349-2.111s.978.741.847,2.111a2.044,2.044,0,0,1-1.738,2.006C458.387,3801.672,458.406,3801.037,458.536,3799.666Z" transform="translate(-445.035 -3785.412)" fill="#7d87a8"/>
          <path id="Path_125" data-name="Path 125" d="M405.1,3799.991c-.091-1.37-.708-2.111-1.343-2.111s-1.049.741-.957,2.111a2,2,0,0,0,1.755,2.006C405.19,3802,405.192,3801.362,405.1,3799.991Z" transform="translate(-402.787 -3785.659)" fill="#7d87a8"/>
          <path id="Path_126" data-name="Path 126" d="M408.6,3773.4c.091.737,2.984,3.921,6.279,3.921s6.023-2.9,6.6-4.079-1.736-16.157-3.08-17.412-6.764-.426-7.224.235C410.081,3757.63,408.247,3770.494,408.6,3773.4Z" transform="translate(-407.167 -3753.253)" fill="#7d87a8"/>
          <path id="Path_127" data-name="Path 127" d="M413.924,3761.632c.474.229,2.349-4.629,2.741-5.442s.326-1.657-.149-1.887-1.178.244-1.57,1.057S413.449,3761.4,413.924,3761.632Z" transform="translate(-411.15 -3752.548)" fill="#7d87a8"/>
          <path id="Path_128" data-name="Path 128" d="M446.512,3760.619c.5-.169-.82-5.1-1.109-5.954s-.929-1.41-1.429-1.241-.669,1-.379,1.854S446.012,3760.789,446.512,3760.619Z" transform="translate(-433.645 -3751.901)" fill="#7d87a8"/>
          <path id="Path_129" data-name="Path 129" d="M422.9,3829.317h-7.448l-1.115,6.824c4.054,2.112,6.422,1.883,9.58-.461Z" transform="translate(-411.55 -3809.514)" fill="#7d87a8"/>
          <path id="Path_130" data-name="Path 130" d="M433.9,3833.888c0-.144-.264-.261-.588-.261s-.588.117-.588.261.263.157.588.157S433.9,3834.032,433.9,3833.888Z" transform="translate(-425.5 -3812.785)" fill="#7d87a8"/>
          <path id="Path_131" data-name="Path 131" d="M406.338,3764.866c-.261-1.673-.717-13.671.364-15.254s7.45-2.62,8.447-2.367c2.17.549,1.789,2.19,1.789,2.19a3.642,3.642,0,0,1,1.828.529c.749.527,2.31,8.086,1.062,13.8-.561,2.57-2.771,4.811-6.588,4.916C408.506,3768.813,406.662,3766.946,406.338,3764.866Z" transform="translate(-405.237 -3747.207)" fill="#7d87a8"/>
          <path id="Path_132" data-name="Path 132" d="M412.98,3763.049a25.943,25.943,0,0,1-6.644-.8c-.59,3.517-.222,12.593,0,14.032.325,2.08,2.169,3.946,6.9,3.817,3.817-.1,6.027-2.346,6.588-4.916a29.223,29.223,0,0,0-.583-12.836A26.491,26.491,0,0,1,412.98,3763.049Z" transform="translate(-405.239 -3758.619)" fill="#7d87a8"/>
        </g>
        <g id="Group_27" data-name="Group 27" transform="translate(0 25.639)">
          <g id="Group_25" data-name="Group 25" transform="translate(0 4.356)">
            <path id="Path_133" data-name="Path 133" d="M357.411,4016.417l-.589-2.1,3.281-.073-.584,2.061Z" transform="translate(-354.749 -3979.833)" fill="#7d87a8"/>
            <path id="Path_134" data-name="Path 134" d="M358.385,4015.494c.45-.086.851.022,1.171.681l.548-1.934-3.281.073.589,2.1.112-.006A.943.943,0,0,1,358.385,4015.494Z" transform="translate(-354.749 -3979.833)" fill="#7d87a8"/>
            <path id="Path_135" data-name="Path 135" d="M349.14,3893.366c-1.563-.054-.732-14.163,3.282-21.792,0,0,5.416,5.464,5.68,9.5C358.1,3881.069,355.447,3893.584,349.14,3893.366Z" transform="translate(-348.358 -3871.574)" fill="#7d87a8"/>
            <path id="Path_136" data-name="Path 136" d="M348.331,3944.532s-.783,5.831,1.933,17.309a4.986,4.986,0,0,0,3.59-.674s2.173-11.945-.677-16.244C353.176,3944.922,349.97,3942.935,348.331,3944.532Z" transform="translate(-348.226 -3926.465)" fill="#7d87a8"/>
            <path id="Path_137" data-name="Path 137" d="M362.568,3945.642c.891.367,2.075,1,1.954,1.346C364.278,3947.7,362.568,3945.642,362.568,3945.642Z" transform="translate(-359.109 -3927.779)" fill="#7d87a8"/>
            <path id="Path_138" data-name="Path 138" d="M363.4,3948.414c.519-.812,1.349-1.866,1.671-1.686C365.728,3947.094,363.4,3948.414,363.4,3948.414Z" transform="translate(-359.74 -3928.587)" fill="#7d87a8"/>
            <path id="Path_139" data-name="Path 139" d="M371.734,3913.968a53.651,53.651,0,0,1-5.139,8.476c2.059,4.7.794,15.59.716,16.247.158-.073.32-.153.482-.247,0,0,1.915-10.527-.209-15.373C369.961,3920.226,371.287,3915.716,371.734,3913.968Z" transform="translate(-362.165 -3903.744)" fill="#7d87a8"/>
            <path id="Path_140" data-name="Path 140" d="M354.6,4007.813a.494.494,0,0,0-.072-.983.514.514,0,0,0-.125.018Z" transform="translate(-352.917 -3974.209)" fill="#7d87a8"/>
          </g>
          <g id="Group_26" data-name="Group 26" transform="translate(31.877 3.865)">
            <path id="Path_141" data-name="Path 141" d="M501.292,4014.381l.589-2.1-3.281-.073.584,2.061Z" transform="translate(-494.211 -3977.797)" fill="#7d87a8"/>
            <path id="Path_142" data-name="Path 142" d="M500.319,4013.459c-.45-.086-.851.022-1.171.681l-.547-1.933,3.281.072-.589,2.1-.112-.005A.943.943,0,0,0,500.319,4013.459Z" transform="translate(-494.211 -3977.799)" fill="#7d87a8"/>
            <path id="Path_143" data-name="Path 143" d="M489.363,3891.331c1.563-.054.732-14.163-3.282-21.792,0,0-5.416,5.464-5.68,9.5C480.4,3879.035,483.057,3891.549,489.363,3891.331Z" transform="translate(-480.402 -3869.539)" fill="#7d87a8"/>
            <path id="Path_144" data-name="Path 144" d="M500.5,3942.5s.783,5.83-1.933,17.308a4.982,4.982,0,0,1-3.59-.674s-2.173-11.945.677-16.243C495.651,3942.887,498.857,3940.9,500.5,3942.5Z" transform="translate(-490.858 -3924.43)" fill="#7d87a8"/>
            <path id="Path_145" data-name="Path 145" d="M500.283,3943.6c-.891.367-2.075,1-1.955,1.346C498.573,3945.664,500.283,3943.6,500.283,3943.6Z" transform="translate(-493.999 -3925.742)" fill="#7d87a8"/>
            <path id="Path_146" data-name="Path 146" d="M500,3946.379c-.519-.812-1.349-1.865-1.671-1.686C497.672,3945.06,500,3946.379,500,3946.379Z" transform="translate(-493.918 -3926.552)" fill="#7d87a8"/>
            <path id="Path_147" data-name="Path 147" d="M481.128,3911.932a53.59,53.59,0,0,0,5.139,8.477c-2.059,4.7-.794,15.59-.716,16.247-.158-.073-.319-.152-.482-.246,0,0-1.915-10.528.209-15.373C482.9,3918.19,481.575,3913.68,481.128,3911.932Z" transform="translate(-480.953 -3901.708)" fill="#7d87a8"/>
            <path id="Path_148" data-name="Path 148" d="M512.473,4005.777a.494.494,0,0,1,.072-.982.489.489,0,0,1,.125.018Z" transform="translate(-504.417 -3972.175)" fill="#7d87a8"/>
          </g>
          <path id="Path_149" data-name="Path 149" d="M364.758,3857.937c2.914,11.852,8.4,39.441,8.4,39.441,1.612,1.552,4.918,2.182,8.316,2.154l.547-1.524.907,1.475c3.477-.215,6.812-1.082,8.276-2.32.949-5.115,7.064-39.8,7.064-39.8C380.491,3848.38,364.758,3857.937,364.758,3857.937Z" transform="translate(-360.771 -3853.514)" fill="#7d87a8"/>
        </g>
        <path id="Path_150" data-name="Path 150" d="M420,3845.355c-1.433-1.513-10.254-1.725-12.16.006l-.655,1.809c4.025.46,7.637.341,13.925-.055Z" transform="translate(-392.969 -3820.763)" fill="#7d87a8"/>
      </g>
    </g>
    <g id="Group_34" data-name="Group 34" transform="translate(493.721 3519.045)">
      <g id="Group_30" data-name="Group 30" transform="translate(13.046 0)">
        <path id="Path_151" data-name="Path 151" d="M1089.111,3793.74c.131-1.37.743-2.112,1.349-2.112s.978.742.847,2.112a2.045,2.045,0,0,1-1.738,2.006C1088.963,3795.747,1088.981,3795.11,1089.111,3793.74Z" transform="translate(-1075.497 -3776.932)" fill="#7d87a8"/>
        <path id="Path_152" data-name="Path 152" d="M1035.676,3794.063c-.091-1.371-.708-2.111-1.343-2.111s-1.049.741-.958,2.111a2,2,0,0,0,1.755,2.006C1035.766,3796.069,1035.768,3795.434,1035.676,3794.063Z" transform="translate(-1033.25 -3777.178)" fill="#7d87a8"/>
        <path id="Path_153" data-name="Path 153" d="M1039.18,3767.47c.091.737,2.984,3.921,6.279,3.921s6.023-2.9,6.595-4.079-1.736-16.157-3.08-17.412-6.764-.426-7.224.235C1040.657,3751.7,1038.823,3764.568,1039.18,3767.47Z" transform="translate(-1037.63 -3744.773)" fill="#7d87a8"/>
        <path id="Path_154" data-name="Path 154" d="M1044.5,3755.7c.474.229,2.349-4.629,2.741-5.441s.326-1.657-.149-1.887-1.177.244-1.57,1.057S1044.025,3755.474,1044.5,3755.7Z" transform="translate(-1041.613 -3744.066)" fill="#7d87a8"/>
        <path id="Path_155" data-name="Path 155" d="M1077.087,3754.691c.5-.169-.819-5.1-1.109-5.954s-.93-1.41-1.429-1.241-.669,1-.379,1.853S1076.588,3754.86,1077.087,3754.691Z" transform="translate(-1064.108 -3743.42)" fill="#7d87a8"/>
        <path id="Path_156" data-name="Path 156" d="M1053.474,3823.389h-7.448l-1.115,6.823c4.054,2.113,6.423,1.884,9.581-.461Z" transform="translate(-1042.014 -3801.033)" fill="#7d87a8"/>
        <path id="Path_157" data-name="Path 157" d="M1064.471,3827.96c0-.145-.263-.261-.588-.261s-.588.117-.588.261.263.157.588.157S1064.471,3828.1,1064.471,3827.96Z" transform="translate(-1055.963 -3804.303)" fill="#7d87a8"/>
        <path id="Path_158" data-name="Path 158" d="M1036.914,3758.938c-.261-1.674-.717-13.671.364-15.254s7.451-2.62,8.447-2.367c2.17.549,1.789,2.19,1.789,2.19a3.642,3.642,0,0,1,1.828.529c.749.527,2.31,8.086,1.062,13.8-.561,2.57-2.771,4.811-6.588,4.916C1039.083,3762.885,1037.239,3761.017,1036.914,3758.938Z" transform="translate(-1035.7 -3738.725)" fill="#7d87a8"/>
        <path id="Path_159" data-name="Path 159" d="M1035.794,3746.015c-.776.234-2.469-1.061-1.669-1.745,0,0-1.524-1.167-.284-1.825,0,0-1.246-1.533-.029-1.943,0,0-1.895-2.412-.236-2.371,0,0-.871-2.582.819-2.2,0,0,.3-2.806,1.642-1.85,0,0-.133-2.668,1.576-1.191,0,0,1.134-3.091,1.586-.934,0,0,1.424-2.12,1.861-.615,0,0,3.233-1.526,2.207.108,0,0,3.281-1.092,2.324.511,0,0,3.193.536,1.534,1.976,0,0,2.394,2.186.322,2.366,0,0,1.835,3.094-.188,2.486,0,0,1.768,3.6-.515,2.349,0,0,1.646,4.08-.3,2.63,0,0,.4,4.964-1.041,2.774Z" transform="translate(-1032.895 -3730.692)" fill="#7d87a8"/>
        <path id="Path_160" data-name="Path 160" d="M1042.447,3786.618a25.985,25.985,0,0,1-6.644-.8,16.808,16.808,0,0,0,.337,6.918c.325,2.08,2.169,3.946,6.9,3.817,3.817-.1,6.119-2.327,6.589-4.915.69-3.813.69-3.813.452-5.82A39.513,39.513,0,0,1,1042.447,3786.618Z" transform="translate(-1034.927 -3772.521)" fill="#7d87a8"/>
      </g>
      <g id="Group_33" data-name="Group 33" transform="translate(0 28.192)">
        <g id="Group_31" data-name="Group 31" transform="translate(0 4.356)">
          <path id="Path_161" data-name="Path 161" d="M987.987,4010.488l-.589-2.1,3.281-.073-.583,2.061Z" transform="translate(-985.325 -3973.904)" fill="#7d87a8"/>
          <path id="Path_162" data-name="Path 162" d="M988.961,4009.565c.45-.087.851.022,1.171.68l.548-1.933-3.281.073.589,2.1.112-.006A.943.943,0,0,1,988.961,4009.565Z" transform="translate(-985.325 -3973.904)" fill="#7d87a8"/>
          <path id="Path_163" data-name="Path 163" d="M979.717,3887.437c-1.562-.054-.733-14.163,3.282-21.792,0,0,5.416,5.464,5.68,9.5C988.678,3875.141,986.023,3887.655,979.717,3887.437Z" transform="translate(-978.935 -3865.645)" fill="#7d87a8"/>
          <path id="Path_164" data-name="Path 164" d="M978.907,3938.6s-.783,5.831,1.933,17.309a4.986,4.986,0,0,0,3.59-.674s2.173-11.945-.677-16.244C983.752,3938.993,980.546,3937,978.907,3938.6Z" transform="translate(-978.802 -3920.535)" fill="#7d87a8"/>
          <path id="Path_165" data-name="Path 165" d="M993.144,3939.713c.891.367,2.075,1,1.955,1.346C994.854,3941.772,993.144,3939.713,993.144,3939.713Z" transform="translate(-989.685 -3921.849)" fill="#7d87a8"/>
          <path id="Path_166" data-name="Path 166" d="M993.974,3942.485c.519-.812,1.349-1.866,1.671-1.686C996.3,3941.165,993.974,3942.485,993.974,3942.485Z" transform="translate(-990.315 -3922.658)" fill="#7d87a8"/>
          <path id="Path_167" data-name="Path 167" d="M1002.306,3908.039a53.6,53.6,0,0,1-5.139,8.476c2.059,4.7.794,15.59.716,16.247.158-.073.319-.153.482-.246,0,0,1.915-10.529-.209-15.373C1000.535,3914.3,1001.859,3909.787,1002.306,3908.039Z" transform="translate(-992.738 -3897.814)" fill="#7d87a8"/>
          <path id="Path_168" data-name="Path 168" d="M985.181,4001.884a.494.494,0,0,0-.072-.982.472.472,0,0,0-.125.018Z" transform="translate(-983.493 -3968.281)" fill="#7d87a8"/>
        </g>
        <g id="Group_32" data-name="Group 32" transform="translate(31.877 3.865)">
          <path id="Path_169" data-name="Path 169" d="M1131.869,4008.453l.589-2.1-3.281-.073.584,2.062Z" transform="translate(-1124.787 -3971.869)" fill="#7d87a8"/>
          <path id="Path_170" data-name="Path 170" d="M1130.894,4007.529c-.45-.086-.851.022-1.171.681l-.548-1.934,3.281.073-.589,2.1-.112-.006A.943.943,0,0,0,1130.894,4007.529Z" transform="translate(-1124.787 -3971.869)" fill="#7d87a8"/>
          <path id="Path_171" data-name="Path 171" d="M1119.939,3885.4c1.563-.054.733-14.163-3.282-21.792,0,0-5.416,5.464-5.68,9.5C1110.977,3873.106,1113.633,3885.62,1119.939,3885.4Z" transform="translate(-1110.977 -3863.61)" fill="#7d87a8"/>
          <path id="Path_172" data-name="Path 172" d="M1131.073,3936.568s.783,5.831-1.933,17.309a4.984,4.984,0,0,1-3.59-.674s-2.173-11.945.677-16.244C1126.227,3936.958,1129.433,3934.97,1131.073,3936.568Z" transform="translate(-1121.433 -3918.501)" fill="#7d87a8"/>
          <path id="Path_173" data-name="Path 173" d="M1130.859,3937.677c-.891.367-2.074,1-1.954,1.346C1129.149,3939.736,1130.859,3937.677,1130.859,3937.677Z" transform="translate(-1124.574 -3919.814)" fill="#7d87a8"/>
          <path id="Path_174" data-name="Path 174" d="M1130.575,3940.45c-.519-.812-1.348-1.865-1.671-1.686C1128.246,3939.13,1130.575,3940.45,1130.575,3940.45Z" transform="translate(-1124.492 -3920.624)" fill="#7d87a8"/>
          <path id="Path_175" data-name="Path 175" d="M1111.7,3906a53.662,53.662,0,0,0,5.139,8.477c-2.059,4.7-.794,15.59-.715,16.246-.159-.073-.319-.152-.482-.246,0,0-1.915-10.527.209-15.373C1113.476,3912.262,1112.151,3907.752,1111.7,3906Z" transform="translate(-1111.529 -3895.78)" fill="#7d87a8"/>
          <path id="Path_176" data-name="Path 176" d="M1143.05,3999.849a.494.494,0,0,1,.072-.983.487.487,0,0,1,.125.018Z" transform="translate(-1134.993 -3966.245)" fill="#7d87a8"/>
        </g>
        <path id="Path_177" data-name="Path 177" d="M995.334,3852.008c2.914,11.852,8.4,39.441,8.4,39.441,1.612,1.552,4.918,2.182,8.316,2.154l.547-1.524.907,1.474c3.478-.215,6.812-1.082,8.276-2.32.949-5.115,7.064-39.8,7.064-39.8C1011.068,3842.451,995.334,3852.008,995.334,3852.008Z" transform="translate(-991.347 -3847.585)" fill="#7d87a8"/>
      </g>
      <path id="Path_178" data-name="Path 178" d="M1050.58,3839.426c-1.434-1.513-10.255-1.724-12.161.006l-.655,1.809c4.025.46,7.637.341,13.925-.056Z" transform="translate(-1023.544 -3812.281)" fill="#7d87a8"/>
    </g>
    <g id="students" transform="translate(339.55 3569.673)">
      <g id="Group_35" data-name="Group 35">
        <path id="Path_179" data-name="Path 179" d="M387.223,3966.09H342.3l-2.716-20.866a4.017,4.017,0,0,1,3.88-4.612h37.021a3.967,3.967,0,0,1,3.879,3.522Z" transform="translate(-339.55 -3940.612)" fill="#2e3667"/>
        <path id="Path_180" data-name="Path 180" d="M595.282,3966.09H550.361l-2.05-21a4.012,4.012,0,0,1,3.9-4.478h37.051a3.976,3.976,0,0,1,3.9,3.657Z" transform="translate(-497.948 -3940.612)" fill="#2e3667"/>
        <path id="Path_181" data-name="Path 181" d="M801.177,3945.089l-2.05,21H754.206l2.13-21.822a3.974,3.974,0,0,1,3.895-3.657h37.052A4.012,4.012,0,0,1,801.177,3945.089Z" transform="translate(-654.202 -3940.612)" fill="#2e3667"/>
        <path id="Path_182" data-name="Path 182" d="M1007.759,3945.224l-2.716,20.867h-44.92l2.857-21.957a3.967,3.967,0,0,1,3.879-3.522h37.021A4.017,4.017,0,0,1,1007.759,3945.224Z" transform="translate(-810.457 -3940.612)" fill="#2e3667"/>
      </g>
    </g>
  </g>
</svg>
