<svg xmlns="http://www.w3.org/2000/svg" width="544" height="395.836" viewBox="0 0 544 395.836">
  <g id="Group_15199" data-name="Group 15199" transform="translate(-304.894 -884.903)">
    <g id="Group_14218" data-name="Group 14218" transform="translate(304.894 884.903)">
      <g id="Group_14217" data-name="Group 14217">
        <g id="Group_14216" data-name="Group 14216">
          <g id="Group_14215" data-name="Group 14215">
            <g id="Group_14214" data-name="Group 14214">
              <g id="Group_14139" data-name="Group 14139">
                <g id="Group_14113" data-name="Group 14113" transform="translate(0.528)">
                  <g id="Group_14109" data-name="Group 14109" transform="translate(0.121)">
                    <path id="Path_15455" data-name="Path 15455" d="M848.667,899.457h.644V885.57H305.96v290.224h542.7v-29.152h.005Z" transform="translate(-305.96 -885.164)" fill="#fff"/>
                    <rect id="Rectangle_965" data-name="Rectangle 965" width="542.702" height="0.812" transform="translate(0 290.224)" fill="#a0bacb"/>
                    <rect id="Rectangle_966" data-name="Rectangle 966" width="543.351" height="0.812" fill="#7b88ac"/>
                  </g>
                  <g id="Group_14110" data-name="Group 14110" transform="translate(0 59.302)">
                    <path id="Path_15456" data-name="Path 15456" d="M394.487,983.219v-.213h-7.756v.213H306.561v176.94H471.2V983.219Zm69.9,5.682v38.908h-69.9V988.9Zm-77.653,45.622v74.333H313.378v-74.333Zm7.756,74.333v-74.333h69.9v74.333ZM386.732,988.9v38.908H313.378V988.9Zm-73.354,126.67h73.354v38.909H313.378Zm81.11,38.909V1115.57h69.9v38.909Z" transform="translate(-306.074 -982.6)" fill="#ebebeb"/>
                    <path id="Path_15457" data-name="Path 15457" d="M471.374,1160.3H305.761V982.552h80.171v-.213h8.729v.213h76.713Zm-164.639-.811H470.4V983.363H393.687v-.213h-6.782v.213h-80.17Zm157.823-4.87h-70.87V1114.9h70.87Zm-69.9-.811h68.923v-38.1H394.661Zm-7.756.811H312.578V1114.9h74.328Zm-73.354-.811h72.38v-38.1h-72.38ZM464.557,1109h-70.87v-75.145h70.87Zm-69.9-.812h68.923v-73.521H394.661Zm-7.756.812H312.578v-75.145h74.328Zm-73.354-.812h72.38v-73.521h-72.38Zm151.006-80.236h-70.87v-39.72h70.87Zm-69.9-.812h68.923v-38.1H394.661Zm-7.756.812H312.578v-39.72h74.328Zm-73.354-.812h72.38v-38.1h-72.38Z" transform="translate(-305.761 -982.339)" fill="#ebebeb"/>
                  </g>
                  <g id="Group_14111" data-name="Group 14111" transform="translate(204.132 58.255)">
                    <path id="Path_15458" data-name="Path 15458" d="M729.888,981.5v-.212h-7.756v.212h-80.17V1158.44H806.6V981.5Zm69.9,5.682v38.908h-69.9V987.18ZM722.132,1032.8v74.333H648.778V1032.8Zm7.756,74.333V1032.8h69.9v74.333ZM722.132,987.18v38.908H648.778V987.18Zm-73.354,126.67h73.354v38.908H648.778Zm81.11,38.908V1113.85h69.9v38.908Z" transform="translate(-641.475 -980.88)" fill="#ebebeb"/>
                    <path id="Path_15459" data-name="Path 15459" d="M806.774,1158.584H641.162V980.832h80.17v-.213h8.729v.213h76.713Zm-164.639-.812H805.8V981.643H729.088v-.213h-6.782v.213h-80.17Zm157.823-4.87H729.088v-39.72h70.871Zm-69.9-.811h68.923v-38.1H730.061Zm-7.756.811H647.978v-39.72h74.328Zm-73.354-.811h72.38v-38.1h-72.38Zm151.007-44.811H729.088v-75.145h70.871Zm-69.9-.812h68.923v-73.522H730.061Zm-7.756.812H647.978v-75.145h74.328Zm-73.354-.812h72.38v-73.522h-72.38Zm151.007-80.235H729.088v-39.72h70.871Zm-69.9-.812h68.923v-38.1H730.061Zm-7.756.812H647.978v-39.72h74.328Zm-73.354-.812h72.38v-38.1h-72.38Z" transform="translate(-641.162 -980.619)" fill="#ebebeb"/>
                  </g>
                  <g id="Group_14112" data-name="Group 14112" transform="translate(412.87 59.302)">
                    <path id="Path_15460" data-name="Path 15460" d="M1114.4,1154.479h-41.547V1115.57H1114.4v-6.714h-41.547v-74.333H1114.4v-6.714h-41.547V988.9H1114.4v-5.682h-41.547v-.213H1065.1v.213H984.93v176.94H1114.4Zm-49.3,0H991.746V1115.57H1065.1Zm0-45.623H991.746v-74.333H1065.1Zm0-81.047H991.746V988.9H1065.1Z" transform="translate(-984.443 -982.6)" fill="#ebebeb"/>
                    <path id="Path_15461" data-name="Path 15461" d="M1128.6,1239.87h42.033v-.812h-41.06v-38.1h41.06v-.812H1128.6Z" transform="translate(-1040.672 -1067.586)" fill="#ebebeb"/>
                    <path id="Path_15462" data-name="Path 15462" d="M1128.6,1142.129h42.033v-.812h-41.06V1067.8h41.06v-.812H1128.6Z" transform="translate(-1040.672 -1015.468)" fill="#ebebeb"/>
                    <path id="Path_15463" data-name="Path 15463" d="M1128.6,1031.744h42.033v-.812h-41.06v-38.1h41.06v-.812H1128.6Z" transform="translate(-1040.672 -986.13)" fill="#ebebeb"/>
                    <path id="Path_15464" data-name="Path 15464" d="M1069.657,992.024H995.33v39.72h74.327Zm-.974,38.908H996.3v-38.1h72.38Z" transform="translate(-988.514 -986.13)" fill="#ebebeb"/>
                    <path id="Path_15465" data-name="Path 15465" d="M1114.089,1159.493H985.1V983.364h80.17v-.213h6.782v.213h42.033v-.812h-41.06v-.213h-8.73v.213H984.131V1160.3h129.959Z" transform="translate(-984.131 -982.339)" fill="#ebebeb"/>
                    <path id="Path_15466" data-name="Path 15466" d="M995.33,1239.87h74.327v-39.72H995.33Zm.974-38.908h72.38v38.1H996.3Z" transform="translate(-988.514 -1067.586)" fill="#ebebeb"/>
                    <path id="Path_15467" data-name="Path 15467" d="M1069.657,1066.984H995.33v75.145h74.327Zm-.974,74.333H996.3V1067.8h72.38Z" transform="translate(-988.514 -1015.468)" fill="#ebebeb"/>
                  </g>
                </g>
                <g id="Group_14136" data-name="Group 14136" transform="translate(376.299 132.21)">
                  <ellipse id="Ellipse_80" data-name="Ellipse 80" cx="16.22" cy="13.519" rx="16.22" ry="13.519" fill="#fff4ba"/>
                  <g id="Group_14114" data-name="Group 14114" transform="translate(0.89 0.742)">
                    <path id="Path_15468" data-name="Path 15468" d="M939.968,1128.906c-8.453,0-15.331-5.732-15.331-12.778s6.877-12.777,15.331-12.777,15.33,5.732,15.33,12.777S948.42,1128.906,939.968,1128.906Zm0-25.061c-8.126,0-14.737,5.51-14.737,12.283s6.611,12.283,14.737,12.283,14.736-5.51,14.736-12.283S948.093,1103.845,939.968,1103.845Z" transform="translate(-924.637 -1103.35)" fill="#fff4ba"/>
                  </g>
                  <g id="Group_14115" data-name="Group 14115" transform="translate(15.923 4.122)">
                    <path id="Path_15469" data-name="Path 15469" d="M958.338,1118.549h-8.7a.276.276,0,0,1-.3-.248v-9.15a.3.3,0,0,1,.593,0v8.9h8.407a.251.251,0,1,1,0,.495Z" transform="translate(-949.338 -1108.904)" fill="#fff4ba"/>
                  </g>
                  <g id="Group_14118" data-name="Group 14118" transform="translate(15.923 1.525)">
                    <g id="Group_14116" data-name="Group 14116">
                      <path id="Path_15470" data-name="Path 15470" d="M949.635,1106.43a.276.276,0,0,1-.3-.247v-1.3a.3.3,0,0,1,.593,0v1.3A.275.275,0,0,1,949.635,1106.43Z" transform="translate(-949.338 -1104.637)" fill="#fff4ba"/>
                    </g>
                    <g id="Group_14117" data-name="Group 14117" transform="translate(0 21.949)">
                      <path id="Path_15471" data-name="Path 15471" d="M949.635,1142.493a.276.276,0,0,1-.3-.248v-1.3a.3.3,0,0,1,.593,0v1.3A.275.275,0,0,1,949.635,1142.493Z" transform="translate(-949.338 -1140.7)" fill="#fff4ba"/>
                    </g>
                  </g>
                  <g id="Group_14121" data-name="Group 14121" transform="translate(1.978 13.148)">
                    <g id="Group_14119" data-name="Group 14119" transform="translate(26.333)">
                      <path id="Path_15472" data-name="Path 15472" d="M971.546,1124.23h-1.557a.252.252,0,1,1,0-.495h1.557a.252.252,0,1,1,0,.495Z" transform="translate(-969.691 -1123.735)" fill="#fff4ba"/>
                    </g>
                    <g id="Group_14120" data-name="Group 14120">
                      <path id="Path_15473" data-name="Path 15473" d="M928.28,1124.23h-1.557a.252.252,0,1,1,0-.495h1.557a.252.252,0,1,1,0,.495Z" transform="translate(-926.425 -1123.735)" fill="#fff4ba"/>
                    </g>
                  </g>
                  <g id="Group_14128" data-name="Group 14128" transform="translate(3.783 3.338)">
                    <g id="Group_14124" data-name="Group 14124" transform="translate(0 4.09)">
                      <g id="Group_14122" data-name="Group 14122" transform="translate(22.923)">
                        <path id="Path_15474" data-name="Path 15474" d="M967.353,1115.47a.312.312,0,0,1-.259-.125.227.227,0,0,1,.113-.337l1.355-.639a.33.33,0,0,1,.4.093.226.226,0,0,1-.112.337l-1.355.639A.342.342,0,0,1,967.353,1115.47Z" transform="translate(-967.056 -1114.336)" fill="#fff4ba"/>
                      </g>
                      <g id="Group_14123" data-name="Group 14123" transform="translate(0 10.802)">
                        <path id="Path_15475" data-name="Path 15475" d="M929.689,1133.218a.312.312,0,0,1-.259-.125.227.227,0,0,1,.113-.337l1.356-.639a.33.33,0,0,1,.4.094.226.226,0,0,1-.112.337l-1.356.639A.341.341,0,0,1,929.689,1133.218Z" transform="translate(-929.392 -1132.084)" fill="#fff4ba"/>
                      </g>
                    </g>
                    <g id="Group_14127" data-name="Group 14127" transform="translate(4.661)">
                      <g id="Group_14125" data-name="Group 14125" transform="translate(14.122)">
                        <path id="Path_15476" data-name="Path 15476" d="M960.55,1109.206a.338.338,0,0,1-.159-.038.224.224,0,0,1-.091-.341l.835-1.1a.334.334,0,0,1,.41-.076.224.224,0,0,1,.091.342l-.835,1.1A.315.315,0,0,1,960.55,1109.206Z" transform="translate(-960.254 -1107.616)" fill="#fff4ba"/>
                      </g>
                      <g id="Group_14126" data-name="Group 14126" transform="translate(0 18.525)">
                        <path id="Path_15477" data-name="Path 15477" d="M937.346,1139.644a.348.348,0,0,1-.159-.038.225.225,0,0,1-.091-.342l.835-1.1a.335.335,0,0,1,.41-.076.224.224,0,0,1,.091.342l-.835,1.1A.316.316,0,0,1,937.346,1139.644Z" transform="translate(-937.05 -1138.054)" fill="#fff4ba"/>
                      </g>
                    </g>
                  </g>
                  <g id="Group_14135" data-name="Group 14135" transform="translate(4.153 3.03)">
                    <g id="Group_14131" data-name="Group 14131" transform="translate(4.907)">
                      <g id="Group_14129" data-name="Group 14129" transform="translate(12.96 19.106)">
                        <path id="Path_15478" data-name="Path 15478" d="M960.419,1140.128a.311.311,0,0,1-.259-.126l-.767-1.13a.226.226,0,0,1,.113-.337.33.33,0,0,1,.4.093l.767,1.13a.227.227,0,0,1-.113.337A.339.339,0,0,1,960.419,1140.128Z" transform="translate(-959.355 -1138.503)" fill="#fff4ba"/>
                      </g>
                      <g id="Group_14130" data-name="Group 14130">
                        <path id="Path_15479" data-name="Path 15479" d="M939.125,1108.735a.312.312,0,0,1-.259-.125l-.767-1.13a.227.227,0,0,1,.113-.337.331.331,0,0,1,.4.094l.766,1.13a.227.227,0,0,1-.113.337A.347.347,0,0,1,939.125,1108.735Z" transform="translate(-938.061 -1107.111)" fill="#fff4ba"/>
                      </g>
                    </g>
                    <g id="Group_14134" data-name="Group 14134" transform="translate(0 3.884)">
                      <g id="Group_14132" data-name="Group 14132" transform="translate(22.225 11.771)">
                        <path id="Path_15480" data-name="Path 15480" d="M968.128,1134.024a.34.34,0,0,1-.159-.038l-1.315-.7a.224.224,0,0,1-.091-.341.334.334,0,0,1,.41-.076l1.315.7a.224.224,0,0,1,.091.341A.314.314,0,0,1,968.128,1134.024Z" transform="translate(-966.517 -1132.834)" fill="#fff4ba"/>
                      </g>
                      <g id="Group_14133" data-name="Group 14133">
                        <path id="Path_15481" data-name="Path 15481" d="M931.61,1114.683a.337.337,0,0,1-.159-.038l-1.315-.7a.224.224,0,0,1-.091-.341.334.334,0,0,1,.41-.076l1.315.7a.224.224,0,0,1,.091.341A.313.313,0,0,1,931.61,1114.683Z" transform="translate(-929.999 -1113.493)" fill="#fff4ba"/>
                      </g>
                    </g>
                  </g>
                </g>
                <g id="Group_14137" data-name="Group 14137" transform="translate(0 255.689)">
                  <path id="Path_15482" data-name="Path 15482" d="M848.244,1305.582h-542.7v99.577h-.649v40.225H848.239V1309.825h.005Z" transform="translate(-304.893 -1305.237)" fill="#f9f9f9"/>
                  <rect id="Rectangle_967" data-name="Rectangle 967" width="541.571" height="0.582" transform="translate(1.941 139.345)" fill="#f9f9f9"/>
                  <rect id="Rectangle_968" data-name="Rectangle 968" width="542.707" height="0.582" transform="translate(0.649)" fill="#f9f9f9"/>
                </g>
                <g id="Group_14138" data-name="Group 14138" transform="translate(32.946 5.117)">
                  <path id="Path_15483" data-name="Path 15483" d="M920.031,980.139V893.31H917.95v86.829c-6.485.442-11.586,4.961-11.586,10.48,0,5.813,5.653,10.525,12.626,10.525s12.627-4.712,12.627-10.525C931.617,985.1,926.517,980.581,920.031,980.139Z" transform="translate(-573.243 -893.31)" fill="#ffb2b0"/>
                  <path id="Path_15484" data-name="Path 15484" d="M372.693,991.407V904.578h-2.08v86.829c-6.486.442-11.587,4.961-11.587,10.481,0,5.812,5.653,10.524,12.627,10.524s12.627-4.712,12.627-10.524C384.28,996.368,379.179,991.849,372.693,991.407Z" transform="translate(-359.026 -897.72)" fill="#ffb2b0"/>
                  <path id="Path_15485" data-name="Path 15485" d="M563.692,979.037V915.91H562.18v63.127c-4.716.321-8.424,3.607-8.424,7.62,0,4.226,4.11,7.652,9.18,7.652s9.18-3.426,9.18-7.652C572.116,982.643,568.408,979.358,563.692,979.037Z" transform="translate(-435.239 -902.155)" fill="#ffb2b0"/>
                  <path id="Path_15486" data-name="Path 15486" d="M1086.648,979.037V915.91h-1.513v63.127c-4.716.321-8.424,3.607-8.424,7.62,0,4.226,4.11,7.652,9.18,7.652s9.18-3.426,9.18-7.652C1095.071,982.643,1091.363,979.358,1086.648,979.037Z" transform="translate(-639.914 -902.155)" fill="#ffb2b0"/>
                </g>
              </g>
              <g id="Group_14176" data-name="Group 14176" transform="translate(18.372 125.52)">
                <g id="Group_14148" data-name="Group 14148" transform="translate(0 24.351)">
                  <g id="Group_14140" data-name="Group 14140">
                    <rect id="Rectangle_969" data-name="Rectangle 969" width="53.43" height="1.909" transform="translate(0.487 0.406)" fill="#ebebeb"/>
                    <path id="Path_15487" data-name="Path 15487" d="M389.482,1133.871h-54.4v-2.72h54.4Zm-53.43-.811h52.456v-1.1H336.053Z" transform="translate(-335.079 -1131.151)" fill="#ebebeb"/>
                  </g>
                  <g id="Group_14141" data-name="Group 14141" transform="translate(0 28.788)">
                    <rect id="Rectangle_970" data-name="Rectangle 970" width="53.43" height="1.909" transform="translate(0.487 0.405)" fill="#ebebeb"/>
                    <path id="Path_15488" data-name="Path 15488" d="M389.482,1181.172h-54.4v-2.72h54.4Zm-53.43-.811h52.456v-1.1H336.053Z" transform="translate(-335.079 -1178.452)" fill="#ebebeb"/>
                  </g>
                  <g id="Group_14142" data-name="Group 14142" transform="translate(0 57.576)">
                    <rect id="Rectangle_971" data-name="Rectangle 971" width="53.43" height="1.909" transform="translate(0.487 0.406)" fill="#ebebeb"/>
                    <path id="Path_15489" data-name="Path 15489" d="M389.482,1228.472h-54.4v-2.72h54.4Zm-53.43-.811h52.456v-1.1H336.053Z" transform="translate(-335.079 -1225.752)" fill="#ebebeb"/>
                  </g>
                  <g id="Group_14147" data-name="Group 14147" transform="translate(0 0.636)">
                    <g id="Group_14143" data-name="Group 14143" transform="translate(0 86.364)">
                      <rect id="Rectangle_972" data-name="Rectangle 972" width="53.43" height="1.909" transform="translate(0.487 0.405)" fill="#ebebeb"/>
                      <path id="Path_15490" data-name="Path 15490" d="M389.482,1276.818h-54.4v-2.72h54.4Zm-53.43-.812h52.456v-1.1H336.053Z" transform="translate(-335.079 -1274.098)" fill="#ebebeb"/>
                    </g>
                    <g id="Group_14144" data-name="Group 14144" transform="translate(0 113.917)">
                      <rect id="Rectangle_973" data-name="Rectangle 973" width="53.43" height="1.908" transform="translate(0.487 0.406)" fill="#ebebeb"/>
                      <path id="Path_15491" data-name="Path 15491" d="M389.482,1322.089h-54.4v-2.72h54.4Zm-53.43-.811h52.456v-1.1H336.053Z" transform="translate(-335.079 -1319.369)" fill="#ebebeb"/>
                    </g>
                    <g id="Group_14145" data-name="Group 14145">
                      <rect id="Rectangle_974" data-name="Rectangle 974" width="2.862" height="138.486" transform="translate(0.487 0.406)" fill="#ebebeb"/>
                      <path id="Path_15492" data-name="Path 15492" d="M338.915,1271.494h-3.836V1132.2h3.836Zm-2.862-.812h1.889V1133.008h-1.889Z" transform="translate(-335.079 -1132.196)" fill="#ebebeb"/>
                    </g>
                    <g id="Group_14146" data-name="Group 14146" transform="translate(50.568)">
                      <rect id="Rectangle_975" data-name="Rectangle 975" width="2.862" height="138.486" transform="translate(0.487 0.406)" fill="#ebebeb"/>
                      <path id="Path_15493" data-name="Path 15493" d="M422,1271.494h-3.836V1132.2H422Zm-2.862-.812h1.889V1133.008h-1.889Z" transform="translate(-418.165 -1132.196)" fill="#ebebeb"/>
                    </g>
                  </g>
                </g>
                <g id="Group_14159" data-name="Group 14159" transform="translate(9.577 31.138)">
                  <g id="Group_14150" data-name="Group 14150">
                    <g id="Group_14149" data-name="Group 14149">
                      <rect id="Rectangle_976" data-name="Rectangle 976" width="5.597" height="22.002" transform="translate(0.487 0.406)" fill="#ebebeb"/>
                      <path id="Path_15494" data-name="Path 15494" d="M357.386,1165.115h-6.571V1142.3h6.571Zm-5.6-.811h4.623v-21.191h-4.623Z" transform="translate(-350.815 -1142.301)" fill="#ebebeb"/>
                    </g>
                    <path id="Path_15495" data-name="Path 15495" d="M356.871,1150.255a1.875,1.875,0,1,1-1.845-1.537A1.712,1.712,0,0,1,356.871,1150.255Z" transform="translate(-351.741 -1144.812)" fill="#ebebeb"/>
                  </g>
                  <g id="Group_14152" data-name="Group 14152" transform="translate(6.579)">
                    <g id="Group_14151" data-name="Group 14151">
                      <rect id="Rectangle_977" data-name="Rectangle 977" width="5.597" height="22.002" transform="translate(0.487 0.406)" fill="#ebebeb"/>
                      <path id="Path_15496" data-name="Path 15496" d="M368.2,1165.115h-6.571V1142.3H368.2Zm-5.6-.811h4.624v-21.191H362.6Z" transform="translate(-361.624 -1142.301)" fill="#ebebeb"/>
                    </g>
                    <path id="Path_15497" data-name="Path 15497" d="M367.681,1150.255a1.875,1.875,0,1,1-1.845-1.537A1.712,1.712,0,0,1,367.681,1150.255Z" transform="translate(-362.551 -1144.812)" fill="#ebebeb"/>
                  </g>
                  <g id="Group_14154" data-name="Group 14154" transform="translate(13.158)">
                    <g id="Group_14153" data-name="Group 14153">
                      <rect id="Rectangle_978" data-name="Rectangle 978" width="5.597" height="22.002" transform="translate(0.487 0.406)" fill="#ebebeb"/>
                      <path id="Path_15498" data-name="Path 15498" d="M379.006,1165.115h-6.571V1142.3h6.571Zm-5.6-.811h4.623v-21.191h-4.623Z" transform="translate(-372.435 -1142.301)" fill="#ebebeb"/>
                    </g>
                    <path id="Path_15499" data-name="Path 15499" d="M378.492,1150.255a1.875,1.875,0,1,1-1.845-1.537A1.712,1.712,0,0,1,378.492,1150.255Z" transform="translate(-373.361 -1144.812)" fill="#ebebeb"/>
                  </g>
                  <g id="Group_14156" data-name="Group 14156" transform="translate(19.737)">
                    <g id="Group_14155" data-name="Group 14155">
                      <rect id="Rectangle_979" data-name="Rectangle 979" width="5.597" height="22.002" transform="translate(0.487 0.406)" fill="#ebebeb"/>
                      <path id="Path_15500" data-name="Path 15500" d="M389.816,1165.115h-6.572V1142.3h6.572Zm-5.6-.811h4.624v-21.191h-4.624Z" transform="translate(-383.244 -1142.301)" fill="#ebebeb"/>
                    </g>
                    <path id="Path_15501" data-name="Path 15501" d="M389.3,1150.255a1.875,1.875,0,1,1-1.845-1.537A1.712,1.712,0,0,1,389.3,1150.255Z" transform="translate(-384.171 -1144.812)" fill="#ebebeb"/>
                  </g>
                  <g id="Group_14158" data-name="Group 14158" transform="translate(26.317)">
                    <g id="Group_14157" data-name="Group 14157">
                      <rect id="Rectangle_980" data-name="Rectangle 980" width="5.597" height="22.002" transform="translate(0.487 0.406)" fill="#ebebeb"/>
                      <path id="Path_15502" data-name="Path 15502" d="M400.626,1165.115h-6.571V1142.3h6.571Zm-5.6-.811h4.624v-21.191h-4.624Z" transform="translate(-394.055 -1142.301)" fill="#ebebeb"/>
                    </g>
                    <path id="Path_15503" data-name="Path 15503" d="M400.112,1150.255a1.875,1.875,0,1,1-1.845-1.537A1.712,1.712,0,0,1,400.112,1150.255Z" transform="translate(-394.982 -1144.812)" fill="#ebebeb"/>
                  </g>
                </g>
                <path id="Path_15504" data-name="Path 15504" d="M355.209,1249.209a9.118,9.118,0,0,1,.872-4.042h-6.709a9.118,9.118,0,0,1,.872,4.042c0,2.446-2.94,6.962-2.94,9.973s3.117,4,5.423,4,5.423-.988,5.423-4S355.209,1251.655,355.209,1249.209Z" transform="translate(-339.863 -1151.423)" fill="#ebebeb"/>
                <g id="Group_14161" data-name="Group 14161" transform="translate(28.477 62.59)">
                  <g id="Group_14160" data-name="Group 14160" transform="translate(0.832)">
                    <path id="Path_15505" data-name="Path 15505" d="M395.963,1204.909c1.81-3.539-2.213-3.474-1.906-4.4.575-1.744,2.744.152,3.623-.727s-2.17-3.615-.573-4.563,1.038,2.26,2.418,2.032.559-3.617,2.187-3.239c1.224.285-.23,2.4-.1,3.393s2.658-.453,2.7.96-3.01.794-3.369,1.869,3.284,1.3,2.005,2.2-3.685-.179-4.319.766S395.2,1206.412,395.963,1204.909Z" transform="translate(-387.464 -1193.98)" fill="#ebebeb"/>
                    <path id="Path_15506" data-name="Path 15506" d="M390.621,1209.772c-1.7-3.576-4.505-1.172-5.071-2.012-1.063-1.577,2.078-1.5,1.962-2.641s-4.593-1.3-4.258-2.907,2.644,1,3.433.027-2.655-2.9-1.179-3.584c1.11-.515,1.865,1.843,2.8,2.467s1.507-1.88,2.731-.9-1.469,2.329-.818,3.3,3.428-1,3.286.391-2.77,2.033-2.424,3.077S391.343,1211.291,390.621,1209.772Z" transform="translate(-383.236 -1195.781)" fill="#ebebeb"/>
                  </g>
                  <path id="Path_15507" data-name="Path 15507" d="M394.416,1208.822h-9.286s-3.26,2.333-3.26,5.09,2.032,5.62,7.9,5.62,7.9-2.863,7.9-5.62S394.416,1208.822,394.416,1208.822Z" transform="translate(-381.869 -1199.789)" fill="#ebebeb"/>
                </g>
                <g id="Group_14162" data-name="Group 14162" transform="translate(30.756 99.193)">
                  <rect id="Rectangle_981" data-name="Rectangle 981" width="8.571" height="9.702" transform="translate(2.652 2.863)" fill="#ebebeb"/>
                  <ellipse id="Ellipse_81" data-name="Ellipse 81" cx="6.764" cy="2.863" rx="6.764" ry="2.863" fill="#ebebeb"/>
                </g>
                <g id="Group_14163" data-name="Group 14163" transform="translate(24.787 15.441)">
                  <rect id="Rectangle_982" data-name="Rectangle 982" width="6.355" height="7.193" transform="translate(1.966 2.123)" fill="#ebebeb"/>
                  <path id="Path_15508" data-name="Path 15508" d="M385.835,1118.633c0,1.173-2.245,2.123-5.015,2.123s-5.015-.95-5.015-2.123,2.245-2.122,5.015-2.122S385.835,1117.461,385.835,1118.633Z" transform="translate(-375.805 -1116.511)" fill="#ebebeb"/>
                </g>
                <g id="Group_14165" data-name="Group 14165" transform="translate(3.54)">
                  <g id="Group_14164" data-name="Group 14164">
                    <path id="Path_15509" data-name="Path 15509" d="M359.107,1110.057s-2.2-6.362,7.533-13.519c0,0-8.332,7.635-5.6,13.519Z" transform="translate(-347.939 -1093.253)" fill="#ebebeb"/>
                    <path id="Path_15510" data-name="Path 15510" d="M357.787,1109.389s-5.041-7.087,3.987-18.249c0,0-7.163,11.371-1.655,17.743Z" transform="translate(-346.957 -1091.14)" fill="#ebebeb"/>
                    <path id="Path_15511" data-name="Path 15511" d="M351.06,1110.057s2.2-6.362-7.534-13.519c0,0,8.333,7.635,5.6,13.519Z" transform="translate(-341.925 -1093.253)" fill="#ebebeb"/>
                    <path id="Path_15512" data-name="Path 15512" d="M354.18,1108.749s4.05-5.7-3.206-14.665c0,0,5.758,9.137,1.333,14.259Z" transform="translate(-344.84 -1092.292)" fill="#ebebeb"/>
                    <path id="Path_15513" data-name="Path 15513" d="M358.562,1114.853s-1.9-6.428,8.158-13.265c0,0-8.682,7.359-6.223,13.328Z" transform="translate(-347.754 -1095.229)" fill="#ebebeb"/>
                    <path id="Path_15514" data-name="Path 15514" d="M349.053,1113.571s1.9-6.428-8.158-13.265c0,0,8.682,7.359,6.224,13.328Z" transform="translate(-340.895 -1094.727)" fill="#ebebeb"/>
                  </g>
                  <path id="Path_15515" data-name="Path 15515" d="M351.982,1115.093H345.4l3.019,10.179h7.12l3.019-10.179Z" transform="translate(-342.659 -1100.515)" fill="#ebebeb"/>
                </g>
                <g id="Group_14175" data-name="Group 14175" transform="translate(5.105 74.38)">
                  <g id="Group_14170" data-name="Group 14170" transform="translate(0 0)">
                    <g id="Group_14166" data-name="Group 14166" transform="translate(0.487 5.385)">
                      <rect id="Rectangle_983" data-name="Rectangle 983" width="2.688" height="20.138" transform="translate(0 2.688) rotate(-90)" fill="#ebebeb"/>
                    </g>
                    <g id="Group_14168" data-name="Group 14168" transform="translate(0 2.282)">
                      <g id="Group_14167" data-name="Group 14167">
                        <rect id="Rectangle_984" data-name="Rectangle 984" width="2.688" height="20.138" transform="translate(0.487 3.094) rotate(-90)" fill="#ebebeb"/>
                        <path id="Path_15516" data-name="Path 15516" d="M364.579,1220.6H343.467v-3.5h21.112Zm-20.139-.812h19.165v-1.876H344.441Z" transform="translate(-343.467 -1217.1)" fill="#ebebeb"/>
                      </g>
                    </g>
                    <g id="Group_14169" data-name="Group 14169" transform="translate(0.487)">
                      <rect id="Rectangle_985" data-name="Rectangle 985" width="2.688" height="20.138" transform="translate(0 2.688) rotate(-90)" fill="#ebebeb"/>
                    </g>
                  </g>
                  <g id="Group_14171" data-name="Group 14171" transform="translate(12.347 0)">
                    <rect id="Rectangle_986" data-name="Rectangle 986" width="0.145" height="2.688" fill="#ebebeb"/>
                  </g>
                  <g id="Group_14172" data-name="Group 14172" transform="translate(13.969 0)">
                    <rect id="Rectangle_987" data-name="Rectangle 987" width="0.145" height="2.688" fill="#ebebeb"/>
                  </g>
                  <g id="Group_14173" data-name="Group 14173" transform="translate(15.591 0)">
                    <rect id="Rectangle_988" data-name="Rectangle 988" width="0.145" height="2.688" fill="#ebebeb"/>
                  </g>
                  <g id="Group_14174" data-name="Group 14174" transform="translate(17.213 0)">
                    <rect id="Rectangle_989" data-name="Rectangle 989" width="0.145" height="2.688" fill="#ebebeb"/>
                  </g>
                  <rect id="Rectangle_990" data-name="Rectangle 990" width="9.477" height="0.443" transform="translate(10.162 5.844)" fill="#ebebeb"/>
                  <rect id="Rectangle_991" data-name="Rectangle 991" width="9.477" height="0.443" transform="translate(10.162 6.508)" fill="#ebebeb"/>
                  <rect id="Rectangle_992" data-name="Rectangle 992" width="9.477" height="0.443" transform="translate(10.162 7.172)" fill="#ebebeb"/>
                </g>
              </g>
              <g id="Group_14213" data-name="Group 14213" transform="translate(442.542 113.521)">
                <g id="Group_14185" data-name="Group 14185" transform="translate(0 24.351)">
                  <g id="Group_14177" data-name="Group 14177">
                    <rect id="Rectangle_993" data-name="Rectangle 993" width="53.43" height="1.909" transform="translate(0.487 0.406)" fill="#ebebeb"/>
                    <path id="Path_15517" data-name="Path 15517" d="M1086.42,1114.156h-54.4v-2.72h54.4Zm-53.43-.811h52.457v-1.1H1032.99Z" transform="translate(-1032.016 -1111.436)" fill="#ebebeb"/>
                  </g>
                  <g id="Group_14178" data-name="Group 14178" transform="translate(0 28.788)">
                    <rect id="Rectangle_994" data-name="Rectangle 994" width="53.43" height="1.909" transform="translate(0.487 0.405)" fill="#ebebeb"/>
                    <path id="Path_15518" data-name="Path 15518" d="M1086.42,1161.457h-54.4v-2.72h54.4Zm-53.43-.811h52.457v-1.1H1032.99Z" transform="translate(-1032.016 -1158.737)" fill="#ebebeb"/>
                  </g>
                  <g id="Group_14179" data-name="Group 14179" transform="translate(0 57.576)">
                    <rect id="Rectangle_995" data-name="Rectangle 995" width="53.43" height="1.909" transform="translate(0.487 0.406)" fill="#ebebeb"/>
                    <path id="Path_15519" data-name="Path 15519" d="M1086.42,1208.758h-54.4v-2.721h54.4Zm-53.43-.812h52.457v-1.1H1032.99Z" transform="translate(-1032.016 -1206.037)" fill="#ebebeb"/>
                  </g>
                  <g id="Group_14184" data-name="Group 14184" transform="translate(0 0.637)">
                    <g id="Group_14180" data-name="Group 14180" transform="translate(0 86.364)">
                      <rect id="Rectangle_996" data-name="Rectangle 996" width="53.43" height="1.909" transform="translate(0.487 0.406)" fill="#ebebeb"/>
                      <path id="Path_15520" data-name="Path 15520" d="M1086.42,1257.1h-54.4v-2.72h54.4Zm-53.43-.811h52.457v-1.1H1032.99Z" transform="translate(-1032.016 -1254.383)" fill="#ebebeb"/>
                    </g>
                    <g id="Group_14181" data-name="Group 14181" transform="translate(0 113.917)">
                      <rect id="Rectangle_997" data-name="Rectangle 997" width="53.43" height="1.908" transform="translate(0.487 0.406)" fill="#ebebeb"/>
                      <path id="Path_15521" data-name="Path 15521" d="M1086.42,1302.375h-54.4v-2.72h54.4Zm-53.43-.812h52.457v-1.1H1032.99Z" transform="translate(-1032.016 -1299.654)" fill="#ebebeb"/>
                    </g>
                    <g id="Group_14182" data-name="Group 14182">
                      <rect id="Rectangle_998" data-name="Rectangle 998" width="2.862" height="138.486" transform="translate(0.487 0.405)" fill="#ebebeb"/>
                      <path id="Path_15522" data-name="Path 15522" d="M1035.852,1251.78h-3.836v-139.3h3.836Zm-2.862-.812h1.889V1113.293h-1.889Z" transform="translate(-1032.016 -1112.482)" fill="#ebebeb"/>
                    </g>
                    <g id="Group_14183" data-name="Group 14183" transform="translate(50.568)">
                      <rect id="Rectangle_999" data-name="Rectangle 999" width="2.862" height="138.486" transform="translate(0.487 0.405)" fill="#ebebeb"/>
                      <path id="Path_15523" data-name="Path 15523" d="M1118.938,1251.78H1115.1v-139.3h3.836Zm-2.862-.812h1.889V1113.293h-1.889Z" transform="translate(-1115.102 -1112.482)" fill="#ebebeb"/>
                    </g>
                  </g>
                </g>
                <g id="Group_14196" data-name="Group 14196" transform="translate(9.577 31.138)">
                  <g id="Group_14187" data-name="Group 14187">
                    <g id="Group_14186" data-name="Group 14186">
                      <rect id="Rectangle_1000" data-name="Rectangle 1000" width="5.597" height="22.002" transform="translate(0.487 0.406)" fill="#ebebeb"/>
                      <path id="Path_15524" data-name="Path 15524" d="M1054.323,1145.4h-6.571v-22.813h6.571Zm-5.6-.811h4.624V1123.4h-4.624Z" transform="translate(-1047.752 -1122.586)" fill="#ebebeb"/>
                    </g>
                    <path id="Path_15525" data-name="Path 15525" d="M1053.809,1130.539a1.875,1.875,0,1,1-1.844-1.537A1.712,1.712,0,0,1,1053.809,1130.539Z" transform="translate(-1048.679 -1125.097)" fill="#ebebeb"/>
                  </g>
                  <g id="Group_14189" data-name="Group 14189" transform="translate(6.579)">
                    <g id="Group_14188" data-name="Group 14188">
                      <rect id="Rectangle_1001" data-name="Rectangle 1001" width="5.597" height="22.002" transform="translate(0.487 0.406)" fill="#ebebeb"/>
                      <path id="Path_15526" data-name="Path 15526" d="M1065.133,1145.4h-6.571v-22.813h6.571Zm-5.6-.811h4.624V1123.4h-4.624Z" transform="translate(-1058.562 -1122.586)" fill="#ebebeb"/>
                    </g>
                    <path id="Path_15527" data-name="Path 15527" d="M1064.619,1130.539a1.875,1.875,0,1,1-1.844-1.537A1.712,1.712,0,0,1,1064.619,1130.539Z" transform="translate(-1059.489 -1125.097)" fill="#ebebeb"/>
                  </g>
                  <g id="Group_14191" data-name="Group 14191" transform="translate(13.158)">
                    <g id="Group_14190" data-name="Group 14190">
                      <rect id="Rectangle_1002" data-name="Rectangle 1002" width="5.597" height="22.002" transform="translate(0.487 0.406)" fill="#ebebeb"/>
                      <path id="Path_15528" data-name="Path 15528" d="M1075.943,1145.4h-6.571v-22.813h6.571Zm-5.6-.811h4.624V1123.4h-4.624Z" transform="translate(-1069.372 -1122.586)" fill="#ebebeb"/>
                    </g>
                    <path id="Path_15529" data-name="Path 15529" d="M1075.43,1130.539a1.876,1.876,0,1,1-1.845-1.537A1.712,1.712,0,0,1,1075.43,1130.539Z" transform="translate(-1070.299 -1125.097)" fill="#ebebeb"/>
                  </g>
                  <g id="Group_14193" data-name="Group 14193" transform="translate(19.738)">
                    <g id="Group_14192" data-name="Group 14192">
                      <rect id="Rectangle_1003" data-name="Rectangle 1003" width="5.597" height="22.002" transform="translate(0.487 0.406)" fill="#ebebeb"/>
                      <path id="Path_15530" data-name="Path 15530" d="M1086.753,1145.4h-6.571v-22.813h6.571Zm-5.6-.811h4.624V1123.4h-4.624Z" transform="translate(-1080.182 -1122.586)" fill="#ebebeb"/>
                    </g>
                    <path id="Path_15531" data-name="Path 15531" d="M1086.24,1130.539a1.876,1.876,0,1,1-1.845-1.537A1.712,1.712,0,0,1,1086.24,1130.539Z" transform="translate(-1081.109 -1125.097)" fill="#ebebeb"/>
                  </g>
                  <g id="Group_14195" data-name="Group 14195" transform="translate(26.317)">
                    <g id="Group_14194" data-name="Group 14194">
                      <rect id="Rectangle_1004" data-name="Rectangle 1004" width="5.597" height="22.002" transform="translate(0.487 0.406)" fill="#ebebeb"/>
                      <path id="Path_15532" data-name="Path 15532" d="M1097.564,1145.4h-6.571v-22.813h6.571Zm-5.6-.811h4.624V1123.4h-4.624Z" transform="translate(-1090.993 -1122.586)" fill="#ebebeb"/>
                    </g>
                    <path id="Path_15533" data-name="Path 15533" d="M1097.049,1130.539A1.875,1.875,0,1,1,1095.2,1129,1.712,1.712,0,0,1,1097.049,1130.539Z" transform="translate(-1091.919 -1125.097)" fill="#ebebeb"/>
                  </g>
                </g>
                <path id="Path_15534" data-name="Path 15534" d="M1052.147,1229.494a9.122,9.122,0,0,1,.871-4.042h-6.709a9.124,9.124,0,0,1,.871,4.042c0,2.446-2.94,6.963-2.94,9.973s3.116,4,5.423,4,5.423-.988,5.423-4S1052.147,1231.94,1052.147,1229.494Z" transform="translate(-1036.8 -1131.708)" fill="#ebebeb"/>
                <g id="Group_14198" data-name="Group 14198" transform="translate(28.478 62.591)">
                  <g id="Group_14197" data-name="Group 14197" transform="translate(0.831)">
                    <path id="Path_15535" data-name="Path 15535" d="M1092.9,1185.194c1.81-3.539-2.213-3.474-1.906-4.4.575-1.744,2.744.151,3.623-.727s-2.17-3.615-.573-4.563,1.038,2.26,2.418,2.032.559-3.617,2.187-3.238c1.224.284-.231,2.4-.1,3.392s2.658-.453,2.7.96-3.01.794-3.369,1.868,3.284,1.3,2.006,2.2-3.685-.179-4.319.766S1092.133,1186.7,1092.9,1185.194Z" transform="translate(-1084.402 -1174.266)" fill="#ebebeb"/>
                    <path id="Path_15536" data-name="Path 15536" d="M1087.559,1190.057c-1.7-3.576-4.505-1.172-5.071-2.011-1.063-1.577,2.077-1.5,1.962-2.641s-4.593-1.3-4.258-2.907,2.645,1,3.434.027-2.656-2.9-1.179-3.583c1.11-.516,1.865,1.843,2.8,2.467s1.507-1.88,2.73-.9-1.469,2.328-.818,3.3,3.428-1,3.286.391-2.771,2.033-2.423,3.076S1088.28,1191.576,1087.559,1190.057Z" transform="translate(-1080.173 -1176.067)" fill="#ebebeb"/>
                  </g>
                  <path id="Path_15537" data-name="Path 15537" d="M1091.354,1189.108h-9.287s-3.26,2.332-3.26,5.089,2.032,5.62,7.9,5.62,7.9-2.863,7.9-5.62S1091.354,1189.108,1091.354,1189.108Z" transform="translate(-1078.807 -1180.075)" fill="#ebebeb"/>
                </g>
                <g id="Group_14199" data-name="Group 14199" transform="translate(30.756 99.193)">
                  <rect id="Rectangle_1005" data-name="Rectangle 1005" width="8.571" height="9.702" transform="translate(2.652 2.863)" fill="#ebebeb"/>
                  <ellipse id="Ellipse_82" data-name="Ellipse 82" cx="6.764" cy="2.863" rx="6.764" ry="2.863" fill="#ebebeb"/>
                </g>
                <g id="Group_14200" data-name="Group 14200" transform="translate(24.787 15.441)">
                  <rect id="Rectangle_1006" data-name="Rectangle 1006" width="6.355" height="7.193" transform="translate(1.966 2.123)" fill="#ebebeb"/>
                  <path id="Path_15538" data-name="Path 15538" d="M1082.773,1098.919c0,1.172-2.246,2.122-5.016,2.122s-5.015-.95-5.015-2.122,2.245-2.123,5.015-2.123S1082.773,1097.747,1082.773,1098.919Z" transform="translate(-1072.742 -1096.796)" fill="#ebebeb"/>
                </g>
                <g id="Group_14202" data-name="Group 14202" transform="translate(3.54)">
                  <g id="Group_14201" data-name="Group 14201">
                    <path id="Path_15539" data-name="Path 15539" d="M1056.044,1090.343s-2.2-6.362,7.533-13.519c0,0-8.333,7.634-5.6,13.519Z" transform="translate(-1044.877 -1073.538)" fill="#ebebeb"/>
                    <path id="Path_15540" data-name="Path 15540" d="M1054.725,1089.674s-5.041-7.087,3.986-18.249c0,0-7.163,11.371-1.656,17.743Z" transform="translate(-1043.895 -1071.425)" fill="#ebebeb"/>
                    <path id="Path_15541" data-name="Path 15541" d="M1048,1090.343s2.2-6.362-7.533-13.519c0,0,8.333,7.634,5.6,13.519Z" transform="translate(-1038.863 -1073.538)" fill="#ebebeb"/>
                    <path id="Path_15542" data-name="Path 15542" d="M1051.118,1089.035s4.05-5.7-3.206-14.665c0,0,5.758,9.137,1.333,14.258Z" transform="translate(-1041.778 -1072.578)" fill="#ebebeb"/>
                    <path id="Path_15543" data-name="Path 15543" d="M1055.5,1095.138s-1.9-6.428,8.158-13.265c0,0-8.682,7.359-6.224,13.328Z" transform="translate(-1044.692 -1075.514)" fill="#ebebeb"/>
                    <path id="Path_15544" data-name="Path 15544" d="M1045.991,1093.856s1.9-6.428-8.158-13.265c0,0,8.682,7.359,6.223,13.328Z" transform="translate(-1037.833 -1075.012)" fill="#ebebeb"/>
                  </g>
                  <path id="Path_15545" data-name="Path 15545" d="M1048.92,1095.378h-6.579l3.019,10.179h7.12l3.019-10.179Z" transform="translate(-1039.597 -1080.8)" fill="#ebebeb"/>
                </g>
                <g id="Group_14212" data-name="Group 14212" transform="translate(5.106 74.38)">
                  <g id="Group_14207" data-name="Group 14207" transform="translate(0 0)">
                    <g id="Group_14203" data-name="Group 14203" transform="translate(0.487 5.385)">
                      <rect id="Rectangle_1007" data-name="Rectangle 1007" width="2.688" height="20.138" transform="translate(0 2.688) rotate(-90)" fill="#ebebeb"/>
                    </g>
                    <g id="Group_14205" data-name="Group 14205" transform="translate(0 2.282)">
                      <g id="Group_14204" data-name="Group 14204">
                        <rect id="Rectangle_1008" data-name="Rectangle 1008" width="2.688" height="20.138" transform="translate(0.487 3.094) rotate(-90)" fill="#ebebeb"/>
                        <path id="Path_15546" data-name="Path 15546" d="M1061.517,1200.885h-21.112v-3.5h21.112Zm-20.138-.811h19.164V1198.2h-19.164Z" transform="translate(-1040.405 -1197.385)" fill="#ebebeb"/>
                      </g>
                    </g>
                    <g id="Group_14206" data-name="Group 14206" transform="translate(0.487)">
                      <rect id="Rectangle_1009" data-name="Rectangle 1009" width="2.688" height="20.138" transform="translate(0 2.688) rotate(-90)" fill="#ebebeb"/>
                    </g>
                  </g>
                  <g id="Group_14208" data-name="Group 14208" transform="translate(12.347 0)">
                    <rect id="Rectangle_1010" data-name="Rectangle 1010" width="0.145" height="2.688" fill="#ebebeb"/>
                  </g>
                  <g id="Group_14209" data-name="Group 14209" transform="translate(13.969 0)">
                    <rect id="Rectangle_1011" data-name="Rectangle 1011" width="0.145" height="2.688" fill="#ebebeb"/>
                  </g>
                  <g id="Group_14210" data-name="Group 14210" transform="translate(15.591 0)">
                    <rect id="Rectangle_1012" data-name="Rectangle 1012" width="0.145" height="2.688" fill="#ebebeb"/>
                  </g>
                  <g id="Group_14211" data-name="Group 14211" transform="translate(17.213 0)">
                    <rect id="Rectangle_1013" data-name="Rectangle 1013" width="0.145" height="2.688" fill="#ebebeb"/>
                  </g>
                  <rect id="Rectangle_1014" data-name="Rectangle 1014" width="9.477" height="0.443" transform="translate(10.162 5.844)" fill="#ebebeb"/>
                  <rect id="Rectangle_1015" data-name="Rectangle 1015" width="9.477" height="0.443" transform="translate(10.162 6.508)" fill="#ebebeb"/>
                  <rect id="Rectangle_1016" data-name="Rectangle 1016" width="9.477" height="0.443" transform="translate(10.162 7.172)" fill="#ebebeb"/>
                </g>
              </g>
            </g>
          </g>
        </g>
      </g>
    </g>
    <g id="Group_14221" data-name="Group 14221" transform="translate(376.451 919.778)">
      <g id="Group_14220" data-name="Group 14220" transform="translate(0 0)">
        <path id="Path_15547" data-name="Path 15547" d="M702.984,1041.759c10.623,15.141,2.138,31.464-20.756,37.816-24.32,6.746-55.892-.259-71.476-15.652-12.265,8.432-30.963,14.932-52.4,17.235-39.523,4.245-73.39-7.378-75.643-25.96a18.2,18.2,0,0,1,2.327-10.961c-33.423,7.076-53.064-.647-61.387-21.639-6.142-15.49,11.417-42.705,59.653-47.886,6.15-.661,12.178-1.089,18.018-1.3-.128-.513-1.852-3.428.648-8.506,10.87-22.074,49.15-25.523,89.1-20.93,33.642,3.868,50.442,18.1,58.232,30.99,0,0,95.628-24.587,112.8,26.364C762.1,1001.331,781.23,1046.248,702.984,1041.759Z" transform="translate(-448.468 -970.453)" fill="#fff" stroke="#ebebeb" stroke-miterlimit="10" stroke-width="1"/>
        <circle id="Ellipse_83" data-name="Ellipse 83" cx="10.987" cy="10.987" r="10.987" transform="translate(44.427 92.621)" fill="#fff" stroke="#ebebeb" stroke-miterlimit="10" stroke-width="1"/>
        <circle id="Ellipse_84" data-name="Ellipse 84" cx="6.511" cy="6.511" r="6.511" transform="translate(53.008 111.947)" fill="#fff" stroke="#ebebeb" stroke-miterlimit="10" stroke-width="1"/>
        <circle id="Ellipse_85" data-name="Ellipse 85" cx="5.569" cy="5.569" r="5.569" transform="translate(64.264 125.225)" fill="#fff" stroke="#ebebeb" stroke-miterlimit="10" stroke-width="1"/>
      </g>
    </g>
    <g id="Group_14233" data-name="Group 14233" transform="translate(395.914 1045.465)">
      <g id="Group_14223" data-name="Group 14223" transform="translate(32.457)">
        <g id="Group_14222" data-name="Group 14222">
          <path id="Path_15548" data-name="Path 15548" d="M516.281,1280c-8.457-11.63,3.08-17.6,2.761-29.036s-10.239-8.248-11.2-23.042,8.095-18.345,8.806-26.88-10.849-11.179-5.624-21.7,13.352-10.042,17.873-18.4,16.906-12.555,23.51-8.312,15.329-9.644,26.855-1.051,9.6,24.417,12.721,33.55,14.794,13.471,15.833,29.528-7.242,11.929-3.983,23.175,13.791,10.989,14.831,27.05c0,0,.62,16.084-16.377,14.214s-12.141,8-30.331.693-12.844,10.168-25.547,2.926S526.007,1293.374,516.281,1280Z" transform="translate(-507.775 -1148.717)" fill="#2d356b"/>
        </g>
      </g>
      <g id="Group_14225" data-name="Group 14225" transform="translate(98.676 109.627)">
        <g id="Group_14224" data-name="Group 14224" transform="translate(16.578 103.386)">
          <path id="Path_15549" data-name="Path 15549" d="M650.635,1525.458c-.648-.859.771-2.182,2.581-3.43s3.321-1.951,3.973-1.094-.289,2.565-2.1,3.813S651.285,1526.316,650.635,1525.458Z" transform="translate(-646.422 -1507.26)" fill="#f7c371"/>
          <path id="Path_15550" data-name="Path 15550" d="M654.86,1528.192c-.65-.859.771-2.181,2.581-3.428s3.319-1.956,3.972-1.1-.289,2.563-2.1,3.814S655.511,1529.046,654.86,1528.192Z" transform="translate(-648.075 -1508.329)" fill="#f7c371"/>
          <path id="Path_15551" data-name="Path 15551" d="M644.032,1519.262c.765-.788,3.082.847,5.485,2.943s3.99,3.852,3.223,4.644-3.334-.272-5.74-2.369S643.265,1520.051,644.032,1519.262Z" transform="translate(-643.815 -1506.674)" fill="#ffd8a3"/>
          <path id="Path_15552" data-name="Path 15552" d="M658.41,1498.709c-3.759,2.845-16.271,10.881-13.565,15.167,2.42,3.834,10.78,4.989,17.114-12.458Z" transform="translate(-644.069 -1498.709)" fill="#ffd8a3"/>
        </g>
        <path id="Path_15553" data-name="Path 15553" d="M616.769,1330.163c8.643-11.106,65.252,51.267,66.3,54.073,0,0-3.411,10.127-6.664,8.771C667.988,1389.5,612.91,1335.121,616.769,1330.163Z" transform="translate(-616.575 -1328.84)" fill="#fff4ba"/>
        <path id="Path_15554" data-name="Path 15554" d="M669.906,1468.98c-9.819-4.269,23.2-52.589,25.079-53.885,0,0,8.125.612,7.724,3.254C701.672,1425.182,674.29,1470.886,669.906,1468.98Z" transform="translate(-636.735 -1362.598)" fill="#fff4ba"/>
        <path id="Path_15555" data-name="Path 15555" d="M668.421,1499.094l3.25.947,10.3-7.721s-5.281-2.826-6.755-2.7S668.421,1499.094,668.421,1499.094Z" transform="translate(-636.867 -1391.763)" fill="#eaeaea"/>
        <path id="Path_15556" data-name="Path 15556" d="M667.068,1495.752l-2.6-2.2.9-12.856s5.321,2.87,6.029,4.171S667.068,1495.752,667.068,1495.752Z" transform="translate(-635.319 -1388.273)" fill="#eaeaea"/>
      </g>
      <g id="Group_14227" data-name="Group 14227" transform="translate(0 109.627)">
        <g id="Group_14226" data-name="Group 14226" transform="translate(32.029 103.386)">
          <path id="Path_15557" data-name="Path 15557" d="M525.2,1525.458c.648-.859-.771-2.182-2.581-3.43s-3.321-1.951-3.973-1.094.288,2.565,2.1,3.813S524.546,1526.316,525.2,1525.458Z" transform="translate(-511.52 -1507.26)" fill="#f7c371"/>
          <path id="Path_15558" data-name="Path 15558" d="M520.971,1528.192c.651-.859-.771-2.181-2.581-3.428s-3.319-1.956-3.972-1.1.289,2.563,2.1,3.814S520.32,1529.046,520.971,1528.192Z" transform="translate(-509.866 -1508.329)" fill="#f7c371"/>
          <path id="Path_15559" data-name="Path 15559" d="M530.384,1519.262c-.766-.788-3.082.847-5.486,2.943s-3.99,3.852-3.223,4.644,3.334-.272,5.74-2.369S531.151,1520.051,530.384,1519.262Z" transform="translate(-512.711 -1506.674)" fill="#ffd8a3"/>
          <path id="Path_15560" data-name="Path 15560" d="M510.62,1498.709c3.759,2.845,16.271,10.881,13.566,15.167-2.42,3.834-10.781,4.989-17.115-12.458Z" transform="translate(-507.071 -1498.709)" fill="#ffd8a3"/>
        </g>
        <path id="Path_15561" data-name="Path 15561" d="M520.75,1330.163c-8.644-11.106-65.253,51.267-66.3,54.073,0,0,3.411,10.127,6.665,8.771C469.53,1389.5,524.609,1335.121,520.75,1330.163Z" transform="translate(-454.445 -1328.84)" fill="#fff4ba"/>
        <path id="Path_15562" data-name="Path 15562" d="M488.1,1468.98c9.819-4.269-23.2-52.589-25.079-53.885,0,0-8.125.612-7.724,3.254C456.335,1425.182,483.716,1470.886,488.1,1468.98Z" transform="translate(-454.773 -1362.598)" fill="#fff4ba"/>
        <path id="Path_15563" data-name="Path 15563" d="M503.143,1499.094l-3.25.947-10.3-7.721s5.281-2.826,6.755-2.7S503.143,1499.094,503.143,1499.094Z" transform="translate(-468.199 -1391.763)" fill="#eaeaea"/>
        <path id="Path_15564" data-name="Path 15564" d="M508.716,1495.752l2.6-2.2-.895-12.856s-5.321,2.87-6.03,4.171S508.716,1495.752,508.716,1495.752Z" transform="translate(-473.966 -1388.273)" fill="#eaeaea"/>
      </g>
      <g id="Group_14228" data-name="Group 14228" transform="translate(40.799 77.203)">
        <path id="Path_15565" data-name="Path 15565" d="M607.575,1448.918c-18.945-27.469-26.849-53.294-7.2-81.886,0,0-7.907-51.128-36.569-52.4s-33.77,54.5-33.77,54.5c18.632,27.925,23.255,42.712-8.551,79.535" transform="translate(-521.481 -1290.848)" fill="#ffe200"/>
        <path id="Path_15566" data-name="Path 15566" d="M579.814,1338.866a17.358,17.358,0,0,1,11.1,4.005c2.906-6.609,4.844-14.74,2.772-23.037-17.448-13.12-28.2,1.362-28.2,1.362s-2.286,9.037,3.866,21.188A17.321,17.321,0,0,1,579.814,1338.866Z" transform="translate(-538.542 -1290.74)" fill="#fff"/>
        <path id="Path_15567" data-name="Path 15567" d="M573.811,1319.47s-2.9,14.558,10.292,30.356c0,0,11.216-15.375,8.049-31.482C580.8,1307.5,573.811,1319.47,573.811,1319.47Z" transform="translate(-541.856 -1290.53)" fill="#f7c371"/>
        <rect id="Rectangle_1018" data-name="Rectangle 1018" width="14.968" height="28.059" transform="translate(33.752)" fill="#f7c371"/>
        <path id="Path_15568" data-name="Path 15568" d="M599.976,1427.922a2.1,2.1,0,1,0-2.105,2.105A2.1,2.1,0,0,0,599.976,1427.922Z" transform="translate(-550.555 -1334.371)" fill="#fff"/>
        <path id="Path_15569" data-name="Path 15569" d="M599.976,1454.948a2.1,2.1,0,1,0-2.105,2.105A2.1,2.1,0,0,0,599.976,1454.948Z" transform="translate(-550.555 -1344.948)" fill="#fff"/>
        <path id="Path_15570" data-name="Path 15570" d="M599.976,1509a2.1,2.1,0,1,0-2.105,2.1A2.1,2.1,0,0,0,599.976,1509Z" transform="translate(-550.555 -1366.104)" fill="#fff"/>
        <path id="Path_15571" data-name="Path 15571" d="M599.976,1481.976a2.1,2.1,0,1,0-2.105,2.105A2.1,2.1,0,0,0,599.976,1481.976Z" transform="translate(-550.555 -1355.527)" fill="#fff"/>
      </g>
      <g id="Group_14229" data-name="Group 14229" transform="translate(52.057 24.407)">
        <path id="Path_15572" data-name="Path 15572" d="M571.551,1255.515c-9.23,1.248-33.424-21.173-29.027-53.339.89-6.5,7.215-11.029,20.094-12.769,14.167-1.915,21.167,1.04,22.885,5.975C597.651,1230.282,581,1254.239,571.551,1255.515Z" transform="translate(-540.768 -1188.819)" fill="#ffd8a3"/>
        <path id="Path_15573" data-name="Path 15573" d="M584.787,1213.255c3.141-1.088,10.092-2.6,14.987,5.413C595.3,1214.01,592.117,1212.475,584.787,1213.255Z" transform="translate(-557.516 -1198.038)" fill="#2d356b"/>
        <path id="Path_15574" data-name="Path 15574" d="M562.214,1217.207c-3.249-.611-10.306-1.087-13.972,7.563C551.973,1219.506,554.888,1217.519,562.214,1217.207Z" transform="translate(-543.213 -1199.815)" fill="#2d356b"/>
        <path id="Path_15575" data-name="Path 15575" d="M599.92,1231.836c-.313-1.75-1.67-2.968-3.029-2.721s-2.213,1.859-1.9,3.61,1.67,2.964,3.03,2.721S600.235,1233.583,599.92,1231.836Z" transform="translate(-561.485 -1204.577)" fill="#2d356b"/>
        <path id="Path_15576" data-name="Path 15576" d="M601.2,1230.985c-2.675-1.761-6.139-3.279-10.594-.213A21.5,21.5,0,0,1,601.2,1230.985Z" transform="translate(-559.791 -1204.55)" fill="#2d356b"/>
        <path id="Path_15577" data-name="Path 15577" d="M560.214,1237.194c-.162-1.77.823-3.3,2.2-3.427s2.624,1.206,2.786,2.977-.824,3.3-2.2,3.428S560.375,1238.962,560.214,1237.194Z" transform="translate(-547.891 -1206.407)" fill="#2d356b"/>
        <path id="Path_15578" data-name="Path 15578" d="M555.165,1237.058c2.112-2.408,5.047-4.791,10.154-3.016A21.484,21.484,0,0,0,555.165,1237.058Z" transform="translate(-545.922 -1206.277)" fill="#2d356b"/>
        <path id="Path_15579" data-name="Path 15579" d="M580.275,1251.145a6.82,6.82,0,0,0,2.919.774,3.966,3.966,0,0,0,2.595-1.635c.02-.778-3.144-8.99-3.871-8.97S580.073,1250.048,580.275,1251.145Z" transform="translate(-555.74 -1209.365)" fill="#ffab00"/>
        <path id="Path_15580" data-name="Path 15580" d="M582.246,1248.68c.027.172.882.333,1.17.294.5-.067,1.058-.4,1.037-.711-.051-.749-.8-9.227-2.277-8.944C580.554,1239.624,582.081,1247.6,582.246,1248.68Z" transform="translate(-556.204 -1208.581)" fill="#ffd8a3"/>
        <path id="Path_15581" data-name="Path 15581" d="M589.579,1280.586c-.139-1.027-1.261-.775-2.725-.577s-2.716.266-2.577,1.293,1.437,1.7,2.9,1.5S589.717,1281.614,589.579,1280.586Z" transform="translate(-557.312 -1224.438)" fill="#f36973"/>
        <path id="Path_15582" data-name="Path 15582" d="M588.155,1264.376c-3.327-1.248-4.144.411-4.86.508-.912.123-2.034-1.3-4.954.818-.84.607,2.447,1.563,5.159,1.2S589.127,1264.739,588.155,1264.376Z" transform="translate(-554.941 -1218.209)" fill="#f36973"/>
        <path id="Path_15583" data-name="Path 15583" d="M574.763,1266.241l14.253-1.926s-.525,10.515-5.741,11.22S574.763,1266.241,574.763,1266.241Z" transform="translate(-553.592 -1218.366)" fill="#ffab00"/>
        <path id="Path_15584" data-name="Path 15584" d="M588.692,1265.405l-12.276,1.659,1.913,3.99,9.576-1.294Z" transform="translate(-554.239 -1218.793)" fill="#fff"/>
        <path id="Path_15585" data-name="Path 15585" d="M598.57,1263.613a.732.732,0,1,0-.6.932A.791.791,0,0,0,598.57,1263.613Z" transform="translate(-562.346 -1217.8)" fill="#ffab00"/>
        <path id="Path_15586" data-name="Path 15586" d="M574.816,1266.823a.732.732,0,1,0-.6.932A.791.791,0,0,0,574.816,1266.823Z" transform="translate(-553.048 -1219.056)" fill="#ffab00"/>
        <path id="Path_15587" data-name="Path 15587" d="M543.752,1249.135c-.71-1.976-.663-3.665-2.12-3.141s-2.066,2.551-1.355,4.527,2.466,3.151,3.924,2.627S544.462,1251.112,543.752,1249.135Z" transform="translate(-539.978 -1211.158)" fill="#f7c371"/>
        <path id="Path_15588" data-name="Path 15588" d="M620.41,1238.891c.111-2.1-.439-3.705,1.154-3.621s2.8,1.856,2.689,3.955-1.491,3.727-3.083,3.646S620.3,1240.992,620.41,1238.891Z" transform="translate(-571.357 -1206.998)" fill="#f7c371"/>
      </g>
      <g id="Group_14232" data-name="Group 14232" transform="translate(50.087 17.5)">
        <g id="Group_14231" data-name="Group 14231" transform="translate(16.867)">
          <path id="Path_15589" data-name="Path 15589" d="M597.486,1196.993c-8.537-1.989-30-7.85-33.031-18.027,0,0,20.155-5.37,26.2,4.233C598.3,1195.322,597.486,1196.993,597.486,1196.993Z" transform="translate(-564.455 -1177.47)" fill="#2d356b"/>
          <g id="Group_14230" data-name="Group 14230" transform="translate(1.973 4.904)">
            <path id="Path_15590" data-name="Path 15590" d="M575.956,1191.917c2.125,2.344,13.961,9.622,21.759,11.362S575.956,1191.917,575.956,1191.917Z" transform="translate(-570.93 -1188.028)" fill="#2d356b"/>
            <path id="Path_15591" data-name="Path 15591" d="M567.7,1185.528c.677,1.853,5.8,8.832,9.9,11.667S567.7,1185.528,567.7,1185.528Z" transform="translate(-567.697 -1185.528)" fill="#2d356b"/>
          </g>
        </g>
        <path id="Path_15592" data-name="Path 15592" d="M536.912,1213.011c6.081-3.964,21.157-14.763,21.052-25.335,0,0-16.755-.381-19.105,10.356C535.888,1211.589,536.912,1213.011,536.912,1213.011Z" transform="translate(-536.742 -1181.464)" fill="#2d356b"/>
      </g>
    </g>
    <g id="Group_14237" data-name="Group 14237" transform="translate(532.921 1052.182)">
      <g id="Group_14236" data-name="Group 14236" transform="translate(0 0)">
        <g id="Group_14235" data-name="Group 14235">
          <g id="Group_14234" data-name="Group 14234">
            <rect id="Rectangle_1019" data-name="Rectangle 1019" width="248.184" height="48.963" rx="11.604" transform="translate(255.339 48.963) rotate(-180)" fill="#fff" stroke="#231f20" stroke-miterlimit="10" stroke-width="0.25"/>
            <path id="Path_15593" data-name="Path 15593" d="M713.881,1240.2l-34.325,24.117,21.787-24.117Z" transform="translate(-679.556 -1191.24)" fill="#fff" stroke="#231f20" stroke-miterlimit="10" stroke-width="0.25"/>
          </g>
        </g>
      </g>
    </g>
  </g>
</svg>
