<svg xmlns="http://www.w3.org/2000/svg" width="544" height="395.836" viewBox="0 0 544 395.836">
  <g id="Group_15207" data-name="Group 15207" transform="translate(-30 -5511.164)">
    <g id="Group_14998" data-name="Group 14998" transform="translate(30 5511.164)">
      <g id="Group_14997" data-name="Group 14997">
        <g id="Group_14996" data-name="Group 14996">
          <g id="Group_14995" data-name="Group 14995">
            <g id="Group_14994" data-name="Group 14994">
              <g id="Group_14919" data-name="Group 14919">
                <g id="Group_14893" data-name="Group 14893" transform="translate(0.528)">
                  <g id="Group_14889" data-name="Group 14889" transform="translate(0.121)">
                    <path id="Path_16289" data-name="Path 16289" d="M877.534,5285.707h.644v-13.887H334.827v290.223h542.7V5532.89h.005Z" transform="translate(-334.827 -5271.414)" fill="#fff"/>
                    <rect id="Rectangle_1295" data-name="Rectangle 1295" width="542.701" height="0.812" transform="translate(0 290.223)" fill="#a0bacb"/>
                    <rect id="Rectangle_1296" data-name="Rectangle 1296" width="543.351" height="0.812" fill="#7b88ac"/>
                  </g>
                  <g id="Group_14890" data-name="Group 14890" transform="translate(0 59.302)">
                    <path id="Path_16290" data-name="Path 16290" d="M423.354,5369.468v-.212H415.6v.212h-80.17v176.941H500.067V5369.468Zm69.9,5.681v38.909h-69.9v-38.909ZM415.6,5420.773v74.333H342.245v-74.333Zm7.756,74.333v-74.333h69.9v74.333ZM415.6,5375.149v38.909H342.245v-38.909Zm-73.354,126.67H415.6v38.908H342.245Zm81.11,38.908V5501.82h69.9v38.908Z" transform="translate(-334.941 -5368.85)" fill="#ebebeb"/>
                    <path id="Path_16291" data-name="Path 16291" d="M500.241,5546.554H334.628V5368.8H414.8v-.212h8.729v.212h76.713Zm-164.639-.812H499.267V5369.613H422.554v-.213h-6.782v.213H335.6Zm157.822-4.869h-70.87v-39.72h70.87Zm-69.9-.812h68.923v-38.1H423.528Zm-7.756.812H341.445v-39.72h74.328Zm-73.354-.812H414.8v-38.1h-72.38Zm151.006-44.811h-70.87v-75.145h70.87Zm-69.9-.812h68.923v-73.522H423.528Zm-7.756.812H341.445v-75.145h74.328Zm-73.354-.812H414.8v-73.522h-72.38ZM493.424,5414.2h-70.87v-39.721h70.87Zm-69.9-.812h68.923v-38.1H423.528Zm-7.756.812H341.445v-39.721h74.328Zm-73.354-.812H414.8v-38.1h-72.38Z" transform="translate(-334.628 -5368.589)" fill="#ebebeb"/>
                  </g>
                  <g id="Group_14891" data-name="Group 14891" transform="translate(204.132 58.255)">
                    <path id="Path_16292" data-name="Path 16292" d="M758.754,5367.748v-.213H751v.213h-80.17v176.941H835.468V5367.748Zm69.9,5.682v38.908h-69.9V5373.43ZM751,5419.052v74.334H677.645v-74.334Zm7.756,74.334v-74.334h69.9v74.334ZM751,5373.43v38.908H677.645V5373.43ZM677.645,5500.1H751v38.909H677.645Zm81.109,38.909V5500.1h69.9v38.909Z" transform="translate(-670.342 -5367.13)" fill="#ebebeb"/>
                    <path id="Path_16293" data-name="Path 16293" d="M835.641,5544.834H670.029V5367.081H750.2v-.212h8.729v.212h76.713ZM671,5544.022H834.667v-176.13H757.954v-.212h-6.782v.212H671Zm157.822-4.87H757.954v-39.719h70.871Zm-69.9-.812h68.923v-38.1H758.928Zm-7.756.812H676.845v-39.719h74.328Zm-73.354-.812H750.2v-38.1h-72.38Zm151.006-44.811H757.954v-75.146h70.871Zm-69.9-.812h68.923V5419.2H758.928Zm-7.756.812H676.845v-75.146h74.328Zm-73.354-.812H750.2V5419.2h-72.38Zm151.006-80.236H757.954v-39.72h70.871Zm-69.9-.812h68.923v-38.1H758.928Zm-7.756.812H676.845v-39.72h74.328Zm-73.354-.812H750.2v-38.1h-72.38Z" transform="translate(-670.029 -5366.869)" fill="#ebebeb"/>
                  </g>
                  <g id="Group_14892" data-name="Group 14892" transform="translate(412.869 59.302)">
                    <path id="Path_16294" data-name="Path 16294" d="M1143.269,5540.728h-41.547V5501.82h41.547v-6.714h-41.547v-74.333h41.547v-6.715h-41.547v-38.909h41.547v-5.681h-41.547v-.212h-7.756v.212H1013.8v176.941h129.472Zm-49.3,0h-73.353V5501.82h73.353Zm0-45.623h-73.353v-74.333h73.353Zm0-81.047h-73.353v-38.909h73.353Z" transform="translate(-1013.311 -5368.85)" fill="#ebebeb"/>
                    <path id="Path_16295" data-name="Path 16295" d="M1157.464,5626.12H1199.5v-.812h-41.06v-38.1h41.06v-.811h-42.033Z" transform="translate(-1069.539 -5453.836)" fill="#ebebeb"/>
                    <path id="Path_16296" data-name="Path 16296" d="M1157.464,5528.378H1199.5v-.812h-41.06v-73.522h41.06v-.811h-42.033Z" transform="translate(-1069.539 -5401.718)" fill="#ebebeb"/>
                    <path id="Path_16297" data-name="Path 16297" d="M1157.464,5417.993H1199.5v-.811h-41.06v-38.1h41.06v-.812h-42.033Z" transform="translate(-1069.539 -5372.379)" fill="#ebebeb"/>
                    <path id="Path_16298" data-name="Path 16298" d="M1098.524,5378.273H1024.2v39.72h74.327Zm-.974,38.908h-72.379v-38.1h72.379Z" transform="translate(-1017.381 -5372.379)" fill="#ebebeb"/>
                    <path id="Path_16299" data-name="Path 16299" d="M1142.956,5545.742H1013.971V5369.613h80.169v-.213h6.782v.213h42.033v-.812H1101.9v-.212h-8.729v.212H1013v177.753h129.959Z" transform="translate(-1012.998 -5368.589)" fill="#ebebeb"/>
                    <path id="Path_16300" data-name="Path 16300" d="M1024.2,5626.12h74.327V5586.4H1024.2Zm.974-38.909h72.379v38.1h-72.379Z" transform="translate(-1017.381 -5453.836)" fill="#ebebeb"/>
                    <path id="Path_16301" data-name="Path 16301" d="M1098.524,5453.234H1024.2v75.145h74.327Zm-.974,74.333h-72.379v-73.522h72.379Z" transform="translate(-1017.381 -5401.718)" fill="#ebebeb"/>
                  </g>
                </g>
                <g id="Group_14916" data-name="Group 14916" transform="translate(376.298 132.21)">
                  <ellipse id="Ellipse_116" data-name="Ellipse 116" cx="16.22" cy="13.519" rx="16.22" ry="13.519" transform="translate(0)" fill="#fff4ba"/>
                  <g id="Group_14894" data-name="Group 14894" transform="translate(0.89 0.742)">
                    <path id="Path_16302" data-name="Path 16302" d="M968.835,5515.155c-8.453,0-15.33-5.731-15.33-12.777s6.877-12.778,15.33-12.778,15.33,5.732,15.33,12.778S977.287,5515.155,968.835,5515.155Zm0-25.06c-8.126,0-14.736,5.509-14.736,12.283s6.611,12.283,14.736,12.283,14.737-5.51,14.737-12.283S976.961,5490.095,968.835,5490.095Z" transform="translate(-953.505 -5489.6)" fill="#fff4ba"/>
                  </g>
                  <g id="Group_14895" data-name="Group 14895" transform="translate(15.923 4.121)">
                    <path id="Path_16303" data-name="Path 16303" d="M987.205,5504.8h-8.7a.276.276,0,0,1-.3-.247V5495.4a.3.3,0,0,1,.593,0v8.9h8.407a.251.251,0,1,1,0,.495Z" transform="translate(-978.205 -5495.153)" fill="#fff4ba"/>
                  </g>
                  <g id="Group_14898" data-name="Group 14898" transform="translate(15.923 1.525)">
                    <g id="Group_14896" data-name="Group 14896">
                      <path id="Path_16304" data-name="Path 16304" d="M978.5,5492.68a.276.276,0,0,1-.3-.248v-1.3a.3.3,0,0,1,.593,0v1.3A.275.275,0,0,1,978.5,5492.68Z" transform="translate(-978.205 -5490.887)" fill="#fff4ba"/>
                    </g>
                    <g id="Group_14897" data-name="Group 14897" transform="translate(0 21.948)">
                      <path id="Path_16305" data-name="Path 16305" d="M978.5,5528.742a.276.276,0,0,1-.3-.247v-1.3a.3.3,0,0,1,.593,0v1.3A.275.275,0,0,1,978.5,5528.742Z" transform="translate(-978.205 -5526.949)" fill="#fff4ba"/>
                    </g>
                  </g>
                  <g id="Group_14901" data-name="Group 14901" transform="translate(1.978 13.148)">
                    <g id="Group_14899" data-name="Group 14899" transform="translate(26.333)">
                      <path id="Path_16306" data-name="Path 16306" d="M1000.413,5510.48h-1.557a.252.252,0,1,1,0-.5h1.557a.252.252,0,1,1,0,.5Z" transform="translate(-998.559 -5509.984)" fill="#fff4ba"/>
                    </g>
                    <g id="Group_14900" data-name="Group 14900">
                      <path id="Path_16307" data-name="Path 16307" d="M957.146,5510.48h-1.557a.252.252,0,1,1,0-.5h1.557a.252.252,0,1,1,0,.5Z" transform="translate(-955.292 -5509.984)" fill="#fff4ba"/>
                    </g>
                  </g>
                  <g id="Group_14908" data-name="Group 14908" transform="translate(3.784 3.338)">
                    <g id="Group_14904" data-name="Group 14904" transform="translate(0 4.089)">
                      <g id="Group_14902" data-name="Group 14902" transform="translate(22.923)">
                        <path id="Path_16308" data-name="Path 16308" d="M996.22,5501.719a.31.31,0,0,1-.258-.125.226.226,0,0,1,.112-.337l1.356-.64a.331.331,0,0,1,.4.094.226.226,0,0,1-.113.336l-1.355.64A.334.334,0,0,1,996.22,5501.719Z" transform="translate(-995.923 -5500.585)" fill="#fff4ba"/>
                      </g>
                      <g id="Group_14903" data-name="Group 14903" transform="translate(0 10.802)">
                        <path id="Path_16309" data-name="Path 16309" d="M958.556,5519.468a.311.311,0,0,1-.258-.126.226.226,0,0,1,.112-.336l1.356-.64a.33.33,0,0,1,.4.094.227.227,0,0,1-.112.337l-1.356.639A.348.348,0,0,1,958.556,5519.468Z" transform="translate(-958.259 -5518.333)" fill="#fff4ba"/>
                      </g>
                    </g>
                    <g id="Group_14907" data-name="Group 14907" transform="translate(4.66)">
                      <g id="Group_14905" data-name="Group 14905" transform="translate(14.122)">
                        <path id="Path_16310" data-name="Path 16310" d="M989.417,5495.457a.331.331,0,0,1-.159-.04.224.224,0,0,1-.091-.341l.835-1.1a.335.335,0,0,1,.41-.076.224.224,0,0,1,.091.341l-.835,1.1A.315.315,0,0,1,989.417,5495.457Z" transform="translate(-989.121 -5493.866)" fill="#fff4ba"/>
                      </g>
                      <g id="Group_14906" data-name="Group 14906" transform="translate(0 18.525)">
                        <path id="Path_16311" data-name="Path 16311" d="M966.213,5525.895a.349.349,0,0,1-.159-.039.225.225,0,0,1-.091-.342l.835-1.095a.334.334,0,0,1,.41-.076.224.224,0,0,1,.091.342l-.835,1.095A.315.315,0,0,1,966.213,5525.895Z" transform="translate(-965.917 -5524.304)" fill="#fff4ba"/>
                      </g>
                    </g>
                  </g>
                  <g id="Group_14915" data-name="Group 14915" transform="translate(4.153 3.03)">
                    <g id="Group_14911" data-name="Group 14911" transform="translate(4.907)">
                      <g id="Group_14909" data-name="Group 14909" transform="translate(12.96 19.106)">
                        <path id="Path_16312" data-name="Path 16312" d="M989.286,5526.377a.312.312,0,0,1-.259-.126l-.767-1.13a.227.227,0,0,1,.113-.337.33.33,0,0,1,.4.094l.767,1.13a.227.227,0,0,1-.112.337A.349.349,0,0,1,989.286,5526.377Z" transform="translate(-988.222 -5524.752)" fill="#fff4ba"/>
                      </g>
                      <g id="Group_14910" data-name="Group 14910">
                        <path id="Path_16313" data-name="Path 16313" d="M967.992,5494.985a.313.313,0,0,1-.259-.126l-.767-1.13a.227.227,0,0,1,.113-.337.333.333,0,0,1,.4.093l.766,1.131a.227.227,0,0,1-.113.337A.338.338,0,0,1,967.992,5494.985Z" transform="translate(-966.928 -5493.36)" fill="#fff4ba"/>
                      </g>
                    </g>
                    <g id="Group_14914" data-name="Group 14914" transform="translate(0 3.885)">
                      <g id="Group_14912" data-name="Group 14912" transform="translate(22.225 11.771)">
                        <path id="Path_16314" data-name="Path 16314" d="M996.995,5520.274a.341.341,0,0,1-.159-.039l-1.314-.7a.224.224,0,0,1-.091-.341.335.335,0,0,1,.41-.076l1.315.7a.224.224,0,0,1,.091.342A.317.317,0,0,1,996.995,5520.274Z" transform="translate(-995.384 -5519.084)" fill="#fff4ba"/>
                      </g>
                      <g id="Group_14913" data-name="Group 14913">
                        <path id="Path_16315" data-name="Path 16315" d="M960.477,5500.934a.343.343,0,0,1-.159-.039l-1.315-.7a.225.225,0,0,1-.091-.341.335.335,0,0,1,.41-.076l1.314.7a.224.224,0,0,1,.091.341A.316.316,0,0,1,960.477,5500.934Z" transform="translate(-958.866 -5499.743)" fill="#fff4ba"/>
                      </g>
                    </g>
                  </g>
                </g>
                <g id="Group_14917" data-name="Group 14917" transform="translate(0 255.689)">
                  <path id="Path_16316" data-name="Path 16316" d="M877.111,5691.832H334.41v99.576h-.649v40.226H877.106v-135.56h.005Z" transform="translate(-333.76 -5691.487)" fill="#f9f9f9"/>
                  <rect id="Rectangle_1297" data-name="Rectangle 1297" width="541.571" height="0.582" transform="translate(1.941 139.345)" fill="#f9f9f9"/>
                  <rect id="Rectangle_1298" data-name="Rectangle 1298" width="542.707" height="0.582" transform="translate(0.649)" fill="#f9f9f9"/>
                </g>
                <g id="Group_14918" data-name="Group 14918" transform="translate(32.946 5.117)">
                  <path id="Path_16317" data-name="Path 16317" d="M948.9,5366.388v-86.829h-2.081v86.829c-6.485.442-11.586,4.961-11.586,10.481,0,5.813,5.653,10.524,12.627,10.524s12.626-4.711,12.626-10.524C960.484,5371.349,955.384,5366.83,948.9,5366.388Z" transform="translate(-602.11 -5279.559)" fill="#ffb2b0"/>
                  <path id="Path_16318" data-name="Path 16318" d="M401.56,5377.656v-86.828h-2.08v86.828c-6.485.442-11.587,4.961-11.587,10.48,0,5.813,5.653,10.524,12.627,10.524s12.627-4.712,12.627-10.524C413.147,5382.617,408.046,5378.1,401.56,5377.656Z" transform="translate(-387.893 -5283.97)" fill="#ffb2b0"/>
                  <path id="Path_16319" data-name="Path 16319" d="M592.559,5365.286v-63.127h-1.512v63.127c-4.716.322-8.424,3.607-8.424,7.62,0,4.226,4.11,7.652,9.18,7.652s9.18-3.426,9.18-7.652C600.983,5368.893,597.275,5365.608,592.559,5365.286Z" transform="translate(-464.106 -5288.404)" fill="#ffb2b0"/>
                  <path id="Path_16320" data-name="Path 16320" d="M1115.514,5365.286v-63.127H1114v63.127c-4.716.322-8.424,3.607-8.424,7.62,0,4.226,4.11,7.652,9.18,7.652s9.18-3.426,9.18-7.652C1123.938,5368.893,1120.23,5365.608,1115.514,5365.286Z" transform="translate(-668.781 -5288.404)" fill="#ffb2b0"/>
                </g>
              </g>
              <g id="Group_14956" data-name="Group 14956" transform="translate(18.372 125.52)">
                <g id="Group_14928" data-name="Group 14928" transform="translate(0 24.351)">
                  <g id="Group_14920" data-name="Group 14920">
                    <rect id="Rectangle_1299" data-name="Rectangle 1299" width="53.43" height="1.909" transform="translate(0.487 0.406)" fill="#ebebeb"/>
                    <path id="Path_16321" data-name="Path 16321" d="M418.35,5520.121h-54.4V5517.4h54.4Zm-53.43-.812h52.456v-1.1H364.92Z" transform="translate(-363.946 -5517.4)" fill="#ebebeb"/>
                  </g>
                  <g id="Group_14921" data-name="Group 14921" transform="translate(0 28.788)">
                    <rect id="Rectangle_1300" data-name="Rectangle 1300" width="53.43" height="1.909" transform="translate(0.487 0.406)" fill="#ebebeb"/>
                    <path id="Path_16322" data-name="Path 16322" d="M418.35,5567.421h-54.4v-2.72h54.4Zm-53.43-.812h52.456v-1.1H364.92Z" transform="translate(-363.946 -5564.701)" fill="#ebebeb"/>
                  </g>
                  <g id="Group_14922" data-name="Group 14922" transform="translate(0 57.577)">
                    <rect id="Rectangle_1301" data-name="Rectangle 1301" width="53.43" height="1.909" transform="translate(0.487 0.406)" fill="#ebebeb"/>
                    <path id="Path_16323" data-name="Path 16323" d="M418.35,5614.722h-54.4V5612h54.4Zm-53.43-.812h52.456v-1.1H364.92Z" transform="translate(-363.946 -5612.002)" fill="#ebebeb"/>
                  </g>
                  <g id="Group_14927" data-name="Group 14927" transform="translate(0 0.637)">
                    <g id="Group_14923" data-name="Group 14923" transform="translate(0 86.364)">
                      <rect id="Rectangle_1302" data-name="Rectangle 1302" width="53.43" height="1.909" transform="translate(0.487 0.406)" fill="#ebebeb"/>
                      <path id="Path_16324" data-name="Path 16324" d="M418.35,5663.068h-54.4v-2.721h54.4Zm-53.43-.813h52.456v-1.1H364.92Z" transform="translate(-363.946 -5660.347)" fill="#ebebeb"/>
                    </g>
                    <g id="Group_14924" data-name="Group 14924" transform="translate(0 113.917)">
                      <rect id="Rectangle_1303" data-name="Rectangle 1303" width="53.43" height="1.908" transform="translate(0.487 0.405)" fill="#ebebeb"/>
                      <path id="Path_16325" data-name="Path 16325" d="M418.35,5708.339h-54.4v-2.72h54.4Zm-53.43-.811h52.456v-1.1H364.92Z" transform="translate(-363.946 -5705.619)" fill="#ebebeb"/>
                    </g>
                    <g id="Group_14925" data-name="Group 14925">
                      <rect id="Rectangle_1304" data-name="Rectangle 1304" width="2.862" height="138.486" transform="translate(0.487 0.406)" fill="#ebebeb"/>
                      <path id="Path_16326" data-name="Path 16326" d="M367.782,5657.744h-3.836v-139.3h3.836Zm-2.862-.812h1.889V5519.258H364.92Z" transform="translate(-363.946 -5518.446)" fill="#ebebeb"/>
                    </g>
                    <g id="Group_14926" data-name="Group 14926" transform="translate(50.568)">
                      <rect id="Rectangle_1305" data-name="Rectangle 1305" width="2.862" height="138.486" transform="translate(0.487 0.406)" fill="#ebebeb"/>
                      <path id="Path_16327" data-name="Path 16327" d="M450.868,5657.744h-3.836v-139.3h3.836Zm-2.862-.812h1.889V5519.258h-1.889Z" transform="translate(-447.032 -5518.446)" fill="#ebebeb"/>
                    </g>
                  </g>
                </g>
                <g id="Group_14939" data-name="Group 14939" transform="translate(9.577 31.137)">
                  <g id="Group_14930" data-name="Group 14930">
                    <g id="Group_14929" data-name="Group 14929">
                      <rect id="Rectangle_1306" data-name="Rectangle 1306" width="5.597" height="22.002" transform="translate(0.487 0.406)" fill="#ebebeb"/>
                      <path id="Path_16328" data-name="Path 16328" d="M386.253,5551.364h-6.571V5528.55h6.571Zm-5.6-.812h4.623v-21.191h-4.623Z" transform="translate(-379.682 -5528.55)" fill="#ebebeb"/>
                    </g>
                    <path id="Path_16329" data-name="Path 16329" d="M385.738,5536.5a1.875,1.875,0,1,1-1.845-1.538A1.712,1.712,0,0,1,385.738,5536.5Z" transform="translate(-380.608 -5531.062)" fill="#ebebeb"/>
                  </g>
                  <g id="Group_14932" data-name="Group 14932" transform="translate(6.579)">
                    <g id="Group_14931" data-name="Group 14931">
                      <rect id="Rectangle_1307" data-name="Rectangle 1307" width="5.597" height="22.002" transform="translate(0.487 0.406)" fill="#ebebeb"/>
                      <path id="Path_16330" data-name="Path 16330" d="M397.063,5551.364h-6.572V5528.55h6.572Zm-5.6-.812h4.624v-21.191h-4.624Z" transform="translate(-390.491 -5528.55)" fill="#ebebeb"/>
                    </g>
                    <path id="Path_16331" data-name="Path 16331" d="M396.548,5536.5a1.875,1.875,0,1,1-1.845-1.538A1.712,1.712,0,0,1,396.548,5536.5Z" transform="translate(-391.418 -5531.062)" fill="#ebebeb"/>
                  </g>
                  <g id="Group_14934" data-name="Group 14934" transform="translate(13.158)">
                    <g id="Group_14933" data-name="Group 14933">
                      <rect id="Rectangle_1308" data-name="Rectangle 1308" width="5.597" height="22.002" transform="translate(0.487 0.406)" fill="#ebebeb"/>
                      <path id="Path_16332" data-name="Path 16332" d="M407.873,5551.364H401.3V5528.55h6.571Zm-5.6-.812H406.9v-21.191h-4.623Z" transform="translate(-401.302 -5528.55)" fill="#ebebeb"/>
                    </g>
                    <path id="Path_16333" data-name="Path 16333" d="M407.358,5536.5a1.875,1.875,0,1,1-1.845-1.538A1.712,1.712,0,0,1,407.358,5536.5Z" transform="translate(-402.228 -5531.062)" fill="#ebebeb"/>
                  </g>
                  <g id="Group_14936" data-name="Group 14936" transform="translate(19.738)">
                    <g id="Group_14935" data-name="Group 14935">
                      <rect id="Rectangle_1309" data-name="Rectangle 1309" width="5.597" height="22.002" transform="translate(0.487 0.406)" fill="#ebebeb"/>
                      <path id="Path_16334" data-name="Path 16334" d="M418.683,5551.364h-6.571V5528.55h6.571Zm-5.6-.812h4.624v-21.191h-4.624Z" transform="translate(-412.112 -5528.55)" fill="#ebebeb"/>
                    </g>
                    <path id="Path_16335" data-name="Path 16335" d="M418.168,5536.5a1.875,1.875,0,1,1-1.845-1.538A1.712,1.712,0,0,1,418.168,5536.5Z" transform="translate(-413.038 -5531.062)" fill="#ebebeb"/>
                  </g>
                  <g id="Group_14938" data-name="Group 14938" transform="translate(26.317)">
                    <g id="Group_14937" data-name="Group 14937">
                      <rect id="Rectangle_1310" data-name="Rectangle 1310" width="5.597" height="22.002" transform="translate(0.487 0.406)" fill="#ebebeb"/>
                      <path id="Path_16336" data-name="Path 16336" d="M429.493,5551.364h-6.571V5528.55h6.571Zm-5.6-.812h4.624v-21.191H423.9Z" transform="translate(-422.922 -5528.55)" fill="#ebebeb"/>
                    </g>
                    <path id="Path_16337" data-name="Path 16337" d="M428.979,5536.5a1.875,1.875,0,1,1-1.845-1.538A1.712,1.712,0,0,1,428.979,5536.5Z" transform="translate(-423.849 -5531.062)" fill="#ebebeb"/>
                  </g>
                </g>
                <path id="Path_16338" data-name="Path 16338" d="M384.076,5635.458a9.124,9.124,0,0,1,.872-4.043h-6.709a9.124,9.124,0,0,1,.872,4.043c0,2.446-2.94,6.962-2.94,9.973s3.117,4,5.423,4,5.423-.988,5.423-4S384.076,5637.9,384.076,5635.458Z" transform="translate(-368.73 -5537.672)" fill="#ebebeb"/>
                <g id="Group_14941" data-name="Group 14941" transform="translate(28.478 62.59)">
                  <g id="Group_14940" data-name="Group 14940" transform="translate(0.831)">
                    <path id="Path_16339" data-name="Path 16339" d="M424.831,5591.159c1.809-3.539-2.213-3.474-1.907-4.4.575-1.744,2.744.151,3.624-.727s-2.171-3.614-.574-4.563,1.038,2.26,2.418,2.033.559-3.618,2.187-3.239c1.224.285-.23,2.4-.1,3.393s2.658-.453,2.7.96-3.009.794-3.369,1.869,3.283,1.3,2.006,2.2-3.686-.18-4.319.766S424.062,5592.661,424.831,5591.159Z" transform="translate(-416.331 -5580.229)" fill="#ebebeb"/>
                    <path id="Path_16340" data-name="Path 16340" d="M419.488,5596.022c-1.7-3.578-4.505-1.173-5.071-2.013-1.063-1.577,2.078-1.5,1.962-2.641s-4.594-1.3-4.258-2.907,2.644,1,3.434.026-2.656-2.9-1.179-3.583c1.11-.516,1.865,1.843,2.8,2.467s1.507-1.88,2.731-.9-1.469,2.33-.818,3.3,3.428-1,3.286.392-2.77,2.033-2.424,3.076S420.21,5597.54,419.488,5596.022Z" transform="translate(-412.103 -5582.031)" fill="#ebebeb"/>
                  </g>
                  <path id="Path_16341" data-name="Path 16341" d="M423.283,5595.072H414s-3.26,2.333-3.26,5.09,2.032,5.619,7.9,5.619,7.9-2.862,7.9-5.619S423.283,5595.072,423.283,5595.072Z" transform="translate(-410.737 -5586.038)" fill="#ebebeb"/>
                </g>
                <g id="Group_14942" data-name="Group 14942" transform="translate(30.756 99.192)">
                  <rect id="Rectangle_1311" data-name="Rectangle 1311" width="8.571" height="9.702" transform="translate(2.652 2.863)" fill="#ebebeb"/>
                  <ellipse id="Ellipse_117" data-name="Ellipse 117" cx="6.764" cy="2.863" rx="6.764" ry="2.863" fill="#ebebeb"/>
                </g>
                <g id="Group_14943" data-name="Group 14943" transform="translate(24.787 15.44)">
                  <rect id="Rectangle_1312" data-name="Rectangle 1312" width="6.355" height="7.193" transform="translate(1.966 2.123)" fill="#ebebeb"/>
                  <path id="Path_16342" data-name="Path 16342" d="M414.7,5504.882c0,1.173-2.245,2.123-5.015,2.123s-5.015-.95-5.015-2.123,2.245-2.123,5.015-2.123S414.7,5503.709,414.7,5504.882Z" transform="translate(-404.672 -5502.759)" fill="#ebebeb"/>
                </g>
                <g id="Group_14945" data-name="Group 14945" transform="translate(3.54)">
                  <g id="Group_14944" data-name="Group 14944">
                    <path id="Path_16343" data-name="Path 16343" d="M387.974,5496.307s-2.2-6.361,7.533-13.519c0,0-8.332,7.635-5.6,13.519Z" transform="translate(-376.806 -5479.502)" fill="#ebebeb"/>
                    <path id="Path_16344" data-name="Path 16344" d="M386.654,5495.639s-5.041-7.086,3.986-18.249c0,0-7.162,11.371-1.655,17.743Z" transform="translate(-375.824 -5477.39)" fill="#ebebeb"/>
                    <path id="Path_16345" data-name="Path 16345" d="M379.926,5496.307s2.2-6.361-7.533-13.519c0,0,8.333,7.635,5.6,13.519Z" transform="translate(-370.792 -5479.502)" fill="#ebebeb"/>
                    <path id="Path_16346" data-name="Path 16346" d="M383.047,5495s4.05-5.7-3.206-14.665c0,0,5.758,9.137,1.333,14.259Z" transform="translate(-373.707 -5478.542)" fill="#ebebeb"/>
                    <path id="Path_16347" data-name="Path 16347" d="M387.429,5501.1s-1.9-6.43,8.159-13.265c0,0-8.683,7.359-6.224,13.328Z" transform="translate(-376.621 -5481.479)" fill="#ebebeb"/>
                    <path id="Path_16348" data-name="Path 16348" d="M377.92,5499.82s1.9-6.428-8.158-13.264c0,0,8.682,7.359,6.224,13.327Z" transform="translate(-369.762 -5480.978)" fill="#ebebeb"/>
                  </g>
                  <path id="Path_16349" data-name="Path 16349" d="M380.849,5501.342H374.27l3.019,10.179h7.12l3.019-10.179Z" transform="translate(-371.526 -5486.765)" fill="#ebebeb"/>
                </g>
                <g id="Group_14955" data-name="Group 14955" transform="translate(5.106 74.38)">
                  <g id="Group_14950" data-name="Group 14950" transform="translate(0 0)">
                    <g id="Group_14946" data-name="Group 14946" transform="translate(0.487 5.386)">
                      <rect id="Rectangle_1313" data-name="Rectangle 1313" width="2.688" height="20.138" transform="translate(0 2.688) rotate(-90)" fill="#ebebeb"/>
                    </g>
                    <g id="Group_14948" data-name="Group 14948" transform="translate(0 2.282)">
                      <g id="Group_14947" data-name="Group 14947">
                        <rect id="Rectangle_1314" data-name="Rectangle 1314" width="2.688" height="20.138" transform="translate(0.487 3.093) rotate(-90)" fill="#ebebeb"/>
                        <path id="Path_16350" data-name="Path 16350" d="M393.447,5606.85H372.335v-3.5h21.112Zm-20.139-.812h19.165v-1.875H373.308Z" transform="translate(-372.335 -5603.35)" fill="#ebebeb"/>
                      </g>
                    </g>
                    <g id="Group_14949" data-name="Group 14949" transform="translate(0.486)">
                      <rect id="Rectangle_1315" data-name="Rectangle 1315" width="2.688" height="20.138" transform="translate(0 2.688) rotate(-90)" fill="#ebebeb"/>
                    </g>
                  </g>
                  <g id="Group_14951" data-name="Group 14951" transform="translate(12.347 0)">
                    <rect id="Rectangle_1316" data-name="Rectangle 1316" width="0.145" height="2.688" fill="#ebebeb"/>
                  </g>
                  <g id="Group_14952" data-name="Group 14952" transform="translate(13.969 0)">
                    <rect id="Rectangle_1317" data-name="Rectangle 1317" width="0.145" height="2.688" fill="#ebebeb"/>
                  </g>
                  <g id="Group_14953" data-name="Group 14953" transform="translate(15.591 0)">
                    <rect id="Rectangle_1318" data-name="Rectangle 1318" width="0.145" height="2.688" fill="#ebebeb"/>
                  </g>
                  <g id="Group_14954" data-name="Group 14954" transform="translate(17.213 0)">
                    <rect id="Rectangle_1319" data-name="Rectangle 1319" width="0.145" height="2.688" fill="#ebebeb"/>
                  </g>
                  <rect id="Rectangle_1320" data-name="Rectangle 1320" width="9.477" height="0.443" transform="translate(10.161 5.844)" fill="#ebebeb"/>
                  <rect id="Rectangle_1321" data-name="Rectangle 1321" width="9.477" height="0.443" transform="translate(10.161 6.508)" fill="#ebebeb"/>
                  <rect id="Rectangle_1322" data-name="Rectangle 1322" width="9.477" height="0.443" transform="translate(10.161 7.172)" fill="#ebebeb"/>
                </g>
              </g>
              <g id="Group_14993" data-name="Group 14993" transform="translate(442.542 113.521)">
                <g id="Group_14965" data-name="Group 14965" transform="translate(0 24.351)">
                  <g id="Group_14957" data-name="Group 14957">
                    <rect id="Rectangle_1323" data-name="Rectangle 1323" width="53.43" height="1.909" transform="translate(0.487 0.406)" fill="#ebebeb"/>
                    <path id="Path_16351" data-name="Path 16351" d="M1115.287,5500.4h-54.4v-2.72h54.4Zm-53.43-.812h52.456v-1.1h-52.456Z" transform="translate(-1060.884 -5497.685)" fill="#ebebeb"/>
                  </g>
                  <g id="Group_14958" data-name="Group 14958" transform="translate(0 28.788)">
                    <rect id="Rectangle_1324" data-name="Rectangle 1324" width="53.43" height="1.909" transform="translate(0.487 0.406)" fill="#ebebeb"/>
                    <path id="Path_16352" data-name="Path 16352" d="M1115.287,5547.707h-54.4v-2.721h54.4Zm-53.43-.812h52.456v-1.1h-52.456Z" transform="translate(-1060.884 -5544.986)" fill="#ebebeb"/>
                  </g>
                  <g id="Group_14959" data-name="Group 14959" transform="translate(0 57.577)">
                    <rect id="Rectangle_1325" data-name="Rectangle 1325" width="53.43" height="1.909" transform="translate(0.487 0.406)" fill="#ebebeb"/>
                    <path id="Path_16353" data-name="Path 16353" d="M1115.287,5595.007h-54.4v-2.72h54.4Zm-53.43-.812h52.456v-1.1h-52.456Z" transform="translate(-1060.884 -5592.287)" fill="#ebebeb"/>
                  </g>
                  <g id="Group_14964" data-name="Group 14964" transform="translate(0 0.637)">
                    <g id="Group_14960" data-name="Group 14960" transform="translate(0 86.364)">
                      <rect id="Rectangle_1326" data-name="Rectangle 1326" width="53.43" height="1.909" transform="translate(0.487 0.406)" fill="#ebebeb"/>
                      <path id="Path_16354" data-name="Path 16354" d="M1115.287,5643.353h-54.4v-2.721h54.4Zm-53.43-.812h52.456v-1.1h-52.456Z" transform="translate(-1060.884 -5640.632)" fill="#ebebeb"/>
                    </g>
                    <g id="Group_14961" data-name="Group 14961" transform="translate(0 113.917)">
                      <rect id="Rectangle_1327" data-name="Rectangle 1327" width="53.43" height="1.908" transform="translate(0.487 0.406)" fill="#ebebeb"/>
                      <path id="Path_16355" data-name="Path 16355" d="M1115.287,5688.623h-54.4v-2.72h54.4Zm-53.43-.811h52.456v-1.1h-52.456Z" transform="translate(-1060.884 -5685.903)" fill="#ebebeb"/>
                    </g>
                    <g id="Group_14962" data-name="Group 14962">
                      <rect id="Rectangle_1328" data-name="Rectangle 1328" width="2.862" height="138.486" transform="translate(0.487 0.406)" fill="#ebebeb"/>
                      <path id="Path_16356" data-name="Path 16356" d="M1064.719,5638.029h-3.836v-139.3h3.836Zm-2.862-.812h1.889V5499.542h-1.889Z" transform="translate(-1060.884 -5498.73)" fill="#ebebeb"/>
                    </g>
                    <g id="Group_14963" data-name="Group 14963" transform="translate(50.567)">
                      <rect id="Rectangle_1329" data-name="Rectangle 1329" width="2.862" height="138.486" transform="translate(0.487 0.406)" fill="#ebebeb"/>
                      <path id="Path_16357" data-name="Path 16357" d="M1147.805,5638.029h-3.836v-139.3h3.836Zm-2.862-.812h1.888V5499.542h-1.888Z" transform="translate(-1143.969 -5498.73)" fill="#ebebeb"/>
                    </g>
                  </g>
                </g>
                <g id="Group_14976" data-name="Group 14976" transform="translate(9.577 31.138)">
                  <g id="Group_14967" data-name="Group 14967">
                    <g id="Group_14966" data-name="Group 14966">
                      <rect id="Rectangle_1330" data-name="Rectangle 1330" width="5.597" height="22.002" transform="translate(0.487 0.406)" fill="#ebebeb"/>
                      <path id="Path_16358" data-name="Path 16358" d="M1083.19,5531.649h-6.571v-22.813h6.571Zm-5.6-.812h4.624v-21.19h-4.624Z" transform="translate(-1076.619 -5508.836)" fill="#ebebeb"/>
                    </g>
                    <path id="Path_16359" data-name="Path 16359" d="M1082.676,5516.79a1.875,1.875,0,1,1-1.844-1.538A1.711,1.711,0,0,1,1082.676,5516.79Z" transform="translate(-1077.546 -5511.347)" fill="#ebebeb"/>
                  </g>
                  <g id="Group_14969" data-name="Group 14969" transform="translate(6.579)">
                    <g id="Group_14968" data-name="Group 14968">
                      <rect id="Rectangle_1331" data-name="Rectangle 1331" width="5.597" height="22.002" transform="translate(0.487 0.406)" fill="#ebebeb"/>
                      <path id="Path_16360" data-name="Path 16360" d="M1094,5531.649h-6.571v-22.813H1094Zm-5.6-.812h4.624v-21.19H1088.4Z" transform="translate(-1087.429 -5508.836)" fill="#ebebeb"/>
                    </g>
                    <path id="Path_16361" data-name="Path 16361" d="M1093.487,5516.79a1.875,1.875,0,1,1-1.845-1.538A1.712,1.712,0,0,1,1093.487,5516.79Z" transform="translate(-1088.356 -5511.347)" fill="#ebebeb"/>
                  </g>
                  <g id="Group_14971" data-name="Group 14971" transform="translate(13.159)">
                    <g id="Group_14970" data-name="Group 14970">
                      <rect id="Rectangle_1332" data-name="Rectangle 1332" width="5.597" height="22.002" transform="translate(0.487 0.406)" fill="#ebebeb"/>
                      <path id="Path_16362" data-name="Path 16362" d="M1104.811,5531.649h-6.571v-22.813h6.571Zm-5.6-.812h4.624v-21.19h-4.624Z" transform="translate(-1098.24 -5508.836)" fill="#ebebeb"/>
                    </g>
                    <path id="Path_16363" data-name="Path 16363" d="M1104.3,5516.79a1.875,1.875,0,1,1-1.845-1.538A1.712,1.712,0,0,1,1104.3,5516.79Z" transform="translate(-1099.166 -5511.347)" fill="#ebebeb"/>
                  </g>
                  <g id="Group_14973" data-name="Group 14973" transform="translate(19.737)">
                    <g id="Group_14972" data-name="Group 14972">
                      <rect id="Rectangle_1333" data-name="Rectangle 1333" width="5.597" height="22.002" transform="translate(0.487 0.406)" fill="#ebebeb"/>
                      <path id="Path_16364" data-name="Path 16364" d="M1115.62,5531.649h-6.571v-22.813h6.571Zm-5.6-.812h4.624v-21.19h-4.624Z" transform="translate(-1109.049 -5508.836)" fill="#ebebeb"/>
                    </g>
                    <path id="Path_16365" data-name="Path 16365" d="M1115.106,5516.79a1.875,1.875,0,1,1-1.845-1.538A1.712,1.712,0,0,1,1115.106,5516.79Z" transform="translate(-1109.976 -5511.347)" fill="#ebebeb"/>
                  </g>
                  <g id="Group_14975" data-name="Group 14975" transform="translate(26.317)">
                    <g id="Group_14974" data-name="Group 14974">
                      <rect id="Rectangle_1334" data-name="Rectangle 1334" width="5.597" height="22.002" transform="translate(0.487 0.406)" fill="#ebebeb"/>
                      <path id="Path_16366" data-name="Path 16366" d="M1126.431,5531.649h-6.571v-22.813h6.571Zm-5.6-.812h4.624v-21.19h-4.624Z" transform="translate(-1119.86 -5508.836)" fill="#ebebeb"/>
                    </g>
                    <path id="Path_16367" data-name="Path 16367" d="M1125.916,5516.79a1.875,1.875,0,1,1-1.845-1.538A1.712,1.712,0,0,1,1125.916,5516.79Z" transform="translate(-1120.786 -5511.347)" fill="#ebebeb"/>
                  </g>
                </g>
                <path id="Path_16368" data-name="Path 16368" d="M1081.014,5615.743a9.116,9.116,0,0,1,.871-4.042h-6.709a9.116,9.116,0,0,1,.871,4.042c0,2.446-2.94,6.962-2.94,9.973s3.117,4,5.423,4,5.424-.988,5.424-4S1081.014,5618.189,1081.014,5615.743Z" transform="translate(-1065.668 -5517.958)" fill="#ebebeb"/>
                <g id="Group_14978" data-name="Group 14978" transform="translate(28.477 62.59)">
                  <g id="Group_14977" data-name="Group 14977" transform="translate(0.831)">
                    <path id="Path_16369" data-name="Path 16369" d="M1121.768,5571.444c1.81-3.539-2.213-3.474-1.906-4.4.575-1.744,2.744.152,3.623-.727s-2.17-3.614-.573-4.563,1.038,2.26,2.418,2.032.559-3.617,2.187-3.239c1.224.285-.23,2.4-.1,3.393s2.658-.453,2.7.959-3.01.795-3.369,1.869,3.284,1.3,2.005,2.205-3.685-.18-4.319.765S1121,5572.947,1121.768,5571.444Z" transform="translate(-1113.269 -5560.515)" fill="#ebebeb"/>
                    <path id="Path_16370" data-name="Path 16370" d="M1116.425,5576.307c-1.7-3.576-4.5-1.171-5.071-2.012-1.063-1.576,2.077-1.5,1.962-2.641s-4.593-1.3-4.259-2.907,2.645,1,3.434.027-2.656-2.9-1.179-3.584c1.11-.515,1.865,1.844,2.8,2.468s1.507-1.88,2.73-.9-1.469,2.329-.818,3.3,3.428-1,3.286.391-2.77,2.033-2.424,3.076S1117.147,5577.826,1116.425,5576.307Z" transform="translate(-1109.04 -5562.316)" fill="#ebebeb"/>
                  </g>
                  <path id="Path_16371" data-name="Path 16371" d="M1120.221,5575.357h-9.287s-3.26,2.333-3.26,5.089,2.032,5.62,7.9,5.62,7.9-2.863,7.9-5.62S1120.221,5575.357,1120.221,5575.357Z" transform="translate(-1107.674 -5566.323)" fill="#ebebeb"/>
                </g>
                <g id="Group_14979" data-name="Group 14979" transform="translate(30.756 99.193)">
                  <rect id="Rectangle_1335" data-name="Rectangle 1335" width="8.571" height="9.702" transform="translate(2.652 2.863)" fill="#ebebeb"/>
                  <ellipse id="Ellipse_118" data-name="Ellipse 118" cx="6.764" cy="2.863" rx="6.764" ry="2.863" fill="#ebebeb"/>
                </g>
                <g id="Group_14980" data-name="Group 14980" transform="translate(24.786 15.441)">
                  <rect id="Rectangle_1336" data-name="Rectangle 1336" width="6.355" height="7.193" transform="translate(1.966 2.122)" fill="#ebebeb"/>
                  <path id="Path_16372" data-name="Path 16372" d="M1111.64,5485.168c0,1.172-2.245,2.124-5.015,2.124s-5.016-.951-5.016-2.124,2.246-2.122,5.016-2.122S1111.64,5484,1111.64,5485.168Z" transform="translate(-1101.609 -5483.046)" fill="#ebebeb"/>
                </g>
                <g id="Group_14982" data-name="Group 14982" transform="translate(3.54)">
                  <g id="Group_14981" data-name="Group 14981">
                    <path id="Path_16373" data-name="Path 16373" d="M1084.911,5476.592s-2.2-6.361,7.534-13.519c0,0-8.333,7.634-5.6,13.519Z" transform="translate(-1073.744 -5459.788)" fill="#ebebeb"/>
                    <path id="Path_16374" data-name="Path 16374" d="M1083.592,5475.924s-5.041-7.087,3.986-18.249c0,0-7.163,11.371-1.655,17.743Z" transform="translate(-1072.762 -5457.675)" fill="#ebebeb"/>
                    <path id="Path_16375" data-name="Path 16375" d="M1076.865,5476.592s2.2-6.361-7.533-13.519c0,0,8.333,7.634,5.6,13.519Z" transform="translate(-1067.73 -5459.788)" fill="#ebebeb"/>
                    <path id="Path_16376" data-name="Path 16376" d="M1079.985,5475.283s4.05-5.7-3.206-14.664c0,0,5.757,9.137,1.333,14.258Z" transform="translate(-1070.645 -5458.827)" fill="#ebebeb"/>
                    <path id="Path_16377" data-name="Path 16377" d="M1084.367,5481.388s-1.9-6.428,8.158-13.265c0,0-8.682,7.358-6.224,13.328Z" transform="translate(-1073.559 -5461.764)" fill="#ebebeb"/>
                    <path id="Path_16378" data-name="Path 16378" d="M1074.858,5480.105s1.9-6.428-8.158-13.265c0,0,8.682,7.359,6.224,13.328Z" transform="translate(-1066.7 -5461.262)" fill="#ebebeb"/>
                  </g>
                  <path id="Path_16379" data-name="Path 16379" d="M1077.787,5481.627h-6.579l3.019,10.179h7.12l3.019-10.179Z" transform="translate(-1068.464 -5467.049)" fill="#ebebeb"/>
                </g>
                <g id="Group_14992" data-name="Group 14992" transform="translate(5.105 74.38)">
                  <g id="Group_14987" data-name="Group 14987" transform="translate(0 0)">
                    <g id="Group_14983" data-name="Group 14983" transform="translate(0.487 5.386)">
                      <rect id="Rectangle_1337" data-name="Rectangle 1337" width="2.688" height="20.138" transform="translate(0 2.688) rotate(-90)" fill="#ebebeb"/>
                    </g>
                    <g id="Group_14985" data-name="Group 14985" transform="translate(0 2.282)">
                      <g id="Group_14984" data-name="Group 14984">
                        <rect id="Rectangle_1338" data-name="Rectangle 1338" width="2.688" height="20.138" transform="translate(0.487 3.094) rotate(-90)" fill="#ebebeb"/>
                        <path id="Path_16380" data-name="Path 16380" d="M1090.384,5587.134h-21.112v-3.5h21.112Zm-20.138-.812h19.164v-1.875h-19.164Z" transform="translate(-1069.272 -5583.634)" fill="#ebebeb"/>
                      </g>
                    </g>
                    <g id="Group_14986" data-name="Group 14986" transform="translate(0.487)">
                      <rect id="Rectangle_1339" data-name="Rectangle 1339" width="2.688" height="20.138" transform="translate(0 2.688) rotate(-90)" fill="#ebebeb"/>
                    </g>
                  </g>
                  <g id="Group_14988" data-name="Group 14988" transform="translate(12.347 0)">
                    <rect id="Rectangle_1340" data-name="Rectangle 1340" width="0.145" height="2.688" fill="#ebebeb"/>
                  </g>
                  <g id="Group_14989" data-name="Group 14989" transform="translate(13.969 0)">
                    <rect id="Rectangle_1341" data-name="Rectangle 1341" width="0.145" height="2.688" fill="#ebebeb"/>
                  </g>
                  <g id="Group_14990" data-name="Group 14990" transform="translate(15.591 0)">
                    <rect id="Rectangle_1342" data-name="Rectangle 1342" width="0.145" height="2.688" fill="#ebebeb"/>
                  </g>
                  <g id="Group_14991" data-name="Group 14991" transform="translate(17.213 0)">
                    <rect id="Rectangle_1343" data-name="Rectangle 1343" width="0.145" height="2.688" fill="#ebebeb"/>
                  </g>
                  <rect id="Rectangle_1344" data-name="Rectangle 1344" width="9.477" height="0.443" transform="translate(10.162 5.844)" fill="#ebebeb"/>
                  <rect id="Rectangle_1345" data-name="Rectangle 1345" width="9.477" height="0.443" transform="translate(10.162 6.508)" fill="#ebebeb"/>
                  <rect id="Rectangle_1346" data-name="Rectangle 1346" width="9.477" height="0.443" transform="translate(10.162 7.172)" fill="#ebebeb"/>
                </g>
              </g>
            </g>
          </g>
        </g>
      </g>
    </g>
    <g id="Group_15001" data-name="Group 15001" transform="translate(92.48 5518.188)">
      <g id="Group_15000" data-name="Group 15000" transform="translate(0)">
        <path id="Path_16381" data-name="Path 16381" d="M815.313,5392.471c14.147,16.815,2.446,35.172-28.6,42.537-32.975,7.822-75.562.346-96.413-16.7-16.7,9.571-42.073,17.055-71.093,19.874-53.5,5.2-99.117-7.419-101.9-28.18-.553-4.127.634-8.264,3.3-12.287-45.288,8.295-71.733-.122-82.688-23.51-8.084-17.257,16.04-47.9,81.329-54.242,8.324-.809,16.479-1.356,24.379-1.66-.166-.572-2.456-3.813,1-9.522,15.009-24.815,66.811-29.107,120.762-24.423,45.428,3.944,67.939,19.678,78.291,34,0,0,129.635-28.59,152.123,28.212C895.8,5346.577,921.036,5396.6,815.313,5392.471Z" transform="translate(-485.419 -5280.708)" fill="#fff" stroke="#ebebeb" stroke-miterlimit="10" stroke-width="1"/>
        <circle id="Ellipse_119" data-name="Ellipse 119" cx="10.987" cy="10.987" r="10.987" transform="translate(-2.496 114.903)" fill="#fff" stroke="#ebebeb" stroke-miterlimit="10" stroke-width="1"/>
        <circle id="Ellipse_120" data-name="Ellipse 120" cx="6.511" cy="6.511" r="6.511" transform="translate(6.085 134.229)" fill="#fff" stroke="#ebebeb" stroke-miterlimit="10" stroke-width="1"/>
        <circle id="Ellipse_121" data-name="Ellipse 121" cx="5.569" cy="5.569" r="5.569" transform="translate(17.341 147.507)" fill="#fff" stroke="#ebebeb" stroke-miterlimit="10" stroke-width="1"/>
      </g>
    </g>
    <g id="Group_15013" data-name="Group 15013" transform="translate(121.021 5671.727)">
      <g id="Group_15003" data-name="Group 15003" transform="translate(32.457 0)">
        <g id="Group_15002" data-name="Group 15002">
          <path id="Path_16382" data-name="Path 16382" d="M545.148,5666.251c-8.457-11.63,3.08-17.6,2.761-29.036s-10.238-8.248-11.2-23.042,8.095-18.345,8.806-26.88-10.849-11.18-5.624-21.7,13.351-10.042,17.873-18.4,16.906-12.555,23.51-8.312,15.329-9.644,26.855-1.051,9.6,24.417,12.721,33.551,14.794,13.47,15.833,29.527-7.242,11.93-3.983,23.175,13.791,10.988,14.831,27.05c0,0,.62,16.084-16.377,14.214s-12.141,8-30.331.693-12.844,10.167-25.547,2.926S554.874,5679.624,545.148,5666.251Z" transform="translate(-536.642 -5534.966)" fill="#2d356b"/>
        </g>
      </g>
      <g id="Group_15005" data-name="Group 15005" transform="translate(98.676 109.626)">
        <g id="Group_15004" data-name="Group 15004" transform="translate(16.578 103.386)">
          <path id="Path_16383" data-name="Path 16383" d="M679.5,5911.707c-.648-.858.771-2.182,2.581-3.429s3.321-1.952,3.973-1.1-.289,2.565-2.1,3.813S680.152,5912.565,679.5,5911.707Z" transform="translate(-675.289 -5893.509)" fill="#f7c371"/>
          <path id="Path_16384" data-name="Path 16384" d="M683.727,5914.441c-.65-.859.771-2.181,2.581-3.429s3.319-1.956,3.972-1.1-.289,2.563-2.1,3.814S684.378,5915.3,683.727,5914.441Z" transform="translate(-676.942 -5894.579)" fill="#f7c371"/>
          <path id="Path_16385" data-name="Path 16385" d="M672.9,5905.513c.765-.788,3.082.847,5.485,2.942s3.99,3.853,3.223,4.644-3.334-.271-5.74-2.368S672.132,5906.3,672.9,5905.513Z" transform="translate(-672.681 -5892.924)" fill="#ffd8a3"/>
          <path id="Path_16386" data-name="Path 16386" d="M687.277,5884.959c-3.759,2.844-16.271,10.882-13.565,15.167,2.42,3.833,10.78,4.989,17.115-12.458Z" transform="translate(-672.936 -5884.959)" fill="#ffd8a3"/>
        </g>
        <path id="Path_16387" data-name="Path 16387" d="M645.636,5716.413c8.643-11.106,65.252,51.267,66.3,54.073,0,0-3.411,10.126-6.664,8.771C696.855,5775.748,641.777,5721.371,645.636,5716.413Z" transform="translate(-645.442 -5715.089)" fill="#fff4ba"/>
        <path id="Path_16388" data-name="Path 16388" d="M698.772,5855.229c-9.819-4.27,23.2-52.589,25.079-53.885,0,0,8.125.612,7.724,3.253C730.539,5811.432,703.157,5857.135,698.772,5855.229Z" transform="translate(-665.602 -5748.848)" fill="#fff4ba"/>
        <path id="Path_16389" data-name="Path 16389" d="M697.288,5885.343l3.251.948,10.3-7.723s-5.281-2.826-6.755-2.7S697.288,5885.343,697.288,5885.343Z" transform="translate(-665.734 -5778.013)" fill="#eaeaea"/>
        <path id="Path_16390" data-name="Path 16390" d="M695.935,5882l-2.6-2.2.9-12.856s5.321,2.871,6.029,4.171S695.935,5882,695.935,5882Z" transform="translate(-664.186 -5774.521)" fill="#eaeaea"/>
      </g>
      <g id="Group_15007" data-name="Group 15007" transform="translate(0 109.626)">
        <g id="Group_15006" data-name="Group 15006" transform="translate(32.029 103.386)">
          <path id="Path_16391" data-name="Path 16391" d="M554.064,5911.707c.648-.858-.771-2.182-2.581-3.429s-3.321-1.952-3.973-1.1.288,2.565,2.1,3.813S553.413,5912.565,554.064,5911.707Z" transform="translate(-540.387 -5893.509)" fill="#f7c371"/>
          <path id="Path_16392" data-name="Path 16392" d="M549.838,5914.441c.65-.859-.771-2.181-2.582-3.429s-3.319-1.956-3.972-1.1.289,2.563,2.1,3.814S549.187,5915.3,549.838,5914.441Z" transform="translate(-538.733 -5894.579)" fill="#f7c371"/>
          <path id="Path_16393" data-name="Path 16393" d="M559.251,5905.513c-.766-.788-3.082.847-5.486,2.942s-3.99,3.853-3.223,4.644,3.334-.271,5.74-2.368S560.018,5906.3,559.251,5905.513Z" transform="translate(-541.578 -5892.924)" fill="#ffd8a3"/>
          <path id="Path_16394" data-name="Path 16394" d="M539.487,5884.959c3.759,2.844,16.271,10.882,13.565,15.167-2.42,3.833-10.78,4.989-17.115-12.458Z" transform="translate(-535.938 -5884.959)" fill="#ffd8a3"/>
        </g>
        <path id="Path_16395" data-name="Path 16395" d="M549.617,5716.413c-8.644-11.106-65.253,51.267-66.3,54.073,0,0,3.411,10.126,6.665,8.771C498.4,5775.748,553.475,5721.371,549.617,5716.413Z" transform="translate(-483.312 -5715.089)" fill="#fff4ba"/>
        <path id="Path_16396" data-name="Path 16396" d="M516.967,5855.229c9.819-4.27-23.2-52.589-25.079-53.885,0,0-8.125.612-7.724,3.253C485.2,5811.432,512.583,5857.135,516.967,5855.229Z" transform="translate(-483.64 -5748.848)" fill="#fff4ba"/>
        <path id="Path_16397" data-name="Path 16397" d="M532.011,5885.343l-3.251.948-10.3-7.723s5.281-2.826,6.755-2.7S532.011,5885.343,532.011,5885.343Z" transform="translate(-497.067 -5778.013)" fill="#eaeaea"/>
        <path id="Path_16398" data-name="Path 16398" d="M537.583,5882l2.6-2.2-.895-12.856s-5.32,2.871-6.03,4.171S537.583,5882,537.583,5882Z" transform="translate(-502.833 -5774.521)" fill="#eaeaea"/>
      </g>
      <g id="Group_15008" data-name="Group 15008" transform="translate(40.799 77.203)">
        <path id="Path_16399" data-name="Path 16399" d="M636.442,5835.168c-18.945-27.469-26.849-53.294-7.2-81.886,0,0-7.907-51.128-36.569-52.4s-33.77,54.5-33.77,54.5c18.632,27.924,23.255,42.711-8.551,79.535" transform="translate(-550.348 -5677.097)" fill="#ffe200"/>
        <path id="Path_16400" data-name="Path 16400" d="M608.681,5725.116a17.355,17.355,0,0,1,11.1,4c2.906-6.61,4.845-14.741,2.772-23.038-17.449-13.12-28.2,1.362-28.2,1.362s-2.286,9.037,3.866,21.188A17.322,17.322,0,0,1,608.681,5725.116Z" transform="translate(-567.409 -5676.989)" fill="#fff"/>
        <path id="Path_16401" data-name="Path 16401" d="M602.678,5705.72s-2.9,14.559,10.292,30.356c0,0,11.216-15.375,8.049-31.483C609.671,5693.751,602.678,5705.72,602.678,5705.72Z" transform="translate(-570.723 -5676.78)" fill="#f7c371"/>
        <rect id="Rectangle_1348" data-name="Rectangle 1348" width="14.968" height="28.059" transform="translate(33.752)" fill="#f7c371"/>
        <path id="Path_16402" data-name="Path 16402" d="M628.843,5814.171a2.1,2.1,0,1,0-2.105,2.105A2.1,2.1,0,0,0,628.843,5814.171Z" transform="translate(-579.422 -5720.62)" fill="#fff"/>
        <path id="Path_16403" data-name="Path 16403" d="M628.843,5841.2a2.1,2.1,0,1,0-2.105,2.1A2.1,2.1,0,0,0,628.843,5841.2Z" transform="translate(-579.422 -5731.198)" fill="#fff"/>
        <path id="Path_16404" data-name="Path 16404" d="M628.843,5895.253a2.1,2.1,0,1,0-2.105,2.1A2.1,2.1,0,0,0,628.843,5895.253Z" transform="translate(-579.422 -5752.354)" fill="#fff"/>
        <path id="Path_16405" data-name="Path 16405" d="M628.843,5868.225a2.1,2.1,0,1,0-2.105,2.1A2.1,2.1,0,0,0,628.843,5868.225Z" transform="translate(-579.422 -5741.776)" fill="#fff"/>
      </g>
      <g id="Group_15009" data-name="Group 15009" transform="translate(52.057 24.407)">
        <path id="Path_16406" data-name="Path 16406" d="M600.418,5641.765c-9.23,1.247-33.425-21.173-29.028-53.339.89-6.5,7.215-11.029,20.094-12.769,14.168-1.914,21.167,1.04,22.885,5.976C626.518,5616.531,609.865,5640.488,600.418,5641.765Z" transform="translate(-569.635 -5575.068)" fill="#ffd8a3"/>
        <path id="Path_16407" data-name="Path 16407" d="M613.654,5599.5c3.141-1.088,10.092-2.6,14.987,5.413C624.17,5600.259,620.984,5598.725,613.654,5599.5Z" transform="translate(-586.383 -5584.288)" fill="#2d356b"/>
        <path id="Path_16408" data-name="Path 16408" d="M591.081,5603.457c-3.248-.61-10.306-1.088-13.971,7.563C580.84,5605.756,583.756,5603.769,591.081,5603.457Z" transform="translate(-572.08 -5586.065)" fill="#2d356b"/>
        <path id="Path_16409" data-name="Path 16409" d="M628.787,5618.084c-.313-1.75-1.67-2.967-3.029-2.721s-2.213,1.86-1.9,3.61,1.67,2.964,3.03,2.72S629.1,5619.832,628.787,5618.084Z" transform="translate(-590.352 -5590.826)" fill="#2d356b"/>
        <path id="Path_16410" data-name="Path 16410" d="M630.062,5617.234c-2.675-1.761-6.139-3.279-10.594-.213A21.5,21.5,0,0,1,630.062,5617.234Z" transform="translate(-588.658 -5590.799)" fill="#2d356b"/>
        <path id="Path_16411" data-name="Path 16411" d="M589.081,5623.443c-.162-1.771.823-3.3,2.2-3.427s2.624,1.206,2.786,2.977-.823,3.3-2.2,3.427S589.243,5625.212,589.081,5623.443Z" transform="translate(-576.758 -5592.657)" fill="#2d356b"/>
        <path id="Path_16412" data-name="Path 16412" d="M584.033,5623.307c2.112-2.408,5.047-4.79,10.154-3.016A21.478,21.478,0,0,0,584.033,5623.307Z" transform="translate(-574.789 -5592.526)" fill="#2d356b"/>
        <path id="Path_16413" data-name="Path 16413" d="M609.142,5637.394a6.828,6.828,0,0,0,2.92.774,3.968,3.968,0,0,0,2.595-1.635c.02-.779-3.144-8.99-3.871-8.969S608.94,5636.3,609.142,5637.394Z" transform="translate(-584.607 -5595.614)" fill="#ffab00"/>
        <path id="Path_16414" data-name="Path 16414" d="M611.113,5634.93c.027.171.882.333,1.171.293.495-.066,1.057-.4,1.036-.711-.05-.748-.8-9.228-2.277-8.944C609.421,5625.875,610.948,5633.855,611.113,5634.93Z" transform="translate(-585.071 -5594.831)" fill="#ffd8a3"/>
        <path id="Path_16415" data-name="Path 16415" d="M618.445,5666.835c-.139-1.028-1.261-.775-2.725-.576s-2.716.265-2.577,1.293,1.437,1.7,2.9,1.5S618.584,5667.862,618.445,5666.835Z" transform="translate(-586.179 -5610.688)" fill="#f36973"/>
        <path id="Path_16416" data-name="Path 16416" d="M617.023,5650.626c-3.327-1.248-4.144.411-4.861.508-.912.123-2.035-1.295-4.954.818-.839.607,2.447,1.563,5.159,1.2S617.995,5650.988,617.023,5650.626Z" transform="translate(-583.808 -5604.459)" fill="#f36973"/>
        <path id="Path_16417" data-name="Path 16417" d="M603.63,5652.49l14.253-1.926s-.525,10.515-5.74,11.22S603.63,5652.49,603.63,5652.49Z" transform="translate(-582.459 -5604.616)" fill="#ffab00"/>
        <path id="Path_16418" data-name="Path 16418" d="M617.559,5651.654l-12.275,1.659,1.913,3.99,9.576-1.294Z" transform="translate(-583.107 -5605.042)" fill="#fff"/>
        <path id="Path_16419" data-name="Path 16419" d="M627.438,5649.863a.732.732,0,1,0-.6.932A.791.791,0,0,0,627.438,5649.863Z" transform="translate(-591.213 -5604.049)" fill="#ffab00"/>
        <path id="Path_16420" data-name="Path 16420" d="M603.683,5653.073a.732.732,0,1,0-.6.932A.794.794,0,0,0,603.683,5653.073Z" transform="translate(-581.915 -5605.305)" fill="#ffab00"/>
        <path id="Path_16421" data-name="Path 16421" d="M572.619,5635.385c-.71-1.976-.663-3.665-2.12-3.141s-2.066,2.55-1.355,4.526,2.467,3.151,3.924,2.628S573.329,5637.361,572.619,5635.385Z" transform="translate(-568.845 -5597.408)" fill="#f7c371"/>
        <path id="Path_16422" data-name="Path 16422" d="M649.278,5625.141c.11-2.1-.439-3.705,1.153-3.621s2.8,1.855,2.689,3.954-1.49,3.728-3.083,3.646S649.17,5627.241,649.278,5625.141Z" transform="translate(-600.224 -5593.248)" fill="#f7c371"/>
      </g>
      <g id="Group_15012" data-name="Group 15012" transform="translate(50.088 17.5)">
        <g id="Group_15011" data-name="Group 15011" transform="translate(16.867)">
          <path id="Path_16423" data-name="Path 16423" d="M626.352,5583.242c-8.536-1.988-30-7.85-33.03-18.026,0,0,20.155-5.369,26.2,4.233C627.17,5581.571,626.352,5583.242,626.352,5583.242Z" transform="translate(-593.322 -5563.719)" fill="#2d356b"/>
          <g id="Group_15010" data-name="Group 15010" transform="translate(1.974 4.905)">
            <path id="Path_16424" data-name="Path 16424" d="M604.823,5578.166c2.125,2.344,13.961,9.622,21.759,11.362S604.823,5578.166,604.823,5578.166Z" transform="translate(-599.797 -5574.278)" fill="#2d356b"/>
            <path id="Path_16425" data-name="Path 16425" d="M596.565,5571.777c.676,1.853,5.8,8.832,9.9,11.666S596.565,5571.777,596.565,5571.777Z" transform="translate(-596.565 -5571.777)" fill="#2d356b"/>
          </g>
        </g>
        <path id="Path_16426" data-name="Path 16426" d="M565.78,5599.26c6.08-3.964,21.156-14.763,21.051-25.335,0,0-16.755-.381-19.105,10.355C564.755,5597.838,565.78,5599.26,565.78,5599.26Z" transform="translate(-565.609 -5567.713)" fill="#2d356b"/>
      </g>
    </g>
    <rect id="Rectangle_1019" data-name="Rectangle 1019" width="248.184" height="48.963" rx="11.604" transform="translate(522.366 5728.499) rotate(-180)" fill="#fff" stroke="#231f20" stroke-miterlimit="10" stroke-width="0.25"/>
    <path id="Path_15593" data-name="Path 15593" d="M713.881,1240.2l-34.325,24.117,21.787-24.117Z" transform="translate(-412.529 4488.296)" fill="#fff" stroke="#231f20" stroke-miterlimit="10" stroke-width="0.25"/>
  </g>
</svg>
