<svg xmlns="http://www.w3.org/2000/svg" width="540" height="333.819" viewBox="0 0 540 333.819">
  <g id="Group_11324" data-name="Group 11324" transform="translate(-31.033 -4019.79)">
    <g id="Group_11120" data-name="Group 11120" transform="translate(31.033 4020.754)">
      <g id="Group_11071" data-name="Group 11071" transform="translate(0)">
        <g id="Group_11070" data-name="Group 11070">
          <g id="Group_11069" data-name="Group 11069">
            <g id="Group_11068" data-name="Group 11068">
              <g id="Group_11067" data-name="Group 11067">
                <g id="Group_11064" data-name="Group 11064" transform="translate(0.56)">
                  <g id="Group_11060" data-name="Group 11060" transform="translate(0.128)">
                    <path id="Path_14792" data-name="Path 14792" d="M571.889,4035.61h.639v-11.677H33.216v244.047H571.883v-24.514h.005Z" transform="translate(-33.216 -4023.591)" fill="#fff"/>
                    <rect id="Rectangle_3450" data-name="Rectangle 3450" width="538.625" height="0.682" transform="translate(0 244.047)" fill="#a0bacb"/>
                    <rect id="Rectangle_3451" data-name="Rectangle 3451" width="539.312" height="0.682" fill="#7b88ac"/>
                  </g>
                  <g id="Group_11061" data-name="Group 11061" transform="translate(0 49.866)">
                    <path id="Path_14793" data-name="Path 14793" d="M127.573,4182.4v-.179h-8.215v.179H34.446v148.788H208.823V4182.4Zm74.031,4.777V4219.9H127.573v-32.718Zm-82.246,38.363v62.507H41.665v-62.507Zm8.215,62.507v-62.507H201.6v62.507Zm-8.215-100.87V4219.9H41.665v-32.718ZM41.665,4293.7h77.693v32.717H41.665Zm85.907,32.717V4293.7H201.6v32.717Z" transform="translate(-33.93 -4181.884)" fill="#ebebeb"/>
                    <path id="Path_14794" data-name="Path 14794" d="M208.217,4330.792H32.809V4181.321h84.912v-.179h9.246v.179h81.25Zm-174.377-.683H207.186V4182h-81.25v-.179h-7.183V4182H33.84ZM201,4326.015H125.936v-33.4H201Zm-74.031-.683h73V4293.3h-73Zm-8.214.683H40.028v-33.4h78.724Zm-77.693-.683h76.661V4293.3H41.06ZM201,4287.651H125.936v-63.189H201Zm-74.031-.682h73v-61.824h-73Zm-8.214.682H40.028v-63.189h78.724Zm-77.693-.682h76.661v-61.824H41.06ZM201,4219.5H125.936v-33.4H201Zm-74.031-.682h73v-32.036h-73Zm-8.214.682H40.028v-33.4h78.724Zm-77.693-.682h76.661v-32.036H41.06Z" transform="translate(-32.809 -4181.142)" fill="#ebebeb"/>
                  </g>
                  <g id="Group_11062" data-name="Group 11062" transform="translate(210.599 48.986)">
                    <path id="Path_14795" data-name="Path 14795" d="M852.128,4179.61v-.179h-7.534v.179H766.71V4328.4H926.653V4179.61Zm67.9,4.778V4217.1h-67.9v-32.717Zm-75.438,38.363v62.506H773.332v-62.506Zm7.534,62.506v-62.506h67.9v62.506Zm-7.534-100.87V4217.1H773.332v-32.717ZM773.332,4290.9h71.262v32.718H773.332Zm78.8,32.718V4290.9h67.9v32.718Z" transform="translate(-766.237 -4179.09)" fill="#ebebeb"/>
                    <path id="Path_14796" data-name="Path 14796" d="M926.1,4328H765.209V4178.526h77.883v-.179h8.481v.179H926.1Zm-159.943-.683h159V4179.209H850.627v-.179h-6.589v.179H766.155Zm153.321-4.095H850.627v-33.4h68.849Zm-67.9-.683H918.53V4290.5H851.573Zm-7.535.683H771.831v-33.4h72.207Zm-71.262-.683h70.316V4290.5H772.777Zm146.7-37.681H850.627v-63.189h68.849Zm-67.9-.682H918.53V4222.35H851.573Zm-7.535.682H771.831v-63.189h72.207Zm-71.262-.682h70.316V4222.35H772.777Zm146.7-67.47H850.627v-33.4h68.849Zm-67.9-.682H918.53v-32.035H851.573Zm-7.535.682H771.831v-33.4h72.207Zm-71.262-.682h70.316v-32.035H772.777Z" transform="translate(-765.209 -4178.347)" fill="#ebebeb"/>
                  </g>
                  <g id="Group_11063" data-name="Group 11063" transform="translate(401.113 49.866)">
                    <path id="Path_14797" data-name="Path 14797" d="M1559.683,4326.415h-44V4293.7h44v-5.646h-44v-62.507h44V4219.9h-44v-32.718h44V4182.4h-44v-.179h-8.215v.179h-84.912v148.788h137.13Zm-52.219,0h-77.692V4293.7h77.692Zm0-38.363h-77.692v-62.507h77.692Zm0-68.152h-77.692v-32.718h77.692Z" transform="translate(-1422.038 -4181.884)" fill="#ebebeb"/>
                    <path id="Path_14798" data-name="Path 14798" d="M1716.531,4568.394h44.52v-.683h-43.488v-32.035h43.488v-.683h-44.52Z" transform="translate(-1623.405 -4423.521)" fill="#ebebeb"/>
                    <path id="Path_14799" data-name="Path 14799" d="M1716.531,4381.843h44.52v-.682h-43.488v-61.824h43.488v-.683h-44.52Z" transform="translate(-1623.405 -4275.334)" fill="#ebebeb"/>
                    <path id="Path_14800" data-name="Path 14800" d="M1716.531,4230.275h44.52v-.682h-43.488v-32.036h43.488v-.682h-44.52Z" transform="translate(-1623.405 -4191.919)" fill="#ebebeb"/>
                    <path id="Path_14801" data-name="Path 14801" d="M1522.557,4196.875h-78.723v33.4h78.723Zm-1.031,32.718h-76.661v-32.035h76.661Z" transform="translate(-1436.615 -4191.919)" fill="#ebebeb"/>
                    <path id="Path_14802" data-name="Path 14802" d="M1558.563,4330.109H1421.949V4182h84.911v-.179h7.183V4182h44.52v-.683h-43.488v-.179h-9.246v.179h-84.911v149.471h137.646Z" transform="translate(-1420.917 -4181.142)" fill="#ebebeb"/>
                    <path id="Path_14803" data-name="Path 14803" d="M1443.834,4568.394h78.723v-33.4h-78.723Zm1.031-32.718h76.661v32.035h-76.661Z" transform="translate(-1436.615 -4423.521)" fill="#ebebeb"/>
                    <path id="Path_14804" data-name="Path 14804" d="M1522.557,4318.654h-78.723v63.189h78.723Zm-1.031,62.507h-76.661v-61.824h76.661Z" transform="translate(-1436.615 -4275.334)" fill="#ebebeb"/>
                  </g>
                </g>
                <g id="Group_11065" data-name="Group 11065" transform="translate(0 215.007)">
                  <path id="Path_14805" data-name="Path 14805" d="M570.345,4706.276H31.677v83.733h-.644v33.825H570.34V4709.844h.005Z" transform="translate(-31.033 -4705.986)" fill="#f9f9f9"/>
                  <rect id="Rectangle_3452" data-name="Rectangle 3452" width="537.427" height="0.489" transform="translate(2.056 117.174)" fill="#f9f9f9"/>
                  <rect id="Rectangle_3453" data-name="Rectangle 3453" width="538.63" height="0.489" transform="translate(0.688)" fill="#f9f9f9"/>
                </g>
                <g id="Group_11066" data-name="Group 11066" transform="translate(30.777 4.303)">
                  <path id="Path_14806" data-name="Path 14806" d="M1129.293,4109.521v-73.014h-1.943v73.014c-6.059.372-10.824,4.171-10.824,8.813,0,4.888,5.281,8.85,11.8,8.85s11.8-3.962,11.8-8.85C1140.117,4113.692,1135.352,4109.892,1129.293,4109.521Z" transform="translate(-805.345 -4036.507)" fill="#ffb2b0"/>
                  <path id="Path_14807" data-name="Path 14807" d="M141.5,4127.827v-73.014h-1.943v73.014c-6.059.372-10.823,4.171-10.823,8.813,0,4.888,5.281,8.85,11.8,8.85s11.8-3.962,11.8-8.85C152.319,4132,147.555,4128.2,141.5,4127.827Z" transform="translate(-128.729 -4049.046)" fill="#ffb2b0"/>
                  <path id="Path_14808" data-name="Path 14808" d="M489.445,4126.305v-53.083h-1.413v53.083c-4.4.27-7.869,3.033-7.869,6.407,0,3.554,3.84,6.435,8.576,6.435s8.576-2.881,8.576-6.435C497.314,4129.338,493.85,4126.575,489.445,4126.305Z" transform="translate(-369.452 -4061.656)" fill="#ffb2b0"/>
                  <path id="Path_14809" data-name="Path 14809" d="M1433.239,4126.305v-53.083h-1.413v53.083c-4.4.27-7.869,3.033-7.869,6.407,0,3.554,3.84,6.435,8.576,6.435s8.575-2.881,8.575-6.435C1441.108,4129.338,1437.644,4126.575,1433.239,4126.305Z" transform="translate(-1015.927 -4061.656)" fill="#ffb2b0"/>
                </g>
              </g>
            </g>
          </g>
        </g>
      </g>
      <g id="Group_11108" data-name="Group 11108" transform="translate(42.819 118.706)">
        <g id="Group_11080" data-name="Group 11080" transform="translate(0 18.392)">
          <g id="Group_11072" data-name="Group 11072">
            <rect id="Rectangle_3454" data-name="Rectangle 3454" width="40.355" height="1.442" transform="translate(0.368 0.307)" fill="#ebebeb"/>
            <path id="Path_14810" data-name="Path 14810" d="M208.046,4460.1H166.955v-2.055h41.091Zm-40.355-.613h39.62v-.828h-39.62Z" transform="translate(-166.955 -4458.044)" fill="#ebebeb"/>
          </g>
          <g id="Group_11073" data-name="Group 11073" transform="translate(0 21.744)">
            <rect id="Rectangle_3455" data-name="Rectangle 3455" width="40.355" height="1.442" transform="translate(0.368 0.306)" fill="#ebebeb"/>
            <path id="Path_14811" data-name="Path 14811" d="M208.046,4529.121H166.955v-2.055h41.091Zm-40.355-.613h39.62v-.829h-39.62Z" transform="translate(-166.955 -4527.066)" fill="#ebebeb"/>
          </g>
          <g id="Group_11074" data-name="Group 11074" transform="translate(0 43.487)">
            <rect id="Rectangle_3456" data-name="Rectangle 3456" width="40.355" height="1.442" transform="translate(0.368 0.307)" fill="#ebebeb"/>
            <path id="Path_14812" data-name="Path 14812" d="M208.046,4598.141H166.955v-2.055h41.091Zm-40.355-.613h39.62v-.828h-39.62Z" transform="translate(-166.955 -4596.086)" fill="#ebebeb"/>
          </g>
          <g id="Group_11079" data-name="Group 11079" transform="translate(0 0.481)">
            <g id="Group_11075" data-name="Group 11075" transform="translate(0 65.23)">
              <rect id="Rectangle_3457" data-name="Rectangle 3457" width="40.355" height="1.442" transform="translate(0.368 0.307)" fill="#ebebeb"/>
              <path id="Path_14813" data-name="Path 14813" d="M208.046,4668.687H166.955v-2.055h41.091Zm-40.355-.613h39.62v-.828h-39.62Z" transform="translate(-166.955 -4666.632)" fill="#ebebeb"/>
            </g>
            <g id="Group_11076" data-name="Group 11076" transform="translate(0 86.04)">
              <rect id="Rectangle_3458" data-name="Rectangle 3458" width="40.355" height="1.441" transform="translate(0.368 0.306)" fill="#ebebeb"/>
              <path id="Path_14814" data-name="Path 14814" d="M208.046,4734.747H166.955v-2.055h41.091Zm-40.355-.613h39.62v-.829h-39.62Z" transform="translate(-166.955 -4732.692)" fill="#ebebeb"/>
            </g>
            <g id="Group_11077" data-name="Group 11077">
              <rect id="Rectangle_3459" data-name="Rectangle 3459" width="2.162" height="104.597" transform="translate(0.368 0.307)" fill="#ebebeb"/>
              <path id="Path_14815" data-name="Path 14815" d="M169.852,4564.78h-2.9V4459.57h2.9Zm-2.162-.613h1.426V4460.183h-1.426Z" transform="translate(-166.955 -4459.57)" fill="#ebebeb"/>
            </g>
            <g id="Group_11078" data-name="Group 11078" transform="translate(38.193)">
              <rect id="Rectangle_3460" data-name="Rectangle 3460" width="2.162" height="104.597" transform="translate(0.368 0.307)" fill="#ebebeb"/>
              <path id="Path_14816" data-name="Path 14816" d="M291.091,4564.78h-2.9V4459.57h2.9Zm-2.162-.613h1.426V4460.183h-1.426Z" transform="translate(-288.194 -4459.57)" fill="#ebebeb"/>
            </g>
          </g>
        </g>
        <g id="Group_11091" data-name="Group 11091" transform="translate(7.234 23.518)">
          <g id="Group_11082" data-name="Group 11082">
            <g id="Group_11081" data-name="Group 11081">
              <rect id="Rectangle_3461" data-name="Rectangle 3461" width="4.228" height="16.618" transform="translate(0.368 0.307)" fill="#ebebeb"/>
              <path id="Path_14817" data-name="Path 14817" d="M194.88,4491.545h-4.963v-17.231h4.963Zm-4.228-.613h3.492v-16h-3.492Z" transform="translate(-189.917 -4474.314)" fill="#ebebeb"/>
            </g>
            <path id="Path_14818" data-name="Path 14818" d="M196.158,4484.838a1.416,1.416,0,1,1-1.393-1.161A1.293,1.293,0,0,1,196.158,4484.838Z" transform="translate(-192.284 -4480.727)" fill="#ebebeb"/>
          </g>
          <g id="Group_11084" data-name="Group 11084" transform="translate(4.969)">
            <g id="Group_11083" data-name="Group 11083">
              <rect id="Rectangle_3462" data-name="Rectangle 3462" width="4.228" height="16.618" transform="translate(0.368 0.307)" fill="#ebebeb"/>
              <path id="Path_14819" data-name="Path 14819" d="M210.653,4491.545H205.69v-17.231h4.963Zm-4.228-.613h3.492v-16h-3.492Z" transform="translate(-205.69 -4474.314)" fill="#ebebeb"/>
            </g>
            <path id="Path_14820" data-name="Path 14820" d="M211.932,4484.838a1.416,1.416,0,1,1-1.393-1.161A1.293,1.293,0,0,1,211.932,4484.838Z" transform="translate(-208.057 -4480.727)" fill="#ebebeb"/>
          </g>
          <g id="Group_11086" data-name="Group 11086" transform="translate(9.938)">
            <g id="Group_11085" data-name="Group 11085">
              <rect id="Rectangle_3463" data-name="Rectangle 3463" width="4.228" height="16.618" transform="translate(0.368 0.307)" fill="#ebebeb"/>
              <path id="Path_14821" data-name="Path 14821" d="M226.428,4491.545h-4.963v-17.231h4.963Zm-4.228-.613h3.492v-16H222.2Z" transform="translate(-221.465 -4474.314)" fill="#ebebeb"/>
            </g>
            <path id="Path_14822" data-name="Path 14822" d="M227.706,4484.838a1.416,1.416,0,1,1-1.393-1.161A1.293,1.293,0,0,1,227.706,4484.838Z" transform="translate(-223.832 -4480.727)" fill="#ebebeb"/>
          </g>
          <g id="Group_11088" data-name="Group 11088" transform="translate(14.907)">
            <g id="Group_11087" data-name="Group 11087">
              <rect id="Rectangle_3464" data-name="Rectangle 3464" width="4.228" height="16.618" transform="translate(0.368 0.307)" fill="#ebebeb"/>
              <path id="Path_14823" data-name="Path 14823" d="M242.2,4491.545h-4.964v-17.231H242.2Zm-4.228-.613h3.492v-16h-3.492Z" transform="translate(-237.238 -4474.314)" fill="#ebebeb"/>
            </g>
            <path id="Path_14824" data-name="Path 14824" d="M243.48,4484.838a1.416,1.416,0,1,1-1.393-1.161A1.293,1.293,0,0,1,243.48,4484.838Z" transform="translate(-239.605 -4480.727)" fill="#ebebeb"/>
          </g>
          <g id="Group_11090" data-name="Group 11090" transform="translate(19.877)">
            <g id="Group_11089" data-name="Group 11089">
              <rect id="Rectangle_3465" data-name="Rectangle 3465" width="4.228" height="16.618" transform="translate(0.368 0.307)" fill="#ebebeb"/>
              <path id="Path_14825" data-name="Path 14825" d="M257.976,4491.545h-4.963v-17.231h4.963Zm-4.228-.613h3.492v-16h-3.492Z" transform="translate(-253.013 -4474.314)" fill="#ebebeb"/>
            </g>
            <path id="Path_14826" data-name="Path 14826" d="M259.254,4484.838a1.416,1.416,0,1,1-1.393-1.161A1.293,1.293,0,0,1,259.254,4484.838Z" transform="translate(-255.38 -4480.727)" fill="#ebebeb"/>
          </g>
        </g>
        <path id="Path_14827" data-name="Path 14827" d="M190.763,4627.468a6.888,6.888,0,0,1,.658-3.053h-5.068a6.888,6.888,0,0,1,.658,3.053c0,1.848-2.221,5.258-2.221,7.533s2.354,3.02,4.1,3.02,4.1-.747,4.1-3.02S190.763,4629.316,190.763,4627.468Z" transform="translate(-179.172 -4553.612)" fill="#ebebeb"/>
        <g id="Group_11093" data-name="Group 11093" transform="translate(21.509 47.274)">
          <g id="Group_11092" data-name="Group 11092" transform="translate(0.628)">
            <path id="Path_14828" data-name="Path 14828" d="M254.444,4557.979c1.367-2.673-1.672-2.624-1.44-3.325.435-1.317,2.072.114,2.737-.549s-1.639-2.73-.433-3.446.784,1.707,1.826,1.535.422-2.732,1.651-2.446c.925.215-.174,1.815-.072,2.563s2.008-.342,2.04.725-2.273.6-2.544,1.411,2.48.979,1.515,1.666-2.784-.136-3.262.578S253.864,4559.114,254.444,4557.979Z" transform="translate(-248.025 -4549.725)" fill="#ebebeb"/>
            <path id="Path_14829" data-name="Path 14829" d="M242.8,4564.892c-1.284-2.7-3.4-.885-3.83-1.52-.8-1.19,1.569-1.134,1.482-1.995s-3.469-.979-3.216-2.2,2,.754,2.593.021-2.006-2.189-.89-2.707c.838-.389,1.408,1.392,2.111,1.864s1.139-1.42,2.062-.681-1.11,1.759-.618,2.5,2.589-.758,2.482.295-2.093,1.536-1.831,2.324S243.349,4566.039,242.8,4564.892Z" transform="translate(-237.225 -4554.324)" fill="#ebebeb"/>
          </g>
          <path id="Path_14830" data-name="Path 14830" d="M244.708,4571.383h-7.014s-2.462,1.762-2.462,3.844,1.534,4.245,5.969,4.245,5.969-2.163,5.969-4.245S244.708,4571.383,244.708,4571.383Z" transform="translate(-235.232 -4564.56)" fill="#ebebeb"/>
        </g>
        <g id="Group_11094" data-name="Group 11094" transform="translate(23.23 74.919)">
          <rect id="Rectangle_3466" data-name="Rectangle 3466" width="6.474" height="7.328" transform="translate(2.003 2.162)" fill="#ebebeb"/>
          <ellipse id="Ellipse_566" data-name="Ellipse 566" cx="5.109" cy="2.162" rx="5.109" ry="2.162" fill="#ebebeb"/>
        </g>
        <g id="Group_11095" data-name="Group 11095" transform="translate(18.721 11.663)">
          <rect id="Rectangle_3467" data-name="Rectangle 3467" width="4.8" height="5.433" transform="translate(1.485 1.603)" fill="#ebebeb"/>
          <path id="Path_14831" data-name="Path 14831" d="M233.958,4438.285c0,.886-1.7,1.6-3.788,1.6s-3.788-.718-3.788-1.6,1.7-1.6,3.788-1.6S233.958,4437.4,233.958,4438.285Z" transform="translate(-226.382 -4436.682)" fill="#ebebeb"/>
        </g>
        <g id="Group_11097" data-name="Group 11097" transform="translate(2.674)">
          <g id="Group_11096" data-name="Group 11096">
            <path id="Path_14832" data-name="Path 14832" d="M201.866,4417.749s-1.66-4.805,5.69-10.211c0,0-6.294,5.766-4.228,10.211Z" transform="translate(-193.432 -4405.057)" fill="#ebebeb"/>
            <path id="Path_14833" data-name="Path 14833" d="M199.1,4413.444s-3.807-5.353,3.011-13.783c0,0-5.41,8.588-1.25,13.4Z" transform="translate(-190.923 -4399.661)" fill="#ebebeb"/>
            <path id="Path_14834" data-name="Path 14834" d="M184.972,4417.749s1.66-4.805-5.69-10.211c0,0,6.293,5.766,4.228,10.211Z" transform="translate(-178.072 -4405.057)" fill="#ebebeb"/>
            <path id="Path_14835" data-name="Path 14835" d="M192.572,4415.033s3.059-4.3-2.422-11.076c0,0,4.349,6.9,1.007,10.77Z" transform="translate(-185.517 -4402.604)" fill="#ebebeb"/>
            <path id="Path_14836" data-name="Path 14836" d="M201.121,4424.925s-1.435-4.855,6.162-10.019c0,0-6.558,5.558-4.7,10.066Z" transform="translate(-192.958 -4410.104)" fill="#ebebeb"/>
            <path id="Path_14837" data-name="Path 14837" d="M181.6,4423.055s1.435-4.855-6.162-10.019c0,0,6.558,5.558,4.7,10.066Z" transform="translate(-175.442 -4408.823)" fill="#ebebeb"/>
          </g>
          <path id="Path_14838" data-name="Path 14838" d="M186.989,4434.612H182.02l2.28,7.688h5.378l2.28-7.688Z" transform="translate(-179.948 -4423.602)" fill="#ebebeb"/>
        </g>
        <g id="Group_11107" data-name="Group 11107" transform="translate(3.856 56.178)">
          <g id="Group_11102" data-name="Group 11102">
            <g id="Group_11098" data-name="Group 11098" transform="translate(0.368 4.068)">
              <rect id="Rectangle_3468" data-name="Rectangle 3468" width="2.03" height="15.21" transform="translate(0 2.03) rotate(-90)" fill="#ebebeb"/>
            </g>
            <g id="Group_11100" data-name="Group 11100" transform="translate(0 1.724)">
              <g id="Group_11099" data-name="Group 11099">
                <rect id="Rectangle_3469" data-name="Rectangle 3469" width="2.03" height="15.21" transform="translate(0.368 2.336) rotate(-90)" fill="#ebebeb"/>
                <path id="Path_14839" data-name="Path 14839" d="M195.142,4586.1H179.2v-2.643h15.946Zm-15.21-.612h14.475v-1.417H179.931Z" transform="translate(-179.196 -4583.462)" fill="#ebebeb"/>
              </g>
            </g>
            <g id="Group_11101" data-name="Group 11101" transform="translate(0.368)">
              <rect id="Rectangle_3470" data-name="Rectangle 3470" width="2.03" height="15.21" transform="translate(0 2.03) rotate(-90)" fill="#ebebeb"/>
            </g>
          </g>
          <g id="Group_11103" data-name="Group 11103" transform="translate(9.326 0)">
            <rect id="Rectangle_3471" data-name="Rectangle 3471" width="0.109" height="2.03" fill="#ebebeb"/>
          </g>
          <g id="Group_11104" data-name="Group 11104" transform="translate(10.551 0)">
            <rect id="Rectangle_3472" data-name="Rectangle 3472" width="0.109" height="2.03" fill="#ebebeb"/>
          </g>
          <g id="Group_11105" data-name="Group 11105" transform="translate(11.776 0)">
            <rect id="Rectangle_3473" data-name="Rectangle 3473" width="0.109" height="2.03" fill="#ebebeb"/>
          </g>
          <g id="Group_11106" data-name="Group 11106" transform="translate(13.001 0)">
            <rect id="Rectangle_3474" data-name="Rectangle 3474" width="0.109" height="2.03" fill="#ebebeb"/>
          </g>
          <rect id="Rectangle_3475" data-name="Rectangle 3475" width="7.158" height="0.335" transform="translate(7.675 4.414)" fill="#ebebeb"/>
          <rect id="Rectangle_3476" data-name="Rectangle 3476" width="7.158" height="0.334" transform="translate(7.675 4.915)" fill="#ebebeb"/>
          <rect id="Rectangle_3477" data-name="Rectangle 3477" width="7.158" height="0.334" transform="translate(7.675 5.417)" fill="#ebebeb"/>
        </g>
      </g>
      <g id="Group_11119" data-name="Group 11119" transform="translate(323.258 160.367)">
        <g id="Group_11112" data-name="Group 11112">
          <g id="Group_11110" data-name="Group 11110" transform="translate(0.375 34.125)">
            <path id="Path_14840" data-name="Path 14840" d="M1174.5,4696.413l-1.305-.01,4.125-35.144.6-4.387,22.35,3.687-1.373,39.47-1.668-.136-.811-34.963-15.943-2.563Z" transform="translate(-1173.192 -4651.632)" fill="#cfd0d8"/>
            <g id="Group_11109" data-name="Group 11109" transform="translate(3.949)">
              <path id="Path_14841" data-name="Path 14841" d="M1228.792,4643.749l-13.775-.966L1186,4645.345l-.091,4.4a2.114,2.114,0,0,0,1.76,2.587s18.071,3.9,20.243,3.22l22.006-6.581Z" transform="translate(-1185.805 -4641.98)" fill="#cfd0d8"/>
              <path id="Path_14842" data-name="Path 14842" d="M1209.849,4647.335c-3.082.685-3.1.033-5.739-.241l-14.659-2.444c-5.536-.588-3.956-.8-1.308-1.863l2.191-.476c2.193-.867,13.044-2.332,15.945-2.037l21.045.621c3.1.309,1.479,1.387,1.045,1.474Z" transform="translate(-1185.728 -4640.235)" fill="#cfd0d8"/>
            </g>
            <path id="Path_14843" data-name="Path 14843" d="M1314.616,4658.524l3.459,36.948-1.019-.134-5.5-34.38Z" transform="translate(-1267.966 -4652.763)" fill="#cfd0d8"/>
          </g>
          <g id="Group_11111" data-name="Group 11111">
            <path id="Path_14844" data-name="Path 14844" d="M1199.9,4568.978c.038,2.016-1.889,3.309-5.322,3.035l-15.559-2.456c-3.935-.513-3.37-.881-3.827-2.95l-3.058-29.341c-.708-3.18,1.369-5.734,5.905-5.308l14.158,1.256c4.481.415,4.991,2.742,5.034,5.835Z" transform="translate(-1172.002 -4531.911)" fill="#cfd0d8"/>
            <path id="Path_14845" data-name="Path 14845" d="M1243.093,4539.191a4.253,4.253,0,0,1,3.984,3.635c.232,2.313,4.448,30.56,3.293,32.406s-3.937,2.133-3.811,1.329c1.151-7.509-2.193-33.269-3-34.773A3.577,3.577,0,0,1,1243.093,4539.191Z" transform="translate(-1220.647 -4536.895)" fill="#cfd0d8"/>
          </g>
        </g>
        <g id="Group_11114" data-name="Group 11114" transform="translate(130.113 3.295)">
          <g id="Group_11113" data-name="Group 11113">
            <path id="Path_14846" data-name="Path 14846" d="M1586.9,4692.633h-1.01l2.861-33.355,2.147.122,23.62.284v6.058h-.061l3.339,27.067h-1.01l-5.8-27.067h-18.723Z" transform="translate(-1585.621 -4622.449)" fill="#cfd0d8"/>
            <path id="Path_14847" data-name="Path 14847" d="M1662.3,4545.593c.968-4.118,6.487-3.3,11.34-2.817,3.49.342,4.338,1.762,4.16,5.271l-4.165,30.452a5.23,5.23,0,0,1-6.342,5.14c-3.321-.675-10.141-2.906-9.88-6.4Z" transform="translate(-1634.605 -4542.37)" fill="#cfd0d8"/>
            <path id="Path_14848" data-name="Path 14848" d="M1597.274,4706.652h-.83l3.159-30.754-5.266-4.757,15.46-.1,18.2-.192-.07,5.053,3.63,30.939h-.672l-6.307-30.939H1603.1Z" transform="translate(-1591.405 -4630.372)" fill="#cfd0d8"/>
            <path id="Path_14849" data-name="Path 14849" d="M1585.312,4656.952a1.244,1.244,0,0,1,.956-2.033l18.8-.076a15.934,15.934,0,0,1,5,.936l10.571,3.516.078.029c1.268.506,1.149.933-.282.933l-31.888-.076a1.245,1.245,0,0,1-.958-.455Z" transform="translate(-1585.027 -4619.411)" fill="#cfd0d8"/>
          </g>
        </g>
        <g id="Group_11115" data-name="Group 11115" transform="translate(26.142 11.647)">
          <rect id="Rectangle_3478" data-name="Rectangle 3478" width="5.172" height="53.749" transform="translate(14.57 19.13)" fill="#ebebeb"/>
          <rect id="Rectangle_3479" data-name="Rectangle 3479" width="5.174" height="53.749" transform="translate(108.805 19.561)" fill="#ebebeb"/>
          <path id="Path_14850" data-name="Path 14850" d="M1381.154,4585.695v2.425h-125.8v-2.425l20.447-16.812h83.4Z" transform="translate(-1255.24 -4568.882)" fill="#ebebeb"/>
          <rect id="Rectangle_3480" data-name="Rectangle 3480" width="125.913" height="4.776" transform="translate(0 16.812)" fill="#ebebeb"/>
        </g>
        <g id="Group_11118" data-name="Group 11118" transform="translate(51.768 14.037)">
          <path id="Path_14851" data-name="Path 14851" d="M1364.3,4598.01l25.987-.019,3.408-4.577-23.344-.049Z" transform="translate(-1355.487 -4588.042)" fill="#cfd0d8"/>
          <g id="Group_11117" data-name="Group 11117">
            <path id="Path_14852" data-name="Path 14852" d="M1443.939,4739.859h-1.263l-6.145-38.633h3.274Z" transform="translate(-1404.966 -4661.925)" fill="#cfd0d8"/>
            <path id="Path_14853" data-name="Path 14853" d="M1339.16,4736.966h1.263l6.145-38.633h-3.274Z" transform="translate(-1338.27 -4659.943)" fill="#cfd0d8"/>
            <g id="Group_11116" data-name="Group 11116" transform="translate(9.693 34.985)">
              <path id="Path_14854" data-name="Path 14854" d="M1367.1,4732.354h.691l5.146-31.127h-2.983Z" transform="translate(-1367.102 -4696.91)" fill="#cfd0d8"/>
              <path id="Path_14855" data-name="Path 14855" d="M1465.765,4722.33h.7l-3.82-34.806-2.6,3.684Z" transform="translate(-1430.767 -4687.524)" fill="#cfd0d8"/>
            </g>
            <path id="Path_14856" data-name="Path 14856" d="M1351.923,4678.5a16.275,16.275,0,0,1,2.55-2.125c.393-.265,4.467-4.039,4.467-4.039l27.185,1.6a12.63,12.63,0,0,1,1.676.476c.574.206.867,1.795.8,3.107-.08,1.437-2.51,4.066-4.783,5.5-3.17,2-12.069,1.631-13.339,1.631h-1.68c-1.268,0-14.232.314-17.406-1.685C1350.234,4682.239,1350.908,4679.474,1351.923,4678.5Z" transform="translate(-1346.231 -4642.138)" fill="#cfd0d8"/>
            <path id="Path_14857" data-name="Path 14857" d="M1410.457,4578.7c1.755.53,5.971,1.589,6.32,5.826s2.836,28.952,2.135,30.588a2.626,2.626,0,0,1-4.211,1.055c-.886-1.059-6-35.708-5.472-36.233Z" transform="translate(-1386.238 -4577.995)" fill="#cfd0d8"/>
            <path id="Path_14858" data-name="Path 14858" d="M1367.464,4612.86c0,2.259-2.428,4.008-5.435,3.939l-16.522-.4c-2.979-.075-5.526-1.936-5.7-4.186l-3.464-30.96c-.208-2.681,2.3-4.842,5.606-4.788l17.213.543c3.335.059,6.039,2.309,6.039,5.009Z" transform="translate(-1336.333 -4576.469)" fill="#cfd0d8"/>
          </g>
        </g>
      </g>
    </g>
    <g id="Group_11121" data-name="Group 11121" transform="translate(31.704 4021.436)">
      <rect id="Rectangle_3481" data-name="Rectangle 3481" width="60.211" height="35.521" transform="translate(60.211 35.521) rotate(-180)" fill="#ebebeb"/>
    </g>
    <text id="_3" data-name="3" transform="translate(43.014 4050.79)" fill="#2d356b" font-size="33" font-family="TrebuchetMS-Bold, Trebuchet MS" font-weight="700"><tspan x="0" y="0">3</tspan></text>
    <g id="Group_11123" data-name="Group 11123" transform="translate(64.506 4022.56)">
      <g id="Group_11122" data-name="Group 11122" transform="translate(0)">
        <path id="Path_14859" data-name="Path 14859" d="M449.886,4181.888c11.474,18.009,2.337,37.388-22.356,44.891-26.229,7.97-60.3-.413-77.122-18.731-13.223,9.995-33.388,17.683-56.516,20.379-42.634,4.969-79.18-8.9-81.628-30.987a23.414,23.414,0,0,1,2.5-13.018c-36.05,8.344-57.246-.869-66.245-25.826-6.64-18.416,12.275-50.718,64.307-56.782,6.634-.773,13.136-1.271,19.437-1.512-.139-.61-2-4.076.691-10.1,11.705-26.207,53-30.232,96.1-24.7,36.3,4.658,54.433,21.6,62.85,36.93,0,0,103.138-29.033,121.707,31.538C513.616,4133.966,534.3,4187.369,449.886,4181.888Z" transform="translate(-147.243 -4063.338)" fill="#fff" stroke="#ebebeb" stroke-miterlimit="10" stroke-width="1"/>
        <ellipse id="Ellipse_567" data-name="Ellipse 567" cx="11.589" cy="10.705" rx="11.589" ry="10.705" transform="matrix(0.579, -0.815, 0.815, 0.579, 26.25, 144.316)" fill="#fff" stroke="#ebebeb" stroke-miterlimit="10" stroke-width="1"/>
        <ellipse id="Ellipse_568" data-name="Ellipse 568" cx="6.867" cy="6.343" rx="6.867" ry="6.343" transform="matrix(0.579, -0.815, 0.815, 0.579, 34.152, 158.584)" fill="#fff" stroke="#ebebeb" stroke-miterlimit="10" stroke-width="1"/>
        <ellipse id="Ellipse_569" data-name="Ellipse 569" cx="5.874" cy="5.426" rx="5.874" ry="5.426" transform="matrix(0.579, -0.815, 0.815, 0.579, 43.639, 171.898)" fill="#fff" stroke="#ebebeb" stroke-miterlimit="10" stroke-width="1"/>
      </g>
    </g>
    <g id="Group_11134" data-name="Group 11134" transform="translate(83.652 4191.73)">
      <path id="Path_14860" data-name="Path 14860" d="M212.166,4796.276,247,4799.7a6.6,6.6,0,0,0,7.242-6.565v-63.626a6.6,6.6,0,0,0-7.187-6.57l-42.446,3.815c-.133.012-.267.017-.4.021a6.3,6.3,0,0,0-6.069,7.322l8.147,56.556A6.6,6.6,0,0,0,212.166,4796.276Z" transform="translate(-198.064 -4673.35)" fill="#fff4ba"/>
      <g id="Group_11133" data-name="Group 11133" transform="translate(43.077 0)">
        <g id="Group_11124" data-name="Group 11124" transform="translate(0 36.801)">
          <path id="Path_14861" data-name="Path 14861" d="M464.267,4749.7l-1.563.521-.6,3.914,3.536,1.479Z" transform="translate(-422.004 -4728.502)" fill="#eaeaea"/>
          <path id="Path_14862" data-name="Path 14862" d="M421.011,4688.047l-14.577-5.639-.962,23.618,20.894,6.42Z" transform="translate(-383.21 -4682.409)" fill="#f7c371"/>
          <path id="Path_14863" data-name="Path 14863" d="M465.869,4919.06l-27.826,8.123-2.063,39.524,24.693.92Z" transform="translate(-404.107 -4844.509)" fill="#eaeaea"/>
          <path id="Path_14864" data-name="Path 14864" d="M348.247,4845.374c17.665-.2,34.281,5.139,43.948-2.6,9.37-7.5,5.3-28.951,5.877-46.849.776-23.926-25.4-55.718-46.77-48.967-29.7,9.384-10.9,48.487-7.583,58.777C353.438,4835.884,349.05,4838.708,348.247,4845.374Z" transform="translate(-334.805 -4725.992)" fill="#495bd9"/>
          <path id="Path_14865" data-name="Path 14865" d="M386.246,4883.322c-.127-7.862-7.071-8.106-21.345-35.145-2.768-5.245-5.766-20.832-8.636-33.854-1.071-4.862-9.508,4.336-10.92,16.211-.875,7.366,4.256,17.126,5.525,21.066,9.719,30.149,5.331,32.972,4.528,39.639C365.609,4891.125,376.8,4888.985,386.246,4883.322Z" transform="translate(-341.956 -4771.858)" fill="#9ea9fc"/>
          <path id="Path_14866" data-name="Path 14866" d="M426.378,4818.609c-1.725-30.9-25.653-61.2-47.07-69.727-3.6-1.433-.387-4.115,9.864-3.219C398.342,4746.5,435.217,4764.628,426.378,4818.609Z" transform="translate(-364.314 -4725.614)" fill="#9ea9fc"/>
          <path id="Path_14867" data-name="Path 14867" d="M449.843,4798.777c-3.628-25.962-13.4-39.561-36.133-52.724,8.943.818,44.507,12.764,38.072,63.413C451.619,4810.756,450.47,4803.265,449.843,4798.777Z" transform="translate(-388.853 -4726.003)" fill="#eaeaea"/>
          <path id="Path_14868" data-name="Path 14868" d="M514.538,5025.932c.141-1.086-.352-2.048-1.1-2.145s-1.474.7-1.615,1.791.352,2.047,1.1,2.145S514.4,5027.019,514.538,5025.932Z" transform="translate(-456.038 -4916.238)" fill="#7b87ab"/>
          <path id="Path_14869" data-name="Path 14869" d="M519.867,4985.04c.141-1.086-.353-2.047-1.1-2.145s-1.474.7-1.615,1.791.351,2.048,1.1,2.145S519.725,4986.126,519.867,4985.04Z" transform="translate(-459.688 -4888.229)" fill="#7b87ab"/>
          <path id="Path_14870" data-name="Path 14870" d="M455.709,4755.239l5.318,1.812-1.881-5.773-1.01-.538Z" transform="translate(-417.621 -4729.214)" fill="#ffd9a4"/>
          <path id="Path_14871" data-name="Path 14871" d="M489.782,4826.522l-1.711-10.478s4.569-32.734-19.152-49.028l.284-.828C488.705,4780.213,494.728,4804.467,489.782,4826.522Z" transform="translate(-426.669 -4739.795)" fill="#ffd9a4"/>
          <path id="Path_14872" data-name="Path 14872" d="M417.774,4737.77l-20.905-5.488-2.636,4.2,19.847,7.961Z" transform="translate(-375.511 -4716.57)" fill="#fff"/>
        </g>
        <g id="Group_11125" data-name="Group 11125" transform="translate(0.517 71.786)">
          <path id="Path_14873" data-name="Path 14873" d="M352.812,4860.384c-4.465,3.064-21.7-60.737-14.722-66.357,0,0,15.914-5.734,33.258,19.435C371.347,4813.461,369.123,4849.188,352.812,4860.384Z" transform="translate(-336.446 -4793.464)" fill="#495bd9"/>
          <path id="Path_14874" data-name="Path 14874" d="M389.561,4893.694c19.573-8.039,18.149-42.066,18.149-42.066a12.4,12.4,0,0,0-1.75-2.443C405.52,4875.472,388.747,4894.029,389.561,4893.694Z" transform="translate(-372.809 -4831.632)" fill="#9ea9fc"/>
          <path id="Path_14875" data-name="Path 14875" d="M384.8,4962.193s19.376,5.555,60.14,2.961c0,0,2.523-3.763-.2-11.191,0,0-32.661-13.527-53.546-11.792C391.2,4942.172,380.3,4955.669,384.8,4962.193Z" transform="translate(-368.823 -4895.22)" fill="#495bd9"/>
          <path id="Path_14876" data-name="Path 14876" d="M556.514,4989.088a1.6,1.6,0,1,0-1.551-1.935A1.774,1.774,0,0,0,556.514,4989.088Z" transform="translate(-486.105 -4925.33)" fill="#9ea9fc"/>
        </g>
        <g id="Group_11129" data-name="Group 11129" transform="translate(10.401)">
          <path id="Path_14877" data-name="Path 14877" d="M376.368,4604.7c-9.991-12.4-8.71-32.524-8.2-33.22,5.415-7.437,20.261-6.5,27.718-4.335,6.288,1.827,11.185,5.42,7.955,10.292-1.115,1.683-6.063-2.257-7.6-2.083-2.907.33-5.409,40.188-5.409,40.188Z" transform="translate(-367.821 -4565.589)" fill="#2d356b"/>
          <g id="Group_11127" data-name="Group 11127" transform="translate(9.882 9.306)">
            <g id="Group_11126" data-name="Group 11126" transform="translate(3.02)">
              <path id="Path_14878" data-name="Path 14878" d="M482.777,4692.408l1.533-2.5-2.007-1.283Z" transform="translate(-459.141 -4659.17)" fill="#ffd8a3"/>
              <path id="Path_14879" data-name="Path 14879" d="M410.015,4629.934c1.166,3.4,11.529,10.716,21.875,10.338,1.28-13.443.968-35.653-1.506-39.461-2.435-3.748-12.316-6.556-13.543-5.43,3.584,4.348-2.364,18.7-4.491,20C407.17,4618.557,408.8,4626.392,410.015,4629.934Z" transform="translate(-408.776 -4595.129)" fill="#ffd8a3"/>
              <path id="Path_14880" data-name="Path 14880" d="M486.439,4666.69a95.3,95.3,0,0,1-5-11.393c-1.513-4.252-1.127,11.333-1.127,11.333S484.914,4667.73,486.439,4666.69Z" transform="translate(-457.747 -4635.839)" fill="#ffd8a3"/>
              <path id="Path_14881" data-name="Path 14881" d="M478.2,4731.244c1.047-.435,1.575-1.42,1.178-2.2a2.05,2.05,0,0,0-2.619-.626c-1.049.435-1.576,1.421-1.178,2.2A2.051,2.051,0,0,0,478.2,4731.244Z" transform="translate(-454.443 -4686.288)" fill="#ffd8a3"/>
              <path id="Path_14882" data-name="Path 14882" d="M482.983,4715.482c.038-.271-.265-.538-.677-.6s-.775.117-.813.388.265.538.675.6S482.945,4715.754,482.983,4715.482Z" transform="translate(-458.583 -4677.152)" fill="#ffd8a3"/>
            </g>
            <path id="Path_14883" data-name="Path 14883" d="M405.709,4653.6c-.556-2.454-2.43-4.2-4.188-3.9s-2.73,2.534-2.176,4.987,3.874,3.911,5.631,3.611S406.265,4656.054,405.709,4653.6Z" transform="translate(-399.19 -4632.486)" fill="#ffd8a3"/>
          </g>
          <path id="Path_14884" data-name="Path 14884" d="M477.5,4697.265l-.407,5.484s-1.53-.173-1.856-.861a19.243,19.243,0,0,1-1.048-5.529Z" transform="translate(-440.669 -4655.163)" fill="#ffab00"/>
          <path id="Path_14885" data-name="Path 14885" d="M478.4,4698.064l-.364,4.871s-1.13-.112-1.371-.423a13.689,13.689,0,0,1-1.006-5.232Z" transform="translate(-441.672 -4655.793)" fill="#fff"/>
          <path id="Path_14886" data-name="Path 14886" d="M469.018,4642.88a1.332,1.332,0,0,0-.331-.883c-.547-.584-5.21.8-5.161,1.772l.032.609c.035.7,1.428-.028,2.819-.205,1.331-.17,2.666.239,2.655-.42Z" transform="translate(-433.376 -4617.832)" fill="#2d356b"/>
          <path id="Path_14887" data-name="Path 14887" d="M471.005,4658.55c.034-.813-.383-1.533-.933-1.61s-1.025.519-1.061,1.332.382,1.533.932,1.609S470.968,4659.362,471.005,4658.55Z" transform="translate(-437.132 -4628.158)" fill="#2d356b"/>
          <path id="Path_14888" data-name="Path 14888" d="M473.513,4695.853c.026-.188-.06-.356-.193-.375s-.261.12-.287.308.06.355.192.374S473.486,4696.041,473.513,4695.853Z" transform="translate(-439.885 -4654.559)" fill="#ffab00"/>
          <g id="Group_11128" data-name="Group 11128" transform="translate(14.629 2.415)">
            <path id="Path_14889" data-name="Path 14889" d="M421.1,4602.333c4.471.421-3,20.524-.763,22.032s-.042,3.115-1.226,2.634c-2.713-1.1-3.06-6.84-3.164-10.49C415.829,4612.444,420.72,4602.3,421.1,4602.333Z" transform="translate(-415.413 -4593.173)" fill="#2d356b"/>
            <path id="Path_14890" data-name="Path 14890" d="M436.578,4581.745c.794-3.214-1.8-6.618-5.785-7.6s-15.7-1.823-16.491,1.389,9.624,9.261,13.614,10.245S435.784,4584.956,436.578,4581.745Z" transform="translate(-414.259 -4573.254)" fill="#2d356b"/>
          </g>
        </g>
        <g id="Group_11132" data-name="Group 11132" transform="translate(46.113 74.085)">
          <g id="Group_11130" data-name="Group 11130">
            <path id="Rectangle_3482" data-name="Rectangle 3482" d="M5.265,0H53.847a5.264,5.264,0,0,1,5.264,5.264V35.683a5.265,5.265,0,0,1-5.265,5.265H5.265A5.265,5.265,0,0,1,0,35.683V5.265A5.265,5.265,0,0,1,5.265,0Z" transform="translate(0.453)" fill="#ebebeb"/>
            <rect id="Rectangle_3483" data-name="Rectangle 3483" width="60.017" height="2.956" transform="translate(0 42.161)" fill="#ebebeb"/>
            <rect id="Rectangle_3484" data-name="Rectangle 3484" width="2.956" height="7.097" transform="translate(8.007 36.569)" fill="#ebebeb"/>
            <rect id="Rectangle_3485" data-name="Rectangle 3485" width="2.956" height="7.097" transform="translate(48.962 36.569)" fill="#ebebeb"/>
          </g>
          <g id="Group_11131" data-name="Group 11131" transform="translate(23.069 12.354)">
            <path id="Path_14891" data-name="Path 14891" d="M586.155,4846.916a6.94,6.94,0,1,1,6.939,6.941A6.947,6.947,0,0,1,586.155,4846.916Zm2.644,0a4.3,4.3,0,1,0,4.3-4.295A4.3,4.3,0,0,0,588.8,4846.916Z" transform="translate(-586.155 -4839.976)" fill="#7b88ac"/>
          </g>
        </g>
      </g>
    </g>
    <g id="Group_11135" data-name="Group 11135" transform="translate(64.717 4275.251)">
      <rect id="Rectangle_3486" data-name="Rectangle 3486" width="62.48" height="32.128" rx="6.672" transform="translate(24 -5.616)" fill="#fff" stroke="#231f20" stroke-miterlimit="10" stroke-width="0.25"/>
      <text id="Steve" transform="translate(42.24 13.948)" fill="#2d356b" font-size="10" font-family="TrebuchetMS-Bold, Trebuchet MS" font-weight="700"><tspan x="0" y="0">Steve</tspan></text>
    </g>
    <g id="Group_11152" data-name="Group 11152" transform="translate(239.739 4200.745)">
      <path id="Path_14892" data-name="Path 14892" d="M1064.016,4789.471l-34.829,3.423a6.6,6.6,0,0,1-7.242-6.565V4722.7a6.6,6.6,0,0,1,7.187-6.57l42.446,3.816c.133.012.268.017.4.021a6.3,6.3,0,0,1,6.068,7.322l-8.147,56.557A6.6,6.6,0,0,1,1064.016,4789.471Z" transform="translate(-937.398 -4677.703)" fill="#fff4ba"/>
      <g id="Group_11148" data-name="Group 11148" transform="translate(48.947)">
        <g id="Group_11138" data-name="Group 11138" transform="translate(0 60.458)">
          <g id="Group_11136" data-name="Group 11136" transform="translate(0 29.61)">
            <path id="Path_14893" data-name="Path 14893" d="M942.313,4902.023c-2.859-1.1-10.081,1.083-10.11-1.589-.027-2.393,3.471-6.277,10.862-.662Z" transform="translate(-924.874 -4891.599)" fill="#f8c471"/>
            <path id="Path_14894" data-name="Path 14894" d="M933.713,4896.74c.315,4.222-4.831,4.587-6.477,4.328-1.81-.286-2.927-3.428-2.2-4.692S933.59,4895.126,933.713,4896.74Z" transform="translate(-919.811 -4890.633)" fill="#f8c471"/>
            <path id="Path_14895" data-name="Path 14895" d="M931.313,4885.247c-1.8-1.729-3.026-4.571-2.206-5.062.922-.557,1.517,2.084,3.51,3.244,2.156,1.259,3.445,2.164,3,3.021S933.113,4886.98,931.313,4885.247Z" transform="translate(-922.575 -4880.108)" fill="#f8c471"/>
            <path id="Path_14896" data-name="Path 14896" d="M915.758,4895.07c-2.11-.345-3.133-1.009-2.978-1.559s1.346-.279,3.455.063,4.875.254,4.72.8S917.868,4895.409,915.758,4895.07Z" transform="translate(-911.559 -4889.074)" fill="#f8c471"/>
            <path id="Path_14897" data-name="Path 14897" d="M913,4903.533c-2.18.088-4.1-.8-4.062-1.361s2.06-.164,4.239-.251,3.6-.03,3.554.53S915.179,4903.444,913,4903.533Z" transform="translate(-908.938 -4895.012)" fill="#f8c471"/>
            <path id="Path_14898" data-name="Path 14898" d="M920.039,4910.621c-2.18,0-3.4-.492-3.339-1.048s1.493-.287,3.67-.287,3.706.029,3.649.588S922.219,4910.62,920.039,4910.621Z" transform="translate(-914.253 -4900.048)" fill="#f8c471"/>
          </g>
          <g id="Group_11137" data-name="Group 11137" transform="translate(16.591)">
            <path id="Path_14899" data-name="Path 14899" d="M981.619,4786.66c5.758-5.6,33.076,33.987,33.458,35.653,0,0-2.828,3.462-4.57,2.445C1006,4822.128,979.049,4789.162,981.619,4786.66Z" transform="translate(-975.195 -4786.118)" fill="#0080af"/>
            <path id="Path_14900" data-name="Path 14900" d="M967.535,4895.834c-.28,6.306,34.344,1.406,35.52.752,0,0,1.781-4.453.276-4.934C999.438,4890.41,967.661,4893.018,967.535,4895.834Z" transform="translate(-965.665 -4858.188)" fill="#0080af"/>
            <path id="Path_14901" data-name="Path 14901" d="M961.62,4898.675l.615-1.829,6.966-2.307s-.4,3.39-.934,4.04S961.62,4898.675,961.62,4898.675Z" transform="translate(-961.615 -4860.383)" fill="#eaeaea"/>
            <path id="Path_14902" data-name="Path 14902" d="M961.6,4907.224l.183,1.933,6.3,3.766s.39-3.424.012-4.178S961.6,4907.224,961.6,4907.224Z" transform="translate(-961.603 -4869.072)" fill="#eaeaea"/>
          </g>
        </g>
        <g id="Group_11144" data-name="Group 11144" transform="translate(9.496)">
          <g id="Group_11143" data-name="Group 11143">
            <g id="Group_11139" data-name="Group 11139" transform="translate(1.281 2.147)">
              <path id="Path_14903" data-name="Path 14903" d="M945.658,4674.623c-7.464-7.03,4.161-8.771,3.554-14.99s-1.943-4.235-3.04-12.258,1-11.039,1.093-15.721-3.149-12.31-.558-18.267,4.249-3.977,6.519-8.721,4.568.363,8.5,2.4,8.218-9.3,15.117-5.1,6.386,12.9,8.51,17.746,8.946,6.713,10.137,15.421-3.691,6.809-1.413,12.8,8.281,5.4,9.472,14.113c0,0,.952,8.74-8.82,8.442s-6.633,4.875-17.29,1.665-6.955,6.086-14.475,2.679S952.325,4680.9,945.658,4674.623Z" transform="translate(-943.149 -4601.019)" fill="#2d356b"/>
            </g>
            <g id="Group_11140" data-name="Group 11140" transform="translate(3.34 29.489)">
              <path id="Path_14904" data-name="Path 14904" d="M992.374,4687.811l-7.535,7.506,2.723,19.352,6.48-4.15Z" transform="translate(-973.764 -4687.811)" fill="#f7c371"/>
              <path id="Path_14905" data-name="Path 14905" d="M985.993,4819.419A61.024,61.024,0,0,1,982.8,4810c-4.666-19.4,6.7-46.01-8.978-51.711-16.648-6.053-24.139,41-24.139,41,10.063,13,10.418,8.321,13.538,25.293" transform="translate(-949.684 -4735.715)" fill="#03b4e9"/>
              <path id="Path_14906" data-name="Path 14906" d="M996.647,4754.616l-2.621.278-8.981,13.319,4.024,2.088S994.959,4760.759,996.647,4754.616Z" transform="translate(-973.905 -4733.571)" fill="#fff"/>
              <path id="Path_14907" data-name="Path 14907" d="M972.19,4772.679c-.064-.026-.122-.054-.186-.08,1.652-6.69,6.151-17.382,12.64-18.229C980.027,4760.84,972.19,4772.679,972.19,4772.679Z" transform="translate(-964.973 -4733.402)" fill="#f7c371"/>
            </g>
            <g id="Group_11142" data-name="Group 11142">
              <g id="Group_11141" data-name="Group 11141">
                <path id="Path_14908" data-name="Path 14908" d="M972.858,4635.223c4.744-1.516,14.342-3.453,18.7-10.892,5.661-9.671,3.882-15.434,1.571-22.439-4.406-13.355-27.194-6.071-25.588-2.149C969.671,4604.951,955.666,4640.717,972.858,4635.223Z" transform="translate(-956.267 -4594.204)" fill="#2d356b"/>
                <path id="Path_14909" data-name="Path 14909" d="M951.539,4649.576c-1.75.073-5.254-8.838-6.475-15.733-.4-2.273,2.048-2.644,1.57-10.437-.28-4.575,1.571-11,9.049-15.865,7.06-4.593,8.187,9.593,8.943,12.85,2.154,9.277,4.785,15.05,2.575,19.673C962.886,4649.094,953.411,4649.047,951.539,4649.576Z" transform="translate(-943.149 -4602.719)" fill="#ffd8a3"/>
                <path id="Path_14910" data-name="Path 14910" d="M963.6,4703.439a.4.4,0,0,0-.382-.423.426.426,0,0,0-.331.479.4.4,0,0,0,.384.422A.423.423,0,0,0,963.6,4703.439Z" transform="translate(-955.39 -4668.737)" fill="#ffab00"/>
                <path id="Path_14911" data-name="Path 14911" d="M960.375,4663.14c.119-1.226-.471-2.274-1.313-2.342s-1.626.871-1.745,2.1.47,2.274,1.314,2.342S960.257,4664.366,960.375,4663.14Z" transform="translate(-951.562 -4639.817)" fill="#2d356b"/>
                <path id="Path_14912" data-name="Path 14912" d="M959.831,4662.888c-.953-1.843-2.409-3.747-5.749-3.047A11.775,11.775,0,0,1,959.831,4662.888Z" transform="translate(-949.357 -4639.062)" fill="#2d356b"/>
                <path id="Path_14913" data-name="Path 14913" d="M954.094,4720.215c-.064-.283-.9.764-1.315.816-1.174.149-.775,1.638.391,1.369C953.625,4722.295,954.16,4720.515,954.094,4720.215Z" transform="translate(-947.98 -4680.485)" fill="#f36973"/>
                <path id="Path_14914" data-name="Path 14914" d="M952.848,4703.857c.784-.35-4.665-1.678-3.614.107C949.606,4704.308,952.446,4704.036,952.848,4703.857Z" transform="translate(-945.943 -4668.763)" fill="#f36973"/>
                <path id="Path_14915" data-name="Path 14915" d="M952.513,4640.938c2.026-.2,6.381-.107,8.148,5.368C958.666,4642.893,956.989,4641.523,952.513,4640.938Z" transform="translate(-948.282 -4626.18)" fill="#2d356b"/>
                <path id="Path_14916" data-name="Path 14916" d="M940.36,4679.584l2.742.716-.189-6.919-3.831,5.09Z" transform="translate(-939.082 -4648.438)" fill="#ffd8a3"/>
                <path id="Path_14917" data-name="Path 14917" d="M944.136,4696.139l-2.282-4.194,2.029-.157Z" transform="translate(-940.98 -4661.046)" fill="#ffd8a3"/>
                <path id="Path_14918" data-name="Path 14918" d="M950.121,4710.7a51.088,51.088,0,0,1-1.585-5.947l4.89-.2S952.669,4709.763,950.121,4710.7Z" transform="translate(-945.558 -4669.786)" fill="#ffab00"/>
                <path id="Path_14919" data-name="Path 14919" d="M952.708,4708.063l-2.785.115c-.193-.747-.374-1.53-.545-2.342l4-.166Z" transform="translate(-946.134 -4670.556)" fill="#fff"/>
                <path id="Path_14920" data-name="Path 14920" d="M1020.447,4671.973c-.2-2.128-.986-3.67.628-3.818s3.09,1.459,3.289,3.59-.954,3.975-2.572,4.124S1020.643,4674.1,1020.447,4671.973Z" transform="translate(-994.563 -4644.853)" fill="#f7c371"/>
              </g>
              <path id="Path_14921" data-name="Path 14921" d="M968.187,4605.954c5.458,7.548,14.927,18.521,13.22,29.668,4.064-11.961,1.382-27.581-6.7-33.723C973.937,4603.114,966.93,4603.048,968.187,4605.954Z" transform="translate(-958.915 -4599.475)" fill="#2d356b"/>
            </g>
          </g>
        </g>
        <g id="Group_11147" data-name="Group 11147" transform="translate(0.774 56.768)">
          <g id="Group_11145" data-name="Group 11145" transform="translate(0 28.234)">
            <path id="Path_14922" data-name="Path 14922" d="M946.9,4894.456c-2.9-2.078-11.672-1.746-10.919-4.764.673-2.7,5.755-6.048,12.428,2.45Z" transform="translate(-928.205 -4879.564)" fill="#ffd9a4"/>
            <path id="Path_14923" data-name="Path 14923" d="M939.607,4885.387c-.887,4.848-6.79,3.746-8.567,2.969-1.954-.855-2.289-4.721-1.1-5.932S939.943,4883.533,939.607,4885.387Z" transform="translate(-923.625 -4876.399)" fill="#ffd9a4"/>
            <path id="Path_14924" data-name="Path 14924" d="M941.194,4870.406c-1.518-2.477-2.063-6.038-1-6.351,1.2-.356,1.1,2.794,3,4.685,2.058,2.053,3.243,3.451,2.5,4.287S942.712,4872.887,941.194,4870.406Z" transform="translate(-930.743 -4864.027)" fill="#ffd9a4"/>
            <path id="Path_14925" data-name="Path 14925" d="M921.1,4876.917c-2.275-1.009-3.232-2.059-2.9-2.632s1.6.082,3.872,1.086,5.416,1.72,5.079,2.293S923.377,4877.918,921.1,4876.917Z" transform="translate(-916.015 -4870.907)" fill="#ffd9a4"/>
            <path id="Path_14926" data-name="Path 14926" d="M915.584,4885.66c-2.481-.541-4.385-2.11-4.174-2.728s2.368.422,4.848.964,4.059,1.025,3.846,1.643S918.064,4886.2,915.584,4885.66Z" transform="translate(-911.394 -4876.847)" fill="#ffd9a4"/>
            <path id="Path_14927" data-name="Path 14927" d="M921.376,4895.738c-2.455-.64-3.68-1.552-3.452-2.163s1.765.116,4.218.757,4.165,1.123,3.936,1.735S923.832,4896.379,921.376,4895.738Z" transform="translate(-915.848 -4884.109)" fill="#ffd9a4"/>
          </g>
          <g id="Group_11146" data-name="Group 11146" transform="translate(17.931)">
            <path id="Path_14928" data-name="Path 14928" d="M1026.621,4774.691c8.133-4.617,27.256,48.007,27.2,50,0,0-4.2,3.067-5.866,1.409C1043.65,4821.809,1022.99,4776.752,1026.621,4774.691Z" transform="translate(-1007.961 -4774.404)" fill="#0080af"/>
            <path id="Path_14929" data-name="Path 14929" d="M976.441,4901.875c-2.17,7.019,38.267,11.685,39.783,11.295,0,0,3.316-4.491,1.763-5.476C1013.967,4905.148,977.41,4898.739,976.441,4901.875Z" transform="translate(-973.823 -4861.139)" fill="#0080af"/>
            <path id="Path_14930" data-name="Path 14930" d="M969.355,4899l1.231-1.879,8.523-.549s-1.444,3.7-2.24,4.276S969.355,4899,969.355,4899Z" transform="translate(-969.027 -4858.085)" fill="#eaeaea"/>
            <path id="Path_14931" data-name="Path 14931" d="M968.677,4903.775l-.363,2.23,5.993,6.1s1.446-3.741,1.242-4.7S968.677,4903.775,968.677,4903.775Z" transform="translate(-968.314 -4863.02)" fill="#eaeaea"/>
          </g>
        </g>
      </g>
      <g id="Group_11151" data-name="Group 11151" transform="translate(10 65.597)">
        <g id="Group_11149" data-name="Group 11149">
          <path id="Rectangle_3487" data-name="Rectangle 3487" d="M5.264,0H53.847a5.264,5.264,0,0,1,5.264,5.264V35.683a5.265,5.265,0,0,1-5.265,5.265H5.265A5.265,5.265,0,0,1,0,35.683V5.264A5.264,5.264,0,0,1,5.264,0Z" transform="translate(0.453)" fill="#ebebeb"/>
          <rect id="Rectangle_3488" data-name="Rectangle 3488" width="60.017" height="2.956" transform="translate(0 42.161)" fill="#ebebeb"/>
          <rect id="Rectangle_3489" data-name="Rectangle 3489" width="2.956" height="7.097" transform="translate(8.007 36.569)" fill="#ebebeb"/>
          <rect id="Rectangle_3490" data-name="Rectangle 3490" width="2.956" height="7.097" transform="translate(48.962 36.569)" fill="#ebebeb"/>
        </g>
        <g id="Group_11150" data-name="Group 11150" transform="translate(23.068 12.354)">
          <path id="Path_14932" data-name="Path 14932" d="M826.791,4848.586a6.94,6.94,0,1,1,6.94,6.941A6.948,6.948,0,0,1,826.791,4848.586Zm2.645,0a4.3,4.3,0,1,0,4.3-4.295A4.3,4.3,0,0,0,829.436,4848.586Z" transform="translate(-826.791 -4841.647)" fill="#7b88ac"/>
        </g>
      </g>
    </g>
    <g id="Group_11153" data-name="Group 11153" transform="translate(75.669 4311.172)">
      <path id="Path_14933" data-name="Path 14933" d="M539.332,4956.235l-320.677-3.405,7.82,39.819H532.022Z" transform="translate(-204.185 -4950.281)" fill="#2d356b"/>
      <path id="Path_14934" data-name="Path 14934" d="M519.006,4944.739H172.722l5.043,9.114,337.877-3.038Z" transform="translate(-172.722 -4944.739)" fill="#7b88ac"/>
    </g>
    <g id="Group_11154" data-name="Group 11154" transform="translate(329.022 4275.251)">
      <rect id="Rectangle_3491" data-name="Rectangle 3491" width="61.397" height="32.128" rx="6.672" transform="translate(-13 -9.564)" fill="#fff" stroke="#231f20" stroke-miterlimit="10" stroke-width="0.25"/>
      <text id="Akiko" transform="translate(4.699 9.999)" fill="#2d356b" font-size="10" font-family="TrebuchetMS-Bold, Trebuchet MS" font-weight="700"><tspan x="0" y="0">Akiko</tspan></text>
    </g>
  </g>
</svg>
