<svg xmlns="http://www.w3.org/2000/svg" width="540.509" height="401.366" viewBox="0 0 540.509 401.366">
  <g id="Group_11324" data-name="Group 11324" transform="translate(-32 -251.663)">
    <g id="Group_1" data-name="Group 1" transform="translate(32 251.663)">
      <rect id="Rectangle_1" data-name="Rectangle 1" width="540" height="317.7" transform="translate(0)" fill="#c3e8e6"/>
      <rect id="Rectangle_2" data-name="Rectangle 2" width="509.796" height="289.371" transform="translate(15.108 14.457)" fill="#fff"/>
    </g>
    <rect id="Rectangle_3352" data-name="Rectangle 3352" width="496.325" height="272.284" transform="translate(52.557 275.651)" fill="#f9f9f9"/>
    <g id="Group_10822" data-name="Group 10822" transform="translate(67.622 463.51)">
      <g id="Group_10812" data-name="Group 10812" transform="translate(5.694 0)">
        <g id="Group_10811" data-name="Group 10811">
          <path id="Path_14412" data-name="Path 14412" d="M222.6,978.2c-2.863-3.938,1.043-5.959.935-9.832s-3.467-2.793-3.791-7.8,2.741-6.212,2.982-9.1-3.674-3.785-1.9-7.349,4.521-3.4,6.052-6.229,5.725-4.251,7.961-2.814,5.191-3.265,9.093-.356,3.249,8.268,4.308,11.361,5.009,4.561,5.361,10-2.452,4.039-1.349,7.847,4.67,3.721,5.022,9.16c0,0,.21,5.446-5.545,4.813s-4.111,2.709-10.271.235-4.349,3.443-8.65.991S225.894,982.73,222.6,978.2Z" transform="translate(-219.72 -933.747)" fill="#2d356b"/>
        </g>
      </g>
      <g id="Group_10814" data-name="Group 10814" transform="translate(28.117 37.121)">
        <g id="Group_10813" data-name="Group 10813" transform="translate(5.614 35.008)">
          <path id="Path_14413" data-name="Path 14413" d="M305.347,1158.384c-.22-.291.261-.739.874-1.161s1.125-.661,1.345-.371-.1.869-.711,1.291S305.567,1158.675,305.347,1158.384Z" transform="translate(-303.92 -1152.222)" fill="#fff4ba"/>
          <path id="Path_14414" data-name="Path 14414" d="M307.88,1160.023c-.22-.291.261-.739.874-1.161s1.124-.662,1.345-.372-.1.868-.711,1.292S308.1,1160.312,307.88,1160.023Z" transform="translate(-305.582 -1153.297)" fill="#fff4ba"/>
          <path id="Path_14415" data-name="Path 14415" d="M301.372,1155.9c.259-.267,1.043.287,1.858,1s1.351,1.3,1.091,1.572-1.129-.092-1.943-.8S301.112,1156.163,301.372,1155.9Z" transform="translate(-301.298 -1151.633)" fill="#fff4ba"/>
          <path id="Path_14416" data-name="Path 14416" d="M306.41,1143.624c-1.273.963-5.51,3.684-4.593,5.136.82,1.3,3.65,1.689,5.8-4.219Z" transform="translate(-301.554 -1143.624)" fill="#fff4ba"/>
        </g>
        <path id="Path_14417" data-name="Path 14417" d="M285.029,1042.207c2.927-3.76,22.1,17.36,22.452,18.31,0,0-1.155,3.429-2.257,2.97C302.373,1062.3,283.722,1043.887,285.029,1042.207Z" transform="translate(-284.964 -1041.759)" fill="#fff4ba"/>
        <path id="Path_14418" data-name="Path 14418" d="M316.469,1111.729c-3.325-1.445,7.855-17.808,8.492-18.246,0,0,2.751.207,2.615,1.1C327.225,1096.9,317.954,1112.375,316.469,1111.729Z" transform="translate(-305.237 -1075.707)" fill="#fff4ba"/>
        <path id="Path_14419" data-name="Path 14419" d="M316.054,1141.379l1.1.321,3.489-2.615a8.908,8.908,0,0,0-2.287-.915C317.857,1138.211,316.054,1141.379,316.054,1141.379Z" transform="translate(-305.369 -1105.035)" fill="#fff4ba"/>
        <path id="Path_14420" data-name="Path 14420" d="M314.564,1137.92l-.881-.745.3-4.353a8.977,8.977,0,0,1,2.042,1.412C316.268,1134.674,314.564,1137.92,314.564,1137.92Z" transform="translate(-303.813 -1101.526)" fill="#fff4ba"/>
      </g>
      <g id="Group_10815" data-name="Group 10815" transform="translate(9.019 26.142)">
        <path id="Path_14421" data-name="Path 14421" d="M229.4,1077.722s5.823,5.158,11.646,7.092l3.033-6.555,2.79,6.555s7.872-2.218,11.04-7.092c-6.415-9.3-8.949-17.062-2.3-26.744,0,0-2.678-17.312-12.383-17.742s-11.435,18.455-11.435,18.455C238.1,1061.147,240.165,1065.254,229.4,1077.722Z" transform="translate(-229.395 -1025.182)" fill="#ffe200"/>
        <path id="Path_14422" data-name="Path 14422" d="M259.071,1041.368a5.879,5.879,0,0,1,3.76,1.356,12.126,12.126,0,0,0,.939-7.8c-5.908-4.443-9.55.461-9.55.461a11.1,11.1,0,0,0,1.309,7.175A5.864,5.864,0,0,1,259.071,1041.368Z" transform="translate(-245.596 -1025.072)" fill="#fff"/>
        <path id="Path_14423" data-name="Path 14423" d="M259.249,1034.661s-.983,4.93,3.485,10.279c0,0,3.8-5.206,2.725-10.66C261.617,1030.609,259.249,1034.661,259.249,1034.661Z" transform="translate(-248.929 -1024.862)" fill="#f7c371"/>
        <rect id="Rectangle_3353" data-name="Rectangle 3353" width="5.068" height="9.501" transform="translate(10.929)" fill="#f7c371"/>
        <path id="Path_14424" data-name="Path 14424" d="M273.911,1100.626a.713.713,0,1,0-.713.713A.713.713,0,0,0,273.911,1100.626Z" transform="translate(-257.677 -1068.948)" fill="#fff"/>
        <path id="Path_14425" data-name="Path 14425" d="M273.911,1116.833a.713.713,0,1,0-.713.713A.712.712,0,0,0,273.911,1116.833Z" transform="translate(-257.677 -1079.585)" fill="#fff"/>
        <path id="Path_14426" data-name="Path 14426" d="M273.911,1149.247a.713.713,0,1,0-.713.713A.713.713,0,0,0,273.911,1149.247Z" transform="translate(-257.677 -1100.86)" fill="#fff"/>
        <path id="Path_14427" data-name="Path 14427" d="M273.911,1133.04a.713.713,0,1,0-.713.713A.713.713,0,0,0,273.911,1133.04Z" transform="translate(-257.677 -1090.222)" fill="#fff"/>
      </g>
      <g id="Group_10817" data-name="Group 10817" transform="translate(0 37.291)">
        <path id="Path_14428" data-name="Path 14428" d="M219.058,1042.454c-3.922-2.707-15.852,23.2-15.906,24.214,0,0,2.132,2.923,3.045,2.153C208.559,1066.831,220.81,1043.662,219.058,1042.454Z" transform="translate(-203.152 -1042.256)" fill="#fff4ba"/>
        <g id="Group_10816" data-name="Group 10816" transform="translate(14.182 35.521)">
          <path id="Path_14429" data-name="Path 14429" d="M244.417,1147c1.867,1.6,3.091,7.52,4.985,6.519,1.7-.9,3.1-4.846-3.686-7.91Z" transform="translate(-244.417 -1145.612)" fill="#fff4ba"/>
          <path id="Path_14430" data-name="Path 14430" d="M253.8,1152.045c-3.1,1.392-1.387,5.158-.575,6.219.894,1.167,3.535.753,4.149-.243S254.989,1151.514,253.8,1152.045Z" transform="translate(-249.408 -1149.811)" fill="#fff4ba"/>
          <path id="Path_14431" data-name="Path 14431" d="M259.984,1156.19c1.907.608,4.379.386,4.412-.38.04-.863-2.049-.272-3.628-1.235-1.712-1.039-2.842-1.6-3.278-.963S258.074,1155.583,259.984,1156.19Z" transform="translate(-252.931 -1150.686)" fill="#fff4ba"/>
          <path id="Path_14432" data-name="Path 14432" d="M265.219,1164.325c1.05,1.356,1.909,1.823,2.237,1.5s-.318-1.055-1.365-2.411-2.042-3.34-2.37-3.02S264.175,1162.968,265.219,1164.325Z" transform="translate(-257.037 -1155.294)" fill="#fff4ba"/>
          <path id="Path_14433" data-name="Path 14433" d="M261.611,1169.1c.771,1.57,2.133,2.586,2.512,2.343s-.672-1.515-1.443-3.085-1.354-2.546-1.733-2.3S260.841,1167.526,261.611,1169.1Z" transform="translate(-255.155 -1159.003)" fill="#fff4ba"/>
          <path id="Path_14434" data-name="Path 14434" d="M254.948,1167.752c.833,1.537,1.645,2.206,2.016,1.953s-.368-1.161-1.2-2.7-1.438-2.6-1.809-2.347S254.116,1166.214,254.948,1167.752Z" transform="translate(-250.597 -1158.09)" fill="#fff4ba"/>
        </g>
        <path id="Path_14435" data-name="Path 14435" d="M219.418,1122.967c2.736-2.379-12.846-14.622-13.586-14.848,0,0-2.561,1.025-2.163,1.837C204.7,1112.058,218.2,1124.029,219.418,1122.967Z" transform="translate(-203.464 -1085.484)" fill="#fff4ba"/>
        <path id="Path_14436" data-name="Path 14436" d="M241.7,1147.206l-.953.637-4.114-1.445a8.906,8.906,0,0,1,1.906-1.561C239.026,1144.728,241.7,1147.206,241.7,1147.206Z" transform="translate(-225.125 -1109.581)" fill="#fff4ba"/>
        <path id="Path_14437" data-name="Path 14437" d="M246.448,1142.316l.615-.976-1.6-4.061a8.969,8.969,0,0,0-1.522,1.961C243.846,1139.732,246.448,1142.316,246.448,1142.316Z" transform="translate(-229.923 -1104.622)" fill="#fff4ba"/>
      </g>
      <g id="Group_10818" data-name="Group 10818" transform="translate(13.277 8.13)">
        <path id="Path_14438" data-name="Path 14438" d="M252.963,980c-3.147.2-10.792-7.939-8.548-18.7.454-2.176,2.7-3.556,7.089-3.84,4.831-.313,7.125.85,7.589,2.558C262.373,972.088,256.183,979.788,252.963,980Z" transform="translate(-243.244 -957.405)" fill="#ffd8a3"/>
        <path id="Path_14439" data-name="Path 14439" d="M270.14,971.934a3.97,3.97,0,0,1,4.935,2.182A5.089,5.089,0,0,0,270.14,971.934Z" transform="translate(-260.395 -966.814)" fill="#2d356b"/>
        <path id="Path_14440" data-name="Path 14440" d="M252.509,973.53a3.955,3.955,0,0,0-4.9,2.226A5.076,5.076,0,0,1,252.509,973.53Z" transform="translate(-245.608 -967.87)" fill="#2d356b"/>
        <path id="Path_14441" data-name="Path 14441" d="M277.054,983c-.065-.6-.495-1.042-.959-.99a1.123,1.123,0,1,0,.959.99Z" transform="translate(-263.821 -973.554)" fill="#2d356b"/>
        <path id="Path_14442" data-name="Path 14442" d="M276.437,982.766a2.886,2.886,0,0,0-3.574-.321A7.282,7.282,0,0,1,276.437,982.766Z" transform="translate(-262.182 -973.523)" fill="#2d356b"/>
        <path id="Path_14443" data-name="Path 14443" d="M254.379,984.469a.874.874,0,1,1,.871,1.071A.989.989,0,0,1,254.379,984.469Z" transform="translate(-250.05 -974.441)" fill="#2d356b"/>
        <path id="Path_14444" data-name="Path 14444" d="M251.353,984.315a2.885,2.885,0,0,1,3.5-.78A7.277,7.277,0,0,0,251.353,984.315Z" transform="translate(-248.064 -974.362)" fill="#2d356b"/>
        <path id="Path_14445" data-name="Path 14445" d="M265.625,991.956a2.3,2.3,0,0,0,.968.33,1.344,1.344,0,0,0,.915-.491,10.8,10.8,0,0,0-1.1-3.121C266.165,988.662,265.583,991.581,265.625,991.956Z" transform="translate(-257.43 -977.928)" fill="#ffab00"/>
        <path id="Path_14446" data-name="Path 14446" d="M266.99,990.631c.005.059.29.133.388.127.169-.011.367-.111.367-.216,0-.254-.052-3.136-.558-3.075C266.632,987.532,266.96,990.264,266.99,990.631Z" transform="translate(-258.246 -977.135)" fill="#ffd8a3"/>
        <path id="Path_14447" data-name="Path 14447" d="M268.79,1012.333c-.023-.35-.408-.292-.907-.259s-.923.026-.9.376.445.608.945.576S268.813,1012.683,268.79,1012.333Z" transform="translate(-258.322 -993.269)" fill="#f36973"/>
        <path id="Path_14448" data-name="Path 14448" d="M267.374,1002.727a1.57,1.57,0,0,0-1.654.057c-.311.02-.657-.485-1.693.16-.3.185.79.586,1.715.526S267.694,1002.872,267.374,1002.727Z" transform="translate(-256.35 -987.012)" fill="#f36973"/>
        <path id="Path_14449" data-name="Path 14449" d="M261.905,1003.383l4.86-.315s-.425,3.539-2.2,3.655S261.905,1003.383,261.905,1003.383Z" transform="translate(-254.99 -987.375)" fill="#ffab00"/>
        <path id="Path_14450" data-name="Path 14450" d="M267.052,1003.653l-4.186.271.552,1.393,3.265-.212Z" transform="translate(-255.621 -987.759)" fill="#fff"/>
        <path id="Path_14451" data-name="Path 14451" d="M275.908,1002.474a.248.248,0,1,0-.226.3A.268.268,0,0,0,275.908,1002.474Z" transform="translate(-263.859 -986.808)" fill="#ffab00"/>
        <path id="Path_14452" data-name="Path 14452" d="M261.564,1003.4a.248.248,0,1,0-.226.3A.268.268,0,0,0,261.564,1003.4Z" transform="translate(-254.444 -987.417)" fill="#ffab00"/>
        <path id="Path_14453" data-name="Path 14453" d="M243.055,990.9c-.193-.684-.138-1.254-.642-1.111a1.157,1.157,0,0,0-.564,1.5c.193.683.759,1.122,1.263.98S243.248,991.583,243.055,990.9Z" transform="translate(-241.783 -978.644)" fill="#f7c371"/>
        <path id="Path_14454" data-name="Path 14454" d="M290.112,987.893c.087-.705-.061-1.262.475-1.2a1.168,1.168,0,0,1,.815,1.4c-.086.705-.591,1.224-1.127,1.159S290.026,988.6,290.112,987.893Z" transform="translate(-273.401 -976.627)" fill="#f7c371"/>
      </g>
      <g id="Group_10821" data-name="Group 10821" transform="translate(12.948 5.73)">
        <g id="Group_10820" data-name="Group 10820" transform="translate(6.38)">
          <path id="Path_14455" data-name="Path 14455" d="M270.125,957.549c-2.837-.873-9.949-3.359-10.732-6.868,0,0,6.935-1.339,8.752,2.047C270.44,957,270.125,957.549,270.125,957.549Z" transform="translate(-259.392 -950.42)" fill="#2d356b"/>
          <g id="Group_10819" data-name="Group 10819" transform="translate(0.586 1.458)">
            <path id="Path_14456" data-name="Path 14456" d="M265.772,958.831a21.269,21.269,0,0,0,7.082,4.351C275.447,963.954,265.772,958.831,265.772,958.831Z" transform="translate(-264.166 -957.399)" fill="#2d356b"/>
            <path id="Path_14457" data-name="Path 14457" d="M261.1,954.664a13.251,13.251,0,0,0,3.068,4.174C265.483,959.893,261.1,954.664,261.1,954.664Z" transform="translate(-261.098 -954.664)" fill="#2d356b"/>
          </g>
        </g>
        <path id="Path_14458" data-name="Path 14458" d="M240.86,964.125c2.147-1.2,7.494-4.489,7.708-8.062,0,0-5.651-.524-6.7,3.048C240.547,963.62,240.86,964.125,240.86,964.125Z" transform="translate(-240.827 -954.106)" fill="#2d356b"/>
      </g>
    </g>
    <g id="Group_10831" data-name="Group 10831" transform="translate(51.627 488.775)">
      <g id="Group_10830" data-name="Group 10830" transform="translate(0 0)">
        <g id="Group_10823" data-name="Group 10823" transform="translate(47.346)">
          <path id="Path_14459" data-name="Path 14459" d="M314.088,1033.506c-1.341-7.046-2.777-13.308-3.04-13.6h0a32.7,32.7,0,0,0-4.875-3.3h0c-2.243-1.364-4.388-2.589-4.392-2.589h0l.366-.644c.038.041,8.536,4.838,9.5,6.106h0c.5.783,1.768,6.731,3.165,13.89h0c1.367,7.112,2.755,15.216,3.216,19.779h0l-.736.075c-.456-4.513-1.841-12.617-3.208-19.714Z" transform="translate(-299.236 -1011.271)" fill="#9999a5"/>
          <path id="Path_14460" data-name="Path 14460" d="M294.377,1009.454a2.193,2.193,0,1,0,2.195-2.192A2.193,2.193,0,0,0,294.377,1009.454Z" transform="translate(-294.377 -1007.262)" fill="#9999a5"/>
        </g>
        <g id="Group_10829" data-name="Group 10829" transform="translate(0 40.872)">
          <g id="Group_10824" data-name="Group 10824" transform="translate(14.845 12.999)">
            <path id="Path_14461" data-name="Path 14461" d="M200.669,1166.146c.1.248,1.1.45,2.219.45l40.793-.012a4.082,4.082,0,0,0,2.309-.447l1.029-1.629c.172-.27-.657-.494-1.838-.494h-43.19c-1.185,0-2.29.309-2.178.576Z" transform="translate(-199.806 -1164.014)" fill="#9999a5"/>
          </g>
          <g id="Group_10825" data-name="Group 10825" transform="translate(24.982 8.151)">
            <rect id="Rectangle_3354" data-name="Rectangle 3354" width="29.071" height="102.907" fill="#9999a5"/>
            <path id="Path_14462" data-name="Path 14462" d="M244.73,1261.811a.347.347,0,0,0,.351.338h17.762a.348.348,0,0,0,.357-.338v-84.622a.351.351,0,0,0-.357-.338H245.081a.349.349,0,0,0-.351.338Z" transform="translate(-239.428 -1167.59)" fill="#ebebeb"/>
          </g>
          <g id="Group_10827" data-name="Group 10827">
            <g id="Group_10826" data-name="Group 10826" transform="translate(0 1.079)">
              <path id="Path_14463" data-name="Path 14463" d="M232.675,1130.667c.856-.736.628-1.338-.513-1.338H157.587c-1.137,0-1.306.525-.371,1.161l6.017,5.977c.931.641,1.194,1.169,2.334,1.169H226.28c1.139,0,1.13-.6,1.986-1.34Z" transform="translate(-156.611 -1129.329)" fill="#cfd0d8"/>
            </g>
            <path id="Path_14464" data-name="Path 14464" d="M156.638,1127.323a.372.372,0,0,0,.378.367H232.9a.371.371,0,0,0,.375-.367v-.762a.375.375,0,0,0-.375-.372H157.016a.376.376,0,0,0-.378.372Z" transform="translate(-156.629 -1126.189)" fill="#ebebeb"/>
          </g>
          <g id="Group_10828" data-name="Group 10828" transform="translate(14.712 3.696)">
            <path id="Path_14465" data-name="Path 14465" d="M199.418,1145.986a2.1,2.1,0,0,0,2.151,2.03h43.2a2.1,2.1,0,0,0,2.153-2.03v-7.013a2.1,2.1,0,0,0-2.153-2.03h-43.2a2.1,2.1,0,0,0-2.151,2.03Z" transform="translate(-199.418 -1136.942)" fill="#cfd0d8"/>
          </g>
        </g>
      </g>
    </g>
    <g id="Group_10832" data-name="Group 10832" transform="translate(75.363 551.543)">
      <rect id="Rectangle_3355" data-name="Rectangle 3355" width="58.206" height="29.017" rx="6.672" transform="translate(-13 -21)" fill="#fff" stroke="#231f20" stroke-miterlimit="10" stroke-width="0.25"/>
      <text id="Akiko" transform="translate(3.103 -2.992)" fill="#2d356b" font-size="10" font-family="TrebuchetMS-Bold, Trebuchet MS" font-weight="700"><tspan x="0" y="0">Akiko</tspan></text>
    </g>
    <g id="Group_10846" data-name="Group 10846" transform="translate(109.517 554.434)">
      <g id="Group_10835" data-name="Group 10835" transform="translate(0 66.469)">
        <g id="Group_10834" data-name="Group 10834">
          <g id="Group_10833" data-name="Group 10833">
            <rect id="Rectangle_3356" data-name="Rectangle 3356" width="179.745" height="10.538" fill="#7b88ac"/>
            <rect id="Rectangle_3357" data-name="Rectangle 3357" width="179.745" height="2.046" transform="translate(0 10.403)" fill="#40558e"/>
          </g>
          <rect id="Rectangle_3358" data-name="Rectangle 3358" width="3.986" height="20.836" transform="translate(168.306 10.824)" fill="#40558e"/>
        </g>
        <rect id="Rectangle_3359" data-name="Rectangle 3359" width="3.986" height="20.836" transform="translate(7.131 11.289)" fill="#40558e"/>
      </g>
      <g id="Group_10845" data-name="Group 10845" transform="translate(69.098 0)">
        <g id="Group_10837" data-name="Group 10837" transform="translate(0 43.433)">
          <g id="Group_10836" data-name="Group 10836" transform="translate(22.17 44.838)">
            <path id="Path_14466" data-name="Path 14466" d="M610.723,1469.489c.084-.519-.832-.767-1.9-.893s-1.881-.085-1.968.435.711,1.043,1.779,1.168S610.638,1470.009,610.723,1469.489Z" transform="translate(-601.274 -1463.939)" fill="#fff4ba"/>
            <path id="Path_14467" data-name="Path 14467" d="M608.6,1473.291c.084-.52-.831-.766-1.9-.891s-1.881-.088-1.968.433.711,1.041,1.779,1.168S608.51,1473.809,608.6,1473.291Z" transform="translate(-599.877 -1466.434)" fill="#fff4ba"/>
            <path id="Path_14468" data-name="Path 14468" d="M615.025,1461.568c-.512-.165-1.139,1.07-1.7,2.525s-.844,2.576-.331,2.743,1.378-.88,1.939-2.335S615.535,1461.734,615.025,1461.568Z" transform="translate(-605.13 -1459.355)" fill="#fff4ba"/>
            <path id="Path_14469" data-name="Path 14469" d="M591.538,1455.159c2.275.37,9.518.984,9.328,3.455-.17,2.209-3.519,4.619-10.243-1.474Z" transform="translate(-590.623 -1455.159)" fill="#fff4ba"/>
          </g>
          <path id="Path_14470" data-name="Path 14470" d="M540.353,1324.817c-5.479-2.468-14.4,32.377-14.237,33.646,0,0,3.309,3.142,4.267,1.98C532.861,1357.439,542.8,1325.918,540.353,1324.817Z" transform="translate(-526.114 -1324.692)" fill="#fff4ba"/>
          <path id="Path_14471" data-name="Path 14471" d="M549.2,1430.319c2.854-3.572-19.254-15.223-20.223-15.336,0,0-2.945,1.853-2.267,2.77C528.464,1420.126,547.922,1431.914,549.2,1430.319Z" transform="translate(-526.437 -1383.953)" fill="#fff4ba"/>
          <path id="Path_14472" data-name="Path 14472" d="M582.312,1455.437l-1.038,1.006-5.431-.858a11.231,11.231,0,0,1,2.01-2.369C578.434,1452.968,582.312,1455.437,582.312,1455.437Z" transform="translate(-558.752 -1409.034)" fill="#fff4ba"/>
          <path id="Path_14473" data-name="Path 14473" d="M587.272,1448.482l.542-1.35-2.9-4.675a11.319,11.319,0,0,0-1.443,2.778C583.458,1445.868,587.272,1448.482,587.272,1448.482Z" transform="translate(-563.756 -1401.984)" fill="#fff4ba"/>
        </g>
        <rect id="Rectangle_3360" data-name="Rectangle 3360" width="6.392" height="11.982" transform="translate(19.054 31.067)" fill="#f8c471"/>
        <g id="Group_10839" data-name="Group 10839" transform="translate(12.166 43.681)">
          <g id="Group_10838" data-name="Group 10838" transform="translate(0 44.574)">
            <path id="Path_14474" data-name="Path 14474" d="M563.417,1467.255c-.063-.454.741-.654,1.675-.744s1.644-.038,1.71.417-.641.9-1.576.986S563.482,1467.71,563.417,1467.255Z" transform="translate(-562.761 -1462.57)" fill="#fff4ba"/>
            <path id="Path_14475" data-name="Path 14475" d="M565.2,1470.617c-.064-.456.741-.654,1.675-.742s1.644-.041,1.71.415-.64.9-1.576.987S565.269,1471.071,565.2,1470.617Z" transform="translate(-563.933 -1464.776)" fill="#fff4ba"/>
            <path id="Path_14476" data-name="Path 14476" d="M561.845,1460.218c.449-.134.974.957,1.435,2.238s.689,2.266.238,2.4-1.187-.794-1.649-2.076S561.395,1460.353,561.845,1460.218Z" transform="translate(-561.514 -1458.455)" fill="#fff4ba"/>
            <path id="Path_14477" data-name="Path 14477" d="M569.733,1455.111c-1.994.28-8.331.679-8.212,2.841.106,1.933,2.985,4.1,8.973-1.093Z" transform="translate(-561.518 -1455.111)" fill="#fff4ba"/>
          </g>
          <path id="Path_14478" data-name="Path 14478" d="M612.957,1325.524c5.532-2.348,13.7,32.682,13.506,33.947,0,0-3.376,3.07-4.309,1.888C619.742,1358.3,610.488,1326.573,612.957,1325.524Z" transform="translate(-595.005 -1325.411)" fill="#fff4ba"/>
          <path id="Path_14479" data-name="Path 14479" d="M585.6,1431.279c-2.777-3.632,19.579-14.8,20.55-14.894,0,0,2.9,1.916,2.206,2.818C606.545,1421.536,586.835,1432.9,585.6,1431.279Z" transform="translate(-577.163 -1385.12)" fill="#fff4ba"/>
          <path id="Path_14480" data-name="Path 14480" d="M583.723,1455.683l1.016,1.029,5.448-.74a11.223,11.223,0,0,0-1.959-2.411C587.653,1453.3,583.723,1455.683,583.723,1455.683Z" transform="translate(-576.09 -1409.506)" fill="#fff4ba"/>
          <path id="Path_14481" data-name="Path 14481" d="M582.864,1448.651l-.513-1.362,3-4.611a11.329,11.329,0,0,1,1.383,2.809C586.733,1446.119,582.864,1448.651,582.864,1448.651Z" transform="translate(-575.19 -1402.377)" fill="#fff4ba"/>
        </g>
        <g id="Group_10844" data-name="Group 10844" transform="translate(2.872)">
          <g id="Group_10840" data-name="Group 10840">
            <path id="Path_14482" data-name="Path 14482" d="M549.828,1226.059c.959,1.815,12.411,11.053,8.487,11.787-17.639,3.3-18.072-3.954-18.072-3.954,1.438,2.2,4.6,1.815,4.313-.86s-1.533-.668-3.738-2.2.287-3.822-.287-4.872c-1.561-2.85-3.739-.859-5.081-3.151-4.908-8.388,9.872-26.555,16.87-24.263,0,0,15-4.312,17.158,23.784.1,1.242-4.5,2.485-3.834,5.063s1.151,1.814.287,3.344-5.942,1.336-4.026,3.438,4.026,1.147,4.7.1c0,0-1.453,6.283-11.019,2.778-8.992-3.3,1.338-11.375,1.338-11.375Z" transform="translate(-534.471 -1198.312)" fill="#fff4ba"/>
          </g>
          <g id="Group_10841" data-name="Group 10841" transform="translate(7.338 10.328)">
            <path id="Path_14483" data-name="Path 14483" d="M571.079,1257.558c-16.471-.771.932-.709-9.29-24.941-1.089-2.582,3.684-4.254,9.234-4.254,6.1,0,9.942,1.688,9.342,3.837C573.724,1255.994,585.223,1258.22,571.079,1257.558Z" transform="translate(-559.636 -1228.363)" fill="#fff4ba"/>
            <path id="Path_14484" data-name="Path 14484" d="M593.2,1247a5.007,5.007,0,0,1,6.033,3.148C597.6,1247.924,596.342,1247.092,593.2,1247Z" transform="translate(-580.351 -1240.502)" fill="#fff4ba"/>
            <path id="Path_14485" data-name="Path 14485" d="M570.533,1247.92a4.988,4.988,0,0,0-6.345,2.4C566.068,1248.307,567.415,1247.633,570.533,1247.92Z" transform="translate(-561.313 -1240.972)" fill="#fff4ba"/>
            <path id="Path_14486" data-name="Path 14486" d="M600.857,1261.43a1.1,1.1,0,1,0-1.009,1.419A1.247,1.247,0,0,0,600.857,1261.43Z" transform="translate(-583.977 -1249.196)" fill="#fff4ba"/>
            <path id="Path_14487" data-name="Path 14487" d="M600.192,1261.191a3.639,3.639,0,0,0-4.471-.7A9.18,9.18,0,0,1,600.192,1261.191Z" transform="translate(-582.009 -1249.136)" fill="#fff4ba"/>
            <path id="Path_14488" data-name="Path 14488" d="M572.195,1261.43a1.1,1.1,0,1,1,1.009,1.419A1.247,1.247,0,0,1,572.195,1261.43Z" transform="translate(-566.567 -1249.196)" fill="#fff4ba"/>
            <path id="Path_14489" data-name="Path 14489" d="M568.407,1261.191a3.637,3.637,0,0,1,4.47-.7A9.177,9.177,0,0,0,568.407,1261.191Z" transform="translate(-564.082 -1249.136)" fill="#fff4ba"/>
            <path id="Path_14490" data-name="Path 14490" d="M585.4,1271.765a2.914,2.914,0,0,0,1.192.495,1.7,1.7,0,0,0,1.191-.543c.053-.329-.817-3.985-1.126-4.017S585.382,1271.289,585.4,1271.765Z" transform="translate(-575.238 -1254.18)" fill="#fff4ba"/>
            <path id="Path_14491" data-name="Path 14491" d="M587.486,1270.138c0,.074.354.191.478.191.213,0,.47-.109.479-.241.021-.32.191-3.951-.452-3.916C587.288,1266.209,587.478,1269.674,587.486,1270.138Z" transform="translate(-576.585 -1253.178)" fill="#fff4ba"/>
            <path id="Path_14492" data-name="Path 14492" d="M588.174,1297.741c0-.443-.489-.4-1.12-.4s-1.165-.042-1.165.4.511.8,1.142.8S588.174,1298.184,588.174,1297.741Z" transform="translate(-575.556 -1273.635)" fill="#fff4ba"/>
            <path id="Path_14493" data-name="Path 14493" d="M587.156,1285.726a1.981,1.981,0,0,0-2.086-.063c-.393,0-.787-.665-2.143.063-.39.209.946.8,2.115.8S587.547,1285.935,587.156,1285.726Z" transform="translate(-573.567 -1265.788)" fill="#fff4ba"/>
            <path id="Path_14494" data-name="Path 14494" d="M580.249,1286.475h6.142s-.824,4.419-3.071,4.419S580.249,1286.475,580.249,1286.475Z" transform="translate(-571.854 -1266.504)" fill="#fff4ba"/>
            <path id="Path_14495" data-name="Path 14495" d="M586.712,1287.13h-5.29l.581,1.8h4.127Z" transform="translate(-572.625 -1266.933)" fill="#fff4ba"/>
            <path id="Path_14496" data-name="Path 14496" d="M597.95,1285.752a.312.312,0,1,0-.309.36A.338.338,0,0,0,597.95,1285.752Z" transform="translate(-583.066 -1265.792)" fill="#fff4ba"/>
            <path id="Path_14497" data-name="Path 14497" d="M579.823,1285.752a.313.313,0,1,0-.309.36A.338.338,0,0,0,579.823,1285.752Z" transform="translate(-571.169 -1265.792)" fill="#fff4ba"/>
            <path id="Path_14498" data-name="Path 14498" d="M557.422,1268.59c-.188-.877-.071-1.589-.718-1.451a1.459,1.459,0,0,0-.832,1.838c.187.875.864,1.474,1.51,1.336S557.609,1269.466,557.422,1268.59Z" transform="translate(-555.823 -1253.801)" fill="#fff4ba"/>
            <path id="Path_14499" data-name="Path 14499" d="M616.714,1268.608c.166-.88.026-1.593.7-1.466a1.473,1.473,0,0,1,.912,1.828c-.166.88-.844,1.492-1.513,1.367S616.548,1269.491,616.714,1268.608Z" transform="translate(-595.606 -1253.805)" fill="#fff4ba"/>
          </g>
          <g id="Group_10843" data-name="Group 10843" transform="translate(7.212 5.841)">
            <path id="Path_14500" data-name="Path 14500" d="M555.487,1228.4c3.493-1.659,12.224-6.287,12.923-11.874,0,0-8.819-1.4-10.827,4.1C555.047,1227.576,555.487,1228.4,555.487,1228.4Z" transform="translate(-555.458 -1216.003)" fill="#fff4ba"/>
            <path id="Path_14501" data-name="Path 14501" d="M597.075,1237.651a27.929,27.929,0,0,1-.932-8.23c.338-2.906-8.553-9.622-9.8-12.109-1.777-3.549,6.086-1.3,6.086-1.3C599.546,1222.52,597.947,1229.52,597.075,1237.651Z" transform="translate(-575.558 -1215.307)" fill="#fff4ba"/>
            <g id="Group_10842" data-name="Group 10842" transform="translate(5.026 0.955)">
              <path id="Path_14502" data-name="Path 14502" d="M577.913,1218.086c-.539,3.707-4.411,7.231-7.83,9.679,3.791-2.282,8.161-5.7,8.647-9.588C578.73,1218.177,578.423,1218.129,577.913,1218.086Z" transform="translate(-570.083 -1218.086)" fill="#fff4ba"/>
            </g>
          </g>
        </g>
        <path id="Path_14503" data-name="Path 14503" d="M574.452,1368.429c-13.35,10.472-26.949,7.324-31.709,0,12.825-18.6-5.557-48.508,16.327-49.477C580.151,1318.018,560.752,1352.569,574.452,1368.429Z" transform="translate(-537.028 -1277.479)" fill="#9ea9fc"/>
      </g>
      <path id="Path_180" data-name="Path 180" d="M550.182,1411.727H467.371l-3.779-31.71c-.43-3.618,2.907-6.761,7.181-6.761h68.3c3.7,0,6.805,2.385,7.18,5.522Z" transform="translate(-415.956 -1313.132)" fill="#40558e"/>
    </g>
    <g id="Group_10847" data-name="Group 10847" transform="translate(165.92 627.177)">
      <rect id="Rectangle_3361" data-name="Rectangle 3361" width="57.251" height="26.603" rx="6.672" transform="translate(4 -7)" fill="#fff" stroke="#231f20" stroke-miterlimit="10" stroke-width="0.25"/>
      <text id="Helen" transform="translate(19.125 9.802)" fill="#2d356b" font-size="10" font-family="TrebuchetMS-Bold, Trebuchet MS" font-weight="700"><tspan x="0" y="0">Helen</tspan></text>
    </g>
    <g id="Group_10849" data-name="Group 10849" transform="translate(220.113 473.98)">
      <g id="Group_10848" data-name="Group 10848" transform="translate(0 0)">
        <path id="Path_14504" data-name="Path 14504" d="M935.7,1184.963c10.912,17.254,2.147,35.882-21.441,43.155-25.056,7.725-57.558-.225-73.58-17.76-12.645,9.632-31.912,17.068-54,19.722-40.71,4.891-75.565-8.321-77.852-29.511a22.645,22.645,0,0,1,2.416-12.5c-34.432,8.112-54.645-.671-63.179-24.6-6.3-17.658,11.832-48.719,61.516-54.688,6.335-.762,12.542-1.257,18.558-1.507-.131-.585-1.9-3.907.683-9.7,11.233-25.19,50.66-29.171,91.8-23.983,34.638,4.368,51.914,20.584,59.915,35.27,0,0,98.522-28.162,116.112,29.927C996.643,1138.78,1016.268,1189.983,935.7,1184.963Z" transform="translate(-646.861 -1071.599)" fill="#fff" stroke="#ebebeb" stroke-miterlimit="10" stroke-width="1"/>
        <ellipse id="Ellipse_549" data-name="Ellipse 549" cx="8.92" cy="8.216" rx="8.92" ry="8.216" transform="matrix(0.899, 0.438, -0.438, 0.899, 41.212, 119.227)" fill="#fff" stroke="#ebebeb" stroke-miterlimit="10" stroke-width="1"/>
        <ellipse id="Ellipse_550" data-name="Ellipse 550" cx="5.286" cy="4.869" rx="5.286" ry="4.869" transform="matrix(0.899, 0.438, -0.438, 0.899, 31.493, 127.278)" fill="#fff" stroke="#ebebeb" stroke-miterlimit="10" stroke-width="1"/>
        <ellipse id="Ellipse_551" data-name="Ellipse 551" cx="4.521" cy="4.165" rx="4.521" ry="4.165" transform="matrix(0.899, 0.438, -0.438, 0.899, 19.033, 120.929)" fill="#fff" stroke="#ebebeb" stroke-miterlimit="10" stroke-width="1"/>
      </g>
    </g>
    <g id="Group_10851" data-name="Group 10851" transform="translate(201.153 293.673)">
      <rect id="Rectangle_3362" data-name="Rectangle 3362" width="33.245" height="41.952" transform="translate(255.459 112.038)" fill="#c3e8e6"/>
      <rect id="Rectangle_3363" data-name="Rectangle 3363" width="33.245" height="68.154" transform="translate(203.535 85.835)" fill="#54ccca"/>
      <path id="Path_14505" data-name="Path 14505" d="M1236.925,223.177v153.99h142.881" transform="translate(-1058.623 -223.177)" fill="none" stroke="#40558e" stroke-miterlimit="10" stroke-width="1"/>
      <path id="Path_14506" data-name="Path 14506" d="M610.748,223.177v153.99h142.88" transform="translate(-610.748 -223.177)" fill="none" stroke="#40558e" stroke-miterlimit="10" stroke-width="1"/>
      <g id="Group_10850" data-name="Group 10850" transform="translate(54.818 35.362)">
        <rect id="Rectangle_3364" data-name="Rectangle 3364" width="33.245" height="118.628" fill="#54ccca"/>
        <rect id="Rectangle_3365" data-name="Rectangle 3365" width="33.245" height="27.678" transform="translate(0 90.548)" fill="#c3e8e6"/>
      </g>
    </g>
    <g id="Group_10853" data-name="Group 10853" transform="translate(111 384.044)">
      <g id="Group_10852" data-name="Group 10852" transform="translate(0 0)">
        <path id="Path_14507" data-name="Path 14507" d="M615.854,866.5c9.037,13.236,1.779,27.526-17.757,33.1-20.75,5.926-47.667-.172-60.935-13.624-10.472,7.388-26.428,13.094-44.717,15.129-33.714,3.752-62.58-6.384-64.474-22.638a16.281,16.281,0,0,1,2-9.592c-28.515,6.223-45.255-.514-52.323-18.872-5.215-13.546,9.8-37.373,50.944-41.953,5.247-.584,10.387-.964,15.369-1.156-.109-.449-1.575-3,.565-7.442,9.3-19.323,41.954-22.377,76.021-18.4,28.686,3.351,42.993,15.79,49.618,27.056,0,0,81.592-21.6,96.159,22.957C666.326,831.074,682.578,870.352,615.854,866.5Z" transform="translate(-376.653 -779.538)" fill="#fff" stroke="#ebebeb" stroke-miterlimit="10" stroke-width="1"/>
        <ellipse id="Ellipse_552" data-name="Ellipse 552" cx="8.92" cy="8.216" rx="8.92" ry="8.216" transform="translate(15.375 84.391) rotate(-5.542)" fill="#fff" stroke="#ebebeb" stroke-miterlimit="10" stroke-width="1"/>
        <ellipse id="Ellipse_553" data-name="Ellipse 553" cx="5.286" cy="4.869" rx="5.286" ry="4.869" transform="translate(11.304 97.352) rotate(-5.542)" fill="#fff" stroke="#ebebeb" stroke-miterlimit="10" stroke-width="1"/>
        <ellipse id="Ellipse_554" data-name="Ellipse 554" cx="4.521" cy="4.165" rx="4.521" ry="4.165" transform="translate(0.375 103.365) rotate(-5.542)" fill="#fff" stroke="#ebebeb" stroke-miterlimit="10" stroke-width="1"/>
      </g>
    </g>
  </g>
</svg>
