<svg xmlns="http://www.w3.org/2000/svg" width="540" height="335.754" viewBox="0 0 540 335.754">
  <g id="Group_11324" data-name="Group 11324" transform="translate(-23.846 -6456.989)">
    <g id="Group_11274" data-name="Group 11274" transform="translate(23.846 6457.958)">
      <g id="Group_11225" data-name="Group 11225" transform="translate(0)">
        <g id="Group_11224" data-name="Group 11224">
          <g id="Group_11223" data-name="Group 11223">
            <g id="Group_11222" data-name="Group 11222">
              <g id="Group_11221" data-name="Group 11221">
                <g id="Group_11218" data-name="Group 11218" transform="translate(0.563)">
                  <g id="Group_11214" data-name="Group 11214" transform="translate(0.129)">
                    <path id="Path_15040" data-name="Path 15040" d="M564.7,6472.877h.639v-11.746H26.029v245.462H564.693v-24.656h.005Z" transform="translate(-26.029 -6460.788)" fill="#fff"/>
                    <rect id="Rectangle_3511" data-name="Rectangle 3511" width="538.617" height="0.686" transform="translate(0 245.462)" fill="#a0bacb"/>
                    <rect id="Rectangle_3512" data-name="Rectangle 3512" width="539.309" height="0.686" fill="#7b88ac"/>
                  </g>
                  <g id="Group_11215" data-name="Group 11215" transform="translate(0 50.156)">
                    <path id="Path_15041" data-name="Path 15041" d="M120.926,6619.6v-.179h-8.262v.179H27.26v149.651H202.648V6619.6Zm74.461,4.805v32.907H120.926v-32.907ZM112.664,6663v62.868H34.521V6663Zm8.262,62.868V6663h74.461v62.868Zm-8.262-101.455v32.907H34.521v-32.907ZM34.521,6731.543h78.143v32.907H34.521Zm86.405,32.907v-32.907h74.461v32.907Z" transform="translate(-26.741 -6619.082)" fill="#ebebeb"/>
                    <path id="Path_15042" data-name="Path 15042" d="M202.048,6768.859H25.623V6618.521h85.4v-.18h9.3v.18h81.722Zm-175.388-.687H201.011V6619.208H119.289v-.18h-7.225v.18H26.66Zm168.127-4.118h-75.5V6730.46h75.5Zm-74.46-.687H193.75v-32.221H120.327Zm-8.262.687H32.884V6730.46h79.181Zm-78.143-.687h77.106v-32.221H33.921Zm160.866-37.9h-75.5v-63.556h75.5Zm-74.46-.687H193.75V6662.6H120.327Zm-8.262.687H32.884v-63.556h79.181Zm-78.143-.687h77.106V6662.6H33.921Zm160.866-67.86h-75.5v-33.594h75.5Zm-74.46-.687H193.75v-32.221H120.327Zm-8.262.688H32.884v-33.594h79.181Zm-78.143-.687h77.106v-32.221H33.921Z" transform="translate(-25.623 -6618.342)" fill="#ebebeb"/>
                  </g>
                  <g id="Group_11216" data-name="Group 11216" transform="translate(210.078 49.27)">
                    <path id="Path_15043" data-name="Path 15043" d="M845.437,6616.81v-.18h-7.578v.18H759.524v149.651h160.87V6616.81Zm68.3,4.8v32.908h-68.3v-32.908ZM837.859,6660.2v62.869H766.184V6660.2Zm7.578,62.869V6660.2h68.3v62.869Zm-7.578-101.456v32.908H766.184v-32.908Zm-71.675,107.134h71.675v32.908H766.184Zm79.253,32.908v-32.908h68.3v32.908Z" transform="translate(-759.048 -6616.286)" fill="#ebebeb"/>
                    <path id="Path_15044" data-name="Path 15044" d="M919.844,6766.065H758.022V6615.727h78.335v-.179h8.53v.179h74.957Zm-160.871-.687H918.892V6616.414H843.935v-.18h-6.627v.18H758.974Zm154.21-4.119H843.935v-33.595h69.248Zm-68.3-.687h67.345v-32.221H844.887Zm-7.578.687H764.682v-33.595h72.626Zm-71.675-.687h70.723v-32.221H765.634Zm147.55-37.9H843.935v-63.556h69.248Zm-68.3-.687h67.345V6659.8H844.887Zm-7.578.687H764.682v-63.556h72.626Zm-71.675-.687h70.723V6659.8H765.634Zm147.55-67.861H843.935v-33.594h69.248Zm-68.3-.687h67.345v-32.222H844.887Zm-7.578.687H764.682v-33.594h72.626Zm-71.675-.687h70.723v-32.222H765.634Z" transform="translate(-758.022 -6615.547)" fill="#ebebeb"/>
                  </g>
                  <g id="Group_11217" data-name="Group 11217" transform="translate(400.308 50.156)">
                    <path id="Path_15045" data-name="Path 15045" d="M1553.292,6764.45h-44.259v-32.907h44.259v-5.679h-44.259V6663h44.259v-5.679h-44.259v-32.907h44.259V6619.6h-44.259v-.179h-8.262v.179h-85.4v149.651h137.926Zm-52.521,0h-78.143v-32.907h78.143Zm0-38.586h-78.143V6663h78.143Zm0-68.547h-78.143v-32.907h78.143Z" transform="translate(-1414.848 -6619.082)" fill="#ebebeb"/>
                    <path id="Path_15046" data-name="Path 15046" d="M1709.345,7005.787h44.778v-.686h-43.74v-32.222h43.74v-.687h-44.778Z" transform="translate(-1615.679 -6860.074)" fill="#ebebeb"/>
                    <path id="Path_15047" data-name="Path 15047" d="M1709.345,6819.409h44.778v-.687h-43.74V6756.54h43.74v-.687h-44.778Z" transform="translate(-1615.679 -6712.282)" fill="#ebebeb"/>
                    <path id="Path_15048" data-name="Path 15048" d="M1709.345,6667.668h44.778v-.687h-43.74v-32.22h43.74v-.687h-44.778Z" transform="translate(-1615.679 -6629.09)" fill="#ebebeb"/>
                    <path id="Path_15049" data-name="Path 15049" d="M1515.828,6634.075h-79.18v33.594h79.18Zm-1.037,32.908h-77.105v-32.221h77.105Z" transform="translate(-1429.387 -6629.09)" fill="#ebebeb"/>
                    <path id="Path_15050" data-name="Path 15050" d="M1552.175,6768.173H1414.768V6619.208h85.4v-.18h7.225v.18h44.778v-.687h-43.741v-.18h-9.3v.18h-85.4v150.338h138.444Z" transform="translate(-1413.731 -6618.342)" fill="#ebebeb"/>
                    <path id="Path_15051" data-name="Path 15051" d="M1436.648,7005.787h79.18v-33.594h-79.18Zm1.037-32.908h77.105V7005.1h-77.105Z" transform="translate(-1429.387 -6860.074)" fill="#ebebeb"/>
                    <path id="Path_15052" data-name="Path 15052" d="M1515.828,6755.853h-79.18v63.556h79.18Zm-1.037,62.869h-77.105V6756.54h77.105Z" transform="translate(-1429.387 -6712.282)" fill="#ebebeb"/>
                  </g>
                </g>
                <g id="Group_11219" data-name="Group 11219" transform="translate(0 216.254)">
                  <path id="Path_15053" data-name="Path 15053" d="M563.155,7143.476H24.491v84.218h-.644v34.021h539.3V7147.064h.005Z" transform="translate(-23.846 -7143.184)" fill="#f9f9f9"/>
                  <rect id="Rectangle_3513" data-name="Rectangle 3513" width="537.412" height="0.492" transform="translate(2.068 117.854)" fill="#f9f9f9"/>
                  <rect id="Rectangle_3514" data-name="Rectangle 3514" width="538.623" height="0.492" transform="translate(0.692)" fill="#f9f9f9"/>
                </g>
                <g id="Group_11220" data-name="Group 11220" transform="translate(30.955 4.327)">
                  <path id="Path_15054" data-name="Path 15054" d="M1122.181,6547.143v-73.437h-1.955v73.437c-6.094.374-10.886,4.2-10.886,8.865,0,4.916,5.312,8.9,11.863,8.9s11.864-3.985,11.864-8.9C1133.067,6551.338,1128.275,6547.516,1122.181,6547.143Z" transform="translate(-773.918 -6473.706)" fill="#ffb2b0"/>
                  <path id="Path_15055" data-name="Path 15055" d="M134.383,6565.45v-73.437h-1.955v73.437c-6.094.374-10.886,4.2-10.886,8.864,0,4.917,5.312,8.9,11.864,8.9s11.864-3.985,11.864-8.9C145.27,6569.646,140.477,6565.823,134.383,6565.45Z" transform="translate(-121.542 -6486.212)" fill="#ffb2b0"/>
                  <path id="Path_15056" data-name="Path 15056" d="M482.313,6563.812v-53.391h-1.421v53.391c-4.43.271-7.915,3.051-7.915,6.444,0,3.574,3.861,6.472,8.625,6.472s8.625-2.9,8.625-6.472C490.227,6566.862,486.743,6564.083,482.313,6563.812Z" transform="translate(-353.768 -6498.788)" fill="#ffb2b0"/>
                  <path id="Path_15057" data-name="Path 15057" d="M1426.107,6563.812v-53.391h-1.421v53.391c-4.43.271-7.915,3.051-7.915,6.444,0,3.574,3.862,6.472,8.625,6.472s8.625-2.9,8.625-6.472C1434.021,6566.862,1430.537,6564.083,1426.107,6563.812Z" transform="translate(-977.42 -6498.788)" fill="#ffb2b0"/>
                </g>
              </g>
            </g>
          </g>
        </g>
      </g>
      <g id="Group_11262" data-name="Group 11262" transform="translate(43.067 119.394)">
        <g id="Group_11234" data-name="Group 11234" transform="translate(0 18.499)">
          <g id="Group_11226" data-name="Group 11226">
            <rect id="Rectangle_3515" data-name="Rectangle 3515" width="40.589" height="1.45" transform="translate(0.37 0.308)" fill="#ebebeb"/>
            <path id="Path_15058" data-name="Path 15058" d="M201.1,6897.31H159.769v-2.065H201.1Zm-40.589-.616h39.85v-.833h-39.85Z" transform="translate(-159.769 -6895.244)" fill="#ebebeb"/>
          </g>
          <g id="Group_11227" data-name="Group 11227" transform="translate(0 21.869)">
            <rect id="Rectangle_3516" data-name="Rectangle 3516" width="40.589" height="1.45" transform="translate(0.37 0.308)" fill="#ebebeb"/>
            <path id="Path_15059" data-name="Path 15059" d="M201.1,6966.331H159.769v-2.067H201.1Zm-40.589-.616h39.85v-.833h-39.85Z" transform="translate(-159.769 -6964.264)" fill="#ebebeb"/>
          </g>
          <g id="Group_11228" data-name="Group 11228" transform="translate(0 43.739)">
            <rect id="Rectangle_3517" data-name="Rectangle 3517" width="40.589" height="1.45" transform="translate(0.37 0.308)" fill="#ebebeb"/>
            <path id="Path_15060" data-name="Path 15060" d="M201.1,7035.352H159.769v-2.066H201.1Zm-40.589-.617h39.85v-.833h-39.85Z" transform="translate(-159.769 -7033.286)" fill="#ebebeb"/>
          </g>
          <g id="Group_11233" data-name="Group 11233" transform="translate(0 0.483)">
            <g id="Group_11229" data-name="Group 11229" transform="translate(0 65.608)">
              <rect id="Rectangle_3518" data-name="Rectangle 3518" width="40.589" height="1.45" transform="translate(0.37 0.308)" fill="#ebebeb"/>
              <path id="Path_15061" data-name="Path 15061" d="M201.1,7105.9H159.769v-2.066H201.1Zm-40.589-.616h39.85v-.833h-39.85Z" transform="translate(-159.769 -7103.831)" fill="#ebebeb"/>
            </g>
            <g id="Group_11230" data-name="Group 11230" transform="translate(0 86.539)">
              <rect id="Rectangle_3519" data-name="Rectangle 3519" width="40.589" height="1.45" transform="translate(0.37 0.308)" fill="#ebebeb"/>
              <path id="Path_15062" data-name="Path 15062" d="M201.1,7171.957H159.769v-2.065H201.1Zm-40.589-.615h39.85v-.834h-39.85Z" transform="translate(-159.769 -7169.891)" fill="#ebebeb"/>
            </g>
            <g id="Group_11231" data-name="Group 11231">
              <rect id="Rectangle_3520" data-name="Rectangle 3520" width="2.174" height="105.204" transform="translate(0.37 0.308)" fill="#ebebeb"/>
              <path id="Path_15063" data-name="Path 15063" d="M162.683,7002.59h-2.914V6896.77h2.914Zm-2.175-.616h1.435V6897.387h-1.435Z" transform="translate(-159.769 -6896.77)" fill="#ebebeb"/>
            </g>
            <g id="Group_11232" data-name="Group 11232" transform="translate(38.415)">
              <rect id="Rectangle_3521" data-name="Rectangle 3521" width="2.174" height="105.204" transform="translate(0.37 0.308)" fill="#ebebeb"/>
              <path id="Path_15064" data-name="Path 15064" d="M283.921,7002.59h-2.914V6896.77h2.914Zm-2.174-.616h1.435V6897.387h-1.435Z" transform="translate(-281.007 -6896.77)" fill="#ebebeb"/>
            </g>
          </g>
        </g>
        <g id="Group_11245" data-name="Group 11245" transform="translate(7.275 23.654)">
          <g id="Group_11236" data-name="Group 11236">
            <g id="Group_11235" data-name="Group 11235">
              <rect id="Rectangle_3522" data-name="Rectangle 3522" width="4.252" height="16.714" transform="translate(0.37 0.308)" fill="#ebebeb"/>
              <path id="Path_15065" data-name="Path 15065" d="M187.722,6928.845H182.73v-17.332h4.992Zm-4.252-.618h3.512v-16.1H183.47Z" transform="translate(-182.73 -6911.514)" fill="#ebebeb"/>
            </g>
            <path id="Path_15066" data-name="Path 15066" d="M188.988,6922.043a1.425,1.425,0,1,1-1.4-1.167A1.3,1.3,0,0,1,188.988,6922.043Z" transform="translate(-185.09 -6917.909)" fill="#ebebeb"/>
          </g>
          <g id="Group_11238" data-name="Group 11238" transform="translate(4.998)">
            <g id="Group_11237" data-name="Group 11237">
              <rect id="Rectangle_3523" data-name="Rectangle 3523" width="4.252" height="16.714" transform="translate(0.37 0.308)" fill="#ebebeb"/>
              <path id="Path_15067" data-name="Path 15067" d="M203.5,6928.845H198.5v-17.332H203.5Zm-4.252-.618h3.512v-16.1h-3.512Z" transform="translate(-198.504 -6911.514)" fill="#ebebeb"/>
            </g>
            <path id="Path_15068" data-name="Path 15068" d="M204.762,6922.043a1.425,1.425,0,1,1-1.4-1.167A1.3,1.3,0,0,1,204.762,6922.043Z" transform="translate(-200.864 -6917.909)" fill="#ebebeb"/>
          </g>
          <g id="Group_11240" data-name="Group 11240" transform="translate(9.996)">
            <g id="Group_11239" data-name="Group 11239">
              <rect id="Rectangle_3524" data-name="Rectangle 3524" width="4.252" height="16.714" transform="translate(0.37 0.308)" fill="#ebebeb"/>
              <path id="Path_15069" data-name="Path 15069" d="M219.27,6928.845h-4.992v-17.332h4.992Zm-4.252-.618h3.512v-16.1h-3.512Z" transform="translate(-214.278 -6911.514)" fill="#ebebeb"/>
            </g>
            <path id="Path_15070" data-name="Path 15070" d="M220.536,6922.043a1.425,1.425,0,1,1-1.4-1.167A1.3,1.3,0,0,1,220.536,6922.043Z" transform="translate(-216.638 -6917.909)" fill="#ebebeb"/>
          </g>
          <g id="Group_11242" data-name="Group 11242" transform="translate(14.994)">
            <g id="Group_11241" data-name="Group 11241">
              <rect id="Rectangle_3525" data-name="Rectangle 3525" width="4.252" height="16.714" transform="translate(0.37 0.308)" fill="#ebebeb"/>
              <path id="Path_15071" data-name="Path 15071" d="M235.044,6928.845h-4.992v-17.332h4.992Zm-4.252-.618H234.3v-16.1h-3.512Z" transform="translate(-230.052 -6911.514)" fill="#ebebeb"/>
            </g>
            <path id="Path_15072" data-name="Path 15072" d="M236.31,6922.043a1.425,1.425,0,1,1-1.4-1.167A1.3,1.3,0,0,1,236.31,6922.043Z" transform="translate(-232.412 -6917.909)" fill="#ebebeb"/>
          </g>
          <g id="Group_11244" data-name="Group 11244" transform="translate(19.992)">
            <g id="Group_11243" data-name="Group 11243">
              <rect id="Rectangle_3526" data-name="Rectangle 3526" width="4.252" height="16.714" transform="translate(0.37 0.308)" fill="#ebebeb"/>
              <path id="Path_15073" data-name="Path 15073" d="M250.818,6928.845h-4.992v-17.332h4.992Zm-4.253-.618h3.513v-16.1h-3.513Z" transform="translate(-245.826 -6911.514)" fill="#ebebeb"/>
            </g>
            <path id="Path_15074" data-name="Path 15074" d="M252.084,6922.043a1.425,1.425,0,1,1-1.4-1.167A1.3,1.3,0,0,1,252.084,6922.043Z" transform="translate(-248.186 -6917.909)" fill="#ebebeb"/>
          </g>
        </g>
        <path id="Path_15075" data-name="Path 15075" d="M183.612,7064.684a6.932,6.932,0,0,1,.662-3.071h-5.1a6.929,6.929,0,0,1,.662,3.071c0,1.858-2.234,5.29-2.234,7.578s2.368,3.037,4.12,3.037,4.12-.75,4.12-3.037S183.612,7066.542,183.612,7064.684Z" transform="translate(-171.954 -6990.4)" fill="#ebebeb"/>
        <g id="Group_11247" data-name="Group 11247" transform="translate(21.634 47.548)">
          <g id="Group_11246" data-name="Group 11246" transform="translate(0.631)">
            <path id="Path_15076" data-name="Path 15076" d="M247.267,6995.227c1.375-2.688-1.681-2.639-1.448-3.345.437-1.325,2.084.115,2.753-.552s-1.649-2.747-.436-3.467.788,1.717,1.837,1.544.424-2.748,1.661-2.46c.93.217-.175,1.826-.073,2.577s2.019-.344,2.053.729-2.286.6-2.559,1.419,2.495.985,1.524,1.675-2.8-.136-3.281.582S246.683,6996.368,247.267,6995.227Z" transform="translate(-240.81 -6986.924)" fill="#ebebeb"/>
            <path id="Path_15077" data-name="Path 15077" d="M235.649,7002.14c-1.292-2.717-3.422-.89-3.852-1.528-.807-1.2,1.579-1.14,1.49-2.006s-3.489-.985-3.235-2.209,2.009.758,2.609.021-2.017-2.2-.9-2.724c.843-.391,1.416,1.4,2.124,1.875s1.145-1.428,2.074-.684-1.116,1.769-.621,2.509,2.6-.762,2.5.3-2.1,1.544-1.841,2.336S236.2,7003.294,235.649,7002.14Z" transform="translate(-230.038 -6991.511)" fill="#ebebeb"/>
          </g>
          <path id="Path_15078" data-name="Path 15078" d="M237.577,7008.582h-7.055s-2.476,1.771-2.476,3.866,1.543,4.269,6,4.269,6-2.174,6-4.269S237.577,7008.582,237.577,7008.582Z" transform="translate(-228.046 -7001.72)" fill="#ebebeb"/>
        </g>
        <g id="Group_11248" data-name="Group 11248" transform="translate(23.364 75.354)">
          <rect id="Rectangle_3527" data-name="Rectangle 3527" width="6.511" height="7.37" transform="translate(2.014 2.175)" fill="#ebebeb"/>
          <ellipse id="Ellipse_576" data-name="Ellipse 576" cx="5.139" cy="2.175" rx="5.139" ry="2.175" fill="#ebebeb"/>
        </g>
        <g id="Group_11249" data-name="Group 11249" transform="translate(18.83 11.73)">
          <rect id="Rectangle_3528" data-name="Rectangle 3528" width="4.828" height="5.465" transform="translate(1.493 1.613)" fill="#ebebeb"/>
          <path id="Path_15079" data-name="Path 15079" d="M226.816,6875.493c0,.891-1.706,1.612-3.81,1.612s-3.81-.722-3.81-1.612,1.706-1.612,3.81-1.612S226.816,6874.6,226.816,6875.493Z" transform="translate(-219.196 -6873.881)" fill="#ebebeb"/>
        </g>
        <g id="Group_11251" data-name="Group 11251" transform="translate(2.689)">
          <g id="Group_11250" data-name="Group 11250">
            <path id="Path_15080" data-name="Path 15080" d="M194.681,6855.007s-1.67-4.833,5.723-10.27c0,0-6.33,5.8-4.252,10.27Z" transform="translate(-186.198 -6842.241)" fill="#ebebeb"/>
            <path id="Path_15081" data-name="Path 15081" d="M191.923,6850.723s-3.829-5.383,3.028-13.863c0,0-5.441,8.639-1.257,13.479Z" transform="translate(-183.696 -6836.859)" fill="#ebebeb"/>
            <path id="Path_15082" data-name="Path 15082" d="M177.818,6855.007s1.67-4.833-5.723-10.27c0,0,6.33,5.8,4.252,10.27Z" transform="translate(-170.879 -6842.241)" fill="#ebebeb"/>
            <path id="Path_15083" data-name="Path 15083" d="M185.4,6852.3s3.076-4.327-2.436-11.141c0,0,4.374,6.942,1.013,10.832Z" transform="translate(-178.303 -6839.795)" fill="#ebebeb"/>
            <path id="Path_15084" data-name="Path 15084" d="M193.936,6862.183s-1.444-4.883,6.2-10.078c0,0-6.6,5.591-4.728,10.125Z" transform="translate(-185.725 -6847.274)" fill="#ebebeb"/>
            <path id="Path_15085" data-name="Path 15085" d="M174.453,6860.312s1.444-4.884-6.2-10.077c0,0,6.6,5.59,4.728,10.125Z" transform="translate(-168.256 -6845.997)" fill="#ebebeb"/>
          </g>
          <path id="Path_15086" data-name="Path 15086" d="M179.831,6871.812h-5l2.294,7.733h5.409l2.294-7.733Z" transform="translate(-172.749 -6860.736)" fill="#ebebeb"/>
        </g>
        <g id="Group_11261" data-name="Group 11261" transform="translate(3.878 56.505)">
          <g id="Group_11256" data-name="Group 11256" transform="translate(0 0)">
            <g id="Group_11252" data-name="Group 11252" transform="translate(0.37 4.091)">
              <rect id="Rectangle_3529" data-name="Rectangle 3529" width="2.042" height="15.298" transform="translate(0 2.042) rotate(-90)" fill="#ebebeb"/>
            </g>
            <g id="Group_11254" data-name="Group 11254" transform="translate(0 1.733)">
              <g id="Group_11253" data-name="Group 11253">
                <rect id="Rectangle_3530" data-name="Rectangle 3530" width="2.042" height="15.298" transform="translate(0.37 2.35) rotate(-90)" fill="#ebebeb"/>
                <path id="Path_15087" data-name="Path 15087" d="M188.047,7023.319H172.009v-2.658h16.038Zm-15.3-.616h14.559v-1.425H172.749Z" transform="translate(-172.009 -7020.662)" fill="#ebebeb"/>
              </g>
            </g>
            <g id="Group_11255" data-name="Group 11255" transform="translate(0.37)">
              <rect id="Rectangle_3531" data-name="Rectangle 3531" width="2.042" height="15.298" transform="translate(0 2.042) rotate(-90)" fill="#ebebeb"/>
            </g>
          </g>
          <g id="Group_11257" data-name="Group 11257" transform="translate(9.38)">
            <rect id="Rectangle_3532" data-name="Rectangle 3532" width="0.11" height="2.042" fill="#ebebeb"/>
          </g>
          <g id="Group_11258" data-name="Group 11258" transform="translate(10.612)">
            <rect id="Rectangle_3533" data-name="Rectangle 3533" width="0.11" height="2.042" fill="#ebebeb"/>
          </g>
          <g id="Group_11259" data-name="Group 11259" transform="translate(11.844)">
            <rect id="Rectangle_3534" data-name="Rectangle 3534" width="0.11" height="2.042" fill="#ebebeb"/>
          </g>
          <g id="Group_11260" data-name="Group 11260" transform="translate(13.076)">
            <rect id="Rectangle_3535" data-name="Rectangle 3535" width="0.11" height="2.042" fill="#ebebeb"/>
          </g>
          <rect id="Rectangle_3536" data-name="Rectangle 3536" width="7.2" height="0.336" transform="translate(7.719 4.439)" fill="#ebebeb"/>
          <rect id="Rectangle_3537" data-name="Rectangle 3537" width="7.2" height="0.336" transform="translate(7.719 4.944)" fill="#ebebeb"/>
          <rect id="Rectangle_3538" data-name="Rectangle 3538" width="7.2" height="0.336" transform="translate(7.719 5.448)" fill="#ebebeb"/>
        </g>
      </g>
      <g id="Group_11273" data-name="Group 11273" transform="translate(322.001 161.297)">
        <g id="Group_11266" data-name="Group 11266">
          <g id="Group_11264" data-name="Group 11264" transform="translate(0.377 34.323)">
            <path id="Path_15088" data-name="Path 15088" d="M1167.318,7133.841l-1.313-.009,4.149-35.347.608-4.412,22.48,3.707-1.381,39.7-1.678-.136-.815-35.166-16.036-2.579Z" transform="translate(-1166.005 -7088.801)" fill="#cfd0d8"/>
            <g id="Group_11263" data-name="Group 11263" transform="translate(3.972)">
              <path id="Path_15089" data-name="Path 15089" d="M1221.855,7080.954l-13.855-.972-29.186,2.576-.092,4.422a2.127,2.127,0,0,0,1.77,2.6s18.176,3.926,20.361,3.239l22.134-6.62Z" transform="translate(-1178.619 -7079.174)" fill="#cfd0d8"/>
              <path id="Path_15090" data-name="Path 15090" d="M1202.8,7084.576c-3.1.688-3.114.032-5.773-.243l-14.744-2.458c-5.567-.591-3.979-.8-1.315-1.874l2.2-.479c2.207-.872,13.12-2.344,16.038-2.048l21.167.625c3.121.312,1.488,1.4,1.052,1.483Z" transform="translate(-1178.541 -7077.435)" fill="#cfd0d8"/>
            </g>
            <path id="Path_15091" data-name="Path 15091" d="M1307.447,7095.725l3.479,37.162-1.025-.134-5.535-34.58Z" transform="translate(-1260.526 -7089.93)" fill="#cfd0d8"/>
          </g>
          <g id="Group_11265" data-name="Group 11265">
            <path id="Path_15092" data-name="Path 15092" d="M1192.879,7006.392c.037,2.027-1.9,3.328-5.353,3.052l-15.649-2.47c-3.957-.517-3.389-.886-3.849-2.967l-3.076-29.511c-.712-3.2,1.377-5.768,5.94-5.339l14.24,1.264c4.507.417,5.02,2.758,5.063,5.87Z" transform="translate(-1164.816 -6969.109)" fill="#cfd0d8"/>
            <path id="Path_15093" data-name="Path 15093" d="M1235.908,6976.391a4.278,4.278,0,0,1,4.007,3.656c.233,2.327,4.474,30.737,3.312,32.595s-3.96,2.145-3.833,1.336c1.157-7.552-2.206-33.462-3.022-34.975A3.6,3.6,0,0,1,1235.908,6976.391Z" transform="translate(-1213.331 -6974.081)" fill="#cfd0d8"/>
          </g>
        </g>
        <g id="Group_11268" data-name="Group 11268" transform="translate(130.868 3.314)">
          <g id="Group_11267" data-name="Group 11267">
            <path id="Path_15094" data-name="Path 15094" d="M1579.723,7130.026h-1.016l2.878-33.548,2.159.123,23.758.285v6.092h-.061l3.359,27.226h-1.016l-5.831-27.226h-18.831Z" transform="translate(-1578.433 -7059.436)" fill="#cfd0d8"/>
            <path id="Path_15095" data-name="Path 15095" d="M1655.142,6982.811c.974-4.142,6.524-3.317,11.406-2.833,3.51.344,4.363,1.773,4.184,5.3l-4.189,30.628a5.261,5.261,0,0,1-6.379,5.169c-3.34-.679-10.2-2.923-9.937-6.443Z" transform="translate(-1627.286 -6979.569)" fill="#cfd0d8"/>
            <path id="Path_15096" data-name="Path 15096" d="M1590.1,7144.058h-.834l3.177-30.932-5.3-4.785,15.55-.1,18.31-.193-.071,5.082,3.651,31.118h-.676l-6.343-31.118h-21.6Z" transform="translate(-1584.201 -7067.337)" fill="#cfd0d8"/>
            <path id="Path_15097" data-name="Path 15097" d="M1578.127,7094.165a1.251,1.251,0,0,1,.962-2.044l18.908-.078a16.075,16.075,0,0,1,5.029.941l10.633,3.537c.026.009.053.018.079.028,1.275.509,1.156.939-.283.939l-32.073-.076a1.247,1.247,0,0,1-.964-.457Z" transform="translate(-1577.84 -7056.405)" fill="#cfd0d8"/>
          </g>
        </g>
        <g id="Group_11269" data-name="Group 11269" transform="translate(26.293 11.715)">
          <rect id="Rectangle_3539" data-name="Rectangle 3539" width="5.202" height="54.061" transform="translate(14.654 19.241)" fill="#ebebeb"/>
          <rect id="Rectangle_3540" data-name="Rectangle 3540" width="5.204" height="54.06" transform="translate(109.437 19.675)" fill="#ebebeb"/>
          <path id="Path_15098" data-name="Path 15098" d="M1374.7,7022.991v2.44H1248.171v-2.44l20.566-16.909h83.883Z" transform="translate(-1248.053 -7006.083)" fill="#ebebeb"/>
          <rect id="Rectangle_3541" data-name="Rectangle 3541" width="126.643" height="4.804" transform="translate(0 16.91)" fill="#ebebeb"/>
        </g>
        <g id="Group_11272" data-name="Group 11272" transform="translate(52.068 14.119)">
          <path id="Path_15099" data-name="Path 15099" d="M1357.11,7035.236l26.138-.019,3.427-4.6-23.479-.05Z" transform="translate(-1348.249 -7025.21)" fill="#cfd0d8"/>
          <g id="Group_11271" data-name="Group 11271">
            <path id="Path_15100" data-name="Path 15100" d="M1436.8,7177.283h-1.271l-6.18-38.856h3.293Z" transform="translate(-1397.597 -7098.896)" fill="#cfd0d8"/>
            <path id="Path_15101" data-name="Path 15101" d="M1331.974,7174.39h1.271l6.18-38.857h-3.293Z" transform="translate(-1331.078 -7096.92)" fill="#cfd0d8"/>
            <g id="Group_11270" data-name="Group 11270" transform="translate(9.75 35.188)">
              <path id="Path_15102" data-name="Path 15102" d="M1359.916,7169.734h.7l5.176-31.308h-3Z" transform="translate(-1359.916 -7134.085)" fill="#cfd0d8"/>
              <path id="Path_15103" data-name="Path 15103" d="M1458.612,7159.73h.7l-3.842-35.007-2.612,3.7Z" transform="translate(-1423.411 -7124.723)" fill="#cfd0d8"/>
            </g>
            <path id="Path_15104" data-name="Path 15104" d="M1344.743,7115.739a16.328,16.328,0,0,1,2.564-2.138c.4-.267,4.493-4.062,4.493-4.062l27.342,1.606a12.771,12.771,0,0,1,1.685.478c.578.208.872,1.806.8,3.125-.08,1.445-2.524,4.09-4.811,5.535-3.189,2.016-12.139,1.641-13.417,1.641h-1.69c-1.275,0-14.315.315-17.507-1.695C1343.044,7119.5,1343.722,7116.714,1344.743,7115.739Z" transform="translate(-1339.017 -7079.163)" fill="#cfd0d8"/>
            <path id="Path_15105" data-name="Path 15105" d="M1403.277,7015.9c1.766.533,6.006,1.6,6.357,5.86s2.852,29.12,2.147,30.765a2.642,2.642,0,0,1-4.236,1.062c-.891-1.065-6.037-35.916-5.5-36.444Z" transform="translate(-1378.918 -7015.19)" fill="#cfd0d8"/>
            <path id="Path_15106" data-name="Path 15106" d="M1360.458,7050.271c0,2.273-2.442,4.031-5.466,3.962l-16.617-.4c-3-.076-5.558-1.947-5.732-4.21l-3.484-31.14c-.21-2.7,2.313-4.87,5.638-4.816l17.313.547c3.354.059,6.074,2.321,6.074,5.037Z" transform="translate(-1329.145 -7013.668)" fill="#cfd0d8"/>
          </g>
        </g>
      </g>
    </g>
    <g id="Group_11275" data-name="Group 11275" transform="translate(24.521 6458.645)">
      <rect id="Rectangle_3542" data-name="Rectangle 3542" width="60.561" height="35.727" transform="translate(60.561 35.727) rotate(-180)" fill="#ebebeb"/>
    </g>
    <text id="_5" data-name="5" transform="translate(35.897 6484.989)" fill="#2d356b" font-size="30" font-family="TrebuchetMS-Bold, Trebuchet MS" font-weight="700"><tspan x="0" y="0">5</tspan></text>
    <g id="Group_11277" data-name="Group 11277" transform="translate(60.668 6468.788)">
      <g id="Group_11276" data-name="Group 11276" transform="translate(0 0)">
        <path id="Path_15107" data-name="Path 15107" d="M553.185,6626.278c15.663,19.1,3.191,39.656-30.516,47.614-35.8,8.453-82.308-.437-105.277-19.867-18.05,10.6-45.577,18.755-77.149,21.614-58.2,5.27-108.085-9.444-111.427-32.865-.664-4.656.567-9.305,3.413-13.808-49.21,8.85-78.144-.922-90.428-27.393-9.065-19.533,16.756-53.794,87.784-60.227,9.056-.82,17.931-1.347,26.532-1.6-.19-.646-2.733-4.323.943-10.717,15.979-27.8,72.346-32.065,131.188-26.2,49.546,4.941,74.3,22.916,85.795,39.17,0,0,140.791-30.793,166.139,33.452C640.181,6575.449,668.417,6632.091,553.185,6626.278Z" transform="translate(-158.467 -6510.19)" fill="#fff" stroke="#ebebeb" stroke-miterlimit="10" stroke-width="1"/>
        <ellipse id="Ellipse_577" data-name="Ellipse 577" cx="11.656" cy="10.767" rx="11.656" ry="10.767" transform="matrix(0.579, -0.815, 0.815, 0.579, 26.402, 145.153)" fill="#fff" stroke="#ebebeb" stroke-miterlimit="10" stroke-width="1"/>
        <ellipse id="Ellipse_578" data-name="Ellipse 578" cx="6.907" cy="6.38" rx="6.907" ry="6.38" transform="matrix(0.579, -0.815, 0.815, 0.579, 34.35, 159.504)" fill="#fff" stroke="#ebebeb" stroke-miterlimit="10" stroke-width="1"/>
        <ellipse id="Ellipse_579" data-name="Ellipse 579" cx="5.908" cy="5.458" rx="5.908" ry="5.458" transform="matrix(0.579, -0.815, 0.815, 0.579, 43.892, 172.894)" fill="#fff" stroke="#ebebeb" stroke-miterlimit="10" stroke-width="1"/>
      </g>
    </g>
    <g id="Group_11295" data-name="Group 11295" transform="translate(76.771 6637.703)">
      <path id="Path_15108" data-name="Path 15108" d="M205.062,7233.9l35.032,3.443a6.636,6.636,0,0,0,7.284-6.6v-64a6.636,6.636,0,0,0-7.229-6.609l-42.692,3.838c-.134.013-.269.017-.4.021a6.342,6.342,0,0,0-6.1,7.366l8.194,56.884A6.635,6.635,0,0,0,205.062,7233.9Z" transform="translate(-190.878 -7118.036)" fill="#fff4ba"/>
      <g id="Group_11294" data-name="Group 11294" transform="translate(14.821)">
        <g id="Group_11280" data-name="Group 11280" transform="translate(84.944 66.739)">
          <g id="Group_11278" data-name="Group 11278">
            <path id="Rectangle_3543" data-name="Rectangle 3543" d="M5.264,0H54.189a5.265,5.265,0,0,1,5.265,5.265V35.921a5.265,5.265,0,0,1-5.265,5.265H5.265A5.265,5.265,0,0,1,0,35.921V5.264A5.264,5.264,0,0,1,5.264,0Z" transform="translate(0.456)" fill="#ebebeb"/>
            <rect id="Rectangle_3544" data-name="Rectangle 3544" width="60.365" height="2.973" transform="translate(0 42.406)" fill="#ebebeb"/>
            <rect id="Rectangle_3545" data-name="Rectangle 3545" width="2.973" height="7.138" transform="translate(8.053 36.781)" fill="#ebebeb"/>
            <rect id="Rectangle_3546" data-name="Rectangle 3546" width="2.973" height="7.138" transform="translate(49.246 36.781)" fill="#ebebeb"/>
          </g>
          <g id="Group_11279" data-name="Group 11279" transform="translate(23.202 12.426)">
            <path id="Path_15109" data-name="Path 15109" d="M578.968,7284.155a6.98,6.98,0,1,1,6.98,6.982A6.987,6.987,0,0,1,578.968,7284.155Zm2.66,0a4.32,4.32,0,1,0,4.32-4.319A4.325,4.325,0,0,0,581.628,7284.155Z" transform="translate(-578.968 -7277.176)" fill="#7b88ac"/>
          </g>
        </g>
        <g id="Group_11293" data-name="Group 11293">
          <g id="Group_11283" data-name="Group 11283" transform="translate(14.812 60.808)">
            <g id="Group_11281" data-name="Group 11281" transform="translate(38.503 29.781)">
              <path id="Path_15110" data-name="Path 15110" d="M406.677,7335.178c2.876-1.105,10.14,1.089,10.168-1.6.027-2.407-3.491-6.313-10.925-.667Z" transform="translate(-405.92 -7324.693)" fill="#f8c471"/>
              <path id="Path_15111" data-name="Path 15111" d="M419.506,7329.873c-.317,4.246,4.859,4.613,6.514,4.353,1.82-.288,2.944-3.448,2.213-4.719S419.63,7328.249,419.506,7329.873Z" transform="translate(-415.192 -7323.73)" fill="#f8c471"/>
              <path id="Path_15112" data-name="Path 15112" d="M426.4,7318.4c1.81-1.738,3.043-4.6,2.219-5.091-.928-.561-1.526,2.1-3.53,3.263-2.169,1.266-3.465,2.177-3.022,3.038S424.59,7320.145,426.4,7318.4Z" transform="translate(-416.892 -7313.234)" fill="#f8c471"/>
              <path id="Path_15113" data-name="Path 15113" d="M439.055,7328.207c2.122-.347,3.151-1.016,2.995-1.568s-1.354-.281-3.475.062-4.9.255-4.747.808S436.933,7328.546,439.055,7328.207Z" transform="translate(-424.981 -7322.174)" fill="#f8c471"/>
              <path id="Path_15114" data-name="Path 15114" d="M442.677,7336.667c2.192.09,4.127-.806,4.086-1.369s-2.072-.165-4.264-.252-3.617-.03-3.574.533S440.486,7336.579,442.677,7336.667Z" transform="translate(-428.466 -7328.097)" fill="#f8c471"/>
              <path id="Path_15115" data-name="Path 15115" d="M436.666,7343.753c2.192,0,3.416-.494,3.359-1.054s-1.5-.289-3.692-.289-3.727.03-3.67.592S434.473,7343.753,436.666,7343.753Z" transform="translate(-424.189 -7333.12)" fill="#f8c471"/>
            </g>
            <g id="Group_11282" data-name="Group 11282">
              <path id="Path_15116" data-name="Path 15116" d="M318.054,7219.788c-5.791-5.637-33.268,34.184-33.652,35.86,0,0,2.844,3.481,4.6,2.459C293.53,7255.461,320.639,7222.3,318.054,7219.788Z" transform="translate(-284.402 -7219.242)" fill="#0080af"/>
              <path id="Path_15117" data-name="Path 15117" d="M326.13,7328.985c.282,6.341-34.543,1.414-35.726.755,0,0-1.791-4.478-.278-4.962C294.042,7323.528,326,7326.151,326.13,7328.985Z" transform="translate(-287.897 -7291.121)" fill="#0080af"/>
              <path id="Path_15118" data-name="Path 15118" d="M394.545,7331.824l-.619-1.84-7.006-2.319s.4,3.409.939,4.063S394.545,7331.824,394.545,7331.824Z" transform="translate(-354.437 -7293.31)" fill="#eaeaea"/>
              <path id="Path_15119" data-name="Path 15119" d="M396.55,7340.349l-.184,1.944-6.341,3.788s-.392-3.443-.012-4.2S396.55,7340.349,396.55,7340.349Z" transform="translate(-356.437 -7301.976)" fill="#eaeaea"/>
            </g>
          </g>
          <g id="Group_11289" data-name="Group 11289">
            <g id="Group_11288" data-name="Group 11288">
              <g id="Group_11284" data-name="Group 11284" transform="translate(0 2.159)">
                <path id="Path_15120" data-name="Path 15120" d="M295.9,7108.173c7.508-7.07-4.185-8.821-3.574-15.077s1.954-4.259,3.058-12.329-1.01-11.1-1.1-15.813,3.167-12.38.561-18.373-4.273-4-6.557-8.771-4.594.366-8.545,2.409-8.266-9.351-15.2-5.132-6.423,12.976-8.559,17.849-9,6.753-10.2,15.511,3.712,6.849,1.421,12.874-8.329,5.435-9.527,14.2c0,0-.958,8.791,8.872,8.49s6.672,4.9,17.39,1.676,6.995,6.122,14.559,2.693S289.2,7114.49,295.9,7108.173Z" transform="translate(-237.654 -7034.143)" fill="#2d356b"/>
              </g>
              <g id="Group_11285" data-name="Group 11285" transform="translate(22.182 29.66)">
                <path id="Path_15121" data-name="Path 15121" d="M360.23,7120.937l7.579,7.549-2.739,19.465-6.517-4.174Z" transform="translate(-342.428 -7120.937)" fill="#f7c371"/>
                <path id="Path_15122" data-name="Path 15122" d="M307.662,7252.9a61.441,61.441,0,0,0,3.211-9.479c4.693-19.518-6.74-46.277,9.03-52.012,16.744-6.088,24.279,41.235,24.279,41.235-10.121,13.081-10.478,8.37-13.616,25.441" transform="translate(-307.662 -7168.711)" fill="#03b4e9"/>
                <path id="Path_15123" data-name="Path 15123" d="M350.73,7187.742l2.636.279,9.033,13.4-4.047,2.1S352.427,7193.92,350.73,7187.742Z" transform="translate(-337.084 -7166.575)" fill="#fff"/>
                <path id="Path_15124" data-name="Path 15124" d="M373,7205.91c.064-.026.123-.055.187-.081-1.661-6.729-6.186-17.482-12.713-18.335C365.12,7194,373,7205.91,373,7205.91Z" transform="translate(-343.742 -7166.404)" fill="#f7c371"/>
              </g>
              <g id="Group_11287" data-name="Group 11287" transform="translate(22.771)">
                <g id="Group_11286" data-name="Group 11286">
                  <path id="Path_15125" data-name="Path 15125" d="M332.123,7068.586c-4.771-1.525-14.425-3.473-18.805-10.955-5.694-9.727-3.9-15.523-1.581-22.569,4.431-13.432,27.352-6.106,25.736-2.162C335.329,7038.138,349.415,7074.112,332.123,7068.586Z" transform="translate(-309.521 -7027.329)" fill="#2d356b"/>
                  <path id="Path_15126" data-name="Path 15126" d="M371.109,7082.95c1.76.073,5.285-8.889,6.513-15.824.4-2.286-2.06-2.659-1.579-10.5.282-4.6-1.58-11.064-9.1-15.958-7.1-4.619-8.234,9.648-8.995,12.925-2.167,9.33-4.813,15.137-2.59,19.788C359.7,7082.465,369.227,7082.417,371.109,7082.95Z" transform="translate(-340.258 -7035.821)" fill="#ffd8a3"/>
                  <path id="Path_15127" data-name="Path 15127" d="M407.446,7143.328a.406.406,0,0,1,.385-.425.427.427,0,0,1,.332.481.407.407,0,0,1-.387.425A.426.426,0,0,1,407.446,7143.328Z" transform="translate(-376.417 -7106.282)" fill="#ffab00"/>
                  <path id="Path_15128" data-name="Path 15128" d="M405.514,7096.278c-.119-1.234.473-2.287,1.321-2.355s1.636.876,1.755,2.108-.473,2.287-1.321,2.355S405.633,7097.512,405.514,7096.278Z" transform="translate(-375.088 -7072.821)" fill="#2d356b"/>
                  <path id="Path_15129" data-name="Path 15129" d="M400.272,7096.031c.959-1.853,2.423-3.768,5.783-3.064A11.847,11.847,0,0,0,400.272,7096.031Z" transform="translate(-371.517 -7072.067)" fill="#2d356b"/>
                  <path id="Path_15130" data-name="Path 15130" d="M414.1,7153.339c.064-.285.905.77,1.323.822,1.181.151.78,1.647-.393,1.377C414.574,7155.432,414.036,7153.641,414.1,7153.339Z" transform="translate(-380.962 -7113.378)" fill="#f36973"/>
                  <path id="Path_15131" data-name="Path 15131" d="M411.319,7143.209c-.789-.353,4.692-1.688,3.635.108C414.58,7143.662,411.723,7143.39,411.319,7143.209Z" transform="translate(-379.01 -7105.94)" fill="#f36973"/>
                  <path id="Path_15132" data-name="Path 15132" d="M393.175,7075.753c2.047.042,6.408-.385,7.757-6.013C399.195,7073.317,397.618,7074.821,393.175,7075.753Z" transform="translate(-366.669 -7056.302)" fill="#2d356b"/>
                  <path id="Path_15133" data-name="Path 15133" d="M423.518,7112.745l-2.757.72.19-6.959,3.853,5.12Z" transform="translate(-385.514 -7081.418)" fill="#ffd8a3"/>
                  <path id="Path_15134" data-name="Path 15134" d="M423.506,7129.29l2.3-4.218-2.041-.159Z" transform="translate(-387.39 -7093.993)" fill="#ffd8a3"/>
                  <path id="Path_15135" data-name="Path 15135" d="M411.682,7148.409a23.866,23.866,0,0,0,1.506-3.871l-4.918-.2S409.106,7147.762,411.682,7148.409Z" transform="translate(-376.981 -7107.261)" fill="#ffab00"/>
                  <path id="Path_15136" data-name="Path 15136" d="M410.984,7146.671l2.8.117q.274-.729.514-1.525l-4.02-.167Z" transform="translate(-378.353 -7107.781)" fill="#fff"/>
                  <path id="Path_15137" data-name="Path 15137" d="M342.818,7105.12c.2-2.14.992-3.692-.632-3.84s-3.108,1.468-3.308,3.61.96,4,2.587,4.148S342.62,7107.265,342.818,7105.12Z" transform="translate(-329.561 -7077.842)" fill="#f7c371"/>
                </g>
                <path id="Path_15138" data-name="Path 15138" d="M371.356,7039.1c-5.489,7.592-15.013,18.628-13.3,29.839-4.088-12.03-1.39-27.741,6.735-33.918C365.573,7036.246,372.62,7036.179,371.356,7039.1Z" transform="translate(-341.392 -7032.584)" fill="#2d356b"/>
              </g>
            </g>
          </g>
          <g id="Group_11292" data-name="Group 11292" transform="translate(6.677 57.097)">
            <g id="Group_11290" data-name="Group 11290" transform="translate(43.834 28.397)">
              <path id="Path_15139" data-name="Path 15139" d="M398.589,7327.625c2.913-2.09,11.74-1.756,10.982-4.791-.677-2.72-5.789-6.084-12.5,2.462Z" transform="translate(-397.071 -7312.647)" fill="#ffd9a4"/>
              <path id="Path_15140" data-name="Path 15140" d="M410.457,7318.531c.893,4.875,6.829,3.767,8.617,2.986,1.966-.859,2.3-4.749,1.1-5.966S410.119,7316.667,410.457,7318.531Z" transform="translate(-406.209 -7309.491)" fill="#ffd9a4"/>
              <path id="Path_15141" data-name="Path 15141" d="M417.792,7303.567c1.527-2.491,2.075-6.073,1-6.388-1.21-.357-1.1,2.811-3.017,4.713-2.07,2.064-3.262,3.47-2.51,4.311S416.265,7306.064,417.792,7303.567Z" transform="translate(-407.98 -7297.152)" fill="#ffd9a4"/>
              <path id="Path_15142" data-name="Path 15142" d="M431.877,7310.058c2.288-1.015,3.251-2.07,2.912-2.646s-1.607.082-3.895,1.094-5.447,1.729-5.109,2.306S429.587,7311.065,431.877,7310.058Z" transform="translate(-416.67 -7304.013)" fill="#ffd9a4"/>
              <path id="Path_15143" data-name="Path 15143" d="M438.065,7318.8c2.5-.544,4.41-2.123,4.2-2.744s-2.382.424-4.876.969-4.083,1.031-3.869,1.653S435.571,7319.346,438.065,7318.8Z" transform="translate(-421.957 -7309.938)" fill="#ffd9a4"/>
              <path id="Path_15144" data-name="Path 15144" d="M433.422,7328.877c2.469-.644,3.7-1.562,3.472-2.175s-1.776.117-4.243.761-4.189,1.129-3.959,1.745S430.952,7329.521,433.422,7328.877Z" transform="translate(-418.659 -7317.181)" fill="#ffd9a4"/>
            </g>
            <g id="Group_11291" data-name="Group 11291">
              <path id="Path_15145" data-name="Path 15145" d="M286.081,7207.818c-8.18-4.644-27.414,48.286-27.354,50.287,0,0,4.227,3.084,5.9,1.417C268.954,7255.208,289.733,7209.891,286.081,7207.818Z" transform="translate(-258.728 -7207.529)" fill="#0080af"/>
              <path id="Path_15146" data-name="Path 15146" d="M304.988,7335c2.183,7.06-38.489,11.754-40.014,11.36,0,0-3.335-4.517-1.773-5.506C267.243,7338.3,304.012,7331.851,304.988,7335Z" transform="translate(-261.499 -7294.033)" fill="#0080af"/>
              <path id="Path_15147" data-name="Path 15147" d="M382.1,7332.139l-1.238-1.89-8.573-.554s1.453,3.724,2.253,4.3S382.1,7332.139,382.1,7332.139Z" transform="translate(-336.305 -7290.987)" fill="#eaeaea"/>
              <path id="Path_15148" data-name="Path 15148" d="M388.193,7336.9l.365,2.244-6.027,6.131s-1.455-3.764-1.249-4.729S388.193,7336.9,388.193,7336.9Z" transform="translate(-342.436 -7295.908)" fill="#eaeaea"/>
            </g>
          </g>
        </g>
      </g>
    </g>
    <g id="Group_11296" data-name="Group 11296" transform="translate(39.355 6713.933)">
      <rect id="Rectangle_3547" data-name="Rectangle 3547" width="66.421" height="34.262" rx="6.672" transform="translate(26 -7.66)" fill="#fff" stroke="#231f20" stroke-miterlimit="10" stroke-width="0.25"/>
      <text id="Akiko" transform="translate(46.21 12.971)" fill="#2d356b" font-size="10" font-family="TrebuchetMS-Bold, Trebuchet MS" font-weight="700"><tspan x="0" y="0">Akiko</tspan></text>
    </g>
    <g id="Group_11313" data-name="Group 11313" transform="translate(270.721 6629.074)">
      <path id="Path_15149" data-name="Path 15149" d="M1057.073,7227.1l-35.032,3.442a6.635,6.635,0,0,1-7.284-6.6v-64a6.636,6.636,0,0,1,7.229-6.608l42.692,3.838c.134.013.269.017.4.021a6.342,6.342,0,0,1,6.1,7.366l-8.194,56.884A6.636,6.636,0,0,1,1057.073,7227.1Z" transform="translate(-929.721 -7104.758)" fill="#fff4ba"/>
      <g id="Group_11299" data-name="Group 11299" transform="translate(0 75.898)">
        <g id="Group_11297" data-name="Group 11297">
          <path id="Rectangle_3548" data-name="Rectangle 3548" d="M5.264,0H54.19a5.264,5.264,0,0,1,5.264,5.264V35.921a5.265,5.265,0,0,1-5.265,5.265H5.265A5.265,5.265,0,0,1,0,35.921V5.264A5.264,5.264,0,0,1,5.264,0Z" transform="translate(0.456)" fill="#ebebeb"/>
          <rect id="Rectangle_3549" data-name="Rectangle 3549" width="60.365" height="2.973" transform="translate(0 42.406)" fill="#ebebeb"/>
          <rect id="Rectangle_3550" data-name="Rectangle 3550" width="2.973" height="7.138" transform="translate(8.053 36.782)" fill="#ebebeb"/>
          <rect id="Rectangle_3551" data-name="Rectangle 3551" width="2.973" height="7.138" transform="translate(49.246 36.782)" fill="#ebebeb"/>
        </g>
        <g id="Group_11298" data-name="Group 11298" transform="translate(23.202 12.426)">
          <path id="Path_15150" data-name="Path 15150" d="M819.6,7285.826a6.98,6.98,0,1,1,6.98,6.982A6.988,6.988,0,0,1,819.6,7285.826Zm2.66,0a4.32,4.32,0,1,0,4.32-4.319A4.325,4.325,0,0,0,822.265,7285.826Z" transform="translate(-819.605 -7278.847)" fill="#7b88ac"/>
        </g>
      </g>
      <path id="Path_15151" data-name="Path 15151" d="M944.569,7028.53c-7.086-10.981,9.435-30.259,19.149-27.921,0,0,20.08-6.8,25.277,28.991.229,1.583-5.938,3.566-4.818,6.809s.709,2.975-.344,5.006-4.674.817-4.984,2.148c-.853,3.659,5.884,3.833,7.187,1.57,0,0-11.974,14.221-24.626.835C960.682,7045.2,946.434,7031.422,944.569,7028.53Z" transform="translate(-880.599 -7000.093)" fill="#fff4ba"/>
      <g id="Group_11306" data-name="Group 11306" transform="translate(57.29 35.416)">
        <g id="Group_11300" data-name="Group 11300" transform="translate(5.073)">
          <path id="Path_15152" data-name="Path 15152" d="M1010.673,7111.869l-8.258,5.927-.4,18.672,6.749-2.923Z" transform="translate(-983.382 -7111.869)" fill="#f6cda2"/>
          <path id="Path_15153" data-name="Path 15153" d="M947.9,7260.088c18.475,9.571,24.982,5.147,35.306,4.053-.688-14.7-9.64-24.255-10.41-34.516-1.431-19.019,13.369-42.375-.547-50.156-14.778-8.259-29.052,34.977-29.052,34.977C957.9,7221.564,952.525,7236.953,947.9,7260.088Z" transform="translate(-943.198 -7157.333)" fill="#9ea9fc"/>
          <path id="Path_15154" data-name="Path 15154" d="M1003.372,7176.22l-2.514-.141-10.513,11.189,3.477,2.587S1000.839,7181.756,1003.372,7176.22Z" transform="translate(-975.407 -7155.733)" fill="#fff"/>
          <path id="Path_15155" data-name="Path 15155" d="M976.076,7190.163l-.163-.1c2.583-6.058,8.465-15.455,14.717-15.26C985.283,7180.195,976.076,7190.163,976.076,7190.163Z" transform="translate(-965.547 -7154.856)" fill="#f6cda2"/>
        </g>
        <g id="Group_11305" data-name="Group 11305" transform="translate(0 25.215)">
          <g id="Group_11304" data-name="Group 11304">
            <g id="Group_11303" data-name="Group 11303" transform="translate(0 54.033)">
              <g id="Group_11301" data-name="Group 11301" transform="translate(7.235 0.288)">
                <path id="Path_15156" data-name="Path 15156" d="M964.146,7367.157c-2.156,3.348-5.032,3.314-5.688,2.591-.226-.249,1.911-2.483,3.952-6.672C962.881,7362.107,965.494,7365.065,964.146,7367.157Z" transform="translate(-955.773 -7362.886)" fill="#f8c471"/>
                <path id="Path_15157" data-name="Path 15157" d="M952.872,7379.069c-1.56,1.166-3.208,1.875-2.786,2.44s2.248.206,3.808-.958,2.266-2.169,1.841-3.259C955.474,7376.623,954.433,7377.9,952.872,7379.069Z" transform="translate(-950.019 -7372.602)" fill="#f8c471"/>
              </g>
              <g id="Group_11302" data-name="Group 11302">
                <path id="Path_15158" data-name="Path 15158" d="M967.284,7369.105c-6.77-2.907-12.906,2.729-13.294-.726-.349-3.093,3.667-8.581,13.973-2.286Z" transform="translate(-945.483 -7362.813)" fill="#ffd9a4"/>
                <path id="Path_15159" data-name="Path 15159" d="M955.051,7363.147c.326,3.725-5.649,6.573-7.814,6.455-2.38-.133-4.24-4.052-3.464-5.785S954.867,7361.049,955.051,7363.147Z" transform="translate(-938.395 -7361.978)" fill="#ffd9a4"/>
                <path id="Path_15160" data-name="Path 15160" d="M932.412,7380.265c-2.216.977-4.081,2.316-3.781,3s2.131-.012,4.663-1.156c1.738-.784,5.258-1.222,4.96-1.9S934.955,7379.145,932.412,7380.265Z" transform="translate(-928.152 -7373.984)" fill="#ffd9a4"/>
                <path id="Path_15161" data-name="Path 15161" d="M939.36,7371.673c-1.467.387-1.811,1.154-1.351,1.711s1.305.086,2.773-.3,2.331-.757,1.869-1.314S940.828,7371.289,939.36,7371.673Z" transform="translate(-934.449 -7368.392)" fill="#ffd9a4"/>
                <path id="Path_15162" data-name="Path 15162" d="M930.6,7375.722c1.323-.742,1.464-1.572.878-2s-1.285.244-2.608.986-2.066,1.317-1.479,1.742S929.275,7376.462,930.6,7375.722Z" transform="translate(-927.186 -7369.913)" fill="#ffd9a4"/>
                <path id="Path_15163" data-name="Path 15163" d="M941.936,7363.337c-1.492.271-1.9,1.01-1.479,1.6s1.295.187,2.788-.084,2.382-.575,1.964-1.166S943.429,7363.066,941.936,7363.337Z" transform="translate(-936.147 -7362.794)" fill="#ffd9a4"/>
                <path id="Path_15164" data-name="Path 15164" d="M932.723,7366.779c1.377-.637,1.581-1.453,1.03-1.921s-1.3.145-2.677.782-2.162,1.153-1.61,1.621S931.345,7367.416,932.723,7366.779Z" transform="translate(-928.622 -7363.833)" fill="#ffd9a4"/>
              </g>
            </g>
            <path id="Path_15165" data-name="Path 15165" d="M1029.22,7191.811c7.776-5.151,30.408,45.906,30.484,47.889,0,0-3.972,3.34-5.741,1.8C1049.39,7237.531,1025.748,7194.111,1029.22,7191.811Z" transform="translate(-996.653 -7191.446)" fill="#7b88ac"/>
            <path id="Path_15166" data-name="Path 15166" d="M995.819,7348.943c.8,7.284,39.651-4.52,40.884-5.479,0,0,1.248-5.427-.564-5.709C1031.45,7337.024,995.46,7345.689,995.819,7348.943Z" transform="translate(-974.071 -7291.367)" fill="#7b88ac"/>
            <path id="Path_15167" data-name="Path 15167" d="M986.187,7360.046l.469-2.19,7.731-3.579s-.012,3.963-.545,4.783S986.187,7360.046,986.187,7360.046Z" transform="translate(-967.492 -7302.684)" fill="#f5f6f6"/>
            <path id="Path_15168" data-name="Path 15168" d="M986.108,7371.977l.465,2.206,7.769,3.514s0-4-.537-4.82S986.108,7371.977,986.108,7371.977Z" transform="translate(-967.438 -7314.775)" fill="#f5f6f6"/>
          </g>
        </g>
      </g>
      <g id="Group_11312" data-name="Group 11312" transform="translate(66.001 6.007)">
        <g id="Group_11311" data-name="Group 11311">
          <g id="Group_11310" data-name="Group 11310">
            <g id="Group_11309" data-name="Group 11309">
              <g id="Group_11308" data-name="Group 11308">
                <g id="Group_11307" data-name="Group 11307" transform="translate(0 2.769)">
                  <path id="Path_15169" data-name="Path 15169" d="M968.787,7069.659c-1.661.292-6.135-7.772-8.173-14.2-.672-2.119,1.62-2.783.177-10.162-.847-4.332.106-10.7,6.63-16.292,6.158-5.278,9.03,8.122,10.164,11.134,3.231,8.583,6.474,13.761,4.95,18.455C979.558,7067.762,970.507,7068.917,968.787,7069.659Z" transform="translate(-958.647 -7027.789)" fill="#ffd8a3"/>
                  <path id="Path_15170" data-name="Path 15170" d="M979.82,7122.6a.39.39,0,0,0-.419-.354.409.409,0,0,0-.255.5.389.389,0,0,0,.42.354A.408.408,0,0,0,979.82,7122.6Z" transform="translate(-971.388 -7092.313)" fill="#ffab00"/>
                  <path id="Path_15171" data-name="Path 15171" d="M971.918,7084.482c-.244-1.161-1.087-1.954-1.881-1.774s-1.244,1.269-1,2.43,1.087,1.953,1.882,1.773S972.162,7085.643,971.918,7084.482Z" transform="translate(-964.442 -7065.29)" fill="#2d356b"/>
                  <path id="Path_15172" data-name="Path 15172" d="M970.265,7084.264c-1.406-1.419-3.292-2.75-6.161-1.146A11.34,11.34,0,0,1,970.265,7084.264Z" transform="translate(-961.118 -7065.088)" fill="#2d356b"/>
                  <path id="Path_15173" data-name="Path 15173" d="M973.207,7139.28c-.1-.262-.762.844-1.152.947-1.1.291-.533,1.662.546,1.256C973.022,7141.326,973.309,7139.558,973.207,7139.28Z" transform="translate(-966.143 -7103.926)" fill="#f36973"/>
                  <path id="Path_15174" data-name="Path 15174" d="M969.7,7124.067c.7-.434-4.666-1.01-3.436.561C966.662,7124.908,969.339,7124.29,969.7,7124.067Z" transform="translate(-962.468 -7093.24)" fill="#f36973"/>
                  <path id="Path_15175" data-name="Path 15175" d="M971.58,7064.783a6.912,6.912,0,0,1-7.7-5.388C965.71,7062.734,967.288,7064.1,971.58,7064.783Z" transform="translate(-960.966 -7049.381)" fill="#2d356b"/>
                  <path id="Path_15176" data-name="Path 15176" d="M956.041,7101.975l2.708.336-1.057-6.581-3.013,5.343Z" transform="translate(-954.68 -7074.204)" fill="#ffd8a3"/>
                  <path id="Path_15177" data-name="Path 15177" d="M960.366,7117.693l-2.71-3.715,1.917-.406Z" transform="translate(-956.714 -7086.391)" fill="#ffd8a3"/>
                  <path id="Path_15178" data-name="Path 15178" d="M967.89,7129.984a49.175,49.175,0,0,1-2.266-5.476l4.642-.813S970.2,7128.771,967.89,7129.984Z" transform="translate(-962.156 -7093.307)" fill="#ffab00"/>
                  <path id="Path_15179" data-name="Path 15179" d="M970.01,7127.382l-2.644.463c-.278-.688-.551-1.413-.817-2.166l3.794-.665Z" transform="translate(-962.788 -7094.209)" fill="#fff"/>
                  <path id="Path_15180" data-name="Path 15180" d="M1029.956,7085.333c-.459-2.007-1.406-3.379.117-3.724s3.134,1,3.594,3.011-.408,3.915-1.933,4.262S1030.413,7087.342,1029.956,7085.333Z" transform="translate(-1005.616 -7064.52)" fill="#f7c371"/>
                </g>
                <path id="Path_15181" data-name="Path 15181" d="M973.313,7019.075c1.9,4.641,7.261,16.276,14.445,17.58,0,0,2.443-11.315-4.536-14.31C974.411,7018.563,973.313,7019.075,973.313,7019.075Z" transform="translate(-967.409 -7019.051)" fill="#fff4ba"/>
              </g>
            </g>
          </g>
        </g>
      </g>
    </g>
    <g id="Group_11314" data-name="Group 11314" transform="translate(68.741 6750.062)">
      <path id="Path_15182" data-name="Path 15182" d="M534.006,7393.454l-322.537-3.425,7.865,40.05H526.653Z" transform="translate(-196.915 -7387.465)" fill="#2d356b"/>
      <path id="Path_15183" data-name="Path 15183" d="M513.828,7381.938H165.536l5.072,9.167,339.837-3.055Z" transform="translate(-165.536 -7381.938)" fill="#7b88ac"/>
    </g>
    <g id="Group_11315" data-name="Group 11315" transform="translate(368.837 6712.933)">
      <rect id="Rectangle_3552" data-name="Rectangle 3552" width="66.421" height="34.262" rx="6.672" transform="translate(-22.067 -6.66)" fill="#fff" stroke="#231f20" stroke-miterlimit="10" stroke-width="0.25"/>
      <text id="Helen" transform="translate(-2.357 13.971)" fill="#2d356b" font-size="10" font-family="TrebuchetMS-Bold, Trebuchet MS" font-weight="700"><tspan x="0" y="0">Helen</tspan></text>
    </g>
  </g>
</svg>
