<svg xmlns="http://www.w3.org/2000/svg" width="163" height="142.115" viewBox="0 0 163 142.115">
  <g id="Group_16317" data-name="Group 16317" transform="translate(-426 -3523.025)">
    <g id="Group_16295" data-name="Group 16295" transform="translate(537.45 3526.606)">
      <g id="Group_16294" data-name="Group 16294" transform="translate(0 0)">
        <g id="Group_16285" data-name="Group 16285" transform="translate(16.208 52.845)">
          <path id="Path_18455" data-name="Path 18455" d="M956.116,4954.67c-1.4,9.252-5.019,18.923-5.509,23.315s.085,10.768-1.634,26.573c-.042.391-1.006.042-1.006.042,1-15.6-1.046-23.952-.825-25.254s-1.946-22.443-3.372-29.56C947.62,4949.514,956.116,4954.67,956.116,4954.67Z" transform="translate(-943.769 -4946.845)" fill="#2d356b"/>
          <path id="Path_18456" data-name="Path 18456" d="M945.162,4939.546s8.992.343,11.327.6c2.7,6.894-2.75,13.945,1.7,35.245,1.286,6.152,3.146,10.782,4.285,22.721h-1.338c-.888-10.827-3.4-16.847-5.469-22.376C948.505,4956.572,943.984,4952.979,945.162,4939.546Z" transform="translate(-944.63 -4939.546)" fill="#40558e"/>
          <path id="Path_18457" data-name="Path 18457" d="M992,5142.284h4.655s-.313-1.283-1.239-1.219A16.937,16.937,0,0,0,992,5142.284Z" transform="translate(-978.184 -5083.326)" fill="#9898a4"/>
          <path id="Path_18458" data-name="Path 18458" d="M948.279,5141.852l4.2.451s-.009-1.49-.855-1.507A14.769,14.769,0,0,0,948.279,5141.852Z" transform="translate(-946.987 -5083.136)" fill="#9898a4"/>
          <path id="Path_18459" data-name="Path 18459" d="M946.642,4941.833l10.672.469-.068,1.082-10.672-.469Z" transform="translate(-945.77 -4941.178)" fill="#cecfd7"/>
          <rect id="Rectangle_1744" data-name="Rectangle 1744" width="2.053" height="0.77" transform="matrix(0.044, -0.999, 0.999, 0.044, 9.245, 2.727)" fill="#40558d"/>
          <rect id="Rectangle_1745" data-name="Rectangle 1745" width="2.053" height="0.77" transform="matrix(0.044, -0.999, 0.999, 0.044, 6.85, 2.727)" fill="#40558d"/>
          <rect id="Rectangle_1746" data-name="Rectangle 1746" width="2.054" height="0.77" transform="translate(4.283 2.641) rotate(-87.472)" fill="#40558d"/>
          <rect id="Rectangle_1747" data-name="Rectangle 1747" width="2.053" height="0.77" transform="translate(1.631 2.385) rotate(-87.473)" fill="#40558d"/>
        </g>
        <g id="Group_16293" data-name="Group 16293">
          <g id="Group_16286" data-name="Group 16286" transform="translate(5.87 12.145)">
            <path id="Path_18460" data-name="Path 18460" d="M915.464,4829.734l.569-.034.7,1.181-.945.931Z" transform="translate(-913.235 -4820.472)" fill="#eaeaea"/>
            <path id="Path_18461" data-name="Path 18461" d="M913.471,4801.18l3.957-3.688,3.351,7.463-5.885,4.753Z" transform="translate(-911.813 -4797.492)" fill="#f7c371"/>
            <path id="Path_18462" data-name="Path 18462" d="M917.585,4895.981l9.985-.975,6.05,13.072-7.7,3.619Z" transform="translate(-914.749 -4867.067)" fill="#eaeaea"/>
            <path id="Path_18463" data-name="Path 18463" d="M937.638,4856.333c-5.7,2.213-13.128,2.865-18.725-2.389-3.028-2.844-5.431-8.619-7.922-14.294-3.331-7.586.984-21.171,8.718-21.755,10.749-.81,9.747,14.173,10.007,17.906C930.476,4846.739,936.521,4854.3,937.638,4856.333Z" transform="translate(-909.233 -4812.027)" fill="#7b88ac"/>
            <path id="Path_18464" data-name="Path 18464" d="M959.859,4872.761c-.972-2.542-3.044-10.729-1.941-21.254.214-2.042-.831-7.436-1.586-11.988-.282-1.7,3.613.168,5.6,3.8,1.23,2.254.839,6.05.938,7.479.761,10.937,6.806,18.494,7.923,20.532A21.37,21.37,0,0,1,959.859,4872.761Z" transform="translate(-942.383 -4827.025)" fill="#2d356b"/>
            <path id="Path_18465" data-name="Path 18465" d="M914.775,4846.271c-3.426-10.148.358-22.966,6.14-28.463.971-.924-.405-1.372-3.583.236C914.493,4819.494,904.982,4830.067,914.775,4846.271Z" transform="translate(-909.659 -4811.393)" fill="#2d356b"/>
            <path id="Path_18466" data-name="Path 18466" d="M910.97,4842.3c-2.179-8.808-.791-14.435,4.817-21.592-2.767,1.415-12.654,9.833-4.063,25.275C911.943,4846.376,911.347,4843.821,910.97,4842.3Z" transform="translate(-908.115 -4814.055)" fill="#7b88ac"/>
            <path id="Path_18467" data-name="Path 18467" d="M936.745,4934.167c-.185-.332-.15-.7.079-.832s.564.036.75.367.151.7-.078.832S936.931,4934.5,936.745,4934.167Z" transform="translate(-928.334 -4894.383)" fill="#2d356b"/>
            <path id="Path_18468" data-name="Path 18468" d="M929.072,4920.477c-.185-.331-.15-.7.078-.832s.564.037.75.367.151.7-.078.832S929.257,4920.808,929.072,4920.477Z" transform="translate(-922.859 -4884.615)" fill="#2d356b"/>
            <path id="Path_18469" data-name="Path 18469" d="M918.294,4830.534l-1.475,1.267-.139-2.1.255-.3Z" transform="translate(-914.103 -4820.259)" fill="#ffb2b0"/>
            <path id="Path_18470" data-name="Path 18470" d="M911.655,4857.8l-.8-3.586s-5.684-9.927-.162-18.217l-.2-.229C906.036,4842.784,907.226,4851.351,911.655,4857.8Z" transform="translate(-907.685 -4824.8)" fill="#ffb2b0"/>
            <path id="Path_18471" data-name="Path 18471" d="M915.464,4818.724l6.009-4.455,1.388,1.009-5.35,5.113Z" transform="translate(-913.235 -4809.462)" fill="#fff"/>
          </g>
          <g id="Group_16288" data-name="Group 16288" transform="translate(12.838 18.883)">
            <path id="Path_18472" data-name="Path 18472" d="M945.97,4843.25c2.248-.513-4.6-21.846-7.673-22.24,0,0-5.733,1.19-6.291,11.754C932.006,4832.764,939.293,4844.768,945.97,4843.25Z" transform="translate(-932.006 -4821.01)" fill="#40558e"/>
            <g id="Group_16287" data-name="Group 16287" transform="translate(4.74 39.974)">
              <path id="Path_18473" data-name="Path 18473" d="M959.97,4960.809c-.431,1.6,1.157,5.377-.283,5.544-1.29.151-3.584-1.516-.974-5.823Z" transform="translate(-954.949 -4960.53)" fill="#ffd9a4"/>
              <path id="Path_18474" data-name="Path 18474" d="M957.455,4968.916c2.26-.41,2.749,2.346,2.7,3.248a2.065,2.065,0,0,1-2.407,1.454C957.027,4973.3,956.591,4969.073,957.455,4968.916Z" transform="translate(-954.563 -4966.484)" fill="#ffd9a4"/>
              <path id="Path_18475" data-name="Path 18475" d="M951.213,4972.9c-.831,1.07-2.294,1.893-2.606,1.479-.353-.466,1.039-.937,1.551-2.078.557-1.234.972-1.981,1.459-1.792S952.046,4971.834,951.213,4972.9Z" transform="translate(-948.55 -4967.631)" fill="#ffd9a4"/>
              <path id="Path_18476" data-name="Path 18476" d="M958.134,4980.425c-.066,1.158-.367,1.748-.672,1.695s-.227-.71-.162-1.867-.14-2.645.166-2.592S958.2,4979.267,958.134,4980.425Z" transform="translate(-954.75 -4972.751)" fill="#ffd9a4"/>
              <path id="Path_18477" data-name="Path 18477" d="M962.608,4982.208c.172,1.171-.2,2.259-.5,2.269s-.205-1.1-.376-2.272-.22-1.939.084-1.948S962.436,4981.039,962.608,4982.208Z" transform="translate(-957.855 -4974.605)" fill="#ffd9a4"/>
              <path id="Path_18478" data-name="Path 18478" d="M966.556,4978.176c.124,1.176-.073,1.86-.376,1.861s-.239-.789-.363-1.964-.194-2,.11-2S966.432,4977,966.556,4978.176Z" transform="translate(-960.794 -4971.618)" fill="#ffd9a4"/>
            </g>
            <path id="Path_18479" data-name="Path 18479" d="M945,4872.779c-7.278.815-12.5-9.751-12.5-9.751a4.283,4.283,0,0,1,.125-1.032C937.13,4869.9,945.307,4872.746,945,4872.779Z" transform="translate(-932.357 -4850.253)" fill="#2d356b"/>
            <path id="Path_18480" data-name="Path 18480" d="M959.926,4961.613l1.161-2.347-3.849-.815.23,2.558Z" transform="translate(-950.009 -4919.072)" fill="#eaeaea"/>
            <path id="Path_18481" data-name="Path 18481" d="M961.85,4890.48s.432,6.963-3.485,20.547c0,0-1.46.572-3.768-.9,0,0-2.136-12.047.008-18.977C954.606,4891.15,959.981,4888.474,961.85,4890.48Z" transform="translate(-947.449 -4870.044)" fill="#40558e"/>
            <path id="Path_18482" data-name="Path 18482" d="M961.61,4954.045a.553.553,0,1,1-.538-.668A.614.614,0,0,1,961.61,4954.045Z" transform="translate(-952.355 -4915.452)" fill="#2d356b"/>
          </g>
          <g id="Group_16292" data-name="Group 16292">
            <path id="Path_18483" data-name="Path 18483" d="M900.353,4767.438c1.612-5.271-1.391-11.57-1.643-11.729-2.7-1.691-7.346.521-9.463,2.178-1.785,1.4-2.895,3.182-1.23,4.331.575.4,1.657-1.506,2.174-1.648.976-.269,6.914,12.214,6.914,12.214Z" transform="translate(-887.198 -4755.103)" fill="#ffac00"/>
            <g id="Group_16290" data-name="Group 16290" transform="translate(1.684 4.429)">
              <g id="Group_16289" data-name="Group 16289">
                <path id="Path_18484" data-name="Path 18484" d="M901.242,4811.413l-.815-.607.479-.67Z" transform="translate(-898.321 -4798.797)" fill="#ffd8a3"/>
                <path id="Path_18485" data-name="Path 18485" d="M903.395,4780.793c.063,1.241-2.323,4.928-5.7,6.139-2.143-4.153-4.9-11.328-4.6-12.871.3-1.518,3.112-3.692,3.651-3.489-.591,1.858,3.168,5.7,4.019,5.847C902.843,4776.772,903.33,4779.5,903.395,4780.793Z" transform="translate(-893.077 -4770.56)" fill="#ffd8a3"/>
                <path id="Path_18486" data-name="Path 18486" d="M896.53,4802.726a32.986,32.986,0,0,0,.138-4.3c-.062-1.561,1.822,3.5,1.822,3.5S897.154,4802.864,896.53,4802.726Z" transform="translate(-895.541 -4790.226)" fill="#ffd8a3"/>
                <path id="Path_18487" data-name="Path 18487" d="M906.754,4825.061c-.392,0-.689-.254-.662-.556a.709.709,0,0,1,.761-.538c.393,0,.689.253.662.555A.711.711,0,0,1,906.754,4825.061Z" transform="translate(-902.362 -4808.665)" fill="#ffd8a3"/>
                <path id="Path_18488" data-name="Path 18488" d="M904.666,4819.831c-.047-.083.016-.208.141-.279s.264-.062.311.02-.016.207-.14.278S904.713,4819.914,904.666,4819.831Z" transform="translate(-901.334 -4805.481)" fill="#ffd8a3"/>
              </g>
              <path id="Path_18489" data-name="Path 18489" d="M920.33,4787.438a1.5,1.5,0,0,1,.843-1.793c.6-.13,1.2.463,1.341,1.322a1.929,1.929,0,0,1-1.344,1.886C920.567,4788.982,920.467,4788.3,920.33,4787.438Z" transform="translate(-912.501 -4781.31)" fill="#ffd8a3"/>
            </g>
            <path id="Path_18490" data-name="Path 18490" d="M903.733,4815.57l.523,1.065s.5-.063.567-.2a2.156,2.156,0,0,0-.034-1.1Z" transform="translate(-898.995 -4798.074)" fill="#ffab00"/>
            <path id="Path_18491" data-name="Path 18491" d="M903.893,4815.765l.465.946a1.36,1.36,0,0,0,.433-.109,1.55,1.55,0,0,0-.027-1.043Z" transform="translate(-899.11 -4798.238)" fill="#fff"/>
            <path id="Path_18492" data-name="Path 18492" d="M896.376,4792.6a.457.457,0,0,0,0,.325c.107.256,1.787.367,1.888.046l.063-.2c.073-.23-.467-.162-.94-.271-.452-.1-.837-.4-.912-.183Z" transform="translate(-893.726 -4781.601)" fill="#2d356b"/>
            <path id="Path_18493" data-name="Path 18493" d="M900.633,4798.1a.507.507,0,0,1,.093-.637c.167-.1.4.035.512.291a.507.507,0,0,1-.092.638C900.979,4798.491,900.75,4798.36,900.633,4798.1Z" transform="translate(-896.737 -4785.307)" fill="#2d356b"/>
            <path id="Path_18494" data-name="Path 18494" d="M907.286,4815.21a.048.048,0,0,1,.039-.078.131.131,0,0,1,.119.055.048.048,0,0,1-.039.077A.131.131,0,0,1,907.286,4815.21Z" transform="translate(-901.524 -4797.933)" fill="#ffab00"/>
            <g id="Group_16291" data-name="Group 16291" transform="translate(0.073 1.805)">
              <path id="Path_18495" data-name="Path 18495" d="M906.935,4772.573c-1.382.711,3.608,6.207,3.083,6.979s.415,1,.734.688c.729-.7.1-2.592-.335-3.777C909.93,4775.143,907.052,4772.514,906.935,4772.573Z" transform="translate(-901.179 -4769.372)" fill="#ffac00"/>
              <path id="Path_18496" data-name="Path 18496" d="M887.777,4766.53a2.366,2.366,0,0,1,.879-3.187c1.155-.831,4.808-2.607,5.476-1.678s-1.9,4.215-3.054,5.044A2.364,2.364,0,0,1,887.777,4766.53Z" transform="translate(-887.451 -4761.403)" fill="#ffac00"/>
            </g>
          </g>
        </g>
      </g>
    </g>
    <g id="Group_16309" data-name="Group 16309" transform="translate(492.393 3523.025)">
      <g id="Group_16296" data-name="Group 16296" transform="translate(10.404 45.466)">
        <path id="Path_18497" data-name="Path 18497" d="M780.84,4903.326l6.114.583c4.639,16.1-4.342,38.272.72,68.559,0,0-1.065.438-1.133,0C781.449,4939.489,785.507,4925.693,780.84,4903.326Z" transform="translate(-776.66 -4902.742)" fill="#f7c371"/>
        <path id="Path_18498" data-name="Path 18498" d="M768.913,4913.585c-4.762,11.926-.333,10.378.975,15.942,4.892,20.821-.093,25.169.144,50.636,0,0,1.389-.284,1.374-.65-.812-20.22,8.638-41.168,6.641-59.745C777.721,4916.74,768.913,4913.585,768.913,4913.585Z" transform="translate(-766.613 -4910.062)" fill="#ffd8a3"/>
        <path id="Path_18499" data-name="Path 18499" d="M781.3,5142.609h-4.242s-.205-1.169.741-1.357C778.395,5141.134,779.449,5141.407,781.3,5142.609Z" transform="translate(-773.949 -5072.481)" fill="#7b87ab"/>
        <path id="Path_18500" data-name="Path 18500" d="M804.445,5142.609h-3.729s-.18-1.17.652-1.357C801.891,5141.134,802.817,5141.406,804.445,5142.609Z" transform="translate(-790.829 -5072.481)" fill="#7b87ab"/>
        <path id="Path_18501" data-name="Path 18501" d="M766.677,4935.445a47.548,47.548,0,0,0,11.966,1.056s3.48-23.77-1.293-32.661a4.9,4.9,0,0,0-8.154-.675C762.435,4912.116,769.892,4919.863,766.677,4935.445Z" transform="translate(-766.252 -4901.289)" fill="#fff3b9"/>
      </g>
      <g id="Group_16308" data-name="Group 16308" transform="translate(0)">
        <g id="Group_16307" data-name="Group 16307">
          <g id="Group_16306" data-name="Group 16306">
            <g id="Group_16303" data-name="Group 16303">
              <g id="Group_16302" data-name="Group 16302">
                <g id="Group_16297" data-name="Group 16297" transform="translate(0 0.878)">
                  <path id="Path_18502" data-name="Path 18502" d="M750.657,4771.36c2.544-2.6-1.6-3.05-1.481-5.264s.627-1.53.9-4.392-.519-3.9-.619-5.56.936-4.412-.071-6.487-1.565-1.348-2.44-3-1.615.2-2.978.975-3.051-3.176-5.437-1.587-2.075,4.669-2.757,6.418-3.074,2.513-3.369,5.619,1.409,2.36.689,4.519-2.858,2.038-3.152,5.145c0,0-.209,3.114,3.253,2.864s2.424,1.632,6.157.337,2.556,2.057,5.173.737S748.384,4773.685,750.657,4771.36Z" transform="translate(-729.938 -4745.667)" fill="#2d356b"/>
                </g>
                <g id="Group_16298" data-name="Group 16298" transform="translate(10.586 10.76)">
                  <path id="Path_18503" data-name="Path 18503" d="M774.814,4780.158l3.2,2.008.574,6.913-2.568-.929Z" transform="translate(-772.543 -4780.158)" fill="#f7c371"/>
                  <path id="Path_18504" data-name="Path 18504" d="M779,4840.019c-2.054-1.346-6.824-4.32-12.113-.637,1.582-4.646,3.019-9.212,3.07-13.034.095-7.083-5.926-15.4-.944-18.606,5.289-3.4,11.57,12.3,11.57,12.3C775.294,4823.019,776.757,4831.548,779,4840.019Z" transform="translate(-766.888 -4799.495)" fill="#ffe200"/>
                  <path id="Path_18505" data-name="Path 18505" d="M775.578,4806.446l.929-.109,4.153,3.907-1.229,1.038A28.917,28.917,0,0,1,775.578,4806.446Z" transform="translate(-773.088 -4798.836)" fill="#fff"/>
                  <path id="Path_18506" data-name="Path 18506" d="M785.013,4811.123c.02-.014.038-.028.058-.043-1.1-2.187-3.491-5.535-5.8-5.32C781.372,4807.639,785.013,4811.123,785.013,4811.123Z" transform="translate(-775.72 -4798.417)" fill="#f7c371"/>
                </g>
                <g id="Group_16301" data-name="Group 16301" transform="translate(7.354)">
                  <g id="Group_16300" data-name="Group 16300">
                    <path id="Path_18507" data-name="Path 18507" d="M763.919,4757.043c-1.7-.468-5.137-1.014-6.791-3.588-2.15-3.347-1.6-5.417-.887-7.935,1.366-4.8,9.555-2.553,9.043-1.139C764.6,4746.26,770.1,4758.738,763.919,4757.043Z" transform="translate(-755.605 -4742.601)" fill="#2d356b"/>
                    <path id="Path_18508" data-name="Path 18508" d="M780,4762.131c.622,0,1.733-3.212,2.065-5.675.109-.812-.765-.908-.711-3.678a6.277,6.277,0,0,0-3.443-5.494c-2.572-1.525-2.763,3.523-2.983,4.689-.627,3.322-1.476,5.408-.624,7.015C775.965,4762.126,779.324,4761.97,780,4762.131Z" transform="translate(-768.688 -4745.738)" fill="#ffd8a3"/>
                    <path id="Path_18509" data-name="Path 18509" d="M800.589,4774.613l-.962.295-.035-2.457,1.434,1.749Z" transform="translate(-786.989 -4763.898)" fill="#ffd8a3"/>
                    <path id="Path_18510" data-name="Path 18510" d="M800.95,4781.127l.748-1.521-.722-.025Z" transform="translate(-787.958 -4768.986)" fill="#ffd8a3"/>
                    <path id="Path_18511" data-name="Path 18511" d="M768.932,4772.927c.039-.757.3-1.316-.279-1.345s-1.074.563-1.113,1.322a1.244,1.244,0,0,0,.973,1.425C769.089,4774.357,768.894,4773.686,768.932,4772.927Z" transform="translate(-764.119 -4763.278)" fill="#f7c371"/>
                    <path id="Path_18512" data-name="Path 18512" d="M793.438,4770.906a1.7,1.7,0,0,1-2.244.549A4.186,4.186,0,0,0,793.438,4770.906Z" transform="translate(-780.997 -4762.796)" fill="#ffd8a3"/>
                    <g id="Group_16299" data-name="Group 16299" transform="translate(9.275 5.088)">
                      <path id="Path_18513" data-name="Path 18513" d="M796.426,4788.782c-.051.226.209.263.539.337s.433.209.538-.042a.448.448,0,0,0-.388-.568C796.785,4788.435,796.477,4788.557,796.426,4788.782Z" transform="translate(-794.001 -4780.429)" fill="#f36973"/>
                      <path id="Path_18514" data-name="Path 18514" d="M791.332,4761.624a3.719,3.719,0,0,1-3.355-1.264A4.366,4.366,0,0,0,791.332,4761.624Z" transform="translate(-787.977 -4760.36)" fill="#2d356b"/>
                      <path id="Path_18515" data-name="Path 18515" d="M792.816,4767.751a.679.679,0,0,1,.654-.692.667.667,0,0,1,.585.741.68.68,0,0,1-.654.692A.667.667,0,0,1,792.816,4767.751Z" transform="translate(-791.429 -4765.139)" fill="#2d356b"/>
                      <path id="Path_18516" data-name="Path 18516" d="M790.774,4766.532a2.235,2.235,0,0,1,2.441.878A5.7,5.7,0,0,0,790.774,4766.532Z" transform="translate(-789.973 -4764.721)" fill="#2d356b"/>
                      <path id="Path_18517" data-name="Path 18517" d="M796.978,4788.092s.022-.368-.277-.436c-.322-.072-.87.125-.9-.105a.81.81,0,0,1,1.08-.579C797.519,4787.093,797.047,4788.07,796.978,4788.092Z" transform="translate(-793.557 -4779.322)" fill="#ffab00"/>
                      <path id="Path_18518" data-name="Path 18518" d="M798.089,4787.36c0-.1-.087-.294-.483-.384a.834.834,0,0,0-.787.145C797.1,4787.391,797.754,4787.617,798.089,4787.36Z" transform="translate(-794.286 -4779.327)" fill="#fff"/>
                    </g>
                  </g>
                  <path id="Path_18519" data-name="Path 18519" d="M779.2,4746.532c-1.825,2.757-5.021,6.788-4.252,10.717-1.617-4.182-.9-9.762,1.879-12.059C777.12,4745.609,779.6,4745.483,779.2,4746.532Z" transform="translate(-768.799 -4744.448)" fill="#2d356b"/>
                </g>
              </g>
            </g>
            <g id="Group_16305" data-name="Group 16305" transform="translate(1.246 19.685)">
              <g id="Group_16304" data-name="Group 16304" transform="translate(10.263 25.304)">
                <path id="Path_18520" data-name="Path 18520" d="M781.178,4911.541c.11-.268-.35-.517-.907-.719s-1-.284-1.112-.016.25.65.808.852S781.067,4911.81,781.178,4911.541Z" transform="translate(-776.552 -4907.48)" fill="#f7c371"/>
                <path id="Path_18521" data-name="Path 18521" d="M779.231,4913.669c.111-.269-.35-.518-.908-.719s-1-.284-1.112-.015.25.649.808.853S779.119,4913.937,779.231,4913.669Z" transform="translate(-775.162 -4908.998)" fill="#f7c371"/>
                <path id="Path_18522" data-name="Path 18522" d="M783.958,4907.67c-.254-.152-.747.432-1.231,1.143s-.779,1.278-.525,1.433.852-.3,1.337-1.011S784.211,4907.824,783.958,4907.67Z" transform="translate(-778.67 -4905.347)" fill="#ffd8a3"/>
                <path id="Path_18523" data-name="Path 18523" d="M770.851,4899.623c1.175.486,4.99,1.731,4.576,3.035-.37,1.165-2.474,2.037-5.318-2.086Z" transform="translate(-770.109 -4899.623)" fill="#ffd8a3"/>
              </g>
              <path id="Path_18524" data-name="Path 18524" d="M746.19,4811.467c-2.632-2.018-11.828,15.578-11.9,16.28,0,0,1.381,2.107,2.042,1.6C738.043,4828.049,747.365,4812.368,746.19,4811.467Z" transform="translate(-734.289 -4811.306)" fill="#fff4ba"/>
              <path id="Path_18525" data-name="Path 18525" d="M745.218,4875.464c1.985-1.558-8.422-10.612-8.928-10.8,0,0-1.817.624-1.568,1.2C735.365,4867.367,744.332,4876.159,745.218,4875.464Z" transform="translate(-734.581 -4849.379)" fill="#fff4ba"/>
              <path id="Path_18526" data-name="Path 18526" d="M764.2,4898.39l-.685.409-2.81-1.147a6.2,6.2,0,0,1,1.379-1.019C762.425,4896.572,764.2,4898.39,764.2,4898.39Z" transform="translate(-753.134 -4872.185)" fill="#eaeaea"/>
              <path id="Path_18527" data-name="Path 18527" d="M768.7,4894.12l.462-.657-.97-2.879a6.253,6.253,0,0,0-1.127,1.31C766.979,4892.234,768.7,4894.12,768.7,4894.12Z" transform="translate(-757.671 -4867.87)" fill="#eaeaea"/>
            </g>
          </g>
        </g>
      </g>
    </g>
    <g id="Group_16239" data-name="Group 16239" transform="translate(470.959 3629.978)">
      <path id="Path_18313" data-name="Path 18313" d="M655.129,5154.288v21.649H768.472l4.7-10.745-4.7-10.9Z" transform="translate(-655.129 -5154.288)" fill="#ffac00"/>
      <text id="Problem" transform="translate(34.154 16.165)" fill="#fff" font-size="14" font-family="TrebuchetMS-Bold, Trebuchet MS" font-weight="700"><tspan x="0" y="0">Problem</tspan></text>
    </g>
    <g id="Group_16316" data-name="Group 16316">
      <g id="Group_16269" data-name="Group 16269" transform="translate(426 3527.342)">
        <g id="Group_16256" data-name="Group 16256" transform="translate(4.862 0)">
          <g id="Group_16255" data-name="Group 16255">
            <path id="Path_18361" data-name="Path 18361" d="M518.4,4892.151c-4.616-6.348,1.682-9.606,1.508-15.848s-5.589-4.5-6.112-12.577,4.418-10.014,4.806-14.672-5.922-6.1-3.07-11.846,7.288-5.481,9.756-10.041,9.228-6.853,12.832-4.537,8.367-5.264,14.658-.574,5.238,13.328,6.944,18.313,8.075,7.353,8.643,16.117-3.953,6.512-2.175,12.65,7.527,6,8.1,14.764c0,0,.338,8.779-8.939,7.758s-6.627,4.367-16.556.378-7.011,5.549-13.944,1.6S523.711,4899.452,518.4,4892.151Z" transform="translate(-513.759 -4820.492)" fill="#2d356b"/>
          </g>
        </g>
        <g id="Group_16258" data-name="Group 16258" transform="translate(0 55.366)">
          <g id="Group_16257" data-name="Group 16257" transform="translate(28.017 61.215)">
            <path id="Path_18362" data-name="Path 18362" d="M620.511,5249.9c.159-.6-.882-.995-2.116-1.267s-2.19-.319-2.351.277.709,1.3,1.943,1.575S620.351,5250.5,620.511,5249.9Z" transform="translate(-609.881 -5242.41)" fill="#f7c371"/>
            <path id="Path_18363" data-name="Path 18363" d="M616.992,5254.934c.16-.6-.882-.994-2.116-1.266s-2.189-.323-2.351.275.708,1.3,1.943,1.574S616.831,5255.529,616.992,5254.934Z" transform="translate(-607.37 -5246)" fill="#f7c371"/>
            <path id="Path_18364" data-name="Path 18364" d="M626.771,5240.021c-.578-.254-1.457,1.117-2.282,2.753s-1.289,2.914-.71,3.169,1.715-.867,2.542-2.5S627.35,5240.275,626.771,5240.021Z" transform="translate(-615.228 -5236.38)" fill="#ffd8a3"/>
            <path id="Path_18365" data-name="Path 18365" d="M595.88,5227.389c2.616.7,11.013,2.269,10.5,5.135-.458,2.563-4.656,4.988-11.8-2.925Z" transform="translate(-594.578 -5227.389)" fill="#ffd8a3"/>
          </g>
          <path id="Path_18366" data-name="Path 18366" d="M520.368,5013.988c-7-4.039-23.625,41.4-23.578,43.125,0,0,4.007,4.65,5.445,3.225C505.956,5056.648,523.494,5015.791,520.368,5013.988Z" transform="translate(-496.79 -5013.734)" fill="#fff4ba"/>
          <path id="Path_18367" data-name="Path 18367" d="M526.2,5176.767c4.3-4.4-23.727-22.963-25.009-23.245,0,0-4.191,2.084-3.406,3.4C499.819,5160.337,524.282,5178.729,526.2,5176.767Z" transform="translate(-497.432 -5113.471)" fill="#fff4ba"/>
          <path id="Path_18368" data-name="Path 18368" d="M579.312,5226.271l-1.525,1.208-7.154-1.879s2.2-2.646,3.009-2.9S579.312,5226.271,579.312,5226.271Z" transform="translate(-549.476 -5162.82)" fill="#eaeaea"/>
          <path id="Path_18369" data-name="Path 18369" d="M589.075,5214.746l.907-1.735-3.259-6.647s-2.21,2.679-2.305,3.525S589.075,5214.746,589.075,5214.746Z" transform="translate(-559.311 -5151.172)" fill="#eaeaea"/>
        </g>
        <g id="Group_16260" data-name="Group 16260" transform="translate(36.31 54.305)">
          <g id="Group_16259" data-name="Group 16259" transform="translate(0 61.562)">
            <path id="Path_18370" data-name="Path 18370" d="M629.32,5250.528c-.243-.568.731-1.11,1.912-1.557s2.121-.63,2.367-.062-.515,1.391-1.7,1.837S629.564,5251.1,629.32,5250.528Z" transform="translate(-627.631 -5241.777)" fill="#f7c371"/>
            <path id="Path_18371" data-name="Path 18371" d="M633.522,5255c-.244-.569.731-1.11,1.912-1.556s2.12-.632,2.366-.064-.515,1.39-1.7,1.837S633.767,5255.57,633.522,5255Z" transform="translate(-630.629 -5244.97)" fill="#f7c371"/>
            <path id="Path_18372" data-name="Path 18372" d="M623.754,5242.461c.536-.333,1.6.9,2.653,2.4s1.693,2.7,1.156,3.035-1.822-.612-2.874-2.114S623.217,5242.795,623.754,5242.461Z" transform="translate(-623.52 -5237.391)" fill="#ffd8a3"/>
            <path id="Path_18373" data-name="Path 18373" d="M633.659,5224.9c-2.489,1.067-10.575,3.823-9.657,6.587.82,2.471,5.323,4.27,11.263-4.587Z" transform="translate(-623.812 -5224.9)" fill="#ffd8a3"/>
          </g>
          <path id="Path_18374" data-name="Path 18374" d="M646.647,5010.44c6.352-5,29.313,37.593,29.513,39.3,0,0-3.3,5.176-4.927,3.971C667.021,5050.6,643.811,5012.673,646.647,5010.44Z" transform="translate(-639.85 -5010.033)" fill="#fff4ba"/>
          <path id="Path_18375" data-name="Path 18375" d="M659.257,5165.6c-4.886-3.735,20.193-26.125,21.421-26.588,0,0,4.446,1.462,3.858,2.88C683.015,5145.564,661.438,5167.272,659.257,5165.6Z" transform="translate(-648.568 -5102.061)" fill="#fff4ba"/>
          <path id="Path_18376" data-name="Path 18376" d="M657.224,5222.052l1.682.977,6.812-2.884s-2.555-2.3-3.394-2.439S657.224,5222.052,657.224,5222.052Z" transform="translate(-647.567 -5158.203)" fill="#eaeaea"/>
          <path id="Path_18377" data-name="Path 18377" d="M654.676,5211.771l-1.146-1.587,2.273-7.045s2.571,2.335,2.787,3.158S654.676,5211.771,654.676,5211.771Z" transform="translate(-644.932 -5147.811)" fill="#eaeaea"/>
        </g>
        <g id="Group_16261" data-name="Group 16261" transform="translate(10.502 36.63)">
          <path id="Path_18378" data-name="Path 18378" d="M533.445,5071.475s9.879,8.75,19.759,12.031l5.145-11.12,4.734,11.12s13.355-3.762,18.729-12.031c-10.883-15.78-15.182-28.947-3.9-45.372,0,0-4.542-29.371-21.007-30.1s-19.4,31.311-19.4,31.311C548.212,5043.354,551.717,5050.321,533.445,5071.475Z" transform="translate(-533.445 -4982.337)" fill="#ffe200"/>
          <path id="Path_18379" data-name="Path 18379" d="M592.147,5009.742a9.972,9.972,0,0,1,6.379,2.3c1.67-3.8,2.783-8.467,1.593-13.233-10.024-7.537-16.2.781-16.2.781s-1.313,5.192,2.221,12.173A9.949,9.949,0,0,1,592.147,5009.742Z" transform="translate(-569.287 -4982.096)" fill="#fff"/>
          <path id="Path_18380" data-name="Path 18380" d="M594.166,4998.255s-1.667,8.364,5.913,17.438c0,0,6.443-8.832,4.624-18.085C598.184,4991.38,594.166,4998.255,594.166,4998.255Z" transform="translate(-576.658 -4981.63)" fill="#f7c371"/>
          <rect id="Rectangle_1742" data-name="Rectangle 1742" width="8.598" height="16.119" transform="translate(18.541)" fill="#f7c371"/>
          <path id="Path_18381" data-name="Path 18381" d="M623.553,5132.9a1.209,1.209,0,1,0-1.209,1.209A1.209,1.209,0,0,0,623.553,5132.9Z" transform="translate(-596.011 -5079.159)" fill="#fff"/>
          <path id="Path_18382" data-name="Path 18382" d="M623.553,5165.881a1.209,1.209,0,1,0-1.209,1.209A1.209,1.209,0,0,0,623.553,5165.881Z" transform="translate(-596.011 -5102.69)" fill="#fff"/>
          <path id="Path_18383" data-name="Path 18383" d="M623.553,5231.844a1.209,1.209,0,1,0-1.209,1.209A1.209,1.209,0,0,0,623.553,5231.844Z" transform="translate(-596.011 -5149.754)" fill="#fff"/>
          <path id="Path_18384" data-name="Path 18384" d="M623.553,5198.863a1.209,1.209,0,1,0-1.209,1.209A1.209,1.209,0,0,0,623.553,5198.863Z" transform="translate(-596.011 -5126.222)" fill="#fff"/>
        </g>
        <g id="Group_16265" data-name="Group 16265" transform="translate(17.48 12.159)">
          <g id="Group_16263" data-name="Group 16263">
            <path id="Path_18385" data-name="Path 18385" d="M575.768,4897.969c-4.87.458-17.088-11.821-14.1-28.605.605-3.393,4.02-5.633,10.815-6.273,7.474-.7,11.084,1,11.881,3.622C590,4885.283,580.752,4897.5,575.768,4897.969Z" transform="translate(-560.23 -4862.931)" fill="#ffd8a3"/>
            <path id="Path_18386" data-name="Path 18386" d="M559.776,4926.3c-.33-1.052-.27-1.937-1.046-1.692a1.793,1.793,0,0,0-.807,2.346c.33,1.051,1.227,1.706,2,1.462S560.107,4927.353,559.776,4926.3Z" transform="translate(-557.8 -4906.907)" fill="#f7c371"/>
            <path id="Path_18387" data-name="Path 18387" d="M647.59,4918.156c.1-1.1-.152-1.954.682-1.875a1.809,1.809,0,0,1,1.327,2.131c-.1,1.1-.861,1.924-1.7,1.848S647.488,4919.256,647.59,4918.156Z" transform="translate(-621.725 -4900.992)" fill="#f7c371"/>
            <g id="Group_16262" data-name="Group 16262" transform="translate(2.966 10.117)">
              <path id="Path_18388" data-name="Path 18388" d="M568.154,4900.831c2.016.506,6.375,1.319,8.456-1.25C574.418,4901.006,572.664,4901.4,568.154,4900.831Z" transform="translate(-568.154 -4899.197)" fill="#2d356b"/>
              <path id="Path_18389" data-name="Path 18389" d="M618.2,4898.241c-1.979.817-6.306,2.308-8.872.094C611.811,4899.4,613.676,4899.518,618.2,4898.241Z" transform="translate(-597.53 -4898.241)" fill="#2d356b"/>
              <path id="Path_18390" data-name="Path 18390" d="M620.958,4914.545a1.356,1.356,0,1,0-1.485,1.544A1.534,1.534,0,0,0,620.958,4914.545Z" transform="translate(-603.954 -4908.574)" fill="#2d356b"/>
              <path id="Path_18391" data-name="Path 18391" d="M619.869,4912.762a4.47,4.47,0,0,0-5.554.341A11.278,11.278,0,0,1,619.869,4912.762Z" transform="translate(-601.089 -4908.024)" fill="#2d356b"/>
              <path id="Path_18392" data-name="Path 18392" d="M580.509,4918.169a1.356,1.356,0,1,1,1.749,1.236A1.533,1.533,0,0,1,580.509,4918.169Z" transform="translate(-576.903 -4911.004)" fill="#2d356b"/>
              <path id="Path_18393" data-name="Path 18393" d="M574.505,4916.661a4.486,4.486,0,0,1,5.546-.476A11.317,11.317,0,0,0,574.505,4916.661Z" transform="translate(-572.685 -4910.507)" fill="#2d356b"/>
              <path id="Path_18394" data-name="Path 18394" d="M601.178,4932.875a3.592,3.592,0,0,0,1.516.468,2.078,2.078,0,0,0,1.4-.8c.028-.408-1.458-4.784-1.84-4.79S601.1,4932.3,601.178,4932.875Z" transform="translate(-591.712 -4919.296)" fill="#ffab00"/>
              <path id="Path_18395" data-name="Path 18395" d="M603.374,4930.427c.01.091.456.193.608.179.261-.024.563-.187.559-.352-.011-.393-.222-4.858-1-4.741C602.678,4925.64,603.31,4929.859,603.374,4930.427Z" transform="translate(-593.08 -4917.698)" fill="#ffd8a3"/>
            </g>
          </g>
          <path id="Path_18396" data-name="Path 18396" d="M583.665,4925.685c-.054-.577-1.176-.942-2.5-.817s-2.363.694-2.309,1.27,1.176.942,2.5.817S583.72,4926.261,583.665,4925.685Z" transform="translate(-572.819 -4907.104)" fill="#ffd8a3"/>
          <path id="Path_18397" data-name="Path 18397" d="M621.875,4922.089c-.054-.577-1.177-.942-2.505-.817s-2.363.694-2.308,1.271,1.175.941,2.5.816S621.929,4922.666,621.875,4922.089Z" transform="translate(-600.081 -4904.539)" fill="#ffd8a3"/>
          <g id="Group_16264" data-name="Group 16264" transform="translate(10.933 26.649)">
            <path id="Path_18398" data-name="Path 18398" d="M605.679,4956.564a2.252,2.252,0,0,0-2.887-.186c-.391.1-1.266-.583-2.258.9-.3.453,1.089.112,2.518-.038S606.124,4956.879,605.679,4956.564Z" transform="translate(-599.193 -4955.943)" fill="#f36973"/>
            <path id="Path_18399" data-name="Path 18399" d="M607.485,4960.9c-.115-.532-.963-.3-2.069-.058s-2.054.391-1.939.922,1.1.771,2.211.532S607.6,4961.435,607.485,4960.9Z" transform="translate(-601.316 -4959.252)" fill="#f36973"/>
            <path id="Path_18400" data-name="Path 18400" d="M596.861,4958.654c.567-.531,2.4-.416,3.471-.563,1.158-.157,3.368-.51,3.715-.478-.308,1.6-2.151,1.539-3.276,1.727C599.578,4959.538,598.132,4960.512,596.861,4958.654Z" transform="translate(-596.602 -4957.133)" fill="#ffab00"/>
            <path id="Path_18401" data-name="Path 18401" d="M605.5,4958.556c-.479-.221-1.489.085-3.037.292a10.077,10.077,0,0,0-2.481.341C601.2,4959.591,604.322,4959.7,605.5,4958.556Z" transform="translate(-598.831 -4957.753)" fill="#fff"/>
            <path id="Path_18402" data-name="Path 18402" d="M621.56,4957.035a.272.272,0,1,0-.238.336A.295.295,0,0,0,621.56,4957.035Z" transform="translate(-613.842 -4956.516)" fill="#ffab00"/>
            <path id="Path_18403" data-name="Path 18403" d="M596.543,4960.067a.3.3,0,1,0-.258.366A.319.319,0,0,0,596.543,4960.067Z" transform="translate(-595.959 -4958.662)" fill="#ffab00"/>
          </g>
        </g>
        <g id="Group_16268" data-name="Group 16268" transform="translate(16.569 8.294)">
          <g id="Group_16267" data-name="Group 16267" transform="translate(10.284)">
            <path id="Path_18404" data-name="Path 18404" d="M607.817,4860.931c-4.573-1.407-16.037-5.414-17.3-11.07,0,0,11.178-2.158,14.108,3.3C608.326,4860.053,607.817,4860.931,607.817,4860.931Z" transform="translate(-590.516 -4849.44)" fill="#2d356b"/>
            <g id="Group_16266" data-name="Group 16266" transform="translate(0.945 2.352)">
              <path id="Path_18405" data-name="Path 18405" d="M602.852,4865.7c1.068,1.356,7.236,5.77,11.416,7.014S602.852,4865.7,602.852,4865.7Z" transform="translate(-600.263 -4863.396)" fill="#2d356b"/>
              <path id="Path_18406" data-name="Path 18406" d="M593.815,4857.648a21.368,21.368,0,0,0,4.946,6.728C600.883,4866.075,593.815,4857.648,593.815,4857.648Z" transform="translate(-593.815 -4857.648)" fill="#2d356b"/>
            </g>
          </g>
          <path id="Path_18407" data-name="Path 18407" d="M554.673,4873.336c3.461-1.928,12.081-7.235,12.425-13,0,0-9.109-.844-10.8,4.914C554.169,4872.523,554.673,4873.336,554.673,4873.336Z" transform="translate(-554.621 -4857.187)" fill="#2d356b"/>
        </g>
      </g>
    </g>
  </g>
</svg>
