<svg xmlns="http://www.w3.org/2000/svg" width="183.904" height="167.686" viewBox="0 0 183.904 167.686">
  <g id="Group_17348" data-name="Group 17348" transform="translate(-229.607 -10451.436)">
    <g id="Group_17286" data-name="Group 17286" transform="translate(332.504 10494.449)">
      <g id="Group_17285" data-name="Group 17285" transform="translate(0 0)">
        <path id="Path_25501" data-name="Path 25501" d="M1197.794,8987.941l-1.221-.13,7.754-39.967,2.58.424,28.527,3.383-.78,7.325-.074-.007.554,33.162-1.221-.131-3.527-33.478-22.641-2.41Z" transform="translate(-1196.572 -8907.121)" fill="#ffac00"/>
        <path id="Path_25502" data-name="Path 25502" d="M1324.554,8799.789c1.7-4.854,8.269-3.151,14.076-1.946,4.176.863,5.019,2.689,4.352,6.909l-8.956,36.288a6.36,6.36,0,0,1-8.33,5.4c-3.929-1.244-11.888-4.82-11.123-9.018Z" transform="translate(-1282.774 -8796.543)" fill="#ffac00"/>
        <path id="Path_25503" data-name="Path 25503" d="M1216.077,9008.769l-1-.106,7.779-36.783-5.756-6.431,18.709,1.865,22.039,2.111-.735,6.1.407,37.882-.813-.087-3.644-38.227-25.976-2.765Z" transform="translate(-1210.094 -8919.986)" fill="#ffac00"/>
        <path id="Path_25504" data-name="Path 25504" d="M1211.553,8943.318a1.513,1.513,0,0,1,1.418-2.336l22.742,2.328a19.4,19.4,0,0,1,5.926,1.774l12.331,5.613c.03.015.062.029.091.045,1.468.776,1.27,1.276-.461,1.092l-38.551-4.2a1.518,1.518,0,0,1-1.1-.674Z" transform="translate(-1207.337 -8902.1)" fill="#ffac00"/>
      </g>
    </g>
    <g id="Group_17294" data-name="Group 17294" transform="translate(338.386 10468.535)">
      <path id="Path_25505" data-name="Path 25505" d="M1292.311,8712.053c-1.658-7.092,10.627-14.108,15.285-11.06,0,0,11.813.2,7.826,19.953-.176.874-3.785.757-3.805,2.67s-.186,1.693-1.12,2.563-2.606-.448-3.018.192c-1.134,1.759,2.368,3.114,3.477,2.172,0,0-8.95,5.217-13.079-4.181C1297.639,8723.822,1292.748,8713.919,1292.311,8712.053Z" transform="translate(-1272.312 -8700.261)" fill="#fff4ba"/>
      <g id="Group_17287" data-name="Group 17287" transform="translate(4.454 50.039)">
        <path id="Path_25506" data-name="Path 25506" d="M1239.274,8893.822c.66,4.257,23.22-3.806,23.919-4.4,0,0,1.552-2.771-.529-3.211C1259.935,8885.635,1238.979,8891.919,1239.274,8893.822Z" transform="translate(-1238.113 -8886.174)" fill="#54ccca"/>
        <path id="Path_25507" data-name="Path 25507" d="M1234.971,8906.849l.167-1.308,4.35-2.479a10.256,10.256,0,0,1-.083,2.828C1239.133,8906.4,1234.971,8906.849,1234.971,8906.849Z" transform="translate(-1234.971 -8898.516)" fill="#fffdfd"/>
        <path id="Path_25508" data-name="Path 25508" d="M1234.979,8916.742l.377,1.251,4.657,1.646a10.154,10.154,0,0,0-.546-2.755C1239.119,8916.438,1234.979,8916.742,1234.979,8916.742Z" transform="translate(-1234.977 -8908.44)" fill="#fffdfd"/>
      </g>
      <g id="Group_17288" data-name="Group 17288" transform="translate(0 53.665)">
        <path id="Path_25509" data-name="Path 25509" d="M1240.979,8904.795c1.3-1.017,3.283-1.551,3.528-.967.278.656-1.51.8-2.458,1.994-1.03,1.294-1.745,2.053-2.265,1.684S1239.672,8905.812,1240.979,8904.795Z" transform="translate(-1233.874 -8902.525)" fill="#f8c471"/>
        <path id="Path_25510" data-name="Path 25510" d="M1243.317,8902.2c-2.026-.116-6.141,2.719-6.7,1.04-.5-1.5.921-4.661,6.718-2.613Z" transform="translate(-1231.653 -8899.868)" fill="#ffd9a4"/>
        <path id="Path_25511" data-name="Path 25511" d="M1235.109,8899.959c1.052,2.6-2.12,3.871-3.211,4.039-1.2.186-2.539-1.57-2.336-2.516S1234.705,8898.967,1235.109,8899.959Z" transform="translate(-1226.549 -8899.643)" fill="#ffd9a4"/>
        <path id="Path_25512" data-name="Path 25512" d="M1221.447,8903.483c-1.4.209-2.181,0-2.193-.382s.793-.447,2.192-.659,3.126-.824,3.14-.447S1222.846,8903.271,1221.447,8903.483Z" transform="translate(-1219.03 -8901.273)" fill="#ffd9a4"/>
        <path id="Path_25513" data-name="Path 25513" d="M1221.265,8909.5c-1.357.5-2.75.322-2.837-.039s1.266-.52,2.623-1.015,2.263-.745,2.349-.384S1222.621,8909,1221.265,8909.5Z" transform="translate(-1218.424 -8905.67)" fill="#ffd9a4"/>
        <path id="Path_25514" data-name="Path 25514" d="M1228.251,8913.467c-1.375.441-2.242.376-2.318.014s.884-.482,2.257-.923,2.343-.729,2.42-.366S1229.626,8913.026,1228.251,8913.467Z" transform="translate(-1223.909 -8908.693)" fill="#ffd9a4"/>
      </g>
      <g id="Group_17289" data-name="Group 17289" transform="translate(13.773 18.81)">
        <path id="Path_25515" data-name="Path 25515" d="M1324.3,8770.145l-5.061,2.818-1.439,10.545,4.011-1.215Z" transform="translate(-1304.826 -8770.145)" fill="#f6cda2"/>
        <path id="Path_25516" data-name="Path 25516" d="M1269.6,8858.823c9.837,6.621,13.809,4.539,19.725,4.592.567-8.37-3.88-14.36-3.648-20.219.427-10.86,10.326-23.121,2.954-28.431-7.83-5.639-18.724,17.911-18.724,17.911C1277.766,8837.664,1273.719,8846.026,1269.6,8858.823Z" transform="translate(-1269.596 -8802.118)" fill="#c3e8e6"/>
        <path id="Path_25517" data-name="Path 25517" d="M1316.437,8812.738l-1.414-.243-6.68,5.65,1.8,1.691S1314.643,8815.707,1316.437,8812.738Z" transform="translate(-1297.914 -8801.096)" fill="#fff"/>
        <path id="Path_25518" data-name="Path 25518" d="M1297.923,8819.206l-.086-.071c1.856-3.262,5.8-8.2,9.325-7.681C1303.784,8814.161,1297.923,8819.206,1297.923,8819.206Z" transform="translate(-1290.236 -8800.308)" fill="#f6cda2"/>
      </g>
      <g id="Group_17290" data-name="Group 17290" transform="translate(10.596 33.113)">
        <path id="Path_25519" data-name="Path 25519" d="M1263.253,8904.283c-.231,4.219,18.8,5.526,19.6,5.1,0,0,1.243-2.967.219-3.3C1280.428,8905.219,1263.357,8902.4,1263.253,8904.283Z" transform="translate(-1261.782 -8882.018)" fill="#54ccca"/>
        <path id="Path_25520" data-name="Path 25520" d="M1327.449,8823.354c5.142-1.623.164,26.867-1.348,27.373,0,0-2.739-.967-3.217-2.256C1321.44,8844.58,1325.153,8824.074,1327.449,8823.354Z" transform="translate(-1305.127 -8823.287)" fill="#54ccca"/>
        <path id="Path_25521" data-name="Path 25521" d="M1257.791,8900.087l.479-1.133,4.8-.987a8.854,8.854,0,0,1-.767,2.534C1261.916,8900.881,1257.791,8900.087,1257.791,8900.087Z" transform="translate(-1257.791 -8877.866)" fill="#fff"/>
        <path id="Path_25522" data-name="Path 25522" d="M1257.8,8905.509l.06,1.258,4.152,2.876a9.293,9.293,0,0,0,.146-2.69C1261.922,8906.44,1257.8,8905.509,1257.8,8905.509Z" transform="translate(-1257.794 -8883.378)" fill="#fff"/>
      </g>
      <g id="Group_17293" data-name="Group 17293" transform="translate(20.98 1.957)">
        <g id="Group_17292" data-name="Group 17292">
          <g id="Group_17291" data-name="Group 17291" transform="translate(0 1.963)">
            <path id="Path_25523" data-name="Path 25523" d="M1303.422,8737.8c-.939.022-2.736-4.793-3.326-8.5-.195-1.224,1.124-1.4.941-5.585-.107-2.457.946-5.888,5-8.427,3.831-2.4,4.3,5.224,4.677,6.979,1.068,5,2.426,8.119,1.2,10.579C1309.515,8737.649,1304.432,8737.536,1303.422,8737.8Z" transform="translate(-1299.079 -8714.825)" fill="#ffd8a3"/>
            <path id="Path_25524" data-name="Path 25524" d="M1311.54,8775.326a.216.216,0,0,0-.2-.23.229.229,0,0,0-.182.255.216.216,0,0,0,.2.229A.227.227,0,0,0,1311.54,8775.326Z" transform="translate(-1307.177 -8758.874)" fill="#ffab00"/>
            <path id="Path_25525" data-name="Path 25525" d="M1309.576,8749.86c-.038-.661-.437-1.168-.889-1.134s-.791.6-.752,1.255.437,1.168.89,1.134S1309.614,8750.519,1309.576,8749.86Z" transform="translate(-1304.819 -8739.6)" fill="#2d356b"/>
            <path id="Path_25526" data-name="Path 25526" d="M1308.509,8749.723a2.573,2.573,0,0,0-3.3-1.143A6.32,6.32,0,0,1,1308.509,8749.723Z" transform="translate(-1302.83 -8739.334)" fill="#2d356b"/>
            <path id="Path_25527" data-name="Path 25527" d="M1305.235,8785.831c-.032-.153-.49.4-.713.425-.631.069-.432.871.2.738C1304.964,8786.941,1305.268,8785.992,1305.235,8785.831Z" transform="translate(-1302.046 -8766.7)" fill="#f36973"/>
            <path id="Path_25528" data-name="Path 25528" d="M1304.5,8775.449c.424-.182-2.487-.945-1.94.023A4.549,4.549,0,0,0,1304.5,8775.449Z" transform="translate(-1300.845 -8758.797)" fill="#f36973"/>
            <path id="Path_25529" data-name="Path 25529" d="M1304.8,8736.951a3.851,3.851,0,0,1,4.7,2.31A4.939,4.939,0,0,0,1304.8,8736.951Z" transform="translate(-1302.531 -8730.896)" fill="#2d356b"/>
            <path id="Path_25530" data-name="Path 25530" d="M1297.046,8759.649l1.464.41-.036-3.714-2.1,2.7Z" transform="translate(-1296.37 -8745.17)" fill="#ffd8a3"/>
            <path id="Path_25531" data-name="Path 25531" d="M1299.266,8770.21l-1.185-2.272,1.09-.065Z" transform="translate(-1297.62 -8753.595)" fill="#ffd8a3"/>
            <path id="Path_25532" data-name="Path 25532" d="M1302.929,8779.326a27.5,27.5,0,0,1-.794-3.207l2.625-.062S1304.306,8778.85,1302.929,8779.326Z" transform="translate(-1300.583 -8759.576)" fill="#ffab00"/>
            <path id="Path_25533" data-name="Path 25533" d="M1304.418,8778.021l-1.5.035c-.1-.4-.186-.825-.27-1.262l2.146-.052Z" transform="translate(-1300.961 -8760.077)" fill="#fff"/>
            <path id="Path_25534" data-name="Path 25534" d="M1347.6,8755.905c-.087-1.144-.495-1.979.373-2.043s1.644.813,1.731,1.957a1.88,1.88,0,0,1-1.419,2.188C1347.418,8758.071,1347.688,8757.051,1347.6,8755.905Z" transform="translate(-1333.688 -8743.354)" fill="#f7c371"/>
          </g>
          <path id="Path_25535" data-name="Path 25535" d="M1317.587,8707.535c.66,2.715,2.65,9.571,6.5,10.886,0,0,2.285-6.032-1.312-8.261C1318.235,8707.345,1317.587,8707.535,1317.587,8707.535Z" transform="translate(-1311.876 -8707.532)" fill="#fff4ba"/>
        </g>
      </g>
    </g>
    <g id="Group_17298" data-name="Group 17298" transform="translate(278.006 10503.08)">
      <g id="Group_17297" data-name="Group 17297">
        <g id="Group_17295" data-name="Group 17295" transform="translate(0 25.878)">
          <rect id="Rectangle_6158" data-name="Rectangle 6158" width="124.821" height="3.747" fill="#40558d"/>
          <rect id="Rectangle_6159" data-name="Rectangle 6159" width="115.955" height="67.326" transform="translate(4.599 1.445)" fill="#40558d"/>
          <rect id="Rectangle_6160" data-name="Rectangle 6160" width="35.981" height="67.326" transform="translate(84.573 1.445)" fill="#7b87ab"/>
          <rect id="Rectangle_6161" data-name="Rectangle 6161" width="124.821" height="4.876" transform="translate(0 1.445)" fill="#2d356b"/>
        </g>
        <g id="Group_17296" data-name="Group 17296" transform="translate(31.977)">
          <path id="Path_25536" data-name="Path 25536" d="M1147.541,8852.729h-28.95a1.79,1.79,0,0,1-1.759-1.456l-3.9-20.54a1.791,1.791,0,0,1,1.759-2.125h28.95a1.79,1.79,0,0,1,1.759,1.456l3.9,20.541A1.79,1.79,0,0,1,1147.541,8852.729Z" transform="translate(-1112.898 -8828.607)" fill="#cfd0d8"/>
          <path id="Path_25537" data-name="Path 25537" d="M1229.679,8830.98a.971.971,0,1,0-1.429.67l3.9,20.539a.97.97,0,1,0,1.429-.668Z" transform="translate(-1197.179 -8829.525)" fill="#ebebeb"/>
          <path id="Path_25538" data-name="Path 25538" d="M1180.587,8920.261h-44.5a2.037,2.037,0,0,1-2.037-2.037h48.575A2.037,2.037,0,0,1,1180.587,8920.261Z" transform="translate(-1128.356 -8894.103)" fill="#9898a4"/>
          <path id="Path_25539" data-name="Path 25539" d="M1263.656,8918.224h-18.733a2.188,2.188,0,0,0,2.312,2.037h14.108A2.188,2.188,0,0,0,1263.656,8918.224Z" transform="translate(-1209.388 -8894.103)" fill="#cfd0d8"/>
          <circle id="Ellipse_345" data-name="Ellipse 345" cx="2.055" cy="2.055" r="2.055" transform="translate(14.887 10.948) rotate(-22.5)" fill="#fff4ba"/>
        </g>
      </g>
    </g>
    <g id="Group_17299" data-name="Group 17299" transform="translate(364.562 10504.616)">
      <rect id="Rectangle_6162" data-name="Rectangle 6162" width="48.824" height="30.662" rx="6.672" transform="translate(0)" fill="#fff" stroke="#231f20" stroke-miterlimit="10" stroke-width="0.25"/>
      <text id="Helen" transform="translate(24.412 19.331)" fill="#2d356b" font-size="12" font-family="TrebuchetMS-Bold, Trebuchet MS" font-weight="700"><tspan x="-16.31" y="0">Helen</tspan></text>
    </g>
    <g id="Group_17312" data-name="Group 17312" transform="translate(229.607 10451.436)">
      <g id="Group_17311" data-name="Group 17311" transform="translate(0 0)">
        <g id="Group_17300" data-name="Group 17300" transform="translate(0 86.403)">
          <path id="Path_25540" data-name="Path 25540" d="M868.2,8972.328c5.556,11.816,14.235,23.314,16.637,28.994s4.167,14.436,12.75,34.892c.212.507,1.362-.343,1.362-.343-7.537-20.47-8.123-32.452-8.936-34.106s-6.319-30.792-7.241-40.878C877.508,8962.054,868.2,8972.328,868.2,8972.328Z" transform="translate(-853.683 -8960.043)" fill="#2d356b"/>
          <path id="Path_25541" data-name="Path 25541" d="M845.913,8957.814s-12.555-.16-15.827.033c-4.25,9.414,2.845,19.627-4.867,48.994-2.228,8.481-5.147,14.8-7.579,31.359l1.864.095c2-15.025,5.933-23.237,9.2-30.8C840.049,8981.3,846.6,8976.615,845.913,8957.814Z" transform="translate(-816.735 -8957.752)" fill="#40558e"/>
          <path id="Path_25542" data-name="Path 25542" d="M820.765,9254.443l-6.487-.33s.527-1.766,1.813-1.611A23.66,23.66,0,0,1,820.765,9254.443Z" transform="translate(-814.278 -9173.161)" fill="#9898a4"/>
          <path id="Path_25543" data-name="Path 25543" d="M983.118,9239.354l-5.44,2.272s-.581-2,.545-2.354S983.118,9239.354,983.118,9239.354Z" transform="translate(-933.589 -9163.396)" fill="#9898a4"/>
          <path id="Path_25544" data-name="Path 25544" d="M880.281,8961.009l-14.9-.1.018,1.512,14.9.1Z" transform="translate(-851.623 -8960.059)" fill="#cecfd7"/>
          <rect id="Rectangle_6163" data-name="Rectangle 6163" width="2.865" height="1.074" transform="translate(15.769 3.238) rotate(-89.619)" fill="#40558d"/>
          <rect id="Rectangle_6164" data-name="Rectangle 6164" width="2.865" height="1.074" transform="translate(19.107 3.407) rotate(-89.62)" fill="#40558d"/>
          <rect id="Rectangle_6165" data-name="Rectangle 6165" width="2.865" height="1.074" transform="translate(22.69 3.47) rotate(-89.62)" fill="#40558d"/>
          <rect id="Rectangle_6166" data-name="Rectangle 6166" width="2.865" height="1.074" transform="matrix(0.007, -1, 1, 0.007, 26.403, 3.3)" fill="#40558d"/>
        </g>
        <g id="Group_17310" data-name="Group 17310" transform="translate(3.287)">
          <g id="Group_17301" data-name="Group 17301" transform="translate(0 20.85)">
            <path id="Path_25545" data-name="Path 25545" d="M906.586,8756.7l-.821.229-.409,2.006,1.788.854Z" transform="translate(-884.129 -8745.262)" fill="#eaeaea"/>
            <path id="Path_25546" data-name="Path 25546" d="M879.808,8717.489l-7.382-3.289-1.107,12.172,10.624,3.856Z" transform="translate(-859.253 -8714.2)" fill="#f7c371"/>
            <path id="Path_25547" data-name="Path 25547" d="M896.661,8860.938l-14.58,3.475-2.195,21.406,12.629,1.374Z" transform="translate(-865.514 -8821.442)" fill="#eaeaea"/>
            <path id="Path_25548" data-name="Path 25548" d="M828.995,8815.886c9.127.355,19.937-2.332,25.291-12.475,2.9-5.488,3.484-14.813,4.247-24.041,1.019-12.336-11.678-29.43-22.886-26.5-15.578,4.078-6.883,24.758-5.436,30.157C834.45,8798.852,829.582,8812.464,828.995,8815.886Z" transform="translate(-826.489 -8742.221)" fill="#40558e"/>
            <path id="Path_25549" data-name="Path 25549" d="M848.673,8841.54c.138-4.063-.913-16.638-7.585-30.969-1.294-2.779-2.439-10.907-3.584-17.706-.428-2.538-5.022,1.993-6.058,8.089-.643,3.781,1.755,8.954,2.309,11.021,4.24,15.821-.628,29.433-1.216,32.854A31.924,31.924,0,0,0,848.673,8841.54Z" transform="translate(-830.032 -8771.167)" fill="#2d356b"/>
            <path id="Path_25550" data-name="Path 25550" d="M878.008,8790.878c-.092-16-11.665-32.269-22.5-37.225-1.821-.832-.094-2.136,5.177-1.407C865.394,8752.917,883.968,8763.23,878.008,8790.878Z" transform="translate(-847.182 -8741.85)" fill="#2d356b"/>
            <path id="Path_25551" data-name="Path 25551" d="M893.937,8780.986c-1.2-13.5-5.9-20.776-17.3-28.161,4.6.653,22.654,7.741,18.021,33.73C894.544,8787.219,894.144,8783.32,893.937,8780.986Z" transform="translate(-863.142 -8742.429)" fill="#ebebeb"/>
            <path id="Path_25552" data-name="Path 25552" d="M928.722,8924.941c.1-.557-.129-1.066-.514-1.136s-.779.325-.88.883.129,1.066.514,1.136S928.62,8925.5,928.722,8924.941Z" transform="translate(-900.169 -8867.383)" fill="#2d356b"/>
            <path id="Path_25553" data-name="Path 25553" d="M933.181,8900.387c.1-.557-.129-1.066-.514-1.136s-.779.325-.88.883.128,1.066.514,1.136S933.079,8900.945,933.181,8900.387Z" transform="translate(-903.427 -8849.438)" fill="#2d356b"/>
            <path id="Path_25554" data-name="Path 25554" d="M901.452,8759.423l2.7,1.073-.822-3.029-.508-.3Z" transform="translate(-881.275 -8745.599)" fill="#ffac00"/>
            <path id="Path_25555" data-name="Path 25555" d="M918.555,8798.382l-.613-5.455s3.206-16.786-8.622-25.813l.168-.421C919.2,8774.439,921.68,8787.121,918.555,8798.382Z" transform="translate(-887.026 -8752.564)" fill="#ffac00"/>
            <path id="Path_25556" data-name="Path 25556" d="M877.005,8747.54l-10.654-3.375-1.47,2.1,10.043,4.624Z" transform="translate(-854.548 -8736.1)" fill="#fff"/>
          </g>
          <g id="Group_17303" data-name="Group 17303" transform="translate(0.452 38.257)">
            <path id="Path_25557" data-name="Path 25557" d="M846.494,8810.537c-1.687,2.234-20.6-26.224-18.1-30.125,0,0,6.863-5.422,19.5,4.076C847.889,8784.488,852.657,8802.372,846.494,8810.537Z" transform="translate(-828.167 -8778.871)" fill="#40558e"/>
            <g id="Group_17302" data-name="Group 17302" transform="translate(46.244 13.289)">
              <path id="Path_25558" data-name="Path 25558" d="M1000.588,8848.338c2.317-.892,8.171.871,8.193-1.294.021-1.939-2.817-5.085-8.8-.53Z" transform="translate(-999.977 -8839.882)" fill="#ffd9a4"/>
              <path id="Path_25559" data-name="Path 25559" d="M1012.859,8843.855c-.252,3.422,3.918,3.715,5.252,3.5,1.467-.233,2.371-2.78,1.781-3.8S1012.958,8842.549,1012.859,8843.855Z" transform="translate(-1009.384 -8838.902)" fill="#ffd9a4"/>
              <path id="Path_25560" data-name="Path 25560" d="M1018.769,8832.411c1.458-1.4,2.45-3.707,1.786-4.1-.748-.451-1.228,1.69-2.843,2.63-1.747,1.022-2.791,1.757-2.434,2.451S1017.311,8833.816,1018.769,8832.411Z" transform="translate(-1011.108 -8828.245)" fill="#ffd9a4"/>
              <path id="Path_25561" data-name="Path 25561" d="M1030.656,8842.171c1.71-.28,2.539-.819,2.413-1.265s-1.091-.226-2.8.052-3.951.209-3.825.655S1028.947,8842.447,1030.656,8842.171Z" transform="translate(-1019.317 -8837.313)" fill="#ffd9a4"/>
              <path id="Path_25562" data-name="Path 25562" d="M1034.308,8850.226c1.766.072,3.325-.651,3.291-1.1s-1.67-.132-3.436-.2-2.915-.022-2.88.432S1032.543,8850.155,1034.308,8850.226Z" transform="translate(-1022.857 -8843.321)" fill="#ffd9a4"/>
              <path id="Path_25563" data-name="Path 25563" d="M1028.576,8856.991c1.766,0,2.752-.4,2.706-.853s-1.21-.23-2.975-.229-3,.026-2.957.479S1026.808,8856.992,1028.576,8856.991Z" transform="translate(-1018.52 -8848.423)" fill="#ffd9a4"/>
            </g>
            <path id="Path_25564" data-name="Path 25564" d="M893.961,8820.87c8.279-7.152,2-23.6,2-23.6a6.378,6.378,0,0,0-1.259-.91C898.8,8809.317,893.617,8821.167,893.961,8820.87Z" transform="translate(-876.24 -8791.649)" fill="#7b88ac"/>
            <path id="Path_25565" data-name="Path 25565" d="M1001.063,8849.525l-3.3,2.095-1.816-5.59,3.837-.062Z" transform="translate(-950.785 -8827.909)" fill="#eaeaea"/>
            <path id="Path_25566" data-name="Path 25566" d="M891.532,8858.718s10.412-.453,29.976-8.41c0,0,.62-2.259-1.931-5.455,0,0-18.234-1.278-28.19,3C891.386,8847.851,888.255,8856.256,891.532,8858.718Z" transform="translate(-873.384 -8826.963)" fill="#40558e"/>
            <path id="Path_25567" data-name="Path 25567" d="M989.856,8853.447a.827.827,0,1,0-1.078-.7A.919.919,0,0,0,989.856,8853.447Z" transform="translate(-945.545 -8832.192)" fill="#2d356b"/>
          </g>
          <g id="Group_17309" data-name="Group 17309" transform="translate(6.541)">
            <g id="Group_17308" data-name="Group 17308">
              <path id="Path_25568" data-name="Path 25568" d="M854.724,8656.641c-4.918-6.508-3.943-16.789-3.672-17.138,2.89-3.721,10.476-3.007,14.259-1.779,3.19,1.036,5.64,2.952,3.909,5.4-.6.844-3.068-1.252-3.858-1.187-1.494.123-3.408,20.488-3.408,20.488Z" transform="translate(-850.791 -8636.735)" fill="#0080af"/>
              <g id="Group_17305" data-name="Group 17305" transform="translate(4.758 4.862)">
                <g id="Group_17304" data-name="Group 17304" transform="translate(1.432)">
                  <path id="Path_25569" data-name="Path 25569" d="M917.95,8713.6l.825-1.257-1.007-.688Z" transform="translate(-905.93 -8696.35)" fill="#ffd8a3"/>
                  <path id="Path_25570" data-name="Path 25570" d="M874.315,8672.493c.543,1.757,5.732,5.669,11.035,5.64.869-6.861,1.062-18.237-.144-20.227-1.187-1.958-6.2-3.553-6.847-3,1.765,2.282-1.508,9.533-2.617,10.167C873.04,8666.623,873.749,8670.659,874.315,8672.493Z" transform="translate(-873.787 -8654.799)" fill="#ffd8a3"/>
                  <path id="Path_25571" data-name="Path 25571" d="M919.689,8697.541a48.74,48.74,0,0,1-2.378-5.912c-.707-2.2-.757,5.785-.757,5.785S918.892,8698.05,919.689,8697.541Z" transform="translate(-905.043 -8681.435)" fill="#ffd8a3"/>
                  <path id="Path_25572" data-name="Path 25572" d="M914.2,8736.942c.543-.206.829-.7.638-1.108a1.049,1.049,0,0,0-1.331-.361c-.544.205-.83.7-.638,1.107A1.052,1.052,0,0,0,914.2,8736.942Z" transform="translate(-902.308 -8713.692)" fill="#ffd8a3"/>
                  <path id="Path_25573" data-name="Path 25573" d="M917.527,8727.73c.024-.139-.127-.28-.337-.316s-.4.048-.422.186.127.28.336.316S917.5,8727.868,917.527,8727.73Z" transform="translate(-905.197 -8707.863)" fill="#ffd8a3"/>
                </g>
                <path id="Path_25574" data-name="Path 25574" d="M871.8,8689c-.245-1.266-1.178-2.189-2.082-2.063s-1.438,1.254-1.193,2.519a2.855,2.855,0,0,0,2.826,1.938C872.257,8691.264,872.047,8690.262,871.8,8689Z" transform="translate(-868.468 -8678.275)" fill="#ffd8a3"/>
              </g>
              <path id="Path_25575" data-name="Path 25575" d="M914.421,8716.654l-.3,2.8s-.78-.112-.937-.472a9.84,9.84,0,0,1-.449-2.847Z" transform="translate(-896.056 -8694.766)" fill="#ffab00"/>
              <path id="Path_25576" data-name="Path 25576" d="M914.991,8717.162l-.264,2.488s-.577-.076-.695-.239a7.013,7.013,0,0,1-.432-2.694Z" transform="translate(-896.68 -8695.188)" fill="#fff"/>
              <path id="Path_25577" data-name="Path 25577" d="M910.1,8684.088a.687.687,0,0,0-.156-.458c-.271-.307-2.68.328-2.671.826l.007.311c.007.36.732.01,1.447-.059.684-.065,1.361.164,1.366-.174Z" transform="translate(-892.07 -8670.949)" fill="#2d356b"/>
              <path id="Path_25578" data-name="Path 25578" d="M911.323,8693.317c.031-.415-.172-.791-.452-.839s-.533.25-.564.664.171.792.452.84S911.292,8693.733,911.323,8693.317Z" transform="translate(-894.285 -8677.471)" fill="#2d356b"/>
              <path id="Path_25579" data-name="Path 25579" d="M912.308,8715.8c.016-.1-.025-.183-.093-.2s-.135.058-.152.153.025.184.092.194S912.291,8715.895,912.308,8715.8Z" transform="translate(-895.569 -8694.375)" fill="#ffab00"/>
              <g id="Group_17307" data-name="Group 17307" transform="translate(7.532 4.286)">
                <path id="Path_25580" data-name="Path 25580" d="M881.638,8659.016c2.283.287-1.863,10.46-.74,11.268s-.071,1.595-.67,1.329c-1.371-.607-1.457-3.55-1.453-5.42C878.78,8664.108,881.445,8658.992,881.638,8659.016Z" transform="translate(-878.775 -8657.305)" fill="#0080af"/>
                <g id="Group_17306" data-name="Group 17306" transform="translate(1.116)">
                  <path id="Path_25581" data-name="Path 25581" d="M892.763,8654.256c.051-.615-2.11-1.3-4.828-1.523s-4.962.088-5.013.7,2.11,1.295,4.828,1.523S892.712,8654.869,892.763,8654.256Z" transform="translate(-882.922 -8652.659)" fill="#0080af"/>
                  <path id="Path_25582" data-name="Path 25582" d="M896.516,8658.914a11.761,11.761,0,0,1-8.683,1.061s5.855.256,8.182-1.4Z" transform="translate(-886.511 -8656.981)" fill="#0080af"/>
                  <path id="Path_25583" data-name="Path 25583" d="M905.887,8657.186c-1.01,2.325-3.125,2.69-4.931,2.567,0,0,3.773-.733,4.461-2.83Z" transform="translate(-896.102 -8655.774)" fill="#0080af"/>
                  <path id="Path_25584" data-name="Path 25584" d="M911.767,8654.981c.138,2.355-1.751,3.506-3.485,4.133,0,0,2.944-2,2.609-4.154Z" transform="translate(-901.456 -8654.341)" fill="#0080af"/>
                  <path id="Path_25585" data-name="Path 25585" d="M893.138,8658.725a11.754,11.754,0,0,1-8.748.095s5.791.9,8.286-.487Z" transform="translate(-883.995 -8656.806)" fill="#0080af"/>
                </g>
              </g>
            </g>
          </g>
        </g>
      </g>
    </g>
    <g id="Group_17510" data-name="Group 17510" transform="translate(-29.703 3308.158)">
      <rect id="Rectangle_6238" data-name="Rectangle 6238" width="75.425" height="30.506" rx="6.672" transform="translate(314 7235.804)" fill="#fff" stroke="#231f20" stroke-miterlimit="10" stroke-width="0.25"/>
      <text id="Confirm" transform="translate(351.713 7255.057)" fill="#2d356b" font-size="12" font-family="TrebuchetMS-Bold, Trebuchet MS" font-weight="700"><tspan x="-22.336" y="0">Confirm</tspan></text>
    </g>
  </g>
</svg>
