<svg xmlns="http://www.w3.org/2000/svg" width="251.243" height="139.044" viewBox="0 0 251.243 139.044">
  <g id="Group_13477" data-name="Group 13477" transform="translate(-344.699 -2917.781)">
    <g id="Group_13366" data-name="Group 13366" transform="translate(344.699 2922.485)">
      <path id="Path_19342" data-name="Path 19342" d="M544.9,3446.325a1.069,1.069,0,1,0-1.069,1.069A1.069,1.069,0,0,0,544.9,3446.325Z" transform="translate(-500.542 -3337.38)" fill="#fff"/>
      <g id="Group_13364" data-name="Group 13364">
        <g id="Group_13358" data-name="Group 13358" transform="translate(16.051 105.44)">
          <path id="Path_19343" data-name="Path 19343" d="M452.637,3470.582c.377-.5-.448-1.269-1.5-1.994s-1.93-1.134-2.31-.636.167,1.491,1.22,2.216S452.259,3471.081,452.637,3470.582Z" transform="translate(-444.687 -3460.004)" fill="#f7c371"/>
          <path id="Path_19344" data-name="Path 19344" d="M446.288,3474.687c.378-.5-.448-1.268-1.5-1.993s-1.929-1.137-2.309-.638.169,1.49,1.221,2.218S445.909,3475.184,446.288,3474.687Z" transform="translate(-439.833 -3463.141)" fill="#f7c371"/>
          <path id="Path_19345" data-name="Path 19345" d="M458.457,3465.6c-.445-.458-1.791.492-3.189,1.71s-2.319,2.239-1.873,2.7,1.938-.158,3.336-1.377S458.9,3466.062,458.457,3465.6Z" transform="translate(-448.184 -3458.287)" fill="#ffd8a3"/>
          <path id="Path_19346" data-name="Path 19346" d="M433.695,3434.91c2.185,1.653,9.458,6.325,7.885,8.816-1.406,2.228-6.266,2.9-9.948-7.242Z" transform="translate(-431.632 -3434.91)" fill="#ffd8a3"/>
        </g>
        <path id="Path_19347" data-name="Path 19347" d="M397.133,3212.236c-4.388-5.639-33.132,26.031-33.667,27.456,0,0,1.732,5.142,3.384,4.453C371.126,3242.364,399.092,3214.753,397.133,3212.236Z" transform="translate(-363.466 -3158.714)" fill="#ffe200"/>
        <path id="Path_19348" data-name="Path 19348" d="M381.229,3352.129c4.985-2.167-11.779-26.7-12.734-27.361,0,0-4.126.311-3.922,1.652C365.1,3329.89,379,3353.1,381.229,3352.129Z" transform="translate(-364.307 -3245.263)" fill="#ffe200"/>
        <path id="Path_19349" data-name="Path 19349" d="M416.472,3427.383l-1.65.481-5.232-3.921s2.681-1.435,3.43-1.373S416.472,3427.383,416.472,3427.383Z" transform="translate(-398.73 -3320.035)" fill="#eaeaea"/>
        <path id="Path_19350" data-name="Path 19350" d="M431.159,3418.511l1.32-1.118-.454-6.528s-2.7,1.458-3.062,2.118S431.159,3418.511,431.159,3418.511Z" transform="translate(-413.515 -3311.087)" fill="#eaeaea"/>
        <g id="Group_13359" data-name="Group 13359" transform="translate(57.065 105.345)">
          <path id="Path_19351" data-name="Path 19351" d="M614.643,3465.671c-.329-.436.391-1.108,1.31-1.742s1.686-.991,2.017-.556-.146,1.3-1.066,1.936S614.973,3466.106,614.643,3465.671Z" transform="translate(-612.503 -3456.431)" fill="#f7c371"/>
          <path id="Path_19352" data-name="Path 19352" d="M620.187,3469.257c-.33-.436.391-1.107,1.311-1.741s1.685-.993,2.017-.557-.146,1.3-1.066,1.937S620.517,3469.691,620.187,3469.257Z" transform="translate(-616.741 -3459.171)" fill="#f7c371"/>
          <path id="Path_19353" data-name="Path 19353" d="M605.928,3461.322c.389-.4,1.565.43,2.786,1.494s2.026,1.956,1.636,2.358-1.693-.138-2.915-1.2S605.539,3461.722,605.928,3461.322Z" transform="translate(-605.818 -3454.93)" fill="#ffd8a3"/>
          <path id="Path_19354" data-name="Path 19354" d="M613.754,3434.509c-1.909,1.444-8.262,5.525-6.888,7.7,1.229,1.947,5.474,2.533,8.69-6.326Z" transform="translate(-606.472 -3434.509)" fill="#ffd8a3"/>
        </g>
        <path id="Path_19355" data-name="Path 19355" d="M570.167,3212.236c4.389-5.639,33.133,26.031,33.667,27.456,0,0-1.732,5.142-3.384,4.453C596.175,3242.364,568.208,3214.753,570.167,3212.236Z" transform="translate(-521.422 -3158.714)" fill="#ffe200"/>
        <path id="Path_19356" data-name="Path 19356" d="M638.6,3352.129c-4.986-2.167,11.779-26.7,12.734-27.361,0,0,4.125.311,3.922,1.652C654.727,3329.89,640.824,3353.1,638.6,3352.129Z" transform="translate(-573.107 -3245.263)" fill="#ffe200"/>
        <path id="Path_19357" data-name="Path 19357" d="M638.114,3427.383l1.65.481,5.232-3.921s-2.681-1.435-3.43-1.373S638.114,3427.383,638.114,3427.383Z" transform="translate(-573.444 -3320.035)" fill="#eaeaea"/>
        <path id="Path_19358" data-name="Path 19358" d="M634.245,3418.511l-1.32-1.118.455-6.528s2.7,1.458,3.061,2.118S634.245,3418.511,634.245,3418.511Z" transform="translate(-569.477 -3311.087)" fill="#eaeaea"/>
        <path id="Path_19359" data-name="Path 19359" d="M448.448,3259.613s8.732,7.734,17.464,10.635l4.548-9.829,4.184,9.829s11.8-3.325,16.555-10.635c-9.619-13.948-13.419-25.586-3.444-40.1,0,0-4.015-25.961-18.568-26.605s-17.147,27.674-17.147,27.674C461.5,3234.758,464.6,3240.916,448.448,3259.613Z" transform="translate(-428.438 -3144.44)" fill="#fff4ba"/>
        <path id="Path_19360" data-name="Path 19360" d="M509.96,3204.984a8.812,8.812,0,0,1,5.638,2.034,18.181,18.181,0,0,0,1.407-11.7c-8.86-6.662-14.32.691-14.32.691s-1.161,4.589,1.963,10.758A8.8,8.8,0,0,1,509.96,3204.984Z" transform="translate(-469.744 -3144.161)" fill="#fff"/>
        <path id="Path_19361" data-name="Path 19361" d="M513.724,3194.705s-1.474,7.392,5.226,15.413c0,0,5.7-7.807,4.087-15.985C517.275,3188.628,513.724,3194.705,513.724,3194.705Z" transform="translate(-478.239 -3143.624)" fill="#f7c371"/>
        <rect id="Rectangle_4604" data-name="Rectangle 4604" width="7.6" height="14.247" transform="translate(36.398 36.386)" fill="#f7c371"/>
        <path id="Path_19362" data-name="Path 19362" d="M544.9,3339.91a1.069,1.069,0,1,0-1.069,1.069A1.068,1.068,0,0,0,544.9,3339.91Z" transform="translate(-500.542 -3256.022)" fill="#fff"/>
        <path id="Path_19363" data-name="Path 19363" d="M544.9,3375.381a1.069,1.069,0,1,0-1.069,1.069A1.069,1.069,0,0,0,544.9,3375.381Z" transform="translate(-500.542 -3283.141)" fill="#fff"/>
        <path id="Path_19364" data-name="Path 19364" d="M544.9,3410.854a1.069,1.069,0,1,0-1.069,1.069A1.068,1.068,0,0,0,544.9,3410.854Z" transform="translate(-500.542 -3310.261)" fill="#fff"/>
        <g id="Group_13360" data-name="Group 13360" transform="translate(17.946)">
          <path id="Path_19365" data-name="Path 19365" d="M457.941,3020.107c1.14,2.159,1.368,7.839-2.051,11.132-5.482,5.281-9.347-1.817-9.347-1.817,1.71,2.612,5.471,2.159,5.129-1.023s-1.823-.794-4.445-2.612.342-4.544-.341-5.793c-1.857-3.389-4.445-1.021-6.041-3.747-5.836-9.973,11.739-31.577,20.059-28.851,0,0,17.832-5.128,20.4,28.281.113,1.477-5.357,2.954-4.56,6.02s1.368,2.157.342,3.976-7.066,1.589-4.787,4.088,4.788,1.363,5.585.114c0,0-3.762,8.064-11.056-.682s-.456-9.54-.456-9.54Z" transform="translate(-439.68 -2987.113)" fill="#9ea9fc"/>
        </g>
        <g id="Group_13361" data-name="Group 13361" transform="translate(26.671 12.281)">
          <path id="Path_19366" data-name="Path 19366" d="M495.2,3073.14c-4.73,0-15.379-12.927-10.979-28.813.89-3.211,4.38-5.059,10.979-5.059,7.259,0,10.58,1.963,11.109,4.563C510.05,3062.218,500.041,3073.14,495.2,3073.14Z" transform="translate(-481.662 -3039.268)" fill="#ffd8a3"/>
          <path id="Path_19367" data-name="Path 19367" d="M541.6,3071.54a5.953,5.953,0,0,1,7.173,3.743C546.837,3072.635,545.338,3071.646,541.6,3071.54Z" transform="translate(-526.325 -3063.811)" fill="#2d356b"/>
          <path id="Path_19368" data-name="Path 19368" d="M498.8,3073.021a5.931,5.931,0,0,0-7.545,2.856C493.489,3073.481,495.091,3072.679,498.8,3073.021Z" transform="translate(-487.835 -3064.759)" fill="#2d356b"/>
          <path id="Path_19369" data-name="Path 19369" d="M553.727,3095.933a1.311,1.311,0,1,0-1.2,1.688A1.483,1.483,0,0,0,553.727,3095.933Z" transform="translate(-533.655 -3081.386)" fill="#2d356b"/>
          <path id="Path_19370" data-name="Path 19370" d="M551.3,3095.6a4.328,4.328,0,0,0-5.317-.827A10.92,10.92,0,0,1,551.3,3095.6Z" transform="translate(-529.676 -3081.263)" fill="#2d356b"/>
          <path id="Path_19371" data-name="Path 19371" d="M505.149,3095.933a1.311,1.311,0,1,1,1.2,1.688A1.483,1.483,0,0,1,505.149,3095.933Z" transform="translate(-498.457 -3081.386)" fill="#2d356b"/>
          <path id="Path_19372" data-name="Path 19372" d="M498.577,3095.6a4.324,4.324,0,0,1,5.314-.827A10.913,10.913,0,0,0,498.577,3095.6Z" transform="translate(-493.434 -3081.263)" fill="#2d356b"/>
          <path id="Path_19373" data-name="Path 19373" d="M528.076,3112.371a3.467,3.467,0,0,0,1.417.588,2.015,2.015,0,0,0,1.417-.646c.063-.39-.971-4.738-1.338-4.776S528.049,3111.806,528.076,3112.371Z" transform="translate(-515.986 -3091.462)" fill="#ffab00"/>
          <path id="Path_19374" data-name="Path 19374" d="M531.671,3109.6c0,.088.421.227.569.227.254,0,.559-.13.57-.287.025-.38.226-4.7-.538-4.655C531.436,3104.931,531.662,3109.05,531.671,3109.6Z" transform="translate(-518.709 -3089.436)" fill="#ffd8a3"/>
          <path id="Path_19375" data-name="Path 19375" d="M531.633,3159.456c0-.526-.582-.476-1.332-.476s-1.385-.051-1.385.476.607.953,1.358.953S531.633,3159.983,531.633,3159.456Z" transform="translate(-516.629 -3130.792)" fill="#f36973"/>
          <path id="Path_19376" data-name="Path 19376" d="M528.767,3138.637a2.355,2.355,0,0,0-2.48-.075c-.468,0-.936-.79-2.548.075-.464.249,1.125.953,2.515.953S529.231,3138.886,528.767,3138.637Z" transform="translate(-512.608 -3114.93)" fill="#f36973"/>
          <path id="Path_19377" data-name="Path 19377" d="M519.129,3140.123h7.3s-.979,5.255-3.652,5.255S519.129,3140.123,519.129,3140.123Z" transform="translate(-509.147 -3116.375)" fill="#ffab00"/>
          <path id="Path_19378" data-name="Path 19378" d="M527.455,3141.26h-6.29l.691,2.138h4.907Z" transform="translate(-510.704 -3117.245)" fill="#fff"/>
          <path id="Path_19379" data-name="Path 19379" d="M549.511,3138.671a.372.372,0,1,0-.367.428A.4.4,0,0,0,549.511,3138.671Z" transform="translate(-531.813 -3114.937)" fill="#ffab00"/>
          <path id="Path_19380" data-name="Path 19380" d="M518.05,3138.671a.372.372,0,1,0-.367.428A.4.4,0,0,0,518.05,3138.671Z" transform="translate(-507.76 -3114.937)" fill="#ffab00"/>
          <path id="Path_19381" data-name="Path 19381" d="M478.637,3108.28c-.223-1.042-.085-1.889-.853-1.725a1.735,1.735,0,0,0-.99,2.186c.222,1.041,1.027,1.753,1.8,1.588S478.86,3109.323,478.637,3108.28Z" transform="translate(-476.736 -3090.696)" fill="#f7c371"/>
          <path id="Path_19382" data-name="Path 19382" d="M582.263,3108.305c.2-1.047.031-1.894.827-1.744a1.75,1.75,0,0,1,1.084,2.172c-.2,1.047-1,1.775-1.8,1.625S582.065,3109.355,582.263,3108.305Z" transform="translate(-557.163 -3090.703)" fill="#f7c371"/>
        </g>
        <g id="Group_13363" data-name="Group 13363" transform="translate(26.522 6.945)">
          <path id="Path_19383" data-name="Path 19383" d="M476.137,3032.757c4.154-1.973,14.536-7.475,15.367-14.119,0,0-10.487-1.662-12.874,4.878C475.613,3031.777,476.137,3032.757,476.137,3032.757Z" transform="translate(-476.102 -3018.016)" fill="#9ea9fc"/>
          <path id="Path_19384" data-name="Path 19384" d="M542.324,3043.177c-.73-2.87-1.4-7.264-1.109-9.786.4-3.455-10.171-11.441-11.651-14.4-2.113-4.22,7.237-1.55,7.237-1.55C545.262,3025.185,543.361,3033.51,542.324,3043.177Z" transform="translate(-516.738 -3016.609)" fill="#9ea9fc"/>
          <g id="Group_13362" data-name="Group 13362" transform="translate(5.976 1.136)">
            <path id="Path_19385" data-name="Path 19385" d="M510.794,3021.432c-.641,4.409-5.245,8.6-9.31,11.509,4.508-2.713,9.7-6.779,10.282-11.4C511.766,3021.541,511.4,3021.483,510.794,3021.432Z" transform="translate(-501.484 -3021.432)" fill="#9ea9fc"/>
          </g>
        </g>
      </g>
      <g id="Group_13365" data-name="Group 13365" transform="translate(5.245 105.876)">
        <rect id="Rectangle_4605" data-name="Rectangle 4605" width="71.923" height="28.338" rx="6.672" fill="#fff" stroke="#231f20" stroke-miterlimit="10" stroke-width="0.25"/>
        <text id="Managers" transform="translate(16.462 17.669)" fill="#2d356b" font-size="10" font-family="TrebuchetMS-Bold, Trebuchet MS" font-weight="700"><tspan x="0" y="0">Managers</tspan></text>
      </g>
    </g>
    <g id="Group_13367" data-name="Group 13367" transform="translate(400.316 2922.613)">
      <path id="Path_19386" data-name="Path 19386" d="M856.322,3069.225a20.973,20.973,0,0,1-.385,8.581c-3.7,14.408-21.961,22.69-40.792,18.5-10.215-2.274-18.5-7.752-23.348-14.589-9.8,11.627-26.3,16.367-37.306,10.571-10.365-5.457-12.257-18.35-4.926-29.892-16.611-3.922-27.763-15.7-24.986-26.518,1.977-7.7,10.49-12.866,21.265-13.937-4.909-4.262-7.353-9.1-6.2-13.575,2.368-9.225,19.111-13.4,37.4-9.332q2,.446,3.913,1c5.626-9.852,21.106-14.8,37.249-11.2,18.286,4.071,30.5,17.555,27.271,30.118q-.157.613-.36,1.208a76.368,76.368,0,0,1,8.673,1.417c22.981,5.116,38.975,19.532,35.723,32.2C886.948,3063.734,873.241,3069.646,856.322,3069.225Z" transform="translate(-694.842 -2991.949)" fill="#fff" stroke="#cfd0d8" stroke-miterlimit="10" stroke-width="1"/>
      <circle id="Ellipse_132" data-name="Ellipse 132" cx="8.683" cy="8.683" r="8.683" transform="translate(23.083 19.903)" fill="#fff" stroke="#cfd0d8" stroke-miterlimit="10" stroke-width="1"/>
      <circle id="Ellipse_133" data-name="Ellipse 133" cx="5.145" cy="5.145" r="5.145" transform="translate(11.11 19.054)" fill="#fff" stroke="#cfd0d8" stroke-miterlimit="10" stroke-width="1"/>
      <circle id="Ellipse_134" data-name="Ellipse 134" cx="4.401" cy="4.401" r="4.401" transform="translate(0 24.379)" fill="#fff" stroke="#cfd0d8" stroke-miterlimit="10" stroke-width="1"/>
    </g>
    <text id="approve" transform="matrix(0.978, 0.207, -0.207, 0.978, 462.708, 2956.899)" fill="#2d356b" font-size="20" font-family="TrebuchetMS-Bold, Trebuchet MS" font-weight="700"><tspan x="0" y="0">approve</tspan></text>
    <text id="vacation_requests" data-name="vacation requests" transform="translate(457.114 3004.788) rotate(-4.926)" fill="#2d356b" font-size="16" font-family="TrebuchetMS-Bold, Trebuchet MS" font-weight="700"><tspan x="0" y="0">vacation requests</tspan></text>
  </g>
</svg>
