<svg xmlns="http://www.w3.org/2000/svg" width="546.942" height="220.973" viewBox="0 0 546.942 220.973">
  <g id="Group_19027" data-name="Group 19027" transform="translate(-29.558 -9175.711)">
    <g id="Group_18963" data-name="Group 18963" transform="translate(122.956 9247.052)">
      <g id="Group_18962" data-name="Group 18962">
        <g id="Group_18961" data-name="Group 18961">
          <rect id="Rectangle_6671" data-name="Rectangle 6671" width="172.029" height="32.038" rx="11.604" transform="translate(-11 -4)" fill="#fff" stroke="#231f20" stroke-miterlimit="10" stroke-width="0.25"/>
          <path id="Path_28705" data-name="Path 28705" d="M1010.159,12719.675l-10.276,18.333,20.283-18.333Z" transform="translate(-885.584 -12691.635)" fill="#fff" stroke="#231f20" stroke-miterlimit="10" stroke-width="0.25"/>
        </g>
      </g>
    </g>
    <g id="Group_18966" data-name="Group 18966" transform="translate(74.376 9204.726)">
      <g id="Group_18965" data-name="Group 18965" transform="translate(0 0)">
        <g id="Group_18964" data-name="Group 18964">
          <rect id="Rectangle_6672" data-name="Rectangle 6672" width="163.464" height="33.038" rx="11.604" transform="translate(-26)" fill="#fff" stroke="#231f20" stroke-miterlimit="10" stroke-width="0.25"/>
          <path id="Path_28706" data-name="Path 28706" d="M312.206,12503.67l23.587,51.808-13.581-51.808Z" transform="translate(-314.225 -12470.63)" fill="#fff" stroke="#231f20" stroke-miterlimit="10" stroke-width="0.25"/>
        </g>
      </g>
    </g>
    <g id="Group_18980" data-name="Group 18980" transform="translate(78.735 9298.639)">
      <g id="Group_18979" data-name="Group 18979">
        <g id="Group_18969" data-name="Group 18969" transform="translate(19.31 38.383)">
          <g id="Group_18967" data-name="Group 18967" transform="translate(24.626 16.358)">
            <path id="Path_28707" data-name="Path 28707" d="M496.233,13018.91c1.664-1.113,6.581-.764,6.214-2.471-.328-1.529-3.118-3.5-7.018,1.145Z" transform="translate(-495.429 -13010.723)" fill="#f8c471"/>
            <path id="Path_28708" data-name="Path 28708" d="M504.921,13013.5c.408,2.736,3.74,2.225,4.752,1.822,1.112-.442,1.371-2.605.725-3.308S504.766,13012.459,504.921,13013.5Z" transform="translate(-502.485 -13008.578)" fill="#f8c471"/>
            <path id="Path_28709" data-name="Path 28709" d="M509.426,13002.786c.9-1.361,1.269-3.352.676-3.547-.668-.221-.666,1.549-1.769,2.576-1.193,1.112-1.883,1.875-1.479,2.357S508.529,13004.15,509.426,13002.786Z" transform="translate(-503.839 -12999.221)" fill="#f8c471"/>
            <path id="Path_28710" data-name="Path 28710" d="M519.058,13008.2c1.3-.524,1.851-1.1,1.673-1.424s-.9.017-2.193.539-3.07.864-2.892,1.192S517.762,13008.722,519.058,13008.2Z" transform="translate(-510.454 -13004.745)" fill="#f8c471"/>
            <path id="Path_28711" data-name="Path 28711" d="M523.375,13014.354c1.4-.256,2.5-1.1,2.392-1.451s-1.336.193-2.738.45-2.3.5-2.188.852S521.974,13014.612,523.375,13014.354Z" transform="translate(-514.32 -13009.313)" fill="#f8c471"/>
            <path id="Path_28712" data-name="Path 28712" d="M519.923,13021.234c1.389-.313,2.093-.8,1.977-1.149s-.993.031-2.38.347-2.357.553-2.241.9S518.533,13021.549,519.923,13021.234Z" transform="translate(-511.67 -13014.635)" fill="#f8c471"/>
          </g>
          <g id="Group_18968" data-name="Group 18968">
            <path id="Path_28713" data-name="Path 28713" d="M415.547,12935.594c-4.478-2.74-16.177,26.434-16.18,27.551,0,0,2.3,1.8,3.265.9C405.124,12961.717,417.546,12936.818,415.547,12935.594Z" transform="translate(-399.367 -12935.412)" fill="#ffb2b0"/>
            <path id="Path_28714" data-name="Path 28714" d="M426.031,13024.182c1.088,3.979-21.685,5.852-22.529,5.6,0,0-1.778-2.581-.888-3.1C404.916,13025.327,425.545,13022.405,426.031,13024.182Z" transform="translate(-401.597 -13001.012)" fill="#ffb2b0"/>
            <path id="Path_28715" data-name="Path 28715" d="M483.936,13021.881l-.656-1.077-4.772-.464a9.81,9.81,0,0,0,1.178,2.44C480.122,13023.115,483.936,13021.881,483.936,13021.881Z" transform="translate(-458.22 -12998.569)" fill="#eaeaea"/>
            <path id="Path_28716" data-name="Path 28716" d="M488.192,13026l.163,1.258-3.475,3.309a9.844,9.844,0,0,1-.61-2.66C484.4,13027.376,488.192,13026,488.192,13026Z" transform="translate(-462.493 -13002.781)" fill="#eaeaea"/>
          </g>
        </g>
        <g id="Group_18975" data-name="Group 18975">
          <g id="Group_18974" data-name="Group 18974">
            <g id="Group_18970" data-name="Group 18970" transform="translate(0 1.127)">
              <path id="Path_28717" data-name="Path 28717" d="M361.367,12839.187c5.14-4.3-2.376-5.883-1.739-9.916s1.431-2.688,2.457-7.879-.229-7.239-.106-10.3,2.53-7.908,1.069-11.893-2.618-2.758-3.916-5.941-2.994.062-5.634,1.233-5-6.38-9.664-3.911-4.664,8.168-6.236,11.247-6.095,4.033-7.208,9.667,2.145,4.585.427,8.4-5.611,3.205-6.724,8.84c0,0-.958,5.665,5.428,5.849s4.139,3.438,11.214,1.754,4.3,4.237,9.339,2.307S356.776,12843.022,361.367,12839.187Z" transform="translate(-324.042 -12790.083)" fill="#2d356b"/>
            </g>
            <g id="Group_18971" data-name="Group 18971" transform="translate(21.39 19.698)">
              <path id="Path_28718" data-name="Path 28718" d="M423.789,12862.525l5.885,3.7,1.056,12.728-4.728-1.71Z" transform="translate(-419.609 -12862.525)" fill="#f7c371"/>
              <path id="Path_28719" data-name="Path 28719" d="M429.78,12978.589c-3.782-2.478-14.647,4.8-22.3-1.172,2.912-8.552,5.557-16.959,5.651-24,.174-13.04-10.909-28.355-1.738-34.25,9.736-6.26,21.3,22.644,21.3,22.644C422.956,12947.294,425.65,12962.994,429.78,12978.589Z" transform="translate(-407.482 -12903.991)" fill="#fc8c99"/>
              <path id="Path_28720" data-name="Path 28720" d="M425.36,12916.588l1.71-.2,7.646,7.192-2.264,1.912S427.322,12920.26,425.36,12916.588Z" transform="translate(-420.777 -12902.579)" fill="#fff"/>
              <path id="Path_28721" data-name="Path 28721" d="M443.528,12925.068c.037-.024.07-.05.107-.077-2.018-4.025-6.427-10.191-10.685-9.794C436.826,12918.655,443.528,12925.068,443.528,12925.068Z" transform="translate(-426.421 -12901.681)" fill="#f7c371"/>
            </g>
            <g id="Group_18973" data-name="Group 18973" transform="translate(16.525)">
              <g id="Group_18972" data-name="Group 18972">
                <path id="Path_28722" data-name="Path 28722" d="M402.294,12812.769c-3.036-1.172-9.222-2.807-11.775-7.827-3.319-6.526-1.936-10.218-.158-14.7,3.389-8.541,17.973-2.911,16.774-.412C405.542,12793.146,413.3,12817.016,402.294,12812.769Z" transform="translate(-388.501 -12785.688)" fill="#2d356b"/>
                <path id="Path_28723" data-name="Path 28723" d="M432.545,12825.395c1.138.113,3.768-5.563,4.831-10.014.35-1.468-1.234-1.8-.621-6.868.36-2.974-.6-7.237-5.29-10.7-4.428-3.27-5.711,5.941-6.33,8.037-1.763,5.967-3.7,9.631-2.44,12.733C425.162,12824.64,431.344,12824.976,432.545,12825.395Z" transform="translate(-413.628 -12794.188)" fill="#ffd8a3"/>
                <path id="Path_28724" data-name="Path 28724" d="M464.563,12875.748c.019-.162.138-.279.266-.26a.275.275,0,0,1,.2.324.265.265,0,0,1-.267.26A.276.276,0,0,1,464.563,12875.748Z" transform="translate(-445.062 -12852.467)" fill="#ffab00"/>
                <path id="Path_28725" data-name="Path 28725" d="M464.981,12843.371c-.114-.8.24-1.5.787-1.566s1.088.518,1.2,1.314-.239,1.5-.787,1.568S465.1,12844.168,464.981,12843.371Z" transform="translate(-445.359 -12827.415)" fill="#2d356b"/>
                <path id="Path_28726" data-name="Path 28726" d="M460.871,12842.967c.567-1.232,1.46-2.518,3.662-2.162A7.675,7.675,0,0,0,460.871,12842.967Z" transform="translate(-442.319 -12826.63)" fill="#2d356b"/>
                <path id="Path_28727" data-name="Path 28727" d="M469.137,12889.532c.053-.182.558.534.826.585.76.144.443,1.1-.308.878C469.362,12890.908,469.082,12889.727,469.137,12889.532Z" transform="translate(-448.46 -12862.889)" fill="#f36973"/>
                <path id="Path_28728" data-name="Path 28728" d="M467.705,12876.468c-.5-.26,3.108-.915,2.353.209A5.544,5.544,0,0,1,467.705,12876.468Z" transform="translate(-447.366 -12852.88)" fill="#f36973"/>
                <path id="Path_28729" data-name="Path 28729" d="M461.1,12827.188a4.692,4.692,0,0,0-5.92,2.367C456.9,12827.631,458.157,12826.977,461.1,12827.188Z" transform="translate(-438.086 -12816.336)" fill="#2d356b"/>
                <path id="Path_28730" data-name="Path 28730" d="M477.486,12856.482l-1.816.361.391-4.506,2.3,3.468Z" transform="translate(-453.324 -12835.253)" fill="#ffd8a3"/>
                <path id="Path_28731" data-name="Path 28731" d="M477.384,12870.06l1.651-2.647-1.318-.182Z" transform="translate(-454.598 -12846.327)" fill="#ffd8a3"/>
                <path id="Path_28732" data-name="Path 28732" d="M467.361,12880.849a33.411,33.411,0,0,0,1.264-3.818l-3.182-.322S465.734,12880.142,467.361,12880.849Z" transform="translate(-445.719 -12853.373)" fill="#ffab00"/>
                <path id="Path_28733" data-name="Path 28733" d="M467.329,12879.291l1.812.184c.154-.48.3-.984.446-1.508l-2.6-.262Z" transform="translate(-446.867 -12854.115)" fill="#fff"/>
                <path id="Path_28734" data-name="Path 28734" d="M413.256,12847.212c.212-1.381.785-2.354-.262-2.515s-2.072.832-2.284,2.216a2.287,2.287,0,0,0,1.518,2.788C413.278,12849.86,413.045,12848.594,413.256,12847.212Z" transform="translate(-404.988 -12829.558)" fill="#f7c371"/>
              </g>
              <path id="Path_28735" data-name="Path 28735" d="M435.437,12796.131c-3.851,4.713-10.452,11.506-9.769,18.841-2.189-7.957.164-18.044,5.671-21.738C431.8,12794.058,436.37,12794.284,435.437,12796.131Z" transform="translate(-415.536 -12791.3)" fill="#2d356b"/>
            </g>
          </g>
        </g>
        <g id="Group_18978" data-name="Group 18978" transform="translate(15.639 38.057)">
          <g id="Group_18976" data-name="Group 18976" transform="translate(26.425 13.975)">
            <path id="Path_28736" data-name="Path 28736" d="M489.422,13013.463c1.546-1.742,7.187-2.8,6.272-4.611-.819-1.625-4.541-3.023-7.568,3.354Z" transform="translate(-488.126 -13002.655)" fill="#ffd9a4"/>
            <path id="Path_28737" data-name="Path 28737" d="M496.516,13004.844c1.265,2.961,4.867,1.408,5.888.655,1.122-.825.778-3.338-.156-3.939S496.034,13003.711,496.516,13004.844Z" transform="translate(-494.342 -12998.19)" fill="#ffd9a4"/>
            <path id="Path_28738" data-name="Path 28738" d="M500.955,12992.85c.61-1.8.444-4.145-.281-4.189-.818-.053-.295,1.938-1.236,3.418-1.016,1.605-1.569,2.667-.972,3.093S500.346,12994.651,500.955,12992.85Z" transform="translate(-495.633 -12988.659)" fill="#ffd9a4"/>
            <path id="Path_28739" data-name="Path 28739" d="M511.044,12994.752c1.3-.972,1.763-1.779,1.465-2.095s-1.006.281-2.311,1.252-3.2,1.876-2.906,2.193S509.738,12995.717,511.044,12994.752Z" transform="translate(-502.355 -12991.566)" fill="#ffd9a4"/>
            <path id="Path_28740" data-name="Path 28740" d="M517.319,13000.525c1.5-.705,2.49-1.977,2.267-2.34s-1.448.609-2.951,1.313-2.439,1.24-2.214,1.6S515.817,13001.229,517.319,13000.525Z" transform="translate(-507.655 -12995.684)" fill="#ffd9a4"/>
            <path id="Path_28741" data-name="Path 28741" d="M515.431,13009.571c1.472-.763,2.122-1.521,1.888-1.878s-1.108.331-2.579,1.091-2.492,1.319-2.258,1.675S513.958,13010.332,515.431,13009.571Z" transform="translate(-506.213 -13002.741)" fill="#ffd9a4"/>
          </g>
          <g id="Group_18977" data-name="Group 18977">
            <path id="Path_28742" data-name="Path 28742" d="M395.183,12934.205c-5.849-1.769-10.445,34.527-10.12,35.788,0,0,3.121,1.348,3.942.051C391.127,12966.691,397.794,12935,395.183,12934.205Z" transform="translate(-385.047 -12934.143)" fill="#ffb2b0"/>
            <path id="Path_28743" data-name="Path 28743" d="M412.388,13025.214c2.4,4.161-22.7,12.967-23.725,12.938,0,0-2.761-2.384-1.913-3.236C388.944,13032.714,411.318,13023.355,412.388,13025.214Z" transform="translate(-386.193 -13001.688)" fill="#ffb2b0"/>
            <path id="Path_28744" data-name="Path 28744" d="M473.974,13022.114l-1.055-1.02-5.511.881a11.361,11.361,0,0,0,2.044,2.4C470.041,13024.627,473.974,13022.114,473.974,13022.114Z" transform="translate(-446.293 -12998.805)" fill="#eaeaea"/>
            <path id="Path_28745" data-name="Path 28745" d="M481.659,13024.7l.553,1.37-2.94,4.748a11.451,11.451,0,0,1-1.47-2.816C477.793,13027.357,481.659,13024.7,481.659,13024.7Z" transform="translate(-454.024 -13001.482)" fill="#eaeaea"/>
          </g>
        </g>
      </g>
    </g>
    <g id="Group_19023" data-name="Group 19023" transform="translate(192.725 9296.528)">
      <path id="Path_28817" data-name="Path 28817" d="M867.906,12790.533c-2.34-8.73,12.619-17.924,18.519-14.328,0,0,14.66-.227,10.5,24.438-.184,1.092-4.664,1.092-4.614,3.465s-.163,2.109-1.286,3.223-3.25-.453-3.737.359c-1.336,2.229,3.062,3.768,4.4,2.555,0,0-10.894,6.828-16.39-4.664C874.986,12804.92,868.523,12792.832,867.906,12790.533Z" transform="translate(-857.18 -12775.405)" fill="#fff4ba"/>
      <g id="Group_19016" data-name="Group 19016" transform="translate(10.882 22.968)">
        <path id="Path_28818" data-name="Path 28818" d="M921.37,12867.428l-5.619,4.484.393,13.2,4.662-2.309Z" transform="translate(-904.151 -12867.428)" fill="#f6cda2"/>
        <path id="Path_28819" data-name="Path 28819" d="M874.24,12985.809c13.394,6.094,17.831,2.735,25.083,1.59-1.016-10.36-7.683-16.784-8.6-24-1.7-13.382,7.917-30.412-2.193-35.406-10.736-5.3-19.261,25.752-19.261,25.752C879.919,12958.237,876.673,12969.3,874.24,12985.809Z" transform="translate(-869.274 -12912.415)" fill="#9ea9fc"/>
        <path id="Path_28820" data-name="Path 28820" d="M916.662,12925.279l-1.781-.008-7.023,8.281,2.549,1.7S915.072,12929.279,916.662,12925.279Z" transform="translate(-898.228 -12910.834)" fill="#fff"/>
        <path id="Path_28821" data-name="Path 28821" d="M895.566,12935.557l-.119-.068c1.606-4.372,5.422-11.221,9.845-11.309C901.71,12928.185,895.566,12935.557,895.566,12935.557Z" transform="translate(-888.914 -12910.016)" fill="#f6cda2"/>
      </g>
      <g id="Group_19019" data-name="Group 19019" transform="translate(0 41.775)">
        <g id="Group_19017" data-name="Group 19017" transform="translate(0 18.835)">
          <path id="Path_28822" data-name="Path 28822" d="M854.781,13041.411c-2.045-1.209-7.852-.473-7.529-2.521.289-1.834,3.466-4.354,8.4.9Z" transform="translate(-841.856 -13032.056)" fill="#ffd9a4"/>
          <path id="Path_28823" data-name="Path 28823" d="M848.01,13035.479c-.3,3.271-4.288,2.885-5.514,2.475-1.348-.453-1.8-3-1.077-3.874S848.124,13034.229,848.01,13035.479Z" transform="translate(-837.233 -13029.884)" fill="#ffd9a4"/>
          <path id="Path_28824" data-name="Path 28824" d="M849.514,13022.436c-1.153-1.556-1.724-3.889-1.035-4.159.778-.307.892,1.792,2.267,2.936,1.487,1.24,2.356,2.1,1.908,2.7S850.668,13023.994,849.514,13022.436Z" transform="translate(-842.563 -13018.246)" fill="#ffd9a4"/>
          <path id="Path_28825" data-name="Path 28825" d="M832.83,13030.052c-1.57-.537-2.267-1.179-2.077-1.579s1.066-.039,2.635.494,3.7.824,3.507,1.225S834.4,13030.582,832.83,13030.052Z" transform="translate(-829.463 -13025.791)" fill="#ffd9a4"/>
          <path id="Path_28826" data-name="Path 28826" d="M828.61,13037.809c-1.679-.214-3.035-1.144-2.932-1.565s1.6.142,3.276.354,2.755.444,2.65.866S830.288,13038.022,828.61,13037.809Z" transform="translate(-825.673 -13031.637)" fill="#ffd9a4"/>
          <path id="Path_28827" data-name="Path 28827" d="M834.357,13045.895c-1.668-.281-2.534-.815-2.419-1.234s1.179-.026,2.845.257,2.831.5,2.715.919S836.025,13046.175,834.357,13045.895Z" transform="translate(-830.366 -13037.931)" fill="#ffd9a4"/>
        </g>
        <g id="Group_19018" data-name="Group 19018" transform="translate(10.658)">
          <path id="Path_28828" data-name="Path 28828" d="M876.558,13046.906c-1.3,5.367,22.85,11.572,23.99,11.21,0,0,2.3-3.518,1.067-4.189C898.413,13052.19,877.139,13044.509,876.558,13046.906Z" transform="translate(-874.477 -13020.572)" fill="#495bd9"/>
          <path id="Path_28829" data-name="Path 28829" d="M944,12943.041c5.983-3.727,8.95,33.964,7.2,35.095,0,0-3.782-.333-4.807-1.809C943.3,12971.872,941.332,12944.7,944,12943.041Z" transform="translate(-924.186 -12942.782)" fill="#495bd9"/>
          <path id="Path_28830" data-name="Path 28830" d="M869.173,13042.234l.885-1.342,6.4-.129s-1,2.68-1.589,3.076S869.173,13042.234,869.173,13042.234Z" transform="translate(-868.974 -13016.309)" fill="#fff"/>
          <path id="Path_28831" data-name="Path 28831" d="M868.6,13046.194l-.222,1.631,4.653,4.684s1-2.71.827-3.425S868.6,13046.194,868.6,13046.194Z" transform="translate(-868.374 -13020.384)" fill="#fff"/>
        </g>
      </g>
      <g id="Group_19022" data-name="Group 19022" transform="translate(12.182 2.661)">
        <g id="Group_19021" data-name="Group 19021">
          <g id="Group_19020" data-name="Group 19020" transform="translate(0 2.33)">
            <path id="Path_28832" data-name="Path 28832" d="M883.994,12824.066c-1.164.064-3.585-5.834-4.465-10.412-.29-1.512,1.338-1.783.944-6.965-.231-3.045.939-7.342,5.872-10.654,4.657-3.127,5.544,6.309,6.08,8.471,1.525,6.156,3.333,9.975,1.906,13.074C891.545,12823.635,885.235,12823.7,883.994,12824.066Z" transform="translate(-878.243 -12795.406)" fill="#ffd8a3"/>
            <path id="Path_28833" data-name="Path 28833" d="M895.15,12876.975a.269.269,0,0,0-.259-.277.281.281,0,0,0-.215.321.27.27,0,0,0,.26.278A.283.283,0,0,0,895.15,12876.975Z" transform="translate(-889.635 -12856.406)" fill="#ffab00"/>
            <path id="Path_28834" data-name="Path 28834" d="M891.407,12842.834c-.073-.817-.589-1.43-1.148-1.37s-.957.771-.883,1.588.588,1.43,1.149,1.37S891.481,12843.652,891.407,12842.834Z" transform="translate(-885.651 -12829.965)" fill="#2d356b"/>
            <path id="Path_28835" data-name="Path 28835" d="M889.7,12842.643c-.851-1.09-2.039-2.156-4.139-1.287A7.843,7.843,0,0,1,889.7,12842.643Z" transform="translate(-882.799 -12829.647)" fill="#2d356b"/>
            <path id="Path_28836" data-name="Path 28836" d="M887.167,12891.212c-.046-.188-.592.517-.868.557-.78.11-.5,1.1.273.906C886.875,12892.6,887.214,12891.411,887.167,12891.212Z" transform="translate(-883.001 -12867.275)" fill="#f36973"/>
            <path id="Path_28837" data-name="Path 28837" d="M885.585,12877.379c.519-.242-3.123-1.072-2.406.107A5.672,5.672,0,0,0,885.585,12877.379Z" transform="translate(-880.938 -12856.537)" fill="#f36973"/>
            <path id="Path_28838" data-name="Path 28838" d="M884.508,12825.814a4.782,4.782,0,0,1,5.92,2.68C888.759,12826.457,887.513,12825.732,884.508,12825.814Z" transform="translate(-882.005 -12818.061)" fill="#2d356b"/>
            <path id="Path_28839" data-name="Path 28839" d="M875.343,12856.1l1.833.45-.193-4.605-2.5,3.427Z" transform="translate(-874.481 -12837.833)" fill="#ffd8a3"/>
            <path id="Path_28840" data-name="Path 28840" d="M878.405,12870.347l-1.56-2.771,1.35-.123Z" transform="translate(-876.255 -12849.471)" fill="#ffd8a3"/>
            <path id="Path_28841" data-name="Path 28841" d="M883.733,12882.109a33.972,33.972,0,0,1-1.113-3.945l3.254-.182S885.421,12881.465,883.733,12882.109Z" transform="translate(-880.589 -12857.372)" fill="#ffab00"/>
            <path id="Path_28842" data-name="Path 28842" d="M885.578,12880.552l-1.853.1q-.2-.746-.386-1.555l2.66-.148Z" transform="translate(-881.128 -12858.1)" fill="#fff"/>
            <path id="Path_28843" data-name="Path 28843" d="M942.608,12849.211c-.153-1.416-.692-2.436.382-2.549s2.072.941,2.225,2.357-.6,2.658-1.673,2.773S942.76,12850.627,942.608,12849.211Z" transform="translate(-925.401 -12833.862)" fill="#f7c371"/>
          </g>
          <path id="Path_28844" data-name="Path 28844" d="M900.329,12786.073c.927,3.341,3.67,11.766,8.5,13.243,0,0,2.593-7.573-1.958-10.2C901.125,12785.811,900.329,12786.073,900.329,12786.073Z" transform="translate(-893.878 -12786.068)" fill="#fff4ba"/>
        </g>
      </g>
    </g>
    <rect id="Rectangle_6674" data-name="Rectangle 6674" width="266.955" height="215.461" transform="translate(32.058 9178.723)" fill="none" stroke="#ebebeb" stroke-miterlimit="10" stroke-width="5"/>
    <g id="Group_18982" data-name="Group 18982" transform="translate(32.058 9178.723)">
      <rect id="Rectangle_6675" data-name="Rectangle 6675" width="39.644" height="24.003" transform="translate(39.644 24.003) rotate(-180)" fill="#ebebeb"/>
    </g>
    <text id="_4" data-name="4" transform="translate(38.742 9198.711)" fill="#2d356b" font-size="24" font-family="TrebuchetMS-Bold, Trebuchet MS" font-weight="700"><tspan x="0" y="0">4</tspan></text>
    <g id="Group_18985" data-name="Group 18985" transform="translate(425.525 9242.564)">
      <g id="Group_18984" data-name="Group 18984">
        <g id="Group_18983" data-name="Group 18983">
          <rect id="Rectangle_6676" data-name="Rectangle 6676" width="126.415" height="38.038" rx="11.604" fill="#fff" stroke="#231f20" stroke-miterlimit="10" stroke-width="0.25"/>
          <path id="Path_28746" data-name="Path 28746" d="M2300.238,12719.675l-13.083,14.864,22.492-14.864Z" transform="translate(-2202.934 -12681.635)" fill="#fff" stroke="#231f20" stroke-miterlimit="10" stroke-width="0.25"/>
        </g>
      </g>
    </g>
    <g id="Group_18988" data-name="Group 18988" transform="translate(341.332 9202.726)">
      <g id="Group_18987" data-name="Group 18987" transform="translate(-14 -5)">
        <g id="Group_18986" data-name="Group 18986">
          <rect id="Rectangle_6677" data-name="Rectangle 6677" width="190.029" height="45.038" rx="11.604" transform="translate(0 -7)" fill="#fff" stroke="#231f20" stroke-miterlimit="10" stroke-width="0.25"/>
          <path id="Path_28747" data-name="Path 28747" d="M1613.118,12503.67l23.587,51.808-13.581-51.808Z" transform="translate(-1600.137 -12465.63)" fill="#fff" stroke="#231f20" stroke-miterlimit="10" stroke-width="0.25"/>
        </g>
      </g>
    </g>
    <g id="Group_19011" data-name="Group 19011" transform="translate(462.089 9295.857)">
      <g id="Group_19004" data-name="Group 19004" transform="translate(0 23.352)">
        <path id="Path_28787" data-name="Path 28787" d="M2182.854,12927.3l1.013.23.611,2.422-2.13,1.143Z" transform="translate(-2171.618 -12912.84)" fill="#eaeaea"/>
        <path id="Path_28788" data-name="Path 28788" d="M2186.206,12872.383l8.81-4.421,2.034,14.77-12.729,5.294Z" transform="translate(-2173.111 -12867.962)" fill="#f7c371"/>
        <path id="Path_28789" data-name="Path 28789" d="M2176.157,12981.051c-11.1.947-21.21,5.3-27.748,1.029-6.336-4.143-5.078-17.855-6.527-29.057-1.936-14.973,12.574-36.518,26.4-33.572,19.211,4.092,9.779,29.779,8.319,36.441C2172.324,12975.408,2175.25,12976.914,2176.157,12981.051Z" transform="translate(-2140.884 -12906.697)" fill="#495bd9"/>
        <path id="Path_28790" data-name="Path 28790" d="M2201.552,13017.433c-.4-4.944,3.949-5.517,11.273-23.356,1.42-3.461,2.359-13.428,3.372-21.777.378-3.117,6.232,2.147,7.837,9.518,1,4.57-1.634,11.01-2.193,13.559-4.276,19.517-1.35,21.023-.442,25.16C2214.98,13021.08,2207.823,13020.417,2201.552,13017.433Z" transform="translate(-2186.124 -12946.179)" fill="#9ea9fc"/>
        <path id="Path_28791" data-name="Path 28791" d="M2144.876,12966.715c-.788-19.5,12.4-39.976,25.329-46.625,2.172-1.116-.006-2.605-6.387-1.423C2158.111,12919.749,2136.059,12933.361,2144.876,12966.715Z" transform="translate(-2141.724 -12905.98)" fill="#9ea9fc"/>
        <path id="Path_28792" data-name="Path 28792" d="M2142.821,12955.3c.706-16.518,6.015-25.646,19.492-35.287-5.564,1.055-27.169,10.707-20.062,42.115C2142.432,12962.93,2142.7,12958.157,2142.821,12955.3Z" transform="translate(-2140.22 -12907.329)" fill="#eaeaea"/>
        <path id="Path_28793" data-name="Path 28793" d="M2164.445,13154.866c-.154-.674.1-1.306.563-1.412s.968.353,1.123,1.025-.1,1.308-.562,1.415S2164.6,13155.539,2164.445,13154.866Z" transform="translate(-2158.044 -13083.866)" fill="#7b87ab"/>
        <path id="Path_28794" data-name="Path 28794" d="M2156.92,13122.1c-.154-.674.1-1.309.563-1.414s.968.354,1.123,1.027-.1,1.3-.562,1.412S2157.075,13122.773,2156.92,13122.1Z" transform="translate(-2152.354 -13059.083)" fill="#7b87ab"/>
        <path id="Path_28795" data-name="Path 28795" d="M2186.359,12930.386l-3.229,1.459.831-3.737.6-.4Z" transform="translate(-2172.21 -12913.148)" fill="#ffd9a4"/>
        <path id="Path_28796" data-name="Path 28796" d="M2140.436,12979.87l.44-6.682s-4.85-20.274,9.055-31.939l-.229-.5C2138.308,12950.731,2136,12966.322,2140.436,12979.87Z" transform="translate(-2138.323 -12923.009)" fill="#ffd9a4"/>
        <path id="Path_28797" data-name="Path 28797" d="M2184.426,12912.681l12.792-4.711,1.909,2.478-11.978,6.2Z" transform="translate(-2173.19 -12898.219)" fill="#fff"/>
      </g>
      <g id="Group_19006" data-name="Group 19006" transform="translate(11.275 40.226)">
        <g id="Group_19005" data-name="Group 19005">
          <path id="Path_28798" data-name="Path 28798" d="M2256.487,12976.091c3.237.26-6.871-38.06-12.18-38.895,0,0-9.987,1.776-11.48,20.044C2232.827,12957.24,2244.661,12975.148,2256.487,12976.091Z" transform="translate(-2221.071 -12937.196)" fill="#495bd9"/>
          <path id="Path_28799" data-name="Path 28799" d="M2254.814,13030.32c-12.577,1.672-22.007-16.443-22.007-16.443a7.413,7.413,0,0,1,.179-1.793C2241.072,13025.617,2255.337,13030.25,2254.814,13030.32Z" transform="translate(-2221.051 -12993.834)" fill="#9ea9fc"/>
          <path id="Path_28800" data-name="Path 28800" d="M2186.685,13156.586l4.359-1.252-3.448-5.88-3.008,3.278Z" transform="translate(-2184.589 -13097.727)" fill="#eaeaea"/>
          <path id="Path_28801" data-name="Path 28801" d="M2226.461,13070.078s-8.412,8.679-30.378,19.512c0,0-2.437-1.2-3.243-5.875,0,0,12.935-16.794,24.312-22.135C2217.152,13061.58,2226.851,13065.34,2226.461,13070.078Z" transform="translate(-2190.83 -13031.268)" fill="#495bd9"/>
          <path id="Path_28802" data-name="Path 28802" d="M2205.506,13150.946a.958.958,0,1,1,.228-1.47A1.064,1.064,0,0,1,2205.506,13150.946Z" transform="translate(-2199.129 -13097.539)" fill="#9ea9fc"/>
        </g>
      </g>
      <g id="Group_19010" data-name="Group 19010" transform="translate(5.121)">
        <path id="Path_28803" data-name="Path 28803" d="M2187.757,12795.451c5.991-7.351,5.3-19.336,5-19.752-3.2-4.449-12.043-3.942-16.491-2.675-3.75,1.065-6.678,3.188-4.771,6.1.658,1.006,3.618-1.323,4.533-1.214,1.73.2,3.086,23.947,3.086,23.947Z" transform="translate(-2168.074 -12772.137)" fill="#2d356b"/>
        <g id="Group_19008" data-name="Group 19008" transform="translate(0 5.523)">
          <g id="Group_19007" data-name="Group 19007">
            <path id="Path_28804" data-name="Path 28804" d="M2168.845,12868.828l-.9-1.5,1.2-.758Z" transform="translate(-2165.843 -12849.083)" fill="#ffd8a3"/>
            <path id="Path_28805" data-name="Path 28805" d="M2184.638,12815.552c-.705,2.018-6.9,6.344-13.061,6.084-.718-8.011-.458-21.235,1.029-23.493,1.463-2.225,7.356-3.864,8.083-3.188-2.148,2.576,1.346,11.14,2.608,11.924C2186.37,12808.785,2185.375,12813.445,2184.638,12815.552Z" transform="translate(-2168.304 -12794.801)" fill="#ffd8a3"/>
            <path id="Path_28806" data-name="Path 28806" d="M2159.334,12847.561a56.793,56.793,0,0,0,3.015-6.768c.915-2.527.634,6.75.634,6.75S2160.239,12848.186,2159.334,12847.561Z" transform="translate(-2159.334 -12829.253)" fill="#ffd8a3"/>
            <path id="Path_28807" data-name="Path 28807" d="M2168.8,12898.853c-.623-.263-.934-.853-.694-1.313a1.219,1.219,0,0,1,1.562-.364c.624.262.934.85.694,1.313A1.22,1.22,0,0,1,2168.8,12898.853Z" transform="translate(-2165.907 -12872.13)" fill="#ffd8a3"/>
            <path id="Path_28808" data-name="Path 28808" d="M2169.714,12887.139c-.022-.164.16-.32.405-.354s.461.072.483.232-.159.32-.4.354S2169.735,12887.3,2169.714,12887.139Z" transform="translate(-2167.183 -12864.363)" fill="#ffd8a3"/>
          </g>
          <path id="Path_28809" data-name="Path 28809" d="M2220.063,12839.24c.339-1.461,1.461-2.494,2.507-2.309s1.618,1.518,1.279,2.979a3.316,3.316,0,0,1-3.366,2.129C2219.438,12841.855,2219.724,12840.7,2220.063,12839.24Z" transform="translate(-2205.028 -12826.647)" fill="#ffd8a3"/>
        </g>
        <path id="Path_28810" data-name="Path 28810" d="M2170.951,12873.095l.224,3.267s.912-.1,1.108-.506a11.446,11.446,0,0,0,.643-3.289Z" transform="translate(-2168.12 -12848.092)" fill="#ffab00"/>
        <path id="Path_28811" data-name="Path 28811" d="M2171.195,12873.727l.2,2.9s.673-.063.818-.247a8.169,8.169,0,0,0,.616-3.114Z" transform="translate(-2168.304 -12848.622)" fill="#fff"/>
        <path id="Path_28812" data-name="Path 28812" d="M2174.05,12831.2a.784.784,0,0,1,.2-.525c.328-.346,3.1.494,3.067,1.072l-.021.361c-.023.416-.85-.021-1.678-.131-.792-.107-1.588.133-1.58-.26Z" transform="translate(-2170.455 -12816.351)" fill="#2d356b"/>
        <path id="Path_28813" data-name="Path 28813" d="M2178.329,12843.187c-.018-.484.233-.912.561-.955s.609.312.628.795-.232.913-.561.956S2178.348,12843.67,2178.329,12843.187Z" transform="translate(-2173.699 -12825.146)" fill="#2d356b"/>
        <path id="Path_28814" data-name="Path 28814" d="M2178.776,12872.111c-.015-.112.037-.212.117-.223s.154.071.169.185-.036.21-.115.222S2178.791,12872.223,2178.776,12872.111Z" transform="translate(-2174.036 -12847.578)" fill="#ffab00"/>
        <g id="Group_19009" data-name="Group 19009" transform="translate(2.783 1.418)">
          <path id="Path_28815" data-name="Path 28815" d="M2209,12800.369c-2.664.236,1.719,12.232.38,13.123s.015,1.854.722,1.572c1.619-.648,1.845-4.062,1.919-6.236C2212.1,12806.408,2209.223,12800.35,2209,12800.369Z" transform="translate(-2199.014 -12794.906)" fill="#2d356b"/>
          <path id="Path_28816" data-name="Path 28816" d="M2170.834,12782.963c-.462-1.916,1.092-3.935,3.47-4.509s9.354-1.033,9.815.881-5.762,5.483-8.141,6.056S2171.3,12784.878,2170.834,12782.963Z" transform="translate(-2170.753 -12777.954)" fill="#2d356b"/>
        </g>
      </g>
    </g>
    <g id="Group_19002" data-name="Group 19002" transform="translate(345.69 9298.639)">
      <g id="Group_19001" data-name="Group 19001">
        <g id="Group_18991" data-name="Group 18991" transform="translate(19.31 38.383)">
          <g id="Group_18989" data-name="Group 18989" transform="translate(24.626 16.358)">
            <path id="Path_28748" data-name="Path 28748" d="M1797.146,13018.91c1.663-1.113,6.581-.764,6.214-2.471-.328-1.529-3.118-3.5-7.019,1.145Z" transform="translate(-1796.341 -13010.723)" fill="#f8c471"/>
            <path id="Path_28749" data-name="Path 28749" d="M1805.833,13013.5c.408,2.736,3.74,2.225,4.752,1.822,1.112-.442,1.371-2.605.725-3.308S1805.678,13012.459,1805.833,13013.5Z" transform="translate(-1803.397 -13008.578)" fill="#f8c471"/>
            <path id="Path_28750" data-name="Path 28750" d="M1810.338,13002.786c.9-1.361,1.269-3.352.676-3.547-.669-.221-.666,1.549-1.769,2.576-1.192,1.112-1.883,1.875-1.479,2.357S1809.441,13004.15,1810.338,13002.786Z" transform="translate(-1804.751 -12999.221)" fill="#f8c471"/>
            <path id="Path_28751" data-name="Path 28751" d="M1819.97,13008.2c1.3-.524,1.851-1.1,1.673-1.424s-.9.017-2.192.539-3.07.864-2.892,1.192S1818.674,13008.722,1819.97,13008.2Z" transform="translate(-1811.366 -13004.745)" fill="#f8c471"/>
            <path id="Path_28752" data-name="Path 28752" d="M1824.287,13014.354c1.4-.256,2.5-1.1,2.392-1.451s-1.337.193-2.738.45-2.3.5-2.188.852S1822.885,13014.612,1824.287,13014.354Z" transform="translate(-1815.232 -13009.313)" fill="#f8c471"/>
            <path id="Path_28753" data-name="Path 28753" d="M1820.835,13021.234c1.389-.313,2.094-.8,1.977-1.149s-.992.031-2.38.347-2.357.553-2.24.9S1819.445,13021.549,1820.835,13021.234Z" transform="translate(-1812.582 -13014.635)" fill="#f8c471"/>
          </g>
          <g id="Group_18990" data-name="Group 18990">
            <path id="Path_28754" data-name="Path 28754" d="M1716.459,12935.594c-4.478-2.74-16.177,26.434-16.18,27.551,0,0,2.3,1.8,3.265.9C1706.036,12961.717,1718.458,12936.818,1716.459,12935.594Z" transform="translate(-1700.279 -12935.412)" fill="#ffb2b0"/>
            <path id="Path_28755" data-name="Path 28755" d="M1726.943,13024.182c1.088,3.979-21.685,5.852-22.529,5.6,0,0-1.778-2.581-.888-3.1C1705.829,13025.327,1726.457,13022.405,1726.943,13024.182Z" transform="translate(-1702.509 -13001.012)" fill="#ffb2b0"/>
            <path id="Path_28756" data-name="Path 28756" d="M1784.848,13021.881l-.656-1.077-4.772-.464a9.813,9.813,0,0,0,1.178,2.44C1781.034,13023.115,1784.848,13021.881,1784.848,13021.881Z" transform="translate(-1759.132 -12998.569)" fill="#eaeaea"/>
            <path id="Path_28757" data-name="Path 28757" d="M1789.1,13026l.163,1.258-3.475,3.309a9.844,9.844,0,0,1-.61-2.66C1785.314,13027.376,1789.1,13026,1789.1,13026Z" transform="translate(-1763.405 -13002.781)" fill="#eaeaea"/>
          </g>
        </g>
        <g id="Group_18997" data-name="Group 18997">
          <g id="Group_18996" data-name="Group 18996">
            <g id="Group_18992" data-name="Group 18992" transform="translate(0 1.127)">
              <path id="Path_28758" data-name="Path 28758" d="M1662.279,12839.187c5.14-4.3-2.376-5.883-1.739-9.916s1.431-2.688,2.457-7.879-.229-7.239-.106-10.3,2.53-7.908,1.069-11.893-2.618-2.758-3.916-5.941-2.994.062-5.634,1.233-5-6.38-9.664-3.911-4.664,8.168-6.236,11.247-6.095,4.033-7.208,9.667,2.144,4.585.427,8.4-5.611,3.205-6.724,8.84c0,0-.958,5.665,5.428,5.849s4.139,3.438,11.214,1.754,4.3,4.237,9.339,2.307S1657.688,12843.022,1662.279,12839.187Z" transform="translate(-1624.954 -12790.083)" fill="#2d356b"/>
            </g>
            <g id="Group_18993" data-name="Group 18993" transform="translate(21.39 19.698)">
              <path id="Path_28759" data-name="Path 28759" d="M1724.7,12862.525l5.885,3.7,1.056,12.728-4.728-1.71Z" transform="translate(-1720.521 -12862.525)" fill="#f7c371"/>
              <path id="Path_28760" data-name="Path 28760" d="M1730.692,12978.589c-3.781-2.478-14.647,4.8-22.3-1.172,2.912-8.552,5.556-16.959,5.65-24,.174-13.04-10.908-28.355-1.738-34.25,9.736-6.26,21.3,22.644,21.3,22.644C1723.869,12947.294,1726.562,12962.994,1730.692,12978.589Z" transform="translate(-1708.394 -12903.991)" fill="#fc8c99"/>
              <path id="Path_28761" data-name="Path 28761" d="M1726.272,12916.588l1.71-.2,7.646,7.192-2.264,1.912S1728.234,12920.26,1726.272,12916.588Z" transform="translate(-1721.689 -12902.579)" fill="#fff"/>
              <path id="Path_28762" data-name="Path 28762" d="M1744.44,12925.068c.037-.024.071-.05.107-.077-2.018-4.025-6.427-10.191-10.685-9.794C1737.738,12918.655,1744.44,12925.068,1744.44,12925.068Z" transform="translate(-1727.333 -12901.681)" fill="#f7c371"/>
            </g>
            <g id="Group_18995" data-name="Group 18995" transform="translate(16.525)">
              <g id="Group_18994" data-name="Group 18994">
                <path id="Path_28763" data-name="Path 28763" d="M1703.206,12812.769c-3.036-1.172-9.222-2.807-11.775-7.827-3.319-6.526-1.936-10.218-.158-14.7,3.389-8.541,17.973-2.911,16.774-.412C1706.454,12793.146,1714.208,12817.016,1703.206,12812.769Z" transform="translate(-1689.413 -12785.688)" fill="#2d356b"/>
                <path id="Path_28764" data-name="Path 28764" d="M1733.457,12825.395c1.138.113,3.769-5.563,4.831-10.014.351-1.468-1.233-1.8-.621-6.868.36-2.974-.6-7.237-5.29-10.7-4.428-3.27-5.71,5.941-6.33,8.037-1.764,5.967-3.7,9.631-2.44,12.733C1726.074,12824.64,1732.256,12824.976,1733.457,12825.395Z" transform="translate(-1714.54 -12794.188)" fill="#ffd8a3"/>
                <path id="Path_28765" data-name="Path 28765" d="M1765.475,12875.748c.019-.162.138-.279.266-.26a.275.275,0,0,1,.2.324.265.265,0,0,1-.267.26A.276.276,0,0,1,1765.475,12875.748Z" transform="translate(-1745.974 -12852.467)" fill="#ffab00"/>
                <path id="Path_28766" data-name="Path 28766" d="M1765.894,12843.371c-.115-.8.239-1.5.787-1.566s1.088.518,1.2,1.314-.239,1.5-.787,1.568S1766.007,12844.168,1765.894,12843.371Z" transform="translate(-1746.272 -12827.415)" fill="#2d356b"/>
                <path id="Path_28767" data-name="Path 28767" d="M1761.783,12842.967c.567-1.232,1.46-2.518,3.662-2.162A7.676,7.676,0,0,0,1761.783,12842.967Z" transform="translate(-1743.231 -12826.63)" fill="#2d356b"/>
                <path id="Path_28768" data-name="Path 28768" d="M1770.049,12889.532c.053-.182.558.534.826.585.76.144.443,1.1-.308.878C1770.274,12890.908,1769.994,12889.727,1770.049,12889.532Z" transform="translate(-1749.372 -12862.889)" fill="#f36973"/>
                <path id="Path_28769" data-name="Path 28769" d="M1768.617,12876.468c-.5-.26,3.108-.915,2.354.209A5.544,5.544,0,0,1,1768.617,12876.468Z" transform="translate(-1748.278 -12852.88)" fill="#f36973"/>
                <path id="Path_28770" data-name="Path 28770" d="M1762.011,12827.188a4.692,4.692,0,0,0-5.92,2.367C1757.816,12827.631,1759.069,12826.977,1762.011,12827.188Z" transform="translate(-1738.998 -12816.336)" fill="#2d356b"/>
                <path id="Path_28771" data-name="Path 28771" d="M1778.4,12856.482l-1.816.361.391-4.506,2.3,3.468Z" transform="translate(-1754.236 -12835.253)" fill="#ffd8a3"/>
                <path id="Path_28772" data-name="Path 28772" d="M1778.3,12870.06l1.651-2.647-1.318-.182Z" transform="translate(-1755.51 -12846.327)" fill="#ffd8a3"/>
                <path id="Path_28773" data-name="Path 28773" d="M1768.273,12880.849a33.456,33.456,0,0,0,1.264-3.818l-3.182-.322S1766.646,12880.142,1768.273,12880.849Z" transform="translate(-1746.631 -12853.373)" fill="#ffab00"/>
                <path id="Path_28774" data-name="Path 28774" d="M1768.241,12879.291l1.812.184c.154-.48.3-.984.446-1.508l-2.6-.262Z" transform="translate(-1747.779 -12854.115)" fill="#fff"/>
                <path id="Path_28775" data-name="Path 28775" d="M1714.168,12847.212c.212-1.381.785-2.354-.262-2.515s-2.072.832-2.284,2.216a2.288,2.288,0,0,0,1.518,2.788C1714.19,12849.86,1713.958,12848.594,1714.168,12847.212Z" transform="translate(-1705.9 -12829.558)" fill="#f7c371"/>
              </g>
              <path id="Path_28776" data-name="Path 28776" d="M1736.35,12796.131c-3.852,4.713-10.452,11.506-9.769,18.841-2.189-7.957.164-18.044,5.671-21.738C1732.709,12794.058,1737.282,12794.284,1736.35,12796.131Z" transform="translate(-1716.449 -12791.3)" fill="#2d356b"/>
            </g>
          </g>
        </g>
        <g id="Group_19000" data-name="Group 19000" transform="translate(15.639 38.057)">
          <g id="Group_18998" data-name="Group 18998" transform="translate(26.425 13.975)">
            <path id="Path_28777" data-name="Path 28777" d="M1790.335,13013.463c1.546-1.742,7.187-2.8,6.271-4.611-.819-1.625-4.541-3.023-7.567,3.354Z" transform="translate(-1789.039 -13002.655)" fill="#ffd9a4"/>
            <path id="Path_28778" data-name="Path 28778" d="M1797.428,13004.844c1.265,2.961,4.867,1.408,5.888.655,1.122-.825.778-3.338-.156-3.939S1796.947,13003.711,1797.428,13004.844Z" transform="translate(-1795.255 -12998.19)" fill="#ffd9a4"/>
            <path id="Path_28779" data-name="Path 28779" d="M1801.867,12992.85c.61-1.8.444-4.145-.281-4.189-.818-.053-.295,1.938-1.235,3.418-1.016,1.605-1.569,2.667-.972,3.093S1801.258,12994.651,1801.867,12992.85Z" transform="translate(-1796.545 -12988.659)" fill="#ffd9a4"/>
            <path id="Path_28780" data-name="Path 28780" d="M1811.957,12994.752c1.3-.972,1.762-1.779,1.466-2.095s-1.007.281-2.311,1.252-3.2,1.876-2.906,2.193S1810.651,12995.717,1811.957,12994.752Z" transform="translate(-1803.268 -12991.566)" fill="#ffd9a4"/>
            <path id="Path_28781" data-name="Path 28781" d="M1818.231,13000.525c1.5-.705,2.49-1.977,2.267-2.34s-1.448.609-2.951,1.313-2.439,1.24-2.215,1.6S1816.729,13001.229,1818.231,13000.525Z" transform="translate(-1808.568 -12995.684)" fill="#ffd9a4"/>
            <path id="Path_28782" data-name="Path 28782" d="M1816.343,13009.571c1.472-.763,2.121-1.521,1.888-1.878s-1.108.331-2.579,1.091-2.492,1.319-2.258,1.675S1814.87,13010.332,1816.343,13009.571Z" transform="translate(-1807.126 -13002.741)" fill="#ffd9a4"/>
          </g>
          <g id="Group_18999" data-name="Group 18999">
            <path id="Path_28783" data-name="Path 28783" d="M1696.095,12934.205c-5.849-1.769-10.445,34.527-10.12,35.788,0,0,3.121,1.348,3.942.051C1692.039,12966.691,1698.706,12935,1696.095,12934.205Z" transform="translate(-1685.959 -12934.143)" fill="#ffb2b0"/>
            <path id="Path_28784" data-name="Path 28784" d="M1713.3,13025.214c2.4,4.161-22.7,12.967-23.725,12.938,0,0-2.761-2.384-1.913-3.236C1689.856,13032.714,1712.23,13023.355,1713.3,13025.214Z" transform="translate(-1687.105 -13001.688)" fill="#ffb2b0"/>
            <path id="Path_28785" data-name="Path 28785" d="M1774.886,13022.114l-1.055-1.02-5.511.881a11.375,11.375,0,0,0,2.044,2.4C1770.953,13024.627,1774.886,13022.114,1774.886,13022.114Z" transform="translate(-1747.206 -12998.805)" fill="#eaeaea"/>
            <path id="Path_28786" data-name="Path 28786" d="M1782.571,13024.7l.553,1.37-2.939,4.748a11.454,11.454,0,0,1-1.47-2.816C1778.7,13027.357,1782.571,13024.7,1782.571,13024.7Z" transform="translate(-1754.936 -13001.482)" fill="#eaeaea"/>
          </g>
        </g>
      </g>
    </g>
    <rect id="Rectangle_6679" data-name="Rectangle 6679" width="274.986" height="215.461" transform="translate(299.014 9178.723)" fill="none" stroke="#ebebeb" stroke-miterlimit="10" stroke-width="5"/>
    <g id="Group_19012" data-name="Group 19012" transform="translate(488.732 9354.539)">
      <rect id="Rectangle_6680" data-name="Rectangle 6680" width="49.07" height="27.475" rx="6.672" transform="translate(0 0)" fill="#fff" stroke="#231f20" stroke-miterlimit="10" stroke-width="0.25"/>
      <text id="Steve" transform="translate(11.535 17.238)" fill="#2d356b" font-size="10" font-family="TrebuchetMS-Bold, Trebuchet MS" font-weight="700"><tspan x="0" y="0">Steve</tspan></text>
    </g>
    <g id="Group_19015" data-name="Group 19015" transform="translate(218.31 9354.539)">
      <rect id="Rectangle_6682" data-name="Rectangle 6682" width="48.545" height="27.475" rx="6.672" transform="translate(0 0)" fill="#fff" stroke="#231f20" stroke-miterlimit="10" stroke-width="0.25"/>
      <text id="Helen" transform="translate(10.772 17.238)" fill="#2d356b" font-size="10" font-family="TrebuchetMS-Bold, Trebuchet MS" font-weight="700"><tspan x="0" y="0">Helen</tspan></text>
    </g>
  </g>
</svg>
