<svg xmlns="http://www.w3.org/2000/svg" width="544" height="367.517" viewBox="0 0 544 367.517">
  <g id="Group_10933" data-name="Group 10933" transform="translate(-72.914 -2604.898)">
    <g id="Group_10899" data-name="Group 10899" transform="translate(72.914 2605.959)">
      <g id="Group_10837" data-name="Group 10837" transform="translate(0 0)">
        <g id="Group_10836" data-name="Group 10836">
          <g id="Group_10835" data-name="Group 10835">
            <g id="Group_10834" data-name="Group 10834">
              <g id="Group_10833" data-name="Group 10833">
                <g id="Group_10830" data-name="Group 10830" transform="translate(0.616)">
                  <g id="Group_10826" data-name="Group 10826" transform="translate(0.141)">
                    <path id="Path_14651" data-name="Path 14651" d="M617.7,2621.9h.644v-12.856H75.1v268.682H617.69v-26.989h.005Z" transform="translate(-75.097 -2608.665)" fill="#fff"/>
                    <rect id="Rectangle_3374" data-name="Rectangle 3374" width="542.486" height="0.751" transform="translate(0 268.682)" fill="#a0bacb"/>
                    <rect id="Rectangle_3375" data-name="Rectangle 3375" width="543.243" height="0.751" fill="#7b88ac"/>
                  </g>
                  <g id="Group_10827" data-name="Group 10827" transform="translate(0 54.9)">
                    <path id="Path_14652" data-name="Path 14652" d="M178.854,2767.531v-.2H169.81v.2H76.327v163.808H268.306V2767.531Zm81.5,5.26v36.02h-81.5v-36.02Zm-90.548,42.236v68.816H84.275v-68.816Zm9.043,68.816v-68.816h81.5v68.816Zm-9.043-111.052v36.02H84.275v-36.02ZM84.275,2890.059H169.81v36.021H84.275Zm94.579,36.021v-36.021h81.5v36.021Z" transform="translate(-75.759 -2766.958)" fill="#ebebeb"/>
                    <path id="Path_14653" data-name="Path 14653" d="M267.8,2931.007H74.69V2766.448h93.483v-.2h10.179v.2H267.8Zm-191.979-.751H266.669V2767.2H177.217v-.2h-7.908v.2H75.826Zm184.031-4.509H177.217v-36.771h82.639Zm-81.5-.751h80.369v-35.269H178.352Zm-9.043.751H82.638v-36.771h86.671ZM83.774,2925h84.4v-35.269h-84.4Zm176.083-41.485H177.217v-69.568h82.639Zm-81.5-.751h80.369V2814.7H178.352Zm-9.043.751H82.638v-69.568h86.671Zm-85.535-.751h84.4V2814.7h-84.4Zm176.083-74.281H177.217v-36.772h82.639Zm-81.5-.751h80.369v-35.269H178.352Zm-9.043.751H82.638v-36.772h86.671Zm-85.535-.751h84.4v-35.269h-84.4Z" transform="translate(-74.69 -2766.251)" fill="#ebebeb"/>
                  </g>
                  <g id="Group_10828" data-name="Group 10828" transform="translate(203.757 53.931)">
                    <path id="Path_14654" data-name="Path 14654" d="M902.631,2764.736v-.2h-8.3v.2H808.591v163.808H984.68V2764.736Zm74.758,5.26v36.021H902.631V2770Zm-83.053,42.236v68.816H815.881v-68.816Zm8.3,68.816v-68.816h74.758v68.816ZM894.336,2770v36.021H815.881V2770Zm-78.455,117.268h78.455v36.021H815.881Zm86.75,36.021v-36.021h74.758v36.021Z" transform="translate(-808.07 -2764.163)" fill="#ebebeb"/>
                    <path id="Path_14655" data-name="Path 14655" d="M984.22,2928.212H807.09V2763.653h85.745v-.2h9.337v.2H984.22Zm-176.089-.751H983.178V2764.4H901.13v-.2h-7.254v.2H808.131Zm168.8-4.508h-75.8V2886.18h75.8Zm-74.758-.751h73.716v-35.269H902.172Zm-8.3.751h-79.5V2886.18h79.5Zm-78.455-.751h77.414v-35.269H815.421Zm161.508-41.485h-75.8v-69.567h75.8Zm-74.758-.751h73.716V2811.9H902.172Zm-8.3.751h-79.5v-69.567h79.5Zm-78.455-.751h77.414V2811.9H815.421Zm161.508-74.28h-75.8v-36.772h75.8Zm-74.758-.752h73.716v-35.269H902.172Zm-8.3.752h-79.5v-36.772h79.5Zm-78.455-.752h77.414v-35.269H815.421Z" transform="translate(-807.09 -2763.456)" fill="#ebebeb"/>
                  </g>
                  <g id="Group_10829" data-name="Group 10829" transform="translate(391.093 54.9)">
                    <path id="Path_14656" data-name="Path 14656" d="M1615.407,2926.079h-48.446v-36.021h48.446v-6.216h-48.446v-68.816h48.446v-6.216h-48.446v-36.02h48.446v-5.26h-48.446v-.2h-9.044v.2h-93.483v163.808h150.973Zm-57.49,0h-85.535v-36.021h85.535Zm0-42.236h-85.535v-68.816h85.535Zm0-75.032h-85.535v-36.02h85.535Z" transform="translate(-1463.867 -2766.958)" fill="#ebebeb"/>
                    <path id="Path_14657" data-name="Path 14657" d="M1758.412,3156.874h49.014v-.751h-47.878v-35.269h47.878v-.751h-49.014Z" transform="translate(-1655.886 -2997.377)" fill="#ebebeb"/>
                    <path id="Path_14658" data-name="Path 14658" d="M1758.412,2973.331h49.014v-.751h-47.878v-68.065h47.878v-.751h-49.014Z" transform="translate(-1655.886 -2856.07)" fill="#ebebeb"/>
                    <path id="Path_14659" data-name="Path 14659" d="M1758.412,2818.756h49.014V2818h-47.878v-35.269h47.878v-.751h-49.014Z" transform="translate(-1655.886 -2776.527)" fill="#ebebeb"/>
                    <path id="Path_14660" data-name="Path 14660" d="M1572.385,2781.984h-86.67v36.772h86.67Zm-1.135,36.02h-84.4v-35.269h84.4Z" transform="translate(-1477.767 -2776.527)" fill="#ebebeb"/>
                    <path id="Path_14661" data-name="Path 14661" d="M1614.338,2930.255h-150.4V2767.2h93.483v-.2h7.908v.2h49.014v-.751H1566.46v-.2h-10.179v.2H1462.8v164.559h151.54Z" transform="translate(-1462.798 -2766.251)" fill="#ebebeb"/>
                    <path id="Path_14662" data-name="Path 14662" d="M1485.715,3156.874h86.67V3120.1h-86.67Zm1.136-36.021h84.4v35.269h-84.4Z" transform="translate(-1477.767 -2997.377)" fill="#ebebeb"/>
                    <path id="Path_14663" data-name="Path 14663" d="M1572.385,2903.763h-86.67v69.568h86.67Zm-1.135,68.816h-84.4v-68.064h84.4Z" transform="translate(-1477.767 -2856.07)" fill="#ebebeb"/>
                  </g>
                </g>
                <g id="Group_10831" data-name="Group 10831" transform="translate(0 236.711)">
                  <path id="Path_14664" data-name="Path 14664" d="M616.157,3291.385H73.563v92.186h-.649v37.24H616.151v-125.5h.005Z" transform="translate(-72.914 -3291.065)" fill="#f9f9f9"/>
                  <rect id="Rectangle_3376" data-name="Rectangle 3376" width="541.167" height="0.539" transform="translate(2.263 129.003)" fill="#f9f9f9"/>
                  <rect id="Rectangle_3377" data-name="Rectangle 3377" width="542.492" height="0.539" transform="translate(0.757)" fill="#f9f9f9"/>
                </g>
                <g id="Group_10832" data-name="Group 10832" transform="translate(33.883 4.737)">
                  <path id="Path_14665" data-name="Path 14665" d="M1172.463,2702v-80.384h-2.139V2702c-6.67.409-11.916,4.593-11.916,9.7,0,5.381,5.814,9.743,12.986,9.743s12.986-4.363,12.986-9.743C1184.379,2706.592,1179.133,2702.408,1172.463,2702Z" transform="translate(-815.813 -2621.615)" fill="#c3e8e6"/>
                  <path id="Path_14666" data-name="Path 14666" d="M184.665,2720.306v-80.384h-2.14v80.384c-6.67.409-11.916,4.593-11.916,9.7,0,5.381,5.814,9.743,12.986,9.743s12.986-4.362,12.986-9.743C196.581,2724.9,191.335,2720.715,184.665,2720.306Z" transform="translate(-170.609 -2633.572)" fill="#c3e8e6"/>
                  <path id="Path_14667" data-name="Path 14667" d="M532.263,2716.772v-58.441h-1.556v58.441c-4.849.3-8.663,3.339-8.663,7.054,0,3.912,4.227,7.083,9.441,7.083s9.441-3.171,9.441-7.083C540.926,2720.111,537.113,2717.069,532.263,2716.772Z" transform="translate(-400.157 -2645.597)" fill="#c3e8e6"/>
                  <path id="Path_14668" data-name="Path 14668" d="M1476.057,2716.772v-58.441H1474.5v58.441c-4.849.3-8.663,3.339-8.663,7.054,0,3.912,4.227,7.083,9.441,7.083s9.441-3.171,9.441-7.083C1484.72,2720.111,1480.906,2717.069,1476.057,2716.772Z" transform="translate(-1016.619 -2645.597)" fill="#c3e8e6"/>
                </g>
              </g>
            </g>
          </g>
        </g>
      </g>
      <g id="Group_10874" data-name="Group 10874" transform="translate(47.141 130.688)">
        <g id="Group_10846" data-name="Group 10846" transform="translate(0 20.249)">
          <g id="Group_10838" data-name="Group 10838">
            <rect id="Rectangle_3378" data-name="Rectangle 3378" width="44.429" height="1.587" transform="translate(0.405 0.337)" fill="#ebebeb"/>
            <path id="Path_14669" data-name="Path 14669" d="M254.075,3045.415H208.836v-2.261h45.239Zm-44.429-.675h43.619v-.912H209.646Z" transform="translate(-208.836 -3043.153)" fill="#ebebeb"/>
          </g>
          <g id="Group_10839" data-name="Group 10839" transform="translate(0 23.938)">
            <rect id="Rectangle_3379" data-name="Rectangle 3379" width="44.429" height="1.587" transform="translate(0.405 0.337)" fill="#ebebeb"/>
            <path id="Path_14670" data-name="Path 14670" d="M254.075,3114.436H208.836v-2.262h45.239Zm-44.429-.675h43.619v-.912H209.646Z" transform="translate(-208.836 -3112.174)" fill="#ebebeb"/>
          </g>
          <g id="Group_10840" data-name="Group 10840" transform="translate(0 47.877)">
            <rect id="Rectangle_3380" data-name="Rectangle 3380" width="44.429" height="1.587" transform="translate(0.405 0.337)" fill="#ebebeb"/>
            <path id="Path_14671" data-name="Path 14671" d="M254.075,3183.457H208.836v-2.262h45.239Zm-44.429-.675h43.619v-.912H209.646Z" transform="translate(-208.836 -3181.195)" fill="#ebebeb"/>
          </g>
          <g id="Group_10845" data-name="Group 10845" transform="translate(0 0.529)">
            <g id="Group_10841" data-name="Group 10841" transform="translate(0 71.814)">
              <rect id="Rectangle_3381" data-name="Rectangle 3381" width="44.429" height="1.587" transform="translate(0.405 0.337)" fill="#ebebeb"/>
              <path id="Path_14672" data-name="Path 14672" d="M254.075,3254H208.836v-2.261h45.239Zm-44.429-.675h43.619v-.912H209.646Z" transform="translate(-208.836 -3251.741)" fill="#ebebeb"/>
            </g>
            <g id="Group_10842" data-name="Group 10842" transform="translate(0 94.725)">
              <rect id="Rectangle_3382" data-name="Rectangle 3382" width="44.429" height="1.587" transform="translate(0.405 0.338)" fill="#ebebeb"/>
              <path id="Path_14673" data-name="Path 14673" d="M254.075,3320.062H208.836V3317.8h45.239Zm-44.429-.675h43.619v-.912H209.646Z" transform="translate(-208.836 -3317.8)" fill="#ebebeb"/>
            </g>
            <g id="Group_10843" data-name="Group 10843">
              <rect id="Rectangle_3383" data-name="Rectangle 3383" width="2.38" height="115.156" transform="translate(0.405 0.337)" fill="#ebebeb"/>
              <path id="Path_14674" data-name="Path 14674" d="M212.026,3160.509h-3.19V3044.678h3.19Zm-2.38-.675h1.57v-114.48h-1.57Z" transform="translate(-208.836 -3044.678)" fill="#ebebeb"/>
            </g>
            <g id="Group_10844" data-name="Group 10844" transform="translate(42.049)">
              <rect id="Rectangle_3384" data-name="Rectangle 3384" width="2.38" height="115.156" transform="translate(0.405 0.337)" fill="#ebebeb"/>
              <path id="Path_14675" data-name="Path 14675" d="M333.265,3160.509h-3.19V3044.678h3.19Zm-2.38-.675h1.57v-114.48h-1.57Z" transform="translate(-330.075 -3044.678)" fill="#ebebeb"/>
            </g>
          </g>
        </g>
        <g id="Group_10857" data-name="Group 10857" transform="translate(7.964 25.892)">
          <g id="Group_10848" data-name="Group 10848">
            <g id="Group_10847" data-name="Group 10847">
              <rect id="Rectangle_3385" data-name="Rectangle 3385" width="4.654" height="18.295" transform="translate(0.405 0.337)" fill="#ebebeb"/>
              <path id="Path_14676" data-name="Path 14676" d="M237.262,3078.394H231.8v-18.97h5.464Zm-4.654-.675h3.845V3060.1h-3.845Z" transform="translate(-231.798 -3059.423)" fill="#ebebeb"/>
            </g>
            <path id="Path_14677" data-name="Path 14677" d="M238.32,3070.063a1.559,1.559,0,1,1-1.534-1.279A1.424,1.424,0,0,1,238.32,3070.063Z" transform="translate(-234.055 -3065.538)" fill="#ebebeb"/>
          </g>
          <g id="Group_10850" data-name="Group 10850" transform="translate(5.47)">
            <g id="Group_10849" data-name="Group 10849">
              <rect id="Rectangle_3386" data-name="Rectangle 3386" width="4.654" height="18.295" transform="translate(0.405 0.337)" fill="#ebebeb"/>
              <path id="Path_14678" data-name="Path 14678" d="M253.035,3078.394h-5.464v-18.97h5.464Zm-4.654-.675h3.845V3060.1h-3.845Z" transform="translate(-247.571 -3059.423)" fill="#ebebeb"/>
            </g>
            <path id="Path_14679" data-name="Path 14679" d="M254.094,3070.063a1.559,1.559,0,1,1-1.534-1.279A1.424,1.424,0,0,1,254.094,3070.063Z" transform="translate(-249.828 -3065.538)" fill="#ebebeb"/>
          </g>
          <g id="Group_10852" data-name="Group 10852" transform="translate(10.942)">
            <g id="Group_10851" data-name="Group 10851">
              <rect id="Rectangle_3387" data-name="Rectangle 3387" width="4.654" height="18.295" transform="translate(0.405 0.337)" fill="#ebebeb"/>
              <path id="Path_14680" data-name="Path 14680" d="M268.81,3078.394h-5.464v-18.97h5.464Zm-4.654-.675H268V3060.1h-3.845Z" transform="translate(-263.346 -3059.423)" fill="#ebebeb"/>
            </g>
            <path id="Path_14681" data-name="Path 14681" d="M269.869,3070.063a1.559,1.559,0,1,1-1.534-1.279A1.424,1.424,0,0,1,269.869,3070.063Z" transform="translate(-265.603 -3065.538)" fill="#ebebeb"/>
          </g>
          <g id="Group_10854" data-name="Group 10854" transform="translate(16.412)">
            <g id="Group_10853" data-name="Group 10853">
              <rect id="Rectangle_3388" data-name="Rectangle 3388" width="4.654" height="18.295" transform="translate(0.405 0.337)" fill="#ebebeb"/>
              <path id="Path_14682" data-name="Path 14682" d="M284.583,3078.394h-5.464v-18.97h5.464Zm-4.654-.675h3.845V3060.1h-3.845Z" transform="translate(-279.119 -3059.423)" fill="#ebebeb"/>
            </g>
            <path id="Path_14683" data-name="Path 14683" d="M285.643,3070.063a1.559,1.559,0,1,1-1.534-1.279A1.424,1.424,0,0,1,285.643,3070.063Z" transform="translate(-281.376 -3065.538)" fill="#ebebeb"/>
          </g>
          <g id="Group_10856" data-name="Group 10856" transform="translate(21.883)">
            <g id="Group_10855" data-name="Group 10855">
              <rect id="Rectangle_3389" data-name="Rectangle 3389" width="4.654" height="18.295" transform="translate(0.405 0.337)" fill="#ebebeb"/>
              <path id="Path_14684" data-name="Path 14684" d="M300.358,3078.394h-5.464v-18.97h5.464Zm-4.655-.675h3.845V3060.1H295.7Z" transform="translate(-294.894 -3059.423)" fill="#ebebeb"/>
            </g>
            <path id="Path_14685" data-name="Path 14685" d="M301.417,3070.063a1.559,1.559,0,1,1-1.534-1.279A1.424,1.424,0,0,1,301.417,3070.063Z" transform="translate(-297.151 -3065.538)" fill="#ebebeb"/>
          </g>
        </g>
        <path id="Path_14686" data-name="Path 14686" d="M233.247,3212.885a7.586,7.586,0,0,1,.725-3.362h-5.579a7.586,7.586,0,0,1,.725,3.362c0,2.034-2.445,5.789-2.445,8.292s2.591,3.325,4.51,3.325,4.51-.821,4.51-3.325S233.247,3214.918,233.247,3212.885Z" transform="translate(-220.486 -3131.572)" fill="#ebebeb"/>
        <g id="Group_10859" data-name="Group 10859" transform="translate(23.68 52.046)">
          <g id="Group_10858" data-name="Group 10858" transform="translate(0.691)">
            <path id="Path_14687" data-name="Path 14687" d="M296.472,3143.921c1.5-2.943-1.84-2.889-1.585-3.661.478-1.45,2.281.126,3.013-.6s-1.8-3.006-.477-3.794.863,1.879,2.011,1.69.464-3.008,1.818-2.693c1.018.237-.191,2-.079,2.821s2.21-.377,2.246.8-2.5.66-2.8,1.553,2.73,1.078,1.668,1.833-3.065-.149-3.592.636S295.833,3145.171,296.472,3143.921Z" transform="translate(-289.404 -3134.833)" fill="#ebebeb"/>
            <path id="Path_14688" data-name="Path 14688" d="M285.247,3150.853c-1.414-2.974-3.746-.975-4.217-1.673-.884-1.312,1.728-1.248,1.631-2.2s-3.819-1.078-3.541-2.418,2.2.83,2.855.023-2.208-2.41-.98-2.98c.923-.428,1.55,1.533,2.324,2.052s1.253-1.563,2.271-.75-1.222,1.937-.68,2.747,2.85-.835,2.733.325-2.3,1.69-2.015,2.558S285.848,3152.116,285.247,3150.853Z" transform="translate(-279.106 -3139.219)" fill="#ebebeb"/>
          </g>
          <path id="Path_14689" data-name="Path 14689" d="M287.546,3156.491h-7.722s-2.711,1.94-2.711,4.232,1.689,4.673,6.572,4.673,6.572-2.381,6.572-4.673S287.546,3156.491,287.546,3156.491Z" transform="translate(-277.113 -3148.979)" fill="#ebebeb"/>
        </g>
        <g id="Group_10860" data-name="Group 10860" transform="translate(25.574 82.482)">
          <rect id="Rectangle_3390" data-name="Rectangle 3390" width="7.127" height="8.068" transform="translate(2.205 2.381)" fill="#ebebeb"/>
          <ellipse id="Ellipse_557" data-name="Ellipse 557" cx="5.625" cy="2.381" rx="5.625" ry="2.381" fill="#ebebeb"/>
        </g>
        <g id="Group_10861" data-name="Group 10861" transform="translate(20.611 12.84)">
          <rect id="Rectangle_3391" data-name="Rectangle 3391" width="5.284" height="5.982" transform="translate(1.635 1.765)" fill="#ebebeb"/>
          <path id="Path_14690" data-name="Path 14690" d="M276.6,3023.555c0,.975-1.867,1.765-4.17,1.765s-4.17-.79-4.17-1.765,1.867-1.765,4.17-1.765S276.6,3022.58,276.6,3023.555Z" transform="translate(-268.263 -3021.79)" fill="#ebebeb"/>
        </g>
        <g id="Group_10863" data-name="Group 10863" transform="translate(2.944)">
          <g id="Group_10862" data-name="Group 10862">
            <path id="Path_14691" data-name="Path 14691" d="M243.764,3003.888s-1.828-5.29,6.264-11.241c0,0-6.929,6.348-4.654,11.241Z" transform="translate(-234.478 -2989.915)" fill="#ebebeb"/>
            <path id="Path_14692" data-name="Path 14692" d="M241.091,2999.944s-4.191-5.893,3.315-15.175c0,0-5.956,9.456-1.376,14.754Z" transform="translate(-232.086 -2984.769)" fill="#ebebeb"/>
            <path id="Path_14693" data-name="Path 14693" d="M227.426,3003.888s1.828-5.29-6.264-11.241c0,0,6.929,6.348,4.655,11.241Z" transform="translate(-219.831 -2989.915)" fill="#ebebeb"/>
            <path id="Path_14694" data-name="Path 14694" d="M234.7,3001.26s3.367-4.736-2.666-12.194c0,0,4.788,7.6,1.108,11.856Z" transform="translate(-226.93 -2987.576)" fill="#ebebeb"/>
            <path id="Path_14695" data-name="Path 14695" d="M243.013,3011.045s-1.58-5.345,6.784-11.03c0,0-7.22,6.119-5.175,11.083Z" transform="translate(-234.026 -2994.727)" fill="#ebebeb"/>
            <path id="Path_14696" data-name="Path 14696" d="M224.107,3009.175s1.58-5.346-6.784-11.031c0,0,7.22,6.119,5.175,11.083Z" transform="translate(-217.323 -2993.505)" fill="#ebebeb"/>
          </g>
          <path id="Path_14697" data-name="Path 14697" d="M229.372,3019.721H223.9l2.511,8.464h5.92l2.511-8.464Z" transform="translate(-221.619 -3007.599)" fill="#ebebeb"/>
        </g>
        <g id="Group_10873" data-name="Group 10873" transform="translate(4.245 61.85)">
          <g id="Group_10868" data-name="Group 10868" transform="translate(0 0)">
            <g id="Group_10864" data-name="Group 10864" transform="translate(0.405 4.478)">
              <rect id="Rectangle_3392" data-name="Rectangle 3392" width="2.235" height="16.745" transform="translate(0 2.235) rotate(-90)" fill="#ebebeb"/>
            </g>
            <g id="Group_10866" data-name="Group 10866" transform="translate(0 1.897)">
              <g id="Group_10865" data-name="Group 10865">
                <rect id="Rectangle_3393" data-name="Rectangle 3393" width="2.235" height="16.745" transform="translate(0.405 2.572) rotate(-90)" fill="#ebebeb"/>
                <path id="Path_14698" data-name="Path 14698" d="M238.632,3171.479H221.077v-2.91h17.555Zm-16.746-.675h15.936v-1.56H221.886Z" transform="translate(-221.077 -3168.57)" fill="#ebebeb"/>
              </g>
            </g>
            <g id="Group_10867" data-name="Group 10867" transform="translate(0.405)">
              <rect id="Rectangle_3394" data-name="Rectangle 3394" width="2.235" height="16.745" transform="translate(0 2.235) rotate(-90)" fill="#ebebeb"/>
            </g>
          </g>
          <g id="Group_10869" data-name="Group 10869" transform="translate(10.267 0)">
            <rect id="Rectangle_3395" data-name="Rectangle 3395" width="0.12" height="2.235" fill="#ebebeb"/>
          </g>
          <g id="Group_10870" data-name="Group 10870" transform="translate(11.616 0)">
            <rect id="Rectangle_3396" data-name="Rectangle 3396" width="0.12" height="2.235" fill="#ebebeb"/>
          </g>
          <g id="Group_10871" data-name="Group 10871" transform="translate(12.964 0)">
            <rect id="Rectangle_3397" data-name="Rectangle 3397" width="0.12" height="2.235" fill="#ebebeb"/>
          </g>
          <g id="Group_10872" data-name="Group 10872" transform="translate(14.313 0)">
            <rect id="Rectangle_3398" data-name="Rectangle 3398" width="0.12" height="2.235" fill="#ebebeb"/>
          </g>
          <rect id="Rectangle_3399" data-name="Rectangle 3399" width="7.881" height="0.368" transform="translate(8.449 4.859)" fill="#ebebeb"/>
          <rect id="Rectangle_3400" data-name="Rectangle 3400" width="7.881" height="0.368" transform="translate(8.449 5.412)" fill="#ebebeb"/>
          <rect id="Rectangle_3401" data-name="Rectangle 3401" width="7.881" height="0.368" transform="translate(8.449 5.964)" fill="#ebebeb"/>
        </g>
      </g>
      <g id="Group_10885" data-name="Group 10885" transform="translate(328.446 181.515)">
        <g id="Group_10879" data-name="Group 10879" transform="translate(120.654)">
          <path id="Path_14699" data-name="Path 14699" d="M1685.521,3256.272h-29.49s4.4,3.5,15.514,3.5S1685.521,3256.272,1685.521,3256.272Z" transform="translate(-1646.404 -3212.934)" fill="#cfd0d8"/>
          <g id="Group_10875" data-name="Group 10875" transform="translate(0 43.592)">
            <path id="Path_14700" data-name="Path 14700" d="M1628.823,3293.193l13.915-35.933-.55-.256-13.915,35.933Z" transform="translate(-1628.273 -3257.004)" fill="#cfd0d8"/>
          </g>
          <g id="Group_10876" data-name="Group 10876" transform="translate(34.55 43.467)">
            <path id="Path_14701" data-name="Path 14701" d="M1737.315,3292.922l.575-.181-9.426-36.1-.574.18Z" transform="translate(-1727.89 -3256.645)" fill="#cfd0d8"/>
          </g>
          <g id="Group_10877" data-name="Group 10877" transform="translate(28.853 44.361)">
            <path id="Path_14702" data-name="Path 14702" d="M1712.959,3294.529l.6-.031-1.5-35.277-.6.032Z" transform="translate(-1711.463 -3259.221)" fill="#cfd0d8"/>
          </g>
          <g id="Group_10878" data-name="Group 10878" transform="translate(15.99 44.976)">
            <path id="Path_14703" data-name="Path 14703" d="M1674.966,3295.729l5.536-34.62-.589-.114-5.536,34.62Z" transform="translate(-1674.377 -3260.995)" fill="#cfd0d8"/>
          </g>
          <path id="Path_14704" data-name="Path 14704" d="M1654.742,3175.64H1679.4c13.425,0,19.71-32.293,18.816-37.848-1.32-8.2-15.736-8.2-19.7-2.3-2.642,3.939-6.6,17.894-8.951,26.757a10.617,10.617,0,0,1-9.744,7.864c-4.372.215-9.019.577-9.364,1.147C1649.89,3172.2,1649.8,3175.64,1654.742,3175.64Z" transform="translate(-1642.589 -3131.317)" fill="#cfd0d8"/>
          <path id="Path_14705" data-name="Path 14705" d="M1650.518,3180.576l24.675-.492c13.424,0,20.948-29.611,20.053-35.166-.132-.828,2.706-.122,2.972,1.531.894,5.555-5.391,37.848-18.816,37.848h-24.653C1649.8,3184.3,1649.857,3180.576,1650.518,3180.576Z" transform="translate(-1642.596 -3139.973)" fill="#cfd0d8"/>
        </g>
        <g id="Group_10884" data-name="Group 10884">
          <path id="Path_14706" data-name="Path 14706" d="M1328.221,3256.272h29.49s-4.4,3.5-15.514,3.5S1328.221,3256.272,1328.221,3256.272Z" transform="translate(-1311.633 -3212.934)" fill="#cfd0d8"/>
          <g id="Group_10880" data-name="Group 10880" transform="translate(41.24 43.592)">
            <path id="Path_14707" data-name="Path 14707" d="M1413.214,3293.193,1399.3,3257.26l.55-.256,13.915,35.933Z" transform="translate(-1399.3 -3257.004)" fill="#cfd0d8"/>
          </g>
          <g id="Group_10881" data-name="Group 10881" transform="translate(11.155 43.467)">
            <path id="Path_14708" data-name="Path 14708" d="M1313.13,3292.922l-.575-.181,9.427-36.1.574.18Z" transform="translate(-1312.555 -3256.645)" fill="#cfd0d8"/>
          </g>
          <g id="Group_10882" data-name="Group 10882" transform="translate(24.758 44.361)">
            <path id="Path_14709" data-name="Path 14709" d="M1352.375,3294.529l-.6-.031,1.5-35.277.6.032Z" transform="translate(-1351.777 -3259.221)" fill="#cfd0d8"/>
          </g>
          <g id="Group_10883" data-name="Group 10883" transform="translate(33.59 44.976)">
            <path id="Path_14710" data-name="Path 14710" d="M1382.779,3295.729l-5.536-34.62.589-.114,5.536,34.62Z" transform="translate(-1377.243 -3260.995)" fill="#cfd0d8"/>
          </g>
          <path id="Path_14711" data-name="Path 14711" d="M1323.944,3175.64h-24.652c-13.425,0-19.71-32.293-18.816-37.848,1.32-8.2,15.736-8.2,19.7-2.3,2.642,3.939,6.6,17.894,8.951,26.757a10.617,10.617,0,0,0,9.744,7.864c4.372.215,9.019.577,9.364,1.147C1328.8,3172.2,1328.891,3175.64,1323.944,3175.64Z" transform="translate(-1280.392 -3131.317)" fill="#cfd0d8"/>
          <path id="Path_14712" data-name="Path 14712" d="M1328.175,3180.576l-24.675-.492c-13.424,0-20.948-29.611-20.053-35.166.133-.828-2.706-.122-2.971,1.531-.894,5.555,5.391,37.848,18.816,37.848h24.652C1328.893,3184.3,1328.837,3180.576,1328.175,3180.576Z" transform="translate(-1280.392 -3139.973)" fill="#cfd0d8"/>
        </g>
      </g>
      <g id="Group_10886" data-name="Group 10886" transform="translate(374.644 205.307)">
        <path id="Path_14713" data-name="Path 14713" d="M1537.383,3201.338h-3.943c2.82.853,2,32.121,0,54.381h3.943C1535.768,3234.688,1535.452,3202.307,1537.383,3201.338Z" transform="translate(-1491.875 -3200.846)" fill="#cfd0d8"/>
        <path id="Path_14714" data-name="Path 14714" d="M1528.76,3349.388H1525.8l-4.809,4.156h12.579Z" transform="translate(-1483.743 -3297.548)" fill="#cfd0d8"/>
        <path id="Path_14715" data-name="Path 14715" d="M1500.247,3203.07h-74.794l4.813,1.479h65.169Z" transform="translate(-1421.34 -3201.977)" fill="#cfd0d8"/>
        <rect id="Rectangle_3402" data-name="Rectangle 3402" width="82.801" height="1.479" fill="#cfd0d8"/>
      </g>
      <g id="Group_10897" data-name="Group 10897" transform="translate(22.259 211.319)">
        <g id="Group_10891" data-name="Group 10891" transform="translate(120.654)">
          <path id="Path_14716" data-name="Path 14716" d="M542.222,3342.206H512.733s4.4,3.5,15.514,3.5S542.222,3342.206,542.222,3342.206Z" transform="translate(-503.105 -3298.868)" fill="#cfd0d8"/>
          <g id="Group_10887" data-name="Group 10887" transform="translate(0 43.592)">
            <path id="Path_14717" data-name="Path 14717" d="M485.524,3379.127l13.915-35.933-.55-.256-13.915,35.933Z" transform="translate(-484.973 -3342.938)" fill="#cfd0d8"/>
          </g>
          <g id="Group_10888" data-name="Group 10888" transform="translate(34.55 43.467)">
            <path id="Path_14718" data-name="Path 14718" d="M594.016,3378.856l.575-.181-9.427-36.1-.574.18Z" transform="translate(-584.59 -3342.579)" fill="#cfd0d8"/>
          </g>
          <g id="Group_10889" data-name="Group 10889" transform="translate(28.853 44.361)">
            <path id="Path_14719" data-name="Path 14719" d="M569.66,3380.463l.6-.031-1.5-35.276-.6.031Z" transform="translate(-568.164 -3345.156)" fill="#cfd0d8"/>
          </g>
          <g id="Group_10890" data-name="Group 10890" transform="translate(15.99 44.976)">
            <path id="Path_14720" data-name="Path 14720" d="M531.667,3381.664l5.536-34.62-.589-.114-5.536,34.62Z" transform="translate(-531.078 -3346.93)" fill="#cfd0d8"/>
          </g>
          <path id="Path_14721" data-name="Path 14721" d="M511.443,3261.574H536.1c13.425,0,19.71-32.293,18.816-37.848-1.32-8.2-15.735-8.2-19.7-2.3-2.641,3.939-6.6,17.894-8.951,26.757a10.617,10.617,0,0,1-9.744,7.864c-4.372.216-9.019.577-9.364,1.147C506.591,3258.136,506.5,3261.574,511.443,3261.574Z" transform="translate(-499.29 -3217.251)" fill="#cfd0d8"/>
          <path id="Path_14722" data-name="Path 14722" d="M507.219,3266.51l24.675-.493c13.424,0,20.948-29.61,20.053-35.166-.133-.828,2.706-.122,2.972,1.531.894,5.555-5.391,37.848-18.816,37.848H511.45C506.5,3270.231,506.558,3266.51,507.219,3266.51Z" transform="translate(-499.297 -3225.907)" fill="#cfd0d8"/>
        </g>
        <g id="Group_10896" data-name="Group 10896">
          <path id="Path_14723" data-name="Path 14723" d="M184.922,3342.206h29.489s-4.4,3.5-15.514,3.5S184.922,3342.206,184.922,3342.206Z" transform="translate(-168.334 -3298.868)" fill="#cfd0d8"/>
          <g id="Group_10892" data-name="Group 10892" transform="translate(41.24 43.592)">
            <path id="Path_14724" data-name="Path 14724" d="M269.915,3379.127,256,3343.195l.551-.256,13.915,35.933Z" transform="translate(-256 -3342.938)" fill="#cfd0d8"/>
          </g>
          <g id="Group_10893" data-name="Group 10893" transform="translate(11.155 43.467)">
            <path id="Path_14725" data-name="Path 14725" d="M169.83,3378.856l-.575-.181,9.426-36.1.574.18Z" transform="translate(-169.255 -3342.579)" fill="#cfd0d8"/>
          </g>
          <g id="Group_10894" data-name="Group 10894" transform="translate(24.758 44.361)">
            <path id="Path_14726" data-name="Path 14726" d="M209.076,3380.463l-.6-.031,1.5-35.276.6.031Z" transform="translate(-208.477 -3345.156)" fill="#cfd0d8"/>
          </g>
          <g id="Group_10895" data-name="Group 10895" transform="translate(33.59 44.976)">
            <path id="Path_14727" data-name="Path 14727" d="M239.48,3381.664l-5.536-34.62.589-.114,5.536,34.62Z" transform="translate(-233.944 -3346.93)" fill="#cfd0d8"/>
          </g>
          <path id="Path_14728" data-name="Path 14728" d="M180.645,3261.574H155.992c-13.425,0-19.71-32.293-18.816-37.848,1.32-8.2,15.735-8.2,19.7-2.3,2.641,3.939,6.6,17.894,8.951,26.757a10.616,10.616,0,0,0,9.744,7.864c4.372.216,9.019.577,9.364,1.147C185.5,3258.136,185.591,3261.574,180.645,3261.574Z" transform="translate(-137.093 -3217.251)" fill="#cfd0d8"/>
          <path id="Path_14729" data-name="Path 14729" d="M184.876,3266.51l-24.675-.493c-13.424,0-20.948-29.61-20.052-35.166.132-.828-2.706-.122-2.972,1.531-.894,5.555,5.391,37.848,18.816,37.848h24.652C185.593,3270.231,185.537,3266.51,184.876,3266.51Z" transform="translate(-137.093 -3225.907)" fill="#cfd0d8"/>
        </g>
      </g>
      <g id="Group_10898" data-name="Group 10898" transform="translate(68.457 235.112)">
        <path id="Path_14730" data-name="Path 14730" d="M394.083,3287.273h-3.942c2.82.853,2,32.121,0,54.381h3.942C392.469,3320.623,392.153,3288.242,394.083,3287.273Z" transform="translate(-348.576 -3286.78)" fill="#cfd0d8"/>
        <path id="Path_14731" data-name="Path 14731" d="M385.461,3435.323H382.5l-4.809,4.156h12.579Z" transform="translate(-340.443 -3383.483)" fill="#cfd0d8"/>
        <path id="Path_14732" data-name="Path 14732" d="M356.948,3289.005H282.153l4.813,1.479h65.169Z" transform="translate(-278.041 -3287.912)" fill="#cfd0d8"/>
        <rect id="Rectangle_3403" data-name="Rectangle 3403" width="82.801" height="1.479" fill="#cfd0d8"/>
      </g>
    </g>
    <g id="Group_10900" data-name="Group 10900" transform="translate(73.652 2606.71)">
      <rect id="Rectangle_3404" data-name="Rectangle 3404" width="66.289" height="39.107" transform="translate(66.289 39.107) rotate(-180)" fill="#ebebeb"/>
    </g>
    <text id="_3" data-name="3" transform="translate(86.104 2636.898)" fill="#2d356b" font-size="34" font-family="TrebuchetMS-Bold, Trebuchet MS" font-weight="700"><tspan x="0" y="0">3</tspan></text>
    <g id="Group_10902" data-name="Group 10902" transform="translate(94.758 2610.709)">
      <g id="Group_10901" data-name="Group 10901">
        <path id="Path_14733" data-name="Path 14733" d="M481.493,2752.17c12.009,19.827,2.447,41.163-23.4,49.423-27.453,8.774-63.109-.454-80.721-20.622-13.84,11-34.946,19.468-59.153,22.436-44.623,5.471-82.874-9.8-85.436-34.114a26.931,26.931,0,0,1,2.617-14.332c-37.732,9.186-59.916-.957-69.335-28.433-6.95-20.275,12.848-55.838,67.307-62.515,6.944-.851,13.749-1.4,20.343-1.664-.145-.672-2.1-4.487.723-11.125,12.251-28.853,55.471-33.283,100.587-27.192,37.989,5.129,56.973,23.785,65.783,40.657,0,0,107.95-31.963,127.385,34.722C548.2,2699.41,569.846,2758.2,481.493,2752.17Z" transform="translate(-164.73 -2621.653)" fill="#fff" stroke="#ebebeb" stroke-miterlimit="10" stroke-width="1"/>
        <ellipse id="Ellipse_558" data-name="Ellipse 558" cx="12.759" cy="11.785" rx="12.759" ry="11.785" transform="translate(231.562 189.537) rotate(-79.797)" fill="#fff" stroke="#ebebeb" stroke-miterlimit="10" stroke-width="1"/>
        <ellipse id="Ellipse_559" data-name="Ellipse 559" cx="7.56" cy="6.984" rx="7.56" ry="6.984" transform="translate(245.421 208.372) rotate(-79.797)" fill="#fff" stroke="#ebebeb" stroke-miterlimit="10" stroke-width="1"/>
        <ellipse id="Ellipse_560" data-name="Ellipse 560" cx="6.467" cy="5.974" rx="6.467" ry="5.974" transform="translate(264.817 208.73) rotate(-79.797)" fill="#fff" stroke="#ebebeb" stroke-miterlimit="10" stroke-width="1"/>
      </g>
    </g>
    <g id="Group_10919" data-name="Group 10919" transform="translate(508.562 2727.452)">
      <g id="Group_10918" data-name="Group 10918" transform="translate(0 0)">
        <g id="Group_10917" data-name="Group 10917">
          <g id="Group_10903" data-name="Group 10903" transform="translate(0 97.376)">
            <path id="Path_14734" data-name="Path 14734" d="M1433.851,3252.066l-9.34,1.757c-8.214,29.338-6.2,64.315-24.55,124.215,0,0,1.753.765,2.006,0,15.27-46.317,23.622-82.633,26.585-87.623C1435.136,3279.327,1443.369,3269.9,1433.851,3252.066Z" transform="translate(-1395.355 -3247.541)" fill="#ffd8a3"/>
            <path id="Path_14735" data-name="Path 14735" d="M1475.238,3246.767c11.494,21.438,2.888,19.776,2.514,30.863-1.077,31.973,19.307,48.236,25.635,97.141,0,0-2.506-.128-2.577-.834-3.931-39.016-38.5-76.347-39.926-112.57-.092-2.336-.194-9.313,2.53-11.81C1467.579,3245.739,1475.238,3246.767,1475.238,3246.767Z" transform="translate(-1435.126 -3243.998)" fill="#f7c371"/>
            <path id="Path_14736" data-name="Path 14736" d="M1561.618,3612.117h7.512s.363-2.133-1.312-2.474C1566.762,3609.427,1564.9,3609.924,1561.618,3612.117Z" transform="translate(-1500.945 -3481.071)" fill="#7b88ac"/>
            <path id="Path_14737" data-name="Path 14737" d="M1386.681,3612.648h6.6s.319-2.131-1.154-2.473C1391.2,3609.959,1389.562,3610.455,1386.681,3612.648Z" transform="translate(-1386.681 -3481.418)" fill="#7b88ac"/>
            <path id="Path_14738" data-name="Path 14738" d="M1470.262,3314.69s-31.533,5.07-38.759,3.042c0,0,6.9-71.655,11.825-76.049s13.8-2.028,13.8-2.028a27.879,27.879,0,0,1,4.6,29.744C1455.152,3284.947,1470.262,3314.69,1470.262,3314.69Z" transform="translate(-1415.957 -3239.019)" fill="#f46973"/>
          </g>
          <g id="Group_10916" data-name="Group 10916" transform="translate(8.488)">
            <g id="Group_10906" data-name="Group 10906" transform="translate(0 45.394)">
              <g id="Group_10904" data-name="Group 10904" transform="translate(0 19.346)">
                <path id="Path_14739" data-name="Path 14739" d="M1433.588,3163.431c-1.968-1.316-7.783-.9-7.349-2.923.388-1.808,3.687-4.139,8.3,1.354Z" transform="translate(-1420.993 -3153.747)" fill="#f8c471"/>
                <path id="Path_14740" data-name="Path 14740" d="M1428.934,3157.928c-.483,3.236-4.424,2.633-5.62,2.156-1.315-.524-1.621-3.083-.857-3.912S1429.116,3156.691,1428.934,3157.928Z" transform="translate(-1418.268 -3152.102)" fill="#f8c471"/>
                <path id="Path_14741" data-name="Path 14741" d="M1429.016,3149.133c-1.061-1.61-1.5-3.962-.8-4.192.79-.262.788,1.83,2.093,3.044,1.41,1.317,2.227,2.219,1.749,2.79S1430.077,3150.746,1429.016,3149.133Z" transform="translate(-1422.077 -3144.918)" fill="#f8c471"/>
                <path id="Path_14742" data-name="Path 14742" d="M1417.077,3153.246c-1.532-.62-2.189-1.3-1.979-1.683s1.062.019,2.593.636,3.631,1.023,3.421,1.411S1418.61,3153.861,1417.077,3153.246Z" transform="translate(-1413.706 -3149.159)" fill="#f8c471"/>
                <path id="Path_14743" data-name="Path 14743" d="M1413.993,3158.631c-1.658-.3-2.956-1.3-2.829-1.719s1.581.228,3.238.534,2.716.592,2.588,1.006S1415.65,3158.935,1413.993,3158.631Z" transform="translate(-1411.156 -3152.664)" fill="#f8c471"/>
                <path id="Path_14744" data-name="Path 14744" d="M1417.643,3164.557c-1.643-.371-2.476-.95-2.338-1.36s1.174.039,2.815.41,2.788.655,2.65,1.066S1419.287,3164.929,1417.643,3164.557Z" transform="translate(-1413.856 -3156.75)" fill="#f8c471"/>
              </g>
              <g id="Group_10905" data-name="Group 10905" transform="translate(12.085)">
                <path id="Path_14745" data-name="Path 14745" d="M1478.532,3089.354c5.3-3.241,19.132,31.26,19.135,32.581,0,0-2.722,2.127-3.861,1.063C1490.859,3120.247,1476.168,3090.8,1478.532,3089.354Z" transform="translate(-1467.082 -3089.139)" fill="#ffb2b0"/>
                <path id="Path_14746" data-name="Path 14746" d="M1450.783,3166.91c-1.287,4.7,25.646,6.919,26.644,6.627,0,0,2.1-3.052,1.05-3.672C1475.755,3168.264,1451.358,3164.808,1450.783,3166.91Z" transform="translate(-1449.095 -3139.506)" fill="#ffb2b0"/>
                <path id="Path_14747" data-name="Path 14747" d="M1446.5,3165.2l.776-1.274,5.644-.55a11.62,11.62,0,0,1-1.393,2.886C1451.008,3166.662,1446.5,3165.2,1446.5,3165.2Z" transform="translate(-1446.325 -3137.63)" fill="#eaeaea"/>
                <path id="Path_14748" data-name="Path 14748" d="M1446.192,3168.33l-.192,1.488,4.11,3.914a11.663,11.663,0,0,0,.721-3.147C1450.675,3169.951,1446.192,3168.33,1446.192,3168.33Z" transform="translate(-1446 -3140.864)" fill="#eaeaea"/>
              </g>
            </g>
            <g id="Group_10912" data-name="Group 10912" transform="translate(10.395)">
              <g id="Group_10911" data-name="Group 10911">
                <g id="Group_10907" data-name="Group 10907" transform="translate(8.428 1.332)">
                  <path id="Path_14749" data-name="Path 14749" d="M1467.97,3020.168c-6.079-5.082,2.809-6.956,2.057-11.727s-1.693-3.178-2.9-9.317.271-8.562.125-12.178-2.992-9.352-1.265-14.067,3.1-3.262,4.631-7.026,3.54.072,6.663,1.46,5.915-7.547,11.429-4.626,5.516,9.661,7.376,13.3,7.208,4.771,8.525,11.434-2.536,5.421-.5,9.939,6.635,3.791,7.952,10.455c0,0,1.133,6.7-6.419,6.915s-4.895,4.064-13.262,2.074-5.087,5.013-11.045,2.728S1473.4,3024.708,1467.97,3020.168Z" transform="translate(-1465.428 -2962.097)" fill="#2d356b"/>
                </g>
                <g id="Group_10908" data-name="Group 10908" transform="translate(0 23.295)">
                  <path id="Path_14750" data-name="Path 14750" d="M1497.379,3025.423l-6.96,4.372-1.249,15.051,5.592-2.023Z" transform="translate(-1472.507 -3025.423)" fill="#f7c371"/>
                  <path id="Path_14751" data-name="Path 14751" d="M1444.571,3145.486c4.473-2.93,14.856-9.407,26.371-1.388-3.443-10.114-6.572-20.057-6.683-28.376-.206-15.422,12.9-33.535,2.056-40.508-11.515-7.4-25.189,26.782-25.189,26.782C1452.642,3108.474,1449.456,3127.043,1444.571,3145.486Z" transform="translate(-1441.127 -3057.26)" fill="#fc8c99"/>
                  <path id="Path_14752" data-name="Path 14752" d="M1490.628,3072.744l-2.023-.238-9.042,8.507,2.677,2.26S1488.308,3077.086,1490.628,3072.744Z" transform="translate(-1466.233 -3056.176)" fill="#fff"/>
                  <path id="Path_14753" data-name="Path 14753" d="M1468.522,3083.147c-.044-.031-.083-.061-.127-.092,2.386-4.761,7.6-12.052,12.637-11.584C1476.448,3075.561,1468.522,3083.147,1468.522,3083.147Z" transform="translate(-1458.938 -3055.486)" fill="#f7c371"/>
                </g>
                <g id="Group_10910" data-name="Group 10910" transform="translate(5.957)">
                  <g id="Group_10909" data-name="Group 10909">
                    <path id="Path_14754" data-name="Path 14754" d="M1483.238,2990.281c3.59-1.386,10.906-3.319,13.926-9.257,3.925-7.719,2.29-12.083.187-17.382-4.009-10.1-21.256-3.441-19.838-.49C1479.4,2967.073,1470.226,2995.305,1483.238,2990.281Z" transform="translate(-1469.937 -2958.256)" fill="#2d356b"/>
                    <path id="Path_14755" data-name="Path 14755" d="M1468.308,3001.686c-1.346.136-4.457-6.578-5.714-11.841-.414-1.735,1.459-2.133.735-8.124-.426-3.516.709-8.558,6.256-12.653,5.237-3.866,6.754,7.027,7.486,9.5,2.086,7.059,4.379,11.392,2.886,15.06C1477.04,3000.8,1469.728,3001.192,1468.308,3001.686Z" transform="translate(-1461.067 -2964.781)" fill="#ffd8a3"/>
                    <path id="Path_14756" data-name="Path 14756" d="M1476.153,3037.061a.311.311,0,0,0-.314-.308.328.328,0,0,0-.233.385.312.312,0,0,0,.316.308A.327.327,0,0,0,1476.153,3037.061Z" transform="translate(-1469.603 -3009.527)" fill="#ffab00"/>
                    <path id="Path_14757" data-name="Path 14757" d="M1472.3,3009.165c.135-.942-.283-1.772-.931-1.854s-1.286.615-1.421,1.557.282,1.772.931,1.854S1472.164,3010.108,1472.3,3009.165Z" transform="translate(-1465.892 -2990.293)" fill="#2d356b"/>
                    <path id="Path_14758" data-name="Path 14758" d="M1472.268,3009.01c-.671-1.456-1.727-2.978-4.33-2.556A9.1,9.1,0,0,1,1472.268,3009.01Z" transform="translate(-1464.597 -2989.691)" fill="#2d356b"/>
                    <path id="Path_14759" data-name="Path 14759" d="M1470.369,3049.04c-.062-.215-.66.63-.977.69-.9.169-.523,1.3.364,1.038C1470.1,3050.666,1470.434,3049.268,1470.369,3049.04Z" transform="translate(-1465.21 -3017.531)" fill="#f36973"/>
                    <path id="Path_14760" data-name="Path 14760" d="M1468.856,3037.742c.589-.306-3.675-1.082-2.783.248A6.54,6.54,0,0,0,1468.856,3037.742Z" transform="translate(-1463.298 -3009.844)" fill="#f36973"/>
                    <path id="Path_14761" data-name="Path 14761" d="M1465.211,2994.621a5.547,5.547,0,0,1,7,2.8C1470.173,2995.146,1468.69,2994.369,1465.211,2994.621Z" transform="translate(-1462.815 -2981.786)" fill="#2d356b"/>
                    <path id="Path_14762" data-name="Path 14762" d="M1459.341,3021.418l2.148.427-.462-5.329-2.723,4.1Z" transform="translate(-1458.304 -2996.31)" fill="#ffd8a3"/>
                    <path id="Path_14763" data-name="Path 14763" d="M1462.313,3032.882l-1.952-3.131,1.559-.214Z" transform="translate(-1459.647 -3004.814)" fill="#ffd8a3"/>
                    <path id="Path_14764" data-name="Path 14764" d="M1467.072,3042.717a39.579,39.579,0,0,1-1.494-4.515l3.763-.38S1469,3041.881,1467.072,3042.717Z" transform="translate(-1463.055 -3010.226)" fill="#ffab00"/>
                    <path id="Path_14765" data-name="Path 14765" d="M1468.88,3040.57l-2.143.217c-.182-.568-.358-1.163-.527-1.782l3.075-.311Z" transform="translate(-1463.468 -3010.796)" fill="#fff"/>
                    <path id="Path_14766" data-name="Path 14766" d="M1514.719,3012.819c-.25-1.633-.928-2.787.311-2.974s2.45.985,2.7,2.619-.555,3.11-1.8,3.3S1514.968,3014.454,1514.719,3012.819Z" transform="translate(-1494.884 -2991.94)" fill="#f7c371"/>
                  </g>
                  <path id="Path_14767" data-name="Path 14767" d="M1475.548,2968.278c4.554,5.574,12.361,13.606,11.553,22.283,2.589-9.413-.194-21.341-6.707-25.709C1479.853,2965.825,1474.445,2966.094,1475.548,2968.278Z" transform="translate(-1469.47 -2962.564)" fill="#2d356b"/>
                </g>
              </g>
            </g>
            <g id="Group_10915" data-name="Group 10915" transform="translate(1.613 45.008)">
              <g id="Group_10913" data-name="Group 10913" transform="translate(0 16.528)">
                <path id="Path_14768" data-name="Path 14768" d="M1437.988,3159.211c-1.829-2.061-8.5-3.307-7.417-5.453.969-1.923,5.37-3.577,8.95,3.966Z" transform="translate(-1425.373 -3146.43)" fill="#ffd9a4"/>
                <path id="Path_14769" data-name="Path 14769" d="M1434.5,3150.871c-1.5,3.5-5.756,1.665-6.964.776-1.327-.978-.919-3.95.185-4.658S1435.071,3149.532,1434.5,3150.871Z" transform="translate(-1422.925 -3143.003)" fill="#ffd9a4"/>
                <path id="Path_14770" data-name="Path 14770" d="M1437.615,3140.641c-.722-2.126-.525-4.9.333-4.957.967-.063.349,2.293,1.462,4.043,1.2,1.9,1.855,3.154,1.15,3.656S1438.335,3142.771,1437.615,3140.641Z" transform="translate(-1429.763 -3135.683)" fill="#ffd9a4"/>
                <path id="Path_14771" data-name="Path 14771" d="M1423.513,3141.682c-1.543-1.149-2.085-2.1-1.733-2.478s1.191.334,2.733,1.48,3.789,2.22,3.438,2.595S1425.058,3142.825,1423.513,3141.682Z" transform="translate(-1419.641 -3137.917)" fill="#ffd9a4"/>
                <path id="Path_14772" data-name="Path 14772" d="M1418.526,3146.8c-1.777-.831-2.945-2.338-2.681-2.768s1.713.722,3.49,1.553,2.885,1.465,2.619,1.895S1420.3,3147.633,1418.526,3146.8Z" transform="translate(-1415.808 -3141.078)" fill="#ffd9a4"/>
                <path id="Path_14773" data-name="Path 14773" d="M1420.857,3154.573c-1.741-.9-2.509-1.8-2.233-2.219s1.311.389,3.05,1.291,2.947,1.556,2.671,1.979S1422.6,3155.475,1420.857,3154.573Z" transform="translate(-1417.611 -3146.497)" fill="#ffd9a4"/>
              </g>
              <g id="Group_10914" data-name="Group 10914" transform="translate(12.062)">
                <path id="Path_14774" data-name="Path 14774" d="M1510.812,3088.1c6.917-2.092,12.353,40.835,11.968,42.324,0,0-3.691,1.595-4.662.062C1515.608,3126.522,1507.724,3089.037,1510.812,3088.1Z" transform="translate(-1489.463 -3088.028)" fill="#ffb2b0"/>
                <path id="Path_14775" data-name="Path 14775" d="M1457.023,3167.713c-2.833,4.921,26.849,15.336,28.059,15.3,0,0,3.265-2.82,2.263-3.827C1484.749,3176.584,1458.289,3165.516,1457.023,3167.713Z" transform="translate(-1454.666 -3139.889)" fill="#ffb2b0"/>
                <path id="Path_14776" data-name="Path 14776" d="M1452.318,3165.244l1.248-1.206,6.518,1.04s-1.72,2.543-2.417,2.84S1452.318,3165.244,1452.318,3165.244Z" transform="translate(-1451.717 -3137.676)" fill="#eaeaea"/>
                <path id="Path_14777" data-name="Path 14777" d="M1451.24,3167.188l-.654,1.619,3.477,5.617s1.729-2.573,1.738-3.332S1451.24,3167.188,1451.24,3167.188Z" transform="translate(-1450.586 -3139.733)" fill="#eaeaea"/>
              </g>
            </g>
          </g>
        </g>
      </g>
    </g>
    <g id="Group_10920" data-name="Group 10920" transform="translate(516.876 2807.208)">
      <rect id="Rectangle_3405" data-name="Rectangle 3405" width="52.376" height="28.963" rx="6.672" transform="translate(0)" fill="#fff" stroke="#231f20" stroke-miterlimit="10" stroke-width="0.25"/>
      <text id="Akiko" transform="translate(13.188 17.982)" fill="#2d356b" font-size="10" font-family="TrebuchetMS-Bold, Trebuchet MS" font-weight="700"><tspan x="0" y="0">Akiko</tspan></text>
    </g>
    <g id="Group_10931" data-name="Group 10931" transform="translate(388.026 2716.132)">
      <g id="Group_10930" data-name="Group 10930">
        <g id="Group_10921" data-name="Group 10921" transform="translate(27.627 122.703)">
          <path id="Path_14778" data-name="Path 14778" d="M1244.8,3286.884s-15.458,24.271-13.847,25.747c3.052,2.8,9.3,38.315,17.044,90.976.2,1.336,3.255-.18,3.255-.18C1245.05,3377.882,1244.8,3286.884,1244.8,3286.884Z" transform="translate(-1212.513 -3285.034)" fill="#7b88ac"/>
          <path id="Path_14779" data-name="Path 14779" d="M1250.064,3291.826s5.331,86.458,12.072,112.22a9.546,9.546,0,0,0,1.676-.62c-6.2-25.543-6.452-116.542-6.452-116.542Z" transform="translate(-1225.074 -3285.034)" fill="#7b88ac"/>
          <path id="Path_14780" data-name="Path 14780" d="M1213.305,3283.507s-29.158-3.643-28.745-.983c2.562,16.507-5.145,49.681-3.954,120.16l2.7.231c-.42-46.382,7.757-73.727,16.365-88.227,4.45-7.5,8.968-8.3,12.343-7.258C1212.766,3298.081,1213.305,3283.507,1213.305,3283.507Z" transform="translate(-1179.624 -3281.552)" fill="#9999a5"/>
          <rect id="Rectangle_3406" data-name="Rectangle 3406" width="1.298" height="8.222" transform="translate(22.241 5.635) rotate(-88.114)" fill="#cecfd7"/>
          <rect id="Rectangle_3407" data-name="Rectangle 3407" width="2.176" height="1.737" transform="translate(31.318 6.531) rotate(-88.114)" fill="#cecfd7"/>
          <path id="Path_14781" data-name="Path 14781" d="M1186.452,3630.06l-8.44-.723s1-2.919,2.655-2.627S1186.452,3630.06,1186.452,3630.06Z" transform="translate(-1178.012 -3506.987)" fill="#9898a4"/>
          <path id="Path_14782" data-name="Path 14782" d="M1287.493,3623.077l-8.467-.279s.84-2.852,2.51-2.653S1287.493,3623.077,1287.493,3623.077Z" transform="translate(-1243.992 -3502.705)" fill="#9898a4"/>
        </g>
        <g id="Group_10922" data-name="Group 10922" transform="translate(21.546 29.983)">
          <path id="Path_14783" data-name="Path 14783" d="M1250.406,3061.493l-1.186.348-.551,2.918,2.611,1.2Z" transform="translate(-1218.083 -3045.094)" fill="#eaeaea"/>
          <path id="Path_14784" data-name="Path 14784" d="M1222.389,3018.827l-10.777-4.615-1.35,17.679,15.491,5.369Z" transform="translate(-1192.996 -3014.213)" fill="#f7c371"/>
          <path id="Path_14785" data-name="Path 14785" d="M1246.886,3178.3l-21.075,5.348-2.733,31.1,18.348,1.725Z" transform="translate(-1201.367 -3121.392)" fill="#eaeaea"/>
          <path id="Path_14786" data-name="Path 14786" d="M1165.173,3149.535c13.247.323,28.87-3.8,36.423-18.627,4.086-8.022,4.742-21.561,5.653-34.962,1.219-17.915-17.559-42.443-33.755-37.951-22.511,6.243-9.462,36.056-7.249,43.858C1172.727,3124.712,1165.952,3144.559,1165.173,3149.535Z" transform="translate(-1160.478 -3042.458)" fill="#cfd0d8"/>
          <path id="Path_14787" data-name="Path 14787" d="M1192.378,3173.74c.114-5.9-1.676-24.113-11.656-44.761-1.935-4.006-3.768-15.77-5.572-25.608-.674-3.673-7.243,3-8.617,11.862-.853,5.5,2.734,12.951,3.581,15.938,6.483,22.859-.292,42.706-1.071,47.682C1176.7,3179.04,1185.15,3177.734,1192.378,3173.74Z" transform="translate(-1164.349 -3071.776)" fill="#9999a5"/>
          <path id="Path_14788" data-name="Path 14788" d="M1226.064,3112.869c-.47-23.208-17.6-46.561-33.427-53.522-2.659-1.17-.181-3.095,7.48-2.15C1206.968,3058.07,1234.127,3072.639,1226.064,3112.869Z" transform="translate(-1180.809 -3042.124)" fill="#7b87ab"/>
          <path id="Path_14789" data-name="Path 14789" d="M1241.827,3098.158c-2.028-19.558-8.989-30.011-25.682-40.485,6.682.852,33.024,10.753,26.851,48.549C1242.839,3107.185,1242.177,3101.539,1241.827,3098.158Z" transform="translate(-1196.838 -3042.6)" fill="#eaeaea"/>
          <path id="Path_14790" data-name="Path 14790" d="M1278.1,3250.906c.134-.81-.21-1.544-.77-1.637s-1.124.489-1.259,1.3.209,1.544.77,1.637S1277.963,3251.716,1278.1,3250.906Z" transform="translate(-1235.96 -3167.738)" fill="#9999a5"/>
          <path id="Path_14791" data-name="Path 14791" d="M1282.717,3223.191c.135-.81-.21-1.544-.77-1.637s-1.124.489-1.258,1.3.208,1.544.769,1.637S1282.581,3224,1282.717,3223.191Z" transform="translate(-1238.977 -3149.636)" fill="#9999a5"/>
          <path id="Path_14792" data-name="Path 14792" d="M1244.283,3065.374l3.938,1.5-1.256-4.378-.743-.43Z" transform="translate(-1215.217 -3045.469)" fill="#f46973"/>
          <path id="Path_14793" data-name="Path 14793" d="M1267.24,3118.514l-1-7.9s4.3-24.417-13.051-37.262l.235-.614C1267.666,3083.772,1271.535,3102.113,1267.24,3118.514Z" transform="translate(-1221.032 -3052.44)" fill="#f46973"/>
          <path id="Path_14794" data-name="Path 14794" d="M1220.507,3052.7l-15.525-4.67-2.088,3.077,14.665,6.5Z" transform="translate(-1188.183 -3036.299)" fill="#fff"/>
        </g>
        <g id="Group_10923" data-name="Group 10923" transform="translate(0 46.806)">
          <path id="Path_14795" data-name="Path 14795" d="M1098.706,3102.377c-3.883-1.191,25.53-41.095,32.088-39.62,0,0,10.8,6.667,4.114,28.6C1134.908,3091.357,1112.893,3106.728,1098.706,3102.377Z" transform="translate(-1098.354 -3062.718)" fill="#cfd0d8"/>
          <path id="Path_14796" data-name="Path 14796" d="M1108.085,3150.19c13.856,7.739,33.17-8.981,33.17-8.981a9.3,9.3,0,0,0,.618-2.168C1126.234,3151.053,1107.509,3149.868,1108.085,3150.19Z" transform="translate(-1104.702 -3112.57)" fill="#9999a5"/>
          <path id="Path_14797" data-name="Path 14797" d="M1199.1,3301.071c.38-.575-.521-1.391-1.661-2.146s-2.082-1.167-2.464-.591.233,1.653,1.373,2.408S1198.717,3301.646,1199.1,3301.071Z" transform="translate(-1161.39 -3216.44)" fill="#f7c371"/>
          <path id="Path_14798" data-name="Path 14798" d="M1194.648,3304.4c.38-.575-.519-1.39-1.659-2.146s-2.083-1.167-2.465-.591.233,1.655,1.373,2.409S1194.266,3304.975,1194.648,3304.4Z" transform="translate(-1158.484 -3218.615)" fill="#f7c371"/>
          <path id="Path_14799" data-name="Path 14799" d="M1203.793,3295.69c-.487-.488-1.874.641-3.3,2.071s-2.368,2.616-1.878,3.106,2.042-.277,3.474-1.708S1204.282,3296.178,1203.793,3295.69Z" transform="translate(-1163.753 -3214.814)" fill="#ffd8a3"/>
          <path id="Path_14800" data-name="Path 14800" d="M1184,3273.6c2.37,1.732,10.232,6.568,8.664,9.428-1.4,2.556-6.513,3.556-10.786-7.567Z" transform="translate(-1152.908 -3200.458)" fill="#ffd8a3"/>
          <path id="Path_14801" data-name="Path 14801" d="M1176.1,3271.868l-4.493-3.464,6.719-5.249,1.987,5.2Z" transform="translate(-1146.203 -3193.638)" fill="#eaeaea"/>
          <path id="Path_14802" data-name="Path 14802" d="M1098.757,3165.962s5.783,13.969,26.335,36.692c0,0,3.387-.275,6.479-5.339,0,0-7.3-25.49-18.073-36.943C1113.5,3160.372,1100.487,3160.274,1098.757,3165.962Z" transform="translate(-1098.617 -3126.503)" fill="#cfd0d8"/>
          <path id="Path_14803" data-name="Path 14803" d="M1177.122,3260.7a1.2,1.2,0,1,0,.412-1.814A1.331,1.331,0,0,0,1177.122,3260.7Z" transform="translate(-1149.686 -3190.781)" fill="#9999a5"/>
        </g>
        <g id="Group_10929" data-name="Group 10929" transform="translate(33.569)">
          <g id="Group_10928" data-name="Group 10928">
            <path id="Path_14804" data-name="Path 14804" d="M1198.812,2956.465c-6.088-10.407-2.87-25.329-2.412-25.793,4.889-4.96,15.9-2.594,21.239-.134,4.5,2.074,7.766,5.314,4.8,8.6-1.024,1.135-4.286-2.371-5.457-2.413-2.214-.079-8.561,29.482-8.561,29.482Z" transform="translate(-1195.142 -2927.762)" fill="#0080af"/>
            <g id="Group_10925" data-name="Group 10925" transform="translate(5.626 7.874)">
              <g id="Group_10924" data-name="Group 10924" transform="translate(1.374)">
                <path id="Path_14805" data-name="Path 14805" d="M1265.039,3021.562l1.429-1.7-1.359-1.186Z" transform="translate(-1247.797 -2995.018)" fill="#ffd8a3"/>
                <path id="Path_14806" data-name="Path 14806" d="M1215.622,2975.667c.491,2.673,7.429,9.318,15.217,10.2,2.468-9.921,4.728-26.585,3.3-29.715-1.4-3.079-8.485-6.291-9.53-5.586,2.195,3.658-3.869,13.732-5.608,14.469C1214.769,2966.83,1215.109,2972.879,1215.622,2975.667Z" transform="translate(-1215.326 -2950.465)" fill="#ffd8a3"/>
                <path id="Path_14807" data-name="Path 14807" d="M1268.1,3005.224a72.171,72.171,0,0,1-2.464-9.091c-.656-3.353-2.116,8.358-2.116,8.358S1266.841,3005.832,1268.1,3005.224Z" transform="translate(-1246.805 -2979.9)" fill="#ffd8a3"/>
                <path id="Path_14808" data-name="Path 14808" d="M1257.849,3047.929c.833-.208,1.339-.886,1.129-1.515a1.552,1.552,0,0,0-1.891-.763c-.834.208-1.34.887-1.13,1.516A1.553,1.553,0,0,0,1257.849,3047.929Z" transform="translate(-1241.834 -3012.598)" fill="#ffd8a3"/>
                <path id="Path_14809" data-name="Path 14809" d="M1262.961,3037.19c.059-.2-.138-.433-.44-.522s-.594,0-.652.2.138.432.439.521S1262.9,3037.389,1262.961,3037.19Z" transform="translate(-1245.72 -3006.748)" fill="#ffd8a3"/>
              </g>
              <path id="Path_14810" data-name="Path 14810" d="M1216.263,2987.924c-.141-1.9-1.348-3.418-2.7-3.39s-2.328,1.59-2.189,3.49,2.461,3.363,3.811,3.336S1216.4,2989.824,1216.263,2987.924Z" transform="translate(-1211.364 -2972.718)" fill="#ffd8a3"/>
            </g>
            <path id="Path_14811" data-name="Path 14811" d="M1261.126,3024.162l-.92,4.06s-1.126-.3-1.293-.853a14.553,14.553,0,0,1-.164-4.258Z" transform="translate(-1236.618 -2990.042)" fill="#ffab00"/>
            <path id="Path_14812" data-name="Path 14812" d="M1261.588,3024.785l-.819,3.606s-.834-.211-.979-.471a10.358,10.358,0,0,1-.165-4.03Z" transform="translate(-1237.174 -2990.55)" fill="#fff"/>
            <path id="Path_14813" data-name="Path 14813" d="M1260.747,2987.254a1.009,1.009,0,0,0-.149-.7c-.344-.5-3.99.015-4.063.747l-.044.459c-.052.528,1.072.14,2.134.163,1.015.022,1.969.478,2.035-.016Z" transform="translate(-1235.212 -2966.035)" fill="#2d356b"/>
            <path id="Path_14814" data-name="Path 14814" d="M1260.406,2997.4c.117-.6-.115-1.191-.518-1.31s-.826.273-.944.878.114,1.19.518,1.31S1260.288,2998,1260.406,2997.4Z" transform="translate(-1236.796 -2972.376)" fill="#2d356b"/>
            <path id="Path_14815" data-name="Path 14815" d="M1258.468,3022.78c.041-.138,0-.273-.1-.3s-.208.06-.249.2,0,.272.1.3S1258.427,3022.918,1258.468,3022.78Z" transform="translate(-1236.265 -2989.624)" fill="#ffab00"/>
            <g id="Group_10927" data-name="Group 10927" transform="translate(9.849 7.015)">
              <path id="Path_14816" data-name="Path 14816" d="M1229.261,2954.894c3.3.817-4.551,15.03-3.044,16.41s-.381,2.328-1.214,1.834c-1.907-1.13-1.523-5.464-1.191-8.209C1224.182,2961.873,1228.983,2954.825,1229.261,2954.894Z" transform="translate(-1223.539 -2952.499)" fill="#0080af"/>
              <g id="Group_10926" data-name="Group 10926" transform="translate(3.314)">
                <path id="Path_14817" data-name="Path 14817" d="M1247.4,2951.622c.182-.893-2.872-2.27-6.822-3.074s-7.3-.733-7.48.16,2.872,2.268,6.822,3.073S1247.222,2952.515,1247.4,2951.622Z" transform="translate(-1233.094 -2947.989)" fill="#0080af"/>
                <path id="Path_14818" data-name="Path 14818" d="M1250.527,2958.861c-4.615,2.1-9.356,1.266-12.929.047,0,0,8.55,1.393,12.252-.634Z" transform="translate(-1236.036 -2954.707)" fill="#0080af"/>
                <path id="Path_14819" data-name="Path 14819" d="M1259.736,2956.768c-1.887,3.238-5.054,3.406-7.684,2.914,0,0,5.666-.423,7.039-3.38Z" transform="translate(-1245.477 -2953.419)" fill="#0080af"/>
                <path id="Path_14820" data-name="Path 14820" d="M1265.831,2954.307c-.207,3.482-3.179,4.844-5.833,5.461,0,0,4.669-2.429,4.551-5.644Z" transform="translate(-1250.667 -2951.996)" fill="#0080af"/>
                <path id="Path_14821" data-name="Path 14821" d="M1247.022,2956.881c-4.82,1.58-9.441.225-12.857-1.381,0,0,8.344,2.33,12.247.724Z" transform="translate(-1233.793 -2952.895)" fill="#0080af"/>
              </g>
            </g>
          </g>
        </g>
      </g>
    </g>
    <g id="Group_10932" data-name="Group 10932" transform="translate(405.591 2807.208)">
      <rect id="Rectangle_3408" data-name="Rectangle 3408" width="51.292" height="28.963" rx="6.672" fill="#fff" stroke="#231f20" stroke-miterlimit="10" stroke-width="0.25"/>
      <text id="Dan" transform="translate(16.646 17.982)" fill="#2d356b" font-size="10" font-family="TrebuchetMS-Bold, Trebuchet MS" font-weight="700"><tspan x="0" y="0">Dan</tspan></text>
    </g>
  </g>
</svg>
