<svg xmlns="http://www.w3.org/2000/svg" width="428.513" height="720.379" viewBox="0 0 428.513 720.379">
  <g id="_3" data-name="3" transform="translate(-87.95 -4072.632)">
    <g id="Group_18410" data-name="Group 18410" transform="translate(5.948 -247.58)">
      <rect id="Rectangle_741" data-name="Rectangle 741" width="382.84" height="302.666" transform="translate(83.59 4700.174)" fill="#7b88ac" stroke="#9999a5" stroke-miterlimit="10" stroke-width="1"/>
      <rect id="Rectangle_742" data-name="Rectangle 742" width="370.887" height="252.244" transform="translate(89.566 4732.776)" fill="#fff" stroke="#9999a5" stroke-miterlimit="10" stroke-width="1"/>
      <text id="Subject:" transform="translate(107.704 4787.806)" fill="#7b88ac" font-size="14" font-family="TrebuchetMS-Bold, Trebuchet MS" font-weight="700"><tspan x="0" y="0">Subject:</tspan></text>
      <text id="Re:_Trade_Show_Brochures" data-name="Re: Trade Show Brochures" transform="translate(172.052 4787.806)" fill="#2d356b" font-size="14" font-family="TrebuchetMS-Bold, Trebuchet MS" font-weight="700"><tspan x="0" y="0">Re: Trade Show Brochures</tspan></text>
      <text id="Hi_Brenda_Thank_you_for_sending_me_the_brochure_design._I_have_a_question._We_d_like_to_see_the_layout_of_our_booth._Who_is_______________organizing_the_trade_show_" data-name="Hi Brenda,

Thank you for sending me the brochure 
design.

I have a question. We’d like to see 
the layout of our booth. Who is 
_____________ organizing the trade show?
" transform="translate(119.416 4833.363)" fill="#2d356b" font-size="14" font-family="TrebuchetMS-Bold, Trebuchet MS" font-weight="700"><tspan x="0" y="0">Hi Brenda,</tspan><tspan x="0" y="16"></tspan><tspan x="0" y="32">Thank you for sending me the brochure </tspan><tspan x="0" y="48">design.</tspan><tspan x="0" y="64"></tspan><tspan x="0" y="80">I have a question. We’d like to see </tspan><tspan x="0" y="96">the layout of our booth. Who is </tspan><tspan x="0" y="112">_____________ organizing the trade show?</tspan><tspan font-family="TrebuchetMS-Bold"><tspan x="0" y="128"></tspan></tspan></text>
      <text id="To:" transform="translate(107.704 4761.354)" fill="#7b88ac" font-size="14" font-family="TrebuchetMS-Bold, Trebuchet MS" font-weight="700"><tspan x="0" y="0">To:</tspan></text>
      <text id="brendagibbs_abc.jp" data-name="brendagibbs@abc.jp" transform="translate(139.838 4761.354)" fill="#2d356b" font-size="14" font-family="TrebuchetMS-Bold, Trebuchet MS" font-weight="700"><tspan x="0" y="0">brendagibbs@abc.jp</tspan></text>
      <line id="Line_76" data-name="Line 76" x2="275.828" transform="translate(107.917 4766.596)" fill="#fff" stroke="#9999a5" stroke-miterlimit="10" stroke-width="1"/>
      <line id="Line_77" data-name="Line 77" x2="275.828" transform="translate(107.917 4793.381)" fill="#fff" stroke="#9999a5" stroke-miterlimit="10" stroke-width="1"/>
      <g id="Group_18324" data-name="Group 18324" transform="translate(106.161 4966.938)">
        <path id="Path_22362" data-name="Path 22362" d="M650.459,9611.4l26.6-15.114-36.324,11.144Z" transform="translate(-640.736 -9596.282)" fill="#9ea9fc"/>
        <path id="Path_22363" data-name="Path 22363" d="M694.244,9617.49l10.694,6.471,6.732-27.679Z" transform="translate(-675.347 -9596.282)" fill="#9ea9fc"/>
        <path id="Path_22364" data-name="Path 22364" d="M667.868,9622.022l26.742-25.74-26.6,15.114Z" transform="translate(-658.286 -9596.282)" fill="#2d356b"/>
        <path id="Path_22365" data-name="Path 22365" d="M677.183,9617.49l17.427-21.208-26.742,25.74Z" transform="translate(-658.286 -9596.282)" fill="#40558e"/>
      </g>
      <g id="Group_18334" data-name="Group 18334" transform="translate(414.668 4905.411)">
        <g id="Group_18332" data-name="Group 18332" transform="translate(18.433)">
          <g id="Group_18330" data-name="Group 18330">
            <g id="Group_18329" data-name="Group 18329">
              <g id="Group_18325" data-name="Group 18325" transform="translate(8.725 2.799)">
                <path id="Path_22366" data-name="Path 22366" d="M1593.827,9501.955c-8.11-8.3,5.116-9.723,4.721-16.783s-2-4.88-2.863-14,1.653-12.434,1.974-17.724-2.984-14.067.226-20.682,4.99-4.3,7.78-9.555,5.148.624,9.494,3.105,9.728-10.126,17.332-5.06,6.616,14.886,8.79,20.465,9.8,8.01,10.739,17.911-4.493,7.527-2.2,14.407,9.11,6.5,10.049,16.4c0,0,.667,9.928-10.369,9.132s-7.729,5.2-19.627,1.072-8.149,6.556-16.493,2.351S1601.071,9509.367,1593.827,9501.955Z" transform="translate(-1591.191 -9420.042)" fill="#2d356b"/>
              </g>
              <g id="Group_18326" data-name="Group 18326" transform="translate(0 34.305)">
                <path id="Path_22367" data-name="Path 22367" d="M1647.6,9509.251l-10.192,6.4-1.829,22.04,8.189-2.963Z" transform="translate(-1611.176 -9509.251)" fill="#f7c371"/>
                <path id="Path_22368" data-name="Path 22368" d="M1600.362,9640.2c-.3-22.584,18.892-49.11,3.01-59.32-16.862-10.841-36.886,39.22-36.886,39.22,12.355,10.323,5.677,20.1,5.677,20.1" transform="translate(-1566.486 -9554.59)" fill="#9999a5"/>
                <path id="Path_22369" data-name="Path 22369" d="M1637.965,9577.31l-2.962-.349-13.241,12.457,3.92,3.31S1634.568,9583.668,1637.965,9577.31Z" transform="translate(-1602.241 -9553.048)" fill="#fff"/>
                <path id="Path_22370" data-name="Path 22370" d="M1605.886,9592.571c-.064-.044-.122-.089-.185-.135,3.494-6.972,11.131-17.648,18.505-16.963C1617.494,9581.464,1605.886,9592.571,1605.886,9592.571Z" transform="translate(-1591.852 -9552.065)" fill="#f7c371"/>
              </g>
              <g id="Group_18328" data-name="Group 18328" transform="translate(9.219)">
                <g id="Group_18327" data-name="Group 18327">
                  <path id="Path_22371" data-name="Path 22371" d="M1626.917,9458.157c5.435-1.492,16.379-3.232,21.651-11.44,6.854-10.669,5.114-17.269,2.829-25.3-4.355-15.306-30.464-8.14-28.832-3.63C1624.732,9423.777,1607.22,9463.563,1626.917,9458.157Z" transform="translate(-1608.672 -9412.115)" fill="#2d356b"/>
                  <path id="Path_22372" data-name="Path 22372" d="M1605.105,9471.728c-1.981,0-5.526-10.238-6.583-18.093-.349-2.589,2.439-2.893,2.265-11.727-.1-5.187,2.292-12.365,10.976-17.515,8.2-4.862,8.807,11.229,9.509,14.948,2,10.591,4.705,17.242,1.99,22.365C1617.958,9471.715,1607.246,9471.217,1605.105,9471.728Z" transform="translate(-1596.407 -9419.471)" fill="#ffd8a3"/>
                  <path id="Path_22373" data-name="Path 22373" d="M1616.786,9520.235a.456.456,0,0,0-.412-.5.48.48,0,0,0-.4.527.457.457,0,0,0,.415.494A.478.478,0,0,0,1616.786,9520.235Z" transform="translate(-1607.718 -9481.731)" fill="#ffab00"/>
                  <path id="Path_22374" data-name="Path 22374" d="M1615.143,9479.764c-.047-1.392-.863-2.481-1.818-2.434s-1.7,1.216-1.649,2.609.862,2.482,1.819,2.435S1615.191,9481.158,1615.143,9479.764Z" transform="translate(-1604.934 -9454.298)" fill="#2d356b"/>
                  <path id="Path_22375" data-name="Path 22375" d="M1614.35,9479.662c-1.341-1.927-3.254-3.849-6.9-2.573A13.329,13.329,0,0,1,1614.35,9479.662Z" transform="translate(-1602.202 -9453.876)" fill="#2d356b"/>
                  <path id="Path_22376" data-name="Path 22376" d="M1606.561,9536.858c-.059-.324-1.053.82-1.525.862-1.334.112-.954,1.814.377,1.564C1605.934,9539.188,1606.623,9537.2,1606.561,9536.858Z" transform="translate(-1600.103 -9492.767)" fill="#f36973"/>
                  <path id="Path_22377" data-name="Path 22377" d="M1606.285,9520.324c.9-.359-5.2-2.115-4.091-.048C1602.6,9520.683,1605.821,9520.509,1606.285,9520.324Z" transform="translate(-1598.714 -9481.437)" fill="#f36973"/>
                  <path id="Path_22378" data-name="Path 22378" d="M1607.249,9458.35c2.258-.455,7.172-.854,9.79,5.107C1614.4,9459.844,1612.355,9458.494,1607.249,9458.35Z" transform="translate(-1602.072 -9441.871)" fill="#2d356b"/>
                  <path id="Path_22379" data-name="Path 22379" d="M1593.983,9496.211l3.066.938.111-7.832-4.571,5.575Z" transform="translate(-1592.589 -9462.053)" fill="#ffd8a3"/>
                  <path id="Path_22380" data-name="Path 22380" d="M1597.654,9512.69l-2.384-4.849,2.3-.082Z" transform="translate(-1594.323 -9473.982)" fill="#ffd8a3"/>
                  <path id="Path_22381" data-name="Path 22381" d="M1602.983,9528.085a57.876,57.876,0,0,1-1.513-6.8h5.538S1605.909,9527.149,1602.983,9528.085Z" transform="translate(-1598.333 -9482.73)" fill="#ffab00"/>
                  <path id="Path_22382" data-name="Path 22382" d="M1605.938,9525.012h-3.155c-.183-.854-.351-1.748-.506-2.674h4.526Z" transform="translate(-1598.856 -9483.411)" fill="#fff"/>
                  <path id="Path_22383" data-name="Path 22383" d="M1675.315,9491.359c-.125-2.415-.943-4.2.89-4.287s3.426,1.8,3.55,4.214-1.265,4.45-3.1,4.543S1675.437,9493.779,1675.315,9491.359Z" transform="translate(-1645.912 -9460.599)" fill="#f7c371"/>
                </g>
                <path id="Path_22384" data-name="Path 22384" d="M1625.143,9423.088c5.817,8.79,16.009,21.642,13.557,34.164,5.157-13.333,2.856-31.12-5.991-38.444C1631.778,9420.146,1623.858,9419.743,1625.143,9423.088Z" transform="translate(-1613.555 -9416.444)" fill="#2d356b"/>
              </g>
            </g>
          </g>
          <g id="Group_18331" data-name="Group 18331" transform="translate(20.261 61.857)">
            <path id="Path_22385" data-name="Path 22385" d="M1670.715,9587.435c9.866-3.808,22.181,58.278,21.773,60.493,0,0-6.117,5.2-7.688,3.068C1680.735,9645.478,1666.31,9589.133,1670.715,9587.435Z" transform="translate(-1653.631 -9587.267)" fill="#cecfd7"/>
            <path id="Path_22386" data-name="Path 22386" d="M1624.261,9758.637c-4.671-6.551,32.548-13.826,34.262-13.934,0,0,4.787,3.388,3.715,5.085C1657.563,9757.2,1626.347,9761.56,1624.261,9758.637Z" transform="translate(-1623.855 -9689.102)" fill="#cecfd7"/>
          </g>
        </g>
        <g id="Group_18333" data-name="Group 18333" transform="translate(10 104.843)">
          <rect id="Rectangle_743" data-name="Rectangle 743" width="74.689" height="30.213" rx="6.672" fill="#fff" stroke="#231f20" stroke-miterlimit="10" stroke-width="0.25"/>
          <text id="Akiko" transform="translate(24.345 18.607)" fill="#2d356b" font-size="10" font-family="TrebuchetMS-Bold, Trebuchet MS" font-weight="700"><tspan x="0" y="0">Akiko</tspan></text>
        </g>
      </g>
    </g>
    <g id="Group_18409" data-name="Group 18409" transform="translate(4.86 -168.496)">
      <rect id="Rectangle_738" data-name="Rectangle 738" width="382.84" height="315.565" transform="translate(83.59 4289.256)" fill="#7b88ac" stroke="#9999a5" stroke-miterlimit="10" stroke-width="1"/>
      <rect id="Rectangle_739" data-name="Rectangle 739" width="370.887" height="264.862" transform="translate(89.566 4321.858)" fill="#fff" stroke="#9999a5" stroke-miterlimit="10" stroke-width="1"/>
      <text id="Subject:-2" data-name="Subject:" transform="translate(107.704 4375.888)" fill="#7b88ac" font-size="13" font-family="TrebuchetMS-Bold, Trebuchet MS" font-weight="700"><tspan x="0" y="0">Subject:</tspan></text>
      <text id="Trade_Show_Brochures" data-name="Trade Show Brochures" transform="translate(171.622 4376.888)" fill="#2d356b" font-size="14" font-family="TrebuchetMS-Bold, Trebuchet MS" font-weight="700"><tspan x="0" y="0">Trade Show Brochures</tspan></text>
      <text id="To:-2" data-name="To:" transform="translate(107.704 4350.437)" fill="#7b88ac" font-size="14" font-family="TrebuchetMS-Bold, Trebuchet MS" font-weight="700"><tspan x="0" y="0">To:</tspan></text>
      <text id="akiko_abc.jp" data-name="akiko@abc.jp" transform="translate(139.838 4350.437)" fill="#2d356b" font-size="14" font-family="TrebuchetMS-Bold, Trebuchet MS" font-weight="700"><tspan x="0" y="0">akiko@abc.jp</tspan></text>
      <line id="Line_74" data-name="Line 74" x2="275.828" transform="translate(107.917 4355.678)" fill="#fff" stroke="#9999a5" stroke-miterlimit="10" stroke-width="1"/>
      <line id="Line_75" data-name="Line 75" x2="275.828" transform="translate(107.917 4381.505)" fill="#fff" stroke="#9999a5" stroke-miterlimit="10" stroke-width="1"/>
      <g id="Group_18322" data-name="Group 18322" transform="translate(109.117 4570.687)">
        <path id="Path_22358" data-name="Path 22358" d="M658.829,8380.866l26.6-15.114L649.105,8376.9Z" transform="translate(-649.105 -8365.752)" fill="#9ea9fc"/>
        <path id="Path_22359" data-name="Path 22359" d="M702.614,8386.96l10.694,6.471,6.732-27.679Z" transform="translate(-683.716 -8365.752)" fill="#9ea9fc"/>
        <path id="Path_22360" data-name="Path 22360" d="M676.237,8391.492l26.742-25.74-26.6,15.114Z" transform="translate(-666.655 -8365.752)" fill="#2d356b"/>
        <path id="Path_22361" data-name="Path 22361" d="M685.552,8386.96l17.426-21.208-26.742,25.74Z" transform="translate(-666.655 -8365.752)" fill="#40558e"/>
      </g>
      <g id="Group_18323" data-name="Group 18323" transform="translate(83.162 4288.739)">
        <rect id="Rectangle_740" data-name="Rectangle 740" width="55.692" height="33.628" transform="translate(55.692 33.628) rotate(-180)" fill="#ebebeb"/>
      </g>
      <text id="_3-2" data-name="3" transform="translate(103.008 4313.764)" fill="#2d356b" font-size="28" font-family="TrebuchetMS-Bold, Trebuchet MS" font-weight="700"><tspan x="0" y="0">3</tspan></text>
      <g id="Group_18348" data-name="Group 18348" transform="translate(414.668 4241.128)">
        <g id="Group_18347" data-name="Group 18347" transform="translate(0 0)">
          <g id="Group_18346" data-name="Group 18346" transform="translate(21.221)">
            <g id="Group_18344" data-name="Group 18344">
              <g id="Group_18343" data-name="Group 18343">
                <g id="Group_18335" data-name="Group 18335" transform="translate(7.631)">
                  <path id="Path_22387" data-name="Path 22387" d="M1598.933,7333.294c-5.5-5.713-3.134-15.147,5.78-18.493,0,0-6.582-8.4,11.222-9.036s24.469,12.068,24.654,14.787c0,0,13.8-2.724,7.829,12.5,0,0,6.494,2.563,6.734,11.374.179,6.6-5.589,14.211-10.79,12.18,0,0-.475,13.2-10.941,12.958a14.807,14.807,0,0,1-13.635-9.178s.292,3.84-3.6,3.631-6.892-3.4-6.892-3.4.8,4.187-1.145,4.081-1.932-6-1.932-6-3.771,3.462-6.894-.529,2.952-13.068,2.952-13.068Z" transform="translate(-1595.988 -7305.742)" fill="#c3e8e6"/>
                </g>
                <g id="Group_18336" data-name="Group 18336" transform="translate(0 42.421)">
                  <path id="Path_22388" data-name="Path 22388" d="M1654.988,7425.859l-9.688,3.053-1.829,22.04,8.189-2.962Z" transform="translate(-1619.07 -7425.859)" fill="#ffac00"/>
                  <path id="Path_22389" data-name="Path 22389" d="M1608.256,7547.326c-.3-22.583,18.892-49.109,3.01-59.319-16.862-10.84-36.886,39.221-36.886,39.221,12.355,10.322,5.677,20.1,5.677,20.1" transform="translate(-1574.38 -7465.064)" fill="#ffb2b0"/>
                  <path id="Path_22390" data-name="Path 22390" d="M1645.859,7484.435l-2.962-.348-13.241,12.457,3.92,3.311S1642.462,7490.793,1645.859,7484.435Z" transform="translate(-1610.135 -7463.523)" fill="#fff"/>
                  <path id="Path_22391" data-name="Path 22391" d="M1613.781,7499.7c-.064-.044-.122-.089-.186-.134,3.494-6.972,11.131-17.649,18.505-16.963C1625.389,7488.588,1613.781,7499.7,1613.781,7499.7Z" transform="translate(-1599.746 -7462.541)" fill="#ffac00"/>
                </g>
                <g id="Group_18342" data-name="Group 18342" transform="translate(9.742 8.435)">
                  <g id="Group_18341" data-name="Group 18341">
                    <g id="Group_18340" data-name="Group 18340">
                      <g id="Group_18339" data-name="Group 18339">
                        <g id="Group_18338" data-name="Group 18338">
                          <g id="Group_18337" data-name="Group 18337" transform="translate(0 3.83)">
                            <path id="Path_22392" data-name="Path 22392" d="M1614.768,7386.769c-1.885.085-5.7-9.5-7.037-16.928-.443-2.448,2.2-2.858,1.651-11.253-.32-4.928,1.65-11.859,9.69-17.13,7.59-4.977,8.859,10.306,9.686,13.812,2.357,9.989,5.214,16.2,2.851,21.19C1626.993,7386.206,1616.783,7386.191,1614.768,7386.769Z" transform="translate(-1605.662 -7340.47)" fill="#f8c471"/>
                            <path id="Path_22393" data-name="Path 22393" d="M1625.671,7433.646a.434.434,0,0,0-.414-.454.458.458,0,0,0-.354.518.435.435,0,0,0,.416.452A.455.455,0,0,0,1625.671,7433.646Z" transform="translate(-1616.802 -7400.446)" fill="#ffab00"/>
                            <path id="Path_22394" data-name="Path 22394" d="M1622.523,7395.114c-.1-1.323-.927-2.324-1.834-2.238s-1.562,1.23-1.457,2.552.926,2.325,1.834,2.238S1622.627,7396.438,1622.523,7395.114Z" transform="translate(-1613.127 -7374.365)" fill="#2d356b"/>
                            <path id="Path_22395" data-name="Path 22395" d="M1621.608,7395.006c-1.358-1.776-3.26-3.522-6.673-2.153A12.694,12.694,0,0,1,1621.608,7395.006Z" transform="translate(-1610.355 -7374.037)" fill="#2d356b"/>
                            <path id="Path_22396" data-name="Path 22396" d="M1616.747,7449.747c-.07-.306-.967.826-1.414.885-1.264.166-.829,1.767.427,1.472C1616.25,7451.99,1616.82,7450.07,1616.747,7449.747Z" transform="translate(-1610.122 -7411.121)" fill="#f36973"/>
                            <path id="Path_22397" data-name="Path 22397" d="M1615.688,7434.123c.844-.38-5.033-1.791-3.894.129C1612.2,7434.62,1615.255,7434.317,1615.688,7434.123Z" transform="translate(-1608.228 -7400.495)" fill="#f36973"/>
                            <path id="Path_22398" data-name="Path 22398" d="M1613.925,7375.028c2.129-.53,6.786-1.12,9.531,4.439C1620.792,7376.143,1618.788,7374.947,1613.925,7375.028Z" transform="translate(-1609.702 -7362.613)" fill="#2d356b"/>
                            <path id="Path_22399" data-name="Path 22399" d="M1603.348,7411.444l2.957.761-.23-7.455-4.109,5.5Z" transform="translate(-1601.966 -7382.049)" fill="#f8c471"/>
                            <path id="Path_22400" data-name="Path 22400" d="M1607.115,7427.141l-2.475-4.512,2.186-.176Z" transform="translate(-1603.696 -7393.5)" fill="#f8c471"/>
                            <path id="Path_22401" data-name="Path 22401" d="M1612.839,7441.3a54.922,54.922,0,0,1-1.73-6.4l5.268-.238S1615.581,7440.286,1612.839,7441.3Z" transform="translate(-1607.879 -7401.396)" fill="#ffab00"/>
                            <path id="Path_22402" data-name="Path 22402" d="M1615.517,7438.33l-3,.136c-.211-.8-.409-1.647-.6-2.521l4.306-.194Z" transform="translate(-1608.405 -7402.101)" fill="#fff"/>
                            <path id="Path_22403" data-name="Path 22403" d="M1680.165,7403.6c-.223-2.293-1.076-3.951.662-4.116s3.336,1.561,3.557,3.855-1.013,4.287-2.755,4.454S1680.384,7405.891,1680.165,7403.6Z" transform="translate(-1652.285 -7378.633)" fill="#ffac00"/>
                          </g>
                          <path id="Path_22404" data-name="Path 22404" d="M1632.525,7329.632c1.44,5.422,5.728,19.1,13.515,21.578,0,0,4.331-12.208-2.985-16.529C1633.817,7329.222,1632.525,7329.632,1632.525,7329.632Z" transform="translate(-1621.733 -7329.625)" fill="#c3e8e6"/>
                        </g>
                      </g>
                    </g>
                  </g>
                </g>
              </g>
            </g>
            <g id="Group_18345" data-name="Group 18345" transform="translate(20.261 66.624)">
              <path id="Path_22405" data-name="Path 22405" d="M1678.609,7494.56c9.866-3.808,22.182,58.279,21.773,60.494,0,0-6.117,5.2-7.688,3.068C1688.629,7552.6,1674.2,7496.259,1678.609,7494.56Z" transform="translate(-1661.525 -7494.392)" fill="#fc8c99"/>
              <path id="Path_22406" data-name="Path 22406" d="M1632.155,7665.76c-4.671-6.55,32.548-13.825,34.262-13.932,0,0,4.787,3.388,3.715,5.085C1665.457,7664.322,1634.241,7668.686,1632.155,7665.76Z" transform="translate(-1631.75 -7596.227)" fill="#fc8c99"/>
            </g>
          </g>
          <rect id="Rectangle_744" data-name="Rectangle 744" width="77.689" height="33.213" rx="6.672" transform="translate(10.333 109.61)" fill="#fff" stroke="#231f20" stroke-miterlimit="10" stroke-width="0.25"/>
        </g>
        <text id="Brenda" transform="translate(32.524 129.516)" fill="#2d356b" font-size="10" font-family="TrebuchetMS-Bold, Trebuchet MS" font-weight="700"><tspan x="0" y="0">Brenda</tspan></text>
      </g>
    </g>
  </g>
</svg>
