<svg xmlns="http://www.w3.org/2000/svg" width="224.23" height="150.455" viewBox="0 0 224.23 150.455">
  <g id="Group_17951" data-name="Group 17951" transform="translate(-349.77 -2609.246)">
    <g id="Group_17741" data-name="Group 17741" transform="translate(393.751 2724.3)">
      <path id="Path_26207" data-name="Path 26207" d="M516.925,2900.572v34.879H668.279l6.242-17.312-6.242-17.567Z" transform="translate(-516.925 -2900.05)" fill="#ffac00"/>
      <text id="Business_trip" data-name="Business trip" transform="translate(10.843 25.668)" fill="#fff" font-size="22" font-family="TrebuchetMS-Bold, Trebuchet MS" font-weight="700"><tspan x="0" y="0">Business trip</tspan></text>
    </g>
    <g id="Group_17740" data-name="Group 17740" transform="translate(372.423 2609.371)">
      <rect id="Rectangle_6318" data-name="Rectangle 6318" width="178.924" height="38.184" rx="6.672" transform="translate(0)" fill="#fff" stroke="#231f20" stroke-miterlimit="10" stroke-width="0.25"/>
      <text id="Next_week" data-name="Next week" transform="translate(34.594 24.37)" fill="#2d356b" font-size="20" font-family="TrebuchetMS-Bold, Trebuchet MS" font-weight="700"><tspan x="0" y="0">Next week</tspan></text>
    </g>
    <g id="Group_17747" data-name="Group 17747" transform="translate(349.77 2640.341)">
      <g id="Group_17742" data-name="Group 17742" transform="translate(97.607 18.398)">
        <path id="Path_26208" data-name="Path 26208" d="M715.563,2706.583l-35.731-14.135,10.975-3.7s1.807-1.3,7.612-.482,48.712,3.973,48.712,3.973S731.009,2705.085,715.563,2706.583Z" transform="translate(-679.832 -2687.997)" fill="#9ea9fc"/>
      </g>
      <g id="Group_17743" data-name="Group 17743">
        <path id="Path_26209" data-name="Path 26209" d="M577.918,2663.949s24.283-9.865,28.475-18.468-4.653-8.732-4.653-8.732l-7.092-4.033s-5.379-3.8-39.18,7.588l-105.613,35.587s-8.984,4.4-21.888-2.11-29.746-18.429-29.746-18.429l-14.9,5.021,23.878,33.26-7.316,2.465,1.433,4.253,7.045-2.375s.485,22.943,115.64-15.86" transform="translate(-383.319 -2632.106)" fill="#ebebeb"/>
      </g>
      <g id="Group_17744" data-name="Group 17744" transform="translate(42.378 9.347)">
        <path id="Path_26210" data-name="Path 26210" d="M693.876,2660.5s-20.5,21.94-181.819,63.249c0,0,23.612,2.583,79.93-16.394l69.036-23.261,3.256-1.1s15.575-6.479,23.193-12.668c3.267-2.655,3.858-3.52,4.8-4.934C694.275,2662.362,693.876,2660.5,693.876,2660.5Z" transform="translate(-512.057 -2660.5)" fill="#9999a5"/>
      </g>
      <g id="Group_17745" data-name="Group 17745" transform="translate(97.844 32.648)">
        <path id="Path_26211" data-name="Path 26211" d="M713.325,2739.548l-32.773,45.762,10.956-3.753s2.227-.068,6.331-4.256,49.261-45.609,49.261-45.609S736.9,2728.585,713.325,2739.548Z" transform="translate(-680.552 -2731.285)" fill="#9ea9fc"/>
      </g>
      <g id="Group_17746" data-name="Group 17746" transform="translate(71.372 15.463)">
        <path id="Path_26212" data-name="Path 26212" d="M917.181,2682.552a2.63,2.63,0,1,0,1.652-3.332A2.628,2.628,0,0,0,917.181,2682.552Z" transform="translate(-812.722 -2679.082)" fill="#cfd0d8"/>
        <path id="Path_26213" data-name="Path 26213" d="M890.771,2691.45a2.63,2.63,0,1,0,1.652-3.333A2.632,2.632,0,0,0,890.771,2691.45Z" transform="translate(-795.006 -2685.05)" fill="#cfd0d8"/>
        <path id="Path_26214" data-name="Path 26214" d="M864.364,2700.349a2.629,2.629,0,1,0,1.652-3.333A2.627,2.627,0,0,0,864.364,2700.349Z" transform="translate(-777.292 -2691.02)" fill="#cfd0d8"/>
        <path id="Path_26215" data-name="Path 26215" d="M837.953,2709.246a2.63,2.63,0,1,0,1.651-3.333A2.63,2.63,0,0,0,837.953,2709.246Z" transform="translate(-759.575 -2696.988)" fill="#cfd0d8"/>
        <path id="Path_26216" data-name="Path 26216" d="M811.547,2718.147a2.629,2.629,0,1,0,1.651-3.334A2.629,2.629,0,0,0,811.547,2718.147Z" transform="translate(-741.861 -2702.958)" fill="#cfd0d8"/>
        <path id="Path_26217" data-name="Path 26217" d="M785.136,2727.044a2.63,2.63,0,1,0,1.653-3.333A2.629,2.629,0,0,0,785.136,2727.044Z" transform="translate(-724.145 -2708.927)" fill="#cfd0d8"/>
        <path id="Path_26218" data-name="Path 26218" d="M758.729,2735.943a2.63,2.63,0,1,0,1.653-3.332A2.628,2.628,0,0,0,758.729,2735.943Z" transform="translate(-706.43 -2714.897)" fill="#cfd0d8"/>
        <path id="Path_26219" data-name="Path 26219" d="M732.32,2744.842a2.629,2.629,0,1,0,1.651-3.334A2.631,2.631,0,0,0,732.32,2744.842Z" transform="translate(-688.714 -2720.866)" fill="#cfd0d8"/>
        <path id="Path_26220" data-name="Path 26220" d="M705.914,2753.739a2.629,2.629,0,1,0,1.651-3.332A2.629,2.629,0,0,0,705.914,2753.739Z" transform="translate(-671 -2726.836)" fill="#cfd0d8"/>
        <path id="Path_26221" data-name="Path 26221" d="M679.5,2762.639a2.63,2.63,0,1,0,1.652-3.331A2.63,2.63,0,0,0,679.5,2762.639Z" transform="translate(-653.283 -2732.806)" fill="#cfd0d8"/>
        <path id="Path_26222" data-name="Path 26222" d="M653.094,2771.538a2.63,2.63,0,1,0,1.652-3.332A2.632,2.632,0,0,0,653.094,2771.538Z" transform="translate(-635.568 -2738.775)" fill="#cfd0d8"/>
        <path id="Path_26223" data-name="Path 26223" d="M626.686,2780.437a2.63,2.63,0,1,0,1.652-3.334A2.628,2.628,0,0,0,626.686,2780.437Z" transform="translate(-617.853 -2744.743)" fill="#cfd0d8"/>
        <path id="Path_26224" data-name="Path 26224" d="M600.274,2789.334a2.63,2.63,0,1,0,1.654-3.332A2.631,2.631,0,0,0,600.274,2789.334Z" transform="translate(-600.136 -2750.713)" fill="#cfd0d8"/>
      </g>
    </g>
  </g>
</svg>
