<svg xmlns="http://www.w3.org/2000/svg" width="544" height="356.276" viewBox="0 0 544 356.276">
  <g id="Group_19335" data-name="Group 19335" transform="translate(-680.493 -277.429)">
    <g id="Group_19298" data-name="Group 19298" transform="translate(680.493 277.429)">
      <g id="Group_19207" data-name="Group 19207" transform="translate(0 0)">
        <g id="Group_19206" data-name="Group 19206">
          <g id="Group_19205" data-name="Group 19205">
            <g id="Group_19204" data-name="Group 19204">
              <g id="Group_19203" data-name="Group 19203">
                <g id="Group_19200" data-name="Group 19200" transform="translate(0.455)">
                  <g id="Group_19196" data-name="Group 19196" transform="translate(0.104)">
                    <path id="Path_29053" data-name="Path 29053" d="M1225.173,289.525h.644V278.513H682.376V508.658h542.791V485.54h.005Z" transform="translate(-682.376 -278.191)" fill="#fff"/>
                    <rect id="Rectangle_6748" data-name="Rectangle 6748" width="542.881" height="0.644" transform="translate(0 230.145)" fill="#a0bacb"/>
                    <rect id="Rectangle_6749" data-name="Rectangle 6749" width="543.441" height="0.644" fill="#7b88ac"/>
                  </g>
                  <g id="Group_19197" data-name="Group 19197" transform="translate(0 47.026)">
                    <path id="Path_29054" data-name="Path 29054" d="M759.194,436.975v-.169h-6.682v.169H683.438V577.288H825.289V436.975Zm60.223,4.505v30.854H759.194V441.48Zm-66.9,36.178V536.6h-63.2V477.658Zm6.682,58.946V477.658h60.223V536.6Zm-6.682-95.124v30.854h-63.2V441.48Zm-63.2,100.448h63.2v30.854h-63.2Zm69.883,30.854V541.928h60.223v30.854Z" transform="translate(-683.018 -436.484)" fill="#ebebeb"/>
                    <path id="Path_29055" data-name="Path 29055" d="M824.715,576.848H682.025V435.892H751.1v-.169h7.521v.169h66.1ZM682.864,576.2H823.877V436.535h-66.1v-.169h-5.843v.169H682.864Zm135.979-3.862H757.781v-31.5h61.061ZM758.62,571.7H818v-30.21H758.62Zm-6.682.644H687.9v-31.5h64.04Zm-63.2-.644H751.1v-30.21H688.737Zm130.106-35.534H757.781v-59.59h61.061Zm-60.222-.644H818v-58.3H758.62Zm-6.682.644H687.9v-59.59h64.04Zm-63.2-.644H751.1v-58.3H688.737Zm130.106-63.626H757.781V440.4h61.061Zm-60.222-.644H818V441.04H758.62Zm-6.682.644H687.9V440.4h64.04Zm-63.2-.644H751.1V441.04H688.737Z" transform="translate(-682.025 -435.723)" fill="#ebebeb"/>
                  </g>
                  <g id="Group_19198" data-name="Group 19198" transform="translate(229.577 46.196)">
                    <path id="Path_29056" data-name="Path 29056" d="M1384.583,434.18v-.169h-6.129v.169H1315.1V574.493h130.11V434.18Zm55.238,4.506v30.854h-55.238V438.685Zm-61.367,36.178v58.946h-57.97V474.863Zm6.129,58.946V474.863h55.238v58.946Zm-6.129-95.124v30.854h-57.97V438.685Zm-57.97,100.448h57.97v30.854h-57.97Zm64.1,30.854V539.133h55.238v30.854Z" transform="translate(-1314.713 -433.689)" fill="#ebebeb"/>
                    <path id="Path_29057" data-name="Path 29057" d="M1444.682,574.053H1313.8V433.1h63.356v-.169h6.9v.169h60.624Zm-130.11-.643h129.34V433.74h-60.624v-.169h-5.36v.169h-63.356Zm124.723-3.862h-56.007v-31.5H1439.3Zm-55.237-.643h54.468v-30.21h-54.468Zm-6.129.643H1319.19v-31.5h58.739Zm-57.97-.643h57.2v-30.21h-57.2ZM1439.3,533.37h-56.007V473.78H1439.3Zm-55.237-.643h54.468v-58.3h-54.468Zm-6.129.643H1319.19V473.78h58.739Zm-57.97-.643h57.2v-58.3h-57.2ZM1439.3,469.1h-56.007V437.6H1439.3Zm-55.237-.643h54.468v-30.21h-54.468Zm-6.129.643H1319.19V437.6h58.739Zm-57.97-.643h57.2v-30.21h-57.2Z" transform="translate(-1313.803 -432.928)" fill="#ebebeb"/>
                  </g>
                  <g id="Group_19199" data-name="Group 19199" transform="translate(431.019 47.026)">
                    <path id="Path_29058" data-name="Path 29058" d="M1992.389,572.782h-35.8V541.928h35.8V536.6h-35.8V477.658h35.8v-5.325h-35.8V441.48h35.8v-4.505h-35.8v-.169h-6.682v.169h-69.074V577.288h111.552Zm-42.479,0h-63.2V541.928h63.2Zm0-36.178h-63.2V477.658h63.2Zm0-64.27h-63.2V441.48h63.2Z" transform="translate(-1880.418 -436.484)" fill="#ebebeb"/>
                    <path id="Path_29059" data-name="Path 29059" d="M2134.427,821.072h36.216v-.644h-35.376v-30.21h35.376v-.644h-36.216Z" transform="translate(-2058.671 -684.452)" fill="#ebebeb"/>
                    <path id="Path_29060" data-name="Path 29060" d="M2134.427,632.825h36.216v-.644h-35.376v-58.3h35.376v-.644h-36.216Z" transform="translate(-2058.671 -532.383)" fill="#ebebeb"/>
                    <path id="Path_29061" data-name="Path 29061" d="M2134.427,482.954h36.216v-.644h-35.376V452.1h35.376v-.644h-36.216Z" transform="translate(-2058.671 -446.782)" fill="#ebebeb"/>
                    <path id="Path_29062" data-name="Path 29062" d="M1963.234,451.456h-64.04v31.5h64.04Zm-.839,30.854h-62.362V452.1h62.362Z" transform="translate(-1893.321 -446.782)" fill="#ebebeb"/>
                    <path id="Path_29063" data-name="Path 29063" d="M1991.4,576.2H1880.265V436.535h69.073v-.169h5.843v.169H1991.4v-.644h-35.377v-.169H1948.5v.169h-69.073V576.848H1991.4Z" transform="translate(-1879.426 -435.723)" fill="#ebebeb"/>
                    <path id="Path_29064" data-name="Path 29064" d="M1899.194,821.072h64.04v-31.5h-64.04Zm.839-30.854h62.362v30.21h-62.362Z" transform="translate(-1893.321 -684.452)" fill="#ebebeb"/>
                    <path id="Path_29065" data-name="Path 29065" d="M1963.234,573.235h-64.04v59.59h64.04Zm-.839,58.946h-62.362v-58.3h62.362Z" transform="translate(-1893.321 -532.383)" fill="#ebebeb"/>
                  </g>
                </g>
                <g id="Group_19201" data-name="Group 19201" transform="translate(0 245.141)">
                  <path id="Path_29066" data-name="Path 29066" d="M1223.934,960.857H681.142v78.963h-.649v31.9h543.435v-107.5h.005Z" transform="translate(-680.493 -960.583)" fill="#f9f9f9"/>
                  <rect id="Rectangle_6750" data-name="Rectangle 6750" width="541.907" height="0.461" transform="translate(1.672 110.5)" fill="#f9f9f9"/>
                  <rect id="Rectangle_6751" data-name="Rectangle 6751" width="542.886" height="0.461" transform="translate(0.559)" fill="#f9f9f9"/>
                </g>
                <g id="Group_19202" data-name="Group 19202" transform="translate(25.036 4.057)">
                  <path id="Path_29067" data-name="Path 29067" d="M1627.24,359.942V291.087h-1.581v68.855c-4.929.351-8.8,3.934-8.8,8.311,0,4.609,4.3,8.346,9.595,8.346s9.6-3.737,9.6-8.346C1636.044,363.876,1632.168,360.292,1627.24,359.942Z" transform="translate(-1363.716 -291.087)" fill="#c3e8e6"/>
                  <path id="Path_29068" data-name="Path 29068" d="M775.153,378.249V309.394h-1.581v68.855c-4.929.351-8.8,3.934-8.8,8.311,0,4.609,4.3,8.346,9.6,8.346s9.6-3.737,9.6-8.346C783.957,382.183,780.081,378.6,775.153,378.249Z" transform="translate(-764.767 -303.955)" fill="#c3e8e6"/>
                  <path id="Path_29069" data-name="Path 29069" d="M1075.469,377.862V327.8h-1.149v50.059c-3.583.255-6.4,2.86-6.4,6.042,0,3.351,3.123,6.068,6.976,6.068s6.976-2.716,6.976-6.068C1081.871,380.722,1079.053,378.117,1075.469,377.862Z" transform="translate(-977.858 -316.895)" fill="#c3e8e6"/>
                  <path id="Path_29070" data-name="Path 29070" d="M1889.6,377.862V327.8h-1.149v50.059c-3.583.255-6.4,2.86-6.4,6.042,0,3.351,3.124,6.068,6.976,6.068S1896,387.256,1896,383.9C1896,380.722,1893.182,378.117,1889.6,377.862Z" transform="translate(-1550.125 -316.895)" fill="#c3e8e6"/>
                </g>
              </g>
            </g>
          </g>
        </g>
      </g>
      <g id="Group_19244" data-name="Group 19244" transform="translate(22.8 151.425)">
        <g id="Group_19216" data-name="Group 19216" transform="translate(0 19.181)">
          <g id="Group_19208" data-name="Group 19208">
            <rect id="Rectangle_6752" data-name="Rectangle 6752" width="42.086" height="1.503" transform="translate(0.384 0.32)" fill="#ebebeb"/>
            <path id="Path_29071" data-name="Path 29071" d="M800.092,758.63H757.239v-2.143h42.853Zm-42.086-.639h41.319v-.864H758.006Z" transform="translate(-757.239 -756.487)" fill="#ebebeb"/>
          </g>
          <g id="Group_19209" data-name="Group 19209" transform="translate(0 22.676)">
            <rect id="Rectangle_6753" data-name="Rectangle 6753" width="42.086" height="1.503" transform="translate(0.384 0.32)" fill="#ebebeb"/>
            <path id="Path_29072" data-name="Path 29072" d="M800.092,834.96H757.239v-2.143h42.853Zm-42.086-.639h41.319v-.864H758.006Z" transform="translate(-757.239 -832.817)" fill="#ebebeb"/>
          </g>
          <g id="Group_19210" data-name="Group 19210" transform="translate(0 45.352)">
            <rect id="Rectangle_6754" data-name="Rectangle 6754" width="42.086" height="1.503" transform="translate(0.384 0.319)" fill="#ebebeb"/>
            <path id="Path_29073" data-name="Path 29073" d="M800.092,911.29H757.239v-2.143h42.853Zm-42.086-.639h41.319v-.864H758.006Z" transform="translate(-757.239 -909.147)" fill="#ebebeb"/>
          </g>
          <g id="Group_19215" data-name="Group 19215" transform="translate(0 0.501)">
            <g id="Group_19211" data-name="Group 19211" transform="translate(0 68.028)">
              <rect id="Rectangle_6755" data-name="Rectangle 6755" width="42.086" height="1.503" transform="translate(0.384 0.32)" fill="#ebebeb"/>
              <path id="Path_29074" data-name="Path 29074" d="M800.092,989.3H757.239v-2.143h42.853Zm-42.086-.639h41.319V987.8H758.006Z" transform="translate(-757.239 -987.162)" fill="#ebebeb"/>
            </g>
            <g id="Group_19212" data-name="Group 19212" transform="translate(0 89.731)">
              <rect id="Rectangle_6756" data-name="Rectangle 6756" width="42.086" height="1.503" transform="translate(0.384 0.32)" fill="#ebebeb"/>
              <path id="Path_29075" data-name="Path 29075" d="M800.092,1062.36H757.239v-2.143h42.853Zm-42.086-.639h41.319v-.864H758.006Z" transform="translate(-757.239 -1060.217)" fill="#ebebeb"/>
            </g>
            <g id="Group_19213" data-name="Group 19213">
              <rect id="Rectangle_6757" data-name="Rectangle 6757" width="2.255" height="109.084" transform="translate(0.384 0.32)" fill="#ebebeb"/>
              <path id="Path_29076" data-name="Path 29076" d="M760.261,867.9h-3.022V758.175h3.022Zm-2.255-.639h1.487V758.814h-1.487Z" transform="translate(-757.239 -758.175)" fill="#ebebeb"/>
            </g>
            <g id="Group_19214" data-name="Group 19214" transform="translate(39.832)">
              <rect id="Rectangle_6758" data-name="Rectangle 6758" width="2.255" height="109.084" transform="translate(0.383 0.32)" fill="#ebebeb"/>
              <path id="Path_29077" data-name="Path 29077" d="M894.338,867.9h-3.022V758.175h3.022Zm-2.255-.639h1.488V758.814h-1.488Z" transform="translate(-891.316 -758.175)" fill="#ebebeb"/>
            </g>
          </g>
        </g>
        <g id="Group_19227" data-name="Group 19227" transform="translate(7.544 24.527)">
          <g id="Group_19218" data-name="Group 19218">
            <g id="Group_19217" data-name="Group 19217">
              <rect id="Rectangle_6759" data-name="Rectangle 6759" width="4.409" height="17.331" transform="translate(0.383 0.32)" fill="#ebebeb"/>
              <path id="Path_29078" data-name="Path 29078" d="M787.809,792.45h-5.176V774.48h5.176Zm-4.409-.639h3.642V775.119H783.4Z" transform="translate(-782.633 -774.48)" fill="#ebebeb"/>
            </g>
            <path id="Path_29079" data-name="Path 29079" d="M789.359,786.045a1.477,1.477,0,1,1-1.453-1.211A1.349,1.349,0,0,1,789.359,786.045Z" transform="translate(-785.318 -781.758)" fill="#ebebeb"/>
          </g>
          <g id="Group_19220" data-name="Group 19220" transform="translate(5.182)">
            <g id="Group_19219" data-name="Group 19219">
              <rect id="Rectangle_6760" data-name="Rectangle 6760" width="4.409" height="17.331" transform="translate(0.384 0.32)" fill="#ebebeb"/>
              <path id="Path_29080" data-name="Path 29080" d="M805.252,792.45h-5.176V774.48h5.176Zm-4.409-.639h3.642V775.119h-3.642Z" transform="translate(-800.076 -774.48)" fill="#ebebeb"/>
            </g>
            <path id="Path_29081" data-name="Path 29081" d="M806.8,786.045a1.477,1.477,0,1,1-1.453-1.211A1.349,1.349,0,0,1,806.8,786.045Z" transform="translate(-802.762 -781.758)" fill="#ebebeb"/>
          </g>
          <g id="Group_19222" data-name="Group 19222" transform="translate(10.365)">
            <g id="Group_19221" data-name="Group 19221">
              <rect id="Rectangle_6761" data-name="Rectangle 6761" width="4.409" height="17.331" transform="translate(0.384 0.32)" fill="#ebebeb"/>
              <path id="Path_29082" data-name="Path 29082" d="M822.7,792.45h-5.176V774.48H822.7Zm-4.409-.639h3.642V775.119h-3.642Z" transform="translate(-817.521 -774.48)" fill="#ebebeb"/>
            </g>
            <path id="Path_29083" data-name="Path 29083" d="M824.248,786.045a1.477,1.477,0,1,1-1.453-1.211A1.349,1.349,0,0,1,824.248,786.045Z" transform="translate(-820.207 -781.758)" fill="#ebebeb"/>
          </g>
          <g id="Group_19224" data-name="Group 19224" transform="translate(15.547)">
            <g id="Group_19223" data-name="Group 19223">
              <rect id="Rectangle_6762" data-name="Rectangle 6762" width="4.409" height="17.331" transform="translate(0.384 0.32)" fill="#ebebeb"/>
              <path id="Path_29084" data-name="Path 29084" d="M840.141,792.45h-5.176V774.48h5.176Zm-4.409-.639h3.642V775.119h-3.642Z" transform="translate(-834.965 -774.48)" fill="#ebebeb"/>
            </g>
            <path id="Path_29085" data-name="Path 29085" d="M841.692,786.045a1.477,1.477,0,1,1-1.453-1.211A1.349,1.349,0,0,1,841.692,786.045Z" transform="translate(-837.651 -781.758)" fill="#ebebeb"/>
          </g>
          <g id="Group_19226" data-name="Group 19226" transform="translate(20.729)">
            <g id="Group_19225" data-name="Group 19225">
              <rect id="Rectangle_6763" data-name="Rectangle 6763" width="4.409" height="17.331" transform="translate(0.383 0.32)" fill="#ebebeb"/>
              <path id="Path_29086" data-name="Path 29086" d="M857.586,792.45H852.41V774.48h5.176Zm-4.409-.639h3.642V775.119h-3.642Z" transform="translate(-852.41 -774.48)" fill="#ebebeb"/>
            </g>
            <path id="Path_29087" data-name="Path 29087" d="M859.137,786.045a1.477,1.477,0,1,1-1.453-1.211A1.349,1.349,0,0,1,859.137,786.045Z" transform="translate(-855.096 -781.758)" fill="#ebebeb"/>
          </g>
        </g>
        <path id="Path_29088" data-name="Path 29088" d="M783.192,943.659a7.183,7.183,0,0,1,.686-3.184h-5.285a7.183,7.183,0,0,1,.686,3.184c0,1.927-2.316,5.484-2.316,7.856s2.455,3.15,4.272,3.15,4.272-.778,4.272-3.15S783.192,945.586,783.192,943.659Z" transform="translate(-771.104 -866.634)" fill="#ebebeb"/>
        <g id="Group_19229" data-name="Group 19229" transform="translate(22.432 49.302)">
          <g id="Group_19228" data-name="Group 19228" transform="translate(0.655)">
            <path id="Path_29089" data-name="Path 29089" d="M853.9,866.484c1.425-2.788-1.743-2.736-1.5-3.468.453-1.373,2.161.119,2.854-.573s-1.71-2.847-.452-3.594.817,1.78,1.9,1.6.44-2.849,1.722-2.551c.964.224-.182,1.893-.075,2.672s2.094-.357,2.128.756-2.37.625-2.653,1.471,2.586,1.021,1.58,1.737-2.9-.141-3.4.6S853.3,867.668,853.9,866.484Z" transform="translate(-847.206 -857.876)" fill="#ebebeb"/>
            <path id="Path_29090" data-name="Path 29090" d="M840.767,874.116c-1.34-2.817-3.548-.923-3.995-1.585-.837-1.242,1.637-1.183,1.545-2.08s-3.618-1.021-3.354-2.29,2.083.786,2.7.021-2.092-2.283-.929-2.823c.874-.406,1.469,1.452,2.2,1.944s1.187-1.481,2.151-.71-1.157,1.834-.644,2.6,2.7-.791,2.588.308-2.183,1.6-1.909,2.423S841.336,875.313,840.767,874.116Z" transform="translate(-834.95 -863.095)" fill="#ebebeb"/>
          </g>
          <path id="Path_29091" data-name="Path 29091" d="M842.629,881.827h-7.315s-2.568,1.837-2.568,4.009,1.6,4.427,6.225,4.427,6.225-2.255,6.225-4.427S842.629,881.827,842.629,881.827Z" transform="translate(-832.746 -874.712)" fill="#ebebeb"/>
        </g>
        <g id="Group_19230" data-name="Group 19230" transform="translate(24.226 78.133)">
          <rect id="Rectangle_6764" data-name="Rectangle 6764" width="6.751" height="7.642" transform="translate(2.089 2.255)" fill="#ebebeb"/>
          <ellipse id="Ellipse_418" data-name="Ellipse 418" cx="5.328" cy="2.255" rx="5.328" ry="2.255" fill="#ebebeb"/>
        </g>
        <g id="Group_19231" data-name="Group 19231" transform="translate(19.524 12.163)">
          <rect id="Rectangle_6765" data-name="Rectangle 6765" width="5.006" height="5.666" transform="translate(1.549 1.672)" fill="#ebebeb"/>
          <path id="Path_29092" data-name="Path 29092" d="M830.86,734.535c0,.923-1.769,1.672-3.951,1.672s-3.95-.749-3.95-1.672,1.769-1.672,3.95-1.672S830.86,733.612,830.86,734.535Z" transform="translate(-822.959 -732.863)" fill="#ebebeb"/>
        </g>
        <g id="Group_19233" data-name="Group 19233" transform="translate(2.788)">
          <g id="Group_19232" data-name="Group 19232">
            <path id="Path_29093" data-name="Path 29093" d="M795.838,711.282s-1.732-5.011,5.934-10.649c0,0-6.563,6.013-4.409,10.649Z" transform="translate(-787.041 -698.045)" fill="#ebebeb"/>
            <path id="Path_29094" data-name="Path 29094" d="M792.725,706.3s-3.971-5.582,3.14-14.375c0,0-5.642,8.957-1.3,13.976Z" transform="translate(-784.194 -691.921)" fill="#ebebeb"/>
            <path id="Path_29095" data-name="Path 29095" d="M776.8,711.282s1.732-5.011-5.934-10.649c0,0,6.563,6.013,4.409,10.649Z" transform="translate(-769.61 -698.045)" fill="#ebebeb"/>
            <path id="Path_29096" data-name="Path 29096" d="M785.415,708.224s3.19-4.486-2.525-11.551c0,0,4.535,7.2,1.05,11.231Z" transform="translate(-778.058 -695.261)" fill="#ebebeb"/>
            <path id="Path_29097" data-name="Path 29097" d="M795.017,719.23s-1.5-5.063,6.426-10.449c0,0-6.839,5.8-4.9,10.5Z" transform="translate(-786.503 -703.772)" fill="#ebebeb"/>
            <path id="Path_29098" data-name="Path 29098" d="M773.051,717.162s1.5-5.064-6.426-10.449c0,0,6.839,5.8,4.9,10.5Z" transform="translate(-766.625 -702.319)" fill="#ebebeb"/>
          </g>
          <path id="Path_29099" data-name="Path 29099" d="M779.082,730.574H773.9l2.378,8.018h5.608l2.378-8.018Z" transform="translate(-771.738 -719.091)" fill="#ebebeb"/>
        </g>
        <g id="Group_19243" data-name="Group 19243" transform="translate(4.022 58.588)">
          <g id="Group_19238" data-name="Group 19238" transform="translate(0 0)">
            <g id="Group_19234" data-name="Group 19234" transform="translate(0.384 4.242)">
              <rect id="Rectangle_6766" data-name="Rectangle 6766" width="2.117" height="15.862" transform="translate(0 2.117) rotate(-90)" fill="#ebebeb"/>
            </g>
            <g id="Group_19236" data-name="Group 19236" transform="translate(0 1.797)">
              <g id="Group_19235" data-name="Group 19235">
                <rect id="Rectangle_6767" data-name="Rectangle 6767" width="2.117" height="15.862" transform="translate(0.384 2.437) rotate(-90)" fill="#ebebeb"/>
                <path id="Path_29100" data-name="Path 29100" d="M787.406,897.941h-16.63v-2.756h16.63Zm-15.863-.639h15.1v-1.478h-15.1Z" transform="translate(-770.776 -895.185)" fill="#ebebeb"/>
              </g>
            </g>
            <g id="Group_19237" data-name="Group 19237" transform="translate(0.384)">
              <rect id="Rectangle_6768" data-name="Rectangle 6768" width="2.117" height="15.862" transform="translate(0 2.117) rotate(-90)" fill="#ebebeb"/>
            </g>
          </g>
          <g id="Group_19239" data-name="Group 19239" transform="translate(9.726 0)">
            <rect id="Rectangle_6769" data-name="Rectangle 6769" width="0.114" height="2.117" fill="#ebebeb"/>
          </g>
          <g id="Group_19240" data-name="Group 19240" transform="translate(11.003 0)">
            <rect id="Rectangle_6770" data-name="Rectangle 6770" width="0.114" height="2.117" fill="#ebebeb"/>
          </g>
          <g id="Group_19241" data-name="Group 19241" transform="translate(12.281 0)">
            <rect id="Rectangle_6771" data-name="Rectangle 6771" width="0.114" height="2.117" fill="#ebebeb"/>
          </g>
          <g id="Group_19242" data-name="Group 19242" transform="translate(13.559 0)">
            <rect id="Rectangle_6772" data-name="Rectangle 6772" width="0.114" height="2.117" fill="#ebebeb"/>
          </g>
          <rect id="Rectangle_6773" data-name="Rectangle 6773" width="7.465" height="0.349" transform="translate(8.004 4.603)" fill="#ebebeb"/>
          <rect id="Rectangle_6774" data-name="Rectangle 6774" width="7.465" height="0.349" transform="translate(8.004 5.126)" fill="#ebebeb"/>
          <rect id="Rectangle_6775" data-name="Rectangle 6775" width="7.465" height="0.349" transform="translate(8.004 5.649)" fill="#ebebeb"/>
        </g>
      </g>
      <g id="Group_19281" data-name="Group 19281" transform="translate(474.97 148.998)">
        <g id="Group_19253" data-name="Group 19253" transform="translate(0 19.181)">
          <g id="Group_19245" data-name="Group 19245">
            <rect id="Rectangle_6776" data-name="Rectangle 6776" width="42.086" height="1.503" transform="translate(0.384 0.32)" fill="#ebebeb"/>
            <path id="Path_29101" data-name="Path 29101" d="M2068.689,751.988h-42.853v-2.143h42.853Zm-42.086-.639h41.319v-.864H2026.6Z" transform="translate(-2025.836 -749.845)" fill="#ebebeb"/>
          </g>
          <g id="Group_19246" data-name="Group 19246" transform="translate(0 22.676)">
            <rect id="Rectangle_6777" data-name="Rectangle 6777" width="42.086" height="1.503" transform="translate(0.384 0.32)" fill="#ebebeb"/>
            <path id="Path_29102" data-name="Path 29102" d="M2068.689,828.318h-42.853v-2.143h42.853Zm-42.086-.639h41.319v-.864H2026.6Z" transform="translate(-2025.836 -826.175)" fill="#ebebeb"/>
          </g>
          <g id="Group_19247" data-name="Group 19247" transform="translate(0 45.352)">
            <rect id="Rectangle_6778" data-name="Rectangle 6778" width="42.086" height="1.503" transform="translate(0.384 0.319)" fill="#ebebeb"/>
            <path id="Path_29103" data-name="Path 29103" d="M2068.689,904.648h-42.853v-2.143h42.853Zm-42.086-.639h41.319v-.864H2026.6Z" transform="translate(-2025.836 -902.505)" fill="#ebebeb"/>
          </g>
          <g id="Group_19252" data-name="Group 19252" transform="translate(0 0.501)">
            <g id="Group_19248" data-name="Group 19248" transform="translate(0 68.028)">
              <rect id="Rectangle_6779" data-name="Rectangle 6779" width="42.086" height="1.503" transform="translate(0.384 0.32)" fill="#ebebeb"/>
              <path id="Path_29104" data-name="Path 29104" d="M2068.689,982.662h-42.853V980.52h42.853Zm-42.086-.639h41.319v-.864H2026.6Z" transform="translate(-2025.836 -980.52)" fill="#ebebeb"/>
            </g>
            <g id="Group_19249" data-name="Group 19249" transform="translate(0 89.731)">
              <rect id="Rectangle_6780" data-name="Rectangle 6780" width="42.086" height="1.503" transform="translate(0.384 0.32)" fill="#ebebeb"/>
              <path id="Path_29105" data-name="Path 29105" d="M2068.689,1055.718h-42.853v-2.143h42.853Zm-42.086-.639h41.319v-.864H2026.6Z" transform="translate(-2025.836 -1053.575)" fill="#ebebeb"/>
            </g>
            <g id="Group_19250" data-name="Group 19250">
              <rect id="Rectangle_6781" data-name="Rectangle 6781" width="2.255" height="109.084" transform="translate(0.384 0.319)" fill="#ebebeb"/>
              <path id="Path_29106" data-name="Path 29106" d="M2028.858,861.256h-3.022V751.533h3.022Zm-2.255-.639h1.487V752.172H2026.6Z" transform="translate(-2025.836 -751.533)" fill="#ebebeb"/>
            </g>
            <g id="Group_19251" data-name="Group 19251" transform="translate(39.832)">
              <rect id="Rectangle_6782" data-name="Rectangle 6782" width="2.255" height="109.084" transform="translate(0.383 0.319)" fill="#ebebeb"/>
              <path id="Path_29107" data-name="Path 29107" d="M2162.935,861.256h-3.021V751.533h3.021Zm-2.254-.639h1.487V752.172h-1.487Z" transform="translate(-2159.913 -751.533)" fill="#ebebeb"/>
            </g>
          </g>
        </g>
        <g id="Group_19264" data-name="Group 19264" transform="translate(7.544 24.527)">
          <g id="Group_19255" data-name="Group 19255">
            <g id="Group_19254" data-name="Group 19254">
              <rect id="Rectangle_6783" data-name="Rectangle 6783" width="4.409" height="17.331" transform="translate(0.384 0.32)" fill="#ebebeb"/>
              <path id="Path_29108" data-name="Path 29108" d="M2056.405,785.808h-5.176v-17.97h5.176Zm-4.409-.639h3.642V768.477H2052Z" transform="translate(-2051.229 -767.838)" fill="#ebebeb"/>
            </g>
            <path id="Path_29109" data-name="Path 29109" d="M2057.956,779.4a1.477,1.477,0,1,1-1.453-1.211A1.348,1.348,0,0,1,2057.956,779.4Z" transform="translate(-2053.915 -775.116)" fill="#ebebeb"/>
          </g>
          <g id="Group_19257" data-name="Group 19257" transform="translate(5.182)">
            <g id="Group_19256" data-name="Group 19256">
              <rect id="Rectangle_6784" data-name="Rectangle 6784" width="4.409" height="17.331" transform="translate(0.384 0.32)" fill="#ebebeb"/>
              <path id="Path_29110" data-name="Path 29110" d="M2073.849,785.808h-5.176v-17.97h5.176Zm-4.409-.639h3.642V768.477h-3.642Z" transform="translate(-2068.673 -767.838)" fill="#ebebeb"/>
            </g>
            <path id="Path_29111" data-name="Path 29111" d="M2075.4,779.4a1.477,1.477,0,1,1-1.453-1.211A1.349,1.349,0,0,1,2075.4,779.4Z" transform="translate(-2071.359 -775.116)" fill="#ebebeb"/>
          </g>
          <g id="Group_19259" data-name="Group 19259" transform="translate(10.365)">
            <g id="Group_19258" data-name="Group 19258">
              <rect id="Rectangle_6785" data-name="Rectangle 6785" width="4.409" height="17.331" transform="translate(0.384 0.32)" fill="#ebebeb"/>
              <path id="Path_29112" data-name="Path 29112" d="M2091.294,785.808h-5.176v-17.97h5.176Zm-4.409-.639h3.641V768.477h-3.641Z" transform="translate(-2086.118 -767.838)" fill="#ebebeb"/>
            </g>
            <path id="Path_29113" data-name="Path 29113" d="M2092.845,779.4a1.477,1.477,0,1,1-1.453-1.211A1.349,1.349,0,0,1,2092.845,779.4Z" transform="translate(-2088.804 -775.116)" fill="#ebebeb"/>
          </g>
          <g id="Group_19261" data-name="Group 19261" transform="translate(15.547)">
            <g id="Group_19260" data-name="Group 19260">
              <rect id="Rectangle_6786" data-name="Rectangle 6786" width="4.409" height="17.331" transform="translate(0.384 0.32)" fill="#ebebeb"/>
              <path id="Path_29114" data-name="Path 29114" d="M2108.738,785.808h-5.176v-17.97h5.176Zm-4.409-.639h3.642V768.477h-3.642Z" transform="translate(-2103.562 -767.838)" fill="#ebebeb"/>
            </g>
            <path id="Path_29115" data-name="Path 29115" d="M2110.289,779.4a1.477,1.477,0,1,1-1.453-1.211A1.349,1.349,0,0,1,2110.289,779.4Z" transform="translate(-2106.248 -775.116)" fill="#ebebeb"/>
          </g>
          <g id="Group_19263" data-name="Group 19263" transform="translate(20.73)">
            <g id="Group_19262" data-name="Group 19262">
              <rect id="Rectangle_6787" data-name="Rectangle 6787" width="4.409" height="17.331" transform="translate(0.383 0.32)" fill="#ebebeb"/>
              <path id="Path_29116" data-name="Path 29116" d="M2126.183,785.808h-5.176v-17.97h5.176Zm-4.409-.639h3.642V768.477h-3.642Z" transform="translate(-2121.007 -767.838)" fill="#ebebeb"/>
            </g>
            <path id="Path_29117" data-name="Path 29117" d="M2127.733,779.4a1.477,1.477,0,1,1-1.453-1.211A1.349,1.349,0,0,1,2127.733,779.4Z" transform="translate(-2123.692 -775.116)" fill="#ebebeb"/>
          </g>
        </g>
        <path id="Path_29118" data-name="Path 29118" d="M2051.789,937.016a7.186,7.186,0,0,1,.686-3.184h-5.285a7.186,7.186,0,0,1,.686,3.184c0,1.927-2.316,5.484-2.316,7.856s2.455,3.15,4.272,3.15,4.272-.778,4.272-3.15S2051.789,938.943,2051.789,937.016Z" transform="translate(-2039.701 -859.992)" fill="#ebebeb"/>
        <g id="Group_19266" data-name="Group 19266" transform="translate(22.432 49.302)">
          <g id="Group_19265" data-name="Group 19265" transform="translate(0.655)">
            <path id="Path_29119" data-name="Path 29119" d="M2122.5,859.842c1.425-2.788-1.743-2.736-1.5-3.468.453-1.374,2.161.119,2.854-.572s-1.71-2.847-.452-3.594.817,1.78,1.9,1.6.44-2.849,1.722-2.551c.964.224-.181,1.893-.075,2.673s2.094-.357,2.128.756-2.37.625-2.654,1.471,2.586,1.021,1.58,1.737-2.9-.141-3.4.6S2121.893,861.026,2122.5,859.842Z" transform="translate(-2115.803 -851.233)" fill="#ebebeb"/>
            <path id="Path_29120" data-name="Path 29120" d="M2109.364,867.474c-1.34-2.817-3.548-.923-3.995-1.585-.837-1.242,1.637-1.182,1.545-2.08s-3.618-1.021-3.354-2.29,2.083.786,2.7.021-2.092-2.283-.929-2.823c.875-.406,1.469,1.452,2.2,1.943s1.187-1.481,2.151-.71-1.157,1.834-.644,2.6,2.7-.791,2.588.308-2.182,1.6-1.909,2.423S2109.933,868.67,2109.364,867.474Z" transform="translate(-2103.547 -856.453)" fill="#ebebeb"/>
          </g>
          <path id="Path_29121" data-name="Path 29121" d="M2111.226,875.185h-7.315s-2.568,1.837-2.568,4.009,1.6,4.427,6.225,4.427,6.225-2.255,6.225-4.427S2111.226,875.185,2111.226,875.185Z" transform="translate(-2101.343 -868.069)" fill="#ebebeb"/>
        </g>
        <g id="Group_19267" data-name="Group 19267" transform="translate(24.226 78.133)">
          <rect id="Rectangle_6788" data-name="Rectangle 6788" width="6.751" height="7.642" transform="translate(2.089 2.255)" fill="#ebebeb"/>
          <ellipse id="Ellipse_419" data-name="Ellipse 419" cx="5.328" cy="2.255" rx="5.328" ry="2.255" fill="#ebebeb"/>
        </g>
        <g id="Group_19268" data-name="Group 19268" transform="translate(19.524 12.163)">
          <rect id="Rectangle_6789" data-name="Rectangle 6789" width="5.006" height="5.666" transform="translate(1.549 1.672)" fill="#ebebeb"/>
          <path id="Path_29122" data-name="Path 29122" d="M2099.457,727.892c0,.923-1.769,1.672-3.951,1.672s-3.95-.749-3.95-1.672,1.769-1.672,3.95-1.672S2099.457,726.969,2099.457,727.892Z" transform="translate(-2091.556 -726.22)" fill="#ebebeb"/>
        </g>
        <g id="Group_19270" data-name="Group 19270" transform="translate(2.788)">
          <g id="Group_19269" data-name="Group 19269">
            <path id="Path_29123" data-name="Path 29123" d="M2064.434,704.64s-1.731-5.011,5.934-10.649c0,0-6.563,6.013-4.409,10.649Z" transform="translate(-2055.638 -691.403)" fill="#ebebeb"/>
            <path id="Path_29124" data-name="Path 29124" d="M2061.321,699.654s-3.97-5.582,3.14-14.375c0,0-5.642,8.957-1.3,13.976Z" transform="translate(-2052.791 -685.279)" fill="#ebebeb"/>
            <path id="Path_29125" data-name="Path 29125" d="M2045.4,704.64s1.732-5.011-5.934-10.649c0,0,6.563,6.013,4.409,10.649Z" transform="translate(-2038.207 -691.403)" fill="#ebebeb"/>
            <path id="Path_29126" data-name="Path 29126" d="M2054.013,701.582s3.19-4.486-2.526-11.551c0,0,4.535,7.2,1.05,11.231Z" transform="translate(-2046.655 -688.619)" fill="#ebebeb"/>
            <path id="Path_29127" data-name="Path 29127" d="M2063.613,712.588s-1.5-5.063,6.426-10.449c0,0-6.839,5.8-4.9,10.5Z" transform="translate(-2055.1 -697.13)" fill="#ebebeb"/>
            <path id="Path_29128" data-name="Path 29128" d="M2041.648,710.52s1.5-5.064-6.426-10.449c0,0,6.839,5.8,4.9,10.5Z" transform="translate(-2035.222 -695.677)" fill="#ebebeb"/>
          </g>
          <path id="Path_29129" data-name="Path 29129" d="M2047.678,723.932H2042.5l2.378,8.018h5.608l2.378-8.018Z" transform="translate(-2040.335 -712.449)" fill="#ebebeb"/>
        </g>
        <g id="Group_19280" data-name="Group 19280" transform="translate(4.022 58.588)">
          <g id="Group_19275" data-name="Group 19275" transform="translate(0 0)">
            <g id="Group_19271" data-name="Group 19271" transform="translate(0.384 4.242)">
              <rect id="Rectangle_6790" data-name="Rectangle 6790" width="2.117" height="15.862" transform="translate(0 2.117) rotate(-90)" fill="#ebebeb"/>
            </g>
            <g id="Group_19273" data-name="Group 19273" transform="translate(0 1.797)">
              <g id="Group_19272" data-name="Group 19272">
                <rect id="Rectangle_6791" data-name="Rectangle 6791" width="2.117" height="15.862" transform="translate(0.384 2.437) rotate(-90)" fill="#ebebeb"/>
                <path id="Path_29130" data-name="Path 29130" d="M2056,891.3h-16.63v-2.756H2056Zm-15.863-.639h15.1v-1.478h-15.1Z" transform="translate(-2039.373 -888.543)" fill="#ebebeb"/>
              </g>
            </g>
            <g id="Group_19274" data-name="Group 19274" transform="translate(0.384)">
              <rect id="Rectangle_6792" data-name="Rectangle 6792" width="2.117" height="15.862" transform="translate(0 2.117) rotate(-90)" fill="#ebebeb"/>
            </g>
          </g>
          <g id="Group_19276" data-name="Group 19276" transform="translate(9.726 0)">
            <rect id="Rectangle_6793" data-name="Rectangle 6793" width="0.114" height="2.117" fill="#ebebeb"/>
          </g>
          <g id="Group_19277" data-name="Group 19277" transform="translate(11.003 0)">
            <rect id="Rectangle_6794" data-name="Rectangle 6794" width="0.114" height="2.117" fill="#ebebeb"/>
          </g>
          <g id="Group_19278" data-name="Group 19278" transform="translate(12.281 0)">
            <rect id="Rectangle_6795" data-name="Rectangle 6795" width="0.114" height="2.117" fill="#ebebeb"/>
          </g>
          <g id="Group_19279" data-name="Group 19279" transform="translate(13.559 0)">
            <rect id="Rectangle_6796" data-name="Rectangle 6796" width="0.114" height="2.117" fill="#ebebeb"/>
          </g>
          <rect id="Rectangle_6797" data-name="Rectangle 6797" width="7.465" height="0.349" transform="translate(8.004 4.603)" fill="#ebebeb"/>
          <rect id="Rectangle_6798" data-name="Rectangle 6798" width="7.465" height="0.349" transform="translate(8.004 5.126)" fill="#ebebeb"/>
          <rect id="Rectangle_6799" data-name="Rectangle 6799" width="7.465" height="0.349" transform="translate(8.004 5.649)" fill="#ebebeb"/>
        </g>
      </g>
      <g id="Group_19289" data-name="Group 19289" transform="translate(314.193 213.805)">
        <path id="Path_29131" data-name="Path 29131" d="M1664.311,1107.769H1564.2c-1.911,0-3.289-1.557-2.76-3.118h0a2.848,2.848,0,0,1,2.76-1.764h100.11a2.848,2.848,0,0,1,2.76,1.764h0C1667.6,1106.212,1666.222,1107.769,1664.311,1107.769Z" transform="translate(-1559.272 -1040.008)" fill="#ebebeb" opacity="0.32"/>
        <g id="Group_19284" data-name="Group 19284" transform="translate(0 21.633)">
          <rect id="Rectangle_6800" data-name="Rectangle 6800" width="1.936" height="41.016" transform="translate(1.155 0.229)" fill="#ebebeb"/>
          <rect id="Rectangle_6801" data-name="Rectangle 6801" width="1.936" height="41.016" transform="translate(106.332 0.229)" fill="#ebebeb"/>
          <g id="Group_19282" data-name="Group 19282">
            <path id="Path_29132" data-name="Path 29132" d="M1664.452,968.854H1555.506l.829-4.032h107.1Z" transform="translate(-1555.18 -964.592)" fill="#ebebeb"/>
            <path id="Path_29133" data-name="Path 29133" d="M1664.019,968.54h-109.61l.923-4.49h107.557Zm-108.958-.458h108.281l-.9-3.574H1555.8Z" transform="translate(-1554.409 -964.05)" fill="#ebebeb"/>
          </g>
          <g id="Group_19283" data-name="Group 19283" transform="translate(0.051 4.032)">
            <path id="Path_29134" data-name="Path 29134" d="M1664.266,978.394h-108.76v42.1h1.8V981.157h105.349v39.334h1.8v-42.1Z" transform="translate(-1555.231 -978.165)" fill="#ebebeb"/>
            <path id="Path_29135" data-name="Path 29135" d="M1664.075,1020.179h-2.348V980.844h-104.8v39.335h-2.348V977.623h109.5Zm-1.8-.458h1.248V978.081h-108.4v41.639h1.249V980.386h105.9Z" transform="translate(-1554.58 -977.623)" fill="#ebebeb"/>
          </g>
        </g>
        <g id="Group_19288" data-name="Group 19288" transform="translate(74.671)">
          <path id="Path_29136" data-name="Path 29136" d="M1841.568,892.927V908a1.976,1.976,0,0,1-2.159,1.7h-31.493a1.976,1.976,0,0,1-2.159-1.7V892.927a1.979,1.979,0,0,1,2.159-1.7h31.493A1.979,1.979,0,0,1,1841.568,892.927Z" transform="translate(-1805.757 -891.231)" fill="#ebebeb"/>
          <path id="Path_29137" data-name="Path 29137" d="M1809.624,910.473a1.315,1.315,0,0,1-1.44-1.131V894.265a1.315,1.315,0,0,1,1.44-1.131h31.491a1.315,1.315,0,0,1,1.44,1.131v15.077a1.315,1.315,0,0,1-1.44,1.131Z" transform="translate(-1807.463 -892.569)" fill="#ebebeb"/>
          <g id="Group_19285" data-name="Group 19285" transform="translate(1.166 0.902)">
            <path id="Path_29138" data-name="Path 29138" d="M1811.327,911.246a.657.657,0,0,1-.72-.565V895.6a.657.657,0,0,1,.72-.565h31.491a.657.657,0,0,1,.72.565v15.077a.658.658,0,0,1-.72.565Z" transform="translate(-1810.332 -894.809)" fill="#ebebeb"/>
            <path id="Path_29139" data-name="Path 29139" d="M1842.167,910.932h-31.491a.913.913,0,0,1-.995-.794V895.061a.913.913,0,0,1,.995-.795h31.491a.913.913,0,0,1,.995.795v15.077A.913.913,0,0,1,1842.167,910.932Zm-31.491-16.208a.4.4,0,0,0-.445.336v15.077a.4.4,0,0,0,.445.336h31.491a.4.4,0,0,0,.445-.336V895.061a.4.4,0,0,0-.445-.336Z" transform="translate(-1809.681 -894.266)" fill="#ebebeb"/>
          </g>
          <path id="Path_29140" data-name="Path 29140" d="M1860.26,934.107h-8.445l.953-8.154h6.539Z" transform="translate(-1838.132 -915.638)" fill="#ebebeb"/>
          <g id="Group_19286" data-name="Group 19286" transform="translate(13.65 9.653)">
            <path id="Path_29141" data-name="Path 29141" d="M1860.622,937.747H1852.7l1.243-13.252h5.431Z" transform="translate(-1852.407 -924.266)" fill="#ebebeb"/>
            <path id="Path_29142" data-name="Path 29142" d="M1860.216,937.434H1851.7l1.286-13.71h5.94Zm-7.918-.458h7.323l-1.2-12.793H1853.5Z" transform="translate(-1851.704 -923.724)" fill="#ebebeb"/>
          </g>
          <g id="Group_19287" data-name="Group 19287" transform="translate(8.274 22.34)">
            <path id="Path_29143" data-name="Path 29143" d="M1853.247,969.225h-18.714a2.354,2.354,0,0,1,2.579-2.026h13.556a2.353,2.353,0,0,1,2.579,2.026Z" transform="translate(-1834.258 -966.97)" fill="#ebebeb"/>
            <path id="Path_29144" data-name="Path 29144" d="M1852.872,968.912h-19.264v-.229a2.612,2.612,0,0,1,2.854-2.255h13.556a2.612,2.612,0,0,1,2.854,2.255Zm-18.7-.458H1852.3a2.189,2.189,0,0,0-2.286-1.568h-13.556A2.189,2.189,0,0,0,1834.176,968.454Z" transform="translate(-1833.608 -966.428)" fill="#ebebeb"/>
          </g>
        </g>
      </g>
      <g id="Group_19297" data-name="Group 19297" transform="translate(163.627 214.023)">
        <path id="Path_29145" data-name="Path 29145" d="M1245.518,1108.395h-100.11c-1.911,0-3.289-1.557-2.76-3.118h0a2.847,2.847,0,0,1,2.76-1.764h100.11a2.847,2.847,0,0,1,2.76,1.764h0C1248.808,1106.837,1247.429,1108.395,1245.518,1108.395Z" transform="translate(-1140.479 -1040.633)" fill="#ebebeb" opacity="0.32"/>
        <g id="Group_19292" data-name="Group 19292" transform="translate(0 21.633)">
          <rect id="Rectangle_6802" data-name="Rectangle 6802" width="1.936" height="41.016" transform="translate(1.155 0.229)" fill="#ebebeb"/>
          <rect id="Rectangle_6803" data-name="Rectangle 6803" width="1.936" height="41.016" transform="translate(106.333 0.229)" fill="#ebebeb"/>
          <g id="Group_19290" data-name="Group 19290">
            <path id="Path_29146" data-name="Path 29146" d="M1245.659,969.479H1136.713l.829-4.032h107.1Z" transform="translate(-1136.387 -965.217)" fill="#ebebeb"/>
            <path id="Path_29147" data-name="Path 29147" d="M1245.226,969.165h-109.61l.923-4.49H1244.1Zm-108.958-.458h108.281l-.9-3.574H1137Z" transform="translate(-1135.616 -964.675)" fill="#ebebeb"/>
          </g>
          <g id="Group_19291" data-name="Group 19291" transform="translate(0.051 4.032)">
            <path id="Path_29148" data-name="Path 29148" d="M1245.473,979.019h-108.76v42.1h1.8V981.782H1243.86v39.334h1.8v-42.1Z" transform="translate(-1136.438 -978.79)" fill="#ebebeb"/>
            <path id="Path_29149" data-name="Path 29149" d="M1245.283,1020.8h-2.348V981.469h-104.8V1020.8h-2.348V978.247h109.5Zm-1.8-.458h1.248V978.705h-108.4v41.639h1.249V981.01h105.9Z" transform="translate(-1135.788 -978.247)" fill="#ebebeb"/>
          </g>
        </g>
        <g id="Group_19296" data-name="Group 19296" transform="translate(74.671)">
          <path id="Path_29150" data-name="Path 29150" d="M1422.775,893.552v15.077a1.976,1.976,0,0,1-2.159,1.7h-31.493a1.976,1.976,0,0,1-2.159-1.7V893.552a1.979,1.979,0,0,1,2.159-1.7h31.493A1.979,1.979,0,0,1,1422.775,893.552Z" transform="translate(-1386.964 -891.856)" fill="#ebebeb"/>
          <path id="Path_29151" data-name="Path 29151" d="M1390.831,911.1a1.315,1.315,0,0,1-1.44-1.131V894.89a1.315,1.315,0,0,1,1.44-1.131h31.491a1.315,1.315,0,0,1,1.44,1.131v15.077a1.315,1.315,0,0,1-1.44,1.131Z" transform="translate(-1388.67 -893.194)" fill="#ebebeb"/>
          <g id="Group_19293" data-name="Group 19293" transform="translate(1.166 0.902)">
            <path id="Path_29152" data-name="Path 29152" d="M1392.534,911.87a.658.658,0,0,1-.72-.565V896.228a.658.658,0,0,1,.72-.566h31.491a.658.658,0,0,1,.72.566V911.3a.658.658,0,0,1-.72.565Z" transform="translate(-1391.539 -895.433)" fill="#ebebeb"/>
            <path id="Path_29153" data-name="Path 29153" d="M1423.374,911.557h-31.491a.913.913,0,0,1-.995-.794V895.686a.913.913,0,0,1,.995-.795h31.491a.913.913,0,0,1,.995.795v15.077A.913.913,0,0,1,1423.374,911.557Zm-31.491-16.208a.4.4,0,0,0-.445.336v15.077c0,.185.2.336.445.336h31.491a.4.4,0,0,0,.445-.336V895.686a.4.4,0,0,0-.445-.336Z" transform="translate(-1390.888 -894.891)" fill="#ebebeb"/>
          </g>
          <path id="Path_29154" data-name="Path 29154" d="M1441.467,934.731h-8.445l.953-8.154h6.539Z" transform="translate(-1419.339 -916.263)" fill="#ebebeb"/>
          <g id="Group_19294" data-name="Group 19294" transform="translate(13.65 9.653)">
            <path id="Path_29155" data-name="Path 29155" d="M1441.829,938.372h-7.918l1.243-13.252h5.431Z" transform="translate(-1433.615 -924.891)" fill="#ebebeb"/>
            <path id="Path_29156" data-name="Path 29156" d="M1441.424,938.059h-8.512l1.286-13.71h5.94Zm-7.918-.458h7.323l-1.2-12.793h-4.923Z" transform="translate(-1432.912 -924.349)" fill="#ebebeb"/>
          </g>
          <g id="Group_19295" data-name="Group 19295" transform="translate(8.274 22.34)">
            <path id="Path_29157" data-name="Path 29157" d="M1434.455,969.85H1415.74a2.354,2.354,0,0,1,2.579-2.026h13.556a2.354,2.354,0,0,1,2.579,2.026Z" transform="translate(-1415.465 -967.595)" fill="#ebebeb"/>
            <path id="Path_29158" data-name="Path 29158" d="M1434.079,969.537h-19.264v-.229a2.611,2.611,0,0,1,2.854-2.255h13.556a2.611,2.611,0,0,1,2.854,2.255Zm-18.7-.458h18.127a2.189,2.189,0,0,0-2.286-1.568h-13.556A2.189,2.189,0,0,0,1415.383,969.079Z" transform="translate(-1414.815 -967.053)" fill="#ebebeb"/>
          </g>
        </g>
      </g>
    </g>
    <g id="Group_19300" data-name="Group 19300" transform="translate(718.126 449.205)">
      <g id="Group_19299" data-name="Group 19299" transform="translate(0 0)">
        <path id="Path_29159" data-name="Path 29159" d="M976.966,1075.218l1.871-.2-11.876-61.213-3.952.649-43.692,5.182,1.195,11.22.113-.012-.848,50.791,1.871-.2,5.4-51.275,34.676-3.692Z" transform="translate(-886.309 -951.432)" fill="#7b88ac"/>
        <path id="Path_29160" data-name="Path 29160" d="M864.378,861.039c-2.6-7.436-12.664-4.828-21.559-2.981-6.4,1.322-7.687,4.119-6.665,10.582l13.717,55.578c1,6.447,6.755,10.176,12.759,8.269s18.208-7.382,17.036-13.811Z" transform="translate(-835.841 -856.066)" fill="#7b88ac"/>
        <path id="Path_29161" data-name="Path 29161" d="M948.856,1098.506l1.537-.164-11.915-56.336,8.815-9.849-28.654,2.857-33.754,3.233,1.126,9.344-.623,58.018,1.245-.132,5.58-58.546L932,1042.7Z" transform="translate(-865.492 -962.527)" fill="#7b88ac"/>
        <path id="Path_29162" data-name="Path 29162" d="M951.666,1010.232a2.317,2.317,0,0,0-2.172-3.577l-34.831,3.565a29.689,29.689,0,0,0-9.076,2.718l-18.886,8.6c-.047.021-.094.044-.14.068-2.249,1.188-1.945,1.956.705,1.673l59.046-6.427a2.318,2.318,0,0,0,1.686-1.031Z" transform="translate(-865.596 -947.102)" fill="#7b88ac"/>
      </g>
    </g>
    <g id="Group_19313" data-name="Group 19313" transform="translate(705.631 420.064)">
      <g id="Group_19312" data-name="Group 19312" transform="translate(24.254 0)">
        <g id="Group_19311" data-name="Group 19311">
          <g id="Group_19310" data-name="Group 19310">
            <g id="Group_19307" data-name="Group 19307">
              <g id="Group_19306" data-name="Group 19306">
                <g id="Group_19302" data-name="Group 19302" transform="translate(0 1.953)">
                  <path id="Path_29163" data-name="Path 29163" d="M911.659,885.677c5.658-5.79-3.569-6.783-3.294-11.708s1.394-3.4,2-9.768-1.153-8.675-1.377-12.365,2.081-9.813-.157-14.428-3.482-3-5.428-6.666-3.591.436-6.623,2.168-6.786-7.064-12.091-3.53-4.615,10.385-6.132,14.276-6.837,5.588-7.492,12.5S874.2,861.4,872.6,866.2s-6.355,4.533-7.01,11.442c0,0-.465,6.925,7.234,6.371s5.392,3.629,13.692.748,5.685,4.573,11.506,1.639S906.605,890.848,911.659,885.677Z" transform="translate(-865.58 -828.533)" fill="#2d356b"/>
                </g>
                <g id="Group_19303" data-name="Group 19303" transform="translate(23.546 23.932)">
                  <path id="Path_29164" data-name="Path 29164" d="M937.9,884.116l7.11,4.467,1.276,15.375-5.713-2.066Z" transform="translate(-932.849 -884.116)" fill="#f7c371"/>
                  <path id="Path_29165" data-name="Path 29165" d="M952.067,1000.652c-4.569-2.993-15.177-9.61-26.94-1.418,3.518-10.332,6.713-20.49,6.826-28.989.211-15.755-13.179-34.26-2.1-41.382,11.764-7.562,25.733,27.361,25.733,27.361C943.823,962.84,947.077,981.811,952.067,1000.652Z" transform="translate(-925.127 -910.521)" fill="#ffe200"/>
                  <path id="Path_29166" data-name="Path 29166" d="M939.13,926.548l2.066-.243,9.237,8.69L947.7,937.3S941.5,930.984,939.13,926.548Z" transform="translate(-933.593 -909.623)" fill="#fff"/>
                  <path id="Path_29167" data-name="Path 29167" d="M957.855,937.308c.045-.031.085-.062.129-.094-2.438-4.864-7.765-12.312-12.909-11.834C949.758,929.558,957.855,937.308,957.855,937.308Z" transform="translate(-937.187 -909.051)" fill="#f7c371"/>
                </g>
                <g id="Group_19305" data-name="Group 19305" transform="translate(16.355)">
                  <g id="Group_19304" data-name="Group 19304">
                    <path id="Path_29168" data-name="Path 29168" d="M925.433,855.713c-3.791-1.041-11.426-2.255-15.1-7.98-4.781-7.443-3.567-12.047-1.973-17.649,3.038-10.678,21.252-5.678,20.113-2.532C926.957,831.73,939.174,859.484,925.433,855.713Z" transform="translate(-906.943 -823.594)" fill="#2d356b"/>
                    <path id="Path_29169" data-name="Path 29169" d="M949.959,864.333c1.382,0,3.855-7.143,4.593-12.622.243-1.806-1.7-2.019-1.58-8.181.072-3.618-1.6-8.626-7.657-12.219-5.72-3.392-6.144,7.835-6.634,10.428-1.4,7.388-3.282,12.028-1.388,15.6C940.993,864.324,948.465,863.977,949.959,864.333Z" transform="translate(-924.809 -827.877)" fill="#ffd8a3"/>
                    <path id="Path_29170" data-name="Path 29170" d="M969.893,891a.319.319,0,0,1,.288-.346.336.336,0,0,1,.276.367.319.319,0,0,1-.289.345A.334.334,0,0,1,969.893,891Z" transform="translate(-945.002 -864.136)" fill="#ffab00"/>
                    <path id="Path_29171" data-name="Path 29171" d="M967.879,865.925c.033-.972.6-1.732,1.268-1.7s1.184.849,1.151,1.82-.6,1.732-1.269,1.7S967.845,866.9,967.879,865.925Z" transform="translate(-943.783 -848.159)" fill="#2d356b"/>
                    <path id="Path_29172" data-name="Path 29172" d="M964.461,865.9c.935-1.345,2.27-2.686,4.813-1.8A9.292,9.292,0,0,0,964.461,865.9Z" transform="translate(-941.718 -847.914)" fill="#2d356b"/>
                    <path id="Path_29173" data-name="Path 29173" d="M974.495,901.322c.041-.225.735.573,1.064.6.931.079.665,1.266-.263,1.092C974.932,902.947,974.452,901.561,974.495,901.322Z" transform="translate(-947.782 -870.563)" fill="#f36973"/>
                    <path id="Path_29174" data-name="Path 29174" d="M972.439,891.094c-.63-.251,3.625-1.476,2.855-.033A6.689,6.689,0,0,1,972.439,891.094Z" transform="translate(-946.502 -863.965)" fill="#f36973"/>
                    <path id="Path_29175" data-name="Path 29175" d="M966.4,852.161a5.667,5.667,0,0,0-6.69,3.818C961.45,853.391,962.841,852.4,966.4,852.161Z" transform="translate(-938.843 -840.799)" fill="#2d356b"/>
                    <path id="Path_29176" data-name="Path 29176" d="M980.046,876.506l-2.139.655-.077-5.464,3.188,3.89Z" transform="translate(-949.8 -852.676)" fill="#ffd8a3"/>
                    <path id="Path_29177" data-name="Path 29177" d="M980.017,886.628l1.663-3.383-1.606-.057Z" transform="translate(-951.122 -859.623)" fill="#ffd8a3"/>
                    <path id="Path_29178" data-name="Path 29178" d="M973.4,896.358a40.334,40.334,0,0,0,1.055-4.743h-3.863S971.356,895.706,973.4,896.358Z" transform="translate(-945.422 -864.718)" fill="#ffab00"/>
                    <path id="Path_29179" data-name="Path 29179" d="M972.475,894.136h2.2c.128-.6.245-1.219.353-1.865h-3.158Z" transform="translate(-946.198 -865.115)" fill="#fff"/>
                    <path id="Path_29180" data-name="Path 29180" d="M929.275,873.289c.087-1.685.658-2.928-.62-2.991s-2.39,1.252-2.476,2.94.883,3.1,2.163,3.169S929.19,874.976,929.275,873.289Z" transform="translate(-918.569 -851.829)" fill="#f7c371"/>
                  </g>
                  <path id="Path_29181" data-name="Path 29181" d="M948.094,830.749c-4.058,6.132-11.168,15.1-9.457,23.834-3.6-9.3-1.992-21.711,4.179-26.82C943.466,828.7,948.991,828.416,948.094,830.749Z" transform="translate(-924.961 -826.115)" fill="#2d356b"/>
                </g>
              </g>
            </g>
            <g id="Group_19309" data-name="Group 19309" transform="translate(2.773 43.78)">
              <g id="Group_19308" data-name="Group 19308" transform="translate(22.825 56.278)">
                <path id="Path_29182" data-name="Path 29182" d="M949.4,1096.4c.246-.6-.779-1.15-2.019-1.6s-2.224-.629-2.473-.033.556,1.446,1.8,1.9S949.157,1096.995,949.4,1096.4Z" transform="translate(-939.115 -1087.368)" fill="#f7c371"/>
                <path id="Path_29183" data-name="Path 29183" d="M946.266,1099.827c.247-.6-.778-1.15-2.019-1.6s-2.224-.633-2.473-.035.557,1.445,1.8,1.9S946.018,1100.422,946.266,1099.827Z" transform="translate(-937.217 -1089.44)" fill="#f7c371"/>
                <path id="Path_29184" data-name="Path 29184" d="M953.767,1089.622c-.564-.341-1.661.959-2.739,2.54s-1.732,2.842-1.167,3.185,1.894-.663,2.974-2.245S954.331,1089.964,953.767,1089.622Z" transform="translate(-942.007 -1084.455)" fill="#ffd8a3"/>
                <path id="Path_29185" data-name="Path 29185" d="M931.967,1076.638c2.614,1.082,11.1,3.851,10.177,6.75-.824,2.593-5.5,4.531-11.826-4.639Z" transform="translate(-930.317 -1076.638)" fill="#ffd8a3"/>
              </g>
              <path id="Path_29186" data-name="Path 29186" d="M899.06,934.67c-5.854-4.488-26.306,34.646-26.468,36.209,0,0,3.071,4.685,4.542,3.566C880.94,971.551,901.674,936.674,899.06,934.67Z" transform="translate(-872.592 -934.312)" fill="#fff4ba"/>
              <path id="Path_29187" data-name="Path 29187" d="M896.648,1044.317c4.415-3.466-18.732-23.6-19.858-24.009,0,0-4.04,1.387-3.487,2.673C874.734,1026.31,894.677,1045.865,896.648,1044.317Z" transform="translate(-872.991 -986.304)" fill="#fff4ba"/>
              <path id="Path_29188" data-name="Path 29188" d="M922.929,1075.726l-1.523.911-6.25-2.552s2.3-2.133,3.068-2.266S922.929,1075.726,922.929,1075.726Z" transform="translate(-898.326 -1017.444)" fill="#eaeaea"/>
              <path id="Path_29189" data-name="Path 29189" d="M929.045,1069.937l1.027-1.461-2.157-6.4s-2.318,2.161-2.506,2.914S929.045,1069.937,929.045,1069.937Z" transform="translate(-904.521 -1011.554)" fill="#eaeaea"/>
            </g>
          </g>
        </g>
      </g>
      <g id="Group_19301" data-name="Group 19301" transform="translate(-9.91 43.731)">
        <rect id="Rectangle_6804" data-name="Rectangle 6804" width="68.328" height="39.508" rx="6.672" fill="#fff" stroke="#231f20" stroke-miterlimit="10" stroke-width="0.25"/>
        <text id="Akiko" transform="translate(18.861 23.402)" fill="#2d356b" font-size="12" font-family="TrebuchetMS-Bold, Trebuchet MS" font-weight="700"><tspan x="0" y="0">Akiko</tspan></text>
      </g>
    </g>
    <g id="Group_19317" data-name="Group 19317" transform="translate(700.105 475.164)">
      <g id="Group_19316" data-name="Group 19316" transform="translate(0 0)">
        <g id="Group_19314" data-name="Group 19314" transform="translate(0 39.635)">
          <rect id="Rectangle_6805" data-name="Rectangle 6805" width="191.175" height="5.738" fill="#40558d"/>
          <rect id="Rectangle_6806" data-name="Rectangle 6806" width="177.596" height="103.117" transform="translate(6.536 2.213)" fill="#40558d"/>
          <rect id="Rectangle_6807" data-name="Rectangle 6807" width="55.108" height="103.117" transform="translate(6.536 2.213)" fill="#7b87ab"/>
          <rect id="Rectangle_6808" data-name="Rectangle 6808" width="191.175" height="7.468" transform="translate(0 2.213)" fill="#2d356b"/>
        </g>
        <g id="Group_19315" data-name="Group 19315" transform="translate(59.083)">
          <path id="Path_29190" data-name="Path 29190" d="M1011.509,958.659h44.34a2.742,2.742,0,0,0,2.694-2.23l5.976-31.459a2.742,2.742,0,0,0-2.694-3.254h-44.34a2.742,2.742,0,0,0-2.694,2.23l-5.976,31.459A2.742,2.742,0,0,0,1011.509,958.659Z" transform="translate(-981.451 -921.716)" fill="#cfd0d8"/>
          <path id="Path_29191" data-name="Path 29191" d="M1014.791,924.738a1.486,1.486,0,1,1,2.188,1.024L1011,957.221a1.486,1.486,0,1,1-2.188-1.024Z" transform="translate(-981.451 -922.508)" fill="#ebebeb"/>
          <path id="Path_29192" data-name="Path 29192" d="M942.806,1018.265h68.157a3.12,3.12,0,0,0,3.12-3.12h-74.4A3.12,3.12,0,0,0,942.806,1018.265Z" transform="translate(-939.686 -978.202)" fill="#9898a4"/>
          <path id="Path_29193" data-name="Path 29193" d="M939.686,1015.145h28.691a3.351,3.351,0,0,1-3.541,3.12H943.227A3.351,3.351,0,0,1,939.686,1015.145Z" transform="translate(-939.686 -978.202)" fill="#cfd0d8"/>
          <ellipse id="Ellipse_420" data-name="Ellipse 420" cx="3.147" cy="3.147" rx="3.147" ry="3.147" transform="translate(52.091 20.175) rotate(-67.5)" fill="#fff4ba"/>
        </g>
      </g>
    </g>
    <g id="Group_19328" data-name="Group 19328" transform="translate(1038.009 364.218)">
      <g id="Group_19326" data-name="Group 19326" transform="translate(0)">
        <g id="Group_19325" data-name="Group 19325">
          <g id="Group_19318" data-name="Group 19318" transform="translate(0 128.217)">
            <path id="Path_29194" data-name="Path 29194" d="M1557.116,988.337s16.136,25.335,14.454,26.875c-3.186,2.918-9.708,39.994-17.792,94.964-.2,1.394-3.4-.189-3.4-.189C1556.852,1083.324,1557.116,988.337,1557.116,988.337Z" transform="translate(-1545.408 -986.407)" fill="#7b88ac"/>
            <path id="Path_29195" data-name="Path 29195" d="M1564.731,993.5s-5.564,90.248-12.6,117.138a9.982,9.982,0,0,1-1.749-.648c6.471-26.663,6.736-121.65,6.736-121.65Z" transform="translate(-1545.408 -986.407)" fill="#7b88ac"/>
            <path id="Path_29196" data-name="Path 29196" d="M1563,985.761s30.436-3.8,30-1.026c-2.674,17.231,5.37,51.859,4.128,125.427l-2.815.241c.439-48.415-8.1-76.958-17.082-92.094-4.646-7.825-9.362-8.662-12.885-7.576C1563.564,1000.975,1563,985.761,1563,985.761Z" transform="translate(-1552.751 -983.72)" fill="#9999a5"/>
            <rect id="Rectangle_6809" data-name="Rectangle 6809" width="8.582" height="1.355" transform="translate(13.57 4.811) rotate(-1.886)" fill="#cecfd7"/>
            <rect id="Rectangle_6810" data-name="Rectangle 6810" width="1.813" height="2.272" transform="translate(10.83 4.607) rotate(-1.886)" fill="#cecfd7"/>
            <path id="Path_29197" data-name="Path 29197" d="M1626.009,1286.042l8.809-.755s-1.041-3.047-2.771-2.742S1626.009,1286.042,1626.009,1286.042Z" transform="translate(-1589.411 -1157.573)" fill="#9898a4"/>
            <path id="Path_29198" data-name="Path 29198" d="M1538.489,1279.92l8.838-.292s-.876-2.977-2.62-2.769S1538.489,1279.92,1538.489,1279.92Z" transform="translate(-1538.489 -1154.271)" fill="#9898a4"/>
          </g>
          <g id="Group_19319" data-name="Group 19319" transform="translate(1.793 31.433)">
            <path id="Path_29199" data-name="Path 29199" d="M1580.3,793.2l1.238.364.575,3.046-2.726,1.256Z" transform="translate(-1564.077 -776.088)" fill="#eaeaea"/>
            <path id="Path_29200" data-name="Path 29200" d="M1584,757.089l11.249-4.817,1.409,18.453-16.17,5.6Z" transform="translate(-1564.717 -752.272)" fill="#f7c371"/>
            <path id="Path_29201" data-name="Path 29201" d="M1548.631,894.334l22,5.583,2.853,32.461-19.152,1.8Z" transform="translate(-1546.183 -834.928)" fill="#eaeaea"/>
            <path id="Path_29202" data-name="Path 29202" d="M1589.345,885.825c-13.828.338-30.135-3.97-38.019-19.443-4.265-8.374-4.949-22.506-5.9-36.495-1.271-18.7,18.329-44.3,35.235-39.615,23.5,6.517,9.877,37.636,7.568,45.781C1581.46,859.914,1588.531,880.631,1589.345,885.825Z" transform="translate(-1544.283 -774.054)" fill="#cfd0d8"/>
            <path id="Path_29203" data-name="Path 29203" d="M1592.282,903.1c-.119-6.155,1.749-25.169,12.166-46.723,2.02-4.181,3.932-16.461,5.816-26.73.7-3.834,7.561,3.129,9,12.382.89,5.739-2.854,13.519-3.738,16.637-6.767,23.861.3,44.578,1.118,49.772C1608.646,908.63,1599.827,907.267,1592.282,903.1Z" transform="translate(-1571.577 -796.665)" fill="#9999a5"/>
            <path id="Path_29204" data-name="Path 29204" d="M1547.14,847.643c.49-24.226,18.371-48.6,34.893-55.868,2.775-1.221.188-3.231-7.807-2.245C1567.073,790.442,1538.723,805.65,1547.14,847.643Z" transform="translate(-1544.416 -773.797)" fill="#7b87ab"/>
            <path id="Path_29205" data-name="Path 29205" d="M1546.908,832.157c2.117-20.415,9.383-31.327,26.807-42.26-6.975.889-34.471,11.225-28.028,50.677C1545.851,841.579,1546.542,835.686,1546.908,832.157Z" transform="translate(-1543.906 -774.164)" fill="#eaeaea"/>
            <path id="Path_29206" data-name="Path 29206" d="M1557.029,957.482c-.14-.846.219-1.612.8-1.709s1.173.51,1.314,1.357-.219,1.612-.8,1.709S1557.17,958.328,1557.029,957.482Z" transform="translate(-1551.051 -870.669)" fill="#9999a5"/>
            <path id="Path_29207" data-name="Path 29207" d="M1553.032,933.488c-.141-.845.219-1.611.8-1.709s1.173.51,1.314,1.357-.218,1.612-.8,1.709S1553.173,934.335,1553.032,933.488Z" transform="translate(-1548.725 -856.709)" fill="#9999a5"/>
            <path id="Path_29208" data-name="Path 29208" d="M1583.982,797.154l-4.111,1.565,1.312-4.57.776-.449Z" transform="translate(-1564.359 -776.377)" fill="#f46973"/>
            <path id="Path_29209" data-name="Path 29209" d="M1544.505,850.723l1.049-8.246s-4.485-25.486,13.623-38.9l-.246-.64C1544.06,814.458,1540.022,833.6,1544.505,850.723Z" transform="translate(-1542.776 -781.753)" fill="#f46973"/>
            <path id="Path_29210" data-name="Path 29210" d="M1581.57,786.422l16.205-4.875,2.179,3.212-15.308,6.781Z" transform="translate(-1565.348 -769.305)" fill="#fff"/>
          </g>
          <g id="Group_19320" data-name="Group 19320" transform="translate(32.298 48.993)">
            <path id="Path_29211" data-name="Path 29211" d="M1659.414,835.663c4.054-1.243-26.648-42.9-33.495-41.356,0,0-11.268,6.959-4.294,29.853C1621.625,824.16,1644.605,840.205,1659.414,835.663Z" transform="translate(-1617.833 -794.265)" fill="#cfd0d8"/>
            <path id="Path_29212" data-name="Path 29212" d="M1658.521,871.98c-14.463,8.078-34.624-9.375-34.624-9.375a9.711,9.711,0,0,1-.645-2.263C1639.577,872.881,1659.123,871.644,1658.521,871.98Z" transform="translate(-1620.105 -832.711)" fill="#9999a5"/>
            <path id="Path_29213" data-name="Path 29213" d="M1621.785,1001.155c-.4-.6.544-1.452,1.734-2.24s2.173-1.218,2.571-.617-.243,1.725-1.433,2.514S1622.183,1001.755,1621.785,1001.155Z" transform="translate(-1619.198 -912.814)" fill="#f7c371"/>
            <path id="Path_29214" data-name="Path 29214" d="M1625.637,1004.038c-.4-.6.542-1.451,1.732-2.24s2.174-1.218,2.573-.617-.244,1.727-1.434,2.514S1626.036,1004.638,1625.637,1004.038Z" transform="translate(-1621.439 -914.491)" fill="#f7c371"/>
            <path id="Path_29215" data-name="Path 29215" d="M1615.879,995.981c.509-.51,1.956.669,3.45,2.162s2.471,2.731,1.96,3.242-2.131-.289-3.626-1.782S1615.369,996.491,1615.879,995.981Z" transform="translate(-1615.725 -911.56)" fill="#ffd8a3"/>
            <path id="Path_29216" data-name="Path 29216" d="M1625.553,976.834c-2.474,1.808-10.68,6.856-9.043,9.841,1.465,2.668,6.8,3.712,11.259-7.9Z" transform="translate(-1616.057 -900.49)" fill="#ffd8a3"/>
            <path id="Path_29217" data-name="Path 29217" d="M1635.285,976.889l4.69-3.616-7.013-5.479-2.074,5.428Z" transform="translate(-1624.547 -895.229)" fill="#eaeaea"/>
            <path id="Path_29218" data-name="Path 29218" d="M1668.032,884.644s-6.037,14.582-27.49,38.3c0,0-3.535-.287-6.763-5.572,0,0,7.625-26.608,18.865-38.563C1652.644,878.809,1666.226,878.707,1668.032,884.644Z" transform="translate(-1626.23 -843.455)" fill="#cfd0d8"/>
            <path id="Path_29219" data-name="Path 29219" d="M1644.24,966.006a1.251,1.251,0,1,1-.431-1.894A1.389,1.389,0,0,1,1644.24,966.006Z" transform="translate(-1630.929 -893.026)" fill="#9999a5"/>
          </g>
          <g id="Group_19324" data-name="Group 19324" transform="translate(9.381)">
            <path id="Path_29220" data-name="Path 29220" d="M1592.615,709.263c8.02-10.429,6.586-27.025,6.154-27.59-4.611-6.041-16.855-4.991-22.973-3.062-5.159,1.627-9.136,4.686-6.378,8.649.953,1.369,4.965-1.978,6.239-1.862,2.407.218,5.218,33.091,5.218,33.091Z" transform="translate(-1565.341 -677.104)" fill="#ffac00"/>
            <g id="Group_19322" data-name="Group 19322" transform="translate(0 7.797)">
              <g id="Group_19321" data-name="Group 19321">
                <path id="Path_29221" data-name="Path 29221" d="M1569.187,757.685l-1.313-2.038,1.634-1.1Z" transform="translate(-1564.967 -729.962)" fill="#ffd8a3"/>
                <path id="Path_29222" data-name="Path 29222" d="M1589.088,724.349c-.9,2.826-9.322,9.066-17.874,8.948-1.308-11.079-1.466-29.428.507-32.62,1.94-3.141,10.049-5.645,11.084-4.738-2.879,3.658,2.3,15.4,4.083,16.434C1591.225,714.9,1590.026,721.4,1589.088,724.349Z" transform="translate(-1566.34 -695.75)" fill="#ffd8a3"/>
                <path id="Path_29223" data-name="Path 29223" d="M1560.923,743.479a78.715,78.715,0,0,0,3.916-9.5c1.17-3.54,1.143,9.339,1.143,9.339S1562.2,744.311,1560.923,743.479Z" transform="translate(-1560.923 -717.633)" fill="#ffd8a3"/>
                <path id="Path_29224" data-name="Path 29224" d="M1569.756,781.7c-.874-.339-1.328-1.144-1.014-1.8a1.693,1.693,0,0,1,2.151-.566c.875.339,1.329,1.144,1.015,1.8A1.7,1.7,0,0,1,1569.756,781.7Z" transform="translate(-1565.415 -744.297)" fill="#ffd8a3"/>
                <path id="Path_29225" data-name="Path 29225" d="M1569.73,771.419c-.037-.223.209-.449.548-.5s.642.082.678.305-.209.45-.547.5S1569.766,771.643,1569.73,771.419Z" transform="translate(-1566.045 -739.476)" fill="#ffd8a3"/>
              </g>
              <path id="Path_29226" data-name="Path 29226" d="M1609.743,732.583c.413-2.037,1.929-3.515,3.386-3.3s2.3,2.042,1.89,4.079-3.126,3.3-4.583,3.087S1609.331,734.62,1609.743,732.583Z" transform="translate(-1589.119 -715.249)" fill="#ffd8a3"/>
            </g>
            <path id="Path_29227" data-name="Path 29227" d="M1570.422,760.06l.438,4.522s1.261-.172,1.517-.746a15.9,15.9,0,0,0,.763-4.586Z" transform="translate(-1566.45 -724.899)" fill="#ffab00"/>
            <path id="Path_29228" data-name="Path 29228" d="M1570.628,760.543l.392,4.016s.931-.114,1.124-.375a11.3,11.3,0,0,0,.733-4.34Z" transform="translate(-1566.57 -725.245)" fill="#fff"/>
            <path id="Path_29229" data-name="Path 29229" d="M1572,726.255a1.1,1.1,0,0,1,.257-.736c.441-.492,4.318.565,4.3,1.367l-.015.5c-.016.578-1.18,0-2.333-.117-1.1-.115-2.2.248-2.2-.3Z" transform="translate(-1567.37 -705.2)" fill="#2d356b"/>
            <path id="Path_29230" data-name="Path 29230" d="M1575.73,736.044c-.044-.671.288-1.274.741-1.347s.856.41.9,1.08-.287,1.273-.74,1.347S1575.775,736.714,1575.73,736.044Z" transform="translate(-1569.536 -710.609)" fill="#2d356b"/>
            <path id="Path_29231" data-name="Path 29231" d="M1576.7,759.011c-.025-.155.042-.3.152-.313s.218.094.243.248-.042.294-.151.312S1576.726,759.166,1576.7,759.011Z" transform="translate(-1570.1 -724.577)" fill="#ffab00"/>
            <g id="Group_19323" data-name="Group 19323" transform="translate(3.149 2.106)">
              <path id="Path_29232" data-name="Path 29232" d="M1600.079,700.158c-3.685.431,2.862,16.895,1.042,18.182s.092,2.572,1.062,2.152c2.22-.961,2.4-5.706,2.417-8.722C1604.62,708.409,1600.391,700.121,1600.079,700.158Z" transform="translate(-1586.188 -692.623)" fill="#ffac00"/>
              <path id="Path_29233" data-name="Path 29233" d="M1568.6,689.432c-.716-2.639,1.36-5.5,4.636-6.389s12.931-1.8,13.646.839-7.775,7.829-11.052,8.716S1569.311,692.069,1568.6,689.432Z" transform="translate(-1568.454 -682.14)" fill="#ffac00"/>
            </g>
          </g>
        </g>
      </g>
      <g id="Group_19327" data-name="Group 19327" transform="translate(0 83.336)">
        <rect id="Rectangle_6811" data-name="Rectangle 6811" width="68.036" height="39.376" rx="6.672" fill="#fff" stroke="#231f20" stroke-miterlimit="10" stroke-width="0.25"/>
        <text id="Nick" transform="translate(20.942 23.947)" fill="#2d356b" font-size="13" font-family="TrebuchetMS-Bold, Trebuchet MS" font-weight="700"><tspan x="0" y="0">Nick</tspan></text>
      </g>
    </g>
    <g id="Group_19331" data-name="Group 19331" transform="translate(766.512 310.394)">
      <g id="Group_19330" data-name="Group 19330" transform="translate(0)">
        <g id="Group_19329" data-name="Group 19329">
          <rect id="Rectangle_6812" data-name="Rectangle 6812" width="267.458" height="56.809" rx="11.604" transform="translate(4.039 -21)" fill="#fff" stroke="#231f20" stroke-miterlimit="10" stroke-width="0.25"/>
          <path id="Path_29234" data-name="Path 29234" d="M977.055,522.392,960.4,606.2l27.785-83.81Z" transform="translate(-950.402 -486.583)" fill="#fff" stroke="#231f20" stroke-miterlimit="10" stroke-width="0.25"/>
        </g>
      </g>
    </g>
    <g id="Group_19334" data-name="Group 19334" transform="translate(868.911 375.409)">
      <g id="Group_19333" data-name="Group 19333" transform="translate(0 0)">
        <g id="Group_19332" data-name="Group 19332">
          <rect id="Rectangle_6813" data-name="Rectangle 6813" width="157.589" height="51.912" rx="11.604" transform="translate(157.589 35.912) rotate(-180)" fill="#fff" stroke="#231f20" stroke-miterlimit="10" stroke-width="0.25"/>
          <path id="Path_29235" data-name="Path 29235" d="M1520.538,682.431l18.071,17.956L1491.7,682.431Z" transform="translate(-1381.02 -646.519)" fill="#fff" stroke="#231f20" stroke-miterlimit="10" stroke-width="0.25"/>
        </g>
      </g>
    </g>
  </g>
</svg>
