<svg xmlns="http://www.w3.org/2000/svg" width="543" height="345.092" viewBox="0 0 543 345.092">
  <g id="Group_15680" data-name="Group 15680" transform="translate(-223.695 -3107.112)">
    <g id="Group_15626" data-name="Group 15626" transform="translate(223.695 3107.112)">
      <g id="Group_15625" data-name="Group 15625">
        <g id="Group_15624" data-name="Group 15624">
          <g id="Group_15623" data-name="Group 15623">
            <g id="Group_15622" data-name="Group 15622">
              <g id="Group_15539" data-name="Group 15539">
                <g id="Group_15536" data-name="Group 15536" transform="translate(0.461)">
                  <g id="Group_15532" data-name="Group 15532" transform="translate(0.105)">
                    <path id="Path_22882" data-name="Path 22882" d="M766.553,3119.885h.643v-12.107H224.761V3360.8H766.547v-25.415h.005Z" transform="translate(-224.761 -3107.425)" fill="#fff"/>
                    <rect id="Rectangle_5614" data-name="Rectangle 5614" width="541.868" height="0.708" transform="translate(0 253.019)" fill="#a0bacb"/>
                    <rect id="Rectangle_5615" data-name="Rectangle 5615" width="542.434" height="0.708" fill="#7b88ac"/>
                  </g>
                  <g id="Group_15533" data-name="Group 15533" transform="translate(0 51.7)">
                    <path id="Path_22883" data-name="Path 22883" d="M302.017,3205.4v-.185h-6.761v.185H225.363v154.259H368.9V3205.4Zm60.937,4.953v33.92H302.017v-33.92Zm-67.7,39.774v64.8h-63.95v-64.8Zm6.761,64.8v-64.8h60.937v64.8Zm-6.761-104.579v33.92h-63.95v-33.92Zm-63.95,110.432h63.95v33.921h-63.95Zm70.712,33.921v-33.921h60.937v33.921Z" transform="translate(-224.939 -3204.862)" fill="#ebebeb"/>
                    <path id="Path_22884" data-name="Path 22884" d="M368.945,3359.7H224.563V3204.734h69.893v-.186h7.61v.186h66.879Zm-143.533-.708H368.1V3205.442H301.217v-.186H295.3v.186H225.412ZM363,3354.747H301.217v-34.629H363Zm-60.937-.708h60.088v-33.213H302.066Zm-6.761.708h-64.8v-34.629h64.8Zm-63.95-.708h63.1v-33.213h-63.1ZM363,3314.973H301.217v-65.512H363Zm-60.937-.707h60.088v-64.1H302.066Zm-6.761.707h-64.8v-65.512h64.8Zm-63.95-.707h63.1v-64.1h-63.1ZM363,3244.315H301.217v-34.628H363Zm-60.937-.708h60.088v-33.213H302.066Zm-6.761.708h-64.8v-34.628h64.8Zm-63.95-.708h63.1v-33.213h-63.1Z" transform="translate(-224.563 -3204.548)" fill="#ebebeb"/>
                  </g>
                  <g id="Group_15534" data-name="Group 15534" transform="translate(215.097 50.787)">
                    <path id="Path_22885" data-name="Path 22885" d="M637.418,3203.681v-.186h-6.762v.186H560.763v154.258H704.3V3203.681Zm60.936,4.952v33.921H637.418v-33.921Zm-67.7,39.774v64.8h-63.95v-64.8Zm6.762,64.8v-64.8h60.936v64.8Zm-6.762-104.579v33.921h-63.95v-33.921Zm-63.95,110.432h63.95v33.921h-63.95Zm70.712,33.921v-33.921h60.936v33.921Z" transform="translate(-560.339 -3203.141)" fill="#ebebeb"/>
                    <path id="Path_22886" data-name="Path 22886" d="M704.345,3357.979H559.963V3203.014h69.893v-.186h7.611v.186h66.879Zm-143.534-.707H703.5V3203.721H636.618v-.185H630.7v.185H560.812Zm137.591-4.246H636.618V3318.4H698.4Zm-60.936-.707h60.087v-33.213H637.467Zm-6.762.707h-64.8V3318.4h64.8Zm-63.95-.707h63.1v-33.213h-63.1ZM698.4,3313.253H636.618v-65.512H698.4Zm-60.936-.708h60.087v-64.1H637.467Zm-6.762.708h-64.8v-65.512h64.8Zm-63.95-.708h63.1v-64.1h-63.1Zm131.649-69.95H636.618v-34.628H698.4Zm-60.936-.708h60.087v-33.213H637.467Zm-6.762.708h-64.8v-34.628h64.8Zm-63.95-.708h63.1v-33.213h-63.1Z" transform="translate(-559.963 -3202.828)" fill="#ebebeb"/>
                  </g>
                  <g id="Group_15535" data-name="Group 15535" transform="translate(428.679 51.7)">
                    <path id="Path_22887" data-name="Path 22887" d="M1016.606,3354.707h-36.22v-33.921h36.22v-5.853h-36.22v-64.8h36.22v-5.854h-36.22v-33.92h36.22V3205.4h-36.22v-.185h-6.761v.185H903.731v154.259h112.875Zm-42.982,0H909.674v-33.921h63.951Zm0-39.774H909.674v-64.8h63.951Zm0-70.659H909.674v-33.92h63.951Z" transform="translate(-903.307 -3204.862)" fill="#ebebeb"/>
                    <path id="Path_22888" data-name="Path 22888" d="M1047.4,3456.988h36.645v-.708h-35.8v-33.213h35.8v-.708H1047.4Z" transform="translate(-970.745 -3306.789)" fill="#ebebeb"/>
                    <path id="Path_22889" data-name="Path 22889" d="M1047.4,3354.705h36.645V3354h-35.8v-64.1h35.8v-.708H1047.4Z" transform="translate(-970.745 -3244.281)" fill="#ebebeb"/>
                    <path id="Path_22890" data-name="Path 22890" d="M1047.4,3248.861h36.645v-.708h-35.8v-33.213h35.8v-.708H1047.4Z" transform="translate(-970.745 -3209.095)" fill="#ebebeb"/>
                    <path id="Path_22891" data-name="Path 22891" d="M978.93,3214.233h-64.8v34.628h64.8Zm-.848,33.921h-63.1V3214.94h63.1Z" transform="translate(-908.189 -3209.095)" fill="#ebebeb"/>
                    <path id="Path_22892" data-name="Path 22892" d="M1016.231,3358.992H903.781V3205.442h69.892v-.186h5.913v.186h36.645v-.708h-35.8v-.186h-7.61v.186H902.932V3359.7h113.3Z" transform="translate(-902.932 -3204.548)" fill="#ebebeb"/>
                    <path id="Path_22893" data-name="Path 22893" d="M914.132,3456.988h64.8v-34.629h-64.8Zm.848-33.921h63.1v33.213h-63.1Z" transform="translate(-908.189 -3306.789)" fill="#ebebeb"/>
                    <path id="Path_22894" data-name="Path 22894" d="M978.93,3289.193h-64.8v65.512h64.8Zm-.848,64.8h-63.1v-64.1h63.1Z" transform="translate(-908.189 -3244.281)" fill="#ebebeb"/>
                  </g>
                </g>
                <g id="Group_15537" data-name="Group 15537" transform="translate(0 222.912)">
                  <path id="Path_22895" data-name="Path 22895" d="M766.129,3527.792H224.343V3614.6h-.648v35.069H766.123V3531.49h.005Z" transform="translate(-223.695 -3527.491)" fill="#f9f9f9"/>
                  <rect id="Rectangle_5616" data-name="Rectangle 5616" width="540.882" height="0.507" transform="translate(1.692 121.482)" fill="#f9f9f9"/>
                  <rect id="Rectangle_5617" data-name="Rectangle 5617" width="541.873" height="0.507" transform="translate(0.566)" fill="#f9f9f9"/>
                </g>
                <g id="Group_15538" data-name="Group 15538" transform="translate(28.723 4.461)">
                  <path id="Path_22896" data-name="Path 22896" d="M837.08,3191.217v-75.7h-1.814v75.7c-5.655.385-10.1,4.325-10.1,9.137,0,5.068,4.929,9.176,11.008,9.176s11.008-4.108,11.008-9.176C847.182,3195.542,842.734,3191.6,837.08,3191.217Z" transform="translate(-481.486 -3115.519)" fill="#c3e8e6"/>
                  <path id="Path_22897" data-name="Path 22897" d="M289.743,3202.486v-75.7h-1.814v75.7c-5.654.386-10.1,4.325-10.1,9.137,0,5.067,4.928,9.176,11.008,9.176s11.008-4.108,11.008-9.176C299.844,3206.811,295.4,3202.872,289.743,3202.486Z" transform="translate(-277.828 -3120.809)" fill="#c3e8e6"/>
                  <path id="Path_22898" data-name="Path 22898" d="M481.22,3193.153v-55.034H479.9v55.034c-4.111.28-7.344,3.145-7.344,6.643,0,3.684,3.583,6.67,8,6.67s8-2.986,8-6.67C488.564,3196.3,485.331,3193.434,481.22,3193.153Z" transform="translate(-350.584 -3126.128)" fill="#c3e8e6"/>
                  <path id="Path_22899" data-name="Path 22899" d="M1004.175,3193.153v-55.034h-1.319v55.034c-4.111.28-7.344,3.145-7.344,6.643,0,3.684,3.584,6.67,8,6.67s8-2.986,8-6.67C1011.519,3196.3,1008.286,3193.434,1004.175,3193.153Z" transform="translate(-545.972 -3126.128)" fill="#c3e8e6"/>
                </g>
              </g>
              <g id="Group_15576" data-name="Group 15576" transform="translate(16.016 109.429)">
                <g id="Group_15548" data-name="Group 15548" transform="translate(0 21.23)">
                  <g id="Group_15540" data-name="Group 15540">
                    <rect id="Rectangle_5618" data-name="Rectangle 5618" width="46.581" height="1.664" transform="translate(0.425 0.354)" fill="#ebebeb"/>
                    <path id="Path_22900" data-name="Path 22900" d="M301.31,3355.732H253.88v-2.371h47.43Zm-46.581-.707h45.732v-.957H254.729Z" transform="translate(-253.88 -3353.361)" fill="#ebebeb"/>
                  </g>
                  <g id="Group_15541" data-name="Group 15541" transform="translate(0 25.098)">
                    <rect id="Rectangle_5619" data-name="Rectangle 5619" width="46.581" height="1.664" transform="translate(0.425 0.354)" fill="#ebebeb"/>
                    <path id="Path_22901" data-name="Path 22901" d="M301.31,3403.032H253.88v-2.371h47.43Zm-46.581-.707h45.732v-.957H254.729Z" transform="translate(-253.88 -3400.661)" fill="#ebebeb"/>
                  </g>
                  <g id="Group_15542" data-name="Group 15542" transform="translate(0 50.195)">
                    <rect id="Rectangle_5620" data-name="Rectangle 5620" width="46.581" height="1.664" transform="translate(0.425 0.354)" fill="#ebebeb"/>
                    <path id="Path_22902" data-name="Path 22902" d="M301.31,3450.333H253.88v-2.372h47.43Zm-46.581-.708h45.732v-.956H254.729Z" transform="translate(-253.88 -3447.961)" fill="#ebebeb"/>
                  </g>
                  <g id="Group_15547" data-name="Group 15547" transform="translate(0 0.555)">
                    <g id="Group_15543" data-name="Group 15543" transform="translate(0 75.293)">
                      <rect id="Rectangle_5621" data-name="Rectangle 5621" width="46.581" height="1.664" transform="translate(0.425 0.354)" fill="#ebebeb"/>
                      <path id="Path_22903" data-name="Path 22903" d="M301.31,3498.678H253.88v-2.371h47.43Zm-46.581-.707h45.732v-.957H254.729Z" transform="translate(-253.88 -3496.307)" fill="#ebebeb"/>
                    </g>
                    <g id="Group_15544" data-name="Group 15544" transform="translate(0 99.313)">
                      <rect id="Rectangle_5622" data-name="Rectangle 5622" width="46.581" height="1.664" transform="translate(0.425 0.354)" fill="#ebebeb"/>
                      <path id="Path_22904" data-name="Path 22904" d="M301.31,3543.95H253.88v-2.372h47.43Zm-46.581-.708h45.732v-.956H254.729Z" transform="translate(-253.88 -3541.578)" fill="#ebebeb"/>
                    </g>
                    <g id="Group_15545" data-name="Group 15545">
                      <rect id="Rectangle_5623" data-name="Rectangle 5623" width="2.495" height="120.733" transform="translate(0.425 0.354)" fill="#ebebeb"/>
                      <path id="Path_22905" data-name="Path 22905" d="M257.224,3475.846H253.88v-121.44h3.344Zm-2.5-.707h1.646V3355.114h-1.646Z" transform="translate(-253.88 -3354.406)" fill="#ebebeb"/>
                    </g>
                    <g id="Group_15546" data-name="Group 15546" transform="translate(44.085)">
                      <rect id="Rectangle_5624" data-name="Rectangle 5624" width="2.495" height="120.733" transform="translate(0.424 0.354)" fill="#ebebeb"/>
                      <path id="Path_22906" data-name="Path 22906" d="M340.31,3475.846h-3.344v-121.44h3.344Zm-2.5-.707h1.646V3355.114h-1.646Z" transform="translate(-336.966 -3354.406)" fill="#ebebeb"/>
                    </g>
                  </g>
                </g>
                <g id="Group_15559" data-name="Group 15559" transform="translate(8.35 27.146)">
                  <g id="Group_15550" data-name="Group 15550">
                    <g id="Group_15549" data-name="Group 15549">
                      <rect id="Rectangle_5625" data-name="Rectangle 5625" width="4.88" height="19.181" transform="translate(0.424 0.354)" fill="#ebebeb"/>
                      <path id="Path_22907" data-name="Path 22907" d="M275.344,3384.4h-5.728V3364.51h5.728Zm-4.879-.708H274.5v-18.474h-4.031Z" transform="translate(-269.616 -3364.51)" fill="#ebebeb"/>
                    </g>
                    <path id="Path_22908" data-name="Path 22908" d="M275.2,3372.266a1.635,1.635,0,1,1-1.608-1.34A1.493,1.493,0,0,1,275.2,3372.266Z" transform="translate(-270.728 -3367.522)" fill="#ebebeb"/>
                  </g>
                  <g id="Group_15552" data-name="Group 15552" transform="translate(5.736)">
                    <g id="Group_15551" data-name="Group 15551">
                      <rect id="Rectangle_5626" data-name="Rectangle 5626" width="4.88" height="19.181" transform="translate(0.424 0.354)" fill="#ebebeb"/>
                      <path id="Path_22909" data-name="Path 22909" d="M286.155,3384.4h-5.729V3364.51h5.729Zm-4.88-.708h4.031v-18.474h-4.031Z" transform="translate(-280.426 -3364.51)" fill="#ebebeb"/>
                    </g>
                    <path id="Path_22910" data-name="Path 22910" d="M286.01,3372.266a1.635,1.635,0,1,1-1.608-1.34A1.493,1.493,0,0,1,286.01,3372.266Z" transform="translate(-281.538 -3367.522)" fill="#ebebeb"/>
                  </g>
                  <g id="Group_15554" data-name="Group 15554" transform="translate(11.472)">
                    <g id="Group_15553" data-name="Group 15553">
                      <rect id="Rectangle_5627" data-name="Rectangle 5627" width="4.88" height="19.181" transform="translate(0.425 0.354)" fill="#ebebeb"/>
                      <path id="Path_22911" data-name="Path 22911" d="M296.965,3384.4h-5.729V3364.51h5.729Zm-4.88-.708h4.031v-18.474h-4.031Z" transform="translate(-291.236 -3364.51)" fill="#ebebeb"/>
                    </g>
                    <path id="Path_22912" data-name="Path 22912" d="M296.82,3372.266a1.635,1.635,0,1,1-1.608-1.34A1.493,1.493,0,0,1,296.82,3372.266Z" transform="translate(-292.348 -3367.522)" fill="#ebebeb"/>
                  </g>
                  <g id="Group_15556" data-name="Group 15556" transform="translate(17.207)">
                    <g id="Group_15555" data-name="Group 15555">
                      <rect id="Rectangle_5628" data-name="Rectangle 5628" width="4.88" height="19.181" transform="translate(0.425 0.354)" fill="#ebebeb"/>
                      <path id="Path_22913" data-name="Path 22913" d="M307.775,3384.4h-5.729V3364.51h5.729Zm-4.88-.708h4.031v-18.474h-4.031Z" transform="translate(-302.046 -3364.51)" fill="#ebebeb"/>
                    </g>
                    <path id="Path_22914" data-name="Path 22914" d="M307.63,3372.266a1.635,1.635,0,1,1-1.608-1.34A1.493,1.493,0,0,1,307.63,3372.266Z" transform="translate(-303.158 -3367.522)" fill="#ebebeb"/>
                  </g>
                  <g id="Group_15558" data-name="Group 15558" transform="translate(22.943)">
                    <g id="Group_15557" data-name="Group 15557">
                      <rect id="Rectangle_5629" data-name="Rectangle 5629" width="4.88" height="19.181" transform="translate(0.425 0.354)" fill="#ebebeb"/>
                      <path id="Path_22915" data-name="Path 22915" d="M318.585,3384.4h-5.729V3364.51h5.729Zm-4.88-.708h4.031v-18.474H313.7Z" transform="translate(-312.856 -3364.51)" fill="#ebebeb"/>
                    </g>
                    <path id="Path_22916" data-name="Path 22916" d="M318.441,3372.266a1.635,1.635,0,1,1-1.608-1.34A1.493,1.493,0,0,1,318.441,3372.266Z" transform="translate(-313.968 -3367.522)" fill="#ebebeb"/>
                  </g>
                </g>
                <path id="Path_22917" data-name="Path 22917" d="M273,3470.9a7.957,7.957,0,0,1,.759-3.524h-5.849a7.957,7.957,0,0,1,.759,3.524c0,2.132-2.563,6.07-2.563,8.695s2.717,3.486,4.728,3.486,4.728-.861,4.728-3.486S273,3473.032,273,3470.9Z" transform="translate(-259.618 -3385.649)" fill="#ebebeb"/>
                <g id="Group_15561" data-name="Group 15561" transform="translate(24.827 54.567)">
                  <g id="Group_15560" data-name="Group 15560" transform="translate(0.725)">
                    <path id="Path_22918" data-name="Path 22918" d="M314.519,3425.717c1.577-3.085-1.929-3.029-1.662-3.838.5-1.521,2.391.131,3.159-.635s-1.893-3.151-.5-3.978.9,1.971,2.108,1.772.487-3.154,1.906-2.824c1.067.249-.2,2.1-.083,2.958s2.317-.395,2.355.837-2.623.692-2.937,1.629,2.863,1.13,1.749,1.922-3.213-.156-3.766.668S313.849,3427.028,314.519,3425.717Z" transform="translate(-307.109 -3416.189)" fill="#ebebeb"/>
                    <path id="Path_22919" data-name="Path 22919" d="M308.475,3430.547c-1.482-3.118-3.927-1.021-4.421-1.754-.926-1.375,1.811-1.309,1.711-2.3s-4-1.13-3.713-2.535,2.306.87,2.994.024-2.315-2.527-1.028-3.124c.968-.449,1.625,1.607,2.436,2.151s1.314-1.639,2.381-.786-1.281,2.03-.713,2.879,2.988-.875,2.865.341-2.416,1.772-2.113,2.682S309.1,3431.871,308.475,3430.547Z" transform="translate(-302.037 -3418.349)" fill="#ebebeb"/>
                  </g>
                  <path id="Path_22920" data-name="Path 22920" d="M311.609,3431.032h-8.1s-2.842,2.033-2.842,4.437,1.771,4.9,6.89,4.9,6.89-2.5,6.89-4.9S311.609,3431.032,311.609,3431.032Z" transform="translate(-300.671 -3423.156)" fill="#ebebeb"/>
                </g>
                <g id="Group_15562" data-name="Group 15562" transform="translate(26.813 86.477)">
                  <rect id="Rectangle_5630" data-name="Rectangle 5630" width="7.472" height="8.458" transform="translate(2.312 2.496)" fill="#ebebeb"/>
                  <ellipse id="Ellipse_225" data-name="Ellipse 225" cx="5.897" cy="2.496" rx="5.897" ry="2.496" fill="#ebebeb"/>
                </g>
                <g id="Group_15563" data-name="Group 15563" transform="translate(21.609 13.462)">
                  <rect id="Rectangle_5631" data-name="Rectangle 5631" width="5.54" height="6.271" transform="translate(1.714 1.851)" fill="#ebebeb"/>
                  <path id="Path_22921" data-name="Path 22921" d="M303.35,3340.571c0,1.022-1.957,1.85-4.372,1.85s-4.372-.828-4.372-1.85,1.957-1.851,4.372-1.851S303.35,3339.549,303.35,3340.571Z" transform="translate(-294.606 -3338.72)" fill="#ebebeb"/>
                </g>
                <g id="Group_15565" data-name="Group 15565" transform="translate(3.086)">
                  <g id="Group_15564" data-name="Group 15564">
                    <path id="Path_22922" data-name="Path 22922" d="M277.881,3330.534s-1.917-5.546,6.568-11.786c0,0-7.264,6.655-4.88,11.786Z" transform="translate(-268.145 -3315.884)" fill="#ebebeb"/>
                    <path id="Path_22923" data-name="Path 22923" d="M276.409,3329.259s-4.395-6.178,3.475-15.909c0,0-6.244,9.914-1.443,15.468Z" transform="translate(-266.967 -3313.349)" fill="#ebebeb"/>
                    <path id="Path_22924" data-name="Path 22924" d="M268.9,3330.534s1.917-5.546-6.567-11.786c0,0,7.264,6.655,4.879,11.786Z" transform="translate(-260.931 -3315.884)" fill="#ebebeb"/>
                    <path id="Path_22925" data-name="Path 22925" d="M272.571,3329.079s3.531-4.966-2.8-12.785c0,0,5.019,7.966,1.162,12.43Z" transform="translate(-264.428 -3314.731)" fill="#ebebeb"/>
                    <path id="Path_22926" data-name="Path 22926" d="M277.346,3335.362s-1.656-5.6,7.112-11.564c0,0-7.57,6.415-5.426,11.619Z" transform="translate(-267.922 -3318.254)" fill="#ebebeb"/>
                    <path id="Path_22927" data-name="Path 22927" d="M266.808,3334.08s1.657-5.6-7.112-11.564c0,0,7.57,6.416,5.426,11.619Z" transform="translate(-259.696 -3317.652)" fill="#ebebeb"/>
                  </g>
                  <path id="Path_22928" data-name="Path 22928" d="M269.94,3337.3H264.2l2.632,8.874h6.207l2.632-8.874Z" transform="translate(-261.812 -3324.593)" fill="#ebebeb"/>
                </g>
                <g id="Group_15575" data-name="Group 15575" transform="translate(4.451 64.845)">
                  <g id="Group_15570" data-name="Group 15570" transform="translate(0 0)">
                    <g id="Group_15566" data-name="Group 15566" transform="translate(0.424 4.695)">
                      <rect id="Rectangle_5632" data-name="Rectangle 5632" width="2.343" height="17.556" transform="translate(0 2.343) rotate(-90)" fill="#ebebeb"/>
                    </g>
                    <g id="Group_15568" data-name="Group 15568" transform="translate(0 1.989)">
                      <g id="Group_15567" data-name="Group 15567">
                        <rect id="Rectangle_5633" data-name="Rectangle 5633" width="2.343" height="17.556" transform="translate(0.424 2.697) rotate(-90)" fill="#ebebeb"/>
                        <path id="Path_22929" data-name="Path 22929" d="M280.674,3442.36H262.269v-3.051h18.405Zm-17.556-.708h16.708v-1.636H263.118Z" transform="translate(-262.269 -3439.309)" fill="#ebebeb"/>
                      </g>
                    </g>
                    <g id="Group_15569" data-name="Group 15569" transform="translate(0.424)">
                      <rect id="Rectangle_5634" data-name="Rectangle 5634" width="2.343" height="17.556" transform="translate(0 2.343) rotate(-90)" fill="#ebebeb"/>
                    </g>
                  </g>
                  <g id="Group_15571" data-name="Group 15571" transform="translate(10.764)">
                    <rect id="Rectangle_5635" data-name="Rectangle 5635" width="0.126" height="2.343" fill="#ebebeb"/>
                  </g>
                  <g id="Group_15572" data-name="Group 15572" transform="translate(12.178)">
                    <rect id="Rectangle_5636" data-name="Rectangle 5636" width="0.126" height="2.343" fill="#ebebeb"/>
                  </g>
                  <g id="Group_15573" data-name="Group 15573" transform="translate(13.592)">
                    <rect id="Rectangle_5637" data-name="Rectangle 5637" width="0.126" height="2.343" fill="#ebebeb"/>
                  </g>
                  <g id="Group_15574" data-name="Group 15574" transform="translate(15.006)">
                    <rect id="Rectangle_5638" data-name="Rectangle 5638" width="0.126" height="2.343" fill="#ebebeb"/>
                  </g>
                  <rect id="Rectangle_5639" data-name="Rectangle 5639" width="8.263" height="0.386" transform="translate(8.859 5.094)" fill="#ebebeb"/>
                  <rect id="Rectangle_5640" data-name="Rectangle 5640" width="8.263" height="0.386" transform="translate(8.859 5.674)" fill="#ebebeb"/>
                  <rect id="Rectangle_5641" data-name="Rectangle 5641" width="8.263" height="0.386" transform="translate(8.859 6.253)" fill="#ebebeb"/>
                </g>
              </g>
              <g id="Group_15613" data-name="Group 15613" transform="translate(454.548 98.969)">
                <g id="Group_15585" data-name="Group 15585" transform="translate(0 21.23)">
                  <g id="Group_15577" data-name="Group 15577">
                    <rect id="Rectangle_5642" data-name="Rectangle 5642" width="46.581" height="1.664" transform="translate(0.425 0.354)" fill="#ebebeb"/>
                    <path id="Path_22930" data-name="Path 22930" d="M998.248,3336.017h-47.43v-2.371h47.43Zm-46.581-.707H997.4v-.957H951.667Z" transform="translate(-950.818 -3333.645)" fill="#ebebeb"/>
                  </g>
                  <g id="Group_15578" data-name="Group 15578" transform="translate(0 25.098)">
                    <rect id="Rectangle_5643" data-name="Rectangle 5643" width="46.581" height="1.664" transform="translate(0.425 0.354)" fill="#ebebeb"/>
                    <path id="Path_22931" data-name="Path 22931" d="M998.248,3383.318h-47.43v-2.372h47.43Zm-46.581-.708H997.4v-.957H951.667Z" transform="translate(-950.818 -3380.946)" fill="#ebebeb"/>
                  </g>
                  <g id="Group_15579" data-name="Group 15579" transform="translate(0 50.196)">
                    <rect id="Rectangle_5644" data-name="Rectangle 5644" width="46.581" height="1.664" transform="translate(0.425 0.353)" fill="#ebebeb"/>
                    <path id="Path_22932" data-name="Path 22932" d="M998.248,3430.619h-47.43v-2.371h47.43Zm-46.581-.708H997.4v-.956H951.667Z" transform="translate(-950.818 -3428.247)" fill="#ebebeb"/>
                  </g>
                  <g id="Group_15584" data-name="Group 15584" transform="translate(0 0.555)">
                    <g id="Group_15580" data-name="Group 15580" transform="translate(0 75.293)">
                      <rect id="Rectangle_5645" data-name="Rectangle 5645" width="46.581" height="1.664" transform="translate(0.425 0.354)" fill="#ebebeb"/>
                      <path id="Path_22933" data-name="Path 22933" d="M998.248,3478.963h-47.43v-2.371h47.43Zm-46.581-.707H997.4v-.957H951.667Z" transform="translate(-950.818 -3476.592)" fill="#ebebeb"/>
                    </g>
                    <g id="Group_15581" data-name="Group 15581" transform="translate(0 99.313)">
                      <rect id="Rectangle_5646" data-name="Rectangle 5646" width="46.581" height="1.664" transform="translate(0.425 0.354)" fill="#ebebeb"/>
                      <path id="Path_22934" data-name="Path 22934" d="M998.248,3524.235h-47.43v-2.372h47.43Zm-46.581-.708H997.4v-.956H951.667Z" transform="translate(-950.818 -3521.863)" fill="#ebebeb"/>
                    </g>
                    <g id="Group_15582" data-name="Group 15582">
                      <rect id="Rectangle_5647" data-name="Rectangle 5647" width="2.495" height="120.733" transform="translate(0.425 0.354)" fill="#ebebeb"/>
                      <path id="Path_22935" data-name="Path 22935" d="M954.162,3456.131h-3.344v-121.44h3.344Zm-2.5-.707h1.646V3335.4h-1.646Z" transform="translate(-950.818 -3334.691)" fill="#ebebeb"/>
                    </g>
                    <g id="Group_15583" data-name="Group 15583" transform="translate(44.085)">
                      <rect id="Rectangle_5648" data-name="Rectangle 5648" width="2.495" height="120.733" transform="translate(0.424 0.354)" fill="#ebebeb"/>
                      <path id="Path_22936" data-name="Path 22936" d="M1037.249,3456.131H1033.9v-121.44h3.344Zm-2.5-.707h1.647V3335.4h-1.647Z" transform="translate(-1033.904 -3334.691)" fill="#ebebeb"/>
                    </g>
                  </g>
                </g>
                <g id="Group_15596" data-name="Group 15596" transform="translate(8.35 27.146)">
                  <g id="Group_15587" data-name="Group 15587">
                    <g id="Group_15586" data-name="Group 15586">
                      <rect id="Rectangle_5649" data-name="Rectangle 5649" width="4.88" height="19.181" transform="translate(0.424 0.354)" fill="#ebebeb"/>
                      <path id="Path_22937" data-name="Path 22937" d="M972.282,3364.684h-5.728V3344.8h5.728Zm-4.879-.708h4.031V3345.5H967.4Z" transform="translate(-966.554 -3344.795)" fill="#ebebeb"/>
                    </g>
                    <path id="Path_22938" data-name="Path 22938" d="M972.138,3352.552a1.635,1.635,0,1,1-1.608-1.34A1.493,1.493,0,0,1,972.138,3352.552Z" transform="translate(-967.665 -3347.807)" fill="#ebebeb"/>
                  </g>
                  <g id="Group_15589" data-name="Group 15589" transform="translate(5.735)">
                    <g id="Group_15588" data-name="Group 15588">
                      <rect id="Rectangle_5650" data-name="Rectangle 5650" width="4.88" height="19.181" transform="translate(0.425 0.354)" fill="#ebebeb"/>
                      <path id="Path_22939" data-name="Path 22939" d="M983.092,3364.684h-5.729V3344.8h5.729Zm-4.88-.708h4.031V3345.5h-4.031Z" transform="translate(-977.363 -3344.795)" fill="#ebebeb"/>
                    </g>
                    <path id="Path_22940" data-name="Path 22940" d="M982.948,3352.552a1.635,1.635,0,1,1-1.608-1.34A1.493,1.493,0,0,1,982.948,3352.552Z" transform="translate(-978.475 -3347.807)" fill="#ebebeb"/>
                  </g>
                  <g id="Group_15591" data-name="Group 15591" transform="translate(11.472)">
                    <g id="Group_15590" data-name="Group 15590">
                      <rect id="Rectangle_5651" data-name="Rectangle 5651" width="4.88" height="19.181" transform="translate(0.424 0.354)" fill="#ebebeb"/>
                      <path id="Path_22941" data-name="Path 22941" d="M993.9,3364.684h-5.728V3344.8H993.9Zm-4.879-.708h4.03V3345.5h-4.03Z" transform="translate(-988.174 -3344.795)" fill="#ebebeb"/>
                    </g>
                    <path id="Path_22942" data-name="Path 22942" d="M993.758,3352.552a1.635,1.635,0,1,1-1.608-1.34A1.493,1.493,0,0,1,993.758,3352.552Z" transform="translate(-989.285 -3347.807)" fill="#ebebeb"/>
                  </g>
                  <g id="Group_15593" data-name="Group 15593" transform="translate(17.207)">
                    <g id="Group_15592" data-name="Group 15592">
                      <rect id="Rectangle_5652" data-name="Rectangle 5652" width="4.88" height="19.181" transform="translate(0.424 0.354)" fill="#ebebeb"/>
                      <path id="Path_22943" data-name="Path 22943" d="M1004.713,3364.684h-5.729V3344.8h5.729Zm-4.88-.708h4.031V3345.5h-4.031Z" transform="translate(-998.984 -3344.795)" fill="#ebebeb"/>
                    </g>
                    <path id="Path_22944" data-name="Path 22944" d="M1004.568,3352.552a1.635,1.635,0,1,1-1.608-1.34A1.493,1.493,0,0,1,1004.568,3352.552Z" transform="translate(-1000.095 -3347.807)" fill="#ebebeb"/>
                  </g>
                  <g id="Group_15595" data-name="Group 15595" transform="translate(22.943)">
                    <g id="Group_15594" data-name="Group 15594">
                      <rect id="Rectangle_5653" data-name="Rectangle 5653" width="4.88" height="19.181" transform="translate(0.424 0.354)" fill="#ebebeb"/>
                      <path id="Path_22945" data-name="Path 22945" d="M1015.523,3364.684h-5.729V3344.8h5.729Zm-4.88-.708h4.031V3345.5h-4.031Z" transform="translate(-1009.794 -3344.795)" fill="#ebebeb"/>
                    </g>
                    <path id="Path_22946" data-name="Path 22946" d="M1015.378,3352.552a1.635,1.635,0,1,1-1.608-1.34A1.493,1.493,0,0,1,1015.378,3352.552Z" transform="translate(-1010.906 -3347.807)" fill="#ebebeb"/>
                  </g>
                </g>
                <path id="Path_22947" data-name="Path 22947" d="M969.934,3451.184a7.951,7.951,0,0,1,.76-3.524h-5.849a7.951,7.951,0,0,1,.76,3.524c0,2.133-2.563,6.07-2.563,8.7s2.717,3.486,4.728,3.486,4.728-.861,4.728-3.486S969.934,3453.317,969.934,3451.184Z" transform="translate(-956.555 -3365.934)" fill="#ebebeb"/>
                <g id="Group_15598" data-name="Group 15598" transform="translate(24.827 54.567)">
                  <g id="Group_15597" data-name="Group 15597" transform="translate(0.725)">
                    <path id="Path_22948" data-name="Path 22948" d="M1011.457,3406c1.577-3.086-1.929-3.028-1.662-3.838.5-1.521,2.392.132,3.159-.634s-1.893-3.151-.5-3.978.9,1.97,2.108,1.772.487-3.153,1.906-2.823c1.067.248-.2,2.095-.083,2.958s2.317-.395,2.355.837-2.623.692-2.937,1.628,2.863,1.13,1.749,1.922-3.213-.157-3.766.667S1010.786,3407.313,1011.457,3406Z" transform="translate(-1004.046 -3396.475)" fill="#ebebeb"/>
                    <path id="Path_22949" data-name="Path 22949" d="M1005.413,3410.832c-1.483-3.118-3.927-1.022-4.421-1.754-.926-1.375,1.811-1.309,1.711-2.3s-4-1.13-3.713-2.534,2.305.87,2.994.023-2.316-2.527-1.028-3.125c.967-.449,1.625,1.607,2.437,2.151s1.314-1.639,2.381-.786-1.281,2.03-.713,2.879,2.988-.875,2.865.341-2.415,1.772-2.113,2.682S1006.043,3412.156,1005.413,3410.832Z" transform="translate(-998.975 -3398.635)" fill="#ebebeb"/>
                  </g>
                  <path id="Path_22950" data-name="Path 22950" d="M1008.547,3411.317h-8.1s-2.842,2.034-2.842,4.437,1.771,4.9,6.89,4.9,6.89-2.5,6.89-4.9S1008.547,3411.317,1008.547,3411.317Z" transform="translate(-997.609 -3403.442)" fill="#ebebeb"/>
                </g>
                <g id="Group_15599" data-name="Group 15599" transform="translate(26.813 86.477)">
                  <rect id="Rectangle_5654" data-name="Rectangle 5654" width="7.472" height="8.458" transform="translate(2.312 2.496)" fill="#ebebeb"/>
                  <ellipse id="Ellipse_226" data-name="Ellipse 226" cx="5.897" cy="2.496" rx="5.897" ry="2.496" fill="#ebebeb"/>
                </g>
                <g id="Group_15600" data-name="Group 15600" transform="translate(21.609 13.462)">
                  <rect id="Rectangle_5655" data-name="Rectangle 5655" width="5.54" height="6.271" transform="translate(1.714 1.851)" fill="#ebebeb"/>
                  <path id="Path_22951" data-name="Path 22951" d="M1000.288,3320.856c0,1.022-1.957,1.85-4.372,1.85s-4.372-.828-4.372-1.85,1.957-1.851,4.372-1.851S1000.288,3319.834,1000.288,3320.856Z" transform="translate(-991.544 -3319.005)" fill="#ebebeb"/>
                </g>
                <g id="Group_15602" data-name="Group 15602" transform="translate(3.086)">
                  <g id="Group_15601" data-name="Group 15601">
                    <path id="Path_22952" data-name="Path 22952" d="M974.819,3310.82s-1.917-5.547,6.567-11.786c0,0-7.264,6.655-4.879,11.786Z" transform="translate(-965.083 -3296.169)" fill="#ebebeb"/>
                    <path id="Path_22953" data-name="Path 22953" d="M973.346,3309.544s-4.394-6.178,3.475-15.91c0,0-6.244,9.914-1.443,15.468Z" transform="translate(-963.905 -3293.635)" fill="#ebebeb"/>
                    <path id="Path_22954" data-name="Path 22954" d="M965.833,3310.82s1.917-5.547-6.568-11.786c0,0,7.264,6.655,4.88,11.786Z" transform="translate(-957.869 -3296.169)" fill="#ebebeb"/>
                    <path id="Path_22955" data-name="Path 22955" d="M969.508,3309.364s3.531-4.966-2.8-12.785c0,0,5.019,7.966,1.162,12.43Z" transform="translate(-961.365 -3295.016)" fill="#ebebeb"/>
                    <path id="Path_22956" data-name="Path 22956" d="M974.283,3315.646s-1.656-5.6,7.113-11.564c0,0-7.569,6.416-5.426,11.619Z" transform="translate(-964.86 -3298.538)" fill="#ebebeb"/>
                    <path id="Path_22957" data-name="Path 22957" d="M963.746,3314.365s1.656-5.6-7.112-11.564c0,0,7.569,6.416,5.426,11.62Z" transform="translate(-956.634 -3297.937)" fill="#ebebeb"/>
                  </g>
                  <path id="Path_22958" data-name="Path 22958" d="M966.878,3317.587h-5.736l2.632,8.874h6.207l2.632-8.874Z" transform="translate(-958.75 -3304.878)" fill="#ebebeb"/>
                </g>
                <g id="Group_15612" data-name="Group 15612" transform="translate(4.451 64.845)">
                  <g id="Group_15607" data-name="Group 15607" transform="translate(0 0)">
                    <g id="Group_15603" data-name="Group 15603" transform="translate(0.424 4.695)">
                      <rect id="Rectangle_5656" data-name="Rectangle 5656" width="2.343" height="17.556" transform="translate(0 2.343) rotate(-90)" fill="#ebebeb"/>
                    </g>
                    <g id="Group_15605" data-name="Group 15605" transform="translate(0 1.989)">
                      <g id="Group_15604" data-name="Group 15604">
                        <rect id="Rectangle_5657" data-name="Rectangle 5657" width="2.343" height="17.556" transform="translate(0.424 2.697) rotate(-90)" fill="#ebebeb"/>
                        <path id="Path_22959" data-name="Path 22959" d="M977.613,3422.646H959.207v-3.05h18.406Zm-17.557-.707h16.708V3420.3H960.056Z" transform="translate(-959.207 -3419.595)" fill="#ebebeb"/>
                      </g>
                    </g>
                    <g id="Group_15606" data-name="Group 15606" transform="translate(0.424)">
                      <rect id="Rectangle_5658" data-name="Rectangle 5658" width="2.343" height="17.556" transform="translate(0 2.343) rotate(-90)" fill="#ebebeb"/>
                    </g>
                  </g>
                  <g id="Group_15608" data-name="Group 15608" transform="translate(10.764 0)">
                    <rect id="Rectangle_5659" data-name="Rectangle 5659" width="0.126" height="2.343" fill="#ebebeb"/>
                  </g>
                  <g id="Group_15609" data-name="Group 15609" transform="translate(12.178 0)">
                    <rect id="Rectangle_5660" data-name="Rectangle 5660" width="0.126" height="2.343" fill="#ebebeb"/>
                  </g>
                  <g id="Group_15610" data-name="Group 15610" transform="translate(13.592 0)">
                    <rect id="Rectangle_5661" data-name="Rectangle 5661" width="0.126" height="2.343" fill="#ebebeb"/>
                  </g>
                  <g id="Group_15611" data-name="Group 15611" transform="translate(15.006 0)">
                    <rect id="Rectangle_5662" data-name="Rectangle 5662" width="0.126" height="2.343" fill="#ebebeb"/>
                  </g>
                  <rect id="Rectangle_5663" data-name="Rectangle 5663" width="8.263" height="0.386" transform="translate(8.859 5.094)" fill="#ebebeb"/>
                  <rect id="Rectangle_5664" data-name="Rectangle 5664" width="8.263" height="0.386" transform="translate(8.859 5.674)" fill="#ebebeb"/>
                  <rect id="Rectangle_5665" data-name="Rectangle 5665" width="8.263" height="0.386" transform="translate(8.859 6.253)" fill="#ebebeb"/>
                </g>
              </g>
              <g id="Group_15621" data-name="Group 15621" transform="translate(224.744 168.185)">
                <path id="Path_22960" data-name="Path 22960" d="M696.328,3560.649h-110.8c-2.116,0-3.641-1.723-3.054-3.451h0a3.151,3.151,0,0,1,3.054-1.952h110.8a3.151,3.151,0,0,1,3.054,1.952h0C699.968,3558.926,698.443,3560.649,696.328,3560.649Z" transform="translate(-580.071 -3485.651)" fill="#ebebeb" opacity="0.32"/>
                <g id="Group_15616" data-name="Group 15616" transform="translate(0 23.943)">
                  <rect id="Rectangle_5666" data-name="Rectangle 5666" width="2.143" height="45.397" transform="translate(1.278 0.254)" fill="#ebebeb"/>
                  <rect id="Rectangle_5667" data-name="Rectangle 5667" width="2.143" height="45.397" transform="translate(117.688 0.254)" fill="#ebebeb"/>
                  <g id="Group_15614" data-name="Group 15614">
                    <path id="Path_22961" data-name="Path 22961" d="M699.319,3474.15H578.739l.917-4.463H698.2Z" transform="translate(-578.378 -3469.433)" fill="#ebebeb"/>
                    <path id="Path_22962" data-name="Path 22962" d="M699.375,3474.179H578.059l1.021-4.97H698.124Zm-120.595-.507H698.625l-.995-3.956H579.594Z" transform="translate(-578.059 -3469.209)" fill="#ebebeb"/>
                  </g>
                  <g id="Group_15615" data-name="Group 15615" transform="translate(0.056 4.463)">
                    <path id="Path_22963" data-name="Path 22963" d="M699.113,3478.1H578.739v46.593h1.99v-43.535h116.6v43.535h1.99V3478.1Z" transform="translate(-578.434 -3477.844)" fill="#ebebeb"/>
                    <path id="Path_22964" data-name="Path 22964" d="M699.354,3524.72h-2.6v-43.535H580.764v43.535h-2.6v-47.1H699.354Zm-1.99-.507h1.382v-46.086H578.774v46.086h1.382v-43.535H697.364Z" transform="translate(-578.165 -3477.62)" fill="#ebebeb"/>
                  </g>
                </g>
                <g id="Group_15620" data-name="Group 15620" transform="translate(82.645)">
                  <path id="Path_22965" data-name="Path 22965" d="M773.452,3425.961v16.688a2.187,2.187,0,0,1-2.389,1.877H736.206a2.188,2.188,0,0,1-2.39-1.877v-16.687a2.19,2.19,0,0,1,2.39-1.876h34.857A2.189,2.189,0,0,1,773.452,3425.961Z" transform="translate(-733.816 -3424.084)" fill="#ebebeb"/>
                  <path id="Path_22966" data-name="Path 22966" d="M736.914,3444.454a1.455,1.455,0,0,1-1.593-1.251v-16.687a1.455,1.455,0,0,1,1.593-1.252h34.854a1.456,1.456,0,0,1,1.593,1.252V3443.2a1.455,1.455,0,0,1-1.593,1.251Z" transform="translate(-734.523 -3424.637)" fill="#ebebeb"/>
                  <g id="Group_15617" data-name="Group 15617" transform="translate(1.29 0.998)">
                    <path id="Path_22967" data-name="Path 22967" d="M737.618,3444.382a.728.728,0,0,1-.8-.626v-16.687a.727.727,0,0,1,.8-.626h34.854a.728.728,0,0,1,.8.626v16.687a.728.728,0,0,1-.8.626Z" transform="translate(-736.517 -3426.189)" fill="#ebebeb"/>
                    <path id="Path_22968" data-name="Path 22968" d="M772.2,3444.411H737.349a1.01,1.01,0,0,1-1.1-.879v-16.687a1.01,1.01,0,0,1,1.1-.879H772.2a1.01,1.01,0,0,1,1.1.879v16.688A1.01,1.01,0,0,1,772.2,3444.411Zm-34.854-17.939a.446.446,0,0,0-.492.372v16.688a.445.445,0,0,0,.492.372H772.2a.445.445,0,0,0,.492-.372v-16.687a.446.446,0,0,0-.492-.372Z" transform="translate(-736.248 -3425.965)" fill="#ebebeb"/>
                  </g>
                  <path id="Path_22969" data-name="Path 22969" d="M771.705,3454.625h-9.347l1.055-9.024h7.237Z" transform="translate(-747.214 -3434.184)" fill="#ebebeb"/>
                  <g id="Group_15618" data-name="Group 15618" transform="translate(15.108 10.684)">
                    <path id="Path_22970" data-name="Path 22970" d="M771.673,3459.365H762.91l1.376-14.667H770.3Z" transform="translate(-762.581 -3444.444)" fill="#ebebeb"/>
                    <path id="Path_22971" data-name="Path 22971" d="M771.711,3459.394H762.29l1.423-15.174h6.575Zm-8.763-.507h8.1l-1.328-14.16h-5.449Z" transform="translate(-762.29 -3444.22)" fill="#ebebeb"/>
                  </g>
                  <g id="Group_15619" data-name="Group 15619" transform="translate(9.158 24.725)">
                    <path id="Path_22972" data-name="Path 22972" d="M772.362,3473.4H751.649c0-1.238,1.278-2.243,2.855-2.243h15c1.576,0,2.855,1,2.855,2.242Z" transform="translate(-751.345 -3470.907)" fill="#ebebeb"/>
                    <path id="Path_22973" data-name="Path 22973" d="M772.4,3473.433H751.075v-.254c0-1.376,1.417-2.5,3.159-2.5h15c1.742,0,3.159,1.119,3.159,2.5Zm-20.692-.507h20.064a2.423,2.423,0,0,0-2.53-1.735h-15A2.422,2.422,0,0,0,751.7,3472.926Z" transform="translate(-751.075 -3470.683)" fill="#ebebeb"/>
                  </g>
                </g>
              </g>
            </g>
          </g>
        </g>
      </g>
    </g>
    <g id="Group_15628" data-name="Group 15628" transform="translate(621.679 3292.873)">
      <g id="Group_15627" data-name="Group 15627" transform="translate(0)">
        <path id="Path_22974" data-name="Path 22974" d="M845.9,3618.434l-1.685-.179,10.7-55.146,3.56.585,39.361,4.668-1.076,10.108-.1-.011.764,45.756-1.685-.179-4.866-46.193-31.239-3.326Z" transform="translate(-844.214 -3506.919)" fill="#ffac00"/>
        <path id="Path_22975" data-name="Path 22975" d="M940.613,3461.69c2.346-6.7,11.409-4.35,19.422-2.687,5.761,1.191,6.925,3.711,6,9.533l-12.358,50.071c-.9,5.808-6.085,9.167-11.494,7.448s-16.4-6.65-15.348-12.442Z" transform="translate(-882.966 -3457.209)" fill="#ffac00"/>
        <path id="Path_22976" data-name="Path 22976" d="M858.548,3635.2l-1.384-.148L867.9,3584.3l-7.942-8.873L885.77,3578l30.409,2.913-1.015,8.418.561,52.268-1.122-.12-5.027-52.743-35.841-3.815Z" transform="translate(-850.293 -3512.702)" fill="#ffac00"/>
        <path id="Path_22977" data-name="Path 22977" d="M854.871,3561.534a2.087,2.087,0,0,1,1.957-3.222l31.379,3.212a26.753,26.753,0,0,1,8.177,2.449l17.014,7.745c.042.019.085.04.126.061,2.025,1.071,1.751,1.762-.636,1.508l-53.193-5.791a2.085,2.085,0,0,1-1.519-.929Z" transform="translate(-849.053 -3504.662)" fill="#ffac00"/>
      </g>
    </g>
    <g id="Group_15629" data-name="Group 15629" transform="translate(643.11 3260.009)">
      <path id="Path_22978" data-name="Path 22978" d="M911.282,3414.794c-3.934-3.889-2.442-10.505,3.715-12.989,0,0-4.731-5.742,7.669-6.489s17.261,8,17.437,9.888c0,0,9.574-2.134,5.67,8.582,0,0,4.57,1.677,4.887,7.813.237,4.6-3.654,10-7.313,8.673,0,0-.107,9.209-7.406,9.218a10.324,10.324,0,0,1-9.66-6.166,2.27,2.27,0,0,1-2.449,2.592,8.1,8.1,0,0,1-4.862-2.251s.631,2.9-.728,2.864-1.449-4.148-1.449-4.148-2.57,2.478-4.815-.252,1.836-9.159,1.836-9.159Z" transform="translate(-909.105 -3395.271)" fill="#c3e8e6"/>
    </g>
    <g id="Group_15633" data-name="Group 15633" transform="translate(636.244 3287.012)">
      <g id="Group_15630" data-name="Group 15630" transform="translate(0)">
        <path id="Path_22979" data-name="Path 22979" d="M935.886,3446.164l-6.88,4.044-1.644,14.571,5.486-1.8Z" transform="translate(-910.467 -3446.164)" fill="#ffac00"/>
        <path id="Path_22980" data-name="Path 22980" d="M895.935,3539.324c13.762,8.8,19.166,5.811,27.315,5.692.513-11.547-5.8-19.654-5.672-27.731.24-14.973,13.482-32.177,3.157-39.254-10.964-7.514-25.215,25.271-25.215,25.271C906.509,3509.918,901.2,3521.565,895.935,3539.324Z" transform="translate(-895.519 -3460.597)" fill="#03b4e9"/>
        <path id="Path_22981" data-name="Path 22981" d="M931.953,3476.186,930,3475.9l-9.019,8,2.533,2.271S929.576,3480.333,931.953,3476.186Z" transform="translate(-907.47 -3460.121)" fill="#fff"/>
        <path id="Path_22982" data-name="Path 22982" d="M913.865,3486.192l-.12-.094c2.452-4.551,7.723-11.478,12.6-10.879C921.776,3479.057,913.865,3486.192,913.865,3486.192Z" transform="translate(-904.074 -3459.785)" fill="#ffac00"/>
      </g>
      <g id="Group_15632" data-name="Group 15632" transform="translate(0.629 18.926)">
        <g id="Group_15631" data-name="Group 15631">
          <path id="Path_22983" data-name="Path 22983" d="M942.07,3481.908c7.01-2.12,12.518,41.38,12.128,42.889,0,0-3.74,1.616-4.724.062C946.93,3520.84,938.94,3482.854,942.07,3481.908Z" transform="translate(-917.663 -3481.833)" fill="#fff4ba"/>
          <path id="Path_22984" data-name="Path 22984" d="M904.907,3565.479c.691,5.712,31.093-3.874,32.052-4.637,0,0,.936-4.27-.489-4.478C932.783,3555.829,904.6,3562.928,904.907,3565.479Z" transform="translate(-900.553 -3516.805)" fill="#fff4ba"/>
          <path id="Path_22985" data-name="Path 22985" d="M896.743,3569.232l.35-1.724,6.04-2.873s.023,3.112-.389,3.76S896.743,3569.232,896.743,3569.232Z" transform="translate(-896.722 -3520.7)" fill="#f5f6f6"/>
          <path id="Path_22986" data-name="Path 22986" d="M896.7,3573.061l.383,1.728,6.128,2.7s-.033-3.141-.461-3.781S896.7,3573.061,896.7,3573.061Z" transform="translate(-896.704 -3524.656)" fill="#f5f6f6"/>
        </g>
      </g>
    </g>
    <g id="Group_15639" data-name="Group 15639" transform="translate(642.79 3264.838)">
      <g id="Group_15638" data-name="Group 15638">
        <g id="Group_15637" data-name="Group 15637">
          <g id="Group_15636" data-name="Group 15636">
            <g id="Group_15635" data-name="Group 15635">
              <g id="Group_15634" data-name="Group 15634" transform="translate(0 2.579)">
                <path id="Path_22987" data-name="Path 22987" d="M917.18,3441.625c-1.312.092-4.131-6.527-5.193-11.679-.35-1.7,1.482-2.029.96-7.872-.307-3.43.949-8.295,6.463-12.106,5.206-3.6,6.35,7.033,6.986,9.463,1.813,6.922,3.911,11.2,2.348,14.721C925.692,3441.024,918.575,3441.188,917.18,3441.625Z" transform="translate(-910.526 -3409.232)" fill="#f8c471"/>
                <path id="Path_22988" data-name="Path 22988" d="M920.609,3452.808a.3.3,0,0,0-.3-.309.319.319,0,0,0-.238.367.3.3,0,0,0,.3.309A.318.318,0,0,0,920.609,3452.808Z" transform="translate(-914.343 -3429.541)" fill="#ffab00"/>
                <path id="Path_22989" data-name="Path 22989" d="M919.34,3435.351c-.1-.92-.686-1.6-1.317-1.529s-1.068.885-.972,1.8.686,1.6,1.317,1.529S919.435,3436.272,919.34,3435.351Z" transform="translate(-912.918 -3420.772)" fill="#2d356b"/>
                <path id="Path_22990" data-name="Path 22990" d="M919.676,3435.375c-.976-1.214-2.332-2.4-4.688-1.387A8.843,8.843,0,0,1,919.676,3435.375Z" transform="translate(-911.955 -3420.673)" fill="#2d356b"/>
                <path id="Path_22991" data-name="Path 22991" d="M916.994,3460.251c-.054-.211-.66.593-.971.642-.878.136-.548,1.246.322,1.019C916.686,3461.823,917.051,3460.475,916.994,3460.251Z" transform="translate(-912.199 -3433.164)" fill="#f36973"/>
                <path id="Path_22992" data-name="Path 22992" d="M916.75,3453.2c.582-.28-3.539-1.163-2.712.157A6.368,6.368,0,0,0,916.75,3453.2Z" transform="translate(-911.457 -3429.615)" fill="#f36973"/>
                <path id="Path_22993" data-name="Path 22993" d="M914.315,3425.687a5.392,5.392,0,0,1,6.719,2.932C919.121,3426.347,917.7,3425.548,914.315,3425.687Z" transform="translate(-911.639 -3416.829)" fill="#2d356b"/>
                <path id="Path_22994" data-name="Path 22994" d="M910.256,3444.155l2.074.48-.287-5.192-2.77,3.9Z" transform="translate(-909.272 -3423.413)" fill="#f8c471"/>
                <path id="Path_22995" data-name="Path 22995" d="M912.345,3450.949l-1.8-3.1,1.521-.16Z" transform="translate(-909.868 -3427.283)" fill="#f8c471"/>
                <path id="Path_22996" data-name="Path 22996" d="M915,3457.868a38.427,38.427,0,0,1-1.315-4.433l3.668-.255S916.893,3457.114,915,3457.868Z" transform="translate(-911.343 -3429.861)" fill="#ffab00"/>
                <path id="Path_22997" data-name="Path 22997" d="M916.618,3455.517l-2.089.145c-.16-.557-.313-1.141-.458-1.747l3-.208Z" transform="translate(-911.525 -3430.108)" fill="#fff"/>
                <path id="Path_22998" data-name="Path 22998" d="M945.5,3439.093c-.194-1.594-.818-2.736.392-2.881s2.351,1.031,2.545,2.627-.633,3.005-1.845,3.152S945.69,3440.689,945.5,3439.093Z" transform="translate(-926.12 -3421.891)" fill="#ffac00"/>
              </g>
              <path id="Path_22999" data-name="Path 22999" d="M922.424,3404.378c1.1,3.755,4.317,13.218,9.787,14.811,0,0,2.811-8.583-2.362-11.471C923.318,3404.07,922.424,3404.378,922.424,3404.378Z" transform="translate(-915.446 -3404.372)" fill="#c3e8e6"/>
            </g>
          </g>
        </g>
      </g>
    </g>
    <g id="Group_15647" data-name="Group 15647" transform="translate(507.172 3387.573)">
      <g id="Group_15646" data-name="Group 15646" transform="translate(0 0)">
        <g id="Group_15640" data-name="Group 15640" transform="translate(8.829)">
          <path id="Path_23000" data-name="Path 23000" d="M704.531,3657.112s-.731-4.918-1.061-6c-.428-1.4-.637-3.479.539-4.7s1.354-4.107,1.354-4.548.441-7.055,5.292-6.076c0,0,2.009.49,1.029,4.018,0,0-1.029,2.107.27,3.43a5.372,5.372,0,0,1,0,7.3c-2.425,2.94-1.735,4.016-1.347,5.145,1.767,5.146-1.993,9.871-2.4,11.132s-.9,3.33-.489,4.521l-1.426.026Z" transform="translate(-703.131 -3635.686)" fill="#ebebeb"/>
        </g>
        <g id="Group_15641" data-name="Group 15641" transform="translate(12.355 4.979)">
          <path id="Path_23001" data-name="Path 23001" d="M710.167,3675.95a.2.2,0,0,0,.043,0,.215.215,0,0,0,.168-.255c-.545-2.654.412-7.384.421-7.432.527-2.013.681-4.586-.194-11.145a25.179,25.179,0,0,1,.266-8.6,14.382,14.382,0,0,1,1-3.126.216.216,0,0,0-.385-.2,14.479,14.479,0,0,0-1.03,3.211,25.608,25.608,0,0,0-.276,8.772c.862,6.468.7,9.071.2,10.99-.043.208-.987,4.875-.424,7.616A.216.216,0,0,0,710.167,3675.95Z" transform="translate(-709.777 -3645.07)" fill="#fff"/>
        </g>
        <g id="Group_15642" data-name="Group 15642" transform="translate(13.526 18.897)">
          <path id="Path_23002" data-name="Path 23002" d="M713.672,3688.177s0-1.159,2.38-2.258a3.976,3.976,0,0,0,2.38-2.868c.61-2.319,2.319-1.708,3.417-1.038s3.594,0,3.6-3.479a2.308,2.308,0,0,1,.851-2.807c1.593-.977,2.2-4.464-1.213-4.428s-6.637,1.723-9.947,6.625c-4.6,6.814-2.81,10.251-2.81,10.251Z" transform="translate(-711.984 -3671.3)" fill="#ebebeb"/>
        </g>
        <g id="Group_15643" data-name="Group 15643" transform="translate(13.933 21.34)">
          <path id="Path_23003" data-name="Path 23003" d="M713.119,3690.554a.21.21,0,0,0,.066-.01.22.22,0,0,0,.139-.271,5.215,5.215,0,0,1-.014-2.275.234.234,0,0,0,.017-.044c1.845-6.965,10.945-11.594,11.036-11.639a.216.216,0,1,0-.193-.385c-.093.047-9.348,4.755-11.254,11.894a5.1,5.1,0,0,0,0,2.583A.21.21,0,0,0,713.119,3690.554Z" transform="translate(-712.75 -3675.906)" fill="#fff"/>
        </g>
        <g id="Group_15644" data-name="Group 15644" transform="translate(0 8.568)">
          <path id="Path_23004" data-name="Path 23004" d="M696.695,3678.936a4.245,4.245,0,0,1-2.009-4.263,2.984,2.984,0,0,0-2.646-3.577c-.588-.1-4.409-1.666-3.821-7.4,0,0,.2-3.675-.49-5s-2.4-5.292,0-6.516,4.067.979,4.949,3.233a12.5,12.5,0,0,0,1.274,3.234c.588.637,4.85,4.361,4.508,12.1l-.834,8.182Z" transform="translate(-686.492 -3651.833)" fill="#ebebeb"/>
        </g>
        <g id="Group_15645" data-name="Group 15645" transform="translate(3.422 13.075)">
          <path id="Path_23005" data-name="Path 23005" d="M700.114,3683.138a.215.215,0,0,0,.215-.208c.248-6.59-2.61-15.184-4.249-17.667a44.355,44.355,0,0,1-2.729-4.812.215.215,0,1,0-.39.184,44.693,44.693,0,0,0,2.759,4.866c1.612,2.443,4.423,10.909,4.178,17.414a.216.216,0,0,0,.207.224Z" transform="translate(-692.941 -3660.328)" fill="#fff"/>
        </g>
      </g>
      <path id="Path_23006" data-name="Path 23006" d="M708.331,3715.263h-9.24l-2.236-12.66h13.713Z" transform="translate(-691.357 -3667.097)" fill="#ebebeb"/>
    </g>
    <g id="Group_15651" data-name="Group 15651" transform="translate(546.483 3304.781)">
      <g id="Group_15650" data-name="Group 15650">
        <g id="Group_15648" data-name="Group 15648" transform="translate(0 35.706)">
          <rect id="Rectangle_5668" data-name="Rectangle 5668" width="172.226" height="5.169" fill="#40558d"/>
          <rect id="Rectangle_5669" data-name="Rectangle 5669" width="159.993" height="92.896" transform="translate(6.345 1.994)" fill="#40558d"/>
          <rect id="Rectangle_5670" data-name="Rectangle 5670" width="49.646" height="92.896" transform="translate(116.692 1.994)" fill="#7b87ab"/>
          <rect id="Rectangle_5671" data-name="Rectangle 5671" width="172.226" height="6.728" transform="translate(0 1.994)" fill="#2d356b"/>
        </g>
        <g id="Group_15649" data-name="Group 15649" transform="translate(44.121)">
          <path id="Path_23007" data-name="Path 23007" d="M833.448,3512.934H793.5a2.47,2.47,0,0,1-2.427-2.009l-5.384-28.341a2.47,2.47,0,0,1,2.427-2.931h39.945a2.47,2.47,0,0,1,2.427,2.009L835.875,3510A2.471,2.471,0,0,1,833.448,3512.934Z" transform="translate(-785.649 -3479.652)" fill="#cfd0d8"/>
          <path id="Path_23008" data-name="Path 23008" d="M868.379,3482.074a1.339,1.339,0,1,0-1.971.922l5.383,28.341a1.339,1.339,0,1,0,1.972-.922Z" transform="translate(-823.537 -3480.065)" fill="#ebebeb"/>
          <path id="Path_23009" data-name="Path 23009" d="M864.665,3545.188h-61.4a2.811,2.811,0,0,1-2.811-2.811h67.023A2.811,2.811,0,0,1,864.665,3545.188Z" transform="translate(-792.598 -3509.095)" fill="#9898a4"/>
          <path id="Path_23010" data-name="Path 23010" d="M903.9,3542.376H878.056a3.019,3.019,0,0,0,3.19,2.811h19.467A3.019,3.019,0,0,0,903.9,3542.376Z" transform="translate(-829.025 -3509.095)" fill="#cfd0d8"/>
          <circle id="Ellipse_227" data-name="Ellipse 227" cx="2.835" cy="2.835" r="2.835" transform="translate(20.541 15.106) rotate(-22.5)" fill="#fff4ba"/>
        </g>
      </g>
    </g>
    <g id="Group_15659" data-name="Group 15659" transform="translate(704.15 3387.573)">
      <g id="Group_15658" data-name="Group 15658" transform="translate(0 0)">
        <g id="Group_15652" data-name="Group 15652" transform="translate(8.829)">
          <path id="Path_23011" data-name="Path 23011" d="M1017.684,3657.112s-.731-4.918-1.062-6c-.428-1.4-.637-3.479.539-4.7s1.354-4.107,1.354-4.548.441-7.055,5.292-6.076c0,0,2.009.49,1.029,4.018,0,0-1.029,2.107.27,3.43a5.372,5.372,0,0,1,0,7.3c-2.425,2.94-1.735,4.016-1.347,5.145,1.766,5.146-1.993,9.871-2.4,11.132s-.9,3.33-.489,4.521l-1.427.026Z" transform="translate(-1016.284 -3635.686)" fill="#ebebeb"/>
        </g>
        <g id="Group_15653" data-name="Group 15653" transform="translate(12.355 4.979)">
          <path id="Path_23012" data-name="Path 23012" d="M1023.319,3675.95a.2.2,0,0,0,.044,0,.216.216,0,0,0,.168-.255c-.546-2.654.412-7.384.421-7.432.527-2.013.681-4.586-.194-11.145a25.185,25.185,0,0,1,.266-8.6,14.444,14.444,0,0,1,1-3.126.216.216,0,0,0-.385-.2,14.509,14.509,0,0,0-1.029,3.211,25.607,25.607,0,0,0-.276,8.772c.862,6.468.7,9.071.2,10.99-.043.208-.987,4.875-.424,7.616A.215.215,0,0,0,1023.319,3675.95Z" transform="translate(-1022.93 -3645.07)" fill="#fff"/>
        </g>
        <g id="Group_15654" data-name="Group 15654" transform="translate(13.526 18.897)">
          <path id="Path_23013" data-name="Path 23013" d="M1026.825,3688.177s0-1.159,2.38-2.258a3.976,3.976,0,0,0,2.38-2.868c.61-2.319,2.319-1.708,3.417-1.038s3.594,0,3.6-3.479a2.309,2.309,0,0,1,.851-2.807c1.593-.977,2.2-4.464-1.214-4.428s-6.636,1.723-9.946,6.625c-4.6,6.814-2.81,10.251-2.81,10.251Z" transform="translate(-1025.136 -3671.3)" fill="#ebebeb"/>
        </g>
        <g id="Group_15655" data-name="Group 15655" transform="translate(13.932 21.34)">
          <path id="Path_23014" data-name="Path 23014" d="M1026.271,3690.554a.211.211,0,0,0,.066-.01.22.22,0,0,0,.139-.271,5.219,5.219,0,0,1-.014-2.275.274.274,0,0,0,.017-.044c1.845-6.965,10.945-11.594,11.036-11.639a.215.215,0,1,0-.193-.385c-.093.047-9.348,4.755-11.255,11.894a5.1,5.1,0,0,0,0,2.583A.211.211,0,0,0,1026.271,3690.554Z" transform="translate(-1025.902 -3675.906)" fill="#fff"/>
        </g>
        <g id="Group_15656" data-name="Group 15656" transform="translate(0 8.568)">
          <path id="Path_23015" data-name="Path 23015" d="M1009.847,3678.936a4.246,4.246,0,0,1-2.009-4.263,2.984,2.984,0,0,0-2.646-3.577c-.588-.1-4.41-1.666-3.822-7.4,0,0,.2-3.675-.49-5s-2.4-5.292,0-6.516,4.067.979,4.948,3.233a12.517,12.517,0,0,0,1.274,3.234c.588.637,4.851,4.361,4.508,12.1l-.835,8.182Z" transform="translate(-999.645 -3651.833)" fill="#ebebeb"/>
        </g>
        <g id="Group_15657" data-name="Group 15657" transform="translate(3.421 13.075)">
          <path id="Path_23016" data-name="Path 23016" d="M1013.266,3683.138a.215.215,0,0,0,.215-.208c.248-6.59-2.61-15.184-4.249-17.667a44.251,44.251,0,0,1-2.729-4.812.215.215,0,0,0-.39.184,44.47,44.47,0,0,0,2.759,4.866c1.612,2.443,4.423,10.909,4.178,17.414a.216.216,0,0,0,.207.224Z" transform="translate(-1006.093 -3660.328)" fill="#fff"/>
        </g>
      </g>
      <path id="Path_23017" data-name="Path 23017" d="M1021.484,3715.263h-9.24l-2.236-12.66h13.713Z" transform="translate(-1004.509 -3667.097)" fill="#ebebeb"/>
    </g>
    <g id="Group_15660" data-name="Group 15660" transform="translate(651.775 3305.676)">
      <rect id="Rectangle_5672" data-name="Rectangle 5672" width="59.62" height="32.078" rx="6.672" fill="#fff" stroke="#231f20" stroke-miterlimit="10" stroke-width="0.25"/>
      <text id="Brenda" transform="translate(13.31 19.539)" fill="#2d356b" font-size="10" font-family="TrebuchetMS-Bold, Trebuchet MS" font-weight="700"><tspan x="0" y="0">Brenda</tspan></text>
    </g>
    <g id="Group_15663" data-name="Group 15663" transform="translate(333.732 3112.177)">
      <g id="Group_15662" data-name="Group 15662">
        <path id="Path_23018" data-name="Path 23018" d="M795.9,3216.893c2.341,13.857-19.8,27.953-48.974,34.546-30.99,7-71.085.105-90.77-15.405-15.673,8.633-39.512,15.349-66.8,17.825-50.306,4.565-93.277-7-95.979-25.833-.537-3.744.563-7.493,3.057-11.133-42.571,7.4-67.484-.308-77.886-21.545-7.675-15.671,14.9-43.39,76.291-48.961,7.828-.711,15.5-1.184,22.928-1.439-.158-.519-2.326-3.464.9-8.631,14.019-22.462,62.737-26.211,113.511-21.815,42.753,3.7,64,18.031,73.791,31.049,0,0,134.186-19.839,145.088,24.746,0,0,.594,3.169.728,4.448C853.471,3182.022,836.224,3224.49,795.9,3216.893Z" transform="translate(-449.137 -3112.89)" fill="#fff" stroke="#ebebeb" stroke-miterlimit="10" stroke-width="1"/>
        <circle id="Ellipse_228" data-name="Ellipse 228" cx="8.837" cy="8.837" r="8.837" transform="translate(37.383 107.123)" fill="#fff" stroke="#ebebeb" stroke-miterlimit="10" stroke-width="1"/>
        <circle id="Ellipse_229" data-name="Ellipse 229" cx="5.237" cy="5.237" r="5.237" transform="translate(29.753 116.352)" fill="#fff" stroke="#ebebeb" stroke-miterlimit="10" stroke-width="1"/>
        <circle id="Ellipse_230" data-name="Ellipse 230" cx="4.479" cy="4.479" r="4.479" transform="translate(22.102 129.861)" fill="#fff" stroke="#ebebeb" stroke-miterlimit="10" stroke-width="1"/>
      </g>
    </g>
    <g id="Group_15679" data-name="Group 15679" transform="translate(283.617 3214.231)">
      <g id="Group_15678" data-name="Group 15678" transform="translate(0)">
        <g id="Group_15664" data-name="Group 15664" transform="translate(5.611 95.113)">
          <path id="Path_23019" data-name="Path 23019" d="M398.487,3496.617l9.163,1.724c8.058,28.783,6.079,63.1,24.086,121.864,0,0-1.72.75-1.968,0-14.982-45.441-23.174-81.069-26.082-85.965C397.226,3523.363,389.149,3514.115,398.487,3496.617Z" transform="translate(-369.285 -3492.178)" fill="#ffd8a3"/>
          <path id="Path_23020" data-name="Path 23020" d="M374.819,3493.263c-11.277,21.032-2.833,19.4-2.467,30.279,1.057,31.367-18.941,47.323-25.15,95.3,0,0,2.458-.125,2.528-.819,3.857-38.278,37.775-74.9,39.17-110.439.09-2.292.19-9.136-2.482-11.587C382.332,3492.254,374.819,3493.263,374.819,3493.263Z" transform="translate(-347.202 -3490.545)" fill="#f7c371"/>
          <path id="Path_23021" data-name="Path 23021" d="M354.685,3728.366h-7.369s-.357-2.092,1.288-2.427C349.638,3725.728,351.469,3726.216,354.685,3728.366Z" transform="translate(-347.24 -3599.801)" fill="#7b88ac"/>
          <path id="Path_23022" data-name="Path 23022" d="M467.66,3728.707h-6.478s-.313-2.091,1.132-2.427C463.223,3726.069,464.833,3726.555,467.66,3728.707Z" transform="translate(-400.691 -3599.961)" fill="#7b88ac"/>
          <path id="Path_23023" data-name="Path 23023" d="M373.008,3562.49s30.936,4.974,38.025,2.985c0,0-6.767-70.3-11.6-74.61s-13.534-1.99-13.534-1.99a27.351,27.351,0,0,0-4.511,29.181C387.831,3533.309,373.008,3562.49,373.008,3562.49Z" transform="translate(-359.315 -3488.251)" fill="#03b4e9"/>
        </g>
        <g id="Group_15677" data-name="Group 15677">
          <g id="Group_15667" data-name="Group 15667" transform="translate(22.389 44.115)">
            <g id="Group_15665" data-name="Group 15665" transform="translate(28.573 18.979)">
              <path id="Path_23024" data-name="Path 23024" d="M433.607,3441.475c1.93-1.291,7.636-.887,7.21-2.867-.38-1.774-3.617-4.061-8.143,1.329Z" transform="translate(-432.674 -3431.975)" fill="#f8c471"/>
              <path id="Path_23025" data-name="Path 23025" d="M438,3436.932c.474,3.174,4.34,2.583,5.513,2.116,1.29-.515,1.591-3.025.841-3.839S437.817,3435.718,438,3436.932Z" transform="translate(-435.17 -3431.217)" fill="#f8c471"/>
              <path id="Path_23026" data-name="Path 23026" d="M442.132,3432.041c1.042-1.58,1.472-3.887.785-4.113-.776-.257-.773,1.8-2.053,2.986-1.384,1.292-2.185,2.176-1.717,2.737S441.091,3433.624,442.132,3432.041Z" transform="translate(-435.649 -3427.906)" fill="#f8c471"/>
              <path id="Path_23027" data-name="Path 23027" d="M447.973,3433.87c1.5-.608,2.148-1.271,1.941-1.651s-1.042.019-2.544.624-3.562,1-3.355,1.384S446.47,3434.474,447.973,3433.87Z" transform="translate(-437.99 -3429.86)" fill="#f8c471"/>
              <path id="Path_23028" data-name="Path 23028" d="M449.864,3437.33c1.627-.3,2.9-1.279,2.776-1.686s-1.55.224-3.177.524-2.664.58-2.539.987S448.238,3437.628,449.864,3437.33Z" transform="translate(-439.358 -3431.476)" fill="#f8c471"/>
              <path id="Path_23029" data-name="Path 23029" d="M448,3441.018c1.611-.364,2.429-.932,2.293-1.334s-1.151.039-2.762.4-2.735.642-2.6,1.045S446.383,3441.382,448,3441.018Z" transform="translate(-438.421 -3433.359)" fill="#f8c471"/>
            </g>
            <g id="Group_15666" data-name="Group 15666">
              <path id="Path_23030" data-name="Path 23030" d="M397.6,3392.347c-5.2-3.18-18.77,30.669-18.773,31.965,0,0,2.671,2.086,3.788,1.043C385.5,3422.655,399.916,3393.766,397.6,3392.347Z" transform="translate(-378.823 -3392.136)" fill="#f8c471"/>
              <path id="Path_23031" data-name="Path 23031" d="M407.963,3442.232c1.262,4.616-25.161,6.788-26.139,6.5,0,0-2.063-2.994-1.03-3.6C383.464,3443.561,407.4,3440.171,407.963,3442.232Z" transform="translate(-379.612 -3415.348)" fill="#f8c471"/>
              <path id="Path_23032" data-name="Path 23032" d="M429.486,3441.533l-.761-1.249-5.537-.54a11.388,11.388,0,0,0,1.367,2.832C425.061,3442.965,429.486,3441.533,429.486,3441.533Z" transform="translate(-399.648 -3414.483)" fill="#eaeaea"/>
              <path id="Path_23033" data-name="Path 23033" d="M430.979,3442.919l.188,1.46-4.031,3.84a11.429,11.429,0,0,1-.708-3.087C426.581,3444.51,430.979,3442.919,430.979,3442.919Z" transform="translate(-401.16 -3415.974)" fill="#eaeaea"/>
            </g>
          </g>
          <g id="Group_15673" data-name="Group 15673">
            <g id="Group_15672" data-name="Group 15672">
              <g id="Group_15668" data-name="Group 15668" transform="translate(0 1.232)">
                <path id="Path_23034" data-name="Path 23034" d="M379.765,3368.555c6.038-4.9-2.655-6.865-1.847-11.534s1.707-3.093,2.986-9.1-.141-8.4.055-11.948,3.071-9.131,1.446-13.781-2.989-3.245-4.44-6.96-3.474.019-6.558,1.336-5.692-7.49-11.144-4.706-5.552,9.4-7.429,12.941-7.141,4.574-8.529,11.091,2.409,5.355.35,9.758-6.565,3.622-7.953,10.14c0,0-1.21,6.555,6.2,6.878s4.742,4.058,12.979,2.228,4.917,4.992,10.794,2.837S374.371,3372.929,379.765,3368.555Z" transform="translate(-336.628 -3311.317)" fill="#2d356b"/>
              </g>
              <g id="Group_15669" data-name="Group 15669" transform="translate(24.802 22.434)">
                <path id="Path_23035" data-name="Path 23035" d="M392.514,3351.277l6.828,4.29,1.226,14.765-5.486-1.984Z" transform="translate(-387.663 -3351.277)" fill="#f7c371"/>
                <path id="Path_23036" data-name="Path 23036" d="M409.244,3452.5c-4.388-2.874-14.575-9.229-25.872-1.361,3.379-9.922,6.447-19.677,6.556-27.839.2-15.13-12.656-32.9-2.017-39.742,11.3-7.263,24.712,26.275,24.712,26.275C401.326,3416.194,404.452,3434.411,409.244,3452.5Z" transform="translate(-383.372 -3365.948)" fill="#ffac00"/>
                <path id="Path_23037" data-name="Path 23037" d="M393.394,3381.7l1.984-.233,8.871,8.345-2.626,2.218S395.67,3385.963,393.394,3381.7Z" transform="translate(-388.076 -3365.449)" fill="#fff"/>
                <path id="Path_23038" data-name="Path 23038" d="M409.923,3392.268l.124-.09c-2.341-4.671-7.458-11.824-12.4-11.365C402.146,3384.826,409.923,3392.268,409.923,3392.268Z" transform="translate(-390.074 -3365.131)" fill="#f7c371"/>
              </g>
              <g id="Group_15671" data-name="Group 15671" transform="translate(19.664)">
                <g id="Group_15670" data-name="Group 15670">
                  <path id="Path_23039" data-name="Path 23039" d="M389.429,3340.486c-3.5-1.413-10.65-3.416-13.525-9.284-3.738-7.629-2.07-11.887.07-17.054,4.08-9.85,20.9-3.065,19.468-.19C393.537,3317.776,402.12,3345.6,389.429,3340.486Z" transform="translate(-373.688 -3308.995)" fill="#2d356b"/>
                  <path id="Path_23040" data-name="Path 23040" d="M404.036,3348.469c1.319.153,4.468-6.388,5.778-11.532.432-1.7-1.4-2.115-.6-7.98.469-3.444-.571-8.405-5.953-12.5-5.081-3.869-6.728,6.794-7.482,9.214-2.149,6.894-4.462,11.111-3.05,14.73C395.484,3347.468,402.651,3347.964,404.036,3348.469Z" transform="translate(-382.422 -3312.104)" fill="#ffd8a3"/>
                  <path id="Path_23041" data-name="Path 23041" d="M415.957,3359.963a.305.305,0,0,1,.313-.3.322.322,0,0,1,.223.381.306.306,0,0,1-.314.3A.321.321,0,0,1,415.957,3359.963Z" transform="translate(-393.527 -3332.778)" fill="#ffab00"/>
                  <path id="Path_23042" data-name="Path 23042" d="M416.4,3342.39c.139-.924.766-1.585,1.4-1.48s1.035.941.9,1.864-.765,1.585-1.4,1.48S416.263,3343.314,416.4,3342.39Z" transform="translate(-393.725 -3323.971)" fill="#2d356b"/>
                  <path id="Path_23043" data-name="Path 23043" d="M413.948,3342.372c1.041-1.179,2.462-2.311,4.79-1.181A8.928,8.928,0,0,0,413.948,3342.372Z" transform="translate(-392.586 -3323.889)" fill="#2d356b"/>
                  <path id="Path_23044" data-name="Path 23044" d="M418.413,3367.585c.065-.21.638.628.949.691.879.179.495,1.281-.373,1.013C418.651,3369.184,418.346,3367.809,418.413,3367.585Z" transform="translate(-394.678 -3336.482)" fill="#f36973"/>
                  <path id="Path_23045" data-name="Path 23045" d="M417.736,3360.513c-.574-.309,3.621-1.008,2.727.284A6.428,6.428,0,0,1,417.736,3360.513Z" transform="translate(-394.339 -3332.958)" fill="#f36973"/>
                  <path id="Path_23046" data-name="Path 23046" d="M417.932,3332.844a5.442,5.442,0,0,0-6.909,2.644C413.057,3333.286,414.523,3332.546,417.932,3332.844Z" transform="translate(-391.213 -3320.018)" fill="#2d356b"/>
                  <path id="Path_23047" data-name="Path 23047" d="M424.349,3351.619l-2.113.387.531-5.221,2.611,4.063Z" transform="translate(-396.477 -3326.734)" fill="#ffd8a3"/>
                  <path id="Path_23048" data-name="Path 23048" d="M423.127,3358.422l1.961-3.043-1.526-.232Z" transform="translate(-396.895 -3330.658)" fill="#ffd8a3"/>
                  <path id="Path_23049" data-name="Path 23049" d="M418.6,3365.183a38.677,38.677,0,0,0,1.531-4.407l-3.686-.428S416.726,3364.335,418.6,3365.183Z" transform="translate(-393.759 -3333.1)" fill="#ffab00"/>
                  <path id="Path_23050" data-name="Path 23050" d="M417.674,3362.766l2.1.243c.187-.554.368-1.135.543-1.74l-3.012-.35Z" transform="translate(-394.162 -3333.369)" fill="#fff"/>
                  <path id="Path_23051" data-name="Path 23051" d="M388.927,3344.953c.27-1.6.951-2.72-.262-2.922s-2.418.931-2.688,2.531.5,3.059,1.713,3.262S388.659,3346.553,388.927,3344.953Z" transform="translate(-379.432 -3324.49)" fill="#f7c371"/>
                </g>
                <path id="Path_23052" data-name="Path 23052" d="M406.38,3316.863c-4.549,5.4-12.324,13.167-11.659,21.691-2.4-9.272.5-20.931,6.954-25.122C402.192,3314.394,407.494,3314.737,406.38,3316.863Z" transform="translate(-383.168 -3311.078)" fill="#2d356b"/>
              </g>
            </g>
          </g>
          <g id="Group_15676" data-name="Group 15676" transform="translate(18.129 43.737)">
            <g id="Group_15674" data-name="Group 15674" transform="translate(30.66 16.215)">
              <path id="Path_23053" data-name="Path 23053" d="M430.084,3439.476c1.794-2.022,8.339-3.245,7.277-5.35-.95-1.886-5.268-3.509-8.78,3.891Z" transform="translate(-428.58 -3426.937)" fill="#ffd9a4"/>
              <path id="Path_23054" data-name="Path 23054" d="M433.3,3433.077c1.468,3.436,5.648,1.633,6.833.761,1.3-.959.9-3.875-.182-4.57S432.742,3431.763,433.3,3433.077Z" transform="translate(-430.779 -3425.357)" fill="#ffd9a4"/>
              <path id="Path_23055" data-name="Path 23055" d="M437.412,3426.848c.708-2.086.515-4.81-.326-4.863-.949-.062-.342,2.249-1.434,3.967-1.178,1.863-1.82,3.095-1.128,3.587S436.7,3428.937,437.412,3426.848Z" transform="translate(-431.236 -3421.984)" fill="#ffd9a4"/>
              <path id="Path_23056" data-name="Path 23056" d="M443.7,3426.708c1.514-1.127,2.045-2.064,1.7-2.431s-1.168.328-2.682,1.452-3.717,2.178-3.372,2.546S442.18,3427.829,443.7,3426.708Z" transform="translate(-433.615 -3423.013)" fill="#ffd9a4"/>
              <path id="Path_23057" data-name="Path 23057" d="M446.7,3430.087c1.744-.815,2.889-2.294,2.63-2.716s-1.681.708-3.424,1.524-2.83,1.438-2.569,1.859S444.96,3430.9,446.7,3430.087Z" transform="translate(-435.49 -3424.47)" fill="#ffd9a4"/>
              <path id="Path_23058" data-name="Path 23058" d="M445.675,3434.89c1.709-.884,2.461-1.764,2.191-2.177s-1.286.382-2.993,1.266-2.891,1.528-2.62,1.943S443.966,3435.775,445.675,3434.89Z" transform="translate(-434.98 -3426.968)" fill="#ffd9a4"/>
            </g>
            <g id="Group_15675" data-name="Group 15675">
              <path id="Path_23059" data-name="Path 23059" d="M382.556,3391.5c-6.786-2.053-12.119,40.062-11.742,41.522,0,0,3.621,1.565,4.574.061C377.851,3429.189,385.586,3392.413,382.556,3391.5Z" transform="translate(-370.796 -3391.424)" fill="#f8c471"/>
              <path id="Path_23060" data-name="Path 23060" d="M401.594,3442.622c2.78,4.827-26.341,15.046-27.528,15.011,0,0-3.2-2.766-2.22-3.754C374.393,3451.324,400.353,3440.466,401.594,3442.622Z" transform="translate(-371.201 -3415.324)" fill="#f8c471"/>
              <path id="Path_23061" data-name="Path 23061" d="M424.584,3441.351l-1.225-1.184-6.395,1.021s1.687,2.5,2.372,2.787S424.584,3441.351,424.584,3441.351Z" transform="translate(-392.467 -3414.304)" fill="#eaeaea"/>
              <path id="Path_23062" data-name="Path 23062" d="M427.267,3442.187l.641,1.588-3.411,5.511s-1.7-2.524-1.705-3.269S427.267,3442.187,427.267,3442.187Z" transform="translate(-395.203 -3415.252)" fill="#eaeaea"/>
            </g>
          </g>
        </g>
      </g>
    </g>
    <g id="Group_15661" data-name="Group 15661" transform="translate(292.097 3283.771)">
      <rect id="Rectangle_5673" data-name="Rectangle 5673" width="55.62" height="32.078" rx="6.672" transform="translate(0 0)" fill="#fff" stroke="#231f20" stroke-miterlimit="10" stroke-width="0.25"/>
      <text id="Akiko" transform="translate(14.81 19.54)" fill="#2d356b" font-size="10" font-family="TrebuchetMS-Bold, Trebuchet MS" font-weight="700"><tspan x="0" y="0">Akiko</tspan></text>
    </g>
  </g>
</svg>
