<svg xmlns="http://www.w3.org/2000/svg" width="544" height="366.962" viewBox="0 0 544 366.962">
  <g id="Group_11294" data-name="Group 11294" transform="translate(-235.406 -180.807)">
    <g id="Group_11244" data-name="Group 11244" transform="translate(235.406 180.807)">
      <g id="Group_11243" data-name="Group 11243">
        <g id="Group_11242" data-name="Group 11242">
          <g id="Group_11241" data-name="Group 11241">
            <g id="Group_11240" data-name="Group 11240">
              <g id="Group_11157" data-name="Group 11157">
                <g id="Group_11154" data-name="Group 11154" transform="translate(0.49)">
                  <g id="Group_11150" data-name="Group 11150" transform="translate(0.112)">
                    <path id="Path_15045" data-name="Path 15045" d="M779.227,194.348h.644V181.474h-543.4V450.528H779.221V423.5h.005Z" transform="translate(-236.472 -181.098)" fill="#fff"/>
                    <rect id="Rectangle_3429" data-name="Rectangle 3429" width="542.797" height="0.752" transform="translate(0 269.054)" fill="#a0bacb"/>
                    <rect id="Rectangle_3430" data-name="Rectangle 3430" width="543.398" height="0.752" fill="#7b88ac"/>
                  </g>
                  <g id="Group_11151" data-name="Group 11151" transform="translate(0 54.976)">
                    <path id="Path_15046" data-name="Path 15046" d="M318.586,279.107v-.2H311.4v.2H237.074V443.142H389.7V279.107Zm64.8,5.267v36.07h-64.8v-36.07ZM311.4,326.669v68.912h-68V326.669Zm7.19,68.912V326.669h64.8v68.912ZM311.4,284.375v36.07h-68v-36.07Zm-68,117.43h68v36.07h-68Zm75.193,36.07V401.8h64.8v36.07Z" transform="translate(-236.623 -278.534)" fill="#ebebeb"/>
                    <path id="Path_15047" data-name="Path 15047" d="M389.806,443.228H236.274V278.441H310.6v-.2h8.093v.2h71.117Zm-152.629-.753H388.9V279.194H317.786V279H311.5v.2H237.177Zm146.31-4.514h-65.7V401.138h65.7Zm-64.8-.753h63.9V401.891h-63.9Zm-7.19.753H242.593V401.138H311.5Zm-68-.753h67.1V401.891H243.5Zm139.992-41.542h-65.7V326h65.7Zm-64.8-.752h63.9V326.755h-63.9Zm-7.19.752H242.593V326H311.5Zm-68-.752h67.1V326.755H243.5ZM383.487,320.53h-65.7V283.708h65.7Zm-64.8-.752h63.9V284.461h-63.9Zm-7.19.752H242.593V283.708H311.5Zm-68-.752h67.1V284.461H243.5Z" transform="translate(-236.274 -278.244)" fill="#ebebeb"/>
                  </g>
                  <g id="Group_11152" data-name="Group 11152" transform="translate(210.678 54.005)">
                    <path id="Path_15048" data-name="Path 15048" d="M653.986,277.388v-.2H646.8v.2H572.474V441.422H725.1V277.388Zm64.8,5.267v36.07h-64.8v-36.07ZM646.8,324.949V393.86h-68V324.949Zm7.19,68.911V324.949h64.8V393.86ZM646.8,282.655v36.07h-68v-36.07Zm-68,117.43h68v36.07h-68Zm75.193,36.07v-36.07h64.8v36.07Z" transform="translate(-572.023 -276.814)" fill="#ebebeb"/>
                    <path id="Path_15049" data-name="Path 15049" d="M725.206,441.507H571.674V276.72H646v-.2h8.093v.2h71.117Zm-152.629-.752H724.3V277.473H653.186v-.2H646.9v.2H572.577Zm146.31-4.515h-65.7V399.418h65.7Zm-64.8-.752h63.9V400.17h-63.9Zm-7.19.752H577.993V399.418H646.9Zm-68-.752H646V400.17H578.9Zm139.992-41.542h-65.7V324.282h65.7Zm-64.8-.752h63.9V325.035h-63.9Zm-7.19.752H577.993V324.282H646.9Zm-68-.752H646V325.035H578.9ZM718.887,318.81h-65.7V281.988h65.7Zm-64.8-.753h63.9V282.74h-63.9Zm-7.19.753H577.993V281.988H646.9Zm-68-.753H646V282.74H578.9Z" transform="translate(-571.674 -276.523)" fill="#ebebeb"/>
                  </g>
                  <g id="Group_11153" data-name="Group 11153" transform="translate(422.434 54.976)">
                    <path id="Path_15050" data-name="Path 15050" d="M1035.47,437.875H996.955V401.8h38.516v-6.224H996.955V326.669h38.516v-6.225H996.955v-36.07h38.516v-5.267H996.955v-.2h-7.19v.2H915.442V443.142H1035.47Zm-45.706,0h-68V401.8h68Zm0-42.294h-68V326.669h68Zm0-75.136h-68v-36.07h68Z" transform="translate(-914.991 -278.534)" fill="#ebebeb"/>
                    <path id="Path_15051" data-name="Path 15051" d="M1059.11,532.877h38.967v-.752h-38.065V496.807h38.065v-.752H1059.11Z" transform="translate(-977.598 -373.16)" fill="#ebebeb"/>
                    <path id="Path_15052" data-name="Path 15052" d="M1059.11,432.552h38.967V431.8h-38.065V363.641h38.065v-.753H1059.11Z" transform="translate(-977.598 -315.13)" fill="#ebebeb"/>
                    <path id="Path_15053" data-name="Path 15053" d="M1059.11,324.751h38.967V324h-38.065V288.68h38.065v-.752H1059.11Z" transform="translate(-977.598 -282.464)" fill="#ebebeb"/>
                    <path id="Path_15054" data-name="Path 15054" d="M994.747,287.928H925.842v36.823h68.906Zm-.9,36.07h-67.1V288.681h67.1Z" transform="translate(-919.523 -282.464)" fill="#ebebeb"/>
                    <path id="Path_15055" data-name="Path 15055" d="M1035.122,442.475H915.546V279.193h74.322V279h6.287v.2h38.967v-.752H997.058v-.2h-8.093v.2H914.643V443.228h120.479Z" transform="translate(-914.643 -278.244)" fill="#ebebeb"/>
                    <path id="Path_15056" data-name="Path 15056" d="M925.842,532.877h68.906V496.054H925.842Zm.9-36.07h67.1v35.318h-67.1Z" transform="translate(-919.523 -373.16)" fill="#ebebeb"/>
                    <path id="Path_15057" data-name="Path 15057" d="M994.747,362.888H925.842v69.664h68.906Zm-.9,68.912h-67.1V363.641h67.1Z" transform="translate(-919.523 -315.129)" fill="#ebebeb"/>
                  </g>
                </g>
                <g id="Group_11155" data-name="Group 11155" transform="translate(0 237.038)">
                  <path id="Path_15058" data-name="Path 15058" d="M778.8,601.487H236.055V693.8h-.649v37.291H778.8V605.42h.006Z" transform="translate(-235.406 -601.167)" fill="#f9f9f9"/>
                  <rect id="Rectangle_3431" data-name="Rectangle 3431" width="541.748" height="0.539" transform="translate(1.8 129.181)" fill="#f9f9f9"/>
                  <rect id="Rectangle_3432" data-name="Rectangle 3432" width="542.802" height="0.539" transform="translate(0.602)" fill="#f9f9f9"/>
                </g>
                <g id="Group_11156" data-name="Group 11156" transform="translate(30.543 4.743)">
                  <path id="Path_15059" data-name="Path 15059" d="M849.546,269.709v-80.5h-1.928v80.5c-6.013.41-10.742,4.6-10.742,9.717,0,5.388,5.241,9.757,11.706,9.757s11.705-4.368,11.705-9.757C860.287,274.308,855.559,270.119,849.546,269.709Z" transform="translate(-497.307 -189.214)" fill="#c3e8e6"/>
                  <path id="Path_15060" data-name="Path 15060" d="M302.209,280.978v-80.5H300.28v80.5c-6.012.41-10.741,4.6-10.741,9.716,0,5.389,5.241,9.757,11.705,9.757s11.706-4.368,11.706-9.757C312.95,285.577,308.222,281.388,302.209,280.978Z" transform="translate(-289.539 -194.125)" fill="#c3e8e6"/>
                  <path id="Path_15061" data-name="Path 15061" d="M493.48,270.336V211.814h-1.4v58.522c-4.372.3-7.809,3.344-7.809,7.064,0,3.917,3.81,7.093,8.511,7.093s8.51-3.176,8.51-7.093C501.289,273.68,497.851,270.634,493.48,270.336Z" transform="translate(-363.63 -199.063)" fill="#c3e8e6"/>
                  <path id="Path_15062" data-name="Path 15062" d="M1016.435,270.336V211.814h-1.4v58.522c-4.372.3-7.809,3.344-7.809,7.064,0,3.917,3.81,7.093,8.511,7.093s8.51-3.176,8.51-7.093C1024.244,273.68,1020.806,270.634,1016.435,270.336Z" transform="translate(-562.606 -199.063)" fill="#c3e8e6"/>
                </g>
              </g>
              <g id="Group_11194" data-name="Group 11194" transform="translate(17.031 116.364)">
                <g id="Group_11166" data-name="Group 11166" transform="translate(0 22.575)">
                  <g id="Group_11158" data-name="Group 11158">
                    <rect id="Rectangle_3433" data-name="Rectangle 3433" width="49.533" height="1.769" transform="translate(0.452 0.376)" fill="#ebebeb"/>
                    <path id="Path_15063" data-name="Path 15063" d="M316.027,429.577H265.591v-2.522h50.436Zm-49.533-.752h48.63v-1.017h-48.63Z" transform="translate(-265.591 -427.055)" fill="#ebebeb"/>
                  </g>
                  <g id="Group_11159" data-name="Group 11159" transform="translate(0 26.688)">
                    <rect id="Rectangle_3434" data-name="Rectangle 3434" width="49.533" height="1.769" transform="translate(0.452 0.376)" fill="#ebebeb"/>
                    <path id="Path_15064" data-name="Path 15064" d="M316.027,476.878H265.591v-2.522h50.436Zm-49.533-.753h48.63v-1.017h-48.63Z" transform="translate(-265.591 -474.356)" fill="#ebebeb"/>
                  </g>
                  <g id="Group_11160" data-name="Group 11160" transform="translate(0 53.377)">
                    <rect id="Rectangle_3435" data-name="Rectangle 3435" width="49.533" height="1.769" transform="translate(0.452 0.376)" fill="#ebebeb"/>
                    <path id="Path_15065" data-name="Path 15065" d="M316.027,524.179H265.591v-2.522h50.436Zm-49.533-.753h48.63v-1.017h-48.63Z" transform="translate(-265.591 -521.657)" fill="#ebebeb"/>
                  </g>
                  <g id="Group_11165" data-name="Group 11165" transform="translate(0 0.59)">
                    <g id="Group_11161" data-name="Group 11161" transform="translate(0 80.064)">
                      <rect id="Rectangle_3436" data-name="Rectangle 3436" width="49.533" height="1.769" transform="translate(0.452 0.376)" fill="#ebebeb"/>
                      <path id="Path_15066" data-name="Path 15066" d="M316.027,572.523H265.591V570h50.436Zm-49.533-.752h48.63v-1.017h-48.63Z" transform="translate(-265.591 -570.002)" fill="#ebebeb"/>
                    </g>
                    <g id="Group_11162" data-name="Group 11162" transform="translate(0 105.607)">
                      <rect id="Rectangle_3437" data-name="Rectangle 3437" width="49.533" height="1.769" transform="translate(0.452 0.376)" fill="#ebebeb"/>
                      <path id="Path_15067" data-name="Path 15067" d="M316.027,617.8H265.591v-2.522h50.436Zm-49.533-.753h48.63v-1.017h-48.63Z" transform="translate(-265.591 -615.273)" fill="#ebebeb"/>
                    </g>
                    <g id="Group_11163" data-name="Group 11163">
                      <rect id="Rectangle_3438" data-name="Rectangle 3438" width="2.653" height="128.385" transform="translate(0.452 0.376)" fill="#ebebeb"/>
                      <path id="Path_15068" data-name="Path 15068" d="M269.147,557.238h-3.556V428.1h3.556Zm-2.654-.752h1.751V428.853h-1.751Z" transform="translate(-265.591 -428.101)" fill="#ebebeb"/>
                    </g>
                    <g id="Group_11164" data-name="Group 11164" transform="translate(46.879)">
                      <rect id="Rectangle_3439" data-name="Rectangle 3439" width="2.654" height="128.385" transform="translate(0.451 0.376)" fill="#ebebeb"/>
                      <path id="Path_15069" data-name="Path 15069" d="M352.233,557.238h-3.556V428.1h3.556Zm-2.654-.752h1.751V428.853H349.58Z" transform="translate(-348.677 -428.101)" fill="#ebebeb"/>
                    </g>
                  </g>
                </g>
                <g id="Group_11177" data-name="Group 11177" transform="translate(8.879 28.866)">
                  <g id="Group_11168" data-name="Group 11168">
                    <g id="Group_11167" data-name="Group 11167">
                      <rect id="Rectangle_3440" data-name="Rectangle 3440" width="5.189" height="20.397" transform="translate(0.451 0.376)" fill="#ebebeb"/>
                      <path id="Path_15070" data-name="Path 15070" d="M287.418,459.354h-6.091V438.205h6.091Zm-5.189-.752h4.286V438.958H282.23Z" transform="translate(-281.327 -438.205)" fill="#ebebeb"/>
                    </g>
                    <path id="Path_15071" data-name="Path 15071" d="M287.114,446.046a1.739,1.739,0,1,1-1.71-1.425A1.587,1.587,0,0,1,287.114,446.046Z" transform="translate(-282.358 -441.001)" fill="#ebebeb"/>
                  </g>
                  <g id="Group_11170" data-name="Group 11170" transform="translate(6.099)">
                    <g id="Group_11169" data-name="Group 11169">
                      <rect id="Rectangle_3441" data-name="Rectangle 3441" width="5.189" height="20.397" transform="translate(0.451 0.376)" fill="#ebebeb"/>
                      <path id="Path_15072" data-name="Path 15072" d="M298.229,459.354h-6.092V438.205h6.092Zm-5.189-.752h4.286V438.958H293.04Z" transform="translate(-292.137 -438.205)" fill="#ebebeb"/>
                    </g>
                    <path id="Path_15073" data-name="Path 15073" d="M297.925,446.046a1.738,1.738,0,1,1-1.71-1.425A1.587,1.587,0,0,1,297.925,446.046Z" transform="translate(-293.169 -441.001)" fill="#ebebeb"/>
                  </g>
                  <g id="Group_11172" data-name="Group 11172" transform="translate(12.199)">
                    <g id="Group_11171" data-name="Group 11171">
                      <rect id="Rectangle_3442" data-name="Rectangle 3442" width="5.189" height="20.397" transform="translate(0.451 0.376)" fill="#ebebeb"/>
                      <path id="Path_15074" data-name="Path 15074" d="M309.038,459.354h-6.091V438.205h6.091Zm-5.189-.752h4.286V438.958H303.85Z" transform="translate(-302.947 -438.205)" fill="#ebebeb"/>
                    </g>
                    <path id="Path_15075" data-name="Path 15075" d="M308.735,446.046a1.738,1.738,0,1,1-1.71-1.425A1.587,1.587,0,0,1,308.735,446.046Z" transform="translate(-303.979 -441.001)" fill="#ebebeb"/>
                  </g>
                  <g id="Group_11174" data-name="Group 11174" transform="translate(18.298)">
                    <g id="Group_11173" data-name="Group 11173">
                      <rect id="Rectangle_3443" data-name="Rectangle 3443" width="5.189" height="20.397" transform="translate(0.451 0.376)" fill="#ebebeb"/>
                      <path id="Path_15076" data-name="Path 15076" d="M319.849,459.354h-6.092V438.205h6.092Zm-5.189-.752h4.286V438.958H314.66Z" transform="translate(-313.757 -438.205)" fill="#ebebeb"/>
                    </g>
                    <path id="Path_15077" data-name="Path 15077" d="M319.545,446.046a1.738,1.738,0,1,1-1.71-1.425A1.587,1.587,0,0,1,319.545,446.046Z" transform="translate(-314.789 -441.001)" fill="#ebebeb"/>
                  </g>
                  <g id="Group_11176" data-name="Group 11176" transform="translate(24.397)">
                    <g id="Group_11175" data-name="Group 11175">
                      <rect id="Rectangle_3444" data-name="Rectangle 3444" width="5.189" height="20.397" transform="translate(0.451 0.376)" fill="#ebebeb"/>
                      <path id="Path_15078" data-name="Path 15078" d="M330.659,459.354h-6.092V438.205h6.092Zm-5.189-.752h4.286V438.958H325.47Z" transform="translate(-324.567 -438.205)" fill="#ebebeb"/>
                    </g>
                    <path id="Path_15079" data-name="Path 15079" d="M330.355,446.046a1.738,1.738,0,1,1-1.71-1.425A1.587,1.587,0,0,1,330.355,446.046Z" transform="translate(-325.599 -441.001)" fill="#ebebeb"/>
                  </g>
                </g>
                <path id="Path_15080" data-name="Path 15080" d="M285.144,544.818a8.453,8.453,0,0,1,.808-3.748h-6.22a8.454,8.454,0,0,1,.808,3.748c0,2.268-2.726,6.455-2.726,9.246s2.889,3.707,5.028,3.707,5.028-.916,5.028-3.707S285.144,547.086,285.144,544.818Z" transform="translate(-270.918 -454.165)" fill="#ebebeb"/>
                <g id="Group_11179" data-name="Group 11179" transform="translate(26.401 58.025)">
                  <g id="Group_11178" data-name="Group 11178" transform="translate(0.771)">
                    <path id="Path_15081" data-name="Path 15081" d="M326.336,500.016c1.677-3.281-2.052-3.22-1.768-4.082.534-1.617,2.544.14,3.359-.674s-2.013-3.351-.531-4.23.962,2.095,2.242,1.884.517-3.353,2.027-3c1.135.263-.213,2.228-.089,3.145s2.464-.42,2.5.89-2.789.736-3.123,1.732,3.044,1.2,1.86,2.044-3.416-.166-4,.71S325.623,501.41,326.336,500.016Z" transform="translate(-318.456 -489.885)" fill="#ebebeb"/>
                    <path id="Path_15082" data-name="Path 15082" d="M320.594,504.86c-1.576-3.316-4.176-1.087-4.7-1.865-.985-1.462,1.926-1.392,1.819-2.449s-4.258-1.2-3.948-2.695,2.452.925,3.183.025-2.462-2.687-1.093-3.323c1.029-.478,1.728,1.709,2.591,2.287s1.4-1.743,2.532-.836-1.362,2.159-.758,3.062,3.178-.93,3.046.363-2.568,1.885-2.247,2.852S321.264,506.268,320.594,504.86Z" transform="translate(-313.748 -491.89)" fill="#ebebeb"/>
                  </g>
                  <path id="Path_15083" data-name="Path 15083" d="M324.013,504.727H315.4s-3.022,2.163-3.022,4.718,1.883,5.21,7.327,5.21,7.327-2.654,7.327-5.21S324.013,504.727,324.013,504.727Z" transform="translate(-312.382 -496.353)" fill="#ebebeb"/>
                </g>
                <g id="Group_11180" data-name="Group 11180" transform="translate(28.512 91.957)">
                  <rect id="Rectangle_3445" data-name="Rectangle 3445" width="7.946" height="8.994" transform="translate(2.458 2.654)" fill="#ebebeb"/>
                  <ellipse id="Ellipse_568" data-name="Ellipse 568" cx="6.271" cy="2.654" rx="6.271" ry="2.654" fill="#ebebeb"/>
                </g>
                <g id="Group_11181" data-name="Group 11181" transform="translate(22.979 14.315)">
                  <rect id="Rectangle_3446" data-name="Rectangle 3446" width="5.891" height="6.669" transform="translate(1.822 1.968)" fill="#ebebeb"/>
                  <path id="Path_15084" data-name="Path 15084" d="M315.615,414.383c0,1.087-2.081,1.967-4.649,1.967s-4.649-.881-4.649-1.967,2.081-1.968,4.649-1.968S315.615,413.3,315.615,414.383Z" transform="translate(-306.317 -412.415)" fill="#ebebeb"/>
                </g>
                <g id="Group_11183" data-name="Group 11183" transform="translate(3.282)">
                  <g id="Group_11182" data-name="Group 11182">
                    <path id="Path_15085" data-name="Path 15085" d="M289.6,404.976s-2.038-5.9,6.984-12.533c0,0-7.725,7.077-5.189,12.533Z" transform="translate(-279.251 -389.397)" fill="#ebebeb"/>
                    <path id="Path_15086" data-name="Path 15086" d="M288.2,403.962s-4.673-6.57,3.7-16.918c0,0-6.64,10.542-1.534,16.449Z" transform="translate(-278.157 -387.044)" fill="#ebebeb"/>
                    <path id="Path_15087" data-name="Path 15087" d="M281.022,404.976s2.039-5.9-6.984-12.533c0,0,7.725,7.077,5.189,12.533Z" transform="translate(-272.554 -389.397)" fill="#ebebeb"/>
                    <path id="Path_15088" data-name="Path 15088" d="M284.459,403.584s3.754-5.28-2.973-13.6c0,0,5.338,8.471,1.236,13.218Z" transform="translate(-275.799 -388.327)" fill="#ebebeb"/>
                    <path id="Path_15089" data-name="Path 15089" d="M289.065,409.789s-1.762-5.959,7.563-12.3c0,0-8.049,6.822-5.77,12.355Z" transform="translate(-279.044 -391.597)" fill="#ebebeb"/>
                    <path id="Path_15090" data-name="Path 15090" d="M278.97,408.507s1.762-5.959-7.563-12.3c0,0,8.049,6.822,5.77,12.356Z" transform="translate(-271.407 -391.038)" fill="#ebebeb"/>
                  </g>
                  <path id="Path_15091" data-name="Path 15091" d="M282.014,411h-6.1l2.8,9.437h6.6l2.8-9.437Z" transform="translate(-273.372 -397.482)" fill="#ebebeb"/>
                </g>
                <g id="Group_11193" data-name="Group 11193" transform="translate(4.733 68.955)">
                  <g id="Group_11188" data-name="Group 11188" transform="translate(0 0)">
                    <g id="Group_11184" data-name="Group 11184" transform="translate(0.451 4.993)">
                      <rect id="Rectangle_3447" data-name="Rectangle 3447" width="2.492" height="18.669" transform="translate(0 2.492) rotate(-90)" fill="#ebebeb"/>
                    </g>
                    <g id="Group_11186" data-name="Group 11186" transform="translate(0 2.116)">
                      <g id="Group_11185" data-name="Group 11185">
                        <rect id="Rectangle_3448" data-name="Rectangle 3448" width="2.492" height="18.669" transform="translate(0.451 2.868) rotate(-90)" fill="#ebebeb"/>
                        <path id="Path_15092" data-name="Path 15092" d="M293.552,516.249H273.98v-3.244h19.572Zm-18.669-.752h17.766v-1.74H274.883Z" transform="translate(-273.98 -513.005)" fill="#ebebeb"/>
                      </g>
                    </g>
                    <g id="Group_11187" data-name="Group 11187" transform="translate(0.451)">
                      <rect id="Rectangle_3449" data-name="Rectangle 3449" width="2.492" height="18.669" transform="translate(0 2.492) rotate(-90)" fill="#ebebeb"/>
                    </g>
                  </g>
                  <g id="Group_11189" data-name="Group 11189" transform="translate(11.446 0)">
                    <rect id="Rectangle_3450" data-name="Rectangle 3450" width="0.134" height="2.492" fill="#ebebeb"/>
                  </g>
                  <g id="Group_11190" data-name="Group 11190" transform="translate(12.95 0)">
                    <rect id="Rectangle_3451" data-name="Rectangle 3451" width="0.134" height="2.492" fill="#ebebeb"/>
                  </g>
                  <g id="Group_11191" data-name="Group 11191" transform="translate(14.454 0)">
                    <rect id="Rectangle_3452" data-name="Rectangle 3452" width="0.134" height="2.492" fill="#ebebeb"/>
                  </g>
                  <g id="Group_11192" data-name="Group 11192" transform="translate(15.957 0)">
                    <rect id="Rectangle_3453" data-name="Rectangle 3453" width="0.134" height="2.492" fill="#ebebeb"/>
                  </g>
                  <rect id="Rectangle_3454" data-name="Rectangle 3454" width="8.786" height="0.411" transform="translate(9.42 5.417)" fill="#ebebeb"/>
                  <rect id="Rectangle_3455" data-name="Rectangle 3455" width="8.786" height="0.41" transform="translate(9.42 6.033)" fill="#ebebeb"/>
                  <rect id="Rectangle_3456" data-name="Rectangle 3456" width="8.786" height="0.41" transform="translate(9.42 6.649)" fill="#ebebeb"/>
                </g>
              </g>
              <g id="Group_11231" data-name="Group 11231" transform="translate(449.943 105.24)">
                <g id="Group_11203" data-name="Group 11203" transform="translate(0 22.575)">
                  <g id="Group_11195" data-name="Group 11195">
                    <rect id="Rectangle_3457" data-name="Rectangle 3457" width="49.533" height="1.769" transform="translate(0.451 0.376)" fill="#ebebeb"/>
                    <path id="Path_15093" data-name="Path 15093" d="M1012.965,409.862H962.529V407.34h50.436Zm-49.533-.753h48.63v-1.017h-48.63Z" transform="translate(-962.529 -407.34)" fill="#ebebeb"/>
                  </g>
                  <g id="Group_11196" data-name="Group 11196" transform="translate(0 26.688)">
                    <rect id="Rectangle_3458" data-name="Rectangle 3458" width="49.533" height="1.769" transform="translate(0.451 0.376)" fill="#ebebeb"/>
                    <path id="Path_15094" data-name="Path 15094" d="M1012.965,457.163H962.529v-2.522h50.436Zm-49.533-.753h48.63v-1.017h-48.63Z" transform="translate(-962.529 -454.641)" fill="#ebebeb"/>
                  </g>
                  <g id="Group_11197" data-name="Group 11197" transform="translate(0 53.377)">
                    <rect id="Rectangle_3459" data-name="Rectangle 3459" width="49.533" height="1.769" transform="translate(0.451 0.376)" fill="#ebebeb"/>
                    <path id="Path_15095" data-name="Path 15095" d="M1012.965,504.464H962.529v-2.522h50.436Zm-49.533-.753h48.63v-1.017h-48.63Z" transform="translate(-962.529 -501.942)" fill="#ebebeb"/>
                  </g>
                  <g id="Group_11202" data-name="Group 11202" transform="translate(0 0.59)">
                    <g id="Group_11198" data-name="Group 11198" transform="translate(0 80.064)">
                      <rect id="Rectangle_3460" data-name="Rectangle 3460" width="49.533" height="1.769" transform="translate(0.451 0.376)" fill="#ebebeb"/>
                      <path id="Path_15096" data-name="Path 15096" d="M1012.965,552.809H962.529v-2.522h50.436Zm-49.533-.753h48.63V551.04h-48.63Z" transform="translate(-962.529 -550.287)" fill="#ebebeb"/>
                    </g>
                    <g id="Group_11199" data-name="Group 11199" transform="translate(0 105.607)">
                      <rect id="Rectangle_3461" data-name="Rectangle 3461" width="49.533" height="1.769" transform="translate(0.451 0.376)" fill="#ebebeb"/>
                      <path id="Path_15097" data-name="Path 15097" d="M1012.965,598.08H962.529v-2.522h50.436Zm-49.533-.753h48.63v-1.017h-48.63Z" transform="translate(-962.529 -595.558)" fill="#ebebeb"/>
                    </g>
                    <g id="Group_11200" data-name="Group 11200">
                      <rect id="Rectangle_3462" data-name="Rectangle 3462" width="2.653" height="128.385" transform="translate(0.451 0.376)" fill="#ebebeb"/>
                      <path id="Path_15098" data-name="Path 15098" d="M966.085,537.523h-3.556V408.386h3.556Zm-2.653-.752h1.751V409.138h-1.751Z" transform="translate(-962.529 -408.386)" fill="#ebebeb"/>
                    </g>
                    <g id="Group_11201" data-name="Group 11201" transform="translate(46.879)">
                      <rect id="Rectangle_3463" data-name="Rectangle 3463" width="2.654" height="128.385" transform="translate(0.451 0.376)" fill="#ebebeb"/>
                      <path id="Path_15099" data-name="Path 15099" d="M1049.171,537.523h-3.556V408.386h3.556Zm-2.653-.752h1.751V409.138h-1.751Z" transform="translate(-1045.615 -408.386)" fill="#ebebeb"/>
                    </g>
                  </g>
                </g>
                <g id="Group_11214" data-name="Group 11214" transform="translate(8.879 28.866)">
                  <g id="Group_11205" data-name="Group 11205">
                    <g id="Group_11204" data-name="Group 11204">
                      <rect id="Rectangle_3464" data-name="Rectangle 3464" width="5.189" height="20.397" transform="translate(0.451 0.376)" fill="#ebebeb"/>
                      <path id="Path_15100" data-name="Path 15100" d="M984.356,439.64h-6.091V418.49h6.091Zm-5.189-.753h4.286V419.243h-4.286Z" transform="translate(-978.265 -418.49)" fill="#ebebeb"/>
                    </g>
                    <path id="Path_15101" data-name="Path 15101" d="M984.052,426.332a1.739,1.739,0,1,1-1.71-1.426A1.587,1.587,0,0,1,984.052,426.332Z" transform="translate(-979.297 -421.286)" fill="#ebebeb"/>
                  </g>
                  <g id="Group_11207" data-name="Group 11207" transform="translate(6.099)">
                    <g id="Group_11206" data-name="Group 11206">
                      <rect id="Rectangle_3465" data-name="Rectangle 3465" width="5.189" height="20.397" transform="translate(0.452 0.376)" fill="#ebebeb"/>
                      <path id="Path_15102" data-name="Path 15102" d="M995.166,439.64h-6.092V418.49h6.092Zm-5.189-.753h4.287V419.243h-4.287Z" transform="translate(-989.074 -418.49)" fill="#ebebeb"/>
                    </g>
                    <path id="Path_15103" data-name="Path 15103" d="M994.862,426.332a1.739,1.739,0,1,1-1.71-1.426A1.587,1.587,0,0,1,994.862,426.332Z" transform="translate(-990.106 -421.286)" fill="#ebebeb"/>
                  </g>
                  <g id="Group_11209" data-name="Group 11209" transform="translate(12.199)">
                    <g id="Group_11208" data-name="Group 11208">
                      <rect id="Rectangle_3466" data-name="Rectangle 3466" width="5.189" height="20.397" transform="translate(0.451 0.376)" fill="#ebebeb"/>
                      <path id="Path_15104" data-name="Path 15104" d="M1005.976,439.64h-6.091V418.49h6.091Zm-5.189-.753h4.286V419.243h-4.286Z" transform="translate(-999.885 -418.49)" fill="#ebebeb"/>
                    </g>
                    <path id="Path_15105" data-name="Path 15105" d="M1005.672,426.332a1.738,1.738,0,1,1-1.71-1.426A1.587,1.587,0,0,1,1005.672,426.332Z" transform="translate(-1000.917 -421.286)" fill="#ebebeb"/>
                  </g>
                  <g id="Group_11211" data-name="Group 11211" transform="translate(18.297)">
                    <g id="Group_11210" data-name="Group 11210">
                      <rect id="Rectangle_3467" data-name="Rectangle 3467" width="5.189" height="20.397" transform="translate(0.452 0.376)" fill="#ebebeb"/>
                      <path id="Path_15106" data-name="Path 15106" d="M1016.787,439.64h-6.093V418.49h6.093Zm-5.19-.753h4.287V419.243H1011.6Z" transform="translate(-1010.694 -418.49)" fill="#ebebeb"/>
                    </g>
                    <path id="Path_15107" data-name="Path 15107" d="M1016.482,426.332a1.739,1.739,0,1,1-1.71-1.426A1.587,1.587,0,0,1,1016.482,426.332Z" transform="translate(-1011.726 -421.286)" fill="#ebebeb"/>
                  </g>
                  <g id="Group_11213" data-name="Group 11213" transform="translate(24.397)">
                    <g id="Group_11212" data-name="Group 11212">
                      <rect id="Rectangle_3468" data-name="Rectangle 3468" width="5.189" height="20.397" transform="translate(0.451 0.376)" fill="#ebebeb"/>
                      <path id="Path_15108" data-name="Path 15108" d="M1027.6,439.64h-6.092V418.49h6.092Zm-5.189-.753h4.286V419.243h-4.286Z" transform="translate(-1021.505 -418.49)" fill="#ebebeb"/>
                    </g>
                    <path id="Path_15109" data-name="Path 15109" d="M1027.293,426.332a1.738,1.738,0,1,1-1.71-1.426A1.587,1.587,0,0,1,1027.293,426.332Z" transform="translate(-1022.537 -421.286)" fill="#ebebeb"/>
                  </g>
                </g>
                <path id="Path_15110" data-name="Path 15110" d="M982.082,525.1a8.454,8.454,0,0,1,.808-3.748h-6.22a8.454,8.454,0,0,1,.808,3.748c0,2.268-2.726,6.455-2.726,9.246s2.889,3.707,5.028,3.707,5.028-.916,5.028-3.707S982.082,527.371,982.082,525.1Z" transform="translate(-967.856 -434.45)" fill="#ebebeb"/>
                <g id="Group_11216" data-name="Group 11216" transform="translate(26.4 58.025)">
                  <g id="Group_11215" data-name="Group 11215" transform="translate(0.771)">
                    <path id="Path_15111" data-name="Path 15111" d="M1023.273,480.3c1.678-3.28-2.052-3.22-1.767-4.082.533-1.617,2.544.14,3.359-.674s-2.012-3.352-.531-4.231.962,2.095,2.242,1.884.518-3.353,2.027-3c1.135.264-.213,2.228-.089,3.145s2.464-.42,2.5.89-2.79.736-3.123,1.732,3.044,1.2,1.859,2.044-3.416-.166-4,.71S1022.561,481.695,1023.273,480.3Z" transform="translate(-1015.394 -470.17)" fill="#ebebeb"/>
                    <path id="Path_15112" data-name="Path 15112" d="M1017.532,485.146c-1.576-3.316-4.176-1.087-4.7-1.865-.985-1.462,1.926-1.392,1.818-2.448s-4.258-1.2-3.947-2.7,2.452.925,3.183.025-2.462-2.687-1.093-3.323c1.029-.477,1.729,1.709,2.592,2.288s1.4-1.743,2.532-.836-1.362,2.159-.758,3.063,3.178-.931,3.046.362-2.568,1.885-2.247,2.852S1018.2,486.554,1017.532,485.146Z" transform="translate(-1010.686 -472.175)" fill="#ebebeb"/>
                  </g>
                  <path id="Path_15113" data-name="Path 15113" d="M1020.951,485.012h-8.609s-3.023,2.163-3.023,4.719,1.884,5.209,7.327,5.209,7.327-2.654,7.327-5.209S1020.951,485.012,1020.951,485.012Z" transform="translate(-1009.319 -476.638)" fill="#ebebeb"/>
                </g>
                <g id="Group_11217" data-name="Group 11217" transform="translate(28.512 91.957)">
                  <rect id="Rectangle_3469" data-name="Rectangle 3469" width="7.946" height="8.994" transform="translate(2.458 2.654)" fill="#ebebeb"/>
                  <ellipse id="Ellipse_569" data-name="Ellipse 569" cx="6.271" cy="2.654" rx="6.271" ry="2.654" fill="#ebebeb"/>
                </g>
                <g id="Group_11218" data-name="Group 11218" transform="translate(22.979 14.315)">
                  <rect id="Rectangle_3470" data-name="Rectangle 3470" width="5.891" height="6.669" transform="translate(1.822 1.968)" fill="#ebebeb"/>
                  <path id="Path_15114" data-name="Path 15114" d="M1012.553,394.668c0,1.087-2.081,1.968-4.649,1.968s-4.649-.881-4.649-1.968,2.081-1.968,4.649-1.968S1012.553,393.581,1012.553,394.668Z" transform="translate(-1003.255 -392.7)" fill="#ebebeb"/>
                </g>
                <g id="Group_11220" data-name="Group 11220" transform="translate(3.282)">
                  <g id="Group_11219" data-name="Group 11219">
                    <path id="Path_15115" data-name="Path 15115" d="M986.542,385.261s-2.039-5.9,6.983-12.533c0,0-7.724,7.078-5.189,12.533Z" transform="translate(-976.189 -369.682)" fill="#ebebeb"/>
                    <path id="Path_15116" data-name="Path 15116" d="M985.135,384.247s-4.673-6.57,3.7-16.918c0,0-6.64,10.542-1.534,16.449Z" transform="translate(-975.095 -367.329)" fill="#ebebeb"/>
                    <path id="Path_15117" data-name="Path 15117" d="M977.96,385.261s2.038-5.9-6.984-12.533c0,0,7.725,7.078,5.189,12.533Z" transform="translate(-969.492 -369.682)" fill="#ebebeb"/>
                    <path id="Path_15118" data-name="Path 15118" d="M981.4,383.869s3.754-5.28-2.972-13.6c0,0,5.338,8.471,1.236,13.218Z" transform="translate(-972.737 -368.612)" fill="#ebebeb"/>
                    <path id="Path_15119" data-name="Path 15119" d="M986,390.074s-1.762-5.959,7.563-12.3c0,0-8.049,6.822-5.769,12.356Z" transform="translate(-975.982 -371.882)" fill="#ebebeb"/>
                    <path id="Path_15120" data-name="Path 15120" d="M975.908,388.793s1.761-5.96-7.563-12.3c0,0,8.049,6.821,5.77,12.355Z" transform="translate(-968.345 -371.324)" fill="#ebebeb"/>
                  </g>
                  <path id="Path_15121" data-name="Path 15121" d="M978.952,391.282h-6.1l2.8,9.437h6.6l2.8-9.437Z" transform="translate(-970.309 -377.767)" fill="#ebebeb"/>
                </g>
                <g id="Group_11230" data-name="Group 11230" transform="translate(4.733 68.955)">
                  <g id="Group_11225" data-name="Group 11225" transform="translate(0 0)">
                    <g id="Group_11221" data-name="Group 11221" transform="translate(0.452 4.993)">
                      <rect id="Rectangle_3471" data-name="Rectangle 3471" width="2.492" height="18.669" transform="translate(0 2.492) rotate(-90)" fill="#ebebeb"/>
                    </g>
                    <g id="Group_11223" data-name="Group 11223" transform="translate(0 2.115)">
                      <g id="Group_11222" data-name="Group 11222">
                        <rect id="Rectangle_3472" data-name="Rectangle 3472" width="2.492" height="18.669" transform="translate(0.452 2.868) rotate(-90)" fill="#ebebeb"/>
                        <path id="Path_15122" data-name="Path 15122" d="M990.489,496.534H970.917V493.29h19.572Zm-18.67-.752h17.767v-1.74H971.82Z" transform="translate(-970.917 -493.29)" fill="#ebebeb"/>
                      </g>
                    </g>
                    <g id="Group_11224" data-name="Group 11224" transform="translate(0.452)">
                      <rect id="Rectangle_3473" data-name="Rectangle 3473" width="2.492" height="18.669" transform="translate(0 2.492) rotate(-90)" fill="#ebebeb"/>
                    </g>
                  </g>
                  <g id="Group_11226" data-name="Group 11226" transform="translate(11.447 0)">
                    <rect id="Rectangle_3474" data-name="Rectangle 3474" width="0.134" height="2.492" fill="#ebebeb"/>
                  </g>
                  <g id="Group_11227" data-name="Group 11227" transform="translate(12.95 0)">
                    <rect id="Rectangle_3475" data-name="Rectangle 3475" width="0.134" height="2.492" fill="#ebebeb"/>
                  </g>
                  <g id="Group_11228" data-name="Group 11228" transform="translate(14.454 0)">
                    <rect id="Rectangle_3476" data-name="Rectangle 3476" width="0.134" height="2.492" fill="#ebebeb"/>
                  </g>
                  <g id="Group_11229" data-name="Group 11229" transform="translate(15.958 0)">
                    <rect id="Rectangle_3477" data-name="Rectangle 3477" width="0.134" height="2.492" fill="#ebebeb"/>
                  </g>
                  <rect id="Rectangle_3478" data-name="Rectangle 3478" width="8.786" height="0.411" transform="translate(9.42 5.417)" fill="#ebebeb"/>
                  <rect id="Rectangle_3479" data-name="Rectangle 3479" width="8.786" height="0.41" transform="translate(9.42 6.033)" fill="#ebebeb"/>
                  <rect id="Rectangle_3480" data-name="Rectangle 3480" width="8.786" height="0.41" transform="translate(9.42 6.649)" fill="#ebebeb"/>
                </g>
              </g>
              <g id="Group_11239" data-name="Group 11239" transform="translate(221.138 178.844)">
                <path id="Path_15123" data-name="Path 15123" d="M715.262,634.686H597.439c-2.25,0-3.872-1.833-3.248-3.67h0a3.352,3.352,0,0,1,3.248-2.076H715.262a3.351,3.351,0,0,1,3.248,2.076h0C719.133,632.853,717.512,634.686,715.262,634.686Z" transform="translate(-591.637 -554.936)" fill="#ebebeb" opacity="0.32"/>
                <g id="Group_11234" data-name="Group 11234" transform="translate(0 25.461)">
                  <rect id="Rectangle_3481" data-name="Rectangle 3481" width="2.279" height="48.274" transform="translate(1.359 0.27)" fill="#ebebeb"/>
                  <rect id="Rectangle_3482" data-name="Rectangle 3482" width="2.279" height="48.274" transform="translate(125.147 0.27)" fill="#ebebeb"/>
                  <g id="Group_11232" data-name="Group 11232">
                    <path id="Path_15124" data-name="Path 15124" d="M718.672,548.128H590.45l.975-4.746H717.477Z" transform="translate(-590.066 -543.112)" fill="#ebebeb"/>
                    <path id="Path_15125" data-name="Path 15125" d="M718.773,548.189h-129l1.087-5.285H717.444Zm-128.237-.539h127.44l-1.058-4.206H591.4Z" transform="translate(-589.769 -542.904)" fill="#ebebeb"/>
                  </g>
                  <g id="Group_11233" data-name="Group 11233" transform="translate(0.06 4.746)">
                    <path id="Path_15126" data-name="Path 15126" d="M718.453,551.793h-128v49.546h2.116V555.045H716.555v46.294h2.116V551.793Z" transform="translate(-590.126 -551.523)" fill="#ebebeb"/>
                    <path id="Path_15127" data-name="Path 15127" d="M718.745,601.4h-2.764V555.106H592.64V601.4h-2.764V551.315H718.745Zm-2.116-.539H718.1V551.854H590.523v49.007h1.469V554.567H716.629Z" transform="translate(-589.876 -551.315)" fill="#ebebeb"/>
                  </g>
                </g>
                <g id="Group_11238" data-name="Group 11238" transform="translate(87.883 0)">
                  <path id="Path_15128" data-name="Path 15128" d="M787.675,499.775V517.52a2.326,2.326,0,0,1-2.541,2H748.068a2.326,2.326,0,0,1-2.541-2V499.775a2.329,2.329,0,0,1,2.541-2h37.065A2.329,2.329,0,0,1,787.675,499.775Z" transform="translate(-745.527 -497.779)" fill="#ebebeb"/>
                  <path id="Path_15129" data-name="Path 15129" d="M748.725,519.365a1.548,1.548,0,0,1-1.694-1.331V500.289a1.548,1.548,0,0,1,1.694-1.331h37.063a1.548,1.548,0,0,1,1.694,1.331v17.745a1.548,1.548,0,0,1-1.694,1.331Z" transform="translate(-746.182 -498.293)" fill="#ebebeb"/>
                  <g id="Group_11235" data-name="Group 11235" transform="translate(1.372 1.061)">
                    <path id="Path_15130" data-name="Path 15130" d="M749.38,519.213a.774.774,0,0,1-.847-.665V500.8a.774.774,0,0,1,.847-.665h37.063a.774.774,0,0,1,.847.665v17.745a.774.774,0,0,1-.847.665Z" transform="translate(-748.209 -499.868)" fill="#ebebeb"/>
                    <path id="Path_15131" data-name="Path 15131" d="M786.193,519.275H749.13a1.074,1.074,0,0,1-1.171-.935V500.595a1.074,1.074,0,0,1,1.171-.935h37.063a1.074,1.074,0,0,1,1.171.935V518.34A1.074,1.074,0,0,1,786.193,519.275ZM749.13,500.2a.474.474,0,0,0-.524.4V518.34a.474.474,0,0,0,.524.4h37.063a.474.474,0,0,0,.524-.4V500.595a.474.474,0,0,0-.524-.4Z" transform="translate(-747.959 -499.66)" fill="#ebebeb"/>
                  </g>
                  <path id="Path_15132" data-name="Path 15132" d="M784.008,528.892h-9.939l1.122-9.6h7.7Z" transform="translate(-757.965 -507.155)" fill="#ebebeb"/>
                  <g id="Group_11236" data-name="Group 11236" transform="translate(16.066 11.361)">
                    <path id="Path_15133" data-name="Path 15133" d="M783.939,533.989H774.62l1.463-15.6h6.392Z" transform="translate(-774.271 -518.123)" fill="#ebebeb"/>
                    <path id="Path_15134" data-name="Path 15134" d="M784.019,534.051H774l1.513-16.136h6.991Zm-9.319-.539h8.619l-1.412-15.057h-5.794Z" transform="translate(-774.001 -517.915)" fill="#ebebeb"/>
                  </g>
                  <g id="Group_11237" data-name="Group 11237" transform="translate(9.738 26.292)">
                    <path id="Path_15135" data-name="Path 15135" d="M785.386,547.24H763.36c0-1.317,1.359-2.384,3.036-2.384H782.35c1.676,0,3.035,1.068,3.035,2.384Z" transform="translate(-763.036 -544.586)" fill="#ebebeb"/>
                    <path id="Path_15136" data-name="Path 15136" d="M785.459,547.3H762.786v-.27c0-1.464,1.507-2.654,3.359-2.654H782.1c1.852,0,3.359,1.191,3.359,2.654Zm-22-.539H784.79a2.577,2.577,0,0,0-2.69-1.845H766.145A2.576,2.576,0,0,0,763.455,546.762Z" transform="translate(-762.786 -544.378)" fill="#ebebeb"/>
                  </g>
                </g>
              </g>
            </g>
          </g>
        </g>
      </g>
    </g>
    <g id="Group_11246" data-name="Group 11246" transform="translate(625.2 378.341)">
      <g id="Group_11245" data-name="Group 11245" transform="translate(0 0)">
        <path id="Path_15137" data-name="Path 15137" d="M857.717,695.636l-1.792-.191L867.3,636.8l3.786.622,41.855,4.964L911.8,653.139l-.108-.011.813,48.656-1.792-.191-5.174-49.12-33.219-3.536Z" transform="translate(-855.925 -577.053)" fill="#7b88ac"/>
        <path id="Path_15138" data-name="Path 15138" d="M953.2,535.668c2.495-7.123,12.132-4.625,20.653-2.856,6.126,1.266,7.363,3.946,6.385,10.137L967.1,596.192c-.96,6.176-6.471,9.748-12.222,7.921s-17.443-7.072-16.321-13.23Z" transform="translate(-891.9 -530.904)" fill="#7b88ac"/>
        <path id="Path_15139" data-name="Path 15139" d="M870.346,712.686l-1.472-.157,11.414-53.969-8.445-9.435,27.45,2.737,32.336,3.1-1.079,8.952.6,55.58-1.193-.127-5.346-56.086L886.5,659.221Z" transform="translate(-861.568 -582.422)" fill="#7b88ac"/>
        <path id="Path_15140" data-name="Path 15140" d="M866.6,635.434a2.22,2.22,0,0,1,2.081-3.427l33.368,3.415a28.452,28.452,0,0,1,8.695,2.6l18.092,8.236c.045.02.09.042.134.065,2.154,1.138,1.862,1.873-.676,1.6l-56.564-6.158a2.219,2.219,0,0,1-1.615-.988Z" transform="translate(-860.418 -574.957)" fill="#7b88ac"/>
      </g>
    </g>
    <g id="Group_11254" data-name="Group 11254" transform="translate(626.511 340.318)">
      <path id="Path_15141" data-name="Path 15141" d="M923.052,480.816c-2.434-10.4,15.592-20.7,22.427-16.228,0,0,17.332.291,11.482,29.277-.259,1.281-5.552,1.112-5.583,3.917s-.273,2.485-1.643,3.759-3.824-.657-4.429.283c-1.663,2.582,3.475,4.57,5.1,3.186,0,0-13.132,7.653-19.189-6.134C930.87,498.084,923.692,483.555,923.052,480.816Z" transform="translate(-893.709 -463.515)" fill="#fff4ba"/>
      <g id="Group_11247" data-name="Group 11247" transform="translate(6.535 73.42)">
        <path id="Path_15142" data-name="Path 15142" d="M885.815,604.863c.969,6.244,34.07-5.584,35.095-6.457,0,0,2.278-4.066-.775-4.712C916.129,592.848,885.382,602.07,885.815,604.863Z" transform="translate(-884.112 -593.639)" fill="#fff4ba"/>
        <path id="Path_15143" data-name="Path 15143" d="M882.8,611.018l.244-1.919,6.383-3.638s.277,3.407-.121,4.151S882.8,611.018,882.8,611.018Z" transform="translate(-882.801 -598.791)" fill="#fffdfd"/>
        <path id="Path_15144" data-name="Path 15144" d="M882.806,615.114l.554,1.834,6.832,2.417s-.288-3.386-.8-4.043S882.806,615.114,882.806,615.114Z" transform="translate(-882.803 -602.932)" fill="#fffdfd"/>
      </g>
      <g id="Group_11248" data-name="Group 11248" transform="translate(0 78.739)">
        <path id="Path_15145" data-name="Path 15145" d="M888.092,607.6c1.913-1.491,4.817-2.275,5.176-1.42.407.965-2.216,1.17-3.607,2.926-1.51,1.9-2.56,3.013-3.323,2.471S886.175,609.091,888.092,607.6Z" transform="translate(-877.667 -604.269)" fill="#f8c471"/>
        <path id="Path_15146" data-name="Path 15146" d="M893.853,606.574c-2.972-.169-9.009,3.991-9.828,1.527-.735-2.207,1.351-6.839,9.857-3.833Z" transform="translate(-876.74 -603.161)" fill="#ffd9a4"/>
        <path id="Path_15147" data-name="Path 15147" d="M887.169,603.532c1.543,3.814-3.111,5.678-4.711,5.926-1.76.271-3.725-2.3-3.427-3.691S886.577,602.075,887.169,603.532Z" transform="translate(-874.61 -603.066)" fill="#ffd9a4"/>
        <path id="Path_15148" data-name="Path 15148" d="M875.018,606.988c-2.055.306-3.2-.005-3.218-.56s1.164-.657,3.216-.966,4.587-1.211,4.606-.656S877.071,606.676,875.018,606.988Z" transform="translate(-871.472 -603.747)" fill="#ffd9a4"/>
        <path id="Path_15149" data-name="Path 15149" d="M875.388,611.2c-1.991.728-4.035.475-4.163-.055s1.858-.762,3.849-1.49,3.32-1.094,3.447-.563S877.377,610.471,875.388,611.2Z" transform="translate(-871.219 -605.582)" fill="#ffd9a4"/>
        <path id="Path_15150" data-name="Path 15150" d="M879.879,613.847c-2.017.647-3.289.552-3.4.02s1.3-.708,3.312-1.354,3.438-1.072,3.551-.537S881.9,613.2,879.879,613.847Z" transform="translate(-873.508 -606.843)" fill="#ffd9a4"/>
      </g>
      <g id="Group_11249" data-name="Group 11249" transform="translate(20.209 27.598)">
        <path id="Path_15151" data-name="Path 15151" d="M950.311,512.428l-7.425,4.135-2.111,15.472,5.885-1.784Z" transform="translate(-921.739 -512.428)" fill="#f6cda2"/>
        <path id="Path_15152" data-name="Path 15152" d="M907.036,608.971c14.433,9.714,20.261,6.661,28.941,6.738.832-12.281-5.692-21.069-5.352-29.665.627-15.935,15.151-33.925,4.334-41.716-11.487-8.271-27.472,26.281-27.472,26.281C919.024,577.926,913.086,590.2,907.036,608.971Z" transform="translate(-907.036 -525.772)" fill="#ffe200"/>
        <path id="Path_15153" data-name="Path 15153" d="M946.031,542.427l-2.075-.357-9.8,8.291,2.641,2.482S943.4,546.783,946.031,542.427Z" transform="translate(-918.854 -525.345)" fill="#fff"/>
        <path id="Path_15154" data-name="Path 15154" d="M926.927,552.744l-.125-.1c2.724-4.785,8.507-12.029,13.681-11.271C935.527,545.343,926.927,552.744,926.927,552.744Z" transform="translate(-915.65 -525.016)" fill="#f6cda2"/>
      </g>
      <g id="Group_11250" data-name="Group 11250" transform="translate(15.547 48.584)">
        <path id="Path_15155" data-name="Path 15155" d="M902.6,606.8c-.339,6.191,27.58,8.11,28.765,7.478,0,0,1.824-4.352.322-4.842C927.8,608.175,902.751,604.037,902.6,606.8Z" transform="translate(-900.438 -574.133)" fill="#fff4ba"/>
        <path id="Path_15156" data-name="Path 15156" d="M951.28,549.721c7.544-2.379.241,39.423-1.977,40.162,0,0-4.018-1.418-4.72-3.307C942.463,580.866,947.911,550.78,951.28,549.721Z" transform="translate(-918.528 -549.623)" fill="#fff4ba"/>
        <path id="Path_15157" data-name="Path 15157" d="M898.773,605l.7-1.662,7.04-1.448s-.558,3.162-1.126,3.719S898.773,605,898.773,605Z" transform="translate(-898.773 -572.401)" fill="#fff"/>
        <path id="Path_15158" data-name="Path 15158" d="M898.776,607.172l.088,1.846,6.091,4.22s.55-3.195.214-3.947S898.776,607.172,898.776,607.172Z" transform="translate(-898.774 -574.701)" fill="#fff"/>
      </g>
      <g id="Group_11253" data-name="Group 11253" transform="translate(30.782 2.872)">
        <g id="Group_11252" data-name="Group 11252">
          <g id="Group_11251" data-name="Group 11251" transform="translate(0 2.88)">
            <path id="Path_15159" data-name="Path 15159" d="M933.278,507.421c-1.378.033-4.014-7.03-4.879-12.475-.286-1.795,1.649-2.053,1.381-8.194-.157-3.605,1.389-8.638,7.343-12.364,5.621-3.518,6.312,7.665,6.862,10.239,1.568,7.333,3.559,11.914,1.755,15.523C942.217,507.2,934.759,507.03,933.278,507.421Z" transform="translate(-926.906 -473.71)" fill="#ffd8a3"/>
            <path id="Path_15160" data-name="Path 15160" d="M936.687,516.232a.317.317,0,0,0-.3-.337.334.334,0,0,0-.267.372.318.318,0,0,0,.3.337A.333.333,0,0,0,936.687,516.232Z" transform="translate(-930.285 -492.093)" fill="#ffab00"/>
            <path id="Path_15161" data-name="Path 15161" d="M936.28,499.1c-.056-.968-.641-1.712-1.305-1.663s-1.16.875-1.1,1.842.641,1.712,1.305,1.663S936.336,500.07,936.28,499.1Z" transform="translate(-929.302 -484.049)" fill="#2d356b"/>
            <path id="Path_15162" data-name="Path 15162" d="M936.8,499.18c-.965-1.319-2.328-2.624-4.842-1.676A9.271,9.271,0,0,1,936.8,499.18Z" transform="translate(-928.471 -483.938)" fill="#2d356b"/>
            <path id="Path_15163" data-name="Path 15163" d="M932.823,523.427c-.047-.224-.719.589-1.047.625-.926.1-.633,1.279.289,1.083C932.425,525.058,932.872,523.664,932.823,523.427Z" transform="translate(-928.144 -495.358)" fill="#f36973"/>
            <path id="Path_15164" data-name="Path 15164" d="M933.009,516.491c.622-.265-3.649-1.386-2.847.034A6.668,6.668,0,0,0,933.009,516.491Z" transform="translate(-927.643 -492.061)" fill="#f36973"/>
            <path id="Path_15165" data-name="Path 15165" d="M931.676,489.3a5.651,5.651,0,0,1,6.894,3.39C936.675,490.221,935.23,489.317,931.676,489.3Z" transform="translate(-928.347 -480.416)" fill="#2d356b"/>
            <path id="Path_15166" data-name="Path 15166" d="M926.767,507.618l2.148.6-.053-5.449-3.086,3.954Z" transform="translate(-925.775 -486.374)" fill="#ffd8a3"/>
            <path id="Path_15167" data-name="Path 15167" d="M928.711,514.267l-1.739-3.333,1.6-.1Z" transform="translate(-926.297 -489.889)" fill="#ffd8a3"/>
            <path id="Path_15168" data-name="Path 15168" d="M930.975,521.362a40.186,40.186,0,0,1-1.165-4.7l3.852-.092S932.995,520.663,930.975,521.362Z" transform="translate(-927.534 -492.386)" fill="#ffab00"/>
            <path id="Path_15169" data-name="Path 15169" d="M932.763,518.92l-2.194.053c-.141-.591-.273-1.209-.4-1.851l3.148-.075Z" transform="translate(-927.691 -492.595)" fill="#fff"/>
            <path id="Path_15170" data-name="Path 15170" d="M961.766,504.031c-.127-1.679-.725-2.9.547-3s2.413,1.192,2.539,2.872-.806,3.116-2.081,3.21S961.89,505.712,961.766,504.031Z" transform="translate(-941.349 -485.615)" fill="#f7c371"/>
          </g>
          <path id="Path_15171" data-name="Path 15171" d="M940.625,468.609c.969,3.983,3.889,14.044,9.539,15.972,0,0,3.352-8.852-1.926-12.121C941.576,468.329,940.625,468.609,940.625,468.609Z" transform="translate(-932.246 -468.605)" fill="#fff4ba"/>
        </g>
      </g>
    </g>
    <g id="Group_11262" data-name="Group 11262" transform="translate(518.417 479.042)">
      <g id="Group_11261" data-name="Group 11261">
        <g id="Group_11255" data-name="Group 11255" transform="translate(9.388)">
          <path id="Path_15172" data-name="Path 15172" d="M716.33,732.165s-.777-5.229-1.129-6.38c-.454-1.486-.677-3.7.573-5s1.439-4.368,1.439-4.837.469-7.5,5.627-6.46c0,0,2.136.521,1.094,4.272,0,0-1.094,2.24.287,3.647a5.712,5.712,0,0,1,0,7.763c-2.579,3.126-1.845,4.271-1.433,5.471,1.879,5.472-2.119,10.5-2.553,11.837s-.955,3.541-.52,4.807l-1.517.028Z" transform="translate(-714.842 -709.382)" fill="#ebebeb"/>
        </g>
        <g id="Group_11256" data-name="Group 11256" transform="translate(13.138 5.294)">
          <path id="Path_15173" data-name="Path 15173" d="M721.9,751.6a.231.231,0,0,0,.225-.275c-.58-2.823.438-7.853.448-7.9.561-2.141.724-4.877-.206-11.852a26.78,26.78,0,0,1,.283-9.151,15.36,15.36,0,0,1,1.06-3.324.229.229,0,0,0-.408-.208,15.4,15.4,0,0,0-1.1,3.415,27.235,27.235,0,0,0-.293,9.328c.916,6.877.748,9.646.214,11.687-.046.222-1.049,5.185-.451,8.1A.229.229,0,0,0,721.9,751.6Z" transform="translate(-721.488 -718.765)" fill="#fff"/>
        </g>
        <g id="Group_11257" data-name="Group 11257" transform="translate(14.383 20.094)">
          <path id="Path_15174" data-name="Path 15174" d="M725.49,762.941s0-1.233,2.531-2.4a4.228,4.228,0,0,0,2.531-3.05c.649-2.466,2.466-1.817,3.634-1.1s3.821,0,3.825-3.7a2.456,2.456,0,0,1,.905-2.985c1.694-1.038,2.343-4.746-1.291-4.709s-7.057,1.832-10.576,7.045c-4.892,7.245-2.988,10.9-2.988,10.9Z" transform="translate(-723.694 -744.995)" fill="#ebebeb"/>
        </g>
        <g id="Group_11258" data-name="Group 11258" transform="translate(14.815 22.692)">
          <path id="Path_15175" data-name="Path 15175" d="M724.853,765.177a.241.241,0,0,0,.071-.011.234.234,0,0,0,.148-.289,5.547,5.547,0,0,1-.015-2.42.232.232,0,0,0,.018-.046c1.962-7.407,11.638-12.328,11.736-12.377a.229.229,0,0,0-.205-.41c-.1.05-9.94,5.057-11.968,12.648a5.422,5.422,0,0,0,0,2.747A.225.225,0,0,0,724.853,765.177Z" transform="translate(-724.461 -749.6)" fill="#fff"/>
        </g>
        <g id="Group_11259" data-name="Group 11259" transform="translate(0 9.111)">
          <path id="Path_15176" data-name="Path 15176" d="M709.052,754.348a4.513,4.513,0,0,1-2.136-4.532,3.173,3.173,0,0,0-2.814-3.8c-.625-.1-4.689-1.772-4.064-7.868,0,0,.209-3.907-.521-5.314s-2.553-5.626,0-6.929,4.324,1.042,5.262,3.438a13.3,13.3,0,0,0,1.354,3.439c.625.677,5.158,4.637,4.794,12.869l-.888,8.7Z" transform="translate(-698.203 -725.529)" fill="#ebebeb"/>
        </g>
        <g id="Group_11260" data-name="Group 11260" transform="translate(3.638 13.903)">
          <path id="Path_15177" data-name="Path 15177" d="M712.279,758.279a.229.229,0,0,0,.229-.221c.263-7.008-2.775-16.146-4.518-18.787a46.884,46.884,0,0,1-2.9-5.117.229.229,0,0,0-.415.2,47.6,47.6,0,0,0,2.934,5.174c1.714,2.6,4.7,11.6,4.443,18.517a.23.23,0,0,0,.221.238Z" transform="translate(-704.651 -734.023)" fill="#fff"/>
        </g>
      </g>
      <path id="Path_15178" data-name="Path 15178" d="M720.769,789.76h-9.825L708.566,776.3h14.582Z" transform="translate(-702.719 -738.542)" fill="#ebebeb"/>
    </g>
    <g id="Group_11266" data-name="Group 11266" transform="translate(545.238 391.004)">
      <g id="Group_11265" data-name="Group 11265">
        <g id="Group_11263" data-name="Group 11263" transform="translate(0 37.969)">
          <rect id="Rectangle_3483" data-name="Rectangle 3483" width="183.141" height="5.497" fill="#40558d"/>
          <rect id="Rectangle_3484" data-name="Rectangle 3484" width="170.133" height="98.783" transform="translate(6.747 2.12)" fill="#40558d"/>
          <rect id="Rectangle_3485" data-name="Rectangle 3485" width="52.792" height="98.783" transform="translate(124.088 2.12)" fill="#7b87ab"/>
          <rect id="Rectangle_3486" data-name="Rectangle 3486" width="183.141" height="7.154" transform="translate(0 2.12)" fill="#2d356b"/>
        </g>
        <g id="Group_11264" data-name="Group 11264" transform="translate(46.918)">
          <path id="Path_15179" data-name="Path 15179" d="M848.189,588.738H805.713a2.626,2.626,0,0,1-2.581-2.137l-5.725-30.137a2.627,2.627,0,0,1,2.581-3.117h42.476a2.627,2.627,0,0,1,2.581,2.137l5.725,30.137A2.627,2.627,0,0,1,848.189,588.738Z" transform="translate(-797.36 -553.347)" fill="#cfd0d8"/>
          <path id="Path_15180" data-name="Path 15180" d="M880.218,555.867a1.424,1.424,0,1,0-2.1.98l5.725,30.138a1.424,1.424,0,1,0,2.1-.981Z" transform="translate(-832.533 -553.73)" fill="#ebebeb"/>
          <path id="Path_15181" data-name="Path 15181" d="M880.445,619.061H815.153a2.989,2.989,0,0,1-2.989-2.989h71.271A2.989,2.989,0,0,1,880.445,619.061Z" transform="translate(-803.811 -580.681)" fill="#9898a4"/>
          <path id="Path_15182" data-name="Path 15182" d="M917.252,616.072H889.767a3.21,3.21,0,0,0,3.392,2.989h20.7A3.21,3.21,0,0,0,917.252,616.072Z" transform="translate(-837.628 -580.681)" fill="#cfd0d8"/>
          <circle id="Ellipse_570" data-name="Ellipse 570" cx="3.015" cy="3.015" r="3.015" transform="translate(21.843 16.064) rotate(-22.5)" fill="#fff4ba"/>
        </g>
      </g>
    </g>
    <g id="Group_11274" data-name="Group 11274" transform="translate(712.898 479.042)">
      <g id="Group_11273" data-name="Group 11273" transform="translate(0)">
        <g id="Group_11267" data-name="Group 11267" transform="translate(9.388)">
          <path id="Path_15183" data-name="Path 15183" d="M1029.483,732.165s-.777-5.229-1.129-6.38c-.455-1.486-.677-3.7.573-5s1.439-4.368,1.439-4.837.469-7.5,5.627-6.46c0,0,2.136.521,1.094,4.272,0,0-1.095,2.24.287,3.647a5.712,5.712,0,0,1,0,7.763c-2.579,3.126-1.845,4.271-1.433,5.471,1.879,5.472-2.119,10.5-2.552,11.837s-.955,3.541-.52,4.807l-1.517.028Z" transform="translate(-1027.995 -709.382)" fill="#ebebeb"/>
        </g>
        <g id="Group_11268" data-name="Group 11268" transform="translate(13.138 5.294)">
          <path id="Path_15184" data-name="Path 15184" d="M1035.055,751.6a.221.221,0,0,0,.046-.005.228.228,0,0,0,.178-.27c-.579-2.823.438-7.853.449-7.9.561-2.141.723-4.877-.206-11.852a26.781,26.781,0,0,1,.283-9.151,15.373,15.373,0,0,1,1.06-3.324.229.229,0,0,0-.409-.208,15.42,15.42,0,0,0-1.095,3.415,27.218,27.218,0,0,0-.293,9.328c.916,6.877.748,9.646.214,11.687-.046.222-1.05,5.185-.451,8.1A.229.229,0,0,0,1035.055,751.6Z" transform="translate(-1034.641 -718.765)" fill="#fff"/>
        </g>
        <g id="Group_11269" data-name="Group 11269" transform="translate(14.383 20.094)">
          <path id="Path_15185" data-name="Path 15185" d="M1038.643,762.941s0-1.233,2.531-2.4a4.228,4.228,0,0,0,2.531-3.05c.649-2.466,2.466-1.817,3.634-1.1s3.822,0,3.825-3.7a2.456,2.456,0,0,1,.905-2.985c1.694-1.038,2.343-4.746-1.291-4.709s-7.058,1.832-10.577,7.045c-4.892,7.245-2.987,10.9-2.987,10.9Z" transform="translate(-1036.848 -744.995)" fill="#ebebeb"/>
        </g>
        <g id="Group_11270" data-name="Group 11270" transform="translate(14.815 22.692)">
          <path id="Path_15186" data-name="Path 15186" d="M1038.006,765.177a.238.238,0,0,0,.07-.011.233.233,0,0,0,.147-.289,5.555,5.555,0,0,1-.014-2.42.261.261,0,0,0,.018-.046c1.962-7.407,11.638-12.328,11.735-12.377a.229.229,0,1,0-.2-.41c-.1.05-9.94,5.057-11.968,12.648a5.424,5.424,0,0,0,0,2.747A.224.224,0,0,0,1038.006,765.177Z" transform="translate(-1037.613 -749.6)" fill="#fff"/>
        </g>
        <g id="Group_11271" data-name="Group 11271" transform="translate(0 9.111)">
          <path id="Path_15187" data-name="Path 15187" d="M1022.2,754.348a4.514,4.514,0,0,1-2.136-4.532,3.172,3.172,0,0,0-2.813-3.8c-.625-.1-4.689-1.772-4.064-7.868,0,0,.209-3.907-.521-5.314s-2.553-5.626,0-6.929,4.324,1.042,5.262,3.438a13.308,13.308,0,0,0,1.355,3.439c.625.677,5.158,4.637,4.793,12.869l-.887,8.7Z" transform="translate(-1011.356 -725.529)" fill="#ebebeb"/>
        </g>
        <g id="Group_11272" data-name="Group 11272" transform="translate(3.638 13.903)">
          <path id="Path_15188" data-name="Path 15188" d="M1025.432,758.279a.229.229,0,0,0,.229-.221c.264-7.008-2.776-16.146-4.518-18.787a46.9,46.9,0,0,1-2.9-5.117.229.229,0,0,0-.415.2,47.373,47.373,0,0,0,2.934,5.174c1.714,2.6,4.7,11.6,4.443,18.517a.229.229,0,0,0,.221.238Z" transform="translate(-1017.804 -734.023)" fill="#fff"/>
        </g>
      </g>
      <path id="Path_15189" data-name="Path 15189" d="M1033.922,789.76H1024.1l-2.378-13.463H1036.3Z" transform="translate(-1015.872 -738.542)" fill="#ebebeb"/>
    </g>
    <g id="Group_11275" data-name="Group 11275" transform="translate(662.024 391.004)">
      <rect id="Rectangle_3487" data-name="Rectangle 3487" width="57.891" height="32.224" rx="6.672" fill="#fff" stroke="#231f20" stroke-miterlimit="10" stroke-width="0.25"/>
      <text id="Helen" transform="translate(15.446 19.612)" fill="#2d356b" font-size="10" font-family="TrebuchetMS-Bold, Trebuchet MS" font-weight="700"><tspan x="0" y="0">Helen</tspan></text>
    </g>
    <g id="Group_11280" data-name="Group 11280" transform="translate(306.402 183.394)">
      <g id="Group_11279" data-name="Group 11279" transform="translate(18.61 5.625)">
        <g id="Group_11278" data-name="Group 11278">
          <g id="Group_11277" data-name="Group 11277">
            <path id="Path_15190" data-name="Path 15190" d="M705.5,296.875c11.563,16.559.909,33.713-25.959,39.7-28.54,6.358-64.8-2.24-82.108-19.243-14.644,8.584-36.653,14.876-61.633,16.584-46.047,3.15-84.742-10.465-86.426-30.41a18.417,18.417,0,0,1,3.246-11.636c-39.114,6.39-61.505-2.556-70.11-25.29-6.349-16.776,15.372-45.254,71.57-49.1,7.166-.49,14.176-.736,20.96-.758-.123-.553-1.977-3.73,1.176-9.071,13.708-23.217,58.273-25.559,104.377-19.245,38.821,5.316,57.593,21.126,65.984,35.175,0,0,112.127-22.926,129.492,32.148C776.068,255.731,796.015,304.423,705.5,296.875Z" transform="translate(-381.44 -185.392)" fill="#fff" stroke="#ebebeb" stroke-miterlimit="10" stroke-width="1"/>
          </g>
        </g>
      </g>
      <circle id="Ellipse_571" data-name="Ellipse 571" cx="9.13" cy="9.13" r="9.13" transform="translate(4.349 72.264)" fill="#fff" stroke="#ebebeb" stroke-miterlimit="10" stroke-width="1"/>
      <circle id="Ellipse_572" data-name="Ellipse 572" cx="5.411" cy="5.411" r="5.411" transform="translate(4 88.122)" fill="#fff" stroke="#ebebeb" stroke-miterlimit="10" stroke-width="1"/>
      <circle id="Ellipse_573" data-name="Ellipse 573" cx="4.628" cy="4.628" r="4.628" transform="translate(6.159 102.197)" fill="#fff" stroke="#ebebeb" stroke-miterlimit="10" stroke-width="1"/>
    </g>
    <g id="Group_11293" data-name="Group 11293" transform="translate(304.908 296.816)">
      <g id="Group_11292" data-name="Group 11292">
        <g id="Group_11291" data-name="Group 11291">
          <g id="Group_11281" data-name="Group 11281" transform="translate(2.966 99.692)">
            <path id="Path_15191" data-name="Path 15191" d="M416.275,571.611l9.909,1.864c8.714,31.127,6.574,68.236,26.046,131.788,0,0-1.86.811-2.128,0-16.2-49.141-25.062-87.671-28.206-92.965C414.911,600.534,406.176,590.534,416.275,571.611Z" transform="translate(-384.695 -566.81)" fill="#ffd8a3"/>
            <path id="Path_15192" data-name="Path 15192" d="M393.711,568.207c-12.2,22.745-3.064,20.981-2.668,32.745,1.143,33.922-20.484,51.177-27.2,103.064,0,0,2.659-.136,2.734-.885,4.171-41.395,40.852-81,42.36-119.433.1-2.478.206-9.881-2.685-12.53C401.837,567.115,393.711,568.207,393.711,568.207Z" transform="translate(-363.845 -565.268)" fill="#f7c371"/>
            <path id="Path_15193" data-name="Path 15193" d="M371.932,807.456h-7.97s-.385-2.263,1.393-2.625C366.474,804.6,368.454,805.129,371.932,807.456Z" transform="translate(-363.881 -668.42)" fill="#7b88ac"/>
            <path id="Path_15194" data-name="Path 15194" d="M486.768,807.8h-7.006s-.339-2.261,1.225-2.624C481.971,804.95,483.711,805.475,486.768,807.8Z" transform="translate(-414.345 -668.571)" fill="#7b88ac"/>
            <path id="Path_15195" data-name="Path 15195" d="M390.09,643.387s33.455,5.379,41.122,3.227c0,0-7.319-76.024-12.546-80.685s-14.637-2.152-14.637-2.152a29.579,29.579,0,0,0-4.879,31.557C406.12,611.83,390.09,643.387,390.09,643.387Z" transform="translate(-375.282 -563.102)" fill="#f46973"/>
          </g>
          <g id="Group_11290" data-name="Group 11290">
            <g id="Group_11287" data-name="Group 11287">
              <g id="Group_11286" data-name="Group 11286">
                <g id="Group_11282" data-name="Group 11282" transform="translate(0 1.983)">
                  <path id="Path_15196" data-name="Path 15196" d="M405.385,447.964c5.746-5.88-3.625-6.888-3.345-11.891s1.416-3.457,2.028-9.92-1.172-8.81-1.4-12.558,2.114-9.966-.16-14.652-3.536-3.045-5.513-6.77-3.647.442-6.726,2.2-6.893-7.175-12.28-3.586-4.688,10.547-6.228,14.5-6.943,5.675-7.608,12.691,3.183,5.332,1.557,10.207-6.455,4.6-7.119,11.621c0,0-.472,7.033,7.346,6.47s5.476,3.685,13.906.759,5.774,4.645,11.685,1.666S400.253,453.216,405.385,447.964Z" transform="translate(-358.588 -389.93)" fill="#2d356b"/>
                </g>
                <g id="Group_11283" data-name="Group 11283" transform="translate(23.912 24.305)">
                  <path id="Path_15197" data-name="Path 15197" d="M410.06,429.49l7.221,4.536,1.3,15.615-5.8-2.1Z" transform="translate(-404.931 -429.49)" fill="#f7c371"/>
                  <path id="Path_15198" data-name="Path 15198" d="M428.329,534.572c-4.641-3.04-15.414-9.76-27.36-1.44,3.573-10.493,6.818-20.809,6.933-29.44.214-16-13.385-34.794-2.133-42.027,11.947-7.681,26.134,27.786,26.134,27.786C419.956,496.171,423.262,515.437,428.329,534.572Z" transform="translate(-400.969 -443.036)" fill="#9999a5"/>
                  <path id="Path_15199" data-name="Path 15199" d="M410.936,459.764l2.1-.247,9.381,8.826-2.777,2.346S413.343,464.269,410.936,459.764Z" transform="translate(-405.312 -442.575)" fill="#fff"/>
                  <path id="Path_15200" data-name="Path 15200" d="M428.146,470.979c.046-.032.087-.063.131-.1-2.476-4.939-7.886-12.5-13.111-12.018C419.922,463.109,428.146,470.979,428.146,470.979Z" transform="translate(-407.156 -442.282)" fill="#f7c371"/>
                </g>
                <g id="Group_11285" data-name="Group 11285" transform="translate(16.61)">
                  <g id="Group_11284" data-name="Group 11284">
                    <path id="Path_15201" data-name="Path 15201" d="M406.806,419.034c-3.85-1.057-11.6-2.29-15.34-8.1-4.856-7.56-3.623-12.235-2-17.924,3.086-10.844,21.583-5.767,20.427-2.572C408.354,394.677,420.761,422.864,406.806,419.034Z" transform="translate(-388.027 -386.414)" fill="#2d356b"/>
                    <path id="Path_15202" data-name="Path 15202" d="M422.734,425.636c1.4,0,3.916-7.255,4.664-12.819.247-1.835-1.728-2.05-1.6-8.309.073-3.674-1.623-8.76-7.776-12.409-5.809-3.445-6.24,7.957-6.737,10.591-1.417,7.5-3.333,12.215-1.409,15.846C413.629,425.627,421.218,425.274,422.734,425.636Z" transform="translate(-397.192 -388.612)" fill="#ffd8a3"/>
                    <path id="Path_15203" data-name="Path 15203" d="M432.831,434.493a.323.323,0,0,1,.292-.351.34.34,0,0,1,.28.373.323.323,0,0,1-.293.35A.339.339,0,0,1,432.831,434.493Z" transform="translate(-407.551 -407.213)" fill="#ffab00"/>
                    <path id="Path_15204" data-name="Path 15204" d="M431.4,417.059c.033-.987.611-1.759,1.288-1.725s1.2.862,1.168,1.849-.611,1.759-1.289,1.725S431.364,418.046,431.4,417.059Z" transform="translate(-406.926 -399.016)" fill="#2d356b"/>
                    <path id="Path_15205" data-name="Path 15205" d="M428.965,417.16c.95-1.365,2.3-2.727,4.888-1.824A9.439,9.439,0,0,0,428.965,417.16Z" transform="translate(-405.867 -398.891)" fill="#2d356b"/>
                    <path id="Path_15206" data-name="Path 15206" d="M436.107,441.748c.042-.229.747.582,1.081.611.945.081.675,1.286-.267,1.109C436.552,443.4,436.064,441.99,436.107,441.748Z" transform="translate(-408.978 -410.51)" fill="#f36973"/>
                    <path id="Path_15207" data-name="Path 15207" d="M434.663,434.676c-.64-.255,3.682-1.5,2.9-.034A6.79,6.79,0,0,1,434.663,434.676Z" transform="translate(-408.321 -407.125)" fill="#f36973"/>
                    <path id="Path_15208" data-name="Path 15208" d="M432.361,406.979a5.754,5.754,0,0,0-6.936,3.618C427.294,408.037,428.743,407.081,432.361,406.979Z" transform="translate(-404.324 -395.304)" fill="#2d356b"/>
                    <path id="Path_15209" data-name="Path 15209" d="M440.73,425.535l-2.172.665-.078-5.549,3.238,3.95Z" transform="translate(-410.013 -401.334)" fill="#ffd8a3"/>
                    <path id="Path_15210" data-name="Path 15210" d="M440.037,432.323l1.689-3.436-1.631-.058Z" transform="translate(-410.691 -404.897)" fill="#ffd8a3"/>
                    <path id="Path_15211" data-name="Path 15211" d="M436.178,439.644a40.919,40.919,0,0,0,1.072-4.817h-3.924S434.105,438.981,436.178,439.644Z" transform="translate(-407.767 -407.511)" fill="#ffab00"/>
                    <path id="Path_15212" data-name="Path 15212" d="M434.852,437.188h2.235c.129-.6.249-1.238.359-1.894h-3.207Z" transform="translate(-408.165 -407.715)" fill="#fff"/>
                    <path id="Path_15213" data-name="Path 15213" d="M404.865,422.693c.089-1.711.667-2.973-.63-3.038s-2.427,1.272-2.515,2.985.9,3.153,2.2,3.218S404.778,424.407,404.865,422.693Z" transform="translate(-393.991 -400.899)" fill="#f7c371"/>
                  </g>
                  <path id="Path_15214" data-name="Path 15214" d="M420.765,392.414c-4.121,6.227-11.343,15.332-9.6,24.205-3.653-9.447-2.023-22.049,4.244-27.237C416.065,390.33,421.675,390.044,420.765,392.414Z" transform="translate(-397.27 -387.707)" fill="#2d356b"/>
                </g>
              </g>
            </g>
            <g id="Group_11289" data-name="Group 11289" transform="translate(2.815 44.462)">
              <g id="Group_11288" data-name="Group 11288" transform="translate(23.182 57.155)">
                <path id="Path_15215" data-name="Path 15215" d="M419.627,581.19c.249-.606-.791-1.168-2.05-1.625s-2.259-.639-2.512-.033.565,1.468,1.825,1.925S419.375,581.8,419.627,581.19Z" transform="translate(-409.177 -572.019)" fill="#f7c371"/>
                <path id="Path_15216" data-name="Path 15216" d="M417.393,583.631c.251-.607-.79-1.167-2.05-1.624s-2.259-.642-2.512-.035.566,1.466,1.826,1.926S417.141,584.235,417.393,583.631Z" transform="translate(-408.203 -573.082)" fill="#f7c371"/>
                <path id="Path_15217" data-name="Path 15217" d="M422.6,575.772c-.574-.346-1.687.974-2.782,2.58s-1.759,2.886-1.185,3.235,1.924-.674,3.02-2.281S423.177,576.119,422.6,575.772Z" transform="translate(-410.661 -570.525)" fill="#ffd8a3"/>
                <path id="Path_15218" data-name="Path 15218" d="M406.339,566.515c2.655,1.1,11.271,3.911,10.335,6.854-.837,2.633-5.589,4.6-12.011-4.711Z" transform="translate(-404.664 -566.515)" fill="#ffd8a3"/>
              </g>
              <path id="Path_15219" data-name="Path 15219" d="M390.459,465.58c-5.946-4.558-26.716,35.186-26.881,36.773,0,0,3.12,4.758,4.613,3.622C372.057,503.035,393.114,467.615,390.459,465.58Z" transform="translate(-363.578 -465.216)" fill="#cecfd7"/>
              <path id="Path_15220" data-name="Path 15220" d="M387.81,550.806c4.483-3.52-19.024-23.969-20.168-24.384,0,0-4.1,1.408-3.541,2.716C365.555,532.518,385.807,552.378,387.81,550.806Z" transform="translate(-363.783 -491.888)" fill="#cecfd7"/>
              <path id="Path_15221" data-name="Path 15221" d="M401.767,567.053l-1.547.925-6.347-2.592s2.34-2.167,3.116-2.3S401.767,567.053,401.767,567.053Z" transform="translate(-376.78 -507.864)" fill="#eaeaea"/>
              <path id="Path_15222" data-name="Path 15222" d="M404.865,564.134l1.043-1.484-2.19-6.5s-2.354,2.194-2.545,2.96S404.865,564.134,404.865,564.134Z" transform="translate(-379.958 -504.842)" fill="#eaeaea"/>
            </g>
          </g>
        </g>
      </g>
    </g>
    <g id="Group_11276" data-name="Group 11276" transform="translate(310.401 374.891)">
      <rect id="Rectangle_3488" data-name="Rectangle 3488" width="57.483" height="32.224" rx="6.672" transform="translate(0)" fill="#fff" stroke="#231f20" stroke-miterlimit="10" stroke-width="0.25"/>
      <text id="Akiko" transform="translate(15.741 19.612)" fill="#2d356b" font-size="10" font-family="TrebuchetMS-Bold, Trebuchet MS" font-weight="700"><tspan x="0" y="0">Akiko</tspan></text>
    </g>
  </g>
</svg>
