<svg xmlns="http://www.w3.org/2000/svg" width="293.384" height="164.256" viewBox="0 0 293.384 164.256">
  <g id="Group_14354" data-name="Group 14354" transform="translate(-158.994 -3477.381)">
    <g id="Group_14315" data-name="Group 14315" transform="translate(158.994 3480.027)">
      <g id="Group_14306" data-name="Group 14306">
        <path id="Path_21074" data-name="Path 21074" d="M480.3,882.247H300.164A13.466,13.466,0,0,0,286.7,895.709v118.942a13.465,13.465,0,0,0,13.465,13.465H480.3a13.467,13.467,0,0,0,13.468-13.465V895.709A13.468,13.468,0,0,0,480.3,882.247Z" transform="translate(-286.699 -882.247)" fill="#dbdadc"/>
        <g id="Group_14305" data-name="Group 14305" transform="translate(0 11.015)">
          <path id="Path_21075" data-name="Path 21075" d="M286.7,913.62v108.146H493.766V913.62a13.686,13.686,0,0,0-.226-2.447H286.925A13.478,13.478,0,0,0,286.7,913.62Z" transform="translate(-286.699 -911.173)" fill="#4e4e4e"/>
          <g id="Group_14304" data-name="Group 14304" transform="translate(84.233 134.855)">
            <path id="Path_21076" data-name="Path 21076" d="M546.266,1279.446s-1.642-1.7-3.707-3.553-1.774-3.208-1.774-3.208l-.557-7.373H514.175l-.554,7.373s.292,1.358-1.776,3.208-3.705,3.553-3.705,3.553a2.161,2.161,0,0,0-.239,1c0,.584.345.609,1.773.609h35.055c1.43,0,1.773-.026,1.773-.609A2.177,2.177,0,0,0,546.266,1279.446Z" transform="translate(-507.901 -1265.312)" fill="#d0d2d3"/>
            <path id="Path_21077" data-name="Path 21077" d="M546.266,1279.446s-1.642-1.7-3.707-3.553-1.774-3.208-1.774-3.208l-.557-7.373H514.175l-.554,7.373s.292,1.358-1.776,3.208-3.705,3.553-3.705,3.553a2.161,2.161,0,0,0-.239,1c0,.584.345.609,1.773.609h35.055c1.43,0,1.773-.026,1.773-.609A2.177,2.177,0,0,0,546.266,1279.446Z" transform="translate(-507.901 -1265.312)" fill="#cdccce"/>
          </g>
        </g>
      </g>
      <g id="Group_14314" data-name="Group 14314" transform="translate(0.18 11.015)">
        <g id="Group_14309" data-name="Group 14309" transform="translate(0 0)">
          <g id="Group_14308" data-name="Group 14308">
            <g id="Group_14307" data-name="Group 14307">
              <rect id="Rectangle_5073" data-name="Rectangle 5073" width="110.658" height="206.21" transform="translate(0 110.658) rotate(-89.875)" fill="#fff"/>
            </g>
          </g>
          <rect id="Rectangle_5074" data-name="Rectangle 5074" width="4.332" height="65.61" transform="translate(21.914 80.267) rotate(-89.875)" fill="#9ea9fc"/>
          <rect id="Rectangle_5075" data-name="Rectangle 5075" width="4.346" height="65.61" transform="translate(21.898 87.632) rotate(-89.875)" fill="#9ea9fc"/>
          <text id="Proposal" transform="translate(21.914 32.77)" fill="#2d356b" font-size="24" font-family="TrebuchetMS-Bold, Trebuchet MS" font-weight="700"><tspan x="0" y="0">Proposal</tspan></text>
        </g>
        <g id="Group_14313" data-name="Group 14313" transform="translate(115.751 53.492)">
          <path id="Path_21078" data-name="Path 21078" d="M594.65,1093.418l.47-41.751-3.481-.02-.5,44.166,63.684.368.027-2.416Z" transform="translate(-591.141 -1051.647)" fill="#ffac00"/>
          <g id="Group_14312" data-name="Group 14312" transform="translate(8.766 0.254)">
            <path id="Path_21079" data-name="Path 21079" d="M663.239,1087.739l-8.264.55,2.1,1.672-16.444,9.954-8.539-2.961L614.2,1107.406l-.043,3.791,18.622-10.892,8.631,2.986,18.2-11.3,2.223,1.777Z" transform="translate(-614.162 -1074.249)" fill="#ffac00"/>
            <g id="Group_14311" data-name="Group 14311" transform="translate(0.14)">
              <g id="Group_14310" data-name="Group 14310">
                <path id="Path_21080" data-name="Path 21080" d="M614.529,1080.911l11.462-16.168a.917.917,0,0,1,.961-.264h0l12.388,3.417,5.153-1.266,4.83-13.9a.705.705,0,0,1,.584-.4h0a.93.93,0,0,1,.76.2h0l7.009,6.508,10.069-2.466.493,1.04-10.587,2.591a.971.971,0,0,1-.858-.184h0l-6.368-5.917-4.551,13.087a.644.644,0,0,1-.486.386h0l-5.814,1.43a1.042,1.042,0,0,1-.522-.005h0l-12.005-3.314-12.5,17.612Z" transform="translate(-614.529 -1052.314)" fill="#ffac00"/>
                <path id="Path_21081" data-name="Path 21081" d="M753.591,1064.023l1.775-2.822a.1.1,0,0,0-.005-.111.185.185,0,0,0-.137-.06l-4.033-.36a.283.283,0,0,0-.2.056.112.112,0,0,0-.019.141l2.264,3.176a.213.213,0,0,0,.176.069A.2.2,0,0,0,753.591,1064.023Z" transform="translate(-699.008 -1057.488)" fill="#ffac00"/>
              </g>
            </g>
          </g>
        </g>
      </g>
    </g>
    <g id="Group_14316" data-name="Group 14316" transform="translate(198.705 3487.093)">
      <rect id="Rectangle_5076" data-name="Rectangle 5076" width="238.524" height="59.818" rx="29.909" transform="translate(0 86.638) rotate(-21.298)" fill="#fff" stroke="#f46973" stroke-miterlimit="10" stroke-width="15" stroke-dasharray="40 20 0 0"/>
      <text id="APPROVED" transform="matrix(0.932, -0.363, 0.363, 0.932, 57.96, 107.657)" fill="#f46973" font-size="28" font-family="TrebuchetMS-Bold, Trebuchet MS" font-weight="700"><tspan x="0" y="0">APPROVED</tspan></text>
    </g>
  </g>
</svg>
