<svg xmlns="http://www.w3.org/2000/svg" width="544" height="356.382" viewBox="0 0 544 356.382">
  <g id="Group_18498" data-name="Group 18498" transform="translate(-488.88 -277.913)">
    <g id="Group_18459" data-name="Group 18459" transform="translate(488.88 277.913)">
      <g id="Group_18368" data-name="Group 18368" transform="translate(0 0)">
        <g id="Group_18367" data-name="Group 18367">
          <g id="Group_18366" data-name="Group 18366">
            <g id="Group_18365" data-name="Group 18365">
              <g id="Group_18364" data-name="Group 18364">
                <g id="Group_18361" data-name="Group 18361" transform="translate(0.517)">
                  <g id="Group_18357" data-name="Group 18357" transform="translate(0.118)">
                    <path id="Path_27243" data-name="Path 27243" d="M1033.484,291.5h.644V279H490.763v261.3h542.716V514.046h.005Z" transform="translate(-490.763 -278.631)" fill="#fff"/>
                    <rect id="Rectangle_6547" data-name="Rectangle 6547" width="542.73" height="0.731" transform="translate(0 261.296)" fill="#a0bacb"/>
                    <rect id="Rectangle_6548" data-name="Rectangle 6548" width="543.365" height="0.731" fill="#7b88ac"/>
                  </g>
                  <g id="Group_18358" data-name="Group 18358" transform="translate(0 53.391)">
                    <path id="Path_27244" data-name="Path 27244" d="M577.835,437.482v-.192h-7.587v.192H491.825v159.3H652.877v-159.3Zm68.374,5.115v35.03H577.835V442.6Zm-75.961,41.075V550.6H498.493V483.672Zm7.587,66.924V483.672h68.374V550.6Zm-7.587-108v35.03H498.493V442.6ZM498.493,556.641h71.755v35.03H498.493Zm79.342,35.03v-35.03h68.374v35.03Z" transform="translate(-491.348 -436.925)" fill="#ebebeb"/>
                    <path id="Path_27245" data-name="Path 27245" d="M652.416,596.434h-162V436.4h78.424v-.192h8.539v.192h75.042ZM491.365,595.7h160.1V437.129H576.422v-.192h-6.634v.192H491.365Zm154.384-4.385H576.422V555.558h69.326Zm-68.374-.731H644.8v-34.3H577.375Zm-7.587.731H497.08V555.558h72.708Zm-71.755-.731h70.8v-34.3h-70.8Zm147.716-40.344H576.422V482.589h69.326Zm-68.374-.731H644.8V483.32H577.375Zm-7.587.731H497.08V482.589h72.708Zm-71.755-.731h70.8V483.32h-70.8Zm147.716-72.239H576.422V441.514h69.326Zm-68.374-.731H644.8v-34.3H577.375Zm-7.587.731H497.08V441.514h72.708Zm-71.755-.731h70.8v-34.3h-70.8Z" transform="translate(-490.412 -436.207)" fill="#ebebeb"/>
                  </g>
                  <g id="Group_18359" data-name="Group 18359" transform="translate(219.688 52.448)">
                    <path id="Path_27246" data-name="Path 27246" d="M1202.376,434.687v-.192h-6.958v.192h-71.932v159.3h147.721v-159.3Zm62.715,5.115v35.03h-62.715V439.8Zm-69.673,41.075V547.8H1129.6V480.877Zm6.958,66.924V480.877h62.715V547.8Zm-6.958-108v35.03H1129.6V439.8ZM1129.6,553.846h65.817v35.031H1129.6Zm72.775,35.031V553.846h62.715v35.031Z" transform="translate(-1123.048 -434.13)" fill="#ebebeb"/>
                    <path id="Path_27247" data-name="Path 27247" d="M1270.784,593.639H1122.19V433.6h71.932v-.192h7.833v.192h68.83Zm-147.721-.731h146.847V434.335h-68.83v-.192H1195v.192h-71.932Zm141.6-4.384h-63.588V552.763h63.588Zm-62.714-.73h61.84v-34.3h-61.84Zm-6.959.73h-66.69V552.763H1195Zm-65.816-.73h64.943v-34.3h-64.943Zm135.49-40.345h-63.588V479.794h63.588Zm-62.714-.731h61.84V480.525h-61.84Zm-6.959.731h-66.69V479.794H1195Zm-65.816-.731h64.943V480.525h-64.943Zm135.49-72.238h-63.588V438.719h63.588Zm-62.714-.73h61.84v-34.3h-61.84Zm-6.959.73h-66.69V438.719H1195Zm-65.816-.73h64.943v-34.3h-64.943Z" transform="translate(-1122.19 -433.412)" fill="#ebebeb"/>
                  </g>
                  <g id="Group_18360" data-name="Group 18360" transform="translate(415.726 53.391)">
                    <path id="Path_27248" data-name="Path 27248" d="M1815.876,591.672h-40.642v-35.03h40.642V550.6h-40.642V483.672h40.642v-6.045h-40.642V442.6h40.642v-5.115h-40.642v-.192h-7.586v.192h-78.423v159.3h126.651Zm-48.229,0h-71.755v-35.03h71.755Zm0-41.075h-71.755V483.672h71.755Zm0-72.97h-71.755V442.6h71.755Z" transform="translate(-1688.748 -436.925)" fill="#ebebeb"/>
                    <path id="Path_27249" data-name="Path 27249" d="M1942.813,825.819h41.118v-.731h-40.165v-34.3h40.165v-.731h-41.118Z" transform="translate(-1856.804 -670.707)" fill="#ebebeb"/>
                    <path id="Path_27250" data-name="Path 27250" d="M1942.813,641.374h41.118v-.731h-40.165V574.45h40.165v-.731h-41.118Z" transform="translate(-1856.804 -527.337)" fill="#ebebeb"/>
                    <path id="Path_27251" data-name="Path 27251" d="M1942.813,487.7h41.118v-.731h-40.165v-34.3h40.165v-.731h-41.118Z" transform="translate(-1856.804 -446.633)" fill="#ebebeb"/>
                    <path id="Path_27252" data-name="Path 27252" d="M1780.289,451.94h-72.708V487.7h72.708Zm-.953,35.03h-70.8v-34.3h70.8Z" transform="translate(-1700.914 -446.633)" fill="#ebebeb"/>
                    <path id="Path_27253" data-name="Path 27253" d="M1814.94,595.7H1688.765V437.129h78.423v-.192h6.634v.192h41.118V436.4h-40.165v-.192h-8.539v.192h-78.423V596.434H1814.94Z" transform="translate(-1687.813 -436.207)" fill="#ebebeb"/>
                    <path id="Path_27254" data-name="Path 27254" d="M1707.581,825.819h72.708V790.058h-72.708Zm.952-35.031h70.8v34.3h-70.8Z" transform="translate(-1700.914 -670.707)" fill="#ebebeb"/>
                    <path id="Path_27255" data-name="Path 27255" d="M1780.289,573.719h-72.708v67.655h72.708Zm-.953,66.924h-70.8V574.45h70.8Z" transform="translate(-1700.914 -527.337)" fill="#ebebeb"/>
                  </g>
                </g>
                <g id="Group_18362" data-name="Group 18362" transform="translate(0 230.204)">
                  <path id="Path_27256" data-name="Path 27256" d="M1032.245,961.341H489.529v89.651h-.649v36.216h543.36V965.161h.005Z" transform="translate(-488.88 -961.031)" fill="#f9f9f9"/>
                  <rect id="Rectangle_6549" data-name="Rectangle 6549" width="541.624" height="0.524" transform="translate(1.899 125.457)" fill="#f9f9f9"/>
                  <rect id="Rectangle_6550" data-name="Rectangle 6550" width="542.735" height="0.524" transform="translate(0.635)" fill="#f9f9f9"/>
                </g>
                <g id="Group_18363" data-name="Group 18363" transform="translate(28.425 4.607)">
                  <path id="Path_27257" data-name="Path 27257" d="M1437.033,369.746V291.571h-1.8v78.175c-5.6.4-10,4.466-10,9.436,0,5.233,4.877,9.476,10.894,9.476s10.894-4.242,10.894-9.476C1447.029,374.212,1442.628,370.143,1437.033,369.746Z" transform="translate(-1137.839 -291.571)" fill="#c3e8e6"/>
                  <path id="Path_27258" data-name="Path 27258" d="M584.945,388.053V309.878h-1.8v78.175c-5.6.4-10,4.466-10,9.436,0,5.233,4.877,9.476,10.894,9.476s10.894-4.243,10.894-9.476C594.942,392.519,590.541,388.451,584.945,388.053Z" transform="translate(-573.154 -303.703)" fill="#c3e8e6"/>
                  <path id="Path_27259" data-name="Path 27259" d="M884.879,385.122V328.287h-1.3v56.835c-4.068.289-7.268,3.247-7.268,6.86,0,3.8,3.546,6.889,7.92,6.889s7.92-3.084,7.92-6.889C892.146,388.369,888.947,385.411,884.879,385.122Z" transform="translate(-774.055 -315.903)" fill="#c3e8e6"/>
                  <path id="Path_27260" data-name="Path 27260" d="M1699.007,385.122V328.287h-1.3v56.835c-4.069.289-7.268,3.247-7.268,6.86,0,3.8,3.547,6.889,7.92,6.889s7.92-3.084,7.92-6.889C1706.276,388.369,1703.076,385.411,1699.007,385.122Z" transform="translate(-1313.585 -315.903)" fill="#c3e8e6"/>
                </g>
              </g>
            </g>
          </g>
        </g>
      </g>
      <g id="Group_18405" data-name="Group 18405" transform="translate(25.886 139.805)">
        <g id="Group_18377" data-name="Group 18377" transform="translate(0 21.778)">
          <g id="Group_18369" data-name="Group 18369">
            <rect id="Rectangle_6551" data-name="Rectangle 6551" width="47.783" height="1.707" transform="translate(0.436 0.363)" fill="#ebebeb"/>
            <path id="Path_27261" data-name="Path 27261" d="M614.28,759.4H565.626v-2.433H614.28Zm-47.783-.726h46.912V757.7H566.5Z" transform="translate(-565.626 -756.971)" fill="#ebebeb"/>
          </g>
          <g id="Group_18370" data-name="Group 18370" transform="translate(0 25.746)">
            <rect id="Rectangle_6552" data-name="Rectangle 6552" width="47.783" height="1.707" transform="translate(0.436 0.363)" fill="#ebebeb"/>
            <path id="Path_27262" data-name="Path 27262" d="M614.28,835.734H565.626V833.3H614.28Zm-47.783-.726h46.912v-.981H566.5Z" transform="translate(-565.626 -833.301)" fill="#ebebeb"/>
          </g>
          <g id="Group_18371" data-name="Group 18371" transform="translate(0 51.491)">
            <rect id="Rectangle_6553" data-name="Rectangle 6553" width="47.783" height="1.707" transform="translate(0.436 0.363)" fill="#ebebeb"/>
            <path id="Path_27263" data-name="Path 27263" d="M614.28,912.064H565.626v-2.433H614.28Zm-47.783-.726h46.912v-.981H566.5Z" transform="translate(-565.626 -909.631)" fill="#ebebeb"/>
          </g>
          <g id="Group_18376" data-name="Group 18376" transform="translate(0 0.569)">
            <g id="Group_18372" data-name="Group 18372" transform="translate(0 77.235)">
              <rect id="Rectangle_6554" data-name="Rectangle 6554" width="47.783" height="1.707" transform="translate(0.436 0.363)" fill="#ebebeb"/>
              <path id="Path_27264" data-name="Path 27264" d="M614.28,990.079H565.626v-2.433H614.28Zm-47.783-.726h46.912v-.981H566.5Z" transform="translate(-565.626 -987.646)" fill="#ebebeb"/>
            </g>
            <g id="Group_18373" data-name="Group 18373" transform="translate(0 101.876)">
              <rect id="Rectangle_6555" data-name="Rectangle 6555" width="47.783" height="1.707" transform="translate(0.436 0.363)" fill="#ebebeb"/>
              <path id="Path_27265" data-name="Path 27265" d="M614.28,1063.134H565.626V1060.7H614.28Zm-47.783-.726h46.912v-.981H566.5Z" transform="translate(-565.626 -1060.701)" fill="#ebebeb"/>
            </g>
            <g id="Group_18374" data-name="Group 18374">
              <rect id="Rectangle_6556" data-name="Rectangle 6556" width="2.56" height="123.849" transform="translate(0.436 0.363)" fill="#ebebeb"/>
              <path id="Path_27266" data-name="Path 27266" d="M569.057,883.234h-3.43V758.659h3.43Zm-2.56-.726h1.689V759.385H566.5Z" transform="translate(-565.626 -758.659)" fill="#ebebeb"/>
            </g>
            <g id="Group_18375" data-name="Group 18375" transform="translate(45.223)">
              <rect id="Rectangle_6557" data-name="Rectangle 6557" width="2.56" height="123.849" transform="translate(0.435 0.363)" fill="#ebebeb"/>
              <path id="Path_27267" data-name="Path 27267" d="M703.134,883.234H699.7V758.659h3.431Zm-2.56-.726h1.689V759.385h-1.689Z" transform="translate(-699.703 -758.659)" fill="#ebebeb"/>
            </g>
          </g>
        </g>
        <g id="Group_18388" data-name="Group 18388" transform="translate(8.565 27.846)">
          <g id="Group_18379" data-name="Group 18379">
            <g id="Group_18378" data-name="Group 18378">
              <rect id="Rectangle_6558" data-name="Rectangle 6558" width="5.006" height="19.676" transform="translate(0.435 0.363)" fill="#ebebeb"/>
              <path id="Path_27268" data-name="Path 27268" d="M596.9,795.367H591.02v-20.4H596.9Zm-5.006-.726h4.135V775.69h-4.135Z" transform="translate(-591.02 -774.964)" fill="#ebebeb"/>
            </g>
            <path id="Path_27269" data-name="Path 27269" d="M598.14,786.693a1.677,1.677,0,1,1-1.65-1.375A1.531,1.531,0,0,1,598.14,786.693Z" transform="translate(-593.552 -781.826)" fill="#ebebeb"/>
          </g>
          <g id="Group_18381" data-name="Group 18381" transform="translate(5.883)">
            <g id="Group_18380" data-name="Group 18380">
              <rect id="Rectangle_6559" data-name="Rectangle 6559" width="5.006" height="19.676" transform="translate(0.436 0.363)" fill="#ebebeb"/>
              <path id="Path_27270" data-name="Path 27270" d="M614.34,795.367h-5.877v-20.4h5.877Zm-5.006-.726h4.135V775.69h-4.135Z" transform="translate(-608.463 -774.964)" fill="#ebebeb"/>
            </g>
            <path id="Path_27271" data-name="Path 27271" d="M615.583,786.693a1.677,1.677,0,1,1-1.65-1.375A1.531,1.531,0,0,1,615.583,786.693Z" transform="translate(-610.995 -781.826)" fill="#ebebeb"/>
          </g>
          <g id="Group_18383" data-name="Group 18383" transform="translate(11.767)">
            <g id="Group_18382" data-name="Group 18382">
              <rect id="Rectangle_6560" data-name="Rectangle 6560" width="5.006" height="19.676" transform="translate(0.435 0.363)" fill="#ebebeb"/>
              <path id="Path_27272" data-name="Path 27272" d="M631.785,795.367h-5.877v-20.4h5.877Zm-5.006-.726h4.135V775.69h-4.135Z" transform="translate(-625.908 -774.964)" fill="#ebebeb"/>
            </g>
            <path id="Path_27273" data-name="Path 27273" d="M633.028,786.693a1.677,1.677,0,1,1-1.65-1.375A1.531,1.531,0,0,1,633.028,786.693Z" transform="translate(-628.44 -781.826)" fill="#ebebeb"/>
          </g>
          <g id="Group_18385" data-name="Group 18385" transform="translate(17.651)">
            <g id="Group_18384" data-name="Group 18384">
              <rect id="Rectangle_6561" data-name="Rectangle 6561" width="5.006" height="19.676" transform="translate(0.436 0.363)" fill="#ebebeb"/>
              <path id="Path_27274" data-name="Path 27274" d="M649.228,795.367h-5.876v-20.4h5.876Zm-5.006-.726h4.135V775.69h-4.135Z" transform="translate(-643.352 -774.964)" fill="#ebebeb"/>
            </g>
            <path id="Path_27275" data-name="Path 27275" d="M650.472,786.693a1.677,1.677,0,1,1-1.65-1.375A1.531,1.531,0,0,1,650.472,786.693Z" transform="translate(-645.884 -781.826)" fill="#ebebeb"/>
          </g>
          <g id="Group_18387" data-name="Group 18387" transform="translate(23.535)">
            <g id="Group_18386" data-name="Group 18386">
              <rect id="Rectangle_6562" data-name="Rectangle 6562" width="5.006" height="19.676" transform="translate(0.435 0.363)" fill="#ebebeb"/>
              <path id="Path_27276" data-name="Path 27276" d="M666.674,795.367H660.8v-20.4h5.877Zm-5.006-.726H665.8V775.69h-4.135Z" transform="translate(-660.797 -774.964)" fill="#ebebeb"/>
            </g>
            <path id="Path_27277" data-name="Path 27277" d="M667.917,786.693a1.677,1.677,0,1,1-1.65-1.375A1.531,1.531,0,0,1,667.917,786.693Z" transform="translate(-663.329 -781.826)" fill="#ebebeb"/>
          </g>
        </g>
        <path id="Path_27278" data-name="Path 27278" d="M592.422,944.574a8.161,8.161,0,0,1,.779-3.615h-6a8.161,8.161,0,0,1,.779,3.615c0,2.188-2.629,6.226-2.629,8.919s2.787,3.576,4.85,3.576,4.85-.883,4.85-3.576S592.422,946.761,592.422,944.574Z" transform="translate(-578.698 -857.123)" fill="#ebebeb"/>
        <g id="Group_18390" data-name="Group 18390" transform="translate(25.468 55.975)">
          <g id="Group_18389" data-name="Group 18389" transform="translate(0.744)">
            <path id="Path_27279" data-name="Path 27279" d="M662.494,868.133c1.618-3.165-1.979-3.107-1.7-3.938.515-1.559,2.454.135,3.24-.65s-1.941-3.233-.513-4.081.928,2.021,2.162,1.817.5-3.234,1.956-2.9c1.095.254-.206,2.149-.086,3.034s2.377-.4,2.416.859-2.691.71-3.013,1.67,2.936,1.159,1.794,1.972-3.3-.161-3.863.685S661.806,869.478,662.494,868.133Z" transform="translate(-654.893 -858.36)" fill="#ebebeb"/>
            <path id="Path_27280" data-name="Path 27280" d="M649.942,875.793c-1.521-3.2-4.029-1.048-4.535-1.8-.95-1.41,1.858-1.342,1.755-2.362s-4.107-1.159-3.808-2.6,2.365.893,3.071.024-2.375-2.592-1.054-3.205c.993-.461,1.667,1.648,2.5,2.207s1.348-1.681,2.442-.806-1.314,2.083-.731,2.954,3.065-.9,2.939.35-2.478,1.818-2.167,2.751S650.588,877.152,649.942,875.793Z" transform="translate(-643.338 -863.281)" fill="#ebebeb"/>
          </g>
          <path id="Path_27281" data-name="Path 27281" d="M652.354,882.311h-8.305s-2.915,2.086-2.915,4.552,1.817,5.026,7.068,5.026,7.068-2.56,7.068-5.026S652.354,882.311,652.354,882.311Z" transform="translate(-641.133 -874.232)" fill="#ebebeb"/>
        </g>
        <g id="Group_18391" data-name="Group 18391" transform="translate(27.505 88.709)">
          <rect id="Rectangle_6563" data-name="Rectangle 6563" width="7.665" height="8.677" transform="translate(2.371 2.56)" fill="#ebebeb"/>
          <ellipse id="Ellipse_388" data-name="Ellipse 388" cx="6.049" cy="2.56" rx="6.049" ry="2.56" fill="#ebebeb"/>
        </g>
        <g id="Group_18392" data-name="Group 18392" transform="translate(22.167 13.809)">
          <rect id="Rectangle_6564" data-name="Rectangle 6564" width="5.683" height="6.433" transform="translate(1.758 1.898)" fill="#ebebeb"/>
          <path id="Path_27282" data-name="Path 27282" d="M640.316,735.245c0,1.048-2.008,1.9-4.485,1.9s-4.485-.85-4.485-1.9,2.008-1.9,4.485-1.9S640.316,734.2,640.316,735.245Z" transform="translate(-631.346 -733.347)" fill="#ebebeb"/>
        </g>
        <g id="Group_18394" data-name="Group 18394" transform="translate(3.166)">
          <g id="Group_18393" data-name="Group 18393">
            <path id="Path_27283" data-name="Path 27283" d="M604.248,713.207s-1.966-5.689,6.737-12.09c0,0-7.452,6.828-5.006,12.09Z" transform="translate(-594.261 -698.179)" fill="#ebebeb"/>
            <path id="Path_27284" data-name="Path 27284" d="M601.261,708.725s-4.508-6.338,3.565-16.32c0,0-6.405,10.169-1.48,15.868Z" transform="translate(-591.576 -692.405)" fill="#ebebeb"/>
            <path id="Path_27285" data-name="Path 27285" d="M586,713.207s1.966-5.689-6.737-12.09c0,0,7.452,6.828,5.006,12.09Z" transform="translate(-577.826 -698.179)" fill="#ebebeb"/>
            <path id="Path_27286" data-name="Path 27286" d="M594.144,710.272s3.622-5.094-2.867-13.115c0,0,5.149,8.172,1.192,12.751Z" transform="translate(-585.791 -695.554)" fill="#ebebeb"/>
            <path id="Path_27287" data-name="Path 27287" d="M603.419,721.128s-1.7-5.749,7.3-11.863c0,0-7.764,6.581-5.566,11.919Z" transform="translate(-593.753 -703.578)" fill="#ebebeb"/>
            <path id="Path_27288" data-name="Path 27288" d="M582.308,719.06s1.7-5.749-7.3-11.863c0,0,7.764,6.581,5.566,11.919Z" transform="translate(-575.012 -702.208)" fill="#ebebeb"/>
          </g>
          <path id="Path_27289" data-name="Path 27289" d="M588.17,731.058h-5.884l2.7,9.1h6.367l2.7-9.1Z" transform="translate(-579.833 -718.021)" fill="#ebebeb"/>
        </g>
        <g id="Group_18404" data-name="Group 18404" transform="translate(4.566 66.519)">
          <g id="Group_18399" data-name="Group 18399" transform="translate(0 0)">
            <g id="Group_18395" data-name="Group 18395" transform="translate(0.436 4.816)">
              <rect id="Rectangle_6565" data-name="Rectangle 6565" width="2.403" height="18.009" transform="translate(0 2.403) rotate(-90)" fill="#ebebeb"/>
            </g>
            <g id="Group_18397" data-name="Group 18397" transform="translate(0 2.041)">
              <g id="Group_18396" data-name="Group 18396">
                <rect id="Rectangle_6566" data-name="Rectangle 6566" width="2.403" height="18.009" transform="translate(0.436 2.766) rotate(-90)" fill="#ebebeb"/>
                <path id="Path_27290" data-name="Path 27290" d="M598.044,898.8H579.163v-3.13h18.881Zm-18.01-.726h17.139v-1.678H580.034Z" transform="translate(-579.163 -895.669)" fill="#ebebeb"/>
              </g>
            </g>
            <g id="Group_18398" data-name="Group 18398" transform="translate(0.436)">
              <rect id="Rectangle_6567" data-name="Rectangle 6567" width="2.404" height="18.009" transform="translate(0 2.404) rotate(-90)" fill="#ebebeb"/>
            </g>
          </g>
          <g id="Group_18400" data-name="Group 18400" transform="translate(11.042 0)">
            <rect id="Rectangle_6568" data-name="Rectangle 6568" width="0.129" height="2.404" fill="#ebebeb"/>
          </g>
          <g id="Group_18401" data-name="Group 18401" transform="translate(12.493 0)">
            <rect id="Rectangle_6569" data-name="Rectangle 6569" width="0.129" height="2.404" fill="#ebebeb"/>
          </g>
          <g id="Group_18402" data-name="Group 18402" transform="translate(13.943 0)">
            <rect id="Rectangle_6570" data-name="Rectangle 6570" width="0.129" height="2.404" fill="#ebebeb"/>
          </g>
          <g id="Group_18403" data-name="Group 18403" transform="translate(15.394 0)">
            <rect id="Rectangle_6571" data-name="Rectangle 6571" width="0.129" height="2.404" fill="#ebebeb"/>
          </g>
          <rect id="Rectangle_6572" data-name="Rectangle 6572" width="8.476" height="0.396" transform="translate(9.088 5.226)" fill="#ebebeb"/>
          <rect id="Rectangle_6573" data-name="Rectangle 6573" width="8.476" height="0.396" transform="translate(9.088 5.82)" fill="#ebebeb"/>
          <rect id="Rectangle_6574" data-name="Rectangle 6574" width="8.476" height="0.396" transform="translate(9.088 6.414)" fill="#ebebeb"/>
        </g>
      </g>
      <g id="Group_18442" data-name="Group 18442" transform="translate(465.626 137.564)">
        <g id="Group_18414" data-name="Group 18414" transform="translate(0 21.778)">
          <g id="Group_18406" data-name="Group 18406">
            <rect id="Rectangle_6575" data-name="Rectangle 6575" width="47.783" height="1.707" transform="translate(0.436 0.363)" fill="#ebebeb"/>
            <path id="Path_27291" data-name="Path 27291" d="M1882.877,752.762h-48.654v-2.433h48.654Zm-47.783-.726h46.912v-.981h-46.912Z" transform="translate(-1834.223 -750.329)" fill="#ebebeb"/>
          </g>
          <g id="Group_18407" data-name="Group 18407" transform="translate(0 25.746)">
            <rect id="Rectangle_6576" data-name="Rectangle 6576" width="47.783" height="1.707" transform="translate(0.436 0.363)" fill="#ebebeb"/>
            <path id="Path_27292" data-name="Path 27292" d="M1882.877,829.092h-48.654v-2.433h48.654Zm-47.783-.726h46.912v-.981h-46.912Z" transform="translate(-1834.223 -826.659)" fill="#ebebeb"/>
          </g>
          <g id="Group_18408" data-name="Group 18408" transform="translate(0 51.491)">
            <rect id="Rectangle_6577" data-name="Rectangle 6577" width="47.783" height="1.707" transform="translate(0.436 0.363)" fill="#ebebeb"/>
            <path id="Path_27293" data-name="Path 27293" d="M1882.877,905.422h-48.654v-2.433h48.654Zm-47.783-.726h46.912v-.981h-46.912Z" transform="translate(-1834.223 -902.989)" fill="#ebebeb"/>
          </g>
          <g id="Group_18413" data-name="Group 18413" transform="translate(0 0.569)">
            <g id="Group_18409" data-name="Group 18409" transform="translate(0 77.236)">
              <rect id="Rectangle_6578" data-name="Rectangle 6578" width="47.783" height="1.707" transform="translate(0.436 0.363)" fill="#ebebeb"/>
              <path id="Path_27294" data-name="Path 27294" d="M1882.877,983.437h-48.654V981h48.654Zm-47.783-.726h46.912v-.981h-46.912Z" transform="translate(-1834.223 -981.004)" fill="#ebebeb"/>
            </g>
            <g id="Group_18410" data-name="Group 18410" transform="translate(0 101.877)">
              <rect id="Rectangle_6579" data-name="Rectangle 6579" width="47.783" height="1.707" transform="translate(0.436 0.363)" fill="#ebebeb"/>
              <path id="Path_27295" data-name="Path 27295" d="M1882.877,1056.492h-48.654v-2.433h48.654Zm-47.783-.726h46.912v-.981h-46.912Z" transform="translate(-1834.223 -1054.059)" fill="#ebebeb"/>
            </g>
            <g id="Group_18411" data-name="Group 18411">
              <rect id="Rectangle_6580" data-name="Rectangle 6580" width="2.56" height="123.849" transform="translate(0.436 0.363)" fill="#ebebeb"/>
              <path id="Path_27296" data-name="Path 27296" d="M1837.654,876.591h-3.431V752.016h3.431Zm-2.56-.726h1.688V752.742h-1.688Z" transform="translate(-1834.223 -752.016)" fill="#ebebeb"/>
            </g>
            <g id="Group_18412" data-name="Group 18412" transform="translate(45.223)">
              <rect id="Rectangle_6581" data-name="Rectangle 6581" width="2.56" height="123.849" transform="translate(0.435 0.363)" fill="#ebebeb"/>
              <path id="Path_27297" data-name="Path 27297" d="M1971.73,876.591h-3.43V752.016h3.43Zm-2.559-.726h1.688V752.742h-1.688Z" transform="translate(-1968.3 -752.016)" fill="#ebebeb"/>
            </g>
          </g>
        </g>
        <g id="Group_18425" data-name="Group 18425" transform="translate(8.565 27.847)">
          <g id="Group_18416" data-name="Group 18416">
            <g id="Group_18415" data-name="Group 18415">
              <rect id="Rectangle_6582" data-name="Rectangle 6582" width="5.006" height="19.676" transform="translate(0.435 0.363)" fill="#ebebeb"/>
              <path id="Path_27298" data-name="Path 27298" d="M1865.493,788.724h-5.877v-20.4h5.877Zm-5.006-.726h4.135v-18.95h-4.135Z" transform="translate(-1859.616 -768.322)" fill="#ebebeb"/>
            </g>
            <path id="Path_27299" data-name="Path 27299" d="M1866.736,780.051a1.677,1.677,0,1,1-1.649-1.375A1.531,1.531,0,0,1,1866.736,780.051Z" transform="translate(-1862.148 -775.184)" fill="#ebebeb"/>
          </g>
          <g id="Group_18418" data-name="Group 18418" transform="translate(5.884)">
            <g id="Group_18417" data-name="Group 18417">
              <rect id="Rectangle_6583" data-name="Rectangle 6583" width="5.006" height="19.676" transform="translate(0.436 0.363)" fill="#ebebeb"/>
              <path id="Path_27300" data-name="Path 27300" d="M1882.937,788.724h-5.877v-20.4h5.877Zm-5.006-.726h4.135v-18.95h-4.135Z" transform="translate(-1877.06 -768.322)" fill="#ebebeb"/>
            </g>
            <path id="Path_27301" data-name="Path 27301" d="M1884.18,780.051a1.677,1.677,0,1,1-1.649-1.375A1.531,1.531,0,0,1,1884.18,780.051Z" transform="translate(-1879.593 -775.184)" fill="#ebebeb"/>
          </g>
          <g id="Group_18420" data-name="Group 18420" transform="translate(11.768)">
            <g id="Group_18419" data-name="Group 18419">
              <rect id="Rectangle_6584" data-name="Rectangle 6584" width="5.006" height="19.676" transform="translate(0.435 0.363)" fill="#ebebeb"/>
              <path id="Path_27302" data-name="Path 27302" d="M1900.381,788.724h-5.876v-20.4h5.876Zm-5-.726h4.135v-18.95h-4.135Z" transform="translate(-1894.505 -768.322)" fill="#ebebeb"/>
            </g>
            <path id="Path_27303" data-name="Path 27303" d="M1901.626,780.051a1.677,1.677,0,1,1-1.65-1.375A1.532,1.532,0,0,1,1901.626,780.051Z" transform="translate(-1897.038 -775.184)" fill="#ebebeb"/>
          </g>
          <g id="Group_18422" data-name="Group 18422" transform="translate(17.652)">
            <g id="Group_18421" data-name="Group 18421">
              <rect id="Rectangle_6585" data-name="Rectangle 6585" width="5.006" height="19.676" transform="translate(0.436 0.363)" fill="#ebebeb"/>
              <path id="Path_27304" data-name="Path 27304" d="M1917.826,788.724h-5.877v-20.4h5.877ZM1912.82,788h4.135v-18.95h-4.135Z" transform="translate(-1911.949 -768.322)" fill="#ebebeb"/>
            </g>
            <path id="Path_27305" data-name="Path 27305" d="M1919.07,780.051a1.677,1.677,0,1,1-1.65-1.375A1.531,1.531,0,0,1,1919.07,780.051Z" transform="translate(-1914.481 -775.184)" fill="#ebebeb"/>
          </g>
          <g id="Group_18424" data-name="Group 18424" transform="translate(23.536)">
            <g id="Group_18423" data-name="Group 18423">
              <rect id="Rectangle_6586" data-name="Rectangle 6586" width="5.006" height="19.676" transform="translate(0.435 0.363)" fill="#ebebeb"/>
              <path id="Path_27306" data-name="Path 27306" d="M1935.271,788.724h-5.876v-20.4h5.876Zm-5.006-.726h4.135v-18.95h-4.135Z" transform="translate(-1929.394 -768.322)" fill="#ebebeb"/>
            </g>
            <path id="Path_27307" data-name="Path 27307" d="M1936.514,780.051a1.677,1.677,0,1,1-1.65-1.375A1.531,1.531,0,0,1,1936.514,780.051Z" transform="translate(-1931.926 -775.184)" fill="#ebebeb"/>
          </g>
        </g>
        <path id="Path_27308" data-name="Path 27308" d="M1861.02,937.931a8.158,8.158,0,0,1,.779-3.615h-6a8.151,8.151,0,0,1,.78,3.615c0,2.188-2.63,6.226-2.63,8.919s2.787,3.576,4.851,3.576,4.85-.884,4.85-3.576S1861.02,940.119,1861.02,937.931Z" transform="translate(-1847.295 -850.481)" fill="#ebebeb"/>
        <g id="Group_18427" data-name="Group 18427" transform="translate(25.468 55.975)">
          <g id="Group_18426" data-name="Group 18426" transform="translate(0.743)">
            <path id="Path_27309" data-name="Path 27309" d="M1931.091,861.491c1.618-3.165-1.979-3.107-1.7-3.938.514-1.56,2.454.135,3.24-.65s-1.941-3.233-.512-4.081.927,2.021,2.162,1.817.5-3.235,1.956-2.9c1.094.255-.206,2.149-.085,3.034s2.377-.4,2.416.859-2.691.71-3.013,1.671,2.937,1.159,1.794,1.971-3.3-.16-3.863.685S1930.4,862.835,1931.091,861.491Z" transform="translate(-1923.49 -851.717)" fill="#ebebeb"/>
            <path id="Path_27310" data-name="Path 27310" d="M1918.539,869.151c-1.52-3.2-4.028-1.048-4.535-1.8-.95-1.411,1.859-1.343,1.755-2.362s-4.108-1.16-3.808-2.6,2.366.893,3.071.024-2.375-2.592-1.054-3.205c.992-.461,1.667,1.648,2.5,2.207s1.348-1.681,2.442-.806-1.313,2.082-.731,2.954,3.066-.9,2.939.35-2.478,1.818-2.167,2.751S1919.184,870.509,1918.539,869.151Z" transform="translate(-1911.934 -856.638)" fill="#ebebeb"/>
          </g>
          <path id="Path_27311" data-name="Path 27311" d="M1920.95,875.669h-8.305s-2.915,2.086-2.915,4.552,1.817,5.026,7.067,5.026,7.068-2.56,7.068-5.026S1920.95,875.669,1920.95,875.669Z" transform="translate(-1909.73 -867.59)" fill="#ebebeb"/>
        </g>
        <g id="Group_18428" data-name="Group 18428" transform="translate(27.505 88.708)">
          <rect id="Rectangle_6587" data-name="Rectangle 6587" width="7.665" height="8.677" transform="translate(2.371 2.56)" fill="#ebebeb"/>
          <ellipse id="Ellipse_389" data-name="Ellipse 389" cx="6.049" cy="2.56" rx="6.049" ry="2.56" fill="#ebebeb"/>
        </g>
        <g id="Group_18429" data-name="Group 18429" transform="translate(22.167 13.809)">
          <rect id="Rectangle_6588" data-name="Rectangle 6588" width="5.683" height="6.433" transform="translate(1.758 1.898)" fill="#ebebeb"/>
          <path id="Path_27312" data-name="Path 27312" d="M1908.913,728.6c0,1.048-2.008,1.9-4.485,1.9s-4.485-.85-4.485-1.9,2.007-1.9,4.485-1.9S1908.913,727.554,1908.913,728.6Z" transform="translate(-1899.943 -726.704)" fill="#ebebeb"/>
        </g>
        <g id="Group_18431" data-name="Group 18431" transform="translate(3.166)">
          <g id="Group_18430" data-name="Group 18430">
            <path id="Path_27313" data-name="Path 27313" d="M1872.844,706.565s-1.966-5.69,6.738-12.09c0,0-7.452,6.828-5.006,12.09Z" transform="translate(-1862.857 -691.537)" fill="#ebebeb"/>
            <path id="Path_27314" data-name="Path 27314" d="M1869.859,702.083s-4.509-6.338,3.565-16.32c0,0-6.406,10.169-1.48,15.868Z" transform="translate(-1860.173 -685.763)" fill="#ebebeb"/>
            <path id="Path_27315" data-name="Path 27315" d="M1854.592,706.565s1.966-5.69-6.737-12.09c0,0,7.451,6.828,5,12.09Z" transform="translate(-1846.423 -691.537)" fill="#ebebeb"/>
            <path id="Path_27316" data-name="Path 27316" d="M1862.742,703.63s3.622-5.093-2.867-13.115c0,0,5.149,8.171,1.191,12.752Z" transform="translate(-1854.388 -688.912)" fill="#ebebeb"/>
            <path id="Path_27317" data-name="Path 27317" d="M1872.016,714.486s-1.7-5.749,7.3-11.863c0,0-7.765,6.581-5.566,11.919Z" transform="translate(-1862.35 -696.936)" fill="#ebebeb"/>
            <path id="Path_27318" data-name="Path 27318" d="M1850.9,712.418s1.7-5.749-7.3-11.863c0,0,7.764,6.581,5.566,11.919Z" transform="translate(-1843.609 -695.566)" fill="#ebebeb"/>
          </g>
          <path id="Path_27319" data-name="Path 27319" d="M1856.767,724.416h-5.884l2.7,9.1h6.367l2.7-9.1Z" transform="translate(-1848.43 -711.379)" fill="#ebebeb"/>
        </g>
        <g id="Group_18441" data-name="Group 18441" transform="translate(4.566 66.519)">
          <g id="Group_18436" data-name="Group 18436" transform="translate(0 0)">
            <g id="Group_18432" data-name="Group 18432" transform="translate(0.435 4.816)">
              <rect id="Rectangle_6589" data-name="Rectangle 6589" width="2.403" height="18.009" transform="translate(0 2.403) rotate(-90)" fill="#ebebeb"/>
            </g>
            <g id="Group_18434" data-name="Group 18434" transform="translate(0 2.041)">
              <g id="Group_18433" data-name="Group 18433">
                <rect id="Rectangle_6590" data-name="Rectangle 6590" width="2.403" height="18.009" transform="translate(0.435 2.766) rotate(-90)" fill="#ebebeb"/>
                <path id="Path_27320" data-name="Path 27320" d="M1866.641,892.156h-18.88v-3.129h18.88Zm-18.01-.726h17.139v-1.677h-17.139Z" transform="translate(-1847.76 -889.027)" fill="#ebebeb"/>
              </g>
            </g>
            <g id="Group_18435" data-name="Group 18435" transform="translate(0.435)">
              <rect id="Rectangle_6591" data-name="Rectangle 6591" width="2.404" height="18.009" transform="translate(0 2.404) rotate(-90)" fill="#ebebeb"/>
            </g>
          </g>
          <g id="Group_18437" data-name="Group 18437" transform="translate(11.042 0)">
            <rect id="Rectangle_6592" data-name="Rectangle 6592" width="0.129" height="2.404" fill="#ebebeb"/>
          </g>
          <g id="Group_18438" data-name="Group 18438" transform="translate(12.493 0)">
            <rect id="Rectangle_6593" data-name="Rectangle 6593" width="0.129" height="2.404" fill="#ebebeb"/>
          </g>
          <g id="Group_18439" data-name="Group 18439" transform="translate(13.943 0)">
            <rect id="Rectangle_6594" data-name="Rectangle 6594" width="0.129" height="2.404" fill="#ebebeb"/>
          </g>
          <g id="Group_18440" data-name="Group 18440" transform="translate(15.394 0)">
            <rect id="Rectangle_6595" data-name="Rectangle 6595" width="0.129" height="2.404" fill="#ebebeb"/>
          </g>
          <rect id="Rectangle_6596" data-name="Rectangle 6596" width="8.476" height="0.396" transform="translate(9.087 5.226)" fill="#ebebeb"/>
          <rect id="Rectangle_6597" data-name="Rectangle 6597" width="8.476" height="0.396" transform="translate(9.087 5.82)" fill="#ebebeb"/>
          <rect id="Rectangle_6598" data-name="Rectangle 6598" width="8.476" height="0.396" transform="translate(9.087 6.414)" fill="#ebebeb"/>
        </g>
      </g>
      <g id="Group_18450" data-name="Group 18450" transform="translate(303.355 207.03)">
        <path id="Path_27321" data-name="Path 27321" d="M1486.637,1108.915h-113.66c-2.17,0-3.734-1.768-3.133-3.54h0a3.233,3.233,0,0,1,3.133-2h113.66a3.233,3.233,0,0,1,3.133,2h0C1490.372,1107.146,1488.807,1108.915,1486.637,1108.915Z" transform="translate(-1367.381 -1031.981)" fill="#ebebeb" opacity="0.32"/>
        <g id="Group_18445" data-name="Group 18445" transform="translate(0 24.561)">
          <rect id="Rectangle_6599" data-name="Rectangle 6599" width="2.198" height="46.568" transform="translate(1.311 0.26)" fill="#ebebeb"/>
          <rect id="Rectangle_6600" data-name="Rectangle 6600" width="2.198" height="46.568" transform="translate(120.725 0.26)" fill="#ebebeb"/>
          <g id="Group_18443" data-name="Group 18443">
            <path id="Path_27322" data-name="Path 27322" d="M1487.585,969.884H1363.893l.941-4.578h121.6Z" transform="translate(-1363.523 -965.045)" fill="#ebebeb"/>
            <path id="Path_27323" data-name="Path 27323" d="M1487.242,969.632H1362.8l1.048-5.1H1485.96Zm-123.706-.52h122.938l-1.021-4.058H1364.37Z" transform="translate(-1362.796 -964.534)" fill="#ebebeb"/>
          </g>
          <g id="Group_18444" data-name="Group 18444" transform="translate(0.058 4.578)">
            <path id="Path_27324" data-name="Path 27324" d="M1487.374,978.878H1363.893v47.8h2.042V982.015h119.609v44.659h2.041v-47.8Z" transform="translate(-1363.58 -978.618)" fill="#ebebeb"/>
            <path id="Path_27325" data-name="Path 27325" d="M1487.284,1026.423h-2.666V981.764H1365.633v44.659h-2.666V978.107h124.317Zm-2.042-.521h1.417V978.627H1363.592V1025.9h1.417V981.244h120.233Z" transform="translate(-1362.967 -978.107)" fill="#ebebeb"/>
          </g>
        </g>
        <g id="Group_18449" data-name="Group 18449" transform="translate(84.778)">
          <path id="Path_27326" data-name="Path 27326" d="M1654.8,893.64v17.118a2.244,2.244,0,0,1-2.451,1.925H1616.6a2.243,2.243,0,0,1-2.451-1.925V893.64a2.246,2.246,0,0,1,2.451-1.925h35.756A2.247,2.247,0,0,1,1654.8,893.64Z" transform="translate(-1614.144 -891.715)" fill="#ebebeb"/>
          <path id="Path_27327" data-name="Path 27327" d="M1618.206,913.3a1.493,1.493,0,0,1-1.635-1.284V894.9a1.493,1.493,0,0,1,1.635-1.284h35.753a1.493,1.493,0,0,1,1.635,1.284V912.02a1.493,1.493,0,0,1-1.635,1.284Z" transform="translate(-1615.753 -892.976)" fill="#ebebeb"/>
          <g id="Group_18446" data-name="Group 18446" transform="translate(1.324 1.024)">
            <path id="Path_27328" data-name="Path 27328" d="M1619.811,913.924a.746.746,0,0,1-.817-.642V896.164a.746.746,0,0,1,.817-.642h35.753a.747.747,0,0,1,.818.642v17.118a.747.747,0,0,1-.818.642Z" transform="translate(-1618.682 -895.262)" fill="#ebebeb"/>
            <path id="Path_27329" data-name="Path 27329" d="M1654.951,913.672H1619.2a1.037,1.037,0,0,1-1.13-.9V895.652a1.037,1.037,0,0,1,1.13-.9h35.753a1.037,1.037,0,0,1,1.13.9V912.77A1.036,1.036,0,0,1,1654.951,913.672Zm-35.753-18.4a.457.457,0,0,0-.5.382V912.77a.457.457,0,0,0,.5.381h35.753c.279,0,.505-.171.505-.381V895.652c0-.21-.227-.382-.505-.382Z" transform="translate(-1618.068 -894.75)" fill="#ebebeb"/>
          </g>
          <path id="Path_27330" data-name="Path 27330" d="M1669.79,935.694H1660.2l1.082-9.257h7.424Z" transform="translate(-1644.667 -914.726)" fill="#ebebeb"/>
          <g id="Group_18447" data-name="Group 18447" transform="translate(15.498 10.96)">
            <path id="Path_27331" data-name="Path 27331" d="M1670.081,940.025h-8.989l1.412-15.046h6.167Z" transform="translate(-1660.754 -924.719)" fill="#ebebeb"/>
            <path id="Path_27332" data-name="Path 27332" d="M1669.756,939.774h-9.665l1.46-15.566h6.744Zm-8.99-.521h8.315l-1.363-14.525h-5.59Z" transform="translate(-1660.091 -924.208)" fill="#ebebeb"/>
          </g>
          <g id="Group_18448" data-name="Group 18448" transform="translate(9.394 25.363)">
            <path id="Path_27333" data-name="Path 27333" d="M1664.168,969.984H1642.92c0-1.27,1.311-2.3,2.928-2.3h15.391c1.618,0,2.929,1.03,2.929,2.3Z" transform="translate(-1642.609 -967.423)" fill="#ebebeb"/>
            <path id="Path_27334" data-name="Path 27334" d="M1663.867,969.733H1642v-.26c0-1.412,1.453-2.561,3.24-2.561h15.391c1.786,0,3.241,1.149,3.241,2.561Zm-21.227-.52h20.581a2.485,2.485,0,0,0-2.595-1.78h-15.391A2.485,2.485,0,0,0,1642.64,969.213Z" transform="translate(-1641.995 -966.912)" fill="#ebebeb"/>
          </g>
        </g>
      </g>
      <g id="Group_18458" data-name="Group 18458" transform="translate(157.983 207.241)">
        <path id="Path_27335" data-name="Path 27335" d="M1067.845,1109.539H954.185c-2.17,0-3.735-1.768-3.133-3.54h0a3.232,3.232,0,0,1,3.133-2h113.661a3.233,3.233,0,0,1,3.133,2h0C1071.58,1107.771,1070.015,1109.539,1067.845,1109.539Z" transform="translate(-948.588 -1032.606)" fill="#ebebeb" opacity="0.32"/>
        <g id="Group_18453" data-name="Group 18453" transform="translate(0 24.561)">
          <rect id="Rectangle_6601" data-name="Rectangle 6601" width="2.198" height="46.568" transform="translate(1.311 0.26)" fill="#ebebeb"/>
          <rect id="Rectangle_6602" data-name="Rectangle 6602" width="2.198" height="46.568" transform="translate(120.725 0.26)" fill="#ebebeb"/>
          <g id="Group_18451" data-name="Group 18451">
            <path id="Path_27336" data-name="Path 27336" d="M1068.792,970.509H945.1l.941-4.578h121.6Z" transform="translate(-944.73 -965.671)" fill="#ebebeb"/>
            <path id="Path_27337" data-name="Path 27337" d="M1068.449,970.257H944l1.048-5.1h122.116Zm-123.706-.521h122.938l-1.021-4.057H945.577Z" transform="translate(-944.003 -965.159)" fill="#ebebeb"/>
          </g>
          <g id="Group_18452" data-name="Group 18452" transform="translate(0.058 4.578)">
            <path id="Path_27338" data-name="Path 27338" d="M1068.581,979.5H945.1v47.8h2.041V982.64H1066.75V1027.3h2.042V979.5Z" transform="translate(-944.788 -979.243)" fill="#ebebeb"/>
            <path id="Path_27339" data-name="Path 27339" d="M1068.491,1027.047h-2.666V982.389H946.841v44.659h-2.666V978.731h124.316Zm-2.042-.52h1.417V979.252H944.8v47.275h1.417V981.868H1066.45Z" transform="translate(-944.175 -978.731)" fill="#ebebeb"/>
          </g>
        </g>
        <g id="Group_18457" data-name="Group 18457" transform="translate(84.778)">
          <path id="Path_27340" data-name="Path 27340" d="M1236.01,894.265v17.118a2.244,2.244,0,0,1-2.452,1.926H1197.8a2.244,2.244,0,0,1-2.451-1.926V894.265a2.246,2.246,0,0,1,2.451-1.925h35.756A2.246,2.246,0,0,1,1236.01,894.265Z" transform="translate(-1195.351 -892.34)" fill="#ebebeb"/>
          <path id="Path_27341" data-name="Path 27341" d="M1199.413,913.929a1.493,1.493,0,0,1-1.635-1.284V895.527a1.493,1.493,0,0,1,1.635-1.283h35.753a1.493,1.493,0,0,1,1.634,1.283v17.118a1.493,1.493,0,0,1-1.634,1.284Z" transform="translate(-1196.96 -893.601)" fill="#ebebeb"/>
          <g id="Group_18454" data-name="Group 18454" transform="translate(1.324 1.024)">
            <path id="Path_27342" data-name="Path 27342" d="M1201.018,914.548a.747.747,0,0,1-.817-.642V896.788a.747.747,0,0,1,.817-.642h35.754a.747.747,0,0,1,.817.642v17.118a.747.747,0,0,1-.817.642Z" transform="translate(-1199.889 -895.886)" fill="#ebebeb"/>
            <path id="Path_27343" data-name="Path 27343" d="M1236.158,914.3H1200.4a1.037,1.037,0,0,1-1.13-.9V896.277a1.036,1.036,0,0,1,1.13-.9h35.754a1.036,1.036,0,0,1,1.129.9V913.4A1.036,1.036,0,0,1,1236.158,914.3ZM1200.4,895.9a.457.457,0,0,0-.505.382V913.4c0,.211.227.381.505.381h35.754a.456.456,0,0,0,.5-.381V896.277a.457.457,0,0,0-.5-.382Z" transform="translate(-1199.275 -895.375)" fill="#ebebeb"/>
          </g>
          <path id="Path_27344" data-name="Path 27344" d="M1251,936.319h-9.589l1.082-9.258h7.425Z" transform="translate(-1225.874 -915.35)" fill="#ebebeb"/>
          <g id="Group_18455" data-name="Group 18455" transform="translate(15.498 10.96)">
            <path id="Path_27345" data-name="Path 27345" d="M1251.288,940.65H1242.3l1.411-15.046h6.166Z" transform="translate(-1241.962 -925.344)" fill="#ebebeb"/>
            <path id="Path_27346" data-name="Path 27346" d="M1250.963,940.4H1241.3l1.46-15.566h6.744Zm-8.99-.521h8.315l-1.363-14.525h-5.589Z" transform="translate(-1241.299 -924.833)" fill="#ebebeb"/>
          </g>
          <g id="Group_18456" data-name="Group 18456" transform="translate(9.394 25.363)">
            <path id="Path_27347" data-name="Path 27347" d="M1245.375,970.608h-21.248c0-1.271,1.311-2.3,2.928-2.3h15.391c1.617,0,2.929,1.03,2.929,2.3Z" transform="translate(-1223.815 -968.048)" fill="#ebebeb"/>
            <path id="Path_27348" data-name="Path 27348" d="M1245.074,970.357H1223.2v-.26c0-1.411,1.454-2.56,3.24-2.56h15.391c1.787,0,3.241,1.149,3.241,2.56Zm-21.227-.52h20.581a2.485,2.485,0,0,0-2.6-1.78h-15.391A2.486,2.486,0,0,0,1223.847,969.837Z" transform="translate(-1223.202 -967.537)" fill="#ebebeb"/>
          </g>
        </g>
      </g>
    </g>
    <g id="Group_18461" data-name="Group 18461" transform="translate(541.278 473.083)">
      <g id="Group_18460" data-name="Group 18460" transform="translate(0 0)">
        <path id="Path_27349" data-name="Path 27349" d="M776.879,1066.674l1.6-.17-10.13-52.215-3.371.553-37.269,4.42,1.019,9.571.1-.01-.724,43.324,1.6-.17,4.608-43.738,29.579-3.149Z" transform="translate(-699.549 -961.085)" fill="#7b88ac"/>
        <path id="Path_27350" data-name="Path 27350" d="M668.571,860.792c-2.221-6.343-10.8-4.119-18.39-2.543-5.455,1.127-6.556,3.514-5.685,9.026l11.7,47.409c.855,5.5,5.762,8.68,10.883,7.053s15.532-6.3,14.532-11.781Z" transform="translate(-644.228 -856.55)" fill="#7b88ac"/>
        <path id="Path_27351" data-name="Path 27351" d="M747.839,1089.237l1.311-.14-10.163-48.055,7.519-8.4-24.442,2.437-28.793,2.758.961,7.971-.532,49.49,1.063-.113,4.76-49.94,33.936-3.612Z" transform="translate(-676.729 -973.247)" fill="#7b88ac"/>
        <path id="Path_27352" data-name="Path 27352" d="M750.261,1010.188a1.976,1.976,0,0,0-1.853-3.051l-29.711,3.041a25.326,25.326,0,0,0-7.742,2.319l-16.11,7.333c-.04.018-.081.038-.119.058-1.918,1.014-1.659,1.668.6,1.427l50.366-5.483a1.977,1.977,0,0,0,1.438-.88Z" transform="translate(-676.844 -956.338)" fill="#7b88ac"/>
      </g>
    </g>
    <g id="Group_18474" data-name="Group 18474" transform="translate(511.738 455.277)">
      <g id="Group_18473" data-name="Group 18473" transform="translate(36.595)">
        <g id="Group_18472" data-name="Group 18472">
          <g id="Group_18471" data-name="Group 18471">
            <g id="Group_18468" data-name="Group 18468">
              <g id="Group_18467" data-name="Group 18467">
                <g id="Group_18463" data-name="Group 18463" transform="translate(0 1.666)">
                  <path id="Path_27353" data-name="Path 27353" d="M704.448,857.443c4.826-4.938-3.045-5.785-2.809-9.987s1.189-2.9,1.7-8.333-.984-7.4-1.175-10.547,1.776-8.371-.135-12.307-2.969-2.557-4.63-5.686-3.064.372-5.649,1.849-5.789-6.026-10.314-3.012-3.937,8.858-5.231,12.178-5.832,4.767-6.39,10.659,2.673,4.479,1.308,8.573-5.421,3.867-5.98,9.76c0,0-.4,5.908,6.17,5.434s4.6,3.1,11.68.638,4.849,3.9,9.814,1.4S700.137,861.854,704.448,857.443Z" transform="translate(-665.142 -808.699)" fill="#2d356b"/>
                </g>
                <g id="Group_18464" data-name="Group 18464" transform="translate(20.085 20.414)">
                  <path id="Path_27354" data-name="Path 27354" d="M737.462,864.282l6.065,3.81,1.089,13.115-4.873-1.763Z" transform="translate(-733.154 -864.282)" fill="#f7c371"/>
                  <path id="Path_27355" data-name="Path 27355" d="M747.669,970.108c-3.9-2.553-12.946-8.2-22.98-1.209,3-8.814,5.727-17.478,5.823-24.728.18-13.438-11.242-29.223-1.791-35.3,10.034-6.451,21.95,23.339,21.95,23.339C740.637,937.854,743.413,954.036,747.669,970.108Z" transform="translate(-724.689 -893.226)" fill="#c3e8e6"/>
                  <path id="Path_27356" data-name="Path 27356" d="M738.692,906.678l1.763-.207,7.879,7.413L746,915.854S740.714,910.462,738.692,906.678Z" transform="translate(-733.969 -892.241)" fill="#fff"/>
                  <path id="Path_27357" data-name="Path 27357" d="M755.539,915.718l.11-.08c-2.08-4.149-6.624-10.5-11.012-10.094C748.631,909.107,755.539,915.718,755.539,915.718Z" transform="translate(-737.909 -891.614)" fill="#f7c371"/>
                </g>
                <g id="Group_18466" data-name="Group 18466" transform="translate(13.951)">
                  <g id="Group_18465" data-name="Group 18465">
                    <path id="Path_27358" data-name="Path 27358" d="M722.278,831.157c-3.234-.888-9.746-1.924-12.884-6.807-4.079-6.349-3.043-10.276-1.683-15.055,2.592-9.108,18.128-4.843,17.157-2.16C723.578,810.7,734,834.375,722.278,831.157Z" transform="translate(-706.505 -803.76)" fill="#2d356b"/>
                    <path id="Path_27359" data-name="Path 27359" d="M747.542,839.553c1.179,0,3.288-6.094,3.917-10.767.207-1.541-1.451-1.722-1.348-6.979.061-3.086-1.364-7.358-6.532-10.422-4.879-2.894-5.241,6.683-5.659,8.9-1.191,6.3-2.8,10.26-1.184,13.309C739.893,839.545,746.268,839.249,747.542,839.553Z" transform="translate(-726.088 -808.455)" fill="#ffd8a3"/>
                    <path id="Path_27360" data-name="Path 27360" d="M769.456,871.113a.271.271,0,0,1,.245-.3.286.286,0,0,1,.236.313.272.272,0,0,1-.247.294A.284.284,0,0,1,769.456,871.113Z" transform="translate(-748.223 -848.2)" fill="#ffab00"/>
                    <path id="Path_27361" data-name="Path 27361" d="M767.441,845.842c.028-.829.513-1.477,1.082-1.449s1.01.724.981,1.553-.513,1.477-1.082,1.449S767.412,846.671,767.441,845.842Z" transform="translate(-746.887 -830.688)" fill="#2d356b"/>
                    <path id="Path_27362" data-name="Path 27362" d="M764.023,845.764c.8-1.147,1.936-2.291,4.105-1.532A7.924,7.924,0,0,0,764.023,845.764Z" transform="translate(-744.623 -830.419)" fill="#2d356b"/>
                    <path id="Path_27363" data-name="Path 27363" d="M774.057,881.482c.035-.192.627.489.908.513.794.068.568,1.08-.225.932C774.43,882.869,774.02,881.686,774.057,881.482Z" transform="translate(-751.271 -855.244)" fill="#f36973"/>
                    <path id="Path_27364" data-name="Path 27364" d="M771.993,871.154c-.538-.214,3.092-1.259,2.435-.028A5.7,5.7,0,0,1,771.993,871.154Z" transform="translate(-749.868 -848.013)" fill="#f36973"/>
                    <path id="Path_27365" data-name="Path 27365" d="M764.976,832.312a4.833,4.833,0,0,0-5.707,3.257C760.757,833.361,761.943,832.512,764.976,832.312Z" transform="translate(-741.472 -822.62)" fill="#2d356b"/>
                    <path id="Path_27366" data-name="Path 27366" d="M779.282,855.965l-1.825.558-.066-4.661,2.72,3.318Z" transform="translate(-753.482 -835.638)" fill="#ffd8a3"/>
                    <path id="Path_27367" data-name="Path 27367" d="M779.579,866.288,781,863.4l-1.37-.049Z" transform="translate(-754.932 -843.253)" fill="#ffd8a3"/>
                    <path id="Path_27368" data-name="Path 27368" d="M772.546,875.827a34.461,34.461,0,0,0,.9-4.046h-3.3S770.805,875.27,772.546,875.827Z" transform="translate(-748.684 -848.838)" fill="#ffab00"/>
                    <path id="Path_27369" data-name="Path 27369" d="M771.948,874.028h1.878c.108-.508.209-1.04.3-1.591h-2.694Z" transform="translate(-749.534 -849.273)" fill="#fff"/>
                    <path id="Path_27370" data-name="Path 27370" d="M728.381,853.015c.074-1.438.561-2.5-.53-2.552s-2.038,1.068-2.112,2.508.753,2.648,1.845,2.7S728.308,854.454,728.381,853.015Z" transform="translate(-719.249 -834.709)" fill="#f7c371"/>
                  </g>
                  <path id="Path_27371" data-name="Path 27371" d="M745.989,810.477c-3.461,5.231-9.527,12.878-8.067,20.331-3.068-7.935-1.7-18.519,3.565-22.877C742.041,808.726,746.753,808.486,745.989,810.477Z" transform="translate(-726.255 -806.523)" fill="#2d356b"/>
                </g>
              </g>
            </g>
            <g id="Group_18470" data-name="Group 18470" transform="translate(2.365 37.344)">
              <g id="Group_18469" data-name="Group 18469" transform="translate(19.471 48.005)">
                <path id="Path_27372" data-name="Path 27372" d="M748.3,1076.269c.21-.509-.664-.981-1.722-1.366s-1.9-.536-2.11-.027.475,1.233,1.533,1.617S748.088,1076.778,748.3,1076.269Z" transform="translate(-739.523 -1068.565)" fill="#f7c371"/>
                <path id="Path_27373" data-name="Path 27373" d="M745.161,1079.7c.211-.51-.663-.981-1.722-1.364s-1.9-.54-2.11-.03.475,1.232,1.534,1.618S744.949,1080.2,745.161,1079.7Z" transform="translate(-737.443 -1070.837)" fill="#f7c371"/>
                <path id="Path_27374" data-name="Path 27374" d="M752.725,1069.78c-.482-.291-1.417.818-2.336,2.167s-1.478,2.424-1,2.716,1.616-.566,2.536-1.915S753.206,1070.071,752.725,1069.78Z" transform="translate(-742.694 -1065.373)" fill="#ffd8a3"/>
                <path id="Path_27375" data-name="Path 27375" d="M731.287,1056.8c2.23.923,9.466,3.285,8.681,5.758-.7,2.212-4.694,3.865-10.088-3.957Z" transform="translate(-729.88 -1056.804)" fill="#ffd8a3"/>
              </g>
              <path id="Path_27376" data-name="Path 27376" d="M694.731,914.784c-4.994-3.829-22.439,29.553-22.577,30.887,0,0,2.62,4,3.874,3.041C679.275,946.243,696.961,916.492,694.731,914.784Z" transform="translate(-672.154 -914.478)" fill="#54ccca"/>
              <path id="Path_27377" data-name="Path 27377" d="M692.771,1020.954c3.766-2.956-15.979-20.132-16.939-20.48,0,0-3.446,1.183-2.974,2.28C674.079,1005.594,691.09,1022.274,692.771,1020.954Z" transform="translate(-672.591 -971.468)" fill="#54ccca"/>
              <path id="Path_27378" data-name="Path 27378" d="M721.349,1055.317l-1.3.777-5.331-2.177a11.76,11.76,0,0,1,2.617-1.933C717.988,1051.871,721.349,1055.317,721.349,1055.317Z" transform="translate(-700.362 -1005.603)" fill="#eaeaea"/>
              <path id="Path_27379" data-name="Path 27379" d="M728.072,1048.947l.876-1.246-1.839-5.461a11.867,11.867,0,0,0-2.137,2.486C724.811,1045.368,728.072,1048.947,728.072,1048.947Z" transform="translate(-707.153 -999.146)" fill="#eaeaea"/>
            </g>
          </g>
        </g>
      </g>
      <g id="Group_18462" data-name="Group 18462" transform="translate(17.051 -1.582)">
        <rect id="Rectangle_6603" data-name="Rectangle 6603" width="56.303" height="32.46" rx="6.672" transform="translate(-13 34)" fill="#fff" stroke="#231f20" stroke-miterlimit="10" stroke-width="0.25"/>
        <text id="Akiko" transform="translate(2.152 53.73)" fill="#2d356b" font-size="10" font-family="TrebuchetMS-Bold, Trebuchet MS" font-weight="700"><tspan x="0" y="0">Akiko</tspan></text>
      </g>
    </g>
    <g id="Group_18478" data-name="Group 18478" transform="translate(525.906 495.226)">
      <g id="Group_18477" data-name="Group 18477" transform="translate(0 0)">
        <g id="Group_18475" data-name="Group 18475" transform="translate(0 33.808)">
          <rect id="Rectangle_6604" data-name="Rectangle 6604" width="163.073" height="4.895" fill="#40558d"/>
          <rect id="Rectangle_6605" data-name="Rectangle 6605" width="151.49" height="87.959" transform="translate(5.575 1.888)" fill="#40558d"/>
          <rect id="Rectangle_6606" data-name="Rectangle 6606" width="47.008" height="87.959" transform="translate(5.575 1.888)" fill="#7b87ab"/>
          <rect id="Rectangle_6607" data-name="Rectangle 6607" width="163.073" height="6.37" transform="translate(0 1.888)" fill="#2d356b"/>
        </g>
        <g id="Group_18476" data-name="Group 18476" transform="translate(50.398)">
          <path id="Path_27380" data-name="Path 27380" d="M819.493,953.713h37.822a2.339,2.339,0,0,0,2.3-1.9l5.1-26.835a2.339,2.339,0,0,0-2.3-2.776H824.59a2.339,2.339,0,0,0-2.3,1.9l-5.1,26.835A2.339,2.339,0,0,0,819.493,953.713Z" transform="translate(-793.853 -922.2)" fill="#cfd0d8"/>
          <path id="Path_27381" data-name="Path 27381" d="M822.293,924.971a1.268,1.268,0,1,1,1.867.873l-5.1,26.835a1.268,1.268,0,1,1-1.866-.873Z" transform="translate(-793.853 -923.068)" fill="#ebebeb"/>
          <path id="Path_27382" data-name="Path 27382" d="M750.735,1018.291h58.138a2.662,2.662,0,0,0,2.661-2.662H748.073A2.662,2.662,0,0,0,750.735,1018.291Z" transform="translate(-748.073 -984.116)" fill="#9898a4"/>
          <path id="Path_27383" data-name="Path 27383" d="M748.073,1015.629h24.474a2.858,2.858,0,0,1-3.021,2.662H751.094A2.859,2.859,0,0,1,748.073,1015.629Z" transform="translate(-748.073 -984.116)" fill="#cfd0d8"/>
          <circle id="Ellipse_390" data-name="Ellipse 390" cx="2.685" cy="2.685" r="2.685" transform="translate(44.434 17.209) rotate(-67.5)" fill="#fff4ba"/>
        </g>
      </g>
    </g>
    <g id="Group_18491" data-name="Group 18491" transform="translate(827.865 420.596)">
      <g id="Group_18490" data-name="Group 18490" transform="translate(0 0)">
        <g id="Group_18489" data-name="Group 18489">
          <g id="Group_18480" data-name="Group 18480" transform="translate(0 84.86)">
            <path id="Path_27384" data-name="Path 27384" d="M1510.294,964.487l-8.323,1.565c-7.32,26.144-5.522,57.312-21.878,110.691,0,0,1.563.682,1.788,0,13.607-41.275,21.05-73.636,23.69-78.083C1511.439,988.781,1518.776,980.38,1510.294,964.487Z" transform="translate(-1475.99 -960.454)" fill="#ffd8a3"/>
            <path id="Path_27385" data-name="Path 27385" d="M1548.709,959.629c10.243,19.1,2.573,17.622,2.24,27.5-.96,28.491,17.205,42.984,22.844,86.565,0,0-2.233-.114-2.3-.744-3.5-34.768-34.312-68.034-35.579-100.314-.082-2.081-.173-8.3,2.255-10.524C1541.884,958.712,1548.709,959.629,1548.709,959.629Z" transform="translate(-1512.964 -957.16)" fill="#f7c371"/>
            <path id="Path_27386" data-name="Path 27386" d="M1628.222,1294.342h6.693s.324-1.9-1.17-2.2C1632.806,1291.946,1631.143,1292.388,1628.222,1294.342Z" transform="translate(-1574.156 -1177.564)" fill="#7b88ac"/>
            <path id="Path_27387" data-name="Path 27387" d="M1467.925,1294.829h5.885s.284-1.9-1.028-2.2C1471.955,1292.433,1470.493,1292.875,1467.925,1294.829Z" transform="translate(-1467.925 -1177.887)" fill="#7b88ac"/>
            <path id="Path_27388" data-name="Path 27388" d="M1543.535,1019.964s-28.1,4.518-34.539,2.711c0,0,6.147-63.854,10.538-67.769s12.293-1.807,12.293-1.807a24.845,24.845,0,0,1,4.1,26.506C1530.07,993.459,1543.535,1019.964,1543.535,1019.964Z" transform="translate(-1495.143 -952.531)" fill="#9ea9fc"/>
          </g>
          <g id="Group_18488" data-name="Group 18488" transform="translate(3.222)">
            <path id="Path_27389" data-name="Path 27389" d="M1509.853,716.579c-2.42-9.025,13.045-18.531,19.144-14.813,0,0,15.156-.234,10.859,25.264-.191,1.127-4.822,1.128-4.77,3.58s-.168,2.18-1.33,3.332-3.36-.467-3.863.372c-1.382,2.3,3.165,3.9,4.548,2.641,0,0-11.262,7.058-16.944-4.821C1517.172,731.451,1510.49,718.955,1509.853,716.579Z" transform="translate(-1498.765 -700.939)" fill="#fff4ba"/>
            <g id="Group_18481" data-name="Group 18481" transform="translate(11.25 23.744)">
              <path id="Path_27390" data-name="Path 27390" d="M1552.2,771.336l-5.809,4.636.406,13.649,4.819-2.385Z" transform="translate(-1534.395 -771.336)" fill="#f6cda2"/>
              <path id="Path_27391" data-name="Path 27391" d="M1515.967,877.6c13.847,6.3,18.434,2.829,25.931,1.645-1.05-10.712-7.942-17.352-8.887-24.816-1.753-13.835,8.184-31.441-2.267-36.6-11.1-5.481-19.911,26.622-19.911,26.622C1521.837,849.1,1518.482,860.536,1515.967,877.6Z" transform="translate(-1510.833 -801.729)" fill="#9ea9fc"/>
              <path id="Path_27392" data-name="Path 27392" d="M1549.451,815.594l-1.841-.009-7.259,8.561,2.635,1.76S1547.807,819.73,1549.451,815.594Z" transform="translate(-1530.394 -800.66)" fill="#fff"/>
              <path id="Path_27393" data-name="Path 27393" d="M1530.977,826.512l-.123-.07c1.66-4.52,5.606-11.6,10.178-11.691C1537.329,818.891,1530.977,826.512,1530.977,826.512Z" transform="translate(-1524.102 -800.107)" fill="#f6cda2"/>
            </g>
            <g id="Group_18484" data-name="Group 18484" transform="translate(0 43.187)">
              <g id="Group_18482" data-name="Group 18482" transform="translate(0 19.472)">
                <path id="Path_27394" data-name="Path 27394" d="M1501.774,905.713c-2.115-1.251-8.118-.49-7.784-2.607.3-1.9,3.584-4.5,8.68.927Z" transform="translate(-1488.412 -896.039)" fill="#ffd9a4"/>
                <path id="Path_27395" data-name="Path 27395" d="M1496.429,900.357c-.315,3.381-4.433,2.983-5.7,2.558-1.393-.468-1.858-3.1-1.113-4.005S1496.547,899.064,1496.429,900.357Z" transform="translate(-1485.288 -894.571)" fill="#ffd9a4"/>
                <path id="Path_27396" data-name="Path 27396" d="M1496.075,891.039c-1.193-1.608-1.783-4.019-1.07-4.3.8-.317.922,1.852,2.343,3.034,1.537,1.284,2.435,2.171,1.973,2.79S1497.267,892.651,1496.075,891.039Z" transform="translate(-1488.889 -886.709)" fill="#ffd9a4"/>
                <path id="Path_27397" data-name="Path 27397" d="M1483.52,896.211c-1.623-.555-2.343-1.217-2.147-1.63s1.1-.042,2.724.51,3.821.852,3.625,1.266S1485.143,896.76,1483.52,896.211Z" transform="translate(-1480.038 -891.808)" fill="#ffd9a4"/>
                <path id="Path_27398" data-name="Path 27398" d="M1480.514,902.136c-1.735-.221-3.138-1.182-3.031-1.619s1.651.146,3.387.367,2.848.457,2.739.894S1482.249,902.357,1480.514,902.136Z" transform="translate(-1477.478 -895.755)" fill="#ffd9a4"/>
                <path id="Path_27399" data-name="Path 27399" d="M1484.774,908.241c-1.723-.291-2.619-.842-2.5-1.275s1.219-.027,2.941.264,2.927.518,2.807.952S1486.5,908.531,1484.774,908.241Z" transform="translate(-1480.649 -900.008)" fill="#ffd9a4"/>
              </g>
              <g id="Group_18483" data-name="Group 18483" transform="translate(11.018)">
                <path id="Path_27400" data-name="Path 27400" d="M1516.418,908.757c-1.344,5.55,23.623,11.964,24.8,11.59,0,0,2.38-3.637,1.1-4.331C1539.013,914.221,1517.02,906.28,1516.418,908.757Z" transform="translate(-1514.267 -881.535)" fill="#495bd9"/>
                <path id="Path_27401" data-name="Path 27401" d="M1568.339,829.248c6.184-3.852,9.252,35.113,7.442,36.281,0,0-3.909-.344-4.969-1.869C1567.613,859.054,1565.575,830.966,1568.339,829.248Z" transform="translate(-1547.85 -828.98)" fill="#495bd9"/>
                <path id="Path_27402" data-name="Path 27402" d="M1510.755,905.455l.915-1.387,6.619-.133s-1.035,2.771-1.642,3.18S1510.755,905.455,1510.755,905.455Z" transform="translate(-1510.549 -878.654)" fill="#fff"/>
                <path id="Path_27403" data-name="Path 27403" d="M1510.374,908.089l-.23,1.687,4.811,4.842s1.033-2.8.855-3.539S1510.374,908.089,1510.374,908.089Z" transform="translate(-1510.144 -881.406)" fill="#fff"/>
              </g>
            </g>
            <g id="Group_18487" data-name="Group 18487" transform="translate(12.594 2.751)">
              <g id="Group_18486" data-name="Group 18486">
                <g id="Group_18485" data-name="Group 18485" transform="translate(0 2.409)">
                  <path id="Path_27404" data-name="Path 27404" d="M1523.3,745.869c-1.2.068-3.706-6.032-4.615-10.766-.3-1.561,1.383-1.841.976-7.2-.239-3.147.971-7.589,6.07-11.012,4.814-3.233,5.732,6.521,6.286,8.756,1.577,6.365,3.446,10.312,1.971,13.517C1531.109,745.422,1524.586,745.485,1523.3,745.869Z" transform="translate(-1517.358 -716.24)" fill="#ffd8a3"/>
                  <path id="Path_27405" data-name="Path 27405" d="M1530.755,778.712a.278.278,0,0,0-.267-.287.292.292,0,0,0-.222.333.278.278,0,0,0,.268.287A.292.292,0,0,0,1530.755,778.712Z" transform="translate(-1525.054 -757.45)" fill="#ffab00"/>
                  <path id="Path_27406" data-name="Path 27406" d="M1528.313,752.891c-.076-.845-.609-1.478-1.187-1.417s-.99.8-.913,1.641.608,1.479,1.188,1.417S1528.389,753.736,1528.313,752.891Z" transform="translate(-1522.362 -739.587)" fill="#2d356b"/>
                  <path id="Path_27407" data-name="Path 27407" d="M1527.573,752.805c-.88-1.125-2.107-2.228-4.278-1.329A8.1,8.1,0,0,1,1527.573,752.805Z" transform="translate(-1520.435 -739.373)" fill="#2d356b"/>
                  <path id="Path_27408" data-name="Path 27408" d="M1524.879,789.539c-.047-.194-.612.535-.9.575-.806.115-.518,1.135.283.938C1524.577,790.975,1524.927,789.744,1524.879,789.539Z" transform="translate(-1520.572 -764.794)" fill="#f36973"/>
                  <path id="Path_27409" data-name="Path 27409" d="M1523.983,779.083c.536-.249-3.229-1.108-2.487.11A5.832,5.832,0,0,0,1523.983,779.083Z" transform="translate(-1519.178 -757.537)" fill="#f36973"/>
                  <path id="Path_27410" data-name="Path 27410" d="M1522.486,739.562a4.942,4.942,0,0,1,6.121,2.769C1526.881,740.226,1525.593,739.476,1522.486,739.562Z" transform="translate(-1519.899 -731.546)" fill="#2d356b"/>
                  <path id="Path_27411" data-name="Path 27411" d="M1515.708,763.787l1.894.465-.2-4.761-2.586,3.542Z" transform="translate(-1514.816 -744.903)" fill="#ffd8a3"/>
                  <path id="Path_27412" data-name="Path 27412" d="M1518.238,774.347l-1.613-2.864,1.4-.128Z" transform="translate(-1516.014 -752.764)" fill="#ffd8a3"/>
                  <path id="Path_27413" data-name="Path 27413" d="M1522.193,783.675a35.329,35.329,0,0,1-1.151-4.078l3.364-.189S1523.938,783.007,1522.193,783.675Z" transform="translate(-1518.942 -758.102)" fill="#ffab00"/>
                  <path id="Path_27414" data-name="Path 27414" d="M1523.907,781.8l-1.916.108q-.211-.769-.4-1.607l2.749-.154Z" transform="translate(-1519.307 -758.594)" fill="#fff"/>
                  <path id="Path_27415" data-name="Path 27415" d="M1567.005,758.086c-.158-1.463-.716-2.517.395-2.635s2.142.974,2.3,2.438-.616,2.746-1.729,2.865S1567.162,759.551,1567.005,758.086Z" transform="translate(-1549.217 -742.219)" fill="#f7c371"/>
                </g>
                <path id="Path_27416" data-name="Path 27416" d="M1534.589,709.1c.958,3.453,3.793,12.164,8.786,13.691,0,0,2.68-7.83-2.024-10.539C1535.412,708.83,1534.589,709.1,1534.589,709.1Z" transform="translate(-1527.92 -709.096)" fill="#fff4ba"/>
              </g>
            </g>
          </g>
        </g>
      </g>
      <g id="Group_18479" data-name="Group 18479" transform="translate(3.126 67.847)">
        <rect id="Rectangle_6608" data-name="Rectangle 6608" width="54.577" height="33.054" rx="6.672" fill="#fff" stroke="#231f20" stroke-miterlimit="10" stroke-width="0.25"/>
        <text id="Helen" transform="translate(13.788 20.027)" fill="#2d356b" font-size="10" font-family="TrebuchetMS-Bold, Trebuchet MS" font-weight="700"><tspan x="0" y="0">Helen</tspan></text>
      </g>
    </g>
    <g id="Group_18494" data-name="Group 18494" transform="translate(586.705 396.391)">
      <g id="Group_18493" data-name="Group 18493" transform="translate(0)">
        <g id="Group_18492" data-name="Group 18492">
          <rect id="Rectangle_6609" data-name="Rectangle 6609" width="306.513" height="57.656" rx="11.604" transform="translate(-80.825 -17)" fill="#fff" stroke="#231f20" stroke-miterlimit="10" stroke-width="0.25"/>
          <path id="Path_27417" data-name="Path 27417" d="M797.183,749.71l-7.637,20.621,20.276-20.621Z" transform="translate(-782.861 -709.054)" fill="#fff" stroke="#231f20" stroke-miterlimit="10" stroke-width="0.25"/>
        </g>
      </g>
    </g>
    <g id="Group_18497" data-name="Group 18497" transform="translate(721.162 314.924)">
      <g id="Group_18496" data-name="Group 18496" transform="translate(0 0)">
        <g id="Group_18495" data-name="Group 18495">
          <rect id="Rectangle_6610" data-name="Rectangle 6610" width="212.4" height="57.772" rx="11.604" transform="translate(199.4 40.772) rotate(-180)" fill="#fff" stroke="#231f20" stroke-miterlimit="10" stroke-width="0.25"/>
          <path id="Path_27418" data-name="Path 27418" d="M1514.267,612.29l4.886,43.542L1503.14,612.29Z" transform="translate(-1398.477 -571.518)" fill="#fff" stroke="#231f20" stroke-miterlimit="10" stroke-width="0.25"/>
        </g>
      </g>
    </g>
  </g>
</svg>
