<svg xmlns="http://www.w3.org/2000/svg" width="460.346" height="393.979" viewBox="0 0 460.346 393.979">
  <g id="Group_18459" data-name="Group 18459" transform="translate(7.5 0.5)">
    <rect id="Rectangle_769" data-name="Rectangle 769" width="459.346" height="392.979" transform="translate(-7)" fill="#03b4e9" stroke="#9999a5" stroke-miterlimit="10" stroke-width="1"/>
    <rect id="Rectangle_770" data-name="Rectangle 770" width="443.617" height="354.319" transform="translate(0.864 21.653)" fill="#fff" stroke="#9999a5" stroke-miterlimit="10" stroke-width="1"/>
    <text id="Subject:" transform="translate(23.794 70.752)" fill="#7b88ac" font-size="14" font-family="TrebuchetMS-Bold, Trebuchet MS" font-weight="700"><tspan x="0" y="0">Subject:</tspan></text>
    <text id="_900_corporate_contracts_milestone" data-name="900 corporate contracts milestone" transform="translate(96.117 70.752)" fill="#2d356b" font-size="14" font-family="TrebuchetMS-Bold, Trebuchet MS" font-weight="700"><tspan x="0" y="0">900 corporate contracts milestone</tspan></text>
    <text id="Hi_Brenda_I_have_good_news._We_have_reached_900_corporate_contracts_We_should_announce_it_in_a_press_release_and_SNS._I_have_two_questions._Who_is_________________press_releases_And_who_is____________________managing_our_SNS_accounts_Please_let_me" data-name="Hi Brenda,

I have good news. We have reached 900 corporate contracts! 
We should announce it in a press release and SNS.

I have two questions.

Who is _______________ press releases?
And who is __________________ managing our SNS accounts?

Please let me" transform="translate(23.794 93.005)" fill="#2d356b" font-size="14" font-family="TrebuchetMS-Bold, Trebuchet MS" font-weight="700"><tspan x="0" y="13">Hi Brenda,</tspan><tspan x="0" y="29"></tspan><tspan x="0" y="45">I have good news. We have reached 900 corporate contracts! </tspan><tspan x="0" y="61">We should announce it in a press release and SNS.</tspan><tspan x="0" y="77"></tspan><tspan x="0" y="93">I have two questions.</tspan><tspan x="0" y="109"></tspan><tspan x="0" y="125">Who is _______________ press releases?</tspan><tspan x="0" y="141">And who is __________________ managing our SNS </tspan><tspan x="0" y="157">accounts?</tspan><tspan x="0" y="173"></tspan><tspan x="0" y="189">Please let me know!</tspan><tspan x="0" y="205"></tspan><tspan x="0" y="221">Best regards,</tspan><tspan x="0" y="237">Akiko</tspan><tspan font-family="TrebuchetMS-Bold"><tspan x="0" y="253"></tspan></tspan></text>
    <text id="To:" transform="translate(23.794 52.184)" fill="#7b88ac" font-size="14" font-family="TrebuchetMS-Bold, Trebuchet MS" font-weight="700"><tspan x="0" y="0">To:</tspan></text>
    <text id="brendagibbs_abc.jp" data-name="brendagibbs@abc.jp" transform="translate(58.48 52.184)" fill="#2d356b" font-size="14" font-family="TrebuchetMS-Bold, Trebuchet MS" font-weight="700"><tspan x="0" y="0">brendagibbs@abc.jp</tspan></text>
    <line id="Line_88" data-name="Line 88" x2="353.032" transform="translate(23.928 57.215)" fill="#fff" stroke="#9999a5" stroke-miterlimit="10" stroke-width="1"/>
    <line id="Line_89" data-name="Line 89" x2="353.032" transform="translate(23.928 75.005)" fill="#fff" stroke="#9999a5" stroke-miterlimit="10" stroke-width="1"/>
    <g id="Group_18458" data-name="Group 18458" transform="translate(16.025 367.005)">
      <path id="Path_22543" data-name="Path 22543" d="M3077.708,12160.162l17.667-10.039-24.125,7.4Z" transform="translate(-3071.25 -12150.123)" fill="#9ea9fc"/>
      <path id="Path_22544" data-name="Path 22544" d="M3135.761,12164.209l7.1,4.3,4.472-18.385Z" transform="translate(-3123.21 -12150.123)" fill="#9ea9fc"/>
      <path id="Path_22545" data-name="Path 22545" d="M3103.961,12167.219l17.761-17.1-17.667,10.039Z" transform="translate(-3097.597 -12150.123)" fill="#2d356b"/>
      <path id="Path_22546" data-name="Path 22546" d="M3110.148,12164.209l11.574-14.086-17.761,17.1Z" transform="translate(-3097.597 -12150.123)" fill="#40558e"/>
    </g>
  </g>
</svg>
