<svg id="piece-1" xmlns="http://www.w3.org/2000/svg" width="166.8" height="38" viewBox="0 0 166.8 38">
  <path id="Union_24" data-name="Union 24"
    d="M0,38V0H12.2a3,3,0,0,1,3,3V13.624a5.7,5.7,0,1,1,0,10.751V35a3,3,0,0,1-3,3Z" transform="translate(144 0)"
    fill="#ffb2b0" />
  <g id="text" transform="translate(-12 -72)">
    <path id="Rectangle_205" data-name="Rectangle 205"
      d="M3,0H144a0,0,0,0,1,0,0V38a0,0,0,0,1,0,0H3a3,3,0,0,1-3-3V3A3,3,0,0,1,3,0Z" transform="translate(12 72)"
      fill="#ffb2b0" />
    <text id="I_ll_make_sure_to" data-name="I’ll make sure to" transform="translate(28 97)" font-size="16"
      font-family="NotoSans-Bold, Noto Sans, Arial, sans-serif" font-weight="700">
      <tspan x="0" y="0">I’ll make sure to</tspan>
    </text>
  </g>
</svg>