<svg xmlns="http://www.w3.org/2000/svg" width="406.521" height="191.516" viewBox="0 0 406.521 191.516">
  <g id="Group_19784" data-name="Group 19784" transform="translate(-102.996 -9155.5)">
    <g id="Group_19404" data-name="Group 19404" transform="translate(102.996 9178.342)">
      <g id="Group_19402" data-name="Group 19402" transform="translate(0 0)">
        <g id="Group_19392" data-name="Group 19392" transform="translate(11.009)">
          <g id="Group_19391" data-name="Group 19391">
            <path id="Path_29388" data-name="Path 29388" d="M924.582,5517.909c-5.536-7.613,2.017-11.521,1.808-19.008s-6.7-5.4-7.33-15.084,5.3-12.01,5.765-17.6-7.1-7.318-3.682-14.208,8.741-6.574,11.7-12.043,11.067-8.219,15.39-5.441,10.035-6.313,17.58-.688,6.282,15.984,8.328,21.963,9.685,8.818,10.365,19.33-4.741,7.81-2.608,15.171,9.028,7.194,9.709,17.708c0,0,.406,10.53-10.721,9.305s-7.948,5.237-19.856.454-8.408,6.656-16.724,1.916S930.95,5526.663,924.582,5517.909Z" transform="translate(-919.014 -5431.964)" fill="#2d356b"/>
          </g>
        </g>
        <g id="Group_19394" data-name="Group 19394" transform="translate(54.358 71.766)">
          <g id="Group_19393" data-name="Group 19393" transform="translate(10.853 67.681)">
            <path id="Path_29389" data-name="Path 29389" d="M1107.707,5926.583c-.424-.562.5-1.429,1.689-2.246s2.174-1.277,2.6-.716-.188,1.679-1.375,2.5S1108.132,5927.144,1107.707,5926.583Z" transform="translate(-1104.948 -5914.67)" fill="#f7c371"/>
            <path id="Path_29390" data-name="Path 29390" d="M1113.289,5930.194c-.425-.562.5-1.428,1.69-2.245s2.173-1.281,2.6-.718-.189,1.678-1.375,2.5S1113.715,5930.753,1113.289,5930.194Z" transform="translate(-1108.847 -5917.191)" fill="#f7c371"/>
            <path id="Path_29391" data-name="Path 29391" d="M1098.941,5921.53c.5-.516,2.018.554,3.591,1.926s2.612,2.522,2.109,3.04-2.182-.178-3.757-1.55S1098.439,5922.046,1098.941,5921.53Z" transform="translate(-1098.799 -5913.289)" fill="#ffd8a3"/>
            <path id="Path_29392" data-name="Path 29392" d="M1108.788,5894.5c-2.461,1.862-10.652,7.124-8.88,9.929,1.584,2.51,7.057,3.267,11.2-8.156Z" transform="translate(-1099.4 -5894.502)" fill="#ffd8a3"/>
          </g>
          <path id="Path_29393" data-name="Path 29393" d="M1062.927,5670.874c5.658-7.27,42.717,33.562,43.406,35.4,0,0-2.233,6.629-4.363,5.742C1096.457,5709.718,1060.4,5674.12,1062.927,5670.874Z" transform="translate(-1062.8 -5670.008)" fill="#fff4ba"/>
          <path id="Path_29394" data-name="Path 29394" d="M1132.066,5819.275c-6.428-2.795,15.186-34.427,16.418-35.276,0,0,5.319.4,5.057,2.13C1152.862,5790.6,1134.937,5820.522,1132.066,5819.275Z" transform="translate(-1110.351 -5749.632)" fill="#fff4ba"/>
          <path id="Path_29395" data-name="Path 29395" d="M1131.318,5888.687l2.128.62,6.746-5.055s-3.457-1.85-4.422-1.77S1131.318,5888.687,1131.318,5888.687Z" transform="translate(-1110.661 -5818.423)" fill="#eaeaea"/>
          <path id="Path_29396" data-name="Path 29396" d="M1127.8,5880.552l-1.7-1.442.586-8.416s3.483,1.879,3.947,2.73S1127.8,5880.552,1127.8,5880.552Z" transform="translate(-1107.011 -5810.19)" fill="#eaeaea"/>
        </g>
        <g id="Group_19395" data-name="Group 19395" transform="translate(17.437 50.54)">
          <path id="Path_29397" data-name="Path 29397" d="M940.335,5737.228s11.258,9.972,22.516,13.711l5.864-12.673,5.4,12.673s15.219-4.287,21.343-13.711c-12.4-17.982-17.3-32.986-4.44-51.7,0,0-5.176-33.47-23.94-34.3s-22.107,35.68-22.107,35.68C957.163,5705.182,961.157,5713.122,940.335,5737.228Z" transform="translate(-940.335 -5635.65)" fill="#ffe200"/>
          <path id="Path_29398" data-name="Path 29398" d="M1004.387,5666.9a11.364,11.364,0,0,1,7.269,2.622c1.9-4.326,3.171-9.649,1.814-15.081-11.423-8.588-18.462.892-18.462.892s-1.5,5.917,2.531,13.871A11.336,11.336,0,0,1,1004.387,5666.9Z" transform="translate(-978.336 -5635.394)" fill="#fff"/>
          <path id="Path_29399" data-name="Path 29399" d="M1006.1,5653.845s-1.9,9.531,6.738,19.873c0,0,7.342-10.066,5.269-20.61C1010.682,5646.01,1006.1,5653.845,1006.1,5653.845Z" transform="translate(-986.152 -5634.899)" fill="#f7c371"/>
          <rect id="Rectangle_6836" data-name="Rectangle 6836" width="9.799" height="18.369" transform="translate(21.129)" fill="#f7c371"/>
          <path id="Path_29400" data-name="Path 29400" d="M1038.057,5799.547a1.378,1.378,0,1,0-1.378,1.378A1.377,1.377,0,0,0,1038.057,5799.547Z" transform="translate(-1006.67 -5738.305)" fill="#fff"/>
          <path id="Path_29401" data-name="Path 29401" d="M1038.057,5835.265a1.378,1.378,0,1,0-1.378,1.378A1.378,1.378,0,0,0,1038.057,5835.265Z" transform="translate(-1006.67 -5763.254)" fill="#fff"/>
          <path id="Path_29402" data-name="Path 29402" d="M1038.057,5906.7a1.378,1.378,0,1,0-1.378,1.378A1.377,1.377,0,0,0,1038.057,5906.7Z" transform="translate(-1006.67 -5813.155)" fill="#fff"/>
          <path id="Path_29403" data-name="Path 29403" d="M1038.057,5870.983a1.378,1.378,0,1,0-1.378,1.378A1.377,1.377,0,0,0,1038.057,5870.983Z" transform="translate(-1006.67 -5788.205)" fill="#fff"/>
        </g>
        <g id="Group_19397" data-name="Group 19397" transform="translate(0 72.096)">
          <path id="Path_29404" data-name="Path 29404" d="M913.251,5671.485c-7.582-5.232-30.647,44.853-30.752,46.813,0,0,4.123,5.651,5.888,4.164C892.953,5718.613,916.637,5673.821,913.251,5671.485Z" transform="translate(-882.499 -5671.102)" fill="#fff4ba"/>
          <g id="Group_19396" data-name="Group 19396" transform="translate(27.417 68.672)">
            <path id="Path_29405" data-name="Path 29405" d="M973.44,5901.573c3.611,3.085,5.975,14.539,9.637,12.6,3.282-1.732,5.989-9.37-7.125-15.293Z" transform="translate(-973.44 -5898.884)" fill="#ffd9a4"/>
            <path id="Path_29406" data-name="Path 29406" d="M993.647,5913.049c-5.987,2.691-2.681,9.973-1.111,12.025,1.728,2.255,6.835,1.456,8.021-.47S995.937,5912.024,993.647,5913.049Z" transform="translate(-985.148 -5908.73)" fill="#ffd9a4"/>
            <path id="Path_29407" data-name="Path 29407" d="M1007.046,5921.426c3.686,1.175,8.466.746,8.53-.733.077-1.669-3.963-.527-7.015-2.388-3.31-2.007-5.495-3.095-6.337-1.861S1003.354,5920.253,1007.046,5921.426Z" transform="translate(-993.411 -5910.785)" fill="#ffd9a4"/>
            <path id="Path_29408" data-name="Path 29408" d="M1018.861,5939.053c2.029,2.622,3.691,3.525,4.325,2.907s-.614-2.041-2.638-4.662-3.948-6.457-4.583-5.838S1016.842,5936.429,1018.861,5939.053Z" transform="translate(-1003.041 -5921.592)" fill="#ffd9a4"/>
            <path id="Path_29409" data-name="Path 29409" d="M1011.109,5949.806c1.49,3.036,4.125,5,4.857,4.529s-1.3-2.928-2.79-5.963-2.618-4.922-3.349-4.45S1009.62,5946.771,1011.109,5949.806Z" transform="translate(-998.628 -5930.293)" fill="#ffd9a4"/>
            <path id="Path_29410" data-name="Path 29410" d="M996.349,5946.832c1.61,2.971,3.181,4.265,3.9,3.776s-.713-2.247-2.322-5.215-2.779-5.028-3.5-4.538S994.739,5943.858,996.349,5946.832Z" transform="translate(-987.937 -5928.151)" fill="#ffd9a4"/>
          </g>
          <path id="Path_29411" data-name="Path 29411" d="M914.075,5844.96c5.29-4.6-24.836-28.267-26.266-28.706,0,0-4.952,1.982-4.182,3.553C885.62,5823.869,911.713,5847.013,914.075,5844.96Z" transform="translate(-883.23 -5772.493)" fill="#fff4ba"/>
          <path id="Path_29412" data-name="Path 29412" d="M966.077,5901.756l-1.843,1.231-7.953-2.792s2.741-2.8,3.685-3.018S966.077,5901.756,966.077,5901.756Z" transform="translate(-934.037 -5829.015)" fill="#eaeaea"/>
          <path id="Path_29413" data-name="Path 29413" d="M977.238,5890.256l1.19-1.886-3.089-7.851s-2.757,2.839-2.943,3.791S977.238,5890.256,977.238,5890.256Z" transform="translate(-945.289 -5817.383)" fill="#eaeaea"/>
        </g>
        <g id="Group_19398" data-name="Group 19398" transform="translate(25.667 15.719)">
          <path id="Path_29414" data-name="Path 29414" d="M989.851,5527.78c-6.085.394-20.864-15.35-16.527-36.155.878-4.206,5.214-6.874,13.7-7.423,9.339-.6,13.776,1.643,14.673,4.945C1008.045,5512.491,996.078,5527.377,989.851,5527.78Z" transform="translate(-971.061 -5484.103)" fill="#ffd8a3"/>
          <path id="Path_29415" data-name="Path 29415" d="M1031.2,5524.428c1.927-1.01,6.279-2.669,10.229,2.043C1038.08,5523.892,1035.868,5523.209,1031.2,5524.428Z" transform="translate(-1012.036 -5511.483)" fill="#2d356b"/>
          <path id="Path_29416" data-name="Path 29416" d="M990.086,5519.131c-2.117-.451-6.729-.873-9.263,4.731C983.348,5520.475,985.287,5519.22,990.086,5519.131Z" transform="translate(-976.848 -5508.403)" fill="#2d356b"/>
          <path id="Path_29417" data-name="Path 29417" d="M1047.91,5540.251c-.125-1.157-.956-2.014-1.854-1.915a2.172,2.172,0,1,0,1.854,1.915Z" transform="translate(-1021.422 -5521.98)" fill="#2d356b"/>
          <path id="Path_29418" data-name="Path 29418" d="M1043.032,5538.3c-1.838-1.009-4.178-1.817-6.924.419A14.065,14.065,0,0,1,1043.032,5538.3Z" transform="translate(-1015.465 -5521.256)" fill="#2d356b"/>
          <path id="Path_29419" data-name="Path 29419" d="M998.4,5543.449a1.69,1.69,0,1,1,1.684,2.07A1.913,1.913,0,0,1,998.4,5543.449Z" transform="translate(-989.122 -5524.063)" fill="#2d356b"/>
          <path id="Path_29420" data-name="Path 29420" d="M988.728,5543.117c1.489-1.477,3.514-2.9,6.769-1.507A14.065,14.065,0,0,0,988.728,5543.117Z" transform="translate(-982.369 -5523.875)" fill="#2d356b"/>
          <path id="Path_29421" data-name="Path 29421" d="M1020.179,5559.362a4.473,4.473,0,0,0,1.872.638,2.6,2.6,0,0,0,1.769-.95c.048-.507-1.644-6.014-2.119-6.034S1020.1,5558.637,1020.179,5559.362Z" transform="translate(-1004.335 -5532.241)" fill="#ffab00"/>
          <path id="Path_29422" data-name="Path 29422" d="M1023.155,5556.473c.01.113.561.258.751.245.327-.021.709-.214.709-.417,0-.491-.1-6.062-1.08-5.945C1022.463,5550.482,1023.1,5555.763,1023.155,5556.473Z" transform="translate(-1006.25 -5530.38)" fill="#ffd8a3"/>
          <path id="Path_29423" data-name="Path 29423" d="M970.095,5557.611c-.373-1.323-.266-2.424-1.242-2.148s-1.466,1.571-1.091,2.895,1.468,2.169,2.443,1.895S970.469,5558.934,970.095,5557.611Z" transform="translate(-967.636 -5533.919)" fill="#f7c371"/>
          <path id="Path_29424" data-name="Path 29424" d="M1074.1,5550.97c.167-1.363-.118-2.44.918-2.312a2.257,2.257,0,0,1,1.576,2.7c-.166,1.363-1.143,2.367-2.179,2.241S1073.938,5552.338,1074.1,5550.97Z" transform="translate(-1041.798 -5529.188)" fill="#f7c371"/>
          <path id="Path_29425" data-name="Path 29425" d="M1023.246,5588.637c-2.011-1.723-3.095-.64-3.564-.568-.5.079-1.5-.872-2.908.85-.428.527,1.34.267,3.131.247S1023.762,5589.08,1023.246,5588.637Z" transform="translate(-1001.915 -5556.444)" fill="#f36973"/>
          <path id="Path_29426" data-name="Path 29426" d="M1024.518,5597.517c0-.679-1.095-.614-2.508-.614s-2.605-.064-2.605.614,1.143,1.229,2.555,1.229S1024.518,5598.2,1024.518,5597.517Z" transform="translate(-1003.798 -5562.895)" fill="#f36973"/>
          <path id="Path_29427" data-name="Path 29427" d="M1012.932,5590.912a9.714,9.714,0,0,1,4.248-1.017c1.458-.061,3.884-.395,4.242.152,0,0,.641,2.524-4.232,2.774C1013.82,5593.07,1012.932,5590.912,1012.932,5590.912Z" transform="translate(-999.276 -5557.892)" fill="#ffab00"/>
          <path id="Path_29428" data-name="Path 29428" d="M1021.918,5590.337c-.568-.33-1.817-.129-3.761-.053a6.053,6.053,0,0,0-3.548.958C1016.2,5591.7,1020.317,5591.617,1021.918,5590.337Z" transform="translate(-1000.447 -5558.181)" fill="#fff"/>
          <path id="Path_29429" data-name="Path 29429" d="M1040.485,5589.735a.339.339,0,1,0-.335.39A.367.367,0,0,0,1040.485,5589.735Z" transform="translate(-1018.054 -5557.614)" fill="#ffab00"/>
          <ellipse id="Ellipse_433" data-name="Ellipse 433" cx="0.365" cy="0.424" rx="0.365" ry="0.424" transform="translate(13.21 32.477)" fill="#ffab00"/>
        </g>
        <g id="Group_19401" data-name="Group 19401" transform="translate(25.033 11.078)">
          <g id="Group_19400" data-name="Group 19400" transform="translate(12.334)">
            <path id="Path_29430" data-name="Path 29430" d="M1027.193,5482.491c-5.484-1.688-19.235-6.493-20.75-13.277,0,0,13.407-2.588,16.92,3.959C1027.8,5481.437,1027.193,5482.491,1027.193,5482.491Z" transform="translate(-1006.443 -5468.709)" fill="#2d356b"/>
            <g id="Group_19399" data-name="Group 19399" transform="translate(1.134 2.82)">
              <path id="Path_29431" data-name="Path 29431" d="M1020.5,5487.247c1.28,1.627,8.679,6.919,13.692,8.411S1020.5,5487.247,1020.5,5487.247Z" transform="translate(-1017.398 -5484.479)" fill="#2d356b"/>
              <path id="Path_29432" data-name="Path 29432" d="M1010.2,5478.064a25.623,25.623,0,0,0,5.932,8.07C1018.68,5488.172,1010.2,5478.064,1010.2,5478.064Z" transform="translate(-1010.203 -5478.064)" fill="#2d356b"/>
            </g>
          </g>
          <path id="Path_29433" data-name="Path 29433" d="M965.593,5496.722c4.151-2.312,14.489-8.677,14.9-15.586,0,0-10.924-1.013-12.948,5.893C964.988,5495.747,965.593,5496.722,965.593,5496.722Z" transform="translate(-965.531 -5477.353)" fill="#2d356b"/>
        </g>
      </g>
      <g id="Group_19403" data-name="Group 19403" transform="translate(2.721 143.687)">
        <rect id="Rectangle_6837" data-name="Rectangle 6837" width="68.693" height="30.362" rx="6.672" transform="translate(13 -5.5)" fill="#fff" stroke="#231f20" stroke-miterlimit="10" stroke-width="0.25"/>
        <text id="Akiko" transform="translate(34.347 13.181)" fill="#2d356b" font-size="10" font-family="TrebuchetMS-Bold, Trebuchet MS" font-weight="700"><tspan x="0" y="0">Akiko</tspan></text>
      </g>
    </g>
    <g id="Group_19406" data-name="Group 19406" transform="translate(177.074 9157.505)">
      <g id="Group_19405" data-name="Group 19405">
        <path id="Path_29434" data-name="Path 29434" d="M1276.716,5466.749c-12.346,16.728-8.158,36.744,10.671,46.477,20,10.338,49.112,5.244,65.863-11.289,9.083,11.121,24.2,20.612,42.559,25.445,33.846,8.908,65.892-1.381,71.578-22.982a27.44,27.44,0,0,0,.144-13.1c27.926,11.628,46.707,4.507,58.2-19.323,8.483-17.584-1.5-51.292-42.8-62.165-5.267-1.386-10.472-2.487-15.556-3.316.215-.59,2.31-3.842,1.129-10.055-5.135-27.006-38.048-34.855-74.035-33.427-30.3,1.2-47.889,16.257-57.3,30.618,0,0-79.032-38.37-104.27,19.771C1232.9,5413.4,1207.139,5464.255,1276.716,5466.749Z" transform="translate(-1198.08 -5362.849)" fill="#fff" stroke="#ebebeb" stroke-miterlimit="10" stroke-width="4"/>
        <circle id="Ellipse_434" data-name="Ellipse 434" cx="10.34" cy="10.34" r="10.34" transform="translate(23.842 35.357)" fill="#fff" stroke="#ebebeb" stroke-miterlimit="10" stroke-width="4"/>
        <circle id="Ellipse_435" data-name="Ellipse 435" cx="6.127" cy="6.127" r="6.127" transform="translate(13.797 36.944)" fill="#fff" stroke="#ebebeb" stroke-miterlimit="10" stroke-width="4"/>
        <circle id="Ellipse_436" data-name="Ellipse 436" cx="5.241" cy="5.241" r="5.241" transform="translate(0 41.495)" fill="#fff" stroke="#ebebeb" stroke-miterlimit="10" stroke-width="4"/>
      </g>
    </g>
    <g id="Group_19708" data-name="Group 19708" transform="translate(232.438 9210.131)">
      <text id="We_should_talk_to_HR._" data-name="We should talk to HR.
" transform="translate(0 10)" font-size="14" font-family="TrebuchetMS-Bold, Trebuchet MS" font-weight="700"><tspan x="0" y="0">We should talk to HR.</tspan><tspan font-family="TrebuchetMS-Bold"><tspan x="0" y="13"></tspan></tspan></text>
    </g>
    <g id="Group_19729" data-name="Group 19729" transform="translate(370.961 9210.518)">
      <g id="Group_19715" data-name="Group 19715" transform="translate(56.739 0)">
        <g id="Group_19709" data-name="Group 19709" transform="translate(0 26.313)">
          <path id="Path_30045" data-name="Path 30045" d="M2005.774,5711.694l1.139.321.558,2.788-2.488,1.18Z" transform="translate(-1991.277 -5695.85)" fill="#9999a5"/>
          <path id="Path_30046" data-name="Path 30046" d="M2009.486,5663.669l10.271-4.532,1.478,16.914-14.777,5.3Z" transform="translate(-1992.307 -5659.137)" fill="#9999a5"/>
          <path id="Path_30047" data-name="Path 30047" d="M1967.1,5840.824l20.236,4.9,2.943,29.748-17.55,1.844Z" transform="translate(-1964.818 -5786.048)" fill="#9999a5"/>
          <path id="Path_30048" data-name="Path 30048" d="M2003.691,5794.751c-12.681.449-27.684-3.338-35.071-17.454-4-7.639-4.766-20.6-5.78-33.418-1.355-17.141,16.368-40.825,31.924-36.693,21.62,5.743,9.438,34.425,7.4,41.919C1996.2,5771.062,2002.892,5789.995,2003.691,5794.751Z" transform="translate(-1961.789 -5692.368)" fill="#9999a5"/>
          <path id="Path_30049" data-name="Path 30049" d="M2024.191,5824.465c-.171-5.645,1.352-23.106,10.691-42.982,1.811-3.855,3.442-15.139,5.067-24.579.607-3.524,6.967,2.795,8.376,11.268.874,5.255-2.482,12.43-3.261,15.3-5.968,21.956.727,40.889,1.526,45.645C2039.257,5829.375,2031.154,5828.214,2024.191,5824.465Z" transform="translate(-2004.686 -5726.733)" fill="#9999a5"/>
          <path id="Path_30050" data-name="Path 30050" d="M1964.789,5759.958c.207-22.228,16.365-44.767,31.446-51.6,2.534-1.148.141-2.965-7.185-1.981C1982.5,5707.287,1956.646,5721.522,1964.789,5759.958Z" transform="translate(-1962.104 -5691.938)" fill="#9999a5"/>
          <path id="Path_30051" data-name="Path 30051" d="M1964.012,5746.067c1.737-18.749,8.293-28.831,24.167-39.034-6.389.886-31.508,10.643-25.2,46.768C1963.138,5754.722,1963.712,5749.309,1964.012,5746.067Z" transform="translate(-1961.232 -5692.593)" fill="#9999a5"/>
          <path id="Path_30052" data-name="Path 30052" d="M1978.683,5920.421c-.137-.774.185-1.48.721-1.575s1.081.455,1.219,1.231-.184,1.48-.72,1.575S1978.821,5921.2,1978.683,5920.421Z" transform="translate(-1972.884 -5840.541)" fill="#9999a5"/>
          <path id="Path_30053" data-name="Path 30053" d="M1973.263,5889.949c-.137-.775.185-1.48.72-1.576s1.081.457,1.219,1.231-.183,1.481-.719,1.576S1973.4,5890.724,1973.263,5889.949Z" transform="translate(-1969.098 -5819.254)" fill="#9999a5"/>
          <path id="Path_30054" data-name="Path 30054" d="M2009.375,5715.427l-3.755,1.478,1.157-4.206.707-.419Z" transform="translate(-1991.722 -5696.258)" fill="#9999a5"/>
          <path id="Path_30055" data-name="Path 30055" d="M1961.245,5768.06l.879-7.575s-4.37-23.334,12.106-35.816l-.232-.584C1960.472,5734.8,1956.96,5752.4,1961.245,5768.06Z" transform="translate(-1959.522 -5704.503)" fill="#9999a5"/>
          <path id="Path_30056" data-name="Path 30056" d="M2007.606,5700.956l14.816-4.635,2.031,2.925-13.974,6.374Z" transform="translate(-1993.11 -5685.11)" fill="#9999a5"/>
        </g>
        <g id="Group_19710" data-name="Group 19710" transform="translate(17.306 45.631)">
          <path id="Path_30057" data-name="Path 30057" d="M2049.753,5772.061c4.755.53,5.892-45.951.129-48.821,0,0-12.047-1.577-20.347,18.749C2029.535,5741.988,2035.63,5770.485,2049.753,5772.061Z" transform="translate(-2025.733 -5723.211)" fill="#9999a5"/>
          <path id="Path_30058" data-name="Path 30058" d="M2046.01,5815.6c-14.82-3.367-17.859-27.639-17.859-27.639a8.924,8.924,0,0,1,.949-1.939C2032.539,5804.589,2046.627,5815.74,2046.01,5815.6Z" transform="translate(-2024.767 -5767.085)" fill="#9999a5"/>
          <path id="Path_30059" data-name="Path 30059" d="M2043.03,5865.583s-2.394,9.1-19.335,33.057c0,0-3.252.125-6.77-4.334,0,0,2.522-20.232,11.45-32.351C2028.375,5861.955,2040.734,5860.374,2043.03,5865.583Z" transform="translate(-2016.924 -5819.968)" fill="#9999a5"/>
        </g>
        <g id="Group_19714" data-name="Group 19714" transform="translate(6.919)">
          <path id="Path_30060" data-name="Path 30060" d="M2011.289,5599.683c6.755-9.231,5.165-23.627,4.778-24.108-4.133-5.155-14.754-3.99-20.032-2.187-4.45,1.521-7.844,4.263-5.364,7.65.856,1.17,4.275-1.822,5.384-1.748,2.1.14,5.222,28.654,5.222,28.654Z" transform="translate(-1987.613 -5571.857)" fill="#9999a5"/>
          <g id="Group_19712" data-name="Group 19712" transform="translate(0 6.891)">
            <g id="Group_19711" data-name="Group 19711">
              <path id="Path_30061" data-name="Path 30061" d="M1992.023,5669.1l-1.184-1.745,1.4-.987Z" transform="translate(-1988.317 -5644.765)" fill="#9999a5"/>
              <path id="Path_30062" data-name="Path 30062" d="M2009.744,5619.424c-.723,2.475-7.915,8.073-15.35,8.147-1.367-9.6-1.884-25.548-.236-28.363,1.622-2.771,8.618-5.115,9.536-4.348-2.426,3.239,2.32,13.334,3.889,14.2C2011.406,5611.167,2010.5,5616.842,2009.744,5619.424Z" transform="translate(-1989.915 -5594.713)" fill="#9999a5"/>
              <path id="Path_30063" data-name="Path 30063" d="M1982.471,5649.723a68.488,68.488,0,0,0,3.206-8.341c.944-3.1,1.187,8.093,1.187,8.093S1983.6,5650.418,1982.471,5649.723Z" transform="translate(-1982.471 -5626.933)" fill="#9999a5"/>
              <path id="Path_30064" data-name="Path 30064" d="M1993.474,5698.252c-.766-.277-1.177-.967-.918-1.54a1.472,1.472,0,0,1,1.858-.537c.767.277,1.178.967.919,1.539A1.473,1.473,0,0,1,1993.474,5698.252Z" transform="translate(-1989.461 -5665.506)" fill="#9999a5"/>
              <path id="Path_30065" data-name="Path 30065" d="M1993.5,5686.556c-.036-.194.172-.4.466-.45s.56.058.6.251-.172.395-.465.45S1993.54,5686.75,1993.5,5686.556Z" transform="translate(-1990.175 -5658.542)" fill="#9999a5"/>
            </g>
            <path id="Path_30066" data-name="Path 30066" d="M2040.735,5637.511c.317-1.779,1.6-3.094,2.875-2.938s2.043,1.727,1.727,3.506-2.649,2.935-3.92,2.778S2040.419,5639.29,2040.735,5637.511Z" transform="translate(-2022.985 -5622.547)" fill="#9999a5"/>
          </g>
          <path id="Path_30067" data-name="Path 30067" d="M1994.6,5678.665l.3,2.444s1.032.221,1.25-.013a4.483,4.483,0,0,0,.685-2.183Z" transform="translate(-1990.946 -5646.464)" fill="#9999a5"/>
          <path id="Path_30068" data-name="Path 30068" d="M1994.831,5678.97l.266,2.171a2.8,2.8,0,0,0,.924.082,3.213,3.213,0,0,0,.657-2.063Z" transform="translate(-1991.105 -5646.677)" fill="#9999a5"/>
          <path id="Path_30069" data-name="Path 30069" d="M1995.115,5632.211a.957.957,0,0,1,.3-.608c.431-.38,3.67.929,3.569,1.62l-.064.433c-.073.5-1.019-.117-2-.339-.94-.211-1.922-.011-1.869-.481Z" transform="translate(-1991.253 -5613.543)" fill="#9999a5"/>
          <path id="Path_30070" data-name="Path 30070" d="M1999.75,5643.446c-.052-.582.224-1.112.616-1.187s.753.339.806.92-.223,1.112-.615,1.186S1999.8,5644.028,1999.75,5643.446Z" transform="translate(-1994.536 -5621.028)" fill="#9999a5"/>
          <path id="Path_30071" data-name="Path 30071" d="M2001.755,5679.261c-.018-.086.039-.143.129-.125a.267.267,0,0,1,.195.188c.019.086-.039.142-.128.125A.267.267,0,0,1,2001.755,5679.261Z" transform="translate(-1995.939 -5646.791)" fill="#9999a5"/>
          <g id="Group_19713" data-name="Group 19713" transform="translate(2.212 1.934)">
            <path id="Path_30072" data-name="Path 30072" d="M2027.753,5599.932c-3.194.451,2.838,14.626,1.282,15.782s.134,2.233.968,1.849c1.91-.882,1.967-5.009,1.92-7.632C2031.871,5607.01,2028.023,5599.894,2027.753,5599.932Z" transform="translate(-2015.651 -5593.402)" fill="#9999a5"/>
            <path id="Path_30073" data-name="Path 30073" d="M1989.953,5584.877c-.677-2.279,1.068-4.808,3.9-5.648s11.2-1.832,11.878.446-6.6,6.965-9.426,7.805S1990.629,5587.154,1989.953,5584.877Z" transform="translate(-1989.807 -5578.273)" fill="#9999a5"/>
          </g>
        </g>
      </g>
      <g id="Group_19722" data-name="Group 19722" transform="translate(0 3.161)">
        <g id="Group_19716" data-name="Group 19716" transform="translate(0 24.583)">
          <path id="Path_30074" data-name="Path 30074" d="M1814.533,5712.986l1.064.3.521,2.6-2.324,1.1Z" transform="translate(-1800.989 -5698.182)" fill="#03b4e9"/>
          <path id="Path_30075" data-name="Path 30075" d="M1818,5668.118l9.6-4.234,1.381,15.8-13.805,4.955Z" transform="translate(-1801.952 -5663.884)" fill="#03b4e9"/>
          <path id="Path_30076" data-name="Path 30076" d="M1778.406,5833.625l18.905,4.578,2.749,27.792-16.4,1.723Z" transform="translate(-1776.271 -5782.452)" fill="#03b4e9"/>
          <path id="Path_30077" data-name="Path 30077" d="M1812.588,5790.582c-11.847.419-25.863-3.119-32.765-16.306-3.734-7.137-4.453-19.242-5.4-31.221-1.265-16.014,15.292-38.141,29.825-34.281,20.2,5.365,8.817,32.162,6.915,39.163C1805.587,5768.45,1811.841,5786.138,1812.588,5790.582Z" transform="translate(-1773.441 -5694.931)" fill="#03b4e9"/>
          <path id="Path_30078" data-name="Path 30078" d="M1831.739,5818.343c-.16-5.274,1.263-21.586,9.988-40.156,1.692-3.6,3.216-14.144,4.734-22.962.567-3.292,6.508,2.61,7.825,10.526.817,4.91-2.319,11.613-3.047,14.293-5.576,20.512.679,38.2,1.425,42.644C1845.815,5822.93,1838.244,5821.845,1831.739,5818.343Z" transform="translate(-1813.516 -5727.037)" fill="#03b4e9"/>
          <path id="Path_30079" data-name="Path 30079" d="M1776.242,5758.076c.193-20.766,15.288-41.824,29.379-48.206,2.367-1.072.131-2.771-6.712-1.85C1792.787,5708.868,1768.635,5722.167,1776.242,5758.076Z" transform="translate(-1773.734 -5694.529)" fill="#03b4e9"/>
          <path id="Path_30080" data-name="Path 30080" d="M1775.517,5745.1c1.623-17.516,7.748-26.936,22.578-36.468-5.969.827-29.436,9.942-23.544,43.693C1774.7,5753.185,1775.236,5748.127,1775.517,5745.1Z" transform="translate(-1772.92 -5695.141)" fill="#03b4e9"/>
          <path id="Path_30081" data-name="Path 30081" d="M1789.224,5907.988c-.128-.724.172-1.383.673-1.472s1.01.426,1.138,1.151-.172,1.383-.672,1.472S1789.353,5908.712,1789.224,5907.988Z" transform="translate(-1783.806 -5833.359)" fill="#03b4e9"/>
          <path id="Path_30082" data-name="Path 30082" d="M1784.159,5879.52c-.128-.724.173-1.383.673-1.472s1.01.426,1.138,1.15-.171,1.384-.672,1.473S1784.288,5880.244,1784.159,5879.52Z" transform="translate(-1780.269 -5813.475)" fill="#03b4e9"/>
          <path id="Path_30083" data-name="Path 30083" d="M1817.9,5716.473l-3.508,1.38,1.081-3.929.66-.392Z" transform="translate(-1801.405 -5698.565)" fill="#03b4e9"/>
          <path id="Path_30084" data-name="Path 30084" d="M1772.932,5765.646l.821-7.077s-4.083-21.8,11.31-33.461l-.216-.546C1772.21,5734.571,1768.929,5751.016,1772.932,5765.646Z" transform="translate(-1771.323 -5706.268)" fill="#03b4e9"/>
          <path id="Path_30085" data-name="Path 30085" d="M1816.245,5702.954l13.842-4.33,1.9,2.732-13.056,5.955Z" transform="translate(-1802.701 -5688.15)" fill="#03b4e9"/>
        </g>
        <g id="Group_19717" data-name="Group 19717" transform="translate(16.167 42.63)">
          <path id="Path_30086" data-name="Path 30086" d="M1855.62,5769.383c4.443.5,5.5-42.93.12-45.611,0,0-11.255-1.474-19.009,17.515C1836.731,5741.288,1842.426,5767.911,1855.62,5769.383Z" transform="translate(-1833.179 -5723.746)" fill="#03b4e9"/>
          <path id="Path_30087" data-name="Path 30087" d="M1852.124,5810.06c-13.846-3.146-16.684-25.822-16.684-25.822a8.331,8.331,0,0,1,.887-1.812C1839.538,5799.773,1852.7,5810.19,1852.124,5810.06Z" transform="translate(-1832.277 -5764.735)" fill="#03b4e9"/>
          <path id="Path_30088" data-name="Path 30088" d="M1849.338,5856.757s-2.236,8.506-18.064,30.884c0,0-3.038.117-6.326-4.05,0,0,2.357-18.9,10.7-30.224C1835.647,5853.367,1847.194,5851.89,1849.338,5856.757Z" transform="translate(-1824.949 -5814.141)" fill="#03b4e9"/>
        </g>
        <g id="Group_19721" data-name="Group 19721" transform="translate(6.464)">
          <path id="Path_30089" data-name="Path 30089" d="M1819.686,5608.339c6.31-8.625,4.825-22.073,4.463-22.523-3.861-4.816-13.784-3.728-18.714-2.042-4.158,1.42-7.328,3.982-5.012,7.146.8,1.093,3.993-1.7,5.03-1.633,1.959.13,4.878,26.77,4.878,26.77Z" transform="translate(-1797.566 -5582.343)" fill="#03b4e9"/>
          <g id="Group_19719" data-name="Group 19719" transform="translate(0 6.437)">
            <g id="Group_19718" data-name="Group 19718">
              <path id="Path_30090" data-name="Path 30090" d="M1801.686,5673.192l-1.106-1.629,1.305-.922Z" transform="translate(-1798.223 -5650.458)" fill="#03b4e9"/>
              <path id="Path_30091" data-name="Path 30091" d="M1818.242,5626.782c-.676,2.312-7.394,7.543-14.341,7.612-1.277-8.971-1.76-23.868-.22-26.5,1.515-2.588,8.051-4.779,8.909-4.062-2.266,3.026,2.168,12.458,3.633,13.266C1819.794,5619.067,1818.947,5624.37,1818.242,5626.782Z" transform="translate(-1799.716 -5603.695)" fill="#03b4e9"/>
              <path id="Path_30092" data-name="Path 30092" d="M1792.762,5655.088a64,64,0,0,0,3-7.792c.882-2.9,1.109,7.561,1.109,7.561S1793.817,5655.739,1792.762,5655.088Z" transform="translate(-1792.762 -5633.797)" fill="#03b4e9"/>
              <path id="Path_30093" data-name="Path 30093" d="M1803.041,5700.428c-.716-.259-1.1-.9-.858-1.439a1.375,1.375,0,0,1,1.736-.5c.717.258,1.1.9.859,1.438A1.376,1.376,0,0,1,1803.041,5700.428Z" transform="translate(-1799.292 -5669.834)" fill="#03b4e9"/>
              <path id="Path_30094" data-name="Path 30094" d="M1803.069,5689.5c-.034-.181.161-.369.435-.42s.523.054.557.234-.161.369-.434.421S1803.1,5689.681,1803.069,5689.5Z" transform="translate(-1799.959 -5663.329)" fill="#03b4e9"/>
            </g>
            <path id="Path_30095" data-name="Path 30095" d="M1847.2,5643.681c.3-1.663,1.5-2.892,2.686-2.745s1.909,1.613,1.614,3.275-2.475,2.742-3.662,2.6S1846.9,5645.343,1847.2,5643.681Z" transform="translate(-1830.612 -5629.7)" fill="#03b4e9"/>
          </g>
          <path id="Path_30096" data-name="Path 30096" d="M1804.1,5682.128l.278,2.284s.965.206,1.168-.013a4.192,4.192,0,0,0,.64-2.04Z" transform="translate(-1800.679 -5652.045)" fill="#03b4e9"/>
          <path id="Path_30097" data-name="Path 30097" d="M1804.31,5682.414l.249,2.029a2.6,2.6,0,0,0,.863.076,3.006,3.006,0,0,0,.614-1.927Z" transform="translate(-1800.828 -5652.244)" fill="#03b4e9"/>
          <path id="Path_30098" data-name="Path 30098" d="M1804.575,5638.73a.9.9,0,0,1,.278-.569c.4-.355,3.429.868,3.334,1.514l-.06.4c-.068.465-.952-.109-1.87-.317-.878-.2-1.8-.01-1.747-.45Z" transform="translate(-1800.967 -5621.288)" fill="#03b4e9"/>
          <path id="Path_30099" data-name="Path 30099" d="M1808.9,5649.225c-.048-.544.209-1.04.576-1.108s.7.316.753.859-.208,1.04-.575,1.108S1808.954,5649.768,1808.9,5649.225Z" transform="translate(-1804.034 -5628.282)" fill="#03b4e9"/>
          <path id="Path_30100" data-name="Path 30100" d="M1810.779,5682.685c-.017-.081.036-.133.12-.116a.247.247,0,0,1,.182.175c.018.081-.036.132-.119.116A.25.25,0,0,1,1810.779,5682.685Z" transform="translate(-1805.345 -5652.35)" fill="#03b4e9"/>
          <g id="Group_19720" data-name="Group 19720" transform="translate(2.066 1.807)">
            <path id="Path_30101" data-name="Path 30101" d="M1835.066,5608.573c-2.984.421,2.652,13.664,1.2,14.744s.125,2.087.9,1.728c1.784-.824,1.837-4.68,1.794-7.13C1838.914,5615.186,1835.319,5608.537,1835.066,5608.573Z" transform="translate(-1823.76 -5602.473)" fill="#03b4e9"/>
            <path id="Path_30102" data-name="Path 30102" d="M1799.753,5594.507c-.633-2.129,1-4.492,3.641-5.277s10.465-1.711,11.1.417-6.162,6.508-8.806,7.292S1800.384,5596.635,1799.753,5594.507Z" transform="translate(-1799.616 -5588.337)" fill="#03b4e9"/>
          </g>
        </g>
      </g>
      <g id="Group_19728" data-name="Group 19728" transform="translate(29.017 11.731)">
        <g id="Group_19723" data-name="Group 19723" transform="translate(0 27.281)">
          <path id="Path_30103" data-name="Path 30103" d="M1928.741,5701.256l-6.707,4.214-1.2,14.5,5.389-1.949Z" transform="translate(-1904.773 -5701.256)" fill="#cfd0d8"/>
          <path id="Path_30104" data-name="Path 30104" d="M1870.888,5824.022c4.31-2.824,14.317-9.065,25.413-1.338-3.318-9.746-6.333-19.328-6.44-27.345-.2-14.861,12.432-32.318,1.981-39.037-11.1-7.134-24.274,25.81-24.274,25.81C1878.666,5788.354,1875.6,5806.249,1870.888,5824.022Z" transform="translate(-1867.569 -5739)" fill="#cfd0d8"/>
          <path id="Path_30105" data-name="Path 30105" d="M1920.844,5753.683l-1.949-.229-8.713,8.2,2.579,2.178S1918.608,5757.867,1920.844,5753.683Z" transform="translate(-1897.334 -5737.717)" fill="#cfd0d8"/>
          <path id="Path_30106" data-name="Path 30106" d="M1897.921,5763.555c-.042-.029-.081-.059-.122-.088,2.3-4.588,7.326-11.614,12.178-11.163C1905.56,5756.245,1897.921,5763.555,1897.921,5763.555Z" transform="translate(-1888.685 -5736.899)" fill="#cfd0d8"/>
        </g>
        <g id="Group_19725" data-name="Group 19725" transform="translate(12.45 48.164)">
          <g id="Group_19724" data-name="Group 19724" transform="translate(0 46.231)">
            <path id="Path_30107" data-name="Path 30107" d="M1915.1,5946.261c-.3-.393.354-1,1.183-1.567s1.521-.892,1.821-.5-.132,1.172-.963,1.742S1915.4,5946.652,1915.1,5946.261Z" transform="translate(-1913.17 -5937.946)" fill="#cfd0d8"/>
            <path id="Path_30108" data-name="Path 30108" d="M1919.011,5948.781c-.3-.392.352-1,1.183-1.567s1.521-.893,1.82-.5-.133,1.171-.963,1.743S1919.308,5949.172,1919.011,5948.781Z" transform="translate(-1915.901 -5939.705)" fill="#cfd0d8"/>
            <path id="Path_30109" data-name="Path 30109" d="M1908.964,5942.734c.352-.361,1.412.387,2.514,1.344s1.828,1.76,1.477,2.122-1.528-.124-2.63-1.083S1908.614,5943.094,1908.964,5942.734Z" transform="translate(-1908.866 -5936.981)" fill="#cfd0d8"/>
            <path id="Path_30110" data-name="Path 30110" d="M1915.858,5923.868c-1.723,1.3-7.454,4.972-6.215,6.931,1.109,1.752,4.94,2.28,7.843-5.692Z" transform="translate(-1909.287 -5923.868)" fill="#cfd0d8"/>
          </g>
          <path id="Path_30111" data-name="Path 30111" d="M1933.01,5881.561c4.162,2.862,17.11-15.374,17.164-16.449,0,0-2.268-3.1-3.233-2.279C1944.448,5864.949,1931.152,5880.281,1933.01,5881.561Z" transform="translate(-1925.607 -5834.907)" fill="#cfd0d8"/>
          <path id="Path_30112" data-name="Path 30112" d="M1950.992,5770.905c4.781-4.3,12.86,29.023,11.467,30.318,0,0-3.061,1.7-4.185.545C1954.879,5798.268,1948.858,5772.824,1950.992,5770.905Z" transform="translate(-1937.98 -5770.523)" fill="#cfd0d8"/>
          <path id="Path_30113" data-name="Path 30113" d="M1928.293,5914.759l-.865-1.185,1.924-5.421s1.964,1.725,2.116,2.348S1928.293,5914.759,1928.293,5914.759Z" transform="translate(-1921.832 -5866.661)" fill="#cfd0d8"/>
          <path id="Path_30114" data-name="Path 30114" d="M1929.988,5921.853l1.321.724,5.467-2.362a11.226,11.226,0,0,0-2.654-1.823C1933.457,5918.3,1929.988,5921.853,1929.988,5921.853Z" transform="translate(-1923.62 -5873.811)" fill="#cfd0d8"/>
        </g>
        <g id="Group_19727" data-name="Group 19727" transform="translate(6.067)">
          <path id="Path_30115" data-name="Path 30115" d="M1973.832,5611.156c2.651-1.181,5.935.415,7.337,3.564s.391,6.658-2.258,7.837-5.935-.415-7.337-3.564S1971.182,5612.336,1973.832,5611.156Z" transform="translate(-1945.843 -5610.767)" fill="#cfd0d8"/>
          <path id="Path_30116" data-name="Path 30116" d="M1967.052,5629.868c1.207-.444,2.8.859,3.556,2.913s.393,4.079-.813,4.524-2.8-.858-3.556-2.912S1965.846,5630.314,1967.052,5629.868Z" transform="translate(-1942.283 -5624.049)" fill="#cfd0d8"/>
          <g id="Group_19726" data-name="Group 19726" transform="translate(0 4.706)">
            <path id="Path_30117" data-name="Path 30117" d="M1913.087,5656.674c3.577-.981,10.778-2.127,14.248-7.528,4.511-7.021,3.365-11.364,1.861-16.648-2.866-10.073-20.047-5.356-18.973-2.389C1911.649,5634.051,1900.125,5660.232,1913.087,5656.674Z" transform="translate(-1901.081 -5626.376)" fill="#cfd0d8"/>
            <path id="Path_30118" data-name="Path 30118" d="M1896.594,5666.889c-1.3,0-3.637-6.738-4.332-11.906-.229-1.7,1.6-1.9,1.49-7.717-.068-3.414,1.508-8.137,7.223-11.526,5.4-3.2,5.8,7.391,6.257,9.837,1.317,6.97,3.1,11.347,1.309,14.719C1905.052,5666.88,1898,5666.552,1896.594,5666.889Z" transform="translate(-1890.87 -5632.499)" fill="#cfd0d8"/>
            <path id="Path_30119" data-name="Path 30119" d="M1906.254,5709.667a.3.3,0,0,0-.272-.326.316.316,0,0,0-.26.346.3.3,0,0,0,.273.326A.315.315,0,0,0,1906.254,5709.667Z" transform="translate(-1900.286 -5684.329)" fill="#cfd0d8"/>
            <path id="Path_30120" data-name="Path 30120" d="M1904.688,5678.25c-.031-.917-.568-1.634-1.2-1.6s-1.116.8-1.085,1.717.567,1.634,1.2,1.6S1904.719,5679.167,1904.688,5678.25Z" transform="translate(-1897.969 -5661.491)" fill="#cfd0d8"/>
            <path id="Path_30121" data-name="Path 30121" d="M1903.688,5678.111c-.882-1.268-2.141-2.534-4.54-1.693A8.771,8.771,0,0,1,1903.688,5678.111Z" transform="translate(-1895.694 -5661.141)" fill="#cfd0d8"/>
            <path id="Path_30122" data-name="Path 30122" d="M1898.2,5722.532c-.039-.213-.693.541-1,.567-.878.075-.627,1.195.248,1.031C1897.784,5724.065,1898.237,5722.757,1898.2,5722.532Z" transform="translate(-1893.947 -5693.516)" fill="#cfd0d8"/>
            <path id="Path_30123" data-name="Path 30123" d="M1897.772,5709.676c.595-.236-3.419-1.393-2.692-.031A6.3,6.3,0,0,0,1897.772,5709.676Z" transform="translate(-1892.791 -5684.085)" fill="#cfd0d8"/>
            <path id="Path_30124" data-name="Path 30124" d="M1899.634,5660.869a5.345,5.345,0,0,1,5.944,4.179C1904.171,5662.462,1902.953,5661.4,1899.634,5660.869Z" transform="translate(-1896.034 -5650.457)" fill="#cfd0d8"/>
            <path id="Path_30125" data-name="Path 30125" d="M1888.609,5690.427l2.018.618.073-5.154-3.008,3.669Z" transform="translate(-1887.691 -5667.948)" fill="#cfd0d8"/>
            <path id="Path_30126" data-name="Path 30126" d="M1891.327,5703.352l-1.569-3.191,1.515-.054Z" transform="translate(-1889.135 -5677.878)" fill="#cfd0d8"/>
            <path id="Path_30127" data-name="Path 30127" d="M1895.534,5715.008a38.022,38.022,0,0,1-1-4.474h3.645S1897.459,5714.393,1895.534,5715.008Z" transform="translate(-1892.474 -5685.163)" fill="#cfd0d8"/>
            <path id="Path_30128" data-name="Path 30128" d="M1897.569,5713.1h-2.076c-.12-.562-.231-1.149-.333-1.759h2.979Z" transform="translate(-1892.908 -5685.729)" fill="#cfd0d8"/>
            <path id="Path_30129" data-name="Path 30129" d="M1951.431,5686.981c-.082-1.59-.62-2.762.585-2.822s2.254,1.182,2.336,2.773-.833,2.929-2.041,2.989S1951.511,5688.572,1951.431,5686.981Z" transform="translate(-1932.081 -5666.737)" fill="#cfd0d8"/>
          </g>
          <path id="Path_30130" data-name="Path 30130" d="M1912.771,5634.353c3.828,5.785,10.535,14.241,8.922,22.483,3.393-8.775,1.879-20.48-3.943-25.3C1917.138,5632.417,1911.926,5632.151,1912.771,5634.353Z" transform="translate(-1905.146 -5625.275)" fill="#cfd0d8"/>
        </g>
      </g>
    </g>
    <g id="Group_19730" data-name="Group 19730" transform="translate(395.293 9313.38)">
      <rect id="Rectangle_7022" data-name="Rectangle 7022" width="56.952" height="29.199" rx="6.672" transform="translate(0 0)" fill="#fff" stroke="#231f20" stroke-miterlimit="10" stroke-width="0.25"/>
      <text id="HR" transform="translate(21.976 18.1)" fill="#2d356b" font-size="10" font-family="TrebuchetMS-Bold, Trebuchet MS" font-weight="700"><tspan x="0" y="0">HR</tspan></text>
    </g>
  </g>
</svg>
