<svg xmlns="http://www.w3.org/2000/svg" width="405.304" height="189.671" viewBox="0 0 405.304 189.671">
  <g id="Group_18764" data-name="Group 18764" transform="translate(0 5.801)">
    <g id="Group_18658" data-name="Group 18658" transform="translate(0 21.369)">
      <g id="Group_18656" data-name="Group 18656" transform="translate(0)">
        <g id="Group_18646" data-name="Group 18646" transform="translate(10.788)">
          <g id="Group_18645" data-name="Group 18645">
            <path id="Path_27851" data-name="Path 27851" d="M809.7,6709.73c-5.425-7.46,1.976-11.29,1.771-18.626s-6.568-5.291-7.182-14.781,5.193-11.77,5.649-17.245-6.96-7.172-3.608-13.922,8.565-6.442,11.466-11.8,10.845-8.054,15.082-5.332,9.834-6.187,17.227-.674,6.156,15.664,8.161,21.522,9.49,8.642,10.157,18.942-4.646,7.653-2.555,14.867,8.847,7.051,9.514,17.353c0,0,.4,10.319-10.506,9.119s-7.788,5.131-19.458.443-8.24,6.523-16.388,1.877S815.939,6718.31,809.7,6709.73Z" transform="translate(-804.243 -6625.511)" fill="#2d356b"/>
          </g>
        </g>
        <g id="Group_18648" data-name="Group 18648" transform="translate(53.267 70.326)">
          <g id="Group_18647" data-name="Group 18647" transform="translate(10.635 66.323)">
            <path id="Path_27852" data-name="Path 27852" d="M992.933,7120.064c-.416-.55.495-1.4,1.656-2.2s2.13-1.251,2.549-.7-.185,1.646-1.347,2.446S993.35,7120.614,992.933,7120.064Z" transform="translate(-990.23 -7108.391)" fill="#f7c371"/>
            <path id="Path_27853" data-name="Path 27853" d="M998.516,7123.675c-.417-.55.494-1.4,1.656-2.2s2.129-1.255,2.548-.7-.185,1.645-1.347,2.448S998.934,7124.225,998.516,7123.675Z" transform="translate(-994.163 -7110.933)" fill="#f7c371"/>
            <path id="Path_27854" data-name="Path 27854" d="M984.166,7115.072c.491-.5,1.977.545,3.519,1.888s2.56,2.472,2.068,2.98-2.139-.175-3.682-1.52S983.675,7115.579,984.166,7115.072Z" transform="translate(-984.027 -7106.998)" fill="#ffd8a3"/>
            <path id="Path_27855" data-name="Path 27855" d="M993.833,7088.048c-2.412,1.825-10.438,6.98-8.7,9.73,1.552,2.459,6.915,3.2,10.979-7.993Z" transform="translate(-984.633 -7088.048)" fill="#ffd8a3"/>
          </g>
          <path id="Path_27856" data-name="Path 27856" d="M948.153,6864.4c5.545-7.125,41.859,32.889,42.535,34.688,0,0-2.188,6.5-4.276,5.626C981.011,6902.468,945.678,6867.585,948.153,6864.4Z" transform="translate(-948.029 -6863.555)" fill="#54ccca"/>
          <path id="Path_27857" data-name="Path 27857" d="M1017.271,7012.113c-6.3-2.74,14.881-33.737,16.088-34.568,0,0,5.212.392,4.955,2.088C1037.649,6984.017,1020.084,7013.335,1017.271,7012.113Z" transform="translate(-995.992 -6943.869)" fill="#54ccca"/>
          <path id="Path_27858" data-name="Path 27858" d="M1016.547,7082.107l2.085.608,6.61-4.954s-3.388-1.812-4.333-1.733S1016.547,7082.107,1016.547,7082.107Z" transform="translate(-996.305 -7013.254)" fill="#eaeaea"/>
          <path id="Path_27859" data-name="Path 27859" d="M1012.99,7073.9l-1.668-1.412.574-8.248s3.413,1.841,3.868,2.675S1012.99,7073.9,1012.99,7073.9Z" transform="translate(-992.623 -7004.953)" fill="#eaeaea"/>
        </g>
        <g id="Group_18649" data-name="Group 18649" transform="translate(17.087 49.526)">
          <path id="Path_27860" data-name="Path 27860" d="M825.563,6929.047s11.032,9.771,22.065,13.437l5.746-12.418,5.287,12.418s14.913-4.2,20.915-13.437c-12.153-17.621-16.954-32.325-4.351-50.666,0,0-5.073-32.8-23.459-33.614s-21.663,34.964-21.663,34.964C842.053,6897.645,845.967,6905.425,825.563,6929.047Z" transform="translate(-825.563 -6829.508)" fill="#c3e8e6"/>
          <path id="Path_27861" data-name="Path 27861" d="M889.422,6860.123a11.137,11.137,0,0,1,7.123,2.569c1.864-4.24,3.108-9.456,1.778-14.779-11.193-8.416-18.091.874-18.091.874s-1.466,5.8,2.48,13.592A11.115,11.115,0,0,1,889.422,6860.123Z" transform="translate(-863.894 -6829.25)" fill="#fff"/>
          <path id="Path_27862" data-name="Path 27862" d="M891.329,6847.318s-1.862,9.338,6.6,19.473c0,0,7.2-9.863,5.164-20.2C895.815,6839.639,891.329,6847.318,891.329,6847.318Z" transform="translate(-871.777 -6828.752)" fill="#f7c371"/>
          <rect id="Rectangle_6631" data-name="Rectangle 6631" width="9.602" height="18" transform="translate(20.705)" fill="#f7c371"/>
          <path id="Path_27863" data-name="Path 27863" d="M923.23,6993.066a1.35,1.35,0,1,0-1.351,1.351A1.351,1.351,0,0,0,923.23,6993.066Z" transform="translate(-892.474 -6933.051)" fill="#fff"/>
          <path id="Path_27864" data-name="Path 27864" d="M923.23,7028.785a1.35,1.35,0,1,0-1.351,1.35A1.35,1.35,0,0,0,923.23,7028.785Z" transform="translate(-892.474 -6958.219)" fill="#fff"/>
          <path id="Path_27865" data-name="Path 27865" d="M923.23,7100.221a1.35,1.35,0,1,0-1.351,1.351A1.35,1.35,0,0,0,923.23,7100.221Z" transform="translate(-892.474 -7008.551)" fill="#fff"/>
          <path id="Path_27866" data-name="Path 27866" d="M923.23,7064.5a1.35,1.35,0,1,0-1.351,1.35A1.35,1.35,0,0,0,923.23,7064.5Z" transform="translate(-892.474 -6983.385)" fill="#fff"/>
        </g>
        <g id="Group_18651" data-name="Group 18651" transform="translate(0 70.649)">
          <path id="Path_27867" data-name="Path 27867" d="M797.862,6865.022c-7.43-5.126-30.032,43.954-30.135,45.874,0,0,4.04,5.538,5.77,4.08C777.971,6911.2,801.179,6867.311,797.862,6865.022Z" transform="translate(-767.727 -6864.647)" fill="#54ccca"/>
          <g id="Group_18650" data-name="Group 18650" transform="translate(26.867 67.295)">
            <path id="Path_27868" data-name="Path 27868" d="M858.669,7095.065c3.538,3.023,5.855,14.248,9.444,12.351,3.216-1.7,5.869-9.181-6.982-14.985Z" transform="translate(-858.669 -7092.431)" fill="#ffd9a4"/>
            <path id="Path_27869" data-name="Path 27869" d="M878.807,7106.594c-5.866,2.638-2.628,9.773-1.089,11.784,1.693,2.21,6.7,1.427,7.86-.459S881.051,7105.59,878.807,7106.594Z" transform="translate(-870.479 -7102.362)" fill="#ffd9a4"/>
            <path id="Path_27870" data-name="Path 27870" d="M892.174,7114.862c3.612,1.151,8.3.731,8.359-.719.075-1.635-3.883-.517-6.874-2.34-3.243-1.967-5.385-3.032-6.21-1.823S888.556,7113.713,892.174,7114.862Z" transform="translate(-878.813 -7104.435)" fill="#ffd9a4"/>
            <path id="Path_27871" data-name="Path 27871" d="M904.029,7132.445c1.989,2.568,3.618,3.454,4.238,2.847s-.6-2-2.585-4.568-3.869-6.326-4.491-5.72S902.05,7129.875,904.029,7132.445Z" transform="translate(-888.526 -7115.335)" fill="#ffd9a4"/>
            <path id="Path_27872" data-name="Path 27872" d="M896.3,7143.231c1.46,2.976,4.042,4.9,4.759,4.439s-1.274-2.87-2.734-5.844-2.566-4.823-3.282-4.361S894.846,7140.259,896.3,7143.231Z" transform="translate(-884.074 -7124.111)" fill="#ffd9a4"/>
            <path id="Path_27873" data-name="Path 27873" d="M881.534,7140.255c1.578,2.912,3.116,4.179,3.819,3.7s-.7-2.2-2.275-5.109-2.723-4.927-3.428-4.447S879.956,7137.343,881.534,7140.255Z" transform="translate(-873.291 -7121.951)" fill="#ffd9a4"/>
          </g>
          <path id="Path_27874" data-name="Path 27874" d="M798.691,7037.93c5.184-4.505-24.337-27.7-25.738-28.13,0,0-4.853,1.942-4.1,3.479C770.807,7017.261,796.376,7039.942,798.691,7037.93Z" transform="translate(-768.465 -6966.917)" fill="#54ccca"/>
          <path id="Path_27875" data-name="Path 27875" d="M851.11,7095.21l-1.806,1.208-7.794-2.737s2.686-2.748,3.611-2.957S851.11,7095.21,851.11,7095.21Z" transform="translate(-819.712 -7023.928)" fill="#eaeaea"/>
          <path id="Path_27876" data-name="Path 27876" d="M862.369,7083.608l1.166-1.849-3.027-7.693s-2.7,2.782-2.884,3.714S862.369,7083.608,862.369,7083.608Z" transform="translate(-831.062 -7012.197)" fill="#eaeaea"/>
        </g>
        <g id="Group_18652" data-name="Group 18652" transform="translate(25.153 15.403)">
          <path id="Path_27877" data-name="Path 27877" d="M874.733,6720.451c-5.963.387-20.445-15.041-16.2-35.43.86-4.121,5.109-6.736,13.43-7.274,9.152-.593,13.5,1.61,14.378,4.846C892.562,6705.469,880.835,6720.057,874.733,6720.451Z" transform="translate(-856.32 -6677.65)" fill="#ffd8a3"/>
          <path id="Path_27878" data-name="Path 27878" d="M916.22,6710.776c1.968-.82,6.359-2.064,9.809,2.877C922.983,6710.846,920.883,6709.989,916.22,6710.776Z" transform="translate(-897.503 -6700.448)" fill="#2d356b"/>
          <path id="Path_27879" data-name="Path 27879" d="M874.989,6713.129c-2.052-.536-6.547-1.155-9.279,4.217C868.332,6714.144,870.286,6713,874.989,6713.129Z" transform="translate(-861.915 -6702.406)" fill="#2d356b"/>
          <path id="Path_27880" data-name="Path 27880" d="M933.073,6733.758c-.123-1.133-.937-1.973-1.817-1.875a1.878,1.878,0,0,0-1.376,2.225c.123,1.135.937,1.973,1.818,1.876A1.878,1.878,0,0,0,933.073,6733.758Z" transform="translate(-907.116 -6715.855)" fill="#2d356b"/>
          <path id="Path_27881" data-name="Path 27881" d="M928.122,6731.828c-1.8-.987-4.095-1.779-6.785.411A13.808,13.808,0,0,1,928.122,6731.828Z" transform="translate(-901.108 -6715.125)" fill="#2d356b"/>
          <path id="Path_27882" data-name="Path 27882" d="M883.625,6736.953a1.656,1.656,0,1,1,1.65,2.028A1.875,1.875,0,0,1,883.625,6736.953Z" transform="translate(-874.537 -6717.956)" fill="#2d356b"/>
          <path id="Path_27883" data-name="Path 27883" d="M873.957,6736.622c1.459-1.448,3.444-2.841,6.633-1.477A13.772,13.772,0,0,0,873.957,6736.622Z" transform="translate(-867.726 -6717.767)" fill="#2d356b"/>
          <path id="Path_27884" data-name="Path 27884" d="M905.408,6752.781a4.375,4.375,0,0,0,1.834.625,2.547,2.547,0,0,0,1.733-.93c.047-.5-1.611-5.894-2.077-5.914S905.328,6752.07,905.408,6752.781Z" transform="translate(-889.882 -6726.203)" fill="#ffab00"/>
          <path id="Path_27885" data-name="Path 27885" d="M908.379,6749.9c.01.111.549.252.736.241.32-.021.695-.209.7-.409,0-.481-.1-5.94-1.058-5.825C907.7,6744.025,908.321,6749.2,908.379,6749.9Z" transform="translate(-891.813 -6724.328)" fill="#ffd8a3"/>
          <path id="Path_27886" data-name="Path 27886" d="M911.825,6798.614c-.043-.665-.773-.553-1.718-.491s-1.75.048-1.707.712.844,1.152,1.79,1.091S911.868,6799.277,911.825,6798.614Z" transform="translate(-891.992 -6762.498)" fill="#f36973"/>
          <path id="Path_27887" data-name="Path 27887" d="M908.212,6777.467c-2.074-.948-2.67.078-3.133.108-.589.039-1.244-.918-3.207.3-.564.35,1.5,1.109,3.248,1S908.818,6777.742,908.212,6777.467Z" transform="translate(-887.327 -6747.695)" fill="#f36973"/>
          <path id="Path_27888" data-name="Path 27888" d="M897.21,6778.881l9.208-.6s-.805,6.706-4.175,6.923S897.21,6778.881,897.21,6778.881Z" transform="translate(-884.109 -6748.553)" fill="#ffab00"/>
          <path id="Path_27889" data-name="Path 27889" d="M907.26,6779.573l-7.93.513,1.046,2.639,6.186-.4Z" transform="translate(-885.603 -6749.462)" fill="#fff"/>
          <path id="Path_27890" data-name="Path 27890" d="M927.92,6776.891a.47.47,0,1,0-.428.57A.508.508,0,0,0,927.92,6776.891Z" transform="translate(-905.093 -6747.211)" fill="#ffab00"/>
          <path id="Path_27891" data-name="Path 27891" d="M896.308,6778.938a.47.47,0,1,0-.428.57A.507.507,0,0,0,896.308,6778.938Z" transform="translate(-882.819 -6748.654)" fill="#ffab00"/>
          <path id="Path_27892" data-name="Path 27892" d="M855.274,6751.114c-.366-1.3-.261-2.376-1.217-2.105s-1.436,1.54-1.069,2.836,1.438,2.127,2.394,1.856S855.641,6752.409,855.274,6751.114Z" transform="translate(-852.865 -6727.896)" fill="#f7c371"/>
          <path id="Path_27893" data-name="Path 27893" d="M959.327,6744.469c.164-1.335-.116-2.39.9-2.264a2.211,2.211,0,0,1,1.544,2.651c-.163,1.335-1.12,2.317-2.136,2.194S959.164,6745.81,959.327,6744.469Z" transform="translate(-927.669 -6723.125)" fill="#f7c371"/>
        </g>
        <g id="Group_18655" data-name="Group 18655" transform="translate(24.53 10.856)">
          <g id="Group_18654" data-name="Group 18654" transform="translate(12.087)">
            <path id="Path_27894" data-name="Path 27894" d="M912.005,6675.761c-5.374-1.654-18.849-6.362-20.333-13.01,0,0,13.138-2.537,16.581,3.878C912.6,6674.729,912.005,6675.761,912.005,6675.761Z" transform="translate(-891.672 -6662.256)" fill="#2d356b"/>
            <g id="Group_18653" data-name="Group 18653" transform="translate(1.111 2.763)">
              <path id="Path_27895" data-name="Path 27895" d="M905.732,6680.791c1.255,1.595,8.5,6.78,13.417,8.242S905.732,6680.791,905.732,6680.791Z" transform="translate(-902.689 -6678.078)" fill="#2d356b"/>
              <path id="Path_27896" data-name="Path 27896" d="M895.432,6671.609a25.112,25.112,0,0,0,5.813,7.908C903.739,6681.515,895.432,6671.609,895.432,6671.609Z" transform="translate(-895.432 -6671.609)" fill="#2d356b"/>
            </g>
          </g>
          <path id="Path_27897" data-name="Path 27897" d="M850.82,6689.955c4.068-2.265,14.2-8.5,14.6-15.273,0,0-10.706-.993-12.688,5.774C850.228,6689,850.82,6689.955,850.82,6689.955Z" transform="translate(-850.759 -6670.975)" fill="#2d356b"/>
        </g>
      </g>
    </g>
    <g id="Group_18660" data-name="Group 18660" transform="translate(72.591 0.95)">
      <g id="Group_18659" data-name="Group 18659">
        <path id="Path_27898" data-name="Path 27898" d="M1160.972,6658.211c-12.1,16.394-7.994,36.007,10.457,45.543,19.6,10.131,48.126,5.139,64.541-11.061,8.9,10.9,23.712,20.2,41.7,24.933,33.166,8.731,64.57-1.352,70.142-22.521a26.886,26.886,0,0,0,.142-12.841c27.365,11.4,45.77,4.417,57.035-18.935,8.313-17.231-1.467-50.263-41.945-60.917-5.161-1.358-10.261-2.437-15.244-3.25.211-.579,2.264-3.764,1.106-9.854-5.032-26.464-37.285-34.156-72.548-32.755-29.694,1.179-46.929,15.93-56.15,30,0,0-77.446-37.6-102.178,19.375C1118.033,6605.931,1092.791,6655.767,1160.972,6658.211Z" transform="translate(-1083.914 -6556.396)" fill="#fff" stroke="#ebebeb" stroke-miterlimit="10" stroke-width="4"/>
        <ellipse id="Ellipse_406" data-name="Ellipse 406" cx="10.132" cy="10.132" rx="10.132" ry="10.132" transform="translate(23.364 34.648)" fill="#fff" stroke="#ebebeb" stroke-miterlimit="10" stroke-width="4"/>
        <ellipse id="Ellipse_407" data-name="Ellipse 407" cx="6.004" cy="6.004" rx="6.004" ry="6.004" transform="translate(13.52 36.203)" fill="#fff" stroke="#ebebeb" stroke-miterlimit="10" stroke-width="4"/>
        <ellipse id="Ellipse_408" data-name="Ellipse 408" cx="5.136" cy="5.136" rx="5.136" ry="5.136" transform="translate(0 40.662)" fill="#fff" stroke="#ebebeb" stroke-miterlimit="10" stroke-width="4"/>
      </g>
    </g>
    <g id="Group_18666" data-name="Group 18666" transform="translate(316.532 53.677)">
      <g id="Group_18661" data-name="Group 18661" transform="translate(0 26.734)">
        <path id="Path_27899" data-name="Path 27899" d="M1900.161,6825.357l-6.572,4.129-1.18,14.212,5.281-1.91Z" transform="translate(-1876.674 -6825.357)" fill="#2d356b"/>
        <path id="Path_27900" data-name="Path 27900" d="M1842.4,6946.745c4.224-2.769,14.03-8.884,24.9-1.311-3.252-9.551-6.206-18.942-6.311-26.8-.195-14.564,12.183-31.67,1.941-38.254-10.874-6.99-23.787,25.292-23.787,25.292C1850.022,6911.791,1847.013,6929.328,1842.4,6946.745Z" transform="translate(-1839.148 -6863.428)" fill="#2d356b"/>
        <path id="Path_27901" data-name="Path 27901" d="M1892.208,6877.778l-1.91-.225-8.539,8.033,2.528,2.134S1890.017,6881.878,1892.208,6877.778Z" transform="translate(-1869.17 -6862.132)" fill="#2d356b"/>
        <path id="Path_27902" data-name="Path 27902" d="M1869.5,6887.428c-.041-.029-.078-.058-.119-.086,2.253-4.5,7.178-11.381,11.933-10.939C1876.983,6880.265,1869.5,6887.428,1869.5,6887.428Z" transform="translate(-1860.447 -6861.308)" fill="#2d356b"/>
      </g>
      <g id="Group_18663" data-name="Group 18663" transform="translate(12.2 47.197)">
        <g id="Group_18662" data-name="Group 18662" transform="translate(0 45.303)">
          <path id="Path_27903" data-name="Path 27903" d="M1886.677,7070.316c-.291-.385.347-.977,1.159-1.536s1.491-.874,1.784-.49-.129,1.149-.943,1.707S1886.969,7070.7,1886.677,7070.316Z" transform="translate(-1884.785 -7062.168)" fill="#2d356b"/>
          <path id="Path_27904" data-name="Path 27904" d="M1890.587,7072.836c-.292-.384.345-.976,1.159-1.536s1.491-.875,1.783-.491-.13,1.147-.943,1.708S1890.879,7073.219,1890.587,7072.836Z" transform="translate(-1887.54 -7063.943)" fill="#2d356b"/>
          <path id="Path_27905" data-name="Path 27905" d="M1880.541,7066.833c.345-.354,1.384.379,2.464,1.317s1.792,1.725,1.448,2.079-1.5-.121-2.577-1.061S1880.2,7067.186,1880.541,7066.833Z" transform="translate(-1880.444 -7061.196)" fill="#2d356b"/>
          <path id="Path_27906" data-name="Path 27906" d="M1887.308,7047.969c-1.688,1.274-7.3,4.872-6.091,6.791,1.087,1.716,4.841,2.234,7.686-5.579Z" transform="translate(-1880.869 -7047.969)" fill="#2d356b"/>
        </g>
        <path id="Path_27907" data-name="Path 27907" d="M1904.586,7005.282c4.078,2.806,16.766-15.065,16.82-16.119,0,0-2.223-3.034-3.168-2.232C1915.794,6989,1902.764,7004.03,1904.586,7005.282Z" transform="translate(-1897.331 -6959.565)" fill="#2d356b"/>
        <path id="Path_27908" data-name="Path 27908" d="M1922.562,6895c4.685-4.212,12.6,28.442,11.237,29.709,0,0-3,1.669-4.1.534C1926.371,6921.811,1920.47,6896.878,1922.562,6895Z" transform="translate(-1909.81 -6894.623)" fill="#2d356b"/>
        <path id="Path_27909" data-name="Path 27909" d="M1899.853,7038.728l-.847-1.162,1.886-5.312s1.924,1.692,2.073,2.3S1899.853,7038.728,1899.853,7038.728Z" transform="translate(-1893.522 -6991.593)" fill="#2d356b"/>
        <path id="Path_27910" data-name="Path 27910" d="M1901.567,7045.884l1.294.709,5.357-2.314a10.985,10.985,0,0,0-2.6-1.787C1904.967,7042.405,1901.567,7045.884,1901.567,7045.884Z" transform="translate(-1895.326 -6998.807)" fill="#2d356b"/>
      </g>
      <g id="Group_18665" data-name="Group 18665" transform="translate(5.945)">
        <path id="Path_27911" data-name="Path 27911" d="M1945.352,6735.249c2.6-1.158,5.816.406,7.19,3.493s.384,6.525-2.213,7.68-5.816-.407-7.19-3.494S1942.755,6736.4,1945.352,6735.249Z" transform="translate(-1917.925 -6734.867)" fill="#2d356b"/>
        <path id="Path_27912" data-name="Path 27912" d="M1938.607,6753.967c1.182-.436,2.742.842,3.485,2.854s.385,4-.8,4.433-2.742-.842-3.485-2.854S1937.425,6754.4,1938.607,6753.967Z" transform="translate(-1914.334 -6748.265)" fill="#2d356b"/>
        <g id="Group_18664" data-name="Group 18664" transform="translate(0 4.612)">
          <path id="Path_27913" data-name="Path 27913" d="M1884.54,6780.167c3.5-.962,10.562-2.084,13.962-7.376,4.42-6.881,3.3-11.137,1.824-16.314-2.809-9.872-19.645-5.249-18.592-2.341C1883.131,6758,1871.838,6783.653,1884.54,6780.167Z" transform="translate(-1872.775 -6750.477)" fill="#2d356b"/>
          <path id="Path_27914" data-name="Path 27914" d="M1868.085,6790.353c-1.278,0-3.564-6.6-4.246-11.667-.225-1.67,1.573-1.867,1.46-7.563-.066-3.344,1.478-7.973,7.078-11.294,5.287-3.135,5.679,7.242,6.132,9.641,1.29,6.829,3.034,11.118,1.283,14.422C1876.373,6790.344,1869.466,6790.022,1868.085,6790.353Z" transform="translate(-1862.476 -6756.653)" fill="#2d356b"/>
          <path id="Path_27915" data-name="Path 27915" d="M1877.821,6833.762a.293.293,0,0,0-.266-.32.31.31,0,0,0-.255.339.3.3,0,0,0,.267.319A.308.308,0,0,0,1877.821,6833.762Z" transform="translate(-1871.974 -6808.932)" fill="#2d356b"/>
          <path id="Path_27916" data-name="Path 27916" d="M1876.219,6802.318c-.03-.9-.556-1.6-1.172-1.57s-1.094.784-1.064,1.682.556,1.6,1.173,1.57S1876.25,6803.217,1876.219,6802.318Z" transform="translate(-1869.636 -6785.895)" fill="#2d356b"/>
          <path id="Path_27917" data-name="Path 27917" d="M1875.176,6802.171c-.865-1.243-2.1-2.481-4.449-1.66A8.6,8.6,0,0,1,1875.176,6802.171Z" transform="translate(-1867.342 -6785.542)" fill="#2d356b"/>
          <path id="Path_27918" data-name="Path 27918" d="M1869.745,6846.631c-.038-.209-.679.53-.984.556-.86.073-.615,1.17.244,1.009C1869.34,6848.134,1869.784,6846.852,1869.745,6846.631Z" transform="translate(-1865.58 -6818.198)" fill="#2d356b"/>
          <path id="Path_27919" data-name="Path 27919" d="M1869.295,6833.763c.583-.231-3.351-1.364-2.638-.031A6.157,6.157,0,0,0,1869.295,6833.763Z" transform="translate(-1864.413 -6808.687)" fill="#2d356b"/>
          <path id="Path_27920" data-name="Path 27920" d="M1871.213,6784.969a5.239,5.239,0,0,1,5.826,4.095C1875.658,6786.531,1874.465,6785.495,1871.213,6784.969Z" transform="translate(-1867.685 -6774.766)" fill="#2d356b"/>
          <path id="Path_27921" data-name="Path 27921" d="M1860.169,6814.436l1.977.606.071-5.051-2.947,3.595Z" transform="translate(-1859.27 -6792.408)" fill="#2d356b"/>
          <path id="Path_27922" data-name="Path 27922" d="M1862.874,6827.387l-1.537-3.128,1.484-.052Z" transform="translate(-1860.726 -6802.424)" fill="#2d356b"/>
          <path id="Path_27923" data-name="Path 27923" d="M1867.092,6839.019a37.293,37.293,0,0,1-.975-4.385h3.571S1868.979,6838.415,1867.092,6839.019Z" transform="translate(-1864.094 -6809.771)" fill="#2d356b"/>
          <path id="Path_27924" data-name="Path 27924" d="M1869.1,6837.169h-2.034c-.118-.55-.227-1.126-.327-1.723h2.919Z" transform="translate(-1864.531 -6810.344)" fill="#2d356b"/>
          <path id="Path_27925" data-name="Path 27925" d="M1923.006,6811.024c-.081-1.558-.608-2.707.574-2.765s2.209,1.158,2.289,2.717-.816,2.87-2,2.93S1923.084,6812.584,1923.006,6811.024Z" transform="translate(-1904.045 -6791.188)" fill="#2d356b"/>
        </g>
        <path id="Path_27926" data-name="Path 27926" d="M1884.349,6758.4c3.751,5.668,10.323,13.956,8.742,22.032,3.325-8.6,1.842-20.068-3.863-24.792C1888.627,6756.5,1883.52,6756.238,1884.349,6758.4Z" transform="translate(-1876.875 -6749.499)" fill="#2d356b"/>
      </g>
    </g>
    <g id="Group_18669" data-name="Group 18669" transform="translate(122.176 -5.676)">
      <g id="Group_18668" data-name="Group 18668" transform="translate(0 0)">
        <g id="Group_18667" data-name="Group 18667">
          <rect id="Rectangle_6633" data-name="Rectangle 6633" width="283.003" height="52.102" rx="11.604" fill="#fff" stroke="#231f20" stroke-miterlimit="10" stroke-width="0.25"/>
          <path id="Path_27927" data-name="Path 27927" d="M1384.277,6749.854l29.2,13.426-16.1-13.426Z" transform="translate(-1324.304 -6697.748)" fill="#fff" stroke="#231f20" stroke-miterlimit="10" stroke-width="0.25"/>
        </g>
      </g>
      <text id="We_will_let_you_know_tomorrow._" data-name="We will let you know tomorrow.
" transform="translate(18.309 31.179)" font-size="15" font-family="TrebuchetMS-Bold, Trebuchet MS" font-weight="700"><tspan x="0" y="0">We will let you know tomorrow.</tspan><tspan font-family="TrebuchetMS-Bold"><tspan x="0" y="11"></tspan></tspan></text>
    </g>
    <g id="Group_18676" data-name="Group 18676" transform="translate(283.825 44.82)">
      <g id="Group_18670" data-name="Group 18670" transform="translate(0 25.785)">
        <path id="Path_27928" data-name="Path 27928" d="M1774.673,6844.725l1.116.315.547,2.732-2.438,1.155Z" transform="translate(-1760.468 -6829.198)" fill="#cfd0d8"/>
        <path id="Path_27929" data-name="Path 27929" d="M1778.341,6796.609l10.064-4.44,1.448,16.574-14.48,5.2Z" transform="translate(-1761.507 -6792.168)" fill="#cfd0d8"/>
        <path id="Path_27930" data-name="Path 27930" d="M1736.02,6973.855l19.83,4.8,2.884,29.152-17.2,1.808Z" transform="translate(-1733.78 -6920.178)" fill="#cfd0d8"/>
        <path id="Path_27931" data-name="Path 27931" d="M1771.786,6926.017c-12.426.438-27.128-3.273-34.367-17.1-3.916-7.487-4.67-20.182-5.664-32.747-1.327-16.8,16.04-40.006,31.283-35.958,21.186,5.627,9.249,33.735,7.253,41.078C1764.443,6902.8,1771,6921.354,1771.786,6926.017Z" transform="translate(-1730.724 -6825.687)" fill="#cfd0d8"/>
        <path id="Path_27932" data-name="Path 27932" d="M1793.106,6956.121c-.168-5.531,1.324-22.642,10.477-42.119,1.775-3.778,3.373-14.835,4.965-24.084.594-3.454,6.827,2.737,8.207,11.04.857,5.151-2.432,12.18-3.2,14.991-5.848,21.515.712,40.069,1.5,44.73C1807.871,6960.934,1799.93,6959.8,1793.106,6956.121Z" transform="translate(-1773.992 -6860.353)" fill="#cfd0d8"/>
        <path id="Path_27933" data-name="Path 27933" d="M1733.672,6891.909c.2-21.782,16.036-43.869,30.815-50.563,2.483-1.124.138-2.907-7.04-1.941C1751.027,6840.295,1725.693,6854.243,1733.672,6891.909Z" transform="translate(-1731.042 -6825.253)" fill="#cfd0d8"/>
        <path id="Path_27934" data-name="Path 27934" d="M1732.886,6878.315c1.7-18.372,8.127-28.252,23.681-38.25-6.261.868-30.876,10.429-24.7,45.829C1732.029,6886.8,1732.592,6881.492,1732.886,6878.315Z" transform="translate(-1730.162 -6825.915)" fill="#cfd0d8"/>
        <path id="Path_27935" data-name="Path 27935" d="M1747.6,7053.42c-.134-.759.181-1.451.706-1.545s1.06.447,1.194,1.208-.181,1.45-.705,1.543S1747.733,7054.18,1747.6,7053.42Z" transform="translate(-1741.915 -6975.142)" fill="#cfd0d8"/>
        <path id="Path_27936" data-name="Path 27936" d="M1742.178,7022.948c-.135-.759.181-1.451.705-1.544s1.059.447,1.194,1.207-.18,1.451-.7,1.543S1742.313,7023.708,1742.178,7022.948Z" transform="translate(-1738.097 -6953.672)" fill="#cfd0d8"/>
        <path id="Path_27937" data-name="Path 27937" d="M1778.215,6848.4l-3.68,1.447,1.134-4.12.693-.411Z" transform="translate(-1760.916 -6829.611)" fill="#cfd0d8"/>
        <path id="Path_27938" data-name="Path 27938" d="M1730.126,6900.209l.861-7.423s-4.283-22.867,11.863-35.1l-.227-.573C1729.369,6867.615,1725.927,6884.864,1730.126,6900.209Z" transform="translate(-1728.438 -6837.928)" fill="#cfd0d8"/>
        <path id="Path_27939" data-name="Path 27939" d="M1776.521,6833.9l14.519-4.542,1.991,2.866-13.694,6.246Z" transform="translate(-1762.316 -6818.367)" fill="#cfd0d8"/>
      </g>
      <g id="Group_18671" data-name="Group 18671" transform="translate(16.958 44.715)">
        <path id="Path_27940" data-name="Path 27940" d="M1818.262,6904.113c4.66.519,5.772-45.029.126-47.842,0,0-11.806-1.545-19.939,18.372C1798.45,6874.643,1804.423,6902.569,1818.262,6904.113Z" transform="translate(-1794.724 -6856.243)" fill="#cfd0d8"/>
        <path id="Path_27941" data-name="Path 27941" d="M1814.568,6948.037c-14.523-3.3-17.5-27.083-17.5-27.083a8.729,8.729,0,0,1,.93-1.9C1801.367,6937.249,1815.172,6948.176,1814.568,6948.037Z" transform="translate(-1793.751 -6900.496)" fill="#cfd0d8"/>
        <path id="Path_27942" data-name="Path 27942" d="M1811.421,6998.538s-2.346,8.922-18.947,32.393c0,0-3.186.124-6.635-4.248,0,0,2.472-19.825,11.221-31.7C1797.06,6994.982,1809.172,6993.433,1811.421,6998.538Z" transform="translate(-1785.839 -6953.838)" fill="#cfd0d8"/>
      </g>
      <g id="Group_18675" data-name="Group 18675" transform="translate(6.78)">
        <path id="Path_27943" data-name="Path 27943" d="M1779.774,6732.156c6.619-9.046,5.061-23.153,4.682-23.625-4.05-5.052-14.458-3.91-19.63-2.141-4.361,1.49-7.687,4.176-5.257,7.5.839,1.147,4.189-1.785,5.276-1.713,2.055.137,5.117,28.079,5.117,28.079Z" transform="translate(-1756.573 -6704.889)" fill="#cfd0d8"/>
        <g id="Group_18673" data-name="Group 18673" transform="translate(0 6.752)">
          <g id="Group_18672" data-name="Group 18672">
            <path id="Path_27944" data-name="Path 27944" d="M1760.915,6802.075l-1.16-1.709,1.37-.968Z" transform="translate(-1757.282 -6778.229)" fill="#cfd0d8"/>
            <path id="Path_27945" data-name="Path 27945" d="M1778.326,6751.958c-.709,2.425-7.756,7.912-15.042,7.985-1.339-9.41-1.847-25.036-.231-27.8,1.589-2.715,8.445-5.012,9.344-4.26-2.378,3.173,2.274,13.067,3.811,13.914C1779.954,6743.866,1779.066,6749.429,1778.326,6751.958Z" transform="translate(-1758.895 -6727.743)" fill="#cfd0d8"/>
            <path id="Path_27946" data-name="Path 27946" d="M1751.386,6782.576a67.122,67.122,0,0,0,3.142-8.174c.925-3.04,1.163,7.931,1.163,7.931S1752.492,6783.258,1751.386,6782.576Z" transform="translate(-1751.386 -6760.243)" fill="#cfd0d8"/>
            <path id="Path_27947" data-name="Path 27947" d="M1762.369,6831.24c-.751-.272-1.154-.948-.9-1.509a1.441,1.441,0,0,1,1.821-.526c.752.271,1.155.947.9,1.508A1.444,1.444,0,0,1,1762.369,6831.24Z" transform="translate(-1758.437 -6799.15)" fill="#cfd0d8"/>
            <path id="Path_27948" data-name="Path 27948" d="M1762.419,6819.578c-.036-.19.169-.388.456-.442s.548.057.584.246-.169.387-.456.441S1762.455,6819.768,1762.419,6819.578Z" transform="translate(-1759.157 -6792.126)" fill="#cfd0d8"/>
          </g>
          <path id="Path_27949" data-name="Path 27949" d="M1809.646,6770.483c.311-1.744,1.571-3.033,2.817-2.879s2,1.692,1.693,3.435-2.6,2.876-3.841,2.723S1809.336,6772.227,1809.646,6770.483Z" transform="translate(-1792.251 -6755.82)" fill="#cfd0d8"/>
        </g>
        <path id="Path_27950" data-name="Path 27950" d="M1763.518,6811.7l.292,2.4s1.012.215,1.225-.014a4.393,4.393,0,0,0,.672-2.139Z" transform="translate(-1759.934 -6780.141)" fill="#cfd0d8"/>
        <path id="Path_27951" data-name="Path 27951" d="M1763.747,6812l.261,2.128a2.708,2.708,0,0,0,.906.08,3.147,3.147,0,0,0,.644-2.021Z" transform="translate(-1760.095 -6780.357)" fill="#cfd0d8"/>
        <path id="Path_27952" data-name="Path 27952" d="M1764.028,6765.23a.934.934,0,0,1,.291-.6c.423-.373,3.6.91,3.5,1.586l-.063.424c-.072.487-1-.115-1.962-.333-.921-.207-1.883-.01-1.832-.472Z" transform="translate(-1760.244 -6746.936)" fill="#cfd0d8"/>
        <path id="Path_27953" data-name="Path 27953" d="M1768.664,6776.454c-.051-.571.219-1.09.6-1.162s.738.331.79.9-.219,1.091-.6,1.162S1768.717,6777.022,1768.664,6776.454Z" transform="translate(-1763.555 -6754.487)" fill="#cfd0d8"/>
        <path id="Path_27954" data-name="Path 27954" d="M1770.671,6812.29c-.018-.084.038-.139.126-.121a.259.259,0,0,1,.191.184c.018.084-.038.139-.125.122A.261.261,0,0,1,1770.671,6812.29Z" transform="translate(-1764.971 -6780.473)" fill="#cfd0d8"/>
        <g id="Group_18674" data-name="Group 18674" transform="translate(2.167 1.896)">
          <path id="Path_27955" data-name="Path 27955" d="M1796.65,6732.964c-3.13.442,2.78,14.332,1.256,15.465s.131,2.188.949,1.812c1.872-.864,1.928-4.909,1.882-7.478C1800.685,6739.9,1796.914,6732.926,1796.65,6732.964Z" transform="translate(-1784.79 -6726.565)" fill="#cfd0d8"/>
          <path id="Path_27956" data-name="Path 27956" d="M1758.865,6717.776c-.663-2.234,1.047-4.711,3.819-5.536s10.977-1.794,11.64.438-6.464,6.826-9.237,7.648S1759.528,6720.009,1758.865,6717.776Z" transform="translate(-1758.722 -6711.305)" fill="#cfd0d8"/>
        </g>
      </g>
    </g>
    <g id="Group_18684" data-name="Group 18684" transform="translate(262.936 49.562)">
      <g id="Group_18678" data-name="Group 18678" transform="translate(0 24.09)">
        <path id="Path_27957" data-name="Path 27957" d="M1700.928,6851.582l1.043.294.511,2.553-2.278,1.08Z" transform="translate(-1687.657 -6837.076)" fill="#40558e"/>
        <path id="Path_27958" data-name="Path 27958" d="M1704.355,6806.63l9.4-4.148,1.353,15.484-13.528,4.855Z" transform="translate(-1688.628 -6802.481)" fill="#40558e"/>
        <path id="Path_27959" data-name="Path 27959" d="M1664.817,6972.221l18.526,4.485,2.694,27.234-16.067,1.688Z" transform="translate(-1662.724 -6922.074)" fill="#40558e"/>
        <path id="Path_27960" data-name="Path 27960" d="M1698.231,6927.527c-11.609.411-25.344-3.057-32.108-15.978-3.659-6.994-4.363-18.856-5.291-30.595-1.24-15.692,14.985-37.375,29.226-33.593,19.793,5.257,8.641,31.517,6.776,38.377C1691.371,6905.84,1697.5,6923.173,1698.231,6927.527Z" transform="translate(-1659.87 -6833.795)" fill="#40558e"/>
        <path id="Path_27961" data-name="Path 27961" d="M1718.149,6955.653c-.156-5.168,1.237-21.154,9.788-39.35,1.658-3.531,3.151-13.859,4.639-22.5.555-3.227,6.378,2.559,7.668,10.316.8,4.812-2.273,11.379-2.986,14.006-5.464,20.1.665,37.434,1.4,41.788C1731.943,6960.148,1724.524,6959.085,1718.149,6955.653Z" transform="translate(-1700.293 -6866.18)" fill="#40558e"/>
        <path id="Path_27962" data-name="Path 27962" d="M1662.623,6895.664c.189-20.35,14.982-40.985,28.789-47.239,2.32-1.05.129-2.715-6.577-1.813C1678.836,6847.442,1655.168,6860.476,1662.623,6895.664Z" transform="translate(-1660.166 -6833.392)" fill="#40558e"/>
        <path id="Path_27963" data-name="Path 27963" d="M1661.889,6882.963c1.59-17.165,7.593-26.395,22.124-35.736-5.849.811-28.846,9.744-23.072,42.816C1661.089,6890.886,1661.615,6885.932,1661.889,6882.963Z" transform="translate(-1659.344 -6834.008)" fill="#40558e"/>
        <path id="Path_27964" data-name="Path 27964" d="M1675.633,7046.556c-.126-.708.169-1.356.66-1.443s.989.418,1.115,1.128-.168,1.355-.659,1.442S1675.76,7047.265,1675.633,7046.556Z" transform="translate(-1670.324 -6973.425)" fill="#40558e"/>
        <path id="Path_27965" data-name="Path 27965" d="M1670.57,7018.087c-.126-.709.169-1.355.659-1.444s.99.419,1.116,1.128-.168,1.355-.659,1.442S1670.7,7018.8,1670.57,7018.087Z" transform="translate(-1666.757 -6953.366)" fill="#40558e"/>
        <path id="Path_27966" data-name="Path 27966" d="M1704.237,6855.011l-3.437,1.352,1.059-3.849.647-.384Z" transform="translate(-1688.077 -6837.461)" fill="#40558e"/>
        <path id="Path_27967" data-name="Path 27967" d="M1659.31,6903.418l.8-6.935s-4-21.363,11.083-32.791l-.212-.535C1658.6,6872.967,1655.388,6889.082,1659.31,6903.418Z" transform="translate(-1657.734 -6845.232)" fill="#40558e"/>
        <path id="Path_27968" data-name="Path 27968" d="M1702.655,6841.463l13.564-4.243,1.86,2.678-12.794,5.836Z" transform="translate(-1689.384 -6826.957)" fill="#40558e"/>
      </g>
      <g id="Group_18679" data-name="Group 18679" transform="translate(15.843 41.775)">
        <path id="Path_27969" data-name="Path 27969" d="M1741.651,6907.064c4.353.485,5.394-42.069.118-44.695,0,0-11.029-1.445-18.628,17.164C1723.142,6879.533,1728.722,6905.622,1741.651,6907.064Z" transform="translate(-1719.661 -6862.343)" fill="#40558e"/>
        <path id="Path_27970" data-name="Path 27970" d="M1738.2,6948.1c-13.568-3.083-16.349-25.3-16.349-25.3a8.139,8.139,0,0,1,.869-1.776C1725.867,6938.021,1738.764,6948.228,1738.2,6948.1Z" transform="translate(-1718.752 -6903.687)" fill="#40558e"/>
        <path id="Path_27971" data-name="Path 27971" d="M1735.26,6995.282s-2.191,8.334-17.7,30.264c0,0-2.977.114-6.2-3.969,0,0,2.31-18.521,10.483-29.616C1721.844,6991.96,1733.159,6990.512,1735.26,6995.282Z" transform="translate(-1711.36 -6953.521)" fill="#40558e"/>
      </g>
      <g id="Group_18683" data-name="Group 18683" transform="translate(6.334)">
        <path id="Path_27972" data-name="Path 27972" d="M1705.694,6746.415c6.184-8.451,4.728-21.63,4.374-22.072-3.784-4.719-13.507-3.652-18.339-2-4.075,1.392-7.181,3.9-4.911,7,.784,1.071,3.914-1.667,4.929-1.6,1.92.127,4.78,26.232,4.78,26.232Z" transform="translate(-1684.018 -6720.94)" fill="#40558e"/>
        <g id="Group_18681" data-name="Group 18681" transform="translate(0 6.308)">
          <g id="Group_18680" data-name="Group 18680">
            <path id="Path_27973" data-name="Path 27973" d="M1688.074,6811.738l-1.083-1.6,1.279-.9Z" transform="translate(-1684.681 -6789.459)" fill="#40558e"/>
            <path id="Path_27974" data-name="Path 27974" d="M1704.341,6764.915c-.662,2.267-7.245,7.392-14.053,7.46-1.251-8.792-1.725-23.39-.216-25.967,1.485-2.536,7.89-4.684,8.73-3.981-2.221,2.966,2.124,12.208,3.561,13C1705.863,6757.355,1705.032,6762.552,1704.341,6764.915Z" transform="translate(-1686.188 -6742.292)" fill="#40558e"/>
            <path id="Path_27975" data-name="Path 27975" d="M1679.173,6793.519a62.805,62.805,0,0,0,2.935-7.637c.864-2.839,1.086,7.41,1.086,7.41S1680.206,6794.155,1679.173,6793.519Z" transform="translate(-1679.173 -6772.653)" fill="#40558e"/>
            <path id="Path_27976" data-name="Path 27976" d="M1689.434,6838.982c-.7-.253-1.078-.884-.841-1.408a1.348,1.348,0,0,1,1.7-.493c.7.253,1.079.886.841,1.409A1.347,1.347,0,0,1,1689.434,6838.982Z" transform="translate(-1685.76 -6809.004)" fill="#40558e"/>
            <path id="Path_27977" data-name="Path 27977" d="M1689.48,6828.089c-.033-.177.157-.361.426-.412s.513.053.546.229-.158.362-.426.413S1689.513,6828.266,1689.48,6828.089Z" transform="translate(-1686.432 -6802.443)" fill="#40558e"/>
          </g>
          <path id="Path_27978" data-name="Path 27978" d="M1733.6,6782.222c.29-1.629,1.468-2.835,2.632-2.69s1.871,1.581,1.581,3.209-2.425,2.687-3.589,2.544S1733.312,6783.851,1733.6,6782.222Z" transform="translate(-1717.351 -6768.521)" fill="#40558e"/>
        </g>
        <path id="Path_27979" data-name="Path 27979" d="M1690.507,6820.726l.273,2.237s.945.2,1.145-.012a4.1,4.1,0,0,0,.627-2Z" transform="translate(-1687.158 -6791.246)" fill="#40558e"/>
        <path id="Path_27980" data-name="Path 27980" d="M1690.721,6821.009l.244,1.988a2.579,2.579,0,0,0,.846.076,2.946,2.946,0,0,0,.6-1.889Z" transform="translate(-1687.309 -6791.445)" fill="#40558e"/>
        <path id="Path_27981" data-name="Path 27981" d="M1690.984,6777.313a.876.876,0,0,1,.272-.558c.395-.348,3.36.85,3.268,1.483l-.059.4c-.067.455-.933-.108-1.833-.311-.861-.194-1.76-.01-1.711-.44Z" transform="translate(-1687.449 -6760.222)" fill="#40558e"/>
        <path id="Path_27982" data-name="Path 27982" d="M1695.315,6787.8c-.047-.533.2-1.021.564-1.088s.689.31.738.843-.2,1.018-.563,1.085S1695.364,6788.332,1695.315,6787.8Z" transform="translate(-1690.542 -6767.274)" fill="#40558e"/>
        <path id="Path_27983" data-name="Path 27983" d="M1697.189,6821.279c-.017-.079.036-.13.118-.114a.244.244,0,0,1,.179.172c.017.079-.035.13-.117.114A.245.245,0,0,1,1697.189,6821.279Z" transform="translate(-1691.864 -6791.553)" fill="#40558e"/>
        <g id="Group_18682" data-name="Group 18682" transform="translate(2.025 1.771)">
          <path id="Path_27984" data-name="Path 27984" d="M1721.459,6747.168c-2.924.414,2.6,13.39,1.174,14.449s.123,2.045.886,1.692c1.749-.807,1.8-4.586,1.758-6.987C1725.229,6753.649,1721.707,6747.133,1721.459,6747.168Z" transform="translate(-1710.38 -6741.19)" fill="#40558e"/>
          <path id="Path_27985" data-name="Path 27985" d="M1686.16,6732.98c-.62-2.086.978-4.4,3.568-5.171s10.256-1.677,10.875.408-6.039,6.377-8.63,7.146S1686.779,6735.066,1686.16,6732.98Z" transform="translate(-1686.026 -6726.934)" fill="#40558e"/>
        </g>
      </g>
    </g>
    <g id="Group_18691" data-name="Group 18691" transform="translate(207.561 49.723)">
      <g id="Group_18685" data-name="Group 18685" transform="translate(0 24.09)">
        <path id="Path_27986" data-name="Path 27986" d="M1513.49,6852.127l1.043.294.511,2.553-2.278,1.079Z" transform="translate(-1500.219 -6837.622)" fill="#7b88ac"/>
        <path id="Path_27987" data-name="Path 27987" d="M1516.917,6807.174l9.4-4.148,1.353,15.485-13.528,4.855Z" transform="translate(-1501.189 -6803.026)" fill="#7b88ac"/>
        <path id="Path_27988" data-name="Path 27988" d="M1477.378,6972.768l18.526,4.485,2.694,27.234-16.067,1.689Z" transform="translate(-1475.286 -6922.62)" fill="#7b88ac"/>
        <path id="Path_27989" data-name="Path 27989" d="M1510.793,6928.073c-11.61.411-25.345-3.056-32.108-15.979-3.659-6.993-4.363-18.856-5.292-30.594-1.24-15.692,14.985-37.375,29.226-33.592,19.793,5.256,8.641,31.516,6.776,38.376C1503.932,6906.385,1510.061,6923.719,1510.793,6928.073Z" transform="translate(-1472.431 -6834.342)" fill="#7b88ac"/>
        <path id="Path_27990" data-name="Path 27990" d="M1530.711,6956.2c-.157-5.167,1.237-21.153,9.787-39.35,1.658-3.529,3.152-13.86,4.639-22.5.555-3.226,6.378,2.558,7.668,10.315.8,4.812-2.272,11.38-2.986,14.006-5.464,20.1.665,37.435,1.4,41.789C1544.5,6960.694,1537.086,6959.631,1530.711,6956.2Z" transform="translate(-1512.854 -6866.726)" fill="#7b88ac"/>
        <path id="Path_27991" data-name="Path 27991" d="M1475.185,6896.208c.189-20.35,14.982-40.984,28.789-47.238,2.32-1.051.129-2.715-6.577-1.813C1491.4,6847.988,1467.73,6861.021,1475.185,6896.208Z" transform="translate(-1472.727 -6833.937)" fill="#7b88ac"/>
        <path id="Path_27992" data-name="Path 27992" d="M1474.45,6883.511c1.59-17.165,7.592-26.4,22.125-35.736-5.849.811-28.845,9.744-23.072,42.816C1473.65,6891.433,1474.176,6886.478,1474.45,6883.511Z" transform="translate(-1471.906 -6834.555)" fill="#7b88ac"/>
        <path id="Path_27993" data-name="Path 27993" d="M1488.195,7047.1c-.126-.709.169-1.355.659-1.442s.99.417,1.116,1.127-.168,1.354-.659,1.442S1488.321,7047.812,1488.195,7047.1Z" transform="translate(-1482.886 -6973.972)" fill="#7b88ac"/>
        <path id="Path_27994" data-name="Path 27994" d="M1483.131,7018.633c-.126-.708.169-1.355.659-1.443s.989.417,1.116,1.127-.168,1.356-.659,1.444S1483.257,7019.343,1483.131,7018.633Z" transform="translate(-1479.318 -6953.913)" fill="#7b88ac"/>
        <path id="Path_27995" data-name="Path 27995" d="M1516.8,6855.557l-3.438,1.352,1.059-3.85.648-.384Z" transform="translate(-1500.638 -6838.008)" fill="#7b88ac"/>
        <path id="Path_27996" data-name="Path 27996" d="M1471.871,6903.964l.8-6.935s-4-21.362,11.083-32.79l-.212-.536C1471.165,6873.513,1467.949,6889.626,1471.871,6903.964Z" transform="translate(-1470.295 -6845.778)" fill="#7b88ac"/>
        <path id="Path_27997" data-name="Path 27997" d="M1515.217,6842.009l13.564-4.244,1.86,2.678-12.793,5.836Z" transform="translate(-1501.945 -6827.503)" fill="#7b88ac"/>
      </g>
      <g id="Group_18686" data-name="Group 18686" transform="translate(15.843 41.775)">
        <path id="Path_27998" data-name="Path 27998" d="M1554.213,6907.61c4.353.485,5.393-42.069.118-44.7,0,0-11.03-1.444-18.628,17.164C1535.7,6880.078,1541.284,6906.167,1554.213,6907.61Z" transform="translate(-1532.223 -6862.888)" fill="#7b88ac"/>
        <path id="Path_27999" data-name="Path 27999" d="M1550.761,6948.647c-13.568-3.082-16.35-25.3-16.35-25.3a8.164,8.164,0,0,1,.869-1.775C1538.428,6938.568,1551.325,6948.775,1550.761,6948.647Z" transform="translate(-1531.313 -6904.233)" fill="#7b88ac"/>
        <path id="Path_28000" data-name="Path 28000" d="M1547.821,6995.827s-2.191,8.333-17.7,30.263c0,0-2.977.115-6.2-3.968,0,0,2.309-18.522,10.483-29.618C1534.405,6992.5,1545.72,6991.057,1547.821,6995.827Z" transform="translate(-1523.922 -6954.066)" fill="#7b88ac"/>
      </g>
      <g id="Group_18690" data-name="Group 18690" transform="translate(6.334)">
        <path id="Path_28001" data-name="Path 28001" d="M1518.255,6746.96c6.184-8.451,4.728-21.629,4.374-22.072-3.784-4.72-13.507-3.652-18.339-2-4.074,1.393-7.182,3.9-4.911,7,.784,1.072,3.913-1.667,4.929-1.6,1.92.127,4.78,26.233,4.78,26.233Z" transform="translate(-1496.58 -6721.485)" fill="#7b88ac"/>
        <g id="Group_18688" data-name="Group 18688" transform="translate(0 6.308)">
          <g id="Group_18687" data-name="Group 18687">
            <path id="Path_28002" data-name="Path 28002" d="M1500.636,6812.282l-1.083-1.6,1.279-.9Z" transform="translate(-1497.243 -6790.004)" fill="#7b88ac"/>
            <path id="Path_28003" data-name="Path 28003" d="M1516.9,6765.462c-.662,2.265-7.246,7.392-14.054,7.459-1.251-8.791-1.725-23.39-.216-25.966,1.485-2.537,7.89-4.683,8.73-3.981-2.221,2.966,2.124,12.209,3.561,13C1518.424,6757.9,1517.594,6763.1,1516.9,6765.462Z" transform="translate(-1498.749 -6742.838)" fill="#7b88ac"/>
            <path id="Path_28004" data-name="Path 28004" d="M1491.734,6794.064a62.663,62.663,0,0,0,2.935-7.635c.865-2.839,1.087,7.408,1.087,7.408S1492.768,6794.7,1491.734,6794.064Z" transform="translate(-1491.734 -6773.2)" fill="#7b88ac"/>
            <path id="Path_28005" data-name="Path 28005" d="M1501.995,6839.529c-.7-.253-1.078-.885-.841-1.41a1.35,1.35,0,0,1,1.7-.492c.7.253,1.079.886.842,1.411A1.347,1.347,0,0,1,1501.995,6839.529Z" transform="translate(-1498.321 -6809.55)" fill="#7b88ac"/>
            <path id="Path_28006" data-name="Path 28006" d="M1502.041,6828.634c-.033-.177.158-.362.427-.412s.512.052.546.229-.158.362-.425.413S1502.075,6828.812,1502.041,6828.634Z" transform="translate(-1498.993 -6802.989)" fill="#7b88ac"/>
          </g>
          <path id="Path_28007" data-name="Path 28007" d="M1546.163,6782.768c.291-1.629,1.469-2.834,2.632-2.69s1.871,1.581,1.582,3.209-2.426,2.687-3.589,2.544S1545.873,6784.4,1546.163,6782.768Z" transform="translate(-1529.912 -6769.067)" fill="#7b88ac"/>
        </g>
        <path id="Path_28008" data-name="Path 28008" d="M1503.068,6821.271l.272,2.237s.946.2,1.145-.012a4.1,4.1,0,0,0,.627-2Z" transform="translate(-1499.72 -6791.791)" fill="#7b88ac"/>
        <path id="Path_28009" data-name="Path 28009" d="M1503.282,6821.557l.243,1.988a2.551,2.551,0,0,0,.846.073,2.939,2.939,0,0,0,.6-1.888Z" transform="translate(-1499.87 -6791.993)" fill="#7b88ac"/>
        <path id="Path_28010" data-name="Path 28010" d="M1503.545,6777.859a.875.875,0,0,1,.272-.557c.395-.348,3.36.85,3.268,1.483l-.059.4c-.067.457-.932-.106-1.832-.31-.861-.194-1.76-.011-1.712-.441Z" transform="translate(-1500.01 -6760.769)" fill="#7b88ac"/>
        <path id="Path_28011" data-name="Path 28011" d="M1507.876,6788.345c-.047-.532.2-1.018.564-1.086s.69.311.738.843-.2,1.019-.563,1.086S1507.925,6788.877,1507.876,6788.345Z" transform="translate(-1503.103 -6767.82)" fill="#7b88ac"/>
        <path id="Path_28012" data-name="Path 28012" d="M1509.751,6821.826c-.017-.08.036-.129.118-.114a.245.245,0,0,1,.178.172c.017.079-.035.13-.117.115A.246.246,0,0,1,1509.751,6821.826Z" transform="translate(-1504.426 -6792.101)" fill="#7b88ac"/>
        <g id="Group_18689" data-name="Group 18689" transform="translate(2.025 1.771)">
          <path id="Path_28013" data-name="Path 28013" d="M1534.021,6747.714c-2.924.413,2.6,13.39,1.174,14.448s.123,2.045.886,1.693c1.748-.807,1.8-4.586,1.758-6.986C1537.791,6754.2,1534.268,6747.68,1534.021,6747.714Z" transform="translate(-1522.942 -6741.736)" fill="#7b88ac"/>
          <path id="Path_28014" data-name="Path 28014" d="M1498.722,6733.525c-.62-2.085.978-4.4,3.568-5.171s10.255-1.677,10.874.409-6.039,6.376-8.63,7.145S1499.341,6735.612,1498.722,6733.525Z" transform="translate(-1498.588 -6727.48)" fill="#7b88ac"/>
        </g>
      </g>
    </g>
    <g id="Group_18697" data-name="Group 18697" transform="translate(234.502 61.456)">
      <g id="Group_18692" data-name="Group 18692" transform="translate(0 26.734)">
        <path id="Path_28015" data-name="Path 28015" d="M1622.5,6851.689l-6.573,4.128-1.18,14.213,5.281-1.91Z" transform="translate(-1599.013 -6851.689)" fill="#ebebeb"/>
        <path id="Path_28016" data-name="Path 28016" d="M1564.74,6973.076c4.224-2.768,14.029-8.884,24.9-1.312-3.252-9.551-6.206-18.941-6.311-26.8-.195-14.564,12.183-31.669,1.941-38.254-10.874-6.991-23.787,25.292-23.787,25.292C1572.361,6938.123,1569.353,6955.659,1564.74,6973.076Z" transform="translate(-1561.487 -6889.759)" fill="#ebebeb"/>
        <path id="Path_28017" data-name="Path 28017" d="M1614.548,6904.109l-1.91-.224-8.539,8.033,2.528,2.134S1612.357,6908.21,1614.548,6904.109Z" transform="translate(-1591.51 -6888.464)" fill="#ebebeb"/>
        <path id="Path_28018" data-name="Path 28018" d="M1591.837,6913.762c-.041-.029-.079-.058-.12-.087,2.254-4.5,7.178-11.38,11.934-10.938C1599.322,6906.6,1591.837,6913.762,1591.837,6913.762Z" transform="translate(-1582.786 -6887.641)" fill="#ebebeb"/>
      </g>
      <g id="Group_18694" data-name="Group 18694" transform="translate(12.2 47.197)">
        <g id="Group_18693" data-name="Group 18693" transform="translate(0 45.303)">
          <path id="Path_28019" data-name="Path 28019" d="M1609.017,7096.648c-.291-.385.347-.977,1.159-1.536s1.491-.875,1.784-.489-.13,1.147-.943,1.706S1609.309,7097.032,1609.017,7096.648Z" transform="translate(-1607.125 -7088.5)" fill="#ebebeb"/>
          <path id="Path_28020" data-name="Path 28020" d="M1612.927,7099.169c-.292-.384.345-.977,1.159-1.536s1.49-.875,1.784-.491-.13,1.149-.943,1.708S1613.219,7099.552,1612.927,7099.169Z" transform="translate(-1609.88 -7090.275)" fill="#ebebeb"/>
          <path id="Path_28021" data-name="Path 28021" d="M1602.881,7093.164c.344-.353,1.383.38,2.463,1.318s1.792,1.725,1.448,2.08-1.5-.123-2.577-1.062S1602.538,7093.518,1602.881,7093.164Z" transform="translate(-1602.784 -7087.527)" fill="#ebebeb"/>
          <path id="Path_28022" data-name="Path 28022" d="M1609.648,7074.3c-1.688,1.275-7.3,4.874-6.091,6.792,1.087,1.718,4.841,2.234,7.686-5.578Z" transform="translate(-1603.209 -7074.3)" fill="#ebebeb"/>
        </g>
        <path id="Path_28023" data-name="Path 28023" d="M1626.925,7031.614c4.078,2.805,16.767-15.065,16.82-16.119,0,0-2.222-3.035-3.168-2.233C1638.134,7015.336,1625.1,7030.361,1626.925,7031.614Z" transform="translate(-1619.671 -6985.897)" fill="#ebebeb"/>
        <path id="Path_28024" data-name="Path 28024" d="M1644.9,6921.329c4.685-4.211,12.6,28.441,11.236,29.71,0,0-3,1.669-4.1.533C1648.711,6948.143,1642.81,6923.209,1644.9,6921.329Z" transform="translate(-1632.15 -6920.955)" fill="#ebebeb"/>
        <path id="Path_28025" data-name="Path 28025" d="M1622.193,7065.059l-.847-1.161,1.885-5.313s1.924,1.692,2.074,2.3S1622.193,7065.059,1622.193,7065.059Z" transform="translate(-1615.862 -7017.925)" fill="#ebebeb"/>
        <path id="Path_28026" data-name="Path 28026" d="M1623.906,7072.216l1.294.709,5.357-2.314a10.985,10.985,0,0,0-2.6-1.786C1627.305,7068.736,1623.906,7072.216,1623.906,7072.216Z" transform="translate(-1617.666 -7025.138)" fill="#ebebeb"/>
      </g>
      <g id="Group_18696" data-name="Group 18696" transform="translate(5.945)">
        <path id="Path_28027" data-name="Path 28027" d="M1667.692,6761.579c2.6-1.157,5.816.407,7.19,3.493s.383,6.524-2.213,7.681-5.816-.408-7.19-3.494S1665.1,6762.734,1667.692,6761.579Z" transform="translate(-1640.265 -6761.198)" fill="#ebebeb"/>
        <path id="Path_28028" data-name="Path 28028" d="M1660.946,6780.3c1.182-.437,2.743.842,3.485,2.854s.385,4-.8,4.432-2.742-.841-3.485-2.854S1659.764,6780.735,1660.946,6780.3Z" transform="translate(-1636.674 -6774.597)" fill="#ebebeb"/>
        <g id="Group_18695" data-name="Group 18695" transform="translate(0 4.612)">
          <path id="Path_28029" data-name="Path 28029" d="M1606.88,6806.5c3.5-.963,10.562-2.084,13.962-7.377,4.42-6.88,3.3-11.136,1.824-16.314-2.809-9.871-19.645-5.249-18.593-2.34C1605.471,6784.328,1594.178,6809.985,1606.88,6806.5Z" transform="translate(-1595.114 -6776.808)" fill="#ebebeb"/>
          <path id="Path_28030" data-name="Path 28030" d="M1590.425,6816.684c-1.278,0-3.564-6.6-4.245-11.668-.225-1.669,1.573-1.866,1.46-7.562-.066-3.344,1.478-7.973,7.078-11.292,5.287-3.137,5.679,7.241,6.132,9.638,1.29,6.83,3.034,11.119,1.283,14.423C1598.713,6816.676,1591.806,6816.354,1590.425,6816.684Z" transform="translate(-1584.816 -6782.986)" fill="#ebebeb"/>
          <path id="Path_28031" data-name="Path 28031" d="M1600.161,6860.094a.3.3,0,0,0-.266-.321.312.312,0,0,0-.256.34.294.294,0,0,0,.268.319A.307.307,0,0,0,1600.161,6860.094Z" transform="translate(-1594.313 -6835.263)" fill="#ebebeb"/>
          <path id="Path_28032" data-name="Path 28032" d="M1598.56,6828.65c-.031-.9-.557-1.6-1.173-1.57s-1.094.785-1.063,1.683.555,1.6,1.172,1.57S1598.59,6829.549,1598.56,6828.65Z" transform="translate(-1591.976 -6812.227)" fill="#ebebeb"/>
          <path id="Path_28033" data-name="Path 28033" d="M1597.515,6828.5c-.864-1.243-2.1-2.483-4.449-1.66A8.589,8.589,0,0,1,1597.515,6828.5Z" transform="translate(-1589.682 -6811.875)" fill="#ebebeb"/>
          <path id="Path_28034" data-name="Path 28034" d="M1592.084,6872.963c-.038-.208-.679.53-.983.556-.861.073-.615,1.17.243,1.009C1591.679,6874.465,1592.124,6873.184,1592.084,6872.963Z" transform="translate(-1587.919 -6844.53)" fill="#ebebeb"/>
          <path id="Path_28035" data-name="Path 28035" d="M1591.635,6860.095c.582-.232-3.351-1.365-2.639-.03A6.19,6.19,0,0,0,1591.635,6860.095Z" transform="translate(-1586.753 -6835.019)" fill="#ebebeb"/>
          <path id="Path_28036" data-name="Path 28036" d="M1593.552,6811.3a5.238,5.238,0,0,1,5.825,4.095C1598,6812.862,1596.8,6811.827,1593.552,6811.3Z" transform="translate(-1590.024 -6801.098)" fill="#ebebeb"/>
          <path id="Path_28037" data-name="Path 28037" d="M1582.508,6840.768l1.977.6.071-5.051-2.947,3.6Z" transform="translate(-1581.609 -6818.74)" fill="#ebebeb"/>
          <path id="Path_28038" data-name="Path 28038" d="M1585.214,6853.72l-1.537-3.127,1.484-.053Z" transform="translate(-1583.066 -6828.756)" fill="#ebebeb"/>
          <path id="Path_28039" data-name="Path 28039" d="M1589.432,6865.35a37.338,37.338,0,0,1-.976-4.384h3.572S1591.319,6864.747,1589.432,6865.35Z" transform="translate(-1586.433 -6836.102)" fill="#ebebeb"/>
          <path id="Path_28040" data-name="Path 28040" d="M1591.439,6863.5H1589.4q-.177-.828-.327-1.725H1592Z" transform="translate(-1586.871 -6836.674)" fill="#ebebeb"/>
          <path id="Path_28041" data-name="Path 28041" d="M1645.346,6837.356c-.08-1.559-.608-2.706.574-2.765s2.209,1.156,2.289,2.717-.816,2.869-2,2.929S1645.425,6838.916,1645.346,6837.356Z" transform="translate(-1626.385 -6817.52)" fill="#ebebeb"/>
        </g>
        <path id="Path_28042" data-name="Path 28042" d="M1606.688,6784.728c3.751,5.667,10.324,13.955,8.742,22.031,3.325-8.6,1.841-20.07-3.863-24.792C1610.966,6782.83,1605.859,6782.57,1606.688,6784.728Z" transform="translate(-1599.215 -6775.832)" fill="#ebebeb"/>
      </g>
    </g>
    <g id="Group_18677" data-name="Group 18677" transform="translate(234.502 144.246)">
      <rect id="Rectangle_6634" data-name="Rectangle 6634" width="75.932" height="38.961" rx="6.672" fill="#fff" stroke="#231f20" stroke-miterlimit="10" stroke-width="0.25"/>
      <text id="IT_team" data-name="IT team" transform="translate(20.536 23.06)" fill="#2d356b" font-size="10" font-family="TrebuchetMS-Bold, Trebuchet MS" font-weight="700"><tspan x="0" y="0">IT team</tspan></text>
    </g>
  </g>
</svg>
