<svg xmlns="http://www.w3.org/2000/svg" width="407.184" height="199.283" viewBox="0 0 407.184 199.283">
  <g id="Group_18765" data-name="Group 18765" transform="translate(0 8.801)">
    <g id="Group_18711" data-name="Group 18711" transform="translate(0 22.548)">
      <g id="Group_18709" data-name="Group 18709" transform="translate(0)">
        <g id="Group_18699" data-name="Group 18699" transform="translate(11.027)">
          <g id="Group_18698" data-name="Group 18698">
            <path id="Path_28043" data-name="Path 28043" d="M802.349,7622.13c-5.545-7.627,2.02-11.54,1.811-19.039s-6.714-5.409-7.342-15.108,5.307-12.03,5.774-17.627-7.114-7.33-3.688-14.23,8.755-6.585,11.72-12.062,11.086-8.232,15.416-5.45,10.052-6.323,17.609-.688,6.292,16.01,8.342,22,9.7,8.833,10.382,19.361-4.749,7.821-2.612,15.2,9.043,7.206,9.725,17.737c0,0,.406,10.548-10.739,9.32s-7.961,5.246-19.889.455-8.422,6.665-16.751,1.918S808.726,7630.9,802.349,7622.13Z" transform="translate(-796.771 -7536.044)" fill="#2d356b"/>
          </g>
        </g>
        <g id="Group_18701" data-name="Group 18701" transform="translate(54.447 71.884)">
          <g id="Group_18700" data-name="Group 18700" transform="translate(10.871 67.792)">
            <path id="Path_28044" data-name="Path 28044" d="M985.464,8030.666c-.425-.563.505-1.43,1.692-2.249s2.178-1.279,2.605-.717-.189,1.681-1.377,2.5S985.89,8031.228,985.464,8030.666Z" transform="translate(-982.701 -8018.733)" fill="#f7c371"/>
            <path id="Path_28045" data-name="Path 28045" d="M991.046,8034.277c-.426-.562.505-1.43,1.693-2.247s2.177-1.282,2.6-.72-.189,1.683-1.377,2.5S991.473,8034.839,991.046,8034.277Z" transform="translate(-986.597 -8021.253)" fill="#f7c371"/>
            <path id="Path_28046" data-name="Path 28046" d="M976.7,8025.609c.5-.515,2.021.555,3.6,1.93s2.616,2.526,2.113,3.045-2.186-.179-3.764-1.553S976.195,8026.125,976.7,8025.609Z" transform="translate(-976.555 -8017.356)" fill="#ffd8a3"/>
            <path id="Path_28047" data-name="Path 28047" d="M986.559,7998.581c-2.465,1.864-10.669,7.134-8.895,9.946,1.587,2.512,7.069,3.271,11.222-8.171Z" transform="translate(-977.156 -7998.581)" fill="#ffd8a3"/>
          </g>
          <path id="Path_28048" data-name="Path 28048" d="M940.684,7774.955c5.667-7.281,42.787,33.616,43.477,35.456,0,0-2.237,6.64-4.37,5.752C974.27,7813.862,938.154,7778.206,940.684,7774.955Z" transform="translate(-940.557 -7774.087)" fill="#54ccca"/>
          <path id="Path_28049" data-name="Path 28049" d="M1009.825,7923.41c-6.438-2.8,15.211-34.481,16.445-35.333,0,0,5.328.4,5.065,2.134C1030.654,7894.693,1012.7,7924.661,1009.825,7923.41Z" transform="translate(-988.075 -7853.655)" fill="#54ccca"/>
          <path id="Path_28050" data-name="Path 28050" d="M1009.075,7992.775l2.131.621,6.756-5.063s-3.463-1.854-4.429-1.772S1009.075,7992.775,1009.075,7992.775Z" transform="translate(-988.384 -7922.396)" fill="#eaeaea"/>
          <path id="Path_28051" data-name="Path 28051" d="M1005.555,7984.646l-1.705-1.443.587-8.43s3.489,1.882,3.953,2.735S1005.555,7984.646,1005.555,7984.646Z" transform="translate(-984.737 -7914.171)" fill="#eaeaea"/>
        </g>
        <g id="Group_18702" data-name="Group 18702" transform="translate(17.465 50.623)">
          <path id="Path_28052" data-name="Path 28052" d="M818.091,7841.447s11.277,9.988,22.553,13.734l5.873-12.693,5.4,12.693s15.244-4.3,21.378-13.734c-12.422-18.012-17.33-33.04-4.447-51.789,0,0-5.185-33.526-23.979-34.358s-22.143,35.739-22.143,35.739C834.947,7809.35,838.947,7817.3,818.091,7841.447Z" transform="translate(-818.091 -7739.702)" fill="#c3e8e6"/>
          <path id="Path_28053" data-name="Path 28053" d="M882.16,7771a11.378,11.378,0,0,1,7.281,2.627c1.906-4.334,3.176-9.666,1.818-15.106-11.441-8.6-18.492.893-18.492.893s-1.5,5.927,2.535,13.893A11.368,11.368,0,0,1,882.16,7771Z" transform="translate(-856.066 -7739.447)" fill="#fff"/>
          <path id="Path_28054" data-name="Path 28054" d="M883.86,7757.932s-1.9,9.544,6.749,19.9c0,0,7.355-10.082,5.278-20.645C888.446,7750.082,883.86,7757.932,883.86,7757.932Z" transform="translate(-863.876 -7738.953)" fill="#f7c371"/>
          <rect id="Rectangle_6635" data-name="Rectangle 6635" width="9.815" height="18.399" transform="translate(21.163)" fill="#f7c371"/>
          <path id="Path_28055" data-name="Path 28055" d="M915.818,7903.628a1.38,1.38,0,1,0-1.38,1.38A1.38,1.38,0,0,0,915.818,7903.628Z" transform="translate(-884.38 -7842.286)" fill="#fff"/>
          <path id="Path_28056" data-name="Path 28056" d="M915.818,7939.347a1.38,1.38,0,1,0-1.38,1.38A1.38,1.38,0,0,0,915.818,7939.347Z" transform="translate(-884.38 -7867.219)" fill="#fff"/>
          <path id="Path_28057" data-name="Path 28057" d="M915.818,8010.784a1.38,1.38,0,1,0-1.38,1.378A1.381,1.381,0,0,0,915.818,8010.784Z" transform="translate(-884.38 -7917.083)" fill="#fff"/>
          <path id="Path_28058" data-name="Path 28058" d="M915.818,7975.065a1.38,1.38,0,1,0-1.38,1.381A1.381,1.381,0,0,0,915.818,7975.065Z" transform="translate(-884.38 -7892.151)" fill="#fff"/>
        </g>
        <g id="Group_18704" data-name="Group 18704" transform="translate(0 72.214)">
          <path id="Path_28059" data-name="Path 28059" d="M791.057,7775.563c-7.594-5.24-30.7,44.928-30.8,46.889,0,0,4.13,5.661,5.9,4.172C770.726,7822.771,794.448,7777.9,791.057,7775.563Z" transform="translate(-760.255 -7775.18)" fill="#54ccca"/>
          <g id="Group_18703" data-name="Group 18703" transform="translate(27.462 68.785)">
            <path id="Path_28060" data-name="Path 28060" d="M851.2,8005.656c3.616,3.091,5.985,14.563,9.653,12.625,3.287-1.735,6-9.386-7.137-15.318Z" transform="translate(-851.197 -8002.963)" fill="#ffd9a4"/>
            <path id="Path_28061" data-name="Path 28061" d="M871.41,8017.13c-6,2.694-2.686,9.987-1.113,12.042,1.731,2.261,6.846,1.46,8.034-.469S873.7,8016.1,871.41,8017.13Z" transform="translate(-862.897 -8012.803)" fill="#ffd9a4"/>
            <path id="Path_28062" data-name="Path 28062" d="M884.811,8025.513c3.692,1.177,8.479.747,8.544-.734.077-1.671-3.969-.528-7.026-2.392-3.315-2.011-5.5-3.1-6.348-1.865S881.113,8024.339,884.811,8025.513Z" transform="translate(-871.154 -8014.855)" fill="#ffd9a4"/>
            <path id="Path_28063" data-name="Path 28063" d="M896.623,8043.145c2.033,2.625,3.7,3.529,4.332,2.911s-.615-2.045-2.642-4.67-3.955-6.467-4.59-5.848S894.6,8040.516,896.623,8043.145Z" transform="translate(-880.777 -8025.656)" fill="#ffd9a4"/>
            <path id="Path_28064" data-name="Path 28064" d="M888.867,8053.9c1.492,3.04,4.131,5.007,4.865,4.537s-1.3-2.936-2.795-5.975-2.623-4.93-3.355-4.457S887.377,8050.856,888.867,8053.9Z" transform="translate(-876.366 -8034.35)" fill="#ffd9a4"/>
            <path id="Path_28065" data-name="Path 28065" d="M874.109,8050.919c1.613,2.977,3.186,4.271,3.9,3.783s-.714-2.25-2.326-5.224-2.784-5.037-3.5-4.544S872.5,8047.942,874.109,8050.919Z" transform="translate(-865.683 -8032.21)" fill="#ffd9a4"/>
          </g>
          <path id="Path_28066" data-name="Path 28066" d="M791.882,7949.086c5.3-4.605-24.876-28.312-26.309-28.753,0,0-4.961,1.984-4.189,3.558C763.38,7927.961,789.516,7951.143,791.882,7949.086Z" transform="translate(-760.986 -7876.5)" fill="#54ccca"/>
          <path id="Path_28067" data-name="Path 28067" d="M843.85,8005.843,842,8007.075l-7.967-2.8s2.745-2.809,3.691-3.023S843.85,8005.843,843.85,8005.843Z" transform="translate(-811.757 -7932.981)" fill="#eaeaea"/>
          <path id="Path_28068" data-name="Path 28068" d="M855,7994.351l1.192-1.889L853.1,7984.6s-2.762,2.845-2.948,3.8S855,7994.351,855,7994.351Z" transform="translate(-823.002 -7921.358)" fill="#eaeaea"/>
        </g>
        <g id="Group_18705" data-name="Group 18705" transform="translate(25.71 15.744)">
          <path id="Path_28069" data-name="Path 28069" d="M867.637,7631.931c-6.095.395-20.9-15.375-16.554-36.215.879-4.212,5.222-6.884,13.727-7.436,9.355-.605,13.8,1.646,14.7,4.953C885.86,7616.616,873.874,7631.527,867.637,7631.931Z" transform="translate(-848.816 -7588.182)" fill="#ffd8a3"/>
          <path id="Path_28070" data-name="Path 28070" d="M908.748,7621.325c2.012-.837,6.5-2.11,10.026,2.94C915.661,7621.4,913.514,7620.521,908.748,7621.325Z" transform="translate(-889.616 -7610.769)" fill="#2d356b"/>
          <path id="Path_28071" data-name="Path 28071" d="M867.722,7623.668c-2.1-.546-6.692-1.181-9.484,4.311C860.918,7624.706,862.916,7623.539,867.722,7623.668Z" transform="translate(-854.359 -7612.708)" fill="#2d356b"/>
          <path id="Path_28072" data-name="Path 28072" d="M925.672,7644.332c-.125-1.159-.957-2.017-1.857-1.918a2.175,2.175,0,1,0,1.857,1.918Z" transform="translate(-899.141 -7626.032)" fill="#2d356b"/>
          <path id="Path_28073" data-name="Path 28073" d="M920.8,7642.382c-1.842-1.011-4.185-1.819-6.936.42A14.083,14.083,0,0,1,920.8,7642.382Z" transform="translate(-893.188 -7625.308)" fill="#2d356b"/>
          <path id="Path_28074" data-name="Path 28074" d="M876.153,7647.532a1.692,1.692,0,1,1,1.687,2.073A1.916,1.916,0,0,1,876.153,7647.532Z" transform="translate(-866.864 -7628.114)" fill="#2d356b"/>
          <path id="Path_28075" data-name="Path 28075" d="M866.485,7647.2c1.492-1.479,3.52-2.9,6.779-1.51A14.083,14.083,0,0,0,866.485,7647.2Z" transform="translate(-860.116 -7627.926)" fill="#2d356b"/>
          <path id="Path_28076" data-name="Path 28076" d="M897.936,7663.451a4.469,4.469,0,0,0,1.875.64,2.6,2.6,0,0,0,1.772-.95c.048-.51-1.647-6.025-2.123-6.045S897.854,7662.725,897.936,7663.451Z" transform="translate(-882.066 -7636.285)" fill="#ffab00"/>
          <path id="Path_28077" data-name="Path 28077" d="M900.912,7660.562c.01.112.562.257.753.245.327-.022.71-.216.711-.419,0-.49-.1-6.071-1.082-5.952C900.219,7654.56,900.854,7659.85,900.912,7660.562Z" transform="translate(-883.98 -7634.428)" fill="#ffd8a3"/>
          <path id="Path_28078" data-name="Path 28078" d="M904.429,7709.158c-.044-.678-.79-.564-1.756-.5s-1.789.05-1.744.729.862,1.177,1.83,1.114S904.473,7709.837,904.429,7709.158Z" transform="translate(-884.157 -7672.242)" fill="#f36973"/>
          <path id="Path_28079" data-name="Path 28079" d="M900.883,7688.008c-2.12-.967-2.729.081-3.2.112-.6.039-1.272-.939-3.278.309-.577.359,1.529,1.134,3.32,1.019S901.5,7688.29,900.883,7688.008Z" transform="translate(-879.535 -7657.578)" fill="#f36973"/>
          <path id="Path_28080" data-name="Path 28080" d="M889.738,7689.424l9.412-.608s-.823,6.854-4.267,7.078S889.738,7689.424,889.738,7689.424Z" transform="translate(-876.347 -7658.427)" fill="#ffab00"/>
          <path id="Path_28081" data-name="Path 28081" d="M899.964,7690.106l-8.105.524,1.069,2.7,6.323-.409Z" transform="translate(-877.827 -7659.327)" fill="#fff"/>
          <path id="Path_28082" data-name="Path 28082" d="M920.469,7687.435a.48.48,0,1,0-.438.582A.52.52,0,0,0,920.469,7687.435Z" transform="translate(-897.136 -7657.096)" fill="#ffab00"/>
          <path id="Path_28083" data-name="Path 28083" d="M888.857,7689.481a.48.48,0,1,0-.438.582A.518.518,0,0,0,888.857,7689.481Z" transform="translate(-875.069 -7658.526)" fill="#ffab00"/>
          <path id="Path_28084" data-name="Path 28084" d="M847.856,7661.694c-.375-1.325-.267-2.427-1.244-2.15s-1.468,1.573-1.093,2.9,1.47,2.175,2.447,1.9S848.23,7663.019,847.856,7661.694Z" transform="translate(-845.393 -7637.963)" fill="#f7c371"/>
          <path id="Path_28085" data-name="Path 28085" d="M951.862,7655.051c.168-1.365-.118-2.442.92-2.315a2.259,2.259,0,0,1,1.578,2.709c-.167,1.365-1.145,2.371-2.183,2.245S951.7,7656.421,951.862,7655.051Z" transform="translate(-919.502 -7633.234)" fill="#f7c371"/>
        </g>
        <g id="Group_18708" data-name="Group 18708" transform="translate(25.074 11.096)">
          <g id="Group_18707" data-name="Group 18707" transform="translate(12.355)">
            <path id="Path_28086" data-name="Path 28086" d="M904.984,7586.592c-5.493-1.69-19.266-6.5-20.784-13.3,0,0,13.429-2.593,16.948,3.965C905.595,7585.536,904.984,7586.592,904.984,7586.592Z" transform="translate(-884.2 -7572.788)" fill="#2d356b"/>
            <g id="Group_18706" data-name="Group 18706" transform="translate(1.135 2.825)">
              <path id="Path_28087" data-name="Path 28087" d="M898.26,7591.325c1.283,1.631,8.693,6.93,13.715,8.425S898.26,7591.325,898.26,7591.325Z" transform="translate(-895.15 -7588.552)" fill="#2d356b"/>
              <path id="Path_28088" data-name="Path 28088" d="M887.96,7582.143a25.68,25.68,0,0,0,5.942,8.083C896.451,7592.266,887.96,7582.143,887.96,7582.143Z" transform="translate(-887.96 -7582.143)" fill="#2d356b"/>
            </g>
          </g>
          <path id="Path_28089" data-name="Path 28089" d="M843.35,7600.827c4.158-2.315,14.513-8.691,14.926-15.611,0,0-10.943-1.015-12.97,5.9C842.744,7599.85,843.35,7600.827,843.35,7600.827Z" transform="translate(-843.288 -7581.426)" fill="#2d356b"/>
        </g>
      </g>
    </g>
    <g id="Group_18713" data-name="Group 18713" transform="translate(74.2 1.677)">
      <g id="Group_18712" data-name="Group 18712" transform="translate(0)">
        <path id="Path_28090" data-name="Path 28090" d="M1154.552,7571c-12.366,16.756-8.171,36.8,10.689,46.554,20.033,10.354,49.192,5.251,65.971-11.308,9.1,11.139,24.238,20.645,42.628,25.484,33.9,8.925,66-1.382,71.7-23.02a27.481,27.481,0,0,0,.145-13.125c27.971,11.648,46.784,4.514,58.3-19.354,8.5-17.613-1.5-51.375-42.874-62.267-5.275-1.388-10.488-2.491-15.582-3.321.215-.592,2.314-3.849,1.131-10.072-5.144-27.05-38.111-34.913-74.156-33.482-30.351,1.205-47.968,16.284-57.394,30.668,0,0-79.161-38.433-104.442,19.8C1110.663,7517.56,1084.861,7568.5,1154.552,7571Z" transform="translate(-1075.787 -7466.928)" fill="#fff" stroke="#ebebeb" stroke-miterlimit="10" stroke-width="4"/>
        <ellipse id="Ellipse_409" data-name="Ellipse 409" cx="10.357" cy="10.357" rx="10.357" ry="10.357" transform="translate(23.881 35.415)" fill="#fff" stroke="#ebebeb" stroke-miterlimit="10" stroke-width="4"/>
        <ellipse id="Ellipse_410" data-name="Ellipse 410" cx="6.137" cy="6.137" rx="6.137" ry="6.137" transform="translate(13.819 37.005)" fill="#fff" stroke="#ebebeb" stroke-miterlimit="10" stroke-width="4"/>
        <ellipse id="Ellipse_411" data-name="Ellipse 411" cx="5.25" cy="5.25" rx="5.25" ry="5.25" transform="translate(0 41.563)" fill="#fff" stroke="#ebebeb" stroke-miterlimit="10" stroke-width="4"/>
      </g>
    </g>
    <g id="Group_18719" data-name="Group 18719" transform="translate(323.545 55.571)">
      <g id="Group_18714" data-name="Group 18714" transform="translate(0 27.326)">
        <path id="Path_28091" data-name="Path 28091" d="M1892.861,7735.889l-6.719,4.222-1.206,14.526,5.4-1.952Z" transform="translate(-1868.853 -7735.889)" fill="#f8c471"/>
        <path id="Path_28092" data-name="Path 28092" d="M1835,7858.768c4.317-2.828,14.34-9.08,25.455-1.34-3.324-9.763-6.344-19.359-6.45-27.39-.2-14.887,12.452-32.371,1.984-39.1-11.115-7.145-24.314,25.852-24.314,25.852C1842.791,7823.041,1839.716,7840.966,1835,7858.768Z" transform="translate(-1831.676 -7773.607)" fill="#f8c471"/>
        <path id="Path_28093" data-name="Path 28093" d="M1884.968,7788.314l-1.953-.229-8.728,8.211,2.584,2.183S1882.728,7792.507,1884.968,7788.314Z" transform="translate(-1861.419 -7772.323)" fill="#f8c471"/>
        <path id="Path_28094" data-name="Path 28094" d="M1862.028,7798.206l-.122-.09c2.3-4.595,7.337-11.632,12.2-11.181C1869.679,7790.885,1862.028,7798.206,1862.028,7798.206Z" transform="translate(-1852.777 -7771.506)" fill="#f8c471"/>
      </g>
      <g id="Group_18716" data-name="Group 18716" transform="translate(12.471 48.243)">
        <g id="Group_18715" data-name="Group 18715" transform="translate(0 46.307)">
          <path id="Path_28095" data-name="Path 28095" d="M1879.208,7980.9c-.3-.395.354-1,1.184-1.57s1.524-.895,1.824-.5-.132,1.173-.964,1.744S1879.506,7981.291,1879.208,7980.9Z" transform="translate(-1877.274 -7972.569)" fill="#f8c471"/>
          <path id="Path_28096" data-name="Path 28096" d="M1883.117,7983.418c-.3-.393.353-1,1.185-1.57s1.524-.895,1.823-.5-.133,1.172-.964,1.746S1883.416,7983.809,1883.117,7983.418Z" transform="translate(-1880.002 -7974.326)" fill="#f8c471"/>
          <path id="Path_28097" data-name="Path 28097" d="M1873.072,7977.367c.353-.36,1.415.387,2.518,1.347s1.831,1.763,1.479,2.126-1.53-.125-2.634-1.085S1872.721,7977.729,1873.072,7977.367Z" transform="translate(-1872.973 -7971.606)" fill="#f8c471"/>
          <path id="Path_28098" data-name="Path 28098" d="M1879.975,7958.5c-1.725,1.3-7.466,4.981-6.225,6.942,1.111,1.754,4.948,2.283,7.855-5.7Z" transform="translate(-1873.394 -7958.501)" fill="#f8c471"/>
        </g>
        <path id="Path_28099" data-name="Path 28099" d="M1897.118,7916.223c4.168,2.868,17.138-15.4,17.193-16.476,0,0-2.272-3.1-3.238-2.281C1908.575,7899.586,1895.256,7914.943,1897.118,7916.223Z" transform="translate(-1889.703 -7869.495)" fill="#f8c471"/>
        <path id="Path_28100" data-name="Path 28100" d="M1915.1,7805.538c4.789-4.3,12.881,29.071,11.486,30.366,0,0-3.067,1.708-4.191.547C1918.993,7832.944,1912.961,7807.461,1915.1,7805.538Z" transform="translate(-1902.066 -7805.155)" fill="#f8c471"/>
        <path id="Path_28101" data-name="Path 28101" d="M1892.4,7949.4l-.866-1.186,1.927-5.432s1.967,1.729,2.12,2.354S1892.4,7949.4,1892.4,7949.4Z" transform="translate(-1885.929 -7901.225)" fill="#f8c471"/>
        <path id="Path_28102" data-name="Path 28102" d="M1894.095,7956.492l1.323.726,5.475-2.366a11.255,11.255,0,0,0-2.659-1.827C1897.57,7952.936,1894.095,7956.492,1894.095,7956.492Z" transform="translate(-1887.716 -7908.37)" fill="#f8c471"/>
      </g>
      <g id="Group_18718" data-name="Group 18718" transform="translate(6.076)">
        <path id="Path_28103" data-name="Path 28103" d="M1937.942,7645.79c2.655-1.184,5.946.415,7.35,3.57s.392,6.668-2.262,7.85-5.944-.416-7.349-3.569S1935.289,7646.971,1937.942,7645.79Z" transform="translate(-1909.909 -7645.4)" fill="#f8c471"/>
        <path id="Path_28104" data-name="Path 28104" d="M1931.161,7664.5c1.208-.446,2.8.86,3.562,2.918s.394,4.084-.814,4.53-2.8-.86-3.562-2.918S1929.953,7664.947,1931.161,7664.5Z" transform="translate(-1906.351 -7658.674)" fill="#f8c471"/>
        <g id="Group_18717" data-name="Group 18717" transform="translate(0 4.714)">
          <path id="Path_28105" data-name="Path 28105" d="M1877.2,7691.357c3.582-.983,10.8-2.13,14.271-7.541,4.518-7.032,3.371-11.382,1.865-16.675-2.871-10.091-20.081-5.365-19.005-2.393C1875.763,7668.695,1864.22,7694.92,1877.2,7691.357Z" transform="translate(-1865.177 -7661.008)" fill="#f8c471"/>
          <path id="Path_28106" data-name="Path 28106" d="M1860.708,7701.574c-1.307,0-3.643-6.75-4.34-11.928-.23-1.705,1.608-1.907,1.493-7.729-.068-3.418,1.51-8.149,7.235-11.544,5.4-3.206,5.805,7.4,6.268,9.853,1.319,6.98,3.1,11.365,1.312,14.743C1869.179,7701.564,1862.119,7701.236,1860.708,7701.574Z" transform="translate(-1854.974 -7667.128)" fill="#f8c471"/>
          <path id="Path_28107" data-name="Path 28107" d="M1870.362,7744.3a.3.3,0,0,0-.272-.326.317.317,0,0,0-.261.347.3.3,0,0,0,.273.325A.314.314,0,0,0,1870.362,7744.3Z" transform="translate(-1864.384 -7718.921)" fill="#f8c471"/>
          <path id="Path_28108" data-name="Path 28108" d="M1868.8,7712.886c-.031-.918-.569-1.637-1.2-1.6s-1.119.8-1.087,1.718.568,1.638,1.2,1.607S1868.829,7713.8,1868.8,7712.886Z" transform="translate(-1862.068 -7696.099)" fill="#f8c471"/>
          <path id="Path_28109" data-name="Path 28109" d="M1867.8,7712.746c-.884-1.269-2.145-2.536-4.548-1.7A8.783,8.783,0,0,1,1867.8,7712.746Z" transform="translate(-1859.796 -7695.75)" fill="#f8c471"/>
          <path id="Path_28110" data-name="Path 28110" d="M1862.306,7757.164c-.039-.214-.695.542-1.005.567-.88.075-.629,1.2.249,1.032C1861.892,7758.7,1862.347,7757.391,1862.306,7757.164Z" transform="translate(-1858.049 -7728.101)" fill="#f8c471"/>
          <path id="Path_28111" data-name="Path 28111" d="M1861.883,7744.31c.6-.236-3.425-1.395-2.7-.03A6.335,6.335,0,0,0,1861.883,7744.31Z" transform="translate(-1856.894 -7718.678)" fill="#f8c471"/>
          <path id="Path_28112" data-name="Path 28112" d="M1863.741,7695.5a5.354,5.354,0,0,1,5.955,4.186C1868.285,7697.1,1867.065,7696.039,1863.741,7695.5Z" transform="translate(-1860.135 -7685.072)" fill="#f8c471"/>
          <path id="Path_28113" data-name="Path 28113" d="M1852.717,7725.067l2.021.617.073-5.162-3.013,3.675Z" transform="translate(-1851.798 -7702.55)" fill="#f8c471"/>
          <path id="Path_28114" data-name="Path 28114" d="M1855.436,7737.989l-1.571-3.2,1.517-.055Z" transform="translate(-1853.241 -7712.473)" fill="#f8c471"/>
          <path id="Path_28115" data-name="Path 28115" d="M1859.642,7749.647a38.13,38.13,0,0,1-1-4.48h3.65S1861.571,7749.031,1859.642,7749.647Z" transform="translate(-1856.578 -7719.753)" fill="#f8c471"/>
          <path id="Path_28116" data-name="Path 28116" d="M1861.679,7747.739H1859.6c-.12-.562-.231-1.151-.334-1.762h2.984Z" transform="translate(-1857.011 -7720.318)" fill="#f8c471"/>
          <path id="Path_28117" data-name="Path 28117" d="M1915.538,7721.617c-.082-1.592-.621-2.765.587-2.824s2.258,1.182,2.34,2.776-.834,2.933-2.044,2.993S1915.618,7723.212,1915.538,7721.617Z" transform="translate(-1896.157 -7701.343)" fill="#f8c471"/>
        </g>
        <path id="Path_28118" data-name="Path 28118" d="M1876.879,7668.989c3.834,5.794,10.552,14.265,8.936,22.521,3.4-8.789,1.882-20.514-3.949-25.342C1881.252,7667.05,1876.031,7666.784,1876.879,7668.989Z" transform="translate(-1869.24 -7659.896)" fill="#f8c471"/>
      </g>
    </g>
    <g id="Group_18722" data-name="Group 18722" transform="translate(124.883 -8.676)">
      <g id="Group_18721" data-name="Group 18721" transform="translate(0 0)">
        <g id="Group_18720" data-name="Group 18720">
          <rect id="Rectangle_6637" data-name="Rectangle 6637" width="258.247" height="56.836" rx="11.604" fill="#fff" stroke="#231f20" stroke-miterlimit="10" stroke-width="0.25"/>
          <path id="Path_28119" data-name="Path 28119" d="M1376.805,7660.385l29.139,15.893-15.756-15.893Z" transform="translate(-1315.504 -7603.546)" fill="#fff" stroke="#231f20" stroke-miterlimit="10" stroke-width="0.25"/>
        </g>
      </g>
      <text id="We_need_a_little_more_time." data-name="We need a little more time." transform="translate(21.101 31.56)" font-size="15" font-family="TrebuchetMS-Bold, Trebuchet MS" font-weight="700"><tspan x="0" y="0">We need a little more time.</tspan></text>
    </g>
    <g id="Group_18729" data-name="Group 18729" transform="translate(290.113 46.518)">
      <g id="Group_18723" data-name="Group 18723" transform="translate(0 26.357)">
        <path id="Path_28120" data-name="Path 28120" d="M1767.219,7755.256l1.141.322.559,2.792-2.492,1.182Z" transform="translate(-1752.698 -7739.385)" fill="#cfd0d8"/>
        <path id="Path_28121" data-name="Path 28121" d="M1770.935,7707.239l10.287-4.539,1.481,16.94-14.8,5.313Z" transform="translate(-1753.728 -7702.7)" fill="#cfd0d8"/>
        <path id="Path_28122" data-name="Path 28122" d="M1728.548,7884.389l20.269,4.907,2.947,29.8-17.579,1.848Z" transform="translate(-1726.259 -7829.523)" fill="#cfd0d8"/>
        <path id="Path_28123" data-name="Path 28123" d="M1765.2,7838.46c-12.7.448-27.729-3.346-35.129-17.483-4-7.652-4.774-20.629-5.789-33.473-1.357-17.169,16.4-40.892,31.976-36.753,21.655,5.752,9.454,34.481,7.413,41.987C1757.7,7814.73,1764.4,7833.7,1765.2,7838.46Z" transform="translate(-1723.231 -7735.908)" fill="#cfd0d8"/>
        <path id="Path_28124" data-name="Path 28124" d="M1785.635,7868.141c-.172-5.654,1.354-23.143,10.708-43.053,1.814-3.861,3.448-15.164,5.075-24.618.607-3.529,6.978,2.8,8.389,11.285.875,5.265-2.486,12.451-3.267,15.325-5.978,21.991.728,40.955,1.528,45.72C1800.726,7873.06,1792.609,7871.9,1785.635,7868.141Z" transform="translate(-1766.098 -7770.25)" fill="#cfd0d8"/>
        <path id="Path_28125" data-name="Path 28125" d="M1726.234,7803.61c.207-22.264,16.392-44.839,31.5-51.683,2.538-1.149.141-2.971-7.2-1.982C1743.974,7750.853,1718.079,7765.112,1726.234,7803.61Z" transform="translate(-1723.546 -7735.48)" fill="#cfd0d8"/>
        <path id="Path_28126" data-name="Path 28126" d="M1725.459,7789.7c1.74-18.779,8.306-28.878,24.206-39.1-6.4.886-31.56,10.659-25.243,46.845C1724.583,7798.363,1725.158,7792.942,1725.459,7789.7Z" transform="translate(-1722.674 -7736.135)" fill="#cfd0d8"/>
        <path id="Path_28127" data-name="Path 28127" d="M1740.127,7963.988c-.137-.776.185-1.483.721-1.579s1.083.456,1.221,1.232-.184,1.483-.721,1.579S1740.265,7964.762,1740.127,7963.988Z" transform="translate(-1734.318 -7883.976)" fill="#cfd0d8"/>
        <path id="Path_28128" data-name="Path 28128" d="M1734.707,7933.515c-.138-.776.185-1.482.721-1.577s1.083.456,1.221,1.231-.184,1.483-.721,1.579S1734.845,7934.29,1734.707,7933.515Z" transform="translate(-1730.535 -7862.706)" fill="#cfd0d8"/>
        <path id="Path_28129" data-name="Path 28129" d="M1770.825,7759l-3.762,1.479,1.159-4.212.708-.419Z" transform="translate(-1753.143 -7739.795)" fill="#cfd0d8"/>
        <path id="Path_28130" data-name="Path 28130" d="M1722.691,7811.7l.88-7.587s-4.377-23.373,12.126-35.875l-.232-.587C1721.917,7778.379,1718.4,7796.01,1722.691,7811.7Z" transform="translate(-1720.966 -7748.034)" fill="#cfd0d8"/>
        <path id="Path_28131" data-name="Path 28131" d="M1769.05,7744.526l14.841-4.641,2.035,2.93-14,6.384Z" transform="translate(-1754.53 -7728.657)" fill="#cfd0d8"/>
      </g>
      <g id="Group_18724" data-name="Group 18724" transform="translate(17.334 45.706)">
        <path id="Path_28132" data-name="Path 28132" d="M1811.229,7815.705c4.763.532,5.9-46.025.129-48.9,0,0-12.067-1.58-20.38,18.779C1790.978,7785.583,1797.084,7814.127,1811.229,7815.705Z" transform="translate(-1787.17 -7766.775)" fill="#cfd0d8"/>
        <path id="Path_28133" data-name="Path 28133" d="M1807.484,7859.211c-14.844-3.372-17.887-27.686-17.887-27.686a8.94,8.94,0,0,1,.951-1.941C1793.99,7848.184,1808.1,7859.353,1807.484,7859.211Z" transform="translate(-1786.205 -7810.617)" fill="#cfd0d8"/>
        <path id="Path_28134" data-name="Path 28134" d="M1804.516,7909.153s-2.4,9.12-19.367,33.112c0,0-3.257.126-6.781-4.342,0,0,2.527-20.265,11.469-32.4C1789.837,7905.519,1802.217,7903.936,1804.516,7909.153Z" transform="translate(-1778.367 -7863.464)" fill="#cfd0d8"/>
      </g>
      <g id="Group_18728" data-name="Group 18728" transform="translate(6.93)">
        <path id="Path_28135" data-name="Path 28135" d="M1772.768,7643.292c6.765-9.247,5.173-23.666,4.785-24.149-4.14-5.163-14.778-4-20.065-2.188-4.458,1.522-7.856,4.269-5.373,7.662.858,1.172,4.281-1.825,5.393-1.751,2.1.14,5.23,28.7,5.23,28.7Z" transform="translate(-1749.053 -7615.42)" fill="#cfd0d8"/>
        <g id="Group_18726" data-name="Group 18726" transform="translate(0 6.902)">
          <g id="Group_18725" data-name="Group 18725">
            <path id="Path_28136" data-name="Path 28136" d="M1753.468,7712.667l-1.185-1.746,1.4-.989Z" transform="translate(-1749.756 -7688.293)" fill="#cfd0d8"/>
            <path id="Path_28137" data-name="Path 28137" d="M1771.215,7663.028c-.724,2.479-7.927,8.086-15.376,8.161-1.369-9.618-1.887-25.592-.236-28.411,1.625-2.774,8.632-5.122,9.551-4.354-2.43,3.244,2.324,13.356,3.9,14.223C1772.879,7654.756,1771.971,7660.441,1771.215,7663.028Z" transform="translate(-1751.353 -7638.276)" fill="#cfd0d8"/>
            <path id="Path_28138" data-name="Path 28138" d="M1743.914,7693.3a68.542,68.542,0,0,0,3.212-8.355c.945-3.105,1.189,8.107,1.189,8.107S1745.045,7694,1743.914,7693.3Z" transform="translate(-1743.914 -7670.473)" fill="#cfd0d8"/>
            <path id="Path_28139" data-name="Path 28139" d="M1754.919,7741.818c-.767-.277-1.18-.968-.92-1.543a1.475,1.475,0,0,1,1.861-.536c.769.277,1.18.968.921,1.542A1.476,1.476,0,0,1,1754.919,7741.818Z" transform="translate(-1750.899 -7709.02)" fill="#cfd0d8"/>
            <path id="Path_28140" data-name="Path 28140" d="M1754.948,7730.119c-.036-.193.172-.395.466-.45s.561.059.6.252-.172.4-.466.45S1754.984,7730.314,1754.948,7730.119Z" transform="translate(-1751.613 -7702.06)" fill="#cfd0d8"/>
          </g>
          <path id="Path_28141" data-name="Path 28141" d="M1802.18,7681.079c.318-1.782,1.606-3.1,2.88-2.943s2.047,1.729,1.73,3.511-2.654,2.941-3.926,2.784S1801.863,7682.861,1802.18,7681.079Z" transform="translate(-1784.4 -7666.09)" fill="#cfd0d8"/>
        </g>
        <path id="Path_28142" data-name="Path 28142" d="M1756.046,7722.229l.3,2.448s1.035.222,1.252-.014a4.483,4.483,0,0,0,.686-2.187Z" transform="translate(-1752.382 -7689.975)" fill="#cfd0d8"/>
        <path id="Path_28143" data-name="Path 28143" d="M1756.275,7722.534l.267,2.175a2.8,2.8,0,0,0,.926.082,3.223,3.223,0,0,0,.658-2.066Z" transform="translate(-1752.543 -7690.188)" fill="#cfd0d8"/>
        <path id="Path_28144" data-name="Path 28144" d="M1756.558,7675.777a.957.957,0,0,1,.3-.61c.432-.381,3.676.931,3.575,1.623l-.064.434c-.073.5-1.021-.118-2.005-.341-.942-.212-1.925-.012-1.873-.482Z" transform="translate(-1752.69 -7657.078)" fill="#cfd0d8"/>
        <path id="Path_28145" data-name="Path 28145" d="M1761.193,7687.012c-.052-.582.224-1.115.617-1.187s.754.338.807.921-.223,1.113-.616,1.187S1761.247,7687.594,1761.193,7687.012Z" transform="translate(-1755.971 -7664.558)" fill="#cfd0d8"/>
        <path id="Path_28146" data-name="Path 28146" d="M1763.2,7722.826c-.018-.088.039-.143.129-.126a.267.267,0,0,1,.2.189c.018.086-.039.142-.128.123A.266.266,0,0,1,1763.2,7722.826Z" transform="translate(-1757.373 -7690.302)" fill="#cfd0d8"/>
        <g id="Group_18727" data-name="Group 18727" transform="translate(2.216 1.937)">
          <path id="Path_28147" data-name="Path 28147" d="M1789.2,7643.5c-3.2.452,2.843,14.65,1.284,15.808s.134,2.237.969,1.852c1.913-.883,1.97-5.017,1.923-7.644C1793.323,7650.586,1789.469,7643.458,1789.2,7643.5Z" transform="translate(-1777.076 -7636.956)" fill="#cfd0d8"/>
          <path id="Path_28148" data-name="Path 28148" d="M1751.4,7628.451c-.678-2.283,1.07-4.816,3.9-5.657s11.22-1.836,11.9.446-6.607,6.978-9.442,7.817S1752.074,7630.732,1751.4,7628.451Z" transform="translate(-1751.251 -7621.837)" fill="#cfd0d8"/>
        </g>
      </g>
    </g>
    <g id="Group_18736" data-name="Group 18736" transform="translate(268.762 51.366)">
      <g id="Group_18730" data-name="Group 18730" transform="translate(0 24.624)">
        <path id="Path_28149" data-name="Path 28149" d="M1693.473,7762.114l1.065.3.523,2.609-2.329,1.1Z" transform="translate(-1679.907 -7747.287)" fill="#ffd9a4"/>
        <path id="Path_28150" data-name="Path 28150" d="M1696.945,7717.252l9.611-4.24,1.383,15.827-13.828,4.964Z" transform="translate(-1680.869 -7713.012)" fill="#ffd9a4"/>
        <path id="Path_28151" data-name="Path 28151" d="M1657.345,7882.753l18.937,4.586,2.754,27.838-16.423,1.726Z" transform="translate(-1655.206 -7831.495)" fill="#ffd9a4"/>
        <path id="Path_28152" data-name="Path 28152" d="M1691.589,7839.846c-11.866.42-25.906-3.125-32.819-16.333-3.74-7.148-4.46-19.273-5.409-31.271-1.268-16.04,15.317-38.2,29.874-34.337,20.232,5.373,8.832,32.214,6.926,39.228C1684.577,7817.677,1690.842,7835.395,1691.589,7839.846Z" transform="translate(-1652.378 -7744.038)" fill="#ffd9a4"/>
        <path id="Path_28153" data-name="Path 28153" d="M1710.678,7867.577c-.16-5.283,1.265-21.622,10-40.223,1.695-3.607,3.221-14.168,4.741-23,.567-3.3,6.519,2.616,7.838,10.544.818,4.919-2.323,11.632-3.052,14.317-5.585,20.545.68,38.263,1.427,42.714C1724.777,7872.172,1717.194,7871.085,1710.678,7867.577Z" transform="translate(-1692.426 -7776.122)" fill="#ffd9a4"/>
        <path id="Path_28154" data-name="Path 28154" d="M1655.183,7807.288c.194-20.8,15.313-41.893,29.427-48.285,2.371-1.073.132-2.775-6.723-1.854C1671.756,7758,1647.564,7771.32,1655.183,7807.288Z" transform="translate(-1652.672 -7743.637)" fill="#ffd9a4"/>
        <path id="Path_28155" data-name="Path 28155" d="M1654.458,7794.289c1.625-17.546,7.761-26.981,22.615-36.528-5.979.828-29.485,9.96-23.583,43.766C1653.64,7802.386,1654.178,7797.321,1654.458,7794.289Z" transform="translate(-1651.857 -7744.248)" fill="#ffd9a4"/>
        <path id="Path_28156" data-name="Path 28156" d="M1668.162,7957.121c-.129-.727.173-1.386.674-1.476s1.012.428,1.141,1.153-.172,1.386-.674,1.474S1668.292,7957.847,1668.162,7957.121Z" transform="translate(-1662.736 -7882.37)" fill="#ffd9a4"/>
        <path id="Path_28157" data-name="Path 28157" d="M1663.1,7928.651c-.129-.726.173-1.386.674-1.476s1.012.428,1.14,1.153-.172,1.386-.673,1.474S1663.228,7929.377,1663.1,7928.651Z" transform="translate(-1659.201 -7862.497)" fill="#ffd9a4"/>
        <path id="Path_28158" data-name="Path 28158" d="M1696.841,7765.607l-3.514,1.382,1.083-3.936.662-.392Z" transform="translate(-1680.323 -7747.668)" fill="#ffd9a4"/>
        <path id="Path_28159" data-name="Path 28159" d="M1651.874,7814.841l.822-7.088s-4.09-21.835,11.329-33.516l-.217-.547C1651.15,7783.716,1647.864,7800.188,1651.874,7814.841Z" transform="translate(-1650.262 -7755.368)" fill="#ffd9a4"/>
        <path id="Path_28160" data-name="Path 28160" d="M1695.184,7752.089l13.865-4.337,1.9,2.737-13.077,5.965Z" transform="translate(-1681.618 -7737.262)" fill="#ffd9a4"/>
      </g>
      <g id="Group_18731" data-name="Group 18731" transform="translate(16.194 42.7)">
        <path id="Path_28161" data-name="Path 28161" d="M1734.589,7818.587c4.45.5,5.513-43,.121-45.687,0,0-11.273-1.475-19.04,17.546C1715.67,7790.446,1721.374,7817.112,1734.589,7818.587Z" transform="translate(-1712.112 -7772.874)" fill="#ffd9a4"/>
        <path id="Path_28162" data-name="Path 28162" d="M1731.09,7859.234c-13.868-3.151-16.711-25.865-16.711-25.865a8.325,8.325,0,0,1,.888-1.813C1718.484,7848.93,1731.667,7859.365,1731.09,7859.234Z" transform="translate(-1711.211 -7813.835)" fill="#ffd9a4"/>
        <path id="Path_28163" data-name="Path 28163" d="M1728.318,7905.892s-2.24,8.519-18.094,30.935c0,0-3.043.117-6.336-4.057,0,0,2.361-18.933,10.716-30.273C1714.6,7902.5,1726.169,7901.016,1728.318,7905.892Z" transform="translate(-1703.888 -7863.206)" fill="#ffd9a4"/>
      </g>
      <g id="Group_18735" data-name="Group 18735" transform="translate(6.474)">
        <path id="Path_28164" data-name="Path 28164" d="M1698.657,7657.51c6.321-8.637,4.833-22.109,4.471-22.561-3.867-4.823-13.806-3.731-18.745-2.045-4.165,1.425-7.341,3.988-5.02,7.158.8,1.1,4-1.7,5.038-1.636,1.962.131,4.886,26.814,4.886,26.814Z" transform="translate(-1676.502 -7631.473)" fill="#ffd9a4"/>
        <g id="Group_18733" data-name="Group 18733" transform="translate(0 6.448)">
          <g id="Group_18732" data-name="Group 18732">
            <path id="Path_28165" data-name="Path 28165" d="M1680.627,7722.325l-1.107-1.634,1.307-.924Z" transform="translate(-1677.159 -7699.552)" fill="#ffd9a4"/>
            <path id="Path_28166" data-name="Path 28166" d="M1697.206,7675.948c-.677,2.316-7.406,7.556-14.365,7.625-1.279-8.986-1.763-23.907-.22-26.542,1.518-2.593,8.065-4.787,8.923-4.069-2.27,3.031,2.171,12.479,3.639,13.288C1698.761,7668.221,1697.913,7673.533,1697.206,7675.948Z" transform="translate(-1678.651 -7652.824)" fill="#ffd9a4"/>
            <path id="Path_28167" data-name="Path 28167" d="M1671.7,7704.23a64.062,64.062,0,0,0,3-7.8c.883-2.9,1.111,7.573,1.111,7.573S1672.758,7704.881,1671.7,7704.23Z" transform="translate(-1671.701 -7682.905)" fill="#ffd9a4"/>
            <path id="Path_28168" data-name="Path 28168" d="M1681.982,7749.559c-.717-.259-1.1-.9-.86-1.439a1.376,1.376,0,0,1,1.739-.5c.718.258,1.1.9.86,1.44A1.377,1.377,0,0,1,1681.982,7749.559Z" transform="translate(-1678.227 -7718.917)" fill="#ffd9a4"/>
            <path id="Path_28169" data-name="Path 28169" d="M1682.008,7738.63c-.034-.182.161-.37.436-.422s.524.055.558.235-.161.37-.435.421S1682.042,7738.811,1682.008,7738.63Z" transform="translate(-1678.893 -7712.416)" fill="#ffd9a4"/>
          </g>
          <path id="Path_28170" data-name="Path 28170" d="M1726.135,7692.814c.3-1.665,1.5-2.9,2.69-2.75s1.912,1.616,1.616,3.281-2.479,2.747-3.668,2.6S1725.839,7694.479,1726.135,7692.814Z" transform="translate(-1709.525 -7678.81)" fill="#ffd9a4"/>
        </g>
        <path id="Path_28171" data-name="Path 28171" d="M1683.035,7731.258l.279,2.285s.966.207,1.17-.012a4.192,4.192,0,0,0,.641-2.042Z" transform="translate(-1679.612 -7701.125)" fill="#ffd9a4"/>
        <path id="Path_28172" data-name="Path 28172" d="M1683.249,7731.542l.249,2.033a2.6,2.6,0,0,0,.865.075,3.006,3.006,0,0,0,.615-1.93Z" transform="translate(-1679.762 -7701.323)" fill="#ffd9a4"/>
        <path id="Path_28173" data-name="Path 28173" d="M1683.514,7687.86a.9.9,0,0,1,.278-.569c.4-.356,3.435.869,3.34,1.516l-.06.405c-.068.465-.954-.109-1.874-.317-.88-.2-1.8-.011-1.749-.451Z" transform="translate(-1679.9 -7670.391)" fill="#ffd9a4"/>
        <path id="Path_28174" data-name="Path 28174" d="M1687.844,7698.355c-.048-.544.209-1.04.577-1.109s.7.316.754.86-.209,1.042-.576,1.11S1687.894,7698.9,1687.844,7698.355Z" transform="translate(-1682.965 -7677.377)" fill="#ffd9a4"/>
        <path id="Path_28175" data-name="Path 28175" d="M1689.718,7731.814c-.017-.08.036-.133.12-.116a.249.249,0,0,1,.182.177c.018.08-.036.132-.12.117A.254.254,0,0,1,1689.718,7731.814Z" transform="translate(-1684.275 -7701.43)" fill="#ffd9a4"/>
        <g id="Group_18734" data-name="Group 18734" transform="translate(2.07 1.81)">
          <path id="Path_28176" data-name="Path 28176" d="M1714.007,7657.7c-2.989.423,2.656,13.686,1.2,14.769s.125,2.09.906,1.729c1.787-.824,1.841-4.687,1.8-7.142C1717.861,7664.325,1714.26,7657.665,1714.007,7657.7Z" transform="translate(-1702.682 -7651.59)" fill="#ffd9a4"/>
          <path id="Path_28177" data-name="Path 28177" d="M1678.692,7643.646c-.634-2.134,1-4.5,3.646-5.285s10.483-1.716,11.116.417-6.172,6.518-8.822,7.3S1679.324,7645.778,1678.692,7643.646Z" transform="translate(-1678.555 -7637.466)" fill="#ffd9a4"/>
        </g>
      </g>
    </g>
    <g id="Group_18743" data-name="Group 18743" transform="translate(212.159 51.53)">
      <g id="Group_18737" data-name="Group 18737" transform="translate(0 24.624)">
        <path id="Path_28178" data-name="Path 28178" d="M1506.034,7762.661l1.066.3.522,2.609-2.328,1.1Z" transform="translate(-1492.469 -7747.833)" fill="#ffac00"/>
        <path id="Path_28179" data-name="Path 28179" d="M1509.506,7717.8l9.611-4.241,1.383,15.828-13.828,4.962Z" transform="translate(-1493.43 -7713.559)" fill="#ffac00"/>
        <path id="Path_28180" data-name="Path 28180" d="M1469.906,7883.3l18.936,4.586,2.754,27.838-16.423,1.726Z" transform="translate(-1467.767 -7832.04)" fill="#ffac00"/>
        <path id="Path_28181" data-name="Path 28181" d="M1504.151,7840.391c-11.867.42-25.906-3.124-32.819-16.333-3.74-7.148-4.46-19.273-5.409-31.271-1.267-16.04,15.317-38.2,29.874-34.337,20.232,5.372,8.832,32.214,6.926,39.228C1497.138,7818.223,1503.4,7835.941,1504.151,7840.391Z" transform="translate(-1464.939 -7744.583)" fill="#ffac00"/>
        <path id="Path_28182" data-name="Path 28182" d="M1523.239,7868.121c-.16-5.281,1.264-21.621,10-40.22,1.695-3.609,3.221-14.168,4.741-23,.568-3.3,6.519,2.616,7.838,10.546.818,4.916-2.323,11.631-3.052,14.315-5.585,20.546.68,38.263,1.428,42.714C1537.339,7872.718,1529.756,7871.631,1523.239,7868.121Z" transform="translate(-1504.987 -7776.667)" fill="#ffac00"/>
        <path id="Path_28183" data-name="Path 28183" d="M1467.745,7807.833c.193-20.8,15.313-41.893,29.427-48.285,2.371-1.073.132-2.774-6.723-1.854C1484.318,7758.545,1460.125,7771.865,1467.745,7807.833Z" transform="translate(-1465.233 -7744.183)" fill="#ffac00"/>
        <path id="Path_28184" data-name="Path 28184" d="M1467.02,7794.834c1.625-17.545,7.76-26.979,22.614-36.527-5.979.828-29.484,9.96-23.583,43.765C1466.2,7802.933,1466.739,7797.868,1467.02,7794.834Z" transform="translate(-1464.419 -7744.794)" fill="#ffac00"/>
        <path id="Path_28185" data-name="Path 28185" d="M1480.724,7957.667c-.128-.726.173-1.387.674-1.475s1.012.426,1.141,1.151-.173,1.387-.674,1.474S1480.853,7958.392,1480.724,7957.667Z" transform="translate(-1475.297 -7882.916)" fill="#ffac00"/>
        <path id="Path_28186" data-name="Path 28186" d="M1475.659,7929.2c-.129-.724.173-1.385.674-1.476s1.012.429,1.14,1.153-.172,1.386-.673,1.474S1475.789,7929.922,1475.659,7929.2Z" transform="translate(-1471.762 -7863.042)" fill="#ffac00"/>
        <path id="Path_28187" data-name="Path 28187" d="M1509.4,7766.152l-3.514,1.383,1.083-3.936.661-.393Z" transform="translate(-1492.884 -7748.214)" fill="#ffac00"/>
        <path id="Path_28188" data-name="Path 28188" d="M1464.435,7815.387l.822-7.087s-4.09-21.837,11.328-33.517l-.217-.547C1463.712,7784.262,1460.425,7800.733,1464.435,7815.387Z" transform="translate(-1462.823 -7755.914)" fill="#ffac00"/>
        <path id="Path_28189" data-name="Path 28189" d="M1507.745,7752.636l13.865-4.339,1.9,2.737L1510.434,7757Z" transform="translate(-1494.179 -7737.807)" fill="#ffac00"/>
      </g>
      <g id="Group_18738" data-name="Group 18738" transform="translate(16.194 42.7)">
        <path id="Path_28190" data-name="Path 28190" d="M1547.152,7819.132c4.45.5,5.513-43,.121-45.687,0,0-11.274-1.475-19.04,17.545C1528.232,7790.991,1533.936,7817.658,1547.152,7819.132Z" transform="translate(-1524.674 -7773.419)" fill="#ffac00"/>
        <path id="Path_28191" data-name="Path 28191" d="M1543.651,7859.78c-13.869-3.15-16.712-25.865-16.712-25.865a8.315,8.315,0,0,1,.888-1.814C1531.046,7849.476,1544.228,7859.911,1543.651,7859.78Z" transform="translate(-1523.772 -7814.38)" fill="#ffac00"/>
        <path id="Path_28192" data-name="Path 28192" d="M1540.879,7906.438s-2.24,8.521-18.094,30.935c0,0-3.043.118-6.335-4.057,0,0,2.361-18.933,10.716-30.273C1527.166,7903.042,1538.731,7901.563,1540.879,7906.438Z" transform="translate(-1516.45 -7863.752)" fill="#ffac00"/>
      </g>
      <g id="Group_18742" data-name="Group 18742" transform="translate(6.474)">
        <path id="Path_28193" data-name="Path 28193" d="M1511.218,7658.056c6.321-8.638,4.833-22.108,4.471-22.561-3.868-4.823-13.807-3.731-18.746-2.044-4.165,1.423-7.34,3.987-5.02,7.157.8,1.1,4-1.7,5.038-1.635,1.962.131,4.886,26.813,4.886,26.813Z" transform="translate(-1489.063 -7632.019)" fill="#ffac00"/>
        <g id="Group_18740" data-name="Group 18740" transform="translate(0 6.448)">
          <g id="Group_18739" data-name="Group 18739">
            <path id="Path_28194" data-name="Path 28194" d="M1493.188,7722.87l-1.108-1.632,1.307-.925Z" transform="translate(-1489.719 -7700.098)" fill="#ffac00"/>
            <path id="Path_28195" data-name="Path 28195" d="M1509.768,7676.495c-.677,2.316-7.406,7.557-14.365,7.625-1.279-8.986-1.763-23.907-.221-26.542,1.518-2.592,8.065-4.786,8.923-4.068-2.27,3.031,2.172,12.478,3.64,13.287C1511.323,7668.768,1510.474,7674.08,1509.768,7676.495Z" transform="translate(-1491.212 -7653.372)" fill="#ffac00"/>
            <path id="Path_28196" data-name="Path 28196" d="M1484.262,7704.777a64.127,64.127,0,0,0,3-7.806c.883-2.9,1.11,7.573,1.11,7.573S1485.318,7705.428,1484.262,7704.777Z" transform="translate(-1484.262 -7683.451)" fill="#ffac00"/>
            <path id="Path_28197" data-name="Path 28197" d="M1494.543,7750.1c-.717-.259-1.1-.9-.859-1.44a1.378,1.378,0,0,1,1.739-.5c.718.26,1.1.9.86,1.441A1.378,1.378,0,0,1,1494.543,7750.1Z" transform="translate(-1490.788 -7719.462)" fill="#ffac00"/>
            <path id="Path_28198" data-name="Path 28198" d="M1494.569,7739.176c-.033-.181.161-.369.436-.42s.524.053.558.233-.161.371-.435.422S1494.6,7739.356,1494.569,7739.176Z" transform="translate(-1491.454 -7712.962)" fill="#ffac00"/>
          </g>
          <path id="Path_28199" data-name="Path 28199" d="M1538.7,7693.359c.3-1.665,1.5-2.9,2.69-2.749s1.912,1.615,1.617,3.28-2.479,2.747-3.668,2.6S1538.4,7695.024,1538.7,7693.359Z" transform="translate(-1522.086 -7679.355)" fill="#ffac00"/>
        </g>
        <path id="Path_28200" data-name="Path 28200" d="M1495.6,7731.8l.279,2.286s.967.207,1.17-.013a4.2,4.2,0,0,0,.641-2.041Z" transform="translate(-1492.173 -7701.669)" fill="#ffac00"/>
        <path id="Path_28201" data-name="Path 28201" d="M1495.81,7732.089l.249,2.031a2.625,2.625,0,0,0,.865.076,3.009,3.009,0,0,0,.615-1.931Z" transform="translate(-1492.323 -7701.87)" fill="#ffac00"/>
        <path id="Path_28202" data-name="Path 28202" d="M1496.075,7688.406a.9.9,0,0,1,.278-.571c.4-.354,3.435.87,3.34,1.516l-.06.407c-.068.464-.953-.112-1.874-.318-.879-.2-1.8-.012-1.749-.451Z" transform="translate(-1492.461 -7670.936)" fill="#ffac00"/>
        <path id="Path_28203" data-name="Path 28203" d="M1500.4,7698.9c-.049-.545.209-1.041.577-1.111s.7.317.754.861-.209,1.043-.576,1.111S1500.454,7699.446,1500.4,7698.9Z" transform="translate(-1495.526 -7677.923)" fill="#ffac00"/>
        <path id="Path_28204" data-name="Path 28204" d="M1502.279,7732.361c-.017-.08.036-.133.12-.116a.249.249,0,0,1,.183.176c.017.081-.036.133-.12.116A.249.249,0,0,1,1502.279,7732.361Z" transform="translate(-1496.836 -7701.977)" fill="#ffac00"/>
        <g id="Group_18741" data-name="Group 18741" transform="translate(2.07 1.81)">
          <path id="Path_28205" data-name="Path 28205" d="M1526.568,7658.247c-2.989.423,2.656,13.687,1.2,14.769s.125,2.09.906,1.729c1.787-.824,1.84-4.687,1.8-7.141C1530.422,7664.872,1526.821,7658.21,1526.568,7658.247Z" transform="translate(-1515.243 -7652.135)" fill="#ffac00"/>
          <path id="Path_28206" data-name="Path 28206" d="M1491.253,7644.192c-.634-2.133,1-4.5,3.647-5.285s10.483-1.714,11.115.418-6.173,6.518-8.821,7.3S1491.885,7646.324,1491.253,7644.192Z" transform="translate(-1491.116 -7638.013)" fill="#ffac00"/>
        </g>
      </g>
    </g>
    <g id="Group_18749" data-name="Group 18749" transform="translate(239.698 63.522)">
      <g id="Group_18744" data-name="Group 18744" transform="translate(0 27.326)">
        <path id="Path_28207" data-name="Path 28207" d="M1615.2,7762.221l-6.718,4.222-1.206,14.526,5.4-1.954Z" transform="translate(-1591.193 -7762.221)" fill="#ebebeb"/>
        <path id="Path_28208" data-name="Path 28208" d="M1557.34,7885.1c4.317-2.828,14.34-9.08,25.455-1.34-3.324-9.763-6.344-19.36-6.45-27.391-.2-14.886,12.453-32.37,1.984-39.1-11.115-7.146-24.314,25.854-24.314,25.854C1565.13,7849.372,1562.055,7867.3,1557.34,7885.1Z" transform="translate(-1554.015 -7799.938)" fill="#ebebeb"/>
        <path id="Path_28209" data-name="Path 28209" d="M1607.307,7814.646l-1.953-.229-8.728,8.212,2.584,2.182S1605.068,7818.838,1607.307,7814.646Z" transform="translate(-1583.759 -7798.655)" fill="#ebebeb"/>
        <path id="Path_28210" data-name="Path 28210" d="M1584.367,7824.537c-.042-.028-.08-.057-.122-.088,2.3-4.595,7.337-11.633,12.2-11.181C1592.019,7817.215,1584.367,7824.537,1584.367,7824.537Z" transform="translate(-1575.116 -7797.838)" fill="#ebebeb"/>
      </g>
      <g id="Group_18746" data-name="Group 18746" transform="translate(12.471 48.243)">
        <g id="Group_18745" data-name="Group 18745" transform="translate(0 46.307)">
          <path id="Path_28211" data-name="Path 28211" d="M1601.547,8007.229c-.3-.394.355-1,1.185-1.57s1.524-.894,1.824-.5-.132,1.174-.964,1.744S1601.845,8007.622,1601.547,8007.229Z" transform="translate(-1599.613 -7998.9)" fill="#ebebeb"/>
          <path id="Path_28212" data-name="Path 28212" d="M1605.457,8009.748c-.3-.391.353-1,1.185-1.567s1.524-.9,1.823-.5-.133,1.175-.964,1.746S1605.755,8010.141,1605.457,8009.748Z" transform="translate(-1602.342 -8000.659)" fill="#ebebeb"/>
          <path id="Path_28213" data-name="Path 28213" d="M1595.411,8003.7c.353-.36,1.414.388,2.518,1.346s1.831,1.764,1.479,2.126-1.53-.125-2.634-1.085S1595.06,8004.06,1595.411,8003.7Z" transform="translate(-1595.312 -7997.938)" fill="#ebebeb"/>
          <path id="Path_28214" data-name="Path 28214" d="M1602.315,7984.833c-1.726,1.3-7.466,4.98-6.226,6.941,1.111,1.755,4.948,2.284,7.856-5.7Z" transform="translate(-1595.733 -7984.833)" fill="#ebebeb"/>
        </g>
        <path id="Path_28215" data-name="Path 28215" d="M1619.457,7942.555c4.169,2.868,17.138-15.4,17.193-16.476,0,0-2.272-3.1-3.238-2.283C1630.914,7925.916,1617.595,7941.274,1619.457,7942.555Z" transform="translate(-1612.042 -7895.825)" fill="#ebebeb"/>
        <path id="Path_28216" data-name="Path 28216" d="M1637.44,7831.87c4.789-4.3,12.881,29.072,11.485,30.367,0,0-3.066,1.707-4.191.546C1641.333,7859.277,1635.3,7833.792,1637.44,7831.87Z" transform="translate(-1624.406 -7831.487)" fill="#ebebeb"/>
        <path id="Path_28217" data-name="Path 28217" d="M1614.74,7975.735l-.866-1.187,1.927-5.431s1.967,1.727,2.12,2.353S1614.74,7975.735,1614.74,7975.735Z" transform="translate(-1608.269 -7927.557)" fill="#ebebeb"/>
        <path id="Path_28218" data-name="Path 28218" d="M1616.434,7982.823l1.323.725,5.476-2.365a11.256,11.256,0,0,0-2.659-1.827C1619.909,7979.266,1616.434,7982.823,1616.434,7982.823Z" transform="translate(-1610.056 -7934.701)" fill="#ebebeb"/>
      </g>
      <g id="Group_18748" data-name="Group 18748" transform="translate(6.077)">
        <path id="Path_28219" data-name="Path 28219" d="M1660.283,7672.12c2.655-1.182,5.945.416,7.35,3.571s.392,6.669-2.263,7.851-5.945-.416-7.349-3.571S1657.629,7673.3,1660.283,7672.12Z" transform="translate(-1632.248 -7671.73)" fill="#ebebeb"/>
        <path id="Path_28220" data-name="Path 28220" d="M1653.5,7690.833c1.208-.445,2.8.862,3.562,2.918s.394,4.085-.814,4.531-2.8-.861-3.562-2.917S1652.292,7691.279,1653.5,7690.833Z" transform="translate(-1628.691 -7685.004)" fill="#ebebeb"/>
        <g id="Group_18747" data-name="Group 18747" transform="translate(0 4.714)">
          <path id="Path_28221" data-name="Path 28221" d="M1599.543,7717.688c3.583-.983,10.8-2.13,14.271-7.541,4.518-7.031,3.371-11.383,1.865-16.675-2.871-10.09-20.08-5.364-19-2.393C1598.1,7695.027,1586.56,7721.253,1599.543,7717.688Z" transform="translate(-1587.517 -7687.341)" fill="#ebebeb"/>
          <path id="Path_28222" data-name="Path 28222" d="M1583.047,7727.9c-1.306,0-3.643-6.751-4.339-11.926-.23-1.706,1.608-1.907,1.493-7.73-.068-3.417,1.511-8.149,7.235-11.544,5.4-3.2,5.805,7.4,6.268,9.853,1.319,6.981,3.1,11.365,1.311,14.742C1591.519,7727.9,1584.459,7727.567,1583.047,7727.9Z" transform="translate(-1577.314 -7693.459)" fill="#ebebeb"/>
          <path id="Path_28223" data-name="Path 28223" d="M1592.7,7770.633a.3.3,0,0,0-.272-.327.318.318,0,0,0-.261.348.3.3,0,0,0,.273.326A.315.315,0,0,0,1592.7,7770.633Z" transform="translate(-1586.723 -7745.252)" fill="#ebebeb"/>
          <path id="Path_28224" data-name="Path 28224" d="M1591.137,7739.218c-.031-.92-.569-1.637-1.2-1.606s-1.118.8-1.087,1.722.568,1.636,1.2,1.6S1591.169,7740.136,1591.137,7739.218Z" transform="translate(-1584.407 -7722.429)" fill="#ebebeb"/>
          <path id="Path_28225" data-name="Path 28225" d="M1590.143,7739.079c-.884-1.271-2.145-2.539-4.548-1.7A8.777,8.777,0,0,1,1590.143,7739.079Z" transform="translate(-1582.135 -7722.081)" fill="#ebebeb"/>
          <path id="Path_28226" data-name="Path 28226" d="M1584.646,7783.5c-.039-.213-.694.542-1.005.569-.879.073-.628,1.2.249,1.031C1584.232,7785.033,1584.687,7783.722,1584.646,7783.5Z" transform="translate(-1580.389 -7754.434)" fill="#ebebeb"/>
          <path id="Path_28227" data-name="Path 28227" d="M1584.224,7770.644c.6-.237-3.425-1.4-2.7-.032A6.335,6.335,0,0,0,1584.224,7770.644Z" transform="translate(-1579.234 -7745.01)" fill="#ebebeb"/>
          <path id="Path_28228" data-name="Path 28228" d="M1586.08,7721.833a5.356,5.356,0,0,1,5.954,4.187C1590.624,7723.429,1589.4,7722.37,1586.08,7721.833Z" transform="translate(-1582.474 -7711.403)" fill="#ebebeb"/>
          <path id="Path_28229" data-name="Path 28229" d="M1575.056,7751.4l2.021.618.073-5.163-3.013,3.675Z" transform="translate(-1574.138 -7728.882)" fill="#ebebeb"/>
          <path id="Path_28230" data-name="Path 28230" d="M1577.776,7764.322l-1.571-3.2,1.518-.054Z" transform="translate(-1575.581 -7738.807)" fill="#ebebeb"/>
          <path id="Path_28231" data-name="Path 28231" d="M1581.981,7775.979a38.069,38.069,0,0,1-1-4.481h3.65S1583.91,7775.363,1581.981,7775.979Z" transform="translate(-1578.917 -7746.084)" fill="#ebebeb"/>
          <path id="Path_28232" data-name="Path 28232" d="M1584.019,7774.072h-2.079q-.181-.847-.334-1.763h2.984Z" transform="translate(-1579.351 -7746.65)" fill="#ebebeb"/>
          <path id="Path_28233" data-name="Path 28233" d="M1637.878,7747.949c-.082-1.593-.621-2.767.587-2.826s2.258,1.183,2.34,2.777-.834,2.933-2.044,2.993S1637.959,7749.543,1637.878,7747.949Z" transform="translate(-1618.497 -7727.672)" fill="#ebebeb"/>
        </g>
        <path id="Path_28234" data-name="Path 28234" d="M1599.218,7695.322c3.834,5.793,10.552,14.265,8.936,22.52,3.4-8.789,1.882-20.514-3.949-25.341C1603.591,7693.382,1598.371,7693.117,1599.218,7695.322Z" transform="translate(-1591.58 -7686.229)" fill="#ebebeb"/>
      </g>
    </g>
    <g id="Group_18758" data-name="Group 18758" transform="translate(221.653 145.759)">
      <rect id="Rectangle_6638" data-name="Rectangle 6638" width="125.373" height="44.598" rx="6.672" transform="translate(0 0)" fill="#fff" stroke="#231f20" stroke-miterlimit="10" stroke-width="0.25"/>
      <text id="Legal_Department" data-name="Legal Department" transform="translate(21.166 25.736)" fill="#2d356b" font-size="10" font-family="TrebuchetMS-Bold, Trebuchet MS" font-weight="700"><tspan x="0" y="0">Legal Department</tspan></text>
    </g>
  </g>
</svg>
