<svg xmlns="http://www.w3.org/2000/svg" width="437.433" height="206.976" viewBox="0 0 437.433 206.976">
  <g id="Group_14879" data-name="Group 14879" transform="translate(-91.663 -2719.543)">
    <g id="Group_14847" data-name="Group 14847" transform="translate(91.663 2743.979)">
      <g id="Group_14845" data-name="Group 14845" transform="translate(0)">
        <g id="Group_14835" data-name="Group 14835" transform="translate(11.85)">
          <g id="Group_14834" data-name="Group 14834">
            <path id="Path_21921" data-name="Path 21921" d="M492.8,2027.767c-5.96-8.2,2.17-12.4,1.946-20.46s-7.215-5.812-7.89-16.237,5.7-12.927,6.205-18.942-7.645-7.878-3.963-15.293,9.408-7.076,12.595-12.963,11.913-8.848,16.566-5.857,10.8-6.8,18.924-.741,6.762,17.206,8.965,23.642,10.425,9.492,11.157,20.807-5.1,8.406-2.807,16.331,9.718,7.743,10.451,19.061c0,0,.437,11.334-11.54,10.016s-8.555,5.638-21.374.488-9.051,7.165-18,2.062S499.65,2037.191,492.8,2027.767Z" transform="translate(-486.802 -1935.255)" fill="#2d356b"/>
          </g>
        </g>
        <g id="Group_14837" data-name="Group 14837" transform="translate(58.512 77.25)">
          <g id="Group_14836" data-name="Group 14836" transform="translate(11.682 72.853)">
            <path id="Path_21922" data-name="Path 21922" d="M675.5,2430.118c-.457-.6.543-1.538,1.819-2.417s2.34-1.375,2.8-.771-.2,1.808-1.479,2.687S675.961,2430.722,675.5,2430.118Z" transform="translate(-672.534 -2417.294)" fill="#f7c371"/>
            <path id="Path_21923" data-name="Path 21923" d="M681.086,2433.729c-.458-.605.543-1.537,1.819-2.416s2.339-1.378,2.8-.773-.2,1.806-1.48,2.688S681.545,2434.332,681.086,2433.729Z" transform="translate(-676.304 -2419.733)" fill="#f7c371"/>
            <path id="Path_21924" data-name="Path 21924" d="M666.74,2424.83c.539-.555,2.172.6,3.866,2.073s2.812,2.715,2.271,3.273-2.35-.192-4.045-1.669S666.2,2425.385,666.74,2424.83Z" transform="translate(-666.587 -2415.959)" fill="#ffd8a3"/>
            <path id="Path_21925" data-name="Path 21925" d="M677.274,2397.792c-2.649,2-11.466,7.668-9.559,10.688,1.705,2.7,7.6,3.516,12.06-8.779Z" transform="translate(-667.168 -2397.792)" fill="#ffd8a3"/>
          </g>
          <path id="Path_21926" data-name="Path 21926" d="M630.725,2174.23c6.091-7.825,45.981,36.126,46.723,38.1,0,0-2.4,7.136-4.7,6.18C666.818,2216.042,628.006,2177.724,630.725,2174.23Z" transform="translate(-630.589 -2173.298)" fill="#0080af"/>
          <path id="Path_21927" data-name="Path 21927" d="M699.945,2325.26c-6.919-3.008,16.347-37.058,17.673-37.971,0,0,5.725.432,5.443,2.293C722.33,2294.4,703.035,2326.6,699.945,2325.26Z" transform="translate(-676.571 -2250.297)" fill="#0080af"/>
          <path id="Path_21928" data-name="Path 21928" d="M699.106,2392.451l2.29.667,7.261-5.441s-3.721-1.992-4.76-1.9S699.106,2392.451,699.106,2392.451Z" transform="translate(-676.871 -2316.818)" fill="#eaeaea"/>
          <path id="Path_21929" data-name="Path 21929" d="M695.714,2384.595l-1.833-1.552.631-9.059s3.749,2.023,4.249,2.939S695.714,2384.595,695.714,2384.595Z" transform="translate(-673.341 -2308.857)" fill="#eaeaea"/>
        </g>
        <g id="Group_14838" data-name="Group 14838" transform="translate(18.769 54.402)">
          <path id="Path_21930" data-name="Path 21930" d="M508.123,2247.091s12.119,10.733,24.237,14.759l6.312-13.641,5.807,13.641s16.382-4.615,22.974-14.759c-13.35-19.356-18.623-35.507-4.78-55.655,0,0-5.572-36.028-25.769-36.923s-23.8,38.406-23.8,38.406C526.237,2212.6,530.536,2221.143,508.123,2247.091Z" transform="translate(-508.123 -2137.751)" fill="#03b4e9"/>
          <path id="Path_21931" data-name="Path 21931" d="M572.913,2171.416a12.232,12.232,0,0,1,7.825,2.823c2.048-4.658,3.414-10.387,1.953-16.234-12.3-9.245-19.872.96-19.872.96s-1.611,6.368,2.724,14.931A12.2,12.2,0,0,1,572.913,2171.416Z" transform="translate(-544.871 -2137.503)" fill="#fff"/>
          <path id="Path_21932" data-name="Path 21932" d="M573.906,2157.418s-2.045,10.259,7.253,21.391c0,0,7.9-10.835,5.672-22.185C578.834,2148.984,573.906,2157.418,573.906,2157.418Z" transform="translate(-552.429 -2137.025)" fill="#f7c371"/>
          <rect id="Rectangle_5311" data-name="Rectangle 5311" width="10.547" height="19.772" transform="translate(22.743)" fill="#f7c371"/>
          <path id="Path_21933" data-name="Path 21933" d="M606.055,2302.943a1.483,1.483,0,1,0-1.483,1.483A1.483,1.483,0,0,0,606.055,2302.943Z" transform="translate(-572.271 -2237.02)" fill="#fff"/>
          <path id="Path_21934" data-name="Path 21934" d="M606.055,2338.661a1.483,1.483,0,1,0-1.483,1.483A1.483,1.483,0,0,0,606.055,2338.661Z" transform="translate(-572.271 -2261.147)" fill="#fff"/>
          <path id="Path_21935" data-name="Path 21935" d="M606.055,2410.1a1.483,1.483,0,1,0-1.483,1.483A1.483,1.483,0,0,0,606.055,2410.1Z" transform="translate(-572.271 -2309.401)" fill="#fff"/>
          <path id="Path_21936" data-name="Path 21936" d="M606.055,2374.379a1.483,1.483,0,1,0-1.483,1.483A1.483,1.483,0,0,0,606.055,2374.379Z" transform="translate(-572.271 -2285.274)" fill="#fff"/>
        </g>
        <g id="Group_14840" data-name="Group 14840" transform="translate(0 77.605)">
          <path id="Path_21937" data-name="Path 21937" d="M483.389,2174.8c-8.162-5.633-32.989,48.28-33.1,50.39,0,0,4.438,6.083,6.338,4.482C461.54,2225.534,487.033,2177.318,483.389,2174.8Z" transform="translate(-450.287 -2174.392)" fill="#0080af"/>
          <g id="Group_14839" data-name="Group 14839" transform="translate(29.513 73.92)">
            <path id="Path_21938" data-name="Path 21938" d="M541.229,2405.069c3.886,3.32,6.432,15.649,10.374,13.567,3.532-1.865,6.447-10.086-7.67-16.462Z" transform="translate(-541.229 -2402.174)" fill="#ffd9a4"/>
            <path id="Path_21939" data-name="Path 21939" d="M561.7,2416.345c-6.444,2.9-2.886,10.735-1.2,12.943,1.86,2.428,7.357,1.568,8.634-.5S564.164,2415.242,561.7,2416.345Z" transform="translate(-552.551 -2411.696)" fill="#ffd9a4"/>
            <path id="Path_21940" data-name="Path 21940" d="M575.218,2425.136c3.968,1.264,9.113.8,9.182-.79.082-1.8-4.265-.567-7.551-2.57-3.563-2.161-5.914-3.331-6.822-2S571.243,2423.874,575.218,2425.136Z" transform="translate(-560.541 -2413.683)" fill="#ffd9a4"/>
            <path id="Path_21941" data-name="Path 21941" d="M586.882,2442.928c2.185,2.822,3.974,3.794,4.655,3.128s-.661-2.2-2.84-5.018-4.25-6.949-4.933-6.284S584.709,2440.1,586.882,2442.928Z" transform="translate(-569.854 -2424.133)" fill="#ffd9a4"/>
            <path id="Path_21942" data-name="Path 21942" d="M579.019,2453.551c1.6,3.268,4.44,5.381,5.228,4.876s-1.4-3.152-3-6.42-2.819-5.3-3.605-4.79S577.417,2450.285,579.019,2453.551Z" transform="translate(-565.585 -2432.547)" fill="#ffd9a4"/>
            <path id="Path_21943" data-name="Path 21943" d="M564.3,2450.583c1.733,3.2,3.423,4.59,4.195,4.064s-.767-2.417-2.5-5.613-2.992-5.413-3.765-4.885S562.569,2447.383,564.3,2450.583Z" transform="translate(-555.247 -2430.476)" fill="#ffd9a4"/>
          </g>
          <path id="Path_21944" data-name="Path 21944" d="M484.2,2350.444c5.694-4.949-26.733-30.427-28.273-30.9,0,0-5.331,2.133-4.5,3.824C453.567,2327.741,481.653,2352.654,484.2,2350.444Z" transform="translate(-450.994 -2272.44)" fill="#0080af"/>
          <path id="Path_21945" data-name="Path 21945" d="M534.615,2405.4l-1.983,1.325-8.561-3.006s2.95-3.019,3.967-3.248S534.615,2405.4,534.615,2405.4Z" transform="translate(-500.126 -2327.097)" fill="#eaeaea"/>
          <path id="Path_21946" data-name="Path 21946" d="M545.4,2394.29l1.281-2.031-3.325-8.451s-2.967,3.057-3.168,4.081S545.4,2394.29,545.4,2394.29Z" transform="translate(-511.007 -2315.849)" fill="#eaeaea"/>
        </g>
        <g id="Group_14841" data-name="Group 14841" transform="translate(27.629 16.92)">
          <path id="Path_21947" data-name="Path 21947" d="M558.963,2034.408c-6.55.424-22.457-16.523-17.79-38.919.945-4.527,5.612-7.4,14.752-7.991,10.053-.651,14.828,1.769,15.794,5.323C578.547,2017.95,565.666,2033.974,558.963,2034.408Z" transform="translate(-538.737 -1987.393)" fill="#ffd8a3"/>
          <path id="Path_21948" data-name="Path 21948" d="M598.78,2020.595c2.162-.9,6.986-2.267,10.774,3.16C606.209,2020.672,603.9,2019.73,598.78,2020.595Z" transform="translate(-578.22 -2009.25)" fill="#2d356b"/>
          <path id="Path_21949" data-name="Path 21949" d="M558.463,2022.907c-2.254-.588-7.192-1.269-10.193,4.632C551.15,2024.022,553.3,2022.768,558.463,2022.907Z" transform="translate(-544.101 -2011.129)" fill="#2d356b"/>
          <path id="Path_21950" data-name="Path 21950" d="M615.949,2043.688c-.135-1.246-1.029-2.168-2-2.061a2.337,2.337,0,1,0,2,2.061Z" transform="translate(-587.436 -2024.021)" fill="#2d356b"/>
          <path id="Path_21951" data-name="Path 21951" d="M611.35,2041.67c-1.979-1.086-4.5-1.956-7.454.451A15.144,15.144,0,0,1,611.35,2041.67Z" transform="translate(-581.675 -2023.32)" fill="#2d356b"/>
          <path id="Path_21952" data-name="Path 21952" d="M566.185,2046.9a1.819,1.819,0,1,1,1.813,2.229A2.059,2.059,0,0,1,566.185,2046.9Z" transform="translate(-556.202 -2026.036)" fill="#2d356b"/>
          <path id="Path_21953" data-name="Path 21953" d="M556.517,2046.566c1.6-1.589,3.783-3.12,7.286-1.622A15.142,15.142,0,0,0,556.517,2046.566Z" transform="translate(-549.672 -2025.854)" fill="#2d356b"/>
          <path id="Path_21954" data-name="Path 21954" d="M587.968,2063.137a4.809,4.809,0,0,0,2.015.687,2.8,2.8,0,0,0,1.9-1.022c.052-.547-1.769-6.474-2.281-6.5S587.88,2062.356,587.968,2063.137Z" transform="translate(-570.913 -2033.943)" fill="#ffab00"/>
          <path id="Path_21955" data-name="Path 21955" d="M590.962,2060.23c.011.122.6.277.809.264.351-.022.763-.23.764-.449,0-.528-.107-6.526-1.162-6.4C590.216,2053.781,590.9,2059.467,590.962,2060.23Z" transform="translate(-572.765 -2032.144)" fill="#ffd8a3"/>
          <path id="Path_21956" data-name="Path 21956" d="M594.722,2108.41c-.047-.729-.849-.606-1.888-.539s-1.922.053-1.875.783.927,1.265,1.967,1.2S594.769,2109.14,594.722,2108.41Z" transform="translate(-572.936 -2068.738)" fill="#f36973"/>
          <path id="Path_21957" data-name="Path 21957" d="M591.405,2087.25c-2.278-1.041-2.933.086-3.442.119-.647.042-1.367-1.01-3.522.332-.62.385,1.643,1.219,3.568,1.094S592.071,2087.552,591.405,2087.25Z" transform="translate(-568.464 -2054.547)" fill="#f36973"/>
          <path id="Path_21958" data-name="Path 21958" d="M579.77,2088.682l10.114-.655s-.885,7.365-4.586,7.605S579.77,2088.682,579.77,2088.682Z" transform="translate(-565.379 -2055.369)" fill="#ffab00"/>
          <path id="Path_21959" data-name="Path 21959" d="M590.6,2089.318l-8.711.564,1.149,2.9,6.8-.44Z" transform="translate(-566.811 -2056.241)" fill="#fff"/>
          <path id="Path_21960" data-name="Path 21960" d="M610.571,2086.685a.516.516,0,1,0-.47.626A.557.557,0,0,0,610.571,2086.685Z" transform="translate(-585.496 -2054.083)" fill="#ffab00"/>
          <path id="Path_21961" data-name="Path 21961" d="M578.958,2088.732a.516.516,0,1,0-.47.626A.558.558,0,0,0,578.958,2088.732Z" transform="translate(-564.142 -2055.465)" fill="#ffab00"/>
          <path id="Path_21962" data-name="Path 21962" d="M538.071,2061.069c-.4-1.424-.287-2.609-1.337-2.312s-1.578,1.691-1.174,3.115,1.58,2.336,2.63,2.039S538.474,2062.493,538.071,2061.069Z" transform="translate(-535.424 -2035.567)" fill="#f7c371"/>
          <path id="Path_21963" data-name="Path 21963" d="M641.916,2054.438c.18-1.468-.127-2.626.989-2.489s1.877,1.442,1.7,2.912-1.231,2.547-2.346,2.412S641.737,2055.909,641.916,2054.438Z" transform="translate(-607.14 -2030.992)" fill="#f7c371"/>
        </g>
        <g id="Group_14844" data-name="Group 14844" transform="translate(26.946 11.924)">
          <g id="Group_14843" data-name="Group 14843" transform="translate(13.277)">
            <path id="Path_21964" data-name="Path 21964" d="M596.567,1986.834c-5.9-1.817-20.7-6.989-22.335-14.292,0,0,14.431-2.786,18.213,4.261C597.224,1985.7,596.567,1986.834,596.567,1986.834Z" transform="translate(-574.232 -1971.999)" fill="#2d356b"/>
            <g id="Group_14842" data-name="Group 14842" transform="translate(1.22 3.036)">
              <path id="Path_21965" data-name="Path 21965" d="M588.292,1990.536c1.378,1.752,9.342,7.449,14.738,9.055S588.292,1990.536,588.292,1990.536Z" transform="translate(-584.949 -1987.556)" fill="#2d356b"/>
              <path id="Path_21966" data-name="Path 21966" d="M577.992,1981.354a27.579,27.579,0,0,0,6.385,8.686C587.117,1992.234,577.992,1981.354,577.992,1981.354Z" transform="translate(-577.992 -1981.354)" fill="#2d356b"/>
            </g>
          </g>
          <path id="Path_21967" data-name="Path 21967" d="M533.386,2001.208c4.469-2.488,15.6-9.34,16.04-16.777,0,0-11.759-1.09-13.938,6.343C532.735,2000.158,533.386,2001.208,533.386,2001.208Z" transform="translate(-533.319 -1980.358)" fill="#2d356b"/>
        </g>
      </g>
      <g id="Group_14846" data-name="Group 14846" transform="translate(0.28 156.667)">
        <rect id="Rectangle_5312" data-name="Rectangle 5312" width="72.318" height="31.682" rx="6.672" transform="translate(15.246 -5.933)" fill="#fff" stroke="#231f20" stroke-miterlimit="10" stroke-width="0.25"/>
        <text id="Akiko" transform="translate(38.405 13.408)" fill="#2d356b" font-size="10" font-family="TrebuchetMS-Bold, Trebuchet MS" font-weight="700"><tspan x="0" y="0">Akiko</tspan></text>
      </g>
    </g>
    <g id="Group_14849" data-name="Group 14849" transform="translate(171.401 2721.549)">
      <g id="Group_14848" data-name="Group 14848" transform="translate(0)">
        <path id="Path_21968" data-name="Path 21968" d="M848.209,1977.979c-13.289,18.007-8.781,39.552,11.487,50.028,21.528,11.128,52.865,5.645,70.9-12.151,9.777,11.971,26.047,22.187,45.811,27.389,36.432,9.589,70.928-1.486,77.048-24.738a29.535,29.535,0,0,0,.156-14.106c30.059,12.517,50.276,4.851,62.65-20.8,9.131-18.928-1.612-55.211-46.075-66.915-5.669-1.492-11.272-2.677-16.745-3.57.231-.635,2.487-4.136,1.215-10.823-5.528-29.07-40.956-37.519-79.692-35.981-32.617,1.3-51.549,17.5-61.679,32.958,0,0-85.071-41.3-112.238,21.281C801.043,1920.551,773.314,1975.294,848.209,1977.979Z" transform="translate(-763.564 -1866.139)" fill="#fff" stroke="#ebebeb" stroke-miterlimit="10" stroke-width="4"/>
        <circle id="Ellipse_194" data-name="Ellipse 194" cx="11.13" cy="11.13" r="11.13" transform="translate(25.664 38.059)" fill="#fff" stroke="#ebebeb" stroke-miterlimit="10" stroke-width="4"/>
        <circle id="Ellipse_195" data-name="Ellipse 195" cx="6.595" cy="6.595" r="6.595" transform="translate(14.851 39.767)" fill="#fff" stroke="#ebebeb" stroke-miterlimit="10" stroke-width="4"/>
        <circle id="Ellipse_196" data-name="Ellipse 196" cx="5.642" cy="5.642" r="5.642" transform="translate(0 44.666)" fill="#fff" stroke="#ebebeb" stroke-miterlimit="10" stroke-width="4"/>
      </g>
      <text id="I_don_t_want_to_forget_it._忘れないようにしないと_" data-name="I don’t want to forget it.
忘れないようにしないと。" transform="translate(97.845 62.169)" fill="#7f8288" font-size="14" font-family="TrebuchetMS-Bold, Trebuchet MS" font-weight="700"><tspan fill="#000"><tspan x="0" y="0">I don’t want to forget it.</tspan></tspan><tspan font-size="11" font-family="YuGothicUI-Regular, Yu Gothic UI" font-weight="400"><tspan x="0" y="16">忘れないようにしないと。</tspan></tspan></text>
    </g>
    <g id="Group_14850" data-name="Group 14850" transform="translate(246.45 2822.622)">
      <rect id="Rectangle_5313" data-name="Rectangle 5313" width="237.893" height="52.738" transform="translate(0 45.224)" fill="#fff" stroke="#ebebeb" stroke-miterlimit="10" stroke-width="4"/>
      <rect id="Rectangle_5314" data-name="Rectangle 5314" width="237.893" height="45.224" transform="translate(0)" fill="#2d356b" stroke="#cfd0d8" stroke-miterlimit="10" stroke-width="4"/>
    </g>
    <text id="Active_Customers" data-name="Active Customers" transform="translate(354.119 2851.961)" fill="#fff" font-size="20" font-family="TrebuchetMS-Bold, Trebuchet MS" font-weight="700"><tspan x="-81.309" y="0">Active Customers</tspan></text>
    <text id="_25_000" data-name="25,000" transform="translate(361.076 2898.016)" fill="#2d356b" font-size="20" font-family="TrebuchetMS-Bold, Trebuchet MS" font-weight="700"><tspan x="-32.969" y="0">25,000</tspan></text>
  </g>
</svg>
