<svg xmlns="http://www.w3.org/2000/svg" width="307.266" height="181.512" viewBox="0 0 307.266 181.512">
  <g id="Group_14357" data-name="Group 14357" transform="translate(-143.295 -4184.671)">
    <g id="Group_14301" data-name="Group 14301" transform="translate(252.314 4188.895)">
      <g id="Group_14292" data-name="Group 14292" transform="translate(19.248)">
        <path id="Path_21043" data-name="Path 21043" d="M601.775,2793.283c1.189,3.243,1.427,11.778-2.139,16.726-5.717,7.934-9.747-2.731-9.747-2.731,1.783,3.923,5.705,3.244,5.349-1.538s-1.9-1.192-4.635-3.925.356-6.827-.356-8.7c-1.936-5.093-4.635-1.535-6.3-5.629-6.087-14.985,5.721-47.406,20.919-43.348,0,0,21.361-5.855,22.717,41.778.161,5.648-7.027,5.154-6.2,9.761s1.427,3.241.356,5.974-7.368,2.388-4.992,6.142,4.993,2.049,5.824.171c0,0-3.923,12.116-11.529-1.024s-.476-14.335-.476-14.335Z" transform="translate(-582.313 -2743.786)" fill="#fff4ba"/>
      </g>
      <g id="Group_14300" data-name="Group 14300" transform="translate(0 6.651)">
        <g id="Group_14299" data-name="Group 14299">
          <path id="Path_21044" data-name="Path 21044" d="M566.875,2887.668c-4.576-5.88-34.552,27.147-35.109,28.633,0,0,1.806,5.363,3.529,4.645C539.754,2919.088,568.919,2890.294,566.875,2887.668Z" transform="translate(-531.766 -2839.096)" fill="#fc8c99"/>
          <path id="Path_21045" data-name="Path 21045" d="M549.853,2988.5c5.2-2.26-12.283-27.847-13.28-28.533,0,0-4.3.324-4.09,1.723C533.032,2965.309,547.531,2989.51,549.853,2988.5Z" transform="translate(-532.205 -2884.298)" fill="#fc8c99"/>
          <path id="Path_21046" data-name="Path 21046" d="M665.1,2887.668c4.577-5.88,34.552,27.147,35.109,28.633,0,0-1.806,5.363-3.529,4.645C692.217,2919.088,663.052,2890.294,665.1,2887.668Z" transform="translate(-614.261 -2839.096)" fill="#fc8c99"/>
          <path id="Path_21047" data-name="Path 21047" d="M586.566,2944.507s9.106,8.066,18.213,11.09l4.743-10.25,4.364,10.25s12.31-3.468,17.264-11.09c-10.032-14.546-13.995-26.682-3.592-41.822,0,0-4.187-27.073-19.364-27.746s-17.882,28.861-17.882,28.861C600.178,2918.586,603.408,2925.009,586.566,2944.507Z" transform="translate(-565.698 -2831.641)" fill="#ffb2b0"/>
          <path id="Path_21048" data-name="Path 21048" d="M629.211,2887.682a9.189,9.189,0,0,1,5.88,2.121,18.962,18.962,0,0,0,1.468-12.2c-9.24-6.948-14.933.721-14.933.721s-1.21,4.786,2.047,11.219A9.176,9.176,0,0,1,629.211,2887.682Z" transform="translate(-587.271 -2831.495)" fill="#fff"/>
          <path id="Path_21049" data-name="Path 21049" d="M628.714,2877.242s-1.537,7.708,5.45,16.074c0,0,5.939-8.141,4.262-16.67C632.417,2870.9,628.714,2877.242,628.714,2877.242Z" transform="translate(-591.708 -2831.215)" fill="#f7c371"/>
          <rect id="Rectangle_5068" data-name="Rectangle 5068" width="7.926" height="14.858" transform="translate(37.958 30.703)" fill="#f7c371"/>
          <path id="Path_21050" data-name="Path 21050" d="M649.611,2970.156a1.115,1.115,0,1,0-1.115,1.115A1.115,1.115,0,0,0,649.611,2970.156Z" transform="translate(-603.356 -2889.916)" fill="#fff"/>
          <g id="Group_14295" data-name="Group 14295" transform="translate(10.106 52.868)">
            <g id="Group_14293" data-name="Group 14293">
              <rect id="Rectangle_5069" data-name="Rectangle 5069" width="76.117" height="52.728" rx="5.608" transform="translate(0.583)" fill="#ebebeb"/>
              <rect id="Rectangle_5070" data-name="Rectangle 5070" width="77.284" height="3.806" transform="translate(0 54.29)" fill="#ebebeb"/>
              <rect id="Rectangle_5071" data-name="Rectangle 5071" width="3.806" height="9.139" transform="translate(63.168 47.09)" fill="#ebebeb"/>
              <rect id="Rectangle_5072" data-name="Rectangle 5072" width="3.806" height="9.139" transform="translate(10.43 47.09)" fill="#ebebeb"/>
            </g>
            <g id="Group_14294" data-name="Group 14294" transform="translate(29.705 15.909)">
              <path id="Path_21051" data-name="Path 21051" d="M645.25,2959.738a8.937,8.937,0,1,1,8.936-8.938A8.947,8.947,0,0,1,645.25,2959.738Zm0-14.468a5.531,5.531,0,1,0,5.531,5.531A5.537,5.537,0,0,0,645.25,2945.269Z" transform="translate(-636.312 -2941.864)" fill="#7b88ac"/>
            </g>
          </g>
          <g id="Group_14296" data-name="Group 14296" transform="translate(27.814 5.564)">
            <path id="Path_21052" data-name="Path 21052" d="M621.5,2811.187c-4.932,0-16.038-13.48-11.45-30.048.929-3.349,4.568-5.276,11.45-5.276,7.57,0,11.034,2.047,11.585,4.759C636.985,2799.8,626.547,2811.187,621.5,2811.187Z" transform="translate(-607.38 -2775.864)" fill="#ffd8a3"/>
            <path id="Path_21053" data-name="Path 21053" d="M646.633,2796.742a6.208,6.208,0,0,1,7.48,3.9C652.1,2797.884,650.535,2796.853,646.633,2796.742Z" transform="translate(-630.706 -2788.682)" fill="#2d356b"/>
            <path id="Path_21054" data-name="Path 21054" d="M622.038,2797.792a6.184,6.184,0,0,0-7.868,2.978C616.5,2798.273,618.171,2797.437,622.038,2797.792Z" transform="translate(-610.605 -2789.177)" fill="#2d356b"/>
            <path id="Path_21055" data-name="Path 21055" d="M655.466,2813.031a1.367,1.367,0,1,0-1.251,1.76A1.547,1.547,0,0,0,655.466,2813.031Z" transform="translate(-634.534 -2797.86)" fill="#2d356b"/>
            <path id="Path_21056" data-name="Path 21056" d="M655,2812.746a4.513,4.513,0,0,0-5.544-.863A11.381,11.381,0,0,1,655,2812.746Z" transform="translate(-632.456 -2797.797)" fill="#2d356b"/>
            <path id="Path_21057" data-name="Path 21057" d="M623.131,2813.031a1.367,1.367,0,1,1,1.251,1.76A1.546,1.546,0,0,1,623.131,2813.031Z" transform="translate(-616.152 -2797.86)" fill="#2d356b"/>
            <path id="Path_21058" data-name="Path 21058" d="M618.891,2812.746a4.51,4.51,0,0,1,5.542-.863A11.375,11.375,0,0,0,618.891,2812.746Z" transform="translate(-613.528 -2797.797)" fill="#2d356b"/>
            <path id="Path_21059" data-name="Path 21059" d="M637.914,2824.928a3.613,3.613,0,0,0,1.478.613,2.1,2.1,0,0,0,1.477-.674c.065-.407-1.012-4.94-1.4-4.981S637.886,2824.338,637.914,2824.928Z" transform="translate(-625.307 -2803.123)" fill="#ffab00"/>
            <path id="Path_21060" data-name="Path 21060" d="M640.247,2823.1c0,.093.439.238.593.238.265,0,.583-.136.594-.3.027-.4.237-4.9-.561-4.855C640,2818.223,640.236,2822.52,640.247,2823.1Z" transform="translate(-626.729 -2802.065)" fill="#ffd8a3"/>
            <path id="Path_21061" data-name="Path 21061" d="M641.289,2853.556c0-.549-.607-.5-1.39-.5s-1.444-.053-1.444.5.633.994,1.417.994S641.289,2854.106,641.289,2853.556Z" transform="translate(-625.643 -2823.663)" fill="#f36973"/>
            <path id="Path_21062" data-name="Path 21062" d="M640.394,2840.1a2.456,2.456,0,0,0-2.586-.078c-.487,0-.976-.824-2.658.078-.484.259,1.173.994,2.623.994S640.878,2840.362,640.394,2840.1Z" transform="translate(-623.542 -2815.38)" fill="#f36973"/>
            <path id="Path_21063" data-name="Path 21063" d="M632.145,2840.9h7.616s-1.021,5.48-3.808,5.48S632.145,2840.9,632.145,2840.9Z" transform="translate(-621.735 -2816.135)" fill="#ffab00"/>
            <path id="Path_21064" data-name="Path 21064" d="M640.017,2841.633h-6.559l.721,2.229H639.3Z" transform="translate(-622.548 -2816.588)" fill="#fff"/>
            <path id="Path_21065" data-name="Path 21065" d="M652.028,2840.135a.387.387,0,1,0-.383.446A.419.419,0,0,0,652.028,2840.135Z" transform="translate(-633.572 -2815.383)" fill="#ffab00"/>
            <path id="Path_21066" data-name="Path 21066" d="M631.742,2840.135a.388.388,0,1,0-.383.446A.419.419,0,0,0,631.742,2840.135Z" transform="translate(-621.011 -2815.383)" fill="#ffab00"/>
            <path id="Path_21067" data-name="Path 21067" d="M606.79,2821.061c-.233-1.088-.088-1.971-.89-1.8a1.81,1.81,0,0,0-1.032,2.28c.232,1.086,1.071,1.828,1.873,1.656S607.022,2822.148,606.79,2821.061Z" transform="translate(-604.807 -2802.723)" fill="#f7c371"/>
            <path id="Path_21068" data-name="Path 21068" d="M672.987,2821.082c.207-1.092.032-1.976.862-1.818a1.826,1.826,0,0,1,1.131,2.266c-.206,1.092-1.046,1.851-1.876,1.7S672.781,2822.177,672.987,2821.082Z" transform="translate(-646.812 -2802.726)" fill="#f7c371"/>
          </g>
          <g id="Group_14298" data-name="Group 14298" transform="translate(27.658)">
            <path id="Path_21069" data-name="Path 21069" d="M604.435,2777.359c4.332-2.057,15.159-7.795,16.025-14.724,0,0-10.936-1.733-13.427,5.088C603.889,2776.337,604.435,2777.359,604.435,2777.359Z" transform="translate(-604.399 -2761.987)" fill="#fff4ba"/>
            <path id="Path_21070" data-name="Path 21070" d="M652.3,2788.959c-.761-2.993-1.463-7.575-1.156-10.205.419-3.6-10.607-11.932-12.151-15.016-2.2-4.4,7.547-1.616,7.547-1.616C655.368,2770.2,653.385,2778.877,652.3,2788.959Z" transform="translate(-625.621 -2761.252)" fill="#fff4ba"/>
            <g id="Group_14297" data-name="Group 14297" transform="translate(6.233 1.184)">
              <path id="Path_21071" data-name="Path 21071" d="M630.475,2764.363c-.668,4.6-5.469,8.967-9.709,12,4.7-2.83,10.12-7.07,10.722-11.889C631.488,2764.476,631.108,2764.416,630.475,2764.363Z" transform="translate(-620.766 -2764.363)" fill="#fff4ba"/>
            </g>
          </g>
        </g>
      </g>
    </g>
    <g id="Group_14303" data-name="Group 14303" transform="translate(162.709 4184.671)">
      <g id="Group_14302" data-name="Group 14302">
        <g id="Group_29" data-name="Group 29" transform="translate(174.595 3.192)">
          <path id="Path_123" data-name="Path 123" d="M876.192,2752.1c1.444-1.228,3.365-5.7-1.6-10.292,0,0,1.6,3.317-.642,4.35,0,0,.561-4.426-3.926-5.079,0,0,1.041,1.466.4,2.049,0,0-1.626-2.338-6.248-.424-4.485,1.858-9.708,12.713-8.317,24.85Z" transform="translate(-817.294 -2741.076)" fill="#c3e8e6"/>
          <g id="Group_28" data-name="Group 28">
            <g id="Group_24" data-name="Group 24" transform="translate(28.315)">
              <path id="Path_124" data-name="Path 124" d="M905.349,2807.145c.281-2.663,1.6-4.1,2.9-4.1s2.1,1.44,1.822,4.1a4.169,4.169,0,0,1-3.739,3.9C905.029,2811.042,905.068,2809.808,905.349,2807.145Z" transform="translate(-876.297 -2779.446)" fill="#c3e8e6"/>
              <path id="Path_125" data-name="Path 125" d="M834.291,2807.546c-.2-2.663-1.523-4.1-2.89-4.1s-2.257,1.441-2.06,4.1a4.086,4.086,0,0,0,3.776,3.9C834.485,2811.444,834.488,2810.208,834.291,2807.546Z" transform="translate(-829.314 -2779.693)" fill="#c3e8e6"/>
              <path id="Path_126" data-name="Path 126" d="M837.277,2786.29c.2,1.433,6.421,7.621,13.511,7.621s12.961-5.64,14.191-7.926-3.736-31.4-6.627-33.837-14.555-.827-15.546.458C840.456,2755.655,836.509,2780.653,837.277,2786.29Z" transform="translate(-834.184 -2747.148)" fill="#c3e8e6"/>
              <path id="Path_127" data-name="Path 127" d="M844.585,2764.092c1.02.446,5.054-8.995,5.9-10.573s.7-3.221-.32-3.667-2.534.474-3.378,2.053S843.562,2763.646,844.585,2764.092Z" transform="translate(-838.614 -2746.44)" fill="#c3e8e6"/>
              <path id="Path_128" data-name="Path 128" d="M891.316,2762.731c1.073-.329-1.763-9.909-2.387-11.57s-2-2.74-3.074-2.411-1.439,1.941-.816,3.6S890.242,2763.061,891.316,2762.731Z" transform="translate(-863.631 -2745.791)" fill="#c3e8e6"/>
              <path id="Path_129" data-name="Path 129" d="M863.476,2842.134H847.45l-2.4,13.26c8.723,4.106,13.82,3.661,20.616-.9Z" transform="translate(-839.058 -2803.651)" fill="#c3e8e6"/>
              <path id="Path_130" data-name="Path 130" d="M872.637,2847.946c0-.279-.567-.508-1.266-.508s-1.265.228-1.265.508.567.3,1.265.3S872.637,2848.227,872.637,2847.946Z" transform="translate(-854.572 -2806.935)" fill="#c3e8e6"/>
              <path id="Path_131" data-name="Path 131" d="M834.407,2775.392c-.562-3.252-1.544-26.566.783-29.643s16.032-5.091,18.177-4.6c4.669,1.067,3.85,4.255,3.85,4.255a8.5,8.5,0,0,1,3.934,1.029c1.612,1.025,4.971,15.714,2.284,26.824-1.207,4.994-5.963,9.348-14.177,9.552C839.073,2783.062,835.105,2779.434,834.407,2775.392Z" transform="translate(-832.038 -2741.076)" fill="#c3e8e6"/>
              <path id="Path_132" data-name="Path 132" d="M848.7,2761.145a61.625,61.625,0,0,1-14.3-1.56c-1.268,6.835-.477,24.471.007,27.269.7,4.042,4.667,7.668,14.851,7.418,8.214-.2,12.97-4.558,14.177-9.552,2.186-9.044.368-20.457-1.254-24.944A62.867,62.867,0,0,1,848.7,2761.145Z" transform="translate(-832.04 -2752.536)" fill="#c3e8e6"/>
            </g>
            <g id="Group_27" data-name="Group 27" transform="translate(0 49.823)">
              <g id="Group_25" data-name="Group 25" transform="translate(0 8.464)">
                <path id="Path_133" data-name="Path 133" d="M767.937,3073.958l-1.266-4.087,7.061-.142-1.256,4Z" transform="translate(-762.21 -3002.866)" fill="#c3e8e6"/>
                <path id="Path_134" data-name="Path 134" d="M770.034,3072.165a2.159,2.159,0,0,1,2.52,1.322l1.178-3.756-7.061.142,1.266,4.087.241-.011A1.935,1.935,0,0,1,770.034,3072.165Z" transform="translate(-762.21 -3002.867)" fill="#c3e8e6"/>
                <path id="Path_135" data-name="Path 135" d="M756.786,2936.49c-3.362-.105-1.576-27.523,7.062-42.348,0,0,11.654,10.618,12.221,18.454C776.069,2912.594,770.356,2936.914,756.786,2936.49Z" transform="translate(-755.103 -2894.142)" fill="#c3e8e6"/>
                <path id="Path_136" data-name="Path 136" d="M755.181,2984.377s-1.685,11.33,4.16,33.635a11.745,11.745,0,0,0,7.724-1.31s4.675-23.213-1.457-31.566C765.608,2985.136,758.708,2981.273,755.181,2984.377Z" transform="translate(-754.955 -2949.269)" fill="#c3e8e6"/>
                <path id="Path_137" data-name="Path 137" d="M774.5,2985.3c1.918.714,4.464,1.938,4.206,2.616C778.182,2989.3,774.5,2985.3,774.5,2985.3Z" transform="translate(-767.059 -2950.589)" fill="#c3e8e6"/>
                <path id="Path_138" data-name="Path 138" d="M775.635,2989.929c1.116-1.579,2.9-3.626,3.6-3.277C780.647,2987.364,775.635,2989.929,775.635,2989.929Z" transform="translate(-767.76 -2951.401)" fill="#c3e8e6"/>
                <path id="Path_139" data-name="Path 139" d="M791.048,2946.319c-3.19,5.594-7.52,12.647-11.058,16.472,4.431,9.127,1.709,30.3,1.539,31.572.341-.142.688-.3,1.038-.479,0,0,4.12-20.458-.45-29.873C787.232,2958.479,790.086,2949.716,791.048,2946.319Z" transform="translate(-770.457 -2926.45)" fill="#c3e8e6"/>
                <path id="Path_140" data-name="Path 140" d="M763.8,3062.519a.98.98,0,0,0,.9-1.088,1.034,1.034,0,0,0-1.054-.821,1.1,1.1,0,0,0-.268.035Z" transform="translate(-760.173 -2997.22)" fill="#c3e8e6"/>
              </g>
              <g id="Group_26" data-name="Group 26" transform="translate(68.595 7.51)">
                <path id="Path_141" data-name="Path 141" d="M965.685,3071.454l1.267-4.088-7.061-.141,1.256,4Z" transform="translate(-950.447 -3000.361)" fill="#c3e8e6"/>
                <path id="Path_142" data-name="Path 142" d="M963.589,3069.662a2.158,2.158,0,0,0-2.52,1.322l-1.178-3.757,7.061.142-1.267,4.087-.241-.012A1.933,1.933,0,0,0,963.589,3069.662Z" transform="translate(-950.447 -3000.363)" fill="#c3e8e6"/>
                <path id="Path_143" data-name="Path 143" d="M954.373,2933.985c3.363-.105,1.577-27.522-7.062-42.348,0,0-11.654,10.618-12.222,18.455C935.09,2910.09,940.8,2934.408,954.373,2933.985Z" transform="translate(-935.09 -2891.636)" fill="#c3e8e6"/>
                <path id="Path_144" data-name="Path 144" d="M967.459,2981.873s1.685,11.33-4.16,33.636a11.739,11.739,0,0,1-7.724-1.311s-4.675-23.213,1.456-31.565C957.032,2982.633,963.931,2978.77,967.459,2981.873Z" transform="translate(-946.718 -2946.764)" fill="#c3e8e6"/>
                <path id="Path_145" data-name="Path 145" d="M963.734,2982.794c-1.918.714-4.464,1.938-4.206,2.616C960.054,2986.8,963.734,2982.794,963.734,2982.794Z" transform="translate(-950.211 -2948.082)" fill="#c3e8e6"/>
                <path id="Path_146" data-name="Path 146" d="M963.212,2987.424c-1.116-1.579-2.9-3.626-3.6-3.276C958.2,2984.86,963.212,2987.424,963.212,2987.424Z" transform="translate(-950.12 -2948.896)" fill="#c3e8e6"/>
                <path id="Path_147" data-name="Path 147" d="M936.08,2943.813c3.19,5.595,7.52,12.648,11.058,16.472-4.431,9.128-1.709,30.3-1.54,31.572-.341-.142-.686-.3-1.038-.479,0,0-4.12-20.458.45-29.874C939.893,2955.975,937.042,2947.21,936.08,2943.813Z" transform="translate(-935.703 -2923.944)" fill="#c3e8e6"/>
                <path id="Path_148" data-name="Path 148" d="M979.132,3060.014a.979.979,0,0,1-.9-1.087,1.034,1.034,0,0,1,1.054-.823,1.141,1.141,0,0,1,.268.035Z" transform="translate(-961.797 -2994.715)" fill="#c3e8e6"/>
              </g>
              <path id="Path_149" data-name="Path 149" d="M777.487,2880.509c6.27,23.031,18.078,76.645,18.078,76.645,3.469,3.015,10.583,4.239,17.894,4.186l1.177-2.962,1.952,2.865c7.483-.417,14.658-2.1,17.808-4.509,2.041-9.94,15.2-77.341,15.2-77.341C811.343,2861.937,777.487,2880.509,777.487,2880.509Z" transform="translate(-768.907 -2871.914)" fill="#c3e8e6"/>
            </g>
            <path id="Path_150" data-name="Path 150" d="M862.89,2862.739c-3.085-2.939-22.066-3.351-26.167.011l-1.409,3.515c8.661.894,16.433.662,29.965-.108Z" transform="translate(-804.713 -2814.948)" fill="#c3e8e6"/>
          </g>
        </g>
        <path id="Path_21072" data-name="Path 21072" d="M559.921,3053.126H323.193v32.316H561.419Z" transform="translate(-313.012 -2931.106)" fill="#fff4ba"/>
        <g id="Group_23" data-name="Group 23" transform="translate(5.745)">
          <g id="Group_19" data-name="Group 19" transform="translate(28.153)">
            <path id="Path_96" data-name="Path 96" d="M461.078,2805.435c.279-2.932,1.588-4.518,2.885-4.518s2.092,1.586,1.812,4.518-2.422,4.292-3.719,4.292S460.8,2808.366,461.078,2805.435Z" transform="translate(-432.19 -2774.938)" fill="#c3e8e6"/>
            <path id="Path_97" data-name="Path 97" d="M390.424,2805.875c-.195-2.932-1.514-4.518-2.874-4.518s-2.244,1.586-2.049,4.518a4.284,4.284,0,0,0,3.755,4.292C390.617,2810.167,390.621,2808.807,390.424,2805.875Z" transform="translate(-385.475 -2775.21)" fill="#c3e8e6"/>
            <path id="Path_98" data-name="Path 98" d="M393.393,2782.478c.2,1.578,6.384,8.39,13.433,8.39s12.885-6.208,14.11-8.726-3.715-34.568-6.59-37.252-14.472-.911-15.456.5C396.554,2748.749,392.629,2776.27,393.393,2782.478Z" transform="translate(-390.318 -2739.383)" fill="#c3e8e6"/>
            <path id="Path_99" data-name="Path 99" d="M400.659,2758.035c1.014.49,5.025-9.9,5.864-11.642s.7-3.546-.318-4.037-2.519.522-3.359,2.261S399.642,2757.544,400.659,2758.035Z" transform="translate(-394.723 -2738.6)" fill="#c3e8e6"/>
            <path id="Path_100" data-name="Path 100" d="M447.122,2756.534c1.068-.362-1.753-10.91-2.374-12.738s-1.988-3.017-3.056-2.655-1.431,2.137-.812,3.965S446.054,2756.9,447.122,2756.534Z" transform="translate(-419.595 -2737.884)" fill="#c3e8e6"/>
            <path id="Path_101" data-name="Path 101" d="M419.443,2843.956H403.509l-2.384,14.6c8.673,4.52,13.741,4.03,20.5-.987Z" transform="translate(-395.166 -2801.588)" fill="#c3e8e6"/>
            <path id="Path_102" data-name="Path 102" d="M428.55,2850.354c0-.308-.563-.56-1.258-.56s-1.258.251-1.258.56.563.335,1.258.335S428.55,2850.664,428.55,2850.354Z" transform="translate(-410.589 -2805.203)" fill="#c3e8e6"/>
            <path id="Path_103" data-name="Path 103" d="M390.54,2770.476c-.559-3.581-1.535-29.249.779-32.637s15.941-5.605,18.072-5.064c4.642,1.175,3.829,4.685,3.829,4.685a7.8,7.8,0,0,1,3.911,1.133c1.6,1.129,4.942,17.3,2.271,29.532-1.2,5.5-5.928,10.292-14.1,10.517C395.179,2778.919,391.234,2774.925,390.54,2770.476Z" transform="translate(-388.185 -2732.694)" fill="#c3e8e6"/>
            <path id="Path_104" data-name="Path 104" d="M404.75,2754.79a55.634,55.634,0,0,1-14.215-1.718c-1.261,7.524-.474,26.941.007,30.022.695,4.45,4.64,8.442,14.767,8.167,8.167-.224,12.9-5.018,14.1-10.517,2.173-9.957.366-22.522-1.247-27.462A56.688,56.688,0,0,1,404.75,2754.79Z" transform="translate(-388.187 -2745.312)" fill="#c3e8e6"/>
          </g>
          <g id="Group_22" data-name="Group 22" transform="translate(0 54.854)">
            <g id="Group_20" data-name="Group 20" transform="translate(0 9.319)">
              <path id="Path_105" data-name="Path 105" d="M324.452,3099.188l-1.259-4.5,7.02-.156-1.249,4.409Z" transform="translate(-318.757 -3020.919)" fill="#c3e8e6"/>
              <path id="Path_106" data-name="Path 106" d="M326.535,3097.212c.963-.185,1.821.048,2.506,1.456l1.171-4.135-7.02.155,1.259,4.5.24-.013A2.018,2.018,0,0,1,326.535,3097.212Z" transform="translate(-318.756 -3020.917)" fill="#c3e8e6"/>
              <path id="Path_107" data-name="Path 107" d="M313.364,2947.838c-3.343-.115-1.567-30.3,7.021-46.623,0,0,11.588,11.69,12.152,20.317C332.537,2921.531,326.856,2948.3,313.364,2947.838Z" transform="translate(-311.691 -2901.215)" fill="#c3e8e6"/>
              <path id="Path_108" data-name="Path 108" d="M311.768,3000.561s-1.675,12.474,4.136,37.032a10.666,10.666,0,0,0,7.68-1.443s4.649-25.556-1.448-34.752C322.135,3001.4,315.275,2997.144,311.768,3000.561Z" transform="translate(-311.544 -2961.907)" fill="#c3e8e6"/>
              <path id="Path_109" data-name="Path 109" d="M330.978,3001.576c1.907.786,4.438,2.134,4.182,2.881C334.637,3005.982,330.978,3001.576,330.978,3001.576Z" transform="translate(-323.578 -2963.359)" fill="#c3e8e6"/>
              <path id="Path_110" data-name="Path 110" d="M332.1,3006.672c1.11-1.738,2.885-3.991,3.575-3.607C337.088,3003.849,332.1,3006.672,332.1,3006.672Z" transform="translate(-324.275 -2964.255)" fill="#c3e8e6"/>
              <path id="Path_111" data-name="Path 111" d="M347.425,2958.659c-3.172,6.159-7.478,13.925-11,18.135,4.405,10.05,1.7,33.354,1.531,34.76.339-.156.682-.326,1.032-.527,0,0,4.1-22.524-.447-32.89C343.634,2972.048,346.468,2962.4,347.425,2958.659Z" transform="translate(-326.953 -2936.784)" fill="#c3e8e6"/>
              <path id="Path_112" data-name="Path 112" d="M320.342,3086.592a1.056,1.056,0,0,0-.154-2.1,1.035,1.035,0,0,0-.267.038Z" transform="translate(-316.732 -3014.699)" fill="#c3e8e6"/>
            </g>
            <g id="Group_21" data-name="Group 21" transform="translate(68.201 8.268)">
              <path id="Path_113" data-name="Path 113" d="M521.066,3096.428l1.26-4.5-7.02-.156,1.249,4.41Z" transform="translate(-505.915 -3018.158)" fill="#c3e8e6"/>
              <path id="Path_114" data-name="Path 114" d="M518.981,3094.453c-.963-.185-1.821.048-2.506,1.457l-1.171-4.137,7.021.156-1.26,4.5-.239-.013A2.02,2.02,0,0,0,518.981,3094.453Z" transform="translate(-505.914 -3018.158)" fill="#c3e8e6"/>
              <path id="Path_115" data-name="Path 115" d="M509.818,2945.08c3.343-.115,1.568-30.3-7.021-46.624,0,0-11.588,11.69-12.152,20.318C490.645,2918.773,496.326,2945.546,509.818,2945.08Z" transform="translate(-490.645 -2898.456)" fill="#c3e8e6"/>
              <path id="Path_116" data-name="Path 116" d="M522.828,2997.8s1.675,12.474-4.136,37.032a10.665,10.665,0,0,1-7.681-1.444s-4.649-25.556,1.448-34.753C512.461,2998.639,519.321,2994.385,522.828,2997.8Z" transform="translate(-502.206 -2959.149)" fill="#c3e8e6"/>
              <path id="Path_117" data-name="Path 117" d="M519.125,2998.819c-1.907.786-4.438,2.134-4.182,2.881C515.466,3003.224,519.125,2998.819,519.125,2998.819Z" transform="translate(-505.68 -2960.601)" fill="#c3e8e6"/>
              <path id="Path_118" data-name="Path 118" d="M518.607,3003.912c-1.11-1.738-2.885-3.991-3.575-3.606C513.622,3001.09,518.607,3003.912,518.607,3003.912Z" transform="translate(-505.59 -2961.495)" fill="#c3e8e6"/>
              <path id="Path_119" data-name="Path 119" d="M491.629,2955.9c3.172,6.159,7.477,13.925,11,18.135-4.406,10.049-1.7,33.354-1.531,34.759-.339-.157-.682-.327-1.032-.527,0,0-4.1-22.525.447-32.889C495.42,2969.289,492.586,2959.641,491.629,2955.9Z" transform="translate(-491.254 -2934.025)" fill="#c3e8e6"/>
              <path id="Path_120" data-name="Path 120" d="M534.43,3083.834a1.056,1.056,0,1,1,.421-2.065Z" transform="translate(-517.195 -3011.941)" fill="#c3e8e6"/>
            </g>
            <path id="Path_121" data-name="Path 121" d="M333.946,2886.207c6.234,25.356,17.975,84.383,17.975,84.383,3.449,3.32,10.522,4.667,17.792,4.61l1.171-3.262,1.941,3.154c7.44-.459,14.574-2.314,17.706-4.965,2.03-10.943,15.113-85.148,15.113-85.148C367.608,2865.759,333.946,2886.207,333.946,2886.207Z" transform="translate(-325.415 -2876.744)" fill="#c3e8e6"/>
          </g>
          <path id="Path_122" data-name="Path 122" d="M418.858,2866.64c-3.067-3.236-21.94-3.689-26.017.012l-1.4,3.87c8.611.984,16.341.729,29.794-.118Z" transform="translate(-361.016 -2814.025)" fill="#c3e8e6"/>
        </g>
        <g id="students" transform="translate(0 87.487)">
          <g id="Group_35" data-name="Group 35">
            <path id="Path_180" data-name="Path 180" d="M396.994,3029.289H300.886l-4.386-55.1c-.5-6.286,3.373-11.748,8.334-11.748H384.1c4.3,0,7.9,4.146,8.333,9.594Z" transform="translate(-296.457 -2962.441)" fill="#03b4e9"/>
            <path id="Path_182" data-name="Path 182" d="M830.479,2974.542l-5.811,54.748H728.563l6.113-57.608c.562-5.292,4.107-9.24,8.3-9.24h79.205C827.249,2962.441,831.158,2968.139,830.479,2974.542Z" transform="translate(-564.018 -2962.441)" fill="#03b4e9"/>
          </g>
        </g>
      </g>
    </g>
    <path id="Path_21073" data-name="Path 21073" d="M304.612,3100.209v28.774H405.735l6.244-14.281-6.244-14.492Z" transform="translate(-138.797 1224.41)" fill="#ffac00"/>
    <text id="Meeting" transform="translate(180.524 4346.709)" fill="#fff" font-size="20" font-family="TrebuchetMS-Bold, Trebuchet MS" font-weight="700"><tspan x="0" y="0">Meeting</tspan></text>
    <g id="Group_14324" data-name="Group 14324" transform="translate(152.489 4225.534)">
      <path id="Path_21136" data-name="Path 21136" d="M29.909,0H253.157a29.909,29.909,0,1,1,0,59.818H29.909A29.909,29.909,0,0,1,29.909,0Z" transform="translate(15.574 0) rotate(15.092)" fill="#fff" stroke="#f46973" stroke-width="15" stroke-dasharray="40 20 0 0"/>
      <text id="RESCHEDULED" transform="matrix(0.966, 0.26, -0.26, 0.966, 53.146, 51.177)" fill="#f46973" font-size="28" font-family="TrebuchetMS-Bold, Trebuchet MS" font-weight="700"><tspan x="0" y="0">RESCHEDULED</tspan></text>
    </g>
  </g>
</svg>
