<svg xmlns="http://www.w3.org/2000/svg" width="544" height="358.068" viewBox="0 0 544 358.068">
  <g id="Group_14783" data-name="Group 14783" transform="translate(-138.712 -86.19)">
    <g id="Group_14738" data-name="Group 14738" transform="translate(138.712 86.19)">
      <g id="Group_14737" data-name="Group 14737">
        <g id="Group_14736" data-name="Group 14736">
          <g id="Group_14735" data-name="Group 14735">
            <g id="Group_14734" data-name="Group 14734">
              <g id="Group_14733" data-name="Group 14733">
                <g id="Group_14730" data-name="Group 14730">
                  <g id="Group_14727" data-name="Group 14727">
                    <path id="Path_21696" data-name="Path 21696" d="M139.356,99.567h-.644V87.005H682.136V349.538H139.362V323.167h-.005Z" transform="translate(-138.712 -86.638)" fill="#fff"/>
                    <rect id="Rectangle_5282" data-name="Rectangle 5282" width="542.847" height="0.734" transform="translate(0.576 262.533)" fill="#a0bacb"/>
                    <rect id="Rectangle_5283" data-name="Rectangle 5283" width="543.424" height="0.734" fill="#7b88ac"/>
                  </g>
                  <g id="Group_14728" data-name="Group 14728" transform="translate(26.708 53.694)">
                    <path id="Path_21697" data-name="Path 21697" d="M198.348,206v96.4H250.5V206h-25.4v-.116H222.65V206Zm24.3,3.1v21.2H200.507V209.1Zm25.694,24.856v40.5H225.107v-40.5Zm-47.837,40.5v-40.5H222.65v40.5ZM248.344,209.1v21.2H225.107V209.1Zm0,90.211H225.107v-21.2h23.237Zm-47.837,0v-21.2H222.65v21.2Z" transform="translate(-198.194 -205.663)" fill="#ebebeb"/>
                    <path id="Path_21698" data-name="Path 21698" d="M198.005,205.509h24.3v-.116h2.765v.116h25.4v96.844H198.005Zm52.156.442h-25.4v-.116h-2.148v.116h-24.3v95.96h51.847Zm-50,71.666h22.451v21.641H200.164Zm22.143.442H200.473v20.756h21.834Zm2.457-.442H248.31v21.641H224.764ZM248,278.06H225.072v20.756H248Zm-47.837-44.6h22.451V274.4H200.164Zm22.143.442H200.473v40.057h21.834Zm2.457-.442H248.31V274.4H224.764ZM248,233.9H225.072v40.057H248Zm-47.837-25.3h22.451v21.64H200.164Zm22.143.442H200.473V229.8h21.834Zm2.457-.442H248.31v21.64H224.764Zm23.238.442H225.072V229.8H248Z" transform="translate(-198.005 -205.393)" fill="#ebebeb"/>
                  </g>
                  <g id="Group_14729" data-name="Group 14729" transform="translate(396.49 53.644)">
                    <path id="Path_21699" data-name="Path 21699" d="M884.472,206.289V366.348h146.177V206.289h-71.18V206.1h-6.886v.192Zm68.111,5.14v35.2H890.524v-35.2ZM1024.6,252.7v67.241H959.469V252.7ZM890.524,319.939V252.7h62.059v67.241ZM1024.6,211.429v35.2H959.469v-35.2Zm0,149.78H959.469v-35.2H1024.6Zm-134.073,0v-35.2h62.059v35.2Z" transform="translate(-884.04 -205.73)" fill="#ebebeb"/>
                    <path id="Path_21700" data-name="Path 21700" d="M883.513,205.474h68.111v-.192h7.751v.192h71.18V366.268H883.513Zm146.177.734H958.51v-.192h-6.022v.192H884.377V365.533H1029.69ZM889.565,325.2h62.923v35.93H889.565Zm62.059.734H890.429v34.462h61.195Zm6.886-.734H1024.5v35.93H958.51Zm65.128.734H959.374v34.462h64.263ZM889.565,251.883h62.923v67.975H889.565Zm62.059.734H890.429v66.507h61.195Zm6.886-.734H1024.5v67.975H958.51Zm65.128.734H959.374v66.507h64.263Zm-134.073-42h62.923v35.93H889.565Zm62.059.734H890.429V245.81h61.195Zm6.886-.734H1024.5v35.93H958.51Zm65.128.734H959.374V245.81h64.263Z" transform="translate(-883.513 -205.282)" fill="#ebebeb"/>
                  </g>
                </g>
                <g id="Group_14731" data-name="Group 14731" transform="translate(0.433 231.293)">
                  <path id="Path_21701" data-name="Path 21701" d="M139.992,600.366H682.766v90.076h.649v36.387H140V604.2h-.005Z" transform="translate(-139.849 -600.054)" fill="#f9f9f9"/>
                  <rect id="Rectangle_5284" data-name="Rectangle 5284" width="541.843" height="0.526" transform="translate(0 126.05)" fill="#f9f9f9"/>
                  <rect id="Rectangle_5285" data-name="Rectangle 5285" width="542.852" height="0.526" transform="translate(0.138)" fill="#f9f9f9"/>
                </g>
                <g id="Group_14732" data-name="Group 14732" transform="translate(49.628 4.629)">
                  <path id="Path_21702" data-name="Path 21702" d="M449.947,175.01V96.466h1.847V175.01c5.759.4,10.288,4.488,10.288,9.481,0,5.258-5.019,9.52-11.211,9.52s-11.211-4.262-11.211-9.52C439.659,179.5,444.188,175.41,449.947,175.01Z" transform="translate(-339.996 -96.466)" fill="#c3e8e6"/>
                  <path id="Path_21703" data-name="Path 21703" d="M1106.563,188.783V110.239h1.847v78.544c5.758.4,10.288,4.488,10.288,9.481,0,5.258-5.02,9.521-11.211,9.521s-11.211-4.263-11.211-9.521C1096.275,193.271,1100.8,189.183,1106.563,188.783Z" transform="translate(-653.577 -104.035)" fill="#c3e8e6"/>
                  <path id="Path_21704" data-name="Path 21704" d="M883.734,181.192v-57.1h1.343v57.1c4.187.291,7.48,3.263,7.48,6.893,0,3.823-3.649,6.922-8.151,6.922s-8.151-3.1-8.151-6.922C876.255,184.455,879.548,181.483,883.734,181.192Z" transform="translate(-549.215 -111.646)" fill="#c3e8e6"/>
                  <path id="Path_21705" data-name="Path 21705" d="M256.369,181.192v-57.1h1.343v57.1c4.187.291,7.479,3.263,7.479,6.893,0,3.823-3.649,6.922-8.151,6.922s-8.15-3.1-8.15-6.922C248.89,184.455,252.182,181.483,256.369,181.192Z" transform="translate(-248.89 -111.646)" fill="#c3e8e6"/>
                </g>
              </g>
            </g>
          </g>
        </g>
      </g>
    </g>
    <g id="Group_14740" data-name="Group 14740" transform="translate(292.182 257.438)">
      <g id="Group_14739" data-name="Group 14739">
        <path id="Path_21706" data-name="Path 21706" d="M641.373,657.094l26.971,1.878,7.146,43.846-36.279-.089Z" transform="translate(-536.393 -571.184)" fill="#9999a5"/>
        <path id="Path_21707" data-name="Path 21707" d="M651.416,476.632l-232.06-4.678-8.4,108.608H649.329Z" transform="translate(-410.951 -469.439)" fill="#cfd0d8"/>
        <path id="Path_21708" data-name="Path 21708" d="M652.339,559.777l1.381-85.364L419.554,466.37l-4.409,93.407Z" transform="translate(-413.255 -466.37)" fill="#2d356b"/>
        <rect id="Rectangle_5286" data-name="Rectangle 5286" width="48.375" height="3.148" transform="translate(96.279 129.363)" fill="#ebebeb"/>
        <path id="Path_21709" data-name="Path 21709" d="M657.647,560.382l1.322-80.35-223.813-7.571-4.217,87.92Z" transform="translate(-421.936 -469.717)" fill="#fff7d3"/>
        <path id="Path_21710" data-name="Path 21710" d="M657.91,560.489l1.309-79.466-221.595-7.486-4.174,86.952Z" transform="translate(-423.316 -470.309)" fill="#fff"/>
      </g>
      <path id="Path_21711" data-name="Path 21711" d="M685.84,759.9H674.576c8.056.845,5.728,31.825,0,53.879H685.84C681.226,792.939,680.325,760.857,685.84,759.9Z" transform="translate(-555.829 -627.68)" fill="#cfd0d8"/>
      <path id="Path_21712" data-name="Path 21712" d="M650.713,762.628H437.034l13.749,3.028h186.18Z" transform="translate(-425.285 -629.181)" fill="#2d356b"/>
      <rect id="Rectangle_5287" data-name="Rectangle 5287" width="236.553" height="3.028" transform="translate(0 131.208)" fill="#cfd0d8"/>
    </g>
    <g id="Group_14743" data-name="Group 14743" transform="translate(260.892 106.63)">
      <g id="Group_14742" data-name="Group 14742">
        <g id="Group_14741" data-name="Group 14741">
          <rect id="Rectangle_5288" data-name="Rectangle 5288" width="260.735" height="81.501" rx="11.604" transform="translate(-94.075 -9)" fill="#fff" stroke="#231f20" stroke-miterlimit="10" stroke-width="0.25"/>
          <path id="Path_21713" data-name="Path 21713" d="M390.8,234.81l76.824,126.177L403.673,234.81Z" transform="translate(-449.863 -162.309)" fill="#fff" stroke="#231f20" stroke-miterlimit="10" stroke-width="0.25"/>
        </g>
      </g>
    </g>
    <g id="Group_14746" data-name="Group 14746" transform="translate(312.028 208.482)">
      <g id="Group_14745" data-name="Group 14745">
        <g id="Group_14744" data-name="Group 14744">
          <rect id="Rectangle_5289" data-name="Rectangle 5289" width="294.179" height="59.501" rx="11.604" transform="translate(-50 -13)" fill="#fff" stroke="#231f20" stroke-miterlimit="10" stroke-width="0.25"/>
          <path id="Path_21714" data-name="Path 21714" d="M479.135,460.926l-1.785,57.865,14.657-57.865Z" transform="translate(-470.584 -414.422)" fill="#fff" stroke="#231f20" stroke-miterlimit="10" stroke-width="0.25"/>
        </g>
      </g>
    </g>
    <g id="Group_14777" data-name="Group 14777" transform="translate(269.379 311.815)">
      <path id="Path_21715" data-name="Path 21715" d="M387.064,736.055l28.431,2.794a5.385,5.385,0,0,0,5.911-5.359V681.552a5.385,5.385,0,0,0-5.867-5.363L380.891,679.3c-.109.009-.218.013-.327.017a5.146,5.146,0,0,0-4.953,5.977l6.65,46.166A5.385,5.385,0,0,0,387.064,736.055Z" transform="translate(-369.036 -636.042)" fill="#ffe200"/>
      <g id="Group_14760" data-name="Group 14760" transform="translate(24.632 6.931)">
        <g id="Group_14756" data-name="Group 14756">
          <g id="Group_14747" data-name="Group 14747" transform="translate(0 1.638)">
            <path id="Path_21716" data-name="Path 21716" d="M462.6,661.586c5.111-6.323-4.209-6.444-4.4-11.4s1.072-3.535,1.074-9.956S457.3,631.67,456.727,628s1.155-10.008-1.52-14.41-3.764-2.668-6.057-6.153-3.55.775-6.417,2.793-7.453-6.423-12.423-2.388-3.635,10.82-4.784,14.853-6.308,6.234-6.311,13.2,3.63,4.953,2.481,9.9-5.926,5.133-5.929,12.1c0,0,.189,6.969,7.835,5.687s5.734,3.119,13.761-.545,6.116,4.036,11.659.553S458.031,667.234,462.6,661.586Z" transform="translate(-415.769 -606.112)" fill="#2d356b"/>
          </g>
          <g id="Group_14749" data-name="Group 14749" transform="translate(26.328 47.094)">
            <path id="Path_21717" data-name="Path 21717" d="M474.522,707.512c6.767-5.076,24.6,31.306,24.658,32.85,0,0-1.808,3.732-3.34,2.765C491.885,740.627,471.5,709.779,474.522,707.512Z" transform="translate(-474.218 -707.027)" fill="#0080af"/>
            <g id="Group_14748" data-name="Group 14748" transform="translate(20.742 31.336)">
              <path id="Path_21718" data-name="Path 21718" d="M553.817,791.37c-1.662,5.9-32.176-9.359-33.062-10.32,0,0-1.72-4.184,1.3-4.449C526.01,776.253,554.56,788.73,553.817,791.37Z" transform="translate(-520.267 -776.593)" fill="#0080af"/>
              <path id="Path_21719" data-name="Path 21719" d="M590.507,801.245l-.4-1.836-6.477-2.983s.018,3.318.465,4S590.507,801.245,590.507,801.245Z" transform="translate(-555.09 -787.493)" fill="#0080af"/>
              <path id="Path_21720" data-name="Path 21720" d="M590.6,807.028l-.382,1.82-6.4,2.909s0-3.3.437-3.977S590.6,807.028,590.6,807.028Z" transform="translate(-555.189 -793.319)" fill="#0080af"/>
            </g>
          </g>
          <g id="Group_14750" data-name="Group 14750" transform="translate(18.939 23.66)">
            <path id="Path_21721" data-name="Path 21721" d="M466.371,655l7.112,4.181,1.7,15.061-5.671-1.863Z" transform="translate(-462.517 -655.002)" fill="#f6cda2"/>
            <path id="Path_21722" data-name="Path 21722" d="M487.515,756.956c-14.225,9.1-19.811,6.005-28.235,5.884-.53-11.935,6-20.316,5.863-28.665-.249-15.477-13.936-33.261-3.263-40.576,11.334-7.767,26.064,26.122,26.064,26.122C476.585,726.56,482.069,738.6,487.515,756.956Z" transform="translate(-457.815 -675.577)" fill="#03b4e9"/>
            <path id="Path_21723" data-name="Path 21723" d="M468.52,691.505l2.022-.3,9.323,8.266-2.619,2.348S470.976,695.792,468.52,691.505Z" transform="translate(-463.698 -674.898)" fill="#fff"/>
            <path id="Path_21724" data-name="Path 21724" d="M486.5,701.717l.124-.1c-2.535-4.7-7.984-11.865-13.021-11.246C478.324,694.341,486.5,701.717,486.5,701.717Z" transform="translate(-466.492 -674.42)" fill="#f6cda2"/>
          </g>
          <g id="Group_14752" data-name="Group 14752" transform="translate(11.208)">
            <g id="Group_14751" data-name="Group 14751">
              <path id="Path_21725" data-name="Path 21725" d="M459.222,634.733c-3.808-1.045-11.475-2.265-15.169-8.015-4.8-7.475-3.583-12.1-1.982-17.725,3.052-10.724,21.344-5.7,20.2-2.543C460.753,610.645,473.023,638.521,459.222,634.733Z" transform="translate(-440.652 -602.475)" fill="#2d356b"/>
              <path id="Path_21726" data-name="Path 21726" d="M480.228,642.521c1.389,0,3.872-7.174,4.613-12.676.244-1.814-1.709-2.027-1.587-8.217.072-3.633-1.606-8.663-7.69-12.271-5.744-3.407-6.17,7.869-6.662,10.474-1.4,7.42-3.3,12.08-1.394,15.67C471.224,642.512,478.728,642.163,480.228,642.521Z" transform="translate(-454.969 -605.908)" fill="#ffd8a3"/>
              <path id="Path_21727" data-name="Path 21727" d="M496.152,661.943a.319.319,0,0,1,.289-.347.337.337,0,0,1,.277.369.32.32,0,0,1-.291.347A.335.335,0,0,1,496.152,661.943Z" transform="translate(-471.153 -634.965)" fill="#ffab00"/>
              <path id="Path_21728" data-name="Path 21728" d="M494.376,640c.033-.977.6-1.739,1.274-1.706s1.189.853,1.155,1.828-.6,1.74-1.274,1.706S494.343,640.981,494.376,640Z" transform="translate(-470.176 -622.162)" fill="#2d356b"/>
              <path id="Path_21729" data-name="Path 21729" d="M491.362,640.033c.94-1.351,2.28-2.7,4.834-1.8A9.335,9.335,0,0,0,491.362,640.033Z" transform="translate(-468.52 -621.965)" fill="#2d356b"/>
              <path id="Path_21730" data-name="Path 21730" d="M500.209,671.008c.041-.227.738.576,1.069.6.935.08.668,1.272-.265,1.1C500.649,672.64,500.166,671.248,500.209,671.008Z" transform="translate(-473.381 -640.116)" fill="#f36973"/>
              <path id="Path_21731" data-name="Path 21731" d="M498.4,662.074c-.633-.252,3.64-1.483,2.867-.034A6.711,6.711,0,0,1,498.4,662.074Z" transform="translate(-472.355 -634.829)" fill="#f36973"/>
              <path id="Path_21732" data-name="Path 21732" d="M493.836,627.907a5.691,5.691,0,0,0-6.859,3.579C488.825,628.954,490.258,628.008,493.836,627.907Z" transform="translate(-466.11 -616.362)" fill="#2d356b"/>
              <path id="Path_21733" data-name="Path 21733" d="M505.375,649.714l-2.148.657-.077-5.487,3.2,3.906Z" transform="translate(-474.998 -625.781)" fill="#ffd8a3"/>
              <path id="Path_21734" data-name="Path 21734" d="M505.078,658.47l1.67-3.4-1.613-.058Z" transform="translate(-476.058 -631.349)" fill="#ffd8a3"/>
              <path id="Path_21735" data-name="Path 21735" d="M499.585,667.208a40.5,40.5,0,0,0,1.06-4.763h-3.88S497.535,666.554,499.585,667.208Z" transform="translate(-471.49 -635.432)" fill="#ffab00"/>
              <path id="Path_21736" data-name="Path 21736" d="M498.5,664.9h2.21c.128-.6.246-1.224.355-1.873H497.9Z" transform="translate(-472.111 -635.75)" fill="#fff"/>
              <path id="Path_21737" data-name="Path 21737" d="M460.721,646.655c.088-1.693.66-2.94-.623-3s-2.4,1.258-2.487,2.952.887,3.117,2.173,3.182S460.636,648.35,460.721,646.655Z" transform="translate(-449.969 -625.103)" fill="#f7c371"/>
            </g>
            <path id="Path_21738" data-name="Path 21738" d="M478.326,609.149c-4.075,6.159-11.216,15.163-9.5,23.938-3.613-9.343-2-21.8,4.2-26.936C473.677,607.089,479.226,606.806,478.326,609.149Z" transform="translate(-455.091 -604.495)" fill="#2d356b"/>
          </g>
          <g id="Group_14755" data-name="Group 14755" transform="translate(12.632 43.224)">
            <g id="Group_14753" data-name="Group 14753" transform="translate(32.735 17.312)">
              <path id="Path_21739" data-name="Path 21739" d="M518.093,757.549c1.915-2.159,8.9-3.464,7.769-5.712-1.015-2.014-5.625-3.747-9.375,4.154Z" transform="translate(-516.487 -744.161)" fill="#ffd9a4"/>
              <path id="Path_21740" data-name="Path 21740" d="M522.419,750.078c1.567,3.669,6.03,1.744,7.295.813,1.39-1.024.963-4.137-.194-4.88S521.822,748.675,522.419,750.078Z" transform="translate(-519.726 -741.835)" fill="#ffd9a4"/>
              <path id="Path_21741" data-name="Path 21741" d="M526.992,742.062c.756-2.227.55-5.136-.349-5.192-1.013-.066-.365,2.4-1.531,4.235-1.258,1.988-1.944,3.3-1.2,3.83S526.237,744.292,526.992,742.062Z" transform="translate(-520.398 -736.868)" fill="#ffd9a4"/>
              <path id="Path_21742" data-name="Path 21742" d="M534.665,742.328c1.616-1.2,2.184-2.2,1.816-2.595s-1.247.35-2.863,1.55-3.969,2.326-3.6,2.718S533.047,743.525,534.665,742.328Z" transform="translate(-523.901 -738.384)" fill="#ffd9a4"/>
              <path id="Path_21743" data-name="Path 21743" d="M538.634,746.526c1.862-.871,3.085-2.449,2.808-2.9s-1.794.756-3.655,1.627-3.021,1.535-2.743,1.985S536.773,747.4,538.634,746.526Z" transform="translate(-526.662 -740.529)" fill="#ffd9a4"/>
              <path id="Path_21744" data-name="Path 21744" d="M537.33,752.666c1.824-.944,2.628-1.884,2.339-2.325s-1.373.407-3.195,1.351-3.087,1.631-2.8,2.074S535.505,753.611,537.33,752.666Z" transform="translate(-525.911 -744.206)" fill="#ffd9a4"/>
            </g>
            <g id="Group_14754" data-name="Group 14754">
              <path id="Path_21745" data-name="Path 21745" d="M456.37,698.511c-7.246-2.192-12.939,42.773-12.536,44.333,0,0,3.866,1.67,4.883.065C451.346,738.755,459.6,699.49,456.37,698.511Z" transform="translate(-443.813 -698.434)" fill="#0080af"/>
              <path id="Path_21746" data-name="Path 21746" d="M476.86,762.771c2.968,5.154-28.124,16.065-29.391,16.027,0,0-3.42-2.953-2.37-4.008C447.818,772.063,475.535,760.469,476.86,762.771Z" transform="translate(-444.41 -733.626)" fill="#0080af"/>
              <path id="Path_21747" data-name="Path 21747" d="M510.014,761l-1.308-1.264-6.828,1.09s1.8,2.664,2.532,2.975S510.014,761,510.014,761Z" transform="translate(-475.724 -732.124)" fill="#eaeaea"/>
              <path id="Path_21748" data-name="Path 21748" d="M513.986,762.277l.685,1.7-3.642,5.884s-1.81-2.695-1.821-3.49S513.986,762.277,513.986,762.277Z" transform="translate(-479.752 -733.519)" fill="#eaeaea"/>
            </g>
          </g>
        </g>
        <g id="Group_14759" data-name="Group 14759" transform="translate(62.852 53.213)">
          <g id="Group_14757" data-name="Group 14757">
            <rect id="Rectangle_5290" data-name="Rectangle 5290" width="48.252" height="33.425" rx="3.005" transform="translate(0.37)" fill="#ebebeb"/>
            <rect id="Rectangle_5291" data-name="Rectangle 5291" width="48.991" height="2.413" transform="translate(0 34.416)" fill="#ebebeb"/>
            <rect id="Rectangle_5292" data-name="Rectangle 5292" width="2.413" height="5.793" transform="translate(6.536 29.851)" fill="#ebebeb"/>
            <rect id="Rectangle_5293" data-name="Rectangle 5293" width="2.413" height="5.793" transform="translate(39.967 29.851)" fill="#ebebeb"/>
          </g>
          <g id="Group_14758" data-name="Group 14758" transform="translate(18.831 10.085)">
            <path id="Path_21749" data-name="Path 21749" d="M597.109,748.664a5.665,5.665,0,1,1,5.665,5.666A5.671,5.671,0,0,1,597.109,748.664Zm2.159,0a3.506,3.506,0,1,0,3.506-3.506A3.51,3.51,0,0,0,599.268,748.664Z" transform="translate(-597.109 -742.999)" fill="#7b88ac"/>
          </g>
        </g>
      </g>
      <path id="Path_21750" data-name="Path 21750" d="M880.239,732.17l-28.431,2.794A5.385,5.385,0,0,1,845.9,729.6V677.667a5.385,5.385,0,0,1,5.867-5.363l34.648,3.115c.109.009.218.013.327.017a5.146,5.146,0,0,1,4.954,5.977l-6.65,46.166A5.385,5.385,0,0,1,880.239,732.17Z" transform="translate(-627.518 -633.907)" fill="#ffe200"/>
      <g id="Group_14775" data-name="Group 14775" transform="translate(149.364)">
        <g id="Group_14761" data-name="Group 14761" transform="translate(56.594)">
          <path id="Path_21751" data-name="Path 21751" d="M820.573,607.269c-4.067-4.02-2.524-10.859,3.84-13.426,0,0-4.89-5.936,7.927-6.708s17.842,8.266,18.024,10.221c0,0,9.9-2.205,5.861,8.871,0,0,4.724,1.733,5.052,8.076.246,4.754-3.777,10.338-7.56,8.965,0,0-.11,9.52-7.655,9.529a10.672,10.672,0,0,1-9.985-6.373,2.346,2.346,0,0,1-2.531,2.679,8.372,8.372,0,0,1-5.026-2.327s.652,3-.753,2.961-1.5-4.288-1.5-4.288-2.656,2.561-4.977-.261,1.9-9.466,1.9-9.466Z" transform="translate(-818.322 -587.088)" fill="#c3e8e6"/>
        </g>
        <g id="Group_14764" data-name="Group 14764" transform="translate(0 60.573)">
          <g id="Group_14762" data-name="Group 14762">
            <rect id="Rectangle_5294" data-name="Rectangle 5294" width="48.252" height="33.425" rx="3.005" transform="translate(0.37)" fill="#ebebeb"/>
            <rect id="Rectangle_5295" data-name="Rectangle 5295" width="48.991" height="2.413" transform="translate(0 34.416)" fill="#ebebeb"/>
            <rect id="Rectangle_5296" data-name="Rectangle 5296" width="2.413" height="5.793" transform="translate(6.536 29.851)" fill="#ebebeb"/>
            <rect id="Rectangle_5297" data-name="Rectangle 5297" width="2.413" height="5.793" transform="translate(39.967 29.851)" fill="#ebebeb"/>
          </g>
          <g id="Group_14763" data-name="Group 14763" transform="translate(18.831 10.085)">
            <path id="Path_21752" data-name="Path 21752" d="M734.486,749.617a5.665,5.665,0,1,1,5.665,5.666A5.671,5.671,0,0,1,734.486,749.617Zm2.159,0a3.506,3.506,0,1,0,3.506-3.506A3.51,3.51,0,0,0,736.645,749.617Z" transform="translate(-734.486 -743.953)" fill="#7b88ac"/>
          </g>
        </g>
        <g id="Group_14768" data-name="Group 14768" transform="translate(49.143 27.913)">
          <g id="Group_14765" data-name="Group 14765">
            <path id="Path_21753" data-name="Path 21753" d="M849.364,649.057l-7.112,4.181-1.7,15.061,5.671-1.864Z" transform="translate(-823.088 -649.057)" fill="#ffac00"/>
            <path id="Path_21754" data-name="Path 21754" d="M802.21,751.01c14.225,9.1,19.811,6.006,28.235,5.884.53-11.936-6-20.316-5.863-28.665.249-15.477,13.935-33.261,3.263-40.576-11.333-7.767-26.064,26.122-26.064,26.122C813.14,720.615,807.656,732.654,802.21,751.01Z" transform="translate(-801.78 -669.632)" fill="#9999a5"/>
            <path id="Path_21755" data-name="Path 21755" d="M844.123,685.559l-2.022-.3-9.323,8.266,2.619,2.348S841.667,689.846,844.123,685.559Z" transform="translate(-818.816 -668.953)" fill="#fff"/>
            <path id="Path_21756" data-name="Path 21756" d="M824.1,695.771l-.124-.1c2.535-4.7,7.984-11.865,13.022-11.246C832.274,688.4,824.1,695.771,824.1,695.771Z" transform="translate(-813.976 -668.475)" fill="#ffac00"/>
          </g>
          <g id="Group_14767" data-name="Group 14767" transform="translate(0.65 19.563)">
            <g id="Group_14766" data-name="Group 14766">
              <path id="Path_21757" data-name="Path 21757" d="M858.329,692.565c7.246-2.192,12.939,42.774,12.537,44.334,0,0-3.867,1.67-4.884.064C863.353,732.809,855.094,693.544,858.329,692.565Z" transform="translate(-833.1 -692.488)" fill="#cfd0d8"/>
              <path id="Path_21758" data-name="Path 21758" d="M813.21,792.656c.715,5.9,32.14-4,33.132-4.793,0,0,.967-4.414-.506-4.629C842.025,782.681,812.891,790.019,813.21,792.656Z" transform="translate(-808.71 -742.342)" fill="#cfd0d8"/>
              <path id="Path_21759" data-name="Path 21759" d="M803.27,798.062l.362-1.782,6.243-2.969s.024,3.216-.4,3.886S803.27,798.062,803.27,798.062Z" transform="translate(-803.249 -747.896)" fill="#f5f6f6"/>
              <path id="Path_21760" data-name="Path 21760" d="M803.223,803.57l.4,1.786,6.334,2.786s-.035-3.247-.476-3.908S803.223,803.57,803.223,803.57Z" transform="translate(-803.223 -753.534)" fill="#f5f6f6"/>
            </g>
          </g>
        </g>
        <g id="Group_14774" data-name="Group 14774" transform="translate(56.685 4.992)">
          <g id="Group_14773" data-name="Group 14773">
            <g id="Group_14772" data-name="Group 14772">
              <g id="Group_14771" data-name="Group 14771">
                <g id="Group_14770" data-name="Group 14770">
                  <g id="Group_14769" data-name="Group 14769" transform="translate(0 2.665)">
                    <path id="Path_21761" data-name="Path 21761" d="M827.192,637.571c-1.357.095-4.271-6.747-5.368-12.073-.362-1.756,1.532-2.1.992-8.137-.317-3.545.981-8.574,6.68-12.513,5.381-3.719,6.564,7.27,7.222,9.781,1.874,7.155,4.042,11.579,2.427,15.217C835.99,636.95,828.633,637.119,827.192,637.571Z" transform="translate(-820.313 -604.088)" fill="#f8c471"/>
                    <path id="Path_21762" data-name="Path 21762" d="M832.232,657.089a.313.313,0,0,0-.306-.32.33.33,0,0,0-.246.379.313.313,0,0,0,.307.319A.329.329,0,0,0,832.232,657.089Z" transform="translate(-825.754 -633.039)" fill="#ffab00"/>
                    <path id="Path_21763" data-name="Path 21763" d="M830.362,635.609c-.1-.952-.709-1.658-1.361-1.58s-1.1.914-1,1.865.708,1.659,1.361,1.58S830.46,636.561,830.362,635.609Z" transform="translate(-823.723 -620.539)" fill="#2d356b"/>
                    <path id="Path_21764" data-name="Path 21764" d="M830.332,635.594c-1.01-1.256-2.411-2.481-4.846-1.434A9.141,9.141,0,0,1,830.332,635.594Z" transform="translate(-822.351 -620.397)" fill="#2d356b"/>
                    <path id="Path_21765" data-name="Path 21765" d="M827.655,666.2c-.056-.218-.682.613-1,.663-.908.141-.567,1.288.333,1.054C827.336,667.828,827.713,666.435,827.655,666.2Z" transform="translate(-822.698 -638.204)" fill="#f36973"/>
                    <path id="Path_21766" data-name="Path 21766" d="M827.111,657.528c.6-.289-3.658-1.2-2.8.162A6.57,6.57,0,0,0,827.111,657.528Z" transform="translate(-821.641 -633.145)" fill="#f36973"/>
                    <path id="Path_21767" data-name="Path 21767" d="M824.666,624.073a5.574,5.574,0,0,1,6.945,3.03C829.634,624.756,828.169,623.929,824.666,624.073Z" transform="translate(-821.9 -614.917)" fill="#2d356b"/>
                    <path id="Path_21768" data-name="Path 21768" d="M819.543,645.744l2.144.5-.3-5.367-2.864,4.034Z" transform="translate(-818.526 -624.304)" fill="#f8c471"/>
                    <path id="Path_21769" data-name="Path 21769" d="M821.935,654.284l-1.863-3.207,1.572-.166Z" transform="translate(-819.376 -629.82)" fill="#f8c471"/>
                    <path id="Path_21770" data-name="Path 21770" d="M825.256,662.445a39.573,39.573,0,0,1-1.359-4.582l3.791-.263S827.215,661.666,825.256,662.445Z" transform="translate(-821.478 -633.495)" fill="#ffab00"/>
                    <path id="Path_21771" data-name="Path 21771" d="M827,660.112l-2.159.15c-.166-.576-.323-1.18-.474-1.806l3.1-.216Z" transform="translate(-821.737 -633.848)" fill="#fff"/>
                    <path id="Path_21772" data-name="Path 21772" d="M862.574,639.916c-.2-1.648-.845-2.828.4-2.978s2.431,1.066,2.631,2.716-.655,3.107-1.907,3.257S862.773,641.566,862.574,639.916Z" transform="translate(-842.543 -622.134)" fill="#ffac00"/>
                  </g>
                  <path id="Path_21773" data-name="Path 21773" d="M834.539,598.177c1.133,3.881,4.463,13.663,10.117,15.31,0,0,2.906-8.872-2.442-11.857C835.463,597.858,834.539,598.177,834.539,598.177Z" transform="translate(-827.326 -598.17)" fill="#c3e8e6"/>
                </g>
              </g>
            </g>
          </g>
        </g>
      </g>
      <g id="Group_14776" data-name="Group 14776" transform="translate(0 97.168)">
        <path id="Path_21774" data-name="Path 21774" d="M649.072,810.205l-261.765-2.78,6.383,32.5H643.1Z" transform="translate(-375.496 -805.345)" fill="#2d356b"/>
        <path id="Path_21775" data-name="Path 21775" d="M643.752,802.807H361.085l4.116,7.44,275.8-2.48Z" transform="translate(-361.085 -802.807)" fill="#7b88ac"/>
      </g>
    </g>
    <g id="Group_14780" data-name="Group 14780" transform="translate(516.975 128.908)">
      <g id="Group_14779" data-name="Group 14779" transform="translate(0 0)">
        <g id="Group_14778" data-name="Group 14778">
          <rect id="Rectangle_5298" data-name="Rectangle 5298" width="144.142" height="57.935" rx="11.604" transform="translate(144.142 46.935) rotate(-180)" fill="#fff" stroke="#231f20" stroke-miterlimit="10" stroke-width="0.25"/>
          <path id="Path_21776" data-name="Path 21776" d="M917.6,347.059,840.9,486.6l61.4-139.541Z" transform="translate(-814.727 -300.121)" fill="#fff" stroke="#231f20" stroke-miterlimit="10" stroke-width="0.25"/>
        </g>
      </g>
    </g>
    <g id="Group_14781" data-name="Group 14781" transform="translate(460.853 368.353)">
      <rect id="Rectangle_5299" data-name="Rectangle 5299" width="60.001" height="31.881" rx="6.672" transform="translate(0 0)" fill="#fff" stroke="#231f20" stroke-miterlimit="10" stroke-width="0.25"/>
      <text id="Brenda" transform="translate(13.501 19.441)" fill="#2d356b" font-size="10" font-family="TrebuchetMS-Bold, Trebuchet MS" font-weight="700"><tspan x="0" y="0">Brenda</tspan></text>
    </g>
    <g id="Group_14782" data-name="Group 14782" transform="translate(283.644 368.353)">
      <rect id="Rectangle_5300" data-name="Rectangle 5300" width="56.768" height="32.234" rx="6.672" transform="translate(0 0)" fill="#fff" stroke="#231f20" stroke-miterlimit="10" stroke-width="0.25"/>
      <text id="Akiko" transform="translate(15.384 19.617)" fill="#2d356b" font-size="10" font-family="TrebuchetMS-Bold, Trebuchet MS" font-weight="700"><tspan x="0" y="0">Akiko</tspan></text>
    </g>
  </g>
</svg>
