<svg xmlns="http://www.w3.org/2000/svg" width="326.509" height="164.768" viewBox="0 0 326.509 164.768">
  <g id="Group_18190" data-name="Group 18190" transform="translate(-30.886 -8045.989)">
    <g id="Group_18072" data-name="Group 18072" transform="translate(30.886 8055.945)">
      <path id="Path_26718" data-name="Path 26718" d="M735.008,4164.028s-17.335-68.05-20.622-92.353c0,0,32.151-24.441,74.072-3.772,0,0-9,83.178-11.111,95.2-8.485-3.3-14.455-8.158-20.563-17.839C748.53,4156.7,742.15,4163.139,735.008,4164.028Z" transform="translate(-685.356 -4010.654)" fill="#2d356b"/>
      <g id="Group_18070" data-name="Group 18070" transform="translate(0)">
        <path id="Path_26719" data-name="Path 26719" d="M854.123,4051.488c-2.208-2.332-15.8-2.664-18.733,0l-.076,3h18.734Z" transform="translate(-774.442 -4003.294)" fill="#fff"/>
        <path id="Path_26720" data-name="Path 26720" d="M798.833,4117.888s-34.784-24.047-20.878-55.829c0,0,20.307-8.941,41.159-.132C824.865,4089.226,811.987,4106.809,798.833,4117.888Z" transform="translate(-729.768 -4009.507)" fill="#7b87ab"/>
        <path id="Path_26721" data-name="Path 26721" d="M828.773,4125.936s-20.03-24.289-11.218-56.391c0,0,16.037-1.2,25.137-.134C845.93,4096.985,836.918,4114.746,828.773,4125.936Z" transform="translate(-759.709 -4017.554)" fill="#eaeaea"/>
        <path id="Path_26722" data-name="Path 26722" d="M852.642,4030.6H838.3l-2.147,13.143c7.808,4.07,12.37,3.628,18.454-.888Z" transform="translate(-775.057 -3989.287)" fill="#f7c371"/>
        <path id="Path_26723" data-name="Path 26723" d="M855.455,4089.365l3.491,2.331,4.07-2.664-2.331-3.4-2.718-.067Z" transform="translate(-789.279 -4029.782)" fill="#ffac00"/>
        <path id="Path_26724" data-name="Path 26724" d="M819.491,4060.374l4.368-3.555c1.286,3.674,3.554,5.8,8.958,7.37,0,0-4.341,6.59-6.334,6.417S819.491,4060.374,819.491,4060.374Z" transform="translate(-762.785 -4008.603)" fill="#fff"/>
        <path id="Path_26725" data-name="Path 26725" d="M883.778,4060.263l-4.456-3.531c-1.674,3.6-4.054,5.766-9.887,7.451,0,0,4.2,6.6,6.32,6.417S883.778,4060.263,883.778,4060.263Z" transform="translate(-799.578 -4008.539)" fill="#fff"/>
        <path id="Path_26726" data-name="Path 26726" d="M858.566,4104.876l-1.417.265-3.2,42.847,3.212,4.4,3.335-4.4Z" transform="translate(-788.167 -4044.006)" fill="#ffac00"/>
        <path id="Path_26727" data-name="Path 26727" d="M869.7,4308.086a1.662,1.662,0,1,0-1.662,1.661A1.662,1.662,0,0,0,869.7,4308.086Z" transform="translate(-797.325 -4192.481)" fill="#7b87ab"/>
        <g id="Group_18060" data-name="Group 18060" transform="translate(85.783 56.96)">
          <path id="Path_26728" data-name="Path 26728" d="M941.01,4425.026c-.462-.622.57-1.563,1.885-2.448s2.408-1.38,2.873-.76-.226,1.842-1.541,2.728S941.473,4425.647,941.01,4425.026Z" transform="translate(-938.006 -4334.247)" fill="#f7c371"/>
          <path id="Path_26729" data-name="Path 26729" d="M948.008,4429.637c-.462-.622.57-1.563,1.885-2.448s2.408-1.382,2.873-.76-.227,1.841-1.542,2.728S948.471,4430.256,948.008,4429.637Z" transform="translate(-943.161 -4337.642)" fill="#f7c371"/>
          <path id="Path_26730" data-name="Path 26730" d="M930.077,4418.952c.559-.562,2.217.63,3.936,2.154s2.851,2.8,2.292,3.363-2.4-.22-4.123-1.744S929.519,4419.513,930.077,4418.952Z" transform="translate(-929.916 -4332.234)" fill="#ffd8a3"/>
          <path id="Path_26731" data-name="Path 26731" d="M941.137,4385.342c-2.731,2.02-11.811,7.712-9.89,10.813,1.719,2.775,7.738,3.665,12.431-8.838Z" transform="translate(-930.702 -4307.579)" fill="#ffd8a3"/>
          <path id="Path_26732" data-name="Path 26732" d="M958.562,4373.887l2.649-5.839,7.512,6.035-5.205,3.53Z" transform="translate(-951.019 -4294.839)" fill="#eaeaea"/>
          <path id="Path_26733" data-name="Path 26733" d="M1009.447,4132.429c4.042-1.931-11.937-21.138-30.365-42.4,0,0-7.258,14.4-5.281,23.432C973.8,4113.458,993.137,4140.222,1009.447,4132.429Z" transform="translate(-961.994 -4090.026)" fill="#2d356b"/>
          <path id="Path_26734" data-name="Path 26734" d="M1003.932,4232.973s-8.786,13.782-30.951,39.412c0,0-4.6-1.32-7.723-7.139,0,0,13.947-24.876,23.6-37.7C988.863,4227.55,1002.342,4226.534,1003.932,4232.973Z" transform="translate(-955.952 -4191.294)" fill="#2d356b"/>
          <path id="Path_26735" data-name="Path 26735" d="M987.908,4369.5a1.338,1.338,0,1,0-1.9.834A1.485,1.485,0,0,0,987.908,4369.5Z" transform="translate(-970.764 -4294.327)" fill="#7b87ab"/>
        </g>
        <g id="Group_18061" data-name="Group 18061" transform="translate(0 60.9)">
          <path id="Path_26736" data-name="Path 26736" d="M771.347,4434.966c.345-.638-.673-1.407-1.934-2.095s-2.286-1.027-2.633-.391.4,1.709,1.658,2.395S771,4435.6,771.347,4434.966Z" transform="translate(-723.892 -4345.998)" fill="#f7c371"/>
          <path id="Path_26737" data-name="Path 26737" d="M765.619,4440.092c.346-.636-.672-1.407-1.933-2.092s-2.285-1.029-2.633-.392.4,1.708,1.659,2.4S765.273,4440.729,765.619,4440.092Z" transform="translate(-719.673 -4349.775)" fill="#f7c371"/>
          <path id="Path_26738" data-name="Path 26738" d="M778,4426.858c-.555-.464-1.9.843-3.268,2.47s-2.235,2.956-1.679,3.423,2.111-.476,3.477-2.1S778.553,4427.323,778,4426.858Z" transform="translate(-728.449 -4342.034)" fill="#ffd8a3"/>
          <path id="Path_26739" data-name="Path 26739" d="M748.322,4399.506c2.64,1.593,11.308,5.932,9.93,9.065-1.233,2.8-6.486,4.319-11.978-6.922Z" transform="translate(-708.848 -4321.954)" fill="#ffd8a3"/>
          <path id="Path_26740" data-name="Path 26740" d="M732.89,4389l-5.335-3.414,6.959-6.494,2.717,5.587Z" transform="translate(-695.058 -4306.919)" fill="#eaeaea"/>
          <path id="Path_26741" data-name="Path 26741" d="M604.939,4147.994c-4.53-.173,10.973-21.492,28.4-43,0,0,6.743,9.554,5.138,20.833C638.474,4125.824,621.707,4148.637,604.939,4147.994Z" transform="translate(-604.142 -4104.99)" fill="#2d356b"/>
          <path id="Path_26742" data-name="Path 26742" d="M605.033,4244.382s7.8,14.969,32.87,38.227c0,0,4.614-1.49,7.558-7.422,0,0-15.181-25.624-24.23-38.4C621.231,4236.787,606.4,4237.888,605.033,4244.382Z" transform="translate(-604.798 -4202.082)" fill="#2d356b"/>
          <path id="Path_26743" data-name="Path 26743" d="M723.559,4377.913a1.338,1.338,0,1,0,.28-2.058A1.484,1.484,0,0,0,723.559,4377.913Z" transform="translate(-691.909 -4304.413)" fill="#7b87ab"/>
        </g>
        <g id="Group_18069" data-name="Group 18069" transform="translate(54.797)">
          <path id="Path_26744" data-name="Path 26744" d="M821.172,3908.231c-1.79-7.773-5.386-25.2-1.4-29.57,4.177-4.578,22.37-7.62,20.478-1.57,6.939,6.449,4.606,23.2,4.606,29.058Z" transform="translate(-816.459 -3873.712)" fill="#0080af"/>
          <g id="Group_18067" data-name="Group 18067" transform="translate(0 5.639)">
            <g id="Group_18066" data-name="Group 18066">
              <g id="Group_18065" data-name="Group 18065">
                <g id="Group_18064" data-name="Group 18064">
                  <path id="Path_26745" data-name="Path 26745" d="M914.84,3956.176c.01-2.8,1.11-4.409,2.336-4.522s2.115,1.317,2.1,4.114-1.917,4.267-3.143,4.38S914.831,3958.971,914.84,3956.176Z" transform="translate(-887.824 -3936.765)" fill="#f7c371"/>
                  <path id="Path_26746" data-name="Path 26746" d="M817.027,3965.936c-.439-2.754-1.824-4.14-3.109-4.022s-1.984,1.695-1.544,4.449a4.067,4.067,0,0,0,3.922,3.731C817.581,3969.977,817.466,3968.689,817.027,3965.936Z" transform="translate(-812.242 -3944.322)" fill="#f7c371"/>
                  <g id="Group_18063" data-name="Group 18063" transform="translate(3.756)">
                    <g id="Group_18062" data-name="Group 18062">
                      <path id="Path_26747" data-name="Path 26747" d="M826.9,3933.844c.3,1.26,6.658,6.232,13.32,5.62s11.72-6.141,12.69-8.282-6.077-27.635-9-29.556-13.749.52-14.573,1.749C827.382,3906.292,825.717,3928.889,826.9,3933.844Z" transform="translate(-826.505 -3899.39)" fill="#ffd8a3"/>
                      <path id="Path_26748" data-name="Path 26748" d="M852.822,3897.488c-.686-2.229-3.581-2.614-7.764-2.23s-7.456,1.988-7.31,3.58,3.656,2.572,7.84,2.188S853.293,3899.025,852.822,3897.488Z" transform="translate(-834.784 -3895.127)" fill="#ffd8a3"/>
                    </g>
                    <path id="Path_26749" data-name="Path 26749" d="M830.633,3915.378c1,.309,4.015-8.445,4.68-9.925s.4-2.927-.6-3.236-2.343.64-3.008,2.119S829.637,3915.069,830.633,3915.378Z" transform="translate(-829.291 -3900.307)" fill="#ffd8a3"/>
                    <path id="Path_26750" data-name="Path 26750" d="M888.812,3909.064c.982-.385-2.468-8.671-3.191-10.1s-2.1-2.266-3.086-1.881-1.194,1.853-.472,3.278S887.829,3909.45,888.812,3909.064Z" transform="translate(-867.118 -3896.502)" fill="#ffd8a3"/>
                  </g>
                </g>
                <path id="Path_26751" data-name="Path 26751" d="M865.107,3959.115a4.765,4.765,0,0,0,2.248.953,2.854,2.854,0,0,0,2.024-1.465c.026-.772-2.319-9.144-2.881-9.173S864.966,3958.009,865.107,3959.115Z" transform="translate(-851.177 -3935.131)" fill="#ffab00"/>
                <path id="Path_26752" data-name="Path 26752" d="M867.349,3957.317c.02.194.933.42,1.245.392.533-.049,1.151-.392,1.142-.742-.025-.843-.473-10.393-2.076-10.155C865.906,3947.071,867.214,3956.1,867.349,3957.317Z" transform="translate(-852.4 -3933.198)" fill="#ffd8a3"/>
                <path id="Path_26753" data-name="Path 26753" d="M849.668,3959.351c-.071-.729-.526-1.285-1.015-1.24s-.827.673-.756,1.4.526,1.285,1.016,1.24S849.74,3960.081,849.668,3959.351Z" transform="translate(-838.502 -3941.524)" fill="#2d356b"/>
                <path id="Path_26754" data-name="Path 26754" d="M892.441,3955.422c-.071-.729-.526-1.284-1.015-1.24s-.827.673-.756,1.4.526,1.284,1.015,1.239S892.513,3956.152,892.441,3955.422Z" transform="translate(-870.012 -3938.63)" fill="#2d356b"/>
              </g>
              <path id="Path_26755" data-name="Path 26755" d="M840.709,3935.963a1.028,1.028,0,0,0-.6-.621c-.758-.291-5.468,2.571-5.15,3.369l.2.5c.23.574,1.551-.542,3.022-1.2,1.406-.628,2.973-.771,2.782-1.32Z" transform="translate(-828.965 -3924.737)" fill="#2d356b"/>
              <path id="Path_26756" data-name="Path 26756" d="M881.41,3942.9a1.408,1.408,0,0,0-.035,1.051c.335.851,6.023,1.674,6.4.671l.237-.629c.274-.723-1.564-.653-3.157-1.138-1.523-.463-2.792-1.513-3.075-.841Z" transform="translate(-863.108 -3929.51)" fill="#2d356b"/>
              <path id="Path_26757" data-name="Path 26757" d="M858.846,4000.959c.235-.633,2.447-1.046,5.024-1.422,1.963-.286,4.028-.526,4.266-.232.517.647-2.067,1.95-4.006,2.5C861.9,4002.438,858.519,4001.841,858.846,4000.959Z" transform="translate(-846.558 -3971.773)" fill="#ffab00"/>
              <path id="Path_26758" data-name="Path 26758" d="M861.669,4001.331c.273-.442,2.044-.748,4.091-1.031,1.561-.214,3.195-.4,3.335-.2.307.443-1.881,1.371-3.462,1.77C863.816,4002.331,861.287,4001.945,861.669,4001.331Z" transform="translate(-848.625 -3972.397)" fill="#fff"/>
            </g>
          </g>
          <g id="Group_18068" data-name="Group 18068" transform="translate(5.562 3.739)">
            <path id="Path_26759" data-name="Path 26759" d="M850.351,3891.007c-.1-1.061-3.979-1.571-8.668-1.141s-8.413,1.64-8.316,2.7,3.978,1.569,8.669,1.139S850.448,3892.067,850.351,3891.007Z" transform="translate(-833.365 -3889.239)" fill="#0080af"/>
            <path id="Path_26760" data-name="Path 26760" d="M858.884,3895.408c-4.456,3.906-10.042,4.57-14.451,4.41,0,0,10.036-1.323,13.495-4.838Z" transform="translate(-841.519 -3893.119)" fill="#0080af"/>
            <path id="Path_26761" data-name="Path 26761" d="M875.988,3892.632c-1.02,4.258-4.507,5.515-7.615,5.849,0,0,6.2-2.382,6.737-6.154Z" transform="translate(-859.154 -3891.164)" fill="#0080af"/>
            <path id="Path_26762" data-name="Path 26762" d="M886.7,3887.911c.943,3.965-1.925,6.491-4.685,8.076,0,0,4.406-4.291,3.189-7.848Z" transform="translate(-869.205 -3887.911)" fill="#0080af"/>
            <path id="Path_26763" data-name="Path 26763" d="M852.182,3896.028c-4.861,3.391-10.487,3.433-14.85,2.788,0,0,10.12-.2,13.947-3.317Z" transform="translate(-836.287 -3893.501)" fill="#0080af"/>
          </g>
        </g>
      </g>
      <g id="Group_18071" data-name="Group 18071" transform="translate(32.854 128.168)">
        <rect id="Rectangle_6445" data-name="Rectangle 6445" width="59.72" height="26.519" rx="6.672" transform="translate(6)" fill="#fff" stroke="#231f20" stroke-miterlimit="10" stroke-width="0.25"/>
        <text id="Dan" transform="translate(27.118 16.794)" fill="#2d356b" font-size="10" font-family="TrebuchetMS-Bold, Trebuchet MS" font-weight="700"><tspan x="0" y="0">Dan</tspan></text>
      </g>
    </g>
    <g id="Group_18087" data-name="Group 18087" transform="translate(121.251 8047.993)">
      <g id="Group_18086" data-name="Group 18086" transform="translate(0 0)">
        <path id="Path_26808" data-name="Path 26808" d="M1062.7,3917.057c-8.739,11.842-5.775,26.01,7.554,32.9,14.158,7.318,34.765,3.712,46.622-7.991,6.429,7.872,17.129,14.59,30.126,18.012,23.958,6.306,46.643-.977,50.667-16.269a19.424,19.424,0,0,0,.1-9.277c19.768,8.232,33.062,3.191,41.2-13.677,6-12.447-1.06-36.308-30.3-44-3.728-.981-7.412-1.76-11.012-2.347a10.412,10.412,0,0,0,.8-7.117c-3.635-19.116-26.933-24.673-52.406-23.662-21.449.852-33.9,11.508-40.561,21.674,0,0-55.943-27.161-73.809,13.995C1031.681,3879.292,1013.447,3915.291,1062.7,3917.057Z" transform="translate(-1007.035 -3843.51)" fill="#fff" stroke="#ebebeb" stroke-miterlimit="10" stroke-width="4"/>
        <circle id="Ellipse_372" data-name="Ellipse 372" cx="7.319" cy="7.319" r="7.319" transform="translate(16.877 25.028)" fill="#fff" stroke="#ebebeb" stroke-miterlimit="10" stroke-width="4"/>
        <circle id="Ellipse_373" data-name="Ellipse 373" cx="4.337" cy="4.337" r="4.337" transform="translate(9.766 26.151)" fill="#fff" stroke="#ebebeb" stroke-miterlimit="10" stroke-width="4"/>
        <circle id="Ellipse_374" data-name="Ellipse 374" cx="3.71" cy="3.71" r="3.71" transform="translate(0 29.372)" fill="#fff" stroke="#ebebeb" stroke-miterlimit="10" stroke-width="4"/>
      </g>
    </g>
    <text id="_" data-name="?" transform="translate(228.233 8129.321)" fill="#2d356b" font-size="78" font-family="TrebuchetMS-Bold, Trebuchet MS" font-weight="700"><tspan x="0" y="0">?</tspan></text>
    <text id="_2" data-name="$" transform="translate(278.867 8137.607) rotate(10.816)" fill="#7b88ac" font-size="50" font-family="TrebuchetMS-Bold, Trebuchet MS" font-weight="700"><tspan x="0" y="0">$</tspan></text>
    <text id="_3" data-name="¥" transform="matrix(0.982, -0.19, 0.19, 0.982, 178.955, 8114.853)" fill="#7b88ac" font-size="49" font-family="TrebuchetMS-Bold, Trebuchet MS" font-weight="700"><tspan x="0" y="0">¥</tspan></text>
  </g>
</svg>
