<svg xmlns="http://www.w3.org/2000/svg" width="542" height="344.882" viewBox="0 0 542 344.882">
  <g id="Group_15242" data-name="Group 15242" transform="translate(-217.904 -826.732)">
    <g id="Group_15187" data-name="Group 15187" transform="translate(217.904 826.732)">
      <g id="Group_15186" data-name="Group 15186">
        <g id="Group_15185" data-name="Group 15185">
          <g id="Group_15184" data-name="Group 15184">
            <g id="Group_15183" data-name="Group 15183">
              <g id="Group_15100" data-name="Group 15100">
                <g id="Group_15097" data-name="Group 15097" transform="translate(0.46)">
                  <g id="Group_15093" data-name="Group 15093" transform="translate(0.105)">
                    <path id="Path_22306" data-name="Path 22306" d="M759.763,839.5h.641V827.4H218.97v252.865H759.758v-25.4h.006Z" transform="translate(-218.97 -827.046)" fill="#fff"/>
                    <rect id="Rectangle_5434" data-name="Rectangle 5434" width="540.869" height="0.707" transform="translate(0 252.865)" fill="#a0bacb"/>
                    <rect id="Rectangle_5435" data-name="Rectangle 5435" width="541.434" height="0.707" fill="#7b88ac"/>
                  </g>
                  <g id="Group_15094" data-name="Group 15094" transform="translate(0 51.668)">
                    <path id="Path_22307" data-name="Path 22307" d="M296.18,925.021v-.185h-6.757v.185h-69.85v154.165H363.018V925.021Zm60.9,4.95v33.9h-60.9v-33.9Zm-67.657,39.75v64.765H225.511V969.721Zm6.757,64.765V969.721h60.9v64.765Zm-6.757-104.515v33.9H225.511v-33.9Zm-63.912,110.365h63.912v33.9H225.511Zm70.669,33.9v-33.9h60.9v33.9Z" transform="translate(-219.148 -924.482)" fill="#ebebeb"/>
                    <path id="Path_22308" data-name="Path 22308" d="M363.066,1079.226H218.772V924.354h69.85v-.185h7.606v.185h66.838Zm-143.446-.707h142.6V925.061H295.38v-.186h-5.909v.186H219.62Zm137.507-4.243H295.38v-34.607h61.748Zm-60.9-.707h60.051v-33.193H296.228Zm-6.757.707h-64.76v-34.607h64.76Zm-63.912-.707h63.063v-33.193H225.559Zm131.569-39.043H295.38V969.054h61.748Zm-60.9-.707h60.051V969.761H296.228Zm-6.757.707h-64.76V969.054h64.76Zm-63.912-.707h63.063V969.761H225.559Zm131.569-69.907H295.38V929.3h61.748Zm-60.9-.708h60.051V930.012H296.228Zm-6.757.708h-64.76V929.3h64.76Zm-63.912-.708h63.063V930.012H225.559Z" transform="translate(-218.772 -924.169)" fill="#ebebeb"/>
                  </g>
                  <g id="Group_15095" data-name="Group 15095" transform="translate(214.604 50.756)">
                    <path id="Path_22309" data-name="Path 22309" d="M631.579,923.3v-.186h-6.757v.186h-69.85v154.165H698.418V923.3Zm60.9,4.95v33.9h-60.9v-33.9ZM624.822,968v64.765H560.911V968Zm6.757,64.765V968h60.9v64.765Zm-6.757-104.515v33.9H560.911v-33.9Zm-63.911,110.365h63.911v33.9H560.911Zm70.668,33.9v-33.9h60.9v33.9Z" transform="translate(-554.548 -922.762)" fill="#ebebeb"/>
                    <path id="Path_22310" data-name="Path 22310" d="M698.466,1077.506H554.172V922.634h69.85v-.185h7.606v.185h66.838ZM555.02,1076.8h142.6V923.341H630.78v-.186h-5.909v.186H555.02Zm137.507-4.243H630.78v-34.607h61.748Zm-60.9-.707h60.051v-33.193H631.628Zm-6.757.707h-64.76v-34.607h64.76Zm-63.912-.707h63.063v-33.193H560.959Zm131.569-39.043H630.78V967.334h61.748Zm-60.9-.707h60.051V968.041H631.628Zm-6.757.707h-64.76V967.334h64.76Zm-63.912-.707h63.063V968.041H560.959Zm131.569-69.908H630.78V927.584h61.748Zm-60.9-.707h60.051V928.292H631.628Zm-6.757.707h-64.76V927.584h64.76Zm-63.912-.707h63.063V928.292H560.959Z" transform="translate(-554.172 -922.449)" fill="#ebebeb"/>
                  </g>
                  <g id="Group_15096" data-name="Group 15096" transform="translate(427.749 51.668)">
                    <path id="Path_22311" data-name="Path 22311" d="M1010.746,1074.236h-36.2v-33.9h36.2v-5.85h-36.2V969.721h36.2v-5.85h-36.2v-33.9h36.2v-4.95h-36.2v-.185H967.79v.185H897.94v154.165h112.806Zm-42.956,0H903.879v-33.9H967.79Zm0-39.75H903.879V969.721H967.79Zm0-70.615H903.879v-33.9H967.79Z" transform="translate(-897.516 -924.482)" fill="#ebebeb"/>
                    <path id="Path_22312" data-name="Path 22312" d="M1041.608,1176.587h36.623v-.707h-35.774v-33.193h35.774v-.707h-36.623Z" transform="translate(-965 -1026.48)" fill="#ebebeb"/>
                    <path id="Path_22313" data-name="Path 22313" d="M1041.608,1074.286h36.623v-.707h-35.774v-64.058h35.774v-.707h-36.623Z" transform="translate(-965 -963.929)" fill="#ebebeb"/>
                    <path id="Path_22314" data-name="Path 22314" d="M1041.608,968.46h36.623v-.707h-35.774V934.56h35.774v-.707h-36.623Z" transform="translate(-965 -928.718)" fill="#ebebeb"/>
                    <path id="Path_22315" data-name="Path 22315" d="M973.1,933.853H908.34v34.608H973.1Zm-.848,33.9H909.188V934.56h63.063Z" transform="translate(-902.401 -928.718)" fill="#ebebeb"/>
                    <path id="Path_22316" data-name="Path 22316" d="M1010.371,1078.519H897.989V925.061h69.85v-.185h5.909v.185h36.623v-.707H974.6v-.185h-7.606v.185h-69.85v154.872h113.23Z" transform="translate(-897.141 -924.169)" fill="#ebebeb"/>
                    <path id="Path_22317" data-name="Path 22317" d="M908.34,1176.587H973.1V1141.98H908.34Zm.848-33.9h63.063v33.193H909.188Z" transform="translate(-902.401 -1026.48)" fill="#ebebeb"/>
                    <path id="Path_22318" data-name="Path 22318" d="M973.1,1008.814H908.34v65.472H973.1Zm-.848,64.765H909.188v-64.058h63.063Z" transform="translate(-902.401 -963.929)" fill="#ebebeb"/>
                  </g>
                </g>
                <g id="Group_15098" data-name="Group 15098" transform="translate(0 222.776)">
                  <path id="Path_22319" data-name="Path 22319" d="M759.338,1247.412H218.551v86.759H217.9v35.047H759.333V1251.108h.005Z" transform="translate(-217.904 -1247.112)" fill="#f9f9f9"/>
                  <rect id="Rectangle_5436" data-name="Rectangle 5436" width="539.884" height="0.507" transform="translate(1.691 121.408)" fill="#f9f9f9"/>
                  <rect id="Rectangle_5437" data-name="Rectangle 5437" width="540.874" height="0.507" transform="translate(0.566)" fill="#f9f9f9"/>
                </g>
                <g id="Group_15099" data-name="Group 15099" transform="translate(28.706 4.458)">
                  <path id="Path_22320" data-name="Path 22320" d="M831.282,910.791V835.139h-1.812v75.652c-5.651.385-10.1,4.323-10.1,9.132,0,5.064,4.926,9.17,11,9.17s11-4.105,11-9.17C841.377,915.114,836.933,911.177,831.282,910.791Z" transform="translate(-476.423 -835.139)" fill="#c3e8e6"/>
                  <path id="Path_22321" data-name="Path 22321" d="M283.944,922.06V846.408h-1.812V922.06c-5.651.385-10.095,4.322-10.095,9.131,0,5.065,4.925,9.17,11,9.17s11-4.105,11-9.17C294.04,926.382,289.6,922.445,283.944,922.06Z" transform="translate(-272.037 -840.432)" fill="#c3e8e6"/>
                  <path id="Path_22322" data-name="Path 22322" d="M475.423,912.74v-55h-1.318v55c-4.108.28-7.34,3.142-7.34,6.639,0,3.682,3.581,6.667,8,6.667s8-2.985,8-6.667C482.763,915.883,479.532,913.02,475.423,912.74Z" transform="translate(-345.048 -845.755)" fill="#c3e8e6"/>
                  <path id="Path_22323" data-name="Path 22323" d="M998.378,912.74v-55h-1.318v55c-4.109.28-7.34,3.142-7.34,6.639,0,3.682,3.581,6.667,8,6.667s8-2.985,8-6.667C1005.718,915.883,1002.487,913.02,998.378,912.74Z" transform="translate(-541.125 -845.755)" fill="#c3e8e6"/>
                </g>
              </g>
              <g id="Group_15137" data-name="Group 15137" transform="translate(16.007 109.363)">
                <g id="Group_15109" data-name="Group 15109" transform="translate(0 21.216)">
                  <g id="Group_15101" data-name="Group 15101">
                    <rect id="Rectangle_5438" data-name="Rectangle 5438" width="46.552" height="1.663" transform="translate(0.424 0.354)" fill="#ebebeb"/>
                    <path id="Path_22324" data-name="Path 22324" d="M295.49,1075.35h-47.4v-2.37h47.4Zm-46.552-.707h45.7v-.956h-45.7Z" transform="translate(-248.089 -1072.98)" fill="#ebebeb"/>
                  </g>
                  <g id="Group_15102" data-name="Group 15102" transform="translate(0 25.083)">
                    <rect id="Rectangle_5439" data-name="Rectangle 5439" width="46.552" height="1.663" transform="translate(0.424 0.354)" fill="#ebebeb"/>
                    <path id="Path_22325" data-name="Path 22325" d="M295.49,1122.651h-47.4v-2.37h47.4Zm-46.552-.707h45.7v-.956h-45.7Z" transform="translate(-248.089 -1120.281)" fill="#ebebeb"/>
                  </g>
                  <g id="Group_15103" data-name="Group 15103" transform="translate(0 50.165)">
                    <rect id="Rectangle_5440" data-name="Rectangle 5440" width="46.552" height="1.663" transform="translate(0.424 0.353)" fill="#ebebeb"/>
                    <path id="Path_22326" data-name="Path 22326" d="M295.49,1169.952h-47.4v-2.37h47.4Zm-46.552-.707h45.7v-.956h-45.7Z" transform="translate(-248.089 -1167.582)" fill="#ebebeb"/>
                  </g>
                  <g id="Group_15108" data-name="Group 15108" transform="translate(0 0.555)">
                    <g id="Group_15104" data-name="Group 15104" transform="translate(0 75.247)">
                      <rect id="Rectangle_5441" data-name="Rectangle 5441" width="46.552" height="1.663" transform="translate(0.424 0.354)" fill="#ebebeb"/>
                      <path id="Path_22327" data-name="Path 22327" d="M295.49,1218.3h-47.4v-2.37h47.4Zm-46.552-.707h45.7v-.956h-45.7Z" transform="translate(-248.089 -1215.927)" fill="#ebebeb"/>
                    </g>
                    <g id="Group_15105" data-name="Group 15105" transform="translate(0 99.253)">
                      <rect id="Rectangle_5442" data-name="Rectangle 5442" width="46.552" height="1.663" transform="translate(0.424 0.353)" fill="#ebebeb"/>
                      <path id="Path_22328" data-name="Path 22328" d="M295.49,1263.569h-47.4v-2.37h47.4Zm-46.552-.707h45.7v-.956h-45.7Z" transform="translate(-248.089 -1261.199)" fill="#ebebeb"/>
                    </g>
                    <g id="Group_15106" data-name="Group 15106">
                      <rect id="Rectangle_5443" data-name="Rectangle 5443" width="2.494" height="120.66" transform="translate(0.424 0.353)" fill="#ebebeb"/>
                      <path id="Path_22329" data-name="Path 22329" d="M251.431,1195.393h-3.342V1074.026h3.342Zm-2.494-.707h1.645V1074.733h-1.645Z" transform="translate(-248.089 -1074.026)" fill="#ebebeb"/>
                    </g>
                    <g id="Group_15107" data-name="Group 15107" transform="translate(44.059)">
                      <rect id="Rectangle_5444" data-name="Rectangle 5444" width="2.494" height="120.66" transform="translate(0.424 0.353)" fill="#ebebeb"/>
                      <path id="Path_22330" data-name="Path 22330" d="M334.517,1195.393h-3.342V1074.026h3.342Zm-2.494-.707h1.645V1074.733h-1.645Z" transform="translate(-331.175 -1074.026)" fill="#ebebeb"/>
                    </g>
                  </g>
                </g>
                <g id="Group_15120" data-name="Group 15120" transform="translate(8.344 27.129)">
                  <g id="Group_15111" data-name="Group 15111">
                    <g id="Group_15110" data-name="Group 15110">
                      <rect id="Rectangle_5445" data-name="Rectangle 5445" width="4.877" height="19.17" transform="translate(0.424 0.354)" fill="#ebebeb"/>
                      <path id="Path_22331" data-name="Path 22331" d="M269.55,1104.007h-5.725V1084.13h5.725Zm-4.876-.707H268.7v-18.463h-4.028Z" transform="translate(-263.825 -1084.13)" fill="#ebebeb"/>
                    </g>
                    <path id="Path_22332" data-name="Path 22332" d="M269.407,1091.886a1.634,1.634,0,1,1-1.607-1.339A1.492,1.492,0,0,1,269.407,1091.886Z" transform="translate(-264.937 -1087.144)" fill="#ebebeb"/>
                  </g>
                  <g id="Group_15113" data-name="Group 15113" transform="translate(5.732)">
                    <g id="Group_15112" data-name="Group 15112">
                      <rect id="Rectangle_5446" data-name="Rectangle 5446" width="4.877" height="19.17" transform="translate(0.424 0.354)" fill="#ebebeb"/>
                      <path id="Path_22333" data-name="Path 22333" d="M280.36,1104.007h-5.725V1084.13h5.725Zm-4.877-.707h4.029v-18.463h-4.029Z" transform="translate(-274.635 -1084.13)" fill="#ebebeb"/>
                    </g>
                    <path id="Path_22334" data-name="Path 22334" d="M280.217,1091.886a1.634,1.634,0,1,1-1.607-1.339A1.492,1.492,0,0,1,280.217,1091.886Z" transform="translate(-275.747 -1087.144)" fill="#ebebeb"/>
                  </g>
                  <g id="Group_15115" data-name="Group 15115" transform="translate(11.465)">
                    <g id="Group_15114" data-name="Group 15114">
                      <rect id="Rectangle_5447" data-name="Rectangle 5447" width="4.877" height="19.17" transform="translate(0.424 0.354)" fill="#ebebeb"/>
                      <path id="Path_22335" data-name="Path 22335" d="M291.17,1104.007h-5.725V1084.13h5.725Zm-4.876-.707h4.029v-18.463h-4.029Z" transform="translate(-285.445 -1084.13)" fill="#ebebeb"/>
                    </g>
                    <path id="Path_22336" data-name="Path 22336" d="M291.027,1091.886a1.634,1.634,0,1,1-1.607-1.339A1.492,1.492,0,0,1,291.027,1091.886Z" transform="translate(-286.557 -1087.144)" fill="#ebebeb"/>
                  </g>
                  <g id="Group_15117" data-name="Group 15117" transform="translate(17.197)">
                    <g id="Group_15116" data-name="Group 15116">
                      <rect id="Rectangle_5448" data-name="Rectangle 5448" width="4.877" height="19.17" transform="translate(0.424 0.354)" fill="#ebebeb"/>
                      <path id="Path_22337" data-name="Path 22337" d="M301.98,1104.007h-5.725V1084.13h5.725Zm-4.877-.707h4.029v-18.463H297.1Z" transform="translate(-296.255 -1084.13)" fill="#ebebeb"/>
                    </g>
                    <path id="Path_22338" data-name="Path 22338" d="M301.837,1091.886a1.634,1.634,0,1,1-1.607-1.339A1.492,1.492,0,0,1,301.837,1091.886Z" transform="translate(-297.367 -1087.144)" fill="#ebebeb"/>
                  </g>
                  <g id="Group_15119" data-name="Group 15119" transform="translate(22.929)">
                    <g id="Group_15118" data-name="Group 15118">
                      <rect id="Rectangle_5449" data-name="Rectangle 5449" width="4.877" height="19.17" transform="translate(0.424 0.354)" fill="#ebebeb"/>
                      <path id="Path_22339" data-name="Path 22339" d="M312.79,1104.007h-5.725V1084.13h5.725Zm-4.877-.707h4.029v-18.463h-4.029Z" transform="translate(-307.065 -1084.13)" fill="#ebebeb"/>
                    </g>
                    <path id="Path_22340" data-name="Path 22340" d="M312.648,1091.886a1.634,1.634,0,1,1-1.607-1.339A1.492,1.492,0,0,1,312.648,1091.886Z" transform="translate(-308.177 -1087.144)" fill="#ebebeb"/>
                  </g>
                </g>
                <path id="Path_22341" data-name="Path 22341" d="M267.2,1190.518a7.95,7.95,0,0,1,.759-3.522h-5.846a7.945,7.945,0,0,1,.759,3.522c0,2.131-2.562,6.066-2.562,8.689s2.716,3.484,4.725,3.484,4.725-.861,4.725-3.484S267.2,1192.649,267.2,1190.518Z" transform="translate(-253.83 -1105.319)" fill="#ebebeb"/>
                <g id="Group_15122" data-name="Group 15122" transform="translate(24.812 54.533)">
                  <g id="Group_15121" data-name="Group 15121" transform="translate(0.724)">
                    <path id="Path_22342" data-name="Path 22342" d="M308.726,1145.332c1.577-3.083-1.928-3.027-1.661-3.837.5-1.519,2.39.131,3.157-.633s-1.892-3.149-.5-3.976.9,1.969,2.107,1.771.486-3.151,1.9-2.822c1.066.248-.2,2.094-.083,2.956s2.316-.394,2.354.837-2.622.692-2.935,1.628,2.861,1.129,1.748,1.921-3.211-.156-3.763.667S308.057,1146.641,308.726,1145.332Z" transform="translate(-301.321 -1135.81)" fill="#ebebeb"/>
                    <path id="Path_22343" data-name="Path 22343" d="M302.68,1150.162c-1.482-3.116-3.925-1.021-4.418-1.753-.926-1.374,1.81-1.308,1.71-2.3s-4-1.13-3.71-2.533,2.3.87,2.992.023-2.314-2.525-1.027-3.122c.967-.449,1.624,1.606,2.435,2.15s1.314-1.638,2.379-.786-1.28,2.029-.713,2.878,2.987-.875,2.863.34-2.414,1.772-2.112,2.681S303.31,1151.485,302.68,1150.162Z" transform="translate(-296.246 -1137.971)" fill="#ebebeb"/>
                  </g>
                  <path id="Path_22344" data-name="Path 22344" d="M305.812,1150.652H297.72s-2.84,2.033-2.84,4.435,1.77,4.9,6.886,4.9,6.886-2.495,6.886-4.9S305.812,1150.652,305.812,1150.652Z" transform="translate(-294.88 -1142.781)" fill="#ebebeb"/>
                </g>
                <g id="Group_15123" data-name="Group 15123" transform="translate(26.797 86.424)">
                  <rect id="Rectangle_5450" data-name="Rectangle 5450" width="7.468" height="8.453" transform="translate(2.31 2.494)" fill="#ebebeb"/>
                  <ellipse id="Ellipse_207" data-name="Ellipse 207" cx="5.893" cy="2.494" rx="5.893" ry="2.494" fill="#ebebeb"/>
                </g>
                <g id="Group_15124" data-name="Group 15124" transform="translate(21.596 13.453)">
                  <rect id="Rectangle_5451" data-name="Rectangle 5451" width="5.537" height="6.267" transform="translate(1.713 1.85)" fill="#ebebeb"/>
                  <path id="Path_22345" data-name="Path 22345" d="M297.554,1060.19c0,1.021-1.956,1.85-4.369,1.85s-4.369-.828-4.369-1.85,1.956-1.85,4.369-1.85S297.554,1059.168,297.554,1060.19Z" transform="translate(-288.815 -1058.34)" fill="#ebebeb"/>
                </g>
                <g id="Group_15126" data-name="Group 15126" transform="translate(3.084)">
                  <g id="Group_15125" data-name="Group 15125">
                    <path id="Path_22346" data-name="Path 22346" d="M272.09,1050.147s-1.915-5.543,6.564-11.779c0,0-7.26,6.652-4.877,11.779Z" transform="translate(-262.36 -1035.506)" fill="#ebebeb"/>
                    <path id="Path_22347" data-name="Path 22347" d="M270.616,1048.87s-4.392-6.175,3.473-15.9c0,0-6.24,9.907-1.442,15.459Z" transform="translate(-261.18 -1032.97)" fill="#ebebeb"/>
                    <path id="Path_22348" data-name="Path 22348" d="M263.1,1050.147s1.916-5.543-6.564-11.779c0,0,7.26,6.652,4.877,11.779Z" transform="translate(-255.141 -1035.506)" fill="#ebebeb"/>
                    <path id="Path_22349" data-name="Path 22349" d="M266.778,1048.691s3.528-4.962-2.794-12.777c0,0,5.017,7.961,1.161,12.423Z" transform="translate(-258.639 -1034.353)" fill="#ebebeb"/>
                    <path id="Path_22350" data-name="Path 22350" d="M271.555,1054.975s-1.656-5.6,7.108-11.557c0,0-7.565,6.411-5.423,11.612Z" transform="translate(-262.137 -1037.878)" fill="#ebebeb"/>
                    <path id="Path_22351" data-name="Path 22351" d="M261.013,1053.693s1.656-5.6-7.108-11.557c0,0,7.565,6.412,5.423,11.612Z" transform="translate(-253.905 -1037.276)" fill="#ebebeb"/>
                  </g>
                  <path id="Path_22352" data-name="Path 22352" d="M264.145,1056.922h-5.732l2.631,8.869h6.2l2.631-8.869Z" transform="translate(-256.023 -1044.221)" fill="#ebebeb"/>
                </g>
                <g id="Group_15136" data-name="Group 15136" transform="translate(4.448 64.806)">
                  <g id="Group_15131" data-name="Group 15131">
                    <g id="Group_15127" data-name="Group 15127" transform="translate(0.424 4.692)">
                      <rect id="Rectangle_5452" data-name="Rectangle 5452" width="2.342" height="17.546" transform="translate(0 2.342) rotate(-90)" fill="#ebebeb"/>
                    </g>
                    <g id="Group_15129" data-name="Group 15129" transform="translate(0 1.988)">
                      <g id="Group_15128" data-name="Group 15128">
                        <rect id="Rectangle_5453" data-name="Rectangle 5453" width="2.342" height="17.546" transform="translate(0.424 2.695) rotate(-90)" fill="#ebebeb"/>
                        <path id="Path_22353" data-name="Path 22353" d="M274.872,1161.979H256.478v-3.049h18.394Zm-17.546-.708h16.7v-1.634h-16.7Z" transform="translate(-256.478 -1158.93)" fill="#ebebeb"/>
                      </g>
                    </g>
                    <g id="Group_15130" data-name="Group 15130" transform="translate(0.424)">
                      <rect id="Rectangle_5454" data-name="Rectangle 5454" width="2.342" height="17.546" transform="translate(0 2.342) rotate(-90)" fill="#ebebeb"/>
                    </g>
                  </g>
                  <g id="Group_15132" data-name="Group 15132" transform="translate(10.758 0)">
                    <rect id="Rectangle_5455" data-name="Rectangle 5455" width="0.126" height="2.342" fill="#ebebeb"/>
                  </g>
                  <g id="Group_15133" data-name="Group 15133" transform="translate(12.171 0)">
                    <rect id="Rectangle_5456" data-name="Rectangle 5456" width="0.126" height="2.342" fill="#ebebeb"/>
                  </g>
                  <g id="Group_15134" data-name="Group 15134" transform="translate(13.584 0)">
                    <rect id="Rectangle_5457" data-name="Rectangle 5457" width="0.126" height="2.342" fill="#ebebeb"/>
                  </g>
                  <g id="Group_15135" data-name="Group 15135" transform="translate(14.997 0)">
                    <rect id="Rectangle_5458" data-name="Rectangle 5458" width="0.126" height="2.342" fill="#ebebeb"/>
                  </g>
                  <rect id="Rectangle_5459" data-name="Rectangle 5459" width="8.258" height="0.386" transform="translate(8.853 5.091)" fill="#ebebeb"/>
                  <rect id="Rectangle_5460" data-name="Rectangle 5460" width="8.258" height="0.386" transform="translate(8.853 5.67)" fill="#ebebeb"/>
                  <rect id="Rectangle_5461" data-name="Rectangle 5461" width="8.258" height="0.386" transform="translate(8.853 6.249)" fill="#ebebeb"/>
                </g>
              </g>
              <g id="Group_15174" data-name="Group 15174" transform="translate(453.602 98.909)">
                <g id="Group_15146" data-name="Group 15146" transform="translate(0 21.216)">
                  <g id="Group_15138" data-name="Group 15138">
                    <rect id="Rectangle_5462" data-name="Rectangle 5462" width="46.552" height="1.663" transform="translate(0.424 0.354)" fill="#ebebeb"/>
                    <path id="Path_22354" data-name="Path 22354" d="M992.428,1055.635h-47.4v-2.37h47.4Zm-46.552-.707h45.7v-.956h-45.7Z" transform="translate(-945.027 -1053.265)" fill="#ebebeb"/>
                  </g>
                  <g id="Group_15139" data-name="Group 15139" transform="translate(0 25.083)">
                    <rect id="Rectangle_5463" data-name="Rectangle 5463" width="46.552" height="1.663" transform="translate(0.424 0.354)" fill="#ebebeb"/>
                    <path id="Path_22355" data-name="Path 22355" d="M992.428,1102.936h-47.4v-2.37h47.4Zm-46.552-.707h45.7v-.956h-45.7Z" transform="translate(-945.027 -1100.566)" fill="#ebebeb"/>
                  </g>
                  <g id="Group_15140" data-name="Group 15140" transform="translate(0 50.165)">
                    <rect id="Rectangle_5464" data-name="Rectangle 5464" width="46.552" height="1.663" transform="translate(0.424 0.353)" fill="#ebebeb"/>
                    <path id="Path_22356" data-name="Path 22356" d="M992.428,1150.237h-47.4v-2.37h47.4Zm-46.552-.707h45.7v-.956h-45.7Z" transform="translate(-945.027 -1147.867)" fill="#ebebeb"/>
                  </g>
                  <g id="Group_15145" data-name="Group 15145" transform="translate(0 0.555)">
                    <g id="Group_15141" data-name="Group 15141" transform="translate(0 75.247)">
                      <rect id="Rectangle_5465" data-name="Rectangle 5465" width="46.552" height="1.663" transform="translate(0.424 0.354)" fill="#ebebeb"/>
                      <path id="Path_22357" data-name="Path 22357" d="M992.428,1198.582h-47.4v-2.37h47.4Zm-46.552-.707h45.7v-.956h-45.7Z" transform="translate(-945.027 -1196.212)" fill="#ebebeb"/>
                    </g>
                    <g id="Group_15142" data-name="Group 15142" transform="translate(0 99.253)">
                      <rect id="Rectangle_5466" data-name="Rectangle 5466" width="46.552" height="1.663" transform="translate(0.424 0.353)" fill="#ebebeb"/>
                      <path id="Path_22358" data-name="Path 22358" d="M992.428,1243.854h-47.4v-2.37h47.4Zm-46.552-.707h45.7v-.956h-45.7Z" transform="translate(-945.027 -1241.484)" fill="#ebebeb"/>
                    </g>
                    <g id="Group_15143" data-name="Group 15143">
                      <rect id="Rectangle_5467" data-name="Rectangle 5467" width="2.494" height="120.66" transform="translate(0.424 0.354)" fill="#ebebeb"/>
                      <path id="Path_22359" data-name="Path 22359" d="M948.369,1175.678h-3.342V1054.311h3.342Zm-2.493-.707h1.645V1055.018h-1.645Z" transform="translate(-945.027 -1054.311)" fill="#ebebeb"/>
                    </g>
                    <g id="Group_15144" data-name="Group 15144" transform="translate(44.059)">
                      <rect id="Rectangle_5468" data-name="Rectangle 5468" width="2.494" height="120.66" transform="translate(0.424 0.354)" fill="#ebebeb"/>
                      <path id="Path_22360" data-name="Path 22360" d="M1031.455,1175.678h-3.342V1054.311h3.342Zm-2.494-.707h1.646V1055.018h-1.646Z" transform="translate(-1028.113 -1054.311)" fill="#ebebeb"/>
                    </g>
                  </g>
                </g>
                <g id="Group_15157" data-name="Group 15157" transform="translate(8.344 27.129)">
                  <g id="Group_15148" data-name="Group 15148">
                    <g id="Group_15147" data-name="Group 15147">
                      <rect id="Rectangle_5469" data-name="Rectangle 5469" width="4.877" height="19.17" transform="translate(0.424 0.353)" fill="#ebebeb"/>
                      <path id="Path_22361" data-name="Path 22361" d="M966.488,1084.293h-5.725v-19.877h5.725Zm-4.876-.707h4.028v-18.463h-4.028Z" transform="translate(-960.763 -1064.416)" fill="#ebebeb"/>
                    </g>
                    <path id="Path_22362" data-name="Path 22362" d="M966.345,1072.172a1.634,1.634,0,1,1-1.607-1.339A1.492,1.492,0,0,1,966.345,1072.172Z" transform="translate(-961.875 -1067.43)" fill="#ebebeb"/>
                  </g>
                  <g id="Group_15150" data-name="Group 15150" transform="translate(5.732)">
                    <g id="Group_15149" data-name="Group 15149">
                      <rect id="Rectangle_5470" data-name="Rectangle 5470" width="4.877" height="19.17" transform="translate(0.424 0.353)" fill="#ebebeb"/>
                      <path id="Path_22363" data-name="Path 22363" d="M977.3,1084.293h-5.725v-19.877H977.3Zm-4.877-.707h4.029v-18.463H972.42Z" transform="translate(-971.572 -1064.416)" fill="#ebebeb"/>
                    </g>
                    <path id="Path_22364" data-name="Path 22364" d="M977.155,1072.172a1.634,1.634,0,1,1-1.607-1.339A1.492,1.492,0,0,1,977.155,1072.172Z" transform="translate(-972.684 -1067.43)" fill="#ebebeb"/>
                  </g>
                  <g id="Group_15152" data-name="Group 15152" transform="translate(11.465)">
                    <g id="Group_15151" data-name="Group 15151">
                      <rect id="Rectangle_5471" data-name="Rectangle 5471" width="4.877" height="19.17" transform="translate(0.424 0.353)" fill="#ebebeb"/>
                      <path id="Path_22365" data-name="Path 22365" d="M988.108,1084.293h-5.725v-19.877h5.725Zm-4.876-.707h4.028v-18.463h-4.028Z" transform="translate(-982.383 -1064.416)" fill="#ebebeb"/>
                    </g>
                    <path id="Path_22366" data-name="Path 22366" d="M987.965,1072.172a1.634,1.634,0,1,1-1.607-1.339A1.492,1.492,0,0,1,987.965,1072.172Z" transform="translate(-983.495 -1067.43)" fill="#ebebeb"/>
                  </g>
                  <g id="Group_15154" data-name="Group 15154" transform="translate(17.197)">
                    <g id="Group_15153" data-name="Group 15153">
                      <rect id="Rectangle_5472" data-name="Rectangle 5472" width="4.877" height="19.17" transform="translate(0.424 0.353)" fill="#ebebeb"/>
                      <path id="Path_22367" data-name="Path 22367" d="M998.918,1084.293h-5.725v-19.877h5.725Zm-4.878-.707h4.029v-18.463h-4.029Z" transform="translate(-993.193 -1064.416)" fill="#ebebeb"/>
                    </g>
                    <path id="Path_22368" data-name="Path 22368" d="M998.775,1072.172a1.634,1.634,0,1,1-1.607-1.339A1.492,1.492,0,0,1,998.775,1072.172Z" transform="translate(-994.305 -1067.43)" fill="#ebebeb"/>
                  </g>
                  <g id="Group_15156" data-name="Group 15156" transform="translate(22.929)">
                    <g id="Group_15155" data-name="Group 15155">
                      <rect id="Rectangle_5473" data-name="Rectangle 5473" width="4.877" height="19.17" transform="translate(0.424 0.353)" fill="#ebebeb"/>
                      <path id="Path_22369" data-name="Path 22369" d="M1009.728,1084.293H1004v-19.877h5.725Zm-4.877-.707h4.029v-18.463h-4.029Z" transform="translate(-1004.003 -1064.416)" fill="#ebebeb"/>
                    </g>
                    <path id="Path_22370" data-name="Path 22370" d="M1009.585,1072.172a1.634,1.634,0,1,1-1.607-1.339A1.492,1.492,0,0,1,1009.585,1072.172Z" transform="translate(-1005.115 -1067.43)" fill="#ebebeb"/>
                  </g>
                </g>
                <path id="Path_22371" data-name="Path 22371" d="M964.139,1170.8a7.942,7.942,0,0,1,.759-3.522h-5.846a7.942,7.942,0,0,1,.759,3.522c0,2.131-2.562,6.066-2.562,8.689s2.716,3.484,4.725,3.484,4.725-.861,4.725-3.484S964.139,1172.934,964.139,1170.8Z" transform="translate(-950.768 -1085.605)" fill="#ebebeb"/>
                <g id="Group_15159" data-name="Group 15159" transform="translate(24.812 54.533)">
                  <g id="Group_15158" data-name="Group 15158" transform="translate(0.724)">
                    <path id="Path_22372" data-name="Path 22372" d="M1005.664,1125.617c1.577-3.083-1.928-3.027-1.661-3.837.5-1.519,2.391.132,3.157-.633s-1.891-3.149-.5-3.976.9,1.969,2.107,1.771.487-3.151,1.905-2.822c1.066.248-.2,2.094-.083,2.956s2.316-.395,2.354.836-2.622.692-2.935,1.628,2.861,1.129,1.747,1.921-3.211-.156-3.763.667S1004.995,1126.927,1005.664,1125.617Z" transform="translate(-998.259 -1116.094)" fill="#ebebeb"/>
                    <path id="Path_22373" data-name="Path 22373" d="M999.618,1130.447c-1.482-3.116-3.925-1.021-4.418-1.753-.926-1.374,1.81-1.308,1.709-2.3s-4-1.129-3.71-2.533,2.3.87,2.991.023-2.314-2.525-1.027-3.122c.967-.449,1.625,1.606,2.436,2.15s1.313-1.638,2.379-.785-1.28,2.029-.713,2.878,2.987-.875,2.863.34-2.414,1.772-2.112,2.681S1000.248,1131.77,999.618,1130.447Z" transform="translate(-993.184 -1118.256)" fill="#ebebeb"/>
                  </g>
                  <path id="Path_22374" data-name="Path 22374" d="M1002.749,1130.937h-8.091s-2.84,2.033-2.84,4.435,1.77,4.9,6.886,4.9,6.886-2.494,6.886-4.9S1002.749,1130.937,1002.749,1130.937Z" transform="translate(-991.818 -1123.066)" fill="#ebebeb"/>
                </g>
                <g id="Group_15160" data-name="Group 15160" transform="translate(26.797 86.424)">
                  <rect id="Rectangle_5474" data-name="Rectangle 5474" width="7.468" height="8.453" transform="translate(2.31 2.494)" fill="#ebebeb"/>
                  <ellipse id="Ellipse_208" data-name="Ellipse 208" cx="5.893" cy="2.494" rx="5.893" ry="2.494" fill="#ebebeb"/>
                </g>
                <g id="Group_15161" data-name="Group 15161" transform="translate(21.596 13.454)">
                  <rect id="Rectangle_5475" data-name="Rectangle 5475" width="5.537" height="6.267" transform="translate(1.713 1.849)" fill="#ebebeb"/>
                  <path id="Path_22375" data-name="Path 22375" d="M994.492,1040.475c0,1.021-1.956,1.85-4.37,1.85s-4.369-.828-4.369-1.85,1.956-1.849,4.369-1.849S994.492,1039.454,994.492,1040.475Z" transform="translate(-985.753 -1038.626)" fill="#ebebeb"/>
                </g>
                <g id="Group_15163" data-name="Group 15163" transform="translate(3.084)">
                  <g id="Group_15162" data-name="Group 15162">
                    <path id="Path_22376" data-name="Path 22376" d="M969.028,1030.432s-1.916-5.543,6.563-11.779c0,0-7.259,6.652-4.876,11.779Z" transform="translate(-959.298 -1015.791)" fill="#ebebeb"/>
                    <path id="Path_22377" data-name="Path 22377" d="M967.554,1029.155s-4.392-6.175,3.473-15.9c0,0-6.24,9.907-1.442,15.459Z" transform="translate(-958.118 -1013.255)" fill="#ebebeb"/>
                    <path id="Path_22378" data-name="Path 22378" d="M960.038,1030.432s1.915-5.543-6.564-11.779c0,0,7.26,6.652,4.877,11.779Z" transform="translate(-952.079 -1015.791)" fill="#ebebeb"/>
                    <path id="Path_22379" data-name="Path 22379" d="M963.716,1028.976s3.528-4.962-2.794-12.777c0,0,5.016,7.961,1.161,12.423Z" transform="translate(-955.577 -1014.638)" fill="#ebebeb"/>
                    <path id="Path_22380" data-name="Path 22380" d="M968.492,1035.26s-1.656-5.6,7.108-11.557c0,0-7.564,6.411-5.422,11.612Z" transform="translate(-959.075 -1018.163)" fill="#ebebeb"/>
                    <path id="Path_22381" data-name="Path 22381" d="M957.951,1033.978s1.656-5.6-7.108-11.557c0,0,7.564,6.412,5.423,11.612Z" transform="translate(-950.843 -1017.56)" fill="#ebebeb"/>
                  </g>
                  <path id="Path_22382" data-name="Path 22382" d="M961.083,1037.208h-5.732l2.631,8.869h6.2l2.631-8.869Z" transform="translate(-952.96 -1024.506)" fill="#ebebeb"/>
                </g>
                <g id="Group_15173" data-name="Group 15173" transform="translate(4.448 64.806)">
                  <g id="Group_15168" data-name="Group 15168">
                    <g id="Group_15164" data-name="Group 15164" transform="translate(0.424 4.692)">
                      <rect id="Rectangle_5476" data-name="Rectangle 5476" width="2.342" height="17.546" transform="translate(0 2.342) rotate(-90)" fill="#ebebeb"/>
                    </g>
                    <g id="Group_15166" data-name="Group 15166" transform="translate(0 1.988)">
                      <g id="Group_15165" data-name="Group 15165">
                        <rect id="Rectangle_5477" data-name="Rectangle 5477" width="2.342" height="17.546" transform="translate(0.424 2.695) rotate(-90)" fill="#ebebeb"/>
                        <path id="Path_22383" data-name="Path 22383" d="M971.81,1142.264H953.415v-3.049H971.81Zm-17.546-.707h16.7v-1.634h-16.7Z" transform="translate(-953.415 -1139.215)" fill="#ebebeb"/>
                      </g>
                    </g>
                    <g id="Group_15167" data-name="Group 15167" transform="translate(0.424)">
                      <rect id="Rectangle_5478" data-name="Rectangle 5478" width="2.342" height="17.546" transform="translate(0 2.342) rotate(-90)" fill="#ebebeb"/>
                    </g>
                  </g>
                  <g id="Group_15169" data-name="Group 15169" transform="translate(10.758 0)">
                    <rect id="Rectangle_5479" data-name="Rectangle 5479" width="0.126" height="2.342" fill="#ebebeb"/>
                  </g>
                  <g id="Group_15170" data-name="Group 15170" transform="translate(12.171 0)">
                    <rect id="Rectangle_5480" data-name="Rectangle 5480" width="0.126" height="2.342" fill="#ebebeb"/>
                  </g>
                  <g id="Group_15171" data-name="Group 15171" transform="translate(13.584 0)">
                    <rect id="Rectangle_5481" data-name="Rectangle 5481" width="0.126" height="2.342" fill="#ebebeb"/>
                  </g>
                  <g id="Group_15172" data-name="Group 15172" transform="translate(14.998 0)">
                    <rect id="Rectangle_5482" data-name="Rectangle 5482" width="0.126" height="2.342" fill="#ebebeb"/>
                  </g>
                  <rect id="Rectangle_5483" data-name="Rectangle 5483" width="8.258" height="0.386" transform="translate(8.854 5.091)" fill="#ebebeb"/>
                  <rect id="Rectangle_5484" data-name="Rectangle 5484" width="8.258" height="0.386" transform="translate(8.854 5.67)" fill="#ebebeb"/>
                  <rect id="Rectangle_5485" data-name="Rectangle 5485" width="8.258" height="0.386" transform="translate(8.854 6.249)" fill="#ebebeb"/>
                </g>
              </g>
              <g id="Group_15182" data-name="Group 15182" transform="translate(224.249 168.083)">
                <path id="Path_22384" data-name="Path 22384" d="M690.468,1280.266H579.734c-2.114,0-3.639-1.723-3.052-3.449h0a3.149,3.149,0,0,1,3.052-1.952H690.468a3.149,3.149,0,0,1,3.052,1.952h0C694.106,1278.543,692.582,1280.266,690.468,1280.266Z" transform="translate(-574.281 -1205.313)" fill="#ebebeb" opacity="0.32"/>
                <g id="Group_15177" data-name="Group 15177" transform="translate(0 23.929)">
                  <rect id="Rectangle_5486" data-name="Rectangle 5486" width="2.142" height="45.369" transform="translate(1.278 0.254)" fill="#ebebeb"/>
                  <rect id="Rectangle_5487" data-name="Rectangle 5487" width="2.142" height="45.369" transform="translate(117.617 0.254)" fill="#ebebeb"/>
                  <g id="Group_15175" data-name="Group 15175">
                    <path id="Path_22385" data-name="Path 22385" d="M693.455,1193.768H572.948l.917-4.46H692.332Z" transform="translate(-572.587 -1189.054)" fill="#ebebeb"/>
                    <path id="Path_22386" data-name="Path 22386" d="M693.509,1193.8H572.267l1.021-4.967H692.26Zm-120.521-.507H692.76l-.995-3.953H573.8Z" transform="translate(-572.267 -1188.829)" fill="#ebebeb"/>
                  </g>
                  <g id="Group_15176" data-name="Group 15176" transform="translate(0.057 4.46)">
                    <path id="Path_22387" data-name="Path 22387" d="M693.249,1197.718h-120.3v46.565h1.989v-43.509H691.465v43.509h1.989v-46.565Z" transform="translate(-572.643 -1197.465)" fill="#ebebeb"/>
                    <path id="Path_22388" data-name="Path 22388" d="M693.489,1244.312h-2.6V1200.8H574.971v43.509h-2.6V1197.24H693.489Zm-1.989-.507h1.381v-46.058h-119.9v46.058h1.381V1200.3H691.5Z" transform="translate(-572.374 -1197.24)" fill="#ebebeb"/>
                  </g>
                </g>
                <g id="Group_15181" data-name="Group 15181" transform="translate(82.595)">
                  <path id="Path_22389" data-name="Path 22389" d="M767.637,1145.58v16.677a2.186,2.186,0,0,1-2.388,1.876H730.413a2.186,2.186,0,0,1-2.388-1.876V1145.58a2.189,2.189,0,0,1,2.388-1.876h34.835A2.189,2.189,0,0,1,767.637,1145.58Z" transform="translate(-728.025 -1143.704)" fill="#ebebeb"/>
                  <path id="Path_22390" data-name="Path 22390" d="M731.121,1164.063a1.455,1.455,0,0,1-1.592-1.251v-16.677a1.455,1.455,0,0,1,1.592-1.25h34.833a1.455,1.455,0,0,1,1.592,1.25v16.677a1.455,1.455,0,0,1-1.592,1.251Z" transform="translate(-728.732 -1144.258)" fill="#ebebeb"/>
                  <g id="Group_15178" data-name="Group 15178" transform="translate(1.29 0.997)">
                    <path id="Path_22391" data-name="Path 22391" d="M731.827,1163.991a.727.727,0,0,1-.8-.626v-16.677a.727.727,0,0,1,.8-.625H766.66a.727.727,0,0,1,.8.625v16.677a.727.727,0,0,1-.8.626Z" transform="translate(-730.727 -1145.809)" fill="#ebebeb"/>
                    <path id="Path_22392" data-name="Path 22392" d="M766.39,1164.02H731.557a1.01,1.01,0,0,1-1.1-.879v-16.677a1.01,1.01,0,0,1,1.1-.879H766.39a1.01,1.01,0,0,1,1.1.879v16.677A1.01,1.01,0,0,1,766.39,1164.02Zm-34.833-17.928a.445.445,0,0,0-.492.372v16.677a.445.445,0,0,0,.492.372H766.39a.445.445,0,0,0,.492-.372v-16.677a.445.445,0,0,0-.492-.372Z" transform="translate(-730.457 -1145.585)" fill="#ebebeb"/>
                  </g>
                  <path id="Path_22393" data-name="Path 22393" d="M765.908,1174.24h-9.341l1.054-9.019h7.233Z" transform="translate(-741.432 -1153.811)" fill="#ebebeb"/>
                  <g id="Group_15179" data-name="Group 15179" transform="translate(15.099 10.678)">
                    <path id="Path_22394" data-name="Path 22394" d="M765.876,1178.976h-8.758l1.375-14.658H764.5Z" transform="translate(-756.79 -1164.064)" fill="#ebebeb"/>
                    <path id="Path_22395" data-name="Path 22395" d="M765.914,1179H756.5l1.422-15.165h6.571Zm-8.758-.507h8.1l-1.327-14.151h-5.445Z" transform="translate(-756.499 -1163.84)" fill="#ebebeb"/>
                  </g>
                  <g id="Group_15180" data-name="Group 15180" transform="translate(9.152 24.71)">
                    <path id="Path_22396" data-name="Path 22396" d="M766.558,1193.022h-20.7c0-1.238,1.277-2.241,2.853-2.241h14.995c1.575,0,2.853,1,2.853,2.241Z" transform="translate(-745.554 -1190.527)" fill="#ebebeb"/>
                    <path id="Path_22397" data-name="Path 22397" d="M766.593,1193.051H745.284v-.254c0-1.375,1.416-2.494,3.157-2.494h14.995c1.741,0,3.157,1.119,3.157,2.494Zm-20.68-.507h20.051a2.422,2.422,0,0,0-2.528-1.734H748.441A2.421,2.421,0,0,0,745.913,1192.544Z" transform="translate(-745.284 -1190.303)" fill="#ebebeb"/>
                  </g>
                </g>
              </g>
            </g>
          </g>
        </g>
      </g>
    </g>
    <g id="Group_15189" data-name="Group 15189" transform="translate(614.976 1012.381)">
      <g id="Group_15188" data-name="Group 15188" transform="translate(0)">
        <path id="Path_22398" data-name="Path 22398" d="M840.107,1338.021l-1.684-.179,10.693-55.112,3.558.584,39.337,4.666-1.075,10.1-.1-.011.764,45.728-1.684-.179-4.863-46.165-31.22-3.323Z" transform="translate(-838.423 -1226.573)" fill="#ffac00"/>
        <path id="Path_22399" data-name="Path 22399" d="M934.813,1181.307c2.345-6.694,11.4-4.347,19.41-2.684,5.758,1.19,6.92,3.709,6,9.528l-12.35,50.039c-.9,5.8-6.081,9.161-11.487,7.445s-16.393-6.647-15.339-12.435Z" transform="translate(-877.201 -1176.83)" fill="#ffac00"/>
        <path id="Path_22400" data-name="Path 22400" d="M852.756,1354.787l-1.383-.147,10.727-50.722-7.937-8.868,25.8,2.572,30.39,2.911-1.014,8.413.561,52.236-1.121-.119-5.024-52.711-35.819-3.813Z" transform="translate(-844.506 -1232.361)" fill="#ffac00"/>
        <path id="Path_22401" data-name="Path 22401" d="M849.08,1281.153a2.086,2.086,0,0,1,1.956-3.22l31.36,3.21a26.727,26.727,0,0,1,8.172,2.447l17,7.74c.042.019.085.04.126.062,2.024,1.07,1.75,1.76-.635,1.507l-53.161-5.787a2.088,2.088,0,0,1-1.518-.929Z" transform="translate(-843.266 -1224.315)" fill="#ffac00"/>
      </g>
    </g>
    <g id="Group_15191" data-name="Group 15191" transform="translate(453.587 1010.843)">
      <g id="Group_15190" data-name="Group 15190">
        <path id="Path_22402" data-name="Path 22402" d="M595.886,1334.6l-1.684-.179,10.693-55.112,3.558.584,39.337,4.666-1.075,10.1-.1-.011.764,45.728-1.684-.179-4.863-46.165-31.22-3.323Z" transform="translate(-594.201 -1223.43)" fill="#ffac00"/>
        <path id="Path_22403" data-name="Path 22403" d="M695.193,1178.75c2.953-6.788,16.064-4.825,27.632-3.5,8.317.946,10.135,3.413,9.17,9.266L717.34,1235.03c-.941,5.837-8.154,9.41-16,7.923-7.862-1.485-23.877-5.948-22.717-11.775Z" transform="translate(-633.829 -1173.929)" fill="#ffac00"/>
        <path id="Path_22404" data-name="Path 22404" d="M608.534,1351.37l-1.383-.147,10.727-50.722-7.937-8.868,25.8,2.572,30.39,2.911-1.014,8.413.561,52.236-1.121-.119-5.024-52.711-35.819-3.813Z" transform="translate(-600.284 -1229.218)" fill="#ffac00"/>
        <path id="Path_22405" data-name="Path 22405" d="M604.857,1277.736a2.086,2.086,0,0,1,1.956-3.22l31.36,3.21a26.72,26.72,0,0,1,8.172,2.447l17,7.74c.042.019.085.04.126.061,2.025,1.07,1.751,1.761-.635,1.507l-53.16-5.787a2.087,2.087,0,0,1-1.518-.929Z" transform="translate(-599.044 -1221.171)" fill="#ffac00"/>
      </g>
    </g>
    <g id="Group_15201" data-name="Group 15201" transform="translate(594.244 963.914)">
      <g id="Group_15198" data-name="Group 15198" transform="translate(32.308)">
        <g id="Group_15192" data-name="Group 15192" transform="translate(0 28.79)">
          <path id="Path_22406" data-name="Path 22406" d="M916.555,1168.388l1.143.423.344,2.907-2.65,1.007Z" transform="translate(-898.66 -1153.187)" fill="#eaeaea"/>
          <path id="Path_22407" data-name="Path 22407" d="M920.487,1143.533l10.911-3.81.132,17.478-15.6,4.233Z" transform="translate(-898.913 -1139.723)" fill="#f7c371"/>
          <path id="Path_22408" data-name="Path 22408" d="M887.946,1241.842l20.365,6.685.585,30.769-18.161.456Z" transform="translate(-885.767 -1187.691)" fill="#eaeaea"/>
          <path id="Path_22409" data-name="Path 22409" d="M923.811,1259.1c-13.049-.577-28.136-5.693-34.561-20.782-3.477-8.166-3.206-21.525-3.2-34.766.013-17.7,20.138-40.555,35.764-35.042,21.716,7.662,6.868,36.1,4.164,43.624C918.06,1234.177,923.381,1254.155,923.811,1259.1Z" transform="translate(-884.875 -1152.852)" fill="#9999a5"/>
          <path id="Path_22410" data-name="Path 22410" d="M914.638,1266.517c.286-5.807,3.278-23.6,14.489-43.234,2.174-3.808,4.771-15.254,7.211-24.807.911-3.567,6.921,3.438,7.673,12.248.467,5.465-3.565,12.553-4.6,15.433-7.921,22.043-2.6,42.021-2.17,46.967C929.7,1272.789,921.477,1270.934,914.638,1266.517Z" transform="translate(-898.306 -1166.874)" fill="#2d356b"/>
          <path id="Path_22411" data-name="Path 22411" d="M886.1,1220.54c2.032-22.793,20.458-44.6,36.494-50.377,2.694-.971.388-3.032-7.211-2.621C908.583,1167.939,880.888,1180.43,886.1,1220.54Z" transform="translate(-884.595 -1152.765)" fill="#2d356b"/>
          <path id="Path_22412" data-name="Path 22412" d="M887.318,1205.669c3.317-19.1,10.871-28.907,27.995-38.079-6.629.386-33.2,8.343-29.69,45.931C885.713,1214.479,886.746,1208.971,887.318,1205.669Z" transform="translate(-884.527 -1152.813)" fill="#7b88ac"/>
          <path id="Path_22413" data-name="Path 22413" d="M890.86,1289.586c-.077-.806.311-1.5.868-1.558s1.072.556,1.15,1.363-.31,1.5-.868,1.558S890.938,1290.393,890.86,1289.586Z" transform="translate(-887.132 -1209.384)" fill="#2d356b"/>
          <path id="Path_22414" data-name="Path 22414" d="M889.115,1271.555c-.077-.806.311-1.5.868-1.558s1.072.557,1.15,1.363-.31,1.5-.867,1.558S889.194,1272.362,889.115,1271.555Z" transform="translate(-886.312 -1200.914)" fill="#2d356b"/>
          <path id="Path_22415" data-name="Path 22415" d="M919.659,1172.309l-3.974,1.208,1.532-4.22.76-.373Z" transform="translate(-898.797 -1153.44)" fill="#ffb2b0"/>
          <path id="Path_22416" data-name="Path 22416" d="M884.719,1219.7l1.521-7.7s-2.575-24.3,15.355-35.763l-.19-.619C886.649,1185.5,881.6,1203.277,884.719,1219.7Z" transform="translate(-883.838 -1156.581)" fill="#ffb2b0"/>
          <path id="Path_22417" data-name="Path 22417" d="M917.585,1165.249l15.584-3.543,1.845,3.168-14.862,5.4Z" transform="translate(-899.69 -1150.049)" fill="#fff"/>
        </g>
        <g id="Group_15197" data-name="Group 15197" transform="translate(9.918)">
          <path id="Path_22418" data-name="Path 22418" d="M932.417,1115.163c8.479-8.208,9.374-23.123,9.065-23.681-3.3-5.963-14.306-6.631-19.988-5.718-4.791.769-8.719,2.965-6.789,6.842.667,1.339,4.664-1.107,5.78-.838,2.108.508.309,30.047.309,30.047Z" transform="translate(-908.02 -1085.43)" fill="#0080af"/>
          <g id="Group_15194" data-name="Group 15194" transform="translate(0 6.544)">
            <g id="Group_15193" data-name="Group 15193">
              <path id="Path_22419" data-name="Path 22419" d="M908.344,1139.019l-.9-1.98,1.593-.76Z" transform="translate(-904.845 -1115.859)" fill="#ffd8a3"/>
              <path id="Path_22420" data-name="Path 22420" d="M924.846,1124.128c-1.167,2.391-9.456,6.828-17.03,5.606.286-10,2.543-26.307,4.71-28.882,2.133-2.534,9.656-3.7,10.455-2.757-3.032,2.87.032,13.964,1.477,15.117C927.977,1116.021,926.064,1121.634,924.846,1124.128Z" transform="translate(-905.019 -1097.771)" fill="#ffd8a3"/>
              <path id="Path_22421" data-name="Path 22421" d="M902.542,1129.807a70.623,70.623,0,0,0,4.716-7.922c1.5-2.989-.206,8.436-.206,8.436S903.568,1130.712,902.542,1129.807Z" transform="translate(-902.542 -1108.864)" fill="#ffd8a3"/>
              <path id="Path_22422" data-name="Path 22422" d="M906.234,1155.724a1.261,1.261,0,0,1-.665-1.726,1.518,1.518,0,0,1,1.983-.221,1.26,1.26,0,0,1,.666,1.726A1.519,1.519,0,0,1,906.234,1155.724Z" transform="translate(-903.891 -1123.958)" fill="#ffd8a3"/>
              <path id="Path_22423" data-name="Path 22423" d="M907.206,1148.043c0-.2.245-.372.553-.376s.559.156.562.359-.244.372-.551.376S907.209,1148.247,907.206,1148.043Z" transform="translate(-904.733 -1121.208)" fill="#ffd8a3"/>
            </g>
            <path id="Path_22424" data-name="Path 22424" d="M938.565,1125.833c.633-1.754,2.171-2.867,3.436-2.486s1.776,2.112,1.144,3.866-3.206,2.522-4.47,2.141S937.933,1127.586,938.565,1125.833Z" transform="translate(-919.151 -1109.75)" fill="#ffd8a3"/>
          </g>
          <path id="Path_22425" data-name="Path 22425" d="M908.637,1140.461l-.2,4.07s1.141.013,1.444-.464a14.241,14.241,0,0,0,1.275-3.97Z" transform="translate(-905.31 -1111.109)" fill="#ffab00"/>
          <path id="Path_22426" data-name="Path 22426" d="M908.769,1140.746l-.177,3.615s.842.021,1.047-.186a10.15,10.15,0,0,0,1.217-3.755Z" transform="translate(-905.384 -1111.26)" fill="#fff"/>
          <path id="Path_22427" data-name="Path 22427" d="M913.313,1116.735a.986.986,0,0,1,.324-.619c.456-.38,3.758,1.065,3.633,1.774l-.079.444c-.09.511-1.047-.151-2.054-.408-.964-.246-1.982-.067-1.914-.551Z" transform="translate(-907.558 -1099.815)" fill="#2d356b"/>
          <path id="Path_22428" data-name="Path 22428" d="M914.925,1124.081c.049-.6.422-1.092.833-1.1s.707.476.659,1.076-.421,1.092-.833,1.1S914.877,1124.682,914.925,1124.081Z" transform="translate(-908.356 -1103.069)" fill="#2d356b"/>
          <path id="Path_22429" data-name="Path 22429" d="M913.393,1139.986c0-.141.076-.256.176-.257s.181.111.183.252-.076.256-.175.258S913.4,1140.127,913.393,1139.986Z" transform="translate(-907.639 -1110.936)" fill="#ffab00"/>
          <g id="Group_15196" data-name="Group 15196" transform="translate(6.126 4.974)">
            <path id="Path_22430" data-name="Path 22430" d="M934.956,1101.293c-3.327-.1.333,15.367-1.451,16.271s-.253,2.294.662,2.049c2.1-.563,2.874-4.75,3.284-7.425C937.908,1109.208,935.237,1101.3,934.956,1101.293Z" transform="translate(-922.824 -1097.855)" fill="#0080af"/>
            <g id="Group_15195" data-name="Group 15195">
              <path id="Path_22431" data-name="Path 22431" d="M915.2,1096.54c.064-.89,3.305-1.383,7.24-1.1s7.073,1.231,7.01,2.12-3.3,1.382-7.24,1.1S915.135,1097.429,915.2,1096.54Z" transform="translate(-914.612 -1095.068)" fill="#0080af"/>
              <path id="Path_22432" data-name="Path 22432" d="M914.617,1098.089c3.8,3.2,8.487,3.657,12.176,3.448,0,0-8.427-.937-11.383-3.823Z" transform="translate(-914.34 -1096.175)" fill="#0080af"/>
              <path id="Path_22433" data-name="Path 22433" d="M915.43,1096.867c.926,3.549,3.868,4.542,6.477,4.769,0,0-5.23-1.89-5.746-5.039Z" transform="translate(-914.721 -1095.649)" fill="#0080af"/>
              <path id="Path_22434" data-name="Path 22434" d="M914.223,1094.81c-.722,3.337,1.722,5.4,4.061,6.684,0,0-3.762-3.519-2.8-6.519Z" transform="translate(-914.094 -1094.81)" fill="#0080af"/>
              <path id="Path_22435" data-name="Path 22435" d="M916.946,1098.343c4.128,2.758,8.841,2.7,12.484,2.083,0,0-8.479,0-11.736-2.541Z" transform="translate(-915.434 -1096.254)" fill="#0080af"/>
            </g>
          </g>
        </g>
      </g>
      <g id="Group_15200" data-name="Group 15200" transform="translate(0 58.636)">
        <path id="Path_22436" data-name="Path 22436" d="M926.995,1239.15c2.431,2.823,25.111-36.583,21.456-41.548,0,0-9.577-6.612-25.537,7.081C922.914,1204.682,918.114,1228.836,926.995,1239.15Z" transform="translate(-869.277 -1196.006)" fill="#9999a5"/>
        <g id="Group_15199" data-name="Group 15199" transform="translate(0 21.924)">
          <path id="Path_22437" data-name="Path 22437" d="M848.985,1252.582c-3.153-.986-10.775,1.856-10.989-1.016-.193-2.574,3.3-6.993,11.644-1.458Z" transform="translate(-829.993 -1242.093)" fill="#ffd9a4"/>
          <path id="Path_22438" data-name="Path 22438" d="M842.535,1247.857c.628,4.522-4.884,5.268-6.673,5.1-1.968-.184-3.386-3.488-2.69-4.9S842.293,1246.129,842.535,1247.857Z" transform="translate(-827.647 -1241.773)" fill="#ffd9a4"/>
          <path id="Path_22439" data-name="Path 22439" d="M837.758,1242.746c-2.055-1.737-3.57-4.712-2.722-5.3.955-.662,1.775,2.14,4,3.25,2.407,1.207,3.856,2.093,3.441,3.045S839.815,1244.488,837.758,1242.746Z" transform="translate(-828.494 -1237.349)" fill="#ffd9a4"/>
          <path id="Path_22440" data-name="Path 22440" d="M828.339,1248.2c-2.295-.227-3.441-.872-3.312-1.474s1.43-.392,3.722-.17,5.264-.062,5.135.541S830.632,1248.42,828.339,1248.2Z" transform="translate(-823.901 -1241.569)" fill="#ffd9a4"/>
          <path id="Path_22441" data-name="Path 22441" d="M827.376,1253.3c-2.34.246-4.47-.581-4.464-1.186s2.206-.317,4.545-.562,3.868-.278,3.861.327S829.715,1253.057,827.376,1253.3Z" transform="translate(-822.912 -1243.944)" fill="#ffd9a4"/>
          <path id="Path_22442" data-name="Path 22442" d="M831.847,1257.55c-2.345.151-3.689-.3-3.666-.9s1.587-.41,3.931-.56,3.99-.223,3.966.382S834.193,1257.4,831.847,1257.55Z" transform="translate(-825.387 -1246.103)" fill="#ffd9a4"/>
        </g>
        <path id="Path_22443" data-name="Path 22443" d="M926.921,1242.371c-11.605-8.787-4.678-31.17-4.678-31.17a8.535,8.535,0,0,1,1.594-1.317C919.51,1227.446,927.4,1242.736,926.921,1242.371Z" transform="translate(-868.607 -1202.525)" fill="#2d356b"/>
        <path id="Path_22444" data-name="Path 22444" d="M850.134,1252.862l4.565,2.5,1.933-7.577-5.1.247Z" transform="translate(-835.699 -1220.327)" fill="#eaeaea"/>
        <path id="Path_22445" data-name="Path 22445" d="M896.189,1262.429s-13.864.289-40.521-8.6c0,0-1.017-2.946,2.1-7.409,0,0,24.1-3.256,37.688,1.569C895.452,1247.988,900.328,1258.88,896.189,1262.429Z" transform="translate(-838.224 -1219.181)" fill="#9999a5"/>
        <path id="Path_22446" data-name="Path 22446" d="M863.89,1253.583a1.1,1.1,0,1,1,1.372-1.015A1.22,1.22,0,0,1,863.89,1253.583Z" transform="translate(-841.563 -1222.04)" fill="#2d356b"/>
      </g>
    </g>
    <g id="Group_15209" data-name="Group 15209" transform="translate(500.84 1107.023)">
      <g id="Group_15208" data-name="Group 15208">
        <g id="Group_15202" data-name="Group 15202" transform="translate(8.823)">
          <path id="Path_22447" data-name="Path 22447" d="M698.739,1376.719s-.73-4.915-1.061-6c-.427-1.4-.636-3.477.539-4.7s1.353-4.105,1.353-4.546.441-7.051,5.288-6.072c0,0,2.008.49,1.028,4.015,0,0-1.028,2.106.269,3.428a5.368,5.368,0,0,1,0,7.3c-2.424,2.938-1.733,4.014-1.346,5.141,1.766,5.143-1.992,9.865-2.4,11.125s-.9,3.328-.488,4.518l-1.425.026Z" transform="translate(-697.34 -1355.307)" fill="#ebebeb"/>
        </g>
        <g id="Group_15203" data-name="Group 15203" transform="translate(12.348 4.976)">
          <path id="Path_22448" data-name="Path 22448" d="M704.376,1395.552a.248.248,0,0,0,.043,0,.216.216,0,0,0,.168-.255c-.545-2.653.411-7.38.421-7.427.527-2.012.68-4.583-.194-11.139a25.163,25.163,0,0,1,.266-8.6,14.455,14.455,0,0,1,1-3.124.215.215,0,1,0-.384-.195,14.469,14.469,0,0,0-1.029,3.209,25.6,25.6,0,0,0-.276,8.767c.861,6.464.7,9.066.2,10.984-.043.209-.986,4.873-.424,7.612A.215.215,0,0,0,704.376,1395.552Z" transform="translate(-703.986 -1364.69)" fill="#fff"/>
        </g>
        <g id="Group_15204" data-name="Group 15204" transform="translate(13.518 18.885)">
          <path id="Path_22449" data-name="Path 22449" d="M707.88,1407.786s0-1.159,2.378-2.256a3.974,3.974,0,0,0,2.378-2.866c.61-2.317,2.317-1.707,3.415-1.037s3.592,0,3.595-3.476a2.307,2.307,0,0,1,.851-2.805c1.592-.976,2.2-4.461-1.213-4.426s-6.632,1.722-9.94,6.621c-4.6,6.809-2.808,10.245-2.808,10.245Z" transform="translate(-706.192 -1390.92)" fill="#ebebeb"/>
        </g>
        <g id="Group_15205" data-name="Group 15205" transform="translate(13.924 21.327)">
          <path id="Path_22450" data-name="Path 22450" d="M707.327,1410.166a.226.226,0,0,0,.066-.011.22.22,0,0,0,.139-.271,5.216,5.216,0,0,1-.014-2.274.214.214,0,0,0,.017-.044c1.844-6.96,10.938-11.586,11.03-11.632a.216.216,0,0,0-.193-.385c-.093.047-9.342,4.752-11.248,11.887a5.092,5.092,0,0,0,0,2.581A.212.212,0,0,0,707.327,1410.166Z" transform="translate(-706.959 -1395.525)" fill="#fff"/>
        </g>
        <g id="Group_15206" data-name="Group 15206" transform="translate(0 8.562)">
          <path id="Path_22451" data-name="Path 22451" d="M690.9,1398.539a4.241,4.241,0,0,1-2.008-4.26,2.982,2.982,0,0,0-2.644-3.575c-.588-.1-4.407-1.665-3.819-7.394,0,0,.2-3.672-.49-4.994s-2.4-5.288,0-6.513,4.064.979,4.946,3.232a12.5,12.5,0,0,0,1.273,3.231c.588.637,4.848,4.358,4.505,12.1l-.834,8.177Z" transform="translate(-680.701 -1371.454)" fill="#ebebeb"/>
        </g>
        <g id="Group_15207" data-name="Group 15207" transform="translate(3.42 13.067)">
          <path id="Path_22452" data-name="Path 22452" d="M694.318,1402.745a.215.215,0,0,0,.215-.207c.248-6.587-2.608-15.175-4.246-17.657a44.1,44.1,0,0,1-2.727-4.81.215.215,0,0,0-.39.184,44.743,44.743,0,0,0,2.757,4.863c1.611,2.441,4.42,10.9,4.175,17.4a.215.215,0,0,0,.207.223Z" transform="translate(-687.149 -1379.948)" fill="#fff"/>
        </g>
      </g>
      <path id="Path_22453" data-name="Path 22453" d="M702.533,1434.876H693.3l-2.235-12.653h13.7Z" transform="translate(-685.569 -1386.739)" fill="#ebebeb"/>
    </g>
    <g id="Group_15213" data-name="Group 15213" transform="translate(463.69 1024.281)">
      <g id="Group_15212" data-name="Group 15212">
        <g id="Group_15210" data-name="Group 15210" transform="translate(0 35.684)">
          <rect id="Rectangle_5488" data-name="Rectangle 5488" width="248.257" height="5.166" fill="#40558d"/>
          <rect id="Rectangle_5489" data-name="Rectangle 5489" width="236.031" height="92.84" transform="translate(6.341 1.993)" fill="#40558d"/>
          <rect id="Rectangle_5490" data-name="Rectangle 5490" width="49.616" height="92.84" transform="translate(192.757 1.993)" fill="#7b87ab"/>
          <rect id="Rectangle_5491" data-name="Rectangle 5491" width="248.257" height="6.724" transform="translate(0 1.993)" fill="#2d356b"/>
        </g>
        <g id="Group_15211" data-name="Group 15211" transform="translate(120.23)">
          <path id="Path_22454" data-name="Path 22454" d="M827.628,1232.534h-39.92a2.469,2.469,0,0,1-2.426-2.008L779.9,1202.2a2.469,2.469,0,0,1,2.426-2.93h39.92a2.469,2.469,0,0,1,2.425,2.008l5.38,28.324A2.469,2.469,0,0,1,827.628,1232.534Z" transform="translate(-779.858 -1199.272)" fill="#cfd0d8"/>
          <path id="Path_22455" data-name="Path 22455" d="M862.587,1201.693a1.338,1.338,0,1,0-1.97.922l5.38,28.324a1.338,1.338,0,1,0,1.97-.922Z" transform="translate(-817.772 -1199.685)" fill="#ebebeb"/>
          <path id="Path_22456" data-name="Path 22456" d="M858.835,1264.806H797.471a2.809,2.809,0,0,1-2.809-2.809h66.982A2.809,2.809,0,0,1,858.835,1264.806Z" transform="translate(-786.812 -1228.735)" fill="#9898a4"/>
          <path id="Path_22457" data-name="Path 22457" d="M898.1,1262H872.265a3.016,3.016,0,0,0,3.188,2.809h19.455A3.017,3.017,0,0,0,898.1,1262Z" transform="translate(-823.264 -1228.735)" fill="#cfd0d8"/>
          <circle id="Ellipse_209" data-name="Ellipse 209" cx="2.834" cy="2.834" r="2.834" transform="translate(20.529 15.097) rotate(-22.5)" fill="#fff4ba"/>
        </g>
      </g>
    </g>
    <g id="Group_15221" data-name="Group 15221" transform="translate(697.397 1107.023)">
      <g id="Group_15220" data-name="Group 15220">
        <g id="Group_15214" data-name="Group 15214" transform="translate(8.823)">
          <path id="Path_22458" data-name="Path 22458" d="M1011.892,1376.719s-.73-4.915-1.061-6c-.427-1.4-.636-3.477.539-4.7s1.353-4.105,1.353-4.546.441-7.051,5.288-6.072c0,0,2.008.49,1.028,4.015,0,0-1.029,2.106.269,3.428a5.369,5.369,0,0,1,0,7.3c-2.424,2.938-1.734,4.014-1.347,5.141,1.766,5.143-1.991,9.865-2.4,11.125s-.9,3.328-.488,4.518l-1.426.026Z" transform="translate(-1010.492 -1355.307)" fill="#ebebeb"/>
        </g>
        <g id="Group_15215" data-name="Group 15215" transform="translate(12.348 4.976)">
          <path id="Path_22459" data-name="Path 22459" d="M1017.528,1395.552a.238.238,0,0,0,.043,0,.216.216,0,0,0,.168-.255c-.545-2.653.411-7.38.421-7.427.527-2.012.68-4.583-.193-11.139a25.167,25.167,0,0,1,.266-8.6,14.46,14.46,0,0,1,1-3.124.216.216,0,0,0-.385-.195,14.487,14.487,0,0,0-1.029,3.209,25.581,25.581,0,0,0-.276,8.767c.861,6.464.7,9.066.2,10.984-.043.209-.987,4.873-.424,7.612A.215.215,0,0,0,1017.528,1395.552Z" transform="translate(-1017.139 -1364.69)" fill="#fff"/>
        </g>
        <g id="Group_15216" data-name="Group 15216" transform="translate(13.518 18.885)">
          <path id="Path_22460" data-name="Path 22460" d="M1021.032,1407.786s0-1.159,2.378-2.256a3.974,3.974,0,0,0,2.378-2.866c.61-2.317,2.317-1.707,3.415-1.037s3.592,0,3.595-3.476a2.307,2.307,0,0,1,.851-2.805c1.592-.976,2.2-4.461-1.213-4.426s-6.633,1.722-9.94,6.621c-4.6,6.809-2.808,10.245-2.808,10.245Z" transform="translate(-1019.345 -1390.92)" fill="#ebebeb"/>
        </g>
        <g id="Group_15217" data-name="Group 15217" transform="translate(13.924 21.327)">
          <path id="Path_22461" data-name="Path 22461" d="M1020.48,1410.166a.227.227,0,0,0,.066-.011.219.219,0,0,0,.138-.271,5.219,5.219,0,0,1-.013-2.274.252.252,0,0,0,.017-.044c1.844-6.96,10.938-11.586,11.029-11.632a.215.215,0,1,0-.193-.385c-.093.047-9.342,4.752-11.248,11.887a5.1,5.1,0,0,0,0,2.581A.211.211,0,0,0,1020.48,1410.166Z" transform="translate(-1020.111 -1395.525)" fill="#fff"/>
        </g>
        <g id="Group_15218" data-name="Group 15218" transform="translate(0 8.562)">
          <path id="Path_22462" data-name="Path 22462" d="M1004.05,1398.539a4.242,4.242,0,0,1-2.008-4.26,2.982,2.982,0,0,0-2.644-3.575c-.588-.1-4.407-1.665-3.82-7.394,0,0,.2-3.672-.49-4.994s-2.4-5.288,0-6.513,4.064.979,4.945,3.232a12.5,12.5,0,0,0,1.273,3.231c.588.637,4.848,4.358,4.5,12.1l-.834,8.177Z" transform="translate(-993.854 -1371.454)" fill="#ebebeb"/>
        </g>
        <g id="Group_15219" data-name="Group 15219" transform="translate(3.419 13.067)">
          <path id="Path_22463" data-name="Path 22463" d="M1007.471,1402.745a.215.215,0,0,0,.215-.207c.248-6.587-2.609-15.175-4.246-17.657a44.089,44.089,0,0,1-2.727-4.81.216.216,0,0,0-.39.184,44.549,44.549,0,0,0,2.757,4.863c1.611,2.441,4.42,10.9,4.175,17.4a.215.215,0,0,0,.207.223Z" transform="translate(-1000.302 -1379.948)" fill="#fff"/>
        </g>
      </g>
      <path id="Path_22464" data-name="Path 22464" d="M1015.686,1434.876h-9.234l-2.235-12.653h13.7Z" transform="translate(-998.722 -1386.739)" fill="#ebebeb"/>
    </g>
    <g id="Group_15237" data-name="Group 15237" transform="translate(276.214 936.191)">
      <g id="Group_15236" data-name="Group 15236">
        <g id="Group_15222" data-name="Group 15222" transform="translate(0 92.65)">
          <path id="Path_22465" data-name="Path 22465" d="M379.149,1216.238l9.157,1.722c8.053,28.765,6.075,63.059,24.071,121.79,0,0-1.719.75-1.967,0-14.972-45.413-23.16-81.019-26.066-85.912C377.888,1242.967,369.816,1233.725,379.149,1216.238Z" transform="translate(-349.964 -1211.801)" fill="#ffd8a3"/>
          <path id="Path_22466" data-name="Path 22466" d="M355.466,1212.883c-11.27,21.019-2.831,19.39-2.465,30.261,1.056,31.348-18.93,47.294-25.135,95.245,0,0,2.457-.126,2.527-.818,3.855-38.254,37.752-74.856,39.147-110.372.09-2.29.19-9.131-2.481-11.579C362.975,1211.875,355.466,1212.883,355.466,1212.883Z" transform="translate(-327.866 -1210.167)" fill="#f7c371"/>
          <path id="Path_22467" data-name="Path 22467" d="M335.344,1447.985h-7.365s-.356-2.091,1.287-2.426C330.3,1445.348,332.131,1445.835,335.344,1447.985Z" transform="translate(-327.904 -1319.498)" fill="#7b88ac"/>
          <path id="Path_22468" data-name="Path 22468" d="M448.32,1448.325h-6.474s-.313-2.089,1.132-2.424C443.886,1445.69,445.495,1446.175,448.32,1448.325Z" transform="translate(-381.391 -1319.658)" fill="#7b88ac"/>
          <path id="Path_22469" data-name="Path 22469" d="M353.672,1282.065s30.917,4.971,38,2.982c0,0-6.763-70.256-11.594-74.564s-13.526-1.989-13.526-1.989a27.335,27.335,0,0,0-4.508,29.163C368.486,1252.9,353.672,1282.065,353.672,1282.065Z" transform="translate(-339.988 -1207.871)" fill="#03b4e9"/>
        </g>
        <g id="Group_15233" data-name="Group 15233" transform="translate(0.418 0.658)">
          <g id="Group_15225" data-name="Group 15225" transform="translate(19.464 44.079)">
            <g id="Group_15223" data-name="Group 15223" transform="translate(28.927 20.585)">
              <path id="Path_22470" data-name="Path 22470" d="M420.691,1169.078c2.044-1.1,7.681-.148,7.447-2.159-.208-1.8-3.208-4.387-8.228.539Z" transform="translate(-419.91 -1160.223)" fill="#f8c471"/>
              <path id="Path_22471" data-name="Path 22471" d="M425.618,1164.964c.167,3.2,4.069,2.987,5.282,2.635,1.333-.388,1.873-2.856,1.206-3.737S425.556,1163.74,425.618,1164.964Z" transform="translate(-422.591 -1159.691)" fill="#f8c471"/>
              <path id="Path_22472" data-name="Path 22472" d="M429.908,1160.387c1.187-1.471,1.838-3.725,1.175-4.016-.747-.33-.941,1.712-2.329,2.773-1.5,1.152-2.383,1.955-1.97,2.557S428.72,1161.862,429.908,1160.387Z" transform="translate(-423.091 -1156.336)" fill="#f8c471"/>
              <path id="Path_22473" data-name="Path 22473" d="M435.826,1162.925c1.553-.46,2.259-1.057,2.089-1.456s-1.038-.081-2.59.376-3.64.656-3.471,1.055S434.273,1163.381,435.826,1162.925Z" transform="translate(-425.516 -1158.661)" fill="#f8c471"/>
              <path id="Path_22474" data-name="Path 22474" d="M437.421,1166.535c1.647-.141,3.007-.994,2.923-1.411s-1.564.074-3.21.215-2.706.321-2.621.738S435.775,1166.676,437.421,1166.535Z" transform="translate(-426.767 -1160.387)" fill="#f8c471"/>
              <path id="Path_22475" data-name="Path 22475" d="M435.209,1169.994c1.639-.207,2.506-.694,2.41-1.107s-1.15-.073-2.787.135-2.782.376-2.686.791S433.57,1170.2,435.209,1169.994Z" transform="translate(-425.655 -1162.139)" fill="#f8c471"/>
            </g>
            <g id="Group_15224" data-name="Group 15224">
              <path id="Path_22476" data-name="Path 22476" d="M387.107,1117.8c-4.863-3.662-21.618,28.7-21.747,29.994,0,0,2.456,2.332,3.668,1.4C372.164,1146.792,389.278,1119.439,387.107,1117.8Z" transform="translate(-365.36 -1117.516)" fill="#f8c471"/>
              <path id="Path_22477" data-name="Path 22477" d="M395,1168.78c.812,4.713-25.681,4.335-26.627,3.956,0,0-1.764-3.177-.679-3.682C370.5,1167.748,394.64,1166.675,395,1168.78Z" transform="translate(-366.292 -1141.037)" fill="#f8c471"/>
              <path id="Path_22478" data-name="Path 22478" d="M416.866,1168.3l-.637-1.316-5.456-1.069a11.378,11.378,0,0,0,1.087,2.947C412.326,1169.3,416.866,1168.3,416.866,1168.3Z" transform="translate(-386.692 -1140.25)" fill="#eaeaea"/>
              <path id="Path_22479" data-name="Path 22479" d="M418.007,1170.215l.047,1.47-4.379,3.433a11.442,11.442,0,0,1-.408-3.14C413.48,1171.374,418.007,1170.215,418.007,1170.215Z" transform="translate(-387.843 -1142.27)" fill="#eaeaea"/>
            </g>
          </g>
          <g id="Group_15229" data-name="Group 15229">
            <g id="Group_15228" data-name="Group 15228">
              <g id="Group_15226" data-name="Group 15226">
                <path id="Path_22480" data-name="Path 22480" d="M370.471,1093.019c6.477-4.291-1.981-7.084-.729-11.651s1.995-2.913,3.845-8.763.668-8.373,1.2-11.88,3.933-8.788,2.763-13.57-2.662-3.515-3.748-7.35-3.458-.315-6.652.7-4.943-8-10.633-5.752-6.426,8.813-8.634,12.159-7.543,3.865-9.55,10.214,1.881,5.559-.589,9.74-6.878,2.972-8.886,9.323c0,0-1.833,6.4,5.5,7.437s4.328,4.493,12.7,3.464,4.411,5.438,10.465,3.859S364.685,1096.852,370.471,1093.019Z" transform="translate(-328.655 -1034.391)" fill="#2d356b"/>
              </g>
              <g id="Group_15227" data-name="Group 15227" transform="translate(18.854 21.486)">
                <path id="Path_22481" data-name="Path 22481" d="M388.746,1074.909l6.38,4.923-.2,14.806-5.267-2.5Z" transform="translate(-375.735 -1074.909)" fill="#f7c371"/>
                <path id="Path_22482" data-name="Path 22482" d="M389.815,1177.882c-4.089-3.281-13.612-10.582-25.605-3.841,4.314-9.546,8.3-18.955,9.2-27.063,1.655-15.031-9.429-33.945,1.812-39.727,11.935-6.139,22.058,28.513,22.058,28.513C385.428,1141,386.787,1159.422,389.815,1177.882Z" transform="translate(-364.21 -1089.758)" fill="#ffac00"/>
                <path id="Path_22483" data-name="Path 22483" d="M386.677,1105.448l2-.041,8.023,9.154-2.825,1.953S388.532,1109.9,386.677,1105.448Z" transform="translate(-374.763 -1089.235)" fill="#fff"/>
                <path id="Path_22484" data-name="Path 22484" d="M402.125,1117.4c.046-.026.087-.052.132-.078-1.88-4.871-6.282-12.478-11.241-12.5C395.1,1109.245,402.125,1117.4,402.125,1117.4Z" transform="translate(-376.801 -1088.96)" fill="#f7c371"/>
              </g>
            </g>
          </g>
          <g id="Group_15232" data-name="Group 15232" transform="translate(14.372 42.645)">
            <g id="Group_15230" data-name="Group 15230" transform="translate(31.859 18.556)">
              <path id="Path_22485" data-name="Path 22485" d="M417.195,1166.8c1.979-1.838,8.607-2.427,7.753-4.622-.764-1.968-4.9-4-9.109,3.027Z" transform="translate(-415.839 -1154.74)" fill="#ffd9a4"/>
              <path id="Path_22486" data-name="Path 22486" d="M421.162,1160.773c1.129,3.559,5.461,2.167,6.723,1.414,1.387-.829,1.269-3.768.258-4.564S420.732,1159.412,421.162,1160.773Z" transform="translate(-418.329 -1153.408)" fill="#ffd9a4"/>
              <path id="Path_22487" data-name="Path 22487" d="M425.572,1154.681c.9-2.006.975-4.735.143-4.869-.938-.153-.556,2.2-1.807,3.808-1.351,1.739-2.108,2.9-1.467,3.46S424.668,1156.692,425.572,1154.681Z" transform="translate(-418.831 -1149.806)" fill="#ffd9a4"/>
              <path id="Path_22488" data-name="Path 22488" d="M432.095,1155.406c1.614-.976,2.233-1.856,1.925-2.254s-1.193.214-2.807,1.186-3.907,1.809-3.6,2.209S430.479,1156.376,432.095,1155.406Z" transform="translate(-421.356 -1151.319)" fill="#ffd9a4"/>
              <path id="Path_22489" data-name="Path 22489" d="M434.82,1159.058c1.813-.643,3.095-2,2.877-2.449s-1.74.543-3.552,1.187-2.954,1.158-2.735,1.6S433.007,1159.7,434.82,1159.058Z" transform="translate(-423.141 -1152.949)" fill="#ffd9a4"/>
              <path id="Path_22490" data-name="Path 22490" d="M433.348,1163.7c1.784-.715,2.618-1.518,2.388-1.956s-1.316.256-3.1.972-3.023,1.241-2.793,1.68S431.562,1164.421,433.348,1163.7Z" transform="translate(-422.405 -1155.352)" fill="#ffd9a4"/>
            </g>
            <g id="Group_15231" data-name="Group 15231">
              <path id="Path_22491" data-name="Path 22491" d="M371.433,1114.938c-6.554-2.694-15.905,38.687-15.67,40.177,0,0,3.452,1.9,4.544.5C363.131,1151.981,374.359,1116.141,371.433,1114.938Z" transform="translate(-355.759 -1114.812)" fill="#f8c471"/>
              <path id="Path_22492" data-name="Path 22492" d="M387.957,1169.156c2.3,5.069-27.649,12.436-28.826,12.287,0,0-2.921-3.059-1.848-3.948C360.062,1175.2,386.93,1166.892,387.957,1169.156Z" transform="translate(-356.364 -1140.157)" fill="#f8c471"/>
              <path id="Path_22493" data-name="Path 22493" d="M411.917,1168.193l-1.1-1.295-6.459.4s1.439,2.645,2.091,3S411.917,1168.193,411.917,1168.193Z" transform="translate(-378.585 -1139.278)" fill="#eaeaea"/>
              <path id="Path_22494" data-name="Path 22494" d="M414.267,1169.12l.486,1.642-3.922,5.154s-1.444-2.674-1.382-3.416S414.267,1169.12,414.267,1169.12Z" transform="translate(-380.977 -1140.322)" fill="#eaeaea"/>
            </g>
          </g>
        </g>
        <g id="Group_15235" data-name="Group 15235" transform="translate(23.285)">
          <g id="Group_15234" data-name="Group 15234">
            <path id="Path_22495" data-name="Path 22495" d="M385.248,1063.721c-3.214-1.671-9.855-4.244-12.06-10.113-2.866-7.631-.88-11.542,1.64-16.279,4.8-9.031,20.243-1,18.608,1.614C391.266,1042.413,396.9,1069.78,385.248,1063.721Z" transform="translate(-371.777 -1033.151)" fill="#2d356b"/>
            <path id="Path_22496" data-name="Path 22496" d="M397.8,1072.569c1.245.268,4.856-5.688,6.581-10.48.569-1.58-1.142-2.148.161-7.675.765-3.245.23-8.08-4.531-12.489-4.5-4.163-7.052,5.868-8,8.109-2.688,6.384-5.286,10.2-4.271,13.786C389.73,1070.825,396.528,1071.959,397.8,1072.569Z" transform="translate(-379.174 -1036.802)" fill="#ffd8a3"/>
            <path id="Path_22497" data-name="Path 22497" d="M409.713,1087.484a.253.253,0,0,1,.274-.185.2.2,0,0,1,.2.224.256.256,0,0,1-.275.185A.2.2,0,0,1,409.713,1087.484Z" transform="translate(-389.595 -1058.585)" fill="#ffab00"/>
            <path id="Path_22498" data-name="Path 22498" d="M411.883,1067.306c.218-.869.878-1.443,1.472-1.284s.9.994.684,1.862-.877,1.444-1.471,1.284S411.665,1068.175,411.883,1067.306Z" transform="translate(-390.583 -1048.578)" fill="#2d356b"/>
            <path id="Path_22499" data-name="Path 22499" d="M413.579,1063.641c-.853,1.246-2.073,2.49-4.422,1.688A8.562,8.562,0,0,0,413.579,1063.641Z" transform="translate(-389.335 -1047.473)" fill="#2d356b"/>
            <path id="Path_22500" data-name="Path 22500" d="M411.625,1091.469c.081-.2.551.658.842.748.823.252.354,1.27-.449.933C411.705,1093.017,411.541,1091.675,411.625,1091.469Z" transform="translate(-390.484 -1060.53)" fill="#f36973"/>
            <path id="Path_22501" data-name="Path 22501" d="M411.394,1087.443c-.581-.23,3.338-1.366,2.63-.036A6.156,6.156,0,0,1,411.394,1087.443Z" transform="translate(-390.358 -1058.338)" fill="#f36973"/>
            <path id="Path_22502" data-name="Path 22502" d="M414.287,1057.55a5.221,5.221,0,0,0-6.252,3.359C409.7,1058.566,411.006,1057.683,414.287,1057.55Z" transform="translate(-388.808 -1044.549)" fill="#2d356b"/>
            <path id="Path_22503" data-name="Path 22503" d="M418.359,1076.8l-2.054.175.989-4.937,2.119,4.121Z" transform="translate(-392.693 -1051.415)" fill="#ffd8a3"/>
            <path id="Path_22504" data-name="Path 22504" d="M416.723,1083.178l2.153-2.725-1.436-.363Z" transform="translate(-392.889 -1055.199)" fill="#ffd8a3"/>
            <path id="Path_22505" data-name="Path 22505" d="M412.041,1090.576a19.233,19.233,0,0,0,1.337-2.679l-3.235-.185S410.395,1090.1,412.041,1090.576Z" transform="translate(-389.798 -1058.779)" fill="#ffab00"/>
            <path id="Path_22506" data-name="Path 22506" d="M411.225,1089.141l1.843.105c.164-.337.322-.69.474-1.057l-2.645-.151Z" transform="translate(-390.152 -1058.933)" fill="#fff"/>
            <path id="Path_22507" data-name="Path 22507" d="M385.277,1067.309c.405-1.5,1.159-2.51.02-2.815s-2.4.666-2.8,2.168.194,2.967,1.335,3.273S384.874,1068.812,385.277,1067.309Z" transform="translate(-376.753 -1047.847)" fill="#f7c371"/>
            <path id="Path_22508" data-name="Path 22508" d="M410.6,1071.942a2.421,2.421,0,0,1,3.147-.1A6.03,6.03,0,0,0,410.6,1071.942Z" transform="translate(-390.013 -1051.072)" fill="#ffd8a3"/>
          </g>
          <path id="Path_22509" data-name="Path 22509" d="M403.206,1042.521c-4.842,4.738-12.984,11.437-13.134,19.638-1.439-9.076,2.41-19.942,8.958-23.349C399.434,1039.777,404.466,1040.593,403.206,1042.521Z" transform="translate(-380.229 -1035.809)" fill="#2d356b"/>
        </g>
      </g>
    </g>
    <g id="Group_15238" data-name="Group 15238" transform="translate(642.552 1020.717)">
      <rect id="Rectangle_5492" data-name="Rectangle 5492" width="48.514" height="30.703" rx="6.672" transform="translate(0)" fill="#fff" stroke="#231f20" stroke-miterlimit="10" stroke-width="0.25"/>
      <text id="Dan" transform="translate(15.257 18.851)" fill="#2d356b" font-size="10" font-family="TrebuchetMS-Bold, Trebuchet MS" font-weight="700"><tspan x="0" y="0">Dan</tspan></text>
    </g>
    <g id="Group_15239" data-name="Group 15239" transform="translate(283.884 1000.731)">
      <rect id="Rectangle_5493" data-name="Rectangle 5493" width="51.588" height="30.703" rx="6.672" fill="#fff" stroke="#231f20" stroke-miterlimit="10" stroke-width="0.25"/>
      <text id="Akiko" transform="translate(12.794 18.852)" fill="#2d356b" font-size="10" font-family="TrebuchetMS-Bold, Trebuchet MS" font-weight="700"><tspan x="0" y="0">Akiko</tspan></text>
    </g>
    <g id="Group_15241" data-name="Group 15241" transform="translate(325.571 845.297)">
      <g id="Group_15240" data-name="Group 15240" transform="translate(0 0)">
        <path id="Path_22510" data-name="Path 22510" d="M621.409,933.367c8.844,11.18,1.781,23.233-17.282,27.923-20.248,4.982-46.536-.191-59.512-11.557-10.211,6.226-25.78,11.025-43.633,12.726-32.908,3.134-61.106-5.448-62.981-19.169a12.184,12.184,0,0,1,1.938-8.093c-27.829,5.225-44.182-.478-51.112-15.978-5.113-11.438,9.506-31.533,49.669-35.358,5.121-.488,10.139-.8,15-.961-.106-.379-1.542-2.531.54-6.281,9.05-16.3,40.923-18.846,74.189-15.454,28.011,2.856,42,13.367,48.486,22.882,0,0,79.622-18.155,93.916,19.468C670.628,903.515,686.558,936.681,621.409,933.367Z" transform="translate(-387.845 -859.857)" fill="#fff" stroke="#ebebeb" stroke-miterlimit="10" stroke-width="1"/>
        <circle id="Ellipse_210" data-name="Ellipse 210" cx="8.832" cy="8.832" r="8.832" transform="translate(30.068 74.967)" fill="#fff" stroke="#ebebeb" stroke-miterlimit="10" stroke-width="1"/>
        <circle id="Ellipse_211" data-name="Ellipse 211" cx="5.233" cy="5.233" r="5.233" transform="translate(22.443 83.799)" fill="#fff" stroke="#ebebeb" stroke-miterlimit="10" stroke-width="1"/>
        <circle id="Ellipse_212" data-name="Ellipse 212" cx="4.477" cy="4.477" r="4.477" transform="translate(14.796 94.376)" fill="#fff" stroke="#ebebeb" stroke-miterlimit="10" stroke-width="1"/>
      </g>
    </g>
  </g>
</svg>
