<svg xmlns="http://www.w3.org/2000/svg" width="354.917" height="217.949" viewBox="0 0 354.917 217.949">
  <g id="Group_20181" data-name="Group 20181" transform="translate(-109 -10433.104)">
    <g id="Group_20064" data-name="Group 20064" transform="translate(109 10433.104)">
      <g id="Group_20059" data-name="Group 20059" transform="translate(0 0)">
        <path id="Path_30640" data-name="Path 30640" d="M843.807,8491.5H525.213a18.161,18.161,0,0,0-18.16,18.156v160.407a18.158,18.158,0,0,0,18.16,18.158H843.807a18.16,18.16,0,0,0,18.164-18.158V8509.66A18.164,18.164,0,0,0,843.807,8491.5Z" transform="translate(-507.053 -8491.504)" fill="#dbdadc"/>
        <g id="Group_20058" data-name="Group 20058" transform="translate(0 14.855)">
          <path id="Path_30641" data-name="Path 30641" d="M507.053,8542.444V8688.29H861.97V8542.444a18.47,18.47,0,0,0-.3-3.3H507.358A18.209,18.209,0,0,0,507.053,8542.444Z" transform="translate(-507.053 -8539.143)" fill="#4e4e4e"/>
          <g id="Group_20057" data-name="Group 20057" transform="translate(113.598 181.867)">
            <path id="Path_30642" data-name="Path 30642" d="M998.765,9141.454s-2.214-2.3-5-4.792-2.393-4.327-2.393-4.327l-.751-9.943h-110.8l-.748,9.943s.393,1.833-2.395,4.327-5,4.792-5,4.792a2.907,2.907,0,0,0-.322,1.343c0,.786.465.821,2.391.821H996.692c1.928,0,2.392-.035,2.392-.821A2.929,2.929,0,0,0,998.765,9141.454Z" transform="translate(-871.362 -9122.392)" fill="#d0d2d3"/>
            <path id="Path_30643" data-name="Path 30643" d="M998.765,9141.454s-2.214-2.3-5-4.792-2.393-4.327-2.393-4.327l-.751-9.943h-110.8l-.748,9.943s.393,1.833-2.395,4.327-5,4.792-5,4.792a2.907,2.907,0,0,0-.322,1.343c0,.786.465.821,2.391.821H996.692c1.928,0,2.392-.035,2.392-.821A2.929,2.929,0,0,0,998.765,9141.454Z" transform="translate(-871.362 -9122.392)" fill="#cdccce"/>
          </g>
        </g>
      </g>
      <g id="Group_20063" data-name="Group 20063" transform="translate(0.277 14.855)">
        <g id="Group_20062" data-name="Group 20062" transform="translate(0 0)">
          <g id="Group_20061" data-name="Group 20061">
            <g id="Group_20060" data-name="Group 20060">
              <rect id="Rectangle_7126" data-name="Rectangle 7126" width="149.235" height="353.761" transform="translate(0 149.235) rotate(-89.902)" fill="#fff"/>
            </g>
          </g>
        </g>
      </g>
    </g>
    <text id="Agenda:_1._Office_supplies_2._Trade_Show_" data-name="Agenda:

1. Office supplies

2. Trade Show

" transform="translate(135.089 10491.659)" fill="#7b88ac" font-size="18" font-family="TrebuchetMS-Bold, Trebuchet MS" font-weight="700"><tspan x="0" y="0">Agenda:</tspan><tspan fill="#2d356b"><tspan x="0" y="18"></tspan></tspan><tspan x="0" y="36">1. </tspan><tspan y="36" fill="#2d356b">Office supplies</tspan><tspan fill="#2d356b"><tspan x="0" y="54"></tspan></tspan><tspan x="0" y="72">2.</tspan><tspan y="72" xml:space="preserve" fill="#2d356b"> Trade Show</tspan><tspan fill="#2d356b" font-size="19"><tspan x="0" y="90"></tspan></tspan><tspan fill="#2d356b" font-size="19" font-family="TrebuchetMS-Bold"><tspan x="0" y="108"></tspan></tspan></text>
  </g>
</svg>
