<svg xmlns="http://www.w3.org/2000/svg" width="546.942" height="220.461" viewBox="0 0 546.942 220.461">
  <g id="Group_19025" data-name="Group 19025" transform="translate(-27.5 -8672.089)">
    <g id="Group_18899" data-name="Group 18899" transform="translate(30 8673.578)">
      <g id="Group_18845" data-name="Group 18845" transform="translate(157.119 116.547)">
        <g id="Group_18839" data-name="Group 18839" transform="translate(0 22.815)">
          <path id="Path_28413" data-name="Path 28413" d="M864.5,10451.989l.936.334.314,2.365-2.149.852Z" transform="translate(-850.342 -10439.432)" fill="#eaeaea"/>
          <path id="Path_28414" data-name="Path 28414" d="M868.162,10403.97l8.852-3.229.306,14.249-12.669,3.627Z" transform="translate(-851.136 -10400.74)" fill="#f7c371"/>
          <path id="Path_28415" data-name="Path 28415" d="M816.776,10582.319l16.68,5.22,1.258,13.747-14.8.579Z" transform="translate(-814.992 -10537.826)" fill="#eaeaea"/>
          <path id="Path_28416" data-name="Path 28416" d="M845.132,10513.207c-10.646-.322-23.436,7.008-28.846-5.222-2.927-6.619-2.858-17.513-3-28.309-.19-14.432,15.959-33.294,28.761-28.977,17.793,6,6.009,29.354,3.89,35.519C839.729,10504.282,844.725,10509.178,845.132,10513.207Z" transform="translate(-812.356 -10437.983)" fill="#54ccca"/>
          <path id="Path_28417" data-name="Path 28417" d="M867.741,10547.6c.168-4.738,1.973-7.951,10.891-24.084,1.729-3.129,3.717-12.491,5.6-20.308.7-2.918,5.681,2.725,6.395,9.9.442,4.45-2.764,10.275-3.575,12.634-6.208,18.063-1.212,22.96-.8,26.989C880.091,10552.543,873.367,10551.124,867.741,10547.6Z" transform="translate(-853.469 -10477.509)" fill="#029390"/>
          <path id="Path_28418" data-name="Path 28418" d="M813.179,10493.319c1.4-18.607,16.173-36.6,29.182-41.486,2.186-.822.281-2.478-5.909-2.055C830.914,10450.178,808.476,10460.677,813.179,10493.319Z" transform="translate(-811.791 -10437.711)" fill="#029390"/>
          <path id="Path_28419" data-name="Path 28419" d="M813.727,10481.352c2.488-15.608,8.535-23.693,22.392-31.365-5.4.39-26.977,7.179-23.685,37.785C812.517,10488.553,813.3,10484.049,813.727,10481.352Z" transform="translate(-811.457 -10437.919)" fill="#eaeaea"/>
          <path id="Path_28420" data-name="Path 28420" d="M823.108,10633.369c-.072-.656.236-1.229.69-1.279s1.313-10.889,1.385-10.231-.236,1.229-.69,1.279S823.181,10634.025,823.108,10633.369Z" transform="translate(-819.764 -10567.654)" fill="#c3e8e6"/>
          <path id="Path_28421" data-name="Path 28421" d="M819.587,10633.2c-.072-.656.236-1.231.69-1.28s.88.441.953,1.1-.235,1.229-.689,1.279S819.66,10633.856,819.587,10633.2Z" transform="translate(-817.106 -10575.27)" fill="#c3e8e6"/>
          <path id="Path_28422" data-name="Path 28422" d="M867.367,10455.618l-3.227,1.029,1.2-3.457.615-.312Z" transform="translate(-850.75 -10440.104)" fill="#9999a5"/>
          <path id="Path_28423" data-name="Path 28423" d="M810.324,10500.886l1.153-6.3s-2.375-19.786,12.113-29.333l-.162-.5C811.51,10472.981,807.6,10487.532,810.324,10500.886Z" transform="translate(-809.496 -10449.067)" fill="#9999a5"/>
          <path id="Path_28424" data-name="Path 28424" d="M867.267,10442.544l12.666-3.065,1.54,2.562-12.056,4.57Z" transform="translate(-853.111 -10429.986)" fill="#fff"/>
        </g>
        <g id="Group_18840" data-name="Group 18840" transform="translate(25.561 36.671)">
          <path id="Path_28425" data-name="Path 28425" d="M943.6,10490.514c3.169-.787-18.683-34.105-24.012-33.211,0,0-8.958,4.875-4.559,22.773C915.025,10480.076,932.019,10493.381,943.6,10490.514Z" transform="translate(-913.81 -10457.285)" fill="#54ccca"/>
          <path id="Path_28426" data-name="Path 28426" d="M943.763,10553.515c-11.461,5.6-26.228-8.666-26.228-8.666a7.465,7.465,0,0,1-.4-1.768C929.159,10553.41,944.24,10553.281,943.763,10553.515Z" transform="translate(-916.32 -10522.059)" fill="#029390"/>
          <path id="Path_28427" data-name="Path 28427" d="M921.723,10692.069l3.759-2.582-5.162-4.509-1.823,4.087Z" transform="translate(-917.348 -10629.186)" fill="#eaeaea"/>
          <path id="Path_28428" data-name="Path 28428" d="M950.707,10576.447s-5.256,10.957-22.75,28.291c0,0-2.706-.369-4.966-4.57,0,0,6.983-20.139,16.129-28.857C939.12,10571.311,949.568,10571.8,950.707,10576.447Z" transform="translate(-920.741 -10543.37)" fill="#54ccca"/>
          <path id="Path_28429" data-name="Path 28429" d="M935.617,10682.271a.964.964,0,1,1-.251-1.476A1.069,1.069,0,0,1,935.617,10682.271Z" transform="translate(-928.898 -10625.951)" fill="#c3e8e6"/>
        </g>
        <g id="Group_18844" data-name="Group 18844" transform="translate(8.956)">
          <path id="Path_28430" data-name="Path 28430" d="M867.662,10329.737c5.051-7.665,3.21-19.141,2.881-19.513-3.516-3.97-11.983-2.617-16.143-.965-3.507,1.4-6.12,3.727-4,6.344.732.905,3.355-1.629,4.247-1.612,1.686.029,5.313,22.763,5.313,22.763Z" transform="translate(-848.757 -10307.632)" fill="#ffac00"/>
          <g id="Group_18842" data-name="Group 18842" transform="translate(0 5.737)">
            <g id="Group_18841" data-name="Group 18841">
              <path id="Path_28431" data-name="Path 28431" d="M855.282,10405.4l-1.017-1.353,1.081-.846Z" transform="translate(-852.25 -10385.521)" fill="#ffd8a3"/>
              <path id="Path_28432" data-name="Path 28432" d="M868.64,10350.592c-.482,2.013-6.026,6.783-11.984,7.135-1.473-7.644-2.516-20.4-1.3-22.727,1.191-2.284,6.706-4.439,7.472-3.86-1.817,2.692,2.385,10.6,3.676,11.229C869.647,10343.906,869.144,10348.492,868.64,10350.592Z" transform="translate(-852.67 -10331.044)" fill="#ffd8a3"/>
              <path id="Path_28433" data-name="Path 28433" d="M846.044,10385.349a54.952,54.952,0,0,0,2.242-6.811c.635-2.523,1.27,6.44,1.27,6.44S846.976,10385.864,846.044,10385.349Z" transform="translate(-846.044 -10366.563)" fill="#ffd8a3"/>
              <path id="Path_28434" data-name="Path 28434" d="M858.164,10434.188c-.625-.192-.982-.729-.8-1.2a1.181,1.181,0,0,1,1.468-.5c.626.19.983.729.8,1.2A1.181,1.181,0,0,1,858.164,10434.188Z" transform="translate(-854.556 -10407.578)" fill="#ffd8a3"/>
              <path id="Path_28435" data-name="Path 28435" d="M857.756,10423.047c-.036-.155.123-.324.356-.379s.451.023.488.177-.122.323-.355.379S857.793,10423.2,857.756,10423.047Z" transform="translate(-854.882 -10400.203)" fill="#ffd8a3"/>
            </g>
            <path id="Path_28436" data-name="Path 28436" d="M902.433,10371.65c.184-1.439,1.164-2.546,2.189-2.47s1.706,1.306,1.522,2.744a3.213,3.213,0,0,1-3.033,2.381C902.087,10374.229,902.25,10373.088,902.433,10371.65Z" transform="translate(-888.513 -10359.833)" fill="#ffd8a3"/>
          </g>
          <path id="Path_28437" data-name="Path 28437" d="M858.413,10415.372l.335,1.946s.836.138,1-.06a3.592,3.592,0,0,0,.463-1.775Z" transform="translate(-855.382 -10388.971)" fill="#ffab00"/>
          <path id="Path_28438" data-name="Path 28438" d="M858.653,10415.663l.3,1.729a2.283,2.283,0,0,0,.744.03,2.586,2.586,0,0,0,.446-1.681Z" transform="translate(-855.563 -10389.192)" fill="#fff"/>
          <path id="Path_28439" data-name="Path 28439" d="M856.771,10367.522a.767.767,0,0,0-.151.522c.052.457,2.684,1.422,3,.957l.195-.293c.224-.335-.669-.477-1.374-.876-.673-.379-1.15-1.028-1.372-.719Z" transform="translate(-854.026 -10352.477)" fill="#2d356b"/>
          <path id="Path_28440" data-name="Path 28440" d="M861.895,10380.082c-.065-.465.135-.9.447-.975s.617.242.682.705-.135.9-.447.975S861.961,10380.545,861.895,10380.082Z" transform="translate(-858.002 -10361.586)" fill="#2d356b"/>
          <path id="Path_28441" data-name="Path 28441" d="M865.505,10415.579a.08.08,0,0,1,.1-.105.216.216,0,0,1,.164.143c.018.068-.025.115-.1.1A.207.207,0,0,1,865.505,10415.579Z" transform="translate(-860.734 -10389.048)" fill="#ffab00"/>
          <g id="Group_18843" data-name="Group 18843" transform="translate(0.898 1.729)">
            <path id="Path_28442" data-name="Path 28442" d="M887.335,10336.012c-2.543.489,2.85,11.612,1.649,12.6s.2,1.784.849,1.443c1.5-.782,1.38-4.093,1.239-6.192C890.915,10341.524,887.55,10335.972,887.335,10336.012Z" transform="translate(-877.594 -10330.786)" fill="#ffac00"/>
            <path id="Path_28443" data-name="Path 28443" d="M849.869,10320.442c-.632-1.8.667-3.9,2.9-4.682s8.907-1.91,9.539-.109-5.013,5.843-7.249,6.626S850.5,10322.24,849.869,10320.442Z" transform="translate(-849.709 -10314.686)" fill="#ffac00"/>
          </g>
        </g>
      </g>
      <g id="Group_18848" data-name="Group 18848" transform="translate(90.897 69.341)">
        <g id="Group_18847" data-name="Group 18847">
          <g id="Group_18846" data-name="Group 18846">
            <rect id="Rectangle_6650" data-name="Rectangle 6650" width="186.029" height="41.038" rx="11.604" transform="translate(-19 -3)" fill="#fff" stroke="#231f20" stroke-miterlimit="10" stroke-width="0.25"/>
            <path id="Path_28444" data-name="Path 28444" d="M1000.128,10262.967l-17.549,14.963,27.556-14.963Z" transform="translate(-878.554 -10224.927)" fill="#fff" stroke="#231f20" stroke-miterlimit="10" stroke-width="0.25"/>
          </g>
        </g>
      </g>
      <g id="Group_18851" data-name="Group 18851" transform="translate(42.318 27.015)">
        <g id="Group_18850" data-name="Group 18850">
          <g id="Group_18849" data-name="Group 18849">
            <rect id="Rectangle_6651" data-name="Rectangle 6651" width="198.46" height="35.038" rx="11.604" transform="translate(-28 0.002)" fill="#fff" stroke="#231f20" stroke-miterlimit="10" stroke-width="0.25"/>
            <path id="Path_28445" data-name="Path 28445" d="M302.176,10046.96l23.587,51.808-13.581-51.808Z" transform="translate(-303.194 -10011.92)" fill="#fff" stroke="#231f20" stroke-miterlimit="10" stroke-width="0.25"/>
          </g>
        </g>
      </g>
      <g id="Group_18865" data-name="Group 18865" transform="translate(62.139 120.928)">
        <g id="Group_18864" data-name="Group 18864" transform="translate(0 -0.001)">
          <g id="Group_18854" data-name="Group 18854" transform="translate(19.31 38.382)">
            <g id="Group_18852" data-name="Group 18852" transform="translate(24.626 16.358)">
              <path id="Path_28446" data-name="Path 28446" d="M486.2,10562.2c1.664-1.112,6.581-.765,6.214-2.472-.328-1.528-3.117-3.5-7.018,1.146Z" transform="translate(-485.399 -10554.011)" fill="#f8c471"/>
              <path id="Path_28447" data-name="Path 28447" d="M494.89,10556.795c.409,2.736,3.74,2.226,4.752,1.823,1.112-.443,1.371-2.607.725-3.308S494.735,10555.748,494.89,10556.795Z" transform="translate(-492.454 -10551.869)" fill="#f8c471"/>
              <path id="Path_28448" data-name="Path 28448" d="M499.4,10546.074c.9-1.36,1.269-3.35.676-3.544-.668-.222-.666,1.548-1.769,2.573-1.193,1.113-1.883,1.877-1.479,2.359S498.5,10547.439,499.4,10546.074Z" transform="translate(-493.808 -10542.512)" fill="#f8c471"/>
              <path id="Path_28449" data-name="Path 28449" d="M509.028,10551.491c1.3-.524,1.851-1.1,1.673-1.424s-.9.018-2.193.538-3.07.865-2.892,1.193S507.732,10552.011,509.028,10551.491Z" transform="translate(-500.424 -10548.034)" fill="#f8c471"/>
              <path id="Path_28450" data-name="Path 28450" d="M513.344,10557.645c1.4-.259,2.5-1.1,2.392-1.452s-1.336.193-2.738.45-2.3.5-2.188.852S511.943,10557.9,513.344,10557.645Z" transform="translate(-504.29 -10552.601)" fill="#f8c471"/>
              <path id="Path_28451" data-name="Path 28451" d="M509.892,10564.524c1.389-.313,2.094-.8,1.977-1.152s-.993.034-2.381.35-2.357.553-2.24.9S508.5,10564.838,509.892,10564.524Z" transform="translate(-501.64 -10557.924)" fill="#f8c471"/>
            </g>
            <g id="Group_18853" data-name="Group 18853">
              <path id="Path_28452" data-name="Path 28452" d="M405.516,10478.885c-4.478-2.74-16.177,26.432-16.18,27.549,0,0,2.3,1.8,3.265.9C395.093,10505.006,407.515,10480.107,405.516,10478.885Z" transform="translate(-389.336 -10478.703)" fill="#ffb2b0"/>
              <path id="Path_28453" data-name="Path 28453" d="M416,10567.471c1.088,3.979-21.685,5.853-22.529,5.6,0,0-1.778-2.58-.888-3.1C394.886,10568.616,415.515,10565.7,416,10567.471Z" transform="translate(-391.566 -10544.301)" fill="#ffb2b0"/>
              <path id="Path_28454" data-name="Path 28454" d="M473.906,10565.172l-.656-1.078-4.772-.465a9.785,9.785,0,0,0,1.178,2.439C470.092,10566.406,473.906,10565.172,473.906,10565.172Z" transform="translate(-448.19 -10541.858)" fill="#eaeaea"/>
              <path id="Path_28455" data-name="Path 28455" d="M478.162,10569.294l.162,1.258-3.475,3.31a9.875,9.875,0,0,1-.61-2.659C474.371,10570.664,478.162,10569.294,478.162,10569.294Z" transform="translate(-452.462 -10546.07)" fill="#eaeaea"/>
            </g>
          </g>
          <g id="Group_18860" data-name="Group 18860">
            <g id="Group_18859" data-name="Group 18859">
              <g id="Group_18855" data-name="Group 18855" transform="translate(0 1.127)">
                <path id="Path_28456" data-name="Path 28456" d="M351.337,10382.477c5.14-4.3-2.375-5.883-1.739-9.917s1.431-2.687,2.457-7.877-.229-7.24-.106-10.3,2.53-7.908,1.069-11.894-2.618-2.76-3.916-5.941-2.994.06-5.634,1.234-5-6.381-9.664-3.912-4.664,8.169-6.236,11.248-6.095,4.033-7.208,9.667,2.145,4.584.427,8.4-5.611,3.206-6.724,8.84c0,0-.958,5.665,5.427,5.848s4.139,3.437,11.214,1.753,4.3,4.239,9.338,2.306S346.745,10386.313,351.337,10382.477Z" transform="translate(-314.012 -10333.373)" fill="#2d356b"/>
              </g>
              <g id="Group_18856" data-name="Group 18856" transform="translate(21.39 19.697)">
                <path id="Path_28457" data-name="Path 28457" d="M413.759,10405.813l5.885,3.7,1.056,12.727-4.728-1.709Z" transform="translate(-409.578 -10405.813)" fill="#f7c371"/>
                <path id="Path_28458" data-name="Path 28458" d="M419.75,10521.879c-3.782-2.477-14.647,4.8-22.3-1.174,2.912-8.553,5.557-16.961,5.65-23.994.175-13.039-10.908-28.355-1.738-34.25,9.736-6.26,21.3,22.645,21.3,22.645C412.926,10490.584,415.62,10506.285,419.75,10521.879Z" transform="translate(-397.452 -10447.279)" fill="#fc8c99"/>
                <path id="Path_28459" data-name="Path 28459" d="M415.329,10459.877l1.71-.2,7.645,7.194-2.263,1.909S417.291,10463.549,415.329,10459.877Z" transform="translate(-410.746 -10445.868)" fill="#fff"/>
                <path id="Path_28460" data-name="Path 28460" d="M433.5,10468.357c.037-.025.07-.051.107-.077-2.018-4.026-6.427-10.19-10.685-9.794C426.795,10461.943,433.5,10468.357,433.5,10468.357Z" transform="translate(-416.39 -10444.97)" fill="#f7c371"/>
              </g>
              <g id="Group_18858" data-name="Group 18858" transform="translate(16.524)">
                <g id="Group_18857" data-name="Group 18857">
                  <path id="Path_28461" data-name="Path 28461" d="M392.263,10356.057c-3.036-1.171-9.222-2.806-11.775-7.827-3.319-6.527-1.936-10.217-.158-14.7,3.39-8.541,17.973-2.909,16.774-.414C395.511,10336.434,403.265,10360.3,392.263,10356.057Z" transform="translate(-378.47 -10328.979)" fill="#2d356b"/>
                  <path id="Path_28462" data-name="Path 28462" d="M422.514,10368.682c1.138.116,3.769-5.562,4.831-10.012.35-1.468-1.234-1.8-.621-6.869.36-2.974-.6-7.236-5.29-10.7-4.428-3.268-5.711,5.94-6.33,8.035-1.763,5.969-3.7,9.633-2.44,12.734C415.131,10367.929,421.314,10368.264,422.514,10368.682Z" transform="translate(-403.598 -10337.478)" fill="#ffd8a3"/>
                  <path id="Path_28463" data-name="Path 28463" d="M454.532,10419.035a.263.263,0,0,1,.266-.26.276.276,0,0,1,.2.325.263.263,0,0,1-.267.26A.278.278,0,0,1,454.532,10419.035Z" transform="translate(-435.032 -10395.754)" fill="#ffab00"/>
                  <path id="Path_28464" data-name="Path 28464" d="M454.951,10386.662c-.114-.8.239-1.5.787-1.57s1.088.521,1.2,1.317-.239,1.5-.788,1.567S455.065,10387.459,454.951,10386.662Z" transform="translate(-435.329 -10370.702)" fill="#2d356b"/>
                  <path id="Path_28465" data-name="Path 28465" d="M450.841,10386.255c.567-1.231,1.46-2.519,3.661-2.162A7.7,7.7,0,0,0,450.841,10386.255Z" transform="translate(-432.289 -10369.918)" fill="#2d356b"/>
                  <path id="Path_28466" data-name="Path 28466" d="M459.107,10432.821c.053-.183.558.534.826.584.76.142.443,1.1-.308.876C459.332,10434.2,459.052,10433.015,459.107,10432.821Z" transform="translate(-438.43 -10406.18)" fill="#f36973"/>
                  <path id="Path_28467" data-name="Path 28467" d="M457.674,10419.757c-.5-.26,3.108-.915,2.353.209A5.544,5.544,0,0,1,457.674,10419.757Z" transform="translate(-437.335 -10396.169)" fill="#f36973"/>
                  <path id="Path_28468" data-name="Path 28468" d="M451.069,10370.477a4.694,4.694,0,0,0-5.92,2.367C446.874,10370.922,448.127,10370.266,451.069,10370.477Z" transform="translate(-428.056 -10359.625)" fill="#2d356b"/>
                  <path id="Path_28469" data-name="Path 28469" d="M467.455,10399.771l-1.816.36.391-4.5,2.3,3.467Z" transform="translate(-443.293 -10378.542)" fill="#ffd8a3"/>
                  <path id="Path_28470" data-name="Path 28470" d="M467.353,10413.349,469,10410.7l-1.318-.182Z" transform="translate(-444.568 -10389.616)" fill="#ffd8a3"/>
                  <path id="Path_28471" data-name="Path 28471" d="M457.33,10424.139a33.387,33.387,0,0,0,1.263-3.818l-3.182-.32S455.7,10423.432,457.33,10424.139Z" transform="translate(-435.688 -10396.666)" fill="#ffab00"/>
                  <path id="Path_28472" data-name="Path 28472" d="M457.3,10422.581l1.812.184c.155-.479.3-.984.446-1.506l-2.6-.263Z" transform="translate(-436.837 -10397.407)" fill="#fff"/>
                  <path id="Path_28473" data-name="Path 28473" d="M403.226,10390.5c.212-1.381.785-2.356-.263-2.515s-2.072.832-2.284,2.215a2.288,2.288,0,0,0,1.518,2.789C403.248,10393.148,403.015,10391.885,403.226,10390.5Z" transform="translate(-394.958 -10372.848)" fill="#f7c371"/>
                </g>
                <path id="Path_28474" data-name="Path 28474" d="M425.407,10339.422c-3.851,4.711-10.452,11.5-9.769,18.842-2.189-7.959.164-18.045,5.671-21.74C421.766,10337.346,426.339,10337.574,425.407,10339.422Z" transform="translate(-405.506 -10334.59)" fill="#2d356b"/>
              </g>
            </g>
          </g>
          <g id="Group_18863" data-name="Group 18863" transform="translate(15.639 38.057)">
            <g id="Group_18861" data-name="Group 18861" transform="translate(26.425 13.975)">
              <path id="Path_28475" data-name="Path 28475" d="M479.392,10556.751c1.546-1.742,7.187-2.795,6.272-4.61-.819-1.625-4.541-3.023-7.568,3.354Z" transform="translate(-478.096 -10545.944)" fill="#ffd9a4"/>
              <path id="Path_28476" data-name="Path 28476" d="M486.486,10548.134c1.265,2.961,4.867,1.406,5.888.654,1.122-.825.777-3.339-.156-3.937S486,10547,486.486,10548.134Z" transform="translate(-484.312 -10541.48)" fill="#ffd9a4"/>
              <path id="Path_28477" data-name="Path 28477" d="M490.925,10536.139c.61-1.8.444-4.144-.281-4.19-.818-.054-.3,1.939-1.236,3.42-1.016,1.605-1.569,2.665-.972,3.091S490.315,10537.94,490.925,10536.139Z" transform="translate(-485.602 -10531.947)" fill="#ffd9a4"/>
              <path id="Path_28478" data-name="Path 28478" d="M501.014,10538.04c1.3-.97,1.763-1.779,1.466-2.095s-1.006.281-2.311,1.251-3.2,1.877-2.906,2.194S499.707,10539.006,501.014,10538.04Z" transform="translate(-492.325 -10534.854)" fill="#ffd9a4"/>
              <path id="Path_28479" data-name="Path 28479" d="M507.289,10543.813c1.5-.7,2.49-1.975,2.267-2.339s-1.448.61-2.951,1.313-2.439,1.238-2.214,1.6S505.787,10544.516,507.289,10543.813Z" transform="translate(-497.625 -10538.972)" fill="#ffd9a4"/>
              <path id="Path_28480" data-name="Path 28480" d="M505.4,10552.86c1.472-.762,2.121-1.521,1.888-1.876s-1.108.328-2.579,1.09-2.492,1.316-2.258,1.676S503.927,10553.623,505.4,10552.86Z" transform="translate(-496.183 -10546.032)" fill="#ffd9a4"/>
            </g>
            <g id="Group_18862" data-name="Group 18862">
              <path id="Path_28481" data-name="Path 28481" d="M385.152,10477.5c-5.849-1.77-10.445,34.527-10.12,35.788,0,0,3.121,1.348,3.942.051C381.1,10509.981,387.764,10478.285,385.152,10477.5Z" transform="translate(-375.017 -10477.433)" fill="#ffb2b0"/>
              <path id="Path_28482" data-name="Path 28482" d="M402.357,10568.5c2.4,4.161-22.7,12.969-23.725,12.938,0,0-2.761-2.383-1.913-3.234C378.913,10576,401.286,10566.646,402.357,10568.5Z" transform="translate(-376.162 -10544.979)" fill="#ffb2b0"/>
              <path id="Path_28483" data-name="Path 28483" d="M463.943,10565.4l-1.056-1.02-5.511.879a11.438,11.438,0,0,0,2.044,2.4C460.011,10567.915,463.943,10565.4,463.943,10565.4Z" transform="translate(-436.263 -10542.094)" fill="#eaeaea"/>
              <path id="Path_28484" data-name="Path 28484" d="M471.629,10567.987l.553,1.369-2.94,4.749a11.472,11.472,0,0,1-1.47-2.816C467.763,10570.645,471.629,10567.987,471.629,10567.987Z" transform="translate(-443.994 -10544.772)" fill="#eaeaea"/>
            </g>
          </g>
        </g>
      </g>
      <g id="Group_18867" data-name="Group 18867" transform="translate(172.316 174.829)">
        <rect id="Rectangle_6653" data-name="Rectangle 6653" width="44.539" height="26.673" rx="6.672" fill="#fff" stroke="#231f20" stroke-miterlimit="10" stroke-width="0.25"/>
        <text id="Nick" transform="translate(12.269 16.836)" fill="#2d356b" font-size="10" font-family="TrebuchetMS-Bold, Trebuchet MS" font-weight="700"><tspan x="0" y="0">Nick</tspan></text>
      </g>
      <rect id="Rectangle_6654" data-name="Rectangle 6654" width="266.955" height="215.461" transform="translate(0 1.011)" fill="none" stroke="#ebebeb" stroke-miterlimit="10" stroke-width="5"/>
      <g id="Group_18868" data-name="Group 18868" transform="translate(0 1.011)">
        <rect id="Rectangle_6655" data-name="Rectangle 6655" width="38.793" height="24.006" transform="translate(38.793 24.006) rotate(-180)" fill="#ebebeb"/>
      </g>
      <text id="_2" data-name="2" transform="translate(6.684 22)" fill="#2d356b" font-size="24" font-family="TrebuchetMS-Bold, Trebuchet MS" font-weight="700"><tspan x="0" y="0">2</tspan></text>
      <g id="Group_18871" data-name="Group 18871" transform="translate(366.467 69.341)">
        <g id="Group_18870" data-name="Group 18870">
          <g id="Group_18869" data-name="Group 18869">
            <rect id="Rectangle_6656" data-name="Rectangle 6656" width="154.415" height="42.038" rx="11.604" transform="translate(0 -4)" fill="#fff" stroke="#231f20" stroke-miterlimit="10" stroke-width="0.25"/>
            <path id="Path_28485" data-name="Path 28485" d="M2291.043,10262.967l-13.987,13.225,26.654-13.225Z" transform="translate(-2175.904 -10224.927)" fill="#fff" stroke="#231f20" stroke-miterlimit="10" stroke-width="0.25"/>
          </g>
        </g>
      </g>
      <g id="Group_18874" data-name="Group 18874" transform="translate(298.274 21.015)">
        <g id="Group_18873" data-name="Group 18873">
          <g id="Group_18872" data-name="Group 18872">
            <rect id="Rectangle_6657" data-name="Rectangle 6657" width="189.029" height="46.038" rx="11.604" transform="translate(0 -8)" fill="#fff" stroke="#231f20" stroke-miterlimit="10" stroke-width="0.25"/>
            <path id="Path_28486" data-name="Path 28486" d="M1603.088,10046.96l23.587,51.808-13.581-51.808Z" transform="translate(-1590.106 -10008.92)" fill="#fff" stroke="#231f20" stroke-miterlimit="10" stroke-width="0.25"/>
          </g>
        </g>
      </g>
      <g id="Group_18898" data-name="Group 18898" transform="translate(419.124 117.38)">
        <path id="Path_28526" data-name="Path 28526" d="M2154.549,10326.949c-2.361-8.8,12.725-18.077,18.675-14.45,0,0,14.785-.228,10.594,24.646-.186,1.1-4.7,1.1-4.653,3.491s-.165,2.128-1.3,3.251-3.278-.455-3.768.363c-1.348,2.246,3.088,3.8,4.437,2.577,0,0-10.987,6.885-16.529-4.7C2161.688,10341.459,2155.169,10329.268,2154.549,10326.949Z" transform="translate(-2143.731 -10311.692)" fill="#fff4ba"/>
        <g id="Group_18891" data-name="Group 18891" transform="translate(10.975 23.163)">
          <path id="Path_28527" data-name="Path 28527" d="M2208.058,10403.714l-5.667,4.523.4,13.313,4.7-2.324Z" transform="translate(-2190.692 -10403.714)" fill="#f6cda2"/>
          <path id="Path_28528" data-name="Path 28528" d="M2160.922,10522.593c13.508,6.146,17.983,2.759,25.3,1.6-1.025-10.449-7.748-16.928-8.669-24.208-1.709-13.5,7.984-30.674-2.211-35.709-10.828-5.346-19.425,25.972-19.425,25.972C2166.649,10494.786,2163.376,10505.944,2160.922,10522.593Z" transform="translate(-2155.914 -10448.575)" fill="#9ea9fc"/>
          <path id="Path_28529" data-name="Path 28529" d="M2203.377,10461.565l-1.8-.01-7.082,8.353,2.57,1.717S2201.773,10465.6,2203.377,10461.565Z" transform="translate(-2184.787 -10446.996)" fill="#fff"/>
          <path id="Path_28530" data-name="Path 28530" d="M2182.206,10471.942c-.04-.023-.079-.05-.12-.069,1.62-4.411,5.469-11.318,9.929-11.405C2188.4,10464.507,2182.206,10471.942,2182.206,10471.942Z" transform="translate(-2175.498 -10446.183)" fill="#f6cda2"/>
        </g>
        <g id="Group_18894" data-name="Group 18894" transform="translate(0 42.131)">
          <g id="Group_18892" data-name="Group 18892" transform="translate(0 18.996)">
            <path id="Path_28531" data-name="Path 28531" d="M2141.485,10577.74c-2.062-1.221-7.919-.479-7.593-2.544.291-1.851,3.5-4.393,8.467.9Z" transform="translate(-2128.45 -10568.303)" fill="#ffd9a4"/>
            <path id="Path_28532" data-name="Path 28532" d="M2134.708,10571.779c-.307,3.3-4.324,2.909-5.561,2.5-1.359-.456-1.812-3.025-1.086-3.907S2134.824,10570.52,2134.708,10571.779Z" transform="translate(-2123.84 -10566.137)" fill="#ffd9a4"/>
            <path id="Path_28533" data-name="Path 28533" d="M2136.166,10558.755c-1.164-1.567-1.74-3.92-1.044-4.192.784-.309.9,1.807,2.286,2.96,1.5,1.252,2.376,2.119,1.924,2.723S2137.329,10560.327,2136.166,10558.755Z" transform="translate(-2129.155 -10554.532)" fill="#ffd9a4"/>
            <path id="Path_28534" data-name="Path 28534" d="M2119.488,10566.352c-1.583-.541-2.286-1.187-2.094-1.59s1.075-.041,2.657.5,3.729.83,3.537,1.234S2121.071,10566.889,2119.488,10566.352Z" transform="translate(-2116.091 -10562.057)" fill="#ffd9a4"/>
            <path id="Path_28535" data-name="Path 28535" d="M2115.274,10574.108c-1.693-.215-3.061-1.152-2.957-1.577s1.611.141,3.3.356,2.779.445,2.673.87S2116.966,10574.324,2115.274,10574.108Z" transform="translate(-2112.312 -10567.885)" fill="#ffd9a4"/>
            <path id="Path_28536" data-name="Path 28536" d="M2121.017,10582.191c-1.682-.282-2.556-.821-2.44-1.244s1.188-.028,2.869.256,2.855.506,2.738.93S2122.7,10582.474,2121.017,10582.191Z" transform="translate(-2116.992 -10574.16)" fill="#ffd9a4"/>
          </g>
          <g id="Group_18893" data-name="Group 18893" transform="translate(10.749)">
            <path id="Path_28537" data-name="Path 28537" d="M2163.2,10583.2c-1.311,5.414,23.044,11.671,24.194,11.308,0,0,2.323-3.548,1.075-4.228C2185.24,10588.524,2163.785,10580.778,2163.2,10583.2Z" transform="translate(-2161.1 -10556.638)" fill="#495bd9"/>
            <path id="Path_28538" data-name="Path 28538" d="M2230.655,10479.327c6.033-3.757,9.026,34.255,7.26,35.4,0,0-3.814-.337-4.848-1.824C2229.947,10508.4,2227.96,10481,2230.655,10479.327Z" transform="translate(-2210.667 -10479.066)" fill="#495bd9"/>
            <path id="Path_28539" data-name="Path 28539" d="M2155.812,10578.531l.893-1.352,6.458-.13s-1.01,2.7-1.6,3.1S2155.812,10578.531,2155.812,10578.531Z" transform="translate(-2155.611 -10552.386)" fill="#fff"/>
            <path id="Path_28540" data-name="Path 28540" d="M2155.238,10582.479l-.224,1.646,4.692,4.722s1.008-2.73.834-3.453S2155.238,10582.479,2155.238,10582.479Z" transform="translate(-2155.014 -10556.449)" fill="#fff"/>
          </g>
        </g>
        <g id="Group_18897" data-name="Group 18897" transform="translate(12.286 2.684)">
          <g id="Group_18896" data-name="Group 18896">
            <g id="Group_18895" data-name="Group 18895" transform="translate(0 2.35)">
              <path id="Path_28541" data-name="Path 28541" d="M2170.672,10360.6c-1.174.067-3.615-5.883-4.5-10.5-.292-1.523,1.349-1.8.952-7.024-.233-3.068.947-7.4,5.922-10.744,4.7-3.152,5.592,6.363,6.132,8.543,1.537,6.209,3.361,10.06,1.922,13.186C2178.287,10360.16,2171.924,10360.222,2170.672,10360.6Z" transform="translate(-2164.872 -10331.691)" fill="#ffd8a3"/>
              <path id="Path_28542" data-name="Path 28542" d="M2181.793,10413.265a.271.271,0,0,0-.26-.282.287.287,0,0,0-.217.325c.013.167.129.292.262.278A.28.28,0,0,0,2181.793,10413.265Z" transform="translate(-2176.231 -10392.519)" fill="#ffab00"/>
              <path id="Path_28543" data-name="Path 28543" d="M2178.064,10379.132c-.074-.824-.594-1.442-1.158-1.382s-.965.777-.89,1.6.593,1.441,1.158,1.383S2178.138,10379.956,2178.064,10379.132Z" transform="translate(-2172.26 -10366.153)" fill="#2d356b"/>
              <path id="Path_28544" data-name="Path 28544" d="M2176.379,10378.939c-.859-1.1-2.056-2.174-4.174-1.295A7.9,7.9,0,0,1,2176.379,10378.939Z" transform="translate(-2169.415 -10365.835)" fill="#2d356b"/>
              <path id="Path_28545" data-name="Path 28545" d="M2173.817,10427.5c-.046-.188-.6.522-.875.561-.787.111-.5,1.108.276.917C2173.523,10428.9,2173.865,10427.7,2173.817,10427.5Z" transform="translate(-2169.617 -10403.359)" fill="#f36973"/>
              <path id="Path_28546" data-name="Path 28546" d="M2172.246,10413.668c.523-.244-3.149-1.082-2.426.107A5.7,5.7,0,0,0,2172.246,10413.668Z" transform="translate(-2167.559 -10392.648)" fill="#f36973"/>
              <path id="Path_28547" data-name="Path 28547" d="M2171.147,10362.1a4.818,4.818,0,0,1,5.971,2.7C2175.434,10362.751,2174.178,10362.02,2171.147,10362.1Z" transform="translate(-2168.623 -10354.283)" fill="#2d356b"/>
              <path id="Path_28548" data-name="Path 28548" d="M2161.99,10392.423l1.848.452-.195-4.643-2.523,3.455Z" transform="translate(-2161.12 -10374)" fill="#ffd8a3"/>
              <path id="Path_28549" data-name="Path 28549" d="M2165.058,10406.658l-1.574-2.795,1.361-.124Z" transform="translate(-2162.889 -10385.604)" fill="#ffd8a3"/>
              <path id="Path_28550" data-name="Path 28550" d="M2170.382,10418.43a34.456,34.456,0,0,1-1.123-3.979l3.281-.184S2172.084,10417.777,2170.382,10418.43Z" transform="translate(-2167.21 -10393.48)" fill="#ffab00"/>
              <path id="Path_28551" data-name="Path 28551" d="M2172.237,10416.851l-1.869.107q-.205-.753-.389-1.569l2.682-.15Z" transform="translate(-2167.749 -10394.208)" fill="#fff"/>
              <path id="Path_28552" data-name="Path 28552" d="M2229.25,10385.518c-.155-1.428-.7-2.456.385-2.569s2.09.949,2.244,2.379-.6,2.679-1.686,2.792S2229.4,10386.947,2229.25,10385.518Z" transform="translate(-2211.896 -10370.04)" fill="#f7c371"/>
            </g>
            <path id="Path_28553" data-name="Path 28553" d="M2186.968,10322.359c.935,3.368,3.7,11.866,8.571,13.356,0,0,2.615-7.639-1.974-10.282C2187.771,10322.1,2186.968,10322.359,2186.968,10322.359Z" transform="translate(-2180.462 -10322.354)" fill="#fff4ba"/>
          </g>
        </g>
      </g>
      <g id="Group_18888" data-name="Group 18888" transform="translate(313.633 120.928)">
        <g id="Group_18887" data-name="Group 18887" transform="translate(0 -0.001)">
          <g id="Group_18877" data-name="Group 18877" transform="translate(19.31 38.382)">
            <g id="Group_18875" data-name="Group 18875" transform="translate(24.626 16.358)">
              <path id="Path_28487" data-name="Path 28487" d="M1787.115,10562.2c1.664-1.112,6.581-.765,6.214-2.472-.328-1.528-3.117-3.5-7.018,1.146Z" transform="translate(-1786.311 -10554.011)" fill="#f8c471"/>
              <path id="Path_28488" data-name="Path 28488" d="M1795.8,10556.795c.409,2.736,3.74,2.226,4.752,1.823,1.112-.443,1.371-2.607.725-3.308S1795.648,10555.748,1795.8,10556.795Z" transform="translate(-1793.366 -10551.869)" fill="#f8c471"/>
              <path id="Path_28489" data-name="Path 28489" d="M1800.307,10546.074c.9-1.36,1.269-3.35.676-3.544-.668-.222-.666,1.548-1.77,2.573-1.192,1.113-1.883,1.877-1.479,2.359S1799.41,10547.439,1800.307,10546.074Z" transform="translate(-1794.72 -10542.512)" fill="#f8c471"/>
              <path id="Path_28490" data-name="Path 28490" d="M1809.94,10551.491c1.295-.524,1.851-1.1,1.673-1.424s-.9.018-2.192.538-3.071.865-2.892,1.193S1808.644,10552.011,1809.94,10551.491Z" transform="translate(-1801.336 -10548.034)" fill="#f8c471"/>
              <path id="Path_28491" data-name="Path 28491" d="M1814.257,10557.645c1.4-.259,2.5-1.1,2.392-1.452s-1.336.193-2.738.45-2.3.5-2.188.852S1812.855,10557.9,1814.257,10557.645Z" transform="translate(-1805.202 -10552.601)" fill="#f8c471"/>
              <path id="Path_28492" data-name="Path 28492" d="M1810.8,10564.524c1.389-.313,2.094-.8,1.977-1.152s-.992.034-2.381.35-2.357.553-2.24.9S1809.414,10564.838,1810.8,10564.524Z" transform="translate(-1802.552 -10557.924)" fill="#f8c471"/>
            </g>
            <g id="Group_18876" data-name="Group 18876">
              <path id="Path_28493" data-name="Path 28493" d="M1706.428,10478.885c-4.478-2.74-16.177,26.432-16.18,27.549,0,0,2.3,1.8,3.265.9C1696.005,10505.006,1708.427,10480.107,1706.428,10478.885Z" transform="translate(-1690.248 -10478.703)" fill="#ffb2b0"/>
              <path id="Path_28494" data-name="Path 28494" d="M1716.913,10567.471c1.088,3.979-21.685,5.853-22.529,5.6,0,0-1.778-2.58-.888-3.1C1695.8,10568.616,1716.427,10565.7,1716.913,10567.471Z" transform="translate(-1692.479 -10544.301)" fill="#ffb2b0"/>
              <path id="Path_28495" data-name="Path 28495" d="M1774.818,10565.172l-.656-1.078-4.772-.465a9.777,9.777,0,0,0,1.178,2.439C1771,10566.406,1774.818,10565.172,1774.818,10565.172Z" transform="translate(-1749.102 -10541.858)" fill="#eaeaea"/>
              <path id="Path_28496" data-name="Path 28496" d="M1779.074,10569.294l.162,1.258-3.475,3.31a9.882,9.882,0,0,1-.61-2.659C1775.283,10570.664,1779.074,10569.294,1779.074,10569.294Z" transform="translate(-1753.374 -10546.07)" fill="#eaeaea"/>
            </g>
          </g>
          <g id="Group_18883" data-name="Group 18883">
            <g id="Group_18882" data-name="Group 18882">
              <g id="Group_18878" data-name="Group 18878" transform="translate(0 1.127)">
                <path id="Path_28497" data-name="Path 28497" d="M1652.249,10382.477c5.14-4.3-2.375-5.883-1.739-9.917s1.431-2.687,2.457-7.877-.229-7.24-.106-10.3,2.53-7.908,1.069-11.894-2.618-2.76-3.916-5.941-2.993.06-5.634,1.234-5-6.381-9.664-3.912-4.664,8.169-6.237,11.248-6.095,4.033-7.208,9.667,2.145,4.584.427,8.4-5.61,3.206-6.724,8.84c0,0-.959,5.665,5.427,5.848s4.139,3.437,11.214,1.753,4.3,4.239,9.339,2.306S1647.658,10386.313,1652.249,10382.477Z" transform="translate(-1614.924 -10333.373)" fill="#2d356b"/>
              </g>
              <g id="Group_18879" data-name="Group 18879" transform="translate(21.39 19.697)">
                <path id="Path_28498" data-name="Path 28498" d="M1714.671,10405.813l5.885,3.7,1.056,12.727-4.728-1.709Z" transform="translate(-1710.49 -10405.813)" fill="#f7c371"/>
                <path id="Path_28499" data-name="Path 28499" d="M1720.662,10521.879c-3.782-2.477-14.647,4.8-22.3-1.174,2.912-8.553,5.557-16.961,5.65-23.994.175-13.039-10.908-28.355-1.738-34.25,9.736-6.26,21.3,22.645,21.3,22.645C1713.838,10490.584,1716.532,10506.285,1720.662,10521.879Z" transform="translate(-1698.364 -10447.279)" fill="#fc8c99"/>
                <path id="Path_28500" data-name="Path 28500" d="M1716.241,10459.877l1.71-.2,7.645,7.194-2.263,1.909S1718.2,10463.549,1716.241,10459.877Z" transform="translate(-1711.658 -10445.868)" fill="#fff"/>
                <path id="Path_28501" data-name="Path 28501" d="M1734.409,10468.357c.037-.025.07-.051.107-.077-2.018-4.026-6.427-10.19-10.686-9.794C1727.707,10461.943,1734.409,10468.357,1734.409,10468.357Z" transform="translate(-1717.302 -10444.97)" fill="#f7c371"/>
              </g>
              <g id="Group_18881" data-name="Group 18881" transform="translate(16.524)">
                <g id="Group_18880" data-name="Group 18880">
                  <path id="Path_28502" data-name="Path 28502" d="M1693.175,10356.057c-3.036-1.171-9.222-2.806-11.775-7.827-3.319-6.527-1.937-10.217-.158-14.7,3.39-8.541,17.973-2.909,16.774-.414C1696.423,10336.434,1704.177,10360.3,1693.175,10356.057Z" transform="translate(-1679.382 -10328.979)" fill="#2d356b"/>
                  <path id="Path_28503" data-name="Path 28503" d="M1723.427,10368.682c1.138.116,3.768-5.562,4.831-10.012.35-1.468-1.234-1.8-.621-6.869.36-2.974-.6-7.236-5.29-10.7-4.428-3.268-5.71,5.94-6.33,8.035-1.763,5.969-3.7,9.633-2.439,12.734C1716.044,10367.929,1722.226,10368.264,1723.427,10368.682Z" transform="translate(-1704.51 -10337.478)" fill="#ffd8a3"/>
                  <path id="Path_28504" data-name="Path 28504" d="M1755.445,10419.035a.262.262,0,0,1,.266-.26.276.276,0,0,1,.2.325.263.263,0,0,1-.267.26A.277.277,0,0,1,1755.445,10419.035Z" transform="translate(-1735.944 -10395.754)" fill="#ffab00"/>
                  <path id="Path_28505" data-name="Path 28505" d="M1755.863,10386.662c-.115-.8.239-1.5.787-1.57s1.088.521,1.2,1.317-.239,1.5-.787,1.567S1755.977,10387.459,1755.863,10386.662Z" transform="translate(-1736.241 -10370.702)" fill="#2d356b"/>
                  <path id="Path_28506" data-name="Path 28506" d="M1751.753,10386.255c.567-1.231,1.46-2.519,3.662-2.162A7.7,7.7,0,0,0,1751.753,10386.255Z" transform="translate(-1733.201 -10369.918)" fill="#2d356b"/>
                  <path id="Path_28507" data-name="Path 28507" d="M1760.019,10432.821c.052-.183.558.534.826.584.76.142.443,1.1-.307.876C1760.245,10434.2,1759.964,10433.015,1760.019,10432.821Z" transform="translate(-1739.342 -10406.18)" fill="#f36973"/>
                  <path id="Path_28508" data-name="Path 28508" d="M1758.586,10419.757c-.5-.26,3.108-.915,2.353.209A5.544,5.544,0,0,1,1758.586,10419.757Z" transform="translate(-1738.247 -10396.169)" fill="#f36973"/>
                  <path id="Path_28509" data-name="Path 28509" d="M1751.981,10370.477a4.694,4.694,0,0,0-5.92,2.367C1747.786,10370.922,1749.04,10370.266,1751.981,10370.477Z" transform="translate(-1728.968 -10359.625)" fill="#2d356b"/>
                  <path id="Path_28510" data-name="Path 28510" d="M1768.367,10399.771l-1.816.36.39-4.5,2.3,3.467Z" transform="translate(-1744.206 -10378.542)" fill="#ffd8a3"/>
                  <path id="Path_28511" data-name="Path 28511" d="M1768.266,10413.349l1.65-2.647-1.318-.182Z" transform="translate(-1745.48 -10389.616)" fill="#ffd8a3"/>
                  <path id="Path_28512" data-name="Path 28512" d="M1758.242,10424.139a33.326,33.326,0,0,0,1.263-3.818l-3.182-.32S1756.616,10423.432,1758.242,10424.139Z" transform="translate(-1736.6 -10396.666)" fill="#ffab00"/>
                  <path id="Path_28513" data-name="Path 28513" d="M1758.211,10422.581l1.812.184c.155-.479.3-.984.446-1.506l-2.6-.263Z" transform="translate(-1737.749 -10397.407)" fill="#fff"/>
                  <path id="Path_28514" data-name="Path 28514" d="M1704.138,10390.5c.212-1.381.785-2.356-.263-2.515s-2.072.832-2.284,2.215a2.288,2.288,0,0,0,1.518,2.789C1704.16,10393.148,1703.927,10391.885,1704.138,10390.5Z" transform="translate(-1695.869 -10372.848)" fill="#f7c371"/>
                </g>
                <path id="Path_28515" data-name="Path 28515" d="M1726.319,10339.422c-3.851,4.711-10.452,11.5-9.769,18.842-2.189-7.959.164-18.045,5.67-21.74C1722.678,10337.346,1727.251,10337.574,1726.319,10339.422Z" transform="translate(-1706.418 -10334.59)" fill="#2d356b"/>
              </g>
            </g>
          </g>
          <g id="Group_18886" data-name="Group 18886" transform="translate(15.639 38.057)">
            <g id="Group_18884" data-name="Group 18884" transform="translate(26.425 13.975)">
              <path id="Path_28516" data-name="Path 28516" d="M1780.3,10556.751c1.547-1.742,7.187-2.795,6.272-4.61-.819-1.625-4.541-3.023-7.568,3.354Z" transform="translate(-1779.008 -10545.944)" fill="#ffd9a4"/>
              <path id="Path_28517" data-name="Path 28517" d="M1787.4,10548.134c1.265,2.961,4.867,1.406,5.888.654,1.122-.825.777-3.339-.156-3.937S1786.917,10547,1787.4,10548.134Z" transform="translate(-1785.224 -10541.48)" fill="#ffd9a4"/>
              <path id="Path_28518" data-name="Path 28518" d="M1791.837,10536.139c.61-1.8.444-4.144-.281-4.19-.818-.054-.3,1.939-1.236,3.42-1.016,1.605-1.569,2.665-.972,3.091S1791.227,10537.94,1791.837,10536.139Z" transform="translate(-1786.514 -10531.947)" fill="#ffd9a4"/>
              <path id="Path_28519" data-name="Path 28519" d="M1801.926,10538.04c1.3-.97,1.763-1.779,1.466-2.095s-1.007.281-2.311,1.251-3.2,1.877-2.907,2.194S1800.62,10539.006,1801.926,10538.04Z" transform="translate(-1793.237 -10534.854)" fill="#ffd9a4"/>
              <path id="Path_28520" data-name="Path 28520" d="M1808.2,10543.813c1.5-.7,2.49-1.975,2.267-2.339s-1.448.61-2.951,1.313-2.439,1.238-2.214,1.6S1806.7,10544.516,1808.2,10543.813Z" transform="translate(-1798.537 -10538.972)" fill="#ffd9a4"/>
              <path id="Path_28521" data-name="Path 28521" d="M1806.312,10552.86c1.472-.762,2.121-1.521,1.888-1.876s-1.108.328-2.579,1.09-2.492,1.316-2.258,1.676S1804.839,10553.623,1806.312,10552.86Z" transform="translate(-1797.095 -10546.032)" fill="#ffd9a4"/>
            </g>
            <g id="Group_18885" data-name="Group 18885">
              <path id="Path_28522" data-name="Path 28522" d="M1686.064,10477.5c-5.849-1.77-10.445,34.527-10.12,35.788,0,0,3.121,1.348,3.942.051C1682.009,10509.981,1688.676,10478.285,1686.064,10477.5Z" transform="translate(-1675.929 -10477.433)" fill="#ffb2b0"/>
              <path id="Path_28523" data-name="Path 28523" d="M1703.269,10568.5c2.4,4.161-22.7,12.969-23.725,12.938,0,0-2.761-2.383-1.913-3.234C1679.825,10576,1702.2,10566.646,1703.269,10568.5Z" transform="translate(-1677.074 -10544.979)" fill="#ffb2b0"/>
              <path id="Path_28524" data-name="Path 28524" d="M1764.855,10565.4l-1.055-1.02-5.511.879a11.445,11.445,0,0,0,2.044,2.4C1760.923,10567.915,1764.855,10565.4,1764.855,10565.4Z" transform="translate(-1737.175 -10542.094)" fill="#eaeaea"/>
              <path id="Path_28525" data-name="Path 28525" d="M1772.541,10567.987l.553,1.369-2.94,4.749a11.474,11.474,0,0,1-1.469-2.816C1768.675,10570.645,1772.541,10567.987,1772.541,10567.987Z" transform="translate(-1744.906 -10544.772)" fill="#eaeaea"/>
            </g>
          </g>
        </g>
      </g>
      <rect id="Rectangle_6660" data-name="Rectangle 6660" width="274.986" height="215.461" transform="translate(266.955 1.011)" fill="none" stroke="#ebebeb" stroke-miterlimit="10" stroke-width="5"/>
      <g id="Group_18890" data-name="Group 18890" transform="translate(439.764 174.829)">
        <rect id="Rectangle_6659" data-name="Rectangle 6659" width="51.571" height="26.673" rx="6.672" fill="#fff" stroke="#231f20" stroke-miterlimit="10" stroke-width="0.25"/>
        <text id="Helen" transform="translate(12.286 16.836)" fill="#2d356b" font-size="10" font-family="TrebuchetMS-Bold, Trebuchet MS" font-weight="700"><tspan x="0" y="0">Helen</tspan></text>
      </g>
    </g>
  </g>
</svg>
