<svg xmlns="http://www.w3.org/2000/svg" width="544" height="357.506" viewBox="0 0 544 357.506">
  <g id="Group_14596" data-name="Group 14596" transform="translate(-186.494 -100.411)">
    <g id="Group_14548" data-name="Group 14548" transform="translate(186.494 100.411)">
      <g id="Group_14535" data-name="Group 14535">
        <g id="Group_14518" data-name="Group 14518">
          <g id="Group_14517" data-name="Group 14517">
            <g id="Group_14516" data-name="Group 14516">
              <g id="Group_14515" data-name="Group 14515">
                <g id="Group_14514" data-name="Group 14514">
                  <g id="Group_14513" data-name="Group 14513">
                    <g id="Group_14510" data-name="Group 14510" transform="translate(0.477)">
                      <g id="Group_14506" data-name="Group 14506" transform="translate(0.109)">
                        <path id="Path_21328" data-name="Path 21328" d="M730.181,113.527h.644V100.985H187.411V363.106H730.176V336.776h.005Z" transform="translate(-187.411 -100.618)" fill="#fff"/>
                        <rect id="Rectangle_5219" data-name="Rectangle 5219" width="542.828" height="0.733" transform="translate(0 262.121)" fill="#a0bacb"/>
                        <rect id="Rectangle_5220" data-name="Rectangle 5220" width="543.414" height="0.733" fill="#7b88ac"/>
                      </g>
                      <g id="Group_14507" data-name="Group 14507" transform="translate(0 53.56)">
                        <path id="Path_21329" data-name="Path 21329" d="M267.341,185v-.192h-7.005V185H187.929V344.811h148.7V185Zm63.129,5.131v35.141H267.341V190.135Zm-70.134,41.2v67.135h-66.25V231.339Zm7.005,67.135V231.339h63.129v67.135Zm-7.005-108.34v35.141h-66.25V190.135Zm-66.25,114.4h66.25V339.68h-66.25Zm73.256,35.141V304.539h63.129V339.68Z" transform="translate(-187.489 -184.445)" fill="#ebebeb"/>
                        <path id="Path_21330" data-name="Path 21330" d="M336.816,344.971H187.24V184.43h72.407v-.192h7.884v.192h69.285Zm-148.7-.734H335.936V185.163H266.652v-.192h-6.125v.192H188.12Zm142.54-4.4H266.652V303.965H330.66Zm-63.129-.734H329.78V304.7H267.532Zm-7.005.734H193.4V303.965h67.13Zm-66.25-.734h65.371V304.7H194.276ZM330.66,298.635H266.652V230.766H330.66Zm-63.129-.733H329.78V231.5H267.532Zm-7.005.733H193.4V230.766h67.13Zm-66.25-.733h65.371V231.5H194.276ZM330.66,225.435H266.652V189.561H330.66Zm-63.129-.733H329.78V190.294H267.532Zm-7.005.733H193.4V189.561h67.13Zm-66.25-.733h65.371V190.294H194.276Z" transform="translate(-187.24 -184.238)" fill="#ebebeb"/>
                      </g>
                      <g id="Group_14508" data-name="Group 14508" transform="translate(226.052 52.614)">
                        <path id="Path_21331" data-name="Path 21331" d="M568.638,183.523v-.192h-6.424v.192H495.8V343.331H632.189V183.523Zm57.9,5.131V223.8h-57.9V188.655Zm-64.328,41.2v67.135H501.447V229.859Zm6.424,67.135V229.859h57.9v67.135Zm-6.424-108.34V223.8H501.447V188.655Zm-60.767,114.4h60.767V338.2H501.447ZM568.638,338.2V303.059h57.9V338.2Z" transform="translate(-495.397 -182.965)" fill="#ebebeb"/>
                        <path id="Path_21332" data-name="Path 21332" d="M632.364,343.491h-137.2V182.95h66.413v-.192h7.232v.192h63.55Zm-136.389-.733H631.557V183.683h-63.55v-.192h-5.618v.192H495.975Zm130.742-4.4h-58.71V302.485h58.71Zm-57.9-.733h57.1V303.219h-57.1Zm-6.425.733H500.815V302.485h61.574Zm-60.767-.733h59.96V303.219h-59.96Zm125.095-40.471h-58.71V229.286h58.71Zm-57.9-.733h57.1v-66.4h-57.1Zm-6.425.733H500.815V229.286h61.574Zm-60.767-.733h59.96v-66.4h-59.96Zm125.095-72.467h-58.71V188.081h58.71Zm-57.9-.733h57.1V188.814h-57.1Zm-6.425.733H500.815V188.081h61.574Zm-60.767-.733h59.96V188.814h-59.96Z" transform="translate(-495.169 -182.758)" fill="#ebebeb"/>
                      </g>
                      <g id="Group_14509" data-name="Group 14509" transform="translate(425.567 53.56)">
                        <path id="Path_21333" data-name="Path 21333" d="M888.477,339.68H850.953V304.539h37.524v-6.064H850.953V231.339h37.524v-6.064H850.953V190.135h37.524V185H850.953v-.192h-7V185H771.541V344.811H888.477Zm-44.529,0H777.7V304.539h66.25Zm0-41.2H777.7V231.339h66.25Zm0-73.2H777.7V190.135h66.25Z" transform="translate(-771.102 -184.445)" fill="#ebebeb"/>
                        <path id="Path_21334" data-name="Path 21334" d="M895.141,407.5H933.1v-.733H896.021V372.357H933.1v-.733H895.141Z" transform="translate(-815.73 -251.897)" fill="#ebebeb"/>
                        <path id="Path_21335" data-name="Path 21335" d="M895.141,324.928H933.1v-.733H896.021v-66.4H933.1v-.733H895.141Z" transform="translate(-815.73 -210.531)" fill="#ebebeb"/>
                        <path id="Path_21336" data-name="Path 21336" d="M895.141,228.443H933.1v-.733H896.021V193.3H933.1v-.733H895.141Z" transform="translate(-815.73 -187.246)" fill="#ebebeb"/>
                        <path id="Path_21337" data-name="Path 21337" d="M847.619,192.569h-67.13v35.874h67.13Zm-.879,35.141H781.368V193.3h65.371Z" transform="translate(-774.333 -187.246)" fill="#ebebeb"/>
                        <path id="Path_21338" data-name="Path 21338" d="M888.228,344.237h-116.5V185.163H844.14v-.192h6.125v.192h37.963v-.733H851.145v-.192H843.26v.192H770.854V344.97H888.228Z" transform="translate(-770.854 -184.238)" fill="#ebebeb"/>
                        <path id="Path_21339" data-name="Path 21339" d="M780.489,407.5h67.13V371.624h-67.13Zm.879-35.141h65.371v34.407H781.368Z" transform="translate(-774.333 -251.897)" fill="#ebebeb"/>
                        <path id="Path_21340" data-name="Path 21340" d="M847.619,257.059h-67.13v67.869h67.13Zm-.879,67.136H781.368v-66.4h65.371Z" transform="translate(-774.333 -210.531)" fill="#ebebeb"/>
                      </g>
                    </g>
                    <g id="Group_14511" data-name="Group 14511" transform="translate(0 230.93)">
                      <path id="Path_21341" data-name="Path 21341" d="M729.907,462.33H187.143v89.934h-.649v36.33H729.9V466.161h.005Z" transform="translate(-186.494 -462.018)" fill="#f9f9f9"/>
                      <rect id="Rectangle_5221" data-name="Rectangle 5221" width="541.806" height="0.525" transform="translate(1.753 125.852)" fill="#f9f9f9"/>
                      <rect id="Rectangle_5222" data-name="Rectangle 5222" width="542.832" height="0.525" transform="translate(0.586)" fill="#f9f9f9"/>
                    </g>
                    <g id="Group_14512" data-name="Group 14512" transform="translate(29.756 4.621)">
                      <path id="Path_21342" data-name="Path 21342" d="M716.293,186.065V107.644h-1.879v78.421c-5.858.4-10.465,4.481-10.465,9.466,0,5.25,5.106,9.505,11.4,9.505s11.4-4.255,11.4-9.505C726.758,190.546,722.151,186.464,716.293,186.065Z" transform="translate(-362.268 -107.644)" fill="#ffb2b0"/>
                      <path id="Path_21343" data-name="Path 21343" d="M245.409,195.76V117.339H243.53V195.76c-5.858.4-10.465,4.481-10.465,9.466,0,5.249,5.106,9.505,11.4,9.505s11.4-4.256,11.4-9.505C255.874,200.241,251.266,196.159,245.409,195.76Z" transform="translate(-233.065 -111.145)" fill="#ffb2b0"/>
                      <path id="Path_21344" data-name="Path 21344" d="M409.568,184.1V127.087H408.2V184.1c-4.258.29-7.608,3.257-7.608,6.882,0,3.816,3.712,6.911,8.291,6.911s8.292-3.094,8.292-6.911C417.177,187.359,413.827,184.392,409.568,184.1Z" transform="translate(-279.261 -114.664)" fill="#ffb2b0"/>
                      <path id="Path_21345" data-name="Path 21345" d="M859.476,184.1V127.087H858.11V184.1c-4.259.29-7.608,3.257-7.608,6.882,0,3.816,3.712,6.911,8.291,6.911s8.291-3.094,8.291-6.911C867.084,187.359,863.735,184.392,859.476,184.1Z" transform="translate(-403.324 -114.664)" fill="#ffb2b0"/>
                    </g>
                  </g>
                </g>
              </g>
            </g>
          </g>
        </g>
        <g id="Group_14526" data-name="Group 14526" transform="translate(376.474 173.773)">
          <g id="Group_14525" data-name="Group 14525">
            <g id="Group_14519" data-name="Group 14519" transform="translate(10.752)">
              <path id="Path_21346" data-name="Path 21346" d="M733.215,398.478s-.889-5.989-1.293-7.306c-.521-1.7-.776-4.237.656-5.728s1.648-5,1.648-5.54.537-8.592,6.444-7.4c0,0,2.446.6,1.253,4.893,0,0-1.253,2.565.328,4.177a6.542,6.542,0,0,1,0,8.891c-2.954,3.58-2.113,4.891-1.641,6.265,2.151,6.267-2.427,12.021-2.924,13.556s-1.094,4.055-.6,5.506l-1.737.033Z" transform="translate(-731.51 -372.384)" fill="#ebebeb"/>
            </g>
            <g id="Group_14520" data-name="Group 14520" transform="translate(15.046 6.063)">
              <path id="Path_21347" data-name="Path 21347" d="M738.706,419.482a.3.3,0,0,0,.053-.005.263.263,0,0,0,.2-.311c-.664-3.232.5-8.993.513-9.051.643-2.452.829-5.585-.235-13.573a30.661,30.661,0,0,1,.324-10.48,17.533,17.533,0,0,1,1.214-3.807.263.263,0,0,0-.468-.238,17.645,17.645,0,0,0-1.254,3.91,31.187,31.187,0,0,0-.336,10.684c1.05,7.876.857,11.047.245,13.384-.052.254-1.2,5.938-.516,9.276A.263.263,0,0,0,738.706,419.482Z" transform="translate(-738.232 -381.874)" fill="#fff"/>
            </g>
            <g id="Group_14521" data-name="Group 14521" transform="translate(16.472 23.013)">
              <path id="Path_21348" data-name="Path 21348" d="M742.519,428.956s0-1.412,2.9-2.75a4.842,4.842,0,0,0,2.9-3.492c.743-2.824,2.823-2.081,4.161-1.264s4.377,0,4.381-4.235a2.812,2.812,0,0,1,1.036-3.418c1.94-1.189,2.683-5.437-1.479-5.394s-8.082,2.1-12.113,8.069c-5.6,8.3-3.421,12.485-3.421,12.485Z" transform="translate(-740.463 -408.402)" fill="#ebebeb"/>
            </g>
            <g id="Group_14522" data-name="Group 14522" transform="translate(16.967 25.989)">
              <path id="Path_21349" data-name="Path 21349" d="M741.687,430.9a.274.274,0,0,0,.081-.013.268.268,0,0,0,.169-.331,6.353,6.353,0,0,1-.016-2.772.314.314,0,0,0,.02-.053c2.247-8.482,13.329-14.119,13.441-14.175a.263.263,0,0,0-.235-.47c-.114.057-11.385,5.791-13.707,14.485a6.216,6.216,0,0,0,0,3.145A.258.258,0,0,0,741.687,430.9Z" transform="translate(-741.238 -413.06)" fill="#fff"/>
            </g>
            <g id="Group_14523" data-name="Group 14523" transform="translate(0 10.434)">
              <path id="Path_21350" data-name="Path 21350" d="M727.107,421.722a5.17,5.17,0,0,1-2.447-5.191,3.634,3.634,0,0,0-3.222-4.356c-.716-.119-5.37-2.029-4.654-9.01,0,0,.238-4.475-.6-6.086s-2.924-6.444,0-7.936,4.952,1.193,6.026,3.938c0,0,.835,3.163,1.551,3.938s5.908,5.311,5.49,14.738l-1.016,9.965Z" transform="translate(-714.682 -388.715)" fill="#ebebeb"/>
            </g>
            <g id="Group_14524" data-name="Group 14524" transform="translate(4.167 15.923)">
              <path id="Path_21351" data-name="Path 21351" d="M729.939,425.086a.263.263,0,0,0,.263-.253c.3-8.026-3.179-18.492-5.175-21.516a53.88,53.88,0,0,1-3.323-5.861.263.263,0,0,0-.475.224,54.356,54.356,0,0,0,3.36,5.925c1.963,2.975,5.386,13.286,5.088,21.207a.263.263,0,0,0,.253.272Z" transform="translate(-721.204 -397.305)" fill="#fff"/>
            </g>
          </g>
          <path id="Path_21352" data-name="Path 21352" d="M739.139,455.479H727.886l-2.724-15.418h16.7Z" transform="translate(-718.466 -396.82)" fill="#ebebeb"/>
        </g>
        <g id="Group_14534" data-name="Group 14534" transform="translate(176.93 182.533)">
          <g id="Group_14533" data-name="Group 14533">
            <g id="Group_14527" data-name="Group 14527" transform="translate(9.146)">
              <path id="Path_21353" data-name="Path 21353" d="M450.785,408.291s-.757-5.095-1.1-6.215c-.443-1.448-.66-3.6.558-4.873s1.4-4.255,1.4-4.712.457-7.309,5.481-6.294c0,0,2.082.508,1.066,4.163,0,0-1.066,2.183.279,3.553a5.566,5.566,0,0,1,0,7.563c-2.513,3.045-1.8,4.16-1.4,5.329,1.831,5.331-2.064,10.226-2.487,11.532s-.93,3.45-.506,4.683l-1.478.027Z" transform="translate(-449.334 -386.095)" fill="#ebebeb"/>
            </g>
            <g id="Group_14528" data-name="Group 14528" transform="translate(12.8 5.158)">
              <path id="Path_21354" data-name="Path 21354" d="M455.456,426.159a.223.223,0,0,0,.219-.268c-.565-2.749.426-7.65.436-7.7.547-2.086.705-4.751-.2-11.546a26.1,26.1,0,0,1,.276-8.914,14.95,14.95,0,0,1,1.032-3.239.223.223,0,0,0-.4-.2,14.973,14.973,0,0,0-1.067,3.326,26.513,26.513,0,0,0-.286,9.088c.893,6.7.729,9.4.208,11.385-.045.217-1.023,5.051-.44,7.891A.223.223,0,0,0,455.456,426.159Z" transform="translate(-455.052 -394.168)" fill="#fff"/>
            </g>
            <g id="Group_14529" data-name="Group 14529" transform="translate(14.013 19.576)">
              <path id="Path_21355" data-name="Path 21355" d="M458.7,434.218s0-1.2,2.465-2.339a4.121,4.121,0,0,0,2.466-2.972c.632-2.4,2.4-1.77,3.54-1.075s3.723,0,3.727-3.6a2.392,2.392,0,0,1,.882-2.908c1.65-1.011,2.282-4.625-1.258-4.588s-6.875,1.785-10.3,6.864c-4.765,7.058-2.91,10.62-2.91,10.62Z" transform="translate(-456.951 -416.734)" fill="#ebebeb"/>
            </g>
            <g id="Group_14530" data-name="Group 14530" transform="translate(14.434 22.108)">
              <path id="Path_21356" data-name="Path 21356" d="M457.992,435.872a.224.224,0,0,0,.213-.292,5.406,5.406,0,0,1-.014-2.358.227.227,0,0,0,.017-.045c1.912-7.216,11.339-12.011,11.433-12.058a.223.223,0,0,0-.2-.4c-.1.049-9.684,4.926-11.659,12.322a5.283,5.283,0,0,0,0,2.676A.219.219,0,0,0,457.992,435.872Z" transform="translate(-457.61 -420.696)" fill="#fff"/>
            </g>
            <g id="Group_14531" data-name="Group 14531" transform="translate(0 8.876)">
              <path id="Path_21357" data-name="Path 21357" d="M445.589,428.064a4.4,4.4,0,0,1-2.081-4.416,3.091,3.091,0,0,0-2.741-3.705c-.609-.1-4.568-1.726-3.959-7.665,0,0,.2-3.807-.508-5.177s-2.487-5.482,0-6.751,4.213,1.015,5.127,3.35a12.942,12.942,0,0,0,1.32,3.35c.609.66,5.025,4.518,4.669,12.538l-.864,8.477Z" transform="translate(-435.02 -399.987)" fill="#ebebeb"/>
            </g>
            <g id="Group_14532" data-name="Group 14532" transform="translate(3.545 13.545)">
              <path id="Path_21358" data-name="Path 21358" d="M448,430.926a.223.223,0,0,0,.223-.215c.257-6.828-2.7-15.731-4.4-18.3a45.7,45.7,0,0,1-2.827-4.986.223.223,0,1,0-.4.19,46.162,46.162,0,0,0,2.858,5.041c1.67,2.53,4.582,11.3,4.329,18.04a.223.223,0,0,0,.215.231Z" transform="translate(-440.568 -407.294)" fill="#fff"/>
            </g>
          </g>
          <path id="Path_21359" data-name="Path 21359" d="M455.824,456.78h-9.572l-2.317-13.116h14.206Z" transform="translate(-438.239 -406.881)" fill="#ebebeb"/>
        </g>
      </g>
      <g id="Group_14547" data-name="Group 14547" transform="translate(353.16 169.263)">
        <g id="Group_14540" data-name="Group 14540" transform="translate(112.866)">
          <path id="Path_21360" data-name="Path 21360" d="M875.11,428.776H847.524s4.117,3.274,14.513,3.274S875.11,428.776,875.11,428.776Z" transform="translate(-838.518 -388.235)" fill="#cfd0d8"/>
          <g id="Group_14536" data-name="Group 14536" transform="translate(0 40.778)">
            <path id="Path_21361" data-name="Path 21361" d="M833.944,463l13.017-33.613-.515-.24-13.016,33.614Z" transform="translate(-833.429 -429.148)" fill="#cfd0d8"/>
          </g>
          <g id="Group_14537" data-name="Group 14537" transform="translate(32.319 40.661)">
            <path id="Path_21362" data-name="Path 21362" d="M892.83,462.9l.538-.169-8.818-33.766-.537.169Z" transform="translate(-884.012 -428.965)" fill="#cfd0d8"/>
          </g>
          <g id="Group_14538" data-name="Group 14538" transform="translate(26.99 41.497)">
            <path id="Path_21363" data-name="Path 21363" d="M877.071,463.3l.56-.029-1.4-33-.559.03Z" transform="translate(-875.671 -430.274)" fill="#cfd0d8"/>
          </g>
          <g id="Group_14539" data-name="Group 14539" transform="translate(14.958 42.073)">
            <path id="Path_21364" data-name="Path 21364" d="M857.391,463.666l5.179-32.385-.551-.106L856.84,463.56Z" transform="translate(-856.84 -431.174)" fill="#cfd0d8"/>
          </g>
          <path id="Path_21365" data-name="Path 21365" d="M848.817,406.788h23.061c12.558,0,18.438-30.208,17.6-35.4-1.235-7.674-14.72-7.674-18.425-2.149-2.471,3.685-6.177,16.739-8.373,25.03a9.932,9.932,0,0,1-9.115,7.357c-4.09.2-8.437.54-8.759,1.073C844.277,403.572,844.19,406.788,848.817,406.788Z" transform="translate(-837.447 -365.326)" fill="#cfd0d8"/>
          <path id="Path_21366" data-name="Path 21366" d="M844.86,405.738l23.082-.461c12.557,0,19.6-27.7,18.758-32.9-.124-.774,2.531-.114,2.78,1.432.836,5.2-5.043,35.4-17.6,35.4H848.819C844.189,409.218,844.241,405.738,844.86,405.738Z" transform="translate(-837.449 -367.756)" fill="#cfd0d8"/>
        </g>
        <g id="Group_14545" data-name="Group 14545">
          <path id="Path_21367" data-name="Path 21367" d="M681.068,428.776h27.586s-4.117,3.274-14.513,3.274S681.068,428.776,681.068,428.776Z" transform="translate(-665.551 -388.235)" fill="#cfd0d8"/>
          <g id="Group_14541" data-name="Group 14541" transform="translate(38.578 40.778)">
            <path id="Path_21368" data-name="Path 21368" d="M730.177,463l-13.017-33.613.515-.24,13.016,33.614Z" transform="translate(-717.161 -429.148)" fill="#cfd0d8"/>
          </g>
          <g id="Group_14542" data-name="Group 14542" transform="translate(10.435 40.661)">
            <path id="Path_21369" data-name="Path 21369" d="M673.651,462.9l-.538-.169,8.818-33.766.537.169Z" transform="translate(-673.113 -428.965)" fill="#cfd0d8"/>
          </g>
          <g id="Group_14543" data-name="Group 14543" transform="translate(23.16 41.497)">
            <path id="Path_21370" data-name="Path 21370" d="M693.589,463.3l-.56-.029,1.4-33,.559.03Z" transform="translate(-693.029 -430.274)" fill="#cfd0d8"/>
          </g>
          <g id="Group_14544" data-name="Group 14544" transform="translate(31.422 42.073)">
            <path id="Path_21371" data-name="Path 21371" d="M711.139,463.666l-5.179-32.385.551-.106,5.179,32.385Z" transform="translate(-705.961 -431.174)" fill="#cfd0d8"/>
          </g>
          <path id="Path_21372" data-name="Path 21372" d="M697.522,406.788H674.461c-12.558,0-18.438-30.208-17.6-35.4,1.235-7.674,14.72-7.674,18.425-2.149,2.471,3.685,6.177,16.739,8.373,25.03a9.932,9.932,0,0,0,9.115,7.357c4.09.2,8.437.54,8.759,1.073C702.061,403.572,702.149,406.788,697.522,406.788Z" transform="translate(-656.782 -365.326)" fill="#cfd0d8"/>
          <path id="Path_21373" data-name="Path 21373" d="M701.48,405.738l-23.083-.461c-12.557,0-19.6-27.7-18.758-32.9.123-.774-2.532-.114-2.78,1.432-.836,5.2,5.043,35.4,17.6,35.4h23.061C702.152,409.218,702.1,405.738,701.48,405.738Z" transform="translate(-656.782 -367.756)" fill="#cfd0d8"/>
        </g>
        <g id="Group_14546" data-name="Group 14546" transform="translate(39.897 22.249)">
          <path id="Path_21374" data-name="Path 21374" d="M783.768,400.869H780.08c2.638.8,1.875,30.048,0,50.871h3.688C782.258,432.067,781.962,401.776,783.768,400.869Z" transform="translate(-741.198 -400.409)" fill="#cfd0d8"/>
          <path id="Path_21375" data-name="Path 21375" d="M781.027,476.046h-2.77l-4.5,3.888h11.767Z" transform="translate(-738.915 -427.553)" fill="#cfd0d8"/>
          <path id="Path_21376" data-name="Path 21376" d="M795.213,401.749H725.246l4.5,1.383H790.71Z" transform="translate(-721.399 -400.726)" fill="#cfd0d8"/>
          <rect id="Rectangle_5223" data-name="Rectangle 5223" width="77.456" height="1.384" fill="#cfd0d8"/>
        </g>
      </g>
    </g>
    <g id="Group_14559" data-name="Group 14559" transform="translate(215.268 307.887)">
      <g id="Group_14553" data-name="Group 14553" transform="translate(240.149 0)">
        <path id="Path_21377" data-name="Path 21377" d="M641.911,544.4H590.059s7.738,6.154,27.279,6.154S641.911,544.4,641.911,544.4Z" transform="translate(-573.131 -468.195)" fill="#9999a5"/>
        <g id="Group_14549" data-name="Group 14549" transform="translate(0 76.648)">
          <path id="Path_21378" data-name="Path 21378" d="M564.532,608.728,589,545.546l-.968-.451-24.467,63.183Z" transform="translate(-563.564 -545.096)" fill="#9999a5"/>
        </g>
        <g id="Group_14550" data-name="Group 14550" transform="translate(60.75 76.429)">
          <path id="Path_21379" data-name="Path 21379" d="M675.218,608.54l1.011-.318-16.575-63.469-1.01.317Z" transform="translate(-658.644 -544.753)" fill="#9999a5"/>
        </g>
        <g id="Group_14551" data-name="Group 14551" transform="translate(50.732 78.001)">
          <path id="Path_21380" data-name="Path 21380" d="M645.6,609.294l1.052-.055-2.632-62.027-1.051.056Z" transform="translate(-642.966 -547.212)" fill="#9999a5"/>
        </g>
        <g id="Group_14552" data-name="Group 14552" transform="translate(28.116 79.082)">
          <path id="Path_21381" data-name="Path 21381" d="M608.6,609.978l9.734-60.873-1.035-.2-9.734,60.873Z" transform="translate(-607.569 -548.905)" fill="#9999a5"/>
        </g>
        <path id="Path_21382" data-name="Path 21382" d="M592.488,503.067h43.347c23.605,0,34.657-56.781,33.084-66.549-2.321-14.425-27.668-14.425-34.633-4.04-4.644,6.926-11.609,31.464-15.738,47.048a18.668,18.668,0,0,1-17.133,13.828c-7.688.379-15.859,1.014-16.464,2.016C583.956,497.023,583.79,503.067,592.488,503.067Z" transform="translate(-571.118 -425.133)" fill="#9999a5"/>
        <path id="Path_21383" data-name="Path 21383" d="M585.051,501.093l43.387-.866c23.6,0,36.833-52.065,35.259-61.833-.233-1.456,4.759-.215,5.225,2.692,1.572,9.768-9.479,66.549-33.085,66.549H592.491C583.789,507.634,583.888,501.093,585.051,501.093Z" transform="translate(-571.121 -429.7)" fill="#2d356b"/>
      </g>
      <g id="Group_14558" data-name="Group 14558" transform="translate(0 0)">
        <path id="Path_21384" data-name="Path 21384" d="M277.179,544.4h51.852s-7.738,6.154-27.279,6.154S277.179,544.4,277.179,544.4Z" transform="translate(-248.011 -468.195)" fill="#9999a5"/>
        <g id="Group_14554" data-name="Group 14554" transform="translate(72.514 76.648)">
          <path id="Path_21385" data-name="Path 21385" d="M369.487,608.728,345.02,545.546l.968-.451,24.467,63.183Z" transform="translate(-345.02 -545.096)" fill="#9999a5"/>
        </g>
        <g id="Group_14555" data-name="Group 14555" transform="translate(19.614 76.429)">
          <path id="Path_21386" data-name="Path 21386" d="M263.237,608.54l-1.011-.318L278.8,544.753l1.01.317Z" transform="translate(-262.226 -544.753)" fill="#9999a5"/>
        </g>
        <g id="Group_14556" data-name="Group 14556" transform="translate(43.533 78.001)">
          <path id="Path_21387" data-name="Path 21387" d="M300.714,609.294l-1.052-.055,2.632-62.027,1.051.056Z" transform="translate(-299.662 -547.212)" fill="#9999a5"/>
        </g>
        <g id="Group_14557" data-name="Group 14557" transform="translate(59.063 79.082)">
          <path id="Path_21388" data-name="Path 21388" d="M333.7,609.978l-9.734-60.873,1.035-.2,9.734,60.873Z" transform="translate(-323.968 -548.905)" fill="#9999a5"/>
        </g>
        <path id="Path_21389" data-name="Path 21389" d="M308.106,503.067H264.76c-23.605,0-34.657-56.781-33.085-66.549,2.321-14.425,27.668-14.425,34.633-4.04,4.644,6.926,11.609,31.464,15.738,47.048a18.668,18.668,0,0,0,17.133,13.828c7.688.379,15.859,1.014,16.464,2.016C316.638,497.023,316.8,503.067,308.106,503.067Z" transform="translate(-231.528 -425.133)" fill="#9999a5"/>
        <path id="Path_21390" data-name="Path 21390" d="M315.547,501.093l-43.387-.866c-23.6,0-36.833-52.065-35.259-61.833.233-1.456-4.759-.215-5.225,2.692-1.572,9.768,9.479,66.549,33.085,66.549h43.347C316.808,507.634,316.709,501.093,315.547,501.093Z" transform="translate(-231.528 -429.7)" fill="#2d356b"/>
      </g>
    </g>
    <g id="Group_14574" data-name="Group 14574" transform="translate(418.771 236.75)">
      <g id="Group_14560" data-name="Group 14560" transform="translate(0 116.617)">
        <path id="Path_21391" data-name="Path 21391" d="M597.464,500.2c7.4,2.564,6.241,16.872,2.607,19.11-3.657,2.252-56.723-11.324-62.4-4.959-3.736,4.188,10.956,31.632,4.226,76.326-1,.646-3.761.356-3.6-.977,3.675-30.966-12.859-80.747-10.852-82.357C536.763,499.855,571.241,491.1,597.464,500.2Z" transform="translate(-512.532 -496.314)" fill="#40558e"/>
        <path id="Path_21392" data-name="Path 21392" d="M610.679,504.227c7.412,2.225.864,16.574-4.019,18.928s-57.505-8.892-65.532-2.559c-5.23,4.127,1.068,29.73-20.026,71.162-1.2.583-3.878.305-3.306-.9,13.448-28.489,12.427-74.952,15.012-76.569C544.931,506.7,584.824,496.468,610.679,504.227Z" transform="translate(-509.083 -498.172)" fill="#495bd9"/>
        <path id="Path_21393" data-name="Path 21393" d="M504.2,641.436l12.165.85s-.583-3.41-3.014-3.411S504.2,641.436,504.2,641.436Z" transform="translate(-504.204 -547.788)" fill="#9898a4"/>
        <path id="Path_21394" data-name="Path 21394" d="M532.131,641.805l12.165.85s-.583-3.411-3.014-3.413S532.131,641.805,532.131,641.805Z" transform="translate(-514.287 -547.921)" fill="#9898a4"/>
        <path id="Path_21395" data-name="Path 21395" d="M648.7,521.6c4.8-1.181,9.96-9.918,10.391-18.481l-23.517-5.855-1.353,7.319S643.275,522.938,648.7,521.6Z" transform="translate(-551.149 -496.658)" fill="#495bd9"/>
        <path id="Path_21396" data-name="Path 21396" d="M658.377,505.3l-.523,2.659-19.745-6.772.117-1.677Z" transform="translate(-552.553 -497.469)" fill="#cecfd7"/>
        <path id="Path_21397" data-name="Path 21397" d="M663.822,505.093l1.323.292-1.372,6.057-1.323-.293Z" transform="translate(-561.341 -499.484)" fill="#495bd9"/>
        <path id="Path_21398" data-name="Path 21398" d="M655.217,503.7l1.323.292-1.372,6.057-1.324-.292Z" transform="translate(-558.234 -498.981)" fill="#495bd9"/>
        <path id="Path_21399" data-name="Path 21399" d="M645.392,500.9l1.323.292-1.373,6.058-1.322-.292Z" transform="translate(-554.687 -497.971)" fill="#495bd9"/>
      </g>
      <g id="Group_14569" data-name="Group 14569" transform="translate(18.693)">
        <g id="Group_14562" data-name="Group 14562" transform="translate(0 79.084)">
          <g id="Group_14561" data-name="Group 14561">
            <path id="Path_21400" data-name="Path 21400" d="M553.425,472.49c-.215,0-.424.013-.632.033a8.922,8.922,0,0,1,.443,1.774c1.62.1,2.882.921,2.882,1.917,0,1.042-1.383,1.889-3.108,1.924a8.361,8.361,0,0,1-.823,1.994,6.523,6.523,0,0,0,1.239.123c2.786,0,5.046-1.738,5.046-3.882S556.211,472.49,553.425,472.49Z" transform="translate(-540.222 -450.178)" fill="#fff4ba"/>
            <path id="Path_21401" data-name="Path 21401" d="M554.293,480.748a5.659,5.659,0,0,1-1.325-.162,8.3,8.3,0,0,1-.782,1.86,6.523,6.523,0,0,0,1.239.123c2.693,0,4.888-1.626,5.03-3.671A5.586,5.586,0,0,1,554.293,480.748Z" transform="translate(-540.222 -452.492)" fill="#f8c471"/>
            <path id="Path_21402" data-name="Path 21402" d="M546.757,467.695H533.5l1.765,14.421h11.494Z" transform="translate(-533.474 -448.447)" fill="#fff4ba"/>
            <path id="Path_21403" data-name="Path 21403" d="M540.053,468.171H534.4l-.9-.476,1.765,14.421h6.265Z" transform="translate(-533.474 -448.447)" fill="#fff4ba"/>
            <path id="Path_21404" data-name="Path 21404" d="M536.8,468.2l-2.4-.034-.9-.476,1.765,14.421h4.152Z" transform="translate(-533.474 -448.447)" fill="#f8c471"/>
            <path id="Path_21405" data-name="Path 21405" d="M545.845,468.217c0-.326-2.662-.592-5.947-.592-2.22,0-5.268.032-6.4.052,0,.205-.035.429-.04.534-.041.718,3.154.6,6.438.6S545.845,468.546,545.845,468.217Z" transform="translate(-533.46 -448.422)" fill="#ebebeb"/>
            <path id="Path_21406" data-name="Path 21406" d="M546.337,468.346a69.854,69.854,0,0,0-11.515,0,69.854,69.854,0,0,0,11.515,0Z" transform="translate(-533.952 -448.596)" fill="#2d356b"/>
            <path id="Path_21407" data-name="Path 21407" d="M545.322,453.2c-1.139-2.679-10.8.865-9.608-3.092.544-1.815,4.451-2,3.168-5.2-.784-1.954,4.942-3.4,2.848-7.342.675,1.072,1.889,3.137-1.464,5.908-1.478,1.222-.058,2.1-.208,3.414-.2,1.732-3.117,2.432-2.515,3.762C538.067,451.808,545.415,449.938,545.322,453.2Z" transform="translate(-534.238 -437.57)" fill="#ebebeb" opacity="0.2"/>
            <path id="Path_21408" data-name="Path 21408" d="M548.189,463.272c-.7.8-2.75-.452-3.407.247s-.061,1.971,1.581,2.155c0,0-1.642-.7-.8-1.54C546,463.694,547.563,464.359,548.189,463.272Z" transform="translate(-537.453 -446.85)" fill="#ebebeb" opacity="0.2"/>
          </g>
        </g>
        <g id="Group_14563" data-name="Group 14563" transform="translate(54.463 29.92)">
          <path id="Path_21409" data-name="Path 21409" d="M646.2,388.857l1.315.408.564,3.261-2.93,1.3Z" transform="translate(-628.251 -370.818)" fill="#eaeaea"/>
          <path id="Path_21410" data-name="Path 21410" d="M649.922,365.583l12.086-4.959,1.2,19.722-17.353,5.72Z" transform="translate(-628.507 -360.624)" fill="#f7c371"/>
          <path id="Path_21411" data-name="Path 21411" d="M626.3,468.559c-4.417-9.008-4.917-24.105-5.706-39.053-1.054-19.982,19.651-43.879,38.256-41.716,30.2,3.512.7,66.484-1.894,75.141" transform="translate(-619.37 -370.383)" fill="#495bd9" stroke="#9999a5" stroke-miterlimit="10" stroke-width="1"/>
          <path id="Path_21412" data-name="Path 21412" d="M673.525,443.731c2.225-4.43,4.465-17.507,6.643-28.439.813-4.081,8.02,3.463,9.4,13.363.857,6.141-12.813,41.977-13.807,45.291" transform="translate(-638.496 -379.954)" fill="#495bd9"/>
          <path id="Path_21413" data-name="Path 21413" d="M622,448.36c.918-25.853,20.4-51.582,38.155-59.071,2.983-1.258.254-3.446-8.3-2.522C644.2,387.624,613.7,403.4,622,448.36Z" transform="translate(-619.379 -369.983)" fill="#9ea9fc"/>
          <path id="Path_21414" data-name="Path 21414" d="M622.368,431.567c2.591-21.758,10.526-33.288,29.3-44.675-7.46.836-36.979,11.422-30.743,53.641C621.087,441.608,621.921,435.328,622.368,431.567Z" transform="translate(-619.195 -370.108)" fill="#eaeaea"/>
          <path id="Path_21415" data-name="Path 21415" d="M627.89,504.009c-.136-.905.26-1.717.886-1.811s1.244.564,1.38,1.47-.259,1.717-.885,1.811S628.027,504.915,627.89,504.009Z" transform="translate(-622.009 -411.738)" fill="#9ea9fc"/>
          <path id="Path_21416" data-name="Path 21416" d="M625.353,487.2c-.137-.9.26-1.716.886-1.811s1.244.564,1.38,1.469-.259,1.717-.885,1.811S625.49,488.11,625.353,487.2Z" transform="translate(-621.093 -405.67)" fill="#9ea9fc"/>
          <path id="Path_21417" data-name="Path 21417" d="M649.888,392.958l-4.414,1.6,1.474-4.857.835-.467Z" transform="translate(-628.368 -370.956)" fill="#ffe200"/>
          <path id="Path_21418" data-name="Path 21418" d="M620.337,446.429l1.253-8.786s-4.373-27.279,15.174-41.3l-.252-.687C620.451,407.71,615.83,428.08,620.337,446.429Z" transform="translate(-618.701 -373.273)" fill="#ffe200"/>
          <path id="Path_21419" data-name="Path 21419" d="M646.794,386.065l17.378-4.941,2.274,3.464-16.451,6.99Z" transform="translate(-628.844 -368.026)" fill="#fff"/>
        </g>
        <g id="Group_14568" data-name="Group 14568" transform="translate(64.492)">
          <path id="Path_21420" data-name="Path 21420" d="M661.667,343.671c7.685-9.41,6.81-24.768,6.427-25.3-4.093-5.7-15.424-5.063-21.124-3.448-4.806,1.362-8.56,4.078-6.121,7.811.842,1.289,4.637-1.691,5.809-1.55,2.216.266,3.922,30.687,3.922,30.687Z" transform="translate(-636.451 -313.796)" fill="#0080af"/>
          <g id="Group_14565" data-name="Group 14565" transform="translate(0 7.071)">
            <g id="Group_14564" data-name="Group 14564">
              <path id="Path_21421" data-name="Path 21421" d="M639.761,362.8l-1.157-1.917,1.538-.968Z" transform="translate(-635.917 -337.521)" fill="#ffd8a3"/>
              <path id="Path_21422" data-name="Path 21422" d="M657.414,351.456c-.906,2.584-8.849,8.117-16.741,7.776-.908-10.262-.558-27.2,1.349-30.1,1.876-2.846,9.429-4.939,10.36-4.074-2.756,3.3,1.708,14.274,3.324,15.28C659.643,342.79,658.361,348.759,657.414,351.456Z" transform="translate(-636.491 -324.863)" fill="#ffd8a3"/>
              <path id="Path_21423" data-name="Path 21423" d="M634.4,356.331a72.708,72.708,0,0,0,3.871-8.666c1.176-3.236.8,8.651.8,8.651S635.556,357.133,634.4,356.331Z" transform="translate(-634.398 -332.895)" fill="#ffd8a3"/>
              <path id="Path_21424" data-name="Path 21424" d="M639.621,377.119c-.8-.337-1.195-1.091-.888-1.685a1.564,1.564,0,0,1,2-.464c.8.337,1.2,1.092.888,1.685A1.564,1.564,0,0,1,639.621,377.119Z" transform="translate(-635.926 -342.897)" fill="#ffd8a3"/>
              <path id="Path_21425" data-name="Path 21425" d="M639.462,370.249c-.027-.207.205-.409.519-.451s.591.093.619.3-.205.41-.519.451S639.489,370.456,639.462,370.249Z" transform="translate(-636.226 -341.085)" fill="#ffd8a3"/>
            </g>
            <path id="Path_21426" data-name="Path 21426" d="M664.329,348.434c.436-1.87,1.875-3.192,3.214-2.954s2.07,1.947,1.634,3.816-2.975,2.963-4.314,2.726S663.893,350.3,664.329,348.434Z" transform="translate(-645.061 -332.297)" fill="#ffd8a3"/>
          </g>
          <path id="Path_21427" data-name="Path 21427" d="M640.072,363.524l.282,4.186s1.168-.124,1.42-.648a14.656,14.656,0,0,0,.828-4.213Z" transform="translate(-636.447 -331.507)" fill="#ffab00"/>
          <path id="Path_21428" data-name="Path 21428" d="M640.191,363.777l.253,3.717s.863-.079,1.048-.316a10.439,10.439,0,0,0,.794-3.986Z" transform="translate(-636.49 -331.631)" fill="#fff"/>
          <path id="Path_21429" data-name="Path 21429" d="M641.615,343.115a1.012,1.012,0,0,1,.257-.672c.421-.443,3.97.638,3.928,1.378l-.027.464c-.031.534-1.089-.028-2.15-.171-1.015-.136-2.035.169-2.023-.334Z" transform="translate(-636.998 -324.102)" fill="#2d356b"/>
          <path id="Path_21430" data-name="Path 21430" d="M643.692,349.253c-.022-.62.3-1.168.721-1.224s.78.4.8,1.022-.3,1.167-.719,1.223S643.717,349.873,643.692,349.253Z" transform="translate(-637.754 -326.155)" fill="#2d356b"/>
          <path id="Path_21431" data-name="Path 21431" d="M643.9,362.8c-.019-.143.047-.271.149-.284s.2.092.217.236-.047.271-.148.284S643.918,362.947,643.9,362.8Z" transform="translate(-637.827 -331.388)" fill="#ffab00"/>
          <g id="Group_14567" data-name="Group 14567" transform="translate(3.665 6.158)">
            <path id="Path_21432" data-name="Path 21432" d="M659.4,327.587c-3.414.3,2.185,15.673.469,16.812s.016,2.377.923,2.015c2.075-.827,2.369-5.2,2.467-7.986C663.364,335.327,659.684,327.562,659.4,327.587Z" transform="translate(-646.682 -324.933)" fill="#0080af"/>
            <g id="Group_14566" data-name="Group 14566">
              <path id="Path_21433" data-name="Path 21433" d="M641.186,325.463c-.042-.918,3.214-1.811,7.271-2s7.38.41,7.422,1.327-3.213,1.809-7.27,1.994S641.228,326.38,641.186,325.463Z" transform="translate(-640.514 -323.433)" fill="#0080af"/>
              <path id="Path_21434" data-name="Path 21434" d="M640.776,327.106c4.267,2.812,9.117,2.721,12.864,2.065,0,0-8.729.053-12.1-2.543Z" transform="translate(-640.366 -324.587)" fill="#0080af"/>
              <path id="Path_21435" data-name="Path 21435" d="M641.335,325.975c1.373,3.517,4.5,4.18,7.2,4.1,0,0-5.575-1.305-6.481-4.463Z" transform="translate(-640.567 -324.22)" fill="#0080af"/>
              <path id="Path_21436" data-name="Path 21436" d="M640.162,324.34c-.337,3.5,2.41,5.319,4.955,6.347,0,0-4.27-3.147-3.65-6.329Z" transform="translate(-640.134 -323.761)" fill="#0080af"/>
              <path id="Path_21437" data-name="Path 21437" d="M642.785,327.107c4.552,2.324,9.364,1.7,13.015.631,0,0-8.67,1.018-12.305-1.19Z" transform="translate(-641.091 -324.558)" fill="#0080af"/>
            </g>
          </g>
        </g>
      </g>
      <g id="Group_14573" data-name="Group 14573" transform="translate(65.637 54.832)">
        <g id="Group_14570" data-name="Group 14570" transform="translate(0 14.661)">
          <path id="Path_21438" data-name="Path 21438" d="M625.582,448.542c-1.949-3.743-11.666-8.069-9.111-10.865,2.287-2.505,9.73-3.342,12.082,9.22Z" transform="translate(-610.224 -427.471)" fill="#ffd9a4"/>
          <path id="Path_21439" data-name="Path 21439" d="M625.1,438.777c-3.751,4.665-9.525.355-11.007-1.417-1.631-1.947.23-6.223,2.222-6.87S626.536,437,625.1,438.777Z" transform="translate(-609.295 -425.408)" fill="#ffd9a4"/>
          <path id="Path_21440" data-name="Path 21440" d="M624.618,430.438c-.224-3.434,1.237-7.5,2.574-7.261,1.51.264-.418,3.544.558,6.562,1.056,3.273,1.536,5.388.244,5.875S624.839,433.878,624.618,430.438Z" transform="translate(-613.311 -422.779)" fill="#ffd9a4"/>
          <path id="Path_21441" data-name="Path 21441" d="M614.752,426.968c-1.891-2.28-2.325-3.9-1.627-4.33s1.684.939,3.576,3.216,4.89,4.706,4.193,5.138S616.647,429.243,614.752,426.968Z" transform="translate(-609.056 -422.559)" fill="#ffd9a4"/>
          <path id="Path_21442" data-name="Path 21442" d="M610.043,430.427c-2.382-1.9-3.545-4.574-2.96-5.117s2.328,1.71,4.706,3.606,3.816,3.251,3.23,3.79S612.424,432.32,610.043,430.427Z" transform="translate(-606.933 -423.523)" fill="#ffd9a4"/>
          <path id="Path_21443" data-name="Path 21443" d="M610.013,436.758c-2.3-1.988-3.1-3.609-2.5-4.133s1.85,1.063,4.144,3.05,3.876,3.409,3.276,3.938S612.31,438.743,610.013,436.758Z" transform="translate(-607.073 -426.157)" fill="#ffd9a4"/>
        </g>
        <g id="Group_14572" data-name="Group 14572" transform="translate(12.014)">
          <path id="Path_21444" data-name="Path 21444" d="M682.444,458.484c4.676.428,4.288-55.763-2.834-58.871,0,0-14.37,2.77-18.437,21.6C661.173,421.212,663.574,456.76,682.444,458.484Z" transform="translate(-638.532 -399.613)" fill="#495bd9"/>
          <path id="Path_21445" data-name="Path 21445" d="M625.737,447.551l3.419,5.6,6.874-7.066-5.726-2.933Z" transform="translate(-625.737 -415.332)" fill="#eaeaea"/>
          <path id="Path_21446" data-name="Path 21446" d="M669.206,476.777a5.523,5.523,0,0,1-5.68,1.653c-6.088-1.763-20.669-7.623-36.746-25.876,0,0,1.383-4.674,7.414-7.939,0,0,26.058,7.881,36.97,18.994C671.164,463.61,674.451,470.821,669.206,476.777Z" transform="translate(-626.114 -415.862)" fill="#495bd9"/>
          <g id="Group_14571" data-name="Group 14571" transform="translate(0.668 20.657)">
            <path id="Path_21447" data-name="Path 21447" d="M652.836,432.885c.07-.322.15-.629.225-.942,1.981,4.917,3.378,16.922,9.207,20.923-6.454-3.92-20.575-10.931-24.186-12.712.066-.038.125-.077.193-.113a157.611,157.611,0,0,1,16.846,6.4A84.914,84.914,0,0,1,652.836,432.885Z" transform="translate(-630.862 -431.943)" fill="#9ea9fc"/>
            <path id="Path_21448" data-name="Path 21448" d="M654.236,478.469c-7.257-3.678-17.04-10.3-27.454-22.12a8.028,8.028,0,0,1,.529-1.228A135.783,135.783,0,0,0,654.236,478.469Z" transform="translate(-626.782 -440.311)" fill="#9ea9fc"/>
          </g>
          <path id="Path_21449" data-name="Path 21449" d="M638.867,454.834a1.486,1.486,0,1,1,.692,1.985A1.487,1.487,0,0,1,638.867,454.834Z" transform="translate(-630.424 -419.248)" fill="#9ea9fc"/>
        </g>
      </g>
    </g>
    <g id="Group_14586" data-name="Group 14586" transform="translate(237.041 236.759)">
      <g id="Group_14576" data-name="Group 14576" transform="translate(30.475 55.843)">
        <g id="Group_14575" data-name="Group 14575" transform="translate(20.131 56.488)">
          <path id="Path_21450" data-name="Path 21450" d="M346.342,489.621c1.979,2.066,8.949,3.1,7.91,5.368-.931,2.032-5.433,3.921-9.442-3.766Z" transform="translate(-344.81 -489.621)" fill="#ffd9a4"/>
          <path id="Path_21451" data-name="Path 21451" d="M349.177,496.258c1.415-3.692,5.908-1.953,7.2-1.078,1.415.963,1.109,4.062-.01,4.841S348.639,497.67,349.177,496.258Z" transform="translate(-346.376 -491.201)" fill="#ffd9a4"/>
          <path id="Path_21452" data-name="Path 21452" d="M353.374,498.729c1.569,1.724,2.532,4.451,1.738,4.857-.895.46-1.282-2.039-3.067-3.244-1.93-1.31-3.074-2.234-2.609-3S351.805,497,353.374,498.729Z" transform="translate(-346.443 -492.274)" fill="#ffd9a4"/>
          <path id="Path_21453" data-name="Path 21453" d="M359.3,502.827c1.646,1.132,2.245,2.1,1.9,2.5s-1.249-.3-2.894-1.428-4.018-2.155-3.668-2.558S357.654,501.7,359.3,502.827Z" transform="translate(-348.345 -493.814)" fill="#ffd9a4"/>
          <path id="Path_21454" data-name="Path 21454" d="M361.666,500.021c1.877.793,3.147,2.311,2.891,2.767s-1.806-.682-3.683-1.475-3.05-1.408-2.791-1.863S359.791,499.229,361.666,500.021Z" transform="translate(-349.59 -493.086)" fill="#ffd9a4"/>
          <path id="Path_21455" data-name="Path 21455" d="M360.622,496.058c1.841.868,2.673,1.769,2.4,2.216s-1.375-.352-3.215-1.219-3.119-1.5-2.849-1.95S358.779,495.191,360.622,496.058Z" transform="translate(-349.185 -491.542)" fill="#ffd9a4"/>
        </g>
        <path id="Path_21456" data-name="Path 21456" d="M325.485,401.223c7.713,1.606-6.743,36.461-7.784,37.454,0,0-3.722,1.033-3.988-.633C313.025,433.74,322.039,400.5,325.485,401.223Z" transform="translate(-313.438 -401.211)" fill="#f46973"/>
        <path id="Path_21457" data-name="Path 21457" d="M337.119,478.695c-3.733,4.324-23.448-20.595-23.816-21.756,0,0,.2-4.207,2.851-3.241C319.63,454.967,338.788,476.761,337.119,478.695Z" transform="translate(-313.303 -420.11)" fill="#f46973"/>
        <path id="Path_21458" data-name="Path 21458" d="M349.43,491.182l.732-1.589-3.152-5.846s-1.844,2.479-1.894,3.241S349.43,491.182,349.43,491.182Z" transform="translate(-324.789 -431.012)" fill="#fffdfd"/>
        <path id="Path_21459" data-name="Path 21459" d="M347.548,493.626l-1.3,1.141-6.4-1.418s1.843-2.458,2.551-2.716S347.548,493.626,347.548,493.626Z" transform="translate(-322.888 -433.493)" fill="#fffdfd"/>
      </g>
      <g id="Group_14577" data-name="Group 14577" transform="translate(17.534 116.719)">
        <path id="Path_21460" data-name="Path 21460" d="M323.659,502.461c-6.338,1.252-7.141,13.494-4.455,15.836,2.7,2.358,49.714-4.327,53.562,1.759,2.532,4-13.213,26.469-13.182,65.095.734.67,1.316,1.469,1.35.322.783-26.641,20.32-66.683,18.881-68.292C373.135,509.694,346.124,498.022,323.659,502.461Z" transform="translate(-301.969 -498.292)" fill="#f7c371"/>
        <path id="Path_21461" data-name="Path 21461" d="M303.391,502.358c-6.308.962-2.725,13.908.965,16.5s48.87-3.119,54.635,3.231c3.756,4.138-5.448,27.732,6.677,65.381.909.641,1.834.589,1.516-.505-7.477-25.754-1.723-64.995-3.631-66.682C354.606,512.37,325.394,499,303.391,502.358Z" transform="translate(-295.538 -498.417)" fill="#ffd8a3"/>
        <path id="Path_21462" data-name="Path 21462" d="M412.462,636.4l-10.011-.79s.891-2.81,2.871-2.51S412.462,636.4,412.462,636.4Z" transform="translate(-332.551 -545.808)" fill="#7b87ab"/>
        <path id="Path_21463" data-name="Path 21463" d="M389.673,633.255l-10.01-.79s.891-2.811,2.869-2.512S389.673,633.255,389.673,633.255Z" transform="translate(-324.323 -544.67)" fill="#7b87ab"/>
        <path id="Path_21464" data-name="Path 21464" d="M303.089,517.733c-8.176-2.682-6.9-9.62-6.209-16.915l19.866-2.036.211,6.356S307.471,519.172,303.089,517.733Z" transform="translate(-294.246 -497.317)" fill="#ffcc9b"/>
        <path id="Path_21465" data-name="Path 21465" d="M355.324,526.232s17.159-9.5,17.6-11.37-21.278-20.39-55.362-18.192a159.831,159.831,0,0,0-23.819,3.168s-5.294,22.094,13.338,20.979S343.9,514.661,355.324,526.232Z" transform="translate(-293.049 -496.489)" fill="#fff3b9"/>
      </g>
      <g id="Group_14578" data-name="Group 14578" transform="translate(0 2.621)">
        <path id="Path_21466" data-name="Path 21466" d="M313.237,376.982c5.848-5.985-3.689-7.011-3.4-12.1s1.441-3.519,2.064-10.1S310.7,345.815,310.474,342s2.152-10.144-.163-14.913-3.6-3.1-5.61-6.891-3.712.451-6.846,2.241-7.015-7.3-12.5-3.649-4.77,10.735-6.338,14.757-7.068,5.777-7.744,12.917,3.239,5.427,1.585,10.389-6.57,4.686-7.247,11.828c0,0-.48,7.159,7.477,6.585s5.573,3.751,14.154.773,5.876,4.727,11.893,1.7S308.013,382.327,313.237,376.982Z" transform="translate(-265.606 -317.914)" fill="#2d356b"/>
      </g>
      <g id="Group_14579" data-name="Group 14579" transform="translate(17.495 26.146)">
        <path id="Path_21467" data-name="Path 21467" d="M312,354.733l7.192,5.278.175,16.389-5.9-2.627Z" transform="translate(-299.851 -354.733)" fill="#f6cda2"/>
        <path id="Path_21468" data-name="Path 21468" d="M324.008,455.579c-16.3,8.229-21.97,4.287-31.02,3.232.739-12.9,8.683-21.2,9.453-30.193,1.431-16.677-11.342-37.31.942-44.008,13.044-7.112,25.172,30.961,25.172,30.961C315.584,421.682,320.162,435.235,324.008,455.579Z" transform="translate(-292.988 -365.201)" fill="#fc8c99"/>
        <path id="Path_21469" data-name="Path 21469" d="M310.774,382.8l2.207-.1,9.122,9.915-3.075,2.239S312.946,387.683,310.774,382.8Z" transform="translate(-299.41 -364.832)" fill="#fff"/>
        <path id="Path_21470" data-name="Path 21470" d="M327.371,395.769l.144-.091c-2.211-5.34-7.286-13.639-12.774-13.526C319.384,386.938,327.371,395.769,327.371,395.769Z" transform="translate(-300.843 -364.633)" fill="#f6cda2"/>
      </g>
      <g id="Group_14582" data-name="Group 14582" transform="translate(44.195 43.074)">
        <path id="Path_21471" data-name="Path 21471" d="M353.519,407.112c-.431-.654-.6-1.318-.891-1.126a1.427,1.427,0,0,0-.027,1.705,1.454,1.454,0,0,0,1.588.657C354.478,408.157,353.949,407.764,353.519,407.112Z" transform="translate(-341.118 -390.154)" fill="#f8c471"/>
        <g id="Group_14580" data-name="Group 14580" transform="translate(10.246)">
          <path id="Path_21472" data-name="Path 21472" d="M353.986,405.571a3.522,3.522,0,0,0-.07.749c-2.829-1.084-2.514,1.477-.1,2.374a3.654,3.654,0,0,0,.957.221,4.506,4.506,0,0,0,1.109,1.043,5.538,5.538,0,0,1-2.068-.369C349.774,408.092,349.792,404.119,353.986,405.571Z" transform="translate(-350.812 -389.903)" fill="#cfd0d8"/>
          <path id="Path_21473" data-name="Path 21473" d="M353.986,405.57c-.013.079-.024.141-.034.2-1.032-.157-2.058-.393-2.487.368a1.866,1.866,0,0,0,.211,2.117C350.005,406.55,350.756,404.452,353.986,405.57Z" transform="translate(-350.813 -389.902)" fill="#cfd0d8"/>
          <rect id="Rectangle_5224" data-name="Rectangle 5224" width="1.551" height="5.285" transform="matrix(0.072, -0.997, 0.997, 0.072, 5.168, 21.937)" fill="#cfd0d8"/>
          <path id="Path_21474" data-name="Path 21474" d="M361.1,394.552c2.223-.321,5.773-1.029,2.553-3.67s-2.82-7.8,2.468-9.656c-2.9.657-8.587,2.3-7.557,7.164.463,2.192,5.5,1.587,5.6,4.422C364.192,393.688,361.1,394.552,361.1,394.552Z" transform="translate(-353.567 -381.226)" fill="#ffd9a4" opacity="0.4"/>
          <path id="Path_21475" data-name="Path 21475" d="M366.5,405.11c-.19,2.636-2.133,6.451-5.913,6.137-5.38-.447-5.63-4.956-5.6-6.969A67.384,67.384,0,0,1,366.5,405.11Z" transform="translate(-352.317 -389.548)" fill="#cfd0d8"/>
          <path id="Path_21476" data-name="Path 21476" d="M362.566,411.578c3.767.312,5.708-3.477,5.91-6.111.176.027.344.047.523.074-.19,2.636-2.133,6.451-5.913,6.137a8.094,8.094,0,0,1-1.174-.181C362.122,411.531,362.338,411.56,362.566,411.578Z" transform="translate(-354.82 -389.979)" fill="#cfd0d8"/>
          <path id="Path_21477" data-name="Path 21477" d="M364.444,405.521c-.158,2.194-1.455,5.4-3.87,5.191-3.437-.3-3.532-4.048-3.485-5.723A33.086,33.086,0,0,1,364.444,405.521Z" transform="translate(-353.076 -389.797)" fill="#cfd0d8"/>
          <path id="Path_21478" data-name="Path 21478" d="M355.468,404.807c.022-.3,2.459-.371,5.443-.156s5.387.635,5.365.937-2.458.369-5.443.154S355.446,405.106,355.468,404.807Z" transform="translate(-352.493 -389.639)" fill="#fff"/>
          <path id="Path_21479" data-name="Path 21479" d="M356.023,404.809c.013-.175,2.285-.153,5.078.049s5.045.507,5.034.682-2.286.149-5.078-.052S356.011,404.982,356.023,404.809Z" transform="translate(-352.693 -389.698)" fill="#9999a5"/>
        </g>
        <path id="Path_21480" data-name="Path 21480" d="M348.971,414.152c-.721-.585-1.261-1.194-1.047-1.579s.971-.222,1.692.364,1.132,1.372.918,1.756S349.691,414.739,348.971,414.152Z" transform="translate(-339.506 -392.469)" fill="#f8c471"/>
        <path id="Path_21481" data-name="Path 21481" d="M350.611,410.821c-1.039-.243-1.839-.721-1.937-.3s.556,1.367,1.6,1.613,2.068-.3,2.168-.725S351.652,411.066,350.611,410.821Z" transform="translate(-339.79 -391.743)" fill="#f8c471"/>
        <g id="Group_14581" data-name="Group 14581" transform="translate(0 16.186)">
          <path id="Path_21482" data-name="Path 21482" d="M335.567,415.592c2.3-1.124,8.479.164,8.307-2.064-.151-1.994-3.353-4.974-9.1.245Z" transform="translate(-334.776 -408.109)" fill="#ffd9a4"/>
          <path id="Path_21483" data-name="Path 21483" d="M340.133,411.419c.047,3.54,4.36,3.469,5.715,3.133,1.486-.372,2.185-3.07,1.487-4.07S340.116,410.065,340.133,411.419Z" transform="translate(-336.71 -407.793)" fill="#ffd9a4"/>
          <path id="Path_21484" data-name="Path 21484" d="M349.067,410.335c1.733-.442,2.537-1.07,2.365-1.518s-1.141-.133-2.872.307-4.043.567-3.873,1.013S347.334,410.77,349.067,410.335Z" transform="translate(-338.351 -407.295)" fill="#ffd9a4"/>
          <path id="Path_21485" data-name="Path 21485" d="M348.41,413.44c1.822-.088,2.633-.964,2.558-1.427s-1.728.013-3.551.1-3,.24-2.922.7S346.589,413.525,348.41,413.44Z" transform="translate(-338.284 -408.456)" fill="#ffd9a4"/>
          <path id="Path_21486" data-name="Path 21486" d="M346.08,416.745c1.818-.107,2.811-.578,2.737-1.04s-1.261-.166-3.079-.059-3.092.2-3.016.668S344.258,416.85,346.08,416.745Z" transform="translate(-337.644 -409.77)" fill="#ffd9a4"/>
          <path id="Path_21487" data-name="Path 21487" d="M343.471,409.679c1.37-1.57,1.123-2.852.371-3.119-.259-.089-4.671,3.154-4.064,4.119C340.206,411.36,342.1,411.256,343.471,409.679Z" transform="translate(-336.561 -406.558)" fill="#ffd9a4"/>
        </g>
        <path id="Path_21488" data-name="Path 21488" d="M348.03,404.822c.671-.535.942-1.314,1.475-.883.424.344.019,1.235-.665,1.758-1.259.96-3.624,2.749-3.342.187C345.549,405.422,347.314,405.4,348.03,404.822Z" transform="translate(-338.639 -389.382)" fill="#f8c471"/>
      </g>
      <g id="Group_14583" data-name="Group 14583" transform="translate(22.119 47.974)">
        <path id="Path_21489" data-name="Path 21489" d="M323.823,418.138c4.6,4.6-15.862,25.667-17.229,26,0,0-4.476-2.122-3.645-3.557C305.1,436.874,321.766,416.085,323.823,418.138Z" transform="translate(-301.171 -399.402)" fill="#f46973"/>
        <path id="Path_21490" data-name="Path 21490" d="M305.491,389.087c-7.546-3.464-5.407,41.023-3.193,42.083,0,0,4.37-.951,5.349-2.827C310.6,422.675,308.861,390.632,305.491,389.087Z" transform="translate(-300.224 -388.895)" fill="#f46973"/>
        <path id="Path_21491" data-name="Path 21491" d="M333.595,415.314l-1.714-.806-6.515,3.8s2.653,2.08,3.487,2.116S333.595,415.314,333.595,415.314Z" transform="translate(-309.302 -398.143)" fill="#fff"/>
        <path id="Path_21492" data-name="Path 21492" d="M336.109,415.61l1.225,1.5-1.8,7.566s-2.669-2.11-2.933-2.933S336.109,415.61,336.109,415.61Z" transform="translate(-311.909 -398.541)" fill="#fff"/>
      </g>
      <g id="Group_14585" data-name="Group 14585" transform="translate(16.907)">
        <g id="Group_14584" data-name="Group 14584">
          <path id="Path_21493" data-name="Path 21493" d="M311.18,347.011c-3.919-1.075-11.811-2.331-15.613-8.249-4.943-7.694-3.687-12.453-2.04-18.243,3.141-11.038,21.968-5.87,20.792-2.618C312.756,322.221,325.383,350.91,311.18,347.011Z" transform="translate(-292.067 -313.811)" fill="#2d356b"/>
          <path id="Path_21494" data-name="Path 21494" d="M324.889,353.131c1.429,0,3.985-7.384,4.747-13.047.252-1.867-1.759-2.087-1.633-8.457.074-3.74-1.652-8.916-7.914-12.63-5.912-3.506-6.351,8.1-6.858,10.779-1.443,7.637-3.393,12.433-1.434,16.129C315.622,353.122,323.346,352.763,324.889,353.131Z" transform="translate(-298.892 -315.447)" fill="#ffd8a3"/>
          <path id="Path_21495" data-name="Path 21495" d="M332.337,357.066a.329.329,0,0,1,.3-.357.347.347,0,0,1,.286.38.33.33,0,0,1-.3.357A.345.345,0,0,1,332.337,357.066Z" transform="translate(-306.607 -329.3)" fill="#ffab00"/>
          <path id="Path_21496" data-name="Path 21496" d="M331.048,341.56c.034-1.005.622-1.79,1.311-1.756s1.223.878,1.19,1.882-.622,1.79-1.312,1.756S331.014,342.565,331.048,341.56Z" transform="translate(-306.141 -323.196)" fill="#2d356b"/>
          <path id="Path_21497" data-name="Path 21497" d="M328.862,341.7c.967-1.39,2.346-2.775,4.975-1.856A9.611,9.611,0,0,0,328.862,341.7Z" transform="translate(-305.352 -323.102)" fill="#2d356b"/>
          <path id="Path_21498" data-name="Path 21498" d="M335.281,363.551c.043-.233.76.592,1.1.622.962.082.688,1.309-.272,1.128C335.734,365.23,335.237,363.8,335.281,363.551Z" transform="translate(-307.669 -331.755)" fill="#f36973"/>
          <path id="Path_21499" data-name="Path 21499" d="M333.991,357.277c-.651-.259,3.747-1.526,2.951-.035C336.65,357.534,334.325,357.409,333.991,357.277Z" transform="translate(-307.18 -329.235)" fill="#f36973"/>
          <path id="Path_21500" data-name="Path 21500" d="M332.74,332.314A5.857,5.857,0,0,0,325.68,336C327.582,333.391,329.057,332.418,332.74,332.314Z" transform="translate(-304.203 -320.431)" fill="#2d356b"/>
          <path id="Path_21501" data-name="Path 21501" d="M339.7,349.554l-2.211.677-.08-5.648,3.3,4.021Z" transform="translate(-308.44 -324.922)" fill="#ffd8a3"/>
          <path id="Path_21502" data-name="Path 21502" d="M338.813,355.49l1.719-3.5-1.66-.059Z" transform="translate(-308.945 -327.576)" fill="#ffd8a3"/>
          <path id="Path_21503" data-name="Path 21503" d="M335.685,362.228a41.768,41.768,0,0,0,1.091-4.9h-3.993S333.575,361.553,335.685,362.228Z" transform="translate(-306.768 -329.522)" fill="#ffab00"/>
          <path id="Path_21504" data-name="Path 21504" d="M334.226,359.672H336.5q.2-.924.365-1.928H333.6Z" transform="translate(-307.064 -329.674)" fill="#fff"/>
          <path id="Path_21505" data-name="Path 21505" d="M307.575,346.78c.09-1.742.68-3.026-.641-3.092s-2.47,1.294-2.56,3.039.912,3.209,2.236,3.275S307.487,348.525,307.575,346.78Z" transform="translate(-296.509 -324.598)" fill="#f7c371"/>
        </g>
        <path id="Path_21506" data-name="Path 21506" d="M322.864,319.564c-4.195,6.339-11.545,15.606-9.776,24.637-3.718-9.615-2.059-22.442,4.32-27.723C318.079,317.444,323.79,317.152,322.864,319.564Z" transform="translate(-298.95 -314.774)" fill="#2d356b"/>
      </g>
    </g>
    <g id="Group_14587" data-name="Group 14587" transform="translate(327.446 349.722)">
      <path id="Path_21507" data-name="Path 21507" d="M480.561,491.965h6.932c-4.958,1.5-3.525,56.48,0,95.619h-6.932C483.4,550.606,483.955,493.669,480.561,491.965Z" transform="translate(-414.988 -491.099)" fill="#7b88ac"/>
      <path id="Path_21508" data-name="Path 21508" d="M477.133,633.272h5.207l8.455,7.308H468.677Z" transform="translate(-410.697 -542.12)" fill="#7b88ac"/>
      <path id="Path_21509" data-name="Path 21509" d="M388.648,493.618H520.161l-8.462,2.6H397.111Z" transform="translate(-381.801 -491.696)" fill="#7b88ac"/>
      <rect id="Rectangle_5225" data-name="Rectangle 5225" width="145.591" height="2.601" fill="#7b88ac"/>
    </g>
    <g id="Group_14590" data-name="Group 14590" transform="translate(298.043 189.001)">
      <g id="Group_14589" data-name="Group 14589" transform="translate(-13 -1)">
        <g id="Group_14588" data-name="Group 14588">
          <rect id="Rectangle_5226" data-name="Rectangle 5226" width="353.635" height="60.269" rx="11.604" transform="translate(-93 -17)" fill="#fff" stroke="#231f20" stroke-miterlimit="10" stroke-width="0.25"/>
          <path id="Path_21510" data-name="Path 21510" d="M357.043,311.484l-7.479,15.127,18.883-15.127Z" transform="translate(-334.585 -268.212)" fill="#fff" stroke="#231f20" stroke-miterlimit="10" stroke-width="0.25"/>
        </g>
      </g>
    </g>
    <g id="Group_14593" data-name="Group 14593" transform="translate(458.493 122.468)">
      <g id="Group_14592" data-name="Group 14592" transform="translate(13)">
        <g id="Group_14591" data-name="Group 14591">
          <rect id="Rectangle_5227" data-name="Rectangle 5227" width="329.73" height="60.269" rx="11.604" transform="translate(251.73 43.269) rotate(-180)" fill="#fff" stroke="#231f20" stroke-miterlimit="10" stroke-width="0.25"/>
          <path id="Path_21511" data-name="Path 21511" d="M708.139,205.789l-49.452,61.326,35.362-61.326Z" transform="translate(-547.557 -162.519)" fill="#fff" stroke="#231f20" stroke-miterlimit="10" stroke-width="0.25"/>
        </g>
      </g>
    </g>
    <g id="Group_14594" data-name="Group 14594" transform="translate(209.705 312.857)">
      <rect id="Rectangle_5228" data-name="Rectangle 5228" width="54.789" height="30.535" rx="6.672" transform="translate(27.395 -5.5)" fill="#fff" stroke="#231f20" stroke-miterlimit="10" stroke-width="0.25"/>
      <text id="Akiko" transform="translate(41.789 13.267)" fill="#2d356b" font-size="10" font-family="TrebuchetMS-Bold, Trebuchet MS" font-weight="700"><tspan x="0" y="0">Akiko</tspan></text>
    </g>
    <g id="Group_14595" data-name="Group 14595" transform="translate(493.975 307.887)">
      <rect id="Rectangle_5229" data-name="Rectangle 5229" width="47.212" height="30.535" rx="6.672" transform="translate(0 0)" fill="#fff" stroke="#231f20" stroke-miterlimit="10" stroke-width="0.25"/>
      <text id="Dan" transform="translate(14.606 18.767)" fill="#2d356b" font-size="10" font-family="TrebuchetMS-Bold, Trebuchet MS" font-weight="700"><tspan x="0" y="0">Dan</tspan></text>
    </g>
  </g>
</svg>
