<svg xmlns="http://www.w3.org/2000/svg" width="284.115" height="176.349" viewBox="0 0 284.115 176.349">
  <g id="Group_13474" data-name="Group 13474" transform="translate(-333.143 -2428.938)">
    <g id="Group_13346" data-name="Group 13346" transform="translate(333.143 2448.418)">
      <g id="Group_13344" data-name="Group 13344">
        <g id="Group_13340" data-name="Group 13340" transform="translate(0 46.598)">
          <path id="Path_19252" data-name="Path 19252" d="M533.742,1143.463c-2.058-2.173-14.724-2.483-17.462,0l-.07,2.794h17.462Z" transform="translate(-459.467 -1137.048)" fill="#fff"/>
          <path id="Path_19253" data-name="Path 19253" d="M429.856,1247.777s-16.159-63.433-19.222-86.086c0,0,29.968-22.782,69.045-3.516,0,0-8.391,77.534-10.357,88.741-7.909-3.076-13.474-7.6-19.168-16.629C442.46,1240.943,436.514,1246.947,429.856,1247.777Z" transform="translate(-383.574 -1143.318)" fill="#9999a5"/>
          <path id="Path_19254" data-name="Path 19254" d="M485.787,1204.859s-32.423-22.414-19.461-52.041c0,0,18.929-8.334,38.367-.123C510.052,1178.142,498.049,1194.532,485.787,1204.859Z" transform="translate(-421.409 -1142.341)" fill="#cfd0d8"/>
          <path id="Path_19255" data-name="Path 19255" d="M511.294,1211.715s-18.67-22.64-10.457-52.564c0,0,14.949-1.118,23.431-.125C527.287,1184.728,518.886,1201.284,511.294,1211.715Z" transform="translate(-446.916 -1149.196)" fill="#fff"/>
          <path id="Path_19256" data-name="Path 19256" d="M532.312,1125.115H518.94l-2,12.251c7.278,3.793,11.531,3.382,17.2-.828Z" transform="translate(-459.992 -1125.115)" fill="#f7c371"/>
          <path id="Path_19257" data-name="Path 19257" d="M533.793,1176.645l3.254,2.173,3.794-2.483-2.173-3.166-2.534-.063Z" transform="translate(-472.108 -1159.614)" fill="#495bd9"/>
          <path id="Path_19258" data-name="Path 19258" d="M502.394,1151.321l4.072-3.314c1.2,3.425,3.312,5.4,8.35,6.87,0,0-4.046,6.142-5.9,5.981S502.394,1151.321,502.394,1151.321Z" transform="translate(-449.536 -1141.571)" fill="#ebebeb"/>
          <path id="Path_19259" data-name="Path 19259" d="M559.368,1151.222l-4.154-3.292c-1.56,3.351-3.779,5.375-9.216,6.946,0,0,3.919,6.153,5.891,5.981S559.368,1151.222,559.368,1151.222Z" transform="translate(-480.881 -1141.516)" fill="#ebebeb"/>
          <path id="Path_19260" data-name="Path 19260" d="M536.782,1189.963l-1.32.246-2.986,39.939,2.994,4.1,3.108-4.1Z" transform="translate(-471.16 -1171.731)" fill="#495bd9"/>
          <path id="Path_19261" data-name="Path 19261" d="M546.426,1367.472a1.549,1.549,0,1,0-1.549,1.549A1.55,1.55,0,0,0,546.426,1367.472Z" transform="translate(-478.962 -1298.22)" fill="#cfd0d8"/>
          <g id="Group_13338" data-name="Group 13338" transform="translate(79.962 14.587)">
            <path id="Path_19262" data-name="Path 19262" d="M608.492,1469.673c-.43-.58.532-1.457,1.757-2.282s2.245-1.286,2.679-.707-.211,1.717-1.436,2.542S608.924,1470.252,608.492,1469.673Z" transform="translate(-605.692 -1385.054)" fill="#9999a5"/>
            <path id="Path_19263" data-name="Path 19263" d="M614.6,1473.7c-.431-.58.532-1.458,1.758-2.282s2.244-1.289,2.678-.709-.211,1.716-1.437,2.543S615.034,1474.276,614.6,1473.7Z" transform="translate(-610.084 -1387.947)" fill="#9999a5"/>
            <path id="Path_19264" data-name="Path 19264" d="M598.95,1464.172c.521-.524,2.066.588,3.668,2.008s2.657,2.609,2.137,3.135-2.24-.2-3.844-1.626S598.43,1464.695,598.95,1464.172Z" transform="translate(-598.801 -1383.339)" fill="#9999a5"/>
            <path id="Path_19265" data-name="Path 19265" d="M609.2,1434.821c-2.546,1.882-11.009,7.188-9.219,10.079,1.6,2.586,7.213,3.416,11.587-8.239Z" transform="translate(-599.47 -1362.335)" fill="#9999a5"/>
            <path id="Path_19266" data-name="Path 19266" d="M623.809,1425.166l2.469-5.442,7,5.626-4.852,3.29Z" transform="translate(-616.778 -1351.482)" fill="#9999a5"/>
            <path id="Path_19267" data-name="Path 19267" d="M670.361,1216.524c3.767-1.8-11.127-19.7-28.3-39.526,0,0-6.766,13.421-4.922,21.842C637.135,1198.84,655.158,1223.788,670.361,1216.524Z" transform="translate(-626.129 -1176.998)" fill="#9999a5"/>
            <path id="Path_19268" data-name="Path 19268" d="M665.7,1302.121s-8.19,12.846-28.851,36.737c0,0-4.289-1.23-7.2-6.654,0,0,13-23.187,22-35.137C651.658,1297.067,664.222,1296.119,665.7,1302.121Z" transform="translate(-620.98 -1263.271)" fill="#9999a5"/>
            <path id="Path_19269" data-name="Path 19269" d="M649.58,1421.122a1.247,1.247,0,1,0-1.773.777A1.384,1.384,0,0,0,649.58,1421.122Z" transform="translate(-633.599 -1351.045)" fill="#9999a5"/>
          </g>
          <g id="Group_13339" data-name="Group 13339" transform="translate(0 18.26)">
            <path id="Path_19270" data-name="Path 19270" d="M460.638,1478.312c.321-.594-.627-1.312-1.8-1.952s-2.131-.959-2.454-.364.369,1.592,1.545,2.231S460.316,1478.905,460.638,1478.312Z" transform="translate(-416.404 -1395.381)" fill="#9999a5"/>
            <path id="Path_19271" data-name="Path 19271" d="M455.637,1482.788c.322-.593-.626-1.312-1.8-1.95s-2.13-.959-2.454-.365.369,1.592,1.546,2.232S455.315,1483.381,455.637,1482.788Z" transform="translate(-412.809 -1398.599)" fill="#9999a5"/>
            <path id="Path_19272" data-name="Path 19272" d="M466.472,1471.072c-.518-.433-1.773.786-3.046,2.3s-2.083,2.755-1.565,3.19,1.968-.443,3.241-1.962S466.989,1471.506,466.472,1471.072Z" transform="translate(-420.285 -1392.004)" fill="#9999a5"/>
            <path id="Path_19273" data-name="Path 19273" d="M440.382,1447.187c2.461,1.485,10.54,5.529,9.256,8.45-1.149,2.614-6.045,4.026-11.165-6.452Z" transform="translate(-403.587 -1374.897)" fill="#9999a5"/>
            <path id="Path_19274" data-name="Path 19274" d="M427.1,1438.6l-4.973-3.181,6.486-6.053,2.533,5.208Z" transform="translate(-391.839 -1362.089)" fill="#9999a5"/>
            <path id="Path_19275" data-name="Path 19275" d="M315.129,1230.148c-4.223-.162,10.228-20.033,26.47-40.086,0,0,6.286,8.906,4.789,19.42C346.388,1209.482,330.759,1230.747,315.129,1230.148Z" transform="translate(-314.386 -1190.062)" fill="#9999a5"/>
            <path id="Path_19276" data-name="Path 19276" d="M315.164,1312.206s7.268,13.953,30.64,35.633c0,0,4.3-1.389,7.045-6.919,0,0-14.151-23.885-22.586-35.794C330.263,1305.127,316.44,1306.153,315.164,1312.206Z" transform="translate(-314.945 -1272.777)" fill="#9999a5"/>
            <path id="Path_19277" data-name="Path 19277" d="M418.659,1428.467a1.247,1.247,0,1,0,.261-1.918A1.384,1.384,0,0,0,418.659,1428.467Z" transform="translate(-389.156 -1359.955)" fill="#9999a5"/>
          </g>
        </g>
        <g id="Group_13343" data-name="Group 13343" transform="translate(49.41)">
          <g id="Group_13342" data-name="Group 13342">
            <path id="Path_19278" data-name="Path 19278" d="M493.107,998.155c-1-4.818-1.475-22.791,1.7-26.689,0,0-8.867-2.8-2.173-8.539,8.486-7.277,23.625-2.292,24.485,5.188,0,0,12.035-3.2,2.084,30.721Z" transform="translate(-490.131 -959.373)" fill="#ebebeb"/>
            <path id="Path_19279" data-name="Path 19279" d="M589.179,1070.914c.408-2.647,1.737-4.021,2.979-3.955s1.926,1.546,1.518,4.193a4.071,4.071,0,0,1-3.765,3.708C588.668,1074.795,588.771,1073.562,589.179,1070.914Z" transform="translate(-561.134 -1036.71)" fill="#f7c371"/>
            <path id="Path_19280" data-name="Path 19280" d="M496.319,1066.4c-.046-2.672-1.233-4.178-2.534-4.247s-2.224,1.326-2.177,4a3.989,3.989,0,0,0,3.387,4.086C496.3,1070.305,496.365,1069.071,496.319,1066.4Z" transform="translate(-491.191 -1033.255)" fill="#f7c371"/>
            <path id="Path_19281" data-name="Path 19281" d="M515.085,1034.661A17.6,17.6,0,0,1,500,1024.444c-.334,8.6-.746,20.3-.746,20.3s20.743,2.166,27.179.75c.415-4.79.99-10.438,1.075-15.052A17.6,17.6,0,0,1,515.085,1034.661Z" transform="translate(-496.687 -1006.15)" fill="#ebebeb"/>
            <path id="Path_19282" data-name="Path 19282" d="M499.626,1041.64c.119,1.281,5.753,7.083,12.5,7.439s12.6-4.349,13.877-6.316-2.081-28.037-4.718-30.346-13.813-1.466-14.815-.377C504.087,1014.626,499.158,1036.6,499.626,1041.64Z" transform="translate(-496.934 -996.449)" fill="#ffd8a3"/>
            <path id="Path_19283" data-name="Path 19283" d="M510.637,1026.352c.994.449,5.441-7.712,6.353-9.068s.848-2.82-.146-3.269-2.538.287-3.451,1.644S509.644,1025.9,510.637,1026.352Z" transform="translate(-504.723 -998.557)" fill="#ffd8a3"/>
            <path id="Path_19284" data-name="Path 19284" d="M572.692,1027.519c1.082-.235-1.285-8.882-1.827-10.388s-1.857-2.536-2.939-2.3-1.52,1.647-.979,3.153S571.611,1027.754,572.692,1027.519Z" transform="translate(-545.185 -999.215)" fill="#ffd8a3"/>
            <path id="Path_19285" data-name="Path 19285" d="M520.584,1047.362a.983.983,0,0,0-.448-.713c-.677-.441-5.966,1.173-5.837,1.987l.082.51c.093.587,1.649-.159,3.245-.441,1.527-.271,3.1-.053,3.039-.608Z" transform="translate(-507.503 -1022.058)" fill="#2d356b"/>
            <path id="Path_19286" data-name="Path 19286" d="M558.342,1049.541a.958.958,0,0,1,.448-.714c.69-.442,6.179,1.169,6.062,1.983l-.074.51c-.085.587-1.7-.159-3.357-.44-1.581-.269-3.2-.05-3.147-.606Z" transform="translate(-539.114 -1023.623)" fill="#2d356b"/>
            <path id="Path_19287" data-name="Path 19287" d="M540.291,1069.478a4.879,4.879,0,0,0,2.11,1.219,2.91,2.91,0,0,0,2.233-1.1c.136-.729-1.014-8.99-1.572-9.1S540.307,1068.41,540.291,1069.478Z" transform="translate(-526.189 -1032.066)" fill="#ffab00"/>
            <path id="Path_19288" data-name="Path 19288" d="M543.836,1068.063c-.007.186.873.53,1.189.547.54.029,1.206-.21,1.247-.544.1-.8,1.01-9.911-.626-9.912C543.856,1058.153,543.875,1066.893,543.836,1068.063Z" transform="translate(-528.737 -1030.382)" fill="#ffd8a3"/>
            <path id="Path_19289" data-name="Path 19289" d="M526.85,1062.516c.032-.7-.343-1.291-.837-1.317s-.922.521-.955,1.222.342,1.291.838,1.317S526.817,1063.217,526.85,1062.516Z" transform="translate(-515.237 -1032.571)" fill="#2d356b"/>
            <path id="Path_19290" data-name="Path 19290" d="M567.41,1064.662c.032-.7-.343-1.291-.838-1.317s-.922.521-.955,1.222.343,1.291.838,1.317S567.377,1065.363,567.41,1064.662Z" transform="translate(-544.393 -1034.113)" fill="#2d356b"/>
            <g id="Group_13341" data-name="Group 13341" transform="translate(10.536 40.057)">
              <path id="Path_19291" data-name="Path 19291" d="M529.661,1102.892s.572,4.572,1.36,4.843a22.806,22.806,0,0,0,6.724.47c.9-.138,2.105-5.068,2.105-5.068Z" transform="translate(-529.083 -1102.6)" fill="#ffab00"/>
              <path id="Path_19292" data-name="Path 19292" d="M539.895,1103.918l-9.351-.266.975,4.375c1.033.356,6.289.785,7.046.373Z" transform="translate(-529.718 -1103.146)" fill="#fff"/>
              <path id="Path_19293" data-name="Path 19293" d="M565.707,1102.555c-.061-.159-.325-.214-.589-.124s-.429.292-.368.451.325.214.589.123S565.767,1102.713,565.707,1102.555Z" transform="translate(-554.298 -1102.237)" fill="#ffab00"/>
              <path id="Path_19294" data-name="Path 19294" d="M528.587,1102.327c.054-.16-.12-.357-.388-.439s-.529-.019-.583.141.12.358.388.439S528.534,1102.488,528.587,1102.327Z" transform="translate(-527.607 -1101.853)" fill="#ffab00"/>
            </g>
            <path id="Path_19295" data-name="Path 19295" d="M527.146,1003.936c-.175-1.685-4.888-2.579-10.528-1.995s-10.07,2.422-9.9,4.107,4.888,2.578,10.528,1.995S527.32,1005.62,527.146,1003.936Z" transform="translate(-502.054 -989.845)" fill="#ebebeb"/>
          </g>
        </g>
      </g>
      <g id="Group_13345" data-name="Group 13345" transform="translate(21.969 128.43)">
        <rect id="Rectangle_4601" data-name="Rectangle 4601" width="80.845" height="32.314" rx="6.672" transform="translate(2 -4)" fill="#fff" stroke="#231f20" stroke-miterlimit="10" stroke-width="0.25"/>
        <text id="President" transform="translate(19.558 15.59)" fill="#2d356b" font-size="10" font-family="TrebuchetMS-Bold, Trebuchet MS" font-weight="700"><tspan x="0" y="0">President</tspan></text>
      </g>
    </g>
    <g id="Group_13347" data-name="Group 13347" transform="translate(427.247 2428.453)">
      <path id="Path_19296" data-name="Path 19296" d="M863.888,1018.754a28.3,28.3,0,0,1-.374,9.845c-3.6,16.531-21.351,26.032-39.657,21.223a37.622,37.622,0,0,1-22.7-16.738c-9.532,13.339-25.566,18.778-36.269,12.128-10.077-6.261-11.916-21.053-4.789-34.295-16.149-4.5-26.991-18.013-24.292-30.423,1.922-8.837,10.2-14.761,20.673-15.99-4.772-4.89-7.148-10.442-6.032-15.575,2.3-10.583,18.58-15.376,36.358-10.706q1.946.511,3.8,1.143c5.469-11.3,20.519-16.976,36.213-12.853,17.777,4.67,29.648,20.141,26.513,34.554q-.153.7-.35,1.385a64.042,64.042,0,0,1,8.432,1.626c22.342,5.87,37.891,22.41,34.73,36.943C893.663,1012.454,880.337,1019.237,863.888,1018.754Z" transform="translate(-707.088 -924.138)" fill="#fff" stroke="#cfd0d8" stroke-miterlimit="10" stroke-width="1"/>
      <circle id="Ellipse_126" data-name="Ellipse 126" cx="10.367" cy="10.367" r="10.367" transform="translate(19.164 8.447)" fill="#fff" stroke="#cfd0d8" stroke-miterlimit="10" stroke-width="1"/>
      <circle id="Ellipse_127" data-name="Ellipse 127" cx="6.143" cy="6.143" r="6.143" transform="translate(6.877 3.528)" fill="#fff" stroke="#cfd0d8" stroke-miterlimit="10" stroke-width="1"/>
      <circle id="Ellipse_128" data-name="Ellipse 128" cx="5.255" cy="5.255" r="5.255" transform="translate(-9 9.48)" fill="#fff" stroke="#cfd0d8" stroke-miterlimit="10" stroke-width="1"/>
    </g>
    <text id="approve" transform="matrix(0.958, -0.288, 0.288, 0.958, 489.865, 2488.09)" fill="#2d356b" font-size="20" font-family="TrebuchetMS-Bold, Trebuchet MS" font-weight="700"><tspan x="0" y="0">approve</tspan></text>
    <text id="budgets" transform="matrix(0.974, 0.226, -0.226, 0.974, 492.82, 2514.046)" fill="#2d356b" font-size="20" font-family="TrebuchetMS-Bold, Trebuchet MS" font-weight="700"><tspan x="0" y="0">budgets</tspan></text>
  </g>
</svg>
