<svg xmlns="http://www.w3.org/2000/svg" width="546.185" height="368.791" viewBox="0 0 546.185 368.791">
  <g id="Group_11992" data-name="Group 11992" transform="translate(-1192.402 -5129.789)">
    <g id="Group_11943" data-name="Group 11943" transform="translate(1194.587 5129.789)">
      <g id="Group_11894" data-name="Group 11894" transform="translate(0 0)">
        <g id="Group_11893" data-name="Group 11893">
          <g id="Group_11892" data-name="Group 11892">
            <g id="Group_11891" data-name="Group 11891">
              <g id="Group_11890" data-name="Group 11890">
                <g id="Group_11887" data-name="Group 11887" transform="translate(0.602)">
                  <g id="Group_11883" data-name="Group 11883" transform="translate(0.138)">
                    <path id="Path_16254" data-name="Path 16254" d="M1739.7,5146.158h.644V5133.22H1197.085v270.4H1739.7v-27.161h.005Z" transform="translate(-1197.085 -5132.842)" fill="#fff"/>
                    <rect id="Rectangle_3666" data-name="Rectangle 3666" width="542.521" height="0.756" transform="translate(0 270.395)" fill="#a0bacb"/>
                    <rect id="Rectangle_3667" data-name="Rectangle 3667" width="543.261" height="0.756" fill="#7b88ac"/>
                  </g>
                  <g id="Group_11884" data-name="Group 11884" transform="translate(0 55.25)">
                    <path id="Path_16255" data-name="Path 16255" d="M1298.633,5320.059v-.2H1289.8v.2h-91.307v164.852H1386V5320.059Zm79.607,5.294v36.25h-79.607v-36.25Zm-88.44,42.5v69.256h-83.544v-69.256Zm8.833,69.256v-69.256h79.607v69.256Zm-8.833-111.76v36.25h-83.544v-36.25Zm-83.544,118.015H1289.8v36.25h-83.544Zm92.377,36.25v-36.25h79.607v36.25Z" transform="translate(-1197.938 -5319.483)" fill="#ebebeb"/>
                    <path id="Path_16256" data-name="Path 16256" d="M1385.239,5484.39H1196.62V5318.782h91.307v-.2h9.942v.2h87.37Zm-187.51-.756h186.4V5319.539h-87.37v-.2h-7.724v.2h-91.307Zm179.747-4.537H1296.76v-37.006h80.716Zm-79.607-.756h78.5v-35.494h-78.5Zm-8.833.756h-84.653v-37.006h84.653Zm-83.544-.756h82.435v-35.494h-82.435Zm171.984-41.749H1296.76V5366.58h80.716Zm-79.607-.756h78.5v-68.5h-78.5Zm-8.833.756h-84.653V5366.58h84.653Zm-83.544-.756h82.435v-68.5h-82.435Zm171.984-74.755H1296.76v-37.006h80.716Zm-79.607-.756h78.5v-35.494h-78.5Zm-8.833.756h-84.653v-37.006h84.653Zm-83.544-.756h82.435v-35.494h-82.435Z" transform="translate(-1196.62 -5318.583)" fill="#ebebeb"/>
                  </g>
                  <g id="Group_11885" data-name="Group 11885" transform="translate(206.059 54.275)">
                    <path id="Path_16257" data-name="Path 16257" d="M2128.3,5316.764v-.2h-8.1v.2h-83.749v164.852h171.989V5316.764Zm73.018,5.293v36.25H2128.3v-36.25Zm-81.12,42.505v69.255h-76.628v-69.255Zm8.1,69.255v-69.255h73.018v69.255Zm-8.1-111.76v36.25h-76.628v-36.25Zm-76.628,118.016H2120.2v36.25h-76.628Zm84.731,36.25v-36.25h73.018v36.25Z" transform="translate(-2035.944 -5316.188)" fill="#ebebeb"/>
                    <path id="Path_16258" data-name="Path 16258" d="M2207.741,5481.095H2034.735V5315.487h83.749v-.2h9.119v.2h80.138Zm-171.989-.755h170.972v-164.1h-80.137v-.2H2119.5v.2h-83.749Zm164.869-4.537h-74.034V5438.8h74.034Zm-73.017-.756h72v-35.495h-72Zm-8.1.756h-77.646V5438.8H2119.5Zm-76.628-.756h75.611v-35.495h-75.611Zm157.748-41.75h-74.034v-70.011h74.034Zm-73.017-.756h72v-68.5h-72Zm-8.1.756h-77.646v-70.011H2119.5Zm-76.628-.756h75.611v-68.5h-75.611Zm157.748-74.754h-74.034v-37.006h74.034Zm-73.017-.756h72v-35.494h-72Zm-8.1.756h-77.646v-37.006H2119.5Zm-76.628-.756h75.611v-35.494h-75.611Z" transform="translate(-2034.735 -5315.289)" fill="#ebebeb"/>
                  </g>
                  <g id="Group_11886" data-name="Group 11886" transform="translate(394.653 55.25)">
                    <path id="Path_16259" data-name="Path 16259" d="M2934.419,5479.617H2887.1v-36.25h47.318v-6.254H2887.1v-69.256h47.318V5361.6H2887.1v-36.25h47.318v-5.294H2887.1v-.2h-8.833v.2h-91.307v164.852h147.458Zm-56.151,0h-83.543v-36.25h83.543Zm0-42.5h-83.543v-69.256h83.543Zm0-75.51h-83.543v-36.25h83.543Z" transform="translate(-2786.407 -5319.483)" fill="#ebebeb"/>
                    <path id="Path_16260" data-name="Path 16260" d="M3123.373,5772.812h47.872v-.757h-46.764v-35.493h46.764v-.757h-47.872Z" transform="translate(-3023.233 -5612.298)" fill="#ebebeb"/>
                    <path id="Path_16261" data-name="Path 16261" d="M3123.373,5550.733h47.872v-.756h-46.764v-68.5h46.764v-.756h-47.872Z" transform="translate(-3023.233 -5432.727)" fill="#ebebeb"/>
                    <path id="Path_16262" data-name="Path 16262" d="M3123.373,5374.141h47.872v-.755h-46.764v-35.495h46.764v-.756h-47.872Z" transform="translate(-3023.233 -5331.643)" fill="#ebebeb"/>
                    <path id="Path_16263" data-name="Path 16263" d="M2895.966,5337.135h-84.652v37.006h84.652Zm-1.109,36.25h-82.435v-35.495h82.435Z" transform="translate(-2803.551 -5331.643)" fill="#ebebeb"/>
                    <path id="Path_16264" data-name="Path 16264" d="M2933.1,5483.634H2786.2v-164.1H2877.5v-.2h7.724v.2H2933.1v-.756h-46.763v-.2H2876.4v.2h-91.307V5484.39H2933.1Z" transform="translate(-2785.089 -5318.583)" fill="#ebebeb"/>
                    <path id="Path_16265" data-name="Path 16265" d="M2811.314,5772.812h84.652V5735.8h-84.652Zm1.109-36.25h82.435v35.493h-82.435Z" transform="translate(-2803.551 -5612.298)" fill="#ebebeb"/>
                    <path id="Path_16266" data-name="Path 16266" d="M2895.966,5480.724h-84.652v70.01h84.652Zm-1.109,69.254h-82.435v-68.5h82.435Z" transform="translate(-2803.551 -5432.727)" fill="#ebebeb"/>
                  </g>
                </g>
                <g id="Group_11888" data-name="Group 11888" transform="translate(0 238.22)">
                  <path id="Path_16267" data-name="Path 16267" d="M1737.848,5937.763H1195.236v92.772h-.649v37.477h543.255v-126.3h.006Z" transform="translate(-1194.587 -5937.441)" fill="#f9f9f9"/>
                  <rect id="Rectangle_3668" data-name="Rectangle 3668" width="541.234" height="0.542" transform="translate(2.211 129.825)" fill="#f9f9f9"/>
                  <rect id="Rectangle_3669" data-name="Rectangle 3669" width="542.528" height="0.542" transform="translate(0.739)" fill="#f9f9f9"/>
                </g>
                <g id="Group_11889" data-name="Group 11889" transform="translate(33.094 4.767)">
                  <path id="Path_16268" data-name="Path 16268" d="M2450.49,5228.943v-80.9H2448.4v80.9c-6.515.411-11.639,4.622-11.639,9.764,0,5.416,5.679,9.805,12.684,9.805s12.683-4.39,12.683-9.805C2462.129,5233.564,2457.006,5229.354,2450.49,5228.943Z" transform="translate(-2102.144 -5148.046)" fill="#c3e8e6"/>
                  <path id="Path_16269" data-name="Path 16269" d="M1320.113,5250.528v-80.9h-2.089v80.9c-6.515.412-11.639,4.622-11.639,9.764,0,5.416,5.679,9.807,12.684,9.807s12.684-4.391,12.684-9.807C1331.751,5255.15,1326.628,5250.94,1320.113,5250.528Z" transform="translate(-1306.384 -5163.242)" fill="#c3e8e6"/>
                  <path id="Path_16270" data-name="Path 16270" d="M1718.527,5250.15v-58.813h-1.52v58.813c-4.736.3-8.461,3.361-8.461,7.1,0,3.937,4.128,7.128,9.221,7.128s9.221-3.191,9.221-7.128C1726.989,5253.512,1723.263,5250.451,1718.527,5250.15Z" transform="translate(-1589.497 -5178.522)" fill="#c3e8e6"/>
                  <path id="Path_16271" data-name="Path 16271" d="M2798.549,5250.15v-58.813h-1.519v58.813c-4.737.3-8.462,3.361-8.462,7.1,0,3.937,4.128,7.128,9.221,7.128s9.222-3.191,9.222-7.128C2807.011,5253.512,2803.286,5250.451,2798.549,5250.15Z" transform="translate(-2349.807 -5178.522)" fill="#c3e8e6"/>
                </g>
              </g>
            </g>
          </g>
        </g>
      </g>
      <g id="Group_11931" data-name="Group 11931" transform="translate(46.044 131.521)">
        <g id="Group_11903" data-name="Group 11903" transform="translate(0 20.378)">
          <g id="Group_11895" data-name="Group 11895">
            <rect id="Rectangle_3670" data-name="Rectangle 3670" width="43.394" height="1.597" transform="translate(0.395 0.34)" fill="#ebebeb"/>
            <path id="Path_16272" data-name="Path 16272" d="M1394.314,5647.351h-44.185v-2.275h44.185Zm-43.394-.679h42.6v-.918h-42.6Z" transform="translate(-1350.129 -5645.075)" fill="#ebebeb"/>
          </g>
          <g id="Group_11896" data-name="Group 11896" transform="translate(0 24.091)">
            <rect id="Rectangle_3671" data-name="Rectangle 3671" width="43.394" height="1.597" transform="translate(0.395 0.339)" fill="#ebebeb"/>
            <path id="Path_16273" data-name="Path 16273" d="M1394.314,5728.735h-44.185v-2.276h44.185Zm-43.394-.68h42.6v-.917h-42.6Z" transform="translate(-1350.129 -5726.458)" fill="#ebebeb"/>
          </g>
          <g id="Group_11897" data-name="Group 11897" transform="translate(0 48.182)">
            <rect id="Rectangle_3672" data-name="Rectangle 3672" width="43.394" height="1.597" transform="translate(0.395 0.34)" fill="#ebebeb"/>
            <path id="Path_16274" data-name="Path 16274" d="M1394.314,5810.115h-44.185v-2.276h44.185Zm-43.394-.68h42.6v-.917h-42.6Z" transform="translate(-1350.129 -5807.839)" fill="#ebebeb"/>
          </g>
          <g id="Group_11902" data-name="Group 11902" transform="translate(0 0.533)">
            <g id="Group_11898" data-name="Group 11898" transform="translate(0 72.272)">
              <rect id="Rectangle_3673" data-name="Rectangle 3673" width="43.394" height="1.597" transform="translate(0.395 0.34)" fill="#ebebeb"/>
              <path id="Path_16275" data-name="Path 16275" d="M1394.314,5893.294h-44.185v-2.276h44.185Zm-43.394-.679h42.6v-.919h-42.6Z" transform="translate(-1350.129 -5891.018)" fill="#ebebeb"/>
            </g>
            <g id="Group_11899" data-name="Group 11899" transform="translate(0 95.33)">
              <rect id="Rectangle_3674" data-name="Rectangle 3674" width="43.394" height="1.597" transform="translate(0.395 0.339)" fill="#ebebeb"/>
              <path id="Path_16276" data-name="Path 16276" d="M1394.314,5971.185h-44.185v-2.276h44.185Zm-43.394-.679h42.6v-.918h-42.6Z" transform="translate(-1350.129 -5968.909)" fill="#ebebeb"/>
            </g>
            <g id="Group_11900" data-name="Group 11900">
              <rect id="Rectangle_3675" data-name="Rectangle 3675" width="2.325" height="115.89" transform="translate(0.395 0.339)" fill="#ebebeb"/>
              <path id="Path_16277" data-name="Path 16277" d="M1353.244,5763.444h-3.115V5646.875h3.115Zm-2.324-.679h1.533V5647.554h-1.533Z" transform="translate(-1350.129 -5646.875)" fill="#ebebeb"/>
            </g>
            <g id="Group_11901" data-name="Group 11901" transform="translate(41.07)">
              <rect id="Rectangle_3676" data-name="Rectangle 3676" width="2.325" height="115.89" transform="translate(0.395 0.339)" fill="#ebebeb"/>
              <path id="Path_16278" data-name="Path 16278" d="M1491.982,5763.444h-3.115V5646.875h3.115Zm-2.325-.679h1.534V5647.554h-1.534Z" transform="translate(-1488.867 -5646.875)" fill="#ebebeb"/>
            </g>
          </g>
        </g>
        <g id="Group_11914" data-name="Group 11914" transform="translate(7.778 26.057)">
          <g id="Group_11905" data-name="Group 11905">
            <g id="Group_11904" data-name="Group 11904">
              <rect id="Rectangle_3677" data-name="Rectangle 3677" width="4.546" height="18.412" transform="translate(0.395 0.34)" fill="#ebebeb"/>
              <path id="Path_16279" data-name="Path 16279" d="M1381.741,5683.35h-5.336v-19.091h5.336Zm-4.546-.679h3.755v-17.733H1377.2Z" transform="translate(-1376.405 -5664.259)" fill="#ebebeb"/>
            </g>
            <path id="Path_16280" data-name="Path 16280" d="M1383.354,5676.584a1.516,1.516,0,1,1-1.5-1.286A1.4,1.4,0,0,1,1383.354,5676.584Z" transform="translate(-1379.188 -5672.03)" fill="#ebebeb"/>
          </g>
          <g id="Group_11907" data-name="Group 11907" transform="translate(5.343)">
            <g id="Group_11906" data-name="Group 11906">
              <rect id="Rectangle_3678" data-name="Rectangle 3678" width="4.546" height="18.412" transform="translate(0.396 0.34)" fill="#ebebeb"/>
              <path id="Path_16281" data-name="Path 16281" d="M1399.792,5683.35h-5.337v-19.091h5.337Zm-4.546-.679H1399v-17.733h-3.755Z" transform="translate(-1394.455 -5664.259)" fill="#ebebeb"/>
            </g>
            <path id="Path_16282" data-name="Path 16282" d="M1401.405,5676.584a1.516,1.516,0,1,1-1.5-1.286A1.4,1.4,0,0,1,1401.405,5676.584Z" transform="translate(-1397.238 -5672.03)" fill="#ebebeb"/>
          </g>
          <g id="Group_11909" data-name="Group 11909" transform="translate(10.687)">
            <g id="Group_11908" data-name="Group 11908">
              <rect id="Rectangle_3679" data-name="Rectangle 3679" width="4.546" height="18.412" transform="translate(0.396 0.34)" fill="#ebebeb"/>
              <path id="Path_16283" data-name="Path 16283" d="M1417.843,5683.35h-5.337v-19.091h5.337Zm-4.546-.679h3.755v-17.733H1413.3Z" transform="translate(-1412.506 -5664.259)" fill="#ebebeb"/>
            </g>
            <path id="Path_16284" data-name="Path 16284" d="M1419.456,5676.584a1.516,1.516,0,1,1-1.5-1.286A1.4,1.4,0,0,1,1419.456,5676.584Z" transform="translate(-1415.29 -5672.03)" fill="#ebebeb"/>
          </g>
          <g id="Group_11911" data-name="Group 11911" transform="translate(16.03)">
            <g id="Group_11910" data-name="Group 11910">
              <rect id="Rectangle_3680" data-name="Rectangle 3680" width="4.546" height="18.412" transform="translate(0.396 0.34)" fill="#ebebeb"/>
              <path id="Path_16285" data-name="Path 16285" d="M1435.894,5683.35h-5.337v-19.091h5.337Zm-4.546-.679h3.755v-17.733h-3.755Z" transform="translate(-1430.557 -5664.259)" fill="#ebebeb"/>
            </g>
            <path id="Path_16286" data-name="Path 16286" d="M1437.507,5676.584a1.516,1.516,0,1,1-1.5-1.286A1.4,1.4,0,0,1,1437.507,5676.584Z" transform="translate(-1433.341 -5672.03)" fill="#ebebeb"/>
          </g>
          <g id="Group_11913" data-name="Group 11913" transform="translate(21.374)">
            <g id="Group_11912" data-name="Group 11912">
              <rect id="Rectangle_3681" data-name="Rectangle 3681" width="4.546" height="18.412" transform="translate(0.395 0.34)" fill="#ebebeb"/>
              <path id="Path_16287" data-name="Path 16287" d="M1453.945,5683.35h-5.337v-19.091h5.337Zm-4.546-.679h3.755v-17.733H1449.4Z" transform="translate(-1448.608 -5664.259)" fill="#ebebeb"/>
            </g>
            <path id="Path_16288" data-name="Path 16288" d="M1455.558,5676.584a1.516,1.516,0,1,1-1.5-1.286A1.4,1.4,0,0,1,1455.558,5676.584Z" transform="translate(-1451.392 -5672.03)" fill="#ebebeb"/>
          </g>
        </g>
        <path id="Path_16289" data-name="Path 16289" d="M1376.961,5844.623a7.818,7.818,0,0,1,.708-3.383h-5.449a7.818,7.818,0,0,1,.708,3.383c0,2.048-2.388,5.827-2.388,8.346s2.531,3.347,4.405,3.347,4.4-.827,4.4-3.347S1376.961,5846.671,1376.961,5844.623Z" transform="translate(-1364.497 -5762.793)" fill="#ebebeb"/>
        <g id="Group_11916" data-name="Group 11916" transform="translate(23.129 52.378)">
          <g id="Group_11915" data-name="Group 11915" transform="translate(0.675)">
            <path id="Path_16290" data-name="Path 16290" d="M1450.146,5762.32c1.47-2.961-1.8-2.906-1.548-3.684.467-1.46,2.228.126,2.943-.609s-1.763-3.024-.466-3.818.843,1.892,1.964,1.7.454-3.027,1.776-2.711c.994.238-.187,2.011-.078,2.84s2.158-.379,2.194.8-2.444.665-2.736,1.564,2.667,1.084,1.629,1.844-2.993-.149-3.508.642S1449.522,5763.578,1450.146,5762.32Z" transform="translate(-1443.243 -5753.174)" fill="#ebebeb"/>
            <path id="Path_16291" data-name="Path 16291" d="M1436.539,5770.458c-1.381-2.994-3.658-.98-4.118-1.684-.863-1.32,1.687-1.257,1.594-2.211s-3.73-1.085-3.459-2.433,2.148.835,2.789.022-2.157-2.426-.957-3c.9-.431,1.514,1.542,2.27,2.065s1.224-1.574,2.218-.756-1.193,1.949-.664,2.765,2.784-.84,2.669.327-2.25,1.7-1.968,2.574S1437.126,5771.728,1436.539,5770.458Z" transform="translate(-1430.541 -5758.749)" fill="#ebebeb"/>
          </g>
          <path id="Path_16292" data-name="Path 16292" d="M1438.451,5778.711h-7.542s-2.647,1.953-2.647,4.259,1.65,4.7,6.419,4.7,6.419-2.4,6.419-4.7S1438.451,5778.711,1438.451,5778.711Z" transform="translate(-1428.261 -5771.151)" fill="#ebebeb"/>
        </g>
        <g id="Group_11917" data-name="Group 11917" transform="translate(24.979 83.008)">
          <rect id="Rectangle_3682" data-name="Rectangle 3682" width="6.961" height="8.119" transform="translate(2.154 2.396)" fill="#ebebeb"/>
          <ellipse id="Ellipse_607" data-name="Ellipse 607" cx="5.494" cy="2.396" rx="5.494" ry="2.396" fill="#ebebeb"/>
        </g>
        <g id="Group_11918" data-name="Group 11918" transform="translate(20.131 12.922)">
          <rect id="Rectangle_3683" data-name="Rectangle 3683" width="5.161" height="6.02" transform="translate(1.597 1.776)" fill="#ebebeb"/>
          <path id="Path_16293" data-name="Path 16293" d="M1426.28,5621.663c0,.98-1.824,1.776-4.073,1.776s-4.073-.8-4.073-1.776,1.823-1.776,4.073-1.776S1426.28,5620.682,1426.28,5621.663Z" transform="translate(-1418.134 -5619.887)" fill="#ebebeb"/>
        </g>
        <g id="Group_11920" data-name="Group 11920" transform="translate(2.875)">
          <g id="Group_11919" data-name="Group 11919">
            <path id="Path_16294" data-name="Path 16294" d="M1390.069,5596.837s-1.786-5.324,6.118-11.312c0,0-6.767,6.388-4.546,11.313Z" transform="translate(-1380.999 -5582.775)" fill="#ebebeb"/>
            <path id="Path_16295" data-name="Path 16295" d="M1386.844,5591.507s-4.094-5.931,3.238-15.271c0,0-5.817,9.516-1.344,14.849Z" transform="translate(-1378.048 -5576.235)" fill="#ebebeb"/>
            <path id="Path_16296" data-name="Path 16296" d="M1370.352,5596.837s1.786-5.324-6.119-11.312c0,0,6.767,6.388,4.546,11.313Z" transform="translate(-1362.933 -5582.775)" fill="#ebebeb"/>
            <path id="Path_16297" data-name="Path 16297" d="M1379.275,5593.573s3.289-4.766-2.6-12.271c0,0,4.676,7.646,1.083,11.932Z" transform="translate(-1371.689 -5579.802)" fill="#ebebeb"/>
            <path id="Path_16298" data-name="Path 16298" d="M1389.219,5605.312s-1.543-5.379,6.626-11.1c0,0-7.051,6.159-5.055,11.153Z" transform="translate(-1380.441 -5588.891)" fill="#ebebeb"/>
            <path id="Path_16299" data-name="Path 16299" d="M1366.466,5603.107s1.543-5.38-6.625-11.1c0,0,7.051,6.158,5.055,11.152Z" transform="translate(-1359.841 -5587.338)" fill="#ebebeb"/>
          </g>
          <path id="Path_16300" data-name="Path 16300" d="M1372.711,5617.447h-5.344l2.452,8.519h5.782l2.452-8.519Z" transform="translate(-1365.14 -5605.247)" fill="#ebebeb"/>
        </g>
        <g id="Group_11930" data-name="Group 11930" transform="translate(4.146 62.244)">
          <g id="Group_11925" data-name="Group 11925" transform="translate(0 0)">
            <g id="Group_11921" data-name="Group 11921" transform="translate(0.395 4.507)">
              <rect id="Rectangle_3684" data-name="Rectangle 3684" width="2.249" height="16.356" transform="translate(0 2.249) rotate(-90)" fill="#ebebeb"/>
            </g>
            <g id="Group_11923" data-name="Group 11923" transform="translate(0 1.909)">
              <g id="Group_11922" data-name="Group 11922">
                <rect id="Rectangle_3685" data-name="Rectangle 3685" width="2.249" height="16.356" transform="translate(0.396 2.589) rotate(-90)" fill="#ebebeb"/>
                <path id="Path_16301" data-name="Path 16301" d="M1381.282,5795.882h-17.146v-2.929h17.146Zm-16.356-.68h15.565v-1.569h-15.565Z" transform="translate(-1364.136 -5792.953)" fill="#ebebeb"/>
              </g>
            </g>
            <g id="Group_11924" data-name="Group 11924" transform="translate(0.395)">
              <rect id="Rectangle_3686" data-name="Rectangle 3686" width="2.249" height="16.356" transform="translate(0 2.249) rotate(-90)" fill="#ebebeb"/>
            </g>
          </g>
          <g id="Group_11926" data-name="Group 11926" transform="translate(10.028 0)">
            <rect id="Rectangle_3687" data-name="Rectangle 3687" width="0.118" height="2.249" fill="#ebebeb"/>
          </g>
          <g id="Group_11927" data-name="Group 11927" transform="translate(11.345 0)">
            <rect id="Rectangle_3688" data-name="Rectangle 3688" width="0.118" height="2.249" fill="#ebebeb"/>
          </g>
          <g id="Group_11928" data-name="Group 11928" transform="translate(12.663 0)">
            <rect id="Rectangle_3689" data-name="Rectangle 3689" width="0.118" height="2.249" fill="#ebebeb"/>
          </g>
          <g id="Group_11929" data-name="Group 11929" transform="translate(13.98 0)">
            <rect id="Rectangle_3690" data-name="Rectangle 3690" width="0.117" height="2.249" fill="#ebebeb"/>
          </g>
          <rect id="Rectangle_3691" data-name="Rectangle 3691" width="7.697" height="0.371" transform="translate(8.253 4.89)" fill="#ebebeb"/>
          <rect id="Rectangle_3692" data-name="Rectangle 3692" width="7.697" height="0.371" transform="translate(8.253 5.446)" fill="#ebebeb"/>
          <rect id="Rectangle_3693" data-name="Rectangle 3693" width="7.697" height="0.371" transform="translate(8.253 6.002)" fill="#ebebeb"/>
        </g>
      </g>
      <g id="Group_11942" data-name="Group 11942" transform="translate(310.934 177.681)">
        <g id="Group_11935" data-name="Group 11935">
          <g id="Group_11933" data-name="Group 11933" transform="translate(0.403 37.81)">
            <path id="Path_16302" data-name="Path 16302" d="M2503.01,5923.321l-1.4-.011,4.435-38.937.65-4.861,24.034,4.085-1.477,43.73-1.794-.15-.872-38.737-17.144-2.841Z" transform="translate(-2501.607 -5873.704)" fill="#cfd0d8"/>
            <g id="Group_11932" data-name="Group 11932" transform="translate(4.247)">
              <path id="Path_16303" data-name="Path 16303" d="M2562.268,5863.968l-14.813-1.069-31.2,2.837-.1,4.872a2.346,2.346,0,0,0,1.892,2.866s19.432,4.325,21.768,3.567l23.663-7.29Z" transform="translate(-2516.043 -5862.01)" fill="#cfd0d8"/>
              <path id="Path_16304" data-name="Path 16304" d="M2541.89,5867.76c-3.314.76-3.329.037-6.171-.266l-15.763-2.709c-5.952-.652-4.254-.886-1.406-2.064l2.356-.527c2.359-.961,14.027-2.583,17.146-2.256l22.63.688c3.336.342,1.59,1.537,1.124,1.633Z" transform="translate(-2515.952 -5859.895)" fill="#cfd0d8"/>
            </g>
            <path id="Path_16305" data-name="Path 16305" d="M2663.233,5881.459l3.719,40.937-1.1-.147-5.917-38.092Z" transform="translate(-2613.069 -5875.076)" fill="#cfd0d8"/>
          </g>
          <g id="Group_11934" data-name="Group 11934">
            <path id="Path_16306" data-name="Path 16306" d="M2530.249,5773.239c.041,2.233-2.031,3.666-5.723,3.362l-16.73-2.722c-4.231-.568-3.624-.976-4.115-3.269l-3.289-32.509c-.761-3.523,1.472-6.354,6.351-5.882l15.224,1.394c4.818.458,5.367,3.036,5.413,6.464Z" transform="translate(-2500.245 -5732.169)" fill="#cfd0d8"/>
            <path id="Path_16307" data-name="Path 16307" d="M2581.593,5740.754a4.621,4.621,0,0,1,4.283,4.028c.25,2.563,4.784,33.858,3.541,35.9s-4.233,2.363-4.1,1.473c1.237-8.319-2.359-36.86-3.231-38.527A4.07,4.07,0,0,1,2581.593,5740.754Z" transform="translate(-2557.456 -5738.209)" fill="#cfd0d8"/>
          </g>
        </g>
        <g id="Group_11937" data-name="Group 11937" transform="translate(139.913 3.651)">
          <g id="Group_11936" data-name="Group 11936">
            <path id="Path_16308" data-name="Path 16308" d="M2974.965,5919.3h-1.086l3.077-36.957,2.308.135,25.4.314v6.712h-.065l3.591,29.99H3007.1l-6.234-29.99h-20.132Z" transform="translate(-2973.585 -5841.542)" fill="#cfd0d8"/>
            <path id="Path_16309" data-name="Path 16309" d="M3060.975,5748.073c1.041-4.562,6.976-3.653,12.195-3.122,3.752.38,4.664,1.953,4.473,5.84l-4.478,33.739c-.182,3.878-3.256,6.445-6.819,5.7s-10.9-3.22-10.625-7.1Z" transform="translate(-3031.194 -5744.502)" fill="#cfd0d8"/>
            <path id="Path_16310" data-name="Path 16310" d="M2986.7,5935.658h-.893l3.4-34.073-5.663-5.271,16.625-.114,19.575-.212-.075,5.6,3.9,34.278h-.724l-6.781-34.278h-23.1Z" transform="translate(-2980.387 -5851.145)" fill="#cfd0d8"/>
            <path id="Path_16311" data-name="Path 16311" d="M2973.193,5879.456a1.383,1.383,0,0,1,1.028-2.253l20.214-.085a16.689,16.689,0,0,1,5.377,1.037l11.368,3.895.084.033c1.363.561,1.236,1.033-.3,1.033l-34.29-.084a1.319,1.319,0,0,1-1.031-.5Z" transform="translate(-2972.887 -5837.861)" fill="#cfd0d8"/>
          </g>
        </g>
        <g id="Group_11938" data-name="Group 11938" transform="translate(28.111 12.905)">
          <rect id="Rectangle_3694" data-name="Rectangle 3694" width="5.562" height="59.552" transform="translate(15.667 21.196)" fill="#ebebeb"/>
          <rect id="Rectangle_3695" data-name="Rectangle 3695" width="5.564" height="59.552" transform="translate(117 21.673)" fill="#ebebeb"/>
          <path id="Path_16312" data-name="Path 16312" d="M2730.9,5794.392v2.687h-135.27v-2.687l21.987-18.628H2707.3Z" transform="translate(-2595.506 -5775.764)" fill="#ebebeb"/>
          <rect id="Rectangle_3696" data-name="Rectangle 3696" width="135.396" height="5.292" transform="translate(0 18.628)" fill="#ebebeb"/>
        </g>
        <g id="Group_11941" data-name="Group 11941" transform="translate(55.667 15.553)">
          <path id="Path_16313" data-name="Path 16313" d="M2720.3,5809.777l27.944-.021,3.664-5.07-25.1-.055Z" transform="translate(-2710.823 -5798.733)" fill="#cfd0d8"/>
          <g id="Group_11940" data-name="Group 11940">
            <path id="Path_16314" data-name="Path 16314" d="M2810.923,5974.612h-1.358l-6.608-42.8h3.521Z" transform="translate(-2769.015 -5888.264)" fill="#cfd0d8"/>
            <path id="Path_16315" data-name="Path 16315" d="M2691.531,5971.2h1.358l6.608-42.8h-3.521Z" transform="translate(-2690.574 -5885.861)" fill="#cfd0d8"/>
            <g id="Group_11939" data-name="Group 11939" transform="translate(10.423 38.762)">
              <path id="Path_16316" data-name="Path 16316" d="M2723.506,5966.3h.743l5.534-34.487h-3.208Z" transform="translate(-2723.506 -5927.026)" fill="#cfd0d8"/>
              <path id="Path_16317" data-name="Path 16317" d="M2836.016,5954.216h.751l-4.108-38.564-2.792,4.082Z" transform="translate(-2798.381 -5915.651)" fill="#cfd0d8"/>
            </g>
            <path id="Path_16318" data-name="Path 16318" d="M2706.058,5904.578a17.606,17.606,0,0,1,2.741-2.354c.423-.295,4.8-4.475,4.8-4.475l29.232,1.769a13.427,13.427,0,0,1,1.8.526c.617.229.933,1.989.857,3.443-.085,1.592-2.7,4.5-5.144,6.1-3.409,2.22-12.978,1.807-14.344,1.807H2724.2c-1.363,0-15.3.349-18.716-1.866C2704.241,5908.717,2704.967,5905.653,2706.058,5904.578Z" transform="translate(-2699.936 -5864.286)" fill="#cfd0d8"/>
            <path id="Path_16319" data-name="Path 16319" d="M2773.031,5787.335c1.887.586,6.421,1.76,6.8,6.455s3.049,32.077,2.3,33.89c-.948,2.279-3.588,2.34-4.529,1.169s-6.454-39.563-5.884-40.146Z" transform="translate(-2746.989 -5786.557)" fill="#cfd0d8"/>
            <path id="Path_16320" data-name="Path 16320" d="M2721.772,5825.028c0,2.5-2.611,4.441-5.844,4.365l-17.766-.439c-3.2-.082-5.943-2.144-6.129-4.637l-3.724-34.3c-.225-2.971,2.472-5.364,6.027-5.306l18.51.6c3.585.066,6.494,2.559,6.494,5.55Z" transform="translate(-2688.295 -5784.708)" fill="#cfd0d8"/>
          </g>
        </g>
      </g>
    </g>
    <g id="Group_11944" data-name="Group 11944" transform="translate(1195.218 5130.43)">
      <rect id="Rectangle_3697" data-name="Rectangle 3697" width="65.638" height="40.578" transform="translate(65.638 40.578) rotate(-180)" fill="#ebebeb"/>
    </g>
    <text id="_3" data-name="3" transform="translate(1205.846 5161.884)" fill="#2d356b" font-size="33" font-family="TrebuchetMS-Bold, Trebuchet MS" font-weight="700"><tspan x="0" y="0">3</tspan></text>
    <g id="Group_11946" data-name="Group 11946" transform="translate(1196.89 5132.33)">
      <g id="Group_11945" data-name="Group 11945" transform="translate(-2.302 0)">
        <path id="Path_16321" data-name="Path 16321" d="M1608.761,5350.072c15.407,31.833,3.139,66.087-30.02,79.352-35.221,14.085-80.967-.731-103.562-33.11-17.756,17.667-44.834,31.256-75.892,36.021-57.249,8.784-106.324-15.74-109.611-54.772a52.835,52.835,0,0,1,3.358-23.01c-48.408,14.75-78.587-14.99-90.671-59.1-8.917-32.552,18.749-131.266,103.742-111.626-.186-1.077,32.486-51.171,140.561-44.15,48.687,4.056,94.6,27.833,94.465,50.707,0,0,128.274-32.077,153.208,74.988C1694.34,5265.365,1722.115,5359.76,1608.761,5350.072Z" transform="translate(-1202.364 -5140.523)" fill="#fff" stroke="#ebebeb" stroke-miterlimit="10" stroke-width="1"/>
      </g>
    </g>
    <g id="Group_11991" data-name="Group 11991" transform="translate(1411.315 5245.471)">
      <g id="Group_11948" data-name="Group 11948" transform="translate(34.924 7.41)">
        <g id="Group_11947" data-name="Group 11947">
          <path id="Path_16322" data-name="Path 16322" d="M2729.525,6078.929l-21.327,1.485-5.651,34.671,28.688-.071Z" transform="translate(-2575.584 -5920.197)" fill="#9999a5"/>
          <path id="Path_16323" data-name="Path 16323" d="M2257.667,5538.5l271.2-5.468,11.28,167.649H2261.563Z" transform="translate(-2257.667 -5530.09)" fill="#cfd0d8"/>
          <path id="Path_16324" data-name="Path 16324" d="M2260.739,5672.612l-3.073-140.483,273.66-9.4,6.611,149.883Z" transform="translate(-2257.667 -5522.729)" fill="#2d356b"/>
          <rect id="Rectangle_3698" data-name="Rectangle 3698" width="38.253" height="2.489" transform="translate(122.568 193.093)" fill="#ebebeb"/>
          <path id="Path_16325" data-name="Path 16325" d="M2274.719,5677.436l-3-134.624,261.56-8.848,6.387,143.47Z" transform="translate(-2267.707 -5530.758)" fill="#fff7d3"/>
          <path id="Path_16326" data-name="Path 16326" d="M2279.333,5678.289l-2.988-133.591,258.968-8.749,6.335,142.34Z" transform="translate(-2271.015 -5532.176)" fill="#fff"/>
        </g>
        <path id="Path_16327" data-name="Path 16327" d="M2541.135,6213.519h119.583l-7.695,1.693H2548.83Z" transform="translate(-2460.237 -6016.376)" fill="#2d356b"/>
        <rect id="Rectangle_3699" data-name="Rectangle 3699" width="132.385" height="1.695" transform="translate(74.672 195.89)" fill="#cfd0d8"/>
      </g>
      <g id="Group_11950" data-name="Group 11950" transform="translate(13.013 152.12)">
        <g id="Group_11949" data-name="Group 11949">
          <path id="Path_16328" data-name="Path 16328" d="M2247.695,6041.57c-2.6-7.421-12.641-4.819-21.519-2.976-6.383,1.319-7.672,4.111-6.652,10.562l13.691,55.476c1,6.435,6.742,10.156,12.735,8.252s18.174-7.367,17-13.784Z" transform="translate(-2219.21 -6036.607)" fill="#ffb2b0"/>
        </g>
      </g>
      <g id="Group_11958" data-name="Group 11958" transform="translate(33.892 113.024)">
        <path id="Path_16329" data-name="Path 16329" d="M2326.645,5924.66c3.738-10.487-13.719-23.258-21.319-19.427,0,0-17.978-1.729-15.316,28.966.118,1.357,5.619,1.8,5.322,4.709s-.009,2.605,1.26,4.084,4.036-.231,4.552.813c1.42,2.867-4.133,4.325-5.654,2.7,0,0,12.7,9.462,20.585-4.1C2316.53,5941.623,2325.662,5927.42,2326.645,5924.66Z" transform="translate(-2289.741 -5904.538)" fill="#fff4ba"/>
        <g id="Group_11951" data-name="Group 11951" transform="translate(16.485 75.976)">
          <path id="Path_16330" data-name="Path 16330" d="M2382.846,6172.886c-1.009,6.507-35.5-5.817-36.566-6.728,0,0-2.373-4.235.808-4.909C2351.261,6160.368,2383.3,6169.978,2382.846,6172.886Z" transform="translate(-2345.429 -6161.192)" fill="#54ccca"/>
          <path id="Path_16331" data-name="Path 16331" d="M2461.166,6190.458l-.255-2-6.651-3.79s-.289,3.55.126,4.325S2461.166,6190.458,2461.166,6190.458Z" transform="translate(-2421.975 -6177.717)" fill="#fffdfd"/>
          <path id="Path_16332" data-name="Path 16332" d="M2459.508,6203.7l-.577,1.911-7.119,2.519s.3-3.527.835-4.213S2459.508,6203.7,2459.508,6203.7Z" transform="translate(-2420.32 -6191.005)" fill="#fffdfd"/>
        </g>
        <g id="Group_11952" data-name="Group 11952" transform="translate(44.624 81.518)">
          <path id="Path_16333" data-name="Path 16333" d="M2451.2,6187.243c-1.993-1.553-5.019-2.37-5.393-1.479-.425,1.006,2.309,1.218,3.758,3.049,1.574,1.979,2.667,3.141,3.463,2.574S2453.2,6188.8,2451.2,6187.243Z" transform="translate(-2444.199 -6183.773)" fill="#f8c471"/>
          <path id="Path_16334" data-name="Path 16334" d="M2440.515,6183.773c3.1-.177,9.387,4.158,10.24,1.591.766-2.3-1.408-7.125-10.27-3.994Z" transform="translate(-2440.485 -6180.217)" fill="#ffd9a4"/>
          <path id="Path_16335" data-name="Path 16335" d="M2455.85,6180.4c-1.608,3.976,3.241,5.916,4.909,6.175,1.834.282,3.882-2.4,3.571-3.845S2456.466,6178.881,2455.85,6180.4Z" transform="translate(-2451.075 -6179.914)" fill="#ffd9a4"/>
          <path id="Path_16336" data-name="Path 16336" d="M2476.931,6185.476c2.142.32,3.333,0,3.353-.583s-1.211-.685-3.351-1.007-4.78-1.261-4.8-.684S2474.792,6185.15,2476.931,6185.476Z" transform="translate(-2462.765 -6182.1)" fill="#ffd9a4"/>
          <path id="Path_16337" data-name="Path 16337" d="M2478.366,6193.837c2.074.759,4.2.494,4.337-.058s-1.936-.793-4.01-1.553-3.459-1.139-3.591-.586S2476.293,6193.078,2478.366,6193.837Z" transform="translate(-2464.848 -6187.984)" fill="#ffd9a4"/>
          <path id="Path_16338" data-name="Path 16338" d="M2469.8,6199.33c2.1.674,3.427.574,3.544.021s-1.351-.737-3.451-1.411-3.582-1.116-3.7-.56S2467.7,6198.656,2469.8,6199.33Z" transform="translate(-2458.581 -6192.031)" fill="#ffd9a4"/>
        </g>
        <g id="Group_11953" data-name="Group 11953" transform="translate(5.789 27.656)">
          <path id="Path_16339" data-name="Path 16339" d="M2339.374,5997.963l7.313,4.994.724,16.255-5.937-2.409Z" transform="translate(-2330.471 -5997.963)" fill="#f6cda2"/>
          <path id="Path_16340" data-name="Path 16340" d="M2339.966,6130.57c-15.9,8.712-21.654,4.992-30.667,4.249.3-12.822,7.9-21.322,8.364-30.274.859-16.594-12.506-36.636-.545-43.694,12.7-7.5,26.016,29.872,26.016,29.872C2330.469,6097.22,2335.467,6110.514,2339.966,6130.57Z" transform="translate(-2309.298 -6041.534)" fill="#c3e8e6"/>
          <path id="Path_16341" data-name="Path 16341" d="M2338.8,6057.869l2.187-.173,9.384,9.53-2.976,2.324S2341.117,6062.639,2338.8,6057.869Z" transform="translate(-2330.065 -6040.014)" fill="#fff"/>
          <path id="Path_16342" data-name="Path 16342" d="M2360.231,6069.549c.047-.032.093-.064.14-.095-2.373-5.225-7.687-13.288-13.128-12.992C2352.01,6061.054,2360.231,6069.549,2360.231,6069.549Z" transform="translate(-2336.01 -6039.139)" fill="#f6cda2"/>
        </g>
        <g id="Group_11954" data-name="Group 11954" transform="translate(8.686 50.1)">
          <path id="Path_16343" data-name="Path 16343" d="M2364.959,6186.452c.353,6.449-28.737,8.448-29.971,7.791,0,0-1.9-4.534-.335-5.045C2338.7,6187.881,2364.8,6183.572,2364.959,6186.452Z" transform="translate(-2329.61 -6152.414)" fill="#54ccca"/>
          <path id="Path_16344" data-name="Path 16344" d="M2322.56,6073.883c-7.86-2.479-.251,41.075,2.06,41.844,0,0,4.187-1.476,4.918-3.444C2331.747,6106.334,2326.07,6074.986,2322.56,6073.883Z" transform="translate(-2319.085 -6073.781)" fill="#54ccca"/>
          <path id="Path_16345" data-name="Path 16345" d="M2426.914,6180.825l-.732-1.73-7.336-1.509s.582,3.295,1.173,3.875S2426.914,6180.825,2426.914,6180.825Z" transform="translate(-2389.314 -6146.857)" fill="#fff"/>
          <path id="Path_16346" data-name="Path 16346" d="M2429.984,6188.068l-.092,1.924-6.346,4.4s-.573-3.328-.223-4.113S2429.984,6188.068,2429.984,6188.068Z" transform="translate(-2392.386 -6154.236)" fill="#fff"/>
        </g>
        <g id="Group_11957" data-name="Group 11957" transform="translate(10.219 4.023)">
          <g id="Group_11956" data-name="Group 11956">
            <g id="Group_11955" data-name="Group 11955" transform="translate(0 2.526)">
              <path id="Path_16347" data-name="Path 16347" d="M2348.679,5962.265c1.422.2,4.979-6.81,6.512-12.345.506-1.825-1.466-2.318-.47-8.645.585-3.715-.427-9.106-6.155-13.661-5.408-4.3-7.432,7.2-8.3,9.8-2.481,7.408-5.08,11.918-3.634,15.865C2339.45,5960.987,2347.191,5961.687,2348.679,5962.265Z" transform="translate(-2332.676 -5926.661)" fill="#ffd8a3"/>
              <path id="Path_16348" data-name="Path 16348" d="M2381.993,6012.687a.331.331,0,0,1,.345-.314.348.348,0,0,1,.232.416.332.332,0,0,1-.346.315A.348.348,0,0,1,2381.993,6012.687Z" transform="translate(-2364.899 -5986.998)" fill="#ffab00"/>
              <path id="Path_16349" data-name="Path 16349" d="M2383.49,5977.666c.171-1,.865-1.7,1.546-1.569s1.1,1.042.927,2.037-.864,1.7-1.547,1.568S2383.318,5978.663,2383.49,5977.666Z" transform="translate(-2365.93 -5961.452)" fill="#2d356b"/>
              <path id="Path_16350" data-name="Path 16350" d="M2378.772,5977.486c1.153-1.252,2.717-2.443,5.209-1.168A9.667,9.667,0,0,0,2378.772,5977.486Z" transform="translate(-2362.636 -5961.233)" fill="#2d356b"/>
              <path id="Path_16351" data-name="Path 16351" d="M2386.448,6027.782c.075-.226.676.7,1.01.77.947.214.506,1.4-.426,1.087C2386.669,6029.518,2386.37,6028.022,2386.448,6027.782Z" transform="translate(-2368.031 -5997.823)" fill="#f36973"/>
              <path id="Path_16352" data-name="Path 16352" d="M2385.378,6013.763c-.614-.347,3.94-1.007,2.943.369C2387.991,6014.383,2385.692,6013.94,2385.378,6013.763Z" transform="translate(-2367.246 -5987.651)" fill="#f36973"/>
              <path id="Path_16353" data-name="Path 16353" d="M2380.867,5960.242a5.887,5.887,0,0,0-7.534,2.7C2375.583,5960.609,2377.186,5959.842,2380.867,5960.242Z" transform="translate(-2358.807 -5949.987)" fill="#2d356b"/>
              <path id="Path_16354" data-name="Path 16354" d="M2396.616,5992.94l-2.294.37.693-5.635,2.732,4.455Z" transform="translate(-2373.583 -5969.614)" fill="#ffd8a3"/>
              <path id="Path_16355" data-name="Path 16355" d="M2395.858,6007.449l2.19-3.248-1.645-.285Z" transform="translate(-2374.664 -5981.047)" fill="#ffd8a3"/>
              <path id="Path_16356" data-name="Path 16356" d="M2385.165,6018.978a41.985,41.985,0,0,0,1.757-4.733l-3.978-.546S2383.156,6018.018,2385.165,6018.978Z" transform="translate(-2365.573 -5987.934)" fill="#ffab00"/>
              <path id="Path_16357" data-name="Path 16357" d="M2384.943,6016.846l2.266.312q.323-.894.627-1.87l-3.25-.446Z" transform="translate(-2366.728 -5988.738)" fill="#fff"/>
              <path id="Path_16358" data-name="Path 16358" d="M2327.517,5980.277c.328-1.722,1.091-2.921-.216-3.166s-2.637.951-2.965,2.675.469,3.322,1.779,3.568S2327.19,5982,2327.517,5980.277Z" transform="translate(-2324.262 -5962.155)" fill="#f7c371"/>
            </g>
            <path id="Path_16359" data-name="Path 16359" d="M2356.647,5918.144c-1.469,4.011-5.67,14.084-11.746,15.42,0,0-2.435-9.558,3.413-12.325C2355.7,5917.742,2356.647,5918.144,2356.647,5918.144Z" transform="translate(-2338.438 -5918.129)" fill="#fff4ba"/>
          </g>
        </g>
      </g>
      <g id="Group_11984" data-name="Group 11984" transform="translate(3.581 112.264)">
        <g id="Group_11969" data-name="Group 11969" transform="translate(143.408 8.578)">
          <g id="Group_11968" data-name="Group 11968">
            <path id="Path_16360" data-name="Path 16360" d="M2802.963,6109.569l-30.689,3.016a5.813,5.813,0,0,1-6.381-5.784v-56.062a5.813,5.813,0,0,1,6.333-5.79l37.4,3.362c.117.011.235.015.353.019a5.555,5.555,0,0,1,5.348,6.451l-7.178,49.833A5.814,5.814,0,0,1,2802.963,6109.569Z" transform="translate(-2738.037 -6011.185)" fill="#ffb2b0"/>
            <g id="Group_11967" data-name="Group 11967">
              <g id="Group_11966" data-name="Group 11966">
                <g id="Group_11959" data-name="Group 11959" transform="translate(12.77 1.768)">
                  <path id="Path_16361" data-name="Path 16361" d="M2716.583,5996.8c-5.516-6.824,4.543-6.956,4.748-12.3s-1.158-3.815-1.16-10.745,2.129-9.245,2.746-13.206-1.247-10.8,1.64-15.555,4.063-2.881,6.538-6.643,3.832.837,6.927,3.016,8.044-6.933,13.409-2.578,3.923,11.679,5.163,16.033,6.81,6.728,6.812,14.25-3.918,5.348-2.678,10.691,6.4,5.542,6.4,13.064c0,0-.2,7.521-8.457,6.139s-6.189,3.367-14.854-.59-6.6,4.357-12.585.6S2721.511,6002.9,2716.583,5996.8Z" transform="translate(-2714.933 -5936.923)" fill="#2d356b"/>
                </g>
                <g id="Group_11960" data-name="Group 11960" transform="translate(12.001 25.54)">
                  <path id="Path_16362" data-name="Path 16362" d="M2785.529,6017.226l-7.676,4.513L2776.018,6038l6.121-2.012Z" transform="translate(-2757.166 -6017.226)" fill="#f6cda2"/>
                  <path id="Path_16363" data-name="Path 16363" d="M2712.8,6148.358c15.354,9.821,21.384,6.481,30.477,6.35.572-12.883-6.476-21.929-6.329-30.94.269-16.707,15.043-35.9,3.523-43.8-12.234-8.384-28.135,28.2-28.135,28.2C2724.6,6115.546,2718.676,6128.542,2712.8,6148.358Z" transform="translate(-2712.333 -6060.515)" fill="#ffe200"/>
                  <path id="Path_16364" data-name="Path 16364" d="M2775.494,6077.012l-2.182-.324-10.063,8.924,2.827,2.534S2772.843,6081.639,2775.494,6077.012Z" transform="translate(-2748.177 -6059.085)" fill="#fff"/>
                  <path id="Path_16365" data-name="Path 16365" d="M2748.918,6087.546c-.046-.034-.089-.07-.134-.1,2.736-5.079,8.617-12.807,14.055-12.14C2757.745,6079.584,2748.918,6087.546,2748.918,6087.546Z" transform="translate(-2737.994 -6058.081)" fill="#f6cda2"/>
                </g>
                <g id="Group_11962" data-name="Group 11962" transform="translate(19.025)">
                  <g id="Group_11961" data-name="Group 11961">
                    <path id="Path_16366" data-name="Path 16366" d="M2765.652,5965.77c4.11-1.128,12.387-2.444,16.375-8.651,5.183-8.068,3.867-13.06,2.139-19.132-3.294-11.577-23.039-6.156-21.805-2.746C2764,5939.77,2750.756,5969.859,2765.652,5965.77Z" transform="translate(-2751.854 -5930.95)" fill="#2d356b"/>
                    <path id="Path_16367" data-name="Path 16367" d="M2746.388,5977.694c-1.5,0-4.179-7.744-4.978-13.683-.264-1.959,1.844-2.189,1.713-8.87-.078-3.922,1.733-9.351,8.3-13.246,6.2-3.678,6.661,8.5,7.192,11.306,1.513,8.01,3.558,13.039,1.5,16.915C2756.109,5977.684,2748.008,5977.307,2746.388,5977.694Z" transform="translate(-2739.81 -5938.172)" fill="#ffd8a3"/>
                    <path id="Path_16368" data-name="Path 16368" d="M2757.775,6028.431a.345.345,0,0,0-.312-.375.363.363,0,0,0-.3.4.346.346,0,0,0,.313.375A.362.362,0,0,0,2757.775,6028.431Z" transform="translate(-2750.917 -5999.31)" fill="#ffab00"/>
                    <path id="Path_16369" data-name="Path 16369" d="M2755.9,5991.631c-.036-1.054-.652-1.877-1.375-1.842s-1.283.921-1.247,1.975.652,1.877,1.375,1.841S2755.94,5992.686,2755.9,5991.631Z" transform="translate(-2748.183 -5972.371)" fill="#2d356b"/>
                    <path id="Path_16370" data-name="Path 16370" d="M2754.688,5991.461c-1.015-1.458-2.461-2.912-5.219-1.948A10.1,10.1,0,0,1,2754.688,5991.461Z" transform="translate(-2745.5 -5971.958)" fill="#2d356b"/>
                    <path id="Path_16371" data-name="Path 16371" d="M2748.324,6043.492c-.044-.243-.8.622-1.153.652-1.01.086-.721,1.373.285,1.185C2747.849,6045.254,2748.37,6043.751,2748.324,6043.492Z" transform="translate(-2743.44 -6010.146)" fill="#f36973"/>
                    <path id="Path_16372" data-name="Path 16372" d="M2747.8,6028.432c.683-.272-3.93-1.6-3.094-.036C2745.012,6028.7,2747.45,6028.571,2747.8,6028.432Z" transform="translate(-2742.076 -5999.021)" fill="#f36973"/>
                    <path id="Path_16373" data-name="Path 16373" d="M2749.288,5972.629a6.144,6.144,0,0,1,7.4,3.864C2754.7,5973.761,2753.15,5972.741,2749.288,5972.629Z" transform="translate(-2745.372 -5960.168)" fill="#2d356b"/>
                    <path id="Path_16374" data-name="Path 16374" d="M2737.115,6005.821l2.319.709.084-5.923-3.457,4.216Z" transform="translate(-2736.061 -5979.987)" fill="#ffd8a3"/>
                    <path id="Path_16375" data-name="Path 16375" d="M2740.282,6020.976l-1.8-3.668,1.741-.062Z" transform="translate(-2737.764 -5991.701)" fill="#ffd8a3"/>
                    <path id="Path_16376" data-name="Path 16376" d="M2745.219,6034.592a43.733,43.733,0,0,1-1.145-5.142h4.188S2747.431,6033.886,2745.219,6034.592Z" transform="translate(-2741.702 -6000.292)" fill="#ffab00"/>
                    <path id="Path_16377" data-name="Path 16377" d="M2747.571,6032.421h-2.386c-.138-.646-.266-1.321-.383-2.022h3.423Z" transform="translate(-2742.214 -6000.959)" fill="#fff"/>
                    <path id="Path_16378" data-name="Path 16378" d="M2810.66,6001.823c-.094-1.827-.713-3.174.673-3.243s2.591,1.358,2.685,3.187-.957,3.366-2.345,3.437S2810.752,6003.652,2810.66,6001.823Z" transform="translate(-2788.423 -5978.558)" fill="#f7c371"/>
                  </g>
                  <path id="Path_16379" data-name="Path 16379" d="M2765.413,5940.226c4.4,6.647,12.107,16.367,10.253,25.839,3.9-10.085,2.16-23.537-4.531-29.076C2770.431,5938,2764.441,5937.7,2765.413,5940.226Z" transform="translate(-2756.649 -5935.201)" fill="#2d356b"/>
                </g>
                <g id="Group_11965" data-name="Group 11965" transform="translate(0 46.657)">
                  <g id="Group_11963" data-name="Group 11963" transform="translate(0 18.687)">
                    <path id="Path_16380" data-name="Path 16380" d="M2699.713,6181.486c-2.067-2.332-9.61-3.741-8.386-6.167,1.1-2.175,6.071-4.044,10.119,4.484Z" transform="translate(-2685.451 -6167.034)" fill="#ffd9a4"/>
                    <path id="Path_16381" data-name="Path 16381" d="M2695.045,6171.036c-1.691,3.961-6.508,1.883-7.874.878-1.5-1.105-1.04-4.466.209-5.267S2695.688,6169.522,2695.045,6171.036Z" transform="translate(-2681.956 -6162.14)" fill="#ffd9a4"/>
                    <path id="Path_16382" data-name="Path 16382" d="M2700.6,6157.3c-.816-2.4-.594-5.543.376-5.6,1.094-.071.395,2.592,1.653,4.571,1.358,2.146,2.1,3.565,1.3,4.134S2701.411,6159.7,2700.6,6157.3Z" transform="translate(-2691.718 -6151.69)" fill="#ffd9a4"/>
                    <path id="Path_16383" data-name="Path 16383" d="M2681.644,6159.136c-1.745-1.3-2.358-2.378-1.96-2.8s1.346.378,3.09,1.673,4.284,2.511,3.886,2.934S2683.391,6160.429,2681.644,6159.136Z" transform="translate(-2677.266 -6154.879)" fill="#ffd9a4"/>
                    <path id="Path_16384" data-name="Path 16384" d="M2674.867,6165.865c-2.01-.939-3.33-2.644-3.031-3.13s1.937.817,3.946,1.757,3.262,1.656,2.961,2.143S2676.875,6166.8,2674.867,6165.865Z" transform="translate(-2671.794 -6159.392)" fill="#ffd9a4"/>
                    <path id="Path_16385" data-name="Path 16385" d="M2678.039,6176.261c-1.968-1.02-2.837-2.033-2.525-2.51s1.482.439,3.449,1.459,3.333,1.761,3.02,2.238S2680.009,6177.279,2678.039,6176.261Z" transform="translate(-2674.369 -6167.129)" fill="#ffd9a4"/>
                  </g>
                  <g id="Group_11964" data-name="Group 11964" transform="translate(13.638)">
                    <path id="Path_16386" data-name="Path 16386" d="M2797.51,6088.645c7.822-2.365,13.967,46.171,13.532,47.854,0,0-4.173,1.8-5.271.07C2802.933,6132.084,2794.018,6089.7,2797.51,6088.645Z" transform="translate(-2773.371 -6088.561)" fill="#fff4ba"/>
                    <path id="Path_16387" data-name="Path 16387" d="M2726.356,6194.065c-3.2,5.564,30.357,17.341,31.725,17.3,0,0,3.692-3.187,2.558-4.326C2757.7,6204.1,2727.786,6191.581,2726.356,6194.065Z" transform="translate(-2723.69 -6162.605)" fill="#fff4ba"/>
                    <path id="Path_16388" data-name="Path 16388" d="M2720.159,6190.616l1.411-1.364,7.37,1.176s-1.945,2.875-2.733,3.211S2720.159,6190.616,2720.159,6190.616Z" transform="translate(-2719.48 -6159.446)" fill="#eaeaea"/>
                    <path id="Path_16389" data-name="Path 16389" d="M2718.6,6193.424l-.739,1.831,3.931,6.352s1.954-2.91,1.965-3.769S2718.6,6193.424,2718.6,6193.424Z" transform="translate(-2717.865 -6162.382)" fill="#eaeaea"/>
                  </g>
                </g>
              </g>
            </g>
          </g>
        </g>
        <g id="Group_11982" data-name="Group 11982" transform="translate(168.137)">
          <path id="Path_16390" data-name="Path 16390" d="M3056.843,6105.038l-30.688,3.015a5.812,5.812,0,0,1-6.381-5.784v-56.063a5.812,5.812,0,0,1,6.333-5.788l37.4,3.361c.117.011.235.016.353.02a5.554,5.554,0,0,1,5.348,6.451l-7.179,49.832A5.813,5.813,0,0,1,3056.843,6105.038Z" transform="translate(-2941.492 -5999.417)" fill="#ffb2b0"/>
          <g id="Group_11978" data-name="Group 11978" transform="translate(11.387)">
            <g id="Group_11970" data-name="Group 11970" transform="translate(43.273 32.011)">
              <path id="Path_16391" data-name="Path 16391" d="M3006.217,6066.069l1.258.491.326,3.228-2.955,1.065Z" transform="translate(-2985.645 -6049.503)" fill="#eaeaea"/>
              <path id="Path_16392" data-name="Path 16392" d="M3011.165,6014.121l12.163-4.015-.186,19.371-17.366,4.393Z" transform="translate(-2986.3 -6010.106)" fill="#f7c371"/>
              <path id="Path_16393" data-name="Path 16393" d="M2948.141,6210.869l22.44,7.795.063,34.105-20.133.161Z" transform="translate(-2945.726 -6151.439)" fill="#eaeaea"/>
              <path id="Path_16394" data-name="Path 16394" d="M2982.961,6154.5c-14.45-.888-29.084,5.65-35.917-11.193-3.7-9.114-3.143-23.912-2.88-38.586.351-19.614,23.087-44.557,40.3-38.15,23.919,8.9,6.924,40.132,3.785,48.419C2979.048,6139.268,2982.578,6149.015,2982.961,6154.5Z" transform="translate(-2942.79 -6049.137)" fill="#cfd0d8"/>
              <path id="Path_16395" data-name="Path 16395" d="M2991.5,6188.791c.427-6.43,6.067-13.6,18.864-35.141,2.482-4.179,5.578-16.812,8.462-27.353,1.077-3.935,7.6,3.941,8.27,13.719.413,6.064-4.189,13.842-5.391,17.014-9.2,24.276-5.667,34.021-5.283,39.512C3008.064,6196.028,2998.99,6193.815,2991.5,6188.791Z" transform="translate(-2976.246 -6091.174)" fill="#9999a5"/>
              <path id="Path_16396" data-name="Path 16396" d="M2943.44,6123.419c2.684-25.22,23.518-49.034,41.4-55.131,3-1.023.487-3.352-7.94-3.04C2969.357,6065.558,2938.43,6078.873,2943.44,6123.419Z" transform="translate(-2942.032 -6048.905)" fill="#7b88ac"/>
              <path id="Path_16397" data-name="Path 16397" d="M2945.132,6106.979c4.038-21.1,12.6-31.826,31.746-41.664-7.353.3-36.954,8.613-33.773,50.333C2943.185,6116.71,2944.435,6110.627,2945.132,6106.979Z" transform="translate(-2942.013 -6048.972)" fill="#ebebeb"/>
              <path id="Path_16398" data-name="Path 16398" d="M2952.252,6304.414c-.07-.9.374-1.661.992-1.711s1.178.638,1.249,1.533-.373,1.661-.992,1.711S2952.324,6305.309,2952.252,6304.414Z" transform="translate(-2948.615 -6216.085)" fill="#9999a5"/>
              <path id="Path_16399" data-name="Path 16399" d="M2949.4,6268.562c-.071-.894.373-1.66.991-1.71s1.178.639,1.248,1.533-.371,1.661-.99,1.71S2949.475,6269.459,2949.4,6268.562Z" transform="translate(-2946.61 -6190.848)" fill="#9999a5"/>
              <path id="Path_16400" data-name="Path 16400" d="M3009.819,6071l-4.427,1.264,1.778-4.647.849-.4Z" transform="translate(-2986.029 -6050.312)" fill="#f46973"/>
              <path id="Path_16401" data-name="Path 16401" d="M2940.79,6128.926l1.833-8.5s-2.391-26.98,17.695-39.339l-.2-.689C2943.578,6091.068,2937.65,6110.671,2940.79,6128.926Z" transform="translate(-2939.982 -6059.586)" fill="#f46973"/>
              <path id="Path_16402" data-name="Path 16402" d="M3009.477,6057.437l17.336-3.631,1.984,3.545-16.572,5.7Z" transform="translate(-2988.905 -6040.87)" fill="#fff"/>
            </g>
            <g id="Group_11972" data-name="Group 11972" transform="translate(0 61.59)">
              <path id="Path_16403" data-name="Path 16403" d="M3009.992,6159.939c2.624,3.579,33.234-41.1,29.357-47.339,0,0-10.756-8.745-30.987,6.025C3008.362,6118.626,3000.407,6146.862,3009.992,6159.939Z" transform="translate(-2942.666 -6110.03)" fill="#cfd0d8"/>
              <g id="Group_11971" data-name="Group 11971" transform="translate(0 19.958)">
                <path id="Path_16404" data-name="Path 16404" d="M2838.45,6207.394c-3.651-1.467-12.969,1.2-12.955-2.234.011-3.074,4.577-8,13.964-.644Z" transform="translate(-2816.112 -6193.8)" fill="#ffd9a4"/>
                <path id="Path_16405" data-name="Path 16405" d="M2826.968,6200.326c.324,5.429-6.292,5.8-8.4,5.436-2.319-.4-3.695-4.459-2.736-6.069S2826.841,6198.251,2826.968,6200.326Z" transform="translate(-2809.092 -6192.347)" fill="#ffd9a4"/>
                <path id="Path_16406" data-name="Path 16406" d="M2824.51,6184.087c-2.278-2.255-3.8-5.928-2.738-6.544,1.2-.7,1.909,2.706,4.447,4.233,2.746,1.658,4.383,2.844,3.8,3.937S2826.789,6186.348,2824.51,6184.087Z" transform="translate(-2813.249 -6177.45)" fill="#ffd9a4"/>
                <path id="Path_16407" data-name="Path 16407" d="M2803.016,6197.479c-2.7-.482-4.005-1.356-3.795-2.059s1.734-.333,4.436.146,6.257.419,6.047,1.121S2805.719,6197.952,2803.016,6197.479Z" transform="translate(-2797.601 -6189.825)" fill="#ffd9a4"/>
                <path id="Path_16408" data-name="Path 16408" d="M2798.992,6209.019c-2.8.073-5.255-1.108-5.191-1.826s2.649-.171,5.45-.242,4.62.031,4.555.749S2801.792,6208.945,2798.992,6209.019Z" transform="translate(-2793.8 -6198.125)" fill="#ffd9a4"/>
                <path id="Path_16409" data-name="Path 16409" d="M2808.526,6218.872c-2.8-.039-4.353-.7-4.269-1.409s1.923-.34,4.72-.3,4.759.108,4.675.824S2811.326,6218.913,2808.526,6218.872Z" transform="translate(-2801.159 -6205.313)" fill="#ffd9a4"/>
              </g>
              <path id="Path_16410" data-name="Path 16410" d="M3009.121,6173.153c-12.961-11.52-2.646-37.451-2.646-37.451a10.159,10.159,0,0,1,2.016-1.417C3001.712,6154.736,3009.661,6173.632,3009.121,6173.153Z" transform="translate(-2940.779 -6127.105)" fill="#9999a5"/>
              <path id="Path_16411" data-name="Path 16411" d="M2850.944,6209.085l5.188,3.393,3-8.817-6.079-.184Z" transform="translate(-2834.028 -6175.815)" fill="#eaeaea"/>
              <path id="Path_16412" data-name="Path 16412" d="M2909.449,6224.992s-16.492-.95-47.318-14c0,0-.932-3.594,3.182-8.6,0,0,28.925-1.617,44.609,5.38C2909.922,6207.773,2914.7,6221.165,2909.449,6224.992Z" transform="translate(-2841.84 -6174.938)" fill="#cfd0d8"/>
              <path id="Path_16413" data-name="Path 16413" d="M2879.558,6214.84a1.31,1.31,0,1,1,1.724-1.077A1.454,1.454,0,0,1,2879.558,6214.84Z" transform="translate(-2853.177 -6182.012)" fill="#9999a5"/>
            </g>
            <g id="Group_11977" data-name="Group 11977" transform="translate(56.525)">
              <path id="Path_16414" data-name="Path 16414" d="M3019.942,5934.112c8.076-10.354,6.76-26.926,6.333-27.493-4.559-6.061-16.787-5.1-22.906-3.215-5.161,1.587-9.151,4.612-6.425,8.587.941,1.372,4.969-1.939,6.239-1.815,2.4.235,4.979,33.063,4.979,33.063Z" transform="translate(-2992.711 -5901.971)" fill="#0080af"/>
              <g id="Group_11974" data-name="Group 11974" transform="translate(0 7.747)">
                <g id="Group_11973" data-name="Group 11973">
                  <path id="Path_16415" data-name="Path 16415" d="M2995.845,6013.906l-1.3-2.043,1.638-1.083Z" transform="translate(-2991.647 -5986.318)" fill="#ffd8a3"/>
                  <path id="Path_16416" data-name="Path 16416" d="M3016.769,5956.733c-.917,2.814-9.367,8.984-17.9,8.807-1.229-11.066-1.259-29.381.732-32.552,1.959-3.122,10.069-5.564,11.095-4.652-2.9,3.631,2.191,15.382,3.961,16.43C3018.967,5947.317,3017.726,5953.8,3016.769,5956.733Z" transform="translate(-2994.085 -5928.143)" fill="#ffd8a3"/>
                  <path id="Path_16417" data-name="Path 16417" d="M2984.746,5990.97a78.591,78.591,0,0,0,3.974-9.457c1.193-3.525,1.076,9.327,1.076,9.327S2986.017,5991.808,2984.746,5990.97Z" transform="translate(-2984.746 -5965.283)" fill="#ffd8a3"/>
                  <path id="Path_16418" data-name="Path 16418" d="M2996.492,6048.024c-.869-.345-1.317-1.15-1-1.8a1.69,1.69,0,0,1,2.151-.55c.87.345,1.318,1.151,1,1.8A1.692,1.692,0,0,1,2996.492,6048.024Z" transform="translate(-2992.24 -6010.773)" fill="#ffd8a3"/>
                  <path id="Path_16419" data-name="Path 16419" d="M2997.018,6034.341c-.035-.224.211-.447.551-.5s.64.087.675.309-.211.448-.549.5S2997.053,6034.564,2997.018,6034.341Z" transform="translate(-2993.383 -6002.544)" fill="#ffd8a3"/>
                </g>
                <path id="Path_16420" data-name="Path 16420" d="M3053.585,5978.87c.427-2.03,1.949-3.494,3.4-3.27s2.284,2.053,1.858,4.083-3.143,3.274-4.6,3.05S3053.159,5980.9,3053.585,5978.87Z" transform="translate(-3032.942 -5961.536)" fill="#ffd8a3"/>
              </g>
              <path id="Path_16421" data-name="Path 16421" d="M2998.1,6018.245l.406,4.517s1.26-.162,1.52-.733a15.856,15.856,0,0,0,.792-4.572Z" transform="translate(-2994.148 -5983.27)" fill="#ffab00"/>
              <path id="Path_16422" data-name="Path 16422" d="M2998.391,6018.967l.363,4.011s.93-.107,1.124-.367a11.269,11.269,0,0,0,.762-4.326Z" transform="translate(-2994.351 -5983.853)" fill="#fff"/>
              <path id="Path_16423" data-name="Path 16423" d="M3000.661,5970.548a1.094,1.094,0,0,1,.262-.731c.443-.489,4.305.593,4.277,1.394l-.018.5c-.021.577-1.178,0-2.327-.133-1.1-.122-2.194.231-2.194-.312Z" transform="translate(-2995.949 -5949.647)" fill="#2d356b"/>
              <path id="Path_16424" data-name="Path 16424" d="M3005.814,5984.183c-.039-.669.3-1.269.749-1.339s.852.416.892,1.084-.295,1.269-.748,1.339S3005.854,5984.853,3005.814,5984.183Z" transform="translate(-2999.575 -5958.898)" fill="#2d356b"/>
              <path id="Path_16425" data-name="Path 16425" d="M3006.97,6016.99c-.023-.155.045-.294.155-.311s.216.095.24.249-.045.294-.153.312S3006.994,6017.146,3006.97,6016.99Z" transform="translate(-3000.388 -5982.721)" fill="#ffab00"/>
              <g id="Group_11976" data-name="Group 11976" transform="translate(3.399 6.801)">
                <path id="Path_16426" data-name="Path 16426" d="M3040,5934.389c-3.681.405,2.74,16.882.913,18.152s.075,2.569,1.045,2.156c2.223-.944,2.435-5.678,2.474-8.688C3044.475,5942.656,3040.311,5934.354,3040,5934.389Z" transform="translate(-3026.227 -5931.593)" fill="#0080af"/>
                <g id="Group_11975" data-name="Group 11975">
                  <path id="Path_16427" data-name="Path 16427" d="M2998.757,5927.355c-.067-.99,3.429-2.035,7.808-2.331s7.984.264,8.051,1.254-3.428,2.032-7.809,2.33S2998.824,5928.345,2998.757,5927.355Z" transform="translate(-2998.008 -5924.945)" fill="#0080af"/>
                  <path id="Path_16428" data-name="Path 16428" d="M2997.841,5933.628c4.678,2.936,9.917,2.72,13.949,1.921,0,0-9.431.268-13.133-2.456Z" transform="translate(-2997.364 -5930.681)" fill="#0080af"/>
                  <path id="Path_16429" data-name="Path 16429" d="M2999.083,5931.1c1.568,3.769,4.963,4.408,7.873,4.257,0,0-6.055-1.275-7.109-4.667Z" transform="translate(-2998.238 -5928.992)" fill="#0080af"/>
                  <path id="Path_16430" data-name="Path 16430" d="M2996.246,5927.822c-.28,3.788,2.732,5.688,5.507,6.738,0,0-4.689-3.3-4.1-6.749Z" transform="translate(-2996.228 -5926.963)" fill="#0080af"/>
                  <path id="Path_16431" data-name="Path 16431" d="M3002.53,5933.429c4.974,2.4,10.158,1.607,14.078.368,0,0-9.343,1.31-13.325-.989Z" transform="translate(-3000.665 -5930.479)" fill="#0080af"/>
                </g>
              </g>
            </g>
          </g>
          <g id="Group_11981" data-name="Group 11981" transform="translate(0 63.32)">
            <g id="Group_11979" data-name="Group 11979">
              <rect id="Rectangle_3700" data-name="Rectangle 3700" width="52.084" height="36.08" rx="4.936" transform="translate(0.399)" fill="#ebebeb"/>
              <rect id="Rectangle_3701" data-name="Rectangle 3701" width="52.882" height="2.604" transform="translate(0 37.149)" fill="#ebebeb"/>
              <rect id="Rectangle_3702" data-name="Rectangle 3702" width="2.604" height="6.253" transform="translate(7.055 32.222)" fill="#ebebeb"/>
              <rect id="Rectangle_3703" data-name="Rectangle 3703" width="2.604" height="6.253" transform="translate(43.141 32.222)" fill="#ebebeb"/>
            </g>
            <g id="Group_11980" data-name="Group 11980" transform="translate(20.326 10.886)">
              <path id="Path_16432" data-name="Path 16432" d="M2824,6158.76a6.115,6.115,0,1,1,6.114,6.116A6.122,6.122,0,0,1,2824,6158.76Zm2.33,0a3.785,3.785,0,1,0,3.784-3.784A3.789,3.789,0,0,0,2826.327,6158.76Z" transform="translate(-2823.997 -6152.646)" fill="#7b88ac"/>
            </g>
          </g>
        </g>
        <g id="Group_11983" data-name="Group 11983" transform="translate(0 103.309)">
          <path id="Path_16433" data-name="Path 16433" d="M2512.972,6261.548l-282.554-3,6.89,35.086H2506.53Z" transform="translate(-2217.667 -6256.302)" fill="#2d356b"/>
          <path id="Path_16434" data-name="Path 16434" d="M2492.464,6250.961H2187.347l4.443,8.031,297.71-2.678Z" transform="translate(-2187.347 -6250.961)" fill="#7b88ac"/>
        </g>
      </g>
      <g id="Group_11986" data-name="Group 11986" transform="translate(179.614 167.953)">
        <rect id="Rectangle_3705" data-name="Rectangle 3705" width="52.05" height="30.377" rx="6.672" fill="#fff" stroke="#231f20" stroke-miterlimit="10" stroke-width="0.25"/>
        <text id="Akiko" transform="translate(12.525 18.688)" fill="#2d356b" font-size="10" font-family="TrebuchetMS-Bold, Trebuchet MS" font-weight="700"><tspan x="0" y="0">Akiko</tspan></text>
      </g>
      <g id="Group_11987" data-name="Group 11987" transform="translate(255.561 167.953)">
        <rect id="Rectangle_3706" data-name="Rectangle 3706" width="47.711" height="30.377" rx="6.672" fill="#fff" stroke="#231f20" stroke-miterlimit="10" stroke-width="0.25"/>
        <text id="Dan" transform="translate(15.025 18.688)" fill="#2d356b" font-size="10" font-family="TrebuchetMS-Bold, Trebuchet MS" font-weight="700"><tspan x="0" y="0">Dan</tspan></text>
      </g>
      <text id="Agenda:_1._Monthly_sales_figures_2._KPIs_3._Trade_show" data-name="Agenda:

1.    Monthly sales figures

2.    KPIs

3.    Trade show" transform="translate(86.876 44.933)" fill="#7b88ac" font-size="14" font-family="TrebuchetMS-Bold, Trebuchet MS" font-weight="700"><tspan x="0" y="0">Agenda:</tspan><tspan fill="#2d356b"><tspan x="0" y="12"></tspan></tspan><tspan x="0" y="24" xml:space="preserve">1.    </tspan><tspan y="24" fill="#2d356b">Monthly sales figures</tspan><tspan fill="#2d356b"><tspan x="0" y="36"></tspan></tspan><tspan x="0" y="48">2.</tspan><tspan y="48" xml:space="preserve" fill="#2d356b">    KPIs</tspan><tspan fill="#2d356b"><tspan x="0" y="60"></tspan></tspan><tspan x="0" y="72">3.</tspan><tspan y="72" xml:space="preserve" fill="#2d356b">    Trade show</tspan></text>
      <g id="Group_11990" data-name="Group 11990" transform="translate(65.518 175.671)">
        <g id="Group_11988" data-name="Group 11988">
          <rect id="Rectangle_3707" data-name="Rectangle 3707" width="52.084" height="36.08" rx="4.936" transform="translate(0.399)" fill="#ebebeb"/>
          <rect id="Rectangle_3708" data-name="Rectangle 3708" width="52.882" height="2.604" transform="translate(0 37.149)" fill="#ebebeb"/>
          <rect id="Rectangle_3709" data-name="Rectangle 3709" width="2.604" height="6.253" transform="translate(43.223 32.222)" fill="#ebebeb"/>
          <rect id="Rectangle_3710" data-name="Rectangle 3710" width="2.604" height="6.253" transform="translate(7.137 32.222)" fill="#ebebeb"/>
        </g>
        <g id="Group_11989" data-name="Group 11989" transform="translate(20.326 10.886)">
          <path id="Path_16435" data-name="Path 16435" d="M2471.356,6165.169a6.116,6.116,0,1,1,6.114-6.117A6.123,6.123,0,0,1,2471.356,6165.169Zm0-9.9a3.784,3.784,0,1,0,3.785,3.783A3.788,3.788,0,0,0,2471.356,6155.269Z" transform="translate(-2465.241 -6152.938)" fill="#7b88ac"/>
        </g>
      </g>
      <g id="Group_11985" data-name="Group 11985" transform="translate(30.81 167.953)">
        <rect id="Rectangle_3704" data-name="Rectangle 3704" width="52.05" height="30.376" rx="6.672" fill="#fff" stroke="#231f20" stroke-miterlimit="10" stroke-width="0.25"/>
        <text id="Helen" transform="translate(12.525 18.688)" fill="#2d356b" font-size="10" font-family="TrebuchetMS-Bold, Trebuchet MS" font-weight="700"><tspan x="0" y="0">Helen</tspan></text>
      </g>
    </g>
    <ellipse id="Ellipse_608" data-name="Ellipse 608" cx="15.223" cy="14.148" rx="15.223" ry="14.148" transform="translate(1383.763 5417.446) rotate(-29.144)" fill="#fff" stroke="#ebebeb" stroke-miterlimit="10" stroke-width="1"/>
    <ellipse id="Ellipse_609" data-name="Ellipse 609" cx="9.021" cy="8.384" rx="9.021" ry="8.384" transform="translate(1406.173 5396.974) rotate(-29.144)" fill="#fff" stroke="#ebebeb" stroke-miterlimit="10" stroke-width="1"/>
    <ellipse id="Ellipse_610" data-name="Ellipse 610" cx="6.478" cy="6.021" rx="6.478" ry="6.021" transform="translate(1427.506 5387.386) rotate(-29.144)" fill="#fff" stroke="#ebebeb" stroke-miterlimit="10" stroke-width="1"/>
  </g>
</svg>
