<svg xmlns="http://www.w3.org/2000/svg" width="478.8" height="395.522" viewBox="0 0 478.8 395.522">
  <g id="Group_18880" data-name="Group 18880" transform="translate(-95.41 -4917.609)">
    <rect id="Rectangle_843" data-name="Rectangle 843" width="380.719" height="337.528" transform="translate(95.91 4937.593)" fill="#fff4ba" stroke="#9999a5" stroke-miterlimit="10" stroke-width="1"/>
    <rect id="Rectangle_844" data-name="Rectangle 844" width="368.832" height="287.14" transform="translate(101.854 4970.014)" fill="#fff" stroke="#9999a5" stroke-miterlimit="10" stroke-width="1"/>
    <text id="Subject:_" data-name="Subject: " transform="translate(120.907 5024.811)" fill="#7b88ac" font-size="14" font-family="TrebuchetMS-Bold, Trebuchet MS" font-weight="700"><tspan x="0" y="0">Subject: </tspan></text>
    <text id="Re:_Japan_region_report" data-name="Re: Japan region report" transform="translate(187.917 5024.811)" fill="#2d356b" font-size="14" font-family="TrebuchetMS-Bold, Trebuchet MS" font-weight="700"><tspan x="0" y="0">Re: Japan region report</tspan></text>
    <text id="Hi_John_I_hope_you_re_doing_well._Here_is_the_sales_report_of_the_Japan_region._Please_________________._Regards_Akiko_" data-name="Hi John,

I hope you’re doing well.

Here is the sales report of the Japan region.

Please ________________.

Regards,
Akiko
" transform="translate(131.538 5070.11)" fill="#2d356b" font-size="14" font-family="TrebuchetMS-Bold, Trebuchet MS" font-weight="700"><tspan x="0" y="0">Hi John,</tspan><tspan x="0" y="16"></tspan><tspan x="0" y="32">I hope you’re doing well.</tspan><tspan x="0" y="48"></tspan><tspan x="0" y="64">Here is the sales report of the Japan region.</tspan><tspan x="0" y="80"></tspan><tspan x="0" y="96">Please ________________.</tspan><tspan x="0" y="112"></tspan><tspan x="0" y="128">Regards,</tspan><tspan x="0" y="144">Akiko</tspan><tspan font-family="TrebuchetMS-Bold"><tspan x="0" y="160"></tspan></tspan></text>
    <text id="To:" transform="translate(120.907 4997.506)" fill="#7b88ac" font-size="14" font-family="TrebuchetMS-Bold, Trebuchet MS" font-weight="700"><tspan x="0" y="0">To:</tspan></text>
    <text id="johnsmith_abc.com" data-name="johnsmith@abc.com" transform="translate(152.886 4997.506)" fill="#2d356b" font-size="14" font-family="TrebuchetMS-Bold, Trebuchet MS" font-weight="700"><tspan x="0" y="0">johnsmith@abc.com</tspan></text>
    <line id="Line_121" data-name="Line 121" x2="274.3" transform="translate(120.103 5003.646)" fill="#fff" stroke="#9999a5" stroke-miterlimit="10" stroke-width="1"/>
    <line id="Line_122" data-name="Line 122" x2="274.3" transform="translate(120.103 5030.283)" fill="#fff" stroke="#9999a5" stroke-miterlimit="10" stroke-width="1"/>
    <g id="Group_18752" data-name="Group 18752" transform="translate(118.356 5241.275)">
      <path id="Path_23054" data-name="Path 23054" d="M336.7,4101.009l26.453-15.031L327.03,4097.06Z" transform="translate(-327.03 -4085.978)" fill="#9ea9fc"/>
      <path id="Path_23055" data-name="Path 23055" d="M380.538,4107.069l10.635,6.434,6.695-27.525Z" transform="translate(-361.746 -4085.978)" fill="#9ea9fc"/>
      <path id="Path_23056" data-name="Path 23056" d="M354.162,4111.575l26.593-25.6L354.3,4101.009Z" transform="translate(-344.633 -4085.978)" fill="#2d356b"/>
      <path id="Path_23057" data-name="Path 23057" d="M363.425,4107.069l17.33-21.091-26.593,25.6Z" transform="translate(-344.633 -4085.978)" fill="#40558e"/>
    </g>
    <g id="Group_18762" data-name="Group 18762" transform="translate(425.154 5177.859)">
      <g id="Group_18760" data-name="Group 18760" transform="translate(18.331)">
        <g id="Group_18758" data-name="Group 18758">
          <g id="Group_18757" data-name="Group 18757">
            <g id="Group_18753" data-name="Group 18753" transform="translate(8.676 2.784)">
              <path id="Path_23058" data-name="Path 23058" d="M1280.106,3991.2c-8.065-8.252,5.088-9.668,4.695-16.689s-1.987-4.853-2.847-13.925,1.644-12.366,1.962-17.626-2.967-13.989.225-20.567,4.963-4.273,7.737-9.5,5.119.622,9.441,3.091,9.674-10.071,17.236-5.033,6.579,14.8,8.741,20.351,9.746,7.966,10.679,17.813-4.468,7.484-2.185,14.327,9.06,6.462,9.993,16.311c0,0,.663,9.872-10.312,9.081s-7.686,5.173-19.519,1.066-8.1,6.52-16.4,2.337S1287.31,3998.568,1280.106,3991.2Z" transform="translate(-1277.484 -3909.737)" fill="#2d356b"/>
            </g>
            <g id="Group_18754" data-name="Group 18754" transform="translate(0 34.115)">
              <path id="Path_23059" data-name="Path 23059" d="M1333.825,3998.946l-10.135,6.366-1.819,21.918,8.143-2.946Z" transform="translate(-1297.605 -3998.946)" fill="#f7c371"/>
              <path id="Path_23060" data-name="Path 23060" d="M1286.468,4129.562c-.3-22.458,18.787-48.837,2.994-58.991-16.769-10.78-36.682,39-36.682,39,12.287,10.265,5.645,19.984,5.645,19.984" transform="translate(-1252.78 -4044.424)" fill="#9999a5"/>
              <path id="Path_23061" data-name="Path 23061" d="M1324.169,4067l-2.946-.346-13.168,12.388,3.9,3.292S1320.791,4073.326,1324.169,4067Z" transform="translate(-1288.643 -4042.877)" fill="#fff"/>
              <path id="Path_23062" data-name="Path 23062" d="M1292.179,4082.172c-.064-.044-.121-.089-.184-.134,3.475-6.933,11.07-17.55,18.4-16.868C1303.723,4071.125,1292.179,4082.172,1292.179,4082.172Z" transform="translate(-1278.223 -4041.892)" fill="#f7c371"/>
            </g>
            <g id="Group_18756" data-name="Group 18756" transform="translate(9.167)">
              <g id="Group_18755" data-name="Group 18755">
                <path id="Path_23063" data-name="Path 23063" d="M1313.159,3947.6c5.4-1.484,16.288-3.214,21.531-11.376,6.816-10.61,5.085-17.173,2.813-25.158-4.332-15.222-30.3-8.094-28.672-3.61C1310.985,3913.408,1293.571,3952.973,1313.159,3947.6Z" transform="translate(-1295.015 -3901.811)" fill="#2d356b"/>
                <path id="Path_23064" data-name="Path 23064" d="M1291.363,3961.156c-1.971,0-5.5-10.182-6.547-17.992-.347-2.575,2.426-2.877,2.252-11.662-.1-5.158,2.279-12.3,10.915-17.417,8.153-4.835,8.758,11.168,9.457,14.865,1.99,10.532,4.679,17.146,1.979,22.242C1304.144,3961.143,1293.492,3960.648,1291.363,3961.156Z" transform="translate(-1282.713 -3909.188)" fill="#ffd8a3"/>
                <path id="Path_23065" data-name="Path 23065" d="M1303.076,4009.929a.455.455,0,0,0-.41-.494.479.479,0,0,0-.394.523.456.456,0,0,0,.412.493A.477.477,0,0,0,1303.076,4009.929Z" transform="translate(-1294.058 -3971.637)" fill="#ffab00"/>
                <path id="Path_23066" data-name="Path 23066" d="M1301.418,3969.445c-.047-1.385-.858-2.468-1.808-2.421s-1.687,1.211-1.64,2.6.857,2.469,1.809,2.421S1301.465,3970.831,1301.418,3969.445Z" transform="translate(-1291.265 -3944.119)" fill="#2d356b"/>
                <path id="Path_23067" data-name="Path 23067" d="M1300.606,3969.343c-1.334-1.917-3.236-3.829-6.861-2.56A13.249,13.249,0,0,1,1300.606,3969.343Z" transform="translate(-1288.525 -3943.698)" fill="#2d356b"/>
                <path id="Path_23068" data-name="Path 23068" d="M1292.843,4026.553c-.059-.322-1.048.817-1.517.858-1.327.113-.948,1.8.375,1.556C1292.218,4028.87,1292.9,4026.893,1292.843,4026.553Z" transform="translate(-1286.42 -3982.706)" fill="#f36973"/>
                <path id="Path_23069" data-name="Path 23069" d="M1292.555,4010.015c.9-.357-5.167-2.1-4.068-.048C1288.889,4010.37,1292.094,4010.2,1292.555,4010.015Z" transform="translate(-1285.027 -3971.344)" fill="#f36973"/>
                <path id="Path_23070" data-name="Path 23070" d="M1293.543,3948.042c2.245-.452,7.133-.849,9.735,5.08C1300.655,3949.529,1298.621,3948.186,1293.543,3948.042Z" transform="translate(-1288.394 -3931.656)" fill="#2d356b"/>
                <path id="Path_23071" data-name="Path 23071" d="M1280.269,3985.869l3.049.933.11-7.789-4.545,5.544Z" transform="translate(-1278.883 -3951.9)" fill="#ffd8a3"/>
                <path id="Path_23072" data-name="Path 23072" d="M1283.934,4002.359l-2.37-4.822,2.289-.083Z" transform="translate(-1280.622 -3963.864)" fill="#ffd8a3"/>
                <path id="Path_23073" data-name="Path 23073" d="M1289.268,4017.742a57.493,57.493,0,0,1-1.5-6.762h5.508S1292.178,4016.812,1289.268,4017.742Z" transform="translate(-1284.645 -3972.639)" fill="#ffab00"/>
                <path id="Path_23074" data-name="Path 23074" d="M1292.211,4014.693h-3.137c-.182-.849-.349-1.739-.5-2.659h4.5Z" transform="translate(-1285.168 -3973.323)" fill="#fff"/>
                <path id="Path_23075" data-name="Path 23075" d="M1361.607,3981.032c-.125-2.4-.937-4.174.885-4.264s3.407,1.785,3.531,4.191-1.258,4.425-3.084,4.517S1361.729,3983.437,1361.607,3981.032Z" transform="translate(-1332.367 -3950.44)" fill="#f7c371"/>
              </g>
              <path id="Path_23076" data-name="Path 23076" d="M1311.438,3912.759c5.784,8.741,15.92,21.521,13.481,33.976,5.128-13.26,2.84-30.948-5.958-38.231C1318.035,3909.834,1310.159,3909.433,1311.438,3912.759Z" transform="translate(-1299.913 -3906.153)" fill="#2d356b"/>
            </g>
          </g>
        </g>
        <g id="Group_18759" data-name="Group 18759" transform="translate(20.148 61.514)">
          <path id="Path_23077" data-name="Path 23077" d="M1357,4077.129c9.811-3.786,22.058,57.955,21.652,60.158,0,0-6.083,5.174-7.645,3.052C1366.969,4134.851,1352.624,4078.819,1357,4077.129Z" transform="translate(-1340.015 -4076.962)" fill="#cecfd7"/>
          <path id="Path_23078" data-name="Path 23078" d="M1310.552,4248.253c-4.646-6.514,32.368-13.748,34.072-13.855,0,0,4.761,3.369,3.695,5.058C1343.67,4246.823,1312.627,4251.163,1310.552,4248.253Z" transform="translate(-1310.149 -4179.105)" fill="#cecfd7"/>
        </g>
      </g>
      <g id="Group_18761" data-name="Group 18761" transform="translate(3 104.262)">
        <rect id="Rectangle_845" data-name="Rectangle 845" width="71.147" height="31.023" rx="6.672" transform="translate(8 -0.138)" fill="#fff" stroke="#231f20" stroke-miterlimit="10" stroke-width="0.25"/>
        <text id="Akiko" transform="translate(30.574 18.873)" fill="#2d356b" font-size="10" font-family="TrebuchetMS-Bold, Trebuchet MS" font-weight="700"><tspan x="0" y="0">Akiko</tspan></text>
      </g>
    </g>
    <g id="Group_18764" data-name="Group 18764" transform="translate(300 4918.136)">
      <g id="Group_18763" data-name="Group 18763">
        <path id="Path_23079" data-name="Path 23079" d="M1351.068,3602.13c-8.948,16.869-2.623,34.783,15.537,41.483,19.29,7.117,44.789-1.054,57.72-18.27,9.583,9.144,24.376,16.067,41.489,18.316,31.545,4.145,59.015-9.157,61.357-29.712a26.105,26.105,0,0,0-1.548-12.074c26.575,7.356,42.535-1.444,49.81-24.745,5.368-17.193-7.913-47.011-46.411-52.07-4.908-.646-9.725-1.035-14.4-1.19.117-.569,1.583-3.811-.273-9.386-8.071-24.232-38.642-27.515-70.786-21.892-27.066,4.734-40.938,20.688-47.553,35.029,0,0-41.887-27.627-57.115,28.886C1338.9,3556.5,1328.911,3585.362,1351.068,3602.13Z" transform="translate(-1302.883 -3490.22)" fill="#fff" stroke="#ebebeb" stroke-miterlimit="10" stroke-width="1"/>
        <ellipse id="Ellipse_132" data-name="Ellipse 132" cx="10.19" cy="11.073" rx="10.19" ry="11.073" transform="translate(207.706 169.934) rotate(-84)" fill="#fff" stroke="#ebebeb" stroke-miterlimit="10" stroke-width="1"/>
        <ellipse id="Ellipse_133" data-name="Ellipse 133" cx="6.039" cy="6.562" rx="6.039" ry="6.562" transform="translate(209.18 210.165) rotate(-84)" fill="#fff" stroke="#ebebeb" stroke-miterlimit="10" stroke-width="1"/>
        <ellipse id="Ellipse_134" data-name="Ellipse 134" cx="5.165" cy="5.613" rx="5.165" ry="5.613" transform="translate(200.405 241.115) rotate(-84)" fill="#fff" stroke="#ebebeb" stroke-miterlimit="10" stroke-width="1"/>
      </g>
      <text id="Maybe_John_will_have_some_questions_about_the_sales_report._" data-name="Maybe John will have 
some questions about 
the sales report.
" transform="translate(77.073 74.675)" font-size="14" font-family="TrebuchetMS-Bold, Trebuchet MS" font-weight="700"><tspan x="0" y="0">Maybe John will have </tspan><tspan x="0" y="16">some questions about </tspan><tspan x="0" y="32">the sales report.</tspan><tspan font-family="TrebuchetMS-Bold"><tspan x="0" y="48"></tspan></tspan></text>
    </g>
    <g id="Group_18765" data-name="Group 18765" transform="translate(96.015 4937.598)">
      <rect id="Rectangle_846" data-name="Rectangle 846" width="54.958" height="32.422" transform="translate(54.958 32.422) rotate(-180)" fill="#ebebeb"/>
    </g>
    <text id="_2" data-name="2" transform="translate(106.338 4960.114)" fill="#2d356b" font-size="26" font-family="TrebuchetMS-Bold, Trebuchet MS" font-weight="700"><tspan x="0" y="0">2</tspan></text>
  </g>
</svg>
