<svg xmlns="http://www.w3.org/2000/svg" width="544" height="358.129" viewBox="0 0 544 358.129">
  <g id="Group_17414" data-name="Group 17414" transform="translate(-30 -3711.258)">
    <g id="Rectangle_5949" data-name="Rectangle 5949" transform="translate(30 3711.258)" fill="#fff" stroke="#707070" stroke-width="1">
      <rect width="544" height="334" rx="7" stroke="none"/>
      <rect x="0.5" y="0.5" width="543" height="333" rx="6.5" fill="none"/>
    </g>
    <g id="Group_17252" data-name="Group 17252" transform="translate(64.598 3685.621)">
      <g id="Group_17040" data-name="Group 17040" transform="translate(-8.539 204.056)">
        <g id="Group_17038" data-name="Group 17038">
          <g id="Group_17036" data-name="Group 17036">
            <g id="Group_17035" data-name="Group 17035">
              <g id="Group_17031" data-name="Group 17031" transform="translate(0 3.219)">
                <path id="Path_4153" data-name="Path 4153" d="M755.568,7951.994c9.326-9.543-5.883-11.18-5.429-19.3s2.3-5.611,3.292-16.1-1.9-14.3-2.27-20.384,3.431-16.176-.26-23.782-5.739-4.941-8.947-10.988-5.92.719-10.917,3.574-11.187-11.645-19.931-5.819S703.5,7876.312,701,7882.726s-11.27,9.212-12.349,20.6,5.166,8.655,2.527,16.568-10.477,7.473-11.555,18.862c0,0-.767,11.416,11.924,10.5s8.888,5.981,22.571,1.232,9.371,7.54,18.966,2.7S747.237,7960.519,755.568,7951.994Z" transform="translate(-679.611 -7857.798)" fill="#2d356b"/>
              </g>
              <g id="Group_17032" data-name="Group 17032" transform="translate(39.361 39.449)">
                <path id="Path_4154" data-name="Path 4154" d="M795.679,7947.007l11.721,7.363,2.1,25.344-9.417-3.406Z" transform="translate(-787.902 -7947.007)" fill="#f7c371"/>
                <path id="Path_4155" data-name="Path 4155" d="M787.234,8087.084c.348-25.97-21.725-56.474-3.462-68.215,19.391-12.466,42.418,45.1,42.418,45.1-14.208,11.871-6.529,23.109-6.529,23.109" transform="translate(-776.528 -7988.635)" fill="#9999a5"/>
                <path id="Path_4156" data-name="Path 4156" d="M797.654,8015.117l3.406-.4,15.227,14.325-4.508,3.807S801.561,8022.429,797.654,8015.117Z" transform="translate(-789.074 -7987.217)" fill="#fff"/>
                <path id="Path_4157" data-name="Path 4157" d="M828.263,8032.9c.074-.052.14-.1.213-.155-4.019-8.017-12.8-20.295-21.281-19.506C814.914,8020.122,828.263,8032.9,828.263,8032.9Z" transform="translate(-794.741 -7986.316)" fill="#f7c371"/>
              </g>
              <g id="Group_17034" data-name="Group 17034" transform="translate(26.96)">
                <g id="Group_17033" data-name="Group 17033">
                  <path id="Path_4158" data-name="Path 4158" d="M776.475,7902.816c-6.25-1.715-18.834-3.717-24.9-13.154-7.882-12.269-5.88-19.858-3.253-29.092,5.008-17.6,35.032-9.36,33.155-4.174C778.988,7863.282,799.126,7909.033,776.475,7902.816Z" transform="translate(-745.995 -7849.871)" fill="#2d356b"/>
                  <path id="Path_4159" data-name="Path 4159" d="M815.619,7916.718c2.279,0,6.355-11.775,7.571-20.806.4-2.978-2.805-3.327-2.6-13.486.118-5.964-2.636-14.219-12.622-20.141-9.428-5.591-10.128,12.915-10.935,17.19-2.3,12.179-5.411,19.828-2.288,25.721C800.838,7916.7,813.156,7916.131,815.619,7916.718Z" transform="translate(-774.161 -7856.625)" fill="#ffd8a3"/>
                  <path id="Path_4160" data-name="Path 4160" d="M847.028,7958.065a.524.524,0,0,1,.474-.57.552.552,0,0,1,.455.605.525.525,0,0,1-.477.569A.55.55,0,0,1,847.028,7958.065Z" transform="translate(-805.996 -7913.786)" fill="#ffab00"/>
                  <path id="Path_4161" data-name="Path 4161" d="M843.793,7917.884c.054-1.6.992-2.854,2.091-2.8s1.951,1.4,1.9,3-.991,2.855-2.091,2.8S843.739,7919.486,843.793,7917.884Z" transform="translate(-804.074 -7888.599)" fill="#2d356b"/>
                  <path id="Path_4162" data-name="Path 4162" d="M838.308,7917.866c1.542-2.216,3.742-4.427,7.934-2.959A15.326,15.326,0,0,0,838.308,7917.866Z" transform="translate(-800.817 -7888.213)" fill="#2d356b"/>
                  <path id="Path_4163" data-name="Path 4163" d="M854.413,7974.62c.068-.371,1.211.946,1.754.992,1.535.132,1.1,2.087-.434,1.8C855.135,7977.3,854.342,7975.015,854.413,7974.62Z" transform="translate(-810.379 -7923.917)" fill="#f36973"/>
                  <path id="Path_4164" data-name="Path 4164" d="M851.117,7958.236c-1.039-.413,5.975-2.434,4.705-.056C855.357,7958.646,851.65,7958.448,851.117,7958.236Z" transform="translate(-808.362 -7913.518)" fill="#f36973"/>
                  <path id="Path_4165" data-name="Path 4165" d="M841.584,7896.138c-2.6-.522-8.248-.98-11.258,5.875C833.359,7897.857,835.712,7896.306,841.584,7896.138Z" transform="translate(-796.077 -7877.188)" fill="#2d356b"/>
                  <path id="Path_4166" data-name="Path 4166" d="M863.418,7935l-3.526,1.079-.127-9.007,5.256,6.412Z" transform="translate(-813.56 -7895.719)" fill="#ffd8a3"/>
                  <path id="Path_4167" data-name="Path 4167" d="M863.276,7951.187l2.741-5.577-2.647-.095Z" transform="translate(-815.645 -7906.672)" fill="#ffd8a3"/>
                  <path id="Path_4168" data-name="Path 4168" d="M852.772,7966.859a66.539,66.539,0,0,0,1.74-7.818h-6.369S849.408,7965.784,852.772,7966.859Z" transform="translate(-806.658 -7914.704)" fill="#ffab00"/>
                  <path id="Path_4169" data-name="Path 4169" d="M851.2,7963.169h3.628c.21-.982.4-2.01.582-3.075h-5.2Z" transform="translate(-807.881 -7915.33)" fill="#fff"/>
                  <path id="Path_4170" data-name="Path 4170" d="M781.972,7929.759c.144-2.779,1.084-4.827-1.023-4.931s-3.939,2.064-4.082,4.846,1.455,5.117,3.566,5.223S781.832,7932.54,781.972,7929.759Z" transform="translate(-764.324 -7894.384)" fill="#f7c371"/>
                </g>
                <path id="Path_4171" data-name="Path 4171" d="M812.535,7861.485c-6.689,10.108-18.41,24.886-15.59,39.288-5.93-15.333-3.284-35.788,6.889-44.21C804.905,7858.1,814.013,7857.638,812.535,7861.485Z" transform="translate(-774.4 -7853.845)" fill="#2d356b"/>
              </g>
            </g>
          </g>
          <g id="Group_17037" data-name="Group 17037" transform="translate(21.027 71.133)">
            <path id="Path_4172" data-name="Path 4172" d="M756.435,8025.215c-11.345-4.379-25.508,67.019-25.038,69.566,0,0,7.034,5.981,8.841,3.528C744.912,8091.963,761.5,8027.17,756.435,8025.215Z" transform="translate(-731.385 -8025.021)" fill="#cecfd7"/>
            <path id="Path_4173" data-name="Path 4173" d="M776.167,8198.481c5.372-7.533-37.429-15.9-39.4-16.023,0,0-5.5,3.9-4.272,5.85C737.871,8196.826,773.768,8201.844,776.167,8198.481Z" transform="translate(-731.938 -8118.519)" fill="#cecfd7"/>
          </g>
        </g>
      </g>
      <g id="Group_17062" data-name="Group 17062" transform="translate(391.35 198.228)">
        <path id="Path_4177" data-name="Path 4177" d="M1836.142,7868.931c-7.746-14.442,14.855-36.869,26.759-32.962,0,0,25.787-6.471,28.662,38.792.126,2-7.783,3.857-6.711,8.023s.586,3.79-.936,6.223-5.925.549-6.448,2.181c-1.437,4.487,6.966,5.386,8.824,2.689,0,0-16.4,16.564-30.865-1.446C1854.6,7891.4,1838.182,7872.734,1836.142,7868.931Z" transform="translate(-1802.432 -7835.519)" fill="#fff4ba"/>
        <g id="Group_17060" data-name="Group 17060" transform="translate(25.659 6.279)">
          <g id="Group_17058" data-name="Group 17058">
            <g id="Group_17057" data-name="Group 17057">
              <g id="Group_17050" data-name="Group 17050" transform="translate(0 35.299)">
                <path id="Path_4178" data-name="Path 4178" d="M1901.546,7937.9l-11.721,7.363-2.1,25.345,9.417-3.406Z" transform="translate(-1859.662 -7937.896)" fill="#f7c371"/>
                <path id="Path_4179" data-name="Path 4179" d="M1857.587,8077.974c-.348-25.971,21.725-56.474,3.462-68.215-19.391-12.466-42.418,45.1-42.418,45.1,14.208,11.871,6.528,23.11,6.528,23.11" transform="translate(-1818.631 -7979.524)" fill="#c3e8e6"/>
                <path id="Path_4180" data-name="Path 4180" d="M1892.54,8006.006l-3.406-.4-15.227,14.325,4.508,3.806S1888.633,8013.319,1892.54,8006.006Z" transform="translate(-1851.458 -7978.107)" fill="#fff"/>
                <path id="Path_4181" data-name="Path 4181" d="M1858.059,8023.786c-.074-.051-.141-.1-.213-.154,4.018-8.018,12.8-20.3,21.281-19.507C1871.408,8011.011,1858.059,8023.786,1858.059,8023.786Z" transform="translate(-1841.92 -7977.207)" fill="#f7c371"/>
              </g>
              <g id="Group_17056" data-name="Group 17056" transform="translate(10.286)">
                <g id="Group_17055" data-name="Group 17055">
                  <g id="Group_17054" data-name="Group 17054">
                    <g id="Group_17053" data-name="Group 17053">
                      <g id="Group_17052" data-name="Group 17052">
                        <g id="Group_17051" data-name="Group 17051" transform="translate(0 4)">
                          <path id="Path_4182" data-name="Path 4182" d="M1858.463,7913.038c-2.105.2-6.882-10.334-8.78-18.573-.626-2.717,2.306-3.316,1.249-12.684-.62-5.5,1.216-13.363,9.935-19.692,8.231-5.974,10.465,11.063,11.578,14.945,3.17,11.055,6.7,17.854,4.32,23.566C1872.117,7911.756,1860.687,7912.284,1858.463,7913.038Z" transform="translate(-1847.306 -7860.831)" fill="#ffd8a3"/>
                          <path id="Path_4183" data-name="Path 4183" d="M1867.8,7952.6a.488.488,0,0,0-.488-.486.514.514,0,0,0-.369.6c.034.3.252.517.489.485A.51.51,0,0,0,1867.8,7952.6Z" transform="translate(-1857.608 -7915.037)" fill="#ffab00"/>
                          <path id="Path_4184" data-name="Path 4184" d="M1863.47,7915.384c-.187-1.477-1.161-2.552-2.172-2.408s-1.683,1.46-1.5,2.935,1.161,2.553,2.172,2.407S1863.657,7916.859,1863.47,7915.384Z" transform="translate(-1853.349 -7891.791)" fill="#2d356b"/>
                          <path id="Path_4185" data-name="Path 4185" d="M1862.937,7915.294c-1.615-1.915-3.837-3.77-7.584-2.054A14.221,14.221,0,0,1,1862.937,7915.294Z" transform="translate(-1850.725 -7891.552)" fill="#2d356b"/>
                          <path id="Path_4186" data-name="Path 4186" d="M1860.155,7968.479c-.1-.338-1.039.976-1.536,1.066-1.406.252-.834,2.022.556,1.625C1859.717,7971.017,1860.254,7968.837,1860.155,7968.479Z" transform="translate(-1852.183 -7924.728)" fill="#f36973"/>
                          <path id="Path_4187" data-name="Path 4187" d="M1858.592,7953.488c.924-.471-5.729-1.735-4.352.353C1854.71,7954.231,1858.118,7953.729,1858.592,7953.488Z" transform="translate(-1849.953 -7915.376)" fill="#f36973"/>
                          <path id="Path_4188" data-name="Path 4188" d="M1853.529,7895.887c2.354-.706,7.536-1.614,10.906,4.462C1861.275,7896.77,1858.969,7895.537,1853.529,7895.887Z" transform="translate(-1849.642 -7881.348)" fill="#2d356b"/>
                          <path id="Path_4189" data-name="Path 4189" d="M1845.569,7932.635l3.35.694-.655-8.333-4.306,6.375Z" transform="translate(-1843.958 -7898.938)" fill="#ffd8a3"/>
                          <path id="Path_4190" data-name="Path 4190" d="M1849.694,7947.59l-3.011-4.917,2.438-.315Z" transform="translate(-1845.577 -7909.247)" fill="#ffd8a3"/>
                          <path id="Path_4191" data-name="Path 4191" d="M1855.83,7961.158a61.8,61.8,0,0,1-2.278-7.075l5.884-.546S1858.847,7959.876,1855.83,7961.158Z" transform="translate(-1849.656 -7915.887)" fill="#ffab00"/>
                          <path id="Path_4192" data-name="Path 4192" d="M1858.541,7957.613l-3.351.311q-.418-1.334-.8-2.791l4.809-.446Z" transform="translate(-1850.152 -7916.57)" fill="#fff"/>
                          <path id="Path_4193" data-name="Path 4193" d="M1919.477,7921.284c-.371-2.555-1.415-4.366.522-4.644s3.817,1.57,4.188,4.127-.906,4.853-2.847,5.131S1919.846,7923.842,1919.477,7921.284Z" transform="translate(-1888.442 -7893.958)" fill="#f7c371"/>
                        </g>
                        <path id="Path_4194" data-name="Path 4194" d="M1869.5,7850.993c1.9,5.993,7.429,21.078,16.277,23.435,0,0,4.2-13.9-4.222-18.344C1870.93,7850.464,1869.5,7850.993,1869.5,7850.993Z" transform="translate(-1859.13 -7850.98)" fill="#fff4ba"/>
                      </g>
                    </g>
                  </g>
                </g>
              </g>
            </g>
          </g>
          <g id="Group_17059" data-name="Group 17059" transform="translate(23.299 66.983)">
            <path id="Path_4195" data-name="Path 4195" d="M1922.984,8016.1c11.345-4.377,25.508,67.019,25.038,69.566,0,0-7.034,5.982-8.841,3.529C1934.507,8082.853,1917.918,8018.059,1922.984,8016.1Z" transform="translate(-1903.338 -8015.912)" fill="#54ccca"/>
            <path id="Path_4196" data-name="Path 4196" d="M1876.467,8189.371c-5.372-7.532,37.429-15.9,39.4-16.021,0,0,5.505,3.9,4.273,5.849C1914.763,8187.716,1878.866,8192.734,1876.467,8189.371Z" transform="translate(-1876 -8109.41)" fill="#54ccca"/>
          </g>
        </g>
      </g>
      <g id="Group_17049" data-name="Group 17049" transform="translate(31 3)">
        <g id="Group_17048" data-name="Group 17048" transform="translate(0 40)">
          <g id="Group_17047" data-name="Group 17047">
            <rect id="Rectangle_5811" data-name="Rectangle 5811" width="279" height="81.603" rx="11.604" fill="#fff" stroke="#231f20" stroke-miterlimit="10" stroke-width="0.25"/>
            <path id="Path_4176" data-name="Path 4176" d="M699.712,7572.988,690.827,7657l26.882-84.008Z" transform="translate(-654.087 -7491.381)" fill="#fff" stroke="#231f20" stroke-miterlimit="10" stroke-width="0.25"/>
          </g>
        </g>
      </g>
      <g id="Group_17046" data-name="Group 17046" transform="translate(120.049 109.132)">
        <g id="Group_17045" data-name="Group 17045">
          <g id="Group_17044" data-name="Group 17044">
            <rect id="Rectangle_5810" data-name="Rectangle 5810" width="332.494" height="81.603" rx="11.604" fill="#fff" stroke="#231f20" stroke-miterlimit="10" stroke-width="0.25"/>
            <path id="Path_4175" data-name="Path 4175" d="M1713.171,7807.847l42.712,30.446-24.714-30.446Z" transform="translate(-1462.041 -7726.239)" fill="#fff" stroke="#231f20" stroke-miterlimit="10" stroke-width="0.25"/>
          </g>
        </g>
      </g>
      <g id="Group_17043" data-name="Group 17043" transform="translate(106.989 176.03)">
        <g id="Group_17042" data-name="Group 17042" transform="translate(0)">
          <g id="Group_17041" data-name="Group 17041">
            <path id="Path_4174" data-name="Path 4174" d="M1009.756,8001.48l-66.748,20.475h66.748Z" transform="translate(-973.614 -7974.648)" fill="#fff" stroke="#231f20" stroke-miterlimit="10" stroke-width="0.25"/>
            <rect id="Rectangle_5809" data-name="Rectangle 5809" width="103.016" height="54.312" rx="11.604" transform="translate(32.147 2)" fill="#fff" stroke="#231f20" stroke-miterlimit="10" stroke-width="0.25"/>
          </g>
        </g>
      </g>
    </g>
    <g id="Group_17411" data-name="Group 17411">
      <g id="Group_17410" data-name="Group 17410" transform="translate(0 1313.387)">
        <g id="Rectangle_5946" data-name="Rectangle 5946" transform="translate(77 2707)" fill="#fff" stroke="#707070" stroke-width="1">
          <rect width="465" height="49" rx="7" stroke="none"/>
          <rect x="0.5" y="0.5" width="464" height="48" rx="6.5" fill="none"/>
        </g>
      </g>
    </g>
  </g>
</svg>
