<svg xmlns="http://www.w3.org/2000/svg" width="523" height="175.31" viewBox="0 0 523 175.31"><g transform="translate(-3.653 -9226.262)"><g transform="translate(44.653 9252.207)"><g transform="translate(0)"><rect width="120.16" height="111.657" transform="translate(0.696 35.708)" fill="#fff" stroke="#ebebeb" stroke-miterlimit="10" stroke-width="4"/><rect width="121.552" height="35.707" fill="#2d356b" stroke="#cfd0d8" stroke-miterlimit="10" stroke-width="4"/></g><g transform="translate(121.552)"><rect width="122.484" height="111.658" transform="translate(0 35.707)" fill="#fff" stroke="#ebebeb" stroke-miterlimit="10" stroke-width="4"/><rect width="122.484" height="35.707" fill="#2d356b" stroke="#cfd0d8" stroke-miterlimit="10" stroke-width="4"/></g><g transform="translate(244.036)"><rect width="122.483" height="111.658" transform="translate(0 35.707)" fill="#fff" stroke="#ebebeb" stroke-miterlimit="10" stroke-width="4"/><rect width="122.483" height="35.707" fill="#2d356b" stroke="#cfd0d8" stroke-miterlimit="10" stroke-width="4"/></g><g transform="translate(366.52)"><rect width="113.48" height="111.658" transform="translate(0 35.707)" fill="#fff" stroke="#ebebeb" stroke-miterlimit="10" stroke-width="4"/><rect width="113.48" height="35.707" fill="#2d356b" stroke="#cfd0d8" stroke-miterlimit="10" stroke-width="4"/></g><text transform="translate(182.794 25.047)" fill="#fff" font-size="20" font-family="TrebuchetMS-Bold, Trebuchet MS" font-weight="700"><tspan x="-28.052" y="0">12 PM</tspan></text><text transform="translate(305.278 25.047)" fill="#fff" font-size="20" font-family="TrebuchetMS-Bold, Trebuchet MS" font-weight="700"><tspan x="-22.192" y="0">3 PM</tspan></text><text transform="translate(423.26 25.047)" fill="#fff" font-size="20" font-family="TrebuchetMS-Bold, Trebuchet MS" font-weight="700"><tspan x="-22.192" y="0">6 PM</tspan></text><text transform="translate(60.311 25.047)" fill="#fff" font-size="20" font-family="TrebuchetMS-Bold, Trebuchet MS" font-weight="700"><tspan x="-22.104" y="0">9 AM</tspan></text><text transform="translate(32.544 108.777)" fill="#2d356b" font-size="14" font-family="TrebuchetMS-Bold, Trebuchet MS" font-weight="700"><tspan x="0" y="0">Email the </tspan><tspan x="0" y="16">clients</tspan></text></g><g transform="translate(75.153 9303.288)"><rect width="58.113" height="27.601" rx="6.672" transform="translate(0 0)" fill="#f46973"/><text transform="translate(29.056 18.801)" fill="#fff" font-size="14" font-family="TrebuchetMS-Bold, Trebuchet MS" font-weight="700"><tspan x="-15.781" y="0">NOW</tspan></text></g><g transform="translate(20.6 9228.262)"><g transform="translate(-14.947)"><circle cx="27.053" cy="27.053" r="27.053" fill="#fff" stroke="#9999a5" stroke-miterlimit="10" stroke-width="4"/><text transform="translate(24.819 38.216)" fill="#2d356b" font-size="35" font-family="TrebuchetMS-Bold, Trebuchet MS" font-weight="700"><tspan x="-10.254" y="0">4</tspan></text></g></g><ellipse cx="38.892" cy="26.835" rx="38.892" ry="26.835" transform="translate(314.279 9338.843)" fill="none" stroke="#f46973" stroke-miterlimit="10" stroke-width="7"/><g transform="translate(178.63 9341.087)"><path d="M1119.126,4314.475l-24.867-24.6v49.183Z" transform="translate(-990.326 -4289.875)" fill="#f46973"/><rect width="105.933" height="16.482" transform="translate(0 16.35)" fill="#f46973"/></g></g></svg>