<svg xmlns="http://www.w3.org/2000/svg" width="533.658" height="336.904" viewBox="0 0 533.658 336.904">
  <g id="Group_18767" data-name="Group 18767" transform="translate(-31 -5421.025)">
    <g id="Group_18476" data-name="Group 18476" transform="translate(50.695 5426.005)">
      <rect id="Rectangle_6314" data-name="Rectangle 6314" width="496.515" height="267.632" rx="7" transform="translate(16.948 16.948)" fill="#fff" stroke="#9999a5" stroke-miterlimit="10" stroke-width="1"/>
      <g id="Group_18776" data-name="Group 18776" transform="translate(58.981 34.086)">
        <g id="Group_18255" data-name="Group 18255" transform="translate(0 0.184)">
          <g id="Group_18250" data-name="Group 18250">
            <rect id="Rectangle_6206" data-name="Rectangle 6206" width="70.509" height="41.746" transform="translate(0.49 25.156)" fill="#fff" stroke="#ebebeb" stroke-miterlimit="10" stroke-width="4"/>
            <rect id="Rectangle_6207" data-name="Rectangle 6207" width="64.489" height="25.156" fill="#2d356b" stroke="#cfd0d8" stroke-miterlimit="10" stroke-width="4"/>
          </g>
          <g id="Group_18251" data-name="Group 18251" transform="translate(77.999)">
            <rect id="Rectangle_6208" data-name="Rectangle 6208" width="80.877" height="41.746" transform="translate(-7 25.156)" fill="#fff" stroke="#ebebeb" stroke-miterlimit="10" stroke-width="4"/>
            <rect id="Rectangle_6209" data-name="Rectangle 6209" width="73.877" height="25.156" fill="#2d356b" stroke="#cfd0d8" stroke-miterlimit="10" stroke-width="4"/>
          </g>
          <g id="Group_18252" data-name="Group 18252" transform="translate(160.917)">
            <rect id="Rectangle_6210" data-name="Rectangle 6210" width="81.489" height="41.746" transform="translate(-9 25.156)" fill="#fff" stroke="#ebebeb" stroke-miterlimit="10" stroke-width="4"/>
            <rect id="Rectangle_6211" data-name="Rectangle 6211" width="64.489" height="25.156" fill="#2d356b" stroke="#cfd0d8" stroke-miterlimit="10" stroke-width="4"/>
          </g>
          <g id="Group_18253" data-name="Group 18253" transform="translate(241.683)">
            <rect id="Rectangle_6212" data-name="Rectangle 6212" width="80.489" height="41.746" transform="translate(-9 25.156)" fill="#fff" stroke="#ebebeb" stroke-miterlimit="10" stroke-width="4"/>
            <rect id="Rectangle_6213" data-name="Rectangle 6213" width="64.489" height="25.156" fill="#2d356b" stroke="#cfd0d8" stroke-miterlimit="10" stroke-width="4"/>
          </g>
          <g id="Group_18254" data-name="Group 18254" transform="translate(322.449)">
            <rect id="Rectangle_6214" data-name="Rectangle 6214" width="74.489" height="41.746" transform="translate(-10 25.156)" fill="#fff" stroke="#ebebeb" stroke-miterlimit="10" stroke-width="4"/>
            <rect id="Rectangle_6215" data-name="Rectangle 6215" width="64.489" height="25.156" fill="#2d356b" stroke="#cfd0d8" stroke-miterlimit="10" stroke-width="4"/>
          </g>
          <text id="TUESDAY" transform="translate(111.438 48.899)" fill="#2c356b" font-size="12" font-family="TrebuchetMS-Bold, Trebuchet MS" font-weight="700"><tspan x="-25.017" y="0">TUESDAY</tspan></text>
          <text id="WEDNESDAY" transform="translate(192.662 48.899)" fill="#2c356b" font-size="12" font-family="TrebuchetMS-Bold, Trebuchet MS" font-weight="700"><tspan x="-33.855" y="0">WEDNESDAY</tspan></text>
          <text id="THURSDAY" transform="translate(271.508 48.899)" fill="#f46973" font-size="12" font-family="TrebuchetMS-Bold, Trebuchet MS" font-weight="700"><tspan x="-29.37" y="0">THURSDAY</tspan></text>
          <text id="FRIDAY" transform="translate(349.693 48.899)" fill="#2c356b" font-size="12" font-family="TrebuchetMS-Bold, Trebuchet MS" font-weight="700"><tspan x="-19.635" y="0">FRIDAY</tspan></text>
          <text id="MONDAY" transform="translate(36.058 48.899)" fill="#2c356b" font-size="12" font-family="TrebuchetMS-Bold, Trebuchet MS" font-weight="700"><tspan x="-23.493" y="0">MONDAY</tspan></text>
        </g>
        <rect id="Rectangle_6216" data-name="Rectangle 6216" width="386.938" height="25.156" fill="#2d356b" stroke="#cfd0d8" stroke-miterlimit="10" stroke-width="4"/>
        <text id="Last_week" data-name="Last week" transform="translate(47.962 19.291)" fill="#fff" font-size="16" font-family="TrebuchetMS-Bold, Trebuchet MS" font-weight="700"><tspan x="-37.559" y="0">Last week</tspan></text>
      </g>
    </g>
    <g id="Group_18512" data-name="Group 18512" transform="translate(318.263 5508.821)">
      <g id="Group_18484" data-name="Group 18484" transform="translate(0 6)">
        <rect id="Rectangle_6326" data-name="Rectangle 6326" width="194.761" height="133.56" rx="7" transform="translate(0 24.519)" fill="#fff" stroke="#ebebeb" stroke-miterlimit="10" stroke-width="2"/>
        <path id="Path_4723" data-name="Path 4723" d="M1764.84,6702.542h15.516l-9.175-21.926Z" transform="translate(-1710.079 -6678.024)" fill="#fff" stroke="#ebebeb" stroke-miterlimit="10" stroke-width="2"/>
      </g>
      <g id="Group_18511" data-name="Group 18511" transform="translate(25.85 32.768)">
        <g id="Group_18492" data-name="Group 18492" transform="translate(0 16.311)">
          <g id="Group_18487" data-name="Group 18487">
            <path id="Path_4724" data-name="Path 4724" d="M1829.453,6880.913H1717.4a6.442,6.442,0,0,0-6.442,6.44v56.906a6.442,6.442,0,0,0,6.442,6.442h112.056a6.443,6.443,0,0,0,6.444-6.442v-56.906A6.443,6.443,0,0,0,1829.453,6880.913Z" transform="translate(-1710.892 -6880.913)" fill="#495bd9"/>
            <g id="Group_18486" data-name="Group 18486" transform="translate(0 5.319)">
              <path id="Path_4725" data-name="Path 4725" d="M1710.669,6906.715v51.741h124.942v-51.741a6.6,6.6,0,0,0-.108-1.171H1710.777A6.484,6.484,0,0,0,1710.669,6906.715Z" transform="translate(-1710.669 -6905.543)" fill="#4e4e4e"/>
              <g id="Group_18485" data-name="Group 18485" transform="translate(53.237 64.519)">
                <path id="Path_4726" data-name="Path 4726" d="M1975.576,7211.109s-.785-.815-1.773-1.7-.849-1.534-.849-1.534l-.267-3.527h-12.464l-.265,3.527s.139.649-.85,1.534-1.773,1.7-1.773,1.7a1.033,1.033,0,0,0-.114.477c0,.278.165.292.848.292h16.772c.684,0,.848-.014.848-.292A1.039,1.039,0,0,0,1975.576,7211.109Z" transform="translate(-1957.221 -7204.347)" fill="#d0d2d3"/>
                <path id="Path_4727" data-name="Path 4727" d="M1975.576,7211.233s-.785-.815-1.773-1.7-.849-1.535-.849-1.535l-.267-3.527h-12.464l-.265,3.527s.139.65-.85,1.535-1.773,1.7-1.773,1.7a1.033,1.033,0,0,0-.114.477c0,.279.165.292.848.292h16.772c.684,0,.848-.013.848-.292A1.039,1.039,0,0,0,1975.576,7211.233Z" transform="translate(-1957.221 -7204.445)" fill="#cdccce"/>
              </g>
            </g>
          </g>
          <g id="Group_18491" data-name="Group 18491" transform="translate(0.16 5.27)">
            <g id="Group_18490" data-name="Group 18490" transform="translate(0 0)">
              <g id="Group_18489" data-name="Group 18489" transform="translate(0)">
                <g id="Group_18488" data-name="Group 18488">
                  <rect id="Rectangle_6327" data-name="Rectangle 6327" width="52.943" height="124.532" transform="matrix(0.002, -1, 1, 0.002, 0, 52.943)" fill="#fff"/>
                </g>
              </g>
            </g>
          </g>
        </g>
        <g id="Group_18495" data-name="Group 18495" transform="translate(20.914 93.461)">
          <g id="Group_18494" data-name="Group 18494" transform="translate(0 0)">
            <rect id="Rectangle_6328" data-name="Rectangle 6328" width="106.641" height="3.266" rx="1.391" transform="translate(106.641 3.266) rotate(180)" fill="#2d356b"/>
            <g id="Group_18493" data-name="Group 18493" transform="translate(4.41 3.266)">
              <path id="Path_4728" data-name="Path 4728" d="M2224.734,7256.3h7.5a2.816,2.816,0,0,0,2.636-2.967H2222.1A2.817,2.817,0,0,0,2224.734,7256.3Z" transform="translate(-2136.991 -7253.33)" fill="#7b88ac"/>
              <path id="Path_4729" data-name="Path 4729" d="M1830.586,7256.3h7.5a2.816,2.816,0,0,0,2.636-2.967H1827.95A2.816,2.816,0,0,0,1830.586,7256.3Z" transform="translate(-1827.95 -7253.33)" fill="#7b88ac"/>
            </g>
          </g>
          <rect id="Rectangle_6329" data-name="Rectangle 6329" width="4.282" height="12.42" transform="translate(8.459 6.232)" fill="#cfd0d8"/>
        </g>
        <text id="bizmates_I_read_throws_IOException_if_sampleIt.hasNext_return_sampleIt.next_else_S_inSample_samples.read_if_inSample_null_List_T_outSamples_read_inSample_if_outSamples_null_sampleIt_" data-name="bizmates I read() throws IOException {

  if (sampleIt.hasNext()) {
   return sampleIt.next();
  }
  else {
   S inSample = samples.read();

   if (inSample != null) {
    List&lt;T&gt; outSamples = read(inSample);

    if (outSamples != null) {
     sampleIt = " transform="translate(62.502 27.892)" fill="#7b88ac" font-size="3" font-family="TrebuchetMS-Bold, Trebuchet MS" font-weight="700"><tspan x="0" y="0">bizmates I read() throws IOException {</tspan><tspan x="0" y="2"></tspan><tspan x="0" y="4" xml:space="preserve">  if (sampleIt.hasNext()) {</tspan><tspan x="0" y="6" xml:space="preserve">   return sampleIt.next();</tspan><tspan x="0" y="8" xml:space="preserve">  }</tspan><tspan x="0" y="10" xml:space="preserve">  else {</tspan><tspan x="0" y="12" xml:space="preserve">   S inSample = samples.read();</tspan><tspan x="0" y="14"></tspan><tspan x="0" y="16" xml:space="preserve">   if (inSample != null) {</tspan><tspan x="0" y="18" xml:space="preserve">    List&lt;T&gt; outSamples = read(inSample);</tspan><tspan x="0" y="20"></tspan><tspan x="0" y="22" xml:space="preserve">    if (outSamples != null) {</tspan><tspan x="0" y="24" xml:space="preserve">     sampleIt = outSamples.iterator();</tspan><tspan x="0" y="26" xml:space="preserve">    }</tspan><tspan x="0" y="28"></tspan><tspan x="0" y="30" xml:space="preserve">    return read();</tspan><tspan x="0" y="32" xml:space="preserve">   }</tspan><tspan x="0" y="34" xml:space="preserve">  }</tspan><tspan x="0" y="36"></tspan><tspan x="0" y="38" xml:space="preserve">  return null;</tspan><tspan x="0" y="40" xml:space="preserve"> }</tspan><tspan x="0" y="42">}</tspan></text>
        <rect id="Rectangle_6330" data-name="Rectangle 6330" width="33.968" height="1.635" transform="translate(49.999 92.43)" fill="#495bd9"/>
        <g id="Group_18509" data-name="Group 18509" transform="translate(72.131)">
          <g id="Group_18498" data-name="Group 18498" transform="translate(9.241)">
            <g id="Group_18496" data-name="Group 18496" transform="translate(11.769)">
              <path id="Path_4730" data-name="Path 4730" d="M2159.852,6849.129c-.08-3.026,4.511-9.121,1.935-9.986-2.306-.775-7.266,1.289-4.372,9.988Z" transform="translate(-2153.399 -6831.733)" fill="#f8c471"/>
              <path id="Path_4731" data-name="Path 4731" d="M2156.541,6834.208c3.977,1.622,6.1-3.092,6.412-4.719.346-1.789-2.31-3.823-3.785-3.537S2155.023,6833.589,2156.541,6834.208Z" transform="translate(-2153.051 -6821.486)" fill="#f8c471"/>
              <path id="Path_4732" data-name="Path 4732" d="M2146.348,6826.752c-1.054-2.231-3.385-4.273-4.141-3.659-.855.69,1.495,2.077,1.933,4.311.477,2.42.911,3.915,1.891,3.77S2147.406,6828.986,2146.348,6826.752Z" transform="translate(-2142.021 -6819.179)" fill="#f8c471"/>
              <path id="Path_4733" data-name="Path 4733" d="M2163.577,6810.036c.392-2.088.1-3.258-.486-3.283s-.73,1.175-1.125,3.263-1.43,4.653-.843,4.681S2163.18,6812.122,2163.577,6810.036Z" transform="translate(-2156.861 -6806.455)" fill="#f8c471"/>
              <path id="Path_4734" data-name="Path 4734" d="M2175.292,6809.617c.834-2.019.632-4.1.076-4.241s-.865,1.883-1.7,3.9-1.263,3.368-.708,3.5S2174.457,6811.633,2175.292,6809.617Z" transform="translate(-2166.085 -6805.37)" fill="#f8c471"/>
              <path id="Path_4735" data-name="Path 4735" d="M2182.639,6822.9c.751-2.047.691-3.343.132-3.463s-.791,1.311-1.539,3.355-1.245,3.487-.684,3.61S2181.889,6824.946,2182.639,6822.9Z" transform="translate(-2172.04 -6816.395)" fill="#f8c471"/>
            </g>
            <g id="Group_18497" data-name="Group 18497" transform="translate(0 15.011)">
              <path id="Path_4736" data-name="Path 4736" d="M2099.638,6984.692c2.434-.65,6.448,31.4,3.006,33.808,0,0-11.143,10.208-15.127-3.95C2087.518,7014.55,2089.819,6987.321,2099.638,6984.692Z" transform="translate(-2087.518 -6960.976)" fill="#9999a5"/>
              <path id="Path_4737" data-name="Path 4737" d="M2145.233,7004.546a49.327,49.327,0,0,1-2.576,15.743,17.087,17.087,0,0,0,2.456-1.788c3.442-2.413-.573-34.458-3.007-33.808-.143.039-.284.083-.425.132C2143.945,6988.835,2145.387,6996.208,2145.233,7004.546Z" transform="translate(-2129.986 -6960.976)" fill="#2d356b"/>
              <path id="Path_4738" data-name="Path 4738" d="M2156.527,6875.128l.607,3.814-5.276-.554,1.268-3.5Z" transform="translate(-2137.966 -6874.892)" fill="#eaeaea"/>
              <path id="Path_4739" data-name="Path 4739" d="M2122.811,6917.167s6.149-10.8,6.616-31.625a7.485,7.485,0,0,0-5.876-.574s-7.586,16.5-7.638,27.193C2115.914,6912.162,2119.6,6919.1,2122.811,6917.167Z" transform="translate(-2109.783 -6882.54)" fill="#9999a5"/>
              <path id="Path_4740" data-name="Path 4740" d="M2150.1,6904.894a80.025,80.025,0,0,1-3.317,12.622c.078-.037.156-.073.233-.119,0,0,6.149-10.8,6.617-31.625a6.423,6.423,0,0,0-2.571-.834C2151.86,6889.41,2151.583,6896.781,2150.1,6904.894Z" transform="translate(-2133.983 -6882.768)" fill="#2d356b"/>
              <path id="Path_4741" data-name="Path 4741" d="M2160.913,6907.315a.88.88,0,1,0,.879.794A.84.84,0,0,0,2160.913,6907.315Z" transform="translate(-2144.506 -6900.311)" fill="#2d356b"/>
            </g>
          </g>
          <g id="Group_18504" data-name="Group 18504" transform="translate(0 20.278)">
            <g id="Group_18500" data-name="Group 18500" transform="translate(0 27.322)">
              <g id="Group_18499" data-name="Group 18499">
                <path id="Path_4742" data-name="Path 4742" d="M2124.617,7070.747l.8.436-.057,2.192-2.072.461Z" transform="translate(-2106.325 -7061.045)" fill="#eaeaea"/>
                <path id="Path_4743" data-name="Path 4743" d="M2128.489,7027.471l8.5-1.654-1.779,12.971-12.018,1.463Z" transform="translate(-2106.247 -7025.817)" fill="#ffac00"/>
                <path id="Path_4744" data-name="Path 4744" d="M2048.839,7196.655l14.379,7.143-2.87,22.871-13.512-1.61Z" transform="translate(-2046.38 -7159.767)" fill="#eaeaea"/>
                <path id="Path_4745" data-name="Path 4745" d="M2073.449,7132.253c-9.612-1.829-24.858,5.011-28-6.865-1.7-6.426-.065-16.3,1.364-26.116,1.91-13.12,19.283-27.9,30.274-22.137,15.276,8.012,1.215,27.5-1.6,32.785C2067.249,7125.411,2073.661,7128.54,2073.449,7132.253Z" transform="translate(-2044.721 -7065.05)" fill="#9999a5"/>
                <path id="Path_4746" data-name="Path 4746" d="M2103.446,7170.71c.836-4.273.352-4.892,10.771-18.241,2.021-2.591,5.175-10.8,8.01-17.615,1.058-2.547,4.761,3.29,4.373,9.9-.241,4.1-3.99,8.923-5.066,10.946-8.239,15.49-1.827,18.62-2.039,22.332A34.186,34.186,0,0,1,2103.446,7170.71Z" transform="translate(-2090.766 -7110.832)" fill="#2d356b"/>
                <path id="Path_4747" data-name="Path 4747" d="M2047.02,7111.772c3.953-16.678,19.954-30.866,32.462-33.426,2.1-.43.612-2.206-5.064-2.717C2069.336,7075.194,2047.464,7081.48,2047.02,7111.772Z" transform="translate(-2046.524 -7064.857)" fill="#2d356b"/>
                <path id="Path_4748" data-name="Path 4748" d="M2051.235,7100.8c4.51-13.8,11.162-20.262,24.841-25.223-4.956-.426-25.51,2.619-26.94,30.861C2049.1,7107.157,2050.455,7103.186,2051.235,7100.8Z" transform="translate(-2048.182 -7064.805)" fill="#eaeaea"/>
                <path id="Path_4749" data-name="Path 4749" d="M2048.472,7283c.03-.606.392-1.083.811-1.062s.735.528.706,1.134-.392,1.083-.811,1.062S2048.444,7283.61,2048.472,7283Z" transform="translate(-2047.661 -7226.637)" fill="#2d356b"/>
                <path id="Path_4750" data-name="Path 4750" d="M2050.052,7249.719c.029-.606.392-1.082.811-1.062s.735.527.706,1.134-.391,1.083-.81,1.062S2050.023,7250.325,2050.052,7249.719Z" transform="translate(-2048.899 -7200.54)" fill="#2d356b"/>
                <path id="Path_4751" data-name="Path 4751" d="M2126.629,7075.052l-3.076.469,1.589-2.964.6-.2Z" transform="translate(-2106.531 -7062.312)" fill="#ffac00"/>
                <path id="Path_4752" data-name="Path 4752" d="M2047.07,7114.626l1.955-5.546s.7-18.292,15.222-24.863l-.074-.479C2052.172,7089.483,2046.524,7102.12,2047.07,7114.626Z" transform="translate(-2046.535 -7071.232)" fill="#ffac00"/>
                <path id="Path_4753" data-name="Path 4753" d="M2129.438,7067.284l11.933-.954,1.028,2.546-11.6,2.406Z" transform="translate(-2111.145 -7057.582)" fill="#fff"/>
              </g>
            </g>
            <g id="Group_18503" data-name="Group 18503" transform="translate(16.221)">
              <path id="Path_4754" data-name="Path 4754" d="M2141.114,6928.323c.86,1.051,4.355,1.034,3.868-.615,0,0,3.149-.017,2.029-2.058,0,0,3.978-1.333,2.667-3.037,0,0,4.777-1.25,2.455-2.8,0,0,3.518-2.458.847-3.609,0,0,2.107-3.875-.6-3.954,0,0,2.578-3.283-1.1-3.047,0,0,1.212-5.05-1.349-2.729,0,0-.061-4.09-2.014-2.587,0,0-3.087-5.08-3.141-2,0,0-3.543-4.571-3.664-1.6,0,0-4.882-2.405-3.887,1.041,0,0-5.263.477-2.567,2.713,0,0-5.308,2.181-1.974,3.362,0,0-5.667,2.89-1.4,3.5,0,0-4.147,3.775-.16,3.809,0,0-2.009,5.121,1.943,3.715Z" transform="translate(-2127.329 -6899.283)" fill="#40558e"/>
              <g id="Group_18502" data-name="Group 18502" transform="translate(0 8.19)">
                <path id="Path_4755" data-name="Path 4755" d="M2185.758,6987.41c.588-1.261,1.806-1.984,2.72-1.615s1.177,1.69.589,2.949a3.079,3.079,0,0,1-3.467,1.29C2184.688,6989.664,2185.17,6988.67,2185.758,6987.41Z" transform="translate(-2171.004 -6975.229)" fill="#ffac00"/>
                <g id="Group_18501" data-name="Group 18501">
                  <path id="Path_4756" data-name="Path 4756" d="M2129.253,7005.772l-.534-1.532,1.235-.458Z" transform="translate(-2126.803 -6989.408)" fill="#f8c471"/>
                  <path id="Path_4757" data-name="Path 4757" d="M2139.055,6957.053c-1.029,1.7-7.488,4.435-13.033,3.016.888-7.414,3.666-19.376,5.451-21.142,1.756-1.741,7.424-2.1,7.955-1.343-2.447,1.928-.92,10.378.075,11.333C2141.929,6951.242,2140.128,6955.283,2139.055,6957.053Z" transform="translate(-2124.688 -6937.211)" fill="#f8c471"/>
                  <path id="Path_4758" data-name="Path 4758" d="M2119.845,6982.806a52.557,52.557,0,0,0,4.039-5.567c1.317-2.119-.723,6.255-.723,6.255S2120.546,6983.548,2119.845,6982.806Z" transform="translate(-2119.845 -6968.326)" fill="#f8c471"/>
                  <path id="Path_4759" data-name="Path 4759" d="M2122.595,7036.375a.941.941,0,0,1-.378-1.327,1.134,1.134,0,0,1,1.489-.031.941.941,0,0,1,.378,1.328A1.133,1.133,0,0,1,2122.595,7036.375Z" transform="translate(-2121.585 -7013.695)" fill="#f8c471"/>
                  <path id="Path_4760" data-name="Path 4760" d="M2126.511,7024.433c.012-.151.206-.259.436-.242s.405.154.394.306-.207.259-.435.242S2126.5,7024.584,2126.511,7024.433Z" transform="translate(-2125.071 -7005.408)" fill="#f8c471"/>
                </g>
              </g>
              <path id="Path_4761" data-name="Path 4761" d="M2129.167,7011.367l-.425,3.012s.847.086,1.1-.248a10.63,10.63,0,0,0,1.216-2.863Z" transform="translate(-2126.821 -6987.087)" fill="#ffab00"/>
              <path id="Path_4762" data-name="Path 4762" d="M2129.5,7011.838l-.376,2.674s.624.072.791-.067a7.574,7.574,0,0,0,1.157-2.709Z" transform="translate(-2127.124 -6987.454)" fill="#fff"/>
              <path id="Path_4763" data-name="Path 4763" d="M2142.537,6968a.738.738,0,0,1,.283-.438c.364-.251,2.721,1.045,2.58,1.563l-.089.326c-.1.374-.768-.183-1.5-.443-.7-.248-1.468-.184-1.385-.539Z" transform="translate(-2137.546 -6952.798)" fill="#2d356b"/>
              <path id="Path_4764" data-name="Path 4764" d="M2144.415,6981.279c.077-.443.387-.784.693-.761s.493.4.417.845-.387.783-.693.76S2144.339,6981.722,2144.415,6981.279Z" transform="translate(-2139.096 -6962.977)" fill="#2d356b"/>
              <path id="Path_4765" data-name="Path 4765" d="M2139.156,7010.8c.008-.1.073-.185.148-.179s.127.095.119.2-.073.185-.147.18S2139.147,7010.9,2139.156,7010.8Z" transform="translate(-2134.985 -6986.58)" fill="#ffab00"/>
              <path id="Path_4766" data-name="Path 4766" d="M2181.811,6945.408c-1.193.815-1.616-2.838-.947-3.966,0,0,.786-.123.507-1.363s-1.807-1.763-1.327-2.523-1.519-1.281-1.264-2.482,3,.083,3,.083S2185.01,6943.223,2181.811,6945.408Z" transform="translate(-2166.036 -6926.943)" fill="#40558e"/>
              <path id="Path_4767" data-name="Path 4767" d="M2147.453,6931.39c1.01,1.034-2.514,2.084-3.741,1.622,0,0-.258-.753-1.43-.263s-1.423,2.087-2.254,1.746-1,1.719-2.226,1.677-.44-2.973-.44-2.973S2144.746,6928.621,2147.453,6931.39Z" transform="translate(-2133.385 -6923.76)" fill="#40558e"/>
            </g>
          </g>
          <g id="Group_18508" data-name="Group 18508" transform="translate(25.573 9.882)">
            <g id="Group_18505" data-name="Group 18505" transform="translate(28.819)">
              <path id="Path_4768" data-name="Path 4768" d="M2296.62,6892.095c2.14-2.491,2.541-10.571,5.25-9.637,2.427.834,5.088,5.768-3.247,11.209Z" transform="translate(-2296.62 -6875.636)" fill="#f8c471"/>
              <path id="Path_4769" data-name="Path 4769" d="M2311.879,6883.644c-4.378-1.2-2.892-6.532-2.036-8.1.942-1.725,4.517-1.721,5.532-.529S2313.553,6884.1,2311.879,6883.644Z" transform="translate(-2306.243 -6869.201)" fill="#f8c471"/>
              <path id="Path_4770" data-name="Path 4770" d="M2325.046,6891.7c2.394-1.192,5.707-1.407,5.908-.4.23,1.134-2.652.78-4.541,2.376-2.049,1.723-3.427,2.7-4.134,1.946S2322.646,6892.9,2325.046,6891.7Z" transform="translate(-2316.57 -6882.127)" fill="#f8c471"/>
              <path id="Path_4771" data-name="Path 4771" d="M2334.508,6863.647c1.108-2.007,2.149-2.8,2.647-2.445s-.2,1.46-1.308,3.466-2.014,4.833-2.513,4.478S2333.407,6865.655,2334.508,6863.647Z" transform="translate(-2325.263 -6858.963)" fill="#f8c471"/>
              <path id="Path_4772" data-name="Path 4772" d="M2325.667,6854.771c.7-2.233,2.289-3.853,2.839-3.611s-.577,2.14-1.274,4.372-1.267,3.643-1.817,3.4S2324.972,6857,2325.667,6854.771Z" transform="translate(-2318.922 -6851.136)" fill="#f8c471"/>
              <path id="Path_4773" data-name="Path 4773" d="M2312.043,6861.6c.785-2.2,1.721-3.253,2.263-2.995s-.249,1.61-1.034,3.81-1.365,3.732-1.909,3.473S2311.258,6863.8,2312.043,6861.6Z" transform="translate(-2307.991 -6856.96)" fill="#f8c471"/>
            </g>
            <g id="Group_18507" data-name="Group 18507" transform="translate(0 15.024)">
              <path id="Path_4774" data-name="Path 4774" d="M2294.348,6922.1l-.675,3.912-5.311-2.326,2.52-2.97Z" transform="translate(-2261.327 -6920.712)" fill="#eaeaea"/>
              <path id="Path_4775" data-name="Path 4775" d="M2187.813,7043.584c2.461,1.255-9.715,23.935-22.01,33.542,0,0-4.473-13.062-1.8-19.918C2164.008,7057.208,2177.882,7038.522,2187.813,7043.584Z" transform="translate(-2163.154 -7016.371)" fill="#9999a5"/>
              <path id="Path_4776" data-name="Path 4776" d="M2241.71,6962.677s5.736-9.045,10.211-30.025a8.571,8.571,0,0,0-6.268-1.563s-12.663,18.107-11.4,27.331C2234.249,6958.42,2237.856,6964.093,2241.71,6962.677Z" transform="translate(-2218.829 -6928.808)" fill="#9999a5"/>
              <g id="Group_18506" data-name="Group 18506" transform="translate(1.694 2.235)">
                <path id="Path_4777" data-name="Path 4777" d="M2235.581,7053.676c-1.145-1.271-2.556-3.194-2.1-3.682C2234.426,7049,2235.581,7053.676,2235.581,7053.676Z" transform="translate(-2219.924 -7024.205)" fill="#2d356b"/>
                <path id="Path_4778" data-name="Path 4778" d="M2171,6968.593c4.588-3.649,10.6-8.143,14.747-10.167.314-9.293,10.714-26.338,11.345-27.364-.31,0-.628.014-.962.047,0,0-11.16,15.958-11.484,25.543C2178.65,6959.579,2173.062,6966.039,2171,6968.593Z" transform="translate(-2171.001 -6931.062)" fill="#2d356b"/>
              </g>
              <path id="Path_4779" data-name="Path 4779" d="M2308.559,6953.156a.9.9,0,0,0-.641,1.677.83.83,0,0,0,.213.063Z" transform="translate(-2276.268 -6946.124)" fill="#7b87ab"/>
            </g>
          </g>
        </g>
        <path id="Path_4780" data-name="Path 4780" d="M2090.111,7104.429a1.883,1.883,0,0,1,.527-.88c2.367-2.159,11.318-2.634,15.892-2.293,14.122,1.053,20.756,4.813,19.308,8.5-10.838,27.59-5.359,35.4-11.1,40.154-3.2,2.647-46.81-3.665-41.466-5.967s8.347-3.723,10.75-15.313C2086.19,7118.153,2089.491,7106.576,2090.111,7104.429Z" transform="translate(-1994.619 -7037.288)" fill="#fff4ba"/>
        <text id="bizmates_I_read_throws_IOException_if_sampleIt.hasNext_return_sampleIt.next_else_S_inSample_samples.read_if_inSample_null_List_T_outSamples_read_inSample_if_outSamples_null_sampleIt_2" data-name="bizmates I read() throws IOException {

  if (sampleIt.hasNext()) {
   return sampleIt.next();
  }
  else {
   S inSample = samples.read();

   if (inSample != null) {
    List&lt;T&gt; outSamples = read(inSample);

    if (outSamples != null) {
     sampleIt = " transform="translate(5.558 27.891)" fill="#2d356b" font-size="3" font-family="TrebuchetMS-Bold, Trebuchet MS" font-weight="700"><tspan x="0" y="0">bizmates I read() throws IOException {</tspan><tspan x="0" y="2"></tspan><tspan x="0" y="4" xml:space="preserve">  if (sampleIt.hasNext()) {</tspan><tspan x="0" y="6" xml:space="preserve">   return sampleIt.next();</tspan><tspan x="0" y="8" xml:space="preserve">  }</tspan><tspan x="0" y="10" xml:space="preserve">  else {</tspan><tspan x="0" y="12" xml:space="preserve">   S inSample = samples.read();</tspan><tspan x="0" y="14"></tspan><tspan x="0" y="16" xml:space="preserve">   if (inSample != null) {</tspan><tspan x="0" y="18" xml:space="preserve">    List&lt;T&gt; outSamples = read(inSample);</tspan><tspan x="0" y="20"></tspan><tspan x="0" y="22" xml:space="preserve">    if (outSamples != null) {</tspan><tspan x="0" y="24" xml:space="preserve">     sampleIt = outSamples.iterator();</tspan><tspan x="0" y="26" xml:space="preserve">    }</tspan><tspan x="0" y="28"></tspan><tspan x="0" y="30" xml:space="preserve">    return read();</tspan><tspan x="0" y="32" xml:space="preserve">   }</tspan><tspan x="0" y="34" xml:space="preserve">  }</tspan><tspan x="0" y="36"></tspan><tspan x="0" y="38" xml:space="preserve">  return null;</tspan><tspan x="0" y="40" xml:space="preserve"> }</tspan><tspan x="0" y="42">}</tspan></text>
        <g id="Group_18510" data-name="Group 18510" transform="translate(5.558 100.683)">
          <path id="Path_4781" data-name="Path 4781" d="M1736.411,7271.652v18.954h147.182l3.514-9.406-3.514-9.548Z" transform="translate(-1743.504 -7271.652)" fill="#ffac00"/>
          <text id="Finished_coding_in_time" data-name="Finished coding in time" transform="translate(68.376 13.743)" fill="#fff" font-size="12" font-family="TrebuchetMS-Bold, Trebuchet MS" font-weight="700"><tspan x="-65.517" y="0">Finished coding in time</tspan></text>
        </g>
      </g>
    </g>
    <g id="Group_18513" data-name="Group 18513" transform="translate(143.017 5683.741)">
      <rect id="Rectangle_6331" data-name="Rectangle 6331" width="396.819" height="73.689" rx="7" transform="translate(0)" fill="#fff" stroke="#9999a5" stroke-miterlimit="10" stroke-width="1"/>
    </g>
    <g id="Group_18514" data-name="Group 18514" transform="translate(448.354 5614.904)">
      <rect id="Rectangle_6332" data-name="Rectangle 6332" width="55.758" height="29.878" rx="6.672" transform="translate(0 -10)" fill="#fff" stroke="#231f20" stroke-miterlimit="10" stroke-width="0.25"/>
      <text id="Anil" transform="translate(16.879 8.939)" fill="#2d356b" font-size="12" font-family="TrebuchetMS-Bold, Trebuchet MS" font-weight="700"><tspan x="0" y="0">Anil</tspan></text>
    </g>
    <g id="Group_18526" data-name="Group 18526" transform="translate(31 5565.14)">
      <g id="Group_18524" data-name="Group 18524" transform="translate(0)">
        <g id="Group_18517" data-name="Group 18517" transform="translate(0 45.253)">
          <path id="Path_4782" data-name="Path 4782" d="M395,7166.482c-2.109-2.227-15.089-2.544-17.894,0l-.072,2.863h17.894Z" transform="translate(-318.885 -7159.909)" fill="#fff"/>
          <path id="Path_4783" data-name="Path 4783" d="M255.863,7276.076s-16.559-65-19.7-88.216c0,0,30.71-23.346,70.754-3.6,0,0-8.6,79.452-10.613,90.938-8.1-3.153-13.807-7.792-19.642-17.041C268.779,7269.073,262.685,7275.226,255.863,7276.076Z" transform="translate(-208.436 -7169.032)" fill="#9999a5"/>
          <path id="Path_4784" data-name="Path 4784" d="M329.469,7231.676s-33.226-22.97-19.943-53.328c0,0,19.4-8.54,39.316-.126C354.334,7204.3,342.034,7221.094,329.469,7231.676Z" transform="translate(-263.498 -7167.611)" fill="#cfd0d8"/>
          <path id="Path_4785" data-name="Path 4785" d="M366.589,7241.653s-19.132-23.2-10.716-53.864c0,0,15.318-1.146,24.011-.129C382.978,7214,374.369,7230.964,366.589,7241.653Z" transform="translate(-300.619 -7177.588)" fill="#fff"/>
          <path id="Path_4786" data-name="Path 4786" d="M393.757,7142.542h-13.7L378,7155.1c7.459,3.887,11.816,3.465,17.627-.849Z" transform="translate(-319.648 -7142.542)" fill="#f7c371"/>
          <path id="Path_4787" data-name="Path 4787" d="M400.492,7210.2l3.335,2.227,3.888-2.545-2.227-3.244-2.6-.064Z" transform="translate(-337.281 -7192.748)" fill="#495bd9"/>
          <path id="Path_4788" data-name="Path 4788" d="M358.6,7176.48l4.172-3.4c1.228,3.511,3.394,5.537,8.556,7.04,0,0-4.146,6.295-6.05,6.129S358.6,7176.48,358.6,7176.48Z" transform="translate(-304.432 -7166.49)" fill="#ebebeb"/>
          <path id="Path_4789" data-name="Path 4789" d="M430.478,7176.356l-4.256-3.373c-1.6,3.434-3.873,5.508-9.444,7.117,0,0,4.016,6.306,6.037,6.13S430.478,7176.356,430.478,7176.356Z" transform="translate(-350.049 -7166.411)" fill="#ebebeb"/>
          <path id="Path_4790" data-name="Path 4790" d="M403.147,7229.067l-1.353.252-3.06,40.928,3.068,4.2,3.185-4.2Z" transform="translate(-335.902 -7210.384)" fill="#495bd9"/>
          <path id="Path_4791" data-name="Path 4791" d="M416.389,7465.429a1.587,1.587,0,1,0-1.587,1.587A1.589,1.589,0,0,0,416.389,7465.429Z" transform="translate(-347.255 -7394.464)" fill="#cfd0d8"/>
          <g id="Group_18515" data-name="Group 18515" transform="translate(81.94 14.948)">
            <path id="Path_4792" data-name="Path 4792" d="M500.127,7601.267c-.441-.595.545-1.494,1.8-2.338s2.3-1.318,2.745-.726-.216,1.76-1.472,2.6S500.57,7601.859,500.127,7601.267Z" transform="translate(-497.258 -7514.554)" fill="#9999a5"/>
            <path id="Path_4793" data-name="Path 4793" d="M508.28,7606.636c-.442-.593.545-1.493,1.8-2.338s2.3-1.32,2.744-.726-.217,1.759-1.473,2.606S508.722,7607.229,508.28,7606.636Z" transform="translate(-503.65 -7518.763)" fill="#9999a5"/>
            <path id="Path_4794" data-name="Path 4794" d="M487.381,7594.89c.534-.537,2.118.6,3.759,2.057s2.723,2.674,2.189,3.213-2.3-.208-3.938-1.666S486.849,7595.425,487.381,7594.89Z" transform="translate(-487.228 -7512.058)" fill="#9999a5"/>
            <path id="Path_4795" data-name="Path 4795" d="M498.17,7555.77c-2.609,1.93-11.281,7.366-9.447,10.329,1.642,2.649,7.392,3.5,11.874-8.443Z" transform="translate(-488.203 -7481.491)" fill="#9999a5"/>
            <path id="Path_4796" data-name="Path 4796" d="M520.6,7541.2l2.53-5.577,7.175,5.765-4.972,3.372Z" transform="translate(-513.392 -7465.696)" fill="#9999a5"/>
            <path id="Path_4797" data-name="Path 4797" d="M572.326,7252.271c3.86-1.843-11.4-20.191-29-40.5,0,0-6.933,13.753-5.044,22.382C538.278,7234.15,556.747,7259.716,572.326,7252.271Z" transform="translate(-526.999 -7211.768)" fill="#9999a5"/>
            <path id="Path_4798" data-name="Path 4798" d="M565.338,7377.132s-8.393,13.164-29.565,37.646c0,0-4.4-1.261-7.377-6.819,0,0,13.322-23.761,22.547-36.006C550.944,7371.952,563.819,7370.982,565.338,7377.132Z" transform="translate(-519.508 -7337.32)" fill="#9999a5"/>
            <path id="Path_4799" data-name="Path 4799" d="M554.247,7536.87a1.278,1.278,0,1,0-1.816.8A1.418,1.418,0,0,0,554.247,7536.87Z" transform="translate(-537.872 -7465.061)" fill="#9999a5"/>
          </g>
          <g id="Group_18516" data-name="Group 18516" transform="translate(0 18.711)">
            <path id="Path_4800" data-name="Path 4800" d="M301.542,7612.983c.329-.608-.642-1.345-1.847-2s-2.184-.982-2.515-.373.379,1.63,1.584,2.286S301.212,7613.591,301.542,7612.983Z" transform="translate(-256.213 -7528)" fill="#9999a5"/>
            <path id="Path_4801" data-name="Path 4801" d="M294.87,7618.955c.33-.606-.642-1.343-1.847-2s-2.183-.984-2.515-.375.379,1.631,1.584,2.288S294.54,7619.563,294.87,7618.955Z" transform="translate(-250.982 -7532.683)" fill="#9999a5"/>
            <path id="Path_4802" data-name="Path 4802" d="M309.192,7604.109c-.531-.443-1.817.806-3.121,2.359s-2.135,2.823-1.6,3.27,2.017-.455,3.321-2.011S309.722,7604.554,309.192,7604.109Z" transform="translate(-261.862 -7523.086)" fill="#9999a5"/>
            <path id="Path_4803" data-name="Path 4803" d="M275.267,7572.27c2.522,1.521,10.8,5.665,9.485,8.659-1.178,2.679-6.2,4.125-11.441-6.611Z" transform="translate(-237.561 -7498.191)" fill="#9999a5"/>
            <path id="Path_4804" data-name="Path 4804" d="M256.6,7557.958l-5.1-3.261,6.647-6.2,2.6,5.337Z" transform="translate(-220.464 -7479.55)" fill="#9999a5"/>
            <path id="Path_4805" data-name="Path 4805" d="M108.507,7270.276c-4.327-.166,10.481-20.53,27.125-41.078,0,0,6.441,9.126,4.908,19.9C140.54,7249.1,124.524,7270.891,108.507,7270.276Z" transform="translate(-107.746 -7229.198)" fill="#9999a5"/>
            <path id="Path_4806" data-name="Path 4806" d="M108.784,7389.979s7.448,14.3,31.4,36.515c0,0,4.407-1.423,7.219-7.09,0,0-14.5-24.477-23.145-36.679C124.256,7382.725,110.091,7383.776,108.784,7389.979Z" transform="translate(-108.56 -7349.574)" fill="#9999a5"/>
            <path id="Path_4807" data-name="Path 4807" d="M246.793,7546.651a1.278,1.278,0,1,0,.268-1.965A1.417,1.417,0,0,0,246.793,7546.651Z" transform="translate(-216.56 -7476.444)" fill="#9999a5"/>
          </g>
        </g>
        <g id="Group_18523" data-name="Group 18523" transform="translate(49.934)">
          <path id="Path_4808" data-name="Path 4808" d="M350.693,6976.884c-1.166-9.63-5.762-30.27-.046-33.595s20.424-2.748,23.039.515c6.882,8.6,1.866,26.079,1.283,33.187Z" transform="translate(-345.932 -6939.312)" fill="#cfd0d8"/>
          <g id="Group_18522" data-name="Group 18522" transform="translate(0 6.032)">
            <g id="Group_18520" data-name="Group 18520">
              <path id="Path_4809" data-name="Path 4809" d="M473.579,7046.006c.287-3,1.629-4.63,2.958-4.63s2.143,1.625,1.857,4.63-2.481,4.4-3.81,4.4S473.293,7049.01,473.579,7046.006Z" transform="translate(-444.392 -7023.999)" fill="#f7c371"/>
              <path id="Path_4810" data-name="Path 4810" d="M344.072,7046.8c-.2-3-1.552-4.63-2.945-4.63s-2.3,1.626-2.1,4.63a4.391,4.391,0,0,0,3.847,4.4C344.268,7051.2,344.272,7049.8,344.072,7046.8Z" transform="translate(-339 -7024.622)" fill="#f7c371"/>
              <g id="Group_18519" data-name="Group 18519" transform="translate(3.024)">
                <g id="Group_18518" data-name="Group 18518">
                  <path id="Path_4811" data-name="Path 4811" d="M353.1,7003.157c.2,1.385,6.542,7.356,13.763,7.356s13.2-5.443,14.458-7.649-3.8-30.3-6.752-32.659-14.83-.8-15.837.442C356.342,6973.589,352.32,6997.715,353.1,7003.157Z" transform="translate(-353.004 -6967.238)" fill="#ffd8a3"/>
                  <path id="Path_4812" data-name="Path 4812" d="M396.643,6964.064c-.517-2.464-3.591-3.164-8.125-3.164s-8.211,1.4-8.211,3.126,3.676,3.125,8.211,3.125S397,6965.762,396.643,6964.064Z" transform="translate(-374.412 -6960.9)" fill="#ffd8a3"/>
                </g>
                <path id="Path_4813" data-name="Path 4813" d="M366.112,6980.888c1.041.431,5.15-8.682,6.011-10.206s.714-3.107-.326-3.537-2.581.456-3.442,1.981S365.072,6980.458,366.112,6980.888Z" transform="translate(-363.082 -6965.711)" fill="#ffd8a3"/>
                <path id="Path_4814" data-name="Path 4814" d="M445.151,6978.8c1.094-.316-1.8-9.564-2.432-11.167s-2.037-2.644-3.132-2.327-1.466,1.874-.832,3.477S444.057,6979.118,445.151,6978.8Z" transform="translate(-419.997 -6964.31)" fill="#ffd8a3"/>
              </g>
            </g>
            <g id="Group_18521" data-name="Group 18521" transform="translate(11.025 28.331)">
              <path id="Path_4815" data-name="Path 4815" d="M392.933,7094.541s.869,5.112,1.725,5.371a23.105,23.105,0,0,0,7.2.127c.955-.209,1.961-5.83,1.961-5.83Z" transform="translate(-392.312 -7093.755)" fill="#ffab00"/>
              <path id="Path_4816" data-name="Path 4816" d="M404.215,7095.6l-10,.258,1.288,4.867c1.123.338,6.758.509,7.543,0Z" transform="translate(-393.319 -7094.842)" fill="#fff"/>
              <path id="Path_4817" data-name="Path 4817" d="M442.783,7092.274c-.075-.174-.358-.222-.636-.1s-.442.353-.367.528.358.222.636.1S442.857,7092.449,442.783,7092.274Z" transform="translate(-430.598 -7092.105)" fill="#ffab00"/>
              <path id="Path_4818" data-name="Path 4818" d="M391.119,7094.771c.048-.184-.15-.4-.44-.472s-.565.01-.615.195.149.394.439.47S391.07,7094.955,391.119,7094.771Z" transform="translate(-390.058 -7093.804)" fill="#ffab00"/>
            </g>
            <path id="Path_4819" data-name="Path 4819" d="M377.912,7020.035a1.109,1.109,0,0,0-.518-.775c-.748-.457-6.3,1.676-6.12,2.584l.117.569c.132.654,1.751-.277,3.44-.691,1.614-.4,3.306-.244,3.209-.864Z" transform="translate(-364.302 -7006.608)" fill="#2d356b"/>
            <path id="Path_4820" data-name="Path 4820" d="M432.462,7021.158a1.09,1.09,0,0,1,.437-.83c.712-.538,6.663.949,6.584,1.871l-.051.581c-.057.665-1.828-.079-3.608-.3-1.7-.209-3.419.132-3.4-.5Z" transform="translate(-412.255 -7007.406)" fill="#2d356b"/>
            <path id="Path_4821" data-name="Path 4821" d="M406.931,7042.293a5.134,5.134,0,0,0,2.322,1.248,3.083,3.083,0,0,0,2.32-1.375c.1-.828-1.59-10.059-2.191-10.145S406.889,7041.09,406.931,7042.293Z" transform="translate(-392.263 -7016.664)" fill="#ffab00"/>
            <path id="Path_4822" data-name="Path 4822" d="M411.646,7039.837c0,.209.961.544,1.3.544.578,0,1.276-.31,1.3-.687.057-.908.518-11.218-1.228-11.119C411.107,7028.681,411.622,7038.518,411.646,7039.837Z" transform="translate(-395.897 -7013.962)" fill="#ffd8a3"/>
            <path id="Path_4823" data-name="Path 4823" d="M389.019,7042.481c0-.792-.438-1.434-.968-1.434s-.955.643-.951,1.434.438,1.433.969,1.433S389.024,7043.273,389.019,7042.481Z" transform="translate(-376.714 -7023.741)" fill="#2d356b"/>
            <path id="Path_4824" data-name="Path 4824" d="M445.56,7042.481c0-.792-.439-1.434-.968-1.434s-.955.643-.951,1.434.438,1.433.969,1.433S445.565,7043.273,445.56,7042.481Z" transform="translate(-421.046 -7023.741)" fill="#2d356b"/>
          </g>
          <path id="Path_4825" data-name="Path 4825" d="M377.92,6939.727c6.961,3.807,21.115,4.773,24.37-6.761,0,0-2.962,5.409-10.236,2.315-5.24-2.23-12.6-2.923-15.572-.774C374.756,6935.753,374.065,6937.619,377.92,6939.727Z" transform="translate(-367.304 -6932.966)" fill="#cfd0d8"/>
        </g>
      </g>
      <g id="Group_18525" data-name="Group 18525" transform="translate(25.827 130.203)">
        <rect id="Rectangle_6333" data-name="Rectangle 6333" width="68.845" height="34.014" rx="6.672" fill="#fff" stroke="#231f20" stroke-miterlimit="10" stroke-width="0.25"/>
        <text id="Ken" transform="translate(23.455 21.007)" fill="#2d356b" font-size="12" font-family="TrebuchetMS-Bold, Trebuchet MS" font-weight="700"><tspan x="0" y="0">Ken</tspan></text>
      </g>
    </g>
    <circle id="Ellipse_139" data-name="Ellipse 139" cx="21.948" cy="21.948" r="21.948" transform="translate(49.579 5421.525)" fill="#fff" stroke="#9999a5" stroke-miterlimit="10" stroke-width="1"/>
    <text id="_4" data-name="4" transform="translate(71.482 5453.974)" fill="#2d356b" font-size="30" font-family="TrebuchetMS-Bold, Trebuchet MS" font-weight="700"><tspan x="-8.789" y="0">4</tspan></text>
  </g>
</svg>
