<svg xmlns="http://www.w3.org/2000/svg" width="544" height="360.5" viewBox="0 0 544 360.5">
  <g id="Group_18413" data-name="Group 18413" transform="translate(-304.89 -7201.344)">
    <g id="Group_18368" data-name="Group 18368" transform="translate(304.89 7201.344)">
      <g id="Group_18260" data-name="Group 18260" transform="translate(0 0)">
        <g id="Group_18259" data-name="Group 18259">
          <g id="Group_18258" data-name="Group 18258">
            <g id="Group_18257" data-name="Group 18257">
              <g id="Group_18256" data-name="Group 18256">
                <g id="Group_18253" data-name="Group 18253" transform="translate(0.564)">
                  <g id="Group_18249" data-name="Group 18249" transform="translate(0.129)">
                    <path id="Path_4298" data-name="Path 4298" d="M849.554,7219.054h.644v-12.643H306.891v264.237H849.549v-26.542h.005Z" transform="translate(-306.891 -7206.042)" fill="#fff"/>
                    <rect id="Rectangle_6208" data-name="Rectangle 6208" width="542.613" height="0.739" transform="translate(0 264.237)" fill="#a0bacb"/>
                    <rect id="Rectangle_6209" data-name="Rectangle 6209" width="543.306" height="0.739" fill="#7b88ac"/>
                  </g>
                  <g id="Group_18250" data-name="Group 18250" transform="translate(0 53.992)">
                    <path id="Path_4299" data-name="Path 4299" d="M401.946,7362.436v-.194H393.66v.194H308.02v161.1H483.893v-161.1Zm74.667,5.173v35.424H401.946v-35.424Zm-82.952,41.537v67.678H315.3v-67.678Zm8.285,67.678v-67.678h74.667v67.678Zm-8.285-109.215v35.424H315.3v-35.424ZM315.3,7482.937H393.66v35.424H315.3Zm86.645,35.424v-35.424h74.667v35.424Z" transform="translate(-307.5 -7361.873)" fill="#ebebeb"/>
                    <path id="Path_4300" data-name="Path 4300" d="M483.432,7523.206H306.518V7361.37h85.641v-.194h9.325v.194h81.948Zm-175.873-.739H482.392V7362.108H400.444v-.194H393.2v.194H307.559Zm168.592-4.433H400.444V7481.87h75.707Zm-74.667-.739H475.11v-34.687H401.484Zm-8.285.739H313.8V7481.87h79.4Zm-78.36-.739h77.319v-34.687H314.84Zm161.311-40.8H400.444V7408.08h75.707Zm-74.667-.739H475.11v-66.938H401.484Zm-8.285.739H313.8V7408.08h79.4Zm-78.36-.739h77.319v-66.938H314.84Zm161.311-73.051H400.444v-36.164h75.707Zm-74.667-.739H475.11v-34.686H401.484Zm-8.285.739H313.8v-36.164h79.4Zm-78.36-.739h77.319v-34.686H314.84Z" transform="translate(-306.518 -7361.175)" fill="#ebebeb"/>
                  </g>
                  <g id="Group_18251" data-name="Group 18251" transform="translate(212.053 53.039)">
                    <path id="Path_4301" data-name="Path 4301" d="M1065.678,7359.684v-.193h-7.6v.193H979.527v161.1h161.316v-161.1Zm68.486,5.173v35.424h-68.486v-35.424Zm-76.085,41.538v67.677H986.206V7406.4Zm7.6,67.677V7406.4h68.486v67.677Zm-7.6-109.215v35.424H986.206v-35.424Zm-71.873,115.329h71.873v35.424H986.206Zm79.473,35.424v-35.424h68.486v35.424Z" transform="translate(-979.05 -7359.121)" fill="#ebebeb"/>
                    <path id="Path_4302" data-name="Path 4302" d="M1140.42,7520.455H978.15V7358.618H1056.7v-.194h8.553v.194h75.165Zm-161.316-.739h160.362V7359.357H1064.3v-.194h-6.645v.194H979.1Zm154.637-4.434H1064.3v-36.164h69.44Zm-68.486-.739h67.532v-34.686h-67.532Zm-7.6.739H984.829v-36.164h72.827Zm-71.873-.739H1056.7v-34.686H985.783Zm147.959-40.8H1064.3v-68.417h69.44Zm-68.486-.74h67.532v-66.938h-67.532Zm-7.6.74H984.829v-68.417h72.827Zm-71.873-.74H1056.7v-66.938H985.783Zm147.959-73.051H1064.3V7363.79h69.44Zm-68.486-.738h67.532v-34.686h-67.532Zm-7.6.738H984.829V7363.79h72.827Zm-71.873-.738H1056.7v-34.686H985.783Z" transform="translate(-978.15 -7358.424)" fill="#ebebeb"/>
                  </g>
                  <g id="Group_18252" data-name="Group 18252" transform="translate(403.921 53.992)">
                    <path id="Path_4303" data-name="Path 4303" d="M1719.261,7518.361H1674.88v-35.424h44.381v-6.113H1674.88v-67.678h44.381v-6.113H1674.88v-35.424h44.381v-5.173H1674.88v-.194h-8.285v.194h-85.641v161.1h138.307Zm-52.667,0h-78.36v-35.424h78.36Zm0-41.538h-78.36v-67.678h78.36Zm0-73.791h-78.36v-35.424h78.36Z" transform="translate(-1580.434 -7361.873)" fill="#ebebeb"/>
                    <path id="Path_4304" data-name="Path 4304" d="M1850.541,7745.687h44.9v-.738h-43.861v-34.686h43.861v-.739h-44.9Z" transform="translate(-1756.616 -7588.829)" fill="#ebebeb"/>
                    <path id="Path_4305" data-name="Path 4305" d="M1850.541,7564.966h44.9v-.739h-43.861v-66.939h43.861v-.739h-44.9Z" transform="translate(-1756.616 -7449.646)" fill="#ebebeb"/>
                    <path id="Path_4306" data-name="Path 4306" d="M1850.541,7412.827h44.9v-.739h-43.861V7377.4h43.861v-.74h-44.9Z" transform="translate(-1756.616 -7371.297)" fill="#ebebeb"/>
                    <path id="Path_4307" data-name="Path 4307" d="M1679.869,7376.664h-79.4v36.164h79.4Zm-1.04,35.425H1601.51V7377.4h77.318Z" transform="translate(-1593.188 -7371.297)" fill="#ebebeb"/>
                    <path id="Path_4308" data-name="Path 4308" d="M1718.281,7522.467H1580.494V7362.108h85.64v-.194h7.245v.194h44.9v-.738H1674.42v-.194h-9.325v.194h-85.64v161.836h138.827Z" transform="translate(-1579.454 -7361.175)" fill="#ebebeb"/>
                    <path id="Path_4309" data-name="Path 4309" d="M1600.47,7745.687h79.4v-36.164h-79.4Zm1.04-35.424h77.318v34.686H1601.51Z" transform="translate(-1593.188 -7588.829)" fill="#ebebeb"/>
                    <path id="Path_4310" data-name="Path 4310" d="M1679.869,7496.548h-79.4v68.417h79.4Zm-1.04,67.678H1601.51v-66.938h77.318Z" transform="translate(-1593.188 -7449.645)" fill="#ebebeb"/>
                  </g>
                </g>
                <g id="Group_18254" data-name="Group 18254" transform="translate(0 232.795)">
                  <path id="Path_4311" data-name="Path 4311" d="M848.2,7878.143H305.539v90.66h-.649v36.624h543.3V7882.005h.005Z" transform="translate(-304.89 -7877.829)" fill="#f9f9f9"/>
                  <rect id="Rectangle_6210" data-name="Rectangle 6210" width="541.405" height="0.53" transform="translate(2.074 126.868)" fill="#f9f9f9"/>
                  <rect id="Rectangle_6211" data-name="Rectangle 6211" width="542.619" height="0.53" transform="translate(0.693)" fill="#f9f9f9"/>
                </g>
                <g id="Group_18255" data-name="Group 18255" transform="translate(31.041 4.659)">
                  <path id="Path_4312" data-name="Path 4312" d="M1313.2,7297.844V7218.79h-1.96v79.054c-6.111.4-10.916,4.517-10.916,9.543,0,5.292,5.327,9.582,11.9,9.582s11.9-4.29,11.9-9.582C1324.112,7302.361,1319.306,7298.246,1313.2,7297.844Z" transform="translate(-986.466 -7218.79)" fill="#c3e8e6"/>
                  <path id="Path_4313" data-name="Path 4313" d="M407.356,7315.867v-79.054H405.4v79.054c-6.111.4-10.916,4.516-10.916,9.542,0,5.292,5.326,9.582,11.9,9.582s11.9-4.29,11.9-9.582C418.273,7320.382,413.467,7316.269,407.356,7315.867Z" transform="translate(-394.48 -7230.568)" fill="#c3e8e6"/>
                  <path id="Path_4314" data-name="Path 4314" d="M726.117,7312.409v-57.475h-1.425v57.475c-4.443.292-7.937,3.284-7.937,6.938,0,3.848,3.873,6.966,8.649,6.966s8.649-3.119,8.649-6.966C734.053,7315.693,730.559,7312.7,726.117,7312.409Z" transform="translate(-605.094 -7242.411)" fill="#c3e8e6"/>
                  <path id="Path_4315" data-name="Path 4315" d="M1591.6,7312.409v-57.475h-1.425v57.475c-4.443.292-7.936,3.284-7.936,6.938,0,3.848,3.872,6.966,8.649,6.966s8.649-3.119,8.649-6.966C1599.54,7315.693,1596.046,7312.7,1591.6,7312.409Z" transform="translate(-1170.71 -7242.411)" fill="#c3e8e6"/>
                </g>
              </g>
            </g>
          </g>
        </g>
      </g>
      <g id="Group_18297" data-name="Group 18297" transform="translate(351.529 155.324)">
        <g id="Group_18269" data-name="Group 18269" transform="translate(0 13.167)">
          <g id="Group_18261" data-name="Group 18261">
            <rect id="Rectangle_6212" data-name="Rectangle 6212" width="28.892" height="1.032" transform="translate(0.263 0.22)" fill="#ebebeb"/>
            <path id="Path_4316" data-name="Path 4316" d="M1422.081,7693.115h-29.418v-1.471h29.418Zm-28.892-.439h28.365v-.593h-28.365Z" transform="translate(-1392.663 -7691.644)" fill="#ebebeb"/>
          </g>
          <g id="Group_18262" data-name="Group 18262" transform="translate(0 15.567)">
            <rect id="Rectangle_6213" data-name="Rectangle 6213" width="28.892" height="1.032" transform="translate(0.263 0.219)" fill="#ebebeb"/>
            <path id="Path_4317" data-name="Path 4317" d="M1422.081,7738.044h-29.418v-1.471h29.418Zm-28.892-.438h28.365v-.594h-28.365Z" transform="translate(-1392.663 -7736.573)" fill="#ebebeb"/>
          </g>
          <g id="Group_18263" data-name="Group 18263" transform="translate(0 31.134)">
            <rect id="Rectangle_6214" data-name="Rectangle 6214" width="28.892" height="1.032" transform="translate(0.263 0.219)" fill="#ebebeb"/>
            <path id="Path_4318" data-name="Path 4318" d="M1422.081,7782.973h-29.418V7781.5h29.418Zm-28.892-.439h28.365v-.594h-28.365Z" transform="translate(-1392.663 -7781.501)" fill="#ebebeb"/>
          </g>
          <g id="Group_18268" data-name="Group 18268" transform="translate(0 0.344)">
            <g id="Group_18264" data-name="Group 18264" transform="translate(0 46.7)">
              <rect id="Rectangle_6215" data-name="Rectangle 6215" width="28.892" height="1.032" transform="translate(0.263 0.22)" fill="#ebebeb"/>
              <path id="Path_4319" data-name="Path 4319" d="M1422.081,7828.894h-29.418v-1.471h29.418Zm-28.892-.438h28.365v-.594h-28.365Z" transform="translate(-1392.663 -7827.423)" fill="#ebebeb"/>
            </g>
            <g id="Group_18265" data-name="Group 18265" transform="translate(0 61.599)">
              <rect id="Rectangle_6216" data-name="Rectangle 6216" width="28.892" height="1.032" transform="translate(0.263 0.219)" fill="#ebebeb"/>
              <path id="Path_4320" data-name="Path 4320" d="M1422.081,7871.9h-29.418v-1.47h29.418Zm-28.892-.438h28.365v-.593h-28.365Z" transform="translate(-1392.663 -7870.425)" fill="#ebebeb"/>
            </g>
            <g id="Group_18266" data-name="Group 18266">
              <rect id="Rectangle_6217" data-name="Rectangle 6217" width="1.548" height="74.885" transform="translate(0.263 0.219)" fill="#ebebeb"/>
              <path id="Path_4321" data-name="Path 4321" d="M1394.737,7767.961h-2.074v-75.323h2.074Zm-1.548-.439h1.021v-74.446h-1.021Z" transform="translate(-1392.663 -7692.639)" fill="#ebebeb"/>
            </g>
            <g id="Group_18267" data-name="Group 18267" transform="translate(27.344)">
              <rect id="Rectangle_6218" data-name="Rectangle 6218" width="1.548" height="74.885" transform="translate(0.263 0.219)" fill="#ebebeb"/>
              <path id="Path_4322" data-name="Path 4322" d="M1473.656,7767.961h-2.074v-75.323h2.074Zm-1.548-.439h1.021v-74.446h-1.021Z" transform="translate(-1471.582 -7692.639)" fill="#ebebeb"/>
            </g>
          </g>
        </g>
        <g id="Group_18280" data-name="Group 18280" transform="translate(5.179 16.837)">
          <g id="Group_18271" data-name="Group 18271">
            <g id="Group_18270" data-name="Group 18270">
              <rect id="Rectangle_6219" data-name="Rectangle 6219" width="3.027" height="11.897" transform="translate(0.263 0.22)" fill="#ebebeb"/>
              <path id="Path_4323" data-name="Path 4323" d="M1411.163,7714.571h-3.553v-12.337h3.553Zm-3.027-.438h2.5v-11.459h-2.5Z" transform="translate(-1407.61 -7702.234)" fill="#ebebeb"/>
            </g>
            <path id="Path_4324" data-name="Path 4324" d="M1411.853,7709.162a1.014,1.014,0,1,1-1-.832A.925.925,0,0,1,1411.853,7709.162Z" transform="translate(-1409.079 -7706.218)" fill="#ebebeb"/>
          </g>
          <g id="Group_18273" data-name="Group 18273" transform="translate(3.557)">
            <g id="Group_18272" data-name="Group 18272">
              <rect id="Rectangle_6220" data-name="Rectangle 6220" width="3.027" height="11.897" transform="translate(0.263 0.22)" fill="#ebebeb"/>
              <path id="Path_4325" data-name="Path 4325" d="M1421.43,7714.571h-3.554v-12.337h3.554Zm-3.027-.438h2.5v-11.459h-2.5Z" transform="translate(-1417.877 -7702.234)" fill="#ebebeb"/>
            </g>
            <path id="Path_4326" data-name="Path 4326" d="M1422.121,7709.162a1.014,1.014,0,1,1-1-.832A.925.925,0,0,1,1422.121,7709.162Z" transform="translate(-1419.347 -7706.218)" fill="#ebebeb"/>
          </g>
          <g id="Group_18275" data-name="Group 18275" transform="translate(7.115)">
            <g id="Group_18274" data-name="Group 18274">
              <rect id="Rectangle_6221" data-name="Rectangle 6221" width="3.027" height="11.897" transform="translate(0.263 0.22)" fill="#ebebeb"/>
              <path id="Path_4327" data-name="Path 4327" d="M1431.7,7714.571h-3.553v-12.337h3.553Zm-3.027-.438h2.5v-11.459h-2.5Z" transform="translate(-1428.146 -7702.234)" fill="#ebebeb"/>
            </g>
            <path id="Path_4328" data-name="Path 4328" d="M1432.389,7709.162a1.014,1.014,0,1,1-1-.832A.925.925,0,0,1,1432.389,7709.162Z" transform="translate(-1429.615 -7706.218)" fill="#ebebeb"/>
          </g>
          <g id="Group_18277" data-name="Group 18277" transform="translate(10.673)">
            <g id="Group_18276" data-name="Group 18276">
              <rect id="Rectangle_6222" data-name="Rectangle 6222" width="3.027" height="11.897" transform="translate(0.263 0.22)" fill="#ebebeb"/>
              <path id="Path_4329" data-name="Path 4329" d="M1441.966,7714.571h-3.553v-12.337h3.553Zm-3.027-.438h2.5v-11.459h-2.5Z" transform="translate(-1438.413 -7702.234)" fill="#ebebeb"/>
            </g>
            <path id="Path_4330" data-name="Path 4330" d="M1442.657,7709.162a1.014,1.014,0,1,1-1-.832A.925.925,0,0,1,1442.657,7709.162Z" transform="translate(-1439.883 -7706.218)" fill="#ebebeb"/>
          </g>
          <g id="Group_18279" data-name="Group 18279" transform="translate(14.231)">
            <g id="Group_18278" data-name="Group 18278">
              <rect id="Rectangle_6223" data-name="Rectangle 6223" width="3.027" height="11.897" transform="translate(0.263 0.22)" fill="#ebebeb"/>
              <path id="Path_4331" data-name="Path 4331" d="M1452.235,7714.571h-3.553v-12.337h3.553Zm-3.027-.438h2.5v-11.459h-2.5Z" transform="translate(-1448.682 -7702.234)" fill="#ebebeb"/>
            </g>
            <path id="Path_4332" data-name="Path 4332" d="M1452.926,7709.162a1.014,1.014,0,1,1-1-.832A.926.926,0,0,1,1452.926,7709.162Z" transform="translate(-1450.152 -7706.218)" fill="#ebebeb"/>
          </g>
        </g>
        <path id="Path_4333" data-name="Path 4333" d="M1408.549,7802.128a4.929,4.929,0,0,1,.471-2.186h-3.628a4.929,4.929,0,0,1,.471,2.186c0,1.323-1.59,3.764-1.59,5.393s1.685,2.162,2.933,2.162,2.932-.534,2.932-2.162S1408.549,7803.451,1408.549,7802.128Z" transform="translate(-1400.25 -7749.252)" fill="#ebebeb"/>
        <g id="Group_18282" data-name="Group 18282" transform="translate(15.399 33.845)">
          <g id="Group_18281" data-name="Group 18281" transform="translate(0.449)">
            <path id="Path_4334" data-name="Path 4334" d="M1449.708,7757.233c.978-1.914-1.2-1.878-1.031-2.381.311-.943,1.484.082,1.959-.394s-1.174-1.955-.31-2.467.561,1.222,1.308,1.1.3-1.956,1.182-1.751c.662.154-.124,1.3-.052,1.835s1.437-.245,1.461.519-1.627.429-1.822,1.01,1.776.7,1.084,1.192-1.993-.1-2.335.414S1449.292,7758.045,1449.708,7757.233Z" transform="translate(-1445.112 -7751.322)" fill="#ebebeb"/>
            <path id="Path_4335" data-name="Path 4335" d="M1442.4,7761.745c-.92-1.934-2.436-.633-2.742-1.088-.575-.853,1.123-.812,1.061-1.428s-2.484-.7-2.3-1.572,1.43.54,1.857.014-1.436-1.567-.638-1.938c.6-.278,1.008,1,1.512,1.335s.815-1.017,1.476-.488-.794,1.26-.442,1.787,1.854-.543,1.777.211-1.5,1.1-1.311,1.664S1442.788,7762.566,1442.4,7761.745Z" transform="translate(-1438.404 -7754.179)" fill="#ebebeb"/>
          </g>
          <path id="Path_4336" data-name="Path 4336" d="M1443.891,7765.42h-5.021s-1.763,1.262-1.763,2.753,1.1,3.039,4.273,3.039,4.274-1.548,4.274-3.039S1443.891,7765.42,1443.891,7765.42Z" transform="translate(-1437.107 -7760.536)" fill="#ebebeb"/>
        </g>
        <g id="Group_18283" data-name="Group 18283" transform="translate(16.631 53.637)">
          <rect id="Rectangle_6224" data-name="Rectangle 6224" width="4.635" height="5.246" transform="translate(1.434 1.548)" fill="#ebebeb"/>
          <ellipse id="Ellipse_130" data-name="Ellipse 130" cx="3.658" cy="1.548" rx="3.658" ry="1.548" fill="#ebebeb"/>
        </g>
        <g id="Group_18284" data-name="Group 18284" transform="translate(13.403 8.35)">
          <rect id="Rectangle_6225" data-name="Rectangle 6225" width="3.436" height="3.89" transform="translate(1.063 1.148)" fill="#ebebeb"/>
          <path id="Path_4337" data-name="Path 4337" d="M1436.771,7678.886c0,.634-1.214,1.147-2.712,1.147s-2.711-.514-2.711-1.147,1.214-1.148,2.711-1.148S1436.771,7678.252,1436.771,7678.886Z" transform="translate(-1431.347 -7677.738)" fill="#ebebeb"/>
        </g>
        <g id="Group_18286" data-name="Group 18286" transform="translate(1.914)">
          <g id="Group_18285" data-name="Group 18285">
            <path id="Path_4338" data-name="Path 4338" d="M1415.4,7666.079s-1.189-3.44,4.073-7.31c0,0-4.505,4.127-3.027,7.31Z" transform="translate(-1409.36 -7656.992)" fill="#ebebeb"/>
            <path id="Path_4339" data-name="Path 4339" d="M1413.658,7663.508s-2.726-3.832,2.156-9.868c0,0-3.873,6.149-.895,9.594Z" transform="translate(-1407.802 -7653.64)" fill="#ebebeb"/>
            <path id="Path_4340" data-name="Path 4340" d="M1404.76,7666.079s1.189-3.44-4.074-7.31c0,0,4.506,4.127,3.026,7.31Z" transform="translate(-1399.821 -7656.992)" fill="#ebebeb"/>
            <path id="Path_4341" data-name="Path 4341" d="M1409.495,7664.367s2.19-3.08-1.734-7.93c0,0,3.114,4.94.721,7.71Z" transform="translate(-1404.444 -7655.468)" fill="#ebebeb"/>
            <path id="Path_4342" data-name="Path 4342" d="M1414.91,7670.737s-1.027-3.476,4.411-7.173c0,0-4.695,3.979-3.365,7.207Z" transform="translate(-1409.066 -7660.125)" fill="#ebebeb"/>
            <path id="Path_4343" data-name="Path 4343" d="M1402.6,7669.519s1.028-3.476-4.411-7.173c0,0,4.695,3.979,3.365,7.207Z" transform="translate(-1398.187 -7659.33)" fill="#ebebeb"/>
          </g>
          <path id="Path_4344" data-name="Path 4344" d="M1406.027,7676.392h-3.558l1.633,5.5h3.85l1.633-5.5Z" transform="translate(-1400.985 -7668.509)" fill="#ebebeb"/>
        </g>
        <g id="Group_18296" data-name="Group 18296" transform="translate(2.761 40.22)">
          <g id="Group_18291" data-name="Group 18291" transform="translate(0 0)">
            <g id="Group_18287" data-name="Group 18287" transform="translate(0.263 2.912)">
              <rect id="Rectangle_6226" data-name="Rectangle 6226" width="1.453" height="10.889" transform="translate(0 1.453) rotate(-90)" fill="#ebebeb"/>
            </g>
            <g id="Group_18289" data-name="Group 18289" transform="translate(0 1.234)">
              <g id="Group_18288" data-name="Group 18288">
                <rect id="Rectangle_6227" data-name="Rectangle 6227" width="1.453" height="10.889" transform="translate(0.263 1.673) rotate(-90)" fill="#ebebeb"/>
                <path id="Path_4345" data-name="Path 4345" d="M1412.047,7775.176h-11.416v-1.892h11.416Zm-10.89-.438h10.363v-1.015h-10.363Z" transform="translate(-1400.631 -7773.284)" fill="#ebebeb"/>
              </g>
            </g>
            <g id="Group_18290" data-name="Group 18290" transform="translate(0.263)">
              <rect id="Rectangle_6228" data-name="Rectangle 6228" width="1.453" height="10.889" transform="translate(0 1.453) rotate(-90)" fill="#ebebeb"/>
            </g>
          </g>
          <g id="Group_18292" data-name="Group 18292" transform="translate(6.676 0)">
            <rect id="Rectangle_6229" data-name="Rectangle 6229" width="0.078" height="1.453" fill="#ebebeb"/>
          </g>
          <g id="Group_18293" data-name="Group 18293" transform="translate(7.554 0)">
            <rect id="Rectangle_6230" data-name="Rectangle 6230" width="0.078" height="1.453" fill="#ebebeb"/>
          </g>
          <g id="Group_18294" data-name="Group 18294" transform="translate(8.431 0)">
            <rect id="Rectangle_6231" data-name="Rectangle 6231" width="0.078" height="1.453" fill="#ebebeb"/>
          </g>
          <g id="Group_18295" data-name="Group 18295" transform="translate(9.308 0)">
            <rect id="Rectangle_6232" data-name="Rectangle 6232" width="0.078" height="1.453" fill="#ebebeb"/>
          </g>
          <rect id="Rectangle_6233" data-name="Rectangle 6233" width="5.125" height="0.239" transform="translate(5.495 3.16)" fill="#ebebeb"/>
          <rect id="Rectangle_6234" data-name="Rectangle 6234" width="5.125" height="0.239" transform="translate(5.495 3.519)" fill="#ebebeb"/>
          <rect id="Rectangle_6235" data-name="Rectangle 6235" width="5.125" height="0.239" transform="translate(5.495 3.878)" fill="#ebebeb"/>
        </g>
      </g>
      <g id="Group_18334" data-name="Group 18334" transform="translate(313.388 140.626)">
        <g id="Group_18306" data-name="Group 18306" transform="translate(0 15.346)">
          <g id="Group_18298" data-name="Group 18298">
            <rect id="Rectangle_6236" data-name="Rectangle 6236" width="33.672" height="1.203" transform="translate(0.307 0.256)" fill="#ebebeb"/>
            <path id="Path_4346" data-name="Path 4346" d="M1309.548,7657.225h-34.286v-1.714h34.286Zm-33.672-.511h33.058v-.692h-33.058Z" transform="translate(-1275.262 -7655.511)" fill="#ebebeb"/>
          </g>
          <g id="Group_18299" data-name="Group 18299" transform="translate(0 18.143)">
            <rect id="Rectangle_6237" data-name="Rectangle 6237" width="33.672" height="1.203" transform="translate(0.307 0.256)" fill="#ebebeb"/>
            <path id="Path_4347" data-name="Path 4347" d="M1309.548,7709.588h-34.286v-1.714h34.286Zm-33.672-.512h33.058v-.692h-33.058Z" transform="translate(-1275.262 -7707.874)" fill="#ebebeb"/>
          </g>
          <g id="Group_18300" data-name="Group 18300" transform="translate(0 36.285)">
            <rect id="Rectangle_6238" data-name="Rectangle 6238" width="33.672" height="1.203" transform="translate(0.307 0.256)" fill="#ebebeb"/>
            <path id="Path_4348" data-name="Path 4348" d="M1309.548,7761.95h-34.286v-1.714h34.286Zm-33.672-.512h33.058v-.691h-33.058Z" transform="translate(-1275.262 -7760.236)" fill="#ebebeb"/>
          </g>
          <g id="Group_18305" data-name="Group 18305" transform="translate(0 0.401)">
            <g id="Group_18301" data-name="Group 18301" transform="translate(0 54.427)">
              <rect id="Rectangle_6239" data-name="Rectangle 6239" width="33.672" height="1.203" transform="translate(0.307 0.256)" fill="#ebebeb"/>
              <path id="Path_4349" data-name="Path 4349" d="M1309.548,7815.469h-34.286v-1.714h34.286Zm-33.672-.512h33.058v-.691h-33.058Z" transform="translate(-1275.262 -7813.754)" fill="#ebebeb"/>
            </g>
            <g id="Group_18302" data-name="Group 18302" transform="translate(0 71.791)">
              <rect id="Rectangle_6240" data-name="Rectangle 6240" width="33.672" height="1.203" transform="translate(0.307 0.256)" fill="#ebebeb"/>
              <path id="Path_4350" data-name="Path 4350" d="M1309.548,7865.585h-34.286v-1.714h34.286Zm-33.672-.512h33.058v-.691h-33.058Z" transform="translate(-1275.262 -7863.871)" fill="#ebebeb"/>
            </g>
            <g id="Group_18303" data-name="Group 18303">
              <rect id="Rectangle_6241" data-name="Rectangle 6241" width="1.804" height="87.274" transform="translate(0.307 0.256)" fill="#ebebeb"/>
              <path id="Path_4351" data-name="Path 4351" d="M1277.679,7744.455h-2.417v-87.786h2.417Zm-1.8-.511h1.19V7657.18h-1.19Z" transform="translate(-1275.262 -7656.669)" fill="#ebebeb"/>
            </g>
            <g id="Group_18304" data-name="Group 18304" transform="translate(31.868)">
              <rect id="Rectangle_6242" data-name="Rectangle 6242" width="1.804" height="87.274" transform="translate(0.307 0.256)" fill="#ebebeb"/>
              <path id="Path_4352" data-name="Path 4352" d="M1369.657,7744.455h-2.418v-87.786h2.418Zm-1.8-.511h1.191V7657.18h-1.191Z" transform="translate(-1367.239 -7656.669)" fill="#ebebeb"/>
            </g>
          </g>
        </g>
        <g id="Group_18317" data-name="Group 18317" transform="translate(6.036 19.623)">
          <g id="Group_18308" data-name="Group 18308">
            <g id="Group_18307" data-name="Group 18307">
              <rect id="Rectangle_6243" data-name="Rectangle 6243" width="3.528" height="13.866" transform="translate(0.307 0.256)" fill="#ebebeb"/>
              <path id="Path_4353" data-name="Path 4353" d="M1296.823,7682.232h-4.141v-14.377h4.141Zm-3.527-.511h2.914v-13.354H1293.3Z" transform="translate(-1292.682 -7667.854)" fill="#ebebeb"/>
            </g>
            <path id="Path_4354" data-name="Path 4354" d="M1297.628,7675.926a1.182,1.182,0,1,1-1.162-.969A1.079,1.079,0,0,1,1297.628,7675.926Z" transform="translate(-1294.395 -7672.496)" fill="#ebebeb"/>
          </g>
          <g id="Group_18310" data-name="Group 18310" transform="translate(4.146)">
            <g id="Group_18309" data-name="Group 18309">
              <rect id="Rectangle_6244" data-name="Rectangle 6244" width="3.527" height="13.866" transform="translate(0.307 0.256)" fill="#ebebeb"/>
              <path id="Path_4355" data-name="Path 4355" d="M1308.79,7682.232h-4.141v-14.377h4.141Zm-3.527-.511h2.914v-13.354h-2.914Z" transform="translate(-1304.649 -7667.854)" fill="#ebebeb"/>
            </g>
            <path id="Path_4356" data-name="Path 4356" d="M1309.595,7675.926a1.182,1.182,0,1,1-1.162-.969A1.079,1.079,0,0,1,1309.595,7675.926Z" transform="translate(-1306.362 -7672.496)" fill="#ebebeb"/>
          </g>
          <g id="Group_18312" data-name="Group 18312" transform="translate(8.293)">
            <g id="Group_18311" data-name="Group 18311">
              <rect id="Rectangle_6245" data-name="Rectangle 6245" width="3.527" height="13.866" transform="translate(0.307 0.256)" fill="#ebebeb"/>
              <path id="Path_4357" data-name="Path 4357" d="M1320.757,7682.232h-4.141v-14.377h4.141Zm-3.527-.511h2.914v-13.354h-2.914Z" transform="translate(-1316.616 -7667.854)" fill="#ebebeb"/>
            </g>
            <path id="Path_4358" data-name="Path 4358" d="M1321.562,7675.926a1.182,1.182,0,1,1-1.162-.969A1.079,1.079,0,0,1,1321.562,7675.926Z" transform="translate(-1318.329 -7672.496)" fill="#ebebeb"/>
          </g>
          <g id="Group_18314" data-name="Group 18314" transform="translate(12.439)">
            <g id="Group_18313" data-name="Group 18313">
              <rect id="Rectangle_6246" data-name="Rectangle 6246" width="3.527" height="13.866" transform="translate(0.307 0.256)" fill="#ebebeb"/>
              <path id="Path_4359" data-name="Path 4359" d="M1332.724,7682.232h-4.141v-14.377h4.141Zm-3.528-.511h2.914v-13.354H1329.2Z" transform="translate(-1328.582 -7667.854)" fill="#ebebeb"/>
            </g>
            <path id="Path_4360" data-name="Path 4360" d="M1333.529,7675.926a1.182,1.182,0,1,1-1.162-.969A1.079,1.079,0,0,1,1333.529,7675.926Z" transform="translate(-1330.295 -7672.496)" fill="#ebebeb"/>
          </g>
          <g id="Group_18316" data-name="Group 18316" transform="translate(16.585)">
            <g id="Group_18315" data-name="Group 18315">
              <rect id="Rectangle_6247" data-name="Rectangle 6247" width="3.528" height="13.866" transform="translate(0.307 0.256)" fill="#ebebeb"/>
              <path id="Path_4361" data-name="Path 4361" d="M1344.691,7682.232h-4.141v-14.377h4.141Zm-3.527-.511h2.914v-13.354h-2.914Z" transform="translate(-1340.55 -7667.854)" fill="#ebebeb"/>
            </g>
            <path id="Path_4362" data-name="Path 4362" d="M1345.5,7675.926a1.182,1.182,0,1,1-1.162-.969A1.079,1.079,0,0,1,1345.5,7675.926Z" transform="translate(-1342.263 -7672.496)" fill="#ebebeb"/>
          </g>
        </g>
        <path id="Path_4363" data-name="Path 4363" d="M1293.777,7784.274a5.746,5.746,0,0,1,.549-2.547H1290.1a5.749,5.749,0,0,1,.549,2.547c0,1.541-1.853,4.388-1.853,6.285s1.964,2.52,3.418,2.52,3.418-.623,3.418-2.52S1293.777,7785.815,1293.777,7784.274Z" transform="translate(-1284.105 -7722.65)" fill="#ebebeb"/>
        <g id="Group_18319" data-name="Group 18319" transform="translate(17.947 39.444)">
          <g id="Group_18318" data-name="Group 18318" transform="translate(0.524)">
            <path id="Path_4364" data-name="Path 4364" d="M1341.746,7731.951c1.14-2.23-1.395-2.189-1.2-2.775.363-1.1,1.729.1,2.284-.459s-1.368-2.277-.361-2.875.654,1.424,1.524,1.281.352-2.279,1.378-2.042c.771.18-.145,1.515-.061,2.138s1.675-.285,1.7.606-1.9.5-2.123,1.177,2.069.816,1.264,1.39-2.323-.113-2.722.482S1341.261,7732.9,1341.746,7731.951Z" transform="translate(-1336.39 -7725.063)" fill="#ebebeb"/>
            <path id="Path_4365" data-name="Path 4365" d="M1333.227,7737.211c-1.072-2.254-2.839-.738-3.2-1.268-.67-.993,1.31-.946,1.236-1.665s-2.894-.817-2.683-1.832,1.667.629,2.164.017-1.674-1.827-.743-2.259c.7-.324,1.175,1.161,1.762,1.555s.95-1.185,1.721-.568-.926,1.468-.516,2.082,2.16-.633,2.071.247-1.746,1.281-1.527,1.938S1333.682,7738.168,1333.227,7737.211Z" transform="translate(-1328.573 -7728.394)" fill="#ebebeb"/>
          </g>
          <path id="Path_4366" data-name="Path 4366" d="M1334.967,7741.495h-5.853s-2.054,1.471-2.054,3.208,1.281,3.542,4.981,3.542,4.981-1.8,4.981-3.542S1334.967,7741.495,1334.967,7741.495Z" transform="translate(-1327.06 -7735.801)" fill="#ebebeb"/>
        </g>
        <g id="Group_18320" data-name="Group 18320" transform="translate(19.382 62.511)">
          <rect id="Rectangle_6248" data-name="Rectangle 6248" width="5.401" height="6.114" transform="translate(1.671 1.804)" fill="#ebebeb"/>
          <ellipse id="Ellipse_131" data-name="Ellipse 131" cx="4.263" cy="1.804" rx="4.263" ry="1.804" fill="#ebebeb"/>
        </g>
        <g id="Group_18321" data-name="Group 18321" transform="translate(15.621 9.731)">
          <rect id="Rectangle_6249" data-name="Rectangle 6249" width="4.005" height="4.533" transform="translate(1.239 1.338)" fill="#ebebeb"/>
          <path id="Path_4367" data-name="Path 4367" d="M1326.667,7640.643c0,.738-1.415,1.337-3.161,1.337s-3.161-.6-3.161-1.337,1.415-1.338,3.161-1.338S1326.667,7639.9,1326.667,7640.643Z" transform="translate(-1320.346 -7639.305)" fill="#ebebeb"/>
        </g>
        <g id="Group_18323" data-name="Group 18323" transform="translate(2.231)">
          <g id="Group_18322" data-name="Group 18322">
            <path id="Path_4368" data-name="Path 4368" d="M1301.76,7625.715s-1.385-4.01,4.747-8.52c0,0-5.251,4.811-3.528,8.52Z" transform="translate(-1294.722 -7615.124)" fill="#ebebeb"/>
            <path id="Path_4369" data-name="Path 4369" d="M1299.731,7622.72s-3.177-4.467,2.512-11.5c0,0-4.514,7.166-1.043,11.182Z" transform="translate(-1292.906 -7611.219)" fill="#ebebeb"/>
            <path id="Path_4370" data-name="Path 4370" d="M1289.361,7625.715s1.386-4.01-4.747-8.52c0,0,5.251,4.811,3.527,8.52Z" transform="translate(-1283.605 -7615.124)" fill="#ebebeb"/>
            <path id="Path_4371" data-name="Path 4371" d="M1294.88,7623.72s2.552-3.589-2.021-9.242c0,0,3.628,5.758.84,8.986Z" transform="translate(-1288.993 -7613.35)" fill="#ebebeb"/>
            <path id="Path_4372" data-name="Path 4372" d="M1301.191,7631.145s-1.2-4.051,5.141-8.359c0,0-5.472,4.637-3.922,8.4Z" transform="translate(-1294.379 -7618.778)" fill="#ebebeb"/>
            <path id="Path_4373" data-name="Path 4373" d="M1286.842,7629.725s1.2-4.051-5.141-8.359c0,0,5.471,4.638,3.922,8.4Z" transform="translate(-1281.701 -7617.85)" fill="#ebebeb"/>
          </g>
          <path id="Path_4374" data-name="Path 4374" d="M1290.837,7637.734h-4.146l1.9,6.416h4.487l1.9-6.416Z" transform="translate(-1284.962 -7628.547)" fill="#ebebeb"/>
        </g>
        <g id="Group_18333" data-name="Group 18333" transform="translate(3.218 46.874)">
          <g id="Group_18328" data-name="Group 18328" transform="translate(0 0)">
            <g id="Group_18324" data-name="Group 18324" transform="translate(0.307 3.394)">
              <rect id="Rectangle_6250" data-name="Rectangle 6250" width="1.694" height="12.691" transform="translate(0 1.694) rotate(-90)" fill="#ebebeb"/>
            </g>
            <g id="Group_18326" data-name="Group 18326" transform="translate(0 1.438)">
              <g id="Group_18325" data-name="Group 18325">
                <rect id="Rectangle_6251" data-name="Rectangle 6251" width="1.694" height="12.691" transform="translate(0.307 1.949) rotate(-90)" fill="#ebebeb"/>
                <path id="Path_4375" data-name="Path 4375" d="M1297.854,7752.863h-13.3v-2.205h13.3Zm-12.691-.511h12.078v-1.182h-12.078Z" transform="translate(-1284.549 -7750.658)" fill="#ebebeb"/>
              </g>
            </g>
            <g id="Group_18327" data-name="Group 18327" transform="translate(0.307)">
              <rect id="Rectangle_6252" data-name="Rectangle 6252" width="1.694" height="12.691" transform="translate(0 1.694) rotate(-90)" fill="#ebebeb"/>
            </g>
          </g>
          <g id="Group_18329" data-name="Group 18329" transform="translate(7.781 0)">
            <rect id="Rectangle_6253" data-name="Rectangle 6253" width="0.091" height="1.694" fill="#ebebeb"/>
          </g>
          <g id="Group_18330" data-name="Group 18330" transform="translate(8.803 0)">
            <rect id="Rectangle_6254" data-name="Rectangle 6254" width="0.091" height="1.694" fill="#ebebeb"/>
          </g>
          <g id="Group_18331" data-name="Group 18331" transform="translate(9.825 0)">
            <rect id="Rectangle_6255" data-name="Rectangle 6255" width="0.091" height="1.694" fill="#ebebeb"/>
          </g>
          <g id="Group_18332" data-name="Group 18332" transform="translate(10.848 0)">
            <rect id="Rectangle_6256" data-name="Rectangle 6256" width="0.091" height="1.694" fill="#ebebeb"/>
          </g>
          <rect id="Rectangle_6257" data-name="Rectangle 6257" width="5.973" height="0.279" transform="translate(6.404 3.683)" fill="#ebebeb"/>
          <rect id="Rectangle_6258" data-name="Rectangle 6258" width="5.973" height="0.279" transform="translate(6.404 4.101)" fill="#ebebeb"/>
          <rect id="Rectangle_6259" data-name="Rectangle 6259" width="5.973" height="0.279" transform="translate(6.404 4.52)" fill="#ebebeb"/>
        </g>
      </g>
      <g id="Group_18345" data-name="Group 18345" transform="translate(378.358 221.154)">
        <g id="Group_18338" data-name="Group 18338">
          <g id="Group_18336" data-name="Group 18336" transform="translate(0.268 24.431)">
            <path id="Path_4376" data-name="Path 4376" d="M1505.755,7953.29l-.935-.008,2.953-25.16.433-3.141,16,2.639-.983,28.258-1.195-.1-.581-25.031-11.414-1.835Z" transform="translate(-1504.82 -7921.229)" fill="#cfd0d8"/>
            <g id="Group_18335" data-name="Group 18335" transform="translate(2.827)">
              <path id="Path_4377" data-name="Path 4377" d="M1543.8,7916.5l-9.862-.691-20.775,1.833-.065,3.148a1.514,1.514,0,0,0,1.26,1.852s12.938,2.795,14.493,2.305l15.755-4.711Z" transform="translate(-1513.029 -7915.235)" fill="#cfd0d8"/>
              <path id="Path_4378" data-name="Path 4378" d="M1530.25,7919.233c-2.206.491-2.216.023-4.109-.172l-10.495-1.75c-3.963-.42-2.833-.571-.936-1.333l1.568-.341a49.744,49.744,0,0,1,11.416-1.458l15.067.445c2.221.221,1.059.993.748,1.056Z" transform="translate(-1512.981 -7914.151)" fill="#cfd0d8"/>
            </g>
            <path id="Path_4379" data-name="Path 4379" d="M1597.079,7926.057l2.476,26.452-.73-.1-3.939-24.613Z" transform="translate(-1563.68 -7921.932)" fill="#cfd0d8"/>
          </g>
          <g id="Group_18337" data-name="Group 18337">
            <path id="Path_4380" data-name="Path 4380" d="M1524.022,7870.175c.027,1.443-1.352,2.369-3.81,2.173l-11.139-1.759c-2.817-.367-2.413-.631-2.74-2.112l-2.189-21.006c-.507-2.278.98-4.106,4.228-3.8l10.136.9c3.208.3,3.574,1.963,3.6,4.177Z" transform="translate(-1504.047 -7843.638)" fill="#cfd0d8"/>
            <path id="Path_4381" data-name="Path 4381" d="M1550.327,7848.377a3.045,3.045,0,0,1,2.852,2.6c.167,1.655,3.184,21.878,2.358,23.2s-2.819,1.526-2.728.951c.824-5.375-1.57-23.818-2.151-24.895A2.565,2.565,0,0,1,1550.327,7848.377Z" transform="translate(-1534.257 -7846.733)" fill="#cfd0d8"/>
          </g>
        </g>
        <g id="Group_18340" data-name="Group 18340" transform="translate(93.152 2.359)">
          <g id="Group_18339" data-name="Group 18339">
            <path id="Path_4382" data-name="Path 4382" d="M1774.19,7950.427h-.723l2.049-23.88,1.537.087,16.911.2v4.337h-.044l2.391,19.379h-.723l-4.151-19.379h-13.4Z" transform="translate(-1773.271 -7900.18)" fill="#cfd0d8"/>
            <path id="Path_4383" data-name="Path 4383" d="M1823.521,7852.753c.693-2.948,4.644-2.36,8.119-2.017,2.5.246,3.105,1.262,2.978,3.773l-2.981,21.8a3.744,3.744,0,0,1-4.54,3.679c-2.377-.482-7.26-2.08-7.074-4.585Z" transform="translate(-1803.693 -7850.446)" fill="#cfd0d8"/>
            <path id="Path_4384" data-name="Path 4384" d="M1781.065,7959.712h-.594l2.262-22.018-3.77-3.406,11.069-.074,13.033-.138-.05,3.618,2.6,22.15h-.481l-4.515-22.15h-15.379Z" transform="translate(-1776.863 -7905.101)" fill="#cfd0d8"/>
            <path id="Path_4385" data-name="Path 4385" d="M1773.106,7925.17a.89.89,0,0,1,.685-1.456l13.459-.055a11.406,11.406,0,0,1,3.58.669l7.568,2.518a.547.547,0,0,1,.056.02c.908.362.823.668-.2.668l-22.83-.055a.892.892,0,0,1-.687-.326Z" transform="translate(-1772.902 -7898.293)" fill="#cfd0d8"/>
          </g>
        </g>
        <g id="Group_18341" data-name="Group 18341" transform="translate(18.716 8.338)">
          <rect id="Rectangle_6260" data-name="Rectangle 6260" width="3.703" height="38.481" transform="translate(10.431 13.696)" fill="#ebebeb"/>
          <rect id="Rectangle_6261" data-name="Rectangle 6261" width="3.705" height="38.48" transform="translate(77.897 14.005)" fill="#ebebeb"/>
          <path id="Path_4386" data-name="Path 4386" d="M1648.367,7879.742v1.736h-90.062v-1.736l14.639-12.038h59.708Z" transform="translate(-1558.222 -7867.704)" fill="#ebebeb"/>
          <rect id="Rectangle_6262" data-name="Rectangle 6262" width="90.145" height="3.419" transform="translate(0 12.037)" fill="#ebebeb"/>
        </g>
        <g id="Group_18344" data-name="Group 18344" transform="translate(37.062 10.05)">
          <path id="Path_4387" data-name="Path 4387" d="M1629.219,7886.966l18.605-.014,2.44-3.276-16.713-.035Z" transform="translate(-1622.912 -7879.831)" fill="#cfd0d8"/>
          <g id="Group_18343" data-name="Group 18343">
            <path id="Path_4388" data-name="Path 4388" d="M1681.543,7981.512h-.9l-4.4-27.659h2.344Z" transform="translate(-1653.641 -7925.715)" fill="#cfd0d8"/>
            <path id="Path_4389" data-name="Path 4389" d="M1612.857,7979.628h.9l4.4-27.659h-2.344Z" transform="translate(-1612.219 -7924.485)" fill="#cfd0d8"/>
            <g id="Group_18342" data-name="Group 18342" transform="translate(6.94 25.047)">
              <path id="Path_4390" data-name="Path 4390" d="M1631.045,7976.138h.495l3.684-22.285h-2.136Z" transform="translate(-1631.045 -7950.762)" fill="#cfd0d8"/>
              <path id="Path_4391" data-name="Path 4391" d="M1695.641,7969.852h.5l-2.735-24.919-1.859,2.638Z" transform="translate(-1670.584 -7944.933)" fill="#cfd0d8"/>
            </g>
            <path id="Path_4392" data-name="Path 4392" d="M1621.239,7939.462a11.659,11.659,0,0,1,1.826-1.521c.282-.19,3.2-2.891,3.2-2.891l19.463,1.143a9.053,9.053,0,0,1,1.2.341c.411.147.62,1.285.57,2.224-.057,1.029-1.8,2.911-3.425,3.939-2.27,1.435-8.64,1.167-9.55,1.167h-1.2c-.908,0-10.189.225-12.461-1.206C1620.029,7942.137,1620.512,7940.157,1621.239,7939.462Z" transform="translate(-1617.163 -7913.427)" fill="#cfd0d8"/>
            <path id="Path_4393" data-name="Path 4393" d="M1659.349,7874.093c1.257.379,4.275,1.137,4.525,4.171s2.03,20.728,1.528,21.9a1.88,1.88,0,0,1-3.015.756c-.634-.759-4.3-25.565-3.918-25.941Z" transform="translate(-1642.01 -7873.59)" fill="#cfd0d8"/>
            <path id="Path_4394" data-name="Path 4394" d="M1633.3,7898.7c0,1.617-1.738,2.869-3.891,2.82l-11.828-.283c-2.133-.054-3.957-1.386-4.081-3l-2.48-22.166c-.149-1.919,1.646-3.466,4.013-3.428l12.323.389c2.388.043,4.324,1.653,4.324,3.586Z" transform="translate(-1611.016 -7872.643)" fill="#cfd0d8"/>
          </g>
        </g>
      </g>
      <g id="Group_18356" data-name="Group 18356" transform="translate(142.862 195.242)">
        <g id="Group_18349" data-name="Group 18349">
          <g id="Group_18347" data-name="Group 18347" transform="translate(0.244 22.268)">
            <path id="Path_4395" data-name="Path 4395" d="M754.3,7868.792l-.852-.006,2.691-22.932.395-2.863,14.584,2.405-.9,25.756-1.089-.089-.529-22.815-10.4-1.672Z" transform="translate(-753.446 -7839.57)" fill="#cfd0d8"/>
            <g id="Group_18346" data-name="Group 18346" transform="translate(2.577)">
              <path id="Path_4396" data-name="Path 4396" d="M788.978,7835.262l-8.989-.631-18.935,1.672-.06,2.868a1.38,1.38,0,0,0,1.149,1.688s11.792,2.548,13.21,2.1l14.36-4.294Z" transform="translate(-760.928 -7834.107)" fill="#cfd0d8"/>
              <path id="Path_4397" data-name="Path 4397" d="M776.624,7837.752c-2.011.446-2.02.021-3.745-.157l-9.565-1.6c-3.612-.384-2.582-.521-.853-1.216l1.43-.311a45.447,45.447,0,0,1,10.405-1.329l13.732.405c2.025.2.965.906.682.962Z" transform="translate(-760.884 -7833.119)" fill="#cfd0d8"/>
            </g>
            <path id="Path_4398" data-name="Path 4398" d="M837.535,7843.97l2.257,24.11-.665-.087-3.591-22.434Z" transform="translate(-807.094 -7840.21)" fill="#cfd0d8"/>
          </g>
          <g id="Group_18348" data-name="Group 18348">
            <path id="Path_4399" data-name="Path 4399" d="M770.947,7793.038c.025,1.315-1.232,2.159-3.473,1.98l-10.153-1.6c-2.567-.335-2.2-.576-2.5-1.926l-2-19.146c-.462-2.075.893-3.743,3.853-3.464l9.239.82c2.924.271,3.257,1.79,3.285,3.808Z" transform="translate(-752.74 -7768.849)" fill="#cfd0d8"/>
            <path id="Path_4400" data-name="Path 4400" d="M794.923,7773.169a2.776,2.776,0,0,1,2.6,2.372c.151,1.51,2.9,19.941,2.149,21.146s-2.569,1.392-2.487.867c.751-4.9-1.431-21.709-1.96-22.69A2.337,2.337,0,0,1,794.923,7773.169Z" transform="translate(-780.276 -7771.67)" fill="#cfd0d8"/>
          </g>
        </g>
        <g id="Group_18351" data-name="Group 18351" transform="translate(84.904 2.15)">
          <g id="Group_18350" data-name="Group 18350">
            <path id="Path_4401" data-name="Path 4401" d="M998.964,7866.183h-.659l1.867-21.766,1.4.08,15.413.185v3.953h-.04l2.179,17.663h-.659l-3.783-17.663h-12.217Z" transform="translate(-998.127 -7820.385)" fill="#cfd0d8"/>
            <path id="Path_4402" data-name="Path 4402" d="M1043.927,7777.158c.632-2.687,4.233-2.151,7.4-1.837,2.277.223,2.831,1.15,2.714,3.439l-2.718,19.871a3.412,3.412,0,0,1-4.138,3.353c-2.167-.44-6.617-1.9-6.448-4.179Z" transform="translate(-1025.855 -7775.055)" fill="#cfd0d8"/>
            <path id="Path_4403" data-name="Path 4403" d="M1005.231,7874.646h-.541l2.061-20.068-3.436-3.1,10.089-.068,11.879-.125-.046,3.3,2.369,20.189h-.439l-4.115-20.189h-14.017Z" transform="translate(-1001.401 -7824.87)" fill="#cfd0d8"/>
            <path id="Path_4404" data-name="Path 4404" d="M997.977,7843.163a.812.812,0,0,1,.624-1.327l12.267-.05a10.428,10.428,0,0,1,3.263.61l6.9,2.294c.017.005.035.013.051.02.827.33.75.608-.184.608l-20.809-.049a.816.816,0,0,1-.625-.3Z" transform="translate(-997.791 -7818.666)" fill="#cfd0d8"/>
          </g>
        </g>
        <g id="Group_18352" data-name="Group 18352" transform="translate(17.059 7.6)">
          <rect id="Rectangle_6263" data-name="Rectangle 6263" width="3.375" height="35.073" transform="translate(9.507 12.483)" fill="#ebebeb"/>
          <rect id="Rectangle_6264" data-name="Rectangle 6264" width="3.377" height="35.073" transform="translate(71 12.765)" fill="#ebebeb"/>
          <path id="Path_4405" data-name="Path 4405" d="M884.283,7801.755v1.583H802.2v-1.583l13.343-10.97H869.96Z" transform="translate(-802.119 -7790.785)" fill="#ebebeb"/>
          <rect id="Rectangle_6265" data-name="Rectangle 6265" width="82.164" height="3.117" transform="translate(0 10.971)" fill="#ebebeb"/>
        </g>
        <g id="Group_18355" data-name="Group 18355" transform="translate(33.781 9.16)">
          <path id="Path_4406" data-name="Path 4406" d="M866.83,7808.341l16.958-.012,2.224-2.986-15.233-.033Z" transform="translate(-861.081 -7801.837)" fill="#cfd0d8"/>
          <g id="Group_18354" data-name="Group 18354">
            <path id="Path_4407" data-name="Path 4407" d="M914.521,7894.515H913.7l-4.01-25.209h2.136Z" transform="translate(-889.089 -7843.66)" fill="#cfd0d8"/>
            <path id="Path_4408" data-name="Path 4408" d="M851.916,7892.8h.824l4.01-25.21h-2.136Z" transform="translate(-851.335 -7842.538)" fill="#cfd0d8"/>
            <g id="Group_18353" data-name="Group 18353" transform="translate(6.325 22.829)">
              <path id="Path_4409" data-name="Path 4409" d="M868.494,7889.617h.451l3.358-20.312h-1.947Z" transform="translate(-868.494 -7866.489)" fill="#cfd0d8"/>
              <path id="Path_4410" data-name="Path 4410" d="M927.37,7883.888h.456l-2.493-22.712-1.695,2.4Z" transform="translate(-904.533 -7861.175)" fill="#cfd0d8"/>
            </g>
            <path id="Path_4411" data-name="Path 4411" d="M859.556,7856.189a10.626,10.626,0,0,1,1.664-1.387c.257-.173,2.915-2.635,2.915-2.635l17.739,1.042a8.326,8.326,0,0,1,1.094.311c.375.135.566,1.172.52,2.027-.052.938-1.638,2.654-3.121,3.591-2.069,1.308-7.876,1.064-8.7,1.064h-1.1c-.828,0-9.287.205-11.358-1.1C858.454,7858.627,858.894,7856.822,859.556,7856.189Z" transform="translate(-855.841 -7832.459)" fill="#cfd0d8"/>
            <path id="Path_4412" data-name="Path 4412" d="M894.292,7796.608c1.146.345,3.9,1.037,4.124,3.8s1.851,18.893,1.393,19.96a1.713,1.713,0,0,1-2.748.688c-.578-.691-3.917-23.3-3.571-23.643Z" transform="translate(-878.488 -7796.149)" fill="#cfd0d8"/>
            <path id="Path_4413" data-name="Path 4413" d="M870.553,7819.034c0,1.474-1.584,2.614-3.547,2.569l-10.781-.258c-1.944-.049-3.606-1.263-3.719-2.731l-2.26-20.2c-.136-1.75,1.5-3.16,3.658-3.125l11.232.354c2.176.038,3.941,1.506,3.941,3.268Z" transform="translate(-850.238 -7795.287)" fill="#cfd0d8"/>
          </g>
        </g>
      </g>
      <g id="Group_18367" data-name="Group 18367" transform="translate(7.846 241.432)">
        <g id="Group_18360" data-name="Group 18360">
          <g id="Group_18358" data-name="Group 18358" transform="translate(0.292 26.55)">
            <path id="Path_4414" data-name="Path 4414" d="M329.391,8021.327l-1.016-.007,3.209-27.343.47-3.413,17.389,2.868-1.069,30.709-1.3-.106-.631-27.2-12.4-1.995Z" transform="translate(-328.375 -7986.486)" fill="#cfd0d8"/>
            <g id="Group_18357" data-name="Group 18357" transform="translate(3.072)">
              <path id="Path_4415" data-name="Path 4415" d="M370.741,7981.349l-10.717-.751-22.577,1.993-.071,3.421a1.645,1.645,0,0,0,1.369,2.012s14.06,3.038,15.75,2.506l17.122-5.12Z" transform="translate(-337.295 -7979.973)" fill="#cfd0d8"/>
              <path id="Path_4416" data-name="Path 4416" d="M356.01,7984.317c-2.4.534-2.409.026-4.465-.187l-11.4-1.9c-4.307-.458-3.078-.622-1.018-1.449l1.7-.37a54.08,54.08,0,0,1,12.406-1.585l16.373.484c2.414.24,1.15,1.079.813,1.146Z" transform="translate(-337.243 -7978.793)" fill="#cfd0d8"/>
            </g>
            <path id="Path_4417" data-name="Path 4417" d="M428.635,7991.732l2.691,28.747-.793-.1-4.281-26.749Z" transform="translate(-392.34 -7987.25)" fill="#cfd0d8"/>
          </g>
          <g id="Group_18359" data-name="Group 18359">
            <path id="Path_4418" data-name="Path 4418" d="M349.242,7931c.029,1.567-1.469,2.574-4.141,2.361L333,7931.454c-3.061-.4-2.622-.685-2.977-2.295l-2.38-22.829c-.551-2.474,1.065-4.461,4.595-4.129l11.015.977c3.486.323,3.884,2.133,3.916,4.54Z" transform="translate(-327.534 -7902.165)" fill="#cfd0d8"/>
            <path id="Path_4419" data-name="Path 4419" d="M377.829,7907.315a3.31,3.31,0,0,1,3.1,2.828c.181,1.8,3.461,23.777,2.562,25.213s-3.063,1.66-2.964,1.034c.895-5.842-1.707-25.884-2.338-27.055A2.786,2.786,0,0,1,377.829,7907.315Z" transform="translate(-360.365 -7905.529)" fill="#cfd0d8"/>
          </g>
        </g>
        <g id="Group_18362" data-name="Group 18362" transform="translate(101.232 2.564)">
          <g id="Group_18361" data-name="Group 18361">
            <path id="Path_4420" data-name="Path 4420" d="M621.108,8018.216h-.786l2.226-25.952,1.67.095,18.377.221v4.714h-.047l2.6,21.059h-.786l-4.511-21.059H625.284Z" transform="translate(-620.11 -7963.611)" fill="#cfd0d8"/>
            <path id="Path_4421" data-name="Path 4421" d="M674.718,7912.072c.753-3.2,5.047-2.565,8.823-2.192,2.715.266,3.375,1.372,3.236,4.1l-3.24,23.693a4.069,4.069,0,0,1-4.934,4c-2.584-.525-7.89-2.261-7.687-4.983Z" transform="translate(-653.17 -7909.564)" fill="#cfd0d8"/>
            <path id="Path_4422" data-name="Path 4422" d="M628.58,8028.306h-.645l2.458-23.927-4.1-3.7,12.029-.081,14.164-.149-.055,3.931,2.824,24.072h-.523l-4.907-24.072H633.115Z" transform="translate(-624.013 -7968.958)" fill="#cfd0d8"/>
            <path id="Path_4423" data-name="Path 4423" d="M619.93,7990.769a.967.967,0,0,1,.744-1.581l14.626-.06a12.415,12.415,0,0,1,3.89.728l8.225,2.736.061.022c.986.394.894.726-.219.726l-24.81-.059a.97.97,0,0,1-.746-.354Z" transform="translate(-619.709 -7961.561)" fill="#cfd0d8"/>
          </g>
        </g>
        <g id="Group_18363" data-name="Group 18363" transform="translate(20.339 9.062)">
          <rect id="Rectangle_6266" data-name="Rectangle 6266" width="4.024" height="41.818" transform="translate(11.336 14.884)" fill="#ebebeb"/>
          <rect id="Rectangle_6267" data-name="Rectangle 6267" width="4.026" height="41.818" transform="translate(84.654 15.219)" fill="#ebebeb"/>
          <path id="Path_4424" data-name="Path 4424" d="M484.373,7941.4v1.887H386.5V7941.4l15.909-13.081H467.3Z" transform="translate(-386.408 -7928.319)" fill="#ebebeb"/>
          <rect id="Rectangle_6268" data-name="Rectangle 6268" width="97.964" height="3.716" transform="translate(0 13.081)" fill="#ebebeb"/>
        </g>
        <g id="Group_18366" data-name="Group 18366" transform="translate(40.277 10.921)">
          <path id="Path_4425" data-name="Path 4425" d="M463.563,7949.252l20.219-.015,2.651-3.561-18.162-.038Z" transform="translate(-456.709 -7941.497)" fill="#cfd0d8"/>
          <g id="Group_18365" data-name="Group 18365">
            <path id="Path_4426" data-name="Path 4426" d="M520.426,8052h-.983l-4.781-30.057h2.547Z" transform="translate(-490.104 -7991.362)" fill="#cfd0d8"/>
            <path id="Path_4427" data-name="Path 4427" d="M445.782,8049.951h.983l4.781-30.058H449Z" transform="translate(-445.089 -7990.024)" fill="#cfd0d8"/>
            <g id="Group_18364" data-name="Group 18364" transform="translate(7.542 27.22)">
              <path id="Path_4428" data-name="Path 4428" d="M465.548,8046.158h.538l4-24.218h-2.321Z" transform="translate(-465.548 -8018.582)" fill="#cfd0d8"/>
              <path id="Path_4429" data-name="Path 4429" d="M535.747,8039.327h.543l-2.972-27.08-2.02,2.866Z" transform="translate(-508.517 -8012.247)" fill="#cfd0d8"/>
            </g>
            <path id="Path_4430" data-name="Path 4430" d="M454.891,8006.3a12.685,12.685,0,0,1,1.984-1.653c.306-.206,3.475-3.142,3.475-3.142l21.151,1.242a9.831,9.831,0,0,1,1.3.37c.447.16.675,1.4.62,2.417-.062,1.118-1.953,3.163-3.722,4.281-2.467,1.559-9.39,1.269-10.378,1.269h-1.307c-.987,0-11.073.245-13.542-1.311C453.577,8009.208,454.1,8007.056,454.891,8006.3Z" transform="translate(-450.462 -7978.007)" fill="#cfd0d8"/>
            <path id="Path_4431" data-name="Path 4431" d="M496.306,7935.262c1.366.412,4.646,1.236,4.918,4.533s2.206,22.525,1.661,23.8a2.043,2.043,0,0,1-3.276.821c-.689-.824-4.67-27.782-4.258-28.19Z" transform="translate(-477.464 -7934.716)" fill="#cfd0d8"/>
            <path id="Path_4432" data-name="Path 4432" d="M468,7962c0,1.758-1.889,3.118-4.228,3.064l-12.855-.308c-2.318-.058-4.3-1.506-4.434-3.257l-2.695-24.088c-.162-2.085,1.789-3.767,4.361-3.725l13.393.423c2.594.046,4.7,1.8,4.7,3.9Z" transform="translate(-443.782 -7933.686)" fill="#cfd0d8"/>
          </g>
        </g>
      </g>
    </g>
    <g id="Group_18402" data-name="Group 18402" transform="translate(357.118 7445.2)">
      <g id="Group_18399" data-name="Group 18399">
        <path id="Path_4433" data-name="Path 4433" d="M1073.894,8052.214l-26.907,2.644a5.1,5.1,0,0,1-5.594-5.072v-49.153a5.1,5.1,0,0,1,5.553-5.076l32.79,2.948c.1.009.207.013.31.016a4.869,4.869,0,0,1,4.688,5.657l-6.294,43.69A5.1,5.1,0,0,1,1073.894,8052.214Z" transform="translate(-838.439 -7965.608)" fill="#fff4ba"/>
        <g id="Group_18382" data-name="Group 18382" transform="translate(21.914)">
          <g id="Group_18381" data-name="Group 18381">
            <path id="Path_4434" data-name="Path 4434" d="M529.771,8052.214l26.907,2.644a5.1,5.1,0,0,0,5.595-5.072v-49.153a5.1,5.1,0,0,0-5.553-5.076l-32.791,2.948c-.1.009-.207.013-.309.016a4.869,4.869,0,0,0-4.688,5.657l6.294,43.69A5.1,5.1,0,0,0,529.771,8052.214Z" transform="translate(-518.877 -7965.608)" fill="#fff4ba"/>
            <g id="Group_18380" data-name="Group 18380" transform="translate(11.551)">
              <g id="Group_18379" data-name="Group 18379">
                <g id="Group_18369" data-name="Group 18369" transform="translate(0 1.55)">
                  <path id="Path_4435" data-name="Path 4435" d="M596.531,7966.134c4.837-5.984-3.984-6.1-4.163-10.785s1.015-3.346,1.017-9.422-1.867-8.106-2.408-11.578,1.093-9.472-1.438-13.638-3.562-2.526-5.732-5.823-3.359.733-6.073,2.644-7.053-6.079-11.757-2.261-3.439,10.24-4.527,14.058-5.97,5.9-5.972,12.494,3.435,4.688,2.348,9.374-5.609,4.858-5.611,11.455c0,0,.179,6.595,7.414,5.381s5.427,2.953,13.024-.516,5.788,3.82,11.034.523S592.211,7971.479,596.531,7966.134Z" transform="translate(-552.215 -7913.633)" fill="#2d356b"/>
                </g>
                <g id="Group_18370" data-name="Group 18370" transform="translate(17.37 22.434)">
                  <path id="Path_4436" data-name="Path 4436" d="M616.148,7973.908l6.607,4.16,1.172,14.3-5.31-1.926Z" transform="translate(-611.366 -7973.908)" fill="#f6cda2"/>
                  <path id="Path_4437" data-name="Path 4437" d="M629.229,8081.926c-13.719,8.2-18.914,5.108-26.879,4.75-.157-11.306,6.262-19.044,6.374-26.945.212-14.648-12.222-31.866-1.916-38.478,10.945-7.021,23.9,25.462,23.9,25.462C619.767,8052.857,624.607,8064.4,629.229,8081.926Z" transform="translate(-602.348 -8004.2)" fill="#54ccca"/>
                  <path id="Path_4438" data-name="Path 4438" d="M617.407,8018.9l1.921-.225,8.581,8.088-2.545,2.145S619.607,8023.03,617.407,8018.9Z" transform="translate(-612.189 -8003.167)" fill="#fff"/>
                  <path id="Path_4439" data-name="Path 4439" d="M635.587,8028.8l.12-.088c-2.262-4.523-7.209-11.454-11.993-11.015C628.064,8021.588,635.587,8028.8,635.587,8028.8Z" transform="translate(-616.311 -8002.512)" fill="#f6cda2"/>
                </g>
                <g id="Group_18372" data-name="Group 18372" transform="translate(10.607)">
                  <g id="Group_18371" data-name="Group 18371">
                    <path id="Path_4440" data-name="Path 4440" d="M600.4,7939.687c-3.6-.989-10.86-2.144-14.356-7.585-4.545-7.074-3.391-11.45-1.876-16.774,2.888-10.15,20.2-5.4,19.118-2.407C601.854,7916.891,613.466,7943.271,600.4,7939.687Z" transform="translate(-582.83 -7909.158)" fill="#2d356b"/>
                    <path id="Path_4441" data-name="Path 4441" d="M627.683,7948.832c1.314,0,3.665-6.79,4.366-12,.231-1.717-1.618-1.918-1.5-7.776.068-3.439-1.52-8.2-7.278-11.614-5.436-3.224-5.84,7.447-6.305,9.912-1.327,7.022-3.12,11.433-1.319,14.83C619.161,7948.823,626.263,7948.493,627.683,7948.832Z" transform="translate(-603.778 -7914.181)" fill="#ffd8a3"/>
                    <path id="Path_4442" data-name="Path 4442" d="M651.115,7982.227a.3.3,0,0,1,.273-.329.32.32,0,0,1,.263.35.3.3,0,0,1-.275.328A.317.317,0,0,1,651.115,7982.227Z" transform="translate(-627.456 -7956.695)" fill="#ffab00"/>
                    <path id="Path_4443" data-name="Path 4443" d="M648.929,7954.849c.031-.924.572-1.646,1.205-1.615s1.125.807,1.093,1.73-.571,1.647-1.206,1.614S648.9,7955.772,648.929,7954.849Z" transform="translate(-626.026 -7937.962)" fill="#2d356b"/>
                    <path id="Path_4444" data-name="Path 4444" d="M645.222,7954.773c.889-1.277,2.158-2.552,4.575-1.706A8.838,8.838,0,0,0,645.222,7954.773Z" transform="translate(-623.604 -7937.676)" fill="#2d356b"/>
                    <path id="Path_4445" data-name="Path 4445" d="M656.106,7993.468c.039-.214.7.544,1.011.571.885.076.632,1.2-.25,1.038C656.522,7995.012,656.065,7993.695,656.106,7993.468Z" transform="translate(-630.716 -7964.232)" fill="#f36973"/>
                    <path id="Path_4446" data-name="Path 4446" d="M653.868,7982.281c-.6-.238,3.445-1.4,2.713-.032A6.355,6.355,0,0,1,653.868,7982.281Z" transform="translate(-629.215 -7956.497)" fill="#f36973"/>
                    <path id="Path_4447" data-name="Path 4447" d="M646.318,7940.4a5.386,5.386,0,0,0-6.491,3.387C641.576,7941.394,642.932,7940.5,646.318,7940.4Z" transform="translate(-620.079 -7929.477)" fill="#2d356b"/>
                    <path id="Path_4448" data-name="Path 4448" d="M661.83,7965.909l-2.033.622-.073-5.193,3.031,3.7Z" transform="translate(-633.082 -7943.258)" fill="#ffd8a3"/>
                    <path id="Path_4449" data-name="Path 4449" d="M662.1,7977.072l1.581-3.216-1.526-.055Z" transform="translate(-634.633 -7951.404)" fill="#ffd8a3"/>
                    <path id="Path_4450" data-name="Path 4450" d="M654.538,7987.451a38.343,38.343,0,0,0,1-4.508h-3.672S652.6,7986.831,654.538,7987.451Z" transform="translate(-627.949 -7957.378)" fill="#ffab00"/>
                    <path id="Path_4451" data-name="Path 4451" d="M653.834,7985.428h2.092c.121-.566.233-1.159.336-1.773h-3Z" transform="translate(-628.858 -7957.843)" fill="#fff"/>
                    <path id="Path_4452" data-name="Path 4452" d="M606.638,7962.663c.083-1.6.625-2.783-.59-2.843s-2.271,1.19-2.354,2.793.839,2.951,2.057,3.012S606.557,7964.267,606.638,7962.663Z" transform="translate(-596.462 -7942.266)" fill="#f7c371"/>
                  </g>
                  <path id="Path_4453" data-name="Path 4453" d="M625.945,7916.52c-3.857,5.829-10.615,14.35-8.989,22.654-3.419-8.842-1.894-20.636,3.972-25.491C621.546,7914.57,626.8,7914.3,625.945,7916.52Z" transform="translate(-603.956 -7912.115)" fill="#2d356b"/>
                </g>
                <g id="Group_18378" data-name="Group 18378" transform="translate(11.262 41.253)">
                  <g id="Group_18373" data-name="Group 18373" transform="translate(30.981 16.385)">
                    <path id="Path_4454" data-name="Path 4454" d="M675.654,8098.852c1.813-2.043,8.426-3.278,7.353-5.406-.961-1.906-5.323-3.546-8.872,3.932Z" transform="translate(-674.135 -8086.182)" fill="#ffd9a4"/>
                    <path id="Path_4455" data-name="Path 4455" d="M681.422,8090.58c1.483,3.471,5.706,1.649,6.9.769,1.316-.97.912-3.915-.183-4.619S680.858,8089.251,681.422,8090.58Z" transform="translate(-678.874 -8082.778)" fill="#ffd9a4"/>
                    <path id="Path_4456" data-name="Path 4456" d="M686.1,8080.427c.715-2.107.521-4.861-.33-4.913-.959-.062-.346,2.272-1.449,4.008-1.191,1.881-1.84,3.126-1.14,3.625S685.383,8082.538,686.1,8080.427Z" transform="translate(-679.857 -8075.512)" fill="#ffd9a4"/>
                    <path id="Path_4457" data-name="Path 4457" d="M695.169,8081.462c1.529-1.139,2.067-2.084,1.718-2.456s-1.18.332-2.71,1.467-3.756,2.2-3.407,2.572S693.637,8082.6,695.169,8081.462Z" transform="translate(-684.983 -8077.729)" fill="#ffd9a4"/>
                    <path id="Path_4458" data-name="Path 4458" d="M700.352,8086.542c1.762-.824,2.92-2.317,2.657-2.744s-1.7.716-3.46,1.54-2.859,1.453-2.6,1.878S698.591,8087.366,700.352,8086.542Z" transform="translate(-689.022 -8080.867)" fill="#ffd9a4"/>
                    <path id="Path_4459" data-name="Path 4459" d="M698.73,8094.254c1.726-.894,2.487-1.782,2.214-2.2s-1.3.386-3.024,1.279-2.922,1.543-2.648,1.963S697,8095.148,698.73,8094.254Z" transform="translate(-687.923 -8086.247)" fill="#ffd9a4"/>
                  </g>
                  <g id="Group_18374" data-name="Group 18374">
                    <path id="Path_4460" data-name="Path 4460" d="M596.6,8028.3c-6.858-2.074-12.246,40.48-11.864,41.957,0,0,3.659,1.581,4.621.061C591.848,8066.382,599.664,8029.222,596.6,8028.3Z" transform="translate(-584.719 -8028.222)" fill="#c3e8e6"/>
                    <path id="Path_4461" data-name="Path 4461" d="M616.3,8107.3c2.809,4.878-26.616,15.2-27.815,15.168,0,0-3.237-2.795-2.243-3.792C588.817,8116.089,615.048,8105.117,616.3,8107.3Z" transform="translate(-585.592 -8079.713)" fill="#c3e8e6"/>
                    <path id="Path_4462" data-name="Path 4462" d="M663.861,8104.845l-1.238-1.2-6.461,1.032s1.705,2.521,2.4,2.815S663.861,8104.845,663.861,8104.845Z" transform="translate(-631.409 -8077.515)" fill="#eaeaea"/>
                    <path id="Path_4463" data-name="Path 4463" d="M669.7,8106.773l.649,1.605-3.447,5.568s-1.713-2.551-1.723-3.3S669.7,8106.773,669.7,8106.773Z" transform="translate(-637.301 -8079.557)" fill="#eaeaea"/>
                  </g>
                  <g id="Group_18377" data-name="Group 18377" transform="translate(38.873 7.402)">
                    <g id="Group_18375" data-name="Group 18375">
                      <rect id="Rectangle_6269" data-name="Rectangle 6269" width="45.665" height="31.633" rx="3.698" transform="translate(0.35)" fill="#ebebeb"/>
                      <rect id="Rectangle_6270" data-name="Rectangle 6270" width="46.365" height="2.283" transform="translate(0 32.571)" fill="#ebebeb"/>
                      <rect id="Rectangle_6271" data-name="Rectangle 6271" width="2.283" height="5.483" transform="translate(6.185 28.251)" fill="#ebebeb"/>
                      <rect id="Rectangle_6272" data-name="Rectangle 6272" width="2.283" height="5.483" transform="translate(37.825 28.251)" fill="#ebebeb"/>
                    </g>
                    <g id="Group_18376" data-name="Group 18376" transform="translate(17.821 9.544)">
                      <path id="Path_4464" data-name="Path 4464" d="M748.35,8082.493a5.362,5.362,0,1,1,5.361,5.362A5.367,5.367,0,0,1,748.35,8082.493Zm2.043,0a3.318,3.318,0,1,0,3.318-3.318A3.322,3.322,0,0,0,750.393,8082.493Z" transform="translate(-748.35 -8077.132)" fill="#7b88ac"/>
                    </g>
                  </g>
                </g>
              </g>
            </g>
          </g>
        </g>
        <g id="Group_18393" data-name="Group 18393" transform="translate(185.241 0.65)">
          <g id="Group_18383" data-name="Group 18383" transform="translate(21.391)">
            <path id="Path_4465" data-name="Path 4465" d="M1061.3,7947.419c2.048,4.234,21.249-14.192,17.8-23.546-2.526-7.863-7.469-6.043-7.778-6.876-.227-.611.827-4.127-6.03-5.594-7.866-1.682-15.718,2.553-12.582,9.735,3.768,8.631-2.168,20.621,2.189,23.544S1061.3,7947.419,1061.3,7947.419Z" transform="translate(-1052.009 -7911.036)" fill="#ffab00"/>
          </g>
          <g id="Group_18384" data-name="Group 18384" transform="translate(0 81.331)">
            <path id="Path_4466" data-name="Path 4466" d="M1014.983,8151.294c1.4-1.8,3.855-3.181,4.379-2.484.593.783-1.745,1.574-2.605,3.492-.936,2.075-1.633,3.33-2.452,3.013S1013.584,8153.093,1014.983,8151.294Z" transform="translate(-1005.639 -8147.637)" fill="#f8c471"/>
            <path id="Path_4467" data-name="Path 4467" d="M1017.853,8147.962c-2.741.531-7.272,5.707-8.585,3.654-1.177-1.838-.348-6.53,8.079-5.759Z" transform="translate(-1002.407 -8145.772)" fill="#ffd9a4"/>
            <path id="Path_4468" data-name="Path 4468" d="M1007.948,8146.954c2.283,3.112-1.519,5.881-2.917,6.475-1.538.653-3.919-1.236-3.967-2.566S1007.074,8145.766,1007.948,8146.954Z" transform="translate(-997.323 -8146.395)" fill="#ffd9a4"/>
            <path id="Path_4469" data-name="Path 4469" d="M993.339,8154.724c-1.8.753-2.91.733-3.055.233s.906-.866,2.7-1.62,3.892-2.16,4.037-1.66S995.133,8153.966,993.339,8154.724Z" transform="translate(-990.27 -8149.563)" fill="#ffd9a4"/>
            <path id="Path_4470" data-name="Path 4470" d="M995.138,8161.234c-1.642,1.123-3.559,1.363-3.8.91s1.514-1.121,3.156-2.242,2.767-1.76,3-1.306S996.78,8160.114,995.138,8161.234Z" transform="translate(-990.955 -8154.056)" fill="#ffd9a4"/>
            <path id="Path_4471" data-name="Path 4471" d="M1003.173,8163.681c-1.685,1.054-2.863,1.26-3.088.8s1.016-.943,2.7-1.994,2.879-1.767,3.1-1.308S1004.858,8162.628,1003.173,8163.681Z" transform="translate(-996.667 -8155.75)" fill="#ffd9a4"/>
          </g>
          <g id="Group_18385" data-name="Group 18385" transform="translate(12.359 25.987)">
            <path id="Path_4472" data-name="Path 4472" d="M1077.079,7986.038l-6.584,4.5-.652,14.634,5.346-2.167Z" transform="translate(-1054.632 -7986.038)" fill="#f6cda2"/>
            <path id="Path_4473" data-name="Path 4473" d="M1028.793,8097.315c14.312,7.844,19.5,4.494,27.611,3.826-.27-11.544-7.115-19.2-7.531-27.258-.773-14.94,11.26-32.984.49-39.339-11.437-6.748-23.423,26.9-23.423,26.9C1037.343,8067.29,1032.843,8079.258,1028.793,8097.315Z" transform="translate(-1025.941 -8017.153)" fill="#ffb2b0"/>
            <path id="Path_4474" data-name="Path 4474" d="M1071.521,8032.144l-1.969-.156-8.449,8.581,2.679,2.092S1069.434,8036.438,1071.521,8032.144Z" transform="translate(-1048.921 -8016.067)" fill="#fff"/>
            <path id="Path_4475" data-name="Path 4475" d="M1050.686,8042.822l-.126-.085c2.136-4.7,6.922-11.964,11.82-11.7C1058.088,8035.175,1050.686,8042.822,1050.686,8042.822Z" transform="translate(-1042.03 -8015.444)" fill="#f6cda2"/>
          </g>
          <g id="Group_18386" data-name="Group 18386" transform="translate(13.77 45.625)">
            <path id="Path_4476" data-name="Path 4476" d="M1035.792,8141.166c1.119,5.707,26.949,1.014,27.88.167,0,0,.654-4.379-.824-4.477C1059.022,8136.6,1035.293,8138.618,1035.792,8141.166Z" transform="translate(-1033.784 -8104.226)" fill="#fc8c99"/>
            <path id="Path_4477" data-name="Path 4477" d="M1091.871,8042.989c6.311-3.9,9.31,35.792,7.464,36.975,0,0-3.981-.362-5.055-1.919C1091.036,8073.343,1089.051,8044.729,1091.871,8042.989Z" transform="translate(-1069.556 -8042.719)" fill="#fc8c99"/>
            <path id="Path_4478" data-name="Path 4478" d="M1030.095,8141.9l.256-1.672,6.068-2.94s.222,3-.166,3.641S1030.095,8141.9,1030.095,8141.9Z" transform="translate(-1030.066 -8104.521)" fill="#fff"/>
            <path id="Path_4479" data-name="Path 4479" d="M1030.012,8150.222l.506,1.659,6.512,2.432s-.237-3.032-.716-3.638S1030.012,8150.222,1030.012,8150.222Z" transform="translate(-1030.012 -8112.963)" fill="#fff"/>
          </g>
          <g id="Group_18392" data-name="Group 18392" transform="translate(17.3 3.469)">
            <g id="Group_18391" data-name="Group 18391">
              <g id="Group_18390" data-name="Group 18390">
                <g id="Group_18389" data-name="Group 18389">
                  <g id="Group_18388" data-name="Group 18388">
                    <g id="Group_18387" data-name="Group 18387" transform="translate(0 3.952)">
                      <path id="Path_4480" data-name="Path 4480" d="M1049.936,7963.773c-1.253.168-4.359-6.006-5.69-10.883-.439-1.607,1.3-2.035.441-7.605-.5-3.271.405-8.011,5.461-12,4.773-3.767,6.517,6.357,7.274,8.648,2.16,6.526,4.431,10.5,3.147,13.973C1058.061,7962.68,1051.246,7963.271,1049.936,7963.773Z" transform="translate(-1042.797 -7932.454)" fill="#ffd8a3"/>
                      <path id="Path_4481" data-name="Path 4481" d="M1057.161,7997.134a.291.291,0,0,0-.3-.279.306.306,0,0,0-.206.366.292.292,0,0,0,.3.278A.306.306,0,0,0,1057.161,7997.134Z" transform="translate(-1050.949 -7974.539)" fill="#ffab00"/>
                      <path id="Path_4482" data-name="Path 4482" d="M1052.865,7970.956c-.147-.877-.755-1.5-1.355-1.386s-.97.913-.822,1.788.755,1.5,1.355,1.387S1053.013,7971.833,1052.865,7970.956Z" transform="translate(-1047.033 -7956.702)" fill="#2d356b"/>
                      <path id="Path_4483" data-name="Path 4483" d="M1052.011,7970.84c-1.011-1.106-2.382-2.16-4.58-1.045A8.5,8.5,0,0,1,1052.011,7970.84Z" transform="translate(-1044.926 -7956.546)" fill="#2d356b"/>
                      <path id="Path_4484" data-name="Path 4484" d="M1052.167,8008.435c-.065-.2-.6.608-.891.674-.834.185-.45,1.229.371.958C1051.967,8009.961,1052.235,8008.646,1052.167,8008.435Z" transform="translate(-1047.133 -7982.088)" fill="#f36973"/>
                      <path id="Path_4485" data-name="Path 4485" d="M1050.365,7997.941c.541-.3-3.464-.9-2.591.315A6.107,6.107,0,0,0,1050.365,7997.941Z" transform="translate(-1045.068 -7974.979)" fill="#f36973"/>
                      <path id="Path_4486" data-name="Path 4486" d="M1045.66,7957.691a5.182,5.182,0,0,1,6.621,2.4C1050.308,7958.032,1048.9,7957.352,1045.66,7957.691Z" transform="translate(-1043.768 -7948.695)" fill="#2d356b"/>
                      <path id="Path_4487" data-name="Path 4487" d="M1041.193,7982.877l2.018.334-.591-4.961-2.419,3.911Z" transform="translate(-1040.2 -7962.382)" fill="#ffd8a3"/>
                      <path id="Path_4488" data-name="Path 4488" d="M1044.093,7993.568l-1.917-2.865,1.448-.246Z" transform="translate(-1041.492 -7970.36)" fill="#ffd8a3"/>
                      <path id="Path_4489" data-name="Path 4489" d="M1048.847,8002.49a36.938,36.938,0,0,1-1.531-4.171l3.5-.467S1050.617,8001.651,1048.847,8002.49Z" transform="translate(-1044.85 -7975.193)" fill="#ffab00"/>
                      <path id="Path_4490" data-name="Path 4490" d="M1050.467,8000.47l-1.995.267c-.187-.525-.369-1.076-.546-1.648l2.862-.382Z" transform="translate(-1045.25 -7975.751)" fill="#fff"/>
                      <path id="Path_4491" data-name="Path 4491" d="M1092.5,7973.271c-.283-1.517-.95-2.574.2-2.786s2.317.846,2.6,2.364-.424,2.921-1.577,3.134S1092.779,7974.791,1092.5,7973.271Z" transform="translate(-1074.083 -7957.29)" fill="#f7c371"/>
                    </g>
                    <path id="Path_4492" data-name="Path 4492" d="M1052.816,7922.277c1.229-2.364,4.14-.829,8.415.521s6.743,4.36,5.514,6.724-5.693,3.188-9.968,1.837S1051.585,7924.641,1052.816,7922.277Z" transform="translate(-1048.116 -7921.047)" fill="#ffab00"/>
                  </g>
                </g>
              </g>
            </g>
          </g>
        </g>
        <g id="Group_18397" data-name="Group 18397" transform="translate(147.225 48.789)">
          <g id="Group_18396" data-name="Group 18396">
            <g id="Group_18394" data-name="Group 18394">
              <rect id="Rectangle_6273" data-name="Rectangle 6273" width="45.665" height="31.633" rx="3.698" transform="translate(0.35)" fill="#ebebeb"/>
              <rect id="Rectangle_6274" data-name="Rectangle 6274" width="46.365" height="2.283" transform="translate(0 32.571)" fill="#ebebeb"/>
              <rect id="Rectangle_6275" data-name="Rectangle 6275" width="2.283" height="5.483" transform="translate(6.185 28.251)" fill="#ebebeb"/>
              <rect id="Rectangle_6276" data-name="Rectangle 6276" width="2.283" height="5.483" transform="translate(37.825 28.251)" fill="#ebebeb"/>
            </g>
            <g id="Group_18395" data-name="Group 18395" transform="translate(17.821 9.544)">
              <path id="Path_4493" data-name="Path 4493" d="M931.984,8082.88a5.361,5.361,0,1,1,5.361,5.362A5.367,5.367,0,0,1,931.984,8082.88Zm2.043,0a3.319,3.319,0,1,0,3.318-3.318A3.322,3.322,0,0,0,934.027,8082.88Z" transform="translate(-931.984 -8077.52)" fill="#7b88ac"/>
            </g>
          </g>
        </g>
        <g id="Group_18398" data-name="Group 18398" transform="translate(0 83.914)">
          <path id="Path_4494" data-name="Path 4494" d="M735.625,8159.663l-247.732-2.631,6.041,30.762H729.977Z" transform="translate(-476.714 -8155.063)" fill="#2d356b"/>
          <path id="Path_4495" data-name="Path 4495" d="M723.144,8151.349H455.629l3.9,7.041,261.02-2.347Z" transform="translate(-455.629 -8151.349)" fill="#7b88ac"/>
        </g>
      </g>
      <g id="Group_18400" data-name="Group 18400" transform="translate(13.132 45.519)">
        <rect id="Rectangle_6277" data-name="Rectangle 6277" width="47.991" height="25.605" rx="6.672" fill="#fff" stroke="#231f20" stroke-miterlimit="10" stroke-width="0.25"/>
        <text id="Akiko" transform="translate(10.996 16.303)" fill="#2d356b" font-size="10" font-family="TrebuchetMS-Bold, Trebuchet MS" font-weight="700"><tspan x="0" y="0">Akiko</tspan></text>
      </g>
      <g id="Group_18401" data-name="Group 18401" transform="translate(213.116 60.519)">
        <rect id="Rectangle_6278" data-name="Rectangle 6278" width="47.991" height="25.605" rx="6.672" transform="translate(1.568 -15)" fill="#fff" stroke="#231f20" stroke-miterlimit="10" stroke-width="0.25"/>
        <text id="Mandy" transform="translate(10.568 1.271)" fill="#2d356b" font-size="10" font-family="TrebuchetMS-Bold, Trebuchet MS" font-weight="700"><tspan x="0" y="0">Mandy</tspan></text>
      </g>
    </g>
    <g id="Group_18404" data-name="Group 18404" transform="translate(311.469 7210.262)">
      <g id="Group_18403" data-name="Group 18403" transform="translate(0 -3)">
        <path id="Path_4496" data-name="Path 4496" d="M750.666,7398.35c14.453,26.168-.507,52.609-36.348,61.152-38.071,9.077-85.6-5.4-107.624-32.434-19.8,12.956-49.233,22.122-82.36,24.049-61.064,3.556-111.552-18.82-112.768-49.978a32.884,32.884,0,0,1,4.885-18.053c-52.058,8.815-67.926-8.361-78.152-44.073-12.907-44.352,43.3-93.039,89.027-84.786-.135-.866,32.841-49.687,163.637-28.736,51.076,9.436,86.034,18.826,96.421,40.988,0,0,138.534-16.632,158.708,69.78C846.092,7336.26,870,7412.791,750.666,7398.35Z" transform="translate(-323.878 -7219.538)" fill="#fff" stroke="#ebebeb" stroke-miterlimit="10" stroke-width="1"/>
        <ellipse id="Ellipse_132" data-name="Ellipse 132" cx="13.649" cy="14.395" rx="13.649" ry="14.395" transform="translate(71.25 205.105) rotate(-72.377)" fill="#fff" stroke="#ebebeb" stroke-miterlimit="10" stroke-width="1"/>
        <ellipse id="Ellipse_133" data-name="Ellipse 133" cx="8.088" cy="8.53" rx="8.088" ry="8.53" transform="translate(70.389 218.922) rotate(-72.377)" fill="#fff" stroke="#ebebeb" stroke-miterlimit="10" stroke-width="1"/>
        <ellipse id="Ellipse_134" data-name="Ellipse 134" cx="6.918" cy="7.297" rx="6.918" ry="7.297" transform="translate(72.124 238.255) rotate(-72.377)" fill="#fff" stroke="#ebebeb" stroke-miterlimit="10" stroke-width="1"/>
      </g>
    </g>
    <g id="Group_18412" data-name="Group 18412" transform="translate(555.128 7340.631)">
      <g id="Group_18410" data-name="Group 18410" transform="translate(0 0)">
        <g id="Group_18409" data-name="Group 18409">
          <rect id="Rectangle_6279" data-name="Rectangle 6279" width="280.512" height="94.186" fill="#fff" stroke="#2d356b" stroke-miterlimit="10" stroke-width="1"/>
          <rect id="Rectangle_6280" data-name="Rectangle 6280" width="233.703" height="16.746" transform="translate(46.617 0.22)" fill="#ebebeb"/>
          <g id="Group_18405" data-name="Group 18405" transform="translate(46.779)">
            <line id="Line_18" data-name="Line 18" y2="94.186" transform="translate(46.617)" fill="#cfd0d8" stroke="#d0d2d3" stroke-miterlimit="10" stroke-width="0.25"/>
            <line id="Line_19" data-name="Line 19" y2="94.186" fill="#cfd0d8" stroke="#d0d2d3" stroke-miterlimit="10" stroke-width="0.25"/>
            <line id="Line_20" data-name="Line 20" y2="94.186" transform="translate(93.396)" fill="#cfd0d8" stroke="#d0d2d3" stroke-miterlimit="10" stroke-width="0.25"/>
            <line id="Line_21" data-name="Line 21" y2="94.186" transform="translate(140.175)" fill="#cfd0d8" stroke="#d0d2d3" stroke-miterlimit="10" stroke-width="0.25"/>
            <line id="Line_22" data-name="Line 22" y2="94.186" transform="translate(233.733)" fill="#cfd0d8" stroke="#d0d2d3" stroke-miterlimit="10" stroke-width="0.25"/>
            <line id="Line_23" data-name="Line 23" y2="94.186" transform="translate(186.954)" fill="#cfd0d8" stroke="#d0d2d3" stroke-miterlimit="10" stroke-width="0.25"/>
          </g>
          <rect id="Rectangle_6281" data-name="Rectangle 6281" width="103.833" height="12.216" transform="translate(46.456 16.854)" fill="#03b4e9"/>
          <rect id="Rectangle_6282" data-name="Rectangle 6282" width="119.291" height="12.216" transform="translate(140.175 33.141)" fill="#ffd9a4"/>
          <rect id="Rectangle_6283" data-name="Rectangle 6283" width="93.719" height="24.048" transform="translate(46.456 49.429)" fill="#ebebeb"/>
          <rect id="Rectangle_6284" data-name="Rectangle 6284" width="93.719" height="12.216" transform="translate(46.456 33.141)" fill="#ebebeb"/>
          <path id="Path_4497" data-name="Path 4497" d="M1269.513,7662.191" transform="translate(-1222.896 -7662.191)" fill="#cfd0d8" stroke="#d0d2d3" stroke-miterlimit="10" stroke-width="2"/>
          <g id="Group_18406" data-name="Group 18406" transform="translate(0 16.854)">
            <rect id="Rectangle_6285" data-name="Rectangle 6285" width="46.779" height="12.216" fill="#cfd0d8"/>
            <text id="Task1" transform="translate(10.617 9.853)" fill="#fff" font-size="10" font-family="TrebuchetMS-Bold, Trebuchet MS" font-weight="700"><tspan x="0" y="0">Task1</tspan></text>
          </g>
          <g id="Group_18407" data-name="Group 18407" transform="translate(0 33.141)">
            <rect id="Rectangle_6286" data-name="Rectangle 6286" width="46.779" height="12.216" fill="#cfd0d8"/>
            <text id="Task2" transform="translate(10.617 9.853)" fill="#fff" font-size="10" font-family="TrebuchetMS-Bold, Trebuchet MS" font-weight="700"><tspan x="0" y="0">Task2</tspan></text>
          </g>
          <g id="Group_18408" data-name="Group 18408" transform="translate(0 49.429)">
            <rect id="Rectangle_6287" data-name="Rectangle 6287" width="46.779" height="24.048" fill="#2d356b"/>
            <text id="WEEKLY_REPORT" data-name="WEEKLY
REPORT" transform="translate(4.617 10.853)" fill="#fff" font-size="10" font-family="TrebuchetMS-Bold, Trebuchet MS" font-weight="700"><tspan x="0" y="0">WEEKLY</tspan><tspan x="0" y="10">REPORT</tspan></text>
          </g>
        </g>
      </g>
      <g id="Group_18411" data-name="Group 18411" transform="translate(91.288 40.653)">
        <rect id="Rectangle_6289" data-name="Rectangle 6289" width="99.677" height="26.029" transform="matrix(0.987, -0.16, 0.16, 0.987, 0, 15.904)" fill="#f46973"/>
        <text id="DELAYED" transform="translate(15.446 32.96) rotate(-9.181)" fill="#fff" font-size="18" font-family="TrebuchetMS-Bold, Trebuchet MS" font-weight="700"><tspan x="0" y="0">DELAYED</tspan></text>
      </g>
    </g>
  </g>
</svg>
