<svg xmlns="http://www.w3.org/2000/svg" width="203.17" height="191.145" viewBox="0 0 203.17 191.145">
  <g id="Group_18450" data-name="Group 18450" transform="translate(-9.471)">
    <g id="Group_18448" data-name="Group 18448" transform="translate(9.471)">
      <g id="Group_18425" data-name="Group 18425" transform="translate(0 44.347)">
        <path id="Path_4499" data-name="Path 4499" d="M832.863,2264.919l-1.779.526-.818,4.381,3.923,1.8Z" transform="translate(-784.401 -2240.347)" fill="#eaeaea"/>
        <path id="Path_4500" data-name="Path 4500" d="M784.688,2193.494l-16.187-6.9-1.976,26.536,23.265,8.014Z" transform="translate(-740.657 -2186.598)" fill="#f7c371"/>
        <path id="Path_4501" data-name="Path 4501" d="M824.1,2458.606l-31.615,8.086-4.013,46.68,27.541,2.538Z" transform="translate(-755.719 -2373.269)" fill="#eaeaea"/>
        <path id="Path_4502" data-name="Path 4502" d="M695.481,2379.715c19.883.448,39.161,11.083,50.455-11.187,6.11-12.052,7.055-32.373,8.386-52.488,1.778-26.89-26.473-63.65-50.769-56.863-33.767,9.434-14.1,54.14-10.756,65.844C702.592,2359.311,696.638,2372.245,695.481,2379.715Z" transform="translate(-684.072 -2235.844)" fill="#cfd0d8"/>
        <path id="Path_4503" data-name="Path 4503" d="M737.306,2423.13c.155-8.85-6.739-19.312-21.776-50.274-2.916-6.006-5.7-23.656-8.435-38.417-1.021-5.511-10.862,4.52-12.9,17.827-1.264,8.255,4.14,19.43,5.419,23.91,9.794,34.289,3.84,47.224,2.684,54.694C713.792,2431.128,726.469,2429.145,737.306,2423.13Z" transform="translate(-690.889 -2286.999)" fill="#9999a5"/>
        <path id="Path_4504" data-name="Path 4504" d="M787.427,2341.372c-.771-34.831-26.547-69.829-50.32-80.232-3.994-1.748-.28-4.645,11.22-3.248C758.613,2259.183,799.415,2280.972,787.427,2341.372Z" transform="translate(-719.404 -2235.272)" fill="#7b88ac"/>
        <path id="Path_4505" data-name="Path 4505" d="M814.92,2319.386c-3.1-29.348-13.577-45.017-38.658-60.688,10.03,1.259,49.593,16.045,40.436,72.787C816.465,2332.931,815.456,2324.459,814.92,2319.386Z" transform="translate(-747.339 -2236.078)" fill="#ebebeb"/>
        <path id="Path_4506" data-name="Path 4506" d="M879.341,2578.838c.2-1.217-.319-2.317-1.161-2.455s-1.685.736-1.885,1.954.318,2.317,1.16,2.455S879.14,2580.056,879.341,2578.838Z" transform="translate(-815.959 -2454.086)" fill="#9999a5"/>
        <path id="Path_4507" data-name="Path 4507" d="M886.915,2532.842c.2-1.216-.319-2.316-1.16-2.455s-1.685.737-1.885,1.954.318,2.317,1.159,2.455S886.714,2534.06,886.915,2532.842Z" transform="translate(-821.158 -2422.521)" fill="#9999a5"/>
        <path id="Path_4508" data-name="Path 4508" d="M822.99,2270.852l5.915,2.24-1.9-6.567-1.117-.643Z" transform="translate(-779.407 -2241.008)" fill="#f46973"/>
        <path id="Path_4509" data-name="Path 4509" d="M858.99,2352.239l-1.529-11.854s6.38-36.657-19.693-55.887l.352-.921C859.532,2300.1,865.39,2327.611,858.99,2352.239Z" transform="translate(-789.549 -2253.152)" fill="#f46973"/>
        <path id="Path_4510" data-name="Path 4510" d="M780.711,2249.682l-23.313-6.965-3.125,4.624,22.029,9.708Z" transform="translate(-732.249 -2225.111)" fill="#fff"/>
      </g>
      <g id="Group_18440" data-name="Group 18440" transform="translate(44.973 24.779)">
        <g id="Group_18439" data-name="Group 18439">
          <g id="Group_18438" data-name="Group 18438">
            <rect id="Rectangle_6306" data-name="Rectangle 6306" width="99.591" height="71.619" transform="translate(22.369 95.163) rotate(-72.851)" fill="#ffac00" stroke="#cfd0d8" stroke-miterlimit="10" stroke-width="1"/>
            <rect id="Rectangle_6307" data-name="Rectangle 6307" width="99.591" height="76.705" transform="translate(12.045 98.075) rotate(-72.851)" fill="#fff"/>
            <rect id="Rectangle_6308" data-name="Rectangle 6308" width="100.013" height="76.282" transform="translate(10.261 99.187) rotate(-72.851)" fill="#cfd0d8"/>
            <rect id="Rectangle_6309" data-name="Rectangle 6309" width="99.59" height="78.612" transform="translate(6.318 99.745) rotate(-72.851)" fill="#fff"/>
            <rect id="Rectangle_6310" data-name="Rectangle 6310" width="99.591" height="77.554" transform="translate(6.209 100.821) rotate(-72.851)" fill="#54ccca"/>
            <g id="Group_18437" data-name="Group 18437" transform="translate(0 6.598)">
              <g id="Group_18436" data-name="Group 18436">
                <path id="Path_4511" data-name="Path 4511" d="M904.182,2265.817a.8.8,0,0,1-.988.536l-75.218-23.211a.794.794,0,0,1-.517-1l29.721-96.314a.8.8,0,0,1,.991-.534l75.218,23.211a.8.8,0,0,1,.515,1Z" transform="translate(-827.422 -2145.259)" fill="#fff" stroke="#9999a5" stroke-miterlimit="10" stroke-width="1"/>
                <g id="Group_18435" data-name="Group 18435" transform="translate(12.485 34.478)">
                  <g id="Group_18426" data-name="Group 18426" transform="translate(12.806)">
                    <rect id="Rectangle_6311" data-name="Rectangle 6311" width="2.06" height="25.79" transform="translate(3.089 1.968) rotate(-72.851)" fill="#cfd0d8"/>
                    <rect id="Rectangle_6312" data-name="Rectangle 6312" width="2.058" height="25.79" transform="translate(2.071 5.269) rotate(-72.851)" fill="#cfd0d8"/>
                    <rect id="Rectangle_6313" data-name="Rectangle 6313" width="2.06" height="25.79" transform="translate(1.035 8.627) rotate(-72.851)" fill="#cfd0d8"/>
                    <rect id="Rectangle_6314" data-name="Rectangle 6314" width="2.058" height="25.79" transform="translate(0 11.98) rotate(-72.851)" fill="#cfd0d8"/>
                  </g>
                  <g id="Group_18427" data-name="Group 18427" transform="translate(8.786 14.214)">
                    <rect id="Rectangle_6315" data-name="Rectangle 6315" width="2.473" height="58.757" transform="translate(2.511 2.363) rotate(-72.851)" fill="#cfd0d8"/>
                    <rect id="Rectangle_6316" data-name="Rectangle 6316" width="2.472" height="58.757" transform="translate(1.269 6.389) rotate(-72.851)" fill="#cfd0d8"/>
                    <rect id="Rectangle_6317" data-name="Rectangle 6317" width="2.472" height="58.757" transform="translate(0 10.501) rotate(-72.851)" fill="#cfd0d8"/>
                  </g>
                  <g id="Group_18431" data-name="Group 18431" transform="translate(0 33.1)">
                    <path id="Path_4512" data-name="Path 4512" d="M869.058,2384.813l7.318-23.715-1.416-.437-7.741,25.087,25.91,8,.423-1.372Z" transform="translate(-867.218 -2360.661)" fill="#cfd0d8"/>
                    <g id="Group_18430" data-name="Group 18430" transform="translate(4.764 5.504)">
                      <path id="Path_4513" data-name="Path 4513" d="M906.423,2406.427l-3.464-.7.57,1.208-8.406,3.657-2.977-2.73-9.078,3.765-.664,2.153,9.454-3.925,3.01,2.756,9.35-4.209.6,1.283Z" transform="translate(-882.404 -2397.094)" fill="#cfd0d8"/>
                      <g id="Group_18429" data-name="Group 18429" transform="translate(1.081)">
                        <g id="Group_18428" data-name="Group 18428">
                          <path id="Path_4514" data-name="Path 4514" d="M886.25,2390.157l7.434-7.8a.327.327,0,0,1,.437-.033h0l4.469,3.46,2.318-.091,4.343-7.325a.325.325,0,0,1,.306-.157h0a.32.32,0,0,1,.276.206h0l1.748,4.563,4.527-.173.024.653-4.76.18a.328.328,0,0,1-.319-.209h0l-1.587-4.147-4.09,6.9a.317.317,0,0,1-.264.16h0l-2.615.1a.323.323,0,0,1-.212-.067h0l-4.331-3.355-8.106,8.5Z" transform="translate(-885.849 -2378.205)" fill="#cfd0d8"/>
                          <path id="Path_4515" data-name="Path 4515" d="M968.932,2392.7l1.206-1.389a.078.078,0,0,0,.017-.064.071.071,0,0,0-.046-.051l-1.583-.7a.1.1,0,0,0-.089.008.086.086,0,0,0-.032.078l.381,2.085a.083.083,0,0,0,.146.031Z" transform="translate(-942.504 -2386.634)" fill="#cfd0d8"/>
                        </g>
                      </g>
                    </g>
                  </g>
                  <g id="Group_18433" data-name="Group 18433" transform="translate(47.985 4.305)">
                    <path id="Path_4516" data-name="Path 4516" d="M1021.515,2287.3l5.586-18.1-1.024-.316-5.586,18.1-.323,1.045,1.024.316,17.692,5.459.323-1.045Z" transform="translate(-1020.169 -2268.88)" fill="#cfd0d8"/>
                    <g id="Group_18432" data-name="Group 18432" transform="translate(3.213 10.707)">
                      <rect id="Rectangle_6318" data-name="Rectangle 6318" width="4.007" height="3.214" transform="translate(0 6.885) rotate(-72.851)" fill="#cfd0d8"/>
                      <rect id="Rectangle_6319" data-name="Rectangle 6319" width="7.162" height="3.21" transform="translate(4.088 8.147) rotate(-72.851)" fill="#cfd0d8"/>
                      <rect id="Rectangle_6320" data-name="Rectangle 6320" width="6.033" height="3.208" transform="translate(8.141 9.398) rotate(-72.851)" fill="#cfd0d8"/>
                      <rect id="Rectangle_6321" data-name="Rectangle 6321" width="11.143" height="3.212" transform="translate(12.191 10.647) rotate(-72.851)" fill="#cfd0d8"/>
                    </g>
                    <path id="Path_4517" data-name="Path 4517" d="M1054.944,2286.667l-2.749-.548.446.975-6.688,3.005-2.348-2.191-7.226,3.093-.538,1.745,7.527-3.225,2.372,2.216,7.444-3.459.473,1.038Z" transform="translate(-1030.923 -2280.71)" fill="#cfd0d8"/>
                  </g>
                  <g id="Group_18434" data-name="Group 18434" transform="translate(32.209 48.055)">
                    <rect id="Rectangle_6322" data-name="Rectangle 6322" width="2.06" height="25.79" transform="translate(3.089 1.968) rotate(-72.851)" fill="#cfd0d8"/>
                    <rect id="Rectangle_6323" data-name="Rectangle 6323" width="2.058" height="25.79" transform="translate(2.071 5.269) rotate(-72.851)" fill="#cfd0d8"/>
                    <rect id="Rectangle_6324" data-name="Rectangle 6324" width="2.06" height="25.79" transform="translate(1.035 8.627) rotate(-72.851)" fill="#cfd0d8"/>
                    <rect id="Rectangle_6325" data-name="Rectangle 6325" width="2.058" height="25.79" transform="translate(0 11.98) rotate(-72.851)" fill="#cfd0d8"/>
                  </g>
                </g>
              </g>
            </g>
          </g>
          <text id="Proposal" transform="translate(29.923 27.335) rotate(16.839)" fill="#2d356b" font-size="17" font-family="TrebuchetMS-Bold, Trebuchet MS" font-weight="700"><tspan x="0" y="0">Proposal</tspan></text>
        </g>
      </g>
      <g id="Group_18441" data-name="Group 18441" transform="translate(49.498 79.945)">
        <rect id="Rectangle_6326" data-name="Rectangle 6326" width="148.672" height="38.885" rx="19.443" fill="#fff" stroke="#f46973" stroke-miterlimit="10" stroke-width="10" stroke-dasharray="40 20 0 0"/>
        <text id="NOT_APPROVED" data-name="NOT APPROVED" transform="translate(9.976 25.818)" fill="#f46973" font-size="18" font-family="TrebuchetMS-Bold, Trebuchet MS" font-weight="700"><tspan x="0" y="0">NOT APPROVED</tspan></text>
      </g>
      <g id="Group_18443" data-name="Group 18443" transform="translate(3.937 81.099)">
        <path id="Path_4518" data-name="Path 4518" d="M706.6,2380.158c-5.439,2.755-15.175-71.005-6.548-76.237,0,0,18.611-4.029,34.217,26.638C734.265,2330.559,726.464,2370.094,706.6,2380.158Z" transform="translate(-696.622 -2303.746)" fill="#cfd0d8"/>
        <g id="Group_18442" data-name="Group 18442" transform="translate(64.029 18.288)">
          <path id="Path_4519" data-name="Path 4519" d="M903.016,2408.413c4.376-3.172,17.681-2.732,16.517-7.3-1.041-4.093-8.769-9.127-18.822,3.8Z" transform="translate(-900.711 -2385.772)" fill="#ffd9a4"/>
          <path id="Path_4520" data-name="Path 4520" d="M921,2394.548c1.381,7.342,10.32,5.628,13.009,4.438,2.956-1.31,3.435-7.174,1.62-9S920.478,2391.74,921,2394.548Z" transform="translate(-914.625 -2380.875)" fill="#ffd9a4"/>
          <path id="Path_4521" data-name="Path 4521" d="M932.068,2371.714c2.283-3.765,3.083-9.168,1.464-9.635-1.826-.53-1.64,4.244-4.513,7.125-3.1,3.126-4.891,5.254-3.752,6.515S929.785,2375.487,932.068,2371.714Z" transform="translate(-917.326 -2362.038)" fill="#ffd9a4"/>
          <path id="Path_4522" data-name="Path 4522" d="M953.458,2381.5c3.442-1.546,4.885-3.144,4.37-4.01s-2.422.136-5.862,1.675-8.2,2.646-7.683,3.513S950.014,2383.031,953.458,2381.5Z" transform="translate(-930.586 -2372.418)" fill="#ffd9a4"/>
          <path id="Path_4523" data-name="Path 4523" d="M962.951,2394.762c3.757-.838,6.632-3.23,6.308-4.165s-3.587.657-7.343,1.5-6.146,1.583-5.819,2.519S959.2,2395.6,962.951,2394.762Z" transform="translate(-938.701 -2381.442)" fill="#ffd9a4"/>
          <path id="Path_4524" data-name="Path 4524" d="M955.954,2410.151c3.717-.988,5.567-2.381,5.218-3.3s-2.675.189-6.389,1.179-6.305,1.733-5.955,2.659S952.236,2411.14,955.954,2410.151Z" transform="translate(-933.711 -2392.552)" fill="#ffd9a4"/>
        </g>
        <path id="Path_4525" data-name="Path 4525" d="M732.026,2426.914c23.037-6.056,26.515-44.238,26.515-44.238a13.957,13.957,0,0,0-1.589-2.987C752.547,2408.956,731.068,2427.166,732.026,2426.914Z" transform="translate(-720.897 -2355.863)" fill="#9999a5"/>
        <path id="Path_4526" data-name="Path 4526" d="M902.95,2412.446l-5.781,6.252-6.946-10.747,8.039-2.273Z" transform="translate(-829.485 -2373.699)" fill="#eaeaea"/>
        <path id="Path_4527" data-name="Path 4527" d="M718.979,2454.38s21.657-6.773,58.378-34.449c0,0,.043-5.1-7.112-10.4,0,0-39.083,7.5-57.646,22.064C712.6,2431.594,710.709,2451.031,718.979,2454.38Z" transform="translate(-707.459 -2376.343)" fill="#cfd0d8"/>
        <path id="Path_4528" data-name="Path 4528" d="M889.621,2421.659a1.8,1.8,0,1,0-1.442-2.391A2,2,0,0,0,889.621,2421.659Z" transform="translate(-828.023 -2382.285)" fill="#9999a5"/>
      </g>
      <g id="Group_18447" data-name="Group 18447" transform="translate(18.951)">
        <path id="Path_4529" data-name="Path 4529" d="M749.578,2086.575c-8.653-15.089-3.826-36.577-3.159-37.24,7.114-7.095,22.97-3.544,30.642.072,6.47,3.048,11.137,7.762,6.819,12.465-1.491,1.624-6.153-3.474-7.842-3.549-3.193-.142-12.718,42.426-12.718,42.426Z" transform="translate(-744.477 -2045.245)" fill="#cfd0d8"/>
        <g id="Group_18445" data-name="Group 18445" transform="translate(7.996 11.444)">
          <g id="Group_18444" data-name="Group 18444" transform="translate(1.894)">
            <path id="Path_4530" data-name="Path 4530" d="M855.108,2194.972l2.082-2.436-1.945-1.728Z" transform="translate(-830.29 -2156.585)" fill="#ffd8a3"/>
            <path id="Path_4531" data-name="Path 4531" d="M776.39,2117.964c.676,3.863,10.6,13.535,21.826,14.9,3.683-14.282,7.151-38.294,5.134-42.826-1.984-4.46-12.163-9.182-13.679-8.178,3.121,5.3-5.753,19.762-8.27,20.8C775.27,2105.2,775.684,2113.935,776.39,2117.964Z" transform="translate(-776.002 -2081.723)" fill="#ffd8a3"/>
            <path id="Path_4532" data-name="Path 4532" d="M859.36,2167.964a104.152,104.152,0,0,1-3.441-13.146c-.9-4.846-3.157,12.031-3.157,12.031S857.537,2168.826,859.36,2167.964Z" transform="translate(-828.681 -2131.286)" fill="#ffd8a3"/>
            <path id="Path_4533" data-name="Path 4533" d="M843.026,2237.049c1.2-.29,1.943-1.262,1.647-2.172a2.238,2.238,0,0,0-2.718-1.124c-1.207.289-1.944,1.263-1.648,2.172A2.24,2.24,0,0,0,843.026,2237.049Z" transform="translate(-820.088 -2186)" fill="#ffd8a3"/>
            <path id="Path_4534" data-name="Path 4534" d="M851.479,2220.231c.087-.286-.194-.626-.628-.759s-.856-.007-.943.279.194.626.626.758S851.391,2220.518,851.479,2220.231Z" transform="translate(-826.71 -2176.22)" fill="#ffd8a3"/>
          </g>
          <path id="Path_4535" data-name="Path 4535" d="M777.03,2140.63c-.179-2.743-1.9-4.948-3.849-4.925s-3.379,2.266-3.2,5.008,3.509,4.882,5.456,4.86S777.209,2143.372,777.03,2140.63Z" transform="translate(-769.965 -2118.769)" fill="#ffd8a3"/>
        </g>
        <path id="Path_4536" data-name="Path 4536" d="M839.4,2140.4a1.456,1.456,0,0,1,.2,1.01c-.17.857-5.292,2.269-5.807,1.34l-.322-.582c-.371-.668,1.339-.8,2.732-1.439,1.331-.612,2.332-1.762,2.7-1.145Z" transform="translate(-805.519 -2109.863)" fill="#2d356b"/>
        <path id="Path_4537" data-name="Path 4537" d="M847.869,2156.625c.177-.871-.151-1.72-.731-1.9s-1.2.384-1.373,1.255.15,1.719.73,1.9S847.69,2157.494,847.869,2156.625Z" transform="translate(-813.954 -2120.358)" fill="#2d356b"/>
        <g id="Group_18446" data-name="Group 18446" transform="translate(14.083 3.729)">
          <path id="Path_4538" data-name="Path 4538" d="M797.794,2088.741c4.752,1.22-6.753,21.625-4.6,23.635s-.579,3.353-1.774,2.631c-2.738-1.654-2.129-7.9-1.616-11.857C790.378,2098.745,797.392,2088.638,797.794,2088.741Z" transform="translate(-789.365 -2078.823)" fill="#cfd0d8"/>
          <path id="Path_4539" data-name="Path 4539" d="M823.263,2069.173c1.407-3.33-.8-7.446-4.938-9.194s-16.621-4.655-18.027-1.327,8.8,11.639,12.931,13.384S821.858,2072.5,823.263,2069.173Z" transform="translate(-796.777 -2057.129)" fill="#cfd0d8"/>
        </g>
        <path id="Path_4540" data-name="Path 4540" d="M848.042,2215.287c-.248.457-.795-.32-1.612-.559-.623-.179-1.442.225-1.421-.06a2.956,2.956,0,0,1,2.01-1.808C847.815,2212.819,848.388,2214.648,848.042,2215.287Z" transform="translate(-813.468 -2160.273)" fill="#ffab00"/>
        <path id="Path_4541" data-name="Path 4541" d="M849.847,2214.4c-.136.215-.5.159-.9.052-.309-.081-.624-.19-.607-.323.037-.291.6-.53.946-.551C849.682,2213.558,850.036,2214.1,849.847,2214.4Z" transform="translate(-815.752 -2160.767)" fill="#fff"/>
      </g>
    </g>
  </g>
</svg>
