<svg xmlns="http://www.w3.org/2000/svg" width="477.388" height="170.311" viewBox="0 0 477.388 170.311"><g transform="translate(-52.847 -8077.648)"><g transform="translate(52.847 8094.597)"><g transform="translate(10.181)"><path d="M509.694,2572.769c-5.121-7.041,1.865-10.655,1.672-17.579s-6.2-4.994-6.779-13.95,4.9-11.107,5.332-16.274-6.568-6.768-3.4-13.14,8.083-6.079,10.821-11.137,10.235-7.6,14.233-5.032,9.281-5.838,16.259-.636,5.81,14.783,7.7,20.313,8.956,8.155,9.586,17.876-4.385,7.223-2.412,14.031,8.349,6.653,8.979,16.377c0,0,.375,9.738-9.915,8.605s-7.35,4.844-18.363.419-7.776,6.156-15.467,1.771S515.583,2580.865,509.694,2572.769Z" transform="translate(-504.544 -2493.285)" fill="#2d356b"/></g><g transform="translate(50.271 66.371)"><g transform="translate(10.037 62.593)"><path d="M693.229,2987.662c-.392-.52.466-1.321,1.562-2.077s2.01-1.181,2.405-.662-.174,1.553-1.271,2.309S693.623,2988.182,693.229,2987.662Z" transform="translate(-690.678 -2976.645)" fill="#f7c371"/><path d="M698.812,2991.273c-.394-.52.466-1.32,1.563-2.075s2.009-1.185,2.4-.665-.175,1.552-1.271,2.31S699.206,2991.791,698.812,2991.273Z" transform="translate(-694.704 -2979.248)" fill="#f7c371"/><path d="M684.46,2982.841c.463-.477,1.866.513,3.321,1.782s2.416,2.333,1.951,2.812-2.019-.164-3.475-1.434S684,2983.318,684.46,2982.841Z" transform="translate(-684.329 -2975.22)" fill="#ffd8a3"/><path d="M693.632,2955.823c-2.276,1.722-9.851,6.588-8.213,9.183,1.465,2.321,6.526,3.021,10.362-7.543Z" transform="translate(-684.949 -2955.823)" fill="#ffd8a3"/></g><path d="M648.448,2732.13c5.233-6.724,39.505,31.038,40.143,32.737,0,0-2.065,6.131-4.035,5.31C679.458,2768.053,646.112,2735.132,648.448,2732.13Z" transform="translate(-648.331 -2731.329)" fill="#54ccca"/><path d="M717.507,2877.944c-5.944-2.585,14.044-31.839,15.184-32.624,0,0,4.919.37,4.676,1.97C736.739,2851.428,720.161,2879.1,717.507,2877.944Z" transform="translate(-697.425 -2813.537)" fill="#54ccca"/><path d="M716.848,2949.54l1.968.573,6.239-4.674s-3.2-1.712-4.09-1.637S716.848,2949.54,716.848,2949.54Z" transform="translate(-697.744 -2884.559)" fill="#eaeaea"/><path d="M713.2,2941.131l-1.575-1.333.542-7.783s3.221,1.738,3.65,2.525S713.2,2941.131,713.2,2941.131Z" transform="translate(-693.976 -2876.06)" fill="#eaeaea"/></g><g transform="translate(16.126 46.741)"><path d="M525.865,2792.082s10.412,9.222,20.824,12.68l5.423-11.72,4.989,11.72s14.075-3.965,19.739-12.68c-11.47-16.63-16-30.507-4.107-47.817,0,0-4.787-30.954-22.14-31.723s-20.445,33-20.445,33C541.428,2762.445,545.122,2769.788,525.865,2792.082Z" transform="translate(-525.865 -2698.14)" fill="#c3e8e6"/><path d="M589.192,2727.013a10.507,10.507,0,0,1,6.723,2.425c1.76-4,2.933-8.925,1.678-13.948-10.564-7.943-17.074.824-17.074.824s-1.384,5.471,2.341,12.828A10.489,10.489,0,0,1,589.192,2727.013Z" transform="translate(-565.099 -2697.875)" fill="#fff"/><path d="M591.621,2714.886s-1.757,8.814,6.231,18.379c0,0,6.791-9.309,4.873-19.06C595.855,2707.64,591.621,2714.886,591.621,2714.886Z" transform="translate(-573.169 -2697.365)" fill="#f7c371"/><rect width="9.062" height="16.988" transform="translate(19.54)" fill="#f7c371"/><path d="M623.38,2860.764a1.274,1.274,0,1,0-1.274,1.275A1.274,1.274,0,0,0,623.38,2860.764Z" transform="translate(-594.353 -2804.126)" fill="#fff"/><path d="M623.38,2896.482a1.274,1.274,0,1,0-1.274,1.275A1.274,1.274,0,0,0,623.38,2896.482Z" transform="translate(-594.353 -2829.885)" fill="#fff"/><path d="M623.38,2967.919a1.274,1.274,0,1,0-1.274,1.274A1.274,1.274,0,0,0,623.38,2967.919Z" transform="translate(-594.353 -2881.405)" fill="#fff"/><path d="M623.38,2932.2a1.274,1.274,0,1,0-1.274,1.275A1.274,1.274,0,0,0,623.38,2932.2Z" transform="translate(-594.353 -2855.645)" fill="#fff"/></g><g transform="translate(0 66.675)"><path d="M496.469,2732.776c-7.012-4.839-28.343,41.481-28.44,43.293,0,0,3.813,5.226,5.445,3.85C477.7,2776.362,499.6,2734.937,496.469,2732.776Z" transform="translate(-468.029 -2732.422)" fill="#54ccca"/><g transform="translate(25.356 63.51)"><path d="M558.971,2962.692c3.339,2.853,5.526,13.446,8.913,11.656,3.035-1.6,5.539-8.666-6.59-14.143Z" transform="translate(-558.971 -2960.206)" fill="#ffd9a4"/><path d="M578.919,2974.365c-5.537,2.489-2.48,9.223-1.028,11.121,1.6,2.086,6.321,1.347,7.418-.434S581.036,2973.417,578.919,2974.365Z" transform="translate(-571.059 -2970.371)" fill="#ffd9a4"/><path d="M592.2,2982.333c3.409,1.086,7.829.69,7.889-.678.071-1.543-3.664-.487-6.488-2.208-3.061-1.857-5.081-2.862-5.861-1.721S588.785,2981.249,592.2,2982.333Z" transform="translate(-579.589 -2972.492)" fill="#ffd9a4"/><path d="M604.163,2999.8c1.877,2.425,3.414,3.26,4,2.688s-.568-1.887-2.44-4.311-3.651-5.97-4.238-5.4S602.3,2997.371,604.163,2999.8Z" transform="translate(-589.532 -2983.65)" fill="#ffd9a4"/><path d="M596.518,3010.679c1.378,2.808,3.815,4.623,4.491,4.189s-1.2-2.708-2.58-5.516-2.422-4.552-3.1-4.116S595.141,3007.873,596.518,3010.679Z" transform="translate(-584.975 -2992.633)" fill="#ffd9a4"/><path d="M581.717,3007.7c1.489,2.747,2.941,3.944,3.6,3.492s-.659-2.077-2.148-4.823-2.57-4.65-3.235-4.2S580.228,3004.948,581.717,3007.7Z" transform="translate(-573.938 -2990.421)" fill="#ffd9a4"/></g><path d="M497.31,2904.123c4.892-4.253-22.969-26.142-24.291-26.548,0,0-4.58,1.833-3.867,3.285C470.994,2884.617,495.125,2906.021,497.31,2904.123Z" transform="translate(-468.784 -2837.104)" fill="#54ccca"/><path d="M550.872,2962.732l-1.7,1.139-7.355-2.583s2.535-2.593,3.408-2.791S550.872,2962.732,550.872,2962.732Z" transform="translate(-521.24 -2895.459)" fill="#eaeaea"/><path d="M562.4,2950.845l1.1-1.745-2.857-7.26s-2.549,2.625-2.722,3.506S562.4,2950.845,562.4,2950.845Z" transform="translate(-532.858 -2883.451)" fill="#eaeaea"/></g><g transform="translate(23.738 14.537)"><path d="M574.081,2585.818c-5.627.364-19.295-14.2-15.284-33.437.812-3.89,4.822-6.357,12.674-6.866,8.637-.56,12.74,1.52,13.57,4.573C590.907,2571.677,579.84,2585.445,574.081,2585.818Z" transform="translate(-556.703 -2545.424)" fill="#ffd8a3"/><path d="M616.522,2578.507c1.858-.773,6-1.947,9.257,2.716C622.9,2578.573,620.922,2577.764,616.522,2578.507Z" transform="translate(-598.857 -2568.76)" fill="#2d356b"/><path d="M574.769,2580.885c-1.936-.506-6.179-1.091-8.757,3.979C568.487,2581.843,570.331,2580.765,574.769,2580.885Z" transform="translate(-562.43 -2570.766)" fill="#2d356b"/><path d="M633.194,2601.427c-.116-1.07-.884-1.863-1.714-1.771a2.008,2.008,0,1,0,1.714,1.771Z" transform="translate(-608.697 -2584.53)" fill="#2d356b"/><path d="M628.042,2599.547c-1.7-.932-3.864-1.68-6.4.388A13.027,13.027,0,0,1,628.042,2599.547Z" transform="translate(-602.547 -2583.782)" fill="#2d356b"/><path d="M583.926,2604.609a1.563,1.563,0,1,1,1.557,1.915A1.768,1.768,0,0,1,583.926,2604.609Z" transform="translate(-575.35 -2586.681)" fill="#2d356b"/><path d="M574.259,2604.283c1.377-1.365,3.25-2.681,6.26-1.394A13.005,13.005,0,0,0,574.259,2604.283Z" transform="translate(-568.378 -2586.488)" fill="#2d356b"/><path d="M605.709,2620.205a4.142,4.142,0,0,0,1.731.59,2.4,2.4,0,0,0,1.636-.878c.045-.469-1.52-5.562-1.96-5.581S605.633,2619.534,605.709,2620.205Z" transform="translate(-591.056 -2595.122)" fill="#ffab00"/><path d="M608.667,2617.334c.01.1.519.238.695.226.3-.02.655-.2.656-.386,0-.454-.092-5.606-1-5.5C608.027,2611.793,608.613,2616.677,608.667,2617.334Z" transform="translate(-593.033 -2593.202)" fill="#ffd8a3"/><path d="M611.934,2666.357c-.041-.626-.729-.521-1.622-.463s-1.651.046-1.611.673.8,1.088,1.69,1.03S611.974,2666.985,611.934,2666.357Z" transform="translate(-593.216 -2632.272)" fill="#f36973"/><path d="M608.152,2645.219c-1.957-.894-2.52.073-2.957.1-.556.036-1.174-.868-3.026.285-.533.331,1.412,1.047,3.065.94S608.724,2645.478,608.152,2645.219Z" transform="translate(-588.441 -2617.122)" fill="#f36973"/><path d="M597.512,2646.62l8.69-.562s-.76,6.328-3.94,6.535S597.512,2646.62,597.512,2646.62Z" transform="translate(-585.148 -2618)" fill="#ffab00"/><path d="M607.116,2647.348l-7.484.485.987,2.49,5.838-.378Z" transform="translate(-586.677 -2618.93)" fill="#fff"/><path d="M628.169,2644.636a.443.443,0,1,0-.4.538A.479.479,0,0,0,628.169,2644.636Z" transform="translate(-606.626 -2616.625)" fill="#ffab00"/><path d="M596.557,2646.683a.443.443,0,1,0-.4.537A.479.479,0,0,0,596.557,2646.683Z" transform="translate(-583.827 -2618.102)" fill="#ffab00"/><path d="M555.441,2618.768c-.346-1.224-.246-2.242-1.148-1.987a2.068,2.068,0,0,0-1.009,2.677c.345,1.222,1.357,2.007,2.259,1.752S555.786,2619.991,555.441,2618.768Z" transform="translate(-553.166 -2596.857)" fill="#f7c371"/><path d="M659.613,2612.117c.155-1.261-.109-2.256.849-2.138a2.087,2.087,0,0,1,1.457,2.5c-.154,1.261-1.057,2.188-2.015,2.072S659.459,2613.381,659.613,2612.117Z" transform="translate(-629.735 -2591.972)" fill="#f7c371"/></g><g transform="translate(23.151 10.245)"><g transform="translate(11.407)"><path d="M611.163,2542.776c-5.072-1.561-17.788-6-19.189-12.279,0,0,12.4-2.393,15.648,3.661C611.728,2541.8,611.163,2542.776,611.163,2542.776Z" transform="translate(-591.974 -2530.03)" fill="#2d356b"/><g transform="translate(1.048 2.608)"><path d="M606.034,2548.567c1.184,1.5,8.026,6.4,12.663,7.779S606.034,2548.567,606.034,2548.567Z" transform="translate(-603.162 -2546.007)" fill="#2d356b"/><path d="M595.734,2539.385a23.691,23.691,0,0,0,5.486,7.463C603.574,2548.732,595.734,2539.385,595.734,2539.385Z" transform="translate(-595.734 -2539.385)" fill="#2d356b"/></g></g><path d="M551.118,2556.868c3.839-2.138,13.4-8.025,13.781-14.415,0,0-10.1-.936-11.975,5.45C550.559,2555.965,551.118,2556.868,551.118,2556.868Z" transform="translate(-551.061 -2538.955)" fill="#2d356b"/></g></g><g transform="translate(127.61 8079.648)"><rect width="341.215" height="152.704" rx="56.673" transform="translate(59.409)" fill="#fff" stroke="#ebebeb" stroke-miterlimit="10" stroke-width="4"/><path d="M795.582,2736.551v-31.314l-46.375-19.4Z" transform="translate(-736.173 -2626.801)" fill="#fff" stroke="#ebebeb" stroke-miterlimit="10" stroke-width="4"/></g><g transform="translate(310.391 8093.383)"><g transform="translate(9.736 0)"><path d="M1427.587,2562.151c-3.558-7.989,4.06-10.079,5.319-16.923s-5.047-6.2-3.744-15.124,7.138-9.888,8.642-14.875-5.039-8.024-.6-13.623,9.214-4.283,12.961-8.68,11.646-5.329,15.037-1.968,10.339-3.8,16.108,2.775,2.617,15.74,3.32,21.568,7.095,9.885,5.681,19.569-5.818,6.18-5.3,13.282,6.812,8.282,5.4,17.968c0,0-1.667,9.647-11.541,6.382s-8.234,3.222-18.131-3.428-8.928,4.422-15.567-1.494S1431.68,2571.337,1427.587,2562.151Z" transform="translate(-1426.648 -2488.931)" fill="#2d356b"/></g><g transform="translate(54.531 60.199)"><path d="M1587.731,2705.115c7.831-4.45,26.03,46.3,25.965,48.218,0,0-4.5,5.153-6.09,3.554C1603.487,2752.75,1584.235,2707.1,1587.731,2705.115Z" transform="translate(-1587.309 -2704.839)" fill="#fff4ba"/></g><g transform="translate(16.742 40.735)"><path d="M1505.667,2759.5c-9.073-16.98-15.436-18.058-2.861-36.36,0,0-5.062-32.726-23.407-33.539s-21.616,34.886-21.616,34.886c11.926,17.874,7.483,10.853-6.009,35.012" transform="translate(-1451.775 -2674.377)" fill="#ffe200"/><path d="M1524.038,2704.9a11.115,11.115,0,0,1,7.108,2.564c1.86-4.23,3.1-9.435,1.774-14.746-11.169-8.4-18.051.872-18.051.872s-1.463,5.785,2.475,13.562A11.091,11.091,0,0,1,1524.038,2704.9Z" transform="translate(-1497.085 -2674.097)" fill="#fff"/><path d="M1526.606,2692.082s-1.858,9.319,6.588,19.43c0,0,7.179-9.841,5.152-20.152C1531.082,2684.421,1526.606,2692.082,1526.606,2692.082Z" transform="translate(-1505.616 -2673.558)" fill="#f7c371"/><rect width="9.581" height="17.96" transform="translate(22.14)" fill="#f7c371"/><path d="M1560.183,2846.312a1.347,1.347,0,1,0-1.348,1.347A1.347,1.347,0,0,0,1560.183,2846.312Z" transform="translate(-1528.013 -2786.431)" fill="#fff"/><path d="M1560.183,2884.073a1.347,1.347,0,1,0-1.348,1.347A1.347,1.347,0,0,0,1560.183,2884.073Z" transform="translate(-1528.013 -2813.664)" fill="#fff"/><path d="M1560.183,2959.6a1.347,1.347,0,1,0-1.348,1.347A1.347,1.347,0,0,0,1560.183,2959.6Z" transform="translate(-1528.013 -2868.132)" fill="#fff"/><path d="M1560.183,2921.837a1.347,1.347,0,1,0-1.348,1.347A1.347,1.347,0,0,0,1560.183,2921.837Z" transform="translate(-1528.013 -2840.899)" fill="#fff"/></g><g transform="translate(0 61.811)"><path d="M1426.007,2711c-7.414-5.116-29.966,43.856-30.068,45.771,0,0,4.031,5.525,5.757,4.071C1406.161,2757.076,1429.317,2713.28,1426.007,2711Z" transform="translate(-1394.765 -2710.621)" fill="#fff4ba"/><g transform="translate(35.763 44.553)"><path d="M1519.995,2887.742c4.638.225,13.318,7.669,14.994,3.982,1.5-3.3-.973-10.83-14.659-7.565Z" transform="translate(-1519.995 -2879.748)" fill="#ffd9a4"/><path d="M1545.125,2883.95c-3.02,5.663,3.892,9.317,6.334,9.965,2.685.71,6.158-2.962,5.923-5.161S1546.283,2881.788,1545.125,2883.95Z" transform="translate(-1537.577 -2879.78)" fill="#ffd9a4"/><path d="M1557.516,2876.4c3.554-1.3,6.994-4.488,6.159-5.67-.939-1.336-3.38,1.963-6.854,2.35-3.761.427-6.1.893-6.015,2.351S1553.959,2877.7,1557.516,2876.4Z" transform="translate(-1542.214 -2870.414)" fill="#ffd9a4"/><path d="M1578.019,2894.826c3.138.814,4.964.518,5.083-.339s-1.7-1.21-4.829-2.028-6.916-2.631-7.036-1.773S1574.888,2894.005,1578.019,2894.826Z" transform="translate(-1556.948 -2884.872)" fill="#ffd9a4"/><path d="M1578.964,2908.357c2.968,1.457,6.181,1.4,6.466.6s-2.757-1.488-5.726-2.943-4.97-2.241-5.253-1.438S1576,2906.9,1578.964,2908.357Z" transform="translate(-1559.248 -2894.817)" fill="#ffd9a4"/><path d="M1564.491,2915.616c3.022,1.334,5.011,1.4,5.273.589s-1.895-1.311-4.915-2.644-5.158-2.226-5.42-1.417S1561.467,2914.28,1564.491,2915.616Z" transform="translate(-1548.42 -2900.287)" fill="#ffd9a4"/></g><path d="M1430.8,2877.576c1.341-6.721-36.117-7.005-37.486-6.489,0,0-2.645,4.495-1.109,5.248C1396.179,2878.286,1430.2,2880.577,1430.8,2877.576Z" transform="translate(-1391.728 -2826.225)" fill="#fff4ba"/><path d="M1513.766,2892.366l-.689,2.054-7.822,2.6s.443-3.809,1.045-4.538S1513.766,2892.366,1513.766,2892.366Z" transform="translate(-1473.601 -2841.517)" fill="#eaeaea"/><path d="M1516.434,2877.015l-.208-2.171-7.085-4.224s-.434,3.845-.009,4.693S1516.434,2877.015,1516.434,2877.015Z" transform="translate(-1476.263 -2826.01)" fill="#eaeaea"/></g><g transform="translate(27.443 8.768)"><g transform="translate(0 4.956)"><path d="M1510.354,2578.316c-5.6-.373-17.177-16.509-10.718-34.958,1.307-3.729,5.582-5.64,13.39-5.119,8.589.573,12.364,3.157,12.784,6.275C1528.785,2566.564,1516.08,2578.7,1510.354,2578.316Z" transform="translate(-1495.618 -2538.154)" fill="#ffd8a3"/><path d="M1492.4,2604.3c-.182-1.251.049-2.242-.874-2.108a2.057,2.057,0,0,0-1.343,2.508c.181,1.249,1.077,2.156,2,2.021S1492.585,2605.552,1492.4,2604.3Z" transform="translate(-1490.154 -2584.328)" fill="#f7c371"/><path d="M1595.338,2611.166c.317-1.223.186-2.239,1.116-2a2.379,2.379,0,0,1-1.146,4.437C1594.377,2613.362,1595.021,2612.393,1595.338,2611.166Z" transform="translate(-1565.641 -2589.342)" fill="#f7c371"/><g transform="translate(14.482 20.487)"><path d="M1542.093,2619.882a4.111,4.111,0,0,0,1.63.807,2.383,2.383,0,0,0,1.727-.654c.106-.457-.774-5.681-1.206-5.758S1542.106,2619.21,1542.093,2619.882Z" transform="translate(-1542.093 -2613.538)" fill="#ffab00"/><path d="M1546.011,2617.161c-.005.1.48.3.655.314.3.02.671-.109.7-.295.059-.448.639-5.539-.269-5.551C1546.1,2611.616,1546.043,2616.507,1546.011,2617.161Z" transform="translate(-1544.919 -2611.63)" fill="#ffd8a3"/></g></g><g transform="translate(4.597 14.794)"><path d="M1564.472,2573.463c.549,1.917,2.154,5.887,7.3,5.892C1568.252,2578.531,1566.529,2577.4,1564.472,2573.463Z" transform="translate(-1548.347 -2573.456)" fill="#2d356b"/><path d="M1515.558,2573.438c-1.149,1.6-3.976,4.762-8.918,3.107C1510.288,2576.918,1512.308,2576.422,1515.558,2573.438Z" transform="translate(-1506.64 -2573.438)" fill="#2d356b"/><path d="M1569.528,2600.591a1.555,1.555,0,1,0-1.553,1.9A1.758,1.758,0,0,0,1569.528,2600.591Z" transform="translate(-1549.82 -2591.6)" fill="#2d356b"/><path d="M1569.782,2597.887c-1.042-1.624-2.576-3.3-5.778-2.708A12.962,12.962,0,0,1,1569.782,2597.887Z" transform="translate(-1548.01 -2589.029)" fill="#2d356b"/><path d="M1521.6,2596.938c.117-1.064.882-1.85,1.708-1.758a1.764,1.764,0,0,1,1.286,2.092c-.117,1.064-.882,1.85-1.708,1.758A1.764,1.764,0,0,1,1521.6,2596.938Z" transform="translate(-1517.42 -2589.112)" fill="#2d356b"/><path d="M1514.483,2593.469c1.387-1.342,3.266-2.624,6.243-1.308A12.95,12.95,0,0,0,1514.483,2593.469Z" transform="translate(-1512.296 -2586.543)" fill="#2d356b"/><path d="M1542.433,2647.3c.108-1.614-.72-2.981-1.848-3.056s-2.129,1.17-2.237,2.784.72,2.983,1.847,3.058S1542.326,2648.915,1542.433,2647.3Z" transform="translate(-1529.501 -2624.501)" fill="#ffab00"/><path d="M1544.032,2645.619a1.443,1.443,0,0,0-2.676-.178A2.844,2.844,0,0,0,1544.032,2645.619Z" transform="translate(-1531.677 -2624.773)" fill="#fff"/></g><g transform="translate(0.568)"><g transform="translate(11.459)"><path d="M1552.567,2533.183c-5.095-1.568-17.87-6.032-19.277-12.335,0,0,12.456-2.4,15.72,3.677C1553.134,2532.2,1552.567,2533.183,1552.567,2533.183Z" transform="translate(-1533.29 -2520.379)" fill="#2d356b"/><g transform="translate(1.053 2.62)"><path d="M1547.415,2539c1.19,1.512,8.063,6.428,12.72,7.815S1547.415,2539,1547.415,2539Z" transform="translate(-1544.53 -2536.428)" fill="#2d356b"/><path d="M1537.068,2529.776a23.81,23.81,0,0,0,5.511,7.5C1544.943,2539.166,1537.068,2529.776,1537.068,2529.776Z" transform="translate(-1537.068 -2529.776)" fill="#2d356b"/></g></g><path d="M1492.249,2547.339c3.857-2.147,13.461-8.061,13.844-14.48,0,0-10.15-.94-12.03,5.474C1491.687,2546.433,1492.249,2547.339,1492.249,2547.339Z" transform="translate(-1492.191 -2529.344)" fill="#2d356b"/></g></g><g transform="translate(47.72 30.159)"><path d="M1611.047,2649.719c1.536-3.955,4.392-5.38,5.58-4.274.408.38-1.587,12.049-3.893,11.866C1611.1,2657.182,1609.5,2653.68,1611.047,2649.719Z" transform="translate(-1597.166 -2631.704)" fill="#f8c471"/><path d="M1585.467,2605.833c1.08-1.345,1.17-2.905.215-3.672l-5.991-4.81a1.486,1.486,0,0,0-1.343-.173,2.863,2.863,0,0,0-1.408.954l-13.325,16.6c-.911,1.136-.988,2.452-.181,3.1l5.712,4.586a2.1,2.1,0,0,0,1.9.246,4.057,4.057,0,0,0,1.994-1.35Z" transform="translate(-1562.878 -2597.099)" fill="#2d356b"/><path d="M1589.117,2607.351c1.079-1.345,1.12-2.945.1-3.767l-6.415-5.151a1.616,1.616,0,0,0-1.408-.225,2.732,2.732,0,0,0-1.435.932l-13.325,16.6c-.911,1.135-.945,2.487-.081,3.18l6.117,4.911a2.28,2.28,0,0,0,1.99.318,3.869,3.869,0,0,0,2.032-1.318Z" transform="translate(-1565.075 -2597.853)" fill="#c3e8e6"/><path d="M1623.959,2619.852l-2.5-1.551-1.637,1.972,1.986,1.854Z" transform="translate(-1603.948 -2612.389)" fill="#54ccca"/><path d="M1625.575,2623.189l-.981-.61-.645.776.781.729Z" transform="translate(-1606.921 -2615.475)" fill="#2d356b"/><path d="M1576.577,2648.312c.588-.1-.466-3.214-.734-4.26-.242-.943-.756-1.548-1.2-1.135C1573.488,2644.009,1575.769,2648.456,1576.577,2648.312Z" transform="translate(-1571.133 -2630.047)" fill="#f8c471"/><path d="M1583.2,2634.2c.547.252.924-2.216.894-3.3-.027-.944-.237-1.026-.808-.833C1581.779,2630.574,1581.853,2633.577,1583.2,2634.2Z" transform="translate(-1576.793 -2620.813)" fill="#f8c471"/><path d="M1594.3,2621.422c.548.252.141-2.249.08-3.49-.042-.829-.1-1.426-.673-1.233C1592.2,2617.207,1592.552,2620.616,1594.3,2621.422Z" transform="translate(-1584.428 -2611.208)" fill="#f8c471"/><g transform="translate(4.008 6.788)"><path d="M1595.91,2675.67c.052-6.987-10.857-13.393-7.068-15.9,3.392-2.248,12.168-.84,10.977,14.9Z" transform="translate(-1585.034 -2648.478)" fill="#ffd9a4"/><path d="M1594.7,2653.7c-1.929,6.935-11.011-2.661-12.161-5.252-1.262-2.848,3.984-9.033,5.516-7.082C1592.733,2647.326,1597.253,2644.5,1594.7,2653.7Z" transform="translate(-1580.923 -2635.54)" fill="#ffd9a4"/><path d="M1594.337,2627.17c-1.458-3.331-1.454-5.405-.524-5.691s.87,1.306,2.331,4.632,4.909,7.553,3.98,7.84S1595.8,2630.495,1594.337,2627.17Z" transform="translate(-1588.731 -2621.445)" fill="#ffd9a4"/><path d="M1584.729,2638.751c-2.138-3.031-1.745-5.427-.907-5.884s2.135,2.79,4.273,5.821,3.362,5.109,2.524,5.565S1586.868,2641.778,1584.729,2638.751Z" transform="translate(-1581.506 -2629.651)" fill="#ffd9a4"/><path d="M1579.393,2657.861c-2.105-3.052-2.588-5.23-1.754-5.689s1.841,1.814,3.943,4.865,4.811,5.495,3.972,5.954S1581.5,2660.912,1579.393,2657.861Z" transform="translate(-1577.252 -2643.562)" fill="#ffd9a4"/></g></g><g transform="translate(61.739 59.496)"><path d="M1616.009,2708.827c9.255-4.611,19.021,44.123,18.626,46.127,0,0-5.753,5.364-7.213,3.683C1623.648,2754.289,1611.876,2710.887,1616.009,2708.827Z" transform="translate(-1614.588 -2706.791)" fill="#fff4ba"/><path d="M1615.63,2703.355l-1.829,1.162-.643,8.217s3.591-1.344,4.154-2.1S1615.63,2703.355,1615.63,2703.355Z" transform="translate(-1613.158 -2703.066)" fill="#eaeaea"/><path d="M1621.473,2702.638l2.158-.32,5.8,5.864s-3.629,1.345-4.553,1.136S1621.473,2702.638,1621.473,2702.638Z" transform="translate(-1619.155 -2702.318)" fill="#eaeaea"/></g></g><g transform="translate(268.279 8198.559)"><path d="M1240.693,2866.153V2891.9H1410.22l4.572-12.781-4.572-12.97Z" transform="translate(-1240.693 -2866.153)" fill="#ffac00"/><text transform="translate(24.049 17.875)" fill="#fff" font-size="14" font-family="TrebuchetMS-Bold, Trebuchet MS" font-weight="700"><tspan x="0" y="0">Handle a complaint</tspan></text></g></g></svg>