<svg xmlns="http://www.w3.org/2000/svg" width="523" height="161.237" viewBox="0 0 523 161.237"><g transform="translate(0.753 -9420.518)"><g transform="translate(26.903 9446.464)"><g transform="translate(1.396)"><rect width="240.936" height="97.583" transform="translate(0 35.708)" fill="#fff" stroke="#ebebeb" stroke-miterlimit="10" stroke-width="4"/><rect width="242.333" height="35.707" fill="#2d356b" stroke="#cfd0d8" stroke-miterlimit="10" stroke-width="4"/></g><g transform="translate(242.394)"><rect width="250.949" height="97.583" transform="translate(0 35.707)" fill="#fff" stroke="#ebebeb" stroke-miterlimit="10" stroke-width="4"/><rect width="250.949" height="35.707" fill="#2d356b" stroke="#cfd0d8" stroke-miterlimit="10" stroke-width="4"/></g><text transform="translate(368.174 23.965)" fill="#fff" font-size="14" font-family="TrebuchetMS-Bold, Trebuchet MS" font-weight="700"><tspan x="-22.907" y="0">FRIDAY</tspan></text><text transform="translate(122.289 23.965)" fill="#fff" font-size="14" font-family="TrebuchetMS-Bold, Trebuchet MS" font-weight="700"><tspan x="-34.265" y="0">THURSDAY</tspan></text><text transform="translate(122.563 104.721)" fill="#2d356b" font-size="14" font-family="TrebuchetMS-Bold, Trebuchet MS" font-weight="700"><tspan x="-77.656" y="0">Make an announcement</tspan></text></g><g transform="translate(118.214 9505.635)"><rect width="58.113" height="26.601" rx="6.672" transform="translate(0 -8)" fill="#f46973"/><text transform="translate(29.468 10.286)" fill="#fff" font-size="14" font-family="TrebuchetMS-Bold, Trebuchet MS" font-weight="700"><tspan x="-21.386" y="0">TODAY</tspan></text></g><g transform="translate(1.247 9422.518)"><circle cx="27.053" cy="27.053" r="27.053" transform="translate(0 0)" fill="#fff" stroke="#9999a5" stroke-miterlimit="10" stroke-width="4"/><text transform="translate(25.82 38.215)" fill="#2d356b" font-size="35" font-family="TrebuchetMS-Bold, Trebuchet MS" font-weight="700"><tspan x="-10.254" y="0">5</tspan></text></g><ellipse cx="35.817" cy="24.591" rx="35.817" ry="24.591" transform="translate(363.157 9522.043)" fill="none" stroke="#f46973" stroke-miterlimit="10" stroke-width="7"/><g transform="translate(275.819 9522.043)"><g transform="translate(-36.661)"><path d="M1276.18,5072.625l-24.867-24.6v49.182Z" transform="translate(-1178.38 -5048.025)" fill="#f46973"/><rect width="76.884" height="16.482" transform="translate(0 16.35)" fill="#f46973"/></g></g></g></svg>