<svg xmlns="http://www.w3.org/2000/svg" width="251.749" height="91.142" viewBox="0 0 251.749 91.142">
  <g id="Group_19050" data-name="Group 19050" transform="translate(-45.208 -9440.396)">
    <g id="Group_19007" data-name="Group 19007" transform="translate(45.208 9442.471)">
      <g id="Group_19005" data-name="Group 19005" transform="translate(0 0)">
        <g id="Group_18973" data-name="Group 18973" transform="translate(21.059 18.986)">
          <g id="Group_18972" data-name="Group 18972">
            <path id="Path_4921" data-name="Path 4921" d="M696.631,6059.822c1.323-5.546,28.316-4.351,34.856-3.682,4.7.477,5.839,2.4,5.583,7.123l-5.749,41.026c-.243,4.715-4.107,7.827-8.571,6.9s-33.213-4.028-32.847-8.742Z" transform="translate(-678.711 -6055.548)" fill="#c3e8e6"/>
            <path id="Path_4922" data-name="Path 4922" d="M600.881,6439.55a1.676,1.676,0,0,1,1.3-2.735l25.338-.019a21.5,21.5,0,0,1,6.736,1.283l14.233,4.788c.035.011.071.024.106.039,1.706.688,1.545,1.264-.384,1.257l-42.981-.246a1.676,1.676,0,0,1-1.29-.617Z" transform="translate(-600.501 -6389.078)" fill="#c3e8e6"/>
          </g>
        </g>
        <g id="Group_18995" data-name="Group 18995" transform="translate(32.541)">
          <g id="Group_18994" data-name="Group 18994">
            <g id="Group_18990" data-name="Group 18990">
              <g id="Group_18989" data-name="Group 18989">
                <g id="Group_18975" data-name="Group 18975" transform="translate(4.765)">
                  <g id="Group_18974" data-name="Group 18974">
                    <path id="Path_4923" data-name="Path 4923" d="M730.983,5941.464c-2.116-3.784,1.552-5.158,1.865-8.595s-2.77-2.834-2.528-7.3,3.079-5.2,3.6-7.732-2.848-3.735-.908-6.7,4.356-2.529,6.009-4.868,5.51-3.155,7.335-1.648,4.934-2.338,8.078.646,2,7.653,2.609,10.5,3.947,4.562,3.685,9.407-2.595,3.312-2.021,6.8,3.736,3.783,3.473,8.628a4.084,4.084,0,0,1-5.411,3.67c-5.022-1.167-3.921,1.961-9.106-.877s-4.209,2.584-7.753-.038S733.417,5945.815,730.983,5941.464Z" transform="translate(-730.307 -5903.86)" fill="#2d356b"/>
                  </g>
                </g>
                <g id="Group_18977" data-name="Group 18977" transform="translate(0 32.81)">
                  <path id="Path_4924" data-name="Path 4924" d="M706.4,6166.18c-3.492-2.41-14.115,20.658-14.164,21.561,0,0,1.9,2.6,2.712,1.918C697.047,6187.887,707.955,6167.256,706.4,6166.18Z" transform="translate(-692.232 -6166.004)" fill="#fc8c99"/>
                  <g id="Group_18976" data-name="Group 18976" transform="translate(12.628 31.629)">
                    <path id="Path_4925" data-name="Path 4925" d="M793.124,6419.947c1.663,1.42,2.752,6.7,4.439,5.8,1.511-.8,2.759-4.315-3.282-7.044Z" transform="translate(-793.124 -6418.708)" fill="#ffd9a4"/>
                    <path id="Path_4926" data-name="Path 4926" d="M813.306,6434.379c-2.757,1.239-1.235,4.593-.512,5.538.8,1.039,3.148.671,3.694-.217S814.361,6433.907,813.306,6434.379Z" transform="translate(-809.392 -6432.39)" fill="#ffd9a4"/>
                    <path id="Path_4927" data-name="Path 4927" d="M827.152,6440.145c1.7.541,3.9.343,3.929-.338.035-.769-1.825-.243-3.231-1.1-1.524-.925-2.531-1.426-2.919-.858S825.451,6439.6,827.152,6440.145Z" transform="translate(-820.872 -6435.244)" fill="#ffd9a4"/>
                    <path id="Path_4928" data-name="Path 4928" d="M841.539,6458.3c.935,1.208,1.7,1.624,1.992,1.339s-.283-.94-1.215-2.147-1.818-2.974-2.111-2.689S840.609,6457.094,841.539,6458.3Z" transform="translate(-834.253 -6450.26)" fill="#ffd9a4"/>
                    <path id="Path_4929" data-name="Path 4929" d="M833.868,6471.336c.686,1.4,1.9,2.3,2.237,2.086s-.6-1.35-1.285-2.747-1.206-2.267-1.543-2.05S833.183,6469.938,833.868,6471.336Z" transform="translate(-828.12 -6462.35)" fill="#ffd9a4"/>
                    <path id="Path_4930" data-name="Path 4930" d="M817.14,6467.977c.742,1.368,1.465,1.964,1.795,1.739s-.328-1.034-1.069-2.4-1.28-2.316-1.611-2.09S816.4,6466.607,817.14,6467.977Z" transform="translate(-813.266 -6459.373)" fill="#ffd9a4"/>
                  </g>
                  <path id="Path_4931" data-name="Path 4931" d="M707.454,6340.259c2.436-2.118-11.439-13.02-12.1-13.221,0,0-2.281.913-1.926,1.636C694.349,6330.545,706.366,6341.205,707.454,6340.259Z" transform="translate(-693.248 -6306.882)" fill="#fc8c99"/>
                  <path id="Path_4932" data-name="Path 4932" d="M778.6,6418.918l-.849.567-3.663-1.286a7.926,7.926,0,0,1,1.7-1.39C776.219,6416.712,778.6,6418.918,778.6,6418.918Z" transform="translate(-763.842 -6385.416)" fill="#eaeaea"/>
                  <path id="Path_4933" data-name="Path 4933" d="M794.191,6402.819l.548-.87-1.423-3.615a8,8,0,0,0-1.356,1.746C791.874,6400.518,794.191,6402.819,794.191,6402.819Z" transform="translate(-779.476 -6369.255)" fill="#eaeaea"/>
                </g>
                <g id="Group_18979" data-name="Group 18979" transform="translate(21.29 32.843)">
                  <g id="Group_18978" data-name="Group 18978" transform="translate(0 32.327)">
                    <path id="Path_4934" data-name="Path 4934" d="M868.84,6453.251c-.117-.3.4-.569,1.031-.781s1.124-.292,1.242.01-.3.72-.924.933S868.958,6453.554,868.84,6453.251Z" transform="translate(-868.011 -6448.81)" fill="#f7c371"/>
                    <path id="Path_4935" data-name="Path 4935" d="M873.7,6458.8c-.118-.3.4-.568,1.031-.781s1.124-.294,1.242.009-.3.72-.924.933S873.818,6459.1,873.7,6458.8Z" transform="translate(-872.262 -6453.663)" fill="#f7c371"/>
                    <path id="Path_4936" data-name="Path 4936" d="M862.462,6444.224c.287-.165.824.5,1.348,1.307s.839,1.447.551,1.613-.944-.354-1.469-1.161S862.174,6444.39,862.462,6444.224Z" transform="translate(-862.328 -6441.738)" fill="#ffd8a3"/>
                    <path id="Path_4937" data-name="Path 4937" d="M867.962,6424.546c-1.325.514-5.616,1.813-5.185,3.28.385,1.311,2.714,2.335,5.991-2.2Z" transform="translate(-862.694 -6424.546)" fill="#ffd8a3"/>
                  </g>
                  <path id="Path_4938" data-name="Path 4938" d="M899.538,6166.46c3.423-2.507,14.693,20.252,14.767,21.153,0,0-1.825,2.656-2.656,1.994C909.5,6187.894,898.01,6167.58,899.538,6166.46Z" transform="translate(-894.759 -6166.267)" fill="#fc8c99"/>
                  <path id="Path_4939" data-name="Path 4939" d="M905.52,6338.209c-2.5-2.049,11.067-13.337,11.719-13.558,0,0,2.306.848,1.971,1.582C918.346,6328.128,906.634,6339.124,905.52,6338.209Z" transform="translate(-899.846 -6304.828)" fill="#fc8c99"/>
                  <path id="Path_4940" data-name="Path 4940" d="M903.289,6418.8l.864.543,3.625-1.389a7.927,7.927,0,0,0-1.736-1.341C905.605,6416.525,903.289,6418.8,903.289,6418.8Z" transform="translate(-898.162 -6385.276)" fill="#eaeaea"/>
                  <path id="Path_4941" data-name="Path 4941" d="M899.64,6403.072l-.573-.854,1.32-3.655a8.01,8.01,0,0,1,1.4,1.707C901.89,6400.706,899.64,6403.072,899.64,6403.072Z" transform="translate(-894.469 -6369.489)" fill="#eaeaea"/>
                </g>
                <g id="Group_18980" data-name="Group 18980" transform="translate(8.031 22.882)">
                  <path id="Path_4942" data-name="Path 4942" d="M756.4,6183.551s5.185,4.593,10.371,6.315l2.7-5.836,2.485,5.836s7.009-1.974,9.83-6.315c-5.712-8.281-7.968-15.192-2.045-23.813,0,0-2.384-15.417-11.026-15.8s-10.182,16.433-10.182,16.433C764.147,6168.792,765.986,6172.449,756.4,6183.551Z" transform="translate(-756.396 -6136.768)" fill="#ffb2b0"/>
                  <path id="Path_4943" data-name="Path 4943" d="M821.2,6150.922a5.232,5.232,0,0,1,3.348,1.208,10.8,10.8,0,0,0,.836-6.947c-5.261-3.955-8.5.412-8.5.412a9.883,9.883,0,0,0,1.166,6.388A5.223,5.223,0,0,1,821.2,6150.922Z" transform="translate(-809.196 -6136.411)" fill="#fff"/>
                  <path id="Path_4944" data-name="Path 4944" d="M829.246,6144.451s-.875,4.39,3.1,9.152c0,0,3.382-4.635,2.427-9.492C831.354,6140.842,829.246,6144.451,829.246,6144.451Z" transform="translate(-820.056 -6135.725)" fill="#f7c371"/>
                  <rect id="Rectangle_6352" data-name="Rectangle 6352" width="4.513" height="8.46" transform="translate(9.731)" fill="#f7c371"/>
                  <path id="Path_4945" data-name="Path 4945" d="M863.022,6307.609a.635.635,0,1,0-.635.635A.635.635,0,0,0,863.022,6307.609Z" transform="translate(-848.566 -6279.402)" fill="#fff"/>
                  <path id="Path_4946" data-name="Path 4946" d="M863.022,6347.236a.635.635,0,1,0-.635.634A.634.634,0,0,0,863.022,6347.236Z" transform="translate(-848.566 -6314.069)" fill="#fff"/>
                  <path id="Path_4947" data-name="Path 4947" d="M863.022,6426.488a.635.635,0,1,0-.635.634A.634.634,0,0,0,863.022,6426.488Z" transform="translate(-848.566 -6383.401)" fill="#fff"/>
                  <path id="Path_4948" data-name="Path 4948" d="M863.022,6386.861a.635.635,0,1,0-.635.635A.634.634,0,0,0,863.022,6386.861Z" transform="translate(-848.566 -6348.735)" fill="#fff"/>
                </g>
                <g id="Group_18985" data-name="Group 18985" transform="translate(11.58 6.425)">
                  <g id="Group_18982" data-name="Group 18982">
                    <path id="Path_4949" data-name="Path 4949" d="M799.817,5976.327c-2.95,0-9.593-8.063-6.849-17.974.555-2,2.732-3.156,6.849-3.156,4.528,0,6.6,1.225,6.93,2.846C809.08,5969.513,802.836,5976.327,799.817,5976.327Z" transform="translate(-791.371 -5955.197)" fill="#ffd8a3"/>
                    <path id="Path_4950" data-name="Path 4950" d="M785.942,6035.225c-.139-.649-.053-1.178-.532-1.075a1.081,1.081,0,0,0-.617,1.363c.139.649.641,1.093,1.12.991S786.081,6035.875,785.942,6035.225Z" transform="translate(-784.756 -6024.256)" fill="#f7c371"/>
                    <path id="Path_4951" data-name="Path 4951" d="M908.414,6035.245c.123-.653.019-1.181.516-1.087a1.092,1.092,0,0,1,.676,1.355c-.123.653-.626,1.106-1.122,1.013S908.291,6035.9,908.414,6035.245Z" transform="translate(-892.757 -6024.266)" fill="#f7c371"/>
                    <g id="Group_18981" data-name="Group 18981" transform="translate(7.846 10.734)">
                      <path id="Path_4952" data-name="Path 4952" d="M847.441,6047.083a2.168,2.168,0,0,0,.884.367,1.255,1.255,0,0,0,.884-.4,10.1,10.1,0,0,0-.834-2.98C848.145,6044.042,847.424,6046.73,847.441,6047.083Z" transform="translate(-847.441 -6043.678)" fill="#ffab00"/>
                      <path id="Path_4953" data-name="Path 4953" d="M851.644,6043.9c0,.055.263.142.355.142.158,0,.348-.081.356-.179.015-.237.141-2.93-.335-2.9C851.5,6040.99,851.638,6043.559,851.644,6043.9Z" transform="translate(-851.099 -6040.962)" fill="#ffd8a3"/>
                    </g>
                  </g>
                  <g id="Group_18984" data-name="Group 18984" transform="translate(2.326 5.47)">
                    <g id="Group_18983" data-name="Group 18983">
                      <path id="Path_4954" data-name="Path 4954" d="M845.745,6080.489c-.888-.834-1.365-.311-1.572-.276s-.663-.423-1.282.409c-.189.254.592.129,1.381.121S845.973,6080.7,845.745,6080.489Z" transform="translate(-837.916 -6069.865)" fill="#f36973"/>
                      <path id="Path_4955" data-name="Path 4955" d="M846.46,6088.7c-.02-.329-.546-.266-1.228-.225s-1.26.043-1.241.372.588.562,1.27.52S846.48,6089.03,846.46,6088.7Z" transform="translate(-838.903 -6077.237)" fill="#f36973"/>
                      <path id="Path_4956" data-name="Path 4956" d="M867.045,6000.684c-.845-.75-2.785-2.2-4.859-1.044C863.873,5999.225,864.935,5999.354,867.045,6000.684Z" transform="translate(-854.821 -5999.171)" fill="#2d356b"/>
                      <path id="Path_4957" data-name="Path 4957" d="M803.342,6000.783c.945-.8,3.083-2.4,5.108-1.722C806.753,5998.974,805.645,5999.263,803.342,6000.783Z" transform="translate(-803.342 -5998.899)" fill="#2d356b"/>
                      <path id="Path_4958" data-name="Path 4958" d="M873.8,6028.148a.878.878,0,1,0-1.051.906A.993.993,0,0,0,873.8,6028.148Z" transform="translate(-863.494 -6023.392)" fill="#2d356b"/>
                      <path id="Path_4959" data-name="Path 4959" d="M873.338,6024.519a2.7,2.7,0,0,0-3-1.507A6.809,6.809,0,0,1,873.338,6024.519Z" transform="translate(-861.953 -6019.952)" fill="#2d356b"/>
                      <path id="Path_4960" data-name="Path 4960" d="M819.63,6027.71a.892.892,0,1,1,1.07.917A1.011,1.011,0,0,1,819.63,6027.71Z" transform="translate(-817.566 -6022.989)" fill="#2d356b"/>
                      <path id="Path_4961" data-name="Path 4961" d="M809.1,6024.025a2.7,2.7,0,0,1,3.086-1.316A6.81,6.81,0,0,0,809.1,6024.025Z" transform="translate(-808.378 -6019.651)" fill="#2d356b"/>
                      <path id="Path_4962" data-name="Path 4962" d="M837.314,6083.652c.412.252,1.337-.128,1.988-.195.7-.071,2.011.349,2.141.042,0,0,.114-1.349-2.236-1.133A1.89,1.89,0,0,0,837.314,6083.652Z" transform="translate(-833.062 -6071.9)" fill="#ffab00"/>
                      <path id="Path_4963" data-name="Path 4963" d="M844.558,6083.52a2.461,2.461,0,0,0-1.531-.344,2.665,2.665,0,0,0-1.609.508A7.413,7.413,0,0,0,844.558,6083.52Z" transform="translate(-836.652 -6072.625)" fill="#fff"/>
                      <path id="Path_4964" data-name="Path 4964" d="M869.391,6091.1a.164.164,0,1,0-.162.189A.178.178,0,0,0,869.391,6091.1Z" transform="translate(-860.841 -6079.39)" fill="#ffab00"/>
                      <path id="Path_4965" data-name="Path 4965" d="M835.966,6091.462a.178.178,0,1,0-.176.206A.193.193,0,0,0,835.966,6091.462Z" transform="translate(-831.575 -6079.697)" fill="#ffab00"/>
                    </g>
                  </g>
                </g>
                <g id="Group_18988" data-name="Group 18988" transform="translate(12.684 4.707)">
                  <g id="Group_18987" data-name="Group 18987">
                    <path id="Path_4966" data-name="Path 4966" d="M793.585,5947.816c2.526-.778,8.859-2.991,9.557-6.116,0,0-6.175-1.192-7.793,1.823C793.3,5947.33,793.585,5947.816,793.585,5947.816Z" transform="translate(-793.572 -5941.467)" fill="#2d356b"/>
                    <g id="Group_18986" data-name="Group 18986" transform="translate(0.918 1.299)">
                      <path id="Path_4967" data-name="Path 4967" d="M807.606,5962.032a18.937,18.937,0,0,1-6.306,3.875C798.991,5966.594,807.606,5962.032,807.606,5962.032Z" transform="translate(-800.906 -5960.757)" fill="#2d356b"/>
                      <path id="Path_4968" data-name="Path 4968" d="M845.228,5951.846a11.8,11.8,0,0,1-2.732,3.717C841.324,5956.5,845.228,5951.846,845.228,5951.846Z" transform="translate(-837.099 -5951.846)" fill="#2d356b"/>
                    </g>
                  </g>
                  <path id="Path_4969" data-name="Path 4969" d="M867.218,5962.4c-1.912-1.066-6.673-4-6.863-7.18,0,0,5.032-.466,5.964,2.714C867.5,5961.95,867.218,5962.4,867.218,5962.4Z" transform="translate(-851.996 -5953.478)" fill="#2d356b"/>
                </g>
              </g>
            </g>
            <g id="Group_18993" data-name="Group 18993" transform="translate(3.479 34.808)">
              <g id="Group_18991" data-name="Group 18991">
                <rect id="Rectangle_6353" data-name="Rectangle 6353" width="35.458" height="24.562" rx="7.948" transform="translate(0.272)" fill="#ebebeb"/>
                <rect id="Rectangle_6354" data-name="Rectangle 6354" width="36.001" height="1.773" transform="translate(0 25.29)" fill="#ebebeb"/>
                <rect id="Rectangle_6355" data-name="Rectangle 6355" width="1.773" height="4.257" transform="translate(29.425 21.936)" fill="#ebebeb"/>
                <rect id="Rectangle_6356" data-name="Rectangle 6356" width="1.773" height="4.257" transform="translate(4.858 21.936)" fill="#ebebeb"/>
              </g>
              <g id="Group_18992" data-name="Group 18992" transform="translate(13.837 7.411)">
                <path id="Path_4970" data-name="Path 4970" d="M834.746,6249.5a4.163,4.163,0,1,1,4.163-4.164A4.168,4.168,0,0,1,834.746,6249.5Zm0-6.74a2.577,2.577,0,1,0,2.576,2.576A2.579,2.579,0,0,0,834.746,6242.757Z" transform="translate(-830.583 -6241.171)" fill="#7b88ac"/>
              </g>
            </g>
          </g>
        </g>
        <g id="Group_19004" data-name="Group 19004" transform="translate(0 30.856)">
          <g id="Group_18996" data-name="Group 18996" transform="translate(0 30.236)">
            <rect id="Rectangle_6357" data-name="Rectangle 6357" width="120.025" height="3.603" fill="#40558d"/>
            <path id="Path_4971" data-name="Path 4971" d="M579.074,6429.648h-111.5v-26.585h111.5Z" transform="translate(-463.152 -6401.674)" fill="#40558d"/>
            <rect id="Rectangle_6358" data-name="Rectangle 6358" width="34.599" height="26.585" transform="translate(81.323 1.39)" fill="#7b87ab"/>
            <rect id="Rectangle_6359" data-name="Rectangle 6359" width="120.025" height="4.689" transform="translate(0 1.39)" fill="#2d356b"/>
          </g>
          <g id="Group_18999" data-name="Group 18999" transform="translate(2.844)">
            <g id="Group_18997" data-name="Group 18997" transform="translate(1.439 10.836)">
              <path id="Path_4972" data-name="Path 4972" d="M476.414,6241.222a.575.575,0,0,1-.575-.576V6238.5a.385.385,0,0,0-.385-.384H468a.385.385,0,0,0-.385.384v2.147a.575.575,0,1,1-1.151,0V6238.5a1.538,1.538,0,0,1,1.536-1.535h7.458a1.538,1.538,0,0,1,1.536,1.535v2.147A.575.575,0,0,1,476.414,6241.222Z" transform="translate(-466.46 -6236.964)" fill="#9999a5"/>
            </g>
            <path id="Path_4973" data-name="Path 4973" d="M469.941,6168.775s4.208,2.481,6.473,1.27c0,0,2.061,12.156,5.756,12.335l-6.62,3.889S470.9,6181.294,469.941,6168.775Z" transform="translate(-468.067 -6166.474)" fill="#ebebeb"/>
            <path id="Path_4974" data-name="Path 4974" d="M471.79,6165.543s4.208,2.481,6.473,1.269c0,0,2.061,12.157,5.756,12.335l-6.62,3.888S472.753,6178.062,471.79,6165.543Z" transform="translate(-469.684 -6163.646)" fill="#ebebeb"/>
            <path id="Path_4975" data-name="Path 4975" d="M474.96,6169.242s4.208,2.481,6.473,1.269c0,0,2.061,12.157,5.756,12.335l-6.62,3.889S475.923,6181.761,474.96,6169.242Z" transform="translate(-472.458 -6166.882)" fill="#ebebeb"/>
            <path id="Path_4976" data-name="Path 4976" d="M478.609,6173.121s4.208,2.481,6.473,1.269c0,0,2.061,12.157,5.756,12.335l-6.62,3.889S479.572,6185.64,478.609,6173.121Z" transform="translate(-475.65 -6170.276)" fill="#ebebeb"/>
            <path id="Path_4977" data-name="Path 4977" d="M481.049,6173.121s4.208,2.481,6.473,1.269c0,0,2.061,12.157,5.756,12.335l-6.62,3.889S482.012,6185.64,481.049,6173.121Z" transform="translate(-477.784 -6170.276)" fill="#fff"/>
            <path id="Path_4978" data-name="Path 4978" d="M494.644,6164.987s4.208,2.48,6.473,1.269c0,0,2.061,12.156,5.756,12.335l-6.62,3.889S495.607,6177.506,494.644,6164.987Z" transform="translate(-489.678 -6163.16)" fill="#ebebeb"/>
            <path id="Path_4979" data-name="Path 4979" d="M496.493,6161.754s4.208,2.481,6.473,1.27c0,0,2.061,12.156,5.756,12.334l-6.62,3.889S497.456,6174.273,496.493,6161.754Z" transform="translate(-491.295 -6160.331)" fill="#ebebeb"/>
            <path id="Path_4980" data-name="Path 4980" d="M499.663,6165.453s4.208,2.481,6.473,1.269c0,0,2.061,12.156,5.756,12.335l-6.62,3.888S500.626,6177.973,499.663,6165.453Z" transform="translate(-494.069 -6163.568)" fill="#ebebeb"/>
            <path id="Path_4981" data-name="Path 4981" d="M503.313,6169.332s4.208,2.481,6.473,1.27c0,0,2.061,12.156,5.756,12.335l-6.62,3.889S504.276,6181.852,503.313,6169.332Z" transform="translate(-497.262 -6166.961)" fill="#fff"/>
            <path id="Path_4982" data-name="Path 4982" d="M505.752,6169.332s4.208,2.481,6.473,1.27c0,0,2.061,12.156,5.756,12.335l-6.62,3.889S506.715,6181.852,505.752,6169.332Z" transform="translate(-499.396 -6166.961)" fill="#ebebeb"/>
            <path id="Path_4983" data-name="Path 4983" d="M560.048,6157.409s4.208,2.482,6.473,1.269c0,0,2.061,12.157,5.756,12.335l-6.62,3.889S561.011,6169.929,560.048,6157.409Z" transform="translate(-546.896 -6156.53)" fill="#ebebeb"/>
            <path id="Path_4984" data-name="Path 4984" d="M561.9,6154.177s4.208,2.481,6.473,1.27c0,0,2.061,12.156,5.756,12.334l-6.62,3.889S562.86,6166.7,561.9,6154.177Z" transform="translate(-548.513 -6153.703)" fill="#ebebeb"/>
            <path id="Path_4985" data-name="Path 4985" d="M565.067,6157.875s4.208,2.482,6.473,1.269c0,0,2.061,12.157,5.756,12.335l-6.62,3.889S566.03,6170.394,565.067,6157.875Z" transform="translate(-551.287 -6156.938)" fill="#ebebeb"/>
            <path id="Path_4986" data-name="Path 4986" d="M568.716,6161.755s4.208,2.481,6.473,1.27c0,0,2.061,12.156,5.756,12.335l-6.62,3.889S569.679,6174.273,568.716,6161.755Z" transform="translate(-554.479 -6160.332)" fill="#ebebeb"/>
            <path id="Path_4987" data-name="Path 4987" d="M571.155,6161.755s4.208,2.481,6.473,1.27c0,0,2.061,12.156,5.756,12.335l-6.62,3.889S572.118,6174.273,571.155,6161.755Z" transform="translate(-556.613 -6160.332)" fill="#fff"/>
            <path id="Path_4988" data-name="Path 4988" d="M584.751,6153.62s4.208,2.48,6.473,1.269c0,0,2.061,12.156,5.756,12.335l-6.62,3.887S585.714,6166.14,584.751,6153.62Z" transform="translate(-568.507 -6153.216)" fill="#ebebeb"/>
            <path id="Path_4989" data-name="Path 4989" d="M586.6,6150.388s4.208,2.481,6.473,1.269c0,0,2.061,12.156,5.756,12.335l-6.62,3.888S587.563,6162.907,586.6,6150.388Z" transform="translate(-570.124 -6150.388)" fill="#ebebeb"/>
            <path id="Path_4990" data-name="Path 4990" d="M589.77,6154.086s4.208,2.481,6.473,1.269c0,0,2.061,12.156,5.756,12.335l-6.62,3.888S590.733,6166.606,589.77,6154.086Z" transform="translate(-572.898 -6153.624)" fill="#ebebeb"/>
            <path id="Path_4991" data-name="Path 4991" d="M593.419,6157.966s4.208,2.481,6.473,1.269c0,0,2.061,12.157,5.756,12.335l-6.62,3.889S594.382,6170.484,593.419,6157.966Z" transform="translate(-576.09 -6157.018)" fill="#fff"/>
            <path id="Path_4992" data-name="Path 4992" d="M595.858,6157.966s4.208,2.481,6.473,1.269c0,0,2.061,12.157,5.756,12.335l-6.62,3.889S596.821,6170.484,595.858,6157.966Z" transform="translate(-578.224 -6157.018)" fill="#ebebeb"/>
            <g id="Group_18998" data-name="Group 18998" transform="translate(18.586 10.836)">
              <path id="Path_4993" data-name="Path 4993" d="M613.413,6241.222a.575.575,0,0,1-.575-.576V6238.5a.385.385,0,0,0-.385-.384h-7.458a.385.385,0,0,0-.385.384v2.147a.575.575,0,1,1-1.151,0V6238.5a1.537,1.537,0,0,1,1.536-1.535h7.458a1.538,1.538,0,0,1,1.536,1.535v2.147A.575.575,0,0,1,613.413,6241.222Z" transform="translate(-603.458 -6236.964)" fill="#9999a5"/>
            </g>
            <rect id="Rectangle_6360" data-name="Rectangle 6360" width="18.758" height="16.111" rx="7.356" transform="translate(11.105 14.116)" fill="#029390"/>
            <path id="Path_4994" data-name="Path 4994" d="M559.568,6264.088v14.271a.922.922,0,0,1-.923.92H544.615a.92.92,0,0,1-.921-.92v-14.271a.92.92,0,0,1,.921-.92h14.031A.922.922,0,0,1,559.568,6264.088Z" transform="translate(-532.589 -6249.052)" fill="#54ccca"/>
            <rect id="Rectangle_6361" data-name="Rectangle 6361" width="18.758" height="16.111" rx="7.363" transform="translate(0 14.116)" fill="#c3e8e6"/>
          </g>
          <g id="Group_19000" data-name="Group 19000" transform="translate(92.552 19.294)">
            <path id="Path_4995" data-name="Path 4995" d="M1173.825,6341.927s4.05-2.731,3.93-5.3c0,0,11.861,3.369,13.611.11l.662,7.649S1185.541,6346.443,1173.825,6341.927Z" transform="translate(-1173.559 -6332.614)" fill="#ebebeb"/>
            <path id="Path_4996" data-name="Path 4996" d="M1171.7,6338.868s4.05-2.732,3.93-5.3c0,0,11.861,3.369,13.612.11l.662,7.649S1183.419,6343.384,1171.7,6338.868Z" transform="translate(-1171.703 -6329.937)" fill="#ebebeb"/>
            <path id="Path_4997" data-name="Path 4997" d="M1176.405,6337.6s4.05-2.732,3.93-5.3c0,0,11.861,3.369,13.611.109l.662,7.649S1188.121,6342.112,1176.405,6337.6Z" transform="translate(-1175.817 -6328.825)" fill="#ebebeb"/>
            <path id="Path_4998" data-name="Path 4998" d="M1181.477,6335.971s4.05-2.731,3.93-5.3c0,0,11.861,3.369,13.612.11l.662,7.649S1193.193,6340.487,1181.477,6335.971Z" transform="translate(-1180.254 -6327.403)" fill="#ebebeb"/>
            <path id="Path_4999" data-name="Path 4999" d="M1182.526,6333.77s4.05-2.732,3.93-5.3c0,0,11.861,3.369,13.612.11l.662,7.649S1194.242,6338.286,1182.526,6333.77Z" transform="translate(-1181.171 -6325.477)" fill="#fff"/>
            <path id="Path_5000" data-name="Path 5000" d="M1181.032,6318s4.05-2.73,3.93-5.3c0,0,11.861,3.369,13.611.11l.662,7.649S1192.748,6322.512,1181.032,6318Z" transform="translate(-1179.864 -6311.678)" fill="#ebebeb"/>
            <path id="Path_5001" data-name="Path 5001" d="M1178.909,6314.937s4.05-2.732,3.93-5.3c0,0,11.861,3.37,13.612.11l.662,7.649S1190.625,6319.453,1178.909,6314.937Z" transform="translate(-1178.007 -6309.001)" fill="#ebebeb"/>
            <path id="Path_5002" data-name="Path 5002" d="M1183.611,6313.667s4.05-2.731,3.93-5.3c0,0,11.861,3.369,13.612.11l.662,7.65S1195.327,6318.183,1183.611,6313.667Z" transform="translate(-1182.12 -6307.89)" fill="#ebebeb"/>
            <path id="Path_5003" data-name="Path 5003" d="M1188.684,6312.042s4.05-2.732,3.93-5.3c0,0,11.861,3.368,13.612.109l.662,7.649S1200.4,6316.557,1188.684,6312.042Z" transform="translate(-1186.559 -6306.469)" fill="#fff"/>
            <path id="Path_5004" data-name="Path 5004" d="M1189.733,6309.839s4.05-2.731,3.93-5.3c0,0,11.861,3.368,13.611.11l.662,7.649S1201.449,6314.355,1189.733,6309.839Z" transform="translate(-1187.476 -6304.542)" fill="#c3e8e6"/>
          </g>
          <g id="Group_19001" data-name="Group 19001" transform="translate(91.424 12.557)">
            <path id="Path_5005" data-name="Path 5005" d="M1164.81,6288.1s4.05-2.731,3.93-5.3c0,0,11.861,3.369,13.612.11l.662,7.649S1176.526,6292.618,1164.81,6288.1Z" transform="translate(-1164.544 -6278.789)" fill="#ebebeb"/>
            <path id="Path_5006" data-name="Path 5006" d="M1162.687,6285.042s4.05-2.732,3.93-5.3c0,0,11.861,3.369,13.611.11l.662,7.649S1174.4,6289.558,1162.687,6285.042Z" transform="translate(-1162.687 -6276.111)" fill="#fff"/>
            <path id="Path_5007" data-name="Path 5007" d="M1167.389,6283.771s4.05-2.731,3.93-5.3c0,0,11.861,3.37,13.612.11l.662,7.649S1179.1,6288.288,1167.389,6283.771Z" transform="translate(-1166.801 -6274.998)" fill="#ebebeb"/>
            <path id="Path_5008" data-name="Path 5008" d="M1172.462,6282.146s4.05-2.731,3.93-5.3c0,0,11.861,3.369,13.611.11l.662,7.648S1184.178,6286.662,1172.462,6282.146Z" transform="translate(-1171.239 -6273.578)" fill="#ebebeb"/>
            <path id="Path_5009" data-name="Path 5009" d="M1173.511,6279.944s4.05-2.731,3.93-5.3c0,0,11.861,3.369,13.611.111l.662,7.648S1185.227,6284.46,1173.511,6279.944Z" transform="translate(-1172.156 -6271.65)" fill="#ffac00"/>
            <path id="Path_5010" data-name="Path 5010" d="M1172.017,6264.17s4.05-2.73,3.93-5.3c0,0,11.861,3.369,13.611.11l.662,7.649S1183.733,6268.688,1172.017,6264.17Z" transform="translate(-1170.849 -6257.852)" fill="#ebebeb"/>
            <path id="Path_5011" data-name="Path 5011" d="M1169.894,6261.111s4.05-2.732,3.93-5.3c0,0,11.861,3.369,13.612.11l.662,7.649S1181.61,6265.627,1169.894,6261.111Z" transform="translate(-1168.992 -6255.175)" fill="#ebebeb"/>
            <path id="Path_5012" data-name="Path 5012" d="M1174.6,6259.84s4.05-2.731,3.93-5.3c0,0,11.861,3.369,13.612.11l.662,7.649S1186.312,6264.356,1174.6,6259.84Z" transform="translate(-1173.105 -6254.064)" fill="#ebebeb"/>
            <path id="Path_5013" data-name="Path 5013" d="M1179.669,6258.214s4.05-2.731,3.93-5.3c0,0,11.861,3.369,13.611.11l.662,7.649S1191.385,6262.73,1179.669,6258.214Z" transform="translate(-1177.544 -6252.641)" fill="#fff"/>
            <path id="Path_5014" data-name="Path 5014" d="M1180.718,6256.013s4.05-2.731,3.93-5.3c0,0,11.861,3.369,13.611.11l.662,7.649S1192.434,6260.529,1180.718,6256.013Z" transform="translate(-1178.461 -6250.715)" fill="#ffe200"/>
          </g>
          <g id="Group_19002" data-name="Group 19002" transform="translate(72.954 18.382)">
            <path id="Path_5015" data-name="Path 5015" d="M1017.694,6339.317s3.571-3.333,3.05-5.849c0,0,12.242,1.466,13.46-2.027l1.854,7.451S1029.973,6341.94,1017.694,6339.317Z" transform="translate(-1017.371 -6327.163)" fill="#ebebeb"/>
            <path id="Path_5016" data-name="Path 5016" d="M1015.117,6336.628s3.572-3.333,3.05-5.849c0,0,12.242,1.466,13.46-2.027l1.854,7.451S1027.4,6339.25,1015.117,6336.628Z" transform="translate(-1015.117 -6324.811)" fill="#ebebeb"/>
            <path id="Path_5017" data-name="Path 5017" d="M1019.562,6334.636s3.571-3.333,3.05-5.849c0,0,12.243,1.466,13.46-2.027l1.854,7.451S1031.841,6337.257,1019.562,6334.636Z" transform="translate(-1019.006 -6323.067)" fill="#ebebeb"/>
            <path id="Path_5018" data-name="Path 5018" d="M1024.316,6332.235s3.571-3.333,3.05-5.849c0,0,12.243,1.466,13.46-2.027l1.854,7.45S1036.6,6334.857,1024.316,6332.235Z" transform="translate(-1023.165 -6320.967)" fill="#ebebeb"/>
            <path id="Path_5019" data-name="Path 5019" d="M1025.007,6329.9s3.571-3.333,3.05-5.848c0,0,12.243,1.465,13.46-2.027l1.854,7.45S1037.286,6332.518,1025.007,6329.9Z" transform="translate(-1023.769 -6318.921)" fill="#fff"/>
            <path id="Path_5020" data-name="Path 5020" d="M1021.056,6314.553s3.571-3.333,3.05-5.85c0,0,12.242,1.467,13.46-2.027l1.854,7.451S1033.335,6317.175,1021.056,6314.553Z" transform="translate(-1020.313 -6305.498)" fill="#ebebeb"/>
            <path id="Path_5021" data-name="Path 5021" d="M1018.48,6311.864s3.571-3.333,3.05-5.848c0,0,12.242,1.466,13.46-2.028l1.854,7.451S1030.759,6314.486,1018.48,6311.864Z" transform="translate(-1018.059 -6303.146)" fill="#ebebeb"/>
            <path id="Path_5022" data-name="Path 5022" d="M1022.924,6309.871s3.571-3.333,3.05-5.849c0,0,12.243,1.466,13.46-2.026l1.854,7.45S1035.2,6312.493,1022.924,6309.871Z" transform="translate(-1021.947 -6301.403)" fill="#ebebeb"/>
            <path id="Path_5023" data-name="Path 5023" d="M1027.679,6307.47s3.571-3.333,3.05-5.849c0,0,12.242,1.466,13.46-2.027l1.854,7.451S1039.958,6310.092,1027.679,6307.47Z" transform="translate(-1026.107 -6299.301)" fill="#fff"/>
            <path id="Path_5024" data-name="Path 5024" d="M1028.37,6305.13s3.571-3.333,3.05-5.848c0,0,12.242,1.466,13.46-2.027l1.854,7.451S1040.649,6307.753,1028.37,6305.13Z" transform="translate(-1026.711 -6297.255)" fill="#54ccca"/>
          </g>
          <g id="Group_19003" data-name="Group 19003" transform="translate(70.696 13.728)">
            <path id="Path_5025" data-name="Path 5025" d="M999.657,6302.134s3.571-3.333,3.05-5.847c0,0,12.243,1.465,13.46-2.028l1.854,7.45S1011.936,6304.756,999.657,6302.134Z" transform="translate(-999.335 -6289.98)" fill="#ebebeb"/>
            <path id="Path_5026" data-name="Path 5026" d="M997.081,6299.445s3.571-3.333,3.05-5.848c0,0,12.242,1.465,13.46-2.027l1.854,7.45S1009.36,6302.067,997.081,6299.445Z" transform="translate(-997.081 -6287.627)" fill="#ebebeb"/>
            <path id="Path_5027" data-name="Path 5027" d="M1001.525,6297.452s3.571-3.333,3.05-5.848c0,0,12.243,1.466,13.46-2.027l1.854,7.45S1013.8,6300.074,1001.525,6297.452Z" transform="translate(-1000.969 -6285.884)" fill="#ebebeb"/>
            <path id="Path_5028" data-name="Path 5028" d="M1006.28,6295.051s3.571-3.333,3.05-5.848c0,0,12.242,1.466,13.46-2.027l1.854,7.45S1018.559,6297.673,1006.28,6295.051Z" transform="translate(-1005.129 -6283.783)" fill="#ebebeb"/>
            <path id="Path_5029" data-name="Path 5029" d="M1006.97,6292.711s3.572-3.333,3.05-5.848c0,0,12.242,1.465,13.46-2.027l1.854,7.451S1019.249,6295.333,1006.97,6292.711Z" transform="translate(-1005.732 -6281.737)" fill="#fff"/>
            <path id="Path_5030" data-name="Path 5030" d="M1003.02,6277.369s3.571-3.333,3.05-5.848c0,0,12.242,1.465,13.46-2.027l1.854,7.45S1015.3,6279.992,1003.02,6277.369Z" transform="translate(-1002.277 -6268.315)" fill="#ebebeb"/>
            <path id="Path_5031" data-name="Path 5031" d="M1000.443,6274.681s3.571-3.333,3.05-5.849c0,0,12.242,1.466,13.46-2.027l1.854,7.451S1012.722,6277.3,1000.443,6274.681Z" transform="translate(-1000.022 -6265.962)" fill="#ebebeb"/>
            <path id="Path_5032" data-name="Path 5032" d="M1004.888,6272.688s3.571-3.333,3.05-5.848c0,0,12.243,1.466,13.46-2.027l1.854,7.45S1017.167,6275.31,1004.888,6272.688Z" transform="translate(-1003.911 -6264.219)" fill="#ebebeb"/>
            <path id="Path_5033" data-name="Path 5033" d="M1009.642,6270.287s3.571-3.333,3.05-5.848c0,0,12.242,1.466,13.46-2.027l1.854,7.45S1021.921,6272.909,1009.642,6270.287Z" transform="translate(-1008.07 -6262.119)" fill="#fff"/>
            <path id="Path_5034" data-name="Path 5034" d="M1010.333,6267.947s3.571-3.333,3.05-5.849c0,0,12.242,1.466,13.46-2.026l1.854,7.45S1022.612,6270.569,1010.333,6267.947Z" transform="translate(-1008.674 -6260.072)" fill="#fff4ba"/>
          </g>
        </g>
      </g>
    </g>
    <g id="Group_19047" data-name="Group 19047" transform="translate(176.932 9440.396)">
      <g id="Group_19045" data-name="Group 19045" transform="translate(0 0)">
        <g id="Group_19009" data-name="Group 19009" transform="translate(19.552 21.165)">
          <g id="Group_19008" data-name="Group 19008">
            <path id="Path_5035" data-name="Path 5035" d="M1737.744,6060.422c1.388-5.531,28.366-4.015,34.9-3.269,4.7.533,5.81,2.464,5.5,7.189l-6.234,40.955c-.3,4.712-4.2,7.777-8.652,6.8s-33.163-4.42-32.741-9.131Z" transform="translate(-1719.29 -6056.385)" fill="#c3e8e6"/>
            <path id="Path_5036" data-name="Path 5036" d="M1641.252,6437.053a1.676,1.676,0,0,1,1.33-2.72l25.336.281a21.505,21.505,0,0,1,6.72,1.363l14.175,4.955c.035.013.071.026.1.041,1.7.708,1.53,1.281-.4,1.252l-42.975-.753a1.677,1.677,0,0,1-1.282-.632Z" transform="translate(-1640.884 -6387.028)" fill="#c3e8e6"/>
          </g>
        </g>
        <g id="Group_19027" data-name="Group 19027" transform="translate(34.371)">
          <g id="Group_19026" data-name="Group 19026">
            <g id="Group_19022" data-name="Group 19022">
              <g id="Group_19021" data-name="Group 19021">
                <g id="Group_19011" data-name="Group 19011" transform="translate(0 30.236)">
                  <path id="Path_5037" data-name="Path 5037" d="M1773.444,6129.036c-3.492-2.411-14.115,20.657-14.164,21.56,0,0,1.9,2.6,2.712,1.918C1764.1,6150.742,1775,6130.111,1773.444,6129.036Z" transform="translate(-1759.28 -6128.859)" fill="#7b88ac"/>
                  <g id="Group_19010" data-name="Group 19010" transform="translate(12.628 31.629)">
                    <path id="Path_5038" data-name="Path 5038" d="M1860.172,6382.8c1.663,1.42,2.752,6.7,4.439,5.8,1.511-.8,2.759-4.315-3.282-7.043Z" transform="translate(-1860.172 -6381.564)" fill="#7b88ac"/>
                    <path id="Path_5039" data-name="Path 5039" d="M1880.354,6397.235c-2.757,1.24-1.235,4.593-.512,5.538.8,1.039,3.148.671,3.694-.215S1881.409,6396.763,1880.354,6397.235Z" transform="translate(-1876.44 -6395.246)" fill="#7b88ac"/>
                    <path id="Path_5040" data-name="Path 5040" d="M1894.2,6403c1.7.542,3.9.343,3.929-.338.035-.77-1.825-.243-3.231-1.1-1.524-.925-2.531-1.424-2.919-.857S1892.5,6402.46,1894.2,6403Z" transform="translate(-1887.92 -6398.099)" fill="#7b88ac"/>
                    <path id="Path_5041" data-name="Path 5041" d="M1908.587,6421.158c.935,1.206,1.7,1.623,1.992,1.338s-.283-.94-1.215-2.147-1.819-2.973-2.111-2.689S1907.657,6419.948,1908.587,6421.158Z" transform="translate(-1901.301 -6413.115)" fill="#7b88ac"/>
                    <path id="Path_5042" data-name="Path 5042" d="M1900.917,6434.192c.686,1.4,1.9,2.3,2.237,2.087s-.6-1.35-1.285-2.748-1.206-2.267-1.543-2.049S1900.231,6432.795,1900.917,6434.192Z" transform="translate(-1895.168 -6425.206)" fill="#7b88ac"/>
                    <path id="Path_5043" data-name="Path 5043" d="M1884.189,6430.832c.741,1.369,1.465,1.965,1.795,1.739s-.328-1.034-1.07-2.4-1.28-2.316-1.611-2.09S1883.447,6429.463,1884.189,6430.832Z" transform="translate(-1880.314 -6422.229)" fill="#7b88ac"/>
                  </g>
                  <path id="Path_5044" data-name="Path 5044" d="M1774.5,6303.116c2.436-2.118-11.439-13.019-12.1-13.221,0,0-2.281.913-1.926,1.636C1761.4,6293.4,1773.415,6304.062,1774.5,6303.116Z" transform="translate(-1760.297 -6269.739)" fill="#7b88ac"/>
                  <path id="Path_5045" data-name="Path 5045" d="M1845.647,6381.775l-.849.566-3.663-1.286a7.91,7.91,0,0,1,1.7-1.39C1843.268,6379.567,1845.647,6381.775,1845.647,6381.775Z" transform="translate(-1830.89 -6348.271)" fill="#7b88ac"/>
                  <path id="Path_5046" data-name="Path 5046" d="M1861.24,6365.674l.548-.869-1.423-3.616a8.013,8.013,0,0,0-1.355,1.745C1858.923,6363.374,1861.24,6365.674,1861.24,6365.674Z" transform="translate(-1846.525 -6332.11)" fill="#7b88ac"/>
                </g>
                <g id="Group_19013" data-name="Group 19013" transform="translate(21.29 30.27)">
                  <g id="Group_19012" data-name="Group 19012" transform="translate(0 32.327)">
                    <path id="Path_5047" data-name="Path 5047" d="M1935.888,6416.108c-.117-.3.4-.569,1.031-.782s1.124-.292,1.243.011-.3.72-.924.932S1936.006,6416.41,1935.888,6416.108Z" transform="translate(-1935.059 -6411.666)" fill="#7b88ac"/>
                    <path id="Path_5048" data-name="Path 5048" d="M1940.748,6421.655c-.118-.3.4-.569,1.032-.781s1.124-.294,1.243.009-.3.72-.924.933S1940.867,6421.957,1940.748,6421.655Z" transform="translate(-1939.31 -6416.518)" fill="#7b88ac"/>
                    <path id="Path_5049" data-name="Path 5049" d="M1929.51,6407.08c.287-.166.824.5,1.348,1.306s.839,1.446.551,1.612-.944-.354-1.469-1.16S1929.223,6407.245,1929.51,6407.08Z" transform="translate(-1929.377 -6404.594)" fill="#7b88ac"/>
                    <path id="Path_5050" data-name="Path 5050" d="M1935.01,6387.4c-1.325.515-5.617,1.813-5.186,3.279.386,1.312,2.715,2.336,5.992-2.2Z" transform="translate(-1929.742 -6387.402)" fill="#7b88ac"/>
                  </g>
                  <path id="Path_5051" data-name="Path 5051" d="M1966.586,6129.317c3.423-2.508,14.693,20.251,14.767,21.152,0,0-1.825,2.655-2.657,1.994C1976.544,6150.75,1965.058,6130.436,1966.586,6129.317Z" transform="translate(-1961.807 -6129.124)" fill="#7b88ac"/>
                  <path id="Path_5052" data-name="Path 5052" d="M1972.568,6301.064c-2.5-2.048,11.067-13.337,11.72-13.557,0,0,2.306.848,1.971,1.581C1985.394,6290.984,1973.682,6301.979,1972.568,6301.064Z" transform="translate(-1966.894 -6267.684)" fill="#7b88ac"/>
                  <path id="Path_5053" data-name="Path 5053" d="M1970.337,6381.654l.865.542,3.625-1.388a7.944,7.944,0,0,0-1.736-1.342C1972.653,6379.381,1970.337,6381.654,1970.337,6381.654Z" transform="translate(-1965.21 -6348.13)" fill="#7b88ac"/>
                  <path id="Path_5054" data-name="Path 5054" d="M1966.688,6365.928l-.573-.854,1.32-3.654a7.993,7.993,0,0,1,1.4,1.708C1968.938,6363.563,1966.688,6365.928,1966.688,6365.928Z" transform="translate(-1961.517 -6332.345)" fill="#7b88ac"/>
                </g>
                <g id="Group_19014" data-name="Group 19014" transform="translate(8.031 20.308)">
                  <path id="Path_5055" data-name="Path 5055" d="M1823.444,6146.408s5.185,4.592,10.371,6.315l2.7-5.836,2.485,5.836s7.009-1.975,9.83-6.315c-5.712-8.282-7.969-15.193-2.045-23.814,0,0-2.384-15.415-11.026-15.8s-10.182,16.433-10.182,16.433C1831.195,6131.648,1833.034,6135.3,1823.444,6146.408Z" transform="translate(-1823.444 -6099.624)" fill="#2d356b"/>
                  <path id="Path_5056" data-name="Path 5056" d="M1888.244,6113.778a5.232,5.232,0,0,1,3.348,1.208,10.8,10.8,0,0,0,.836-6.946c-5.261-3.956-8.5.411-8.5.411a9.884,9.884,0,0,0,1.166,6.388A5.222,5.222,0,0,1,1888.244,6113.778Z" transform="translate(-1876.245 -6099.267)" fill="#fff"/>
                  <path id="Path_5057" data-name="Path 5057" d="M1896.294,6107.306s-.875,4.391,3.1,9.154c0,0,3.382-4.637,2.427-9.494C1898.4,6103.7,1896.294,6107.306,1896.294,6107.306Z" transform="translate(-1887.104 -6098.58)" fill="#f7c371"/>
                  <rect id="Rectangle_6363" data-name="Rectangle 6363" width="4.513" height="8.46" transform="translate(9.731)" fill="#f7c371"/>
                  <path id="Path_5058" data-name="Path 5058" d="M1930.07,6270.465a.635.635,0,1,0-.635.634A.635.635,0,0,0,1930.07,6270.465Z" transform="translate(-1915.615 -6242.258)" fill="#fff"/>
                  <path id="Path_5059" data-name="Path 5059" d="M1930.07,6310.091a.635.635,0,1,0-.635.635A.634.634,0,0,0,1930.07,6310.091Z" transform="translate(-1915.615 -6276.925)" fill="#fff"/>
                  <path id="Path_5060" data-name="Path 5060" d="M1930.07,6389.344a.635.635,0,1,0-.635.633A.635.635,0,0,0,1930.07,6389.344Z" transform="translate(-1915.615 -6346.257)" fill="#fff"/>
                  <path id="Path_5061" data-name="Path 5061" d="M1930.07,6349.718a.635.635,0,1,0-.635.634A.635.635,0,0,0,1930.07,6349.718Z" transform="translate(-1915.615 -6311.592)" fill="#fff"/>
                </g>
                <g id="Group_19020" data-name="Group 19020" transform="translate(9.005)">
                  <g id="Group_19015" data-name="Group 19015">
                    <path id="Path_5062" data-name="Path 5062" d="M1838.243,5912.027c-4.232-2.3-8.9-11.814-6.236-17.041,2.6-5.1,5.777-3.309,6.081-3.845.223-.393-.278-3.281,4.552-3.808a8.922,8.922,0,0,1,9.84,9.354c-.34,6.516-2.915,13.692-6.218,15.209S1838.243,5912.027,1838.243,5912.027Z" transform="translate(-1831.226 -5887.281)" fill="#ffab00"/>
                  </g>
                  <g id="Group_19019" data-name="Group 19019" transform="translate(2.346 5.889)">
                    <g id="Group_19017" data-name="Group 19017">
                      <path id="Path_5063" data-name="Path 5063" d="M1865.488,5955.583c-2.965-.133-9.275-8.536-6.069-18.371.649-1.987,2.888-3.048,7.025-2.861,4.55.2,6.577,1.529,6.835,3.173C1875.1,5949.156,1868.522,5955.72,1865.488,5955.583Z" transform="translate(-1857.462 -5934.331)" fill="#ffd8a3"/>
                      <path id="Path_5064" data-name="Path 5064" d="M1851.159,6012.156c-.11-.66,0-1.187-.486-1.1a1.088,1.088,0,0,0-.682,1.342c.11.658.594,1.127,1.081,1.046S1851.269,6012.816,1851.159,6012.156Z" transform="translate(-1849.968 -6001.441)" fill="#f7c371"/>
                      <path id="Path_5065" data-name="Path 5065" d="M1973.911,6017.668c.154-.65.073-1.186.567-1.069a1.1,1.1,0,0,1,.618,1.393c-.153.65-.679,1.083-1.174.968S1973.757,6018.321,1973.911,6017.668Z" transform="translate(-1958.179 -6006.289)" fill="#f7c371"/>
                      <g id="Group_19016" data-name="Group 19016" transform="translate(7.74 10.823)">
                        <path id="Path_5066" data-name="Path 5066" d="M1911.808,6026.911a2.183,2.183,0,0,0,.871.408,1.261,1.261,0,0,0,.906-.366,10.152,10.152,0,0,0-.7-3.032C1912.653,6023.885,1911.807,6026.555,1911.808,6026.911Z" transform="translate(-1911.808 -6023.53)" fill="#ffab00"/>
                        <path id="Path_5067" data-name="Path 5067" d="M1916.351,6023.736c0,.055.258.154.35.159.159.007.354-.065.365-.164.026-.238.275-2.937-.206-2.933C1916.335,6020.8,1916.361,6023.39,1916.351,6023.736Z" transform="translate(-1915.782 -6020.798)" fill="#ffd8a3"/>
                      </g>
                    </g>
                    <g id="Group_19018" data-name="Group 19018" transform="translate(3.122 6.773)">
                      <path id="Path_5068" data-name="Path 5068" d="M1908.013,6071c-.014.3.52.292,1.206.323s1.266.086,1.279-.211-.532-.562-1.218-.594S1908.027,6070.7,1908.013,6071Z" transform="translate(-1903.871 -6060.243)" fill="#f36973"/>
                      <path id="Path_5069" data-name="Path 5069" d="M1929.282,5992.847c1.261.04,3.953-.026,4.842-1.636C1933.016,5992.222,1932.03,5992.636,1929.282,5992.847Z" transform="translate(-1922.477 -5990.865)" fill="#2d356b"/>
                      <path id="Path_5070" data-name="Path 5070" d="M1879.952,5990.294c-1.245-.011-3.922-.185-5.037-1.846C1876.159,5989.514,1877.2,5989.971,1879.952,5990.294Z" transform="translate(-1874.915 -5988.448)" fill="#2d356b"/>
                      <path id="Path_5071" data-name="Path 5071" d="M1942.517,6012.854a.873.873,0,0,0-.8-.925.857.857,0,0,0-.8.918.873.873,0,0,0,.8.925A.857.857,0,0,0,1942.517,6012.854Z" transform="translate(-1932.661 -6008.99)" fill="#2d356b"/>
                      <path id="Path_5072" data-name="Path 5072" d="M1938.321,6011.069a2.929,2.929,0,0,0-3.328.484A7.484,7.484,0,0,1,1938.321,6011.069Z" transform="translate(-1927.474 -6007.969)" fill="#2d356b"/>
                      <path id="Path_5073" data-name="Path 5073" d="M1887.9,6009.91a.873.873,0,0,1,.879-.851.858.858,0,0,1,.709.986.874.874,0,0,1-.879.851A.857.857,0,0,1,1887.9,6009.91Z" transform="translate(-1886.274 -6006.477)" fill="#2d356b"/>
                      <path id="Path_5074" data-name="Path 5074" d="M1882.3,6007.089a2.873,2.873,0,0,1,3.083,1.27A7.314,7.314,0,0,0,1882.3,6007.089Z" transform="translate(-1881.373 -6004.718)" fill="#2d356b"/>
                      <path id="Path_5075" data-name="Path 5075" d="M1906.236,6065.987c-.358.263-1.295-.182-1.916-.21-.671-.03-1.686.327-1.845.041,0,0-.006-1.033,1.927-.946C1906.673,6064.974,1906.236,6065.987,1906.236,6065.987Z" transform="translate(-1899.025 -6055.301)" fill="#ffab00"/>
                      <path id="Path_5076" data-name="Path 5076" d="M1908.8,6065.257a2.658,2.658,0,0,0-1.506-.384,2.176,2.176,0,0,0-1.514.337A4.624,4.624,0,0,0,1908.8,6065.257Z" transform="translate(-1901.916 -6055.303)" fill="#fff"/>
                      <path id="Path_5077" data-name="Path 5077" d="M1931.649,6072.982a.163.163,0,1,0-.17.164A.166.166,0,0,0,1931.649,6072.982Z" transform="translate(-1924.263 -6062.245)" fill="#ffab00"/>
                      <path id="Path_5078" data-name="Path 5078" d="M1901.208,6071.514a.177.177,0,1,0-.186.178A.181.181,0,0,0,1901.208,6071.514Z" transform="translate(-1897.608 -6060.948)" fill="#ffab00"/>
                    </g>
                  </g>
                  <path id="Path_5079" data-name="Path 5079" d="M1901.184,5916.3c.5-1.915-1.872-2.517-4.9-3.9s-5.889-.951-6.387.966,1.554,4.59,4.583,5.974S1900.686,5918.218,1901.184,5916.3Z" transform="translate(-1882.488 -5908.549)" fill="#ffab00"/>
                </g>
              </g>
            </g>
            <g id="Group_19025" data-name="Group 19025" transform="translate(1.648 36.883)">
              <g id="Group_19023" data-name="Group 19023">
                <rect id="Rectangle_6364" data-name="Rectangle 6364" width="35.458" height="24.562" rx="7.948" transform="translate(0.272)" fill="#ebebeb"/>
                <rect id="Rectangle_6365" data-name="Rectangle 6365" width="36.001" height="1.773" transform="translate(0 25.29)" fill="#ebebeb"/>
                <rect id="Rectangle_6366" data-name="Rectangle 6366" width="1.773" height="4.257" transform="translate(29.425 21.936)" fill="#ebebeb"/>
                <rect id="Rectangle_6367" data-name="Rectangle 6367" width="1.773" height="4.257" transform="translate(4.858 21.936)" fill="#ebebeb"/>
              </g>
              <g id="Group_19024" data-name="Group 19024" transform="translate(13.837 7.411)">
                <path id="Path_5080" data-name="Path 5080" d="M1887.169,6249.5a4.163,4.163,0,1,1,4.162-4.164A4.168,4.168,0,0,1,1887.169,6249.5Zm0-6.74a2.577,2.577,0,1,0,2.576,2.576A2.579,2.579,0,0,0,1887.169,6242.757Z" transform="translate(-1883.006 -6241.171)" fill="#7b88ac"/>
              </g>
            </g>
          </g>
        </g>
        <g id="Group_19044" data-name="Group 19044" transform="translate(0 36.28)">
          <g id="Group_19028" data-name="Group 19028" transform="translate(0 26.887)">
            <rect id="Rectangle_6368" data-name="Rectangle 6368" width="120.025" height="3.603" fill="#40558d"/>
            <path id="Path_5081" data-name="Path 5081" d="M1631.5,6429.648H1520v-26.585h111.5Z" transform="translate(-1515.575 -6401.674)" fill="#40558d"/>
            <rect id="Rectangle_6369" data-name="Rectangle 6369" width="34.599" height="26.585" transform="translate(81.323 1.39)" fill="#7b87ab"/>
            <rect id="Rectangle_6370" data-name="Rectangle 6370" width="120.025" height="4.689" transform="translate(0 1.39)" fill="#2d356b"/>
          </g>
          <g id="Group_19029" data-name="Group 19029" transform="translate(91.463 16.591)">
            <path id="Path_5082" data-name="Path 5082" d="M2217.547,6347.085s4.05-2.731,3.93-5.3c0,0,11.861,3.369,13.611.11l.663,7.649S2229.263,6351.6,2217.547,6347.085Z" transform="translate(-2217.281 -6337.772)" fill="#ebebeb"/>
            <path id="Path_5083" data-name="Path 5083" d="M2215.424,6344.025s4.05-2.731,3.93-5.3c0,0,11.861,3.369,13.611.111l.662,7.649S2227.14,6348.542,2215.424,6344.025Z" transform="translate(-2215.424 -6335.094)" fill="#fff"/>
            <path id="Path_5084" data-name="Path 5084" d="M2220.126,6342.754s4.051-2.732,3.93-5.3c0,0,11.861,3.369,13.612.11l.662,7.649S2231.842,6347.271,2220.126,6342.754Z" transform="translate(-2219.537 -6333.983)" fill="#ebebeb"/>
            <path id="Path_5085" data-name="Path 5085" d="M2225.2,6341.129s4.05-2.731,3.93-5.3c0,0,11.861,3.369,13.612.11l.662,7.649S2236.915,6345.645,2225.2,6341.129Z" transform="translate(-2223.976 -6332.562)" fill="#ebebeb"/>
            <path id="Path_5086" data-name="Path 5086" d="M2226.248,6338.927s4.051-2.731,3.93-5.3c0,0,11.861,3.369,13.612.11l.662,7.649S2237.964,6343.443,2226.248,6338.927Z" transform="translate(-2224.894 -6330.634)" fill="#ffac00"/>
            <path id="Path_5087" data-name="Path 5087" d="M2224.754,6323.156s4.05-2.732,3.93-5.3c0,0,11.861,3.369,13.612.11l.662,7.649S2236.47,6327.672,2224.754,6323.156Z" transform="translate(-2223.586 -6316.837)" fill="#ebebeb"/>
            <path id="Path_5088" data-name="Path 5088" d="M2222.631,6320.1s4.05-2.731,3.93-5.3c0,0,11.861,3.369,13.612.11l.662,7.649S2234.347,6324.612,2222.631,6320.1Z" transform="translate(-2221.729 -6314.159)" fill="#ebebeb"/>
            <path id="Path_5089" data-name="Path 5089" d="M2227.333,6318.824s4.051-2.731,3.93-5.3c0,0,11.861,3.369,13.612.111l.662,7.648S2239.049,6323.34,2227.333,6318.824Z" transform="translate(-2225.843 -6313.048)" fill="#ebebeb"/>
            <path id="Path_5090" data-name="Path 5090" d="M2232.406,6317.2s4.05-2.731,3.93-5.3c0,0,11.861,3.369,13.612.11l.662,7.648S2244.122,6321.715,2232.406,6317.2Z" transform="translate(-2230.28 -6311.626)" fill="#fff"/>
            <path id="Path_5091" data-name="Path 5091" d="M2233.455,6315s4.051-2.731,3.93-5.3c0,0,11.861,3.369,13.612.111l.662,7.649S2245.171,6319.514,2233.455,6315Z" transform="translate(-2231.198 -6309.7)" fill="#9ea9fc"/>
          </g>
          <g id="Group_19030" data-name="Group 19030" transform="translate(72.954 15.034)">
            <path id="Path_5092" data-name="Path 5092" d="M2070.117,6339.317s3.572-3.333,3.05-5.849c0,0,12.242,1.466,13.46-2.027l1.855,7.451S2082.4,6341.94,2070.117,6339.317Z" transform="translate(-2069.794 -6327.163)" fill="#ebebeb"/>
            <path id="Path_5093" data-name="Path 5093" d="M2067.54,6336.628s3.571-3.333,3.05-5.849c0,0,12.243,1.466,13.46-2.027l1.854,7.451S2079.819,6339.25,2067.54,6336.628Z" transform="translate(-2067.54 -6324.811)" fill="#ebebeb"/>
            <path id="Path_5094" data-name="Path 5094" d="M2071.985,6334.636s3.571-3.333,3.05-5.849c0,0,12.242,1.466,13.46-2.027l1.854,7.451S2084.264,6337.257,2071.985,6334.636Z" transform="translate(-2071.429 -6323.067)" fill="#ebebeb"/>
            <path id="Path_5095" data-name="Path 5095" d="M2076.739,6332.235s3.571-3.333,3.05-5.849c0,0,12.242,1.466,13.46-2.027l1.854,7.45S2089.018,6334.857,2076.739,6332.235Z" transform="translate(-2075.587 -6320.967)" fill="#ebebeb"/>
            <path id="Path_5096" data-name="Path 5096" d="M2077.43,6329.9s3.571-3.333,3.05-5.848c0,0,12.242,1.465,13.46-2.027l1.854,7.45S2089.709,6332.518,2077.43,6329.9Z" transform="translate(-2076.192 -6318.921)" fill="#fff"/>
            <path id="Path_5097" data-name="Path 5097" d="M2073.479,6314.553s3.572-3.333,3.05-5.85c0,0,12.243,1.467,13.46-2.027l1.854,7.451S2085.758,6317.175,2073.479,6314.553Z" transform="translate(-2072.736 -6305.498)" fill="#ebebeb"/>
            <path id="Path_5098" data-name="Path 5098" d="M2070.9,6311.864s3.571-3.333,3.05-5.848c0,0,12.242,1.466,13.46-2.028l1.854,7.451S2083.183,6314.486,2070.9,6311.864Z" transform="translate(-2070.483 -6303.146)" fill="#ebebeb"/>
            <path id="Path_5099" data-name="Path 5099" d="M2075.347,6309.871s3.572-3.333,3.05-5.849c0,0,12.242,1.466,13.46-2.026l1.854,7.45S2087.626,6312.493,2075.347,6309.871Z" transform="translate(-2074.37 -6301.403)" fill="#ebebeb"/>
            <path id="Path_5100" data-name="Path 5100" d="M2080.1,6307.47s3.572-3.333,3.05-5.849c0,0,12.243,1.466,13.461-2.027l1.854,7.451S2092.381,6310.092,2080.1,6307.47Z" transform="translate(-2078.53 -6299.301)" fill="#fff"/>
            <path id="Path_5101" data-name="Path 5101" d="M2080.793,6305.13s3.572-3.333,3.05-5.848c0,0,12.243,1.466,13.46-2.027l1.855,7.451S2093.073,6307.753,2080.793,6305.13Z" transform="translate(-2079.135 -6297.255)" fill="#fc8c99"/>
          </g>
          <g id="Group_19031" data-name="Group 19031" transform="translate(70.696 10.38)">
            <path id="Path_5102" data-name="Path 5102" d="M2052.08,6302.134s3.572-3.333,3.05-5.847c0,0,12.243,1.465,13.46-2.028l1.854,7.45S2064.36,6304.756,2052.08,6302.134Z" transform="translate(-2051.757 -6289.98)" fill="#ebebeb"/>
            <path id="Path_5103" data-name="Path 5103" d="M2049.5,6299.445s3.572-3.333,3.05-5.848c0,0,12.242,1.465,13.46-2.027l1.854,7.45S2061.782,6302.067,2049.5,6299.445Z" transform="translate(-2049.503 -6287.627)" fill="#ebebeb"/>
            <path id="Path_5104" data-name="Path 5104" d="M2053.948,6297.452s3.572-3.333,3.05-5.848c0,0,12.242,1.466,13.46-2.027l1.855,7.45S2066.227,6300.074,2053.948,6297.452Z" transform="translate(-2053.392 -6285.884)" fill="#ebebeb"/>
            <path id="Path_5105" data-name="Path 5105" d="M2058.7,6295.051s3.571-3.333,3.05-5.848c0,0,12.242,1.466,13.46-2.027l1.854,7.45S2070.982,6297.673,2058.7,6295.051Z" transform="translate(-2057.551 -6283.783)" fill="#ebebeb"/>
            <path id="Path_5106" data-name="Path 5106" d="M2059.393,6292.711s3.572-3.333,3.05-5.848c0,0,12.242,1.465,13.46-2.027l1.854,7.451S2071.673,6295.333,2059.393,6292.711Z" transform="translate(-2058.156 -6281.737)" fill="#fff"/>
            <path id="Path_5107" data-name="Path 5107" d="M2055.443,6277.369s3.571-3.333,3.05-5.848c0,0,12.242,1.465,13.46-2.027l1.854,7.45S2067.722,6279.992,2055.443,6277.369Z" transform="translate(-2054.7 -6268.315)" fill="#ebebeb"/>
            <path id="Path_5108" data-name="Path 5108" d="M2052.866,6274.681s3.572-3.333,3.05-5.849c0,0,12.242,1.466,13.46-2.027l1.854,7.451S2065.146,6277.3,2052.866,6274.681Z" transform="translate(-2052.445 -6265.962)" fill="#ebebeb"/>
            <path id="Path_5109" data-name="Path 5109" d="M2057.311,6272.688s3.571-3.333,3.05-5.848c0,0,12.242,1.466,13.46-2.027l1.854,7.45S2069.59,6275.31,2057.311,6272.688Z" transform="translate(-2056.334 -6264.219)" fill="#ebebeb"/>
            <path id="Path_5110" data-name="Path 5110" d="M2062.065,6270.287s3.572-3.333,3.05-5.848c0,0,12.242,1.466,13.46-2.027l1.854,7.45S2074.344,6272.909,2062.065,6270.287Z" transform="translate(-2060.493 -6262.119)" fill="#fff"/>
            <path id="Path_5111" data-name="Path 5111" d="M2062.756,6267.947s3.572-3.333,3.05-5.849c0,0,12.242,1.466,13.46-2.026l1.854,7.45S2075.035,6270.569,2062.756,6267.947Z" transform="translate(-2061.097 -6260.072)" fill="#fff4ba"/>
          </g>
          <g id="Group_19043" data-name="Group 19043" transform="translate(1.859)">
            <g id="Group_19036" data-name="Group 19036" transform="translate(20.204 1.258)">
              <g id="Group_19032" data-name="Group 19032" transform="translate(0 0)">
                <rect id="Rectangle_6371" data-name="Rectangle 6371" width="5.694" height="24.355" transform="matrix(0.984, -0.176, 0.176, 0.984, 0, 1)" fill="#ffb2b0"/>
              </g>
              <g id="Group_19033" data-name="Group 19033" transform="translate(1.938 2.937)">
                <rect id="Rectangle_6372" data-name="Rectangle 6372" width="2.727" height="1.417" transform="translate(0 0.479) rotate(-10.122)" fill="#fc8c99"/>
              </g>
              <g id="Group_19034" data-name="Group 19034" transform="translate(2.543 6.325)">
                <rect id="Rectangle_6373" data-name="Rectangle 6373" width="2.727" height="1.417" transform="translate(0 0.479) rotate(-10.12)" fill="#fc8c99"/>
              </g>
              <g id="Group_19035" data-name="Group 19035" transform="translate(3.147 9.713)">
                <rect id="Rectangle_6374" data-name="Rectangle 6374" width="2.727" height="1.417" transform="translate(0 0.479) rotate(-10.122)" fill="#fc8c99"/>
              </g>
            </g>
            <g id="Group_19037" data-name="Group 19037" transform="translate(13.383)">
              <rect id="Rectangle_6375" data-name="Rectangle 6375" width="7.117" height="26.255" fill="#495bd9"/>
            </g>
            <g id="Group_19042" data-name="Group 19042" transform="translate(26.187 1.623)">
              <g id="Group_19038" data-name="Group 19038" transform="translate(0 0)">
                <rect id="Rectangle_6376" data-name="Rectangle 6376" width="3.729" height="24.355" transform="translate(0 0.655) rotate(-10.122)" fill="#ebebeb"/>
              </g>
              <g id="Group_19039" data-name="Group 19039" transform="translate(1.435 2.847)">
                <rect id="Rectangle_6377" data-name="Rectangle 6377" width="1.786" height="1.417" transform="matrix(0.984, -0.176, 0.176, 0.984, 0, 0.313)" fill="#ebebeb"/>
              </g>
              <g id="Group_19040" data-name="Group 19040" transform="translate(2.039 6.235)">
                <rect id="Rectangle_6378" data-name="Rectangle 6378" width="1.786" height="1.417" transform="translate(0 0.313) rotate(-10.108)" fill="#ebebeb"/>
              </g>
              <g id="Group_19041" data-name="Group 19041" transform="translate(2.644 9.623)">
                <rect id="Rectangle_6379" data-name="Rectangle 6379" width="1.786" height="1.417" transform="matrix(0.984, -0.176, 0.176, 0.984, 0, 0.313)" fill="#ebebeb"/>
              </g>
            </g>
            <rect id="Rectangle_6380" data-name="Rectangle 6380" width="44.284" height="0.927" transform="translate(0 26.267)" fill="#cfd0d8"/>
            <text id="manual" transform="translate(18.571 25.339) rotate(-90)" fill="#7b88ac" font-size="5" font-family="TrebuchetMS-Bold, Trebuchet MS" font-weight="700"><tspan x="0" y="0">manual</tspan></text>
          </g>
        </g>
      </g>
    </g>
  </g>
</svg>
