<svg xmlns="http://www.w3.org/2000/svg" width="544" height="361.5" viewBox="0 0 544 361.5"><g transform="translate(-407.24 -222.899)"><g transform="translate(407.24 222.899)"><g transform="translate(0)"><g transform="translate(0)"><g transform="translate(0.482)"><g transform="translate(0.111)"><path d="M951.272,236.375h.644V223.693H408.509V488.741H951.266V462.118h.005Z" transform="translate(-408.509 -223.322)" fill="#fff"/><rect width="542.814" height="0.741" transform="translate(0 265.049)" fill="#a0bacb"/><rect width="543.407" height="0.741" fill="#7b88ac"/></g><g transform="translate(0 54.158)"><path d="M489.523,339.8v-.194H482.44v.194H409.224V501.393H559.582V339.8Zm63.834,5.189v35.533H489.523V344.989ZM482.44,386.654v67.886H415.449V386.654Zm7.083,67.886V386.654h63.834v67.886ZM482.44,344.989v35.533H415.449V344.989ZM415.449,460.671H482.44V496.2H415.449ZM489.523,496.2V460.671h63.834V496.2Z" transform="translate(-408.779 -339.235)" fill="#ebebeb"/><path d="M559.519,501.341H408.272V339.007h73.216v-.194h7.972v.194h70.059ZM409.162,500.6H558.63V339.748H488.571v-.194h-6.194v.194H409.162Zm144.133-4.447H488.571V459.878h64.723Zm-63.834-.741H552.4V460.619H489.461Zm-7.083.741H414.5V459.878h67.88Zm-66.991-.741h66.1V460.619h-66.1Zm137.908-40.923H488.571V385.861h64.723Zm-63.834-.741H552.4V386.6H489.461Zm-7.083.741H414.5V385.861h67.88Zm-66.991-.741h66.1V386.6h-66.1ZM553.294,380.47H488.571V344.2h64.723Zm-63.834-.741H552.4V344.937H489.461Zm-7.083.741H414.5V344.2h67.88Zm-66.991-.741h66.1V344.937h-66.1Z" transform="translate(-408.272 -338.813)" fill="#ebebeb"/></g><g transform="translate(225.196 53.202)"><path d="M908.6,337.754v-.194h-6.5v.194H834.943V499.347H972.855V337.754Zm58.55,5.189v35.533H908.6V342.943ZM902.1,384.608v67.886H840.653V384.608Zm6.5,67.886V384.608h58.55v67.886Zm-6.5-109.551v35.533H840.653V342.943ZM840.653,458.625H902.1v35.534H840.653ZM908.6,494.158V458.625h58.55v35.534Z" transform="translate(-834.535 -337.189)" fill="#ebebeb"/><path d="M972.8,499.294H834.07V336.96h67.156v-.194h7.312v.194H972.8Zm-137.912-.741h137.1V337.7h-64.26v-.194h-5.681v.194H834.886Zm132.2-4.448H907.723V457.831h59.365Zm-58.55-.741h57.734V458.573H908.538Zm-6.5.741H839.78V457.831h62.261Zm-61.446-.741h60.631V458.573H840.6Zm126.493-40.924H907.723V383.814h59.365Zm-58.55-.741h57.734V384.555H908.538Zm-6.5.741H839.78V383.814h62.261ZM840.6,451.7h60.631V384.555H840.6Zm126.493-73.276H907.723V342.149h59.365Zm-58.55-.741h57.734V342.89H908.538Zm-6.5.741H839.78V342.149h62.261Zm-61.446-.741h60.631V342.89H840.6Z" transform="translate(-834.07 -336.766)" fill="#ebebeb"/></g><g transform="translate(424.244 54.158)"><path d="M1334.474,496.2h-37.942V460.671h37.942v-6.132h-37.942V386.654h37.942v-6.131h-37.942V344.989h37.942V339.8h-37.942v-.194h-7.083v.194h-73.216V501.393h118.241Zm-45.026,0h-66.991V460.671h66.991Zm0-41.665h-66.991V386.654h66.991Zm0-74.017h-66.991V344.989h66.991Z" transform="translate(-1215.789 -339.235)" fill="#ebebeb"/><path d="M1387.144,634.2h38.387v-.741h-37.5V598.669h37.5v-.741h-38.387Z" transform="translate(-1306.846 -476.862)" fill="#ebebeb"/><path d="M1387.144,508.136h38.387v-.741h-37.5V440.25h37.5v-.741h-38.387Z" transform="translate(-1306.846 -392.461)" fill="#ebebeb"/><path d="M1387.144,386.608h38.387v-.741h-37.5V351.075h37.5v-.741h-38.387Z" transform="translate(-1306.846 -344.951)" fill="#ebebeb"/><path d="M1296.485,350.334H1228.6v36.274h67.88Zm-.89,35.533h-66.1V351.075h66.1Z" transform="translate(-1222.38 -344.951)" fill="#ebebeb"/><path d="M1333.968,500.6h-117.8V339.748h73.215v-.194h6.194v.194h38.387v-.741h-37.5v-.194H1288.5v.194h-73.216V501.341h118.686Z" transform="translate(-1215.282 -338.813)" fill="#ebebeb"/><path d="M1228.6,634.2h67.88V597.928H1228.6Zm.89-35.534h66.1v34.792h-66.1Z" transform="translate(-1222.38 -476.863)" fill="#ebebeb"/><path d="M1296.485,439.509H1228.6v68.627h67.88Zm-.89,67.886h-66.1V440.251h66.1Z" transform="translate(-1222.38 -392.461)" fill="#ebebeb"/></g></g><g transform="translate(0 233.51)"><path d="M950.647,723.353H407.889v90.939h-.649v36.736h543.4v-123.8h.005Z" transform="translate(-407.24 -723.038)" fill="#f9f9f9"/><rect width="541.782" height="0.531" transform="translate(1.773 127.258)" fill="#f9f9f9"/><rect width="542.819" height="0.531" transform="translate(0.593)" fill="#f9f9f9"/></g><g transform="translate(30.089 4.673)"><path d="M1135.25,318.313V232.9h-1.9v85.413c-5.924.435-10.582,4.88-10.582,10.31,0,5.717,5.163,10.353,11.532,10.353s11.532-4.635,11.532-10.353C1145.831,323.193,1141.172,318.748,1135.25,318.313Z" transform="translate(-781.978 -232.9)" fill="#c3e8e6"/><path d="M484.119,332.753V247.34h-1.9v85.413c-5.924.435-10.582,4.88-10.582,10.31,0,5.718,5.163,10.353,11.532,10.353s11.532-4.635,11.532-10.353C494.7,337.633,490.043,333.188,484.119,332.753Z" transform="translate(-471.638 -240.593)" fill="#c3e8e6"/><path d="M712.369,323.958v-62.1h-1.381v62.1c-4.307.316-7.693,3.548-7.693,7.5,0,4.157,3.753,7.527,8.383,7.527s8.384-3.37,8.384-7.527C720.062,327.506,716.675,324.273,712.369,323.958Z" transform="translate(-582.255 -248.329)" fill="#c3e8e6"/><path d="M1334.493,323.958v-62.1h-1.381v62.1c-4.306.316-7.693,3.548-7.693,7.5,0,4.157,3.754,7.527,8.384,7.527s8.384-3.37,8.384-7.527C1342.186,327.506,1338.8,324.273,1334.493,323.958Z" transform="translate(-879.322 -248.329)" fill="#c3e8e6"/></g><g transform="translate(16.778 114.632)"><g transform="translate(0 22.239)"><rect width="48.795" height="1.743" transform="translate(0.445 0.371)" fill="#ebebeb"/><path d="M492.834,518.328H443.149v-2.484h49.685Zm-48.8-.741h47.906v-1H444.039Z" transform="translate(-443.149 -515.844)" fill="#ebebeb"/><g transform="translate(0 26.291)"><rect width="48.795" height="1.743" transform="translate(0.445 0.371)" fill="#ebebeb"/><path d="M492.834,574.6H443.149v-2.485h49.685Zm-48.8-.741h47.906v-1H444.039Z" transform="translate(-443.149 -572.114)" fill="#ebebeb"/></g><g transform="translate(0 52.582)"><rect width="48.795" height="1.743" transform="translate(0.445 0.37)" fill="#ebebeb"/><path d="M492.834,630.869H443.149v-2.484h49.685Zm-48.8-.741h47.906v-1H444.039Z" transform="translate(-443.149 -628.385)" fill="#ebebeb"/></g><g transform="translate(0 0.581)"><g transform="translate(0 78.872)"><rect width="48.795" height="1.743" transform="translate(0.445 0.371)" fill="#ebebeb"/><path d="M492.834,688.382H443.149V685.9h49.685Zm-48.8-.741h47.906v-1H444.039Z" transform="translate(-443.149 -685.898)" fill="#ebebeb"/></g><g transform="translate(0 104.035)"><rect width="48.795" height="1.743" transform="translate(0.445 0.371)" fill="#ebebeb"/><path d="M492.834,742.238H443.149v-2.484h49.685Zm-48.8-.741h47.906v-1H444.039Z" transform="translate(-443.149 -739.754)" fill="#ebebeb"/></g><rect width="2.614" height="126.474" transform="translate(0.445 0.37)" fill="#ebebeb"/><path d="M446.652,644.3h-3.5V517.088h3.5Zm-2.614-.741h1.725V517.829h-1.725Z" transform="translate(-443.149 -517.088)" fill="#ebebeb"/><g transform="translate(46.182)"><rect width="2.614" height="126.474" transform="translate(0.445 0.37)" fill="#ebebeb"/><path d="M545.494,644.3h-3.5V517.088h3.5Zm-2.614-.741h1.725V517.829H542.88Z" transform="translate(-541.991 -517.088)" fill="#ebebeb"/></g></g></g><g transform="translate(8.746 28.436)"><rect width="5.112" height="20.093" transform="translate(0.445 0.371)" fill="#ebebeb"/><path d="M467.87,549.943h-6V529.108h6Zm-5.112-.741h4.223V529.849h-4.223Z" transform="translate(-461.869 -529.108)" fill="#ebebeb"/><path d="M468.055,538.145a1.713,1.713,0,1,1-1.685-1.4A1.564,1.564,0,0,1,468.055,538.145Z" transform="translate(-463.37 -533.175)" fill="#ebebeb"/><g transform="translate(6.009)"><rect width="5.112" height="20.093" transform="translate(0.445 0.371)" fill="#ebebeb"/><path d="M480.73,549.943h-6V529.108h6Zm-5.112-.741h4.223V529.849h-4.223Z" transform="translate(-474.729 -529.108)" fill="#ebebeb"/><path d="M480.915,538.145a1.713,1.713,0,1,1-1.685-1.4A1.564,1.564,0,0,1,480.915,538.145Z" transform="translate(-476.23 -533.175)" fill="#ebebeb"/></g><g transform="translate(12.017)"><rect width="5.112" height="20.093" transform="translate(0.445 0.371)" fill="#ebebeb"/><path d="M493.59,549.943h-6V529.108h6Zm-5.112-.741H492.7V529.849h-4.223Z" transform="translate(-487.589 -529.108)" fill="#ebebeb"/><path d="M493.775,538.145a1.713,1.713,0,1,1-1.685-1.4A1.564,1.564,0,0,1,493.775,538.145Z" transform="translate(-489.09 -533.175)" fill="#ebebeb"/></g><g transform="translate(18.026)"><rect width="5.112" height="20.093" transform="translate(0.445 0.371)" fill="#ebebeb"/><path d="M506.45,549.943h-6V529.108h6Zm-5.112-.741h4.223V529.849h-4.223Z" transform="translate(-500.449 -529.108)" fill="#ebebeb"/><path d="M506.635,538.145a1.713,1.713,0,1,1-1.685-1.4A1.563,1.563,0,0,1,506.635,538.145Z" transform="translate(-501.95 -533.175)" fill="#ebebeb"/></g><g transform="translate(24.034)"><rect width="5.112" height="20.093" transform="translate(0.445 0.371)" fill="#ebebeb"/><path d="M519.311,549.943h-6V529.108h6ZM514.2,549.2h4.223V529.849H514.2Z" transform="translate(-513.309 -529.108)" fill="#ebebeb"/><path d="M519.5,538.145a1.713,1.713,0,1,1-1.685-1.4A1.563,1.563,0,0,1,519.5,538.145Z" transform="translate(-514.81 -533.175)" fill="#ebebeb"/></g></g><path d="M464.911,655.172a8.328,8.328,0,0,1,.8-3.692h-6.127a8.329,8.329,0,0,1,.8,3.692c0,2.234-2.685,6.359-2.685,9.108s2.846,3.652,4.953,3.652,4.953-.9,4.953-3.652S464.911,657.406,464.911,655.172Z" transform="translate(-450.896 -565.868)" fill="#ebebeb"/><g transform="translate(26.008 57.161)"><g transform="translate(0.759)"><path d="M515.048,600.569c1.653-3.232-2.021-3.172-1.741-4.021.525-1.593,2.506.138,3.309-.664s-1.982-3.3-.524-4.167.948,2.064,2.208,1.856.51-3.3,2-2.958c1.118.26-.21,2.194-.087,3.1s2.427-.413,2.467.877-2.748.725-3.077,1.706,3,1.183,1.832,2.013-3.365-.164-3.944.7S514.347,601.941,515.048,600.569Z" transform="translate(-507.286 -590.587)" fill="#ebebeb"/><path d="M507.182,606.282c-1.553-3.266-4.114-1.07-4.631-1.838-.97-1.44,1.9-1.371,1.792-2.412s-4.195-1.184-3.889-2.655,2.415.911,3.136.025-2.425-2.647-1.076-3.273c1.014-.471,1.7,1.683,2.553,2.254s1.376-1.717,2.494-.823-1.341,2.126-.747,3.016,3.13-.917,3,.357-2.53,1.857-2.214,2.81S507.842,607.669,507.182,606.282Z" transform="translate(-500.438 -593.504)" fill="#ebebeb"/></g><path d="M510.271,608.244H501.79s-2.977,2.131-2.977,4.648,1.855,5.132,7.218,5.132,7.218-2.615,7.218-5.132S510.271,608.244,510.271,608.244Z" transform="translate(-498.813 -599.994)" fill="#ebebeb"/></g><g transform="translate(28.088 90.588)"><rect width="7.827" height="8.86" transform="translate(2.422 2.615)" fill="#ebebeb"/><ellipse cx="6.177" cy="2.615" rx="6.177" ry="2.615" fill="#ebebeb"/></g><g transform="translate(22.637 14.102)"><rect width="5.804" height="6.569" transform="translate(1.795 1.938)" fill="#ebebeb"/><path d="M500.758,500.367c0,1.07-2.051,1.938-4.58,1.938s-4.58-.868-4.58-1.938,2.051-1.938,4.58-1.938S500.758,499.3,500.758,500.367Z" transform="translate(-491.598 -498.428)" fill="#ebebeb"/></g><g transform="translate(3.233)"><path d="M471.675,487.014s-2.008-5.81,6.879-12.346c0,0-7.609,6.972-5.111,12.346Z" transform="translate(-461.476 -471.667)" fill="#ebebeb"/><path d="M469.776,484.912s-4.6-6.472,3.641-16.666c0,0-6.541,10.385-1.511,16.2Z" transform="translate(-459.885 -468.246)" fill="#ebebeb"/><path d="M460.079,487.014s2.008-5.81-6.88-12.346c0,0,7.609,6.972,5.111,12.346Z" transform="translate(-451.736 -471.667)" fill="#ebebeb"/><path d="M464.987,485.142s3.7-5.2-2.928-13.393c0,0,5.258,8.345,1.217,13.022Z" transform="translate(-456.456 -470.112)" fill="#ebebeb"/><path d="M471.046,492.789s-1.735-5.871,7.45-12.114c0,0-7.929,6.72-5.683,12.172Z" transform="translate(-461.175 -474.868)" fill="#ebebeb"/><path d="M457.518,491.264s1.736-5.871-7.45-12.114c0,0,7.929,6.721,5.684,12.172Z" transform="translate(-450.068 -474.055)" fill="#ebebeb"/><path d="M461.44,496.74h-6.009l2.757,9.3h6.5l2.757-9.3Z" transform="translate(-452.925 -483.427)" fill="#ebebeb"/></g><g transform="translate(4.663 67.928)"><g transform="translate(0 0)"><g transform="translate(0.444 4.918)"><rect width="2.454" height="18.391" transform="translate(0 2.454) rotate(-90)" fill="#ebebeb"/></g><g transform="translate(0 2.084)"><rect width="2.454" height="18.391" transform="translate(0.444 2.825) rotate(-90)" fill="#ebebeb"/><path d="M472.41,621.288H453.129v-3.2H472.41Zm-18.391-.741h17.5v-1.713h-17.5Z" transform="translate(-453.129 -618.092)" fill="#ebebeb"/></g><g transform="translate(0.444)"><rect width="2.455" height="18.391" transform="translate(0 2.455) rotate(-90)" fill="#ebebeb"/></g></g><g transform="translate(11.276 0)"><rect width="0.132" height="2.455" fill="#ebebeb"/></g><g transform="translate(12.757 0)"><rect width="0.132" height="2.455" fill="#ebebeb"/></g><g transform="translate(14.238 0)"><rect width="0.132" height="2.455" fill="#ebebeb"/></g><g transform="translate(15.72 0)"><rect width="0.132" height="2.455" fill="#ebebeb"/></g><rect width="8.655" height="0.404" transform="translate(9.28 5.337)" fill="#ebebeb"/><rect width="8.655" height="0.404" transform="translate(9.28 5.943)" fill="#ebebeb"/><rect width="8.655" height="0.404" transform="translate(9.28 6.55)" fill="#ebebeb"/></g></g><g transform="translate(451.342 103.674)"><g transform="translate(0 22.239)"><rect width="48.795" height="1.743" transform="translate(0.445 0.371)" fill="#ebebeb"/><path d="M1321.933,494.874h-49.685V492.39h49.685Zm-48.8-.741h47.906v-1h-47.906Z" transform="translate(-1272.248 -492.39)" fill="#ebebeb"/><g transform="translate(0 26.291)"><rect width="48.795" height="1.743" transform="translate(0.445 0.37)" fill="#ebebeb"/><path d="M1321.933,551.145h-49.685v-2.484h49.685Zm-48.8-.741h47.906v-1h-47.906Z" transform="translate(-1272.248 -548.661)" fill="#ebebeb"/></g><g transform="translate(0 52.582)"><rect width="48.795" height="1.743" transform="translate(0.445 0.371)" fill="#ebebeb"/><path d="M1321.933,607.415h-49.685v-2.484h49.685Zm-48.8-.741h47.906v-1h-47.906Z" transform="translate(-1272.248 -604.931)" fill="#ebebeb"/></g><g transform="translate(0 0.581)"><g transform="translate(0 78.872)"><rect width="48.795" height="1.743" transform="translate(0.445 0.371)" fill="#ebebeb"/><path d="M1321.933,664.928h-49.685v-2.484h49.685Zm-48.8-.741h47.906v-1h-47.906Z" transform="translate(-1272.248 -662.444)" fill="#ebebeb"/></g><g transform="translate(0 104.036)"><rect width="48.795" height="1.743" transform="translate(0.445 0.37)" fill="#ebebeb"/><path d="M1321.933,718.785h-49.685V716.3h49.685Zm-48.8-.741h47.906v-1h-47.906Z" transform="translate(-1272.248 -716.301)" fill="#ebebeb"/></g><rect width="2.614" height="126.474" transform="translate(0.445 0.371)" fill="#ebebeb"/><path d="M1275.751,620.849h-3.5V493.634h3.5Zm-2.614-.742h1.725V494.375h-1.725Z" transform="translate(-1272.248 -493.634)" fill="#ebebeb"/><g transform="translate(46.182)"><rect width="2.614" height="126.474" transform="translate(0.445 0.371)" fill="#ebebeb"/><path d="M1374.593,620.849h-3.5V493.634h3.5Zm-2.614-.742h1.725V494.375h-1.725Z" transform="translate(-1371.09 -493.634)" fill="#ebebeb"/></g></g></g><g transform="translate(8.746 28.437)"><rect width="5.112" height="20.093" transform="translate(0.445 0.371)" fill="#ebebeb"/><path d="M1296.969,526.49h-6V505.655h6Zm-5.111-.741h4.222V506.4h-4.222Z" transform="translate(-1290.968 -505.655)" fill="#ebebeb"/><path d="M1297.154,514.692a1.713,1.713,0,1,1-1.685-1.4A1.564,1.564,0,0,1,1297.154,514.692Z" transform="translate(-1292.469 -509.722)" fill="#ebebeb"/><g transform="translate(6.009)"><rect width="5.112" height="20.093" transform="translate(0.445 0.371)" fill="#ebebeb"/><path d="M1309.829,526.49h-6V505.655h6Zm-5.112-.741h4.223V506.4h-4.223Z" transform="translate(-1303.828 -505.655)" fill="#ebebeb"/><path d="M1310.014,514.692a1.713,1.713,0,1,1-1.685-1.4A1.563,1.563,0,0,1,1310.014,514.692Z" transform="translate(-1305.329 -509.722)" fill="#ebebeb"/></g><g transform="translate(12.017)"><rect width="5.112" height="20.093" transform="translate(0.445 0.371)" fill="#ebebeb"/><path d="M1322.689,526.49h-6V505.655h6Zm-5.111-.741h4.222V506.4h-4.222Z" transform="translate(-1316.688 -505.655)" fill="#ebebeb"/><path d="M1322.874,514.692a1.713,1.713,0,1,1-1.685-1.4A1.563,1.563,0,0,1,1322.874,514.692Z" transform="translate(-1318.189 -509.722)" fill="#ebebeb"/></g><g transform="translate(18.026)"><rect width="5.112" height="20.093" transform="translate(0.445 0.371)" fill="#ebebeb"/><path d="M1335.549,526.49h-6V505.655h6Zm-5.112-.741h4.223V506.4h-4.223Z" transform="translate(-1329.548 -505.655)" fill="#ebebeb"/><path d="M1335.734,514.692a1.713,1.713,0,1,1-1.685-1.4A1.563,1.563,0,0,1,1335.734,514.692Z" transform="translate(-1331.049 -509.722)" fill="#ebebeb"/></g><g transform="translate(24.034)"><rect width="5.112" height="20.093" transform="translate(0.445 0.371)" fill="#ebebeb"/><path d="M1348.409,526.49h-6V505.655h6Zm-5.112-.741h4.222V506.4H1343.3Z" transform="translate(-1342.408 -505.655)" fill="#ebebeb"/><path d="M1348.594,514.692a1.713,1.713,0,1,1-1.685-1.4A1.564,1.564,0,0,1,1348.594,514.692Z" transform="translate(-1343.909 -509.722)" fill="#ebebeb"/></g></g><path d="M1294.011,631.718a8.332,8.332,0,0,1,.8-3.692h-6.127a8.331,8.331,0,0,1,.8,3.692c0,2.234-2.685,6.359-2.685,9.108s2.846,3.652,4.953,3.652,4.953-.9,4.953-3.652S1294.011,633.952,1294.011,631.718Z" transform="translate(-1279.996 -542.414)" fill="#ebebeb"/><g transform="translate(26.008 57.162)"><g transform="translate(0.759)"><path d="M1344.147,577.115c1.653-3.232-2.021-3.172-1.741-4.021.526-1.593,2.506.138,3.309-.664s-1.982-3.3-.523-4.167.948,2.064,2.208,1.856.51-3.3,2-2.958c1.118.26-.21,2.195-.087,3.1s2.427-.414,2.467.877-2.748.725-3.077,1.706,3,1.184,1.832,2.014-3.366-.164-3.945.7S1343.446,578.488,1344.147,577.115Z" transform="translate(-1336.385 -567.134)" fill="#ebebeb"/><path d="M1336.282,582.828c-1.553-3.266-4.114-1.07-4.631-1.838-.971-1.44,1.9-1.371,1.792-2.412s-4.195-1.184-3.889-2.655,2.415.912,3.136.024-2.425-2.647-1.077-3.273c1.014-.471,1.7,1.683,2.553,2.253s1.376-1.717,2.494-.823-1.341,2.127-.747,3.017,3.13-.917,3,.357-2.531,1.857-2.214,2.809S1336.941,584.215,1336.282,582.828Z" transform="translate(-1329.537 -570.051)" fill="#ebebeb"/></g><path d="M1339.37,584.791h-8.481s-2.977,2.13-2.977,4.648,1.855,5.132,7.218,5.132,7.218-2.615,7.218-5.132S1339.37,584.791,1339.37,584.791Z" transform="translate(-1327.912 -576.541)" fill="#ebebeb"/></g><g transform="translate(28.088 90.588)"><rect width="7.827" height="8.86" transform="translate(2.422 2.615)" fill="#ebebeb"/><ellipse cx="6.177" cy="2.615" rx="6.177" ry="2.615" fill="#ebebeb"/></g><g transform="translate(22.637 14.102)"><rect width="5.804" height="6.569" transform="translate(1.796 1.939)" fill="#ebebeb"/><path d="M1329.857,476.912c0,1.071-2.051,1.939-4.58,1.939s-4.58-.868-4.58-1.939,2.051-1.938,4.58-1.938S1329.857,475.842,1329.857,476.912Z" transform="translate(-1320.697 -474.974)" fill="#ebebeb"/></g><g transform="translate(3.233)"><path d="M1300.774,463.561s-2.008-5.81,6.88-12.347c0,0-7.61,6.972-5.112,12.347Z" transform="translate(-1290.575 -448.213)" fill="#ebebeb"/><path d="M1298.875,461.458s-4.6-6.472,3.641-16.666c0,0-6.541,10.385-1.511,16.2Z" transform="translate(-1288.985 -444.792)" fill="#ebebeb"/><path d="M1289.178,463.561s2.008-5.81-6.88-12.347c0,0,7.61,6.972,5.112,12.347Z" transform="translate(-1280.835 -448.213)" fill="#ebebeb"/><path d="M1294.086,461.688s3.7-5.2-2.928-13.393c0,0,5.258,8.345,1.217,13.022Z" transform="translate(-1285.556 -446.658)" fill="#ebebeb"/><path d="M1300.146,469.336s-1.736-5.871,7.45-12.115c0,0-7.929,6.721-5.684,12.172Z" transform="translate(-1290.275 -451.414)" fill="#ebebeb"/><path d="M1286.618,467.811s1.735-5.871-7.45-12.114c0,0,7.929,6.72,5.683,12.171Z" transform="translate(-1279.168 -450.602)" fill="#ebebeb"/><path d="M1290.539,473.287h-6.009l2.757,9.3h6.5l2.757-9.3Z" transform="translate(-1282.025 -459.973)" fill="#ebebeb"/></g><g transform="translate(4.663 67.928)"><g transform="translate(0 0)"><g transform="translate(0.445 4.918)"><rect width="2.454" height="18.391" transform="translate(0 2.454) rotate(-90)" fill="#ebebeb"/></g><g transform="translate(0 2.084)"><rect width="2.454" height="18.391" transform="translate(0.445 2.825) rotate(-90)" fill="#ebebeb"/><path d="M1301.509,597.835h-19.281v-3.2h19.281Zm-18.391-.741h17.5V595.38h-17.5Z" transform="translate(-1282.228 -594.639)" fill="#ebebeb"/></g><g transform="translate(0.445)"><rect width="2.455" height="18.391" transform="translate(0 2.455) rotate(-90)" fill="#ebebeb"/></g></g><g transform="translate(11.276 0)"><rect width="0.132" height="2.455" fill="#ebebeb"/></g><g transform="translate(12.757 0)"><rect width="0.132" height="2.455" fill="#ebebeb"/></g><g transform="translate(14.238 0)"><rect width="0.132" height="2.455" fill="#ebebeb"/></g><g transform="translate(15.72 0)"><rect width="0.132" height="2.455" fill="#ebebeb"/></g><rect width="8.655" height="0.404" transform="translate(9.28 5.337)" fill="#ebebeb"/><rect width="8.655" height="0.404" transform="translate(9.28 5.943)" fill="#ebebeb"/><rect width="8.655" height="0.404" transform="translate(9.28 6.55)" fill="#ebebeb"/></g></g><g transform="translate(222.172 176.182)"><path d="M953.3,761.673H837.235c-2.216,0-3.813-1.805-3.2-3.615h0a3.3,3.3,0,0,1,3.2-2.046H953.3a3.3,3.3,0,0,1,3.2,2.046h0C957.117,759.868,955.519,761.673,953.3,761.673Z" transform="translate(-831.519 -683.109)" fill="#ebebeb" opacity="0.32"/><g transform="translate(0 25.082)"><rect width="2.245" height="47.555" transform="translate(1.339 0.266)" fill="#ebebeb"/><rect width="2.245" height="47.555" transform="translate(123.284 0.266)" fill="#ebebeb"/><path d="M955.925,658.905H829.611l.961-4.675H954.748Z" transform="translate(-829.233 -653.964)" fill="#ebebeb"/><path d="M955.886,658.867H828.8l1.07-5.206h124.7Zm-126.328-.531H955.1l-1.042-4.143H830.41Z" transform="translate(-828.802 -653.661)" fill="#ebebeb"/><g transform="translate(0.059 4.675)"><path d="M955.709,664.236h-126.1v48.809H831.7V667.439H953.84v45.605h2.085V664.236Z" transform="translate(-829.292 -663.97)" fill="#ebebeb"/><path d="M955.88,713.007h-2.722V667.4H831.651v45.605h-2.722v-49.34H955.88Zm-2.084-.531h1.447V664.2H829.566v48.278h1.447v-45.6H953.8Z" transform="translate(-828.929 -663.667)" fill="#ebebeb"/></g></g><g transform="translate(86.574)"><path d="M1055.616,601.945v17.481a2.292,2.292,0,0,1-2.5,1.967H1016.6a2.292,2.292,0,0,1-2.5-1.967V601.945a2.294,2.294,0,0,1,2.5-1.966h36.514A2.294,2.294,0,0,1,1055.616,601.945Z" transform="translate(-1014.096 -599.979)" fill="#ebebeb"/><path d="M1017.555,621.485a1.525,1.525,0,0,1-1.669-1.311V602.693a1.525,1.525,0,0,1,1.669-1.311h36.511a1.525,1.525,0,0,1,1.669,1.311v17.481a1.524,1.524,0,0,1-1.669,1.311Z" transform="translate(-1015.05 -600.727)" fill="#ebebeb"/><g transform="translate(1.352 1.045)"><path d="M1018.506,621.577a.762.762,0,0,1-.834-.655V603.441a.762.762,0,0,1,.834-.656h36.511a.762.762,0,0,1,.834.656v17.481a.762.762,0,0,1-.834.655Z" transform="translate(-1017.353 -602.519)" fill="#ebebeb"/><path d="M1054.654,621.54h-36.511a1.058,1.058,0,0,1-1.153-.921V603.137a1.058,1.058,0,0,1,1.153-.921h36.511a1.059,1.059,0,0,1,1.154.921v17.481A1.059,1.059,0,0,1,1054.654,621.54Zm-36.511-18.792a.467.467,0,0,0-.516.39v17.481a.467.467,0,0,0,.516.39h36.511a.467.467,0,0,0,.516-.39V603.137a.467.467,0,0,0-.516-.39Z" transform="translate(-1016.99 -602.216)" fill="#ebebeb"/></g><path d="M1057.842,635.03h-9.792l1.105-9.454h7.581Z" transform="translate(-1032.186 -613.616)" fill="#ebebeb"/><g transform="translate(15.826 11.192)"><path d="M1057.886,639.866h-9.18l1.441-15.364h6.3Z" transform="translate(-1048.362 -624.236)" fill="#ebebeb"/><path d="M1057.838,639.829h-9.869l1.491-15.9h6.887Zm-9.18-.532h8.491l-1.391-14.833h-5.708Z" transform="translate(-1047.969 -623.933)" fill="#ebebeb"/></g><g transform="translate(9.593 25.901)"><path d="M1057.009,658.332h-21.7c0-1.3,1.339-2.349,2.99-2.349h15.717c1.652,0,2.99,1.052,2.99,2.349Z" transform="translate(-1034.992 -655.718)" fill="#ebebeb"/><path d="M1056.964,658.295h-22.336v-.265c0-1.442,1.485-2.615,3.309-2.615h15.717c1.825,0,3.309,1.173,3.309,2.615Zm-21.677-.531H1056.3a2.538,2.538,0,0,0-2.65-1.818h-15.717A2.538,2.538,0,0,0,1035.287,657.764Z" transform="translate(-1034.628 -655.415)" fill="#ebebeb"/></g></g></g></g></g></g><g transform="translate(644.633 242.727)"><g transform="translate(98 1)"><rect width="221.173" height="62.012" rx="11.604" transform="translate(-26 -8)" fill="#fff" stroke="#231f20" stroke-miterlimit="10" stroke-width="0.25"/><path d="M1089.748,353.855l-16.878,38.46,30.82-38.46Z" transform="translate(-931.807 -299.84)" fill="#fff" stroke="#231f20" stroke-miterlimit="10" stroke-width="0.25"/></g></g><g transform="translate(461.315 416.815)"><g transform="translate(0 0)"><path d="M612.326,836.454l1.775.046-3.5-58.741-3.777.116-41.517-.584-.277,10.645.107,0-7.108,47.408,1.775.046,11.427-47.3,32.9.857Z" transform="translate(-541.651 -712.181)" fill="#7b88ac"/><path d="M561.566,644.353c-2.409-7.361-16.13-6.531-28.2-6.226-8.675.214-10.783,2.621-10.337,8.82l10.377,54.1c.422,6.182,7.532,10.582,15.77,9.759,8.255-.819,25.208-3.988,24.558-10.18Z" transform="translate(-522.978 -637.936)" fill="#7b88ac"/><path d="M587.685,853.042l1.458.038L585,798.9l9.471-8.118-27.161-.889-31.979-1.172-.108,8.881-7.8,54.2,1.182.031,12.5-54.076,37.744.984Z" transform="translate(-525.349 -718.268)" fill="#7b88ac"/><path d="M608.345,775.986a2.186,2.186,0,0,0-1.588-3.616l-33.028-1a28.029,28.029,0,0,0-8.829,1.414l-18.736,5.695c-.046.014-.094.03-.139.047-2.251.832-2.062,1.588.452,1.653l56.036,1.327a2.186,2.186,0,0,0,1.7-.755Z" transform="translate(-534.421 -709.026)" fill="#7b88ac"/></g></g><g transform="translate(635.079 518.385)"><g transform="translate(0 0)"><g transform="translate(9.248)"><path d="M871.33,877.77s-.765-5.151-1.112-6.284c-.448-1.464-.667-3.644.565-4.927s1.418-4.3,1.418-4.765.462-7.391,5.543-6.365c0,0,2.1.514,1.078,4.209,0,0-1.078,2.207.282,3.593a5.627,5.627,0,0,1,0,7.647c-2.541,3.079-1.818,4.207-1.411,5.389,1.851,5.39-2.088,10.34-2.515,11.661s-.941,3.489-.512,4.736l-1.495.028Z" transform="translate(-869.864 -855.325)" fill="#ebebeb"/></g><g transform="translate(12.943 5.216)"><path d="M878.179,898.837a.259.259,0,0,0,.046,0,.226.226,0,0,0,.176-.267c-.571-2.781.431-7.736.442-7.786.553-2.109.713-4.8-.2-11.675a26.385,26.385,0,0,1,.278-9.014,15.12,15.12,0,0,1,1.044-3.274.226.226,0,1,0-.4-.2,15.151,15.151,0,0,0-1.078,3.363,26.82,26.82,0,0,0-.289,9.189c.9,6.775.737,9.5.211,11.513-.045.218-1.034,5.107-.444,7.979A.226.226,0,0,0,878.179,898.837Z" transform="translate(-877.771 -866.489)" fill="#fff"/></g><g transform="translate(14.169 19.795)"><path d="M882.164,915.372s0-1.215,2.493-2.365a4.167,4.167,0,0,0,2.493-3c.639-2.429,2.429-1.789,3.58-1.086s3.764,0,3.768-3.644a2.418,2.418,0,0,1,.892-2.94c1.668-1.023,2.307-4.676-1.272-4.639s-6.952,1.8-10.42,6.94c-4.819,7.138-2.943,10.739-2.943,10.739Z" transform="translate(-880.396 -897.692)" fill="#ebebeb"/></g><g transform="translate(14.595 22.355)"><path d="M881.693,918.517a.225.225,0,0,0,.07-.011.23.23,0,0,0,.145-.284,5.461,5.461,0,0,1-.014-2.384.225.225,0,0,0,.017-.045c1.933-7.3,11.465-12.145,11.561-12.193a.226.226,0,0,0-.2-.4c-.1.049-9.792,4.982-11.79,12.46a5.34,5.34,0,0,0,0,2.705A.221.221,0,0,0,881.693,918.517Z" transform="translate(-881.307 -903.171)" fill="#fff"/></g><g transform="translate(0 8.975)"><path d="M860.758,902.926a4.447,4.447,0,0,1-2.1-4.465,3.126,3.126,0,0,0-2.772-3.747c-.616-.1-4.62-1.745-4-7.75,0,0,.206-3.85-.513-5.235s-2.515-5.543,0-6.826,4.26,1.026,5.184,3.387a13.108,13.108,0,0,0,1.334,3.387c.616.667,5.081,4.568,4.722,12.678l-.874,8.571Z" transform="translate(-850.07 -874.535)" fill="#ebebeb"/></g><g transform="translate(3.584 13.696)"><path d="M865.255,908.535a.226.226,0,0,0,.226-.217c.259-6.9-2.735-15.906-4.451-18.507a46.172,46.172,0,0,1-2.859-5.041.226.226,0,0,0-.409.193,46.891,46.891,0,0,0,2.89,5.1c1.688,2.558,4.633,11.428,4.376,18.242a.226.226,0,0,0,.217.234Z" transform="translate(-857.741 -884.64)" fill="#fff"/></g></g><path d="M874.42,948.194h-9.679L862.4,934.932h14.365Z" transform="translate(-856.638 -897.738)" fill="#ebebeb"/></g><g transform="translate(476.752 379.636)"><g transform="translate(20.567 51.305)"><g transform="translate(0 34.66)"><path d="M620.249,752.575c-2.278,1.726-5.712,2.605-6.121,1.591-.465-1.143,2.63-1.343,4.3-3.391,1.81-2.214,3.064-3.51,3.954-2.859S622.531,750.848,620.249,752.575Z" transform="translate(-607.519 -745.227)" fill="#0080af"/><path d="M630.034,747.084c-3.48-.439-10.914,3.964-11.677,1-.686-2.654,2.141-7.93,11.9-3.71Z" transform="translate(-609.745 -742.587)" fill="#0080af"/><path d="M621.323,743.015c1.506,4.609-4.116,6.423-6.017,6.586-2.091.177-4.193-3.01-3.731-4.616S620.745,741.254,621.323,743.015Z" transform="translate(-606.149 -742.352)" fill="#0080af"/><path d="M605.091,746.417c-2.441.194-3.761-.264-3.738-.918s1.42-.678,3.859-.876,5.49-1.053,5.468-.4S607.529,746.216,605.091,746.417Z" transform="translate(-600.738 -743.22)" fill="#0080af"/><path d="M604.929,752.356c-2.4.7-4.782.232-4.889-.4s2.246-.746,4.645-1.44,3.991-1.017,4.1-.383S607.327,751.661,604.929,752.356Z" transform="translate(-600.037 -746.315)" fill="#0080af"/><path d="M611.246,756.589c-2.423.6-3.911.383-4-.252s1.582-.727,4-1.323,4.128-.982,4.218-.345S613.67,755.991,611.246,756.589Z" transform="translate(-603.876 -748.739)" fill="#0080af"/></g><g transform="translate(15.215)"><path d="M688.127,710.184c3.6-1.573-19.35-42.6-25.824-42.008,0,0-9.415,7.827-4.8,23.269C657.5,691.444,673.6,716.532,688.127,710.184Z" transform="translate(-645.189 -668.169)" fill="#0080af"/><path d="M632.6,748.23l4.764,2.724L639.553,743l-5.38.16Z" transform="translate(-632.601 -708.038)" fill="#0080af"/><path d="M678.249,748.458a4.62,4.62,0,0,1-3.5,3.5c-5.174,1.163-18.225,2.75-37.372-4.143,0,0-.872-3.984,2.232-8.81,0,0,22.279-4.734,34.76-.991C674.373,738.017,679.691,741.976,678.249,748.458Z" transform="translate(-635.088 -704.615)" fill="#0080af"/><g transform="translate(2.187 22.494)"><path d="M649.965,717.094c-.079-.264-.144-.521-.215-.782,3.435,2.8,9.3,11.041,15.188,11.623-6.312-.27-19.49.286-22.855.438.033-.054.061-.107.1-.161a131.784,131.784,0,0,1,14.93-2.1A71.048,71.048,0,0,1,649.965,717.094Z" transform="translate(-639.839 -716.312)" fill="#0080af"/><path d="M666.435,764.5c-6.8.232-16.644-.674-29.046-5.139a6.8,6.8,0,0,1-.108-1.114A113.6,113.6,0,0,0,666.435,764.5Z" transform="translate(-637.281 -738.657)" fill="#0080af"/></g><path d="M648.752,750.691a1.243,1.243,0,1,1,1.308,1.176A1.244,1.244,0,0,1,648.752,750.691Z" transform="translate(-641.205 -711.437)" fill="#0080af"/></g></g><g transform="translate(15.943 29.5)"><path d="M668.794,660.235l-1.238.223-.876,2.894,2.512,1.5Z" transform="translate(-630.918 -642.137)" fill="#eaeaea"/><path d="M651.985,627.349,641.579,621.5l-3.3,17.75,15.1,7.128Z" transform="translate(-615.788 -621.5)" fill="#f7c371"/><path d="M658.3,751.1l-21.92,3.112L630.218,785.4,648.6,789.15Z" transform="translate(-611.492 -690.549)" fill="#eaeaea"/><path d="M590.139,745.391c13.375,1.775,29.643-.7,38.908-14.878,5.013-7.675,7.155-21.31,9.543-34.777,3.191-18-13.139-44.886-30.027-42.108-23.472,3.862-13.518,35.468-12.13,43.609C600.5,721.087,591.472,740.439,590.139,745.391Z" transform="translate(-590.139 -638.511)" fill="#03b4e9"/><path d="M614.321,759.937c.76-5.957.938-24.594-6.91-46.588-1.522-4.267-2.091-16.376-2.844-26.533-.281-3.792-7.66,2.244-10.02,11.067-1.464,5.473,1.353,13.41,1.884,16.527,4.066,23.85-4.96,43.2-6.293,48.155C597.871,763.59,606.567,763.191,614.321,759.937Z" transform="translate(-590.139 -655.684)" fill="#0080af"/><path d="M653.526,712.631c2.06-23.547-12.731-49.059-27.994-57.836-2.564-1.475.155-3.153,7.807-1.36C640.18,655.069,666.084,672.785,653.526,712.631Z" transform="translate(-608.495 -638.101)" fill="#0080af"/><path d="M664.888,698.112c.084-20.022-5.822-31.365-21.577-43.791,6.672,1.592,32.257,14.494,21.88,52.083C664.927,707.361,664.873,701.573,664.888,698.112Z" transform="translate(-618.468 -638.986)" fill="#eaeaea"/><path d="M674.469,805.186c.225-.806-.043-1.586-.6-1.742s-1.191.372-1.416,1.178.043,1.586.6,1.742S674.244,805.992,674.469,805.186Z" transform="translate(-633.951 -718.421)" fill="#0080af"/><path d="M680.187,784.733c.225-.805-.044-1.586-.6-1.741s-1.191.372-1.416,1.178.043,1.586.6,1.741S679.961,785.54,680.187,784.733Z" transform="translate(-636.997 -707.524)" fill="#0080af"/><path d="M663.327,663.495l3.823,1.948-.794-4.569-.705-.516Z" transform="translate(-629.132 -642.203)" fill="#f46973"/><path d="M679.076,716.553l-.154-8.108s7.017-24.249-9.142-39.148l.305-.6C683.3,681.428,685.216,700.418,679.076,716.553Z" transform="translate(-632.57 -646.648)" fill="#f46973"/><path d="M651.072,652.91l-15.207-6.424-2.45,2.887,14.137,8.179Z" transform="translate(-613.196 -634.812)" fill="#fff"/></g><g transform="translate(0 49.554)"><g transform="translate(40.137 36.078)"><path d="M656.724,752.471c2.457,1.76,6.111,2.59,6.515,1.506.458-1.221-2.817-1.344-4.638-3.46-1.976-2.288-3.338-3.621-4.261-2.908S654.263,750.711,656.724,752.471Z" transform="translate(-648.344 -744.717)" fill="#f8c471"/><path d="M642.232,746.871c3.665-.563,11.648,3.877,12.37.723.649-2.824-2.49-8.319-12.68-3.58Z" transform="translate(-641.922 -741.915)" fill="#ffd9a4"/><path d="M653.664,742.4c-1.46,4.914,4.534,6.671,6.548,6.788,2.215.127,4.346-3.3,3.811-4.985S654.224,740.521,653.664,742.4Z" transform="translate(-648.057 -741.64)" fill="#ffd9a4"/><path d="M671.745,745.559c2.586.135,3.967-.387,3.924-1.077s-1.52-.677-4.1-.816-5.833-.955-5.791-.265S669.162,745.416,671.745,745.559Z" transform="translate(-654.63 -742.433)" fill="#ffd9a4"/><path d="M672.787,751.808c2.555.666,5.06.108,5.155-.565s-2.395-.724-4.95-1.389-4.247-.961-4.341-.287S670.232,751.142,672.787,751.808Z" transform="translate(-656.16 -745.66)" fill="#ffd9a4"/><path d="M666.861,756.445c2.579.562,4.144.292,4.221-.381s-1.692-.723-4.269-1.284-4.391-.919-4.468-.244S664.281,755.883,666.861,756.445Z" transform="translate(-652.802 -748.315)" fill="#ffd9a4"/></g><path d="M556.625,709.561c-3.849-1.559,19.231-45.579,26.09-45.135,0,0,10.174,8,5.74,24.454C588.455,688.88,572.159,715.854,556.625,709.561Z" transform="translate(-556.112 -664.423)" fill="#03b4e9"/><path d="M645.578,748.205l-4.957,3.015-2.54-8.341,5.691.015Z" transform="translate(-599.739 -706.222)" fill="#eaeaea"/><path d="M556.346,750.3a4.886,4.886,0,0,0,3.8,3.6c5.5,1.081,19.339,2.385,39.377-5.449,0,0,.807-4.234-2.61-9.246,0,0-23.681-4.366-36.765-.052C560.143,739.157,554.637,743.493,556.346,750.3Z" transform="translate(-556.017 -703.225)" fill="#03b4e9"/><g transform="translate(12.951 23.625)"><path d="M607.551,715.819c.076-.281.137-.555.205-.832-3.55,3.063-9.515,11.935-15.719,12.718,6.663-.466,20.607-.255,24.167-.191-.036-.056-.067-.111-.106-.167a139.413,139.413,0,0,0-15.839-1.794A75.157,75.157,0,0,0,607.551,715.819Z" transform="translate(-588.158 -714.987)" fill="#0080af"/><path d="M583.735,766.147c7.2.05,17.571-1.189,30.55-6.263a7.165,7.165,0,0,0,.082-1.18A120.124,120.124,0,0,1,583.735,766.147Z" transform="translate(-583.735 -738.278)" fill="#0080af"/></g><path d="M634,751.082a1.315,1.315,0,1,0-1.348,1.28A1.314,1.314,0,0,0,634,751.082Z" transform="translate(-596.164 -709.874)" fill="#0080af"/></g><g transform="translate(35.006)"><path d="M633.944,586.054c-5.525-10.354-1.827-24.746-1.363-25.18,4.944-4.638,15.563-1.917,20.663.679,4.3,2.189,7.351,5.464,4.342,8.547-1.039,1.065-4.078-2.469-5.216-2.555-2.15-.161-9.451,28.35-9.451,28.35Z" transform="translate(-630.94 -558.362)" fill="#2d356b"/><g transform="translate(5.127 7.93)"><g transform="translate(1.06)"><path d="M679.729,628.008l1.455-1.6-1.276-1.205Z" transform="translate(-663.121 -601.903)" fill="#ffd8a3"/><path d="M644.36,599.489c.376,2.618,6.87,9.346,14.413,10.5,2.778-9.556,5.611-25.677,4.344-28.776-1.247-3.049-8.013-6.443-9.057-5.8,2,3.641-4.286,13.209-6.005,13.86C643.867,590.861,643.967,596.757,644.36,599.489Z" transform="translate(-644.182 -575.334)" fill="#ffd8a3"/><path d="M683.218,618.126a70.265,70.265,0,0,1-2.05-8.936c-.51-3.286-2.376,8.049-2.376,8.049S681.971,618.67,683.218,618.126Z" transform="translate(-662.621 -593.053)" fill="#ffd8a3"/><path d="M674.353,646.791c.818-.17,1.336-.811,1.155-1.431a1.51,1.51,0,0,0-1.81-.814c-.819.17-1.337.812-1.156,1.431A1.511,1.511,0,0,0,674.353,646.791Z" transform="translate(-659.273 -612.186)" fill="#ffd8a3"/><path d="M678.2,638.675c.065-.192-.118-.426-.408-.525s-.577-.022-.642.169.118.426.407.524S678.133,638.866,678.2,638.675Z" transform="translate(-661.739 -608.778)" fill="#ffd8a3"/></g><path d="M646.673,602.609c-.064-1.853-1.181-3.376-2.495-3.4s-2.326,1.458-2.262,3.311,2.266,3.364,3.579,3.389S646.737,604.462,646.673,602.609Z" transform="translate(-641.914 -588.054)" fill="#ffd8a3"/></g><path d="M674.754,602.533a.983.983,0,0,1,.116.685c-.132.575-3.615,1.421-3.944.784l-.205-.4c-.237-.459.919-.512,1.872-.915.911-.385,1.609-1.141,1.846-.717Z" transform="translate(-652.118 -581.53)" fill="#2d356b"/><path d="M677.529,610.088a1.079,1.079,0,0,0-.454-1.294c-.389-.132-.814.235-.952.818a1.077,1.077,0,0,0,.454,1.294C676.964,611.036,677.39,610.67,677.529,610.088Z" transform="translate(-654.99 -585.216)" fill="#2d356b"/><g transform="translate(9.211 2.676)"><path d="M656.759,578.44c3.179.921-5,14.445-3.586,15.845s-.459,2.249-1.25,1.738c-1.812-1.172-1.273-5.373-.846-8.03C651.552,585.034,656.49,578.362,656.759,578.44Z" transform="translate(-650.655 -571.735)" fill="#2d356b"/><path d="M672.157,572.6c1.017-2.217-.389-5.038-3.141-6.3s-11.113-3.482-12.13-1.266,5.692,8.03,8.445,9.292S671.14,574.816,672.157,572.6Z" transform="translate(-653.919 -564.09)" fill="#2d356b"/></g><path d="M676.987,636.79c-.177.3-.529-.232-1.075-.41-.417-.134-.978.122-.957-.07a2,2,0,0,1,1.393-1.177C676.885,635.121,677.235,636.366,676.987,636.79Z" transform="translate(-654.39 -599.263)" fill="#ffab00"/><path d="M677.52,636.022c-.1.143-.34.1-.611.016-.207-.061-.417-.141-.4-.23.031-.2.413-.345.649-.352C677.427,635.45,677.653,635.826,677.52,636.022Z" transform="translate(-655.216 -599.436)" fill="#fff"/></g></g><g transform="translate(450.581 282.496)"><g transform="translate(-18)"><rect width="287.603" height="93.728" rx="11.604" transform="translate(-17 -8.953)" fill="#fff" stroke="#231f20" stroke-miterlimit="10" stroke-width="0.25"/><path d="M524.625,528.73,560.2,545.8l-18.095-17.133Z" transform="translate(-520.105 -443.945)" fill="#fff" stroke="#231f20" stroke-miterlimit="10" stroke-width="0.25"/></g></g><g transform="translate(448.978 431.657)"><g transform="translate(0 0)"><g transform="translate(0 37.404)"><rect width="180.415" height="5.415" fill="#40558d"/><rect width="167.6" height="97.313" transform="translate(6.168 2.089)" fill="#40558d"/><rect width="52.007" height="97.313" transform="translate(6.168 2.089)" fill="#7b87ab"/><rect width="180.415" height="7.048" transform="translate(0 2.089)" fill="#2d356b"/></g><g transform="translate(55.757)"><path d="M673.667,704.567h41.844a2.589,2.589,0,0,0,2.543-2.1l5.639-29.689a2.588,2.588,0,0,0-2.542-3.071H679.307a2.588,2.588,0,0,0-2.542,2.1l-5.64,29.689A2.588,2.588,0,0,0,673.667,704.567Z" transform="translate(-645.302 -669.702)" fill="#cfd0d8"/><path d="M676.765,672.364a1.4,1.4,0,1,1,2.065.966l-5.64,29.689a1.4,1.4,0,1,1-2.065-.966Z" transform="translate(-645.302 -670.259)" fill="#ebebeb"/><path d="M618.852,747.266h64.321a2.944,2.944,0,0,0,2.944-2.944h-70.21A2.944,2.944,0,0,0,618.852,747.266Z" transform="translate(-615.908 -709.458)" fill="#9898a4"/><path d="M615.908,744.322h27.076a3.162,3.162,0,0,1-3.342,2.944H619.25A3.162,3.162,0,0,1,615.908,744.322Z" transform="translate(-615.908 -709.458)" fill="#cfd0d8"/><circle cx="2.97" cy="2.97" r="2.97" transform="matrix(0.383, -0.924, 0.924, 0.383, 49.159, 19.04)" fill="#fff4ba"/></g></g></g><g transform="translate(440.083 518.385)"><g transform="translate(0 0)"><g transform="translate(9.248)"><path d="M498.794,877.77s-.765-5.151-1.112-6.284c-.448-1.464-.667-3.644.565-4.927s1.418-4.3,1.418-4.765.462-7.391,5.543-6.365c0,0,2.1.514,1.078,4.209,0,0-1.078,2.207.282,3.593a5.627,5.627,0,0,1,0,7.647c-2.54,3.079-1.817,4.207-1.411,5.389,1.851,5.39-2.088,10.34-2.515,11.661s-.94,3.489-.512,4.736l-1.494.028Z" transform="translate(-497.328 -855.325)" fill="#ebebeb"/></g><g transform="translate(12.943 5.216)"><path d="M505.643,898.837a.257.257,0,0,0,.046,0,.226.226,0,0,0,.176-.267c-.571-2.781.431-7.736.442-7.786.552-2.109.713-4.8-.2-11.675a26.375,26.375,0,0,1,.278-9.014,15.126,15.126,0,0,1,1.044-3.274.226.226,0,1,0-.4-.2,15.163,15.163,0,0,0-1.078,3.363,26.808,26.808,0,0,0-.289,9.189c.9,6.775.737,9.5.211,11.513-.045.218-1.034,5.107-.444,7.979A.226.226,0,0,0,505.643,898.837Z" transform="translate(-505.234 -866.489)" fill="#fff"/></g><g transform="translate(14.169 19.795)"><path d="M509.628,915.372s0-1.215,2.493-2.365a4.166,4.166,0,0,0,2.493-3c.639-2.429,2.429-1.789,3.579-1.086s3.765,0,3.768-3.644a2.419,2.419,0,0,1,.891-2.94c1.669-1.023,2.308-4.676-1.272-4.639s-6.952,1.8-10.419,6.94c-4.818,7.138-2.943,10.739-2.943,10.739Z" transform="translate(-507.86 -897.692)" fill="#ebebeb"/></g><g transform="translate(14.595 22.355)"><path d="M509.157,918.517a.221.221,0,0,0,.069-.011.23.23,0,0,0,.146-.284,5.463,5.463,0,0,1-.014-2.384.254.254,0,0,0,.017-.045c1.933-7.3,11.465-12.145,11.561-12.193a.226.226,0,0,0-.2-.4c-.1.049-9.792,4.982-11.789,12.46a5.338,5.338,0,0,0,0,2.705A.221.221,0,0,0,509.157,918.517Z" transform="translate(-508.771 -903.171)" fill="#fff"/></g><g transform="translate(0 8.975)"><path d="M488.221,902.926a4.448,4.448,0,0,1-2.1-4.465,3.125,3.125,0,0,0-2.772-3.747c-.616-.1-4.619-1.745-4-7.75,0,0,.205-3.85-.513-5.235s-2.515-5.543,0-6.826,4.26,1.026,5.184,3.387a13.091,13.091,0,0,0,1.334,3.387c.616.667,5.081,4.568,4.722,12.678l-.874,8.571Z" transform="translate(-477.534 -874.535)" fill="#ebebeb"/></g><g transform="translate(3.584 13.696)"><path d="M492.719,908.535a.226.226,0,0,0,.226-.217c.26-6.9-2.734-15.906-4.451-18.507a46.359,46.359,0,0,1-2.858-5.041.226.226,0,1,0-.408.193,46.7,46.7,0,0,0,2.89,5.1c1.688,2.558,4.633,11.428,4.376,18.242a.226.226,0,0,0,.217.234Z" transform="translate(-485.205 -884.64)" fill="#fff"/></g></g><path d="M501.883,948.194H492.2l-2.343-13.262h14.365Z" transform="translate(-484.102 -897.738)" fill="#ebebeb"/></g><g transform="translate(455.334 431.657)"><rect width="53.361" height="30.388" rx="6.672" transform="translate(0 0)" fill="#fff" stroke="#231f20" stroke-miterlimit="10" stroke-width="0.25"/><text transform="translate(13.68 18.694)" fill="#2d356b" font-size="10" font-family="TrebuchetMS-Bold, Trebuchet MS" font-weight="700"><tspan x="0" y="0">Steve</tspan></text></g><g transform="translate(811.4 338.944)"><g transform="translate(0 94.788)"><path d="M1072.95,700.037l-9.365,1.761c-8.235,29.416-6.213,64.485-24.615,124.544,0,0,1.758.767,2.011,0,15.311-46.44,23.684-82.852,26.655-87.855C1074.239,727.371,1082.493,717.92,1072.95,700.037Z" transform="translate(-1034.352 -695.5)" fill="#ffd8a3"/><path d="M1098.715,696.127c11.525,21.494,2.9,19.828,2.521,30.945-1.081,32.057,19.358,48.364,25.7,97.4,0,0-2.512-.128-2.584-.836-3.941-39.12-38.606-76.549-40.032-112.869-.092-2.342-.2-9.337,2.537-11.841C1091.036,695.1,1098.715,696.127,1098.715,696.127Z" transform="translate(-1058.497 -693.35)" fill="#f7c371"/><path d="M1159.288,968.666h7.532s.364-2.138-1.316-2.481C1164.445,965.969,1162.574,966.467,1159.288,968.666Z" transform="translate(-1098.454 -837.272)" fill="#7b88ac"/><path d="M1029.086,969.061h6.621s.32-2.137-1.157-2.48C1033.62,966.366,1031.975,966.862,1029.086,969.061Z" transform="translate(-1029.086 -837.484)" fill="#7b88ac"/><path d="M1101.308,766.2s-31.616,5.083-38.862,3.05c0,0,6.916-71.845,11.856-76.251s13.832-2.033,13.832-2.033a27.954,27.954,0,0,1,4.611,29.823C1086.158,736.376,1101.308,766.2,1101.308,766.2Z" transform="translate(-1046.859 -690.327)" fill="#ffac00"/></g><g transform="translate(6.709)"><g transform="translate(0 45.509)"><g transform="translate(0 20.212)"><path d="M1062.415,642.776c-2.031-1.227-7.837-.545-7.5-2.588.3-1.829,3.5-4.316,8.376.973Z" transform="translate(-1049.551 -633.369)" fill="#f8c471"/><path d="M1058.569,638.149c-.334,3.264-4.309,2.842-5.529,2.42-1.342-.464-1.766-3.013-1.04-3.879S1058.7,636.9,1058.569,638.149Z" transform="translate(-1047.816 -632.517)" fill="#f8c471"/><path d="M1056.83,632.306c-1.138-1.563-1.687-3.9-.995-4.161.779-.3.873,1.8,2.236,2.951,1.474,1.254,2.334,2.119,1.881,2.713S1057.967,633.873,1056.83,632.306Z" transform="translate(-1049.884 -628.115)" fill="#f8c471"/><path d="M1048.267,635.155c-1.563-.55-2.253-1.2-2.059-1.594s1.064-.03,2.626.517,3.684.857,3.491,1.255S1049.83,635.7,1048.267,635.155Z" transform="translate(-1044.901 -630.927)" fill="#f8c471"/><path d="M1046.365,639.261c-1.675-.228-3.021-1.169-2.913-1.591s1.594.156,3.268.385,2.747.467,2.638.888S1048.039,639.49,1046.365,639.261Z" transform="translate(-1043.446 -633.126)" fill="#f8c471"/><path d="M1049.156,643.461c-1.662-.3-2.523-.837-2.4-1.254s1.177-.015,2.839.281,2.823.526,2.7.945S1050.819,643.757,1049.156,643.461Z" transform="translate(-1045.202 -635.527)" fill="#f8c471"/></g><g transform="translate(12.35)"><path d="M1091.323,585.108c5.154-3.491,20.608,30.425,20.673,31.748,0,0-2.628,2.256-3.819,1.243C1105.1,615.48,1089.022,586.666,1091.323,585.108Z" transform="translate(-1081.184 -584.856)" fill="#f8c471"/><path d="M1073.308,643.668c-1.071,4.772,26.007,5.744,26.993,5.4,0,0,1.964-3.154.881-3.726C1098.381,643.869,1073.786,641.536,1073.308,643.668Z" transform="translate(-1071.689 -615.732)" fill="#f8c471"/><path d="M1070.11,642.735l.718-1.311,5.627-.812a11.639,11.639,0,0,1-1.262,2.954C1074.7,643.989,1070.11,642.735,1070.11,642.735Z" transform="translate(-1070.002 -614.561)" fill="#eaeaea"/><path d="M1070,644.927l-.123,1.5,4.3,3.73a11.7,11.7,0,0,0,.578-3.185C1074.567,646.344,1070,644.927,1070,644.927Z" transform="translate(-1069.878 -616.86)" fill="#eaeaea"/></g></g><g transform="translate(10.364)"><g transform="translate(5.524 1.036)"><path d="M1082.7,548.928c-6.4-4.715,2.386-7.134,1.341-11.862s-1.888-3.077-3.477-9.147-.253-8.585-.619-12.2-3.566-9.177-2.126-14,2.9-3.453,4.2-7.314,3.548-.145,6.758,1.054,5.458-7.915,11.155-5.33,6.111,9.331,8.195,12.861,7.505,4.334,9.23,10.921-2.207,5.581.1,9.978,6.873,3.388,8.6,9.977c0,0,1.544,6.635-6,7.314s-4.65,4.367-13.145,2.886-4.784,5.328-10.887,3.406S1088.415,553.14,1082.7,548.928Z" transform="translate(-1077.452 -489.67)" fill="#2d356b"/></g><g transform="translate(0 22.87)"><path d="M1106.166,536.4l-6.769,4.7-.555,15.132,5.507-2.285Z" transform="translate(-1083.324 -536.402)" fill="#f7c371"/><path d="M1071.09,645.223c4.344-3.142,14.445-10.109,26.349-2.61-3.917-9.971-7.51-19.785-8.006-28.112-.92-15.437,11.37-34.186.185-40.667-11.875-6.882-23.99,27.99-23.99,27.99C1077.462,607.778,1075.13,626.525,1071.09,645.223Z" transform="translate(-1065.629 -555.865)" fill="#ffac00"/><path d="M1102.936,571.8l-2.037-.144-8.663,8.939,2.786,2.14S1100.813,576.256,1102.936,571.8Z" transform="translate(-1079.805 -555.184)" fill="#fff"/><path d="M1084.334,583.211c-.045-.029-.086-.057-.131-.086,2.17-4.879,7.056-12.423,12.121-12.186C1091.923,575.246,1084.334,583.211,1084.334,583.211Z" transform="translate(-1075.525 -554.799)" fill="#f7c371"/></g><g transform="translate(3.612)"><path d="M1094.121,519.841c3.508-1.607,10.712-3.989,13.371-10.116,3.457-7.965,1.553-12.233-.875-17.407-4.63-9.864-21.484-2.144-19.884.724C1088.856,496.849,1081.406,525.664,1094.121,519.841Z" transform="translate(-1080.337 -487.453)" fill="#2d356b"/><path d="M1083.066,529.615c-1.339.219-4.863-6.311-6.442-11.5-.521-1.711,1.329-2.224.238-8.175-.641-3.493.187-8.608,5.488-13.045,5-4.189,7.189,6.619,8.073,9.054,2.519,6.936,5.079,11.133,3.808,14.895C1091.75,528.19,1084.457,529.034,1083.066,529.615Z" transform="translate(-1075.049 -491.974)" fill="#ffd8a3"/><path d="M1087.186,547.7a.312.312,0,0,0-.333-.289.329.329,0,0,0-.21.4.313.313,0,0,0,.335.289A.328.328,0,0,0,1087.186,547.7Z" transform="translate(-1080.433 -519.395)" fill="#ffab00"/><path d="M1083.684,527.241c-.185-.936-.856-1.582-1.5-1.445s-1.013,1.009-.827,1.945.856,1.583,1.5,1.445S1083.87,528.177,1083.684,527.241Z" transform="translate(-1077.597 -507.871)" fill="#2d356b"/><path d="M1083.628,527.154c-1.119-1.155-2.623-2.243-4.946-.979A9.127,9.127,0,0,1,1083.628,527.154Z" transform="translate(-1076.196 -507.781)" fill="#2d356b"/><path d="M1083.734,556.695c-.076-.212-.621.671-.936.751-.889.224-.444,1.332.428,1.016C1083.566,558.339,1083.813,556.919,1083.734,556.695Z" transform="translate(-1078.13 -524.326)" fill="#f36973"/><path d="M1082.413,548.489c.571-.343-3.745-.858-2.77.418A6.563,6.563,0,0,0,1082.413,548.489Z" transform="translate(-1076.631 -519.759)" fill="#f36973"/><path d="M1076.99,516.546a5.561,5.561,0,0,1,7.179,2.373C1081.988,516.768,1080.457,516.081,1076.99,516.546Z" transform="translate(-1075.294 -502.696)" fill="#2d356b"/><path d="M1074.448,537.849l2.176.3-.788-5.3-2.474,4.271Z" transform="translate(-1073.361 -511.634)" fill="#ffd8a3"/><path d="M1077.116,545.9l-2.145-3.015,1.547-.309Z" transform="translate(-1074.218 -516.819)" fill="#ffd8a3"/><path d="M1081.016,553.24a39.638,39.638,0,0,1-1.771-4.427l3.743-.61S1082.89,552.286,1081.016,553.24Z" transform="translate(-1076.496 -519.819)" fill="#ffab00"/><path d="M1082.513,550.813l-2.132.347c-.217-.557-.43-1.142-.637-1.751l3.059-.5Z" transform="translate(-1076.762 -520.196)" fill="#fff"/><path d="M1114.771,528.582c-.35-1.619-1.1-2.732.129-3s2.513.835,2.863,2.456-.365,3.146-1.6,3.411S1115.12,530.2,1114.771,528.582Z" transform="translate(-1095.131 -507.749)" fill="#f7c371"/><path d="M1083.734,497.111c4.9,5.3,13.2,12.86,12.925,21.594,2.015-9.579-1.5-21.346-8.284-25.32C1087.894,494.392,1082.5,494.992,1083.734,497.111Z" transform="translate(-1078.79 -490.613)" fill="#2d356b"/></g></g><g transform="translate(1.412 44.605)"><g transform="translate(0 17.743)"><path d="M1065.6,640.017c-1.927-1.98-8.666-2.92-7.681-5.119.881-1.97,5.213-3.831,9.147,3.559Z" transform="translate(-1052.516 -627.418)" fill="#ffd9a4"/><path d="M1062.777,633.216c-1.336,3.577-5.688,1.933-6.939,1.1-1.375-.918-1.1-3.913-.031-4.674S1063.286,631.848,1062.777,633.216Z" transform="translate(-1050.962 -625.489)" fill="#ffd9a4"/><path d="M1062.825,625.879c-.821-2.1-.752-4.886.1-4.98.966-.107.455,2.28,1.651,3.982,1.291,1.846,2,3.073,1.32,3.609S1063.646,627.978,1062.825,625.879Z" transform="translate(-1054.874 -620.896)" fill="#ffd9a4"/><path d="M1052.62,626.531c-1.6-1.079-2.186-2.01-1.851-2.4s1.208.279,2.806,1.355,3.9,2.048,3.563,2.44S1054.221,627.6,1052.62,626.531Z" transform="translate(-1048.711 -622.558)" fill="#ffd9a4"/><path d="M1049.312,630.577c-1.819-.75-3.058-2.206-2.813-2.649s1.749.644,3.567,1.395,2.957,1.334,2.711,1.776S1051.13,631.327,1049.312,630.577Z" transform="translate(-1046.468 -624.588)" fill="#ffd9a4"/><path d="M1051.2,636.141c-1.786-.822-2.6-1.685-2.339-2.12s1.331.329,3.115,1.151,3.024,1.423,2.767,1.859S1052.985,636.964,1051.2,636.141Z" transform="translate(-1047.717 -627.821)" fill="#ffd9a4"/></g><g transform="translate(12.518)"><path d="M1115.483,583.018c6.832-2.416,14.262,40.328,13.945,41.837,0,0-3.623,1.768-4.667.277C1122.064,621.277,1112.433,584.1,1115.483,583.018Z" transform="translate(-1095.441 -582.92)" fill="#f8c471"/><path d="M1078.008,644.118c-2.61,5.06,27.6,14.119,28.811,14.027,0,0,3.14-2.975,2.089-3.937C1106.188,651.72,1079.174,641.858,1078.008,644.118Z" transform="translate(-1075.705 -615.347)" fill="#f8c471"/><path d="M1074.4,642.68l1.195-1.266,6.576.741s-1.6,2.627-2.29,2.957S1074.4,642.68,1074.4,642.68Z" transform="translate(-1073.867 -614.084)" fill="#eaeaea"/><path d="M1073.841,643.874l-.58,1.653,3.742,5.465s1.612-2.658,1.587-3.418S1073.841,643.874,1073.841,643.874Z" transform="translate(-1073.261 -615.395)" fill="#eaeaea"/></g></g></g></g><g transform="translate(815.711 412.463)"><rect width="55.361" height="31.388" rx="6.672" transform="translate(0 0)" fill="#fff" stroke="#231f20" stroke-miterlimit="10" stroke-width="0.25"/><text transform="translate(14.68 19.194)" fill="#2d356b" font-size="10" font-family="TrebuchetMS-Bold, Trebuchet MS" font-weight="700"><tspan x="0" y="0">Akiko</tspan></text></g></g></svg>