<svg xmlns="http://www.w3.org/2000/svg" width="544.441" height="371.084" viewBox="0 0 544.441 371.084">
  <g id="Group_11990" data-name="Group 11990" transform="translate(113 -1324.05)">
    <g id="Group_11562" data-name="Group 11562" transform="translate(-113 1324.763)">
      <g id="Group_11561" data-name="Group 11561" transform="translate(0 0)">
        <g id="Group_11560" data-name="Group 11560">
          <g id="Group_11559" data-name="Group 11559">
            <g id="Group_11558" data-name="Group 11558">
              <g id="Group_11557" data-name="Group 11557">
                <g id="Group_11554" data-name="Group 11554" transform="translate(0.622)">
                  <g id="Group_11550" data-name="Group 11550" transform="translate(0.143)">
                    <path id="Path_15819" data-name="Path 15819" d="M922.564,1736.111h.644v-12.994H379.533v271.554H922.559v-27.277h.005Z" transform="translate(-379.533 -1722.738)" fill="#fff"/>
                    <rect id="Rectangle_3607" data-name="Rectangle 3607" width="542.911" height="0.759" transform="translate(0 271.554)" fill="#a0bacb"/>
                    <rect id="Rectangle_3608" data-name="Rectangle 3608" width="543.676" height="0.759" fill="#7b88ac"/>
                  </g>
                  <g id="Group_11551" data-name="Group 11551" transform="translate(0 55.487)">
                    <path id="Path_15820" data-name="Path 15820" d="M484.386,1881.61v-.2h-9.14v.2H380.763v165.559H574.794V1881.61Zm82.375,5.316v36.405H484.386v-36.405Zm-91.516,42.687v69.552H388.8v-69.552Zm9.14,69.552v-69.552h82.375v69.552Zm-9.14-112.239v36.405H388.8v-36.405ZM388.8,2005.447h86.449v36.405H388.8Zm95.59,36.405v-36.405h82.375v36.405Z" transform="translate(-380.189 -1881.032)" fill="#ebebeb"/>
                    <path id="Path_15821" data-name="Path 15821" d="M574.3,2046.845H379.126V1880.527h94.483v-.2H483.9v.2H574.3Zm-194.031-.76H573.157v-164.8H482.749v-.2h-7.993v.2H380.274Zm186-4.556H482.749v-37.165h83.523Zm-82.375-.76h81.227v-35.646H483.9Zm-9.141.76h-87.6v-37.165h87.6Zm-86.449-.76h85.3v-35.646h-85.3Zm177.965-41.928H482.749v-70.311h83.523Zm-82.375-.76h81.227V1929.29H483.9Zm-9.141.76h-87.6v-70.311h87.6Zm-86.449-.76h85.3V1929.29h-85.3Zm177.965-75.075H482.749v-37.164h83.523Zm-82.375-.759h81.227V1886.6H483.9Zm-9.141.759h-87.6v-37.164h87.6Zm-86.449-.759h85.3V1886.6h-85.3Z" transform="translate(-379.126 -1880.328)" fill="#ebebeb"/>
                  </g>
                  <g id="Group_11552" data-name="Group 11552" transform="translate(202.946 54.507)">
                    <path id="Path_15822" data-name="Path 15822" d="M1208.073,1878.815v-.2h-8.384v.2h-86.661v165.559H1291V1878.815Zm75.557,5.316v36.406h-75.557v-36.406Zm-83.941,42.688v69.552H1120.4v-69.552Zm8.384,69.552v-69.552h75.557v69.552Zm-8.384-112.239v36.406H1120.4v-36.406ZM1120.4,2002.652h79.293v36.406H1120.4Zm87.677,36.406v-36.406h75.557v36.406Z" transform="translate(-1112.501 -1878.236)" fill="#ebebeb"/>
                    <path id="Path_15823" data-name="Path 15823" d="M1290.549,2044.05H1111.526V1877.732h86.662v-.2h9.436v.2h82.925Zm-177.97-.76H1289.5v-164.8h-82.925v-.2h-7.331v.2h-86.662Zm170.6-4.557h-76.609v-37.165h76.609Zm-75.556-.76h74.5v-35.646h-74.5Zm-8.384.76h-80.346v-37.165h80.346Zm-79.294-.76h78.241v-35.646h-78.241Zm163.234-41.928h-76.609v-70.311h76.609Zm-75.556-.76h74.5v-68.792h-74.5Zm-8.384.76h-80.346v-70.311h80.346Zm-79.294-.76h78.241v-68.792h-78.241Zm163.234-75.074h-76.609v-37.165h76.609Zm-75.556-.76h74.5v-35.646h-74.5Zm-8.384.76h-80.346v-37.165h80.346Zm-79.294-.76h78.241v-35.646h-78.241Z" transform="translate(-1111.526 -1877.533)" fill="#ebebeb"/>
                  </g>
                  <g id="Group_11553" data-name="Group 11553" transform="translate(389.9 55.487)">
                    <path id="Path_15824" data-name="Path 15824" d="M1921.456,2041.852h-48.964v-36.405h48.964v-6.282h-48.964v-69.552h48.964v-6.282h-48.964v-36.405h48.964v-5.316h-48.964v-.2h-9.14v.2H1768.87v165.559h152.587Zm-58.1,0H1776.9v-36.405h86.449Zm0-42.687H1776.9v-69.552h86.449Zm0-75.834H1776.9v-36.405h86.449Z" transform="translate(-1768.297 -1881.031)" fill="#ebebeb"/>
                    <path id="Path_15825" data-name="Path 15825" d="M2062.848,2271.344h49.538v-.759H2064v-35.646h48.39v-.759h-49.538Z" transform="translate(-1959.226 -2110.143)" fill="#ebebeb"/>
                    <path id="Path_15826" data-name="Path 15826" d="M2062.848,2088.151h49.538v-.759H2064V2018.6h48.39v-.759h-49.538Z" transform="translate(-1959.226 -1969.638)" fill="#ebebeb"/>
                    <path id="Path_15827" data-name="Path 15827" d="M2062.848,1933.225h49.538v-.759H2064V1896.82h48.39v-.759h-49.538Z" transform="translate(-1959.226 -1890.546)" fill="#ebebeb"/>
                    <path id="Path_15828" data-name="Path 15828" d="M1877.748,1896.061h-87.6v37.165h87.6Zm-1.148,36.405h-85.3V1896.82h85.3Z" transform="translate(-1782.118 -1890.546)" fill="#ebebeb"/>
                    <path id="Path_15829" data-name="Path 15829" d="M1920.394,2046.085H1768.382v-164.8h94.482v-.2h7.993v.2h49.538v-.76H1872v-.2h-10.288v.2h-94.482v166.318h153.16Z" transform="translate(-1767.234 -1880.328)" fill="#ebebeb"/>
                    <path id="Path_15830" data-name="Path 15830" d="M1790.151,2271.344h87.6v-37.164h-87.6Zm1.148-36.405h85.3v35.646h-85.3Z" transform="translate(-1782.118 -2110.143)" fill="#ebebeb"/>
                    <path id="Path_15831" data-name="Path 15831" d="M1877.748,2017.84h-87.6v70.311h87.6Zm-1.148,69.552h-85.3V2018.6h85.3Z" transform="translate(-1782.118 -1969.638)" fill="#ebebeb"/>
                  </g>
                </g>
                <g id="Group_11555" data-name="Group 11555" transform="translate(0 239.241)">
                  <path id="Path_15832" data-name="Path 15832" d="M921.026,2405.462H378v93.171h-.65v37.637h543.67V2409.431h.005Z" transform="translate(-377.35 -2405.14)" fill="#f9f9f9"/>
                  <rect id="Rectangle_3609" data-name="Rectangle 3609" width="541.578" height="0.544" transform="translate(2.288 130.381)" fill="#f9f9f9"/>
                  <rect id="Rectangle_3610" data-name="Rectangle 3610" width="542.917" height="0.544" transform="translate(0.765)" fill="#f9f9f9"/>
                </g>
                <g id="Group_11556" data-name="Group 11556" transform="translate(34.246 4.788)">
                  <path id="Path_15833" data-name="Path 15833" d="M1477.049,1816.935v-81.243h-2.162v81.243c-6.741.414-12.044,4.642-12.044,9.807,0,5.438,5.876,9.848,13.125,9.848s13.125-4.409,13.125-9.848C1489.093,1821.577,1483.79,1817.349,1477.049,1816.935Z" transform="translate(-1116.588 -1735.692)" fill="#c3e8e6"/>
                  <path id="Path_15834" data-name="Path 15834" d="M489.252,1835.242V1754H487.09v81.243c-6.742.414-12.044,4.642-12.044,9.807,0,5.439,5.876,9.848,13.125,9.848s13.125-4.409,13.125-9.848C501.3,1839.884,495.993,1835.655,489.252,1835.242Z" transform="translate(-475.046 -1747.582)" fill="#c3e8e6"/>
                  <path id="Path_15835" data-name="Path 15835" d="M836.808,1831.473v-59.066h-1.572v59.066c-4.9.3-8.756,3.375-8.756,7.13,0,3.954,4.272,7.16,9.542,7.16s9.542-3.206,9.542-7.16C845.564,1834.848,841.71,1831.774,836.808,1831.473Z" transform="translate(-703.291 -1759.537)" fill="#c3e8e6"/>
                  <path id="Path_15836" data-name="Path 15836" d="M1780.6,1831.473v-59.066h-1.572v59.066c-4.9.3-8.756,3.375-8.756,7.13,0,3.954,4.272,7.16,9.542,7.16s9.542-3.206,9.542-7.16C1789.358,1834.848,1785.5,1831.774,1780.6,1831.473Z" transform="translate(-1316.254 -1759.537)" fill="#c3e8e6"/>
                </g>
              </g>
            </g>
          </g>
        </g>
      </g>
    </g>
    <g id="Group_11564" data-name="Group 11564" transform="translate(-60.809 1327.674)">
      <g id="Group_11563" data-name="Group 11563" transform="translate(0 0)">
        <path id="Path_15837" data-name="Path 15837" d="M907.067,1891.71c12.483,23.353-1.146,46.511-33.073,53.535-33.913,7.461-75.909-6.046-95.1-30.274-17.75,11.162-43.994,18.831-73.423,20.046-54.249,2.239-98.768-18.294-99.435-45.862a28.956,28.956,0,0,1,4.574-15.891c-46.325,7.023-72.017-6.331-80.622-38.061-6.35-23.413,21.012-61.675,87.22-64.408,8.442-.349,16.686-.367,24.65-.088-.108-.768-2.076-5.231,1.976-12.449,17.613-31.377,70.069-32.57,123.763-21.762,45.212,9.1,66.205,31.749,75.131,51.5,0,0,133.1-26.481,149.863,50.225C992.59,1838.22,1012.8,1906.246,907.067,1891.71Z" transform="translate(-529.094 -1730.337)" fill="#fff" stroke="#ebebeb" stroke-miterlimit="10" stroke-width="1"/>
        <ellipse id="Ellipse_597" data-name="Ellipse 597" cx="11.057" cy="11.97" rx="11.057" ry="11.97" transform="translate(65.652 134.277) rotate(-2.698)" fill="#fff" stroke="#ebebeb" stroke-miterlimit="10" stroke-width="1"/>
        <ellipse id="Ellipse_598" data-name="Ellipse 598" cx="6.552" cy="7.093" rx="6.552" ry="7.093" transform="translate(60.278 151.584) rotate(-2.698)" fill="#fff" stroke="#ebebeb" stroke-miterlimit="10" stroke-width="1"/>
        <ellipse id="Ellipse_599" data-name="Ellipse 599" cx="5.604" cy="6.067" rx="5.604" ry="6.067" transform="translate(46.591 159.818) rotate(-2.698)" fill="#fff" stroke="#ebebeb" stroke-miterlimit="10" stroke-width="1"/>
      </g>
    </g>
    <g id="Group_11583" data-name="Group 11583" transform="translate(-90.274 1483.237)">
      <g id="Group_11567" data-name="Group 11567" transform="translate(15.156 35.153)">
        <g id="Group_11566" data-name="Group 11566">
          <path id="Path_15838" data-name="Path 15838" d="M637,2513.4l1.868-.2-11.858-61.121-3.946.648-43.626,5.174,1.193,11.2.113-.012-.847,50.714,1.868-.2,5.393-51.2,34.624-3.686Z" transform="translate(-546.483 -2389.802)" fill="#7b88ac"/>
          <path id="Path_15839" data-name="Path 15839" d="M513.912,2279.377c-2.6-7.424-12.645-4.821-21.526-2.977-6.386,1.32-7.675,4.113-6.655,10.566l13.7,55.5c1,6.437,6.744,10.16,12.739,8.255s18.181-7.371,17.011-13.79Z" transform="translate(-485.418 -2274.412)" fill="#7b88ac"/>
          <path id="Path_15840" data-name="Path 15840" d="M604.532,2539l1.534-.163-11.9-56.252,8.8-9.835-28.611,2.853-33.7,3.229,1.125,9.33-.622,57.931,1.243-.132,5.572-58.458,39.724-4.229Z" transform="translate(-521.294 -2403.227)" fill="#7b88ac"/>
          <path id="Path_15841" data-name="Path 15841" d="M607.36,2447.6a2.313,2.313,0,0,0-2.169-3.571l-34.779,3.56a29.624,29.624,0,0,0-9.063,2.714l-18.857,8.584c-.047.021-.094.045-.14.068-2.245,1.186-1.942,1.953.7,1.671l58.956-6.418a2.313,2.313,0,0,0,1.683-1.03Z" transform="translate(-521.42 -2384.563)" fill="#7b88ac"/>
        </g>
      </g>
      <g id="Group_11574" data-name="Group 11574" transform="translate(24.176)">
        <path id="Path_15842" data-name="Path 15842" d="M548.826,2196.877c5.291-9.8-10.028-25.082-18.125-22.45,0,0-17.512-4.444-19.549,26.311-.089,1.36,5.282,2.635,4.546,5.465s-.4,2.574.625,4.23,4.026.384,4.378,1.495c.968,3.052-4.744,3.648-6,1.812,0,0,11.118,11.286,20.978-.927C536.243,2212.11,547.432,2199.457,548.826,2196.877Z" transform="translate(-511.151 -2174.127)" fill="#fff4ba"/>
        <g id="Group_11568" data-name="Group 11568" transform="translate(45.156 78.346)">
          <path id="Path_15843" data-name="Path 15843" d="M650.2,2404.631c-2.122-1.374-5.209-1.924-5.5-1-.335,1.039,2.407,1.013,4.012,2.71,1.741,1.834,2.932,2.9,3.675,2.263S652.323,2406,650.2,2404.631Z" transform="translate(-643.019 -2401.231)" fill="#f8c471"/>
          <path id="Path_15844" data-name="Path 15844" d="M640.211,2402.09c3.07-.446,9.718,3.323,10.343.69.562-2.359-2.025-6.977-10.583-3.083Z" transform="translate(-639.971 -2397.996)" fill="#ffd9a4"/>
          <path id="Path_15845" data-name="Path 15845" d="M653.009,2398.252c-1.255,4.1,3.747,5.612,5.431,5.724,1.852.122,3.659-2.732,3.223-4.144S653.491,2396.685,653.009,2398.252Z" transform="translate(-648.309 -2397.632)" fill="#ffd9a4"/>
          <path id="Path_15846" data-name="Path 15846" d="M671.572,2401.442c2.162.132,3.321-.3,3.291-.874s-1.268-.576-3.427-.71-4.873-.84-4.843-.262S669.412,2401.3,671.572,2401.442Z" transform="translate(-657.261 -2398.762)" fill="#ffd9a4"/>
          <path id="Path_15847" data-name="Path 15847" d="M673.184,2408.372c2.133.575,4.233.125,4.317-.437s-2-.622-4.132-1.2-3.547-.833-3.63-.271S671.052,2407.8,673.184,2408.372Z" transform="translate(-659.302 -2403.167)" fill="#ffd9a4"/>
          <path id="Path_15848" data-name="Path 15848" d="M666.427,2413.583c2.153.488,3.465.273,3.533-.289s-1.411-.616-3.562-1.1-3.667-.8-3.736-.235S664.273,2413.1,666.427,2413.583Z" transform="translate(-654.707 -2406.738)" fill="#ffd9a4"/>
        </g>
        <g id="Group_11569" data-name="Group 11569" transform="translate(2.896 28.317)">
          <path id="Path_15849" data-name="Path 15849" d="M555.676,2254.91l7.105,5.291.06,16.276L557,2273.827Z" transform="translate(-542.965 -2254.91)" fill="#f6cda2"/>
          <path id="Path_15850" data-name="Path 15850" d="M550.241,2378.9c-16.245,8.058-21.848,4.1-30.827,2.993.824-12.8,8.77-20.988,9.6-29.917,1.537-16.551-11-37.13,1.241-43.7,13-6.972,24.782,30.921,24.782,30.921C542.111,2345.174,546.564,2358.665,550.241,2378.9Z" transform="translate(-519.414 -2289.013)" fill="#54ccca"/>
          <path id="Path_15851" data-name="Path 15851" d="M553.108,2305.65l2.193-.084,8.99,9.91-3.069,2.2S555.231,2310.512,553.108,2305.65Z" transform="translate(-541.297 -2287.81)" fill="#fff"/>
          <path id="Path_15852" data-name="Path 15852" d="M572.746,2318.187l.144-.089c-2.158-5.318-7.141-13.6-12.591-13.522C564.876,2309.361,572.746,2318.187,572.746,2318.187Z" transform="translate(-545.968 -2287.167)" fill="#f6cda2"/>
        </g>
        <g id="Group_11570" data-name="Group 11570" transform="translate(7.13 50.474)">
          <path id="Path_15853" data-name="Path 15853" d="M582.194,2405.488c.916,6.4-27.9,10.932-29.186,10.384,0,0-2.29-4.353-.775-5C556.154,2409.209,581.784,2402.633,582.194,2405.488Z" transform="translate(-544.626 -2374.402)" fill="#c3e8e6"/>
          <path id="Path_15854" data-name="Path 15854" d="M534.33,2318.173c-8.05-1.783,3.339,40.956,5.71,41.521,0,0,4.043-1.838,4.6-3.865C546.32,2349.71,537.924,2318.967,534.33,2318.173Z" transform="translate(-531.492 -2318.119)" fill="#c3e8e6"/>
          <path id="Path_15855" data-name="Path 15855" d="M629.623,2401.372l-.881-1.661-7.442-.863s.868,3.233,1.508,3.759S629.623,2401.372,629.623,2401.372Z" transform="translate(-589.819 -2370.55)" fill="#ebebeb"/>
          <path id="Path_15856" data-name="Path 15856" d="M632.96,2405.659l.077,1.925-5.941,4.936s-.862-3.267-.581-4.079S632.96,2405.659,632.96,2405.659Z" transform="translate(-593.17 -2374.974)" fill="#ebebeb"/>
        </g>
        <g id="Group_11573" data-name="Group 11573" transform="translate(10.51 5.504)">
          <g id="Group_11572" data-name="Group 11572">
            <g id="Group_11571" data-name="Group 11571" transform="translate(0 1.811)">
              <path id="Path_15857" data-name="Path 15857" d="M559.155,2230.586c1.377.41,5.958-5.974,8.316-11.214.777-1.728-1.1-2.516.85-8.62,1.143-3.583.963-9.068-4.008-14.443-4.693-5.074-8.443,5.985-9.7,8.424-3.58,6.947-6.835,11.011-6.007,15.134C550.225,2227.92,557.772,2229.789,559.155,2230.586Z" transform="translate(-545.903 -2194.993)" fill="#ffd8a3"/>
              <path id="Path_15858" data-name="Path 15858" d="M599.79,2254.86l-2.325.018,1.542-5.467,2.024,4.82Z" transform="translate(-577.719 -2230.336)" fill="#ffd8a3"/>
              <path id="Path_15859" data-name="Path 15859" d="M597.573,2266.516l2.659-2.878-1.583-.533Z" transform="translate(-577.79 -2239.229)" fill="#ffd8a3"/>
              <path id="Path_15860" data-name="Path 15860" d="M544.439,2235.639c.586-1.653,1.523-2.722.268-3.164s-2.752.54-3.338,2.195-.041,3.354,1.216,3.8S543.855,2237.3,544.439,2235.639Z" transform="translate(-541.134 -2219.268)" fill="#f7c371"/>
              <path id="Path_15861" data-name="Path 15861" d="M592.761,2222.809a6.811,6.811,0,0,1-8.407,1.829C587.612,2225.377,589.494,2225.151,592.761,2222.809Z" transform="translate(-569.204 -2213.059)" fill="#2d356b"/>
              <path id="Path_15862" data-name="Path 15862" d="M593.554,2238.861a1.416,1.416,0,1,1,.933,2.033A1.6,1.6,0,0,1,593.554,2238.861Z" transform="translate(-575.14 -2222.554)" fill="#2d356b"/>
              <path id="Path_15863" data-name="Path 15863" d="M589.478,2238.557c1.4-1.061,3.242-2.014,5.789-.5A11.8,11.8,0,0,0,589.478,2238.557Z" transform="translate(-572.532 -2222.451)" fill="#2d356b"/>
              <path id="Path_15864" data-name="Path 15864" d="M589.951,2276.314c.654-.913,1.728-1.823,1.228-2.182a2.054,2.054,0,0,0-2.393.856,2.184,2.184,0,0,0,.223,2.66S589.3,2277.226,589.951,2276.314Z" transform="translate(-571.856 -2246.296)" fill="#ffab00"/>
              <path id="Path_15865" data-name="Path 15865" d="M593.761,2275c.46-.51.193-.778-.1-.85a1.681,1.681,0,0,0-.953.127A.989.989,0,0,0,593.761,2275Z" transform="translate(-574.631 -2246.383)" fill="#fff"/>
            </g>
            <path id="Path_15866" data-name="Path 15866" d="M575.741,2189.882c-2.062,3.742-7.749,13.063-13.959,13.458,0,0-.953-9.819,5.249-11.666C574.861,2189.34,575.741,2189.882,575.741,2189.882Z" transform="translate(-554.51 -2189.828)" fill="#fff4ba"/>
          </g>
        </g>
      </g>
      <g id="Group_11578" data-name="Group 11578" transform="translate(0 47.895)">
        <g id="Group_11577" data-name="Group 11577">
          <g id="Group_11575" data-name="Group 11575" transform="translate(0 40.032)">
            <rect id="Rectangle_3612" data-name="Rectangle 3612" width="190.887" height="5.73" fill="#40558d"/>
            <rect id="Rectangle_3613" data-name="Rectangle 3613" width="177.329" height="102.961" transform="translate(6.526 2.21)" fill="#40558d"/>
            <rect id="Rectangle_3614" data-name="Rectangle 3614" width="55.025" height="102.961" transform="translate(6.526 2.21)" fill="#7b87ab"/>
            <rect id="Rectangle_3615" data-name="Rectangle 3615" width="190.887" height="7.457" transform="translate(0 2.21)" fill="#2d356b"/>
          </g>
          <g id="Group_11576" data-name="Group 11576" transform="translate(60.454)">
            <path id="Path_15867" data-name="Path 15867" d="M695.191,2347.649h44.273a2.738,2.738,0,0,0,2.69-2.227l5.967-31.412a2.738,2.738,0,0,0-2.69-3.249H701.158a2.738,2.738,0,0,0-2.69,2.227L692.5,2344.4A2.738,2.738,0,0,0,695.191,2347.649Z" transform="translate(-665.178 -2310.761)" fill="#cfd0d8"/>
            <path id="Path_15868" data-name="Path 15868" d="M698.469,2313.946a1.484,1.484,0,1,1,2.185,1.022l-5.967,31.412a1.484,1.484,0,1,1-2.185-1.023Z" transform="translate(-665.178 -2311.719)" fill="#ebebeb"/>
            <path id="Path_15869" data-name="Path 15869" d="M617.761,2419.11h68.055a3.115,3.115,0,0,0,3.116-3.115H614.645A3.115,3.115,0,0,0,617.761,2419.11Z" transform="translate(-614.645 -2379.107)" fill="#9898a4"/>
            <path id="Path_15870" data-name="Path 15870" d="M614.645,2415.995h28.648a3.345,3.345,0,0,1-3.536,3.115H618.181A3.346,3.346,0,0,1,614.645,2415.995Z" transform="translate(-614.645 -2379.107)" fill="#cfd0d8"/>
            <circle id="Ellipse_600" data-name="Ellipse 600" cx="3.142" cy="3.142" r="3.142" transform="translate(52.013 20.145) rotate(-67.5)" fill="#fff4ba"/>
          </g>
        </g>
      </g>
      <g id="Group_11579" data-name="Group 11579" transform="translate(2.938 72.57)">
        <path id="Path_15871" data-name="Path 15871" d="M451.65,2405.158s5.8-3.913,5.63-7.588c0,0,16.991,4.825,19.5.157l.949,10.958S468.433,2411.628,451.65,2405.158Z" transform="translate(-451.269 -2391.817)" fill="#ebebeb"/>
        <path id="Path_15872" data-name="Path 15872" d="M450.564,2403.593s5.8-3.913,5.63-7.589c0,0,16.991,4.826,19.5.158l.949,10.958S467.348,2410.063,450.564,2403.593Z" transform="translate(-450.564 -2390.799)" fill="#ebebeb"/>
        <path id="Path_15873" data-name="Path 15873" d="M452.97,2402.943s5.8-3.913,5.63-7.589c0,0,16.991,4.826,19.5.158l.949,10.958S469.753,2409.413,452.97,2402.943Z" transform="translate(-452.127 -2390.377)" fill="#ebebeb"/>
        <path id="Path_15874" data-name="Path 15874" d="M455.564,2402.112s5.8-3.913,5.63-7.589c0,0,16.991,4.826,19.5.157l.949,10.958S472.347,2408.581,455.564,2402.112Z" transform="translate(-453.811 -2389.837)" fill="#ebebeb"/>
        <path id="Path_15875" data-name="Path 15875" d="M456.1,2400.985s5.8-3.913,5.63-7.589c0,0,16.991,4.826,19.5.158l.949,10.958S472.884,2407.455,456.1,2400.985Z" transform="translate(-454.16 -2389.106)" fill="#fff"/>
        <path id="Path_15876" data-name="Path 15876" d="M455.337,2392.917s5.8-3.912,5.63-7.588c0,0,16.991,4.826,19.5.158l.949,10.958S472.12,2399.387,455.337,2392.917Z" transform="translate(-453.664 -2383.866)" fill="#ebebeb"/>
        <path id="Path_15877" data-name="Path 15877" d="M454.251,2391.353s5.8-3.913,5.63-7.589c0,0,16.991,4.826,19.5.158l.949,10.958S471.035,2397.823,454.251,2391.353Z" transform="translate(-452.959 -2382.85)" fill="#ebebeb"/>
        <path id="Path_15878" data-name="Path 15878" d="M456.656,2390.7s5.8-3.913,5.63-7.589c0,0,16.991,4.826,19.5.158l.949,10.958S473.44,2397.173,456.656,2390.7Z" transform="translate(-454.521 -2382.428)" fill="#ebebeb"/>
        <path id="Path_15879" data-name="Path 15879" d="M459.251,2389.871s5.8-3.913,5.63-7.589c0,0,16.991,4.826,19.5.158l.949,10.958S476.034,2396.341,459.251,2389.871Z" transform="translate(-456.206 -2381.887)" fill="#fff"/>
        <path id="Path_15880" data-name="Path 15880" d="M459.787,2388.744s5.8-3.912,5.63-7.588c0,0,16.991,4.826,19.5.157l.949,10.958S476.57,2395.214,459.787,2388.744Z" transform="translate(-456.554 -2381.156)" fill="#c3e8e6"/>
      </g>
      <g id="Group_11580" data-name="Group 11580" transform="translate(1.322 62.919)">
        <path id="Path_15881" data-name="Path 15881" d="M447.039,2377.626s5.8-3.913,5.63-7.589c0,0,16.991,4.826,19.5.158l.949,10.958S463.822,2384.1,447.039,2377.626Z" transform="translate(-446.658 -2364.283)" fill="#ebebeb"/>
        <path id="Path_15882" data-name="Path 15882" d="M445.953,2376.061s5.8-3.913,5.63-7.589c0,0,16.991,4.826,19.5.158l.949,10.957S462.737,2382.53,445.953,2376.061Z" transform="translate(-445.953 -2363.267)" fill="#fff"/>
        <path id="Path_15883" data-name="Path 15883" d="M448.358,2375.411s5.8-3.913,5.63-7.589c0,0,16.991,4.826,19.5.157l.949,10.958S465.141,2381.88,448.358,2375.411Z" transform="translate(-447.515 -2362.845)" fill="#ebebeb"/>
        <path id="Path_15884" data-name="Path 15884" d="M450.953,2374.579s5.8-3.913,5.63-7.589c0,0,16.991,4.826,19.5.158l.949,10.958S467.737,2381.049,450.953,2374.579Z" transform="translate(-449.2 -2362.304)" fill="#ebebeb"/>
        <path id="Path_15885" data-name="Path 15885" d="M451.49,2373.452s5.8-3.913,5.63-7.588c0,0,16.991,4.826,19.5.158l.949,10.958S468.273,2379.922,451.49,2373.452Z" transform="translate(-449.549 -2361.573)" fill="#ffac00"/>
        <path id="Path_15886" data-name="Path 15886" d="M450.725,2365.385s5.8-3.913,5.63-7.589c0,0,16.991,4.826,19.5.158l.949,10.958S467.508,2371.855,450.725,2365.385Z" transform="translate(-449.052 -2356.333)" fill="#ebebeb"/>
        <path id="Path_15887" data-name="Path 15887" d="M449.639,2363.82s5.8-3.913,5.63-7.589c0,0,16.991,4.826,19.5.157l.949,10.958S466.423,2370.29,449.639,2363.82Z" transform="translate(-448.347 -2355.317)" fill="#ebebeb"/>
        <path id="Path_15888" data-name="Path 15888" d="M452.045,2363.17s5.8-3.913,5.63-7.589c0,0,16.991,4.827,19.5.158l.949,10.958S468.828,2369.64,452.045,2363.17Z" transform="translate(-449.91 -2354.895)" fill="#ebebeb"/>
        <path id="Path_15889" data-name="Path 15889" d="M454.639,2362.338s5.8-3.913,5.63-7.588c0,0,16.991,4.826,19.5.158l.949,10.957S471.422,2368.808,454.639,2362.338Z" transform="translate(-451.594 -2354.355)" fill="#fff"/>
        <path id="Path_15890" data-name="Path 15890" d="M455.176,2361.212s5.8-3.913,5.63-7.589c0,0,16.991,4.826,19.5.158l.949,10.958S471.96,2367.682,455.176,2361.212Z" transform="translate(-451.943 -2353.623)" fill="#cfd0d8"/>
      </g>
      <g id="Group_11581" data-name="Group 11581" transform="translate(30.248 72.327)">
        <path id="Path_15891" data-name="Path 15891" d="M529.791,2409.231s5.116-4.775,4.369-8.379c0,0,17.538,2.1,19.282-2.9l2.656,10.673S547.382,2412.987,529.791,2409.231Z" transform="translate(-529.329 -2391.819)" fill="#ebebeb"/>
        <path id="Path_15892" data-name="Path 15892" d="M528.473,2407.856s5.116-4.775,4.369-8.378c0,0,17.538,2.1,19.282-2.9l2.656,10.673S546.064,2411.612,528.473,2407.856Z" transform="translate(-528.473 -2390.926)" fill="#ebebeb"/>
        <path id="Path_15893" data-name="Path 15893" d="M530.746,2406.837s5.116-4.775,4.37-8.378c0,0,17.538,2.1,19.282-2.9l2.656,10.673S548.337,2410.593,530.746,2406.837Z" transform="translate(-529.949 -2390.264)" fill="#ebebeb"/>
        <path id="Path_15894" data-name="Path 15894" d="M533.178,2405.608s5.116-4.775,4.37-8.378c0,0,17.538,2.1,19.283-2.9L559.487,2405S550.769,2409.364,533.178,2405.608Z" transform="translate(-531.529 -2389.466)" fill="#ebebeb"/>
        <path id="Path_15895" data-name="Path 15895" d="M533.532,2404.412s5.116-4.775,4.369-8.378c0,0,17.538,2.1,19.282-2.9l2.656,10.673S551.122,2408.168,533.532,2404.412Z" transform="translate(-531.759 -2388.689)" fill="#fff"/>
        <path id="Path_15896" data-name="Path 15896" d="M531.511,2396.564s5.116-4.774,4.369-8.378c0,0,17.538,2.1,19.282-2.9l2.656,10.673S549.1,2400.32,531.511,2396.564Z" transform="translate(-530.446 -2383.593)" fill="#ebebeb"/>
        <path id="Path_15897" data-name="Path 15897" d="M530.193,2395.188s5.116-4.775,4.369-8.378c0,0,17.538,2.1,19.282-2.9l2.656,10.673S547.784,2398.944,530.193,2395.188Z" transform="translate(-529.59 -2382.699)" fill="#ebebeb"/>
        <path id="Path_15898" data-name="Path 15898" d="M532.466,2394.169s5.116-4.775,4.37-8.378c0,0,17.538,2.1,19.282-2.9l2.656,10.673S550.057,2397.925,532.466,2394.169Z" transform="translate(-531.066 -2382.037)" fill="#ebebeb"/>
        <path id="Path_15899" data-name="Path 15899" d="M534.9,2392.941s5.116-4.775,4.37-8.378c0,0,17.538,2.1,19.282-2.9l2.656,10.673S552.489,2396.7,534.9,2392.941Z" transform="translate(-532.646 -2381.239)" fill="#fff"/>
        <path id="Path_15900" data-name="Path 15900" d="M535.252,2391.744s5.116-4.775,4.369-8.379c0,0,17.538,2.1,19.282-2.9l2.656,10.674S552.842,2395.5,535.252,2391.744Z" transform="translate(-532.876 -2380.462)" fill="#54ccca"/>
      </g>
      <g id="Group_11582" data-name="Group 11582" transform="translate(27.014 65.66)">
        <path id="Path_15901" data-name="Path 15901" d="M520.565,2390.211s5.116-4.775,4.369-8.378c0,0,17.538,2.1,19.282-2.9l2.656,10.673S538.156,2393.968,520.565,2390.211Z" transform="translate(-520.103 -2372.8)" fill="#ebebeb"/>
        <path id="Path_15902" data-name="Path 15902" d="M519.247,2388.836s5.116-4.775,4.369-8.378c0,0,17.538,2.1,19.282-2.9l2.656,10.673S536.838,2392.592,519.247,2388.836Z" transform="translate(-519.247 -2371.906)" fill="#ebebeb"/>
        <path id="Path_15903" data-name="Path 15903" d="M521.52,2387.816s5.116-4.774,4.37-8.378c0,0,17.538,2.1,19.282-2.9l2.656,10.673S539.111,2391.573,521.52,2387.816Z" transform="translate(-520.723 -2371.244)" fill="#ebebeb"/>
        <path id="Path_15904" data-name="Path 15904" d="M523.952,2386.589s5.116-4.775,4.37-8.378c0,0,17.538,2.1,19.282-2.9l2.656,10.673S541.543,2390.345,523.952,2386.589Z" transform="translate(-522.303 -2370.447)" fill="#ebebeb"/>
        <path id="Path_15905" data-name="Path 15905" d="M524.306,2385.392s5.116-4.775,4.369-8.378c0,0,17.538,2.1,19.282-2.9l2.656,10.673S541.9,2389.148,524.306,2385.392Z" transform="translate(-522.533 -2369.67)" fill="#fff"/>
        <path id="Path_15906" data-name="Path 15906" d="M522.285,2377.544s5.116-4.775,4.369-8.378c0,0,17.538,2.1,19.282-2.9l2.656,10.673S539.876,2381.3,522.285,2377.544Z" transform="translate(-521.22 -2364.573)" fill="#ebebeb"/>
        <path id="Path_15907" data-name="Path 15907" d="M520.967,2376.169s5.116-4.775,4.37-8.378c0,0,17.538,2.1,19.282-2.9l2.656,10.673S538.558,2379.925,520.967,2376.169Z" transform="translate(-520.364 -2363.68)" fill="#ebebeb"/>
        <path id="Path_15908" data-name="Path 15908" d="M523.24,2375.15s5.116-4.775,4.37-8.378c0,0,17.538,2.1,19.282-2.9l2.656,10.673S540.831,2378.906,523.24,2375.15Z" transform="translate(-521.84 -2363.018)" fill="#ebebeb"/>
        <path id="Path_15909" data-name="Path 15909" d="M525.672,2373.921s5.116-4.775,4.37-8.378c0,0,17.538,2.1,19.282-2.9l2.656,10.674S543.263,2377.677,525.672,2373.921Z" transform="translate(-523.42 -2362.22)" fill="#fff"/>
        <path id="Path_15910" data-name="Path 15910" d="M526.026,2372.725s5.116-4.775,4.369-8.378c0,0,17.538,2.1,19.282-2.9l2.656,10.673S543.616,2376.481,526.026,2372.725Z" transform="translate(-523.65 -2361.443)" fill="#fff4ba"/>
      </g>
    </g>
    <g id="Group_11586" data-name="Group 11586" transform="translate(52.192 1528.795)">
      <g id="Group_11584" data-name="Group 11584" transform="translate(2.061 15.523)">
        <path id="Path_15911" data-name="Path 15911" d="M868.748,2354.483a.824.824,0,0,1-.824-.824v-3.075a.552.552,0,0,0-.552-.552H856.688a.552.552,0,0,0-.552.552v3.075a.824.824,0,0,1-1.648,0v-3.075a2.2,2.2,0,0,1,2.2-2.2h10.684a2.2,2.2,0,0,1,2.2,2.2v3.075A.824.824,0,0,1,868.748,2354.483Z" transform="translate(-854.488 -2348.383)" fill="#9999a5"/>
      </g>
      <path id="Path_15912" data-name="Path 15912" d="M856.269,2313.5s6.029,3.554,9.273,1.818c0,0,2.953,17.415,8.246,17.671l-9.484,5.57S857.649,2331.438,856.269,2313.5Z" transform="translate(-853.584 -2310.207)" fill="#ebebeb"/>
      <path id="Path_15913" data-name="Path 15913" d="M857.215,2311.85s6.028,3.554,9.273,1.818c0,0,2.953,17.415,8.246,17.67l-9.484,5.571S858.595,2329.784,857.215,2311.85Z" transform="translate(-854.199 -2309.133)" fill="#ebebeb"/>
      <path id="Path_15914" data-name="Path 15914" d="M858.836,2313.742s6.028,3.554,9.273,1.817c0,0,2.953,17.415,8.246,17.67l-9.484,5.571S860.216,2331.676,858.836,2313.742Z" transform="translate(-855.251 -2310.362)" fill="#ebebeb"/>
      <path id="Path_15915" data-name="Path 15915" d="M860.7,2315.727s6.028,3.554,9.273,1.818c0,0,2.953,17.415,8.246,17.671l-9.484,5.57S862.083,2333.661,860.7,2315.727Z" transform="translate(-856.464 -2311.65)" fill="#ebebeb"/>
      <path id="Path_15916" data-name="Path 15916" d="M861.951,2315.727s6.029,3.554,9.273,1.818c0,0,2.953,17.415,8.246,17.671l-9.484,5.57S863.331,2333.661,861.951,2315.727Z" transform="translate(-857.274 -2311.65)" fill="#fff"/>
      <path id="Path_15917" data-name="Path 15917" d="M868.905,2311.566s6.028,3.554,9.273,1.818c0,0,2.953,17.415,8.246,17.671l-9.484,5.57S870.285,2329.5,868.905,2311.566Z" transform="translate(-861.791 -2308.948)" fill="#ebebeb"/>
      <path id="Path_15918" data-name="Path 15918" d="M869.851,2309.912s6.028,3.554,9.273,1.818c0,0,2.953,17.415,8.246,17.671l-9.484,5.571S871.231,2327.846,869.851,2309.912Z" transform="translate(-862.405 -2307.874)" fill="#ebebeb"/>
      <path id="Path_15919" data-name="Path 15919" d="M871.472,2311.8s6.028,3.554,9.273,1.818c0,0,2.953,17.415,8.246,17.671l-9.484,5.57S872.852,2329.738,871.472,2311.8Z" transform="translate(-863.458 -2309.103)" fill="#ebebeb"/>
      <path id="Path_15920" data-name="Path 15920" d="M873.339,2313.788s6.028,3.554,9.273,1.818c0,0,2.953,17.415,8.246,17.67l-9.484,5.571S874.719,2331.722,873.339,2313.788Z" transform="translate(-864.67 -2310.391)" fill="#fff"/>
      <path id="Path_15921" data-name="Path 15921" d="M874.587,2313.788s6.029,3.554,9.273,1.818c0,0,2.953,17.415,8.246,17.67l-9.484,5.571S875.967,2331.722,874.587,2313.788Z" transform="translate(-865.481 -2310.391)" fill="#ebebeb"/>
      <path id="Path_15922" data-name="Path 15922" d="M902.36,2307.69s6.029,3.555,9.273,1.818c0,0,2.953,17.415,8.246,17.671l-9.484,5.57S903.74,2325.624,902.36,2307.69Z" transform="translate(-883.519 -2306.431)" fill="#ebebeb"/>
      <path id="Path_15923" data-name="Path 15923" d="M903.306,2306.036s6.029,3.554,9.273,1.817c0,0,2.953,17.415,8.246,17.671l-9.484,5.571S904.686,2323.97,903.306,2306.036Z" transform="translate(-884.133 -2305.356)" fill="#ebebeb"/>
      <path id="Path_15924" data-name="Path 15924" d="M904.927,2307.928s6.028,3.554,9.273,1.817c0,0,2.953,17.415,8.246,17.671l-9.484,5.57S906.307,2325.863,904.927,2307.928Z" transform="translate(-885.186 -2306.585)" fill="#ebebeb"/>
      <path id="Path_15925" data-name="Path 15925" d="M906.794,2309.912s6.028,3.554,9.273,1.818c0,0,2.953,17.415,8.246,17.671l-9.484,5.571S908.174,2327.846,906.794,2309.912Z" transform="translate(-886.398 -2307.874)" fill="#ebebeb"/>
      <path id="Path_15926" data-name="Path 15926" d="M908.041,2309.912s6.028,3.554,9.273,1.818c0,0,2.953,17.415,8.246,17.671l-9.484,5.571S909.421,2327.846,908.041,2309.912Z" transform="translate(-887.208 -2307.874)" fill="#fff"/>
      <path id="Path_15927" data-name="Path 15927" d="M915,2305.751s6.028,3.555,9.273,1.818c0,0,2.953,17.415,8.246,17.67l-9.484,5.571S916.376,2323.685,915,2305.751Z" transform="translate(-891.725 -2305.171)" fill="#ebebeb"/>
      <path id="Path_15928" data-name="Path 15928" d="M915.942,2304.1s6.028,3.554,9.273,1.818c0,0,2.953,17.415,8.246,17.67l-9.484,5.571S917.322,2322.032,915.942,2304.1Z" transform="translate(-892.34 -2304.098)" fill="#ebebeb"/>
      <path id="Path_15929" data-name="Path 15929" d="M917.563,2305.99s6.029,3.554,9.273,1.818c0,0,2.953,17.415,8.246,17.671l-9.484,5.57S918.943,2323.924,917.563,2305.99Z" transform="translate(-893.392 -2305.327)" fill="#ebebeb"/>
      <path id="Path_15930" data-name="Path 15930" d="M919.43,2307.974s6.028,3.554,9.273,1.818c0,0,2.953,17.415,8.246,17.671l-9.484,5.571S920.81,2325.908,919.43,2307.974Z" transform="translate(-894.605 -2306.615)" fill="#fff"/>
      <path id="Path_15931" data-name="Path 15931" d="M920.677,2307.974s6.029,3.554,9.273,1.818c0,0,2.953,17.415,8.246,17.671l-9.484,5.571S922.057,2325.908,920.677,2307.974Z" transform="translate(-895.415 -2306.615)" fill="#cfd0d8"/>
      <g id="Group_11585" data-name="Group 11585" transform="translate(26.625 15.523)">
        <path id="Path_15932" data-name="Path 15932" d="M938.825,2354.483a.824.824,0,0,1-.824-.824v-3.075a.552.552,0,0,0-.552-.552H926.765a.552.552,0,0,0-.552.552v3.075a.824.824,0,0,1-1.649,0v-3.075a2.2,2.2,0,0,1,2.2-2.2h10.684a2.2,2.2,0,0,1,2.2,2.2v3.075A.824.824,0,0,1,938.825,2354.483Z" transform="translate(-924.565 -2348.383)" fill="#9999a5"/>
      </g>
      <rect id="Rectangle_3616" data-name="Rectangle 3616" width="26.872" height="23.08" rx="3.762" transform="translate(15.909 20.222)" fill="#ffac00"/>
      <path id="Path_15933" data-name="Path 15933" d="M916.735,2363.105v20.443a1.321,1.321,0,0,1-1.322,1.319h-20.1a1.318,1.318,0,0,1-1.319-1.319v-20.443a1.318,1.318,0,0,1,1.319-1.318h20.1A1.321,1.321,0,0,1,916.735,2363.105Z" transform="translate(-878.086 -2341.565)" fill="#f8c471"/>
      <rect id="Rectangle_3617" data-name="Rectangle 3617" width="26.872" height="23.08" rx="3.766" transform="translate(0 20.222)" fill="#ffd9a4"/>
    </g>
    <g id="Group_11597" data-name="Group 11597" transform="translate(301.849 1432.035)">
      <g id="Group_11596" data-name="Group 11596" transform="translate(0)">
        <g id="Group_11587" data-name="Group 11587" transform="translate(28.719 107.529)">
          <path id="Path_15934" data-name="Path 15934" d="M1887.9,2381.8c-4.16,22.04-13.652,44.89-15.2,55.368s-.724,25.8-6.2,63.506c-.135.933-2.413.015-2.413.015,3.735-37.281-.441-57.46.2-60.561s-2.727-53.922-5.53-71.092C1868,2368.717,1887.9,2381.8,1887.9,2381.8Z" transform="translate(-1857.04 -2362.037)" fill="#2d356b"/>
          <path id="Path_15935" data-name="Path 15935" d="M1861.543,2349.081s21.508,1.6,27.078,2.411c5.872,16.744-7.788,33.164,1.041,84.564,2.55,14.846,6.606,26.1,8.3,54.791l-3.2-.115c-1.193-26.01-6.7-40.646-11.171-54.068C1868.083,2390.147,1857.563,2381.152,1861.543,2349.081Z" transform="translate(-1858.303 -2349.081)" fill="#40558e"/>
          <path id="Path_15936" data-name="Path 15936" d="M1939.411,2750.34l11.151.4s-.639-3.1-2.862-3.027S1939.411,2750.34,1939.411,2750.34Z" transform="translate(-1909.426 -2607.98)" fill="#9898a4"/>
          <path id="Path_15937" data-name="Path 15937" d="M1853.868,2746.317l10.023,1.441s.108-3.57-1.919-3.682S1853.868,2746.317,1853.868,2746.317Z" transform="translate(-1853.868 -2605.615)" fill="#9898a4"/>
          <path id="Path_15938" data-name="Path 15938" d="M1864.794,2353.641l25.521,2.044-.256,2.585-25.521-2.044Z" transform="translate(-1860.798 -2352.042)" fill="#cecfd7"/>
          <rect id="Rectangle_3618" data-name="Rectangle 3618" width="4.922" height="1.845" transform="matrix(0.08, -0.997, 0.997, 0.08, 23.873, 7.282)" fill="#40558d"/>
          <rect id="Rectangle_3619" data-name="Rectangle 3619" width="4.922" height="1.845" transform="translate(18.136 7.076) rotate(-85.412)" fill="#40558d"/>
          <rect id="Rectangle_3620" data-name="Rectangle 3620" width="4.922" height="1.845" transform="translate(11.996 6.65) rotate(-85.412)" fill="#40558d"/>
          <rect id="Rectangle_3621" data-name="Rectangle 3621" width="4.921" height="1.845" transform="translate(5.666 5.806) rotate(-85.413)" fill="#40558d"/>
        </g>
        <g id="Group_11595" data-name="Group 11595">
          <g id="Group_11588" data-name="Group 11588" transform="translate(22.601 28.857)">
            <path id="Path_15939" data-name="Path 15939" d="M1887.139,2142.4l1.213.436.393,3.072-2.793,1.091Z" transform="translate(-1868.588 -2126.178)" fill="#eaeaea"/>
            <path id="Path_15940" data-name="Path 15940" d="M1891.519,2100.256l11.5-4.138.313,18.488-16.459,4.632Z" transform="translate(-1869.188 -2096.118)" fill="#f7c371"/>
            <path id="Path_15941" data-name="Path 15941" d="M1843,2260.394l21.61,6.871.922,32.543-19.207.662Z" transform="translate(-1840.694 -2202.81)" fill="#eaeaea"/>
            <path id="Path_15942" data-name="Path 15942" d="M1880.38,2237.51c-13.811-.482-29.82-5.743-36.767-21.643-3.758-8.6-3.6-22.739-3.724-36.747-.161-18.725,20.9-43.1,37.488-37.423,23.049,7.891,7.621,38.121,4.835,46.107C1874.05,2211.2,1879.876,2232.282,1880.38,2237.51Z" transform="translate(-1838.67 -2125.177)" fill="#7b88ac"/>
            <path id="Path_15943" data-name="Path 15943" d="M1887,2261.645c.246-6.145,3.235-25,14.9-45.879,2.262-4.05,4.9-16.184,7.384-26.314.929-3.782,7.355,3.568,8.238,12.881.548,5.777-3.647,13.314-4.713,16.371-8.162,23.4-2.336,44.478-1.832,49.705C1903,2268.131,1894.28,2266.249,1887,2261.645Z" transform="translate(-1869.269 -2156.077)" fill="#2d356b"/>
            <path id="Path_15944" data-name="Path 15944" d="M1839.9,2196.973c1.924-24.133,21.2-47.384,38.109-53.653,2.84-1.053.38-3.211-7.654-2.7C1863.165,2141.106,1833.991,2154.594,1839.9,2196.973Z" transform="translate(-1838.168 -2124.97)" fill="#2d356b"/>
            <path id="Path_15945" data-name="Path 15945" d="M1840.889,2181.321c3.32-20.235,11.214-30.688,29.239-40.559-7.009.474-35.044,9.154-30.954,48.882C1839.277,2190.656,1840.316,2184.819,1840.889,2181.321Z" transform="translate(-1837.943 -2125.113)" fill="#7b88ac"/>
            <path id="Path_15946" data-name="Path 15946" d="M1848.393,2335.891c-.09-.852.314-1.594.9-1.657s1.139.579,1.23,1.431-.313,1.594-.9,1.657S1848.484,2336.743,1848.393,2335.891Z" transform="translate(-1844.186 -2250.763)" fill="#2d356b"/>
            <path id="Path_15947" data-name="Path 15947" d="M1845.332,2307.062c-.09-.851.314-1.594.9-1.657s1.14.578,1.23,1.431-.312,1.595-.9,1.656S1845.423,2307.915,1845.332,2307.062Z" transform="translate(-1842.198 -2232.041)" fill="#2d356b"/>
            <path id="Path_15948" data-name="Path 15948" d="M1890.628,2146.788l-4.193,1.318,1.579-4.48.8-.4Z" transform="translate(-1868.901 -2126.712)" fill="#ffb2b0"/>
            <path id="Path_15949" data-name="Path 15949" d="M1837.441,2200.775l1.534-8.163s-2.964-25.684,15.89-37.985l-.207-.653C1839.145,2164.58,1833.984,2183.434,1837.441,2200.775Z" transform="translate(-1836.414 -2133.694)" fill="#ffb2b0"/>
            <path id="Path_15950" data-name="Path 15950" d="M1889.339,2135.171l16.451-3.9,1.983,3.333-15.669,5.856Z" transform="translate(-1870.787 -2118.948)" fill="#fff"/>
          </g>
          <g id="Group_11590" data-name="Group 11590" transform="translate(0 58.707)">
            <path id="Path_15951" data-name="Path 15951" d="M1900.435,2232.036c4.638,2.374,23.721-44.53,18.959-49.676,0,0-11.663-6.252-27.954,11.249C1891.44,2193.61,1886.659,2224.985,1900.435,2232.036Z" transform="translate(-1849.03 -2181.275)" fill="#40558e"/>
            <g id="Group_11589" data-name="Group 11589" transform="translate(0 73.581)">
              <path id="Path_15952" data-name="Path 15952" d="M1804.155,2393.494c-3.074,2.157-5.8,11-8.534,9.2-2.454-1.61-4.012-7.826,6.758-11.506Z" transform="translate(-1786.16 -2391.188)" fill="#ffd9a4"/>
              <path id="Path_15953" data-name="Path 15953" d="M1792,2399.453c4.512,2.569,1.362,8.054-.028,9.552-1.53,1.646-5.491.633-6.28-.972S1790.275,2398.474,1792,2399.453Z" transform="translate(-1780.82 -2396.502)" fill="#ffd9a4"/>
              <path id="Path_15954" data-name="Path 15954" d="M1778.6,2405.184c-2.991.648-6.721-.049-6.661-1.219.065-1.32,3.159-.117,5.7-1.353,2.756-1.333,4.559-2.025,5.13-.991S1781.6,2404.538,1778.6,2405.184Z" transform="translate(-1771.938 -2397.641)" fill="#ffd9a4"/>
              <path id="Path_15955" data-name="Path 15955" d="M1777.669,2416.763c-1.794,1.912-3.171,2.5-3.623,1.964s.637-1.561,2.427-3.472,3.594-4.788,4.047-4.253S1779.456,2414.848,1777.669,2416.763Z" transform="translate(-1773.239 -2404.013)" fill="#ffd9a4"/>
              <path id="Path_15956" data-name="Path 15956" d="M1783.739,2424.335c-1.4,2.278-3.623,3.626-4.164,3.2s1.243-2.208,2.644-4.485,2.431-3.68,2.971-3.253S1785.139,2422.057,1783.739,2424.335Z" transform="translate(-1776.834 -2409.719)" fill="#ffd9a4"/>
              <path id="Path_15957" data-name="Path 15957" d="M1794.516,2423.292c-1.49,2.218-2.824,3.119-3.351,2.68s.73-1.715,2.22-3.931,2.565-3.75,3.094-3.31S1796.007,2421.073,1794.516,2423.292Z" transform="translate(-1784.345 -2409.028)" fill="#ffd9a4"/>
            </g>
            <path id="Path_15958" data-name="Path 15958" d="M1894.308,2254.159c-13.8-9.145-7.531-35.038-7.531-35.038a9.677,9.677,0,0,1,1.714-1.609C1884.833,2237.75,1894.881,2254.539,1894.308,2254.159Z" transform="translate(-1845.6 -2204.81)" fill="#2d356b"/>
            <path id="Path_15959" data-name="Path 15959" d="M1808.306,2392.348l5.416-2.383-5.489-7-3.312,4.768Z" transform="translate(-1793.359 -2312.268)" fill="#eaeaea"/>
            <path id="Path_15960" data-name="Path 15960" d="M1852.119,2301.664s-9.35,12.7-35.843,30.56c0,0-3.36-1.126-5.224-7.026,0,0,13.773-23.979,27.54-32.881C1838.592,2292.317,1851.79,2295.473,1852.119,2301.664Z" transform="translate(-1797.341 -2253.393)" fill="#40558e"/>
            <path id="Path_15961" data-name="Path 15961" d="M1823.4,2383.418a1.25,1.25,0,1,1,.036-1.94A1.387,1.387,0,0,1,1823.4,2383.418Z" transform="translate(-1803.88 -2311.141)" fill="#2d356b"/>
          </g>
          <g id="Group_11594" data-name="Group 11594" transform="translate(33.874)">
            <path id="Path_15962" data-name="Path 15962" d="M1902.115,2044.535c8.044-9.512,7.417-25.273,7.033-25.827-4.1-5.917-15.723-5.462-21.6-3.906-4.951,1.312-8.848,4.03-6.412,7.9.841,1.337,4.783-1.653,5.983-1.488,2.267.312,3.482,31.529,3.482,31.529Z" transform="translate(-1876.252 -2013.795)" fill="#ffac00"/>
            <g id="Group_11592" data-name="Group 11592" transform="translate(0 7.182)">
              <g id="Group_11591" data-name="Group 11591">
                <path id="Path_15963" data-name="Path 15963" d="M1877.59,2102.2l-1.153-1.985,1.594-.966Z" transform="translate(-1873.682 -2076.478)" fill="#ffd8a3"/>
                <path id="Path_15964" data-name="Path 15964" d="M1897,2061.649c-.975,2.633-9.215,8.167-17.3,7.678-.751-10.537-.094-27.9,1.912-30.832,1.974-2.886,9.754-4.9,10.692-3.995-2.883,3.334,1.5,14.664,3.14,15.724C1899.438,2052.805,1898.018,2058.9,1897,2061.649Z" transform="translate(-1875.606 -2034.283)" fill="#ffd8a3"/>
                <path id="Path_15965" data-name="Path 15965" d="M1868.575,2084.692a74.534,74.534,0,0,0,4.121-8.816c1.263-3.3.671,8.883.671,8.883S1869.748,2085.535,1868.575,2084.692Z" transform="translate(-1868.575 -2060.928)" fill="#ffd8a3"/>
                <path id="Path_15966" data-name="Path 15966" d="M1877,2129.429c-.811-.359-1.206-1.14-.88-1.743a1.6,1.6,0,0,1,2.06-.441c.813.359,1.207,1.14.881,1.743A1.6,1.6,0,0,1,1877,2129.429Z" transform="translate(-1873.4 -2094.542)" fill="#ffd8a3"/>
                <path id="Path_15967" data-name="Path 15967" d="M1877.75,2118.139c-.025-.213.217-.416.54-.453s.6.105.628.318-.217.416-.539.453S1877.774,2118.352,1877.75,2118.139Z" transform="translate(-1874.533 -2088.447)" fill="#ffd8a3"/>
              </g>
              <path id="Path_15968" data-name="Path 15968" d="M1924.461,2076.123c.48-1.909,1.979-3.24,3.347-2.973s2.088,2.032,1.608,3.941-3.1,2.986-4.471,2.719S1923.981,2078.031,1924.461,2076.123Z" transform="translate(-1904.578 -2059.503)" fill="#ffd8a3"/>
            </g>
            <path id="Path_15969" data-name="Path 15969" d="M1879.361,2110.684l.137,2.678s1.105.319,1.359.081a4.881,4.881,0,0,0,.911-2.319Z" transform="translate(-1875.58 -2076.721)" fill="#ffab00"/>
            <path id="Path_15970" data-name="Path 15970" d="M1879.554,2110.985l.123,2.379a3.038,3.038,0,0,0,1,.159,3.5,3.5,0,0,0,.872-2.191Z" transform="translate(-1875.705 -2076.917)" fill="#fff"/>
            <path id="Path_15971" data-name="Path 15971" d="M1882.963,2065.809a1.046,1.046,0,0,0-.288.679c0,.626,3.387,2.353,3.882,1.776l.31-.362c.357-.416-.825-.754-1.71-1.4-.846-.621-1.383-1.572-1.732-1.192Z" transform="translate(-1877.732 -2047.194)" fill="#2d356b"/>
            <path id="Path_15972" data-name="Path 15972" d="M1886.316,2078.4c-.012-.636.328-1.192.76-1.242s.792.425.805,1.061-.328,1.191-.759,1.241S1886.33,2079.032,1886.316,2078.4Z" transform="translate(-1880.097 -2054.942)" fill="#2d356b"/>
            <path id="Path_15973" data-name="Path 15973" d="M1885.99,2111.745c-.013-.1.053-.152.15-.125a.292.292,0,0,1,.2.219c.013.094-.053.151-.149.125A.291.291,0,0,1,1885.99,2111.745Z" transform="translate(-1879.884 -2077.325)" fill="#ffab00"/>
            <g id="Group_11593" data-name="Group 11593" transform="translate(4.087 1.778)">
              <path id="Path_15974" data-name="Path 15974" d="M1915.343,2039.443c-3.5.246,1.965,16.106.186,17.243s-.025,2.437.91,2.083c2.142-.812,2.52-5.292,2.669-8.144C1919.275,2047.448,1915.639,2039.422,1915.343,2039.443Z" transform="translate(-1902.257 -2032.23)" fill="#ffac00"/>
              <path id="Path_15975" data-name="Path 15975" d="M1880.324,2025.245c-.561-2.527,1.528-5.142,4.666-5.839s12.309-1.134,12.87,1.393-7.7,7.063-10.837,7.759S1880.885,2027.771,1880.324,2025.245Z" transform="translate(-1880.233 -2018.866)" fill="#ffac00"/>
            </g>
          </g>
        </g>
      </g>
    </g>
    <g id="Group_11598" data-name="Group 11598" transform="translate(309.234 1531.767)">
      <rect id="Rectangle_3622" data-name="Rectangle 3622" width="57.481" height="30.735" rx="6.672" transform="translate(0)" fill="#fff" stroke="#231f20" stroke-miterlimit="10" stroke-width="0.25"/>
      <text id="Nick" transform="translate(18.741 18.867)" fill="#2d356b" font-size="10" font-family="TrebuchetMS-Bold, Trebuchet MS" font-weight="700"><tspan x="0" y="0">Nick</tspan></text>
    </g>
    <g id="Group_11599" data-name="Group 11599" transform="translate(-102.737 1535.079)">
      <rect id="Rectangle_3623" data-name="Rectangle 3623" width="57.481" height="30.735" rx="6.672" transform="translate(0 0)" fill="#fff" stroke="#231f20" stroke-miterlimit="10" stroke-width="0.25"/>
      <text id="Helen" transform="translate(15.612 18.992)" fill="#2d356b" font-size="10" font-family="TrebuchetMS-Bold, Trebuchet MS" font-weight="700"><tspan x="0" y="0">Helen</tspan></text>
    </g>
    <g id="Group_11565" data-name="Group 11565" transform="translate(-112.253 1325.882)">
      <rect id="Rectangle_3611" data-name="Rectangle 3611" width="66.998" height="39.525" transform="translate(66.998 39.525) rotate(-180)" fill="#ebebeb"/>
    </g>
    <text id="_1" data-name="1" transform="translate(-99.668 1356.05)" fill="#2d356b" font-size="34" font-family="TrebuchetMS-Bold, Trebuchet MS" font-weight="700"><tspan x="0" y="0">1</tspan></text>
  </g>
</svg>
