<svg xmlns="http://www.w3.org/2000/svg" width="509.231" height="300.727" viewBox="0 0 509.231 300.727">
  <g id="Group_18009" data-name="Group 18009" transform="translate(-28 -9348.424)">
    <g id="Group_17987" data-name="Group 17987" transform="translate(30 9350.424)">
      <g id="Group_17963" data-name="Group 17963" transform="translate(0 0)">
        <rect id="Rectangle_6088" data-name="Rectangle 6088" width="252.487" height="76.4" transform="translate(0 46.038)" fill="#fff" stroke="#ebebeb" stroke-miterlimit="10" stroke-width="4"/>
        <rect id="Rectangle_6089" data-name="Rectangle 6089" width="252.541" height="46.038" transform="translate(0.013)" fill="#2d356b" stroke="#cfd0d8" stroke-miterlimit="10" stroke-width="4"/>
      </g>
      <g id="Group_17964" data-name="Group 17964" transform="translate(252.553 0)">
        <rect id="Rectangle_6090" data-name="Rectangle 6090" width="246.153" height="76.4" transform="translate(0 46.038)" fill="#fff" stroke="#ebebeb" stroke-miterlimit="10" stroke-width="4"/>
        <rect id="Rectangle_6091" data-name="Rectangle 6091" width="246.153" height="46.038" fill="#2d356b" stroke="#cfd0d8" stroke-miterlimit="10" stroke-width="4"/>
      </g>
      <text id="Relationship" transform="translate(375.63 33.131)" fill="#fff" font-size="26" font-family="TrebuchetMS-Bold, Trebuchet MS" font-weight="700"><tspan x="-74.991" y="0">Relationship</tspan></text>
      <text id="Department" transform="translate(126.799 31.568)" fill="#fff" font-size="26" font-family="TrebuchetMS-Bold, Trebuchet MS" font-weight="700"><tspan x="-72.503" y="0">Department</tspan></text>
      <text id="Human_Resources" data-name="Human Resources" transform="translate(45.894 90.357)" fill="#2d356b" font-size="21" font-family="TrebuchetMS-Bold, Trebuchet MS" font-weight="700"><tspan x="0" y="0">Human Resources</tspan></text>
      <g id="Group_17965" data-name="Group 17965" transform="translate(0.054 122.446)">
        <rect id="Rectangle_6092" data-name="Rectangle 6092" width="252.5" height="76.4" fill="#fff" stroke="#ebebeb" stroke-miterlimit="10" stroke-width="4"/>
      </g>
      <g id="Group_17966" data-name="Group 17966" transform="translate(252.553 122.446)">
        <rect id="Rectangle_6093" data-name="Rectangle 6093" width="246.153" height="76.4" fill="#fff" stroke="#ebebeb" stroke-miterlimit="10" stroke-width="4"/>
      </g>
      <text id="Marketing" transform="translate(77.894 166.939)" fill="#2d356b" font-size="21" font-family="TrebuchetMS-Bold, Trebuchet MS" font-weight="700"><tspan x="0" y="0">Marketing</tspan></text>
      <g id="Group_17967" data-name="Group 17967" transform="translate(0.054 198.846)">
        <rect id="Rectangle_6094" data-name="Rectangle 6094" width="252.5" height="76.4" fill="#fff" stroke="#ebebeb" stroke-miterlimit="10" stroke-width="4"/>
      </g>
      <g id="Group_17968" data-name="Group 17968" transform="translate(252.553 198.846)">
        <rect id="Rectangle_6095" data-name="Rectangle 6095" width="246.153" height="76.4" fill="#fff" stroke="#ebebeb" stroke-miterlimit="10" stroke-width="4"/>
      </g>
      <text id="IT" transform="translate(116.394 244.132)" fill="#2d356b" font-size="21" font-family="TrebuchetMS-Bold, Trebuchet MS" font-weight="700"><tspan x="0" y="0">IT</tspan></text>
      <g id="Group_17974" data-name="Group 17974" transform="translate(345.882 211.648)">
        <g id="Group_17972" data-name="Group 17972" transform="translate(0 0)">
          <g id="Group_17970" data-name="Group 17970" transform="translate(0)">
            <g id="Group_17969" data-name="Group 17969">
              <circle id="Ellipse_156" data-name="Ellipse 156" cx="17.666" cy="17.666" r="17.666" transform="translate(0 24.983) rotate(-45)" fill="#fae14c"/>
            </g>
          </g>
          <path id="Path_4671" data-name="Path 4671" d="M1594.2,12599.268a.583.583,0,0,0-.948.637,8.855,8.855,0,0,0,16.375.162.582.582,0,0,0-.941-.643C1606.1,12601.93,1600.614,12605.5,1594.2,12599.268Z" transform="translate(-1576.459 -12571.612)" fill="#f3ae3d"/>
          <g id="Group_17971" data-name="Group 17971" transform="translate(14.328 20.394)">
            <path id="Path_4672" data-name="Path 4672" d="M1591.762,12579.063a3.273,3.273,0,0,0-6.053-.061.526.526,0,0,0,.851.582,2.8,2.8,0,0,1,4.347.052.526.526,0,0,0,.856-.573Z" transform="translate(-1585.666 -12577.006)" fill="#f3ae3d"/>
            <path id="Path_4673" data-name="Path 4673" d="M1639.047,12579.063a3.273,3.273,0,0,0-6.053-.061.526.526,0,0,0,.85.582,2.8,2.8,0,0,1,4.346.052.525.525,0,0,0,.367.15.532.532,0,0,0,.293-.089A.525.525,0,0,0,1639.047,12579.063Z" transform="translate(-1617.774 -12577.006)" fill="#f3ae3d"/>
          </g>
        </g>
        <g id="Group_17973" data-name="Group 17973" transform="translate(8.911 24.494)">
          <circle id="Ellipse_157" data-name="Ellipse 157" cx="3.084" cy="3.084" r="3.084" fill="#e37176"/>
          <circle id="Ellipse_158" data-name="Ellipse 158" cx="3.084" cy="3.084" r="3.084" transform="translate(25.976)" fill="#e37176"/>
        </g>
      </g>
      <g id="Group_17980" data-name="Group 17980" transform="translate(345.882 134.456)">
        <g id="Group_17978" data-name="Group 17978" transform="translate(0 0)">
          <g id="Group_17976" data-name="Group 17976" transform="translate(0)">
            <g id="Group_17975" data-name="Group 17975">
              <circle id="Ellipse_159" data-name="Ellipse 159" cx="17.666" cy="17.666" r="17.666" transform="translate(0 24.983) rotate(-45)" fill="#fae14c"/>
            </g>
          </g>
          <path id="Path_4674" data-name="Path 4674" d="M1594.2,12349.43a.583.583,0,0,0-.948.637,8.855,8.855,0,0,0,16.375.162.582.582,0,0,0-.941-.643C1606.1,12352.092,1600.614,12355.658,1594.2,12349.43Z" transform="translate(-1576.459 -12321.774)" fill="#f3ae3d"/>
          <g id="Group_17977" data-name="Group 17977" transform="translate(14.328 20.394)">
            <path id="Path_4675" data-name="Path 4675" d="M1591.762,12329.226a3.273,3.273,0,0,0-6.053-.062.526.526,0,0,0,.851.582,2.8,2.8,0,0,1,4.347.052.526.526,0,0,0,.856-.572Z" transform="translate(-1585.666 -12327.168)" fill="#f3ae3d"/>
            <path id="Path_4676" data-name="Path 4676" d="M1639.047,12329.226a3.273,3.273,0,0,0-6.053-.062.526.526,0,0,0,.85.582,2.8,2.8,0,0,1,4.346.052.526.526,0,0,0,.856-.572Z" transform="translate(-1617.774 -12327.168)" fill="#f3ae3d"/>
          </g>
        </g>
        <g id="Group_17979" data-name="Group 17979" transform="translate(8.911 24.494)">
          <circle id="Ellipse_160" data-name="Ellipse 160" cx="3.084" cy="3.084" r="3.084" fill="#e37176"/>
          <circle id="Ellipse_161" data-name="Ellipse 161" cx="3.084" cy="3.084" r="3.084" transform="translate(25.976)" fill="#e37176"/>
        </g>
      </g>
      <g id="Group_17986" data-name="Group 17986" transform="translate(345.882 58.305)">
        <g id="Group_17984" data-name="Group 17984" transform="translate(0 0)">
          <g id="Group_17982" data-name="Group 17982" transform="translate(0)">
            <g id="Group_17981" data-name="Group 17981">
              <circle id="Ellipse_162" data-name="Ellipse 162" cx="17.666" cy="17.666" r="17.666" transform="translate(0 24.983) rotate(-45)" fill="#fae14c"/>
            </g>
          </g>
          <path id="Path_4677" data-name="Path 4677" d="M1594.2,12112.18a.583.583,0,0,0-.948.638,8.856,8.856,0,0,0,16.375.161.583.583,0,0,0-.941-.644C1606.1,12114.842,1600.614,12118.408,1594.2,12112.18Z" transform="translate(-1576.459 -12084.524)" fill="#f3ae3d"/>
          <g id="Group_17983" data-name="Group 17983" transform="translate(14.327 20.394)">
            <path id="Path_4678" data-name="Path 4678" d="M1591.762,12091.975a3.273,3.273,0,0,0-6.053-.059.526.526,0,0,0,.851.582,2.8,2.8,0,0,1,4.347.052.529.529,0,0,0,.367.149.529.529,0,0,0,.489-.725Z" transform="translate(-1585.666 -12089.918)" fill="#f3ae3d"/>
            <path id="Path_4679" data-name="Path 4679" d="M1639.047,12091.975a3.273,3.273,0,0,0-6.053-.06.526.526,0,0,0,.85.583,2.8,2.8,0,0,1,4.346.052.528.528,0,0,0,.367.149.529.529,0,0,0,.489-.725Z" transform="translate(-1617.774 -12089.918)" fill="#f3ae3d"/>
          </g>
        </g>
        <g id="Group_17985" data-name="Group 17985" transform="translate(8.911 24.494)">
          <circle id="Ellipse_163" data-name="Ellipse 163" cx="3.084" cy="3.084" r="3.084" fill="#e37176"/>
          <circle id="Ellipse_164" data-name="Ellipse 164" cx="3.084" cy="3.084" r="3.084" transform="translate(25.976)" fill="#e37176"/>
        </g>
      </g>
    </g>
    <g id="Group_17996" data-name="Group 17996" transform="translate(454.32 9512.715)">
      <g id="Group_17994" data-name="Group 17994" transform="translate(12.225)">
        <g id="Group_17992" data-name="Group 17992">
          <path id="Path_4680" data-name="Path 4680" d="M1978.656,12549.984l1.649.5.738,4.073-3.653,1.65Z" transform="translate(-1957.991 -12488.906)" fill="#eaeaea"/>
          <path id="Path_4681" data-name="Path 4681" d="M1984.113,12485.531l15.07-6.322,1.7,24.658-21.649,7.324Z" transform="translate(-1959.243 -12440.847)" fill="#f7c371"/>
          <line id="Line_22" data-name="Line 22" x2="29.323" y2="7.671" transform="translate(1.854 117.416)" fill="#eaeaea"/>
          <path id="Path_4682" data-name="Path 4682" d="M1917.271,12597.742c-1.515-24.984,24.912-58.983,47.443-52.557,31.315,8.935,12.819,50.356,9.655,61.21" transform="translate(-1917.127 -12485.11)" fill="#9ea9fc"/>
          <path id="Path_4683" data-name="Path 4683" d="M2049.291,12649.3c2.739-5.562,5.414-21.943,8.03-35.639.977-5.113,10.065,4.254,11.89,16.622,1.132,7.675-3.945,18.027-5.155,22.182" transform="translate(-2006.814 -12531.175)" fill="#9ea9fc"/>
          <path id="Path_4684" data-name="Path 4684" d="M1930.046,12610.174c.894-32.347,21.477-53.576,43.612-63.116,3.718-1.6.284-4.313-10.4-3.073C1953.693,12545.131,1919.22,12554.014,1930.046,12610.174Z" transform="translate(-1924.431 -12484.618)" fill="#7b88ac"/>
          <path id="Path_4685" data-name="Path 4685" d="M1919.561,12600.82c3.028-27.243,12.839-41.743,36.215-56.171-9.323,1.118-44.87,13.13-37.931,65.438C1918.024,12611.436,1919.038,12605.528,1919.561,12600.82Z" transform="translate(-1916.954 -12485.284)" fill="#ebebeb"/>
          <path id="Path_4686" data-name="Path 4686" d="M1944.335,12756.032" transform="translate(-1935.546 -12628.817)" fill="#9999a5"/>
          <path id="Path_4687" data-name="Path 4687" d="M1983.723,12555.523l-5.505,2.05,1.8-6.09,1.04-.592Z" transform="translate(-1958.554 -12489.522)" fill="#ffe200"/>
          <path id="Path_4688" data-name="Path 4688" d="M1924.441,12619.443l-2.054.145s-5.739-34.079,18.575-51.808l-.322-.857C1920.668,12582.156,1918.622,12596.536,1924.441,12619.443Z" transform="translate(-1920.106 -12500.408)" fill="#ffe200"/>
          <path id="Path_4689" data-name="Path 4689" d="M1981.333,12536.55l21.689-6.351,2.879,4.312-20.51,8.905Z" transform="translate(-1960.668 -12475.472)" fill="#fff"/>
          <g id="Group_17991" data-name="Group 17991" transform="translate(11.821)">
            <path id="Path_4690" data-name="Path 4690" d="M1997.166,12399.409c10.153-12.586,8.867-33.018,8.352-33.726-5.492-7.553-20.568-6.615-28.14-4.42-6.386,1.851-11.36,5.494-8.085,10.444,1.131,1.709,6.157-2.288,7.719-2.11,2.951.337,5.463,40.81,5.463,40.81Z" transform="translate(-1963.611 -12359.695)" fill="#ffac00"/>
            <g id="Group_17989" data-name="Group 17989" transform="translate(0 9.445)">
              <g id="Group_17988" data-name="Group 17988">
                <path id="Path_4691" data-name="Path 4691" d="M1966.478,12486.1l-1.555-2.543,2.039-1.3Z" transform="translate(-1961.347 -12452.364)" fill="#ffd8a3"/>
                <path id="Path_4692" data-name="Path 4692" d="M1992.054,12424.466c-1.186,3.447-11.714,10.873-22.219,10.482-1.29-13.65-.958-36.2,1.557-40.066,2.475-3.8,12.51-6.648,13.755-5.5-3.642,4.412,2.387,18.983,4.546,20.309C1994.951,12412.916,1993.292,12420.87,1992.054,12424.466Z" transform="translate(-1964.182 -12389.122)" fill="#ffd8a3"/>
                <path id="Path_4693" data-name="Path 4693" d="M1953.782,12460.627a96.815,96.815,0,0,0,5.083-11.565c1.539-4.314,1.137,11.508,1.137,11.508S1955.33,12461.685,1953.782,12460.627Z" transform="translate(-1953.782 -12429.316)" fill="#ffd8a3"/>
                <path id="Path_4694" data-name="Path 4694" d="M1966.557,12524.789c-1.064-.44-1.6-1.442-1.195-2.234a2.08,2.08,0,0,1,2.659-.635c1.065.441,1.6,1.444,1.2,2.235A2.082,2.082,0,0,1,1966.557,12524.789Z" transform="translate(-1961.554 -12479.152)" fill="#ffd8a3"/>
                <path id="Path_4695" data-name="Path 4695" d="M1967.336,12509.035c-.038-.274.27-.547.688-.6s.787.118.825.393-.269.547-.686.606S1967.374,12509.311,1967.336,12509.035Z" transform="translate(-1962.983 -12470.128)" fill="#ffd8a3"/>
              </g>
              <path id="Path_4696" data-name="Path 4696" d="M2032.41,12447.481c.566-2.491,2.471-4.263,4.255-3.957s2.771,2.575,2.205,5.065-3.936,3.969-5.72,3.663S2031.844,12449.973,2032.41,12447.481Z" transform="translate(-2006.824 -12426.039)" fill="#ffd8a3"/>
            </g>
            <path id="Path_4697" data-name="Path 4697" d="M1968.852,12490.893l.409,5.567s1.554-.174,1.886-.871a19.546,19.546,0,0,0,1.068-5.614Z" transform="translate(-1964.015 -12448.158)" fill="#ffab00"/>
            <path id="Path_4698" data-name="Path 4698" d="M1969.17,12491.686l.366,4.947s1.148-.113,1.392-.43a13.9,13.9,0,0,0,1.025-5.312Z" transform="translate(-1964.231 -12448.78)" fill="#fff"/>
            <path id="Path_4699" data-name="Path 4699" d="M1972.611,12436.7a1.355,1.355,0,0,1,.337-.9c.556-.593,5.289.816,5.239,1.8l-.033.617c-.036.711-1.449-.027-2.862-.209-1.351-.173-2.707.241-2.7-.429Z" transform="translate(-1966.557 -12411.277)" fill="#2d356b"/>
            <path id="Path_4700" data-name="Path 4700" d="M1978.222,12452.328c-.035-.826.39-1.557.949-1.635s1.041.528,1.077,1.354-.39,1.556-.948,1.632S1978.259,12453.152,1978.222,12452.328Z" transform="translate(-1970.376 -12421.479)" fill="#2d356b"/>
            <path id="Path_4701" data-name="Path 4701" d="M1978.97,12489.477c-.027-.189.06-.359.2-.379s.264.12.291.313-.06.36-.195.38S1979,12489.669,1978.97,12489.477Z" transform="translate(-1970.882 -12447.562)" fill="#ffab00"/>
            <g id="Group_17990" data-name="Group 17990" transform="translate(4.593 2.447)">
              <path id="Path_4702" data-name="Path 4702" d="M2018.028,12396.3c-4.541.424,3.032,20.841.758,22.37s.04,3.163,1.243,2.675c2.756-1.118,3.111-6.943,3.22-10.647C2023.371,12406.574,2018.412,12396.268,2018.028,12396.3Z" transform="translate(-2000.995 -12387.002)" fill="#ffac00"/>
              <path id="Path_4703" data-name="Path 4703" d="M1968.237,12375.933c-.8-3.264,1.829-6.719,5.879-7.717s15.94-1.841,16.743,1.42-9.778,9.4-13.83,10.393S1969.041,12379.193,1968.237,12375.933Z" transform="translate(-1968.093 -12367.321)" fill="#ffac00"/>
            </g>
          </g>
        </g>
        <g id="Group_17993" data-name="Group 17993" transform="translate(23.791 69.877)">
          <path id="Path_4704" data-name="Path 4704" d="M2022.472,12577.53s-17.342-3.475-31.4,25.229" transform="translate(-1991.075 -12577.398)" fill="#9ea9fc"/>
          <path id="Path_4705" data-name="Path 4705" d="M2019.866,12680.051c-21.482-5.295-28.791-29.559-28.791-29.559a12.95,12.95,0,0,1,1.433-2.8C1997.017,12674.813,2020.759,12680.271,2019.866,12680.051Z" transform="translate(-1991.075 -12625.132)" fill="#7b88ac"/>
          <path id="Path_4706" data-name="Path 4706" d="M2044.373,12737.24" transform="translate(-2027.266 -12685.935)" fill="#2d356b"/>
        </g>
      </g>
      <g id="Group_17995" data-name="Group 17995" transform="translate(0 98.216)">
        <rect id="Rectangle_6096" data-name="Rectangle 6096" width="76.786" height="38.095" rx="6.672" transform="translate(6)" fill="#fff" stroke="#231f20" stroke-miterlimit="10" stroke-width="0.25"/>
        <text id="Nick" transform="translate(32.599 23.367)" fill="#2d356b" font-size="12" font-family="TrebuchetMS-Bold, Trebuchet MS" font-weight="700"><tspan x="0" y="0">Nick</tspan></text>
      </g>
    </g>
  </g>
</svg>
