<svg xmlns="http://www.w3.org/2000/svg" width="524.056" height="169.311" viewBox="0 0 524.056 169.311"><g transform="translate(-47.691 -9016.961)"><g transform="translate(90.815 9042.906)"><rect width="94.904" height="105.658" transform="translate(0.696 35.707)" fill="#fff" stroke="#ebebeb" stroke-miterlimit="10" stroke-width="4"/><rect width="96.296" height="35.707" fill="#2d356b" stroke="#cfd0d8" stroke-miterlimit="10" stroke-width="4"/><g transform="translate(96.296)"><rect width="97.033" height="105.658" transform="translate(0 35.707)" fill="#fff" stroke="#ebebeb" stroke-miterlimit="10" stroke-width="4"/><rect width="97.033" height="35.707" fill="#2d356b" stroke="#cfd0d8" stroke-miterlimit="10" stroke-width="4"/></g><g transform="translate(193.329)"><rect width="97.033" height="105.658" transform="translate(0 35.707)" fill="#fff" stroke="#ebebeb" stroke-miterlimit="10" stroke-width="4"/><rect width="97.033" height="35.707" fill="#2d356b" stroke="#cfd0d8" stroke-miterlimit="10" stroke-width="4"/></g><g transform="translate(290.362)"><rect width="97.033" height="105.658" transform="translate(0 35.707)" fill="#fff" stroke="#ebebeb" stroke-miterlimit="10" stroke-width="4"/><rect width="97.033" height="35.707" fill="#2d356b" stroke="#cfd0d8" stroke-miterlimit="10" stroke-width="4"/></g><g transform="translate(387.396)"><rect width="91.537" height="105.658" transform="translate(0 35.707)" fill="#fff" stroke="#ebebeb" stroke-miterlimit="10" stroke-width="4"/><rect width="91.537" height="35.707" fill="#2d356b" stroke="#cfd0d8" stroke-miterlimit="10" stroke-width="4"/></g><text transform="translate(142.862 24.965)" fill="#fff" font-size="14" font-family="TrebuchetMS-Bold, Trebuchet MS" font-weight="700"><tspan x="-34.265" y="0">THURSDAY</tspan></text><text transform="translate(239.285 23.965)" fill="#fff" font-size="14" font-family="TrebuchetMS-Bold, Trebuchet MS" font-weight="700"><tspan x="-22.907" y="0">FRIDAY</tspan></text><text transform="translate(336.071 23.965)" fill="#fff" font-size="14" font-family="TrebuchetMS-Bold, Trebuchet MS" font-weight="700"><tspan x="-27.409" y="0">MONDAY</tspan></text><text transform="translate(433.01 23.965)" fill="#fff" font-size="14" font-family="TrebuchetMS-Bold, Trebuchet MS" font-weight="700"><tspan x="-29.186" y="0">TUESDAY</tspan></text><text transform="translate(48.617 23.965)" fill="#fff" font-size="14" font-family="TrebuchetMS-Bold, Trebuchet MS" font-weight="700"><tspan x="-39.498" y="0">WEDNESDAY</tspan></text><text transform="translate(48.617 115.756)" fill="#2d356b" font-size="14" font-family="TrebuchetMS-Bold, Trebuchet MS" font-weight="700"><tspan x="-19.869" y="0">Lunch</tspan></text></g><g transform="translate(103.797 9093.489)"><rect width="59.667" height="27.776" rx="6.672" transform="translate(0 0)" fill="#f46973"/><text transform="translate(29.834 18.888)" fill="#fff" font-size="14" font-family="TrebuchetMS-Bold, Trebuchet MS" font-weight="700"><tspan x="-21.386" y="0">TODAY</tspan></text></g><g transform="translate(49.691 9018.961)"><circle cx="27.053" cy="27.053" r="27.053" transform="translate(0)" fill="#fff" stroke="#9999a5" stroke-miterlimit="10" stroke-width="4"/><text transform="translate(27.053 39.553)" fill="#2d356b" font-size="35" font-family="TrebuchetMS-Bold, Trebuchet MS" font-weight="700"><tspan x="-10.254" y="0">3</tspan></text></g><ellipse cx="37.686" cy="26.076" rx="37.686" ry="26.076" transform="translate(391.735 9127.78)" fill="none" stroke="#f46973" stroke-miterlimit="10" stroke-width="7"/><g transform="translate(163.758 9129.266)"><path d="M1470.021,3497.611l-24.867-24.6v49.182Z" transform="translate(-1264.836 -3473.011)" fill="#f46973"/><rect width="176.517" height="16.482" transform="translate(7 16.35)" fill="#f46973"/></g></g></svg>