<svg xmlns="http://www.w3.org/2000/svg" width="261.465" height="148.482" viewBox="0 0 261.465 148.482"><g transform="translate(-312.852 -3130.254)"><g transform="translate(391.088 3130.795)"><path d="M1111.752,3712.791a23.128,23.128,0,0,1-.369,8.829c-3.544,14.824-21.043,23.346-39.087,19.033-9.788-2.34-17.724-7.977-22.372-15.011-9.4,11.963-25.2,16.841-35.747,10.876-9.932-5.615-11.745-18.88-4.72-30.756-15.917-4.036-26.6-16.154-23.942-27.284,1.895-7.926,10.052-13.238,20.376-14.341-4.7-4.385-7.045-9.365-5.945-13.968,2.269-9.491,18.313-13.79,35.835-9.6q1.918.459,3.749,1.025c5.39-10.136,20.223-15.224,35.692-11.526,17.522,4.188,29.222,18.063,26.132,30.989q-.151.631-.345,1.242a68.72,68.72,0,0,1,8.31,1.458c22.021,5.264,37.346,20.1,34.23,33.131C1141.1,3707.14,1127.964,3713.224,1111.752,3712.791Z" transform="translate(-961.264 -3628.863)" fill="#fff" stroke="#cfd0d8" stroke-miterlimit="10" stroke-width="1"/><circle cx="7.674" cy="7.674" r="7.674" transform="translate(17.435 39.249)" fill="#fff" stroke="#cfd0d8" stroke-miterlimit="10" stroke-width="1"/><circle cx="4.548" cy="4.548" r="4.548" transform="translate(9.819 41.753)" fill="#fff" stroke="#cfd0d8" stroke-miterlimit="10" stroke-width="1"/><circle cx="3.89" cy="3.89" r="3.89" transform="translate(0 46.459)" fill="#fff" stroke="#cfd0d8" stroke-miterlimit="10" stroke-width="1"/></g><text transform="translate(482.836 3204.702) rotate(21.828)" fill="#2d356b" font-size="14" font-family="TrebuchetMS-Bold, Trebuchet MS" font-weight="700"><tspan x="0" y="0">no idea</tspan></text><text transform="translate(449.891 3180.232) rotate(-4.977)" fill="#2d356b" font-size="14" font-family="TrebuchetMS-Bold, Trebuchet MS" font-weight="700"><tspan x="0" y="0">solution?</tspan></text><g transform="translate(312.852 3147.385)"><g transform="translate(0 0)"><path d="M775.4,3877.293c-1.646-1.738-11.774-1.985-13.964,0l-.056,2.234h13.964Z" transform="translate(-716.01 -3839.672)" fill="#fff"/><rect width="9.309" height="5.856" transform="translate(47.361 98.706)" fill="#eaeaea"/><path d="M662.706,3963.156s-12.922-50.726-15.372-68.84c0,0,23.965-18.219,55.213-2.812,0,0-6.71,62-8.282,70.963-6.325-2.46-10.775-6.081-15.327-13.3C672.785,3957.691,668.03,3962.492,662.706,3963.156Z" transform="translate(-625.695 -3847.133)" fill="#029390"/><path d="M722.2,3928.455s-25.928-17.924-15.563-41.615c0,0,15.137-6.664,30.681-.1C741.6,3907.09,732.006,3920.2,722.2,3928.455Z" transform="translate(-670.72 -3845.97)" fill="#54ccca"/><path d="M752.555,3936.614s-14.93-18.1-8.362-42.033c0,0,11.954-.894,18.737-.1C765.343,3915.034,758.626,3928.273,752.555,3936.614Z" transform="translate(-701.074 -3854.129)" fill="#eaeaea"/><path d="M774.465,3857.962H763.773l-1.6,9.8c5.82,3.034,9.221,2.7,13.756-.662Z" transform="translate(-716.634 -3825.471)" fill="#f7c371"/><path d="M780.38,3912.635l2.6,1.738,3.034-1.986-1.738-2.532-2.026-.05Z" transform="translate(-731.052 -3866.525)" fill="#02928f"/><path d="M746.461,3885.342l3.256-2.65c.959,2.739,2.649,4.32,6.677,5.494,0,0-3.236,4.912-4.721,4.783S746.461,3885.342,746.461,3885.342Z" transform="translate(-704.192 -3845.055)" fill="#fff"/><path d="M804.256,3885.241l-3.322-2.632c-1.248,2.68-3.022,4.3-7.37,5.555,0,0,3.134,4.92,4.711,4.783S804.256,3885.241,804.256,3885.241Z" transform="translate(-741.493 -3844.989)" fill="#fff"/><path d="M782.4,3928.016l-1.056.2-2.388,31.939,2.394,3.279,2.486-3.279Z" transform="translate(-729.925 -3880.946)" fill="#02928f"/><path d="M793.157,4157.7a1.239,1.239,0,1,0-1.239,1.238A1.239,1.239,0,0,0,793.157,4157.7Z" transform="translate(-739.208 -4061.85)" fill="#54ccca"/><path d="M793.157,4119.339a1.239,1.239,0,1,0-1.239,1.239A1.239,1.239,0,0,0,793.157,4119.339Z" transform="translate(-739.208 -4031.469)" fill="#54ccca"/><g transform="translate(39.024)"><path d="M734.25,3730.55c-.916-3.478-1.957-16.579.209-19.546,0,0-6.58-1.7-1.916-6.149,5.913-5.639,17.156-2.585,18.073,2.841,0,0,8.661-2.8,2.707,22.344Z" transform="translate(-730.872 -3701.845)" fill="#ffac00"/><path d="M833.759,3807.642c.2-1.948,1.113-3,2.022-3s1.465,1.054,1.269,3a2.976,2.976,0,0,1-2.605,2.852C833.536,3810.494,833.564,3809.59,833.759,3807.642Z" transform="translate(-812.259 -3783.247)" fill="#f7c371"/><path d="M740.413,3808.177c-.137-1.948-1.061-3-2.013-3s-1.572,1.054-1.435,3a2.916,2.916,0,0,0,2.63,2.852C740.547,3811.029,740.549,3810.125,740.413,3808.177Z" transform="translate(-735.681 -3783.67)" fill="#f7c371"/><path d="M755.885,3774.729a12.862,12.862,0,0,1-11.407-6.875c.088,6.29.239,14.848.239,14.848s15.224.781,19.868-.5c.118-3.513.32-7.658.2-11.029A12.864,12.864,0,0,1,755.885,3774.729Z" transform="translate(-741.646 -3754.116)" fill="#ffac00"/><path d="M747.039,3774.834c.136.93,4.473,4.948,9.41,4.948a13.077,13.077,0,0,0,9.885-5.146c.858-1.484-2.6-20.385-4.616-21.968s-10.139-.537-10.828.3C749.252,3754.944,746.5,3771.173,747.039,3774.834Z" transform="translate(-743.62 -3741.441)" fill="#ffd8a3"/><path d="M754.682,3765.234c.743.289,3.674-5.84,4.287-6.865s.51-2.091-.232-2.381-1.842.308-2.455,1.333S753.939,3764.945,754.682,3765.234Z" transform="translate(-749.582 -3744.663)" fill="#ffd8a3"/><path d="M813,3763.785c.781-.213-1.281-6.433-1.734-7.511s-1.453-1.779-2.234-1.566-1.046,1.26-.593,2.339S812.224,3764,813,3763.785Z" transform="translate(-792.124 -3743.676)" fill="#ffd8a3"/><path d="M762.766,3788.554a.72.72,0,0,0-.354-.5c-.512-.3-4.31,1.087-4.184,1.676l.08.369c.091.424,1.2-.18,2.352-.448,1.1-.256,2.261-.158,2.195-.561Z" transform="translate(-752.533 -3770.078)" fill="#2d356b"/><path d="M801.632,3789.306a.7.7,0,0,1,.3-.538c.486-.349,4.555.615,4.5,1.214l-.034.375c-.039.431-1.25-.051-2.467-.192-1.164-.136-2.338.087-2.321-.321Z" transform="translate(-786.888 -3770.62)" fill="#2d356b"/><path d="M785.871,3807.551a3.564,3.564,0,0,0,1.587.808,2.124,2.124,0,0,0,1.587-.892c.071-.537-1.087-6.523-1.5-6.578S785.842,3806.771,785.871,3807.551Z" transform="translate(-774.424 -3780.276)" fill="#ffab00"/><path d="M789.21,3805.872c0,.136.658.353.889.353.395,0,.872-.2.889-.445.04-.588.354-7.273-.84-7.211C788.842,3798.637,789.194,3805.016,789.21,3805.872Z" transform="translate(-777.025 -3778.438)" fill="#ffd8a3"/><path d="M770.766,3803.642c0-.513-.3-.929-.662-.929s-.653.416-.65.929.3.929.662.929S770.769,3804.155,770.766,3803.642Z" transform="translate(-761.424 -3781.72)" fill="#2d356b"/><path d="M810.872,3803.642c0-.513-.3-.929-.662-.929s-.653.416-.65.929.3.929.662.929S810.875,3804.155,810.872,3803.642Z" transform="translate(-793.183 -3781.72)" fill="#2d356b"/><g transform="translate(8.955 29.025)"><path d="M775.937,3842.944s.594,3.316,1.18,3.483a16.685,16.685,0,0,0,4.926.083c.652-.136,1.341-3.78,1.341-3.78Z" transform="translate(-775.513 -3842.435)" fill="#ffab00"/><path d="M783.683,3843.66l-6.836.167.881,3.155c.768.22,4.621.33,5.158,0Z" transform="translate(-776.234 -3843.171)" fill="#fff"/><path d="M811.273,3841.421c-.05-.114-.245-.144-.435-.068s-.3.229-.251.343.245.144.435.068S811.324,3841.534,811.273,3841.421Z" transform="translate(-802.942 -3841.311)" fill="#ffab00"/><path d="M774.625,3843.094c.033-.119-.1-.256-.3-.305s-.387.007-.42.126.1.256.3.306S774.592,3843.213,774.625,3843.094Z" transform="translate(-773.9 -3842.468)" fill="#ffab00"/></g><path d="M763.646,3743.979c-.193-1.223-3.667-1.694-7.761-1.049s-7.257,2.157-7.065,3.38,3.667,1.693,7.762,1.05S763.838,3745.2,763.646,3743.979Z" transform="translate(-745.078 -3734.151)" fill="#ffac00"/></g><g transform="translate(63.943 44.155)"><path d="M861.045,4229.267c-.344-.464.425-1.166,1.4-1.825s1.8-1.028,2.142-.566-.169,1.374-1.149,2.033S861.391,4229.729,861.045,4229.267Z" transform="translate(-858.806 -4161.599)" fill="#f7c371"/><path d="M867.646,4233.614c-.345-.464.425-1.166,1.405-1.825s1.795-1.03,2.142-.567-.169,1.373-1.149,2.034S867.991,4234.076,867.646,4233.614Z" transform="translate(-864.033 -4165.041)" fill="#f7c371"/><path d="M850.725,4224.2c.416-.419,1.652.47,2.934,1.605s2.125,2.087,1.708,2.507-1.791-.163-3.073-1.3S850.309,4224.616,850.725,4224.2Z" transform="translate(-850.605 -4159.559)" fill="#ffd8a3"/><path d="M859.18,4192.528c-2.036,1.505-8.8,5.748-7.372,8.06,1.281,2.068,5.768,2.731,9.266-6.588Z" transform="translate(-851.402 -4134.563)" fill="#ffd8a3"/><path d="M877.621,4180.571l1.975-4.353,5.6,4.5-3.88,2.63Z" transform="translate(-871.999 -4121.648)" fill="#eaeaea"/><path d="M918.5,3945.617c3.013-1.439-8.9-15.756-22.634-31.607,0,0-5.41,10.732-3.936,17.466C891.927,3931.476,906.34,3951.426,918.5,3945.617Z" transform="translate(-883.126 -3914.01)" fill="#029390"/><path d="M912.765,4047.742s-6.549,10.273-23.071,29.377a10.674,10.674,0,0,1-5.756-5.321s10.4-18.542,17.595-28.1C901.532,4043.7,911.579,4042.943,912.765,4047.742Z" transform="translate(-877 -4016.675)" fill="#029390"/><path d="M904.795,4177.166a1,1,0,1,0-1.417.622A1.107,1.107,0,0,0,904.795,4177.166Z" transform="translate(-892.016 -4121.128)" fill="#54ccca"/></g><g transform="translate(0 47.092)"><path d="M700.136,4238.772c.257-.475-.5-1.049-1.441-1.561s-1.7-.766-1.962-.291.3,1.272,1.236,1.784S699.879,4239.247,700.136,4238.772Z" transform="translate(-664.764 -4172.455)" fill="#f7c371"/><path d="M694.734,4243.606c.258-.474-.5-1.05-1.441-1.56s-1.7-.767-1.962-.292.3,1.273,1.236,1.786S694.476,4244.081,694.734,4243.606Z" transform="translate(-660.485 -4176.284)" fill="#f7c371"/><path d="M706.317,4231.663c-.414-.346-1.418.63-2.436,1.841s-1.666,2.2-1.252,2.551,1.574-.354,2.592-1.568S706.73,4232.011,706.317,4231.663Z" transform="translate(-669.383 -4168.436)" fill="#ffd8a3"/><path d="M678.935,4205.888c1.968,1.187,8.429,4.421,7.4,6.756-.919,2.09-4.834,3.22-8.928-5.16Z" transform="translate(-649.511 -4148.08)" fill="#ffd8a3"/><path d="M663.731,4194.023l-3.976-2.544,5.187-4.84,2.026,4.165Z" transform="translate(-635.531 -4132.837)" fill="#eaeaea"/><path d="M543.955,3960.178c-3.377-.129,8.179-16.02,21.167-32.055,0,0,5.027,7.122,3.83,15.529C568.952,3943.652,556.454,3960.657,543.955,3960.178Z" transform="translate(-543.361 -3928.123)" fill="#029390"/><path d="M544.2,4058.085s5.812,11.158,24.5,28.495a10.775,10.775,0,0,0,5.634-5.532s-11.316-19.1-18.061-28.624C556.276,4052.424,545.222,4053.245,544.2,4058.085Z" transform="translate(-544.027 -4026.555)" fill="#029390"/><path d="M655.931,4185.083a1,1,0,1,0,.209-1.533A1.107,1.107,0,0,0,655.931,4185.083Z" transform="translate(-632.338 -4130.296)" fill="#54ccca"/></g></g><g transform="translate(23.963 102.267)"><rect width="53.846" height="28.959" rx="6.672" fill="#fff" stroke="#231f20" stroke-miterlimit="10" stroke-width="0.25"/><text transform="translate(17.423 17.98)" fill="#2d356b" font-size="10" font-family="TrebuchetMS-Bold, Trebuchet MS" font-weight="700"><tspan x="0" y="0">Nick</tspan></text></g></g></g></svg>