<svg xmlns="http://www.w3.org/2000/svg" width="544" height="361.5" viewBox="0 0 544 361.5">
  <g id="Group_16594" data-name="Group 16594" transform="translate(-597.117 -148.659)">
    <g id="Group_15924" data-name="Group 15924" transform="translate(597.117 148.659)">
      <g id="Group_15923" data-name="Group 15923">
        <g id="Group_15922" data-name="Group 15922">
          <g id="Group_15921" data-name="Group 15921">
            <g id="Group_15838" data-name="Group 15838">
              <g id="Group_15835" data-name="Group 15835" transform="translate(0.482)">
                <g id="Group_15831" data-name="Group 15831" transform="translate(0.111)">
                  <path id="Path_2408" data-name="Path 2408" d="M1141.149,162.135h.644V149.452H598.386V414.5h542.758V387.877h.005Z" transform="translate(-598.386 -149.081)" fill="#fff"/>
                  <rect id="Rectangle_5484" data-name="Rectangle 5484" width="542.814" height="0.741" transform="translate(0 265.049)" fill="#a0bacb"/>
                  <rect id="Rectangle_5485" data-name="Rectangle 5485" width="543.407" height="0.741" fill="#7b88ac"/>
                </g>
                <g id="Group_15832" data-name="Group 15832" transform="translate(0 54.158)">
                  <path id="Path_2409" data-name="Path 2409" d="M679.4,265.56v-.195h-7.083v.195H599.1V427.152H749.459V265.56Zm63.834,5.189v35.533H679.4V270.748Zm-70.917,41.665V380.3H605.326V312.413ZM679.4,380.3V312.413h63.834V380.3Zm-7.083-109.551v35.533H605.326V270.748ZM605.326,386.43h66.991v35.534H605.326ZM679.4,421.964V386.43h63.834v35.534Z" transform="translate(-598.656 -264.994)" fill="#ebebeb"/>
                  <path id="Path_2410" data-name="Path 2410" d="M749.4,427.1H598.149V264.766h73.216v-.194h7.972v.194H749.4Zm-150.358-.741H748.507V265.508H678.448v-.194h-6.194v.194H599.038Zm144.133-4.447H678.448V385.637h64.723Zm-63.833-.741h62.944V386.378H679.338Zm-7.083.741h-67.88V385.637h67.88Zm-66.991-.741h66.1V386.378h-66.1Zm137.907-40.924H678.448V311.62h64.723Zm-63.833-.741h62.944V312.361H679.338Zm-7.083.741h-67.88V311.62h67.88Zm-66.991-.741h66.1V312.361h-66.1Zm137.907-73.276H678.448V269.955h64.723Zm-63.833-.741h62.944V270.7H679.338Zm-7.083.741h-67.88V269.955h67.88Zm-66.991-.741h66.1V270.7h-66.1Z" transform="translate(-598.149 -264.572)" fill="#ebebeb"/>
                </g>
                <g id="Group_15833" data-name="Group 15833" transform="translate(225.196 53.202)">
                  <path id="Path_2411" data-name="Path 2411" d="M1098.472,263.513v-.194h-6.5v.194H1024.82V425.106h137.912V263.513Zm58.55,5.189v35.533h-58.55V268.7Zm-65.047,41.665v67.886H1030.53V310.367Zm6.5,67.886V310.367h58.55v67.886Zm-6.5-109.551v35.533H1030.53V268.7ZM1030.53,384.384h61.446v35.533H1030.53Zm67.943,35.533V384.384h58.55v35.533Z" transform="translate(-1024.412 -262.948)" fill="#ebebeb"/>
                  <path id="Path_2412" data-name="Path 2412" d="M1162.675,425.054H1023.947V262.72H1091.1v-.194h7.313v.194h64.26Zm-137.912-.741h137.1V263.461H1097.6v-.194h-5.681v.194h-67.156Zm132.2-4.447H1097.6V383.591h59.366Zm-58.55-.741h57.734V384.332h-57.734Zm-6.5.741h-62.262V383.591h62.262Zm-61.446-.741h60.63V384.332h-60.63ZM1156.965,378.2H1097.6V309.574h59.366Zm-58.55-.741h57.734V310.315h-57.734Zm-6.5.741h-62.262V309.574h62.262Zm-61.446-.741h60.63V310.315h-60.63Zm126.493-73.276H1097.6V267.909h59.366Zm-58.55-.742h57.734V268.65h-57.734Zm-6.5.742h-62.262V267.909h62.262Zm-61.446-.742h60.63V268.65h-60.63Z" transform="translate(-1023.947 -262.526)" fill="#ebebeb"/>
                </g>
                <g id="Group_15834" data-name="Group 15834" transform="translate(424.244 54.158)">
                  <path id="Path_2413" data-name="Path 2413" d="M1524.351,421.964h-37.943V386.43h37.943V380.3h-37.943V312.413h37.943v-6.132h-37.943V270.748h37.943V265.56h-37.943v-.195h-7.083v.195H1406.11V427.152h118.241Zm-45.026,0h-66.991V386.43h66.991Zm0-41.665h-66.991V312.413h66.991Zm0-74.018h-66.991V270.748h66.991Z" transform="translate(-1405.666 -264.995)" fill="#ebebeb"/>
                  <path id="Path_2414" data-name="Path 2414" d="M1577.021,559.962h38.387v-.741h-37.5V524.428h37.5v-.741h-38.387Z" transform="translate(-1496.722 -402.622)" fill="#ebebeb"/>
                  <path id="Path_2415" data-name="Path 2415" d="M1577.021,433.9h38.387v-.741h-37.5V366.01h37.5v-.741h-38.387Z" transform="translate(-1496.722 -318.221)" fill="#ebebeb"/>
                  <path id="Path_2416" data-name="Path 2416" d="M1577.021,312.368h38.387v-.741h-37.5V276.834h37.5v-.741h-38.387Z" transform="translate(-1496.722 -270.71)" fill="#ebebeb"/>
                  <path id="Path_2417" data-name="Path 2417" d="M1486.362,276.093h-67.88v36.275h67.88Zm-.889,35.534h-66.1V276.834h66.1Z" transform="translate(-1412.257 -270.71)" fill="#ebebeb"/>
                  <path id="Path_2418" data-name="Path 2418" d="M1523.845,426.359h-117.8V265.508h73.215v-.194h6.194v.194h38.387v-.741h-37.5v-.194h-7.972v.194h-73.216V427.1h118.686Z" transform="translate(-1405.159 -264.572)" fill="#ebebeb"/>
                  <path id="Path_2419" data-name="Path 2419" d="M1418.482,559.962h67.88V523.687h-67.88Zm.889-35.534h66.1v34.792h-66.1Z" transform="translate(-1412.257 -402.622)" fill="#ebebeb"/>
                  <path id="Path_2420" data-name="Path 2420" d="M1486.362,365.268h-67.88V433.9h67.88Zm-.889,67.886h-66.1V366.01h66.1Z" transform="translate(-1412.257 -318.22)" fill="#ebebeb"/>
                </g>
              </g>
              <g id="Group_15836" data-name="Group 15836" transform="translate(0 233.51)">
                <path id="Path_2421" data-name="Path 2421" d="M1140.524,649.112H597.766v90.939h-.649v36.736h543.4v-123.8h.006Z" transform="translate(-597.117 -648.797)" fill="#f9f9f9"/>
                <rect id="Rectangle_5486" data-name="Rectangle 5486" width="541.781" height="0.531" transform="translate(1.773 127.258)" fill="#f9f9f9"/>
                <rect id="Rectangle_5487" data-name="Rectangle 5487" width="542.819" height="0.531" transform="translate(0.593)" fill="#f9f9f9"/>
              </g>
              <g id="Group_15837" data-name="Group 15837" transform="translate(30.089 4.673)">
                <path id="Path_2422" data-name="Path 2422" d="M1325.126,244.073V158.66h-1.9v85.413c-5.923.435-10.582,4.88-10.582,10.31,0,5.718,5.163,10.353,11.532,10.353s11.532-4.635,11.532-10.353C1335.708,248.953,1331.05,244.508,1325.126,244.073Z" transform="translate(-971.856 -158.66)" fill="#c3e8e6"/>
                <path id="Path_2423" data-name="Path 2423" d="M674,258.512V173.1h-1.9v85.413c-5.924.435-10.582,4.88-10.582,10.31,0,5.718,5.163,10.353,11.532,10.353s11.532-4.635,11.532-10.353C684.578,263.392,679.92,258.947,674,258.512Z" transform="translate(-661.515 -166.353)" fill="#c3e8e6"/>
                <path id="Path_2424" data-name="Path 2424" d="M902.246,249.717v-62.1h-1.381v62.1c-4.306.316-7.693,3.548-7.693,7.5,0,4.157,3.754,7.527,8.384,7.527s8.384-3.37,8.384-7.527C909.939,253.265,906.552,250.033,902.246,249.717Z" transform="translate(-772.132 -174.089)" fill="#c3e8e6"/>
                <path id="Path_2425" data-name="Path 2425" d="M1524.37,249.717v-62.1h-1.381v62.1c-4.307.316-7.693,3.548-7.693,7.5,0,4.157,3.754,7.527,8.384,7.527s8.384-3.37,8.384-7.527C1532.063,253.265,1528.676,250.033,1524.37,249.717Z" transform="translate(-1069.199 -174.089)" fill="#c3e8e6"/>
              </g>
            </g>
            <g id="Group_15875" data-name="Group 15875" transform="translate(16.778 114.632)">
              <g id="Group_15847" data-name="Group 15847" transform="translate(0 22.239)">
                <g id="Group_15839" data-name="Group 15839">
                  <rect id="Rectangle_5488" data-name="Rectangle 5488" width="48.795" height="1.743" transform="translate(0.445 0.371)" fill="#ebebeb"/>
                  <path id="Path_2426" data-name="Path 2426" d="M682.711,444.087H633.026V441.6h49.685Zm-48.8-.741h47.906v-1H633.915Z" transform="translate(-633.026 -441.603)" fill="#ebebeb"/>
                </g>
                <g id="Group_15840" data-name="Group 15840" transform="translate(0 26.291)">
                  <rect id="Rectangle_5489" data-name="Rectangle 5489" width="48.795" height="1.743" transform="translate(0.445 0.37)" fill="#ebebeb"/>
                  <path id="Path_2427" data-name="Path 2427" d="M682.711,500.358H633.026v-2.484h49.685Zm-48.8-.742h47.906v-1H633.915Z" transform="translate(-633.026 -497.874)" fill="#ebebeb"/>
                </g>
                <g id="Group_15841" data-name="Group 15841" transform="translate(0 52.582)">
                  <rect id="Rectangle_5490" data-name="Rectangle 5490" width="48.795" height="1.743" transform="translate(0.445 0.37)" fill="#ebebeb"/>
                  <path id="Path_2428" data-name="Path 2428" d="M682.711,556.628H633.026v-2.484h49.685Zm-48.8-.742h47.906v-1H633.915Z" transform="translate(-633.026 -554.144)" fill="#ebebeb"/>
                </g>
                <g id="Group_15846" data-name="Group 15846" transform="translate(0 0.581)">
                  <g id="Group_15842" data-name="Group 15842" transform="translate(0 78.872)">
                    <rect id="Rectangle_5491" data-name="Rectangle 5491" width="48.795" height="1.743" transform="translate(0.445 0.371)" fill="#ebebeb"/>
                    <path id="Path_2429" data-name="Path 2429" d="M682.711,614.141H633.026v-2.484h49.685Zm-48.8-.741h47.906v-1H633.915Z" transform="translate(-633.026 -611.657)" fill="#ebebeb"/>
                  </g>
                  <g id="Group_15843" data-name="Group 15843" transform="translate(0 104.035)">
                    <rect id="Rectangle_5492" data-name="Rectangle 5492" width="48.795" height="1.743" transform="translate(0.445 0.371)" fill="#ebebeb"/>
                    <path id="Path_2430" data-name="Path 2430" d="M682.711,668H633.026v-2.485h49.685Zm-48.8-.741h47.906v-1H633.915Z" transform="translate(-633.026 -665.513)" fill="#ebebeb"/>
                  </g>
                  <g id="Group_15844" data-name="Group 15844">
                    <rect id="Rectangle_5493" data-name="Rectangle 5493" width="2.614" height="126.474" transform="translate(0.445 0.371)" fill="#ebebeb"/>
                    <path id="Path_2431" data-name="Path 2431" d="M636.529,570.062h-3.5V442.847h3.5Zm-2.614-.741h1.725V443.589h-1.725Z" transform="translate(-633.026 -442.847)" fill="#ebebeb"/>
                  </g>
                  <g id="Group_15845" data-name="Group 15845" transform="translate(46.182)">
                    <rect id="Rectangle_5494" data-name="Rectangle 5494" width="2.614" height="126.474" transform="translate(0.444 0.371)" fill="#ebebeb"/>
                    <path id="Path_2432" data-name="Path 2432" d="M735.371,570.062h-3.5V442.847h3.5Zm-2.614-.741h1.724V443.589h-1.724Z" transform="translate(-731.868 -442.847)" fill="#ebebeb"/>
                  </g>
                </g>
              </g>
              <g id="Group_15858" data-name="Group 15858" transform="translate(8.746 28.437)">
                <g id="Group_15849" data-name="Group 15849">
                  <g id="Group_15848" data-name="Group 15848">
                    <rect id="Rectangle_5495" data-name="Rectangle 5495" width="5.112" height="20.093" transform="translate(0.445 0.37)" fill="#ebebeb"/>
                    <path id="Path_2433" data-name="Path 2433" d="M657.747,475.7h-6V454.868h6Zm-5.112-.741h4.222V455.609h-4.222Z" transform="translate(-651.746 -454.868)" fill="#ebebeb"/>
                  </g>
                  <path id="Path_2434" data-name="Path 2434" d="M657.931,463.9a1.712,1.712,0,1,1-1.684-1.4A1.564,1.564,0,0,1,657.931,463.9Z" transform="translate(-653.246 -458.934)" fill="#ebebeb"/>
                </g>
                <g id="Group_15851" data-name="Group 15851" transform="translate(6.009)">
                  <g id="Group_15850" data-name="Group 15850">
                    <rect id="Rectangle_5496" data-name="Rectangle 5496" width="5.112" height="20.093" transform="translate(0.444 0.37)" fill="#ebebeb"/>
                    <path id="Path_2435" data-name="Path 2435" d="M670.607,475.7h-6V454.868h6Zm-5.112-.741h4.223V455.609H665.5Z" transform="translate(-664.606 -454.868)" fill="#ebebeb"/>
                  </g>
                  <path id="Path_2436" data-name="Path 2436" d="M670.791,463.9a1.713,1.713,0,1,1-1.684-1.4A1.564,1.564,0,0,1,670.791,463.9Z" transform="translate(-666.106 -458.934)" fill="#ebebeb"/>
                </g>
                <g id="Group_15853" data-name="Group 15853" transform="translate(12.017)">
                  <g id="Group_15852" data-name="Group 15852">
                    <rect id="Rectangle_5497" data-name="Rectangle 5497" width="5.112" height="20.093" transform="translate(0.445 0.37)" fill="#ebebeb"/>
                    <path id="Path_2437" data-name="Path 2437" d="M683.467,475.7h-6V454.868h6Zm-5.112-.741h4.222V455.609h-4.222Z" transform="translate(-677.466 -454.868)" fill="#ebebeb"/>
                  </g>
                  <path id="Path_2438" data-name="Path 2438" d="M683.652,463.9a1.713,1.713,0,1,1-1.685-1.4A1.564,1.564,0,0,1,683.652,463.9Z" transform="translate(-678.966 -458.934)" fill="#ebebeb"/>
                </g>
                <g id="Group_15855" data-name="Group 15855" transform="translate(18.025)">
                  <g id="Group_15854" data-name="Group 15854">
                    <rect id="Rectangle_5498" data-name="Rectangle 5498" width="5.112" height="20.093" transform="translate(0.445 0.37)" fill="#ebebeb"/>
                    <path id="Path_2439" data-name="Path 2439" d="M696.327,475.7h-6V454.868h6Zm-5.112-.741h4.223V455.609h-4.223Z" transform="translate(-690.325 -454.868)" fill="#ebebeb"/>
                  </g>
                  <path id="Path_2440" data-name="Path 2440" d="M696.512,463.9a1.713,1.713,0,1,1-1.685-1.4A1.564,1.564,0,0,1,696.512,463.9Z" transform="translate(-691.826 -458.934)" fill="#ebebeb"/>
                </g>
                <g id="Group_15857" data-name="Group 15857" transform="translate(24.034)">
                  <g id="Group_15856" data-name="Group 15856">
                    <rect id="Rectangle_5499" data-name="Rectangle 5499" width="5.112" height="20.093" transform="translate(0.445 0.37)" fill="#ebebeb"/>
                    <path id="Path_2441" data-name="Path 2441" d="M709.187,475.7h-6V454.868h6Zm-5.112-.741H708.3V455.609h-4.223Z" transform="translate(-703.186 -454.868)" fill="#ebebeb"/>
                  </g>
                  <path id="Path_2442" data-name="Path 2442" d="M709.372,463.9a1.712,1.712,0,1,1-1.685-1.4A1.564,1.564,0,0,1,709.372,463.9Z" transform="translate(-704.687 -458.934)" fill="#ebebeb"/>
                </g>
              </g>
              <path id="Path_2443" data-name="Path 2443" d="M654.788,580.931a8.33,8.33,0,0,1,.8-3.692h-6.127a8.33,8.33,0,0,1,.8,3.692c0,2.234-2.685,6.358-2.685,9.108s2.846,3.651,4.953,3.651,4.953-.9,4.953-3.651S654.788,583.165,654.788,580.931Z" transform="translate(-640.773 -491.627)" fill="#ebebeb"/>
              <g id="Group_15860" data-name="Group 15860" transform="translate(26.008 57.161)">
                <g id="Group_15859" data-name="Group 15859" transform="translate(0.759)">
                  <path id="Path_2444" data-name="Path 2444" d="M704.925,526.328c1.653-3.232-2.021-3.172-1.741-4.021.525-1.593,2.505.138,3.309-.664s-1.982-3.3-.524-4.168.948,2.064,2.209,1.856.51-3.3,2-2.958c1.118.26-.21,2.2-.087,3.1s2.428-.414,2.467.877-2.748.725-3.076,1.706,3,1.184,1.832,2.014-3.365-.164-3.944.7S704.224,527.7,704.925,526.328Z" transform="translate(-697.163 -516.346)" fill="#ebebeb"/>
                  <path id="Path_2445" data-name="Path 2445" d="M697.059,532.041c-1.553-3.266-4.114-1.07-4.631-1.837-.97-1.44,1.9-1.371,1.792-2.412s-4.195-1.184-3.889-2.655,2.416.911,3.136.024-2.425-2.647-1.076-3.273c1.014-.471,1.7,1.683,2.552,2.253s1.377-1.717,2.494-.823-1.342,2.127-.747,3.016,3.13-.917,3,.357-2.53,1.857-2.213,2.809S697.719,533.428,697.059,532.041Z" transform="translate(-690.314 -519.263)" fill="#ebebeb"/>
                </g>
                <path id="Path_2446" data-name="Path 2446" d="M700.148,534h-8.481s-2.977,2.131-2.977,4.648,1.855,5.133,7.218,5.133,7.217-2.615,7.217-5.133S700.148,534,700.148,534Z" transform="translate(-688.69 -525.754)" fill="#ebebeb"/>
              </g>
              <g id="Group_15861" data-name="Group 15861" transform="translate(28.088 90.588)">
                <rect id="Rectangle_5500" data-name="Rectangle 5500" width="7.827" height="8.86" transform="translate(2.422 2.615)" fill="#ebebeb"/>
                <ellipse id="Ellipse_104" data-name="Ellipse 104" cx="6.177" cy="2.615" rx="6.177" ry="2.615" fill="#ebebeb"/>
              </g>
              <g id="Group_15862" data-name="Group 15862" transform="translate(22.637 14.102)">
                <rect id="Rectangle_5501" data-name="Rectangle 5501" width="5.804" height="6.569" transform="translate(1.795 1.939)" fill="#ebebeb"/>
                <path id="Path_2447" data-name="Path 2447" d="M690.635,426.126c0,1.071-2.05,1.939-4.58,1.939s-4.58-.868-4.58-1.939,2.051-1.939,4.58-1.939S690.635,425.055,690.635,426.126Z" transform="translate(-681.475 -424.187)" fill="#ebebeb"/>
              </g>
              <g id="Group_15864" data-name="Group 15864" transform="translate(3.233)">
                <g id="Group_15863" data-name="Group 15863">
                  <path id="Path_2448" data-name="Path 2448" d="M661.551,412.773s-2.008-5.81,6.88-12.346c0,0-7.61,6.972-5.112,12.346Z" transform="translate(-651.353 -397.426)" fill="#ebebeb"/>
                  <path id="Path_2449" data-name="Path 2449" d="M659.653,410.671s-4.6-6.472,3.641-16.666c0,0-6.542,10.385-1.511,16.2Z" transform="translate(-649.762 -394.005)" fill="#ebebeb"/>
                  <path id="Path_2450" data-name="Path 2450" d="M649.955,412.773s2.008-5.81-6.88-12.346c0,0,7.61,6.972,5.112,12.346Z" transform="translate(-641.613 -397.426)" fill="#ebebeb"/>
                  <path id="Path_2451" data-name="Path 2451" d="M654.864,410.9s3.7-5.2-2.928-13.393c0,0,5.258,8.345,1.217,13.022Z" transform="translate(-646.333 -395.871)" fill="#ebebeb"/>
                  <path id="Path_2452" data-name="Path 2452" d="M660.923,418.548s-1.735-5.871,7.451-12.114c0,0-7.929,6.721-5.684,12.172Z" transform="translate(-651.052 -400.627)" fill="#ebebeb"/>
                  <path id="Path_2453" data-name="Path 2453" d="M647.4,417.023s1.735-5.871-7.45-12.114c0,0,7.929,6.721,5.684,12.172Z" transform="translate(-639.945 -399.814)" fill="#ebebeb"/>
                </g>
                <path id="Path_2454" data-name="Path 2454" d="M651.316,422.5h-6.009l2.757,9.3h6.5l2.757-9.3Z" transform="translate(-642.802 -409.186)" fill="#ebebeb"/>
              </g>
              <g id="Group_15874" data-name="Group 15874" transform="translate(4.662 67.928)">
                <g id="Group_15869" data-name="Group 15869" transform="translate(0 0)">
                  <g id="Group_15865" data-name="Group 15865" transform="translate(0.445 4.918)">
                    <rect id="Rectangle_5502" data-name="Rectangle 5502" width="2.454" height="18.391" transform="translate(0 2.454) rotate(-90)" fill="#ebebeb"/>
                  </g>
                  <g id="Group_15867" data-name="Group 15867" transform="translate(0 2.084)">
                    <g id="Group_15866" data-name="Group 15866">
                      <rect id="Rectangle_5503" data-name="Rectangle 5503" width="2.454" height="18.391" transform="translate(0.445 2.825) rotate(-90)" fill="#ebebeb"/>
                      <path id="Path_2455" data-name="Path 2455" d="M662.286,547.047H643.005v-3.2h19.281Zm-18.391-.741h17.5v-1.713h-17.5Z" transform="translate(-643.005 -543.852)" fill="#ebebeb"/>
                    </g>
                  </g>
                  <g id="Group_15868" data-name="Group 15868" transform="translate(0.445)">
                    <rect id="Rectangle_5504" data-name="Rectangle 5504" width="2.455" height="18.391" transform="translate(0 2.455) rotate(-90)" fill="#ebebeb"/>
                  </g>
                </g>
                <g id="Group_15870" data-name="Group 15870" transform="translate(11.276 0)">
                  <rect id="Rectangle_5505" data-name="Rectangle 5505" width="0.132" height="2.455" fill="#ebebeb"/>
                </g>
                <g id="Group_15871" data-name="Group 15871" transform="translate(12.757 0)">
                  <rect id="Rectangle_5506" data-name="Rectangle 5506" width="0.132" height="2.455" fill="#ebebeb"/>
                </g>
                <g id="Group_15872" data-name="Group 15872" transform="translate(14.239 0)">
                  <rect id="Rectangle_5507" data-name="Rectangle 5507" width="0.132" height="2.455" fill="#ebebeb"/>
                </g>
                <g id="Group_15873" data-name="Group 15873" transform="translate(15.72 0)">
                  <rect id="Rectangle_5508" data-name="Rectangle 5508" width="0.132" height="2.455" fill="#ebebeb"/>
                </g>
                <rect id="Rectangle_5509" data-name="Rectangle 5509" width="8.655" height="0.404" transform="translate(9.28 5.337)" fill="#ebebeb"/>
                <rect id="Rectangle_5510" data-name="Rectangle 5510" width="8.655" height="0.404" transform="translate(9.28 5.943)" fill="#ebebeb"/>
                <rect id="Rectangle_5511" data-name="Rectangle 5511" width="8.655" height="0.404" transform="translate(9.28 6.55)" fill="#ebebeb"/>
              </g>
            </g>
            <g id="Group_15912" data-name="Group 15912" transform="translate(451.342 103.674)">
              <g id="Group_15884" data-name="Group 15884" transform="translate(0 22.239)">
                <g id="Group_15876" data-name="Group 15876">
                  <rect id="Rectangle_5512" data-name="Rectangle 5512" width="48.795" height="1.743" transform="translate(0.445 0.371)" fill="#ebebeb"/>
                  <path id="Path_2456" data-name="Path 2456" d="M1511.81,420.634h-49.685V418.15h49.685Zm-48.8-.741h47.907v-1h-47.907Z" transform="translate(-1462.125 -418.15)" fill="#ebebeb"/>
                </g>
                <g id="Group_15877" data-name="Group 15877" transform="translate(0 26.291)">
                  <rect id="Rectangle_5513" data-name="Rectangle 5513" width="48.795" height="1.743" transform="translate(0.445 0.371)" fill="#ebebeb"/>
                  <path id="Path_2457" data-name="Path 2457" d="M1511.81,476.9h-49.685V474.42h49.685Zm-48.8-.742h47.907v-1h-47.907Z" transform="translate(-1462.125 -474.42)" fill="#ebebeb"/>
                </g>
                <g id="Group_15878" data-name="Group 15878" transform="translate(0 52.582)">
                  <rect id="Rectangle_5514" data-name="Rectangle 5514" width="48.795" height="1.743" transform="translate(0.445 0.37)" fill="#ebebeb"/>
                  <path id="Path_2458" data-name="Path 2458" d="M1511.81,533.175h-49.685v-2.484h49.685Zm-48.8-.741h47.907v-1h-47.907Z" transform="translate(-1462.125 -530.691)" fill="#ebebeb"/>
                </g>
                <g id="Group_15883" data-name="Group 15883" transform="translate(0 0.581)">
                  <g id="Group_15879" data-name="Group 15879" transform="translate(0 78.872)">
                    <rect id="Rectangle_5515" data-name="Rectangle 5515" width="48.795" height="1.743" transform="translate(0.445 0.371)" fill="#ebebeb"/>
                    <path id="Path_2459" data-name="Path 2459" d="M1511.81,590.688h-49.685V588.2h49.685Zm-48.8-.741h47.907v-1h-47.907Z" transform="translate(-1462.125 -588.204)" fill="#ebebeb"/>
                  </g>
                  <g id="Group_15880" data-name="Group 15880" transform="translate(0 104.035)">
                    <rect id="Rectangle_5516" data-name="Rectangle 5516" width="48.795" height="1.743" transform="translate(0.445 0.371)" fill="#ebebeb"/>
                    <path id="Path_2460" data-name="Path 2460" d="M1511.81,644.544h-49.685V642.06h49.685Zm-48.8-.741h47.907v-1h-47.907Z" transform="translate(-1462.125 -642.06)" fill="#ebebeb"/>
                  </g>
                  <g id="Group_15881" data-name="Group 15881">
                    <rect id="Rectangle_5517" data-name="Rectangle 5517" width="2.614" height="126.474" transform="translate(0.445 0.37)" fill="#ebebeb"/>
                    <path id="Path_2461" data-name="Path 2461" d="M1465.628,546.609h-3.5V419.394h3.5Zm-2.614-.741h1.725V420.135h-1.725Z" transform="translate(-1462.125 -419.394)" fill="#ebebeb"/>
                  </g>
                  <g id="Group_15882" data-name="Group 15882" transform="translate(46.182)">
                    <rect id="Rectangle_5518" data-name="Rectangle 5518" width="2.614" height="126.474" transform="translate(0.445 0.37)" fill="#ebebeb"/>
                    <path id="Path_2462" data-name="Path 2462" d="M1564.47,546.609h-3.5V419.394h3.5Zm-2.614-.741h1.725V420.135h-1.725Z" transform="translate(-1560.967 -419.394)" fill="#ebebeb"/>
                  </g>
                </g>
              </g>
              <g id="Group_15895" data-name="Group 15895" transform="translate(8.746 28.436)">
                <g id="Group_15886" data-name="Group 15886">
                  <g id="Group_15885" data-name="Group 15885">
                    <rect id="Rectangle_5519" data-name="Rectangle 5519" width="5.112" height="20.093" transform="translate(0.445 0.371)" fill="#ebebeb"/>
                    <path id="Path_2463" data-name="Path 2463" d="M1486.846,452.249h-6V431.414h6Zm-5.112-.741h4.223V432.156h-4.223Z" transform="translate(-1480.845 -431.414)" fill="#ebebeb"/>
                  </g>
                  <path id="Path_2464" data-name="Path 2464" d="M1487.031,440.451a1.713,1.713,0,1,1-1.685-1.4A1.564,1.564,0,0,1,1487.031,440.451Z" transform="translate(-1482.346 -435.481)" fill="#ebebeb"/>
                </g>
                <g id="Group_15888" data-name="Group 15888" transform="translate(6.009)">
                  <g id="Group_15887" data-name="Group 15887">
                    <rect id="Rectangle_5520" data-name="Rectangle 5520" width="5.112" height="20.093" transform="translate(0.445 0.371)" fill="#ebebeb"/>
                    <path id="Path_2465" data-name="Path 2465" d="M1499.706,452.249h-6V431.414h6Zm-5.112-.741h4.223V432.156h-4.223Z" transform="translate(-1493.705 -431.414)" fill="#ebebeb"/>
                  </g>
                  <path id="Path_2466" data-name="Path 2466" d="M1499.891,440.451a1.713,1.713,0,1,1-1.685-1.4A1.564,1.564,0,0,1,1499.891,440.451Z" transform="translate(-1495.206 -435.481)" fill="#ebebeb"/>
                </g>
                <g id="Group_15890" data-name="Group 15890" transform="translate(12.017)">
                  <g id="Group_15889" data-name="Group 15889">
                    <rect id="Rectangle_5521" data-name="Rectangle 5521" width="5.112" height="20.093" transform="translate(0.445 0.371)" fill="#ebebeb"/>
                    <path id="Path_2467" data-name="Path 2467" d="M1512.566,452.249h-6V431.414h6Zm-5.112-.741h4.223V432.156h-4.223Z" transform="translate(-1506.565 -431.414)" fill="#ebebeb"/>
                  </g>
                  <path id="Path_2468" data-name="Path 2468" d="M1512.751,440.451a1.713,1.713,0,1,1-1.685-1.4A1.564,1.564,0,0,1,1512.751,440.451Z" transform="translate(-1508.066 -435.481)" fill="#ebebeb"/>
                </g>
                <g id="Group_15892" data-name="Group 15892" transform="translate(18.026)">
                  <g id="Group_15891" data-name="Group 15891">
                    <rect id="Rectangle_5522" data-name="Rectangle 5522" width="5.112" height="20.093" transform="translate(0.445 0.371)" fill="#ebebeb"/>
                    <path id="Path_2469" data-name="Path 2469" d="M1525.426,452.249h-6V431.414h6Zm-5.112-.741h4.223V432.156h-4.223Z" transform="translate(-1519.425 -431.414)" fill="#ebebeb"/>
                  </g>
                  <path id="Path_2470" data-name="Path 2470" d="M1525.611,440.451a1.713,1.713,0,1,1-1.685-1.4A1.564,1.564,0,0,1,1525.611,440.451Z" transform="translate(-1520.926 -435.481)" fill="#ebebeb"/>
                </g>
                <g id="Group_15894" data-name="Group 15894" transform="translate(24.034)">
                  <g id="Group_15893" data-name="Group 15893">
                    <rect id="Rectangle_5523" data-name="Rectangle 5523" width="5.112" height="20.093" transform="translate(0.445 0.371)" fill="#ebebeb"/>
                    <path id="Path_2471" data-name="Path 2471" d="M1538.287,452.249h-6V431.414h6Zm-5.112-.741h4.223V432.156h-4.223Z" transform="translate(-1532.285 -431.414)" fill="#ebebeb"/>
                  </g>
                  <path id="Path_2472" data-name="Path 2472" d="M1538.471,440.451a1.713,1.713,0,1,1-1.685-1.4A1.564,1.564,0,0,1,1538.471,440.451Z" transform="translate(-1533.786 -435.481)" fill="#ebebeb"/>
                </g>
              </g>
              <path id="Path_2473" data-name="Path 2473" d="M1483.887,557.478a8.33,8.33,0,0,1,.8-3.692h-6.127a8.328,8.328,0,0,1,.8,3.692c0,2.234-2.685,6.359-2.685,9.108s2.846,3.652,4.953,3.652,4.953-.9,4.953-3.652S1483.887,559.712,1483.887,557.478Z" transform="translate(-1469.872 -468.174)" fill="#ebebeb"/>
              <g id="Group_15897" data-name="Group 15897" transform="translate(26.008 57.161)">
                <g id="Group_15896" data-name="Group 15896" transform="translate(0.759)">
                  <path id="Path_2474" data-name="Path 2474" d="M1534.025,502.874c1.652-3.232-2.021-3.172-1.741-4.021.525-1.593,2.506.138,3.309-.664s-1.982-3.3-.524-4.167.948,2.064,2.208,1.856.51-3.3,2-2.958c1.118.26-.21,2.195-.087,3.1s2.427-.414,2.467.876-2.748.725-3.077,1.706,3,1.183,1.831,2.013-3.365-.164-3.944.7S1533.323,504.247,1534.025,502.874Z" transform="translate(-1526.262 -492.893)" fill="#ebebeb"/>
                  <path id="Path_2475" data-name="Path 2475" d="M1526.158,508.588c-1.553-3.266-4.114-1.07-4.631-1.838-.97-1.44,1.9-1.371,1.792-2.412s-4.195-1.184-3.889-2.655,2.415.912,3.135.025-2.425-2.647-1.076-3.273c1.014-.471,1.7,1.683,2.552,2.253s1.376-1.717,2.494-.823-1.341,2.126-.747,3.016,3.13-.917,3,.357-2.53,1.857-2.213,2.81S1526.818,509.975,1526.158,508.588Z" transform="translate(-1519.414 -495.81)" fill="#ebebeb"/>
                </g>
                <path id="Path_2476" data-name="Path 2476" d="M1529.247,510.55h-8.481s-2.977,2.131-2.977,4.648,1.855,5.133,7.218,5.133,7.218-2.615,7.218-5.133S1529.247,510.55,1529.247,510.55Z" transform="translate(-1517.789 -502.3)" fill="#ebebeb"/>
              </g>
              <g id="Group_15898" data-name="Group 15898" transform="translate(28.088 90.588)">
                <rect id="Rectangle_5524" data-name="Rectangle 5524" width="7.827" height="8.86" transform="translate(2.422 2.615)" fill="#ebebeb"/>
                <ellipse id="Ellipse_105" data-name="Ellipse 105" cx="6.177" cy="2.615" rx="6.177" ry="2.615" fill="#ebebeb"/>
              </g>
              <g id="Group_15899" data-name="Group 15899" transform="translate(22.637 14.102)">
                <rect id="Rectangle_5525" data-name="Rectangle 5525" width="5.804" height="6.569" transform="translate(1.795 1.938)" fill="#ebebeb"/>
                <path id="Path_2477" data-name="Path 2477" d="M1519.734,402.673c0,1.07-2.051,1.939-4.58,1.939s-4.58-.868-4.58-1.939,2.051-1.939,4.58-1.939S1519.734,401.6,1519.734,402.673Z" transform="translate(-1510.574 -400.734)" fill="#ebebeb"/>
              </g>
              <g id="Group_15901" data-name="Group 15901" transform="translate(3.233)">
                <g id="Group_15900" data-name="Group 15900">
                  <path id="Path_2478" data-name="Path 2478" d="M1490.651,389.32s-2.008-5.81,6.88-12.346c0,0-7.61,6.972-5.111,12.346Z" transform="translate(-1480.452 -373.973)" fill="#ebebeb"/>
                  <path id="Path_2479" data-name="Path 2479" d="M1488.752,387.218s-4.6-6.472,3.641-16.666c0,0-6.541,10.385-1.511,16.2Z" transform="translate(-1478.861 -370.552)" fill="#ebebeb"/>
                  <path id="Path_2480" data-name="Path 2480" d="M1479.055,389.32s2.008-5.81-6.88-12.346c0,0,7.609,6.972,5.111,12.346Z" transform="translate(-1470.712 -373.973)" fill="#ebebeb"/>
                  <path id="Path_2481" data-name="Path 2481" d="M1483.963,387.448s3.7-5.2-2.928-13.393c0,0,5.258,8.345,1.217,13.022Z" transform="translate(-1475.432 -372.418)" fill="#ebebeb"/>
                  <path id="Path_2482" data-name="Path 2482" d="M1490.022,395.1s-1.735-5.871,7.45-12.114c0,0-7.929,6.72-5.683,12.172Z" transform="translate(-1480.151 -377.174)" fill="#ebebeb"/>
                  <path id="Path_2483" data-name="Path 2483" d="M1476.495,393.57s1.735-5.871-7.451-12.114c0,0,7.929,6.721,5.684,12.172Z" transform="translate(-1469.044 -376.361)" fill="#ebebeb"/>
                </g>
                <path id="Path_2484" data-name="Path 2484" d="M1480.416,399.047h-6.009l2.757,9.3h6.5l2.757-9.3Z" transform="translate(-1471.901 -385.733)" fill="#ebebeb"/>
              </g>
              <g id="Group_15911" data-name="Group 15911" transform="translate(4.663 67.928)">
                <g id="Group_15906" data-name="Group 15906" transform="translate(0 0)">
                  <g id="Group_15902" data-name="Group 15902" transform="translate(0.444 4.918)">
                    <rect id="Rectangle_5526" data-name="Rectangle 5526" width="2.454" height="18.391" transform="translate(0 2.454) rotate(-90)" fill="#ebebeb"/>
                  </g>
                  <g id="Group_15904" data-name="Group 15904" transform="translate(0 2.084)">
                    <g id="Group_15903" data-name="Group 15903">
                      <rect id="Rectangle_5527" data-name="Rectangle 5527" width="2.454" height="18.391" transform="translate(0.444 2.825) rotate(-90)" fill="#ebebeb"/>
                      <path id="Path_2485" data-name="Path 2485" d="M1491.386,523.594h-19.281v-3.2h19.281Zm-18.391-.741h17.5v-1.713h-17.5Z" transform="translate(-1472.105 -520.398)" fill="#ebebeb"/>
                    </g>
                  </g>
                  <g id="Group_15905" data-name="Group 15905" transform="translate(0.444)">
                    <rect id="Rectangle_5528" data-name="Rectangle 5528" width="2.455" height="18.391" transform="translate(0 2.455) rotate(-90)" fill="#ebebeb"/>
                  </g>
                </g>
                <g id="Group_15907" data-name="Group 15907" transform="translate(11.276 0)">
                  <rect id="Rectangle_5529" data-name="Rectangle 5529" width="0.132" height="2.455" fill="#ebebeb"/>
                </g>
                <g id="Group_15908" data-name="Group 15908" transform="translate(12.757 0)">
                  <rect id="Rectangle_5530" data-name="Rectangle 5530" width="0.132" height="2.455" fill="#ebebeb"/>
                </g>
                <g id="Group_15909" data-name="Group 15909" transform="translate(14.238 0)">
                  <rect id="Rectangle_5531" data-name="Rectangle 5531" width="0.132" height="2.455" fill="#ebebeb"/>
                </g>
                <g id="Group_15910" data-name="Group 15910" transform="translate(15.72 0)">
                  <rect id="Rectangle_5532" data-name="Rectangle 5532" width="0.132" height="2.455" fill="#ebebeb"/>
                </g>
                <rect id="Rectangle_5533" data-name="Rectangle 5533" width="8.655" height="0.404" transform="translate(9.28 5.337)" fill="#ebebeb"/>
                <rect id="Rectangle_5534" data-name="Rectangle 5534" width="8.655" height="0.404" transform="translate(9.28 5.943)" fill="#ebebeb"/>
                <rect id="Rectangle_5535" data-name="Rectangle 5535" width="8.655" height="0.404" transform="translate(9.28 6.55)" fill="#ebebeb"/>
              </g>
            </g>
            <g id="Group_15920" data-name="Group 15920" transform="translate(222.172 176.182)">
              <path id="Path_2486" data-name="Path 2486" d="M1143.18,687.433H1027.111c-2.216,0-3.814-1.806-3.2-3.615h0a3.3,3.3,0,0,1,3.2-2.046H1143.18a3.3,3.3,0,0,1,3.2,2.046h0C1146.994,685.627,1145.4,687.433,1143.18,687.433Z" transform="translate(-1021.396 -608.869)" fill="#ebebeb" opacity="0.32"/>
              <g id="Group_15915" data-name="Group 15915" transform="translate(0 25.082)">
                <rect id="Rectangle_5536" data-name="Rectangle 5536" width="2.245" height="47.555" transform="translate(1.339 0.266)" fill="#ebebeb"/>
                <rect id="Rectangle_5537" data-name="Rectangle 5537" width="2.245" height="47.555" transform="translate(123.284 0.266)" fill="#ebebeb"/>
                <g id="Group_15913" data-name="Group 15913">
                  <path id="Path_2487" data-name="Path 2487" d="M1145.8,584.665H1019.488l.961-4.675h124.176Z" transform="translate(-1019.11 -579.724)" fill="#ebebeb"/>
                  <path id="Path_2488" data-name="Path 2488" d="M1145.763,584.627H1018.679l1.07-5.206h124.7Zm-126.328-.532h125.543l-1.042-4.143H1020.286Z" transform="translate(-1018.679 -579.421)" fill="#ebebeb"/>
                </g>
                <g id="Group_15914" data-name="Group 15914" transform="translate(0.059 4.675)">
                  <path id="Path_2489" data-name="Path 2489" d="M1145.586,590h-126.1V638.8h2.085V593.2h122.143V638.8h2.085V590Z" transform="translate(-1019.169 -589.729)" fill="#ebebeb"/>
                  <path id="Path_2490" data-name="Path 2490" d="M1145.757,638.766h-2.722V593.161H1021.529v45.605h-2.723v-49.34h126.951Zm-2.085-.532h1.447V589.958H1019.443v48.277h1.448V592.63h122.781Z" transform="translate(-1018.806 -589.426)" fill="#ebebeb"/>
                </g>
              </g>
              <g id="Group_15919" data-name="Group 15919" transform="translate(86.574)">
                <path id="Path_2491" data-name="Path 2491" d="M1245.493,527.705v17.481a2.291,2.291,0,0,1-2.5,1.966h-36.514a2.292,2.292,0,0,1-2.5-1.966V527.705a2.294,2.294,0,0,1,2.5-1.966h36.514A2.294,2.294,0,0,1,1245.493,527.705Z" transform="translate(-1203.973 -525.739)" fill="#ebebeb"/>
                <path id="Path_2492" data-name="Path 2492" d="M1207.432,547.245a1.524,1.524,0,0,1-1.669-1.311V528.453a1.524,1.524,0,0,1,1.669-1.311h36.511a1.525,1.525,0,0,1,1.669,1.311v17.481a1.525,1.525,0,0,1-1.669,1.311Z" transform="translate(-1204.927 -526.487)" fill="#ebebeb"/>
                <g id="Group_15916" data-name="Group 15916" transform="translate(1.352 1.045)">
                  <path id="Path_2493" data-name="Path 2493" d="M1208.384,547.337a.763.763,0,0,1-.835-.656V529.2a.762.762,0,0,1,.835-.656h36.511a.762.762,0,0,1,.834.656v17.481a.763.763,0,0,1-.834.656Z" transform="translate(-1207.23 -528.279)" fill="#ebebeb"/>
                  <path id="Path_2494" data-name="Path 2494" d="M1244.531,547.3H1208.02a1.059,1.059,0,0,1-1.154-.921V528.9a1.059,1.059,0,0,1,1.154-.921h36.511a1.058,1.058,0,0,1,1.153.921v17.481A1.058,1.058,0,0,1,1244.531,547.3Zm-36.511-18.792a.467.467,0,0,0-.516.39v17.481c0,.214.231.39.516.39h36.511c.285,0,.516-.175.516-.39V528.9a.467.467,0,0,0-.516-.39Z" transform="translate(-1206.866 -527.976)" fill="#ebebeb"/>
                </g>
                <path id="Path_2495" data-name="Path 2495" d="M1247.719,560.789h-9.792l1.105-9.454h7.581Z" transform="translate(-1222.063 -539.376)" fill="#ebebeb"/>
                <g id="Group_15917" data-name="Group 15917" transform="translate(15.826 11.192)">
                  <path id="Path_2496" data-name="Path 2496" d="M1247.763,565.626h-9.18l1.441-15.364h6.3Z" transform="translate(-1238.239 -549.996)" fill="#ebebeb"/>
                  <path id="Path_2497" data-name="Path 2497" d="M1247.715,565.589h-9.869l1.491-15.9h6.887Zm-9.18-.531h8.491l-1.392-14.833h-5.708Z" transform="translate(-1237.846 -549.693)" fill="#ebebeb"/>
                </g>
                <g id="Group_15918" data-name="Group 15918" transform="translate(9.593 25.901)">
                  <path id="Path_2498" data-name="Path 2498" d="M1246.885,584.091h-21.7c0-1.3,1.339-2.349,2.991-2.349h15.717c1.651,0,2.99,1.052,2.99,2.349Z" transform="translate(-1224.868 -581.477)" fill="#ebebeb"/>
                  <path id="Path_2499" data-name="Path 2499" d="M1246.84,584.054h-22.335v-.266c0-1.441,1.484-2.615,3.309-2.615h15.718c1.824,0,3.309,1.173,3.309,2.615Zm-21.676-.532h21.017a2.539,2.539,0,0,0-2.65-1.818h-15.718A2.538,2.538,0,0,0,1225.164,583.523Z" transform="translate(-1224.505 -581.174)" fill="#ebebeb"/>
                </g>
              </g>
            </g>
          </g>
        </g>
      </g>
    </g>
    <g id="Group_15949" data-name="Group 15949" transform="translate(666.629 305.396)">
      <g id="Group_15939" data-name="Group 15939" transform="translate(20.567 51.305)">
        <g id="Group_15936" data-name="Group 15936" transform="translate(0 34.66)">
          <path id="Path_2511" data-name="Path 2511" d="M810.125,678.334c-2.278,1.727-5.712,2.606-6.121,1.591-.465-1.143,2.63-1.343,4.3-3.391,1.809-2.214,3.063-3.509,3.954-2.859S812.408,676.608,810.125,678.334Z" transform="translate(-797.396 -670.986)" fill="#0080af"/>
          <path id="Path_2512" data-name="Path 2512" d="M819.911,672.844c-3.48-.439-10.914,3.964-11.677,1-.685-2.654,2.141-7.93,11.9-3.71Z" transform="translate(-799.622 -668.347)" fill="#0080af"/>
          <path id="Path_2513" data-name="Path 2513" d="M811.2,668.774c1.506,4.609-4.116,6.423-6.017,6.586-2.091.177-4.194-3.01-3.731-4.616S810.621,667.013,811.2,668.774Z" transform="translate(-796.026 -668.111)" fill="#0080af"/>
          <path id="Path_2514" data-name="Path 2514" d="M794.968,672.177c-2.441.194-3.761-.265-3.738-.919s1.42-.678,3.859-.876,5.49-1.052,5.468-.4S797.406,671.975,794.968,672.177Z" transform="translate(-790.615 -668.98)" fill="#0080af"/>
          <path id="Path_2515" data-name="Path 2515" d="M794.806,678.115c-2.4.7-4.782.232-4.889-.4s2.246-.746,4.645-1.44,3.992-1.017,4.1-.383S797.2,677.42,794.806,678.115Z" transform="translate(-789.914 -672.074)" fill="#0080af"/>
          <path id="Path_2516" data-name="Path 2516" d="M801.123,682.348c-2.423.6-3.911.383-4-.252s1.582-.727,4-1.323,4.129-.982,4.219-.345S803.547,681.751,801.123,682.348Z" transform="translate(-793.753 -674.498)" fill="#0080af"/>
        </g>
        <g id="Group_15938" data-name="Group 15938" transform="translate(15.215)">
          <path id="Path_2517" data-name="Path 2517" d="M878,635.943c3.6-1.572-19.351-42.6-25.825-42.008,0,0-9.415,7.827-4.8,23.269C847.378,617.2,863.478,642.291,878,635.943Z" transform="translate(-835.066 -593.929)" fill="#0080af"/>
          <path id="Path_2518" data-name="Path 2518" d="M822.478,673.99l4.764,2.724,2.188-7.952-5.38.16Z" transform="translate(-822.478 -633.798)" fill="#0080af"/>
          <path id="Path_2519" data-name="Path 2519" d="M868.126,674.217a4.621,4.621,0,0,1-3.5,3.5c-5.174,1.163-18.225,2.75-37.372-4.143,0,0-.872-3.984,2.231-8.81,0,0,22.279-4.734,34.76-.991C864.25,663.777,869.568,667.736,868.126,674.217Z" transform="translate(-824.965 -630.375)" fill="#0080af"/>
          <g id="Group_15937" data-name="Group 15937" transform="translate(2.187 22.494)">
            <path id="Path_2520" data-name="Path 2520" d="M839.842,642.854c-.079-.264-.144-.521-.215-.782,3.435,2.8,9.3,11.041,15.188,11.622-6.312-.27-19.49.287-22.855.438.033-.054.061-.107.1-.161a131.926,131.926,0,0,1,14.931-2.1A71.059,71.059,0,0,1,839.842,642.854Z" transform="translate(-829.716 -642.072)" fill="#0080af"/>
            <path id="Path_2521" data-name="Path 2521" d="M856.312,690.264c-6.8.231-16.644-.675-29.046-5.14a6.739,6.739,0,0,1-.108-1.114A113.606,113.606,0,0,0,856.312,690.264Z" transform="translate(-827.158 -664.416)" fill="#0080af"/>
          </g>
          <path id="Path_2522" data-name="Path 2522" d="M838.629,676.451a1.243,1.243,0,1,1,1.308,1.176A1.243,1.243,0,0,1,838.629,676.451Z" transform="translate(-831.082 -637.197)" fill="#0080af"/>
        </g>
      </g>
      <g id="Group_15940" data-name="Group 15940" transform="translate(15.942 29.5)">
        <path id="Path_2523" data-name="Path 2523" d="M858.671,585.995l-1.238.223-.876,2.894,2.512,1.5Z" transform="translate(-820.794 -567.897)" fill="#eaeaea"/>
        <path id="Path_2524" data-name="Path 2524" d="M841.862,553.109l-10.406-5.849-3.3,17.75,15.1,7.128Z" transform="translate(-805.664 -547.26)" fill="#f7c371"/>
        <path id="Path_2525" data-name="Path 2525" d="M848.179,676.862l-21.92,3.112-6.164,31.184,18.386,3.751Z" transform="translate(-801.369 -616.308)" fill="#eaeaea"/>
        <path id="Path_2526" data-name="Path 2526" d="M780.015,671.151c13.376,1.775,29.643-.7,38.909-14.878,5.013-7.675,7.155-21.31,9.542-34.777,3.191-18-13.139-44.886-30.027-42.109-23.472,3.862-13.518,35.468-12.131,43.609C790.374,646.846,781.348,666.2,780.015,671.151Z" transform="translate(-780.015 -564.27)" fill="#03b4e9"/>
        <path id="Path_2527" data-name="Path 2527" d="M804.2,685.7c.76-5.957.938-24.594-6.909-46.588-1.522-4.266-2.091-16.376-2.844-26.533-.281-3.792-7.66,2.243-10.02,11.067-1.464,5.474,1.353,13.41,1.884,16.527,4.066,23.85-4.961,43.2-6.294,48.155C787.747,689.35,796.443,688.951,804.2,685.7Z" transform="translate(-780.015 -581.443)" fill="#0080af"/>
        <path id="Path_2528" data-name="Path 2528" d="M843.4,638.39c2.06-23.547-12.731-49.059-27.994-57.835-2.564-1.475.155-3.153,7.807-1.36C830.057,580.828,855.96,598.544,843.4,638.39Z" transform="translate(-798.372 -563.86)" fill="#0080af"/>
        <path id="Path_2529" data-name="Path 2529" d="M854.765,623.872c.083-20.022-5.822-31.365-21.577-43.791,6.672,1.592,32.257,14.493,21.879,52.083C854.8,633.121,854.75,627.333,854.765,623.872Z" transform="translate(-808.344 -564.746)" fill="#eaeaea"/>
        <path id="Path_2530" data-name="Path 2530" d="M864.346,730.945c.225-.806-.043-1.586-.6-1.741s-1.191.372-1.416,1.178.043,1.586.6,1.741S864.12,731.752,864.346,730.945Z" transform="translate(-823.827 -644.18)" fill="#0080af"/>
        <path id="Path_2531" data-name="Path 2531" d="M870.063,710.493c.225-.806-.043-1.586-.6-1.742s-1.191.372-1.416,1.178.042,1.586.6,1.741S869.838,711.3,870.063,710.493Z" transform="translate(-826.873 -633.284)" fill="#0080af"/>
        <path id="Path_2532" data-name="Path 2532" d="M853.2,589.254l3.823,1.948-.794-4.569-.705-.516Z" transform="translate(-819.008 -567.962)" fill="#f46973"/>
        <path id="Path_2533" data-name="Path 2533" d="M868.954,642.313l-.154-8.107s7.017-24.249-9.142-39.149l.305-.6C873.18,607.187,875.093,626.178,868.954,642.313Z" transform="translate(-822.447 -572.407)" fill="#f46973"/>
        <path id="Path_2534" data-name="Path 2534" d="M840.949,578.67l-15.207-6.424-2.45,2.887,14.137,8.179Z" transform="translate(-803.072 -560.571)" fill="#fff"/>
      </g>
      <g id="Group_15944" data-name="Group 15944" transform="translate(0 49.554)">
        <g id="Group_15941" data-name="Group 15941" transform="translate(40.137 36.078)">
          <path id="Path_2535" data-name="Path 2535" d="M846.6,678.23c2.457,1.76,6.111,2.59,6.515,1.506.459-1.221-2.817-1.344-4.638-3.461-1.976-2.288-3.338-3.622-4.261-2.908S844.14,676.47,846.6,678.23Z" transform="translate(-838.22 -670.476)" fill="#f8c471"/>
          <path id="Path_2536" data-name="Path 2536" d="M832.109,672.631c3.665-.564,11.648,3.876,12.37.723.648-2.824-2.49-8.319-12.681-3.58Z" transform="translate(-831.798 -667.675)" fill="#ffd9a4"/>
          <path id="Path_2537" data-name="Path 2537" d="M843.541,668.158c-1.46,4.914,4.534,6.67,6.548,6.787,2.215.127,4.346-3.3,3.811-4.985S844.1,666.28,843.541,668.158Z" transform="translate(-837.933 -667.4)" fill="#ffd9a4"/>
          <path id="Path_2538" data-name="Path 2538" d="M861.622,671.319c2.585.135,3.967-.387,3.924-1.077s-1.521-.677-4.1-.815-5.833-.955-5.791-.265S859.039,671.176,861.622,671.319Z" transform="translate(-844.507 -668.192)" fill="#ffd9a4"/>
          <path id="Path_2539" data-name="Path 2539" d="M862.663,677.567c2.556.666,5.061.108,5.156-.564s-2.4-.724-4.95-1.389-4.247-.961-4.341-.287S860.109,676.9,862.663,677.567Z" transform="translate(-846.037 -671.419)" fill="#ffd9a4"/>
          <path id="Path_2540" data-name="Path 2540" d="M856.738,682.2c2.578.562,4.144.293,4.22-.381s-1.692-.723-4.268-1.284-4.391-.919-4.468-.243S854.158,681.643,856.738,682.2Z" transform="translate(-842.678 -674.074)" fill="#ffd9a4"/>
        </g>
        <g id="Group_15943" data-name="Group 15943">
          <path id="Path_2541" data-name="Path 2541" d="M746.5,635.321c-3.85-1.559,19.231-45.579,26.09-45.135,0,0,10.174,8,5.74,24.454C778.331,614.639,762.035,641.613,746.5,635.321Z" transform="translate(-745.989 -590.182)" fill="#03b4e9"/>
          <path id="Path_2542" data-name="Path 2542" d="M835.455,673.964l-4.957,3.015-2.54-8.341,5.691.015Z" transform="translate(-789.616 -631.981)" fill="#eaeaea"/>
          <path id="Path_2543" data-name="Path 2543" d="M746.223,676.061a4.885,4.885,0,0,0,3.8,3.6c5.5,1.082,19.339,2.385,39.377-5.448,0,0,.807-4.235-2.61-9.247,0,0-23.681-4.365-36.765-.052C750.021,664.916,744.514,669.253,746.223,676.061Z" transform="translate(-745.894 -628.984)" fill="#03b4e9"/>
          <g id="Group_15942" data-name="Group 15942" transform="translate(12.951 23.625)">
            <path id="Path_2544" data-name="Path 2544" d="M797.427,641.579c.076-.282.137-.555.206-.832-3.55,3.062-9.515,11.935-15.719,12.717,6.663-.466,20.607-.255,24.166-.191-.036-.056-.067-.111-.106-.167a139.371,139.371,0,0,0-15.839-1.794A75.152,75.152,0,0,0,797.427,641.579Z" transform="translate(-778.035 -640.747)" fill="#0080af"/>
            <path id="Path_2545" data-name="Path 2545" d="M773.612,691.906c7.2.05,17.57-1.189,30.55-6.263a7.148,7.148,0,0,0,.082-1.18A120.084,120.084,0,0,1,773.612,691.906Z" transform="translate(-773.612 -664.038)" fill="#0080af"/>
          </g>
          <path id="Path_2546" data-name="Path 2546" d="M823.878,676.841a1.315,1.315,0,1,0-1.348,1.28A1.315,1.315,0,0,0,823.878,676.841Z" transform="translate(-786.041 -635.633)" fill="#0080af"/>
        </g>
      </g>
      <g id="Group_15948" data-name="Group 15948" transform="translate(35.006)">
        <path id="Path_2547" data-name="Path 2547" d="M823.821,511.814c-5.525-10.354-1.827-24.746-1.364-25.179,4.944-4.638,15.564-1.917,20.664.679,4.3,2.188,7.351,5.464,4.341,8.547-1.039,1.064-4.078-2.469-5.216-2.555-2.15-.162-9.45,28.349-9.45,28.349Z" transform="translate(-820.817 -484.122)" fill="#2d356b"/>
        <g id="Group_15946" data-name="Group 15946" transform="translate(5.127 7.93)">
          <g id="Group_15945" data-name="Group 15945" transform="translate(1.06)">
            <path id="Path_2548" data-name="Path 2548" d="M869.606,553.768l1.455-1.6-1.276-1.205Z" transform="translate(-852.998 -527.662)" fill="#ffd8a3"/>
            <path id="Path_2549" data-name="Path 2549" d="M834.237,525.249c.376,2.619,6.87,9.346,14.413,10.5,2.778-9.556,5.611-25.677,4.344-28.776-1.247-3.049-8.013-6.443-9.057-5.8,2,3.641-4.286,13.209-6.005,13.86C833.744,516.62,833.844,522.517,834.237,525.249Z" transform="translate(-834.059 -501.094)" fill="#ffd8a3"/>
            <path id="Path_2550" data-name="Path 2550" d="M873.094,543.886a70.294,70.294,0,0,1-2.05-8.937c-.51-3.286-2.377,8.049-2.377,8.049S871.847,544.429,873.094,543.886Z" transform="translate(-852.498 -518.813)" fill="#ffd8a3"/>
            <path id="Path_2551" data-name="Path 2551" d="M864.229,572.551c.819-.171,1.336-.812,1.156-1.431a1.51,1.51,0,0,0-1.81-.814c-.82.17-1.337.811-1.156,1.431A1.511,1.511,0,0,0,864.229,572.551Z" transform="translate(-849.149 -537.946)" fill="#ffd8a3"/>
            <path id="Path_2552" data-name="Path 2552" d="M868.075,564.434c.065-.191-.118-.426-.408-.524s-.577-.022-.642.169.118.426.407.524S868.01,564.626,868.075,564.434Z" transform="translate(-851.616 -534.538)" fill="#ffd8a3"/>
          </g>
          <path id="Path_2553" data-name="Path 2553" d="M836.55,528.368c-.065-1.853-1.181-3.376-2.495-3.4s-2.326,1.458-2.262,3.311,2.266,3.365,3.58,3.39S836.614,530.221,836.55,528.368Z" transform="translate(-831.791 -513.813)" fill="#ffd8a3"/>
        </g>
        <path id="Path_2554" data-name="Path 2554" d="M864.631,528.293a.984.984,0,0,1,.117.685c-.132.575-3.615,1.421-3.944.784l-.205-.4c-.237-.458.92-.512,1.872-.914.911-.385,1.609-1.141,1.847-.717Z" transform="translate(-841.995 -507.289)" fill="#2d356b"/>
        <path id="Path_2555" data-name="Path 2555" d="M867.406,535.847a1.079,1.079,0,0,0-.454-1.294c-.389-.132-.814.235-.952.818a1.077,1.077,0,0,0,.453,1.293C866.841,536.8,867.267,536.429,867.406,535.847Z" transform="translate(-844.866 -510.976)" fill="#2d356b"/>
        <g id="Group_15947" data-name="Group 15947" transform="translate(9.211 2.676)">
          <path id="Path_2556" data-name="Path 2556" d="M846.636,504.2c3.179.92-5,14.445-3.586,15.845s-.459,2.249-1.251,1.738c-1.812-1.172-1.273-5.373-.846-8.03C841.429,510.793,846.367,504.121,846.636,504.2Z" transform="translate(-840.532 -497.494)" fill="#2d356b"/>
          <path id="Path_2557" data-name="Path 2557" d="M862.033,498.36c1.018-2.217-.389-5.039-3.141-6.3s-11.113-3.482-12.13-1.266,5.692,8.03,8.445,9.292S861.017,500.576,862.033,498.36Z" transform="translate(-843.796 -489.849)" fill="#2d356b"/>
        </g>
        <path id="Path_2558" data-name="Path 2558" d="M866.864,562.549c-.177.3-.529-.232-1.076-.41-.417-.134-.977.122-.957-.07a2,2,0,0,1,1.393-1.178C866.762,560.88,867.111,562.126,866.864,562.549Z" transform="translate(-844.267 -525.022)" fill="#ffab00"/>
        <path id="Path_2559" data-name="Path 2559" d="M867.4,561.782c-.1.142-.34.1-.611.016-.207-.061-.417-.141-.4-.23.031-.2.413-.345.649-.352C867.3,561.209,867.53,561.585,867.4,561.782Z" transform="translate(-845.093 -525.195)" fill="#fff"/>
      </g>
    </g>
    <g id="Group_15951" data-name="Group 15951" transform="translate(616.032 233.382)">
      <g id="Group_15950" data-name="Group 15950">
        <rect id="Rectangle_5538" data-name="Rectangle 5538" width="294.534" height="67.897" rx="11.604" fill="#fff" stroke="#231f20" stroke-miterlimit="10" stroke-width="0.25"/>
        <path id="Path_2560" data-name="Path 2560" d="M757.293,473.17l37.769,19.986L773.816,473.17Z" transform="translate(-738.37 -405.273)" fill="#fff" stroke="#231f20" stroke-miterlimit="10" stroke-width="0.25"/>
      </g>
    </g>
    <g id="Group_15955" data-name="Group 15955" transform="translate(638.854 357.417)">
      <g id="Group_15954" data-name="Group 15954">
        <g id="Group_15952" data-name="Group 15952" transform="translate(0 37.404)">
          <rect id="Rectangle_5539" data-name="Rectangle 5539" width="180.415" height="5.415" fill="#40558d"/>
          <rect id="Rectangle_5540" data-name="Rectangle 5540" width="167.6" height="97.313" transform="translate(6.168 2.089)" fill="#40558d"/>
          <rect id="Rectangle_5541" data-name="Rectangle 5541" width="52.007" height="97.313" transform="translate(6.168 2.089)" fill="#7b87ab"/>
          <rect id="Rectangle_5542" data-name="Rectangle 5542" width="180.415" height="7.048" transform="translate(0 2.089)" fill="#2d356b"/>
        </g>
        <g id="Group_15953" data-name="Group 15953" transform="translate(55.758)">
          <path id="Path_2561" data-name="Path 2561" d="M863.544,630.326h41.844a2.587,2.587,0,0,0,2.542-2.1l5.64-29.689a2.588,2.588,0,0,0-2.542-3.071H869.184a2.587,2.587,0,0,0-2.542,2.1L861,627.255A2.588,2.588,0,0,0,863.544,630.326Z" transform="translate(-835.179 -595.462)" fill="#cfd0d8"/>
          <path id="Path_2562" data-name="Path 2562" d="M866.642,598.124a1.4,1.4,0,1,1,2.065.966l-5.64,29.688a1.4,1.4,0,1,1-2.065-.966Z" transform="translate(-835.179 -596.019)" fill="#ebebeb"/>
          <path id="Path_2563" data-name="Path 2563" d="M808.729,673.026H873.05a2.944,2.944,0,0,0,2.944-2.945h-70.21A2.944,2.944,0,0,0,808.729,673.026Z" transform="translate(-805.785 -635.217)" fill="#9898a4"/>
          <path id="Path_2564" data-name="Path 2564" d="M805.785,670.081h27.076a3.162,3.162,0,0,1-3.342,2.945H809.127A3.162,3.162,0,0,1,805.785,670.081Z" transform="translate(-805.785 -635.217)" fill="#cfd0d8"/>
          <circle id="Ellipse_106" data-name="Ellipse 106" cx="2.97" cy="2.97" r="2.97" transform="translate(49.159 19.039) rotate(-67.5)" fill="#fff4ba"/>
        </g>
      </g>
    </g>
    <g id="Group_15964" data-name="Group 15964" transform="translate(650.101 353.963)">
      <rect id="Rectangle_5543" data-name="Rectangle 5543" width="55.361" height="30.306" rx="6.672" transform="translate(0 0)" fill="#fff" stroke="#231f20" stroke-miterlimit="10" stroke-width="0.25"/>
      <text id="Steve" transform="translate(14.68 18.653)" fill="#2d356b" font-size="10" font-family="TrebuchetMS-Bold, Trebuchet MS" font-weight="700"><tspan x="0" y="0">Steve</tspan></text>
    </g>
    <g id="Group_15981" data-name="Group 15981" transform="translate(907.267 273.65)">
      <g id="Group_15980" data-name="Group 15980" transform="translate(0 0)">
        <g id="Group_15966" data-name="Group 15966" transform="translate(0 94.788)">
          <path id="Path_2572" data-name="Path 2572" d="M1267.827,625.8l-9.365,1.761c-8.235,29.416-6.212,64.485-24.615,124.544,0,0,1.758.766,2.011,0,15.311-46.44,23.684-82.852,26.655-87.855C1269.116,653.131,1277.37,643.68,1267.827,625.8Z" transform="translate(-1229.229 -621.26)" fill="#ffd8a3"/>
          <path id="Path_2573" data-name="Path 2573" d="M1293.592,621.886c11.525,21.494,2.9,19.828,2.521,30.945-1.08,32.057,19.359,48.364,25.7,97.4,0,0-2.512-.129-2.584-.837-3.942-39.119-38.606-76.549-40.032-112.868-.092-2.342-.2-9.338,2.537-11.841C1285.913,620.855,1293.592,621.886,1293.592,621.886Z" transform="translate(-1253.374 -619.109)" fill="#f7c371"/>
          <path id="Path_2574" data-name="Path 2574" d="M1354.165,894.425h7.531s.364-2.138-1.316-2.481C1359.322,891.729,1357.451,892.226,1354.165,894.425Z" transform="translate(-1293.331 -763.032)" fill="#7b88ac"/>
          <path id="Path_2575" data-name="Path 2575" d="M1223.963,894.82h6.621s.32-2.137-1.157-2.48C1228.5,892.125,1226.852,892.621,1223.963,894.82Z" transform="translate(-1223.963 -763.243)" fill="#7b88ac"/>
          <path id="Path_2576" data-name="Path 2576" d="M1296.185,691.958s-31.616,5.083-38.862,3.05c0,0,6.916-71.845,11.856-76.251s13.832-2.033,13.832-2.033a27.953,27.953,0,0,1,4.611,29.823C1281.035,662.135,1296.185,691.958,1296.185,691.958Z" transform="translate(-1241.736 -616.086)" fill="#ffac00"/>
        </g>
        <g id="Group_15979" data-name="Group 15979" transform="translate(6.709)">
          <g id="Group_15969" data-name="Group 15969" transform="translate(0 45.509)">
            <g id="Group_15967" data-name="Group 15967" transform="translate(0 20.212)">
              <path id="Path_2577" data-name="Path 2577" d="M1257.292,568.535c-2.031-1.227-7.837-.546-7.5-2.588.3-1.829,3.5-4.316,8.376.972Z" transform="translate(-1244.428 -559.128)" fill="#f8c471"/>
              <path id="Path_2578" data-name="Path 2578" d="M1253.446,563.908c-.334,3.264-4.309,2.842-5.529,2.42-1.342-.464-1.767-3.013-1.04-3.878S1253.572,562.661,1253.446,563.908Z" transform="translate(-1242.693 -558.276)" fill="#f8c471"/>
              <path id="Path_2579" data-name="Path 2579" d="M1251.706,558.065c-1.137-1.564-1.686-3.9-.995-4.162.78-.3.874,1.8,2.237,2.951,1.474,1.254,2.333,2.119,1.882,2.713S1252.844,559.632,1251.706,558.065Z" transform="translate(-1244.761 -553.874)" fill="#f8c471"/>
              <path id="Path_2580" data-name="Path 2580" d="M1243.143,560.914c-1.563-.55-2.253-1.2-2.059-1.594s1.065-.029,2.627.518,3.684.857,3.491,1.255S1244.707,561.459,1243.143,560.914Z" transform="translate(-1239.777 -556.686)" fill="#f8c471"/>
              <path id="Path_2581" data-name="Path 2581" d="M1241.242,565.021c-1.675-.229-3.021-1.169-2.913-1.59s1.594.156,3.268.385,2.747.467,2.638.888S1242.916,565.249,1241.242,565.021Z" transform="translate(-1238.323 -558.886)" fill="#f8c471"/>
              <path id="Path_2582" data-name="Path 2582" d="M1244.033,569.22c-1.663-.3-2.523-.837-2.4-1.254s1.177-.015,2.839.281,2.823.527,2.7.945S1245.7,569.516,1244.033,569.22Z" transform="translate(-1240.078 -561.286)" fill="#f8c471"/>
            </g>
            <g id="Group_15968" data-name="Group 15968" transform="translate(12.349)">
              <path id="Path_2583" data-name="Path 2583" d="M1286.2,510.868c5.154-3.491,20.608,30.425,20.673,31.748,0,0-2.628,2.256-3.819,1.243C1299.974,541.239,1283.9,512.426,1286.2,510.868Z" transform="translate(-1276.06 -510.616)" fill="#f8c471"/>
              <path id="Path_2584" data-name="Path 2584" d="M1268.185,569.427c-1.072,4.772,26.007,5.744,26.993,5.405,0,0,1.964-3.154.882-3.726C1293.258,569.628,1268.663,567.3,1268.185,569.427Z" transform="translate(-1266.565 -541.492)" fill="#f8c471"/>
              <path id="Path_2585" data-name="Path 2585" d="M1264.987,568.495l.718-1.312,5.627-.812a11.644,11.644,0,0,1-1.262,2.955C1269.572,569.749,1264.987,568.495,1264.987,568.495Z" transform="translate(-1264.878 -540.321)" fill="#eaeaea"/>
              <path id="Path_2586" data-name="Path 2586" d="M1264.878,570.687l-.124,1.5,4.3,3.73a11.7,11.7,0,0,0,.577-3.185C1269.443,572.1,1264.878,570.687,1264.878,570.687Z" transform="translate(-1264.754 -542.62)" fill="#eaeaea"/>
            </g>
          </g>
          <g id="Group_15975" data-name="Group 15975" transform="translate(10.364)">
            <g id="Group_15974" data-name="Group 15974">
              <g id="Group_15970" data-name="Group 15970" transform="translate(5.524 1.036)">
                <path id="Path_2587" data-name="Path 2587" d="M1277.58,474.688c-6.4-4.714,2.386-7.134,1.341-11.861s-1.888-3.078-3.478-9.147-.252-8.585-.619-12.2-3.566-9.177-2.126-14,2.9-3.454,4.205-7.314,3.547-.145,6.757,1.054,5.459-7.915,11.155-5.33,6.111,9.331,8.195,12.861,7.506,4.334,9.231,10.921-2.207,5.581.1,9.978,6.872,3.387,8.6,9.977c0,0,1.544,6.635-6,7.314s-4.65,4.367-13.146,2.887-4.784,5.328-10.886,3.405S1283.292,478.9,1277.58,474.688Z" transform="translate(-1272.329 -415.429)" fill="#2d356b"/>
              </g>
              <g id="Group_15971" data-name="Group 15971" transform="translate(0 22.87)">
                <path id="Path_2588" data-name="Path 2588" d="M1301.043,462.161l-6.769,4.7-.555,15.132,5.507-2.285Z" transform="translate(-1278.201 -462.161)" fill="#f7c371"/>
                <path id="Path_2589" data-name="Path 2589" d="M1265.967,570.982c4.344-3.141,14.445-10.109,26.349-2.61-3.917-9.971-7.51-19.785-8.005-28.112-.92-15.437,11.37-34.185.185-40.667-11.875-6.882-23.99,27.99-23.99,27.99C1272.339,533.538,1270.007,552.284,1265.967,570.982Z" transform="translate(-1260.506 -481.625)" fill="#ffac00"/>
                <path id="Path_2590" data-name="Path 2590" d="M1297.813,497.559l-2.037-.145-8.663,8.939,2.786,2.14S1295.69,502.015,1297.813,497.559Z" transform="translate(-1274.681 -480.943)" fill="#fff"/>
                <path id="Path_2591" data-name="Path 2591" d="M1279.211,508.97c-.045-.029-.086-.057-.131-.086,2.17-4.879,7.056-12.423,12.121-12.187C1286.8,501.005,1279.211,508.97,1279.211,508.97Z" transform="translate(-1270.402 -480.558)" fill="#f7c371"/>
              </g>
              <g id="Group_15973" data-name="Group 15973" transform="translate(3.612)">
                <g id="Group_15972" data-name="Group 15972">
                  <path id="Path_2592" data-name="Path 2592" d="M1289,445.6c3.509-1.607,10.712-3.989,13.371-10.115,3.457-7.965,1.553-12.233-.875-17.408-4.63-9.864-21.484-2.144-19.884.724C1283.733,422.609,1276.282,451.424,1289,445.6Z" transform="translate(-1275.214 -413.213)" fill="#2d356b"/>
                  <path id="Path_2593" data-name="Path 2593" d="M1277.943,455.374c-1.339.219-4.863-6.31-6.442-11.5-.521-1.711,1.329-2.224.239-8.174-.641-3.493.186-8.608,5.488-13.045,5-4.189,7.189,6.619,8.073,9.054,2.519,6.936,5.079,11.133,3.809,14.895C1286.627,453.949,1279.333,454.794,1277.943,455.374Z" transform="translate(-1269.926 -417.734)" fill="#ffd8a3"/>
                  <path id="Path_2594" data-name="Path 2594" d="M1282.063,473.461a.313.313,0,0,0-.333-.29.329.329,0,0,0-.209.4.312.312,0,0,0,.334.289A.327.327,0,0,0,1282.063,473.461Z" transform="translate(-1275.311 -445.155)" fill="#ffab00"/>
                  <path id="Path_2595" data-name="Path 2595" d="M1278.561,453c-.185-.936-.856-1.583-1.5-1.445s-1.012,1.009-.827,1.945.856,1.583,1.5,1.445S1278.747,453.936,1278.561,453Z" transform="translate(-1272.474 -433.631)" fill="#2d356b"/>
                  <path id="Path_2596" data-name="Path 2596" d="M1278.5,452.913c-1.118-1.155-2.623-2.243-4.946-.979A9.116,9.116,0,0,1,1278.5,452.913Z" transform="translate(-1271.073 -433.541)" fill="#2d356b"/>
                  <path id="Path_2597" data-name="Path 2597" d="M1278.611,482.454c-.076-.212-.621.671-.936.751-.889.224-.444,1.332.428,1.016C1278.443,484.1,1278.69,482.678,1278.611,482.454Z" transform="translate(-1273.007 -450.085)" fill="#f36973"/>
                  <path id="Path_2598" data-name="Path 2598" d="M1277.289,474.248c.571-.342-3.744-.857-2.77.419A6.564,6.564,0,0,0,1277.289,474.248Z" transform="translate(-1271.508 -445.519)" fill="#f36973"/>
                  <path id="Path_2599" data-name="Path 2599" d="M1271.867,442.305a5.561,5.561,0,0,1,7.178,2.373C1276.865,442.527,1275.334,441.84,1271.867,442.305Z" transform="translate(-1270.171 -428.456)" fill="#2d356b"/>
                  <path id="Path_2600" data-name="Path 2600" d="M1269.324,463.608l2.176.3-.788-5.3-2.474,4.271Z" transform="translate(-1268.238 -437.394)" fill="#ffd8a3"/>
                  <path id="Path_2601" data-name="Path 2601" d="M1271.993,471.655l-2.145-3.015,1.547-.309Z" transform="translate(-1269.095 -442.578)" fill="#ffd8a3"/>
                  <path id="Path_2602" data-name="Path 2602" d="M1275.893,479a39.617,39.617,0,0,1-1.771-4.428l3.742-.61S1277.767,478.045,1275.893,479Z" transform="translate(-1271.373 -445.578)" fill="#ffab00"/>
                  <path id="Path_2603" data-name="Path 2603" d="M1277.389,476.572l-2.132.348q-.327-.835-.637-1.751l3.059-.5Z" transform="translate(-1271.638 -445.956)" fill="#fff"/>
                  <path id="Path_2604" data-name="Path 2604" d="M1309.648,454.341c-.35-1.618-1.1-2.732.129-3s2.513.836,2.863,2.456-.365,3.147-1.6,3.411S1310,455.962,1309.648,454.341Z" transform="translate(-1290.008 -433.508)" fill="#f7c371"/>
                </g>
                <path id="Path_2605" data-name="Path 2605" d="M1278.61,422.87c4.9,5.3,13.2,12.861,12.926,21.594,2.015-9.579-1.5-21.345-8.284-25.319C1282.77,420.152,1277.374,420.751,1278.61,422.87Z" transform="translate(-1273.666 -416.373)" fill="#2d356b"/>
              </g>
            </g>
          </g>
          <g id="Group_15978" data-name="Group 15978" transform="translate(1.412 44.604)">
            <g id="Group_15976" data-name="Group 15976" transform="translate(0 17.743)">
              <path id="Path_2606" data-name="Path 2606" d="M1260.475,565.776c-1.927-1.979-8.666-2.919-7.681-5.118.882-1.971,5.213-3.831,9.148,3.558Z" transform="translate(-1247.393 -553.177)" fill="#ffd9a4"/>
              <path id="Path_2607" data-name="Path 2607" d="M1257.654,558.975c-1.336,3.577-5.688,1.933-6.939,1.1-1.374-.918-1.1-3.913-.03-4.674S1258.163,557.607,1257.654,558.975Z" transform="translate(-1245.839 -551.249)" fill="#ffd9a4"/>
              <path id="Path_2608" data-name="Path 2608" d="M1257.7,551.638c-.822-2.1-.753-4.887.1-4.98.966-.107.455,2.281,1.651,3.982,1.291,1.846,2,3.073,1.321,3.609S1258.522,553.737,1257.7,551.638Z" transform="translate(-1249.751 -546.654)" fill="#ffd9a4"/>
              <path id="Path_2609" data-name="Path 2609" d="M1247.5,552.29c-1.6-1.079-2.186-2.01-1.851-2.4s1.208.28,2.806,1.355,3.9,2.048,3.563,2.44S1249.1,553.364,1247.5,552.29Z" transform="translate(-1243.589 -548.317)" fill="#ffd9a4"/>
              <path id="Path_2610" data-name="Path 2610" d="M1244.189,556.337c-1.819-.75-3.058-2.205-2.813-2.648s1.749.644,3.567,1.395,2.957,1.334,2.711,1.776S1246.007,557.086,1244.189,556.337Z" transform="translate(-1241.345 -550.347)" fill="#ffd9a4"/>
              <path id="Path_2611" data-name="Path 2611" d="M1246.076,561.9c-1.786-.822-2.6-1.685-2.34-2.12s1.331.329,3.115,1.151,3.024,1.423,2.766,1.86S1247.862,562.723,1246.076,561.9Z" transform="translate(-1242.594 -553.58)" fill="#ffd9a4"/>
            </g>
            <g id="Group_15977" data-name="Group 15977" transform="translate(12.518)">
              <path id="Path_2612" data-name="Path 2612" d="M1310.36,508.778c6.832-2.416,14.261,40.328,13.945,41.837,0,0-3.623,1.768-4.666.277C1316.941,547.036,1307.31,509.856,1310.36,508.778Z" transform="translate(-1290.318 -508.679)" fill="#f8c471"/>
              <path id="Path_2613" data-name="Path 2613" d="M1272.885,569.877c-2.61,5.06,27.6,14.119,28.811,14.027,0,0,3.14-2.974,2.089-3.937C1301.065,577.479,1274.051,567.618,1272.885,569.877Z" transform="translate(-1270.582 -541.106)" fill="#f8c471"/>
              <path id="Path_2614" data-name="Path 2614" d="M1269.276,568.44l1.195-1.266,6.576.74s-1.6,2.627-2.29,2.957S1269.276,568.44,1269.276,568.44Z" transform="translate(-1268.744 -539.844)" fill="#eaeaea"/>
              <path id="Path_2615" data-name="Path 2615" d="M1268.719,569.634l-.58,1.652,3.742,5.465s1.612-2.657,1.587-3.418S1268.719,569.634,1268.719,569.634Z" transform="translate(-1268.138 -541.154)" fill="#eaeaea"/>
            </g>
          </g>
        </g>
      </g>
    </g>
    <g id="Group_15983" data-name="Group 15983" transform="translate(866.105 158.411)">
      <g id="Group_15982" data-name="Group 15982" transform="translate(0 0)">
        <rect id="Rectangle_5545" data-name="Rectangle 5545" width="249.011" height="67.897" rx="11.604" transform="translate(249.011 67.897) rotate(-180)" fill="#fff" stroke="#231f20" stroke-miterlimit="10" stroke-width="0.25"/>
        <path id="Path_2616" data-name="Path 2616" d="M1322.735,316.956l-36.145,36.4,21.753-36.4Z" transform="translate(-1119.647 -249.058)" fill="#fff" stroke="#231f20" stroke-miterlimit="10" stroke-width="0.25"/>
      </g>
    </g>
    <g id="Group_15965" data-name="Group 15965" transform="translate(913.27 346.616)">
      <rect id="Rectangle_5544" data-name="Rectangle 5544" width="59.361" height="33.239" rx="6.672" transform="translate(0 0)" fill="#fff" stroke="#231f20" stroke-miterlimit="10" stroke-width="0.25"/>
      <text id="Akiko" transform="translate(16.68 20.119)" fill="#2d356b" font-size="10" font-family="TrebuchetMS-Bold, Trebuchet MS" font-weight="700"><tspan x="0" y="0">Akiko</tspan></text>
    </g>
  </g>
</svg>
