<svg xmlns="http://www.w3.org/2000/svg" width="541.363" height="246.921" viewBox="0 0 541.363 246.921">
  <g id="Group_17489" data-name="Group 17489" transform="translate(-48.137 -8629.62)">
    <g id="Group_17362" data-name="Group 17362" transform="translate(377.25 8673.133)">
      <g id="Group_17360" data-name="Group 17360" transform="translate(8.535)">
        <g id="Group_17339" data-name="Group 17339" transform="translate(0 90.618)">
          <g id="Group_17338" data-name="Group 17338" transform="translate(0 0)">
            <rect id="Rectangle_5867" data-name="Rectangle 5867" width="155.115" height="4.75" rx="1.391" transform="translate(155.115 4.75) rotate(-180)" fill="#2d356b"/>
            <g id="Group_17337" data-name="Group 17337" transform="translate(6.414 4.75)">
              <path id="Path_3621" data-name="Path 3621" d="M2084.516,7298.111h10.914a4.1,4.1,0,0,0,3.834-4.315h-18.582A4.1,4.1,0,0,0,2084.516,7298.111Z" transform="translate(-1956.89 -7293.796)" fill="#2d356b"/>
              <path id="Path_3622" data-name="Path 3622" d="M1543.454,7298.111h10.914a4.1,4.1,0,0,0,3.835-4.315H1539.62A4.1,4.1,0,0,0,1543.454,7298.111Z" transform="translate(-1539.62 -7293.796)" fill="#2d356b"/>
            </g>
          </g>
          <rect id="Rectangle_5868" data-name="Rectangle 5868" width="6.228" height="18.065" transform="translate(12.304 9.064)" fill="#cfd0d8"/>
        </g>
        <g id="Group_17340" data-name="Group 17340" transform="translate(15.534 6.779)">
          <rect id="Rectangle_5869" data-name="Rectangle 5869" width="20.552" height="0.764" transform="translate(63.949 83.837) rotate(180)" fill="#ebebeb"/>
          <path id="Path_3623" data-name="Path 3623" d="M1767.138,7182.267l20.81,20.809,13.377-.047-.762-.761-20.01-20Z" transform="translate(-1724.202 -7119.194)" fill="#9999a5"/>
          <path id="Path_3624" data-name="Path 3624" d="M1797.22,7203.029l-20.765-20.765H1763.04l20.809,20.81Z" transform="translate(-1721.042 -7119.192)" fill="#ebebeb"/>
          <path id="Rectangle_5870" data-name="Rectangle 5870" d="M3.772,0h95.65a3.772,3.772,0,0,1,3.772,3.772V70.885a3.772,3.772,0,0,1-3.772,3.772H5.61A5.61,5.61,0,0,1,0,69.048V3.772A3.772,3.772,0,0,1,3.772,0Z" transform="translate(104.348 74.658) rotate(180)" fill="#cfd0d8"/>
          <path id="Path_3625" data-name="Path 3625" d="M1579.478,6912.3v56.267l.6,6.83a5.18,5.18,0,0,0,5.448,5.332h91.518c3.148,0,5.057-2.38,5.057-5.527l.567-6.635V6912.3a5.713,5.713,0,0,0-5.707-5.708H1585.2A5.716,5.716,0,0,0,1579.478,6912.3Z" transform="translate(-1579.478 -6906.591)" fill="#9999a5"/>
          <rect id="Rectangle_5871" data-name="Rectangle 5871" width="97.429" height="58.323" transform="translate(2.998 3.651)" fill="#fff"/>
        </g>
        <g id="Group_17341" data-name="Group 17341" transform="translate(83.834 27.865)">
          <rect id="Rectangle_5872" data-name="Rectangle 5872" width="8.099" height="15.085" transform="translate(19.993)" fill="#f7c371"/>
          <path id="Path_3626" data-name="Path 3626" d="M1923.554,7117.978c-19.178,14.1-38.716,9.858-45.554,0,18.425-25.032-7.984-65.3,23.455-66.6C1931.741,7050.119,1903.873,7096.628,1923.554,7117.978Z" transform="translate(-1878 -7039.317)" fill="#2d356b"/>
        </g>
        <rect id="Rectangle_5873" data-name="Rectangle 5873" width="49.408" height="2.378" transform="translate(42.305 89.119)" fill="#029390"/>
        <g id="Group_17342" data-name="Group 17342" transform="translate(36.543 23.078)">
          <path id="Path_3627" data-name="Path 3627" d="M1680.333,7008.169v-8.335l-9.029-1.186Z" transform="translate(-1671.303 -6993.885)" fill="#fff" stroke="#ebebeb" stroke-miterlimit="10" stroke-width="4"/>
          <rect id="Rectangle_5874" data-name="Rectangle 5874" width="65.21" height="24.293" rx="12.146" transform="translate(6.123)" fill="#fff" stroke="#ebebeb" stroke-miterlimit="10" stroke-width="4"/>
        </g>
        <g id="Group_17352" data-name="Group 17352" transform="translate(22.867 19.86)">
          <g id="Group_17350" data-name="Group 17350" transform="translate(0.281)">
            <g id="Group_17348" data-name="Group 17348">
              <g id="Group_17347" data-name="Group 17347">
                <g id="Group_17343" data-name="Group 17343" transform="translate(0 0.427)">
                  <path id="Path_3628" data-name="Path 3628" d="M1622.848,6978.144c1.239-1.266-.781-1.483-.721-2.562s.305-.745.437-2.139a9.916,9.916,0,0,0-.3-2.706c-.049-.808.456-2.148-.034-3.158s-.762-.656-1.188-1.459-.786.095-1.45.475-1.486-1.547-2.646-.773-1.01,2.273-1.343,3.125-1.5,1.223-1.64,2.734.686,1.149.336,2.2-1.391.993-1.534,2.5a1.317,1.317,0,0,0,1.583,1.4c1.686-.121,1.18.793,3,.163s1.245,1,2.519.359S1621.741,6979.277,1622.848,6978.144Z" transform="translate(-1612.761 -6965.636)" fill="#2d356b"/>
                </g>
                <g id="Group_17344" data-name="Group 17344" transform="translate(5.227 5.239)">
                  <path id="Path_3629" data-name="Path 3629" d="M1640.121,6986.666l1.556.978.279,3.365-1.25-.452Z" transform="translate(-1639.088 -6986.666)" fill="#f7c371"/>
                  <path id="Path_3630" data-name="Path 3630" d="M1637.028,7012.481c.046-3.449-2.885-7.5-.46-9.059,2.575-1.656,5.633,5.989,5.633,5.989-1.887,1.577-.867,3.068-.867,3.068" transform="translate(-1635.606 -6999.407)" fill="#fc8c99"/>
                  <path id="Path_3631" data-name="Path 3631" d="M1640.587,7002.678l.452-.053,2.022,1.9-.6.505A14.113,14.113,0,0,1,1640.587,7002.678Z" transform="translate(-1639.447 -6998.973)" fill="#fff"/>
                  <path id="Path_3632" data-name="Path 3632" d="M1645.633,7004.883l.028-.021c-.533-1.064-1.7-2.7-2.826-2.59C1643.861,7003.187,1645.633,7004.883,1645.633,7004.883Z" transform="translate(-1641.182 -6998.698)" fill="#f7c371"/>
                </g>
                <g id="Group_17346" data-name="Group 17346" transform="translate(3.58)">
                  <g id="Group_17345" data-name="Group 17345">
                    <path id="Path_3633" data-name="Path 3633" d="M1632.457,6970.8c-.83-.228-2.5-.494-3.306-1.747a3.966,3.966,0,0,1-.432-3.863c.665-2.338,4.652-1.243,4.4-.555C1632.79,6965.55,1635.465,6971.625,1632.457,6970.8Z" transform="translate(-1628.409 -6963.769)" fill="#2d356b"/>
                    <path id="Path_3634" data-name="Path 3634" d="M1642.536,6973.815c.3,0,.844-1.563,1.006-2.762.053-.4-.373-.442-.346-1.792a3.057,3.057,0,0,0-1.676-2.674c-1.252-.742-1.345,1.715-1.452,2.282-.306,1.619-.719,2.633-.3,3.416A3.217,3.217,0,0,0,1642.536,6973.815Z" transform="translate(-1637.031 -6965.835)" fill="#ffd8a3"/>
                    <path id="Path_3635" data-name="Path 3635" d="M1652.225,6989.212a.07.07,0,0,1,.063-.076.073.073,0,0,1,.06.08.07.07,0,0,1-.063.076A.073.073,0,0,1,1652.225,6989.212Z" transform="translate(-1646.776 -6983.333)" fill="#ffab00"/>
                    <path id="Path_3636" data-name="Path 3636" d="M1651.463,6979.511c.007-.212.131-.379.277-.371s.259.185.252.4-.131.379-.278.372S1651.455,6979.725,1651.463,6979.511Z" transform="translate(-1646.188 -6975.623)" fill="#2d356b"/>
                    <path id="Path_3637" data-name="Path 3637" d="M1650.17,6979.442a.828.828,0,0,1,1.053-.393A2.029,2.029,0,0,0,1650.17,6979.442Z" transform="translate(-1645.191 -6975.504)" fill="#2d356b"/>
                    <path id="Path_3638" data-name="Path 3638" d="M1653.965,6993.167c.009-.049.161.125.233.131.2.018.146.278-.058.24C1654.061,6993.523,1653.956,6993.22,1653.965,6993.167Z" transform="translate(-1648.118 -6986.435)" fill="#f36973"/>
                    <path id="Path_3639" data-name="Path 3639" d="M1653.178,6989.189c-.138-.056.794-.323.625-.008A1.456,1.456,0,0,1,1653.178,6989.189Z" transform="translate(-1647.5 -6983.251)" fill="#f36973"/>
                    <path id="Path_3640" data-name="Path 3640" d="M1649.783,6974.646a1.241,1.241,0,0,0-1.5.781A1.592,1.592,0,0,1,1649.783,6974.646Z" transform="translate(-1643.74 -6972.13)" fill="#2d356b"/>
                    <path id="Path_3641" data-name="Path 3641" d="M1655.713,6983.02l-.468.143-.017-1.2.7.851Z" transform="translate(-1649.092 -6977.803)" fill="#ffd8a3"/>
                    <path id="Path_3642" data-name="Path 3642" d="M1656.055,6987.067l.364-.741-.351-.013Z" transform="translate(-1649.73 -6981.155)" fill="#ffd8a3"/>
                    <path id="Path_3643" data-name="Path 3643" d="M1653.1,6990.54a8.753,8.753,0,0,0,.231-1.039h-.846S1652.656,6990.4,1653.1,6990.54Z" transform="translate(-1646.979 -6983.613)" fill="#ffab00"/>
                    <path id="Path_3644" data-name="Path 3644" d="M1653.1,6990.158h.482c.027-.131.053-.266.077-.409h-.691Z" transform="translate(-1647.353 -6983.805)" fill="#fff"/>
                    <path id="Path_3645" data-name="Path 3645" d="M1636.363,6982.09c.019-.369.144-.641-.136-.654s-.523.274-.542.643a.606.606,0,0,0,.474.694C1636.439,6982.786,1636.345,6982.46,1636.363,6982.09Z" transform="translate(-1634.019 -6977.393)" fill="#f7c371"/>
                  </g>
                  <path id="Path_3646" data-name="Path 3646" d="M1642.168,6966c-.888,1.343-2.445,3.306-2.07,5.218-.788-2.036-.436-4.753.915-5.871C1641.155,6965.55,1642.365,6965.489,1642.168,6966Z" transform="translate(-1637.104 -6964.984)" fill="#2d356b"/>
                </g>
              </g>
            </g>
            <g id="Group_17349" data-name="Group 17349" transform="translate(2.792 9.446)">
              <path id="Path_3647" data-name="Path 3647" d="M1628.292,7005.081c-1.506-.582-3.387,8.9-3.325,9.238,0,0,.934.794,1.174.468C1626.762,7013.944,1628.964,7005.341,1628.292,7005.081Z" transform="translate(-1624.965 -7005.055)" fill="#ffb2b0"/>
              <path id="Path_3648" data-name="Path 3648" d="M1631.008,7044.295c.713-1-4.97-2.111-5.232-2.127,0,0-.731.517-.568.777C1625.922,7044.075,1630.689,7044.741,1631.008,7044.295Z" transform="translate(-1625.134 -7033.677)" fill="#ffb2b0"/>
            </g>
          </g>
          <g id="Group_17351" data-name="Group 17351" transform="translate(0 16.011)">
            <rect id="Rectangle_5875" data-name="Rectangle 5875" width="14.918" height="5.225" rx="2.612" fill="#fff" stroke="#231f20" stroke-miterlimit="10" stroke-width="0.25"/>
            <text id="Akiko" transform="translate(2.061 3.866)" fill="#2d356b" font-size="4" font-family="TrebuchetMS-Bold, Trebuchet MS" font-weight="700"><tspan x="0" y="0">Akiko</tspan></text>
          </g>
        </g>
        <g id="Group_17357" data-name="Group 17357" transform="translate(47.567 52.1)">
          <g id="Group_17355" data-name="Group 17355" transform="translate(0 32.484)">
            <g id="Group_17353" data-name="Group 17353" transform="translate(6.407 1.295)">
              <path id="Path_3649" data-name="Path 3649" d="M1765.843,7256.608c-2.644,2.751-5.343,2.19-5.827,1.39-.167-.274,2.255-1.984,4.945-5.548C1765.583,7251.626,1767.5,7254.888,1765.843,7256.608Z" transform="translate(-1757.143 -7252.319)" fill="#f8c471"/>
              <path id="Path_3650" data-name="Path 3650" d="M1750.592,7271.051c-1.681.81-3.362,1.173-3.069,1.783s2.077.606,3.758-.2,2.53-1.622,2.33-2.726C1753.489,7269.229,1752.274,7270.243,1750.592,7271.051Z" transform="translate(-1747.489 -7265.711)" fill="#f8c471"/>
            </g>
            <g id="Group_17354" data-name="Group 17354">
              <path id="Path_3651" data-name="Path 3651" d="M1767.853,7259.26c-5.833-3.98-12.641.194-12.371-3.128.241-2.974,5.028-7.4,13.563.42Z" transform="translate(-1747.241 -7250.905)" fill="#ffd9a4"/>
              <path id="Path_3652" data-name="Path 3652" d="M1754.98,7250.637c-.379,3.564-6.522,5.144-8.538,4.633-2.214-.562-3.242-4.59-2.193-6.078S1755.194,7248.631,1754.98,7250.637Z" transform="translate(-1738.265 -7248.048)" fill="#ffd9a4"/>
              <path id="Path_3653" data-name="Path 3653" d="M1723.6,7268.388c-2.264.511-4.264,1.428-4.107,2.125s2.006.381,4.6-.23c1.779-.417,5.171-.183,5.016-.879S1726.2,7267.8,1723.6,7268.388Z" transform="translate(-1719.486 -7263.271)" fill="#ffd9a4"/>
              <path id="Path_3654" data-name="Path 3654" d="M1736.876,7257.134c-1.451.094-1.916.752-1.585,1.361s1.212.32,2.663.227,2.331-.282,2-.891S1738.328,7257.042,1736.876,7257.134Z" transform="translate(-1731.597 -7254.72)" fill="#ffd9a4"/>
              <path id="Path_3655" data-name="Path 3655" d="M1723.282,7259.9c1.381-.455,1.666-1.208,1.193-1.714s-1.253-.007-2.635.447-2.185.858-1.712,1.365S1721.9,7260.352,1723.282,7259.9Z" transform="translate(-1719.876 -7255.383)" fill="#ffd9a4"/>
              <path id="Path_3656" data-name="Path 3656" d="M1742.445,7246.66c-1.454-.02-1.968.6-1.686,1.234s1.184.414,2.637.432,2.346-.1,2.062-.734S1743.9,7246.68,1742.445,7246.66Z" transform="translate(-1735.835 -7246.66)" fill="#ffd9a4"/>
              <path id="Path_3657" data-name="Path 3657" d="M1728.492,7248.876c1.412-.347,1.755-1.075,1.322-1.618s-1.25-.1-2.662.242-2.246.688-1.812,1.229S1727.079,7249.22,1728.492,7248.876Z" transform="translate(-1723.912 -7246.925)" fill="#ffd9a4"/>
            </g>
          </g>
          <path id="Path_3658" data-name="Path 3658" d="M1900.864,7105.078c8.658-5.548,12.794,49.132,10.261,50.813,0,0-5.462-.4-6.936-2.515C1899.736,7146.974,1897,7107.554,1900.864,7105.078Z" transform="translate(-1857.943 -7104.683)" fill="#7b88ac"/>
          <g id="Group_17356" data-name="Group 17356" transform="translate(14.797 33.872)">
            <path id="Path_3659" data-name="Path 3659" d="M1796.641,7264.181c-1.419,7.954,33.7,14.754,35.3,14.121,0,0,3.01-5.35,1.181-6.213C1828.394,7269.855,1797.275,7260.629,1796.641,7264.181Z" transform="translate(-1793.753 -7260.939)" fill="#7b88ac"/>
            <path id="Path_3660" data-name="Path 3660" d="M1784.855,7255.55l1.155-2.041,9.165-.783s-1.214,4-2.02,4.635S1784.855,7255.55,1784.855,7255.55Z" transform="translate(-1784.695 -7252.726)" fill="#eaeaea"/>
            <path id="Path_3661" data-name="Path 3661" d="M1784.339,7264.323l-.182,2.4,7.053,6.4s1.211-4.045.9-5.07S1784.339,7264.323,1784.339,7264.323Z" transform="translate(-1784.158 -7261.669)" fill="#eaeaea"/>
          </g>
        </g>
        <g id="Group_17358" data-name="Group 17358" transform="translate(78.945)">
          <path id="Path_3662" data-name="Path 3662" d="M1859.336,6945.136c-4.111-6.5,2.252-9.285,2.477-15.4s-5.179-4.756-5.179-12.684,4.953-9.51,5.628-14.04-5.4-6.34-2.251-11.776,7.472-4.9,10.173-9.2,9.456-6.116,12.833-3.623,8.514-4.617,14.367.367,4.277,13.362,5.629,18.343,7.429,7.7,7.429,16.3-4.277,6.116-2.927,12.23,6.979,6.341,6.979,14.946c0,0-.225,8.605-9.23,7.019s-6.755,3.85-16.21-.677-7.206,4.98-13.734.677S1864.064,6952.609,1859.336,6945.136Z" transform="translate(-1856.634 -6876.964)" fill="#2d356b"/>
        </g>
        <path id="Path_3663" data-name="Path 3663" d="M1874.468,7083.748c1.588-4.066,17.774-7.186,25.914-7.787,23.338-1.72,35.151,2.163,33.745,7.787-10.52,42.113.461,52.08-7.683,60.221-4.541,4.535-77.4,5.45-69.274.921s12.663-7.26,13.57-24.459S1874.468,7083.748,1874.468,7083.748Z" transform="translate(-1777.615 -7030.115)" fill="#fff4ba"/>
        <g id="Group_17359" data-name="Group 17359" transform="translate(97.824 66.543)">
          <rect id="Rectangle_5876" data-name="Rectangle 5876" width="51.957" height="30.095" rx="6.672" fill="#fff" stroke="#231f20" stroke-miterlimit="10" stroke-width="0.25"/>
          <text id="Akiko-2" data-name="Akiko" transform="translate(12.978 18.547)" fill="#2d356b" font-size="10" font-family="TrebuchetMS-Bold, Trebuchet MS" font-weight="700"><tspan x="0" y="0">Akiko</tspan></text>
        </g>
      </g>
      <g id="Group_17361" data-name="Group 17361" transform="translate(0 134.757)">
        <path id="Path_3664" data-name="Path 3664" d="M1474.279,7465.953v27.286h157.641l5.921-13.544-5.921-13.742Z" transform="translate(-1474.279 -7465.953)" fill="#ffac00"/>
        <text id="Let_you_know" data-name="Let you know" transform="translate(74.524 18.547)" fill="#fff" font-size="14" font-family="TrebuchetMS-Bold, Trebuchet MS" font-weight="700"><tspan x="-44.133" y="0">Let you know</tspan></text>
      </g>
    </g>
    <path id="Path_3665" data-name="Path 3665" d="M383.157,6687.195v205.841H128.122V6687.195" transform="translate(-77.485 1942.425)" fill="none" stroke="#ebebeb" stroke-miterlimit="10" stroke-width="5"/>
    <path id="Path_3666" data-name="Path 3666" d="M1505.522,6687.195v205.841H1242.815V6687.195" transform="translate(-918.522 1942.425)" fill="none" stroke="#ebebeb" stroke-miterlimit="10" stroke-width="5"/>
    <g id="Group_17363" data-name="Group 17363" transform="translate(256.763 8781.584)">
      <path id="Path_3667" data-name="Path 3667" d="M1284.171,7389.492,1243.239,7349v80.958Z" transform="translate(-1185.032 -7334.999)" fill="#ffe200"/>
      <rect id="Rectangle_5877" data-name="Rectangle 5877" width="63.472" height="27.131" transform="translate(0 40.913)" fill="#ffe200"/>
    </g>
    <g id="Group_17398" data-name="Group 17398" transform="translate(76.907 8675.261)">
      <g id="Group_17393" data-name="Group 17393" transform="translate(78.194)">
        <g id="Group_17392" data-name="Group 17392">
          <g id="Group_17366" data-name="Group 17366" transform="translate(0 66.164)">
            <g id="Group_17365" data-name="Group 17365" transform="translate(0 0)">
              <rect id="Rectangle_5878" data-name="Rectangle 5878" width="113.255" height="3.468" rx="1.391" transform="translate(113.255 3.468) rotate(-180)" fill="#2d356b"/>
              <g id="Group_17364" data-name="Group 17364" transform="translate(4.684 3.468)">
                <path id="Path_3668" data-name="Path 3668" d="M1003.03,7195.161H1011a2.99,2.99,0,0,0,2.8-3.149H1000.23A2.99,2.99,0,0,0,1003.03,7195.161Z" transform="translate(-909.846 -7192.012)" fill="#2d356b"/>
                <path id="Path_3669" data-name="Path 3669" d="M607.983,7195.161h7.968a2.99,2.99,0,0,0,2.8-3.149H605.183A2.99,2.99,0,0,0,607.983,7195.161Z" transform="translate(-605.183 -7192.012)" fill="#2d356b"/>
              </g>
            </g>
            <rect id="Rectangle_5879" data-name="Rectangle 5879" width="4.547" height="13.19" transform="translate(8.983 6.618)" fill="#cfd0d8"/>
          </g>
          <g id="Group_17367" data-name="Group 17367" transform="translate(11.342 4.949)">
            <rect id="Rectangle_5880" data-name="Rectangle 5880" width="15.006" height="0.558" transform="translate(46.691 61.213) rotate(180)" fill="#ebebeb"/>
            <path id="Path_3670" data-name="Path 3670" d="M771.3,7110.579l15.194,15.193,9.767-.035-.556-.556-14.61-14.6Z" transform="translate(-739.952 -7064.528)" fill="#9999a5"/>
            <path id="Path_3671" data-name="Path 3671" d="M793.265,7125.738l-15.161-15.16h-9.8l15.194,15.193Z" transform="translate(-737.645 -7064.527)" fill="#ebebeb"/>
            <path id="Rectangle_5881" data-name="Rectangle 5881" d="M3.772,0h67.8a3.772,3.772,0,0,1,3.772,3.772V50.738a3.772,3.772,0,0,1-3.772,3.772H5.61A5.61,5.61,0,0,1,0,48.9V3.772A3.772,3.772,0,0,1,3.772,0Z" transform="translate(76.188 54.51) rotate(180)" fill="#cfd0d8"/>
            <path id="Path_3672" data-name="Path 3672" d="M634.284,6913.467v41.083l.441,4.986a3.781,3.781,0,0,0,3.978,3.893h66.82c2.3,0,3.692-1.737,3.692-4.035l.414-4.844v-41.083a4.172,4.172,0,0,0-4.167-4.167h-67A4.173,4.173,0,0,0,634.284,6913.467Z" transform="translate(-634.284 -6909.3)" fill="#9999a5"/>
            <rect id="Rectangle_5882" data-name="Rectangle 5882" width="71.137" height="42.584" transform="translate(2.189 2.666)" fill="#fff"/>
          </g>
          <g id="Group_17368" data-name="Group 17368" transform="translate(61.21 20.345)">
            <rect id="Rectangle_5883" data-name="Rectangle 5883" width="5.913" height="11.014" transform="translate(14.598)" fill="#f7c371"/>
            <path id="Path_3673" data-name="Path 3673" d="M885.505,7063.639c-14,10.292-28.268,7.2-33.26,0,13.453-18.277-5.829-47.675,17.126-48.627C891.483,7014.094,871.136,7048.052,885.505,7063.639Z" transform="translate(-852.245 -7006.208)" fill="#2d356b"/>
          </g>
          <rect id="Rectangle_5884" data-name="Rectangle 5884" width="36.074" height="1.736" transform="translate(30.888 65.069)" fill="#029390"/>
          <g id="Group_17373" data-name="Group 17373" transform="translate(34.73 38.04)">
            <g id="Group_17371" data-name="Group 17371" transform="translate(0 23.718)">
              <g id="Group_17369" data-name="Group 17369" transform="translate(4.678 0.945)">
                <path id="Path_3674" data-name="Path 3674" d="M770.356,7164.858c-1.931,2.008-3.9,1.6-4.255,1.015-.122-.2,1.646-1.449,3.61-4.052C770.165,7161.22,771.562,7163.6,770.356,7164.858Z" transform="translate(-764.004 -7161.726)" fill="#f8c471"/>
                <path id="Path_3675" data-name="Path 3675" d="M759.22,7175.4c-1.227.591-2.455.856-2.241,1.3s1.516.441,2.744-.147,1.848-1.185,1.7-1.991C761.336,7174.075,760.448,7174.814,759.22,7175.4Z" transform="translate(-756.955 -7171.507)" fill="#f8c471"/>
              </g>
              <g id="Group_17370" data-name="Group 17370">
                <path id="Path_3676" data-name="Path 3676" d="M771.823,7166.795c-4.259-2.906-9.23.141-9.032-2.283.176-2.173,3.671-5.4,9.9.306Z" transform="translate(-756.773 -7160.695)" fill="#ffd9a4"/>
                <path id="Path_3677" data-name="Path 3677" d="M762.424,7160.5c-.277,2.6-4.762,3.755-6.234,3.383-1.616-.411-2.367-3.352-1.6-4.437S762.58,7159.034,762.424,7160.5Z" transform="translate(-750.22 -7158.608)" fill="#ffd9a4"/>
                <path id="Path_3678" data-name="Path 3678" d="M739.514,7173.458c-1.653.374-3.113,1.043-3,1.551s1.465.277,3.358-.167c1.3-.305,3.776-.134,3.662-.642S741.411,7173.031,739.514,7173.458Z" transform="translate(-736.508 -7169.723)" fill="#ffd9a4"/>
                <path id="Path_3679" data-name="Path 3679" d="M749.206,7165.242c-1.059.069-1.4.549-1.157.995s.885.234,1.944.166,1.7-.208,1.46-.652S750.265,7165.175,749.206,7165.242Z" transform="translate(-745.351 -7163.48)" fill="#ffd9a4"/>
                <path id="Path_3680" data-name="Path 3680" d="M739.281,7167.261c1.008-.332,1.217-.882.871-1.252s-.915,0-1.924.327-1.6.626-1.249,1S738.272,7167.592,739.281,7167.261Z" transform="translate(-736.794 -7163.964)" fill="#ffd9a4"/>
                <path id="Path_3681" data-name="Path 3681" d="M753.272,7157.6c-1.061-.014-1.437.439-1.231.9s.864.3,1.926.316,1.713-.074,1.506-.536S754.333,7157.61,753.272,7157.6Z" transform="translate(-748.445 -7157.595)" fill="#ffd9a4"/>
                <path id="Path_3682" data-name="Path 3682" d="M743.084,7159.213c1.031-.253,1.281-.786.965-1.182s-.912-.075-1.943.178-1.639.5-1.323.9S742.053,7159.464,743.084,7159.213Z" transform="translate(-739.74 -7157.789)" fill="#ffd9a4"/>
              </g>
            </g>
            <path id="Path_3683" data-name="Path 3683" d="M868.939,7054.22c6.321-4.051,9.341,35.874,7.492,37.1,0,0-3.988-.29-5.064-1.836C868.115,7084.811,866.117,7056.028,868.939,7054.22Z" transform="translate(-837.601 -7053.932)" fill="#7b88ac"/>
            <g id="Group_17372" data-name="Group 17372" transform="translate(10.804 24.731)">
              <path id="Path_3684" data-name="Path 3684" d="M792.843,7170.388c-1.036,5.807,24.6,10.771,25.774,10.31,0,0,2.2-3.907.862-4.538C816.026,7174.53,793.306,7167.793,792.843,7170.388Z" transform="translate(-790.734 -7168.021)" fill="#7b88ac"/>
              <path id="Path_3685" data-name="Path 3685" d="M784.237,7164.086l.843-1.491,6.692-.571s-.886,2.921-1.475,3.384S784.237,7164.086,784.237,7164.086Z" transform="translate(-784.12 -7162.024)" fill="#eaeaea"/>
              <path id="Path_3686" data-name="Path 3686" d="M783.861,7170.492l-.133,1.753,5.15,4.672s.884-2.953.658-3.7S783.861,7170.492,783.861,7170.492Z" transform="translate(-783.728 -7168.554)" fill="#eaeaea"/>
            </g>
          </g>
          <g id="Group_17374" data-name="Group 17374" transform="translate(57.641)">
            <path id="Path_3687" data-name="Path 3687" d="M838.618,6937.442c-3-4.745,1.644-6.779,1.809-11.243s-3.781-3.472-3.781-9.26,3.617-6.943,4.109-10.251-3.945-4.629-1.644-8.6,5.456-3.576,7.428-6.716,6.9-4.465,9.37-2.646,6.216-3.37,10.49.269,3.123,9.756,4.11,13.393,5.424,5.622,5.424,11.9-3.123,4.465-2.137,8.929,5.1,4.628,5.1,10.913c0,0-.165,6.283-6.74,5.125s-4.932,2.811-11.836-.5-5.261,3.638-10.027.5S842.071,6942.9,838.618,6937.442Z" transform="translate(-836.646 -6887.667)" fill="#2d356b"/>
          </g>
          <path id="Path_3688" data-name="Path 3688" d="M849.667,7038.647c1.159-2.969,12.977-5.248,18.92-5.687,17.04-1.256,25.665,1.579,24.639,5.687-7.681,30.748.337,38.025-5.609,43.969-3.315,3.311-56.515,3.979-50.579.671s9.245-5.3,9.908-17.858S849.667,7038.647,849.667,7038.647Z" transform="translate(-778.95 -6999.487)" fill="#fff4ba"/>
          <g id="Group_17375" data-name="Group 17375" transform="translate(64.615 47.812)">
            <rect id="Rectangle_5885" data-name="Rectangle 5885" width="51.979" height="30.536" rx="6.672" transform="translate(0 1.989)" fill="#fff" stroke="#231f20" stroke-miterlimit="10" stroke-width="0.25"/>
            <text id="Akiko-3" data-name="Akiko" transform="translate(12.99 20.757)" fill="#2d356b" font-size="10" font-family="TrebuchetMS-Bold, Trebuchet MS" font-weight="700"><tspan x="0" y="0">Akiko</tspan></text>
          </g>
          <g id="Group_17391" data-name="Group 17391" transform="translate(18.772 10.559)">
            <g id="Group_17390" data-name="Group 17390" transform="translate(0 0)">
              <g id="Group_17385" data-name="Group 17385" transform="translate(0 4.771)">
                <path id="Path_3689" data-name="Path 3689" d="M759.9,6975.726v-20.311a.741.741,0,0,0-.741-.741h-.315L744.1,6965.28l13.9,11.188h1.164A.741.741,0,0,0,759.9,6975.726Z" transform="translate(-726.403 -6954.674)" fill="#ebebeb"/>
                <g id="Group_17376" data-name="Group 17376" transform="translate(0.111 9.678)">
                  <path id="Path_3690" data-name="Path 3690" d="M699.766,7009.088H667.924c-.407,0-.68,0-.68-.409l16.947-11.708,16.212,11.784A.716.716,0,0,1,699.766,7009.088Z" transform="translate(-667.244 -6996.972)" fill="#ebebeb"/>
                </g>
                <path id="Path_3691" data-name="Path 3691" d="M666.932,6975.726v-20.311a.741.741,0,0,1,.741-.741h.315l14.744,10.606-13.9,11.188h-1.164A.742.742,0,0,1,666.932,6975.726Z" transform="translate(-666.892 -6954.674)" fill="#ebebeb"/>
                <g id="Group_17378" data-name="Group 17378" transform="translate(0.111 9.095)">
                  <g id="Group_17377" data-name="Group 17377">
                    <path id="Path_3692" data-name="Path 3692" d="M700.009,7006.54h-32.08c-.41,0-.685,0-.685-.409l17.074-11.707,16.333,11.783A.724.724,0,0,1,700.009,7006.54Z" transform="translate(-667.244 -6994.424)" fill="#fff"/>
                  </g>
                </g>
                <path id="Path_3693" data-name="Path 3693" d="M700.1,6955.6l-.855.658-15.4,11.564-16.844-11.9c-.3.1-.154.615-.154.615L684.06,6969.4l16.245-12.865C700.33,6956.5,700.318,6955.577,700.1,6955.6Z" transform="translate(-666.804 -6955.39)" fill="#c3e8e6"/>
                <g id="Group_17381" data-name="Group 17381" transform="translate(0.04)">
                  <g id="Group_17380" data-name="Group 17380">
                    <g id="Group_17379" data-name="Group 17379">
                      <path id="Path_3694" data-name="Path 3694" d="M699.754,6954.674h-32.08a.741.741,0,0,0-.741.741v.019l17.054,11.806,16.37-12.15A.732.732,0,0,0,699.754,6954.674Z" transform="translate(-666.932 -6954.674)" fill="#ebebeb"/>
                    </g>
                  </g>
                </g>
                <g id="Group_17384" data-name="Group 17384" transform="translate(0 0.213)">
                  <g id="Group_17383" data-name="Group 17383">
                    <g id="Group_17382" data-name="Group 17382">
                      <path id="Path_3695" data-name="Path 3695" d="M699.58,6955.6H667.5a.741.741,0,0,0-.741.74v.02l17.054,11.806,16.37-12.15A.732.732,0,0,0,699.58,6955.6Z" transform="translate(-666.759 -6955.603)" fill="#fff"/>
                    </g>
                  </g>
                </g>
              </g>
              <g id="Group_17389" data-name="Group 17389" transform="translate(26.626)">
                <g id="Group_17388" data-name="Group 17388" transform="translate(0)">
                  <g id="Group_17387" data-name="Group 17387" transform="translate(0)">
                    <g id="Group_17386" data-name="Group 17386">
                      <circle id="Ellipse_122" data-name="Ellipse 122" cx="4.783" cy="4.783" r="4.783" transform="matrix(0.23, -0.973, 0.973, 0.23, 0, 9.311)" fill="#f46973"/>
                    </g>
                  </g>
                </g>
              </g>
            </g>
            <text id="_" data-name="@" transform="translate(9.94 19.613)" fill="#9999a5" font-size="18" font-family="TrebuchetMS-Bold, Trebuchet MS" font-weight="700"><tspan x="0" y="0">@</tspan></text>
          </g>
        </g>
      </g>
      <g id="Group_17397" data-name="Group 17397" transform="translate(0 41.659)">
        <rect id="Rectangle_5886" data-name="Rectangle 5886" width="88.384" height="66.933" rx="33.467" transform="translate(88.384 80.135) rotate(-180)" fill="#fff" stroke="#ebebeb" stroke-miterlimit="10" stroke-width="4"/>
        <path id="Path_3696" data-name="Path 3696" d="M629.961,7108.178V7096.55l26.308-26.8Z" transform="translate(-541.414 -7069.748)" fill="#fff" stroke="#ebebeb" stroke-miterlimit="10" stroke-width="4"/>
        <g id="Group_17396" data-name="Group 17396" transform="translate(8.766 24.613)">
          <g id="Group_17395" data-name="Group 17395">
            <g id="Group_17394" data-name="Group 17394">
              <rect id="Rectangle_5887" data-name="Rectangle 5887" width="70.852" height="37.358" transform="translate(0 5.526)" fill="#0080af"/>
              <path id="Path_3697" data-name="Path 3697" d="M281.26,7177.324h18.766l5.989,5.526H281.26Z" transform="translate(-281.26 -7177.324)" fill="#03b4e9"/>
            </g>
            <text id="Survey_results" data-name="Survey
results" transform="translate(7.2 21.031)" fill="#fff" font-size="10" font-family="TrebuchetMS-Bold, Trebuchet MS" font-weight="700"><tspan x="0" y="0">Survey</tspan><tspan x="0" y="13">results</tspan></text>
          </g>
        </g>
      </g>
    </g>
  </g>
</svg>
