<svg xmlns="http://www.w3.org/2000/svg" width="544.539" height="369.197" viewBox="0 0 544.539 369.197">
  <g id="Group_12454" data-name="Group 12454" transform="translate(-459.192 -6941.461)">
    <g id="Group_12413" data-name="Group 12413" transform="translate(459.192 6942.541)">
      <g id="Group_12364" data-name="Group 12364">
        <g id="Group_12363" data-name="Group 12363">
          <g id="Group_12362" data-name="Group 12362">
            <g id="Group_12361" data-name="Group 12361">
              <g id="Group_12360" data-name="Group 12360">
                <g id="Group_12357" data-name="Group 12357" transform="translate(0.626)">
                  <g id="Group_12353" data-name="Group 12353" transform="translate(0.143)">
                    <path id="Path_17163" data-name="Path 17163" d="M1002.962,6958.676h.643V6945.6H461.375v273.171h541.582v-27.439h.005Z" transform="translate(-461.375 -6945.223)" fill="#fff"/>
                    <rect id="Rectangle_3845" data-name="Rectangle 3845" width="541.46" height="0.764" transform="translate(0 273.171)" fill="#a0bacb"/>
                    <rect id="Rectangle_3846" data-name="Rectangle 3846" width="542.23" height="0.764" fill="#7b88ac"/>
                  </g>
                  <g id="Group_12354" data-name="Group 12354" transform="translate(0 55.817)">
                    <path id="Path_17164" data-name="Path 17164" d="M566.845,7104.1v-.2H557.65v.2H462.6v166.544H657.792V7104.1Zm82.866,5.348v36.622H566.845v-36.622Zm-92.061,42.941v69.966H470.686v-69.966Zm9.195,69.966v-69.966h82.866v69.966Zm-9.195-112.908v36.622H470.686v-36.622Zm-86.964,119.227H557.65v36.622H470.686Zm96.159,36.622v-36.622h82.866v36.622Z" transform="translate(-462.028 -7103.516)" fill="#ebebeb"/>
                    <path id="Path_17165" data-name="Path 17165" d="M657.309,7270.323H460.968V7103.015h95.045v-.2h10.349v.2h90.947Zm-195.186-.764H656.154v-165.78H565.208v-.2h-8.041v.2H462.122Zm187.105-4.583h-84.02v-37.386h84.02Zm-82.866-.764h81.712v-35.858H566.362Zm-9.195.764H469.049v-37.386h88.118Zm-86.964-.764h85.81v-35.858H470.2Zm179.024-42.178h-84.02V7151.3h84.02Zm-82.866-.764h81.712v-69.2H566.362Zm-9.195.764H469.049V7151.3h88.118Zm-86.964-.764h85.81v-69.2H470.2Zm179.024-75.521h-84.02v-37.386h84.02Zm-82.866-.764h81.712v-35.859H566.362Zm-9.195.764H469.049v-37.386h88.118Zm-86.964-.764h85.81v-35.859H470.2Z" transform="translate(-460.968 -7102.814)" fill="#ebebeb"/>
                  </g>
                  <g id="Group_12355" data-name="Group 12355" transform="translate(201.549 54.832)">
                    <path id="Path_17166" data-name="Path 17166" d="M1290.48,7101.3v-.2h-8.434v.2h-87.178v166.544H1373.9V7101.3Zm76.007,5.348v36.622H1290.48v-36.622Zm-84.44,42.941v69.966h-79.766v-69.966Zm8.434,69.966v-69.966h76.007v69.966Zm-8.434-112.908v36.622h-79.766v-36.622Zm-79.766,119.226h79.766V7262.5h-79.766Zm88.2,36.623v-36.623h76.007V7262.5Z" transform="translate(-1194.34 -7100.721)" fill="#ebebeb"/>
                    <path id="Path_17167" data-name="Path 17167" d="M1373.457,7267.528H1193.368V7100.221h87.178v-.2h9.492v.2h83.418Zm-179.03-.763H1372.4V7100.984h-83.418v-.2H1281.6v.2h-87.177Zm171.618-4.584h-77.065v-37.386h77.065Zm-76.007-.764h74.948v-35.858h-74.948Zm-8.434.764H1200.78v-37.386H1281.6Zm-79.766-.764h78.707v-35.858h-78.707Zm164.206-42.178h-77.065V7148.51h77.065Zm-76.007-.764h74.948v-69.2h-74.948Zm-8.434.764H1200.78V7148.51H1281.6Zm-79.766-.764h78.707v-69.2h-78.707Zm164.206-75.521h-77.065v-37.386h77.065Zm-76.007-.764h74.948v-35.858h-74.948Zm-8.434.764H1200.78v-37.386H1281.6Zm-79.766-.764h78.707v-35.858h-78.707Z" transform="translate(-1193.368 -7100.02)" fill="#ebebeb"/>
                  </g>
                  <g id="Group_12356" data-name="Group 12356" transform="translate(387.538 55.817)">
                    <path id="Path_17168" data-name="Path 17168" d="M2004.207,7265.295h-49.255v-36.622h49.255v-6.319h-49.255v-69.966h49.255v-6.319h-49.255v-36.622h49.255V7104.1h-49.255v-.2h-9.195v.2h-95.045v166.544h153.495Zm-58.45,0h-86.964v-36.622h86.964Zm0-42.941h-86.964v-69.966h86.964Zm0-76.286h-86.964v-36.622h86.964Z" transform="translate(-1850.135 -7103.516)" fill="#ebebeb"/>
                    <path id="Path_17169" data-name="Path 17169" d="M2144.69,7494.052h49.833v-.764h-48.678V7457.43h48.678v-.764H2144.69Z" transform="translate(-2040.451 -7331.891)" fill="#ebebeb"/>
                    <path id="Path_17170" data-name="Path 17170" d="M2144.69,7311.057h49.833v-.764h-48.678v-69.2h48.678v-.764H2144.69Z" transform="translate(-2040.451 -7191.837)" fill="#ebebeb"/>
                    <path id="Path_17171" data-name="Path 17171" d="M2144.69,7155.934h49.833v-.764h-48.678v-35.858h48.678v-.764H2144.69Z" transform="translate(-2040.451 -7113)" fill="#ebebeb"/>
                    <path id="Path_17172" data-name="Path 17172" d="M1960.111,7118.548h-88.118v37.386h88.118Zm-1.154,36.622h-85.809v-35.858h85.809Z" transform="translate(-1863.912 -7113)" fill="#ebebeb"/>
                    <path id="Path_17173" data-name="Path 17173" d="M2003.148,7269.559H1850.231v-165.78h95.044v-.2h8.04v.2h49.833v-.764H1954.47v-.2h-10.349v.2h-95.045v167.309h154.072Z" transform="translate(-1849.076 -7102.814)" fill="#ebebeb"/>
                    <path id="Path_17174" data-name="Path 17174" d="M1871.993,7494.052h88.118v-37.386h-88.118Zm1.155-36.622h85.809v35.857h-85.809Z" transform="translate(-1863.912 -7331.891)" fill="#ebebeb"/>
                    <path id="Path_17175" data-name="Path 17175" d="M1960.111,7240.327h-88.118v70.729h88.118Zm-1.154,69.965h-85.809v-69.2h85.809Z" transform="translate(-1863.912 -7191.837)" fill="#ebebeb"/>
                  </g>
                </g>
                <g id="Group_12358" data-name="Group 12358" transform="translate(0 236.205)">
                  <path id="Path_17176" data-name="Path 17176" d="M1001.422,7627.949H459.84v93.726h-.648v37.862h542.225V7631.942h.005Z" transform="translate(-459.192 -7627.624)" fill="#f9f9f9"/>
                  <rect id="Rectangle_3847" data-name="Rectangle 3847" width="540.12" height="0.548" transform="translate(2.301 131.158)" fill="#f9f9f9"/>
                  <rect id="Rectangle_3848" data-name="Rectangle 3848" width="541.467" height="0.548" transform="translate(0.77)" fill="#f9f9f9"/>
                </g>
                <g id="Group_12359" data-name="Group 12359" transform="translate(34.45 4.816)">
                  <path id="Path_17177" data-name="Path 17177" d="M1558.976,7039.906v-81.727H1556.8v81.727c-6.782.416-12.115,4.669-12.115,9.865,0,5.471,5.911,9.906,13.2,9.906s13.2-4.436,13.2-9.906C1571.091,7044.575,1565.757,7040.322,1558.976,7039.906Z" transform="translate(-1196.368 -6958.179)" fill="#c3e8e6"/>
                  <path id="Path_17178" data-name="Path 17178" d="M571.178,7058.213v-81.727H569v81.727c-6.782.416-12.115,4.67-12.115,9.865,0,5.471,5.911,9.906,13.2,9.906s13.2-4.436,13.2-9.906C583.294,7062.883,577.96,7058.629,571.178,7058.213Z" transform="translate(-556.888 -6970.031)" fill="#c3e8e6"/>
                  <path id="Path_17179" data-name="Path 17179" d="M918.712,7054.313V6994.9H917.13v59.417c-4.93.3-8.808,3.4-8.808,7.172,0,3.978,4.3,7.2,9.6,7.2s9.6-3.224,9.6-7.2C927.52,7057.708,923.642,7054.615,918.712,7054.313Z" transform="translate(-784.399 -6981.948)" fill="#c3e8e6"/>
                  <path id="Path_17180" data-name="Path 17180" d="M1862.506,7054.313V6994.9h-1.582v59.417c-4.93.3-8.808,3.4-8.808,7.172,0,3.978,4.3,7.2,9.6,7.2s9.6-3.224,9.6-7.2C1871.314,7057.708,1867.436,7054.615,1862.506,7054.313Z" transform="translate(-1395.393 -6981.948)" fill="#c3e8e6"/>
                </g>
              </g>
            </g>
          </g>
        </g>
      </g>
      <g id="Group_12401" data-name="Group 12401" transform="translate(47.929 130.335)">
        <g id="Group_12373" data-name="Group 12373" transform="translate(0 20.587)">
          <g id="Group_12365" data-name="Group 12365">
            <rect id="Rectangle_3849" data-name="Rectangle 3849" width="45.171" height="1.614" transform="translate(0.412 0.343)" fill="#ebebeb"/>
            <path id="Path_17181" data-name="Path 17181" d="M641.108,7382.016H595.114v-2.3h45.994Zm-45.171-.686h44.348v-.927H595.937Z" transform="translate(-595.114 -7379.717)" fill="#ebebeb"/>
          </g>
          <g id="Group_12366" data-name="Group 12366" transform="translate(0 24.338)">
            <rect id="Rectangle_3850" data-name="Rectangle 3850" width="45.171" height="1.614" transform="translate(0.412 0.343)" fill="#ebebeb"/>
            <path id="Path_17182" data-name="Path 17182" d="M641.108,7451.038H595.114v-2.3h45.994Zm-45.171-.686h44.348v-.927H595.937Z" transform="translate(-595.114 -7448.738)" fill="#ebebeb"/>
          </g>
          <g id="Group_12367" data-name="Group 12367" transform="translate(0 48.676)">
            <rect id="Rectangle_3851" data-name="Rectangle 3851" width="45.171" height="1.614" transform="translate(0.412 0.343)" fill="#ebebeb"/>
            <path id="Path_17183" data-name="Path 17183" d="M641.108,7520.059H595.114v-2.3h45.994Zm-45.171-.687h44.348v-.927H595.937Z" transform="translate(-595.114 -7517.759)" fill="#ebebeb"/>
          </g>
          <g id="Group_12372" data-name="Group 12372" transform="translate(0 0.538)">
            <g id="Group_12368" data-name="Group 12368" transform="translate(0 73.014)">
              <rect id="Rectangle_3852" data-name="Rectangle 3852" width="45.171" height="1.614" transform="translate(0.412 0.343)" fill="#ebebeb"/>
              <path id="Path_17184" data-name="Path 17184" d="M641.108,7590.6H595.114v-2.3h45.994Zm-45.171-.686h44.348v-.928H595.937Z" transform="translate(-595.114 -7588.304)" fill="#ebebeb"/>
            </g>
            <g id="Group_12369" data-name="Group 12369" transform="translate(0 96.308)">
              <rect id="Rectangle_3853" data-name="Rectangle 3853" width="45.171" height="1.613" transform="translate(0.412 0.343)" fill="#ebebeb"/>
              <path id="Path_17185" data-name="Path 17185" d="M641.108,7656.663H595.114v-2.3h45.994Zm-45.171-.686h44.348v-.927H595.937Z" transform="translate(-595.114 -7654.363)" fill="#ebebeb"/>
            </g>
            <g id="Group_12370" data-name="Group 12370">
              <rect id="Rectangle_3854" data-name="Rectangle 3854" width="2.42" height="117.08" transform="translate(0.412 0.343)" fill="#ebebeb"/>
              <path id="Path_17186" data-name="Path 17186" d="M598.357,7499.009h-3.243V7381.243h3.243Zm-2.42-.686h1.6V7381.929h-1.6Z" transform="translate(-595.114 -7381.243)" fill="#ebebeb"/>
            </g>
            <g id="Group_12371" data-name="Group 12371" transform="translate(42.751)">
              <rect id="Rectangle_3855" data-name="Rectangle 3855" width="2.42" height="117.08" transform="translate(0.412 0.343)" fill="#ebebeb"/>
              <path id="Path_17187" data-name="Path 17187" d="M719.6,7499.009h-3.243V7381.243H719.6Zm-2.42-.686h1.6V7381.929h-1.6Z" transform="translate(-716.353 -7381.243)" fill="#ebebeb"/>
            </g>
          </g>
        </g>
        <g id="Group_12384" data-name="Group 12384" transform="translate(8.097 26.324)">
          <g id="Group_12375" data-name="Group 12375">
            <g id="Group_12374" data-name="Group 12374">
              <rect id="Rectangle_3856" data-name="Rectangle 3856" width="4.732" height="18.601" transform="translate(0.411 0.343)" fill="#ebebeb"/>
              <path id="Path_17188" data-name="Path 17188" d="M623.631,7415.274h-5.555v-19.288h5.555Zm-4.732-.687h3.909v-17.915H618.9Z" transform="translate(-618.076 -7395.986)" fill="#ebebeb"/>
            </g>
            <path id="Path_17189" data-name="Path 17189" d="M624.65,7406.649a1.585,1.585,0,1,1-1.56-1.3A1.448,1.448,0,0,1,624.65,7406.649Z" transform="translate(-620.313 -7402.048)" fill="#ebebeb"/>
          </g>
          <g id="Group_12377" data-name="Group 12377" transform="translate(5.562)">
            <g id="Group_12376" data-name="Group 12376">
              <rect id="Rectangle_3857" data-name="Rectangle 3857" width="4.732" height="18.601" transform="translate(0.412 0.343)" fill="#ebebeb"/>
              <path id="Path_17190" data-name="Path 17190" d="M639.4,7415.274h-5.556v-19.288H639.4Zm-4.733-.687h3.909v-17.915h-3.909Z" transform="translate(-633.849 -7395.986)" fill="#ebebeb"/>
            </g>
            <path id="Path_17191" data-name="Path 17191" d="M640.424,7406.649a1.585,1.585,0,1,1-1.56-1.3A1.448,1.448,0,0,1,640.424,7406.649Z" transform="translate(-636.086 -7402.048)" fill="#ebebeb"/>
          </g>
          <g id="Group_12379" data-name="Group 12379" transform="translate(11.124)">
            <g id="Group_12378" data-name="Group 12378">
              <rect id="Rectangle_3858" data-name="Rectangle 3858" width="4.732" height="18.601" transform="translate(0.412 0.343)" fill="#ebebeb"/>
              <path id="Path_17192" data-name="Path 17192" d="M655.179,7415.274h-5.555v-19.288h5.555Zm-4.732-.687h3.909v-17.915h-3.909Z" transform="translate(-649.624 -7395.986)" fill="#ebebeb"/>
            </g>
            <path id="Path_17193" data-name="Path 17193" d="M656.2,7406.649a1.585,1.585,0,1,1-1.56-1.3A1.448,1.448,0,0,1,656.2,7406.649Z" transform="translate(-651.861 -7402.048)" fill="#ebebeb"/>
          </g>
          <g id="Group_12381" data-name="Group 12381" transform="translate(16.686)">
            <g id="Group_12380" data-name="Group 12380">
              <rect id="Rectangle_3859" data-name="Rectangle 3859" width="4.732" height="18.601" transform="translate(0.412 0.343)" fill="#ebebeb"/>
              <path id="Path_17194" data-name="Path 17194" d="M670.953,7415.274H665.4v-19.288h5.556Zm-4.732-.687h3.909v-17.915H666.22Z" transform="translate(-665.397 -7395.986)" fill="#ebebeb"/>
            </g>
            <path id="Path_17195" data-name="Path 17195" d="M671.972,7406.649a1.585,1.585,0,1,1-1.56-1.3A1.448,1.448,0,0,1,671.972,7406.649Z" transform="translate(-667.634 -7402.048)" fill="#ebebeb"/>
          </g>
          <g id="Group_12383" data-name="Group 12383" transform="translate(22.249)">
            <g id="Group_12382" data-name="Group 12382">
              <rect id="Rectangle_3860" data-name="Rectangle 3860" width="4.732" height="18.601" transform="translate(0.412 0.343)" fill="#ebebeb"/>
              <path id="Path_17196" data-name="Path 17196" d="M686.728,7415.274h-5.556v-19.288h5.556Zm-4.732-.687H685.9v-17.915H682Z" transform="translate(-681.172 -7395.986)" fill="#ebebeb"/>
            </g>
            <path id="Path_17197" data-name="Path 17197" d="M687.746,7406.649a1.585,1.585,0,1,1-1.56-1.3A1.448,1.448,0,0,1,687.746,7406.649Z" transform="translate(-683.409 -7402.048)" fill="#ebebeb"/>
          </g>
        </g>
        <path id="Path_17198" data-name="Path 17198" d="M619.635,7549.5a7.713,7.713,0,0,1,.737-3.417H614.7a7.713,7.713,0,0,1,.737,3.417c0,2.068-2.486,5.887-2.486,8.432s2.635,3.38,4.585,3.38,4.585-.835,4.585-3.38S619.635,7551.573,619.635,7549.5Z" transform="translate(-606.661 -7466.834)" fill="#ebebeb"/>
        <g id="Group_12386" data-name="Group 12386" transform="translate(24.076 52.916)">
          <g id="Group_12385" data-name="Group 12385" transform="translate(0.703)">
            <path id="Path_17199" data-name="Path 17199" d="M682.777,7480.636c1.53-2.992-1.871-2.937-1.612-3.723.487-1.474,2.32.128,3.063-.615s-1.835-3.056-.484-3.857.877,1.911,2.044,1.718.472-3.059,1.848-2.738c1.035.241-.194,2.032-.081,2.868s2.247-.383,2.284.812-2.544.671-2.848,1.58,2.776,1.1,1.7,1.864-3.116-.151-3.652.647S682.127,7481.907,682.777,7480.636Z" transform="translate(-675.591 -7471.396)" fill="#ebebeb"/>
            <path id="Path_17200" data-name="Path 17200" d="M671.628,7487.573c-1.438-3.023-3.808-.991-4.287-1.7-.9-1.333,1.756-1.269,1.659-2.233s-3.883-1.1-3.6-2.458,2.236.844,2.9.022-2.245-2.45-1-3.03c.938-.436,1.576,1.558,2.363,2.086s1.274-1.589,2.309-.762-1.242,1.969-.692,2.792,2.9-.849,2.778.331-2.342,1.719-2.049,2.6S672.238,7488.857,671.628,7487.573Z" transform="translate(-665.384 -7475.744)" fill="#ebebeb"/>
          </g>
          <path id="Path_17201" data-name="Path 17201" d="M674,7493.055h-7.851s-2.756,1.973-2.756,4.3,1.718,4.751,6.681,4.751,6.682-2.421,6.682-4.751S674,7493.055,674,7493.055Z" transform="translate(-663.391 -7485.417)" fill="#ebebeb"/>
        </g>
        <g id="Group_12387" data-name="Group 12387" transform="translate(26.002 83.86)">
          <rect id="Rectangle_3861" data-name="Rectangle 3861" width="7.246" height="8.202" transform="translate(2.242 2.42)" fill="#ebebeb"/>
          <ellipse id="Ellipse_640" data-name="Ellipse 640" cx="5.719" cy="2.42" rx="5.719" ry="2.42" fill="#ebebeb"/>
        </g>
        <g id="Group_12388" data-name="Group 12388" transform="translate(20.955 13.054)">
          <rect id="Rectangle_3862" data-name="Rectangle 3862" width="5.373" height="6.081" transform="translate(1.662 1.795)" fill="#ebebeb"/>
          <path id="Path_17202" data-name="Path 17202" d="M663.021,7360.148c0,.991-1.9,1.794-4.24,1.794s-4.24-.8-4.24-1.794,1.9-1.795,4.24-1.795S663.021,7359.158,663.021,7360.148Z" transform="translate(-654.541 -7358.354)" fill="#ebebeb"/>
        </g>
        <g id="Group_12390" data-name="Group 12390" transform="translate(2.993)">
          <g id="Group_12389" data-name="Group 12389">
            <path id="Path_17203" data-name="Path 17203" d="M630.045,7340.641s-1.859-5.379,6.369-11.43c0,0-7.044,6.454-4.732,11.43Z" transform="translate(-620.604 -7326.433)" fill="#ebebeb"/>
            <path id="Path_17204" data-name="Path 17204" d="M627.388,7336.761s-4.261-5.992,3.37-15.428c0,0-6.056,9.614-1.4,15Z" transform="translate(-618.233 -7321.333)" fill="#ebebeb"/>
            <path id="Path_17205" data-name="Path 17205" d="M613.81,7340.641s1.859-5.379-6.369-11.43c0,0,7.044,6.454,4.732,11.43Z" transform="translate(-606.087 -7326.433)" fill="#ebebeb"/>
            <path id="Path_17206" data-name="Path 17206" d="M621.02,7338.028s3.424-4.815-2.711-12.4c0,0,4.867,7.725,1.127,12.054Z" transform="translate(-613.123 -7324.115)" fill="#ebebeb"/>
            <path id="Path_17207" data-name="Path 17207" d="M629.293,7347.793s-1.606-5.434,6.9-11.214c0,0-7.34,6.222-5.262,11.268Z" transform="translate(-620.156 -7331.203)" fill="#ebebeb"/>
            <path id="Path_17208" data-name="Path 17208" d="M610.5,7345.923s1.607-5.435-6.9-11.215c0,0,7.34,6.221,5.261,11.268Z" transform="translate(-603.601 -7329.992)" fill="#ebebeb"/>
          </g>
          <path id="Path_17209" data-name="Path 17209" d="M615.741,7356.285h-5.562l2.553,8.606h6.019l2.553-8.606Z" transform="translate(-607.859 -7343.96)" fill="#ebebeb"/>
        </g>
        <g id="Group_12400" data-name="Group 12400" transform="translate(4.316 62.883)">
          <g id="Group_12395" data-name="Group 12395" transform="translate(0 0)">
            <g id="Group_12391" data-name="Group 12391" transform="translate(0.412 4.553)">
              <rect id="Rectangle_3863" data-name="Rectangle 3863" width="2.272" height="17.025" transform="translate(0 2.272) rotate(-90)" fill="#ebebeb"/>
            </g>
            <g id="Group_12393" data-name="Group 12393" transform="translate(0 1.929)">
              <g id="Group_12392" data-name="Group 12392">
                <rect id="Rectangle_3864" data-name="Rectangle 3864" width="2.272" height="17.025" transform="translate(0.412 2.615) rotate(-90)" fill="#ebebeb"/>
                <path id="Path_17210" data-name="Path 17210" d="M625.2,7508.092H607.355v-2.958H625.2Zm-17.025-.686h16.2v-1.586h-16.2Z" transform="translate(-607.355 -7505.134)" fill="#ebebeb"/>
              </g>
            </g>
            <g id="Group_12394" data-name="Group 12394" transform="translate(0.412)">
              <rect id="Rectangle_3865" data-name="Rectangle 3865" width="2.272" height="17.025" transform="translate(0 2.272) rotate(-90)" fill="#ebebeb"/>
            </g>
          </g>
          <g id="Group_12396" data-name="Group 12396" transform="translate(10.438 0)">
            <rect id="Rectangle_3866" data-name="Rectangle 3866" width="0.122" height="2.272" fill="#ebebeb"/>
          </g>
          <g id="Group_12397" data-name="Group 12397" transform="translate(11.81 0)">
            <rect id="Rectangle_3867" data-name="Rectangle 3867" width="0.122" height="2.272" fill="#ebebeb"/>
          </g>
          <g id="Group_12398" data-name="Group 12398" transform="translate(13.181 0)">
            <rect id="Rectangle_3868" data-name="Rectangle 3868" width="0.122" height="2.272" fill="#ebebeb"/>
          </g>
          <g id="Group_12399" data-name="Group 12399" transform="translate(14.552 0)">
            <rect id="Rectangle_3869" data-name="Rectangle 3869" width="0.122" height="2.272" fill="#ebebeb"/>
          </g>
          <rect id="Rectangle_3870" data-name="Rectangle 3870" width="8.012" height="0.374" transform="translate(8.591 4.94)" fill="#ebebeb"/>
          <rect id="Rectangle_3871" data-name="Rectangle 3871" width="8.012" height="0.374" transform="translate(8.591 5.502)" fill="#ebebeb"/>
          <rect id="Rectangle_3872" data-name="Rectangle 3872" width="8.012" height="0.374" transform="translate(8.591 6.064)" fill="#ebebeb"/>
        </g>
      </g>
      <g id="Group_12412" data-name="Group 12412" transform="translate(300.392 176.536)">
        <g id="Group_12405" data-name="Group 12405">
          <g id="Group_12403" data-name="Group 12403" transform="translate(0.419 38.197)">
            <path id="Path_17211" data-name="Path 17211" d="M1602.812,7622.8l-1.461-.011,4.617-39.338.677-4.91,25.017,4.126-1.537,44.18-1.868-.152-.908-39.135-17.846-2.87Z" transform="translate(-1601.351 -7572.678)" fill="#cfd0d8"/>
            <g id="Group_12402" data-name="Group 12402" transform="translate(4.42)">
              <path id="Path_17212" data-name="Path 17212" d="M1662.077,7565.537l-15.419-1.081-32.48,2.867-.1,4.921a2.367,2.367,0,0,0,1.97,2.9s20.228,4.37,22.659,3.6l24.632-7.366Z" transform="translate(-1613.96 -7563.558)" fill="#cfd0d8"/>
              <path id="Path_17213" data-name="Path 17213" d="M1640.887,7569.854c-3.449.767-3.465.037-6.424-.27l-16.408-2.736c-6.2-.658-4.428-.895-1.464-2.085l2.453-.533c2.455-.971,14.6-2.61,17.848-2.28l23.557.7c3.473.347,1.655,1.553,1.17,1.65Z" transform="translate(-1613.887 -7561.907)" fill="#cfd0d8"/>
            </g>
            <path id="Path_17214" data-name="Path 17214" d="M1743.141,7580.2l3.872,41.358-1.141-.149-6.159-38.482Z" transform="translate(-1690.923 -7573.747)" fill="#cfd0d8"/>
          </g>
          <g id="Group_12404" data-name="Group 12404">
            <path id="Path_17215" data-name="Path 17215" d="M1631.393,7495.074c.042,2.256-2.114,3.7-5.957,3.4l-17.416-2.749c-4.4-.574-3.772-.986-4.284-3.3l-3.423-32.843c-.792-3.56,1.532-6.419,6.61-5.941l15.847,1.406c5.015.465,5.587,3.069,5.635,6.532Z" transform="translate(-1600.161 -7453.583)" fill="#cfd0d8"/>
            <path id="Path_17216" data-name="Path 17216" d="M1671.261,7460.864a4.76,4.76,0,0,1,4.459,4.068c.26,2.589,4.979,34.207,3.685,36.274s-4.407,2.387-4.265,1.487c1.288-8.4-2.455-37.239-3.363-38.923A4,4,0,0,1,1671.261,7460.864Z" transform="translate(-1646.136 -7458.294)" fill="#cfd0d8"/>
          </g>
        </g>
        <g id="Group_12407" data-name="Group 12407" transform="translate(145.641 3.688)">
          <g id="Group_12406" data-name="Group 12406">
            <path id="Path_17217" data-name="Path 17217" d="M2015.184,7618.286h-1.13l3.2-37.335,2.4.136,26.439.318v6.781h-.068l3.738,30.3h-1.131l-6.49-30.3h-20.957Z" transform="translate(-2013.748 -7539.727)" fill="#cfd0d8"/>
            <path id="Path_17218" data-name="Path 17218" d="M2091.042,7467.65c1.083-4.609,7.261-3.691,12.694-3.153,3.906.383,4.855,1.973,4.656,5.9l-4.661,34.086a5.855,5.855,0,0,1-7.1,5.753c-3.717-.756-11.351-3.253-11.06-7.17Z" transform="translate(-2060.043 -7464.043)" fill="#cfd0d8"/>
            <path id="Path_17219" data-name="Path 17219" d="M2025.784,7632.6h-.929l3.536-34.424-5.895-5.325,17.305-.115,20.377-.216-.079,5.656,4.063,34.631h-.753l-7.059-34.631h-24.044Z" transform="translate(-2019.214 -7547.215)" fill="#cfd0d8"/>
            <path id="Path_17220" data-name="Path 17220" d="M2013.505,7578.876a1.392,1.392,0,0,1,1.071-2.275l21.042-.085a17.842,17.842,0,0,1,5.6,1.047l11.833,3.936c.029.01.059.021.087.032,1.419.567,1.287,1.045-.315,1.045l-35.694-.085a1.391,1.391,0,0,1-1.073-.509Z" transform="translate(-2013.186 -7536.856)" fill="#cfd0d8"/>
          </g>
        </g>
        <g id="Group_12408" data-name="Group 12408" transform="translate(29.261 13.037)">
          <rect id="Rectangle_3873" data-name="Rectangle 3873" width="5.789" height="60.163" transform="translate(16.308 21.413)" fill="#ebebeb"/>
          <rect id="Rectangle_3874" data-name="Rectangle 3874" width="5.792" height="60.163" transform="translate(121.79 21.896)" fill="#ebebeb"/>
          <path id="Path_17221" data-name="Path 17221" d="M1824.324,7509.373v2.715H1683.517v-2.715l22.887-18.818h93.352Z" transform="translate(-1683.385 -7490.555)" fill="#ebebeb"/>
          <rect id="Rectangle_3875" data-name="Rectangle 3875" width="140.939" height="5.346" transform="translate(0 18.819)" fill="#ebebeb"/>
        </g>
        <g id="Group_12411" data-name="Group 12411" transform="translate(57.946 15.712)">
          <path id="Path_17222" data-name="Path 17222" d="M1792.455,7520.236l29.089-.021,3.814-5.123-26.13-.056Z" transform="translate(-1782.595 -7509.079)" fill="#cfd0d8"/>
          <g id="Group_12410" data-name="Group 12410">
            <path id="Path_17223" data-name="Path 17223" d="M1872.982,7666.143h-1.414l-6.878-43.243h3.664Z" transform="translate(-1829.358 -7578.908)" fill="#cfd0d8"/>
            <path id="Path_17224" data-name="Path 17224" d="M1767.319,7663.25h1.414l6.878-43.244h-3.664Z" transform="translate(-1766.322 -7577.035)" fill="#cfd0d8"/>
            <g id="Group_12409" data-name="Group 12409" transform="translate(10.85 39.16)">
              <path id="Path_17225" data-name="Path 17225" d="M1795.261,7657.741h.774l5.76-34.841h-3.339Z" transform="translate(-1795.261 -7618.067)" fill="#cfd0d8"/>
              <path id="Path_17226" data-name="Path 17226" d="M1894.606,7648.156h.782l-4.276-38.959-2.907,4.124Z" transform="translate(-1855.432 -7609.197)" fill="#cfd0d8"/>
            </g>
            <path id="Path_17227" data-name="Path 17227" d="M1780.218,7600.912a18.254,18.254,0,0,1,2.854-2.378c.441-.3,5-4.521,5-4.521l30.429,1.786a14.365,14.365,0,0,1,1.876.533c.642.231.97,2.01.892,3.479-.089,1.608-2.81,4.551-5.354,6.159-3.549,2.244-13.51,1.826-14.931,1.826h-1.88c-1.419,0-15.931.352-19.483-1.886C1778.327,7605.094,1779.083,7602,1780.218,7600.912Z" transform="translate(-1773.846 -7560.208)" fill="#cfd0d8"/>
            <path id="Path_17228" data-name="Path 17228" d="M1838.767,7500.369c1.965.593,6.684,1.778,7.074,6.521s3.174,32.407,2.39,34.238c-.986,2.3-3.735,2.363-4.713,1.181s-6.718-39.971-6.125-40.559S1838.767,7500.369,1838.767,7500.369Z" transform="translate(-1811.658 -7499.583)" fill="#cfd0d8"/>
            <path id="Path_17229" data-name="Path 17229" d="M1799.339,7538.876c0,2.529-2.718,4.486-6.083,4.41l-18.493-.444c-3.334-.083-6.186-2.166-6.38-4.685l-3.877-34.655c-.233-3,2.573-5.42,6.275-5.359l19.267.608c3.733.066,6.76,2.584,6.76,5.606Z" transform="translate(-1764.492 -7498.142)" fill="#cfd0d8"/>
          </g>
        </g>
      </g>
    </g>
    <g id="Group_12414" data-name="Group 12414" transform="translate(459.943 6943.305)">
      <rect id="Rectangle_3876" data-name="Rectangle 3876" width="67.397" height="39.76" transform="translate(67.397 39.76) rotate(-180)" fill="#ebebeb"/>
    </g>
    <text id="_5" data-name="5" transform="translate(472.603 6975.461)" fill="#2d356b" font-size="36" font-family="TrebuchetMS-Bold, Trebuchet MS" font-weight="700"><tspan x="0" y="0">5</tspan></text>
    <g id="Group_12416" data-name="Group 12416" transform="translate(459.192 6944.177)">
      <g id="Group_12415" data-name="Group 12415" transform="translate(0 0)">
        <path id="Path_17230" data-name="Path 17230" d="M1129.852,7153.331c9.836,23.385-19.732,40.417-56.888,49.062-39.467,9.184-88.667-5.642-111.409-33.209-20.554,13.165-51.068,22.454-85.393,24.365-63.273,3.523-117.647-22.438-114.372-47.456-53.957,8.895-88.944-28.1-91.831-64.444-5.265-28.425,23.639-71.4,100.86-75.7,9.846-.548,19.466-.713,28.763-.53-.137-.882-2.5-5.988,2.129-14.372,20.1-36.443,81.3-38.731,144.112-27.219,52.889,9.693,61.1,19.235,82.47,41.59,0,0,160.879-16.4,181.537,71.647C1209.83,7077.067,1236.717,7166.434,1129.852,7153.331Z" transform="translate(-668.816 -6957.671)" fill="#fff" stroke="#ebebeb" stroke-miterlimit="10" stroke-width="1"/>
        <ellipse id="Ellipse_641" data-name="Ellipse 641" cx="12.972" cy="11.982" rx="12.972" ry="11.982" transform="matrix(0.035, -0.999, 0.999, 0.035, 32.133, 200.742)" fill="#fff" stroke="#ebebeb" stroke-miterlimit="10" stroke-width="1"/>
        <ellipse id="Ellipse_642" data-name="Ellipse 642" cx="7.687" cy="7.1" rx="7.687" ry="7.1" transform="matrix(0.035, -0.999, 0.999, 0.035, 48.311, 209.203)" fill="#fff" stroke="#ebebeb" stroke-miterlimit="10" stroke-width="1"/>
        <ellipse id="Ellipse_643" data-name="Ellipse 643" cx="6.575" cy="6.074" rx="6.575" ry="6.074" transform="matrix(0.035, -0.999, 0.999, 0.035, 65.381, 215.795)" fill="#fff" stroke="#ebebeb" stroke-miterlimit="10" stroke-width="1"/>
      </g>
    </g>
    <g id="Group_12451" data-name="Group 12451" transform="translate(517.154 7132.021)">
      <g id="Group_12435" data-name="Group 12435" transform="translate(8.762 9.757)">
        <g id="Group_12434" data-name="Group 12434">
          <path id="Path_17231" data-name="Path 17231" d="M641.7,7725.108l38.228,3.756a7.24,7.24,0,0,0,7.948-7.206v-69.835a7.24,7.24,0,0,0-7.889-7.21L633.4,7648.8c-.146.013-.293.019-.44.023a6.919,6.919,0,0,0-6.661,8.038l8.942,62.074A7.24,7.24,0,0,0,641.7,7725.108Z" transform="translate(-626.223 -7598.982)" fill="#c3e8e6"/>
          <g id="Group_12433" data-name="Group 12433" transform="translate(14.694)">
            <g id="Group_12419" data-name="Group 12419" transform="translate(94.174 72.518)">
              <g id="Group_12417" data-name="Group 12417">
                <rect id="Rectangle_3877" data-name="Rectangle 3877" width="64.879" height="44.943" rx="5.265" transform="translate(0.497)" fill="#ebebeb"/>
                <rect id="Rectangle_3878" data-name="Rectangle 3878" width="65.873" height="3.244" transform="translate(0 46.275)" fill="#ebebeb"/>
                <rect id="Rectangle_3879" data-name="Rectangle 3879" width="3.244" height="7.79" transform="translate(8.788 40.137)" fill="#ebebeb"/>
                <rect id="Rectangle_3880" data-name="Rectangle 3880" width="3.244" height="7.79" transform="translate(53.74 40.137)" fill="#ebebeb"/>
              </g>
              <g id="Group_12418" data-name="Group 12418" transform="translate(25.32 13.56)">
                <path id="Path_17232" data-name="Path 17232" d="M1014.314,7769.266a7.617,7.617,0,1,1,7.617,7.618A7.625,7.625,0,0,1,1014.314,7769.266Zm2.9,0a4.715,4.715,0,1,0,4.714-4.715A4.719,4.719,0,0,0,1017.216,7769.266Z" transform="translate(-1014.314 -7761.649)" fill="#7b88ac"/>
              </g>
            </g>
            <g id="Group_12432" data-name="Group 12432">
              <g id="Group_12422" data-name="Group 12422" transform="translate(19.977 65.355)">
                <g id="Group_12420" data-name="Group 12420" transform="translate(42.048 31.37)">
                  <path id="Path_17233" data-name="Path 17233" d="M849.067,7816c3.066-1.379,11.114.569,10.982-2.361-.117-2.624-4.188-6.666-11.944-.06Z" transform="translate(-848.105 -7803.924)" fill="#f8c471"/>
                  <path id="Path_17234" data-name="Path 17234" d="M861.332,7809.854c-.086,4.646,5.574,4.731,7.363,4.346,1.966-.425,3-3.937,2.123-5.277S861.368,7808.078,861.332,7809.854Z" transform="translate(-856.758 -7802.724)" fill="#f8c471"/>
                  <path id="Path_17235" data-name="Path 17235" d="M868.515,7798.194c1.866-2,3.036-5.195,2.108-5.683-1.045-.554-1.534,2.378-3.648,3.77-2.286,1.512-3.642,2.583-3.107,3.495S866.649,7800.2,868.515,7798.194Z" transform="translate(-858.342 -7792.442)" fill="#f8c471"/>
                  <path id="Path_17236" data-name="Path 17236" d="M881.193,7806.837c2.291-.507,3.372-1.3,3.168-1.89s-1.492-.223-3.782.279-5.327.578-5.123,1.171S878.9,7807.337,881.193,7806.837Z" transform="translate(-865.992 -7800.423)" fill="#f8c471"/>
                  <path id="Path_17237" data-name="Path 17237" d="M885.079,7815.139c2.394-.036,4.447-1.13,4.367-1.74s-2.268-.053-4.661-.016-3.943.188-3.862.8S882.686,7815.175,885.079,7815.139Z" transform="translate(-869.574 -7805.967)" fill="#f8c471"/>
                  <path id="Path_17238" data-name="Path 17238" d="M879.5,7822.583c2.389-.132,3.691-.747,3.595-1.354s-1.653-.223-4.04-.089-4.059.259-3.962.868S877.113,7822.717,879.5,7822.583Z" transform="translate(-865.76 -7811.059)" fill="#f8c471"/>
                </g>
                <g id="Group_12421" data-name="Group 12421">
                  <path id="Path_17239" data-name="Path 17239" d="M760.975,7702.229c-6.653-5.788-34.164,39.272-34.48,41.122,0,0,3.311,3.62,5.158,2.4C736.43,7742.59,763.945,7704.812,760.975,7702.229Z" transform="translate(-726.495 -7701.715)" fill="#fc8c99"/>
                  <path id="Path_17240" data-name="Path 17240" d="M771.4,7814c.694,6.893-37.55,3.646-38.878,3,0,0-2.225-4.77-.605-5.39C736.106,7810.007,771.09,7810.917,771.4,7814Z" transform="translate(-729.655 -7773.103)" fill="#fc8c99"/>
                  <path id="Path_17241" data-name="Path 17241" d="M837.053,7814l-.786-1.967-7.775-2.1s.643,3.691,1.271,4.371S837.053,7814,837.053,7814Z" transform="translate(-793.225 -7772.517)" fill="#eaeaea"/>
                  <path id="Path_17242" data-name="Path 17242" d="M839.727,7821.257l-.082,2.129-6.678,4.514s-.637-3.729-.269-4.577S839.727,7821.257,839.727,7821.257Z" transform="translate(-795.903 -7779.924)" fill="#eaeaea"/>
                </g>
              </g>
              <g id="Group_12428" data-name="Group 12428">
                <g id="Group_12427" data-name="Group 12427">
                  <g id="Group_12423" data-name="Group 12423" transform="translate(0 2.297)">
                    <path id="Path_17243" data-name="Path 17243" d="M732.188,7600.347c8.248-7.656-4.5-9.659-3.782-16.48s2.166-4.633,3.433-13.43-1.016-12.124-1.076-17.263,3.553-13.486.756-20.044-4.632-4.4-7.086-9.624-5.016.363-9.343,2.563-8.946-10.268-16.552-5.719-7.111,14.109-9.479,19.41-9.872,7.3-11.247,16.846,4,7.5,1.449,14.06-9.132,5.866-10.507,15.415c0,0-1.113,9.585,9.615,9.335s7.242,5.4,18.963,1.964,7.585,6.735,15.866,3.054S724.821,7607.186,732.188,7600.347Z" transform="translate(-668.72 -7519.341)" fill="#2d356b"/>
                  </g>
                  <g id="Group_12424" data-name="Group 12424" transform="translate(29.02 31.852)">
                    <path id="Path_17244" data-name="Path 17244" d="M793.085,7604.821l8.717,7.763-1.8,21.374-7.355-4.151Z" transform="translate(-778.819 -7604.821)" fill="#f7c371"/>
                    <path id="Path_17245" data-name="Path 17245" d="M752.651,7743.594a67.052,67.052,0,0,0,2.921-10.524c3.924-21.551-10.164-50.01,6.669-57.219,17.872-7.654,28.966,43.447,28.966,43.447-10.23,14.868-10.906,9.757-13.285,28.548" transform="translate(-752.651 -7650.78)" fill="#ffb2b0"/>
                    <path id="Path_17246" data-name="Path 17246" d="M784.544,7672.253l2.889.144,10.659,14.044-4.282,2.535S786.77,7678.881,784.544,7672.253Z" transform="translate(-773.517 -7648.937)" fill="#fff"/>
                    <path id="Path_17247" data-name="Path 17247" d="M809.032,7690.763c.068-.033.131-.066.2-.1-2.22-7.231-7.806-18.672-14.969-19.2C799.718,7678.27,809.032,7690.763,809.032,7690.763Z" transform="translate(-779.874 -7648.42)" fill="#f7c371"/>
                  </g>
                  <g id="Group_12426" data-name="Group 12426" transform="translate(25.209)">
                    <g id="Group_12425" data-name="Group 12425">
                      <path id="Path_17248" data-name="Path 17248" d="M766.111,7557.779c-5.195-1.7-15.714-3.9-20.435-12.1-6.137-10.659-4.14-16.97-1.548-24.641,4.941-14.623,29.894-6.449,28.1-2.157C769.848,7524.58,784.937,7563.946,766.111,7557.779Z" transform="translate(-741.627 -7512.698)" fill="#2d356b"/>
                      <path id="Path_17249" data-name="Path 17249" d="M804.274,7572.522c1.92.094,5.836-9.658,7.231-17.216.46-2.492-2.227-2.918-1.641-11.467.344-5.019-1.637-12.086-9.807-17.484-7.713-5.1-9.061,10.465-9.917,14.033-2.437,10.165-5.37,16.481-2.982,21.573C791.824,7571.9,802.224,7571.927,804.274,7572.522Z" transform="translate(-770.835 -7520.968)" fill="#ffd8a3"/>
                      <path id="Path_17250" data-name="Path 17250" d="M839.171,7622.345a.442.442,0,0,1,.423-.46.466.466,0,0,1,.359.528.443.443,0,0,1-.425.46A.465.465,0,0,1,839.171,7622.345Z" transform="translate(-805.443 -7584.131)" fill="#ffab00"/>
                      <path id="Path_17251" data-name="Path 17251" d="M837.5,7582.236c-.121-1.347.535-2.492,1.46-2.56s1.778.969,1.9,2.315-.534,2.492-1.46,2.56S837.625,7583.583,837.5,7582.236Z" transform="translate(-804.344 -7556.516)" fill="#2d356b"/>
                      <path id="Path_17252" data-name="Path 17252" d="M832.246,7582.074c1.061-2.015,2.673-4.094,6.334-3.3A12.928,12.928,0,0,0,832.246,7582.074Z" transform="translate(-800.913 -7555.814)" fill="#2d356b"/>
                      <path id="Path_17253" data-name="Path 17253" d="M845.713,7639.126c.073-.31.982.846,1.437.907,1.287.173.838,1.8-.44,1.5C846.211,7641.414,845.637,7639.456,845.713,7639.126Z" transform="translate(-809.719 -7595.377)" fill="#f36973"/>
                      <path id="Path_17254" data-name="Path 17254" d="M843.161,7622.865c-.859-.391,5.133-1.8,3.966.146C846.716,7623.384,843.6,7623.065,843.161,7622.865Z" transform="translate(-807.999 -7584.209)" fill="#f36973"/>
                      <path id="Path_17255" data-name="Path 17255" d="M835.27,7559.878c-2.222-.232-7-.168-8.985,5.828C828.5,7561.977,830.353,7560.485,835.27,7559.878Z" transform="translate(-797.013 -7543.522)" fill="#2d356b"/>
                      <path id="Path_17256" data-name="Path 17256" d="M855.566,7599.17l-3.015.765.262-7.592,4.165,5.616Z" transform="translate(-814.198 -7564.804)" fill="#ffd8a3"/>
                      <path id="Path_17257" data-name="Path 17257" d="M855.223,7615.542l2.538-4.585-2.226-.188Z" transform="translate(-815.945 -7576.86)" fill="#ffd8a3"/>
                      <path id="Path_17258" data-name="Path 17258" d="M843.85,7630.189a56.1,56.1,0,0,0,1.786-6.515l-5.365-.261S841.06,7629.145,843.85,7630.189Z" transform="translate(-806.163 -7585.132)" fill="#ffab00"/>
                      <path id="Path_17259" data-name="Path 17259" d="M842.97,7627.184l3.056.148c.217-.818.423-1.676.617-2.566l-4.385-.213Z" transform="translate(-807.463 -7585.878)" fill="#fff"/>
                      <path id="Path_17260" data-name="Path 17260" d="M775.076,7590.792c.235-2.334,1.111-4.021-.66-4.2s-3.4,1.578-3.637,3.914,1.016,4.371,2.79,4.547S774.844,7593.129,775.076,7590.792Z" transform="translate(-760.681 -7561.037)" fill="#f7c371"/>
                    </g>
                    <path id="Path_17261" data-name="Path 17261" d="M804.843,7525.09c-6.049,8.241-16.529,20.21-14.743,32.458-4.367-13.161-1.3-30.283,7.615-36.959C798.555,7521.928,806.246,7521.911,804.843,7525.09Z" transform="translate(-772.054 -7517.861)" fill="#2d356b"/>
                  </g>
                </g>
              </g>
              <g id="Group_12431" data-name="Group 12431" transform="translate(11.749 62.171)">
                <g id="Group_12429" data-name="Group 12429" transform="translate(47.18 29.224)">
                  <path id="Path_17262" data-name="Path 17262" d="M840.948,7808.981c3.047-2.456,12.684-2.629,11.673-5.89-.9-2.921-6.678-6.275-13.47,3.446Z" transform="translate(-839.152 -7792.105)" fill="#ffd9a4"/>
                  <path id="Path_17263" data-name="Path 17263" d="M851.867,7798.828c1.27,5.258,7.67,3.688,9.571,2.729,2.089-1.057,2.219-5.314.839-6.568S851.386,7796.818,851.867,7798.828Z" transform="translate(-847.459 -7788.588)" fill="#ffd9a4"/>
                  <path id="Path_17264" data-name="Path 17264" d="M859.407,7784.069c1.512-2.807,1.891-6.744.7-7.021-1.34-.316-1.029,3.129-3,5.319-2.129,2.375-3.342,3.98-2.472,4.849S857.9,7786.881,859.407,7784.069Z" transform="translate(-849.097 -7777.028)" fill="#ffd9a4"/>
                  <path id="Path_17265" data-name="Path 17265" d="M873.373,7789.085c2.431-1.246,3.416-2.455,3.012-3.062s-1.746.188-4.177,1.428-5.83,2.217-5.426,2.825S870.94,7790.321,873.373,7789.085Z" transform="translate(-857.207 -7782.775)" fill="#ffd9a4"/>
                  <path id="Path_17266" data-name="Path 17266" d="M879.8,7797.507c2.685-.745,4.676-2.581,4.407-3.245s-2.569.607-5.254,1.353-4.386,1.372-4.115,2.037S877.119,7798.251,879.8,7797.507Z" transform="translate(-862.483 -7788.182)" fill="#ffd9a4"/>
                  <path id="Path_17267" data-name="Path 17267" d="M875.736,7807.847c2.651-.852,3.938-1.927,3.651-2.583s-1.927.236-4.576,1.088-4.495,1.486-4.207,2.144S873.084,7808.7,875.736,7807.847Z" transform="translate(-859.709 -7795.353)" fill="#ffd9a4"/>
                </g>
                <g id="Group_12430" data-name="Group 12430">
                  <path id="Path_17268" data-name="Path 17268" d="M729.439,7692.76c-9.2-4.561-26.926,54.28-26.738,56.457,0,0,4.794,3.1,6.515,1.185C713.666,7745.438,733.545,7694.8,729.439,7692.76Z" transform="translate(-702.7 -7692.508)" fill="#fc8c99"/>
                  <path id="Path_17269" data-name="Path 17269" d="M751.816,7817.208c2.809,7.56-41.219,15.152-42.9,14.816,0,0-3.909-4.718-2.267-5.892C710.892,7823.1,750.561,7813.832,751.816,7817.208Z" transform="translate(-705.017 -7773.614)" fill="#fc8c99"/>
                  <path id="Path_17270" data-name="Path 17270" d="M824.831,7814.847l-1.464-1.983-9.374-.08s1.81,3.967,2.717,4.548S824.831,7814.847,824.831,7814.847Z" transform="translate(-775.512 -7771.196)" fill="#eaeaea"/>
                  <path id="Path_17271" data-name="Path 17271" d="M831.351,7818.252l.534,2.422-6.194,7.047s-1.814-4.011-1.649-5.076S831.351,7818.252,831.351,7818.252Z" transform="translate(-782.079 -7774.774)" fill="#eaeaea"/>
                </g>
              </g>
            </g>
          </g>
        </g>
      </g>
      <g id="Group_12449" data-name="Group 12449" transform="translate(200.834 0)">
        <path id="Path_17272" data-name="Path 17272" d="M1496.28,7718.3l-38.228,3.756a7.24,7.24,0,0,1-7.948-7.205v-69.835a7.24,7.24,0,0,1,7.889-7.211l46.587,4.188c.146.013.294.019.44.024a6.918,6.918,0,0,1,6.66,8.036l-8.942,62.075A7.24,7.24,0,0,1,1496.28,7718.3Z" transform="translate(-1357.307 -7584.772)" fill="#c3e8e6"/>
        <path id="Path_17273" data-name="Path 17273" d="M1412.681,7515.512c-7.733-11.983,10.3-33.022,20.9-30.47,0,0,21.912-7.421,27.583,31.636.25,1.727-6.48,3.892-5.258,7.43s.774,3.247-.375,5.463-5.1.892-5.439,2.345c-.931,3.993,6.42,4.183,7.843,1.713,0,0-13.067,15.518-26.873.911C1430.265,7533.7,1414.717,7518.667,1412.681,7515.512Z" transform="translate(-1331.599 -7484.479)" fill="#fff4ba"/>
        <g id="Group_12438" data-name="Group 12438" transform="translate(0 82.853)">
          <g id="Group_12436" data-name="Group 12436">
            <path id="Rectangle_3881" data-name="Rectangle 3881" d="M5.264,0h54.35a5.265,5.265,0,0,1,5.265,5.265V39.679a5.265,5.265,0,0,1-5.265,5.265H5.265A5.265,5.265,0,0,1,0,39.679V5.264A5.264,5.264,0,0,1,5.264,0Z" transform="translate(0.497)" fill="#ebebeb"/>
            <rect id="Rectangle_3882" data-name="Rectangle 3882" width="65.873" height="3.244" transform="translate(0 46.275)" fill="#ebebeb"/>
            <rect id="Rectangle_3883" data-name="Rectangle 3883" width="3.244" height="7.79" transform="translate(8.788 40.137)" fill="#ebebeb"/>
            <rect id="Rectangle_3884" data-name="Rectangle 3884" width="3.244" height="7.79" transform="translate(53.74 40.137)" fill="#ebebeb"/>
          </g>
          <g id="Group_12437" data-name="Group 12437" transform="translate(25.319 13.56)">
            <path id="Path_17274" data-name="Path 17274" d="M1254.95,7770.937a7.617,7.617,0,1,1,7.617,7.618A7.626,7.626,0,0,1,1254.95,7770.937Zm2.9,0a4.715,4.715,0,1,0,4.714-4.715A4.72,4.72,0,0,0,1257.853,7770.937Z" transform="translate(-1254.95 -7763.32)" fill="#7b88ac"/>
          </g>
        </g>
        <g id="Group_12442" data-name="Group 12442" transform="translate(73.275 40.071)">
          <g id="Group_12439" data-name="Group 12439">
            <path id="Path_17275" data-name="Path 17275" d="M1473.411,7600.37l-9.562,5.621-2.284,20.251,7.625-2.5Z" transform="translate(-1438.08 -7600.37)" fill="#f6cda2"/>
            <path id="Path_17276" data-name="Path 17276" d="M1394.224,7752.7c19.127,12.236,26.638,8.075,37.964,7.912.713-16.048-8.067-27.316-7.884-38.543.334-20.81,18.738-44.722,4.388-54.559-15.239-10.444-35.046,35.124-35.046,35.124C1408.921,7711.826,1401.547,7728.014,1394.224,7752.7Z" transform="translate(-1393.646 -7643.275)" fill="#9ea9fc"/>
            <path id="Path_17277" data-name="Path 17277" d="M1463.2,7664.188l-2.718-.4-12.535,11.115,3.521,3.156S1459.9,7669.953,1463.2,7664.188Z" transform="translate(-1429.171 -7641.859)" fill="#fff"/>
            <path id="Path_17278" data-name="Path 17278" d="M1432.686,7677.565c-.056-.042-.11-.086-.167-.13,3.408-6.326,10.734-15.953,17.508-15.121C1443.681,7667.648,1432.686,7677.565,1432.686,7677.565Z" transform="translate(-1419.078 -7640.863)" fill="#f6cda2"/>
          </g>
          <g id="Group_12441" data-name="Group 12441" transform="translate(5.241 26.669)">
            <g id="Group_12440" data-name="Group 12440">
              <path id="Path_17279" data-name="Path 17279" d="M1497.258,7677.6c9.743-2.947,17.4,57.513,16.856,59.61,0,0-5.2,2.246-6.566.087C1504.013,7731.716,1492.908,7678.921,1497.258,7677.6Z" transform="translate(-1466.023 -7677.5)" fill="#7b88ac"/>
              <path id="Path_17280" data-name="Path 17280" d="M1418.525,7849.114c.961,7.939,43.215-5.383,44.549-6.444,0,0,1.3-5.935-.68-6.224C1457.27,7835.7,1418.1,7845.567,1418.525,7849.114Z" transform="translate(-1415.162 -7781.462)" fill="#7b88ac"/>
              <path id="Path_17281" data-name="Path 17281" d="M1408.887,7860.5l.486-2.4,8.4-3.992s.032,4.325-.541,5.226S1408.887,7860.5,1408.887,7860.5Z" transform="translate(-1408.858 -7793.043)" fill="#f5f6f6"/>
              <path id="Path_17282" data-name="Path 17282" d="M1408.8,7872.078l.532,2.4,8.517,3.746s-.047-4.366-.64-5.254S1408.8,7872.078,1408.8,7872.078Z" transform="translate(-1408.804 -7804.8)" fill="#f5f6f6"/>
            </g>
          </g>
        </g>
        <g id="Group_12448" data-name="Group 12448" transform="translate(82.13 6.566)">
          <g id="Group_12447" data-name="Group 12447">
            <g id="Group_12446" data-name="Group 12446">
              <g id="Group_12445" data-name="Group 12445">
                <g id="Group_12444" data-name="Group 12444">
                  <g id="Group_12443" data-name="Group 12443" transform="translate(0 3.021)">
                    <path id="Path_17283" data-name="Path 17283" d="M1434.121,7557.9c-1.813.318-6.694-8.481-8.919-15.495-.733-2.312,1.768-3.038.193-11.088-.924-4.728.116-11.677,7.235-17.778,6.72-5.76,9.854,8.862,11.092,12.15,3.526,9.366,7.064,15.017,5.4,20.138C1445.874,7555.829,1436,7557.089,1434.121,7557.9Z" transform="translate(-1423.055 -7512.209)" fill="#ffd8a3"/>
                    <path id="Path_17284" data-name="Path 17284" d="M1444.459,7607.055a.424.424,0,0,0-.457-.387.447.447,0,0,0-.278.545.425.425,0,0,0,.459.387A.445.445,0,0,0,1444.459,7607.055Z" transform="translate(-1435.257 -7574.003)" fill="#ffab00"/>
                    <path id="Path_17285" data-name="Path 17285" d="M1436.763,7569.066c-.266-1.267-1.186-2.132-2.053-1.936s-1.357,1.385-1.091,2.651,1.186,2.132,2.053,1.935S1437.029,7570.333,1436.763,7569.066Z" transform="translate(-1428.605 -7548.123)" fill="#2d356b"/>
                    <path id="Path_17286" data-name="Path 17286" d="M1435.4,7568.855c-1.535-1.548-3.593-3-6.723-1.249A12.361,12.361,0,0,1,1435.4,7568.855Z" transform="translate(-1425.422 -7547.929)" fill="#2d356b"/>
                    <path id="Path_17287" data-name="Path 17287" d="M1437.942,7623.705c-.106-.286-.832.92-1.257,1.033-1.2.318-.581,1.813.6,1.371C1437.741,7625.937,1438.053,7624.008,1437.942,7623.705Z" transform="translate(-1430.233 -7585.125)" fill="#f36973"/>
                    <path id="Path_17288" data-name="Path 17288" d="M1434.607,7608.531c.769-.473-5.092-1.1-3.75.612C1431.292,7609.448,1434.213,7608.774,1434.607,7608.531Z" transform="translate(-1426.714 -7574.889)" fill="#f36973"/>
                    <path id="Path_17289" data-name="Path 17289" d="M1425.374,7550.023c1.992-.778,6.423-1.93,9.772,3.1C1432.155,7550.245,1430.067,7549.338,1425.374,7550.023Z" transform="translate(-1423.259 -7536.495)" fill="#2d356b"/>
                    <path id="Path_17290" data-name="Path 17290" d="M1420.742,7586.965l2.955.367-1.153-7.181-3.288,5.831Z" transform="translate(-1419.256 -7556.659)" fill="#ffd8a3"/>
                    <path id="Path_17291" data-name="Path 17291" d="M1425.19,7602.489l-2.957-4.055,2.092-.444Z" transform="translate(-1421.204 -7568.33)" fill="#ffd8a3"/>
                    <path id="Path_17292" data-name="Path 17292" d="M1432.672,7614.979A53.654,53.654,0,0,1,1430.2,7609l5.065-.887S1435.2,7613.654,1432.672,7614.979Z" transform="translate(-1426.416 -7574.955)" fill="#ffab00"/>
                    <path id="Path_17293" data-name="Path 17293" d="M1434.9,7612.018l-2.885.5c-.3-.751-.6-1.542-.891-2.364l4.14-.725Z" transform="translate(-1427.021 -7575.816)" fill="#fff"/>
                    <path id="Path_17294" data-name="Path 17294" d="M1494.6,7570.1c-.5-2.189-1.534-3.687.127-4.064s3.42,1.094,3.922,3.285-.445,4.273-2.109,4.652S1495.1,7572.291,1494.6,7570.1Z" transform="translate(-1468.037 -7547.384)" fill="#f7c371"/>
                  </g>
                  <path id="Path_17295" data-name="Path 17295" d="M1437.889,7503.5c2.07,5.063,7.923,17.761,15.763,19.183,0,0,2.666-12.348-4.95-15.614C1439.088,7502.938,1437.889,7503.5,1437.889,7503.5Z" transform="translate(-1431.446 -7503.471)" fill="#fff4ba"/>
                </g>
              </g>
            </g>
          </g>
        </g>
      </g>
      <g id="Group_12450" data-name="Group 12450" transform="translate(0 132.058)">
        <path id="Path_17296" data-name="Path 17296" d="M998.781,7878.24,646.814,7874.5l8.583,43.706h335.36Z" transform="translate(-630.932 -7871.705)" fill="#2d356b"/>
        <path id="Path_17297" data-name="Path 17297" d="M980.954,7866.411H600.881l5.535,10,370.845-3.333Z" transform="translate(-600.881 -7866.411)" fill="#7b88ac"/>
      </g>
    </g>
    <g id="Group_12452" data-name="Group 12452" transform="translate(542.52 7268.525)">
      <rect id="Rectangle_3885" data-name="Rectangle 3885" width="66.158" height="36.769" rx="6.672" transform="translate(-32 -60)" fill="#fff" stroke="#231f20" stroke-miterlimit="10" stroke-width="0.25"/>
      <text id="Akiko" transform="translate(-11.921 -38.116)" fill="#2d356b" font-size="10" font-family="TrebuchetMS-Bold, Trebuchet MS" font-weight="700"><tspan x="0" y="0">Akiko</tspan></text>
    </g>
    <g id="Group_12453" data-name="Group 12453" transform="translate(820.954 7216.025)">
      <rect id="Rectangle_3886" data-name="Rectangle 3886" width="66.158" height="36.769" rx="6.672" transform="translate(-3.34 -10.017)" fill="#fff" stroke="#231f20" stroke-miterlimit="10" stroke-width="0.25"/>
      <text id="Helen" transform="translate(16.239 11.868)" fill="#2d356b" font-size="10" font-family="TrebuchetMS-Bold, Trebuchet MS" font-weight="700"><tspan x="0" y="0">Helen</tspan></text>
    </g>
  </g>
</svg>
