<svg xmlns="http://www.w3.org/2000/svg" width="196.634" height="162.283" viewBox="0 0 196.634 162.283">
  <g id="Group_18922" data-name="Group 18922" transform="translate(-2.925 0.125)">
    <g id="Group_18844" data-name="Group 18844" transform="translate(44.35 0)">
      <g id="Group_18843" data-name="Group 18843" transform="translate(0)">
        <g id="Group_18842" data-name="Group 18842">
          <rect id="Rectangle_6338" data-name="Rectangle 6338" width="119.318" height="38.267" rx="11.604" transform="translate(-6)" fill="#fff" stroke="#231f20" stroke-miterlimit="10" stroke-width="0.25"/>
          <path id="Path_4695" data-name="Path 4695" d="M642.788,2243.549l-15.745,29.535,29.08-29.535Z" transform="translate(-625.489 -2205.279)" fill="#fff" stroke="#231f20" stroke-miterlimit="10" stroke-width="0.25"/>
        </g>
      </g>
      <text id="Can_you_help_me_" data-name="Can you help me?" transform="translate(4.892 24.183)" font-size="12" font-family="TrebuchetMS-Bold, Trebuchet MS" font-weight="700"><tspan x="0" y="0">Can you help me?</tspan></text>
    </g>
    <g id="Group_18864" data-name="Group 18864" transform="translate(0 34.393)">
      <g id="Group_18862" data-name="Group 18862" transform="translate(2.924 0)">
        <g id="Group_18861" data-name="Group 18861">
          <g id="Group_18847" data-name="Group 18847" transform="translate(9.796 50.462)">
            <g id="Group_18845" data-name="Group 18845" transform="translate(31.106 20.662)">
              <path id="Path_4696" data-name="Path 4696" d="M638.747,2513.112c2.1-1.406,8.313-.966,7.849-3.121-.414-1.932-3.938-4.42-8.865,1.446Z" transform="translate(-637.731 -2502.769)" fill="#f8c471"/>
              <path id="Path_4697" data-name="Path 4697" d="M648.97,2506.512c.516,3.456,4.724,2.812,6,2.3,1.4-.561,1.732-3.293.916-4.179S648.775,2505.191,648.97,2506.512Z" transform="translate(-645.893 -2500.29)" fill="#f8c471"/>
              <path id="Path_4698" data-name="Path 4698" d="M654.518,2493.966c1.134-1.719,1.6-4.231.854-4.478-.844-.28-.841,1.955-2.235,3.251-1.506,1.406-2.379,2.37-1.868,2.979S653.384,2495.689,654.518,2493.966Z" transform="translate(-647.46 -2489.465)" fill="#f8c471"/>
              <path id="Path_4699" data-name="Path 4699" d="M665.982,2500.221c1.636-.662,2.339-1.384,2.113-1.8s-1.134.021-2.77.68-3.878,1.093-3.653,1.507S664.345,2500.877,665.982,2500.221Z" transform="translate(-655.114 -2495.855)" fill="#f8c471"/>
              <path id="Path_4700" data-name="Path 4700" d="M671.023,2507.509c1.771-.325,3.157-1.393,3.022-1.836s-1.688.244-3.458.57-2.9.632-2.764,1.075S669.254,2507.834,671.023,2507.509Z" transform="translate(-659.586 -2501.136)" fill="#f8c471"/>
              <path id="Path_4701" data-name="Path 4701" d="M666.945,2515.632c1.755-.4,2.644-1.015,2.5-1.453s-1.254.042-3.007.438-2.978.7-2.83,1.138S665.19,2516.029,666.945,2515.632Z" transform="translate(-656.521 -2507.294)" fill="#f8c471"/>
            </g>
            <g id="Group_18846" data-name="Group 18846">
              <path id="Path_4702" data-name="Path 4702" d="M544.417,2414.134c-5.656-3.461-20.434,33.388-20.438,34.8,0,0,2.907,2.271,4.125,1.135C531.251,2447.13,546.942,2415.68,544.417,2414.134Z" transform="translate(-523.979 -2413.905)" fill="#fc8c99"/>
              <path id="Path_4703" data-name="Path 4703" d="M557.423,2519.067c1.374,5.025-27.391,7.39-28.457,7.078,0,0-2.245-3.26-1.121-3.921C530.752,2520.513,556.809,2516.822,557.423,2519.067Z" transform="translate(-526.558 -2489.798)" fill="#fc8c99"/>
              <path id="Path_4704" data-name="Path 4704" d="M624.55,2516.419l-.828-1.361-6.028-.588s.937,2.657,1.488,3.082S624.55,2516.419,624.55,2516.419Z" transform="translate(-592.067 -2486.97)" fill="#eaeaea"/>
              <path id="Path_4705" data-name="Path 4705" d="M629.472,2521.18l.205,1.589-4.389,4.18s-.938-2.685-.771-3.361S629.472,2521.18,629.472,2521.18Z" transform="translate(-597.01 -2491.845)" fill="#eaeaea"/>
            </g>
          </g>
          <g id="Group_18857" data-name="Group 18857">
            <g id="Group_18856" data-name="Group 18856">
              <g id="Group_18848" data-name="Group 18848">
                <path id="Path_4706" data-name="Path 4706" d="M511.933,2268.687c-1.395,4.949-25.587-11.208-23.669-21.936,1.214-8.946,6.882-7.935,7.055-8.89.128-.7-1.68-4.284,5.42-7.175,8.144-3.315,17.406-.26,15.405,8.071-2.4,10.01,6.28,21.78,2.15,25.759S511.933,2268.687,511.933,2268.687Z" transform="translate(-488.156 -2229.373)" fill="#ffab00"/>
              </g>
              <g id="Group_18849" data-name="Group 18849" transform="translate(12.771 26.86)">
                <path id="Path_4707" data-name="Path 4707" d="M552.9,2327.6l7.434,4.67,1.334,16.074-5.973-2.16Z" transform="translate(-547.966 -2327.596)" fill="#f7c371"/>
                <path id="Path_4708" data-name="Path 4708" d="M540.8,2446.176a50.367,50.367,0,0,0,.853-8.169c.22-16.471-13.779-35.818-2.2-43.264,12.3-7.906,26.9,28.6,26.9,28.6-5.731,12.3-6.87,8.6-6.289,22.828" transform="translate(-534.86 -2375.567)" fill="#f46973"/>
                <path id="Path_4709" data-name="Path 4709" d="M554.758,2391.629l2.16-.254,9.657,9.086-2.859,2.414S557.236,2396.267,554.758,2391.629Z" transform="translate(-549.317 -2373.934)" fill="#fff"/>
                <path id="Path_4710" data-name="Path 4710" d="M577.108,2402.438l.135-.1c-2.549-5.085-8.119-12.872-13.5-12.372C568.641,2394.336,577.108,2402.438,577.108,2402.438Z" transform="translate(-555.847 -2372.896)" fill="#f7c371"/>
              </g>
              <g id="Group_18855" data-name="Group 18855" transform="translate(12.784 2.571)">
                <g id="Group_18854" data-name="Group 18854">
                  <g id="Group_18853" data-name="Group 18853">
                    <g id="Group_18852" data-name="Group 18852">
                      <g id="Group_18851" data-name="Group 18851">
                        <g id="Group_18850" data-name="Group 18850" transform="translate(0 4.761)">
                          <path id="Path_4711" data-name="Path 4711" d="M564.369,2289.508c1.38-.06,3.542-7.3,4.042-12.8.165-1.814-1.786-1.943-1.931-8.1-.085-3.616-1.969-8.545-8.174-11.871-5.858-3.141-5.8,8.089-6.175,10.7-1.075,7.438-2.759,12.153-.713,15.641C555.414,2289.885,562.862,2289.216,564.369,2289.508Z" transform="translate(-546.202 -2256.182)" fill="#ffd8a3"/>
                          <path id="Path_4712" data-name="Path 4712" d="M598.879,2342.1a.318.318,0,0,1,.272-.358.335.335,0,0,1,.292.354.318.318,0,0,1-.274.357A.334.334,0,0,1,598.879,2342.1Z" transform="translate(-581.385 -2318.348)" fill="#ffab00"/>
                          <path id="Path_4713" data-name="Path 4713" d="M594.539,2305.311c-.009-.972.526-1.755,1.193-1.751s1.219.8,1.227,1.768-.526,1.756-1.194,1.751S594.547,2306.283,594.539,2305.311Z" transform="translate(-578.231 -2290.604)" fill="#2d356b"/>
                          <path id="Path_4714" data-name="Path 4714" d="M589.635,2305.081c.876-1.383,2.151-2.78,4.729-2A9.289,9.289,0,0,0,589.635,2305.081Z" transform="translate(-574.669 -2290.093)" fill="#2d356b"/>
                          <path id="Path_4715" data-name="Path 4715" d="M606.141,2356.888c.031-.227.759.541,1.088.555.933.039.719,1.236-.216,1.1C606.649,2358.492,606.109,2357.128,606.141,2356.888Z" transform="translate(-586.66 -2329.319)" fill="#f36973"/>
                          <path id="Path_4716" data-name="Path 4716" d="M602.563,2341.682c-.64-.223,3.556-1.631,2.849-.156A6.683,6.683,0,0,1,602.563,2341.682Z" transform="translate(-584.013 -2317.706)" fill="#f36973"/>
                          <path id="Path_4717" data-name="Path 4717" d="M588.658,2286.239a5.664,5.664,0,0,0-6.667,3.853C583.72,2287.5,585.1,2286.493,588.658,2286.239Z" transform="translate(-569.115 -2277.946)" fill="#2d356b"/>
                          <path id="Path_4718" data-name="Path 4718" d="M611.523,2318.631l-2.108.746-.313-5.453,3.352,3.747Z" transform="translate(-588.813 -2298.134)" fill="#ffd8a3"/>
                          <path id="Path_4719" data-name="Path 4719" d="M613.278,2333.777l1.515-3.45-1.606.012Z" transform="translate(-591.78 -2310.052)" fill="#ffd8a3"/>
                          <path id="Path_4720" data-name="Path 4720" d="M602.9,2347.311a40.385,40.385,0,0,0,.849-4.782l-3.858.167S600.832,2346.748,602.9,2347.311Z" transform="translate(-582.118 -2318.916)" fill="#ffab00"/>
                          <path id="Path_4721" data-name="Path 4721" d="M602.466,2345.479l2.2-.095q.153-.9.272-1.878l-3.154.136Z" transform="translate(-583.494 -2319.627)" fill="#fff"/>
                          <path id="Path_4722" data-name="Path 4722" d="M538,2317.7c.014-1.687.53-2.952-.749-2.96s-2.332,1.354-2.346,3.042,1.015,3.062,2.3,3.071S537.988,2319.389,538,2317.7Z" transform="translate(-534.905 -2298.727)" fill="#f7c371"/>
                        </g>
                        <path id="Path_4723" data-name="Path 4723" d="M549.282,2239.752c-1.776-2.309-4.614-.1-8.958,2.171s-6.424,5.984-4.648,8.293,6.737,2.342,11.08.07S551.058,2242.062,549.282,2239.752Z" transform="translate(-535.004 -2238.773)" fill="#ffab00"/>
                      </g>
                    </g>
                  </g>
                </g>
              </g>
            </g>
          </g>
          <g id="Group_18860" data-name="Group 18860" transform="translate(5.159 50.05)">
            <g id="Group_18858" data-name="Group 18858" transform="translate(33.379 17.653)">
              <path id="Path_4724" data-name="Path 4724" d="M630.721,2506.8c1.953-2.2,9.078-3.532,7.922-5.824-1.035-2.053-5.735-3.82-9.559,4.236Z" transform="translate(-629.084 -2493.149)" fill="#ffd9a4"/>
              <path id="Path_4725" data-name="Path 4725" d="M639.021,2496.389c1.6,3.74,6.148,1.778,7.438.829,1.418-1.044.982-4.218-.2-4.975S638.412,2494.958,639.021,2496.389Z" transform="translate(-636.275 -2487.985)" fill="#ffd9a4"/>
              <path id="Path_4726" data-name="Path 4726" d="M644.491,2482.251c.771-2.271.561-5.237-.355-5.294-1.033-.067-.372,2.449-1.561,4.318-1.283,2.027-1.982,3.369-1.228,3.905S643.721,2484.526,644.491,2482.251Z" transform="translate(-637.768 -2476.956)" fill="#ffd9a4"/>
              <path id="Path_4727" data-name="Path 4727" d="M656.521,2484.343c1.648-1.227,2.227-2.247,1.851-2.646s-1.271.357-2.919,1.58-4.047,2.371-3.671,2.771S654.871,2485.563,656.521,2484.343Z" transform="translate(-645.546 -2480.321)" fill="#ffd9a4"/>
              <path id="Path_4728" data-name="Path 4728" d="M663.884,2491.2c1.9-.887,3.145-2.5,2.863-2.957s-1.829.771-3.727,1.659-3.081,1.565-2.8,2.023S661.986,2492.085,663.884,2491.2Z" transform="translate(-651.677 -2485.084)" fill="#ffd9a4"/>
              <path id="Path_4729" data-name="Path 4729" d="M661.652,2501.875c1.86-.962,2.68-1.921,2.385-2.371s-1.4.416-3.258,1.378-3.148,1.663-2.852,2.114S659.792,2502.838,661.652,2501.875Z" transform="translate(-650.009 -2493.249)" fill="#ffd9a4"/>
            </g>
            <g id="Group_18859" data-name="Group 18859">
              <path id="Path_4730" data-name="Path 4730" d="M519.825,2412.48c-7.388-2.235-13.193,43.614-12.783,45.2,0,0,3.942,1.7,4.979.066C514.7,2453.514,523.124,2413.479,519.825,2412.48Z" transform="translate(-507.022 -2412.401)" fill="#ffb2b0"/>
              <path id="Path_4731" data-name="Path 4731" d="M541.435,2520.263c3.026,5.255-28.676,16.38-29.968,16.342,0,0-3.488-3.011-2.417-4.087C511.822,2529.737,540.084,2517.915,541.435,2520.263Z" transform="translate(-508.347 -2490.545)" fill="#ffb2b0"/>
              <path id="Path_4732" data-name="Path 4732" d="M612.843,2516.654l-1.333-1.289-6.962,1.111s1.837,2.717,2.582,3.034S612.843,2516.654,612.843,2516.654Z" transform="translate(-577.879 -2487.209)" fill="#eaeaea"/>
              <path id="Path_4733" data-name="Path 4733" d="M621.729,2519.632l.7,1.73-3.713,6s-1.846-2.749-1.857-3.559S621.729,2519.632,621.729,2519.632Z" transform="translate(-586.822 -2490.309)" fill="#eaeaea"/>
            </g>
          </g>
        </g>
      </g>
    </g>
    <g id="Group_18875" data-name="Group 18875" transform="translate(102.989 20.017)">
      <g id="Group_18873" data-name="Group 18873" transform="translate(0 0)">
        <g id="Group_18872" data-name="Group 18872">
          <g id="Group_18865" data-name="Group 18865" transform="translate(44.962 28.941)">
            <path id="Path_4734" data-name="Path 4734" d="M1084.591,2341.549l1.211.448.365,3.081-2.808,1.067Z" transform="translate(-1065.624 -2325.438)" fill="#eaeaea"/>
            <path id="Path_4735" data-name="Path 4735" d="M1089.3,2286.671l11.565-4.038.14,18.525-16.533,4.487Z" transform="translate(-1066.429 -2282.632)" fill="#f7c371"/>
            <path id="Path_4736" data-name="Path 4736" d="M1026.945,2492.527l21.586,7.085-2.309,14.214-16.949,11.893Z" transform="translate(-1024.636 -2435.13)" fill="#eaeaea"/>
            <path id="Path_4737" data-name="Path 4737" d="M1060.159,2418.59c-13.832-.612-28.93,8.492-33.7-3.629-3.447-8.752-3.4-22.815-3.387-36.85.013-18.762,21.345-42.986,37.907-37.143,23.018,8.122,7.279,38.263,4.414,46.238C1056.993,2410.571,1059.7,2413.348,1060.159,2418.59Z" transform="translate(-1021.818 -2324.371)" fill="#9999a5"/>
            <path id="Path_4738" data-name="Path 4738" d="M1071.1,2456.167c.3-6.155,6.4-6.617,18.287-27.426,2.3-4.037,5.057-16.169,7.644-26.295.966-3.78,7.335,3.644,8.133,12.983.495,5.793-3.778,13.305-4.875,16.358-8.4,23.364-5.686,26.141-5.23,31.383C1087.06,2462.815,1078.347,2460.849,1071.1,2456.167Z" transform="translate(-1056.715 -2368.951)" fill="#2d356b"/>
            <path id="Path_4739" data-name="Path 4739" d="M1022.5,2395.933c2.153-24.159,21.683-47.274,38.681-53.4,2.855-1.028.41-3.213-7.643-2.777C1046.336,2340.179,1016.981,2353.419,1022.5,2395.933Z" transform="translate(-1020.91 -2324.096)" fill="#2d356b"/>
            <path id="Path_4740" data-name="Path 4740" d="M1023.652,2380.271c3.516-20.242,11.522-30.641,29.673-40.362-7.026.409-35.195,8.843-31.469,48.684C1021.95,2389.609,1023.045,2383.771,1023.652,2380.271Z" transform="translate(-1020.694 -2324.247)" fill="#7b88ac"/>
            <path id="Path_4741" data-name="Path 4741" d="M1032.926,2589.1c-.082-.855.329-1.595.92-1.652s1.136.59,1.219,1.445-.329,1.594-.92,1.651S1033.009,2589.959,1032.926,2589.1Z" transform="translate(-1028.974 -2504.095)" fill="#2d356b"/>
            <path id="Path_4742" data-name="Path 4742" d="M1029.34,2552.044c-.082-.854.329-1.595.92-1.651s1.137.59,1.219,1.445-.328,1.594-.919,1.652S1029.423,2552.9,1029.34,2552.044Z" transform="translate(-1026.369 -2477.169)" fill="#2d356b"/>
            <path id="Path_4743" data-name="Path 4743" d="M1088.173,2346.24l-4.213,1.281,1.623-4.474.805-.4Z" transform="translate(-1066.06 -2326.24)" fill="#ffb2b0"/>
            <path id="Path_4744" data-name="Path 4744" d="M1019.436,2403.128l1.613-8.164s-2.729-25.76,16.275-37.907l-.2-.656C1021.482,2366.881,1016.135,2385.723,1019.436,2403.128Z" transform="translate(-1018.502 -2336.229)" fill="#ffb2b0"/>
            <path id="Path_4745" data-name="Path 4745" d="M1087.865,2331.571l16.518-3.756,1.956,3.357-15.753,5.721Z" transform="translate(-1068.898 -2315.46)" fill="#fff"/>
          </g>
          <g id="Group_18867" data-name="Group 18867" transform="translate(0 59.789)">
            <path id="Path_4746" data-name="Path 4746" d="M1064.215,2438.535c1.727,3.878,39.394-31.678,37.034-38.294,0,0-8.281-10.354-30.183-.648C1071.066,2399.593,1057.908,2424.371,1064.215,2438.535Z" transform="translate(-1005.509 -2395.442)" fill="#9999a5"/>
            <g id="Group_18866" data-name="Group 18866" transform="translate(0 3.234)">
              <path id="Path_4747" data-name="Path 4747" d="M896.051,2442.565c-3.115-2.11-12.365-1.508-11.656-4.713.633-2.872,5.9-6.546,13.182,2.228Z" transform="translate(-876.077 -2427.114)" fill="#ffd9a4"/>
              <path id="Path_4748" data-name="Path 4748" d="M886.944,2432.657c-.8,5.14-7.056,4.146-8.954,3.378-2.086-.846-2.55-4.916-1.328-6.227S887.246,2430.692,886.944,2432.657Z" transform="translate(-870.002 -2423.356)" fill="#ffd9a4"/>
              <path id="Path_4749" data-name="Path 4749" d="M889.687,2413.975c-1.673-2.569-2.349-6.311-1.233-6.671,1.259-.41,1.235,2.917,3.3,4.857,2.23,2.106,3.52,3.548,2.755,4.451S891.36,2416.55,889.687,2413.975Z" transform="translate(-878.656 -2407.269)" fill="#ffd9a4"/>
              <path id="Path_4750" data-name="Path 4750" d="M865.2,2423.14c-2.429-1-3.469-2.079-3.13-2.693s1.688.04,4.117,1.035,5.763,1.659,5.425,2.274S867.633,2424.131,865.2,2423.14Z" transform="translate(-859.842 -2416.669)" fill="#ffd9a4"/>
              <path id="Path_4751" data-name="Path 4751" d="M858.575,2433.95c-2.633-.5-4.687-2.1-4.482-2.758s2.511.377,5.143.878,4.312.965,4.105,1.623S861.207,2434.449,858.575,2433.95Z" transform="translate(-854.079 -2424.496)" fill="#ffd9a4"/>
              <path id="Path_4752" data-name="Path 4752" d="M866.07,2446.084c-2.608-.605-3.927-1.533-3.7-2.183s1.866.072,4.472.678,4.426,1.066,4.2,1.719S868.679,2446.69,866.07,2446.084Z" transform="translate(-860.082 -2433.697)" fill="#ffd9a4"/>
            </g>
            <path id="Path_4753" data-name="Path 4753" d="M1066.259,2443.732c-9.78-13.393,5.118-35.54,5.118-35.54a9.72,9.72,0,0,1,2.171-.915C1063.067,2425.018,1066.665,2444.289,1066.259,2443.732Z" transform="translate(-1005.82 -2404.04)" fill="#cfd0d8"/>
            <path id="Path_4754" data-name="Path 4754" d="M908.8,2446.012l4.162,4.222,4.594-7.633-5.645-1.4Z" transform="translate(-893.835 -2428.686)" fill="#eaeaea"/>
            <path id="Path_4755" data-name="Path 4755" d="M959.658,2473.854s-15.221-4.231-41.389-22.673c0,0-.143-3.548,4.717-7.4,0,0,27.363,4.352,40.6,14.071C963.59,2457.856,965.337,2471.339,959.658,2473.854Z" transform="translate(-900.715 -2430.565)" fill="#9999a5"/>
            <path id="Path_4756" data-name="Path 4756" d="M938.627,2457.881a1.252,1.252,0,1,1,1.829-.657A1.391,1.391,0,0,1,938.627,2457.881Z" transform="translate(-914.728 -2439.05)" fill="#2d356b"/>
          </g>
          <g id="Group_18871" data-name="Group 18871" transform="translate(56.77)">
            <path id="Path_4757" data-name="Path 4757" d="M1099.228,2207.658c8.148-9.455,7.667-25.251,7.288-25.809-4.048-5.966-15.7-5.619-21.6-4.115-4.973,1.268-8.9,3.955-6.5,7.855.83,1.347,4.808-1.611,6.008-1.434,2.268.334,3.194,31.621,3.194,31.621Z" transform="translate(-1073.315 -2176.8)" fill="#2d356b"/>
            <g id="Group_18869" data-name="Group 18869" transform="translate(0 7.161)">
              <g id="Group_18868" data-name="Group 18868">
                <path id="Path_4758" data-name="Path 4758" d="M1072.917,2288.986l-1.136-2,1.605-.953Z" transform="translate(-1069.019 -2263.323)" fill="#ffd8a3"/>
                <path id="Path_4759" data-name="Path 4759" d="M1093.121,2230.457c-1,2.629-9.309,8.095-17.4,7.53-.654-10.563.167-27.952,2.2-30.872,2-2.872,9.818-4.816,10.75-3.9-2.92,3.313,1.367,14.706,3,15.782C1095.645,2221.619,1094.166,2227.714,1093.121,2230.457Z" transform="translate(-1071.72 -2202.986)" fill="#ffd8a3"/>
                <path id="Path_4760" data-name="Path 4760" d="M1061.682,2264.649a74.712,74.712,0,0,0,4.211-8.794c1.3-3.291.589,8.906.589,8.906S1062.849,2265.5,1061.682,2264.649Z" transform="translate(-1061.682 -2240.988)" fill="#ffd8a3"/>
                <path id="Path_4761" data-name="Path 4761" d="M1071.871,2324.1c-.809-.367-1.2-1.153-.865-1.754a1.606,1.606,0,0,1,2.068-.422c.811.367,1.2,1.154.866,1.754A1.607,1.607,0,0,1,1071.871,2324.1Z" transform="translate(-1068.37 -2289.266)" fill="#ffd8a3"/>
                <path id="Path_4762" data-name="Path 4762" d="M1073.263,2310.138c-.023-.214.222-.415.546-.449s.6.111.626.325-.222.415-.544.449S1073.286,2310.351,1073.263,2310.138Z" transform="translate(-1070.095 -2280.506)" fill="#ffd8a3"/>
              </g>
              <path id="Path_4763" data-name="Path 4763" d="M1133.51,2256.087c.5-1.908,2.013-3.228,3.382-2.947s2.073,2.056,1.574,3.963-3.136,2.963-4.5,2.682S1133.012,2257.994,1133.51,2256.087Z" transform="translate(-1113.524 -2239.398)" fill="#ffd8a3"/>
            </g>
            <path id="Path_4764" data-name="Path 4764" d="M1075.147,2293.881l.176,4.306s1.2-.1,1.476-.626a15.071,15.071,0,0,0,.965-4.3Z" transform="translate(-1071.465 -2261.411)" fill="#ffab00"/>
            <path id="Path_4765" data-name="Path 4765" d="M1075.42,2294.586l.159,3.824s.889-.058,1.085-.3a10.731,10.731,0,0,0,.923-4.072Z" transform="translate(-1071.663 -2261.982)" fill="#fff"/>
            <path id="Path_4766" data-name="Path 4766" d="M1080.074,2244.733a1.045,1.045,0,0,1,.282-.684c.444-.443,4.06.763,4,1.522l-.041.476c-.046.547-1.118-.059-2.2-.234-1.038-.167-2.094.118-2.069-.4Z" transform="translate(-1075.02 -2225.591)" fill="#2d356b"/>
            <path id="Path_4767" data-name="Path 4767" d="M1084.724,2258.982c-.006-.637.34-1.191.773-1.237s.79.433.8,1.071-.339,1.191-.773,1.237S1084.732,2259.619,1084.724,2258.982Z" transform="translate(-1078.423 -2235.607)" fill="#2d356b"/>
            <path id="Path_4768" data-name="Path 4768" d="M1084.388,2292.759c-.016-.148.056-.278.161-.289s.2.1.216.248-.056.277-.16.288S1084.4,2292.907,1084.388,2292.759Z" transform="translate(-1078.177 -2260.839)" fill="#ffab00"/>
            <g id="Group_18870" data-name="Group 18870" transform="translate(4.315 1.738)">
              <path id="Path_4769" data-name="Path 4769" d="M1122.087,2209.662c-3.514.214,1.818,16.155.025,17.277s-.048,2.441.893,2.1c2.154-.793,2.574-5.278,2.751-8.135C1125.953,2217.719,1122.385,2209.644,1122.087,2209.662Z" transform="translate(-1108.992 -2202.414)" fill="#2d356b"/>
              <path id="Path_4770" data-name="Path 4770" d="M1077.545,2189.446c-.538-2.538,1.579-5.137,4.729-5.806s12.344-1.021,12.881,1.516-7.779,7-10.93,7.672S1078.083,2191.982,1077.545,2189.446Z" transform="translate(-1077.461 -2183.154)" fill="#2d356b"/>
            </g>
          </g>
        </g>
      </g>
      <g id="Group_18874" data-name="Group 18874" transform="translate(31.412 109.723)">
        <rect id="Rectangle_6340" data-name="Rectangle 6340" width="65.034" height="32.292" rx="6.672" fill="#fff" stroke="#231f20" stroke-miterlimit="10" stroke-width="0.25"/>
        <text id="Steve" transform="translate(16.718 20.207)" fill="#2d356b" font-size="12" font-family="TrebuchetMS-Bold, Trebuchet MS" font-weight="700"><tspan x="0" y="0">Steve</tspan></text>
      </g>
    </g>
  </g>
</svg>
