<svg xmlns="http://www.w3.org/2000/svg" width="543.367" height="362.263" viewBox="0 0 543.367 362.263">
  <g id="Group_17247" data-name="Group 17247" transform="translate(-532.389 -10190.875)">
    <g id="Group_17198" data-name="Group 17198" transform="translate(532.389 10190.875)">
      <g id="Group_17197" data-name="Group 17197" transform="translate(0)">
        <g id="Group_17196" data-name="Group 17196">
          <g id="Group_17195" data-name="Group 17195">
            <g id="Group_17194" data-name="Group 17194">
              <g id="Group_17111" data-name="Group 17111">
                <g id="Group_17108" data-name="Group 17108" transform="translate(0.528)">
                  <g id="Group_17104" data-name="Group 17104" transform="translate(0.121)">
                    <path id="Path_4274" data-name="Path 4274" d="M1076.259,10204.612h.643V10191.9H534.184v265.609h542.07v-26.68h.005Z" transform="translate(-534.184 -10191.531)" fill="#fff"/>
                    <rect id="Rectangle_5819" data-name="Rectangle 5819" width="542.07" height="0.743" transform="translate(0 265.609)" fill="#a0bacb"/>
                    <rect id="Rectangle_5820" data-name="Rectangle 5820" width="542.719" height="0.743" fill="#7b88ac"/>
                  </g>
                  <g id="Group_17105" data-name="Group 17105" transform="translate(0 54.272)">
                    <path id="Path_4275" data-name="Path 4275" d="M623.019,10342.308v-.194h-7.747v.194H535.2v161.934H699.643v-161.934Zm69.815,5.2v35.607H623.019v-35.607Zm-77.562,41.752v68.029H542v-68.029Zm7.747,68.029v-68.029h69.815v68.029Zm-7.747-109.781v35.607H542v-35.607ZM542,10463.434h73.268v35.609H542Zm81.015,35.609v-35.609h69.815v35.609Z" transform="translate(-534.71 -10341.741)" fill="#ebebeb"/>
                    <path id="Path_4276" data-name="Path 4276" d="M699.27,10503.958H533.85V10341.28h80.077v-.194h8.719v.194H699.27Zm-164.447-.743H698.3v-161.191H621.674v-.2H614.9v.2H534.822Zm157.639-4.457H621.674v-36.351h70.788Zm-69.815-.743h68.842v-34.865H622.646Zm-7.747.743H540.658v-36.351H614.9Zm-73.268-.743h72.3v-34.865h-72.3Zm150.831-41.009H621.674v-68.772h70.788Zm-69.815-.743h68.842v-67.287H622.646Zm-7.747.743H540.658v-68.772H614.9Zm-73.268-.743h72.3v-67.287h-72.3Zm150.831-73.432H621.674v-36.351h70.788Zm-69.815-.742h68.842v-34.865H622.646Zm-7.747.742H540.658v-36.351H614.9Zm-73.268-.742h72.3v-34.865h-72.3Z" transform="translate(-533.85 -10341.086)" fill="#ebebeb"/>
                  </g>
                  <g id="Group_17106" data-name="Group 17106" transform="translate(217.586 53.314)">
                    <path id="Path_4277" data-name="Path 4277" d="M1217.854,10339.656v-.194h-7.105v.194H1137.3v161.935h150.835v-161.935Zm64.037,5.2v35.608h-64.037v-35.608Zm-71.142,41.753v68.029h-67.2v-68.029Zm7.105,68.029v-68.029h64.037v68.029Zm-7.105-109.782v35.608h-67.2v-35.608Zm-67.2,115.926h67.2v35.609h-67.2Zm74.309,35.609v-35.609h64.037v35.609Z" transform="translate(-1136.854 -10339.09)" fill="#ebebeb"/>
                    <path id="Path_4278" data-name="Path 4278" d="M1287.793,10501.306H1136.066v-162.678h73.448v-.194h8v.194h70.281Zm-150.835-.743H1286.9v-161.191H1216.62v-.2h-6.214v.2h-73.448Zm144.59-4.457H1216.62v-36.352h64.928Zm-64.036-.743h63.144V10460.5h-63.144Zm-7.105.743h-68.1v-36.352h68.1Zm-67.2-.743h66.312V10460.5H1143.2Zm138.346-41.011H1216.62v-68.771h64.928Zm-64.036-.741h63.144v-67.288h-63.144Zm-7.105.741h-68.1v-68.771h68.1Zm-67.2-.741h66.312v-67.288H1143.2Zm138.346-73.432H1216.62v-36.352h64.928Zm-64.036-.742h63.144v-34.866h-63.144Zm-7.105.742h-68.1v-36.352h68.1Zm-67.2-.742h66.312v-34.866H1143.2Z" transform="translate(-1136.066 -10338.434)" fill="#ebebeb"/>
                  </g>
                  <g id="Group_17107" data-name="Group 17107" transform="translate(412.389 54.272)">
                    <path id="Path_4279" data-name="Path 4279" d="M1805.889,10499.043h-41.5v-35.609h41.5v-6.145h-41.5v-68.029h41.5v-6.145h-41.5v-35.607h41.5v-5.2h-41.5v-.194h-7.747v.194h-80.077v161.934h129.322Zm-49.245,0h-73.268v-35.609h73.268Zm0-41.754h-73.268v-68.029h73.268Zm0-74.174h-73.268v-35.607h73.268Z" transform="translate(-1676.081 -10341.741)" fill="#ebebeb"/>
                    <path id="Path_4280" data-name="Path 4280" d="M1918.291,10713.218h41.985v-.742h-41.012v-34.866h41.012v-.742h-41.985Z" transform="translate(-1830.468 -10555.546)" fill="#ebebeb"/>
                    <path id="Path_4281" data-name="Path 4281" d="M1918.291,10540.347h41.985v-.742h-41.012v-67.287h41.012v-.742h-41.985Z" transform="translate(-1830.468 -10424.428)" fill="#ebebeb"/>
                    <path id="Path_4282" data-name="Path 4282" d="M1918.291,10392.366h41.985v-.743h-41.012v-34.865h41.012v-.743h-41.985Z" transform="translate(-1830.468 -10350.62)" fill="#ebebeb"/>
                    <path id="Path_4283" data-name="Path 4283" d="M1768.306,10356.015h-74.24v36.352h74.24Zm-.973,35.608h-72.3v-34.865h72.3Z" transform="translate(-1687.258 -10350.62)" fill="#ebebeb"/>
                    <path id="Path_4284" data-name="Path 4284" d="M1805.03,10503.215H1676.195v-161.191h80.076v-.2h6.774v.2h41.984v-.743h-41.012v-.194H1755.3v.194h-80.076v162.678H1805.03Z" transform="translate(-1675.222 -10341.086)" fill="#ebebeb"/>
                    <path id="Path_4285" data-name="Path 4285" d="M1694.066,10713.218h74.24v-36.35h-74.24Zm.973-35.607h72.3v34.866h-72.3Z" transform="translate(-1687.258 -10555.547)" fill="#ebebeb"/>
                    <path id="Path_4286" data-name="Path 4286" d="M1768.306,10471.575h-74.24v68.771h74.24Zm-.973,68.029h-72.3v-67.287h72.3Z" transform="translate(-1687.258 -10424.428)" fill="#ebebeb"/>
                  </g>
                </g>
                <g id="Group_17109" data-name="Group 17109" transform="translate(0 234.004)">
                  <path id="Path_4287" data-name="Path 4287" d="M1075.108,10839.4H533.038v91.131h-.648v36.813H1075.1v-124.062h.005Z" transform="translate(-532.389 -10839.088)" fill="#f9f9f9"/>
                  <rect id="Rectangle_5821" data-name="Rectangle 5821" width="540.941" height="0.532" transform="translate(1.939 127.527)" fill="#f9f9f9"/>
                  <rect id="Rectangle_5822" data-name="Rectangle 5822" width="542.076" height="0.532" transform="translate(0.648)" fill="#f9f9f9"/>
                </g>
                <g id="Group_17110" data-name="Group 17110" transform="translate(32.908 4.683)">
                  <path id="Path_4288" data-name="Path 4288" d="M1558.028,10289.43v-85.595h-2.078v85.595c-6.478.436-11.574,4.89-11.574,10.331,0,5.729,5.647,10.375,12.612,10.375s12.612-4.646,12.612-10.375C1569.6,10294.319,1564.507,10289.865,1558.028,10289.43Z" transform="translate(-1211.644 -10203.835)" fill="#c3e8e6"/>
                  <path id="Path_4289" data-name="Path 4289" d="M637.12,10308.141v-85.594h-2.078v85.594c-6.478.437-11.573,4.891-11.573,10.331,0,5.729,5.647,10.376,12.612,10.376s12.612-4.646,12.612-10.376C648.694,10313.031,643.6,10308.577,637.12,10308.141Z" transform="translate(-623.469 -10215.786)" fill="#c3e8e6"/>
                  <path id="Path_4290" data-name="Path 4290" d="M961.031,10303.593v-62.229H959.52v62.229c-4.71.316-8.414,3.555-8.414,7.511,0,4.166,4.106,7.543,9.17,7.543s9.169-3.377,9.169-7.543C969.445,10307.147,965.741,10303.909,961.031,10303.593Z" transform="translate(-832.728 -10227.804)" fill="#c3e8e6"/>
                  <path id="Path_4291" data-name="Path 4291" d="M1840.916,10303.593v-62.229H1839.4v62.229c-4.71.316-8.414,3.555-8.414,7.511,0,4.166,4.105,7.543,9.169,7.543s9.169-3.377,9.169-7.543C1849.33,10307.147,1845.626,10303.909,1840.916,10303.593Z" transform="translate(-1394.702 -10227.804)" fill="#c3e8e6"/>
                </g>
              </g>
              <g id="Group_17148" data-name="Group 17148" transform="translate(23.038 136.543)">
                <g id="Group_17120" data-name="Group 17120" transform="translate(0 19.074)">
                  <g id="Group_17112" data-name="Group 17112">
                    <rect id="Rectangle_5823" data-name="Rectangle 5823" width="45.676" height="1.495" transform="translate(0.416 0.318)" fill="#ebebeb"/>
                    <path id="Path_4292" data-name="Path 4292" d="M642.661,10623.71H596.152v-2.131h46.509Zm-45.676-.636h44.844v-.858H596.984Z" transform="translate(-596.152 -10621.579)" fill="#ebebeb"/>
                  </g>
                  <g id="Group_17113" data-name="Group 17113" transform="translate(0 22.55)">
                    <rect id="Rectangle_5824" data-name="Rectangle 5824" width="45.676" height="1.495" transform="translate(0.416 0.318)" fill="#ebebeb"/>
                    <path id="Path_4293" data-name="Path 4293" d="M642.661,10686.12H596.152v-2.13h46.509Zm-45.676-.635h44.844v-.86H596.984Z" transform="translate(-596.152 -10683.99)" fill="#ebebeb"/>
                  </g>
                  <g id="Group_17114" data-name="Group 17114" transform="translate(0 45.099)">
                    <rect id="Rectangle_5825" data-name="Rectangle 5825" width="45.676" height="1.495" transform="translate(0.416 0.318)" fill="#ebebeb"/>
                    <path id="Path_4294" data-name="Path 4294" d="M642.661,10748.531H596.152v-2.13h46.509Zm-45.676-.635h44.844v-.859H596.984Z" transform="translate(-596.152 -10746.401)" fill="#ebebeb"/>
                  </g>
                  <g id="Group_17119" data-name="Group 17119" transform="translate(0 0.499)">
                    <g id="Group_17115" data-name="Group 17115" transform="translate(0 67.648)">
                      <rect id="Rectangle_5826" data-name="Rectangle 5826" width="45.676" height="1.495" transform="translate(0.416 0.318)" fill="#ebebeb"/>
                      <path id="Path_4295" data-name="Path 4295" d="M642.661,10812.32H596.152v-2.131h46.509Zm-45.676-.636h44.844v-.858H596.984Z" transform="translate(-596.152 -10810.189)" fill="#ebebeb"/>
                    </g>
                    <g id="Group_17116" data-name="Group 17116" transform="translate(0 89.23)">
                      <rect id="Rectangle_5827" data-name="Rectangle 5827" width="45.676" height="1.495" transform="translate(0.416 0.318)" fill="#ebebeb"/>
                      <path id="Path_4296" data-name="Path 4296" d="M642.661,10872.053H596.152v-2.131h46.509Zm-45.676-.636h44.844v-.858H596.984Z" transform="translate(-596.152 -10869.922)" fill="#ebebeb"/>
                    </g>
                    <g id="Group_17117" data-name="Group 17117">
                      <rect id="Rectangle_5828" data-name="Rectangle 5828" width="2.447" height="108.475" transform="translate(0.416 0.318)" fill="#ebebeb"/>
                      <path id="Path_4297" data-name="Path 4297" d="M599.431,10732.07h-3.279v-109.111h3.279Zm-2.447-.637H598.6v-107.839h-1.614Z" transform="translate(-596.152 -10622.959)" fill="#ebebeb"/>
                    </g>
                    <g id="Group_17118" data-name="Group 17118" transform="translate(43.23)">
                      <rect id="Rectangle_5829" data-name="Rectangle 5829" width="2.447" height="108.475" transform="translate(0.416 0.318)" fill="#ebebeb"/>
                      <path id="Path_4298" data-name="Path 4298" d="M719.078,10732.07H715.8v-109.111h3.279Zm-2.447-.637h1.614v-107.839h-1.614Z" transform="translate(-715.799 -10622.959)" fill="#ebebeb"/>
                    </g>
                  </g>
                </g>
                <g id="Group_17131" data-name="Group 17131" transform="translate(8.187 24.39)">
                  <g id="Group_17122" data-name="Group 17122">
                    <g id="Group_17121" data-name="Group 17121">
                      <rect id="Rectangle_5830" data-name="Rectangle 5830" width="4.785" height="17.234" transform="translate(0.416 0.318)" fill="#ebebeb"/>
                      <path id="Path_4299" data-name="Path 4299" d="M624.429,10654.16h-5.617v-17.869h5.617Zm-4.785-.636H623.6v-16.6h-3.952Z" transform="translate(-618.812 -10636.291)" fill="#ebebeb"/>
                    </g>
                    <path id="Path_4300" data-name="Path 4300" d="M625.375,10645.962a1.635,1.635,0,1,1-1.577-1.2A1.429,1.429,0,0,1,625.375,10645.962Z" transform="translate(-620.989 -10641.699)" fill="#ebebeb"/>
                  </g>
                  <g id="Group_17124" data-name="Group 17124" transform="translate(5.624)">
                    <g id="Group_17123" data-name="Group 17123">
                      <rect id="Rectangle_5831" data-name="Rectangle 5831" width="4.785" height="17.234" transform="translate(0.416 0.318)" fill="#ebebeb"/>
                      <path id="Path_4301" data-name="Path 4301" d="M640,10654.16h-5.618v-17.869H640Zm-4.786-.636h3.953v-16.6H635.21Z" transform="translate(-634.378 -10636.291)" fill="#ebebeb"/>
                    </g>
                    <path id="Path_4302" data-name="Path 4302" d="M640.942,10645.962a1.635,1.635,0,1,1-1.577-1.2A1.429,1.429,0,0,1,640.942,10645.962Z" transform="translate(-636.556 -10641.699)" fill="#ebebeb"/>
                  </g>
                  <g id="Group_17126" data-name="Group 17126" transform="translate(11.249)">
                    <g id="Group_17125" data-name="Group 17125">
                      <rect id="Rectangle_5832" data-name="Rectangle 5832" width="4.785" height="17.234" transform="translate(0.416 0.318)" fill="#ebebeb"/>
                      <path id="Path_4303" data-name="Path 4303" d="M655.563,10654.16h-5.617v-17.869h5.617Zm-4.785-.636h3.952v-16.6h-3.952Z" transform="translate(-649.946 -10636.291)" fill="#ebebeb"/>
                    </g>
                    <path id="Path_4304" data-name="Path 4304" d="M656.509,10645.962a1.635,1.635,0,1,1-1.577-1.2A1.429,1.429,0,0,1,656.509,10645.962Z" transform="translate(-652.123 -10641.699)" fill="#ebebeb"/>
                  </g>
                  <g id="Group_17128" data-name="Group 17128" transform="translate(16.873)">
                    <g id="Group_17127" data-name="Group 17127">
                      <rect id="Rectangle_5833" data-name="Rectangle 5833" width="4.785" height="17.234" transform="translate(0.416 0.318)" fill="#ebebeb"/>
                      <path id="Path_4305" data-name="Path 4305" d="M671.13,10654.16h-5.618v-17.869h5.618Zm-4.785-.636H670.3v-16.6h-3.953Z" transform="translate(-665.512 -10636.291)" fill="#ebebeb"/>
                    </g>
                    <path id="Path_4306" data-name="Path 4306" d="M672.076,10645.962a1.635,1.635,0,1,1-1.577-1.2A1.429,1.429,0,0,1,672.076,10645.962Z" transform="translate(-667.69 -10641.699)" fill="#ebebeb"/>
                  </g>
                  <g id="Group_17130" data-name="Group 17130" transform="translate(22.498)">
                    <g id="Group_17129" data-name="Group 17129">
                      <rect id="Rectangle_5834" data-name="Rectangle 5834" width="4.785" height="17.234" transform="translate(0.416 0.318)" fill="#ebebeb"/>
                      <path id="Path_4307" data-name="Path 4307" d="M686.7,10654.16H681.08v-17.869H686.7Zm-4.785-.636h3.953v-16.6h-3.953Z" transform="translate(-681.08 -10636.291)" fill="#ebebeb"/>
                    </g>
                    <path id="Path_4308" data-name="Path 4308" d="M687.643,10645.962a1.635,1.635,0,1,1-1.577-1.2A1.429,1.429,0,0,1,687.643,10645.962Z" transform="translate(-683.257 -10641.699)" fill="#ebebeb"/>
                  </g>
                </g>
                <path id="Path_4309" data-name="Path 4309" d="M620.513,10775.181a6.67,6.67,0,0,1,.745-3.166h-5.735a6.67,6.67,0,0,1,.745,3.166c0,1.917-2.513,5.454-2.513,7.813s2.664,3.133,4.636,3.133,4.636-.775,4.636-3.133S620.513,10777.1,620.513,10775.181Z" transform="translate(-607.394 -10698.587)" fill="#ebebeb"/>
                <g id="Group_17133" data-name="Group 17133" transform="translate(24.345 49.027)">
                  <g id="Group_17132" data-name="Group 17132" transform="translate(0.711)">
                    <path id="Path_4310" data-name="Path 4310" d="M682.7,10713.04c1.547-2.772-1.892-2.721-1.63-3.449.492-1.366,2.345.119,3.1-.569s-1.856-2.831-.49-3.574.887,1.771,2.067,1.592.478-2.833,1.869-2.537c1.046.223-.2,1.883-.082,2.658s2.272-.355,2.31.752-2.573.622-2.88,1.463,2.807,1.016,1.715,1.728-3.15-.141-3.692.6S682.046,10714.218,682.7,10713.04Z" transform="translate(-675.437 -10704.479)" fill="#ebebeb"/>
                    <path id="Path_4311" data-name="Path 4311" d="M671.812,10719.315c-1.454-2.8-3.851-.917-4.335-1.575-.909-1.235,1.776-1.176,1.677-2.069s-3.927-1.016-3.641-2.277,2.261.782,2.936.021-2.27-2.27-1.008-2.807c.949-.4,1.594,1.443,2.39,1.933s1.288-1.473,2.334-.706-1.256,1.824-.7,2.587,2.93-.786,2.809.307-2.369,1.592-2.072,2.41S672.43,10720.5,671.812,10719.315Z" transform="translate(-665.499 -10708.356)" fill="#ebebeb"/>
                  </g>
                  <path id="Path_4312" data-name="Path 4312" d="M674.258,10724.062h-7.939s-2.787,1.828-2.787,3.986,1.737,4.4,6.756,4.4,6.756-2.243,6.756-4.4S674.258,10724.062,674.258,10724.062Z" transform="translate(-663.532 -10716.986)" fill="#ebebeb"/>
                </g>
                <g id="Group_17134" data-name="Group 17134" transform="translate(26.293 77.697)">
                  <rect id="Rectangle_5835" data-name="Rectangle 5835" width="7.327" height="7.6" transform="translate(2.267 2.242)" fill="#ebebeb"/>
                  <ellipse id="Ellipse_143" data-name="Ellipse 143" cx="5.783" cy="2.243" rx="5.783" ry="2.243" fill="#ebebeb"/>
                </g>
                <g id="Group_17135" data-name="Group 17135" transform="translate(21.19 12.095)">
                  <rect id="Rectangle_5836" data-name="Rectangle 5836" width="5.433" height="5.635" transform="translate(1.68 1.663)" fill="#ebebeb"/>
                  <path id="Path_4313" data-name="Path 4313" d="M663.374,10603.926c0,.918-1.92,1.662-4.287,1.662s-4.287-.744-4.287-1.662,1.919-1.662,4.287-1.662S663.374,10603.008,663.374,10603.926Z" transform="translate(-654.799 -10602.264)" fill="#ebebeb"/>
                </g>
                <g id="Group_17137" data-name="Group 17137" transform="translate(3.026)">
                  <g id="Group_17136" data-name="Group 17136">
                    <path id="Path_4314" data-name="Path 4314" d="M630.628,10586.5s-1.88-4.982,6.44-10.589c0,0-7.123,5.979-4.785,10.589Z" transform="translate(-621.081 -10573.337)" fill="#ebebeb"/>
                    <path id="Path_4315" data-name="Path 4315" d="M628.032,10583.082s-4.309-5.551,3.408-14.295c0,0-6.123,8.908-1.415,13.9Z" transform="translate(-618.773 -10568.787)" fill="#ebebeb"/>
                    <path id="Path_4316" data-name="Path 4316" d="M614.756,10586.5s1.88-4.982-6.44-10.589c0,0,7.124,5.979,4.785,10.589Z" transform="translate(-606.947 -10573.337)" fill="#ebebeb"/>
                    <path id="Path_4317" data-name="Path 4317" d="M621.783,10584.159s3.462-4.461-2.741-11.486c0,0,4.922,7.157,1.139,11.168Z" transform="translate(-613.798 -10571.269)" fill="#ebebeb"/>
                    <path id="Path_4318" data-name="Path 4318" d="M629.885,10592.963s-1.625-5.035,6.974-10.39c0,0-7.422,5.765-5.321,10.439Z" transform="translate(-620.645 -10577.592)" fill="#ebebeb"/>
                    <path id="Path_4319" data-name="Path 4319" d="M611.5,10591.272s1.624-5.035-6.974-10.391c0,0,7.422,5.764,5.321,10.439Z" transform="translate(-604.527 -10576.512)" fill="#ebebeb"/>
                  </g>
                  <path id="Path_4320" data-name="Path 4320" d="M616.643,10600.392h-5.625l2.581,7.973h6.087l2.581-7.973Z" transform="translate(-608.673 -10588.973)" fill="#ebebeb"/>
                </g>
                <g id="Group_17147" data-name="Group 17147" transform="translate(4.365 58.261)">
                  <g id="Group_17142" data-name="Group 17142" transform="translate(0 0)">
                    <g id="Group_17138" data-name="Group 17138" transform="translate(0.416 4.218)">
                      <rect id="Rectangle_5837" data-name="Rectangle 5837" width="2.105" height="17.216" transform="translate(0 2.105) rotate(-90)" fill="#ebebeb"/>
                    </g>
                    <g id="Group_17140" data-name="Group 17140" transform="translate(0 1.788)">
                      <g id="Group_17139" data-name="Group 17139">
                        <rect id="Rectangle_5838" data-name="Rectangle 5838" width="2.105" height="17.216" transform="translate(0.416 2.423) rotate(-90)" fill="#ebebeb"/>
                        <path id="Path_4321" data-name="Path 4321" d="M626.28,10737.728H608.232v-2.742H626.28Zm-17.216-.638h16.383v-1.469H609.064Z" transform="translate(-608.232 -10734.985)" fill="#ebebeb"/>
                      </g>
                    </g>
                    <g id="Group_17141" data-name="Group 17141" transform="translate(0.416)">
                      <rect id="Rectangle_5839" data-name="Rectangle 5839" width="2.105" height="17.216" transform="translate(0 2.105) rotate(-90)" fill="#ebebeb"/>
                    </g>
                  </g>
                  <g id="Group_17143" data-name="Group 17143" transform="translate(10.555 0)">
                    <rect id="Rectangle_5840" data-name="Rectangle 5840" width="0.124" height="2.105" fill="#ebebeb"/>
                  </g>
                  <g id="Group_17144" data-name="Group 17144" transform="translate(11.942 0)">
                    <rect id="Rectangle_5841" data-name="Rectangle 5841" width="0.124" height="2.105" fill="#ebebeb"/>
                  </g>
                  <g id="Group_17145" data-name="Group 17145" transform="translate(13.328 0)">
                    <rect id="Rectangle_5842" data-name="Rectangle 5842" width="0.124" height="2.105" fill="#ebebeb"/>
                  </g>
                  <g id="Group_17146" data-name="Group 17146" transform="translate(14.715 0)">
                    <rect id="Rectangle_5843" data-name="Rectangle 5843" width="0.124" height="2.105" fill="#ebebeb"/>
                  </g>
                  <rect id="Rectangle_5844" data-name="Rectangle 5844" width="8.102" height="0.347" transform="translate(8.687 4.577)" fill="#ebebeb"/>
                  <rect id="Rectangle_5845" data-name="Rectangle 5845" width="8.102" height="0.347" transform="translate(8.687 5.098)" fill="#ebebeb"/>
                  <rect id="Rectangle_5846" data-name="Rectangle 5846" width="8.102" height="0.347" transform="translate(8.687 5.618)" fill="#ebebeb"/>
                </g>
              </g>
              <g id="Group_17185" data-name="Group 17185" transform="translate(479.393 127.145)">
                <g id="Group_17157" data-name="Group 17157" transform="translate(0 19.074)">
                  <g id="Group_17149" data-name="Group 17149">
                    <rect id="Rectangle_5847" data-name="Rectangle 5847" width="45.676" height="1.495" transform="translate(0.416 0.318)" fill="#ebebeb"/>
                    <path id="Path_4322" data-name="Path 4322" d="M1905.719,10597.7H1859.21v-2.131h46.509Zm-45.677-.636h44.844v-.858h-44.844Z" transform="translate(-1859.21 -10595.567)" fill="#ebebeb"/>
                  </g>
                  <g id="Group_17150" data-name="Group 17150" transform="translate(0 22.549)">
                    <rect id="Rectangle_5848" data-name="Rectangle 5848" width="45.676" height="1.495" transform="translate(0.416 0.318)" fill="#ebebeb"/>
                    <path id="Path_4323" data-name="Path 4323" d="M1905.719,10660.108H1859.21v-2.132h46.509Zm-45.677-.637h44.844v-.858h-44.844Z" transform="translate(-1859.21 -10657.977)" fill="#ebebeb"/>
                  </g>
                  <g id="Group_17151" data-name="Group 17151" transform="translate(0 45.099)">
                    <rect id="Rectangle_5849" data-name="Rectangle 5849" width="45.676" height="1.495" transform="translate(0.416 0.318)" fill="#ebebeb"/>
                    <path id="Path_4324" data-name="Path 4324" d="M1905.719,10722.519H1859.21v-2.131h46.509Zm-45.677-.636h44.844v-.859h-44.844Z" transform="translate(-1859.21 -10720.388)" fill="#ebebeb"/>
                  </g>
                  <g id="Group_17156" data-name="Group 17156" transform="translate(0 0.498)">
                    <g id="Group_17152" data-name="Group 17152" transform="translate(0 67.648)">
                      <rect id="Rectangle_5850" data-name="Rectangle 5850" width="45.676" height="1.495" transform="translate(0.416 0.318)" fill="#ebebeb"/>
                      <path id="Path_4325" data-name="Path 4325" d="M1905.719,10786.309H1859.21v-2.131h46.509Zm-45.677-.636h44.844v-.86h-44.844Z" transform="translate(-1859.21 -10784.178)" fill="#ebebeb"/>
                    </g>
                    <g id="Group_17153" data-name="Group 17153" transform="translate(0 89.23)">
                      <rect id="Rectangle_5851" data-name="Rectangle 5851" width="45.676" height="1.495" transform="translate(0.416 0.318)" fill="#ebebeb"/>
                      <path id="Path_4326" data-name="Path 4326" d="M1905.719,10846.041H1859.21v-2.132h46.509Zm-45.677-.637h44.844v-.858h-44.844Z" transform="translate(-1859.21 -10843.909)" fill="#ebebeb"/>
                    </g>
                    <g id="Group_17154" data-name="Group 17154">
                      <rect id="Rectangle_5852" data-name="Rectangle 5852" width="2.447" height="108.475" transform="translate(0.416 0.318)" fill="#ebebeb"/>
                      <path id="Path_4327" data-name="Path 4327" d="M1862.489,10706.058h-3.279v-109.11h3.279Zm-2.447-.637h1.614v-107.838h-1.614Z" transform="translate(-1859.21 -10596.947)" fill="#ebebeb"/>
                    </g>
                    <g id="Group_17155" data-name="Group 17155" transform="translate(43.23)">
                      <rect id="Rectangle_5853" data-name="Rectangle 5853" width="2.447" height="108.475" transform="translate(0.416 0.318)" fill="#ebebeb"/>
                      <path id="Path_4328" data-name="Path 4328" d="M1982.136,10706.058h-3.279v-109.11h3.279Zm-2.447-.637h1.614v-107.838h-1.614Z" transform="translate(-1978.857 -10596.947)" fill="#ebebeb"/>
                    </g>
                  </g>
                </g>
                <g id="Group_17168" data-name="Group 17168" transform="translate(8.187 24.389)">
                  <g id="Group_17159" data-name="Group 17159">
                    <g id="Group_17158" data-name="Group 17158">
                      <rect id="Rectangle_5854" data-name="Rectangle 5854" width="4.785" height="17.234" transform="translate(0.416 0.318)" fill="#ebebeb"/>
                      <path id="Path_4329" data-name="Path 4329" d="M1887.487,10628.148h-5.617v-17.87h5.617Zm-4.785-.636h3.952v-16.6H1882.7Z" transform="translate(-1881.87 -10610.278)" fill="#ebebeb"/>
                    </g>
                    <path id="Path_4330" data-name="Path 4330" d="M1888.433,10619.948a1.635,1.635,0,1,1-1.577-1.2A1.429,1.429,0,0,1,1888.433,10619.948Z" transform="translate(-1884.047 -10615.686)" fill="#ebebeb"/>
                  </g>
                  <g id="Group_17161" data-name="Group 17161" transform="translate(5.624)">
                    <g id="Group_17160" data-name="Group 17160">
                      <rect id="Rectangle_5855" data-name="Rectangle 5855" width="4.785" height="17.234" transform="translate(0.416 0.318)" fill="#ebebeb"/>
                      <path id="Path_4331" data-name="Path 4331" d="M1903.054,10628.148h-5.618v-17.87h5.618Zm-4.786-.636h3.953v-16.6h-3.953Z" transform="translate(-1897.436 -10610.278)" fill="#ebebeb"/>
                    </g>
                    <path id="Path_4332" data-name="Path 4332" d="M1904,10619.948a1.635,1.635,0,1,1-1.577-1.2A1.429,1.429,0,0,1,1904,10619.948Z" transform="translate(-1899.614 -10615.686)" fill="#ebebeb"/>
                  </g>
                  <g id="Group_17163" data-name="Group 17163" transform="translate(11.249)">
                    <g id="Group_17162" data-name="Group 17162">
                      <rect id="Rectangle_5856" data-name="Rectangle 5856" width="4.785" height="17.234" transform="translate(0.416 0.318)" fill="#ebebeb"/>
                      <path id="Path_4333" data-name="Path 4333" d="M1918.621,10628.148H1913v-17.87h5.617Zm-4.785-.636h3.952v-16.6h-3.952Z" transform="translate(-1913.004 -10610.278)" fill="#ebebeb"/>
                    </g>
                    <path id="Path_4334" data-name="Path 4334" d="M1919.567,10619.948a1.635,1.635,0,1,1-1.577-1.2A1.429,1.429,0,0,1,1919.567,10619.948Z" transform="translate(-1915.181 -10615.686)" fill="#ebebeb"/>
                  </g>
                  <g id="Group_17165" data-name="Group 17165" transform="translate(16.873)">
                    <g id="Group_17164" data-name="Group 17164">
                      <rect id="Rectangle_5857" data-name="Rectangle 5857" width="4.785" height="17.234" transform="translate(0.416 0.318)" fill="#ebebeb"/>
                      <path id="Path_4335" data-name="Path 4335" d="M1934.188,10628.148h-5.618v-17.87h5.618Zm-4.785-.636h3.953v-16.6H1929.4Z" transform="translate(-1928.57 -10610.278)" fill="#ebebeb"/>
                    </g>
                    <path id="Path_4336" data-name="Path 4336" d="M1935.134,10619.948a1.635,1.635,0,1,1-1.577-1.2A1.429,1.429,0,0,1,1935.134,10619.948Z" transform="translate(-1930.748 -10615.686)" fill="#ebebeb"/>
                  </g>
                  <g id="Group_17167" data-name="Group 17167" transform="translate(22.498)">
                    <g id="Group_17166" data-name="Group 17166">
                      <rect id="Rectangle_5858" data-name="Rectangle 5858" width="4.785" height="17.234" transform="translate(0.416 0.318)" fill="#ebebeb"/>
                      <path id="Path_4337" data-name="Path 4337" d="M1949.756,10628.148h-5.618v-17.87h5.618Zm-4.785-.636h3.953v-16.6h-3.953Z" transform="translate(-1944.138 -10610.278)" fill="#ebebeb"/>
                    </g>
                    <path id="Path_4338" data-name="Path 4338" d="M1950.7,10619.948a1.635,1.635,0,1,1-1.577-1.2A1.429,1.429,0,0,1,1950.7,10619.948Z" transform="translate(-1946.315 -10615.686)" fill="#ebebeb"/>
                  </g>
                </g>
                <path id="Path_4339" data-name="Path 4339" d="M1883.571,10749.169a6.669,6.669,0,0,1,.745-3.166h-5.735a6.67,6.67,0,0,1,.745,3.166c0,1.917-2.513,5.454-2.513,7.812s2.664,3.133,4.636,3.133,4.636-.773,4.636-3.133S1883.571,10751.086,1883.571,10749.169Z" transform="translate(-1870.452 -10672.575)" fill="#ebebeb"/>
                <g id="Group_17170" data-name="Group 17170" transform="translate(24.345 49.026)">
                  <g id="Group_17169" data-name="Group 17169" transform="translate(0.711)">
                    <path id="Path_4340" data-name="Path 4340" d="M1945.761,10687.026c1.547-2.772-1.892-2.721-1.629-3.449.492-1.366,2.345.118,3.1-.569s-1.856-2.831-.49-3.575.887,1.771,2.067,1.593.478-2.834,1.869-2.536c1.046.223-.2,1.882-.082,2.656s2.273-.354,2.31.753-2.573.621-2.88,1.463,2.807,1.016,1.715,1.727-3.15-.14-3.692.6S1945.1,10688.2,1945.761,10687.026Z" transform="translate(-1938.495 -10678.466)" fill="#ebebeb"/>
                    <path id="Path_4341" data-name="Path 4341" d="M1934.87,10693.3c-1.454-2.8-3.851-.919-4.335-1.577-.909-1.235,1.776-1.175,1.677-2.068s-3.927-1.016-3.641-2.277,2.261.782,2.936.021-2.271-2.271-1.008-2.808c.949-.4,1.594,1.444,2.39,1.933s1.288-1.472,2.334-.706-1.256,1.824-.7,2.587,2.93-.786,2.809.307-2.369,1.593-2.072,2.41S1935.488,10694.493,1934.87,10693.3Z" transform="translate(-1928.557 -10682.345)" fill="#ebebeb"/>
                  </g>
                  <path id="Path_4342" data-name="Path 4342" d="M1937.316,10698.05h-7.939s-2.787,1.827-2.787,3.986,1.737,4.4,6.756,4.4,6.756-2.242,6.756-4.4S1937.316,10698.05,1937.316,10698.05Z" transform="translate(-1926.59 -10690.975)" fill="#ebebeb"/>
                </g>
                <g id="Group_17171" data-name="Group 17171" transform="translate(26.293 77.696)">
                  <rect id="Rectangle_5859" data-name="Rectangle 5859" width="7.327" height="7.6" transform="translate(2.267 2.243)" fill="#ebebeb"/>
                  <ellipse id="Ellipse_144" data-name="Ellipse 144" cx="5.783" cy="2.243" rx="5.783" ry="2.243" fill="#ebebeb"/>
                </g>
                <g id="Group_17172" data-name="Group 17172" transform="translate(21.19 12.095)">
                  <rect id="Rectangle_5860" data-name="Rectangle 5860" width="5.433" height="5.635" transform="translate(1.68 1.663)" fill="#ebebeb"/>
                  <path id="Path_4343" data-name="Path 4343" d="M1926.432,10577.912c0,.918-1.92,1.663-4.287,1.663s-4.287-.745-4.287-1.663,1.919-1.662,4.287-1.662S1926.432,10576.994,1926.432,10577.912Z" transform="translate(-1917.857 -10576.25)" fill="#ebebeb"/>
                </g>
                <g id="Group_17174" data-name="Group 17174" transform="translate(3.026)">
                  <g id="Group_17173" data-name="Group 17173">
                    <path id="Path_4344" data-name="Path 4344" d="M1893.686,10560.487s-1.879-4.983,6.44-10.589c0,0-7.123,5.979-4.785,10.589Z" transform="translate(-1884.139 -10547.324)" fill="#ebebeb"/>
                    <path id="Path_4345" data-name="Path 4345" d="M1891.09,10557.07s-4.309-5.552,3.408-14.294c0,0-6.123,8.906-1.415,13.9Z" transform="translate(-1881.831 -10542.776)" fill="#ebebeb"/>
                    <path id="Path_4346" data-name="Path 4346" d="M1877.814,10560.487s1.88-4.983-6.44-10.589c0,0,7.124,5.979,4.785,10.589Z" transform="translate(-1870.005 -10547.324)" fill="#ebebeb"/>
                    <path id="Path_4347" data-name="Path 4347" d="M1884.841,10558.147s3.462-4.462-2.741-11.487c0,0,4.922,7.157,1.139,11.168Z" transform="translate(-1876.855 -10545.256)" fill="#ebebeb"/>
                    <path id="Path_4348" data-name="Path 4348" d="M1892.943,10566.95s-1.625-5.036,6.974-10.391c0,0-7.423,5.765-5.321,10.439Z" transform="translate(-1883.703 -10551.579)" fill="#ebebeb"/>
                    <path id="Path_4349" data-name="Path 4349" d="M1874.559,10565.259s1.624-5.035-6.974-10.39c0,0,7.423,5.764,5.321,10.439Z" transform="translate(-1867.585 -10550.499)" fill="#ebebeb"/>
                  </g>
                  <path id="Path_4350" data-name="Path 4350" d="M1879.7,10574.379h-5.625l2.581,7.973h6.087l2.581-7.973Z" transform="translate(-1871.731 -10562.961)" fill="#ebebeb"/>
                </g>
                <g id="Group_17184" data-name="Group 17184" transform="translate(4.365 58.261)">
                  <g id="Group_17179" data-name="Group 17179" transform="translate(0 0)">
                    <g id="Group_17175" data-name="Group 17175" transform="translate(0.416 4.218)">
                      <rect id="Rectangle_5861" data-name="Rectangle 5861" width="2.105" height="17.216" transform="translate(0 2.105) rotate(-90)" fill="#ebebeb"/>
                    </g>
                    <g id="Group_17177" data-name="Group 17177" transform="translate(0 1.787)">
                      <g id="Group_17176" data-name="Group 17176">
                        <rect id="Rectangle_5862" data-name="Rectangle 5862" width="2.105" height="17.216" transform="translate(0.416 2.423) rotate(-90)" fill="#ebebeb"/>
                        <path id="Path_4351" data-name="Path 4351" d="M1889.338,10711.714H1871.29v-2.741h18.048Zm-17.216-.636h16.383v-1.47h-16.383Z" transform="translate(-1871.29 -10708.973)" fill="#ebebeb"/>
                      </g>
                    </g>
                    <g id="Group_17178" data-name="Group 17178" transform="translate(0.416)">
                      <rect id="Rectangle_5863" data-name="Rectangle 5863" width="2.105" height="17.216" transform="translate(0 2.105) rotate(-90)" fill="#ebebeb"/>
                    </g>
                  </g>
                  <g id="Group_17180" data-name="Group 17180" transform="translate(10.555 0)">
                    <rect id="Rectangle_5864" data-name="Rectangle 5864" width="0.124" height="2.105" fill="#ebebeb"/>
                  </g>
                  <g id="Group_17181" data-name="Group 17181" transform="translate(11.942 0)">
                    <rect id="Rectangle_5865" data-name="Rectangle 5865" width="0.124" height="2.105" fill="#ebebeb"/>
                  </g>
                  <g id="Group_17182" data-name="Group 17182" transform="translate(13.328 0)">
                    <rect id="Rectangle_5866" data-name="Rectangle 5866" width="0.124" height="2.105" fill="#ebebeb"/>
                  </g>
                  <g id="Group_17183" data-name="Group 17183" transform="translate(14.715 0)">
                    <rect id="Rectangle_5867" data-name="Rectangle 5867" width="0.124" height="2.105" fill="#ebebeb"/>
                  </g>
                  <rect id="Rectangle_5868" data-name="Rectangle 5868" width="8.102" height="0.347" transform="translate(8.687 4.577)" fill="#ebebeb"/>
                  <rect id="Rectangle_5869" data-name="Rectangle 5869" width="8.102" height="0.347" transform="translate(8.687 5.098)" fill="#ebebeb"/>
                  <rect id="Rectangle_5870" data-name="Rectangle 5870" width="8.102" height="0.347" transform="translate(8.687 5.618)" fill="#ebebeb"/>
                </g>
              </g>
              <g id="Group_17193" data-name="Group 17193" transform="translate(235.145 189.333)">
                <path id="Path_4352" data-name="Path 4352" d="M1301.146,10892.81H1192.5c-2.074,0-3.57-1.549-2.995-3.1h0a3.111,3.111,0,0,1,2.995-1.755h108.65a3.112,3.112,0,0,1,2.995,1.755h0C1304.716,10891.261,1303.22,10892.81,1301.146,10892.81Z" transform="translate(-1187.146 -10825.426)" fill="#ebebeb" opacity="0.32"/>
                <g id="Group_17188" data-name="Group 17188" transform="translate(0 21.512)">
                  <rect id="Rectangle_5871" data-name="Rectangle 5871" width="2.101" height="40.788" transform="translate(1.253 0.228)" fill="#ebebeb"/>
                  <rect id="Rectangle_5872" data-name="Rectangle 5872" width="2.102" height="40.788" transform="translate(115.404 0.228)" fill="#ebebeb"/>
                  <g id="Group_17186" data-name="Group 17186">
                    <path id="Path_4353" data-name="Path 4353" d="M1302.421,10779.076h-118.24l.9-4.01H1301.32Z" transform="translate(-1183.828 -10774.838)" fill="#ebebeb"/>
                    <path id="Path_4354" data-name="Path 4354" d="M1302.163,10778.9H1183.2l1-4.466h116.733Zm-118.254-.455h117.519l-.976-3.555H1184.707Z" transform="translate(-1183.202 -10774.435)" fill="#ebebeb"/>
                  </g>
                  <g id="Group_17187" data-name="Group 17187" transform="translate(0.055 4.01)">
                    <path id="Path_4355" data-name="Path 4355" d="M1302.219,10786.164H1184.182v41.863h1.952v-39.115h114.336v39.115h1.952v-41.863Z" transform="translate(-1183.883 -10785.937)" fill="#ebebeb"/>
                    <path id="Path_4356" data-name="Path 4356" d="M1302.192,10827.852h-2.548v-39.115H1185.9v39.115h-2.549v-42.318h118.837Zm-1.952-.456h1.354v-41.407H1183.952v41.407h1.355v-39.115H1300.24Z" transform="translate(-1183.355 -10785.533)" fill="#ebebeb"/>
                  </g>
                </g>
                <g id="Group_17192" data-name="Group 17192" transform="translate(81.041)">
                  <path id="Path_4357" data-name="Path 4357" d="M1446.365,10716.582v14.993c0,.929-1.057,1.686-2.343,1.686h-34.18c-1.286,0-2.343-.757-2.343-1.686v-14.993c0-.926,1.057-1.687,2.343-1.687h34.18C1445.309,10714.895,1446.365,10715.656,1446.365,10716.582Z" transform="translate(-1407.499 -10714.895)" fill="#ebebeb"/>
                  <path id="Path_4358" data-name="Path 4358" d="M1411.228,10733.692c-.862,0-1.563-.5-1.563-1.124v-14.992c0-.62.7-1.125,1.563-1.125h34.177c.861,0,1.562.5,1.562,1.125v14.992c0,.621-.7,1.124-1.562,1.124Z" transform="translate(-1408.882 -10715.889)" fill="#ebebeb"/>
                  <g id="Group_17189" data-name="Group 17189" transform="translate(1.265 0.897)">
                    <path id="Path_4359" data-name="Path 4359" d="M1412.609,10734.125c-.431,0-.781-.252-.781-.562v-14.993c0-.311.35-.563.781-.563h34.177c.431,0,.781.253.781.563v14.993c0,.31-.35.562-.781.562Z" transform="translate(-1411.529 -10717.779)" fill="#ebebeb"/>
                    <path id="Path_4360" data-name="Path 4360" d="M1446.258,10733.95h-34.177c-.6,0-1.08-.355-1.08-.79v-14.993c0-.436.485-.79,1.08-.79h34.177c.6,0,1.08.354,1.08.79v14.993C1447.338,10733.595,1446.853,10733.95,1446.258,10733.95Zm-34.177-16.118c-.266,0-.483.151-.483.335v14.993c0,.185.216.334.483.334h34.177c.266,0,.483-.149.483-.334v-14.993c0-.184-.216-.335-.483-.335Z" transform="translate(-1411.001 -10717.377)" fill="#ebebeb"/>
                  </g>
                  <path id="Path_4361" data-name="Path 4361" d="M1457.766,10751.395H1448.6l1.034-8.108h7.1Z" transform="translate(-1433.75 -10733.028)" fill="#ebebeb"/>
                  <g id="Group_17190" data-name="Group 17190" transform="translate(14.815 9.599)">
                    <path id="Path_4362" data-name="Path 4362" d="M1457.988,10755.272h-8.593l1.349-13.179h5.895Z" transform="translate(-1449.072 -10741.866)" fill="#ebebeb"/>
                    <path id="Path_4363" data-name="Path 4363" d="M1457.74,10755.1H1448.5l1.4-13.634h6.447Zm-8.593-.456h7.948l-1.3-12.723h-5.343Z" transform="translate(-1448.502 -10741.463)" fill="#ebebeb"/>
                  </g>
                  <g id="Group_17191" data-name="Group 17191" transform="translate(8.98 22.215)">
                    <path id="Path_4364" data-name="Path 4364" d="M1453.49,10779.025h-20.311c0-1.112,1.253-2.015,2.8-2.015h14.713c1.546,0,2.8.9,2.8,2.015Z" transform="translate(-1432.881 -10776.783)" fill="#ebebeb"/>
                    <path id="Path_4365" data-name="Path 4365" d="M1453.261,10778.851h-20.908v-.228c0-1.237,1.39-2.243,3.1-2.243h14.713c1.708,0,3.1,1.006,3.1,2.243Zm-20.291-.455h19.674a2.366,2.366,0,0,0-2.481-1.56h-14.713A2.367,2.367,0,0,0,1432.97,10778.4Z" transform="translate(-1432.353 -10776.38)" fill="#ebebeb"/>
                  </g>
                </g>
              </g>
            </g>
          </g>
        </g>
      </g>
    </g>
    <g id="Group_17200" data-name="Group 17200" transform="translate(574.206 10423.546)">
      <g id="Group_17199" data-name="Group 17199" transform="translate(0 0)">
        <path id="Path_4366" data-name="Path 4366" d="M725.166,11019.944l1.372.037-2.707-45.426-2.921.09-32.106-.451-.215,8.231.083,0-5.5,36.661,1.372.036,8.837-36.574,25.44.663Z" transform="translate(-670.513 -10923.845)" fill="#7b88ac"/>
        <path id="Path_4367" data-name="Path 4367" d="M677.967,10839.8c-1.863-5.692-12.473-5.051-21.8-4.814-6.708.164-8.338,2.026-7.994,6.819l8.025,41.837c.326,4.779,5.824,8.183,12.194,7.546s19.493-3.084,18.991-7.872Z" transform="translate(-648.127 -10834.839)" fill="#7b88ac"/>
        <path id="Path_4368" data-name="Path 4368" d="M699.175,11035.362l1.127.03-3.2-41.9,7.324-6.278-21-.687-24.729-.906-.083,6.869-6.028,41.911.914.024,9.665-41.817,29.188.761Z" transform="translate(-650.969 -10931.143)" fill="#7b88ac"/>
        <path id="Path_4369" data-name="Path 4369" d="M719.012,10971.843a1.691,1.691,0,0,0-1.228-2.8l-25.541-.769a21.627,21.627,0,0,0-6.827,1.093l-14.489,4.4-.108.035c-1.74.644-1.594,1.229.35,1.278l43.333,1.026a1.69,1.69,0,0,0,1.318-.583Z" transform="translate(-661.846 -10920.062)" fill="#7b88ac"/>
      </g>
    </g>
    <g id="Group_17208" data-name="Group 17208" transform="translate(692.388 10502.091)">
      <g id="Group_17207" data-name="Group 17207" transform="translate(0 0)">
        <g id="Group_17201" data-name="Group 17201" transform="translate(7.152)">
          <path id="Path_4370" data-name="Path 4370" d="M996.147,11069.584s-.592-3.983-.86-4.858c-.346-1.133-.516-2.818.436-3.812s1.1-3.327,1.1-3.685.357-5.715,4.287-4.921c0,0,1.627.4.833,3.255,0,0-.833,1.706.218,2.778a4.351,4.351,0,0,1,0,5.913c-1.965,2.382-1.405,3.254-1.091,4.168,1.432,4.169-1.614,8-1.945,9.018a7.055,7.055,0,0,0-.4,3.662l-1.155.021Z" transform="translate(-995.013 -11052.229)" fill="#ebebeb"/>
        </g>
        <g id="Group_17202" data-name="Group 17202" transform="translate(10.009 4.033)">
          <path id="Path_4371" data-name="Path 4371" d="M1003.236,11088.407a.145.145,0,0,0,.035,0,.174.174,0,0,0,.136-.206c-.442-2.15.334-5.982.341-6.021.427-1.63.551-3.714-.157-9.027a20.4,20.4,0,0,1,.216-6.971,11.726,11.726,0,0,1,.807-2.533.174.174,0,0,0-.311-.156,11.676,11.676,0,0,0-.834,2.6,20.746,20.746,0,0,0-.224,7.105c.7,5.239.57,7.349.163,8.9a19.913,19.913,0,0,0-.343,6.17A.175.175,0,0,0,1003.236,11088.407Z" transform="translate(-1002.92 -11063.393)" fill="#fff"/>
        </g>
        <g id="Group_17203" data-name="Group 17203" transform="translate(10.957 15.307)">
          <path id="Path_4372" data-name="Path 4372" d="M1006.912,11108.267s0-.939,1.928-1.829a3.222,3.222,0,0,0,1.928-2.323c.494-1.878,1.878-1.385,2.768-.841s2.911,0,2.914-2.817a1.869,1.869,0,0,1,.689-2.273c1.29-.791,1.784-3.617-.984-3.589s-5.376,1.4-8.057,5.368c-3.727,5.52-2.276,8.3-2.276,8.3Z" transform="translate(-1005.545 -11094.594)" fill="#ebebeb"/>
        </g>
        <g id="Group_17204" data-name="Group 17204" transform="translate(11.286 17.287)">
          <path id="Path_4373" data-name="Path 4373" d="M1006.755,11111.94a.171.171,0,0,0,.054-.009.177.177,0,0,0,.112-.22,4.228,4.228,0,0,1-.011-1.844.191.191,0,0,0,.014-.034c1.495-5.643,8.866-9.392,8.94-9.429a.176.176,0,0,0,.078-.235.174.174,0,0,0-.234-.077c-.076.037-7.572,3.852-9.117,9.635a4.131,4.131,0,0,0,0,2.092A.169.169,0,0,0,1006.755,11111.94Z" transform="translate(-1006.456 -11100.074)" fill="#fff"/>
        </g>
        <g id="Group_17205" data-name="Group 17205" transform="translate(0 6.94)">
          <path id="Path_4374" data-name="Path 4374" d="M983.484,11093.393a3.44,3.44,0,0,1-1.627-3.453,2.418,2.418,0,0,0-2.143-2.9c-.476-.079-3.572-1.35-3.1-5.993,0,0,.159-2.977-.4-4.049s-1.945-4.285,0-5.278,3.294.793,4.009,2.619a10.136,10.136,0,0,0,1.032,2.62,12.278,12.278,0,0,1,3.652,9.8l-.676,6.628Z" transform="translate(-975.219 -11071.438)" fill="#ebebeb"/>
        </g>
        <g id="Group_17206" data-name="Group 17206" transform="translate(2.772 10.591)">
          <path id="Path_4375" data-name="Path 4375" d="M988.7,11100.021a.174.174,0,0,0,.174-.168c.2-5.338-2.115-12.3-3.442-14.312a35.915,35.915,0,0,1-2.211-3.9.174.174,0,0,0-.232-.084.176.176,0,0,0-.083.233,36.119,36.119,0,0,0,2.235,3.941c1.306,1.979,3.583,8.837,3.385,14.105a.175.175,0,0,0,.168.182Z" transform="translate(-982.891 -11081.542)" fill="#fff"/>
        </g>
      </g>
      <path id="Path_4376" data-name="Path 4376" d="M996.844,11142.09h-7.485l-1.812-10.256h11.108Z" transform="translate(-983.093 -11103.071)" fill="#ebebeb"/>
    </g>
    <g id="Group_17218" data-name="Group 17218" transform="translate(581.404 10395.86)">
      <g id="Group_17209" data-name="Group 17209" transform="translate(14.223 21.24)">
        <path id="Path_4377" data-name="Path 4377" d="M769.55,10847.968l-.868.375-.148,2.268,2.095.672Z" transform="translate(-746.45 -10836.78)" fill="#eaeaea"/>
        <path id="Path_4378" data-name="Path 4378" d="M746.945,10819.513l-8.613-2.509.61,13.554,12.264,2.645Z" transform="translate(-727.161 -10817.004)" fill="#f7c371"/>
        <path id="Path_4379" data-name="Path 4379" d="M782.039,10929.761l-15.514,6.013.762,22.7,14.166-.686Z" transform="translate(-745.168 -10889.021)" fill="#eaeaea"/>
        <path id="Path_4380" data-name="Path 4380" d="M718.855,10906c10.092-.979,19.856,1.256,25-3.646,4.99-4.75,1.607-16.816,1.06-27.08-.732-13.72-17.264-30.615-29.151-25.705-16.521,6.825-3.852,28.264-1.449,33.985C721.358,10900.313,718.987,10902.144,718.855,10906Z" transform="translate(-707.414 -10837.245)" fill="#495bd9"/>
        <path id="Path_4381" data-name="Path 4381" d="M740.89,10922.177c-.458-4.489-4.442-4.288-13.933-19.05-1.84-2.863-4.32-11.629-6.6-18.936-.852-2.727-5.225,2.947-5.449,9.808-.139,4.255,3.275,9.584,4.194,11.775,7.039,16.764,4.668,18.594,4.536,22.445A35.452,35.452,0,0,0,740.89,10922.177Z" transform="translate(-712.198 -10859.47)" fill="#9ea9fc"/>
        <path id="Path_4382" data-name="Path 4382" d="M757.258,10888.4c-2.5-17.585-17.676-33.737-30.343-37.562-2.128-.642-.424-2.334,5.483-2.325C737.684,10848.545,759.662,10857.1,757.258,10888.4Z" transform="translate(-719.309 -10837.13)" fill="#9ea9fc"/>
        <path id="Path_4383" data-name="Path 4383" d="M766.9,10876.892c-3.35-14.668-9.6-21.965-23.253-28.376,5.154.028,26.079,5.113,24.887,34.393C768.5,10883.654,767.475,10879.429,766.9,10876.892Z" transform="translate(-730.553 -10837.13)" fill="#eaeaea"/>
        <path id="Path_4384" data-name="Path 4384" d="M806.3,10983.752c.027-.629-.3-1.154-.736-1.173s-.809.475-.836,1.1.3,1.153.736,1.173S806.267,10984.38,806.3,10983.752Z" transform="translate(-769.563 -10922.754)" fill="#7b87ab"/>
        <path id="Path_4385" data-name="Path 4385" d="M807.2,10963.135c.027-.628-.3-1.154-.736-1.173s-.809.476-.836,1.1.3,1.154.736,1.173S807.173,10963.764,807.2,10963.135Z" transform="translate(-770.142 -10909.586)" fill="#7b87ab"/>
        <path id="Path_4386" data-name="Path 4386" d="M765.4,10851.416l3.13.775-1.359-3.209-.6-.259Z" transform="translate(-744.447 -10837.263)" fill="#ffd9a4"/>
        <path id="Path_4387" data-name="Path 4387" d="M787,10889.645l-1.494-5.908s1.005-18.944-13.361-27.1l.122-.487C784.109,10863.215,788.744,10876.788,787,10889.645Z" transform="translate(-748.757 -10842.008)" fill="#ffd9a4"/>
        <path id="Path_4388" data-name="Path 4388" d="M747.438,10844.236l-12.225-2.112-1.3,2.53,11.741,3.579Z" transform="translate(-724.338 -10833.048)" fill="#fff"/>
      </g>
      <g id="Group_17213" data-name="Group 17213" transform="translate(15.255 0)">
        <path id="Path_4389" data-name="Path 4389" d="M717.906,10781.408c-6.769-6.143-7.836-17.667-7.61-18.106,2.408-4.7,10.909-5.491,15.33-4.927,3.728.477,6.825,2.077,5.427,5.127-.482,1.054-3.638-.739-4.5-.5-1.619.445.512,23.268.512,23.268Z" transform="translate(-710.269 -10758.217)" fill="#2d356b"/>
        <g id="Group_17211" data-name="Group 17211" transform="translate(7.558 5.037)">
          <g id="Group_17210" data-name="Group 17210" transform="translate(2.279)">
            <path id="Path_4390" data-name="Path 4390" d="M775.112,10817.175l.646-1.557-1.252-.548Z" transform="translate(-761.133 -10799.565)" fill="#ffd8a3"/>
            <path id="Path_4391" data-name="Path 4391" d="M738.912,10792.651c.963,1.821,7.492,5.05,13.324,3.913-.472-7.736-2.626-20.3-4.369-22.24-1.714-1.91-7.567-2.621-8.163-1.874,2.419,2.146.325,10.812-.765,11.74C736.286,10786.453,737.907,10790.75,738.912,10792.651Z" transform="translate(-737.494 -10772.158)" fill="#ffd8a3"/>
            <path id="Path_4392" data-name="Path 4392" d="M775.9,10804.6a54.718,54.718,0,0,1-3.849-6.015c-1.236-2.275.37,6.526.37,6.526S775.125,10805.331,775.9,10804.6Z" transform="translate(-759.264 -10788.8)" fill="#ffd8a3"/>
            <path id="Path_4393" data-name="Path 4393" d="M776.3,10836.254a.976.976,0,0,0,.471-1.353,1.174,1.174,0,0,0-1.541-.121.976.976,0,0,0-.472,1.353A1.177,1.177,0,0,0,776.3,10836.254Z" transform="translate(-761.208 -10812.011)" fill="#ffd8a3"/>
            <path id="Path_4394" data-name="Path 4394" d="M777.109,10828.206c0-.157-.2-.282-.437-.277s-.429.135-.426.292.2.282.436.278S777.112,10828.363,777.109,10828.206Z" transform="translate(-762.245 -10807.778)" fill="#ffd8a3"/>
          </g>
          <path id="Path_4395" data-name="Path 4395" d="M734.946,10803.457c-.534-1.343-1.752-2.167-2.722-1.839s-1.322,1.68-.789,3.021a3.2,3.2,0,0,0,3.514,1.546C735.918,10805.858,735.479,10804.8,734.946,10803.457Z" transform="translate(-731.186 -10790.928)" fill="#ffd8a3"/>
        </g>
        <path id="Path_4396" data-name="Path 4396" d="M773.067,10819.743l.258,3.146s-.883.039-1.129-.322a11.052,11.052,0,0,1-1.087-3.042Z" transform="translate(-749.126 -10797.373)" fill="#ffab00"/>
        <path id="Path_4397" data-name="Path 4397" d="M773.542,10820.064l.228,2.794s-.651.036-.815-.118a7.865,7.865,0,0,1-1.036-2.877Z" transform="translate(-749.644 -10797.59)" fill="#fff"/>
        <path id="Path_4398" data-name="Path 4398" d="M765.091,10792.751a.764.764,0,0,0-.267-.471c-.362-.282-2.883.918-2.768,1.465l.072.343c.082.393.807-.144,1.58-.368.74-.215,1.533-.1,1.468-.475Z" transform="translate(-743.343 -10779.945)" fill="#2d356b"/>
        <path id="Path_4399" data-name="Path 4399" d="M766.948,10801.015c-.053-.464-.354-.835-.673-.83s-.535.386-.483.85.353.835.672.829S767,10801.479,766.948,10801.015Z" transform="translate(-745.726 -10785.021)" fill="#2d356b"/>
        <path id="Path_4400" data-name="Path 4400" d="M770.815,10819.3c0-.108-.065-.2-.143-.194s-.137.09-.135.2.065.2.142.2S770.817,10819.415,770.815,10819.3Z" transform="translate(-748.761 -10797.108)" fill="#ffab00"/>
        <g id="Group_17212" data-name="Group 17212" transform="translate(8.042 0.834)">
          <path id="Path_4401" data-name="Path 4401" d="M740.043,10776.292c2.573-.16.126,11.9,1.53,12.56s.254,1.771-.461,1.6c-1.637-.384-2.344-3.605-2.728-5.666C737.956,10782.494,739.825,10776.3,740.043,10776.292Z" transform="translate(-736.227 -10770.595)" fill="#2d356b"/>
          <path id="Path_4402" data-name="Path 4402" d="M745.714,10764.362c.164-1.894-1.608-3.593-3.958-3.8s-9.063.364-9.227,2.256,6.282,4.395,8.632,4.6S745.55,10766.253,745.714,10764.362Z" transform="translate(-732.526 -10760.526)" fill="#2d356b"/>
        </g>
      </g>
      <g id="Group_17217" data-name="Group 17217" transform="translate(0 36.22)">
        <g id="Group_17214" data-name="Group 17214" transform="translate(30.135 26.889)">
          <path id="Path_4403" data-name="Path 4403" d="M765.364,10942.335c1.871,1.294,4.632,1.873,4.922,1.052.33-.924-2.137-.977-3.534-2.547-1.516-1.7-2.558-2.684-3.244-2.136S763.489,10941.041,765.364,10942.335Z" transform="translate(-758.985 -10936.505)" fill="#f8c471"/>
          <path id="Path_4404" data-name="Path 4404" d="M751.724,10937.05c2.752-.47,8.816,2.772,9.32.39.453-2.135-1.978-6.231-9.59-2.536Z" transform="translate(-751.454 -10933.225)" fill="#ffd9a4"/>
          <path id="Path_4405" data-name="Path 4405" d="M762.819,10933.484c-1.037,3.718,3.5,4.965,5.014,5.028,1.669.067,3.23-2.54,2.806-3.8S763.218,10932.064,762.819,10933.484Z" transform="translate(-758.615 -10932.885)" fill="#ffd9a4"/>
          <path id="Path_4406" data-name="Path 4406" d="M779.154,10935.96c1.948.07,2.981-.342,2.94-.859s-1.153-.491-3.1-.563-4.4-.646-4.362-.127S777.209,10935.885,779.154,10935.96Z" transform="translate(-766.259 -10933.722)" fill="#ffd9a4"/>
          <path id="Path_4407" data-name="Path 4407" d="M780.676,10941.974c1.932.471,3.81.02,3.874-.488s-1.812-.515-3.744-.983-3.209-.67-3.271-.162S778.745,10941.5,780.676,10941.974Z" transform="translate(-768.11 -10937.456)" fill="#ffd9a4"/>
          <path id="Path_4408" data-name="Path 4408" d="M774.9,10946.662c1.948.391,3.123.168,3.172-.339s-1.283-.524-3.229-.914-3.317-.637-3.366-.127S772.952,10946.271,774.9,10946.662Z" transform="translate(-764.242 -10940.619)" fill="#ffd9a4"/>
        </g>
        <g id="Group_17216" data-name="Group 17216">
          <path id="Path_4409" data-name="Path 4409" d="M668.547,10892.767c-2.917-1.125,13.907-34.549,19.076-34.3,0,0,7.758,5.9,4.626,18.337C692.249,10876.8,680.319,10897.31,668.547,10892.767Z" transform="translate(-668.152 -10858.464)" fill="#495bd9"/>
          <path id="Path_4410" data-name="Path 4410" d="M753.373,10938.236l-3.693,2.331-2.016-6.247,4.284-.061Z" transform="translate(-718.898 -10906.874)" fill="#eaeaea"/>
          <path id="Path_4411" data-name="Path 4411" d="M668.33,10939.648a3.68,3.68,0,0,0,2.9,2.665c4.154.744,14.587,1.553,29.573-4.594a10,10,0,0,0-2.081-6.928s-17.88-2.99-27.674.42C671.049,10931.212,666.958,10934.544,668.33,10939.648Z" transform="translate(-668.049 -10903.884)" fill="#495bd9"/>
          <g id="Group_17215" data-name="Group 17215" transform="translate(9.837 17.708)">
            <path id="Path_4412" data-name="Path 4412" d="M714.362,10908.105c.053-.213.1-.42.144-.63-2.634,2.351-7.013,9.1-11.673,9.77,5.01-.434,15.508-.448,18.189-.445-.028-.042-.052-.083-.082-.124a104.851,104.851,0,0,0-11.945-1.152A56.634,56.634,0,0,0,714.362,10908.105Z" transform="translate(-700.102 -10907.476)" fill="#9ea9fc"/>
            <path id="Path_4413" data-name="Path 4413" d="M695.275,10955.634c5.418-.053,13.211-1.114,22.918-5.1a5.417,5.417,0,0,0,.047-.89A90.372,90.372,0,0,1,695.275,10955.634Z" transform="translate(-695.275 -10934.411)" fill="#9ea9fc"/>
          </g>
          <path id="Path_4414" data-name="Path 4414" d="M743.267,10942.16a.99.99,0,1,0-1,.979A.99.99,0,0,0,743.267,10942.16Z" transform="translate(-714.826 -10911.282)" fill="#9ea9fc"/>
        </g>
      </g>
    </g>
    <g id="Group_17222" data-name="Group 17222" transform="translate(564.665 10435.022)">
      <g id="Group_17221" data-name="Group 17221" transform="translate(0 0)">
        <g id="Group_17219" data-name="Group 17219" transform="translate(0 28.924)">
          <rect id="Rectangle_5873" data-name="Rectangle 5873" width="139.516" height="4.188" fill="#40558d"/>
          <rect id="Rectangle_5874" data-name="Rectangle 5874" width="129.606" height="75.253" transform="translate(4.77 1.615)" fill="#40558d"/>
          <rect id="Rectangle_5875" data-name="Rectangle 5875" width="40.217" height="75.253" transform="translate(4.77 1.615)" fill="#7b87ab"/>
          <rect id="Rectangle_5876" data-name="Rectangle 5876" width="139.516" height="5.45" transform="translate(0 1.615)" fill="#2d356b"/>
        </g>
        <g id="Group_17220" data-name="Group 17220" transform="translate(43.117)">
          <path id="Path_4415" data-name="Path 4415" d="M798.231,10893.566h32.358a2,2,0,0,0,1.966-1.628l4.361-22.959a2,2,0,0,0-1.966-2.374H802.592a2,2,0,0,0-1.966,1.628l-4.361,22.958A2,2,0,0,0,798.231,10893.566Z" transform="translate(-776.295 -10866.605)" fill="#cfd0d8"/>
          <path id="Path_4416" data-name="Path 4416" d="M800.626,10868.9a1.085,1.085,0,1,1,1.6.747l-4.361,22.958a1.084,1.084,0,1,1-1.6-.746Z" transform="translate(-776.295 -10867.273)" fill="#ebebeb"/>
          <path id="Path_4417" data-name="Path 4417" d="M743.334,10943.5h49.74a2.277,2.277,0,0,0,2.277-2.277H741.057A2.277,2.277,0,0,0,743.334,10943.5Z" transform="translate(-741.057 -10914.263)" fill="#9898a4"/>
          <path id="Path_4418" data-name="Path 4418" d="M741.057,10941.224H762a2.446,2.446,0,0,1-2.585,2.277H743.642A2.445,2.445,0,0,1,741.057,10941.224Z" transform="translate(-741.057 -10914.263)" fill="#cfd0d8"/>
          <circle id="Ellipse_145" data-name="Ellipse 145" cx="2.297" cy="2.297" r="2.297" transform="translate(38.015 14.723) rotate(-67.5)" fill="#fff4ba"/>
        </g>
      </g>
    </g>
    <g id="Group_17230" data-name="Group 17230" transform="translate(557.787 10502.091)">
      <g id="Group_17229" data-name="Group 17229" transform="translate(0 0)">
        <g id="Group_17223" data-name="Group 17223" transform="translate(7.152)">
          <path id="Path_4419" data-name="Path 4419" d="M623.611,11069.584s-.592-3.983-.86-4.858c-.347-1.133-.516-2.818.436-3.812s1.1-3.327,1.1-3.685.357-5.715,4.287-4.921c0,0,1.627.4.833,3.255,0,0-.834,1.706.218,2.778a4.351,4.351,0,0,1,0,5.913c-1.965,2.382-1.406,3.254-1.092,4.168,1.431,4.169-1.614,8-1.945,9.018a7.05,7.05,0,0,0-.4,3.662l-1.156.021Z" transform="translate(-622.477 -11052.229)" fill="#ebebeb"/>
        </g>
        <g id="Group_17224" data-name="Group 17224" transform="translate(10.009 4.033)">
          <path id="Path_4420" data-name="Path 4420" d="M630.7,11088.407a.147.147,0,0,0,.035,0,.174.174,0,0,0,.136-.206c-.442-2.15.333-5.982.341-6.021.427-1.63.551-3.714-.157-9.027a20.4,20.4,0,0,1,.216-6.971,11.742,11.742,0,0,1,.807-2.533.174.174,0,1,0-.311-.156,11.66,11.66,0,0,0-.834,2.6,20.736,20.736,0,0,0-.224,7.105c.7,5.239.57,7.349.163,8.9a19.918,19.918,0,0,0-.344,6.17A.176.176,0,0,0,630.7,11088.407Z" transform="translate(-630.384 -11063.393)" fill="#fff"/>
        </g>
        <g id="Group_17225" data-name="Group 17225" transform="translate(10.957 15.307)">
          <path id="Path_4421" data-name="Path 4421" d="M634.376,11108.267s0-.939,1.928-1.829a3.222,3.222,0,0,0,1.928-2.323c.494-1.878,1.878-1.385,2.768-.841s2.911,0,2.914-2.817a1.87,1.87,0,0,1,.69-2.273c1.29-.791,1.785-3.617-.983-3.589s-5.376,1.4-8.057,5.368c-3.727,5.52-2.276,8.3-2.276,8.3Z" transform="translate(-633.009 -11094.594)" fill="#ebebeb"/>
        </g>
        <g id="Group_17226" data-name="Group 17226" transform="translate(11.286 17.287)">
          <path id="Path_4422" data-name="Path 4422" d="M634.219,11111.94a.175.175,0,0,0,.054-.009.177.177,0,0,0,.112-.22,4.228,4.228,0,0,1-.011-1.844.235.235,0,0,0,.014-.034c1.495-5.643,8.866-9.392,8.94-9.429a.176.176,0,0,0,.078-.235.174.174,0,0,0-.234-.077c-.076.037-7.572,3.852-9.117,9.635a4.129,4.129,0,0,0,0,2.092A.17.17,0,0,0,634.219,11111.94Z" transform="translate(-633.92 -11100.074)" fill="#fff"/>
        </g>
        <g id="Group_17227" data-name="Group 17227" transform="translate(0 6.94)">
          <path id="Path_4423" data-name="Path 4423" d="M610.948,11093.393a3.439,3.439,0,0,1-1.627-3.453,2.418,2.418,0,0,0-2.143-2.9c-.476-.079-3.572-1.35-3.1-5.993,0,0,.159-2.977-.4-4.049s-1.945-4.285,0-5.278,3.294.793,4.009,2.619a10.134,10.134,0,0,0,1.032,2.62,12.28,12.28,0,0,1,3.651,9.8l-.676,6.628Z" transform="translate(-602.683 -11071.438)" fill="#ebebeb"/>
        </g>
        <g id="Group_17228" data-name="Group 17228" transform="translate(2.772 10.591)">
          <path id="Path_4424" data-name="Path 4424" d="M616.165,11100.021a.174.174,0,0,0,.175-.168c.2-5.338-2.115-12.3-3.442-14.312a35.915,35.915,0,0,1-2.211-3.9.175.175,0,1,0-.316.149,36.219,36.219,0,0,0,2.235,3.941c1.306,1.979,3.583,8.837,3.384,14.105a.175.175,0,0,0,.168.182Z" transform="translate(-610.354 -11081.542)" fill="#fff"/>
        </g>
      </g>
      <path id="Path_4425" data-name="Path 4425" d="M624.308,11142.09h-7.485l-1.812-10.256H626.12Z" transform="translate(-610.557 -11103.071)" fill="#ebebeb"/>
    </g>
    <g id="Group_17231" data-name="Group 17231" transform="translate(559.803 10430.085)">
      <rect id="Rectangle_5877" data-name="Rectangle 5877" width="47.811" height="28.993" rx="6.672" transform="translate(0 0)" fill="#fff" stroke="#231f20" stroke-miterlimit="10" stroke-width="0.25"/>
      <text id="Steve" transform="translate(10.905 17.997)" fill="#2d356b" font-size="10" font-family="TrebuchetMS-Bold, Trebuchet MS" font-weight="700"><tspan x="0" y="0">Steve</tspan></text>
    </g>
    <g id="Group_17233" data-name="Group 17233" transform="translate(574.206 10204.451)">
      <g id="Group_17232" data-name="Group 17232" transform="translate(31.234 0)">
        <path id="Path_4426" data-name="Path 4426" d="M888.505,10432.776c12.019,30.449-.119,62.163-29.507,73.408-31.216,11.944-65.837,6.177-84.079-25.049-16.192,15.94-44.808,17.905-72,21.248-50.133,6.16-91.726-18.65-92.9-55.418a53.407,53.407,0,0,1,3.909-21.483c-42.706,12.085-66.74-4.242-75.342-46.1-6.347-30.888,18.187-83.572,79.37-91.091a208.344,208.344,0,0,1,22.8-1.559c-.116-1.02-2.026-6.862,1.576-16.737,15.655-42.921,64.151-47.58,114.034-36.29,42,9.506,69.142,23.217,76.61,45.624,0,0,116.5-24.4,133.558,77.031C966.528,10356.361,986.6,10446,888.505,10432.776Z" transform="translate(-537.61 -10228.451)" fill="#fff" stroke="#ebebeb" stroke-miterlimit="10" stroke-width="1"/>
        <ellipse id="Ellipse_146" data-name="Ellipse 146" cx="8.73" cy="9.207" rx="8.73" ry="9.207" transform="matrix(0.391, -0.921, 0.921, 0.391, -15.275, 152.408)" fill="#fff" stroke="#ebebeb" stroke-miterlimit="10" stroke-width="1"/>
        <ellipse id="Ellipse_147" data-name="Ellipse 147" cx="5.173" cy="5.456" rx="5.173" ry="5.456" transform="matrix(0.391, -0.921, 0.921, 0.391, -15.946, 164.261)" fill="#fff" stroke="#ebebeb" stroke-miterlimit="10" stroke-width="1"/>
        <ellipse id="Ellipse_148" data-name="Ellipse 148" cx="4.425" cy="4.667" rx="4.425" ry="4.667" transform="matrix(0.391, -0.921, 0.921, 0.391, -14.821, 181.859)" fill="#fff" stroke="#ebebeb" stroke-miterlimit="10" stroke-width="1"/>
      </g>
    </g>
    <g id="Group_17245" data-name="Group 17245" transform="translate(968.743 10367.729)">
      <g id="Group_17244" data-name="Group 17244" transform="translate(0 0)">
        <g id="Group_17234" data-name="Group 17234" transform="translate(0 72.685)">
          <path id="Path_4427" data-name="Path 4427" d="M1558.651,10895.4l-7.261,1.365c-6.385,22.808-4.817,50-19.085,96.562,0,0,1.363.595,1.56,0,11.87-36.006,18.363-64.236,20.666-68.116C1559.651,10916.589,1566.051,10909.261,1558.651,10895.4Z" transform="translate(-1528.726 -10891.879)" fill="#ffd8a3"/>
          <path id="Path_4428" data-name="Path 4428" d="M1588.928,10891.446c8.935,16.664,2.245,15.373,1.954,23.991-.838,24.855,15.009,37.5,19.928,75.516,0,0-1.948-.1-2-.648-3.056-30.329-29.932-59.35-31.038-87.509-.071-1.815-.151-7.24,1.967-9.181C1582.974,10890.646,1588.928,10891.446,1588.928,10891.446Z" transform="translate(-1557.746 -10889.294)" fill="#f7c371"/>
          <path id="Path_4429" data-name="Path 4429" d="M1652.937,11164.15h5.839s.282-1.658-1.02-1.924C1656.936,11162.06,1655.485,11162.445,1652.937,11164.15Z" transform="translate(-1605.772 -11062.278)" fill="#7b88ac"/>
          <path id="Path_4430" data-name="Path 4430" d="M1522.4,11164.546h5.133s.248-1.655-.9-1.922C1525.912,11162.457,1524.637,11162.842,1522.4,11164.546Z" transform="translate(-1522.397 -11062.532)" fill="#7b88ac"/>
          <path id="Path_4431" data-name="Path 4431" d="M1585.973,10944.484s-24.513,3.942-30.13,2.365c0,0,5.362-55.7,9.192-59.118s10.724-1.576,10.724-1.576a21.673,21.673,0,0,1,3.575,23.122C1574.228,10921.363,1585.973,10944.484,1585.973,10944.484Z" transform="translate(-1543.759 -10885.66)" fill="#f46973"/>
        </g>
        <g id="Group_17243" data-name="Group 17243" transform="translate(15.052)">
          <g id="Group_17240" data-name="Group 17240">
            <g id="Group_17239" data-name="Group 17239">
              <g id="Group_17235" data-name="Group 17235" transform="translate(6.192 1.015)">
                <path id="Path_4432" data-name="Path 4432" d="M1583.106,10731.437c-4.619-3.865,2.139-5.286,1.569-8.913s-1.285-2.417-2.2-7.084.21-6.509.1-9.259-2.27-7.109-.955-10.692,2.355-2.479,3.523-5.34,2.691.057,5.065,1.114,4.5-5.735,8.69-3.513,4.189,7.347,5.6,10.115,5.477,3.629,6.475,8.7-1.93,4.12-.388,7.555,5.042,2.886,6.04,7.952c0,0,.859,5.093-4.883,5.254s-3.723,3.088-10.082,1.57-3.87,3.809-8.4,2.068S1587.232,10734.891,1583.106,10731.437Z" transform="translate(-1581.194 -10687.3)" fill="#2d356b"/>
              </g>
              <g id="Group_17236" data-name="Group 17236" transform="translate(0 17.448)">
                <path id="Path_4433" data-name="Path 4433" d="M1605.354,10732.782l-5.291,3.323-.95,11.441,4.251-1.538Z" transform="translate(-1586.447 -10732.782)" fill="#f7c371"/>
                <path id="Path_4434" data-name="Path 4434" d="M1566.674,10822.566c3.4-2.228,11.294-7.151,20.047-1.056-2.618-7.687-5-15.246-5.08-21.57-.157-11.725,9.807-25.494,1.563-30.794-8.754-5.627-19.148,20.359-19.148,20.359C1572.809,10794.431,1570.388,10808.546,1566.674,10822.566Z" transform="translate(-1564.056 -10755.498)" fill="#9999a5"/>
                <path id="Path_4435" data-name="Path 4435" d="M1600.514,10767.319l-1.538-.182-6.874,6.468,2.035,1.718S1598.751,10770.62,1600.514,10767.319Z" transform="translate(-1581.969 -10754.724)" fill="#fff"/>
                <path id="Path_4436" data-name="Path 4436" d="M1584.05,10775.26l-.1-.069c1.814-3.62,5.779-9.162,9.606-8.806C1590.076,10769.493,1584.05,10775.26,1584.05,10775.26Z" transform="translate(-1576.765 -10754.233)" fill="#f7c371"/>
              </g>
              <g id="Group_17238" data-name="Group 17238" transform="translate(4.31)">
                <g id="Group_17237" data-name="Group 17237">
                  <path id="Path_4437" data-name="Path 4437" d="M1594.393,10708.834c2.73-1.053,8.292-2.519,10.59-7.031,2.988-5.865,1.747-9.184.15-13.213-3.043-7.681-16.157-2.626-15.08-.381C1591.483,10691.189,1584.5,10712.647,1594.393,10708.834Z" transform="translate(-1584.285 -10684.491)" fill="#2d356b"/>
                  <path id="Path_4438" data-name="Path 4438" d="M1583.454,10717.19c-1.023.1-3.385-5-4.338-9-.314-1.318,1.11-1.621.562-6.175-.322-2.672.543-6.5,4.762-9.615,3.983-2.936,5.131,5.345,5.686,7.229,1.582,5.366,3.324,8.66,2.186,11.449C1590.092,10716.518,1584.534,10716.815,1583.454,10717.19Z" transform="translate(-1577.955 -10689.142)" fill="#ffd8a3"/>
                  <path id="Path_4439" data-name="Path 4439" d="M1589.022,10741.99a.236.236,0,0,0-.239-.234.248.248,0,0,0-.177.292.238.238,0,0,0,.24.234A.249.249,0,0,0,1589.022,10741.99Z" transform="translate(-1584.044 -10721.064)" fill="#ffab00"/>
                  <path id="Path_4440" data-name="Path 4440" d="M1586.342,10721.536c-.1-.718-.574-1.237-1.065-1.163s-.813.717-.717,1.432.574,1.239,1.066,1.164S1586.439,10722.254,1586.342,10721.536Z" transform="translate(-1581.45 -10707.404)" fill="#2d356b"/>
                  <path id="Path_4441" data-name="Path 4441" d="M1585.8,10721.465a2.814,2.814,0,0,0-3.7-.972A6.911,6.911,0,0,1,1585.8,10721.465Z" transform="translate(-1579.895 -10707.268)" fill="#2d356b"/>
                  <path id="Path_4442" data-name="Path 4442" d="M1584.824,10750.721c-.047-.162-.5.479-.743.525-.683.128-.4.987.276.789C1584.62,10751.957,1584.873,10750.9,1584.824,10750.721Z" transform="translate(-1580.905 -10726.774)" fill="#f36973"/>
                  <path id="Path_4443" data-name="Path 4443" d="M1583.768,10742.489c.448-.231-2.793-.823-2.116.188A4.965,4.965,0,0,0,1583.768,10742.489Z" transform="translate(-1579.544 -10721.289)" fill="#f36973"/>
                  <path id="Path_4444" data-name="Path 4444" d="M1581.039,10711.019a4.217,4.217,0,0,1,5.321,2.131A5.41,5.41,0,0,0,1581.039,10711.019Z" transform="translate(-1579.213 -10701.269)" fill="#2d356b"/>
                  <path id="Path_4445" data-name="Path 4445" d="M1576.772,10730.709l1.632.326-.349-4.051-2.072,3.117Z" transform="translate(-1575.984 -10711.631)" fill="#ffd8a3"/>
                  <path id="Path_4446" data-name="Path 4446" d="M1578.967,10739.028l-1.483-2.382,1.185-.161Z" transform="translate(-1576.942 -10717.699)" fill="#ffd8a3"/>
                  <path id="Path_4447" data-name="Path 4447" d="M1582.422,10746.256a30.024,30.024,0,0,1-1.134-3.433l2.86-.288S1583.884,10745.621,1582.422,10746.256Z" transform="translate(-1579.372 -10721.563)" fill="#ffab00"/>
                  <path id="Path_4448" data-name="Path 4448" d="M1583.777,10744.6l-1.629.164c-.139-.432-.272-.886-.4-1.354l2.338-.235Z" transform="translate(-1579.665 -10721.97)" fill="#fff"/>
                  <path id="Path_4449" data-name="Path 4449" d="M1617.169,10724.4c-.19-1.24-.7-2.119.237-2.26s1.863.749,2.052,1.992a2.055,2.055,0,0,1-1.367,2.506C1617.148,10726.779,1617.358,10725.642,1617.169,10724.4Z" transform="translate(-1602.09 -10708.526)" fill="#f7c371"/>
                </g>
                <path id="Path_4450" data-name="Path 4450" d="M1588.595,10691.9c3.46,4.238,9.39,10.349,8.773,16.944,1.972-7.153-.138-16.222-5.087-19.547C1591.869,10690.034,1587.758,10690.236,1588.595,10691.9Z" transform="translate(-1583.967 -10687.559)" fill="#2d356b"/>
              </g>
            </g>
          </g>
          <g id="Group_17242" data-name="Group 17242" transform="translate(12.2 32.218)">
            <g id="Group_17241" data-name="Group 17241" transform="translate(0 41.878)">
              <path id="Path_4451" data-name="Path 4451" d="M1601.32,10905.517c-.183-.445.579-.855,1.5-1.191s1.655-.468,1.84-.024-.414,1.075-1.338,1.41S1601.5,10905.96,1601.32,10905.517Z" transform="translate(-1600.039 -10898.797)" fill="#f7c371"/>
              <path id="Path_4452" data-name="Path 4452" d="M1603.874,10908.308c-.184-.444.579-.856,1.5-1.189s1.654-.471,1.84-.027-.414,1.076-1.337,1.412S1604.059,10908.75,1603.874,10908.308Z" transform="translate(-1601.67 -10900.578)" fill="#f7c371"/>
              <path id="Path_4453" data-name="Path 4453" d="M1598.01,10900.135c.42-.254,1.236.714,2.038,1.891s1.289,2.114.868,2.37-1.41-.494-2.213-1.672S1597.59,10900.39,1598.01,10900.135Z" transform="translate(-1597.823 -10896.29)" fill="#ffd8a3"/>
              <path id="Path_4454" data-name="Path 4454" d="M1605.684,10889.565c-1.945.8-8.258,2.865-7.573,5.022.613,1.93,4.095,3.372,8.8-3.451Z" transform="translate(-1597.974 -10889.565)" fill="#ffd8a3"/>
            </g>
            <path id="Path_4455" data-name="Path 4455" d="M1614.759,10773.926c4.357-3.339,19.575,25.782,19.7,26.944,0,0-2.286,3.486-3.38,2.654C1628.243,10801.37,1612.814,10775.417,1614.759,10773.926Z" transform="translate(-1608.532 -10773.659)" fill="#cecfd7"/>
            <path id="Path_4456" data-name="Path 4456" d="M1620.11,10861.557c-3.285-2.578,13.939-17.561,14.777-17.865,0,0,3.006,1.032,2.594,1.989C1636.417,10848.157,1621.577,10862.709,1620.11,10861.557Z" transform="translate(-1611.792 -10818.388)" fill="#cecfd7"/>
            <path id="Path_4457" data-name="Path 4457" d="M1618.9,10888.548l1.133.678,4.65-1.9a10.252,10.252,0,0,0-2.283-1.687C1621.831,10885.541,1618.9,10888.548,1618.9,10888.548Z" transform="translate(-1611.284 -10845.179)" fill="#eaeaea"/>
            <path id="Path_4458" data-name="Path 4458" d="M1617.71,10883.556l-.764-1.088,1.6-4.764a10.374,10.374,0,0,1,1.865,2.168C1620.555,10880.434,1617.71,10883.556,1617.71,10883.556Z" transform="translate(-1610.037 -10840.111)" fill="#eaeaea"/>
          </g>
        </g>
      </g>
    </g>
    <g id="Group_17246" data-name="Group 17246" transform="translate(972.697 10424.029)">
      <rect id="Rectangle_5878" data-name="Rectangle 5878" width="48.811" height="28.993" rx="6.672" transform="translate(0 0)" fill="#fff" stroke="#231f20" stroke-miterlimit="10" stroke-width="0.25"/>
      <text id="Akiko" transform="translate(11.405 17.997)" fill="#2d356b" font-size="10" font-family="TrebuchetMS-Bold, Trebuchet MS" font-weight="700"><tspan x="0" y="0">Akiko</tspan></text>
    </g>
  </g>
</svg>
