<svg xmlns="http://www.w3.org/2000/svg" width="544" height="358" viewBox="0 0 544 358">
  <g id="Group_17414" data-name="Group 17414" transform="translate(-30 -1967)">
    <g id="Rectangle_5943" data-name="Rectangle 5943" transform="translate(30 1967)" fill="#fff" stroke="#707070" stroke-width="1">
      <rect width="544" height="334" rx="7" stroke="none"/>
      <rect x="0.5" y="0.5" width="543" height="333" rx="6.5" fill="none"/>
    </g>
    <g id="Group_17254" data-name="Group 17254" transform="translate(60.343 1988.862)">
      <g id="Group_16939" data-name="Group 16939" transform="translate(35)">
        <g id="Group_16938" data-name="Group 16938">
          <g id="Group_16937" data-name="Group 16937">
            <rect id="Rectangle_5794" data-name="Rectangle 5794" width="287" height="81.603" rx="11.604" fill="#fff" stroke="#231f20" stroke-miterlimit="10" stroke-width="0.25"/>
            <path id="Path_4017" data-name="Path 4017" d="M530.833,2630.211l-12.809,92.5,30.807-92.5Z" transform="translate(-487.208 -2548.604)" fill="#fff" stroke="#231f20" stroke-miterlimit="10" stroke-width="0.25"/>
          </g>
        </g>
      </g>
      <g id="Group_16951" data-name="Group 16951" transform="translate(-3.964 150.621)">
        <path id="Path_4018" data-name="Path 4018" d="M615.889,2931.955c5.364-14.389-18.193-32.318-28.987-27.6a1.942,1.942,0,0,0-.541.36c-2.837,2.619-25.909-12.984-25.994,68.315,0,1.9,7.784,2.619,7.312,6.66s-.065,3.625,1.672,5.71,5.621-.242,6.319,1.221a2.619,2.619,0,0,1-1.114,3.524c-2.091,1.411-4.268-1.709-2.282-3.263,7-5.479,20.49-17.039,28.548-30.45C601.468,2955.357,614.464,2935.777,615.889,2931.955Z" transform="translate(-540.784 -2903.585)" fill="#ffb2b0"/>
        <g id="Group_16950" data-name="Group 16950" transform="translate(0 5.534)">
          <g id="Group_16944" data-name="Group 16944" transform="translate(20.955 31.597)">
            <g id="Group_16942" data-name="Group 16942" transform="translate(18.334)">
              <g id="Group_16941" data-name="Group 16941">
                <g id="Group_16940" data-name="Group 16940">
                  <path id="Path_4019" data-name="Path 4019" d="M628.04,2995.012l11.721,7.363,2.1,25.345-9.417-3.406Z" transform="translate(-620.262 -2995.012)" fill="#f7c371"/>
                  <path id="Path_4020" data-name="Path 4020" d="M619.595,3135.09c.348-25.97-21.725-56.474-3.462-68.215,19.391-12.466,42.418,45.1,42.418,45.1-14.208,11.871-6.528,23.109-6.528,23.109" transform="translate(-608.889 -3036.64)" fill="#fff4ba"/>
                  <path id="Path_4021" data-name="Path 4021" d="M630.014,3063.123l3.406-.4,15.227,14.325-4.508,3.806S633.921,3070.436,630.014,3063.123Z" transform="translate(-621.435 -3035.224)" fill="#fff"/>
                  <path id="Path_4022" data-name="Path 4022" d="M660.623,3080.9c.073-.052.14-.1.213-.155-4.018-8.017-12.8-20.3-21.281-19.507C647.275,3068.127,660.623,3080.9,660.623,3080.9Z" transform="translate(-627.102 -3034.322)" fill="#f7c371"/>
                </g>
              </g>
            </g>
            <g id="Group_16943" data-name="Group 16943" transform="translate(0 31.684)">
              <path id="Path_4023" data-name="Path 4023" d="M588.8,3073.221c-11.345-4.378-25.508,67.018-25.038,69.566,0,0,7.034,5.982,8.841,3.529C577.273,3139.969,593.861,3075.175,588.8,3073.221Z" transform="translate(-563.746 -3073.028)" fill="#ffe200"/>
              <path id="Path_4024" data-name="Path 4024" d="M608.528,3246.487c5.372-7.533-37.429-15.9-39.4-16.022,0,0-5.505,3.9-4.273,5.849C570.232,3244.832,606.129,3249.851,608.528,3246.487Z" transform="translate(-564.298 -3166.525)" fill="#ffe200"/>
            </g>
          </g>
          <g id="Group_16949" data-name="Group 16949" transform="translate(40.279)">
            <g id="Group_16948" data-name="Group 16948">
              <g id="Group_16947" data-name="Group 16947">
                <g id="Group_16946" data-name="Group 16946" transform="translate(0 4.176)">
                  <path id="Path_4025" data-name="Path 4025" d="M644.6,2976.384c2,.048,5.821-10.2,7.076-18.091.414-2.6-2.391-2.977-2-11.883.229-5.229-2.014-12.527-10.649-17.931-8.153-5.1-9.154,11.116-9.952,14.849-2.273,10.634-5.161,17.277-2.545,22.511C631.632,2976.061,642.448,2975.817,644.6,2976.384Z" transform="translate(-619.736 -2927.496)" fill="#ffd8a3"/>
                  <path id="Path_4026" data-name="Path 4026" d="M672.433,3012.977a.46.46,0,0,1,.428-.49.485.485,0,0,1,.387.541.462.462,0,0,1-.43.49A.483.483,0,0,1,672.433,3012.977Z" transform="translate(-647.616 -2977.97)" fill="#ffab00"/>
                  <path id="Path_4027" data-name="Path 4027" d="M670.364,2977.713c.081-1.4.93-2.483,1.893-2.412s1.682,1.268,1.6,2.672-.929,2.484-1.893,2.412S670.283,2979.117,670.364,2977.713Z" transform="translate(-646.384 -2955.884)" fill="#2d356b"/>
                  <path id="Path_4028" data-name="Path 4028" d="M665.54,2977.684c1.4-1.912,3.374-3.8,7.021-2.43A13.445,13.445,0,0,0,665.54,2977.684Z" transform="translate(-643.523 -2955.579)" fill="#2d356b"/>
                  <path id="Path_4029" data-name="Path 4029" d="M678.577,3027.642c.067-.324,1.043.854,1.518.906,1.343.147.918,1.854-.419,1.57C679.154,3030.007,678.508,3027.985,678.577,3027.642Z" transform="translate(-651.263 -2986.936)" fill="#f36973"/>
                  <path id="Path_4030" data-name="Path 4030" d="M676,3013.311c-.9-.384,5.292-2.01,4.128.05C679.711,3013.76,676.464,3013.508,676,3013.311Z" transform="translate(-649.682 -2977.882)" fill="#f36973"/>
                  <path id="Path_4031" data-name="Path 4031" d="M668.784,2958.8c-2.267-.513-7.214-1.034-10,4.916C661.535,2960.13,663.631,2958.818,668.784,2958.8Z" transform="translate(-639.513 -2945.911)" fill="#2d356b"/>
                  <path id="Path_4032" data-name="Path 4032" d="M687.2,2993.076l-3.115.872.077-7.9,4.476,5.733Z" transform="translate(-654.535 -2962.267)" fill="#ffd8a3"/>
                  <path id="Path_4033" data-name="Path 4033" d="M686.673,3007.272l2.521-4.834-2.32-.138Z" transform="translate(-656.073 -2971.919)" fill="#ffd8a3"/>
                  <path id="Path_4034" data-name="Path 4034" d="M677.305,3020.8a58.444,58.444,0,0,0,1.69-6.821l-5.586-.133S674.377,3019.783,677.305,3020.8Z" transform="translate(-648.196 -2978.775)" fill="#ffab00"/>
                  <path id="Path_4035" data-name="Path 4035" d="M676,3017.525l3.182.076c.2-.857.4-1.754.575-2.685l-4.566-.109Z" transform="translate(-649.255 -2979.348)" fill="#fff"/>
                  <path id="Path_4036" data-name="Path 4036" d="M615.821,2986.892c.184-2.434,1.052-4.211-.794-4.346s-3.5,1.728-3.682,4.164,1.169,4.519,3.019,4.656S615.639,2989.329,615.821,2986.892Z" transform="translate(-611.328 -2960.185)" fill="#f7c371"/>
                </g>
                <path id="Path_4037" data-name="Path 4037" d="M642.92,2917.218c-1.4,5.776-5.64,20.365-13.833,23.162,0,0-4.861-12.836,2.792-17.578C641.541,2916.812,642.92,2917.218,642.92,2917.218Z" transform="translate(-620.97 -2917.212)" fill="#ffb2b0"/>
              </g>
            </g>
          </g>
        </g>
      </g>
      <g id="Group_16936" data-name="Group 16936" transform="translate(169.697 62.051)">
        <g id="Group_16935" data-name="Group 16935" transform="translate(0 0)">
          <g id="Group_16934" data-name="Group 16934">
            <rect id="Rectangle_5793" data-name="Rectangle 5793" width="243.776" height="81.603" rx="11.604" fill="#fff" stroke="#231f20" stroke-miterlimit="10" stroke-width="0.25"/>
            <path id="Path_4016" data-name="Path 4016" d="M1370.584,2865.07l42.712,30.446-24.714-30.446Z" transform="translate(-1193.613 -2783.463)" fill="#fff" stroke="#231f20" stroke-miterlimit="10" stroke-width="0.25"/>
          </g>
        </g>
      </g>
      <g id="Group_16960" data-name="Group 16960" transform="translate(385.974 144.936)">
        <g id="Group_16958" data-name="Group 16958" transform="translate(19.671 0)">
          <g id="Group_16956" data-name="Group 16956">
            <path id="Path_4038" data-name="Path 4038" d="M1491.66,3079.044l2.087.63.933,5.154-4.621,2.088Z" transform="translate(-1465.514 -3001.522)" fill="#eaeaea"/>
            <path id="Path_4039" data-name="Path 4039" d="M1498.076,3016.268l19.068-8,2.151,31.2-27.393,9.268Z" transform="translate(-1466.609 -2959.491)" fill="#f7c371"/>
            <line id="Line_19" data-name="Line 19" x2="37.102" y2="9.707" transform="translate(2.346 148.804)" fill="#eaeaea"/>
            <path id="Path_4040" data-name="Path 4040" d="M1429.957,3140.952c-1.917-31.612,31.521-74.631,60.029-66.5,39.622,11.3,16.22,63.716,12.216,77.449" transform="translate(-1429.774 -2998.201)" fill="#9ea9fc"/>
            <path id="Path_4041" data-name="Path 4041" d="M1561.96,3188.187c3.466-7.039,6.85-27.764,10.16-45.093,1.236-6.47,12.735,5.382,15.044,21.033,1.432,9.708-4.991,22.808-6.523,28.064" transform="translate(-1508.214 -3038.49)" fill="#9ea9fc"/>
            <path id="Path_4042" data-name="Path 4042" d="M1443.268,3156.875c1.131-40.927,27.175-67.789,55.181-79.861,4.7-2.028.359-5.457-13.164-3.889C1473.187,3074.576,1429.569,3085.816,1443.268,3156.875Z" transform="translate(-1436.162 -2997.771)" fill="#7b88ac"/>
            <path id="Path_4043" data-name="Path 4043" d="M1432.921,3144.778c3.831-34.47,16.246-52.816,45.823-71.071-11.8,1.415-56.773,16.613-47.993,82.8C1430.977,3158.209,1432.259,3150.736,1432.921,3144.778Z" transform="translate(-1429.622 -2998.353)" fill="#ebebeb"/>
            <path id="Path_4044" data-name="Path 4044" d="M1457,3285.091" transform="translate(-1445.884 -3123.889)" fill="#9999a5"/>
            <path id="Path_4045" data-name="Path 4045" d="M1497.852,3085.809l-6.965,2.594,2.273-7.705,1.316-.749Z" transform="translate(-1466.006 -3002.06)" fill="#ffe200"/>
            <path id="Path_4046" data-name="Path 4046" d="M1437.864,3162.434l-2.6.183s-7.261-43.12,23.5-65.551l-.407-1.085C1433.091,3115.255,1430.5,3133.451,1437.864,3162.434Z" transform="translate(-1432.38 -3011.581)" fill="#ffe200"/>
            <path id="Path_4047" data-name="Path 4047" d="M1494,3067.294l27.443-8.036,3.642,5.455-25.95,11.268Z" transform="translate(-1467.855 -2989.772)" fill="#fff"/>
            <g id="Group_16955" data-name="Group 16955" transform="translate(14.386)">
              <path id="Path_4048" data-name="Path 4048" d="M1515.679,2938.782c12.729-16.293,10.676-42.39,10-43.283-7.173-9.549-26.427-8.048-36.066-5.09-8.127,2.493-14.414,7.253-10.127,13.514,1.48,2.163,7.826-3.048,9.826-2.852,3.78.372,7.8,52.066,7.8,52.066Z" transform="translate(-1472.799 -2888.164)" fill="#2d356b"/>
              <g id="Group_16953" data-name="Group 16953" transform="translate(0 12.194)">
                <g id="Group_16952" data-name="Group 16952">
                  <path id="Path_4049" data-name="Path 4049" d="M1478.335,3017.924l-2.039-3.218,2.58-1.7Z" transform="translate(-1471.726 -2974.496)" fill="#ffd8a3"/>
                  <path id="Path_4050" data-name="Path 4050" d="M1509.81,2963.217c-1.447,4.43-14.758,14.135-28.2,13.845-1.922-17.426-1.949-46.263,1.19-51.256,3.088-4.913,15.861-8.75,17.475-7.312-4.568,5.713,3.432,24.223,6.218,25.874C1513.282,2948.393,1511.321,2958.595,1509.81,2963.217Z" transform="translate(-1474.095 -2918.188)" fill="#ffd8a3"/>
                  <path id="Path_4051" data-name="Path 4051" d="M1465.044,2994.557a123.77,123.77,0,0,0,6.268-14.887c1.882-5.549,1.683,14.689,1.683,14.689S1467.044,2995.879,1465.044,2994.557Z" transform="translate(-1465.044 -2954.129)" fill="#ffd8a3"/>
                  <path id="Path_4052" data-name="Path 4052" d="M1478.965,3056.818c-1.368-.544-2.073-1.813-1.571-2.834a2.661,2.661,0,0,1,3.387-.864c1.371.544,2.074,1.814,1.573,2.834A2.662,2.662,0,0,1,1478.965,3056.818Z" transform="translate(-1472.282 -2998.174)" fill="#ffd8a3"/>
                  <path id="Path_4053" data-name="Path 4053" d="M1479.114,3040.26c-.054-.352.334-.7.867-.787s1.008.136,1.063.488-.333.7-.865.786S1479.168,3040.612,1479.114,3040.26Z" transform="translate(-1473.396 -2990.206)" fill="#ffd8a3"/>
                </g>
                <path id="Path_4054" data-name="Path 4054" d="M1544.233,2977.834c.674-3.2,3.074-5.5,5.36-5.145s3.594,3.236,2.921,6.432-4.953,5.152-7.24,4.8S1543.56,2981.031,1544.233,2977.834Z" transform="translate(-1511.718 -2950.534)" fill="#ffd8a3"/>
              </g>
              <path id="Path_4055" data-name="Path 4055" d="M1480.369,3021.911l.634,7.111s1.983-.254,2.393-1.155c.223-.491,1.469-5.144,1.253-7.2Z" transform="translate(-1474.145 -2966.856)" fill="#ffab00"/>
              <path id="Path_4056" data-name="Path 4056" d="M1480.7,3022.692l.567,6.316s1.465-.167,1.771-.576a17.765,17.765,0,0,0,1.2-6.811Z" transform="translate(-1474.341 -2967.42)" fill="#fff"/>
              <path id="Path_4057" data-name="Path 4057" d="M1483.344,2967.194a1.729,1.729,0,0,1,.413-1.153c.7-.769,6.778.939,6.734,2.2l-.03.791c-.032.908-1.854-.009-3.664-.212-1.73-.195-3.455.362-3.454-.494Z" transform="translate(-1475.911 -2934.299)" fill="#2d356b"/>
              <path id="Path_4058" data-name="Path 4058" d="M1489.248,2983.057c-.061-1.054.467-2,1.181-2.108s1.341.654,1.4,1.708-.466,2-1.18,2.108S1489.312,2984.11,1489.248,2983.057Z" transform="translate(-1479.416 -2943.26)" fill="#2d356b"/>
              <path id="Path_4059" data-name="Path 4059" d="M1490.551,3020.269c-.038-.244.07-.463.243-.49s.341.15.378.394-.07.462-.241.489S1490.589,3020.513,1490.551,3020.269Z" transform="translate(-1480.187 -2966.325)" fill="#ffab00"/>
              <g id="Group_16954" data-name="Group 16954" transform="translate(5.254 3.25)">
                <path id="Path_4060" data-name="Path 4060" d="M1529.019,2925.361c-5.8.633,4.294,26.585,1.417,28.585s.115,4.043,1.644,3.395c3.5-1.484,3.839-8.938,3.9-13.678C1536.056,2938.384,1529.51,2925.307,1529.019,2925.361Z" transform="translate(-1507.205 -2913.504)" fill="#2d356b"/>
                <path id="Path_4061" data-name="Path 4061" d="M1478.191,2907.476c-1.093-4.156,2.2-8.626,7.362-9.984s20.342-2.671,21.434,1.483-12.313,12.209-17.474,13.564S1479.283,2911.629,1478.191,2907.476Z" transform="translate(-1477.982 -2896.167)" fill="#2d356b"/>
              </g>
            </g>
          </g>
          <g id="Group_16957" data-name="Group 16957" transform="translate(30.103 88.655)">
            <path id="Path_4062" data-name="Path 4062" d="M1543.47,3106.626s-21.943-4.4-39.726,31.92" transform="translate(-1503.744 -3106.458)" fill="#9ea9fc"/>
            <path id="Path_4063" data-name="Path 4063" d="M1540.172,3217.693c-27.18-6.7-36.429-37.4-36.429-37.4a16.382,16.382,0,0,1,1.813-3.539C1511.262,3211.065,1541.3,3217.971,1540.172,3217.693Z" transform="translate(-1503.744 -3148.205)" fill="#7b88ac"/>
            <path id="Path_4064" data-name="Path 4064" d="M1557.042,3266.3" transform="translate(-1535.396 -3201.384)" fill="#2d356b"/>
          </g>
        </g>
      </g>
      <g id="Group_16933" data-name="Group 16933" transform="translate(97.292 129.269)">
        <g id="Group_16932" data-name="Group 16932" transform="translate(0 0)">
          <g id="Group_16931" data-name="Group 16931">
            <rect id="Rectangle_5792" data-name="Rectangle 5792" width="183.694" height="81.603" rx="11.604" fill="#fff" stroke="#231f20" stroke-miterlimit="10" stroke-width="0.25"/>
            <path id="Path_4015" data-name="Path 4015" d="M777.458,3105.313l-18.843,21.118,36.841-21.118Z" transform="translate(-753.775 -3023.706)" fill="#fff" stroke="#231f20" stroke-miterlimit="10" stroke-width="0.25"/>
          </g>
        </g>
      </g>
    </g>
    <g id="Rectangle_5944" data-name="Rectangle 5944" transform="translate(77 2276)" fill="#fff" stroke="#707070" stroke-width="1">
      <rect width="465" height="49" rx="7" stroke="none"/>
      <rect x="0.5" y="0.5" width="464" height="48" rx="6.5" fill="none"/>
    </g>
  </g>
</svg>
