<svg xmlns="http://www.w3.org/2000/svg" xmlns:xlink="http://www.w3.org/1999/xlink" width="100" height="100" viewBox="0 0 100 100"><defs><clipPath id="a"><circle cx="50" cy="50" r="50" fill="#fff"/></clipPath></defs><g transform="translate(-16034 -2648.7)"><circle cx="50" cy="50" r="50" transform="translate(16034 2648.7)" fill="#f8f8f8"/><g transform="translate(16034 2648.7)" clip-path="url(#a)"><g transform="translate(8.46 8.513)"><g transform="translate(0 41.975)"><path d="M571.561,307.5l1.74.682.443,4.469-4.094,1.467Z" transform="translate(-542.971 -284.614)" fill="#eaeaea"/><path d="M548.93,281.719l16.848-5.526-.307,26.814-24.051,6.038Z" transform="translate(-514.365 -276.193)" fill="#f7c371"/><path d="M564.705,388.607l31.045,10.848V446.67l-27.872.171Z" transform="translate(-561.361 -306.425)" fill="#eaeaea"/><path d="M565.555,447.72c-20-1.266-42.994-9.552-52.41-32.886-5.095-12.628-4.289-33.112-3.889-53.424.536-27.152,32.075-61.622,55.883-52.711,33.089,12.387,9.482,55.576,5.115,67.039C557.46,409.32,565.039,440.119,565.555,447.72Z" transform="translate(-507.344 -284.549)" fill="#abaeb3"/><path d="M515.38,445.936c.609-8.9,5.716-36.107,23.486-65.9,3.447-5.778,7.765-23.26,11.786-37.844,1.5-5.445,10.516,5.475,11.413,19.012.556,8.4-5.834,19.151-7.505,23.539-12.794,33.582-5.215,64.382-4.7,71.982C538.3,456,525.742,452.91,515.38,445.936Z" transform="translate(-491.65 -293.559)" fill="#7b87ab"/><path d="M528.969,387.561c3.781-34.905,32.682-67.82,57.449-76.213,4.161-1.409.683-4.639-10.984-4.229-3.268.128-9.71,2.014-17.075,6.6C543.038,323.262,524.282,345.187,528.969,387.561Z" transform="translate(-527.057 -284.5)" fill="#2d356b"/><path d="M548.715,364.728c5.645-29.2,17.517-44.027,44.053-57.6-10.18.4-51.178,11.829-46.883,69.591C546,378.194,547.74,369.776,548.715,364.728Z" transform="translate(-544.392 -284.513)" fill="#eaeaea"/><path d="M600.711,442.459c-.1-1.238.52-2.3,1.377-2.364s1.628.885,1.724,2.124-.519,2.3-1.376,2.365S600.808,443.7,600.711,442.459Z" transform="translate(-595.748 -320.271)" fill="#7b87ab"/><path d="M602.271,422.36c-.1-1.238.521-2.3,1.377-2.365s1.628.885,1.724,2.125-.519,2.3-1.376,2.364S602.368,423.6,602.271,422.36Z" transform="translate(-598.448 -314.865)" fill="#7b87ab"/><path d="M572.691,313.394l-6.132,1.738,2.472-6.429,1.177-.549Z" transform="translate(-539.657 -284.788)" fill="#ffb2b0"/><path d="M574.2,382.668l2.559-11.769s-3.242-37.355,24.6-54.413l-.273-.956C578.155,330.269,569.9,357.39,574.2,382.668Z" transform="translate(-573.104 -286.772)" fill="#ffb2b0"/><path d="M536.052,305.672l24.009-4.981L562.8,305.6l-22.956,7.846Z" transform="translate(-507.462 -282.781)" fill="#fff"/></g><g transform="translate(38.379 68.383)"><path d="M523.582,376.277c6.009-1.281-33.023-65.3-43.1-63.941,0,0-17.148,8.615-9.985,42.544C470.5,354.88,501.631,380.954,523.582,376.277Z" transform="translate(-458.046 -312.315)" fill="#abaeb3"/><path d="M524.883,387.228c-21.9,9.826-48.787-17.922-48.787-17.922a14.069,14.069,0,0,1-.643-3.348C497.426,386.127,525.794,386.82,524.883,387.228Z" transform="translate(-463.644 -326.741)" fill="#7b87ab"/><path d="M545.67,484.229c-.5-.916.969-2.027,2.787-3.013s3.291-1.483,3.79-.564-.57,2.459-2.387,3.447S546.169,485.145,545.67,484.229Z" transform="translate(-542.371 -357.456)" fill="#f7c371"/><path d="M542.7,486.888c-.5-.917.967-2.025,2.784-3.013s3.293-1.482,3.792-.564-.571,2.461-2.388,3.447S543.2,487.8,542.7,486.888Z" transform="translate(-537.227 -358.171)" fill="#f7c371"/><path d="M549.065,477.51c.8-.671,2.739,1.215,4.7,3.559s3.221,4.256,2.418,4.928-3.04-.687-5.008-3.033S548.264,478.182,549.065,477.51Z" transform="translate(-548.781 -356.705)" fill="#ffd8a3"/><path d="M549.49,463.235c-3.8,2.3-16.285,8.542-14.3,13.057,1.776,4.038,9.342,6.22,17.252-9.972Z" transform="translate(-534.698 -352.903)" fill="#ffd8a3"/><path d="M533.479,469.007l7.228-4.625-9.428-8.8-3.682,7.571Z" transform="translate(-517.568 -350.845)" fill="#eaeaea"/><path d="M522.721,395.614s-10.563,20.282-44.536,51.8c0,0-5.066-.863-9.055-8.9,0,0,14.38-37.438,32.12-53.267C501.25,385.241,520.867,386.816,522.721,395.614Z" transform="translate(-456.838 -331.927)" fill="#40558d"/><path d="M533.792,456.149a1.813,1.813,0,1,1-.381-2.788A2.012,2.012,0,0,1,533.792,456.149Z" transform="translate(-513.067 -350.189)" fill="#7b87ab"/></g><g transform="translate(18.619)"><path d="M549.815,263.617c12.052-13.459,11.791-36.332,11.258-37.151-5.694-8.745-22.569-8.564-31.146-6.55-7.232,1.7-12.992,5.479-9.621,11.19,1.164,1.972,7-2.2,8.734-1.91,3.274.545,3.752,45.85,3.752,45.85Z" transform="translate(-512.314 -218.776)" fill="#c3e8e6"/><g transform="translate(0 10.27)"><g transform="translate(0)"><path d="M579.185,281.607l-1.589-2.925,2.35-1.335Z" transform="translate(-573.599 -244.798)" fill="#ffd8a3"/><path d="M567.076,272.732c-1.521,3.778-13.7,11.459-25.394,10.42-.655-15.306,1.011-40.449,4.04-44.618,2.98-4.1,14.341-6.7,15.664-5.351-4.317,4.714,1.574,21.319,3.906,22.923C570.972,260.011,568.664,268.791,567.076,272.732Z" transform="translate(-536.208 -232.824)" fill="#ffd8a3"/><path d="M576.153,274.13a108.125,108.125,0,0,0,6.337-12.612c1.966-4.728.607,12.9.607,12.9S577.819,275.4,576.153,274.13Z" transform="translate(-576.153 -240.325)" fill="#ffd8a3"/><path d="M576.792,300.069c-1.161-.555-1.7-1.7-1.2-2.563a2.324,2.324,0,0,1,3-.555c1.164.554,1.7,1.7,1.206,2.563A2.327,2.327,0,0,1,576.792,300.069Z" transform="translate(-572.033 -249.991)" fill="#ffd8a3"/><path d="M577.9,290.768c-.027-.309.332-.594.8-.635s.872.178.9.488-.332.594-.8.635S577.932,291.078,577.9,290.768Z" transform="translate(-573.484 -248.235)" fill="#ffd8a3"/></g><path d="M537.066,264.457c.775-2.748,3-4.616,4.975-4.171s2.943,3.032,2.17,5.779-4.62,4.2-6.593,3.758S536.292,267.2,537.066,264.457Z" transform="translate(-507.949 -240.192)" fill="#ffd8a3"/></g><path d="M573.841,282.161l.137,6.237s1.744-.105,2.154-.866a21.82,21.82,0,0,0,1.515-6.2Z" transform="translate(-568.557 -235.599)" fill="#ffab00"/><path d="M574.588,282.468l.124,5.539s1.287-.06,1.578-.4a15.53,15.53,0,0,0,1.449-5.868Z" transform="translate(-569.2 -235.709)" fill="#fff"/><path d="M567.459,255.727a1.511,1.511,0,0,1,.428-.981c.654-.629,5.855,1.216,5.742,2.313l-.072.687c-.081.79-1.616-.116-3.182-.4-1.5-.271-3.034.113-2.983-.633Z" transform="translate(-559.823 -228.415)" fill="#2d356b"/><path d="M570.409,263.907c.009-.923.525-1.714,1.153-1.769s1.131.649,1.124,1.572-.523,1.714-1.152,1.768S570.4,264.829,570.409,263.907Z" transform="translate(-561.085 -230.437)" fill="#2d356b"/><path d="M573.274,281.321c-.019-.215.088-.4.241-.413s.288.151.306.366-.088.4-.239.412S573.293,281.535,573.274,281.321Z" transform="translate(-564.316 -235.485)" fill="#ffab00"/><g transform="translate(6.893 2.385)"><path d="M545.981,236.5c-5.091.213,2.187,23.429-.439,25.005s-.137,3.531,1.234,3.056c3.138-1.089,3.87-7.567,4.2-11.7C551.353,248.261,546.412,236.477,545.981,236.5Z" transform="translate(-527.076 -225.926)" fill="#c3e8e6"/><path d="M541.748,230.865c-.709-3.687,2.426-7.392,7-8.273s17.892-1.138,18.6,2.548-11.45,9.923-16.029,10.8S542.457,234.549,541.748,230.865Z" transform="translate(-541.648 -222.038)" fill="#c3e8e6"/></g></g></g></g></g></svg>