<svg width="428" height="206" xmlns="http://www.w3.org/2000/svg" xmlns:xlink="http://www.w3.org/1999/xlink" overflow="hidden"><defs><filter id="fx0" x="-10%" y="-10%" width="120%" height="120%" filterUnits="userSpaceOnUse" primitiveUnits="userSpaceOnUse"><feComponentTransfer color-interpolation-filters="sRGB"><feFuncR type="discrete" tableValues="0 0"/><feFuncG type="discrete" tableValues="0 0"/><feFuncB type="discrete" tableValues="0 0"/><feFuncA type="linear" slope="0.34902" intercept="0"/></feComponentTransfer><feGaussianBlur stdDeviation="1.39983 1.39983"/></filter><filter id="fx1" x="-10%" y="-10%" width="120%" height="120%" filterUnits="userSpaceOnUse" primitiveUnits="userSpaceOnUse"><feComponentTransfer color-interpolation-filters="sRGB"><feFuncR type="discrete" tableValues="0 0"/><feFuncG type="discrete" tableValues="0 0"/><feFuncB type="discrete" tableValues="0 0"/><feFuncA type="linear" slope="0.34902" intercept="0"/></feComponentTransfer><feGaussianBlur stdDeviation="1.39983 1.39983"/></filter><filter id="fx2" x="-10%" y="-10%" width="120%" height="120%" filterUnits="userSpaceOnUse" primitiveUnits="userSpaceOnUse"><feComponentTransfer color-interpolation-filters="sRGB"><feFuncR type="discrete" tableValues="0 0"/><feFuncG type="discrete" tableValues="0 0"/><feFuncB type="discrete" tableValues="0 0"/><feFuncA type="linear" slope="0.34902" intercept="0"/></feComponentTransfer><feGaussianBlur stdDeviation="1.39983 1.39983"/></filter><filter id="fx3" x="-10%" y="-10%" width="120%" height="120%" filterUnits="userSpaceOnUse" primitiveUnits="userSpaceOnUse"><feComponentTransfer color-interpolation-filters="sRGB"><feFuncR type="discrete" tableValues="0 0"/><feFuncG type="discrete" tableValues="0 0"/><feFuncB type="discrete" tableValues="0 0"/><feFuncA type="linear" slope="0.34902" intercept="0"/></feComponentTransfer><feGaussianBlur stdDeviation="1.39983 1.39983"/></filter><clipPath id="clip4"><rect x="135" y="284" width="428" height="206"/></clipPath><clipPath id="clip5"><rect x="173" y="284" width="389" height="202"/></clipPath><clipPath id="clip6"><rect x="173" y="284" width="389" height="202"/></clipPath><clipPath id="clip7"><rect x="208" y="326" width="340" height="130"/></clipPath><clipPath id="clip8"><rect x="1" y="1" width="45" height="115"/></clipPath><clipPath id="clip9"><rect x="0" y="0" width="46" height="113"/></clipPath><clipPath id="clip10"><rect x="208" y="326" width="340" height="130"/></clipPath><clipPath id="clip11"><rect x="1" y="1" width="45" height="89"/></clipPath><clipPath id="clip12"><rect x="0" y="0" width="46" height="87"/></clipPath><clipPath id="clip13"><rect x="208" y="326" width="340" height="130"/></clipPath><clipPath id="clip14"><rect x="1" y="1" width="45" height="89"/></clipPath><clipPath id="clip15"><rect x="0" y="0" width="46" height="87"/></clipPath><clipPath id="clip16"><rect x="208" y="326" width="340" height="130"/></clipPath><clipPath id="clip17"><rect x="1" y="1" width="45" height="75"/></clipPath><clipPath id="clip18"><rect x="0" y="0" width="46" height="74"/></clipPath><clipPath id="clip19"><rect x="208" y="326" width="340" height="130"/></clipPath><clipPath id="clip20"><rect x="208" y="326" width="340" height="130"/></clipPath><clipPath id="clip21"><rect x="208" y="326" width="340" height="130"/></clipPath><clipPath id="clip22"><rect x="208" y="326" width="340" height="130"/></clipPath><clipPath id="clip23"><rect x="173" y="284" width="389" height="202"/></clipPath><clipPath id="clip24"><rect x="173" y="284" width="389" height="202"/></clipPath><clipPath id="clip25"><rect x="173" y="284" width="389" height="202"/></clipPath><clipPath id="clip26"><rect x="173" y="284" width="389" height="202"/></clipPath><clipPath id="clip27"><rect x="173" y="284" width="389" height="202"/></clipPath><clipPath id="clip28"><rect x="173" y="284" width="389" height="202"/></clipPath><clipPath id="clip29"><rect x="173" y="284" width="389" height="202"/></clipPath><clipPath id="clip30"><rect x="173" y="284" width="389" height="202"/></clipPath><clipPath id="clip31"><rect x="173" y="284" width="389" height="202"/></clipPath><clipPath id="clip32"><rect x="173" y="284" width="389" height="202"/></clipPath><clipPath id="clip33"><rect x="173" y="284" width="389" height="202"/></clipPath><clipPath id="clip34"><rect x="173" y="284" width="389" height="202"/></clipPath><clipPath id="clip35"><rect x="173" y="284" width="389" height="202"/></clipPath><clipPath id="clip36"><rect x="173" y="284" width="389" height="202"/></clipPath><clipPath id="clip37"><rect x="173" y="284" width="389" height="202"/></clipPath><clipPath id="clip38"><rect x="173" y="284" width="389" height="202"/></clipPath><clipPath id="clip39"><rect x="173" y="284" width="389" height="202"/></clipPath></defs><g clip-path="url(#clip4)" transform="translate(-135 -284)"><g clip-path="url(#clip5)"><path d="M208.5 429.5 547.5 429.5M208.5 403.5 547.5 403.5M208.5 377.5 547.5 377.5M208.5 351.5 547.5 351.5M208.5 326.5 547.5 326.5" stroke="#868686" stroke-linejoin="round" stroke-miterlimit="10" fill="none"/></g><g clip-path="url(#clip6)"><rect x="208.5" y="326.5" width="339" height="129" stroke="#D9D9D9" stroke-linejoin="round" stroke-miterlimit="10" fill="none"/></g><g clip-path="url(#clip7)"><g clip-path="url(#clip8)" filter="url(#fx0)" transform="translate(313 348)"><g clip-path="url(#clip9)"><rect x="6" y="6.4147" width="34" height="103" fill="#2F5597"/></g></g></g><g clip-path="url(#clip10)"><g clip-path="url(#clip11)" filter="url(#fx1)" transform="translate(397 374)"><g clip-path="url(#clip12)"><rect x="6" y="6.4147" width="34" height="77" fill="#BF9000"/></g></g></g><g clip-path="url(#clip13)"><g clip-path="url(#clip14)" filter="url(#fx2)" transform="translate(482 374)"><g clip-path="url(#clip15)"><rect x="6" y="6.4147" width="34" height="77" fill="#7C7C7C"/></g></g></g><g clip-path="url(#clip16)"><g clip-path="url(#clip17)" filter="url(#fx3)" transform="translate(228 387)"><g clip-path="url(#clip18)"><path d="M6 6.4147 40 6.4147 40 70.4147 6 70.4147Z" fill="#548235"/></g></g></g><g clip-path="url(#clip19)"><rect x="319" y="352" width="34" height="103" fill="#2F5597"/></g><g clip-path="url(#clip20)"><rect x="403" y="378" width="34" height="77" fill="#BF9000"/></g><g clip-path="url(#clip21)"><rect x="488" y="378" width="34" height="77" fill="#7C7C7C"/></g><g clip-path="url(#clip22)"><path d="M234 391 268 391 268 455 234 455Z" fill="#548235"/></g><g clip-path="url(#clip23)"><path d="M0 0 0.000104987 129" stroke="#868686" stroke-linejoin="round" stroke-miterlimit="10" fill="none" fill-rule="evenodd" transform="matrix(1 0 0 -1 208.5 455.5)"/></g><g clip-path="url(#clip24)"><path d="M204.5 455.5 208.5 455.5M204.5 429.5 208.5 429.5M204.5 403.5 208.5 403.5M204.5 377.5 208.5 377.5M204.5 351.5 208.5 351.5M204.5 326.5 208.5 326.5" stroke="#868686" stroke-linejoin="round" stroke-miterlimit="10" fill="none"/></g><g clip-path="url(#clip25)"><path d="M208.5 455.5 547.5 455.5" stroke="#868686" stroke-linejoin="round" stroke-miterlimit="10" fill="none" fill-rule="evenodd"/></g><g clip-path="url(#clip26)"><path d="M208.5 455.5 208.5 459.5M293.5 455.5 293.5 459.5M377.5 455.5 377.5 459.5M462.5 455.5 462.5 459.5M547.5 455.5 547.5 459.5" stroke="#868686" stroke-linejoin="round" stroke-miterlimit="10" fill="none"/></g><g clip-path="url(#clip27)"><text fill="#2E2E2E" font-family="Arial,Arial_MSFontService,sans-serif" font-weight="400" font-size="13" transform="translate(189.364 459)">0</text></g><g clip-path="url(#clip28)"><text fill="#2E2E2E" font-family="Arial,Arial_MSFontService,sans-serif" font-weight="400" font-size="13" transform="translate(189.364 434)">2</text></g><g clip-path="url(#clip29)"><text fill="#2E2E2E" font-family="Arial,Arial_MSFontService,sans-serif" font-weight="400" font-size="13" transform="translate(189.364 408)">4</text></g><g clip-path="url(#clip30)"><text fill="#2E2E2E" font-family="Arial,Arial_MSFontService,sans-serif" font-weight="400" font-size="13" transform="translate(189.364 382)">6</text></g><g clip-path="url(#clip31)"><text fill="#2E2E2E" font-family="Arial,Arial_MSFontService,sans-serif" font-weight="400" font-size="13" transform="translate(189.364 356)">8</text></g><g clip-path="url(#clip32)"><text fill="#2E2E2E" font-family="Arial,Arial_MSFontService,sans-serif" font-weight="400" font-size="13" transform="translate(181.951 330)">10</text></g><g clip-path="url(#clip33)"><text fill="#2E2E2E" font-family="Arial,Arial_MSFontService,sans-serif" font-weight="400" font-size="13" transform="translate(241.794 475)">Q1</text></g><g clip-path="url(#clip34)"><text fill="#2E2E2E" font-family="Arial,Arial_MSFontService,sans-serif" font-weight="400" font-size="13" transform="translate(326.664 475)">Q2</text></g><g clip-path="url(#clip35)"><text fill="#2E2E2E" font-family="Arial,Arial_MSFontService,sans-serif" font-weight="400" font-size="13" transform="translate(411.534 475)">Q3</text></g><g clip-path="url(#clip36)"><text fill="#2E2E2E" font-family="Arial,Arial_MSFontService,sans-serif" font-weight="400" font-size="13" transform="translate(496.404 475)">Q4</text></g><g clip-path="url(#clip37)"></g><g clip-path="url(#clip38)"></g><g clip-path="url(#clip39)"></g><text fill="#2E2E2E" font-family="5,5_MSFontService,sans-serif" font-weight="300" font-size="11" transform="translate(145.411 467)">Units <tspan font-size="11" x="0" y="13">(Thousands)</tspan></text></g></svg>